<svg xmlns="http://www.w3.org/2000/svg" width="250" height="250" viewBox="0 0 250 250"><path opacity=".15" d="M70.826 35.033L47.613 58.29v160.22h155.554V35.032"/><path fill="#EF4B4D" d="M66.826 31.033L43.613 54.29v160.22h155.554V31.032"/><g fill="#FFF"><path d="M75.948 65.417c0 1.466-.118 2.852-.352 4.157V67.88c0-1.496.117-2.8.352-3.915v1.452zm.418-5.806c0 .49-.06.78-.176.88-.073-.16-.11-.39-.11-.7 0-.33.03-.64.088-.9.132.06.198.3.198.73zm.022 1.59c-.03.08-.088.16-.176.27-.088 0-.132-.08-.132-.24v-.06c.015-.05.037-.1.066-.13l.066.07c.102 0 .16.04.176.11zm22.565 2.49H93.06c-.265 0-.544-.49-.837-1.47-.162-.57-.403-1.15-.726-1.73-.924-.45-1.906-.68-2.947-.68h-1.473c-.646.02-1.137.02-1.474.02-.63 0-1.085.15-1.364.44-.18.19-.39.62-.62 1.3-.41 1.16-.76 1.74-1.04 1.74h-5.74c-.11-.04-.21-.14-.31-.3 0-.95.27-2.14.81-3.56l1.36-3.47.79-2.31c.16-.55.43-1.37.81-2.44.07-.14.17-.38.29-.7l2.86-8.91c.05-.19.16-.35.3-.48h8.34c.27.11.59.22.94.33.12.44.33 1.09.64 1.94 0 1.09.11 1.7.35 1.85.63 2.74 1.05 4.54 1.27 5.41.53 2.04 1.08 3.81 1.65 5.32 0 .34.08.59.24.75l1.23 5.65c.34 0 .5.45.5 1.35zM78.72 35.09c0 .087-.045.13-.133.13h-.022c-.088 0-.132-.043-.132-.13.015-.06.06-.096.132-.11h.044c.05.014.09.05.11.11zm5.475.285c-.06.118-.132.176-.22.176h-.154c-.11 0-.21-.03-.28-.11.03-.07.13-.11.31-.11h.07c.11 0 .2.02.29.05zm.946 0c-.04.103-.09.17-.15.198-.06-.015-.13-.06-.22-.132.02-.07.08-.11.18-.11H85c.074 0 .124.02.154.05zm1.24 0c-.04.118-.11.176-.2.176H86c-.12 0-.214-.03-.287-.11.03-.07.132-.11.308-.11h.07c.1 0 .2.02.29.05zm3.89 20.035c0-2.65-.69-5.442-2.09-8.374l-.28.352c-.42 1.29-.85 2.573-1.29 3.85-.58 1.802-.88 3.04-.88 3.716 1.01.307 2.53.46 4.55.46zm2.18-19.68h-3.9v-.285l3.9.287zm9.77.64l-.35.263h-2.22c-2.55 0-4.84-.2-6.88-.594-.01-.24.07-.36.25-.36.06 0 .15 0 .25.02.11.01.19.02.23.02 3.99 0 5.47-.01 4.43-.02 1.7.04 3.14.26 4.31.66zm-2.18 29.05c0 1.466-.11 2.852-.35 4.157V67.88c0-1.496.12-2.8.35-3.915v1.452zm.42-5.806c0 .486-.06.78-.17.88-.07-.16-.11-.394-.11-.702 0-.336.03-.637.09-.9.14.06.2.3.2.725zm.02 1.585c-.03.07-.08.16-.17.26-.09 0-.13-.08-.13-.24v-.07c.02-.06.04-.1.07-.13l.07.06c.11 0 .16.03.18.11zm22.57 2.48h-5.89c-.26 0-.54-.49-.83-1.48-.16-.57-.4-1.15-.72-1.74-.92-.46-1.9-.69-2.94-.69h-1.47c-.64.01-1.14.02-1.47.02-.63 0-1.08.14-1.36.44-.17.19-.38.62-.61 1.29-.41 1.16-.75 1.74-1.03 1.74h-5.74c-.1-.05-.2-.15-.3-.31 0-.96.27-2.14.82-3.57l1.37-3.48.8-2.31c.16-.56.43-1.37.81-2.44.08-.15.17-.39.29-.71l2.86-8.91c.06-.19.16-.35.31-.48h8.34c.27.1.59.21.94.33.12.44.33 1.09.64 1.94 0 1.08.11 1.7.35 1.85.63 2.74 1.05 4.54 1.27 5.41.53 2.04 1.08 3.81 1.65 5.32 0 .34.08.58.24.75l1.23 5.65c.34 0 .51.45.51 1.34zM102.8 35.09c0 .087-.043.13-.13.13h-.023c-.088 0-.132-.043-.132-.13.015-.06.06-.096.132-.11h.044c.06.014.1.05.11.11zm5.477.285c-.06.118-.132.176-.22.176h-.154c-.117 0-.212-.03-.286-.11.03-.07.132-.11.308-.11h.066c.11 0 .2.02.29.05zm.946 0c-.044.103-.096.17-.154.198-.06-.015-.14-.06-.22-.132.01-.07.07-.11.17-.11h.04c.07 0 .12.02.15.05zm1.232 0c-.044.118-.11.176-.198.176h-.176c-.11 0-.21-.03-.28-.11.03-.07.13-.11.31-.11h.07c.1 0 .2.02.29.05zm3.892 20.036c0-2.65-.696-5.44-2.09-8.37l-.285.35c-.425 1.29-.858 2.58-1.297 3.85-.587 1.8-.88 3.04-.88 3.72 1.012.31 2.53.46 4.552.46zm2.178-19.68h-3.893v-.28l3.893.29zm9.764.64l-.36.27h-2.22c-2.55 0-4.85-.2-6.89-.59-.02-.23.06-.35.24-.35.05 0 .14.01.25.03.11.02.19.02.23.02 3.99 0 5.46 0 4.42-.02 1.7.04 3.14.26 4.31.66zm-2.18 29.05c0 1.47-.12 2.86-.35 4.16v-1.7c0-1.49.11-2.8.35-3.91v1.45zm.42-5.8c0 .49-.06.78-.18.88-.08-.16-.11-.39-.11-.7 0-.33.03-.63.09-.9.13.06.2.3.2.73zm.02 1.59c-.03.08-.09.16-.18.27-.09 0-.13-.08-.13-.24v-.06c.01-.05.03-.1.06-.13l.06.07c.1 0 .16.04.17.11zm22.56 2.49h-5.9c-.27 0-.55-.49-.84-1.47-.16-.57-.41-1.15-.73-1.73-.93-.45-1.91-.68-2.95-.68h-1.48c-.65.02-1.14.03-1.47.03-.63 0-1.09.14-1.37.44-.18.19-.39.62-.62 1.29-.41 1.16-.75 1.74-1.03 1.74H125c-.102-.04-.204-.14-.307-.31 0-.95.27-2.14.814-3.56l1.362-3.47.79-2.31c.16-.56.43-1.37.81-2.44.07-.15.16-.38.28-.7l2.85-8.9c.06-.19.16-.35.31-.48h8.33c.28.1.59.21.94.33.12.44.33 1.09.64 1.94 0 1.08.11 1.7.35 1.85.63 2.75 1.05 4.55 1.27 5.41.52 2.04 1.07 3.82 1.65 5.33 0 .34.08.59.24.75l1.23 5.65c.33 0 .5.45.5 1.35zm-20.24-28.6c0 .09-.05.13-.13.13h-.03c-.09 0-.14-.04-.14-.13.01-.06.06-.09.13-.11h.04c.06.02.09.05.11.11zm5.47.29c-.06.12-.14.18-.23.18h-.15c-.12 0-.22-.03-.29-.11.02-.07.13-.11.3-.11h.07c.1 0 .19.02.28.05zm.94 0c-.04.11-.1.17-.16.2-.06-.01-.13-.06-.22-.13.01-.07.07-.11.17-.11h.04c.07 0 .12.02.15.05zm1.23 0c-.05.12-.11.18-.2.18h-.18c-.12 0-.22-.03-.29-.11.03-.07.13-.11.31-.11h.06c.11 0 .2.02.29.05zm3.89 20.04c0-2.65-.7-5.44-2.09-8.38l-.29.35c-.43 1.29-.86 2.57-1.3 3.85-.59 1.8-.88 3.04-.88 3.72 1.01.3 2.53.46 4.55.46zm2.18-19.68h-3.89v-.28l3.89.29zm9.76.64l-.35.27h-2.22c-2.55 0-4.84-.2-6.88-.6-.02-.24.06-.36.24-.36.06 0 .14.01.25.02.11.02.18.02.23.02 3.98 0 5.46 0 4.42-.02 1.7.05 3.14.27 4.31.66z"/><path d="M148.7 37.024c-.09.162-.25.242-.484.242v-1.298c-.206.088-.31.293-.31.616 0 .132.034.3.1.505.066.2.1.35.1.44 0 .16-.066.3-.198.44l-.132-.31-.308 1.1-.154-.2v-.68c0-.15.066-.47.198-.97v-.07c.06-.21.088-.38.088-.53 0-.14-.044-.25-.132-.36l.638-1.12c-.03 0-.088.01-.176.04s-.14.04-.154.04c-.117 0-.176-.13-.176-.38.498 0 .748.19.748.57 0 .06-.022.15-.066.27s-.065.21-.065.27c0 .13.08.24.24.33.162.09.243.2.243.35 0 .13-.033.24-.1.32-.065.08-.1.13-.1.14v.09c.045.04.11.08.2.11zm-.97-.11c0-.072-.043-.116-.13-.13-.06.028-.09.073-.09.13l.09.11c.058-.014.102-.05.13-.11zm0 .287c0-.1-.043-.16-.13-.17-.06.05-.09.11-.09.2 0 .06.03.11.09.13.087 0 .13-.04.13-.13v-.03zm0 .31c0-.09-.043-.14-.13-.15-.06.05-.09.11-.09.18 0 .06.03.11.09.14.087-.01.13-.05.13-.11v-.04zm.574-2.22c0-.09-.03-.14-.088-.15-.074.03-.11.08-.11.16l.11.09.088-.08zm22.454 9.26c-.132.15-.27.38-.418.71h.176v.29c-.132 0-.285.05-.462.16-.103 5.78-.264 11.65-.483 17.6l-1.89.24c-.14-.11-1.27-.17-3.36-.17-.14-.13-.26-.3-.35-.52-.61-1.51-1.8-4.19-3.56-8.05-.45-.99-.85-1.99-1.19-2.99l-.06-.09c-.14.02-.8 1.4-1.95 4.16l-3.08 7.28c-.35.15-.73.22-1.14.22-.44 0-1.11-.02-2-.06-.9-.05-1.56-.07-2-.07v-10.8h-.61c.02-.09.05-.14.11-.17.21 0 .35 0 .42-.02.06-.34.13-1.77.2-4.29 0-.09.02-.24.05-.46.03-.22.04-.38.04-.48 0-.22-.03-.54-.1-.96-.06-.42-.1-.75-.1-.97v-.04l.2-.24c0-.94.02-2.35.07-4.22.05-1.87.07-3.28.07-4.22.56 0 1.27-.18 2.13-.54.86-.35 1.44-.54 1.75-.56 0 .22.06.35.2.38-.06.02-.11.06-.15.13-.44.16-1.1.38-1.98.64l3.17-.15c.13.22.19.91.19 2.05 0 1.44-.05 3.59-.16 6.47-.11 2.87-.16 5.02-.16 6.46 0 .58.05.96.14 1.15.25-.97.58-2 .99-3.08 1.55-3.98 2.33-6.19 2.33-6.64 0-.09-.03-.17-.1-.25-.07-.07-.1-.14-.1-.19v-.16l1.03-1.03 1.7.15c.53 1.04.83 1.56.91 1.56.03 0 .06-.01.09-.04-.1.12-.15.29-.15.51 0 .22.27 1.18.79 2.86.53 1.69.83 2.55.9 2.6.22.85.62 2.09 1.19 3.72l.13-.09V48.7h-.48c0-.25-.08-.5-.25-.743l-.09.02c.6-.31.9-.533.9-.68 0-.073-.02-.19-.05-.34s-.04-.27-.04-.342c0-.4.04-1 .11-1.8.08-.8.11-1.403.11-1.813v-6.01l.11-.42 5.63-.09v6l.09.15-.04.05c-.05.09-.07.2-.07.33 0 .1.02.31.06.62h.42l-.37.22c.05.09.17.19.38.31.16.09.24.25.24.47zm-15.308-10.8c-.145.41-.542.63-1.187.66.058-.01.088-.06.088-.15v-.02c0-.07-.03-.11-.08-.13-.07.03-.11.08-.11.14 0 .08.04.13.11.18h-.35c.15-.17.31-.39.49-.66h1.06zm2.86 31.56c0 .69-.197 1.04-.594 1.04-.322 0-.483-.16-.483-.48 0-.17.092-.37.274-.58.184-.21.282-.4.297-.56h-.417c.176-.2.44-.52.79-.94.09.46.133.97.133 1.54zm.638-4.22c-.323 0-.58-.06-.77-.2-.147-.25-.22-.74-.22-1.47 0-.42.116-.69.35-.79.235.28.383.5.44.66-.13 0-.24.05-.33.14v.11c.09.09.133.5.133 1.23.27.06.4.17.4.33zm-.528-.63c0-.07-.037-.11-.11-.13-.06.03-.088.08-.088.16 0 .06.03.1.088.13.06-.03.096-.07.11-.13v-.02zm9.37 6.03c-.837.72-1.4 1.08-1.694 1.08 0-.14-.026-.35-.077-.63-.06-.28-.08-.48-.08-.61 0-.16.03-.25.09-.28-.09-.05-.14-.2-.14-.44 0-.29.04-.46.13-.5l1.65.46-.29.09c.26 0 .39.29.39.86zm9.126-5.17c0 .14-.022.32-.066.55s-.065.42-.065.55c-.235.22-.564.33-.99.33h-2.177c-.25-.74-.374-1.83-.374-3.25v-.24h3.343c.22 0 .33.69.33 2.07zm6.994 0c0 .14-.022.32-.066.55s-.065.42-.065.55c-.24.22-.57.33-.99.33h-2.18c-.25-.74-.38-1.83-.38-3.25v-.24h3.34c.22 0 .33.69.33 2.07zm6.994 0c0 .14-.022.32-.066.55s-.065.42-.065.55c-.235.22-.564.33-.99.33h-2.177c-.25-.74-.374-1.83-.374-3.25v-.24h3.343c.22 0 .33.69.33 2.07z"/></g><g fill="#231F20"><path d="M58.286 200.33c0 .136-.023.325-.068.566-.045.24-.068.43-.068.565-.24.23-.58.34-1.02.34h-2.24c-.257-.77-.385-1.88-.385-3.35v-.25h3.44c.227.01.34.72.34 2.13zm7.2 0c0 .136-.024.325-.07.566-.044.24-.067.43-.067.565-.25.23-.59.34-1.02.34h-2.24c-.26-.77-.39-1.88-.39-3.35v-.25h3.44c.23.01.34.72.34 2.13zm7.198 0c0 .136-.023.325-.068.566-.045.24-.068.43-.068.565-.24.23-.58.34-1.02.34h-2.24c-.257-.77-.385-1.88-.385-3.35v-.25h3.44c.228.01.34.72.34 2.13zm19.198-19.696c0 .27-.113.543-.34.815-.935 1.19-1.606 2.31-2.014 3.37-.09.1-.136.29-.136.56-.196.18-.34.28-.43.29-.393.6-.95 1.51-1.675 2.74v.27c0-.2.136.42.408 1.85.332 1.91.845 4.24 1.54 6.97l.294-.16c-.09.1-.14.31-.14.61 0 1.24.18 1.91.54 2.04l-.16.09c.65 2.65.97 4.19.97 4.61 0 .2-.12.29-.34.29-.44 0-1.09-.03-1.96-.08-.87-.05-1.52-.08-1.96-.08-.35 0-.6-.03-.75-.09-.23-.61-.65-2.49-1.27-5.64-.33-1.01-.71-2.57-1.13-4.67-.23 0-.77.83-1.61 2.49-.26.48-.39.94-.39 1.38v-.43c-.23 0-.34.37-.34 1.13v2.08l.25-.3c.07.13.13.23.16.29.06-.03.1-.06.13-.09v-1.9h.18c.07.09.14.15.2.18v1.26c.33.41.53.79.59 1.13l.27-.32c.1 0 .16.05.16.16 0 .13-.06.22-.17.25-.12.03-.17.18-.17.45l.09-.05.09.16c.1 0 .2-.05.29-.16v1.02c.21-.04.32.05.32.27 0 .31-.09.46-.25.46-.09 0-.34-.37-.74-1.11-.4-.74-.63-1.23-.69-1.45h-.18c-.2.1-.38.24-.55.4-.11.56-.16 1.12-.16 1.7 0 .63-.04.95-.14.95h-5l-.16-.41v-3.6c0-.12-.03-.69-.09-1.7l-.09-.27c-.05-.12-.07-.22-.07-.28 0-.27.03-.41.09-.41.03 0 .09.01.17.03.08.02.15.04.19.04 0-.86.04-2.26.13-4.19.09-1.81.13-3.21.11-4.19v-.88l.09-.18c-.02-.71.04-1.72.16-3.04.12-1.41.18-2.42.18-3.06v-.97c-.06-.02-.12-.07-.18-.16l.18-.27c0-.26.04-.49.13-.7.29 0 .74-.03 1.36-.07.62-.05 1.08-.07 1.38-.07.75 0 1.25.01 1.49.04.62.09.93.17.93.25v3.7c.1.06.15.14.13.25h-.18c0 .37-.02.94-.07 1.71-.04.76-.07 1.33-.07 1.71 0 .07.03.17.09.29s.09.21.09.27v.04c-.12.09-.18.19-.18.31 0 .27.13.4.38.4.22 0 .37-.08.43-.25l-.09-.16c.21 0 .38-.18.52-.52.18-.43.33-.68.45-.77l3.17-6.12c.17-.34.35-.58.57-.73h4.32c0 .01.19.07.56.16zm2.65 26.466l-16.437-1.11c-.68-.045-1.525-.233-2.536-.565l.15-.158h.25c.21 0 .51.053.91.158s.7.16.91.16c.19 0 .33-.092.4-.273l.13.272c3.36.27 5.09.407 5.16.407h.73v-.15l-.73-1.38v-.2c.12 0 .29.2.5.59.24.44.4.69.47.75.13-.03.2-.1.2-.22 0-.04-.02-.12-.06-.24s-.06-.2-.06-.26c0-.1.03-.19.11-.25v-1.02c.2 0 .4.42.62 1.26s.42 1.27.62 1.31c1.25.06 3.13.19 5.66.39h-.12c.33 0 .53-.03.61-.11.09-.19.17-.39.25-.58v.7l1.88.32.31.25zm-2.084-34.526c-.377.045-.943.136-1.698.27l-.113-.135h-.09l-.045.02c-.302 0-.777-.03-1.426-.08s-1.147-.08-1.494-.08c-.21 0-.532.01-.962.03s-.75.03-.962.03c.03.16.06.41.09.74h-.158l-.385-.82-.543-.03-2.173-.11c0-.02-.04-.03-.12-.03h-.3c-.35 0-.77.65-1.26 1.97-.49 1.31-.87 1.97-1.12 1.97v-.77c0-.31.22-.86.68-1.67.45-.81.68-1.33.68-1.55h-4.07c-.34 0-.5-.14-.5-.41 1.05 0 6.37.2 15.95.61zM81.513 190.55v-.045c0-.075-.03-.12-.09-.136-.077.03-.114.08-.114.15s.03.13.11.16c.06-.02.09-.06.09-.14zm.18-.974v-.045c0-.07-.044-.12-.135-.13-.06.05-.09.1-.09.16 0 .08.03.14.09.18.09-.01.136-.07.136-.16zm.047.408l-.18-.16v.16h.18zm.25-.588h-.16v.158l.16-.158zm.972 8.806c0 .166-.083.294-.25.385-.135 0-.203-.067-.203-.204 0-.634.15-1.07.45-1.313v1.132zm4.868-19.085c-.362-.24-.543-.498-.543-.77v-.046c.362.07.543.26.543.59v.23zm3.396 4.98c0 .122-.083.266-.25.432-.21.21-.34.35-.384.43v-.19c0-.46.21-.68.634-.68zm.25 11.433c0 .62-.295.93-.884.93v-.59c.27 0 .513-.15.724-.453.045.046.098.084.16.113zm2.08-4.912c0 .423-.104.634-.316.634-.18 0-.27-.196-.27-.59 0-.12.006-.218.02-.293-.09.25-.27.38-.542.38v-.39c-.105.1-.25.15-.43.15h-.204c0-.2.053-.48.16-.84.104-.37.157-.65.157-.84 0-.05-.03-.13-.11-.25-.09.1-.19.16-.29.16l-.11-.21c-.07-.05-.17-.09-.29-.14.11-.11.24-.29.41-.54 0 .1.06.2.16.29l.09-.05c0-.26-.01-.66-.04-1.2s-.04-.95-.04-1.2v-1.07c.38.06.57-.09.57-.46v-.12c.26.35.39.88.39 1.59v3.08c.48.7.72 1.32.72 1.85zm-1.017-2.763c0-.06-.03-.098-.1-.112-.08.03-.12.075-.12.136 0 .07.03.12.11.15.06-.03.09-.08.09-.14v-.05zm0 2.243c0-.06-.03-.1-.1-.113-.08.03-.12.075-.12.136 0 .08.03.13.11.16.06-.03.09-.07.09-.13v-.04zm.76 3.735c0 .482-.27.725-.82.725h-.05c.09-.484.37-.725.86-.725zm1.51-4.324v.49c0-.23-.02-.06-.05.52-.06-.11-.19-.19-.39-.25.12-.02.18-.1.18-.25 0-.06-.01-.15-.04-.26-.02-.12-.04-.2-.04-.24 0-.15.06-.28.18-.39.09.1.13.22.13.36z"/><path d="M93.06 175.336c-.09.167-.257.25-.498.25v-1.336c-.212.09-.317.302-.317.634 0 .136.034.31.102.52s.102.363.102.454c0 .166-.07.316-.21.452l-.14-.316-.32 1.132-.16-.204v-.702c0-.15.07-.482.2-.996v-.067c.06-.21.09-.393.09-.544 0-.136-.05-.256-.14-.36l.65-1.156c-.03 0-.09.016-.18.046s-.15.045-.16.045c-.12 0-.18-.128-.18-.385.51 0 .77.196.77.59 0 .06-.02.153-.07.28-.05.13-.07.225-.07.284 0 .136.08.25.25.34.16.09.24.212.24.362 0 .13-.04.24-.1.32s-.11.13-.11.14v.09c.04.04.11.08.2.11zm-.997-.113c0-.075-.045-.12-.136-.136-.06.03-.09.076-.09.136l.09.113c.06-.015.106-.053.136-.113zm0 .295c0-.105-.045-.166-.136-.182-.06.046-.09.113-.09.204 0 .06.03.105.09.136.09 0 .136-.045.136-.136v-.022zm0 .316c0-.09-.045-.143-.136-.158-.06.045-.09.105-.09.182 0 .06.03.105.09.136.09-.016.136-.053.136-.113v-.04zm.59-2.286c0-.09-.03-.144-.09-.158-.077.03-.114.083-.114.158l.11.09.09-.09zm23.114 9.53c-.136.152-.28.394-.43.726h.18v.294c-.135 0-.293.053-.474.158-.106 5.947-.272 11.984-.498 18.112l-1.947.25c-.15-.122-1.306-.183-3.464-.183-.15-.136-.27-.316-.362-.543-.634-1.555-1.856-4.316-3.667-8.286-.468-1.026-.875-2.053-1.223-3.08l-.068-.09c-.15.016-.823 1.44-2.015 4.28l-3.17 7.492c-.37.15-.76.227-1.18.227-.46 0-1.14-.022-2.06-.067-.92-.046-1.61-.068-2.06-.068v-11.116h-.64c.01-.09.05-.15.11-.18.21 0 .35-.01.43-.023.06-.34.13-1.81.2-4.41 0-.09.01-.25.04-.47.03-.22.04-.39.04-.49 0-.22-.04-.56-.1-.99-.07-.44-.11-.77-.11-.99v-.04l.21-.25c0-.96.02-2.41.06-4.35.05-1.93.07-3.38.07-4.35.57 0 1.3-.18 2.18-.55.88-.37 1.48-.56 1.8-.57 0 .23.07.36.2.39-.06.02-.11.06-.16.14-.45.16-1.13.38-2.03.65l3.26-.16c.13.23.2.93.2 2.11 0 1.48-.06 3.7-.17 6.66-.12 2.96-.17 5.18-.17 6.66 0 .59.04.98.13 1.18.25-.99.59-2.05 1.02-3.17 1.6-4.09 2.4-6.37 2.4-6.84 0-.09-.04-.17-.11-.25s-.1-.14-.1-.2v-.16l1.06-1.06 1.74.16c.54 1.07.85 1.61.93 1.61.03 0 .06-.01.09-.04-.11.12-.16.3-.16.52 0 .23.27 1.21.81 2.94.54 1.74.85 2.63.92 2.68.22.88.63 2.15 1.22 3.83l.13-.09v-3.74h-.5c0-.25-.08-.51-.25-.77l-.09.02c.62-.32.93-.55.93-.7 0-.07-.01-.19-.04-.35-.03-.16-.05-.27-.05-.35 0-.41.04-1.02.11-1.84s.11-1.45.11-1.87v-6.18l.11-.43 5.79-.09v6.18l.09.16-.04.05c-.04.09-.07.21-.07.34 0 .11.03.32.07.64h.43l-.38.23c.05.09.18.2.39.32.16.09.25.25.25.48zm-15.757-11.115c-.15.423-.56.65-1.223.68.06-.016.09-.068.09-.16v-.02c0-.076-.03-.12-.09-.137-.076.03-.113.076-.113.136 0 .076.038.136.113.182h-.362c.15-.182.317-.408.498-.68h1.087zm2.943 32.487c0 .71-.204 1.064-.61 1.064-.334 0-.5-.166-.5-.498 0-.18.095-.38.284-.6.188-.22.29-.41.306-.578h-.43c.18-.21.453-.535.815-.973.09.47.135.997.135 1.585zm.656-4.346c-.34 0-.6-.067-.8-.203-.15-.25-.23-.76-.23-1.51 0-.44.12-.71.36-.81.24.29.39.52.45.68-.14 0-.25.05-.34.14v.12c.09.09.13.52.13 1.27.27.06.4.17.4.34zm-.55-.657c0-.075-.04-.12-.12-.136-.06.03-.09.09-.09.16 0 .06.03.11.09.14.06-.03.1-.07.11-.13v-.02zm9.64 6.203c-.86.74-1.44 1.11-1.75 1.11 0-.152-.03-.37-.08-.657-.05-.287-.08-.498-.08-.634 0-.17.03-.27.09-.3-.1-.06-.14-.21-.14-.45 0-.3.04-.48.13-.52l1.69.47-.3.09c.27 0 .4.29.4.88zm3.19-1.087c0 1.51-.12 2.936-.37 4.28V207.1c0-1.54.12-2.883.36-4.03v1.493zm.43-5.976c0 .498-.06.8-.18.905-.08-.165-.12-.407-.12-.724 0-.348.03-.657.09-.93.13.062.2.31.2.75zm.02 1.63c-.03.076-.09.166-.18.27-.1 0-.14-.08-.14-.248v-.07c.01-.06.03-.11.06-.14l.07.06c.1 0 .16.04.18.11zm23.23 2.558h-6.07c-.27 0-.56-.506-.86-1.517-.17-.59-.42-1.185-.75-1.79-.96-.467-1.97-.7-3.04-.7h-1.52c-.67.015-1.17.022-1.52.022-.65 0-1.12.15-1.41.452-.18.196-.4.642-.64 1.336-.43 1.192-.78 1.79-1.07 1.79h-5.91c-.11-.047-.21-.152-.32-.318 0-.98.28-2.203.84-3.668l1.4-3.576.81-2.378c.16-.573.44-1.41.83-2.513.07-.15.17-.393.29-.725l2.95-9.17c.06-.195.17-.36.32-.497h8.58c.29.105.61.22.97.34.12.453.34 1.117.65 1.992 0 1.117.12 1.75.36 1.9.65 2.824 1.08 4.68 1.31 5.57.54 2.1 1.11 3.925 1.69 5.48 0 .346.09.603.25.77l1.27 5.817c.35.003.53.462.53 1.383zm-20.83-29.43c0 .09-.05.135-.14.135h-.03c-.09 0-.14-.045-.14-.136.01-.06.06-.098.13-.113h.04c.06.02.09.06.11.12zm5.63.294c-.06.12-.14.18-.23.18H124c-.12 0-.218-.04-.293-.12.03-.08.137-.12.318-.12h.068c.106 0 .204.01.294.04zm.97 0c-.05.1-.1.17-.16.2-.06-.02-.14-.06-.23-.14.01-.08.07-.12.18-.12h.04c.08 0 .13.01.16.04zm1.26 0c-.05.12-.11.18-.2.18h-.18c-.12 0-.22-.04-.3-.12.03-.08.13-.12.31-.12h.07c.1 0 .2.01.29.04zm4.01 20.62c0-2.73-.72-5.61-2.15-8.63l-.3.36c-.44 1.33-.89 2.65-1.34 3.96-.61 1.85-.91 3.13-.91 3.82 1.04.31 2.6.47 4.68.47zm2.25-20.26h-4.01v-.3l4 .29zm10.05.65l-.36.27h-2.29c-2.63 0-4.99-.21-7.09-.61-.02-.24.07-.36.25-.36.06 0 .14.01.26.02.11.01.19.02.23.02 4.1 0 5.62-.01 4.55-.03 1.75.04 3.23.27 4.43.68zm13.26 28.27c0 .02-.1.13-.3.34-.36 0-.92.06-1.66.18-.74.12-1.31.18-1.68.18-.47 0-.83-.3-1.09-.91l-.55-1.02c-.4-.77-.8-1.65-1.2-2.63-.08-.17-.18-.43-.3-.79-.24-.09-.54-.94-.9-2.56-.33-1.49-.89-2.24-1.67-2.24-.08 0-.19-.01-.34-.04-.15-.03-.26-.04-.34-.04-.36 0-.56.2-.61.59.02-.13.02.21.02 1.02 0 3.76.29 5.77.88 6.05l-.19.38v2.78c-.7.24-1.75.36-3.17.36-.74 0-1.15-.14-1.23-.41-.03-.35-.08-.83-.16-1.45l-.38-3.44c-.32-2.82-.75-6.5-1.29-11.03-.02-.06-.3-1.88-.84-5.46-.33-2.1-.5-3.95-.5-5.55 0-.15.12-.26.36-.32 3.17-.68 5.87-1.02 8.1-1.02 2.09 0 3.73 1.12 4.91 3.37.96 1.82 1.45 3.89 1.45 6.2 0 2.19-.5 4.21-1.5 6.07.88 2.62 2.05 5.78 3.51 9.48.2.48.41 1.1.64 1.85zm-7.36-16.12v-3.51c-.26-.39-.69-.94-1.29-1.65h-3.26c-.17 0-.25.27-.25.81 0 .84.08 1.92.25 3.23.24 1.81.54 2.71.9 2.71 2.43 0 3.64-.53 3.64-1.61zm27.22-14.23c0 2.05-.07 5.14-.21 9.26s-.21 7.2-.21 9.26c0 1.13 0 2.27.02 3.41l-.55.09v-.45c-.29.72-.58 1.08-.89 1.08-.11 0-.15-.06-.14-.16-.03.06-.04.12-.04.2 0 .6.47 1.31 1.4 2.13 0 .56-.1.83-.3.83-.11 0-.17-.01-.18-.02.01-.02.03-.02.04 0l.02-.07c-.03-.06-.44-.46-1.24-1.2-.21.3-.44.77-.68 1.42-.62 1.66-1.64 3.05-3.06 4.19-.24.83-.36 2.36-.36 4.59-.32 0-.48-.62-.48-1.86v-.39l.18-.25c-.02-.08-.08-.15-.18-.23v-1.18c-.29 0-.68.08-1.18.25-.54.19-.93.3-1.16.31-1.98.24-3.12.36-3.42.36-.21 0-.32.08-.33.24l-.03.46c-.02.07-.08.11-.2.11 0-.55-.09-.82-.25-.82h-4.53c-.32 0-.48-.15-.48-.45 0-4.58-.06-6.99-.16-7.25-.09.28-.19.58-.3.88-.14.34-.34.52-.61.52v-1.2l-.37-.36c.17-.32.29-.58.36-.77l-.09-.27c-.05-.13-.07-.21-.07-.24 0-.34.09-.69.29-1.08.19-.39.3-.69.31-.92 0 .22.11.34.32.34.07 0 .12-.03.13-.09-.03-.52-.18-1.08-.46-1.7-.12-1.15-.19-2.39-.19-3.71.26.01.39-.08.39-.27 0-.08-.02-.2-.05-.37s-.05-.3-.05-.39l-.05.02c-.02.01-.04.02-.07.02-.11.03-.18.04-.21.04-.24 0-.61-.6-1.09-1.8-.49-1.2-.82-1.8-1-1.8-.12 0-.26.09-.42.27-.16.18-.34.27-.53.27v5.69c.04.04.08.11.11.2l.05.05c-.06.06-.16.13-.3.2v4.07c.11.11.3.26.59.45-.12-.06-.23-.09-.34-.09-.32 0-.48.28-.48.86 0 .1.06.2.18.28s.18.17.18.26v.14c-.11.12-.28.27-.52.45-.2 3.08-.3 5.14-.3 6.18v.68c.13 0 .2.06.2.18 0 .19-.06.29-.2.29-.12 1.35-.17 2.58-.16 3.66v.93c-.09.09-.13.31-.13.66 0 .59.25.89.74.89.35 0 .52-.21.52-.64 0-.11-.03-.26-.1-.45-.07-.2-.1-.35-.1-.45.43 0 .66-.15.68-.43-.03-.08-.06-.16-.07-.23.04.09.06.16.06.2v.03c.09.48.19.96.3 1.45.18.49.54.77 1.06.81-.06.1-.25.16-.56.16-1.93 0-2.88-.21-2.85-.62l.9-19.4V184c0-.166.03-.377.09-.634.08-.316.13-.52.14-.61.14-1.057.21-2.106.21-3.147h.16v.81c.76.1 1.14.16 1.16.16v.25h-1.14v1.83l.25.11c.19-.18.35-.33.45-.46.06.1.21.15.45.13v.56c.38.27.7.49.97.65.03.06.08.11.16.15h.09c.16-.14.25-.32.25-.55 0-.24-.02-.42-.05-.52.18.07.27.28.27.61 0 .14-.05.32-.14.54-.09.22-.14.4-.14.52 0 .24.16.46.48.65-.02-.14.03-.2.14-.2.19 0 .34.07.45.2v-2.33c-.38-.29-.64-.55-.79-.77h.79v-1.18h-.4l.32-.41-.16-.21.34-.27v-3.14c.52-.03.82-.24.88-.61l.61.61h.36c.33 0 .83-.03 1.49-.08.66-.06 1.15-.08 1.47-.08.09-.11.17-.18.25-.21l.06.02.13.18h1.29c.27-.26.62-.88 1.06-1.86l.29.5c.23-.55.35-.88.36-.97v-.15c-.33.1-.73.39-1.19.86-.46.47-.85.76-1.17.88 0-.15.22-.83.68-2.04v1.06h.29c0-.65.2-.97.61-.97.11 0 .24.01.41.04 0-.44-.1-.71-.3-.82.4-.2.61-.4.66-.61l.61.47-.61.59c.52-.09.77.32.77 1.24-.06.09-.16.23-.29.41-.12-.01-.23-.08-.34-.2-.06.23-.22.44-.5.63.06.09.14.3.25.63h-.25l-.09-.16-.38-.2c-.12 0-.18.06-.18.18 0 .04.03.19.1.43.08 0 .19.01.34.04.15.03.27.05.34.05.14 0 .27-.07.39-.2l-.02.13c.11.12.86.42 2.27.91 1.19.41 2.48 1.37 3.85 2.9.1.14.29.3.54.5l-.11.11c.73 1.15 1.31 2.72 1.75 4.71.04.51.13 1.28.25 2.31.06.42.19.69.38.79l-.16.16v1.52l.16.22c0 .08-.03.18-.08.32s-.08.24-.08.32v.43c.4-.15.61-.36.61-.63v-5.98l-.3-.09.29-.34c.09-.47.14-.98.14-1.52v-2.67c0-.34-.19-.5-.59-.5l.59-.64v-8.11c-.42 0-1.05-.01-1.9-.04-.84-.02-1.48-.03-1.9-.03-1.12 0-2.19.18-3.21.55-.16.29-.28.43-.36.43-.06 0-.16-.1-.29-.29s-.38-.3-.73-.3c-.22 0-.55.03-.97.1-.42.07-.74.1-.95.1-.18 0-.37-.02-.57-.05l-.31.75c-.21-.19-.42-.3-.61-.32 0 .44.23.66.7.68.15.01.23.08.23.2v.04c-.59.12-.87.37-.84.75v.08c-.05-.18-.21-.42-.49-.72s-.42-.56-.42-.78c0-.2.07-.42.21-.68h-.95c-.67 0-1.66.02-2.98.07-1.32.04-2.31.07-2.95.07h-1.27l.29-.13c3.08-.12 7.69-.31 13.83-.59 2.79-.12 4.91-.18 6.36-.18h.47l.09.14c0 .15.02.38.06.69.04.31.06.54.06.69zm-22.14 11.11c0-.11-.04-.17-.12-.19l.12-.12c0-.06-.03-.11-.11-.14-.06.03-.09.07-.09.13l.09.11c-.06.03-.09.09-.09.18 0 .07.03.12.09.15.08-.03.12-.08.12-.16zm.45 21.23c-.09.21-.14.43-.14.65 0 .12.01.22.03.31-.22-.17-.34-.38-.34-.64 0-.23.12-.34.34-.34h.12zm-.12 3.98v-.39l-.14.16.13.22zm.25-25.52c0-.09-.05-.14-.14-.14-.08.03-.11.07-.11.13l.11.11c.06 0 .1-.04.13-.12zm1.36 20.89c0 .38-.19.56-.58.56 0-.38.2-.57.59-.57zm.39-20.13v-.05c0-.06-.03-.1-.09-.11-.07.03-.11.07-.11.13 0 .07.04.13.12.18.06-.02.09-.07.09-.16zm6.79 22.84c0 .13-.07.33-.2.58v2.58c-.18 0-.31.04-.38.12s-.17.12-.27.12h-.09l.29-.61c0-.08-.03-.16-.08-.25-.06-.09-.08-.15-.08-.16 0-.09.02-.22.08-.39s.08-.3.08-.39c0-.34-.13-.61-.39-.82l-2.95-1.93c-.54-.44-1.36-1.07-2.44-1.9h-.16c-.09.13-.16.2-.21.2h-.09c.03-.21.28-.55.77-1.02.3.44.77.96 1.42 1.56.12.06.18.2.18.43l.43-.07c2.07 1.57 3.14 2.35 3.21 2.35.36 0 .54-.31.54-.91 0-.08-.02-.15-.05-.23.24.1.36.33.36.68zm-6.31-12.09v-.03c0-.08-.04-.12-.11-.14-.08.03-.11.07-.11.13 0 .09.03.15.11.18.07-.02.11-.07.11-.16zm.45-8.13c0-.08-.03-.12-.11-.14-.06.03-.09.08-.09.16.01.06.04.1.07.13l.09-.03c.03-.05.04-.08.04-.09v-.05zm.05-1.59l-.09-.05-.07.04.07.11c.03-.02.06-.05.09-.11zm.29.54v-.16h-.3c.11.1.2.16.29.16zm0 8.4v-.48c-.14.07-.21.23-.21.47h.2zm.11-6.37c0-.12-.04-.19-.12-.21-.06.05-.09.12-.09.21 0 .06.03.11.09.14.07-.03.11-.08.11-.14zm0 6.72c0-.09-.04-.15-.12-.16-.06.03-.09.08-.09.15l.09.09.11-.09zm0 .4v-.03c0-.08-.04-.12-.12-.14-.06.03-.09.07-.09.13 0 .09.03.15.09.18.07-.02.11-.07.11-.16zm0 .65c0-.08-.04-.13-.12-.16-.06.05-.09.1-.09.16l.09.09.11-.09zm10.55-2.7V188c-.17-.44-.31-1.11-.43-2.017-.11-.86-.23-1.44-.36-1.74-.03-.06-.14-.195-.32-.406-.14-.166-.2-.3-.2-.408h-.55c.09-.03.13-.12.13-.25 0-.5-.15-.73-.46-.7h-.16c-.19.21-.51.49-.98.83l.14.11c-.49.21-.91.37-1.27.49l-.07.07c-.02.01-.02.04-.02.07 0 .87.03 1.35.09 1.45.16.07.39.15.68.24-.35 0-.53.11-.53.34h.73l-.05.16.14.18h-1.18c0 .32.07.84.2 1.56-.09.53-.14 1.33-.14 2.4 0 .95.02 2.39.06 4.32.04 1.94.07 3.38.07 4.33h.2c.16 0 .4-.01.72-.04s.56-.05.72-.05l-.2-.2c1.13 0 1.9-.8 2.31-2.38.45-1.75.68-2.94.68-3.58zm-4.28-7.79c0 .09-.06.13-.16.11-.06-.03-.09-.07-.09-.14 0-.08.03-.13.09-.16.1 0 .16.04.16.13v.05zm1.49-3.08v-.07c-.43-.09-.83-.14-1.2-.14h-.46v1.15c.09 0 .29-.07.59-.21 0 .04.03.08.09.11.06-.03.09-.07.09-.14v-.09c.59-.3.88-.51.88-.63zm-1.45 1.24h-.21v.14l.2-.14zm.56-.61l-.18.11v-.05c0-.06.03-.1.09-.14.04.02.07.04.09.07zm0 4.19c0 .06-.03.1-.09.11-.06-.03-.09-.08-.09-.14 0-.07.03-.12.09-.15.06.03.09.08.09.14v.04zm0 2.33c0 .08-.03.12-.09.14-.06-.03-.09-.08-.09-.16 0-.06.03-.1.09-.14.06.03.09.07.09.11v.04zm.32-.75c-.03.06-.07.1-.12.11l-.09-.05.09-.11.11.04zm0 .75c0 .07-.04.12-.12.13-.06-.03-.09-.08-.09-.16 0-.06.03-.11.09-.14.06.03.09.07.09.11l.02.04zm0 2.33c0 .06-.04.11-.12.14-.06-.03-.09-.08-.09-.14 0-.08.03-.13.09-.16.08.03.11.09.11.16zm.2-5.5l-.07.14c-.05-.03-.08-.06-.09-.09l.09-.12c.05.03.07.05.07.07zm1.42 5.39c0 .75-.12 1.16-.36 1.22-.06-.3-.27-.66-.61-1.07.11-.06.16-.18.16-.37v-.18c0 .12-.05.18-.16.18-.17 0-.31-.15-.43-.45s-.18-.55-.18-.75c0-.65.04-.98.13-.98h.06c0 .2.13.45.38.76.26.31.39.64.39.99l.61.59v.04zm-1.34-17.1c0-.08-.04-.12-.11-.14-.06.03-.09.09-.09.16 0 .06.03.11.09.14.06-.03.1-.08.11-.14v-.02zm.52 12.36l-.16.16h-.09c-.26 0-.39-.1-.39-.3 0-.23.09-.34.27-.34h.11c.03.08.11.19.25.34v.14zm-.3-3.92v-.02c0-.09-.05-.14-.14-.14h-.05c-.06 0-.09.05-.09.14v.02c0 .09.03.14.09.14h.04c.09 0 .13-.04.13-.13zm-.07 11.98l-.09.05-.12-.04c0-.05.03-.08.11-.11l.09.11zm.23-10.43c0 .08-.04.12-.12.14-.15-.03-.23-.08-.23-.14 0-.05.05-.08.15-.09h.05c.09.02.14.05.14.09zm-.07 14.17l-.05.07-.07.02-.05-.04c0-.04.02-.08.07-.11.03 0 .06.02.09.07zm.4-5.57h-.36v-.16h.36v.15zm1.36 13.65c0 .18-.21.37-.64.57-.42.2-.63.39-.63.55.1.24.16.38.16.41v.16c-.21.2-.36.3-.46.3 0-.23-.05-.48-.16-.75.06-.09.11-.19.16-.31 0 .08-.05-.11-.16-.54 1.01 0 1.52-.26 1.52-.77.03.01.03.04.02.07.12.13.18.24.18.31zm-1.43-17.07c0 .1-.05.16-.14.16-.08-.03-.11-.09-.11-.19 0-.06.03-.11.11-.14.09 0 .13.04.13.13v.03zm0 4.25v.04c0 .09-.05.13-.14.13-.08-.03-.11-.08-.11-.16 0-.09.03-.16.11-.21.09 0 .13.06.13.18zm.07 3.69l-.21.36v-.2c.04-.03.11-.09.2-.16zm.09-13.4c-.02.09-.05.13-.09.13-.11 0-.16-.05-.16-.14v-.02c0-.09.05-.13.16-.13.06.03.09.08.09.14v.02zm.15 3.1c-.21 0-.32-.11-.32-.34.21 0 .31.1.31.29v.04zm.16 3.49c0 .1-.05.16-.16.16-.08-.05-.11-.11-.11-.19 0-.06.04-.11.11-.16.1 0 .15.04.15.13v.05zm-.07 5.7l-.09.04-.07-.04.02-.05v-.04c.01 0 .03.01.05.04l.09.04zm.22-.73l-.09.09c-.09 0-.15-.03-.18-.09 0-.1.06-.16.18-.16.06.05.09.1.09.16zm.16-1.85v.04c0 .08-.04.12-.11.14-.06-.03-.09-.08-.09-.16 0-.09.03-.16.09-.21.07.02.11.08.11.18zm.18-6.61h-.29c.03-.09.12-.14.27-.14l.02-.02v.16zm.64.34h-.18c-.11-.11-.21-.17-.3-.18h.18c.17 0 .27.06.3.18zm-.23 3.44c-.03.06-.06.1-.09.11l-.11-.12c0-.06.04-.11.11-.14.06.03.09.07.09.13zm6.32-14.9h-.55c0-.23.18-.43.54-.61v.61zm.47-1.2c-.09-.15-.23-.23-.41-.23 0-.41.13-.61.4-.61v.84zm.61 2.49l-.98-.93.23-.16c.01.08.06.13.14.16.41 0 .61.22.61.66v.27zm-.07 16.09c.01-.08-.02-.12-.09-.14-.06.03-.09.07-.09.13 0 .07.03.13.09.16.06-.03.09-.07.09-.13v-.02zm.16 1.22l-.25-.93v.93h.25zm.56-1.27v-.05c0-.15-.08-.35-.23-.58-.16-.24-.25-.42-.26-.56v1.08l.5.09zm.21-1.65c0-.08-.03-.12-.09-.14-.08.03-.12.08-.12.14.01.07.05.12.11.13.06-.03.09-.08.09-.14zm5.54 8.65c0 .13-.02.32-.07.56-.05.24-.07.43-.07.56-.24.23-.58.34-1.02.34h-2.24c-.26-.77-.39-1.88-.39-3.35v-.25h3.44c.23 0 .34.71.34 2.13z"/></g><path fill="#919496" d="M57.882 98.224S44.392 71.64 68.226 87.397L57.882 98.224zm127.538 0s13.49-26.583-10.345-10.827l10.344 10.827z"/><ellipse fill="#FFF" cx="121.424" cy="122.636" rx="73.555" ry="55.088"/><ellipse fill="#D0D2D3" cx="121.424" cy="122.636" rx="65.463" ry="49.031"/><path fill="#D0D2D3" d="M54.555 100.192s4.397-.634 3.942-4.763c0 0-11.512-17.77 9.324-8.11 0 0 3.01.9 4.42-2.98 0 0-14.69-10.13-22.12-3.7 0 0-8.48 5.65 4.44 19.54z"/><path fill="#6C6F71" d="M120.897 131.744v20.138h1.452l-.73-25.104"/><path fill="#D0D2D3" d="M188.667 100.192s-4.398-.634-3.94-4.763c0 0 11.512-17.77-9.324-8.11 0 0-3 .9-4.413-2.98 0 0 14.688-10.13 22.12-3.7 0 0 8.486 5.65-4.443 19.54z"/><path fill="#1D8FCD" d="M121.48 133.344l5.01-6.458s-2.508-4.698-5.073-.107c-2.565-4.6-5.072.1-5.072.1l5.01 6.46v.16l.062-.08.063.08v-.16z"/><path fill="#FFF" d="M120.296 131.16s-.043-3.297-1.7-1.88l1.7 1.88zm2.202 0s.045-3.297 1.7-1.88l-1.7 1.88z"/><path fill="#D0D2D3" d="M59.807 107.96s10.145-70.47 53.054-29.444c42.91 41.027-53.05 29.445-53.05 29.445z"/><path fill="#FFF" d="M119.688 106.982c0 17.215-12.5 31.17-27.92 31.17-15.424 0-27.925-13.955-27.925-31.17 0-17.216 12.5-31.17 27.925-31.17 15.42 0 27.92 13.955 27.92 31.17z"/><path fill="#D0D2D3" d="M127.26 78.516s40.35-40.676 54.308 25.774L127.26 78.516z"/><ellipse fill="#FFF" cx="150.273" cy="106.983" rx="27.924" ry="31.17"/><circle fill="#0071BC" cx="91.408" cy="107.496" r="25.51"/><path fill="#0F4481" d="M82.57 115.92c-4.737-5.478-4.14-13.747 1.33-18.48 5.47-4.733 13.742-4.142 18.48 1.333 4.735 5.47 4.137 13.745-1.334 18.48-5.466 4.734-13.742 4.136-18.475-1.334z"/><path fill="#FFF" d="M87.2 111.9c-2.516-2.91-2.198-7.3.71-9.817 2.903-2.514 7.303-2.205 9.822.704 2.515 2.91 2.195 7.31-.714 9.826-2.908 2.514-7.3 2.194-9.817-.712z"/><circle fill="#FFF" cx="79.603" cy="105.542" r="3.39"/><circle fill="#0071BC" cx="150.271" cy="107.496" r="25.51"/><path fill="#0F4481" d="M141.436 115.92c-4.738-5.478-4.14-13.747 1.33-18.48 5.47-4.733 13.74-4.142 18.48 1.333 4.733 5.47 4.136 13.745-1.336 18.48-5.466 4.734-13.742 4.136-18.474-1.334z"/><path fill="#FFF" d="M146.064 111.9c-2.517-2.91-2.2-7.3.71-9.817 2.903-2.514 7.303-2.205 9.82.704 2.517 2.91 2.196 7.31-.712 9.826-2.907 2.514-7.3 2.194-9.818-.712z"/><circle fill="#FFF" cx="138.467" cy="105.542" r="3.39"/><path fill="#A6A8AB" d="M108.433 74.576s10.614 8.456 12.326 19.134c0 0-.51-10.1-10.94-19.333l-1.39.2zm23.717-.2s-6.092 5.244-8.577 13.2c0 0 2.557-9.752 7.446-13.443l1.13.244zm-71.817 30.61s-1.42 8.926 2.138 19.11c0 0-3.58-7.884-2.99-17.355l.86-1.75zm120.97-1.926s-1.062 18.287-4.537 26.325c0 0 6.1-15.202 5.104-25.604l-.567-.72z"/><path fill="#B2E2F9" d="M72.226 46.523S55.93 89.82 79.354 88.288c0 0 15.957 1.543-7.128-41.765z"/><path fill="#D6EFFB" d="M76.38 55.707s-9.793 35.437 6.985 27.654c0 0 5.68-1.82-6.986-27.65z"/><ellipse fill="#FFF" cx="79.679" cy="76.676" rx="4.348" ry="5.697"/><path fill="#FBC5A7" d="M66.825 54.29V31.032L43.612 54.29"/><path fill="#6C6F71" d="M77.037 151.873h89.26v1.354h-89.26z"/><path fill="#BBBDBF" d="M103.622 156.638h35.957l-19.9 4.925M75.71 147.58l-.29.358-3.192 3.944 4.803 4.756-2.4-4.765m93.14-4.293l.29.358 3.2 3.944-4.8 4.756 2.41-4.765"/></svg>