<svg xmlns="http://www.w3.org/2000/svg" width="250" height="250" viewBox="0 0 250 250"><circle fill="#0071BC" cx="76.514" cy="286.744" r="27.086"/><path fill="#0F4481" d="M65.26 297.903c-6.435-7.44-5.622-18.67 1.808-25.1 7.43-6.428 18.663-5.626 25.1 1.812 6.43 7.428 5.62 18.668-1.812 25.097-7.425 6.43-18.666 5.62-25.095-1.81z"/><path fill="#FFF" d="M75.625 292.444c-3.42-3.953-2.987-9.92.96-13.334 3.946-3.416 9.922-2.996 13.343.954 3.416 3.952 2.98 9.926-.97 13.347-3.95 3.42-9.916 2.99-13.333-.96z"/><circle fill="#FFF" cx="61.23" cy="283.807" r="4.604"/><path opacity=".15" d="M226.908 156.615l-16.837-.828-1.52-.074-2.91-3.794 14.38-4.26-11.1-10.08 13.38-6.76-12.71-7.93 11.96-9.04-13.93-5.53 10.16-11.03-14.7-2.96 8.02-12.67-14.98-.29 5.63-13.9-14.79 2.39L190 55.2l-14.13 5 .39-14.985-13.014 7.445-2.29-14.81-11.477 9.645-4.9-14.166L135 44.88l-7.355-13.06-7.35 13.064-9.564-11.54-4.9 14.165-11.48-9.65-2.3 14.82-13.01-7.45.39 14.98-14.13-5 3.06 14.67-14.79-2.39 5.63 13.9-14.98.28 8.02 12.66-14.71 2.96 10.15 11.03-13.93 5.53 11.95 9.05-12.72 7.93 13.38 6.76-10.6 9.62-6.19-.31-1.85 37.59 21.56 1.06c.25.01.5.02.74.02 2.26 0 4.34-.53 6.24-1.53l-.09 1.85 4.8.23-1.8 5.92 14.52-3.72-1.73 14.89 13.63-6.25.96 14.96 12.29-8.58 3.61 14.55L113 207.25l6.15 13.67 8.49-12.35 8.49 12.35 6.15-13.67 10.56 10.64 3.61-14.55 12.29 8.58.95-14.96 13.62 6.247-1.3-11.15 30.55 1.51v-.09c1.05.52 2.21.823 3.45.89.154 0 .31.01.46.01 1.87 0 3.64-.59 5.112-1.7 1.8-1.36 2.85-3.28 2.956-5.41.06-1.31-.23-2.57-.85-3.7l3.205-26.98z"/><path fill="#EC1C24" d="M223.963 153.67l-16.838-.83-1.53-.072-2.908-3.794 14.373-4.26-11.103-10.074 13.382-6.76-12.72-7.93 11.95-9.04-13.94-5.53 10.15-11.03-14.7-2.956 8.02-12.664-14.99-.284 5.63-13.893-14.8 2.397L187 52.275l-14.132 5 .39-14.985-13.01 7.444-2.294-14.814-11.47 9.647-4.9-14.166-9.566 11.55-7.352-13.06-7.35 13.07-9.566-11.54-4.904 14.17-11.47-9.65-2.29 14.82-13-7.45.39 14.99-14.13-5 3.06 14.68-14.8-2.4 5.626 13.89-14.99.28 8.02 12.66-14.7 2.96 10.15 11.03-13.93 5.53 11.96 9.04-12.72 7.93 13.38 6.76-10.607 9.63-6.19-.3-1.85 37.59 21.56 1.06c.25.02.493.02.74.02 2.253 0 4.34-.52 6.235-1.53l-.09 1.85 4.795.24-1.8 5.92 14.52-3.71-1.73 14.89 13.62-6.25.952 14.96 12.29-8.58 3.61 14.55 10.56-10.63 6.15 13.67 8.493-12.35 8.5 12.35 6.152-13.67L149.874 215l3.61-14.55L165.78 209l.95-14.958 13.62 6.24-1.297-11.14 30.547 1.51.01-.09c1.05.51 2.21.82 3.446.88.16 0 .31.01.464.01 1.87 0 3.64-.59 5.115-1.7 1.8-1.36 2.85-3.28 2.953-5.41.065-1.31-.23-2.57-.85-3.7l3.206-26.976z"/><path fill="#B61318" d="M124.93 63.43l6.245-6.684 4.95 7.693 7.336-5.47 3.5 8.45 8.2-4.07 1.93 8.94 8.79-2.54.31 9.14 9.1-.93-1.33 9.05 9.12.71-2.93 8.67 8.85 2.33-4.43 8 8.29 3.87-5.78 7.08 7.46 5.29-6.95 5.94 6.4 6.54-7.91 4.6 5.13 7.57-8.6 3.11 3.69 8.37-9.02 1.53 2.14 8.89-9.15-.11.52 9.14-8.98-1.74-1.12 9.08-8.52-3.32-2.73 8.73-7.8-4.78-4.24 8.1-6.82-6.1-5.62 7.22-5.62-7.22-6.82 6.1-4.24-8.11-7.79 4.78-2.72-8.73-8.53 3.31-1.12-9.08-8.98 1.74.52-9.14-9.15.11 2.15-8.9-9.02-1.53 3.69-8.37-8.6-3.12 5.13-7.58-7.91-4.6 6.4-6.54-6.96-5.94 7.46-5.29-5.78-7.09 8.29-3.88-4.43-8.01 8.85-2.33-2.93-8.66 9.11-.7-1.33-9.05 9.1.93.31-9.14 8.79 2.54 1.93-8.94 8.2 4.06 3.5-8.46 7.34 5.46 4.95-7.7"/><path fill="#F1F1F2" d="M186.383 117.61c-3.77-.605-13.267-4.654-13.267-4.654l-1.355-2.516c16.81-2.92 16.46-8.076 16.14-9.25-.04-.156-.08-.244-.08-.244-.61-4.693-17.13 7.548-17.13 7.548l-2.73.378-.25.035c1.82-5.76 1.25-8.995-.22-10.784 1.32-3.222 2.03-6.64 2.03-10.184 0-5.07-1.45-9.88-4.05-14.22l.06.01c8.18-8.8 2.81-12.37 2.81-12.37-3.7-3.21-10.24.08-12.86 1.62-8.39-6.14-19.86-9.92-32.52-9.92-12.6 0-24.03 3.75-32.41 9.84-2.7-1.58-9.09-4.7-12.73-1.55 0 0-5.31 3.54 2.7 12.24-2.64 4.37-4.12 9.22-4.12 14.33 0 3.37.66 6.63 1.85 9.71l-.02.02c-1.78 1.67-2.62 4.95-.64 11.23l-.25-.04-2.73-.38s-16.52-12.24-17.14-7.55c0 0-.04.09-.08.24-.31 1.17-.67 6.33 16.14 9.25l-1.35 2.51s-9.49 4.05-13.26 4.65c0 0-.16.29-.32.69-.4.98-.79 2.67 1.27 2.62 0 0 4.44 1.14 12.63-5.43 0 0 1.74 3.42 4.99 3.3 0 0 2.11 43.8 23.09 19.96 1.61-1.83 3.33-4.06 5.16-6.73-1.69 10.49-1.23 23.73 10.04 28.47 8.44 4.8 15.3-.36 15.3-.36v-.01c10.09-4.83 10.85-16.88 9.43-26.91 1.52 2.14 2.96 3.98 4.31 5.52 20.98 23.84 23.09-19.96 23.09-19.96 3.25.12 4.99-3.31 4.99-3.31 8.2 6.57 12.63 5.43 12.63 5.43 2.06.05 1.68-1.64 1.27-2.62-.16-.41-.32-.7-.32-.7zm-103.032-1.4s.05-3.048-2.33-5.706c0 0-.64-1.746-.6-3.872.02-1.062.21-2.217.73-3.3 5.22 7.93 14.34 14.155 25.48 17.278-4.27 8.467-23.22 43.355-23.26-4.4zm78.54 0c-.04 47.483-18.78 13.264-23.19 4.55 11.13-3 20.28-9.083 25.64-16.87.34.914.48 1.86.49 2.742.04 2.126-.6 3.872-.6 3.872-2.37 2.658-2.33 5.705-2.33 5.705z"/><path fill="#919496" d="M89.563 64.035s-15.442-7.83-7.127 10.255l7.127-10.255zm66.96 0s15.44-7.83 7.125 10.255l-7.124-10.255z"/><ellipse fill="#FFF" cx="122.924" cy="87.94" rx="46.565" ry="34.875"/><ellipse fill="#D0D2D3" cx="122.924" cy="87.939" rx="41.443" ry="31.039"/><ellipse fill="#ACAFB1" cx="102.696" cy="84.273" rx="19.57" ry="19.44"/><path fill="#ACAFB1" d="M123.708 84.273c0 10.737 8.76 19.44 19.572 19.44 10.805 0 19.566-8.703 19.566-19.44 0-10.737-8.762-19.44-19.566-19.44-10.81 0-19.572 8.703-19.572 19.44z"/><path fill="#D0D2D3" d="M80.59 73.73s2.786-.402 2.497-3.016c0 0-7.288-11.248 5.902-5.13 0 0 1.9.572 2.79-1.884 0 0-9.3-6.41-14.01-2.338 0 0-5.37 3.577 2.81 12.368zm84.905 0s-2.785-.402-2.495-3.016c0 0 7.287-11.248-5.902-5.13 0 0-1.9.572-2.795-1.884 0 0 9.3-6.41 14.005-2.338 0 0 5.372 3.577-2.813 12.368z"/><path fill="#670004" d="M116.658 104.82s-.433 1.64 6.034-.453c0 0 4.94 1.96 6.242 1.064 0 0-4.414 16.14-12.276-.61z"/><path fill="#6C6F71" d="M116.652 107.222s5.238 13.15 12.788 0c0 0-1.42 5.35-6.394 6.75 0 0-4.63.99-6.394-6.75z"/><path fill="#EF4B4D" d="M118.358 105.525s3.033-.36 4.846-1.41v15.833s-4.592.934-4.846-14.423z"/><path fill="#EF4B4D" d="M127.482 105.525s-3.033-.36-4.847-1.41v15.833s4.593.934 4.847-14.423z"/><path fill="#BE1E2D" d="M122.456 104.424s.39 8.587.462 12.69c0 0 .485-12.975.79-12.836l-.627-.163-.62.31z"/><path fill="#6C6F71" d="M122.692 102.29h.455v1.825h-.455z"/><path fill="#1D8FCD" d="M122.96 102.736l3.17-4.087s-1.587-2.98-3.21-.07c-1.623-2.91-3.21.07-3.21.07l3.17 4.08v.1l.04-.05.04.05v-.1z"/><path fill="#FFF" d="M122.21 101.355s-.028-2.088-1.077-1.19l1.077 1.19zm1.394 0s.028-2.088 1.076-1.19l-1.076 1.19z"/><path fill="#6C6F71" d="M114.88 101.355l1.585 1.484s-2.362 5.48 6.68 1.52v-.79s-8.244 4.52-6-1.48l-2.264-.75z"/><path fill="#6C6F71" d="M130.957 101.355l-1.584 1.484s2.363 5.48-6.68 1.52v-.79s8.245 4.52 6-1.48l2.264-.75z"/><path fill="#FFF" d="M107.466 118.882s-24.07 51.146-24.115-2.672c0 0 .05-3.047-2.33-5.705 0 0-.64-1.746-.6-3.872v-.003c-.66-6.9 6.28-8.3 6.28-8.3.15-.516.08-1.156-.5-1.9 0 0-5.18-1.418-8 1.244-2.15 3.192.13 13.538.13 13.538-4.52.96-1.07 4.865-1.07 4.865-6.16-3.962.06-5.458.06-5.458v-1.75l-2.73-.38s-16.52-12.24-17.13-7.55c0 0-.04.09-.08.24 1.96 5.61 16.14 9.25 16.14 9.25l-1.35 2.51s-9.5 4.05-13.26 4.66c0 0-.16.29-.33.69 4.33 2.36 13.9-2.81 13.9-2.81s1.74 3.42 4.99 3.3c0 0 2.11 43.8 23.09 19.96 4.52-7.49 8.56-17.14 8.56-17.14l-1.59-2.74z"/><path fill="#D0D2D3" d="M77.232 116.076s-3.45-3.903 1.075-4.865c0 0-2.278-10.34-.126-13.53-1.77 1.68-2.61 4.96-.64 11.24l-.25-.03v1.75s-6.22 1.5-.05 5.46zm3.18-9.446v.002c.04-2.517 1.028-5.566 5.148-6.896 0 0 .88-.515 1.13-1.408 0 0-6.943 1.402-6.277 8.3zm-23.078-5.44c-.315 1.174-.67 6.332 16.137 9.25 0 0-14.17-3.64-16.13-9.25zm1.188 17.112c-.4.987-.788 2.673 1.272 2.624 0 0 4.437 1.144 12.627-5.43.01 0-9.56 5.17-13.89 2.806zm50.536 3.32c-.002.006-4.04 9.654-8.56 17.14 2.97-3.375 6.315-8.105 10.087-14.505l-1.527-2.635zm-30.185-2.642l2.037 11.407-2.602-11.408"/><path fill="#FFF" d="M137.766 118.882s24.07 51.146 24.117-2.672c0 0-.046-3.047 2.33-5.705 0 0 .64-1.746.603-3.872l.002-.003c.666-6.9-6.276-8.3-6.276-8.3-.143-.516-.075-1.156.5-1.9 0 0 5.186-1.418 8.01 1.244 2.15 3.192-.128 13.538-.128 13.538 4.526.96 1.076 4.865 1.076 4.865 6.164-3.962-.057-5.458-.057-5.458v-1.75l2.734-.38s16.524-12.24 17.137-7.55c0 0 .042.09.084.24-1.96 5.61-16.138 9.25-16.138 9.25l1.355 2.51s9.495 4.05 13.267 4.65c0 0 .165.29.326.69-4.33 2.36-13.9-2.81-13.9-2.81s-1.74 3.42-4.988 3.3c0 0-2.11 43.8-23.087 19.96-4.52-7.49-8.558-17.14-8.56-17.14l1.593-2.74z"/><path fill="#D0D2D3" d="M168 116.076s3.45-3.903-1.076-4.865c0 0 2.278-10.34.127-13.53 1.78 1.68 2.62 4.96.65 11.24l.25-.03v1.75s6.22 1.5.06 5.46zm-3.182-9.446l-.002.002c-.04-2.517-1.024-5.566-5.146-6.896 0 0-.88-.515-1.128-1.408 0 0 6.942 1.402 6.276 8.3zm23.08-5.44c.315 1.174.67 6.332-16.138 9.25 0 0 14.178-3.64 16.138-9.25zm-1.188 17.112c.4.987.786 2.673-1.274 2.624 0 0-4.435 1.144-12.627-5.43 0 0 9.57 5.17 13.9 2.806zm-50.535 3.32c0 .006 4.04 9.654 8.56 17.14-2.97-3.375-6.316-8.105-10.088-14.505l1.528-2.635zm30.183-2.642l-2.035 11.407 2.6-11.408"/><path fill="#FFF" d="M136.49 117.795l-14.21 2.708-12.873-2.708s-16.396 41.903 13.54 44.385c29.937-2.482 13.542-44.385 13.542-44.385z"/><path fill="#D0D2D3" d="M114.707 122.95h16.435s5.894 20.274-.148 37.204c0 0-6.86 5.154-15.298.355 0 0-6.575-4.78-.99-37.56z"/><path fill="#EC1C24" d="M38.542 144.538l159.91 7.518-25.04 35.294-111.287-6.174-23.583-35.31"/><path d="M56.1 169.46c-.117 2.393-1.114 4.388-2.99 5.982-1.877 1.598-4.073 2.33-6.587 2.21l-17.463-.86 1.447-29.396 17.463.857c1.928.096 3.548.83 4.863 2.204 1.315 1.373 1.927 2.976 1.838 4.805-.06 1.27-.48 2.425-1.25 3.464-.77 1.037-1.76 1.82-2.96 2.348 1.75.675 3.16 1.777 4.21 3.31 1.05 1.53 1.53 3.223 1.44 5.077zm-11.354 2.56l.382-7.76-3.442-.17-.38 7.762 3.44.17zm.625-12.702l.28-5.637-3.44-.17-.28 5.64 3.45.17zm33.75 14.395l-1.59 5.465-20.02-.985 1.45-29.398 12.56.618-1.17 23.87 8.79.43zm23.11 1.137l-1.59 5.463-20.02-.984 1.45-29.4 20.03.98 1.05 5.59-8.78-.43-.37 7.47 5.9.29 1.05 5.59-7.21-.36-.26 5.34 8.79.43zm23.87 1.175l-1.59 5.462-20.02-.985 1.45-29.397 20.03.984 1.05 5.59-8.79-.44-.36 7.47 5.9.29 1.05 5.59-7.21-.36-.26 5.34 8.79.43zm23.87 1.175l-1.59 5.463-20.02-.984 1.45-29.4 20.03.98 1.05 5.59-8.79-.44-.36 7.46 5.89.29 1.05 5.59-7.21-.36-.26 5.34 8.79.43zm23.87 1.173l-1.59 5.464-20.02-.984 1.45-29.397 20.03.984 1.05 5.593-8.78-.432-.37 7.47 5.9.29 1.04 5.6-7.21-.35-.26 5.35 8.79.43zm31.91 7.112l-12.56-.618.58-11.715-4.54-.224-.57 11.715-12.56-.618 1.45-29.397 12.56.618-.59 12.08 4.54.225.6-12.08 12.56.62-1.44 29.4zm11.78-2.21c-.04.93-.48 1.707-1.32 2.34-.84.63-1.81.92-2.9.863-1.12-.055-2.06-.438-2.82-1.147s-1.11-1.52-1.07-2.45c.05-.92.48-1.7 1.31-2.34s1.8-.92 2.92-.86c1.1.06 2.04.44 2.81 1.15.77.72 1.14 1.53 1.09 2.46zm1.86-26.587l-2.63 22.182-6.15-.3-.44-22.337 9.23.455z" fill="#FFF"/><path fill="#808184" d="M83.53 88.214s17.375-12.96 38.736-4.87l-.056.593s-17.25-7.645-38.523 4.968l-.158-.69zm79.116 0s-17.375-12.96-38.735-4.87l.06.593s17.25-7.645 38.53 4.968l.16-.69z"/></svg>