<svg xmlns="http://www.w3.org/2000/svg" width="250" height="250" viewBox="0 0 250 250"><path opacity=".15" d="M220.488 126.5c0-46.897-34.533-85.726-79.56-92.452l-1.39-4.524-1.835.79-1.165-3.79-15.55 6.688c-22.18 1.408-42.258 10.55-57.568 24.76L30.5 72.132l9.67 19.672c-4.292 10.73-6.656 22.436-6.656 34.696 0 51.633 41.856 93.488 93.486 93.488 12.896 0 25.186-2.613 36.36-7.336 13.316-5.63 25.058-14.253 34.377-25.027-.106-.02-.21-.043-.313-.064.104.03.207.05.314.07 14.175-16.39 22.75-37.75 22.75-61.12zm-96.396-28.877l-.04-.012c.013.01.025.01.04.02zm.924 19.28s-14.12-15.116-29.325-18.274c15.18 3.15 29.28 18.21 29.33 18.27zm-47.982 27.5c-3.833-.53-6.677-1.5-8.777-2.728 2.1 1.228 4.945 2.198 8.778 2.728zm81.03-94.353c-.254-.1-.504-.22-.76-.31.256.09.506.21.76.31zm-32.59 138.555c-30.93 7.34-45.475 2.958-51.572-5.386 6.1 8.34 20.642 12.72 51.57 5.38.624.52 1.265 1.05 1.915 1.58-.65-.53-1.29-1.06-1.914-1.58zm5.703 4.51c.387.28.768.563 1.167.842l.865.638-.87-.636c-.4-.28-.79-.57-1.17-.85zm6.745 4.905c.384.265.762.534 1.164.78.57.37 1.164.753 1.745 1.128l-1.74-1.125c-.4-.248-.78-.518-1.16-.783zm8.68 5.63l-1.812-1.168 1.81 1.166c.676.407 1.382.812 2.074 1.218-.692-.405-1.398-.81-2.072-1.216zm10.938-33.183c-1.047-.564-1.985-1.244-2.935-1.87-.045-.034-.09-.065-.14-.095l.164-.266c-.83-2.475-5.42-16.535-8.36-30.867.02-.94-.08-1.9-.39-2.84l-.05-.16-.06-.14-.07-.25c-.1-.33-.23-.85-.37-1.47-.48-2.76-.89-5.48-1.16-8.09-.09-1.19-.17-2.41-.19-3.74-.02-1.65.01-3.38.14-5.17.12-1.78.33-3.61.62-5.43.28-1.82.67-3.64 1.14-5.42.48-1.77 1-3.51 1.65-5.14.29-.83.65-1.61.99-2.38.33-.78.74-1.5 1.09-2.22.75-1.43 1.57-2.71 2.38-3.86.38-.59.83-1.1 1.24-1.61.4-.52.83-.98 1.23-1.41.76-.89 1.61-1.57 2.28-2.19.72-.6 1.37-1.06 1.9-1.44.55-.35 1-.6 1.3-.78l.46-.27c3.15-1.81 5.8-4.56 7.49-8.08 4.02-8.4 1.18-18.32-6.28-23.41-.78-.52-1.59-.99-2.45-1.41.86.42 1.68.89 2.45 1.41 7.46 5.09 10.31 15 6.28 23.41-1.7 3.53-4.34 6.27-7.5 8.08l-.45.26c-.3.18-.76.43-1.3.78-.52.38-1.18.84-1.9 1.43-.68.62-1.53 1.3-2.28 2.19-.4.43-.83.89-1.23 1.4-.41.5-.86 1.02-1.24 1.6-.82 1.15-1.63 2.44-2.38 3.86-.36.72-.77 1.44-1.1 2.22-.34.77-.7 1.55-.99 2.37-.65 1.63-1.17 3.36-1.65 5.13-.47 1.77-.86 3.6-1.15 5.42-.29 1.83-.51 3.65-.63 5.44-.12 1.78-.16 3.52-.14 5.17.02 1.33.1 2.55.19 3.74.28 2.6.68 5.33 1.16 8.09.14.62.28 1.14.37 1.46l.07.25.05.13.04.15c.31.94.4 1.9.39 2.84 2.94 14.33 7.53 28.39 8.35 30.86l-.17.26c.05.03.09.06.14.1.94.62 1.88 1.31 2.93 1.87l6.31 3.7c1.81.98 3.71 1.96 5.65 2.92-1.94-.96-3.84-1.94-5.66-2.92-2.18-1.28-4.28-2.52-6.31-3.7z"/><circle fill="#7C0" cx="-432.234" cy="170.678" r="97.487"/><path fill="#2AACE3" d="M-473.04 148.09h.002m-36.297 30.21c-.002.124.003.25.014.378-.02-.126-.02-.254-.02-.378z"/><path fill="#0291CA" d="M-402.592 90.062h.017l-.013-.003h-.004z"/><path fill="#FFF" d="M-361.336 233.788c-12.416-3.59-23.256-8.39-32.472-13.405-2.268-1.332-4.463-2.62-6.577-3.857-1.09-.586-2.07-1.297-3.058-1.95-.047-.034-.095-.067-.147-.1l.172-.274c-.86-2.58-5.647-17.244-8.714-32.188.017-.98-.085-1.978-.405-2.96l-.046-.16-.057-.138-.07-.255c-.096-.34-.238-.87-.385-1.52-.502-2.88-.924-5.72-1.21-8.44-.093-1.24-.177-2.51-.197-3.89-.02-1.72.017-3.52.146-5.39.125-1.85.348-3.76.65-5.66.294-1.89.7-3.79 1.193-5.64.502-1.84 1.04-3.65 1.72-5.35.303-.86.69-1.67 1.04-2.47.34-.81.77-1.56 1.138-2.31.786-1.48 1.636-2.82 2.483-4.02.398-.61.87-1.15 1.294-1.68.42-.54.864-1.01 1.286-1.47.79-.92 1.677-1.63 2.382-2.28.753-.62 1.435-1.1 1.98-1.5.57-.36 1.042-.62 1.356-.81l.477-.27c3.29-1.88 6.047-4.75 7.813-8.43 4.198-8.76 1.235-19.1-6.552-24.4-.805-.55-1.656-1.04-2.555-1.47-1.29-.61-2.6-1.07-3.93-1.38h-.01c-8.7-2.05-17.93 2.12-21.95 10.49l-1.21 2.52s-.66 1.36-1.79 3.73c-.53 1.2-1.13 2.65-1.82 4.29-.61 1.67-1.32 3.53-1.94 5.57-.33 1.02-.66 2.07-.92 3.17-.27 1.1-.61 2.22-.84 3.37-.53 2.31-.97 4.73-1.33 7.19-.34 2.48-.63 5-.77 7.53-.04.63-.07 1.27-.11 1.9l-.03.77c-.03 0-.06-.01-.07-.02 0 .02.02.21.05.47l-.02.7c-.06 1.27-.04 2.52-.04 3.78 0 1.27.05 2.51.08 3.74.07 1.23.12 2.46.2 3.66.18 2.41.38 4.76.64 7.01.03.27.07.5.1.78 0 0-46.53-49.82-63.24 9.18 0 0-8.5 16.5 13.21 19.5 0 0-35.5 66.5 50.5 46.09 2.21 1.85 4.54 3.75 7.17 5.59 1.11.81 2.25 1.66 3.42 2.51 1.16.85 2.33 1.75 3.61 2.53 2.52 1.63 5.13 3.31 7.83 5.05 8.72 5.26 18.79 10.42 30.06 14.85 11.71-8.04 21.77-18.35 29.59-30.3-3.08-.62-8.2-1.6-9.19-1.89z"/><path fill="#E5E5E5" d="M-432.955 170.182s-10.286 38.355 8.584 56.846l-15.97-10.512s1.04-13-5.57-17.166c0 0 11.27-15.834 7.83-27.834l5.1-1.334z"/><path fill="#E5E5E5" d="M-434.583 231.934l10.213-4.906-12.546-13.428-3.417 3.834-2.333 3.582s4.83.28 8.083 10.918z"/><path fill="#CCC" d="M-460.583 150.35h-9s48.5 12 24.5 45.5c0 0-14.03 3.9-33-4.25 0 0 11.373 8.75 32.187 7.75 0 0 10.083 13.5-3.603 24.25h-28.58l3.5 2s51.75 10.75 32.5-26.75c0 0 21.25-36.75-17.25-46.5l-1.25-2z"/><path fill="#2AACE3" d="M83.867 100.838h.002M49.06 129.81c0 .118.003.24.015.362-.012-.12-.016-.244-.014-.36z"/><path fill="#0291CA" d="M151.426 45.19l.014.002-.012-.003h-.002z"/><path fill="#7C0" d="M135.088 194.803c-1.225-.754-2.35-1.613-3.465-2.432-1.12-.82-2.214-1.62-3.277-2.41-2.518-1.75-4.756-3.58-6.873-5.35-82.48 19.57-48.436-44.2-48.436-44.2-20.818-2.88-12.668-18.7-12.668-18.7 16.02-56.58 60.64-8.8 60.64-8.8-.03-.26-.07-.48-.1-.75-.26-2.15-.45-4.41-.63-6.72-.07-1.15-.13-2.33-.19-3.51-.04-1.18-.08-2.37-.08-3.58 0-1.2-.02-2.4.03-3.62 0-.22.01-.44.01-.67-.03-.24-.05-.42-.05-.44.02.01.04.02.07.02 0-.24.01-.48.02-.73.04-.61.06-1.21.1-1.82.13-2.42.4-4.85.73-7.22.34-2.36.76-4.68 1.27-6.89.22-1.1.55-2.18.8-3.23.25-1.05.57-2.06.88-3.03.6-1.95 1.28-3.73 1.86-5.33.66-1.57 1.24-2.96 1.74-4.11l1.71-3.58 1.16-2.41c3.85-8.03 12.71-12.03 21.05-10.06h.01c1.27.3 2.53.74 3.76 1.33.86.42 1.68.89 2.45 1.41 7.46 5.09 10.31 15 6.28 23.4-1.7 3.53-4.34 6.28-7.5 8.09l-.46.26c-.3.18-.75.44-1.3.78-.52.39-1.18.85-1.9 1.44-.68.62-1.53 1.3-2.29 2.19-.4.43-.83.89-1.23 1.41-.41.51-.86 1.02-1.24 1.61-.82 1.16-1.63 2.44-2.38 3.86-.36.72-.77 1.44-1.1 2.22-.34.77-.71 1.55-1 2.38-.65 1.63-1.17 3.37-1.65 5.14-.48 1.78-.86 3.6-1.15 5.42-.29 1.82-.5 3.65-.62 5.43-.13 1.79-.16 3.52-.14 5.17.02 1.33.1 2.55.19 3.74.27 2.6.68 5.33 1.16 8.09.14.62.27 1.14.37 1.46l.06.24.05.13.05.15c.31.94.41 1.9.39 2.84 2.94 14.34 7.53 28.4 8.36 30.87l-.16.27c.05.03.09.07.14.1.94.63 1.88 1.31 2.93 1.87 2.02 1.19 4.13 2.43 6.31 3.7 8.84 4.81 19.23 9.42 31.14 12.86.39.12 1.44.34 2.75.61 14.17-16.39 22.75-37.75 22.75-61.12 0-51.63-41.86-93.49-93.49-93.49-51.63 0-93.49 41.86-93.49 93.49 0 51.63 41.86 93.49 93.49 93.49 12.9 0 25.19-2.61 36.36-7.34-6.04-2.88-11.64-5.92-16.76-9-2.59-1.67-5.09-3.29-7.51-4.85z"/><path fill="#FFF" d="M193.737 183.625c-1.308-.268-2.36-.49-2.75-.605-11.906-3.44-22.302-8.045-31.14-12.854-2.176-1.277-4.28-2.514-6.308-3.7-1.05-.563-1.99-1.243-2.94-1.87-.05-.033-.09-.064-.14-.094l.16-.266c-.83-2.475-5.42-16.535-8.36-30.867.02-.94-.08-1.9-.39-2.84l-.05-.16-.06-.14-.07-.25c-.1-.33-.23-.85-.37-1.47-.48-2.76-.89-5.48-1.16-8.09-.09-1.19-.17-2.41-.19-3.74-.02-1.65.01-3.38.14-5.17.12-1.78.33-3.61.62-5.43.28-1.82.67-3.64 1.14-5.42.48-1.77 1-3.51 1.65-5.14.29-.83.66-1.61.99-2.38.32-.78.73-1.5 1.09-2.22.75-1.43 1.57-2.71 2.38-3.86.38-.59.83-1.1 1.24-1.61.4-.52.82-.98 1.23-1.41.75-.89 1.61-1.57 2.28-2.19.72-.6 1.37-1.06 1.9-1.44.55-.35 1-.6 1.3-.78l.45-.27c3.15-1.81 5.8-4.56 7.49-8.08 4.02-8.4 1.18-18.32-6.28-23.41-.77-.52-1.59-.99-2.45-1.41-1.23-.59-2.49-1.02-3.77-1.33h-.01c-8.34-1.97-17.19 2.04-21.05 10.07l-1.16 2.41s-.63 1.3-1.72 3.58c-.51 1.15-1.09 2.54-1.75 4.11-.58 1.6-1.27 3.38-1.86 5.33-.31.97-.63 1.99-.88 3.04-.26 1.05-.59 2.12-.81 3.23-.51 2.21-.93 4.52-1.27 6.89-.33 2.37-.6 4.8-.73 7.22-.04.6-.06 1.21-.1 1.82-.01.25-.02.49-.02.73-.03-.01-.05-.01-.07-.02 0 .02.02.2.05.44 0 .22-.01.44-.01.67-.06 1.21-.04 2.41-.04 3.62s.04 2.4.08 3.58c.06 1.18.12 2.35.19 3.51.17 2.3.36 4.56.62 6.72.03.26.07.49.1.75 0 0-44.63-47.78-60.65 8.8 0 0-8.15 15.82 12.67 18.7 0 0-34.04 63.77 48.44 44.2 2.12 1.77 4.35 3.6 6.87 5.36 1.06.78 2.16 1.59 3.28 2.41 1.11.81 2.24 1.67 3.46 2.43l7.51 4.84c5.11 3.08 10.71 6.13 16.76 9 13.32-5.63 25.06-14.26 34.38-25.03z"/><path fill="#E5E5E5" d="M122.307 122.024s-9.863 36.78 8.232 54.513l-15.31-10.08s.99-12.467-5.34-16.463c0 0 10.81-15.184 7.51-26.69l4.89-1.28z"/><path fill="#E5E5E5" d="M120.745 181.242l9.794-4.705-12.04-12.877-3.28 3.678-2.24 3.434c-.01 0 4.63.267 7.75 10.47z"/><path fill="#CCC" d="M95.813 103.004h-8.63s46.51 11.51 23.495 43.633c0 0-13.455 3.742-31.646-4.074 0 0 10.906 8.39 30.865 7.432 0 0 9.67 12.945-3.454 23.256H79.03l3.356 1.92s49.625 10.31 31.166-25.65c0 0 20.377-35.24-16.54-44.59l-1.2-1.92z"/><path fill="#2AACE3" d="M128.963-150.415h-.002m-36.28-30.59c-.01.128-.01.255-.01.38 0-.125 0-.253.02-.38z"/><path fill="#0291CA" d="M199.412-92.385l.012-.004-.016.01.004.01z"/><path fill="#F77" d="M182.373-248.4c-1.277.786-2.45 1.683-3.613 2.536-1.168.854-2.31 1.7-3.418 2.515-2.625 1.84-4.96 3.74-7.168 5.59-86.007-20.4-50.507 46.1-50.507 46.1-21.71 3-13.21 19.5-13.21 19.5 16.71 59 63.243 9.18 63.243 9.18-.033.28-.072.51-.104.78-.27 2.25-.47 4.61-.647 7.01-.08 1.21-.14 2.43-.2 3.66-.04 1.24-.08 2.48-.09 3.74 0 1.26-.02 2.51.03 3.78.01.24.01.47.01.7-.03.25-.06.44-.06.46.02-.01.04-.01.07-.02 0 .26.01.51.02.77.04.64.06 1.27.1 1.9.14 2.53.42 5.06.76 7.53.35 2.47.79 4.88 1.32 7.19.23 1.16.57 2.27.84 3.37.26 1.1.59 2.15.92 3.17.62 2.04 1.33 3.9 1.93 5.56.69 1.64 1.29 3.09 1.82 4.29l1.79 3.73 1.21 2.52c4.02 8.38 13.25 12.55 21.95 10.5h.01c1.33-.31 2.64-.77 3.93-1.38.9-.43 1.75-.92 2.55-1.47 7.79-5.3 10.75-15.64 6.55-24.4-1.77-3.68-4.52-6.54-7.82-8.43l-.48-.27c-.32-.19-.79-.45-1.36-.81-.55-.4-1.23-.88-1.98-1.5-.7-.64-1.59-1.35-2.38-2.28-.43-.45-.87-.93-1.29-1.47-.43-.52-.9-1.06-1.3-1.67-.85-1.2-1.7-2.54-2.48-4.02-.37-.75-.8-1.5-1.14-2.31-.36-.8-.74-1.61-1.04-2.47-.68-1.7-1.22-3.51-1.72-5.35-.49-1.85-.9-3.75-1.19-5.64-.3-1.9-.53-3.81-.65-5.67-.13-1.86-.17-3.67-.15-5.39.02-1.39.11-2.66.2-3.9.28-2.71.71-5.56 1.21-8.44.14-.64.29-1.18.39-1.52l.06-.25.06-.13.05-.16c.32-.99.42-1.98.4-2.96 3.06-14.95 7.85-29.61 8.71-32.19l-.17-.28.15-.09c.98-.66 1.96-1.37 3.06-1.95 2.11-1.24 4.3-2.52 6.57-3.86 9.22-5.02 20.06-9.81 32.47-13.4.41-.12 1.51-.35 2.87-.63 14.78 17.09 23.72 39.37 23.72 63.74 0 53.84-43.64 97.49-97.48 97.49s-97.48-43.65-97.48-97.49 43.64-97.49 97.48-97.49c13.45 0 26.26 2.73 37.92 7.65-6.3 3-12.14 6.18-17.48 9.39-2.71 1.74-5.32 3.43-7.84 5.05z"/><path fill="#FFF" d="M243.53-236.744c-1.36.277-2.46.51-2.866.63-12.416 3.59-23.256 8.39-32.473 13.404-2.26 1.332-4.46 2.62-6.57 3.857-1.09.587-2.07 1.297-3.06 1.952l-.14.09.18.27c-.86 2.58-5.65 17.24-8.71 32.19.02.98-.08 1.97-.4 2.95l-.04.16-.06.14-.07.25c-.09.34-.24.87-.38 1.52-.5 2.88-.92 5.72-1.21 8.43-.09 1.24-.18 2.51-.2 3.89-.02 1.72.02 3.53.15 5.39.13 1.86.35 3.76.65 5.66.3 1.9.7 3.8 1.2 5.65.51 1.84 1.04 3.65 1.72 5.35.31.86.69 1.67 1.04 2.47.34.81.77 1.56 1.14 2.31.79 1.49 1.64 2.82 2.48 4.03.4.61.87 1.15 1.3 1.68.42.54.87 1.01 1.29 1.46.79.93 1.68 1.64 2.38 2.28.76.62 1.44 1.1 1.98 1.5.57.36 1.05.62 1.36.81l.48.27c3.29 1.89 6.05 4.75 7.81 8.43 4.2 8.76 1.23 19.1-6.55 24.41-.8.55-1.65 1.04-2.55 1.47-1.28.61-2.6 1.07-3.93 1.38h-.01c-8.69 2.05-17.93-2.12-21.95-10.5l-1.21-2.51-1.79-3.73c-.52-1.2-1.12-2.65-1.81-4.29-.6-1.67-1.32-3.52-1.94-5.56-.32-1.01-.65-2.07-.91-3.16-.27-1.1-.61-2.22-.84-3.37-.53-2.31-.97-4.73-1.32-7.19-.34-2.48-.62-5-.76-7.53-.04-.63-.07-1.26-.11-1.9-.01-.26-.02-.51-.02-.77-.03 0-.06.01-.07.02 0-.02.02-.21.05-.47-.01-.24-.01-.47-.02-.7-.06-1.27-.04-2.52-.04-3.78.01-1.27.05-2.51.09-3.74.07-1.23.13-2.46.2-3.66.18-2.4.38-4.76.65-7.01.03-.27.07-.51.11-.78 0 0-46.53 49.82-63.24-9.18 0 0-8.5-16.5 13.21-19.5 0 0-35.5-66.5 50.51-46.1 2.21-1.85 4.54-3.75 7.17-5.58 1.11-.82 2.25-1.66 3.42-2.52 1.16-.85 2.34-1.75 3.61-2.53 2.52-1.63 5.13-3.31 7.84-5.05 5.33-3.22 11.17-6.39 17.47-9.39 13.89 5.87 26.13 14.86 35.85 26.1z"/><path fill="#E5E5E5" d="M169.045-172.508s-10.285-38.355 8.584-56.844l-15.97 10.51s1.04 13-5.57 17.168c0 0 11.27 15.834 7.83 27.833l5.1 1.33z"/><path fill="#E5E5E5" d="M167.416-234.26l10.213 4.907-12.55 13.427-3.42-3.833-2.34-3.58s4.83-.28 8.08-10.91z"/><path fill="#CCC" d="M141.416-152.675h-9s48.5-12 24.5-45.5c0 0-14.03-3.902-33 4.25 0 0 11.373-8.75 32.188-7.75 0 0 10.082-13.5-3.604-24.25h-28.583l3.5-2s51.75-10.75 32.5 26.75c0 0 21.25 36.75-17.25 46.5l-1.25 2z"/><path opacity=".15" d="M30.183-103.167H16.467v1.184h-6.283v-2.037h-13.66v15.6c-1.447-5.678-5.385-9.085-10.768-9.085-.372 0-.756.017-1.14.05-2.603.228-4.852 1.256-6.722 3.066-1.4-1.06-3.245-1.89-5.62-1.89-.306 0-.62.02-.937.04-1.405.12-2.697.48-3.87 1.06l-8.535.75-.09-1.73-1.234.09c.08-.43.128-.87.128-1.33 0-4-3.257-7.25-7.26-7.25-4 .01-7.255 3.26-7.256 7.26 0 .81.14 1.59.384 2.31l-.13.01-1.986.14-.557.04c.08-.43.13-.87.13-1.33 0-4-3.25-7.26-7.26-7.26-1.2 0-2.34.3-3.34.83l-.3-3.43-15.61 1.37.08.94c-.59-.38-1.23-.7-1.91-.97-1.52-.58-3.23-.85-5.35-.85-1.45 0-2.99.13-4.57.26l-15.04 1.32 1.24 14.17c-.39-.67-.83-1.28-1.34-1.83-1.37-1.47-3.88-3.22-8.08-3.22-2.27 0-4.05.48-5.44 1.16v-9.38h-12.99v1.19h-10.11V-94h-2.17v.25c-1.74-.91-3.49-1.174-4.95-1.174-4.02 0-7.36 1.894-9.64 5.48-1.93 3.033-2.92 7.046-2.96 11.927h-1.83v-25.623h-14.19v42.35h23.33v-.3c1.52.8 3.22 1.22 5.08 1.22 3.38 0 6.19-1.093 8.36-3.26.23-.225.44-.47.65-.715.06.094.12.185.18.273 1.04 1.464 3.12 3.21 7.13 3.21.62 0 1.28-.02 1.98-.066.67-.045 1.39-.107 2.22-.19l3.35-.35v-15.07l-2.94.413v-1.815l1.05-.224c1.1-.23 2.11-.626 3.02-1.166.22.905.53 1.734.94 2.48h-1.95l.17 3.895c.17 3.87 1.21 6.92 3.09 9.067 1.41 1.604 4.03 3.52 8.53 3.52 3.78 0 6.76-1.16 8.87-3.456 1.23-1.34 2.09-3.01 2.58-4.986l.75 8.513 15.93-1.39c3.74-.32 7.27-.63 10.48-3.21.02-.01.03-.02.04-.032l.35 3.96 15.61-1.36-.11-1.31c2.04 1.5 4.44 2.41 7.18 2.69.3.07.61.11.91.11.32.01.64.01.95.01.67 0 1.33-.01 1.96-.05 2.32-.12 4.43-.59 6.28-1.39 1.83-.79 3.42-1.93 4.73-3.36l.51 5.84L-3.4-62.8v2.03h13.6v-.55c1.133.58 2.61.98 4.534.98.615 0 1.28-.02 1.98-.06.66-.04 1.39-.1 2.213-.19l1.63-.17h9.58v-17.08h-1.25l1.307-12.6v-12.66zm-140.375 23.783h.098l.02.223c-.04-.08-.076-.16-.118-.23z"/><path fill="#F1F1F2" d="M28.318-105.032H14.602v1.184H8.32v-2.037H-5.34v15.6c-1.448-5.677-5.386-9.084-10.768-9.084-.374 0-.757.02-1.14.05-2.605.23-4.854 1.26-6.724 3.07-1.4-1.06-3.245-1.89-5.62-1.89-.306 0-.62.02-.935.04-1.406.12-2.697.48-3.872 1.06l-8.53.75-.09-1.73-1.23.09c.08-.43.13-.87.13-1.33 0-4-3.25-7.25-7.25-7.25s-7.25 3.26-7.25 7.26c0 .81.14 1.58.39 2.31l-.13.01-1.98.14-.55.04c.08-.43.13-.87.13-1.33 0-4-3.26-7.25-7.26-7.25-1.21 0-2.34.3-3.35.83l-.3-3.43-15.61 1.37.08.93c-.59-.38-1.23-.71-1.91-.97-1.52-.58-3.23-.85-5.35-.85-1.45 0-2.99.13-4.57.27l-15.05 1.31 1.24 14.17c-.39-.67-.83-1.28-1.34-1.83-1.37-1.47-3.89-3.22-8.08-3.22-2.27 0-4.06.48-5.45 1.16v-9.4h-12.99v1.18h-10.11v7.96H-153v.25c-1.74-.91-3.49-1.17-4.944-1.17-4.025 0-7.36 1.9-9.64 5.48-1.93 3.04-2.926 7.05-2.97 11.93h-1.83V-105h-14.19v42.35h23.325v-.297c1.52.804 3.23 1.22 5.08 1.22 3.38 0 6.2-1.096 8.36-3.26.23-.23.44-.47.65-.72.06.09.12.185.18.27 1.04 1.466 3.12 3.21 7.13 3.21.62 0 1.28-.02 1.98-.07.67-.04 1.39-.102 2.22-.19l3.35-.35v-15.07l-2.94.42v-1.817l1.05-.23c1.09-.23 2.1-.624 3.02-1.17.23.91.53 1.74.94 2.48h-1.95l.17 3.9c.17 3.87 1.21 6.92 3.09 9.068 1.41 1.607 4.03 3.524 8.53 3.524 3.78 0 6.76-1.164 8.87-3.457 1.23-1.34 2.09-3.01 2.57-4.99l.75 8.52 15.93-1.39c3.74-.32 7.27-.63 10.48-3.21.02-.01.03-.02.04-.03l.35 3.96 15.6-1.37-.11-1.32c2.03 1.5 4.44 2.41 7.18 2.69.3.07.6.11.91.11.32.01.63.01.95.01.66 0 1.33-.02 1.96-.05 2.32-.13 4.43-.59 6.27-1.4 1.83-.79 3.42-1.92 4.74-3.36l.51 5.84 40.09-3.53v2.03H8.32v-.55c1.132.58 2.607.99 4.532.99.616 0 1.28-.03 1.978-.07.665-.04 1.39-.11 2.218-.19l1.632-.17h9.58v-17.08h-1.25l1.31-12.61v-12.66zM-112.058-81.25h.098l.02.223c-.04-.074-.076-.15-.118-.223z"/><path d="M-182.87-66.41v-34.89h6.723v25.627h9.138v9.262h-15.86zm27.31-7.628h5.884c-.426 2.81-1.362 4.938-2.807 6.383-1.445 1.445-3.352 2.168-5.72 2.168-2.653 0-4.76-1.23-6.317-3.684-1.558-2.46-2.338-5.76-2.338-9.92 0-4.33.796-7.74 2.388-10.25 1.592-2.5 3.757-3.76 6.495-3.76 2.748 0 4.9 1.36 6.46 4.08 1.557 2.72 2.337 6.5 2.337 11.33v.61l-11.526.02c.03 1.64.29 2.91.782 3.8.493.89 1.18 1.34 2.06 1.34.598 0 1.095-.19 1.493-.56.4-.37.67-.91.81-1.6zm-5.144-8.148h5.472c-.066-1.596-.332-2.792-.796-3.59-.464-.796-1.132-1.195-2.004-1.195-.805 0-1.443.42-1.912 1.26s-.722 2.01-.76 3.51zm19.692 6.23c0 .868.15 1.48.455 1.835.304.35.843.53 1.62.53.228 0 .4-.01.52-.02.118-.01.234-.02.348-.04v7.41c-.75.08-1.44.14-2.06.18-.62.04-1.2.06-1.74.06-1.95 0-3.31-.55-4.08-1.64-.77-1.09-1.16-3-1.16-5.73v-12.91h-2.17v-5.9h2.18v-7.96h6.11v7.96h2.89v5.9h-2.9v10.3zm9.53-25.344v8.976c0 2.543-.478 4.604-1.435 6.183s-2.32 2.55-4.093 2.93v-4.08c.862-.32 1.48-.84 1.854-1.57.374-.73.562-1.77.562-3.13h-2.416v-9.34h5.528zm1.16 26.787h5.97c0 1.09.167 1.904.503 2.44.34.537.85.806 1.52.806.65 0 1.14-.182 1.49-.545.35-.363.52-.892.52-1.587 0-1.15-.76-2-2.29-2.55-.13-.05-.23-.08-.31-.12-2.89-1.02-4.77-2.13-5.65-3.31-.88-1.18-1.32-2.92-1.32-5.21 0-2.76.65-4.87 1.94-6.31 1.3-1.44 3.18-2.17 5.67-2.17 2.3 0 4.09.68 5.35 2.04 1.27 1.36 2 3.38 2.19 6.07h-5.53c-.04-.77-.24-1.39-.6-1.84-.35-.45-.8-.68-1.34-.68s-.95.16-1.23.47c-.28.31-.42.75-.42 1.34 0 1.02.7 1.78 2.09 2.27l.84.29c2.81 1.08 4.63 2.22 5.47 3.43.85 1.21 1.27 2.98 1.27 5.32 0 2.96-.69 5.18-2.07 6.68s-3.42 2.25-6.12 2.25c-2.5 0-4.41-.75-5.72-2.25-1.31-1.49-2.03-3.75-2.17-6.77zM-1.61-94.788v-7.366h6.197v7.366H-1.61zm0 28.377v-25.75h6.197v25.74H-1.61zm15.33-9.55c0 .87.15 1.48.454 1.83.303.35.843.53 1.62.53.228 0 .4-.01.52-.01.117-.01.233-.02.348-.04v7.41c-.758.08-1.447.14-2.068.18s-1.2.06-1.74.06c-1.952 0-3.314-.55-4.086-1.64-.772-1.09-1.16-3-1.16-5.73v-12.91H5.435v-5.9H7.61v-7.96h6.11v7.95h2.886v5.9H13.72v10.3zm6.033-2.92l-1.42-13.69v-8.74h6.253v8.74l-1.422 13.69h-3.41zM18.39-66.41v-9.618h6.14v9.617h-6.14z" fill="#7F8080"/><path fill="#00ADEE" d="M-110.077-102.53l10.404-.91c.307-.028.614-.054.92-.08 3.38-.296 6.07-.48 8.272.358 2.92 1.137 4.72 4.023 5.09 8.272.29 3.326-.6 5.933-2.69 7.714 3.08 1.176 4.67 3.82 5.05 8.226.38 4.4-.75 7.8-3.17 9.762-2.32 1.854-5.08 2.095-8.46 2.39l-12.21 1.068-3.23-36.804zm13.533 13.62c2.265-.2 3.277-1.01 3.062-3.467-.255-2.917-1.583-3.06-4.808-2.777l-2.457.214.555 6.348 3.648-.32zm1.644 13.47c2.61-.23 3.685-1.2 3.46-3.76-.224-2.56-1.524-3.27-4.134-3.042l-4.03.353.594 6.81 4.11-.36zm11.62-27.777l8.178-.714 3.22 36.8-8.176.71-3.22-36.81zm38.86 10.793l7.372-.645.35 4c1.52-3.38 3.617-5.06 6.497-5.31 2.68-.23 4.65 1.04 6.47 4.18 1.67-3.39 3.8-5.13 6.8-5.39 4.8-.42 7.87 2.82 8.39 8.76l1.62 18.53-7.99.7-1.27-14.54c-.29-3.32-1.2-4.79-3.15-4.62-2 .18-2.74 1.84-2.45 5.22l1.26 14.44-7.95.7-1.24-14.18c-.32-3.63-1.23-5.15-3.3-4.97-1.81.16-2.62 1.88-2.35 5.06l1.27 14.59-7.99.7-2.38-27.18z"/><g fill="#00ADEE"><circle cx="-68.064" cy="-98.11" r="3.526"/><circle cx="-51.387" cy="-99.278" r="3.526"/><path d="M-45.792-79.586l-.76-14.46-7.91.554.74 13.16v-.004c.026.512.04.99.04 1.44 0 .733-.037 1.38-.105 1.934-.11.873-.34 1.548-.653 2.04-.317.493-.726.845-1.28 1.1-.392.177-.88.31-1.457.394-.06-.008-.124-.014-.193-.014-.04 0-.083.002-.13.007h.003c-.28.023-.546.036-.795.036-.592 0-1.096-.06-1.515-.19-.586-.17-1.038-.46-1.422-.91-.38-.44-.7-1.07-.93-1.93-.23-.86-.41-1.98-.53-3.33v.01l-1.09-13.08-7.91.56 1.26 14.37c.18 2.05.59 3.85 1.26 5.41s1.58 2.87 2.74 3.89c1.71 1.52 3.86 2.37 6.35 2.58.09.04.19.07.31.07.3.01.59.01.88.01.6 0 1.19-.01 1.77-.04 1.86-.1 3.53-.45 4.98-1.09 1.46-.63 2.71-1.54 3.71-2.72.91-1.06 1.59-2.32 2.03-3.75.45-1.43.67-3.03.67-4.8 0-.39-.01-.8-.03-1.21z"/></g><path opacity=".15" d="M29.5 71.13l12.342 25.112 103.107-40.11-9.41-30.61"/><path fill="#FFF" d="M26.5 68.13l12.342 25.112 103.107-40.11-9.41-30.61"/><path d="M32.854 71.203L39 68.187c.34-.164.654-.314.945-.45.29-.138.557-.26.8-.372.248-.095.472-.185.673-.27.2-.086.382-.16.543-.222.16-.062.32-.113.47-.154.15-.05.3-.08.43-.12.16-.04.3-.07.43-.09.14-.02.27-.04.4-.05.23-.02.45-.03.66-.03.21 0 .42.02.62.06.2.04.4.1.59.17.19.08.38.16.57.26.17.1.34.21.5.35s.31.27.43.42c.15.16.28.33.4.52.13.18.24.39.34.62.09.17.16.33.22.49.06.16.11.32.14.49.04.17.06.34.07.5s.01.33-.01.5c-.01.15-.03.31-.06.47-.04.17-.09.33-.16.49-.06.16-.13.31-.22.47-.09.16-.18.32-.29.48.24-.04.46-.06.68-.05.21.01.42.03.62.07.21.02.4.06.58.14.18.07.35.15.52.24.17.1.33.21.48.34.15.13.29.27.42.44.15.16.28.34.41.53s.24.41.35.63c.12.22.22.44.3.66.08.22.14.44.19.65.05.22.08.43.1.64.02.21.02.42.01.63-.02.2-.05.41-.09.61-.04.2-.1.4-.17.59-.07.2-.16.39-.27.57s-.22.37-.35.55c-.09.12-.18.23-.28.35s-.21.22-.33.34c-.11.11-.23.21-.36.31-.13.1-.26.2-.41.31s-.31.21-.5.33l-.65.39-.82.43c-.3.15-.62.32-.98.49l-6.66 3.24-7.34-15.03zm9.59 2.74c.17-.08.324-.16.46-.24.14-.076.257-.16.357-.25.12-.08.22-.16.29-.246.07-.084.13-.17.18-.256.05-.06.08-.14.1-.24.02-.1.03-.2.03-.3l-.06-.3c-.02-.11-.07-.22-.13-.35-.06-.11-.12-.21-.19-.31s-.14-.18-.22-.25c-.07-.07-.16-.12-.25-.15-.08-.03-.17-.05-.26-.07-.1-.01-.22 0-.35.03-.13.03-.29.07-.47.12-.17.07-.38.15-.61.25-.23.1-.47.2-.73.32l-1.35.67 1.27 2.6 1.99-.98zm2.962 5.417c.178-.102.344-.195.496-.278.152-.084.285-.173.4-.267.128-.1.234-.195.316-.285.083-.09.15-.18.2-.265.06-.107.1-.21.12-.31.02-.1.028-.2.023-.297-.01-.113-.02-.228-.05-.342-.02-.115-.07-.235-.14-.36-.06-.127-.13-.24-.2-.337-.07-.1-.14-.19-.22-.26-.09-.07-.18-.12-.27-.16-.09-.04-.19-.07-.29-.08-.11-.03-.23-.03-.35-.02-.13.01-.27.04-.42.08-.13.03-.29.08-.45.15-.16.06-.35.14-.55.23l-2.2 1.07 1.38 2.78 2.25-1.09zm3.66-14.84l4.465-2.17 7.34 15.034-4.43 2.182-7.37-15.046zm26.574 6.81l-4.023 1.947-.8-1.626c-.044.24-.1.46-.17.67-.07.21-.146.41-.226.59-.09.2-.18.39-.28.56-.1.18-.21.34-.34.49-.12.17-.25.32-.39.45s-.28.27-.44.4c-.16.13-.34.26-.52.37-.18.11-.37.22-.56.33-.17.08-.34.16-.5.22-.17.06-.33.12-.5.17-.15.05-.31.08-.48.1-.16.03-.33.04-.49.06-.16.01-.32.02-.47.01-.15-.01-.3-.03-.45-.07-.16-.02-.31-.05-.46-.1-.15-.04-.3-.1-.44-.18-.12-.05-.24-.12-.36-.2-.12-.08-.24-.16-.36-.25s-.23-.18-.34-.29c-.11-.11-.22-.23-.33-.35-.1-.13-.21-.28-.33-.46s-.24-.38-.38-.59c-.12-.23-.26-.5-.41-.78-.15-.28-.31-.6-.47-.93l-2.82-5.76 4.42-2.15 2.78 5.74c.12.21.22.4.32.57.1.17.2.32.3.45.11.15.21.26.3.35.1.09.2.17.3.23.09.05.19.09.3.11.11.03.22.04.34.03s.24-.03.36-.08c.13-.04.27-.09.41-.15.14-.07.26-.14.37-.22.1-.08.19-.17.27-.27.1-.1.17-.21.22-.32.05-.11.08-.23.1-.35.02-.12.03-.26.02-.4 0-.14-.02-.29-.05-.47-.03-.15-.08-.32-.14-.49-.06-.18-.14-.36-.23-.54l-2.8-5.71 4.42-2.15 5.4 11.11zm-2.28-10.7l3.99-1.96.8 1.624c.05-.22.103-.432.158-.638.055-.206.12-.406.195-.603.096-.188.19-.366.284-.536.093-.17.196-.327.31-.47.12-.164.247-.313.38-.448.132-.14.282-.27.45-.4.152-.13.316-.25.492-.36.17-.11.36-.21.56-.31.18-.09.36-.17.55-.24.18-.07.36-.12.53-.16.17-.03.34-.06.52-.08.17-.02.34-.02.5 0 .17 0 .34.02.51.06s.35.09.52.16c.17.06.35.14.54.23.18.09.36.19.54.3.05-.24.12-.47.19-.68.07-.21.15-.42.24-.62.08-.18.17-.36.28-.54.1-.18.22-.35.34-.51.12-.17.25-.32.39-.45.14-.14.29-.28.46-.41.15-.12.32-.24.5-.35.18-.11.37-.22.57-.31.32-.16.64-.29.95-.39.31-.11.62-.17.92-.21.28-.04.56-.05.84-.03.27.02.54.07.81.15.26.08.51.19.75.32.23.14.45.3.66.49.2.19.39.41.56.66s.33.53.48.84l3.71 7.56-4.35 2.12-2.91-5.94c-.09-.19-.18-.35-.27-.49-.09-.14-.18-.26-.27-.36-.08-.12-.16-.22-.26-.3-.1-.08-.19-.14-.3-.19-.09-.06-.19-.1-.3-.12-.11-.02-.22-.02-.33-.01-.12.01-.23.03-.36.06s-.25.07-.37.14c-.14.07-.26.14-.37.22-.1.07-.2.16-.28.25-.09.08-.15.17-.2.27-.05.1-.08.21-.11.32-.02.11-.03.23-.03.36 0 .14.02.27.05.41.02.14.06.29.13.45.06.16.13.33.21.49l2.87 5.9-4.31 2.11-2.83-5.79c-.1-.18-.2-.35-.3-.5-.09-.16-.19-.3-.29-.43-.1-.11-.19-.21-.29-.3-.1-.09-.2-.16-.29-.23-.1-.05-.21-.08-.32-.1-.11-.03-.22-.04-.33-.03-.13 0-.26.02-.39.06-.13.04-.26.09-.4.16-.11.06-.21.12-.31.19s-.19.15-.28.23c-.07.09-.12.19-.17.29-.05.1-.08.2-.11.31-.02.11-.03.23-.03.36 0 .13.02.26.05.38.02.14.06.28.11.43.06.14.13.3.21.47l2.9 5.96-4.36 2.13-5.39-11.1zm31.547-18.002l4.456-2.19 1.554 3.194-4.443 2.16-1.567-3.164zm2.11 4.31l4.456-2.19 5.42 11.1-4.455 2.19-5.42-11.1zm16.66 1.77c.054.072.116.136.188.192.052.047.113.086.184.118.07.032.14.05.21.057.07.02.15.028.24.02.09-.01.18-.027.29-.05.1-.04.21-.084.34-.13l.4-.156c.06-.05.13-.09.19-.12l.16-.08.12-.09c.04-.03.08-.05.12-.07l1.55 3.19c-.12.08-.25.15-.38.22-.13.06-.25.14-.36.21-.13.06-.25.13-.37.19l-.35.18-.32.17-.3.16c-.12.04-.22.09-.32.15-.1.05-.2.1-.3.14-.35.18-.68.33-.99.44s-.61.19-.89.25c-.28.07-.53.11-.76.12-.23 0-.45-.02-.66-.08-.19-.05-.37-.13-.56-.24-.19-.11-.36-.25-.53-.42-.17-.17-.33-.37-.48-.61-.16-.23-.31-.5-.46-.79l-2.73-5.58-1.56.78-1.25-2.54 1.56-.78-1.67-3.42 4.4-2.15 1.67 3.42 2.07-1.02 1.28 2.57-2.08 1 2.16 4.44c.04.1.08.19.13.26zm1.495-8.948l-1.855-3.782 4.51-2.185 1.823 3.768 1.855 6.4-2.445 1.22-3.888-5.41zm3.505 7.09l4.42-2.15 2.02 4.144-4.41 2.173-2.03-4.167z" fill="#00ADEE"/></svg>