<svg xmlns="http://www.w3.org/2000/svg" width="250" height="250" viewBox="0 0 250 250"><path opacity=".15" d="M216.104 177.83l-2.93-.583c-2.037-.402-5.113-1.01-5.742-1.178-10.616-3.07-21.07-7.39-31.076-12.83l-6.69-3.92c-.154-.09-.312-.18-.477-.28-1.45-4.47-5.26-16.73-7.86-29.2-.04-1.46-.27-2.82-.67-4.13l-.17-.55c-.07-.24-.15-.57-.24-.96-.5-2.88-.87-5.42-1.11-7.74-.09-1.23-.16-2.29-.18-3.39-.02-1.74.02-3.34.13-4.89.11-1.62.3-3.32.58-5.1.25-1.63.61-3.3 1.04-4.94.37-1.36.87-3.11 1.48-4.65l.09-.26c.18-.51.4-1 .62-1.48l.28-.64c.16-.38.35-.74.53-1.09.13-.26.26-.51.39-.76.58-1.09 1.23-2.15 2.01-3.25l.13-.2c.17-.27.38-.5.57-.73l.4-.5c.29-.38.61-.7.9-1.02l.21-.24c.29-.35.72-.73 1.18-1.13l.46-.41c.49-.4.95-.73 1.34-1.01l.07-.06c.29-.18.53-.32.74-.44l.69-.4c4.54-2.61 8.15-6.5 10.44-11.27 5.49-11.45 1.72-25.46-8.76-32.61-1.07-.72-2.21-1.38-3.42-1.96-1.44-.69-2.93-1.24-4.46-1.65l-.05-.03-1.46-.35h-.06c-1.7-.35-3.42-.52-5.15-.52-9.91 0-19.09 5.77-23.38 14.69l-3.1 6.46c-.41.95-.88 2.06-1.39 3.28l-.53 1.25-.43 1.16c-.53 1.44-1.14 3.08-1.65 4.78-.36 1.11-.73 2.31-1.05 3.63-.09.35-.18.71-.28 1.07-.22.81-.43 1.63-.61 2.46-.55 2.42-1.02 4.99-1.41 7.66-.08.56-.15 1.11-.22 1.64l-.81 9.42.01.54.03.24v.07c-.05 1.1-.05 2.21-.05 3.31v.8c.01.82.02 1.64.04 2.45-3.39-2.09-7.3-4.43-11.72-7.01-18.76-10.94-34.45-16.5-46.63-16.5-20.67 0-28.45 16.1-28.63 26.92-.09 5.49 1.44 9.92 3.18 13.15-5.63 3.03-9.71 7.14-12.16 12.28-5.11 10.71-.92 21.35-.43 22.53 4.25 10.08 12.64 13.71 14.66 14.46 1.27.55 2.53 1.06 3.77 1.52-3.25 9.07-1.28 18.19 5.78 25.42 2.04 2.09 3.79 3.27 4.13 3.48 4.99 3.21 9.94 3.89 13.22 3.89 2.47 0 4.32-.38 5.12-.58 10.25-2 17.84-5.54 22.67-10.57 7.77 3.97 16.35 6.05 25.15 6.05 2.69 0 5.39-.2 8.05-.6 1.62 1.31 3.34 2.64 5.13 3.89l3.96 2.91c1.03.76 2.2 1.63 3.39 2.35l8 5.16c9.9 5.96 20.34 11.12 31.03 15.33l3.22 1.26 2.85-1.96c12.47-8.57 23.02-19.38 31.35-32.11l5.26-8.04-9.42-1.91z"/><path fill="#5B0" d="M214.476 172.947l-2.93-.584c-2.037-.4-5.112-1.008-5.74-1.177-10.618-3.07-21.074-7.385-31.077-12.822l-6.69-3.917c-.16-.082-.32-.177-.48-.275-1.44-4.467-5.26-16.727-7.86-29.2-.04-1.463-.26-2.82-.67-4.128l-.17-.545c-.07-.24-.15-.57-.24-.96-.5-2.88-.87-5.42-1.11-7.74-.09-1.23-.16-2.29-.17-3.39-.02-1.74.02-3.34.13-4.89.11-1.61.3-3.32.58-5.1.25-1.63.6-3.3 1.04-4.94.37-1.36.87-3.12 1.48-4.66l.09-.26c.18-.51.4-1 .62-1.48l.28-.64c.16-.38.35-.74.53-1.09.13-.26.26-.51.39-.76.58-1.09 1.23-2.15 2.01-3.25l.13-.2c.17-.27.38-.5.57-.74l.4-.5c.29-.37.61-.7.9-1.02l.21-.24c.29-.35.72-.73 1.18-1.13l.45-.41c.49-.4.95-.73 1.33-1.01l.07-.05c.28-.18.53-.32.73-.44l.69-.4c4.54-2.61 8.16-6.5 10.44-11.26 5.48-11.45 1.72-25.46-8.77-32.6-1.07-.73-2.21-1.39-3.42-1.97-1.43-.69-2.93-1.24-4.45-1.65l-.05-.02-1.47-.34h-.06c-1.7-.35-3.42-.52-5.15-.52-9.92 0-19.09 5.77-23.38 14.69l-3.1 6.46c-.41.95-.88 2.05-1.39 3.28l-.52 1.24-.43 1.16c-.53 1.44-1.14 3.08-1.65 4.78-.36 1.1-.74 2.31-1.05 3.63-.09.35-.19.71-.28 1.07-.22.81-.43 1.63-.6 2.46-.55 2.42-1.02 4.99-1.41 7.66-.08.56-.15 1.11-.22 1.64l-.8 9.42.01.54.03.24V85c-.06 1.104-.05 2.21-.05 3.31v.79c0 .825.02 1.643.04 2.455-3.4-2.097-7.31-4.437-11.72-7.01C93 73.59 77.31 68.035 65.13 68.035c-20.675 0-28.45 16.1-28.63 26.92-.09 5.49 1.44 9.92 3.18 13.15-5.63 3.03-9.71 7.14-12.16 12.28-5.11 10.71-.92 21.35-.42 22.53 4.24 10.06 12.63 13.69 14.65 14.436 1.27.55 2.526 1.06 3.766 1.53-3.246 9.08-1.28 18.19 5.78 25.42 2.04 2.1 3.79 3.27 4.13 3.49 4.984 3.21 9.94 3.89 13.22 3.89 2.47 0 4.32-.38 5.12-.58 10.25-1.99 17.84-5.54 22.674-10.56 7.77 3.97 16.355 6.05 25.154 6.05 2.69 0 5.383-.2 8.042-.6 1.626 1.32 3.34 2.64 5.136 3.89l3.963 2.92c1.04.76 2.21 1.63 3.39 2.35l8.01 5.16c9.896 5.97 20.34 11.13 31.033 15.34l3.22 1.27 2.85-1.96c12.478-8.57 23.027-19.37 31.355-32.1l5.26-8.04-9.42-1.9z"/><path fill="#2AACE3" d="M65.795 155.966c.055.692.324 1.373.86 2.033l.005-.01c-.54-.66-.808-1.34-.86-2.03.688-.07 1.35-.17 1.99-.29-.64.12-1.304.22-1.995.29zm5.37-67.856c.24-.843.625-1.503 1.126-1.995-.5.492-.88 1.15-1.12 1.996zm-15.167 33.84c-.002.125.003.252.014.38-.012-.127-.016-.255-.014-.38z"/><path fill="#0291CA" d="M66.825 158.197l.003-.003c-.06-.065-.117-.134-.168-.2l-.005.005c.055.06.11.13.17.19zm.965-2.52c.688-.13 1.348-.29 1.97-.482-.624.19-1.282.35-1.97.483zm94.95-121.964h.018l-.013-.003-.004.003z"/><path fill="#FFF" d="M192 185.5l-52.5-38-4.75-42.5-20-1.25-16-15.64-32.955-8.61-7.795 51 9.79 45 13.71 1.25 12.99-6.103 18.01 1.603 28.5 4.5 39 20"/><path fill="#F7F7F7" d="M171.526 164.034c-2.268-1.332-4.464-2.62-6.578-3.857-1.09-.587-2.07-1.297-3.058-1.952-.046-.034-.094-.067-.147-.097l.172-.276c-.86-2.58-5.648-17.245-8.714-32.19.02-.98-.08-1.975-.4-2.957l-.04-.16-.05-.14-.07-.253c-.09-.34-.24-.877-.38-1.526-.5-2.878-.92-5.72-1.21-8.437-.09-1.24-.17-2.51-.19-3.9-.02-1.73.02-3.53.15-5.39.13-1.86.35-3.76.65-5.67.3-1.9.7-3.8 1.2-5.65.5-1.85 1.04-3.66 1.72-5.36.3-.87.69-1.68 1.04-2.48.34-.82.77-1.57 1.14-2.32.79-1.49 1.63-2.82 2.48-4.03.4-.62.87-1.15 1.3-1.68.42-.54.87-1.02 1.29-1.47.79-.93 1.68-1.64 2.39-2.29.76-.62 1.44-1.1 1.98-1.5.57-.36 1.04-.63 1.36-.81l.48-.28c3.29-1.89 6.05-4.75 7.82-8.43 4.2-8.76 1.24-19.1-6.55-24.41-.81-.55-1.66-1.04-2.56-1.48-1.28-.61-2.6-1.07-3.92-1.39h-.01c-8.69-2.06-17.92 2.12-21.95 10.49l-1.21 2.51-1.79 3.73c-.52 1.19-1.13 2.65-1.82 4.28-.6 1.66-1.32 3.52-1.94 5.56-.32 1.01-.65 2.07-.91 3.17-.27 1.1-.61 2.21-.84 3.37-.53 2.3-.97 4.72-1.32 7.18-.34 2.47-.62 5-.76 7.53-.04.63-.06 1.26-.1 1.9-.01.25-.01.51-.02.76-.03-.01-.05-.02-.07-.02 0 .02.02.21.05.46l-.02.7c-.06 1.26-.04 2.52-.04 3.77 0 1.26.05 2.51.08 3.74.07 1.23.12 2.45.2 3.66.18 2.4.38 4.76.65 7.01.03.27.07.5.1.78-4.06-2.97-11.17-7.5-22.5-14.11-64.75-37.81-65.47 4.89-65.47 4.89-.15 9.13 5.7 14.43 5.7 14.43.47.5.92.94 1.38 1.42-26.17 7.61-16.99 29.48-16.99 29.48 3.54 8.41 11.04 10.9 11.04 10.9 3.95 1.72 7.5 2.91 10.7 3.68-8.37 12.04-2.83 20.73 1.12 24.78 1.63 1.67 3 2.56 3 2.56 6.73 4.34 13.39 2.43 13.39 2.43 13.41-2.58 19.72-7.5 22.27-12.81 10.98 7.27 24.32 9.73 36.85 7.11 2.21 1.85 4.55 3.75 7.17 5.58 1.11.82 2.25 1.66 3.42 2.52 1.16.85 2.34 1.75 3.61 2.53 2.52 1.63 5.13 3.31 7.84 5.05 8.72 5.26 18.79 10.42 30.06 14.85 11.71-8.05 21.77-18.36 29.59-30.31-3.08-.62-8.2-1.6-9.19-1.89-12.42-3.59-23.26-8.39-32.47-13.4zM55.998 121.95c-.002.125.003.252.014.38-.012-.127-.016-.255-.014-.38zm11.792 33.73c-.64.12-1.302.218-1.99.288.052.69.32 1.372.86 2.027.052.067.108.136.168.2l-.003.004c-.06-.07-.115-.14-.17-.2-.536-.66-.805-1.34-.86-2.04.69-.07 1.356-.17 1.995-.29.688-.14 1.346-.3 1.97-.49-.623.19-1.282.35-1.97.48zm26.7 14.97c6.025-14.2-2.19-19.578-2.19-19.578-11.655 4.516-18.464 2.366-18.464 2.366 38.94-.433 18.465-25.174 18.465-25.174-13.37 2.153-26.5-7.802-26.5-7.802 22.51 12.204 30.41 4.147 30.41 4.147 21.95-26.04-25.04-36.5-25.04-36.5.24-.85.63-1.51 1.13-2-.5.49-.88 1.15-1.12 1.99l21.13 3.63c6.77 1.16 8.86 3.33 8.86 3.33-3.01-1.35-8.85-1.45-8.85-1.45 24.28 14.2 3.05 34.42 3.05 34.42 9.68 10.54.43 22.37.43 22.37 5.38 11.61-1.29 20.22-1.29 20.22zm33.56-58.305l3.23-5.485v5.808s-33.564 21.946-7.747 53.896c0 0-31.948-30.983 4.517-54.22zm19.366 61.638l30.657 14.2c0 .002-19.04-6.13-30.657-14.2z"/><path fill="#CCC" d="M95.35 128.048s21.225-20.222-3.05-34.42c0 0 5.85.093 8.857 1.442 0 0-2.09-2.168-8.86-3.33h-.003l-21.13-3.63s46.99 10.465 25.047 36.497c0 0-7.9 8.057-30.41-4.147 0 0 13.13 9.955 26.5 7.802 0 0 20.48 24.74-18.46 25.174 0 0 6.81 2.15 18.47-2.366 0 0 8.22 5.377 2.19 19.577 0 0 6.67-8.606 1.29-20.224 0 0 9.25-11.83-.43-22.375zm35.93-15.382v-5.808l-3.23 5.485c-36.464 23.236-4.516 54.22-4.516 54.22-25.818-31.952 7.746-53.897 7.746-53.897zm46.793 75.516l-30.657-14.2c11.616 8.07 30.657 14.2 30.657 14.2z"/></svg>