<?xml version="1.0" encoding="utf-8"?>
<!-- Generator: Adobe Illustrator 16.0.0, SVG Export Plug-In . SVG Version: 6.00 Build 0)  -->
<!DOCTYPE svg PUBLIC "-//W3C//DTD SVG 1.1//EN" "http://www.w3.org/Graphics/SVG/1.1/DTD/svg11.dtd">
<svg version="1.1" id="Layer_1" xmlns="http://www.w3.org/2000/svg" xmlns:xlink="http://www.w3.org/1999/xlink" x="0px" y="0px"
	 width="250px" height="250px" viewBox="0 0 250 250" enable-background="new 0 0 250 250" xml:space="preserve">
<path opacity="0.15" fill="#020202" d="M220.721,124.356c0-23.303-8.553-44.61-22.688-60.953c-1.303,0.264-2.354,0.488-2.742,0.602
	c-8.823,2.551-16.812,5.742-23.953,9.181c0.001-0.001,0.001-0.002,0.001-0.003c7.141-3.439,15.129-6.63,23.952-9.182
	c0.389-0.112,1.439-0.335,2.742-0.601c-9.297-10.746-21.006-19.347-34.283-24.962c-0.002,0.001-0.004,0.002-0.006,0.003
	c-11.145-4.706-23.394-7.31-36.252-7.31c-51.485,0-93.225,41.738-93.225,93.225c0,42.15,27.977,77.762,66.37,89.294l8.758,17.819
	l0.216-0.084l0.451,0.917l1.281-0.498l1.719,3.498l103.107-40.11l-7.614-24.767C216.296,156.837,220.721,141.113,220.721,124.356z
	 M124.528,153.167c0.017-0.006,0.042-0.013,0.067-0.02c0,0.001,0,0.001,0,0.002c-0.025,0.009-0.051,0.014-0.068,0.021
	L124.528,153.167z M126.976,170.879c-0.093-0.368-0.188-0.734-0.263-1.109c-0.074-0.32-0.133-0.656-0.202-0.98
	c0.069,0.323,0.128,0.659,0.202,0.979C126.787,170.144,126.883,170.511,126.976,170.879z M125.688,164.373
	c-0.079-0.493-0.17-0.977-0.241-1.475c-0.084-0.613-0.151-1.236-0.227-1.855c0.075,0.617,0.143,1.239,0.227,1.851
	C125.518,163.394,125.608,163.879,125.688,164.373z M159.09,166.272c-0.084-0.062-0.19-0.141-0.281-0.207
	c0.092,0.066,0.198,0.146,0.283,0.207c0.027,0.018,0.052,0.032,0.078,0.049C159.141,166.303,159.119,166.291,159.09,166.272z
	 M154.918,162.652c-0.152-0.164-0.31-0.336-0.467-0.51c0.158,0.174,0.315,0.347,0.471,0.512c0.188,0.222,0.382,0.43,0.578,0.628
	C155.303,163.084,155.107,162.875,154.918,162.652z M146.715,113.516c0.02,0.938-0.08,1.89-0.387,2.829l-0.043,0.153l-0.057,0.133
	l-0.004,0.015c0-0.001,0-0.003,0-0.004l0.004-0.013l0.053-0.133l0.045-0.153c0.307-0.939,0.406-1.891,0.387-2.829
	c0.803-3.911,1.729-7.801,2.667-11.44c0.003-0.007,0.006-0.015,0.008-0.022C148.447,105.698,147.52,109.596,146.715,113.516z
	 M146.222,116.658l-0.058,0.216c-0.094,0.326-0.23,0.839-0.371,1.46c-0.48,2.752-0.883,5.471-1.158,8.067
	c-0.086,1.188-0.166,2.402-0.186,3.728c-0.02,1.647,0.016,3.374,0.139,5.155c0.093,1.36,0.253,2.748,0.446,4.14
	c-0.194-1.394-0.355-2.782-0.448-4.144c-0.123-1.779-0.158-3.507-0.139-5.154c0.02-1.326,0.102-2.541,0.188-3.727
	c0.275-2.596,0.678-5.315,1.158-8.068c0.141-0.621,0.277-1.135,0.371-1.46l0.058-0.217
	C146.222,116.655,146.222,116.656,146.222,116.658z M155.049,82.736c-0.596,1.789-3.168,9.655-5.654,19.292
	c-0.003,0.007-0.006,0.015-0.008,0.022C151.874,92.404,154.447,84.528,155.049,82.736L155.049,82.736z M77.669,106.497
	c0,0-0.001,0-0.001,0c-0.032-0.059-4.778-8.974-6.402-19.091C72.896,97.555,77.669,106.497,77.669,106.497z M125.514,133.921
	c0,0.001,0,0.002,0,0.004c-0.052,0.055-30.628,32.753-50.172,11.759c0,0,0.001,0,0.002,0.001
	C94.904,166.691,125.514,133.921,125.514,133.921z M133.695,189.007c0,0-0.625-1.299-1.711-3.566
	c-0.502-1.145-1.08-2.534-1.738-4.101c-0.093-0.256-0.191-0.523-0.288-0.789c0.097,0.265,0.195,0.531,0.288,0.786
	c0.658,1.564,1.236,2.954,1.738,4.102c1.086,2.265,1.711,3.565,1.711,3.565l0.637,1.322h-0.001L133.695,189.007z M171.336,73.188
	c-2.467,1.188-4.836,2.405-7.1,3.636c-2.168,1.274-4.268,2.505-6.289,3.688c-1.043,0.562-1.979,1.241-2.924,1.867
	c-0.043,0.033-0.09,0.064-0.139,0.093l0.01,0.015l-0.012-0.018c0.051-0.03,0.096-0.062,0.141-0.093
	c0.945-0.626,1.881-1.305,2.924-1.867c2.021-1.183,4.121-2.414,6.289-3.688c2.264-1.231,4.633-2.448,7.1-3.636
	C171.336,73.186,171.336,73.187,171.336,73.188z M64.091,122.638c0.438,1.522,0.945,2.506,0.945,2.506
	c2.726,9.625,6.282,16.217,10.306,20.538c-0.001,0-0.001,0-0.002-0.001c-4.022-4.32-7.578-10.911-10.303-20.533
	C65.037,125.148,64.529,124.162,64.091,122.638z"/>
<path opacity="0.15" d="M121.092,97.623c-0.015-0.004-0.026-0.008-0.039-0.012C121.065,97.615,121.077,97.619,121.092,97.623
	L121.092,97.623z M122.016,116.902c0,0,0,0.001,0,0.001c0,0-14.119-15.116-29.325-18.274
	C107.87,101.781,121.964,116.847,122.016,116.902z M74.034,144.404c-3.833-0.53-6.677-1.501-8.777-2.729
	c2.101,1.228,4.945,2.198,8.778,2.728L74.034,144.404z M155.063,50.05c-0.253-0.101-0.503-0.22-0.758-0.309
	C154.56,49.83,154.81,49.949,155.063,50.05z M122.473,188.605c-30.93,7.339-45.474,2.958-51.571-5.386
	c6.099,8.342,20.642,12.722,51.569,5.384c0.625,0.523,1.266,1.052,1.916,1.581C123.736,189.656,123.098,189.129,122.473,188.605z
	 M128.177,193.115c0.387,0.281,0.768,0.563,1.167,0.842c0.281,0.207,0.58,0.427,0.865,0.638c-0.284-0.21-0.583-0.43-0.863-0.636
	C128.945,193.68,128.563,193.396,128.177,193.115z M134.922,198.02c0.384,0.265,0.762,0.534,1.164,0.781
	c0.571,0.37,1.164,0.752,1.745,1.127c-0.58-0.375-1.172-0.756-1.743-1.125C135.686,198.555,135.306,198.285,134.922,198.02z
	 M143.602,203.65c-0.614-0.396-1.207-0.778-1.812-1.168c0.604,0.389,1.196,0.771,1.81,1.166c0.676,0.407,1.382,0.812,2.074,1.218
	C144.982,204.461,144.276,204.057,143.602,203.65z M154.54,170.467c-1.047-0.564-1.985-1.244-2.935-1.871
	c-0.045-0.033-0.09-0.064-0.141-0.094l0.165-0.266c-0.825-2.475-5.415-16.535-8.356-30.867c0.018-0.939-0.08-1.896-0.389-2.836
	l-0.045-0.154l-0.054-0.133l-0.065-0.244c-0.094-0.326-0.229-0.842-0.371-1.465c-0.48-2.76-0.885-5.484-1.16-8.09
	c-0.088-1.188-0.17-2.406-0.188-3.738c-0.021-1.651,0.015-3.381,0.14-5.168c0.119-1.781,0.332-3.606,0.623-5.432
	c0.282-1.82,0.672-3.641,1.145-5.414c0.48-1.77,0.999-3.504,1.65-5.133c0.289-0.827,0.658-1.605,0.996-2.374
	c0.325-0.778,0.737-1.5,1.092-2.22c0.754-1.424,1.567-2.705,2.381-3.859c0.383-0.589,0.834-1.104,1.242-1.609
	c0.399-0.517,0.828-0.974,1.231-1.408c0.757-0.891,1.608-1.568,2.285-2.188c0.722-0.594,1.375-1.057,1.897-1.44
	c0.549-0.346,1-0.6,1.302-0.778l0.456-0.265c3.156-1.811,5.8-4.558,7.494-8.084c4.024-8.401,1.184-18.317-6.283-23.404
	c-0.772-0.522-1.589-0.995-2.449-1.41c0.001,0,0.001,0,0.001,0c0.86,0.416,1.679,0.888,2.45,1.411
	c7.467,5.087,10.309,15.002,6.283,23.403c-1.694,3.529-4.338,6.275-7.493,8.086l-0.457,0.264c-0.302,0.18-0.753,0.434-1.302,0.779
	c-0.522,0.384-1.178,0.847-1.897,1.439c-0.677,0.621-1.528,1.299-2.285,2.189c-0.403,0.434-0.832,0.891-1.231,1.408
	c-0.408,0.506-0.859,1.02-1.242,1.608c-0.813,1.155-1.627,2.437-2.381,3.86c-0.354,0.718-0.766,1.439-1.092,2.219
	c-0.338,0.768-0.707,1.547-0.996,2.374c-0.651,1.629-1.17,3.364-1.65,5.133c-0.473,1.772-0.861,3.595-1.145,5.414
	c-0.291,1.824-0.504,3.649-0.623,5.433c-0.125,1.785-0.159,3.517-0.14,5.168c0.019,1.33,0.101,2.549,0.188,3.738
	c0.275,2.604,0.68,5.33,1.16,8.09c0.142,0.623,0.277,1.139,0.371,1.463l0.065,0.246l0.054,0.133l0.045,0.152
	c0.309,0.941,0.405,1.896,0.389,2.836c2.941,14.332,7.531,28.395,8.357,30.867l-0.166,0.266c0.051,0.029,0.096,0.063,0.142,0.094
	c0.948,0.627,1.887,1.309,2.934,1.871c2.026,1.188,4.132,2.422,6.308,3.699c1.814,0.987,3.71,1.962,5.655,2.924
	c-1.946-0.962-3.843-1.937-5.657-2.924C158.672,172.889,156.567,171.652,154.54,170.467z"/>
<polygon fill="#2AACE3" points="80.867,100.838 80.867,100.838 80.869,100.838 "/>
<path fill="#2AACE3" d="M46.061,129.811c-0.002,0.117,0.002,0.238,0.014,0.361C46.063,130.051,46.059,129.928,46.061,129.811z"/>
<path fill="#0291CA" d="M148.426,45.191c0,0,0.008,0.001,0.014,0.001l-0.012-0.003L148.426,45.191z"/>
<g>
	<polygon fill="#2AACE3" points="83.472,143.957 83.469,143.957 83.469,143.957 	"/>
	<path fill="#2AACE3" d="M48.774,114.704c-0.011,0.121-0.015,0.243-0.014,0.361C48.759,114.947,48.763,114.824,48.774,114.704z"/>
	<path fill="#0291CA" d="M150.842,199.448l0.01-0.002c-0.004,0-0.014,0-0.014,0L150.842,199.448z"/>
	<g>
		<path fill="#FF7777" d="M134.547,50.254c-1.223,0.751-2.344,1.609-3.453,2.424c-1.119,0.817-2.209,1.625-3.27,2.405
			c-2.512,1.751-4.744,3.57-6.856,5.339c-82.247-19.515-48.299,44.079-48.299,44.079c-20.761,2.868-12.632,18.647-12.632,18.647
			c15.979,56.419,60.478,8.774,60.478,8.774c-0.031,0.264-0.069,0.486-0.099,0.746c-0.258,2.153-0.448,4.404-0.62,6.704
			c-0.073,1.149-0.126,2.322-0.19,3.502c-0.034,1.178-0.077,2.366-0.079,3.573c0,1.197-0.021,2.399,0.036,3.608
			c0.007,0.227,0.009,0.444,0.016,0.67c-0.029,0.244-0.051,0.423-0.051,0.443c0.018-0.007,0.042-0.012,0.069-0.021
			c0.006,0.246,0.011,0.487,0.02,0.731c0.038,0.609,0.064,1.211,0.1,1.813c0.133,2.42,0.406,4.838,0.73,7.204
			c0.338,2.357,0.761,4.666,1.266,6.871c0.22,1.104,0.545,2.172,0.802,3.225c0.252,1.045,0.565,2.056,0.878,3.025
			c0.594,1.953,1.277,3.727,1.854,5.32c0.658,1.566,1.236,2.956,1.738,4.101c1.086,2.268,1.711,3.566,1.711,3.566l1.158,2.404
			c3.846,8.008,12.676,11.999,20.99,10.037c0,0,0.002,0,0.006,0c1.275-0.305,2.527-0.739,3.756-1.325
			c0.861-0.416,1.674-0.885,2.445-1.408c7.445-5.072,10.279-14.96,6.266-23.337c-1.689-3.519-4.324-6.259-7.473-8.064l-0.455-0.262
			c-0.299-0.178-0.752-0.433-1.297-0.779c-0.523-0.38-1.176-0.843-1.895-1.435c-0.672-0.619-1.523-1.296-2.275-2.184
			c-0.406-0.433-0.83-0.889-1.23-1.402c-0.408-0.507-0.859-1.017-1.24-1.606c-0.811-1.151-1.623-2.43-2.371-3.849
			c-0.354-0.718-0.766-1.436-1.09-2.212c-0.338-0.767-0.705-1.544-0.994-2.368c-0.65-1.624-1.168-3.354-1.648-5.119
			c-0.467-1.768-0.857-3.584-1.139-5.398c-0.289-1.818-0.5-3.64-0.621-5.416c-0.123-1.781-0.158-3.508-0.139-5.155
			c0.02-1.325,0.1-2.54,0.186-3.727c0.275-2.597,0.678-5.315,1.158-8.067c0.141-0.621,0.277-1.134,0.371-1.46l0.064-0.242
			l0.057-0.133l0.043-0.153c0.307-0.938,0.406-1.891,0.387-2.829c2.932-14.29,7.512-28.313,8.334-30.78l-0.164-0.264
			c0.049-0.029,0.096-0.06,0.139-0.093c0.945-0.626,1.881-1.305,2.924-1.867c2.021-1.183,4.121-2.414,6.289-3.688
			c8.814-4.797,19.182-9.386,31.055-12.819c0.389-0.114,1.439-0.338,2.742-0.602c14.135,16.343,22.688,37.65,22.688,60.953
			c0,51.487-41.74,93.228-93.229,93.228c-51.485,0-93.225-41.741-93.225-93.228c0-51.486,41.74-93.225,93.225-93.225
			c12.862,0,25.114,2.605,36.26,7.313c-6.029,2.868-11.613,5.903-16.713,8.979C139.455,47.085,136.959,48.697,134.547,50.254z"/>
		<path fill="#FFFFFF" d="M193.033,61.4c-1.303,0.265-2.354,0.489-2.742,0.601c-11.873,3.434-22.24,8.024-31.055,12.82
			c-2.168,1.274-4.268,2.505-6.289,3.688c-1.043,0.562-1.979,1.241-2.924,1.867c-0.045,0.031-0.09,0.063-0.141,0.093l0.166,0.264
			c-0.826,2.467-5.402,16.49-8.336,30.781c0.02,0.938-0.08,1.889-0.387,2.829l-0.045,0.153l-0.053,0.133l-0.064,0.242
			c-0.094,0.325-0.23,0.839-0.371,1.46c-0.48,2.752-0.883,5.472-1.158,8.068c-0.086,1.185-0.168,2.4-0.188,3.726
			c-0.02,1.647,0.016,3.375,0.139,5.154c0.121,1.776,0.334,3.598,0.623,5.417c0.281,1.815,0.672,3.632,1.139,5.398
			c0.48,1.766,0.998,3.495,1.648,5.12c0.287,0.824,0.656,1.6,0.992,2.365c0.326,0.778,0.736,1.497,1.09,2.213
			c0.75,1.421,1.563,2.699,2.373,3.851c0.381,0.587,0.832,1.099,1.238,1.604c0.4,0.517,0.826,0.973,1.229,1.405
			c0.756,0.888,1.605,1.564,2.279,2.184c0.719,0.59,1.371,1.053,1.893,1.437c0.547,0.345,0.996,0.597,1.299,0.775l0.455,0.264
			c3.146,1.806,5.783,4.545,7.473,8.062c4.014,8.38,1.18,18.268-6.266,23.34c-0.771,0.521-1.584,0.992-2.445,1.408
			c-1.229,0.585-2.484,1.021-3.756,1.322c-0.006,0-0.006,0-0.006,0c-8.316,1.962-17.146-2.026-20.992-10.038l-1.156-2.401
			c0,0-0.625-1.301-1.711-3.565c-0.502-1.147-1.08-2.537-1.738-4.102c-0.578-1.591-1.262-3.366-1.855-5.319
			c-0.311-0.97-0.626-1.98-0.877-3.025c-0.256-1.054-0.583-2.121-0.801-3.225c-0.507-2.205-0.93-4.514-1.266-6.874
			c-0.326-2.363-0.599-4.781-0.731-7.202c-0.035-0.602-0.061-1.205-0.1-1.813c-0.009-0.245-0.015-0.487-0.02-0.73
			c-0.025,0.007-0.052,0.014-0.069,0.02c0-0.02,0.022-0.201,0.05-0.444c-0.005-0.224-0.007-0.442-0.015-0.668
			c-0.058-1.209-0.036-2.411-0.036-3.609c0.002-1.209,0.045-2.395,0.079-3.574c0.065-1.181,0.117-2.349,0.19-3.5
			c0.172-2.3,0.362-4.552,0.621-6.704c0.028-0.261,0.066-0.484,0.098-0.746c0,0-44.499,47.645-60.478-8.776
			c0,0-8.129-15.779,12.633-18.648c0,0-33.949-63.594,48.299-44.078c2.112-1.769,4.344-3.587,6.854-5.338
			c1.061-0.779,2.15-1.588,3.27-2.405c1.111-0.817,2.232-1.673,3.455-2.424c2.41-1.558,4.904-3.167,7.49-4.833
			c5.1-3.075,10.684-6.112,16.713-8.979C172.027,42.053,183.736,50.654,193.033,61.4z"/>
	</g>
	<path fill="#E5E5E5" d="M121.802,122.829c0,0-9.835-36.68,8.21-54.36l-15.266,10.052c0,0,0.993,12.431-5.319,16.417
		c0,0,10.78,15.142,7.493,26.617L121.802,122.829z"/>
	<path fill="#E5E5E5" d="M120.244,63.777l9.768,4.691l-11.998,12.84l-3.268-3.665l-2.232-3.427
		C112.514,74.216,117.135,73.95,120.244,63.777z"/>
	<path fill="#CCCCCC" d="M95.38,141.796h-8.607c0,0,46.381-11.478,23.43-43.512c0,0-13.417-3.732-31.559,4.064
		c0,0,10.876-8.368,30.781-7.411c0,0,9.641-12.91-3.448-23.19H78.645l3.348-1.913c0,0,49.488-10.28,31.079,25.581
		c0,0,20.321,35.143-16.496,44.469L95.38,141.796z"/>
</g>
<g>
	<polygon opacity="0.15" points="95.721,208.192 108.063,233.303 211.17,193.192 201.76,162.585 	"/>
	<polygon opacity="0.15" points="92.054,204.359 104.396,229.47 207.503,189.359 198.093,158.752 	"/>
	<polygon fill="#FFFFFF" points="92.721,205.192 105.063,230.303 208.17,190.192 198.76,159.585 	"/>
	<g>
		<path fill="#00ADEE" d="M99.748,207.908l6.157-2.995c0.34-0.162,0.655-0.312,0.946-0.447c0.29-0.137,0.558-0.259,0.8-0.367
			c0.249-0.096,0.474-0.186,0.676-0.27c0.201-0.086,0.383-0.158,0.543-0.22s0.316-0.112,0.469-0.153
			c0.151-0.041,0.296-0.078,0.433-0.114c0.151-0.041,0.295-0.07,0.431-0.089c0.135-0.018,0.267-0.035,0.395-0.05
			c0.227-0.02,0.445-0.027,0.655-0.024c0.21,0.004,0.415,0.027,0.614,0.068c0.201,0.041,0.395,0.1,0.583,0.18
			c0.188,0.078,0.377,0.166,0.563,0.262c0.172,0.102,0.338,0.219,0.497,0.35c0.159,0.132,0.301,0.274,0.427,0.428
			c0.145,0.162,0.277,0.336,0.399,0.524s0.234,0.396,0.338,0.624c0.081,0.17,0.151,0.335,0.214,0.495
			c0.061,0.161,0.107,0.327,0.139,0.499c0.033,0.172,0.055,0.338,0.066,0.502c0.012,0.162,0.009,0.33-0.009,0.504
			c-0.009,0.154-0.032,0.313-0.069,0.479c-0.037,0.164-0.092,0.327-0.164,0.488c-0.059,0.156-0.133,0.313-0.222,0.473
			c-0.091,0.16-0.188,0.318-0.296,0.477c0.236-0.039,0.461-0.054,0.674-0.043c0.213,0.01,0.42,0.037,0.619,0.078
			c0.208,0.021,0.401,0.068,0.58,0.143c0.18,0.074,0.352,0.154,0.519,0.241c0.173,0.102,0.333,0.216,0.481,0.343
			c0.148,0.128,0.289,0.275,0.42,0.443c0.145,0.162,0.279,0.34,0.404,0.535c0.124,0.195,0.238,0.406,0.342,0.635
			c0.117,0.223,0.215,0.445,0.291,0.667s0.139,0.44,0.188,0.655c0.048,0.216,0.08,0.43,0.093,0.643
			c0.015,0.211,0.019,0.419,0.012,0.622c-0.021,0.208-0.052,0.413-0.094,0.612c-0.04,0.199-0.099,0.397-0.175,0.594
			c-0.076,0.195-0.167,0.385-0.273,0.567c-0.105,0.183-0.225,0.365-0.355,0.549c-0.088,0.118-0.183,0.232-0.281,0.346
			c-0.1,0.112-0.211,0.226-0.335,0.341c-0.109,0.107-0.229,0.212-0.358,0.311c-0.129,0.1-0.266,0.202-0.409,0.307
			c-0.145,0.105-0.312,0.215-0.503,0.329c-0.189,0.114-0.408,0.243-0.654,0.388c-0.252,0.129-0.527,0.271-0.828,0.428
			c-0.3,0.156-0.627,0.318-0.98,0.486l-6.676,3.217L99.748,207.908z M109.329,210.682c0.17-0.081,0.324-0.161,0.462-0.238
			s0.257-0.159,0.356-0.249c0.121-0.078,0.215-0.16,0.283-0.244c0.068-0.086,0.127-0.171,0.178-0.257
			c0.043-0.065,0.073-0.149,0.094-0.249s0.029-0.199,0.025-0.297c-0.02-0.094-0.041-0.194-0.065-0.302
			c-0.024-0.108-0.069-0.226-0.134-0.351c-0.059-0.111-0.123-0.216-0.194-0.314s-0.146-0.184-0.222-0.254
			c-0.078-0.071-0.16-0.123-0.248-0.156s-0.177-0.059-0.267-0.074c-0.104-0.011-0.222-0.004-0.354,0.021s-0.289,0.064-0.471,0.116
			c-0.175,0.067-0.378,0.148-0.609,0.245c-0.23,0.096-0.475,0.201-0.732,0.315l-1.352,0.665l1.267,2.603L109.329,210.682z
			 M112.272,216.107c0.178-0.102,0.344-0.194,0.496-0.276c0.152-0.084,0.285-0.172,0.4-0.266c0.129-0.1,0.236-0.194,0.318-0.284
			c0.083-0.091,0.15-0.179,0.2-0.265c0.06-0.106,0.101-0.209,0.12-0.309c0.021-0.1,0.029-0.199,0.025-0.298
			c-0.01-0.114-0.028-0.228-0.056-0.343c-0.026-0.115-0.072-0.236-0.138-0.361c-0.064-0.126-0.132-0.238-0.203-0.336
			c-0.07-0.1-0.145-0.184-0.222-0.254c-0.092-0.066-0.183-0.119-0.273-0.16s-0.188-0.066-0.292-0.076
			c-0.11-0.025-0.229-0.03-0.357-0.016c-0.128,0.016-0.268,0.044-0.42,0.085c-0.137,0.035-0.289,0.085-0.457,0.149
			c-0.168,0.063-0.352,0.142-0.551,0.234l-2.202,1.063l1.363,2.792L112.272,216.107z"/>
		<path fill="#00ADEE" d="M119.222,210.153c-0.13-0.453-0.209-0.891-0.236-1.314c-0.049-0.434-0.043-0.857,0.017-1.273
			s0.165-0.819,0.317-1.211c0.146-0.406,0.338-0.79,0.578-1.148c0.24-0.359,0.516-0.697,0.829-1.018
			c0.327-0.325,0.694-0.624,1.101-0.896c0.407-0.272,0.857-0.526,1.352-0.765c0.48-0.233,0.955-0.422,1.427-0.568
			c0.472-0.146,0.931-0.245,1.378-0.299c0.448-0.053,0.885-0.061,1.309-0.021c0.425,0.039,0.845,0.122,1.261,0.248
			c0.401,0.131,0.784,0.303,1.149,0.516c0.365,0.212,0.701,0.459,1.01,0.744c0.314,0.298,0.606,0.639,0.877,1.02
			c0.271,0.383,0.518,0.799,0.738,1.249c0.229,0.466,0.406,0.924,0.537,1.376c0.13,0.451,0.209,0.891,0.236,1.314
			c0.048,0.433,0.042,0.857-0.018,1.273c-0.059,0.414-0.162,0.826-0.308,1.232c-0.167,0.398-0.364,0.777-0.594,1.141
			s-0.501,0.705-0.813,1.025c-0.334,0.311-0.702,0.605-1.105,0.885c-0.404,0.278-0.846,0.534-1.326,0.768
			c-0.494,0.238-0.973,0.429-1.438,0.571c-0.463,0.144-0.919,0.241-1.367,0.295c-0.447,0.054-0.887,0.062-1.319,0.025
			c-0.432-0.036-0.848-0.12-1.249-0.251c-0.416-0.127-0.807-0.296-1.172-0.508c-0.364-0.213-0.704-0.467-1.018-0.766
			c-0.314-0.299-0.607-0.639-0.877-1.021c-0.271-0.381-0.52-0.805-0.748-1.27C119.528,211.056,119.353,210.604,119.222,210.153z
			 M124.599,210.05c0.123,0.213,0.25,0.402,0.381,0.57c0.115,0.173,0.238,0.318,0.367,0.438c0.128,0.117,0.251,0.221,0.369,0.311
			c0.126,0.068,0.256,0.124,0.389,0.165c0.133,0.042,0.273,0.06,0.421,0.054c0.14,0.014,0.288-0.002,0.447-0.045
			c0.159-0.044,0.315-0.104,0.472-0.18c0.169-0.081,0.314-0.17,0.437-0.268c0.122-0.096,0.228-0.203,0.317-0.32
			c0.094-0.104,0.168-0.219,0.219-0.347c0.052-0.128,0.089-0.272,0.111-0.432c0.014-0.139,0.013-0.297-0.004-0.474
			c-0.018-0.178-0.059-0.371-0.121-0.582c-0.043-0.201-0.107-0.414-0.193-0.641c-0.087-0.227-0.195-0.465-0.324-0.717
			s-0.255-0.484-0.377-0.696c-0.123-0.213-0.25-0.403-0.381-0.571c-0.109-0.158-0.231-0.3-0.362-0.426
			c-0.132-0.125-0.261-0.223-0.387-0.291c-0.118-0.09-0.245-0.149-0.382-0.182c-0.138-0.03-0.281-0.043-0.429-0.037
			c-0.139-0.014-0.284,0-0.437,0.041c-0.15,0.041-0.312,0.102-0.48,0.184c-0.156,0.075-0.299,0.163-0.428,0.263
			c-0.129,0.099-0.241,0.2-0.336,0.303c-0.074,0.112-0.141,0.233-0.199,0.364s-0.096,0.267-0.109,0.406
			c-0.014,0.139-0.012,0.297,0.005,0.474c0.018,0.178,0.056,0.364,0.112,0.56c0.043,0.201,0.113,0.416,0.209,0.647
			s0.201,0.475,0.316,0.732C124.351,209.604,124.478,209.837,124.599,210.05z"/>
		<path fill="#00ADEE" d="M133.504,204.718c-0.13-0.452-0.209-0.891-0.237-1.314c-0.047-0.434-0.041-0.857,0.018-1.273
			c0.06-0.415,0.165-0.818,0.316-1.211c0.146-0.406,0.34-0.789,0.579-1.148c0.239-0.357,0.517-0.697,0.829-1.017
			c0.327-0.325,0.694-0.624,1.102-0.896c0.406-0.271,0.856-0.527,1.352-0.766c0.479-0.232,0.955-0.422,1.426-0.568
			c0.471-0.145,0.931-0.244,1.379-0.299c0.447-0.053,0.883-0.061,1.308-0.021c0.425,0.039,0.845,0.122,1.261,0.247
			c0.4,0.133,0.783,0.304,1.148,0.516c0.365,0.213,0.702,0.461,1.011,0.744c0.314,0.299,0.606,0.639,0.878,1.021
			c0.27,0.381,0.516,0.797,0.738,1.248c0.227,0.465,0.406,0.924,0.535,1.375c0.131,0.453,0.209,0.891,0.237,1.314
			c0.048,0.434,0.042,0.857-0.017,1.273c-0.06,0.416-0.162,0.826-0.309,1.232c-0.166,0.398-0.364,0.779-0.594,1.143
			c-0.23,0.363-0.501,0.704-0.814,1.023c-0.332,0.311-0.701,0.605-1.105,0.885c-0.402,0.279-0.846,0.535-1.324,0.768
			c-0.495,0.238-0.975,0.43-1.438,0.572c-0.465,0.143-0.92,0.241-1.367,0.295c-0.449,0.053-0.889,0.062-1.32,0.025
			c-0.432-0.037-0.848-0.12-1.249-0.252c-0.416-0.125-0.806-0.295-1.171-0.507s-0.705-0.468-1.02-0.767
			c-0.313-0.299-0.605-0.639-0.877-1.02c-0.271-0.383-0.52-0.807-0.746-1.271C133.811,205.621,133.634,205.17,133.504,204.718z
			 M138.882,204.614c0.123,0.213,0.248,0.403,0.38,0.57c0.116,0.174,0.237,0.319,0.366,0.438s0.252,0.223,0.369,0.311
			c0.127,0.069,0.257,0.125,0.389,0.166c0.134,0.041,0.273,0.059,0.422,0.053c0.139,0.014,0.289-0.001,0.447-0.045
			c0.158-0.043,0.316-0.104,0.471-0.179c0.17-0.081,0.315-0.171,0.438-0.267c0.122-0.098,0.228-0.204,0.316-0.322
			c0.096-0.102,0.168-0.218,0.22-0.346c0.052-0.129,0.089-0.272,0.112-0.432c0.014-0.139,0.012-0.297-0.006-0.475
			s-0.058-0.371-0.121-0.58c-0.043-0.201-0.107-0.416-0.193-0.642c-0.086-0.227-0.193-0.466-0.322-0.718
			c-0.13-0.251-0.256-0.482-0.379-0.695c-0.122-0.213-0.249-0.402-0.379-0.57c-0.111-0.158-0.232-0.301-0.363-0.426
			c-0.132-0.126-0.26-0.223-0.387-0.292c-0.117-0.089-0.245-0.149-0.383-0.181c-0.137-0.031-0.279-0.045-0.428-0.038
			c-0.139-0.014-0.284-0.001-0.436,0.04c-0.152,0.041-0.313,0.103-0.482,0.184c-0.154,0.076-0.297,0.164-0.427,0.264
			c-0.13,0.099-0.241,0.199-0.336,0.303c-0.074,0.112-0.141,0.233-0.2,0.365c-0.059,0.13-0.095,0.266-0.108,0.404
			c-0.015,0.139-0.013,0.297,0.005,0.475s0.055,0.363,0.112,0.559c0.043,0.201,0.112,0.418,0.208,0.648
			c0.098,0.23,0.203,0.475,0.317,0.732C138.633,204.171,138.759,204.402,138.882,204.614z"/>
		<path fill="#00ADEE" d="M144.527,190.818l4.42-2.159l2.485,5.148c0.047-0.186,0.105-0.361,0.175-0.53s0.144-0.326,0.222-0.473
			c0.092-0.152,0.186-0.301,0.281-0.446c0.096-0.145,0.194-0.279,0.299-0.402c0.117-0.128,0.24-0.254,0.369-0.378
			s0.265-0.239,0.408-0.344c0.145-0.104,0.295-0.204,0.451-0.298c0.157-0.092,0.32-0.18,0.49-0.261
			c0.184-0.087,0.359-0.166,0.523-0.237c0.166-0.07,0.338-0.133,0.52-0.185c0.166-0.047,0.333-0.081,0.5-0.103
			c0.168-0.021,0.332-0.039,0.495-0.051s0.321-0.014,0.475-0.005s0.31,0.024,0.47,0.047c0.15,0.044,0.3,0.087,0.45,0.13
			c0.149,0.043,0.306,0.101,0.467,0.174c0.121,0.053,0.247,0.119,0.376,0.195s0.255,0.166,0.378,0.27
			c0.118,0.089,0.232,0.191,0.343,0.309c0.111,0.116,0.217,0.239,0.316,0.369c0.114,0.123,0.23,0.275,0.35,0.455
			c0.119,0.182,0.246,0.387,0.385,0.619c0.119,0.223,0.25,0.469,0.395,0.74c0.146,0.271,0.297,0.568,0.453,0.893l2.793,5.759
			l-4.42,2.157l-2.793-5.758c-0.098-0.213-0.196-0.405-0.295-0.576c-0.098-0.172-0.197-0.322-0.297-0.451
			c-0.1-0.13-0.197-0.244-0.293-0.341c-0.095-0.098-0.193-0.169-0.294-0.214c-0.087-0.051-0.185-0.089-0.294-0.113
			c-0.109-0.025-0.222-0.033-0.334-0.023c-0.114,0.01-0.236,0.03-0.365,0.063c-0.13,0.033-0.266,0.085-0.405,0.154
			c-0.141,0.07-0.267,0.148-0.376,0.232c-0.11,0.082-0.206,0.174-0.285,0.271c-0.08,0.097-0.145,0.202-0.195,0.313
			c-0.049,0.11-0.094,0.224-0.134,0.34c-0.02,0.124-0.027,0.257-0.024,0.397c0.004,0.141,0.028,0.295,0.075,0.461
			c0.026,0.156,0.071,0.319,0.136,0.486c0.063,0.169,0.142,0.352,0.234,0.551l2.784,5.736l-4.429,2.137L144.527,190.818z"/>
		<path fill="#00ADEE" d="M170.561,180.085l4.464-2.176l1.543,3.199l-4.449,2.145L170.561,180.085z M172.655,184.403l4.463-2.176
			l5.385,11.117l-4.465,2.175L172.655,184.403z"/>
		<path fill="#00ADEE" d="M189.312,186.228c0.053,0.072,0.113,0.137,0.186,0.192c0.051,0.048,0.113,0.087,0.183,0.118
			c0.071,0.032,0.142,0.051,0.21,0.059c0.076,0.021,0.157,0.027,0.246,0.02c0.089-0.009,0.188-0.025,0.295-0.05
			c0.102-0.039,0.215-0.082,0.34-0.13c0.123-0.047,0.259-0.098,0.404-0.154c0.068-0.041,0.133-0.079,0.196-0.111
			s0.116-0.057,0.16-0.074c0.038-0.03,0.077-0.059,0.118-0.082c0.041-0.024,0.084-0.045,0.128-0.061l1.543,3.199
			c-0.12,0.078-0.246,0.152-0.38,0.219c-0.134,0.068-0.253,0.139-0.358,0.213c-0.125,0.064-0.248,0.127-0.367,0.189
			c-0.118,0.062-0.232,0.121-0.344,0.182c-0.111,0.059-0.22,0.115-0.323,0.172s-0.204,0.111-0.301,0.165
			c-0.117,0.045-0.224,0.094-0.32,0.147c-0.097,0.053-0.196,0.1-0.299,0.139c-0.348,0.182-0.678,0.328-0.986,0.438
			c-0.31,0.109-0.604,0.193-0.884,0.248c-0.273,0.072-0.526,0.109-0.759,0.114s-0.451-0.021-0.656-0.077
			c-0.186-0.047-0.37-0.126-0.555-0.239c-0.186-0.114-0.361-0.256-0.527-0.427c-0.165-0.172-0.325-0.373-0.48-0.607
			c-0.156-0.232-0.307-0.498-0.453-0.793l-2.704-5.592l-1.563,0.771l-1.241-2.537l1.563-0.771l-1.656-3.432l4.405-2.127l1.657,3.432
			l2.071-1.014l1.25,2.559l-2.08,0.992l2.145,4.449C189.213,186.069,189.259,186.155,189.312,186.228z"/>
		<path fill="#00ADEE" d="M190.835,177.284l-1.842-3.787l4.517-2.17l1.812,3.773l1.833,6.398l-2.449,1.209L190.835,177.284z
			 M194.314,184.386l4.43-2.137l2.006,4.152l-4.42,2.158L194.314,184.386z"/>
	</g>
</g>
<circle fill="#77CC00" cx="-432.234" cy="170.678" r="97.487"/>
<g id="Layer_2_1_">
</g>
<g id="Layer_2">
</g>
<polygon fill="#2AACE3" points="-473.04,148.089 -473.04,148.089 -473.038,148.089 "/>
<path fill="#2AACE3" d="M-509.335,178.3c-0.002,0.124,0.003,0.251,0.014,0.378C-509.333,178.552-509.337,178.424-509.335,178.3z"/>
<path fill="#0291CA" d="M-402.592,90.062c0,0,0.01,0.001,0.017,0.001l-0.013-0.004L-402.592,90.062z"/>
<path fill="#FFFFFF" d="M-361.336,233.788c-12.416-3.59-23.256-8.39-32.472-13.405c-2.268-1.332-4.463-2.619-6.577-3.857
	c-1.091-0.586-2.069-1.297-3.058-1.95c-0.047-0.033-0.095-0.066-0.147-0.099l0.172-0.274c-0.86-2.58-5.647-17.244-8.714-32.188
	c0.017-0.979-0.085-1.978-0.405-2.959l-0.046-0.16l-0.057-0.139l-0.069-0.255c-0.097-0.34-0.239-0.877-0.386-1.524
	c-0.502-2.879-0.924-5.722-1.211-8.438c-0.092-1.239-0.176-2.512-0.196-3.896c-0.021-1.724,0.017-3.526,0.146-5.392
	c0.125-1.856,0.348-3.763,0.649-5.664c0.295-1.897,0.701-3.797,1.194-5.646c0.502-1.847,1.041-3.653,1.721-5.354
	c0.302-0.86,0.688-1.674,1.038-2.476c0.341-0.813,0.771-1.564,1.139-2.313c0.786-1.483,1.636-2.819,2.483-4.024
	c0.398-0.614,0.869-1.149,1.294-1.679c0.419-0.538,0.864-1.016,1.286-1.469c0.789-0.928,1.677-1.635,2.382-2.281
	c0.753-0.618,1.435-1.104,1.979-1.503c0.571-0.359,1.043-0.626,1.357-0.813l0.477-0.274c3.291-1.888,6.047-4.752,7.813-8.431
	c4.198-8.761,1.235-19.101-6.552-24.405c-0.805-0.546-1.656-1.038-2.555-1.472c-1.285-0.612-2.599-1.069-3.928-1.384
	c-0.007,0-0.009-0.001-0.009-0.001c-8.695-2.052-17.927,2.121-21.948,10.496l-1.211,2.513c0,0-0.654,1.359-1.79,3.729
	c-0.524,1.197-1.128,2.65-1.817,4.287c-0.604,1.665-1.319,3.522-1.939,5.563c-0.326,1.014-0.654,2.071-0.918,3.165
	c-0.268,1.1-0.609,2.217-0.839,3.371c-0.528,2.306-0.972,4.722-1.323,7.187c-0.34,2.475-0.626,5.002-0.764,7.531
	c-0.037,0.631-0.065,1.262-0.104,1.897c-0.01,0.257-0.017,0.509-0.021,0.765c-0.028-0.008-0.055-0.015-0.073-0.021
	c0,0.021,0.024,0.211,0.054,0.465c-0.006,0.234-0.009,0.465-0.016,0.699c-0.061,1.266-0.038,2.521-0.038,3.773
	c0.003,1.264,0.048,2.506,0.083,3.738c0.068,1.232,0.123,2.456,0.199,3.659c0.179,2.405,0.379,4.761,0.648,7.013
	c0.031,0.271,0.069,0.504,0.103,0.777c0,0-46.532-49.823-63.242,9.178c0,0-8.5,16.5,13.21,19.5c0,0-35.5,66.5,50.507,46.094
	c2.21,1.849,4.543,3.75,7.168,5.582c1.109,0.813,2.251,1.66,3.418,2.515c1.163,0.854,2.337,1.75,3.614,2.535
	c2.521,1.629,5.131,3.313,7.833,5.055c8.724,5.261,18.788,10.419,30.058,14.854c11.711-8.047,21.774-18.357,29.588-30.306
	C-355.22,235.057-360.341,234.079-361.336,233.788z"/>
<path fill="#E5E5E5" d="M-432.955,170.182c0,0-10.286,38.355,8.584,56.846l-15.963-10.512c0,0,1.039-13-5.563-17.166
	c0,0,11.274-15.834,7.836-27.834L-432.955,170.182z"/>
<path fill="#E5E5E5" d="M-434.583,231.934l10.213-4.906l-12.546-13.428l-3.417,3.834l-2.333,3.582
	C-442.667,221.016-437.835,221.295-434.583,231.934z"/>
<path fill="#CCCCCC" d="M-460.583,150.35h-9c0,0,48.5,12,24.5,45.5c0,0-14.029,3.901-33-4.25c0,0,11.373,8.75,32.187,7.75
	c0,0,10.083,13.5-3.603,24.25h-28.583l3.5,2c0,0,51.75,10.75,32.5-26.75c0,0,21.25-36.75-17.25-46.5L-460.583,150.35z"/>
<polygon fill="#2AACE3" points="83.867,100.838 83.867,100.838 83.869,100.838 "/>
<path fill="#2AACE3" d="M49.061,129.811c-0.002,0.117,0.002,0.238,0.014,0.361C49.063,130.051,49.059,129.928,49.061,129.811z"/>
<path fill="#0291CA" d="M151.426,45.191c0,0,0.008,0.001,0.014,0.001l-0.012-0.003L151.426,45.191z"/>
<polygon fill="#2AACE3" points="128.963,-150.415 128.961,-150.415 128.961,-150.415 "/>
<path fill="#2AACE3" d="M92.679-181.004c-0.011,0.127-0.016,0.254-0.014,0.378C92.663-180.75,92.667-180.878,92.679-181.004z"/>
<path fill="#0291CA" d="M199.412-92.385l0.012-0.004c-0.006,0-0.016,0.001-0.016,0.001L199.412-92.385z"/>
<g>
	<path fill="#FF7777" d="M182.373-248.399c-1.277,0.785-2.451,1.682-3.613,2.535c-1.168,0.854-2.309,1.699-3.418,2.515
		c-2.625,1.831-4.959,3.733-7.168,5.582c-86.007-20.407-50.507,46.093-50.507,46.093c-21.71,3-13.21,19.5-13.21,19.5
		c16.71,59,63.243,9.177,63.243,9.177c-0.033,0.274-0.072,0.508-0.104,0.779c-0.27,2.252-0.469,4.606-0.646,7.011
		c-0.076,1.203-0.133,2.427-0.199,3.661c-0.035,1.232-0.08,2.475-0.082,3.737c0,1.253-0.021,2.51,0.037,3.774
		c0.008,0.236,0.01,0.465,0.018,0.7c-0.029,0.254-0.055,0.443-0.055,0.464c0.02-0.008,0.045-0.013,0.072-0.021
		c0.006,0.256,0.012,0.508,0.021,0.763c0.039,0.638,0.066,1.268,0.104,1.899c0.139,2.529,0.424,5.058,0.764,7.532
		c0.354,2.465,0.795,4.88,1.324,7.188c0.229,1.154,0.568,2.271,0.838,3.371c0.266,1.094,0.592,2.151,0.918,3.165
		c0.621,2.041,1.336,3.898,1.938,5.563c0.689,1.637,1.293,3.09,1.818,4.287c1.135,2.371,1.789,3.73,1.789,3.73l1.211,2.513
		c4.021,8.375,13.254,12.548,21.949,10.496c0,0,0.002-0.001,0.008-0.001c1.33-0.315,2.643-0.772,3.928-1.384
		c0.898-0.434,1.75-0.926,2.555-1.472c7.787-5.304,10.75-15.644,6.555-24.405c-1.77-3.679-4.521-6.543-7.813-8.431l-0.479-0.275
		c-0.313-0.187-0.785-0.452-1.355-0.813c-0.545-0.4-1.229-0.883-1.979-1.502c-0.705-0.647-1.595-1.354-2.383-2.283
		c-0.423-0.452-0.867-0.929-1.285-1.468c-0.427-0.528-0.896-1.063-1.295-1.678c-0.849-1.204-1.697-2.54-2.481-4.025
		c-0.369-0.749-0.8-1.501-1.14-2.314c-0.353-0.801-0.735-1.613-1.039-2.475c-0.681-1.699-1.22-3.508-1.722-5.353
		c-0.491-1.849-0.897-3.748-1.192-5.646c-0.303-1.902-0.524-3.806-0.649-5.664c-0.129-1.862-0.166-3.667-0.146-5.39
		c0.021-1.387,0.104-2.657,0.194-3.897c0.287-2.716,0.709-5.559,1.211-8.437c0.146-0.649,0.289-1.186,0.388-1.526l0.067-0.254
		l0.058-0.139l0.047-0.16c0.32-0.982,0.423-1.978,0.404-2.958c3.065-14.944,7.854-29.608,8.715-32.188l-0.172-0.276
		c0.053-0.03,0.101-0.063,0.146-0.097c0.988-0.655,1.967-1.365,3.061-1.952c2.111-1.237,4.309-2.525,6.574-3.857
		c9.219-5.016,20.059-9.815,32.475-13.405c0.404-0.119,1.505-0.353,2.867-0.629c14.779,17.09,23.723,39.371,23.723,63.74
		c0,53.841-43.646,97.487-97.486,97.487c-53.839,0-97.487-43.646-97.487-97.487s43.647-97.487,97.487-97.487
		c13.447,0,26.262,2.724,37.916,7.648c-6.305,2.998-12.145,6.173-17.477,9.389C187.504-251.713,184.895-250.028,182.373-248.399z"/>
	<path fill="#FFFFFF" d="M243.531-236.744c-1.362,0.277-2.461,0.511-2.867,0.629c-12.416,3.59-23.256,8.39-32.473,13.405
		c-2.27,1.332-4.463,2.62-6.576,3.857c-1.092,0.587-2.07,1.297-3.059,1.952c-0.049,0.033-0.096,0.066-0.146,0.097l0.172,0.276
		c-0.861,2.58-5.648,17.244-8.715,32.188c0.018,0.98-0.084,1.976-0.404,2.958l-0.047,0.16l-0.057,0.139l-0.068,0.254
		c-0.098,0.34-0.24,0.877-0.387,1.526c-0.502,2.878-0.924,5.721-1.211,8.437c-0.092,1.24-0.176,2.51-0.195,3.897
		c-0.021,1.723,0.016,3.528,0.145,5.39c0.125,1.858,0.35,3.762,0.65,5.664c0.295,1.898,0.701,3.797,1.193,5.646
		c0.502,1.845,1.041,3.654,1.721,5.353c0.303,0.862,0.688,1.674,1.039,2.475c0.34,0.813,0.77,1.565,1.139,2.314
		c0.785,1.485,1.635,2.821,2.482,4.025c0.398,0.615,0.869,1.15,1.295,1.678c0.418,0.539,0.863,1.016,1.285,1.468
		c0.789,0.929,1.678,1.636,2.383,2.283c0.752,0.619,1.434,1.102,1.979,1.502c0.572,0.361,1.043,0.626,1.357,0.813l0.477,0.275
		c3.291,1.888,6.047,4.752,7.814,8.431c4.197,8.761,1.234,19.101-6.553,24.405c-0.805,0.546-1.656,1.038-2.555,1.472
		c-1.285,0.612-2.6,1.069-3.93,1.384c-0.006,0-0.008,0.001-0.008,0.001c-8.695,2.052-17.93-2.121-21.949-10.496l-1.211-2.513
		c0,0-0.652-1.359-1.789-3.73c-0.523-1.197-1.129-2.65-1.816-4.287c-0.604-1.665-1.318-3.522-1.939-5.563
		c-0.326-1.014-0.654-2.071-0.918-3.165c-0.268-1.1-0.609-2.217-0.838-3.371c-0.529-2.306-0.973-4.721-1.324-7.186
		c-0.34-2.474-0.625-5.003-0.764-7.532c-0.037-0.631-0.064-1.261-0.104-1.899c-0.01-0.255-0.016-0.507-0.021-0.763
		c-0.027,0.008-0.055,0.013-0.072,0.021c0-0.021,0.023-0.21,0.053-0.464c-0.006-0.235-0.008-0.464-0.016-0.7
		c-0.061-1.264-0.037-2.521-0.037-3.774c0.002-1.262,0.047-2.505,0.082-3.737c0.068-1.234,0.123-2.458,0.199-3.661
		c0.18-2.405,0.379-4.759,0.647-7.011c0.03-0.271,0.069-0.505,0.104-0.779c0,0-46.533,49.823-63.243-9.177c0,0-8.5-16.5,13.21-19.5
		c0,0-35.5-66.5,50.507-46.093c2.209-1.849,4.543-3.751,7.168-5.582c1.109-0.815,2.25-1.66,3.418-2.515
		c1.162-0.854,2.337-1.75,3.613-2.535c2.521-1.629,5.131-3.313,7.834-5.055c5.332-3.215,11.172-6.391,17.476-9.389
		C221.568-256.975,233.813-247.981,243.531-236.744z"/>
</g>
<path fill="#E5E5E5" d="M169.045-172.508c0,0-10.285-38.355,8.584-56.844l-15.963,10.511c0,0,1.039,13-5.563,17.167
	c0,0,11.271,15.834,7.836,27.833L169.045-172.508z"/>
<path fill="#E5E5E5" d="M167.416-234.259l10.213,4.906l-12.545,13.427l-3.418-3.833l-2.333-3.583
	C159.333-223.342,164.164-223.621,167.416-234.259z"/>
<path fill="#CCCCCC" d="M141.416-152.675h-9c0,0,48.5-12,24.5-45.5c0,0-14.029-3.902-33,4.25c0,0,11.373-8.75,32.188-7.75
	c0,0,10.082-13.5-3.604-24.25h-28.583l3.5-2c0,0,51.75-10.75,32.5,26.75c0,0,21.25,36.75-17.25,46.5L141.416-152.675z"/>
<path opacity="0.15" enable-background="new    " d="M30.183-103.167H16.467v1.184h-6.283v-2.037H-3.475v15.6
	c-1.448-5.678-5.386-9.085-10.769-9.085c-0.372,0-0.756,0.017-1.139,0.05c-2.604,0.228-4.853,1.256-6.723,3.066
	c-1.401-1.067-3.245-1.894-5.621-1.894c-0.305,0-0.62,0.014-0.936,0.042c-1.405,0.122-2.697,0.477-3.87,1.06l-8.535,0.747
	l-0.091-1.734l-1.233,0.086c0.08-0.431,0.128-0.875,0.128-1.33c-0.001-4.001-3.257-7.256-7.259-7.257
	c-4.001,0.001-7.256,3.256-7.257,7.258c0,0.809,0.139,1.583,0.384,2.31l-0.131,0.009l-1.985,0.14l-0.557,0.038
	c0.08-0.432,0.128-0.875,0.128-1.331c0-4-3.257-7.256-7.258-7.256c-1.207,0-2.344,0.301-3.346,0.824l-0.301-3.43l-15.612,1.365
	l0.082,0.934c-0.595-0.379-1.229-0.708-1.911-0.973c-1.525-0.583-3.228-0.854-5.354-0.854c-1.45,0-2.99,0.124-4.569,0.263
	l-15.044,1.315l1.24,14.171c-0.391-0.671-0.836-1.287-1.347-1.836c-1.37-1.471-3.885-3.225-8.081-3.225
	c-2.269,0-4.053,0.481-5.443,1.159v-9.378h-12.991v1.184h-10.113v7.959h-2.174v0.252c-1.74-0.908-3.49-1.176-4.946-1.176
	c-4.027,0-7.361,1.896-9.644,5.483c-1.928,3.032-2.924,7.045-2.966,11.926h-1.83v-25.628h-14.185v42.352h23.323v-0.298
	c1.52,0.804,3.222,1.223,5.074,1.223c3.382,0,6.194-1.097,8.359-3.261c0.228-0.228,0.443-0.469,0.653-0.718
	c0.059,0.093,0.119,0.184,0.181,0.272c1.037,1.463,3.116,3.208,7.131,3.208c0.616,0,1.281-0.022,1.977-0.066
	c0.665-0.042,1.39-0.104,2.217-0.19l3.346-0.348v-15.072l-2.942,0.415v-1.815l1.051-0.225c1.094-0.234,2.104-0.629,3.021-1.169
	c0.225,0.906,0.533,1.735,0.938,2.48h-1.951l0.172,3.896c0.17,3.87,1.208,6.921,3.086,9.067c1.407,1.607,4.028,3.524,8.529,3.524
	c3.774,0,6.757-1.163,8.865-3.457c1.23-1.339,2.089-3.009,2.577-4.987l0.745,8.515l15.928-1.393
	c3.737-0.326,7.266-0.635,10.481-3.21c0.015-0.012,0.028-0.025,0.042-0.037l0.346,3.955l15.612-1.364l-0.115-1.313
	c2.035,1.5,4.442,2.406,7.178,2.691c0.301,0.067,0.604,0.104,0.909,0.11c0.32,0.008,0.638,0.011,0.953,0.011
	c0.668,0,1.329-0.016,1.963-0.05c2.316-0.122,4.427-0.59,6.272-1.393c1.831-0.796,3.419-1.928,4.734-3.359l0.511,5.836l40.092-3.506
	v2.026h13.659v-0.555c1.134,0.578,2.609,0.981,4.535,0.981c0.615,0,1.28-0.022,1.977-0.066c0.664-0.042,1.39-0.104,2.217-0.19
	l1.633-0.17h9.581v-17.079h-1.252l1.309-12.608V-103.167L30.183-103.167z M-110.192-79.384h0.098l0.02,0.223
	C-110.115-79.234-110.15-79.313-110.192-79.384z"/>
<path fill="#F1F1F2" d="M28.318-105.032H14.602v1.184H8.319v-2.037H-5.34v15.599c-1.448-5.676-5.386-9.083-10.768-9.083
	c-0.374,0-0.757,0.017-1.141,0.05c-2.604,0.228-4.853,1.256-6.723,3.066c-1.401-1.067-3.245-1.894-5.62-1.894
	c-0.306,0-0.621,0.014-0.935,0.042c-1.406,0.122-2.697,0.477-3.872,1.06l-8.535,0.747l-0.091-1.734l-1.233,0.086
	c0.081-0.431,0.128-0.875,0.128-1.33c-0.001-4.001-3.257-7.257-7.258-7.257c-4,0-7.256,3.256-7.257,7.258
	c0,0.809,0.139,1.583,0.384,2.31l-0.133,0.009l-1.983,0.14l-0.558,0.038c0.081-0.432,0.129-0.875,0.129-1.331
	c-0.002-4-3.257-7.256-7.259-7.256c-1.207,0-2.343,0.301-3.346,0.824l-0.301-3.43l-15.611,1.365l0.082,0.934
	c-0.596-0.379-1.23-0.708-1.91-0.973c-1.526-0.583-3.229-0.854-5.356-0.854c-1.449,0-2.988,0.124-4.568,0.263l-15.044,1.315
	l1.24,14.171c-0.391-0.671-0.836-1.287-1.347-1.836c-1.371-1.471-3.885-3.225-8.081-3.225c-2.269,0-4.053,0.481-5.443,1.159v-9.378
	h-12.991v1.184h-10.113v7.959h-2.174v0.252c-1.74-0.908-3.49-1.176-4.946-1.176c-4.027,0-7.361,1.896-9.644,5.483
	c-1.928,3.033-2.924,7.045-2.966,11.926h-1.83v-25.628H-186.6v42.354h23.323v-0.298c1.52,0.804,3.222,1.222,5.074,1.222
	c3.382,0,6.194-1.097,8.359-3.261c0.228-0.228,0.443-0.469,0.653-0.717c0.059,0.092,0.119,0.184,0.181,0.271
	c1.037,1.464,3.116,3.209,7.131,3.209c0.616,0,1.281-0.022,1.977-0.067c0.665-0.042,1.39-0.104,2.217-0.189l3.346-0.348V-77.93
	l-2.942,0.415v-1.816l1.051-0.225c1.094-0.233,2.104-0.628,3.021-1.169c0.225,0.907,0.533,1.735,0.938,2.48h-1.951l0.171,3.896
	c0.17,3.871,1.209,6.921,3.087,9.067c1.407,1.607,4.028,3.524,8.529,3.524c3.774,0,6.757-1.163,8.865-3.456
	c1.23-1.339,2.089-3.009,2.577-4.988l0.745,8.516l15.928-1.393c3.737-0.327,7.267-0.636,10.481-3.211
	c0.015-0.011,0.028-0.025,0.042-0.036l0.346,3.955l15.611-1.365l-0.113-1.313c2.035,1.501,4.442,2.407,7.178,2.691
	c0.301,0.068,0.604,0.104,0.91,0.111c0.318,0.008,0.637,0.011,0.952,0.011c0.668,0,1.329-0.018,1.963-0.051
	c2.316-0.121,4.426-0.59,6.271-1.393c1.832-0.795,3.421-1.927,4.735-3.358l0.511,5.836l40.093-3.507v2.027H8.319v-0.556
	c1.133,0.579,2.608,0.982,4.533,0.982c0.616,0,1.281-0.022,1.978-0.067c0.665-0.042,1.391-0.104,2.218-0.189l1.632-0.17h9.581
	v-17.08h-1.252l1.31-12.608L28.318-105.032L28.318-105.032z M-112.058-81.25h0.098l0.02,0.223
	C-111.98-81.101-112.016-81.178-112.058-81.25z"/>
<g>
	<g>
		<path fill="#7F8080" d="M-182.869-66.411v-34.89h6.722v25.628h9.138v9.262H-182.869z"/>
		<path fill="#7F8080" d="M-155.56-74.038h5.884c-0.426,2.811-1.362,4.938-2.807,6.383c-1.445,1.445-3.352,2.168-5.72,2.168
			c-2.653,0-4.759-1.229-6.317-3.684s-2.338-5.759-2.338-9.912c0-4.327,0.796-7.741,2.388-10.245
			c1.592-2.502,3.757-3.754,6.495-3.754c2.748,0,4.901,1.362,6.459,4.086c1.558,2.724,2.338,6.502,2.338,11.334v0.616l-11.526,0.023
			c0.029,1.643,0.289,2.91,0.782,3.801c0.493,0.893,1.18,1.339,2.061,1.339c0.597,0,1.094-0.186,1.492-0.557
			C-155.972-72.811-155.702-73.343-155.56-74.038z M-160.704-82.186h5.472c-0.066-1.596-0.332-2.792-0.796-3.59
			c-0.464-0.796-1.132-1.195-2.004-1.195c-0.805,0-1.443,0.423-1.912,1.268C-160.413-84.858-160.666-83.687-160.704-82.186z"/>
		<path fill="#7F8080" d="M-141.012-75.956c0,0.868,0.151,1.479,0.455,1.835c0.304,0.355,0.843,0.533,1.62,0.533
			c0.228,0,0.4-0.004,0.519-0.013c0.119-0.007,0.235-0.019,0.349-0.034v7.413c-0.758,0.078-1.448,0.139-2.068,0.178
			c-0.621,0.039-1.201,0.06-1.741,0.06c-1.952,0-3.314-0.545-4.086-1.635c-0.772-1.089-1.158-3-1.158-5.732V-86.26h-2.174v-5.898
			h2.174v-7.958h6.111v7.958h2.885v5.898h-2.885v10.304H-141.012z"/>
		<path fill="#7F8080" d="M-131.482-101.301v8.977c0,2.543-0.478,4.604-1.435,6.183c-0.957,1.579-2.321,2.559-4.093,2.937v-4.073
			c0.862-0.315,1.48-0.837,1.854-1.563c0.374-0.727,0.563-1.769,0.563-3.127h-2.416v-9.332h5.528V-101.301z"/>
		<path fill="#7F8080" d="M-130.322-74.513h5.969c0,1.091,0.168,1.904,0.504,2.44c0.336,0.537,0.841,0.806,1.514,0.806
			c0.644,0,1.139-0.182,1.485-0.545c0.346-0.363,0.519-0.892,0.519-1.587c0-1.153-0.763-2.006-2.288-2.558
			c-0.133-0.048-0.237-0.087-0.313-0.119c-2.89-1.026-4.775-2.132-5.656-3.316s-1.322-2.921-1.322-5.21
			c0-2.764,0.646-4.868,1.94-6.313c1.293-1.445,3.181-2.168,5.663-2.168c2.302,0,4.086,0.68,5.351,2.037
			c1.265,1.358,1.992,3.38,2.182,6.063h-5.529c-0.047-0.773-0.249-1.389-0.604-1.847c-0.355-0.458-0.803-0.688-1.343-0.688
			s-0.952,0.154-1.236,0.462c-0.285,0.309-0.426,0.754-0.426,1.339c0,1.026,0.696,1.784,2.089,2.273
			c0.37,0.126,0.649,0.221,0.838,0.284c2.804,1.073,4.628,2.215,5.472,3.423c0.843,1.208,1.265,2.98,1.265,5.317
			c0,2.953-0.689,5.18-2.068,6.679c-1.378,1.501-3.418,2.251-6.118,2.251c-2.501,0-4.408-0.75-5.721-2.251
			C-129.468-69.237-130.189-71.495-130.322-74.513z"/>
		<path fill="#7F8080" d="M-1.609-94.788v-7.366h6.196v7.366H-1.609z M-1.609-66.411v-25.747h6.196v25.747H-1.609z"/>
		<path fill="#7F8080" d="M13.719-75.956c0,0.868,0.151,1.479,0.455,1.835c0.303,0.355,0.843,0.533,1.62,0.533
			c0.228,0,0.4-0.004,0.519-0.013c0.118-0.007,0.234-0.019,0.349-0.034v7.413c-0.758,0.078-1.447,0.139-2.068,0.178
			c-0.621,0.039-1.201,0.06-1.741,0.06c-1.951,0-3.313-0.545-4.085-1.635c-0.772-1.089-1.159-3-1.159-5.732V-86.26H5.434v-5.898
			h2.174v-7.958h6.111v7.958h2.886v5.898h-2.886V-75.956z"/>
		<path fill="#7F8080" d="M19.753-78.87l-1.42-13.69v-8.74h6.253v8.74l-1.422,13.69H19.753z M18.39-66.411v-9.617h6.139v9.617H18.39
			z"/>
	</g>
	<g>
		<g>
			<g>
				<path fill="#00ADEE" d="M-110.077-102.531l10.404-0.91c0.307-0.027,0.614-0.053,0.921-0.08c3.378-0.295,6.07-0.479,8.271,0.359
					c2.924,1.137,4.723,4.023,5.095,8.272c0.292,3.326-0.602,5.933-2.689,7.714c3.081,1.175,4.667,3.821,5.052,8.225
					c0.385,4.401-0.748,7.801-3.168,9.767c-2.313,1.854-5.078,2.095-8.456,2.391l-12.208,1.067L-110.077-102.531z M-96.544-88.911
					c2.265-0.198,3.277-1.009,3.062-3.466c-0.255-2.917-1.583-3.06-4.808-2.777l-2.457,0.214l0.555,6.348L-96.544-88.911z
					 M-94.901-75.438c2.611-0.229,3.686-1.2,3.462-3.759c-0.225-2.56-1.525-3.271-4.135-3.043l-4.031,0.353l0.595,6.809
					L-94.901-75.438z"/>
			</g>
			<g>
				<path fill="#00ADEE" d="M-83.279-103.217l8.177-0.714l3.221,36.804l-8.177,0.715L-83.279-103.217z"/>
			</g>
			<g>
				<path fill="#00ADEE" d="M-44.42-92.424l7.372-0.645l0.349,3.993c1.522-3.384,3.618-5.063,6.498-5.314
					c2.688-0.235,4.655,1.037,6.479,4.179c1.676-3.396,3.806-5.13,6.8-5.391c4.799-0.42,7.868,2.819,8.388,8.756l1.621,18.53
					l-7.984,0.699l-1.272-14.538c-0.291-3.327-1.193-4.796-3.151-4.624c-1.995,0.174-2.74,1.839-2.445,5.217l1.264,14.436
					l-7.946,0.694l-1.241-14.179c-0.318-3.635-1.225-5.154-3.298-4.973c-1.805,0.157-2.62,1.879-2.344,5.053l1.277,14.589
					l-7.985,0.698L-44.42-92.424z"/>
			</g>
		</g>
		<g>
			<g>
				<circle fill="#00ADEE" cx="-68.064" cy="-98.11" r="3.526"/>
			</g>
			<g>
				<circle fill="#00ADEE" cx="-51.387" cy="-99.278" r="3.526"/>
			</g>
			<g>
				<path fill="#00ADEE" d="M-45.792-79.586l-0.76-14.46l-7.909,0.554l0.739,13.159v-0.003c0.026,0.512,0.04,0.991,0.04,1.439
					c0,0.734-0.037,1.38-0.105,1.935v-0.001c-0.109,0.874-0.339,1.549-0.653,2.04v0.001c-0.317,0.493-0.726,0.845-1.281,1.1
					c-0.391,0.177-0.879,0.312-1.456,0.395c-0.06-0.008-0.124-0.014-0.193-0.014c-0.04,0-0.083,0.002-0.13,0.007h0.003
					c-0.279,0.023-0.546,0.036-0.795,0.036c-0.592,0-1.096-0.068-1.515-0.19c-0.586-0.175-1.038-0.467-1.422-0.911
					c-0.38-0.443-0.701-1.078-0.931-1.93c-0.234-0.867-0.417-1.982-0.534-3.332v0.003l-1.095-13.08l-7.909,0.555l1.257,14.37
					c0.18,2.047,0.592,3.851,1.254,5.407c0.662,1.556,1.576,2.864,2.742,3.892c1.71,1.514,3.859,2.369,6.348,2.576
					c0.088,0.034,0.193,0.062,0.306,0.063h0.002c0.294,0.008,0.586,0.011,0.877,0.011c0.597,0,1.186-0.015,1.768-0.046
					c1.859-0.097,3.523-0.455,4.98-1.089c1.458-0.632,2.703-1.545,3.709-2.72c0.909-1.062,1.587-2.318,2.033-3.748
					c0.445-1.43,0.663-3.032,0.663-4.801C-45.759-78.766-45.77-79.172-45.792-79.586z"/>
			</g>
		</g>
	</g>
</g>
</svg>
