<svg xmlns="http://www.w3.org/2000/svg" width="250" height="250" viewBox="0 0 250 250"><path opacity=".15" d="M215.104 78.698l-2.93.584c-2.037.402-5.113 1.01-5.742 1.178-10.616 3.07-21.07 7.385-31.076 12.822l-6.69 3.916c-.154.083-.312.177-.477.277-1.45 4.467-5.26 16.726-7.86 29.2-.04 1.462-.27 2.82-.67 4.127l-.17.546c-.07.238-.15.567-.24.957-.5 2.882-.87 5.415-1.11 7.736-.09 1.23-.16 2.29-.18 3.39-.02 1.74.02 3.33.13 4.89.11 1.61.3 3.32.58 5.1.25 1.63.61 3.3 1.04 4.94.37 1.36.87 3.12 1.48 4.66l.09.26c.18.52.4 1 .62 1.48l.28.64c.16.38.35.74.53 1.1.13.26.26.51.39.76.58 1.08 1.23 2.15 2.01 3.24l.13.2c.17.27.38.5.57.73l.4.5c.29.38.61.7.9 1.02l.21.24c.29.34.72.73 1.18 1.13l.46.41c.49.4.95.73 1.34 1.01l.07.05c.29.18.53.32.74.44l.69.4c4.54 2.61 8.15 6.5 10.44 11.27 5.49 11.45 1.72 25.46-8.76 32.6-1.07.73-2.21 1.38-3.42 1.97-1.44.69-2.93 1.24-4.46 1.65l-.05.02-1.46.35h-.06c-1.7.35-3.42.52-5.15.52-9.91 0-19.09-5.77-23.38-14.69l-3.1-6.46c-.41-.95-.88-2.05-1.39-3.28l-.53-1.24-.43-1.16c-.53-1.44-1.14-3.08-1.65-4.78-.36-1.11-.73-2.32-1.05-3.63-.09-.35-.18-.71-.28-1.07-.22-.81-.43-1.63-.61-2.47-.55-2.43-1.02-4.99-1.41-7.67-.08-.56-.15-1.11-.22-1.64l-.81-9.42.01-.54.03-.24v-.06c-.05-1.1-.05-2.21-.05-3.31v-.79c.01-.82.02-1.64.04-2.45-3.39 2.1-7.3 4.44-11.72 7.01-18.76 10.96-34.45 16.52-46.63 16.52-20.67 0-28.45-16.09-28.63-26.92-.09-5.49 1.44-9.92 3.18-13.15-5.63-3.03-9.71-7.14-12.16-12.28-5.11-10.71-.92-21.34-.43-22.53C31.92 98.7 40.3 95.07 42.33 94.32c1.26-.55 2.52-1.06 3.76-1.526-3.25-9.08-1.28-18.19 5.78-25.42 2.04-2.09 3.79-3.27 4.13-3.49 4.983-3.22 9.94-3.89 13.22-3.89 2.47 0 4.32.38 5.12.58 10.25 1.99 17.84 5.54 22.673 10.56 7.77-3.97 16.358-6.04 25.156-6.04 2.69 0 5.38.2 8.04.598 1.62-1.31 3.34-2.64 5.13-3.89l3.96-2.914c1.03-.76 2.2-1.622 3.39-2.35l8.01-5.17c9.9-5.97 20.34-11.13 31.04-15.34l3.22-1.27 2.85 1.96c12.48 8.57 23.02 19.37 31.35 32.11l5.25 8.04-9.42 1.91z"/><path fill="#E66" d="M214.476 73.582l-2.93.584c-2.037.4-5.112 1.008-5.74 1.177-10.618 3.07-21.074 7.385-31.077 12.822l-6.69 3.917c-.16.082-.32.177-.48.275-1.44 4.467-5.26 16.727-7.86 29.2-.04 1.463-.26 2.82-.67 4.128l-.17.546c-.07.24-.15.57-.24.96-.5 2.89-.87 5.42-1.11 7.74-.09 1.23-.16 2.29-.17 3.39-.02 1.74.02 3.34.13 4.89.11 1.61.3 3.32.58 5.1.25 1.63.6 3.3 1.04 4.94.37 1.36.87 3.12 1.48 4.65l.09.26c.18.52.4 1 .62 1.48l.28.64c.16.38.35.74.53 1.1.13.25.26.51.39.76.58 1.08 1.23 2.15 2.01 3.24l.13.2c.17.27.38.5.57.73l.4.5c.29.38.61.7.9 1.02l.21.24c.29.34.72.72 1.18 1.13l.45.41c.49.4.95.73 1.33 1.01l.07.05c.28.18.53.32.73.44l.69.4c4.54 2.61 8.16 6.5 10.44 11.27 5.48 11.45 1.72 25.46-8.77 32.6-1.07.73-2.21 1.38-3.42 1.96-1.43.69-2.93 1.24-4.45 1.65l-.05.03-1.47.35h-.06c-1.7.35-3.42.52-5.15.52-9.92 0-19.09-5.77-23.38-14.7l-3.1-6.46c-.41-.94-.88-2.05-1.39-3.27l-.52-1.24-.43-1.16c-.53-1.44-1.14-3.08-1.65-4.78-.36-1.11-.74-2.32-1.05-3.63-.09-.35-.19-.71-.28-1.07-.22-.81-.43-1.63-.6-2.46-.55-2.43-1.02-4.99-1.41-7.67-.08-.56-.15-1.11-.22-1.64l-.8-9.42.01-.54.03-.24v-.06c-.06-1.11-.05-2.21-.05-3.31v-.79c0-.83.02-1.64.04-2.46-3.4 2.1-7.31 4.44-11.72 7.01-18.76 10.96-34.45 16.52-46.63 16.52-20.67 0-28.45-16.09-28.63-26.92-.09-5.49 1.44-9.92 3.18-13.15-5.63-3.03-9.71-7.14-12.16-12.28-5.11-10.71-.92-21.35-.43-22.53 4.24-10.07 12.63-13.7 14.65-14.45 1.27-.55 2.52-1.06 3.76-1.52-3.24-9.08-1.28-18.19 5.78-25.42 2.04-2.09 3.8-3.27 4.14-3.49 4.98-3.21 9.94-3.89 13.22-3.89 2.47 0 4.32.38 5.12.58C83.98 57.43 91.57 60.98 96.4 66c7.77-3.97 16.36-6.05 25.16-6.05 2.69 0 5.385.2 8.044.59 1.62-1.31 3.34-2.64 5.13-3.89l3.97-2.916c1.03-.764 2.204-1.63 3.39-2.355l8.006-5.17c9.89-5.97 20.33-11.13 31.03-15.34l3.22-1.27 2.85 1.96c12.472 8.57 23.02 19.37 31.35 32.1l5.26 8.05-9.42 1.91z"/><path fill="#2AACE3" d="M65.795 92.563c.055-.692.324-1.373.86-2.033l.005.006c-.54.655-.808 1.336-.86 2.027.688.07 1.35.167 1.99.288-.64-.12-1.304-.21-1.995-.28zm5.37 65.855c.24.844.625 1.504 1.126 1.996-.5-.492-.88-1.15-1.12-1.996zm-15.167-33.84c-.002-.123.003-.252.014-.38-.012.128-.016.257-.014.38z"/><path fill="#0291CA" d="M66.825 90.332l.003.003c-.06.065-.117.134-.168.2l-.005-.005c.055-.066.11-.134.17-.198zm.965 2.52c.688.13 1.348.292 1.97.483-.624-.19-1.282-.352-1.97-.483zm94.95-59.14h.018l-.013-.002-.004.003z"/><path fill="#FFF" d="M192 61.03l-52.5 38-4.75 42.5-20 1.25-16 15.638-32.955 8.61-7.795-51 9.79-45 13.71-1.25 12.99 6.104 18.01-1.603 28.5-4.5 39-20"/><path fill="#F7F7F7" d="M203.995 69.09c.995-.292 6.116-1.27 9.19-1.89-7.814-11.947-17.88-22.26-29.59-30.305-11.27 4.435-21.334 9.594-30.057 14.854-2.702 1.74-5.312 3.42-7.833 5.05-1.277.78-2.45 1.68-3.614 2.53-1.16.85-2.3 1.69-3.41 2.51-2.62 1.83-4.96 3.73-7.17 5.58-12.53-2.63-25.87-.16-36.85 7.11-2.55-5.31-8.86-10.23-22.27-12.81 0 0-6.66-1.91-13.39 2.43 0 0-1.36.88-3 2.56-3.95 4.04-9.48 12.73-1.11 24.78-3.19.77-6.75 1.95-10.69 3.67 0 0-7.49 2.48-11.04 10.9 0 0-9.17 21.86 17 29.48-.46.48-.91.92-1.38 1.42 0 0-5.85 5.3-5.7 14.42 0 0 .73 42.7 65.47 4.89 11.33-6.61 18.44-11.14 22.5-14.1-.03.27-.07.51-.1.78-.27 2.25-.47 4.6-.65 7.01-.07 1.2-.13 2.42-.2 3.66-.03 1.23-.08 2.47-.08 3.73 0 1.26-.02 2.51.04 3.78l.02.7c-.02.25-.05.44-.05.46.02-.01.05-.02.07-.02l.03.76c.04.64.07 1.27.1 1.9.14 2.53.43 5.06.77 7.53.35 2.46.8 4.88 1.32 7.18.23 1.15.57 2.27.84 3.37.27 1.09.59 2.15.92 3.17.62 2.04 1.33 3.89 1.94 5.56.69 1.64 1.29 3.09 1.82 4.29l1.79 3.73 1.21 2.51c4.02 8.37 13.25 12.55 21.95 10.49h.01c1.33-.31 2.65-.77 3.93-1.38.9-.44 1.75-.93 2.56-1.47 7.78-5.3 10.75-15.64 6.55-24.4-1.77-3.68-4.52-6.54-7.82-8.43l-.48-.28c-.31-.18-.78-.45-1.36-.81-.54-.4-1.22-.88-1.98-1.5-.7-.65-1.59-1.35-2.38-2.28-.42-.46-.86-.93-1.28-1.47-.42-.53-.89-1.06-1.29-1.68-.85-1.2-1.7-2.54-2.48-4.02-.37-.75-.8-1.5-1.14-2.31-.35-.8-.74-1.61-1.04-2.47-.68-1.7-1.22-3.51-1.73-5.36-.49-1.85-.9-3.75-1.19-5.65-.3-1.9-.52-3.8-.65-5.66-.13-1.86-.16-3.67-.14-5.39.02-1.39.1-2.66.19-3.9.29-2.72.71-5.56 1.21-8.44.15-.65.29-1.19.39-1.53l.07-.26.06-.14.05-.16c.32-.98.42-1.97.41-2.95 3.06-14.94 7.85-29.61 8.71-32.19l-.17-.27c.06-.03.1-.07.15-.1.99-.66 1.97-1.37 3.06-1.96 2.12-1.24 4.31-2.53 6.58-3.86 9.22-5.02 20.06-9.82 32.47-13.41zM56.012 124.2c-.01.126-.016.255-.014.378-.002-.123.002-.252.014-.38zM69.76 91.334c-.625-.19-1.283-.352-1.97-.483-.64-.12-1.305-.21-1.996-.28.055-.69.324-1.37.86-2.03.056-.06.11-.13.17-.19l.003.01-.168.2c-.54.66-.81 1.34-.86 2.03.68.07 1.35.17 1.99.29.68.13 1.34.29 1.97.49zm26.02 4.77s9.25 11.832-.43 22.376c0 0 21.225 20.223-3.05 34.422 0 0 5.85-.094 8.857-1.443 0 0-2.09 2.16-8.86 3.33h-.003l-21.13 3.62c.242.84.626 1.5 1.127 1.99-.5-.49-.88-1.15-1.12-2 0 0 46.99-10.47 25.05-36.5 0 0-7.9-8.06-30.41 4.14 0 0 13.13-9.96 26.5-7.8 0 0 20.48-24.74-18.46-25.18 0 0 6.81-2.15 18.47 2.37 0 0 8.22-5.38 2.19-19.58 0 0 6.67 8.61 1.29 20.23zm27.754-16.137c-25.817 31.95 7.747 53.896 7.747 53.896v5.81l-3.23-5.486c-36.46-23.238-4.51-54.22-4.51-54.22zm54.54-21.62l-30.658 14.2c11.616-8.07 30.657-14.2 30.657-14.2z"/><path fill="#CCC" d="M95.35 118.48s21.225 20.223-3.05 34.422c0 0 5.85-.094 8.857-1.443 0 0-2.09 2.16-8.86 3.33h-.003l-21.13 3.62s46.99-10.47 25.047-36.5c0 0-7.9-8.06-30.41 4.14 0 0 13.13-9.96 26.5-7.8 0 0 20.48-24.74-18.46-25.18 0 0 6.81-2.15 18.47 2.37 0 0 8.22-5.38 2.19-19.58 0 0 6.67 8.61 1.29 20.22 0 0 9.25 11.83-.43 22.37zm35.93 15.383v5.81l-3.23-5.486c-36.464-23.236-4.516-54.22-4.516-54.22-25.818 31.95 7.746 53.896 7.746 53.896zm46.793-73.515l-30.657 14.2c11.616-8.07 30.657-14.2 30.657-14.2z"/></svg>