<svg xmlns="http://www.w3.org/2000/svg" width="250" height="250" viewBox="0 0 250 250"><path d="M103.776 218.174c-.02-.05-.04-.1-.063-.153l-.086-.21-.084-.21-.104-.26c-.02-.04-.04-.1-.06-.15l-.26-.68-.13-.32-.15-.39c-.04-.1-.08-.21-.13-.32l-.17-.45-.15-.38-.33-.87-.16-.41-.28-.74-.04-.11c-.55-1.49-1.19-3.21-1.88-5.12h86.4l-.49-83.95V91.86c.12-.156.22-.32.29-.484l.01-.035c.06-.15.11-.31.14-.47v-.04c.03-.16.04-.32.04-.47v-.01c-.01-.16-.02-.31-.05-.46l-.01-.03c-.03-.13-.06-.26-.1-.39-.01-.01-.01-.02-.02-.04-.04-.12-.08-.23-.12-.33l-.01-.01c-.09-.21-.17-.36-.2-.42V40.79L162 43.223c-4.44-3.745-9.997-6.6-16.24-8.214l-.02-.01c-.578-.15-1.16-.29-1.75-.42l-.138-.04c-.55-.12-1.106-.22-1.665-.32-.09-.02-.17-.04-.26-.05-.522-.09-1.053-.17-1.584-.24-.125-.02-.245-.04-.368-.05-.5-.07-1.01-.12-1.517-.16-.153-.02-.306-.04-.46-.05-.497-.04-1-.07-1.5-.1-.17-.01-.335-.03-.504-.03-.67-.03-1.344-.05-2.02-.05-.686 0-1.364.01-2.04.04l-.64.03c-.462.02-.924.05-1.383.09-.24.02-.48.05-.72.07-.43.04-.86.09-1.3.15l-.7.09c-.46.06-.91.14-1.37.22-.19.03-.38.06-.56.09-1.29.24-2.56.53-3.8.87-.15.04-.29.08-.43.12-.48.13-.95.28-1.42.43-.17.05-.35.11-.52.17-.44.15-.88.3-1.32.47l-.48.18c-.48.19-.95.38-1.41.58-.11.04-.22.09-.32.13-1.17.51-2.31 1.07-3.4 1.68l-.16.1c-.48.27-.95.54-1.42.83l-.3.19c-.42.26-.84.54-1.25.82-.1.06-.2.13-.29.2-.44.3-.87.62-1.29.94-.05.04-.1.07-.15.11-.97.75-1.9 1.53-2.78 2.36l-.01.01-.01-.01c-2.55-1.11-4.59-1.56-6.22-1.61h-.01c-.2-.01-.39-.01-.57 0h-.03c-.18 0-.36.01-.53.03h-.03c-.17.01-.33.03-.49.06h-.02c-.16.03-.31.06-.46.09h-.01c-1.55.36-2.53 1.13-3.12 1.82l-.01.01-.15.18-.02.03c-.04.06-.08.11-.12.17l-.03.04-.1.14-.03.04-.08.13-.02.04-.06.11-.02.04-.04.09-.02.04-.03.07-.01.04-.02.04-.01.03-.01.02-.01.02c-.14.28-.24.57-.33.86l-.04.13c-.3 1.06-.31 2.16-.1 3.25L60.7 53.61l-.19-.11.035.127-.28.03 21.73 72.54-11.133.31-.022.36-.195-.548-4.905 80.99.78.2.15.04.085.02 1.47.38.14.04c2.85.74 7.71 2.03 12.95 3.46l1.74.47.086.02c.57.15 1.13.31 1.7.47.04.01.07.02.1.02.56.16 1.12.31 1.68.47l.13.03 1.63.46.17.05 1.53.43.25.07c.5.14.99.28 1.47.43l.22.06c.48.13.94.27 1.4.41l.27.07c.43.13.86.25 1.27.38l.31.09 1.16.35.34.1c.36.11.71.22 1.05.32l.34.1.93.3.37.12.79.26.36.12.66.23c.12.04.24.09.35.13.19.07.36.13.52.2l.33.13c.15.05.27.1.39.16.1.04.21.08.3.12.1.04.18.08.26.12.08.04.18.08.24.12.06.03.1.06.15.09.06.03.13.07.17.11.02.01.01.02.03.03l-.01-.03-.05-.11-.04-.1c-.03-.06-.05-.12-.08-.18zm.264.536c-.002-.033-.044-.075-.083-.116.053.114.083.16.082.116z" opacity=".15"/><path fill="#1B75BB" d="M101.04 214.71c-.002-.04-.037-.09-.096-.144.064.14.097.19.095.144z"/><path fill="#FFF" d="M158.89 39.11c-7.073-5.908-16.952-9.586-27.894-9.586-11.793 0-22.355 4.267-29.493 11-10.223-4.446-12.323 1.704-12.323 1.704-.592 1.21-.706 2.495-.532 3.78 22.31 9.86 52.674 12.713 70.242-6.898z"/><path fill="#1B75BB" d="M182.645 84.64V36.784l-23.622 2.433c-.043-.037-.09-.07-.133-.107-17.567 19.61-47.932 16.758-70.242 6.897.02.152.027.303.056.455l-31.458 3.24 21.723 72.54-11.14.304-.03.363-.2-.55-4.91 80.99s36.18 9.33 38.23 11.21c-.39-.85-1.96-5.05-4.22-11.22h81.21l4.7-83.95-14.62-8.13 14.62 8.13V87.86c1.02-1.288.14-2.964 0-3.22zm-48.01 8.077l6.978 3.877-6.977-3.877z"/><path fill="#0E4F82" d="M67.617 122.363s33.474 93.828 33.42 92.347-38.326-11.358-38.326-11.358l4.91-80.99zM181.25 119.4L57.49 49.55l43.794 146.24"/><path fill="#FFF" d="M128.337 93.173s28.35 57.316 38.346 1.512c0 0 6.795 2.222 5.478 4.568 0 0-12.59 57.532-46.71 1.378 0 0-5.23-5.79 2.89-7.45zm38.346-4.105c-6.313-8.148-10.077-.538-10.077-.538.555 1.093 2.9.6 2.9.6 5.927-.927 5.248 4.042 5.248 4.042l3.692 4.723"/><path fill="#FFF" d="M166.234 97.896s-1.05-2.298-1.48-4.723c-.43-2.427 1.172.124 1.172.124l1.08-3.18.186-.956s-.493-9.94 4.044-14.77c0 0 6.204-.8 0 7.6 0 0-2.224 6.09-1.9 7.39 0 0 .79 2.03 2.642.88 0 0 3.52-5.14 10.647-5.65 0 0 2.917 4.78-5.185 4.78l-3.53 2.78s3.623 9.45-6.1 6.58"/><path fill="#FFF" d="M168.446 88.73s-.598.925-3.766-.37c-3.168-1.298 3.766 7.407 3.766 7.407V88.73zm-56.696-4.126l17.86 5.65-2.02 2.92 7.284 13.576 3.603 7.196.522 8.725L93.37 125s-3.05-29.625-3.21-30.125 14.59-10.873 14.59-10.873l7 .602z"/><path fill="#D0D2D3" d="M135.816 112.035s-6.125-10.003-7.36-18.622l-7.025 3.95 2.06 13.842 5.72 2.868 6.62-2.038zm31.617-62.045s7.718-14.034-6.608-9.16c-14.327 4.876 6.608 9.16 6.608 9.16z"/><path fill="#919496" d="M164.73 46.12s6.868-6.93 1.93 2.346c-4.935 9.28-1.93-2.346-1.93-2.346zm-64.462-2.62l-4.02 8.793s-12.36-15.376 4.02-8.793z"/><path fill="#FFF" d="M92.43 56.832c2.613-15.426 18.877-27.308 38.566-27.308 21.51 0 38.942 14.178 38.942 31.667 0 17.5-17.434 31.67-38.942 31.67-.808 0-1.606-.02-2.404-.06-.862 3.76-1.582 9.59 1.022 13.12 0 0 17.863 13.36 8.75 26.05.01-.09 2.344-22.23-14.7-26.18l3.09-13.94s-6.438-1.51-13.962-4.83v17.47s17.983 21 7.8 35.22c-17.81-.54-53.65-10.07-28.162-82.85z"/><path fill="#D0D2D3" d="M112.792 104.466v-17.47c7.523 3.322 13.963 4.836 13.963 4.836l-3.092 13.948c17.045 3.942 14.712 26.086 14.7 26.18-1.778 2.476-2.67 3.314-6.84 5.635 0 0-5.62 2.25-10.93 2.09 10.182-14.22-7.8-35.22-7.8-35.22z"/><ellipse fill="#D0D2D3" cx="136.846" cy="61.89" rx="33.093" ry="25.105"/><path fill="#D0D2D3" d="M103.925 41.698s.378 3.253-2.647 3.706c0 0-14.82-4.84-4.007 8.167 0 0 1.21 1.97-1.28 3.71 0 0-9.98-8.54-6.8-15.05 0 0 2.42-7.11 14.75-.53z"/><ellipse fill="#FFF" cx="153.746" cy="56.25" rx="12.937" ry="12.752"/><ellipse fill="#FFF" cx="123.663" cy="56.539" rx="15.968" ry="15.862"/><path fill="#6C6F71" d="M135.6 84.002s.846-2.56 3.476-2.34c0 0-.702-.77-3.476-1.954 0 0 2.454.234 4.133 1.574 0 0 6.172.564 4.396-4.52 0 0 3.45 6.063-4.77 5.365 0 0-2.03.395-3.77 1.875z"/><path fill="#BE1E2D" d="M142.34 76.077s1.976 2.396-1.804 3.652c0 0-2.146.88-5.09-2.3 0 0 16.394-7.44 6.894-1.36z"/><path fill="#D0D2D3" d="M105.865 90.254l1.83 47.385-7.427-3.19-5.886-41.05 1.868-1.7 7.5 44.24"/><path fill="#6C6F71" d="M142.915 70.973l-.43 2.714s-8.475 6.2-10.464 1.292l.75-1.9-2.54 3.26 1.53-.95s-.23 6.02 10.83-.97c0 0 5.1-2.05.61 1.1 0 0 7.46-3.38.24-2.13l.29-2.09-.77-.35z"/><path fill="#1D8FCD" d="M146.854 69.657s-2.878-5.856-3.94-2.765c0 0-2.378-3.48-2.378 2.11 0 0 2.254 1.536 2.38 3.398 0 0 2.33-.936 3.938-2.743z"/><path fill="#FFF" d="M142.915 70.973s-.146-.792-1.26-1.58c0 0 .412-1.514 1.26 1.58z"/><path fill="#D0D2D3" d="M167.53 89.655l.916 2.777s5.593 2.63.974 6.685c0 0 5.214-3.745-.03-6.685l-1.86-2.777zm2.408 10.28s.292 2.5-3.79 10.646l3.79-10.64z"/><path fill="#002749" d="M67.835 122.546l-5.124 80.806h120.43l-.49-83.952"/><path fill="#BBC9DA" d="M78.777 154.59c-.026-1.11.096-3.426.553-11.972.543-10.55.607-11.574.584-12.507-.047-1.91-.055-2.26.745-2.32 3.45-.3 5.85-.5 7.67-.54 9.06-.22 12.73 2.67 12.86 7.78.07 2.8-.91 6.38-4.53 7.4 3.45.99 4.8 3.53 4.88 6.91.13 5.42-3 10.04-13.89 10.3-6.98.18-8.8-1.51-8.88-5.02zm8.42-8.474l-.314 7.254c1.03.286 2.056.438 2.9.418 3.687-.09 4.25-2.505 4.21-4.19-.054-2.224-1.162-3.886-4.138-3.814-.666.018-1.642.13-2.66.332zm.287-6.408c.894.2 1.74.313 2.54.293 3.51-.08 4.132-1.96 4.097-3.39-.04-1.82-1.14-3.35-4.12-3.27-.62.02-1.46.13-2.3.28-.05 1.56-.08 3.7-.2 6.1zm25.186 10.056c.05 2.044 1.19 3.26 3.012 3.216 4.798-.117 4.317-12.6 4.715-18.165.03-.49.288-.896.954-.912l1.6-.038c3.65-.09 4.57 1.398 4.64 4.11.05 1.82-.25 5.873-.87 18.958-.06 1.247-.06 1.29-.9 1.313l-1.73.042c-3.55.086-4.52-1.624-4.7-3.53-1.7 3.152-4.39 4.196-6.74 4.254-4.53.11-7.23-2.936-7.32-6.847-.05-2.31.54-14.46.71-16.51.06-1.068.37-1.386 1.21-1.407l1.42-.035c3.69-.09 4.61 1.31 4.67 3.666.06 2.44-.69 10.01-.64 11.88zm34.525-8c-.037-1.556-.648-2.964-2.783-2.91-2.843.068-4.594 3.044-4.797 7.452-.118 2.446-.602 9.927-.583 10.728.018.71-.2.894-.955.912l-1.6.04c-3.643.088-4.568-1.4-4.634-4.11-.066-2.666.683-8.42 1.286-27.416.02-.713.06-1.025.19-1.16.13-.14.31-.143.71-.153l1.73-.04c3.55-.088 4.66 1.707 4.71 3.706.02 1.066-.12 4.183-.34 8.1 1.7-2.974 3.68-4.003 6.97-4.08 4.97-.123 7.38 1.818 7.52 7.863.04 1.864-.6 10.104-.82 15.49-.06 1.29-.15 1.38-1.17 1.404l-1.42.036c-3.74.09-4.62-1.31-4.68-3.798-.02-.578.02-1.113.05-1.603.26-3.918.63-8.996.59-10.46zm12.382 6.366c-.355.008-.493-.165-.5-.477l.074-2.403c.06-1.513.37-3.12 3.13-3.188l12.09-.295c.36-.01.72.204.73.604l-.12 2.41c-.09 1.78-.63 3-3.3 3.06l-12.08.3zm-89.002 41.928c-.033-1.353.114-4.17.673-14.566.66-12.836.738-14.082.71-15.217-.056-2.324-.067-2.757.904-2.835 4.21-.373 7.126-.606 9.343-.66 11.028-.27 15.495 3.245 15.646 9.462.09 3.406-1.1 7.762-5.51 9.006 4.2 1.196 5.84 4.293 5.94 8.4.16 6.596-3.65 12.206-16.89 12.53-8.48.206-10.7-1.85-10.8-6.12zm10.242-10.312l-.38 8.827c1.252.348 2.5.533 3.53.51 4.486-.11 5.17-3.048 5.12-5.103-.065-2.702-1.413-4.726-5.034-4.638-.81.022-1.998.157-3.236.404zm.35-7.797c1.088.24 2.12.38 3.094.35 4.27-.11 5.03-2.4 4.99-4.13-.05-2.22-1.4-4.08-5.02-3.99-.75.02-1.78.15-2.8.34-.06 1.89-.1 4.49-.25 7.41zm29.003 5.15c.056 2.33 1.39 3.47 3.07 3.43 2.895-.07 4.63-3.43 4.93-8.48l.533-8.75c.03-.66.49-.95 1.003-.96l1.68-.05c2.567-.06 4.778.68 4.853 3.76.03 1.26-.22 6.4-.9 20.47-.41 8.27-6.28 10.61-12.25 10.76-6.3.15-10.93-2.17-11.01-5.15-.06-2.38 2.2-3.51 4.67-3.57 1.26-.03.49 3.02 5.76 2.89 4.66-.12 5.29-5.17 5.19-8.91-1.88 3.55-4.94 4.23-7.28 4.29-4.57.11-7.8-2.2-7.96-8.59-.06-2.43.31-8.04.63-14.07.02-.89.52-1.46 1.27-1.48l1.49-.04c3.96-.1 4.84 1.37 4.91 4.17.07 2.84-.69 8.32-.64 10.23zm20.172 5.22c-.132-5.46 1.666-18.22 15.613-18.56 7.514-.19 10.253 3.43 10.36 7.86.242 9.89-13.15 10.76-16.665 10.84.067 2.75 1.593 5.47 5.27 5.38 3.783-.09 3.656-3.07 5.17-3.1.703-.02 4.124.49 4.203 3.73.102 4.21-5.642 6.03-10.453 6.15-6.27.15-13.257-2.49-13.498-12.33zm9.364-4.18c4.433-.16 7.478-1.75 7.413-4.4-.04-1.46-.99-2.79-2.83-2.74-3.19.07-4.28 4.05-4.59 7.14zm28.527 10.25c.053 2.14-.68 5.64-4.92 5.74-3.066.07-3.98-1.75-4.04-4.1-.064-2.71 1.045-5.45 4.878-5.54 2.87-.07 4.03 1.38 4.09 3.89zm-3.045-7.49c-3.372.08-4.23-1.59-4.312-4.91-.046-1.89.22-3.64.873-18.68.03-.82.07-1.18.22-1.34.15-.16.35-.17.81-.18l3.01-.07c3.73-.09 5.25 1.61 5.3 3.55.09 3.63-2.08 15.29-2.98 20.52-.14.82-.34 1.03-1.1 1.05l-1.84.04z"/><circle fill="#0071BC" cx="120.763" cy="56.622" r="12.364"/><path fill="#0F4481" d="M121.652 59.735c2.296-2.654 2.007-6.662-.645-8.957-2.65-2.293-6.66-2.007-8.957.647-2.293 2.65-2.005 6.66.647 8.956 2.65 2.3 6.66 2.01 8.955-.64z"/><path fill="#FFF" d="M117.954 57.788c1.222-1.41 1.065-3.54-.343-4.76-1.4-1.217-3.54-1.067-4.76.343-1.21 1.41-1.06 3.55.35 4.77 1.41 1.22 3.54 1.07 4.76-.34z"/><circle fill="#FFF" cx="123.092" cy="54.706" r="1.643"/><circle fill="#0071BC" cx="151.92" cy="56.406" r="10.265"/><path fill="#0F4481" d="M152.657 58.99c1.906-2.203 1.667-5.53-.534-7.435-2.2-1.904-5.53-1.667-7.437.537-1.904 2.2-1.664 5.53.538 7.435 2.2 1.905 5.53 1.664 7.433-.536z"/><path fill="#FFF" d="M149.588 57.374c1.014-1.17.885-2.938-.285-3.95-1.168-1.012-2.938-.888-3.952.283-1.01 1.17-.88 2.94.29 3.954 1.17 1.02 2.94.89 3.95-.28z"/><circle fill="#FFF" cx="153.854" cy="54.815" r="1.364"/></svg>