<svg xmlns="http://www.w3.org/2000/svg" width="250" height="250" viewBox="0 0 250 250"><g opacity=".15"><path d="M125.933 192.992c2.667 0 5.296-.158 7.88-.463.907-.11 1.812-.23 2.71-.37.753-.12 1.494-.27 2.24-.42 17.123-3.31 31.937-13.1 41.76-26.74 7.96-11.05 12.65-24.61 12.65-39.26 0-10.75-2.525-20.9-7.007-29.91-5.503-11.06-13.96-20.39-24.337-26.96-10.39-6.57-22.7-10.38-35.9-10.38-9.99 0-19.47 2.18-28 6.09-11.85 5.44-21.85 14.22-28.79 25.13-6.62 10.41-10.46 22.77-10.46 36.02 0 10.92 2.61 21.22 7.23 30.33 1.78 3.53 3.86 6.89 6.22 10.03.31.42.63.83.96 1.24 3.93 4.99 8.57 9.41 13.74 13.11 6.68 4.78 14.28 8.36 22.48 10.44 1.63.42 3.29.77 4.98 1.07 3.77.66 7.65 1.01 11.62 1.01zm51.16-28.768v-.008c.38-.5.766-.994 1.127-1.506-.365.513-.75 1.01-1.127 1.514zM54.553 123.7c1.014 0 1.504-1.06 1.576-3.115.15-4.427.37-6.55 1.03-10.61.47-2.885-.04-5.413-1.58-7.922l1.47.45c1.05.346 1.81-.406 2.35-2.174.53-1.75.36-2.78-.62-3.17-3.63-1.43-5.45-2.15-9.08-3.58-.95-.38-1.8.43-2.46 2.49-.38 1.25-.56 1.89-.89 3.18-.68 2.49-.97 3.78-1.47 6.41-.42 2.27-.05 3.54 1 3.74 1.05.2 1.72-.83 2.13-3.01.48-2.56.77-3.81 1.42-6.23l3.06.94c-1.58 5.89-2.13 9.04-2.62 15.75-3.83-.38-5.75-.56-9.58-.94.42-5.97.84-8.82 2.04-14.22.49-2.23.21-3.67-.7-3.9-.9-.24-1.87.79-2.33 2.84-1.61 7.13-2.11 10.93-2.39 19.02-.1 2.67.45 4.05 1.51 4.05 6.42-.02 9.64-.03 16.07-.03zm8.38-45.324c-1.044 1.484-1.075 2.577-.177 3.174l2.743 1.794c.87.584 1.76.153 2.71-1.213.87-1.25.95-2.24.18-3l-2.58-1.95c-.94-.54-1.93-.16-2.89 1.2z"/><path d="M50.848 76.813c.565.856.85 1.284 1.43 2.128 3.467 5.07 5.347 7.47 9.34 11.95l.025-.01c.06.15.172.27.335.35.48.25.896-.02 1.27-.78.393-.77.593-1.15 1.006-1.89.565-1.06.587-1.92.036-2.65-3.685-4.71-5.398-7.21-8.522-12.46.006-.01.008-.01.016-.02 5.996 1.14 8.92 1.92 14.556 3.86.85.3 1.632 0 2.392-.85.087-.1.178-.2.268-.32 1.72-1.91 2.622-2.81 4.504-4.52.598-.54.725-1 .365-1.4-.16-.17-.3-.28-.42-.35-6.16-3.19-9.41-4.57-16.19-6.81l-.7-.23c-.88-.28-1.83.1-2.79 1.2-.11.12-.22.26-.34.41-.01 0-.01-.01-.02-.01-2.68 3.1-3.94 4.76-6.25 8.27l.01.01c-.12.15-.22.3-.32.45-.81 1.26-.95 2.31-.45 3.1.15.25.24.38.4.63zm31.245-11.027c.65.856 1.618.802 2.95-.088 1.63-1.09 2.462-1.604 4.164-2.572 1.218-.704 1.634-1.522 1.222-2.515l-4.84-8.53c3.01 1.62 4.46 2.49 7.24 4.33.69.45 1.65.39 2.9-.12l.01.02c1.27-.52 1.97-1.15 2.1-1.94.49-3.14.81-4.71 1.62-7.86l3.18 9.22c.33.93 1.26 1.13 2.81.71 1.54-.43 2.19-1.11 1.92-2.11-1.69-6.21-2.53-9.32-4.21-15.53-.26-.96-1.4-1.23-3.4-.71-.93.27-1.4.4-2.32.69-1.01.44-1.59.99-1.75 1.62-1.23 4.26-1.71 6.4-2.37 10.64-3.68-2.46-5.62-3.6-9.71-5.67-.89-.24-1.83-.15-2.79.31l-.02-.04c-2.91 1.57-4.32 2.42-7.07 4.26-1.66 1.12-2.15 2.13-1.53 2.95l9.86 13.01zm32.222-12.876c.176 1.046 1.057 1.437 2.65 1.25 6.716-.794 10.15-.83 16.88-.17 1.6.156 2.435-.276 2.574-1.292.13-1.005-.61-1.652-2.32-1.796-6-.593-9.04-.614-15.05-.103l-.48-4.86c6.39-.56 9.63-.54 16.02.07 1.78.17 2.75-.23 2.9-1.28.15-1.08-.69-1.76-2.55-1.94-3.3-.32-4.96-.41-8.27-.44.01-1.88.02-2.82.03-4.7 3.54.02 5.31.11 8.84.45 1.96.19 3.01-.17 3.15-1.16.16-1.1-.77-1.8-2.81-2-7.32-.71-11.04-.73-18.37-.08-2.04.17-2.98.83-2.85 1.88.31 2.5.48 3.75.8 6.26-1.85.23-2.68.91-2.48 1.95l1.3 7.92zm46.378 8.873c5.985 3.083 8.823 4.987 13.888 9.526 1.21 1.07 2.15 1.28 2.9.53 4.59-4.65 6.88-6.97 11.47-11.61.76-.77.41-1.89-1.12-3.26-6.44-5.78-10.04-8.21-17.65-12.13-1.81-.94-2.98-.88-3.47.07-2.95 5.77-4.42 8.65-7.38 14.42-.49.92-.02 1.71 1.39 2.44zM169.68 52c4.863 2.75 7.19 4.338 11.517 7.936l-6.336 7.35c-3.83-3.178-5.89-4.58-10.2-7.01L169.68 52zm12.928 27.988c1.004 1.314 1.878 1.726 2.692 1.16 4.446-3.203 6.67-4.803 11.118-8.01-2.333 6.527-3.787 9.636-7.146 15.392-.408.73-.287 1.707.32 3 1.196 2.556 1.737 3.888 2.688 6.658.573 1.676 1.3 2.38 2.27 2.047 6.138-2.097 9.206-3.144 15.347-5.234 1.01-.34 1.198-1.65.452-3.83-.92-2.66-1.43-3.95-2.52-6.46-.8-1.8-1.76-2.49-2.78-2.15l-9.39 4.9c2.64-4.75 3.82-7.28 5.81-12.53.16-1.02-.09-2.05-.77-3.06-1.04-1.55-1.58-2.3-2.69-3.77-1.32-1.67-2.41-2.13-3.19-1.48-5.02 4.18-7.54 6.27-12.56 10.45-.81.68-.68 1.64.32 2.95zm15.335 41.977c.61-.015.916-.02 1.525-.037 1.056-.204 1.575-1.314 1.474-3.26-.068-1.394-.114-2.083-.23-3.442-.196-2.156-.87-3.113-1.92-2.948l-1.556.275c-1.036.164-1.412 1.22-1.228 3.24.114 1.213.162 1.827.235 3.07.114 1.905.65 2.954 1.7 3.102zm5.767-8.71c.296 2.735.4 4.136.496 7.007.077 2.03.6 3.17 1.647 3.362 3.188.04 4.783.06 7.97.108 1.06-.214 1.608-1.523 1.543-3.848-.11-3.348-.228-4.98-.57-8.164-.276-2.54-1.004-3.67-2.05-3.483-3.16.582-4.74.87-7.9 1.448-1.035.186-1.377 1.35-1.135 3.57zM54.02 154.62c-.358-1.125-.527-1.697-.844-2.857-.593-2.255-.853-3.413-1.288-5.787-.383-2.04-1.043-3.007-2.087-2.837-1.04.17-1.42 1.36-1.04 3.48.46 2.5.73 3.72 1.36 6.09-1.21.37-1.82.55-3.04.91-1.66-6.24-2.23-9.57-2.72-16.66 3.81-.31 5.71-.47 9.52-.78.36 4.94.72 7.3 1.73 11.78.42 1.84 1.33 2.69 2.22 2.39.91-.31 1.25-1.43.89-2.99-1.25-5.46-1.64-8.36-1.86-14.55-.07-2.04-.58-3.1-1.63-3.1l-15.95.04c-1.01 0-1.53 1.32-1.44 3.87.19 5.49.47 8.12 1.31 13.16.6 3.58 2.31 6.2 4.92 7.74l-1.45.44c-1.06.29-1.31 1.58-.62 3.78.68 2.17 1.56 3.02 2.53 2.65l9.01-3.49c.94-.36 1.08-1.44.52-3.31zm4.286 23.03c-1.11-1.573-2.083-2.116-2.972-1.536-1.08.718-1.62 1.078-2.695 1.796-.88.57-.76 1.758.45 3.446 1.11 1.554 2.18 2.044 3.12 1.537l2.52-1.95c.75-.764.58-1.84-.44-3.292z"/><path d="M73.487 177.982c.398-.78.214-1.57-.536-2.41-.08-.097-.18-.196-.28-.298l.02-.012c-2.09-2.38-3.07-3.647-4.88-6.34l-.01.01c-.07-.13-.15-.247-.22-.358-.63-.963-1.37-1.374-2.24-1.212l-.69.123c-.96.178-1.44.26-2.4.416-5.79.92-8.77 1.19-14.78 1.25v.04c-.16-.06-.32-.05-.48.03-.48.24-.49.84-.02 1.79.47.97.71 1.44 1.21 2.39.71 1.32 1.55 1.92 2.47 1.83 5.99-.64 8.93-1.17 14.63-2.61l.02.02c-3.23 4.95-4.7 7.57-7.3 13-.4.82-.13 1.79.83 2.85.11.12.23.25.36.38 2.17 2.37 3.31 3.49 5.69 5.61.76.68 1.32.81 1.68.42.15-.17.25-.31.29-.45 2.07-6.58 3.34-9.76 6.34-15.81l.32-.62zm32.303 17.378c-.728-.19-1.093-.29-1.815-.5-.863-.127-1.52.003-1.98.41-3.24 2.705-4.98 3.98-8.668 6.355-.674-4.146-.87-6.21-.992-10.284-.18-.76-.617-1.35-1.316-1.78 0-.01.01-.02.02-.04-2.27-1.19-3.37-1.84-5.51-3.25-1.3-.85-2.23-.91-2.85-.11-3.93 5.06-5.9 7.59-9.83 12.64-.65.84-.16 1.85 1.52 2.96 2.06 1.36 3.12 1.99 5.27 3.19 1.55.86 2.68.83 3.34 0l4.8-8.32c.15 3.19.3 4.81.78 8.05.13.8.92 1.53 2.38 2.12l-.01.02c1.47.6 2.59.65 3.3.18 2.78-1.86 4.11-2.84 6.64-4.89l-3.17 8.98c-.3.91.51 1.68 2.46 2.21s3.07.27 3.35-.71l4.17-15.14c.26-.93-.4-1.59-1.93-2.05zm29.86 17.927c-7.01.652-10.567.66-17.576.05.188-1.89.283-2.834.47-4.728 6.605.56 9.955.55 16.552-.08 1.842-.18 2.682-.82 2.533-1.84-.16-1.06-1.12-1.46-2.88-1.29-3.14.29-4.72.36-7.88.38l-.03-4.58c2.99-.02 4.49-.09 7.47-.38 1.66-.16 2.41-.77 2.27-1.74-.16-1.08-1.03-1.5-2.61-1.35-5.72.55-8.62.57-14.34.09-1.59-.14-2.45.27-2.59 1.29l-.85 6.09c-1.77-.2-2.72.18-2.88 1.2l-1.35 7.71c-.18 1.02.74 1.69 2.76 1.92 8.48.98 12.82 1.03 21.33.21 2.02-.19 2.89-.87 2.74-1.85-.15-.97-1.18-1.35-3.17-1.14zm41.676-32.945c-.752-.747-1.696-.557-2.89.492-5.028 4.41-7.84 6.257-13.774 9.252-1.41.714-1.892 1.5-1.406 2.425 2.945 5.62 4.422 8.43 7.375 14.04.46.92 1.6.97 3.38.07 7.57-3.82 11.15-6.18 17.56-11.81 1.52-1.33 1.88-2.41 1.14-3.14-4.55-4.52-6.82-6.79-11.38-11.31zm-6.066 22.054c-1.99-3.228-2.985-4.84-4.978-8.066 4.47-2.467 6.605-3.887 10.584-7.12 2.515 2.867 3.772 4.3 6.29 7.166-4.47 3.64-6.873 5.24-11.896 8.02zm38.28-44.604c-6.087-2.067-9.127-3.098-15.212-5.16-1.003-.34-1.75.36-2.334 2.025-.712 2.038-1.106 3.028-1.96 4.947-.606 1.386-.497 2.348.388 2.956 3.725 1.912 5.59 2.864 9.313 4.774-5.294.782-7.923.924-13.045.778-.888.15-1.583.607-2.113 1.38-.82 1.18-1.243 1.754-2.122 2.875-.982 1.314-1.117 2.25-.344 2.882 4.99 4.07 7.48 6.11 12.46 10.18.81.66 1.89.21 3.16-1.42 1.27-1.63 1.47-2.79.68-3.37l-11.04-7.81c6.52.48 9.9.4 16.72-.55.86-.14 1.71-.99 2.47-2.6 1.52-3.17 2.2-4.82 3.4-8.26.73-2.08.55-3.33-.41-3.65zm-12.783-15.7c3.14.54 4.71.807 7.85 1.345 1.028.18 1.727-.815 1.973-3.07.307-2.775.41-4.198.51-7.112.062-2.062-.474-3.224-1.514-3.417-3.165-.047-4.75-.066-7.913-.104-1.05.17-1.57 1.166-1.643 2.945-.086 2.56-.178 3.81-.447 6.25-.217 1.94.147 2.97 1.184 3.15zm16.635-10.256l-1.514-.037c-1.055.17-1.59 1.36-1.705 3.5-.088 1.53-.147 2.29-.29 3.78-.22 2.37.133 3.59 1.172 3.75l1.55.2c1.03.16 1.727-.97 1.96-3.48.13-1.51.182-2.27.26-3.81.118-2.36-.397-3.7-1.433-3.93z"/></g><path fill="#D0D1D2" d="M51.802 107.005s-6.316-6.396-12.838-5.582c0 0 11.81 3.844 9.383 5.983l3.455-.4z"/><path fill="#404041" d="M123.003 190.063c2.667 0 5.295-.158 7.878-.463.91-.104 1.82-.227 2.72-.37.76-.118 1.5-.27 2.24-.41 17.13-3.313 31.94-13.1 41.76-26.736 7.96-11.047 12.65-24.605 12.65-39.26 0-10.745-2.52-20.9-7-29.91-5.5-11.058-13.96-20.388-24.33-26.954-10.39-6.57-22.69-10.377-35.9-10.377-9.99 0-19.47 2.183-27.99 6.09-11.86 5.437-21.86 14.215-28.8 25.13-6.62 10.413-10.45 22.77-10.45 36.02 0 10.916 2.62 21.216 7.23 30.332 1.79 3.53 3.87 6.886 6.23 10.023.32.42.64.836.96 1.246 3.94 4.993 8.57 9.41 13.75 13.116 6.69 4.783 14.29 8.363 22.48 10.445 1.64.416 3.3.77 4.98 1.064 3.78.65 7.66 1.01 11.62 1.01zm35.176-13.754l-.7.44.7-.45zm-2.72 1.7c-.13.07-.26.14-.39.22.13-.08.26-.15.38-.22zm18.7-16.72v-.01c.38-.5.76-1 1.12-1.51-.37.51-.75 1.01-1.13 1.51zm-68.13 23.29l-.01-.01zm-17.67-7.92c.22.14.44.27.67.42-.23-.14-.45-.28-.67-.42zm2.21 1.36l.77.44-.78-.45zm2.29 1.28c.26.14.52.27.78.41-.27-.14-.53-.27-.79-.41zm2.38 1.21l.73.35-.73-.35zm2.52 1.15l.59.25-.59-.26zm2.79 1.12c.07.02.15.06.22.09l-.23-.09zm16.6 3.79l-.92-.09.92.09zm-3.02-.35c-.25-.04-.5-.07-.75-.11.25.04.5.07.75.1zm5.94.55c-.29-.01-.58-.03-.87-.05.29.01.58.04.87.05zm4.77.04c-.62.02-1.25.03-1.87.03.62 0 1.24-.02 1.87-.03zm1.8-.08l-.36.01.36-.02zm-75.03-65.97c1.01 0 1.5-1.06 1.57-3.12.15-4.43.37-6.55 1.03-10.61.47-2.89-.04-5.41-1.58-7.92l1.47.45c1.05.34 1.81-.41 2.35-2.18.53-1.75.36-2.78-.61-3.17l-9.08-3.58c-.95-.37-1.8.43-2.46 2.49-.38 1.26-.56 1.89-.89 3.18-.67 2.49-.97 3.78-1.47 6.41-.42 2.26-.04 3.54 1.01 3.74 1.05.19 1.72-.83 2.13-3.01.48-2.56.77-3.81 1.42-6.23l3.06.94c-1.58 5.89-2.13 9.04-2.62 15.76-3.83-.37-5.75-.56-9.58-.94.42-5.97.84-8.82 2.04-14.22.49-2.23.2-3.67-.7-3.9-.91-.24-1.88.79-2.34 2.84-1.6 7.13-2.11 10.93-2.39 19.02-.1 2.67.46 4.05 1.52 4.05 6.42-.02 9.64-.03 16.07-.04zM60 75.44c-1.043 1.484-1.074 2.577-.176 3.173 1.098.717 1.646 1.075 2.743 1.794.87.58 1.762.15 2.71-1.22.87-1.25.95-2.24.184-3l-2.58-1.95c-.93-.55-1.93-.17-2.89 1.2z"/><path fill="#404041" d="M47.918 73.884c.565.857.85 1.285 1.43 2.128 3.467 5.07 5.348 7.47 9.34 11.947l.026-.02c.06.15.172.26.335.34.47.24.89-.03 1.26-.79.39-.77.59-1.15 1-1.9.56-1.06.58-1.93.03-2.65-3.69-4.71-5.4-7.22-8.53-12.46l.01-.03c5.99 1.13 8.92 1.92 14.55 3.85.85.29 1.63 0 2.39-.86.09-.1.18-.21.27-.32 1.72-1.91 2.62-2.82 4.5-4.52.6-.54.72-1 .36-1.4-.15-.17-.29-.29-.42-.35-6.16-3.19-9.41-4.58-16.19-6.81-.28-.1-.42-.14-.7-.23-.88-.29-1.83.1-2.79 1.19-.11.12-.22.26-.33.41l-.02-.02c-2.68 3.1-3.94 4.76-6.25 8.27l.02.01c-.12.15-.22.3-.32.44-.81 1.25-.95 2.31-.44 3.1l.4.62zm31.246-11.028c.65.855 1.618.802 2.95-.088 1.63-1.09 2.46-1.604 4.163-2.572 1.218-.704 1.634-1.522 1.223-2.515l-4.836-8.53c3.014 1.62 4.464 2.49 7.24 4.33.695.45 1.65.39 2.904-.12l.008.02c1.268-.52 1.97-1.15 2.107-1.94.49-3.13.816-4.71 1.625-7.86 1.276 3.69 1.91 5.54 3.187 9.23.336.93 1.265 1.13 2.81.7 1.544-.43 2.19-1.11 1.918-2.11l-4.208-15.54c-.26-.96-1.4-1.23-3.395-.71-.93.27-1.395.41-2.317.69-1.012.44-1.59.99-1.75 1.62-1.233 4.26-1.707 6.4-2.37 10.64-3.676-2.46-5.623-3.6-9.713-5.67-.89-.25-1.83-.15-2.788.31-.01-.02-.013-.03-.023-.04-2.91 1.56-4.33 2.41-7.07 4.25-1.67 1.12-2.15 2.13-1.53 2.95 3.94 5.2 5.91 7.8 9.86 13zm32.222-12.876c.176 1.047 1.057 1.437 2.65 1.25 6.716-.793 10.15-.828 16.88-.17 1.6.156 2.435-.275 2.574-1.29.135-1.007-.604-1.653-2.312-1.797-5.994-.592-9.04-.613-15.045-.103-.188-1.943-.285-2.915-.474-4.856 6.39-.556 9.63-.54 16.02.077 1.78.17 2.75-.22 2.9-1.27.15-1.08-.7-1.75-2.55-1.93-3.3-.32-4.96-.41-8.28-.44.01-1.87.02-2.81.03-4.7 3.54.02 5.31.11 8.84.45 1.96.19 3.01-.16 3.15-1.16.16-1.1-.77-1.8-2.81-1.99-7.32-.7-11.04-.72-18.37-.08-2.04.18-2.98.84-2.85 1.89.31 2.51.48 3.76.8 6.26-1.85.23-2.68.91-2.48 1.96l1.3 7.92zm46.38 8.874c5.983 3.084 8.82 4.988 13.886 9.526 1.204 1.078 2.147 1.28 2.892.53 4.585-4.64 6.876-6.962 11.464-11.604.757-.766.404-1.883-1.127-3.255-6.43-5.77-10.03-8.2-17.64-12.13-1.81-.93-2.98-.87-3.47.08-2.95 5.77-4.43 8.65-7.38 14.42-.49.92-.02 1.71 1.39 2.44zm8.984-9.784c4.864 2.75 7.19 4.34 11.518 7.936-2.536 2.94-3.803 4.41-6.337 7.352-3.83-3.18-5.89-4.58-10.2-7.01l5.02-8.278zm12.93 27.99c1.003 1.313 1.877 1.725 2.69 1.16l11.12-8.01c-2.334 6.526-3.788 9.635-7.147 15.39-.408.73-.287 1.708.32 3 1.197 2.557 1.737 3.89 2.688 6.66.58 1.675 1.3 2.38 2.28 2.046 6.14-2.097 9.21-3.144 15.35-5.235 1.01-.34 1.2-1.65.45-3.83-.91-2.66-1.42-3.95-2.51-6.46-.79-1.8-1.75-2.49-2.78-2.15l-9.38 4.9c2.64-4.75 3.82-7.28 5.81-12.53.17-1.02-.09-2.05-.76-3.06-1.04-1.55-1.58-2.3-2.69-3.77-1.31-1.67-2.4-2.13-3.18-1.48l-12.55 10.45c-.81.68-.68 1.64.33 2.95zm15.334 41.975c.61-.015.917-.02 1.526-.036 1.055-.21 1.575-1.32 1.473-3.26-.068-1.4-.114-2.09-.23-3.45-.195-2.16-.87-3.12-1.92-2.95l-1.555.27c-1.037.16-1.413 1.22-1.23 3.24.115 1.21.163 1.82.236 3.07.114 1.9.65 2.95 1.7 3.1zm5.768-8.708c.295 2.734.397 4.135.495 7.006.077 2.03.6 3.17 1.646 3.363 3.188.04 4.783.06 7.97.108 1.06-.214 1.608-1.524 1.543-3.848-.11-3.35-.227-4.98-.57-8.164-.276-2.54-1.004-3.67-2.05-3.483-3.16.58-4.74.87-7.9 1.44-1.035.18-1.376 1.35-1.134 3.57zM51.092 151.69c-.358-1.125-.528-1.697-.845-2.856-.593-2.256-.853-3.414-1.287-5.788-.383-2.038-1.044-3.006-2.087-2.837-1.043.17-1.43 1.36-1.04 3.48.456 2.5.73 3.72 1.353 6.09-1.213.37-1.823.55-3.038.91-1.66-6.24-2.23-9.57-2.72-16.66 3.805-.31 5.708-.47 9.513-.78.36 4.95.72 7.3 1.73 11.78.42 1.85 1.33 2.69 2.23 2.39.91-.31 1.25-1.43.89-2.99-1.25-5.46-1.64-8.36-1.86-14.55-.07-2.04-.58-3.1-1.63-3.1l-15.95.04c-1.01 0-1.53 1.32-1.44 3.87.19 5.49.46 8.12 1.31 13.16.6 3.58 2.31 6.2 4.92 7.74l-1.45.43c-1.06.29-1.3 1.59-.61 3.78.68 2.17 1.56 3.02 2.53 2.65l9.01-3.49c.94-.36 1.08-1.44.52-3.31zm4.284 23.033c-1.11-1.575-2.083-2.118-2.972-1.537-1.08.717-1.62 1.077-2.695 1.795-.88.57-.76 1.76.45 3.45 1.11 1.56 2.18 2.05 3.12 1.54l2.52-1.95c.75-.76.58-1.84-.44-3.29z"/><path fill="#404041" d="M70.557 175.053c.4-.78.214-1.57-.536-2.41-.08-.097-.18-.195-.28-.298l.01-.01c-2.09-2.383-3.07-3.648-4.88-6.34l-.01.01c-.07-.13-.14-.25-.22-.36-.63-.963-1.37-1.373-2.24-1.21l-.69.122c-.96.177-1.44.26-2.4.415-5.79.92-8.77 1.18-14.78 1.248v.038c-.16-.062-.32-.056-.48.024-.47.237-.49.84-.02 1.783.47.966.71 1.44 1.21 2.384.72 1.31 1.56 1.91 2.47 1.82 5.99-.65 8.93-1.18 14.64-2.61l.02.02c-3.23 4.95-4.7 7.56-7.3 13-.39.81-.12 1.78.84 2.84.11.12.23.24.37.37 2.17 2.36 3.31 3.49 5.69 5.6.76.67 1.32.8 1.68.41.15-.17.25-.31.29-.45 2.07-6.58 3.35-9.77 6.35-15.82l.32-.62zm32.305 17.38c-.73-.193-1.094-.29-1.817-.5-.862-.13-1.52.002-1.98.41-3.24 2.703-4.98 3.98-8.668 6.354-.675-4.147-.87-6.21-.992-10.284-.18-.766-.617-1.355-1.316-1.784 0-.02.01-.03.02-.04-2.27-1.2-3.37-1.85-5.51-3.26-1.3-.85-2.23-.91-2.85-.11-3.93 5.06-5.9 7.58-9.83 12.64-.65.83-.16 1.85 1.52 2.95 2.06 1.35 3.12 1.99 5.27 3.19 1.55.85 2.68.83 3.34-.01l4.8-8.32c.15 3.19.3 4.8.78 8.04.13.8.92 1.52 2.38 2.12l-.01.01c1.47.59 2.59.64 3.3.18 2.78-1.87 4.11-2.85 6.64-4.9l-3.17 8.98c-.3.9.51 1.67 2.46 2.2 1.95.53 3.07.26 3.35-.72l4.17-15.14c.26-.94-.39-1.6-1.93-2.05zm29.86 17.924c-7.01.652-10.568.662-17.577.05.19-1.89.283-2.833.47-4.728 6.605.56 9.954.55 16.552-.08 1.842-.18 2.682-.82 2.533-1.84-.153-1.06-1.11-1.46-2.88-1.29-3.14.29-4.72.36-7.876.37l-.028-4.58c2.997-.02 4.494-.09 7.477-.38 1.663-.16 2.413-.77 2.27-1.74-.157-1.07-1.023-1.5-2.613-1.35-5.712.55-8.616.57-14.336.09-1.592-.14-2.452.27-2.59 1.29-.338 2.43-.507 3.65-.85 6.09-1.764-.2-2.722.18-2.877 1.2-.537 3.08-.805 4.63-1.344 7.71-.175 1.02.74 1.69 2.76 1.92 8.485.98 12.825 1.03 21.33.21 2.022-.2 2.897-.87 2.745-1.85-.153-.97-1.178-1.36-3.166-1.15zm41.674-32.945c-.75-.746-1.696-.557-2.89.492-5.027 4.41-7.84 6.258-13.774 9.253-1.41.713-1.892 1.5-1.406 2.425 2.945 5.614 4.422 8.42 7.375 14.03.46.92 1.6.97 3.38.07 7.57-3.823 11.15-6.186 17.56-11.813 1.52-1.34 1.88-2.42 1.14-3.15-4.55-4.53-6.82-6.79-11.38-11.31zm-6.065 22.055c-1.99-3.23-2.98-4.842-4.97-8.067 4.47-2.466 6.61-3.887 10.59-7.118l6.29 7.165c-4.47 3.638-6.87 5.24-11.89 8.02zm38.28-44.604c-6.08-2.067-9.12-3.1-15.21-5.162-1-.33-1.75.37-2.33 2.03-.71 2.04-1.1 3.03-1.96 4.95-.6 1.39-.49 2.35.39 2.96 3.73 1.92 5.59 2.87 9.32 4.78-5.29.78-7.92.93-13.04.78-.88.15-1.58.61-2.11 1.38-.82 1.18-1.24 1.76-2.12 2.88-.98 1.32-1.11 2.25-.34 2.89 4.99 4.07 7.48 6.11 12.46 10.19.81.66 1.89.22 3.16-1.41 1.27-1.63 1.47-2.78.68-3.37l-11.04-7.81c6.52.48 9.9.4 16.72-.55.86-.13 1.71-.98 2.47-2.59 1.52-3.17 2.2-4.82 3.4-8.25.73-2.08.55-3.33-.41-3.65zm-12.78-15.7c3.14.54 4.71.806 7.85 1.344 1.03.18 1.73-.815 1.98-3.07.31-2.775.41-4.197.51-7.112.07-2.062-.47-3.224-1.51-3.416-3.16-.05-4.75-.07-7.91-.11-1.05.17-1.57 1.16-1.64 2.94-.08 2.56-.17 3.81-.44 6.25-.22 1.94.15 2.97 1.18 3.15zM68.55 89.133c-6.08 9.794-9.598 21.338-9.598 33.69 0 10.012 2.32 19.49 6.435 27.94l32.396-32.397L68.55 89.134z"/><path fill="#1A1A1A" d="M86.228 175.234c10.415 7.33 23.1 11.643 36.775 11.643 2.627 0 5.22-.16 7.763-.474l-27.854-27.854-16.684 16.68zm89.062-15.454c7.407-10.45 11.767-23.204 11.767-36.958 0-9.843-2.233-19.174-6.22-27.514l-35.008 35.01 29.46 29.462zm-18.722-91.49c-9.765-6.035-21.266-9.52-33.565-9.52-9.218 0-17.986 1.96-25.913 5.48l28.358 35.16 31.12-31.12z"/><path fill="gray" d="M123.003 57.175c12.742 0 24.64 3.653 34.723 9.958l1.174-1.174c-10.387-6.57-22.696-10.38-35.897-10.38-9.99 0-19.47 2.18-27.994 6.09l1.04 1.29c8.23-3.72 17.35-5.79 26.95-5.79zm-65.646 65.648c0-12.793 3.68-24.738 10.035-34.844l-1.174-1.18c-6.62 10.41-10.454 22.76-10.454 36.02 0 10.91 2.613 21.21 7.23 30.33l1.202-1.21c-4.37-8.79-6.84-18.67-6.84-29.13zm131.29 0c0 14.194-4.526 27.35-12.214 38.1l1.16 1.16c7.96-11.047 12.65-24.605 12.65-39.26 0-10.745-2.526-20.9-7.008-29.91l-1.204 1.203c4.24 8.676 6.62 18.418 6.62 28.707z"/><path fill="gray" d="M182.032 94.116l-1.194 1.193c3.985 8.34 6.22 17.67 6.22 27.51 0 13.75-4.36 26.51-11.768 36.96l1.144 1.14c7.688-10.75 12.215-23.91 12.215-38.1-.01-10.29-2.38-20.03-6.62-28.71zm-59.03-35.346c12.3 0 23.8 3.485 33.566 9.52l1.158-1.156c-10.082-6.305-21.98-9.958-34.723-9.958-9.6 0-18.724 2.072-26.95 5.79l1.037 1.286c7.927-3.522 16.695-5.483 25.913-5.483zM58.95 122.823c0-12.35 3.517-23.895 9.597-33.688L67.39 87.98c-6.353 10.105-10.034 22.05-10.034 34.844 0 10.458 2.47 20.343 6.84 29.127l1.187-1.18c-4.113-8.45-6.433-17.92-6.433-27.94z"/><path fill="#075" d="M156.568 68.29l-31.12 31.12L97.09 64.25c-11.824 5.252-21.774 13.983-28.543 24.884l29.232 29.232-32.4 32.396c1.52 3.118 3.27 6.1 5.26 8.91 1.04-2.853 1.9-5.985 2.54-9.422 0 0 .91-.44.83.875 0 0-.27 4.164-2.41 9.887 4.08 5.48 9.02 10.286 14.61 14.222l16.69-16.684 27.85 27.85c18.35-2.23 34.33-12.24 44.52-26.63l-29.46-29.46 35.01-35.01c-5.33-11.166-13.8-20.555-24.27-27.02z"/><path fill="#FFF" d="M130.877 163.963l1.925-4.89c-9.416-5.49-35.404-20.186-1.925 4.89zm37.738-49.855c-11.01-8.22-12.047 27.104-12.047 27.104.028.04.054.074.082.116 2.048.867 5.288 1.736 8.065.256.09-.207.14-.338.14-.338-.77-11.82-.518-17.474.127-19.852.82-4.648 2.703-10.146 5.994 6.632 0 0 2.14 12.22.475 22.438-1.24 29.024-23.17 18.345-31.98 12.853 3.44 5.308 13.46 17.452 28.76 8.733 5.88-5.51 6.72-14.788 6.72-14.788 4.69-31.343-6.32-43.154-6.32-43.154z"/><path fill="#CCC" d="M139.47 163.318c-.878-1.354-1.328-2.265-1.328-2.265l-4.628-3.79-.712 1.81c1.845 1.075 3.057 1.8 3.057 1.8s1.38 1.057 3.61 2.445zm0 0c-2.225-1.39-3.61-2.446-3.61-2.446s-1.213-.724-3.058-1.8l-1.925 4.89c.084.064.16.122.247.186 20.255 15.16 31.21 13.423 37.1 7.904-15.302 8.72-25.313-3.426-28.753-8.734zm31.507-35.29c-3.29-16.78-5.173-11.28-5.994-6.633 1.167-4.323 3.633 2.184 3.633 2.184 2.317 11.43 3.123 20.21 2.836 26.88 1.664-10.22-.475-22.44-.475-22.44zM156.65 141.33c4.67 6.87 7.44 1.686 8.065.255-2.777 1.48-6.017.61-8.065-.256z"/><path fill="gray" d="M96.053 62.965l-1.043-1.292c-11.853 5.436-21.854 14.215-28.792 25.13l1.174 1.176c6.858-10.91 16.83-19.67 28.66-25.02zm85.98 31.15l1.203-1.202c-5.502-11.058-13.96-20.388-24.336-26.954l-1.174 1.17c10.416 6.52 18.883 15.88 24.306 26.98zm-112.077 67.33c-2.18-2.984-4.102-6.16-5.76-9.495l-1.202 1.204c1.786 3.53 3.865 6.886 6.222 10.023.254-.565.5-1.142.74-1.733zm.968 1.295c-.23.552-.48 1.11-.748 1.684 3.937 4.993 8.57 9.41 13.748 13.116l1.164-1.166c-5.373-3.815-10.152-8.413-14.164-13.634z"/><path fill="gray" d="M71.612 161.013c-.21.563-.44 1.14-.688 1.728 4.012 5.23 8.79 9.82 14.164 13.64l1.14-1.14c-5.593-3.93-10.533-8.74-14.616-14.22zm-6.228-10.25l-1.188 1.188c1.658 3.34 3.58 6.52 5.76 9.5.235-.58.466-1.16.687-1.77-1.986-2.81-3.74-5.79-5.26-8.91zM180.838 95.31l1.194-1.194c-5.423-11.104-13.89-20.46-24.306-26.982l-1.158 1.156c10.466 6.465 18.938 15.854 24.27 27.02zM97.09 64.25l-1.037-1.285c-11.83 5.348-21.803 14.108-28.66 25.014l1.155 1.15c6.768-10.9 16.718-19.63 28.542-24.88z"/><path fill="gray" d="M73.186 150.25c-.635 3.438-1.5 6.57-2.543 9.424.318.45.64.898.97 1.34 2.146-5.724 2.41-9.888 2.41-9.888.08-1.315-.837-.875-.837-.875zm-3.97 12.928c.315.42.634.836.96 1.246.267-.572.517-1.132.748-1.684-.328-.428-.65-.858-.968-1.296-.24.59-.486 1.168-.74 1.734z"/><path fill="gray" d="M70.643 159.674c-.22.604-.45 1.192-.687 1.77.318.44.64.87.968 1.297.25-.58.477-1.16.688-1.72-.33-.44-.652-.89-.97-1.34z"/><path fill="#FFF" d="M116.135 169.836c10.8-19.1 17.63-30.772 17.63-30.772s-27.324 29.093-27.728 45.526c1.5.412 3.023.775 4.565 1.08-.07-3.164 1.17-8.115 5.533-15.834zm3.445-35.79s-13.814 29.31-43.834 4.672c0 0-2.915-3.316 2-6.36 0 0 .766-.5.588-1.145 0 0-2.527-4.715-5.172 5.266 0 0-1.008-2.26-4.885-4.99 0 0-3.516.38 2.236 5.73 0 0-1.08.6-5.862-1.87 0 0-1.5.65.61 2.3 0 0 1.76 1.67 4.94 1.95 0 0-.6 2.33 3.88 2.25 0 0 32.55 28.08 48.15-1.02 0 0 4.77-5.29-2.63-6.81z"/><path fill="#FFF" d="M119.48 131.835s.908 3.706-4.786 11.853l-1.937 3.464-.796 5.766s-13.57 24.225 18.08 23.57 22.46-45.108 22.46-45.108l-17.2-5.628-15.81 6.083z"/><path fill="#D0D2D3" d="M112.757 151.255s5.59-9.13 6.715-16.992l6.41 3.603-1.872 12.63-5.216 2.617-6.037-1.858zm-28.85-56.612s-7.04-12.806 6.03-8.358c13.074 4.448-6.03 8.358-6.03 8.358z"/><path fill="#919496" d="M86.375 91.11s-6.266-6.326-1.76 2.14c4.502 8.468 1.76-2.14 1.76-2.14zm58.82-2.39l3.666 8.023s11.28-14.03-3.66-8.024z"/><path fill="#CCC" d="M158.673 123.64s7.303 14.534 0 23.02c-7.303 8.487-3.48-17.853-3.48-17.853l3.48-5.168z"/><path fill="#FFF" d="M152.344 100.883c-2.384-14.073-17.225-24.917-35.19-24.917-19.623 0-35.53 12.938-35.53 28.896 0 15.96 15.907 28.895 35.53 28.895.738 0 1.47-.024 2.195-.06.78 3.43 1.44 8.75-.94 11.97 0 0-16.3 12.19-7.99 23.767-.01-.085-2.14-20.29 13.41-23.887L121 132.82s5.88-1.38 12.744-4.413v15.938s-16.406 19.163-7.115 32.135c16.25-.494 48.95-9.19 25.69-75.597z"/><path fill="#D0D2D3" d="M133.765 144.346v-15.938c-6.865 3.032-12.742 4.413-12.742 4.413l2.824 12.73c-15.553 3.6-13.424 23.8-13.414 23.89 1.625 2.26 2.438 3.03 6.242 5.14 0 0 5.127 2.06 9.973 1.91-9.292-12.97 7.117-32.13 7.117-32.13zm-24.03-61.696s27.51-27.872 30.82 15.806l-30.82-15.805z"/><ellipse fill="#D0D2D3" cx="111.818" cy="105.499" rx="30.196" ry="22.909"/><path fill="#D0D2D3" d="M83.926 98.583s-1.087-32.377 22.93-15.68l.668 2.443-23.598 13.237zm57.93-11.508s-.346 2.968 2.414 3.382c0 0 13.52-4.415 3.656 7.45 0 0-1.104 1.794 1.173 3.38 0 0 9.1-7.796 6.21-13.73 0 .002-2.21-6.484-13.46-.482z"/><ellipse fill="#FFF" cx="96.397" cy="95.301" rx="11.804" ry="15.623"/><ellipse fill="#FFF" cx="123.845" cy="95.652" rx="14.57" ry="19.438"/><path fill="#1D8FCD" d="M102.687 112.585s2.626-5.343 3.594-2.52c0 0 2.17-3.178 2.17 1.922 0 0-2.05 1.403-2.17 3.102 0 0-2.12-.86-3.59-2.51z"/><path fill="#FFF" d="M106.28 113.786s.134-.72 1.15-1.44c0 0-.377-1.38-1.15 1.44z"/><path fill="#D0D2D3" d="M95.924 148.458l-1.994 4.233-3.874-1.24v-4.29s3.87 1.19 5.868 1.31z"/><path fill="gray" d="M85.088 176.374l-1.164 1.166c6.685 4.783 14.283 8.363 22.48 10.445-.148-.556-.248-1.137-.307-1.737-7.636-2.04-14.73-5.413-21.01-9.874zm37.915 12.096c-4.176 0-8.26-.4-12.22-1.152.142.69.352 1.265.6 1.732 3.778.658 7.656 1.013 11.62 1.013 2.668 0 5.296-.158 7.88-.463-.143-.523-.267-1.048-.37-1.57-2.466.283-4.967.44-7.51.44z"/><path fill="gray" d="M106.037 184.59c-7.183-1.977-13.867-5.17-19.81-9.355l-1.14 1.14c6.28 4.46 13.374 7.834 21.01 9.874-.053-.54-.074-1.1-.06-1.66zm4.745 2.727c3.96.75 8.045 1.152 12.22 1.152 2.543 0 5.044-.16 7.51-.44-.104-.53-.192-1.05-.26-1.57-2.382.27-4.8.41-7.25.41-4.242 0-8.388-.42-12.4-1.21.013.61.08 1.16.18 1.64z"/><path fill="#929497" d="M177.593 162.083l-1.16-1.16c-9.603 13.43-24.137 23.097-40.933 26.347.093.537.205 1.05.332 1.55 17.124-3.313 31.94-13.1 41.76-26.737zm-71.496 24.165c.06.6.16 1.182.307 1.737 1.636.416 3.297.77 4.98 1.064-.25-.47-.46-1.05-.603-1.74-1.58-.3-3.14-.66-4.68-1.07zm0 0c1.54.412 3.102.77 4.685 1.07-.1-.488-.167-1.03-.18-1.65-1.542-.303-3.064-.666-4.565-1.078-.014.567.007 1.12.06 1.658z"/><path fill="gray" d="M176.434 160.922l-1.144-1.142c-9.348 13.188-23.558 22.678-39.992 25.886.05.55.115 1.09.202 1.604 16.796-3.25 31.33-12.918 40.934-26.348z"/><path fill="#FFF" d="M135.5 187.27c-1.096.213-2.2.398-3.313.555 1.114-.157 2.217-.343 3.313-.555zm4.75-20.11c12.627-22.333-5.003-1.918-5.003-1.918s-6.474 9.978-4.995 21.217l.515-.06c1.53-.19 3.037-.45 4.53-.74-.432-4.78.65-10.9 4.952-18.51z"/><path fill="#929497" d="M130.767 186.403l1.42 1.42c1.114-.155 2.218-.34 3.313-.554-.087-.52-.152-1.06-.202-1.61-1.494.29-3.002.55-4.53.74zm1.42 1.42c-.556.08-1.115.143-1.675.206.104.52.23 1.04.37 1.57.91-.11 1.813-.23 2.71-.37l-1.405-1.41zm0 0l-1.42-1.42c-.17.02-.344.036-.515.056.068.52.157 1.04.26 1.57.56-.07 1.12-.13 1.675-.21zm0 0l1.406 1.406c.754-.12 1.494-.27 2.24-.42-.128-.5-.24-1.01-.333-1.55-1.096.21-2.2.4-3.313.55z"/><path fill="#D0D2D3" d="M85.936 198.5s-.24-3.972 3.902-2.676c0 0-3.18-.625-3.902 2.677zm28.758 8.767s.908-4.442 7.058-2.04c0 0-6.697-3.844-7.058 2.04zm-4.364 0s.33-3.925 2.684-2.642c0 0-1.766-.48-2.684 2.642zm15.92-50.645s8.604-5.013 15.348-24.583l6.376 2.22s3.244 28.29-23.86 29.41l2.136-7.06z"/><path fill="#FFF" d="M141.598 132.04s-2.47 38.524-46.516 24.377c0 0-4.68-2.397-.568-7.923 0 0 .63-.886.148-1.524 0 0-4.863-4.117-3.423 8.1 0 0-2.11-2.058-7.6-3.386 0 0-3.73 1.957 4.98 5.373 0 0-.93 1.14-7.31.5 0 0-1.38 1.38 1.67 2.283 0 0 2.67 1.08 6.32 0 0 0 .36 2.845 5.28.79 0 0 48.36 16.857 52.9-22.205 0 0 2.96-7.95-5.9-6.386zm-73.39-.537s2.287-.662 3.526 1.087c0 0 .115 2.784-4.03.622v-1.173l.503-.54z"/><path fill="#6C6F71" d="M85 118.52l-.282 5.82s-1.897 11.558 4.667 11.13c0 0 4.975 1.342 12.582-9.03"/><path fill="#D0D2D3" d="M108.824 118.24c-14.445 18.443-18.108 16.73-18.108 16.73-7.92 1.333-5.716-10.844-5.716-10.844.157-1.806 0-10.893 0-10.893 8.338-14.604 11.638 1.384 11.638 1.384"/><path fill="#6C6F71" d="M95.647 111.43s2.513 2.03 8.853 2.83l.755.358s-7.76.055-9.608-3.188z"/><path fill="#6C6F71" d="M96.342 113.46s-2.644-11.487-9.1-3.603c0 0 6.092-5.35 9.1 3.603zm2.573 16.7s8.02-8.485 12.94-9.65l-1.406-1.164-11.54 10.278v.535z"/><path fill="#919496" d="M110.45 113.46s-1.835 13.562 10.46 5.816c0 0-13.2 10.438-10.46-5.816zm-13.68 2.296s-.2 4.234-.428 6.61c0 0 2.085 6.996-.443 8.753 0 0 3.71-1.15.87-8.76 0 0 .43-4.32 0-6.61zm-9.923-5.478s-2.428 1.993-1.643 7.428c0 0-1.457-5.63 1.643-7.428z"/><path fill="#BE1E2D" d="M85.854 117.706s-.532-5.067 1.783-6.954c2.316-1.887 4.156-.73 4.156-.73l3.662 3.438s.986 6.973.192 9.115c0 0 2.51 10.587-5.616 11.185 0 0-5.36-1.195-4.17-9.32v-6.734z"/><path fill="#919496" d="M96.962 118.52s3.34 3.135 8.903-.338c0 0-3.432 3.225-8.994 1.635l.1-1.296zm-.192 3.657l7.73-1.474-7.628 2.235-.282-.363m.904 4.45s2.935-4.462 8.982-5.417c0 0-5.843 1.613-8.982 6.562v-1.145z"/><path fill="#F69C95" d="M87.637 110.752s.644 3.02 7.818 2.988c0 0-2.23-7.956-7.818-2.988zm.317 21.044s.643-3.02 7.818-2.99c0 0-2.232 7.96-7.818 2.99z"/><path fill="#D0D2D3" d="M68.685 133.428l.836 1.645 1.36-1.987"/><path fill="#FFF" d="M93.844 128.256l-.324-.75-2.39.75v-.75l-2.393.286s-.454 1.05.197 3.343c0 0 2.27 3.638 2.888-.494 0 0 2 3.93 2.022-.35 0 0 .224.98.62 1.32.714-1.08 1.203-2.47 1.368-4.01l-1.988.67z"/><path fill="#1B75BB" d="M79.358 139.257l-.872 7.76-7.89 1.025-1.91-5.968 6.37-4.292"/><path fill="#FFF" d="M88.304 111.795s2.27-3.64 2.888.494c0 0 2-3.93 2.022.35 0 0 .352-1.54.95-1.43l1.29 2.24v1.96l-2.24-.75-.325.75-2.4-.75v.75l-2.39-.29c0-.01-.46-1.06.19-3.35z"/><path fill="#1B75BB" d="M71.353 149.04l4.818 5.008 1.37-4.066-4.48-3.32"/><path fill="#1B75BB" d="M64.13 140.49v3.197l6.626 7.956 4.94-4.302"/><path fill="#26A9E0" d="M72.508 147.857s1.115-3.563 5.257-5.783l6.698 8.422-5.104 4.973-6.86-7.62zm-8.378-7.367s3.597-6.39 9.334-8.45l5.895 7.217s-8.61 5.822-8.77 8.785l-6.47-7.55z"/><path fill="#1B75BB" d="M91.546 152.447l-.7 3.707-9.027 8.607-7.09-7.38v-4.26l12.11-2.61"/><path fill="#26A9E0" d="M74.738 153.112s5.026-6.953 11.116-7.717l5.692 7.052s-8.946 5.73-9.53 8.755l-7.278-8.09z"/><path fill="#6D6E70" d="M79.358 149.57v1.065l.982 1.352-1.854.85-.11 1.21 1.7 1.765 2.655-2.39 1.89 2.047 1.54-1.43.21-.75-1.51-1.45 1.31-.64.21-.87"/><path fill="#E6E7E8" d="M78.486 152.838s3.056-3.042 6.377-3.8l1.506 1.316s-3.8 1.527-5.98 4.076l-1.91-1.592zm.872-3.268s4.396 3.347 5.504 4.86l1.506-1.132s-2.354-3.647-5.36-4.84l-1.65 1.113z"/><path fill="#6D6E70" d="M80.833 151.735l-.917 1.182 1.475-.59m3.08-.684l-1 .477 1.84.992m-1.83-3.106l.55.49.97-.49m-4.32-.753c.14.08.74.998.74.998l.8-.5-1.53-.49z"/><path fill="#74020D" d="M72.947 139.986l-.017-.877 2.685-1.11 1.416.41v.91"/><ellipse transform="matrix(.915 -.403 .403 .915 -49.848 42.059)" fill="#74020D" cx="74.98" cy="139.436" rx="2.126" ry="1.609"/><ellipse transform="matrix(.915 -.403 .403 .915 -49.627 42.013)" fill="#EC1C24" cx="74.98" cy="138.886" rx="2.126" ry="1.61"/><path fill="#74020D" d="M69.93 136.074l-.017-.88 2.685-1.106 1.417.41v.916"/><ellipse transform="matrix(.915 -.403 .403 .915 -48.531 40.516)" fill="#006838" cx="71.964" cy="135.521" rx="2.125" ry="1.611"/><ellipse transform="matrix(.915 -.403 .403 .915 -48.329 40.495)" fill="#009345" cx="71.964" cy="134.973" rx="2.126" ry="1.609"/><ellipse transform="matrix(.769 -.639 .639 .769 -73.951 76.556)" fill="#262261" cx="68.943" cy="140.591" rx="2.126" ry="1.61"/><path fill="#262261" d="M67.03 141.3l.02-1.315 2.092-1.1 1.733.363v.845"/><ellipse transform="matrix(.769 -.639 .639 .769 -73.483 76.409)" fill="#1B75BB" cx="68.943" cy="139.843" rx="2.126" ry="1.61"/><path fill="#FFF" d="M91.24 155.07s-.45-3.943-.257-4.574c.193-.633 1.254 1.624 1.254 1.624l-.69 2.63-.308.32zm.306-.32s-1.88.837-3.947 4.5c-2.07 3.665 4.22-.318 4.22-.318l-.28-4.18zm-20.322-22.71s4.112 3.565-2.54 1.388l2.54-1.39z"/><path fill="#075" d="M39.46 98.793c-1.202 5.4-1.622 8.245-2.047 14.214 3.828.38 5.744.565 9.573.937.492-6.712 1.04-9.862 2.617-15.757l-3.06-.94c-.654 2.425-.94 3.67-1.425 6.23-.413 2.175-1.086 3.205-2.135 3.007-1.048-.198-1.422-1.475-1.005-3.742.5-2.633.794-3.916 1.468-6.413.333-1.3.513-1.93.89-3.19.657-2.06 1.508-2.87 2.454-2.49l9.08 3.58c.975.38 1.15 1.41.612 3.16-.542 1.77-1.296 2.52-2.352 2.17l-1.47-.45c1.543 2.51 2.048 5.03 1.575 7.92-.666 4.06-.883 6.18-1.036 10.61-.08 2.05-.57 3.11-1.58 3.11-6.43.01-9.65.02-16.07.03-1.06 0-1.61-1.38-1.52-4.05.28-8.09.79-11.89 2.39-19.02.46-2.05 1.43-3.08 2.33-2.84.9.23 1.19 1.67.7 3.89zM60.318 87.5c-.373.764-.79 1.03-1.27.79-.162-.084-.273-.2-.334-.348l-.025.017c-4-4.48-5.88-6.88-9.35-11.95-.58-.85-.87-1.27-1.43-2.13-.16-.25-.24-.38-.4-.63-.51-.79-.37-1.85.44-3.1.09-.15.2-.3.31-.45l-.02-.01c2.3-3.51 3.56-5.17 6.24-8.27l.01.01c.11-.15.22-.29.33-.41.96-1.1 1.9-1.49 2.78-1.2.27.09.41.13.69.23 6.77 2.24 10.03 3.62 16.18 6.81.12.06.26.18.41.35.36.4.23.86-.37 1.4-1.88 1.71-2.79 2.61-4.51 4.52-.09.12-.18.22-.27.32-.76.85-1.54 1.14-2.39.85-5.64-1.93-8.56-2.72-14.56-3.86l-.01.02c3.12 5.25 4.84 7.75 8.52 12.46.55.72.53 1.59-.04 2.65-.41.75-.61 1.13-1 1.9zm5.153-11.3c.77.76.69 1.745-.18 3.002-.94 1.366-1.83 1.797-2.71 1.213-1.09-.72-1.64-1.077-2.74-1.794-.89-.59-.86-1.68.18-3.17.96-1.36 1.95-1.75 2.89-1.2l2.57 1.95zm29.46-24.78c-.13.79-.84 1.42-2.1 1.942l-.01-.014c-1.25.518-2.21.572-2.9.125-2.77-1.842-4.22-2.712-7.24-4.33l4.84 8.54c.42.99 0 1.81-1.22 2.514-1.7.967-2.53 1.48-4.16 2.572-1.33.89-2.29.94-2.95.08l-9.86-13.01c-.62-.83-.13-1.84 1.53-2.95 2.75-1.84 4.17-2.69 7.07-4.26l.03.04c.96-.46 1.9-.56 2.79-.31 4.09 2.07 6.04 3.21 9.72 5.67.66-4.24 1.14-6.38 2.37-10.64.16-.63.74-1.17 1.75-1.61.92-.29 1.39-.43 2.32-.69 2-.52 3.14-.25 3.4.71l4.21 15.54c.27 1-.37 1.68-1.92 2.11-1.54.43-2.47.22-2.81-.7l-3.18-9.22c-.81 3.15-1.13 4.73-1.62 7.86zm37.11-11.538c1.86.18 2.7.85 2.55 1.93-.14 1.05-1.11 1.45-2.89 1.28-6.39-.617-9.63-.634-16.02-.078.19 1.94.29 2.913.48 4.856 6.01-.51 9.05-.49 15.05.103 1.71.144 2.45.79 2.31 1.796-.14 1.01-.97 1.44-2.57 1.29-6.73-.66-10.16-.63-16.88.17-1.59.18-2.47-.21-2.65-1.25l-1.3-7.93c-.19-1.05.63-1.73 2.48-1.96l-.8-6.26c-.14-1.05.81-1.71 2.85-1.89 7.33-.65 11.05-.63 18.36.08 2.04.2 2.97.89 2.81 1.99-.14.99-1.19 1.35-3.15 1.16-3.53-.34-5.3-.43-8.84-.45-.01 1.88-.02 2.82-.03 4.7 3.31.02 4.97.11 8.27.43zm52.84 14.168c1.53 1.373 1.89 2.49 1.13 3.255-4.59 4.642-6.88 6.963-11.46 11.604-.74.75-1.69.54-2.89-.53-5.06-4.54-7.9-6.45-13.88-9.53-1.4-.73-1.88-1.52-1.39-2.44 2.96-5.77 4.43-8.65 7.39-14.42.49-.95 1.66-1.01 3.47-.08 7.61 3.93 11.21 6.35 17.65 12.13zm-18.13-4.98l-5.02 8.277c4.31 2.43 6.37 3.83 10.2 7.01l6.34-7.352c-4.33-3.596-6.65-5.184-11.51-7.935zm26.74 21.14l-11.12 8.01c-.81.564-1.68.153-2.69-1.16-1-1.317-1.13-2.274-.32-2.95 5.02-4.18 7.54-6.268 12.56-10.448.78-.647 1.87-.188 3.18 1.484 1.12 1.473 1.65 2.226 2.69 3.777.68 1.007.93 2.04.77 3.06-1.99 5.253-3.17 7.776-5.81 12.532l9.39-4.898c1.03-.34 1.99.354 2.78 2.153 1.1 2.51 1.6 3.8 2.52 6.466.75 2.177.56 3.488-.45 3.834-6.14 2.09-9.21 3.138-15.34 5.235-.97.333-1.7-.37-2.27-2.047-.95-2.77-1.49-4.102-2.69-6.658-.6-1.293-.73-2.27-.32-3 3.36-5.755 4.81-8.864 7.15-15.39zm9.44 50.486c-1.05-.192-1.57-1.332-1.64-3.363-.1-2.87-.2-4.272-.49-7.006-.24-2.22.1-3.386 1.14-3.57 3.16-.578 4.74-.867 7.9-1.448 1.05-.19 1.78.94 2.05 3.48.35 3.18.46 4.81.57 8.16.07 2.32-.48 3.63-1.54 3.85-3.18-.05-4.78-.07-7.97-.11zm-7.91-1.66c-1.05-.148-1.58-1.198-1.7-3.104-.07-1.24-.12-1.855-.23-3.067-.18-2.02.19-3.077 1.23-3.24l1.56-.276c1.05-.17 1.73.79 1.92 2.94.12 1.36.16 2.05.23 3.44.1 1.94-.42 3.05-1.47 3.26l-1.52.03z"/><path fill="#404041" d="M52.672 145.047c-1.013-4.477-1.372-6.83-1.73-11.78-3.805.314-5.708.47-9.513.78.49 7.084 1.06 10.416 2.72 16.655l3.03-.916c-.63-2.372-.9-3.59-1.36-6.09-.39-2.124 0-3.315 1.04-3.487 1.04-.17 1.7.79 2.09 2.83.43 2.37.69 3.53 1.28 5.79.31 1.16.48 1.73.84 2.85.56 1.87.42 2.94-.52 3.31l-9.01 3.48c-.97.37-1.85-.48-2.53-2.65-.69-2.2-.44-3.49.61-3.78.58-.18.87-.27 1.46-.44-2.61-1.54-4.32-4.17-4.92-7.75-.85-5.04-1.12-7.68-1.31-13.17-.1-2.55.43-3.87 1.44-3.87 6.38-.02 9.57-.03 15.95-.04 1.05 0 1.56 1.05 1.63 3.1.22 6.18.61 9.09 1.86 14.54.36 1.56.02 2.68-.89 2.98-.9.3-1.8-.55-2.22-2.39zm-8.652 23.018c-.473-.944-.46-1.546.018-1.783.16-.08.32-.086.48-.024v-.038c6.018-.067 8.992-.33 14.786-1.248.965-.155 1.446-.238 2.405-.415l.68-.123c.87-.162 1.61.248 2.24 1.212.07.11.14.23.22.358l.01-.01c1.8 2.692 2.78 3.958 4.88 6.34l-.02.01c.1.104.2.202.28.298.75.842.93 1.63.53 2.41-.13.248-.19.37-.31.62-3 6.05-4.28 9.233-6.35 15.815-.04.132-.14.277-.29.442-.36.38-.92.26-1.68-.42-2.38-2.12-3.52-3.24-5.69-5.61-.13-.13-.25-.25-.36-.38-.96-1.06-1.23-2.03-.84-2.85 2.6-5.44 4.07-8.05 7.3-13l-.02-.02c-5.71 1.43-8.65 1.96-14.64 2.6-.92.08-1.76-.52-2.47-1.83-.5-.95-.74-1.42-1.21-2.39zm9.27 11.9c-.938.507-2.013.017-3.125-1.538-1.207-1.688-1.33-2.876-.456-3.446l2.69-1.79c.89-.58 1.86-.04 2.97 1.54 1.02 1.45 1.19 2.53.44 3.29l-2.53 1.95zm38.034 24.08c-.712.46-1.826.416-3.303-.182l.01-.017c-1.46-.592-2.25-1.316-2.38-2.117-.47-3.24-.63-4.86-.78-8.05l-4.8 8.32c-.66.83-1.79.86-3.34 0-2.15-1.2-3.21-1.84-5.27-3.19-1.68-1.11-2.17-2.12-1.52-2.95 3.94-5.06 5.9-7.59 9.83-12.65.62-.81 1.56-.74 2.85.11 2.14 1.4 3.25 2.05 5.51 3.25-.01.01-.02.02-.02.04.7.43 1.14 1.02 1.32 1.78.12 4.07.32 6.13.99 10.28 3.69-2.38 5.43-3.65 8.67-6.36.46-.41 1.12-.54 1.98-.41.72.21 1.09.31 1.82.5 1.54.45 2.19 1.11 1.93 2.05-1.67 6.06-2.5 9.09-4.17 15.14-.27.98-1.39 1.25-3.34.72s-2.76-1.3-2.46-2.21l3.16-8.98c-2.53 2.04-3.86 3.03-6.64 4.89zm40.496-1.565c1.77-.167 2.727.235 2.88 1.29.148 1.02-.69 1.66-2.533 1.835-6.598.625-9.947.64-16.55.075l-.472 4.73c7.01.61 10.568.6 17.577-.052 1.988-.21 3.014.175 3.166 1.145.15.98-.723 1.654-2.744 1.85-8.506.814-12.846.77-21.33-.214-2.02-.24-2.936-.91-2.76-1.93.54-3.09.806-4.63 1.343-7.72.155-1.02 1.113-1.4 2.878-1.2l.85-6.09c.137-1.03.997-1.44 2.59-1.3 5.72.48 8.623.46 14.335-.09 1.59-.15 2.456.27 2.614 1.34.142.97-.608 1.57-2.27 1.73-2.983.28-4.48.36-7.478.37l.028 4.58c3.158-.01 4.738-.09 7.877-.38zm39.686-24.576c1.194-1.05 2.14-1.238 2.89-.492 4.555 4.523 6.828 6.788 11.38 11.31.736.733.38 1.81-1.14 3.147-6.406 5.62-9.99 7.99-17.556 11.81-1.78.9-2.922.85-3.38-.07-2.952-5.61-4.43-8.42-7.374-14.03-.485-.93-.005-1.72 1.406-2.43 5.936-3 8.747-4.85 13.774-9.26zm-8.152 13.495c1.992 3.22 2.986 4.83 4.978 8.06 5.022-2.78 7.426-4.38 11.895-8.02l-6.29-7.17c-3.978 3.23-6.116 4.65-10.583 7.12zm21.082-21.49l11.04 7.81c.785.58.587 1.73-.682 3.36-1.27 1.63-2.347 2.07-3.153 1.41l-12.45-10.19c-.77-.64-.64-1.57.35-2.89.88-1.12 1.31-1.7 2.12-2.88.53-.77 1.23-1.23 2.12-1.38 5.13.15 7.76 0 13.05-.78-3.72-1.91-5.59-2.86-9.31-4.77-.88-.61-.99-1.57-.39-2.96.86-1.92 1.25-2.91 1.96-4.95.59-1.67 1.33-2.37 2.34-2.03 6.09 2.06 9.13 3.09 15.21 5.16.97.32 1.14 1.57.42 3.65-1.2 3.43-1.88 5.08-3.39 8.25-.77 1.6-1.61 2.45-2.47 2.59-6.82.95-10.2 1.03-16.72.55zm18.21-43.01c1.04.19 1.574 1.35 1.514 3.41-.1 2.91-.204 4.33-.51 7.11-.247 2.25-.945 3.25-1.973 3.07l-7.85-1.35c-1.038-.18-1.4-1.21-1.185-3.16.27-2.44.36-3.69.447-6.26.07-1.78.59-2.78 1.64-2.95 3.16.04 4.75.05 7.91.1zm7.816 2c1.036.23 1.553 1.57 1.433 3.93-.078 1.54-.13 2.3-.26 3.8-.232 2.5-.93 3.63-1.96 3.47-.62-.08-.93-.12-1.55-.21-1.04-.16-1.392-1.38-1.172-3.75.143-1.5.202-2.26.29-3.79.114-2.14.65-3.33 1.705-3.51l1.514.03z"/><circle fill="#0071BC" cx="128.045" cy="95.034" r="8.565"/><path fill="#0F4481" d="M127.43 97.19c-1.592-1.838-1.39-4.615.445-6.205 1.838-1.588 4.614-1.39 6.206.448 1.59 1.836 1.39 4.615-.44 6.204-1.83 1.59-4.61 1.39-6.2-.447z"/><path fill="#FFF" d="M129.99 95.84c-.845-.976-.738-2.45.238-3.295.975-.844 2.452-.74 3.298.236.845.98.737 2.46-.24 3.3-.975.85-2.45.74-3.296-.24z"/><circle fill="#0071BC" cx="91.876" cy="96.771" r="5.828"/><path fill="#0F4481" d="M91.458 98.24c-1.083-1.252-.946-3.142.304-4.223s3.14-.946 4.222.305c1.08 1.25.945 3.14-.305 4.222-1.25 1.08-3.14.944-4.23-.305z"/><path fill="#FFF" d="M93.2 97.32c-.575-.664-.502-1.667.162-2.242.663-.574 1.668-.503 2.244.16.574.666.5 1.67-.164 2.246-.663.574-1.667.5-2.242-.163z"/><circle fill="#FFF" cx="90.779" cy="95.868" r=".774"/><circle fill="#FFF" cx="126.736" cy="94.845" r="1.138"/></svg>