<svg xmlns="http://www.w3.org/2000/svg" width="250" height="250" viewBox="0 0 250 250"><g opacity=".15"><path d="M206.077 89.253c.312-2.93-1.647-5.38-3.42-6.59l-1.12-.762-1.345.14c-3.316.33-7.27 3.04-10.616 5.92-.682-2.28-1.672-3.82-2.003-4.3-1.88-2.85-4.304-3.28-5.587-3.28-3.45 0-5.886 2.87-6.34 3.44l-2.237 2.84 2.77 2.32c3.09 2.59 1.57 10.42.35 13.8l-.16.43-.05.45c-.01.08-.92 8.16-4.48 15.61-2.18 4.55-4.82 7.82-7.9 9.79l-.03-.53-.06-2.9-.86-5.24c-.28-1.62-.61-3.3-1-5.08 1.73-1.24 2.82-2.8 3.15-4.56.02-.13.04-.27.06-.43 5.19-1.88 5.92-5.74 6.01-7.09.12-1.87-.46-3.67-1.56-5.2 2.6-2.43 2.55-5.21 2.41-6.28-.46-3.53-3.48-6.37-7.53-7.43-.04-.6-.15-1.2-.36-1.8-1.16-3.42-5.17-6.07-9.61-6.51-.03-.07-.07-.15-.1-.22-1.78-3.5-6.58-5.76-12.25-5.76-1.38 0-2.79.13-4.21.39-3.8-3-10.38-3.28-12.63-3.28s-8.83.28-12.63 3.28c-1.42-.26-2.83-.39-4.21-.39-5.67 0-10.48 2.27-12.25 5.77-.04.08-.08.15-.11.22-4.44.44-8.45 3.09-9.61 6.51-.21.6-.33 1.21-.36 1.81-4.05 1.06-7.07 3.91-7.53 7.44-.14 1.08-.19 3.87 2.44 6.31-1.02 1.4-1.6 3.02-1.6 4.7 0 1.22.38 4.79 4.58 6.94l-.05.45c-1.56 17.05 14.07 32.47 34.83 34.38-1.76 2.55-4.49 3.73-8.41 3.73-1.28 0-2.68-.13-4.17-.4-7.13-1.27-13.93-5.12-13.99-5.15l-.46-.25-.5-.13c-3.11-.78-9.66-3.5-10.03-6.98l-.39-3.6-3.61.28c-.72.06-4.43.49-6.21 3.43-.61 1-1.43 3.08-.25 5.93.35.96 1 2.19 1.98 3.45-3.78 1.09-7.64 2.7-9.54 5l-.86 1.05.01 1.35c.03 3.42 2.17 6.89 6.21 6.89 1.22 0 2.51-.34 3.89-1.03l-.37.84.63 1.48c.77 1.77 2.6 3.85 5.25 3.85 3.61 0 5.46-3.63 6.18-5.21l1.84-2.76c2.19-.02 4.14-.54 5.72-1.49 2.79 1.48 7.69 3.78 13.12 5.05 2.6.61 5.08.91 7.38.91.84 0 1.66-.04 2.46-.12.03 1.14.18 2.28.46 3.4-2.9 1.87-6.22 4.54-8.88 8.16-2.16 2.93-3.64 6.12-4.44 9.53-5.84-4.44-14.74-10.3-20.93-10.3-2.94 0-5.35 1.25-6.77 3.53l-.73 1.16.21 1.36c.34 2.23 1.51 4.47 3.47 5.54.09.21.2.42.33.63.46.74 1.46 1.89 3.41 2.32.18.41.42.81.72 1.2 1.06 1.34 2.68 2.08 4.55 2.08.36 0 .72-.02 1.1-.08l1.85.95-.01.02H60v10.1h2.17v11.87H60v10.1h31.1v.14h76.925v-.14h16.62V222c.3.08.59.16.89.21l.12.02.66.08c.34.04.68.06 1.02.06.324 0 .664-.02 1.01-.06l.71-.08.12-.02c1.53-.28 2.94-.93 4.2-1.94 1.64-1.31 2.545-3.22 2.545-5.36 0-2.15-.915-4.06-2.575-5.37-.278-.22-.565-.41-.856-.6.01-1.297.18-1.837.24-1.97.23-.55.46-.99.71-1.31l.21-.28.05-.1c.07-.087.39-.557.44-.63.56-.758 1.04-1.57 1.42-2.428.5-1.12.74-2.4.74-3.925 0-2.2-.89-4.15-2.58-5.63-1.37-1.2-2.92-1.984-4.61-2.32l-.11-.02s-.48-.07-.69-.09c-.34-.04-.67-.06-.99-.06-.24 0-.5.01-.76.02-.38.03-.75.09-1.11.18-.39.08-.77.19-1.14.314-.3.1-.58.23-.87.35-.06.03-.13.05-.19.08-.35.17-.68.35-1.01.56-.33.2-.64.43-.95.67l-.02.01-.02-.02c-1.19-1.7-3.14-2.73-5.23-2.73-1.3 0-2.56.4-3.65 1.15l-.79.58-.53.38-.15.1-.7.49-.02.01-3.39-7.98.01-.06c.23-.79.45-1.56.66-2.34l.18-.66c.22-.83.44-1.66.64-2.5.61-2.58 1.2-5.36 1.25-8.52.01-.97-.05-1.84-.18-2.68-.19-1.2-.5-2.27-.95-3.24-.63-1.37-1.55-2.57-2.68-3.47-1.1-.88-2.43-1.52-3.88-1.85-.85-.19-1.69-.28-2.57-.28-.52 0-1.01.03-1.47.08 1.75-4.67 3.41-9.53 4.54-14.31 6.72-.71 15.1-5.02 20.72-19.96 2.08-5.53 3.14-10.87 3.64-13.92 2.28-.97 4.02-2.78 5.18-4.49h3.86c.95.15 1.79.22 2.57.22 3.52 0 5.13-1.59 5.85-2.92 1.2-2.21.5-4.73-.55-6.35l-.88-1.35-1.59-.29c-.1-.02-.2-.03-.3-.05 3.15-1.52 4.88-3.56 5.15-6.07z"/><path d="M72.88 108.79c0-.88-.088-1.77-.263-2.64-1.25-6.308-6.83-10.885-13.264-10.885-7.46 0-13.526 6.068-13.526 13.526 0 2.62.757 5.17 2.187 7.37 2.51 3.86 6.75 6.16 11.34 6.16 7.457 0 13.526-6.07 13.526-13.52zm1.44-29.722c7.46 0 13.528-6.068 13.528-13.526 0-.882-.088-1.772-.262-2.642-1.252-6.307-6.83-10.884-13.265-10.884-7.45 0-13.52 6.068-13.52 13.526 0 2.62.76 5.166 2.19 7.364 2.51 3.858 6.75 6.162 11.34 6.162zm44.45-22.545c7.46 0 13.527-6.07 13.527-13.526 0-.882-.088-1.773-.262-2.642-1.25-6.308-6.83-10.885-13.266-10.885-7.46 0-13.53 6.068-13.53 13.527 0 2.62.75 5.165 2.18 7.365 2.51 3.858 6.75 6.16 11.34 6.16zm51.895 19.662c7.46 0 13.527-6.068 13.527-13.526 0-.89-.09-1.78-.263-2.65-1.26-6.31-6.83-10.89-13.27-10.89-7.46 0-13.53 6.07-13.53 13.52 0 2.62.75 5.16 2.18 7.36 2.51 3.85 6.75 6.16 11.34 6.16z"/></g><path fill="#FFF" d="M157.18 128.922l.008-.004-.007.004"/><path d="M202.992 86.168c.312-2.93-1.647-5.38-3.42-6.59l-1.12-.762-1.345.134c-3.316.328-7.27 3.038-10.616 5.92-.68-2.285-1.67-3.826-2-4.303-1.88-2.855-4.3-3.283-5.58-3.283-3.45 0-5.88 2.868-6.34 3.44l-2.24 2.84 2.78 2.32c3.1 2.587 1.57 10.418.35 13.8l-.15.428-.05.45c-.01.08-.91 8.16-4.48 15.607-2.17 4.54-4.82 7.81-7.9 9.78-.01-.18-.02-.36-.02-.54l-.05-2.91-.86-5.24c-.27-1.62-.6-3.31-1-5.08 1.74-1.25 2.83-2.81 3.15-4.57.03-.13.05-.28.07-.43 5.2-1.88 5.93-5.74 6.02-7.09.13-1.87-.45-3.68-1.56-5.21 2.6-2.43 2.56-5.21 2.42-6.29-.45-3.53-3.48-6.38-7.52-7.43-.03-.6-.15-1.21-.36-1.81-1.16-3.42-5.17-6.08-9.61-6.51-.03-.08-.07-.15-.11-.23-1.77-3.5-6.58-5.76-12.24-5.76-1.38 0-2.79.13-4.2.39-3.8-3-10.37-3.28-12.63-3.28-2.25 0-8.83.27-12.63 3.27-1.42-.26-2.82-.4-4.21-.4-5.66 0-10.47 2.26-12.24 5.76-.04.07-.07.15-.11.22-4.44.44-8.44 3.09-9.61 6.51-.2.6-.32 1.21-.35 1.81-4.04 1.06-7.07 3.91-7.52 7.44-.14 1.08-.18 3.87 2.44 6.3-1.01 1.4-1.59 3.02-1.59 4.7 0 1.22.39 4.79 4.59 6.94l-.04.44c-1.55 17.05 14.07 32.47 34.84 34.38-1.76 2.55-4.48 3.73-8.41 3.73-1.28 0-2.68-.13-4.16-.4-7.13-1.27-13.92-5.12-13.98-5.15l-.46-.26-.5-.13c-3.11-.77-9.66-3.5-10.03-6.98l-.4-3.59-3.61.28c-.73.06-4.44.49-6.22 3.43-.6.99-1.42 3.08-.25 5.92.35.96 1 2.19 1.99 3.45-3.78 1.09-7.65 2.7-9.54 5l-.86 1.05.01 1.35c.03 3.42 2.18 6.89 6.22 6.89 1.23 0 2.51-.34 3.89-1.03l-.37.84.64 1.48c.77 1.78 2.6 3.85 5.25 3.85 3.61 0 5.47-3.63 6.19-5.21l1.84-2.76c2.19-.02 4.14-.54 5.72-1.49 2.79 1.48 7.69 3.79 13.12 5.05 2.6.6 5.08.91 7.38.91.84 0 1.66-.04 2.46-.12.03 1.14.19 2.28.46 3.4-2.9 1.87-6.22 4.54-8.88 8.16-2.16 2.93-3.65 6.12-4.45 9.53-5.84-4.44-14.74-10.3-20.93-10.3-2.95 0-5.35 1.25-6.77 3.53l-.74 1.2.2 1.36c.34 2.23 1.51 4.47 3.47 5.53.09.21.2.42.33.63.46.75 1.47 1.89 3.41 2.33.18.41.42.81.73 1.19 1.07 1.34 2.69 2.08 4.56 2.08.36 0 .72-.03 1.1-.08l1.86.94-.01.01H57.03v10.11h2.17v11.87h-2.17v10.1H181.6v-.23c.294.08.586.16.888.21l.118.02.658.08c.34.04.685.07 1.02.07.326 0 .666-.02 1.01-.07l.714-.08.12-.02c1.52-.27 2.93-.92 4.19-1.94 1.64-1.32 2.54-3.23 2.54-5.37 0-2.16-.91-4.06-2.57-5.37-.28-.22-.57-.42-.86-.6.01-1.3.18-1.84.24-1.97.23-.55.46-.99.71-1.32l.21-.28.05-.11.44-.63c.56-.76 1.03-1.58 1.41-2.43.5-1.12.74-2.41.74-3.93 0-2.2-.89-4.15-2.578-5.63-1.37-1.2-2.92-1.98-4.612-2.32l-.11-.02s-.48-.07-.69-.09c-.334-.05-.665-.07-.98-.07-.242 0-.494.01-.756.02-.38.02-.75.08-1.11.17-.39.09-.77.19-1.14.32-.293.1-.58.23-.863.36-.06.03-.13.05-.19.08-.34.16-.68.35-1 .55-.33.21-.64.43-.95.68l-.02.01-.02-.02c-1.19-1.71-3.15-2.73-5.23-2.73-1.31 0-2.57.4-3.65 1.15l-.8.57-.54.39-.15.1-.7.49c0 .01-.01.01-.02.01l-3.38-7.98.01-.06c.23-.79.45-1.56.66-2.34l.18-.66c.22-.83.44-1.66.64-2.5.6-2.58 1.2-5.36 1.25-8.52 0-.96-.06-1.84-.18-2.68-.19-1.2-.5-2.26-.95-3.23-.63-1.37-1.55-2.57-2.68-3.47-1.1-.88-2.43-1.52-3.89-1.85-.85-.18-1.69-.27-2.57-.27-.52 0-1.01.04-1.47.09 1.75-4.68 3.41-9.53 4.54-14.31 6.72-.72 15.1-5.03 20.72-19.96 2.08-5.53 3.15-10.87 3.64-13.93 2.28-.97 4.02-2.78 5.18-4.49h3.86c.95.15 1.8.22 2.57.22 3.52 0 5.13-1.59 5.85-2.92 1.2-2.21.5-4.73-.55-6.35l-.87-1.35-1.58-.29-.3-.05c3.15-1.52 4.88-3.56 5.15-6.07zM89.785 215.364H76.07v-2.66h2.17V202.21h-6.508v10.495h2.73v2.66H60.747v-2.66h2.17v-19.31h-2.17v-2.66H74.46v2.66h-2.728v6.155h6.508v-6.156h-2.17v-2.66h13.715v2.66h-2.73v19.31h2.73v2.66zm28.37 0h-13.223v-2.66h2.414l-1.96-4.09c-.442.068-.855.12-1.242.155-.384.03-.75.05-1.102.05-.42 0-.81-.03-1.17-.07-.364-.05-.707-.11-1.034-.18-.444-.1-.856-.22-1.24-.37s-.753-.31-1.104-.48l-2.414 4.97h1.788v2.66H90.03v-2.66h3.078l3.044-6.23c-.21-.1-.43-.19-.665-.28-.234-.1-.48-.18-.734-.25-.187-.05-.38-.09-.578-.13-.198-.04-.39-.05-.577-.05-.35 0-.67.07-.962.21-.292.14-.53.37-.717.7-.03.04-.05.1-.06.15-.01.06-.02.14-.02.23v.14c0 .05.01.11.03.18.02.09.05.19.09.28l.08.24-2.24 1.43c-.19-.28-.33-.59-.44-.91-.11-.33-.18-.67-.23-1.02v-.35c0-.31.03-.6.1-.9.07-.29.17-.56.31-.79.42-.75.95-1.3 1.61-1.66.65-.36 1.4-.55 2.24-.58.61-.02 1.23.05 1.87.21.64.16 1.31.41 2.01.73l7.17-15.15 11.96 23.75h1.71v2.66zm-.922-9.506v.144l-.077-.123.077-.03zm30.59 9.506H134.11v-2.66h2.168V202.21h-6.508v10.495h2.73v2.66h-13.715v-2.66h2.17v-19.31h-2.17v-2.66H132.5v2.66h-2.73v6.155h6.51v-6.156h-2.17v-2.66h13.714v2.66h-2.73v19.31h2.73v2.66zm30.052 0H164.65v-2.66h2.413l-1.958-4.09c-.443.068-.858.12-1.244.155-.38.03-.75.05-1.1.05-.42 0-.81-.03-1.17-.07-.36-.05-.7-.11-1.03-.18-.44-.1-.86-.22-1.24-.37-.38-.16-.75-.31-1.1-.48l-2.41 4.97h1.78v2.66h-7.83v-2.66h3.08l3.05-6.23c-.21-.1-.43-.19-.66-.28s-.48-.18-.73-.25c-.19-.05-.38-.09-.57-.13-.19-.04-.39-.05-.57-.05-.35 0-.67.06-.96.21-.29.13-.53.37-.72.69-.02.04-.04.1-.05.15-.01.06-.02.13-.02.23v.14c0 .05.01.1.04.17.02.09.05.19.09.28.03.09.06.17.08.24l-2.24 1.44c-.18-.28-.33-.59-.43-.91-.1-.33-.18-.67-.22-1.02v-.35c0-.31.04-.6.11-.9.07-.29.18-.55.32-.79.42-.74.96-1.3 1.61-1.66.65-.36 1.4-.55 2.24-.58.6-.02 1.23.05 1.87.21.64.17 1.31.41 2.01.74l7.17-15.15 11.97 23.75h1.71v2.65zm10.11-1.137c-.77.618-1.61 1.01-2.52 1.172-.21.02-.413.04-.614.07-.19.02-.39.03-.57.03-.19 0-.37-.01-.56-.04-.18-.03-.38-.05-.59-.07-.93-.17-1.79-.55-2.57-1.16s-1.17-1.44-1.17-2.49c0-1.03.39-1.85 1.17-2.47.78-.62 1.64-1.02 2.58-1.21l.6-.07c.19-.02.37-.04.56-.04.19 0 .38.01.58.03.21.02.41.06.62.1.91.18 1.75.58 2.52 1.19.77.6 1.15 1.42 1.15 2.45 0 1.02-.38 1.84-1.15 2.46zm-4.722-23.386c.16-.04.33-.07.505-.08.176-.01.346-.01.508-.01s.338.01.524.04c.187.03.362.05.525.07 1.05.21 2.01.7 2.887 1.47.875.77 1.312 1.72 1.312 2.84 0 .98-.14 1.79-.42 2.42-.28.63-.63 1.23-1.05 1.78l-.157.23c-.058.08-.11.16-.156.23-.04.07-.1.14-.15.21-.06.07-.11.15-.15.25-.44.59-.84 1.3-1.19 2.15-.35.85-.52 2.03-.52 3.52v1.33h-2.9v-1.32c0-1.54-.18-2.73-.54-3.59-.36-.85-.76-1.58-1.21-2.19-.02-.07-.06-.13-.1-.19-.05-.06-.09-.11-.14-.16-.05-.07-.1-.14-.15-.23-.06-.08-.12-.15-.19-.23-.4-.56-.74-1.15-1.03-1.78-.29-.63-.44-1.43-.44-2.41 0-1.14.45-2.09 1.33-2.85.88-.76 1.86-1.24 2.94-1.45zm-12.538.36l.732-.52c.01 0 .024-.02.034-.02 1.2-.83 2.85-.54 3.69.66.84 1.2.54 2.85-.66 3.69l-.74.52c-.47.33-1.23.85-2.15 1.47l-.89.59-2.07-4.9.04-.02c.89-.61 1.56-1.08 2.05-1.44zM195.36 89.27s-7.824 4.227-9.937 6.684c-2.116 2.458 7.82-.765 12.05 0 0 0 2.96 4.57-4.44 3.303h-6.347s-2.11 5.058-6.34 5.22c0 0-.787 7.65-3.783 15.614-3.344 8.89-9.445 18.16-20.27 17.64-1.07 5.73-3.078 11.68-5.93 19.11-.65 1.69-1.344 3.26-2.073 4.7.795-.36 1.642-.72 2.563-1.06.957-.35 1.986-.68 3.146-.91 1.16-.21 2.46-.39 4.03-.05.77.18 1.62.53 2.35 1.12s1.28 1.36 1.63 2.12c.35.77.53 1.53.64 2.25.11.72.14 1.42.14 2.1-.05 2.7-.57 5.2-1.15 7.69-.6 2.49-1.32 4.93-2.03 7.36-.02.08-.04.15-.07.23-.69 2.35-1.39 4.67-2 6.94-.62 2.33-1.17 4.65-1.33 6.69-.09 1-.02 1.97.15 2.41.09.21.13.23.11.2-.03-.02.02.01.24.03.21.02.55-.01.92-.08.18-.03.38-.08.57-.14l-1.53 4.74c-.44-.07-2.34-.41-3.37-.71-.39-.32-.72-.68-.98-1.07-.31-.44-.5-.88-.66-1.32-.29-.86-.38-1.64-.42-2.38-.04-.73 0-1.42.06-2.09.26-2.67.92-5.1 1.6-7.54.69-2.44 1.46-4.85 2.21-7.24.03-.08.05-.17.08-.26.71-2.3 1.41-4.59 1.99-6.83.59-2.31 1.07-4.62 1.13-6.65.02-.99-.09-1.92-.34-2.46-.26-.53-.42-.66-.98-.82-.55-.15-1.4-.11-2.22.04-.84.16-1.7.41-2.51.7-1.64.57-3.16 1.29-4.48 1.94-1.33.66-2.47 1.3-3.4 1.83-.41.23-.77.44-1.1.63-2.3 2.48-4.77 4.06-7.33 4.79-2.08 4.96-2.61 9.13-2.31 12.55.12 1.36.38 2.59.72 3.72h-4.85c-.5-1.86-.74-3.72-.78-5.52-.1-3.91.73-7.55 1.73-10.47-.29-.05-.57-.09-.86-.16-3.46-.86-6.89-3.22-10.08-7-4.27 2.19-7.21 4.68-9.22 7.19-5.66 7.07-3.89 14.25-3.63 15.18l-1.82-2.92-3.23 4.5-16.89-8.58c-4.66 1.4-3.63-3-3.63-3-5.17.97-3.44-2.55-3.44-2.55-2.76 1.22-3.36-2.78-3.36-2.78 4.79-7.69 27.58 12.04 27.58 12.04-.25-6.08 1.67-10.86 4.39-14.57 3.09-4.2 7.22-7 10.4-8.71-1.73-3.66-1.5-7.1-.45-10.03-4.12 1.86-9 1.61-13.52.56-7.73-1.79-14.42-5.94-14.42-5.94-2.26 3.12-7.17 2.16-7.17 2.16l-3.11 4.7c-2.79 6.25-4.75 1.69-4.75 1.69 1.56-3.59 9.04-9.48 6.11-9.12-2.94.35-10.1 4.13-10.1 4.13-6.04 4.08-6.09-1.75-6.09-1.75 3.07-3.74 16-5.52 16-5.52-6.06-1.5-7.86-6.65-7.86-6.65-1.68-3.9 3.28-4.29 3.28-4.29.77 7.25 12.84 10.2 12.84 10.2s7.29 4.18 15.18 5.59c7.77 1.39 16.13.09 18.7-10.53-1.67.05-3.37 0-5.09-.16-18.77-1.71-32.88-15.3-31.51-30.34.09-1 .25-1.99.47-2.96-.02-.06-.03-.16-.04-.29-7.67-1.76-5.51-8.33.12-9.63-11.12-2.92-4.86-11.39 3.44-9.79-5.48-4.23 2.35-9.51 7.98-7.81-2.35-3.2 4.54-8.19 14.25-5.46 1.41-2.73 7.44-3.67 11.35-3.67 3.91 0 9.94.94 11.35 3.67 9.7-2.73 16.59 2.26 14.25 5.46 5.63-1.69 13.47 3.58 7.98 7.82 8.3-1.6 14.56 6.87 3.44 9.79 6.11 1.41 8.14 9.04-2.03 9.98 2.58 2.36.33 4.67-2.67 5.85 1.42 5.77 2.22 10.65 2.45 15.15v.12c.06 1.15.08 2.27.07 3.38 0 .06-.01.11-.01.16l.02.85-.04.03c-.02.51-.04 1.01-.08 1.52 7.35-1.58 12.06-7.48 15.04-13.7 3.9-8.16 4.82-16.81 4.82-16.81s4.67-12.8-1.46-17.93c0 0 3.38-4.29 5.92-.37 0 0 3.6 4.79 1.27 11.23 0 0 9.51-10.7 14.8-11.22 0 0 5.29 3.61-2.11 6.61zM69.795 105.706c0-.882-.088-1.772-.263-2.64-1.25-6.31-6.83-10.886-13.264-10.886-7.46 0-13.526 6.068-13.526 13.526 0 2.62.757 5.166 2.187 7.365 2.51 3.86 6.75 6.17 11.33 6.17 7.46 0 13.52-6.07 13.52-13.52zM56.27 115.51c-3.447 0-6.472-1.78-8.22-4.468-1-1.536-1.586-3.367-1.586-5.336 0-5.416 4.39-9.805 9.805-9.805 4.75 0 8.72 3.39 9.61 7.89.12.62.19 1.26.19 1.92 0 5.42-4.39 9.81-9.81 9.81zm14.966-39.527c7.458 0 13.526-6.068 13.526-13.526 0-.882-.087-1.772-.26-2.642-1.253-6.307-6.83-10.884-13.266-10.884-7.458 0-13.526 6.07-13.526 13.53 0 2.62.756 5.17 2.187 7.37 2.51 3.86 6.75 6.17 11.34 6.17zm0-23.33c4.758 0 8.723 3.39 9.615 7.886.13.62.19 1.26.19 1.91 0 5.41-4.39 9.8-9.8 9.8-3.44 0-6.47-1.78-8.22-4.47-1-1.54-1.58-3.37-1.58-5.34 0-5.42 4.39-9.81 9.81-9.81zm44.45.785c7.457 0 13.525-6.07 13.525-13.526 0-.882-.08-1.773-.26-2.642-1.25-6.308-6.83-10.885-13.26-10.885-7.46 0-13.52 6.068-13.52 13.527 0 2.62.76 5.165 2.19 7.365 2.51 3.858 6.75 6.16 11.34 6.16zm0-23.33c4.757 0 8.72 3.39 9.613 7.886.12.62.19 1.262.19 1.918 0 5.414-4.39 9.804-9.81 9.804-3.45 0-6.47-1.78-8.22-4.468-1-1.537-1.59-3.367-1.59-5.335 0-5.415 4.39-9.806 9.8-9.806zM167.58 73.1c7.46 0 13.527-6.068 13.527-13.526 0-.882-.09-1.772-.263-2.642-1.25-6.308-6.828-10.885-13.265-10.885-7.46 0-13.53 6.068-13.53 13.527 0 2.62.75 5.166 2.18 7.365 2.51 3.85 6.75 6.16 11.34 6.16zm0-23.33c4.76 0 8.723 3.39 9.614 7.886.124.62.192 1.26.192 1.918 0 5.415-4.392 9.804-9.807 9.804-3.45 0-6.47-1.78-8.22-4.47-1-1.535-1.59-3.366-1.59-5.334 0-5.415 4.39-9.805 9.8-9.805z" fill="#FFF"/><path fill="#8A6AAD" d="M87.45 142.785s-12.066-2.952-12.84-10.196c0 0-4.966.38-3.288 4.29 0 0 1.804 5.15 7.86 6.65 0 0-12.928 1.78-16.005 5.52 0 0 .052 5.83 6.083 1.75 0 0 7.166-3.78 10.1-4.14 2.932-.36-4.547 5.53-6.11 9.12 0 0 1.96 4.56 4.752-1.69l3.217-4.81s4.9.96 7.16-2.16c0 0 6.68 4.15 14.41 5.95-.09-1.58-.14-3.14-.17-4.72-7.9-1.41-15.19-5.59-15.19-5.59z"/><path fill="#ECC2DB" d="M123.266 143.203l-.78-3.555-.27-1.234-.132-.606c.098-.006.197-.01.295-.017.8-.05 3.26-.25 6.81-.93 7.48-1.7 13.89-5.46 18.14-10.58 3.02-3.64 4.95-7.97 5.39-12.72.2-2.27.05-4.51-.41-6.69-.38.36-.78.73-1.23 1.1l-1.85 1.71c2.54 12.75-4.87 16.15-4.87 16.15l-5.32-4.11c-5.09 7.27-15.61 11.72-27.28 10.66-15.71-1.43-27.56-12.31-26.47-24.29.76-8.33 7.58-15 16.94-17.81-.51-.23-.8-.42-.8-.42-6 1.91-7.54 1.72-7.37.9l-.03.02c-2.5 2.03-4.59 4.4-6.16 7.03-1.23 2.06-2.15 4.27-2.69 6.62-.22.97-.39 1.95-.48 2.96-1.38 15.04 12.73 28.63 31.5 30.34 1.72.16 3.42.21 5.09.16-2.57 10.62-10.93 11.92-18.7 10.54.03 1.58.08 3.14.17 4.72 4.52 1.05 9.4 1.3 13.51-.56 2-5.58 6.95-9.33 6.95-9.33z"/><path fill="#D6DE23" d="M86.903 97.804s-5.653-15.01 6.996-7.252l-.07.063s3.36 1.246 7.27-1.822c0 0 6.71 4.282 11.82-1.672 0 0 7.15 6.85 18.22 6.41 0 0 2.95 4.66 7.52 2.67 0 0 1.44 3.73 2.45 8.25.21.95.4 1.94.56 2.93.73 4.64.66 9.47-1.98 11.74l.47.74 2.08 3.29-3.09-1.62-1.14-.59 1 .78 5.32 4.11s7.42-3.39 4.87-16.14c-.24-1.2-.57-2.49-1-3.87-.66-2.1-1.58-4.42-2.78-6.95-.54-1.13-1.12-2.3-1.78-3.52l.07-.03.4-.16 1.46-.6-.29-.49c11.63-8.91 13.35-4.47 13.36-1.13.76-1.94 2.15-7.41-7.91-4.08 0 0 4.01-6.79-5.16-9.77 0 0 9.02-1.86 7.19 7.26 0 0 11.92-2.19 5.88 6.83-.03 1.28-.28 2.34-.28 2.34 10.89 6.38-2.28 7.96-2.28 7.96.83 3.02-.76 5.02-1.72 5.92.08.33.16.64.23.96 3-1.17 5.24-3.49 2.66-5.84 10.18-.94 8.14-8.56 2.03-9.98 11.11-2.91 4.85-11.39-3.45-9.78 5.48-4.24-2.35-9.51-7.98-7.82 2.35-3.2-4.54-8.19-14.25-5.46-1.41-2.73-7.44-3.67-11.36-3.67s-9.94.94-11.35 3.67c-9.71-2.73-16.6 2.26-14.25 5.46-5.64-1.69-13.47 3.58-7.99 7.82-8.3-1.6-14.56 6.87-3.44 9.79-5.63 1.3-7.79 7.87-.13 9.63-.06-.73.04-2.6 1.73-6.28zm56.195-7.587c-.193.506-.36.812-.36.812.127-.28.246-.55.36-.82 1.08-2.88 2.88-12.32-21.288-10.26 0 0 28.348-6.59 21.288 10.26zM98.702 78.84s-2.205-9.12 12.57-4.84c0 0 7.064-9.17 20.782-1.142 0 0-9.153-4.068-19.12 2.63 0 0 5.175 2.51 6.814 4.095 0 0-20.4-9.96-19.03.372 0 0-8.87-1.116-10.567 6.327 0 0-2.97-7.257 8.56-7.443z"/><path fill="#8BC53F" d="M150.78 93.898c1.32.08 2.622.44 3.726 1.288 0 0 4.285 4.35-1.048 10.48.346 1.256.67 2.474.965 3.65.96-.89 2.55-2.895 1.718-5.912 0 0 13.17-1.58 2.29-7.955 0 0 .25-1.07.28-2.34 6.04-9.02-5.88-6.83-5.88-6.83 1.84-9.12-7.18-7.26-7.18-7.26 9.17 2.98 5.17 9.77 5.17 9.77 10.06-3.33 8.67 2.15 7.91 4.08-.01-3.35-1.72-7.79-13.36 1.12l.29.49.06.06c1.47-.47 3.31-.84 5.09-.67zm-62.878 3.868c-.016-.046-.027-.085-.043-.13l-.26.168c-2.55-7.452-.36-8.803 2.1-8.53 1.83.096 3.92 1.224 4.35 1.467.01 0 .02-.01.02-.02-.18.82 1.37 1.01 7.36-.9 0 0 .29.19.8.42 1.72.79 5.97 2.11 9.98-1.44.23-.2.46-.42.69-.65 0 0 .31.27.87.69 1.52 1.13 4.92 3.38 9.26 4.61.54.16 1.09.29 1.66.41 1.83.38 3.79.56 5.83.38 0 0 1.7 2.82 5.05 3.26.75.1 1.59.08 2.52-.12 0 0 1.45 3.24 3 7.09-1.01-4.53-2.46-8.25-2.46-8.25-4.58 2-7.53-2.66-7.53-2.66-11.08.45-18.23-6.4-18.23-6.4-5.11 5.96-11.83 1.68-11.83 1.68-3.91 3.07-7.28 1.83-7.28 1.83l.06-.07c-12.64-7.76-6.99 7.25-6.99 7.25-1.69 3.68-1.79 5.55-1.73 6.29.01.14.03.24.04.3.54-2.34 1.45-4.56 2.68-6.61z"/><path fill="#ECC2DB" d="M101.96 185.84s-22.784-19.735-27.58-12.038c0 0 .605 3.998 3.36 2.78 0 0-1.737 3.52 3.433 2.55 0 0-1.025 4.4 3.63 3.003l16.89 8.58 3.23-4.5 1.82 2.924c-.262-.94-2.034-8.12 3.627-15.19-1.257-1.03-2.584-1.96-4.012-2.69-2.725 3.7-4.647 8.49-4.397 14.57zM78.6 175.833s2.58-2.632 3.51-.3c0 0-.986-1.4-3.51.3zm3.145 2.605c3.77-4.026 6.304 2.74 6.304 2.74-3-5.4-6.31-2.74-6.31-2.74z"/><path fill="#6D5288" d="M116.76 162.562c-3.183 1.705-7.31 4.51-10.402 8.71 1.428.732 2.754 1.653 4.012 2.686 2.007-2.503 4.944-4.992 9.215-7.183-.286-.34-.572-.67-.854-1.03-.83-1.078-1.47-2.14-1.97-3.183z"/><path fill="#8A6AAD" d="M81.743 178.437s3.304-2.66 6.304 2.74c0 0-2.535-6.767-6.304-2.74zm.364-2.907c-.93-2.33-3.51.302-3.51.302 2.525-1.7 3.51-.3 3.51-.3z"/><path fill="#ECC2DB" d="M144.418 168.24c.937-.528 2.08-1.164 3.402-1.826 1.322-.656 2.834-1.37 4.477-1.944.817-.287 1.67-.538 2.513-.697.825-.15 1.67-.188 2.22-.044.557.16.71.29.974.82.247.53.364 1.46.34 2.46-.057 2.02-.542 4.33-1.13 6.65-.575 2.24-1.274 4.52-1.99 6.83 1.247 1.01 2.758 1.64 4.33 1.84l.065-.22c.71-2.43 1.43-4.87 2.02-7.36.58-2.49 1.11-4.99 1.15-7.69 0-.68-.03-1.38-.14-2.1-.11-.72-.29-1.48-.65-2.25-.35-.76-.9-1.54-1.63-2.12-.73-.59-1.58-.94-2.35-1.12-1.57-.34-2.87-.16-4.04.05-1.16.23-2.19.56-3.15.91-.92.34-1.77.7-2.57 1.06-1.51 2.99-3.19 5.43-4.97 7.35.32-.2.69-.41 1.09-.64z"/><path fill="#6D5288" d="M170.72 197.567c.314-.205.617-.403.897-.59.928-.618 1.684-1.14 2.156-1.47.485-.336.74-.517.74-.517 1.2-.834 1.498-2.483.66-3.685-.835-1.2-2.484-1.493-3.683-.66-.01.006-.025.02-.034.025l-.732.527c-.49.353-1.153.825-2.047 1.438-.012.01-.026.02-.036.025l2.08 4.907zm-15.58-16.81c-.746 2.395-1.517 4.805-2.207 7.243-.682 2.448-1.334 4.878-1.6 7.543-.06.67-.093 1.36-.06 2.092.04.736.133 1.52.422 2.38.162.437.348.877.653 1.324.257.38.592.75.975 1.06 1.022.3 2.923.64 3.363.71l1.53-4.74c-.196.05-.39.1-.574.13-.363.07-.704.1-.92.08-.22-.02-.273-.05-.24-.03.023.03-.017.01-.11-.2-.17-.45-.238-1.42-.15-2.41.166-2.04.715-4.36 1.33-6.69.61-2.27 1.31-4.59 2-6.93-1.57-.21-3.082-.84-4.33-1.85l-.082.26z"/><path fill="#ECC2DB" d="M157.188 128.918c.016-1.108-.01-2.233-.068-3.382l.062 3.386c0-.002.004-.003.006-.004zm-34.808 8.872c-.1.008-.198.012-.296.018l.132.606-.13-.605.293-.02zm31.078-32.124c-.342.39-.72.788-1.142 1.19.465 2.174.616 4.416.41 6.69-.435 4.752-2.365 9.08-5.39 12.723l.002-.01-2.315 5.71c3.895-1.67 8.003-3.81 12.09-6.56-.238-4.51-1.04-9.39-2.454-15.15l-.24-.96c-.3-1.18-.62-2.4-.97-3.65z"/><path fill="#6D5288" d="M136.86 136.854s17.212-8.392-7.2 36.92c0 0-3.94-19.567 7.2-36.92z"/><path fill="#8A6AAD" d="M140.604 137.04c-4.9 1.264-10.916 2.285-18.118 2.608l.78 3.555s-4.955 3.747-6.953 9.328c-1.05 2.94-1.278 6.37.447 10.03.49 1.05 1.135 2.11 1.97 3.19.282.36.57.69.855 1.03 3.185 3.78 6.622 6.13 10.076 7-.02-1.59.3-3.2 1.23-4.87 5.08-10.15 8.1-20.91 9.72-31.86zm-17.53 11.82c1.483 0 2.684 1.2 2.684 2.683 0 1.48-1.2 2.683-2.683 2.683-1.482 0-2.683-1.2-2.683-2.683 0-1.483 1.2-2.684 2.683-2.684zm4.38-6.92c1.378 0 2.494 1.116 2.494 2.495 0 1.378-1.116 2.495-2.495 2.495-1.378 0-2.494-1.117-2.494-2.495 0-1.378 1.11-2.496 2.49-2.496zm-8.512 18.473c0-1.48 1.2-2.682 2.683-2.682 1.483 0 2.683 1.21 2.683 2.69s-1.2 2.69-2.683 2.69c-1.482 0-2.683-1.2-2.683-2.68z"/><path fill="#6D5288" d="M157.183 129.077c0-.054.005-.105.005-.16l-.007.005.01.155zm-.1 2.4c.03-.5.06-1.006.073-1.513-.198.153-1.196.888-3.013 1.89 1.023-.052 2.005-.175 2.94-.376z"/><path fill="#999" d="M147.34 126.27h-.003c-4.244 5.118-10.658 8.883-18.142 10.584 4.127-.798 9.71-2.246 15.828-4.868l2.316-5.717z"/><path fill="#D0D1D2" d="M87.607 97.804l.25-.168c.017.045.028.084.044.13 1.58-2.63 3.66-5 6.17-7.024-.43-.243-2.52-1.372-4.35-1.466-2.46-.275-4.65 1.076-2.1 8.528z"/><path fill="#ECC2DB" d="M141.703 107.368c-.155-.996-.347-1.98-.56-2.932-1.553-3.85-3.003-7.088-3.003-7.088-.923.204-1.765.224-2.52.125 3.002 2.86 5.13 6.25 6.083 9.895zM113.81 88.83c-.562-.418-.875-.686-.875-.686-.23.236-.46.45-.69.656.518 0 1.04.008 1.565.03zm29.958 6.444l-.076.032.076-.032zm1.862-.774l-1.46.607c.434-.175.945-.364 1.52-.543l-.06-.063zm-3.355 28.634l-2.083-3.29c-.31.57-.64 1.128-1.01 1.668l3.093 1.622zm3.83-24.398c-.203.027-.423.063-.64.098 1.197 2.532 2.112 4.85 2.776 6.95.18-.186.4-.415.64-.68-.51-1.933-2-4.9-2.77-6.368z"/><path fill="#FFE8BA" d="M110.81 124.138c1.572.628 3.9.652 6.77-1.967-.97-.65-1.843-1.42-2.62-2.28-.573 2.03-2.143 3.64-4.15 4.26z"/><path fill="#FFE8BA" d="M139.183 121.512c.37-.54.7-1.096 1.01-1.667l-.47-.738c2.645-2.27 2.712-7.097 1.98-11.74-.954-3.645-3.08-7.035-6.082-9.894-3.35-.438-5.05-3.26-5.05-3.26-2.04.18-4 0-5.83-.378l2.26 2.18c7.95.724 13.81 7.71 13.08 15.603-.6 6.61-5.63 11.742-11.91 12.815l.1-.004-2.56 3.79-1.3-3.63c-1.4-.13-2.73-.46-3.97-.95 1.33 3.18 1.44 8-10.1 7.99 0 0-1.31.19-3.21-.57-.67-.21-1.28-.48-1.65-.85-1.62-1.01-3.47-2.71-5.26-5.58 0 0-2.3-7.38 3.74-1.52 0 0 .66.51 1.89.4-1.78-1.06-2.99-2.98-3.05-5.19-1.61.6-3.37.87-5.2.7-.46-.04-.91-.12-1.35-.21l.02.01-3.6 2.75-.53-4.48h.01c-3.43-2.28-5.54-6.29-5.14-10.64.58-6.35 6.27-11.01 12.71-10.42l3.09-2.53.46 3.43c4.54 1.92 7.52 6.55 7.06 11.65-.11 1.18-.39 2.3-.83 3.35.7.05 1.37.21 1.99.47-.17-1.13-.23-2.29-.12-3.47.6-6.6 5.61-11.72 11.87-12.81h-.09V93.4c-4.34-1.23-7.74-3.476-9.26-4.606-.52-.02-1.04-.03-1.56-.03-4.02 3.544-8.26 2.23-9.99 1.44-9.36 2.81-16.18 9.48-16.94 17.81-1.09 11.983 10.76 22.86 26.47 24.295 11.67 1.06 22.19-3.38 27.28-10.65l-1.01-.78 1.14.59z"/><path fill="#F69C95" d="M110.31 131.643s-1.74-.12-3.214-.568c1.907.756 3.213.568 3.213.568zm7.27-9.473c-2.87 2.62-5.198 2.596-6.77 1.968-.582.178-1.2.275-1.838.275-.07 0-.137-.007-.208-.01 1.276 1.32 5.738 5.295 8.79-.094l.37.1-.007.02c-.166.43-3.885 9.8-10.61 4.84 0 0-.1-2.38-2.394-3.36-1.695.14-3.512-.57-4.2-3.84h.51s2.015 5.5 6.548 2.2c-.7-.14-1.36-.4-1.96-.76-1.23.1-1.89-.41-1.89-.41-6.03-5.86-3.73 1.52-3.73 1.52 1.79 2.87 3.64 4.57 5.27 5.57-.5-.49-.55-1.14.32-2.01 0 0-1.64 1.66 4.55 3.42 11.55.01 11.43-4.81 10.1-7.99-1-.4-1.95-.89-2.83-1.48zm.927 3.25c.793-2.695-1.903-1.403-1.903-1.403 3.33-1.878 1.903 1.404 1.903 1.404z"/><path fill="#919396" d="M148.877 105.105c1.854-2.064 4.864-6.145.096-6.542-.765-.034-1.715.02-2.868.174.77 1.466 2.257 4.434 2.772 6.368z"/><path fill="#ECC2DB" d="M129.568 189.933h4.85c-.34-1.13-.604-2.358-.726-3.718-1.706-.25-3.302-1.054-4.908-1.805.043 1.8.28 3.655.784 5.523zm-12.335 15.925l-.077.02.077.124v-.144z"/><path fill="#6D5288" d="M154.838 137.605c-.808-1.632-1.29-3.456-1.455-5.342-.727.38-1.556.79-2.493 1.215-2.596 1.174-6.015 2.46-10.285 3.562-1.624 10.95-4.646 21.716-9.72 31.865-.925 1.66-1.25 3.275-1.224 4.868.29.07.57.112.86.164-.99 2.923-1.82 6.56-1.73 10.473 1.61.75 3.2 1.556 4.91 1.805-.3-3.424.23-7.592 2.31-12.55 2.56-.73 5.03-2.316 7.33-4.792 1.78-1.92 3.46-4.357 4.97-7.35.73-1.438 1.43-3.003 2.07-4.695 2.86-7.425 4.86-13.374 5.93-19.104-.48-.023-.96-.057-1.45-.12z"/><path fill="#ECC2DB" d="M157.082 131.478c-.934.2-1.916.324-2.938.377-.24.134-.492.268-.76.41.163 1.885.646 3.71 1.454 5.34.496.063.978.097 1.455.12 10.825.52 16.927-8.746 20.27-17.636-1.427-.85-2.897-1.63-4.44-2.32-2.975 6.21-7.686 12.12-15.04 13.7z"/><circle fill="#FFF" stroke="#1A1A1A" stroke-miterlimit="10" cx="98.651" cy="107.962" r="11.501"/><circle fill="#0071BC" cx="100.138" cy="108.702" r="8.472"/><path fill="#0F4481" d="M99.527 110.835c-1.573-1.82-1.375-4.566.442-6.137 1.81-1.572 4.56-1.375 6.13.443 1.57 1.82 1.37 4.57-.45 6.14-1.82 1.57-4.57 1.38-6.14-.44z"/><path fill="#FFF" d="M102.062 109.5c-.836-.967-.73-2.426.235-3.26.965-.836 2.426-.734 3.263.233.835.966.73 2.427-.238 3.263-.966.836-2.425.73-3.26-.236z"/><circle fill="#FFF" cx="98.542" cy="107.388" r="1.126"/><circle fill="#FFF" stroke="#1A1A1A" stroke-miterlimit="10" cx="126.315" cy="110.397" r="14.581"/><circle fill="#0071BC" cx="127.914" cy="111.011" r="10.781"/><path fill="#0F4481" d="M127.137 113.726c-2.002-2.315-1.75-5.81.563-7.81 2.313-2 5.808-1.75 7.812.563 2 2.31 1.747 5.8-.564 7.81-2.31 2-5.81 1.74-7.81-.57z"/><path fill="#FFF" d="M130.36 112.027c-1.062-1.23-.93-3.087.3-4.15 1.23-1.062 3.088-.93 4.153.3 1.063 1.228.927 3.087-.304 4.15-1.23 1.064-3.09.93-4.15-.3z"/><circle fill="#FFF" cx="125.883" cy="109.34" r="1.433"/><path fill="#8A6AAD" d="M197.473 82.653c-5.286.524-14.8 11.223-14.8 11.223 2.327-6.436-1.268-11.223-1.268-11.223-2.537-3.916-5.92.376-5.92.376 6.132 5.12 1.458 17.93 1.458 17.93s-.918 8.65-4.82 16.81c1.542.68 3.013 1.47 4.44 2.31 2.996-7.97 3.784-15.62 3.784-15.62 4.23-.16 6.34-5.22 6.34-5.22h6.345c7.4 1.27 4.44-3.3 4.44-3.3-4.23-.77-14.165 2.45-12.05 0 2.113-2.46 9.938-6.69 9.938-6.69 7.4-3.01 2.113-6.62 2.113-6.62z"/><path fill="#BE202E" d="M107.945 124.655c-1.26.98-3.328 1.15-3.328 1.15.105.035.2.077.297.12 2.293.974 2.395 3.353 2.395 3.353 6.72 4.96 10.44-4.415 10.6-4.842-.16.41-2.8 6.75-9.98.22z"/><path fill="#6D6F71" d="M107.77 124.295c-4.532 3.3-6.548-2.204-6.548-2.204h-.51c.69 3.27 2.506 3.98 4.2 3.84-.096-.04-.19-.08-.296-.12 0 0 2.07-.17 3.328-1.15 7.176 6.53 9.813.19 9.973-.22l.007-.02-.37-.1c-3.052 5.39-7.514 1.42-8.79.1-.337-.01-.67-.04-.993-.11z"/><path fill="#6D6F71" d="M116.604 124.017s2.696-1.292 1.903 1.404c0 0 1.427-3.28-1.903-1.4zm-10.84 4.203c-.876.87-.823 1.522-.32 2.013.37.362.982.637 1.653.842 1.473.448 3.213.568 3.213.568-6.192-1.762-4.547-3.422-4.547-3.422z"/><path fill="#D0D1D2" d="M153.458 105.666c5.333-6.13 1.048-10.48 1.048-10.48-1.104-.847-2.404-1.208-3.726-1.288-1.782-.17-3.62.204-5.09.666-.575.18-1.087.368-1.52.543l-.403.167-.076.033c.66 1.225 1.24 2.392 1.78 3.526.22-.035.44-.07.64-.098 1.15-.155 2.11-.208 2.87-.174 4.77.4 1.76 4.48-.09 6.55-.24.27-.45.5-.63.68.44 1.38.76 2.67 1 3.88l1.85-1.71c.45-.37.85-.73 1.23-1.09.43-.4.8-.8 1.14-1.19z"/><path fill="#EC1C24" d="M108.765 124.403c.07.002.138.01.208.01.64 0 1.256-.098 1.837-.275 2.008-.62 3.578-2.228 4.15-4.254.154-.54.242-1.107.242-1.696 0-2.57-1.56-4.777-3.782-5.727-.617-.26-1.286-.42-1.986-.47-.153-.01-.305-.02-.46-.02-.625 0-1.23.1-1.797.27-1.453.44-2.677 1.4-3.47 2.65-.604.96-.96 2.1-.96 3.31 0 .06.007.11.01.17.06 2.21 1.266 4.13 3.05 5.19.6.36 1.26.62 1.967.76.32.07.653.1.99.11zm-4.718-7.63c0-2.288 1.855-4.143 4.144-4.143s4.15 1.855 4.15 4.143c0 2.29-1.85 4.143-4.14 4.143s-4.14-1.854-4.14-4.143z"/><path fill="#EF4B4D" d="M108.19 120.917c2.29 0 4.145-1.854 4.145-4.143 0-2.288-1.855-4.143-4.144-4.143s-4.14 1.86-4.14 4.15 1.86 4.15 4.15 4.15zm-3.683-4.928c0-1.08.874-1.96 1.952-1.96s1.95.87 1.95 1.95c0 1.07-.88 1.95-1.95 1.95s-1.96-.88-1.96-1.95z"/><circle fill="#F69C95" cx="106.458" cy="115.989" r="1.951"/><path fill="#1A1A1A" d="M92.09 117.136l.533 4.48 3.605-2.76-.022-.008-4.113-1.71m33.59 11.082l2.568-3.792-.1.005-3.77.16M103.21 96.98l-.463-3.43-3.09 2.533 3.603 1.265m19.912-1.166l3.818-.168-2.257-2.18c-.564-.116-1.116-.25-1.654-.403v2.76h.09z"/><path fill="#8BC53F" d="M100.72 79.956c-1.374-10.332 19.028-.372 19.028-.372-1.64-1.584-6.813-4.094-6.813-4.094 9.965-6.7 19.12-2.63 19.12-2.63C118.335 64.83 111.27 74 111.27 74c-14.773-4.28-12.57 4.84-12.57 4.84-11.524.185-8.55 7.442-8.55 7.442 1.698-7.443 10.57-6.326 10.57-6.326zm42.378 10.26c7.06-16.843-21.288-10.26-21.288-10.26 24.168-2.06 22.368 7.386 21.288 10.26zm0 0c-.113.266-.232.536-.36.813 0-.01.166-.31.36-.82z"/><path fill="#FAAF40" d="M129.195 136.854c-3.547.683-6.012.887-6.816.938-.19.013-.3.018-.3.018l.13.605.27 1.234c7.2-.33 13.22-1.35 18.12-2.61 4.27-1.1 7.69-2.39 10.28-3.56.93-.43 1.76-.84 2.49-1.22.27-.14.52-.28.76-.41 1.81-1 2.81-1.74 3.01-1.89l.04-.03-.02-.86-.01-.16-.06-3.39-.01-.12h-.01c-4.09 2.75-8.2 4.89-12.09 6.56-6.12 2.62-11.7 4.07-15.83 4.86z"/><circle fill="#FFCC7A" cx="127.453" cy="144.435" r="2.496"/><circle fill="#F2C652" cx="123.075" cy="151.542" r="2.683"/><circle fill="#F2C652" cx="121.625" cy="160.415" r="2.683"/><path fill="#EF4B4D" d="M65.882 103.788c-.615 5.474-5.253 9.73-10.892 9.73-2.634 0-5.05-.93-6.94-2.477 1.748 2.69 4.773 4.47 8.22 4.47 5.413 0 9.803-4.39 9.803-9.8 0-.65-.068-1.29-.19-1.91z"/><path fill="#FAAF40" d="M65.882 103.788C64.99 99.29 61.027 95.9 56.27 95.9c-5.417 0-9.806 4.39-9.806 9.806 0 1.97.586 3.8 1.585 5.336 1.89 1.547 4.3 2.478 6.94 2.478 5.64 0 10.27-4.258 10.89-9.732z"/><path fill="#9E1F63" d="M69.957 70.27c-2.633 0-5.05-.93-6.94-2.478 1.75 2.688 4.774 4.47 8.22 4.47 5.414 0 9.804-4.39 9.804-9.805 0-.656-.06-1.298-.19-1.917-.61 5.474-5.25 9.73-10.89 9.73z"/><path fill="#EC297B" d="M69.957 70.27c5.64 0 10.278-4.256 10.894-9.73-.89-4.497-4.85-7.887-9.61-7.887-5.41 0-9.8 4.39-9.8 9.805 0 1.97.59 3.8 1.59 5.335 1.89 1.547 4.31 2.478 6.94 2.478z"/><path fill="#1B75BB" d="M114.407 47.725c-2.634 0-5.05-.93-6.94-2.478 1.748 2.688 4.77 4.468 8.218 4.468 5.415 0 9.805-4.39 9.805-9.804 0-.65-.067-1.29-.19-1.91-.616 5.48-5.255 9.73-10.893 9.73z"/><path fill="#00A3DF" d="M114.407 47.725c5.638 0 10.277-4.256 10.892-9.73-.9-4.498-4.86-7.888-9.62-7.888-5.42 0-9.81 4.39-9.81 9.805 0 1.97.58 3.8 1.58 5.335 1.89 1.547 4.3 2.478 6.94 2.478z"/><path fill="#075" d="M166.302 67.387c-2.632 0-5.05-.93-6.94-2.478 1.75 2.68 4.773 4.46 8.22 4.46 5.414 0 9.806-4.39 9.806-9.81 0-.66-.068-1.3-.192-1.92-.616 5.47-5.256 9.73-10.894 9.73z"/><path fill="#29B473" d="M166.302 67.387c5.64 0 10.278-4.257 10.893-9.73-.892-4.498-4.855-7.888-9.614-7.888-5.41 0-9.8 4.39-9.8 9.8 0 1.97.59 3.8 1.59 5.33 1.89 1.54 4.31 2.47 6.94 2.47z"/><path fill="#FFF" d="M99.65 205.358c.28.14.565.263.857.368.29.103.59.192.892.263.25.04.51.08.78.12.27.03.55.05.85.05.18 0 .37-.01.56-.02.18-.01.37-.03.56-.05l-2.45-5-2.07 4.26zm61.783-4.266l-2.064 4.267c.27.14.56.26.85.36.29.1.59.19.89.26.25.04.52.08.78.12.27.03.55.05.85.05.18 0 .37-.01.56-.02.18-.01.37-.03.56-.05l-2.45-5z"/><path fill="#F05A28" d="M87.056 193.395h2.73v-2.66H76.07v2.66h2.17v6.156h-6.508v-6.15h2.73v-2.66H60.747v2.66h2.17v19.31h-2.17v2.66H74.46v-2.66h-2.728v-10.5h6.508v10.5h-2.17v2.66h13.715v-2.66h-2.73"/><path fill="#EB008B" d="M116.442 212.705l-11.965-23.755-7.17 15.15c-.7-.327-1.37-.57-2.012-.734-.642-.164-1.266-.234-1.872-.21-.84.023-1.585.215-2.24.575-.652.37-1.188.92-1.608 1.67-.14.24-.245.5-.314.79-.07.3-.1.59-.1.9v.35c.05.35.13.69.23 1.02.11.33.25.63.44.91l2.24-1.43c-.02-.07-.05-.15-.08-.24s-.06-.18-.09-.28c-.02-.07-.03-.12-.03-.17v-.14c0-.09.01-.17.02-.23.02-.06.03-.11.06-.15.19-.33.43-.56.72-.7.29-.14.61-.21.97-.21.19 0 .38.02.58.05.2.04.39.08.58.13.26.07.5.15.74.24.24.1.46.19.67.28l-3.04 6.23h-3.08v2.66h7.83v-2.66h-1.8l2.41-4.97c.35.17.72.32 1.11.48s.8.27 1.24.37c.33.07.67.12 1.04.17.36.05.75.07 1.17.07.35 0 .72-.02 1.11-.05.39-.03.8-.09 1.25-.15l1.96 4.09H105v2.66h13.23v-2.66h-1.72zm-12.84-6.56c-.186.014-.372.02-.56.02-.302 0-.587-.02-.856-.055-.268-.034-.53-.074-.787-.12-.31-.07-.61-.16-.9-.263-.29-.105-.58-.228-.86-.368l2.06-4.27 2.45 5c-.19.02-.38.04-.56.05z"/><path fill="#00ADEE" d="M145.094 193.395h2.73v-2.66H134.11v2.66h2.167v6.156h-6.507v-6.15h2.73v-2.66h-13.714v2.66h2.17v19.31h-2.17v2.66H132.5v-2.66h-2.73v-10.5h6.508v10.5h-2.17v2.66h13.715v-2.66h-2.73"/><path fill="#37B34A" d="M164.196 188.95l-7.173 15.15c-.697-.328-1.37-.57-2.012-.735-.64-.164-1.26-.234-1.87-.21-.84.023-1.58.215-2.24.575-.65.364-1.18.917-1.6 1.664-.14.233-.24.495-.31.785-.07.29-.1.59-.1.89v.35c.05.35.12.68.23 1.01.11.32.25.63.44.91l2.24-1.44c-.02-.07-.05-.15-.08-.25-.03-.09-.06-.19-.08-.28-.02-.07-.04-.13-.04-.18v-.14c0-.1.01-.17.02-.23.02-.06.03-.11.06-.16.19-.33.43-.56.72-.7.29-.14.61-.21.96-.21.19 0 .38.01.58.05.2.03.39.08.58.12.26.07.5.15.74.24s.45.19.66.28l-3.04 6.23h-3.08v2.66h7.84v-2.66h-1.79l2.42-4.97c.35.16.71.32 1.1.47.38.15.8.27 1.24.37.32.07.67.12 1.03.17.36.04.75.07 1.17.07.36 0 .72-.02 1.11-.06.38-.04.8-.09 1.24-.16l1.96 4.09h-2.42v2.66h13.22v-2.66h-1.71l-11.98-23.74zm-.876 17.195c-.188.014-.373.02-.56.02-.304 0-.59-.02-.856-.055-.27-.034-.53-.074-.787-.12-.305-.07-.602-.16-.893-.263-.294-.105-.577-.228-.856-.368l2.064-4.27 2.448 5c-.186.02-.374.04-.56.05z"/><path fill="#C3996B" d="M187.985 209.313c-.77-.606-1.61-1.004-2.52-1.19-.21-.046-.413-.08-.614-.104-.19-.03-.39-.04-.57-.04-.19 0-.37.01-.56.03l-.59.07c-.93.19-1.79.59-2.57 1.2-.78.62-1.17 1.44-1.17 2.47 0 1.05.39 1.87 1.17 2.48s1.64.99 2.58 1.15c.21.02.41.04.6.07.19.02.37.03.56.03.19 0 .38-.01.58-.04.21-.03.41-.05.62-.07.91-.17 1.75-.56 2.52-1.18.77-.62 1.15-1.44 1.15-2.47 0-1.03-.38-1.85-1.15-2.45zm-7.663-17.02c-.886.757-1.33 1.707-1.33 2.85 0 .98.147 1.786.44 2.416.29.62.632 1.22 1.03 1.78.07.07.133.14.192.23.06.08.11.15.157.22.05.04.1.1.14.16.05.05.09.12.11.19.45.6.85 1.33 1.21 2.19.37.85.55 2.05.55 3.58v1.32h2.9v-1.33c0-1.5.18-2.67.53-3.52.35-.85.75-1.57 1.19-2.15.05-.1.1-.18.16-.25s.11-.14.16-.21l.16-.23c.06-.08.11-.16.16-.23.42-.56.77-1.15 1.05-1.78.28-.63.42-1.44.42-2.42 0-1.12-.44-2.06-1.31-2.84-.87-.77-1.83-1.26-2.88-1.47-.16-.03-.34-.05-.52-.07-.18-.03-.36-.04-.52-.04s-.33 0-.51.02c-.17.01-.34.04-.5.09-1.07.21-2.05.69-2.94 1.45z"/></svg>