<?xml version="1.0" encoding="utf-8"?>
<!-- Generator: Adobe Illustrator 16.0.0, SVG Export Plug-In . SVG Version: 6.00 Build 0)  -->
<!DOCTYPE svg PUBLIC "-//W3C//DTD SVG 1.1//EN" "http://www.w3.org/Graphics/SVG/1.1/DTD/svg11.dtd">
<svg version="1.1" id="Layer_1" xmlns="http://www.w3.org/2000/svg" xmlns:xlink="http://www.w3.org/1999/xlink" x="0px" y="0px"
	 width="250px" height="250px" viewBox="0 0 250 250" enable-background="new 0 0 250 250" xml:space="preserve">
<path opacity="0.15" d="M215.92,134.745c7.242-3.319,7.328-8.039,0.227-11.386c6.617-4.225,5.931-8.896-1.674-11.265
	c6.321-5.196,4.965-9.893-3.325-11.176c5.813-6.047,4.044-10.604-4.133-10.903c4.61-6.495,2.325-10.625-5.498-9.973
	c3.618-6.968,0.688-10.67-7.082-8.918c2.876-7.661-0.647-11.05-8.469-8.016c2.011-8.144-1.8-11.206-9.03-7.377
	c0.746-7.93-3.299-10.364-9.748-5.887c-0.351-7.844-4.738-9.585-10.593-4.183c-1.339-8.073-6.084-9.247-11.341-2.708
	c-2.33-8.059-7.162-8.805-11.509-1.872c-3.319-7.242-8.039-7.328-11.386-0.226c-4.225-6.617-8.896-5.93-11.265,1.674
	c-5.195-6.321-9.893-4.965-11.176,3.325c-6.047-5.814-10.604-4.045-10.903,4.132c-6.495-4.611-10.625-2.325-9.974,5.498
	c-6.967-3.618-10.669-0.688-8.918,7.083c-7.66-2.877-11.049,0.646-8.016,8.467c-8.144-2.012-11.206,1.799-7.376,9.03
	c-7.931-0.746-10.365,3.299-5.888,9.749c-7.843,0.351-9.583,4.739-4.182,10.593c-8.072,1.339-9.246,6.084-2.709,11.341
	c-8.059,2.33-8.805,7.162-1.873,11.509c-7.241,3.318-7.326,8.039-0.225,11.386c-6.617,4.225-5.93,8.896,1.675,11.265
	c-6.322,5.195-4.966,9.893,3.325,11.176c-5.815,6.047-4.045,10.604,4.133,10.902c-4.613,6.496-2.327,10.627,5.498,9.975
	c-3.617,6.967-0.688,10.669,7.083,8.918c-2.876,7.66,0.646,11.049,8.466,8.017c-2.011,8.144,1.8,11.206,9.031,7.376
	c-0.747,7.93,3.299,10.364,9.748,5.887c0.351,7.844,4.739,9.585,10.593,4.182c1.338,8.073,6.084,9.247,11.34,2.709
	c2.33,8.059,7.162,8.806,11.509,1.873c3.318,7.242,8.039,7.328,11.386,0.226c4.226,6.616,8.896,5.931,11.265-1.675
	c5.195,6.321,9.893,4.965,11.177-3.324c6.046,5.813,10.604,4.043,10.902-4.133c6.495,4.611,10.626,2.326,9.974-5.498
	c6.967,3.618,10.669,0.688,8.918-7.083c7.66,2.878,11.05-0.646,8.016-8.468c8.146,2.012,11.208-1.799,7.377-9.029
	c7.93,0.746,10.364-3.299,5.889-9.747c7.842-0.352,9.582-4.739,4.181-10.593c8.072-1.339,9.247-6.084,2.71-11.342
	C222.106,143.924,222.853,139.093,215.92,134.745z"/>
<g id="Layer_2_1_">
</g>
<g id="Layer_2">
</g>
<g>
	<path fill="#FF5AAD" d="M197.339,125.094c28.743-6.209,26.566-20.104-3.569-18.425c26.974-13.544,21.943-26.679-6.075-17.757
		c21.788-19.749,12.956-30.694-12.303-14.173c16.585-25.215,5.663-34.076-14.142-12.34c8.995-27.997-4.127-33.059-17.74-6.121
		c1.757-30.131-12.132-32.344-18.415-3.617c-6.208-28.743-20.104-26.567-18.426,3.569c-13.543-26.972-26.678-21.944-17.756,6.076
		C69.164,40.518,58.219,49.352,74.74,74.611C49.525,58.023,40.664,68.945,62.4,88.75c-27.997-8.994-33.058,4.128-6.121,17.741
		c-30.131-1.757-32.344,12.132-3.617,18.415c-28.742,6.209-26.565,20.104,3.57,18.426c-26.974,13.543-21.945,26.678,6.075,17.755
		c-21.787,19.75-12.955,30.694,12.302,14.175c-16.586,25.215-5.664,34.074,14.142,12.338c-8.995,27.997,4.127,33.06,17.74,6.121
		c-1.756,30.131,12.132,32.344,18.416,3.617c6.208,28.743,20.104,26.566,18.425-3.568c13.543,26.971,26.678,21.943,17.757-6.076
		c19.748,21.789,30.692,12.955,14.171-12.304c25.217,16.587,34.078,5.665,12.34-14.138c27.997,8.994,33.059-4.129,6.121-17.742
		C223.853,145.268,226.064,131.378,197.339,125.094z"/>
	<path fill="#FF8ABA" d="M196.737,115.686c27.691-9.895,23.726-23.389-5.935-17.805c24.98-16.937,18.287-29.306-8.334-16.816
		c19.035-22.414,8.854-32.118-14.042-12.452c13.167-27.158,1.185-34.523-15.625-10.396c5.277-28.929-8.392-32.241-18.387-3.761
		c-2.177-30.104-16.235-30.492-18.729-1.192c-9.894-27.691-23.389-23.726-17.805,5.935c-16.936-24.981-29.306-18.288-16.816,8.334
		c-22.414-19.035-32.117-8.854-12.451,14.042C41.456,68.407,34.09,80.39,58.218,97.199c-28.928-5.276-32.24,8.393-3.762,18.387
		c-30.104,2.176-30.491,16.234-1.191,18.729c-27.691,9.894-23.726,23.387,5.936,17.804c-24.983,16.938-18.289,29.307,8.333,16.815
		c-19.034,22.414-8.854,32.118,14.041,12.453C68.408,208.545,80.39,215.91,97.2,191.781c-5.278,28.93,8.391,32.242,18.386,3.763
		c2.177,30.104,16.234,30.493,18.729,1.191c9.894,27.691,23.388,23.727,17.805-5.933c16.937,24.98,29.306,18.286,16.815-8.335
		c22.414,19.034,32.117,8.854,12.451-14.043c27.158,13.169,34.523,1.187,10.397-15.623c28.927,5.278,32.239-8.392,3.762-18.387
		C225.648,132.238,226.036,118.18,196.737,115.686z"/>
	<circle fill="#FF5AAD" cx="124.287" cy="124.684" r="73.491"/>
	<path opacity="0.5" d="M98.251,171.629l-11.642-9.879c1.788-2.719,2.839-5.93,2.839-9.381c0-9.752-8.257-17.655-18.442-17.655
		s-18.441,7.903-18.441,17.655c0,9.75,8.256,17.656,18.441,17.656c4.546,0,8.701-1.584,11.917-4.195L98.251,171.629z"/>
	<g>
		<path fill="#FFFFFF" d="M93.253,74.626c1.171-0.207,2.341-0.448,3.442-0.448c0.241,0,0.517,0,0.757,0.034l2.134-10.049h4.957
			L99.07,89.907h-4.956l2.719-12.769c-0.756-0.275-1.479-0.344-2.202-0.344c-0.655,0-1.308,0.069-1.858,0.137l-2.753,12.976h-4.957
			l4.99-23.404c-3.028,1.273-4.818,3.89-4.818,7.538c0,1.755,0.447,2.031,0.482,2.34c-2.375,0-3.683-0.86-3.683-3.339
			c0-4.578,6.333-8.948,12.081-8.948c0.482,0,0.929,0.035,1.376,0.069L93.253,74.626z"/>
		<path fill="#FFFFFF" d="M119.468,72.698L116.99,84.4c-0.068,0.378-0.138,0.757-0.138,1.067c0,0.757,0.344,1.308,1.722,1.308
			c1.376,0,3.166-1.928,4.542-3.029h1.171c-1.583,1.583-5.473,6.161-8.158,6.161c-2.237,0-3.751-0.826-4.199-2.616
			c-1.032,1.411-2.582,2.822-4.681,2.822c-3.304,0-4.268-2.34-4.268-4.372c0-5.919,2.133-13.01,9.017-13.01
			c0.826,0,1.687,0.344,2.306,0.861l0.207-0.895H119.468z M107.629,84.813c0,2.065,1.135,2.444,1.996,2.444
			c0.791,0,1.548-0.758,2.203-1.721c0.034-0.344,0.103-0.723,0.207-1.136l1.927-9.121c-0.551-0.481-1.204-0.619-1.686-0.619
			C109.693,74.661,107.629,80.132,107.629,84.813z"/>
		<path fill="#FFFFFF" d="M128.91,72.698l-0.138,0.654c0.724-0.378,1.548-0.62,2.408-0.62c3.58,0,5.267,1.273,5.267,4.819
			c0,0.723-0.068,1.515-0.207,2.41c-1.066,7.399-4.026,9.912-7.537,9.912c-1.137,0-2.202-0.378-3.235-1.033l-1.79,8.433
			l-5.197,1.239l5.473-25.813H128.91z M131.836,80.374c0.309-1.514,0.447-2.65,0.447-3.477c0-2.065-0.827-2.478-1.928-2.478
			c-0.654,0-1.307,0.275-1.962,0.723l-2.478,11.564c0.825,0.62,1.687,0.62,2.236,0.62C129.873,87.326,130.699,85.846,131.836,80.374
			z"/>
		<path fill="#FFFFFF" d="M144.19,72.698l-0.138,0.654c0.723-0.378,1.549-0.62,2.409-0.62c3.58,0,5.268,1.273,5.268,4.819
			c0,0.723-0.07,1.515-0.208,2.41c-1.066,7.399-4.027,9.912-7.537,9.912c-1.136,0-2.202-0.378-3.235-1.033l-1.79,8.433l-5.197,1.239
			l5.473-25.813H144.19z M147.117,80.374c0.31-1.514,0.447-2.65,0.447-3.477c0-2.065-0.826-2.478-1.928-2.478
			c-0.654,0-1.308,0.275-1.962,0.723l-2.478,11.564c0.824,0.62,1.686,0.62,2.236,0.62C145.154,87.326,145.981,85.846,147.117,80.374
			z"/>
		<path fill="#FFFFFF" d="M160.574,72.698L158.061,84.4c-0.104,0.378-0.172,0.757-0.172,1.102c0,0.757,0.379,1.273,1.721,1.273
			c0.791,0,1.721-0.619,2.615-1.376l2.686-12.7h4.99l-4.199,19.962c-1.032,4.922-3.991,5.851-6.264,5.851
			c-2.1,0-4.061-1.479-4.061-3.717c0-3.201,2.684-4.199,5.953-5.163l0.516-2.375c-1.547,1.411-3.303,2.65-4.68,2.65
			c-2.686,0-4.267-1.17-4.267-3.751c0-0.551,0.067-1.102,0.205-1.756l2.41-11.702H160.574z M158.646,95.449
			c0.688,0,1.619-0.654,2.03-2.685l0.413-2.031c-2.168,0.723-3.819,1.722-3.819,3.58C157.27,94.795,157.889,95.449,158.646,95.449z"
			/>
		<path fill="#FFFFFF" d="M85.542,120.203l3.442-16.28l-6.54,16.28h-4.716v-14.697l-4.542,14.697h-2.754l7.71-23.646
			c-3.442,1.102-5.542,3.82-5.542,7.779c0,1.755,0.448,2.031,0.482,2.34c-2.375,0-3.683-0.86-3.683-3.338
			c0-4.199,5.817-8.811,11.186-8.811c0.792,0,1.618,0.103,2.375,0.344v19.825l7.538-19.825H95.9l-5.403,25.332H85.542z"/>
		<path fill="#FFFFFF" d="M107.881,107.708c0.206,0.207,0.516,0.31,0.998,0.31c1.618,0,2.341-1.17,3.614-1.687l0.138,0.723
			c-1.067,1.343-2.857,2.478-4.854,3.029c-0.654,6.918-4.405,10.325-7.848,10.325c-3.683,0-5.266-1.548-5.266-5.645
			c0-8.467,4.303-12.115,9.052-12.115C106.985,102.649,107.812,105.196,107.881,107.708z M105.23,110.428
			c-0.998,0-1.446-0.723-1.446-1.549c0-0.998,0.586-2.064,1.516-2.409c-0.104-1.136-0.482-1.79-1.446-1.79
			c-3.235,0-4.612,7.021-4.612,9.775c0,2.065,0.963,2.615,2.306,2.615C103.647,117.07,104.817,113.766,105.23,110.428z"/>
		<path fill="#FFFFFF" d="M118.07,97.556c0,0-0.517,2.34-1.171,5.438h2.065l-0.275,1.377h-2.064
			c-2.375,10.876-2.341,11.22-2.341,11.393c0,0.791,0.345,1.308,1.721,1.308c1.377,0,3.167-1.928,4.543-3.029h1.17
			c-1.584,1.584-5.473,6.162-8.157,6.162c-2.65,0-4.268-1.17-4.268-3.751c0-1.824,1.79-9.121,2.375-12.081h-1.136l0.275-1.377h1.135
			l1.033-4.75L118.07,97.556z"/>
		<path fill="#FFFFFF" d="M133.436,114.695c-0.104,0.413-0.174,0.792-0.174,1.102c0,0.756,0.38,1.273,1.723,1.273
			c1.376,0,3.165-1.928,4.543-3.029h1.17c-1.583,1.584-5.473,6.162-8.156,6.162c-2.686,0-4.269-1.17-4.269-3.751
			c0-0.551,0.069-1.101,0.206-1.756l1.31-6.195c0.067-0.309,0.102-0.619,0.102-0.895c0-1.238-0.652-2.03-1.583-2.03
			c-0.826,0-1.445,0.241-2.134,0.723l-2.959,13.905h-4.956l4.991-23.405l5.094-0.688l-1.858,8.708
			c1.409-0.998,2.993-1.824,4.475-1.824c1.856,0,3.957,1.997,3.957,4.303c0,0.275,0,0.551-0.069,0.826L133.436,114.695z"/>
		<path fill="#FFFFFF" d="M144.888,117.724c1.685,0,4.577-1.996,5.782-4.542h1.549c-1.963,3.545-5.267,7.021-9.707,7.021
			c-3.305,0-5.094-2.513-5.094-5.473c0-4.372,1.859-12.046,8.123-12.046c2.822,0,4.406,1.17,4.406,3.579
			c0,4.199-4.509,6.608-7.779,7.021c-0.068,0.55-0.104,1.066-0.104,1.479C142.064,117.036,143.546,117.724,144.888,117.724z
			 M146.676,104.507c-1.926,0-3.51,3.89-4.232,7.125c3.167-0.035,5.402-2.754,5.439-5.197
			C147.883,105.712,147.71,104.507,146.676,104.507z"/>
		<path fill="#FFFFFF" d="M158.124,102.993l-0.378,1.722c1.238-0.964,2.616-1.722,4.062-1.722c1.547,0,2.478,0.895,2.478,2.203
			c0,1.205-0.895,2.685-2.582,2.685c-1.926,0-0.964-2.271-1.996-2.271s-1.583,0.378-2.374,1.101l-2.856,13.492h-4.957l3.648-17.209
			H158.124z"/>
		<path fill="#FFFFFF" d="M168.918,94.458c1.412,0,2.205,0.964,2.205,2.271c0,1.79-1.55,4.095-4.165,5.783
			c-0.241-0.138-0.31-0.31-0.31-0.482l1.687-2.409c0-0.206-0.137-0.413-0.413-0.585c-0.86-0.516-1.515-1.205-1.515-2.168
			C166.407,95.56,167.509,94.458,168.918,94.458z"/>
		<path fill="#FFFFFF" d="M180.609,102.374v0.482c0,5.679,2.514,7.331,2.514,11.357c0,3.202-2.03,5.989-6.678,5.989
			c-3.957,0-5.885-1.136-5.885-4.509c0-2.718,1.238-4.302,2.616-4.405c1.17-2.237,1.858-5.266,2.443-7.882L180.609,102.374z
			 M173.555,115.556c-0.414,0-0.825-0.104-1.238-0.31c0,2.031,1.1,2.926,2.925,2.926c1.17,0,2.856-1.446,2.856-4.096
			c0-2.134-1.549-3.958-1.617-8.26c-0.551,1.687-1.033,3.889-1.791,5.61c0.827,0.275,1.137,0.895,1.137,1.928
			C175.792,114.661,174.76,115.556,173.555,115.556z"/>
		<path fill="#FFFFFF" d="M105.497,127.918l-4.13,19.31c0.653,0.481,1.308,0.688,1.961,0.688c4.097,0,6.609-8.295,6.609-14.902
			c0-4.303-0.792-6.746-4.75-6.746c-5.576,0-9.293,3.131-9.293,8.363c0,1.756,0.447,2.031,0.482,2.34
			c-2.375,0-3.683-0.859-3.683-3.338c0-4.578,6.333-8.949,12.08-8.949c7.951,0,9.913,4.441,9.913,9.293
			c0,8.881-4.44,16.969-9.534,16.969c-1.308,0-2.719-0.551-4.199-1.825l-0.274,1.378h-4.957l4.681-21.891L105.497,127.918z"/>
		<path fill="#FFFFFF" d="M131.333,133.289l-2.478,11.702c-0.07,0.378-0.139,0.757-0.139,1.066c0,0.757,0.344,1.308,1.722,1.308
			c1.376,0,3.166-1.927,4.542-3.029h1.17c-1.583,1.584-5.473,6.162-8.156,6.162c-2.237,0-3.751-0.826-4.2-2.615
			c-1.032,1.409-2.581,2.82-4.68,2.82c-3.304,0-4.268-2.34-4.268-4.37c0-5.92,2.134-13.01,9.018-13.01
			c0.826,0,1.687,0.344,2.306,0.86l0.205-0.895H131.333z M119.493,145.404c0,2.064,1.135,2.443,1.996,2.443
			c0.792,0,1.549-0.758,2.202-1.721c0.035-0.346,0.103-0.723,0.207-1.136l1.928-9.122c-0.551-0.481-1.205-0.619-1.688-0.619
			C121.558,135.25,119.493,140.723,119.493,145.404z"/>
		<path fill="#FFFFFF" d="M141.941,133.289l-2.512,11.702c-0.104,0.378-0.173,0.757-0.173,1.101c0,0.758,0.378,1.273,1.72,1.273
			c0.793,0,1.723-0.619,2.616-1.377l2.685-12.699h4.992l-4.2,19.962c-1.031,4.922-3.992,5.851-6.265,5.851
			c-2.098,0-4.061-1.48-4.061-3.717c0-3.201,2.686-4.198,5.955-5.162l0.516-2.375c-1.549,1.41-3.304,2.65-4.681,2.65
			c-2.685,0-4.268-1.17-4.268-3.752c0-0.551,0.067-1.102,0.206-1.755l2.409-11.702H141.941z M140.015,156.038
			c0.688,0,1.617-0.653,2.03-2.683l0.414-2.032c-2.17,0.724-3.822,1.722-3.822,3.579
			C138.637,155.385,139.257,156.038,140.015,156.038z"/>
		<path fill="#FFFFFF" d="M154.667,150.498c-1.516,0-2.753-1.24-2.753-2.754c0-1.516,1.237-2.719,2.753-2.719
			c1.513,0,2.72,1.203,2.72,2.719C157.387,149.258,156.18,150.498,154.667,150.498z M154.116,142.547l2.443-16.142h4.956
			l-4.475,16.142H154.116z"/>
	</g>
	<g>
		<path fill="#D0D1D2" d="M107.729,163.948c0,0-8.934-5.277-5.137,5.81l1.723-1.146L107.729,163.948z"/>
		
			<ellipse transform="matrix(0.0909 -0.9959 0.9959 0.0909 -60.8169 290.6617)" fill="#FFFFFF" cx="128.796" cy="178.642" rx="22.566" ry="28.16"/>
		
			<ellipse transform="matrix(0.0909 -0.9959 0.9959 0.0909 -63.1845 285.8266)" fill="#D0D1D2" cx="124.96" cy="177.521" rx="19.599" ry="23.567"/>
		<path fill="#6D6F71" d="M120.373,184.385c0,0,0.596,7.55-3.644,3.352c0,0-4.626-4.131-1.666,3.66c0,0-2.617,8.26,5.969,1.896
			c0,0,2.091-0.875,1.986,2.408c0,0,2.97-7.084-6.288-1.594c0,0-3.526-1.626,3.645-3.66c0,0-5.428,1.385-4.79-1.543
			c0,0-0.018-0.73,1.146,0c0,0,4.61,3.645,4.304-4.52C120.725,176.221,120.373,184.385,120.373,184.385z"/>
		
			<ellipse transform="matrix(0.091 -0.9959 0.9959 0.091 -70.2999 269.7269)" fill="#FFFFFF" cx="112.596" cy="173.371" rx="9.518" ry="9.656"/>
		<circle fill="#0071BC" cx="114.19" cy="172.89" r="7.187"/>
		
			<ellipse transform="matrix(0.0911 -0.9958 0.9958 0.0911 -52.2439 294.0096)" fill="#FFFFFF" cx="134.939" cy="175.625" rx="11.839" ry="11.919"/>
		<path fill="#919396" d="M150.979,168.252c-0.006-0.01,2.958,5.354,2.826,7.006l0.92-1.242
			C154.725,174.016,161.485,165.945,150.979,168.252z"/>
		<path fill="#D0D1D2" d="M148.595,166.523c0,0,5.936-3.182,9.444-0.492c0,0,4.447,4.506-2.814,10.533l-1.781,1.643
			c0,0-1.163-1.033-0.727-2.998c0,0,8.512-8-2.503-6.113C150.214,169.096,148.488,168.814,148.595,166.523z"/>
		<g>
			<circle fill="#0071BC" cx="137.151" cy="175.643" r="8.768"/>
			<path fill="#0F4481" d="M135.697,175.456c-1.626-1.883-1.422-4.726,0.458-6.351c1.88-1.628,4.722-1.424,6.353,0.459
				c1.626,1.879,1.422,4.725-0.459,6.351C140.167,177.542,137.325,177.336,135.697,175.456z"/>
			<path fill="#FFFFFF" d="M138.321,174.074c-0.864-0.999-0.756-2.508,0.243-3.373c0.996-0.865,2.51-0.759,3.377,0.242
				c0.865,1,0.754,2.512-0.246,3.376C140.695,175.183,139.186,175.072,138.321,174.074z"/>
			<circle fill="#FFFFFF" cx="134.678" cy="171.889" r="1.165"/>
		</g>
		<path fill="#0B8ECC" d="M121.046,181.328c0,0,1.492-2.408,2.737,2.227l-3.049,2.135l-2.234-2.441
			C118.501,183.248,120.489,179.26,121.046,181.328z"/>
		<path fill="#FFFFFF" d="M123.222,183.459l-1.312,0.911C121.909,184.37,122.328,182.895,123.222,183.459z"/>
		<path fill="#FFFFFF" d="M119.778,184.174l-0.787-0.772C118.991,183.401,119.65,183.154,119.778,184.174z"/>
		<path fill="#6D6F71" d="M115.963,191.895l-0.134-0.709l0.3-0.301c0.004,0.002,0.357,0.064,0.923,0.064
			c1.455,0,4.222-0.407,6.433-3.139l0.422,0.294c-0.083,0.138-2.072,3.41-7.664,3.997L115.963,191.895z"/>
		<path fill="#6D6F71" d="M122.503,187.233c0,0,3.866-2.287,1.694,2.301C124.197,189.534,127.09,184.271,122.503,187.233z"/>
		<path fill="#0F4481" d="M113.484,173.399c-1.335-1.543-1.166-3.874,0.375-5.206c1.541-1.334,3.871-1.168,5.207,0.375
			c1.333,1.541,1.167,3.871-0.376,5.204C117.149,175.107,114.818,174.938,113.484,173.399z"/>
		<path fill="#FFFFFF" d="M115.635,172.266c-0.709-0.818-0.621-2.057,0.199-2.766c0.818-0.709,2.057-0.621,2.769,0.199
			c0.708,0.82,0.617,2.058-0.203,2.768C117.579,173.176,116.343,173.084,115.635,172.266z"/>
		<circle fill="#FFFFFF" cx="112.648" cy="170.474" r="0.956"/>
		<path fill="#919496" d="M103.081,174.902c0,0,11.158-2.961,18.808,1.059c0,0-1.063,8.685-11.63,6.93
			C110.259,182.891,103.249,180.834,103.081,174.902z"/>
		<path fill="#919496" d="M123.021,176.635c0,0,10.875-4.045,23.788,0.074c0,0,0.864,10.05-11.869,11.223
			C134.939,187.932,123.532,187.752,123.021,176.635z"/>
		<g>
			<linearGradient id="SVGID_1_" gradientUnits="userSpaceOnUse" x1="88.1367" y1="185.6895" x2="109.7498" y2="185.6895">
				<stop  offset="0" style="stop-color:#B81319"/>
				<stop  offset="1" style="stop-color:#EC1C24"/>
			</linearGradient>
			<path fill="url(#SVGID_1_)" d="M100.783,177.898c-3.03,1.617-1.563,1.608-4.59-0.093c-1.303-0.732-2.488-1.082-3.532-1.13
				c-6.365-0.467-4.156,7.858-4.145,7.752c1.024,3.28,3.884,7,9.182,9.904c0.021,0.01,0.041,0.021,0.06,0.033
				c0.21,0.115,0.419,0.23,0.634,0.343c0.082,0.009,0.165,0.009,0.248,0.015C115.064,186.316,109.815,173.082,100.783,177.898z"/>
			<path opacity="0.2" fill="#FFFFFF" enable-background="new    " d="M93.818,189.818c0,0-11.154-15.256,2.761-9.658
				c0,0,0.73,2.193-2.761,0.656C93.818,180.816,87.702,177.604,93.818,189.818z"/>
			<circle opacity="0.2" fill="#FFFFFF" enable-background="new    " cx="104.986" cy="180.975" r="3.163"/>
			<path opacity="0.5" fill="#9E1818" enable-background="new    " d="M98.927,192.441c0,0,2.717-8.576,5.846-5.06
				C104.772,187.382,104.851,190.621,98.927,192.441z"/>
		</g>
	</g>
	<path fill="#FFF5A9" d="M96.643,169.758l-11.642-9.879c1.789-2.719,2.839-5.931,2.839-9.381c0-9.752-8.257-17.656-18.442-17.656
		c-10.185,0-18.441,7.904-18.441,17.656c0,9.75,8.257,17.655,18.441,17.655c4.547,0,8.701-1.583,11.917-4.194L96.643,169.758z"/>
	<g>
		<path fill="#CC2766" d="M59.312,151.157l-1.634-9.977l1.927-0.315l1.463,8.938l3.604-0.59l0.073,1.057L59.312,151.157z"/>
		<path fill="#CC2766" d="M66.975,143.059l0.731,4.47c0.065,0.396,0.177,0.679,0.335,0.851c0.159,0.169,0.392,0.23,0.697,0.18
			c0.109-0.018,0.227-0.053,0.352-0.107c0.126-0.054,0.254-0.119,0.383-0.195c0.13-0.078,0.252-0.16,0.369-0.25
			c0.116-0.09,0.222-0.183,0.319-0.28l-0.828-5.053l1.894-0.311l1.091,6.667l-1.699,0.277l-0.301-0.752l-0.021,0.004
			c-0.116,0.107-0.257,0.23-0.424,0.364c-0.167,0.134-0.349,0.267-0.545,0.401c-0.197,0.131-0.408,0.25-0.632,0.353
			s-0.448,0.174-0.67,0.21c-0.253,0.041-0.496,0.039-0.73-0.008c-0.233-0.047-0.446-0.139-0.638-0.273
			c-0.194-0.136-0.358-0.32-0.497-0.553c-0.138-0.232-0.233-0.512-0.287-0.836l-0.793-4.85L66.975,143.059z"/>
		<path fill="#CC2766" d="M72.319,142.271c0.07-0.025,0.164-0.057,0.279-0.095c0.116-0.036,0.241-0.076,0.376-0.116
			c0.133-0.041,0.266-0.079,0.398-0.111c0.132-0.032,0.248-0.057,0.349-0.072c0.231-0.039,0.432-0.048,0.602-0.027
			c0.17,0.021,0.324,0.094,0.464,0.219c0.139,0.127,0.309,0.348,0.509,0.668c0.2,0.318,0.417,0.691,0.649,1.115
			c0.233,0.426,0.468,0.873,0.704,1.346s0.457,0.926,0.662,1.358l0.01-0.001c0.177-0.504,0.311-0.944,0.4-1.327
			c0.089-0.38,0.146-0.735,0.171-1.061c0.023-0.327,0.022-0.638-0.003-0.933c-0.026-0.297-0.067-0.613-0.123-0.954
			c-0.023-0.144-0.059-0.306-0.106-0.481c-0.047-0.178-0.089-0.305-0.123-0.381l1.395-0.439c0.05,0.081,0.098,0.19,0.142,0.328
			c0.045,0.137,0.079,0.274,0.101,0.41c0.088,0.535,0.101,1.078,0.039,1.635c-0.06,0.553-0.167,1.104-0.317,1.65
			s-0.33,1.086-0.536,1.615c-0.207,0.529-0.41,1.039-0.612,1.523l-1.558,0.255c-0.29-0.589-0.587-1.177-0.893-1.759
			c-0.308-0.584-0.603-1.119-0.885-1.605c-0.284-0.487-0.542-0.906-0.773-1.256c-0.231-0.353-0.417-0.591-0.556-0.716
			c-0.173-0.149-0.363-0.206-0.572-0.173l-0.087,0.014L72.319,142.271z"/>
		<path fill="#CC2766" d="M67.014,155.029l0.731,4.469c0.065,0.398,0.177,0.68,0.336,0.852c0.158,0.17,0.392,0.229,0.697,0.18
			c0.108-0.02,0.226-0.055,0.352-0.107c0.126-0.055,0.254-0.119,0.383-0.196c0.13-0.077,0.251-0.16,0.368-0.249
			c0.116-0.09,0.223-0.183,0.319-0.279l-0.827-5.055l1.894-0.311l1.091,6.667l-1.699,0.278l-0.3-0.751l-0.021,0.003
			c-0.116,0.108-0.257,0.229-0.424,0.365c-0.167,0.133-0.35,0.267-0.546,0.4c-0.196,0.131-0.408,0.249-0.63,0.352
			c-0.224,0.104-0.448,0.174-0.672,0.21c-0.252,0.042-0.495,0.039-0.729-0.009c-0.233-0.047-0.447-0.138-0.639-0.273
			c-0.193-0.135-0.358-0.318-0.497-0.551c-0.137-0.233-0.233-0.512-0.287-0.838l-0.793-4.847L67.014,155.029z"/>
		<path fill="#CC2766" d="M75.015,158.074l1.479,1.158l-1.031,1.569l-1.479-1.158L75.015,158.074z M74.259,157.533l-1.53-6.84
			l2.088-0.342l0.729,6.969L74.259,157.533z"/>
	</g>
</g>
</svg>
