<?xml version="1.0" encoding="utf-8"?>
<!-- Generator: Adobe Illustrator 16.0.0, SVG Export Plug-In . SVG Version: 6.00 Build 0)  -->
<!DOCTYPE svg PUBLIC "-//W3C//DTD SVG 1.1//EN" "http://www.w3.org/Graphics/SVG/1.1/DTD/svg11.dtd">
<svg version="1.1" id="Layer_1" xmlns="http://www.w3.org/2000/svg" xmlns:xlink="http://www.w3.org/1999/xlink" x="0px" y="0px"
	 width="250px" height="250px" viewBox="0 0 250 250" enable-background="new 0 0 250 250" xml:space="preserve">
<path fill="none" stroke="#004393" stroke-width="3" stroke-miterlimit="10" d="M-356.362-99.421
	c0.234,5.027,2.164,10.872-1.163,15.336c-1.406,1.887-3.742,3.176-5.644,4.506c-2.844,1.99-5.143,4.086-7.068,7.029
	c-2.012,3.077-4.939,7.334-3.59,11.178c1.654,4.714,4.916,6.657,9.765,7.291c4.537,0.593,12.792,0.466,14.892-4.744
	c0.929-2.304,0.52-6.23-0.115-8.539c-1.091-3.968-3.348-6.947-6.681-9.321c-4.42-3.147-9.364-5.476-13.788-8.62
	c-3.587-2.55-7.675-5.052-10.293-8.678c-1.435-1.987-2.71-3.949-3.429-6.287c-0.348-1.131-0.562-2.24-1.137-3.276"/>
<g id="Layer_2_1_">
</g>
<g>
	<g>
		<path fill="#D3D3D3" d="M-372.435-119.736h2.736l-5.564-29.509c-0.299-1.591-0.012-3.104,0.771-4.047
			c0.522-0.63,1.231-0.963,2.049-0.963h5.385v-2.688h-5.385c-1.621,0-3.083,0.687-4.118,1.935c-1.305,1.576-1.795,3.857-1.343,6.261
			L-372.435-119.736z"/>
		
			<linearGradient id="SVGID_1_" gradientUnits="userSpaceOnUse" x1="-2229.5537" y1="4327.0234" x2="-2221.0571" y2="4327.0234" gradientTransform="matrix(1 0 0 -1 1854 4175)">
			<stop  offset="0" style="stop-color:#575757"/>
			<stop  offset="0.4" style="stop-color:#555555"/>
			<stop  offset="0.5791" style="stop-color:#4D4D4D"/>
			<stop  offset="0.7142" style="stop-color:#414141"/>
			<stop  offset="0.8272" style="stop-color:#2F2F2F"/>
			<stop  offset="0.9252" style="stop-color:#171717"/>
			<stop  offset="1" style="stop-color:#000000"/>
		</linearGradient>
		<path fill="url(#SVGID_1_)" d="M-375.262-149.246c-0.299-1.591-0.012-3.104,0.771-4.047c0.522-0.63,1.231-0.963,2.049-0.963h5.385
			v-0.546h-5.098c-1.621,0-2.328,0.593-2.707,1.071C-376.134-152.128-375.262-149.246-375.262-149.246z"/>
		
			<linearGradient id="SVGID_2_" gradientUnits="userSpaceOnUse" x1="-2228.8101" y1="4294.7354" x2="-2228.8101" y2="4331.6699" gradientTransform="matrix(1 0 0 -1 1854 4175)">
			<stop  offset="0" style="stop-color:#FFFFFF"/>
			<stop  offset="0.4951" style="stop-color:#FFFFFF"/>
			<stop  offset="0.881" style="stop-color:#F4F4F4"/>
			<stop  offset="1" style="stop-color:#F0F0F0"/>
		</linearGradient>
		<path fill="url(#SVGID_2_)" d="M-371.99-119.736l-4.844-29.323c-0.36-1.91-0.076-3.895,0.815-5.155
			c0.713-1.008,2.205-2.457,3.988-2.457c-2.287,0-3.535,1.124-4.38,2.133c-0.971,1.161-1.482,3.496-1.084,5.603L-371.99-119.736z"/>
		<path fill="#004393" d="M-366.688-157.309h3.269c0.464-0.617,1.223-0.685,2.08-0.685c1.408,0,2.562,0.53,2.562,1.865v1.035
			c0,1.336-1.153,1.832-2.562,1.832c-0.857,0-1.616-0.016-2.08-0.632h-3.269c-0.37,0-0.371-0.028-0.371-0.361v-0.546v-2.142
			C-367.059-157.309-367.058-157.309-366.688-157.309z"/>
	</g>
	<g>
		<path fill="#D3D3D3" d="M-340.184-119.736h-2.735l5.563-29.509c0.301-1.591,0.013-3.104-0.769-4.047
			c-0.523-0.63-1.231-0.963-2.048-0.963h-5.385v-2.688h5.385c1.619,0,3.083,0.687,4.117,1.935c1.306,1.576,1.796,3.857,1.344,6.261
			L-340.184-119.736z"/>
		
			<linearGradient id="SVGID_3_" gradientUnits="userSpaceOnUse" x1="-1628.9375" y1="4327.0234" x2="-1620.4424" y2="4327.0234" gradientTransform="matrix(-1 0 0 -1 -1966 4175)">
			<stop  offset="0" style="stop-color:#575757"/>
			<stop  offset="0.4" style="stop-color:#555555"/>
			<stop  offset="0.5791" style="stop-color:#4D4D4D"/>
			<stop  offset="0.7142" style="stop-color:#414141"/>
			<stop  offset="0.8272" style="stop-color:#2F2F2F"/>
			<stop  offset="0.9252" style="stop-color:#171717"/>
			<stop  offset="1" style="stop-color:#000000"/>
		</linearGradient>
		<path fill="url(#SVGID_3_)" d="M-337.355-149.246c0.301-1.591,0.013-3.104-0.769-4.047c-0.523-0.63-1.231-0.963-2.048-0.963
			h-5.385v-0.546h5.099c1.619,0,2.327,0.593,2.706,1.071C-336.481-152.128-337.355-149.246-337.355-149.246z"/>
		
			<linearGradient id="SVGID_4_" gradientUnits="userSpaceOnUse" x1="-1628.1938" y1="4294.7363" x2="-1628.1938" y2="4331.6719" gradientTransform="matrix(-1 0 0 -1 -1966 4175)">
			<stop  offset="0" style="stop-color:#FFFFFF"/>
			<stop  offset="0.4951" style="stop-color:#FFFFFF"/>
			<stop  offset="0.881" style="stop-color:#F4F4F4"/>
			<stop  offset="1" style="stop-color:#F0F0F0"/>
		</linearGradient>
		<path fill="url(#SVGID_4_)" d="M-340.626-119.736l4.844-29.323c0.36-1.91,0.078-3.895-0.816-5.155
			c-0.712-1.008-2.205-2.457-3.988-2.457c2.288,0,3.536,1.124,4.379,2.133c0.973,1.161,1.482,3.496,1.085,5.603L-340.626-119.736z"
			/>
		<path fill="#004393" d="M-345.928-157.309h-3.284c-0.466-0.617-1.223-0.685-2.08-0.685c-1.41,0-2.563,0.53-2.563,1.865v1.035
			c0,1.336,1.152,1.832,2.563,1.832c0.856,0,1.614-0.016,2.08-0.632h3.284c0.37,0,0.371-0.028,0.371-0.361v-0.546v-2.142
			C-345.558-157.309-345.559-157.309-345.928-157.309z"/>
	</g>
	<g>
		<path fill="#3F72BC" d="M-339.665-119.494c-0.127-0.153-0.316-0.243-0.518-0.243h-2.734c-0.323,0-0.602,0.23-0.66,0.547
			l-1.638,8.686c-0.507,2.689-3.247,4.96-5.983,4.96h-10.219c-2.736,0-5.479-2.271-5.984-4.96l-1.638-8.687
			c-0.061-0.318-0.337-0.547-0.659-0.547h-2.736c-0.199,0-0.388,0.089-0.516,0.243c-0.128,0.154-0.181,0.357-0.145,0.554
			l1.732,9.184c0.856,4.546,5.318,8.246,9.945,8.246h1.168h7.854h1.196c4.628,0,9.09-3.699,9.945-8.246l1.731-9.184
			C-339.484-119.137-339.538-119.339-339.665-119.494z"/>
		<path fill="#004393" d="M-342.506-119.17l-0.336,0.001c-0.19,0-0.345,0.205-0.398,0.487l-1.648,8.801
			c-0.452,2.395-3.218,4.865-5.884,4.865h-8.545c2.805,0.353,6.256,0.649,8.545,0.649c2.013,0,6.076-1.298,6.838-5.347l1.701-8.947
			C-342.199-118.836-342.215-119.17-342.506-119.17z"/>
		<path fill="#004393" d="M-369.943-110.021l-1.479-8.514c-0.056-0.298-0.15-0.532-0.453-0.532c0,0-0.253-0.028-0.374,0.116
			c-0.12,0.145-0.169,0.335-0.134,0.52l1.625,8.625c0.804,4.271,4.995,7.744,9.341,7.744
			C-361.417-102.061-368.263-102.603-369.943-110.021z"/>
	</g>
	<path fill="#71BFEA" d="M-352.791-97.644c-0.071,1.107-1.034,2.013-2.144,2.013h-2.685c-1.109,0-2.071-0.906-2.137-2.013
		l-0.493-3.867h7.854L-352.791-97.644z"/>
</g>
<g>
	
		<linearGradient id="SVGID_5_" gradientUnits="userSpaceOnUse" x1="-2243.9736" y1="4283.959" x2="-2229.9985" y2="4269.9839" gradientTransform="matrix(1 0 0 -1 1854 4175)">
		<stop  offset="0" style="stop-color:#575757"/>
		<stop  offset="0.0995" style="stop-color:#626262"/>
		<stop  offset="0.2736" style="stop-color:#7F7F7F"/>
		<stop  offset="0.5005" style="stop-color:#ADADAD"/>
		<stop  offset="0.5343" style="stop-color:#B5B5B5"/>
		<stop  offset="0.5866" style="stop-color:#AAAAAA"/>
		<stop  offset="0.6782" style="stop-color:#8D8D8D"/>
		<stop  offset="0.7983" style="stop-color:#5E5E5E"/>
		<stop  offset="0.9407" style="stop-color:#1D1D1D"/>
		<stop  offset="1" style="stop-color:#000000"/>
	</linearGradient>
	<path fill="url(#SVGID_5_)" d="M-373.105-101.972c0-5.458-4.424-9.882-9.881-9.882c-5.458,0-9.882,4.424-9.882,9.882
		c0,1.434,0.305,2.796,0.854,4.026c0.372,0.833,0.855,1.604,1.432,2.296c1.813,2.176,4.542,3.56,7.597,3.56
		C-377.529-92.09-373.105-96.514-373.105-101.972z"/>
	
		<linearGradient id="SVGID_6_" gradientUnits="userSpaceOnUse" x1="-2243.5576" y1="4283.542" x2="-2230.4155" y2="4270.3999" gradientTransform="matrix(1 0 0 -1 1854 4175)">
		<stop  offset="0" style="stop-color:#B2B2B2"/>
		<stop  offset="0.117" style="stop-color:#BDBDBD"/>
		<stop  offset="0.322" style="stop-color:#DADADA"/>
		<stop  offset="0.5343" style="stop-color:#FFFFFF"/>
		<stop  offset="0.5917" style="stop-color:#F4F4F4"/>
		<stop  offset="0.6922" style="stop-color:#D7D7D7"/>
		<stop  offset="0.8239" style="stop-color:#A8A8A8"/>
		<stop  offset="0.9803" style="stop-color:#676767"/>
		<stop  offset="1" style="stop-color:#5E5E5E"/>
	</linearGradient>
	<circle fill="url(#SVGID_6_)" cx="-382.987" cy="-101.972" r="9.293"/>
	<circle fill="#1D2C51" cx="-382.986" cy="-101.972" r="7.026"/>
</g>
<path fill="#4689BB" d="M-366.57-156.671h3.208c0,0,0.625-1.458,3.333-0.667c0,0-3.152-0.024-3.271,1.709h-3.271v-0.334l2.958-0.375
	l-2.958-0.042L-366.57-156.671L-366.57-156.671z"/>
<path fill="#4689BB" d="M-352.945-156.944c0,0,1.667-1.061,3.708,0.273h3v0.583h-3.125
	C-349.362-156.088-349.779-157.717-352.945-156.944z"/>
<g>
	<path opacity="0.15" d="M195.334,119.981c0-24.388-12.296-45.898-31.022-58.687l13.886-7.225c0.04-0.005,0.083-0.01,0.116-0.015
		c0.309-0.049,0.477-0.08,0.501-0.093c0.099-0.049,0.148-0.186,0.148-0.408c0-0.643-0.037-1.62-0.111-2.932
		c-0.074-1.311-0.111-2.294-0.111-2.95c0-0.42,0.198-0.891,0.594-1.41c2.796-3.538,5.003-6.908,6.624-10.112
		c0.197-0.396,0.297-0.859,0.297-1.392c0-0.668-0.013-1.661-0.037-2.978c-0.025-1.317-0.037-2.304-0.037-2.959
		c0-0.532-0.124-0.798-0.371-0.798c-0.755,0-1.877,0.034-3.367,0.102c-1.491,0.068-2.607,0.102-3.35,0.102h-0.464
		c-0.103,0.034-0.152,0.174-0.161,0.397l-0.068-0.08l-6.928,6.05c-0.074-0.174-0.116-0.314-0.116-0.412
		c0-0.631,0.028-1.58,0.083-2.848c0.057-1.268,0.084-2.217,0.084-2.848c0-0.186-0.143-0.278-0.427-0.278
		c-0.767,0-1.917-0.031-3.451-0.093c-1.534-0.062-2.679-0.093-3.433-0.093c-0.248,0-0.371,0.204-0.371,0.612
		c0,0.025,0.001,0.06,0.001,0.086l-3.965,2.218c-0.024-0.025-0.046-0.053-0.071-0.078c-1.793-1.756-4.156-2.678-7.088-2.765
		c-1.781-0.049-3.643-0.074-5.584-0.074c-3.291,0-5.418,0.062-6.383,0.186c-0.248,0.031-0.404,0.103-0.487,0.207l-0.185-0.037
		l-1.013,6l-3.5-3.5l-0.057,0.145c-0.051-0.053-0.095-0.109-0.147-0.161c-1.794-1.756-4.156-2.678-7.088-2.765
		c-1.781-0.049-3.643-0.074-5.585-0.074c-3.291,0-5.418,0.062-6.383,0.186c-0.097,0.012-0.18,0.03-0.251,0.053l-0.316-0.05
		l-3.245,13l-7.864-13.946l-0.497,0.426c-0.065-0.035-0.133-0.059-0.202-0.059c-0.322,0-0.807,0.022-1.457,0.065
		c-0.649,0.043-1.141,0.065-1.475,0.065c-0.347,0-0.869-0.031-1.568-0.093c-0.699-0.062-1.215-0.093-1.549-0.093
		c-0.198,0-0.371,0.235-0.52,0.705c-0.249,0.782-1.771,4.958-4.56,12.508l-6.184-12.58l-0.115,0.321c0-0.02,0-0.044,0-0.064
		c0-0.297-0.18-0.445-0.538-0.445c-0.371,0-0.925,0.019-1.661,0.056c-0.736,0.037-1.284,0.056-1.642,0.056
		c-0.371,0-0.925-0.019-1.661-0.056c-0.736-0.037-1.284-0.056-1.642-0.056c-0.31,0-0.464,0.192-0.464,0.575
		c0,0.903,0.043,2.254,0.13,4.054c0.086,1.8,0.13,3.145,0.13,4.036c0,0.433-0.148,0.687-0.445,0.761
		c-0.421,0.099-1.955,0.148-4.602,0.148c-0.516,0-0.976-0.002-1.409-0.005l-3.291-8.905c0.001-0.108,0.005-0.232,0.005-0.33
		c0-0.223-0.105-0.334-0.315-0.334c-0.396,0-0.993,0.019-1.791,0.056s-1.395,0.056-1.791,0.056c-0.384,0-0.962-0.019-1.735-0.056
		c-0.773-0.037-1.352-0.056-1.735-0.056c-0.26,0-0.39,0.136-0.39,0.408c0,1.435,0.062,3.59,0.186,6.466
		c0.124,2.876,0.186,5.032,0.186,6.466c0,1.349-0.065,3.371-0.195,6.067c-0.13,2.697-0.195,4.713-0.195,6.049
		c0,0.22,0.091,0.375,0.259,0.474l-0.166,0.258l18.727,9.92c-16.54,13.004-27.176,33.179-27.176,55.851
		c0,9.925,2.042,19.371,5.718,27.949l-0.269,0.279v76.834h131v-76.834l-0.166-0.172C193.272,139.43,195.334,129.947,195.334,119.981
		z"/>
	<g>
		<circle fill="#0066CC" cx="121.309" cy="116.981" r="71.025"/>
		<circle fill="#71B5FF" cx="121.339" cy="114.34" r="61.31"/>
		<polygon fill="#FF7300" points="186.733,145.209 173.933,131.852 173.933,162.59 		"/>
		<polygon fill="#FF7300" points="55.733,145.209 68.534,131.852 68.534,162.59 		"/>
		<polygon fill="#0066CC" points="66.233,25.21 70.915,37.877 79.9,35.543 83.619,25.21 91.566,41.377 96.058,29.043 
			101.629,24.264 109.494,38.21 112.739,25.21 127.399,27.543 131.195,31.377 132.566,27.877 136.066,31.377 137.079,25.377 
			142.899,26.543 152.396,28.71 153.411,29.877 161.454,25.377 164.058,29.043 167.066,32.821 175.399,25.543 179.566,30.377 
			173.399,40.543 172.233,46.043 175.566,50.877 116.309,81.71 58.733,51.21 64.4,42.377 62.4,30.543 		"/>
		<path fill="#FF8939" d="M164.455,92.78c0,0-16.099,10.082-82.799,4.797l4.774-8.166l31.681-10.868l31.343,3l13.162,8.634
			L164.455,92.78z"/>
		<g>
			<path fill="#FFFFFF" d="M130.041,177.299c-8.962-12.508,6.862-30.986,6.862-30.986v-15.373
				c-6.619,2.924-12.287,4.256-12.287,4.256l2.723,12.273c-15,3.465-12.946,22.951-12.937,23.033
				c-8.02-11.166,7.699-22.92,7.699-22.92c2.293-3.104,1.657-8.232,0.9-11.543c-0.701,0.037-1.404,0.061-2.117,0.061
				c-18.924,0-34.265-12.476-34.265-27.866s15.341-27.866,34.265-27.866c17.326,0,31.637,10.457,33.938,24.029
				C177.248,168.438,145.711,176.822,130.041,177.299z"/>
			<path fill="#D0D2D3" d="M130.041,177.299c-4.673,0.143-9.618-1.834-9.618-1.834c-3.669-2.045-4.455-2.783-6.021-4.963
				c-0.009-0.082-2.063-19.568,12.937-23.033l-2.723-12.273c0,0,5.668-1.332,12.287-4.256v15.373
				C136.903,146.313,121.079,164.789,130.041,177.299z"/>
		</g>
		<g>
			<path fill="#D0D2D3" d="M113.772,165.914c-19.769,7.547-14.917,14.277-14.917,14.277c2.268,3.936-2.197,2.459-2.197,2.459
				l-17.17-8.723c-4.104,1.232-3.201-2.648-3.201-2.648c-4.556,0.854-3.025-2.248-3.025-2.248c-2.43,1.076-2.961-2.449-2.961-2.449
				c4.228-6.785,24.313,10.611,24.313,10.611c2.28-11.982,20.947-15.727,20.947-15.727L113.772,165.914z"/>
			<path fill="#929497" d="M82.829,173.328c-3.688-4.17-6.22-2.295-6.22-2.295C79.745,168.52,82.829,173.328,82.829,173.328z"/>
			<path fill="#929497" d="M78.256,169.045c-2.28-3.51-4.545-0.41-4.545-0.41C76.277,166.627,78.256,169.045,78.256,169.045z"/>
		</g>
		<path fill="#FFFFFF" d="M125.769,142.936c-15.042,28.061-46.434,0.977-46.434,0.977c-3.995-0.68-5.901-2.619-5.901-2.619
			c-2.034-1.586-0.911-2.584-0.911-2.584c4.614,2.379,3.383,0.732,3.383,0.732c-5.548-5.166-2.156-5.527-2.156-5.527
			c3.74,2.635,4.711,4.811,4.711,4.811c2.553-9.625,4.422-3.977,4.422-3.977c-4.742,2.936-1.932,6.135-1.932,6.135
			c28.951,23.764,42.273-4.508,42.273-4.508C130.368,137.838,125.769,142.938,125.769,142.936z"/>
		<path fill="#D0D2D3" d="M122.468,154.766l5.027-2.525l1.809-12.18l-6.182-3.475c0.227,13.768-5.73,8.041-5.73,8.041
			L122.468,154.766z"/>
		<path fill="#D0D2D3" d="M94.64,90.317c-12.604-4.289-5.814,8.06-5.814,8.06S107.243,94.607,94.64,90.317z"/>
		<path fill="#919496" d="M89.505,97.036c-4.346-8.166,1.695-2.066,1.695-2.066S93.848,105.202,89.505,97.036z"/>
		<path fill="#919496" d="M151.462,100.403l-3.537-7.738C162.338,86.873,151.462,100.403,151.462,100.403z"/>
		<g>
			<path fill="#FFFFFF" d="M133.241,169.518l-0.563,5.037C95.204,159.631,123.094,166.779,133.241,169.518z"/>
			<path fill="#FFFFFF" d="M172.015,157.234c0,0,1.557,8.848-2.533,15.455c-12.053,11.969-24.426,3.18-28.965-0.896
				c9.577,2.9,32.682,7.324,26.541-20.01c-1.023-9.932-6.089-20.771-6.089-20.771c-7.284-14.792-7.655-9.198-7.25-4.666
				c0,2.375,1.188,7.701,4.876,18.516c0,0-0.011,0.131-0.043,0.35c-2.214,2.078-5.449,2.086-7.574,1.789
				c-0.035-0.031-0.066-0.057-0.104-0.09c0,0-7.922-33.142,4.395-28.261C155.269,118.649,168.489,126.875,172.015,157.234z"/>
			<path fill="#CCCCCC" d="M136.539,170.424c0,0-1.312-0.367-3.298-0.906l0.207-1.861l5.262,2.363c0,0,0.65,0.732,1.809,1.771
				C138.099,171.061,136.539,170.424,136.539,170.424z"/>
			<path fill="#CCCCCC" d="M169.483,172.688c-4.096,6.621-13.858,10.996-36.531,1.979c-0.094-0.039-0.178-0.07-0.273-0.109
				l0.563-5.037c1.986,0.537,3.298,0.906,3.298,0.906s1.558,0.637,3.979,1.367C145.056,175.869,157.431,184.656,169.483,172.688z"/>
			<path fill="#CCCCCC" d="M167.058,151.783c-1.412-6.291-4.373-14.26-9.406-24.318c0,0-3.93-5.437-3.932-1.118
				c-0.404-4.532-0.033-10.125,7.25,4.667C160.97,131.014,166.034,141.852,167.058,151.783z"/>
			<path fill="#CCCCCC" d="M158.553,145.209c-0.224,1.49-1.497,7.016-7.573,1.789C153.103,147.295,156.339,147.287,158.553,145.209z
				"/>
		</g>
		<path fill="#D0D2D3" d="M115.741,86.755c-16.086,0-29.121,9.891-29.121,22.091c0,12.2,13.035,22.093,29.121,22.093
			c16.083,0,29.118-9.893,29.118-22.093C144.858,96.646,131.823,86.755,115.741,86.755z"/>
		<path fill="#D0D2D3" d="M157.681,91.546c2.795,5.722-5.988,13.241-5.988,13.241c-2.195-1.532-1.133-3.261-1.133-3.261
			c9.516-11.444-3.525-7.185-3.525-7.185c-2.661-0.4-2.328-3.261-2.328-3.261C155.552,85.292,157.683,91.546,157.681,91.546z"/>
		<ellipse fill="#FFFFFF" cx="100.868" cy="103.885" rx="11.383" ry="11.221"/>
		<ellipse fill="#FFFFFF" cx="127.337" cy="104.138" rx="14.051" ry="13.96"/>
		<path fill="#1D8FCD" d="M110.4,118.098c0.109-1.639,2.094-2.992,2.094-2.992c0-4.92-2.094-1.857-2.094-1.857
			c-0.935-2.719-3.467,2.433-3.467,2.433C108.347,117.271,110.4,118.098,110.4,118.098z"/>
		<path fill="#FFFFFF" d="M111.507,115.449c-0.979,0.695-1.107,1.389-1.107,1.389C111.146,114.118,111.507,115.449,111.507,115.449z
			"/>
		<path fill="#6C6F71" d="M111.647,127.711c-5.801,3.041-2.45-2.388-2.45-2.388c-1.563,4.472,2.127,1.646,2.127,1.646
			c1.479-1.178,3.638-1.383,3.638-1.383c-2.442,1.041-3.06,1.715-3.06,1.715c2.316-0.189,3.06,2.063,3.06,2.063
			C113.433,128.061,111.648,127.713,111.647,127.711z"/>
		<path fill="#BE1E2D" d="M116.971,122.521c-3.215,0.237-4.479,2.021-4.479,2.021c-4.74,5.909-1.588-3.212-1.588-3.212
			C113.956,123.415,116.97,122.521,116.971,122.521z"/>
		<path fill="#6C6F71" d="M110.4,120.838c-3.445,3.763-3.467-1.33-3.467-1.33c-0.789,6.914,3.973,1.822,3.973,1.822
			c6.844,5.126,8.439-1.486,8.439-1.486h1.271l-1.718-1.437c-0.619,6.426-7.043,2.923-7.043,2.923
			c-1.638-1.823-1.211-4.146-1.211-4.146C109.127,116.601,110.4,120.837,110.4,120.838z"/>
		<polygon fill="#D0D2D3" points="119.734,148.576 114.961,150.354 114.934,153.918 116.415,153.252 		"/>
		<path fill="#D0D2D3" d="M157.608,130.666c6.904,39.426-26.629,24.645-26.629,24.645l2.938-4.957
			c20.264,0.813,14.007-18.428,14.007-18.428"/>
		<path fill="#D0D2D3" d="M119.735,150.178h-2.037c0,0-2.035,2.51-1.059,1.998c0.979-0.508,3.207-0.609,3.207-0.609L119.735,150.178
			z"/>
		<path fill="#FFFFFF" d="M157.61,130.666c4.854,42.664-38.673,20.463-38.673,20.463c-4.748,1.979-5.096-0.766-5.096-0.766
			c-3.519,1.043-6.097,0-6.097,0c-2.946-0.865-1.618-2.199-1.618-2.199c6.155,0.613,7.051-0.48,7.051-0.48
			c-8.405-3.295-4.81-5.186-4.81-5.186c5.299,1.283,7.324,3.266,7.324,3.266c-1.387-11.781,3.301-7.811,3.301-7.811
			c0.464,0.615-0.143,1.471-0.143,1.471c-3.965,5.326,0.549,7.641,0.549,7.641c42.475,13.643,28.525-15.139,28.525-15.139
			C156.478,130.416,157.61,130.666,157.61,130.666z"/>
		<path fill="#BBBDBF" d="M74.368,137.889"/>
		<path fill="#BBBDBF" d="M74.183,136.48c-1.163-0.613-0.072,1.111-0.072,1.111L74.183,136.48z"/>
		<path fill="#BBBDBF" d="M74.057,140.945c-1.165-0.611-0.011,0.854-0.011,0.854L74.057,140.945z"/>
		<g>
			<path fill="#FFFFFF" d="M131.19,170.848c-24.701-1.42-27.94,13.17-27.94,13.17c-1.39,5.797-6.035-2.578-6.035-2.578
				L87.14,166.494c-4.886-1.109-1.733-4.537-1.733-4.537c-5.133-1.754-1.787-4.029-1.787-4.029
				c-3.092-0.307-1.604-4.201-1.604-4.201c8.21-4.471,18.644,24.799,18.644,24.799c8.95-17.465,30.546-12.842,30.546-12.842
				S133.086,170.955,131.19,170.848z"/>
			<path fill="#D0D2D3" d="M90.538,167.277c0.047-6.365-4.268-5.656-4.268-5.656C91.696,159.922,90.536,167.277,90.538,167.277z"/>
			<path fill="#D0D2D3" d="M88.069,159.199c0.35-2.564-3.302-1.508-3.302-1.508C87.898,157.443,88.069,159.197,88.069,159.199z"/>
		</g>
		<rect x="55.733" y="145.209" fill="#FFA300" width="131" height="76.834"/>
		<g>
			<circle fill="#0071BC" cx="129.694" cy="103.787" r="10.385"/>
			<path fill="#0F4481" d="M136.467,106.943c2.228-1.926,2.472-5.295,0.544-7.522c-1.93-2.229-5.296-2.469-7.523-0.543
				c-2.227,1.927-2.471,5.294-0.541,7.523C130.873,108.628,134.241,108.873,136.467,106.943z"/>
			<path fill="#FFFFFF" d="M136.049,105.056c1.185-1.025,1.313-2.815,0.291-4c-1.024-1.184-2.817-1.31-3.999-0.287
				c-1.184,1.024-1.313,2.812-0.287,3.997C133.077,105.949,134.864,106.08,136.049,105.056z"/>
			<circle fill="#FFFFFF" cx="127.737" cy="102.178" r="1.38"/>
		</g>
		<g>
			<circle fill="#0071BC" cx="101.866" cy="104.433" r="8.74"/>
			<path fill="#0F4481" d="M107.566,107.089c1.876-1.622,2.079-4.457,0.458-6.331c-1.624-1.875-4.457-2.078-6.331-0.457
				c-1.875,1.622-2.078,4.455-0.457,6.331C102.858,108.506,105.693,108.711,107.566,107.089z"/>
			<path fill="#FFFFFF" d="M107.214,105.5c0.996-0.863,1.105-2.37,0.244-3.367c-0.862-0.996-2.37-1.102-3.365-0.241
				c-0.996,0.862-1.105,2.367-0.242,3.364C104.712,106.252,106.217,106.361,107.214,105.5z"/>
			<circle fill="#FFFFFF" cx="100.22" cy="103.077" r="1.162"/>
		</g>
		<path fill="#FFBD39" d="M161.455,92.78c0,0-48.348-4.918-79.799,4.797l-0.951-4.915c0,0,4.456,0.38,7.229-18.37
			c0,0-0.105-1.25,2.708-4.25c0,0,29.624-18,62.969,0c0,0,1.506,0.75,2.801,3.5c0,0,3.793,16.237,8.043,15.869v3.368L161.455,92.78
			L161.455,92.78z"/>
		<path fill="#FFE576" d="M103.268,56.293c0,0,1.018,23.206-2.4,30.462c0,0-7.35,0.365-12.935,2.657c0,0,3.354-25.285,6.354-32.619
			L103.268,56.293z"/>
		<path fill="#FFA944" d="M103.268,56.293c0,0,23.82-1.412,39.502,9.044c0,0-18.82-4.206-36.943,0v21.418
			c0,0,30.074-4.274,52.725,0.757c0,0-33.392-3.481-70.62,1.9c0,0,7.975-3.331,12.935-2.994
			C100.868,86.418,103.41,73.46,103.268,56.293z"/>
		<g>
			<path id="path56" fill="#FF8500" d="M77.409,127.889c1.604-0.018,2.273,1.811,2.615,3.09c0.997,3.711,0.92,7.801,0.851,11.609
				c-0.039,2.184,0.38,10.41-3.687,9.861c-1.278-0.174-1.838-1.453-2.156-2.559c-0.968-3.35-0.887-7.084-0.89-10.529
				C74.141,137.127,73.364,127.916,77.409,127.889"/>
			<path id="path58" fill="#FF8500" d="M77.409,127.889c-4.38,0.029-3.29,10.867-3.251,13.172
				c0.033,2.113-0.597,12.219,3.855,11.373c-1.206-0.348-1.664-1.781-1.938-2.861c-0.822-3.268-0.782-6.803-0.787-10.146
				c-0.002-2.256-0.755-10.725,2.776-11.432C77.846,127.957,77.629,127.922,77.409,127.889"/>
			<path id="path60" fill="#FFB666" d="M78.217,129.869c2.394-0.02,1.755,11.613,1.742,12.676c-0.006,0.533,0.161,8.475-1.65,7.865
				c-0.404-0.135-0.115-1.725-0.103-1.988c0.151-3.029,0.176-6.063,0.135-9.096C78.333,138.771,77.671,129.875,78.217,129.869"/>
			<path id="path62" fill="#EF4900" d="M81.086,140.15c-0.021-2.359,0.572-12.5-3.679-12.463c-3.184,0.031-3.224,5.217-3.351,7.352
				c-0.22,3.633-0.188,7.334,0.137,10.959c0.169,1.873,0.308,5.438,2.257,6.432C81.623,155.074,81.102,142.076,81.086,140.15
				 M77.621,152.273c-3.565,0.037-3.158-7.557-3.226-9.609c-0.126-3.766-0.272-7.76,0.531-11.469
				c0.228-1.053,0.604-2.586,1.759-2.998c3.075-1.098,3.545,4.477,3.724,6.188c0.42,4.021,0.46,8.199,0.063,12.227
				C80.304,148.279,80.045,152.266,77.621,152.273"/>
			<path id="path64" fill="#C6C6C6" d="M77.149,101.904c2.785,0.002,1.816,3.083,1.833,5.061c0.006,0.69-0.631,1.26-0.862,1.872
				c-0.24,0.633-0.092,1.469-0.084,2.133c0.008,1.077,0.019,2.154,0.027,3.231c0.039,4.406,0.078,8.81,0.117,13.214
				c0.006,0.688-0.091,1.902-1.173,1.424c-0.282-0.125-0.467-0.336-0.469-0.646c-0.006-0.678-0.013-1.357-0.018-2.037
				c-0.027-3.156-0.056-6.313-0.082-9.467c-0.017-1.946-0.034-3.89-0.05-5.836c-0.014-1.729-0.884-3.002-0.897-4.67
				C75.476,104.412,74.648,101.926,77.149,101.904"/>
			<path id="path66" fill="#FFFFFF" d="M77.421,110.104c0.408,0.016,0.266,18.12,0.156,18.122
				C77.336,128.229,77.189,110.104,77.421,110.104"/>
			<path id="path68" fill="#9A9A9A" d="M76.423,109.124c0.409-0.004-0.476,17.832,0.37,19.521
				C76.456,128.646,77.535,110.961,76.423,109.124"/>
			<path id="path70" fill="#E5E5E5" d="M76.285,102.824c0.167-0.17,0.668,2.094,0.711,2.282c0.118,0.52,1.211,1.982,1.076,2.122
				C76.396,108.934,75.319,103.809,76.285,102.824"/>
			<path id="path72" fill="#9A9A9A" d="M78.576,102.35c0.249,0.242-0.304,4.558,0.162,4.555
				C78.79,106.901,78.933,102.698,78.576,102.35"/>
			<path id="path74" fill="#DDDDDD" d="M78.511,102.667c-0.525-0.513-1.653-0.417-2.105,0.1
				C76.564,102.922,78.511,102.522,78.511,102.667"/>
		</g>
		<path fill="#FFFFFF" d="M73.751,133.914c0,0,2.553,1.061,3.314,2.877c0,0,0.32,2.295-3.546-0.824"/>
		<path fill="#FFFFFF" d="M73.271,140.285c3.135,2.881,3.305,0.256,3.305,0.256c-1.4-1.92-4.052-1.832-4.052-1.832"/>
		<path fill="#71B5FF" d="M83.541,50.479c0,0.26-0.056,0.421-0.167,0.482c-0.05,0.037-0.223,0.068-0.52,0.093
			c-0.755,0.074-1.818,0.111-3.191,0.111c-1.942,0-3.083-0.037-3.423-0.111c-0.34-0.074-0.51-0.241-0.51-0.501
			c0-0.977,0.046-2.446,0.139-4.407c0.093-1.96,0.139-3.429,0.139-4.407c0-0.482-0.136-0.761-0.408-0.835
			c-0.421-0.099-1.917-0.148-4.49-0.148c-2.585,0-4.095,0.05-4.527,0.148c-0.272,0.062-0.408,0.34-0.408,0.835
			c0,0.965,0.031,2.409,0.093,4.333c0.062,1.924,0.093,3.368,0.093,4.333c0,0.371-0.167,0.588-0.501,0.649
			c-0.396,0.074-1.559,0.111-3.488,0.111c-1.67,0-2.734-0.037-3.191-0.111c-0.359-0.062-0.538-0.253-0.538-0.575
			c0-1.336,0.065-3.352,0.195-6.049c0.13-2.696,0.195-4.719,0.195-6.067c0-1.435-0.062-3.59-0.186-6.466
			c-0.124-2.876-0.186-5.031-0.186-6.466c0-0.272,0.13-0.408,0.39-0.408c0.383,0,0.961,0.019,1.735,0.056
			c0.773,0.037,1.351,0.056,1.735,0.056c0.396,0,0.993-0.019,1.791-0.056s1.395-0.056,1.791-0.056c0.21,0,0.315,0.111,0.315,0.334
			c0,0.928-0.068,2.316-0.204,4.166c-0.136,1.85-0.204,3.238-0.204,4.166c0,0.433,0.117,0.687,0.353,0.761
			c0.321,0.099,1.905,0.148,4.75,0.148c2.647,0,4.181-0.049,4.602-0.148c0.297-0.074,0.445-0.328,0.445-0.761
			c0-0.891-0.043-2.236-0.13-4.036c-0.087-1.8-0.13-3.151-0.13-4.054c0-0.383,0.154-0.575,0.464-0.575
			c0.358,0,0.906,0.019,1.642,0.056c0.736,0.037,1.29,0.056,1.661,0.056c0.358,0,0.906-0.019,1.642-0.056
			c0.736-0.037,1.29-0.056,1.661-0.056c0.358,0,0.538,0.148,0.538,0.445c0,1.423-0.059,3.569-0.176,6.438
			c-0.118,2.87-0.176,5.022-0.176,6.457c0,1.349,0.065,3.371,0.195,6.067C83.476,47.126,83.541,49.143,83.541,50.479z"/>
		<path fill="#71B5FF" d="M111.303,50.59c0,0.223-0.155,0.377-0.464,0.464c-0.371,0.099-1.521,0.148-3.451,0.148
			c-1.769,0-2.907-0.05-3.414-0.148c-0.421-0.086-0.687-0.365-0.798-0.835c-0.421-1.781-0.749-2.733-0.983-2.857
			c-0.198-0.086-1.855-0.13-4.973-0.13c-2.103,0-3.223,0.056-3.358,0.167c-0.21,0.198-0.445,0.86-0.705,1.985
			c-0.235,1.027-0.52,1.583-0.854,1.67c-0.421,0.099-1.831,0.148-4.23,0.148c-1.893,0-2.839-0.179-2.839-0.538
			c0-0.321,1.397-4.273,4.193-11.856c3.03-8.201,4.676-12.71,4.936-13.526c0.148-0.47,0.321-0.705,0.52-0.705
			c0.334,0,0.85,0.031,1.549,0.093c0.699,0.062,1.221,0.093,1.568,0.093c0.334,0,0.826-0.021,1.475-0.065
			c0.649-0.043,1.135-0.065,1.457-0.065c0.235,0,0.451,0.204,0.649,0.612c0.606,1.299,2.375,5.752,5.307,13.359
			C109.831,46.261,111.303,50.256,111.303,50.59z M98.147,33.687c-0.26,0.544-0.699,1.726-1.317,3.544
			c-0.668,1.93-1.002,3.062-1.002,3.396c0,0.223,0.371,0.347,1.113,0.371c0.383,0.025,1.014,0.037,1.893,0.037
			c0.816,0,1.268-0.099,1.354-0.297c0.024-0.062,0.037-0.148,0.037-0.26c0-0.408-0.285-1.534-0.854-3.377
			C98.815,35.319,98.407,34.182,98.147,33.687z"/>
		<path fill="#71B5FF" d="M135.108,34.948c0,2.994-0.785,5.418-2.356,7.273c-1.683,1.967-4.002,2.95-6.958,2.95
			c-0.495,0-1.24-0.028-2.236-0.083s-1.74-0.083-2.235-0.083c-0.532,0-0.798,0.229-0.798,0.687c0,0.569,0.056,1.417,0.167,2.542
			c0.111,1.126,0.167,1.967,0.167,2.523c0,0.285-0.13,0.427-0.39,0.427c-0.755,0-1.887-0.022-3.396-0.065
			c-1.509-0.043-2.641-0.065-3.396-0.065c-0.359,0-0.538-0.179-0.538-0.538c0-1.373,0.021-3.436,0.065-6.188
			c0.043-2.752,0.065-4.815,0.065-6.188c0-3.884-0.167-7.966-0.501-12.246l-0.019-0.26c-0.025-0.235,0.161-0.377,0.557-0.427
			c0.965-0.124,3.092-0.186,6.383-0.186c1.942,0,3.804,0.025,5.585,0.074c2.932,0.087,5.294,1.008,7.088,2.765
			C134.192,29.667,135.108,32.029,135.108,34.948z M127.705,35.245c0-2.882-1.404-4.323-4.212-4.323
			c-1.979,0-3.019,0.111-3.117,0.334c-0.087,0.161-0.13,1.59-0.13,4.286c0,0.384,0.015,0.95,0.046,1.698
			c0.031,0.749,0.046,1.314,0.046,1.698c0,0.248,1.113,0.371,3.34,0.371C126.362,39.309,127.705,37.954,127.705,35.245z"/>
		<path fill="#71B5FF" d="M159.552,34.948c0,2.994-0.785,5.418-2.355,7.273c-1.684,1.967-4.002,2.95-6.959,2.95
			c-0.494,0-1.24-0.028-2.235-0.083c-0.996-0.056-1.741-0.083-2.235-0.083c-0.533,0-0.799,0.229-0.799,0.687
			c0,0.569,0.057,1.417,0.168,2.542c0.111,1.126,0.166,1.967,0.166,2.523c0,0.285-0.129,0.427-0.389,0.427
			c-0.756,0-1.887-0.022-3.396-0.065c-1.509-0.043-2.641-0.065-3.395-0.065c-0.359,0-0.539-0.179-0.539-0.538
			c0-1.373,0.021-3.436,0.065-6.188c0.043-2.752,0.065-4.815,0.065-6.188c0-3.884-0.168-7.966-0.502-12.246l-0.018-0.26
			c-0.025-0.235,0.16-0.377,0.557-0.427c0.965-0.124,3.092-0.186,6.383-0.186c1.941,0,3.803,0.025,5.584,0.074
			c2.932,0.087,5.295,1.008,7.088,2.765C158.637,29.667,159.552,32.029,159.552,34.948z M152.149,35.245
			c0-2.882-1.404-4.323-4.213-4.323c-1.979,0-3.018,0.111-3.117,0.334c-0.086,0.161-0.129,1.59-0.129,4.286
			c0,0.384,0.015,0.95,0.046,1.698c0.03,0.749,0.046,1.314,0.046,1.698c0,0.248,1.113,0.371,3.34,0.371
			C150.807,39.309,152.149,37.954,152.149,35.245z"/>
		<path fill="#71B5FF" d="M183.255,31.757c0,0.532-0.1,0.996-0.297,1.392c-1.621,3.204-3.828,6.575-6.624,10.112
			c-0.396,0.52-0.594,0.99-0.594,1.41c0,0.656,0.037,1.639,0.111,2.95c0.074,1.312,0.111,2.289,0.111,2.932
			c0,0.223-0.05,0.359-0.148,0.408c-0.024,0.013-0.192,0.043-0.501,0.093c-0.445,0.074-1.559,0.111-3.34,0.111
			c-1.794,0-2.938-0.037-3.433-0.111c-0.347-0.049-0.52-0.229-0.52-0.538c0-0.655,0.056-1.654,0.167-2.997
			c0.111-1.342,0.167-2.347,0.167-3.015c0-0.396-0.148-0.822-0.445-1.28c-1.497-2.115-3.637-5.356-6.42-9.723
			c-0.284-0.482-0.427-0.878-0.427-1.188c0-0.742-0.037-1.855-0.111-3.34s-0.111-2.598-0.111-3.34c0-0.408,0.123-0.612,0.371-0.612
			c0.754,0,1.898,0.031,3.433,0.093c1.534,0.062,2.685,0.093,3.451,0.093c0.284,0,0.427,0.093,0.427,0.278
			c0,0.631-0.027,1.581-0.084,2.848c-0.055,1.268-0.083,2.217-0.083,2.848c0,0.371,0.544,1.299,1.633,2.783
			c0.866,1.163,1.577,2.06,2.134,2.69c0.507-0.594,1.182-1.484,2.022-2.672c1.063-1.484,1.596-2.381,1.596-2.69
			c0-0.618-0.046-1.555-0.14-2.811c-0.092-1.255-0.139-2.192-0.139-2.811c0-0.26,0.056-0.408,0.167-0.445h0.464
			c0.742,0,1.858-0.034,3.35-0.102c1.49-0.068,2.612-0.102,3.367-0.102c0.247,0,0.371,0.266,0.371,0.798
			c0,0.656,0.012,1.642,0.037,2.959C183.242,30.096,183.255,31.089,183.255,31.757z"/>
		<path fill="#FFFFFF" d="M77.027,175.754c-1.064,0-2.449-0.025-4.156-0.074c-2.227-0.049-3.612-0.08-4.156-0.092l-5.548-0.074
			c-0.557,0.012-1.354-0.014-2.394-0.074c-0.359-0.063-0.538-0.254-0.538-0.576c0-1.348,0.021-3.367,0.065-6.057
			c0.043-2.691,0.065-4.711,0.065-6.059c0-1.436-0.043-3.584-0.13-6.447c-0.087-2.865-0.13-5.014-0.13-6.449
			c0-0.271,0.186-0.408,0.557-0.408s0.924,0.02,1.661,0.057c0.736,0.037,1.283,0.055,1.642,0.055c0.408,0,1.014-0.021,1.818-0.064
			c0.804-0.043,1.41-0.064,1.818-0.064c0.186,0,0.272,0.117,0.26,0.352l-0.019,0.242c-0.148,2.326-0.315,5.82-0.501,10.482
			l-0.019,4.898c0,1.584,0.006,2.74,0.019,3.471c0.012,0.148,0.024,0.297,0.037,0.445c0.012,0.148,0.105,0.24,0.278,0.277
			c0.012,0,0.173,0,0.482,0c1.113,0,2.78-0.059,5-0.176c2.22-0.117,3.887-0.176,5-0.176c0.334,0,0.501,0.143,0.501,0.426
			c0,2.115-0.155,3.941-0.464,5.475c-0.062,0.32-0.192,0.512-0.39,0.574C77.726,175.742,77.473,175.754,77.027,175.754z"/>
		<path fill="#FFFFFF" d="M105.606,174.975c0,0.223-0.155,0.379-0.464,0.465c-0.371,0.098-1.521,0.148-3.451,0.148
			c-1.769,0-2.907-0.051-3.414-0.148c-0.421-0.086-0.687-0.365-0.798-0.836c-0.421-1.781-0.749-2.732-0.983-2.857
			c-0.198-0.086-1.855-0.129-4.973-0.129c-2.103,0-3.223,0.055-3.358,0.166c-0.21,0.199-0.445,0.861-0.705,1.986
			c-0.235,1.027-0.52,1.584-0.854,1.67c-0.421,0.098-1.831,0.148-4.23,0.148c-1.893,0-2.839-0.18-2.839-0.539
			c0-0.32,1.397-4.273,4.193-11.855c3.03-8.201,4.676-12.711,4.936-13.527c0.148-0.469,0.321-0.705,0.52-0.705
			c0.334,0,0.85,0.031,1.549,0.094c0.699,0.063,1.221,0.092,1.568,0.092c0.334,0,0.826-0.021,1.475-0.064s1.135-0.064,1.457-0.064
			c0.235,0,0.451,0.203,0.649,0.611c0.606,1.299,2.375,5.752,5.307,13.359C104.134,170.646,105.606,174.641,105.606,174.975z
			 M92.451,158.072c-0.26,0.545-0.699,1.725-1.317,3.543c-0.668,1.93-1.002,3.063-1.002,3.396c0,0.223,0.371,0.346,1.113,0.371
			c0.383,0.025,1.014,0.037,1.893,0.037c0.816,0,1.268-0.1,1.354-0.297c0.024-0.063,0.037-0.148,0.037-0.26
			c0-0.408-0.285-1.533-0.854-3.377C93.119,159.705,92.711,158.566,92.451,158.072z"/>
		<path fill="#FFFFFF" d="M129.29,167.424c0,2.275-0.711,4.162-2.133,5.658c-1.621,1.721-4.467,2.58-8.536,2.58
			c-0.31,0-0.755-0.008-1.336-0.02c-0.594,0-1.033,0-1.317,0c-4.564,0-7.28-0.092-8.146-0.277c-0.359-0.074-0.538-0.266-0.538-0.576
			c0-1.322,0.077-3.326,0.232-6.012c0.154-2.684,0.232-4.693,0.232-6.029c0-1.436-0.074-4.131-0.223-8.09
			c-0.037-1.014-0.105-2.535-0.204-4.564l-0.019-0.26c-0.013-0.234,0.182-0.377,0.584-0.428c0.402-0.049,1.833-0.074,4.295-0.074
			c3.946,0,6.253,0.014,6.921,0.037c3.043,0.111,5.288,0.607,6.735,1.484c1.918,1.176,2.877,3.162,2.877,5.957
			c0,0.73-0.223,1.502-0.668,2.318c-0.322,0.582-0.742,1.164-1.262,1.744c-0.459,0.508-0.688,0.742-0.688,0.705
			c0,0.088,0.161,0.223,0.482,0.408c0.866,0.496,1.547,1.281,2.041,2.357C129.067,165.309,129.29,166.336,129.29,167.424z
			 M121.312,156.977c0-1.063-0.532-1.768-1.595-2.115c-0.594-0.186-1.571-0.277-2.932-0.277c-1.336,0-2.004,0.1-2.004,0.297
			c0,0.234-0.022,0.59-0.065,1.066c-0.043,0.477-0.065,0.832-0.065,1.066c0,1.238,0.105,1.93,0.315,2.078
			c0.136,0.111,0.921,0.168,2.356,0.168C119.982,159.26,121.312,158.498,121.312,156.977z M121.868,167.35
			c0-1.113-0.463-1.867-1.391-2.264c-0.594-0.248-1.559-0.371-2.895-0.371c-1.596,0-2.462,0.059-2.598,0.176
			c-0.136,0.117-0.204,0.875-0.204,2.273c0,1.459,0.08,2.266,0.241,2.422c0.161,0.154,1.051,0.23,2.672,0.23
			c1.336,0,2.276-0.104,2.82-0.314C121.417,169.143,121.868,168.426,121.868,167.35z"/>
		<path fill="#FFFFFF" d="M182.142,175.254c0,0.086-0.124,0.148-0.371,0.186c-0.471,0.074-1.651,0.111-3.544,0.111
			c-1.62,0-2.722-0.037-3.303-0.111c-0.272-0.037-0.427-0.068-0.464-0.094c-0.074-0.037-0.161-0.16-0.26-0.371
			c-0.186-0.482-0.458-1.199-0.816-2.152c-0.482-1.236-1.237-3.061-2.264-5.473c-0.223-0.482-0.736-0.748-1.54-0.799
			c0.371,0.025-0.267,0.037-1.911,0.037c-0.186,0-0.278,0.316-0.278,0.947c0,0.842,0.077,2.096,0.231,3.766s0.232,2.926,0.232,3.768
			c0,0.211-0.056,0.334-0.167,0.371c-0.173,0.012-0.347,0.023-0.52,0.037c-0.729,0.049-1.868,0.074-3.414,0.074
			c-1.769,0-2.833-0.037-3.191-0.111s-0.538-0.266-0.538-0.576c0-1.359,0.064-3.414,0.195-6.16c0.129-2.746,0.194-4.805,0.194-6.178
			c0-5.232-0.118-9.314-0.353-12.246l-0.019-0.26c-0.013-0.211,0.183-0.354,0.585-0.428c0.401-0.074,2.291-0.148,5.668-0.223
			c2.288-0.049,4.113-0.074,5.474-0.074c2.82,0,5.121,0.639,6.902,1.912c2.017,1.436,3.024,3.506,3.024,6.215
			c0,1.807-0.26,3.248-0.779,4.324s-1.479,2.121-2.876,3.135c-0.284,0.199-0.427,0.385-0.427,0.557c0-0.012,0.754,1.541,2.264,4.658
			C181.387,173.213,182.142,174.932,182.142,175.254z M174.349,158.609c0-1.508-0.495-2.553-1.484-3.135
			c-0.768-0.445-1.967-0.668-3.6-0.668c-1.176,0-1.8,0.18-1.874,0.537c-0.074,0.422-0.111,1.633-0.111,3.637
			c0,0.285,0.006,0.705,0.019,1.262c0.012,0.557,0.019,0.973,0.019,1.244c0,0.063,0.198,0.123,0.594,0.186
			c0.755,0.111,1.546,0.166,2.375,0.166C172.994,161.838,174.349,160.762,174.349,158.609z"/>
		<path fill="#0066CC" d="M97.52,197.053c0,5.359-1.723,10.008-5.168,13.945c-3.044,3.518-7.319,5.369-12.824,5.551
			c-1.058,0.035-3.965,0.055-8.723,0.055c-0.894,0-2.238-0.027-4.033-0.082c-1.796-0.055-3.14-0.082-4.033-0.082
			c-0.529,0-0.793-0.209-0.793-0.629c0-2.006,0.077-5.018,0.232-9.037c0.155-4.02,0.232-7.031,0.232-9.037
			c0-2.096-0.078-5.236-0.232-9.42c-0.155-4.184-0.232-7.314-0.232-9.393c0-0.383,0.264-0.611,0.793-0.684
			c1.294-0.146,3.418-0.219,6.371-0.219c5.614,0,9.251,0.082,10.91,0.246c4.32,0.438,7.702,1.531,10.145,3.281
			c2.297,1.641,4.11,3.938,5.441,6.891C96.881,191.229,97.52,194.1,97.52,197.053z M87.047,197.053c0-3.08-0.921-5.596-2.762-7.547
			c-1.859-2.023-4.32-3.035-7.383-3.035c-2.808,0-4.211,0.373-4.211,1.121c0,1.076-0.019,2.693-0.055,4.854
			c-0.037,2.16-0.055,3.777-0.055,4.854c0,1.057,0.018,2.648,0.055,4.771c0.036,2.123,0.055,3.723,0.055,4.799
			c0,0.783,1.458,1.176,4.375,1.176c3.153,0,5.633-1.049,7.438-3.145C86.199,202.914,87.047,200.297,87.047,197.053z"/>
		<path fill="#0066CC" d="M135.366,215.756c0,0.328-0.229,0.557-0.684,0.684c-0.547,0.145-2.242,0.219-5.086,0.219
			c-2.607,0-4.285-0.074-5.031-0.219c-0.621-0.127-1.012-0.537-1.176-1.23c-0.621-2.625-1.104-4.029-1.449-4.211
			c-0.293-0.127-2.735-0.191-7.329-0.191c-3.099,0-4.749,0.082-4.949,0.246c-0.31,0.291-0.656,1.268-1.039,2.926
			c-0.347,1.514-0.766,2.334-1.258,2.461c-0.62,0.145-2.698,0.219-6.234,0.219c-2.789,0-4.184-0.264-4.184-0.793
			c0-0.475,2.06-6.299,6.18-17.473c4.466-12.086,6.891-18.73,7.273-19.934c0.219-0.693,0.474-1.039,0.766-1.039
			c0.492,0,1.253,0.045,2.283,0.137c1.03,0.092,1.8,0.137,2.311,0.137c0.492,0,1.217-0.031,2.174-0.096s1.672-0.096,2.146-0.096
			c0.346,0,0.665,0.301,0.957,0.902c0.893,1.914,3.5,8.477,7.821,19.688C133.196,209.375,135.366,215.264,135.366,215.756z
			 M115.979,190.846c-0.383,0.803-1.03,2.543-1.941,5.223c-0.984,2.844-1.477,4.512-1.477,5.004c0,0.328,0.547,0.51,1.641,0.547
			c0.565,0.037,1.495,0.055,2.789,0.055c1.203,0,1.868-0.146,1.996-0.438c0.036-0.092,0.055-0.219,0.055-0.383
			c0-0.602-0.419-2.26-1.258-4.977C116.963,193.252,116.362,191.574,115.979,190.846z"/>
		<path fill="#0066CC" d="M165.867,188.002c0,0.783-0.146,1.467-0.438,2.051c-2.388,4.721-5.642,9.689-9.762,14.902
			c-0.583,0.766-0.875,1.459-0.875,2.078c0,0.967,0.055,2.416,0.164,4.348s0.164,3.373,0.164,4.32c0,0.328-0.073,0.529-0.219,0.602
			c-0.036,0.018-0.282,0.064-0.738,0.137c-0.656,0.109-2.297,0.164-4.922,0.164c-2.644,0-4.329-0.055-5.059-0.164
			c-0.511-0.072-0.766-0.338-0.766-0.793c0-0.967,0.082-2.438,0.246-4.416s0.246-3.459,0.246-4.443c0-0.584-0.219-1.213-0.656-1.887
			c-2.206-3.117-5.359-7.893-9.461-14.328c-0.419-0.711-0.629-1.295-0.629-1.75c0-1.094-0.055-2.734-0.164-4.922
			s-0.164-3.828-0.164-4.922c0-0.602,0.183-0.902,0.547-0.902c1.112,0,2.798,0.045,5.059,0.137s3.956,0.137,5.086,0.137
			c0.419,0,0.629,0.137,0.629,0.41c0,0.93-0.041,2.328-0.123,4.197s-0.123,3.268-0.123,4.197c0,0.547,0.802,1.914,2.406,4.102
			c1.276,1.713,2.324,3.035,3.145,3.965c0.747-0.875,1.741-2.188,2.98-3.938c1.567-2.188,2.352-3.51,2.352-3.965
			c0-0.912-0.068-2.293-0.205-4.143s-0.205-3.23-0.205-4.143c0-0.383,0.082-0.602,0.246-0.656h0.684c1.094,0,2.739-0.051,4.936-0.15
			s3.851-0.15,4.963-0.15c0.364,0,0.547,0.393,0.547,1.176c0,0.967,0.019,2.42,0.055,4.361S165.867,187.018,165.867,188.002z"/>
		<path fill="#0066CC" d="M179.073,184.693c0,3.318-0.301,6.436-0.902,9.352c-0.729,2.99-1.449,5.971-2.16,8.941
			c-0.164,0.674-0.894,1.012-2.188,1.012c-1.477,0-2.297-0.291-2.461-0.875c-1.714-5.852-2.57-9.178-2.57-9.98
			c0-0.748,0.036-1.859,0.109-3.336c0.072-1.477,0.109-2.588,0.109-3.336c0-0.82-0.027-2.051-0.082-3.691s-0.082-2.871-0.082-3.691
			c0-0.674,0.164-1.012,0.492-1.012c0.51,0,1.275,0.037,2.297,0.109c1.021,0.072,1.786,0.109,2.297,0.109
			c0.51,0,1.275-0.037,2.297-0.109c1.021-0.072,1.786-0.109,2.297-0.109C178.891,178.076,179.073,180.281,179.073,184.693z
			 M179.073,211.791c0,1.531-0.475,2.803-1.422,3.814c-0.948,1.012-2.188,1.518-3.719,1.518c-1.55,0-2.794-0.502-3.732-1.504
			c-0.939-1.002-1.408-2.279-1.408-3.828c0-1.531,0.474-2.789,1.422-3.773c0.947-0.984,2.188-1.477,3.719-1.477
			c1.513,0,2.748,0.492,3.705,1.477S179.073,210.26,179.073,211.791z"/>
		<path fill="#FFFFFF" d="M158.374,162.451c0,3.859-1.231,7.094-3.693,9.703c-2.511,2.648-5.689,3.971-9.537,3.971
			c-3.822,0-6.994-1.336-9.518-4.008c-2.475-2.609-3.711-5.832-3.711-9.666c0-3.848,1.236-7.082,3.711-9.705
			c2.523-2.684,5.695-4.025,9.518-4.025c3.798,0,6.965,1.342,9.5,4.025C157.13,155.395,158.374,158.629,158.374,162.451z
			 M151.341,162.414c0-1.855-0.563-3.434-1.688-4.732c-1.176-1.359-2.679-2.041-4.51-2.041c-1.744,0-3.223,0.705-4.434,2.115
			c-1.176,1.361-1.764,2.926-1.764,4.695c0,1.893,0.551,3.469,1.652,4.73c1.162,1.324,2.678,1.986,4.545,1.986
			c1.744,0,3.229-0.699,4.453-2.098C150.76,165.734,151.341,164.184,151.341,162.414z"/>
	</g>
</g>
</svg>
