<svg xmlns="http://www.w3.org/2000/svg" width="250" height="250" viewBox="0 0 250 250"><path opacity=".15" fill="#231F20" d="M194.283 190.875s-1.728-5.843-9.977-10.303c4.008-1.66 6.834-5.638 6.834-10.287 0-2.58-.877-4.948-2.336-6.834.78-1.67 1.235-3.62 1.235-5.71 0-5.59-3.21-10.22-7.42-11.13 0-.06.01-.11.01-.17 0-6.46-4.67-11.69-10.43-11.69-1.21 0-2.36.24-3.43.66-.56-1.64-1.47-3.11-2.64-4.32 15.73-6.58 26.54-20.12 26.54-35.72 0-4.25-.8-8.42-2.38-12.43 1.38-3.09 3.03-8.34.74-12.22-.84-1.41-2.92-3.79-7.42-3.79-1.35 0-2.84.21-4.51.63-.1-.08-.19-.16-.28-.23l-.2.23.09-.33-.15-.11c-.44-.36-.89-.72-1.34-1.07l-.13-.1-.11-.01.03-.04c-.29-.21-.58-.43-.87-.64 8.68-1.39 13.33-4.39 13.84-8.96.03-.27.04-.49.04-.63l.01-.02V53l-.01-.008c-.01-12.433-33.45-16.834-40.16-17.59-2.76-.313-5.55-.55-8.29-.71-2.63-.15-5.21-.23-7.68-.23-.48 0-.96.004-1.43.01-16.41.2-25.09 3.528-25.81 9.876-.04.343-.03.624-.03.78l-.01.008v2.8l.56.562-.48.07c.31 2.117 1.51 4.02 3.67 5.782l1.5 11.582c-.35.272-.7.547-1.04.822l-.37.303c-2.3-.76-4.46-1.144-6.42-1.144-6.37 0-9.58 3.9-10.58 6.42-1.07 2.32-1.65 5.58-.16 9.74-.1-.15-.2-.31-.31-.476-.66-1.003-1.22-1.97-1.72-2.827-.76-1.31-1.31-2.26-2.02-3.025l-1.91-1.215-1.37-.213c-1.28 0-2.52.55-3.38 1.51-.41.458-1.04 1.154-1.31 3.147-.11.106-.22.22-.32.34l-.6.9c-.43.863-.63 1.714-.69 2.533-.31.43-.55.92-.7 1.455l-.12.503c-.11.634-.25 1.49-.28 2.54l-.16.21-.57 1.12c-.07.186-.12.374-.17.565-.77-.658-1.71-1.437-2.9-2.29l-2.52 1.426-.12-.122c-.72-.783-1.71-1.856-3.56-3.36-1.34-1.096-2.52-2.175-3.56-3.126-1.49-1.36-2.56-2.342-3.66-2.97l-2.2-.584c-1.55 0-2.98.773-3.83 2.07-.49.74-1.2 1.817-.53 4.986-.21.288-.38.602-.53.94l-.3 1.037c-.2 1.267-.07 2.42.25 3.485-.29.646-.43 1.365-.42 2.116l.04.51c.14 1.007.32 2.34.81 3.875-.12.244-.22.502-.31.772l-.2 1.237c-.05 2.175.59 4.286 1.56 6.157-.34.69-.57 1.59-.5 2.71l.09.62c.41 2 1.06 3.51 1.86 4.69-.1.38-.17.79-.19 1.21-.16 2.6 1.21 5.2 3.62 7.2-1.03 2.06-.87 4.31-.09 6.19.83 2.1 2.66 3.04 4.41 3.46.11.24.26.49.43.75.1 1.94 1.03 3.78 2.74 5.23l.22.17c.67.5 1.43.86 2.33 1.08.27.32.59.64.96.96l.2.16c-.46 1.04-.75 2.17-.82 3.37-4.35.58-7.7 4.05-7.7 8.26 0 1.6.5 3.1 1.34 4.38-3.49 2.07-5.68 5.06-5.68 8.38 0 2.39 1.13 4.6 3.06 6.42-3.05 1.81-5.69 4.48-7.26 8.39l16.63 43.39s29.24-2.18 34.09-15.95l-.79-5.41s38.79-15.52 68.55-1.63l-.81 3.21s4.68 7.07 15.07 5.22c0 0-.7 5.73-4.13 12.16 0 0 9.36-6.19 16.22-22.96 0 .01-.12-8.43-5.38-6.12zm-58.82-143.312c3.858 0 8.185.258 12.51.746 4.953.55 9.205 1.31 12.71 2.13h-.628c-3.7 0-7.68-.23-11.824-.67l-.69-.08c-4.95-.56-9.21-1.32-12.71-2.14h.64z"/><path fill="#1B75BB" d="M192.283 188.875s-1.728-5.843-9.977-10.303c4.008-1.66 6.834-5.638 6.834-10.287 0-2.58-.877-4.948-2.336-6.834.78-1.67 1.235-3.62 1.235-5.71 0-5.59-3.21-10.22-7.42-11.13 0-.06.01-.11.01-.17 0-6.46-4.67-11.69-10.43-11.69-1.21 0-2.36.24-3.43.66-.56-1.64-1.47-3.11-2.64-4.32 15.73-6.58 26.54-20.12 26.54-35.72 0-4.25-.8-8.42-2.38-12.43 1.38-3.09 3.03-8.34.74-12.22-.84-1.41-2.92-3.79-7.42-3.79-1.35 0-2.84.21-4.51.63-.1-.08-.19-.16-.28-.23l-.2.23.09-.33-.15-.11c-.44-.36-.89-.72-1.34-1.07l-.13-.1-.11-.01.03-.04c-.29-.21-.58-.43-.87-.64 8.68-1.39 13.33-4.39 13.84-8.96.03-.27.04-.49.04-.63l.01-.02V51l-.01-.008c-.01-12.433-33.45-16.834-40.16-17.59-2.76-.313-5.55-.55-8.29-.71-2.63-.15-5.21-.23-7.68-.23-.48 0-.96.004-1.43.01-16.41.2-25.09 3.528-25.81 9.876-.04.343-.03.624-.03.78l-.01.008v2.8l.56.562-.48.07c.31 2.117 1.51 4.02 3.67 5.782l1.5 11.582c-.35.272-.7.547-1.04.822l-.37.303c-2.3-.76-4.46-1.144-6.42-1.144-6.37 0-9.58 3.9-10.58 6.42-1.07 2.32-1.65 5.58-.16 9.74-.1-.15-.2-.31-.31-.476-.66-1.003-1.22-1.97-1.72-2.827-.76-1.31-1.31-2.26-2.02-3.025l-1.91-1.215-1.37-.213c-1.28 0-2.52.55-3.38 1.51-.41.458-1.04 1.154-1.31 3.147-.11.106-.22.22-.32.34l-.6.9c-.43.863-.63 1.714-.69 2.533-.31.43-.55.92-.7 1.455l-.12.503c-.11.634-.25 1.49-.28 2.54l-.16.21-.57 1.12c-.07.186-.12.374-.17.565-.77-.658-1.71-1.437-2.9-2.29l-2.52 1.426-.12-.122c-.72-.783-1.71-1.856-3.56-3.36-1.34-1.096-2.52-2.175-3.56-3.126-1.49-1.36-2.56-2.342-3.66-2.97l-2.2-.584c-1.55 0-2.98.773-3.83 2.07-.49.74-1.2 1.817-.53 4.986-.21.288-.38.602-.53.94l-.3 1.037c-.2 1.267-.07 2.42.25 3.485-.29.646-.43 1.365-.42 2.116l.04.51c.14 1.007.32 2.34.81 3.875-.12.244-.22.502-.31.772l-.2 1.237c-.05 2.175.59 4.286 1.56 6.157-.34.69-.57 1.59-.5 2.71l.09.62c.41 2 1.06 3.51 1.86 4.69-.1.38-.17.79-.19 1.21-.16 2.6 1.21 5.2 3.62 7.2-1.03 2.06-.87 4.31-.09 6.19.83 2.1 2.66 3.04 4.41 3.46.11.24.26.49.43.75.1 1.94 1.03 3.78 2.74 5.23l.22.17c.67.5 1.43.86 2.33 1.08.27.32.59.64.96.96l.2.16c-.46 1.04-.75 2.17-.82 3.37-4.35.58-7.7 4.05-7.7 8.26 0 1.6.5 3.1 1.34 4.38-3.49 2.07-5.68 5.06-5.68 8.38 0 2.39 1.13 4.6 3.06 6.42-3.05 1.81-5.69 4.48-7.26 8.39l16.63 43.39s29.24-2.18 34.09-15.95l-.79-5.41s38.79-15.52 68.55-1.63l-.81 3.21s4.68 7.07 15.07 5.22c0 0-.7 5.73-4.13 12.16 0 0 9.36-6.19 16.22-22.96 0 .01-.12-8.43-5.38-6.12zm-58.82-143.312c3.858 0 8.185.258 12.51.746 4.953.55 9.205 1.31 12.71 2.13h-.628c-3.7 0-7.68-.23-11.824-.67l-.69-.08c-4.95-.56-9.21-1.32-12.71-2.14h.64z"/><path fill="#D3D3D3" d="M183.697 160.253c.646-1.336 1.02-2.838 1.02-4.432 0-4.51-2.92-8.32-6.92-9.55.003-.08.013-.17.013-.25 0-5.69-4.482-10.31-10.01-10.31-1.463 0-2.847.33-4.1.91.018-.25.04-.51.04-.77 0-5.69-4.484-10.31-10.01-10.31-2.722 0-5.186 1.12-6.99 2.94-1.814-1.89-4.334-3.07-7.12-3.07-5.53 0-10.01 4.62-10.01 10.32s4.483 10.32 10.01 10.32c2.72 0 5.186-1.12 6.988-2.94 1.814 1.9 4.333 3.07 7.12 3.07 1.462 0 2.847-.33 4.1-.91-.02.26-.04.52-.04.78 0 4.84 3.234 8.89 7.59 10 .015.75.11 1.48.276 2.17-2.033 2.15-3.29 5.07-3.29 8.31 0 6.56 5.163 11.88 11.53 11.88 6.368 0 11.53-5.32 11.53-11.88 0-2.29-.638-4.42-1.727-6.23z"/><path fill="#FFF" d="M177.485 163.515c.646-1.336 1.02-2.84 1.02-4.432 0-4.52-2.92-8.33-6.92-9.553.004-.085.014-.168.014-.254 0-5.698-4.49-10.313-10.01-10.313-1.47 0-2.85.33-4.1.91.01-.258.03-.518.03-.778 0-5.697-4.48-10.314-10.01-10.314-2.72 0-5.19 1.13-6.99 2.94-1.82-1.89-4.34-3.07-7.12-3.07-5.53 0-10.01 4.62-10.01 10.32s4.48 10.32 10.01 10.32c2.72 0 5.18-1.12 6.98-2.93 1.81 1.9 4.33 3.07 7.12 3.07 1.46 0 2.84-.33 4.1-.91-.02.26-.04.52-.04.78 0 4.84 3.23 8.88 7.59 10 .01.75.11 1.48.27 2.17-2.04 2.15-3.29 5.07-3.29 8.31 0 6.56 5.16 11.88 11.53 11.88s11.53-5.32 11.53-11.88c0-2.29-.64-4.42-1.73-6.23z"/><path fill="#D6EFFB" d="M105.21 102.097c.028-.463-.105-.846-.364-1.185 3.588-4.743.118-5.254-4.58-7.383-1.143-.54-1.885-1.33-2.956-1.9-3.915-2.29-3.78-3.67-6.078-6.72-.213.93-.213 2.23.543 3.05-3.32-2.44-2.136-2.46-4.435-5.94-1.583-2.4-2.596-4.53-3.29-5.28-.554-.18-.417 3.87-.248 5.5-.597-.4-.858-2.73-1.43-2.07-.654 1.31.204 3.03.613 5.36-.475-.22-1.454-3.01-1.715-2.11-.276 1.62-.72 4.18 1.663 7.81-1.72-1.17-2.162-4.23-2.84-3.26-.79 2.33.423 5.54 1.61 6.89-1.66-.59-2.445-1.96-2.705-.89-.262 2.65.544 3.57 2.16 4.84-.025.29-.036.56-.028.81-1.167-.62-2.11-1.43-2.435-.49-.492 1.24.468 3.14 2.11 4.49-.05.42.05.9.267 1.4-1.5.2-2.82.77-2.643 2.63.03.62 1.25 1.18 2.61 1.58-.29.34-.44.81-.38 1.46.01.29.33.56.78.8-.73.67-1.11 1.56-.36 2.75.26.36.85.65 1.59.87-.08.4 0 .86.33 1.38.37.51 1.44.84 2.61 1.07.03.14.08.28.15.43-.03.26.02.54.2.82.3.64.72 1.09 1.19 1.41.03.09.07.19.14.29.65 1.35 1.83 1.74 3.06 1.98.04.07.09.13.14.19-.43.29-.78.75-.86 1.63v.17l2.08-.8c.64.29 1.36.43 2.08.56.69.13 1.37.25 1.97.51-.74.6-2.22.33-2.39 2.14 0 .05.01.1.01.14l7.43-2.74c.54-.79 1.13-1.68 1.81-2.71 2-3.28 4.01-5.98 2.56-8.83-1.1-1.92-.32-4.04 1.1-5.54 2.4-3.06 1.3-4.08-1.13-5.17z"/><path fill="#D3D3D3" d="M94.656 153.09c.17-.56.28-1.146.33-1.75 2.72-1.343 4.598-4.14 4.598-7.38 0-4.546-3.686-8.23-8.232-8.23-1.82 0-3.498.597-4.86 1.598-1.41-2.51-4.094-4.208-7.178-4.208-4.547 0-8.233 3.687-8.233 8.232 0 .448.05.884.12 1.313-3.63.858-6.34 4.112-6.34 8.004 0 1.56.44 3.01 1.2 4.26-3.1 1.18-5.3 4.17-5.3 7.68 0 4.54 3.69 8.23 8.23 8.23 2.06 0 3.94-.76 5.39-2.02.9.34 1.88.53 2.89.53 1.41 0 2.74-.36 3.9-.98 1.16.62 2.49.98 3.9.98 1.43 0 2.76-.36 3.93-1 1.17.63 2.51.99 3.93.99 4.55 0 8.24-3.69 8.24-8.24 0-3.95-2.78-7.25-6.49-8.05z"/><path fill="#FFF" d="M98.615 154.63c.172-.56.28-1.145.33-1.75 2.72-1.343 4.598-4.14 4.598-7.38 0-4.546-3.686-8.232-8.23-8.232-1.822 0-3.5.6-4.86 1.598-1.41-2.51-4.096-4.207-7.18-4.207-4.547 0-8.233 3.68-8.233 8.23 0 .44.046.88.115 1.31-3.632.86-6.338 4.11-6.338 8 0 1.56.442 3.01 1.196 4.25-3.1 1.18-5.306 4.17-5.306 7.69 0 4.54 3.686 8.23 8.233 8.23 2.06 0 3.94-.76 5.382-2.01.9.34 1.873.53 2.892.53 1.41 0 2.738-.36 3.9-.98 1.16.62 2.487.98 3.898.98 1.424 0 2.762-.36 3.93-1 1.168.63 2.508.99 3.932.99 4.546 0 8.232-3.69 8.232-8.23 0-3.95-2.78-7.25-6.49-8.05z"/><path fill="#97DCF2" d="M103.972 157.1c.17-.56.28-1.146.33-1.75 2.72-1.344 4.598-4.14 4.598-7.38 0-4.546-3.686-8.23-8.232-8.23-1.82 0-3.498.598-4.86 1.597-1.41-2.51-4.094-4.207-7.178-4.207-4.547 0-8.233 3.686-8.233 8.23 0 .45.046.886.115 1.314-3.632.86-6.338 4.11-6.338 8.004 0 1.56.442 3.015 1.196 4.26-3.1 1.18-5.306 4.172-5.306 7.685 0 4.548 3.687 8.233 8.233 8.233 2.06 0 3.94-.762 5.383-2.014.9.34 1.873.533 2.892.533 1.41 0 2.738-.356 3.9-.98 1.16.624 2.487.98 3.898.98 1.423 0 2.762-.36 3.93-.998 1.17.637 2.51.998 3.932.998 4.547 0 8.233-3.687 8.233-8.232 0-3.947-2.783-7.244-6.493-8.043zm60.78 2.822c.238-.776.39-1.588.456-2.425 3.77-1.86 6.372-5.736 6.372-10.227 0-6.3-5.106-11.406-11.406-11.406-2.522 0-4.846.83-6.735 2.216-1.96-3.48-5.68-5.83-9.95-5.83-6.3 0-11.41 5.105-11.41 11.406 0 .62.06 1.226.16 1.818-5.04 1.19-8.79 5.698-8.79 11.092 0 2.163.61 4.177 1.66 5.9-4.3 1.637-7.36 5.782-7.36 10.65 0 6.303 5.1 11.41 11.4 11.41 2.85 0 5.46-1.057 7.46-2.79 1.24.47 2.59.738 4 .738 1.95 0 3.79-.494 5.4-1.36 1.6.865 3.44 1.36 5.4 1.36 1.97 0 3.82-.502 5.44-1.383 1.62.89 3.47 1.39 5.44 1.39 6.3 0 11.4-5.1 11.4-11.41 0-5.46-3.86-10.03-9-11.14z"/><path fill="#5DB6E8" d="M113.29 159.495c.173-.56.28-1.147.33-1.75 2.722-1.344 4.6-4.14 4.6-7.38 0-4.546-3.687-8.232-8.234-8.232-1.82 0-3.497.6-4.86 1.6-1.41-2.512-4.094-4.21-7.178-4.21-4.547 0-8.232 3.687-8.232 8.232 0 .45.046.886.114 1.313-3.63.86-6.337 4.113-6.337 8.005 0 1.563.442 3.014 1.196 4.258-3.1 1.19-5.31 4.18-5.31 7.69 0 4.55 3.68 8.24 8.23 8.24 2.06 0 3.94-.76 5.38-2.01.9.34 1.87.54 2.89.54 1.41 0 2.74-.35 3.9-.98 1.16.63 2.49.98 3.9.98 1.42 0 2.76-.36 3.93-1 1.17.64 2.51 1 3.93 1 4.54 0 8.23-3.68 8.23-8.23 0-3.94-2.78-7.24-6.49-8.04zm45.25-.653c.172-.56.278-1.146.327-1.75 2.723-1.344 4.6-4.14 4.6-7.38 0-4.548-3.685-8.23-8.232-8.23-1.82 0-3.497.596-4.86 1.596-1.41-2.51-4.094-4.208-7.178-4.208-4.546 0-8.23 3.687-8.23 8.233 0 .447.045.885.113 1.313-3.632.857-6.337 4.11-6.337 8.004 0 1.56.44 3.014 1.196 4.258-3.11 1.18-5.31 4.173-5.31 7.687 0 4.548 3.68 8.233 8.23 8.233 2.06 0 3.94-.763 5.38-2.014.9.34 1.87.533 2.89.533 1.41 0 2.73-.356 3.89-.98 1.16.623 2.49.98 3.9.98 1.42 0 2.76-.362 3.93-.998 1.17.63 2.51.99 3.93.99 4.54 0 8.23-3.69 8.23-8.23 0-3.95-2.78-7.25-6.49-8.05z"/><path fill="#FFF" d="M56.64 97.24c.5-1.578 2.373 2.325 5.166 3.17-4.705-3.85-5.19-7.47-5.5-9.752-.025-1.31 2.45 2.007 3.18 2.106-1.527-2.952-3.394-4.89-3.07-6.92.483-1.134 1.812 1.88 2.776 2.16-.91-2.11-2.79-7.466-1.974-7.462 1.24.71 3.486 3.132 6.612 5.682 4.536 3.688 2.958 4.206 8.424 6.082-1.356-.782-1.898-2.514-2.006-3.858 4.357 3.127 4.755 5.024 10.95 6.44 1.672.316 2.994 1.052 4.747 1.295 7.236.885 12.12.087 9.16 8.143-1.463 3.09-1.645 6.828.98 9.326 3.62 3.788 1.828 9.058.325 15.244-.54 1.968-1.02 3.68-1.477 5.19l-10.14 8.036c-.024-.076-.058-.14-.077-.22-.623-2.937 1.792-3.245 2.644-4.562-3.213-.37-7.066 1.74-9.882-1.277-1.586-1.335.123-3.383.697-4.52-2.52.546-7.625 1.597-9.158.454-3.29-2.785 1.223-5.94 2.408-7.188-2.043.48-8.172 1.02-8.75-.53-1.46-3.48 2.313-4.66 4.97-5.64-4.263-.12-8.384-3.28-8.19-5.88.06-2.07 3.51.41 6.057-.39-4.615-1.82-6.82-1.86-7.82-6.66-.098-1.54 1.525-.04 3.993.05-2.153-1.31-5.123-5.09-5.044-8.54z"/><path fill="#B2E2F9" d="M85.16 135.02c-1.418.3-3.78.778-5.627.813-.23.69-.227 1.395.44 1.954 1.433 1.537 3.174 1.56 4.933 1.373-.118-.1-.235-.202-.35-.322-1.373-1.126.108-2.858.605-3.817zm-5.847-5.69c-1.323.303-4.62.637-6.412.24-1.23 1.317-2.25 3.046-.37 4.64.71.528 2.29.52 3.95.328-1.19-2.11 1.94-4.282 2.84-5.207zM68.94 119.152c.05-1.748 3.04.35 5.248-.327-3.998-1.53-5.908-1.57-6.775-5.625-.085-1.297 1.32-.028 3.458.042-1.86-1.1-4.43-4.302-4.37-7.215.44-1.333 2.06 1.966 4.48 2.68-4.07-3.254-4.5-6.314-4.76-8.244-.02-1.106 2.13 1.698 2.76 1.782-1.32-2.494-2.94-4.134-2.66-5.85.42-.958 1.57 1.588 2.41 1.826-.53-1.2-1.45-3.67-1.77-5.13-2.22-1.91-3.84-3.59-4.79-4.14-.72 0 .94 4.71 1.74 6.57-.85-.24-2.02-2.89-2.44-1.9-.29 1.79 1.36 3.49 2.7 6.09-.64-.08-2.82-3-2.79-1.85.27 2.01.7 5.2 4.84 8.58-2.45-.74-4.1-4.17-4.54-2.79-.07 3.03 2.55 6.37 4.44 7.51-2.17-.07-3.6-1.39-3.51-.04.88 4.22 2.82 4.26 6.88 5.86-2.24.71-5.27-1.48-5.32.34-.17 2.24 3.3 4.94 6.96 5.15-1.35-.95-2.22-2.18-2.14-3.29zm7.098 4.964c-1.783-.05-3.535-.7-4.854-1.604-2.328.853-5.496 1.917-4.234 4.912.317.852 2.527.985 4.584.864-.602-2.478 2.364-3.402 4.504-4.172zm15.855-18.982c1.574.188 3.02.286 4.26.435-.62-2.52-4.135-2.31-8.733-2.87-1.542-.22-2.704-.86-4.176-1.14-.677-.16-1.274-.32-1.81-.49 1.535 1.26 2.913 2.19 6.345 2.96 1.45.26 2.59.88 4.11 1.09zm-11.863-3.277c-.793-.447-1.26-1.26-1.51-2.09-1.597-1.005-2.65-2.248-4.91-3.87.053.646.225 1.388.557 2.045 2.212 2.043 1.836 2.567 5.863 3.915z"/><path fill="#FFF" d="M75.376 99.292c-.542-.313-.93-.8-1.208-1.35-.388-.358-.848-.758-1.436-1.225-2.708-2.155-4.654-4.203-5.73-4.802-.226 0-.21.472-.058 1.17.328.28.668.568 1.023.857 3.99 3.244 2.6 3.7 7.41 5.35zm-4.296 23.152c.034.024.07.045.105.067.047-.01.094-.03.14-.05-.084 0-.163-.01-.244-.01zm29.6-2.547c-2.273-2.11-2.117-5.27-.85-7.88 1.922-5.1.03-6.002-3.676-6.448.236.96.048 2.33-.675 4.29-1.29 2.72-1.45 6.01.86 8.2 3.18 3.33 1.61 7.97.28 13.41-.48 1.73-.9 3.23-1.3 4.56l-5.07 4.01c.98-.12 1.94-.25 2.85-.14-.74 1.11-2.83 1.37-2.29 3.85.01.06.04.12.06.18l8.78-6.79c.4-1.28.81-2.73 1.28-4.39 1.3-5.23 2.85-9.69-.28-12.89zm-22.387-21.3c.03.368.106.77.227 1.17.775.49 1.678.922 2.915 1.31-.866-.71-1.78-1.526-3.142-2.48zm10.372 40.313c-1.19-.138-2.48.11-3.758.25.724.618 1.513.91 2.338 1.018.51-.43 1.095-.767 1.42-1.268zm-14.018-11.022c-.678.16-1.867.326-3.112.4.046.19.107.388.198.597.125.332.562.55 1.168.685.67-.708 1.39-1.3 1.75-1.682zm1.828 6.65c.165.29.406.582.75.865.467.34 1.315.447 2.31.428.25-.75.786-1.49 1.05-2.02-1.05.23-2.613.56-4.11.73z"/><path fill="#FFF" d="M96.627 131.48c1.322-5.44 2.897-10.078-.287-13.41-2.308-2.197-2.148-5.485-.86-8.205.722-1.966.91-3.332.675-4.297-1.242-.15-2.687-.248-4.26-.435-1.52-.206-2.664-.826-4.114-1.093-3.43-.766-4.81-1.698-6.34-2.96-1.23-.39-2.14-.824-2.91-1.314.25.83.72 1.644 1.51 2.09-4.02-1.347-3.65-1.872-5.86-3.914.28.548.67 1.037 1.21 1.35-4.8-1.65-3.42-2.107-7.41-5.35-.35-.29-.69-.577-1.02-.86.32 1.465 1.24 3.93 1.77 5.14-.83-.24-1.99-2.785-2.4-1.828-.28 1.717 1.34 3.355 2.66 5.85-.63-.083-2.78-2.887-2.75-1.78.27 1.93.69 4.99 4.77 8.24-2.42-.71-4.04-4.01-4.47-2.677-.07 2.912 2.51 6.113 4.37 7.215-2.14-.07-3.54-1.34-3.45-.042.87 4.054 2.78 4.093 6.78 5.625-2.21.678-5.2-1.422-5.25.326-.08 1.11.79 2.34 2.14 3.3.08.01.16.02.24.02l-.13.05c1.32.91 3.07 1.56 4.86 1.61-2.14.77-5.1 1.7-4.5 4.17 1.25-.07 2.44-.24 3.11-.4-.37.39-1.09.98-1.75 1.69 1.8.4 5.09.07 6.41-.24-.9.93-4.03 3.1-2.84 5.21 1.5-.17 3.06-.5 4.11-.72-.26.52-.79 1.27-1.05 2.02 1.85-.03 4.21-.51 5.63-.81-.5.96-1.98 2.69-.6 3.82.12.12.23.22.35.32 1.28-.14 2.57-.39 3.76-.25-.32.5-.91.84-1.42 1.27.98.13 2 .01 3.02-.12l5.06-4.01c.41-1.32.83-2.83 1.3-4.56z"/><path fill="#D0D2D3" d="M94.112 105.57s-8.57 9.374-4.778 33.953c3.794 24.58 8.872-28.57 8.872-28.57l-4.094-5.384z"/><path fill="#FAAF40" d="M113.192 45.936l2.824 21.726h1.374l-3.23-23.126"/><path fill="#FFCC7A" d="M112.05 45.936l2.824 21.726h1.374l-3.23-23.126"/><path fill="#D0D2D3" d="M183.446 80.78s8.664-15.757-7.42-10.285c-16.084 5.474 7.42 10.285 7.42 10.285z"/><path fill="#919496" d="M180.413 76.433s7.71-7.782 2.166 2.637c-5.55 10.417-2.17-2.637-2.17-2.637zm-72.376-2.943l-4.513 9.875s-13.876-17.263 4.513-9.874z"/><path fill="#FFF" d="M99.24 88.46c2.934-17.318 21.194-30.66 43.296-30.66 24.147 0 43.723 15.92 43.723 35.555 0 19.636-19.58 35.555-43.73 35.555-.91 0-1.81-.03-2.7-.075-.97 4.22-1.78 10.766 1.14 14.73 0 0 20.05 14.994 9.82 29.24.01-.104 2.63-24.966-16.51-29.39l3.47-15.66s-7.23-1.698-15.68-5.432v19.616s20.19 23.57 8.75 39.54c-20-.61-60.24-11.31-31.62-93.02z"/><path fill="#D0D2D3" d="M122.1 141.94v-19.617c8.446 3.734 15.676 5.432 15.676 5.432l-3.472 15.66c19.136 4.424 16.518 29.286 16.504 29.39-1.996 2.78-3 3.723-7.68 6.33 0 0-6.31 2.524-12.272 2.344 11.435-15.97-8.756-39.54-8.756-39.54z"/><ellipse fill="#D0D2D3" cx="146.89" cy="97.092" rx="37.154" ry="28.187"/><path fill="#404041" d="M89.585 129.846l8.92-1.494 1.08 6.863-10.287 2.672s-.086-6.88.287-8.04z"/><path fill="#6C6F71" d="M153.317 107.583s.54 3.668 0 4.576l.387.09s1.194-5.05-.387-4.67z"/><path fill="#D0D2D3" d="M112.144 71.47s.425 3.65-2.973 4.16c0 0-16.63-5.434-4.49 9.168 0 0 1.36 2.207-1.44 4.16 0 0-11.2-9.594-7.64-16.894 0 0 2.72-7.98 16.56-.595z"/><ellipse fill="#FFF" cx="165.863" cy="90.761" rx="14.522" ry="14.316"/><ellipse fill="#FFF" cx="132.089" cy="90.282" rx="17.929" ry="17.009"/><path fill="#1D8FCD" d="M158.124 105.812s-3.23-6.574-4.42-3.103c0 0-2.67-3.91-2.67 2.36 0 0 2.528 1.72 2.67 3.81 0 0 2.616-1.05 4.42-3.08z"/><path fill="#FFF" d="M153.704 107.29s-.165-.887-1.414-1.773c0 0 .462-1.7 1.414 1.774z"/><path fill="#D0D2D3" d="M120.878 169.706s-16.85-14.745-12.84-44.144c0 0 2.25 36.244 12.84 44.144zm-22.342-41.354s6.144 37.11 9.9 41.354c3.753 4.243.685 2.67.685 2.67l-4.38.612s-8.22-32.092-6.19-44.636z"/><path fill="#6C6F71" d="M147.397 109.907s-1.282 9.545 6.307 2.344c0 0 4.876 4.25 4.876-1.29l.96-.14-1.617-1.7s1.477 6.7-4.22 2.4c0 0-7.736 7.06-4.922-3.04l-3.04 1.44h1.66z"/><path fill="#919496" d="M156.152 116.98s-1.19 2.318-6.135 2.564c0 0 4.906 2.505 6.135-2.563z"/><path fill="#F6921E" d="M147.424 40.265c-20.58-2.32-37.73-.055-38.307 5.056-.577 5.11 15.64 11.14 36.22 13.46 20.582 2.32 37.732.06 38.31-5.05.576-5.11-15.642-11.13-36.223-13.45zm-2.382 14.303c-15.78-1.78-28.253-6.054-27.86-9.55.395-3.498 13.507-4.892 29.287-3.112 15.78 1.78 28.25 6.055 27.86 9.55s-13.51 4.89-29.29 3.112z"/><path fill="#F6921E" d="M109.103 43.136v2.8h1.26l.737-1.97m72.56 7.032v2.608l-.49.207-1.847-1.87m-63.09-12.04l1.373 1.23s37.536-2.773 54.212 6.43c0 0-14.602-14.8-55.586-7.66z"/><path fill="#F2C652" d="M146.468 39.443c15.78 1.78 28.255 6.055 27.86 9.552-.143 1.276-1.986 2.27-5.028 2.934l7.56 3.74c4.088-1.03 6.574-2.53 6.787-4.42.576-5.11-15.642-11.14-36.223-13.46-2.753-.31-5.44-.54-8.04-.69l4.087 2.02c.99.08 1.99.19 3 .3zm-1.426 12.662c-15.78-1.78-28.253-6.054-27.86-9.55.268-2.368 6.362-3.768 15.163-3.877l-1.764-1.776c-12.34.15-21.05 2.34-21.46 5.956-.57 5.11 15.64 11.133 36.22 13.453 1.7.2 3.36.35 5 .48l-4.57-4.6-.71-.07z"/><path fill="#FFF692" d="M143.47 39.14l-4.087-2.024c-3.082-.178-6.032-.247-8.802-.213l1.77 1.776c3.37-.05 7.14.1 11.13.46zm33.39 16.53l-7.56-3.742c-5.17 1.127-13.812 1.297-23.542.254l4.576 4.606c10.917.864 20.478.398 26.525-1.117z"/><path fill="#404041" d="M118.232 63.8s37.836 9.035 54.156 3.586c0 0 3.16 2.493 4.593 4.07 0 0-12.36 7.503-65.59-3.04.01 0 3.76-3.082 6.85-4.615zm-10.18 61.993l-13.86-21.132 2.97-10.03 14.83 30.79-3.47 5.6"/><path fill="#FFE8BA" d="M117.39 64.27s7.072 2.595 24.24 5.07l-26.34-3.787s1.26-.812 2.1-1.282zm55.805 3.767s-2.766.952-3.966 1.304l4.79-.65-.83-.65zm1.55 1.303l-4.347 1.09 4.965-.544m-80.75 33.354l10.332 16.4-9.818-18.132m8.397 12.518l5.58 10.74-1.05 1.027.115 1.31 1.56-1.825m-20.24 5.74l6.89-.763-6.95 1.74"/><ellipse fill="#F291BC" cx="131.294" cy="111.823" rx="5.348" ry="2.637"/><ellipse fill="#F291BC" cx="168.082" cy="110.907" rx="4.158" ry="2.051"/><path d="M97.344 189.124c-.41-.23-.757-4.264-1.216-6.702-.458-2.438-1.05-5.48-1.775-9.123-.23-1.15-.434-2.11-.615-2.87s-.624-1.94-.55-2.08c.062-.12.886-.25 1.358-.34.47-.09.958-.17 1.457-.23l.597-.07c.114.58.238 1.23.37 1.93.13.7.32 1.75.57 3.13.298 1.66.516 2.9.654 3.71s.263 1.57.37 2.26c.59-.11.883-.16 1.47-.26-.017-.1-.025-.15-.04-.26-.232-1.54-.405-2.65-.52-3.33-.24-1.41-.483-2.71-.733-3.93-.25-1.22-.5-2.32-.75-3.3 1.42-.25 2.13-.37 3.55-.58.37 2.86.69 5.32.96 7.36.28 2.04.53 3.8.76 5.29.2 1.31.41 2.62.62 3.93.22 1.31.81 3.76.67 3.94-.05.06-.7.04-1.16.09-.46.05-1.74.37-1.89.26-.16-.12-.21-1.48-.33-2.33s-.3-2.07-.53-3.67c-.56.14-.84.21-1.39.36.14 1.01.28 1.93.41 2.75.13.82.26 1.59.39 2.29l.16.95c-.12.01-.26.04-.42.07l-.68.16c-.33.08-.63.16-.92.25-.28.09-.76.3-.8.28zm14.346-6.924c.007 0 .043.3.095.59.052.29.084.504.097.636.03.287.047.586.054.892.007.305.078.775-.012 1.02-.117.32-.64.697-1.017.924-.377.228-.796.378-1.262.456-1.098.178-2.03-.22-2.822-1.236-.79-1.015-1.337-2.525-1.618-4.523-.295-2.1-.153-3.93.458-5.46s1.475-2.33 2.556-2.41c.91-.08 1.71.49 2.36 1.69.65 1.19 1.87 4.43 1.44 5.29-.12.23-1.09.57-1.66.84-.57.27-1.71.62-1.79.79-.08.15.35.87.62 1.1.27.23.59.31.98.26.32-.04.6-.14.84-.28.24-.15.65-.6.65-.6zm-3.707-2.754c.05.03.45-.156.665-.25.213-.094.578-.22.622-.305.16-.31-.223-1.37-.377-1.74s-.343-.55-.564-.52c-.21.03-.37.2-.47.52-.1.33-.12.75-.06 1.26 0 .06.03.2.07.44.04.24.08.6.1.62zm9.94 4.59c-.474.658-.876 1.124-1.213 1.397-.337.27-.69.432-1.06.475-.623.072-1.156-.176-1.607-.746-.452-.57-.728-1.366-.82-2.386-.128-1.426.118-2.615.756-3.548.63-.93 2.73-1.508 2.82-1.664.05-.084-.37-.726-.67-.947-.3-.22-.64-.322-1.03-.3-.16.01-.3.037-.42.084-.12.05-.32.2-.32.2-.02-.01.1-.81.11-1.29.01-.47-.01-.99-.05-1.56l-.03-.36c.17-.16.36-.28.55-.36.19-.08.42-.12.68-.13 1.36-.04 2.49.74 3.35 2.29.86 1.56 1.38 3.76 1.59 6.63l.2 2.81c-.48.09-.95.23-1.41.41-.46.2-.91.44-1.34.74l-.15-1.72zm-.154-1.646c.11-.268-.08-1.008-.16-1.523-.08-.515-.18-1.036-.29-1.565-.01 0-.02 0-.03.003-.31.017-.55.206-.73.57s-.25.818-.22 1.356c.03.43.13.77.31 1.03s.39.37.65.35c.07 0 .14-.02.22-.06.08-.04.2-.1.23-.15zm5.81-9.408c.47 2.58.69 3.862 1.12 6.416.45-2.618.68-3.915 1.17-6.488.39.128.74.226 1.05.296.31.07.58.11.78.12.08.006.19.008.3 0l.36-.022c-.84 3.19-1.23 4.81-1.99 8.093-.11.477-.22 1.007-.32 1.59-.11.582-.21 1.238-.32 1.967-1.02.02-1.52.032-2.54.07-.26-1.95-.58-3.904-.96-5.868-.38-1.964-1.5-5.66-1.31-5.924.07-.098.96-.08 1.38-.118.42-.04.83-.082 1.23-.132zm11.4 8.498v.52c.01.256.01.44 0 .556-.02.25-.04.503-.08.764-.04.26-.05.684-.16.866-.17.258-.74.492-1.14.63-.41.135-.85.2-1.32.195-1.11-.01-1.97-.49-2.6-1.47-.63-.98-.94-2.36-.91-4.11.02-1.84.44-3.37 1.27-4.58s1.79-1.75 2.86-1.65c.91.08 1.6.7 2.06 1.82.46 1.12 1.09 4.12.63 4.72-.15.19-1.15.32-1.75.46-.6.15-1.78.27-1.88.4-.08.12.21.8.44 1.04s.54.36.93.38c.32.01.61-.02.87-.11.26-.08.73-.4.73-.4zm-3.24-2.916c.04.04.46-.064.69-.11.22-.045.6-.095.65-.162.17-.23-.02-1.2-.11-1.543-.1-.35-.26-.53-.48-.54-.21-.02-.39.11-.53.37-.15.26-.23.62-.25 1.06v.38c0 .2-.01.52.01.53zm4.95 6.434c.22-2.073.39-3.588.49-4.554.1-.965.17-1.79.22-2.477.04-.546.08-1.134.11-1.766.03-.63-.04-1.87.09-2 .08-.08.77-.05 1.24-.11.46-.06.99-.16 1.59-.28l-.29 1.9c.33-.5.64-.85.94-1.06.29-.2.58-.29.87-.24.75.12 1.33 1.03 1.73 2.7.4 1.67.44 3.65.15 5.97-.05.38-.11.76-.18 1.14-.07.38-.13 1-.25 1.11-.14.13-.85.13-1.28.18-.44.04-.88.07-1.34.09.02-.27.03-.41.06-.67l.11-1.06c.21-2.06.28-3.51.21-4.35-.07-.84-.29-1.28-.67-1.33-.07-.01-.13-.01-.19 0s-.16.03-.18.06c-.35.5-.29 2.25-.42 3.39s-.1 3.16-.36 3.4c-.1.1-.76.04-1.14.05-.38 0-.77 0-1.16-.02-.16-.01-.24-.01-.4-.02zm8.93-3.566c-.03-.035-.01-.25-.01-.393.01-.14.02-.29.04-.45.02-.2.07-.41.13-.64.05-.23.15-.75.23-.8.15-.09 1.07.21 1.66.32l1.9.35c.71.13 1.07.2 1.78.34-.06.16-.12.33-.17.52s-.1.4-.14.63c-.05.25-.08.44-.09.58-.02.13-.02.35-.03.36-.07.05-.66-.09-1.01-.15s-.87-.15-1.55-.26c-.74-.12-1.3-.21-1.69-.27-.38-.06-1.02-.1-1.1-.19zm6.21 5.293c.06-.482.1-.987.1-1.51 0-.522-.04-1.07-.12-1.643.08.015.12.02.19.035.78.144 1.44.085 1.98-.172.54-.26.87-.667.99-1.24.06-.308.05-.64-.04-1.002-.09-.358-.33-.918-.72-1.68-.5-.978-.82-1.77-.96-2.366-.13-.595-.15-1.184-.05-1.766.21-1.16.83-1.98 1.87-2.41 1.03-.43 2.33-.4 3.85.07l.42.14c.11.45.19.91.25 1.39s.13 1.52.13 1.52c-.02.01-.29-.15-.44-.22-.14-.06-.28-.11-.42-.15-.63-.18-1.18-.2-1.65-.06-.47.15-.74.42-.82.82-.05.23-.02.51.07.83.1.32.34.87.72 1.61.58 1.14.93 2.01 1.04 2.61.1.6.09 1.2-.06 1.81-.31 1.36-1.04 2.32-2.16 2.92-1.12.61-2.47.79-4.07.53l-.15-.02zm13.47-.085c0 .006-.05.2-.08.4-.04.196-.07.34-.1.428-.06.188-.13.378-.21.57s-.18.52-.31.63c-.2.17-.8.21-1.23.22-.42.01-.86-.04-1.33-.15-1.09-.263-1.85-.83-2.29-1.737-.45-.9-.51-2.04-.18-3.39.35-1.42 1.02-2.53 2.04-3.27 1.02-.74 2.05-.93 3.07-.59.87.29 1.44.93 1.7 1.91s.25 3.47-.18 3.79c-.17.14-1.18-.03-1.79-.06-.61-.03-1.8-.22-1.9-.13-.08.07.07.67.26.9.18.24.46.41.84.51.31.09.6.13.87.13s.79-.13.79-.13zm-2.67-3.02c.04.052.46.06.69.078.23.02.61.075.67.027.17-.128.19-.93.16-1.22-.03-.286-.16-.463-.37-.527-.2-.06-.39-.01-.58.16-.19.168-.33.423-.42.762-.01.036-.03.138-.07.302-.04.164-.1.398-.09.418zm3.75 6.13l1.25-3.38c.26-.717.47-1.333.64-1.85.13-.407.26-.85.4-1.327s.31-1.446.43-1.518c.09-.057.76.157 1.22.225.46.066.99.13 1.59.192l-.6 1.375c.4-.297.77-.487 1.08-.57.31-.085.61-.07.88.038.71.284 1.12 1.13 1.24 2.505.11 1.375-.17 2.89-.82 4.58-.11.278-.23.55-.36.816-.14.267-.31.725-.42.78-.17.088-.85-.107-1.28-.182-.43-.074-.87-.16-1.33-.26l.17-.494.28-.786c.54-1.52.85-2.607.92-3.27.07-.66-.08-1.058-.43-1.186-.07-.022-.14-.04-.19-.048-.06-.01-.16-.02-.19-.003-.35.27-.66 1.65-.97 2.485-.31.837-.68 2.38-.92 2.515-.11.066-.74-.15-1.12-.238-.38-.09-.75-.19-1.14-.3-.16-.04-.24-.07-.39-.11zm15.7-5.334c-.23.382-.47.805-.7 1.266-.24.464-.48.975-.73 1.536l-.13.32c-.08.183-.22.45-.2.482.02.052.38.15.6.223.22.075.68.175.7.217.05.114-.33.818-.43 1.104-.1.288-.16.682-.2.713-.04.03-.34-.052-.57-.11-.22-.06-.8-.31-.9-.262-.27.12-.64 1.465-.87 2.045s-.5 1.527-.61 1.582c-.03.017-.29-.106-.52-.2-.23-.093-.41-.16-.52-.202-.31-.113-.77-.27-1.39-.47l-.06-.02c.55-1.508.83-2.264 1.38-3.78-.18-.075-.37-.174-.58-.29-.21-.118-.41-.243-.62-.38l.81-1.652c.38.15.58.222.96.373.17-.56.35-1.1.53-1.62.18-.52.37-1 .55-1.46l.19-.45c1.31.4 1.97.61 3.27 1.06z" fill="#9A7128"/><path fill="#D6EFFB" d="M105.21 102.097c.028-.463-.105-.846-.364-1.185 3.588-4.743.118-5.254-4.58-7.383-1.143-.54-1.885-1.33-2.956-1.9-3.915-2.29-3.78-3.67-6.078-6.72-.213.93-.213 2.23.543 3.05-3.32-2.44-2.136-2.46-4.435-5.94-1.583-2.4-2.596-4.53-3.29-5.28-.554-.18-.417 3.87-.248 5.5-.597-.4-.858-2.73-1.43-2.07-.654 1.31.204 3.03.613 5.36-.475-.22-1.454-3.01-1.715-2.11-.276 1.62-.72 4.18 1.663 7.81-1.72-1.17-2.162-4.23-2.84-3.26-.79 2.33.423 5.54 1.61 6.89-1.66-.59-2.445-1.96-2.705-.89-.262 2.65.544 3.57 2.16 4.84-.025.29-.036.56-.028.81-1.167-.62-2.11-1.43-2.435-.49-.492 1.24.468 3.14 2.11 4.49-.05.42.05.9.267 1.4-1.5.2-2.82.77-2.643 2.63.03.62 1.25 1.18 2.61 1.58-.29.34-.44.81-.38 1.46.01.29.33.56.78.8-.73.67-1.11 1.56-.36 2.75.26.36.85.65 1.59.87-.08.4 0 .86.33 1.38.37.51 1.44.84 2.61 1.07.03.14.08.28.15.43-.03.26.02.54.2.82.3.64.72 1.09 1.19 1.41.03.09.07.19.14.29.65 1.35 1.83 1.74 3.06 1.98.04.07.09.13.14.19-.43.29-.78.75-.86 1.63v.17l2.08-.8c.64.29 1.36.43 2.08.56.69.13 1.37.25 1.97.51-.74.6-2.22.33-2.39 2.14 0 .05.01.1.01.14l7.43-2.74c.54-.79 1.13-1.68 1.81-2.71 2-3.28 4.01-5.98 2.56-8.83-1.1-1.92-.32-4.04 1.1-5.54 2.4-3.06 1.3-4.08-1.13-5.17z"/><path fill="#FFF" d="M56.64 97.24c.5-1.578 2.373 2.325 5.166 3.17-4.705-3.85-5.19-7.47-5.5-9.752-.025-1.31 2.45 2.007 3.18 2.106-1.527-2.952-3.394-4.89-3.07-6.92.483-1.134 1.812 1.88 2.776 2.16-.91-2.11-2.79-7.466-1.974-7.462 1.24.71 3.486 3.132 6.612 5.682 4.536 3.688 2.958 4.206 8.424 6.082-1.356-.782-1.898-2.514-2.006-3.858 4.357 3.127 4.755 5.024 10.95 6.44 1.672.316 2.994 1.052 4.747 1.295 7.236.885 12.12.087 9.16 8.143-1.463 3.09-1.645 6.828.98 9.326 3.62 3.788 1.828 9.058.325 15.244-.54 1.968-1.02 3.68-1.477 5.19l-10.14 8.036c-.024-.076-.058-.14-.077-.22-.623-2.937 1.792-3.245 2.644-4.562-3.213-.37-7.066 1.74-9.882-1.277-1.586-1.335.123-3.383.697-4.52-2.52.546-7.625 1.597-9.158.454-3.29-2.785 1.223-5.94 2.408-7.188-2.043.48-8.172 1.02-8.75-.53-1.46-3.48 2.313-4.66 4.97-5.64-4.263-.12-8.384-3.28-8.19-5.88.06-2.07 3.51.41 6.057-.39-4.615-1.82-6.82-1.86-7.82-6.66-.098-1.54 1.525-.04 3.993.05-2.153-1.31-5.123-5.09-5.044-8.54z"/><path fill="#B2E2F9" d="M85.16 135.02c-1.418.3-3.78.778-5.627.813-.23.69-.227 1.395.44 1.954 1.433 1.537 3.174 1.56 4.933 1.373-.118-.1-.235-.202-.35-.322-1.373-1.126.108-2.858.605-3.817zm-5.847-5.69c-1.323.303-4.62.637-6.412.24-1.23 1.317-2.25 3.046-.37 4.64.71.528 2.29.52 3.95.328-1.19-2.11 1.94-4.282 2.84-5.207zM68.94 119.152c.05-1.748 3.04.35 5.248-.327-3.998-1.53-5.908-1.57-6.775-5.625-.085-1.297 1.32-.028 3.458.042-1.86-1.1-4.43-4.302-4.37-7.215.44-1.333 2.06 1.966 4.48 2.68-4.07-3.254-4.5-6.314-4.76-8.244-.02-1.106 2.13 1.698 2.76 1.782-1.32-2.494-2.94-4.134-2.66-5.85.42-.958 1.57 1.588 2.41 1.826-.53-1.2-1.45-3.67-1.77-5.13-2.22-1.91-3.84-3.59-4.79-4.14-.72 0 .94 4.71 1.74 6.57-.85-.24-2.02-2.89-2.44-1.9-.29 1.79 1.36 3.49 2.7 6.09-.64-.08-2.82-3-2.79-1.85.27 2.01.7 5.2 4.84 8.58-2.45-.74-4.1-4.17-4.54-2.79-.07 3.03 2.55 6.37 4.44 7.51-2.17-.07-3.6-1.39-3.51-.04.88 4.22 2.82 4.26 6.88 5.86-2.24.71-5.27-1.48-5.32.34-.17 2.24 3.3 4.94 6.96 5.15-1.35-.95-2.22-2.18-2.14-3.29zm7.098 4.964c-1.783-.05-3.535-.7-4.854-1.604-2.328.853-5.496 1.917-4.234 4.912.317.852 2.527.985 4.584.864-.602-2.478 2.364-3.402 4.504-4.172zm15.855-18.982c1.574.188 3.02.286 4.26.435-.62-2.52-4.135-2.31-8.733-2.87-1.542-.22-2.704-.86-4.176-1.14-.677-.16-1.274-.32-1.81-.49 1.535 1.26 2.913 2.19 6.345 2.96 1.45.26 2.59.88 4.11 1.09zm-11.863-3.277c-.793-.447-1.26-1.26-1.51-2.09-1.597-1.005-2.65-2.248-4.91-3.87.053.646.225 1.388.557 2.045 2.212 2.043 1.836 2.567 5.863 3.915z"/><path fill="#FFF" d="M75.376 99.292c-.542-.313-.93-.8-1.208-1.35-.388-.358-.848-.758-1.436-1.225-2.708-2.155-4.654-4.203-5.73-4.802-.226 0-.21.472-.058 1.17.328.28.668.568 1.023.857 3.99 3.244 2.6 3.7 7.41 5.35zm-4.296 23.152c.034.024.07.045.105.067.047-.01.094-.03.14-.05-.084 0-.163-.01-.244-.01zm29.6-2.547c-2.273-2.11-2.117-5.27-.85-7.88 1.922-5.1.03-6.002-3.676-6.448.236.96.048 2.33-.675 4.29-1.29 2.72-1.45 6.01.86 8.2 3.18 3.33 1.61 7.97.28 13.41-.48 1.73-.9 3.23-1.3 4.56l-5.07 4.01c.98-.12 1.94-.25 2.85-.14-.74 1.11-2.83 1.37-2.29 3.85.01.06.04.12.06.18l8.78-6.79c.4-1.28.81-2.73 1.28-4.39 1.3-5.23 2.85-9.69-.28-12.89zm-22.387-21.3c.03.368.106.77.227 1.17.775.49 1.678.922 2.915 1.31-.866-.71-1.78-1.526-3.142-2.48zm10.372 40.313c-1.19-.138-2.48.11-3.758.25.724.618 1.513.91 2.338 1.018.51-.43 1.095-.767 1.42-1.268zm-14.018-11.022c-.678.16-1.867.326-3.112.4.046.19.107.388.198.597.125.332.562.55 1.168.685.67-.708 1.39-1.3 1.75-1.682zm1.828 6.65c.165.29.406.582.75.865.467.34 1.315.447 2.31.428.25-.75.786-1.49 1.05-2.02-1.05.23-2.613.56-4.11.73z"/><path fill="#FFF" d="M96.627 131.48c1.322-5.44 2.897-10.078-.287-13.41-2.308-2.197-2.148-5.485-.86-8.205.722-1.966.91-3.332.675-4.297-1.242-.15-2.687-.248-4.26-.435-1.52-.206-2.664-.826-4.114-1.093-3.43-.766-4.81-1.698-6.34-2.96-1.23-.39-2.14-.824-2.91-1.314.25.83.72 1.644 1.51 2.09-4.02-1.347-3.65-1.872-5.86-3.914.28.548.67 1.037 1.21 1.35-4.8-1.65-3.42-2.107-7.41-5.35-.35-.29-.69-.577-1.02-.86.32 1.465 1.24 3.93 1.77 5.14-.83-.24-1.99-2.785-2.4-1.828-.28 1.717 1.34 3.355 2.66 5.85-.63-.083-2.78-2.887-2.75-1.78.27 1.93.69 4.99 4.77 8.24-2.42-.71-4.04-4.01-4.47-2.677-.07 2.912 2.51 6.113 4.37 7.215-2.14-.07-3.54-1.34-3.45-.042.87 4.054 2.78 4.093 6.78 5.625-2.21.678-5.2-1.422-5.25.326-.08 1.11.79 2.34 2.14 3.3.08.01.16.02.24.02l-.13.05c1.32.91 3.07 1.56 4.86 1.61-2.14.77-5.1 1.7-4.5 4.17 1.25-.07 2.44-.24 3.11-.4-.37.39-1.09.98-1.75 1.69 1.8.4 5.09.07 6.41-.24-.9.93-4.03 3.1-2.84 5.21 1.5-.17 3.06-.5 4.11-.72-.26.52-.79 1.27-1.05 2.02 1.85-.03 4.21-.51 5.63-.81-.5.96-1.98 2.69-.6 3.82.12.12.23.22.35.32 1.28-.14 2.57-.39 3.76-.25-.32.5-.91.84-1.42 1.27.98.13 2 .01 3.02-.12l5.06-4.01c.41-1.32.83-2.83 1.3-4.56z"/><path fill="#D0D2D3" d="M94.112 105.57s-8.57 9.374-4.778 33.953c3.794 24.58 8.872-28.57 8.872-28.57l-4.094-5.384z"/><path fill="#FAAF40" d="M113.192 45.936l2.824 21.726h1.374l-3.23-23.126"/><path fill="#FFCC7A" d="M112.05 45.936l2.824 21.726h1.374l-3.23-23.126"/><path fill="#D0D2D3" d="M183.446 80.78s8.664-15.757-7.42-10.285c-16.084 5.474 7.42 10.285 7.42 10.285z"/><path fill="#919496" d="M180.413 76.433s7.71-7.782 2.166 2.637c-5.55 10.417-2.17-2.637-2.17-2.637z"/><path fill="#FFF" d="M99.24 88.46c2.934-17.318 21.194-30.66 43.296-30.66 24.147 0 43.723 15.92 43.723 35.555 0 19.636-19.58 35.555-43.73 35.555-.91 0-1.81-.03-2.7-.075-.97 4.22-1.78 10.766 1.14 14.73 0 0 20.05 14.994 9.82 29.24.01-.104 2.63-24.966-16.51-29.39l3.47-15.66s-7.23-1.698-15.68-5.432v19.616s20.19 23.57 8.75 39.54c-20-.61-60.24-11.31-31.62-93.02z"/><path fill="#D0D2D3" d="M122.1 141.94v-19.617c8.446 3.734 15.676 5.432 15.676 5.432l-3.472 15.66c19.136 4.424 16.518 29.286 16.504 29.39-1.996 2.78-3 3.723-7.68 6.33 0 0-6.31 2.524-12.272 2.344 11.435-15.97-8.756-39.54-8.756-39.54z"/><ellipse fill="#D0D2D3" cx="146.89" cy="97.092" rx="37.154" ry="28.187"/><path fill="#404041" d="M89.585 129.846l8.92-1.494 1.08 6.863-10.287 2.672s-.086-6.88.287-8.04z"/><path fill="#6C6F71" d="M153.317 107.583s.54 3.668 0 4.576l.387.09s1.194-5.05-.387-4.67z"/><path fill="#D0D2D3" d="M112.144 71.47s.425 3.65-2.973 4.16c0 0-16.63-5.434-4.49 9.168 0 0 1.36 2.207-1.44 4.16 0 0-11.2-9.594-7.64-16.894 0 0 2.72-7.98 16.56-.595z"/><ellipse fill="#FFF" cx="165.863" cy="90.761" rx="14.522" ry="14.316"/><ellipse fill="#FFF" cx="132.089" cy="90.282" rx="17.929" ry="17.009"/><path fill="#1D8FCD" d="M158.124 105.812s-3.23-6.574-4.42-3.103c0 0-2.67-3.91-2.67 2.36 0 0 2.528 1.72 2.67 3.81 0 0 2.616-1.05 4.42-3.08z"/><path fill="#FFF" d="M153.704 107.29s-.165-.887-1.414-1.773c0 0 .462-1.7 1.414 1.774z"/><path fill="#F6921E" d="M173.895 200.394s5.005 6.594 15.364 2.96l5.11-12.61s-2.42 1.323-9.02-2.316l-11.46 11.966z"/><path fill="#D0D2D3" d="M120.878 169.706s-16.85-14.745-12.84-44.144c0 0 2.25 36.244 12.84 44.144z"/><path fill="#E8AD28" d="M184.173 201.47s-2.1 1.884-10.278-1.076l1.15-4.708 6.335-.673 2.793 6.457z"/><path fill="#D0D2D3" d="M98.536 128.352s6.144 37.11 9.9 41.354c3.753 4.243.685 2.67.685 2.67l-4.38.612s-8.22-32.092-6.19-44.636z"/><path fill="#6C6F71" d="M147.397 109.907s-1.282 9.545 6.307 2.344c0 0 4.876 4.25 4.876-1.29l.96-.14-1.617-1.7s1.477 6.7-4.22 2.4c0 0-7.736 7.06-4.922-3.04l-3.04 1.44h1.66z"/><path fill="#919496" d="M156.152 116.98s-1.19 2.318-6.135 2.564c0 0 4.906 2.505 6.135-2.563z"/><path fill="#F6921E" d="M147.424 40.265c-20.58-2.32-37.73-.055-38.307 5.056-.577 5.11 15.64 11.14 36.22 13.46 20.582 2.32 37.732.06 38.31-5.05.576-5.11-15.642-11.13-36.223-13.45zm-2.382 14.303c-15.78-1.78-28.253-6.054-27.86-9.55.395-3.498 13.507-4.892 29.287-3.112 15.78 1.78 28.25 6.055 27.86 9.55s-13.51 4.89-29.29 3.112z"/><path fill="#F6921E" d="M109.103 43.136v2.8h1.26l.737-1.97m72.56 7.032v2.608l-.49.207-1.847-1.87m-63.09-12.04l1.373 1.23s37.536-2.773 54.212 6.43c0 0-14.602-14.8-55.586-7.66z"/><path fill="#F2C652" d="M146.468 39.443c15.78 1.78 28.255 6.055 27.86 9.552-.143 1.276-1.986 2.27-5.028 2.934l7.56 3.74c4.088-1.03 6.574-2.53 6.787-4.42.576-5.11-15.642-11.14-36.223-13.46-2.753-.31-5.44-.54-8.04-.69l4.087 2.02c.99.08 1.99.19 3 .3zm-1.426 12.662c-15.78-1.78-28.253-6.054-27.86-9.55.268-2.368 6.362-3.768 15.163-3.877l-1.764-1.776c-12.34.15-21.05 2.34-21.46 5.956-.57 5.11 15.64 11.133 36.22 13.453 1.7.2 3.36.35 5 .48l-4.57-4.6-.71-.07z"/><path fill="#FFF692" d="M143.47 39.14l-4.087-2.024c-3.082-.178-6.032-.247-8.802-.213l1.77 1.776c3.37-.05 7.14.1 11.13.46zm33.39 16.53l-7.56-3.742c-5.17 1.127-13.812 1.297-23.542.254l4.576 4.606c10.917.864 20.478.398 26.525-1.117z"/><path fill="#404041" d="M118.232 63.8s37.836 9.035 54.156 3.586c0 0 3.16 2.493 4.593 4.07 0 0-12.36 7.503-65.59-3.04.01 0 3.76-3.082 6.85-4.615z"/><path fill="#F6921E" d="M101.27 204.43s-9.254 12.512-30.19 12.648l-12.055-39.69s9.26-10.392 30.268-7.682l11.977 34.724z"/><path fill="#C16B16" d="M78.533 210.62s8.072 2.084 14.363-3.062l-2.22-5.55-12.143 3.87-.302 1.915.31 2.827z"/><path fill="#E8AD28" d="M91.045 169.255c-13.363-2.438-22.064 4.548-22.064 4.548l9.56 36.817c6.33-10.764 22.74-6.19 22.74-6.19"/><path fill="#F9D073" d="M96.154 201.47s35.04-27.914 88.02 0l5.757-13.023s-23.99-34.746-107.65-21.32l13.88 34.343z"/><path fill="#404041" d="M108.053 125.793l-13.86-21.132 2.97-10.03 14.83 30.79-3.472 5.6"/><path fill="#FFE8BA" d="M117.39 64.27s7.072 2.595 24.24 5.07l-26.34-3.787s1.26-.812 2.1-1.282zm55.805 3.767s-2.766.952-3.966 1.304l4.79-.65-.83-.65zm1.55 1.303l-4.347 1.09 4.965-.544m-80.75 33.354l10.332 16.4-9.818-18.132m8.397 12.518l5.58 10.74-1.05 1.027.115 1.31 1.56-1.825m-20.23 5.74l6.89-.763-6.95 1.74"/><ellipse fill="#F291BC" cx="131.294" cy="111.823" rx="5.348" ry="2.637"/><ellipse fill="#F291BC" cx="168.082" cy="110.907" rx="4.158" ry="2.051"/><path d="M96.72 190.743c-.412-.225-.84-4.247-1.348-6.678-.507-2.43-1.163-5.456-1.96-9.082-.252-1.145-.474-2.096-.67-2.854-.2-.77-.666-1.94-.596-2.07.06-.12.884-.26 1.354-.36.47-.11.957-.2 1.454-.27.24-.03.36-.05.598-.07.125.58.26 1.22.406 1.93.146.7.355 1.74.633 3.12.34 1.65.58 2.89.73 3.7.16.81.3 1.56.42 2.25.59-.12.88-.18 1.47-.29l-.05-.25c-.26-1.53-.45-2.64-.58-3.32-.26-1.4-.54-2.71-.81-3.92-.27-1.22-.55-2.31-.82-3.28 1.42-.28 2.12-.41 3.54-.65.42 2.86.8 5.31 1.11 7.34.32 2.03.61 3.79.86 5.27.23 1.31.46 2.61.7 3.92.24 1.3.89 3.75.75 3.92-.04.06-.71.05-1.17.11-.46.06-1.73.4-1.88.29-.17-.12-.24-1.47-.38-2.32l-.61-3.66c-.55.15-.83.22-1.39.38.17 1.01.32 1.92.47 2.74.15.82.29 1.58.43 2.28l.18.95c-.12.02-.26.05-.42.09-.15.03-.37.09-.67.17-.33.09-.63.18-.91.27-.28.09-.77.31-.8.29zm14.222-7.216c.007.003.047.303.104.59.06.292.096.5.11.632.036.28.058.58.072.89.014.3.093.77.01 1.01-.112.32-.628.71-1 .94-.375.23-.793.39-1.255.48-1.098.2-2.037-.19-2.85-1.18-.812-1-1.39-2.5-1.712-4.49-.33-2.09-.23-3.93.36-5.47.59-1.54 1.43-2.35 2.51-2.46.92-.1 1.73.46 2.4 1.64.68 1.18 1.97 4.39 1.55 5.25-.11.24-1.07.6-1.64.88-.56.28-1.69.65-1.77.83-.07.16.37.86.65 1.09.28.22.61.3.99.24.32-.05.6-.15.84-.3s.65-.61.65-.61zm-3.77-2.675c.05.03.448-.165.66-.263.212-.1.574-.24.616-.32.153-.32-.25-1.37-.41-1.74-.163-.37-.355-.54-.576-.52-.206.02-.356.2-.45.53-.094.33-.107.74-.035 1.25.007.05.035.2.08.44.047.24.09.59.116.61zm10.03 4.39c-.46.664-.854 1.14-1.187 1.42-.332.276-.68.44-1.05.492-.623.084-1.162-.147-1.625-.71-.465-.56-.756-1.35-.867-2.365-.157-1.43.065-2.63.686-3.57.62-.95 2.7-1.57 2.79-1.72.05-.09-.38-.72-.68-.94-.3-.22-.65-.31-1.04-.28-.16.01-.3.04-.42.09-.12.04-.31.2-.31.2-.02-.02.08-.82.09-1.3 0-.48-.03-.99-.08-1.55l-.04-.36c.17-.17.35-.3.55-.38.19-.09.42-.14.68-.15 1.36-.07 2.51.68 3.4 2.22.89 1.53 1.46 3.73 1.73 6.59l.26 2.8c-.48.09-.94.24-1.4.44-.46.2-.9.45-1.33.76l-.19-1.72zm-.19-1.645c.108-.266-.09-1.006-.177-1.518-.087-.52-.195-1.04-.324-1.57h-.02c-.3.02-.54.22-.71.59-.17.36-.23.82-.19 1.35.04.42.15.76.34 1.02.19.25.41.36.66.33.07-.01.14-.03.22-.07.08-.04.2-.11.22-.16zm5.628-9.52c.52 2.57.77 3.85 1.254 6.39.397-2.625.61-3.93 1.05-6.51.39.12.745.213 1.06.276.317.064.58.1.79.106.09 0 .19 0 .303-.01l.362-.03c-.78 3.2-1.15 4.83-1.84 8.13-.1.48-.19 1-.28 1.59-.1.58-.19 1.24-.28 1.98-1.02.04-1.53.06-2.54.12-.3-1.95-.66-3.9-1.08-5.85-.42-1.96-1.61-5.63-1.43-5.9.07-.1.97-.1 1.39-.15.42-.05.83-.1 1.23-.16zm11.58 8.266c.007.003 0 .263.014.52s.018.437.016.553c-.01.25-.032.505-.066.767-.033.26-.036.685-.146.87-.156.26-.726.506-1.13.65-.405.147-.84.22-1.31.223-1.112.012-1.982-.45-2.63-1.423-.646-.972-.985-2.34-.995-4.09-.01-1.836.374-3.384 1.18-4.607.806-1.222 1.765-1.784 2.84-1.71.913.063 1.62.663 2.105 1.77.486 1.108 1.182 4.094.734 4.705-.143.2-1.146.35-1.745.5-.6.16-1.782.3-1.875.44-.077.12.235.79.47 1.03.236.23.55.35.938.36.32.01.61-.04.872-.12.26-.09.728-.41.728-.41zm-3.303-2.852c.046.04.464-.07.688-.12.222-.05.603-.11.653-.18.17-.23-.04-1.19-.14-1.53-.105-.34-.27-.51-.488-.53-.207-.01-.38.12-.522.39-.144.27-.218.62-.222 1.07-.002.05.004.18.012.39.007.21-.002.52.02.54zm5.07 6.34c.184-2.08.318-3.6.4-4.56.082-.96.14-1.79.176-2.47.03-.54.056-1.13.076-1.77.02-.63-.08-1.87.05-2 .08-.08.77-.06 1.23-.14.46-.07.99-.18 1.59-.31l-.26 1.9c.32-.5.63-.86.91-1.07.28-.21.57-.3.86-.26.75.1 1.36 1 1.79 2.66.43 1.66.51 3.65.27 5.97-.04.39-.09.77-.16 1.14-.07.38-.1 1.01-.22 1.12-.14.14-.84.15-1.27.2-.43.06-.88.09-1.34.12l.06-.67c.03-.42.05-.64.09-1.06.17-2.06.21-3.51.12-4.35-.09-.84-.32-1.28-.7-1.31-.07-.01-.14 0-.2.01s-.16.03-.18.06c-.34.51-.25 2.26-.35 3.4s-.04 3.16-.29 3.41c-.09.1-.76.06-1.13.07-.38.01-.77.02-1.16 0-.17 0-.24-.01-.41-.01zm8.86-3.74c-.03-.03-.01-.25-.006-.39.01-.14.02-.29.04-.44.02-.19.06-.41.12-.64s.14-.75.22-.8c.15-.09 1.08.19 1.68.3.6.1 1.23.21 1.92.32.72.12 1.08.18 1.79.31-.05.16-.11.34-.15.53s-.08.4-.12.64c-.04.25-.06.45-.08.58-.01.14 0 .36-.02.37-.06.06-.66-.08-1.01-.13l-1.54-.22-1.69-.23c-.38-.05-1.02-.07-1.11-.16zm6.325 5.17c.058-.48.08-.98.065-1.51-.012-.52-.06-1.07-.146-1.64.08.01.12.02.2.03.79.13 1.45.06 1.99-.21s.86-.68.97-1.26c.06-.31.04-.64-.06-1-.09-.35-.34-.91-.75-1.66-.52-.97-.86-1.75-1.01-2.34-.14-.59-.17-1.18-.08-1.76.19-1.17.8-2 1.83-2.45 1.03-.45 2.33-.45 3.86-.01l.42.13c.12.44.21.9.28 1.38.07.48.17 1.52.17 1.52-.02.01-.3-.15-.44-.21s-.28-.11-.42-.15c-.63-.17-1.19-.18-1.65-.03-.46.15-.73.44-.81.84-.04.23-.01.51.1.83.11.32.36.86.75 1.59.61 1.13.98 1.99 1.1 2.59.12.6.12 1.2-.01 1.81-.29 1.36-1 2.34-2.1 2.97-1.1.63-2.45.84-4.06.61-.06 0-.09-.01-.15-.02zm13.476-.35c.007.01-.044.2-.076.4-.03.2-.06.35-.084.43-.052.19-.117.39-.196.58-.077.19-.17.53-.293.64-.2.18-.81.23-1.23.25-.42.02-.87-.02-1.33-.12-1.1-.24-1.87-.79-2.33-1.69s-.55-2.03-.24-3.39c.32-1.43.97-2.55 1.97-3.31 1-.76 2.03-.97 3.07-.65.88.27 1.46.9 1.74 1.87.27.98.31 3.46-.11 3.8-.17.14-1.19-.01-1.8-.03-.62-.02-1.81-.18-1.91-.09-.08.07.08.67.28.9.19.24.47.4.85.49.31.08.6.12.87.11.27-.01.78-.15.78-.15zm-2.73-2.96c.04.05.468.05.695.06.228.02.607.07.67.02.163-.13.172-.93.13-1.22-.04-.28-.166-.46-.38-.52-.2-.05-.394 0-.578.18-.188.17-.322.43-.406.77-.01.04-.03.14-.06.3-.03.16-.09.4-.08.42zm3.862 6.05c.537-1.55.932-2.68 1.18-3.41.247-.72.447-1.34.602-1.86.122-.41.25-.85.378-1.33.132-.48.278-1.46.395-1.53.095-.06.77.14 1.23.2.46.06.998.11 1.605.16-.23.55-.344.83-.572 1.39.4-.3.76-.5 1.076-.59.315-.09.61-.08.886.02.716.27 1.154 1.11 1.295 2.48.143 1.37-.106 2.89-.724 4.6-.1.28-.21.56-.34.83-.12.27-.29.73-.4.79-.17.09-.85-.09-1.28-.15-.43-.06-.87-.14-1.33-.23l.17-.5.27-.79c.52-1.53.8-2.62.86-3.29.06-.66-.1-1.05-.46-1.18-.06-.02-.13-.04-.19-.04s-.15-.02-.18.01c-.34.28-.62 1.66-.92 2.5-.29.85-.63 2.4-.86 2.54-.11.07-.75-.13-1.12-.21-.37-.08-.75-.17-1.14-.27l-.39-.1zm15.598-5.65c-.225.39-.448.82-.675 1.28-.228.47-.46.99-.7 1.56l-.12.32c-.068.19-.205.46-.19.49.02.05.384.14.61.21.23.07.688.17.708.21.06.11-.31.83-.4 1.11-.09.29-.14.69-.18.72-.04.03-.34-.04-.56-.09-.22-.05-.8-.29-.91-.24-.26.13-.6 1.48-.83 2.07-.22.58-.46 1.54-.57 1.6-.03.02-.29-.1-.52-.19l-.52-.19c-.31-.11-.77-.25-1.39-.44-.02-.01-.03-.01-.05-.02l1.3-3.8c-.18-.07-.37-.17-.58-.28-.21-.11-.42-.23-.64-.36l.79-1.67c.39.14.58.22.97.36.16-.57.33-1.11.5-1.64.17-.52.35-1.01.52-1.47.07-.19.11-.28.18-.46 1.32.37 1.99.57 3.3.99z" fill="#9A7128"/><path fill="#F2C652" d="M56.306 176.984s4.015-13.725 25.973-9.86l13.87 34.346s-18.4-6.726-25.08 15.608L56.3 176.984zm132.954 26.37s-3.854 8.454-5.087 9.955c0 0 6.836-6.46 11.947-18.3 0 0 .2-3.56-1.75-4.27l-5.11 12.61z"/><circle fill="#0071BC" cx="129.268" cy="90.349" r="13.007"/><path fill="#0F4481" d="M132.313 94.405c2.764-3.194 2.414-8.017-.774-10.777-3.19-2.76-8.02-2.416-10.78.777-2.76 3.19-2.42 8.016.78 10.776 3.18 2.77 8.01 2.42 10.77-.77z"/><path fill="#FFF" d="M128.787 92.06c1.468-1.696 1.282-4.258-.412-5.725-1.694-1.465-4.26-1.286-5.73.41-1.465 1.697-1.277 4.263.418 5.73 1.695 1.468 4.257 1.28 5.724-.414z"/><circle fill="#FFF" cx="134.045" cy="88.354" r="1.977"/><circle fill="#0071BC" cx="163.98" cy="91.343" r="10.399"/><path fill="#0F4481" d="M166.414 94.584c2.21-2.554 1.93-6.41-.62-8.616-2.55-2.206-6.406-1.93-8.617.623-2.206 2.55-1.93 6.41.623 8.62 2.55 2.21 6.407 1.93 8.614-.62z"/><path fill="#FFF" d="M163.595 92.712c1.175-1.358 1.025-3.405-.33-4.578-1.354-1.172-3.405-1.028-4.58.328-1.172 1.356-1.022 3.407.334 4.58 1.35 1.174 3.4 1.023 4.57-.33z"/><circle fill="#FFF" cx="167.799" cy="89.747" r="1.581"/><path fill="#FFF692" d="M62.32 169.706l13.083 38.258s.564-2.738 9.76-6.84l-12.073-34.63s-6.9-.27-10.77 3.213z"/></svg>