<svg xmlns="http://www.w3.org/2000/svg" width="250" height="250" viewBox="0 0 250 250"><path opacity=".15" d="M180.372 115.594c.32-1.51.482-3.035.482-4.536 0-.1-.002-.2-.008-.318.006-.11.008-.22.008-.33 0-3.508-.652-6.952-1.945-10.263 1.14-2.596 2.49-6.948.57-10.187-.71-1.202-2.48-3.222-6.28-3.222-1.1 0-2.31.165-3.67.5-6.62-5.646-15.42-9.136-24.85-9.876v-7.726c.49-.126.97-.307 1.42-.518v.422h15.33c.66.226 1.36.347 2.08.347.89 0 1.75-.177 2.57-.523.77-.33 1.47-.79 2.06-1.365.61-.6 1.09-1.3 1.44-2.09.35-.82.53-1.69.53-2.59 0-.89-.18-1.76-.53-2.58-.34-.79-.82-1.5-1.42-2.1-.6-.6-1.31-1.08-2.1-1.41-.82-.35-1.68-.53-2.57-.53-.9 0-1.77.18-2.59.53-.14.06-.28.13-.41.2V51.7l2.42.158.55-10.47 3.54.086.25-11.22-3.56-.337c-.36-.037-.71-.06-1.06-.08-.35-.018-.71-.026-1.08-.026-2.25 0-4.13.32-5.74.98-1.76.72-3.2 1.79-4.28 3.19-1.02 1.31-1.73 2.88-2.14 4.66-.09.38-.17.78-.24 1.19h-3.24l-.01.43c-.94-.4-1.96-.6-3.06-.6-.45 0-.89.03-1.33.11l-.03-.23-13.02.49v.07c-.55-.12-1.16-.2-1.84-.2-.93 0-1.82.14-2.67.42-.46.15-.91.34-1.34.56-.5-.37-1.06-.68-1.66-.91-.85-.33-1.81-.49-2.84-.49-.48 0-.95.04-1.41.12v-.03l-7.12.25V31.2H92.8l-.014.644H79l-.24 11.3 3.05.225.14 14.31-3.02-.09v11.59l13.38.3v.12l17.4.39-.017-.41 3.05-.04v.01l8.73.4.002.19 1.963-.11 3.267.15.04-.31 2.145-.11-.31 8.77h1.207c-6.393 1.54-12.276 4.38-17.057 8.32-1.885-.61-3.648-.92-5.264-.92-5.35 0-8.057 3.29-8.903 5.42-1.32 2.86-1.75 7.43 2.92 13.59l-.09.48c-5.13 14.7-7.893 27.55-8.283 38.45-.206-1.84-.474-3.82-.816-5.82-.75-4.35-3.03-17.59-11.4-17.59-1.84 0-3.68.68-5.48 2.02l-.28.2-.237.25c-.51.54-12.37 13.71-7.43 46.94.135 1.31 1.38 11.14 8.01 17.35 3.593 3.37 8.053 5.07 13.25 5.07 6.9 0 15.09-3.13 24.38-9.31 1.537.72 3.15 1.34 4.838 1.87 2.85 11.3-3.43 16.8-4.81 17.85-2.595 1.01-5.44 2.54-5.93 5.37-.27 1.57.305 3.17 1.5 4.16l.713.6 26.658 6c1.73 1.9 3.52 2.34 4.81 2.34 1.02 0 1.903-.26 2.654-.64.797.42 1.717.71 2.74.71.91 0 1.72-.22 2.425-.59.38.08.78.12 1.19.12 2.664 0 4.824-1.75 5.42-2.28l1.06-.95.19-1.4c.313-2.31-.36-4.49-1.95-6.32-1.12-1.28-2.71-2.34-4.635-3.21l12.23 2.76c1.576 1.67 3.21 2.06 4.4 2.06.83 0 1.587-.19 2.266-.49.69.33 1.48.55 2.355.55.81 0 1.53-.18 2.17-.48.3.05.61.08.92.08 2.47 0 4.46-1.6 5-2.09l1.06-.95.19-1.4c.29-2.14-.33-4.16-1.8-5.84-3.85-4.41-13.86-5.84-22.98-6.17.82-4.72-.52-10.69-4.02-17.84 3.17-5.39 2.89-11.57-.67-17.76 2-.3 4.4-1.17 5.47-3.6.69-1.58.92-4.09-1.74-7.26-.56-1.11-1.82-3.2-4.06-4.65l-.73-.82c15.59-3 27.77-13.53 30.33-27.15zm-41.615 88.1l.08.065c-3.32-.47-6.824-.74-10.233-.87 2.447-4.79 3.444-10.14 2.948-15.87h.223c4.226 0 8.417-1.28 10.184-1.9 2.57 6.35 1.7 8.89 1.22 9.28l-.07.02c-2.46.91-5.35 2.33-5.84 5.18-.27 1.54.3 3.1 1.47 4.08zM93.387 43.747l2.162.082-.02 2.66-2.15.07v-2.82zm-.333 111.682l.137-.2.4-.61c1.07 7.96 3.79 14.56 8.16 19.76-3.72 1.97-8.58 3.99-12.86 3.99h-.03c-2.62 0-9.47-.06-10.16-16.02-.08-1.91-.06-3.98.04-6.19 1.59 2.84 3.94 4.44 6.61 4.44 4.12 0 6.78-3.81 7.72-5.19z"/><g fill="#58595B"><path d="M173.563 111.8c.265-1.23.41-2.493.41-3.78 0-.105-.01-.208-.01-.313 0-.11.01-.222.01-.335 0-3.657-.83-7.155-2.333-10.384.005 0 .01.003.01.003s7.152-13.01-6.127-8.49h-.007c-6.622-6.4-16.546-10.48-27.646-10.48-10.932 0-20.723 3.96-27.34 10.2-9.478-4.12-11.424 1.58-11.424 1.58-1.844 3.78 1.095 8.29 3.55 11.14-.218.79-.4 1.59-.538 2.4-13.993 39.96-8.045 59.35 2.56 68.63-.115.19-.236.38-.372.59-8.942 5.58-31.227 16.44-32.493-13.05-.292-6.78.53-15.7 2.883-27.32 0 0 2.503-6.61 3.69-2.22.654 2.42.91 8.16.13 20.17 0 0 .048.14.14.35.638 1.46 3.45 6.72 8.196-.26.027-.04.055-.07.083-.12 0 0-1.053-35.88-12.238-27.54 0 0-11.185 12-6.427 43.85 0 0 .847 9.43 6.822 15.02 5.69 5.33 16.034 7.18 34.72-5.88 2.68 1.48 5.483 2.51 8.224 3.21 5.54 16.96-6.09 24.38-6.09 24.38-5.24 1.95-3.783 3.17-3.783 3.17l27.085 6.1c2.928 4.4 5.117 0 5.117 0 3.654 4.4 4.638.25 4.638.25 1.462 2.93 4.737 0 4.737 0 1.32-9.76-31.41-9.03-31.41-9.03 7.106-7.9 7.21-16.9 5.636-23.78 1.5.18 2.935.27 4.258.31 4.923.15 10.134-1.94 10.134-1.94.96-.53 1.732-.98 2.377-1.39 8.124 16.25.686 18.19.686 18.19-4.48 1.67-3.23 2.71-3.23 2.71l23.16 5.22c2.51 3.76 4.38 0 4.38 0 3.13 3.76 3.97.21 3.97.21 1.25 2.5 4.05 0 4.05 0 1.13-8.35-26.86-7.72-26.86-7.72 4.31-4.79 2.04-13.17-2.58-21.88.13-.17.27-.36.41-.56 5.88-8.18-.35-16.66-4.68-21.07 13.36 1.94 10.26-2.7 8.51-4.61 0 0-.95-2.51-3.28-3.77-.07-.08-.14-.17-.22-.25-.67-.77-1.43-1.61-2.22-2.44v-.01c-1.57-1.65-3.25-3.23-4.6-4.1 17.94-.13 32.76-10.89 35.37-24.92zm-36.978 32.795c-.54-.14-1.07-.27-1.592-.396-.055-.54-.08-1.08-.08-1.63l2.89 1.56c-.37.14-.78.29-1.218.45zm-1.67-2.153c.002-.787.053-1.575.14-2.34-.094 1.073-.13 2.01-.14 2.34zm-52.08-83.884l-3.063-.085v3.883l9.366.217-.085-4.015h-2.548v-7.683h9.842l-.128 8.157-3.07-.13v3.886l9.58.215-.13-3.97h-2.5l.43-22.964 2.24.08v-4.18h-9.19l-.09 3.88 2.89.21-.09 11.09-9.8.34V36.71l2.29.087V32.61h-9.02l-.09 3.885 2.93.214m24.42 21.89l-2.12.13v3.97l7.03-.09v-3.49h-1.69c.03-1.63.05-3.25.08-4.86.02-1.61.06-3.23.14-4.86.01-.48.06-1.01.15-1.61.08-.6.23-1.16.45-1.7.21-.53.52-.98.91-1.34.39-.36.91-.54 1.54-.54.39 0 .71.1.96.3.25.2.45.46.59.76s.24.64.3 1c.05.36.08.7.08 1.01 0 1.97-.02 3.94-.05 5.91l-.12 5.91-1.47.21-.13 3.49 6.6.3.43-3.46-1.77-.22.12-5.72c.03-1.9.07-3.81.1-5.72 0-.36.07-.74.21-1.15.14-.41.34-.77.59-1.09.25-.33.55-.6.9-.81.34-.22.73-.32 1.14-.32.39 0 .71.1.96.3.25.2.45.45.59.75.14.3.25.63.3.99.06.36.09.7.09 1.01 0 1.91-.02 3.81-.06 5.69-.04 1.88-.07 3.78-.12 5.7l-1.68.21.09 3.71 6.82-.35.22-3.46h-1.77c.04-1.92.09-3.81.14-5.7.05-1.89.07-3.78.07-5.7 0-.72-.03-1.5-.1-2.34-.07-.84-.23-1.62-.5-2.33s-.67-1.31-1.21-1.78c-.54-.48-1.29-.71-2.25-.71-.52 0-1.01.08-1.47.23-.46.15-.89.36-1.29.62s-.77.58-1.11.95c-.34.36-.65.76-.92 1.17-.12-.52-.27-.99-.46-1.41-.2-.42-.44-.78-.74-1.08-.29-.3-.65-.53-1.05-.69-.41-.16-.9-.24-1.46-.24-.54 0-1.05.09-1.54.26s-.95.41-1.38.7c-.44.29-.83.64-1.18 1.05s-.64.83-.87 1.27L110 40.4l-6.22.22-.082 3.67 3.155.215.13 14.03zm24.89 9.45l-2.25-.09-.13 3.67h8.24v-3.41l-1.95-.05v-7.29c.33.6.79 1.11 1.39 1.53.6.42 1.26.62 1.98.62.93 0 1.74-.18 2.43-.54.68-.36 1.26-.84 1.74-1.45s.88-1.3 1.18-2.09c.31-.79.54-1.6.71-2.43.16-.84.28-1.67.34-2.51s.1-1.61.1-2.31c0-.58-.04-1.26-.1-2.04-.07-.79-.18-1.6-.35-2.43-.16-.84-.39-1.66-.68-2.47-.29-.82-.65-1.54-1.08-2.18-.43-.64-.95-1.16-1.55-1.56-.6-.4-1.31-.6-2.11-.6-.44 0-.87.06-1.3.19-.44.13-.85.31-1.23.54-.39.23-.75.5-1.08.8-.34.3-.61.63-.85.97l-.3-2.51-5.79.22v3.54l2.85-.09-.26 23.91zm4.05-16.59c.03-1.35.06-2.7.08-4.05.01-.41.08-.81.21-1.18.12-.37.3-.7.53-.98.23-.28.51-.5.85-.66.34-.16.73-.24 1.17-.24.49 0 .91.14 1.27.43.35.29.64.66.87 1.12.23.46.41.98.54 1.55.12.57.22 1.15.29 1.71.06.57.1 1.11.11 1.62.01.51.02.92.02 1.24 0 .36-.01.79-.02 1.29-.02.5-.06 1.03-.13 1.58s-.18 1.08-.32 1.61c-.15.52-.34.99-.59 1.41-.24.42-.56.76-.94 1.01-.38.26-.84.39-1.37.39-.4 0-.77-.14-1.09-.41-.33-.28-.6-.61-.83-1-.23-.39-.41-.8-.53-1.24-.12-.44-.18-.82-.18-1.15 0-1.37.01-2.73.04-4.07zm13.77 7.3l-2.85.08v3.8H156l.128-3.59-2.5.08V44.57l2.633.174.22-4.1h-2.89c.04-1.31.19-2.372.42-3.185.24-.82.62-1.45 1.14-1.89.52-.45 1.19-.74 2.02-.89.83-.15 1.86-.2 3.08-.17l.09-3.8c-.3-.03-.6-.05-.88-.07-.29-.02-.58-.02-.88-.02-1.72 0-3.15.23-4.28.69-1.13.46-2.03 1.12-2.69 1.98-.67.86-1.14 1.91-1.42 3.15s-.43 2.63-.44 4.19h-3.02l-.09 3.79h3.15v14.34z"/><path d="M177.333 112.555c.32-1.51.482-3.035.482-4.536 0-.11-.002-.2-.008-.32.006-.11.008-.22.008-.33 0-3.51-.652-6.95-1.945-10.27 1.145-2.6 2.49-6.95.574-10.19-.712-1.2-2.475-3.22-6.28-3.22-1.098 0-2.31.16-3.665.5-6.62-5.65-15.43-9.14-24.85-9.88v-7.72c.49-.13.96-.31 1.42-.52v.42h15.33c.66.22 1.36.34 2.08.34.89 0 1.75-.18 2.57-.53.77-.33 1.47-.79 2.06-1.37.61-.59 1.09-1.29 1.44-2.09.35-.81.53-1.68.53-2.58 0-.89-.18-1.76-.53-2.58-.34-.79-.82-1.5-1.42-2.1-.6-.6-1.31-1.07-2.1-1.41-.82-.35-1.68-.52-2.57-.52-.91 0-1.77.18-2.59.54-.14.06-.28.13-.41.2v-5.74l2.42.16.55-10.47 3.54.08.25-11.22-3.56-.34c-.36-.04-.71-.06-1.06-.08-.35-.02-.71-.03-1.08-.03-2.25 0-4.13.31-5.74.97-1.76.72-3.2 1.79-4.29 3.19-1.01 1.31-1.73 2.87-2.13 4.65-.09.39-.17.79-.23 1.2h-3.24l-.01.43c-.94-.4-1.96-.61-3.06-.61-.44 0-.89.03-1.33.11l-.03-.24-13.02.48V37c-.55-.12-1.16-.2-1.85-.2-.92 0-1.82.14-2.67.414-.47.15-.91.34-1.34.56-.51-.375-1.06-.68-1.66-.914-.85-.33-1.81-.496-2.84-.496-.48 0-.95.04-1.42.12v-.03l-7.11.25V28.1H89.8l-.017.65H76l-.25 11.29 3.05.224.14 14.315-3.022-.09v11.6l13.38.31v.12l17.4.39-.01-.42 3.05-.04v.01l8.73.4.005.19 1.964-.11 3.262.15.04-.32 2.14-.11-.31 8.77h1.21c-6.4 1.53-12.28 4.37-17.06 8.32-1.88-.62-3.65-.93-5.26-.93-5.35 0-8.06 3.28-8.9 5.41-1.33 2.86-1.75 7.43 2.91 13.59-.03.16-.07.32-.09.47-5.14 14.74-7.91 27.59-8.3 38.5-.21-1.84-.48-3.82-.82-5.82-.75-4.35-3.03-17.59-11.4-17.59-1.84 0-3.68.68-5.48 2.03l-.28.21-.24.25c-.51.54-12.37 13.71-7.43 46.94.13 1.31 1.38 11.14 8.01 17.35 3.59 3.37 8.05 5.08 13.25 5.08 6.9 0 15.09-3.13 24.38-9.31 1.53.71 3.15 1.34 4.84 1.86 2.85 11.3-3.44 16.8-4.81 17.85-2.6 1.01-5.45 2.55-5.93 5.38-.27 1.57.3 3.17 1.5 4.16l.71.59 26.65 6.01c1.73 1.9 3.52 2.35 4.81 2.35 1.02 0 1.9-.26 2.65-.65.8.42 1.72.71 2.74.71.91 0 1.72-.22 2.42-.59.38.08.78.12 1.18.12 2.66 0 4.82-1.74 5.42-2.28l1.06-.95.19-1.41c.31-2.31-.37-4.49-1.96-6.32-1.12-1.28-2.71-2.34-4.63-3.22l12.23 2.75c1.57 1.66 3.21 2.06 4.4 2.06.83 0 1.58-.19 2.26-.5.69.33 1.48.54 2.35.54.81 0 1.53-.18 2.17-.48.3.05.61.08.92.08 2.47 0 4.46-1.6 5-2.09l1.06-.94.19-1.41c.29-2.14-.33-4.15-1.8-5.84-3.86-4.41-13.86-5.84-22.98-6.17.82-4.72-.52-10.69-4.03-17.83 3.16-5.4 2.88-11.58-.68-17.76 2-.31 4.4-1.17 5.47-3.6.69-1.58.92-4.09-1.74-7.27-.56-1.12-1.82-3.2-4.06-4.65l-.74-.83c15.59-2.99 27.76-13.53 30.33-27.15zM92.49 43.45l-2.14.077v-2.82l2.16.083-.02 2.66zm-6.645 131.883h-.03c-2.624 0-9.477-.06-10.16-16.013-.083-1.91-.068-3.974.04-6.188 1.584 2.843 3.942 4.446 6.606 4.446 4.12 0 6.78-3.806 7.72-5.19l.14-.197.4-.61c1.07 7.97 3.78 14.57 8.15 19.76-3.72 1.97-8.58 4-12.86 4zm54.3 16.036l-.064.02c-2.45.91-5.34 2.33-5.83 5.18-.26 1.54.3 3.1 1.47 4.08l.08.06c-3.32-.47-6.82-.74-10.23-.87 2.45-4.79 3.45-10.14 2.95-15.87h.23c4.23 0 8.42-1.28 10.19-1.9 2.58 6.35 1.71 8.89 1.23 9.28zM158.57 58.33c-.245.252-.438.547-.582.885-.145.338-.216.694-.216 1.068s.07.727.216 1.058c.144.33.337.62.582.87.245.25.532.44.863.59.33.14.685.22 1.06.22.372 0 .728-.07 1.065-.21.34-.14.634-.34.885-.58.253-.24.45-.53.595-.86.145-.33.216-.68.216-1.06s-.07-.73-.216-1.06c-.146-.34-.342-.63-.595-.88-.25-.25-.546-.45-.885-.59-.337-.14-.693-.21-1.066-.21-.374 0-.73.07-1.06.22-.33.14-.617.34-.862.59z"/></g><path fill="#D0D2D3" d="M171.65 96.99s7.152-13.012-6.127-8.493c-13.282 4.52 6.127 8.493 6.127 8.493z"/><path fill="#919496" d="M169.146 93.398s6.365-6.426 1.788 2.177-1.788-2.177-1.788-2.177zm-59.763-2.428l-3.726 8.154S94.2 84.868 109.383 90.97z"/><path fill="#FFF" d="M120.995 142.12s37.708 40.147 25.884 53.293c0 0 27.98-.627 26.85 7.722 0 0-2.8 2.502-4.05 0 0 0-.84 3.547-3.97-.21 0 0-1.88 3.757-4.38 0l-23.16-5.217s-1.25-1.043 3.23-2.712c0 0 8.46-2.206-2.51-21.61-10.98-19.406-17.91-31.265-17.91-31.265z"/><path fill="#FFF" d="M113.04 173.197l-1.957-4.966c9.566-5.58 35.968-20.51 1.956 4.97zm-38.343-50.653c11.185-8.35 12.238 27.54 12.238 27.54-.028.04-.055.075-.083.116-2.08.883-5.373 1.767-8.195.26-.093-.21-.14-.342-.14-.342.78-12.012.523-17.754-.13-20.17-.835-4.722-2.75-10.308-6.092 6.738 0 0-2.172 12.416-.482 22.8 1.266 29.487 23.55 18.637 32.493 13.056-3.495 5.394-13.665 17.733-29.214 8.873-5.975-5.598-6.822-15.023-6.822-15.023-4.757-31.847 6.427-43.848 6.427-43.848z"/><path fill="#CCC" d="M104.307 172.542c.893-1.376 1.35-2.302 1.35-2.302l4.703-3.85.724 1.84c-1.875 1.092-3.106 1.828-3.106 1.828s-1.41 1.076-3.67 2.484z"/><path fill="#CCC" d="M104.307 172.542c2.26-1.408 3.67-2.483 3.67-2.483s1.232-.74 3.107-1.83l1.956 4.96-.25.19c-20.58 15.4-31.71 13.64-37.696 8.03 15.548 8.86 25.718-3.48 29.213-8.88zm-32.01-35.855c3.342-17.046 5.256-11.46 6.09-6.738-1.187-4.4-3.69 2.21-3.69 2.21-2.354 11.61-3.175 20.53-2.883 27.32-1.69-10.39.482-22.8.482-22.8zM86.852 150.2c-4.745 6.982-7.558 1.716-8.195.26 2.822 1.507 6.115.623 8.195-.26z"/><path fill="#FFF" d="M102.118 103.33c2.423-14.298 17.503-25.315 35.752-25.315 19.938 0 36.103 13.144 36.103 29.356 0 16.22-16.164 29.36-36.103 29.36-.748 0-1.49-.02-2.227-.06-.8 3.49-1.47 8.89.946 12.16 0 0 16.56 12.39 8.11 24.15.01-.08 2.17-20.61-13.63-24.26l2.86-12.93s-5.97-1.4-12.95-4.48v16.19s16.67 19.47 7.23 32.65c-16.51-.49-49.74-9.33-26.11-76.8z"/><path fill="#D0D2D3" d="M120.995 147.488v-16.196c6.975 3.08 12.945 4.484 12.945 4.484l-2.866 12.933c15.8 3.65 13.64 24.18 13.628 24.26-1.65 2.29-2.478 3.07-6.342 5.22 0 0-5.21 2.08-10.134 1.93 9.44-13.18-7.23-32.65-7.23-32.65z"/><ellipse fill="#D0D2D3" cx="143.293" cy="108.02" rx="30.679" ry="23.272"/><path fill="#D0D2D3" d="M112.774 89.3s.352 3.015-2.453 3.436c0 0-13.73-4.486-3.71 7.57 0 0 1.13 1.823-1.19 3.436 0 0-9.25-7.922-6.31-13.95 0 0 2.25-6.59 13.67-.49z"/><path fill="#6C6F71" d="M149.644 116.888s-1.284 2.144-.525 3.484l-.42.47s-.6-1.55.93-5.307v1.353z"/><path fill="#ACAFB1" d="M146.97 102.79c0 6.53 5.367 11.822 11.99 11.822 6.626 0 11.993-5.292 11.993-11.82 0-6.528-5.367-11.82-11.992-11.82-6.62 0-6.62 6.018-11.99 11.82z"/><path fill="#ACAFB1" d="M116.27 103.057c0 8.123 6.627 14.706 14.804 14.706 8.176 0 19.368-6.654 14.803-14.706-8.32-14.682-6.627-14.706-14.803-14.706-8.177 0-14.803 6.59-14.803 14.71z"/><path fill="#1D8FCD" d="M152.572 115.218s-2.67-5.427-3.652-2.56c0 0-2.205-3.23-2.205 1.954 0 0 2.092 1.425 2.205 3.15 0 0 2.16-.866 3.652-2.544z"/><path fill="#FFF" d="M148.92 116.44s-.136-.734-1.168-1.466c0 0 .382-1.402 1.168 1.465zm-29.434 52.277s12.67 19.52-1.156 34.89c0 0 32.73-.728 31.41 9.03 0 0-3.274 2.927-4.736 0 0 0-.983 4.146-4.638-.245 0 0-2.19 4.392-5.117 0l-27.09-6.1s-1.46-1.22 3.78-3.172c0 0 15.29-9.76 2.46-32.45-12.83-22.693 5.08-1.953 5.08-1.953z"/><path fill="#CCC" d="M165.625 202.512s-.794-3.228-6.587-2.32c0 0 5.734-1.83 6.587 2.32z"/><path fill="#D0D2D3" d="M169.59 202.512s.244-4.04-3.965-2.722c0 0 3.233-.634 3.966 2.722zm-29.218 8.904s-.922-4.514-7.17-2.073c0 0 6.804-3.905 7.17 2.073zm4.433 0s-.333-3.988-2.726-2.684c0 0 1.79-.49 2.72 2.684zm-23.81-69.056l-6.528-.55 1.804 2.398"/><path fill="#FFF" d="M135.644 136.67c1.392-3.646 12.108 9.847 12.108 9.847s15.06 13.174-30.462 0l-1.02.88-4.865-3.665s9.248-4.203 29.55 2.103l-6.044-3.258s.11-4.27.74-5.908z"/><path fill="#808184" d="M116.27 103.057s25.163-12.086 29.606 0l.836 2.03s-2.998-13.724-30.44-1.346v-.68zm30.702 0s7.673-13.255 23.94.685l-.05.5s-14.254-13.9-23.855-.5l-.035-.685z"/><path fill="#6C6F71" d="M134.465 125.148s16.577-11.384 22.81 0c0 0-5.91-10.103-22.487.628l.56.72-.478.4-.93-2.482.525.734zm19.34-6.818s-1.107 2.048 1.218 4.087l-1.1-.43s-1.32-1.618-.118-3.657z"/><path fill="#6C6F71" d="M150.44 122.292l-6.147 3.963.512.64"/><path fill="#A6A8AB" d="M146.972 103.057s4.31-4.367 8.552-13.606c0 0 1.604-3.17 1.684 0 0 0 .88-6.75-3.685 2.82 0 0-6.648 12.21-6.808 9.49m-4.32-15.43s5.26 4.49 4.32 14.4c0 0-.48-9.47-4.32-14.39zm4.43 11.37s.96-5.14 5.17-9.33c0 0-3.97 2.95-5.28 8.3l.11 1.04z"/><path fill="#A6A8AB" d="M145.637 92.266l3.283.13-.584.264h-2.46m-.786-2.49l3.246.923-3.246-.46"/><path fill="#6C6F71" d="M143.293 123.853s6.98-4.023 10.006 0c0 0-2.92-3.484-10.01.42v-.42z"/><path fill="#ACAFB1" d="M133.94 86.32s5.093.973 10.697 14.53l-3.605-4.943s-4.256-7.166-7.093-9.588z"/><path fill="#A6A8AB" d="M133.94 121.284s-6.515 9.722 4.687 5.612c0 0-12.42 6.393-4.688-5.612z"/><path fill="#D0D2D3" d="M102.996 131.292s-2.333 31.92 28.026 21.767c0 0-16.657.1-19.94-21.04"/><path fill="#D0D2D3" d="M110.93 131.62s9.14 16.898 5.44 18.017c-5.166 1.563-8.392-11.508-8.392-11.508l-.818-6.51h3.77zm24.182 19.526s7.44-2.33 10.304-4.97c0 0 2.048.334 3.115 1.116l-3.59-2.6-8.25 3.564-1.57 2.89z"/><path fill="#D0D2D3" d="M115.078 140.306s2.7 10.35 20.533 4.636l-10.63 7.43-8.85-3.774-2.56-6.727 1.51-1.56zm22.726 3.83l4.995-3.31s3.14 3.407 3.44 3.867c.31.46-8.45-.556-8.45-.556z"/><path fill="#FFF" d="M102.996 131.292s5.032 39.164 42.094 14.302c0 0 1.658.258 3.44 1.698 0 0-2.294-6.022-8.418-4.1 0 0-21.14 9.488-24.384.36 0 0-4.645-11.532-4.923-12.253"/><path fill="#D0D2D3" d="M134.91 142.576l1.845-5.863-1.11-.044"/><path d="M102.778 36.155l-2.244-.086-.43 22.96h2.503l.13 3.97-9.584-.22V58.9l3.065.13.128-8.158h-9.842v7.684h2.548l.085 4.014-9.366-.216V58.47l3.07.086-.21-21.843-2.93-.215.09-3.884h9.02V36.8l-2.29-.086v10.79l9.8-.344.09-11.093-2.89-.214.09-3.885h9.2v4.185zm26.49 23.095l-.216 3.453-6.82.344-.086-3.712 1.684-.215c.043-1.913.082-3.812.12-5.7.034-1.884.053-3.783.053-5.697 0-.315-.03-.654-.086-1.013-.056-.36-.158-.69-.303-.993-.143-.302-.34-.554-.593-.756-.25-.2-.57-.3-.96-.3-.41 0-.79.11-1.14.33-.34.22-.64.49-.89.81-.25.33-.45.69-.59 1.09-.14.41-.21.79-.21 1.15-.03 1.92-.06 3.82-.1 5.72-.03 1.9-.07 3.81-.12 5.72l1.78.22-.43 3.46-6.6-.3.13-3.49 1.47-.21c.04-1.97.09-3.94.12-5.92.04-1.97.05-3.94.05-5.91 0-.31-.03-.65-.08-1.01-.06-.36-.16-.69-.3-.99s-.34-.55-.59-.75c-.25-.2-.57-.3-.96-.3-.63 0-1.14.18-1.54.54-.39.36-.7.81-.91 1.34-.21.53-.36 1.1-.45 1.69-.09.6-.14 1.14-.15 1.61-.07 1.63-.11 3.25-.14 4.86-.02 1.61-.04 3.23-.07 4.86H112v3.5l-7.037.09v-3.98l2.118-.13-.13-14.02-3.15-.22.09-3.67 6.22-.22.13 3.07c.23-.44.52-.87.87-1.27s.75-.75 1.18-1.04c.43-.29.89-.53 1.38-.7.49-.17 1-.26 1.54-.26.56 0 1.05.08 1.46.23.41.16.76.39 1.06.69.3.3.54.66.74 1.08.2.42.35.89.47 1.4.27-.42.58-.81.92-1.18.34-.36.71-.68 1.11-.95.41-.26.84-.47 1.3-.62.46-.15.95-.23 1.47-.23.96 0 1.72.24 2.26.71.54.48.94 1.07 1.21 1.78s.43 1.49.5 2.33c.07.85.1 1.63.1 2.35 0 1.91-.02 3.81-.07 5.7-.05 1.89-.1 3.79-.14 5.7h1.76zm16.48-7.512c0 .706-.032 1.475-.097 2.31s-.18 1.67-.34 2.503c-.16.84-.4 1.65-.71 2.43-.31.79-.7 1.48-1.19 2.09-.48.61-1.06 1.09-1.75 1.45-.68.36-1.49.54-2.43.54-.72 0-1.38-.21-1.97-.62-.59-.41-1.06-.93-1.39-1.53v7.29l1.94.05v3.41h-8.24l.13-3.67 2.25.09.26-23.91-2.85.09V40.7l5.79-.218.31 2.507c.23-.35.51-.67.85-.97.33-.3.69-.57 1.08-.8.39-.23.8-.41 1.23-.54.43-.13.87-.2 1.3-.2.81 0 1.51.2 2.12.59.61.39 1.13.91 1.56 1.55.43.64.79 1.36 1.08 2.18.29.81.52 1.63.68 2.47.17.83.28 1.64.35 2.43.07.78.1 1.46.1 2.04zm-3.798.302c0-.316-.008-.73-.022-1.24-.014-.512-.052-1.052-.117-1.62-.06-.568-.16-1.14-.29-1.716-.13-.575-.31-1.093-.54-1.554-.23-.46-.52-.834-.87-1.122-.35-.288-.77-.432-1.26-.432-.44 0-.84.08-1.17.238-.34.158-.62.378-.85.658-.23.28-.4.608-.53.98-.12.376-.19.77-.21 1.188l-.08 4.047c-.03 1.346-.04 2.702-.04 4.068 0 .332.07.716.19 1.155.12.438.3.85.53 1.24.23.39.51.72.83.993.32.274.69.41 1.09.41.53 0 .99-.13 1.37-.387.38-.26.69-.597.94-1.015.25-.41.44-.88.59-1.41.15-.52.26-1.06.33-1.61.07-.54.12-1.07.13-1.57.02-.5.03-.93.03-1.29zm18.39-21.323l-.09 3.8c-1.22-.03-2.247.028-3.074.17-.828.146-1.5.44-2.016.885-.52.447-.897 1.077-1.135 1.89-.236.813-.378 1.875-.42 3.184h2.892l-.216 4.1-2.63-.172v14.59l2.51-.086-.12 3.583h-9.11v-3.8l2.85-.08V44.45h-3.15l.09-3.8h3.02c.02-1.555.16-2.95.45-4.187.28-1.24.76-2.29 1.43-3.15.67-.864 1.57-1.526 2.7-1.987 1.13-.46 2.56-.69 4.29-.69.3 0 .6.01.89.022.29.015.58.036.89.065zm2.914 29.568c0 .375-.07.727-.216 1.058-.146.33-.342.62-.595.863-.25.245-.546.44-.885.583-.337.14-.693.21-1.066.21-.374 0-.73-.07-1.06-.22-.33-.15-.617-.34-.862-.59-.245-.25-.438-.54-.582-.87-.145-.33-.216-.69-.216-1.06s.07-.73.216-1.07c.144-.34.337-.63.582-.89.245-.25.532-.45.863-.6.33-.15.685-.22 1.06-.22.372 0 .728.07 1.065.21.34.14.634.34.885.59.253.25.45.55.595.88.145.33.216.69.216 1.06z" fill="#C1B49A"/></svg>