<svg xmlns="http://www.w3.org/2000/svg" width="250" height="250" viewBox="0 0 250 250"><path opacity=".15" d="M175.04 75.9l-.277-.296-.325-.244c-1.858-1.388-3.78-2.092-5.716-2.092-7.62 0-10.284 10.098-11.322 15.474-1.09-8.642-3.51-18.352-7.255-29.11l-.004-.01c4.43-6.016 3.97-10.56 2.63-13.45-.91-2.24-3.73-5.65-9.24-5.65h-.13l-5.52.1c-7.12-5.4-16.25-8.348-25.99-8.348-10.27 0-20.12 3.417-27.35 9.43-1.17-.264-2.24-.393-3.23-.393-3.7 0-5.59 1.88-6.39 3-1.36 1.91-1.7 4.38-1.02 7.36-.85 2.11-1.29 4.37-1.29 6.65 0 1.57.21 3.14.63 4.67-.04.58-.06 1.12-.06 1.64 0 .1 0 .2.01.31v.31c0 1.49.16 2.99.48 4.48.8 4.25 2.6 8.22 5.17 11.74-.4.4-.78.86-1.11 1.4-.08.14-.17.29-.25.45-1.89-.48-4.06-.83-6.35-.83-1.98 0-3.88.27-5.65.81l-.96.3-.75.67c-1.11 1-3.6 3.69-2.63 7.03.3 1.01 1.36 3.42 4.91 4.01l.08.02 5.11.66c.3 1.42 1.21 3.03 3.27 4.61.72 1.23 1.9 2.52 3.68 3.33 1.62 5.22 6 15.68 15.19 15.68 1.79 0 3.57-.4 5.36-1.23-.33 3.22.29 6.35 1.9 9.27-3.02 6.28-4.29 11.64-3.83 16.03-8.55.39-17.72 1.87-21.42 6.1-.13.15-.25.31-.37.47H62.24v41.14h4.432v30.53h107.464V190.8h-3.81v-40.6h-32.95c-1.973-2.09-4.82-6.62-3.026-14.316 1.3-.427 2.556-.91 3.762-1.454 8.87 5.85 16.473 8.698 23.183 8.698 5.154 0 9.584-1.7 13.16-5.05 6.463-6.054 7.71-15.57 7.86-16.97 4.73-31.885-6.78-44.662-7.273-45.19z"/><path d="M170.977 71.838l-.276-.297-.32-.24c-1.86-1.39-3.78-2.09-5.71-2.09-7.62 0-10.28 10.1-11.32 15.48-1.09-8.64-3.51-18.35-7.25-29.11v-.01c4.42-6.01 3.96-10.56 2.63-13.45-.91-2.24-3.73-5.65-9.24-5.65h-.13l-5.52.1c-7.12-5.4-16.25-8.35-25.99-8.35-10.27 0-20.12 3.42-27.35 9.44-1.17-.26-2.24-.39-3.23-.39-3.7 0-5.59 1.88-6.39 3-1.36 1.91-1.7 4.38-1.02 7.36-.85 2.11-1.3 4.37-1.3 6.65 0 1.57.21 3.14.63 4.67-.04.58-.05 1.12-.05 1.64 0 .1 0 .2.01.31 0 .11-.01.21-.01.31 0 1.49.16 2.99.48 4.48.8 4.25 2.6 8.22 5.17 11.74-.4.4-.78.86-1.11 1.4-.08.15-.17.29-.25.45-1.89-.48-4.06-.83-6.35-.83-1.98 0-3.88.27-5.65.81l-.96.29-.75.67c-1.11 1-3.6 3.69-2.62 7.04.29 1.01 1.36 3.42 4.91 4.01l.08.02 5.11.66c.3 1.42 1.21 3.03 3.27 4.61.72 1.23 1.9 2.52 3.68 3.33 1.61 5.21 6 15.67 15.18 15.67 1.79 0 3.57-.41 5.36-1.23-.33 3.22.29 6.35 1.9 9.27-3.02 6.28-4.29 11.64-3.83 16.02-8.55.39-17.72 1.87-21.42 6.11-.13.15-.25.31-.37.46H58.18v41.14h4.433v30.53h107.46V186.7h-3.814v-40.57h-32.95c-1.98-2.09-4.82-6.618-3.03-14.313 1.3-.423 2.55-.91 3.76-1.45 8.87 5.85 16.47 8.697 23.18 8.697 5.16 0 9.59-1.7 13.16-5.05 6.46-6.053 7.71-15.567 7.86-16.967 4.73-31.887-6.78-44.664-7.27-45.193z"/><path fill="#FFF" d="M62.604 157.726l2.24 32.81v23.858L167.592 216l-1.334-23.843-6.223-5.572 3.882-12.346-2.077-21.53"/><path fill="none" d="M68.758 178.454c0 .09.007.303.023.645.02.34.06.69.11 1.06.06.37.11.73.14 1.09.03.35.05.55.05.58 0 .15.02.5.05 1.04s.03.91 0 1.09l-.22.44c-.06.09-.1.18-.13.26.15-.12.27-.3.36-.54.12-.3.2-.62.25-.98.05-.36.05-.85.02-1.47-.06-1.22-.11-2.09-.15-2.63-.04-.53.01-.92.16-1.16.03-.09.08-.21.14-.36.06-.15.1-.25.13-.31.06-.18.12-.33.18-.45-.18.3-.36.53-.53.71-.35.51-.53.82-.53.94zm64.407 3.603c-.354-.118-.963-.017-1.823.312-.86.32-1.542.51-2.045.57-.24.09-.675.1-1.313.04-.64-.06-1.312-.14-2.023-.23-.71-.09-1.36-.16-1.95-.22-.59-.06-.98-.09-1.15-.09-.24 0-.6.06-1.09.2-.49.13-.82.12-1-.02-.2-.12-.25-.37-.13-.74s.18-.62.18-.74c0-.09-.01-.27-.02-.56-.01-.28-.08-.57-.2-.87-.06-.06-.09-.34-.11-.83-.01-.49 0-.98.05-1.47s.1-.94.16-1.36c.06-.42.15-.64.27-.67.15-.15.39-.18.72-.09.33.09.61.07.85-.05.09 0 .36-.01.8-.04.45-.03.92-.05 1.43-.05h1.4c.43 0 .73.03.91.09.24.12.45.22.63.29.18.07.55.05 1.12-.07.62-.06.99-.27 1.11-.62.12-.35.19-.81.22-1.38.09-.59-.06-.95-.44-1.09-.38-.13-.71-.27-.98-.42-.32-.06-.74.01-1.24.2s-.9.32-1.2.38h-.73c-.34 0-.68-.02-1.02-.07-.34-.04-.66-.09-.98-.13-.31-.04-.54-.06-.69-.06-.18.09-.39.13-.64.13s-.53.02-.82.04c-.24.06-.52.09-.85.09v-4.96c0-.64.03-1.05.09-1.22 1.36-.03 2.63-.09 3.78-.18.98-.03 1.9-.06 2.76-.09.86-.03 1.4-.05 1.6-.05.36 0 .82.04 1.4.13s1.09.09 1.54 0c.5-.03.85-.2 1.05-.51.19-.31.32-.62.38-.91.06-.33-.04-.74-.29-1.25-.25-.51-.52-.82-.82-.94-.2-.12-.52-.14-.93-.07-.42.07-.74.18-.98.33-.18.09-.45.16-.8.22-.36.06-.73.12-1.11.18-.39.06-.78.1-1.18.13-.4.03-.71.04-.91.04-.2 0-.63-.01-1.26-.05-.64-.03-1.33-.06-2.07-.08-.74-.03-1.42-.03-2.05 0-.62.02-1.04.08-1.24.17-.21.15-.38.47-.51.98-.13.5-.24 1.07-.31 1.71-.07.63-.13 1.24-.15 1.82-.03.57-.04 1.03-.04 1.35s.03.75.09 1.27.11 1.01.16 1.49c.04.47.08.92.11 1.33.03.41.01.69-.05.84-.06.24-.15.66-.26 1.27-.12.61-.18 1.18-.18 1.71 0 .23.02.69.07 1.38.04.68.1 1.38.17 2.11l.2 2c.06.61.09.93.09.96 0 .14.1.41.31.8.21.38.47.62.8.71.15 0 .65.01 1.49.02.85.02 1.78.02 2.8.02h4.33c.15 0 .41.04.78.13.37.09.76.17 1.16.24.4.08.75.14 1.05.18.3.05.54.07.71.07.27 0 .63-.15 1.09-.47.46-.31.72-.65.78-1 0-.35-.05-.82-.15-1.4-.1-.58-.36-.91-.78-1z"/><path fill="none" d="M122.802 167.91c.088-.087.29-.146.6-.177.312-.03.645-.103 1-.223.417-.088.892-.178 1.425-.267h-4.225c-.06.445-.09.845-.09 1.2v1.515c0 .414-.014.682-.043.8-.09.148-.15.28-.18.4.8 0 1.49-.014 2.09-.046.56-.087 1.06-.133 1.49-.133.43 0 .7-.02.82-.05h-.34s-.55-.03-.89-.09l-1.03-.18c-.34-.06-.54-.24-.6-.54-.15-.48-.24-.94-.27-1.4-.03-.46.04-.73.22-.82zm5.382 2.982l1.245.846c-.24-.297-.48-.504-.71-.624-.21-.118-.39-.193-.54-.222zm-31.18 5.648c-.387.06-.69.127-.913.2-.09.033-.15.052-.2.064.08-.005.25-.018.52-.042.34-.028.71-.073 1.11-.133.4-.06.75-.1 1.03-.11.28-.02.41-.03.38-.03-.15-.12-.4-.16-.78-.11s-.74.09-1.13.15zm26.776 0c-.386.06-.69.127-.913.2-.093.033-.157.052-.2.064.074-.005.243-.018.512-.042.34-.028.71-.073 1.11-.133.4-.06.74-.1 1.02-.11.28-.02.4-.03.38-.03-.15-.12-.41-.16-.78-.11-.37.04-.75.09-1.13.15zm-27.756-8.63c.09-.087.29-.146.6-.177.313-.03.647-.103 1-.223.417-.088.892-.178 1.426-.267h-4.227c-.06.445-.09.845-.09 1.2v1.515c0 .414-.014.682-.043.8-.09.148-.15.28-.178.4.8 0 1.498-.014 2.09-.046.563-.087 1.06-.133 1.49-.133.43 0 .704-.02.823-.05h-.333s-.548-.03-.89-.09l-1.022-.18c-.34-.06-.54-.24-.6-.54-.15-.48-.238-.94-.268-1.4-.03-.46.044-.73.222-.82zm-15.79 14.858c-.18-.06-.4-.162-.668-.31-.06-.06-.193-.23-.4-.512-.207-.283-.444-.602-.712-.958-.267-.354-.52-.703-.755-1.044-.24-.342-.42-.616-.54-.824-.15-.205-.48-.666-.98-1.38-.51-.71-1.07-1.422-1.69-2.134-.65-.89-1.38-1.824-2.18-2.803v-.133c0-.09.09-.206.27-.355.15-.18.58-.66 1.29-1.445.71-.786 1.35-1.43 1.91-1.935.32-.268.7-.586 1.13-.957.43-.372.84-.75 1.22-1.135s.72-.732 1-1.045c.28-.312.46-.527.55-.646.03-.06 0-.185-.07-.378-.08-.19-.16-.362-.25-.513-.15-.2-.29-.42-.4-.66l.22-.13c.12-.12.21-.12.26-.02.06.11.18.2.35.29.12.03.28.05.49.05h.17l.09.49c.07.17.11.34.12.51.05-.17.08-.36.06-.61-.03-.4-.11-.64-.22-.73-.03-.11-.23-.22-.6-.31s-.62-.13-.74-.13c-.03.06-.15.15-.36.27-.12.03-.19.11-.22.23l-.4.13c-.06.09-.26.22-.58.4-.24.18-.57.58-1 1.2-.43.62-.78 1.05-1.05 1.29-.12.18-.37.47-.76.87s-.79.8-1.2 1.2c-.42.4-.82.8-1.22 1.2s-.67.7-.78.91c-.39.41-.72.87-1 1.38-.29.5-.47.78-.56.84-.09.09-.31.27-.67.54-.36.27-.73.59-1.11.96-.39.37-.77.72-1.14 1.05-.37.33-.59.49-.65.49s-.17-.45-.31-1.34c-.06-.5-.09-1-.09-1.51s.07-.74.22-.71c.06.09.18.23.38.42.19.2.35.28.47.25.06-.09.08-.24.07-.47-.02-.22-.02-.47-.02-.74v-.64c0-.34 0-.69.02-1.05s.02-.69.02-1v-.6c0-.14-.04-.35-.11-.62-.08-.26-.11-.43-.11-.48 0-.12.09-.44.29-.98.19-.53.29-.92.29-1.15 0-.12-.03-.26-.09-.43-.06-.16-.11-.32-.14-.47-.12-.18-.19-.33-.22-.44 0-.09.01-.15.04-.18.12-.12.25-.18.4-.18.39 0 .64.08.76.22.15.12.22.29.22.49 0 .21.05.72.14 1.52.09.81.09 1.74 0 2.81-.09.57-.15 1.12-.18 1.65.03-.09.09-.23.18-.44.03-.12.06-.26.09-.42.02-.16.07-.29.13-.38 0-.12.01-.44.04-.95.03-.52.04-1.06.04-1.62s-.01-1.1-.04-1.6-.05-.8-.05-.89c-.06-.12-.19-.32-.38-.6l-.38-.55c-.09 0-.29.12-.58.36-.15.09-.3.23-.44.4h-.27c-.12 0-.2.03-.25.09-.04.06-.13.11-.24.14-.24.12-.52.32-.85.6-.33.28-.52.53-.58.74-.18.21-.22.43-.13.67.09.24.13.44.13.62 0 .06 0 .22.02.49s.04.56.09.89c.04.33.08.63.11.91s.04.5.04.65c0 .18.02.49.05.91.03.44.05.89.07 1.36.02.48.05.89.11 1.25s.09.57.09.63c0 .17.02.54.05 1.11.03.56.06 1.04.09 1.42.09.45.08.82-.02 1.13-.11.32-.16.63-.16.96v3.56c0 .81.01 1.55.02 2.23.02.68.03 1.07.03 1.16.2.47.59.62 1.15.44.32-.15.62-.34.89-.58.26-.24.4-.46.4-.67 0-.17-.05-.37-.14-.57-.09-.2-.14-.37-.14-.49-.03-.17-.04-.43-.04-.77s-.03-.63-.09-.87c0-.15-.01-.38-.04-.69-.03-.31-.06-.64-.09-.98s-.04-.66-.04-.96v-.53c0-.06-.03-.12-.09-.18s0-.21.18-.44c.15-.3.29-.55.44-.76.15-.21.32-.39.53-.54.06-.12.2-.29.42-.51.22-.22.45-.48.69-.78.21-.3.47-.64.8-1.02l.18.13c.03.03.1.08.2.14.1.06.22.13.33.22.09.12.28.36.58.73.29.37.6.79.91 1.25.31.46.63.92.96 1.37.32.46.55.81.66 1.05.15.27.38.59.69.96.31.37.61.78.89 1.22.28.45.52.86.71 1.25.19.38.35.64.47.75.18.33.35.7.53 1.13.18.43.39.77.63 1 .33.45.85.45 1.56 0 .42-.23.65-.59.71-1.06.06-.47.07-.84.05-1.11.01-.21-.08-.34-.26-.4zm-.024-2.134c-.696-1.008-1.452-2.1-2.267-3.27-.816-1.17-1.595-2.225-2.335-3.16-.185-.23-.345-.438-.486-.624.32.502.632 1.002.93 1.492.446.624.875 1.27 1.292 1.937.415.66.71 1.11.89 1.35.266.29.547.64.844 1.04.296.4.585.82.868 1.26.28.44.54.83.78 1.15.235.32.354.5.354.53 0 .12.03.31.09.57.058.27.088.52.088.76 0 .11-.016.23-.046.35s-.043.24-.043.36c-.06.18-.09.28-.09.31.11-.24.2-.49.26-.76.12-.51.12-1.01 0-1.52-.06-.2-.44-.81-1.14-1.82zm26.178 1.423c-.355-.118-.963-.017-1.824.312-.86.32-1.54.51-2.046.57-.237.09-.674.1-1.31.04-.64-.06-1.313-.14-2.025-.23s-1.364-.16-1.957-.22c-.595-.06-.98-.09-1.156-.09-.238 0-.602.06-1.09.2-.49.13-.822.12-1-.02-.21-.12-.253-.37-.134-.74.12-.37.178-.62.178-.74 0-.09-.01-.27-.022-.56-.016-.28-.083-.57-.2-.87-.06-.06-.098-.34-.11-.83-.017-.49 0-.98.042-1.47.044-.49.096-.94.156-1.36.06-.42.15-.64.268-.67.148-.15.384-.18.71-.09.327.09.61.07.846-.05.09 0 .356-.01.8-.04.446-.03.92-.05 1.424-.05h1.4c.43 0 .734.03.913.09.24.12.45.22.63.29.18.07.55.05 1.11-.07.63-.06 1-.27 1.12-.62.12-.35.19-.81.23-1.38.09-.59-.06-.95-.44-1.09-.38-.13-.71-.27-.98-.42-.32-.06-.74.01-1.24.2s-.9.32-1.2.38h-.73c-.34 0-.68-.02-1.02-.07-.34-.04-.66-.09-.98-.13-.31-.04-.54-.06-.68-.06-.18.09-.39.13-.64.13s-.52.02-.82.04c-.24.06-.52.09-.84.09v-4.96c0-.64.03-1.05.09-1.22 1.36-.03 2.62-.09 3.78-.18.98-.03 1.9-.06 2.76-.09.86-.03 1.4-.05 1.6-.05.36 0 .82.04 1.4.13s1.09.09 1.54 0c.5-.03.85-.2 1.04-.51.19-.31.32-.62.38-.91.06-.33-.03-.74-.29-1.25-.25-.51-.53-.82-.82-.94-.21-.12-.52-.14-.93-.07-.41.07-.74.18-.98.33-.17.09-.44.16-.8.22-.35.06-.73.12-1.11.18s-.77.1-1.17.13c-.4.03-.7.04-.91.04-.21 0-.63-.01-1.26-.05-.64-.03-1.33-.06-2.07-.08-.74-.03-1.43-.03-2.05 0-.62.02-1.04.08-1.24.17-.2.15-.37.47-.51.98-.13.5-.24 1.07-.31 1.71-.07.63-.13 1.24-.15 1.82-.03.57-.04 1.03-.04 1.35s.03.75.09 1.27.11 1.01.15 1.49.08.92.11 1.33c.03.41.02.69-.04.84-.06.24-.15.66-.27 1.27-.12.61-.18 1.18-.18 1.71 0 .23.03.69.07 1.38.04.68.1 1.38.18 2.11l.2 2c.06.61.09.93.09.96 0 .14.1.41.31.8.21.38.47.62.8.71.15 0 .64.01 1.49.02.84.02 1.78.02 2.8.02h4.34c.15 0 .41.04.78.13.37.09.75.17 1.15.24.4.08.75.14 1.05.18.3.05.54.07.71.07.27 0 .63-.15 1.09-.47.46-.31.72-.65.78-1 0-.35-.05-.82-.15-1.4-.11-.58-.36-.91-.78-1zm-4.98-11.165l1.244.846c-.237-.297-.475-.504-.71-.624-.21-.118-.386-.193-.535-.222z"/><path fill="none" d="M95.29 178.253c-.045-.4-.125-.764-.244-1.09-.09-.297-.194-.592-.313-.89 0 .148.016.452.046.913.02.46.07.97.13 1.534.06.652.1 1.334.13 2.046l.52-.095c-.01-.01-.02-.02-.02-.03-.02-.15-.04-.47-.07-.98-.09-.53-.16-1-.2-1.4zm64.83-8.386c0-1.748-.28-3.112-.845-4.09-.563-.98-1.208-1.697-1.934-2.158-.72-.46-1.43-.75-2.11-.85-.68-.11-1.17-.16-1.46-.16h-5.63c-.61 0-.98.03-1.13.09-.23.06-.44.22-.6.49-.16.26-.24.53-.24.8 0 .09-.02.33-.06.73-.04.4-.08.86-.13 1.4-.04.53-.07 1.07-.09 1.6-.01.53-.02 1.05-.02 1.56 0 .44.01 1 .02 1.67.02.66.06 1.29.11 1.89.06.59.13 1.14.2 1.64.08.5.11.83.11.98 0 .23-.03.6-.11 1.11-.07.5-.15 1.07-.22 1.69s-.14 1.23-.22 1.82c-.07.59-.14 1-.2 1.24-.12.53-.09 1.06.09 1.6.18.53.64 1.01 1.38 1.42.68.41 1.11.43 1.29.06.18-.37.31-.69.4-.96 0-.24-.06-.52-.18-.85-.12-.33-.22-.58-.31-.76-.12-.12-.23-.42-.33-.89-.1-.48-.15-.94-.15-1.38v-1.14c0-.46.03-.96.09-1.49 0-.57.03-1.19.09-1.87.09.03.24.07.45.13.12.06.26.11.44.15.18.05.36.07.53.07.24.12.44.17.6.17.17 0 .43-.06.78-.18.15-.03.74-.02 1.78.04s2.11-.04 3.21-.31 2.11-.78 3.05-1.56c.93-.77 1.4-2.03 1.4-3.78zm-2.646.87c-.282.4-.6.763-.956 1.088-.354.328-.71.57-1.067.734-.35.16-.6.24-.75.24h-.96c-.46 0-.92-.05-1.4-.14-.56 0-1.15-.02-1.78-.05-.12 0-.25.01-.4.04-.09.09-.21.14-.37.15-.16.02-.3.04-.42.07-.56.18-.96.09-1.2-.27 0-.41.02-.8.05-1.16.03-.33.06-.63.09-.92.03-.28.05-.53.05-.73 0-.15-.01-.45-.04-.89-.02-.45-.05-.89-.06-1.34-.02-.44-.03-.87-.05-1.27s0-.65.03-.74c.09-.21.17-.29.25-.24.07.04.17.07.29.07.18 0 .44.03.78.11.34.07.63.11.86.11h2.32c.12 0 .34-.01.67-.03.33-.01.66-.02 1-.02s.69.01 1.05.02c.36.02.64.08.85.2.42.24.79.58 1.13 1.02.34.45.51 1.26.51 2.45 0 .57-.14 1.05-.42 1.45z"/><path fill="none" d="M161.01 165.732c-.178-.444-.392-.846-.645-1.202-.25-.354-.497-.666-.734-.933-.21-.188-.46-.362-.75-.532.03.027.06.05.09.087.12.088.23.207.33.355s.26.297.47.443c.45.417.82 1.068 1.12 1.96.3.89.44 1.748.44 2.578.09.8-.03 1.735-.37 2.803-.34 1.07-.73 1.89-1.18 2.45-.23.24-.52.49-.86.76-.34.27-.71.49-1.09.67-.39.21-.8.46-1.25.76.89-.12 1.77-.6 2.65-1.46.88-.86 1.48-1.69 1.8-2.49.39-.86.56-1.87.54-3.04-.03-1.17-.21-2.22-.53-3.18zm-8.585 5.96c.296.18.58.18.846 0l-1.38-.355c.15.147.33.267.54.355zm-30.357 6.56c-.045-.4-.127-.763-.244-1.09-.09-.296-.194-.59-.312-.89 0 .15.015.453.044.914.03.46.073.97.133 1.534.05.652.1 1.334.13 2.046l.52-.095c0-.01-.01-.02-.02-.03-.02-.15-.04-.47-.07-.98-.09-.53-.16-1-.2-1.4zm29.157-1.444c-.416-.03-.838-.09-1.27-.178-.428-.09-.748-.252-.954-.49l.32.802c.12.208.21.408.27.6.06.193.09.35.09.467 0 .09.02.34.05.77.03.43.05.88.05 1.35V182l.14-4.76 2.98-.444c-.56.09-1.11.09-1.64 0zm-2.18-10.41c-.088.03-.08.268.022.713.103.45.156.79.156 1.03 0 .27.02.56.066.87.04.32.02.59-.07.83-.12.3-.2.51-.23.62-.06.12-.09.21-.09.27.12-.03.26-.14.44-.35.12-.12.23-.29.35-.53.12-.24.22-.47.31-.71.03-.56-.05-1.19-.25-1.89-.19-.7-.44-.97-.73-.82zm3.692.625c.146-.03.267-.104.354-.224h-.75c-.21 0-.37.02-.49.06-.12.04-.15.08-.09.11.3.18.63.19.98.04z"/><path d="M166.258 146.115H58.174v41.138H166.26v-41.138zm-96.61 31.14c-.03.058-.075.162-.134.31-.06.148-.105.267-.133.355-.15.236-.2.623-.15 1.155.05.534.1 1.41.16 2.625.03.624.02 1.112-.02 1.468-.04.356-.12.683-.24.98-.09.238-.21.414-.35.532.03-.088.08-.176.14-.267l.23-.444c.03-.18.03-.55 0-1.09-.03-.55-.04-.9-.04-1.05 0-.03-.01-.22-.04-.58s-.07-.72-.13-1.09c-.06-.37-.09-.73-.11-1.07-.01-.35-.02-.56-.02-.65 0-.12.18-.43.54-.94.18-.18.36-.42.53-.72-.06.12-.12.26-.18.44zm10.81 7.026c-.06.48-.298.83-.713 1.07-.712.45-1.23.45-1.557 0-.237-.23-.444-.57-.623-1-.18-.43-.356-.81-.534-1.13-.11-.12-.27-.37-.46-.75s-.43-.8-.71-1.24c-.28-.44-.58-.85-.89-1.22-.31-.37-.54-.69-.69-.95-.12-.23-.34-.58-.66-1.04-.32-.46-.64-.92-.95-1.38-.31-.46-.61-.87-.91-1.24-.3-.37-.49-.61-.58-.73-.12-.09-.23-.16-.33-.22s-.17-.1-.2-.13l-.18-.13c-.32.39-.59.73-.8 1.03-.23.3-.46.56-.68.78-.22.22-.36.39-.42.51-.21.15-.38.33-.53.53-.15.21-.29.46-.44.76-.18.24-.23.39-.18.45.06.06.09.12.09.18v.53s.02.62.05.96.06.67.09.98c.03.32.05.54.05.69.06.24.09.53.09.87s.02.6.05.78c0 .12.05.29.14.49.09.21.14.4.14.58 0 .21-.13.43-.4.67-.27.24-.56.43-.89.58-.56.18-.95.03-1.16-.44 0-.09 0-.47-.02-1.15s-.02-1.42-.02-2.22v-3.56c0-.32.05-.64.16-.96.1-.31.11-.68.02-1.13-.03-.38-.06-.86-.09-1.42-.03-.56-.04-.93-.04-1.11 0-.06-.03-.27-.09-.62s-.1-.77-.11-1.24c-.02-.47-.04-.92-.07-1.35-.03-.43-.04-.73-.04-.91 0-.15-.02-.36-.05-.65-.03-.28-.07-.58-.11-.91-.04-.32-.07-.62-.09-.89s-.02-.43-.02-.49c0-.18-.04-.38-.13-.62s-.04-.46.13-.67c.06-.21.25-.45.58-.74.33-.28.61-.48.85-.6.12-.03.2-.07.24-.13.05-.06.13-.09.25-.09h.27c.15-.17.3-.31.45-.4.3-.23.49-.35.58-.35.06.09.18.27.38.56.2.28.32.48.38.6 0 .09.02.39.05.89.03.5.05 1.04.05 1.6s-.01 1.11-.04 1.62c-.03.52-.04.84-.04.96-.06.09-.1.22-.13.38s-.06.3-.09.42c-.09.2-.15.35-.18.44.03-.53.09-1.08.18-1.65.09-1.06.09-2 0-2.8-.09-.8-.13-1.3-.13-1.51 0-.2-.08-.37-.22-.49-.12-.14-.38-.22-.76-.22-.15 0-.28.06-.4.18-.03.03-.04.09-.04.18.03.12.11.27.22.45.03.15.08.3.14.46.06.17.09.31.09.43 0 .24-.09.63-.29 1.16-.19.54-.29.86-.29.98 0 .06.04.22.11.49.08.27.11.47.11.62v.6c0 .31-.01.65-.02 1-.01.36-.02.71-.02 1.05v.65c0 .27.01.51.03.74.01.22-.01.38-.07.46-.12.03-.28-.05-.47-.24-.19-.19-.32-.34-.38-.43-.15-.03-.22.21-.22.71s.03 1.01.09 1.51c.15.89.25 1.34.31 1.34s.28-.16.65-.49c.37-.33.75-.67 1.13-1.04.39-.37.76-.69 1.11-.96.36-.27.58-.44.67-.53.09-.06.28-.34.56-.85.28-.5.61-.96 1-1.38.11-.2.37-.51.78-.91s.8-.8 1.22-1.2c.41-.4.81-.8 1.2-1.2.39-.4.64-.69.76-.86.26-.24.61-.67 1.04-1.29.43-.62.76-1.02 1-1.2.33-.18.52-.31.58-.4l.4-.13c.03-.12.1-.19.22-.22.21-.12.33-.21.36-.27.12 0 .36.04.73.13s.57.19.6.31c.12.09.19.34.22.74.02.24-.01.44-.06.61-.01-.17-.05-.34-.12-.51l-.09-.48h-.18c-.21 0-.37-.01-.49-.04-.18-.09-.3-.19-.36-.29-.06-.1-.15-.1-.27.02l-.22.14c.12.24.25.46.4.67.09.15.17.32.24.52.08.19.1.32.07.38-.09.12-.27.34-.55.65-.29.32-.62.66-1.01 1.05s-.79.76-1.22 1.13c-.43.37-.81.69-1.14.96-.56.51-1.2 1.15-1.91 1.94-.71.78-1.14 1.26-1.29 1.44-.18.15-.27.27-.27.36v.14c.8.98 1.53 1.91 2.18 2.8.62.71 1.19 1.42 1.69 2.14.51.72.83 1.18.98 1.38.12.21.3.49.53.83.24.34.49.69.76 1.05.27.35.51.67.72.96.2.28.34.45.4.51.26.15.49.25.66.31s.27.19.27.4c.02.27.01.64-.05 1.11zm.887-.31c-.06.27-.148.52-.266.76 0-.03.03-.13.08-.31 0-.11.01-.23.04-.35.03-.12.04-.23.04-.35 0-.23-.03-.49-.09-.76-.06-.26-.09-.46-.09-.57 0-.03-.12-.21-.36-.53-.24-.32-.5-.71-.78-1.15-.28-.44-.57-.86-.87-1.27-.3-.4-.58-.74-.85-1.04-.18-.24-.48-.69-.89-1.35-.42-.67-.85-1.31-1.29-1.93-.3-.49-.61-.99-.93-1.49.14.19.3.4.48.63.74.93 1.52 1.99 2.33 3.16s1.57 2.27 2.27 3.27c.69 1.01 1.07 1.62 1.13 1.83.12.51.12 1.01 0 1.51zm25.2 1.49c-.46.32-.824.47-1.09.47-.18 0-.416-.02-.712-.06-.297-.04-.646-.1-1.046-.18-.4-.07-.786-.15-1.156-.24-.37-.09-.63-.13-.77-.13h-4.34s-1.96 0-2.8-.02c-.84-.01-1.34-.02-1.49-.02-.32-.09-.59-.32-.8-.71-.21-.38-.31-.65-.31-.8 0-.03-.03-.34-.09-.95s-.12-1.27-.2-2c-.07-.72-.13-1.43-.17-2.11-.04-.68-.06-1.14-.06-1.38 0-.53.06-1.1.18-1.71.12-.61.21-1.03.27-1.27.06-.15.08-.43.05-.84s-.07-.86-.11-1.33c-.05-.47-.1-.97-.16-1.49s-.09-.94-.09-1.27.02-.78.05-1.35.08-1.18.16-1.82c.08-.64.18-1.21.31-1.71.14-.5.31-.83.52-.98.21-.09.62-.15 1.25-.18.62-.03 1.3-.03 2.05 0 .74.03 1.43.06 2.07.09.64.03 1.06.05 1.27.05.21 0 .51-.01.91-.04s.79-.07 1.18-.13c.39-.06.76-.12 1.12-.18.36-.06.62-.13.8-.22.24-.15.56-.26.98-.33.42-.07.73-.05.94.07.3.12.57.43.83.94.25.51.35.92.29 1.25-.06.3-.19.6-.38.92-.2.31-.54.48-1.05.51-.44.09-.95.09-1.53 0-.58-.09-1.05-.14-1.4-.14-.21 0-.75.02-1.61.05-.86.03-1.78.06-2.75.09-1.15.09-2.41.15-3.78.18-.06.18-.09.59-.09 1.22v4.96c.33 0 .61-.03.85-.09.3-.02.57-.04.82-.04s.47-.04.65-.13c.15 0 .38.02.69.07.31.05.64.09.98.14.34.04.69.06 1.03.06h.74c.3-.06.7-.19 1.2-.38.51-.19.92-.26 1.25-.2.27.15.59.29.98.42.38.13.53.5.44 1.09-.03.56-.11 1.02-.22 1.38-.12.35-.49.56-1.11.62-.56.12-.93.14-1.11.07-.17-.07-.38-.17-.62-.29-.18-.06-.48-.09-.91-.09H98s-.98.02-1.42.05c-.44.03-.71.04-.8.04-.238.12-.52.13-.846.04-.324-.09-.56-.06-.71.09-.12.03-.21.26-.27.67-.06.42-.11.87-.152 1.36-.04.49-.06.98-.04 1.47.01.49.05.77.11.83.12.3.185.59.2.87.013.28.02.47.02.56 0 .12-.06.36-.174.73-.12.37-.075.62.13.73.18.15.514.16 1 .02.49-.13.855-.2 1.09-.2.18 0 .565.03 1.16.09.59.06 1.245.14 1.957.22.713.09 1.387.17 2.025.23.634.06 1.07.05 1.31-.04.503-.06 1.185-.25 2.044-.57.86-.33 1.47-.43 1.827-.31.42.09.68.42.78 1 .11.58.16 1.05.16 1.4-.06.36-.32.69-.78 1zm-3.893-13.72l-1.245-.84c.15.03.326.11.534.23.24.12.48.33.72.63zm-6.85-3c.03.46.118.93.268 1.4.06.3.26.48.6.54l1.022.18c.342.06.638.09.89.09h.333c-.12.03-.394.05-.822.05-.43 0-.93.05-1.49.14-.593.03-1.29.05-2.09.05.028-.12.087-.25.177-.4.03-.12.043-.38.043-.8v-1.51c0-.35.03-.75.09-1.2h4.227c-.534.09-1.01.18-1.425.27-.355.12-.688.2-1 .23-.312.03-.512.09-.6.18-.18.09-.253.37-.223.82zm3.114 7.76c.03 0-.097.01-.378.03-.282.02-.623.05-1.023.11-.4.06-.77.11-1.11.14-.27.03-.44.04-.514.04.05-.01.11-.03.21-.06.22-.07.53-.14.91-.2s.76-.11 1.14-.15.63 0 .78.11zm-3.345 4.18l-.52.1c-.03-.71-.07-1.39-.13-2.04-.06-.56-.1-1.07-.13-1.53-.03-.46-.04-.76-.04-.91.12.3.23.6.32.89.12.33.2.69.25 1.09.05.4.11.87.2 1.4.03.51.05.83.07.98 0 .02.01.02.01.04zm37.76 4.79c-.46.32-.82.47-1.09.47-.18 0-.41-.02-.71-.06-.29-.04-.64-.1-1.04-.18-.4-.07-.78-.15-1.16-.24-.37-.09-.63-.13-.77-.13h-4.34c-1.02 0-1.95 0-2.8-.02-.84-.01-1.34-.02-1.49-.02-.33-.09-.59-.32-.8-.71-.21-.38-.31-.65-.31-.8 0-.03-.03-.35-.09-.95l-.2-2c-.07-.73-.13-1.43-.18-2.11-.04-.68-.07-1.14-.07-1.38 0-.53.06-1.1.18-1.71.12-.61.21-1.03.27-1.27.06-.15.08-.43.05-.84s-.06-.86-.11-1.33c-.04-.47-.09-.97-.15-1.49s-.09-.94-.09-1.27.02-.78.05-1.35c.03-.58.08-1.19.16-1.82.07-.64.18-1.21.31-1.71.13-.51.3-.83.51-.98.2-.09.62-.15 1.24-.18s1.3-.03 2.05 0c.74.03 1.43.06 2.07.09.64.03 1.06.04 1.27.04.21 0 .51-.01.91-.04s.79-.07 1.18-.13c.39-.06.76-.12 1.11-.18.36-.06.63-.14.81-.22.24-.15.57-.26.98-.33.42-.07.73-.05.94.07.3.12.57.43.82.93.26.51.35.92.29 1.25-.06.3-.18.61-.37.92-.2.31-.55.48-1.05.51-.45.09-.96.09-1.54 0s-1.04-.13-1.4-.13c-.21 0-.74.02-1.6.05-.86.03-1.78.06-2.75.09-1.15.09-2.41.15-3.78.18-.06.18-.09.59-.09 1.22v4.96c.33 0 .61-.03.85-.09.3-.03.57-.05.82-.05s.47-.04.65-.13c.15 0 .38.02.69.07.31.05.64.09.98.14.34.05.68.07 1.02.07h.73c.29-.06.69-.18 1.2-.38.5-.19.92-.25 1.24-.2.26.15.59.29.98.43.38.13.53.5.44 1.09-.03.56-.1 1.02-.22 1.38-.12.35-.49.56-1.11.62-.56.12-.94.14-1.11.07-.18-.07-.39-.17-.63-.28-.18-.06-.48-.09-.91-.09h-1.4c-.5 0-.98.02-1.42.05-.44.03-.71.05-.8.05-.24.12-.52.13-.84.05-.32-.09-.56-.06-.71.09-.12.03-.21.25-.27.67-.06.42-.11.87-.15 1.36-.04.49-.06.98-.04 1.47.01.49.05.77.11.83.12.3.19.59.2.87.02.28.02.47.02.55 0 .12-.06.36-.18.73s-.07.62.14.73c.18.15.51.16 1 .02s.85-.2 1.09-.2c.18 0 .56.03 1.15.09.59.06 1.25.14 1.96.22.71.09 1.39.17 2.02.23.64.06 1.07.05 1.31-.04.51-.06 1.19-.25 2.05-.58.86-.33 1.47-.43 1.82-.31.41.09.67.43.78 1 .1.58.15 1.05.15 1.41-.06.35-.32.69-.78 1zm-3.89-13.72l-1.24-.84c.15.03.33.11.54.23.23.12.47.33.71.63zm-6.85-3c.03.46.12.93.27 1.41.06.3.26.48.6.54l1.03.18c.34.06.64.09.89.09h.34c-.11.03-.39.05-.82.05-.43 0-.92.05-1.49.13-.59.04-1.29.05-2.09.05.03-.12.09-.25.18-.4.03-.12.05-.38.05-.8v-1.51c0-.35.03-.75.09-1.2h4.23c-.53.09-1.01.18-1.42.27-.35.12-.68.2-1 .23-.31.03-.51.09-.6.18-.18.09-.25.37-.22.82zm3.12 7.77c.03 0-.09.01-.38.03-.28.02-.62.05-1.02.11s-.77.1-1.11.13c-.27.03-.43.04-.51.05.05-.01.11-.03.2-.06.23-.07.53-.14.92-.2s.76-.11 1.14-.15c.37-.04.63-.01.78.11zm-3.34 4.18l-.52.1c-.03-.71-.07-1.39-.13-2.04-.06-.56-.1-1.07-.13-1.53-.03-.46-.04-.76-.04-.91.12.3.23.6.31.89.12.33.2.69.24 1.09.05.4.12.87.2 1.4.03.51.05.83.07.98 0 .02.01.02.01.04zm27.55-3.42l-.13 4.76v-1.87c0-.47-.02-.92-.04-1.35-.03-.43-.04-.69-.04-.78 0-.11-.03-.27-.09-.46s-.15-.39-.27-.6l-.31-.8c.21.24.53.4.96.49.43.09.85.15 1.27.18.53.09 1.08.09 1.64 0l-2.98.45zm2.58-1.73c-1.03-.06-1.63-.07-1.77-.04-.35.12-.61.18-.78.18-.16 0-.36-.05-.6-.17-.17 0-.35-.02-.53-.06-.18-.04-.33-.1-.44-.16-.21-.06-.35-.11-.44-.14-.06.68-.09 1.31-.09 1.87-.06.54-.09 1.03-.09 1.49v1.14c0 .45.06.91.16 1.38.11.48.22.77.34.89.09.18.2.43.32.76s.18.61.18.85c-.09.27-.22.59-.4.96-.18.37-.6.35-1.29-.07-.74-.42-1.2-.89-1.38-1.42-.17-.53-.2-1.06-.08-1.6.06-.24.12-.65.2-1.24l.22-1.82s.15-1.18.22-1.69.11-.87.11-1.11c0-.15-.04-.47-.11-.98-.08-.51-.14-1.06-.2-1.65-.06-.59-.1-1.22-.11-1.89-.02-.67-.02-1.22-.02-1.67 0-.5.01-1.02.02-1.55.02-.53.05-1.06.09-1.6.05-.53.09-1 .14-1.4.05-.4.07-.64.07-.73 0-.26.09-.53.25-.8.17-.27.37-.43.61-.49.15-.06.53-.09 1.14-.09h5.63c.29 0 .78.06 1.46.16.68.11 1.39.39 2.12.85.73.46 1.37 1.18 1.94 2.16.57.98.85 2.35.85 4.09 0 1.76-.47 3.02-1.4 3.79-.93.77-1.95 1.29-3.05 1.56-1.1.26-2.17.37-3.21.31zm6.74-1.06c-.87.86-1.75 1.35-2.64 1.47.45-.3.86-.55 1.25-.76.39-.17.75-.4 1.09-.66.34-.26.63-.52.87-.75.45-.56.84-1.38 1.18-2.44.34-1.06.47-2 .38-2.8 0-.83-.15-1.69-.44-2.58-.3-.89-.67-1.54-1.11-1.96-.21-.14-.36-.29-.47-.44s-.22-.27-.33-.36c-.03-.04-.06-.06-.09-.09.29.17.55.35.76.53.24.27.48.58.74.93.25.36.47.76.65 1.21.32.95.5 2.01.53 3.18.03 1.17-.15 2.19-.53 3.05-.33.8-.93 1.63-1.8 2.49z"/><path d="M156.25 165.82c-.208-.117-.488-.185-.844-.2-.356-.014-.705-.02-1.046-.02s-.674.007-1 .02c-.328.016-.55.022-.67.022h-2.312c-.236 0-.528-.036-.866-.11-.343-.074-.602-.11-.78-.11-.118 0-.215-.023-.287-.068-.074-.044-.157.038-.245.245-.03.08-.038.33-.023.73l.046 1.26c.014.44.037.89.065 1.33.03.44.046.74.046.89 0 .2-.016.45-.046.73-.028.28-.06.58-.088.91-.03.35-.044.74-.044 1.15.236.35.637.44 1.2.27.12-.03.26-.05.423-.07.16-.02.28-.07.37-.16.15-.03.28-.05.4-.05.62.03 1.21.04 1.78.04.47.09.94.13 1.4.13h.95c.14 0 .4-.08.75-.25.35-.16.71-.4 1.06-.73.35-.33.67-.69.95-1.09s.42-.88.42-1.45c0-1.19-.17-2-.51-2.45-.34-.45-.72-.79-1.13-1.03zm-6.537 4.005c-.12.236-.237.414-.357.532-.178.21-.325.327-.444.355 0-.06.03-.146.09-.266.03-.117.103-.327.223-.622.088-.237.11-.512.066-.823-.04-.31-.06-.6-.06-.86 0-.23-.05-.57-.15-1.02-.1-.44-.11-.68-.02-.71.3-.14.54.13.74.83.2.7.28 1.33.25 1.89-.09.24-.19.48-.31.72zm2.135-2.96c.118-.044.28-.065.49-.065h.754c-.088.12-.208.192-.354.224-.356.147-.684.133-.98-.045-.06-.04-.03-.07.09-.12zm.577 4.827c-.207-.09-.385-.208-.534-.355l1.38.355c-.26.18-.55.18-.84 0z"/><path fill="#FFF" d="M104.527 86.732s-17.777 39.01-23.75 3.58c0 0-2.543-7.256.85-10.083 0 0 .47-.66-.566-.76 0 0-6.25.03-3.1 6.31 0 0-7.98-4.48-15.26-2.27 0 0-3.01 2.71 0 3.21l12.23 1.58s-6.96 1.34-.93 5.16c0 0 .57 2.43 3.77 2.65 0 0 8.39 38.1 32.17-7.82"/><path fill="#D0D2D3" d="M75.815 50.71s-6.776-12.326 5.804-8.044c12.58 4.28-5.81 8.045-5.81 8.045z"/><path fill="#919496" d="M78.188 47.31s-6.03-6.09-1.695 2.06c4.336 8.15 1.695-2.06 1.695-2.06zm56.62-2.3l3.528 7.723s10.857-13.506-3.528-7.724z"/><path fill="#FFF" d="M123.806 93.47s-35.725 38.036-24.52 50.49c0 0-26.518-.594-25.45 7.313 0 0 2.653 2.37 3.837 0 0 0 .797 3.36 3.758-.197 0 0 1.78 3.56 4.15 0l21.94-4.943s1.19-.988-3.06-2.57c0 0-8.01-2.09 2.38-20.473 10.4-18.384 16.97-29.62 16.97-29.62z"/><path fill="#FFF" d="M131.344 122.91l1.853-4.704c-9.063-5.286-34.077-19.434-1.853 4.705zm36.326-47.988c-10.597-7.91-11.595 26.09-11.595 26.09.025.04.052.073.077.113 1.97.835 5.09 1.672 7.765.246.088-.2.132-.32.132-.32-.74-11.38-.5-16.82.12-19.11.79-4.47 2.6-9.76 5.77 6.39 0 0 2.06 11.76.45 21.6-1.2 27.94-22.31 17.66-30.79 12.37 3.31 5.11 12.94 16.8 27.68 8.41 5.66-5.3 6.46-14.23 6.46-14.23 4.51-30.17-6.09-41.54-6.09-41.54z"/><path fill="#CCC" d="M139.617 122.29c-.847-1.303-1.28-2.18-1.28-2.18l-4.454-3.646-.687 1.742c1.776 1.034 2.94 1.73 2.94 1.73s1.34 1.02 3.48 2.355z"/><path fill="#FFF" d="M167.67 74.922c-10.597-7.91-11.595 26.09-11.595 26.09.025.04.052.073.077.113 4.496 6.614 7.16 1.623 7.765.246.088-.2.132-.32.132-.32-.74-11.38-.5-16.82.12-19.11 1.12-4.16 3.49 2.11 3.49 2.11 2.23 11 3.01 19.46 2.73 25.89-1.2 27.94-22.31 17.66-30.79 12.37-2.15-1.33-3.48-2.35-3.48-2.35s-1.17-.7-2.94-1.73l-1.86 4.71.23.18c19.49 14.59 30.04 12.92 35.71 7.61 5.66-5.3 6.46-14.23 6.46-14.23 4.51-30.17-6.09-41.54-6.09-41.54z"/><path fill="#CCC" d="M139.617 122.29c-2.143-1.333-3.48-2.353-3.48-2.353s-1.164-.697-2.94-1.73l-1.853 4.704c.08.07.156.12.237.18 19.5 14.59 30.05 12.92 35.72 7.61-14.73 8.4-24.37-3.29-27.68-8.4zm30.327-33.97c-3.168-16.15-4.98-10.857-5.77-6.383 1.124-4.16 3.495 2.102 3.495 2.102 2.23 11 3 19.45 2.73 25.88 1.6-9.84-.46-21.6-.46-21.6zm-13.792 12.805c4.496 6.614 7.16 1.623 7.765.246-2.674 1.43-5.794.59-7.765-.24z"/><path fill="#FFF" d="M141.69 56.72c-2.297-13.548-16.583-23.986-33.873-23.986-18.89 0-34.204 12.454-34.204 27.813 0 15.363 15.313 27.815 34.204 27.815.708 0 1.412-.024 2.11-.058.757 3.3 1.392 8.422-.896 11.52 0 0-15.69 11.733-7.68 22.877-.01-.08-2.06-19.53 12.91-22.99l-2.71-12.25s5.66-1.33 12.27-4.25v15.35s-15.79 18.45-6.85 30.94c15.65-.47 47.12-8.84 24.74-72.76z"/><path fill="#FFF" d="M141.69 56.72c-2.297-13.548-16.583-23.986-33.873-23.986-18.89 0-34.204 12.454-34.204 27.813 0 15.363 15.313 27.815 34.204 27.815.708 0 1.412-.024 2.11-.058.757 3.3 1.392 8.422-.896 11.52 0 0-15.69 11.733-7.68 22.877-.01-.08 4.31 6.8 15.61 6.79 15.65-.47 47.12-8.84 24.74-72.76z"/><path fill="#D0D2D3" d="M123.806 98.555V83.21c-6.608 2.92-12.265 4.25-12.265 4.25l2.72 12.25c-14.97 3.46-12.92 22.91-12.91 22.992 1.57 2.175 2.35 2.912 6.01 4.95 0 0 4.94 1.974 9.6 1.834-8.94-12.486 6.85-30.93 6.85-30.93z"/><ellipse fill="#D0D2D3" cx="102.68" cy="61.161" rx="29.066" ry="22.05"/><path fill="#D0D2D3" d="M131.594 43.427s-.33 2.855 2.324 3.255c0 0 13.018-4.25 3.52 7.172 0 0-1.062 1.727 1.13 3.253 0 0 8.77-7.504 5.977-13.214 0 0-2.127-6.245-12.95-.466z"/><path fill="#6C6F71" d="M96.663 69.563s.718 3.274 0 4.543l.686.117s.76-2.383-.69-5.94v1.28z"/><path fill="#1D8FCD" d="M93.89 67.982s2.528-5.143 3.46-2.427c0 0 2.087-3.057 2.087 1.852 0 0-1.98 1.35-2.088 2.985 0 0-2.05-.822-3.46-2.41z"/><path fill="#FFF" d="M97.35 69.138s.128-.694 1.106-1.388c0 0-.362-1.33-1.107 1.388zm27.886 49.53s-12.005 18.493 1.093 33.054c0 0-31.01-.69-29.76 8.555 0 0 3.1 2.773 4.49 0 0 0 .93 3.93 4.39-.23 0 0 2.07 4.16 4.85 0l25.66-5.78s1.38-1.157-3.59-3.006c0 0-14.49-9.24-2.33-30.74 12.15-21.49-4.82-1.85-4.82-1.85z"/><path fill="#CCC" d="M81.522 150.684s.753-3.056 6.242-2.197c0 0-5.433-1.733-6.242 2.197z"/><path fill="#D0D2D3" d="M77.767 150.684s-.232-3.826 3.755-2.58c0 0-3.062-.6-3.755 2.58zm27.683 8.436s.872-4.277 6.793-1.964c0 0-6.448-3.7-6.794 1.964zm-4.202 0s.316-3.778 2.583-2.54c0 0-1.69-.467-2.58 2.54zm39.61-75.91s2.21 30.24-26.552 20.622c0 0 15.78.096 18.89-19.932"/><path fill="#D0D2D3" d="M133.34 83.52s-8.66 16.01-5.15 17.07c4.893 1.48 7.948-10.903 7.948-10.903l.775-6.166h-3.573zm-22.91 18.5s-7.048-2.207-9.76-4.71c0 0-1.942.317-2.954 1.06l3.408-2.462 7.814 3.375 1.492 2.737z"/><path fill="#D0D2D3" d="M129.412 91.75s-2.558 9.805-19.453 4.39l10.07 7.042 8.38-3.577 2.42-6.374-1.43-1.48zm-22.87 2.716L102.31 91.1s-2.243 3.8-3.047 4.92c-3.1 4.32 7.28-1.554 7.28-1.554z"/><path fill="#FFF" d="M140.858 83.21s-4.767 37.104-39.88 13.548c0 0-1.57.246-3.262 1.61 0 0-.84-7.52 4.963-5.7 0 0 23.04 10.806 26.11 2.156 0 0 4.4-10.924 4.66-11.606"/><path fill="#404041" d="M98.11 48.205L78.4 43.61c-3.246 2.42-5.357 6.276-5.357 10.634 0 7.325 5.94 13.266 13.266 13.266 5.41 0 10.05-3.242 12.11-7.885 2.38 5.59 7.93 9.51 14.39 9.51 8.64 0 15.64-7.005 15.64-15.644 0-4.23-1.69-8.06-4.42-10.88l-25.94 5.6z"/><path fill="#D0D2D3" d="M118.96 69.27s-1.096-6.785 6.538-4.335c7.633 2.45-.754 3.516-.754 3.516l-5.784.82z"/><path fill="#6C6F71" d="M90.973 73.82s36.548 2.724 30.893-6.413c0 0-.894-.042-1.13.476 0 0 .094-2.08 3.58-.38l-1.836-.078s8.387 9.445-31.507 6.772"/><path fill="#6C6F71" d="M91.946 72.312s-1.25 1.65-1.814 1.84l1.225.07-.318-.396s.55-.64.9-1.514z"/><path fill="#A6A8AB" d="M118.905 67.907s.008 1.422-.966 2.208c0 0 .7-.757.6-2.06l.36-.148zm5-3.377s2.674.755 3.113 4.74c0 0-.123-3.924-2.7-5.168l-.412.43zm-29.46 11.458s9.894 2.45 22.43 0c0 0-10.317 1.225-19.767 0h-2.664zM76.955 61.57s-5.984-7.447 2.03-16.445l.663 1.112c-.004 0-6.52 7.134-2.697 15.332zM99.437 49.6l.848 1.792-.848 6.69"/><path fill="#231F20" d="M97.902 50.71s1.535 13.215-9.207 14.817c0 0 8.803-1.454 9.207-14.816zm26.415-5.162s6.562 7.784-1.32 18.094c0 0 6.328-8.392.81-17.625l.51-.47z"/><path fill="#404041" d="M124.938 43.608l9.87-2.634v.982l-9.345 3.592M78.4 43.61l3.712-1.403-2.32 2.4"/><path fill="#A6A8AB" d="M75.5 88.616l-1.696.896s11.733 3.957.848 3.958c0 0 11.734.99.143-3.91l.706-.944z"/><path fill="none" d="M138.087 196.165c-.206-.727-.488-1.513-.844-2.358-.355-.845-.795-1.66-1.313-2.447-.518-.785-1.087-1.4-1.712-1.845-.683-.387-1.283-.713-1.803-.98-.517-.266-.982-.46-1.398-.578-.477-.146-.92-.22-1.337-.22l1.646.532c.09.02.393.2.913.51.51.31 1.08.69 1.69 1.13.6.44 1.18.95 1.73 1.51s.94 1.15 1.18 1.78c.23.62.45 1.34.64 2.15.19.81.35 1.66.49 2.55.13.89.23 1.76.29 2.6.06.84.03 1.59-.09 2.24-.21 1.36-.5 2.6-.87 3.69-.37 1.1-1.15 2.25-2.34 3.47-.63.59-1.26 1.09-1.89 1.49-.64.4-1.22.72-1.76.96-.66.29-1.26.51-1.83.66 1.01-.27 1.97-.61 2.89-1.03.77-.35 1.56-.84 2.38-1.44.81-.61 1.47-1.36 1.98-2.25.5-.89.88-1.88 1.13-2.96.25-1.09.44-2.13.56-3.14.12-1.01.17-1.91.15-2.71s-.04-1.41-.07-1.83c-.09-.3-.24-.81-.45-1.53zM127.28 206.46c-.18-.145-.395-.323-.647-.533-.252-.206-.504-.503-.755-.89-.253-.385-.476-.912-.667-1.58-.19-.665-.3-1.563-.33-2.688-.14-1.07-.08-2.05.2-2.94.28-.89.63-1.62 1.04-2.18.48-.68 1-1.29 1.56-1.83-.44.24-.87.53-1.29.89-.38.32-.75.74-1.11 1.24-.35.5-.64 1.08-.84 1.73-.41 1.36-.52 2.81-.31 4.34.21 1.52.52 2.73.94 3.62.24.44.54.83.89 1.15.36.32.72.58 1.09.75.37.17.71.31 1 .4.3.09.49.1.58.04.09-.15-.02-.37-.33-.65s-.64-.58-1-.91z"/><path fill="none" d="M130.66 211.732c.977-.163 1.84-.54 2.58-1.134.74-.594 1.318-1.26 1.734-2.002.354-.77.695-1.652 1.022-2.646.325-.994.578-2.002.757-3.025.178-1.02.252-2.016.223-2.98-.03-.963-.135-1.832-.312-2.603-.89-2.905-2.09-5.084-3.603-6.538-.71-.68-1.31-1.163-1.82-1.445-.5-.29-.64-.19-.4.29 0 .08-.32.13-.95.13-.64 0-1.42.09-2.35.26-.93.18-1.87.49-2.82.95-.95.46-1.68 1.19-2.18 2.2-.59 1.01-1.06 2.26-1.4 3.76-.34 1.49-.49 3.03-.44 4.6.05 1.57.32 3.07.83 4.49.51 1.42 1.32 2.61 2.45 3.56 1.18.92 2.36 1.54 3.51 1.87 1.16.32 2.22.4 3.2.24zm-5.36-4.714c-.728-.728-1.328-1.677-1.8-2.847-.478-1.17-.656-2.61-.536-4.33.058-1.72.423-3.09 1.09-4.11s1.393-1.81 2.18-2.35c.785-.55 1.542-.89 2.268-1.04.728-.14 1.178-.19 1.356-.13.83.09 1.565.41 2.202.96.64.55 1.18 1.22 1.624 2 .446.79.786 1.65 1.024 2.6.237.95.354 1.89.354 2.81 0 .92-.126 1.89-.378 2.91s-.615 1.94-1.09 2.76c-.474.82-1.02 1.49-1.645 2.02-.63.54-1.28.8-1.96.8-.71 0-1.49-.15-2.34-.46-.85-.31-1.63-.83-2.36-1.56zm-24.665-.558l-.646-.533c-.26-.206-.51-.503-.76-.89-.25-.385-.48-.912-.67-1.58-.2-.665-.31-1.563-.34-2.688-.15-1.07-.09-2.05.2-2.94.28-.89.63-1.62 1.04-2.18.47-.68.99-1.29 1.55-1.83-.45.24-.88.53-1.29.89-.39.32-.76.74-1.11 1.24-.36.5-.64 1.08-.85 1.73-.42 1.36-.52 2.81-.32 4.34.2 1.52.52 2.73.93 3.62.24.44.53.83.89 1.15.35.32.72.58 1.09.75.37.17.7.31 1 .4.3.09.49.1.58.04.09-.15-.02-.37-.34-.65-.31-.28-.65-.58-1-.91zm10.81-10.295c-.208-.727-.49-1.513-.846-2.358-.36-.845-.8-1.66-1.32-2.447-.52-.785-1.09-1.4-1.71-1.845-.68-.387-1.29-.713-1.8-.98s-.99-.46-1.4-.578c-.48-.146-.92-.22-1.34-.22l1.64.532c.09.02.39.2.91.51s1.08.69 1.69 1.13c.6.44 1.18.95 1.73 1.51s.94 1.15 1.18 1.78c.23.62.45 1.34.64 2.15.19.81.35 1.66.49 2.55.13.89.23 1.76.29 2.6.06.84.03 1.59-.09 2.24-.21 1.36-.5 2.6-.87 3.69-.37 1.1-1.15 2.25-2.34 3.47-.62.59-1.25 1.09-1.89 1.49-.64.4-1.23.72-1.76.96-.65.29-1.26.51-1.83.66 1-.27 1.97-.61 2.89-1.03.77-.35 1.56-.84 2.38-1.44.81-.61 1.47-1.36 1.98-2.25.5-.89.88-1.88 1.13-2.96.25-1.09.43-2.13.55-3.14.12-1.01.17-1.91.16-2.71-.02-.8-.04-1.41-.07-1.83-.09-.3-.24-.81-.44-1.53zm1.868 8.16c0 .15.016.268.044.357.03.088.12.163.268.222l-.135-.845c-.118.12-.177.2-.177.26zm39.79 1.847c.04.49.08.734.11.734l.266.088-.45-16.457c-.03 3.024-.05 5.738-.05 8.14v3.003s0 1.832.02 2.603c.01.77.04 1.4.09 1.89zm-13.147-1.847c0 .15.015.268.045.357.03.088.12.163.27.222l-.13-.845c-.12.12-.18.2-.18.26zm25.042 6.985c-.12.208-.245.4-.378.578-.134.178-.274.312-.422.4-.207.09-.488.133-.846.133-.178 0-.326-.02-.445-.08.445.21.83.3 1.157.27.238-.06.49-.21.756-.47.267-.25.444-.79.535-1.62-.09.33-.208.6-.357.81z"/><path fill="none" d="M164.51 210.688c.12-.505.044-.994-.224-1.468-.266-.476-.592-.712-.978-.712s-.978.104-1.778.31c-.802.21-1.364.312-1.69.312h-6.673c-.178 0-.438.01-.78.024-.34.014-.51-.052-.51-.2 0-.118-.036-.573-.112-1.357-.074-.786-.11-1.34-.11-1.67v-.71c0-.445-.017-1.016-.044-1.713-.03-.697-.04-1.445-.04-2.246v-9.207c.33-.2.45-.68.38-1.42-.07-.74-.33-1.21-.78-1.42-.41-.14-.79-.08-1.13.2-.34.29-.55.53-.64.74-.12.27-.09.57.07.89.16.33.25.55.25.67 0 .03-.01.45-.02 1.27-.01.82-.04 1.72-.09 2.72-.04.99-.06 1.96-.06 2.89v1.89c0 .3.03.98.09 2.05s.14 2.18.23 3.34c.09 1.16.17 2.21.25 3.16.07.95.13 1.5.16 1.65.09.24.36.44.8.6.45.17.73.25.85.25.06 0 .58.02 1.56.05.98.03 2.06.06 3.25.07 1.19.01 2.27.04 3.25.09.98.04 1.51.06 1.6.06.21 0 .4.05.58.14.18.09.41.13.71.13.24 0 .56-.09.96-.29.4-.19.64-.54.74-1.04zM73.302 196.81c.4-.712.824-1.262 1.27-1.646.592-.534 1.2-.935 1.822-1.2-.06-.06-.23-.06-.51 0-.284.06-.63.244-1.046.555-.416.31-.838.75-1.268 1.33-.43.58-.764 1.33-1 2.24-.327.95-.445 1.86-.355 2.75.088.89.23 1.65.422 2.29.186.61.377 1.13.576 1.56l-.22-.61c-.373-1.04-.498-2.6-.378-4.67.057-1.04.287-1.92.687-2.63z"/><path fill="none" d="M82.465 209.976c.578-.682 1.023-1.416 1.335-2.202.31-.785.51-1.505.6-2.158.09-.65.178-1.096.268-1.333.028-.445-.046-.89-.223-1.336-.178-.444-.37-.666-.578-.666-.267 0-.535.06-.8.16-.27.11-.43.31-.49.6-.09.06-.156.25-.2.58s-.104.68-.178 1.05c-.08.37-.16.73-.25 1.07-.09.34-.15.59-.18.73-.12.18-.32.46-.6.83-.29.37-.65.73-1.09 1.07-.45.34-.97.64-1.58.89-.61.26-1.22.32-1.85.2-1.31-.2-2.6-1.09-3.87-2.67-1.28-1.57-1.96-3.58-2.05-6.05-.03-1.21.13-2.26.49-3.15.35-.89.78-1.64 1.26-2.27s.98-1.11 1.49-1.47c.5-.35.87-.59 1.11-.71.23-.09.62-.13 1.15-.11.53.02 1.1.08 1.71.18.61.11 1.15.24 1.62.4.47.17.77.26.89.29.2.21.4.46.58.76.18.3.29.58.35.85.11.18.21.48.29.91.07.44.2.72.37.87.24.39.52.59.85.6.33.02.52-.02.58-.11.12-.12.28-.48.49-1.09.21-.6.19-1.21-.05-1.8-.18-.32-.5-.75-.96-1.27-.46-.51-.97-1.03-1.54-1.55-.56-.52-1.07-.97-1.51-1.36s-.71-.62-.8-.71c-.27-.09-.41-.19-.42-.29-.02-.11-.13-.11-.34-.02-.21.11-.54.22-.98.31-.45.09-.79.13-1.03.13-.18 0-.51.05-.98.13-.48.09-1.02.29-1.65.6-.63.32-1.27.78-1.94 1.38-.67.61-1.19 1.42-1.58 2.43-.71 1.96-1.1 4.02-1.16 6.18-.06 2.17.47 4.23 1.6 6.19 1.09 1.99 2.47 3.38 4.11 4.16 1.65.79 3.45.9 5.4.34.92-.33 1.67-.84 2.24-1.52zm-.2-19.172c.623.563 1.126 1.172 1.512 1.824.712 1.394 1.127 2.47 1.246 3.225.118.756.104 1.27-.044 1.535-.33.416-.55.652-.67.71-.12.12-.24.18-.36.18.15.06.32.088.53.088.35 0 .56-.117.62-.355.11-.29.17-.89.17-1.8 0-.9-.28-1.87-.85-2.91-.63-1.06-1.34-1.96-2.14-2.69-.8-.72-1.47-1.22-2-1.49-.24-.12-.49-.23-.76-.33s-.49-.2-.67-.29c-.24-.11-.49-.18-.76-.18.77.33 1.54.7 2.31 1.12.59.36 1.2.82 1.82 1.38zm74.55 22.284h2.18c.89 0 1.837-.044 2.845-.133l-6.36-.088c.208.147.652.22 1.334.22z"/><path fill="none" d="M85.202 205.75c-.12.71-.328 1.482-.624 2.313-.296.83-.756 1.528-1.38 2.09-.562.595-1.134 1.076-1.71 1.445-.518.333-.974.616-1.384.864.232-.1.466-.193.693-.307.683-.295 1.334-.703 1.958-1.224.623-.51 1.14-1.2 1.556-2.06.45-.74.73-1.46.85-2.15s.22-1.3.32-1.8c.03-.56.03-1.11 0-1.64 0 .8-.09 1.64-.26 2.49zm18.814 5.982c.98-.163 1.838-.54 2.58-1.134.74-.594 1.32-1.26 1.736-2.002.355-.77.695-1.652 1.022-2.646.326-.994.578-2.002.755-3.025.17-1.02.25-2.016.22-2.98-.03-.963-.14-1.832-.31-2.603-.89-2.905-2.09-5.084-3.61-6.538-.71-.68-1.32-1.163-1.83-1.445-.51-.29-.64-.19-.4.29 0 .08-.32.13-.96.13s-1.43.09-2.36.26c-.94.18-1.88.49-2.83.95s-1.68 1.19-2.18 2.2c-.6 1.01-1.06 2.26-1.4 3.76-.35 1.49-.49 3.03-.45 4.6.04 1.57.32 3.07.82 4.49.5 1.42 1.32 2.61 2.45 3.56 1.18.92 2.35 1.54 3.51 1.87 1.15.32 2.22.4 3.2.24zm-5.36-4.714c-.728-.728-1.327-1.677-1.802-2.847-.476-1.17-.653-2.61-.534-4.33.06-1.72.423-3.09 1.09-4.11.666-1.02 1.393-1.81 2.18-2.35s1.54-.89 2.27-1.04c.725-.14 1.177-.19 1.354-.13.83.09 1.565.41 2.202.96.638.55 1.18 1.22 1.624 2 .445.79.786 1.65 1.023 2.6s.356 1.89.356 2.81c0 .92-.13 1.89-.38 2.91s-.62 1.94-1.09 2.76c-.48.82-1.02 1.49-1.65 2.02-.63.54-1.28.8-1.96.8-.71 0-1.49-.15-2.34-.46-.85-.31-1.63-.83-2.36-1.56z"/><path d="M105.306 208.24c.623-.533 1.17-1.208 1.645-2.023.48-.815.84-1.733 1.09-2.76.26-1.02.38-1.992.38-2.912 0-.918-.12-1.853-.35-2.802s-.58-1.815-1.02-2.603c-.44-.785-.98-1.452-1.62-2-.63-.55-1.37-.868-2.2-.96-.17-.058-.63-.013-1.35.135-.73.15-1.48.498-2.27 1.047s-1.51 1.333-2.18 2.356c-.66 1.023-1.03 2.394-1.09 4.114-.12 1.72.06 3.166.54 4.338.48 1.17 1.08 2.12 1.8 2.847.73.727 1.52 1.244 2.36 1.557.85.313 1.63.467 2.34.467.69 0 1.34-.26 1.96-.8zm-3.336-.222c-.09.06-.283.045-.58-.043-.296-.09-.63-.225-1-.4-.37-.178-.735-.43-1.09-.756-.357-.33-.653-.72-.89-1.16-.415-.89-.727-2.1-.934-3.63-.208-1.53-.104-2.98.312-4.34.207-.65.49-1.23.845-1.74.356-.51.727-.92 1.112-1.25.415-.36.845-.65 1.29-.89-.563.53-1.083 1.14-1.556 1.82-.42.56-.77 1.29-1.05 2.18-.29.89-.35 1.86-.2 2.93.03 1.12.14 2.02.33 2.69.19.66.41 1.19.66 1.58.25.38.5.68.75.89.25.21.47.38.64.53.35.32.69.63 1 .91.31.28.42.5.33.64zm29.98.222c.623-.533 1.17-1.208 1.645-2.023.474-.815.837-1.733 1.09-2.76.25-1.02.377-1.992.377-2.912 0-.918-.116-1.853-.354-2.802-.238-.95-.578-1.815-1.024-2.603-.445-.785-.985-1.452-1.624-2-.637-.55-1.372-.868-2.202-.96-.18-.058-.63-.013-1.356.135-.726.15-1.482.498-2.27 1.047-.785.55-1.51 1.333-2.178 2.356-.667 1.023-1.032 2.394-1.09 4.114-.12 1.72.058 3.166.535 4.338.47 1.17 1.07 2.12 1.8 2.847.72.727 1.51 1.244 2.35 1.557.84.313 1.62.467 2.33.467.68 0 1.33-.26 1.95-.8zm-3.337-.222c-.088.06-.282.045-.578-.043-.297-.09-.63-.225-1-.4-.37-.178-.733-.43-1.09-.756-.356-.33-.653-.72-.89-1.16-.417-.89-.728-2.1-.934-3.63-.2-1.53-.1-2.98.32-4.34.21-.65.49-1.23.85-1.74s.73-.92 1.12-1.25c.42-.36.85-.65 1.29-.89-.56.53-1.08 1.14-1.56 1.82-.41.56-.76 1.29-1.04 2.18-.28.89-.35 1.86-.2 2.93.03 1.12.14 2.02.34 2.69.19.66.42 1.19.67 1.58.25.38.5.68.76.89l.65.53c.36.32.69.63 1.01.91.31.28.42.5.33.64z"/><path d="M170.07 186.68H62.603v31.106H170.07V186.68zm-17.08 11.998c0-2.402.014-5.116.043-8.14l.445 16.456-.268-.088c-.03 0-.067-.245-.11-.734-.045-.49-.075-1.118-.09-1.89-.016-.77-.02-1.64-.02-2.603v-3.01zM78.884 188.49c.177.09.4.187.667.29.27.104.52.216.76.335.54.266 1.2.763 2.01 1.49.8.726 1.52 1.622 2.14 2.69.57 1.037.85 2.01.85 2.912 0 .906-.06 1.506-.17 1.802-.06.23-.27.35-.62.35-.2 0-.38-.03-.53-.09.12 0 .24-.06.36-.18.12-.06.34-.3.67-.71.15-.27.16-.78.05-1.54-.12-.76-.53-1.83-1.24-3.23-.38-.65-.89-1.26-1.51-1.83-.62-.57-1.23-1.02-1.82-1.38-.77-.42-1.54-.79-2.31-1.12.27 0 .52.06.76.18zm-4.07 22.663c-1.646-.784-3.018-2.17-4.114-4.16-1.126-1.956-1.66-4.016-1.6-6.182.058-2.16.443-4.22 1.155-6.18.386-1.01.912-1.81 1.58-2.42.667-.61 1.312-1.06 1.934-1.38.62-.31 1.17-.51 1.64-.6.47-.09.8-.13.98-.13.23 0 .58-.04 1.02-.13.44-.09.77-.19.98-.31.2-.09.31-.08.33.02.01.11.15.2.42.29.09.09.35.33.8.71s.95.84 1.51 1.36c.56.52 1.07 1.04 1.53 1.56.46.52.78.95.95 1.27.23.6.25 1.2.04 1.8-.21.61-.38.98-.49 1.09-.06.09-.26.13-.58.11-.33-.01-.61-.21-.85-.6-.18-.15-.31-.43-.38-.86-.08-.43-.17-.73-.29-.91-.06-.27-.18-.55-.36-.85-.18-.29-.37-.55-.58-.76-.12-.02-.42-.12-.89-.29-.48-.16-1.02-.29-1.63-.4-.61-.1-1.18-.16-1.71-.18-.54-.01-.92.02-1.16.11-.24.12-.61.36-1.11.72-.51.36-1 .85-1.49 1.47s-.91 1.38-1.27 2.27c-.35.89-.52 1.95-.49 3.16.09 2.47.77 4.48 2.05 6.05 1.27 1.58 2.56 2.47 3.87 2.67.62.12 1.24.06 1.84-.2.61-.25 1.14-.55 1.58-.89.44-.34.81-.69 1.09-1.06.28-.37.48-.64.6-.82.03-.14.09-.39.18-.73.09-.34.17-.69.24-1.06.07-.37.13-.72.18-1.05s.11-.52.2-.58c.06-.29.22-.49.49-.6.26-.1.53-.15.8-.15.21 0 .4.22.58.67.18.45.25.89.22 1.34-.09.23-.18.68-.27 1.33-.09.65-.29 1.37-.6 2.16-.32.78-.76 1.52-1.34 2.2-.58.68-1.33 1.19-2.25 1.51-1.96.57-3.76.46-5.4-.33zm-1.824-7.05c.084.234.157.435.222.61-.2-.436-.39-.953-.576-1.565-.193-.638-.334-1.4-.422-2.29-.09-.89.03-1.81.355-2.76.23-.917.57-1.667 1-2.245.43-.578.85-1.023 1.26-1.335.41-.31.76-.496 1.04-.555.28-.06.45-.06.51 0-.62.266-1.23.666-1.82 1.2-.45.385-.87.935-1.27 1.646-.4.71-.63 1.58-.69 2.62-.12 2.07 0 3.63.38 4.67zm12.478.8c-.09.505-.193 1.106-.313 1.803-.12.697-.4 1.416-.845 2.156-.415.862-.933 1.55-1.556 2.07-.624.52-1.275.928-1.958 1.223-.227.113-.46.206-.693.307.41-.248.866-.53 1.383-.864.578-.37 1.15-.85 1.712-1.445.623-.562 1.083-1.26 1.38-2.09.295-.83.502-1.602.623-2.313.18-.86.27-1.69.27-2.49.03.532.03 1.082 0 1.644zm11.83 4.717c-1.126-.95-1.942-2.137-2.446-3.56-.503-1.423-.778-2.92-.822-4.493-.044-1.57.103-3.105.445-4.603.34-1.497.808-2.75 1.4-3.758.504-1.01 1.232-1.743 2.18-2.203s1.892-.778 2.825-.957c.934-.178 1.72-.266 2.357-.266s.956-.045.956-.133c-.236-.474-.103-.57.4-.29.505.282 1.113.765 1.825 1.445 1.51 1.454 2.713 3.633 3.603 6.538.18.77.29 1.64.32 2.604.03.964-.04 1.958-.22 2.98s-.43 2.03-.75 3.024c-.32.994-.66 1.876-1.02 2.646-.41.74-.99 1.408-1.73 2.002-.74.593-1.6.97-2.58 1.134s-2.04.083-3.2-.244c-1.15-.325-2.33-.947-3.51-1.866zm14.502-7.386c-.12 1.01-.305 2.055-.557 3.138-.25 1.082-.63 2.067-1.135 2.958-.504.89-1.163 1.64-1.98 2.245-.814.608-1.607 1.09-2.377 1.445-.92.415-1.88.758-2.89 1.023.57-.147 1.17-.37 1.83-.666.54-.237 1.12-.557 1.76-.957.64-.4 1.27-.897 1.89-1.49 1.19-1.214 1.97-2.372 2.34-3.47.37-1.097.66-2.328.87-3.69.12-.653.15-1.402.09-2.247-.06-.846-.15-1.713-.29-2.604-.13-.89-.29-1.74-.49-2.56-.19-.82-.41-1.54-.64-2.16-.24-.63-.63-1.22-1.18-1.78-.55-.57-1.13-1.07-1.73-1.51-.61-.45-1.17-.83-1.69-1.14-.52-.32-.82-.49-.91-.52l-1.64-.53c.42 0 .86.07 1.34.22.42.12.88.31 1.4.58s1.12.59 1.8.98c.63.44 1.2 1.06 1.71 1.84.52.78.96 1.6 1.32 2.44.36.84.64 1.63.85 2.36.21.73.36 1.24.45 1.53.03.41.06 1.02.07 1.82.02.8-.03 1.71-.15 2.71zm1.557 2.45c-.03-.09-.044-.21-.044-.358 0-.06.06-.146.177-.266l.135.845c-.15-.06-.24-.134-.268-.222zm10.586 4.936c-1.126-.95-1.942-2.137-2.446-3.56-.504-1.423-.778-2.92-.824-4.493-.044-1.57.104-3.105.446-4.603.34-1.497.8-2.75 1.4-3.758.5-1.01 1.23-1.743 2.18-2.203.94-.46 1.89-.778 2.82-.957.93-.178 1.72-.266 2.35-.266.63 0 .95-.045.95-.133-.24-.474-.11-.57.4-.29.5.282 1.11.765 1.82 1.445 1.51 1.454 2.71 3.633 3.6 6.538.17.77.28 1.64.31 2.604.03.964-.05 1.958-.23 2.98s-.43 2.03-.76 3.024c-.33.994-.67 1.876-1.02 2.646-.42.74-1 1.408-1.74 2.002-.74.593-1.61.97-2.58 1.134-.98.163-2.05.083-3.21-.244-1.16-.325-2.33-.947-3.52-1.866zm14.5-7.386c-.118 1.01-.305 2.055-.557 3.138-.25 1.082-.63 2.067-1.133 2.958-.506.89-1.164 1.64-1.98 2.245-.814.608-1.608 1.09-2.378 1.445-.92.415-1.885.758-2.893 1.023.563-.147 1.17-.37 1.823-.666.535-.237 1.12-.557 1.757-.957.638-.4 1.268-.897 1.892-1.49 1.188-1.214 1.965-2.372 2.335-3.47.37-1.097.65-2.328.86-3.69.12-.653.15-1.402.09-2.247-.06-.846-.16-1.713-.29-2.604-.13-.89-.3-1.74-.49-2.56-.2-.82-.41-1.54-.65-2.16-.24-.63-.63-1.22-1.18-1.78-.55-.57-1.13-1.07-1.74-1.51-.61-.45-1.18-.83-1.69-1.14-.52-.32-.83-.49-.92-.52l-1.65-.53c.42 0 .86.07 1.34.22.41.12.88.31 1.39.58.52.26 1.12.59 1.8.98.62.44 1.19 1.06 1.71 1.84s.96 1.6 1.31 2.44c.35.84.64 1.63.84 2.36.21.73.36 1.24.44 1.53.03.41.05 1.02.06 1.82s-.04 1.71-.16 2.71zm1.558 2.45c-.03-.09-.04-.21-.04-.358 0-.06.06-.146.18-.266l.14.845c-.15-.06-.24-.134-.26-.222zm19 8.404h-2.18c-.68 0-1.12-.074-1.33-.22l6.36.087c-1 .09-1.95.133-2.84.133zm3.12-1.2c-.17-.088-.37-.133-.57-.133-.09 0-.62-.022-1.6-.066-.98-.05-2.06-.08-3.24-.1-1.18-.02-2.26-.04-3.24-.07-.98-.03-1.5-.05-1.56-.05-.11 0-.4-.09-.84-.25-.44-.16-.71-.36-.8-.6-.03-.15-.08-.7-.15-1.65-.07-.95-.16-2-.24-3.16-.09-1.16-.16-2.27-.22-3.34s-.09-1.75-.09-2.05v-1.89c0-.94.02-1.9.07-2.89.05-1 .08-1.9.09-2.72l.03-1.27c0-.12-.08-.34-.25-.67-.16-.33-.18-.63-.06-.89.09-.21.31-.46.65-.74.34-.28.72-.35 1.14-.2.44.21.7.68.78 1.42.07.74-.05 1.21-.38 1.42v9.21c0 .8.01 1.55.04 2.25s.05 1.27.05 1.71v.71c0 .33.04.88.11 1.67.08.78.11 1.24.11 1.36 0 .15.17.21.51.2.35-.02.61-.03.78-.03h6.67c.33 0 .89-.11 1.7-.32.8-.21 1.39-.31 1.78-.31s.71.23.98.71c.27.47.35.96.23 1.47-.09.5-.34.85-.74 1.04-.4.19-.72.29-.96.29-.29 0-.53-.04-.71-.13zm1.96.713c-.32.03-.71-.06-1.15-.26.12.06.27.09.45.09.36 0 .64-.04.85-.13.15-.09.29-.22.42-.4.13-.17.26-.37.38-.57.15-.2.27-.47.36-.8-.09.84-.27 1.38-.54 1.63-.26.26-.51.41-.75.47z"/></svg>