<?xml version="1.0" encoding="utf-8"?>
<!-- Generator: Adobe Illustrator 16.0.0, SVG Export Plug-In . SVG Version: 6.00 Build 0)  -->
<!DOCTYPE svg PUBLIC "-//W3C//DTD SVG 1.1//EN" "http://www.w3.org/Graphics/SVG/1.1/DTD/svg11.dtd">
<svg version="1.1" id="Layer_1" xmlns="http://www.w3.org/2000/svg" xmlns:xlink="http://www.w3.org/1999/xlink" x="0px" y="0px"
	 width="250px" height="250px" viewBox="0 0 250 250" enable-background="new 0 0 250 250" xml:space="preserve">
<g id="Layer_2_1_">
</g>
<path fill="#D0D2D3" d="M-242.336-37.022c0,0-9.823-7.465,34.93-23.407h-7.152c0,0-24.217,7.063-27.778,11.704l-2.601,7.208
	L-242.336-37.022z"/>
<polygon fill="#D0D2D3" points="-203.841,-61.584 -209.313,-45.049 -194.55,-59.656 -186.182,-61.584 -175.697,-43.124 
	-180.082,-65.274 "/>
<path fill="#FFFFFF" d="M-209.333-62.867c0,0-4.622,14.448-5.905,21.189c0,0,2.889,5.617,8.988,0l6.422-11.076
	c0,0-0.482,5.458,0.803,4.174l6.581-14.287l-6.902,1.283l-8.305,14.93l5.255-14.288"/>
<path fill="#FFFFFF" d="M-175.479-62.867c0,0,4.621,14.448,5.906,21.189c0,0-2.891,5.617-8.991,0l-6.421-11.076
	c0,0,0.482,5.458-0.803,4.174l-6.582-14.287l6.903,1.283l8.306,14.93l-5.256-14.288"/>
<path fill="#FFFFFF" d="M-173.798-116.539l-19.598,3.734l-17.755-3.734c0,0-22.612,57.789,18.675,61.216
	C-151.188-58.75-173.798-116.539-173.798-116.539z"/>
<path fill="#D0D2D3" d="M-253.789-164.622c0,0-4.632,5.592-10.411,5.272c0,0-6.101,5.13,2.568,9.147c0,0,8.991,4.651,9.631,0
	L-253.789-164.622z"/>
<path fill="#919496" d="M-253.789-153.561c0,0-6.559,2.721-10.09-2.817C-263.879-156.378-260.246-147.046-253.789-153.561z"/>
<path fill="#D0D2D3" d="M-130.349-164.622c0,0,4.632,5.592,10.41,5.272c0,0,6.102,5.13-2.568,9.147c0,0-8.99,4.651-9.633,0
	L-130.349-164.622z"/>
<path fill="#919496" d="M-130.349-153.561c0,0,6.559,2.721,10.09-2.817C-120.259-156.378-123.894-147.046-130.349-153.561z"/>
<ellipse fill="#FFFFFF" cx="-192.509" cy="-156.781" rx="64.223" ry="48.1"/>
<ellipse fill="#D0D2D3" cx="-192.509" cy="-162.35" rx="57.158" ry="42.811"/>
<ellipse transform="matrix(0.3529 0.9357 -0.9357 0.3529 -307.8636 88.5513)" fill="#FFFFFF" cx="-217.95" cy="-178.296" rx="19.398" ry="24.395"/>
<ellipse transform="matrix(0.3529 -0.9357 0.9357 0.3529 58.3808 -272.2274)" fill="#FFFFFF" cx="-167.617" cy="-178.32" rx="19.398" ry="24.395"/>
<path fill="#6C6F71" d="M-191.886-152.375c-0.72-1.787-0.623-5.886-0.623-5.886h-0.741c0.66,3.799-0.558,6.074-0.558,6.074"/>
<g>
	<path fill="#1D8FCD" d="M-192.774-156.867l4.375-4.126c0,0-2.19-3.002-4.43-0.07c-2.238-2.933-4.43,0.07-4.43,0.07l4.375,4.126
		v0.104l0.055-0.052l0.055,0.052V-156.867z"/>
	<path fill="#FFFFFF" d="M-193.808-158.261c0,0-0.039-2.108-1.484-1.201L-193.808-158.261z"/>
	<path fill="#FFFFFF" d="M-191.886-158.261c0,0,0.039-2.108,1.484-1.201L-191.886-158.261z"/>
</g>
<path fill="#ACAFB1" d="M-314.861-216.581c0,0,11.07-14.378,37.311-16.586c0,0-1.997,10.786-15.918,17.238
	C-293.468-215.929-303.925-210.202-314.861-216.581z"/>
<path fill="#D0D2D3" d="M-203.841-109.429h22.666c0,0,8.129,27.957-0.205,51.307c0,0-9.463,7.11-21.099,0.491
	C-202.479-57.631-211.546-64.219-203.841-109.429z"/>
<path fill="#ACAFB1" d="M-217.331-85.639v-0.466l13.21-8.991l3.008-3.893c0,0-4.348-1.283,0.213-8.025c0,0,2.393-2.969,4.123-4.053
	c0,0,3.908-5.281,8.105-0.205c0,0,10.473,7.886,4.414,12.283l3.172,4.054l13.461,9.003c0,0,0.053,6.104-0.402,7.3
	c-0.457,1.196-15.452-9.019-15.452-9.019s-9.927,0.278-10.048-3.805c0,0-0.08,3.945-8.388,3.745l-15.022,8.976L-217.331-85.639z"/>
<path fill="#6C6F71" d="M-218.654-209.656c0,0-25.118-28.302-26.926-3.579C-245.581-213.235-257.343-204.632-218.654-209.656z"/>
<path fill="#EF4B4D" d="M-162.963-219.871c0,0,0.802-21.98,24.881,1.731C-138.082-218.139-168.904-216.098-162.963-219.871z"/>
<path fill="#FFFFFF" d="M-172.171-111.235c0,0,72.648,73.894-11.221,23.165c0,0-9.105,0.029-9.711-3.385
	c0,0-1.449-2.716,0.627-6.676c0,0-0.679,4.923-4.502,3.316c0,0-10.595-0.961-1.727,1.286l0.321-11.345c0,0,8.487-9.525,0.787,1.391
	c0,0,1.56,2.247-2.588,4.494c0,0-5.164-0.642,0-8.347c0,0,12.19-15.733,14.456,7.063l4.191,5.457c0,0,62.92,43.986,8.664-7.704"/>
<path fill="#ACAFB1" d="M-200.899-99.204l0.75-1.188c0,0,0.478-8.191,3.63-10.496c3.154-2.307-1.142,6.563-1.142,6.563l-1.725,4.937
	l-0.798,0.4L-200.899-99.204z"/>
<path fill="#ACAFB1" d="M-185.259-99.67l0.828,1.086c0,0-4.682-0.684-3.999-4.898c0,0-5.499-9.027-8.312,2.448l1.375-2.086
	c0,0,1.998-1.366,4.364-0.08c0,0,4.616,2.166,2.73,8.586c0,0-3.733,1.526-4.655-1.083l-0.583,2.867l-4.623-4.873l2.557-9.152
	l3.692-2.205l5.899,2.97l1.365,4.777l-0.2,1.363L-185.259-99.67z"/>
<path fill="#FFFFFF" d="M-212.968-111.175c0,0-72.885,73.833,10.983,23.104c0,0,7.574,0.029,8.177-3.385c0,0,1.3-3.787-0.742-7.533
	c0,0,2.328,5.78,6.15,4.174c0,0,1.977-10.272-6.893-8.024l-1.967,3.531c0,0,1.777-15.091,9.477-4.175c0,0-1.559,2.247,2.59,4.494
	c0,0,5.162-0.642,0-8.347c0,0-12.191-15.733-14.457,7.063l-4.191,5.457c0,0-66.334,47.038-12.081-4.655"/>
<path fill="#FFFFFF" d="M-207.406-60.43c0,0-76.302,21.161-7.152,26.297c0,0,80.866,4.673,72.28-5.049c0,0,0.613-9.541,10.139,0
	c0,0,9.207,9.223-19.047,11.15c0,0-103.532,6.1-98.48-15.093c0,0,6.665-12.002,43.873-22.15L-207.406-60.43z"/>
<path fill="#6C6F71" d="M-206.083-153.814c0,0,3.729,30.147,12.531,31.23c0,0,9.553,0.373,13.886-31.23l-1.167,0.73L-183-151.75
	c0,0-4.688,2.628-10.552-1.061C-193.552-152.811-200-147.878-206.083-153.814z"/>
<path fill="#BE1E2D" d="M-205.14-152.462c0,0,10.14,65.357,25.015-0.965c0,0-5.443,5.303-12.722,1.24c0,0-7.934,4.207-12.293-1.24"
	/>
<path fill="#6C6F71" d="M-179.825-156.78l0.167,1.114c0,0-4.842,8.872-13.171,1.853c-8.329,7.019-13.171-1.853-13.171-1.853
	l0.167-1.114l-3.333,2.966l2.222-0.853c4.556,7.5,14.115,3.555,14.115,3.555s9.56,3.945,14.115-3.555l2.222,0.853L-179.825-156.78z"
	/>
<path fill="#EF4B4D" d="M-198.642-136.95c0,0,5.9-6.268,5.48,5.927c0,0,0.1-10.584,6.053-6.673
	C-187.108-137.696-192.89-113.424-198.642-136.95z"/>
<path fill="#BE1E2D" d="M-214.183-255.438c0,0,11.431,58.984,23.41,0.258l-0.158-0.258l-1.782,1.531l-1.609,0.949h-0.461
	l-1.208,0.173l-2.128-0.173l-2.878-1.985l-1.293-1.869l-1.007,1.122l-0.69,0.747l-0.777,0.633l-0.834,0.518l-0.777,0.489
	l-0.805,0.345l-0.863,0.23l-1.064-0.057l-1.15-0.374l-1.266-0.547l-1.668-1.179l-0.834-1.063L-214.183-255.438z"/>
<path fill="#ACAFB1" d="M-201.75-128c0,0,7.125,16.375,18.125,0C-183.625-128-193.375-106.375-201.75-128z"/>
<path opacity="0.5" enable-background="new    " d="M165.105,92.188h14.172V45.699h-48.142l2.942-2.868l-6.736-0.979l-3.013-6.104
	l-3.013,6.104l-6.737,0.979l2.943,2.868h-44.9v44.252l9.291,9.507c-14.495,12.684-22.76,30.604-22.76,49.542
	c0,36.881,31.104,66.887,69.34,66.887c38.233,0,69.34-30.006,69.34-66.887C197.834,125.709,185.25,104.283,165.105,92.188z"/>
<path fill="#F4F4F4" d="M162.113,89.943h14.171V43.455h-48.14l2.94-2.869l-6.736-0.979l-3.013-6.104l-3.013,6.104l-6.736,0.979
	l2.942,2.869h-44.9v44.251l9.291,9.507c-14.495,12.684-22.759,30.604-22.759,49.542c0,36.882,31.105,66.888,69.34,66.888
	c38.231,0,69.34-30.006,69.34-66.888C194.841,123.464,182.258,102.038,162.113,89.943z"/>
<g>
	<ellipse fill="#105EB2" cx="125.501" cy="146.755" rx="67.095" ry="64.642"/>
</g>
<g>
	<ellipse fill="#FF6666" cx="120.684" cy="144.816" rx="57.841" ry="55.728"/>
</g>
<path opacity="0.2" fill="#FFF7BB" enable-background="new    " d="M144.364,147.717c0,0.629-0.081,1.266-0.233,1.893l17.727,3.188
	l-4.256,3.192l-14.063-3.663c-0.713,2.366-1.616,4.528-2.721,6.5l13.598,7.448v4.724l-15.014-10.162
	c-0.237,0.476-0.594,0.983-1.063,1.535l16.076,12.41v7.446h-7.684l-12.295-15.953c-0.475,0.396-1.025,0.828-1.652,1.3l10.281,14.653
	h-4.729l-7.801-13.235c-2.049,1.18-4.221,2.049-6.501,2.601l4.019,14.772l-3.547,3.666l-2.837-17.849
	c-0.632,0.159-1.302,0.274-2.009,0.354l2.247,20.33l-5.321,5.203l-5.436-5.203l2.127-20.33c-0.633-0.078-1.223-0.191-1.772-0.354
	l-2.838,17.849l-3.19-2.955l4.018-15.246c-2.207-0.631-4.334-1.498-6.38-2.603l-8.275,13.354h-4.493l10.285-14.896
	c-0.473-0.313-0.91-0.666-1.3-1.063l-12.645,15.957h-7.801v-7.447l15.954-12.766c-0.316-0.391-0.59-0.783-0.83-1.18l-15.125,10.166
	v-4.73l13.59-7.801c-1.263-2.126-2.169-4.33-2.719-6.616l-14.774,4.255l-3.547-3.668l17.612-3.307
	c-0.079-0.551-0.16-1.146-0.237-1.773l-20.093,2.482l-5.79-5.203l5.438-5.436l20.446,2.129c0.077-0.627,0.158-1.222,0.237-1.773
	l-18.32-2.956l3.664-3.427l15.365,3.9c0.55-2.205,1.379-4.33,2.48-6.386l-13.354-7.799v-4.492l14.774,10.167
	c0.314-0.475,0.628-0.945,0.945-1.419l-15.719-12.528v-7.801h7.682l12.526,15.835c0.396-0.391,0.868-0.746,1.422-1.062
	l-10.522-14.774h4.726l7.919,13.354c2.049-1.102,4.216-2.006,6.502-2.717l-4.255-14.893l3.78-3.19l3.075,17.493
	c0.551,0,1.102-0.039,1.655-0.118l-2.247-20.447l5.436-4.966l5.321,5.318l-2.365,20.095c0.629,0,1.223,0.041,1.773,0.118
	l3.071-17.493l3.547,3.075l-4.018,15.009c2.207,0.63,4.332,1.539,6.381,2.717l7.803-13.354h4.729l-10.164,14.774
	c0.471,0.315,0.941,0.671,1.419,1.062l12.526-15.835h7.445v7.801l-15.719,12.408c0.47,0.396,0.825,0.869,1.063,1.421l14.655-10.048
	v4.373l-13.239,7.8c1.181,2.131,2.088,4.338,2.722,6.621l14.653-4.02l3.666,3.427l-17.728,3.075
	c0.151,0.633,0.233,1.184,0.233,1.654l20.213-2.129l5.318,5.2l-5.082,5.316L144.364,147.717L144.364,147.717z"/>
<polygon fill="#3D7A48" points="161.417,158.15 159.797,157.014 159.352,160.439 160.967,159.48 "/>
<path fill="#FFFFFF" d="M102.242,150.523c0,0,19.434,0.646,23.529-13.115c0,0,4.789,3.033,0.67,8.846
	c0,0-10.684,11.623-33.091,7.883"/>
<polygon fill="#D0D2D3" points="123.772,148.49 124.542,139.823 126.715,145.344 125.244,148.551 "/>
<path fill="#EF4B4D" d="M105.722,140.861c0.156-3.588-0.772-5.235-3.884-5.373c-0.64-0.027-1.294-0.023-1.931,0.029
	c-1.607-2.594-4.122-4.5-7.227-5.342c-2.83-0.769-5.381-0.378-7.554,0.92c-1.355,0.807-2.555,1.981-3.587,3.443
	c-1.246,1.766-2.246,3.945-2.935,6.488c-0.33,1.22-0.544,2.363-0.658,3.445c-0.157,1.482-0.119,2.848,0.116,4.072
	c0.726,3.789,3.294,6.338,7.604,7.506c2.123,0.575,4.238,0.654,6.21,0.256l6.188,0.256c8.481-2.121,6.775-8.563,6.775-8.563
	c-1.954,0.913-2.204,0-2.204,0c0.428-0.629,0.642-1.509,0.738-2.412C104.776,144.754,105.622,143.145,105.722,140.861z"/>
<g>
	<path fill="#820010" d="M97.44,150.906c0,0,1.888,0.527,2.619,2.605c0,0,3.828-0.506,3.972-0.746l0,0
		c1.441-2.355,0.808-4.767,0.808-4.767c-1.954,0.913-2.204,0-2.204,0c1.329-1.955,0.612-6.317,0.612-6.317l-17.582,14.373
		l4.316,0.18c0.199-0.746,0.705-2.53,1.098-2.975C91.579,152.702,97.44,150.906,97.44,150.906z"/>
	<path fill="#4C000D" d="M104.031,152.766L104.031,152.766c-0.146,0.243-3.972,0.748-3.972,0.748
		c-0.731-2.078-2.619-2.604-2.619-2.604s-5.861,1.796-6.36,2.354c-0.393,0.44-0.899,2.227-1.098,2.971l8.082,0.334
		C101.361,155.743,103.115,154.264,104.031,152.766z"/>
</g>
<path fill="#BE1E2D" d="M105.722,140.861c-0.157,3.588-2.153,5.521-5.265,5.387c-3.113-0.137-5.509-3.154-5.352-6.742
	c0.156-3.586,3.619-4.152,6.732-4.018C104.95,135.626,105.878,137.273,105.722,140.861z"/>
<path fill="#6D6E70" d="M98.688,90.923c0,0,1.014-0.329,3.084-0.112c2.069,0.217-0.902,0.997-0.902,0.997L98.688,90.923z"/>
<path fill="#D0D2D3" d="M91.479,102.136c0,0-6.505-11.831,5.571-7.722C109.127,98.523,91.479,102.136,91.479,102.136z"/>
<path fill="#919496" d="M93.756,98.871c0,0-5.788-5.843-1.627,1.98C96.292,108.674,93.756,98.871,93.756,98.871z"/>
<path fill="#919496" d="M148.1,96.664l3.392,7.414C151.488,104.077,161.906,91.113,148.1,96.664z"/>
<path fill="#FFFFFF" d="M137.541,143.176c0,0-34.289,36.508-23.535,48.463c0,0-25.451-0.57-24.427,7.021c0,0,2.547,2.275,3.683,0
	c0,0,0.765,3.226,3.607-0.188c0,0,1.704,3.413,3.981,0l21.06-4.744c0,0,1.134-0.947-2.942-2.468c0,0-7.693-2.006,2.286-19.649
	C131.23,153.96,137.541,143.176,137.541,143.176z"/>
<path fill="#FFFFFF" d="M144.775,171.436l1.775-4.518C137.855,161.846,113.848,148.268,144.775,171.436z"/>
<path fill="#FFFFFF" d="M179.643,125.375c-10.173-7.594-11.129,25.041-11.129,25.041c0.023,0.039,0.049,0.07,0.074,0.107
	c1.893,0.803,4.887,1.604,7.453,0.234c0.084-0.189,0.127-0.313,0.127-0.313c-0.709-10.924-0.477-16.146,0.116-18.344
	c0.761-4.293,2.501-9.374,5.54,6.127c0,0,1.977,11.291,0.438,20.731c-1.148,26.813-21.414,16.948-29.548,11.874
	c3.181,4.902,12.429,16.125,26.563,8.068c5.436-5.09,6.203-13.661,6.203-13.661C189.813,136.287,179.643,125.375,179.643,125.375z"
	/>
<path fill="#CCCCCC" d="M152.717,170.84c-0.813-1.252-1.229-2.093-1.229-2.093l-4.275-3.5l-0.659,1.671
	c1.706,0.993,2.825,1.662,2.825,1.662S150.66,169.559,152.717,170.84z"/>
<path fill="#CCCCCC" d="M152.717,170.84c-2.057-1.281-3.338-2.26-3.338-2.26s-1.119-0.669-2.825-1.662l-1.778,4.518
	c0.08,0.061,0.15,0.111,0.229,0.17c18.713,14.006,28.836,12.4,34.277,7.306C165.143,186.965,155.896,175.743,152.717,170.84z"/>
<path fill="#CCCCCC" d="M181.824,138.234c-3.039-15.501-4.779-10.422-5.54-6.127c1.08-3.994,3.356,2.018,3.356,2.018
	c2.142,10.561,2.889,18.67,2.623,24.841C183.801,149.523,181.824,138.234,181.824,138.234z"/>
<path fill="#CCCCCC" d="M168.588,150.523c4.314,6.35,6.872,1.559,7.453,0.234C173.475,152.129,170.479,151.326,168.588,150.523z"/>
<path fill="#FFFFFF" d="M154.706,107.902c-2.202-13.003-15.914-23.021-32.51-23.021c-18.131,0-32.829,11.952-32.829,26.696
	c0,14.743,14.698,26.696,32.829,26.696c0.681,0,1.354-0.022,2.022-0.058c0.729,3.17,1.334,8.083-0.861,11.06
	c0,0-15.059,11.263-7.376,21.957c-0.009-0.076-1.974-18.744,12.393-22.066l-2.604-11.758c0,0,5.428-1.277,11.771-4.078v14.729
	c0,0-15.16,17.701-6.575,29.688C145.979,177.289,176.193,169.254,154.706,107.902z"/>
<path fill="#D0D2D3" d="M137.541,148.059V133.33c-6.343,2.801-11.771,4.078-11.771,4.078l2.606,11.758
	c-14.367,3.322-12.401,21.99-12.393,22.066c1.5,2.088,2.252,2.797,5.767,4.754c0,0,4.738,1.895,9.214,1.761
	C122.381,165.76,137.541,148.059,137.541,148.059z"/>
<ellipse fill="#D0D2D3" cx="117.265" cy="112.165" rx="27.897" ry="21.165"/>
<path fill="#6C6F71" d="M111.238,124.438c0,0,0.459-3.097,0.127-5.438h1.04v6.203L111.238,124.438z"/>
<path fill="#D0D2D3" d="M145.018,95.145c0,0-0.317,2.741,2.23,3.124c0,0,12.492-4.079,3.377,6.883c0,0-1.02,1.659,1.084,3.125
	c0,0,8.414-7.203,5.737-12.685C157.446,95.592,155.407,89.599,145.018,95.145z"/>
<ellipse fill="#FFFFFF" cx="103.017" cy="107.413" rx="10.906" ry="10.749"/>
<ellipse fill="#FFFFFF" cx="128.377" cy="107.654" rx="13.461" ry="13.373"/>
<path fill="#1D8FCD" d="M108.828,118.714c0,0,2.426-4.937,3.321-2.331c0,0,2.005-2.935,2.005,1.779c0,0-1.901,1.296-2.005,2.865
	C112.148,121.026,110.183,120.238,108.828,118.714z"/>
<path fill="#FFFFFF" d="M112.148,119.822c0,0,0.123-0.667,1.061-1.332C113.209,118.49,112.863,117.216,112.148,119.822z"/>
<path fill="#FFFFFF" d="M138.91,167.359c0,0-11.52,17.752,1.056,31.729c0,0-29.763-0.665-28.564,8.21c0,0,2.979,2.663,4.307,0
	c0,0,0.894,3.771,4.218-0.222c0,0,1.992,3.992,4.655,0l24.628-5.549c0,0,1.326-1.108-3.44-2.885c0,0-13.902-8.875-2.234-29.511
	C155.2,148.502,138.91,167.359,138.91,167.359z"/>
<g>
	<circle fill="#0071BC" cx="104.839" cy="107.654" r="8.599"/>
	<path fill="#0F4481" d="M101.039,111.018c-2.101-2.427-1.836-6.094,0.59-8.193c2.424-2.099,6.093-1.836,8.193,0.592
		c2.1,2.425,1.834,6.094-0.592,8.193C106.807,113.708,103.137,113.444,101.039,111.018z"/>
	<path fill="#FFFFFF" d="M103.388,109.236c-1.116-1.29-0.975-3.237,0.314-4.352c1.288-1.115,3.239-0.978,4.355,0.311
		c1.114,1.291,0.972,3.242-0.317,4.357C106.452,110.667,104.505,110.525,103.388,109.236z"/>
	<circle fill="#FFFFFF" cx="100.192" cy="109.779" r="1.503"/>
</g>
<g>
	<circle fill="#0071BC" cx="131.291" cy="107.953" r="9.645"/>
	<path fill="#0F4481" d="M127.027,111.727c-2.356-2.724-2.062-6.836,0.662-9.191c2.72-2.354,6.834-2.059,9.188,0.665
		c2.354,2.72,2.06,6.836-0.664,9.19C133.498,114.745,129.382,114.446,127.027,111.727z"/>
	<path fill="#FFFFFF" d="M129.336,107.549c-1.252-1.447-1.094-3.632,0.354-4.882c1.443-1.251,3.636-1.097,4.888,0.35
		c1.25,1.447,1.09,3.636-0.354,4.887C132.777,109.155,130.589,108.995,129.336,107.549z"/>
	<circle fill="#FFFFFF" cx="126.02" cy="110.304" r="1.687"/>
</g>
<path fill="#CCCCCC" d="M96.956,198.09c0,0,0.724-2.933,5.991-2.107C102.947,195.982,97.732,194.32,96.956,198.09z"/>
<path fill="#D0D2D3" d="M93.353,198.09c0,0-0.224-3.671,3.604-2.474C96.956,195.616,94.018,195.04,93.353,198.09z"/>
<g>
	<polygon fill="#FFA71A" points="87.638,102.921 87.638,86.792 71.875,86.792 	"/>
</g>
<polygon opacity="0.5" enable-background="new    " points="71.875,86.792 72.76,87.698 174.039,87.698 174.039,83.05 
	75.896,78.841 "/>
<rect x="71.875" y="45.699" fill="#FFE05F" width="102.164" height="41.093"/>
<path fill="#D0D2D3" d="M119.922,206.188c0,0,0.837-4.104,6.52-1.886C126.441,204.303,120.255,200.753,119.922,206.188z"/>
<polygon fill="#FFE89F" points="112.332,177.747 111.112,181.734 111.366,182.102 112.3,179.925 111.722,182.336 112.332,182.586 
	113.105,180.652 112.749,182.99 113.545,183.458 114.199,181.082 113.965,183.458 114.713,183.458 114.713,181.4 115.134,183.458 
	115.888,183.646 116.209,181.494 116.271,184.195 117.129,183.973 117.426,181.734 117.426,183.411 117.977,183.458 
	118.368,181.082 118.642,183.738 119.296,183.411 119.063,181.082 119.624,183.411 120.063,183.318 119.833,180.793 
	118.782,179.457 114.421,177.285 "/>
<polygon fill="#FFE89F" points="132.559,182.197 131.339,186.188 131.592,186.553 132.527,184.375 131.948,186.786 132.559,187.036 
	133.332,185.104 132.977,187.439 133.771,187.908 134.426,185.533 134.191,187.908 134.939,187.908 134.939,185.852 
	135.359,187.908 136.115,188.096 136.438,185.943 136.497,188.646 137.355,188.423 137.652,186.188 137.652,187.861 
	138.203,187.908 138.595,185.533 138.868,188.189 139.523,187.861 139.289,185.533 139.85,187.861 140.289,187.768 140.059,185.242 
	139.008,183.907 134.646,181.734 "/>
<polygon fill="#FFE89F" points="134.557,181.318 133.336,185.309 133.59,185.676 134.523,183.496 133.945,185.909 134.557,186.157 
	135.33,184.227 134.975,186.564 135.77,187.031 136.423,184.654 136.189,187.031 136.938,187.031 136.938,184.975 137.357,187.031 
	138.112,187.219 138.434,185.066 138.494,187.768 139.354,187.546 139.65,185.309 139.65,186.984 140.201,187.031 140.593,184.654 
	140.866,187.313 141.521,186.984 141.287,184.654 141.848,186.984 142.287,186.891 142.057,184.365 141.006,183.027 
	136.646,180.857 "/>
<path fill="#D0D2D3" d="M115.888,206.188c0,0,0.305-3.625,2.48-2.438C118.368,203.749,116.739,203.305,115.888,206.188z"/>
<path fill="none" d="M119.833,151.014c0.342-0.32,0.549-0.488,0.549-0.488c0.918-0.478,1.605-1.188,2.118-2.032
	C121.22,148.771,120.179,149.738,119.833,151.014z"/>
<path fill="#ACAFB1" d="M92.573,104.315l21.35,2.675c0,0,0-10.06-10.905-10.327C103.017,96.664,95.503,96.036,92.573,104.315z"/>
<path fill="#ACAFB1" d="M114.916,106.99c0,0,16.691-1.076,25.578-5.163c0,0-3.866-9.854-14.725-7.294
	C125.771,94.533,114.773,96.791,114.916,106.99z"/>
<path fill="#670004" d="M165.885,176.936"/>
<path fill="#FFFFFF" d="M155.818,127.743c0,0-12.24,14.791,0.953,15.61l0.957,2.897
	C157.729,146.254,140.117,143.316,155.818,127.743z"/>
<path fill="#FFFFFF" d="M157.174,149.751c0,0,0.828,11.373-6.697,19.164l3.041-0.485c0,0,6.373-6.979,5.543-17.521L157.174,149.751z
	"/>
<path fill="#6C6F71" d="M105.722,124.89c0,0,7.62-1.123,15.445,0c0,0-13.983,0.624-15.737,1.124L105.722,124.89z"/>
<polygon fill="#ACAFB1" points="110.036,127.135 117.265,126.014 110.036,128.508 "/>
<path fill="#B3E0FF" d="M142.087,176.936c0,0,11.894-5.184,16.251-12.541l-44.792-0.73c0,0-1.045,4.215,1.371,7.771
	c0,0-2.16,5.041-2.584,6.313c0,0-0.942,4.446,7.501,3.046l0.23-5.051c0,0,6.529,3.46,13.638,2.806l-1.685,5.237
	c0,0,7.698,3.929,10.068,1.123L142.087,176.936L142.087,176.936z"/>
<g>
	<path fill="#EF4B4D" d="M101.244,146.813c2.177-8.026-1.838-14.813-8.563-16.636c-2.83-0.768-5.381-0.377-7.554,0.919
		c0.668,5.848,2.088,10.586,2.088,10.586c-0.003,0.002-0.005,0.004-0.008,0.004c5.189,1.666,10.919,4.756,13.66,6.315
		C101.001,147.616,101.132,147.227,101.244,146.813z"/>
	<path fill="#386EF4" d="M85.666,156.057c6.38,1.729,12.708-0.922,15.2-8.055c-2.741-1.561-8.471-4.648-13.66-6.314
		c-3.225,1.809-6.566,4.539-9.144,6.863C78.788,152.34,81.356,154.889,85.666,156.057z"/>
</g>
<path fill="#FFFFFF" d="M85.126,131.096c-1.355,0.807-2.555,1.984-3.587,3.446l0.375,1.261l-1.809,1.934v1.158l2.425-1.158
	l0.693,0.498l-0.693,0.66l-2.362,0.463l-0.374,0.813l1.684,1.871v0.826l-1.123-0.203l-0.873-2.213l-0.562,0.842v2.369l-0.975,0.815
	c-0.157,1.482-0.119,2.849,0.116,4.072c2.58-2.328,5.924-5.063,9.152-6.867C87.214,141.684,85.794,136.943,85.126,131.096z"/>
<polygon fill="#FFE000" points="84.552,140.215 85.278,139.334 85.278,140.432 86.103,141.148 85.364,141.148 85.063,142.391 
	84.417,141.4 83.512,141.715 83.938,140.861 83.512,139.979 "/>
<path fill="#822A35" d="M62.459,134.244"/>
<path fill="#FFE000" d="M78.921,141.291l0.562-0.842l0.873,2.213l1.123,0.203v-0.826l-1.684-1.871l0.374-0.811l2.362-0.465
	l0.693-0.658l-0.693-0.498l-2.425,1.156v-1.156l1.809-1.937l-0.375-1.261c-1.246,1.766-2.246,3.945-2.935,6.488
	c-0.33,1.22-0.544,2.363-0.658,3.445l0.975-0.815L78.921,141.291L78.921,141.291z"/>
<polygon fill="#4C000D" points="99.436,154.322 102.242,148.551 99.436,155.258 "/>
<path fill="#4C000D" d="M101.119,154.137c0,0,3.172-3.283,1.898-5.01C103.017,149.127,103.529,151.881,101.119,154.137z"/>
<path opacity="0.3" fill="#FFFFFF" enable-background="new    " d="M83.224,134.244c0,0,9.462-8.705,16.968,5.268
	c0,0-8.813-6.701-15.385-3.615C84.807,135.896,81.941,136.991,83.224,134.244z"/>
<path fill="#D0D2D3" d="M142.087,147.23c0,0,21.077,10.92,6.013-10.639v-3.972c0,0,17.199,28.271-5.951,15.36L142.087,147.23z"/>
<path fill="#D0D2D3" d="M141.332,155.668c0,0,24.434,12.902,16.396-20.131l-2.475-1.293c0,0,13.704,32.854-20.095,18.738"/>
<path fill="#FFFFFF" d="M139.977,139.605c-0.104-0.297-0.203-0.604-0.313-0.892c-0.263-0.657-0.541-1.292-0.84-1.897
	c-0.351-0.705-0.722-1.379-1.115-2.012c-0.199-0.316-0.401-0.625-0.61-0.925c-0.666-0.916-1.311-1.677-1.933-2.33
	c-0.688-0.728-1.354-1.308-1.979-1.767c-2.787-2.043-4.873-1.733-5.765-1.733c0,0.005-0.001,0.009-0.001,0.011
	c-1.277-0.062-2.618,0.08-4.015,0.459c-4.038,1.092-7.276,3.646-9.228,7.114c-2.832,0.542-3.703,2.574-3.533,6.464
	c0.094,2.158,0.734,3.826,1.809,4.951c0.111,0.631,0.252,1.268,0.426,1.91c0.137,0.506,0.298,0.984,0.464,1.46
	c3.063,8.767,10.837,12.021,18.678,9.896c1.009-0.271,1.937-0.605,2.787-1.002c5.334,0.631,7.978-4.285,7.978-4.285
	C147.152,147.904,143.516,142.646,139.977,139.605z"/>
<path fill="#E0E0E0" d="M130.373,128.591c0,0,6.934,0.03,10.602,13.093c0,0-10.469-7.002-10.602-7.892
	S130.373,128.591,130.373,128.591z"/>
<g>
	<path fill="#3DC979" d="M138.002,165.547c0,0,7.395,2.279,21.391-1.424l2.024-5.973c-5.114,3.576-23.329,2.797-23.329,2.797
		c-12.603-8.717-23.438-3.227-23.438-3.227l-1.306,0.43c-1.308,2.981-1.055,5.813-0.837,7.078
		C114.314,166.859,123.019,173.492,138.002,165.547z"/>
	<path fill="#3D7A48" d="M138.088,166.918c8.1,0.996,21.047-2.033,21.047-2.033l0.258-0.762
		c-13.996,3.703-21.391,1.424-21.391,1.424c-14.983,7.945-23.688,1.313-25.494-0.318c0.076,0.439,0.147,0.692,0.147,0.692
		C123.007,175.523,138.088,166.918,138.088,166.918z"/>
</g>
<g>
	
		<ellipse transform="matrix(-0.0333 0.9994 -0.9994 -0.0333 291.6957 44.165)" fill="#EA8947" cx="124.489" cy="163.152" rx="5.382" ry="10.907"/>
	
		<ellipse transform="matrix(-0.0333 0.9994 -0.9994 -0.0333 290.4517 43.8996)" fill="#F2BF64" cx="123.995" cy="162.418" rx="5.382" ry="10.908"/>
</g>
<path opacity="0.5" fill="#FFFFFF" enable-background="new    " d="M115.142,163.863c0,0-4.123-4.553,7.358-6.143
	c11.48-1.592-12.154,1.596-4.641,7.161C117.859,164.885,116.692,165.482,115.142,163.863z"/>
<g>
	<g>
		<g>
			<path fill="#EA8947" d="M126.809,162.803c0.042-0.779-0.159-1.574-0.619-2.265c0.233-0.249,0.348-0.492,0.336-0.728
				c-0.009-0.277-0.191-0.437-0.2-0.443l-0.003-0.004l-0.006-0.002c-0.099-0.063-0.215-0.096-0.349-0.096
				c-0.173,0-0.343,0.053-0.47,0.105c-0.556-0.523-1.355-0.824-2.203-0.824c-0.863,0-1.673,0.309-2.23,0.852
				c-0.084-0.028-0.205-0.065-0.319-0.065c-0.158,0-0.235,0.07-0.273,0.127c-0.086,0.134-0.063,0.354,0.074,0.677
				c-0.114,0.262-0.173,0.535-0.173,0.82c0,1.326,1.312,2.405,2.922,2.405c0.175,0,0.35-0.013,0.521-0.038l0.053,0.096
				c-0.368,0.217-0.594,0.607-0.594,1.039c0,0.626,0.476,1.139,1.083,1.2c-0.246,0.101-0.505,0.172-0.772,0.213
				c-0.162,0.022-0.328,0.034-0.493,0.036c-0.166,0.002-0.331-0.014-0.495-0.033c0.028,0.002,0.006,0.001,0.011,0.001l-0.004-0.001
				l-0.009-0.002l-0.018-0.004l-0.036-0.005l-0.071-0.013c-0.022-0.004-0.05-0.008-0.068-0.01l-0.054-0.015
				c-0.038-0.011-0.071-0.015-0.111-0.025l-0.118-0.033c-0.154-0.049-0.306-0.103-0.449-0.173c-0.288-0.134-0.548-0.307-0.77-0.506
				c-0.11-0.1-0.214-0.202-0.306-0.311c-0.094-0.105-0.175-0.217-0.25-0.328c-0.146-0.227-0.258-0.453-0.333-0.672
				c-0.077-0.216-0.123-0.42-0.148-0.602c-0.027-0.182-0.031-0.344-0.028-0.473c0-0.034,0.001-0.064,0.001-0.094
				c0.003-0.029,0.004-0.056,0.007-0.082c0.003-0.049,0.007-0.093,0.011-0.126c0.009-0.071,0.013-0.108,0.013-0.108
				c0.002-0.011,0.003-0.021,0.003-0.033c0.016-0.26-0.186-0.482-0.445-0.497c-0.261-0.015-0.485,0.185-0.499,0.446v0.008
				c0,0-0.002,0.049-0.008,0.14c-0.004,0.045-0.005,0.101-0.005,0.167c0,0.035,0,0.067,0,0.105c0.002,0.039,0.004,0.08,0.006,0.119
				c0.008,0.172,0.029,0.379,0.078,0.609c0.05,0.23,0.125,0.49,0.243,0.756c0.114,0.269,0.273,0.543,0.473,0.811
				c0.102,0.134,0.212,0.266,0.336,0.389c0.123,0.127,0.258,0.246,0.401,0.357c0.288,0.223,0.616,0.412,0.973,0.555
				c0.179,0.067,0.363,0.121,0.552,0.168c0.188,0.045,0.382,0.072,0.575,0.092c0.194,0.014,0.388,0.016,0.582,0.002
				c0.193-0.014,0.384-0.037,0.571-0.078c0.375-0.079,0.73-0.215,1.051-0.389c0.159-0.086,0.312-0.18,0.453-0.285
				c0.143-0.104,0.271-0.215,0.396-0.33c0.238-0.23,0.439-0.478,0.598-0.723c0.158-0.244,0.275-0.486,0.359-0.707
				c0.087-0.22,0.143-0.421,0.178-0.588c0.01-0.041,0.019-0.08,0.023-0.116c0.007-0.038,0.012-0.074,0.02-0.104
				c0.009-0.067,0.02-0.124,0.023-0.168c0.009-0.09,0.012-0.138,0.012-0.138C126.818,162.842,126.814,162.822,126.809,162.803
				 M122.008,160.148c-0.405,0-0.734,0.329-0.734,0.734c0,0.408,0.329,0.734,0.734,0.734c0.249,0,0.468-0.121,0.601-0.312
				c-0.17,0.359-0.536,0.603-0.962,0.603c-0.585,0-1.061-0.468-1.061-1.047c0-0.577,0.475-1.045,1.061-1.045
				c0.474,0,0.875,0.305,1.012,0.726C122.535,160.307,122.29,160.148,122.008,160.148 M122.536,160.703
				c0,0.13-0.105,0.236-0.237,0.236s-0.237-0.106-0.237-0.236c0-0.131,0.105-0.238,0.237-0.238S122.536,160.572,122.536,160.703
				 M124.586,160.029c-0.485,0-0.877,0.395-0.877,0.879c0,0.483,0.392,0.876,0.877,0.876c0.317,0,0.595-0.168,0.75-0.422
				c-0.192,0.481-0.666,0.825-1.221,0.825c-0.723,0-1.31-0.583-1.31-1.303s0.586-1.302,1.31-1.302c0.598,0,1.103,0.397,1.259,0.942
				C125.233,160.231,124.934,160.029,124.586,160.029 M125.226,160.69c0,0.156-0.126,0.283-0.282,0.283s-0.283-0.127-0.283-0.283
				s0.127-0.282,0.283-0.282S125.226,160.534,125.226,160.69"/>
		</g>
	</g>
</g>
<g>
	<path fill="#4C000D" d="M135.429,136.596c0,0,14.561,6.689,7.355,18.438c0,0-3.341,6.227-10.099,3.773"/>
	<path fill="#BE1E2D" d="M110.645,142.1c0.193,4.407,2.646,6.785,6.469,6.617c3.825-0.167,6.77-3.876,6.577-8.283
		c-0.192-4.406-4.447-5.104-8.273-4.936C111.594,135.664,110.453,137.691,110.645,142.1z"/>
	<g>
		<path fill="#EF4B4D" d="M112.88,148.962c-2.675-9.868,2.258-18.204,10.522-20.442c3.478-0.94,6.612-0.463,9.284,1.129
			c-0.818,7.188-2.564,13.011-2.564,13.011c0.004,0.002,0.006,0.004,0.01,0.006c-6.376,2.047-13.417,5.841-16.784,7.76
			C113.179,149.948,113.018,149.468,112.88,148.962z"/>
		<path fill="#386EF4" d="M132.021,160.318c-7.84,2.125-15.616-1.133-18.68-9.896c3.368-1.919,10.408-5.713,16.784-7.76
			c3.963,2.218,8.067,5.576,11.236,8.436C140.475,155.752,137.316,158.884,132.021,160.318z"/>
	</g>
	<path opacity="0.3" fill="#FFFFFF" enable-background="new    " d="M123.7,133.271c0,0-0.304-10.454-9.527,6.717
		c0,0,0.896-9.75,8.972-5.957C123.145,134.029,123.145,134.029,123.7,133.271z"/>
	<path fill="#FFFFFF" d="M137.554,145.716l1.536,2.316l-0.263,1.666l-1.073-0.657l-1.13-3.021c-0.256,0.051-0.519,0.078-0.789,0.078
		c-0.333,0-0.653-0.043-0.964-0.119l-0.768,2.099l-1.729,1.264v-1.925l1.224-1.979c-0.507-0.332-0.934-0.771-1.252-1.287
		l-2.264,1.17l-1.87-0.7l0.374-0.374l1.216-1.403l1.987-0.19c-0.033-0.213-0.057-0.43-0.057-0.648c0-0.521,0.103-1.021,0.278-1.48
		l-2.432-1.09l-0.437-1.73h2.012l1.496,1.713c0.391-0.477,0.886-0.861,1.447-1.124l-1.074-2.179l0.328-1.215l0.89,0.651l0.569,2.483
		c0.326-0.084,0.666-0.135,1.021-0.135c0.423,0,0.83,0.064,1.214,0.186l-0.09-2.568l0.746-0.699
		c-0.199-0.315-0.402-0.625-0.611-0.922c-0.666-0.916-1.31-1.68-1.932-2.33h-0.9l-0.481,1.992l-1.034-1.59l-1.451,0.506l0.683-1.365
		l-0.683-1.416l1.668,0.375l0.222-0.271c-2.787-2.043-4.871-1.73-5.763-1.73c-0.819,7.188-9.56,19.918-9.56,19.918
		c4.122,0.015,16.397,6.89,19.567,9.75c0.816-0.627,1.467-1.324,2.003-2.055l-0.437-0.67l-1.451,0.504l0.684-1.365l-0.684-1.416
		l1.668,0.377l1.164-1.412v1.76l0.229,0.197c1.349-3.104,1.037-6.312,0.906-7.549c-0.044-0.426-0.104-0.856-0.176-1.299l-1.85-0.931
		C139.064,144.68,138.385,145.332,137.554,145.716z"/>
	<polygon fill="#FFE000" points="123.174,144.588 124.338,143.176 124.338,144.934 125.661,146.086 124.477,146.086 
		123.992,148.079 122.957,146.49 121.506,146.993 122.188,145.627 121.506,144.211 	"/>
	<path fill="#FFFFFF" d="M139.938,141.995c0,0.226-0.021,0.446-0.059,0.661l1.096,0.295c-0.082-0.359-0.174-0.725-0.271-1.094
		c-0.124-0.455-0.26-0.896-0.396-1.332l-0.56,0.229C139.87,141.146,139.938,141.564,139.938,141.995z"/>
	<path fill="#FFFFFF" d="M138.875,139.246l0.785-0.529c-0.26-0.658-0.541-1.292-0.84-1.898l-0.732,1.75
		C138.379,138.76,138.643,138.988,138.875,139.246z"/>
	<path fill="#FFE000" d="M131.292,129.68l0.683,1.416l-0.683,1.366l1.451-0.504l1.034,1.589l0.481-1.994h0.9
		c-0.691-0.728-1.354-1.308-1.979-1.767l-0.224,0.269L131.292,129.68z"/>
	<path fill="#FFE000" d="M140.373,151.686l-1.164,1.412l-1.668-0.379l0.684,1.418l-0.684,1.365l1.451-0.503l0.437,0.669
		c0.483-0.654,0.873-1.337,1.173-2.025l-0.229-0.199V151.686z"/>
	<path fill="#FFE000" d="M139.879,142.656c0.035-0.215,0.059-0.436,0.059-0.661c0-0.431-0.064-0.849-0.188-1.237l0.562-0.23
		c-0.199-0.623-0.414-1.227-0.646-1.811l-0.785,0.529c-0.232-0.257-0.496-0.486-0.787-0.678l0.732-1.752
		c-0.35-0.705-0.721-1.379-1.115-2.012l-0.746,0.698l0.09,2.569c-0.384-0.118-0.791-0.186-1.214-0.186
		c-0.354,0-0.69,0.049-1.021,0.133l-0.57-2.481l-0.889-0.651l-0.326,1.215l1.072,2.178c-0.563,0.264-1.061,0.646-1.446,1.125
		l-1.497-1.713h-2.012l0.436,1.729l2.434,1.092c-0.181,0.461-0.28,0.959-0.28,1.48c0,0.222,0.021,0.438,0.057,0.648l-1.987,0.19
		l-1.216,1.403l-0.374,0.373l1.87,0.701l2.265-1.17c0.317,0.517,0.744,0.955,1.252,1.285l-1.225,1.98v1.925l1.729-1.267l0.769-2.096
		c0.312,0.075,0.631,0.119,0.964,0.119c0.271,0,0.533-0.027,0.789-0.078l1.13,3.021l1.073,0.656l0.264-1.666l-1.535-2.315
		c0.83-0.384,1.513-1.037,1.928-1.851l1.852,0.93c-0.096-0.6-0.212-1.211-0.354-1.844L139.879,142.656z"/>
</g>
<path fill="#58ACDB" d="M115.89,181.021c0,0,2.141,0.235,3.943-0.229l0.23-5.051l-1.702-0.952l-1.964-1.762l1.462,2.012
	L115.89,181.021z"/>
<path fill="#58ACDB" d="M137.541,185.729l1.771-8.44l-4.397,0.842c0,0,12.749-4.039,14.464-5.218c0,0-5.826,3.729-7.292,4.146
	c-1.465,0.416,0-0.121,0-0.121v7.975C142.087,184.908,140.736,186.663,137.541,185.729z"/>
<path fill="#007AFF" d="M118.967,191.258c0,0-2.775-0.73-2.826-5.141c-1.505,0.156-2.983,0.271-4.217-0.461
	c0.015,2.336-0.102,4.104,1.338,5.705c0,0-24.708-0.293-23.684,7.296c0,0,2.265,3.976,10.917,1.145l21.413-6.077
	C121.909,193.725,123.043,192.775,118.967,191.258z"/>
<path fill="#007AFF" d="M145.768,198.646c0,0-3.927-2.508-5.854-7.955c-1.609,0.656-3.18,0.932-4.646,0.461
	c0.904,2.684,1.398,4.939,3.707,7.506c0,0-28.77-0.233-27.569,8.642c0,0,4.186,5.201,13.601,0.839l24.207-6.605
	C149.209,201.529,150.535,200.42,145.768,198.646z"/>
<path fill="#B3E0FF" d="M89.982,199.148c0,0-0.849-6.512,24.076-7.318c0,0-1.395-1.721-1.586-5.91l1.586,0.305
	c0,0-1.684,0.279,0.842,6.313c0,0-21.352,0.837-23.677,7.501L89.982,199.148z"/>
<path fill="#B3E0FF" d="M112.508,208.268c0,0-2.15-7.012,27.152-9.524c0,0-3.121-4.029-3.711-7.433h1.796
	c0,0-0.438,2.767,3.229,7.724c0,0-26.037,2.87-26.805,10.136"/>
<g>
	<path fill="#EF4B4D" d="M82.093,62.986h-4.877h-0.285c-0.263,0-0.465-0.049-0.609-0.148c-0.142-0.099-0.213-0.239-0.213-0.422
		c0-0.299,0.146-0.497,0.438-0.592c0.241-0.08,0.382-0.129,0.422-0.147c0.04-0.019,0.082-0.061,0.126-0.126
		c0.087-0.117,0.131-0.304,0.131-0.56V50.02c0-0.256-0.044-0.442-0.131-0.559c-0.044-0.066-0.086-0.108-0.126-0.126
		c-0.041-0.018-0.181-0.068-0.422-0.148c-0.292-0.095-0.438-0.292-0.438-0.592c0-0.183,0.072-0.323,0.213-0.422
		c0.144-0.099,0.346-0.148,0.609-0.148h0.285h4.889h0.373c0.321,0,0.551,0.044,0.69,0.132c0.19,0.117,0.285,0.271,0.285,0.46
		c0,0.322-0.175,0.522-0.526,0.604c-0.285,0.065-0.453,0.109-0.504,0.131c-0.051,0.022-0.105,0.066-0.164,0.132
		c-0.11,0.132-0.165,0.336-0.165,0.614L82.093,62.986L82.093,62.986z M82.981,62.986v-1.228c0.358-0.066,0.641-0.139,0.85-0.219
		c0.208-0.081,0.407-0.197,0.597-0.351c0.307-0.241,0.588-0.573,0.844-0.997c0.256-0.424,0.464-0.896,0.625-1.414
		c0.117-0.402,0.225-0.667,0.324-0.795c0.098-0.128,0.242-0.191,0.436-0.191c0.204,0,0.354,0.084,0.449,0.252
		c0.044,0.08,0.065,0.241,0.065,0.482v4.461H82.981z"/>
	<path fill="#EF4B4D" d="M92.068,50.809l0.559,2.269l-1.94,7.081c-0.059,0.205-0.087,0.395-0.087,0.57
		c0,0.46,0.215,0.789,0.646,0.986l0.384,0.175c0.241,0.11,0.362,0.292,0.362,0.548c0,0.365-0.267,0.548-0.8,0.548h-2.784
		c-0.271,0-0.484-0.057-0.642-0.17c-0.157-0.113-0.235-0.269-0.235-0.466c0-0.212,0.161-0.387,0.482-0.526
		c0.299-0.131,0.52-0.25,0.664-0.356c0.142-0.106,0.279-0.25,0.411-0.433c0.205-0.3,0.373-0.698,0.504-1.194L92.068,50.809z
		 M92.824,48.024h4.417l3.047,12.879c0.058,0.227,0.124,0.427,0.197,0.603c0.066,0.139,0.212,0.252,0.438,0.34
		c0.19,0.08,0.321,0.16,0.395,0.241c0.073,0.08,0.109,0.189,0.109,0.328c0,0.38-0.285,0.57-0.854,0.57h-5.469
		c-0.219,0-0.395-0.053-0.526-0.159c-0.131-0.105-0.197-0.246-0.197-0.422c0-0.146,0.029-0.256,0.088-0.329
		c0.058-0.073,0.19-0.165,0.396-0.274c0.146-0.073,0.249-0.153,0.307-0.241c0.058-0.088,0.087-0.197,0.087-0.329
		c0-0.124-0.011-0.233-0.033-0.329l-0.351-1.589h-3.059l0.296-1.305h2.456l-2.017-8.911L92.824,48.024z"/>
	<path fill="#EF4B4D" d="M108.218,62.986h-4.878h-0.285c-0.263,0-0.466-0.049-0.609-0.148c-0.145-0.099-0.213-0.239-0.213-0.422
		c0-0.299,0.146-0.497,0.438-0.592c0.241-0.08,0.381-0.129,0.422-0.147c0.04-0.019,0.082-0.061,0.126-0.126
		c0.087-0.117,0.131-0.304,0.131-0.56V50.02c0-0.256-0.044-0.442-0.131-0.559c-0.044-0.066-0.086-0.108-0.126-0.126
		c-0.041-0.018-0.181-0.068-0.422-0.148c-0.292-0.095-0.438-0.292-0.438-0.592c0-0.183,0.072-0.323,0.213-0.422
		c0.143-0.099,0.346-0.148,0.609-0.148h0.285h4.889h0.373c0.322,0,0.552,0.044,0.691,0.132c0.19,0.117,0.285,0.271,0.285,0.46
		c0,0.322-0.175,0.522-0.526,0.604c-0.285,0.065-0.453,0.109-0.504,0.131c-0.051,0.022-0.106,0.066-0.165,0.132
		c-0.109,0.132-0.164,0.336-0.164,0.614L108.218,62.986L108.218,62.986z M109.105,62.986v-1.228c0.358-0.066,0.641-0.139,0.85-0.219
		c0.208-0.081,0.407-0.197,0.597-0.351c0.307-0.241,0.588-0.573,0.844-0.997c0.256-0.424,0.464-0.896,0.625-1.414
		c0.117-0.402,0.224-0.667,0.324-0.795c0.098-0.128,0.243-0.191,0.433-0.191c0.205,0,0.354,0.084,0.449,0.252
		c0.044,0.08,0.066,0.241,0.066,0.482v4.461H109.105z"/>
	<path fill="#EF4B4D" d="M118.191,50.809l0.559,2.269l-1.94,7.081c-0.059,0.205-0.088,0.395-0.088,0.57
		c0,0.46,0.215,0.789,0.646,0.986l0.384,0.175c0.241,0.11,0.362,0.292,0.362,0.548c0,0.365-0.267,0.548-0.8,0.548h-2.784
		c-0.271,0-0.484-0.057-0.642-0.17c-0.158-0.113-0.235-0.269-0.235-0.466c0-0.212,0.161-0.387,0.482-0.526
		c0.3-0.131,0.521-0.25,0.664-0.356c0.142-0.106,0.279-0.25,0.411-0.433c0.205-0.3,0.373-0.698,0.504-1.194L118.191,50.809z
		 M118.948,48.024h4.417l3.047,12.879c0.059,0.227,0.124,0.427,0.197,0.603c0.063,0.139,0.212,0.252,0.438,0.34
		c0.19,0.08,0.321,0.16,0.395,0.241c0.074,0.08,0.109,0.189,0.109,0.328c0,0.38-0.283,0.57-0.854,0.57h-5.47
		c-0.219,0-0.395-0.053-0.526-0.159c-0.131-0.105-0.197-0.246-0.197-0.422c0-0.146,0.029-0.256,0.088-0.329
		c0.059-0.073,0.19-0.165,0.395-0.274c0.146-0.073,0.249-0.153,0.307-0.241s0.087-0.197,0.087-0.329
		c0-0.124-0.011-0.233-0.033-0.329l-0.351-1.589h-3.058l0.296-1.305h2.455l-2.017-8.911L118.948,48.024z"/>
	<path fill="#EF4B4D" d="M134.342,48.024v14.962h-4.878h-0.285c-0.263,0-0.466-0.049-0.605-0.148
		c-0.145-0.099-0.216-0.239-0.216-0.422c0-0.299,0.146-0.497,0.438-0.592c0.241-0.08,0.381-0.129,0.422-0.147
		c0.04-0.019,0.082-0.061,0.126-0.126c0.09-0.117,0.133-0.304,0.133-0.56V50.02c0-0.256-0.043-0.442-0.133-0.559
		c-0.044-0.066-0.086-0.108-0.126-0.126c-0.041-0.018-0.181-0.068-0.422-0.148c-0.292-0.095-0.438-0.292-0.438-0.592
		c0-0.183,0.07-0.323,0.216-0.422c0.143-0.099,0.346-0.148,0.605-0.148h0.285L134.342,48.024L134.342,48.024z M137.75,55.237
		c0.658,0.131,1.164,0.259,1.518,0.383c0.354,0.125,0.676,0.281,0.961,0.471c0.488,0.314,0.862,0.729,1.123,1.244
		c0.258,0.515,0.392,1.091,0.392,1.727c0,1.249-0.461,2.225-1.384,2.927c-0.476,0.365-1,0.623-1.571,0.772
		c-0.573,0.149-1.324,0.225-2.252,0.225h-1.308v-1.151c0.293-0.022,0.523-0.064,0.691-0.126s0.317-0.167,0.449-0.313
		c0.24-0.27,0.361-0.69,0.361-1.26v-2.488c0-0.365-0.031-0.65-0.097-0.855c-0.062-0.205-0.176-0.391-0.344-0.559
		c-0.125-0.132-0.26-0.227-0.406-0.285c-0.146-0.058-0.354-0.105-0.625-0.143v-1.14c0.271-0.022,0.48-0.059,0.632-0.109
		c0.147-0.052,0.286-0.136,0.409-0.252c0.117-0.11,0.218-0.252,0.3-0.427c0.077-0.176,0.123-0.336,0.131-0.482v-0.603v-1.896
		c0-0.197-0.033-0.404-0.102-0.619c-0.063-0.216-0.146-0.386-0.238-0.51c-0.142-0.168-0.297-0.292-0.468-0.373
		c-0.173-0.08-0.401-0.135-0.694-0.164v-1.206h1.262c1.666,0,2.938,0.344,3.813,1.03c0.402,0.314,0.709,0.694,0.922,1.14
		c0.211,0.446,0.317,0.928,0.317,1.447c0,0.512-0.108,0.994-0.324,1.447c-0.215,0.453-0.517,0.829-0.903,1.129
		c-0.282,0.233-0.611,0.424-0.984,0.57S138.43,55.083,137.75,55.237z"/>
	<path fill="#EF4B4D" d="M146.451,50.809l0.559,2.269l-1.938,7.081c-0.062,0.205-0.09,0.395-0.09,0.57
		c0,0.46,0.217,0.789,0.646,0.986l0.385,0.175c0.24,0.11,0.36,0.292,0.36,0.548c0,0.365-0.268,0.548-0.8,0.548h-2.784
		c-0.271,0-0.482-0.057-0.643-0.17c-0.157-0.113-0.234-0.269-0.234-0.466c0-0.212,0.161-0.387,0.48-0.526
		c0.301-0.131,0.521-0.25,0.664-0.356c0.143-0.106,0.277-0.25,0.409-0.433c0.204-0.3,0.372-0.698,0.505-1.194L146.451,50.809z
		 M147.207,48.024h4.418l3.047,12.879c0.059,0.227,0.124,0.427,0.197,0.603c0.064,0.139,0.212,0.252,0.438,0.34
		c0.189,0.08,0.321,0.16,0.396,0.241c0.072,0.08,0.107,0.189,0.107,0.328c0,0.38-0.285,0.57-0.854,0.57h-5.47
		c-0.221,0-0.396-0.053-0.526-0.159c-0.131-0.105-0.197-0.246-0.197-0.422c0-0.146,0.029-0.256,0.089-0.329
		c0.061-0.073,0.188-0.165,0.396-0.274c0.146-0.073,0.248-0.153,0.307-0.241c0.062-0.088,0.091-0.197,0.091-0.329
		c0-0.124-0.014-0.233-0.033-0.329l-0.354-1.589H146.2l0.295-1.305h2.456l-2.018-8.911L147.207,48.024z"/>
	<path fill="#EF4B4D" d="M158.229,51.872l1.16,1.929v5.875c0,0.512,0.086,0.932,0.26,1.261c0.17,0.329,0.442,0.6,0.814,0.812
		l0.329,0.186c0.19,0.11,0.285,0.274,0.285,0.493c0,0.168-0.069,0.307-0.208,0.417c-0.117,0.095-0.358,0.143-0.725,0.143h-2.531
		c-0.664,0-0.997-0.19-0.997-0.57c0-0.131,0.034-0.235,0.104-0.312c0.07-0.077,0.222-0.181,0.456-0.313
		c0.701-0.387,1.053-1.092,1.053-2.116V51.872z M162.82,48.024l5.83,10.128v4.834h-2.991l-7.442-12.824
		c-0.16-0.278-0.293-0.472-0.395-0.581c-0.104-0.109-0.234-0.19-0.396-0.241l-0.417-0.153c-0.108-0.037-0.196-0.103-0.263-0.197
		c-0.064-0.095-0.102-0.201-0.102-0.318c0-0.125,0.032-0.239,0.102-0.345c0.064-0.106,0.152-0.181,0.263-0.225
		c0.124-0.051,0.46-0.077,1.011-0.077L162.82,48.024L162.82,48.024z M168.65,56.398l-1.161-1.962V51.4
		c0-0.613-0.091-1.083-0.271-1.408c-0.18-0.325-0.493-0.604-0.946-0.839c-0.152-0.073-0.261-0.151-0.316-0.235
		c-0.059-0.084-0.088-0.192-0.088-0.323c0-0.197,0.063-0.342,0.191-0.433c0.127-0.091,0.334-0.137,0.616-0.137h2.74
		c0.373,0,0.618,0.059,0.731,0.176c0.125,0.117,0.188,0.256,0.188,0.416c0,0.154-0.035,0.269-0.104,0.346
		c-0.067,0.077-0.232,0.181-0.498,0.313c-0.387,0.197-0.68,0.5-0.877,0.909c-0.14,0.3-0.209,0.706-0.209,1.217v4.996H168.65z"/>
	<path fill="#105EB2" d="M101.398,68.513l0.708,2.874l-2.458,8.969c-0.074,0.26-0.111,0.5-0.111,0.723
		c0,0.583,0.272,0.999,0.819,1.249l0.486,0.223c0.305,0.139,0.458,0.37,0.458,0.694c0,0.463-0.338,0.694-1.014,0.694H96.76
		c-0.343,0-0.613-0.071-0.813-0.215c-0.199-0.144-0.298-0.34-0.298-0.59c0-0.269,0.203-0.49,0.611-0.667
		c0.379-0.166,0.659-0.316,0.84-0.451c0.18-0.134,0.354-0.316,0.521-0.548c0.259-0.38,0.472-0.884,0.639-1.514L101.398,68.513z
		 M102.356,64.986h5.595l3.86,16.313c0.074,0.287,0.157,0.542,0.25,0.764c0.083,0.176,0.268,0.319,0.555,0.431
		c0.24,0.102,0.407,0.204,0.5,0.305c0.092,0.102,0.139,0.241,0.139,0.417c0,0.481-0.361,0.722-1.083,0.722h-6.928
		c-0.277,0-0.5-0.066-0.666-0.201c-0.167-0.134-0.25-0.313-0.25-0.534c0-0.185,0.036-0.324,0.111-0.417
		c0.074-0.092,0.241-0.208,0.5-0.347c0.185-0.093,0.314-0.194,0.389-0.306c0.074-0.111,0.111-0.25,0.111-0.417
		c0-0.157-0.014-0.296-0.042-0.417l-0.444-2.013h-3.874l0.375-1.652h3.11l-2.555-11.288L102.356,64.986z"/>
	<path fill="#105EB2" d="M121.958,83.938h-6.192h-0.361c-0.333,0-0.591-0.062-0.771-0.187c-0.181-0.125-0.271-0.303-0.271-0.535
		c0-0.379,0.185-0.629,0.555-0.75c0.306-0.102,0.484-0.164,0.534-0.187c0.051-0.023,0.104-0.077,0.16-0.16
		c0.111-0.148,0.167-0.384,0.167-0.708V67.513c0-0.324-0.055-0.56-0.167-0.708c-0.056-0.083-0.109-0.136-0.16-0.16
		c-0.05-0.023-0.229-0.085-0.534-0.188c-0.37-0.12-0.555-0.37-0.555-0.75c0-0.231,0.09-0.409,0.271-0.534
		c0.18-0.125,0.438-0.188,0.771-0.188h0.361h6.192h0.361c0.333,0,0.59,0.063,0.77,0.188c0.181,0.125,0.271,0.303,0.271,0.534
		c0,0.38-0.186,0.63-0.555,0.75c-0.305,0.102-0.484,0.165-0.534,0.188c-0.051,0.023-0.104,0.076-0.16,0.16
		c-0.111,0.148-0.167,0.384-0.167,0.708v13.898c0,0.519,0.134,0.824,0.403,0.916l0.43,0.139c0.352,0.111,0.528,0.361,0.528,0.75
		c0,0.481-0.329,0.722-0.986,0.722H121.958z M127.456,70.484l4.192,10.968c0.108,0.296,0.228,0.521,0.348,0.673
		c0.12,0.153,0.277,0.271,0.473,0.354c0.193,0.093,0.318,0.163,0.375,0.208c0.129,0.13,0.193,0.301,0.193,0.514
		c0,0.49-0.348,0.735-1.041,0.735h-6.983c-0.333,0-0.59-0.069-0.77-0.208c-0.181-0.139-0.271-0.337-0.271-0.597
		c0-0.296,0.171-0.528,0.514-0.694c0.212-0.102,0.355-0.188,0.43-0.257c0.074-0.069,0.116-0.164,0.125-0.285
		c0-0.065-0.037-0.212-0.111-0.444l-1.777-5.304c-0.167-0.49-0.25-0.907-0.25-1.25c0-0.324,0.134-0.676,0.403-1.055l3.318-4.679
		c0.313-0.435,0.474-0.888,0.474-1.36c0-0.259-0.07-0.5-0.21-0.722c-0.139-0.223-0.323-0.379-0.555-0.472l-0.5-0.208
		c-0.313-0.129-0.472-0.347-0.472-0.652c0-0.25,0.097-0.453,0.292-0.611c0.133-0.102,0.345-0.153,0.642-0.153h4.94
		c0.324,0,0.576,0.072,0.76,0.215c0.18,0.144,0.27,0.345,0.27,0.604c0,0.389-0.213,0.666-0.639,0.833l-0.734,0.292
		c-0.307,0.111-0.693,0.361-1.168,0.75c-0.352,0.296-0.783,0.792-1.305,1.485L127.456,70.484z"/>
	<path fill="#105EB2" d="M140.753,66.111c-0.472,0.167-0.806,0.394-1,0.68c-0.194,0.287-0.292,0.708-0.292,1.264v12.412
		c0,0.815,0.111,1.389,0.334,1.722c0.176,0.277,0.494,0.477,0.958,0.597v1.527c-2.056-0.167-3.776-0.939-5.165-2.318
		c-1.805-1.795-2.707-4.299-2.707-7.511c0-1.611,0.238-3.066,0.715-4.367c0.479-1.3,1.182-2.404,2.117-3.311
		c0.713-0.694,1.48-1.222,2.305-1.583c0.823-0.361,1.735-0.564,2.735-0.611V66.111L140.753,66.111z M141.891,66.111v-1.5
		c1,0.047,1.914,0.25,2.742,0.611c0.828,0.36,1.6,0.888,2.313,1.583c1.888,1.842,2.832,4.401,2.832,7.678
		c0,3.212-0.902,5.716-2.707,7.511c-1.39,1.389-3.115,2.161-5.181,2.318v-1.527c0.239-0.055,0.43-0.127,0.563-0.215
		c0.134-0.088,0.257-0.215,0.367-0.382c0.25-0.379,0.375-0.953,0.375-1.722V68.055c0-0.49-0.083-0.879-0.25-1.166
		c-0.111-0.194-0.243-0.348-0.396-0.458C142.396,66.321,142.178,66.213,141.891,66.111z"/>
</g>
<polygon fill="#FFA71A" points="81.268,67.693 82.79,70.778 86.193,71.272 83.731,73.673 84.312,77.063 81.268,75.462 
	78.223,77.063 78.804,73.673 76.342,71.272 79.746,70.778 "/>
<polygon fill="#FFA71A" points="164.855,67.693 166.377,70.778 169.781,71.272 167.318,73.673 167.898,77.063 164.855,75.462 
	161.811,77.063 162.393,73.673 159.93,71.272 163.333,70.778 "/>
<polygon fill="#FFE05F" points="121.339,38.575 122.861,41.659 126.266,42.153 123.802,44.555 124.383,47.944 121.339,46.344 
	118.294,47.944 118.875,44.555 116.413,42.153 119.816,41.659 "/>
<path fill="#00AEEF" d="M135.373,171.857c0.23-0.313,0.275-0.699,0.129-1.152c-0.182-0.574-0.521-0.916-0.961-0.982
	c-0.33-0.049-0.697,0.063-1.154,0.209c-0.041,0.014-0.084,0.025-0.125,0.037l-1.41,0.449l1.592,4.99l1.653-0.529
	c0.46-0.146,0.833-0.266,1.097-0.594c0.271-0.348,0.324-0.854,0.135-1.449C136.136,172.238,135.835,171.924,135.373,171.857
	 M133.378,171.18l0.332-0.107c0.438-0.139,0.627-0.159,0.751,0.234c0.107,0.334-0.008,0.478-0.314,0.574l-0.491,0.156
	L133.378,171.18z M134.793,173.691l-0.557,0.178l-0.293-0.924l0.545-0.174c0.354-0.111,0.557-0.058,0.666,0.293
	C135.266,173.41,135.146,173.58,134.793,173.691"/>
<rect x="134.286" y="171.232" transform="matrix(0.3038 0.9527 -0.9527 0.3038 258.9976 -10.8246)" fill="#00AEEF" width="5.239" height="1.161"/>
<path fill="#00AEEF" d="M146.014,168.82c-0.281-0.354-0.672-0.479-1.119-0.334c-0.403,0.131-0.646,0.438-0.771,0.957
	c-0.351-0.377-0.662-0.49-1.024-0.375c-0.391,0.125-0.629,0.424-0.731,0.938l-0.172-0.543l-1,0.32l1.176,3.686l1.082-0.348
	l-0.631-1.977c-0.138-0.433-0.077-0.693,0.168-0.771c0.278-0.09,0.45,0.094,0.608,0.586l0.612,1.92l1.075-0.344l-0.624-1.957
	c-0.146-0.457-0.095-0.709,0.177-0.795c0.266-0.084,0.438,0.088,0.579,0.539l0.63,1.971l0.467-0.146l-0.563-3.313L146.014,168.82z"
	/>
<path fill="#1C75BC" d="M148.26,168.381c-0.025,0.002-0.057,0.002-0.089,0.008c-0.032,0.002-0.065,0.004-0.101,0.008
	c-0.033,0.006-0.063,0.01-0.092,0.017c-0.131,0.021-0.246,0.06-0.345,0.104c-0.098,0.049-0.18,0.107-0.25,0.182
	c-0.067,0.068-0.132,0.15-0.184,0.244c-0.052,0.095-0.099,0.191-0.138,0.306l-0.053,0.008l-0.259-0.562l-0.743,0.127l-0.064,0.013
	l0.563,3.313l0.105,0.604l1.067-0.183l-0.342-1.996c-0.031-0.184-0.033-0.344-0.013-0.479c0.022-0.138,0.069-0.248,0.14-0.343
	c0.069-0.092,0.16-0.166,0.271-0.224c0.104-0.053,0.229-0.092,0.367-0.114c0.022-0.004,0.055-0.008,0.092-0.015
	c0.033-0.004,0.067-0.01,0.104-0.01c0.04-0.006,0.074-0.008,0.107-0.008c0.033-0.002,0.06,0,0.078,0l-0.17-1.002
	C148.309,168.381,148.285,168.379,148.26,168.381"/>
<path fill="#00AEEF" d="M137.9,170.184c0.269-0.061,0.438-0.328,0.377-0.598c-0.063-0.266-0.327-0.436-0.596-0.373
	c-0.271,0.061-0.438,0.326-0.375,0.594C137.367,170.072,137.634,170.24,137.9,170.184"/>
<path fill="#00AEEF" d="M140.223,169.488c0.271-0.063,0.438-0.326,0.377-0.594c-0.061-0.271-0.328-0.438-0.596-0.375
	c-0.268,0.061-0.436,0.326-0.376,0.595C139.688,169.381,139.954,169.551,140.223,169.488"/>
<path fill="#00AEEF" d="M141.499,171.729l-0.597-2.121l-1.109,0.312l0.561,1.963c0.049,0.183,0.082,0.336,0.098,0.468
	c0.01,0.114,0.001,0.217-0.026,0.295c-0.024,0.073-0.071,0.137-0.139,0.186c-0.049,0.035-0.109,0.068-0.185,0.098
	c-0.017,0.002-0.029,0.006-0.047,0.012c-0.123,0.037-0.229,0.056-0.316,0.049c-0.081-0.006-0.152-0.028-0.219-0.077
	c-0.065-0.052-0.131-0.13-0.186-0.231c-0.061-0.113-0.119-0.265-0.178-0.439l-0.611-1.945l-1.099,0.354l0.67,2.099
	c0.18,0.567,0.466,0.961,0.849,1.172c0.285,0.153,0.609,0.209,0.965,0.159c0.021,0.003,0.035-0.002,0.049-0.002
	c0.041-0.008,0.08-0.018,0.119-0.024c0.084-0.021,0.166-0.038,0.244-0.063c0.521-0.146,0.887-0.418,1.094-0.805
	C141.638,172.783,141.66,172.299,141.499,171.729"/>
</svg>
