<?xml version="1.0" encoding="utf-8"?>
<!-- Generator: Adobe Illustrator 16.0.0, SVG Export Plug-In . SVG Version: 6.00 Build 0)  -->
<!DOCTYPE svg PUBLIC "-//W3C//DTD SVG 1.1//EN" "http://www.w3.org/Graphics/SVG/1.1/DTD/svg11.dtd">
<svg version="1.1" id="Layer_1" xmlns="http://www.w3.org/2000/svg" xmlns:xlink="http://www.w3.org/1999/xlink" x="0px" y="0px"
	 width="250px" height="250px" viewBox="0 0 250 250" enable-background="new 0 0 250 250" xml:space="preserve">
<path opacity="0.15" enable-background="new    " d="M479.963-70.515c-51.63,0-93.486,41.855-93.486,93.487
	c0,51.633,41.856,93.487,93.486,93.487c12.896,0,25.186-2.612,36.361-7.334c13.316-5.629,25.058-14.252,34.378-25.028
	c14.174-16.39,22.749-37.756,22.749-61.125C573.451-28.659,531.596-70.515,479.963-70.515z"/>
<circle fill="#77CC00" cx="-432.234" cy="170.678" r="97.487"/>
<g id="Layer_2_1_">
</g>
<g id="Layer_2">
</g>
<polygon fill="#2AACE3" points="-473.04,148.089 -473.04,148.089 -473.038,148.089 "/>
<path fill="#2AACE3" d="M-509.335,178.3c-0.002,0.124,0.003,0.251,0.014,0.378C-509.333,178.552-509.337,178.424-509.335,178.3z"/>
<path fill="#0291CA" d="M-402.592,90.062c0,0,0.01,0.001,0.017,0.001l-0.013-0.004L-402.592,90.062z"/>
<path fill="#FFFFFF" d="M-361.336,233.788c-12.416-3.59-23.256-8.39-32.472-13.405c-2.268-1.332-4.463-2.619-6.577-3.857
	c-1.091-0.586-2.069-1.297-3.058-1.951c-0.047-0.033-0.095-0.066-0.147-0.098l0.172-0.275c-0.86-2.58-5.647-17.244-8.714-32.188
	c0.017-0.98-0.085-1.978-0.405-2.959l-0.046-0.16l-0.057-0.139l-0.069-0.255c-0.097-0.34-0.239-0.877-0.386-1.524
	c-0.502-2.879-0.924-5.722-1.211-8.438c-0.092-1.239-0.176-2.511-0.196-3.896c-0.021-1.724,0.017-3.527,0.146-5.392
	c0.125-1.856,0.348-3.762,0.649-5.664c0.295-1.897,0.701-3.797,1.194-5.646c0.502-1.846,1.041-3.653,1.721-5.354
	c0.302-0.861,0.688-1.674,1.038-2.475c0.341-0.813,0.771-1.565,1.139-2.314c0.786-1.484,1.636-2.82,2.483-4.025
	c0.398-0.614,0.869-1.149,1.294-1.678c0.419-0.539,0.864-1.016,1.286-1.469c0.789-0.928,1.677-1.635,2.382-2.281
	c0.753-0.619,1.435-1.104,1.979-1.503c0.571-0.36,1.043-0.626,1.357-0.813l0.477-0.274c3.291-1.888,6.047-4.752,7.813-8.431
	c4.198-8.761,1.235-19.101-6.552-24.405c-0.805-0.546-1.656-1.038-2.555-1.472c-1.285-0.612-2.599-1.069-3.928-1.384
	c-0.007,0-0.009-0.001-0.009-0.001c-8.695-2.052-17.927,2.121-21.948,10.496l-1.211,2.513c0,0-0.654,1.359-1.79,3.729
	c-0.524,1.197-1.128,2.65-1.817,4.287c-0.604,1.665-1.319,3.522-1.939,5.563c-0.326,1.014-0.654,2.071-0.918,3.165
	c-0.268,1.1-0.609,2.217-0.839,3.371c-0.528,2.306-0.972,4.722-1.323,7.187c-0.34,2.475-0.626,5.002-0.764,7.531
	c-0.037,0.631-0.065,1.262-0.104,1.898c-0.01,0.256-0.017,0.508-0.021,0.764c-0.028-0.008-0.055-0.014-0.073-0.021
	c0,0.021,0.024,0.211,0.054,0.465c-0.006,0.234-0.009,0.465-0.016,0.699c-0.061,1.266-0.038,2.521-0.038,3.773
	c0.003,1.264,0.048,2.506,0.083,3.738c0.068,1.233,0.123,2.457,0.199,3.66c0.179,2.405,0.379,4.76,0.648,7.012
	c0.031,0.271,0.069,0.504,0.103,0.778c0,0-46.532-49.823-63.242,9.177c0,0-8.5,16.5,13.21,19.5c0,0-35.5,66.5,50.507,46.094
	c2.21,1.849,4.543,3.75,7.168,5.582c1.109,0.814,2.251,1.66,3.418,2.515c1.163,0.854,2.337,1.75,3.614,2.535
	c2.521,1.629,5.131,3.313,7.833,5.055c8.724,5.261,18.788,10.419,30.058,14.854c11.711-8.047,21.774-18.357,29.588-30.305
	C-355.22,235.057-360.341,234.079-361.336,233.788z"/>
<path fill="#E5E5E5" d="M-432.955,170.182c0,0-10.286,38.355,8.584,56.846l-15.963-10.512c0,0,1.039-13-5.563-17.166
	c0,0,11.274-15.834,7.836-27.834L-432.955,170.182z"/>
<path fill="#E5E5E5" d="M-434.583,231.934l10.213-4.906l-12.546-13.428l-3.417,3.834l-2.333,3.582
	C-442.667,221.016-437.835,221.295-434.583,231.934z"/>
<path fill="#CCCCCC" d="M-460.583,150.35h-9c0,0,48.5,12,24.5,45.5c0,0-14.029,3.901-33-4.25c0,0,11.373,8.75,32.187,7.75
	c0,0,10.083,13.5-3.603,24.25h-28.583l3.5,2c0,0,51.75,10.75,32.5-26.75c0,0,21.25-36.75-17.25-46.5L-460.583,150.35z"/>
<polygon fill="#2AACE3" points="436.832,-3.69 436.832,-3.69 436.834,-3.69 "/>
<path fill="#2AACE3" d="M402.025,25.284c-0.002,0.117,0.002,0.238,0.014,0.36C402.027,25.524,402.023,25.401,402.025,25.284z"/>
<path fill="#0291CA" d="M504.391-59.336c0,0,0.008,0.001,0.014,0.001l-0.012-0.003L504.391-59.336z"/>
<g>
	<path fill="#77CC00" d="M488.053,90.275c-1.225-0.753-2.351-1.612-3.465-2.431c-1.12-0.82-2.214-1.63-3.277-2.413
		c-2.518-1.755-4.756-3.579-6.873-5.353c-82.479,19.569-48.436-44.201-48.436-44.201C405.184,33,413.334,17.178,413.334,17.178
		c16.023-56.58,60.648-8.801,60.648-8.801c-0.032-0.262-0.069-0.487-0.101-0.748c-0.258-2.159-0.448-4.417-0.622-6.723
		c-0.072-1.153-0.125-2.328-0.191-3.511c-0.033-1.181-0.076-2.374-0.078-3.584c0-1.202-0.023-2.407,0.035-3.619
		c0.008-0.226,0.01-0.446,0.015-0.671c-0.028-0.244-0.05-0.425-0.05-0.445c0.017,0.008,0.043,0.013,0.068,0.02
		c0.006-0.245,0.012-0.487,0.021-0.731c0.037-0.612,0.063-1.216,0.1-1.821c0.133-2.426,0.405-4.851,0.731-7.223
		c0.337-2.364,0.762-4.68,1.271-6.891c0.219-1.106,0.547-2.178,0.803-3.233c0.254-1.049,0.567-2.063,0.881-3.035
		c0.596-1.957,1.281-3.738,1.859-5.334c0.661-1.57,1.24-2.963,1.744-4.111c1.088-2.274,1.715-3.577,1.715-3.577l1.162-2.41
		c3.856-8.031,12.711-12.033,21.049-10.065c0,0,0.002,0.001,0.008,0.001c1.274,0.302,2.533,0.74,3.767,1.328
		c0.86,0.416,1.679,0.888,2.45,1.411c7.467,5.087,10.309,15.002,6.283,23.404c-1.694,3.528-4.338,6.275-7.493,8.085l-0.457,0.264
		c-0.302,0.179-0.753,0.433-1.302,0.779c-0.522,0.384-1.178,0.847-1.897,1.44c-0.677,0.621-1.528,1.299-2.285,2.189
		c-0.403,0.434-0.832,0.891-1.231,1.408c-0.408,0.506-0.859,1.02-1.242,1.609c-0.813,1.155-1.627,2.436-2.381,3.86
		c-0.354,0.718-0.766,1.439-1.092,2.219c-0.338,0.768-0.707,1.547-0.996,2.374c-0.651,1.629-1.17,3.364-1.65,5.133
		c-0.473,1.773-0.861,3.594-1.145,5.414c-0.291,1.824-0.504,3.65-0.623,5.432c-0.125,1.786-0.159,3.517-0.14,5.168
		c0.019,1.331,0.101,2.549,0.188,3.738c0.275,2.604,0.68,5.331,1.16,8.09c0.142,0.623,0.277,1.139,0.371,1.464l0.065,0.245
		l0.054,0.133l0.045,0.153c0.309,0.941,0.405,1.896,0.389,2.836c2.941,14.332,7.531,28.395,8.357,30.867l-0.166,0.266
		c0.051,0.029,0.096,0.063,0.142,0.094c0.948,0.627,1.887,1.309,2.934,1.871c2.026,1.188,4.132,2.422,6.308,3.699
		c8.838,4.811,19.232,9.413,31.14,12.855c0.39,0.112,1.442,0.338,2.75,0.604c14.174-16.391,22.749-37.756,22.749-61.125
		c0-51.631-41.855-93.487-93.488-93.487c-51.63,0-93.486,41.855-93.486,93.487c0,51.633,41.856,93.488,93.486,93.488
		c12.896,0,25.186-2.613,36.361-7.336c-6.045-2.875-11.646-5.92-16.76-9.002C492.975,93.452,490.471,91.837,488.053,90.275z"/>
	<path fill="#FFFFFF" d="M546.702,79.097c-1.308-0.267-2.36-0.49-2.75-0.604c-11.906-3.441-22.302-8.045-31.14-12.854
		c-2.176-1.276-4.28-2.513-6.308-3.699c-1.047-0.563-1.985-1.243-2.935-1.871c-0.045-0.032-0.09-0.063-0.141-0.094l0.165-0.265
		c-0.825-2.475-5.415-16.536-8.356-30.868c0.018-0.938-0.08-1.896-0.389-2.836l-0.045-0.153l-0.054-0.133l-0.065-0.245
		c-0.094-0.325-0.229-0.841-0.371-1.464c-0.48-2.76-0.885-5.485-1.16-8.09c-0.088-1.188-0.17-2.407-0.188-3.738
		c-0.021-1.652,0.015-3.382,0.14-5.168c0.119-1.782,0.332-3.607,0.623-5.432c0.282-1.82,0.672-3.641,1.145-5.414
		c0.48-1.769,0.999-3.504,1.65-5.133c0.289-0.827,0.658-1.605,0.996-2.374c0.325-0.779,0.737-1.5,1.092-2.219
		c0.754-1.424,1.567-2.706,2.381-3.86c0.383-0.589,0.834-1.103,1.242-1.609c0.399-0.517,0.828-0.974,1.231-1.408
		c0.757-0.891,1.608-1.569,2.285-2.189c0.722-0.594,1.375-1.057,1.897-1.44c0.549-0.346,1-0.6,1.302-0.779l0.456-0.264
		c3.156-1.811,5.8-4.558,7.494-8.085c4.024-8.401,1.184-18.317-6.283-23.404c-0.772-0.523-1.59-0.995-2.45-1.411
		c-1.231-0.587-2.491-1.025-3.767-1.328c-0.006,0-0.008-0.001-0.008-0.001c-8.338-1.967-17.191,2.034-21.049,10.065l-1.162,2.41
		c0,0-0.627,1.303-1.715,3.577c-0.504,1.147-1.083,2.541-1.744,4.111c-0.578,1.597-1.265,3.377-1.859,5.334
		c-0.313,0.973-0.627,1.986-0.881,3.035c-0.256,1.055-0.584,2.126-0.803,3.233c-0.508,2.211-0.934,4.527-1.271,6.891
		c-0.326,2.373-0.601,4.797-0.732,7.223c-0.036,0.605-0.062,1.209-0.099,1.821c-0.01,0.245-0.016,0.486-0.021,0.731
		c-0.025-0.007-0.052-0.012-0.068-0.02c0,0.02,0.021,0.202,0.05,0.445c-0.005,0.225-0.007,0.445-0.015,0.671
		c-0.059,1.212-0.035,2.417-0.035,3.619c0,1.21,0.045,2.403,0.078,3.584c0.065,1.183,0.119,2.357,0.191,3.511
		c0.172,2.306,0.363,4.563,0.622,6.723c0.03,0.261,0.067,0.485,0.101,0.748c0,0-44.625-47.779-60.648,8.801
		c0,0-8.15,15.823,12.668,18.698c0,0-34.043,63.771,48.436,44.201c2.117,1.773,4.355,3.599,6.873,5.354
		c1.063,0.783,2.157,1.593,3.277,2.413c1.114,0.817,2.24,1.678,3.465,2.431c2.418,1.563,4.922,3.178,7.514,4.848
		c5.112,3.084,10.713,6.129,16.758,9.004C525.641,98.497,537.382,89.874,546.702,79.097z"/>
</g>
<path fill="#E5E5E5" d="M475.271,17.497c0,0-9.863,36.781,8.232,54.512l-15.309-10.08c0,0,0.996-12.467-5.334-16.462
	c0,0,10.812-15.184,7.515-26.691L475.271,17.497z"/>
<path fill="#E5E5E5" d="M473.71,76.714l9.794-4.705l-12.031-12.876l-3.275,3.677l-2.238,3.435
	C465.958,66.245,470.592,66.512,473.71,76.714z"/>
<path fill="#CCCCCC" d="M448.777-1.523h-8.631c0,0,46.511,11.508,23.496,43.633c0,0-13.455,3.742-31.646-4.074
	c0,0,10.906,8.391,30.865,7.432c0,0,9.67,12.945-3.454,23.255h-27.412l3.356,1.918c0,0,49.625,10.31,31.166-25.651
	c0,0,20.377-35.243-16.541-44.593L448.777-1.523z"/>
<polygon fill="#2AACE3" points="128.963,-150.415 128.961,-150.415 128.961,-150.415 "/>
<path fill="#2AACE3" d="M92.679-181.004c-0.011,0.127-0.016,0.254-0.014,0.378C92.663-180.75,92.667-180.878,92.679-181.004z"/>
<path fill="#0291CA" d="M199.412-92.385l0.012-0.004c-0.006,0-0.016,0.001-0.016,0.001L199.412-92.385z"/>
<g>
	<path fill="#FF7777" d="M182.373-248.399c-1.277,0.785-2.451,1.682-3.613,2.535c-1.168,0.854-2.309,1.699-3.418,2.515
		c-2.625,1.831-4.959,3.733-7.168,5.582c-86.007-20.407-50.507,46.093-50.507,46.093c-21.71,3-13.21,19.5-13.21,19.5
		c16.71,59,63.243,9.177,63.243,9.177c-0.033,0.274-0.072,0.508-0.104,0.779c-0.27,2.252-0.469,4.606-0.647,7.011
		c-0.076,1.203-0.132,2.427-0.199,3.661c-0.035,1.232-0.08,2.475-0.082,3.737c0,1.253-0.022,2.51,0.037,3.774
		c0.008,0.236,0.01,0.465,0.017,0.7c-0.029,0.254-0.054,0.443-0.054,0.464c0.019-0.008,0.045-0.013,0.072-0.021
		c0.006,0.256,0.012,0.508,0.021,0.763c0.039,0.638,0.066,1.268,0.104,1.899c0.139,2.529,0.424,5.058,0.764,7.532
		c0.353,2.465,0.795,4.88,1.324,7.187c0.229,1.154,0.569,2.271,0.838,3.371c0.265,1.094,0.592,2.151,0.918,3.165
		c0.621,2.041,1.336,3.898,1.938,5.563c0.689,1.637,1.293,3.09,1.818,4.287c1.135,2.371,1.789,3.73,1.789,3.73l1.211,2.513
		c4.021,8.375,13.254,12.548,21.949,10.496c0,0,0.002-0.001,0.008-0.001c1.33-0.315,2.643-0.772,3.928-1.384
		c0.898-0.434,1.75-0.926,2.555-1.472c7.787-5.304,10.75-15.644,6.554-24.405c-1.769-3.679-4.522-6.543-7.813-8.431l-0.478-0.275
		c-0.313-0.187-0.785-0.452-1.356-0.813c-0.545-0.4-1.228-0.883-1.979-1.502c-0.705-0.647-1.595-1.354-2.383-2.283
		c-0.423-0.452-0.867-0.929-1.285-1.468c-0.427-0.528-0.896-1.063-1.295-1.678c-0.849-1.204-1.697-2.54-2.481-4.025
		c-0.369-0.749-0.8-1.501-1.14-2.314c-0.353-0.801-0.735-1.613-1.039-2.475c-0.681-1.699-1.22-3.508-1.722-5.353
		c-0.491-1.849-0.897-3.748-1.192-5.646c-0.303-1.902-0.524-3.806-0.649-5.664c-0.129-1.862-0.166-3.667-0.146-5.39
		c0.021-1.387,0.104-2.657,0.194-3.897c0.287-2.716,0.709-5.559,1.211-8.437c0.146-0.649,0.289-1.186,0.388-1.526l0.067-0.254
		l0.058-0.139l0.047-0.16c0.32-0.982,0.423-1.978,0.404-2.958c3.065-14.944,7.854-29.608,8.715-32.188l-0.172-0.276
		c0.053-0.03,0.101-0.063,0.146-0.097c0.988-0.655,1.967-1.365,3.06-1.952c2.112-1.237,4.309-2.525,6.575-3.857
		c9.218-5.016,20.058-9.815,32.474-13.405c0.405-0.119,1.505-0.353,2.867-0.629c14.78,17.09,23.723,39.371,23.723,63.74
		c0,53.841-43.646,97.487-97.487,97.487c-53.839,0-97.487-43.646-97.487-97.487s43.647-97.487,97.487-97.487
		c13.448,0,26.262,2.724,37.916,7.648c-6.304,2.998-12.144,6.173-17.476,9.389C187.504-251.713,184.895-250.028,182.373-248.399z"/>
	<path fill="#FFFFFF" d="M243.531-236.744c-1.362,0.277-2.461,0.511-2.867,0.629c-12.416,3.59-23.256,8.39-32.473,13.405
		c-2.269,1.332-4.463,2.62-6.576,3.857c-1.092,0.587-2.07,1.297-3.059,1.952c-0.048,0.033-0.095,0.066-0.146,0.097l0.172,0.276
		c-0.861,2.58-5.648,17.244-8.715,32.188c0.018,0.98-0.084,1.976-0.404,2.958l-0.047,0.16l-0.057,0.139l-0.068,0.254
		c-0.098,0.34-0.24,0.877-0.387,1.526c-0.502,2.878-0.924,5.721-1.211,8.437c-0.092,1.24-0.176,2.51-0.195,3.897
		c-0.021,1.723,0.016,3.528,0.145,5.39c0.125,1.858,0.349,3.762,0.65,5.664c0.295,1.898,0.701,3.797,1.193,5.646
		c0.502,1.845,1.041,3.654,1.721,5.353c0.303,0.862,0.688,1.674,1.039,2.475c0.34,0.813,0.77,1.565,1.139,2.314
		c0.785,1.485,1.635,2.821,2.482,4.025c0.398,0.615,0.869,1.15,1.295,1.678c0.418,0.539,0.863,1.016,1.285,1.468
		c0.789,0.929,1.678,1.636,2.383,2.283c0.752,0.619,1.434,1.102,1.979,1.502c0.572,0.361,1.043,0.626,1.357,0.813l0.477,0.275
		c3.291,1.888,6.047,4.752,7.814,8.431c4.197,8.761,1.234,19.101-6.553,24.405c-0.805,0.546-1.656,1.038-2.555,1.472
		c-1.285,0.612-2.599,1.069-3.929,1.384c-0.006,0-0.008,0.001-0.008,0.001c-8.695,2.052-17.929-2.121-21.949-10.496l-1.211-2.513
		c0,0-0.653-1.359-1.789-3.73c-0.524-1.197-1.129-2.65-1.817-4.287c-0.604-1.665-1.318-3.522-1.939-5.563
		c-0.326-1.014-0.654-2.071-0.918-3.165c-0.268-1.1-0.609-2.217-0.838-3.371c-0.529-2.306-0.973-4.721-1.324-7.186
		c-0.34-2.474-0.625-5.003-0.764-7.532c-0.037-0.631-0.064-1.261-0.104-1.899c-0.01-0.255-0.016-0.507-0.021-0.763
		c-0.027,0.008-0.055,0.013-0.072,0.021c0-0.021,0.023-0.21,0.053-0.464c-0.006-0.235-0.008-0.464-0.016-0.7
		c-0.061-1.264-0.037-2.521-0.037-3.774c0.002-1.262,0.047-2.505,0.082-3.737c0.068-1.234,0.123-2.458,0.199-3.661
		c0.18-2.405,0.379-4.759,0.648-7.011c0.03-0.271,0.069-0.505,0.104-0.779c0,0-46.533,49.823-63.243-9.177c0,0-8.5-16.5,13.21-19.5
		c0,0-35.5-66.5,50.507-46.093c2.209-1.849,4.543-3.751,7.168-5.582c1.109-0.815,2.25-1.66,3.418-2.515
		c1.162-0.854,2.337-1.75,3.613-2.535c2.521-1.629,5.131-3.313,7.834-5.055c5.332-3.215,11.172-6.391,17.476-9.389
		C221.568-256.975,233.813-247.981,243.531-236.744z"/>
</g>
<path fill="#E5E5E5" d="M169.045-172.508c0,0-10.285-38.355,8.584-56.844l-15.963,10.511c0,0,1.039,13-5.563,17.167
	c0,0,11.272,15.834,7.836,27.833L169.045-172.508z"/>
<path fill="#E5E5E5" d="M167.416-234.259l10.213,4.906l-12.545,13.427l-3.418-3.833l-2.333-3.583
	C159.333-223.342,164.164-223.621,167.416-234.259z"/>
<path fill="#CCCCCC" d="M141.416-152.675h-9c0,0,48.5-12,24.5-45.5c0,0-14.029-3.902-33,4.25c0,0,11.373-8.75,32.188-7.75
	c0,0,10.082-13.5-3.604-24.25h-28.583l3.5-2c0,0,51.75-10.75,32.5,26.75c0,0,21.25,36.75-17.25,46.5L141.416-152.675z"/>
<path opacity="0.15" d="M235.305,99.419h-13.716v1.184h-6.283v-2.037h-13.659v15.6c-1.448-5.678-5.386-9.085-10.769-9.085
	c-0.372,0-0.756,0.017-1.139,0.05c-2.604,0.228-4.853,1.256-6.723,3.066c-1.401-1.067-3.245-1.894-5.621-1.894
	c-0.305,0-0.62,0.014-0.936,0.042c-1.405,0.122-2.697,0.477-3.87,1.06l-8.535,0.747l-0.091-1.734l-1.233,0.086
	c0.08-0.431,0.128-0.875,0.128-1.33c-0.001-4.001-3.257-7.256-7.259-7.257c-4.001,0.001-7.256,3.256-7.257,7.258
	c0,0.809,0.139,1.583,0.384,2.31l-0.131,0.009l-1.985,0.14l-0.557,0.038c0.08-0.432,0.128-0.875,0.128-1.331
	c0-4-3.257-7.256-7.258-7.256c-1.207,0-2.344,0.301-3.346,0.824l-0.301-3.43l-15.612,1.365l0.082,0.934
	c-0.595-0.379-1.229-0.708-1.911-0.973c-1.525-0.583-3.228-0.854-5.354-0.854c-1.45,0-2.99,0.124-4.569,0.263l-15.044,1.315
	l1.24,14.171c-0.391-0.671-0.836-1.287-1.347-1.836c-1.37-1.471-3.885-3.225-8.081-3.225c-2.269,0-4.053,0.481-5.443,1.159v-9.378
	H66.246v1.184H56.132v7.959h-2.174v0.252c-1.74-0.908-3.49-1.176-4.946-1.176c-4.027,0-7.361,1.896-9.644,5.483
	c-1.928,3.032-2.924,7.045-2.966,11.926h-1.83V99.419H20.387v42.352H43.71v-0.298c1.52,0.804,3.222,1.223,5.074,1.223
	c3.382,0,6.194-1.097,8.359-3.261c0.228-0.228,0.443-0.469,0.653-0.718c0.059,0.093,0.119,0.184,0.181,0.272
	c1.037,1.463,3.116,3.208,7.131,3.208c0.616,0,1.281-0.022,1.977-0.066c0.665-0.042,1.39-0.104,2.217-0.19l3.346-0.348v-15.072
	l-2.942,0.415v-1.815l1.051-0.225c1.094-0.234,2.104-0.629,3.021-1.169c0.225,0.906,0.533,1.735,0.938,2.48h-1.951l0.172,3.896
	c0.17,3.87,1.208,6.921,3.086,9.067c1.407,1.607,4.028,3.524,8.529,3.524c3.774,0,6.757-1.163,8.865-3.457
	c1.23-1.339,2.089-3.009,2.577-4.987l0.745,8.515l15.928-1.393c3.737-0.326,7.266-0.635,10.481-3.21
	c0.015-0.012,0.028-0.025,0.042-0.037l0.346,3.955l15.612-1.364l-0.115-1.313c2.035,1.5,4.442,2.406,7.178,2.691
	c0.301,0.067,0.604,0.104,0.909,0.11c0.32,0.008,0.638,0.011,0.953,0.011c0.668,0,1.329-0.016,1.963-0.05
	c2.316-0.122,4.427-0.59,6.272-1.393c1.831-0.796,3.419-1.928,4.734-3.359l0.511,5.836l40.092-3.506v2.026h13.659v-0.555
	c1.134,0.578,2.609,0.981,4.535,0.981c0.615,0,1.28-0.022,1.977-0.066c0.664-0.042,1.39-0.104,2.217-0.19l1.633-0.17h9.581v-17.079
	h-1.252l1.309-12.608V99.419z M94.93,123.202h0.098l0.02,0.223C95.007,123.352,94.972,123.273,94.93,123.202z"/>
<path fill="#F1F1F2" d="M233.439,97.554h-13.716v1.184h-6.283v-2.037h-13.659V112.3c-1.448-5.676-5.386-9.083-10.768-9.083
	c-0.374,0-0.757,0.017-1.141,0.05c-2.604,0.228-4.853,1.256-6.723,3.066c-1.401-1.067-3.245-1.894-5.62-1.894
	c-0.306,0-0.621,0.014-0.935,0.042c-1.406,0.122-2.697,0.477-3.872,1.06l-8.535,0.747l-0.091-1.734l-1.233,0.086
	c0.081-0.431,0.128-0.875,0.128-1.33c-0.001-4.001-3.257-7.257-7.258-7.257c-4,0-7.256,3.256-7.257,7.258
	c0,0.809,0.139,1.583,0.384,2.31l-0.133,0.009l-1.983,0.14l-0.558,0.038c0.081-0.432,0.129-0.875,0.129-1.331
	c-0.002-4-3.257-7.256-7.259-7.256c-1.207,0-2.343,0.301-3.346,0.824l-0.301-3.43L117.8,95.977l0.082,0.934
	c-0.596-0.379-1.23-0.708-1.91-0.973c-1.526-0.583-3.229-0.854-5.356-0.854c-1.449,0-2.988,0.124-4.568,0.263l-15.044,1.315
	l1.24,14.171c-0.391-0.671-0.836-1.287-1.347-1.836c-1.371-1.471-3.885-3.225-8.081-3.225c-2.269,0-4.053,0.481-5.443,1.159v-9.378
	H64.38v1.184H54.267v7.959h-2.174v0.252c-1.74-0.908-3.49-1.176-4.946-1.176c-4.027,0-7.361,1.896-9.644,5.483
	c-1.928,3.033-2.924,7.045-2.966,11.926h-1.83V97.554H18.521v42.353h23.323v-0.298c1.52,0.804,3.222,1.222,5.074,1.222
	c3.382,0,6.194-1.097,8.359-3.261c0.228-0.228,0.443-0.469,0.653-0.717c0.059,0.092,0.119,0.184,0.181,0.271
	c1.037,1.464,3.116,3.209,7.131,3.209c0.616,0,1.281-0.022,1.977-0.067c0.665-0.042,1.39-0.104,2.217-0.189l3.346-0.348v-15.072
	l-2.942,0.415v-1.816l1.051-0.225c1.094-0.233,2.104-0.628,3.021-1.169c0.225,0.907,0.533,1.735,0.938,2.48H70.9l0.171,3.896
	c0.17,3.871,1.209,6.921,3.087,9.067c1.407,1.607,4.028,3.524,8.529,3.524c3.774,0,6.757-1.163,8.865-3.456
	c1.23-1.339,2.089-3.009,2.577-4.988l0.745,8.516l15.928-1.393c3.737-0.327,7.267-0.636,10.481-3.211
	c0.015-0.011,0.028-0.025,0.042-0.036l0.346,3.955l15.611-1.365l-0.113-1.313c2.035,1.501,4.442,2.407,7.178,2.691
	c0.301,0.068,0.604,0.104,0.91,0.111c0.318,0.008,0.637,0.011,0.952,0.011c0.668,0,1.329-0.018,1.963-0.051
	c2.316-0.121,4.426-0.59,6.271-1.393c1.832-0.795,3.421-1.927,4.735-3.358l0.511,5.836l40.093-3.507v2.027h13.659v-0.556
	c1.133,0.579,2.608,0.982,4.533,0.982c0.616,0,1.281-0.022,1.978-0.067c0.665-0.042,1.391-0.104,2.218-0.189l1.632-0.17h9.581
	v-17.08h-1.252l1.31-12.608V97.554z M93.064,121.336h0.098l0.02,0.223C93.141,121.485,93.105,121.408,93.064,121.336z"/>
<g>
	<g>
		<path fill="#7F8080" d="M22.253,136.175v-34.89h6.722v25.628h9.138v9.262H22.253z"/>
		<path fill="#7F8080" d="M49.562,128.548h5.884c-0.426,2.811-1.362,4.938-2.807,6.383c-1.445,1.445-3.352,2.168-5.72,2.168
			c-2.653,0-4.759-1.229-6.317-3.684c-1.558-2.455-2.338-5.759-2.338-9.912c0-4.327,0.796-7.741,2.388-10.245
			c1.592-2.502,3.757-3.754,6.495-3.754c2.748,0,4.901,1.362,6.459,4.086c1.558,2.724,2.338,6.502,2.338,11.334v0.616l-11.526,0.023
			c0.029,1.643,0.289,2.91,0.782,3.801c0.493,0.893,1.18,1.339,2.061,1.339c0.597,0,1.094-0.186,1.492-0.557
			C49.15,129.775,49.42,129.243,49.562,128.548z M44.417,120.4h5.472c-0.066-1.596-0.332-2.792-0.796-3.59
			c-0.464-0.796-1.132-1.195-2.004-1.195c-0.805,0-1.443,0.423-1.912,1.268S44.456,118.899,44.417,120.4z"/>
		<path fill="#7F8080" d="M64.109,126.63c0,0.868,0.151,1.479,0.455,1.835c0.304,0.355,0.843,0.533,1.62,0.533
			c0.228,0,0.4-0.004,0.519-0.013c0.119-0.007,0.235-0.019,0.349-0.034v7.413c-0.758,0.078-1.448,0.139-2.068,0.178
			c-0.621,0.039-1.201,0.06-1.741,0.06c-1.952,0-3.314-0.545-4.086-1.635c-0.772-1.089-1.158-3-1.158-5.732v-12.908h-2.174v-5.898
			h2.174v-7.958h6.111v7.958h2.885v5.898h-2.885V126.63z"/>
		<path fill="#7F8080" d="M73.639,101.285v8.977c0,2.543-0.478,4.604-1.435,6.183s-2.321,2.559-4.093,2.937v-4.073
			c0.862-0.315,1.48-0.837,1.854-1.563c0.374-0.727,0.562-1.769,0.562-3.127h-2.416v-9.332H73.639z"/>
		<path fill="#7F8080" d="M74.799,128.073h5.969c0,1.091,0.168,1.904,0.504,2.44c0.336,0.537,0.841,0.806,1.514,0.806
			c0.644,0,1.139-0.182,1.485-0.545c0.346-0.363,0.519-0.892,0.519-1.587c0-1.153-0.763-2.006-2.288-2.558
			c-0.133-0.048-0.237-0.087-0.313-0.119c-2.89-1.026-4.775-2.132-5.656-3.316c-0.881-1.184-1.322-2.921-1.322-5.21
			c0-2.764,0.646-4.868,1.94-6.313c1.293-1.445,3.181-2.168,5.663-2.168c2.302,0,4.086,0.68,5.351,2.037
			c1.265,1.358,1.992,3.38,2.182,6.063h-5.529c-0.047-0.773-0.249-1.389-0.604-1.847c-0.355-0.458-0.803-0.688-1.343-0.688
			s-0.952,0.154-1.236,0.462c-0.285,0.309-0.426,0.754-0.426,1.339c0,1.026,0.696,1.784,2.089,2.273
			c0.37,0.126,0.649,0.221,0.838,0.284c2.804,1.073,4.628,2.215,5.472,3.423c0.843,1.208,1.265,2.98,1.265,5.317
			c0,2.953-0.689,5.18-2.068,6.679c-1.378,1.501-3.418,2.251-6.118,2.251c-2.501,0-4.408-0.75-5.721-2.251
			C75.654,133.349,74.932,131.091,74.799,128.073z"/>
		<path fill="#7F8080" d="M203.513,107.798v-7.366h6.196v7.366H203.513z M203.513,136.175v-25.747h6.196v25.747H203.513z"/>
		<path fill="#7F8080" d="M218.841,126.63c0,0.868,0.151,1.479,0.455,1.835c0.303,0.355,0.843,0.533,1.62,0.533
			c0.228,0,0.4-0.004,0.519-0.013c0.118-0.007,0.234-0.019,0.349-0.034v7.413c-0.758,0.078-1.447,0.139-2.068,0.178
			s-1.201,0.06-1.741,0.06c-1.951,0-3.313-0.545-4.085-1.635c-0.772-1.089-1.159-3-1.159-5.732v-12.908h-2.174v-5.898h2.174v-7.958
			h6.111v7.958h2.886v5.898h-2.886V126.63z"/>
		<path fill="#7F8080" d="M224.875,123.716l-1.42-13.69v-8.74h6.253v8.74l-1.422,13.69H224.875z M223.512,136.175v-9.617h6.139
			v9.617H223.512z"/>
	</g>
	<g>
		<g>
			<g>
				<path fill="#00ADEE" d="M95.045,100.055l10.404-0.91c0.307-0.027,0.614-0.053,0.921-0.08c3.378-0.295,6.07-0.479,8.271,0.359
					c2.924,1.137,4.723,4.023,5.095,8.272c0.292,3.326-0.602,5.933-2.689,7.714c3.081,1.175,4.667,3.821,5.052,8.225
					c0.385,4.401-0.748,7.801-3.168,9.767c-2.313,1.854-5.078,2.095-8.456,2.391l-12.208,1.067L95.045,100.055z M108.578,113.675
					c2.265-0.198,3.277-1.009,3.062-3.466c-0.255-2.917-1.583-3.06-4.808-2.777l-2.457,0.214l0.555,6.348L108.578,113.675z
					 M110.221,127.148c2.611-0.229,3.686-1.2,3.462-3.759c-0.225-2.56-1.525-3.271-4.135-3.043l-4.031,0.353l0.595,6.809
					L110.221,127.148z"/>
			</g>
			<g>
				<path fill="#00ADEE" d="M121.843,99.369l8.177-0.714l3.221,36.804l-8.177,0.715L121.843,99.369z"/>
			</g>
			<g>
				<path fill="#00ADEE" d="M160.701,110.162l7.372-0.645l0.349,3.993c1.522-3.384,3.618-5.063,6.498-5.314
					c2.688-0.235,4.655,1.037,6.479,4.179c1.676-3.396,3.806-5.13,6.8-5.391c4.799-0.42,7.868,2.819,8.388,8.756l1.621,18.53
					l-7.984,0.699l-1.272-14.538c-0.291-3.327-1.193-4.796-3.151-4.624c-1.995,0.174-2.74,1.839-2.445,5.217l1.264,14.436
					l-7.946,0.694l-1.241-14.179c-0.318-3.635-1.225-5.154-3.298-4.973c-1.805,0.157-2.62,1.879-2.344,5.053l1.277,14.589
					l-7.985,0.698L160.701,110.162z"/>
			</g>
		</g>
		<g>
			<g>
				<circle fill="#00ADEE" cx="137.058" cy="104.476" r="3.526"/>
			</g>
			<g>
				<circle fill="#00ADEE" cx="153.734" cy="103.308" r="3.526"/>
			</g>
			<g>
				<path fill="#00ADEE" d="M159.33,123l-0.76-14.46l-7.909,0.554l0.739,13.159v-0.003c0.026,0.512,0.04,0.991,0.04,1.439
					c0,0.734-0.037,1.38-0.105,1.935v-0.001c-0.109,0.874-0.339,1.549-0.653,2.04v0.001c-0.317,0.493-0.726,0.845-1.281,1.1
					c-0.391,0.177-0.879,0.311-1.456,0.394c-0.06-0.008-0.124-0.014-0.193-0.014c-0.04,0-0.083,0.002-0.13,0.007h0.003
					c-0.279,0.023-0.546,0.036-0.795,0.036c-0.592,0-1.096-0.068-1.515-0.19c-0.586-0.175-1.038-0.467-1.422-0.911
					c-0.38-0.443-0.701-1.078-0.931-1.93c-0.234-0.867-0.417-1.982-0.534-3.332v0.003l-1.095-13.08l-7.909,0.555l1.257,14.37
					c0.18,2.047,0.592,3.851,1.254,5.407s1.576,2.864,2.742,3.892c1.71,1.514,3.859,2.369,6.348,2.576
					c0.088,0.034,0.193,0.062,0.306,0.063h0.002c0.294,0.008,0.586,0.011,0.877,0.011c0.597,0,1.186-0.015,1.768-0.046
					c1.859-0.097,3.523-0.455,4.98-1.089c1.458-0.632,2.703-1.545,3.709-2.72c0.909-1.062,1.587-2.318,2.033-3.748
					c0.445-1.43,0.663-3.032,0.663-4.801C159.362,123.82,159.352,123.414,159.33,123z"/>
			</g>
		</g>
	</g>
</g>
</svg>
