<svg xmlns="http://www.w3.org/2000/svg" width="250" height="250" viewBox="0 0 250 250"><path opacity=".15" d="M199.848 213.745l-7.065-23.496.55-2.07c16.086-17.09 24.914-39.3 24.914-62.87 0-24.51-9.545-47.56-26.877-64.89-17.334-17.34-40.378-26.88-64.89-26.88-24.51 0-47.557 9.54-64.89 26.88-17.332 17.33-26.878 40.37-26.878 64.88 0 24.24 9.344 47.05 26.32 64.32l.164.61-7.064 23.49-.482 1.6-.338 1.12v.61h20.99v-7.28h16.25c11.213 4.77 23.377 7.28 35.93 7.28 12.552 0 24.717-2.51 35.93-7.28h17.268v7.28h20.99v-.62l-.34-1.13-.482-1.6z"/><path fill="#FFE8BA" d="M197.848 210.745l-7.065-23.496.55-2.07c16.086-17.09 24.914-39.3 24.914-62.87 0-24.51-9.545-47.56-26.877-64.89-17.334-17.34-40.378-26.88-64.89-26.88-24.51 0-47.557 9.54-64.89 26.88-17.332 17.33-26.878 40.38-26.878 64.89 0 24.24 9.344 47.05 26.32 64.32l.164.61-7.064 23.49-.482 1.6-.338 1.12v.61h20.99v-7.28h16.25c11.213 4.77 23.377 7.28 35.93 7.28 12.552 0 24.717-2.51 35.93-7.28h17.268v7.28h20.99v-.62l-.34-1.13-.482-1.6z"/><path fill="#C3996B" d="M124.48 213.334c-50.187 0-91.017-40.83-91.017-91.017 0-50.185 40.83-91.013 91.016-91.013 50.18 0 91.01 40.828 91.01 91.013 0 50.188-40.83 91.017-91.02 91.017z"/><path fill="#997148" d="M124.48 32.055c49.85 0 90.26 40.412 90.26 90.262 0 49.852-40.41 90.264-90.26 90.264s-90.264-40.41-90.264-90.26c0-49.85 40.412-90.26 90.263-90.26m0-1.5c-24.52 0-47.56 9.55-64.89 26.88-17.34 17.33-26.88 40.38-26.88 64.89s9.54 47.56 26.88 64.89c17.33 17.34 40.37 26.88 64.89 26.88 24.51 0 47.55-9.54 64.89-26.88 17.33-17.33 26.87-40.37 26.87-64.89 0-24.51-9.55-47.55-26.88-64.89-17.34-17.33-40.38-26.88-64.89-26.88z"/><path fill="#3B2314" d="M71.192 72.537s-11.434-20.74 9.8-14.224c0 0 33.648-33.82 76.288-1.457 0 0 29.98-6.604 12.166 20.25"/><circle fill="#3B2314" cx="124.352" cy="121.754" r="72.758"/><path fill="#FFE8BA" d="M124.44 35.347c23.08 0 44.78 8.987 61.1 25.31 16.32 16.32 25.31 38.018 25.31 61.098s-8.988 44.78-25.31 61.1c-16.32 16.32-38.02 25.308-61.1 25.308s-44.78-8.987-61.1-25.31c-16.32-16.32-25.31-38.018-25.31-61.098s8.99-44.778 25.31-61.1c16.32-16.32 38.02-25.308 61.1-25.308m0-1.505c-48.554 0-87.913 39.36-87.913 87.913s39.36 87.914 87.913 87.914 87.914-39.36 87.914-87.92-39.36-87.92-87.914-87.92z"/><path fill="#CCC" d="M117.497 157.896c3.362-1.914 6.008-4.07 7.963-5.966l-2.887-10.084c-1.267 8.926-3.56 13.726-5.076 16.05z"/><path fill="#D0D2D3" d="M72.486 71.326S62.63 53.4 80.93 59.626c18.295 6.228-8.444 11.7-8.444 11.7z"/><path fill="#919496" d="M75.938 66.382s-8.77-8.854-2.464 3c6.305 11.85 2.464-3 2.464-3zm82.332-3.347l5.137 11.233s15.784-19.64-5.136-11.233z"/><path fill="#FFF" d="M168.282 80.063c-3.338-19.7-24.11-34.876-49.256-34.876-27.47 0-49.74 18.11-49.74 40.446 0 22.338 22.27 40.447 49.74 40.447 1.03 0 2.053-.035 3.068-.084 1.102 4.8 2.02 12.246-1.304 16.755 0 0-22.816 17.06-11.175 33.27-.013-.11-2.993-28.4 18.775-33.43l-3.95-17.81s8.227-1.93 17.835-6.17v22.32s-22.968 26.82-9.963 44.98c22.75-.69 68.526-12.86 35.97-105.82z"/><path fill="#FFF" d="M122.5 123.676l3.373 16.574s-16.18 11.465-16.402 21.357 29.55 0 29.55 0l8.79-25.107-4.14-23.01 7.66 10.186-3.96 34.724 22.75-.504L174.25 125l-22.93-16.534-6.902.98-16.028 10.992-5.89 3.238z"/><path fill="#D0D2D3" d="M142.275 140.902v-22.314c-9.608 4.246-17.835 6.177-17.835 6.177l3.95 17.817c-21.768 5.032-18.788 33.315-18.775 33.432 2.27 3.165 3.41 4.236 8.738 7.202 0 0 7.178 2.872 13.96 2.666-13.006-18.16 9.962-44.98 9.962-44.98z"/><ellipse fill="#D0D2D3" cx="111.554" cy="86.522" rx="42.267" ry="32.066"/><path fill="#D0D2D3" d="M153.6 60.735s-.483 4.153 3.383 4.732c0 0 18.93-6.18 5.116 10.43 0 0-1.55 2.512 1.64 4.732 0 0 12.74-10.92 8.69-19.22 0 0-3.09-9.08-18.84-.68z"/><ellipse fill="#FFF" cx="89.969" cy="79.32" rx="16.522" ry="16.287"/><ellipse fill="#FFF" cx="128.39" cy="79.687" rx="20.396" ry="20.262"/><path fill="#1D8FCD" d="M98.77 96.442s3.677-7.48 5.033-3.53c0 0 3.036-4.446 3.036 2.694 0 0-2.88 1.963-3.04 4.342 0 0-2.98-1.194-5.03-3.506z"/><path fill="#FFF" d="M103.803 98.125s.185-1.01 1.608-2.02c.01 0-.52-1.93-1.6 2.02z"/><path fill="#D0D2D3" d="M143.666 172.49s19.168-16.774 14.605-50.218c0 0-2.56 41.23-14.6 50.217zm25.45-47.046s-6.293 42.215-10.142 47.045c-3.847 4.82-.703 3.03-.703 3.03l4.5.69s8.43-36.51 6.35-50.78z"/><path fill="#919496" d="M107.994 82.386s1.424 22.177 31.023 19.138c0 0-27.82 6.656-31.023-19.138z"/><path fill="#6C6F71" d="M77.096 105.095l-.37 7.673s-2.5 15.237 6.15 14.672c0 0 6.558 1.77 16.59-11.907"/><path fill="#D0D2D3" d="M108.508 104.726c-19.047 24.314-23.875 22.057-23.875 22.057-10.44 1.757-7.537-14.296-7.537-14.296.207-2.382 0-14.36 0-14.36C88.086 78.872 92.44 99.95 92.44 99.95"/><path fill="#6C6F71" d="M91.135 95.747s3.312 2.677 11.67 3.73l1 .472c-.002 0-10.237.07-12.67-4.21z"/><path fill="#6C6F71" d="M92.05 98.424s-3.485-15.146-11.995-4.75c0 0 8.03-7.055 11.995 4.75zm3.392 22.014s10.573-11.184 17.063-12.718l-1.856-1.537-15.21 13.55v.705z"/><path fill="#919496" d="M110.65 98.424s-2.42 17.878 13.79 7.667c0 0-17.403 13.77-13.79-7.66zm-18.033 3.026s-.266 5.58-.566 8.716c0 0 2.75 9.224-.58 11.537 0 0 4.9-1.504 1.15-11.537 0 0 .57-5.69 0-8.717zm-13.283-7.224s-3.2 2.63-2.165 9.794c0 0-1.93-7.423 2.16-9.794zm13.534 10.87s4.405 4.13 11.74-.448c0 0-4.526 4.252-11.858 2.157l.118-1.71zm-.25 4.818l10.19-1.943-10.06 2.95-.372-.47"/><path fill="#919496" d="M93.568 116.306s3.87-5.882 11.843-7.14c0 0-7.7 2.128-11.84 8.65v-1.51z"/><path fill="#BE1E2D" d="M78.078 105.787c.04.35.08.765.112 1.237 5.072-1.18 9.488-.71 13.06.39.05-1.378.12-2.644.166-3.437.01-.153.018-.307.027-.462l.025-.388-.01.002c0-.12.01-.22.01-.34 0-5.46-3.06-9.88-6.835-9.88-3.776 0-6.834 4.42-6.834 9.87 0 .6.04 1.19.11 1.76l-.01-.01.01.08.01.12c2.69.15 4.59.58 4.59.58-1.57-.1-3.06.09-4.46.43z"/><path fill="#F69C95" d="M80.575 94.854s.847 3.98 10.307 3.94c0 0-2.944-10.49-10.307-3.94zm-1.53 26.366s5.88-2.05 11.173 0c0 0-2.105 4.572-5.586 4.19 0 0-3.268.28-5.587-4.19z"/><path fill="#FFF" d="M88.757 117.93l-.426-.99-3.15.99v-.99l-3.15.377s-.6 1.384.26 4.407c0 0 3 4.797 3.81-.652 0 0 2.64 5.18 2.67-.463 0 0 .3 1.28.82 1.73.94-1.43 1.59-3.26 1.81-5.29l-2.62.88zm-7.302-21.703s2.995-4.797 3.807.652c0 0 2.637-5.19 2.665.46 0 0 .464-2.03 1.252-1.88l1.7 2.96V101l-2.96-.99-.43.99-3.16-.988V101l-3.16-.374s-.6-1.386.26-4.41z"/><path fill="#BE1E2D" d="M82.533 105.35s-13.483-2.877-16.868 7.96l21.666-5.34-3.98-2.692-.81.07z"/><path fill="none" d="M68.9 110.856c3.29-1.954 6.395-3.157 9.29-3.832-.033-.472-.073-.887-.112-1.237-5.344 1.325-9.178 5.07-9.178 5.07z"/><path fill="#BE1E2D" d="M89.526 110.856c-4.53 2.503-8.402 4.24-11.702 5.418.263 5.108 3.207 9.135 6.808 9.135 1.945 0 3.698-1.18 4.94-3.07-.52-.45-.816-1.74-.816-1.74-.028 5.64-2.665.46-2.665.46-.81 5.45-3.8.65-3.8.65-.86-3.02-.26-4.41-.26-4.41l3.16-.38v.99l3.15-.99.43.99 2.62-.88c.06-.5.09-1 .09-1.52 0-.7-.05-1.37-.14-2.03-.11-.73-.15-1.93-.14-3.25-1.04.25-1.65.59-1.65.59z"/><path fill="#EF4B4D" d="M78.033 113.007c.003-.035.005-.065.01-.1.287-2.287.252-4.37.146-5.883-2.9.675-6 1.878-9.29 3.832 0 0 3.83-3.744 9.17-5.07-.03-.28-.07-.524-.09-.713l-.05-.305c-6.11-.36-16.35.642-18.07 11.012 0 0 3.5 5.646 17.95.494-.02-.246-.03-.49-.03-.74 0-.875.08-1.72.23-2.527z"/><path fill="#EF4B4D" d="M91.18 110.26c.006-.925.032-1.91.068-2.845-3.57-1.102-7.987-1.57-13.06-.39.107 1.514.142 3.596-.145 5.882-.005.036-.006.065-.01.1-.148.81-.234 1.652-.234 2.527 0 .25.01.495.02.74 3.3-1.176 7.17-2.915 11.7-5.417 0 0 .61-.34 1.65-.597zm-13.102-4.473c1.398-.345 2.893-.536 4.456-.438 0 0-1.896-.43-4.594-.58.017.1.03.2.05.3.025.19.056.43.088.71z"/><path fill="#ACAFB1" d="M109.02 86.028s13.29-7.38 38.575.494c0 0-3.688 14.89-20.317 13.395 0 0-13.368 1.21-18.258-13.89z"/><path fill="#929497" d="M109.02 87.35s7.603-4.774 29.998-1.954c0 0-23.365-2.174-29.547 3.333l-.45-1.38zm38.338-.204l-5.88-.624 5.163 2.208"/><path fill="#997148" d="M72.3 159.545H51.847l.555 2.087H72.3m-20.99 51.84v.616H72.3v-1.74H51.647m1.18-49.115l6.37 24.016-7.067 23.49H72.3v-47.51"/><path fill="#FFE8BA" d="M72.3 161.632H52.402l.423 1.6H72.3m-20.652 49.115h20.65v-1.602H52.13"/><path fill="#997148" d="M177.677 159.545h20.45l-.553 2.087h-19.897m20.99 51.84v.616h-20.99v-1.74h20.65m-1.18-49.115l-6.365 24.016 7.066 23.49h-20.17v-47.51"/><path fill="#FFE8BA" d="M177.677 161.632h19.897l-.426 1.6h-19.47m20.65 49.115h-20.65v-1.602h20.17"/><path fill="#3B2314" d="M65.02 206.807l7.28 7.28v-15.333m112.658 8.053l-7.28 7.28v-15.333"/><path fill="#754C28" d="M65.02 152.265h119.94v54.542H65.02z"/><path fill="#FFE8BA" d="M65.02 154.075h119.94v1.602H65.02zm0 48.797h119.94v1.602H65.02zm30.93-14.194c.676.855 1.016 2.113 1.016 3.77s-.634 2.997-1.9 4.013c-1.265 1.02-3.004 1.53-5.215 1.53-1.28 0-2.92-.14-4.92-.43-3.92-.6-6.44-.91-7.57-.91s-1.91.03-2.38.08c-.46.06-1.07.12-1.82.19l6.48-35.31h11.71L86 191.03c.462.073.91.108 1.336.108h1.337c2.997 0 5.422-.82 7.277-2.46zm3.808-4.816c0-6.74 1.747-12.232 5.243-16.477 3.71-4.602 8.8-6.9 15.25-6.9 4.67 0 8.19 1.132 10.54 3.395 2.36 2.266 3.53 5.787 3.53 10.566 0 7.275-1.85 13.035-5.56 17.28-3.67 4.172-8.59 6.26-14.76 6.26-4.81 0-8.39-1.205-10.72-3.612-2.33-2.406-3.5-5.91-3.5-10.512zm14.07-11.073c-1.605 6.41-2.407 12.16-2.407 17.22 0 1.21.21 2.21.62 2.99.41.78 1.16 1.17 2.25 1.17s1.97-.26 2.65-.78c.68-.52 1.29-1.37 1.82-2.54.86-1.93 1.69-4.94 2.49-9.02.81-4.09 1.24-6.98 1.31-8.67.08-1.7.11-3.19.11-4.47s-.19-2.34-.59-3.16c-.39-.82-1.11-1.23-2.16-1.23s-1.93.32-2.64.96c-1.32 1.21-2.46 3.71-3.42 7.49zm44.867 15.88c.677.85 1.017 2.11 1.017 3.77s-.634 2.99-1.9 4.01c-1.266 1.02-3.004 1.52-5.215 1.52-1.284 0-2.925-.15-4.922-.43-3.924-.61-6.446-.91-7.57-.91-1.123 0-1.917.02-2.38.08-.464.05-1.07.11-1.82.18l6.475-35.31h11.716l-5.35 29.42c.463.07.91.11 1.337.11h1.338c3 0 5.42-.82 7.28-2.46zm3.253 5.08c0-1.36.51-2.4 1.524-3.13 1.017-.73 2.274-1.1 3.772-1.1 1.497 0 2.72.36 3.664 1.09.944.73 1.418 1.77 1.418 3.13s-.526 2.4-1.578 3.15c-1.053.75-2.327 1.12-3.825 1.12s-2.702-.38-3.61-1.13-1.365-1.8-1.365-3.16zm2.89-10.06c0-.25.034-.55.106-.91l4.173-21.51c1.32-.5 2.764-.75 4.333-.75s2.764.5 3.585 1.5c.82 1 1.23 2.24 1.23 3.72s-.286 3.05-.856 4.7c-.58 1.66-1.21 3.32-1.9 5s-1.34 3.38-1.93 5.1c-.59 1.73-.9 3.5-.94 5.32-.82.93-1.95 1.39-3.37 1.39s-2.53-.33-3.29-.99c-.77-.66-1.15-1.53-1.15-2.6z"/><circle fill="#0071BC" cx="128.77" cy="73.614" r="6.777"/><path fill="#0F4481" d="M126.488 75.245c-1.396-1.614-1.22-4.05.392-5.445 1.613-1.395 4.05-1.22 5.446.393 1.395 1.61 1.22 4.05-.394 5.445-1.61 1.395-4.048 1.22-5.444-.393z"/><path fill="#FFF" d="M127.737 74.062c-.74-.858-.647-2.152.21-2.894.853-.74 2.15-.65 2.893.208.74.857.646 2.153-.21 2.895-.858.75-2.15.65-2.893-.2z"/><circle fill="#0071BC" cx="82.012" cy="79.906" r="6.256"/><path fill="#0F4481" d="M79.318 81.832c-1.29-1.49-1.125-3.74.36-5.026 1.49-1.288 3.74-1.127 5.03.363 1.286 1.48 1.124 3.73-.365 5.02-1.486 1.28-3.737 1.12-5.025-.37z"/><path fill="#FFF" d="M80.47 80.74c-.683-.792-.597-1.987.194-2.67.79-.684 1.986-.6 2.67.19.686.792.598 1.99-.193 2.674-.79.683-1.98.595-2.67-.194z"/></svg>