<svg xmlns="http://www.w3.org/2000/svg" width="250" height="250" viewBox="0 0 250 250"><path opacity=".15" d="M199 126.117c-7.985-2.5-14.273-1.81-17.302-1.185v-78.59c0-5.98-5.064-10.825-11.315-10.825H151.53c-13.33-5.043-26.334-2.345-33.49 0H71.314C65.064 35.517 60 40.364 60 46.343V148.13c-4.243 1.024-10.384 5.164 0 21.625v24.064c0 5.97 5.066 10.82 11.315 10.82H93.82c-.057.36-.097.72-.097 1.09 0 8.78 16.676 15.9 37.247 15.9 20.572 0 37.248-7.12 37.248-15.91 0-.37-.04-.74-.098-1.1h2.262c6.25 0 11.315-4.85 11.315-10.83V132.9c4.357-4.964 17.303-6.81 17.303-6.81z"/><path fill="#8A4573" d="M196 122.118c-7.985-2.5-14.273-1.81-17.302-1.185v-78.59c0-5.98-5.064-10.825-11.315-10.825H148.53c-13.33-5.043-26.334-2.345-33.49 0H68.314C62.064 31.518 57 36.364 57 42.343V144.13c-4.243 1.024-10.384 5.164 0 21.625v24.064c0 5.97 5.066 10.82 11.315 10.82H90.82c-.057.36-.097.72-.097 1.09 0 8.78 16.676 15.9 37.247 15.9 20.572 0 37.248-7.12 37.248-15.91 0-.37-.04-.74-.098-1.1h2.262c6.25 0 11.315-4.85 11.315-10.83V128.9c4.357-4.958 17.303-6.8 17.303-6.8z"/><path d="M64.68 49.066c0-1.35-.09-6.077-.135-7.157-.112-2.19-.225-2.37-.225-2.37.27-.09.833-.18 1.305-.18.765 0 1.53.06 1.733.42.27.52.608 1.08.945 1.69l2.88 5.08c.52.92.9 1.69 1.06 2.11h.11c.474-1.29 2.68-5.27 4.142-8.1.45-.88.923-1.22 1.733-1.22.36 0 .81 0 1.373.11 0 1.95-.02 5.04-.02 6.93 0 2.95 0 5.89.39 8.89-.56.09-1.03.22-1.51.22-.79 0-1.46-.32-1.46-1.53V42.51l-.09-.066c-.13.36-.54 1.08-1.03 2.024l-2.28 4.344c-.65 1.237-1.37 3.6-1.37 3.6h-.36c-.2 0-.4-.022-.47-.158-.52-1.193-1.28-2.52-2-3.758l-1.86-3.24c-.65-1.127-1.19-2.07-1.46-2.703l-.09.09c0 3.51.21 7.63.21 11.32 0 1.217-.04 1.532-.83 1.532-.47 0-.99-.226-.99-.226s.34-.61.34-6.22zm19.378-.09c0-.54 0-1.71-.067-2.79-.06-.923-.18-1.78-.45-2.16.39-.09.75-.204 1.11-.204 1.02 0 1.92.54 1.92 1.44 0 1.89-.06 3.264-.06 5.514 0 1.823.14 3.444 1.89 3.444 2.12 0 2.73-2.746 2.73-4.682 0-1.463-.04-2.7-.11-3.49-.15-1.53-.38-2.024-.38-2.024.38-.112.75-.203 1.11-.203 1.06 0 1.94.54 1.94 1.47 0 2.12-.18 4.21-.18 6.75 0 .9.07 2.34 1.13 2.34.45 0 .86-.31.86-.31l.09.07s-.56 1.4-2.49 1.4c-.88 0-1.82-.43-1.82-1.6 0-.06.02-.2.02-.2l-.11-.02s-.86 1.94-3.6 1.94c-2.93 0-3.51-1.73-3.51-3.58 0-.94.04-1.93.04-3.08zM102.4 43.71c2.97 0 4.142 1.688 4.142 3.218 0 2.25-2.363 3.06-4.344 3.06-1.305 0-2.476-.63-2.476-.63l-.09.046c0 2.7 1.26 4.546 3.58 4.546 1.844 0 3.532-1.283 3.532-1.283l.113.113s-.765 2.858-4.546 2.858c-3.01 0-5.24-2.363-5.24-5.67 0-3.107 2.05-6.258 5.34-6.258zm-.652 5.154c1.013 0 2.115-.563 2.115-1.958 0-1.058-.473-2.16-1.755-2.16-1.598 0-2.453 2.722-2.453 3.578 0 .18 1.148.54 2.093.54zm8.282.202v-4.074c0-2.07-.045-6.28-.495-6.73l.068-.09c2.835.023 2.948 1.014 2.948 3.692 0 1.215-.06 2.543-.27 3.76l.09.02c.52-1.17 2.32-1.935 3.94-1.935 2.97 0 3.29 1.57 3.29 3.12 0 1.69-.09 3.19-.09 5.17 0 1.01.02 2.36 1.13 2.36.45 0 .86-.32.86-.32l.09.06s-.56 1.39-2.5 1.39c-.99 0-2.02-.48-2.02-1.83 0-1.98.07-3.36.07-5.7 0-1.49-.04-2.93-1.98-2.93-1.21 0-2.7 1.1-2.7 3.22 0 2.02.09 3.56.09 5.69 0 1.22-.63 1.53-1.42 1.53-.47 0-1.05-.11-1.59-.22 0 0 .52-.49.52-6.23zm18.343-5.356c2.97 0 4.14 1.688 4.14 3.218 0 2.25-2.362 3.06-4.343 3.06-1.306 0-2.476-.63-2.476-.63l-.09.046c0 2.7 1.26 4.546 3.578 4.546 1.846 0 3.534-1.283 3.534-1.283l.112.113s-.766 2.858-4.547 2.858c-3.01 0-5.24-2.363-5.24-5.67 0-3.107 2.05-6.258 5.34-6.258zm-.653 5.154c1.013 0 2.116-.563 2.116-1.958 0-1.058-.473-2.16-1.756-2.16-1.598 0-2.453 2.722-2.453 3.578 0 .18 1.147.54 2.093.54zm8.282.202v-4.074c0-2.07-.045-6.28-.495-6.73l.067-.09c2.836.023 2.948 1.014 2.948 3.692 0 1.215-.067 2.543-.27 3.76l.09.02c.518-1.17 2.318-1.935 3.938-1.935 2.97 0 3.286 1.57 3.286 3.12 0 1.69-.09 3.19-.09 5.17 0 1.01.022 2.36 1.125 2.36.45 0 .86-.32.86-.32l.09.06s-.56 1.39-2.5 1.39c-.99 0-2.02-.48-2.02-1.83 0-1.98.07-3.36.07-5.7 0-1.49-.04-2.93-1.98-2.93-1.21 0-2.7 1.1-2.7 3.22 0 2.02.09 3.56.09 5.69 0 1.22-.63 1.53-1.42 1.53-.47 0-1.05-.11-1.59-.22 0 0 .52-.49.52-6.23zm18.344-5.356c2.97 0 4.142 1.688 4.142 3.218 0 2.25-2.363 3.06-4.344 3.06-1.306 0-2.476-.63-2.476-.63l-.09.046c0 2.7 1.26 4.546 3.578 4.546 1.846 0 3.533-1.283 3.533-1.283l.11.113s-.77 2.858-4.55 2.858c-3.02 0-5.25-2.363-5.25-5.67 0-3.107 2.05-6.258 5.33-6.258zm-.653 5.154c1.013 0 2.115-.563 2.115-1.958 0-1.058-.473-2.16-1.755-2.16-1.6 0-2.454 2.722-2.454 3.578 0 .18 1.14.54 2.09.54zm8.282.202v-4.074c0-2.07-.045-6.28-.495-6.73l.067-.09c2.836.023 2.948 1.014 2.948 3.692 0 1.215-.067 2.543-.27 3.76l.09.02c.518-1.17 2.318-1.935 3.938-1.935 2.97 0 3.286 1.57 3.286 3.12 0 1.69-.09 3.19-.09 5.17 0 1.01.02 2.36 1.12 2.36.45 0 .85-.32.85-.32l.09.06s-.57 1.39-2.5 1.39c-.99 0-2.03-.48-2.03-1.83 0-1.98.06-3.36.06-5.7 0-1.49-.05-2.93-1.98-2.93-1.22 0-2.7 1.1-2.7 3.22 0 2.02.09 3.56.09 5.69 0 1.22-.63 1.53-1.42 1.53-.47 0-1.06-.11-1.6-.22 0 0 .52-.49.52-6.23zm-93.402 21.65c2.97 0 4.142 1.69 4.142 3.22 0 2.25-2.363 3.06-4.344 3.06-1.3 0-2.47-.63-2.47-.63l-.09.045c0 2.71 1.26 4.55 3.58 4.55 1.85 0 3.53-1.28 3.53-1.28l.12.11s-.76 2.86-4.54 2.86c-3.01 0-5.24-2.36-5.24-5.67 0-3.1 2.05-6.25 5.34-6.25zm-.652 5.155c1.02 0 2.12-.56 2.12-1.95 0-1.06-.47-2.16-1.75-2.16-1.59 0-2.45 2.72-2.45 3.58 0 .18 1.15.54 2.1.54zm9.41.21V72c0-2.07-.04-6.28-.49-6.73l.07-.09c2.84.023 2.95 1.014 2.95 3.692 0 1.215-.06 2.543-.27 3.76l.09.02c.52-1.17 2.32-1.935 3.94-1.935 2.97 0 3.29 1.575 3.29 3.128 0 1.688-.09 3.196-.09 5.176 0 1.02.03 2.37 1.13 2.37.45 0 .86-.31.86-.31l.09.07s-.56 1.4-2.49 1.4c-.99 0-2.02-.47-2.02-1.82 0-1.98.07-3.35.07-5.69 0-1.48-.04-2.92-1.98-2.92-1.21 0-2.7 1.11-2.7 3.22 0 2.03.09 3.56.09 5.7 0 1.22-.63 1.53-1.42 1.53-.47 0-1.05-.11-1.59-.22 0 0 .52-.49.52-6.23zm19.47-5.35c2.97 0 4.14 1.69 4.14 3.22 0 2.25-2.36 3.06-4.34 3.06-1.3 0-2.47-.63-2.47-.63l-.09.05c0 2.71 1.26 4.55 3.58 4.55 1.85 0 3.54-1.28 3.54-1.28l.11.11s-.76 2.86-4.54 2.86c-3.01 0-5.24-2.36-5.24-5.67 0-3.1 2.05-6.26 5.34-6.26zm-.65 5.16c1.02 0 2.12-.56 2.12-1.95 0-1.05-.47-2.16-1.75-2.16-1.59 0-2.45 2.73-2.45 3.58 0 .18 1.15.54 2.1.54zm9.41.21V72c0-2.07-.04-6.28-.49-6.73l.07-.09c2.84.023 2.95 1.014 2.95 3.692 0 1.215-.06 2.543-.27 3.76l.09.02c.52-1.17 2.32-1.935 3.94-1.935 2.97 0 3.29 1.575 3.29 3.128 0 1.688-.09 3.196-.09 5.176 0 1.02.02 2.37 1.13 2.37.45 0 .86-.31.86-.31l.09.07s-.56 1.4-2.5 1.4c-.99 0-2.02-.47-2.02-1.82 0-1.98.07-3.35.07-5.69 0-1.48-.04-2.92-1.98-2.92-1.21 0-2.7 1.11-2.7 3.22 0 2.03.09 3.56.09 5.7 0 1.22-.63 1.53-1.41 1.53-.47 0-1.05-.11-1.59-.22 0 0 .52-.49.52-6.23zm19.47-5.35c2.97 0 4.14 1.69 4.14 3.22 0 2.25-2.36 3.06-4.34 3.06-1.3 0-2.48-.63-2.48-.63l-.09.05c0 2.71 1.26 4.55 3.58 4.55 1.85 0 3.54-1.28 3.54-1.28l.11.11s-.76 2.86-4.54 2.86c-3.02 0-5.24-2.36-5.24-5.67.01-3.1 2.05-6.25 5.34-6.25zm-.65 5.16c1.02 0 2.12-.56 2.12-1.95 0-1.05-.47-2.16-1.75-2.16-1.59 0-2.45 2.73-2.45 3.58 0 .18 1.15.54 2.1.54zm9.41.21V72c0-2.07-.04-6.28-.49-6.73l.06-.09c2.84.023 2.95 1.014 2.95 3.692 0 1.215-.07 2.543-.27 3.76l.09.02c.52-1.17 2.32-1.935 3.94-1.935 2.97 0 3.29 1.575 3.29 3.128 0 1.688-.09 3.196-.09 5.176 0 1.02.03 2.37 1.13 2.37.45 0 .86-.31.86-.31l.09.07s-.56 1.4-2.5 1.4c-.99 0-2.03-.47-2.03-1.82 0-1.98.07-3.35.07-5.69 0-1.48-.04-2.92-1.98-2.92-1.22 0-2.7 1.11-2.7 3.22 0 2.03.09 3.56.09 5.7 0 1.22-.63 1.53-1.42 1.53-.47 0-1.06-.11-1.6-.22 0 0 .52-.49.52-6.23zm19.47-5.35c2.97 0 4.14 1.69 4.14 3.22 0 2.25-2.36 3.06-4.34 3.06-1.3 0-2.47-.63-2.47-.63l-.09.05c0 2.71 1.26 4.55 3.58 4.55 1.85 0 3.53-1.28 3.53-1.28l.11.11s-.76 2.86-4.54 2.86c-3.01 0-5.24-2.36-5.24-5.67 0-3.11 2.05-6.26 5.34-6.26zm-.66 5.16c1.01 0 2.12-.56 2.12-1.95 0-1.06-.47-2.16-1.75-2.16-1.6 0-2.45 2.72-2.45 3.58 0 .18 1.15.54 2.1.54zm9.4.21V72c0-2.07-.04-6.28-.49-6.73l.07-.09c2.84.023 2.95 1.014 2.95 3.692 0 1.215-.06 2.543-.27 3.76l.09.02c.52-1.17 2.32-1.935 3.94-1.935 2.97 0 3.29 1.575 3.29 3.128 0 1.688-.09 3.196-.09 5.176 0 1.02.02 2.37 1.13 2.37.45 0 .86-.31.86-.31l.09.07s-.56 1.4-2.49 1.4c-.99 0-2.02-.47-2.02-1.82 0-1.98.07-3.35.07-5.69 0-1.48-.04-2.92-1.98-2.92-1.21 0-2.7 1.11-2.7 3.22 0 2.03.09 3.56.09 5.7 0 1.22-.63 1.53-1.42 1.53-.47 0-1.05-.11-1.59-.22 0 0 .52-.49.52-6.23zM68.6 97.77c2.97 0 4.14 1.684 4.14 3.214 0 2.25-2.36 3.06-4.34 3.06-1.307 0-2.478-.63-2.478-.63l-.09.046c0 2.7 1.26 4.542 3.58 4.542 1.845 0 3.533-1.285 3.533-1.285l.11.116s-.764 2.857-4.545 2.857c-3.01 0-5.24-2.36-5.24-5.67 0-3.104 2.05-6.255 5.336-6.255zm-.65 5.15c1.01 0 2.113-.56 2.113-1.956 0-1.06-.475-2.16-1.757-2.16-1.6 0-2.453 2.72-2.453 3.576 0 .18 1.145.54 2.09.54zm9.4.204v-4.08c0-2.07-.04-6.28-.49-6.73l.066-.09c2.837.023 2.95 1.014 2.95 3.692 0 1.214-.065 2.54-.27 3.758l.09.02c.52-1.17 2.32-1.937 3.94-1.937 2.97 0 3.287 1.575 3.287 3.128 0 1.69-.09 3.198-.09 5.178 0 1.014.025 2.364 1.128 2.364.45 0 .86-.315.86-.315l.09.06s-.56 1.4-2.5 1.4c-.99 0-2.02-.474-2.02-1.824 0-1.98.07-3.352.07-5.692 0-1.486-.04-2.926-1.98-2.926-1.21 0-2.7 1.107-2.7 3.22 0 2.028.09 3.56.09 5.697 0 1.216-.63 1.53-1.42 1.53-.47 0-1.05-.11-1.59-.224 0 0 .52-.493.52-6.232zm19.47-5.36c2.97 0 4.14 1.686 4.14 3.216 0 2.25-2.36 3.06-4.34 3.06-1.306 0-2.477-.63-2.477-.63l-.09.042c0 2.7 1.26 4.543 3.58 4.543 1.843 0 3.53-1.285 3.53-1.285l.11.115s-.762 2.86-4.543 2.86c-3.02 0-5.248-2.36-5.248-5.67 0-3.105 2.05-6.256 5.335-6.256zm-.65 5.152c1.01 0 2.114-.563 2.114-1.96 0-1.056-.47-2.16-1.755-2.16-1.6 0-2.46 2.724-2.46 3.58 0 .18 1.15.54 2.09.54zm9.404.2v-4.08c0-2.07-.045-6.28-.495-6.73l.07-.09c2.83.026 2.94 1.017 2.94 3.695 0 1.22-.06 2.54-.27 3.76l.09.03c.52-1.17 2.32-1.93 3.94-1.93 2.97 0 3.29 1.58 3.29 3.13 0 1.69-.09 3.2-.09 5.18 0 1.02.02 2.37 1.13 2.37.45 0 .86-.31.86-.31l.09.06s-.56 1.4-2.5 1.4c-.99 0-2.02-.47-2.02-1.82 0-1.98.07-3.35.07-5.69 0-1.48-.05-2.92-1.98-2.92-1.22 0-2.7 1.11-2.7 3.22 0 2.03.09 3.56.09 5.7 0 1.21-.63 1.53-1.42 1.53-.47 0-1.06-.11-1.6-.23 0 0 .51-.49.51-6.23zm19.464-5.354c2.97 0 4.14 1.69 4.14 3.22 0 2.25-2.36 3.06-4.344 3.06-1.307 0-2.478-.63-2.478-.63l-.09.05c0 2.7 1.26 4.545 3.578 4.545 1.85 0 3.54-1.286 3.54-1.286l.11.12s-.763 2.86-4.543 2.86c-3.01 0-5.24-2.36-5.24-5.67 0-3.11 2.05-6.26 5.34-6.26zm-.65 5.16c1.012 0 2.115-.564 2.115-1.96 0-1.06-.47-2.16-1.756-2.16-1.595 0-2.45 2.72-2.45 3.58 0 .18 1.15.54 2.096.54zm9.403.2v-4.08c0-2.07-.04-6.28-.49-6.73l.07-.09c2.84.025 2.95 1.016 2.95 3.694 0 1.215-.07 2.54-.27 3.76l.09.022c.52-1.17 2.32-1.94 3.94-1.94 2.97 0 3.29 1.574 3.29 3.127 0 1.69-.09 3.195-.09 5.175 0 1.013.02 2.363 1.13 2.363.45 0 .86-.314.86-.314l.09.06s-.56 1.4-2.49 1.4c-.99 0-2.02-.48-2.02-1.83 0-1.98.07-3.36.07-5.7 0-1.48-.04-2.92-1.98-2.92-1.21 0-2.7 1.1-2.7 3.22 0 2.03.09 3.56.09 5.69 0 1.21-.63 1.53-1.42 1.53-.47 0-1.05-.11-1.59-.23 0 0 .52-.5.52-6.23zm19.47-5.355c2.97 0 4.14 1.685 4.14 3.215 0 2.25-2.36 3.06-4.34 3.06-1.3 0-2.47-.63-2.47-.63l-.09.05c0 2.7 1.26 4.546 3.58 4.546 1.85 0 3.53-1.28 3.53-1.28l.12.11s-.77 2.853-4.55 2.853c-3.01 0-5.24-2.36-5.24-5.67 0-3.11 2.05-6.26 5.33-6.26zm-.65 5.15c1.01 0 2.12-.563 2.12-1.96 0-1.06-.47-2.16-1.75-2.16-1.6 0-2.45 2.72-2.45 3.577 0 .18 1.15.54 2.1.54zm9.41.2v-4.08c0-2.07-.04-6.28-.49-6.73l.07-.09c2.84.024 2.95 1.015 2.95 3.69 0 1.216-.06 2.54-.27 3.76l.09.02c.52-1.17 2.32-1.936 3.94-1.936 2.97 0 3.29 1.58 3.29 3.13 0 1.69-.09 3.2-.09 5.18 0 1.01.02 2.36 1.12 2.36.45 0 .86-.31.86-.31l.09.06s-.56 1.4-2.5 1.4c-.99 0-2.02-.47-2.02-1.82 0-1.98.07-3.35.07-5.69 0-1.48-.04-2.92-1.98-2.92-1.21 0-2.7 1.11-2.7 3.22 0 2.03.09 3.56.09 5.7 0 1.22-.63 1.53-1.42 1.53-.47 0-1.05-.11-1.59-.22 0 0 .52-.49.52-6.23zm-93.4 21.65c2.97 0 4.14 1.69 4.14 3.22 0 2.25-2.36 3.06-4.34 3.06-1.3 0-2.47-.63-2.47-.63l-.09.045c0 2.7 1.26 4.547 3.58 4.547 1.85 0 3.53-1.28 3.53-1.28l.12.11s-.76 2.86-4.54 2.86c-3.02 0-5.24-2.37-5.24-5.67 0-3.11 2.05-6.26 5.34-6.26zm-.65 5.155c1.02 0 2.12-.56 2.12-1.957 0-1.06-.47-2.16-1.75-2.16-1.59 0-2.45 2.72-2.45 3.576 0 .18 1.15.54 2.1.54zm9.41.203v-4.074c0-2.07-.05-6.28-.5-6.73l.07-.09c2.84.02 2.95 1.01 2.95 3.69 0 1.22-.07 2.54-.27 3.76l.09.02c.52-1.17 2.32-1.93 3.94-1.93 2.97 0 3.29 1.58 3.29 3.13 0 1.69-.09 3.2-.09 5.18 0 1.02.03 2.37 1.13 2.37.45 0 .86-.31.86-.31l.09.07s-.56 1.4-2.5 1.4c-.99 0-2.02-.47-2.02-1.82 0-1.98.06-3.36.06-5.7 0-1.48-.04-2.92-1.98-2.92-1.21 0-2.7 1.1-2.7 3.22 0 2.03.09 3.56.09 5.69 0 1.22-.63 1.53-1.42 1.53-.47 0-1.06-.11-1.6-.22 0 0 .52-.49.52-6.23zm19.47-5.36c2.97 0 4.14 1.69 4.14 3.22 0 2.25-2.36 3.06-4.34 3.06-1.3 0-2.47-.63-2.47-.63l-.09.045c0 2.7 1.26 4.55 3.58 4.55 1.85 0 3.53-1.28 3.53-1.28l.12.11s-.76 2.854-4.54 2.854c-3.01 0-5.24-2.363-5.24-5.67 0-3.108 2.04-6.26 5.33-6.26zm-.65 5.155c1.02 0 2.12-.56 2.12-1.953 0-1.06-.47-2.16-1.75-2.16-1.6 0-2.45 2.725-2.45 3.58 0 .18 1.15.54 2.1.54zm9.41.207v-4.07c0-2.07-.04-6.28-.49-6.73l.07-.09c2.83.02 2.95 1.01 2.95 3.69 0 1.213-.07 2.54-.27 3.76l.09.02c.52-1.17 2.32-1.937 3.94-1.937 2.97 0 3.28 1.58 3.28 3.13 0 1.69-.09 3.197-.09 5.18 0 1.015.02 2.365 1.13 2.365.45 0 .86-.32.86-.32l.09.07s-.56 1.392-2.5 1.392c-.99 0-2.02-.476-2.02-1.82 0-1.98.07-3.36.07-5.7 0-1.482-.04-2.923-1.98-2.923-1.21 0-2.7 1.1-2.7 3.216 0 2.024.09 3.555.09 5.69 0 1.217-.63 1.53-1.42 1.53-.47 0-1.06-.11-1.6-.224 0 0 .52-.496.52-6.235zm19.47-5.356c2.97 0 4.14 1.69 4.14 3.22 0 2.25-2.36 3.06-4.34 3.06-1.31 0-2.48-.63-2.48-.63l-.09.04c0 2.7 1.26 4.55 3.58 4.55 1.85 0 3.54-1.28 3.54-1.28l.11.12s-.77 2.86-4.55 2.86c-3.01 0-5.24-2.36-5.24-5.67 0-3.11 2.05-6.26 5.34-6.26zm-.65 5.15c1.02 0 2.12-.56 2.12-1.95 0-1.06-.47-2.16-1.75-2.16-1.6 0-2.45 2.72-2.45 3.57 0 .18 1.15.54 2.1.54zm9.41.21v-4.08c0-2.07-.04-6.28-.49-6.73l.07-.09c2.84.02 2.95 1.01 2.95 3.69 0 1.21-.06 2.54-.27 3.76l.09.02c.52-1.17 2.32-1.94 3.94-1.94 2.97 0 3.29 1.58 3.29 3.13 0 1.69-.09 3.2-.09 5.18 0 1.02.02 2.37 1.13 2.37.45 0 .86-.31.86-.31l.09.07s-.56 1.4-2.5 1.4c-.99 0-2.02-.47-2.02-1.82 0-1.98.07-3.35.07-5.69 0-1.48-.05-2.92-1.98-2.92-1.22 0-2.7 1.11-2.7 3.22 0 2.03.09 3.56.09 5.7 0 1.22-.63 1.53-1.42 1.53-.47 0-1.06-.11-1.6-.22 0 0 .52-.49.52-6.23zm19.47-5.36c2.97 0 4.14 1.69 4.14 3.22 0 2.25-2.36 3.06-4.34 3.06-1.3 0-2.47-.63-2.47-.63l-.09.04c0 2.7 1.26 4.55 3.58 4.55 1.85 0 3.53-1.28 3.53-1.28l.12.11s-.76 2.86-4.54 2.86c-3.01 0-5.24-2.36-5.24-5.67 0-3.1 2.05-6.25 5.34-6.25zm-.65 5.15c1.02 0 2.12-.56 2.12-1.95 0-1.06-.47-2.16-1.75-2.16-1.6 0-2.45 2.72-2.45 3.58 0 .18 1.15.54 2.1.54zm9.41.21v-4.07c0-2.07-.04-6.28-.49-6.73l.06-.09c2.84.02 2.95 1.01 2.95 3.69 0 1.21-.06 2.54-.27 3.76l.09.02c.52-1.17 2.32-1.94 3.94-1.94 2.97 0 3.29 1.58 3.29 3.13 0 1.69-.09 3.2-.09 5.18 0 1.01.02 2.36 1.12 2.36.45 0 .86-.31.86-.31l.09.07s-.56 1.4-2.5 1.4c-.99 0-2.03-.47-2.03-1.82 0-1.98.07-3.35.07-5.69 0-1.48-.04-2.92-1.98-2.92-1.21 0-2.7 1.11-2.7 3.22 0 2.03.09 3.56.09 5.7 0 1.22-.63 1.53-1.42 1.53-.47 0-1.05-.11-1.59-.22 0 0 .52-.49.52-6.23zm-93.4 21.65c2.97 0 4.14 1.69 4.14 3.22 0 2.25-2.36 3.06-4.34 3.06-1.3 0-2.47-.63-2.47-.63l-.09.05c0 2.7 1.26 4.55 3.58 4.55 1.85 0 3.53-1.28 3.53-1.28l.11.11s-.76 2.86-4.54 2.86c-3.01 0-5.24-2.37-5.24-5.68 0-3.1 2.05-6.25 5.34-6.25zm-.65 5.16c1.02 0 2.12-.56 2.12-1.95 0-1.06-.47-2.16-1.75-2.16-1.59 0-2.45 2.72-2.45 3.58 0 .18 1.15.54 2.09.54zm9.41.21v-4.07c0-2.07-.04-6.28-.49-6.73l.07-.09c2.84.03 2.95 1.02 2.95 3.69 0 1.22-.07 2.55-.27 3.76l.09.03c.52-1.17 2.32-1.93 3.94-1.93 2.97 0 3.28 1.58 3.28 3.13 0 1.69-.09 3.2-.09 5.18 0 1.02.03 2.37 1.13 2.37.45 0 .86-.31.86-.31l.09.07s-.56 1.39-2.5 1.39c-.99 0-2.02-.47-2.02-1.82 0-1.98.06-3.35.06-5.69 0-1.48-.04-2.92-1.98-2.92-1.21 0-2.7 1.1-2.7 3.22 0 2.02.09 3.55.09 5.69 0 1.22-.63 1.53-1.42 1.53-.47 0-1.05-.11-1.59-.22 0 0 .51-.49.51-6.23zm19.47-5.36c2.97 0 4.14 1.69 4.14 3.22 0 2.25-2.36 3.06-4.34 3.06-1.3 0-2.47-.63-2.47-.63l-.09.05c0 2.7 1.26 4.55 3.58 4.55 1.85 0 3.54-1.28 3.54-1.28l.11.11s-.77 2.86-4.55 2.86c-3.01 0-5.24-2.36-5.24-5.67 0-3.11 2.05-6.26 5.34-6.26zm-.65 5.16c1.01 0 2.12-.56 2.12-1.96 0-1.06-.47-2.16-1.75-2.16-1.59 0-2.45 2.72-2.45 3.58 0 .18 1.15.54 2.09.54zm9.41.2v-4.07c0-2.07-.04-6.28-.49-6.73l.07-.09c2.84.02 2.95 1.01 2.95 3.69 0 1.22-.07 2.54-.27 3.76l.09.02c.52-1.17 2.32-1.93 3.94-1.93 2.97 0 3.28 1.58 3.28 3.13 0 1.69-.09 3.2-.09 5.18 0 1.02.02 2.37 1.13 2.37.45 0 .86-.31.86-.31l.09.07s-.56 1.4-2.5 1.4c-.99 0-2.02-.47-2.02-1.82 0-1.98.07-3.35.07-5.69 0-1.48-.04-2.92-1.98-2.92-1.21 0-2.7 1.1-2.7 3.22 0 2.03.09 3.56.09 5.7 0 1.22-.63 1.53-1.42 1.53-.47 0-1.06-.11-1.6-.22 0 0 .52-.5.52-6.24zm19.47-5.36c2.97 0 4.14 1.69 4.14 3.22 0 2.25-2.36 3.06-4.34 3.06-1.3 0-2.47-.63-2.47-.63l-.09.05c0 2.7 1.26 4.55 3.58 4.55 1.85 0 3.53-1.29 3.53-1.29l.11.11s-.77 2.86-4.55 2.86c-3.02 0-5.24-2.36-5.24-5.67 0-3.1 2.05-6.26 5.34-6.26zm-.65 5.16c1.01 0 2.12-.56 2.12-1.96 0-1.06-.48-2.16-1.76-2.16-1.6 0-2.45 2.72-2.45 3.58 0 .18 1.15.54 2.1.54zm9.41.2v-4.07c0-2.07-.04-6.28-.49-6.73l.07-.09c2.83.02 2.95 1.01 2.95 3.69 0 1.22-.07 2.55-.27 3.76l.09.02c.52-1.17 2.32-1.93 3.94-1.93 2.97 0 3.29 1.58 3.29 3.13 0 1.69-.09 3.2-.09 5.18 0 1.01.02 2.36 1.13 2.36.45 0 .85-.32.85-.32l.09.07s-.56 1.4-2.49 1.4c-.99 0-2.03-.47-2.03-1.82 0-1.98.07-3.35.07-5.69 0-1.48-.05-2.93-1.98-2.93-1.22 0-2.7 1.11-2.7 3.22 0 2.03.09 3.56.09 5.7 0 1.21-.63 1.53-1.42 1.53-.47 0-1.06-.11-1.6-.23 0 0 .52-.49.52-6.23zm19.47-5.36c2.97 0 4.14 1.69 4.14 3.22 0 2.25-2.36 3.06-4.34 3.06-1.31 0-2.48-.63-2.48-.63l-.09.05c0 2.7 1.26 4.55 3.58 4.55 1.85 0 3.54-1.28 3.54-1.28l.12.11s-.77 2.86-4.55 2.86c-3.01 0-5.24-2.36-5.24-5.67 0-3.11 2.05-6.26 5.34-6.26zm-.65 5.16c1.01 0 2.11-.56 2.11-1.96 0-1.06-.47-2.16-1.76-2.16-1.6 0-2.46 2.72-2.46 3.58 0 .18 1.15.54 2.1.54zm9.4.2v-4.07c0-2.07-.05-6.28-.5-6.73l.06-.09c2.84.02 2.95 1.02 2.95 3.69 0 1.22-.07 2.55-.27 3.76l.09.02c.52-1.17 2.32-1.93 3.94-1.93 2.97 0 3.29 1.57 3.29 3.12 0 1.69-.09 3.2-.09 5.18 0 1.02.02 2.37 1.13 2.37.45 0 .85-.31.85-.31l.09.07s-.56 1.39-2.5 1.39c-.99 0-2.03-.47-2.03-1.82 0-1.98.07-3.35.07-5.69 0-1.49-.05-2.93-1.98-2.93-1.22 0-2.7 1.1-2.7 3.22 0 2.03.09 3.56.09 5.69 0 1.22-.63 1.53-1.42 1.53-.47 0-1.06-.11-1.6-.22 0 0 .52-.5.52-6.24zM68.7 178.8c2.97 0 4.14 1.69 4.14 3.22 0 2.25-2.363 3.06-4.344 3.06-1.3 0-2.47-.63-2.47-.63l-.09.05c0 2.7 1.26 4.55 3.58 4.55 1.85 0 3.53-1.28 3.53-1.28l.12.11s-.76 2.86-4.55 2.86c-3.017 0-5.24-2.36-5.24-5.67 0-3.11 2.05-6.26 5.33-6.26zm-.66 5.15c1.02 0 2.12-.57 2.12-1.96 0-1.06-.47-2.16-1.75-2.16-1.59 0-2.45 2.72-2.45 3.58 0 .18 1.15.54 2.09.54zm9.41.2v-4.07c0-2.07-.04-6.28-.49-6.73l.07-.09c2.84.02 2.95 1.01 2.95 3.69 0 1.22-.063 2.54-.27 3.76l.09.02c.52-1.17 2.32-1.93 3.94-1.93 2.97 0 3.29 1.58 3.29 3.13 0 1.69-.09 3.2-.09 5.18 0 1.01.02 2.36 1.124 2.36.45 0 .86-.32.86-.32l.09.07s-.56 1.4-2.5 1.4c-.99 0-2.03-.47-2.03-1.82 0-1.98.07-3.35.07-5.69 0-1.484-.04-2.925-1.98-2.925-1.21 0-2.7 1.1-2.7 3.21 0 2.027.09 3.56.09 5.695 0 1.213-.63 1.53-1.42 1.53-.47 0-1.05-.11-1.59-.228 0 0 .52-.493.52-6.23zm19.47-5.36c2.97 0 4.14 1.69 4.14 3.22 0 2.25-2.36 3.06-4.346 3.06-1.31 0-2.48-.63-2.48-.63l-.09.05c0 2.7 1.26 4.55 3.58 4.55 1.85 0 3.54-1.28 3.54-1.28l.11.11s-.76 2.86-4.54 2.86c-3.02 0-5.25-2.36-5.25-5.67 0-3.11 2.05-6.26 5.33-6.26zm-.656 5.16c1.01 0 2.11-.57 2.11-1.96 0-1.06-.47-2.16-1.754-2.16-1.592 0-2.45 2.72-2.45 3.58 0 .18 1.15.54 2.09.54zm9.4.2v-4.07c0-2.07-.044-6.28-.494-6.73l.07-.09c2.84.02 2.95 1.01 2.95 3.69 0 1.21-.07 2.54-.27 3.76l.09.02c.52-1.17 2.32-1.94 3.94-1.94 2.97 0 3.288 1.57 3.288 3.13 0 1.69-.09 3.2-.09 5.18 0 1.02.02 2.37 1.12 2.37.45 0 .85-.31.85-.31l.09.07s-.563 1.4-2.5 1.4c-.99 0-2.024-.47-2.024-1.82 0-1.98.07-3.35.07-5.69 0-1.483-.04-2.924-1.98-2.924-1.21 0-2.7 1.1-2.7 3.216 0 2.026.09 3.56.09 5.694 0 1.22-.63 1.53-1.41 1.53-.48 0-1.06-.11-1.6-.22 0 0 .52-.497.52-6.236zm19.46-5.36c2.97 0 4.14 1.69 4.14 3.22 0 2.25-2.36 3.06-4.34 3.06-1.306 0-2.48-.63-2.48-.63l-.09.05c0 2.7 1.26 4.55 3.58 4.55 1.85 0 3.53-1.28 3.53-1.28l.12.11s-.766 2.86-4.55 2.86c-3.02 0-5.245-2.36-5.245-5.67 0-3.11 2.05-6.26 5.33-6.26zm-.65 5.16c1.01 0 2.11-.57 2.11-1.96 0-1.06-.47-2.16-1.75-2.16-1.6 0-2.45 2.72-2.45 3.58 0 .18 1.144.54 2.09.54zm9.4.2v-4.07c0-2.07-.05-6.28-.5-6.73l.07-.09c2.84.02 2.95 1.01 2.95 3.69 0 1.22-.07 2.54-.27 3.76l.09.02c.52-1.17 2.32-1.93 3.94-1.93 2.97 0 3.28 1.574 3.28 3.13 0 1.685-.09 3.19-.09 5.174 0 1.01.026 2.36 1.13 2.36.45 0 .85-.316.85-.316l.09.07s-.56 1.39-2.5 1.39c-.99 0-2.03-.47-2.03-1.82 0-1.98.06-3.35.06-5.69 0-1.49-.04-2.93-1.98-2.93-1.21 0-2.7 1.1-2.7 3.214 0 2.025.09 3.556.09 5.69 0 1.217-.63 1.53-1.42 1.53-.47 0-1.05-.11-1.59-.224 0 0 .515-.5.515-6.24zm19.46-5.36c2.97 0 4.15 1.69 4.15 3.22 0 2.25-2.37 3.06-4.35 3.06-1.31 0-2.48-.63-2.48-.63l-.09.05c0 2.7 1.26 4.55 3.576 4.55 1.848 0 3.53-1.28 3.53-1.28l.11.11s-.763 2.86-4.55 2.86c-3.01 0-5.24-2.36-5.24-5.67 0-3.106 2.05-6.26 5.33-6.26zm-.65 5.16c1.01 0 2.12-.56 2.12-1.96 0-1.06-.48-2.16-1.76-2.16-1.6 0-2.46 2.73-2.46 3.58 0 .18 1.15.54 2.09.54zm9.41.2v-4.07c0-2.07-.046-6.28-.496-6.73l.063-.09c2.84.02 2.95 1.01 2.95 3.69 0 1.22-.06 2.54-.27 3.76l.09.02c.52-1.17 2.32-1.93 3.94-1.93 2.97 0 3.29 1.575 3.29 3.13 0 1.69-.09 3.2-.09 5.18 0 1.01.02 2.36 1.13 2.36.45 0 .86-.315.86-.315l.09.064s-.56 1.39-2.49 1.39c-.99 0-2.03-.47-2.03-1.82 0-1.98.07-3.36.07-5.7 0-1.49-.04-2.93-1.98-2.93-1.21 0-2.7 1.1-2.7 3.21 0 2.03.09 3.56.09 5.69 0 1.22-.63 1.53-1.42 1.53-.47 0-1.05-.11-1.59-.23 0 0 .52-.49.52-6.23z" fill="#BBB5CD"/><path fill="#404041" d="M111.098 36.795s20.666-12.99 41.627 0l-6.79 51.076s-15.353-5.99-31.295-3.73l-3.542-47.34z"/><path fill="#808184" d="M112.463 37.975s4.354-3.542 9.706-3.248l-1.71 45.76H116l-3.548-42.512z"/><path fill="#BE1E2D" d="M113.84 79.597s17.234-9.092 33.817 1.498l-.98 7.364s-14.07-10.35-32.354-2.38l-.484-6.49z"/><path fill="#404041" d="M103.25 95.137s-19.94-13.722 32.428-12.562c0 0 38.713 6.646 17.787 14.236"/><path fill="#FFF" d="M142.756 142.06c12.795 6.752 23.45-4.855 23.45-4.855-8.206-10.354-3.872-17.218-3.872-17.218s12.354-.168 14.207 5.63c1.05 3.264-2.85 8.275-2.85 8.275-6.04 9.956-13.56 13.67-19.65 14.88-1.8-.52-5.1-1.96-9.7-5.97l2.99 6.44c-2.68-.15-4.36-.653-4.36-.653-5.36-3.73-.2-6.53-.2-6.53z"/><path fill="#CCC" d="M154.034 148.77c-2.57.51-4.88.576-6.72.472l-2.987-6.44c4.602 4.01 7.902 5.45 9.707 5.97z"/><path fill="#231F20" d="M129.597 87.313s-35.045-1.046-21.556 7.22c0 0 80.08.317 21.56-7.22zm10.92 52.395l12.173 2.493 10.607-4.72 4.7 5.33-4.693 7.37-.007-3.25-13.678 6.72h-17.76l-3.52-9.83"/><path fill="#231F20" d="M143.294 132.088l13.16 2.525-24.45 9.47s11.996 7.685 20.29 39.802l-33.76-20.06 3.914-26.35 20.846-5.387z"/><path fill="#D0D2D3" d="M158.31 105.01s6.672-12.135-5.715-7.92c-12.386 4.215 5.715 7.92 5.715 7.92z"/><path fill="#919496" d="M155.974 101.662s5.938-5.993 1.67 2.03c-4.27 8.024-1.67-2.03-1.67-2.03zm-55.738-2.265L96.76 107s-10.686-13.295 3.476-7.603z"/><path fill="#FFF" d="M111.065 147.104s35.17 37.443 24.142 49.704c0 0 26.103-.584 25.052 7.2 0 0-2.62 2.336-3.78 0 0 0-.79 3.31-3.7-.193 0 0-1.75 3.502-4.08 0l-21.6-4.865s-1.17-.975 3.01-2.53c0 0 7.89-2.058-2.35-20.157-10.24-18.1-16.71-29.16-16.71-29.16zm1.398 15.476l-4.423-2.287c3.29-9.79 12.65-36.486 4.423 2.287zm-58.02-12.008c2.72-12.73 25.502 11.813 25.502 11.813.006.047.01.088.014.134-.92 1.89-2.69 4.53-5.6 5.21-.2-.09-.31-.16-.31-.16-6.83-8.91-10.54-12.79-12.48-14.08-3.49-2.8-8.26-5.55-.14 8.47 0 0 6.1 10.05 13.66 16.3 18.99 19.92 27.97-1.38 30.82-10.79.85 5.93 1.29 20.84-15.06 24.17-7.63-.26-14.02-6.36-14.02-6.36-22.9-19.44-22.42-34.73-22.42-34.73z"/><path fill="#CCC" d="M105.933 167.48c-.22-1.513-.465-2.444-.465-2.444l.937-5.588 1.636.845c-.64 1.918-1.05 3.19-1.05 3.19s-.33 1.62-1.05 3.998z"/><path fill="#CCC" d="M105.933 167.48c.72-2.377 1.05-3.997 1.05-3.997s.412-1.272 1.057-3.19l4.423 2.287-.06.284c-4.986 23.45-13.883 29.048-21.528 28.788 16.355-3.33 15.916-18.238 15.058-24.17zm-44.49-5.505c-8.123-14.02-3.35-11.274.137-8.474-3.532-2.35-1.228 3.83-1.228 3.83 5.48 9.6 10.382 16.37 14.754 20.95-7.564-6.25-13.663-16.29-13.663-16.29zm18.517.545c.958 7.815-4.252 5.845-5.592 5.216 2.904-.677 4.674-3.32 5.592-5.216z"/><path fill="#FFF" d="M93.46 110.924c2.26-13.338 16.323-23.61 33.345-23.61 18.597 0 33.672 12.258 33.672 27.38s-15.075 27.38-33.672 27.38c-.698 0-1.39-.022-2.078-.057-.744 3.25-1.37 8.292.884 11.343 0 0 15.45 11.55 7.57 22.52.01-.08 2.03-19.226-12.71-22.633l2.68-12.06s-5.57-1.31-12.07-4.184v15.105s15.55 18.157 6.75 30.45c-15.4-.466-46.39-8.707-24.35-71.634z"/><path fill="#D0D2D3" d="M111.065 152.11v-15.106c6.505 2.874 12.074 4.183 12.074 4.183l-2.68 12.06c14.73 3.408 12.72 22.555 12.71 22.635-1.54 2.142-2.31 2.868-5.92 4.874 0 0-4.86 1.944-9.45 1.806 8.8-12.295-6.75-30.453-6.75-30.453z"/><ellipse fill="#D0D2D3" cx="131.863" cy="115.297" rx="28.614" ry="21.707"/><path fill="#BE1E2D" d="M137.11 127.94s-1.636 3.21-.544 4.224c0 0-2.89 2.76-3.83 1.933 0 0-3.003-.038-4.39-7.99.002 0 3.033 2.633 8.764 1.833z"/><path fill="#6C6F71" d="M137.913 123.15s-3.275 4.45 3.32 3.27c0 0-4.298 4.86-12.696.2 0 0 2.85 13.804 9.25 3.08 0 0-5.396 14.173-9.947-3.805 0 0 6.87 3.024 10.674 1.775 0 0-4.098-1.622-.6-4.52z"/><path fill="#D0D2D3" d="M103.398 97.84s.328 2.81-2.29 3.203c0 0-12.813-4.184-3.463 7.06 0 0 1.045 1.7-1.112 3.204 0 0-8.63-7.387-5.885-13.01 0 0 2.093-6.146 12.75-.458z"/><ellipse fill="#FFF" cx="146.476" cy="110.421" rx="11.186" ry="11.025"/><circle fill="#FFF" cx="141.232" cy="111" r="2.062"/><ellipse fill="#FFF" cx="120.465" cy="110.669" rx="13.807" ry="13.716"/><circle fill="#0071BC" cx="118.832" cy="110.67" r="10.292"/><path fill="#0F4481" d="M119.808 114.262c1.91-2.21 1.67-5.546-.537-7.456-2.2-1.91-5.54-1.67-7.45.538-1.91 2.207-1.67 5.545.54 7.456 2.21 1.91 5.55 1.668 7.46-.538z"/><path fill="#FFF" d="M116.73 112.64c1.015-1.173.886-2.945-.287-3.96-1.172-1.015-2.946-.89-3.963.284-1.015 1.174-.886 2.95.288 3.964 1.173 1.014 2.946.885 3.96-.287z"/><circle fill="#FFF" cx="120.527" cy="112.597" r=".889"/><circle fill="#0071BC" cx="144.49" cy="111.655" r="8.307"/><path fill="#0F4481" d="M146.312 115.747c1.543-1.783 1.35-4.476-.433-6.018s-4.48-1.35-6.02.43c-1.55 1.78-1.35 4.47.43 6.02 1.78 1.54 4.47 1.34 6.01-.44z"/><path fill="#FFF" d="M143.827 114.438c.82-.948.716-2.378-.23-3.197-.947-.81-2.38-.71-3.2.23-.817.95-.714 2.38.233 3.2.947.82 2.38.72 3.197-.23z"/><circle fill="#FFF" cx="146.952" cy="113.041" r=".833"/><path fill="#D0D2D3" d="M174.688 126.493s-3.44 4.433-1.67 6.62c0 0-1.616-.357-2.526-1.54 0 0 1.945-.63 2-2.97l2.196-2.11z"/><path fill="#1D8FCD" d="M140.517 122.014s-2.49-5.065-3.406-2.39c0 0-2.05-3.01-2.05 1.823 0 0 1.95 1.328 2.06 2.94 0 0 2.02-.81 3.41-2.373z"/><path fill="#FFF" d="M137.11 123.15s-.126-.684-1.09-1.365c0 0 .358-1.31 1.09 1.365zm-27.45 48.758s11.815 18.207-1.08 32.543c0 0 30.526-.68 29.297 8.42 0 0-3.056 2.73-4.418 0 0 0-.92 3.87-4.33-.22 0 0-2.05 4.1-4.78 0l-25.26-5.69s-1.36-1.14 3.53-2.96c0 0 14.26-9.1 2.29-30.26-11.97-21.16 4.74-1.82 4.74-1.82z"/><path fill="#CCC" d="M152.69 203.428s-.74-3.01-6.144-2.164c0 0 5.35-1.705 6.144 2.164z"/><path fill="#D0D2D3" d="M156.39 203.428s.227-3.766-3.7-2.537c0 0 3.017-.59 3.7 2.54zm-27.252 8.305s-.86-4.21-6.69-1.935c0 0 6.348-3.64 6.69 1.935zm4.135 0s-.312-3.72-2.543-2.503c0 0 1.672-.455 2.543 2.503z"/><path fill="#ACAFB1" d="M133.875 113.944s-13.6-2.645-24.494-11.454c0 0 6.16-8.772 16.34-4.51 0 0 10.78 3.355 8.17 15.964z"/><path fill="#ACAFB1" d="M136.02 114.35s11.86-.705 20.133-9.457c0 0-4.95-9.074-14.775-4.288 0 0-8.566 3.12-5.357 13.746z"/><path fill="#231F20" d="M133.273 125.37s-50.718-1.443-65.02-18.37c0 0 11.732 19.654 65.02 18.37zm5.24 0s21.59 4.64 32.967.23c0 0-13.82 6.988-32.966-.23z"/><path fill="#FFF" d="M173.565 127.528s-1.104-8.89-5.568-7.126c.264-.39 4.49-6.257 9.28 7.134-.544.565-2.046 1.768-3.712-.008z"/><path fill="#CCC" d="M177.59 128.425s-2.15 2.523-4.494-.653c0 0 .11-6.74-5.113-7.35l.015-.02c4.464-1.763 5.568 7.126 5.568 7.126 1.666 1.775 3.168.572 3.712.008.067.188.134.364.202.56.038.108.073.217.11.33z"/><path fill="#FFF" d="M170.318 128.307c-4.16-8.905-6.966-8.787-7.984-8.32.076-.094 5.608-6.986 10.614 7.372-1.7 1.18-2.63.94-2.63.94z"/><path fill="#CCC" d="M168.11 126.996s-.835-5.558-5.78-7.006l.004-.003c1.02-.466 3.823-.585 7.984 8.32 0 0 .93.238 2.63-.948.05.13.1.26.147.41 0 0-2.98 3.82-4.984-.78z"/><path fill="#FFF" d="M170.144 124.388c4.142 6.64-2.694 6.775-2.694 6.775 2.457 2.546.12 3.878-1.61 4.47l-2.535-4.627c4.695.66 6.84-6.618 6.84-6.618z"/><path fill="#D0D2D3" d="M170.066 123.484s6.097 7.14-1.777 8.082c0 0 4.57 2.813.35 4.202l-2.61.228-.2-.363c1.73-.59 4.07-1.923 1.61-4.47 0 0 6.83-.133 2.69-6.774 0 0-2.15 7.27-6.84 6.61l-.01-.02s3.92-.99 6.77-7.51z"/><path fill="#231F20" d="M172.948 124.77s7.42-3.492 16.542-2.463c0 0-9.627-.087-16.854 3.063l.312-.6z"/><path fill="#6C6F71" d="M136.693 131.346s-.377-1.67.417-3.122h-.135s-1.213 1.7-.696 3.864l.41-.742zm-7.843 1.604s3 7.38 8.02 1.03c0 0-4.778 8.515-8.02-1.03z"/><path fill="#404041" d="M87.86 122.118l38.84 7.892-10.688 11.37s20.023 12.728 36.678 0c0 0 13.622-10.104 1.492 19.945 0 0-4.188 10.235-11.964 21.783 0 0-1.797 2.624-1.702 7.48 0 0 .56-1.97-12.677-1.97 0 0-5.63.394-6.01-2.36 0 0-1.17-4.802-13.79 0 0 0-11.13 2.23-13.49-4.332 0 0 .65-1.443-3.68-.524 0 0-4.72.787-6.69-4.33 0 0 5.25-2.994 6.3-8.648 0 0-9.96-14.047-2.36-39.16l-.28-7.146z"/><path opacity=".2" fill="#231F20" d="M130.73 188.655s19.565-21.053 25.583-44.86c0 0-15.087 29.44-34.635 42.113l-.417.3s2.04 1.94 3.09 2.133l6.38.32z"/><path opacity=".25" fill="#231F20" d="M94.55 181.927s14.166-17.72 17.913-35.884c0 0-5.817 25.21-15.898 37.842l-2.014-1.958z"/><path fill="#808184" d="M156.313 143.796s-11.03 24.237-34.144 43.31c0 0-3.27-3.94-7.45-2.76 0 0 26.98-11.784 41.59-40.55zm-61.763 38.13s25.74-5.544 58.14-37.844c0 0-28.63 34.17-53.766 41.826 0 0-3.096-.263-4.373-3.98zm-4.064-13.502s11.254-12.922 12.925-22.38c0 0-13.63 21.597-14.54 19.407l1.62 2.98z"/><path opacity=".3" fill="#808184" d="M114.02 148.988s26.102 5.768 38.274-4.132c0 0-6.203 9.85-40.862 8.67l2.59-4.538z"/><path fill="#404041" d="M104.99 90.903s18-5.195 46 1.104l4.007-.394-15.826-4.823s-11.94-1.77-12.53-1.77-17.86 1.082-17.86 1.082l-6.25 5.412 2.47-.61z"/></svg>