<?xml version="1.0" encoding="utf-8"?>
<!-- Generator: Adobe Illustrator 16.0.0, SVG Export Plug-In . SVG Version: 6.00 Build 0)  -->
<!DOCTYPE svg PUBLIC "-//W3C//DTD SVG 1.1//EN" "http://www.w3.org/Graphics/SVG/1.1/DTD/svg11.dtd">
<svg version="1.1" id="Layer_1" xmlns="http://www.w3.org/2000/svg" xmlns:xlink="http://www.w3.org/1999/xlink" x="0px" y="0px"
	 width="250px" height="250px" viewBox="0 0 250 250" enable-background="new 0 0 250 250" xml:space="preserve">
<g id="Layer_2_1_">
</g>
<g>
	<g opacity="0.15">
		<path d="M199.016,79.142c2.643-8.419,6.636-29.83,6.636-29.83c4.281-1.421,2.519-5.191,2.519-5.191
			c3.929-2.232,3.021-8.437,3.021-8.437c-1.208-7.647-7.017-4.587-7.017-4.587c-6.715-5.134-11.565,6.493-11.565,6.493
			c-4.109,2.055-23.613,4.733-32.901,5.919c-10.4-4.598-21.904-7.157-34.007-7.157c-13.153,0-25.601,3.019-36.691,8.398
			c-14.61-0.602-30.908-7.009-30.908-7.009c-4.735-14.352-12.94-5.438-12.94-5.438c-12.086,2.417-2.467,12.471-2.467,12.471
			c-1.562,3.255,6.596,6.111,6.596,6.111c5.044,4.29,6.799,16.565,7.315,21.561c-9.506,13.633-15.084,30.207-15.084,48.087
			c0,14.807,3.828,28.717,10.54,40.805l-4.074,8.745l-7.252-8.623l14.177,54.348l103.279,9.266l-8.998-5.841l47.654-4.433
			l8.805-57.16l-7.653,11.451L197,165.297c8.159-12.968,12.882-28.313,12.882-44.765C209.882,105.486,205.931,91.365,199.016,79.142
			z"/>
	</g>
	<g>
		<path fill="#353535" d="M53.168,71.582c0,0-1.11-18.28-7.504-23.718c0,0-8.157-2.856-6.596-6.111c0,0-9.618-10.054,2.468-12.471
			c0,0,8.205-8.914,12.94,5.438c0,0,19.238,7.568,34.647,7.032c0,0,46.601-8.584,62.016-0.652c0,0,32.405-3.812,37.844-6.531
			c0,0,4.852-11.627,11.565-6.493c0,0,5.809-3.06,7.017,4.587c0,0,0.906,6.205-3.021,8.437c0,0,1.764,3.771-2.518,5.191
			c0,0-5.338,28.614-7.755,32.693"/>
	</g>
	<g>
		<circle fill="#353535" cx="122.076" cy="117.511" r="84.181"/>
	</g>
	<g>
		<circle fill="#F7AD2B" cx="122.076" cy="117.511" r="76.412"/>
	</g>
	<path fill="#FFFFFF" d="M108.159,78.833c-7.251-4.834-13.898-9.668-20.546-15.711c-1.208-1.813-3.625-3.021-6.043-4.834
		c-10.112-6.895-27.61-18.328-37.21-25.006c0.123,3.269,12.445,32.957,12.289,45.968c0,0-4.218,26.832-8.832,38.262
		c0.613-0.57,20.654-4.844,21.063-5.254C87.009,97.149,87.613,87.293,108.159,78.833z"/>
	<path fill="#EC2029" d="M149.855,81.854c-8.46,2.417-17.524-0.604-25.984-3.021c-4.834-1.208-10.273-1.208-15.712,0
		c-20.546,8.46-32.027,20.093-50.156,35.2c-0.409,0.409-6.336,1.019-6.949,1.589c-0.418,1.037-2.792,1.087-3.237,1.888
		c0,0,19.844-4.222,34.868,0.904c0,0,38.208,11.109,68.45-1.369c30.24-12.478,28.547-4.598,39.376-0.175
		c0,0-1.689-31.343,2.541-42.698c0,0,0.063-0.13,0.17-0.355c-1.617,0.609-3.154,1.379-4.691,1.994
		C175.236,78.229,162.546,78.229,149.855,81.854z"/>
	<path fill="#2C3694" d="M200.142,31.655c0,0-69.446,28.646-112.982,20.287c0,0-15.408-9.216-28.401-14.353
		c0,0-15.852-5.813-15.845-5.62c9.601,6.677,28.545,19.423,38.657,26.317c2.417,1.813,4.834,3.021,6.043,4.834
		c6.647,6.043,13.294,10.877,20.546,15.711c5.439-1.208,10.877-1.208,15.712,0c8.46,2.417,17.524,5.438,25.984,3.021
		c12.69-3.625,25.381-3.625,38.675-6.043c1.537-0.615,3.074-1.385,4.691-1.994C194.476,71.147,202.419,53.212,200.142,31.655z"/>
	<path opacity="0.25" d="M71.938,116.208c0,0,1.4-4.747,6.632-5.81L54.477,65.7l-7.529-23.948l-2.587-8.471l11.217,3.146
		l30.171,60.579c0,0,35.48-32.234,70.491-0.429l31.385-54.826v-5.403l12.005-3.687l0.622,9.089l-0.507,9.079h-2.753l-28.402,55.784
		l-1.775,4.928l-7.768,2.436l-72.534,5.403"/>
	<path fill="#FFFFFF" d="M134.102,143.173c0,0,55.839-89.052,56.847-102.781c0,0-0.403-5.874,5.438-4.262
		c0,0,4.347-9.762-3.164-1.759l-2.715,1.001c0,0,2.455-8.709,8.096-7.098c0,0,1.383,0.198,1.775,2.022
		c0.296,1.368,0.036,3.649-1.775,7.445c0,0,6.243,0.403,4.027-3.424l-3.625-1.036c0,0,7.051-7.827,7.252,3.855
		c0,0-0.806,4.093-7.051,3.255l-0.416,1.694l3.236-0.518c0,0,4.634,3.827-5.236,4.23c0,0-50.041,96.485-62.688,105.55"/>
	<path fill="#F9E629" d="M81.151,78.448c0,0.15-0.021,0.302-0.062,0.452l4.651,0.761l-1.116,0.763l-3.69-0.875
		c-0.187,0.564-0.424,1.082-0.714,1.552l3.567,1.779v1.128l-3.938-2.427c-0.063,0.113-0.155,0.235-0.279,0.366l4.218,2.963v1.778
		h-2.016l-3.226-3.809c-0.124,0.094-0.269,0.197-0.434,0.31l2.698,3.499h-1.241l-2.047-3.161c-0.537,0.282-1.106,0.489-1.705,0.62
		l1.055,3.528l-0.931,0.875l-0.745-4.261c-0.166,0.038-0.341,0.066-0.527,0.084l0.589,4.855l-1.396,1.242l-1.426-1.242l0.558-4.855
		c-0.166-0.018-0.32-0.046-0.465-0.084l-0.745,4.261l-0.837-0.705l1.054-3.641c-0.579-0.15-1.138-0.358-1.674-0.621l-2.171,3.189
		h-1.178l2.698-3.556c-0.125-0.075-0.239-0.159-0.341-0.254l-3.317,3.81h-2.047v-1.778l4.186-3.049
		c-0.082-0.093-0.154-0.187-0.217-0.281l-3.969,2.427v-1.129l3.566-1.863c-0.332-0.507-0.569-1.033-0.713-1.579l-3.876,1.016
		l-0.931-0.876l4.621-0.79c-0.021-0.131-0.043-0.273-0.063-0.423l-5.272,0.593l-1.519-1.243l1.426-1.298l5.365,0.508
		c0.02-0.15,0.041-0.291,0.063-0.423l-4.807-0.706l0.961-0.818l4.031,0.932c0.145-0.526,0.362-1.034,0.651-1.524l-3.503-1.862
		v-1.073l3.876,2.428c0.083-0.113,0.165-0.226,0.248-0.339l-4.124-2.991v-1.862h2.016l3.287,3.781
		c0.103-0.093,0.228-0.179,0.373-0.254l-2.761-3.527h1.24l2.078,3.188c0.538-0.263,1.106-0.479,1.706-0.648l-1.116-3.556
		l0.992-0.762l0.807,4.178c0.145,0,0.289-0.009,0.434-0.028l-0.589-4.883l1.426-1.186l1.396,1.27l-0.62,4.799
		c0.166,0,0.321,0.009,0.465,0.028l0.807-4.178l0.93,0.734l-1.054,3.584c0.579,0.151,1.137,0.368,1.674,0.648l2.048-3.188h1.24
		l-2.667,3.527c0.123,0.075,0.248,0.161,0.372,0.254l3.287-3.781h1.954v1.862l-4.125,2.963c0.124,0.095,0.217,0.207,0.279,0.339
		l3.845-2.4v1.044L80.22,74.44c0.31,0.508,0.548,1.036,0.714,1.581l3.845-0.959l0.961,0.818l-4.651,0.734
		c0.04,0.15,0.062,0.282,0.062,0.395l5.303-0.508l1.396,1.242l-1.333,1.27L81.151,78.448L81.151,78.448z"/>
	<polygon fill="#F9E629" points="96.965,79.293 93.607,80.081 95.654,78.065 93.519,76.067 96.936,76.808 98.982,74.792 
		99.044,77.265 102.437,78.001 99.047,78.801 99.101,81.291 96.965,79.293 	"/>
	<polygon fill="#F9E629" points="56.343,109.775 54.178,112 54.419,109.799 51.286,109.837 54.574,108.424 54.815,106.223 
		56.603,107.551 59.868,106.148 57.685,108.396 59.477,109.736 56.343,109.775 	"/>
	<polygon fill="#F9E629" points="53.727,44.239 55.173,41.752 55.226,45.211 57.667,46.793 55.256,47.371 55.309,50.831 
		53.768,47.728 51.374,48.303 52.832,45.786 51.286,42.659 53.727,44.239 	"/>
	<polygon fill="#D0D2D3" points="114.852,173.149 111.545,183.142 120.466,174.315 125.523,173.149 131.858,184.305 129.209,170.92 
			"/>
	<path fill="#FFFFFF" d="M111.533,172.374c0,0-2.793,8.731-3.569,12.804c0,0,1.746,3.395,5.432,0l3.881-6.692
		c0,0-0.292,3.299,0.485,2.522l3.977-8.634l-4.171,0.775l-5.019,9.022l3.175-8.635"/>
	<path fill="#FFFFFF" d="M109.264,143.173c0,0-55.839-89.052-56.846-102.781c0,0,0.403-5.874-5.439-4.262
		c0,0-4.346-9.762,3.165-1.759l2.714,1.001c0,0-2.456-8.709-8.095-7.098c0,0-1.383,0.198-1.776,2.022
		c-0.295,1.368-0.036,3.649,1.776,7.445c0,0-6.244,0.403-4.029-3.424l3.626-1.036c0,0-7.05-7.827-7.251,3.855
		c0,0,0.805,4.093,7.05,3.255l0.417,1.694l-3.237-0.518c0,0-4.633,3.827,5.237,4.23c0,0,50.04,96.485,62.688,105.55"/>
	<path fill="#FFFFFF" d="M131.99,172.374c0,0,2.793,8.731,3.568,12.804c0,0-1.746,3.395-5.433,0l-3.88-6.692
		c0,0,0.291,3.299-0.485,2.522l-3.978-8.634l4.172,0.775l5.019,9.022l-3.176-8.635"/>
	<polygon fill="#D0D2D3" points="80.644,108.382 83.974,101.603 107.964,142.814 103.324,144.732 97.978,137.027 83.484,113.681 	
		"/>
	<polygon fill="#D0D2D3" points="162.275,108.986 158.944,102.207 134.955,143.419 139.594,145.336 144.941,137.632 
		159.435,114.285 	"/>
	<path fill="#FFFFFF" d="M133.006,139.94l-11.843,2.257l-10.729-2.257c0,0-13.665,34.922,11.284,36.993
		C146.669,174.862,133.006,139.94,133.006,139.94z"/>
	<path fill="#D0D2D3" d="M84.668,110.884c0,0-2.799,3.379-6.291,3.186c0,0-3.687,3.101,1.552,5.528c0,0,5.433,2.811,5.82,0
		L84.668,110.884z"/>
	<path fill="#919496" d="M84.668,117.568c0,0-3.963,1.645-6.097-1.702C78.571,115.866,80.766,121.506,84.668,117.568z"/>
	<path fill="#D0D2D3" d="M159.262,110.884c0,0,2.8,3.379,6.291,3.186c0,0,3.688,3.101-1.552,5.528c0,0-5.433,2.811-5.821,0
		L159.262,110.884z"/>
	<path fill="#919496" d="M159.262,117.568c0,0,3.964,1.645,6.098-1.702C165.359,115.866,163.163,121.506,159.262,117.568z"/>
	<ellipse fill="#FFFFFF" cx="121.699" cy="115.623" rx="38.81" ry="29.067"/>
	<ellipse fill="#D0D2D3" cx="121.699" cy="112.257" rx="34.54" ry="25.871"/>
	<path fill="#FFFFFF" d="M102.185,91.371c7.617-2.201,15.644-0.223,17.928,4.417c2.285,4.64-2.038,10.186-9.655,12.387
		c-7.618,2.201-15.644,0.224-17.929-4.417C90.244,99.117,94.567,93.572,102.185,91.371z"/>
	<g>
		<path fill="#0071BC" d="M104.922,91.446c5.601-1.456,11.504-0.147,13.184,2.923c1.68,3.07-1.499,6.741-7.1,8.198
			c-5.601,1.456-11.504,0.147-13.184-2.924C96.143,96.573,99.321,92.903,104.922,91.446z"/>
		<path fill="#0F4481" d="M106.091,91.849c3.449-0.896,7.084-0.09,8.118,1.8c1.034,1.891-0.923,4.151-4.372,5.048
			c-3.448,0.896-7.084,0.091-8.118-1.801C100.686,95.006,102.642,92.747,106.091,91.849z"/>
		<path fill="#FFFFFF" d="M107.072,91.744c1.976-0.514,4.058-0.052,4.651,1.031c0.592,1.084-0.529,2.378-2.505,2.892
			c-1.976,0.514-4.058,0.053-4.65-1.031C103.975,93.553,105.096,92.259,107.072,91.744z"/>
		<path fill="#FFFFFF" d="M101.209,94.761c0.869-0.226,1.785-0.022,2.046,0.454c0.26,0.476-0.233,1.046-1.102,1.271
			c-0.87,0.226-1.785,0.023-2.045-0.453C99.848,95.557,100.341,94.987,101.209,94.761z"/>
	</g>
	<path fill="#FFFFFF" d="M132.6,108.177c-7.616-2.201-11.939-7.747-9.655-12.387c2.284-4.641,10.312-6.618,17.929-4.417
		c7.617,2.2,11.94,7.747,9.656,12.387S140.218,110.377,132.6,108.177z"/>
	<g>
		<path fill="#0071BC" d="M145.022,99.644c-1.68,3.071-7.583,4.379-13.185,2.924c-5.602-1.457-8.779-5.127-7.1-8.198
			c1.68-3.071,7.582-4.379,13.183-2.923C143.522,92.903,146.701,96.573,145.022,99.644z"/>
		<path fill="#0F4481" d="M141.125,96.896c-1.034,1.892-4.67,2.696-8.118,1.801c-3.448-0.897-5.405-3.157-4.372-5.048
			c1.034-1.89,4.67-2.696,8.118-1.8C140.202,92.747,142.159,95.006,141.125,96.896z"/>
		<path fill="#FFFFFF" d="M138.276,94.636c-0.592,1.084-2.674,1.545-4.649,1.031c-1.977-0.513-3.098-1.808-2.506-2.892
			c0.593-1.083,2.676-1.545,4.651-1.031C137.748,92.259,138.869,93.553,138.276,94.636z"/>
		<path fill="#FFFFFF" d="M142.735,96.033c-0.26,0.477-1.176,0.679-2.045,0.453c-0.869-0.226-1.362-0.795-1.102-1.271
			c0.261-0.477,1.177-0.68,2.046-0.454C142.503,94.987,142.997,95.557,142.735,96.033z"/>
	</g>
	<path fill="#6C6F71" d="M122.076,111.034c-0.435-1.08-0.377-3.557-0.377-3.557h-0.448c0.399,2.295-0.337,3.67-0.337,3.67"/>
	<g>
		<path fill="#1D8FCD" d="M121.54,108.319l2.644-2.494c0,0-1.324-1.814-2.678-0.042c-1.352-1.772-2.677,0.042-2.677,0.042
			l2.644,2.494v0.063l0.033-0.032l0.034,0.032V108.319z"/>
		<path fill="#FFFFFF" d="M120.914,107.477c0,0-0.024-1.274-0.896-0.726L120.914,107.477z"/>
		<path fill="#FFFFFF" d="M122.076,107.477c0,0,0.022-1.274,0.896-0.726L122.076,107.477z"/>
	</g>
	<path fill="#D0D2D3" d="M114.852,144.237h13.697c0,0,4.912,16.895-0.124,31.005c0,0-5.719,4.296-12.75,0.297
		C115.675,175.539,110.195,171.557,114.852,144.237z"/>
	<path fill="#6C6F71" d="M113.497,110.164c0,0,2.253,18.218,7.573,18.872c0,0,5.772,0.226,8.391-18.872l-0.705,0.441l-1.31,0.806
		c0,0-2.832,1.588-6.376-0.642C121.069,110.77,117.172,113.751,113.497,110.164z"/>
	<path fill="#BE1E2D" d="M114.066,110.981c0,0,6.128,39.495,15.117-0.583c0,0-3.289,3.204-7.688,0.749c0,0-4.794,2.542-7.429-0.749"
		/>
	<path fill="#6C6F71" d="M129.364,108.372l0.101,0.673c0,0-2.926,5.361-7.959,1.119c-5.033,4.242-7.959-1.119-7.959-1.119
		l0.101-0.673l-2.014,1.792l1.343-0.516c2.753,4.532,8.529,2.148,8.529,2.148s5.777,2.384,8.529-2.148l1.343,0.516L129.364,108.372z
		"/>
	<path fill="#EF4B4D" d="M117.993,120.354c0,0,3.566-3.787,3.312,3.583c0,0,0.06-6.396,3.657-4.033
		C124.963,119.904,121.469,134.571,117.993,120.354z"/>
	<path fill="#ACAFB1" d="M116.115,125.764c0,0,4.305,9.895,10.953,0C127.068,125.764,121.176,138.831,116.115,125.764z"/>
	<path fill="#2C3694" d="M59.786,38.004c0,0,65.655,18.192,110.393,4.03l-9.67,18.67l-71.284-2.618l-12.108-8.732L59.786,38.004z"/>
	<polygon fill="#353535" points="147.845,120.847 165.359,136.645 147.438,144.237 78.571,143.291 80.129,141.277 56.996,139.94 
		44.36,167.061 37.109,158.438 51.286,212.785 154.564,222.051 145.567,216.21 193.222,211.777 202.026,154.618 194.372,166.068 
		189.336,146.917 171.849,144.237 179.667,137.248 	"/>
	<polygon fill="#FFFFFF" points="57.667,142.083 44.36,174.715 39.068,161.924 51.286,210.973 142.806,219.433 129.46,215.001 
		190.142,210.973 200.549,158.438 193.222,174.312 188.53,149.334 162.906,145.336 177.25,138.128 150.057,122.141 168.79,138.128 
		148.615,145.336 62.031,144.689 77.117,142.486 	"/>
	<g>
		<g>
			<path fill="#2C3694" d="M76.407,176.875l-5.089,0.479l-6.924-16.16l0.793,16.474l-4.676-0.065l-1.107-22.158l5.371-0.149
				l6.064,14.806l-1.223-15.251l5.023,0.032L76.407,176.875z"/>
		</g>
		<g>
			<path fill="#2C3694" d="M94.187,176.445l-4.908,0.645l-1.52-4.428l-5.469,1.156l-0.446,3.85l-4.94-0.182l4.032-22.356
				l4.461-0.165L94.187,176.445z M86.751,169.093l-2.908-8.245l-1.107,9.021L86.751,169.093z"/>
		</g>
		<g>
			<path fill="#2C3694" d="M108.811,155.741l-0.265,4.429l-6.081-0.298l-0.909,17.647l-4.544-0.033l1.024-17.879l-5.536-0.562
				l0.083-4.428L108.811,155.741z"/>
		</g>
		<g>
			<path fill="#2C3694" d="M115.155,155.262l-1.14,22.341l-4.445-0.479l0.991-22.273L115.155,155.262z"/>
		</g>
		<g>
			<path fill="#2C3694" d="M136.372,166.102c0,3.162-0.942,5.839-2.825,8.031c-1.896,2.258-4.258,3.387-7.09,3.387
				c-2.82,0-5.194-1.063-7.121-3.189c-1.917-2.125-2.875-4.764-2.875-7.914c0-3.173,0.947-5.871,2.842-8.097
				c1.906-2.236,4.264-3.354,7.072-3.354c2.819,0,5.188,1.074,7.105,3.223C135.407,160.313,136.372,162.951,136.372,166.102z
				 M131.844,165.82c0-1.806-0.495-3.331-1.486-4.576c-1.014-1.278-2.33-1.917-3.949-1.917c-1.631,0-2.991,0.733-4.082,2.197
				c-1.024,1.355-1.537,2.964-1.537,4.825c0,1.84,0.506,3.382,1.52,4.627c1.024,1.245,2.352,1.867,3.983,1.867
				c1.662,0,3.018-0.728,4.064-2.182C131.349,169.308,131.844,167.693,131.844,165.82z"/>
		</g>
		<g>
			<path fill="#2C3694" d="M154.068,176.875l-5.089,0.479l-6.924-16.16l0.793,16.474l-4.676-0.065l-1.106-22.158l5.37-0.149
				l6.063,14.806l-1.223-15.251l5.023,0.032L154.068,176.875z"/>
		</g>
		<g>
			<path fill="#2C3694" d="M171.849,176.445l-4.908,0.645l-1.52-4.428l-5.47,1.156l-0.446,3.85l-4.94-0.182l4.032-22.356
				l4.461-0.165L171.849,176.445z M164.413,169.093l-2.908-8.245l-1.107,9.021L164.413,169.093z"/>
		</g>
		<g>
			<path fill="#2C3694" d="M184.901,176.082l-12.111,1.438l-2.182-22.455l4.148-0.248l1.553,18.043l8.262-1.008L184.901,176.082z"/>
		</g>
		<g>
			<path fill="#F7AD2B" d="M72.723,183.605l-0.347,4.114l-9.798-0.628l-0.347,4.412l5.866,0.495l-0.313,4.462l-6.907-0.446
				l-0.528,9.303l-4.462-0.083l1.306-22.538L72.723,183.605z"/>
		</g>
		<g>
			<path fill="#F7AD2B" d="M87.275,203.88l-12.112,1.438l-2.181-22.456l4.147-0.248l1.553,18.044l8.262-1.008L87.275,203.88z"/>
		</g>
		<g>
			<path fill="#F7AD2B" d="M103.799,204.243l-4.907,0.645l-1.521-4.429l-5.469,1.156l-0.446,3.851l-4.94-0.182l4.032-22.356
				l4.461-0.165L103.799,204.243z M96.363,196.891l-2.908-8.246l-1.107,9.022L96.363,196.891z"/>
		</g>
		<g>
			<path fill="#F7AD2B" d="M121.38,182.813l-0.595,5.221c-1.939-0.396-3.922-0.595-5.948-0.595c-5.508,0-8.262,1.598-8.262,4.792
				c0,1.84,1.255,3.492,3.767,4.957c1.63,0.97,3.635,1.779,6.015,2.429l0.396-3.271l-2.991-0.528l0.017-3.586l7.287,1.024
				l-1.322,12.063c-1.982-0.507-3.866-1.124-5.651-1.851c-1.785-0.728-3.487-1.57-5.106-2.528c-4.604-2.688-6.907-5.606-6.907-8.758
				c0-3.635,2.539-6.24,7.617-7.815C112.98,183.33,116.875,182.813,121.38,182.813z"/>
		</g>
		<g>
			<path fill="#EC2029" d="M152.163,195.221c0,3.416-2.489,6.06-7.469,7.932c-3.437,1.278-7.231,2-11.384,2.165l1.966-22.456
				c1.917,0.441,3.731,0.986,5.445,1.636c1.712,0.65,3.34,1.421,4.882,2.313C149.977,189.301,152.163,192.104,152.163,195.221z
				 M147.438,195.452c0-1.751-1.064-3.293-3.189-4.626c-1.443-0.903-3.212-1.646-5.305-2.23l-1.123,12.26
				c2.302-0.066,4.273-0.413,5.915-1.041C146.204,198.867,147.438,197.414,147.438,195.452z"/>
		</g>
		<g>
			<path fill="#EC2029" d="M168.919,204.243l-4.908,0.645l-1.52-4.429l-5.47,1.156l-0.446,3.851l-4.94-0.182l4.032-22.356
				l4.461-0.165L168.919,204.243z M161.483,196.891l-2.908-8.246l-1.107,9.022L161.483,196.891z"/>
		</g>
		<g>
			<path fill="#EC2029" d="M180.552,182.102l-4.346,12.839l0.165,9.864l-3.966,0.513l-0.115-9.271l-7.188-11.797l4.362-1.289
				l4.181,8.625l2.479-9.088L180.552,182.102z"/>
		</g>
		<g>
			<path fill="#EC2029" d="M186.517,200.839l-0.215,4.561l-4.131-0.479l0.198-4.429L186.517,200.839z M187.508,182.895
				l-1.784,15.317l-2.76,0.231l0.115-15.467L187.508,182.895z"/>
		</g>
	</g>
</g>
</svg>
