<svg xmlns="http://www.w3.org/2000/svg" width="250" height="250" viewBox="0 0 250 250"><path d="M199.016 79.142c2.643-8.42 6.636-29.83 6.636-29.83 4.28-1.42 2.52-5.19 2.52-5.19 3.928-2.233 3.02-8.438 3.02-8.438-1.208-7.647-7.017-4.587-7.017-4.587-6.715-5.134-11.565 6.493-11.565 6.493-4.11 2.055-23.613 4.733-32.9 5.92-10.4-4.6-21.905-7.158-34.008-7.158-13.153 0-25.6 3.02-36.69 8.398-14.61-.602-30.91-7.01-30.91-7.01-4.734-14.35-12.94-5.437-12.94-5.437-12.085 2.417-2.466 12.47-2.466 12.47-1.562 3.256 6.596 6.112 6.596 6.112 5.044 4.29 6.8 16.565 7.315 21.56-9.506 13.634-15.084 30.208-15.084 48.088 0 14.807 3.828 28.717 10.54 40.805l-4.074 8.745-7.26-8.623 14.17 54.348 103.28 9.266-9-5.84 47.65-4.434 8.8-57.16-7.65 11.45-1-3.793c8.16-12.968 12.88-28.313 12.88-44.765 0-15.046-3.95-29.167-10.87-41.39z" opacity=".15"/><path fill="#353535" d="M53.168 71.582s-1.11-18.28-7.504-23.718c0 0-8.157-2.856-6.596-6.11 0 0-9.618-10.055 2.468-12.472 0 0 8.205-8.914 12.94 5.438 0 0 19.238 7.568 34.647 7.032 0 0 46.6-8.584 62.016-.652 0 0 32.4-3.812 37.84-6.53 0 0 4.85-11.628 11.56-6.494 0 0 5.81-3.06 7.01 4.587 0 0 .9 6.205-3.02 8.437 0 0 1.76 3.77-2.52 5.19 0 0-5.34 28.615-7.76 32.694"/><circle fill="#353535" cx="122.076" cy="117.511" r="84.181"/><circle fill="#F7AD2B" cx="122.076" cy="117.511" r="76.412"/><path fill="#FFF" d="M108.16 78.833c-7.252-4.834-13.9-9.668-20.547-15.71-1.208-1.814-3.625-3.022-6.043-4.835-10.112-6.895-27.61-18.328-37.21-25.006.123 3.27 12.445 32.957 12.29 45.968 0 0-4.22 26.832-8.833 38.262.613-.57 20.654-4.844 21.063-5.254 18.13-15.11 18.733-24.965 39.28-33.425z"/><path fill="#EC2029" d="M149.855 81.854c-8.46 2.417-17.524-.604-25.984-3.02-4.83-1.21-10.27-1.21-15.71 0-20.54 8.46-32.02 20.092-50.15 35.2-.41.408-6.33 1.018-6.95 1.588-.41 1.037-2.79 1.087-3.23 1.888 0 0 19.85-4.222 34.87.904 0 0 38.21 11.11 68.45-1.37 30.24-12.477 28.55-4.597 39.38-.174 0 0-1.69-31.343 2.54-42.698l.17-.355c-1.61.61-3.15 1.38-4.69 1.994-13.29 2.42-25.98 2.42-38.67 6.05z"/><path fill="#2C3694" d="M200.142 31.655S130.696 60.3 87.16 51.942c0 0-15.408-9.216-28.4-14.353 0 0-15.853-5.82-15.846-5.62 9.6 6.67 28.545 19.42 38.657 26.31 2.42 1.81 4.84 3.02 6.05 4.83 6.65 6.04 13.3 10.87 20.55 15.71 5.44-1.21 10.88-1.21 15.72 0 8.46 2.41 17.53 5.44 25.99 3.02 12.69-3.63 25.38-3.63 38.68-6.04 1.54-.62 3.08-1.39 4.69-2 1.26-2.67 9.2-20.61 6.92-42.16z"/><path opacity=".25" d="M71.938 116.208s1.4-4.747 6.632-5.81L54.477 65.7l-7.53-23.948-2.586-8.47 11.22 3.145 30.17 60.58s35.48-32.235 70.49-.43l31.39-54.827v-5.4l12.01-3.685.63 9.09-.5 9.08H197l-28.403 55.783-1.774 4.928-7.77 2.437-72.532 5.404"/><path fill="#FFF" d="M134.102 143.173s55.84-89.052 56.847-102.78c0 0-.41-5.875 5.43-4.263 0 0 4.34-9.762-3.17-1.76l-2.72 1.002s2.45-8.71 8.09-7.098c0 0 1.38.198 1.77 2.022.29 1.368.03 3.65-1.78 7.445 0 0 6.24.41 4.03-3.42l-3.6-1.03s7.05-7.82 7.25 3.86c0 0-.81 4.1-7.05 3.26l-.42 1.7 3.23-.52s4.63 3.83-5.24 4.23c0 0-50.04 96.49-62.69 105.55"/><path fill="#F9E629" d="M81.15 78.448c0 .15-.02.302-.06.452l4.65.76-1.116.764-3.69-.875c-.187.56-.424 1.08-.714 1.55l3.567 1.78V84l-3.937-2.42c-.064.114-.156.236-.28.367l4.218 2.963v1.778h-2.016l-3.226-3.81c-.124.095-.27.198-.434.31l2.698 3.5h-1.24l-2.048-3.16c-.537.28-1.106.488-1.705.62l1.055 3.527-.93.875-.746-4.26c-.166.037-.34.065-.527.083l.58 4.855-1.4 1.242-1.43-1.242.56-4.855c-.17-.018-.32-.046-.47-.084l-.75 4.26-.84-.71L72 84.2c-.578-.15-1.137-.36-1.673-.62l-2.17 3.19h-1.18l2.7-3.556c-.126-.075-.24-.16-.342-.254l-3.317 3.81H63.97v-1.778l4.187-3.05c-.082-.092-.154-.186-.217-.28l-3.97 2.427v-1.13l3.567-1.87c-.332-.51-.57-1.04-.713-1.58l-3.876 1.01-.93-.88 4.62-.79c-.02-.13-.043-.27-.063-.42l-5.272.59-1.52-1.24 1.427-1.3 5.365.5c.02-.15.04-.29.063-.43l-4.807-.71.97-.82 4.03.93c.15-.53.37-1.04.65-1.53l-3.5-1.86V71.5l3.88 2.43.25-.33-4.12-2.99v-1.87H66l3.288 3.78c.104-.09.23-.18.374-.25l-2.762-3.5h1.24l2.077 3.18c.538-.263 1.106-.48 1.706-.648l-1.115-3.557.992-.76.805 4.18c.145 0 .29-.01.434-.03l-.59-4.884 1.42-1.18 1.39 1.27-.62 4.8c.16 0 .32.01.46.03l.81-4.18.93.74-1.06 3.59c.58.15 1.13.37 1.67.65l2.04-3.18h1.24l-2.65 3.51c.12.08.24.16.37.26l3.29-3.78h1.96v1.86l-4.13 2.96c.12.1.21.21.28.34l3.84-2.4v1.04l-3.48 1.87c.31.51.54 1.04.71 1.58l3.84-.95.96.82-4.65.74c.04.15.06.28.06.39l5.3-.51 1.39 1.25-1.34 1.27-5.37-.56zm15.815.845l-3.358.788 2.047-2.01-2.135-2 3.41.74 2.04-2.01.06 2.48 3.39.74-3.39.8.05 2.49-2.14-1.99M56.32 109.8l-2.16 2.22.24-2.2-3.13.037 3.283-1.41.24-2.2 1.79 1.327 3.266-1.4-2.19 2.25 1.79 1.34-3.14.04m-2.6-65.554l1.44-2.483.05 3.46 2.44 1.58-2.41.58.06 3.46-1.54-3.103-2.39.576 1.46-2.517-1.55-3.127 2.44 1.58"/><path fill="#D0D2D3" d="M114.852 173.15l-3.307 9.992 8.92-8.827 5.058-1.166 6.335 11.15-2.65-13.39"/><path fill="#FFF" d="M111.533 172.374s-2.793 8.73-3.57 12.804c0 0 1.747 3.395 5.433 0l3.88-6.692s-.29 3.3.486 2.522l3.977-8.634-4.18.775-5.02 9.02 3.17-8.64m-6.46-30.36S53.42 54.12 52.42 40.39c0 0 .403-5.874-5.44-4.262 0 0-4.345-9.76 3.166-1.76l2.714 1.004s-2.456-8.71-8.095-7.098c0 0-1.383.198-1.776 2.022-.3 1.368-.04 3.65 1.77 7.445 0 0-6.25.41-4.03-3.42l3.62-1.03s-7.05-7.82-7.25 3.86c0 0 .8 4.1 7.05 3.26l.41 1.7-3.24-.52s-4.63 3.83 5.24 4.23c0 0 50.04 96.49 62.69 105.55m22.72 21.03s2.79 8.73 3.57 12.8c0 0-1.75 3.39-5.43 0l-3.88-6.69s.29 3.3-.49 2.52l-3.98-8.64 4.17.78 5.02 9.02-3.18-8.63"/><path fill="#D0D2D3" d="M80.644 108.382l3.33-6.78 23.99 41.212-4.64 1.918-5.346-7.705-14.494-23.346m78.79-4.69l-3.33-6.78-23.99 41.22 4.64 1.92 5.347-7.7 14.5-23.34"/><path fill="#FFF" d="M133.006 139.94l-11.843 2.257-10.73-2.257s-13.664 34.922 11.285 36.993c24.95-2.07 11.288-36.993 11.288-36.993z"/><path fill="#D0D2D3" d="M84.668 110.884s-2.8 3.38-6.29 3.186c0 0-3.688 3.1 1.55 5.528 0 0 5.434 2.81 5.82 0l-1.08-8.714z"/><path fill="#919496" d="M84.668 117.568s-3.963 1.645-6.097-1.702c0 0 2.2 5.64 6.1 1.702z"/><path fill="#D0D2D3" d="M159.262 110.884s2.8 3.38 6.29 3.186c0 0 3.69 3.1-1.55 5.528 0 0-5.434 2.81-5.822 0l1.082-8.714z"/><path fill="#919496" d="M159.262 117.568s3.964 1.645 6.098-1.702c0 0-2.197 5.64-6.098 1.702z"/><ellipse fill="#FFF" cx="121.699" cy="115.623" rx="38.81" ry="29.067"/><ellipse fill="#D0D2D3" cx="121.699" cy="112.257" rx="34.54" ry="25.871"/><path fill="#FFF" d="M102.185 91.37c7.617-2.2 15.644-.222 17.928 4.418 2.285 4.64-2.038 10.186-9.655 12.387-7.618 2.2-15.644.224-17.93-4.417-2.284-4.64 2.04-10.186 9.657-12.387z"/><path fill="#0071BC" d="M104.922 91.446c5.6-1.456 11.504-.147 13.184 2.923 1.68 3.07-1.5 6.74-7.1 8.19-5.6 1.45-11.504.14-13.184-2.93-1.68-3.07 1.5-6.74 7.1-8.2z"/><path fill="#0F4481" d="M106.09 91.85c3.45-.897 7.085-.09 8.12 1.8 1.033 1.89-.924 4.15-4.373 5.047-3.448.896-7.084.09-8.118-1.8-1.04-1.89.92-4.15 4.37-5.048z"/><path fill="#FFF" d="M107.072 91.744c1.976-.514 4.058-.052 4.65 1.03.593 1.085-.528 2.38-2.504 2.893-1.976.514-4.058.053-4.65-1.03-.593-1.084.528-2.378 2.504-2.893zm-5.862 3.016c.868-.225 1.784-.02 2.045.455.26.476-.233 1.046-1.102 1.27-.87.227-1.785.024-2.045-.452-.26-.476.233-1.046 1.1-1.272zm31.39 13.417c-7.616-2.2-11.94-7.747-9.655-12.387 2.284-4.64 10.312-6.618 17.93-4.417 7.616 2.2 11.94 7.747 9.655 12.387s-10.312 6.617-17.93 4.417z"/><path fill="#0071BC" d="M145.022 99.644c-1.68 3.07-7.583 4.38-13.185 2.924-5.602-1.457-8.78-5.127-7.1-8.198 1.68-3.07 7.582-4.38 13.183-2.923 5.602 1.456 8.78 5.126 7.102 8.197z"/><path fill="#0F4481" d="M141.125 96.896c-1.034 1.892-4.67 2.696-8.118 1.8-3.448-.896-5.405-3.156-4.372-5.047 1.034-1.89 4.67-2.7 8.118-1.8 3.45.89 5.406 3.15 4.372 5.04z"/><path fill="#FFF" d="M138.276 94.636c-.592 1.084-2.674 1.545-4.65 1.03-1.976-.512-3.097-1.807-2.505-2.89.6-1.084 2.68-1.546 4.66-1.032 1.98.515 3.1 1.81 2.51 2.892zm4.46 1.397c-.26.477-1.177.68-2.046.453-.87-.226-1.362-.795-1.102-1.27.26-.478 1.177-.68 2.046-.455.87.23 1.363.8 1.1 1.28z"/><path fill="#6C6F71" d="M122.076 111.034c-.435-1.08-.377-3.557-.377-3.557h-.45c.4 2.295-.34 3.67-.34 3.67"/><path fill="#1D8FCD" d="M121.54 108.32l2.644-2.495s-1.324-1.814-2.678-.042c-1.352-1.772-2.677.042-2.677.042l2.64 2.494v.06l.03-.03.03.03v-.07z"/><path fill="#FFF" d="M120.914 107.477s-.024-1.274-.896-.726l.896.73zm1.162 0s.022-1.274.896-.726l-.896.73z"/><path fill="#D0D2D3" d="M114.852 144.237h13.697s4.91 16.895-.13 31.005c0 0-5.72 4.296-12.75.297 0 0-5.48-3.99-.83-31.31z"/><path fill="#6C6F71" d="M113.497 110.164s2.253 18.218 7.573 18.872c0 0 5.772.226 8.39-18.872l-.704.44-1.31.807s-2.832 1.59-6.376-.64c0 0-3.898 2.98-7.573-.6z"/><path fill="#BE1E2D" d="M114.066 110.98s6.128 39.496 15.117-.582c0 0-3.29 3.204-7.688.75 0 0-4.794 2.54-7.43-.75"/><path fill="#6C6F71" d="M129.364 108.372l.1.673s-2.925 5.36-7.958 1.12c-5.033 4.24-7.96-1.12-7.96-1.12l.102-.673-2.014 1.792 1.343-.516c2.753 4.532 8.53 2.148 8.53 2.148s5.776 2.384 8.528-2.148l1.343.516-2.014-1.792z"/><path fill="#EF4B4D" d="M117.993 120.354s3.566-3.787 3.312 3.583c0 0 .06-6.396 3.657-4.033 0 0-3.493 14.667-6.97.45z"/><path fill="#ACAFB1" d="M116.115 125.764s4.305 9.895 10.953 0c0 0-5.892 13.067-10.953 0z"/><path fill="#2C3694" d="M59.786 38.004s65.655 18.192 110.393 4.03l-9.67 18.67-71.29-2.618-12.11-8.732-17.33-11.35z"/><path fill="#353535" d="M147.845 120.847l17.514 15.798-17.93 7.592-68.87-.946 1.56-2.01-23.14-1.33-12.64 27.12-7.25-8.62 14.18 54.34 103.28 9.27-9-5.84 47.65-4.43 8.8-57.16-7.66 11.45-5.04-19.15-17.49-2.68 7.82-6.99"/><path fill="#FFF" d="M57.667 142.083L44.36 174.715l-5.292-12.79 12.218 49.048 91.52 8.46L129.46 215l60.682-4.027 10.407-52.535-7.33 15.874-4.69-24.978-25.63-3.998 14.34-7.208-27.2-15.987 18.73 15.99-20.18 7.21L62 144.7l15.09-2.2"/><path fill="#2C3694" d="M76.407 176.875l-5.09.48-6.923-16.16.793 16.473-4.676-.065-1.1-22.158 5.37-.15 6.07 14.807-1.22-15.25 5.03.03 1.77 21.993zm17.78-.43l-4.908.645-1.52-4.428-5.47 1.156-.45 3.85-4.94-.182 4.03-22.356 4.46-.165 8.79 21.48zm-7.436-7.352l-2.9-8.245-1.1 9.02 4.02-.775zm22.06-13.353l-.26 4.43-6.08-.298-.91 17.647-4.54-.04 1.03-17.88-5.53-.56.09-4.43 16.23 1.12zm6.35-.478l-1.14 22.34-4.44-.478.99-22.273 4.6.42zm21.22 10.84c0 3.162-.94 5.84-2.82 8.03-1.89 2.26-4.26 3.388-7.09 3.388-2.82 0-5.19-1.063-7.12-3.19-1.92-2.124-2.87-4.763-2.87-7.913 0-3.173.95-5.87 2.85-8.097 1.91-2.236 4.27-3.354 7.08-3.354 2.82 0 5.19 1.074 7.11 3.223 1.93 2.12 2.89 4.76 2.89 7.91zm-4.53-.282c0-1.806-.49-3.33-1.48-4.576-1.01-1.278-2.33-1.917-3.95-1.917-1.63 0-2.99.733-4.08 2.197-1.02 1.355-1.54 2.964-1.54 4.825 0 1.84.51 3.38 1.52 4.62 1.03 1.24 2.36 1.86 3.99 1.86 1.66 0 3.02-.73 4.07-2.18.99-1.36 1.49-2.97 1.49-4.84zm22.23 11.055l-5.09.48-6.92-16.16.8 16.473-4.68-.065-1.1-22.158 5.37-.15 6.07 14.807-1.22-15.25 5.02.03 1.77 21.993zm17.78-.43l-4.91.645-1.52-4.428-5.47 1.156-.44 3.85-4.94-.182 4.03-22.356 4.46-.165 8.79 21.48zm-7.43-7.352l-2.91-8.245-1.1 9.02 4.02-.775zm20.49 6.99l-12.11 1.437-2.18-22.455 4.15-.248 1.56 18.043 8.26-1.008.33 4.23z"/><path fill="#F7AD2B" d="M72.723 183.605l-.347 4.114-9.798-.63-.347 4.41 5.87.49-.31 4.46-6.9-.45-.53 9.3-4.46-.09 1.3-22.53 15.53.91zm14.552 20.275l-12.112 1.438-2.18-22.456 4.146-.248 1.55 18.044 8.26-1.008.33 4.23zm16.525.363l-4.908.645-1.52-4.43-5.47 1.157-.446 3.85-4.94-.18 4.032-22.357 4.46-.165 8.79 21.48zm-7.437-7.352l-2.908-8.24-1.107 9.02 4.015-.77zm25.017-14.07l-.595 5.22c-1.94-.39-3.922-.59-5.948-.59-5.508 0-8.262 1.6-8.262 4.79 0 1.84 1.255 3.5 3.767 4.96 1.63.97 3.635 1.78 6.015 2.43l.396-3.27-2.99-.53.016-3.58 7.28 1.03-1.32 12.07c-1.98-.51-3.87-1.12-5.65-1.85-1.79-.73-3.49-1.57-5.11-2.53-4.61-2.69-6.91-5.61-6.91-8.76 0-3.63 2.54-6.24 7.61-7.81 3.28-1.03 7.18-1.55 11.68-1.55z"/><path fill="#EC2029" d="M152.163 195.22c0 3.417-2.49 6.06-7.47 7.933-3.436 1.278-7.23 2-11.383 2.165l1.966-22.456c1.917.44 3.73.986 5.445 1.636 1.72.65 3.34 1.42 4.89 2.313 4.38 2.49 6.56 5.3 6.56 8.41zm-4.725.232c0-1.75-1.064-3.293-3.19-4.626-1.442-.903-3.21-1.646-5.304-2.23l-1.123 12.26c2.31-.066 4.28-.413 5.92-1.04 2.47-.95 3.7-2.402 3.7-4.364zm21.482 8.79l-4.91.646-1.52-4.43-5.47 1.157-.445 3.85-4.94-.18 4.032-22.357 4.46-.165 8.792 21.48zm-7.437-7.35l-2.908-8.246-1.107 9.022 4.015-.776zm19.07-14.79l-4.347 12.84.165 9.863-3.96.513-.11-9.27-7.18-11.798 4.36-1.29 4.18 8.626 2.48-9.088 4.43-.396zm5.964 18.738l-.215 4.56-4.13-.48.197-4.428 4.14.347zm.99-17.945l-1.783 15.317-2.76.23.115-15.466 4.42-.08z"/></svg>