<svg xmlns="http://www.w3.org/2000/svg" width="250" height="250" viewBox="0 0 250 250"><path opacity=".15" d="M186.563 165.036c-.047-3.598-2.27-6.865-2.27-6.865 2.847-7.31 0-11.43 0-11.43.502 2.21-4.502 5.78-4.502 5.78v-5.12l-3.35 3.32c-.82-2.42-1.89-4.77-3.19-7.01 1.7-2.92 4.78-1.81 4.78-1.81-4.54-9.7-8.94-7.1-10.42-5.81-1.74-1.89-3.67-3.66-5.76-5.3-.8-5.83-2.67-18.46-3.25-21.07 1.43-.11 3.04-.18 4.76-.18 6.15 0 20.69 3.72 28.17 8.49 0 0-2.44-14.47.54-19.1 2.46-3.83 28.42-7.78 28.42-7.78l-8.58-5.87c-1.33-1.01-2.95-2.01-4.83-2.97-11.36-6.41-23-9.3-28.43-10.38l-.89-6.61-3.68 1.29c-1.73-2-4.42-4.13-8.6-5.82-.12-.05-.24-.1-.37-.15l-5.8-1.86c1.06 1.68 3.4 12.28 4.32 14.27l-.73.81-4.18 4.72 5.6 1.88c-2.9 6.15-7.77 8.67-11.42 9.7-.38-1.24-.77-2.5-1.17-3.77l-.07-.24-.25-.02.22-.07c-.71-2.2-1.38-4.21-2.04-6.11l-.18-.91c5.79-7.52 5.31-13.03 3.71-16.46-.97-2.48-4.15-6.34-10.47-6.34-1.44 0-3 .21-4.63.62-.68-.45-1.35-.88-2.03-1.31 1.69-3.9 4.09-9.83 1.43-14.11-3.32-5.35-10.01-7.36-12.96-8.04 0 0 .39 9.52-6.19 13.59-6.43-2.16-12.82-3.26-19.01-3.26-7.33 0-14.4 1.52-21.03 4.51-4.78-2.1-6.78-8.84-6.78-8.84-8.69 4.95-6.93 13.05-5.58 16.66-1 .85-1.67 1.44-1.76 1.52-1.07-.2-2.06-.29-2.99-.29-4.41 0-6.44 2.32-7.25 3.69-2.3 3.89-.54 9.23.85 12.31-1.64 4.11-2.47 8.39-2.47 12.75 0 19.89 17.35 36.48 40.16 39.92-8.82 4.85-15.78 11.71-19.88 19.75-3.02-3.15-2.03-9.6-2.03-9.6-6.49 8.98-2.07 18.12-2.07 18.12l-.98 3.6c-8.81 4.99-8.92 11.94-8.92 11.94-1.71 9.32-8.73 14.19-8.73 14.19-5.5 5.52-4.23-9.8-4.23-9.8-6 12.26 0 19.6 0 19.6l4.24 3.91-1.34-5.77 14.27-2.89.21 4.35-5.17 9.11-4.76-1.24 5.53 4.34 12.85-15.1-3.82-.83c20.49-9.1 40.21-9.21 55.63-6.62-.36 4.58-.04 15.03 12.56 2.88 11.37 3.3 18.36 7.29 18.36 7.29l1.52 1.16c-1.99 3.95-3.97 10.02 1.71 11.45l-4.36 1.77-11.82-7.3 9.02-2.15-11.93-1.39-.39 7.18 15.35 6.9 20.78 1.17L184.34 179c12.02.613 13.22 14.693 13.22 14.693l-9.41 2.934-.532-9.76L186 200.17l14.447-3.908-1.313-16.79c-3.81-6.113-8.21-10.81-12.533-14.41z"/><path fill="#FAAF40" d="M184.563 163.037c-.047-3.6-2.27-6.867-2.27-6.867 2.848-7.318 0-11.438 0-11.438.502 2.203-4.502 5.774-4.502 5.774v-5.116l-3.35 3.314c-.82-2.428-1.89-4.77-3.19-7.014 1.7-2.926 4.78-1.814 4.78-1.814-4.54-9.695-8.95-7.102-10.42-5.813-.5-.545-1.02-1.076-1.55-1.6l.02-.053-.03.035c-1.31-1.293-2.7-2.526-4.19-3.69-.8-5.835-2.67-18.46-3.25-21.075 1.43-.112 3.04-.188 4.76-.188 6.15 0 20.69 3.728 28.17 8.498 0 0-2.44-14.473.54-19.106 2.46-3.824 28.42-7.782 28.42-7.782l-8.59-5.872c-1.33-1.01-2.95-2.01-4.83-2.98-11.36-6.414-23-9.298-28.44-10.383l-.88-6.608-3.67 1.29c-1.73-2.01-4.42-4.14-8.6-5.83-.12-.06-.24-.11-.37-.16l-5.8-1.87c1.06 1.68 3.4 12.27 4.32 14.27l-.73.8-4.19 4.71 5.6 1.87c-2.9 6.15-7.76 8.67-11.42 9.7-.37-1.25-.77-2.51-1.17-3.77l-.07-.25-.24-.02.21-.07c-.71-2.2-1.38-4.21-2.04-6.12-.05-.3-.11-.6-.18-.91 5.79-7.52 5.31-13.04 3.72-16.47-.98-2.48-4.15-6.34-10.47-6.34-1.44 0-3 .21-4.63.62-.68-.45-1.36-.89-2.04-1.31 1.69-3.9 4.09-9.84 1.43-14.12-3.32-5.35-10.01-7.36-12.96-8.04 0 0 .39 9.52-6.19 13.59-6.43-2.17-12.82-3.26-19.01-3.26-7.34 0-14.4 1.52-21.04 4.51-4.77-2.11-6.78-8.84-6.78-8.84-8.69 4.95-6.93 13.05-5.58 16.65-1 .84-1.67 1.43-1.76 1.51-1.07-.2-2.06-.3-2.98-.3-4.41 0-6.44 2.31-7.25 3.69-2.3 3.88-.54 9.23.85 12.3-1.64 4.11-2.46 8.39-2.46 12.75 0 19.88 17.35 36.47 40.16 39.91-8.81 4.85-15.78 11.7-19.88 19.75-3.01-3.16-2.02-9.61-2.02-9.61-6.49 8.98-2.07 18.12-2.07 18.12l-.98 3.59c-8.81 4.98-8.92 11.94-8.92 11.94-1.71 9.31-8.74 14.19-8.74 14.19-5.5 5.52-4.24-9.8-4.24-9.8-6 12.25 0 19.6 0 19.6l4.24 3.91-1.34-5.77 14.27-2.9.2 4.34-5.17 9.1-4.76-1.24 5.52 4.34 12.85-15.09-3.82-.83c20.49-9.1 40.21-9.21 55.63-6.62-.36 4.58-.05 15.07 12.57 2.88 11.37 3.31 18.35 7.29 18.35 7.29l1.52 1.16c-1.99 3.94-3.97 10.01 1.71 11.45l-4.34 1.78-11.81-7.3 9.02-2.16-11.93-1.4-.39 7.18 15.34 6.89 20.79 1.17 10.37-32.9c12.02.61 13.22 14.69 13.22 14.69l-9.41 2.93-.54-9.76-1.6 13.33 14.45-3.91-1.31-16.78c-3.81-6.11-8.21-10.81-12.54-14.41z"/><path d="M209.89 83.232c-1.33-1.01-2.956-2.01-4.83-2.973-11.36-6.42-23.003-9.3-28.438-10.39l-.886-6.61-3.678 1.29c-1.734-2.01-4.428-4.14-8.608-5.83-.122-.06-.242-.11-.372-.16l-5.805-1.87c1.06 1.68 3.396 12.28 4.316 14.27l-.73.8-4.19 4.71 5.59 1.87c-2.9 6.15-7.77 8.67-11.42 9.7-.38-1.25-.77-2.51-1.18-3.77l-.07-.25-.25-.02.21-.07c-.71-2.21-1.38-4.21-2.05-6.12-.06-.3-.11-.61-.18-.91 5.79-7.52 5.31-13.04 3.71-16.47-.98-2.48-4.15-6.34-10.48-6.34-1.45 0-3 .21-4.64.62-.68-.45-1.36-.89-2.04-1.31 1.69-3.9 4.09-9.84 1.44-14.12-3.32-5.35-10.01-7.36-12.96-8.04 0 0 .39 9.52-6.2 13.59-6.43-2.16-12.82-3.26-19.01-3.26-7.34 0-14.4 1.52-21.04 4.51-4.78-2.1-6.79-8.84-6.79-8.84-8.7 4.95-6.93 13.05-5.58 16.65-1 .85-1.67 1.44-1.76 1.52-1.07-.2-2.06-.29-2.99-.29-4.41 0-6.44 2.31-7.25 3.69-2.3 3.88-.54 9.23.85 12.3-1.64 4.11-2.47 8.39-2.47 12.75 0 19.88 17.35 36.47 40.16 39.92-8.82 4.84-15.78 11.7-19.88 19.75-3.01-3.16-2.02-9.61-2.02-9.61-6.49 8.98-2.07 18.12-2.07 18.12l-1.51 5.51-4.52 3.69v4.33l8.53 7.87v-.01c.49 1.25 1.04 2.49 1.66 3.7 18.77.16 37.53-.42 56.18-.3-3.03 1.08-5.39 2.09-5.39 2.09s-3.46 20.62 13.2 3.93c2.59-2.61 4.06-4.49 4.69-5.82 10.66.29 21.28.92 31.84 2.17 1.75-2.96 3.1-6.1 4.01-9.37 4.35-.7 7.68-1.67 8.49-3 2.88-4.7-1.26-10.76-1.26-10.76 2.85-7.32 0-11.43 0-11.43.5 2.2-4.5 5.77-4.5 5.77v-5.11l-3.35 3.31c-.83-2.43-1.9-4.77-3.2-7.02 1.69-2.93 4.77-1.82 4.77-1.82-4.54-9.7-8.95-7.1-10.42-5.81-1.74-1.9-3.67-3.67-5.76-5.31-.81-5.84-2.67-18.46-3.25-21.08 1.43-.11 3.03-.19 4.75-.19 6.15 0 20.69 3.73 28.17 8.5 0 0-2.44-14.47.54-19.11 2.46-3.83 28.42-7.78 28.42-7.78l-8.58-5.88zm-43.43 119.422l-10.877-13.928c0 .003-14.35 20.536 10.877 13.928z" fill="#404041"/><path fill="#FFED08" d="M151.395 126.11s9.966 4.437 15.066 16.57c0 0-2.5-13.302 7.04-4.772 0 0-7.65-1.107-.41 11.617 0 0 2.08 4.226.41 5.56 0 0 2.39.175 2.53-6.205l1.23 4.576s3-.533 4.75-4.703c0 0 1.59 2.914-1.75 7.747 0 0 4.69 5.41 3 14.09l-17.34 1.756L135.41 158l15.987-31.89zm-88.77 42.96s9.704-6.84 4.727-18.205c0 0-2.898-4.105 0-11.298 0 0 1.9 9.108 5.586 9.958 0 0-2.313-7.887 8.437-17.58 0 0-8.07 16.723-1.5 19.996 0 0-5.424-15.93 14.788-30.18 0 0-11.413 16.66-9.288 20.77 0 0 17.53-5.72 11.828-23.99l4.153-.54s13.86 23.88 2.035 41.34L66 175.5l-3.375-6.427z"/><path fill="#FFED08" d="M70.125 155.59s-12.625 5.93-11 14.17l9.003-2.835 4.81-8.924-2.813-2.41z"/><path fill="#FFB30B" d="M153.14 131.5s10.777 6.384 14.777 16.525c0 0-2.167-13.442 1.583-10.775 0 0-1.798 8.047 3.59 14.69 0 0 .95 1.548-.84 5.68 0 0 3.55-2.042 3.774-4.164l.893 1.207s3.75-.248 4.416-3.08c0 0-.04 3.345-2.416 4.584 0 0 2 4.604 2.416 8.094 0 0-5.917 4.4-8.75 4.45s-24.45 1.38-25.226-.45-3.814-15.12-3.823-15.32 2.858-10.4 2.858-10.4l6.75-11.01zm-91.797 37.202s2.49-5.71 9.407-11.08c0 0-3.224-8.855-3.083-12.556 0 0 .917 6.262 7.583 7.265 0 0-2.32-6.1 1.25-11.73 0 0-3.417 11.57 5.458 13.4 0 0-4.316-12.13 5.696-24.48 0 0-7.03 14.95-2.26 15.55 0 0 25.195-12.46 14.69-26.54 0 0 13.833 1.4 13.5 3.23s-6.916 27.15-8.292 29.12-14.062 9.39-15.51 9.64-28.44 8.2-28.44 8.2z"/><path fill="#FCC47E" d="M192.653 80.393L171 73.333S159.166 96.535 146 94.6l1.963 7.8 31.976-1.336S190.91 86.737 191 86.452s1.653-6.06 1.653-6.06z"/><path fill="#FF910D" d="M149.986 139.567s13.858 2.303 23.103 27.034c0 0-9.78 1.24-11.88.26s-30.74-15.03-30.79-16.5 19.55-10.79 19.55-10.79z"/><path fill="#F16552" d="M61.952 61.498s27.49-34.31 74.23-1.578l-74.23 1.578z"/><path fill="#FCC47E" d="M207.793 86.835s-8.504-3.913-17.632-7.413c-9.43 12.062-26.16 20.782-45.9 23.08 2.39 1.257 4.42 2.14 4.42 2.14s21.33-5.134 37.43 5.137c0 0-10.23-22.79 21.69-22.95z"/><path fill="#F6921E" d="M190.16 79.422c-7.17-2.75-14.725-5.244-18.85-5.385 0 0-5.6 19.63-26.244 19.86-14.668.162-6.67 5.517-.812 8.604 19.74-2.29 36.47-11.01 45.907-23.07z"/><path fill="none" d="M150.97 130.81c0-.022-.004-.04-.006-.062-.032.035-.07.072-.112.11.035-.008.028-.008.12-.05zm-47.54-37.615c-.006.01-.012.017-.018.024h.003l.015-.03zm23.672 9.218l.017-.12c-.08.07-.17.14-.26.21.07-.015.05-.017.24-.09zm-15.916 13.58l.14.493c.046-.135-.098-.356-.14-.493zm-7.77-22.773c-.01.017-.02.036-.025.057.03-.023.07-.047.09-.043l-.06-.014z"/><path fill="#7B0000" d="M111.326 116.486c-.046-.165-.095-.328-.14-.493.042.137.186.358.14.493z"/><ellipse fill="#7B0000" cx="106.221" cy="112.917" rx=".388" ry=".29"/><path fill="#7B0000" d="M117.897 123.84c.126 1.65.036.335.014 1.5-.3-.062-.34-.844-.45-1.33.26-.99-.56-1.383.22-1.853.05-.028.14-.152.14-.33-.05-.54-.51.35-.55-.715.17-.147.17-.71.49-.365 1.04 1.132-.29.992.15 3.094zm-36.133-8.217c-.01.016-.018.036-.025.057.02-.023.06-.048.08-.042l-.06-.015zm48.134 51.177h4.563c.23 0 .45-.012.66-.03h-5.13c-.02.01-.05.02-.09.03z"/><ellipse fill="#7B0000" cx="134.26" cy="139.876" rx=".389" ry=".291"/><path fill="#7B0000" d="M81.778 115.597c-.007.01-.012.016-.02.024l.004.01.016-.02z"/><path fill="#EC1C24" d="M126.27 127.393c.435-.707-.247-.967-.95-1.28.092.21.19.437.292.68.27.107.51.246.66.6zm3.74 15.623c.33.284.186 1.1-.164 2.05.528 0 .948-.646 1.248-.444.096-3.42.436-7.39 1.166-12.02-.27-.695-.466-.336.502-2.47-4.898 3.824-.777 6.082-3.18 8.09-.16.324-.376.538-.61.653.026 1.117-.473 2.84 1.038 4.14zm-34.864-32.333c.004-.023.004-.042.006-.063-.04.036-.085.073-.134.112.038-.01.03-.01.128-.05zm31.154 16.77l-.026-.062c-.023.04-.05.08-.075.12.03-.01.02-.01.1-.05z"/><ellipse fill="#EC1C24" cx="116.808" cy="129.809" rx=".388" ry=".291"/><path fill="#EC1C24" d="M114.18 115.637c.023-.005.057.02.086.042-.008-.03-.016-.05-.026-.06l-.06.01zm14.065 37.778c.81.356.678-1.646.01-5.14-.17.277-.325.515-.454.687-.65.89.14 2.57.45 4.453zm-14.005-37.792l.003-.002c-.005 0-.012-.01-.018-.02l.015.03zm26.132 21.395l.267 1.485c.38 2.156-2.48 2.467-2.21 4.61.48 3.865.46 2.213 1.35 5.326l.3 1.08c.01-.21.05-.44.12-.69l.04-.19c.65-2.48 3.86-5.4 2.51-8.37-1.26-2.76-1.15-2.37-1.02-5.24.06-1.21.41-3.21-1-3.1-.32 1.35-.75 2.96-.38 5.07zm-6.908 14.74l-.007.156c-.002.068-.005.133-.01.197 1.105.82 2.128-1.66 2.128-5.64.002-2.75 1.51-6.44 2.623-10 .51-1.62.094-2.67.01-3.7-.218.21-.377.54-.49 1.09-.74 3.59.83 4.09-2.103 6.67-1.403 1.23.75 2.69-.174 4.73-.1.23-.24.47-.43.72-1.91 2.47-1.93 2.47-1.54 5.8z"/><path fill="none" d="M126.572 140.6l.02.088"/><path fill="#F48120" d="M114.082 166.925c.032-.092.024-.057.045-.126h-.08l.035.12z"/><ellipse fill="#F48120" cx="112.757" cy="128.019" rx=".388" ry=".29"/><path fill="#F48120" d="M144.393 148.025c.006.3.026.582.055.854.032-.28.023-.56-.055-.86zm9 9.215c-.125.272-.22.537-.252.76.15-.096.23-.378.26-.76zm-71.47 9.685l.035-.126h-.08c.02.07.01.03.044.12z"/><path fill="#FFF100" d="M143.465 151.94c.008.274.03.53.06.78.023-.286.008-.55-.06-.78zm-19.625-41.1c-.03-.287-.678-.33-.927-.773 2.05-1.183.622-.902.28-1.985-.21-.048-.453-.02-.676-.02-.395.312.857 1.493-.658 2.547.5.29.18.1.92.57.02.01.65-.2 1.06-.35zm-6.57 10.27c.034 1.066.49.176.548.716-.003.178-.092.302-.14.33-.785.47.036.863-.22 1.854.108.485.143 1.268.452 1.328.022-1.164.113.15-.014-1.498-.438-2.102.892-1.96-.146-3.095-.314-.344-.32.22-.48.366zm-35.51-5.49c-.1.137-.072.1-.022.06.007-.02.016-.04.025-.057l-.004-.002z"/><ellipse fill="#EC1C24" cx="83.025" cy="98.76" rx=".388" ry=".291"/><ellipse fill="#EC1C24" cx="86.348" cy="94.404" rx=".388" ry=".29"/><ellipse fill="#EC1C24" cx="97.093" cy="93.17" rx=".388" ry=".291"/><ellipse fill="#EC1C24" cx="89.782" cy="112.917" rx=".388" ry=".29"/><ellipse fill="#EC1C24" cx="92.108" cy="117.419" rx=".388" ry=".291"/><ellipse fill="#EC1C24" cx="67.74" cy="108.561" rx=".388" ry=".291"/><ellipse fill="#EC1C24" cx="107.062" cy="96.582" rx=".387" ry=".291"/><ellipse fill="#EC1C24" cx="114.371" cy="98.76" rx=".388" ry=".291"/><ellipse fill="#EC1C24" cx="75.051" cy="93.605" rx=".387" ry=".291"/><ellipse fill="#EC1C24" cx="90.89" cy="83.877" rx=".387" ry=".291"/><ellipse fill="#EC1C24" cx="91.555" cy="80.102" rx=".387" ry=".291"/><ellipse fill="#F48120" cx="100.083" cy="102.318" rx=".388" ry=".29"/><ellipse fill="#F48120" cx="98.754" cy="104.568" rx=".388" ry=".291"/><ellipse fill="#F48120" cx="90.668" cy="91.936" rx=".387" ry=".291"/><ellipse fill="#F48120" cx="89.007" cy="86.2" rx=".387" ry=".291"/><ellipse fill="#FFF100" cx="101.744" cy="110.231" rx=".388" ry=".291"/><ellipse fill="#FFF100" cx="115.147" cy="101.955" rx=".388" ry=".291"/><ellipse fill="#FFF100" cx="83.026" cy="104.931" rx=".388" ry=".291"/><path fill="#FFFBD4" d="M119.677 166.813c.022.066.01.03.042.106l.03-.13h-.08l-.01.01z"/><ellipse fill="#FFF100" cx="82.353" cy="96.47" rx=".388" ry=".29"/><ellipse fill="#FFF100" cx="116.808" cy="129.809" rx=".388" ry=".291"/><ellipse fill="#FFF100" cx="134.26" cy="139.876" rx=".389" ry=".291"/><ellipse fill="#FFF100" cx="137.169" cy="134.507" rx=".388" ry=".291"/><path fill="#FFF100" d="M114.266 115.68c.05.04.078.077-.022-.06v.002l.022.058z"/><ellipse fill="#EC1C24" cx="106.221" cy="112.917" rx=".388" ry=".291"/><path fill="#EC1C24" d="M125.66 115.386c0 .13.113.237.27.274.037.01.077.016.12.016.212 0 .388-.13.388-.29 0-.14-.13-.255-.305-.284-.027-.004-.056-.007-.084-.007-.22 0-.39.13-.39.29z"/><ellipse fill="#EC1C24" cx="135.796" cy="111.248" rx=".388" ry=".291"/><ellipse fill="#EC1C24" cx="140.115" cy="113.208" rx=".389" ry=".291"/><ellipse fill="#FFF100" cx="105.224" cy="124.389" rx=".388" ry=".29"/><ellipse fill="#FFF100" cx="107.44" cy="130.705" rx=".388" ry=".29"/><ellipse fill="#FFF100" cx="112.757" cy="128.019" rx=".388" ry=".29"/><path fill="#FFF100" d="M124.36 125.494c.224.27.596.45.96.615.704.31 1.385.57.952 1.28.01.02.02.04.027.06-.08.04-.07.04-.11.05l.07-.11c-.15-.36-.4-.5-.66-.61-.3-.12-.63-.21-.91-.5.35.81.67.16.99 1.26.26.91 1.41.35 1.53 1.34l.01-.03c1.06-2.57-1.04-1.79-1.68-3.98-.09-.31.62-.82.6-1-.59 0-1.31.14-1.73.42-.38.26-.52.65-.09 1.17z"/><ellipse fill="#EC1C24" cx="145.066" cy="129.034" rx=".389" ry=".29"/><ellipse fill="#FFF100" cx="134.907" cy="134.284" rx=".387" ry=".289"/><path fill="#EE3638" d="M169.24 77.645h1.32l.75-3.607s20.246 3.96 31.783 9.865c-14.708-8.326-30.172-10.48-30.172-10.48l-.61-4.568-4.69 1.646-3.69 4.08.07.02h2.05l2.49-.27 1.7-.98-3.27 4.54c-5.39 14.93-20.01 15.02-20.01 15.02l.42 1.78 3.89-1.16h1.01l4.38-2.21.9-.96 2.76-1.24 3.1-1.31s15.99 12.02 22.18 21.42l.54.58c-7.96-13.72-21.45-22.89-21.45-22.89 1.03-.73 2.38-2.92 3.46-4.92l-.59-.39 1.72-3.93zm38.685 9.247c-.14-.096-.284-.187-.428-.28.1.075.202.15.296.224l.132.056z"/><path fill="#FCC47E" d="M203.096 83.902c1.48.838 2.953 1.74 4.4 2.708-1.223-.94-2.714-1.845-4.4-2.708z"/><path fill="#BE1E2D" d="M171.2 78.266l.524-2.456c17.92 3.373 34.514 10.36 36.067 11.026-.09-.075-.19-.15-.29-.225-1.45-.96-2.92-1.87-4.4-2.7-11.54-5.91-31.79-9.87-31.79-9.87l-.75 3.61h-1.32l-1.72 3.93.59.4c1.06-1.95 1.87-3.7 1.87-3.7h1.23zm-7.82 9.516l-3.103 1.31-2.758 1.24-.9.965-4.37 2.207h-1.01l-3.89 1.167.3 1.28 14.04-6.51.59.14 1.12-.78c7.89 5.53 19.53 17.66 22.14 20.41-6.19-9.4-22.19-21.42-22.19-21.42zm5.145-13.467l-2.49.278h-2.047l3.63 1.216c-.2.71-.43 1.39-.665 2.05l3.27-4.54-1.698.98z"/><path fill="#D0D2D3" d="M153.657 131.255c-3.89 25.194-9.095-29.283-9.095-29.283l4.196-5.52M57.19 71.042s-8.88-16.15 7.607-10.542c16.485 5.61-7.606 10.542-7.606 10.542z"/><path fill="#919496" d="M60.3 66.585s-7.903-7.977-2.22 2.703c5.68 10.678 2.22-2.703 2.22-2.703zm74.186-3.015l4.625 10.12s14.23-17.694-4.62-10.12z"/><path fill="#FFF" d="M143.506 78.913c-3.007-17.75-21.725-31.425-44.382-31.425-24.752 0-44.817 16.317-44.817 36.443 0 20.13 20.065 36.45 44.817 36.45.93 0 1.85-.03 2.766-.07.992 4.33 1.82 11.04-1.175 15.1 0 0-20.558 15.37-10.07 29.98-.012-.1-2.697-25.59 16.917-30.12l-3.558-16.05s7.41-1.74 16.07-5.56v20.11s-20.696 24.17-8.978 40.53c20.496-.62 61.744-11.59 32.41-95.34z"/><path fill="#BE202E" d="M148.246 94.064s14.898 36.74.376 62.116C134.1 181.557 138.4 126.75 138.4 126.75l9.846-32.686z"/><path fill="#D0D2D3" d="M120.072 133.73v-20.106c-8.66 3.826-16.07 5.567-16.07 5.567l3.56 16.06c-19.615 4.54-16.93 30.02-16.917 30.13 2.045 2.85 3.073 3.82 7.873 6.49 0 0 6.466 2.59 12.577 2.4-11.718-16.36 8.977-40.52 8.977-40.52z"/><ellipse fill="#D0D2D3" cx="94.663" cy="87.761" rx="38.085" ry="28.892"/><path fill="#404041" d="M153.398 121.334l-9.142-1.53-1.106 7.033 10.545 2.74s.087-7.052-.297-8.243z"/><path fill="#6C6F71" d="M88.074 98.514s-.555 3.76 0 4.69l-.396.095s-1.226-5.17.396-4.79z"/><path fill="#D0D2D3" d="M130.277 61.498s-.438 3.742 3.046 4.264c0 0 17.056-5.57 4.608 9.4 0 0-1.39 2.26 1.49 4.262 0 0 11.49-9.833 7.84-17.316 0 0-2.78-8.18-16.97-.61z"/><ellipse fill="#FFF" cx="75.214" cy="81.271" rx="14.887" ry="14.675"/><ellipse fill="#FFF" cx="109.833" cy="80.781" rx="18.377" ry="17.435"/><path fill="#1D8FCD" d="M83.146 96.7s3.313-6.74 4.533-3.18c0 0 2.73-4.006 2.73 2.427 0 0-2.6 1.77-2.74 3.913 0 0-2.69-1.078-4.54-3.16z"/><path fill="#FFF" d="M87.678 98.215s.167-.91 1.45-1.82c0 0-.475-1.74-1.45 1.82z"/><path fill="#D0D2D3" d="M121.325 162.19s17.27-15.11 13.16-45.247c0 .002-2.305 37.153-13.16 45.248zm22.902-42.387s-6.3 38.037-10.146 42.388c-3.85 4.36-.7 2.74-.7 2.74l4.5.63c0 .01 8.43-32.89 6.35-45.75z"/><path fill="#404041" d="M124.037 53.637s-38.784 9.26-55.512 3.675c0 0-3.24 2.555-4.708 4.17 0 0 12.677 7.693 67.23-3.113 0 0-3.854-3.17-7.01-4.74zm10.433 63.543l14.207-21.66-3.044-10.282-15.2 31.56 3.56 5.738"/><path fill="#FFE8BA" d="M124.9 54.12s-7.25 2.66-24.847 5.195l26.998-3.882s-1.28-.832-2.15-1.314zm-57.2 3.86s2.833.976 4.063 1.336l-4.915-.668.85-.67zm-1.59 1.335l4.455 1.118-5.09-.558m82.77 34.19l-10.59 16.81 10.064-18.588m-8.61 12.833l-5.72 11.006 1.07 1.054-.12 1.342-1.61-1.87m20.73 5.884l-7.06-.783 7.12 1.784"/><ellipse fill="#F291BC" cx="110.648" cy="102.861" rx="5.48" ry="2.703"/><ellipse fill="#F291BC" cx="72.938" cy="101.922" rx="4.262" ry="2.102"/><path fill="#D0D2D3" d="M57.19 71.042s-8.88-16.15 7.607-10.542c16.485 5.61-7.606 10.542-7.606 10.542z"/><path fill="#919496" d="M60.3 66.585s-7.903-7.977-2.22 2.703c5.68 10.678 2.22-2.703 2.22-2.703zm74.186-3.015l4.625 10.12s14.23-17.694-4.62-10.12z"/><path fill="#F16552" d="M143.506 78.913c-3.007-17.75-21.725-31.425-44.382-31.425-24.752 0-44.817 16.317-44.817 36.443 0 20.13 20.065 36.45 44.817 36.45.93 0 1.85-.03 2.766-.07.992 4.33 1.82 11.04-1.175 15.1 0 0-20.558 15.37-10.07 29.98-.012-.1-2.697-25.59 16.917-30.12l-3.558-16.05s7.41-1.74 16.07-5.56v20.11s-20.696 24.17-8.978 40.53c20.496-.62 61.744-11.59 32.41-95.34z"/><path fill="#BE202E" d="M120.072 133.73v-20.106c-8.66 3.826-16.07 5.567-16.07 5.567l3.56 16.06c-19.615 4.54-16.93 30.02-16.917 30.13 2.045 2.85 3.073 3.82 7.873 6.49 0 0 6.466 2.59 12.577 2.4-11.718-16.36 8.977-40.52 8.977-40.52z"/><ellipse fill="#D0D2D3" cx="94.663" cy="87.761" rx="38.085" ry="28.892"/><path fill="#404041" d="M153.398 121.334l-9.142-1.53-1.106 7.033 10.545 2.74s.087-7.052-.297-8.243z"/><path fill="#6C6F71" d="M88.074 98.514s-.555 3.76 0 4.69l-.396.095s-1.226-5.17.396-4.79z"/><path fill="#D0D2D3" d="M130.277 61.498s-.438 3.742 3.046 4.264c0 0 17.056-5.57 4.608 9.4 0 0-1.39 2.26 1.49 4.262 0 0 11.49-9.833 7.84-17.316 0 0-2.78-8.18-16.97-.61z"/><path fill="#1D8FCD" d="M83.146 96.7s3.313-6.74 4.533-3.18c0 0 2.73-4.006 2.73 2.427 0 0-2.6 1.77-2.74 3.913 0 0-2.69-1.078-4.54-3.16z"/><path fill="#FFF" d="M87.678 98.215s.167-.91 1.45-1.82c0 0-.475-1.74-1.45 1.82z"/><path fill="#BE202E" d="M121.325 162.19s17.27-15.11 13.16-45.247c0 .002-2.305 37.153-13.16 45.248zm22.902-42.387s-6.3 38.037-10.146 42.388c-3.85 4.36-.7 2.74-.7 2.74l4.5.63c0 .01 8.43-32.89 6.35-45.75z"/><path fill="#919496" d="M84.847 110.996s1.22 2.375 6.29 2.627c-.002 0-5.03 2.567-6.29-2.627z"/><path fill="#404041" d="M134.47 117.18l14.207-21.66-3.044-10.282-15.2 31.56 3.56 5.738"/><path fill="#FFE8BA" d="M148.246 94.064l-10.592 16.81 10.065-18.587m-8.61 12.833l-5.72 11.006 1.07 1.054-.12 1.342-1.61-1.87m20.73 5.884l-7.06-.783 7.12 1.784"/><ellipse fill="#F291BC" cx="110.648" cy="102.861" rx="5.48" ry="2.703"/><ellipse fill="#F291BC" cx="72.938" cy="101.922" rx="4.262" ry="2.102"/><path fill="#404041" d="M64.596 60.433s33.18-22.75 65.68 1.065l4.034-2.183S115.967 45.67 96.06 47.487c.002 0-17.58-.128-31.464 12.946z"/><path fill="#74020D" d="M166.48 72.11l-.444.62s1.67 1.286 3.525.398c0 0 1.62-.732 1.44-3.086l-4.52 2.07z"/><path fill="#FFE8BA" d="M161.588 62.44s5.178 8.22 4.872 10.55c0 0 1.354.75 2.64.342-3.19-5.552-5.51-8.818-7.14-10.736-.128-.05-.24-.105-.372-.156z"/><path fill="#FAAF40" d="M171 71.042s-.816-5.127-9.04-8.445c1.63 1.918 3.948 5.184 7.14 10.736.754-.24 1.48-.874 1.9-2.29z"/><path fill="#6C6F71" d="M80.604 98.76l-1.792 1.815 1.172-.417s1.788 9.385 8.496 10.364c0 0 5.52.687 11.217-10.528 0 0 .456 1.515 2.8.58 0 0-3.954-.003-2.442-3.037 0 0-1.508.456-.912 1.883 0 0-10.608 7.06-18.503.4l-.036-1.06z"/><path fill="#404041" d="M80.318 99.994c.18.515.36 1 .542 1.466.165-.192.343-.378.515-.56-.704-.51-1.057-.906-1.057-.906z"/><path fill="#FFF" d="M97.203 101.028c-8.417 3.99-13.71 1.408-15.828-.128-.17.182-.35.368-.515.56 6.134 15.742 14.107 5.522 17.117.675-.3-.328-.57-.684-.774-1.107z"/><path fill="#404041" d="M97.203 101.028c.204.423.475.78.774 1.106.774-1.248 1.22-2.14 1.22-2.14-.685.39-1.347.727-1.994 1.034z"/><path fill="#EE3638" d="M126.628 36.743c.595 10.53-5.763 13.834-9.553 14.86 1.32 1.188 3.437 2.736 6.156 3.514 3.29-3.376 6.09-9.123 3.4-18.374z"/><path fill="#BE1E2D" d="M126.62 36.62c0 .04.005.083.008.123 2.685 9.25-.106 14.998-3.397 18.374 1.5.427 3.17.627 4.99.396 0 0 9.56-15.32-1.6-18.893z"/><path fill="#FFF" d="M126.628 36.743c-.015-.045-.022-.088-.035-.133-.136-.042-.256-.09-.396-.13 0 0 2.516 6.793-10.663 13.533 0 0 .545.693 1.54 1.59 3.79-1.026 10.15-4.33 9.554-14.86z"/><path fill="#EE3638" d="M68.872 43.52c.593 7.276 5.265 8.938 7.962 9.28-.793.94-2.096 2.204-3.886 2.995-2.578-2.002-5.037-5.676-4.076-12.275z"/><path fill="#FFF" d="M68.866 43.435c.003.03.003.057.006.085-.96 6.6 1.5 10.273 4.076 12.275-.985.435-2.11.73-3.386.746 0 .01-8.01-9.59-.696-13.1z"/><path fill="#BE1E2D" d="M68.872 43.52c.006-.033.007-.063.012-.095.087-.04.166-.087.258-.127 0 0-1.08 4.897 8.597 8.265 0 0-.31.528-.91 1.237-2.7-.342-7.37-2.004-7.97-9.28zm57.756-6.777l-.01-.123-.025-.01c.01.045.02.088.035.133z"/><path fill="#58595B" d="M81.824 104.034l1.202-1.136.986 4.19 1.66-3.448 1.94 4.922 2.67-4.786 1.174 4.372 1.765-4.67.96 3.148 1.21-4.227.85 1.87.09.29.4-.53-1.32-2.22-1.2 3.75-.95-2.71-1.76 4.25-1.04-4.01-2.76 4.39-1.88-4.64-1.65 3.19-.97-3.67-1.18 1.09-.26-1.65"/><path fill="#F69C95" d="M85.914 109.033s.777.313 1.698-.47c0 0 1.766 1.68 3.843-.415l.908.414s-3.47 3.028-6.45.47z"/><path fill="#404041" d="M43.473 191.635s-6-7.344 0-19.6c0 0-1.264 15.318 4.237 9.8 0 0 7.022-4.872 8.736-14.188 0 0 .132-8.562 12.14-13.498 0 0-10.7 14.7-5.41 12.74 0 0 .384-.3 1.132-.81 6.517-4.48 40.7-25.64 89.757-13.76l-10.53.59s3.815-1.48 14.582 5.7c0 0 13.618 12.48 5.81-6.58 0 0 20.07 4.38 33.172 25.39l1.31 16.78-14.45 3.91 1.6-13.33.53 9.75 9.41-2.93s-1.2-14.08-13.22-14.69l-10.37 32.89-20.79-1.17-15.35-6.9.39-7.18 11.93 1.39-9.02 2.15 11.81 7.29 12.95-5.32L152 191s-41.39-23.595-86.56-3.54l3.82.83-12.85 15.09-5.53-4.342 4.76 1.24 5.17-9.1-.2-4.34-14.278 2.893 1.34 5.78-4.24-3.9zm112.11-29.445s7.405-6.17 14.877-.437c7.47 5.735-3.354 6.158-3.354 6.158l-11.523-5.72z"/><path fill="#FFF" d="M54.307 179l4.377-5.51 2.66-.43-2.66 3.126"/><path fill="#FAAF40" d="M94.78 154.663c.052.065-2.926 7.848-3.01 15.9-.012 1.077.066 2.013.23 2.817.448 2.217 1.408 3.355 2.888 3.42.563.026 1.673-.298 1.673-.298.03.032-1.27.976-2.65.905-2.05-.104-4.48-1.9-5-1.9-.27 0-1.36.784-2.28.803-.73.014-1.94-.55-1.94-.55 0-.005.5.046.74.035.6-.024 1.07-.2 1.36-.542.25-.293.37-.682.34-1.086-.02-.346-.37-.945-1.05-1.63-.2-.207-.95-.93-2.26-2.002-1-.82-4.35-2.56-4.66-2.372-.08.05-.11 1.244 0 2.367.02.26.12.554.25.854.27.604.64 1.096 1.1 1.488.55.464 1.11.67 1.7.6.62-.072.87-.263.75-.576-.08-.22-.65-.684-.65-.684.01-.03 1.75.526 1.79 1.047.04.42-.15.8-.6 1.09-.44.29-1.05.46-1.83.53-.58.05-1.44 0-2.58-.1-1.14-.1-1.84-.11-2.09-.08-1.1.15-1.61.41-1.52.71.08.27.46.37 1.11.3.27-.04.77-.15.77-.15.01.01-1.15.72-1.77.79-1.36.14-2.16-.02-2.38-.55-.09-.2.1-.71.58-1.59.57-1.05 1.06-3.32 1.06-3.32-.05-.02-1.62 1.19-2.81 1.5-1.24.32-2.38.51-3.43.56-1.56.09-2.64-.14-3.23-.76-.13-.14-.22-.3-.28-.47-.42-1.08.5-2.5 3.02-4.27 1.58-1.11 3.17-2.02 4.73-2.63.7-.27 1.83-.49 2-.71.13-.16.52-1.03 1.48-1.71.88-.62 1.77-1.08 2.65-1.37.93-.31 1.85-.15 1.85-.15 0 .02-.79.14-1.16.27-.37.13-.72.35-1.01.64-.35.35-.51.73-.47 1.09.07.74 1.42 1.51 3.83 2.67.82.4 4.56 2.13 4.62 2.09.07-.05-.01-1.56-.04-2.9-.01-.47-.08-.92-.2-1.35-.46-1.66-1.43-2.25-2.89-1.79-.85.27-1.19.64-1.02 1.13.08.25.62.77.62.77-.02.02-2.15-.76-2.2-1.24-.13-1.12.99-2.15 3.38-2.96 1.67-.57 3.54.48 3.63.47.38-.03 6.92-5.18 6.92-5.18z"/><path fill="#404041" d="M74.368 168.172c.02-.02-.198-.533-.31-.736-.46-.844-1.285-1.05-2.46-.606-1.228.463-2.17 1.082-2.803 1.798-.635.717-.78 1.264-.456 1.686.45.596 1.45.643 2.99.17.55-.168 1-.4 1.36-.71.35-.31.52-.574.49-.778-.06-.37-.52-.432-1.38-.146-.54.18-1.33.8-1.33.8-.01-.005.92-.98 1.8-1.28.91-.31 2.08-.198 2.08-.198z"/><path fill="#FAAF40" d="M112.328 170.355c-.635 1.01-1.47 1.9-2.49 2.645-1.387 1.01-2.734 1.428-4.082 1.343-1.31-.083-1.945-1.852-1.945-1.852-.05-.02-1.2.78-2.05 1.08-.95.33-1.81.46-2.6.43-1.15-.04-1.99-.41-2.54-1.1-.39-.49-.61-1.1-.62-1.81-.01-1.07.46-2.16 1.44-3.3 1.31-1.51 3.21-2.6 5.65-3.13.42-.09.85-.16 1.27-.19.96-.08 1.83-.04 2.59.14.76.19 1.42.55 1.44.74.04.41-.49 1.24-.59 1.57-.29.97-.44 2.11-.5 3.35-.03.86.33 1.29 1.1 1.32.46.02 1.06-.23 1.83-.72.59-.38 1.12-.78 1.56-1.22.23.3.34.45.57.75z"/><path fill="#404041" d="M104.183 167.805c.008-.35-.02-.603-.095-.73-.125-.21-.41-.304-.8-.26-.87.093-1.686.616-2.414 1.52-.647.802-.95 1.458-.92 1.993.036.682.38 1.02 1.026 1.01.728-.01 1.434-.44 2.15-1.326.675-.836 1.038-1.584 1.053-2.207z"/><path fill="#FAAF40" d="M127.352 171.71c-.797 1.124-1.79 2.106-2.96 2.938-1.547 1.1-2.96 1.496-4.316 1.28-.52-.083-.938-.368-1.262-.847-.325-.47-.457-1.04-.39-1.69.025-.23.17-.71.17-.71-.023-.02-1.117.8-1.655 1.09-1.34.73-2.58 1.04-3.74 1-.98-.03-1.68-.32-2.08-.88-.33-.45-.46-1.07-.4-1.85.04-.55.23-1.38.61-2.51s.57-1.77.58-1.9c.02-.49-.15-.75-.56-.75-.13.01-.51.21-1.13.61-.29-.3-.44-.45-.74-.74.7-.56 1.42-1.14 2.15-1.71.97-.76 1.73-1.18 2.22-1.24.72-.08 1.27.08 1.63.48.36.41.51.95.44 1.62-.06.51-.24 1.3-.54 2.38-.31 1.08-.46 1.81-.49 2.19-.06.72.11 1.1.55 1.14.63.05 1.38-.34 2.28-1.21.9-.87 1.41-1.75 1.53-2.55.04-.31-.01-.6-.18-.85s-.43-.38-.77-.39c-.36-.01-1.12.19-1.12.19-.16-.16 2.33-3.3 4.42-3.21 1.7.07 2.42 1.02 2.12 2.8-.1.57-.35 1.44-.74 2.56-.42 1.19-.66 1.92-.72 2.2-.21 1.02.09 1.59.88 1.69.84.11 2.05-.53 3.7-2.02.18.39.27.57.45.95z"/><path fill="#FAAF40" d="M141.596 174.566c-1.582 1.285-5.53 2.193-7.005 3.48-3.55 3.105-6.26 9.55-9.11 8.587-1.92-.647-2.62-2.024-2.09-4.19.31-1.254 1.2-2.295 2.75-3.144 1.1-.6 4.04-.98 5.19-1.92.44-.36 1.12-2.34 1.12-2.34-.06-.05-3.92 2.37-5.61 1.99-1.16-.26-1.91-.97-2.19-2.08-.21-.82-.18-1.78.08-2.88.55-2.35 1.76-4.25 3.7-5.77 1.94-1.52 4.15-2.25 6.52-2.03 1.09.1 2.09.36 3 .78.92.43 1.54.99 1.52 1.3-.13 1.78-3.95 9.8-3.95 9.8.18.18 4.63-1.76 5.93-2.76.09.45.13.68.21 1.14z"/><path fill="#404041" d="M133.902 169.06c.12-.43.123-.792.016-1.068-.107-.277-.374-.43-.794-.453-.886-.06-1.876.55-2.892 1.78-.863 1.04-1.38 1.99-1.578 2.83-.204.86.06 1.35.78 1.47s1.57-.39 2.6-1.53c.952-1.07 1.607-2.1 1.868-3.04zm-3.97 10.448c-.058-.08-2.94 1.205-3.095 1.81-.082.325.03.526.333.61.548.148 2.762-2.42 2.762-2.42z"/><path fill="#FAAF40" d="M154.23 177.86c-1.146 1.344-2.432 2.47-3.836 3.35-1.906 1.192-3.48 1.528-4.777 1.083-.602-.206-.975-.637-1.124-1.287s-.08-1.404.215-2.27c.304-.893.753-1.93 1.36-3.11.606-1.185 1.03-2.108 1.26-2.755.357-.99.305-1.55-.17-1.65-.717-.16-1.725.4-2.975 1.62-1.37 1.34-2.3 2.86-2.838 4.57-.474 1.5-.643 3.13-.693 3.17-.22.18-2.193-1.05-2.545-2.09-.285-.84-.246-1.89.117-3.11.407-1.38 1.115-3.48 2.16-6.32 1.167-3.16 1.94-5.25 2.268-6.23.447-1.33.514-2.35.18-3.03-.215-.43-.488-.67-.796-.69-.38-.02-1.285.22-1.285.22-.1-.13 3.71-3.93 5.96-3.69 1.98.21 2.59 1.67 1.79 4.28-.53 1.76-4.36 9.61-4.36 9.61.02.02 1.4-.94 2.11-1.28 1.68-.82 3.23-1.19 4.54-1.07 1.13.1 1.83.59 2.02 1.44.15.68.01 1.62-.41 2.77-.28.78-.83 1.89-1.61 3.32-.78 1.43-1.2 2.26-1.27 2.48-.21.57-.32 1-.29 1.25.03.26.23.45.61.57.28.09.94-.17 1.98-.79.87-.52 1.62-1.03 2.25-1.54.08.51.12.76.19 1.26z"/><path fill="#FAAF40" d="M162.87 180.916c-1.128 1.234-2.67 2.325-4.57 3.27-2.247 1.115-3.968 1.38-5.272.858-1.592-.64-2.018-1.976-1.287-4.04.52-1.465 2.04-4.72 4.69-9.824-.53-.14-.81-.21-1.34-.344-.24-.063-.28-.23-.14-.502.38-.704.57-1.055.96-1.762.1-.194.23-.273.41-.23.55.126.83.193 1.38.325.83-1.604 1.25-2.408 2.09-4.02.35-.675 1.18-1.26 2.5-1.73 1.23-.438 2.17-.59 2.79-.457.33.07.42.22.28.446-.73 1.226-2.04 3.496-3.9 6.705.9.24 1.34.37 2.24.62.25.07.29.25.12.53-.44.74-.65 1.11-1.09 1.84-.08.21-.21.29-.39.24-.92-.28-1.39-.41-2.31-.67-1.63 2.94-2.82 5.32-3.59 7.18-.44 1.08-.18 1.8.8 2.16.74.28 1.74.14 3.02-.41.94-.41 1.8-.91 2.56-1.51.04.55.06.82.09 1.37z"/><path fill="#FAAF40" d="M177.3 187.604c-2.225 1.418-6.706 2.047-8.73 3.338-2.54 1.617-5.224 6.257-7.337 8.033-2.48 2.082-4.237 2.71-5.428 1.975-1.768-1.096-1.955-3.037-.54-5.89.82-1.65 2.158-2.907 4.064-3.792 1.35-.63 4.58-.812 6.15-1.76.56-.337 2.08-2.945 2.08-2.945-.02-.017-1.47.832-2.17 1.114-1.69.688-3.11.818-4.26.444-.98-.31-1.5-.96-1.56-1.95-.05-.81.22-1.82.78-3.04.4-.89 1.18-2.19 2.34-3.9s1.76-2.6 1.79-2.66c.35-.78.33-1.24-.07-1.38-.13-.04-.63.16-1.49.59-.09-.58-.14-.87-.23-1.45 1.04-.65 2.11-1.31 3.18-1.96 1.42-.86 2.43-1.25 2.95-1.16.75.13 1.18.57 1.27 1.32.09.76-.1 1.65-.57 2.67-.27.59-.91 1.7-1.92 3.31-1.06 1.7-1.74 2.83-2.02 3.41-.53 1.09-.58 1.75-.15 1.93.6.26 1.6-.14 3.04-1.2s2.48-2.23 3.1-3.43c.23-.46.36-.92.34-1.35s-.19-.71-.49-.82c-.37-.14-1.23-.07-1.23-.07-.15-.23 4.3-4.28 6.31-3.45 1.66.68 1.81 2.36.39 4.99-1.76 3.27-6.6 10.12-6.6 10.12.1.16 5.39-1.47 7.15-2.51-.09.6-.13.91-.21 1.51z"/><path fill="#404041" d="M163.254 192.11c-.048-.085-3.538 1.15-3.936 1.938-.215.422-.178.71.105.863.515.28 3.83-2.8 3.83-2.8zm-76.642-78.34l.622 4.213 1.17-3.725"/><ellipse fill="#FFF" cx="74.192" cy="82.761" rx="14.522" ry="14.316"/><ellipse fill="#FFF" cx="107.966" cy="82.282" rx="17.929" ry="17.009"/><circle fill="#0071BC" cx="112.084" cy="83.647" r="11.709"/><path fill="#0F4481" d="M119.04 87.997c2.875-2.485 3.188-6.83.702-9.7-2.488-2.875-6.83-3.185-9.7-.7-2.87 2.485-3.186 6.826-.697 9.7 2.484 2.872 6.826 3.186 9.696.7z"/><path fill="#FFF" d="M117.67 85.562c1.526-1.322 1.695-3.632.375-5.158-1.32-1.528-3.633-1.69-5.157-.37-1.524 1.32-1.692 3.627-.37 5.155 1.32 1.52 3.627 1.69 5.152.37z"/><circle fill="#FFF" cx="107.785" cy="81.851" r="1.779"/><circle fill="#0071BC" cx="76.984" cy="87.434" r="7.308"/><path fill="#0F4481" d="M81.327 90.15c1.793-1.55 1.988-4.263.438-6.055-1.555-1.795-4.264-1.988-6.057-.438-1.792 1.55-1.987 4.26-.435 6.055 1.55 1.792 4.262 1.99 6.054.437z"/><path fill="#FFF" d="M80.47 88.63c.953-.826 1.058-2.268.234-3.22-.825-.953-2.267-1.054-3.218-.23-.952.824-1.057 2.262-.232 3.216.825.95 2.264 1.057 3.216.233z"/><circle fill="#FFF" cx="74.3" cy="86.313" r="1.111"/><path fill="#D0D2D3" d="M58.91 80.78s1.606-13.963 19.348-14.184l8.976 2.26 16.242-5.133 6.357-.376 10.24 3.25L125 72.063l1.667 5.802s-3.365-5.656-8.954-6.823c0 0-19.376 23.354-28.295 16.72l-1.016.76s-18.496-1.854-23.807-12.375L58.91 80.78z"/><path fill="#919496" d="M90.28 87.782s4.816 6.362 27.435-19.21c0 0 10.294 3.93 13.124 15.596 0 0-5.92-9.02-13.13-12.427 0 0-20.32 24.83-27.44 16.05zm-3.932.488s-15.655-2.222-21.75-14.58c0 0-6.614 6.146-6.772 10.478 0 0 5.132-6.967 6.77-7.334 0 0 9.188 13.7 21.752 11.435zm1.16-3.032l-7.19-6.82s5.53 6.974 7.19 6.82zm2.907.002l5.668-6.824s-3.753 7.064-5.668 6.824z"/></svg>