<svg xmlns="http://www.w3.org/2000/svg" width="250" height="250" viewBox="0 0 250 250"><path opacity=".15" d="M199.84 77.057c.62-.494 1.26-1.002 1.818-1.528.387-.37.664-.75.85-1 .228-.32.41-.6.558-.88.284-.54.448-1.08.492-1.6.048-.65-.08-1.27-.364-1.82-.246-.47-.593-.88-1.03-1.22-.267-.21-.585-.42-.958-.61-.53-.28-1.09-.52-1.663-.73-.675-.25-1.354-.41-2.032-.48-.25-.03-.51-.05-.77-.05-.49 0-.98.05-1.45.16-.87.2-1.67.62-2.36 1.25l-.69.65c-16.67-15.13-39.97-24.54-65.76-24.54-50.69 0-91.79 36.3-91.79 81.09 0 44.78 41.1 81.09 91.8 81.09s91.8-36.31 91.8-81.1c0-18.29-6.86-35.16-18.42-48.73z"/><path fill="#EF6EA8" d="M197.29 73.657c.622-.494 1.26-1.002 1.818-1.528.387-.37.663-.75.848-1 .23-.32.414-.6.56-.88.284-.54.448-1.08.49-1.6.05-.65-.076-1.27-.362-1.82-.245-.47-.593-.88-1.03-1.22-.266-.21-.584-.42-.96-.61-.528-.27-1.088-.52-1.662-.73-.674-.24-1.354-.4-2.03-.48-.26-.03-.518-.04-.77-.04-.493 0-.984.05-1.458.16-.876.19-1.672.62-2.358 1.25-.218.2-.455.42-.692.65-16.674-15.13-39.97-24.54-65.764-24.54-50.698 0-91.795 36.3-91.795 81.09s41.097 81.09 91.795 81.09c50.697 0 91.795-36.31 91.795-81.09 0-18.29-6.862-35.17-18.426-48.73z"/><path fill="#E6E6E6" d="M113.224 202.915c-.342-1.17-.64-2.326-.89-3.458-.072 1.055-.16 2.166-.267 3.328.387.044.77.09 1.157.13z"/><path fill="#FFF" d="M178.135 122.385l.017.003s13.083-23.796-11.207-15.53h-.005c2.7 2.618 2.7 2.618-.005 0-12.112-11.72-30.262-19.174-50.56-19.174-19.997 0-37.904 7.234-50.006 18.653-17.34-7.54-20.9 2.888-20.9 2.888-3.38 6.903 2 15.166 6.49 20.378-.4 1.44-.73 2.9-.99 4.383-3.3 9.43-5.99 18.224-8.14 26.44 9.4 15.612 24.41 28.172 42.66 35.61 0 0 12.36 5.148 19.54 5.722.72.134 1.45.243 2.18.36 1.27.208 2.56.396 3.85.556.33.04.66.073.98.11 2.2.253 3.84.37 5.01.447-.92-2.47-1.85-5.2-2.81-8.19.7.02 1.4.04 2.1.04 11.43 0 22.18-2.37 31.56-6.53-.45 1.39-1.33 8.36-2.38 12.66 2.45-.52 4.86-1.13 7.23-1.83.92-4.39 1.78-9.23 2.57-14.56l.01-.1.06-.03c13.82-8.26 23.54-20.78 26.22-35.19.45-2.44.69-4.94.73-7.49 0-.2.02-.4.02-.61 0-6.69-1.52-13.08-4.27-18.99z"/><path fill="#D0D2D3" d="M174.097 115.31c2.168-2.08 10.028-9.193 2.745 4.495-.002 0-.002.003-.003.004.45.85.89 1.7 1.29 2.57h.01s13.08-23.8-11.21-15.53h-.01c2.7 2.61 5.1 5.44 7.15 8.45z"/><path fill="#919496" d="M176.842 119.804c7.283-13.688-.577-6.576-2.745-4.494.997 1.46 1.912 2.96 2.742 4.498v-.004zM54.67 122.27c1.472-3.145 3.305-6.144 5.443-8.973-5.08-.657-10.8.143-5.443 8.972z"/><path fill="#FFF" d="M165.995 172.635c-.035.577-.797 1.555-.797 1.555-5.105 2.12-9.207 9.432-9.77 10.475 13.818-8.26 23.542-20.78 26.223-35.186-1.93 8.96-7.55 17-15.65 23.15zm-65.862 7.585l.092.037-.004-.004-.08-.034z"/><linearGradient id="a" gradientUnits="userSpaceOnUse" x1="78.164" y1="131.051" x2="126.193" y2="131.051"><stop offset="0" stop-color="#B81319"/><stop offset="1" stop-color="#EC1C24"/></linearGradient><path fill="url(#a)" d="M81.628 113.75C71.418 124.28 85.5 147.5 101.5 151.5v-1 2c14-5 28-16 24-33-2-7-9-11-16-8-6.653 2.42-18.83 1.135-24.667-.12l-1.66-1.78c-.984.374-.7 3.278-1.545 4.15z"/><linearGradient id="b" gradientUnits="userSpaceOnUse" x1="130.682" y1="131.459" x2="169.123" y2="131.459"><stop offset="0" stop-color="#B81319"/><stop offset="1" stop-color="#EC1C24"/></linearGradient><path fill="url(#b)" d="M149.5 120.5c-4-4-10-4-15-2-4 1-4.75 5.834-2.75 9.834 4 9 10.75 23.166 23.75 19.166 5.776-1.732 11.212-7.138 13.623-13.514v-13.194c-.188-.434-.39-.866-.623-1.292-5-7-15-6-19 1z"/><path fill="#D0D2D3" d="M105.024 192.21c-4.324-1.25-11.56-3.568-19.515-7.08v10.907c5.46 2.226 11.2 3.99 17.18 5.24.78.165 1.56.335 2.36.48.02-.605.04-1.204.05-1.834.03-2.383.01-4.958-.08-7.714zm77.376-49.648c0-.192-.018-.38-.02-.572-.034 2.543-.275 5.045-.73 7.49.486-2.252.75-4.563.75-6.918zM70.475 108.327c-1.452-.773-2.813-1.426-4.106-1.99-17.34-7.538-20.9 2.89-20.9 2.89-3.38 6.902 2 15.165 6.49 20.377 2.68 3.11 5.04 5.134 5.04 5.134 4.23-2.948 2.18-6.282 2.18-6.282-.63-.76-1.2-1.477-1.74-2.167s-1.31-1.63-2.84-3.9c.02-.04.03-.09.05-.13-5.36-8.83.36-9.63 5.44-8.98 1.07.14 2.12.34 3.03.55 1.66.38 2.84.76 2.84.76 5.13-.77 4.49-6.29 4.49-6.29z"/><path fill="#D0D2D3" d="M54.616 122.39c1.53 2.272 2.84 3.902 2.84 3.902v-.004c-1.155-1.5-2.064-2.828-2.787-4.02l-.06.123z"/><path fill="#FFF" d="M174.667 123.585c-.403-.818-.847-1.613-1.35-2.37-.228-.35-.477-.684-.728-1.018-3.28-4.383-8.19-7.495-13.85-8.472-1.24-.213-2.5-.345-3.8-.345-5.99 0-11.42 2.372-15.38 6.21 1.9-.033 4.11.55 6.56 1.927 5.12 2.88 2.64 2.896 7.77.158 15.32-8.175 24.23 14.357-3.82 28.584-.45-.23-.87-.47-1.31-.71l-.1-.06c-8.97-4.92-13.81-11.22-15.55-16.78-.08.74-.12 1.5-.12 2.27 0 10.27 7.27 18.85 17.01 21.05 1.77-2.82 6.57-7.71 17.06-3.06 5.9-3.87 9.79-10.49 9.79-18 0-3.38-.81-6.56-2.21-9.41z"/><path fill="#E6E6E6" d="M100.225 180.257l-.092-.038c-.544-.22-1.08-.45-1.61-.68l-.647-.27s5.793 5.99 7.148 12.92c-.035-1.1-.075-2.22-.13-3.38 0 0-.516-4.78-4.67-8.56z"/><path fill="#E6E6E6" d="M98.52 179.543c.533.23 1.068.458 1.612.676l-1.61-.68zm14.095 14.48l.792-3.902s4.272-3.7 2.71-5.69l-.514-.05c-.265 1.41-1.083 3.25-2.915 5.62 0 0 .012 1.53-.073 4.03z"/><path fill="#D0D2D3" d="M136.587 182.475l4.996-1.09 1.676-10.134v-9.16l3.89-4.31s-4.84-5.6-4.79-5.85-5.12-4.36-5.12-4.36l-9.84 3.2-12.17 9.63 3.33 5.92 5 16.62 6.16.91 6.83-1.35z"/><path fill="#6C6F71" d="M134.795 177.48c-2.844-2.27-7.008-2.667-7.008-2.667 4.705 2.01 5.895 3.313 5.895 3.313-4.46-.373-5.895 3.97-5.895 3.97 2.948-2.514 6.386-3.182 6.386-3.182 11.176 5.856 4.722-4.603 4.722-4.603 3.014 8.63-4.1 3.17-4.1 3.17z"/><path fill="#BE1E2D" d="M132.55 172.805c9.13 11.38 3.057-6.188 3.057-6.188-2.706 2.025-4.99 3.046-6.92 3.41 2.714 1.16 3.862 2.778 3.862 2.778z"/><path fill="#6C6F71" d="M126.246 169.252c-.71-.158-1.48-.28-2.327-.342 0 0 .89.26 2.32.342z"/><path fill="#E6E6E6" d="M155.355 184.8l.07-.136c-.02.012-.038.023-.06.034l-.01.1zm-6.792 1.023c-1.065-1.378-1.73-2.54-2.128-3.532-.206.06-.41.13-.616.19l-.07.03s2.07 4.49 2.4 5.95c.27-1.64.41-2.62.41-2.62zm16.635-11.633s.762-.98.798-1.556c-.154.12-.314.23-.47.343-.145.684-.328 1.212-.328 1.212z"/><path fill="#E6E6E6" d="M165.198 174.19c-8.43 2.427-9.7 9.59-9.83 10.508.02-.01.038-.022.06-.034.563-1.043 4.665-8.355 9.77-10.475zm-18.77 8.077l-.61.208c.207-.058.41-.125.616-.184-.004 0-.006-.01-.008-.02zm19.567-9.632l-.46.3c-.004.015-.007.03-.008.043.155-.115.315-.224.468-.343z"/><path fill="#D0D2D3" d="M175.54 122.153c-.11-.152-.23-.3-.344-.45-.73-.983-1.5-1.946-2.326-2.88-3.19-3.595-7.093-6.795-11.545-9.5-9.6-5.833-21.777-9.33-35.034-9.33-15.22 0-29.02 4.607-39.13 12.076.14-.01.28-.01.42-.01 4.55-3.43 10.22-5.47 16.36-5.47 14.96 0 27.08 12.04 27.08 26.89 0 12.11-8.06 22.35-19.14 25.72-7.05-9.38-19.38-6.77-25.06-4.9-6.07-4.94-9.94-12.43-9.94-20.82 0-3.05.52-5.98 1.46-8.71-.16-1.59-.12-3.09.13-4.47-5.24 6.47-8.27 14.09-8.27 22.24 0 15.84 11.42 29.65 28.34 36.98l1.61.67.09.03c-1.6-1.47-3.74-2.79-6.62-3.62 0 0-1.77-5.02.91-5.02 0 0 3.06-2.34 9.82 9.64 0 0-2.67-4.77-2.4-15.27 0 0 5.32-5.74 7.23 11.54 0 0 2.5-1.12 4.44-12.87 0 0 3.15-1.81 3.28 4.11 0 0 .65 5.32-3.06 11.34 0 0 2.38.99 1.79 4.22 3.46.51 7.03.78 10.68.78 6.87 0 13.45-.94 19.53-2.65l.61-.21c-1.56-3.91 1.15-5.03 1.15-5.03-3.22-5.24-2.66-9.88-2.66-9.88.12-5.16 2.86-3.58 2.86-3.58 1.69 10.24 3.87 11.21 3.87 11.21 1.67-15.07 6.3-10.06 6.3-10.06.24 9.15-2.09 13.3-2.09 13.3 5.89-10.44 8.56-8.4 8.56-8.4 1.51 0 1.4 1.82 1.13 3.11l.46-.3c8.11-6.16 13.73-14.19 15.66-23.16.45-2.45.69-4.95.73-7.49-.12-7.18-2.58-13.94-6.84-19.84zm-41.367 56.76s-3.438.67-6.386 3.182c0 0 1.434-4.342 5.895-3.97 0 0-1.19-1.303-5.895-3.312 0 0 4.164.398 7.008 2.668 0 0 7.114 5.45 4.1-3.17 0 .01 6.454 10.46-4.722 4.61zm8.302-18.608c.93 14.26-6.868 6.312-6.868 6.312s6.073 17.568-3.058 6.188c0 0-1.15-1.616-3.87-2.778-7.49 1.403-9.59-7.245-9.59-7.245l-2.63-2.01 3.73.21c1.19 12.383 13.56 5.635 13.56 5.635 3.15-3.51 2.34-7.976 2.33-7.986-1.07-2.31-3.56-4.01-3.56-4.01 0-9.48 4.03-3.57 4.03-3.57 1.79-5.24 6.68 4.69 6.68 4.69-1.91 2.15-4.4 3.56-5.74 4.22.14 2.09-.94 5.72-.94 5.72 5.74 6.97 5.74-7.14 5.74-7.14l3.42-.56-3.28 2.34zM167.087 151c-10.49-4.657-15.29.238-17.06 3.055-9.743-2.205-17.016-10.782-17.016-21.055 0-.768.05-1.524.13-2.27-2.23-7.142.65-13.037 6.44-13.138 3.96-3.838 9.39-6.21 15.38-6.21 1.3 0 2.56.132 3.8.345 5.67.977 10.57 4.088 13.85 8.472.25.33.5.66.73 1.01.5.75.95 1.55 1.35 2.37 1.4 2.85 2.21 6.03 2.21 9.41 0 7.51-3.89 14.12-9.79 17.99z"/><path fill="#FFF" d="M105.027 192.21c0-.006-.003-.013-.004-.02v.02h.004z"/><circle opacity=".45" fill-rule="evenodd" clip-rule="evenodd" fill="#EF6EA8" cx="98.521" cy="163.318" r="8.582"/><circle opacity=".45" fill-rule="evenodd" clip-rule="evenodd" fill="#EF6EA8" cx="158.742" cy="159.949" r="7.675"/><path fill="#1D8FCD" d="M136.58 151.044s-4.03-5.903-4.03 3.575c0 0 2.482 1.69 3.554 4.01.257.55.438 1.14.477 1.75 0 0 .37-.15.95-.44 1.34-.66 3.84-2.08 5.74-4.22 0 0-4.88-9.93-6.68-4.69zm-2.135 4.238s.68-2.48 2.08 2.485c.038.118.055.193.055.193l-.056-.193c-.14-.413-.612-1.445-2.08-2.485z"/><path fill="#FFF" d="M136.524 157.768l.056.193s-.017-.07-.056-.19zm-2.08-2.486c1.468 1.04 1.94 2.072 2.08 2.485-1.4-4.966-2.08-2.485-2.08-2.485z"/><path fill="#6C6F71" d="M145.75 157.96l-3.423.562s0 14.113-5.747 7.146c0 0 1.086-3.635.94-5.718-.576.285-.94.433-.94.433-.04-.61-.22-1.2-.477-1.752.004.02.822 4.48-2.333 7.99 0 0-12.375 6.75-13.567-5.63l-3.734-.21 2.63 2.01s2.1 8.65 9.58 7.25c1.93-.36 4.21-1.38 6.92-3.41 0 0 7.8 7.95 6.87-6.31l3.27-2.34z"/><path fill="#FFF" d="M152.253 180.295l-5.826 1.972c.002.01.004.016.008.024 1.997-.58 3.938-1.25 5.818-1.99z"/><path fill="#FFF" d="M164.404 169.82s-2.67-2.04-8.56 8.403c0 0 2.326-4.153 2.09-13.303 0 0-4.63-5.007-6.298 10.06 0 0-2.173-.973-3.866-11.216 0 0-2.74-1.574-2.86 3.58 0 0-.563 4.64 2.664 9.886 0 0-2.712 1.13-1.147 5.036 0 0 .73 2.202 2.136 3.557 0 0-.137.978-.408 2.622 0 .004-.002.006-.002.007-.467 2.816-1.334 7.577-2.604 12.74 2.45-.522 4.86-1.133 7.23-1.827.92-4.397 1.78-9.23 2.57-14.566l.01-.11c.13-.92 1.4-8.08 9.83-10.51 0 0 .18-.53.33-1.21v-.05c.27-1.29.38-3.12-1.13-3.12z"/><g fill="#FFF"><path d="M178.135 122.385c-.404-.87-.838-1.727-1.296-2.577-.83-1.538-1.75-3.04-2.75-4.498-2.06-3.006-4.46-5.833-7.16-8.45-12.11-11.72-30.26-19.175-50.56-19.175-20 0-37.91 7.234-50.01 18.653 1.29.563 2.65 1.216 4.1 1.99 0 0 .64 5.512-4.49 6.282 0 0-1.18-.384-2.85-.764-.9-.208-1.95-.41-3.03-.55-2.14 2.83-3.97 5.83-5.44 8.973.72 1.19 1.63 2.51 2.78 4.02.53.69 1.1 1.4 1.73 2.16 0 0 2.05 3.33-2.18 6.28 0 0-2.37-2.03-5.05-5.14-.4 1.44-.74 2.9-.99 4.38-3.3 9.43-5.99 18.22-8.14 26.44 9.4 15.61 24.41 28.17 42.66 35.61v-10.9c7.95 3.51 15.19 5.83 19.51 7.08v-.02c-1.36-6.92-7.15-12.92-7.15-12.92l.64.27c-16.92-7.33-28.34-21.14-28.34-36.98 0-8.16 3.03-15.77 8.27-22.25.84-4.76 3.99-8.03 8.71-8.25 10.11-7.47 23.91-12.08 39.13-12.08 13.26 0 25.43 3.49 35.03 9.33 4.45 2.7 8.35 5.9 11.54 9.5.83.93 1.6 1.89 2.33 2.88.11.15.23.29.34.45 4.26 5.9 6.71 12.65 6.84 19.83 0-.21.02-.41.02-.61 0-6.69-1.52-13.09-4.27-19z"/><path d="M105.024 192.21c.086 2.755.113 5.33.078 7.714-.01.63-.03 1.23-.047 1.835.72.13 1.452.24 2.18.36 1.275.2 2.557.39 3.85.55.327.04.656.07.983.11.107-1.16.195-2.28.268-3.33.248 1.13.547 2.29.89 3.46.12.01.238.03.36.04 1.158.11 2.327.2 3.5.27-.918-2.48-1.855-5.21-2.812-8.2.696.02 1.396.03 2.1.03 11.522 0 22.35-2.41 31.78-6.63-.328-1.46-2.403-5.95-2.403-5.95l.07-.02c-6.08 1.71-12.66 2.65-19.52 2.65-3.65 0-7.22-.28-10.68-.78.59-3.24-1.78-4.22-1.78-4.22 3.71-6.02 3.06-11.34 3.06-11.34-.13-5.92-3.28-4.12-3.28-4.12-1.94 11.75-4.44 12.87-4.44 12.87-1.91-17.29-7.22-11.54-7.22-11.54-.27 10.49 2.4 15.26 2.4 15.26-6.76-11.99-9.82-9.65-9.82-9.65-2.68 0-.91 5.01-.91 5.01 2.89.83 5.02 2.15 6.63 3.61 4.16 3.79 4.67 8.56 4.67 8.56.06 1.16.1 2.28.13 3.38 0 0 .01.01.01.02zm7.663-2.217c1.832-2.37 2.65-4.202 2.915-5.613l.514.05c1.563 1.988-2.71 5.69-2.71 5.69l-.792 3.904c.086-2.506.073-4.03.073-4.03z"/></g><path fill="#BE1E2D" d="M99.377 150.622c-.072-.037-.146-.075-.217-.115.07.04.145.078.217.115z"/><path fill="#FFF" d="M104.447 136.64l.03-.032-.03.032z"/><path fill="#BE1E2D" d="M148.78 147.556c-.032-.02-.066-.037-.1-.055l.1.06z"/><path fill="none" d="M182.157 146.428c.01-.07.02-.138.028-.208l-.477-.05.45.258z"/><path fill="#EF6EA8" d="M43.97 156.316l-2.617 1.508c.483.875.977 1.745 1.494 2.603.352-1.346.74-2.732 1.122-4.11z"/><path fill="#F291BC" d="M122.708 194.8l1.833 8.67c3.47-.02 6.9-.21 10.26-.565l-.01-9.98c-3.89.92-7.92 1.552-12.07 1.874zm25.444-6.348v-.005c-3.656 1.635-7.53 2.99-11.565 4.048l4.255 9.586c1.584-.26 3.153-.55 4.707-.88 1.26-5.16 2.13-9.92 2.6-12.74zm-31.778 6.618c-.705 0-1.405-.012-2.1-.032.956 2.985 1.893 5.72 2.81 8.194.57.037 1.142.06 1.71.09l1.77-8.36c-1.387.07-2.783.11-4.19.11zm45.324-14.682l11.506 10.384c2.68-1.51 5.27-3.127 7.753-4.867l-10.234-14.053c-2.637 3.1-5.666 5.954-9.025 8.536zm19.952-30.908c-.612 3.286-1.606 6.47-2.916 9.53l22.34 7.287c1.538-2.104 2.982-4.268 4.3-6.5l-23.217-13.37c-.126 1.03-.29 2.048-.507 3.052zm-9.984 21.216l16.517 9.56c2.153-1.864 4.202-3.825 6.142-5.87L178.313 160c-1.724 3.79-3.97 7.366-6.647 10.696zm-16.24 13.968l-.07.135c-.45 3.04-.93 5.91-1.422 8.64l3.263 4.5c3.08-1.06 6.084-2.26 8.994-3.59l-5.79-12.98c-1.59 1.15-3.24 2.25-4.96 3.28zM66.37 106.338c12.102-11.42 30.01-18.653 50.004-18.653 20.3 0 38.448 7.456 50.56 19.175l.01-.003c24.29-8.266 11.208 15.53 11.208 15.53l-.017-.002c2.75 5.906 4.265 12.305 4.265 18.994 0 .2-.017.4-.02.61.003.19.02.38.02.57 0 1.23-.076 2.45-.214 3.66l28.357 3.01c.88-2.22 1.663-4.48 2.327-6.78l-28.417-9.2 30.84-3.21c.237-2.23.37-4.48.4-6.75l-31.24-3.25 30.235-9.79c-.373-2.19-.864-4.35-1.43-6.48l-31.55 3.35 27.105-15.61c-.954-2.05-2.012-4.06-3.147-6.02l-29.326 9.57 22.176-19.92c-1.498-1.85-3.076-3.63-4.738-5.35L168.58 84.4l16.41-22.535c-1.97-1.552-4.004-3.04-6.12-4.44l-20.1 18.14 10.558-23.64c-2.356-1.19-4.777-2.287-7.257-3.29l-14.73 20.328 5.06-23.67c-2.63-.758-5.31-1.408-8.05-1.957l-9.56 21.547.03-23c-2.78-.29-5.61-.468-8.47-.533l-4.68 22.155-4.64-21.957c-2.87.19-5.71.49-8.51.91l.03 22.425-9.16-20.63c-2.78.68-5.51 1.47-8.17 2.37L96 68.963 82.34 50.116c-2.56 1.15-5.044 2.404-7.46 3.755l9.69 21.7-18.13-16.36c-2.216 1.58-4.35 3.25-6.39 5l14.7 20.19-22.27-12.89c-1.77 1.95-3.45 3.96-5.016 6.04l19.51 17.54-25.514-8.32c-1.236 2.23-2.35 4.52-3.356 6.85l17.366 10c2.827.03 6.397.77 10.91 2.73zm-20.896 2.888s.657-1.91 2.764-3.504l-13.782-1.465c-.63 2.432-1.133 4.904-1.51 7.413l11.577 3.746c-.25-2.106-.02-4.204.95-6.19zm6.494 20.378c-1.97-2.288-4.11-5.163-5.608-8.252l-14.23 1.48c.017 2.596.172 5.162.46 7.694l18.695 1.943c.2-.97.423-1.92.683-2.87zm-1.676 6.42l-15.692 5.08c.698 2.607 1.535 5.165 2.512 7.667l9.337-.99c1.16-3.79 2.45-7.73 3.84-11.75z"/><path fill="none" d="M159.193 81.72L72.36 76.47l-.025-.123c-.038-.178-.073-.363-.127-.533-.08-.247-.163-.498-.253-.745-.29-.79-.683-1.54-1.168-2.22-.382-.53-1.078-1.09-1.693-1.58-.063-.01-.125-.03-.18-.03l-.19-.02c-.23-.03-.468-.05-.688-.1-.293-.06-.548-.16-.767-.28l-.27.06c-.14.03-.3.08-.47.15l-.08.03-.03.01-.04.01-.05.02c-.57.31-1.26.96-1.97 1.82-.35.43-.53.94-.54 1.54l-.01.13c-.02.94-.04 2.02.09 3.01.15 1.19.38 2.16.69 2.88l.06.15c.06.14.12.28.18.44.05.12.1.23.16.35.46.97 1.09 1.86 1.87 2.64.66.66 1.55 1.2 2.65 1.61h.06c.14-.01.33-.04.59-.11.14-.04.27-.07.4-.12.14-.05.29-.1.43-.14.02-.01.05-.02.08-.03l.01-.01.01-.01.08-.03c.43-.18.73-.4.88-.65.28-.45.46-.89.53-1.29.15-.9.2-1.99.18-3.42-.02-1.24-.26-2.51-.46-3.47zm-26.62-7.717l-.006.134-.012.227c-.013.256-.022.508-.03.758l.07-.005c.027-.213.06-.425.094-.638l.09-.62c.03-.25.07-.5.11-.73l.07-.4c.05-.28.1-.57.14-.86.05-.41.1-.82.14-1.22v-.07c-.38 1.07-.61 2.11-.67 3.07l-.01.16-.01.17zm-36.436 2.56c-.03-.213-.065-.433-.11-.666-.054-.284-.1-.576-.144-.873-.032-.226-.068-.447-.11-.66-.12-.64-.287-1.234-.497-1.772-.178-.46-.36-.714-.442-.804-.058-.028-.192-.086-.454-.165-.036-.01-.07-.018-.103-.02-.25.337-.527 1.022-.552 1.672-.04 1.055.07 2.135.328 3.204.073.3.148.59.233.89.04.14.083.28.127.42.047.15.094.3.138.45.06-.01.13-.02.19-.02l.14-.01c.25-.03.5-.04.75-.04h.03c.27-.16.52-.26.72-.34-.03-.14-.06-.28-.08-.42-.05-.29-.1-.58-.14-.86zm-30.755-7.508l.002.003m77.06 5.092l-.003.022c-.03.223-.1.504-.26.798-.02.116-.04.28-.06.4l-.06.38.21.045.7.152c.02-.086.04-.176.07-.275.06-.345.12-.686.19-1.03.06-.257.11-.522.15-.785.13-.866.2-1.81.22-2.808.01-.09.01-.17 0-.25-.11.14-.21.29-.27.46-.44 1.16-.71 2.06-.84 2.85v.03zm22.346.283c.145.458.275 1 .395 1.566.123-.12.26-.23.41-.35.312-.24.622-.44.895-.62l.136-.09h-.01s-.002 0 0 0c.157-.16.332-.3.522-.44.137-.11.274-.22.415-.34l.18-.15-.392-.11-.88-.25-.46-.79-.09-.16-.1-.17-.59-.98-.25.89-.9.1c.29.64.56 1.29.74 1.85zM153.13 84.67c.082-.03.165-.066.246-.103 1.12-.51 2.225-1.116 3.293-1.806.11-.07.23-.14.34-.22-.12-.21-.23-.42-.32-.6l-.09-.18c-.23-.44-.39-.93-.48-1.46-.13-.76-.38-1.65-.61-2.51l-.18-.63c-.3-1.1-.62-2.21-.94-3.31l-.49-1.65c-.05-.15-.13-.33-.2-.5-.15-.36-.29-.71-.38-1.07-.21-.06-.43-.11-.69-.18.11.65.18 1.35.19 2.13.01 1.12-.09 2.25-.3 3.35l-.05.23-.05.25c-.04.2-.1.41-.17.62l-.03.08-.08.26c-.03.11-.06.22-.1.34.62.21 1.17.54 1.65 1.01l2.62 2.53-3.42 1.28-.19.07-.14.05-.64.24-.66-.14-.44-.09-.11-.02-.31-.07-.24-.05c-.25-.05-.51-.09-.77-.14.57.14 1.12.32 1.64.57.67.32 1.56.9 2.04 1.79z"/><path fill="#9D005D" d="M80.34 74.437c-.068-.388-.166-.774-.287-1.156-.425-1.32-1.097-2.5-2.044-3.52-.48-.51-1.04-1.02-1.64-1.45l-.39.02v-.25c-.5-.32-1.02-.59-1.56-.75-.64-.18-1.37-.26-2.15-.26-.94 0-1.95.12-2.9.28-1.76.31-3.48.82-5.17 1.53-.27.12-.55.23-.83.36-.28.12-.56.26-.81.38-.54.27-1.09.55-1.61.85-.52.31-1.09.62-1.5.97-2.05 1.71-3.21 4.25-3.45 6.57-.24 2.31.21 4.46 1.25 6.43.02.04.04.08.07.13l.06.13.08.16.06.13c.56.96 1.4 1.78 2.26 2.41.86.63 1.85 1.25 2.9 1.7l.35.14c.13.06.26.14.37.17.19.05.49.05.74.07.25.03.51.07.76.11.57.08 1.19.1 1.79.12h.13c.55 0 1.08-.11 1.59-.35l.12-.05.12-.06c.05-.02.09-.04.12-.07.03-.02.07-.06.11-.07.52-.14 1.3-.16 1.97-.32.68-.15 1.34-.37 1.98-.64.53-.22 1.04-.47 1.52-.75s.93-.59 1.34-.9c1.52-1.15 2.67-2.54 3.4-4.22.72-1.68 1.15-3.37 1.32-5.02.02-.25.04-.52.04-.78-.01-.27.01-.54 0-.77-.02-.38-.1-.8-.17-1.19zm-5.427 9.287c-.12.74-.43 1.473-.844 2.14-.42.665-1.07 1.18-1.95 1.552l-.07.03-.05.02c-.01.005-.03.015-.05.023-.16.05-.36.1-.55.17-.19.07-.41.12-.62.18-.34.08-.69.16-1.05.18h-.13c-.31 0-.59-.06-.85-.15-1.33-.49-2.53-1.19-3.49-2.15-.96-.96-1.74-2.05-2.32-3.27-.09-.17-.16-.35-.23-.52-.07-.18-.16-.36-.23-.53-.44-1.05-.7-2.28-.86-3.49-.16-1.21-.13-2.44-.11-3.48.01-.99.3-2.04 1.06-2.96.75-.93 1.71-1.89 2.73-2.43l.05-.02v-.01c.04-.02.08-.04.13-.06l.14-.06c.29-.12.57-.21.82-.27.26-.06.52-.11.78-.15.09-.01.18-.02.29-.03.07-.01.19-.03.27-.03.03 0 .05 0 .06.01.12.06.33.34.57.39.23.04.49.06.72.09.19.02.4.07.61.1.21.03.39.15.54.26.77.62 1.69 1.33 2.3 2.18.61.85 1.09 1.77 1.46 2.76.1.27.19.56.28.84.09.28.15.58.21.87.26 1.24.49 2.58.51 3.91.02 1.33-.02 2.64-.21 3.82z"/><path fill="#F291BC" d="M74.398 75.122c-.088-.28-.186-.564-.287-.842-.36-.99-.84-1.91-1.46-2.765-.61-.854-1.53-1.563-2.3-2.182-.14-.116-.33-.236-.54-.268-.21-.032-.42-.08-.61-.103-.23-.03-.49-.045-.73-.09-.23-.045-.45-.33-.56-.39-.01-.01-.03-.01-.06-.01-.08 0-.2.022-.27.027-.1 0-.2.01-.29.02-.26.03-.52.08-.78.14-.25.06-.53.15-.82.27-.02.01-.07.03-.14.05-.04.02-.09.04-.13.06l-.05.02c-1.01.53-1.97 1.5-2.72 2.42-.75.92-1.04 1.97-1.06 2.96-.01 1.05-.04 2.27.11 3.48.16 1.21.42 2.44.86 3.48.07.16.16.34.23.52.07.17.15.35.23.52.59 1.22 1.36 2.3 2.32 3.26.96.96 2.16 1.65 3.48 2.14.27.09.55.15.86.15.05 0 .09 0 .14-.01.35-.02.71-.09 1.04-.18.21-.06.43-.12.62-.19s.39-.12.54-.18l.05-.03.06-.02.07-.03c.88-.37 1.53-.88 1.95-1.55.42-.67.73-1.4.85-2.14.19-1.18.23-2.49.21-3.82-.02-1.34-.25-2.68-.51-3.91-.06-.29-.12-.59-.21-.87zm-1.753 8.234c-.064.396-.246.845-.524 1.293-.15.25-.45.46-.88.64l-.08.03h-.02l-.08.02c-.14.04-.28.09-.42.14-.13.05-.26.08-.4.11-.25.07-.45.1-.59.11h-.01c-.02 0-.04 0-.05-.01-1.1-.41-1.99-.95-2.65-1.61-.78-.78-1.41-1.67-1.87-2.64-.05-.11-.1-.23-.15-.35-.06-.16-.12-.31-.18-.45l-.07-.15c-.3-.72-.54-1.69-.69-2.88-.13-.99-.11-2.06-.09-3.01v-.13c.01-.6.19-1.12.54-1.54.71-.86 1.4-1.5 1.97-1.82l.05-.02.04-.02.03-.01.08-.03c.17-.07.33-.12.47-.15l.27-.06c.22.11.48.21.77.27.22.04.46.07.69.09l.19.02c.06 0 .12.02.18.03.62.49 1.32 1.05 1.7 1.58.49.68.88 1.43 1.17 2.21.09.24.17.49.25.74.06.17.09.36.13.53l.03.13c.21.96.44 2.23.46 3.47.03 1.43-.03 2.52-.17 3.41z"/><path fill="#9D005D" d="M100.552 79.557c1.22-.282 2.466-.534 3.73-.77.535-.098 1.082-.208 1.64-.315.56-.108 1.67-.244 1.686-.3 0 0-.31-.207-.515-.234-.11-.015-.218-.022-.326-.022-.095 0-.186.005-.277.018-.098.014-.208.032-.33.06-.12.028-.27.033-.365.067-.042.02-.09.05-.127.05-.036.01-.087.01-.128.02-.065.02-.15.05-.237.07s-.165.02-.238.03c-.143.02-.287.03-.433.03h-.164c-.204-.01-.547-.06-.59-.13-.022-.03.013-.21.01-.31 0-.09.002-.2.012-.3.018-.19.034-.4.04-.61.007-.21.026-.44.005-.61-.032-.26-.125-.58-.168-.87-.043-.29-.11-.59-.168-.88-.21-1-.4-2.04-.63-3.01-.24-.97-.67-1.91-1.29-2.76-.54-.73-1.3-1.22-2.26-1.45-.76-.18-1.57-.32-2.33-.32-.21 0-.41.01-.6.03-.09.01-.19.03-.28.03h-.06c-.09 0-.17.01-.24.02-.03.01-.07.01-.13.01s-.1 0-.13.01l-.14.03-.14.03c-1.07.21-1.95.67-2.63 1.37-.68.7-1.27 1.44-1.71 2.19l-.3.51c-.1.16-.24.47-.26.47l-.32-1c-.11-.32-.2-.65-.28-.98-.16-.65-.29-1.31-.39-1.97-.11-.66-.14-1.4-.23-2.02-.02-.15-.06-.34-.06-.52s.03-.39.02-.54c0-.05-.01-.14-.01-.23s.02-.17.03-.24c.03-.26.03-.57.03-.85.01-.28-.02-.56-.08-.82-.03-.1-.06-.2-.1-.3-.04-.1-.08-.19-.13-.29-.67.13-1.01.2-1.68.34-3.65 1.2-5.46 1.86-9.02 3.29l-.01.4c.23-.01.47-.03.71-.07.24-.04.48-.1.72-.18.25-.07.5-.15.75-.25.25-.09.59-.29.78-.3.39 0 1 .51 1.33.95.33.45.59.94.8 1.44.08.2.16.39.23.59.07.2.13.4.19.61.04.13.07.25.12.37.05.12.08.26.13.36.18.42.49.92.67 1.39.18.48.33.98.48 1.49.13.47.25.94.35 1.42.11.48.23.96.32 1.43s.18.96.29 1.44c.11.48.23.95.36 1.42.2.69.44 1.38.72 2.06.28.68 1.12 1.74 1.08 1.96-.01.07-.52.33-.79.45s-.56.21-.83.3c-.28.09-.55.22-.81.34-.26.13-.52.28-.77.47l.19.24c.51-.18 1.04-.35 1.59-.52.54-.17 1.09-.34 1.63-.52.37-.12.76-.24 1.15-.36.39-.12.78-.22 1.16-.32l1.66-.43c.55-.15 1.09-.28 1.62-.4.12-.03.23-.06.34-.08.11-.03.22-.05.34-.08l.34-.08.34-.08.32-.45c-.07-.01-.14-.01-.21-.01-.19 0-.37.01-.55.02-.25.02-.51.04-.74.08-.1.02-.2.04-.3.05-.1.01-.2.03-.3.06-.14.03-.29.06-.44.09-.12.02-.31.07-.4.07-.02 0-.03 0-.04-.01-.08-.05-.16-.62-.24-.92s-.16-.64-.25-.95c-.09-.31-.2-.64-.29-.97-.1-.32-.18-.65-.26-.98-.31-1.27-.44-2.55-.39-3.83.04-1.28.66-2.93 1.7-3.65.07-.05.19-.08.26-.11s.15-.05.23-.06c.2-.04.39-.06.6-.06.27 0 .54.04.81.12.47.14.92.32 1.22.56.5.41.89 1.09 1.15 1.77.26.68.47 1.4.61 2.17.05.25.09.5.13.76.03.27.08.52.12.77.05.27.09.53.13.78s.07.5.12.75c.07.4.16.79.26 1.18.1.39.4.99.36 1.1-.02.04-.33.14-.5.19-.17.06-.36.09-.5.16-.04.02-.09.05-.14.06-.05.01-.1.04-.14.06-.17.08-.43.15-.64.23-.21.09-.58.24-.62.35 0 .02.03.08.07.1.03.03.09.08.13.09.01 0 .04 0 .06.01.01.01.04.03.06.03.03 0 .06.01.1.01.78 0 2.34-.72 3.5-.99z"/><path fill="#F291BC" d="M107.394 75.662c-.21-.028-.422-.042-.627-.042-.195 0-.387.012-.576.038 0 0-.01 0-.01.002-.02-.107-.04-.216-.07-.328-.02-.09-.04-.183-.05-.27-.04-.293-.1-.588-.16-.874l-.02-.13c-.05-.286-.11-.578-.17-.87-.14-.733-.29-1.492-.47-2.23-.32-1.302-.88-2.502-1.66-3.57-.85-1.16-2.09-1.96-3.57-2.322-1.05-.257-2.02-.387-2.87-.387-.29 0-.58.01-.86.04h-.05c-.19 0-.35.01-.51.03-.14 0-.3.01-.48.05h-.03l-.07.01-.12.02c-1.27.25-2.36.76-3.27 1.51-.03-.36-.07-.71-.12-1.03l-.01-.07c0-.05-.01-.1-.02-.15l.01-.05c.01-.15.03-.35.01-.57.05-.39.06-.71.06-.98l.01-.17c.01-.5-.04-.96-.14-1.4-.04-.19-.1-.39-.19-.61-.07-.19-.15-.36-.25-.55l-.8-1.5-1.66.32c-.68.13-1.02.2-1.7.34l-.12.03-.13.04c-3.67 1.21-5.55 1.89-9.15 3.34l-1.41.56-.03 1.51c-.3-.14-.62-.26-.94-.36-.81-.24-1.75-.36-2.8-.36-.99 0-2.11.1-3.3.31-1.92.34-3.82.9-5.66 1.68l-.83.35c-.33.14-.64.29-.93.44-.6.3-1.18.59-1.74.92l-.18.11c-.52.3-1.12.64-1.63 1.08-2.35 1.96-3.94 4.98-4.25 8.09-.27 2.72.24 5.32 1.51 7.73l.05.09.03.05.05.1.08.14.12.21c.68 1.16 1.68 2.23 2.9 3.11 1.15.84 2.28 1.5 3.35 1.95.07.03.15.06.23.1l.13.05c.15.08.36.18.63.26.37.11.73.13.98.14.06 0 .11 0 .17.01.13.01.26.03.38.05l.3.04c.72.09 1.48.12 2.03.14H67c.88 0 1.74-.19 2.55-.56l.135-.06.05-.03.02-.01.06-.03.08-.04c.12-.02.26-.04.384-.05.38-.05.82-.11 1.26-.21.79-.18 1.58-.44 2.35-.76.65-.27 1.24-.56 1.8-.9.51-.3 1.03-.66 1.56-1.05 1.88-1.42 3.26-3.15 4.12-5.15.8-1.87 1.3-3.78 1.49-5.7.04-.36.05-.7.05-1.02V76c0-.21 0-.42-.01-.6-.02-.48-.1-.923-.18-1.32l-.03-.14c-.08-.48-.21-.97-.36-1.454-.53-1.66-1.39-3.14-2.55-4.39l-.1-.11c.26-.05.53-.11.83-.2.18-.05.35-.11.53-.17.13.2.24.43.35.68l.2.48c.06.16.1.31.15.46.06.2.12.4.2.59.05.16.1.3.15.42.1.227.22.46.35.71.11.21.22.43.27.567.15.403.29.844.42 1.31.12.42.23.854.33 1.3l.11.49c.07.293.14.586.19.87l.07.38c.07.37.14.76.23 1.13.12.553.25 1.06.38 1.53.22.77.49 1.546.81 2.31l-.17.08c-.44.205-.83.44-1.2.71L81.9 83.1l1.49 1.87.1.12.095.115 1.016 1.27 1.54-.535c.49-.17 1-.336 1.52-.497l.37-.115c.43-.132.86-.27 1.29-.41.35-.113.72-.23 1.09-.34.37-.11.73-.21 1.08-.3.56-.143 1.12-.29 1.67-.434.53-.14 1.04-.27 1.55-.384l.12-.03.23-.06.19-.04.14-.03.22-.05.14-.03.2-.045.14-.03.88-.197.11-.147h.06c.84 0 1.74-.31 2.7-.64.47-.16.96-.33 1.32-.41 1.1-.25 2.28-.5 3.63-.75.35-.07.72-.14 1.09-.21l.57-.11c.2-.04.47-.08.73-.12 1.07-.16 2.29-.35 2.72-1.76l.5-1.63-1.41-.95c-.34-.23-.88-.52-1.49-.6zM96.88 80.51c-.013-.008-.04-.005-.058-.006-.042-.006-.102-.06-.132-.086-.032-.027-.07-.083-.062-.1.04-.108.403-.266.614-.353.21-.084.468-.146.64-.227.04-.02.088-.05.138-.06.048-.01.096-.043.138-.063.136-.066.333-.104.5-.16.167-.053.48-.15.496-.19.04-.105-.26-.705-.36-1.095-.098-.39-.186-.78-.26-1.173-.048-.25-.088-.5-.124-.75-.035-.25-.077-.508-.13-.78-.046-.248-.087-.505-.124-.767-.038-.262-.08-.518-.127-.767-.15-.767-.35-1.493-.62-2.172-.27-.68-.66-1.36-1.16-1.77-.29-.24-.75-.42-1.22-.56-.27-.08-.55-.12-.82-.12-.2 0-.4.02-.6.07-.08.02-.16.04-.23.07-.08.03-.2.06-.27.11-1.04.73-1.66 2.37-1.71 3.65-.05 1.28.08 2.56.39 3.84.08.33.16.66.25.98.09.33.2.66.29.97.08.31.16.64.24.95s.17.87.24.92c0 .01.02.01.04.01.09 0 .28-.04.4-.06.15-.02.29-.05.44-.09.09-.02.19-.04.29-.05.1-.01.2-.03.29-.05.23-.04.49-.06.74-.08.18-.01.36-.02.54-.02.07 0 .14 0 .21.01l-.32.46-.34.08-.35.08c-.12.03-.24.05-.35.08l-.35.08c-.53.12-1.07.26-1.62.4-.55.15-1.1.29-1.66.43-.38.1-.77.21-1.16.32-.4.12-.79.24-1.16.36-.54.17-1.09.34-1.64.51-.55.17-1.08.34-1.59.52-.08-.09-.12-.14-.19-.23.25-.19.51-.34.77-.46s.54-.25.81-.34c.28-.09.57-.19.83-.31s.77-.38.79-.45c.04-.22-.79-1.27-1.08-1.95-.28-.68-.52-1.36-.72-2.06-.13-.47-.25-.94-.35-1.42-.11-.47-.2-.97-.29-1.44-.09-.46-.21-.95-.32-1.42-.11-.48-.23-.95-.36-1.42-.14-.51-.3-1-.47-1.48-.18-.48-.49-.97-.68-1.39-.05-.1-.08-.24-.13-.36-.05-.11-.09-.24-.12-.36-.06-.2-.12-.4-.19-.6-.07-.2-.16-.39-.24-.59-.21-.5-.47-.99-.8-1.43-.33-.44-.94-.95-1.33-.95h-.01c-.19 0-.53.2-.78.3-.25.1-.5.18-.75.26-.24.08-.49.14-.73.18-.24.04-.48.07-.71.07l.01-.4c3.57-1.43 5.37-2.08 9.02-3.29.67-.14 1.01-.2 1.68-.33.05.09.09.19.13.29.04.1.07.2.09.3.06.27.09.54.08.83-.01.29 0 .59-.04.86-.01.06-.02.14-.03.23 0 .09.01.18.01.23.01.15-.02.35-.02.54 0 .18.04.37.06.52.1.62.12 1.35.23 2.01.1.66.23 1.32.39 1.98.08.33.17.66.28.98l.32 1c.01 0 .16-.3.25-.47.09-.16.19-.34.29-.51.43-.75 1.02-1.48 1.7-2.18.68-.7 1.55-1.16 2.62-1.37.05-.01.1-.02.14-.03l.14-.03c.03-.01.07-.01.12-.01.06 0 .1 0 .13-.01.07-.02.15-.02.23-.02h.05c.09 0 .19-.02.28-.03.19-.02.39-.03.6-.03.75 0 1.57.14 2.32.33.96.24 1.72.73 2.26 1.45.62.85 1.04 1.79 1.28 2.76.23.97.42 2.01.63 3.02.06.28.12.59.16.88.05.3.14.61.17.87.02.17 0 .4 0 .62-.01.21-.02.42-.04.61-.01.11-.01.21-.01.31s-.04.27-.01.31c.04.07.38.12.59.14l.16.01c.15 0 .29-.01.43-.03l.24-.03.24-.06c.04-.01.09-.02.13-.02.04-.01.08-.04.13-.05.09-.03.25-.04.37-.07.12-.03.23-.04.33-.06.09-.01.18-.02.27-.02.11 0 .21.01.32.02.2.03.51.24.51.24-.02.05-1.13.19-1.69.3-.56.11-1.11.22-1.64.32-1.27.24-2.51.49-3.73.77-1.17.27-2.73.99-3.51.99h-.1c-.02 0-.05-.02-.07-.03zm-.518-2.666c-.198.082-.452.188-.717.34h-.024c-.25 0-.5.014-.75.036l-.13.012c-.06.006-.12.01-.18.018-.04-.15-.09-.302-.14-.455l-.12-.42c-.08-.3-.16-.596-.23-.896-.25-1.07-.37-2.15-.33-3.21.03-.65.31-1.34.55-1.68.04 0 .07.01.11.02.27.08.4.13.46.16.08.09.26.34.44.8.21.54.38 1.13.5 1.77.04.21.08.44.11.66.04.29.09.59.14.87.05.23.08.45.11.66.04.28.09.57.14.86l.09.42zM80.51 76.396c.002.265-.013.526-.038.777-.164 1.65-.596 3.34-1.32 5.023-.723 1.684-1.878 3.077-3.398 4.227-.414.313-.863.622-1.342.905-.48.284-.98.533-1.514.755-.648.27-1.307.485-1.98.64-.672.157-1.452.185-1.968.32-.04.01-.083.044-.113.07-.03.025-.07.05-.115.07-.046.02-.086.04-.12.056l-.122.05c-.51.23-1.04.35-1.59.35h-.134c-.598-.02-1.22-.04-1.796-.12-.242-.03-.503-.08-.758-.11-.256-.03-.56-.02-.746-.07-.102-.03-.238-.12-.368-.17-.128-.06-.253-.1-.355-.15-1.042-.44-2.032-1.07-2.898-1.7-.867-.63-1.698-1.45-2.265-2.41l-.067-.13-.082-.15-.06-.13-.07-.13c-1.04-1.98-1.49-4.12-1.26-6.43.24-2.32 1.4-4.85 3.45-6.57.42-.35.99-.66 1.5-.97.52-.3 1.07-.58 1.61-.85.26-.13.53-.26.81-.38l.82-.35c1.69-.72 3.42-1.23 5.17-1.53.96-.17 1.96-.28 2.9-.28.78 0 1.52.07 2.15.26.54.15 1.06.43 1.56.75v.25l.39-.02c.61.43 1.17.94 1.64 1.45.95 1.03 1.62 2.21 2.05 3.53.13.38.22.77.29 1.16.07.38.16.8.17 1.19.01.22 0 .5 0 .77z"/><path fill="#9D005D" d="M146.027 79.425c.145.02.294.05.44.075.146.026.317.03.48.05.578.067 1.228.213 1.852.31.62.1 1.25.213 1.88.342l.56.117c.18.03.37.07.56.11.13-.05.19-.07.33-.12-.23-.23-.5-.39-.8-.48s-.61-.18-.93-.24c-.03-.01-.06-.01-.09-.02s-.09-.02-.13-.03c-.19-.05-.39-.12-.59-.19-.21-.06-.57-.18-.59-.25-.04-.12.4-.88.58-1.34.18-.46.31-.95.45-1.4.04-.16.1-.32.13-.48l.09-.48c.19-.96.27-1.91.26-2.87-.01-.96-.12-1.95-.41-2.8-.28-.81-.91-1.6-1.72-2.28-.82-.68-1.74-1.09-2.76-1.25l-.19-.03s-.13-.03-.18-.03h-.06c-.85 0-1.74.42-2.38.94-.66.53-1.2 1.18-1.66 1.76-.14.17-.29.36-.4.54-.12.19-.23.37-.33.55l-.23-.03c-.04-.13-.07-.27-.09-.4-.03-.13-.09-.29-.1-.4-.01-.05-.01-.13-.02-.19-.03-.07-.02-.14-.02-.2 0-.29-.11-.65-.19-.98-.09-.33-.32-.65-.45-.91-.18-.36-.46-.84-.96-1.09-.5-.24-1.06-.42-1.64-.54-.19-.04-.37-.07-.54-.09-.18-.03-.35-.07-.5-.09-.1-.02-.2-.02-.3-.02-.53 0-1.06.17-1.48.42-.51.3-.97.65-1.4 1.02-.14.12-.28.23-.4.35-.13.12-.28.22-.4.32-.11.09-.23.19-.36.28-.12.09-.37.25-.39.25s.01-.07.02-.09c.01-.02.02-.05.03-.09v-.15c0-.08 0-.18-.01-.27-.01-.1-.01-.18 0-.27s0-.18-.01-.27c-.01-.09-.01-.18-.01-.27.01-.19.04-.37.1-.54.07-.17.28-.44.27-.46 0 0-.88-.11-1.35-.14-.47-.03-.94-.05-1.39-.07l-.91-.03-.23-.01c-.24 0-.47.01-.69.01-.61.02-1.24.02-1.84.05h-.78c-.41 0-.79.01-1.03.1-.03.01-.07.03-.13.04-.06.02-.12.04-.16.05-.02.01-.05.01-.08.02s-.06.01-.08.02c-.14.03-.3.13-.42.19s-.14.17-.06.31c.68-.01 1.22-.02 1.74-.02.73 0 1.41.01 2.37.03-.04.72-.07 1.46-.1 2.22-.03.76-.05 1.52-.06 2.28-.01.44-.01.89-.02 1.35-.01.45.01.92.01 1.37.01.65 0 1.35.02 2.02.03.68.24 1.82.1 2.03-.04.06-.42.11-.64.15-.22.04-.44.07-.63.09-.21.03-.44.08-.67.12s-.58.09-.63.16c-.01.01-.02.04-.04.06-.02.02-.03.04-.03.05v.11c.02.04.05.08.07.11.02.03.06.07.1.08.14.03.3.04.48.04.41 0 .9-.06 1.32-.07.62-.02 1.26-.05 1.92-.07.24-.01.48-.01.72-.01h.6c.44.01.91 0 1.37.01.12 0 .25.01.37.01.12.01.25.01.37.02l.24.01c.09 0 .19 0 .28.02.09.01.19.04.27.04.09.01.16.01.24.02.04-.25 0-.42-.12-.5-.12-.08-.29-.15-.48-.17l-.14-.01c-.04 0-.09-.01-.13-.01h-.03c-.04.01-.1.02-.14.02l-.15-.01c-.13-.01-.25-.03-.37-.07-.13-.04-.3-.12-.33-.19-.11-.26 0-.94.01-1.43s.02-.98.05-1.49l.02-.36.02-.36c.08-1.26.38-2.53.81-3.73.43-1.2 1.28-2.2 2.48-2.99.05-.04.11-.07.16-.09.06-.01.12-.05.17-.05h.09c.02 0 .05 0 .07-.01h.16c.19.02.35.06.49.13.14.08.24.19.31.35.27.61.43 1.23.49 1.85.05.62.05 1.24 0 1.88-.04.44-.09.89-.15 1.34-.06.45-.15.9-.23 1.33-.07.43-.13.89-.21 1.33-.07.45-.13.9-.17 1.34l-.02.27-.02.27c-.01.08-.01.17-.01.27 0 .09 0 .18-.01.27-.9.05-1.35.08-2.24.15-.01.13-.01.19-.02.32.39.04.78.09 1.18.13.39.04.78.07 1.18.11l.81.07c.27.02.55.03.81.04.77.03 1.58.11 2.4.16s1.6.1 2.37.16l.54-.38c-1.08-.24-1.62-.35-2.71-.56.29-.54.5-1.12.65-1.73.15-.61.19-1.51.41-1.82.01-.02.04-.04.05-.08l.01-.08c.18-1.12.56-2.27.97-3.34.4-1.06 1.31-1.92 2.56-2.58.06-.03.11-.06.15-.07.04-.02.1-.03.14-.05.02-.01.05-.01.09-.01h.03l.12.02.18.02c.07.01.13.04.17.06.07.02.16.04.24.07s.17.06.23.1c.02.01.06.04.11.06.06.02.1.04.12.06.47.69.58 1.95.57 2.97-.02 1.03-.09 2.08-.24 3.11-.05.31-.11.62-.17.92-.06.3-.12.61-.17.92-.02.11-.04.21-.07.31-.03.1-.05.2-.07.31-.03.21-.07.41-.11.61-.05.2-.09.4-.12.61l.25.78c-.22.06-.44.09-.68.09h-.12c-.27-.01-.56-.02-.82-.05-.02 0-.04-.01-.05-.01-.01 0-.03-.01-.05-.01-.26-.03-.54-.03-.79-.04h-.05c-.23 0-.47.02-.71.07 0 .05-.01.07-.02.12l.35.05c.11.02.24.02.35.05.09.02.21.06.32.08l.33.05c.47.07.93.13 1.4.19.47.06.95.11 1.4.18zm27.62-5.937c1.236.357 1.855.543 3.088.928.064-.03.097-.042.16-.07-.5-.31-1.01-.592-1.535-.846-.522-.255-1.057-.478-1.602-.676-.83-.3-1.678-.552-2.54-.747-.863-.196-1.7-.372-2.515-.522-.164-.03-.32-.06-.468-.084-.15-.02-.308-.05-.472-.08l.197.33c1.77.5 2.65.76 4.41 1.32-.05.14-.122.29-.217.43-.095.15-.197.3-.306.43-.124.15-.275.29-.405.41-.128.13-.275.29-.426.37-.353.21-.863.43-1.273.72-.412.3-.82.65-1.207.95-.098.08-.214.17-.317.26-.11.1-.21.2-.32.27-.29.19-.62.39-.91.62-.3.23-.57.52-.81.72-.06.05-.13.1-.19.14-.06.05-.11.11-.15.15-.31.33-.71.65-1.07.94-.35.29-1.03.76-1.15.76h-.02c-.11-.06-.51-3.41-1.02-5.05-.52-1.64-2.18-4.55-2.01-4.95.01-.03.38-.08.66-.08.05 0 .11 0 .16.01.27.03.56.06.85.13.07.02.16.04.24.05.08.01.19.05.28.06.04.01.11 0 .18.02.05.01.1.02.14.02h.04l.06-.25c-.8-.27-1.64-.52-2.51-.76-.86-.23-1.73-.46-2.61-.67-.82-.2-1.64-.38-2.47-.54-.83-.16-1.64-.28-2.43-.35l-.08.37c.63.17.94.26 1.56.43.01.01.02.01.04.01h.12c.06.01.09.02.12.03.26.06.45.18.57.35.11.18.14.38.1.58l-.03.14c-.01.05-.07.11-.07.13-.06.27.39 1.13.56 1.69.17.56.33 1.12.49 1.68.33 1.12.65 2.24.95 3.37.31 1.12.65 2.29.83 3.36.04.25.12.54.26.8.14.27.27.57.43.83.03.06.08.12.11.18v.01l.09.2c.13.28.28.55.38.8.1.25.19.63.11.76-.1.17-.62.39-.92.59-.3.21-.62.42-.95.63-1.14.73-2.33 1.4-3.59 1.97-.97.44-2 .66-3.1.66-.33 0-.65-.02-.99-.06l-.16-.26c.03-.01.05-.03.08-.05.02-.01.05-.03.08-.04.19-.11.36-.23.53-.36.16-.12.26-.29.31-.5 0-.04.02-.08.03-.14.01-.05.01-.1-.01-.14-.15-.31-.58-.61-1.01-.82-.43-.21-.89-.36-1.36-.45l-.21-.04c-.07-.01-.15-.03-.25-.05-.35-.05-.72-.08-1.1-.09-.17 0-.33-.01-.49-.01-.2 0-.38.01-.55.04-.31.05-.62.18-.87.33-.26.15-.41.37-.46.67-.01.04-.01.08 0 .12 0 .04 0 .09-.01.13 0 .02 0 .04.01.07.01.02 0 .05.01.06.11.37 1 .91 1.61 1.21.61.3 1.24.51 1.91.64.2.05.41.08.61.11.19.03.4.06.6.08.35.03.7.05 1.06.05.45 0 .91-.02 1.37-.06.82-.07 1.63-.17 2.29-.37 2.74-.85 5.37-2.42 7.55-4.17 2.18-1.75 4.33-3.6 6.41-5.37.11-.1.23-.19.35-.29.11-.09.22-.21.31-.29.67-.65 1.55-1.29 2.34-1.92.78-.63 1.58-1.24 2.4-1.81zm4.253 10.53c-.563-.24-1.078-.375-1.545-.407h-.27c-.357 0-.676.05-.956.16-.36.13-.65.32-.9.58-.24.25-.43.53-.56.84-.15.38-.21.73-.18 1.05.02.33.13.63.3.9.17.27.41.52.72.74.3.23.66.43 1.08.6.51.22.95.34 1.34.38.13.02.26.02.38.02.23 0 .44-.02.63-.06.3-.07.54-.17.74-.32.2-.14.37-.29.52-.44.14-.15.25-.28.33-.4.07-.12.13-.19.17-.22.02-.01.03-.03.05-.07.3-.66.29-1.28-.03-1.85-.33-.58-.95-1.07-1.86-1.46zm20.818-15.538c.018-.21-.02-.396-.11-.565-.09-.17-.22-.327-.4-.464-.175-.14-.38-.26-.604-.38-.435-.22-.9-.43-1.4-.61-.502-.18-1-.3-1.498-.35-.173-.02-.343-.03-.513-.03-.322 0-.64.04-.95.11-.48.11-.918.34-1.308.7-.565.52-1.195 1.12-1.892 1.79-.696.66-1.43 1.37-2.204 2.13-.78.76-1.59 1.56-2.42 2.39-.83.84-1.65 1.68-2.48 2.54-.83.86-1.59 1.76-2.28 2.69-.69.93-1.29 1.96-1.84 2.79-.06.08-.11.15-.13.2-.08.18-.06.34.07.49.13.15.3.27.53.37.15.07.32.12.5.16.18.04.35.07.52.07h.02c.16 0 .3-.02.44-.06.14-.04.25-.13.32-.2 1.49-1.48 3.75-2.71 5.38-3.77 1.62-1.06 3.11-2.02 4.45-2.89 1.35-.87 2.54-1.72 3.55-2.57 1.01-.85 2.16-1.67 3.03-2.49.24-.22.43-.49.58-.69.15-.2.27-.39.37-.57.14-.27.21-.5.23-.71z"/><path fill="#F291BC" d="M200.644 66.85c-.245-.468-.593-.877-1.03-1.216-.266-.21-.584-.413-.96-.605-.528-.28-1.088-.52-1.662-.73-.674-.25-1.354-.41-2.03-.48-.26-.03-.518-.05-.77-.05-.493 0-.984.05-1.458.16-.876.19-1.672.62-2.358 1.25-.562.51-1.19 1.11-1.883 1.77-.733.69-1.476 1.41-2.26 2.18-.785.76-1.6 1.57-2.438 2.41-.837.84-1.67 1.7-2.502 2.56-.048.05-.09.1-.134.15l-3.06-1.89c-.58-.36-1.16-.68-1.74-.96-.58-.28-1.2-.54-1.83-.77-.93-.34-1.87-.62-2.82-.83-.96-.22-1.81-.4-2.61-.54l-.12-.02c-.14-.03-.27-.05-.4-.07l-.43-.08-2.17-.4.02-.08-2.08-.7c-.81-.27-1.67-.53-2.63-.8-.95-.26-1.82-.49-2.68-.7-.86-.21-1.72-.4-2.57-.57-.89-.17-1.78-.3-2.65-.39l-2.06-.2-.33 1.59c-.35-.4-.72-.8-1.16-1.16-1.14-.94-2.44-1.53-3.88-1.75l-.07-.01-.11-.02c-.18-.03-.34-.05-.47-.05h-.12c-1.3 0-2.69.53-3.83 1.45l-.18.15c-.3-.52-.85-1.29-1.82-1.76-.67-.32-1.41-.56-2.19-.72-.23-.04-.45-.08-.66-.11-.05 0-.1-.01-.14-.02-.14-.03-.27-.05-.39-.07-.21-.03-.41-.04-.61-.04-.79 0-1.61.2-2.34.57l-.06-.15-1.34-.17c-.1-.02-.97-.13-1.49-.16-.5-.03-.99-.06-1.47-.07l-.93-.03c-.09-.01-.19-.01-.29-.01-.22 0-.44.01-.66.01h-.1l-.7.01c-.4.01-.79.02-1.17.04h-.67c-.61 0-1.25.02-1.86.26h-.03l-.04.01h-.02c-.44.08-.81.29-1 .4-.63.34-1.06.87-1.25 1.5-.19.65-.11 1.34.24 1.96l.66 1.2 1.37-.02c.66-.01 1.18-.01 1.68-.01-.02.72-.04 1.45-.05 2.18l-.01.72-.02.63c-.01.32 0 .65.01.98l.01.45v.64c0 .48 0 .97.02 1.45v.04l-.06.02c-.55.1-1.37.24-1.96 1.04l-.03.05-.01.01c-.31.41-.48.9-.48 1.42v.69l.31.56c.09.15.17.27.26.38.35.45.86.77 1.42.89.3.06.61.09.97.09.29 0 .62-.02.94-.04.16-.02.32-.03.47-.03l.64-.03 1.25-.05c.22-.01.44-.01.66-.01.19 0 .38 0 .57.01h.59c.25 0 .5 0 .75.01.07 0 .15 0 .22.01h.08l.21.01.16.01.24.01h.09c.15.03.29.05.43.06h.1l.14.01 2.23.14.03-.33.45.04h.08l.71.06c.28.03.56.04.84.05l.08.01c.44.02.9.05 1.37.08l.99.07.62.04-.03.21 2.26.31.25.03.08.02.19.02c.15.04.31.07.47.1l.22.03.11.01c.48.07.95.13 1.42.2l.6.08.78.1.26.04.11.02c.15.03.32.05.5.06l.11.01c.3.04.62.1.94.16l.53.09c-.32-.04-.63-.06-.88-.07-.2-.01-.4-.02-.59-.02-.34 0-.63.02-.9.06-.56.09-1.13.3-1.68.62-.84.49-1.39 1.3-1.56 2.26-.03.18-.04.34-.03.51-.01.19 0 .38.03.57.01.12.04.23.07.34.1.35.43 1.47 2.81 2.61.78.37 1.61.65 2.45.82.23.05.47.09.7.12l.11.02c.2.03.41.06.63.08.4.03.83.05 1.27.05.49 0 1.02-.02 1.56-.07.87-.08 1.88-.19 2.76-.46 3.5-1.08 6.45-3.08 8.32-4.57 1.99-1.6 3.95-3.27 5.84-4.88l.63-.54.2-.16.11-.1c.14-.12.27-.24.39-.36l.05-.06c.39-.38.9-.77 1.44-1.2.26-.19.51-.39.75-.59.46-.37.93-.74 1.39-1.08.63.19 1.17.35 1.97.6l.83.26.79-.35.17-.08 2.31-1.06c-.46.54-.91 1.09-1.33 1.65-.49.66-.93 1.36-1.32 1.97-.2.32-.39.62-.58.91-.11.14-.23.33-.34.59-.12.26-.18.54-.21.81-.1-.01-.2-.01-.3-.01-.63 0-1.22.1-1.75.29-.67.25-1.26.63-1.74 1.13-.45.47-.8 1-1.04 1.59-.28.7-.39 1.41-.33 2.1.07.7.29 1.34.66 1.93.33.5.76.96 1.3 1.35.46.33.97.62 1.54.86.73.31 1.39.49 2.02.55.22.02.41.03.6.03.41 0 .8-.05 1.16-.13.6-.14 1.12-.37 1.57-.7.32-.23.59-.47.83-.72.23-.24.4-.45.55-.67.17-.19.32-.4.43-.64.6-1.3.58-2.66-.05-3.84.34-.15.66-.37.93-.65.95-.94 2.42-1.85 3.72-2.66.46-.29.9-.56 1.3-.82 1.52-1 2.93-1.9 4.21-2.73l.24-.15c1.49-.97 2.73-1.86 3.77-2.74.37-.31.75-.62 1.13-.92.67-.54 1.38-1.09 1.99-1.67.38-.37.66-.75.85-1 .23-.31.41-.6.56-.87.28-.54.44-1.08.49-1.6.04-.64-.08-1.27-.37-1.81zM168.6 77.524c-.114.094-.233.19-.346.285-2.082 1.77-4.23 3.62-6.414 5.37-2.186 1.75-4.815 3.32-7.555 4.17-.653.2-1.463.29-2.288.37-.458.04-.918.06-1.37.06-.36 0-.717-.02-1.063-.05-.207-.02-.41-.06-.605-.08-.2-.03-.41-.07-.61-.11-.67-.14-1.3-.35-1.91-.64-.61-.3-1.51-.84-1.61-1.21-.01-.01 0-.04-.01-.06s-.01-.05-.01-.07c0-.05.01-.09 0-.13-.01-.05-.01-.09 0-.13.05-.29.2-.52.45-.67.25-.15.56-.28.87-.33.16-.03.35-.04.55-.04.16 0 .32 0 .49.01.37.02.75.04 1.09.1.09.01.18.03.25.05.07.01.14.02.21.04.47.09.92.24 1.35.45.43.21.86.51 1.02.81.02.03.01.09 0 .14l-.03.14c-.05.2-.15.37-.31.5-.16.12-.34.24-.53.35-.03.01-.06.03-.08.04-.03.01-.06.03-.09.05l.16.26c.33.04.66.06.99.06 1.1 0 2.13-.22 3.1-.66 1.25-.57 2.45-1.24 3.58-1.97.33-.21.65-.42.95-.62.3-.2.81-.42.92-.59.07-.13-.02-.51-.12-.76-.1-.25-.25-.52-.38-.79-.03-.07-.06-.14-.1-.2v-.01l-.11-.18c-.16-.26-.3-.56-.44-.83-.14-.26-.21-.55-.25-.8-.18-1.07-.53-2.23-.83-3.36-.31-1.12-.63-2.24-.95-3.36-.16-.56-.33-1.11-.5-1.68-.17-.56-.62-1.42-.56-1.69.01-.02.06-.08.07-.13.01-.05.02-.1.03-.14.05-.21.02-.4-.1-.58-.12-.18-.31-.3-.57-.35l-.12-.03-.05-.01h-.12c-.63-.18-.94-.26-1.57-.43l.07-.38c.79.08 1.6.19 2.42.36.83.16 1.65.34 2.47.54.88.21 1.74.44 2.61.68.87.24 1.7.49 2.51.76-.03.09-.04.15-.07.24h-.05c-.05 0-.09-.01-.15-.03-.06-.02-.13-.01-.18-.02-.09 0-.2-.04-.28-.06-.08-.02-.16-.03-.24-.05-.28-.07-.57-.1-.85-.13-.04-.01-.1-.01-.16-.01-.28 0-.65.05-.66.08-.17.4 1.49 3.31 2.01 4.95.51 1.64.91 5 1.02 5.05v.01c.12 0 .8-.47 1.15-.75.36-.3.76-.61 1.07-.94.04-.05.09-.1.15-.15.06-.05.13-.1.19-.14.24-.2.52-.5.81-.72.29-.23.61-.43.91-.62.1-.07.21-.16.31-.26s.22-.19.32-.26c.39-.3.79-.65 1.2-.94.41-.29.92-.51 1.28-.72.15-.08.3-.24.43-.37.13-.12.28-.25.4-.41.1-.12.21-.28.3-.43.1-.14.17-.29.22-.43-1.76-.55-2.64-.81-4.41-1.31l-.2-.33.47.09c.14.02.3.05.47.08.81.15 1.65.33 2.51.53.86.19 1.71.44 2.54.74.54.2 1.08.42 1.6.68.52.26 1.03.54 1.53.85-.06.03-.09.04-.16.07-1.23-.38-1.85-.57-3.09-.93-.82.58-1.62 1.18-2.4 1.82-.78.63-1.66 1.27-2.33 1.92-.1.08-.2.19-.31.29zm-25.694 1.474c-.12-.02-.237-.057-.323-.08-.108-.028-.24-.03-.35-.047l-.35-.05.02-.12c.238-.04.476-.07.707-.07h.05c.25.01.523.01.786.04l.055.01c.02 0 .04.01.06.01.26.03.55.04.82.05h.12c.24 0 .46-.02.68-.08l-.25-.78c.04-.21.08-.41.12-.61.04-.19.08-.4.11-.6.02-.1.04-.2.07-.31.03-.1.06-.2.07-.3.05-.31.11-.62.17-.92.06-.3.13-.61.17-.92.15-1.03.22-2.08.24-3.1.02-1.02-.1-2.28-.56-2.97-.01-.02-.06-.04-.11-.06s-.09-.05-.11-.06c-.05-.04-.15-.06-.23-.1s-.17-.04-.23-.06c-.04-.02-.1-.05-.17-.06l-.18-.02-.12-.02h-.03c-.04 0-.07.01-.09.02-.04.02-.1.03-.14.05-.04.02-.09.04-.15.07-1.25.67-2.15 1.52-2.56 2.59-.41 1.07-.79 2.22-.97 3.34l-.01.08c0 .03-.03.06-.04.08-.21.31-.26 1.21-.4 1.82-.15.61-.36 1.18-.65 1.73 1.09.22 1.63.33 2.71.57l-.54.37c-.77-.06-1.56-.11-2.37-.16s-1.63-.12-2.4-.15c-.26-.01-.54-.02-.81-.04l-.81-.07c-.39-.03-.78-.06-1.18-.1-.39-.04-.79-.08-1.18-.13.01-.13.01-.19.02-.31.9-.07 1.35-.1 2.25-.16.01-.08.01-.17.01-.27-.01-.09 0-.18.01-.27l.02-.26c.01-.09.01-.18.02-.27.03-.44.09-.89.16-1.33.07-.44.13-.9.2-1.33.08-.43.17-.88.23-1.33.06-.45.12-.9.15-1.34.06-.63.06-1.26 0-1.88-.05-.61-.21-1.23-.49-1.84-.07-.15-.18-.27-.32-.34s-.3-.11-.49-.13h-.07c-.03 0-.06.01-.09.01l-.06.01h-.1c-.05.01-.11.04-.17.05-.06.02-.11.05-.17.09-1.2.79-2.05 1.79-2.48 2.99-.43 1.2-.72 2.47-.81 3.73l-.01.36c0 .12-.01.24-.02.37-.02.51-.04 1.01-.05 1.49-.01.49-.12 1.17-.01 1.43.03.07.2.15.33.19.12.04.24.06.36.07h.16c.04 0 .1-.02.14-.02h.02c.03 0 .08.01.12.01.05 0 .1 0 .14.01.19.02.36.09.47.17.12.08.16.25.12.5 0 .01 0 .02-.01.03l-.23-.02c-.09 0-.19-.03-.28-.04-.08-.01-.19-.01-.28-.02-.08 0-.16-.01-.23-.01-.13-.01-.25-.01-.37-.02l-.37-.02c-.46-.01-.93 0-1.37-.01h-.61c-.24 0-.48 0-.72.01-.66.02-1.3.05-1.92.07-.42.02-.91.07-1.32.07-.18 0-.34-.01-.48-.04-.04-.01-.08-.05-.11-.08-.02-.03-.05-.07-.07-.11v-.11c0-.01.01-.03.04-.05.02-.02.03-.05.04-.06.05-.07.41-.12.63-.16s.45-.09.67-.12c.19-.03.41-.05.63-.09.22-.04.59-.09.63-.15.14-.21-.07-1.35-.1-2.03-.02-.67-.01-1.37-.02-2.03 0-.45-.02-.92-.01-1.37.01-.45.01-.9.02-1.35.01-.76.03-1.52.06-2.27.02-.75.06-1.5.1-2.21-.96-.02-1.64-.03-2.37-.03-.52 0-1.06 0-1.74.01-.08-.15-.06-.25.06-.32s.29-.17.42-.19c.02 0 .06 0 .08-.02.03-.01.06-.01.08-.02.04-.01.11-.03.16-.05.05-.01.1-.03.12-.04.24-.09.62-.1 1.03-.1h.77c.61-.03 1.23-.03 1.84-.05.22 0 .45-.01.69-.01l.23.01.91.03c.46.01.92.04 1.4.07.47.03 1.35.14 1.35.14.01.02-.2.3-.27.46-.06.17-.1.34-.1.53-.01.09-.01.18 0 .27.01.1.02.19.01.28s0 .17.01.27.01.19.01.27l-.01.07v.08c0 .05-.01.08-.02.1-.01.02-.02.09-.02.09h.01c.03 0 .27-.16.39-.25.13-.09.25-.19.36-.27.13-.1.28-.21.4-.32.13-.12.27-.23.4-.35.43-.36.89-.72 1.4-1.02.43-.25.96-.42 1.48-.42.1 0 .2.01.3.02.15.02.33.07.5.09.18.03.36.06.55.09.58.12 1.14.3 1.64.54.5.24.78.73.96 1.09.13.26.36.59.45.91.08.33.19.7.19.98.01.06 0 .13.02.2s.02.14.02.2c.01.11.07.27.1.4.02.13.06.26.09.39l.24.03c.11-.18.21-.36.33-.55.12-.19.27-.37.4-.54.46-.58 1.01-1.24 1.66-1.77.64-.52 1.54-.94 2.38-.94h.06c.05 0 .12.02.18.02l.19.03c1.02.16 1.94.58 2.76 1.25.81.68 1.44 1.46 1.72 2.27.29.86.39 1.84.41 2.8.01.96-.07 1.92-.26 2.87l-.1.48c-.03.16-.08.32-.13.48-.14.44-.27.94-.45 1.4-.18.46-.62 1.22-.58 1.34.02.06.38.18.58.24.2.07.4.14.59.19l.13.03.09.02c.31.07.62.14.92.24s.56.26.79.48c-.14.05-.2.07-.33.12-.2-.04-.39-.08-.57-.12-.18-.04-.37-.07-.56-.11-.63-.13-1.26-.24-1.88-.34-.62-.1-1.27-.24-1.85-.31-.17-.02-.34-.02-.48-.05l-.44-.07c-.45-.07-.93-.12-1.39-.18-.46-.06-.93-.13-1.39-.2-.1-.01-.21-.02-.34-.04zm.666-8.19c.002.077.002.16 0 .244-.017 1-.088 1.943-.216 2.81-.038.26-.093.527-.146.785-.07.344-.132.684-.187 1.03-.028.098-.05.187-.07.274l-.694-.15c-.08-.01-.14-.03-.21-.04l.06-.38c.01-.12.04-.28.06-.4.15-.29.23-.57.26-.8v-.05c.13-.79.4-1.69.84-2.85.06-.16.16-.32.28-.46zm-10.317-.205l-.006.065c-.04.4-.09.805-.14 1.213-.04.29-.1.58-.15.87l-.07.4c-.04.23-.08.48-.12.73-.03.21-.06.41-.1.61-.04.22-.07.43-.1.64-.03 0-.05.01-.07.01l.03-.76.01-.22v-.13l.01-.16v-.16c.06-.96.29-2 .66-3.07zm16.964 11.85l.24.05.31.063.11.023.44.09.66.14.63-.24.14-.05.19-.07 3.41-1.28-2.62-2.53c-.48-.47-1.04-.81-1.66-1.01l.1-.35.07-.26.03-.09c.06-.21.12-.42.16-.62l.04-.25.05-.23c.21-1.1.31-2.23.3-3.34-.01-.78-.08-1.48-.19-2.13.26.07.47.13.68.19.09.36.23.71.38 1.07.07.17.14.35.19.5.16.55.33 1.1.49 1.65.32 1.1.64 2.21.94 3.31l.17.63c.24.86.48 1.75.61 2.51.09.53.25 1.02.48 1.46l.09.18c.09.19.19.39.32.61l-.34.22c-1.07.69-2.17 1.3-3.29 1.8-.08.04-.16.07-.25.1-.48-.89-1.37-1.47-2.04-1.79-.52-.25-1.07-.43-1.64-.57.25.05.51.09.76.14zm14.98-10.87l.59.985.1.173.09.16.47.79.88.25c.13.04.26.08.39.11l-.18.15c-.14.12-.28.23-.42.33-.19.15-.37.29-.53.44v.01h.01l-.14.09c-.28.18-.59.38-.9.62-.15.12-.29.23-.41.35-.12-.57-.25-1.11-.4-1.57-.18-.56-.45-1.2-.74-1.85l.9-.1.24-.9zm32.33-1.127c-.87.818-2.02 1.644-3.03 2.495-1.02.85-2.21 1.71-3.55 2.58-1.35.87-2.84 1.83-4.46 2.9s-3.89 2.3-5.38 3.78c-.07.07-.18.16-.32.21-.14.04-.28.06-.44.06h-.03c-.17 0-.35-.02-.52-.06-.18-.04-.35-.09-.51-.16-.23-.09-.4-.22-.53-.36-.13-.14-.15-.31-.07-.49.02-.05.07-.11.12-.19.55-.83 1.14-1.86 1.84-2.79.69-.93 1.44-1.82 2.27-2.68.82-.86 1.65-1.7 2.48-2.54.83-.83 1.63-1.63 2.41-2.39.77-.75 1.5-1.46 2.2-2.12.7-.66 1.33-1.26 1.89-1.78.39-.36.83-.59 1.31-.7.31-.07.63-.1.95-.1.17 0 .34.01.51.03.5.06 1 .18 1.5.36.5.19.97.39 1.4.61.23.12.43.25.61.38.18.14.31.3.4.47.08.17.12.35.1.56-.02.21-.09.45-.23.71-.1.18-.22.38-.37.58-.15.2-.34.47-.58.7zm-17.75 16.88c-.02.033-.04.057-.05.068-.04.023-.1.095-.18.214-.08.12-.19.256-.33.406-.15.15-.32.298-.52.444-.2.145-.45.25-.75.32-.19.045-.41.067-.64.067-.13 0-.26-.007-.39-.02-.39-.036-.83-.16-1.34-.377-.42-.178-.78-.38-1.09-.6-.31-.224-.55-.47-.72-.742-.17-.27-.28-.57-.31-.895-.03-.32.02-.67.17-1.05.12-.31.31-.59.55-.84.24-.25.54-.44.89-.57.28-.1.6-.15.95-.15.08 0 .18.01.27.01.46.03.98.17 1.54.41.91.39 1.53.88 1.85 1.46.32.58.33 1.2.03 1.86z"/><path opacity=".2" fill="#FFF" d="M91.595 141.396s-26.28-35.945 6.507-22.753c0 0 1.72 5.167-6.507 1.543 0 0-14.41-7.57 0 21.21zm50.513-1.54s-18.885-25.83 4.676-16.35c0 0 1.236 3.713-4.676 1.108 0 0-10.354-5.438 0 15.242z"/><circle opacity=".2" fill="#FFF" cx="114.946" cy="122.147" r="6.763"/><circle opacity=".2" fill="#FFF" cx="161.018" cy="124.882" r="5.356"/><path opacity=".5" fill="#9E1818" d="M100.225 147.556s7.146-22.562 15.377-13.31c0 0 .208 8.522-15.377 13.31zm50.535-3.26s4.598-14.52 9.895-8.565c0 0 .133 5.49-9.896 8.57z"/><path fill="#FFF" d="M105.9 114.743c19.708-10.512 31.156 18.46-4.91 36.753-.56-.284-1.078-.58-1.613-.874-.072-.037-.146-.075-.217-.115-13.84-7.595-20.018-17.746-20.837-25.723-.94 2.73-1.457 5.656-1.457 8.703 0 8.395 3.875 15.89 9.94 20.823 5.68-1.868 18.015-4.478 25.064 4.896 11.082-3.368 19.144-13.607 19.144-25.72 0-14.854-12.12-26.896-27.076-26.896-6.15 0-11.817 2.04-16.362 5.472 2.42-.02 5.225.73 8.33 2.473 6.587 3.707 3.395 3.727 9.994.208z"/></svg>