<svg xmlns="http://www.w3.org/2000/svg" width="250" height="250" viewBox="0 0 250 250"><path fill="#D0D2D3" d="M115.286 214.483s.93-4.558 7.242-2.094c0 0-6.873-3.95-7.242 2.09zm-4.48 0s.34-4.027 2.754-2.71c0 0-1.81-.494-2.754 2.71z"/><path fill="#D9D9D9" d="M175.937 161.57c2.804 0 5.26-1.935 6.738-5.306.154-.352.23-.567.23-.567l.104-.303c.22 3.1.28 5.936.17 8.497-.69 16.01-7.72 16.66-10.5 16.69-.3-.37-.76-.85-1.36-1.23-.04-.19-.08-.38-.13-.55.35-2.32 1.02-8.88-.39-19.54 1.62 1.56 3.31 2.32 5.12 2.32M115.94 32.19L98 32.72v3.064l-5.166-3.473-24.813.45.18 24.38-3.94.17-2.41 1.95.73 27.05 25.79.05 4.46-4.91-.41 3.81c-.94.36-1.84 1.06-2.21 2.41-.06.22-.1.44-.11.66l-.04.05c-1.04-.22-1.98-.32-2.85-.32-3.58 0-5.22 1.88-5.88 2.99-1.87 3.16-.43 7.51.7 10.01-1.33 3.35-2.01 6.83-2.01 10.38 0 .11.01.22.01.32 0 .11-.01.22-.01.34 0 1.48.16 2.99.48 4.48 1.8 9.61 8.76 18.03 18.56 23.02-7.64 3.69-16.33 10.69-21.22 23.99-1.74.47-4.04 1.49-5.48 3.73-1.09 1.69-2.02 4.62-.28 9.05l.33.84.71.56c.33.26 1.44 1.05 2.92 1.16l.61 1.7 1.57.5c.28.09 1.29.38 2.42.38 1.87 0 3.4-.83 4.2-2.27l.08-.16h.01c1.24 0 2.37-.54 3.16-1.48.89-.67 1.73-1.72 2.02-3.08 3.57 3.58 8.42 5.63 13.64 5.63 1.79 0 3.59-.25 5.31-.75-3.42 7.17-4.62 13.09-3.6 17.7-9.26.28-19.59 1.65-23.45 6.07-1.37 1.58-1.96 3.47-1.69 5.47l.17 1.22.92.83c.52.46 2.39 1.98 4.7 1.98.35 0 .69-.04 1.02-.1.61.32 1.31.51 2.1.51.88 0 1.68-.25 2.37-.61.65.33 1.42.56 2.3.56 1.12 0 2.67-.38 4.16-2.02l23.03-5.19.62-.52c1.04-.87 1.54-2.26 1.3-3.62-.44-2.61-3.2-3.94-5.55-4.82l.13-.07-.32-.03c-.12-.1-.35-.34-.53-.85-.33-.97-.72-3.7 1.78-9.64 1.33.49 5.94 2.06 10.59 2.06.2 0 .41 0 .61-.01l.21-.01c-.65 6.22.46 12 3.27 17.1-9.59.32-22.29 1.76-26.77 6.89-1.5 1.72-2.14 3.77-1.85 5.95l.17 1.22.92.83c.57.51 2.62 2.16 5.12 2.16.44 0 .87-.05 1.28-.15.68.39 1.47.63 2.37.63.95 0 1.87-.27 2.78-.81.78.45 1.68.74 2.67.74 1.22 0 2.92-.43 4.57-2.32l26.97-6.08.62-.52c.83-.69 1.62-2.03 1.33-3.7-.45-2.61-3.08-4.03-5.72-5.05-1.36-1.01-8.23-6.85-5.04-18.92 1.89-.58 3.68-1.27 5.38-2.08 9.4 6.3 17.66 9.49 24.58 9.49 5.11 0 9.49-1.67 13.02-4.98 6.59-6.17 7.8-15.98 7.92-17.2 4.96-33.32-6.85-46.43-7.36-46.98l-.2-.22-.24-.18c-1.72-1.29-3.48-1.94-5.21-1.94-8 0-10.25 13.04-10.98 17.32-.42 2.48-.73 4.93-.95 7.12l-.21-.89c-.31-1.34-.62-2.65-.95-3.9-.34-4.48-1.08-9.35-2.18-14.49l.03-.03-1.84-7.68-.07.03c-1.14-4.21-2.51-8.6-4.08-13.11-.04-.25-.09-.5-.15-.75 4.71-6.12 4.32-10.6 3.03-13.38-.79-2.02-3.36-5.15-8.5-5.15-1.36 0-2.84.23-4.42.68-.19-.23-.42-.43-.66-.61-.14-.16-.29-.31-.44-.45-.1-.17-.2-.33-.32-.49l3.83.07.02-.39 22.99.36.01.15 16.6-.3.11-12.73-.87.02.79-5.55-.08-11.31-14.28.25.03-4.07 8.05-3.62 2.72-16.35-17.94-.42-.58 7.09-.64-7.28-17.84.66 1.24 7.64-7.48-8.22-12.76.34-8.28 11.53-.45 4.2-7.67.14.77-16.35"/><path fill="#404041" d="M184.06 122.446l-.203-.22-.24-.18c-1.723-1.285-3.476-1.936-5.21-1.936-8.003 0-10.246 13.037-10.983 17.32-.424 2.473-.733 4.932-.956 7.12l-.21-.89c-.306-1.34-.623-2.652-.944-3.904-.346-4.486-1.08-9.35-2.188-14.49l.03-.028-1.837-7.688-.07.03c-1.15-4.207-2.51-8.598-4.09-13.106l-.15-.75c4.71-6.12 4.31-10.6 3.02-13.383-.79-2.01-3.37-5.14-8.5-5.14-1.37 0-2.85.23-4.42.69-.2-.23-.42-.43-.66-.61-.14-.17-.29-.32-.45-.45-.1-.17-.2-.33-.32-.49l3.83.06.01-.39 22.98.37v.15l16.6-.3.11-12.73-.88.02.79-5.55-.08-11.3-14.28.26.03-4.06 8.05-3.62 2.72-16.35-17.94-.42-.58 7.09-.64-7.28-17.84.66 1.23 7.64-7.49-8.22-12.77.35-8.28 11.53-.46 4.2-7.68.14.76-16.34-17.95.53v3.06l-5.17-3.47-24.81.45.17 24.38-3.94.17-2.42 1.95.73 27.06 25.78.05 4.46-4.91-.42 3.8c-.95.37-1.84 1.07-2.21 2.41-.06.22-.1.44-.11.66l-.05.05c-1.04-.22-1.99-.33-2.86-.33-3.58 0-5.22 1.88-5.88 2.99-1.87 3.16-.44 7.51.7 10-1.34 3.35-2.01 6.83-2.01 10.38 0 .11 0 .22.01.32-.01.11-.01.22-.01.34 0 1.48.16 2.99.47 4.48 1.8 9.61 8.76 18.03 18.56 23.02-7.64 3.69-16.33 10.69-21.22 23.99-1.75.47-4.04 1.5-5.49 3.73-1.09 1.68-2.02 4.62-.28 9.05l.33.84.71.56c.32.25 1.44 1.05 2.92 1.16l.6 1.7 1.58.5c.28.09 1.29.38 2.42.38 1.87 0 3.4-.83 4.19-2.28l.09-.15c1.24 0 2.36-.54 3.16-1.48.89-.68 1.73-1.72 2.02-3.08 3.56 3.58 8.41 5.63 13.64 5.63 1.79 0 3.58-.26 5.31-.75-3.43 7.16-4.63 13.08-3.61 17.7-9.26.28-19.6 1.65-23.46 6.07-1.38 1.57-1.96 3.47-1.69 5.47l.17 1.22.92.82c.52.46 2.39 1.98 4.7 1.98.35 0 .69-.04 1.02-.1.61.32 1.31.51 2.1.51.88 0 1.67-.26 2.36-.62.65.33 1.41.56 2.29.56 1.11 0 2.66-.38 4.16-2.03l23.02-5.19.62-.52c1.03-.87 1.53-2.25 1.3-3.62-.45-2.6-3.2-3.94-5.55-4.82l.13-.06-.32-.03c-.13-.1-.35-.33-.53-.85-.33-.97-.72-3.7 1.78-9.64 1.33.49 5.94 2.06 10.59 2.06.2 0 .41 0 .61-.01h.2c-.65 6.22.46 12 3.26 17.1-9.59.32-22.29 1.77-26.77 6.89-1.5 1.72-2.14 3.78-1.85 5.95l.16 1.23.92.82c.56.51 2.61 2.16 5.11 2.16.44 0 .87-.05 1.28-.15.67.39 1.46.63 2.36.63.94 0 1.86-.27 2.78-.81.78.45 1.67.74 2.66.74 1.22 0 2.92-.44 4.57-2.32l26.97-6.07.62-.52c.83-.69 1.61-2.03 1.33-3.7-.45-2.61-3.09-4.03-5.72-5.05-1.36-1.01-8.23-6.85-5.04-18.92 1.88-.58 3.68-1.27 5.38-2.08 9.39 6.29 17.66 9.48 24.58 9.48 5.11 0 9.48-1.68 13.02-4.98 6.58-6.17 7.79-15.98 7.92-17.2 4.95-33.32-6.86-46.44-7.37-46.98zm-2.872 39.446c-.687 16.003-7.717 16.658-10.5 16.685-.302-.373-.76-.85-1.362-1.23-.04-.192-.08-.38-.126-.555.354-2.327 1.023-8.884-.385-19.54 1.623 1.556 3.315 2.318 5.122 2.318 2.804 0 5.26-1.935 6.738-5.306.154-.352.23-.567.23-.567l.104-.303c.22 3.1.28 5.936.17 8.498z"/><path fill="#F47F38" d="M91.973 48.765l-12.08.512.383 7.458L69.56 56.7l-.162-22.668 20.453-.366 4.52 3.034.55 8.778-2.93 3.29zM79.678 44.23l5.767-.254-.163-4.278-5.17-.073-.49.402.056 4.204zm30.01 5.706l10.01-.183-.272 6.874-20.563-.33.218-2.85s.28-18.61.28-19.488l11.1-.33-.76 16.3zm41.196 6.58l-9.792.293-.546-4.54-7.778.44-.273 3.91-9.354-.11 1.42-13.09 6.8-9.47 9.58-.26 7.89 8.66 2.07 14.15zm-11.1-9.54l-.378-2.963-2.94-4.205-2.827 4.13-.49 3.292 6.63-.255zm21.934 1.314l-7.452-3.436-1.74-10.75 10.88-.402.65 7.46 3.048 1.388 3.046-1.353.6-7.348 10.933.25-1.795 10.78-8.378 3.76-.055 8.19-9.79.07M91.2 73.76v.292L84.89 81l-21.054-.038-.598-22.156.27-.22 13.167-.548 7.724.073 4.78 5.45v.22l-4.08 5.3 6.09 4.68zM77.872 63.413l-4.84-.037v3.912l4.95-.11-.11-3.765zm1.142 8.41H73.52v4.387l5.603-.22-.11-4.168zm42.763 9.067l-9.792.29-.545-4.533-7.778.44-.272 3.91-9.357-.11L95.447 67.8l6.8-9.47 9.574-.256 7.89 8.665 2.07 14.15zm-11.097-9.543l-.38-2.962-2.938-4.204-2.83 4.14-.49 3.29 6.638-.25zm25.908 2.96l10.01-.182-.27 6.874-20.564-.33.217-2.86s.28-18.61.28-19.49l11.1-.33-.76 16.31zm24.722 0l10.013-.182L171.05 81l-20.564-.33.218-2.853s.272-18.61.272-19.486l11.1-.32-.766 16.31zm24.463-16.27l.055 7.68-.927 6.47-8.53.293-.71-6.362-.16-7.896 10.29-.184zm.11 16.857l-.055 6.033-10.065.182-.217-6 10.336-.22z"/><path fill="#6D6E70" d="M91.7 86.46s1.128-.365 3.427-.125c2.298.24-1.002 1.107-1.002 1.107L91.7 86.46z"/><path fill="#FFF" d="M113.56 136.69s-26.16-.028-35.217 27.792c0 0-8.41.384-5.176 8.603 0 0 3.236 2.56 2.588-4.478l1.617-.728s-2.102 2.58-.16 8c0 0 5.012 1.6 1.617-3.77l.64-3.11s2.28 1.03 2.27 4.07c0 0 1.28 1.32 1.93 0 0 0 3.14-1.49-.94-4.48 0 0 .36-2.51 0-4.77 0 0 3.86-19.9 39.03-23.3l-1.06-3.86h-7.16z"/><path fill="#D0D2D3" d="M106.652 137.637l12.93 3.146v-3.798"/><circle fill="#F47F38" cx="101.704" cy="158.808" r="15.929"/><path fill="#5A4A42" d="M113.105 147.68c-.175-.18-.354-.354-.536-.523-.41-.193-.85-.375-1.25-.5-1.45-.457-2.66-.65-4.45-.707-1.73-.03-3.4.21-4.89.444-.56.077-3.34.89-4.32 1.264-.38.145-.7.256-.73.25-.15-.034-.3-1.22-.23-1.76.11-.82.3-1.234.9-1.95.41-.497.61-.644 1.48-1.106-.45.074-.9.166-1.35.28l-.01.002c-.1.06-.18.118-.26.176-1.38 1.095-1.71 2.84-1.37 4.816-.05.063-.45.284-.89.493-.44.21-1.21.66-1.7 1-.74.5-.9.58-.88.43-.4-1.29-.86-2.72-.95-3.9-.28.22-.56.46-.82.7.02.19.07.4.13.65.24 1.04.62 2.24.85 3.12-1.04.65-1.48 1.19-2.4 1.93l-.3.23-.48-.89c-.26-.49-.55-.94-.64-.98-.14-.07-.15-.06-.08.06.06.11.04.12-.15.05l-.18-.03c-.07.13-.14.27-.21.41.07.08.06.11-.05.13l-.02.01-.05.09c.04.03.11.09.22.17.18.13.51.53.73.88.39.64.39.65.17.95-.55.67-1.05 1.42-1.52 2.12-.35.52-.78 1.42-1.16 2.4-.01.3-.01.6 0 .91.4-1.3.95-2.55 1.35-2.91.4-.71 1.16-1.23 1.64-1.77.1-.12.19-.16.23-.1.03.05.17.69.31 1.4.37 1.53.66 3.22.67 4.61.02 2.82.37 5.29 1.08 7.63.27.9.48 1.35 1.21 2.61.62 1.06.74 1.24.4.59-.39-.75-.48-1.02-.45-1.36.02-.24-.02-.52-.09-.63-.58-1.97-.95-3.63-1.14-5.76l-.21-2.7c.01-1.33-.37-2.76-.51-3.99-.02-.21-.2-1.02-.38-1.8l-.34-1.42.68-.63c.72-.67 1.94-1.66 2.02-1.64.03.01.21.37.4.81.19.44 1 1.9 1.8 3.26 1.32 2.02 2.72 4.52 4.22 6.6.26.43 2.21 3.05 3.58 4.82 1.96 2.52 4.36 4.87 5.89 5.75.22.12.44.23.62.3.2-.1.4-.2.59-.31-.04-.09-.23-.23-.61-.5-.98-.68-2.85-2.48-4.53-4.36-.94-1.05-2.67-3.25-4.27-5.42-1.99-2.7-6.74-10.72-6.79-11.46-.02-.22 1.52-1.26 2.52-1.7l.61-.27.53.7c.68.91 1.87 1.91 3.11 2.61 5.3 2.14 10.72 4.52 15.02 7.93.98.81 1.2 1.05 1.82 1.96l.35.51c.08-.29.14-.59.2-.89-.05-.07-.1-.15-.15-.25-.67-1.09-1.85-2.26-3.26-3.23-2.91-2.02-6.09-3.59-9.25-4.91-1.24-.51-2.51-1.04-2.83-1.17-.79-.33-2.09-1.15-2.53-1.58-.2-.2-.46-.42-.57-.49-.33-.22-1.16-1.06-1.35-1.38l-.18-.3.63-.28c.77-.34 2.51-1.03 3.35-1.22 3.45-.76 8.97-.89 11.89.55z"/><path fill="#D0D2D3" d="M83.694 98.915s-7.224-13.14 6.188-8.577c13.414 4.564-6.188 8.577-6.188 8.577z"/><path fill="#919496" d="M86.224 95.29s-6.43-6.49-1.807 2.198c4.623 8.688 1.807-2.2 1.807-2.2z"/><path fill="#FFF" d="M153.92 105.32c-2.446-14.443-17.676-25.57-36.11-25.57-20.137 0-36.46 13.275-36.46 29.65 0 16.376 16.324 29.65 36.46 29.65.757 0 1.507-.023 2.25-.06.81 3.52 1.483 8.98-.955 12.28 0 0-16.726 12.51-8.192 24.39-.01-.088 4.373 7.24 16.64 7.232 16.674-.505 50.232-9.43 26.366-77.573z"/><path fill="#919496" d="M146.582 92.836l3.763 8.234s11.572-14.398-3.763-8.234z"/><path fill="#FFF" d="M134.855 144.496s-38.084 40.548-26.142 53.826c0 0-28.267-.632-27.13 7.796 0 0 2.83 2.53 4.09 0 0 0 .85 3.584 4.006-.21 0 0 1.89 3.794 4.42 0l23.39-5.27s1.26-1.054-3.27-2.738c0 0-8.55-2.23 2.54-21.827 11.08-19.598 18.09-31.577 18.09-31.577zm46.76-19.77c-11.298-8.434-12.36 27.813-12.36 27.813l.083.11c2.1.89 5.427 1.78 8.277.26.094-.22.14-.35.14-.35-.786-12.13-.527-17.94.13-20.37.846-4.77 2.778-10.42 6.155 6.8 0 0 2.194 12.53.488 23.02-1.28 29.78-23.786 18.82-32.818 13.19 3.53 5.44 13.8 17.91 29.506 8.96 6.035-5.66 6.89-15.18 6.89-15.18 4.806-32.17-6.492-44.29-6.492-44.29z"/><path fill="#CCC" d="M151.71 175.223c-.902-1.39-1.365-2.325-1.365-2.325l-4.747-3.887-.732 1.86c1.895 1.11 3.138 1.85 3.138 1.85s1.423 1.09 3.706 2.51zm-.876-.973c-1.044 1.634-4.775 3.932-4.69 3.997 20.786 15.556 29.027 11.6 35.072 5.938-15.705 8.947-26.852-4.49-30.382-9.935zm33.206-35.24c-3.377-17.218-5.31-11.576-6.154-6.807 1.2-4.437 3.73 2.24 3.73 2.24 2.378 11.73 3.207 20.738 2.913 27.59 1.7-10.485-.49-23.024-.49-23.024zm-14.702 13.648c4.792 7.052 7.633 1.73 8.277.263-2.85 1.52-6.177.63-8.277-.26z"/><path fill="#D0D2D3" d="M134.855 149.92v-16.36c-7.045 3.11-13.074 4.528-13.074 4.528l2.9 13.06c-15.95 3.69-13.77 24.424-13.76 24.51 1.67 2.32 2.5 3.105 6.41 5.278 0 0 5.26 2.105 10.24 1.956-9.53-13.313 7.31-32.975 7.31-32.975z"/><ellipse fill="#D0D2D3" cx="112.335" cy="110.054" rx="30.986" ry="23.507"/><path fill="#D0D2D3" d="M143.16 91.15s-.356 3.044 2.477 3.47c0 0 13.875-4.532 3.75 7.645 0 0-1.133 1.842 1.203 3.47 0 0 9.347-8 6.373-14.09 0 0-2.265-6.655-13.804-.496z"/><ellipse fill="#FFF" cx="96.51" cy="104.775" rx="12.113" ry="11.939"/><ellipse fill="#FFF" cx="124.676" cy="105.043" rx="14.951" ry="14.853"/><path fill="#1D8FCD" d="M102.963 117.327s2.695-5.482 3.69-2.588c0 0 2.225-3.26 2.225 1.97 0 0-2.11 1.44-2.226 3.18 0 0-2.184-.88-3.69-2.57z"/><path fill="#FFF" d="M106.652 118.558s.135-.74 1.178-1.48c0 .002-.385-1.415-1.178 1.48z"/><path fill="#BE202E" d="M105.92 123.944s-.626 3.415 3.194.25l-1.874-1.342-1.32 1.092z"/><path fill="#FFF" d="M136.375 171.358s-12.793 19.715 1.173 35.24c0 0-33.058-.74-31.727 9.12 0 0 3.31 2.955 4.79 0 0 0 1 4.188 4.69-.248 0 0 2.22 4.437 5.17 0l27.36-6.162s1.48-1.23-3.82-3.202c0 0-15.44-9.857-2.48-32.776 12.96-22.92-5.13-1.972-5.13-1.972z"/><path fill="#CCC" d="M89.778 205.49s.804-3.26 6.654-2.342c0 0-5.79-1.847-6.654 2.34z"/><path fill="#D0D2D3" d="M85.775 205.49s-.248-4.078 4.003-2.75c0 0-3.264-.638-4.003 2.75z"/><circle fill="#0071BC" cx="98.289" cy="105.735" r="8.642"/><circle fill="#0F4481" cx="101.022" cy="105.006" r="4.438"/><circle fill="#FFF" cx="102.035" cy="105.006" r="2.359"/><circle fill="#FFF" cx="96.661" cy="104.395" r="1.148"/><circle fill="#0071BC" cx="128.114" cy="105.735" r="9.456"/><circle fill="#0F4481" cx="131.105" cy="104.938" r="4.856"/><circle fill="#FFF" cx="132.213" cy="104.937" r="2.581"/><circle fill="#FFF" cx="126.333" cy="104.269" r="1.257"/><path fill="#00ADEE" d="M115.797 152.658s-.23.188-.61.542c-.058.213-.103.432-.123.658-.202 2.158 1.41 4.072 3.6 4.277 1.586.147 3.04-.644 3.795-1.912-.57.657-1.43 1.04-2.35.955-1.52-.143-2.63-1.484-2.49-3 .14-1.514 1.48-2.627 3-2.486 1.05.1 1.91.78 2.29 1.695-.37-1.622-1.76-2.9-3.52-3.066-.43-.03-.85-.01-1.24.08-.57.94-1.34 1.73-2.36 2.26z"/><path fill="#00ADEE" d="M162.17 143.29s-22.347 4.267-2.702-19.094l-.49-2.057s-20.978 8.29-33.176 20.18l-5.07-3.83-1.384.52s.802 4.23.016 8.1c2.04-1.07 4.53-1.59 7.17-1.34 3.51.32 6.524 1.93 8.404 4.19.84-.3 2.205-.59 3.138.14 0 0 1.798 1.85-1.142 4.29.074.56.085 1.12.03 1.7-.37 3.97-3.733 7.08-8.138 8-1.05.23-1.768.26-1.768.26-.736.05-1.493.04-2.263-.03-6.244-.58-10.92-5.2-10.442-10.31V154c-2.59 2.703-7.573 9.19-5.476 17.41 0 0 19.284 7.52 43.668 2.063 0 0 10.392-5.7 9.624-30.205z"/><path fill="#00ADEE" d="M127.782 160.035c2.068.192 3.954-.917 4.84-2.652-.663.89-1.76 1.422-2.944 1.312-1.808-.168-3.137-1.77-2.97-3.578.17-1.81 1.772-3.138 3.58-2.97 1.296.12 2.347.98 2.774 2.122-.397-2.09-2.143-3.75-4.375-3.96-2.7-.25-5.094 1.72-5.346 4.4-.24 2.68 1.74 5.06 4.45 5.31z"/><circle fill="#00ADEE" cx="121.502" cy="153.811" r=".902"/><circle fill="#00ADEE" cx="131.401" cy="154.733" r="1.06"/><path fill="#00ADEE" d="M135.852 151.274c.336.576.604 1.182.797 1.808 1.26-1.52-.14-1.77-.8-1.808z"/><path fill="#FFF" d="M124.796 164.34c.77.072 1.526.08 2.263.027 0 0 .71-.024 1.76-.26 4.4-.92 7.77-4.025 8.14-8 .05-.574.04-1.142-.03-1.7 2.94-2.44 1.14-4.29 1.14-4.29-.94-.73-2.3-.438-3.14-.144-1.88-2.256-4.9-3.863-8.41-4.19-2.64-.245-5.13.274-7.17 1.34-.24 1.168-.62 2.302-1.22 3.276.4-.09.81-.12 1.24-.08 1.76.16 3.15 1.44 3.52 3.06-.38-.92-1.24-1.6-2.29-1.7-1.52-.14-2.86.97-3 2.48-.14 1.51.97 2.85 2.48 3 .92.08 1.79-.3 2.35-.96-.76 1.27-2.21 2.06-3.8 1.91-2.19-.21-3.8-2.12-3.6-4.28.02-.23.06-.45.12-.66-.23.21-.52.49-.84.82v.01c-.48 5.11 4.19 9.73 10.44 10.31zm11.852-11.258c-.193-.626-.46-1.23-.797-1.808.67.037 2.07.288.8 1.808zm-13.306 1.638c.252-2.685 2.645-4.656 5.346-4.404 2.232.21 3.978 1.868 4.375 3.953-.428-1.15-1.48-2.01-2.775-2.13-1.807-.17-3.408 1.16-3.578 2.97-.168 1.8 1.16 3.41 2.97 3.57 1.183.11 2.28-.43 2.942-1.31-.885 1.73-2.77 2.84-4.84 2.65-2.702-.25-4.69-2.63-4.44-5.32zm9.113.112c-.053.583-.57 1.012-1.153.956-.58-.054-1.012-.57-.956-1.153.053-.582.57-1.01 1.154-.957.582.054 1.01.572.955 1.154zm-11.036-.123c-.5-.05-.86-.49-.82-.99.04-.5.48-.86.98-.82.5.04.86.48.81.98-.05.49-.49.86-.98.81z"/><path fill="#6C6F71" d="M111.78 128.492s-.79-2.396-3.254-2.192c0 0 .657-.718 3.255-1.827 0 0-2.29.22-3.87 1.473 0 0-3.92 3.01-2.26-1.75 0 0-3.56 5.775 2.61 2.542 0 0 1.9.368 3.53 1.754zm-4.865-9.565s-.456 2.47 1.29 4.412c0 0 6.832 3.72 7.49-3.12l1.83 1.53h-1.354s-1.69 7.03-8.98 1.58c0 0-5.06 5.41-4.22-1.94 0 0 .03 5.42 3.69 1.41 0 0-1.35-4.51.26-3.89z"/><path fill="#ACAFB1" d="M84.397 104.307h24.225s0-11.174-12.113-11.47c0 0-11.31-.358-12.12 11.47zm25.33 0s18.54-1.196 28.41-5.735c0 0-4.297-10.945-16.356-8.102 0 0-12.21 2.508-12.05 13.837z"/><path fill="#FFF" d="M153.636 138.076s9.948 15.097 7.885 37.997c0 0-2.48 1.187-2.97 5.434 0 0 1.85 1.88 2.67-2.153 0 0 .37-1.153.84-1.396 0 0-2.11 2.7 1.45 6.58 0 0 .89.486 1.7-.728 0 0 3.24.81 3-2.992 0 0-1.7-2.425-1.86 1.295 0 0 .08-3.56-.56-5.096 0 0 3.28-14.8-5.94-44.035 0 0-4.26 2.622-6.19 5.094z"/><path fill="#CCC" d="M153.636 138.076s8.734 19.038 7.885 37.997c0 0 3.91-13.35-6.6-39.382l-1.28 1.39zm5.694-4.763s4.087 12.02 5.99 23.07c0 0-2.09-13.64-5.497-23.4l-.493.33zm-.227 45.843l-.21 1.945s1.254 1.02 1.578-.8c0 0 .31-1.2 1.11-1.77 0 0-.48 1.01-.65 1.94 0 0-.57 2.59-2.37 1.05 0 0-.04-1.13.56-2.35zm2.33.942s1.04 3.572 2.394 4.158c0 0 .83.08 1.07-.566 0 0-.645-.606-.746-1.293 0 0 1.01 1.898 2.73.97 0 0 1.34-1.072 1.32-2.548 0 0 .49 3.7-2.99 2.99 0 0-.7 1.27-1.7.73 0 0-2.12-2.13-2.07-4.45z"/><path fill="#1B75BB" d="M123.07 144.694h7.348s3.912-9.287 28.73-21.842c0 0-22.416 10.15-29.127 21.644l-6.93-.52-2.69-5.355 2.68 6.08zm-32.837-54.94l-.14.03c-.565 0-.208.554-.208.554 20.895 5.8 55.354-.466 55.354-.466v-.498c0-.376-.08-.565-.18-.654-5.61 1.068-34.14 6.042-54.83 1.033z"/><path fill="#1B75BB" d="M142.04 85.81c-.142-.445-.423-.38-.423-.38-34.656 4.57-49.7 1.118-49.7 1.118.674-.31 2.935-.183 2.935-.183l.132-.087c-5.094-.413-3.22.685-3.22.685-.71.104.084.418.084.418-.185-.04-.3-.03-.386.01 5.032.82 24.663 3.38 50.577-1.57z"/><path fill="#1B75BB" d="M143.946 87.677c.147-.472-.804-.52-.804-.52.02-.124.027-.227.03-.323-6.147 1.214-31.427 5.673-52.363 1.546.01.12.07.233.07.233-.69-.188-.48.584-.48.584l-.18-.012c3.73.575 29.89 4.252 53.71-1.508z"/><path fill="#EC1C24" d="M143.172 86.834c.007-1.02-1.053-.513-1.053-.513-.01-.22-.04-.38-.08-.51-25.92 4.95-45.55 2.4-50.58 1.58-.34.13-.01.71-.01.71-.57-.07-.66.12-.64.29 20.93 4.13 46.21-.33 52.36-1.54z"/><path fill="#E6E7E8" d="M144.57 88.773c.5-.947-.67-.976-.67-.976l.046-.12c-23.82 5.76-49.984 2.082-53.715 1.508-.37.015.18.45.01.568 20.7 5.008 49.23.034 54.83-1.033-.2-.177-.49.053-.49.053z"/><path fill="#FFF" d="M155.156 127.355s-13.596 16.43 1.06 17.34l1.062 3.22s-19.56-3.262-2.122-20.56z"/><path fill="#FFF" d="M148.288 132.594s-10.18 15.012 9.644 17.496l.823 2.992s-24.023-1.85-10.467-20.488zm8.372 19.206s.92 12.632-7.438 21.285l3.376-.54s7.08-7.752 6.157-19.463l-2.094-1.282zm-23.092 11.33v-.005l1.737.355-1.784 8.71-1.73-.356 1.31-6.383-1.4.93-.92-1.39m11.82 0l-.33 1.63-3.6-.73-.25 1.22.7.14c1.16.24 1.98.68 2.48 1.32.48.73.62 1.57.42 2.54-.15.74-.57 1.31-1.26 1.74-.69.43-1.46.55-2.31.38-.81-.16-1.46-.42-1.95-.76-.49-.35-.89-.75-1.2-1.22l1.4-.92c.29.54.86.92 1.7 1.14 1.04.21 1.69-.06 1.95-.8.08-.5-.03-.89-.31-1.19-.14-.23-.74-.46-1.8-.71l-1.85-.38.92-4.47 5.34 1.1z"/></svg>