<svg xmlns="http://www.w3.org/2000/svg" width="250" height="250" viewBox="0 0 250 250"><path opacity=".15" d="M208.774 161.973c-10.44 0-16.697 6.06-18.153 12.594-1.32-.543-2.85-.918-4.62-1.07-1.09-1.473-2.28-3.02-3.59-4.67-5.29-6.678-11.1-13.283-15.55-18.174 22.8-10.914 37.11-30.374 37.11-51.344 0-7.4-1.7-14.58-5.06-21.41 4.45-5.67 6.41-11.03 5.83-15.98-.59-5.09-3.61-7.87-4.84-8.81-2.66-2.22-6.09-3.39-9.94-3.39-3.39 0-6.83.9-9.86 2.07-7.64-11.65-16.94-14.27-23.76-14.27-4.21 0-8.62.98-13.14 2.91-5.86-1.05-11.88-1.58-17.91-1.58-6.35 0-12.69.59-18.88 1.75-4.68-2.39-9.26-3.6-13.63-3.6-6.41 0-15.27 2.64-22.88 14.4-3.19-1.14-6.17-1.71-8.91-1.71-3.84 0-7.27 1.17-9.94 3.39-1.23.93-4.23 3.71-4.84 8.77-.58 4.87 1.3 10.14 5.59 15.71-3.46 6.92-5.21 14.2-5.21 21.7 0 20.83 13.56 39.72 35.91 50.76-3.01 3.38-6.79 7.72-10.6 12.36-3.14-2.12-7.32-3.45-12.65-3.45-12.46 0-26.94 9.39-26.94 21.49 0 6.2 3.3 10.29 8.98 11.41l-5.1 23.86H56.9l1.352-11.68c1.26.54 2.82.9 4.755.9.466 0 .978-.02 1.55-.07.696 6.64 5.737 10.84 13.25 10.84 3.32 0 6.478-1.6 9.567-4 2.59 2.51 6.13 4 10.21 4 3.75 0 7.384-1.07 10.74-3.06 4.795 2.48 9.8 3.75 14.9 3.75 3.407 0 6.44-.56 9.004-1.32 1.4.4 2.94.62 4.6.62 2.19 0 4.16-.88 5.88-2.12 2.56 1.4 5.89 2.11 10 2.11 6.1 0 11.11-2.23 14.19-6.2 2.603 3.82 6.9 6.19 12.054 6.19 6.58 0 10.64-1.85 13.147-4.25 1.95 2.57 5.04 4.25 8.51 4.25 5.87 0 10.64-4.8 10.64-10.7 0-2.3-.73-4.43-1.97-6.17l.36-1.1c.67-2.05 2.33-3.44 4.98-5.53 4.09-3.23 9.7-7.66 9.7-17.11 0-6-2.69-13.16-15.5-13.16z"/><path fill="#FFE8BA" d="M205.774 158.973c-10.44 0-16.697 6.06-18.153 12.594-1.32-.543-2.85-.918-4.62-1.07-1.09-1.473-2.28-3.02-3.59-4.67-5.29-6.678-11.1-13.283-15.55-18.174 22.8-10.914 37.11-30.374 37.11-51.344 0-7.4-1.7-14.58-5.06-21.41 4.45-5.67 6.41-11.03 5.83-15.98-.59-5.09-3.61-7.87-4.84-8.81-2.66-2.22-6.09-3.39-9.94-3.39-3.39 0-6.83.9-9.86 2.07-7.64-11.65-16.94-14.27-23.76-14.27-4.21 0-8.62.98-13.14 2.91-5.86-1.05-11.88-1.58-17.91-1.58-6.35 0-12.69.59-18.88 1.75-4.68-2.39-9.26-3.6-13.63-3.6-6.41 0-15.27 2.64-22.88 14.4-3.19-1.14-6.17-1.71-8.91-1.71-3.84 0-7.27 1.17-9.94 3.39-1.23.93-4.23 3.71-4.84 8.77-.58 4.87 1.3 10.14 5.59 15.71-3.46 6.92-5.21 14.2-5.21 21.7 0 20.83 13.56 39.72 35.91 50.76-3.01 3.38-6.79 7.72-10.6 12.36-3.14-2.12-7.32-3.45-12.65-3.45-12.46 0-26.94 9.39-26.94 21.49 0 6.2 3.3 10.29 8.98 11.41l-5.1 23.86H53.9l1.352-11.68c1.26.54 2.82.9 4.755.9.466 0 .978-.02 1.55-.07.696 6.64 5.737 10.84 13.25 10.84 3.32 0 6.478-1.6 9.567-4 2.59 2.51 6.13 4 10.21 4 3.75 0 7.384-1.07 10.74-3.06 4.795 2.48 9.8 3.75 14.9 3.75 3.407 0 6.44-.56 9.004-1.32 1.4.4 2.94.62 4.6.62 2.19 0 4.16-.88 5.88-2.12 2.56 1.4 5.89 2.11 10 2.11 6.1 0 11.11-2.23 14.19-6.2 2.603 3.82 6.9 6.19 12.054 6.19 6.58 0 10.64-1.85 13.147-4.25 1.95 2.57 5.04 4.25 8.51 4.25 5.87 0 10.64-4.8 10.64-10.7 0-2.3-.73-4.43-1.97-6.17l.36-1.1c.67-2.05 2.33-3.44 4.98-5.53 4.09-3.23 9.7-7.66 9.7-17.11 0-6-2.69-13.16-15.5-13.16z"/><path fill="#FFF" d="M144.328 126.867l-25.603 4.88-23.198-4.88s-29.544 75.504 24.4 79.982c53.944-4.48 24.4-79.99 24.4-79.99z"/><path fill="#D0D2D3" d="M105.077 136.158h29.614s10.62 36.527-.26 67.033c0 0-12.36 9.3-27.56.65 0 0-11.85-8.6-1.78-67.67z"/><path fill="#ACAFB1" d="M108.92 149.518l.98-1.553s.625-10.703 4.743-13.715c4.122-3.012-1.49 8.576-1.49 8.576l-2.256 6.45-1.04.522-.936-.28z"/><path fill="#919496" d="M59.367 72.147S46.015 45.837 69.605 61.43L59.367 72.148zm126.23 0s13.352-26.31-10.24-10.716l10.24 10.72z"/><ellipse fill="#FFF" cx="122.255" cy="96.309" rx="72.799" ry="54.521"/><ellipse fill="#D0D2D3" cx="122.256" cy="96.309" rx="64.791" ry="48.527"/><path fill="#D0D2D3" d="M56.074 74.095s4.352-.628 3.902-4.714c0 0-11.394-17.58 9.227-8.01 0 0 2.97.89 4.37-2.94 0 0-14.54-10.02-21.894-3.65-.01 0-8.4 5.6 4.39 19.34z"/><path fill="#6C6F71" d="M121.995 118.272v4.013h.72v-5.002"/><path fill="#D0D2D3" d="M188.81 74.095s-4.355-.628-3.9-4.714c0 0 11.394-17.58-9.228-8.01 0 0-2.972.89-4.37-2.94 0 0 14.538-10.02 21.894-3.65 0 0 8.398 5.6-4.396 19.34z"/><path fill="#1D8FCD" d="M122.312 119.442l4.96-6.392s-2.483-4.65-5.023-.106c-2.54-4.543-5.02.106-5.02.106l4.95 6.392v.16l.06-.08.06.08v-.16z"/><path fill="#FFF" d="M121.14 117.283s-.043-3.266-1.684-1.86l1.684 1.86zm2.178 0s.046-3.266 1.68-1.86l-1.68 1.86z"/><path fill="#D0D2D3" d="M61.272 81.784s10.04-69.75 52.51-29.143c42.467 40.61-52.51 29.15-52.51 29.15z"/><ellipse fill="#FFF" cx="92.902" cy="81.785" rx="27.636" ry="37.818"/><path fill="#D0D2D3" d="M128.033 52.64s39.934-40.258 53.75 25.51l-53.75-25.51z"/><path fill="#FFF" d="M123.172 81.785c0 20.887 12.374 37.818 27.635 37.818 15.268 0 27.638-16.932 27.638-37.818 0-20.887-12.37-37.82-27.638-37.82-15.26 0-27.635 16.932-27.635 37.82z"/><circle fill="#0071BC" cx="94.169" cy="75.986" r="23.339"/><path fill="#0F4481" d="M85.49 81.862c-4.336-5.01-3.79-12.577 1.216-16.907 5.004-4.33 12.57-3.788 16.907 1.22 4.33 5.005 3.784 12.576-1.22 16.907-5.002 4.332-12.574 3.784-16.904-1.22z"/><path fill="#FFF" d="M89.47 78.186c-2.303-2.663-2.013-6.68.648-8.982 2.657-2.3 6.682-2.018 8.987.644 2.3 2.662 2.008 6.686-.653 8.99-2.662 2.3-6.68 2.006-8.982-.652z"/><circle fill="#FFF" cx="82.773" cy="72.368" r="3.102"/><circle fill="#0071BC" cx="149.638" cy="75.986" r="23.339"/><path fill="#0F4481" d="M141.416 83.082c-5.005-4.33-5.55-11.902-1.22-16.906 4.335-5.01 11.9-5.55 16.906-1.22 5.005 4.33 5.552 11.896 1.217 16.906-4.33 5.004-11.91 5.552-16.91 1.22z"/><path fill="#FFF" d="M145.357 78.837c-2.66-2.304-2.954-6.328-.653-8.99 2.305-2.662 6.33-2.944 8.987-.644 2.66 2.3 2.96 6.32.65 8.982-2.3 2.66-6.32 2.953-8.98.652z"/><circle fill="#FFF" cx="161.035" cy="72.368" r="3.101"/><path fill="#D0D2D3" d="M80.133 129.713s35.32 51.326 84.158.834"/><path fill="#ACAFB1" d="M119.214 93.754H66.772s9.886 43.637 39.173 21.523c0 0 11.18-6.676 13.27-21.523z"/><path fill="#D0D2D3" d="M69.605 113.485s-5.7-31.876 32.814 6.45l-8.61 4.04-24.22-10.49z"/><path fill="#6C6F71" d="M76.394 103.544s-7.42 39.77 44.722 44.524l-38.21-26.8-6.512-17.724"/><path fill="#6C6F71" d="M120.297 147.988s1.805.197 4.173-.09c2.367-.285 1.47-2.37 1.47-2.37h-8.233l2.59 2.46z"/><path fill="#ACAFB1" d="M124.586 93.754h52.443s-9.89 43.637-39.18 21.523c0 0-11.18-6.676-13.27-21.523z"/><path fill="#404041" d="M76.394 103.544s-5.028 20.977 25.527 38.368L96 123.975s-13.05-8.194-19.606-20.43z"/><path fill="#D0D2D3" d="M172.873 113.485s5.187-32.208-33.328 6.118l9.113 4.372 24.215-10.49z"/><path fill="#6C6F71" d="M168.18 103.544s6.748 39.77-45.394 44.524l38.212-26.8 6.512-17.724"/><path fill="#404041" d="M97.042 124.414l8.702 4.043 23.42 1.96s21.564-3.376 22.474-3.544c.907-.164 10.634-5.606 10.634-5.606l-4.81 8.446-17.48 9.78-27.478 2.534-17.545-6.025-10.27-9.13 4.81-3.54 7.54 1.082z"/><path fill="#404041" d="M168.18 103.544s5.025 20.977-25.528 38.368l5.92-17.937c-.002 0 13.05-8.194 19.61-20.43z"/><path fill="#FFF" d="M93.713 131.148c-3.79-1.86-5.958-3.354-5.958-3.354H84.15s3.014 3.512 8.02 7.55l1.543-4.196zm-.05 5.368l-1.317-1.03c.426.342.863.684 1.318 1.03zm12.347 7.39l-.532-.234c.177.08.354.156.532.234zm-12.297-14.17v-6.403l1.246.642.24 6.44c4.29 1.897 8.43 3.296 12.38 4.284l-.02-6.99 1.13.08v7.18c4.49 1.04 8.74 1.57 12.71 1.7l-.32-10.73 1.03-.34 1.17.38-.08 10.71c4.65.02 8.9-.49 12.7-1.29l-.09-.34v-7.3l1.13-.08-.02 7.48c5.04-1.15 9.24-2.8 12.45-4.36l-.08-.3.26-6.58 1.24-.64v6.79c3.83-2 5.91-3.69 5.91-3.69l-.47 1.35 4.85-13.97c-17.12 19.46-35.78 11.85-38.9 10.37v-.23l-.23.12c-.15-.07-.23-.12-.23-.12v.23c-3.12 1.47-21.78 9.09-38.9-10.37l4.85 13.96-.47-1.36c2.18 1.23 4.33 2.32 6.43 3.3zm1.202 1.99l-1.218 4.817c3.213 2.455 7.1 4.984 11.45 6.977l2.297-7.285c-4.987-1.286-9.255-2.977-12.53-4.51zm13.445 4.74l-1.935 7.614c4.695 1.988 9.88 3.295 15.31 3.17l-.26-8.977c-4.715-.148-9.13-.84-13.115-1.808zm42.503-5.306l1.53 4.166c4.506-3.658 7.133-6.742 7.133-6.742l-3.228-.79c-1.813 1.255-3.625 2.366-5.435 3.366zm-27.628 7.14l-.063 8.946c5.383-.045 10.434-1.332 14.96-3.22l-1.833-7.218c-4.51 1.06-8.9 1.5-13.07 1.493zm14.005-1.718l2.17 6.885c4.433-2.002 8.318-4.53 11.46-6.94l-1.192-4.726c-4.2 2.2-8.367 3.75-12.44 4.79z"/><path fill="#B3B3B3" d="M150.875 136.545l1.53-1.195-.01-.023c-.485.395-.994.795-1.524 1.2l.01.018zm-.015-12.68v-.53l-1.247.64-.252 6.573.08.295c.5-.24.98-.48 1.43-.717v-6.26z"/><path fill="#B3B3B3" d="M149.678 131.8l1.193 4.728c.53-.406 1.04-.807 1.53-1.2l-1.53-4.167c-.39.22-.79.44-1.18.64zm-11.528 12.288l1.28-.563-.02-.06c-.423.19-.848.378-1.278.56l.017.063zm-1.85-7.278l1.833 7.216c.43-.182.855-.37 1.278-.56l-2.17-6.884c-.31.082-.62.154-.94.227zm.696-9.093l-1.133.078v7.293l.086.34c.34-.072.69-.148 1.03-.227l.01-7.48zm-43.3 8.828v-.002c-.01-.008-.022-.016-.033-.027l.033.03zm-1.526-1.195l.175.137c-.06-.045-.117-.094-.175-.14v.003zm2.79-11.375l-1.247-.642v6.402c.5.233 1 .462 1.494.68l-.248-6.44zm-1.247 7.173l-1.542 4.197.18.14 1.32 1.03c.01.012.02.02.04.027l1.22-4.818c-.41-.195-.82-.386-1.2-.576zm11.43 12.377l.335.146-.333-.15-.002.01zm1.28.563l.002-.008c-.138-.057-.278-.113-.415-.174l.413.182zm2.287-16.293l-1.134-.078.015 6.982c.38.09.75.18 1.12.27v-7.18zm-1.267 8.44l-2.298 7.284.333.15.532.23c.137.06.277.11.415.17l1.935-7.62c-.308-.08-.613-.15-.917-.23zm14.292 11.015v.006h1.438v-.01c-.38.002-.76.014-1.146.004-.098.004-.194-.002-.292 0z"/><path fill="#B3B3B3" d="M121.474 138.273l.26 8.977c.1-.002.195.004.293 0 .385.01.766-.002 1.146-.004l.063-8.945c-.592 0-1.18-.01-1.762-.02zm1.772-1.563l.072-10.712-1.174-.383-1.03.338.314 10.723c.613.02 1.218.03 1.818.035z"/><path fill="#F69C95" d="M84.458 118.3s2.968.034 9.962 6.953c0 0 9.616.143 13.658 3.64 0 0 10.025-5.028 14.135 0V124.2s-20.303 7.924-33.21-4.973l-7.475-7.818s.518 5.98 2.93 6.89zm75.512 0s-2.97.034-9.963 6.953c0 0-9.616.143-13.66 3.64 0 0-10.023-5.028-14.134 0V124.2s20.303 7.924 33.21-4.973l7.477-7.818s-.52 5.98-2.93 6.89z"/><path fill="#6C6F71" d="M121.14 123.975s-25.08 11.693-44.746-20.43c0 0 14.456 33.584 46.78 21.708l-.72-1.278h-1.314z"/><path fill="#6C6F71" d="M123.15 123.975s25.08 11.693 44.746-20.43c0 0-14.456 33.584-46.78 21.708l.358-1.278h1.676zM80.133 106.03s-4.327-7.11-6.883.41c0 0 2.295-4.753 6.883-.41zm83.577 0s4.328-7.11 6.886.41c0 0-2.295-4.753-6.885-.41z"/><path fill="#F69C95" d="M93.696 136.545s8.645 5.986 12.907 4.697c0 0 12.28 7.883 15.85 2.846v3.168s-14.522 1.238-28.757-10.71zm57.514 0s-8.643 5.986-12.904 4.697c0 0-12.28 7.883-15.852 2.846v3.168s14.524 1.238 28.757-10.71z"/><path fill="#A6A8AB" d="M100.407 118.19s5.375 5.803 11.93 4.537c0 0-6.958.398-10.416-5.186l-1.51.65zm41.42-.622s-5.375 5.8-11.93 4.537c0 0 6.96.4 10.416-5.186l1.515.64zM70.695 102.65c1.175-3.274-1.754 11.152.696 18.617 0 0-4.64-10.607-1.17-19.643l.48 1.025zm101.876 2.38s2.83 7.88-.69 18.62c0 0 4.65-10.61 1.18-19.644l-.48 1.024z"/><path fill="#929497" d="M125 95.33h33.993l-33.828 1.464m51.455-1.464h-10.087l9.8.98"/><path fill="#A6A8AB" d="M109.4 48.742s10.5 8.368 12.197 18.938c0 0-.502-9.997-10.82-19.134l-1.38.196zm23.47-.197s-6.027 5.19-8.486 13.063c0 0 2.53-9.652 7.37-13.304l1.117.24zM61.792 78.84s-1.407 8.833 2.116 18.913c0 0-3.546-7.802-2.96-17.177l.844-1.737zm119.728-1.906s-1.05 18.098-4.49 26.054c0 0 6.04-15.047 5.05-25.342l-.56-.712z"/><path fill="#ACAFB1" d="M65.792 74.428s18.9-23.52 44.36-22.18c0 0-11.232-16.83-28.625-5.778 0 0-13.055 6.697-15.735 27.958zm112.404 0s-14.485-20.673-44.357-22.18c0 0 11.23-16.83 28.62-5.778 0 0 13.05 6.697 15.73 27.958z"/><path fill="#A6A8AB" d="M110.15 122.285s7.052-8.45 12.062 0c0 0 4.247-7.32 12.646-1.018l-.803.264s-6.745-5.49-11.8 1.81c0 0-3.432-7.83-12.104-.42l-1.44-.18 1.44-.44z"/><ellipse fill="#FFF" cx="116.666" cy="149.922" rx="1.537" ry="1.238"/><path fill="#ACAFB1" d="M89.986 175.682v-.61l17.258-11.747 3.93-5.084s-3.597-4.89 1.365-10.57c0 0 2.04-3.79 4.3-5.2 0 0 5.1-6.9 10.59-.27 0 0 11.35 10.15 5.76 16.05l4.14 5.3 17.58 11.77s.07 7.98-.53 9.54c-.6 1.56-20.19-11.78-20.19-11.78s-12.97.36-13.13-4.97c0 0-.1 5.16-10.96 4.9l-19.62 11.72-.52-9.02z"/><path fill="#FFF" d="M152.404 144.025s91.5 94.756-18.078 28.48c0 0-11.896.038-12.687-4.425 0 0-1.9-3.547.82-8.72 0 0-.89 6.43-5.89 4.333 0 0-13.84-1.256-2.26 1.678l.42-14.82s11.09-12.44 1.03 1.82c0 0 2.03 2.94-3.38 5.88 0 0-4.82-2.9 1.11-10.94 0 0 14.81-20.51 17.77 9.27l5.47 7.13s79.76 54.85 8.87-12.68"/><path fill="#FFF" d="M90.188 144.088s-89.73 94.693 19.846 28.416c0 0 9.895.04 10.684-4.424 0 0 .24-.697.397-1.826.263-1.88.3-4.957-1.366-8.014 0 0 3.04 7.55 8.03 5.453 0 0 2.58-13.422-9.01-10.484l-2.57 4.61s.91-19.31 10.97-5.05c0 0 1.4 2.31 4.79 5.47 0 0 4.32-2.83-.92-11.3 0 0-15.01-20.17-17.97 9.62l-5.48 7.13s-86.67 61.45-15.79-6.08"/><path fill="#231F20" d="M57.46 167.518l-4.253 20.014c5.992-.48 10.486-8.39 10.486-14.74 0-4.436-2.157-8.15-7.43-8.15-9.708 0-15.52 5.453-15.52 14.563 0 3.055.78 3.535.838 4.074-4.13 0-6.41-1.5-6.41-5.82 0-7.97 11.03-15.58 21.04-15.58 9.83 0 14.14 5.63 14.14 11.8 0 7.61-6.53 16.06-17.31 16.06h-.3l-3.65 17.08h-8.63l8.15-38.11 8.87-1.2zm25.75-2.638l-6.892 32.358c-.18.898-.3 1.44-.3 1.918 0 1.318.66 2.217 2.996 2.217 2.397 0 5.514-3.355 7.91-5.273h2.038c-2.757 2.756-9.528 10.727-14.202 10.727-4.615 0-7.43-2.037-7.43-6.53 0-.9.12-1.92.358-3.058l6.653-31.16 8.87-1.2z"/><path fill="#231F20" d="M98.67 202.512c2.936 0 7.97-3.475 10.066-7.91h2.697c-3.416 6.172-9.168 12.225-16.898 12.225-5.752 0-8.87-4.373-8.87-9.527 0-7.61 3.237-20.973 14.143-20.973 4.914 0 7.67 2.037 7.67 6.232 0 7.3-7.85 11.5-13.542 12.22-.12.96-.18 1.85-.18 2.57 0 3.95 2.577 5.15 4.914 5.15zm3.115-23.01c-3.355 0-6.112 6.77-7.37 12.404 5.513-.06 9.408-4.795 9.467-9.05 0-1.256-.3-3.354-2.097-3.354z"/><path fill="#231F20" d="M139.597 176.865l-4.254 20.373c-.18.898-.3 1.617-.3 2.22 0 1.257.48 1.915 1.856 1.915.66 0 1.55-.838 2.51-2.217 0-4.973 2.15-7.73 4.55-7.91 2.15-3.895 3.53-9.23 4.55-13.78l8.69-1.8v.84c0 9.887 4.01 12.883 4.07 19.893l-.06 1.26c1.67-1.5 3.17-3.06 3.89-3.9l1.56 2.03c-1.68 1.32-4.08 3.41-6.47 5.45-1.56 3.29-4.98 5.57-10.55 5.57-5.52 0-8.75-1.26-9.83-4.74-2.16 2.75-4.32 4.73-6.06 4.73-4.2 0-6.47-1.8-7.19-4.68-1.8 2.51-4.5 5.03-8.21 5.03-5.75 0-7.43-4.08-7.43-7.61 0-10.31 3.71-22.65 15.7-22.65 1.44 0 2.94.6 4.01 1.49l.36-1.56h8.57zm-9.528 4.494c-.96-.84-2.1-1.08-2.94-1.08-4.5 0-8.09 9.52-8.09 17.68 0 3.59 1.97 4.25 3.47 4.25 1.37 0 2.69-1.38 3.89-3.06 0-.6.12-1.26.3-1.92l3.35-15.88zm14.56 17.37c-.72 0-1.38-.18-2.1-.48-.06.3-.12.66-.12.96 0 2.57 2.81 4.07 5.15 4.07 2.04 0 4.97-2.52 4.97-7.13 0-3.72-2.7-6.9-2.82-14.39-.96 2.94-1.8 6.77-3.12 9.77 1.44.48 1.98 1.55 1.98 3.35 0 2.28-1.86 3.83-3.96 3.83zm22.41-1.44c0-7.61 3.23-20.98 14.14-20.98 4.91 0 7.67 2.03 7.67 6.23 0 7.31-7.85 11.5-13.54 12.22-.12.96-.18 1.86-.18 2.57 0 3.96 1.97 5.15 4.31 5.15 2.81 0 5.21-1.62 7.67-3.84 0 6.47-5.22 8.15-11.21 8.15-5.75 0-8.87-4.38-8.87-9.53zm16.12-17.8c-3.36 0-6.11 6.77-7.37 12.4 5.51-.06 9.41-4.8 9.46-9.05 0-1.26-.3-3.36-2.1-3.36zm14.4 27.32c-2.64 0-4.8-2.16-4.8-4.8s2.15-4.74 4.79-4.74 4.73 2.09 4.73 4.73c0 2.63-2.1 4.79-4.74 4.79zm3.41-13.9h-3.96c0-8.45 10.9-11.57 10.9-20.67 0-2.94-1.56-4.14-3.3-4.14-2.28 0-4.79 1.97-4.79 4.97 0 1.38.6 3.47 2.27 3.95-1.02 1.68-2.7 2.52-4.38 2.52-2.34 0-4.56-1.68-4.56-5.04 0-4.08 3.53-9.65 12.58-9.65 8.21 0 9.59 3.23 9.59 7.25 0 11.56-11.45 11.86-14.38 20.79z"/><path fill="#FFE8BA" d="M205.774 158.973c-10.44 0-16.697 6.06-18.153 12.594-1.76-.723-3.88-1.148-6.43-1.148-8.52 0-14.16 5.33-17.24 12.45-.48-1.78-.82-3.77-.82-6.37v-8.1l-16.43 3.4.18-.86h-20.54l-.01.06c-5.69.08-10.48 2.29-14.08 6.2-1.73-3.73-5.56-6.81-12.43-6.81-5.47 0-9.76 2.2-12.94 5.67l3.88-18.19-20.27 2.74c-3.27-2.83-7.97-4.67-14.26-4.67-12.46 0-26.94 9.39-26.94 21.49 0 6.2 3.3 10.3 8.98 11.41l-5.1 23.86h20.71l1.75-15.04c1.7-.31 8.18 3.96 9.67 3.34l-3.36-5c-.32 1.55-.48 2.95-.48 4.27 0 7.55 5.24 12.44 13.34 12.44 3.32 0 6.48-1.6 9.57-4 2.59 2.51 6.13 4 10.21 4 4.66 0 9.14-1.63 13.12-4.64 2.33 3.14 6.08 4.99 10.72 4.99 2.15 0 4.89-.49 7.72-2.31 2.1 1.26 4.71 1.94 7.68 1.94 2.19 0 4.16-.88 5.88-2.12 2.56 1.4 5.9 2.11 10 2.11 6.11 0 11.11-2.23 14.19-6.2 2.61 3.82 6.91 6.19 12.06 6.19 6.58 0 10.64-1.85 13.15-4.24 1.96 2.58 5.04 4.25 8.51 4.25 5.87 0 10.64-4.8 10.64-10.7 0-2.3-.74-4.43-1.98-6.17l.36-1.09c.67-2.06 2.33-3.44 4.98-5.54 4.09-3.24 9.69-7.66 9.69-17.11 0-6-2.68-13.16-15.49-13.16zm-14.655 34.57c-1.11.832-2.03 1.88-2.74 3.068l-1.02-.45c1.41-1.03 2.68-2.23 3.77-3.57 0 .12-.02.23-.02.34v.62z"/><path fill="#8A4573" d="M57.46 167.518l-4.253 20.014c5.992-.48 10.486-8.39 10.486-14.74 0-4.436-2.157-8.15-7.43-8.15-9.708 0-15.52 5.453-15.52 14.563 0 3.055.78 3.535.838 4.074-4.13 0-6.41-1.5-6.41-5.82 0-7.97 11.03-15.58 21.04-15.58 9.83 0 14.14 5.63 14.14 11.8 0 7.61-6.53 16.06-17.31 16.06h-.3l-3.65 17.08h-8.63l8.15-38.11 8.87-1.2zm25.75-2.638l-6.892 32.358c-.18.898-.3 1.44-.3 1.918 0 1.318.66 2.217 2.996 2.217 2.397 0 5.514-3.355 7.91-5.273h2.038c-2.757 2.756-9.528 10.727-14.202 10.727-4.615 0-7.43-2.037-7.43-6.53 0-.9.12-1.92.358-3.058l6.653-31.16 8.87-1.2z"/><path fill="#8A4573" d="M98.67 202.512c2.936 0 7.97-3.475 10.066-7.91h2.697c-3.416 6.172-9.168 12.225-16.898 12.225-5.752 0-8.87-4.373-8.87-9.527 0-7.61 3.237-20.973 14.143-20.973 4.914 0 7.67 2.037 7.67 6.232 0 7.3-7.85 11.5-13.542 12.22-.12.96-.18 1.85-.18 2.57 0 3.95 2.577 5.15 4.914 5.15zm3.115-23.01c-3.355 0-6.112 6.77-7.37 12.404 5.513-.06 9.408-4.795 9.467-9.05 0-1.256-.3-3.354-2.097-3.354z"/><path fill="#8A4573" d="M139.597 176.865l-4.254 20.373c-.18.898-.3 1.617-.3 2.22 0 1.257.48 1.915 1.856 1.915.66 0 1.55-.838 2.51-2.217 0-4.973 2.15-7.73 4.55-7.91 2.15-3.895 3.53-9.23 4.55-13.78l8.69-1.8v.84c0 9.887 4.01 12.883 4.07 19.893l-.06 1.26c1.67-1.5 3.17-3.06 3.89-3.9l1.56 2.03c-1.68 1.32-4.08 3.41-6.47 5.45-1.56 3.29-4.98 5.57-10.55 5.57-5.52 0-8.75-1.26-9.83-4.74-2.16 2.75-4.32 4.73-6.06 4.73-4.2 0-6.47-1.8-7.19-4.68-1.8 2.51-4.5 5.03-8.21 5.03-5.75 0-7.43-4.08-7.43-7.61 0-10.31 3.71-22.65 15.7-22.65 1.44 0 2.94.6 4.01 1.49l.36-1.56h8.57zm-9.528 4.494c-.96-.84-2.1-1.08-2.94-1.08-4.5 0-8.09 9.52-8.09 17.68 0 3.59 1.97 4.25 3.47 4.25 1.37 0 2.69-1.38 3.89-3.06 0-.6.12-1.26.3-1.92l3.35-15.88zm14.56 17.37c-.72 0-1.38-.18-2.1-.48-.06.3-.12.66-.12.96 0 2.57 2.81 4.07 5.15 4.07 2.04 0 4.97-2.52 4.97-7.13 0-3.72-2.7-6.9-2.82-14.39-.96 2.94-1.8 6.77-3.12 9.77 1.44.48 1.98 1.55 1.98 3.35 0 2.28-1.86 3.83-3.96 3.83zm22.41-1.44c0-7.61 3.23-20.98 14.14-20.98 4.91 0 7.67 2.03 7.67 6.23 0 7.31-7.85 11.5-13.54 12.22-.12.96-.18 1.86-.18 2.57 0 3.96 1.97 5.15 4.31 5.15 2.81 0 5.21-1.62 7.67-3.84 0 6.47-5.22 8.15-11.21 8.15-5.75 0-8.87-4.38-8.87-9.53zm16.12-17.8c-3.36 0-6.11 6.77-7.37 12.4 5.51-.06 9.41-4.8 9.46-9.05 0-1.26-.3-3.36-2.1-3.36zm14.4 27.32c-2.64 0-4.8-2.16-4.8-4.8s2.15-4.74 4.79-4.74 4.73 2.09 4.73 4.73c0 2.63-2.1 4.79-4.74 4.79zm3.41-13.9h-3.96c0-8.45 10.9-11.57 10.9-20.67 0-2.94-1.56-4.14-3.3-4.14-2.28 0-4.79 1.97-4.79 4.97 0 1.38.6 3.47 2.27 3.95-1.02 1.68-2.7 2.52-4.38 2.52-2.34 0-4.56-1.68-4.56-5.04 0-4.08 3.53-9.65 12.58-9.65 8.21 0 9.59 3.23 9.59 7.25 0 11.56-11.45 11.86-14.38 20.79z"/><path fill="#D0D2D3" d="M111.89 158.12l1.196-1.558s-.337-5.99 3.58-13.484c0 0-4.757 6.46-4.128 12.898l-.648 2.144zm15.296-15.43s3.858 8.39 2.645 14.412l2.65 1.017-1.82-1.54s2.27-3.81-3.47-13.89z"/><path fill="#CCC" d="M121.115 166.254s.55-6.523-1.366-8.014l2.7-2.264s-.13 6.607 4.12 7.523c0 0 1.99.91 3.24-1 0 0-1.58-10.56-4.83-11.9 0 0-5.87.95-9.88 4.73 0 0 6.58-5.58 10.98-5.41 0 0 6.61 10.49 4.54 13.58 0 0-6.52 5.66-8.63-6.09l-.92.7s1.2 5.97 0 8.13zm-2.912-13.92s2.2-6.69 4.583-7.845c0 0 2.453 1.79 1.5 4.82l-1.5 1.29 2.668-.67s-.132-4.7-2.668-6.15c0 0-3.63 3.54-4.583 8.54zm3.96 5.786s-1.542-2.777-8.663 4.017c0 0 2.72 5.238 8.117 0l-.14 3.06c0-.002 1.637-4.6.687-7.077z"/><path fill="#FFF" d="M121.115 158.12s-.705-1.222-7.035 4.017c0 0 2.376 4.67 7.748-.663l.958 2.556s-.305-6.03-1.67-5.91z"/></svg>