<?xml version="1.0" encoding="utf-8"?>
<!-- Generator: Adobe Illustrator 16.0.0, SVG Export Plug-In . SVG Version: 6.00 Build 0)  -->
<!DOCTYPE svg PUBLIC "-//W3C//DTD SVG 1.1//EN" "http://www.w3.org/Graphics/SVG/1.1/DTD/svg11.dtd">
<svg version="1.1" xmlns="http://www.w3.org/2000/svg" xmlns:xlink="http://www.w3.org/1999/xlink" x="0px" y="0px" width="250px"
	 height="250px" viewBox="0 0 250 250" enable-background="new 0 0 250 250" xml:space="preserve">
<g id="Layer_2" display="none">
	<rect x="32.5" y="36" display="inline" fill="#54514D" width="171" height="174"/>
</g>
<g id="Layer_1">
	<g id="Layer_2_1_">
	</g>
	<g>
		<path opacity="0.15" d="M212.979,142.394c0,0-1.466-1.901-4.359-3.979l-0.063-3.755c0.108-0.059,6.854-3.664,3.452-10.079
			c0,0-1.24-1.606-3.682-3.477l-0.595-35.163l-8.936-0.119l3.597-37.782L54.539,45.482v9.404h-9.56l9.56,19.488l7.594,1.044
			l7.085,27.93l-0.114,0.007L58.54,121.772c-0.14-0.015-0.28-0.026-0.42-0.035c-1.604-0.17-3.239,0.002-4.734,0.795
			c0,0-5.29,3.821-1.73,11.243L32.429,167.29l19.58,7.917l8.201,3.427l-0.014,0.329l15.465,6.126l23.148,9.166l3.104,1.231
			l39.394,15.603l17.797-6.716l18.484,3.468l5.065-12.354l-31.923-0.838l2.196-3.833l0.006,0.276l53.937-2.019l2.511-5.563
			l-0.55-32.498c0.075,0.355,0.129,0.728,0.127,1.133C208.958,152.146,216.425,146.324,212.979,142.394z"/>
		<path fill="#FFFFFF" d="M209.215,137.374c0,0-1.467-1.902-4.361-3.979l-0.063-3.755c0.109-0.06,6.854-3.665,3.452-10.08
			c0,0-1.239-1.605-3.682-3.477l-0.595-35.162l-8.936-0.12l3.597-37.783L50.773,40.462v9.404h-9.56l9.56,19.488l7.594,1.045
			l7.085,27.929l-0.113,0.006l-10.565,18.418c-0.14-0.015-0.28-0.026-0.42-0.035c-1.604-0.17-3.239,0.002-4.735,0.795
			c0,0-5.29,3.821-1.73,11.244L28.665,162.27l19.579,7.917l8.201,3.427l-0.014,0.33l15.465,6.126l23.148,9.167l3.105,1.23
			l39.394,15.602l17.797-6.716l18.483,3.468l5.067-12.354l-31.924-0.839l2.195-3.833l0.006,0.276l53.938-2.017l2.51-5.563
			l-0.549-32.499c0.074,0.356,0.127,0.729,0.126,1.134C205.193,147.126,212.66,141.304,209.215,137.374z"/>
		<polygon fill="#40BFF2" points="178.891,190.467 173.823,202.82 120.294,192.78 		"/>
		<polygon fill="#40BFF2" points="50.773,69.354 41.214,49.866 60.069,49.866 		"/>
		<polygon fill="#1B75BB" points="137.543,206.068 178.891,190.467 132.033,189.236 		"/>
		<polygon fill="#17BFF2" points="110.005,195.162 28.665,162.27 65.34,98.334 		"/>
		<polygon fill="#1B75BB" points="50.773,40.462 50.773,69.354 63.665,71.127 		"/>
		<polygon fill="#35CCEF" points="193.521,96.656 66.332,101.792 50.773,40.462 198.627,43.019 		"/>
		<path fill="#FFFFFF" d="M105.969,177.857c2.89-12.999-6.214-26.083-20.335-29.221c-11.898-2.645-23.533,2.632-28.638,12.129
			l-0.565,13.178l15.465,6.126c1.866-3.449,4.197-7.033,6.958-9.883c0,0,6.069,3.299,14.199,3.838c0,0,2.491,7.09,1.991,15.212
			l3.105,1.23C102.004,187.277,104.834,182.961,105.969,177.857z"/>
		<path fill="#17BFF2" d="M204.118,89.915L65.34,98.334l-8.344,62.431c5.105-9.497,16.74-14.773,28.638-12.129
			c14.121,3.138,23.225,16.222,20.335,29.221c-1.134,5.104-3.964,9.42-7.819,12.609l39.394,15.602L204.118,89.915z"/>
		<path fill="#FFFFFF" d="M106.328,173.304c0,0,29.683-9.083,48.386-33.586l11.281,23.905c0,0-4.779,8.25-61.508,15.708"/>
		<path fill="#E6E7E8" d="M117.112,168.947c0,0-6.62,4.227-11.481,10.233c0,0-1.395-3.654-6.662-5.271L117.112,168.947z"/>
		<path fill="#D0D1D2" d="M123.161,124.463c0,0,14.331-5.502,6.067,9.742l-2.234-2.098L123.161,124.463z"/>
		<path fill="#919396" d="M126.156,129.396c0,0,7.194-4.785,2.545,3.361C124.052,140.907,126.156,129.396,126.156,129.396z"/>
		<path fill="#FFFFFF" d="M48.037,139.978c-1.396,18.38,16.07,34.699,39.014,36.445c22.945,1.747,42.682-11.745,44.077-30.127
			c1.399-18.385-16.067-34.705-39.014-36.453C69.168,108.1,49.437,121.591,48.037,139.978z"/>
		<path fill="#D0D1D2" d="M60.762,141.743c-1.115,14.652,13.547,27.708,32.75,29.171c19.202,1.459,35.671-9.232,36.786-23.88
			c1.113-14.647-13.551-27.705-32.753-29.164C78.344,116.408,61.874,127.1,60.762,141.743z"/>
		<path fill="#D0D1D2" d="M63.279,120.549c0,0-7.88-6.102-13.66-3.037c0,0-7.597,5.477,1.519,16.058l2.191,2.832
			c0,0,1.944-1.218,1.797-4.194c0,0-10.453-13.764,5.157-8.3C60.284,123.908,62.866,123.921,63.279,120.549z"/>
		<path fill="#FFFFFF" d="M100.147,142.675c-0.587,7.756,5.312,14.523,13.178,15.123c7.865,0.599,14.723-5.204,15.312-12.957
			c0.59-7.752-5.309-14.524-13.179-15.122C107.594,129.121,100.739,134.919,100.147,142.675z"/>
		
			<ellipse transform="matrix(-0.9971 -0.0758 0.0758 -0.9971 151.5297 288.861)" fill="#FFFFFF" cx="81.246" cy="141.555" rx="17.633" ry="17.518"/>
		<path fill="#919396" d="M59.759,122.518c0.012-0.011-5.629,7.085-5.846,9.527l-1.041-2.035
			C52.873,130.01,44.995,116.57,59.759,122.518z"/>
		<path fill="#D0D1D2" d="M63.665,120.58c0,0-7.882-6.103-13.661-3.037c0,0-7.594,5.477,1.52,16.058l2.194,2.837
			c0,0,1.945-1.221,1.796-4.197c0,0-10.452-13.764,5.157-8.302C60.669,123.938,63.251,123.952,63.665,120.58z"/>
		<path fill="#6D6F71" d="M99.569,158.919c0,0,1.392,3.669,7.445-1.338l-0.142,0.703l-0.351,0.547c0,0-6.223,3.864-7.537-0.19"/>
		<path fill="#FFFFFF" d="M115.833,169.295"/>
		<g>
			<path fill="#D0D1D2" d="M78.854,170.187c-2.761,2.85-5.093,6.434-6.958,9.883l23.148,9.167c0.5-8.122-1.991-15.212-1.991-15.212
				C84.924,173.485,78.854,170.187,78.854,170.187z"/>
		</g>
		<path fill="#0B8ECC" d="M100.107,153.301c0,0-1.585-3.88-4.541,2.577l3.921,3.861l3.857-3.012
			C103.346,156.728,101.428,150.421,100.107,153.301z"/>
		<path fill="#FFFFFF" d="M96.41,155.877l1.689,1.651C98.099,157.528,97.848,155.271,96.41,155.877z"/>
		<circle fill="#FFFFFF" cx="152.281" cy="133.134" r="7.452"/>
		<path fill="#FFFFFF" d="M101.258,157.768l1.335-0.933C102.593,156.835,101.695,156.31,101.258,157.768z"/>
		<g>
			<path fill="#6D6F71" d="M95.297,161.043c0,0,9.228,1.33,11.717-3.462c0,0,4.385,2.852-0.912,4.514c0,0,3.484,1.528,2.242,4.03
				c0,0-3.103,0.838-4.782-0.965c0,0-3.416-2.898-9.829-4.034l2.451-1.035L95.297,161.043z"/>
			<path fill="#BE202E" d="M96.314,161.354c0,0,6.586,1.147,11.073-2.579c0,0,3.091,1.601-2.943,3.475c0,0,3.394,0.693,3.472,2.884
				c0,0-0.63,1.53-3.272-0.177C104.644,164.957,101.512,162.616,96.314,161.354z"/>
		</g>
		<path fill="#BBBDBF" d="M100.723,165.236c0,0,8.729,5.468,9.161,0.834C109.884,166.07,111.764,172.647,100.723,165.236z"/>
		<polygon fill="#BBBDBF" points="93.845,158.999 91.659,160.707 93.574,161.92 90.628,160.659 		"/>
		<path fill="#BBBDBF" d="M104.357,157.269c0,0,1.695,0.721,2.841-0.596c0,0,1.851,1.01,1.932,2.454c0,0,0.367-3.082-3.085-2.687
			C106.044,156.44,107.174,157.39,104.357,157.269z"/>
		<polygon fill="#C9C9C9" points="151.529,80.222 203.966,80.921 205.616,178.491 198.483,180.527 150.955,182.879 150.287,86.372 
					"/>
		<polygon fill="#A0A0A0" points="147.406,83.247 149.168,186.071 203.106,184.055 205.616,178.491 153.365,180.459 151.529,80.222 
					"/>
		<path fill="#FFFF00" d="M143.754,100.243l-23.766-6.933c0,0,26.162,9.551,1.98,16.38c0,0,25.465-8.278,17.258,19.68l6.005-13.914
			l-0.362-20.738L143.754,100.243z"/>
		<g>
			<g>
				<g>
					<path fill="#999999" d="M187.247,99.005c0.103-1.652-0.305-3.344-1.269-4.816c0.499-0.52,0.743-1.035,0.728-1.533
						c-0.019-0.591-0.399-0.929-0.417-0.944l-0.008-0.007l-0.01-0.006c-0.208-0.138-0.458-0.208-0.74-0.21
						c-0.364-0.003-0.726,0.108-0.994,0.219c-1.168-1.123-2.856-1.776-4.652-1.792c-1.832-0.018-3.552,0.624-4.745,1.761
						c-0.175-0.067-0.431-0.146-0.675-0.147c-0.334-0.003-0.499,0.141-0.581,0.263c-0.188,0.281-0.141,0.75,0.145,1.436
						c-0.25,0.553-0.379,1.135-0.384,1.732c-0.027,2.812,2.729,5.127,6.144,5.159c0.371,0.003,0.742-0.021,1.104-0.071l0.112,0.204
						c-0.785,0.452-1.271,1.276-1.28,2.192c-0.014,1.322,0.986,2.42,2.271,2.564c-0.519,0.206-1.073,0.354-1.639,0.434
						c-0.347,0.05-0.696,0.068-1.047,0.07c-0.35-0.002-0.699-0.035-1.046-0.083c0.059,0.006,0.01,0,0.022,0.002l-0.012-0.002
						l-0.018-0.003l-0.04-0.006l-0.074-0.013l-0.151-0.025c-0.046-0.009-0.107-0.017-0.145-0.028l-0.114-0.029
						c-0.079-0.02-0.149-0.033-0.234-0.058l-0.249-0.072c-0.327-0.105-0.646-0.225-0.95-0.373c-0.605-0.292-1.153-0.664-1.62-1.087
						c-0.233-0.212-0.451-0.432-0.643-0.665c-0.197-0.228-0.367-0.468-0.521-0.706c-0.305-0.479-0.536-0.962-0.693-1.423
						c-0.158-0.461-0.252-0.895-0.303-1.282c-0.052-0.386-0.06-0.725-0.052-1.002c0.005-0.069,0.005-0.135,0.006-0.197
						c0.007-0.062,0.012-0.119,0.015-0.172c0.009-0.107,0.017-0.198,0.03-0.271c0.019-0.148,0.028-0.226,0.028-0.226
						c0.003-0.021,0.007-0.046,0.008-0.067c0.036-0.552-0.382-1.03-0.936-1.066c-0.552-0.036-1.028,0.382-1.065,0.935v0.018
						c0,0-0.008,0.103-0.021,0.294c-0.009,0.096-0.011,0.216-0.012,0.356c0,0.07,0,0.144-0.002,0.225
						c0.003,0.08,0.006,0.166,0.009,0.255c0.017,0.359,0.055,0.796,0.155,1.288c0.101,0.491,0.258,1.039,0.497,1.608
						c0.239,0.569,0.571,1.157,0.989,1.726c0.212,0.283,0.444,0.566,0.704,0.83c0.256,0.269,0.538,0.524,0.841,0.762
						c0.606,0.48,1.301,0.888,2.052,1.192c0.375,0.154,0.767,0.272,1.166,0.373c0.396,0.097,0.809,0.159,1.217,0.202
						c0.408,0.031,0.821,0.043,1.23,0.02c0.409-0.026,0.814-0.073,1.212-0.156c0.794-0.164,1.552-0.44,2.234-0.802
						c0.341-0.182,0.664-0.381,0.964-0.599c0.306-0.213,0.583-0.449,0.842-0.689c0.517-0.485,0.947-1.003,1.285-1.519
						c0.34-0.517,0.592-1.028,0.778-1.493c0.188-0.466,0.306-0.889,0.386-1.239c0.02-0.087,0.038-0.172,0.056-0.25
						c0.014-0.08,0.025-0.154,0.038-0.224c0.024-0.138,0.043-0.256,0.052-0.351c0.022-0.19,0.034-0.292,0.034-0.292
						C187.264,99.086,187.26,99.044,187.247,99.005"/>
				</g>
			</g>
		</g>
		<g>
			<circle fill="#0071BC" cx="84.264" cy="138.741" r="12.516"/>
			<path fill="#0F4481" d="M87.355,141.58c-3.541-0.302-6.161-3.415-5.859-6.949c0.303-3.537,3.413-6.16,6.952-5.857
				c3.537,0.301,6.16,3.415,5.857,6.952C94.005,139.262,90.891,141.884,87.355,141.58z"/>
			<path fill="#FFFFFF" d="M88.662,137.557c-1.882-0.16-3.273-1.813-3.112-3.692c0.16-1.878,1.812-3.276,3.693-3.115
				c1.88,0.161,3.273,1.817,3.112,3.698C92.194,136.324,90.541,137.717,88.662,137.557z"/>
			<circle fill="#FFFFFF" cx="82.759" cy="138.951" r="1.663"/>
		</g>
		<path fill="#ACAFB1" d="M65.34,149.096c0,0,23.223-5.799,33.276-4.137c0,0-0.638,12.036-15.706,14.808
			C82.91,159.767,69.165,160.607,65.34,149.096z"/>
		<g>
			<circle fill="#0071BC" cx="116.94" cy="140.388" r="9.304"/>
			<path fill="#0F4481" d="M119.465,142.754c-2.641-0.055-4.733-2.237-4.678-4.876c0.056-2.637,2.237-4.732,4.876-4.677
				c2.639,0.055,4.732,2.238,4.678,4.876S122.102,142.81,119.465,142.754z"/>
			<path fill="#FFFFFF" d="M120.241,139.706c-1.403-0.029-2.514-1.188-2.484-2.59c0.029-1.4,1.188-2.518,2.591-2.487
				c1.402,0.028,2.513,1.191,2.485,2.595C122.803,138.624,121.643,139.735,120.241,139.706z"/>
			<circle fill="#FFFFFF" cx="115.93" cy="141.022" r="1.236"/>
		</g>
		<path fill="#ACAFB1" d="M99.588,145.154c0,0,17.668-2.059,28.691,1.919c0,0-2.558,12.902-14.954,10.725
			C113.326,157.798,101.915,157.548,99.588,145.154z"/>
		<path fill="#EF4B4D" d="M99.869,162.182c0,0,2.453-1.739,5.077,0.635c0,0-0.755-1.115-1.935-1.278c0,0,3.257-0.064,3.175,2.319
			c0,0-1.083,1.15-4.427-1.686C101.76,162.172,100.99,161.512,99.869,162.182z"/>
		
			<ellipse transform="matrix(-0.9803 -0.1978 0.1978 -0.9803 360.4582 399.2278)" fill="#455156" cx="200.163" cy="181.616" rx="1.548" ry="1.171"/>
		<polygon fill="#E6F6FF" points="154.848,82.812 186.173,83.061 158.787,85.514 154.779,120.773 		"/>
		<g>
			<path fill="#FFFFFF" d="M208.242,119.56c0,0-13.932-18.179-41.219-3.527c0,0-2.782,5.015-0.242,7.669
				c0.008-0.004,43.484-10.3,37.999,5.943C204.78,129.645,211.672,126.027,208.242,119.56z"/>
			<path fill="#E5E5E5" d="M166.781,123.702c1.495,1.561,4.832,2.305,11.673,0.723c0,0,26.347-5.096,26.326,5.22
				C210.266,113.402,166.789,123.697,166.781,123.702z"/>
		</g>
		<g>
			<path fill="#FFFFFF" d="M209.215,137.374c0,0-13.932-18.18-41.219-3.528c0,0-0.371,0.674-0.721,1.65
				c-0.389,7.428,4.608,5.601,4.608,5.601c43.785-6.699,33.31,6.029,33.31,6.029S212.66,141.304,209.215,137.374z"/>
			<path fill="#E5E5E5" d="M171.884,141.097c0,0-4.997,1.827-4.608-5.601c-1.167,3.281-2.07,10.03,12.149,6.741
				c0,0,25.787-5.428,25.769,4.889C205.193,147.126,215.669,134.397,171.884,141.097z"/>
		</g>
		<path fill="#FFFEEB" d="M67.838,86.333c-0.1-1.155-0.314-2.338-0.642-3.552c-0.329-1.212-0.772-2.462-1.331-3.748l0.581-0.016
			c2.375-0.062,4.263-0.543,5.668-1.444c1.403-0.901,2.087-2.056,2.051-3.467c-0.02-0.761-0.275-1.535-0.763-2.324
			c-0.49-0.789-1.519-1.947-3.089-3.477c-2.016-1.962-3.383-3.584-4.101-4.865c-0.719-1.283-1.097-2.622-1.133-4.017
			c-0.073-2.805,1.158-5.066,3.694-6.782c2.536-1.716,5.973-2.63,10.31-2.743l1.2-0.031c0.572,0.952,1.102,1.97,1.586,3.051
			c0.485,1.083,0.949,2.245,1.393,3.486c-0.459-0.084-0.9-0.144-1.324-0.181c-0.424-0.036-0.829-0.048-1.218-0.039
			c-1.826,0.048-3.323,0.409-4.494,1.081c-1.17,0.673-1.743,1.5-1.717,2.484c0.015,0.57,0.259,1.194,0.734,1.873
			c0.475,0.677,1.486,1.765,3.033,3.264c2.411,2.284,3.984,4.104,4.716,5.457c0.731,1.352,1.118,2.805,1.159,4.359
			c0.09,3.456-1.29,6.224-4.135,8.305c-2.847,2.081-6.748,3.185-11.7,3.315L67.838,86.333z"/>
		<path fill="#FFFEEB" d="M87.991,85.283c0.444-2.2,0.768-4.695,0.97-7.482c0.201-2.791,0.292-5.874,0.272-9.252l-2.813-0.14
			c0.638-0.889,1.174-1.78,1.609-2.671c0.433-0.894,0.787-1.793,1.06-2.705c-0.049-1.87-0.192-3.829-0.428-5.878
			c-0.236-2.047-0.567-4.217-0.991-6.505c1.729-0.236,3.403-0.427,5.02-0.572c1.618-0.146,3.158-0.237,4.618-0.275
			c1.006-0.026,2.066-0.038,3.186-0.036c1.119,0.003,2.284,0.027,3.498,0.076c0.172,0.503,0.306,1.002,0.398,1.501
			c0.094,0.497,0.146,0.975,0.158,1.434c0.012,0.476-0.037,0.977-0.149,1.503s-0.286,1.087-0.521,1.679
			c-1.233-0.015-2.395-0.021-3.478-0.017c-1.084,0.005-2.129,0.028-3.133,0.07c0.143,1.075,0.241,1.977,0.294,2.705
			c0.053,0.728,0.088,1.426,0.105,2.091l0.03,1.118l8.078-0.354c0.249,0.819,0.425,1.481,0.53,1.986
			c0.104,0.505,0.163,0.97,0.174,1.398c0.012,0.444,0,0.889-0.035,1.333c-0.034,0.444-0.091,0.899-0.17,1.36
			c-1.64,0.187-3.137,0.333-4.494,0.439c-1.356,0.107-2.594,0.183-3.711,0.227c-0.029,1.492-0.074,3.059-0.135,4.702
			c-0.06,1.645-0.135,3.355-0.225,5.135c0.365,0.006,0.764,0.008,1.199,0.004c0.434-0.003,1.084-0.016,1.952-0.039
			c1.186-0.031,2.317-0.076,3.389-0.137c1.07-0.06,2.12-0.134,3.146-0.224c0.029,1.109-0.091,2.211-0.359,3.304
			c-0.268,1.093-0.685,2.219-1.248,3.375c-2.163,0.311-4.251,0.555-6.268,0.735c-2.016,0.18-3.801,0.29-5.353,0.33
			c-0.571,0.015-0.966,0.021-1.182,0.018c-0.217-0.002-0.384-0.009-0.498-0.022L87.991,85.283z"/>
		<path fill="#FFFEEB" d="M110.828,84.734c0.215-2.289,0.351-4.71,0.411-7.267c0.058-2.554,0.025-6.211-0.098-10.966
			c-0.099-3.789-0.252-7.049-0.46-9.778c-0.208-2.731-0.488-5.116-0.837-7.153l9.407-0.578c0.011,0.413,0.015,1.055,0.016,1.927
			c0,0.873,0.006,1.532,0.019,1.974c0.043,1.713,0.147,4.347,0.309,7.904c0.16,3.557,0.266,6.277,0.315,8.165
			c0.049,1.886,0.069,3.603,0.065,5.149c-0.005,1.546-0.037,2.995-0.091,4.344c0.708,0.014,1.439,0.019,2.192,0.015
			c0.755-0.004,1.792-0.023,3.116-0.057c0.64-0.016,1.69-0.069,3.151-0.153c0.204-0.021,0.341-0.033,0.408-0.036
			c0.084,0.522,0.14,0.945,0.171,1.269c0.03,0.325,0.049,0.614,0.056,0.868c0.018,0.649,0.001,1.319-0.05,2.011
			c-0.05,0.691-0.134,1.404-0.252,2.136c-0.185,0.004-0.479,0.02-0.889,0.047c-0.412,0.025-0.73,0.043-0.959,0.049
			c-1.006,0.026-3.141,0.035-6.406,0.024c-3.269-0.01-6.042,0.015-8.325,0.074L110.828,84.734z"/>
		<path fill="#FFFEEB" d="M131.016,83.662c0.394-4.149,0.665-8.056,0.81-11.716c0.144-3.66,0.174-7.082,0.091-10.269
			c-0.059-2.267-0.185-4.408-0.373-6.427c-0.191-2.017-0.446-3.893-0.765-5.63c3.4-0.121,6.314-0.279,8.74-0.478
			c2.43-0.198,4.336-0.442,5.721-0.732c0.301,1.024,0.522,1.847,0.666,2.47c0.142,0.623,0.217,1.124,0.227,1.505
			c0.011,0.27-0.014,0.59-0.06,0.964c-0.048,0.374-0.121,0.833-0.222,1.374c-0.863,0.229-1.751,0.422-2.657,0.582
			c-0.911,0.158-1.822,0.282-2.732,0.369c0.009,0.333,0.035,0.922,0.08,1.77c0.047,0.848,0.075,1.519,0.086,2.008
			c0.042,1.507,0.067,2.934,0.078,4.281c0.012,1.348,0.016,2.745,0.005,4.188l8.413-0.601l0.013,0.428
			c0.02,0.746-0.031,1.595-0.153,2.55c-0.127,0.956-0.329,2.078-0.617,3.371c-1.21,0.031-2.436,0.086-3.678,0.167
			c-1.246,0.081-2.516,0.186-3.814,0.314c-0.102,1.288-0.169,2.622-0.202,4.002c-0.032,1.381-0.031,2.792,0.007,4.235l0.045,1.712
			c-1.877-0.126-3.625-0.226-5.248-0.304C133.85,83.719,132.364,83.674,131.016,83.662z"/>
		<path fill="#FFFEEB" d="M151.827,75.979c0.094-1.763,0.159-3.544,0.196-5.344c0.04-1.799,0.048-3.617,0.033-5.453
			c-0.034-3.353-0.156-6.367-0.364-9.04c-0.213-2.671-0.521-5.052-0.93-7.142l7.744-0.57c0.323,2.997,0.576,6.097,0.756,9.302
			c0.179,3.205,0.283,6.521,0.316,9.947c0.015,1.506-0.027,3.905-0.123,7.199c-0.019,0.293-0.023,0.515-0.021,0.661
			c-1.445,0.135-2.791,0.24-4.041,0.314C154.145,75.927,152.954,75.967,151.827,75.979z"/>
		<path fill="#FFFEEB" d="M163.239,75.649c0.391-1.693,0.687-3.614,0.888-5.765c0.203-2.15,0.32-4.529,0.35-7.136l-2.28-0.143
			c0.53-0.678,0.979-1.359,1.342-2.042c0.364-0.683,0.664-1.375,0.898-2.074c-0.014-1.445-0.103-2.958-0.268-4.542
			c-0.162-1.583-0.4-3.262-0.714-5.033c1.405-0.161,2.766-0.287,4.08-0.38c1.313-0.092,2.563-0.143,3.748-0.155
			c0.814-0.008,1.676-0.004,2.585,0.013c0.905,0.016,1.853,0.049,2.832,0.1c0.135,0.392,0.233,0.779,0.304,1.165
			c0.067,0.385,0.104,0.754,0.108,1.109c0.003,0.367-0.046,0.753-0.142,1.158c-0.098,0.405-0.247,0.835-0.445,1.291
			c-1-0.028-1.942-0.047-2.821-0.057c-0.881-0.01-1.727-0.004-2.541,0.015c0.1,0.832,0.166,1.53,0.199,2.091
			c0.033,0.563,0.053,1.102,0.057,1.616l0.011,0.863l6.552-0.174c0.192,0.636,0.327,1.149,0.403,1.539
			c0.079,0.39,0.12,0.751,0.123,1.082c0.002,0.342-0.012,0.686-0.046,1.029c-0.032,0.342-0.087,0.691-0.156,1.047
			c-1.335,0.124-2.549,0.217-3.65,0.282c-1.103,0.066-2.104,0.11-3.012,0.13c-0.046,1.151-0.102,2.36-0.174,3.627
			c-0.072,1.269-0.156,2.588-0.254,3.96c0.294,0.01,0.62,0.016,0.972,0.019c0.354,0.002,0.879,0,1.584-0.006
			c0.964-0.01,1.879-0.031,2.748-0.063c0.872-0.034,1.722-0.079,2.556-0.135c0.007,0.856-0.105,1.705-0.337,2.545
			c-0.231,0.842-0.587,1.704-1.059,2.59c-1.759,0.212-3.454,0.375-5.092,0.489c-1.639,0.113-3.087,0.176-4.347,0.188
			c-0.462,0.004-0.782,0.004-0.957,0c-0.177-0.004-0.312-0.012-0.405-0.023L163.239,75.649z"/>
		<path fill="#FFFEEB" d="M189.812,48.479c-0.325,0.774-0.568,2.906-0.731,6.396c-0.159,3.491-0.214,8.002-0.16,13.533
			c-0.815-0.029-1.645-0.048-2.486-0.059c-0.844-0.011-1.72-0.011-2.625-0.002l-1.251,0.012c-0.104-3.072-0.188-6.006-0.25-8.802
			c-0.066-2.796-0.108-5.4-0.131-7.811l-0.031-3.433L189.812,48.479z M182.752,71.257l1.611-0.015
			c0.797-0.007,1.606-0.005,2.432,0.006c0.823,0.009,1.641,0.029,2.459,0.057c0.058,0.404,0.104,0.852,0.138,1.34
			c0.03,0.489,0.052,1.035,0.058,1.634l0.012,1.303l-6.666,0.1c0-0.024-0.001-0.061-0.001-0.111
			c-0.085-1.124-0.129-1.937-0.133-2.44c-0.006-0.256,0-0.528,0.02-0.816C182.694,72.026,182.719,71.675,182.752,71.257z"/>
		<path fill="#FFFFFF" d="M56.788,162.813c0,0-3.241,0.154-8.544,7.374l23.653,9.883L56.788,162.813z"/>
	</g>
</g>
</svg>
