<?xml version="1.0" encoding="utf-8"?>
<!-- Generator: Adobe Illustrator 16.0.0, SVG Export Plug-In . SVG Version: 6.00 Build 0)  -->
<!DOCTYPE svg PUBLIC "-//W3C//DTD SVG 1.1//EN" "http://www.w3.org/Graphics/SVG/1.1/DTD/svg11.dtd">
<svg version="1.1" id="Layer_1" xmlns="http://www.w3.org/2000/svg" xmlns:xlink="http://www.w3.org/1999/xlink" x="0px" y="0px"
	 width="250px" height="250px" viewBox="0 0 250 250" enable-background="new 0 0 250 250" xml:space="preserve">
<path opacity="0.15" d="M197.926,193.271l-0.988-1.466l-1.683-0.538c-0.753-0.24-1.411-0.537-2.017-0.86
	c14.886-14.957,24.089-35.573,24.089-58.341c0-26.01-12.016-49.202-30.787-64.363c-7.323-16.778-13.874-19.417-13.874-19.417
	l-0.087,0.292c-0.001,0-0.001,0-0.001,0l2.269-7.539c-12.581-11.298-24.621-5.939-24.621-5.939l-2.122,7.721
	c-3.767-1.673-10.853-2.452-21.738,5.413l-0.078,0.053c0.007-0.003,0.012-0.006,0.018-0.01c-0.763,0.553-1.544,1.149-2.346,1.79
	c-33.744,4.346-61.127,29.003-69.444,61.334c-0.486-0.042-0.975-0.074-1.472-0.074c-9.466,0-17.14,7.674-17.14,17.14
	c0,9.464,7.668,17.135,17.131,17.141c2.629,15.957,9.812,30.377,20.188,41.867l-0.512,0.587c-1.297,1.485-1.922,2.181-3.187,3.543
	l-0.906,0.977l-0.312,1.294c-0.249,1.032-1.016,4.278-1.016,4.278l0.719,1.582c0.685,1.507,1.645,2.889,2.855,4.103l0.16,0.16
	l0.174,0.146c2.248,1.887,3.437,2.855,5.782,4.711l0.266,0.209l0.291,0.173c0.968,0.576,1.63,0.966,2.382,1.399l0.963,2.135
	l2.76,0.401c0.87,0.129,1.349,0.194,2.14,0.294c1.829,0.436,3.014,0.698,4.676,1.028l0.852,0.695l1.501,0.165
	c1.108,0.12,1.662,0.178,2.768,0.272l0.831,0.074l0.81-0.195c1.375-0.332,2.058-0.509,3.415-0.887l0.745-0.205l0.65-0.419
	c1.466-0.943,2.789-1.943,3.957-2.982l0.464,0.839l2.061,0.569c1.481,0.41,2.366,0.646,3.625,0.966l1.447,1.063l1.429,0.121
	c1.252,0.105,1.88,0.152,3.132,0.231l1.392,0.089l1.243-0.634c0.365-0.187,0.667-0.342,0.952-0.49
	c3.782,0.592,7.65,0.911,11.584,0.973c1.339,0.515,2.452,0.926,4.055,1.504c1.031,0.587,1.67,0.944,2.828,1.584l1.735,0.96
	l1.928-0.467c0.7-0.169,1.365-0.413,1.987-0.728c0.779,0.063,1.504,0.114,2.534,0.181l0.387,0.025l0.383-0.033
	c3.628-0.314,6.239-0.844,8.219-1.669c0.033-0.012,1.614-0.686,3.315-1.911c1.218,0.936,2.687,1.563,4.38,1.789l2.527,1.114
	l2.017-0.845c1.736-0.728,3.282-1.278,4.728-1.687l2.146-0.607l1.01-1.986c0.429-0.845,0.64-1.267,1.052-2.12l1.152-2.381
	l-0.957-1.725c1.407,1.08,2.136,1.631,3.602,2.719l0.427,0.316l0.483,0.221c1.809,0.83,3.612,1.382,5.368,1.643
	c0.314,0.102,4.026,1.266,4.026,1.266l2.188-2.34c0.831-0.889,1.249-1.348,2.038-2.237c1.495-1.587,2.494-3.406,2.97-5.421
	c0.148-0.35,0.27-0.633,0.452-1.072l1.057-2.552l-1.562-2.277C199.036,194.909,198.663,194.363,197.926,193.271z"/>
<g>
	<path fill="#D8DB42" d="M131.426,207.079c-43.124,0-78.208-35.084-78.208-78.208s35.084-78.208,78.208-78.208
		c43.123,0,78.207,35.084,78.207,78.208S174.549,207.079,131.426,207.079z"/>
	<path fill="#74BF44" d="M131.426,55.163c40.643,0,73.707,33.065,73.707,73.708s-33.064,73.708-73.707,73.708
		s-73.708-33.065-73.708-73.708S90.783,55.163,131.426,55.163 M131.426,46.163c-45.678,0-82.708,37.029-82.708,82.708
		c0,45.677,37.03,82.708,82.708,82.708c45.677,0,82.707-37.031,82.707-82.708C214.133,83.192,177.103,46.163,131.426,46.163
		L131.426,46.163z"/>
</g>
<path fill="#74BF44" d="M196.592,192.81c-0.751-1.095-1.122-1.641-1.86-2.733l-0.988-1.466l-1.683-0.538
	c-0.995-0.318-1.872-0.713-2.604-1.173l-0.13-0.083l-0.135-0.072c-1.315-0.722-2.048-1.129-3.194-1.78
	c-1.036-0.96-1.667-1.556-2.789-2.628l-0.302-0.287l-0.344-0.234c-1.301-0.888-1.94-1.332-3.203-2.226l-0.654-0.463l-0.767-0.24
	c-0.262-0.081-0.579-0.169-0.932-0.26l-0.716-0.577c0.208-0.364,0.397-0.745,0.567-1.142c0.411-0.966,0.759-1.903,1.094-2.808
	c0.339-0.918,0.661-1.785,0.959-2.417l0.179-0.382l0.113-0.405c0.501-1.783,0.804-2.924,1.162-4.426l5.917-2.896l-1.624-3.97
	c-0.044-0.927-0.083-1.616-0.152-2.741l-0.335-5.423l-5.034,0.638c-1.426-1.383-3.064-2.361-4.284-2.818l-0.414-0.157
	c0,0-1.562-0.295-2.305-0.441l-2.767-0.546l-1.932,2.056c-0.394,0.419-0.702,0.745-1.003,1.055l-4.827,0.183l-6.343,0.198
	l0.167,2.666c-1.02,0.291-1.909,0.528-3.239,0.869l-1.914,0.489l-1.082,1.65c-0.448,0.683-0.699,1.054-1.132,1.683
	c-0.293-0.068-0.586-0.138-0.868-0.197l0.114-0.875l-1.372,0.286l0.155-1.85l-4.341,1.904l-3.996,0.104l-0.241,1.588l-0.846,0.171
	l-0.105,0.4c-2.409,1.023-4.089,1.637-7.028,2.603l-1.758,0.576l-0.681,1.094l-0.018-1.141l-2.14-1.493l-3.534-2.48l-2.291,1.365
	c-0.035-0.018-2.295-1.068-2.295-1.068l-2.173,1.048c-0.998,0.481-1.503,0.713-2.521,1.161l-1.677,0.736l-0.823,1.636
	c-0.78,1.547-1.237,3.083-1.358,4.558c-0.054,0.64-0.064,1.297-0.031,1.98l-0.109,0.379c-0.004,0.018-0.008,0.031-0.013,0.049
	c-0.617-0.512-1.038-0.865-1.736-1.453l-0.399-0.337l-0.459-0.249c-0.86-0.465-1.287-0.698-2.136-1.172l-0.49-0.271l-0.537-0.157
	c-2.995-0.885-4.448-1.352-7.407-2.376l-1.759-0.609l-0.863,0.331c-0.335-0.137-2.862-1.188-2.862-1.188l-1.792,0.582
	c-1.965,0.639-2.869,0.898-4.837,1.389l-0.78,0.195l-0.683,0.426c-0.589,0.367-1.136,0.656-1.626,0.86l-1.088,0.45l-0.781,0.883
	c-1.296,1.467-1.924,2.153-3.204,3.5l-1.282,1.346l-0.112,1.856c-0.08,1.326-0.118,1.994-0.183,3.337l-0.017,0.335l0.028,0.333
	c0.096,1.158,0.348,2.243,0.753,3.241l-1.725-0.888l-2.62,3.004c-1.297,1.485-1.922,2.182-3.187,3.544l-0.907,0.977l-0.312,1.293
	c-0.249,1.032-1.016,4.278-1.016,4.278l0.719,1.582c0.685,1.508,1.645,2.889,2.855,4.104l0.16,0.159l0.174,0.146
	c2.248,1.888,3.437,2.855,5.782,4.711l0.265,0.21l0.292,0.173c0.968,0.576,1.63,0.965,2.382,1.398l0.963,2.135l2.76,0.402
	c0.87,0.128,1.349,0.193,2.14,0.293c1.829,0.436,3.014,0.698,4.676,1.028l0.852,0.696l1.5,0.164
	c1.109,0.121,1.663,0.178,2.769,0.273l0.83,0.074l0.81-0.196c1.375-0.332,2.058-0.509,3.415-0.886l0.745-0.206l0.65-0.418
	c1.466-0.944,2.789-1.943,3.957-2.982l0.464,0.838l2.061,0.569c1.481,0.41,2.366,0.647,3.624,0.967l1.447,1.063l1.429,0.121
	c1.252,0.105,1.88,0.153,3.131,0.232l1.393,0.088l1.243-0.633c1.166-0.596,1.744-0.9,2.888-1.532l2.805-1.547
	c0,0-0.106-1.901-0.197-3.531c0.821,1.308,1.694,2.665,2.863,4.45l0.891,1.362l1.516,0.593c2.305,0.902,3.578,1.38,5.826,2.191
	c1.029,0.585,1.668,0.943,2.827,1.584l1.735,0.959l1.929-0.467c0.699-0.168,1.365-0.413,1.986-0.728
	c0.78,0.063,1.505,0.114,2.533,0.181l0.388,0.025l0.384-0.033c3.627-0.314,6.239-0.843,8.219-1.668
	c0.031-0.013,1.613-0.686,3.314-1.911c1.218,0.936,2.687,1.562,4.379,1.788l2.528,1.114l2.017-0.844
	c1.736-0.728,3.282-1.279,4.728-1.688l2.146-0.607l1.01-1.986c0.428-0.844,0.639-1.267,1.052-2.12l1.152-2.381l-0.958-1.724
	c1.407,1.08,2.135,1.631,3.602,2.718l0.428,0.317l0.482,0.221c1.809,0.83,3.612,1.381,5.368,1.642
	c0.315,0.101,4.027,1.267,4.027,1.267l2.188-2.34c0.831-0.89,1.248-1.35,2.037-2.237c1.496-1.587,2.494-3.408,2.97-5.422
	c0.149-0.349,0.27-0.632,0.452-1.072l1.057-2.551L196.592,192.81z"/>
<circle fill="#74BF44" cx="49.849" cy="125.271" r="17.14"/>
<g id="Layer_2_1_">
</g>
<path fill="#006838" d="M84.069,170.929c-0.847,0.528-1.639,0.94-2.375,1.243c-1.314,1.49-1.979,2.218-3.332,3.639
	c-0.079,1.304-0.115,1.957-0.18,3.278c0.068,0.823,0.271,1.575,0.62,2.214c0.476,0.875,1.129,1.658,1.682,2.318
	c1.217,1.448,2.441,3.011,3.703,4.168c2.26,1.576,3.41,2.355,5.755,3.892c0.958,1.355,2.023,2.474,3.179,3.338
	c0.287-0.642,0.432-0.963,0.716-1.609c0.307-0.158,0.458-0.239,0.763-0.402c0.783,0.328,1.179,0.491,1.967,0.812
	c-0.801,0.645-1.987,1.085-2.439,1.484c-0.934,0.826-2.087,2.55-3.518,2.872c-1.212,0.096-1.818,0.139-3.038,0.199
	c-1.364-0.58-2.041-0.874-3.391-1.481c-2.185-1.33-3.896-2.785-5.144-4.308c-1.073-0.888-1.604-1.331-2.654-2.225
	c-1.004-0.911-2.011-1.622-3.031-2.146c-1.302,1.493-1.958,2.225-3.291,3.66c-0.246,1.021-0.369,1.531-0.611,2.56
	c0.43,0.944,1.037,1.82,1.826,2.614c2.221,1.864,3.356,2.787,5.668,4.617c1.486,0.884,2.236,1.318,3.746,2.178
	c0.195,0.437,0.293,0.658,0.491,1.096c0.927,0.136,1.391,0.198,2.316,0.315c2.399,0.572,3.601,0.83,6.006,1.294
	c0.265,0.22,0.396,0.331,0.664,0.549c1.065,0.115,1.598,0.169,2.662,0.263c1.308-0.315,1.956-0.483,3.246-0.841
	c1.755-1.131,3.186-2.291,4.31-3.432c0.601-0.963,0.899-1.451,1.485-2.431c0.066-1.477,0.1-2.213,0.173-3.684
	c-0.829-2.16-1.651-4.157-2.584-5.497c-0.558-0.801-1.347-1.475-2.065-1.982c-0.782-0.91-1.166-1.365-1.925-2.268
	c-1.841-1.408-3.596-2.556-5.297-3.459c-0.88-0.822-1.313-1.23-2.169-2.053c-0.256-0.99-0.967-2.16-0.966-2.594
	c0.005-1.103,2.564-2.445,4.805-1.916c0.188,0.271,0.284,0.407,0.476,0.681c0.878,0.091,1.316,0.133,2.193,0.208
	c0.846,0.539,1.555,1.335,2.15,1.94c1.286,1.312,3.31,3.521,4.126,3.814c0.453,0.164,2.023-0.378,2.397-0.785
	c0.486-0.533,0.984-1.782,1.66-2.497c0.561-1.271,0.838-1.913,1.383-3.203c-0.399-0.656-0.598-0.983-0.988-1.634
	c-0.868-0.718-1.297-1.076-2.145-1.792c-0.878-0.476-1.313-0.714-2.18-1.194c-3.084-0.911-4.611-1.401-7.63-2.447
	c-0.4,0.153-0.601,0.229-1.004,0.379c-1.219-0.483-1.827-0.729-3.033-1.231C87.203,170.105,86.166,170.404,84.069,170.929z
	 M74.644,195.4c-0.374,0.646-0.562,0.969-0.938,1.613c-0.467-0.321-0.755-0.651-0.868-0.984c0.393-0.633,0.587-0.948,0.977-1.584
	C74.145,194.827,74.31,195.018,74.644,195.4z M80.863,181.463c-0.049,0.018-0.373-0.98-0.37-0.981
	C80.548,180.468,80.863,181.463,80.863,181.463z M85.17,175.458c-0.082,0.042-1.872-2.238-1.872-2.238
	C83.354,173.161,85.17,175.458,85.17,175.458z M85.13,178.862c0.558-0.52,0.833-0.782,1.384-1.313
	C86.235,178.163,85.775,178.604,85.13,178.862z M86.52,183.302c-0.554,0.33-1.073,0.552-1.552,0.668
	c-0.325-0.329-0.489-0.493-0.813-0.823c0.636-0.261,0.954-0.396,1.583-0.671C86.05,182.806,86.206,182.973,86.52,183.302z
	 M88.501,175.231c-0.478-0.296-0.8-0.666-0.967-1.106C87.918,174.567,88.111,174.789,88.501,175.231z M88.802,176.451
	c-0.03,0.018-0.451-0.697-0.451-0.697C88.383,175.738,88.802,176.451,88.802,176.451z M89.196,184.331
	c-0.88,0.267-1.323,0.393-2.211,0.634C87.646,184.544,88.382,184.331,89.196,184.331z M90.814,174.941
	c-0.036,0.023-0.665-1.02-0.665-1.02C90.188,173.899,90.814,174.941,90.814,174.941z M90.69,203.136
	c-0.121,0.453-0.443,0.758-0.967,0.904C90.112,203.681,90.305,203.499,90.69,203.136z M89.985,204.679
	c0.042,0.017-0.379,0.642-0.408,0.624C89.541,205.279,89.971,204.672,89.985,204.679z M94.296,203.8
	c-0.468,0.373-1.156,0.591-1.606,0.423c-0.847-0.317-1.709-1.261-2.246-1.931c0.892,0.047,1.336,0.065,2.225,0.096
	C93.315,202.953,93.641,203.235,94.296,203.8z M97.284,197.663c-0.572-0.031-0.862-0.048-1.436-0.085
	c-0.254-0.188-0.381-0.284-0.635-0.472c0.234-0.421,0.35-0.63,0.583-1.049C96.467,196.575,96.965,197.11,97.284,197.663z"/>
<path fill="#006838" d="M114.173,166.821c-0.434,0.862-0.757,1.792-0.831,2.686c-0.072,0.879-0.009,1.727,0.081,2.42
	c-0.154,0.355-0.232,0.531-0.389,0.886c-0.367,1.319-0.552,1.977-0.931,3.283c0.162,1.036,0.495,1.961,1.012,2.781
	c-0.584,0.808-0.878,1.205-1.478,1.993c-0.388,1.303-0.585,1.95-0.984,3.241c0.009,1.363,0.11,2.58,0.312,3.65
	c0.224,0.514,0.336,0.771,0.565,1.285c-0.831,0.021-1.247,0.024-2.078,0.03c-0.15,0.101-0.224,0.152-0.375,0.253
	c0.136,0.021,0.204,0.03,0.341,0.049c-0.127,1.186-0.188,1.781-0.316,2.967c-0.444,2.834-0.671,4.249-1.128,7.072
	c-0.555,0.99-0.833,1.481-1.4,2.455c-0.338,0.292-0.506,0.436-0.846,0.722c0.374,0.687,0.561,1.031,0.943,1.722
	c1.788,0.494,2.683,0.73,4.484,1.182c0.434,0.32,0.651,0.482,1.089,0.804c1.21,0.103,1.815,0.147,3.024,0.223
	c1.107-0.563,1.656-0.854,2.741-1.452c-0.084-1.516-0.125-2.274-0.203-3.789c0.164-0.351,0.247-0.53,0.409-0.884
	c-0.104-1.016-0.152-1.521-0.251-2.534c0.483-1.074,0.722-1.615,1.191-2.701c0.187-1.116,0.279-1.677,0.461-2.795
	c-0.236-1.143-0.354-1.715-0.582-2.854c0.553-0.086,0.829-0.13,1.379-0.223c0.032-1.006,0.049-1.509,0.082-2.515
	c-0.395-1.104-0.729-2.374-0.558-3.16c0.182-0.818,0.751-1.977,0.75-2.809c-0.001-0.906-0.606-1.636-1.531-1.937
	c0.674-0.852,1.008-1.282,1.664-2.157c0.542-1.248,0.808-1.879,1.326-3.149c-0.055-2.907-0.082-4.358-0.124-7.256
	c-0.342-0.238-0.512-0.355-0.849-0.593c-0.706,0.421-1.062,0.627-1.778,1.031c-1.024-0.463-1.532-0.695-2.539-1.163
	C115.795,166.099,115.258,166.345,114.173,166.821z M111.836,200.501c0.354,0.684,0.552,1.33,0.588,1.932
	c-1.445-0.734-2.159-1.106-3.577-1.856c-0.048-0.982-0.071-1.473-0.115-2.452C109.957,199.076,110.578,199.553,111.836,200.501z
	 M112.753,191.647c0.334,0.666,0.52,1.301,0.551,1.901c-1.365-0.673-2.042-1.011-3.383-1.695c-0.042-0.977-0.063-1.466-0.101-2.438
	C110.977,190.309,111.565,190.755,112.753,191.647z M112.216,197.394c-0.014,0.019-1.711-1.181-1.711-1.181
	C110.522,196.19,112.216,197.394,112.216,197.394z M114.149,194.105c0.322,0.177,0.527,2.148,0.5,3.164
	c-0.414-0.308-0.62-0.462-1.031-0.77c-0.087-0.747-0.134-1.121-0.221-1.865C113.658,194.341,114.091,194.073,114.149,194.105z
	 M116.657,168.953c0.074,0.108,0.109,0.16,0.182,0.269c-0.092,0.103-0.234,0.163-0.436,0.177c0.074,0.249,0.11,0.377,0.182,0.627
	c-0.228,0.444-0.539,0.829-0.931,1.147c-0.145-0.358-0.217-0.539-0.359-0.896c0.038-0.502,0.281-0.939,0.72-1.325
	C116.273,168.953,116.402,168.953,116.657,168.953z M116.965,183.746c-0.671,0.208-1.011,0.309-1.687,0.504
	c0.153-0.629,0.794-1.472,1.087-1.466C116.56,182.788,116.917,183.337,116.965,183.746z M116.791,191.317
	c-0.028,0.04-1-0.707-1-0.707C115.821,190.575,116.791,191.317,116.791,191.317z M118.088,186.696
	c-0.152,0.371-0.23,0.554-0.385,0.924c-0.27-0.021-0.405-0.031-0.676-0.055c0.156-0.366,0.235-0.551,0.389-0.92
	C117.684,186.667,117.819,186.678,118.088,186.696z"/>
<path fill="#006838" d="M141.672,166.283c-0.6-0.158-0.897-0.239-1.492-0.399c0.052-0.582,0.076-0.874,0.124-1.458
	c-3.583,1.573-5.426,2.278-9.182,3.511c-1.081,1.736-1.638,2.59-2.792,4.258c-0.65,1.614-0.971,3.502-1.434,4.665
	c-0.617,1.558-1.837,3.358-2.185,4.911c-0.254,1.931-0.387,2.891-0.66,4.808c0.25,0.909,0.375,1.366,0.633,2.279
	c-0.401,1.284-0.608,1.922-1.026,3.189c0.384,2.082,0.582,3.128,0.994,5.226c2.106,3.5,3.211,5.272,5.548,8.843
	c2.411,0.943,3.635,1.401,6.11,2.291c1.248,0.713,1.879,1.066,3.153,1.771c0.74-0.18,1.349-0.518,1.818-1.007
	c1.688,0.149,2.535,0.217,4.231,0.327c2.61-0.226,5.021-0.596,6.697-1.295c1.833-0.764,4.123-2.555,4.334-3.566
	c0.319-1.535-1.277-4.761-2.296-6.692c-0.218-0.407-0.328-0.609-0.545-1.016c-3.104,1.228-4.68,1.79-7.878,2.811
	c-1.308-0.067-1.961-0.107-3.266-0.198c-1.141,0.182-1.712,0.268-2.857,0.426c-0.916-0.691-1.675-1.406-2.285-2.007
	c-1.426-1.403-2.556-2.863-3.108-4.377c-0.942-2.132-1.4-3.195-2.283-5.307c0.665-1.951,0.896-4.192,1.367-5.41
	c0.561-1.443,1.609-4.033,2.211-4.898c0.653-0.939,2.501-2.28,3.078-3.796c0.047-0.699,0.068-1.048,0.111-1.748
	c0.543,0.846,1.063,2.566,1.198,2.63c0.263,0.119,2.179-0.923,3.22-1.198c0.655,0.324,0.982,0.485,1.647,0.808
	c1.876,0.285,4.4,1.728,4.948,1.641c0.708-0.109,2.027-3.087,2.225-4.96c-0.27-2.044-0.409-3.066-0.685-5.11
	c-1.428-1.203-2.854-1.928-4.215-2.258c-1.803-0.437-3.481-0.7-4.987-0.659C141.966,164.508,141.869,165.102,141.672,166.283z
	 M126.378,191.84c0.005,0.396,0.005,0.591,0.007,0.985c-0.143-0.4-0.213-0.599-0.353-0.997
	C126.172,191.832,126.24,191.835,126.378,191.84z M128.724,189.603c-0.769-0.465-1.333-1.017-1.698-1.65
	C127.698,188.611,128.038,188.942,128.724,189.603z M131.325,196.576c-0.108,0.926-0.164,1.389-0.274,2.313
	c-0.274,0.124-0.413,0.188-0.686,0.311c-0.579-0.288-0.867-0.435-1.441-0.724c0.127-0.782,0.191-1.174,0.315-1.956
	C130.074,196.546,130.49,196.559,131.325,196.576z M130.784,200.86c0.282,0.01,0.423,0.017,0.705,0.028
	c-0.131,0.396-0.199,0.594-0.334,0.988c-0.437-0.152-0.65-0.229-1.084-0.382C130.355,201.241,130.498,201.116,130.784,200.86z
	 M130.654,170.999c0.241-0.021,0.361-0.032,0.602-0.057c-0.102,0.415-0.152,0.622-0.257,1.037c-0.248-0.112-0.371-0.17-0.617-0.283
	C130.492,171.418,130.546,171.279,130.654,170.999z M132.434,183.249c-0.664-0.377-0.993-0.565-1.648-0.944
	C131.426,182.474,131.974,182.787,132.434,183.249z M132.951,174.805c-0.02,0.03-0.957-0.571-0.957-0.571
	C132.009,174.21,132.951,174.805,132.951,174.805z M138.324,205.43c-0.753-0.283-1.124-0.425-1.871-0.713
	c0.252-0.54,0.379-0.812,0.624-1.354C137.824,203.957,138.242,204.646,138.324,205.43z M137.796,174.636
	c-0.019,0.024-2.254-1.788-2.254-1.788C135.56,172.825,137.796,174.636,137.796,174.636z M140.561,201.312
	c-0.035,0.034-0.797-0.655-0.797-0.655C139.797,200.622,140.561,201.312,140.561,201.312z M137.365,169.848
	c0.119-0.018,0.176-0.028,0.297-0.045c0.022,0.275,0.04,0.416,0.064,0.693C137.58,170.236,137.509,170.107,137.365,169.848z
	 M146.435,204.615c-0.024,0.822-1.577,2.489-1.577,2.489c-0.102-0.043,0.065-1.747,0.446-2.448
	c-0.253-0.967-0.378-1.449-0.628-2.414C145.617,202.857,146.454,203.878,146.435,204.615z M140.791,164.455
	c0.217-0.043,0.324-0.066,0.545-0.111c-0.063,0.445-0.092,0.669-0.157,1.112c-0.236-0.097-0.355-0.143-0.589-0.24
	C140.672,164.913,140.712,164.761,140.791,164.455z M143.98,168.332c-0.558,0.26-0.835,0.387-1.396,0.637
	c0.165-0.599,0.244-0.898,0.405-1.501C143.423,167.624,143.754,167.909,143.98,168.332z"/>
<path fill="#006838" d="M152.167,161.984c0.405,1.395,0.608,2.093,1.023,3.494c0.067,1.485,0.102,2.225,0.156,3.704
	c0.501,1.222,0.753,1.834,1.263,3.058c0.157,2.523,0.224,3.779,0.346,6.287c0.23,0.538,0.345,0.808,0.577,1.346
	c0.527,2.565,0.789,3.849,1.314,6.415c-0.034,0.448-0.054,0.673-0.092,1.124c0.437,0.334,0.754,0.773,0.946,1.315
	c-0.104,1.492-0.162,2.232-0.288,3.714c0.203,0.999,0.303,1.5,0.502,2.499c0.359,0.385,0.538,0.58,0.9,0.965
	c-0.199,1.064-0.302,1.593-0.516,2.646c0.314,2.285,0.473,3.429,0.779,5.708c0.444,2.254,1.796,3.445,4.083,3.525
	c0.512,0.228,0.769,0.341,1.283,0.567c1.847-0.772,3.61-1.409,5.31-1.891c0.411-0.809,0.612-1.214,1.009-2.032
	c-0.851-1.53-1.274-2.293-2.104-3.82c-0.146,0.026-0.222,0.04-0.37,0.068c-0.11-0.436-0.162-0.655-0.276-1.091
	c-0.043-1.958-0.076-2.939-0.149-4.909c-0.587-1.691-1.218-3.221-1.892-4.589c-0.131-1.037-0.196-1.555-0.331-2.595
	c-1.444,0.597-3.22,2.62-3.495,2.641c-0.216,0.019-1.084-1.108-1.409-1.593c0.815-1.214,1.215-1.828,1.994-3.074
	c1.616-0.062,2.427-0.103,4.053-0.201c0.195-0.821,0.29-1.236,0.475-2.063c0.416,0.051,0.625,0.076,1.04,0.125
	c0.291,0.07,0.438,0.107,0.73,0.178c0.854-0.384,1.275-0.578,2.121-0.979c0.757-0.219,1.132-0.331,1.886-0.561
	c-1.066-0.858-2.156-1.47-3.278-1.839c-0.449,0.777-0.678,1.164-1.142,1.929c-0.373-0.37-0.561-0.554-0.936-0.924
	c0.29-0.878,0.433-1.319,0.707-2.205c1.696-1.063,3.127-2.477,3.787-4.021c0.797-1.87,1.411-3.87,2.125-5.389
	c0.642-2.285,0.936-3.44,1.474-5.77c0.643-1.84,1.571-4.252,1.36-5.506c-0.286-1.718-2.52-3.634-4.073-4.217
	c-0.768-0.145-1.151-0.22-1.913-0.369c-0.935,0.994-1.413,1.484-2.383,2.45c-0.099,2.312-0.449,4.294-1.045,5.94
	c-0.351,2.321-0.552,3.473-0.989,5.752c-0.922,1.859-1.647,3.68-2.281,5.168c-0.302,0.707-1.295,1.673-1.494,1.627
	c-0.302-0.072-1.279-1.387-1.737-1.842c-0.59-0.587-1.013-1.708-1.301-2.721c0.793,0.23,1.19,0.343,1.993,0.569
	c-0.036-2.328-0.702-4.807-0.789-6.457c-0.02-0.387,0.175-0.782,0.338-0.938c-1.1-1.847-1.638-2.768-2.692-4.606
	c-2.117,0.633-3.18,0.93-5.314,1.476C152.947,160.845,152.688,161.227,152.167,161.984z M156.985,176.175
	c-0.384-0.049-0.576-0.076-0.956-0.128c0.022-0.457,0.031-0.686,0.053-1.142C156.534,175.235,156.833,175.66,156.985,176.175z
	 M160.01,183.793c-0.617-0.252-1.04-0.665-1.283-1.238C159.236,183.05,159.494,183.299,160.01,183.793z M158.737,171.534
	c-0.128,0.498-0.193,0.748-0.326,1.243c-0.265-0.084-0.399-0.125-0.665-0.213c0.021-0.464,0.032-0.695,0.051-1.16
	C158.171,171.457,158.359,171.482,158.737,171.534z M161.674,175.753c-0.312,1.318-0.476,1.977-0.812,3.282
	c-0.685-0.132-1.026-0.199-1.705-0.336c0.38-1.159,0.563-1.743,0.923-2.915C160.717,175.772,161.035,175.768,161.674,175.753z
	 M166.325,200.277c-0.033,0.03-1.391-1.274-1.391-1.274C164.967,198.965,166.325,200.277,166.325,200.277z M163.191,179.2
	c0.194,0.267,0.291,0.398,0.484,0.668c-0.061,0.786-0.092,1.178-0.158,1.962c-0.74-0.277-1.106-0.417-1.84-0.699
	c0.109-0.643,0.16-0.964,0.264-1.608C162.441,179.395,162.691,179.331,163.191,179.2z M172.452,184.555
	c-0.99-0.044-1.487-0.067-2.473-0.124c-1.063,1.09-1.601,1.626-2.702,2.676c2.174,2.415,3.297,3.625,5.606,6.044
	c1.297,0.94,1.954,1.409,3.282,2.342c0.961,1.189,1.448,1.784,2.43,2.977c1.413,1.084,2.127,1.625,3.581,2.702
	c1.515,0.695,2.978,1.124,4.371,1.284c0.548,0.177,0.819,0.263,1.368,0.435c0.815-0.872,1.216-1.313,2.01-2.205
	c1-1.045,1.61-2.225,1.84-3.518c0.253-0.589,0.38-0.886,0.625-1.479c-0.76-1.106-1.135-1.658-1.881-2.764
	c-1.418-0.454-2.671-1.026-3.765-1.716c-1.532-0.837-2.289-1.261-3.777-2.109c-1.33-1.229-1.986-1.847-3.276-3.079
	c-1.329-0.906-1.981-1.36-3.271-2.273c-1.433-0.447-3.993-0.885-4.09-0.771C172.242,183.08,172.51,184.148,172.452,184.555z
	 M161.797,156.495c-0.069,1.338-0.108,2.003-0.201,3.33c0.043,0.15,0.061,0.226,0.103,0.375c-0.317,0.121-0.479,0.181-0.8,0.302
	c-0.079-1.583-0.125-2.377-0.225-3.968C161.122,156.52,161.345,156.513,161.797,156.495z M167.383,173.237
	c-0.497,0.083-0.957-0.035-1.381-0.35C166.552,173.029,166.827,173.098,167.383,173.237z M164.312,159.478
	c-0.077,0.527-0.118,0.789-0.198,1.314c-0.258-0.068-0.383-0.102-0.638-0.17c-0.029-0.479-0.043-0.722-0.074-1.201
	C163.766,159.444,163.945,159.457,164.312,159.478z M169.745,172.446c-0.096,1.347-0.151,2.019-0.271,3.358
	c0.042,0.139,0.063,0.211,0.105,0.352c-0.365,0.115-0.548,0.175-0.913,0.288c-0.065-1.578-0.105-2.368-0.193-3.953
	C168.979,172.475,169.235,172.465,169.745,172.446z M176.736,192.572c0.143-0.037,0.211-0.055,0.354-0.095
	c0.092,0.292,0.14,0.439,0.232,0.731C177.087,192.955,176.971,192.827,176.736,192.572z M173.43,165.201
	c-0.016,0.026-1.201-0.779-1.201-0.779C172.244,164.398,173.43,165.201,173.43,165.201z M185.757,193.64
	c0.13-0.041,0.197-0.063,0.327-0.103c0.108,0.295,0.163,0.443,0.271,0.738C186.115,194.021,185.995,193.895,185.757,193.64z
	 M179.423,157.175c0.087,1.419,0.125,2.127,0.188,3.537c0.063,0.155,0.094,0.232,0.155,0.386c-0.325,0.16-0.488,0.241-0.813,0.397
	c-0.278-1.664-0.421-2.5-0.72-4.171C178.709,157.268,178.944,157.236,179.423,157.175z"/>
<path fill="#D6EFFB" d="M147.031,31.904c0,0,12.04-5.358,24.621,5.939l-12.312,8.27L147.031,31.904z"/>
<path fill="#D0D1D2" d="M87.967,83.698c0,0-20.08-11.863-11.548,13.06l3.875-2.575L87.967,83.698z"/>
<path fill="#FFFFFF" d="M197.18,124.09c-2.547,27.894-32.835,47.93-67.651,44.751c-34.814-3.179-60.973-28.371-58.426-56.265
	c2.548-27.898,32.836-47.934,67.652-44.755C173.567,71.001,199.726,96.193,197.18,124.09z"/>
<path fill="#919396" d="M184.023,94.976c-0.01-0.02,6.649,12.036,6.355,15.749l2.071-2.79
	C192.45,107.935,207.646,89.794,184.023,94.976z"/>
<path fill="#D0D1D2" d="M179.255,91.138c0,0,13.344-7.153,21.228-1.102c0,0,9.999,10.125-6.327,23.675l-4.001,3.691
	c0,0-2.608-2.319-1.635-6.737c0,0,19.136-17.981-5.628-13.74C182.892,96.926,179.019,96.293,179.255,91.138z"/>
<path fill="#D0D2D3" d="M177.919,126.209c-1.925,23.39-27.123,39.966-56.284,37.021c-29.163-2.939-51.243-24.285-49.318-47.675
	c1.923-23.389,27.123-39.966,56.282-37.023C157.762,81.474,179.844,102.819,177.919,126.209z"/>
<ellipse transform="matrix(0.9959 0.0909 -0.0909 0.9959 10.6782 -8.3368)" fill="#FFFFFF" cx="96.817" cy="113.002" rx="21.704" ry="21.392"/>
<path fill="#6D6F71" d="M115.058,139.709c0,0-0.623,4.35-0.973,4.978l0.7,0.628l0.623-5.955L115.058,139.709z"/>
<path fill="#FFFFFF" d="M173.711,120.508c-1.338,14.637-13.491,25.472-28.224,24.124c-14.736-1.342-26.471-14.361-25.134-28.997
	c1.335-14.637,14.365-25.411,29.1-24.064C164.186,92.914,175.046,105.87,173.711,120.508z"/>
<path fill="#0B8ECC" d="M115.791,130.838c0,0,3.355-5.416,6.152,5.002l-6.849,4.801l-5.024-5.49
	C110.07,135.15,114.539,126.186,115.791,130.838z"/>
<path fill="#006838" d="M120.699,135.696l-2.948,2.048C117.75,137.744,118.695,134.426,120.699,135.696z"/>
<path fill="#FFFFFF" d="M112.955,137.308l-1.764-1.737C111.191,135.57,112.673,135.013,112.955,137.308z"/>
<g>
	<circle fill="#0071BC" cx="143" cy="116.662" r="20.087"/>
	<path fill="#0F4481" d="M144.445,121.72c3.731-4.313,3.26-10.825-1.047-14.552c-4.309-3.727-10.82-3.261-14.552,1.05
		c-3.727,4.307-3.257,10.823,1.05,14.55C134.202,126.498,140.718,126.025,144.445,121.72z"/>
	<path fill="#FFFFFF" d="M138.438,118.556c1.982-2.292,1.732-5.75-0.557-7.731c-2.288-1.979-5.754-1.737-7.736,0.555
		c-1.979,2.29-1.728,5.754,0.563,7.736C132.996,121.096,136.455,120.843,138.438,118.556z"/>
	<path fill="#FFFFFF" d="M146.784,110.878c-1.476,0-2.671,1.196-2.671,2.669c0,1.475,1.195,2.67,2.671,2.67
		c1.472,0,2.669-1.195,2.669-2.67C149.453,112.074,148.256,110.878,146.784,110.878z"/>
</g>
<path fill="#ACAFB1" d="M130.274,97.295c0,0,12.186,17.943,43.437,23.212c0,0,4.312-14.174-13.009-26.463
	C160.702,94.044,144.334,86.052,130.274,97.295z"/>
<g>
	<circle fill="#0071BC" cx="99.435" cy="114.619" r="16.98"/>
	<path fill="#0F4481" d="M98.212,118.895c-3.154-3.646-2.756-9.15,0.885-12.301c3.641-3.15,9.147-2.756,12.302,0.888
		c3.15,3.641,2.753,9.149-0.889,12.3C106.872,122.934,101.363,122.535,98.212,118.895z"/>
	<path fill="#FFFFFF" d="M103.291,116.22c-1.675-1.938-1.463-4.861,0.471-6.536c1.934-1.673,4.863-1.468,6.539,0.47
		c1.675,1.936,1.461,4.863-0.475,6.539C107.89,118.368,104.967,118.154,103.291,116.22z"/>
	<circle fill="#FFFFFF" cx="96.237" cy="111.987" r="2.256"/>
</g>
<path fill="#ACAFB1" d="M75.203,111.028c0,0,18.89,2.619,37.752-12.281c0,0-8.509-12.014-24.988-5.304
	C87.967,93.443,75.423,98.608,75.203,111.028z"/>
<path fill="#BE1E2D" d="M100.354,145.084c0,0-7.549-13.418,16.617,1.107C116.971,146.191,104.993,142.027,100.354,145.084z"/>
<path fill="#919396" d="M96.59,142.589c0,0-0.205-9.537,14.601-1.876C111.191,140.713,94.438,130.05,96.59,142.589z"/>
<path fill="#6D6F71" d="M121.963,150.002c0,0-13.087-12.694-23.696-5.314l5.834,5.314l-2.391-4.688
	C101.71,145.314,110.475,142.314,121.963,150.002z"/>
<path fill="#007755" d="M99.376,74.78c0,0,9.616,25.374,68.78,10.466c0,0,9.492,1.276,15.867,4.692l1.051-1.122
	c0,0,4.78-1.374,7.308-1.206c2.529,0.167,11.132-9.418-6.171-15.875c0,0-12.025-33.21-24.578-27.021l-13.422-2.795
	c0,0-11.521-14.09-38.122,15.14c0,0-24.547,3.375-18.295,22.187C91.794,79.247,93.262,77.875,99.376,74.78z"/>
<path fill="#006838" d="M91.794,79.247c0,0-1.088-3.144,7.443-7.337c0,0-1.251-1.853,2.33-4.42c0,0,8.647,29.403,66.648,15.253
	c0,0,11.364-5.401,26.21,3.851c0,0-0.459,0.519-1.862,1.012c0,0-5.716-0.078-8.539,2.333c0,0-7.92-3.931-15.867-4.692
	c0,0-18.982,5.135-31.736,4.692c0,0-13.269,0.647-23.465-3.741c0,0-9.8-3.715-13.579-11.418L91.794,79.247z"/>
<path fill="#7EB7E3" d="M143.768,43.783l3.264-11.878c0,0,7.382,7.221,24.621,5.939l-3.961,13.161
	C167.691,51.004,152.918,53.334,143.768,43.783z"/>
<path fill="#29B473" d="M103.187,64.232c0,0,1.787-9.792,25.197-9.269c0,0,8.766-8.443,16-8.851c0,0-8.662,2.387-15.126,10.424
	C129.258,56.537,110.083,54.922,103.187,64.232z"/>
<path fill="#29B473" d="M144.058,42.722c0,0-8.552-4.651-20.964,2.37l2.324-1.593C125.417,43.498,136.285,36.313,144.058,42.722z"/>
<path fill="#29B473" d="M133.575,57.76c0,0,12.92,0.232,36.68,12.578C170.255,70.338,146.674,60.297,133.575,57.76z"/>
<path fill="#29B473" d="M157.709,65.334c0,0,2.194-7.531,1.895-14.308h1.099c0,0,0,10.111,0,14.712"/>
<path fill="#006838" d="M186.211,71.736c0,0-15.259-23.775-17.589-23.826l0.851-2.819C169.473,45.091,177.824,48.441,186.211,71.736
	z"/>
<path fill="#ACAFB1" d="M121.34,125.577c0,0,20.589-11.947,46.002,11.705c0,0-12.403,13.609-33.201,4.112
	C134.142,141.395,123.842,135.034,121.34,125.577z"/>
<path fill="#ACAFB1" d="M79.037,125.222c0,0,20.75-9.56,36.971-2.173c0,0-4.509,13.202-21.136,11.256
	C94.872,134.305,84.369,133.733,79.037,125.222z"/>
<path fill="#919396" d="M122.662,146.191c0,0,5.184,12.297-4.213,3.811C118.449,150.002,130.216,161.599,122.662,146.191z"/>
<path fill="#74BF44" d="M118.032,137.011c0,0,0.803-2.121,2.303-1.502c0,0-0.916,2.586,0.659,4.799c0,0,1.886,2.281,0,3.201
	c0,0-3.027,0.537-1.23-2.935C119.763,140.574,120.179,137.793,118.032,137.011z"/>
<ellipse fill="#D0E296" cx="120.25" cy="141.773" rx="0.79" ry="0.815"/>
<ellipse fill="#FFFFFF" cx="120.249" cy="141.773" rx="0.495" ry="0.51"/>
<path fill="#FFFFFF" d="M148.055,34l-2.026,9.434l3.318-6.639c0,0,4.714,2.724,12.93,1.922
	C162.276,38.717,152.699,37.669,148.055,34z"/>
<circle fill="#FFFFFF" cx="49.849" cy="125.271" r="11.587"/>
<polyline fill="#FFFFFF" points="59.398,125.271 103.795,142.338 101.076,143.203 53.542,131.382 "/>
<circle fill="#FF0000" cx="49.849" cy="125.271" r="7.429"/>
<polyline fill="#FF0000" points="56.045,125.271 98.267,141.263 48.718,128.871 "/>
</svg>
