<svg xmlns="http://www.w3.org/2000/svg" width="250" height="250" viewBox="0 0 250 250"><path opacity=".15" d="M215.65 166.527l-3.094-2.393-.022.014c-2.295-1.854-5.578-2.778-10.192-2.9v-.01h-.457c-.197-.003-.38-.014-.582-.014h-5.99c-.102 0-.197.01-.296.014h-6.72c17.945-14.877 27.712-35.487 25.788-56.536-.665-7.28-2.684-14.322-6.008-20.975 2.766-9.36 2.584-15.788-.534-20.104-2.172-3.008-5.652-4.665-9.8-4.665-2.972 0-6.032.83-8.67 1.848-15.323-12.043-36.15-18.887-57.793-18.887-3.228 0-6.51.15-9.752.44-22.945 2.09-44.3 11.61-59.204 26.26-3.032-.74-5.93-1.11-8.657-1.11-5.405 0-10.04 1.45-13.777 4.32l-.615.54c-.582.59-5.673 6.01-5.55 14.76.092 6.47 2.964 12.81 8.547 18.9-.754 4.78-.916 9.61-.478 14.38 1.432 15.67 9.047 29.95 21.516 41h-.066c-3.424 0-6.805.76-10.05 2.26l-.17.08c-2.86 1.43-4.566 4.11-4.566 7.17 0 3.44 1.655 5.3 2.95 6.23l-.003.04s7.708 5.67 7.688 6.33c-.183.07-.37.15-.555.23-7.367 3.06-12.673 8.15-15.77 15.12-1.098 2.46-1.654 4.86-1.654 7.12 0 4.45 4.554 15.72 20.37 16.99.413.03.838.04 1.268.04v.01H190c2.203 0 5.02.25 7.188-.77 2.988-1.37 4.883-4.64 6.097-7.28.528-1.19.795-2.43.795-3.69 0-.63-.074-1.23-.206-1.81l1.905-.7 13.09-29.47c.83-1.77 1.25-3.52 1.25-5.19 0-3.19-1.63-5.95-4.48-7.66z"/><path fill="#1B75BB" d="M212.65 162.527l-3.094-2.393-.022.014c-2.295-1.854-5.578-2.778-10.192-2.9v-.01h-.457c-.197-.003-.38-.014-.582-.014h-5.99c-.102 0-.197.01-.296.014h-6.72c17.945-14.877 27.712-35.487 25.788-56.536-.665-7.28-2.684-14.322-6.008-20.975 2.766-9.36 2.584-15.788-.534-20.104-2.172-3.008-5.652-4.665-9.8-4.665-2.972 0-6.032.83-8.67 1.848-15.323-12.043-36.15-18.887-57.793-18.887-3.228 0-6.51.15-9.752.44-22.945 2.09-44.3 11.61-59.204 26.26-3.032-.74-5.93-1.11-8.657-1.11-5.405 0-10.04 1.45-13.777 4.32l-.615.54c-.582.59-5.673 6.01-5.55 14.76.092 6.47 2.964 12.81 8.547 18.9-.754 4.78-.916 9.61-.478 14.38 1.432 15.67 9.047 29.95 21.516 41h-.066c-3.424 0-6.805.76-10.05 2.26l-.17.08c-2.86 1.43-4.566 4.11-4.566 7.17 0 3.44 1.655 5.3 2.95 6.23l-.003.04s7.708 5.67 7.688 6.33c-.183.07-.37.15-.555.23-7.367 3.06-12.673 8.15-15.77 15.12-1.098 2.46-1.654 4.86-1.654 7.12 0 4.45 4.554 15.72 20.37 16.99.413.03.838.04 1.268.04v.01H187c2.203 0 5.02.25 7.188-.77 2.988-1.37 4.883-4.64 6.097-7.28.528-1.19.795-2.43.795-3.69 0-.63-.074-1.23-.206-1.81l1.905-.7 13.09-29.47c.83-1.77 1.25-3.52 1.25-5.19 0-3.19-1.63-5.95-4.48-7.66z"/><path fill="#D0D1D2" d="M183.703 64.49S209.26 49.395 198.4 81.11l-4.932-3.276-9.765-13.343z"/><ellipse transform="matrix(-.996 .091 -.091 -.996 259.234 205.328)" fill="#FFF" cx="124.939" cy="108.57" rx="80.561" ry="64.549"/><path fill="#919396" d="M61.454 78.844c.016-.026-8.46 15.317-8.087 20.042l-2.636-3.55S31.39 72.25 61.46 78.844z"/><path fill="#D0D1D2" d="M67.526 73.96s-16.982-9.104-27.018-1.402c0 0-12.723 12.886 8.055 30.13l5.09 4.698s3.322-2.95 2.08-8.575c0 0-24.352-22.88 7.163-17.48 0 0 4.93-.8 4.63-7.36zm1.7 44.634c2.45 29.768 34.52 50.862 71.63 47.117 37.115-3.74 65.215-30.9 62.768-60.67s-34.518-50.86-71.63-47.12C94.88 61.67 66.776 88.83 69.226 118.6z"/><ellipse transform="matrix(-.996 .091 -.091 -.996 353.423 187.468)" fill="#FFF" cx="172.441" cy="101.785" rx="27.623" ry="27.223"/><path fill="#6D6F71" d="M149.227 135.776s.792 5.534 1.237 6.334l-.892.798-.792-7.577.447.45z"/><path fill="#FFF" d="M74.582 111.338c1.7 18.627 18.282 32.34 37.032 30.627 18.755-1.71 32.574-18.202 30.873-36.83-1.7-18.626-18.28-32.34-37.033-30.624-18.75 1.71-32.574 18.2-30.872 36.83z"/><path fill="#0B8ECC" d="M148.27 124.574s-4.27-6.892-7.83 6.366l8.718 6.108 6.392-6.986s-5.686-11.408-7.28-5.488z"/><path fill="#FFF" d="M142.048 130.668l3.752 2.606s-1.2-4.222-3.752-2.606zm9.854 2.05l2.245-2.212s-1.884-.71-2.245 2.212z"/><path fill="#6D6F71" d="M133.726 140.53s11.49 19.02 16.045 0c0 0 8.03 14.56 10.11-3.962 0 0 .86 21.294-9.47 6.537 0 0-6.07 19.313-17.56-1.782l-2.97.787 3.87-1.58z"/><path fill="#6D6F71" d="M159.872 136.568s-4.208 1.34-4.754-2.722c0 0-.487 3.976 4.66 3.522l.094-.8zm-6.848 13.472s-3.916 6.092-7.225 6.388l1.14 1.635s5.44-3.23 6.08-8.024zm-17.814-10.92s-13.185-.824-4.753 4.756c0 0-11.737-7.207 4.754-4.757z"/><path fill="none" d="M163.476 172.256c0-.095.022-.188.07-.286 0-.017-.008-.026-.01-.043l-3.243 7.286c-.14.308-.302.593-.45.893l.042.115 3.59-7.96zm-19.642 2.28l.055-.13-.13.046.07.083zm11.808 12.842c.452-.405.893-.908 1.327-1.51l-1.33 1.51zm-8.447 15.642c1.18-.36 2.417-.933 3.72-1.734.346-.213.67-.433.98-.655.32-.99.724-2.05 1.266-3.23l1.84-4.12c-1.36.83-2.84 1.55-4.42 2.16l-3.37 7.59zm26.263-1.526h-7.13l-1.626 3.59c3.79-.313 7.4-1.58 10.826-3.785-.64.12-1.323.19-2.07.19zm-116.38.57c-.333.715-.5 1.45-.5 2.21 0 .288.02.564.062.827 1.257-.15 2.528-.64 3.817-1.5 1.57-1.04 2.685-2.3 3.352-3.77.66-1.47.99-2.92.99-4.35 0-.22-.06-.67-.17-1.33-1.31.64-2.42 1.31-3.29 2.01-1.76 1.43-3.19 3.4-4.28 5.92z"/><path fill="#F05A28" d="M56.578 204.276c0-.76.167-1.497.5-2.21 1.093-2.522 2.52-4.493 4.278-5.92.864-.7 1.975-1.368 3.283-2.01-.18-1.014-.47-2.537-.91-4.583-2.9 1.047-5.11 2.188-6.63 3.422-1.76 1.427-3.19 3.4-4.28 5.92-.34.714-.5 1.45-.5 2.212 0 1.14.32 2.102.96 2.888.64.784 1.48 1.178 2.53 1.178.27 0 .54-.038.82-.07-.04-.265-.06-.54-.06-.827zm5.947-35.902c-.318-.228-.61-.412-.896-.596-1.23-.778-2.2-1.188-2.89-1.188-.91 0-2.17.32-3.78.962-1.62.642-2.48.963-2.57.963-.16 0-.3-.035-.42-.093l-.05.02 4.34 3.214.05-.04c.09.033.19.07.31.07.09 0 .95-.32 2.56-.964 1.61-.642 2.87-.962 3.78-.962.7 0 1.68.42 2.92 1.216l.02-.036-3.42-2.566zm19.255 2.14c.237-.332.357-.666.357-.998 0-.715-.358-1.07-1.07-1.07-1.57 0-3.21.832-4.92 2.495 1.52.58 2.447.86 2.78.86 1.33 0 2.282-.43 2.852-1.28z"/><path fill="#F05A28" d="M100.25 202.462L104.946 192l1.578-3.516c.095-.286.143-.523.143-.714 0-.522-.31-.784-.928-.784-1.1 0-1.88.523-2.36 1.568l-1.36 3.055-7.92 17.84H83.77l8.53-19.15.813-1.83c.096-.29.143-.53.143-.72 0-.53-.335-.79-1-.79-.903 0-1.58.41-2.058 1.19-.076.12-.16.23-.225.37l-9.273 20.9H70.29l9.185-20.65 1.927-4.34-.988-1.12-1.57 3.49c-.242.17-.542.3-.872.42-.577.2-1.274.33-2.12.36.427.9.64 1.88.64 2.92 0 1.57-.618 3.73-1.853 6.49l-1.07 2.49c-1.57 3.38-4.28 6.01-8.13 7.91-3.29 1.61-6.71 2.42-10.27 2.42-1.13 0-2.15-.11-3.13-.27-1.8-.29-3.39-.83-4.72-1.66l3.31 2.46c.29.25.59.49.93.71 2.04 1.28 4.66 1.93 7.84 1.93 3.56 0 6.99-.81 10.27-2.43.44-.21.86-.44 1.27-.68l3.59 2.64-.02.04h10.42l.77-1.74 2.31 1.7-.02.04h10.34l2.12-4.77c-.58-.65-.88-1.47-.88-2.46 0-.85.21-1.83.64-2.92zm1.94-17.192l-.12-.006c.01.028.023.053.032.082.03-.027.06-.05.09-.075zm14.45 22.097c-.347-.568-.555-1.188-.644-1.854-.367.22-.735.44-1.128.658-.148.09-.293.16-.44.24-2.02 1.1-3.96 1.9-5.814 2.4-1.563.43-3.07.65-4.514.65-.667 0-1.355-.16-2.07-.5-.184-.08-.356-.17-.52-.26l3.708 2.82h.007c.3.24.654.45 1.057.62.713.34 1.402.5 2.068.5 3.28 0 6.87-1.09 10.77-3.28l.047-.02c-.776-.19-1.454-.6-2.02-1.25-.192-.22-.36-.45-.506-.69zm27.124-32.915l.125-.045-4.63-3.4-.01.005c.51.442.78 1.012.78 1.71 0 .384-.1.786-.29 1.214-.07.166-.18.314-.28.472-.62 1.06-1.63 1.933-3.08 2.596-.89.396-1.77.65-2.66.795-.5.07-.99.13-1.49.13-1.08 0-2.04-.23-2.89-.7l3.6 2.7c.17.16.37.32.61.45.85.47 1.83.71 2.92.71 1.38 0 2.75-.31 4.13-.93.32-.15.6-.31.87-.48l2.3-5.17-.07-.09zm15.46-5.365c0-.096.023-.19.07-.286 0-.47-.356-.71-1.067-.71-.763 0-1.31.38-1.64 1.14-1.57 3.57-3.974 8.94-7.204 16.12 1.9-.47 3.66-2.52 5.277-6.13l4.563-10.12zm10.482 18.97c0-.57-.403-.856-1.213-.856-.998 0-1.688.46-2.066 1.36l-2.64 5.78h3.21l2.638-5.84c.047-.19.07-.33.07-.43zm39.637-20.574l-3.424-2.65v.045c.65.572 1 1.277 1 2.14 0 .564-.13 1.176-.36 1.83-.1.286-.22.578-.36.882l-13.12 29.523-4.12-1.98-4.8-2.3 4.3 3.05-.05.12 8.91 4.28 13.12-29.525c.47-.998.71-1.9.71-2.71 0-1.175-.63-2.07-1.84-2.705zM193.82 205.35l.244-.023-3.894-2.725c.473.422.715.943.715 1.57 0 .43-.096.856-.287 1.284-.033.072-.087.136-.123.206-.596 1.14-1.66 2.073-3.228 2.79-.506.235-1.003.416-1.498.566-.9.278-1.78.433-2.64.433-1.08 0-2.02-.21-2.83-.62l3.18 2.27c.24.34.58.64 1.03.89.8.43 1.76.65 2.85.65 1.33 0 2.71-.33 4.14-.99 1.66-.76 2.78-1.76 3.35-2.99.19-.43.28-.85.28-1.28 0-.85-.44-1.52-1.32-1.99zM87.413 167.16c0 .676-.18 1.45-.516 2.312-.042.11-.078.215-.126.328-.23.528-.5 1.016-.8 1.48-.76 1.165-1.73 2.14-2.93 2.905-.92.587-1.87.995-2.85 1.26-.8.22-1.62.345-2.46.345-1.33 0-2.45-.284-3.35-.855-1.04 1.33-1.56 2.495-1.56 3.495 0 .76.29 1.592.86 2.494.48.667.95 1.354 1.43 2.07.78.39 1.65.61 2.59.68-.4-.74-.62-1.435-.62-2.074 0-1 .53-2.164 1.57-3.495.9.57 2.02.854 3.35.854 1.86 0 3.63-.54 5.32-1.61 1.69-1.07 2.94-2.53 3.75-4.39.43-1 .64-1.88.64-2.64 0-1.35-.58-2.32-1.72-2.95l-3.71-2.84-.01.02c.79.62 1.21 1.48 1.21 2.59zm13.187 40.834l.025.02c-.006-.008-.016-.015-.022-.02h-.002zm15.1-21.08c.006.123.023.23.023.358 0 1.71-.427 3.542-1.283 5.49l-3.566 8.06c-.237.476-.356.854-.356 1.14 0 .618.38.93 1.14.93 1.3 0 2.923-.688 4.86-2.043l2.174-4.92c.854-1.95 1.283-3.78 1.283-5.49 0-1.87-.5-3.22-1.467-4.08l.082-.02-4.43-3.27v.03c.96.8 1.478 2.06 1.54 3.8zm12.924-10.25l.058.044c-.015-.016-.026-.03-.04-.047l-.018.01zm3.83 11.88l-5.463 12.277c-.19.48-.28.86-.28 1.15 0 .62.36.93 1.07.93 1.19 0 2.6-.53 4.23-1.59.07-.28.15-.56.27-.83l4.85-10.86.32-.72.02-.03-.21-.11-3.61-2.82-1.17 2.63zm30.98-24.1h-.003l.05.03-.04-.03z"/><path fill="#F05A28" d="M165.285 167.305c0 .474-.118.974-.356 1.496l-.29.65-1.11 2.48c0 .02.01.03.01.05-.05.1-.07.19-.07.29l-3.59 7.97-.04-.11c-1.84 3.74-4.41 6.76-7.71 9.07-1.75 1.22-3.67 2.27-5.82 3.09l-3.71 8.34c-.24.48-.36.91-.36 1.29 0 1.05.73 1.57 2.21 1.57.87 0 1.78-.15 2.73-.44l3.37-7.58c1.59-.61 3.06-1.33 4.43-2.15l.45-1.01c1.14-2.56 2.68-4.7 4.63-6.42 1.24-1.07 2.53-1.84 3.88-2.3.19-.38.4-.75.58-1.15l4.63-10.41c.24-.52.36-1.02.36-1.49 0-1.08-.55-1.98-1.63-2.71l.08-.04-3.93-2.82c.81.67 1.22 1.47 1.22 2.41zm-9.643 20.073l1.327-1.51c-.44.602-.88 1.105-1.33 1.51zm21.728-3.68l-.013.01c.055.034.112.06.16.098l-.148-.11z"/><path fill="#F05A28" d="M179.553 208.29c-.444-.425-.682-.933-.707-1.524 0-.034-.012-.063-.012-.097 0-.39.094-.79.283-1.22.57-1.29 1.688-2.31 3.352-3.07.63-.28 1.27-.48 1.89-.63.68-.17 1.36-.26 2.03-.28l-1.53-2.06-.04.07-3.91-3.01c1.39-3.25 2.09-5.54 2.09-6.84 0-1.17-.39-2.05-1.15-2.63l.02-.04-4.21-3.08c.72.58 1.08 1.43 1.08 2.56 0 .55-.13 1.28-.38 2.18-.4 1.43-1.1 3.29-2.12 5.59-1.19 2.71-3.54 4.06-7.06 4.06h-7.14l-1.71 3.78c-.34.76-.5 1.42-.5 1.99 0 .71.28 1.07.85 1.07h2.06c.64 0 1.28-.03 1.91-.09l1.62-3.59h7.13c.75 0 1.43-.08 2.07-.2.11-.07.21-.13.32-.19 2.42-1.67 4.02-3.29 4.78-4.85l1.85 2.49v.07c-1.19 2.71-3.9 5.21-8.13 7.49-1.77.95-3.42 1.67-4.96 2.19-1.86.62-3.57.95-5.1.95h-5.42c-.51 0-.97-.03-1.43-.07-2.13-.16-3.7-.67-4.75-1.54-.09-.08-.19-.15-.28-.23-.55-.54-.92-1.19-1.11-1.96-.46.3-.94.59-1.44.87-.64.35-1.26.67-1.88.96-2.52 1.17-4.93 1.81-7.26 1.93-.26.01-.52.03-.78.03-2.24 0-4.11-.59-5.64-1.78-.85-.66-1.48-1.43-1.9-2.31-.44.27-.9.54-1.38.8-.5.28-.99.54-1.49.79-3.26 1.62-6.31 2.45-9.16 2.48.19.64.51 1.24.98 1.78.81.93 1.83 1.39 3.06 1.39 3.33 0 6.94-1.09 10.84-3.28.26-.14.49-.28.74-.43l1.93 1.41c.19.18.39.36.6.52.31.24.64.44.98.64l.05.03c1.32.74 2.85 1.12 4.61 1.12 3.13 0 6.44-.97 9.91-2.92.18-.1.35-.21.52-.31l2.78 2.12v-.1c1.29.81 3.17 1.22 5.68 1.22h5.42c2.81 0 6.16-1.05 10.06-3.14.5-.27.97-.54 1.43-.82-.17-.11-.32-.22-.46-.35 0-.01-.01-.02-.02-.03zm15.827-38.56c.093-.145.142-.31.142-.5 0-.477-.276-.93-.822-1.356-.547-.428-1.058-.642-1.532-.642h-.998c-.448 0-.783-.125-1.062-.314l-.03.028 4.158 3.104.143-.32z"/><path fill="#FFF100" d="M52.052 209.61c.98.16 2.005.268 3.127.268 3.56 0 6.98-.808 10.27-2.424 3.85-1.9 6.56-4.54 8.12-7.917l1.07-2.496c1.23-2.75 1.85-4.92 1.85-6.48 0-1.04-.22-2.02-.64-2.92.84-.03 1.54-.15 2.12-.36.33-.12.63-.25.87-.42l1.57-3.49c-.67.24-1.38.36-2.14.36-.21 0-.42-.01-.62-.03-.94-.07-1.81-.29-2.59-.68-.48-.71-.95-1.4-1.43-2.07-.57-.9-.86-1.73-.86-2.49 0-1 .52-2.16 1.57-3.49.9.57 2.02.86 3.35.86.84 0 1.66-.12 2.47-.34.97-.27 1.92-.67 2.84-1.26 1.2-.77 2.18-1.74 2.93-2.91.3-.46.57-.95.8-1.48.05-.11.08-.22.12-.32.33-.86.51-1.64.51-2.31 0-1.12-.42-1.98-1.2-2.6-.99-.78-2.57-1.18-4.79-1.18-4.9 0-8.7 1.26-11.41 3.78-1.48-.86-2.93-1.71-4.35-2.57-1.71-.81-3.52-1.21-5.42-1.21-2.57 0-5.09.57-7.56 1.71-.86.43-1.28 1.05-1.28 1.86 0 .8.19 1.29.58 1.48.12.06.25.09.41.09.1 0 .95-.32 2.57-.96 1.62-.65 2.88-.97 3.78-.97.69 0 1.66.41 2.88 1.19.28.19.57.37.89.6l3.42 2.57c-.01.02-.02.03-.02.04-1.18 1.65-1.98 2.97-2.4 3.96-1 1.52-1.5 3.23-1.5 5.14 0 1.14.16 2.47.5 3.99-1.24 0-2.81.41-4.71 1.21-5.94 2.48-10.15 6.49-12.62 12.05-.77 1.72-1.15 3.28-1.15 4.71 0 2.52 1.09 4.5 3.28 5.92 1.32.83 2.91 1.37 4.72 1.66zm1.238-5.615c-.642-.786-.962-1.748-.962-2.888 0-.762.166-1.498.5-2.212 1.094-2.52 2.52-4.493 4.278-5.92 1.522-1.234 3.73-2.375 6.632-3.422.432 2.046.73 3.57.902 4.584.11.66.168 1.11.168 1.336 0 1.427-.333 2.876-.998 4.35-.667 1.475-1.782 2.733-3.352 3.778-1.29.86-2.56 1.35-3.817 1.5-.27.04-.54.08-.81.08-1.05 0-1.89-.39-2.53-1.17zm25.637-32.197c-.333 0-1.26-.286-2.78-.857 1.71-1.66 3.35-2.49 4.92-2.49.712 0 1.07.36 1.07 1.07 0 .33-.12.67-.358 1-.57.86-1.53 1.29-2.86 1.29zm54.82 6c.885-.144 1.77-.398 2.657-.795 1.448-.663 2.458-1.536 3.078-2.596.092-.157.2-.306.273-.472.19-.428.285-.83.285-1.213 0-.7-.267-1.27-.78-1.71-.15-.13-.313-.25-.503-.357-.857-.474-1.83-.713-2.925-.713-1.38 0-2.76.333-4.135.998-1.665.762-2.782 1.76-3.352 2.995-.19.477-.287.903-.287 1.284 0 .56.207 1.04.58 1.44.016.01.027.03.042.04.185.18.395.36.66.51.016.01.03.01.04.02.85.46 1.808.69 2.885.69.495 0 .988-.06 1.483-.13zm-2.69 28.372c.482-.265.94-.534 1.382-.806.41.88 1.04 1.647 1.89 2.303 1.52 1.188 3.4 1.784 5.63 1.784.25 0 .51-.01.77-.02 2.33-.12 4.75-.76 7.26-1.93.62-.29 1.25-.6 1.88-.96.5-.28.97-.57 1.43-.86.18.78.56 1.42 1.1 1.96.08.08.18.16.27.24 1.04.87 2.61 1.38 4.74 1.54.45.04.91.07 1.42.07h5.42c1.53 0 3.23-.32 5.09-.95 1.54-.52 3.19-1.24 4.96-2.19 4.23-2.28 6.94-4.77 8.12-7.48v-.07l-1.86-2.49c-.76 1.57-2.36 3.19-4.78 4.85-.11.07-.21.13-.31.19-3.43 2.21-7.04 3.47-10.83 3.79-.63.06-1.27.09-1.91.09h-2.06c-.57 0-.86-.36-.86-1.07 0-.57.16-1.24.5-2l1.71-3.78h7.13c3.52 0 5.87-1.35 7.06-4.06 1.02-2.3 1.72-4.16 2.12-5.59.25-.9.37-1.63.37-2.18 0-1.13-.37-1.98-1.09-2.57l-.16-.11c-.05-.03-.11-.06-.16-.1-.75-.47-1.8-.71-3.16-.71h-7.06c-1.09 0-2.15.19-3.18.54-1.35.47-2.65 1.23-3.88 2.31-1.95 1.71-3.49 3.85-4.64 6.42l-.45 1.01-1.84 4.12c-.54 1.18-.94 2.24-1.26 3.23-.31.23-.63.45-.98.66-1.3.81-2.54 1.38-3.72 1.74-.95.29-1.86.44-2.73.44-1.48 0-2.21-.52-2.21-1.57 0-.38.12-.81.36-1.28l3.71-8.34c2.15-.82 4.07-1.86 5.82-3.09 3.3-2.31 5.87-5.33 7.71-9.06.15-.3.31-.58.45-.89l3.24-7.29 1.1-2.47.29-.65c.24-.52.35-1.02.35-1.49 0-.93-.42-1.73-1.23-2.41-.18-.14-.37-.28-.58-.42l-.05-.03c-.24-.14-.49-.29-.78-.42-1.47-.66-3.09-1-4.85-1-2.57 0-4.92.62-7.06 1.86-2.33 1.38-4.06 3.33-5.2 5.85l-1.65 3.68-.05.13-2.3 5.17-4.08 9.15-.02.04-.32.72-4.84 10.86c-.12.28-.2.56-.27.84-1.63 1.05-3.04 1.59-4.22 1.59-.71 0-1.07-.31-1.07-.93 0-.29.09-.66.28-1.14l5.46-12.28 1.17-2.62-7.85-4.35-8.31 18.58c-.2.15-.4.31-.61.46-.12.09-.23.17-.35.25-1.94 1.36-3.56 2.04-4.86 2.04-.76 0-1.14-.31-1.14-.92 0-.28.12-.66.36-1.14l3.57-8.06c.85-1.95 1.28-3.78 1.28-5.49 0-.13-.02-.23-.02-.36-.06-1.74-.58-3-1.54-3.8-.82-.68-1.95-1.04-3.43-1.04-3.34 0-6.18 1.07-8.54 3.21l-.09.07c-.01-.03-.02-.05-.03-.08-.73-2.13-2.31-3.2-4.75-3.2-3.42 0-6.11 1-8.06 3l-6.57-3.5-1.29 2.91-1.93 4.34-9.18 20.65H80.7l9.27-20.89c.068-.15.15-.26.23-.38.477-.78 1.154-1.19 2.06-1.19.662 0 .996.26.996.78 0 .19-.047.43-.143.72l-.817 1.82-8.53 19.14h10.35l7.917-17.84 1.355-3.06c.48-1.05 1.26-1.57 2.355-1.57.62 0 .93.26.93.78 0 .19-.045.43-.14.72l-1.58 3.51-4.7 10.46c-.426 1.09-.64 2.07-.64 2.92 0 .99.3 1.81.877 2.46.042.05.073.1.117.15l.02.02c.25.25.544.48.886.67.17.1.34.19.53.27.714.33 1.4.5 2.07.5 1.44 0 2.95-.23 4.51-.65 1.857-.5 3.796-1.3 5.817-2.4.147-.08.29-.15.44-.23.393-.22.76-.44 1.128-.66.09.67.3 1.29.648 1.85.147.24.314.47.51.7.564.65 1.24 1.06 2.02 1.25.332.08.676.14 1.05.14.06 0 .13-.01.2-.01 2.84-.04 5.89-.86 9.15-2.49.49-.25.986-.51 1.486-.79zm32.73-11.84l2.64-5.775c.378-.902 1.068-1.354 2.066-1.354.81 0 1.213.29 1.213.86 0 .1-.024.24-.07.43l-2.64 5.85h-3.208zm-14.404-8.983c3.23-7.18 5.633-12.55 7.204-16.117.33-.76.877-1.14 1.64-1.14.71 0 1.068.236 1.068.71-.048.097-.072.19-.072.287l-4.563 10.126c-1.617 3.614-3.377 5.658-5.277 6.134zm36.367 23.673c.495-.15.992-.332 1.498-.567 1.567-.717 2.632-1.65 3.228-2.79.036-.07.09-.134.123-.206.19-.428.28-.854.28-1.284 0-.627-.24-1.148-.72-1.57-.17-.155-.37-.298-.61-.426-.88-.475-1.84-.712-2.89-.712-.1 0-.19.015-.29.018-.68.022-1.35.11-2.03.277-.63.15-1.26.355-1.9.63-1.66.763-2.78 1.783-3.35 3.067-.19.43-.29.832-.29 1.213 0 .034.01.063.01.097.02.592.26 1.1.7 1.523l.02.025c.13.122.28.238.45.348.07.05.14.1.22.146.01 0 .02 0 .03.01.8.42 1.74.63 2.82.63.86-.01 1.74-.16 2.63-.44zm3.225-11.746l4.122 1.98 13.12-29.524c.145-.304.26-.596.36-.882.23-.654.354-1.266.354-1.83 0-.862-.35-1.567-1-2.14-1.28-1.132-3.8-1.71-7.62-1.71h-5.99c-1.28 0-1.92.69-1.92 2.068 0 .83.26 1.37.72 1.682.28.19.62.314 1.07.314h1c.48 0 .99.214 1.53.642.55.428.83.88.83 1.355 0 .19-.05.35-.14.5l-.14.32-11.05 24.92 4.8 2.3z"/><circle fill="#0071BC" cx="104.084" cy="106.837" r="25.925"/><path fill="#0F4481" d="M105.95 113.364c4.816-5.566 4.208-13.97-1.35-18.78-5.56-4.81-13.965-4.21-18.782 1.355-4.81 5.55-4.204 13.96 1.357 18.77 5.555 4.81 13.965 4.2 18.776-1.36z"/><path fill="#FFF" d="M98.196 109.28c2.56-2.958 2.235-7.42-.72-9.978-2.95-2.555-7.42-2.24-9.982.715-2.556 2.957-2.23 7.427.726 9.986 2.955 2.557 7.42 2.23 9.976-.723z"/><circle fill="#FFF" cx="108.967" cy="102.818" r="3.445"/><circle fill="#0071BC" cx="170.617" cy="102.713" r="22.101"/><path fill="#0F4481" d="M172.21 108.277c4.105-4.745 3.587-11.91-1.153-16.01-4.738-4.1-11.903-3.59-16.01 1.156-4.102 4.738-3.585 11.907 1.155 16.01 4.736 4.1 11.905 3.583 16.008-1.156z"/><path fill="#FFF" d="M165.6 104.796c2.18-2.522 1.904-6.327-.613-8.506-2.52-2.178-6.328-1.91-8.512.61-2.18 2.52-1.9 6.332.62 8.513 2.517 2.178 6.324 1.9 8.504-.617z"/><circle fill="#FFF" cx="174.781" cy="99.287" r="2.937"/><path fill="#ACAFB1" d="M77.72 122.783s20.092-10.324 62.92-3.193c0 0-6.333 21.69-32.106 23.318 0 0-23.756-.562-30.815-20.125zm74.182-2.74s17.415-12.403 46.773-9.808c0 0-2.514 13.953-19.842 18.02 0 0-16.524 4.715-26.93-8.213z"/></svg>