<svg xmlns="http://www.w3.org/2000/svg" width="250" height="250" viewBox="0 0 250 250"><circle opacity=".15" cx="122.965" cy="124.969" r="91.851"/><circle fill="#00A69C" cx="120.965" cy="122.969" r="91.851"/><circle fill="#4B7F7F" cx="122.026" cy="121.942" r="80.635"/><path fill="#D0D1D2" d="M55.366 105.154s-26.452-4.114-6.764 18.832l3.037-4.393 3.72-14.44z"/><ellipse transform="matrix(.959 -.284 .284 .959 -29.885 38.961)" fill="#FFF" cx="119.312" cy="122.461" rx="72.653" ry="58.214"/><path fill="#919396" d="M162.574 76.36c-.023-.016 12.203 10.007 13.467 14.09l1.03-3.853s8.5-25.8-14.49-10.236z"/><path fill="#D0D1D2" d="M155.857 74.297S167.044 61 178.023 64.1c0 0 14.96 6.548 3.31 27.933l-2.694 5.635s-3.77-1.364-4.61-6.49c0 0 12.76-27.302-11.84-12.257 0 0-4.4.98-6.34-4.62zm13.48 37.96c7.885 25.756-11.94 54.135-44.28 63.39-32.343 9.256-64.953-4.12-72.84-29.873-7.89-25.757 11.933-54.14 44.275-63.394 32.34-9.255 64.954 4.12 72.844 29.876z"/><path fill="#6D6F71" d="M107.53 153.92l1.073 4.54 1.665.17-.802-6.338"/><path fill="#0B8ECC" d="M105.112 143.66s1.276-7.2 8.685 2.716l-5.265 8.03-7.688-3.72c0 .002.955-11.456 4.268-7.027z"/><path fill="#FFF" d="M112.36 146.686l-2.274 3.438s-.403-3.938 2.274-3.438zm-7.57 5.007l-2.62-1.103s1.34-1.223 2.62 1.103z"/><ellipse transform="matrix(.959 -.284 .284 .959 -32.623 27.614)" fill="#FFF" cx="78.851" cy="126.233" rx="24.91" ry="24.55"/><circle fill="#FFF" cx="94.584" cy="113.376" r="1.39"/><circle fill="#0071BC" cx="92.525" cy="118.251" r="4.026"/><path fill="#0F4481" d="M92.235 119.265c-.748-.864-.653-2.17.21-2.917.863-.747 2.167-.653 2.916.21.75.864.66 2.17-.21 2.917-.86.747-2.16.653-2.91-.21z"/><path fill="#FFF" d="M93.44 118.63c-.398-.46-.348-1.152.11-1.55.46-.395 1.153-.347 1.55.112.397.46.347 1.154-.112 1.55-.46.398-1.152.347-1.55-.112z"/><circle fill="#FFF" cx="91.767" cy="117.627" r=".535"/><path fill="#ACAFB1" d="M56.717 137.55s15.005-24.32 46.87-14.59c0 0 8.097 20.76-19.208 27.4-.01 0-20.91 4.267-27.67-12.81z"/><path fill="#FFF" d="M158.79 108.377c4.795 16.172-4.518 33.197-20.796 38.023-16.283 4.83-33.368-4.373-38.163-20.547-4.79-16.17 4.52-33.195 20.8-38.02 16.28-4.83 33.37 4.37 38.16 20.544z"/><circle fill="#0071BC" cx="150.79" cy="103.64" r="4.424"/><path fill="#0F4481" d="M150.472 104.753c-.822-.95-.718-2.383.23-3.205.95-.82 2.383-.718 3.205.23.82.95.717 2.385-.232 3.206-.947.822-2.383.718-3.203-.23z"/><path fill="#FFF" d="M151.795 104.057c-.437-.504-.382-1.266.122-1.703.504-.436 1.268-.382 1.704.122.44.505.38 1.268-.12 1.704-.5.436-1.26.38-1.7-.123z"/><circle fill="#FFF" cx="149.957" cy="102.954" r=".588"/><path fill="#ACAFB1" d="M54.967 133.313s9.092-27.23 46.86-15.068c0 0-5.512-23.766-31.7-15.155 0 0-21.89 6.57-15.16 30.223z"/><circle fill="#FFF" cx="149.348" cy="99.181" r="1.442"/><path fill="#ACAFB1" d="M99.43 124.37s8.677-33.338 57.32-21.117c0 0-8.198-23.975-38.39-15.726 0 0-24.57 8.783-18.93 36.843z"/><path fill="#ACAFB1" d="M100.003 129.12s16.698-22.79 57.87-23.387c0 0 13.958 27.16-17.787 39.968 0 0-26.637 11.58-40.083-16.58z"/><path fill="#FFF" d="M94.75 159.897s-2.117 6.204 3.807 5.178l3.97-6.09-7.776.912zm9.17-1.07s-.618 6.446 2.538 5.945c0 0 5.6.088 4.74-6.516l-7.278.57z"/><path fill="#FFF" d="M110.046 160.024s1.686 6.25 4.466 4.675c0 0 5.275-1.89 2.148-7.77l-6.614 3.09z"/><path fill="#929497" d="M101.64 160.106s-4.012 1.942-3.163 9.14c0 0 3.222-10.146 5.442-10.42l-2.28 1.28zm-8.26.338s-5.8 1.086-6.3 7.426c0 0 3.634-6.398 7.526-7.45l-1.227.024zm-5.588-.61s-8.6 1.065-8.233 6.02c0 0 4.07-6.622 9.56-6.03l-1.33.01z"/><path fill="#6D6F71" d="M108.188 158.28s66.71-6.908 58.99-38.9c0 0 16.75 29.736-59.254 40.182 0 0-33.928 1.277.264-1.282z"/><path fill="#929497" d="M109.104 171.412s.13-5.362 2.14-8.175l-.44-1.146c0 .01-2.258 3.37-1.7 9.33zm6.138-.3s.534-9.866 3.15-13.21l-1.457.26s-1.755 2.203-1.693 12.95z"/><path fill="#FFF" d="M127.753 162.006s5.696 1.456 3.283-6.657l-6.88 1.42 3.597 5.23z"/><path fill="#D0D1D2" d="M115.242 171.112s-.305-19.438 9.678-14.646l4.584 8.962"/><path fill="#929497" d="M131.036 155.35s7.366 1.863 9.057 7.056c0 0-.23-4.42-6.293-7.978l-2.764.92zm9.748-3.084s5.81 1.306 7.947 4.05"/><path fill="#D0D1D2" d="M54.083 144.283s-8.976-6.655-2.38-10.23c6.6-3.574-.314-.79-.314-.79s2.58-6.036 5.32 4.287"/><path fill="#929497" d="M57.91 140.978s1.267-12.68-6.52-7.715c0 0-7.09 3.244 2.694 11.02 0 0-6.724-6.4-2.15-9.657-.002 0 2.56-1.116 5.977 6.352z"/><path fill="#D0D1D2" d="M168.94 130.33s10.02-12.367-.456-14.437"/><path fill="#929497" d="M162.975 126.28s-4.98-11.54 3.875-12.118c0 0 15.56-1.383 4.014 13.66 0 0 5.617-11.33-3.772-10.605 0 0-4.915-.68-4.117 9.064z"/><path fill="#6D6F71" d="M117.867 156.586S59.56 169.72 53.042 135.94c0 0-2.786 32.278 63.892 22.223l.933-1.577z"/><path fill="#929497" d="M100.86 115.894s14.38-25.94 49.066-16.685c0 0-35.553-12.45-49.065 16.68zm.778 14.436s17.042-21.863 56.688-23.388c0 0-37.946 3.3-56.688 23.388zm-44.8 6.925s9.81-10.6 37.96-12.91c0 0-23.047 3.383-37.44 13.826l-.52-.91zm60.096 20.907s1.74-7.373 8.46-2.813c0 0 2.693 3.91 3.417 10.5 0 0-2.67-11.45-7.83-9.93 0 0-3.86-.94-5.74 12.54m-59.53-41.28s6.11-26.08 39.28-13.96c0 0-31-17.13-39.28 13.96z"/><path fill="#FFF" d="M124.303 181.406c.406.084.832.223 1.27.418.443.196.815.422 1.122.682.308.258.52.55.633.87.116.322.052.69-.208 1.025-.13.17-.33.28-.563.33-.23.05-.476.06-.73.04-.254-.02-.515-.06-.785-.13-.272-.07-.518-.11-.703-.14-.83-.16-1.68-.36-2.48-.45-.69-.07-1.41-.1-2.17-.09-.75.01-1.5.14-2.03.44-.5.29-.87.81-1.05 1.34-.18.54-.24 1.09-.17 1.64.07.56.25 1.11.53 1.64.28.53.64 1 1.06 1.31 1.36 1.01 2.83 1.76 4.04 2.35 1.21.59 2.27 1.14 3.18 1.66.9.52 1.68 1.08 2.31 1.69.63.61 1.09 1.46 1.45 2.39.62 1.62.85 3.1.31 4.32-.53 1.23-1.47 2.26-2.82 3.06-1.35.8-3 1.38-4.91 1.71-1.92.33-3.83.43-5.7.31-1.87-.11-3.6-.42-5.16-.9-1.57-.48-2.67-1.05-3.33-1.68-.46-.43-.86-.87-1.2-1.31-.34-.43-.55-.82-.61-1.16-.07-.34.02-.63.27-.85.24-.22.73-.34 1.44-.35.24 0 .45.05.63.15.18.1.35.22.51.34.16.12.31.26.43.41.12.15.28.27.39.38.51.54 1.37 1.25 2.6 1.68 1.24.42 2.53.64 3.87.65 1.34.01 2.52-.24 3.54-.72s1.62-1.3 1.64-2.27c.01-.62-.26-1.23-.68-1.68-.42-.45-.95-.83-1.6-1.15-.65-.31-1.37-.59-2.16-.82-.8-.23-1.61-.47-2.42-.73-.82-.25-1.6-.52-2.34-.82-.75-.29-1.38-.65-1.89-1.06-.91-.73-1.68-1.45-2.33-2.13-.65-.68-1.14-1.43-1.48-2.23-.34-.8-.51-1.7-.5-2.7 0-1 .15-2.28.57-3.56.31-.94 1.21-1.78 2.46-2.45 1.25-.67 2.72-1.14 4.41-1.48 1.69-.33 3.5-.48 5.46-.48s3.9.23 5.82.63zm13.463.37c.47.635.917 1.522 1.27 2.66.355 1.14.708 2.37 1.053 3.69.34 1.322.71 2.653 1.09 3.99.38 1.338.84 2.51 1.4 3.513.55 1 1.25 1.75 2.09 2.23.84.48 1.98.56 3.17.09.95-.37 1.65-1.14 1.99-2.07.34-.94.46-1.97.37-3.09-.09-1.13-.34-2.31-.73-3.56-.39-1.25-.82-2.43-1.27-3.55-.46-1.12-.89-2.12-1.3-3.02s-.7-1.56-.88-2c-.15-.37-.23-.73-.28-1.06-.04-.27-.06-.54-.03-.79s.16-.43.38-.52c.45-.18.81-.29 1.09-.33.28-.04.51 0 .71.1.19.1.37.3.52.58.15.28.32.64.51 1.07.94 2.16 1.4 3.24 2.34 5.4.45 1.05.84 2.01 1.15 2.89.31.88.55 1.72.73 2.53.17.8.25 1.6.22 2.39-.02.79-.19 1.63-.37 2.45-.16.69-.39 1.47-.77 2.22-.38.76-.94 1.5-1.68 2.22s-1.68 1.37-2.81 1.93c-1.13.56-2.51.98-4.06 1.28-2.06.4-3.89.46-5.39.15-1.5-.31-2.76-.89-3.79-1.69-1.03-.81-1.84-1.79-2.47-2.95-.63-1.15-1.13-2.38-1.51-3.68-.38-1.3-.68-2.61-.9-3.95s-.43-2.6-.62-3.81c-.15-.96-.23-1.44-.38-2.4-.06-.36-.01-.69.14-.96.14-.28.35-.51.61-.69.25-.18.56-.34.91-.46.35-.13.68-.22 1-.28 1.03-.21 1.55-.32 2.57-.55.42-.1.82-.19 1.22-.28.39-.08.76-.15 1.12-.19.35-.04.65-.03.91.03s.44.19.59.38zm30.18 2.454c.038.113 1.61.284 2.653.3 1.03.016 2.06.002 3.05-.04 1-.042 1.88-.07 2.63-.08.76-.01 1.2.094 1.32.31.27.5.33.946.2 1.292-.13.348-.4.64-.82.866-.42.23-.96.395-1.61.49-.65.1-1.4.17-2.2.173-1.11.01-2.29-.05-3.49-.12-1.2-.07-3.19-.15-3.26-.06-.05.07.32.77.65 1.18.32.41.64.83.93 1.24.29.42.5.82.63 1.21s-.09.77-.29 1.08c-.17.27-.55.83-1.22 1.36-.68.53-1.45 1.04-2.31 1.52-.86.48-1.74.9-2.63 1.26-.89.36-1.65.56-2.19.66-.63.12-1.13.03-1.41-.33s-.58-.84-.81-1.39c-.33-.79-.76-1.83-1.34-2.97-.58-1.14-1.2-2.33-1.85-3.58-.66-1.24-1.29-2.51-1.91-3.8-.62-1.29-1.14-2.48-1.57-3.56-.44-1.08-.72-2.03-.88-2.83-.16-.8-.06-1.37.2-1.7.34-.44.94-1 1.82-1.56s1.83-1.1 2.86-1.64c1.04-.54 2.05-1.04 3.05-1.5 1-.45 1.79-.81 2.36-1.01.84-.28 1.7-.4 2.53-.39.83.01 1.61.11 2.35.32.73.22 1.41.51 2.02.9.62.39 1.22.81 1.6 1.24.29.33.57.77.87 1.17.29.4.55.82.77 1.24.22.43.4.85.52 1.27.13.42.14.85.08 1.27-.14 1.06-.48 2.14-1.1 3.1-.63.96-2.31 3.11-2.29 3.16zm-3.784.07c.282.106 1.504-.72 2.194-1.395.69-.676 1.257-1.41 1.693-2.185.43-.774.7-1.54.82-2.29.11-.748-.03-1.348-.33-1.786-.68-1.017-1.45-1.906-2.31-2.493-.87-.58-1.76-.96-2.68-1.15-.92-.18-1.83-.17-2.74.02-.92.2-2.55.82-2.61 1.04-.07.27 1.01 1.7 1.57 2.66.56.97 1.12 1.93 1.66 2.9.54.97 1.05 1.86 1.53 2.69.48.83.99 1.94 1.18 2.01zm11.67-23.475c.317.46.78.99 1.39 1.592.61.602 1.267 1.22 1.97 1.85.703.63 1.408 1.253 2.114 1.862.707.6 1.57 1.6 1.816 1.63.153.01.614-.43.838-.65.226-.23.44-.46.647-.7.204-.25.407-.5.61-.77.207-.27.43-.55.682-.83.46-.51.87-.94 1.17-1.29.31-.35.58-.61.83-.78.25-.17.49-.24.74-.21s.52.17.83.42c.23.19.19.56-.14 1.11s-.76 1.16-1.31 1.81c-.55.65-1.12 1.31-1.74 1.96-.61.65-1.36 1.39-1.37 1.62-.01.2.48.73.79 1.03s.64.6.97.89c.33.29.67.61.99.95.33.34.77 1.08.9 1.11.11.02.69-.52 1.15-1.01.46-.49.95-1.05 1.47-1.67.52-.63 1.05-1.26 1.59-1.92.53-.66 1.04-1.24 1.53-1.74.48-.5.92-.88 1.33-1.11.4-.24.75-.25 1.05-.02.29.23.39.56.29.99-.11.44-.35.96-.74 1.56-.39.6-.89 1.26-1.5 1.97-.62.71-1.27 1.5-1.95 2.21-.97 1.01-2.19 2.23-3.46 3.65-1.28 1.41-2.55 2.7-3.81 3.87-1.27 1.16-2.44 2.04-3.5 2.65-1.06.61-1.86.64-2.35.12-1.88-1.96-3.67-4.12-5.4-6.33s-3.49-4.43-5.28-6.66l-.67-.83c-.24-.3-.46-.6-.66-.9-.2-.3-.38-.57-.53-.82-.14-.25-.27-.49-.26-.62 0-.2.29-.58.69-1.03.4-.45.87-.93 1.39-1.43.52-.51 1.02-1 1.52-1.47l1.18-1.13c1.71-1.65 2.54-2.51 4.14-4.3.35-.39.72-.86 1.11-1.39.39-.54.79-1.02 1.18-1.44.39-.43.77-.74 1.15-.94.38-.2.75-.16 1.12.13.26.2.36.45.31.76-.05.3-.17.62-.37.95-.21.33-.45.66-.73.98-.28.32-.52.58-.7.8-1.21 1.41-1.82 2.1-3.1 3.44zm22.688 4.22c-.245.04-.514-.006-.806-.136-.29-.13-.544-.3-.763-.51s-.37-.46-.47-.75c-.09-.29-.06-.59.11-.89.28-.52.57-.96.85-1.31.24-.3.51-.57.8-.82.29-.25.59-.33.89-.25.51.13.94.33 1.27.6.33.26.42.6.35.94-.05.26-.13.58-.27.92-.14.34-.32.66-.51.98-.19.32-.42.59-.67.81-.25.21-.49.34-.74.38zM65.664 56.035c.486-.19 1.018-.34 1.59-.435.574-.095 1.082-.11 1.527-.05.45.058.8.207 1.06.44.26.232.34.61.2 1.055-.07.228-.23.434-.46.602-.22.168-.47.317-.74.444-.27.13-.56.25-.87.35-.31.1-.58.21-.8.3-.93.36-1.9.74-2.76 1.21-.74.4-1.48.89-2.22 1.44-.73.56-1.37 1.21-1.69 1.87-.29.61-.3 1.29-.12 1.84.19.55.49 1.01.92 1.38.43.37.93.66 1.51.87.58.21 1.17.33 1.71.29 1.78-.12 3.44-.39 4.79-.57 1.35-.19 2.54-.26 3.57-.25 1.03.01 1.95.16 2.76.43.82.27 1.58.84 2.29 1.54 1.23 1.21 2.05 2.46 2.23 3.72.17 1.27 0 2.48-.5 3.65s-1.25 2.28-2.24 3.34c-.99 1.06-2.04 2-3.16 2.83-1.12.82-2.24 1.51-3.38 2.04-1.14.53-2.1.81-2.89.79-.55-.01-1.08-.04-1.58-.1-.49-.06-.9-.17-1.2-.34-.3-.17-.48-.4-.53-.71-.05-.3.11-.7.47-1.18.13-.16.27-.26.45-.31.17-.05.35-.08.53-.1s.36-.02.54 0c.18.02.36.01.49.02.69.05 1.65.01 2.63-.39.98-.41 1.86-.95 2.65-1.64.79-.69 1.36-1.46 1.72-2.32.35-.87.28-1.81-.28-2.6-.37-.52-.91-.87-1.47-1.02-.56-.15-1.16-.18-1.81-.08-.65.1-1.32.29-2.02.58s-1.41.59-2.13.92c-.72.33-1.42.64-2.11.93-.69.3-1.35.49-1.97.58-1.11.16-2.14.27-3.07.34s-1.82 0-2.67-.2c-.86-.2-1.69-.58-2.51-1.16-.82-.58-1.79-1.45-2.55-2.56-.56-.83-.6-2.18-.12-3.78.47-1.6 1.36-3.32 2.69-5.09 1.33-1.78 3.01-3.49 5.04-5.07 2.03-1.59 4.26-2.83 6.57-3.73zm15.506-6.023c.64.5 1.27 1.277 1.834 2.33.566 1.05 1.14 2.193 1.73 3.427.586 1.23 1.195 2.47 1.82 3.71.628 1.24 1.296 2.31 2 3.2.703.9 1.46 1.54 2.266 1.94.806.39 1.775.39 2.688-.09.736-.39 1.227-1.12 1.428-2.03.2-.91.23-1.92.086-3.02-.145-1.11-.414-2.29-.818-3.53s-.836-2.43-1.298-3.54c-.462-1.12-.902-2.12-1.327-3s-.73-1.55-.91-1.99c-.15-.37-.23-.73-.27-1.06-.03-.27-.03-.55.02-.81.05-.27.22-.45.49-.56.55-.22.99-.35 1.33-.39.33-.05.61-.02.82.09.21.11.39.31.53.6s.29.66.45 1.1c.8 2.21 1.21 3.32 2.02 5.53.39 1.07.72 2.06.98 2.95s.46 1.75.61 2.55.21 1.6.2 2.37c-.01.77-.13 1.59-.25 2.37-.1.67-.25 1.4-.49 2.12-.25.71-.62 1.41-1.12 2.08-.5.67-1.14 1.29-1.92 1.85-.78.57-1.76 1.04-2.87 1.46-1.48.56-2.85.89-4.1.88-1.25-.02-2.43-.26-3.54-.73-1.11-.47-2.15-1.13-3.13-1.98-.98-.85-1.9-1.79-2.77-2.83-.86-1.04-1.67-2.12-2.43-3.25-.75-1.13-1.46-2.2-2.12-3.22l-1.32-2.03c-.21-.31-.28-.64-.22-.97.06-.33.2-.65.42-.95.22-.31.5-.6.85-.89.35-.29.69-.54 1.04-.74 1.11-.67 1.67-1 2.79-1.63.46-.26.91-.51 1.36-.73.44-.23.86-.42 1.27-.58.4-.16.76-.25 1.07-.26.3-.02.55.05.74.2zm30.628 4.772c-.007.134 1.244.886 2.063 1.338.83.453 1.62.894 2.38 1.323.77.428 1.42.833 1.96 1.207.54.374.82.692.82.937.01.56-.1.98-.31 1.21-.2.23-.48.34-.84.33s-.78-.13-1.27-.35c-.49-.22-1.05-.5-1.64-.85-.81-.49-1.69-1.03-2.61-1.56-.92-.53-2.55-1.27-2.6-1.24-.05.04.1.82.27 1.31.18.49.33.99.47 1.48.14.49.23.93.26 1.33s-.23.7-.42.9c-.18.19-.55.58-1.13.86-.59.28-1.23.52-1.94.74-.71.21-1.41.39-2.12.53-.7.14-1.3.17-1.73.16-.49-.01-.88-.17-1.1-.57-.22-.4-.45-.9-.63-1.48-.26-.83-.59-1.89-1.04-3.09-.45-1.2-.95-2.45-1.48-3.75s-1.04-2.62-1.54-3.96c-.5-1.34-.91-2.57-1.23-3.7-.32-1.12-.51-2.1-.55-2.92-.04-.82.18-1.4.55-1.72.49-.43 1.34-.96 2.52-1.43s2.48-.87 3.88-1.2c1.4-.33 2.76-.58 4.09-.74 1.33-.16 2.38-.24 3.11-.22 1.07.02 2.06.23 2.93.58.87.34 1.61.78 2.22 1.3.62.53 1.11 1.11 1.48 1.75.38.64.7 1.3.82 1.86.09.43.12.95.17 1.44.05.49.07.98.06 1.46-.01.48-.06.93-.15 1.36-.09.42-.28.81-.51 1.14-.58.86-1.3 1.65-2.18 2.23-.87.57-2.96 1.81-2.96 1.92zm-3.27-1.256c.223.176 1.51-.187 2.315-.562.806-.375 1.537-.825 2.195-1.353.658-.527 1.19-1.1 1.597-1.722s.55-1.21.485-1.74c-.15-1.21-.427-2.35-.97-3.26-.543-.9-1.233-1.62-2.073-2.15-.84-.53-1.797-.86-2.86-.98s-3.12-.02-3.258.21c-.15.24.45 1.92.69 3.02.24 1.09.47 2.18.7 3.26.23 1.09.44 2.09.65 3.03.21.94.36 2.15.52 2.27zm22.996-13.806c-.132.547-.204 1.25-.223 2.105-.01.856-.01 1.76.02 2.702.03.94.07 1.88.11 2.81s-.09 2.24.06 2.44c.09.11.68.16.97.17.3.01.59.02.89.01l.91-.03c.31-.02.65-.02 1 0 .64.04 1.19.1 1.62.14.43.04.77.11 1.03.21.26.1.44.27.54.48.1.21.14.52.11.92-.02.29-.32.47-.89.53-.57.06-1.23.07-1.98.05-.75-.02-1.52-.05-2.31-.08s-1.72-.07-1.88.07c-.15.13-.17.85-.17 1.28 0 .43 0 .87.02 1.32.01.44.01.9 0 1.37-.02.47-.22 1.28-.14 1.41.05.09.67.15 1.2.16h1.75c.64 0 1.29.01 1.95.03.66.02 1.27.09 1.81.19s.97.26 1.29.46c.33.2.47.49.43.86-.03.37-.21.63-.54.79-.32.16-.75.25-1.28.29-.53.03-1.14.02-1.84-.03-.7-.05-1.47-.06-2.19-.11-1.03-.08-2.33-.16-3.75-.05-1.41.1-2.76.2-4.04.29-1.28.09-2.37.08-3.29-.04-.91-.13-1.45-.54-1.58-1.24-.48-2.68-.86-5.44-1.15-8.24s-.6-5.61-.93-8.45l-.12-1.06c-.05-.38-.07-.75-.08-1.12-.01-.36-.01-.69.01-.98.01-.29.05-.57.14-.67.13-.17.67-.35 1.38-.51.71-.16 1.5-.29 2.37-.39.87-.11 1.72-.19 2.54-.24.82-.06 1.48-.09 1.98-.11 2.88-.1 4.32-.1 7.21-.02.63.02 1.34.02 2.14.01s1.55.03 2.25.11 1.27.24 1.72.45c.45.21.65.55.61 1.02-.03.32-.21.54-.53.66-.32.12-.71.19-1.15.2-.44.02-.91 0-1.4-.04s-.89-.07-1.22-.09c-2.13-.11-3.19-.14-5.32-.15zm9.374 20.673c-.112-.187-.183-.44-.2-.753-.022-.313 0-.618.058-.912.06-.293.17-.557.333-.79.16-.23.39-.36.66-.373.47-.024.89.008 1.24.082.29.06.58.16.85.3.27.14.43.36.46.67.06.51.04.97-.05 1.39-.09.41-.31.65-.56.74-.19.07-.44.16-.72.2-.28.04-.55.05-.83.04-.28-.01-.54-.07-.77-.17-.23-.11-.4-.25-.51-.44zm5.477.79c-.102-.193-.152-.45-.154-.763 0-.315.04-.62.12-.908.08-.29.21-.544.39-.765.18-.22.41-.34.69-.33.47 0 .9.06 1.24.16.3.08.58.2.85.36.27.15.41.39.43.7.03.51-.01.97-.13 1.38-.11.4-.34.63-.6.71-.2.06-.45.13-.73.15-.28.02-.56.01-.84-.02-.28-.03-.53-.1-.76-.22-.22-.12-.38-.28-.48-.47zm5.455 1.145c-.09-.202-.125-.46-.105-.773.02-.313.077-.614.174-.897s.23-.53.43-.738c.19-.208.43-.308.71-.286.47.037.89.124 1.24.242.29.1.57.24.82.414s.38.416.38.726c0 .517-.08.972-.22 1.37-.14.4-.39.606-.66.67-.2.048-.47.103-.75.104-.28 0-.56-.022-.84-.07-.28-.046-.54-.134-.75-.265-.22-.13-.37-.297-.46-.498z"/></svg>