<?xml version="1.0" encoding="utf-8"?>
<!-- Generator: Adobe Illustrator 16.0.0, SVG Export Plug-In . SVG Version: 6.00 Build 0)  -->
<!DOCTYPE svg PUBLIC "-//W3C//DTD SVG 1.1//EN" "http://www.w3.org/Graphics/SVG/1.1/DTD/svg11.dtd">
<svg version="1.1" id="Layer_1" xmlns="http://www.w3.org/2000/svg" xmlns:xlink="http://www.w3.org/1999/xlink" x="0px" y="0px"
	 width="250px" height="250px" viewBox="0 0 250 250" enable-background="new 0 0 250 250" xml:space="preserve">
<path opacity="0.15" d="M218.033,167.012l11.964-21.572h-27.594c4.767-10.252,7.445-21.672,7.445-33.723
	c0-44.238-35.862-80.1-80.101-80.1c-44.238,0-80.1,35.861-80.1,80.1c0,12.051,2.678,23.471,7.445,33.723H27.705l11.965,21.572
	l-11.965,20.88h21.943v28.992h160.2v-28.992h20.148L218.033,167.012z M62.153,154.668l-0.459,0.324l0.053-0.958
	C61.88,154.247,62.019,154.456,62.153,154.668z"/>
<polygon fill="#F4D382" points="59.22,141.439 24.705,141.439 36.67,163.012 24.705,183.892 56.882,183.892 "/>
<polygon fill="#F4D382" points="192.482,141.439 226.997,141.439 215.033,163.012 226.997,183.892 194.82,183.892 "/>
<polygon fill="#C59938" points="46.648,159.5 67.043,145.096 75.372,181.13 "/>
<polygon fill="#C59938" points="206.844,159.5 186.449,145.096 178.121,181.13 "/>
<circle fill="#DBB48A" cx="126.749" cy="107.717" r="80.1"/>
<circle fill="#FFFFFF" cx="126.709" cy="169.159" r="34.118"/>
<path fill="#FFFFFF" d="M170.836,59.052c-0.87-2.029-2.188-3.878-2.188-3.878c2.175-19.359-9.837-15.39-9.837-15.39
	c-3.97,0.69-1.146,3.96-1.146,3.96c11.362,1.985,6.322,10.622,6.322,10.622c-9.491-18.983-20.246-0.345-20.246-0.345
	c2.535,6.73,6.975,1.035,6.975,1.035c6.058-12.426,13.099,6.73,13.099,6.73c-5.349,6.731-4.659-2.416-4.659-2.416
	c-5.641-2.163-3.921,4.142-3.921,4.142c1.245,7.369,12.27,0.747,12.423,0.654c18.702,17.946,25.817,41.662,15.732,58.686
	c-8.066,13.613-25.172,19.628-44.346,17.517c1.07-0.571,2.136-1.164,3.194-1.789c11.936-7.072,21.2-16.604,27.179-26.997
	c-5.664,6.526-12.764,12.509-21.079,17.437c-6.925,4.103-14.087,7.103-21.165,9.055c-7.079-1.952-14.24-4.952-21.165-9.055
	c-8.315-4.928-15.416-10.91-21.079-17.437c5.978,10.394,15.243,19.925,27.179,26.997c1.057,0.625,2.123,1.218,3.193,1.789
	c-19.172,2.111-36.279-3.903-44.345-17.517c-10.086-17.023-2.97-40.739,15.732-58.686c0.154,0.092,11.178,6.714,12.424-0.654
	c0,0,1.718-6.305-3.922-4.142c0,0,0.69,9.147-4.659,2.416c0,0,7.042-19.156,13.099-6.73c0,0,4.44,5.695,6.974-1.035
	c0,0-8.884-15.935-19.019-1.888c0,0-0.478-9.445,11.49-9.214c0,0,1.961-2.781-2.008-3.471c0,0-17.542-3.634-15.368,15.725
	c0,0-1.317,1.85-2.188,3.878c-24.15,18.654-33.648,48.053-21.068,69.286c11.66,19.68,38.589,26.09,64.73,17.189
	c26.143,8.9,53.071,2.49,64.731-17.189C204.484,107.105,194.987,77.706,170.836,59.052z"/>
<g id="Layer_2_1_">
</g>
<path fill="#D0D2D3" d="M88.935,84.546c0,0-7.09,2.993-12.366-0.135c0,0-8.246,1.84-2.06,9.856c0,0,6.179,8.769,9.056,4.71
	L88.935,84.546z"/>
<path fill="#919496" d="M83.526,94.946c0,0-7.497-0.649-8.109-7.583C75.417,87.363,74.27,97.913,83.526,94.946z"/>
<path fill="#D0D2D3" d="M164.559,84.546c0,0,7.089,2.993,12.365-0.135c0,0,8.246,1.84,2.06,9.856c0,0-6.179,8.769-9.056,4.71
	L164.559,84.546z"/>
<path fill="#919496" d="M169.967,94.946c0,0,7.498-0.649,8.109-7.583C178.076,87.363,179.224,97.913,169.967,94.946z"/>
<path fill="#FFFFFF" d="M176.477,108.843c0-20.586-22.281-37.274-49.766-37.274c-27.487,0-49.768,16.688-49.768,37.274
	c0,17.907,16.862,32.857,39.34,36.447c3.374-2.098,7.157-3.274,11.153-3.274c3.867,0,7.532,1.108,10.82,3.08
	C160.172,141.194,176.477,126.449,176.477,108.843z"/>
<ellipse fill="#D0D2D3" cx="126.711" cy="108.842" rx="44.291" ry="33.174"/>
<path fill="#D0D2D3" d="M116.283,145.29c-8.617,5.359-14.562,16.734-14.562,29.9c0,18.322,11.513,33.175,25.715,33.175
	s25.716-14.853,25.716-33.175c0-13.333-6.1-24.823-14.896-30.095c-3.707,0.66-7.569,1.021-11.546,1.021
	C123.132,146.116,119.646,145.828,116.283,145.29z"/>
<path fill="#BE1E2D" d="M115.026,113.007c0,0,11.431,58.984,23.41,0.258l-0.158-0.258l-1.783,1.531l-1.609,0.949h-0.461
	l-1.208,0.173l-2.128-0.173l-2.878-1.985l-1.293-1.869l-1.007,1.122l-0.69,0.747l-0.777,0.633l-0.834,0.518l-0.777,0.489
	l-0.805,0.345l-0.863,0.23l-1.064-0.057l-1.15-0.374l-1.266-0.547l-1.668-1.179l-0.834-1.063L115.026,113.007z"/>
<path fill="#6C6F71" d="M141.198,112.639c0,0-3.293,1.38-3.995-2.417c0,0-0.186,1.812,0.665,2.681
	c-1.363,1.425-6.183,5.577-10.531-1.53l0,0l-0.492-9.057l-0.49,1.791v7.266l0,0l0,0c-5.129,8.38-10.912,1.106-10.912,1.106
	l-0.003,0.001c0.496-0.928,0.359-2.258,0.359-2.258c-0.702,3.797-3.994,2.417-3.994,2.417c1.668,0.937,2.648,0.848,3.221,0.366
	v0.002c5.794,7,10.363,1.421,11.819-0.812c1.438,2.205,5.907,7.653,11.591,1.07C139.032,113.474,139.911,113.362,141.198,112.639z"
	/>
<path fill="#1D8FCD" d="M126.748,106.759l3.391-4.37c0,0-1.697-3.178-3.434-0.073c-1.735-3.105-3.432,0.073-3.432,0.073l3.39,4.37
	v0.111l0.042-0.056l0.043,0.056V106.759z"/>
<path fill="#FFFFFF" d="M125.945,105.283c0,0-0.027-2.233-1.148-1.271L125.945,105.283z"/>
<path fill="#FFFFFF" d="M127.437,105.283c0,0,0.03-2.233,1.151-1.271L127.437,105.283z"/>
<path fill="#D0D2D3" d="M85.021,98.913c0,0,0.909-39.769,35.896-19.923C155.855,98.806,85.021,98.913,85.021,98.913z"/>
<ellipse fill="#FFFFFF" cx="106.643" cy="92.385" rx="18.892" ry="16.972"/>
<path fill="#D0D2D3" d="M130.658,78.989c0,0,30.793-21.426,36.745,17.439L130.658,78.989z"/>
<ellipse fill="#FFFFFF" cx="146.231" cy="92.385" rx="18.893" ry="16.972"/>
<g>
	<circle fill="#0071BC" cx="110.604" cy="92.385" r="11.491"/>
	<path fill="#0F4481" d="M105.525,96.881c-2.808-3.245-2.453-8.145,0.789-10.95c3.241-2.804,8.142-2.453,10.951,0.791
		c2.804,3.241,2.451,8.144-0.792,10.949C113.234,100.477,108.331,100.122,105.525,96.881z"/>
	<path fill="#FFFFFF" d="M108.667,94.5c-1.492-1.725-1.304-4.327,0.419-5.817c1.72-1.49,4.328-1.306,5.82,0.417
		c1.49,1.724,1.299,4.331-0.423,5.822C112.76,96.412,110.158,96.222,108.667,94.5z"/>
	<circle fill="#FFFFFF" cx="103.076" cy="90.732" r="2.009"/>
</g>
<g>
	<circle fill="#0071BC" cx="142.092" cy="92.385" r="11.491"/>
	<path fill="#0F4481" d="M137.013,96.881c-2.808-3.245-2.454-8.145,0.788-10.95c3.24-2.804,8.143-2.453,10.95,0.791
		c2.805,3.241,2.451,8.144-0.791,10.949C144.721,100.477,139.817,100.122,137.013,96.881z"/>
	<path fill="#FFFFFF" d="M140.153,94.5c-1.492-1.725-1.304-4.327,0.419-5.817c1.721-1.49,4.328-1.306,5.821,0.417
		c1.489,1.724,1.299,4.331-0.424,5.822C144.247,96.412,141.645,96.222,140.153,94.5z"/>
	<circle fill="#FFFFFF" cx="134.564" cy="90.732" r="2.009"/>
</g>
<path fill="#A6A8AB" d="M115.911,125.466c0,0,11.438,34.803,21.677-0.747c0,0-3.201,16.414-10.25,16.684
	C127.338,141.402,121.73,143.009,115.911,125.466z"/>
<path fill="#EF4B4D" d="M121.711,125.466c0,0,5.9-6.268,5.48,5.927c0,0,0.1-10.585,6.053-6.674
	C133.244,124.719,127.463,148.991,121.711,125.466z"/>
<path fill="#A6A8AB" d="M89.842,61.01c0,0-1.553-1.984-3.625,0C86.218,61.01,88.03,57.99,89.842,61.01z"/>
<path fill="#A6A8AB" d="M164.559,61.528c0,0,3.794-3.186,4.668,0.949C169.227,62.477,169.469,57.3,164.559,61.528z"/>
<polygon fill="#FFF800" points="127.34,32.923 130.254,41.886 139.678,41.886 132.054,47.425 134.964,56.389 127.34,50.849 
	119.715,56.389 122.628,47.425 115.003,41.886 124.428,41.886 "/>
<polygon fill="#FFF800" points="115.91,54.582 117.636,59.893 123.221,59.893 118.703,63.176 120.428,68.487 115.91,65.205 
	111.392,68.487 113.118,63.176 108.599,59.893 114.184,59.893 "/>
<polygon fill="#FFF800" points="139.146,54.582 140.872,59.893 146.457,59.893 141.938,63.176 143.664,68.487 139.146,65.205 
	134.628,68.487 136.354,63.176 131.836,59.893 137.42,59.893 "/>
<rect x="46.648" y="159.5" fill="#E2BC44" width="160.2" height="53.384"/>
<g>
	<path fill="#FFFFFF" d="M54.077,175.582c0-1.544-0.005-2.688-0.016-3.43c-0.011-0.743-0.026-1.405-0.046-1.986
		c1.984,0.129,3.921,0.224,5.813,0.287c1.891,0.063,3.746,0.096,5.565,0.096c1.695,0,3.26-0.024,4.697-0.073
		c1.437-0.051,2.785-0.125,4.046-0.224c-0.083,0.638-0.145,1.292-0.186,1.964c-0.042,0.673-0.062,1.378-0.062,2.112
		c0,0.524,0.005,0.91,0.016,1.158c0.01,0.248,0.025,0.485,0.046,0.711c-0.91-0.085-1.86-0.16-2.852-0.223
		c-0.992-0.063-2.026-0.117-3.1-0.159c-0.248,2.76-0.44,5.715-0.574,8.865c-0.135,3.15-0.202,6.487-0.202,10.013
		c0,0.835,0.025,1.769,0.078,2.803c0.051,1.033,0.129,2.208,0.232,3.524c-1.261,0.057-2.889,0.138-4.883,0.244
		c-1.995,0.106-3.261,0.174-3.798,0.202c0.021-3.992,0.113-8.144,0.279-12.455c0.166-4.311,0.393-8.751,0.682-13.325
		c-1.075-0.041-1.907-0.069-2.496-0.084c-0.589-0.014-1.143-0.021-1.659-0.021H54.077z"/>
	<path fill="#FFFFFF" d="M76.461,201.509c0.145-3.028,0.253-6.373,0.325-10.033c0.073-3.659,0.109-8.229,0.109-13.707
		c0-1.727-0.036-3.166-0.109-4.32c-0.072-1.154-0.181-2.206-0.325-3.153c1.095-0.099,2.227-0.17,3.395-0.214
		c1.168-0.041,2.361-0.063,3.581-0.063l1.457,0.022c0.021,0.891,0.036,1.875,0.047,2.951c0.01,1.075,0.015,2.668,0.015,4.777
		c0,2.535-0.01,4.422-0.031,5.659c-0.021,1.239-0.052,2.382-0.093,3.43h3.875v-0.383c0.082-2.349,0.124-4.047,0.124-5.097
		c0-2.151-0.052-4.164-0.155-6.041c-0.104-1.876-0.259-3.57-0.465-5.085l8.743-0.318c-0.166,4.445-0.29,8.249-0.372,11.413
		c-0.083,3.163-0.124,5.9-0.124,8.208c0,2.038,0.02,4.076,0.062,6.114c0.041,2.039,0.103,4.086,0.186,6.138
		c-0.869-0.084-1.943-0.163-3.225-0.233c-1.281-0.071-3.038-0.149-5.271-0.234c0.062-1.061,0.124-2.239,0.187-3.535
		c0.062-1.296,0.144-3.16,0.248-5.596l-3.813,0.127c-0.104,1.529-0.181,2.918-0.233,4.162c-0.051,1.246-0.077,2.408-0.077,3.483
		l-0.031,1.443c-0.352-0.014-0.744-0.024-1.178-0.031c-0.434-0.006-1.075-0.011-1.922-0.011c-0.93,0-1.803,0.011-2.62,0.031
		C77.954,201.435,77.184,201.467,76.461,201.509z"/>
	<path fill="#FFFFFF" d="M98.225,201.298c2.004-6.201,3.611-11.886,4.821-17.052c1.208-5.168,2.061-9.938,2.557-14.313l8.899,0.084
		c0.599,5.238,1.395,10.437,2.386,15.597c0.992,5.161,2.182,10.282,3.566,15.364l-7.286,0.7l-0.527-2.379l-5.705,0.044l-0.558,2.781
		L98.225,201.298z M107.712,195.075h4.123c-0.434-1.911-0.837-4.014-1.209-6.308c-0.372-2.293-0.713-4.756-1.021-7.39
		c-0.29,2.52-0.595,4.925-0.916,7.209C108.367,190.874,108.042,193.036,107.712,195.075z"/>
	<path fill="#FFFFFF" d="M121.013,201.084c0.744-3.213,1.301-6.593,1.673-10.139c0.372-3.547,0.558-7.244,0.558-11.096
		c0-1.57-0.067-3.075-0.201-4.513c-0.135-1.436-0.346-2.827-0.636-4.172c1.323-0.156,2.616-0.361,3.876-0.616
		c1.261-0.254,2.49-0.559,3.689-0.912c0.848,2.703,1.741,5.391,2.681,8.059c0.942,2.668,1.96,5.403,3.055,8.206
		c0-2.859-0.042-5.588-0.124-8.187c-0.083-2.597-0.197-5.07-0.342-7.42c0.601,0.041,1.169,0.074,1.706,0.095
		c0.538,0.021,1.075,0.032,1.612,0.032c0.868,0,1.752-0.035,2.651-0.106c0.898-0.071,1.771-0.163,2.619-0.275
		c-0.496,2.378-0.863,4.922-1.101,7.633c-0.238,2.712-0.356,5.624-0.356,8.738c0,2.422,0.057,4.82,0.171,7.198
		c0.113,2.379,0.282,4.736,0.511,7.071c-1.198,0.028-2.383,0.146-3.55,0.351s-2.31,0.513-3.426,0.924
		c-0.187-1.26-0.812-3.352-1.876-6.274c-1.064-2.924-2.495-6.474-4.293-10.649c-0.083,1.048-0.145,2.027-0.188,2.941
		c-0.041,0.913-0.062,1.701-0.062,2.367c0,2.986,0.026,5.443,0.079,7.368c0.051,1.925,0.127,3.193,0.231,3.801
		c-1.405-0.07-3.11-0.151-5.115-0.244C122.852,201.173,121.571,201.113,121.013,201.084z"/>
	<path fill="#FFFFFF" d="M146.774,201.467c0.311-3.766,0.553-7.243,0.729-10.437c0.175-3.192,0.263-6.034,0.263-8.526
		c0-2.392-0.076-4.544-0.231-6.455s-0.398-3.659-0.729-5.245c1.364-0.198,2.708-0.361,4.031-0.488
		c1.322-0.127,2.604-0.204,3.844-0.234c0.248,1.644,0.439,3.469,0.574,5.479c0.134,2.01,0.201,4.169,0.201,6.478v1.463
		c1.219-2.278,2.201-4.55,2.945-6.814c0.743-2.265,1.261-4.53,1.549-6.796h0.838c0.992,0,2.051,0.063,3.178,0.19
		c1.127,0.128,2.329,0.312,3.612,0.553c-0.477,2.731-1.235,5.323-2.278,7.771c-1.044,2.45-2.362,4.743-3.953,6.88
		c2.004,2.62,3.685,5.231,5.038,7.836c1.354,2.605,2.381,5.225,3.084,7.857c-1.344,0.34-2.599,0.595-3.767,0.765
		c-1.167,0.17-2.278,0.255-3.333,0.255c-0.372,0-0.646-0.004-0.82-0.011c-0.177-0.008-0.338-0.019-0.482-0.032
		c-0.495-2.038-1.198-4.161-2.106-6.37c-0.91-2.208-2.077-4.594-3.504-7.156c0,2.393-0.067,4.682-0.201,6.868
		c-0.135,2.189-0.347,4.301-0.637,6.34c-0.95-0.071-1.864-0.124-2.744-0.158c-0.878-0.035-1.741-0.055-2.588-0.055
		c-0.683,0-1.198,0.004-1.55,0.011C147.384,201.443,147.064,201.453,146.774,201.467z"/>
	<path fill="#FFFFFF" d="M172.848,201.892c-0.062-1.033-0.227-2.096-0.496-3.187c-0.268-1.089-0.641-2.215-1.116-3.375h0.527
		c2.15,0,3.871-0.386,5.162-1.157c1.292-0.771,1.938-1.787,1.938-3.047c0-0.679-0.212-1.377-0.635-2.093
		c-0.425-0.714-1.328-1.772-2.713-3.173c-1.777-1.799-2.977-3.278-3.597-4.439c-0.621-1.16-0.931-2.364-0.931-3.609
		c0-2.506,1.168-4.495,3.504-5.967c2.336-1.473,5.467-2.208,9.394-2.208h1.085c0.496,0.862,0.951,1.783,1.365,2.76
		c0.412,0.978,0.806,2.025,1.178,3.143c-0.414-0.085-0.812-0.148-1.193-0.191c-0.383-0.042-0.749-0.063-1.101-0.063
		c-1.653,0-3.018,0.287-4.092,0.86c-1.075,0.573-1.613,1.299-1.613,2.176c0,0.51,0.207,1.073,0.62,1.688
		c0.413,0.616,1.302,1.61,2.667,2.983c2.128,2.095,3.509,3.756,4.138,4.98c0.631,1.224,0.946,2.53,0.946,3.918
		c0,3.086-1.313,5.524-3.938,7.314c-2.626,1.791-6.181,2.687-10.665,2.687H172.848z"/>
	<path fill="#FFFFFF" d="M200.626,170.295c-0.371,0.891-0.666,3.354-0.884,7.39c-0.217,4.033-0.324,9.251-0.324,15.649
		c-0.91-0.043-1.835-0.075-2.774-0.095c-0.942-0.022-1.917-0.033-2.931-0.033h-1.395c-0.084-3.552-0.146-6.947-0.187-10.182
		c-0.042-3.234-0.063-6.247-0.063-9.036v-3.971L200.626,170.295z M192.504,196.562h1.798c0.888,0,1.793,0.01,2.714,0.032
		c0.918,0.021,1.833,0.054,2.743,0.095c0.062,0.468,0.107,0.984,0.139,1.551s0.048,1.195,0.048,1.89v1.508l-7.441,0.042
		c0-0.028,0-0.07,0-0.127c-0.083-1.302-0.124-2.244-0.124-2.824c0-0.297,0.01-0.612,0.031-0.945
		C192.431,197.451,192.462,197.044,192.504,196.562z"/>
</g>
</svg>
