<svg xmlns="http://www.w3.org/2000/svg" width="250" height="250" viewBox="0 0 250 250"><path opacity=".15" d="M218.58 104.76c0-1.585-.355-3.08-.72-4.322.767-1.48 1.332-3.383 1.332-5.78 0-4.485-2.055-6.76-3.776-7.877l-3.866-1.01c-1.215.08-2.658.39-4.186.72-.666.15-1.726.37-2.254.45-.292-.03-.742-.1-1.04-.14-1.183-.17-1.948-.28-2.717-.28-2.19 0-3.895.44-5.222 1.12-1-.5-2.26-.87-3.78-.97 7.3-8.44-4.01-15.97-12.14-15.97-7.46 0-17.98 10.56-24.69 15.94-.4.01-.82.04-1.31.08l-.55.04c-.37-.12-.98-.36-1.42-.53-1.66-.65-3.55-1.39-5.61-1.39-.26 0-.51.02-.76.04-1.08-3.6-.76-7.94 1.89-8.25 10.17-4.24 11.58-5.37 9.61-9.6-2.82-7.06-12.14-7.62-11.86 1.13.44 3.9-9.04 6.78-13.84 5.37-4.8-1.41-7.9-9.6-6.77-14.12 1.13-4.52 7.35-15.81 2.26-22.59-5.08-6.77-18.07 1.13-17.22 9.6 1.98 10.17 7.34 20.9 7.91 26.26.56 5.37-4.24 4.52-7.06 3.67-2.83-.84-2.83-7.34-1.7-13.27 1.13-5.92-10.73-1.41-12.42 2.83-1.69 4.24 8.76 5.93 7.06 10.45-1.7 4.52-4.98 3.93-7.34 4.23-7.9.29-14.68-15.24-20.61-21.74-5.93-6.49-21.18-5.08-20.04 1.41 1.12 6.5 11.12 14.7 25.69 18.64 7.45 2.02 8.49 4.59 7.41 6.9h-.02c-7.11 0-9.1 4.62-9.16 7.46-2.36.78-4.62.71-4.44-1.37.29-3.39-6.76-4.65-7.89.15-.91 3.74 9.51.64 7.05 9.74-1.41 5.93-15.53-3.39-23.15-11.86-7.62-8.47-19.77 2.54-16.38 14.68 3.39 12.14 22 12.93 28.24 10.17 7.63-2.82 11.68-2.12 12.14 2.82.46 4.94.85 4.23-14.12 11.86-2.26 1.13-4.8 2.83-15.25 3.11-11.86.57-14.68 6.78-9.6 15.25 9.6 13.84 20.05.57 26.54-5.08 6.78-5.93 6.19-8.37 13.27-7.62 1.58.16 3.24.86 4.69 1.99-.7 1.29-1.25 2.8-1.46 4.54-.38 3.18.38 6.51 2.26 9.96-7.74 8.77-23.47 19.04-10.28 27.83 4.05 2.7 7.11 3.13 9.41 2.18 2.43 10.37 8.91 19.85 18.87 27.31 12.32 9.22 28.6 14.3 45.84 14.3 17.24 0 33.51-5.08 45.83-14.3 12.87-9.64 19.95-22.62 19.95-36.56 0-5.96-1.3-11.76-3.88-17.29 3.47-4.68 4.98-9.17 4.48-13.4-.15-1.3-.5-2.48-.96-3.54 1.54-.66 2.87-1.66 3.94-2.97l1.06-1.01.21-.21c1.17-1.23 1.64-2.44 1.83-2.92-.16.41-.82 1.81-2.43 2.73l3.22-5.53c0-.68-.18-5.3-4.97-7.58.04-.13.09-.26.14-.41 1.02-3.09 1.86-5.83 1.86-8.09 0-.14 0-.28-.01-.41.25-.52.73-1.39 1.63-2.85.67-1.09 1.36-2.22 1.36-4.05zm-25.87 23.885c0 .81.13 1.58.363 2.313-.794.193-1.597.417-2.42.7-3.317-4.71-6.968-7.54-10.453-9.19.315-1.05.45-2.003.534-3.158.37-.132.72-.263 1.044-.385.3-.11.67-.25.95-.348l.488.05c.83.082 1.615.16 2.338.16 1.778 0 4.56-.432 6.62-2.764.74-.063 1.48-.24 2.188-.517.44 1.535 1.233 2.756 1.936 3.625.104.69.304 1.33.553 1.93-2.37 1.32-4.14 3.6-4.14 7.59z"/><path fill="#006838" d="M214.662 100.843c0-1.585-.354-3.08-.72-4.322.768-1.47 1.333-3.38 1.333-5.78 0-4.48-2.055-6.75-3.777-7.87l-3.865-1.01c-1.216.08-2.658.39-4.186.72-.666.15-1.726.37-2.255.45-.29-.03-.742-.1-1.038-.14-1.184-.17-1.95-.28-2.718-.28-2.19 0-3.895.44-5.222 1.12-1.007-.5-2.263-.87-3.788-.97 7.302-8.44-4.013-15.97-12.14-15.97-7.458 0-17.982 10.57-24.69 15.94-.402.01-.826.04-1.314.08l-.55.05c-.372-.11-.987-.36-1.423-.53-1.67-.65-3.55-1.39-5.62-1.39-.26 0-.52.02-.77.04-1.09-3.6-.76-7.94 1.88-8.25 10.16-4.24 11.57-5.37 9.6-9.6-2.83-7.06-12.15-7.62-11.86 1.13.44 3.9-9.04 6.78-13.84 5.36-4.8-1.41-7.91-9.6-6.78-14.12 1.13-4.51 7.34-15.81 2.25-22.59-5.08-6.77-18.07 1.13-17.23 9.6 1.98 10.17 7.34 20.9 7.9 26.27.56 5.36-4.24 4.52-7.06 3.67-2.82-.84-2.82-7.34-1.7-13.27 1.13-5.92-10.73-1.41-12.43 2.83-1.7 4.23 8.75 5.93 7.06 10.45-1.7 4.52-4.98 3.93-7.34 4.24-7.91.28-14.68-15.25-20.61-21.74s-21.17-5.08-20.04 1.41C52.85 62.86 62.85 71.06 77.41 75c7.45 2.014 8.49 4.58 7.42 6.897h-.03c-7.12 0-9.1 4.62-9.17 7.46-2.37.78-4.62.71-4.45-1.37.28-3.39-6.76-4.66-7.89.146-.91 3.74 9.51.645 7.04 9.738-1.41 5.93-15.53-3.39-23.15-11.86-7.627-8.47-19.77 2.54-16.38 14.68 3.39 12.14 22 12.93 28.24 10.17 7.62-2.82 11.68-2.12 12.14 2.82.46 4.94.85 4.24-14.12 11.86-2.26 1.13-4.8 2.82-15.25 3.11-11.86.56-14.688 6.77-9.6 15.24 9.6 13.84 20.042.57 26.54-5.08 6.78-5.93 6.18-8.37 13.27-7.62 1.57.16 3.24.86 4.69 1.99-.71 1.29-1.257 2.81-1.46 4.54-.38 3.18.38 6.52 2.25 9.97-7.748 8.76-23.47 19.04-10.28 27.83 4.05 2.7 7.102 3.13 9.41 2.17 2.423 10.37 8.902 19.84 18.87 27.31 12.32 9.23 28.59 14.31 45.83 14.31 17.23 0 33.51-5.08 45.83-14.3 12.87-9.64 19.95-22.62 19.95-36.56 0-5.97-1.3-11.76-3.88-17.29 3.47-4.68 4.98-9.18 4.482-13.4-.15-1.31-.508-2.48-.96-3.54 1.54-.67 2.87-1.67 3.94-2.98l1.05-1.01.21-.21c1.162-1.23 1.64-2.44 1.82-2.92-.16.41-.815 1.81-2.424 2.73l3.22-5.53c0-.68-.18-5.29-4.97-7.58.05-.12.09-.26.14-.4 1.017-3.08 1.856-5.82 1.856-8.08 0-.14 0-.28-.01-.41.254-.51.734-1.38 1.63-2.85.67-1.09 1.36-2.22 1.36-4.05zm-25.87 23.884c0 .81.13 1.58.364 2.313-.794.194-1.598.418-2.42.702-3.317-4.712-6.968-7.54-10.454-9.192.316-1.05.452-2.002.535-3.157.37-.133.718-.263 1.044-.385.3-.11.67-.25.96-.348l.49.05c.83.083 1.62.16 2.34.16 1.78 0 4.56-.43 6.62-2.763.74-.064 1.48-.24 2.19-.517.44 1.535 1.23 2.756 1.94 3.625.11.683.31 1.32.56 1.93-2.38 1.313-4.14 3.596-4.14 7.582z"/><path fill="#D0E296" d="M117.26 93.38v.545c.088.25.088.448.088.548 0 .547-.526 1.69-.526 2.24 0 .347.263 1.392.263 1.84 0 2.09-1.663 9.752-1.663 11.742 0 .747.525 2.587.525 3.235 0 1.393-2.365 6.07-2.365 7.463v.398c.087.15.087.3.087.4 0 2.59-7.1 5.43-9.73 5.43l-1.93 1c-.88.45-1.75.6-2.37.6-2.46 0-6.22-1.84-8.32-3.58l-.88-.99-2.54-1.69c-1.14-.74-1.67-1.09-1.58-1.89v-.6c0-1.19-2.37-4.82-2.37-6.07 0-.79.52-2.88.52-3.68 0-1.39-1.32-5.87-1.32-7.26 0-1.44 1.31-6.27 1.31-7.46 0-1.29-2.46-5.12-2.46-6.12 0-.84.97-1.24 2.8-1.24 1.31 0 4.64.55 5.25.55l2.89.1c2.8.1 2.8.5 2.8 1.59 0 .25-.09.65-.09 1.2v1.1c0 .95-.44 3.04-.44 3.98 0 .95.87 4.03.87 5.03 0 1.1-2.1 4.78-2.1 5.87 0 1.3.35 5.88.35 7.27 0 .9-.62 4.03-.62 5.08 0 2.34 2.71 3.53 8.23 3.53 3.41 0 5.17-1.79 5.17-5.37 0-.94-.35-3.88-.35-4.82 0-.25.17-1.19.17-1.59 0-1.74-2.27-8.31-2.27-8.46v-.2c0-.9-.88-3.93-.88-4.83 0-.54.35-1.74.35-2.19 0-1.14-1.93-2.98-1.93-5.57 0-1.54.35-2.49 1.05-2.93 1.66.1 5.87 1.35 6.83 1.35.88 0 4.2-.99 4.99-.99 1.93 0 2.89.55 2.89 1.6 0 .95-.78 2.99-.78 3.93zm35.855 9.8c-.352.25.613 2.588-2.63 2.588-1.312 0-2.1 2.587-4.99 2.986.438.347 1.05 1.492 1.84 3.483.262.746 3.415 2.935 3.415 4.976 0 .546-.352 2.09-.352 2.538 0 .35 1.577 2.54 1.577 3.29 0 1-1.49 3.93-1.49 5.38v.35c-1.75-1.44-2.1-5.97-2.975-6.82-.44-.44-4.73-1.64-4.73-2.88 0-.34.175-.94.175-1.29 0-.84-.79-1.59-2.452-2.18-3.415-1.24-2.54-2.39-4.555-5.32l-1.137.1c-.43 5.53.18 5.33-1.49 8.51-2.36 4.63-.52 6.27-3.15 9.4-.17-1.19-2.98-5.47-2.98-7.01 0-.15 0-.35.09-.64v-.54c0-1.19-2.36-4.82-2.36-6.07 0-.34.09-1.04.35-2.19-2.36-.2-3.94-2.23-3.94-4.13 0-.44 3.07-.64 3.24-.69-.87-1.79-1.31-3.08-1.31-3.93 0-1.64 2.11-6.02 2.19-6.67-.96-.1-1.75-.5-2.36-1.25-.43-.44-2.27-4.92-2.27-5.52.18.1 1.84-1.7 3.77-1.7.7 0 2.63.4 3.59.4 1.05 0 2.28-.89 2.89-.89 1.49 0 6.05 1 7.71 1 1.14 0 2.89-1.14 3.94-1.14 1.75 0 4.91 1.94 6.74 1.94.62 0 1.93-.15 2.37-.15 3.5 0 2.63 2.54 3.07 2.79 1.84 2.83 2.72 5.07 2.72 6.76 0 1.44-4.2 3.98-4.47 4.58zm-7.095-6.02v-.348c.09-.15.09-.3.09-.35 0-.746-1.578-1.343-2.978-1.343-.966 0-2.805.69-3.855.69-1.488 0-2.188.64-2.188 1.89v4.03c0 .35-.44 1.49-1.41 3.43h.43c8.49 0 10.42-5.92 10.42-6.03 0-.45-.53-1.59-.53-1.99zm42.886 6.17v.398c0 .797-.086 2.04-1.313 2.04-.438 0-1.84-.297-2.45-.297-1.577 0-.265 3.04-3.506 3.04-.787 0-2.54-.25-3.238-.25-1.49 0-4.65 1.89-7.63 2.09-.53 5.53.09 5.33-1.49 8.51-2.28 4.63-.62 6.32-3.24 9.41-.18-1.19-2.98-5.47-2.98-7.01 0-.15 0-.35.09-.64v-.54c0-1.19-2.37-4.82-2.37-6.07 0-.34.09-1.04.35-2.19-.44-.1-.88-.1-1.41-.1h-.88l-1.75-2.98c.52-.6 1.57-1.19 3.24-1.74-.79-1.79-1.23-3.08-1.23-3.93 0-1.59 2.02-6.02 2.1-6.67-2.28-.35-4.12-3.83-4.56-6.77.17.1 1.84-1.69 3.76-1.69.78 0 2.8.4 3.59.4 1.05 0 2.27-.89 2.89-.89 1.57 0 6.13 1 7.71 1 1.05 0 2.8-1.14 3.94-1.14 1.75 0 4.99 1.94 6.74 1.94.61 0 1.92-.15 2.36-.15 3.15 0 2.98 2.49 2.98 2.79 1.84 2.79 2.8 5.03 2.8 6.77 0 1.55-4.56 4.38-4.56 4.73zm-6.48-5.622c0-.45.09-.797.35-1.045-.787-1.045-1.75-1.543-2.802-1.543-1.14 0-3.678.697-4.817.697-.175 0-.438 0-.7-.05-.963.648-1.49 1.293-1.49 1.94v4.03c0 .348-.436 1.493-1.4 3.434.787.1 1.488.15 2.014.15 2.11 0 5.79-1.24 6.66-1.39.18-1.04 2.54-3.78 2.54-4.23 0-.44-.35-1.54-.35-1.99zm24.994-2.936c-.264.2-.35.398-.35.647 0 1.04 1.226 3.53 1.226 5.42 0 .15-3.065 4.67-3.065 6.27v.54c.09.24.09.39.09.49 0 2.04-1.92 7.01-2.01 7.66l-.26 1.84c-.08.15-.61.64-1.48 1.54-.17-1-2.89-3.83-2.89-5.13v-.5c.09-.25.09-.4.09-.5 0-.8-2.27-2.04-2.27-3.83 0-.6.44-2.14.44-2.74 0-1.25-2.01-4.98-2.01-6.27 0-.85.79-2.89.79-3.74 0-.35-.52-1.44-.52-1.89 0-.1 0-.25.09-.45v-.5c0-.75-.78-2.59-.78-3.34 0-.94.96-1.39 2.98-1.39.71 0 2.98.45 3.77.45 1.4 0 5.26-1.09 6.83-1.19.62.4.88 1.24.88 2.53 0 1.74-.52 3.09-1.49 4.03zm0 30.8l-1.4 1.344c-.877 1.244-2.19 1.84-4.028 1.84-2.804 0-6.832-2.287-6.832-4.03 0-2.288 1.226-2.984 7.97-2.984 4.115 0 5.167 1.293 5.167 2.486-.44.25-.264.698-.877 1.344z"/><path fill="#919496" d="M90.074 148.662s-10.897-21.474 8.357-8.744l-8.35 8.744zm103.026 0s10.898-21.474-8.355-8.744l8.355 8.744z"/><path fill="#FFF" d="M200.82 168.383c0 24.574-26.604 44.5-59.414 44.5-32.82 0-59.42-19.926-59.42-44.5 0-24.576 26.6-44.5 59.42-44.5 32.81 0 59.414 19.924 59.414 44.5z"/><path fill="#D0D2D3" d="M87.387 150.252s3.552-.513 3.184-3.848c0 0-9.29-14.352 7.54-6.544 0 0 2.43.726 3.57-2.406 0 0-11.86-8.182-17.87-2.984 0 0-6.85 4.565 3.59 15.782zm108.337 0s-3.554-.513-3.184-3.848c0 0 9.298-14.352-7.53-6.544 0 0-2.425.726-3.567-2.406 0 0 11.867-8.182 17.868-2.984 0 0 6.86 4.565-3.58 15.782z"/><linearGradient id="a" gradientUnits="userSpaceOnUse" x1="141.403" y1="207.988" x2="141.403" y2="122.378"><stop offset="0" stop-color="#7EC142"/><stop offset=".075" stop-color="#86C053"/><stop offset=".27" stop-color="#99BF7A"/><stop offset=".462" stop-color="#A8BE98"/><stop offset=".651" stop-color="#B2BEAE"/><stop offset=".832" stop-color="#B9BDBB"/><stop offset="1" stop-color="#BBBDBF"/></linearGradient><path fill="url(#a)" d="M189.7 152.23c-9.01-40.47-30.544-29.598-39.533-22.907-2.85-.355-5.778-.544-8.76-.544-3.596 0-7.106.27-10.498.78-27.54-22.63-36.89 14.53-38.86 24.57-2.28 4.42-3.53 9.23-3.53 14.25 0 21.87 23.67 39.6 52.88 39.6 29.2 0 52.88-17.74 52.88-39.61 0-5.75-1.64-11.22-4.59-16.15z"/><path fill="#5E746C" d="M140.98 186.788v5.22h1.173l-.59-6.508m-12.87 3.255s16.003 3.205 4.367 15.51c0 0 7.895-12.295-4.366-15.51zm25.41 0s-16 3.205-4.366 15.51c0 0-7.894-12.295 4.366-15.51z"/><path fill="#5E746C" d="M135.753 194.1s6.598-6.244 10.7.892v2.05s-4.19-9-10.164-.53l-.54-2.413z"/><path fill="#1D8FCD" d="M141.45 187.264l4.046-5.218s-2.025-3.794-4.1-.086c-2.07-3.708-4.095.086-4.095.086l4.05 5.218v.13l.05-.064.05.065v-.13z"/><path fill="#FFF" d="M140.492 185.5s-.036-2.664-1.374-1.517l1.374 1.517zm1.78 0s.035-2.664 1.37-1.517l-1.37 1.517z"/><ellipse fill="#FFF" cx="117.447" cy="156.527" rx="22.557" ry="30.867"/><ellipse fill="#FFF" cx="164.709" cy="156.527" rx="22.556" ry="30.867"/><circle fill="#21AA21" cx="117.768" cy="156.331" r="20.303"/><path fill="#0C6314" d="M110.307 161.443c-3.77-4.36-3.295-10.94 1.06-14.708s10.936-3.297 14.708 1.062c3.767 4.354 3.29 10.94-1.063 14.707-4.352 3.768-10.938 3.292-14.705-1.06z"/><path fill="#FFF" d="M116.38 158.244c-2.004-2.316-1.75-5.812.563-7.813 2.31-2 5.813-1.75 7.82.56 2 2.32 1.745 5.82-.57 7.83-2.315 2-5.81 1.75-7.814-.57z"/><circle fill="#FFF" cx="107.944" cy="153.184" r="2.698"/><circle fill="#21AA21" cx="164.434" cy="156.331" r="20.303"/><path fill="#0C6314" d="M156.973 161.443c-3.77-4.36-3.295-10.94 1.06-14.708s10.936-3.297 14.708 1.062c3.77 4.354 3.3 10.94-1.06 14.707-4.35 3.768-10.94 3.292-14.7-1.06z"/><path fill="#FFF" d="M163.045 158.244c-2.004-2.316-1.75-5.812.564-7.813 2.31-2 5.81-1.75 7.81.56 2 2.32 1.74 5.82-.57 7.83-2.32 2-5.81 1.75-7.81-.57z"/><circle fill="#FFF" cx="154.609" cy="153.184" r="2.698"/><path fill="#1E351D" d="M97.068 172.16s19.178-4.887 41.208-1.39c0 0-5.075 19.382-21.34 19.386 0 0-15.238-.496-19.868-17.995z"/><linearGradient id="b" gradientUnits="userSpaceOnUse" x1="117.672" y1="187.768" x2="117.672" y2="167.122"><stop offset="0" stop-color="#A3CE5C"/><stop offset=".175" stop-color="#AAC97A"/><stop offset=".391" stop-color="#B2C498"/><stop offset=".604" stop-color="#B7C0AE"/><stop offset=".81" stop-color="#BABEBB"/><stop offset="1" stop-color="#BBBDBF"/></linearGradient><path fill="url(#b)" d="M97.068 169.774s19.178-4.89 41.208-1.39c0 0-5.075 19.38-21.34 19.383 0 0-15.238-.495-19.868-17.993z"/><path fill="#919496" d="M110.278 168.938s12.847-.803 27.56 0h.662l-.245.677s-6.173-1.213-27.977-.677zm-12.798 2.25l6.377-1.035-6.208 1.543"/><path fill="#ACAFB1" d="M96.393 145.45s20.44-.495 35.43-12.71c0 0-7.11-11.368-21.207-5.637 0 0-10.066 2.068-14.223 18.347zm53.407-12.71s11.36 15.868 37.36 20.822c0 0-.29-21.087-15.772-26.526 0 0-10.307-7.076-21.587 5.705z"/><path fill="#919496" d="M150.892 131.563s7.958 11.438 27.087 17.99c0 0-16.9-6.1-26.37-18.7l-.72.71zM103.857 143s14.957-2.126 27.083-11.43l-1.21-1.304s-3.148 6.18-25.873 12.735z"/><path fill="#4B7F7F" d="M138.276 195.883s2.74-3.327 6.216.627c0 0-2.266-2.947-6.216-.627zm-18.086-4.97s-7.035 10.14 5.178 13.888c0 0-10.393-2.22-5.177-13.88z"/><path fill="#FFF" d="M162.384 161.95c0 .848.686 1.536 1.537 1.536.85 0 1.54-.688 1.54-1.537 0-.86-.69-1.54-1.53-1.54-.85 0-1.53.69-1.53 1.54z"/><path fill="#4B7F7F" d="M161.69 190.914s7.037 10.14-5.176 13.887c0 0 10.393-2.22 5.177-13.88z"/><path fill="#1E351D" d="M142.604 165.09s25.734-5.403 44.21 0c0 0-2.07 24.706-22.938 24.69 0 0-18.38.376-21.272-24.69z"/><linearGradient id="c" gradientUnits="userSpaceOnUse" x1="164.709" y1="187.394" x2="164.709" y2="160.303"><stop offset="0" stop-color="#A3CE5C"/><stop offset=".175" stop-color="#AAC97A"/><stop offset=".391" stop-color="#B2C498"/><stop offset=".604" stop-color="#B7C0AE"/><stop offset=".81" stop-color="#BABEBB"/><stop offset="1" stop-color="#BBBDBF"/></linearGradient><path fill="url(#c)" d="M142.604 162.705s25.734-5.405 44.21 0c0 0-2.07 24.704-22.938 24.69 0 0-18.38.373-21.272-24.69z"/><path fill="#919496" d="M142.76 163.653s29.066-5.93 43.11.42c0 0-10.333-4.474-43.11-.42z"/></svg>