<?xml version="1.0" encoding="utf-8"?>
<!-- Generator: Adobe Illustrator 16.0.0, SVG Export Plug-In . SVG Version: 6.00 Build 0)  -->
<!DOCTYPE svg PUBLIC "-//W3C//DTD SVG 1.1//EN" "http://www.w3.org/Graphics/SVG/1.1/DTD/svg11.dtd">
<svg version="1.1" id="Layer_1" xmlns="http://www.w3.org/2000/svg" xmlns:xlink="http://www.w3.org/1999/xlink" x="0px" y="0px"
	 width="250px" height="250px" viewBox="0 0 250 250" enable-background="new 0 0 250 250" xml:space="preserve">
<path opacity="0.15" enable-background="new    " d="M195.602,61.158c-5.347-11.38-10.82-16.913-16.732-16.913
	c-12.246,0-17.975,24.319-18.999,29.193l-0.263,1.242l0.593,1.123c2.348,4.465,5.364,5.403,7.485,5.403
	c4.484,0,7.644-4.183,8.23-5.02l0.624-0.89l0.015-1.087c0.118-9.075,1.228-12.358,1.791-13.446c0.172,0.113,0.389,0.273,0.648,0.501
	c0.893,0.804,1.939,2.064,3.023,3.644c1.785,2.598,3.103,5.204,3.114,5.229l0.042,0.083c5.709,10.665,4.73,14.479,4.047,15.624
	c-0.964,1.61-3.764,1.948-5.941,1.95c-10.141,0-25.668-6.995-25.795-7.053c-11.275-5.248-21.521-8.714-30.6-10.363
	c0.665-0.795,1.127-1.565,1.401-2.08l15.89-17.788c0.17,0.018,0.338,0.027,0.512,0.027c3.338,0,5.694-3.457,6.554-4.942l0.114-0.199
	l0.086-0.212c0.42-1.009,1.697-4.082,0.011-6.612c-0.44-0.66-1.372-1.683-3.063-2.053c-0.232-0.487-0.531-0.929-0.894-1.327
	c-0.858-0.943-2.036-1.536-3.372-1.714c-0.809-1.713-2.23-2.653-3.227-2.979c-0.655-0.208-1.342-0.314-2.035-0.314
	c-8.602,0-17.497,17.943-21.529,27.238c-9.01,2.702-16.437,7.026-22.113,12.876l-0.062,0.013l-0.782,0.871
	c0,0-0.168,0.187-0.391,0.449c-1.364,1.531-2.614,3.153-3.678,4.766c-1.567,2.278-2.714,4.361-3.409,6.197l-0.153,0.309L86.728,83
	c-0.026,0.062-0.052,0.123-0.078,0.185c-0.907,1.452-1.577,2.822-2.064,3.995c-2.224,0.437-4.336,1.014-6.318,1.726
	c-0.768-0.48-1.703-0.736-2.734-0.736c-1.785,0-3.575,0.738-4.79,1.975c-0.715,0.729-1.271,1.624-1.688,2.741
	c-1.458-3.337-3.083-7.229-3.618-8.51c-1.002-3.886-0.292-5.078-0.137-5.281c0.388-0.505,1.563-0.56,2.052-0.56
	c1.427,0,2.918,0.375,3.813,0.647c2.624,3.081,5.372,3.762,7.284,3.762c3.107,0,5.202-1.741,5.591-2.09L84.88,80.1l6.23-27.955
	c0.57-0.254,1.092-0.622,1.542-1.092c1.943-2.027,2.014-5.519,1.953-6.927l-0.01-0.229l-0.04-0.226
	c-0.941-5.406-4.134-5.99-5.464-5.99c-0.636,0-1.227,0.124-1.766,0.32c-1.086-0.68-2.133-0.828-2.841-0.828
	c-0.886,0-1.686,0.218-2.39,0.547c-1.309-0.828-2.566-0.93-3.101-0.93c-0.528,0-0.937,0.075-1.218,0.147
	c-8.275,2.191-7.559,17.58-6.054,28.034c-2.294-0.523-4.378-0.781-6.296-0.781c-6.371,0-9.598,2.966-11.181,5.455
	c-5.726,8.99,0.496,26.323,5.234,36.797c-5.538,13.102-2.265,27.61-2.116,28.246l0.024,0.104l0.03,0.102
	c7.221,24.262,25.178,35.006,35.696,39.348c-1.204,0.271-2.349,0.73-3.414,1.369c-0.844,0.494-1.438,1.15-1.805,1.949
	c-1.779-1.08-3.873-1.673-6.028-1.673c-1.779,0-3.469,0.401-4.937,1.13c-0.958-1.846-2.981-3.107-5.099-3.107
	c-0.458,0-0.914,0.057-1.338,0.167c-1.005,0.256-2.074,0.46-3.205,0.675c-4.322,0.826-9.219,1.762-12.617,6.02
	c-1.172,1.438-1.998,3.785,0.724,6.795c0.148,0.164,0.307,0.336,0.467,0.543c1.816,2.336,4.019,3.908,5.96,5.295
	c0.618,0.443,1.224,0.877,1.801,1.32c-0.184-0.026-0.359-0.046-0.523-0.06c-0.92-1.113-2.065-1.677-3.415-1.677
	c-0.268,0-0.54,0.023-0.81,0.072l-0.427,0.076l-0.395,0.178c-2.506,1.125-4.254,3.69-4.251,6.242
	c0.001,2.137,1.203,3.945,3.185,4.83c2.02,0.922,4.475,1.43,6.913,1.43c0,0,0,0,0.001,0c3.88,0,7.227-1.224,9.508-3.316
	c0.5,1.191,1.695,2.511,4.531,2.593c0.098,0.005,0.197,0.005,0.292,0.011l0.219,0.051l0.288,0.014
	c0.208,0.012,0.417,0.016,0.623,0.016c2.775,0,5.129-0.949,7.204-1.787c0.633-0.258,1.274-0.519,1.989-0.77
	c0.008-0.002,0.014-0.005,0.022-0.01c0.518,0.761,1.358,1.656,2.645,2.115l0.288,0.104l0.302,0.053
	c0.342,0.06,0.698,0.09,1.059,0.09c1.757,0,3.431-0.66,4.479-1.767c0.212-0.224,0.397-0.464,0.555-0.715
	c0.507,0.771,1.139,1.505,1.943,2.171c0.271,0.227,0.567,0.42,0.884,0.579c0.009,0.388,0.016,0.772,0.02,1.155
	c-1.308,1.061-4.198,2.838-8.874,2.838c-0.849,0-1.733-0.059-2.627-0.176l-2.454-0.322l-1.136,2.199
	c-1.529,2.959-1.36,6.893,1.885,8.752c0.513,0.316,1.072,0.561,1.672,0.728c0.265,0.765,0.644,1.291,0.81,1.5
	c0.593,0.772,1.411,1.37,2.39,1.739c1.039,0.471,2.207,0.71,3.477,0.71c1.96,0,4.171-0.563,6.575-1.681
	c0.637-0.266,1.252-0.582,1.833-0.938c0.341-0.19,0.595-0.345,0.741-0.435c5.131-2.523,9.52-3.146,12.255-3.217l0.336-0.004
	c0.564,0,1.098,0.019,1.611,0.053c1.569,0.979,3.138,1.638,4.593,1.942l0.129,0.028c0.13,0.027,0.254,0.048,0.405,0.07
	c0.263,0.047,0.523,0.08,0.765,0.104l0.202,0.016c0.16,0.012,0.32,0.021,0.465,0.024l0.178,0.001c0.197,0,0.375-0.006,0.539-0.018
	l0.095-0.006c0.597-0.045,1.015-0.144,1.209-0.197l0.726-0.203l0.577-0.48c0.429-0.355,2.454-2.181,2.45-4.764
	c2.318,0.516,3.888,1.273,4.078,1.37c2.352,1.313,4.988,1.511,6.355,1.511c0.117,0,0.219-0.003,0.301-0.004
	c0.22,0.014,0.426,0.02,0.623,0.02c3.1,0,4.5-1.564,5.059-2.498c0.177-0.295,0.314-0.6,0.422-0.903
	c1.37-0.567,2.156-1.47,2.605-2.274c1.531-2.74-0.078-5.621-0.416-6.171l-0.492-3.264c0.892-0.499,1.732-1.09,2.515-1.75
	c1.345,4.711,4.597,5.104,5.604,5.104l0,0c0.992,0,1.979-0.283,2.943-0.847c3.168-1.854,2.584-5.114,2.393-6.187
	c-0.035-0.195-0.088-0.493-0.094-0.525l0.051-0.413c0.373-0.581,0.609-1.246,0.662-1.976c0.345-2.332,0.934-4.659,1.555-7.119
	c0.791-3.137,1.609-6.376,1.893-9.674c0.123-1.245-0.271-2.452-1.121-3.403c-0.979-1.101-2.457-1.729-4.05-1.729
	c-2.293,0-4.253,1.346-5.007,3.469c-0.7,2.047-1.223,4.037-1.646,6.007c-0.028-0.04-0.052-0.082-0.08-0.123
	c-1.695-2.317-3.5-4.054-5.873-5.634c-0.178-0.118-0.359-0.217-0.541-0.32c3.953-0.578,5.531-2.777,5.838-3.271l0.701-1.127
	l-0.219-1.312c-0.279-1.681-1.186-3.776-3.641-5.622c5.889-6.541,8.789-14.57,8.054-22.641c-0.317-3.467-1.284-6.809-2.878-9.957
	c1.447-4.709,1.366-7.973-0.232-10.213c-1.146-1.603-2.974-2.486-5.145-2.486c-0.117,0-0.24,0.014-0.359,0.019
	c0.347-1.229,0.75-3.113,1.308-5.761c0.267-1.265,0.633-3.005,0.964-4.439c0.992,0.255,2.059,0.463,3.086,0.463
	c2.188,0,3.434-0.954,4.092-1.755c0.984-1.194,1.288-2.679,0.83-4.071c-0.598-1.824-2.195-2.762-3.923-3.371
	c0.474-0.73,0.979-1.427,1.408-1.856c0.889-0.891,1.313-2.15,1.284-3.375c9.715,3.133,17.81,4.724,24.113,4.724
	c8.135,0,13.728-2.576,16.62-7.657C207.579,82.444,197.218,63.918,195.602,61.158z"/>
<g id="Layer_2_1_">
</g>
<path fill="#FFD200" d="M193.602,59.158c-5.347-11.38-10.82-16.913-16.732-16.913c-12.246,0-17.975,24.319-18.999,29.193
	l-0.263,1.242l0.593,1.123c2.348,4.465,5.364,5.403,7.485,5.403c4.484,0,7.644-4.183,8.23-5.02l0.624-0.89l0.015-1.087
	c0.118-9.075,1.228-12.358,1.791-13.446c0.172,0.113,0.389,0.273,0.648,0.501c0.893,0.804,1.939,2.064,3.023,3.644
	c1.785,2.598,3.103,5.204,3.114,5.229l0.042,0.083c5.709,10.665,4.73,14.479,4.047,15.624c-0.964,1.61-3.764,1.948-5.941,1.95
	c-10.141,0-25.668-6.995-25.795-7.053c-11.275-5.248-21.521-8.714-30.599-10.363c0.665-0.795,1.126-1.565,1.401-2.08l15.89-17.788
	c0.17,0.018,0.338,0.027,0.512,0.027c3.338,0,5.694-3.457,6.554-4.942l0.114-0.199l0.086-0.212c0.42-1.009,1.697-4.082,0.011-6.612
	c-0.44-0.66-1.372-1.683-3.063-2.053c-0.232-0.487-0.531-0.929-0.894-1.327c-0.858-0.943-2.036-1.536-3.372-1.714
	c-0.809-1.713-2.23-2.653-3.227-2.979c-0.655-0.208-1.342-0.314-2.035-0.314c-8.602,0-17.497,17.943-21.529,27.238
	c-9.01,2.702-16.437,7.026-22.113,12.876l-0.062,0.013l-0.782,0.871c0,0-0.168,0.187-0.391,0.449
	c-1.364,1.531-2.614,3.153-3.678,4.766c-1.567,2.278-2.714,4.361-3.409,6.197l-0.153,0.309L84.728,81
	c-0.026,0.062-0.052,0.123-0.078,0.185c-0.907,1.452-1.577,2.822-2.064,3.995c-2.224,0.437-4.336,1.014-6.318,1.726
	c-0.768-0.48-1.703-0.736-2.734-0.736c-1.785,0-3.575,0.738-4.79,1.975c-0.715,0.729-1.271,1.624-1.688,2.741
	c-1.458-3.337-3.083-7.229-3.618-8.51c-1.002-3.886-0.292-5.078-0.137-5.281c0.388-0.505,1.563-0.56,2.052-0.56
	c1.427,0,2.918,0.375,3.813,0.647c2.624,3.081,5.372,3.762,7.284,3.762c3.107,0,5.202-1.741,5.591-2.09L82.88,78.1l6.23-27.955
	c0.57-0.254,1.092-0.622,1.542-1.092c1.943-2.027,2.014-5.519,1.953-6.927l-0.01-0.229l-0.04-0.226
	c-0.941-5.406-4.134-5.99-5.464-5.99c-0.636,0-1.227,0.124-1.766,0.32c-1.086-0.68-2.133-0.828-2.841-0.828
	c-0.886,0-1.686,0.218-2.39,0.547c-1.309-0.828-2.566-0.93-3.101-0.93c-0.528,0-0.937,0.075-1.218,0.147
	c-8.275,2.191-7.559,17.58-6.054,28.034c-2.294-0.523-4.378-0.781-6.296-0.781c-6.371,0-9.598,2.966-11.181,5.455
	c-5.726,8.99,0.496,26.323,5.234,36.797c-5.538,13.102-2.265,27.61-2.116,28.246l0.024,0.104l0.03,0.102
	c7.221,24.262,25.178,35.006,35.696,39.348c-1.204,0.271-2.349,0.73-3.414,1.369c-0.844,0.494-1.438,1.15-1.805,1.949
	c-1.779-1.08-3.873-1.673-6.028-1.673c-1.779,0-3.469,0.401-4.937,1.13c-0.958-1.846-2.981-3.107-5.099-3.107
	c-0.458,0-0.914,0.057-1.338,0.167c-1.005,0.256-2.074,0.46-3.205,0.675c-4.322,0.826-9.219,1.762-12.617,6.02
	c-1.172,1.438-1.998,3.785,0.724,6.795c0.148,0.164,0.307,0.336,0.467,0.543c1.816,2.336,4.019,3.908,5.96,5.295
	c0.618,0.443,1.224,0.877,1.801,1.32c-0.184-0.026-0.359-0.046-0.523-0.06c-0.92-1.113-2.065-1.677-3.415-1.677
	c-0.268,0-0.54,0.023-0.81,0.072l-0.427,0.076l-0.395,0.178c-2.506,1.125-4.254,3.69-4.251,6.242
	c0.001,2.137,1.203,3.945,3.185,4.83c2.02,0.922,4.475,1.43,6.913,1.43c0,0,0,0,0.001,0c3.88,0,7.227-1.224,9.508-3.316
	c0.5,1.191,1.695,2.511,4.531,2.593c0.098,0.005,0.197,0.005,0.292,0.011l0.219,0.051l0.288,0.014
	c0.208,0.012,0.417,0.016,0.623,0.016c2.775,0,5.129-0.949,7.204-1.787c0.633-0.258,1.274-0.519,1.989-0.77
	c0.008-0.002,0.014-0.005,0.022-0.01c0.518,0.761,1.358,1.656,2.645,2.115l0.288,0.104l0.302,0.053
	c0.342,0.06,0.698,0.09,1.059,0.09c1.757,0,3.431-0.66,4.479-1.767c0.212-0.224,0.397-0.464,0.555-0.715
	c0.507,0.771,1.139,1.505,1.943,2.171c0.271,0.227,0.567,0.42,0.884,0.579c0.009,0.388,0.016,0.772,0.02,1.155
	c-1.308,1.061-4.198,2.838-8.874,2.838c-0.849,0-1.733-0.059-2.627-0.176l-2.454-0.322l-1.136,2.199
	c-1.529,2.959-1.36,6.893,1.885,8.752c0.513,0.316,1.072,0.561,1.672,0.728c0.265,0.765,0.644,1.291,0.81,1.5
	c0.593,0.772,1.411,1.37,2.39,1.739c1.039,0.471,2.207,0.71,3.477,0.71c1.96,0,4.171-0.563,6.575-1.681
	c0.637-0.266,1.252-0.582,1.833-0.938c0.341-0.19,0.595-0.345,0.741-0.435c5.131-2.523,9.52-3.146,12.255-3.217l0.336-0.004
	c0.564,0,1.098,0.019,1.611,0.053c1.569,0.979,3.138,1.638,4.593,1.942l0.129,0.028c0.13,0.027,0.254,0.048,0.405,0.07
	c0.263,0.047,0.523,0.08,0.765,0.104l0.202,0.016c0.16,0.012,0.32,0.021,0.464,0.024l0.178,0.001c0.199,0,0.376-0.006,0.54-0.018
	l0.095-0.006c0.597-0.045,1.015-0.144,1.209-0.197l0.726-0.203l0.577-0.48c0.43-0.355,2.454-2.181,2.45-4.764
	c2.319,0.516,3.888,1.273,4.078,1.37c2.352,1.313,4.987,1.511,6.356,1.511c0.116,0,0.217-0.003,0.299-0.004
	c0.221,0.014,0.428,0.02,0.623,0.02c3.101,0,4.502-1.564,5.06-2.498c0.177-0.295,0.315-0.6,0.422-0.903
	c1.37-0.567,2.156-1.47,2.606-2.274c1.531-2.74-0.078-5.621-0.416-6.171l-0.494-3.264c0.893-0.499,1.732-1.09,2.516-1.75
	c1.344,4.711,4.596,5.104,5.604,5.104l0,0c0.992,0,1.979-0.283,2.944-0.847c3.169-1.854,2.585-5.114,2.394-6.187
	c-0.036-0.195-0.088-0.493-0.094-0.525l0.049-0.413c0.375-0.581,0.611-1.246,0.662-1.976c0.346-2.332,0.935-4.659,1.556-7.119
	c0.791-3.137,1.61-6.376,1.894-9.674c0.122-1.245-0.272-2.452-1.121-3.403c-0.98-1.101-2.457-1.729-4.051-1.729
	c-2.293,0-4.253,1.346-5.007,3.469c-0.7,2.047-1.224,4.037-1.646,6.007c-0.029-0.04-0.053-0.082-0.082-0.123
	c-1.694-2.317-3.5-4.054-5.871-5.634c-0.18-0.118-0.36-0.217-0.541-0.32c3.951-0.578,5.529-2.777,5.838-3.271l0.701-1.127
	l-0.219-1.312c-0.281-1.681-1.187-3.776-3.642-5.622c5.89-6.541,8.789-14.57,8.054-22.641c-0.316-3.467-1.283-6.809-2.878-9.957
	c1.447-4.709,1.366-7.973-0.231-10.213c-1.147-1.603-2.975-2.486-5.146-2.486c-0.116,0-0.239,0.014-0.36,0.019
	c0.348-1.229,0.75-3.113,1.309-5.761c0.268-1.265,0.633-3.005,0.964-4.439c0.992,0.255,2.06,0.463,3.086,0.463
	c2.188,0,3.435-0.954,4.093-1.755c0.983-1.194,1.287-2.679,0.829-4.071c-0.598-1.824-2.194-2.762-3.923-3.371
	c0.473-0.73,0.979-1.427,1.408-1.856c0.889-0.891,1.314-2.15,1.285-3.375c9.714,3.133,17.809,4.724,24.113,4.724
	c8.135,0,13.727-2.576,16.619-7.657C205.579,80.444,195.218,61.918,193.602,59.158z"/>
<path fill="#FFFFFF" d="M130.18,159.124c0,0,1.492,20.407,3.373,43.771c0,0,4.077,4.328,12.051,2.668c0,0,2.361,3.834-2.781,3.629
	c0,0,1.685,3.146-2.453,2.822c0,0-2.842,0.17-5.04-1.08c0,0-6.22-3.309-13.677-1.926c0,0-2.6,2.201-4.786,1.893
	c0,0-2.096-1.493-0.271-2.692c0,0,9.668-1.904,11.312-6.746c0,0-1.976-23.944-1.009-39.144"/>
<polygon fill="#E6E7E8" points="126.652,171.51 126.652,178.066 132.904,168.963 127.99,166.782 "/>
<path fill="#E6E7E8" d="M142.82,209.191c0,0-1.295-1.279-4.994-1.092c0,0-3.023-0.791-4.032-1.865c0,0,3.62,1.682,4.313,1.492
	C138.105,207.729,141.986,207.445,142.82,209.191z"/>
<path fill="#26A9E0" d="M55.405,180.997c3.372-4.228,9.071-4.267,13.957-5.506c1.047-0.271,2.171,0.427,2.52,1.278
	c0.465,1.049-0.813,1.899-1.667,2.094c-2.986,1.086-6.126,0.66-8.879,2.134c-0.426,0.231-0.853,0.62-0.659,1.046
	c3.178,4.885,11.863,6.591,10.158,12.91c-1.473,5.505-9.538,6.438-14.384,4.227c-2.171-0.969-0.853-3.799,1.046-4.65
	c1.086-0.195,1.086,1.277,1.899,1.511c0.854,0.194,1.706,0,2.559,0.427c1.706,0.813,3.179-0.232,4.653-0.854
	c0.853-0.659,0.853-1.705,0.426-2.559c-2.985-3.801-7.405-5.272-10.391-9.111C55.753,182.779,54.551,182.043,55.405,180.997z"/>
<path fill="#26A9E0" d="M74.243,180.105c2.172-3.181,7.328-3.567,10.546-1.049c0.697,0.543,0,1.784-1.24,1.979
	c-1.629,0.193-3.257-1.086-4.846-0.389c-1.979,0.893-0.35,3.762-1.086,5.545c2.326,1.279,5.737-1.047,6.979,1.978
	c-1.435,2.521-4.963,0.581-6.436,2.171c-1.202,1.279-0.543,3.916-0.349,6.049c2.869,0.545,5.35-1.396,8.064-2.133
	c0.154-0.193,0.503,0.194,0.698,0.35c0.349,1.278-0.194,2.328-1.24,2.713c-2.869,1.011-5.389,2.481-8.414,2.328
	c-0.892-0.194-2.171,0.153-2.327-0.737c-0.891-2.869,0.194-5.738-0.542-8.568c-0.155-0.582-1.086-1.278-0.543-1.977
	c0-0.194,0.349-0.349,0.543-0.544c0.349-0.735,0.193-1.629,0.193-2.326C74.243,183.71,73.197,181.577,74.243,180.105z"/>
<path fill="#26A9E0" d="M89.284,179.445c-0.194-0.932-0.737-2.25,0.194-2.791c4.652-2.793,10.623-0.35,13.415,4.109
	c1.667,2.598-1.474,5.041-3.722,6.514c0.736,3.916,1.9,8.024,3.722,11.554c0.582,1.125-1.861,1.899-2.792,1.125
	c-3.373-2.792-2.365-7.871-5.195-11.011c-0.543-0.582-2.443-0.543-2.83,0.191c-0.931,2.986,0.814,6.165,0.93,9.15
	c0.039,0.736-1.473,1.318-2.598,1.124c-0.543-0.194-0.93-0.736-1.124-1.124c-1.28-3.374-0.931-7.096-0.931-10.623
	C88.354,184.873,90.214,181.887,89.284,179.445z M92.656,185.416c2.25,0.543,4.847-0.193,6.514-1.667
	c0.389-0.192,1.125-0.774,0.736-1.317c-1.085-2.248-3.528-3.141-5.582-3.373c-1.473-0.154-1.125,2.442-1.473,3.567
	C92.541,183.518,91.727,185.184,92.656,185.416z"/>
<path fill="#26A9E0" d="M112.078,199.684c-0.621-2.248-2.249-3.8-2.87-5.697c-1.279-4.033-3.799-7.795-3.41-11.981
	c0.193-0.969,2.751-2.713,3.41-1.162c1.629,3.604,1.552,8.181,4.033,11.63c2.249-4.962,2.442-10.662,4.188-15.816
	c0.348-1.125,3.954-2.094,3.605,0.193c-0.775,5.116-2.055,9.926-3.412,14.849c-0.737,2.481-1.163,4.77-1.551,7.25
	c-0.194,0.737-1.318,1.319-2.481,1.319C113.048,200.266,112.233,200.266,112.078,199.684z"/>
<path fill="#26A9E0" d="M124.481,180.105c2.171-3.181,7.328-3.567,10.546-1.049c0.697,0.543,0,1.784-1.24,1.979
	c-1.628,0.193-3.258-1.086-4.846-0.389c-1.979,0.893-0.351,3.762-1.086,5.545c2.326,1.279,5.736-1.047,6.979,1.978
	c-1.436,2.521-4.963,0.581-6.436,2.171c-1.201,1.279-0.543,3.916-0.351,6.049c2.869,0.545,5.351-1.396,8.063-2.133
	c0.154-0.193,0.505,0.194,0.697,0.35c0.35,1.278-0.192,2.328-1.24,2.713c-2.868,1.011-5.389,2.481-8.411,2.328
	c-0.894-0.194-2.172,0.153-2.328-0.737c-0.891-2.869,0.194-5.738-0.542-8.568c-0.155-0.582-1.086-1.278-0.543-1.977
	c0-0.194,0.349-0.349,0.543-0.544c0.35-0.735,0.193-1.629,0.193-2.326C124.481,183.71,123.436,181.577,124.481,180.105z"/>
<path fill="#26A9E0" d="M139.059,195.846c0.311-0.504,1.278-0.775,1.317-1.434c0.116-4.421-0.349-8.919-0.853-13.531
	c0-0.466-0.66-0.971-0.971-1.474c-0.154-0.155,0-0.66,0-0.814c0.311-1.317,1.783-1.473,2.637-1.317c1.474,0,3.258,0.349,4.729,1.317
	c1.978,1.317,3.489,2.753,4.962,4.769c3.801,5.234,0,11.826-4.962,14.269c-1.629,0.853-3.45,1.317-5.233,0.659
	C139.716,197.938,138.71,196.814,139.059,195.846z M147.434,193.055c1.162-1.822,2.479-3.955,1.705-6.087
	c-0.854-2.442-3.063-5.157-6.048-5.506c0,1.279,0.386,13.608,0.735,13.608C145.3,195.381,146.813,194.023,147.434,193.055z"/>
<path fill="#26A9E0" d="M157.975,195.807c-0.192,1.551,1.01,3.18-0.58,4.109c-2.133,1.241-3.142-0.971-3.528-2.752
	c0-1.553,1.938-2.521,3.334-1.553C157.432,195.77,157.781,195.807,157.975,195.807z M155.959,190.029
	c0.62-4.689,1.279-8.955,2.831-13.491c0.62-1.745,3.489-1.163,3.334,0.192c-0.466,5.506-2.638,11.088-3.451,16.789
	c0,0.969-1.047,0.696-2.017,0.311C154.951,193.17,155.805,191.426,155.959,190.029z"/>
<path fill="#FFFFFF" d="M84.825,95.997c0,0-0.46-28.512,33.09-37.649c0,0,12.165-28.953,19.915-26.49c0,0,1.814,0.595,1.299,3.561
	c0,0,4.786-2.168,4.334,2.756c0,0,4.979-1.761,2.727,3.657c0,0-3.017,5.22-4.816,2.287L123.345,64.3c0,0-3.059,6.93-8.828,2.061
	c0,0-19.517,3.379-25.426,39.65"/>
<path fill="#E6E7E8" d="M109.088,68.671l-0.923,0.188L95,71.533c0,0-5.121,5.697-6.864,10.459c-1.743,4.761,16.603-9.83,16.603-9.83
	L109.088,68.671z"/>
<path fill="#FFFFFF" d="M84.825,89.671c0,0,6.817-36.757,69.174-7.735c0,0,53.548,24.339,32.283-15.379
	c0,0-14.79-29.49-15.253,5.605c0,0-5.551,7.253-9.711,0c0,0,10.687-50.874,29.16-11.359c0,0,31.426,52.956-36.479,28.495
	c0,0-57.811-26.442-61.306,3.4C89.368,121.078,84.825,89.671,84.825,89.671z"/>
<path fill="#FFFFFF" d="M87.286,150.32c0,0,15.165,24.85,14.994,55.57c0,0-4.905,6.051-15.488,4.664c0,0-2.71,5.242,3.991,4.473
	c0,0-1.894,4.273,3.482,3.445c0,0,3.729-0.056,6.479-1.904c0,0,7.807-4.935,17.689-3.854c0,0,3.612,2.62,6.439,2.003
	c0,0,2.594-2.156,0.09-3.546c0,0-12.823-1.541-15.444-7.708c0,0-4.846-36.015-9.568-50.566"/>
<path fill="#FFFFFF" d="M101.281,171.757c0,0-32.309-5.677-42.484-39.866c0,0-9.131-39.204,27.809-43.79
	c0,0,32.967,1.1,21.08,22.923c0,0-1.451,13.476,12.601,15.337L101.281,171.757z"/>
<polygon fill="#E6E7E8" points="104.603,172.857 105.74,179.639 96.201,170.378 102.393,166.811 "/>
<path fill="#E6E7E8" d="M96.201,170.378l12.887-48.897l-1.348-7.606c0,0-34.991,5.604-34.066,26.665
	C73.674,140.54,71.782,156.029,96.201,170.378z"/>
<path fill="#D0D1D2" d="M144.762,123.856c0,0,11.641-6.876,6.694,7.57l-2.247-1.494L144.762,123.856z"/>
<path fill="#D0D1D2" d="M144.424,123.887c0,0,11.639-6.875,6.693,7.569l-2.247-1.492L144.424,123.887z"/>
<ellipse transform="matrix(0.0909 0.9959 -0.9959 0.0909 251.6785 14.3122)" fill="#FFFFFF" cx="118" cy="145.003" rx="29.4" ry="36.692"/>
<ellipse transform="matrix(0.0909 0.9959 -0.9959 0.0909 256.7559 9.1851)" fill="#D0D1D2" cx="123.347" cy="145.221" rx="23.423" ry="30.706"/>
<path fill="#D0D1D2" d="M91.851,129.252c0,0-7.733-4.147-12.305-0.641c0,0-5.793,5.869,3.67,13.724l2.317,2.14
	c0,0,1.514-1.345,0.949-3.906c0,0-11.093-10.422,3.261-7.961C89.743,132.605,91.989,132.238,91.851,129.252z"/>
<path fill="#D0D1D2" d="M123.345,166.811c0,0,8.743,7.035,9.907-0.821C134.418,158.133,123.345,166.811,123.345,166.811z"/>
<path fill="#BE202E" d="M123.855,163.221c0,0,2.969-0.93,5.474-2.932c0,0,2.944,1.581,5.692,0.732c0,0-4.23,2.802-4.23,6.602
	C130.791,167.623,126.646,168.432,123.855,163.221z"/>
<ellipse transform="matrix(0.0909 0.9959 -0.9959 0.0909 268.2663 -10.0412)" fill="#FFFFFF" cx="139.633" cy="141.911" rx="12.4" ry="12.579"/>
<ellipse transform="matrix(0.0909 0.9959 -0.9959 0.0909 244.7328 21.6106)" fill="#FFFFFF" cx="110.53" cy="144.851" rx="15.426" ry="15.529"/>
<path fill="#919396" d="M89.086,131.477c0.008-0.014-3.853,6.976-3.682,9.127l-1.201-1.615
	C84.203,138.986,75.394,128.473,89.086,131.477z"/>
<path fill="#D0D1D2" d="M92.191,129.225c0,0-7.734-4.148-12.304-0.642c0,0-5.795,5.869,3.667,13.724l2.318,2.139
	c0,0,1.514-1.344,0.948-3.904c0,0-11.09-10.423,3.262-7.964C90.083,132.576,92.329,132.21,92.191,129.225z"/>
<polygon fill="#6D6F71" points="129.094,157.021 129.596,160.289 129.094,160.289 128.661,157.021 "/>
<path fill="#0B8ECC" d="M128.624,152.302c0,0-1.944-3.138-3.566,2.899l3.971,2.781l2.912-3.183
	C131.941,154.801,129.35,149.605,128.624,152.302z"/>
<path fill="#FFFFFF" d="M125.793,155.077l1.707,1.188C127.5,156.266,126.953,154.341,125.793,155.077z"/>
<path fill="#FFFFFF" d="M130.279,156.012l1.021-1.009C131.302,155.003,130.443,154.682,130.279,156.012z"/>
<path fill="#6D6F71" d="M136.82,157.531c0,0-2.248,6.148-7.316,2.164l-0.41,0.594c0,0,6.741,4.512,8.273-2.758H136.82z"/>
<path fill="#6D6F71" d="M129.094,159.604c0,0-5.966,7.131-9.829,0.313l-0.398,0.114c0,0,2.764,7.504,10.729,0.258L129.094,159.604z"
	/>
<path fill="#FFFFFF" d="M62.112,106.01c0,0-25.9-51.479,12.025-38.066c0,0-5.318-27.518,2.543-29.6c0,0,1.85-0.471,3.006,2.308
	c0,0,2.875-4.398,5.138,0c0,0,3.255-4.158,4.261,1.624c0,0,0.257,6.023-2.837,4.515l-6.562,29.44c0,0-4.163,3.738-8.401-2.051
	c0,0-23.973-9.458-3.854,25.412"/>
<path fill="#E6E7E8" d="M66.185,97.386l-4.832,7.042L60.09,83.5C60.09,83.5,64.938,95.18,66.185,97.386z"/>
<path fill="#E6E7E8" d="M161.318,72.162c0,0,4.314-4.593,7.861-1.288c0,0,1.278-31.173,13.744-9.959
	c0,0-11.895-19.068-11.895,11.247C171.029,72.162,165.479,80.08,161.318,72.162z"/>
<path fill="#E6E7E8" d="M93.504,88.947l-3.177-0.509c0,0,9.302-21.42,44.694-6.08C135.021,82.358,98.554,70.812,93.504,88.947z"/>
<path fill="#E6E7E8" d="M86.249,46.791c0,0-0.218,0.645-1.424-1.126c0,0-2.902,3.545-4.598-2.659c0,0-2.467,8.207-4.162,0
	c0,0-2.313,22.383,3.622,33.225L86.249,46.791z"/>
<path fill="#E6E7E8" d="M79.428,46.496c0,0,1.041-1.85,0.693-5.261C80.121,41.235,81.394,45.052,79.428,46.496z"/>
<path fill="#E6E7E8" d="M141.372,44.119l-0.09-1.113c0,0-4.13,0.772-4.015-3.505c0,0-5.418,2.543-2.246-4.046
	c0,0-24.55,33.991-12.598,30.35l0.921-1.504L141.372,44.119z"/>
<path fill="#E6E7E8" d="M131.756,39.704c0,0,1.245-0.434,2.246-3.788C134.002,35.916,133.658,39.481,131.756,39.704z"/>
<path fill="#E6E7E8" d="M135.354,43.055c0,0,2.231-1.82,3.004-4.518c0,0-0.836,3.042-2.074,4.469
	C135.042,44.434,134.893,44.066,135.354,43.055z"/>
<path fill="#E6E7E8" d="M90.869,214.931c0,0,1.565-1.801,6.421-1.916c0,0,3.874-1.33,5.087-2.834c0,0-4.566,2.552-5.492,2.375
	C96.885,212.556,91.789,212.567,90.869,214.931z"/>
<path fill="#E6E7E8" d="M92.362,213.523c0,0-3.984,1.438-6.112-0.527c0,0,0.232,2.847,4.516,2.031
	C90.766,215.027,90.83,214.398,92.362,213.523z"/>
<path fill="#E6E7E8" d="M90.604,216.708c0,0,5.485,2.61,10.507-1.534c0,0,8.648-4.316,17.53-2.872c0,0,4.415,2.525,6.966,1.782
	l-0.594,0.634c0,0-2.476,0.729-6.372-1.956c-3.895-2.686-0.067-0.047-0.067-0.047s-7.468-1.281-17.109,3.518
	c0,0-7.31,4.738-10.542,1.486C90.923,217.719,90.579,217.289,90.604,216.708z"/>
<path fill="#6D6F71" d="M137.367,157.531c0,0-4.706-0.518-4.137-2.563h-0.473c0,0,0.271,2.46,3.865,3.015L137.367,157.531z"/>
<path fill="#6D6F71" d="M120.287,159.654c0,0-2.245-1.928-2.287,1.193h-0.734C117.265,160.848,117.989,156.896,120.287,159.654z"/>
<path fill="#6D6F71" d="M124.872,167.623c0,0,6.339,4.473,7.887-0.546h0.452c0,0-1.105,5.335-8.98,1.041L124.872,167.623z"/>
<path fill="#BE202E" d="M131.941,163.823c0,0,12.387,1.175,12.899,3.192c0,0-12.554,0.772-17.51-3.192"/>
<path fill="#EF4B4D" d="M144.227,166.962c0,0-4.197-2.514-15.812-2.991c3.922-1.625,20.608-0.586,21.744,6.228
	c0,0-2.308,3.71-11.798,0.323c-2.168-0.772-4.711-1.914-7.688-3.56c0,0-4.593-1.938-4.616-2.552
	C128.4,163.688,140.877,165.273,144.227,166.962z"/>
<path fill="#26A9E0" d="M69.048,114.398c-0.499-2.752,0.568-6.96-0.596-9.346c-1.723-3.533-7.027-6.442-9.015-10.063
	c-0.563-1.024,1.735-2.739,2.867-2.405c2.982,0.877,6.227,7.165,6.855,6.957c0.701-0.231-0.091-6.695,2.102-8.927
	c1.19-1.211,3.779-1.282,3.461,0.12c-0.685,3.02-1.871,7.843-2.357,10.771c-0.161,0.967,0.354,2.023,1.272,2.533
	c0.407,0.227,0.353,1.189,0.237,1.473c-0.217,0.532-1.623,0.849-1.663,1.641c-0.112,2.151,0.356,5.432,0.368,7.811
	c0.003,0.529-0.826,1.457-2.145,1.372C69.368,116.265,69.197,115.219,69.048,114.398z"/>
<path fill="#26A9E0" d="M78.197,99.079c0.21-2.12,1.506-3.495,1.818-4.583c0.604-2.114,3.841-2.164,5.698-0.94
	c1.298,0.856,2.088,2.001,2.656,3.155c1.316,2.683,0.125,5.313-1.635,7.665c-0.727,0.972-2.784,1.406-3.945,1.087
	C79.833,104.653,77.912,101.959,78.197,99.079z M83.923,111.096c-1.263,1.08-2.612,0.049-3.024-1.074
	c-0.674-1.833,1.531-2.641,2.623-2.2C84.36,108.16,84.905,110.255,83.923,111.096z M83.438,96.572
	c-1.064-0.644-4.5,5.136-0.076,5.129C86.394,101.697,86.104,98.187,83.438,96.572z M88.811,110.177
	c-1.306,1.026-2.565-0.061-2.934-1.2c-0.591-1.827,1.599-2.514,2.672-2.051C89.353,107.271,89.811,109.391,88.811,110.177z"/>
<path fill="#26A9E0" d="M90.276,92.745c1.264-0.789,3.663-0.631,3.801,0.625c0.257,2.334,0.032,4.904,0.776,7.038
	c0.469,1.344,1.373,4.787,2.821,3.707c3.218-2.4,4.03-7.389,1.187-10.649c-0.711-0.815-1.484-2.215-0.426-2.682
	c2.946-1.299,5.431,1.858,5.654,4.008c0.449,4.338-0.706,9.696-4.818,11.723c-6.441,3.174-9.261-5.346-9.584-10.219
	C89.603,95.042,89.11,93.473,90.276,92.745z"/>
<path fill="#26A9E0" d="M118.409,89.78c3.329-1.664,7.366-1.046,10.12,0.969c0.919,0.672,0.248,1.426-0.615,1.668
	c-2.166,0.607-4.141-0.944-6.257-0.666c-1.893,0.249-2.894,2.031-3.572,3.364c-1.642,3.228-2.56,7.999,1.295,10.008
	c0.875,0.456,2.068,0.333,2.493-0.297c0.661-0.981,1.784-2.395,0.699-3.091c-0.355-0.228-1.088-0.67-1.116-0.792
	c-0.258-1.144,1.199-2.024,2.413-2.2c2.188-0.316,4.503,1.434,3.8,3.258c-0.041,0.104-0.853,0.216-0.875,0.395
	c-0.159,1.217-0.813,2.158-1.19,3.343c-0.268,0.835-1.303,1.262-1.901,1.706c-0.612,0.456-1.713,0.202-2.468,0.44
	c-3.557,1.127-7.565-1.169-8.244-4.821C112.055,98.033,112.777,92.595,118.409,89.78z"/>
<path fill="#26A9E0" d="M129.939,96.962c0.968-1.895,2.674-2.702,3.359-3.6c1.334-1.748,4.365-0.609,5.646,1.211
	c0.897,1.271,1.215,2.626,1.32,3.908c0.246,2.979-1.83,4.989-4.33,6.534c-1.033,0.639-3.108,0.29-4.07-0.431
	C129.416,102.748,128.621,99.539,129.939,96.962z M130.859,110.238c-1.568,0.542-2.439-0.907-2.41-2.103
	c0.044-1.953,2.385-1.897,3.238-1.087C132.343,107.668,132.079,109.818,130.859,110.238z M135.725,96.546
	c-0.756-0.99-6.066,3.131-1.949,4.744C136.594,102.396,137.613,99.023,135.725,96.546z M135.747,111.174
	c-1.593,0.476-2.369-0.997-2.295-2.192c0.116-1.917,2.405-1.755,3.237-0.932C137.314,108.667,136.967,110.809,135.747,111.174z"/>
<path fill="#26A9E0" d="M150.021,93.633c0.701-1.586,3.738-0.765,4.842,0.571c0.166,0.201,0.209,0.863-0.162,1.234
	c-1.758,1.764-4.104,6.084-3.859,6.507c0.309,0.532,6.854,1.181,5.321,3.041c-1.194,1.449-6.175-0.936-6.81-0.663
	c-0.748,0.323-2.707,11.953-3.512,14.073c-0.242,0.639-0.896,1.007-1.604,0.794c-0.854-0.256-1.116-0.622-1.176-1.551
	c-0.138-2.15,2.654-14.149,2.199-14.384c-0.484-0.25-4.871,0.73-5.214-1.341c-0.088-0.538,0.712-1.154,1.382-1.309
	c1.602-0.373,3.916,0.46,5.162-0.283c1.01-0.602,1.238-2.206,1.778-3.327C148.927,95.843,149.523,94.758,150.021,93.633z"/>
<g>
	<circle fill="#0071BC" cx="107.433" cy="143.18" r="10.587"/>
	<path fill="#0F4481" d="M108.195,145.846c1.967-2.272,1.718-5.705-0.552-7.669c-2.271-1.965-5.703-1.719-7.67,0.554
		c-1.964,2.27-1.716,5.703,0.554,7.67C102.796,148.363,106.23,148.116,108.195,145.846z"/>
	<path fill="#FFFFFF" d="M105.029,144.178c1.044-1.207,0.913-3.029-0.294-4.074c-1.206-1.043-3.031-0.916-4.077,0.293
		c-1.044,1.207-0.911,3.033,0.296,4.076C102.162,145.518,103.984,145.384,105.029,144.178z"/>
	<circle fill="#FFFFFF" cx="109.427" cy="141.538" r="1.407"/>
</g>
<g>
	<circle fill="#0071BC" cx="137.209" cy="141.896" r="8.311"/>
	<path fill="#0F4481" d="M137.809,143.986c1.543-1.782,1.349-4.478-0.435-6.019c-1.782-1.543-4.478-1.35-6.021,0.435
		c-1.543,1.781-1.349,4.478,0.435,6.021C133.568,145.965,136.266,145.771,137.809,143.986z"/>
	<path fill="#FFFFFF" d="M135.322,142.68c0.818-0.949,0.717-2.379-0.231-3.199c-0.946-0.818-2.379-0.719-3.198,0.229
		c-0.82,0.947-0.717,2.381,0.231,3.2C133.072,143.73,134.502,143.626,135.322,142.68z"/>
	<circle fill="#FFFFFF" cx="138.773" cy="140.607" r="1.104"/>
</g>
</svg>
