<svg xmlns="http://www.w3.org/2000/svg" width="250" height="250" viewBox="0 0 250 250"><path opacity=".15" d="M195.602 61.158c-5.347-11.38-10.82-16.913-16.732-16.913-12.246 0-17.975 24.32-19 29.193l-.262 1.242.593 1.123c2.35 4.465 5.37 5.403 7.49 5.403 4.49 0 7.65-4.183 8.23-5.02l.63-.89.02-1.087c.12-9.08 1.23-12.36 1.79-13.45.18.11.39.27.65.5.89.8 1.94 2.06 3.02 3.64 1.79 2.6 3.11 5.2 3.12 5.23l.05.08c5.71 10.66 4.73 14.48 4.05 15.62-.96 1.61-3.76 1.95-5.94 1.95-10.14 0-25.67-7-25.8-7.06-11.27-5.25-21.52-8.72-30.6-10.36.67-.8 1.13-1.57 1.4-2.08l15.89-17.79c.17.02.34.03.51.03 3.34 0 5.7-3.46 6.56-4.94l.12-.2.09-.21c.42-1.01 1.7-4.09.01-6.62-.44-.66-1.37-1.69-3.06-2.06-.23-.49-.53-.93-.89-1.33-.86-.94-2.03-1.54-3.37-1.71-.81-1.72-2.23-2.66-3.23-2.98-.66-.21-1.34-.32-2.04-.32-8.6 0-17.49 17.94-21.53 27.24-9.01 2.7-16.43 7.02-22.11 12.87l-.06.01-.78.87s-.17.19-.39.45c-1.37 1.53-2.62 3.15-3.68 4.77-1.57 2.28-2.71 4.36-3.41 6.19l-.15.31-.01.09-.07.18c-.9 1.45-1.57 2.82-2.06 4-2.22.43-4.33 1.01-6.32 1.72-.76-.48-1.7-.73-2.73-.73-1.78 0-3.57.73-4.79 1.97-.71.73-1.27 1.62-1.69 2.74-1.46-3.34-3.08-7.23-3.62-8.51-1-3.88-.29-5.08-.13-5.28.39-.5 1.56-.56 2.05-.56 1.43 0 2.92.38 3.81.65 2.62 3.08 5.37 3.76 7.28 3.76 3.11 0 5.21-1.74 5.59-2.09l.84-.76 6.23-27.96c.57-.25 1.1-.62 1.55-1.09 1.94-2.02 2.01-5.52 1.95-6.92l-.01-.23-.04-.23c-.94-5.41-4.14-5.99-5.47-5.99-.63 0-1.22.12-1.76.32-1.08-.68-2.13-.83-2.84-.83-.89 0-1.69.22-2.39.54-1.31-.83-2.57-.93-3.1-.93-.53 0-.93.07-1.22.15-8.27 2.19-7.56 17.58-6.05 28.03-2.29-.52-4.37-.78-6.29-.78-6.37 0-9.6 2.97-11.18 5.46-5.73 8.99.5 26.32 5.23 36.8-5.53 13.1-2.26 27.61-2.11 28.24l.03.1.03.1c7.22 24.26 25.18 35.01 35.7 39.35-1.2.27-2.35.73-3.41 1.37-.84.49-1.43 1.15-1.8 1.95-1.78-1.08-3.87-1.68-6.03-1.68-1.78 0-3.47.4-4.93 1.13-.95-1.85-2.98-3.11-5.1-3.11-.45 0-.91.05-1.33.16-1 .25-2.07.46-3.2.67-4.32.82-9.22 1.76-12.62 6.02-1.17 1.43-2 3.78.72 6.79.15.16.31.34.47.54 1.82 2.34 4.02 3.91 5.96 5.3.62.44 1.23.88 1.8 1.32-.18-.03-.36-.05-.52-.06-.92-1.11-2.06-1.68-3.41-1.68-.27 0-.54.02-.81.07l-.43.08-.39.18c-2.5 1.13-4.25 3.69-4.25 6.24 0 2.14 1.21 3.95 3.19 4.83 2.02.92 4.48 1.43 6.92 1.43 3.88 0 7.23-1.22 9.51-3.31.5 1.19 1.7 2.51 4.53 2.59.1 0 .2 0 .29.01l.22.05.29.01c.21.01.42.01.62.01 2.78 0 5.13-.95 7.21-1.79.63-.26 1.27-.52 1.99-.77l.02-.01c.52.76 1.36 1.66 2.64 2.11l.29.1.3.05c.34.06.7.09 1.06.09 1.76 0 3.43-.66 4.48-1.76.21-.22.4-.46.55-.71.51.77 1.14 1.51 1.94 2.17.27.23.57.42.89.58.01.39.02.78.02 1.16-1.3 1.06-4.19 2.84-8.87 2.84-.85 0-1.73-.06-2.62-.17l-2.45-.32-1.14 2.2c-1.53 2.95-1.36 6.89 1.89 8.75.51.31 1.07.56 1.67.73.27.76.64 1.29.81 1.5.59.77 1.41 1.37 2.39 1.73 1.04.47 2.21.71 3.48.71 1.96 0 4.17-.56 6.58-1.68.64-.26 1.26-.58 1.84-.94.35-.19.6-.34.75-.43 5.13-2.52 9.52-3.14 12.26-3.21l.34-.01c.56 0 1.09.02 1.61.05 1.57.97 3.14 1.63 4.59 1.94l.13.03.4.07c.26.04.52.08.77.1l.2.01c.16.01.32.02.46.02h.18c.2 0 .38-.01.54-.02l.1-.01c.59-.05 1.01-.15 1.21-.2l.72-.21.58-.48c.43-.35 2.45-2.18 2.45-4.76 2.32.52 3.89 1.28 4.08 1.37 2.35 1.32 4.98 1.51 6.35 1.51h.3c.22.02.42.02.62.02 3.1 0 4.5-1.56 5.06-2.5.17-.3.31-.6.42-.9 1.37-.57 2.15-1.47 2.6-2.28 1.53-2.74-.07-5.62-.41-6.17l-.49-3.27c.89-.5 1.73-1.09 2.52-1.75 1.35 4.71 4.6 5.11 5.6 5.11.99 0 1.98-.28 2.94-.85 3.17-1.85 2.59-5.11 2.39-6.19l-.09-.52.05-.41c.38-.58.61-1.25.67-1.98.35-2.33.94-4.66 1.56-7.12.79-3.13 1.61-6.37 1.89-9.67.12-1.24-.27-2.45-1.12-3.4-.98-1.1-2.46-1.73-4.05-1.73-2.29 0-4.25 1.35-5.01 3.47-.7 2.05-1.22 4.04-1.64 6.01-.03-.04-.05-.09-.08-.13-1.7-2.31-3.5-4.05-5.88-5.63-.17-.11-.36-.21-.54-.32 3.96-.57 5.53-2.77 5.84-3.27l.7-1.12-.22-1.32c-.28-1.68-1.18-3.77-3.64-5.62 5.89-6.54 8.79-14.57 8.06-22.64-.32-3.47-1.29-6.81-2.88-9.96 1.44-4.71 1.36-7.97-.23-10.21-1.15-1.61-2.98-2.49-5.15-2.49-.12 0-.24.01-.36.02.34-1.23.75-3.12 1.31-5.77.26-1.26.63-3 .96-4.44.99.26 2.06.47 3.09.47 2.18 0 3.43-.95 4.09-1.75.98-1.19 1.28-2.68.83-4.07-.6-1.82-2.2-2.76-3.93-3.37.48-.73.98-1.43 1.41-1.86.89-.89 1.32-2.15 1.29-3.37 9.71 3.13 17.81 4.73 24.11 4.73 8.14 0 13.73-2.58 16.62-7.66 6.36-11.18-4-29.71-5.61-32.47z"/><path fill="#FFD200" d="M193.602 59.158c-5.347-11.38-10.82-16.913-16.732-16.913-12.246 0-17.975 24.32-19 29.193l-.262 1.242.593 1.123c2.35 4.465 5.37 5.403 7.49 5.403 4.49 0 7.65-4.183 8.23-5.02l.63-.89.02-1.087c.12-9.08 1.23-12.36 1.79-13.45.18.11.39.27.65.5.89.8 1.94 2.06 3.02 3.64 1.79 2.6 3.11 5.2 3.12 5.23l.05.08c5.71 10.66 4.73 14.48 4.05 15.62-.96 1.61-3.76 1.95-5.94 1.95-10.14 0-25.67-7-25.8-7.06-11.27-5.25-21.52-8.72-30.6-10.36.67-.8 1.13-1.57 1.4-2.08l15.89-17.79c.17.02.34.03.52.03 3.34 0 5.7-3.46 6.56-4.94l.12-.2.09-.21c.42-1.01 1.7-4.09.01-6.62-.44-.66-1.37-1.69-3.06-2.06-.23-.49-.53-.93-.89-1.33-.85-.94-2.03-1.54-3.37-1.71-.81-1.72-2.23-2.66-3.23-2.98-.65-.21-1.34-.32-2.03-.32-8.6 0-17.5 17.94-21.53 27.24-9.01 2.7-16.44 7.02-22.11 12.87l-.06.01-.78.87s-.17.19-.39.45c-1.36 1.53-2.61 3.15-3.68 4.77-1.56 2.28-2.71 4.36-3.41 6.19l-.15.31-.01.09-.08.18c-.9 1.45-1.57 2.82-2.06 4-2.22.43-4.33 1.01-6.32 1.72-.76-.48-1.7-.73-2.73-.73-1.79 0-3.58.73-4.79 1.97-.72.73-1.27 1.62-1.69 2.74-1.46-3.34-3.08-7.23-3.62-8.51-1-3.88-.29-5.08-.14-5.28.39-.5 1.57-.56 2.06-.56 1.42 0 2.92.38 3.81.65 2.62 3.08 5.37 3.76 7.28 3.76 3.11 0 5.2-1.74 5.59-2.09l.84-.76 6.23-27.96c.57-.25 1.09-.62 1.54-1.09 1.93-2.01 2-5.51 1.94-6.91l-.01-.23-.04-.23c-.94-5.41-4.13-5.99-5.46-5.99-.63 0-1.22.12-1.76.32-1.09-.68-2.13-.83-2.84-.83-.89 0-1.69.22-2.39.54-1.31-.83-2.57-.93-3.1-.93-.53 0-.94.08-1.22.15-8.28 2.19-7.56 17.58-6.06 28.03-2.29-.52-4.37-.78-6.29-.78-6.37 0-9.6 2.97-11.18 5.46-5.72 8.99.5 26.32 5.24 36.8-5.54 13.1-2.27 27.61-2.12 28.24l.03.1.03.1c7.22 24.26 25.18 35.01 35.69 39.35-1.21.27-2.35.73-3.42 1.37-.85.49-1.44 1.15-1.81 1.95-1.78-1.08-3.87-1.68-6.03-1.68-1.78 0-3.47.4-4.94 1.13-.96-1.85-2.98-3.11-5.1-3.11-.45 0-.91.05-1.33.16-1 .25-2.07.46-3.2.67-4.32.82-9.22 1.76-12.62 6.02-1.17 1.43-2 3.78.72 6.79.15.17.3.34.46.54 1.82 2.33 4.02 3.91 5.96 5.29.62.45 1.23.88 1.8 1.32l-.52-.06c-.92-1.11-2.06-1.67-3.41-1.67-.27 0-.54.02-.81.07l-.43.08-.39.18c-2.5 1.13-4.25 3.69-4.25 6.24 0 2.14 1.21 3.95 3.19 4.83 2.02.93 4.48 1.43 6.92 1.43 3.88 0 7.23-1.22 9.51-3.31.5 1.19 1.7 2.51 4.53 2.59.1 0 .2 0 .3.01l.22.05.29.02c.21.01.42.01.62.01 2.78 0 5.13-.95 7.2-1.79.64-.26 1.28-.52 1.99-.77l.02-.01c.52.76 1.36 1.65 2.65 2.11l.29.1.3.05c.34.06.7.09 1.06.09 1.76 0 3.43-.66 4.48-1.77.21-.22.4-.46.55-.71.51.77 1.14 1.51 1.94 2.17.27.23.57.42.89.58.01.39.02.78.02 1.16-1.31 1.06-4.2 2.84-8.87 2.84-.85 0-1.73-.06-2.63-.17l-2.45-.33-1.13 2.2c-1.53 2.95-1.36 6.89 1.89 8.75.52.31 1.08.56 1.68.73.27.76.65 1.29.81 1.5.6.77 1.41 1.37 2.39 1.73 1.04.47 2.21.71 3.48.71 1.96 0 4.17-.56 6.58-1.68.64-.26 1.25-.58 1.83-.94.34-.19.6-.34.74-.43 5.13-2.52 9.52-3.14 12.26-3.21l.34-.01c.56 0 1.1.02 1.61.05 1.57.97 3.14 1.63 4.59 1.94l.13.03.4.07c.26.04.52.08.76.1l.2.01c.16.01.32.02.46.02h.18c.2 0 .38-.01.54-.02l.1-.01c.6-.05 1.02-.14 1.21-.2l.73-.2.58-.48c.43-.35 2.45-2.18 2.45-4.76 2.32.52 3.89 1.28 4.08 1.37 2.35 1.32 4.98 1.51 6.35 1.51h.3c.22.02.42.02.62.02 3.1 0 4.5-1.56 5.06-2.49.18-.3.31-.6.42-.9 1.37-.57 2.16-1.47 2.61-2.28 1.53-2.74-.08-5.62-.42-6.17l-.49-3.27c.89-.5 1.73-1.09 2.52-1.75 1.35 4.71 4.6 5.11 5.61 5.11.99 0 1.98-.28 2.94-.84 3.17-1.86 2.59-5.12 2.4-6.19-.04-.19-.09-.49-.1-.52l.05-.41c.37-.58.61-1.25.66-1.98.35-2.33.94-4.66 1.56-7.12.79-3.13 1.61-6.37 1.89-9.67.12-1.24-.27-2.45-1.12-3.4-.98-1.1-2.46-1.73-4.05-1.73-2.29 0-4.25 1.35-5.01 3.47-.7 2.05-1.22 4.04-1.64 6.01-.03-.04-.05-.09-.08-.13-1.69-2.32-3.5-4.06-5.87-5.64-.18-.12-.36-.21-.54-.32 3.95-.58 5.53-2.77 5.84-3.27l.7-1.13-.22-1.31c-.28-1.68-1.19-3.77-3.64-5.62 5.89-6.54 8.79-14.57 8.06-22.64-.32-3.47-1.29-6.81-2.88-9.96 1.44-4.71 1.36-7.97-.23-10.21-1.15-1.61-2.98-2.49-5.15-2.49-.12 0-.24.01-.36.02.35-1.23.75-3.12 1.31-5.76.26-1.26.63-3 .96-4.44.99.26 2.06.47 3.08.47 2.18 0 3.43-.95 4.09-1.76.98-1.19 1.28-2.68.83-4.07-.6-1.82-2.2-2.76-3.93-3.37.48-.73.98-1.43 1.41-1.86.89-.89 1.32-2.15 1.29-3.37 9.72 3.13 17.81 4.73 24.12 4.73 8.14 0 13.73-2.58 16.62-7.66 6.36-11.18-4-29.71-5.61-32.47z"/><path fill="#FFF" d="M130.18 159.124s1.492 20.407 3.373 43.77c0 0 4.077 4.33 12.05 2.67 0 0 2.362 3.833-2.78 3.628 0 0 1.685 3.146-2.453 2.822 0 0-2.842.17-5.04-1.08 0 0-6.22-3.31-13.677-1.926 0 0-2.6 2.2-4.786 1.893 0 0-2.096-1.49-.27-2.69 0 0 9.667-1.9 11.31-6.74 0 0-1.975-23.94-1.008-39.14"/><path fill="#E6E7E8" d="M126.652 171.51v6.556l6.252-9.103-4.914-2.18m14.83 42.407s-1.295-1.278-4.994-1.09c0 0-3.023-.792-4.032-1.866 0 0 3.62 1.682 4.313 1.492-.002.003 3.88-.28 4.713 1.465z"/><path fill="#26A9E0" d="M55.405 180.997c3.372-4.228 9.07-4.267 13.957-5.506 1.047-.27 2.17.43 2.52 1.28.465 1.05-.813 1.9-1.667 2.1-2.986 1.09-6.126.66-8.88 2.14-.425.23-.852.62-.658 1.05 3.178 4.89 11.863 6.59 10.158 12.91-1.473 5.51-9.538 6.44-14.384 4.23-2.17-.97-.85-3.8 1.05-4.65 1.09-.19 1.09 1.28 1.9 1.51.86.2 1.71 0 2.56.43 1.71.81 3.18-.23 4.66-.85.86-.66.86-1.7.43-2.56-2.98-3.8-7.4-5.27-10.39-9.11-.89-1.16-2.09-1.9-1.24-2.94zm18.838-.892c2.172-3.18 7.328-3.567 10.546-1.05.69.544 0 1.785-1.24 1.98-1.63.193-3.26-1.086-4.85-.39-1.98.894-.35 3.763-1.09 5.546 2.32 1.28 5.73-1.04 6.98 1.98-1.44 2.52-4.97.58-6.44 2.17-1.21 1.28-.55 3.92-.35 6.05 2.87.55 5.35-1.39 8.06-2.13.15-.19.5.2.7.35.35 1.28-.2 2.33-1.24 2.72-2.87 1.01-5.39 2.48-8.42 2.33-.9-.19-2.17.16-2.33-.73-.89-2.87.19-5.73-.55-8.56-.16-.58-1.09-1.28-.54-1.97 0-.19.35-.35.54-.54.35-.73.19-1.62.19-2.32 0-1.78-1.05-3.91 0-5.39zm15.04-.66c-.193-.932-.736-2.25.195-2.79 4.652-2.794 10.623-.35 13.415 4.108 1.667 2.598-1.474 5.04-3.722 6.514.74 3.916 1.9 8.024 3.73 11.554.58 1.13-1.86 1.9-2.79 1.13-3.37-2.79-2.36-7.87-5.19-11.01-.54-.58-2.44-.54-2.83.19-.93 2.99.82 6.17.93 9.15.04.74-1.47 1.32-2.6 1.13-.54-.19-.93-.73-1.12-1.12-1.28-3.37-.93-7.09-.93-10.62 0-2.79 1.86-5.77.93-8.22zm3.373 5.97c2.25.544 4.847-.192 6.514-1.666.39-.2 1.125-.78.736-1.32-1.085-2.25-3.528-3.14-5.582-3.38-1.473-.16-1.125 2.44-1.473 3.56-.31.89-1.12 2.56-.19 2.79zm19.422 14.27c-.62-2.25-2.25-3.8-2.87-5.698-1.28-4.033-3.8-7.795-3.41-11.98.193-.97 2.75-2.714 3.41-1.163 1.63 3.604 1.552 8.18 4.033 11.63 2.25-4.962 2.45-10.662 4.19-15.816.35-1.125 3.96-2.094 3.61.193-.77 5.12-2.05 9.93-3.41 14.85-.73 2.48-1.16 4.77-1.55 7.25-.19.74-1.32 1.32-2.48 1.32-.54 0-1.35 0-1.51-.58zm12.402-19.58c2.172-3.18 7.33-3.567 10.547-1.05.697.544 0 1.785-1.24 1.98-1.628.193-3.258-1.086-4.846-.39-1.97.894-.35 3.763-1.08 5.546 2.33 1.28 5.74-1.04 6.98 1.98-1.43 2.52-4.96.58-6.43 2.17-1.2 1.28-.54 3.92-.35 6.05 2.87.55 5.35-1.39 8.06-2.13.16-.19.51.2.7.35.35 1.28-.19 2.33-1.24 2.72-2.87 1.01-5.39 2.48-8.41 2.33-.89-.19-2.17.16-2.33-.73-.89-2.87.2-5.73-.54-8.56-.15-.58-1.09-1.28-.54-1.97 0-.19.35-.35.55-.54.35-.73.2-1.62.2-2.32 0-1.78-1.04-3.91 0-5.39zm14.58 15.74c.31-.503 1.277-.774 1.316-1.433.116-4.42-.35-8.92-.853-13.53 0-.467-.66-.972-.97-1.475-.155-.155 0-.66 0-.814.31-1.317 1.782-1.473 2.636-1.317 1.47 0 3.25.35 4.72 1.317 1.98 1.317 3.49 2.753 4.96 4.77 3.8 5.233 0 11.825-4.97 14.268-1.63.86-3.45 1.32-5.24.66-.97-.35-1.98-1.47-1.63-2.44zm8.374-2.79c1.162-1.822 2.48-3.955 1.705-6.087-.86-2.442-3.07-5.157-6.05-5.506 0 1.28.38 13.608.73 13.608 1.47.31 2.98-1.047 3.61-2.015zm10.54 2.752c-.19 1.55 1.01 3.18-.58 4.11-2.132 1.24-3.14-.972-3.527-2.753 0-1.553 1.938-2.52 3.334-1.553.24.16.58.2.78.2zm-2.015-5.778c.62-4.69 1.27-8.96 2.83-13.5.62-1.75 3.49-1.17 3.33.19-.47 5.5-2.64 11.08-3.45 16.79 0 .96-1.05.69-2.02.31-1.71-.66-.85-2.41-.7-3.8z"/><path fill="#FFF" d="M84.825 95.997s-.46-28.512 33.09-37.65c0 0 12.165-28.952 19.915-26.49 0 0 1.814.596 1.3 3.562 0 0 4.785-2.17 4.333 2.75 0 0 4.98-1.76 2.727 3.65 0 0-3.017 5.22-4.816 2.28l-18.03 20.18s-3.058 6.93-8.827 2.06c0 0-19.517 3.38-25.426 39.65"/><path fill="#E6E7E8" d="M109.088 68.67l-.923.19L95 71.532s-5.12 5.697-6.864 10.46c-1.743 4.76 16.603-9.83 16.603-9.83l4.34-3.492z"/><path fill="#FFF" d="M84.825 89.67S91.642 52.915 154 81.937c0 0 53.547 24.34 32.282-15.38 0 0-14.79-29.49-15.253 5.606 0 0-5.56 7.253-9.72 0 0 0 10.68-50.874 29.16-11.36 0 0 31.42 52.957-36.48 28.496 0 0-57.81-26.45-61.31 3.4-3.33 28.38-7.87-3.03-7.87-3.03zm2.46 60.65s15.166 24.85 14.995 55.57c0 0-4.905 6.05-15.488 4.664 0 0-2.71 5.242 3.99 4.473 0 0-1.893 4.273 3.483 3.445 0 0 3.73-.056 6.48-1.904 0 0 7.806-4.935 17.688-3.854 0 0 3.612 2.62 6.44 2.003 0 0 2.593-2.156.09-3.546 0 0-12.824-1.54-15.445-7.7 0 0-4.846-36.01-9.568-50.56"/><path fill="#FFF" d="M101.28 171.757s-32.308-5.677-42.483-39.866c0 0-9.13-39.2 27.81-43.79 0 0 32.966 1.1 21.08 22.93 0 0-1.452 13.48 12.6 15.34l-19.007 45.39z"/><path fill="#E6E7E8" d="M104.603 172.857l1.137 6.782-9.54-9.27 6.193-3.57"/><path fill="#E6E7E8" d="M96.2 170.378l12.888-48.897-1.348-7.6s-34.99 5.61-34.066 26.67c0 0-1.892 15.49 22.527 29.84z"/><path fill="#D0D1D2" d="M144.762 123.856s11.64-6.876 6.694 7.57l-2.247-1.494-4.45-6.076z"/><path fill="#D0D1D2" d="M144.424 123.887s11.64-6.875 6.693 7.57l-2.247-1.493-4.446-6.077z"/><ellipse transform="matrix(.091 .996 -.996 .091 251.679 14.312)" fill="#FFF" cx="118" cy="145.003" rx="29.4" ry="36.692"/><ellipse transform="matrix(.091 .996 -.996 .091 256.756 9.185)" fill="#D0D1D2" cx="123.347" cy="145.221" rx="23.423" ry="30.706"/><path fill="#D0D1D2" d="M91.85 129.252s-7.732-4.147-12.304-.64c0 0-5.793 5.868 3.67 13.723l2.317 2.14s1.514-1.345.95-3.906c0 0-11.094-10.43 3.26-7.97 0-.01 2.246-.37 2.108-3.36zm31.495 37.558s8.743 7.036 9.907-.82c1.166-7.857-9.907.82-9.907.82z"/><path fill="#BE202E" d="M123.855 163.22s2.97-.93 5.474-2.93c0 0 2.94 1.58 5.69.73 0 0-4.23 2.803-4.23 6.603 0 0-4.15.81-6.94-4.402z"/><ellipse transform="matrix(.091 .996 -.996 .091 268.266 -10.041)" fill="#FFF" cx="139.633" cy="141.911" rx="12.4" ry="12.579"/><ellipse transform="matrix(.091 .996 -.996 .091 244.733 21.611)" fill="#FFF" cx="110.53" cy="144.851" rx="15.426" ry="15.529"/><path fill="#919396" d="M89.086 131.477c.008-.014-3.853 6.976-3.682 9.127l-1.2-1.615c0-.01-8.81-10.52 4.882-7.52z"/><path fill="#D0D1D2" d="M92.19 129.225s-7.733-4.148-12.303-.642c0 0-5.795 5.87 3.667 13.724l2.318 2.14s1.514-1.345.948-3.905c0 0-11.09-10.423 3.262-7.964 0-.002 2.247-.368 2.11-3.353z"/><path fill="#6D6F71" d="M129.094 157.02l.502 3.27h-.502l-.433-3.27"/><path fill="#0B8ECC" d="M128.624 152.302s-1.944-3.138-3.566 2.9l3.97 2.78 2.913-3.183s-2.59-5.2-3.31-2.5z"/><path fill="#FFF" d="M125.793 155.077l1.707 1.188s-.547-1.924-1.707-1.188zm4.487.935l1.02-1.01c.002 0-.857-.32-1.02 1.01z"/><path fill="#6D6F71" d="M136.82 157.53s-2.248 6.15-7.316 2.165l-.41.594s6.74 4.51 8.273-2.76h-.547zm-7.726 2.074s-5.966 7.13-9.83.313l-.397.114s2.764 7.51 10.73.26l-.503-.68z"/><path fill="#FFF" d="M62.112 106.01s-25.9-51.48 12.025-38.066c0 0-5.318-27.518 2.543-29.6 0 0 1.85-.47 3.006 2.308 0 0 2.875-4.398 5.138 0 0 0 3.255-4.158 4.26 1.624 0 0 .258 6.023-2.836 4.515l-6.562 29.44s-4.163 3.74-8.4-2.05c0 0-23.974-9.45-3.855 25.42"/><path fill="#E6E7E8" d="M66.185 97.386l-4.832 7.042L60.09 83.5s4.848 11.68 6.095 13.886zm95.133-25.224s4.314-4.593 7.86-1.288c0 0 1.28-31.173 13.745-9.96 0 0-11.895-19.067-11.895 11.248 0 0-5.55 7.918-9.71 0zM93.504 88.947l-3.177-.51s9.302-21.42 44.694-6.08c0 0-36.46-11.545-41.51 6.59zM86.25 46.79s-.22.646-1.425-1.125c0 0-2.902 3.545-4.598-2.66 0 0-2.467 8.208-4.162 0 0 0-2.313 22.384 3.622 33.226l6.562-29.44z"/><path fill="#E6E7E8" d="M79.428 46.496s1.04-1.85.693-5.26c0 0 1.28 3.816-.69 5.26zm61.944-2.376l-.09-1.114s-4.13.772-4.015-3.505c0 0-5.418 2.55-2.246-4.04 0 0-24.55 33.99-12.59 30.35l.92-1.5 18.03-20.18z"/><path fill="#E6E7E8" d="M131.756 39.704s1.245-.434 2.246-3.788c0 0-.344 3.565-2.246 3.788zm3.598 3.35s2.23-1.82 3.004-4.517c0 0-.836 3.042-2.074 4.47-1.242 1.427-1.39 1.06-.93.048zM90.87 214.93s1.564-1.8 6.42-1.915c0 0 3.874-1.33 5.087-2.834 0 0-4.566 2.56-5.492 2.38 0 0-5.096.01-6.016 2.38z"/><path fill="#E6E7E8" d="M92.362 213.523s-3.984 1.438-6.112-.527c0 0 .232 2.847 4.516 2.03 0 0 .064-.628 1.596-1.503zm-1.758 3.185s5.485 2.61 10.507-1.534c0 0 8.65-4.316 17.53-2.872 0 0 4.42 2.525 6.97 1.782l-.59.634s-2.47.73-6.37-1.956-.06-.047-.06-.047-7.47-1.28-17.11 3.518c0 0-7.31 4.738-10.54 1.486 0 0-.34-.43-.32-1.02z"/><path fill="#6D6F71" d="M137.367 157.53s-4.706-.517-4.137-2.562h-.473s.27 2.46 3.865 3.015l.745-.452zm-17.08 2.124s-2.245-1.928-2.287 1.193h-.734s.723-3.95 3.02-1.193zm4.585 7.97s6.34 4.472 7.887-.547h.45s-1.11 5.335-8.98 1.04l.64-.494z"/><path fill="#BE202E" d="M131.94 163.823s12.388 1.175 12.9 3.192c0 0-12.554.772-17.51-3.192"/><path fill="#EF4B4D" d="M144.227 166.962s-4.197-2.514-15.812-2.99c3.922-1.626 20.608-.587 21.744 6.227 0 0-2.31 3.71-11.8.32-2.17-.77-4.71-1.92-7.69-3.56 0 0-4.6-1.94-4.62-2.55 2.34-.73 14.82.86 18.17 2.55z"/><path fill="#26A9E0" d="M69.048 114.398c-.5-2.752.568-6.96-.596-9.346-1.723-3.533-7.027-6.442-9.015-10.063-.563-1.03 1.735-2.74 2.867-2.41 2.982.87 6.227 7.16 6.855 6.95.7-.23-.1-6.7 2.1-8.93 1.19-1.21 3.78-1.28 3.46.12-.69 3.02-1.87 7.84-2.36 10.77-.16.97.35 2.02 1.27 2.53.4.22.35 1.19.23 1.47-.22.53-1.63.85-1.67 1.64-.11 2.15.35 5.43.37 7.81 0 .53-.83 1.46-2.15 1.37-1.07-.07-1.24-1.12-1.39-1.94zm9.15-15.318c.21-2.12 1.505-3.496 1.817-4.584.604-2.114 3.84-2.164 5.698-.94 1.298.856 2.088 2 2.656 3.155 1.31 2.69.12 5.32-1.64 7.67-.73.97-2.79 1.41-3.95 1.09-2.96-.81-4.88-3.5-4.6-6.38zm5.725 12.016c-1.263 1.08-2.612.05-3.024-1.074-.68-1.833 1.53-2.64 2.62-2.2.84.338 1.38 2.433.4 3.274zm-.485-14.524c-1.064-.644-4.5 5.136-.076 5.13 3.032-.005 2.742-3.515.076-5.13zm5.373 13.605c-1.3 1.026-2.56-.06-2.93-1.2-.59-1.827 1.6-2.514 2.67-2.05.81.344 1.26 2.464.26 3.25zm1.47-17.432c1.27-.79 3.67-.63 3.8.625.26 2.334.04 4.904.78 7.038.47 1.344 1.38 4.787 2.82 3.707 3.22-2.4 4.03-7.39 1.19-10.65-.71-.814-1.48-2.214-.42-2.68 2.95-1.3 5.43 1.857 5.66 4.007.45 4.338-.7 9.696-4.82 11.723-6.44 3.174-9.26-5.346-9.58-10.22-.08-1.253-.57-2.822.59-3.55zm28.14-2.965c3.33-1.664 7.37-1.046 10.12.97.92.67.25 1.425-.61 1.667-2.16.607-4.14-.944-6.25-.666-1.89.25-2.89 2.04-3.57 3.37-1.64 3.23-2.56 8 1.3 10.01.88.46 2.07.34 2.5-.29.66-.98 1.79-2.39.7-3.09-.35-.23-1.09-.67-1.11-.79-.25-1.14 1.2-2.02 2.42-2.2 2.19-.31 4.5 1.44 3.8 3.26-.04.11-.85.22-.87.4-.16 1.22-.81 2.16-1.19 3.35-.26.84-1.3 1.26-1.9 1.71-.61.46-1.71.2-2.47.44-3.55 1.13-7.56-1.17-8.24-4.82-.93-5.03-.21-10.47 5.42-13.28zm11.53 7.182c.97-1.895 2.68-2.702 3.36-3.6 1.34-1.748 4.37-.61 5.65 1.21.9 1.272 1.22 2.627 1.32 3.91.25 2.978-1.83 4.988-4.33 6.533-1.03.64-3.11.29-4.07-.43-2.45-1.837-3.24-5.046-1.92-7.623zm.92 13.276c-1.57.542-2.44-.907-2.41-2.103.05-1.953 2.39-1.897 3.24-1.087.66.62.4 2.77-.82 3.19zm4.87-13.692c-.75-.99-6.06 3.13-1.95 4.744 2.82 1.106 3.84-2.267 1.95-4.744zm.02 14.628c-1.59.476-2.37-.997-2.29-2.192.12-1.917 2.41-1.755 3.24-.932.63.617.28 2.76-.94 3.124zm14.28-17.54c.71-1.587 3.74-.766 4.85.57.17.2.21.863-.16 1.234-1.75 1.764-4.1 6.084-3.85 6.507.31.532 6.86 1.18 5.32 3.04-1.19 1.45-6.17-.935-6.81-.662-.75.323-2.7 11.953-3.51 14.073-.24.64-.9 1.007-1.6.794-.85-.256-1.11-.622-1.17-1.55-.13-2.15 2.66-14.15 2.2-14.385-.48-.25-4.87.73-5.21-1.34-.09-.54.71-1.155 1.38-1.31 1.6-.373 3.92.46 5.16-.283 1.01-.602 1.24-2.206 1.78-3.327.56-1.152 1.16-2.237 1.66-3.362z"/><circle fill="#0071BC" cx="107.433" cy="143.18" r="10.587"/><path fill="#0F4481" d="M108.195 145.846c1.967-2.272 1.718-5.705-.552-7.67-2.27-1.964-5.703-1.718-7.67.555-1.964 2.27-1.716 5.71.554 7.67 2.27 1.97 5.703 1.72 7.668-.55z"/><path fill="#FFF" d="M105.03 144.178c1.043-1.207.912-3.03-.295-4.074-1.206-1.043-3.03-.916-4.077.293-1.044 1.207-.91 3.033.296 4.076 1.208 1.045 3.03.91 4.075-.295z"/><circle fill="#FFF" cx="109.427" cy="141.538" r="1.407"/><circle fill="#0071BC" cx="137.209" cy="141.896" r="8.311"/><path fill="#0F4481" d="M137.81 143.986c1.542-1.782 1.348-4.478-.436-6.02-1.782-1.542-4.478-1.35-6.02.436-1.544 1.78-1.35 4.478.434 6.02 1.78 1.543 4.478 1.35 6.02-.436z"/><path fill="#FFF" d="M135.322 142.68c.818-.95.717-2.38-.23-3.2-.947-.817-2.38-.718-3.2.23-.82.947-.716 2.38.232 3.2.948.82 2.378.716 3.198-.23z"/><circle fill="#FFF" cx="138.773" cy="140.607" r="1.104"/></svg>