<svg xmlns="http://www.w3.org/2000/svg" width="250" height="250" viewBox="0 0 250 250"><path opacity=".15" d="M206.43 104.05c-.26-1.397-.832-2.766-1.703-4.028-1.42-2.06-3.62-3.465-6.2-3.958-.544-.104-1.095-.156-1.637-.156-1.555 0-3.087.438-4.425 1.262-.36.22-.7.465-1.02.728-.342-.558-.744-1.083-1.22-1.564-1.403-1.407-3.34-2.183-5.457-2.183-.713 0-1.454.09-2.206.26-1.845.42-3.515 1.37-4.96 2.83-.776.79-1.423 1.65-1.96 2.57-.208-.02-.424-.03-.65-.03-.897 0-2.063.18-3.152.44l.067-.09c1.393-1.79 2.77-3.5 4.093-5.08 1.286-1.54 2.515-2.93 3.648-4.14 1.005-1.07 1.926-2 2.71-2.73.53-.49.794-.73 1.322-1.21l.472-.42.352-.52c.8-1.2 1.335-2.43 1.584-3.67.272-1.34.25-2.63-.058-3.84-.396-1.54-1.246-2.85-2.46-3.8-1.175-.91-2.632-1.4-4.24-1.41-.622 0-1.645.05-2.972.28-1.257.23-2.59.53-3.962.9-.487.14-.993.29-1.496.45l-.542-.93c.304-.24.56-.48.753-.68.81-.84 1.36-1.89 1.62-3.04.13-.59.2-1.22.2-1.89l.01-.12c.06-.72.16-1.94-.4-3.27-.62-1.48-1.89-3.19-6.83-5.71-1.21-.61-2.44-1.14-3.7-1.59.93-.24 1.85-.41 2.75-.51.49-.05.98-.07 1.45-.07.63 0 1.25.05 1.86.14.89.13 1.73.34 2.46.61.56.22.79.31 1.32.56l.97.45 1.16.02c2.57 0 4.71-1.42 5.6-3.69.53-1.34.6-2.83.2-4.44-.26-1.05-.71-2.14-1.35-3.25-.55-.94-1.23-1.86-2.02-2.73-.91-.99-1.87-1.91-2.92-2.82-1.51-1.31-3.09-2.5-4.7-3.54-1.85-1.2-3.77-2.22-5.7-3.04-1.87-.79-3.79-1.4-5.71-1.82-1.57-.34-3.08-.56-4.62-.65-.89-.05-1.66-.08-2.19-.08h-.26c-.36.01-.77.03-1.2.06-.4.02-.83.05-1.28.06-1.64.03-3.22.41-4.7 1.14l-1.41.69c-.72-.24-1.49-.36-2.3-.36-.39 0-.78.02-1.18.08-.68.09-1.78.28-3.22.7-1.43.4-2.96.92-4.56 1.53-1.65.63-3.42 1.38-5.25 2.22-1.65.77-3.31 1.58-5.06 2.5-1.37.71-2.72 1.45-4.01 2.18-.56.32-1.01.57-1.35.76l-.4.23c.32-.74.56-1.46.72-2.17.4-1.81.38-3.38-.08-4.78-.71-2.2-2.48-3.81-4.74-4.32-.48-.11-.98-.17-1.5-.17-1.03 0-2.09.22-3.26.68-.65.25-2.04.81-3.96 1.68-1.8.82-3.74 1.69-5.92 2.57-2.44 1-4.64 1.77-6.73 2.38-2.2.64-4.34 1.1-6.35 1.36-1.48.19-2.9.29-4.33.29h-.56c-1.03-.02-1.77-.07-2.26-.11l-.53-.03c-.51-.02-1.36-.12-2.56-.45-1.81-.5-3.24-.76-4.5-.83l-4-.22-1.88 6.76c-.25.54-.42 1.12-.5 1.73-.06.4-.19 1.24-.03 2.24.02.1.03.22.04.34.12 1 .26 2.13 1.01 3.25 1.35 2 3.58 2.52 6.13 2.93l.39.07c.79.13 1.69.28 2.63.4 1.92.24 3.97.36 6.09.36 1.07 0 2.17-.03 3.28-.09-1.67 1.39-3.2 2.57-4.73 3.66-2.43 1.73-4.69 3.06-6.91 4.06-2.16.98-4.31 1.68-6.37 2.1-1.56.31-3.12.46-4.76.46h-1.24c-1.38 0-3.11 0-4.67.95-.6.37-1.3.83-1.89 1.42-.48.48-.79.94-1 1.25-1.25 1.72-1.09 3.69-1.02 4.44v.05c.01.24.03.49.05.73l.01.05c.03.41.08 1.19.4 2.05.49 1.34 1.37 2.3 1.87 2.85.31.34.78.84 1.35 1.37.53.48 1.13.96 1.89 1.5.44.31.92.7 1.3 1 2.82 2.26 5.93 4.19 9.24 5.72 3.03 1.4 6.33 2.32 9.82 2.73l.18.02c.42.05 1.06.13 1.86.19 1.1.08 2.17.12 3.25.12h.09c1.25 0 2.54-.07 3.83-.19.73-.08 1.48-.17 2.27-.3 1.3 1.68 3.33 2.23 4.98 2.68.34.09.68.19 1.03.29.45.13.9.26 1.36.38 1.24.34 2.53.65 3.87.93-.41.3-.81.61-1.2.93-.95-.19-1.84-.28-2.67-.28-4.09 0-6.02 2.24-6.82 3.58-1.42 2.4-1.21 5.22-.56 7.59-1.72.57-3.22.91-4.34 1.15-2.01.43-3.93.94-5.32 2.5-.64.72-1.06 1.27-1.39 1.82-.29.48-.48.93-.6 1.2l-.03.07c-.5 1.05-.66 2.22-.54 3.73v.12c.01.24.02.5.04.69v.09c.02.41.06 1.18.33 2.03.4 1.26 1.14 2.2 1.76 2.9.27.31.69.78 1.21 1.26.16.15.33.3.49.43-3.22 2.73-5.27 6.77-5.27 11.28 0 8.18 6.74 14.84 15.03 14.84h.56c1.3 0 2.67-.11 4.08-.31l-.07.38-.01.33c-.07 1.75.02 6.1 2.51 8.7.32.33.67.63 1.03.88h-.12c-6.51 0-11.65 1.07-15.38 3.21-.77-1.49-1.65-3.1-2.61-4.73-5.32-8.98-10.07-13.17-14.97-13.17-1.56 0-3.08.44-4.42 1.28l-1.55.98-.54 1.76c-.29.94-1.07 4.11.59 6.86.01.3.05.61.11.92.21 1.01.7 2.21 1.81 3.28.05.6.18 1.2.41 1.8.44 1.14 1.52 2.96 4.15 3.98l13.85 18.2 1.09.52c.5.24 1.32.53 2.34.53.43 0 .84-.05 1.25-.14.06.88.24 1.74.52 2.58-.44.75-.78 1.56-.99 2.42-.42 1.69-.35 3.47.21 5.13l.25.72.44.61c7.62 10.53 29.22 17.35 55 17.35 16.08 0 31.45-2.84 42.18-7.78 13.13-6.04 15.89-13.35 15.89-18.41 0-4.59-2.29-11.28-13.23-17.1-5.74-3.06-13.05-5.44-21.42-7 4.51-11.24 3.71-26.8-2.4-46.44.32-.16.64-.31.94-.45.97-.46 1.96-.97 2.92-1.47.63-.33 1.27-.66 1.91-.98.17-.09.75-.36 2.38-1.04 1.35-.57 2.62-1.07 3.89-1.54s2.55-.91 3.79-1.32l.64-.21c1.56-.5 2.67-.85 3.7-1.88.38-.38.68-.79.92-1.18.66.28 1.32.5 1.99.64.42.09.87.13 1.31.13 1.15 0 2.33-.3 3.62-.91 1.45-.69 2.65-1.5 3.65-2.45.51.78 1.15 1.51 1.94 2.17.6.51 1.23.96 1.86 1.34 1.15.7 2.5 1.06 4.02 1.06.2 0 .41-.01.63-.02 1.7-.1 3.15-.48 4.39-1.13 0 .01 0 .01.01.02 4.3-2.34 4.47-9.14 4.29-9.07zm-63.018-47.16c1.528-1.336 3.188-2.66 4.977-3.902 1.78-1.24 3.51-2.282 5.19-3.134 1.67-.852 3.17-1.463 4.5-1.907 1.32-.444 2.34-.693 3.02-.825.57-.11 1.11-.224 1.6-.375.49-.15 1.69-.22 1.69-.22.03-.1-4.88-2.7-7.71-3.517-2.83-.817-5.47-.954-7.88-.604-.63.092-1.3.21-1.99.346-.69.137-2.03.39-2.08.342-.04-.044 0-.663-.18-1.05-.17-.39-.12-.737.17-1.034.2-1.016.31-1.52.52-2.534.81-.396 1.67-.613 2.6-.63.92-.018 1.79-.092 2.5-.108.27-.007.97.006 2.03.07 1.06.063 2.35.212 3.85.542 1.5.33 3.11.82 4.84 1.55 1.73.73 3.37 1.622 4.93 2.632 1.55 1.01 2.94 2.084 4.15 3.132 1.21 1.05 2.04 1.928 2.51 2.432.49.54.98 1.162 1.38 1.86.4.694.68 1.345.82 1.933.14.58.14 1.06 0 1.43-.15.36-.48.53-1 .52-.66-.31-.99-.44-1.65-.69-.93-.34-2.1-.68-3.51-.88-1.42-.21-2.93-.25-4.54-.09-1.62.17-3.28.53-4.98 1.08-1.7.56-3.35 1.28-4.94 2.13-1.59.84-3.03 1.78-4.33 2.72-1.3.94-3.08 2.51-3.08 2.51.04.11 3.21.08 5.15.17 1.93.08 3.86.34 5.79.8 1.93.46 3.79 1.15 5.58 2.06s4.1 2.27 4.5 3.21c.12.29 0 .97 0 1.36 0 .34-.03.65-.09.91s-.18.48-.35.66c-.18.18-.56.5-.78.5-.26 0-1.33-.76-2.77-1.54s-3.02-1.51-4.72-2.13c-1.7-.61-3.32-1.03-4.84-1.31-1.53-.28-2.6-.37-3.16-.4-1.92-.08-3.84.05-5.62.2-1.79.14-3.72.44-5.63 1-.63.18-1.27.43-1.91.7-.63.27-1.51.38-1.64.24-.11-.12-.1-.68-.13-.93s-.03-.5 0-.75.12-.54.3-.88c.17-.34.4-.81.69-1.36.27-.52.99-1.39 2.12-2.55 1.12-1.16 2.45-2.44 3.98-3.78zm-2.482 28.73c1.24-.41 2.48-.817 3.717-1.202 1.234-.385 2.415-.704 3.534-.954 1.13-.247 2.68-.368 2.75-.263.05.07-.11.56-.16.79-.04.2-.09.39-.16.57-.07.18-.18.37-.32.56-.14.19-.36.52-.6.68-.18.12-.84.22-1.74.4-.9.19-1.88.41-2.95.67-1.07.26-2.09.53-3.06.79-.97.27-1.64.46-2 .57-1.24.39-2.46.8-3.59 1.11-1.13.32-2.36.65-3.58 1.04-.4.13-.81.28-1.22.44-.41.16-.95.19-1.01.12-.05-.06.02-.39.03-.54.02-.14.04-.29.09-.43.05-.14.14-.3.28-.49.15-.19.33-.45.57-.77.23-.29.76-.78 1.57-1.48.82-.69 1.77-1.49 2.88-2.4 1.1-.9 2.3-1.88 3.57-2.91 1.28-1.02 2.52-2.01 3.71-2.94 1.19-.93 2.26-1.75 3.2-2.45.94-.7 1.65-1.23 2.14-1.58.4-.29.78-.57 1.14-.86.36-.29 1.19-.86 1.19-.86-.01-.03-3.02.5-4.8.92-1.78.43-3.47.98-5.04 1.63-.41.17-.85.35-1.3.53-.45.18-1.34.47-1.34.47-.01-.02.08-.38.02-.59-.06-.2.02-.41.23-.61.25-.61.37-.91.62-1.52.55-.33 1.12-.57 1.71-.74.59-.17 1.14-.37 1.61-.54.18-.06.62-.2 1.31-.42.68-.22 1.5-.48 2.46-.75.95-.27 1.97-.55 3.06-.8 1.09-.26 2.12-.46 3.08-.62.97-.16 1.82-.26 2.55-.32.74-.06 1.25-.04 1.51-.02.3.02.57.08.78.24.21.16.33.36.37.61.04.25-.02.53-.17.83-.15.3-.41.61-.78.92-.44.23-.66.34-1.1.58-.62.34-1.41.81-2.39 1.43-.97.62-2.02 1.33-3.16 2.15-1.13.82-2.3 1.69-3.51 2.63s-2.38 1.87-3.52 2.8c-1.14.93-2.18 1.8-3.12 2.61-.94.81-2.24 1.99-2.24 1.99.02.03 2.03-.49 3.27-.9zm-30.026-30.59l.52-2.75c.807-.735 1.673-1.342 2.597-1.816.93-.472 1.78-1.007 2.51-1.444.27-.16.97-.54 2.04-1.146 1.07-.607 2.35-1.314 3.85-2.097 1.5-.782 3.12-1.59 4.85-2.39s3.38-1.5 4.93-2.092c1.56-.593 2.95-1.052 4.16-1.4 1.21-.345 2.08-.49 2.51-.55.5-.067.98-.05 1.39.134.4.18.68.48.82.88.15.4.15.88 0 1.43-.14.55-.47 1.14-.99 1.79-.65.52-.98.79-1.64 1.34-.92.78-2.09 1.83-3.5 3.19-1.41 1.36-2.93 2.91-4.54 4.66-1.61 1.74-3.27 3.6-4.97 5.57-1.7 1.97-3.34 3.93-4.93 5.86-1.59 1.93-3.03 3.74-4.33 5.41-1.3 1.67-3.07 4.09-3.07 4.09.04.05 3.22-1.52 5.15-2.63 1.94-1.11 3.87-2.22 5.8-3.28 1.94-1.07 3.8-2 5.59-2.8 1.79-.8 4.33-1.53 4.5-1.38.1.09 0 .97 0 1.36 0 .34-.03.68-.08 1-.06.33-.17.67-.34 1.04s-.43.99-.78 1.33c-.26.25-1.32.64-2.77 1.25-1.44.62-3.01 1.32-4.71 2.12-1.7.79-3.32 1.59-4.84 2.37-1.53.77-2.6 1.32-3.16 1.63-1.94 1.08-3.83 2.17-5.62 3.08-1.79.91-3.72 1.89-5.63 2.95-.63.35-1.27.75-1.9 1.15-.63.4-1.52.65-1.64.54-.1-.1-.1-.67-.13-.91s-.03-.5 0-.75.13-.56.3-.93.4-.87.69-1.48c.28-.57 1-1.57 2.12-3.01s2.45-3.1 3.98-4.99c1.53-1.9 3.19-3.93 4.98-6.08 1.79-2.15 3.52-4.22 5.19-6.18 1.67-1.96 3.17-3.69 4.5-5.19 1.32-1.5 2.33-2.62 3.03-3.37.57-.62 1.11-1.22 1.6-1.83.49-.61 1.69-1.84 1.69-1.84-.03-.05-4.88 1.85-7.7 3.17s-5.47 2.82-7.87 4.43c-.64.42-1.3.87-1.99 1.32-.69.45-2.08 1.24-2.08 1.24-.02-.02 0-.66-.17-.98-.17-.32-.11-.69.18-1.11zm64.413 51.308c0 .39-.024.763-.07 1.116-.05.354-.148.723-.294 1.102-.146.38-.352 1.042-.66 1.35-.2.205-1.12.46-2.338.854-1.22.394-2.548.852-3.983 1.38-1.438.532-2.805 1.078-4.095 1.62-1.29.544-2.197.944-2.67 1.177-1.636.814-3.238 1.678-4.748 2.394-1.52.72-3.16 1.53-4.76 2.47l-.08.05c9.51 28.12 7.13 43.91.65 52.72 21.68 2.67 37.44 10.72 37.44 20.25 0 5.32-4.9 10.17-12.99 13.89-9.74 4.48-24.08 7.32-40.1 7.32-24.19 0-44.59-6.46-50.99-15.3-.28-.82-.29-1.61-.1-2.34.66-2.67 3.99-4.44 7.02-3.37 2.11 8.14 21.3 14.52 44.69 14.52 16.29 0 30.55-3.1 38.42-7.72 2.63-1.55 4.54-3.27 5.58-5.1.57-1.03.88-2.09.88-3.17 0-7.38-14-13.58-33.04-15.43-.54.5-1.1.96-1.67 1.38-.32 2.39-.78 4.44-1.41 5.92l1.11 2.1c1.77 1.38 2.06 3.17 1.88 4.68.41-.2.89-.38 1.32-.41.44-2.19 2.98-.4 2.98-.4 1.09-.33 0 4.07 0 4.07-.54 2.2-1.95 2.83-3.39 2.83-.19.07-.4.07-.63-.03-1.71-.19-3.29-1.08-3.29-1.08-1.56 2.65-3.38-1.09-3.38-1.09-2.75-.47-2.08-8.72-2.08-8.72.24-1.49.46-2.96.65-4.41-3.11 1.23-6.28 1.87-9.13 2.18-4.7 3.76-14.79 9.41-14.79 9.41-4.92 6.72-9.75 2.38-9.75 2.38l-4.47-20.03-1.8-.15c-21.89-1.89-20.41 6.59-20.41 6.59.34 4.71-1.11 4.02-1.11 4.02l-14.16-18.63c-4.4-.71-1.79-3.93-1.79-3.93-4.65-1.26-1.81-3.47-1.81-3.47-2.76-.1-1.66-3.63-1.66-3.63 7.02-4.43 17.92 20.92 17.92 20.92 2.8-6.44 12.81-7.46 23.77-6.39l-2.11-9.47c-3.59 1.75-3.3-5.24-3.3-5.24 1.17-6.71 4.95-1.88 4.95-1.88 2.62-5.1 5.96 0 5.96 0 1.34-3.22 3.49-2.68 3.49-2.68 3.37.9 4.65 5.82 4.93 11.68.57-.79 1.18-1.52 1.77-2.19l2.84-13.99c-5.16 0-10.01-1.03-14.27-2.86-5.08 3.89-13.48 6.48-19.11 6.34h-.11c-5.55 0-10.04-4.41-10.04-9.86 0-5.44 4.5-9.86 10.04-9.86.1 0 .21.01.32.02-1.55-1.04-3.14-2.21-4.71-3.56-.44-.37-.87-.73-1.28-1.01-.42-.29-.84-.6-1.21-.94-.34-.32-.64-.65-.88-.92-.25-.28-.61-.7-.73-1.1-.1-.31-.09-.72-.11-.99-.03-.27-.02-.54-.04-.77-.04-.54-.03-1.01.07-1.24.11-.24.23-.56.4-.85.17-.28.46-.64.84-1.07.34-.38 1.22-.63 2.63-.93 1.41-.3 3.08-.69 5.01-1.34 1.21-.4 2.5-.9 3.84-1.5.18-.45.37-.9.58-1.35l-.01.01s-6.05-11.1 5.25-7.26H97c4.08-3.95 9.64-6.86 15.98-8.16.83-.9 1.753-1.88 1.753-1.88-.098-.19-6.79.29-10.42-.19s-7.03-1.14-9.98-1.94c-.815-.22-1.62-.47-2.373-.68-.75-.2-2.15-.58-2.37-.96-.13-.22-.15-1.17-.22-1.73-.04-.34.02-.7.04-.93l.03-.14c-.9.24-1.82.46-2.79.65-1.26.26-2.5.46-3.72.58-1.21.12-2.35.17-3.41.17-1.07-.01-2.03-.05-2.9-.11-.81-.06-1.42-.14-1.82-.19-2.84-.34-5.65-1.08-8.3-2.31-2.65-1.23-5.44-2.86-8.22-5.09-.52-.41-1.02-.81-1.51-1.16-.49-.35-.99-.72-1.43-1.13-.4-.36-.75-.74-1.04-1.06-.29-.31-.71-.77-.86-1.19-.1-.28-.1-.67-.13-.91s-.02-.5-.04-.7c-.05-.5-.03-.91.09-1.07.13-.16.28-.43.48-.63.2-.2.53-.43.99-.71.4-.25 1.44-.22 3.113-.21 1.67.01 3.65-.11 5.93-.56 2.275-.45 4.76-1.23 7.44-2.44 2.68-1.21 5.263-2.77 7.743-4.53 2.48-1.76 4.73-3.6 6.75-5.35 2.016-1.74 3.545-3.21 4.584-4.2.857-.81 1.73-1.7 2.59-2.67.868-.97 3.29-3.53 3.29-3.53-.07-.11-8.04 2.33-12.33 2.79-4.3.46-8.295.47-11.81.03-.97-.12-1.92-.29-2.81-.43-.892-.15-2.57-.45-2.81-.81-.12-.18-.19-1.06-.26-1.55-.05-.29.01-.62.04-.83.02-.2.1-.39.21-.55.38-1.37.57-2.05.95-3.43.98.05 2.13.3 3.46.66 1.38.38 2.61.57 3.63.62.4.02 1.39.12 2.94.14 1.56.02 3.43-.04 5.63-.32 2.19-.29 4.56-.78 7.1-1.52 2.54-.73 4.95-1.62 7.23-2.55 2.28-.93 4.31-1.84 6.1-2.65 1.79-.81 3.08-1.33 3.72-1.58.67-.26 1.32-.41 1.86-.29.55.12.91.45 1.08.98.18.53.16 1.26-.04 2.16-.2.91-.674 1.95-1.424 3.12-.938 1.04-1.4 1.55-2.34 2.58-1.44 1.56-3.23 3.58-5.364 5.97-2.137 2.4-4.43 4.94-6.88 7.55s-4.977 5.17-7.57 7.59c-2.6 2.43-5.09 4.55-7.486 6.38s-4.6 3.3-6.62 4.49c-2.02 1.19-4.93 2.66-4.93 2.66 0 .21 3.03 1.43 4.41 1.8 1.39.37 2.79.54 4.16.6 1.306.05 2.726.05 4.197-.1 1.47-.15 2.93-.39 4.37-.71 2.822-.63 5.48-1.47 7.96-2.35 2.48-.88 6.25-2.06 6.4-1.92.122.11-.088 1.49-.088 2.05 0 .52-.055 1.05-.17 1.57-.11.48-.28.97-.48 1.44-.204.48-.517 1.45-.994 1.91-.13.14-.41.29-.79.46.39.09 1.18.31 2.38.57 1.32.29 2.9.57 4.75.74 1.86.17 3.85.22 6 .09s4.18-.41 6.11-.78c1.92-.37 3.64-.79 5.15-1.17 1.51-.39 2.61-.61 3.14-.71.55-.1 1.11-.1 1.57.19.47.29.77.75.92 1.4.15.65.14 1.46-.03 2.43-.17.97-.57 2.02-1.2 3.13-.79.91-1.19 1.36-1.97 2.25-.53.58-1.12 1.25-1.76 1.97 4.14.11 8.07.89 11.64 2.2.12-.06.24-.12.37-.19.9-.47 1.98-1.04 3.25-1.7 1.27-.66 2.63-1.37 4.09-2.14s2.86-1.5 4.17-2.18c1.32-.68 2.49-1.28 3.51-1.78 1.02-.5 1.76-.79 2.12-.91.42-.15.83-.21 1.17-.07.34.14.57.42.69.84s.12.96 0 1.61c-.12.65-.4 1.39-.84 2.21l-1.39 1.76c-.78 1.01-1.76 2.32-2.96 3.94-1.13 1.54-2.34 3.22-3.63 5.03.02.01.03.03.05.04 8.06-3.51 9.72 1.34 9.72 1.34.48.99.57 2.04.42 3.08.2-.3.41-.6.62-.92 1.29-1.89 2.69-3.89 4.2-5.97 1.51-2.08 2.98-4.05 4.39-5.91 1.42-1.85 2.68-3.47 3.8-4.87 1.12-1.4 1.98-2.45 2.56-3.14.48-.57.94-1.14 1.35-1.72.42-.58 1.43-1.72 1.43-1.72-.04-.08-4.12 1.05-6.5 1.92-2.39.87-4.63 2.01-6.65 3.35-.53.35-1.09.73-1.68 1.12-.58.39-1.76 1.03-1.76 1.03-.03-.02 0-.74-.14-1.13-.15-.39-.1-.79.14-1.21.18-1.2.27-1.8.44-3.01.68-.68 1.41-1.21 2.19-1.57.78-.36 1.51-.79 2.13-1.13.22-.12.81-.41 1.71-.88.9-.46 1.99-.98 3.25-1.54 1.27-.55 2.63-1.11 4.09-1.64 1.46-.53 2.85-.97 4.17-1.33 1.31-.36 2.48-.62 3.51-.8 1.02-.18 1.75-.21 2.12-.21.41 0 .83.09 1.17.35.34.26.58.64.7 1.11.12.47.12 1.01 0 1.61-.12.61-.4 1.23-.84 1.89-.56.5-.83.75-1.39 1.26-.78.74-1.77 1.72-2.96 2.99-1.2 1.28-2.48 2.73-3.84 4.36-1.37 1.64-2.77 3.38-4.2 5.23-1.44 1.85-2.83 3.7-4.17 5.54-1.34 1.83-2.56 3.57-3.66 5.2-1.09 1.62-2.59 4.01-2.59 4.01.06.07 2.72-1.09 4.35-1.94 1.64-.85 3.27-1.67 4.9-2.45 1.63-.78 3.21-1.43 4.72-1.95 1.51-.52 3.61-.86 3.8-.66.13.13 0 1.09 0 1.53zm11.304-1.152c-.7 1-1.74 1.782-3.1 2.428-.73.348-1.31.488-1.75.396-.44-.093-.85-.237-1.24-.413-.81-.37-1.3-.93-1.42-1.736-.12-.8 0-1.67.37-2.58.36-.91.93-1.77 1.68-2.53.76-.76 1.6-1.26 2.52-1.47 1.35-.3 2.38-.07 3.03.59.66.66.99 1.5.99 2.47 0 .93-.35 1.87-1.05 2.87zm13.94 2.967c-.7.684-1.75 1.01-3.11 1.09-.73.045-1.31-.05-1.75-.317-.44-.267-.85-.575-1.24-.902-.81-.684-1.3-1.426-1.42-2.277-.12-.85 0-1.67.37-2.45.37-.78.93-1.418 1.68-1.884.76-.464 1.61-.63 2.53-.454 1.36.25 2.37.93 3.03 1.89.66.95.99 1.93.99 2.91 0 .92-.35 1.71-1.05 2.39z"/><path fill="#2E3191" d="M112.195 174.79c-.552 4.382-1.16 7.52-1.16 7.52 3.263-1.154 6.05-2.092 8.432-2.85-1.36-.38-2.253-.737-2.253-.737-2.982-1.66-3.84-2.36-5.02-3.933zm91.293-73.68c-.26-1.4-.832-2.768-1.704-4.03-1.42-2.06-3.62-3.465-6.198-3.958-.545-.104-1.096-.156-1.638-.156-1.556 0-3.088.438-4.426 1.262-.36.22-.7.465-1.02.728-.34-.558-.743-1.084-1.22-1.564-1.402-1.407-3.34-2.183-5.456-2.183-.714 0-1.455.08-2.207.25-1.85.41-3.52 1.37-4.96 2.82-.78.78-1.43 1.64-1.96 2.56-.21-.02-.43-.04-.65-.04-.9 0-2.07.18-3.16.43l.06-.09c1.39-1.79 2.77-3.51 4.09-5.09 1.28-1.54 2.51-2.94 3.64-4.15 1-1.07 1.92-2 2.71-2.74.53-.49.79-.73 1.32-1.21l.47-.42.35-.52c.8-1.2 1.33-2.43 1.58-3.68.27-1.35.25-2.64-.06-3.84-.4-1.54-1.25-2.85-2.46-3.8-1.18-.92-2.64-1.4-4.25-1.41-.62 0-1.64.05-2.97.28-1.26.22-2.59.52-3.96.9-.49.13-1 .29-1.5.44l-.54-.93c.3-.24.56-.48.75-.69.8-.84 1.35-1.89 1.61-3.04.13-.59.19-1.22.2-1.89l.01-.13c.05-.73.15-1.95-.41-3.27-.63-1.48-1.89-3.2-6.83-5.71-1.21-.61-2.45-1.15-3.7-1.59.93-.25 1.85-.42 2.74-.51.49-.05.98-.08 1.45-.08.63 0 1.25.05 1.86.13.88.13 1.73.34 2.46.61.56.22.78.31 1.32.56l.96.45 1.15.01c2.56 0 4.71-1.42 5.6-3.69.52-1.34.59-2.83.2-4.44-.26-1.05-.71-2.14-1.35-3.25-.55-.95-1.23-1.87-2.02-2.73-.92-1-1.87-1.92-2.92-2.83-1.52-1.31-3.1-2.51-4.71-3.55-1.86-1.2-3.78-2.23-5.71-3.04-1.87-.79-3.79-1.4-5.71-1.83-1.57-.35-3.09-.56-4.63-.65-.89-.05-1.67-.08-2.19-.08h-.26c-.37.01-.77.03-1.2.05-.41.02-.84.05-1.28.06-1.65.03-3.23.41-4.7 1.14l-1.41.69c-.72-.24-1.49-.37-2.3-.37-.39 0-.78.02-1.19.08-.68.09-1.78.28-3.21.7-1.43.4-2.97.92-4.56 1.53-1.65.63-3.42 1.38-5.25 2.22-1.65.76-3.31 1.58-5.06 2.5-1.37.71-2.72 1.45-4.01 2.18-.56.32-1.02.57-1.36.76-.15.09-.29.16-.4.23.32-.75.56-1.47.72-2.18.4-1.81.37-3.37-.08-4.78-.71-2.2-2.48-3.81-4.74-4.31-.48-.11-.99-.17-1.5-.17-1.03 0-2.1.22-3.26.68-.65.25-2.04.81-3.96 1.68-1.8.81-3.75 1.68-5.92 2.57-2.45.99-4.65 1.77-6.74 2.38-2.2.64-4.34 1.09-6.35 1.36-1.48.19-2.9.28-4.33.28h-.56c-1.03-.02-1.77-.07-2.26-.11-.23-.02-.41-.03-.53-.04-.51-.03-1.36-.12-2.56-.45-1.82-.5-3.25-.76-4.5-.83l-4.01-.22s-1.58 5.73-1.87 6.76c-.25.54-.41 1.12-.5 1.74-.06.4-.18 1.24-.03 2.24.02.09.03.21.05.33.12 1 .25 2.13 1.01 3.25 1.35 2 3.58 2.52 6.13 2.93l.39.07c.79.13 1.69.28 2.63.4 1.91.23 3.96.35 6.09.35 1.07 0 2.16-.03 3.28-.09-1.67 1.39-3.2 2.57-4.73 3.65-2.44 1.73-4.7 3.06-6.91 4.06-2.17.98-4.31 1.69-6.37 2.1-1.57.32-3.12.47-4.76.47l-1.24-.01c-1.39 0-3.11 0-4.67.95-.61.37-1.3.82-1.9 1.42-.49.47-.8.94-1 1.24-1.25 1.72-1.1 3.69-1.02 4.44v.04c.01.24.02.49.05.73v.05c.03.41.08 1.19.4 2.05.49 1.34 1.37 2.3 1.87 2.85.31.33.77.84 1.35 1.37.53.48 1.13.96 1.89 1.5.43.31.92.7 1.3 1 2.82 2.26 5.93 4.18 9.24 5.72 3.02 1.4 6.33 2.32 9.82 2.73l.18.02c.42.05 1.05.13 1.85.19 1.1.08 2.16.12 3.25.13h.08c1.25 0 2.53-.06 3.83-.19.72-.07 1.47-.17 2.27-.3 1.29 1.68 3.32 2.23 4.98 2.68.33.09.67.19 1.02.3.44.13.9.26 1.36.38 1.23.33 2.52.64 3.87.92-.41.3-.81.61-1.2.93-.96-.19-1.84-.28-2.67-.28-4.09 0-6.03 2.24-6.82 3.58-1.42 2.4-1.22 5.22-.56 7.59-1.73.57-3.23.91-4.34 1.15-2.02.43-3.94.94-5.32 2.5-.65.73-1.07 1.27-1.4 1.82-.3.49-.49.94-.6 1.21l-.03.07c-.5 1.05-.67 2.22-.54 3.73v.12c.01.24.02.49.04.68v.08c.01.41.05 1.18.32 2.03.4 1.25 1.14 2.2 1.76 2.9.28.31.69.78 1.21 1.26.16.15.33.29.49.43-3.22 2.72-5.27 6.77-5.27 11.27 0 8.18 6.74 14.84 15.03 14.84.06 0 .12-.01.18-.01h.38c1.3 0 2.67-.11 4.08-.31l-.07.38-.01.32c-.07 1.75.02 6.09 2.51 8.69.31.33.66.63 1.03.88H92c-6.51 0-11.65 1.07-15.39 3.21-.77-1.48-1.66-3.1-2.62-4.73C68.675 151.19 63.917 147 59.02 147c-1.555 0-3.08.44-4.42 1.29l-1.552.98-.55 1.76c-.29.94-1.07 4.11.58 6.86.01.3.05.61.11.92.203 1.01.7 2.203 1.81 3.28.05.592.18 1.2.41 1.8.43 1.14 1.52 2.96 4.15 3.98l13.88 18.26 1.08.52c.5.24 1.31.523 2.34.523.42 0 .84-.05 1.24-.15.06.89.24 1.75.52 2.59-.44.75-.78 1.56-1 2.42-.42 1.69-.35 3.47.215 5.14l.24.71.44.61c7.65 10.562 29.244 17.38 55.03 17.38 16.075 0 31.45-2.837 42.184-7.78 13.13-6.04 15.89-13.35 15.89-18.41 0-4.59-2.29-11.28-13.23-17.1-5.74-3.05-13.05-5.43-21.42-6.99 4.51-11.23 3.71-26.8-2.4-46.44l.94-.45c.97-.46 1.97-.97 2.92-1.46.64-.325 1.28-.654 1.92-.974.17-.08.75-.36 2.38-1.04 1.355-.57 2.627-1.07 3.89-1.54 1.27-.47 2.55-.91 3.79-1.31l.65-.2c1.55-.49 2.67-.84 3.7-1.87.37-.38.67-.78.91-1.18.65.28 1.32.5 1.99.64.42.09.86.14 1.31.14 1.15 0 2.33-.3 3.61-.91 1.45-.69 2.65-1.5 3.65-2.45.51.78 1.15 1.51 1.94 2.18.61.51 1.23.96 1.86 1.34 1.15.7 2.5 1.06 4.02 1.06.2 0 .41-.01.63-.02 1.7-.11 3.15-.48 4.39-1.13 0 0 0 .01.01.02 4.304-2.33 4.47-9.14 4.29-9.06zM140.47 53.947c1.528-1.336 3.188-2.66 4.978-3.902 1.787-1.24 3.518-2.282 5.192-3.134 1.672-.85 3.17-1.46 4.498-1.9 1.326-.44 2.345-.69 3.03-.82.567-.11 1.107-.22 1.6-.37.488-.15 1.688-.22 1.688-.22.03-.1-4.877-2.7-7.703-3.51-2.827-.81-5.468-.95-7.874-.6-.63.09-1.3.21-1.99.35s-2.04.39-2.08.34c-.04-.04 0-.66-.17-1.05-.18-.39-.12-.73.17-1.03.2-1.01.31-1.52.52-2.53.81-.39 1.67-.61 2.6-.63.92-.01 1.8-.09 2.5-.1.27 0 .96.01 2.03.07 1.06.07 2.35.22 3.85.55 1.5.33 3.11.82 4.84 1.55 1.73.73 3.37 1.62 4.93 2.63 1.55 1.01 2.94 2.08 4.15 3.13 1.21 1.05 2.04 1.93 2.51 2.43.49.54.98 1.16 1.38 1.86.4.7.67 1.35.82 1.94.14.59.14 1.07 0 1.43-.15.37-.48.54-1 .53-.66-.3-.99-.44-1.65-.69-.92-.34-2.09-.67-3.51-.88-1.42-.2-2.93-.25-4.55-.08-1.62.17-3.27.53-4.98 1.09-1.7.56-3.35 1.29-4.94 2.13-1.59.85-3.03 1.78-4.33 2.73-1.3.95-3.07 2.52-3.07 2.52.04.11 3.21.08 5.15.16 1.93.09 3.86.35 5.79.81 1.93.46 3.79 1.16 5.58 2.07 1.79.91 4.1 2.27 4.5 3.21.12.29-.01.97-.01 1.36 0 .35-.03.65-.09.91-.06.27-.17.49-.34.67-.18.18-.56.51-.78.51-.26 0-1.33-.76-2.77-1.54s-3.01-1.51-4.72-2.12c-1.7-.61-3.32-1.03-4.84-1.3-1.53-.28-2.6-.37-3.16-.39-1.92-.08-3.84.06-5.62.2-1.79.15-3.72.45-5.63 1.01-.63.18-1.27.44-1.91.71-.64.27-1.51.39-1.65.24-.11-.12-.1-.68-.13-.93s-.03-.5 0-.75.13-.54.3-.88c.17-.33.4-.8.69-1.35.27-.52.99-1.39 2.12-2.55 1.12-1.16 2.45-2.44 3.98-3.77zm-2.483 28.73c1.24-.41 2.48-.817 3.717-1.202 1.234-.385 2.415-.704 3.535-.954 1.12-.24 2.67-.36 2.74-.26.04.06-.11.56-.16.79-.04.2-.1.39-.17.57-.07.18-.18.37-.32.56-.15.19-.36.52-.61.68-.18.12-.84.21-1.74.4-.91.18-1.89.4-2.96.66s-2.1.53-3.07.79c-.97.27-1.65.46-2.01.57-1.25.39-2.46.8-3.6 1.11-1.14.32-2.36.65-3.58 1.04-.4.13-.82.28-1.23.44-.42.16-.96.2-1.01.12-.05-.06.01-.39.03-.54.01-.14.04-.29.09-.43.04-.14.13-.3.28-.49.14-.19.33-.45.57-.77.22-.29.75-.78 1.57-1.48.81-.69 1.77-1.49 2.87-2.4 1.1-.91 2.29-1.88 3.57-2.91 1.28-1.02 2.52-2.01 3.71-2.94 1.19-.93 2.26-1.75 3.2-2.45.93-.7 1.65-1.23 2.13-1.58.4-.28.78-.57 1.13-.86.35-.29 1.18-.85 1.18-.85-.02-.03-3.02.49-4.8.92-1.78.42-3.48.98-5.05 1.62-.42.17-.85.35-1.3.53-.45.18-1.34.47-1.34.47-.02-.01.07-.38.01-.58-.06-.2.01-.41.23-.61.25-.61.37-.91.62-1.52.55-.33 1.12-.57 1.7-.74.58-.16 1.14-.37 1.61-.53.17-.06.62-.2 1.3-.42.68-.22 1.5-.48 2.46-.75.95-.28 1.98-.55 3.06-.81 1.09-.26 2.11-.46 3.08-.62.96-.16 1.81-.26 2.55-.32.74-.05 1.25-.04 1.51-.02.29.02.57.09.78.24.21.15.33.36.36.6.04.25-.02.52-.17.83-.15.3-.41.61-.78.92-.44.22-.66.34-1.1.58-.62.34-1.42.8-2.39 1.42-.97.62-2.03 1.33-3.16 2.15-1.14.82-2.31 1.69-3.52 2.63-1.22.93-2.39 1.87-3.53 2.79-1.14.92-2.18 1.8-3.12 2.6-.95.81-2.25 1.99-2.25 1.99.02.03 2.03-.49 3.27-.91zm-30.025-30.59l.52-2.75c.807-.735 1.673-1.342 2.597-1.816.92-.47 1.77-1 2.5-1.44.27-.16.96-.54 2.03-1.14 1.06-.6 2.35-1.31 3.85-2.09s3.11-1.59 4.84-2.39 3.37-1.5 4.93-2.09c1.56-.59 2.94-1.05 4.15-1.4 1.21-.34 2.07-.49 2.51-.55.49-.06.98-.05 1.38.14.4.19.67.49.82.89.14.4.14.88 0 1.44-.15.56-.48 1.15-1 1.8-.66.53-.99.79-1.64 1.34-.93.78-2.1 1.83-3.51 3.19-1.42 1.37-2.93 2.92-4.55 4.66-1.62 1.75-3.28 3.61-4.98 5.58-1.7 1.97-3.35 3.94-4.93 5.87-1.59 1.93-3.03 3.75-4.33 5.42-1.3 1.68-3.07 4.09-3.07 4.09.04.05 3.21-1.51 5.14-2.62 1.93-1.11 3.86-2.21 5.8-3.28 1.93-1.07 3.79-2 5.58-2.8 1.79-.79 4.33-1.52 4.5-1.38.1.09 0 .98 0 1.37 0 .35-.03.69-.09 1.01-.06.33-.17.67-.35 1.04-.18.37-.43.99-.78 1.33-.27.25-1.33.64-2.77 1.26s-3.02 1.32-4.72 2.12c-1.7.8-3.32 1.6-4.85 2.37-1.52.77-2.59 1.32-3.16 1.63-1.94 1.08-3.83 2.17-5.62 3.08-1.79.92-3.72 1.9-5.62 2.95-.63.35-1.27.76-1.91 1.16-.64.4-1.53.65-1.64.54-.11-.09-.1-.66-.13-.91s-.03-.49 0-.75c.03-.25.13-.56.3-.92.17-.36.4-.87.69-1.47.27-.57.99-1.57 2.12-3.01 1.12-1.43 2.45-3.09 3.98-4.99 1.52-1.89 3.18-3.92 4.97-6.07 1.78-2.15 3.52-4.22 5.19-6.18 1.67-1.96 3.17-3.69 4.5-5.19 1.32-1.5 2.33-2.62 3.02-3.36.57-.61 1.11-1.22 1.6-1.83.49-.61 1.69-1.83 1.69-1.83-.03-.05-4.88 1.85-7.7 3.17-2.83 1.31-5.47 2.82-7.87 4.43-.64.42-1.3.87-1.99 1.32-.69.46-2.08 1.24-2.08 1.24-.03-.02 0-.66-.18-.98-.17-.32-.11-.69.17-1.1zm64.414 51.308c0 .39-.025.763-.072 1.116-.05.36-.147.73-.292 1.11-.146.38-.353 1.04-.66 1.35-.202.21-1.12.46-2.34.86-1.218.4-2.547.85-3.982 1.38-1.438.53-2.804 1.08-4.094 1.62-1.29.55-2.198.94-2.67 1.18-1.636.82-3.24 1.68-4.748 2.4-1.513.72-3.153 1.53-4.752 2.47l-.08.05c9.507 28.11 7.13 43.91.655 52.71 21.68 2.67 37.44 10.72 37.44 20.25 0 5.32-4.9 10.17-12.98 13.89-9.73 4.48-24.08 7.32-40.1 7.32-24.19 0-44.58-6.46-50.98-15.3-.27-.82-.28-1.61-.1-2.34.67-2.67 3.99-4.44 7.02-3.37 2.11 8.15 21.31 14.52 44.69 14.52 16.3 0 30.56-3.09 38.43-7.72h.01c2.63-1.55 4.55-3.27 5.58-5.11.58-1.02.88-2.08.88-3.17 0-7.37-14-13.57-33.04-15.43-.54.5-1.1.96-1.67 1.38-.32 2.39-.77 4.44-1.41 5.92l1.12 2.1c1.77 1.38 2.06 3.17 1.88 4.68.42-.2.89-.38 1.32-.41.44-2.19 2.98-.39 2.98-.39 1.09-.34 0 4.07 0 4.07-.53 2.2-1.95 2.83-3.39 2.83-.18.07-.39.06-.63-.03-1.71-.19-3.29-1.08-3.29-1.08-1.55 2.65-3.37-1.09-3.37-1.09-2.75-.47-2.07-8.72-2.07-8.72.25-1.49.46-2.96.66-4.41-3.11 1.22-6.27 1.86-9.13 2.17-4.7 3.76-14.79 9.4-14.79 9.4-4.92 6.72-9.75 2.39-9.75 2.39l-4.46-20.03-1.8-.15c-21.89-1.89-20.4 6.59-20.4 6.59.34 4.71-1.1 4.01-1.1 4.01L62.7 163.74c-4.392-.707-1.79-3.924-1.79-3.924-4.644-1.268-1.81-3.47-1.81-3.47-2.756-.1-1.66-3.636-1.66-3.636 7.024-4.427 17.92 20.922 17.92 20.922 2.8-6.437 12.81-7.46 23.77-6.39l-2.11-9.47c-3.59 1.75-3.29-5.24-3.29-5.24 1.17-6.71 4.95-1.884 4.95-1.884 2.63-5.11 5.97 0 5.97 0 1.34-3.23 3.49-2.68 3.49-2.68 3.37.89 4.652 5.817 4.93 11.67.573-.793 1.18-1.525 1.77-2.19l2.84-13.99c-5.155 0-10.007-1.033-14.27-2.86-5.08 3.89-13.48 6.48-19.106 6.338-.04 0-.073.01-.11.01-5.55 0-10.046-4.413-10.046-9.86 0-5.444 4.5-9.86 10.048-9.86.107 0 .21.01.32.01-1.552-1.04-3.134-2.21-4.704-3.554-.44-.376-.865-.726-1.28-1.015-.413-.29-.84-.603-1.204-.94-.34-.313-.632-.646-.88-.92-.24-.28-.6-.697-.73-1.097-.1-.31-.08-.724-.11-.993-.02-.27-.012-.546-.03-.77-.046-.55-.032-1.02.07-1.24.11-.24.23-.57.4-.85.17-.285.456-.64.84-1.073.34-.38 1.22-.638 2.63-.937 1.41-.293 3.08-.69 5.006-1.333 1.21-.404 2.494-.904 3.84-1.498.17-.45.37-.9.575-1.35l-.01.01s-6.09-11.07 5.21-7.23c4.08-3.95 9.64-6.86 15.98-8.16.83-.9 1.76-1.884 1.76-1.884-.1-.2-6.79.283-10.42-.196-3.63-.48-7.03-1.14-9.98-1.94-.82-.22-1.62-.474-2.37-.68-.76-.204-2.15-.585-2.38-.96-.13-.22-.16-1.17-.22-1.734-.04-.343.01-.7.04-.93l.03-.14c-.9.237-1.83.46-2.8.654-1.26.258-2.51.46-3.72.58-1.21.12-2.35.17-3.42.17s-2.04-.044-2.9-.11c-.81-.056-1.42-.14-1.82-.185-2.84-.34-5.66-1.08-8.31-2.3-2.66-1.23-5.44-2.86-8.22-5.09-.52-.41-1.03-.81-1.52-1.16-.49-.35-.99-.72-1.43-1.12-.41-.37-.75-.75-1.04-1.06-.29-.31-.71-.76-.86-1.19-.11-.28-.1-.67-.13-.91s-.03-.5-.05-.69c-.05-.51-.03-.92.09-1.07.12-.16.27-.43.47-.63.2-.2.54-.43 1-.71.4-.24 1.44-.22 3.11-.21 1.67.01 3.65-.11 5.93-.56 2.27-.45 4.75-1.23 7.44-2.44 2.68-1.21 5.26-2.77 7.74-4.53 2.48-1.76 4.73-3.6 6.75-5.35 2.02-1.75 3.55-3.22 4.59-4.2.85-.82 1.73-1.71 2.59-2.68.86-.97 3.29-3.53 3.29-3.53-.07-.11-8.04 2.33-12.33 2.79-4.3.46-8.3.47-11.81.04-.97-.12-1.92-.29-2.81-.43-.89-.15-2.57-.45-2.81-.81-.12-.18-.19-1.06-.26-1.55-.05-.29.01-.62.04-.82.03-.21.1-.39.21-.55.38-1.37.57-2.05.95-3.43.98.05 2.13.3 3.46.66 1.38.38 2.6.57 3.63.62.4.02 1.38.12 2.94.14 1.56.03 3.43-.03 5.63-.32 2.19-.28 4.55-.78 7.09-1.51s4.95-1.62 7.23-2.55c2.27-.92 4.31-1.84 6.1-2.65 1.79-.81 3.08-1.33 3.72-1.58.67-.26 1.31-.41 1.86-.29.54.12.9.45 1.08.99.17.53.16 1.26-.05 2.16-.2.91-.67 1.95-1.42 3.12-.93 1.04-1.4 1.56-2.34 2.58-1.45 1.56-3.24 3.57-5.37 5.97-2.14 2.4-4.43 4.94-6.88 7.55s-4.98 5.17-7.58 7.59c-2.59 2.42-5.09 4.55-7.48 6.38-2.39 1.83-4.6 3.3-6.62 4.49-2.02 1.19-4.93 2.67-4.93 2.67 0 .21 3.03 1.43 4.41 1.8s2.79.55 4.15.61c1.3.06 2.72.05 4.19-.1 1.47-.14 2.93-.39 4.37-.71 2.83-.62 5.48-1.46 7.96-2.34 2.48-.88 6.25-2.05 6.4-1.92.13.11-.08 1.49-.08 2.05 0 .52-.05 1.06-.17 1.57-.11.48-.27.97-.48 1.44-.2.48-.51 1.45-.99 1.91-.14.14-.42.29-.79.46.38.09 1.18.31 2.38.57 1.31.29 2.9.57 4.75.74 1.85.17 3.85.22 5.99.09s4.18-.41 6.1-.78c1.92-.37 3.64-.79 5.15-1.18 1.51-.39 2.61-.61 3.14-.71.55-.1 1.11-.09 1.57.19.46.29.77.75.91 1.4s.13 1.46-.04 2.43c-.17.97-.57 2.02-1.21 3.13-.79.91-1.19 1.36-1.97 2.25-.52.58-1.12 1.25-1.75 1.98 4.14.11 8.07.89 11.63 2.2.12-.06.23-.12.36-.19.9-.47 1.99-1.04 3.26-1.7 1.26-.66 2.63-1.37 4.09-2.14s2.85-1.5 4.17-2.18c1.31-.68 2.48-1.27 3.51-1.77 1.02-.5 1.76-.78 2.12-.91.42-.14.83-.21 1.17-.07.34.14.57.42.69.85.12.42.12.96 0 1.61-.12.65-.4 1.38-.84 2.2-.55.7-.83 1.05-1.39 1.76-.78 1.01-1.77 2.32-2.96 3.94-1.13 1.53-2.35 3.21-3.63 5.03l.04.04c8.06-3.51 9.72 1.34 9.72 1.34.48.99.57 2.03.42 3.08l.62-.92c1.29-1.89 2.69-3.89 4.2-5.97 1.51-2.09 2.97-4.05 4.39-5.91 1.41-1.85 2.68-3.47 3.8-4.87 1.12-1.4 1.97-2.44 2.56-3.14.48-.56.93-1.14 1.35-1.72.41-.58 1.43-1.71 1.43-1.71-.05-.07-4.12 1.06-6.51 1.93-2.39.87-4.62 2.01-6.65 3.35-.54.36-1.1.74-1.68 1.13-.59.39-1.76 1.04-1.76 1.04-.04-.02 0-.74-.15-1.13-.15-.39-.1-.79.14-1.21.17-1.21.26-1.8.44-3.01.68-.68 1.41-1.21 2.19-1.57.78-.36 1.5-.8 2.12-1.13.22-.12.81-.42 1.72-.88.9-.46 1.98-.98 3.25-1.54 1.27-.55 2.63-1.11 4.09-1.64 1.46-.53 2.85-.97 4.17-1.33 1.31-.36 2.48-.61 3.51-.79 1.02-.18 1.76-.2 2.12-.2.41 0 .83.09 1.17.35.34.27.57.64.69 1.11.12.47.12 1.01 0 1.61-.13.61-.41 1.23-.85 1.89-.55.5-.83.75-1.39 1.26-.78.73-1.76 1.71-2.96 2.99-1.19 1.27-2.47 2.72-3.84 4.35-1.36 1.64-2.76 3.38-4.2 5.23-1.44 1.85-2.82 3.7-4.16 5.54-1.34 1.84-2.56 3.58-3.66 5.2s-2.6 4.02-2.6 4.02c.05.07 2.72-1.09 4.35-1.94 1.63-.85 3.27-1.67 4.9-2.45 1.63-.78 3.2-1.43 4.71-1.96 1.51-.52 3.61-.85 3.8-.65.12.13 0 1.1 0 1.53zm11.303-1.152c-.71 1-1.75 1.782-3.11 2.428-.73.35-1.32.49-1.76.4-.44-.09-.86-.23-1.24-.41-.81-.37-1.31-.93-1.43-1.73-.12-.8 0-1.67.36-2.59.36-.91.92-1.76 1.68-2.53.76-.76 1.6-1.26 2.52-1.47 1.35-.3 2.37-.07 3.03.59.65.66.98 1.49.98 2.47 0 .93-.35 1.88-1.06 2.87zm13.93 2.967c-.71.685-1.75 1.01-3.11 1.092-.73.044-1.32-.05-1.75-.318s-.86-.575-1.25-.902c-.81-.684-1.31-1.425-1.43-2.277-.12-.85 0-1.67.36-2.45.36-.78.92-1.418 1.68-1.884.75-.46 1.6-.62 2.52-.45 1.35.26 2.37.94 3.03 1.9.66.96.98 1.94.98 2.91 0 .93-.35 1.71-1.06 2.39z"/><path fill="#2E3191" d="M140.78 95.85c-.03-.043-2.9 1.274-5.235 2.34.857.5 1.684 1.037 2.47 1.607.476-.64.93-1.29 1.343-1.943.413-.658 1.423-2.004 1.423-2.004z"/><path fill="#E3BD71" d="M118.655 93.512c.636-.724 1.228-1.394 1.753-1.976.788-.888 1.185-1.336 1.975-2.248.633-1.116 1.033-2.163 1.205-3.132.17-.97.182-1.78.037-2.428s-.45-1.113-.915-1.4c-.46-.286-1.022-.292-1.57-.188-.532.1-1.635.326-3.144.714-1.512.388-3.23.808-5.153 1.175-1.926.36-3.96.65-6.104.78-2.15.13-4.15.08-6-.09-1.86-.17-3.44-.45-4.75-.74-1.2-.26-2-.48-2.38-.57-.76.34-1.93.76-3.28 1.23-1.18.4-2.45.79-3.79 1.14l-.03.14c-.03.22-.08.58-.04.93.06.56.08 1.51.22 1.73.22.37 1.62.75 2.37.96.75.2 1.55.45 2.37.67 2.95.8 6.35 1.46 9.98 1.93 3.63.48 10.32-.01 10.42.19 0 0-.93.98-1.76 1.88 2.41-.5 4.93-.76 7.53-.76.34 0 .68.01 1.03.02zM89.69 128.84c-1.776-3.16-2.775-6.67-2.775-10.372 0-2.608.494-5.122 1.406-7.485-1.34.594-2.63 1.094-3.84 1.497-1.92.642-3.59 1.04-5 1.338-1.41.3-2.29.55-2.63.934-.38.434-.67.788-.84 1.07-.17.286-.28.61-.4.853-.1.22-.11.692-.07 1.24.02.224.01.5.04.77.03.268.01.685.11.993.13.4.49.82.73 1.097.25.274.54.607.88.922.37.337.79.653 1.21.943.42.29.84.64 1.28 1.015 1.57 1.346 3.16 2.513 4.71 3.557 1.88.06 3.63.622 5.11 1.56.04.02.08.045.12.068zm51.09-32.99s-1.01 1.346-1.423 2.004c-.412.655-.867 1.302-1.342 1.943 1.003.725 1.947 1.503 2.826 2.33 1.29-1.812 2.5-3.494 3.64-5.03 1.2-1.62 2.18-2.93 2.96-3.933l1.39-1.764c.44-.82.72-1.55.84-2.203.12-.65.12-1.19 0-1.614-.12-.423-.35-.708-.69-.844-.34-.14-.74-.08-1.17.07-.36.12-1.09.41-2.11.91-1.02.5-2.19 1.09-3.51 1.77-1.31.68-2.71 1.41-4.17 2.18-1.46.77-2.82 1.48-4.09 2.14-1.27.66-2.35 1.22-3.25 1.7l-.36.19c1.86.68 3.62 1.51 5.26 2.47 2.34-1.07 5.21-2.38 5.24-2.34zm27.793 6.666c-1.51.525-3.082 1.177-4.714 1.955-1.64.78-3.27 1.6-4.9 2.45-1.64.85-4.3 2.01-4.35 1.95 0 0 1.49-2.39 2.59-4.01 1.09-1.62 2.31-3.36 3.65-5.2 1.34-1.83 2.73-3.69 4.16-5.54 1.43-1.85 2.84-3.59 4.2-5.22 1.36-1.63 2.64-3.08 3.83-4.36 1.19-1.27 2.18-2.25 2.96-2.99.55-.51.83-.76 1.39-1.26.44-.65.72-1.28.84-1.88.12-.6.12-1.14 0-1.61-.13-.47-.36-.84-.7-1.11-.34-.26-.76-.35-1.17-.35-.37 0-1.1.03-2.12.21-1.03.18-2.2.44-3.51.8-1.32.36-2.71.81-4.17 1.34s-2.83 1.09-4.09 1.64c-1.27.56-2.36 1.08-3.26 1.54-.91.46-1.5.76-1.72.88-.62.34-1.34.78-2.12 1.14s-1.51.89-2.19 1.58c-.18 1.21-.27 1.8-.44 3.01-.25.42-.3.83-.15 1.22.14.39.11 1.11.14 1.13 0 0 1.17-.64 1.76-1.03.58-.39 1.14-.77 1.68-1.12 2.02-1.34 4.26-2.47 6.65-3.34 2.39-.87 6.46-2 6.51-1.92 0 0-1.02 1.13-1.43 1.72-.42.58-.88 1.15-1.36 1.72-.59.69-1.44 1.74-2.56 3.14s-2.39 3.02-3.8 4.88c-1.41 1.86-2.88 3.82-4.39 5.91-1.51 2.09-2.91 4.08-4.2 5.97l-.63.92c-.36 2.36-2 4.72-3.44 6.4.18.67.34 1.35.45 2.04.22.64.43 1.26.64 1.88l.08-.05c1.6-.94 3.24-1.75 4.75-2.47 1.51-.72 3.11-1.58 4.75-2.4.47-.23 1.37-.63 2.66-1.18 1.29-.54 2.66-1.09 4.1-1.62 1.44-.53 2.76-.99 3.98-1.38 1.22-.39 2.13-.65 2.34-.85.3-.31.51-.97.66-1.35.14-.38.24-.75.29-1.1.05-.35.07-.72.07-1.11 0-.44.13-1.4 0-1.54-.19-.2-2.29.13-3.8.66zm12.144-6.19c-.922.21-1.767.712-2.523 1.474-.756.762-1.315 1.614-1.68 2.53-.368.918-.49 1.783-.367 2.588.123.806.618 1.368 1.427 1.736.387.175.805.32 1.242.413.44.092 1.026-.048 1.755-.396 1.36-.64 2.4-1.42 3.11-2.42s1.06-1.94 1.06-2.87c0-.97-.33-1.8-.98-2.46-.65-.66-1.68-.88-3.03-.58zm13.933 1.69c-.918-.174-1.767-.01-2.52.455-.757.47-1.318 1.11-1.684 1.89-.365.78-.486 1.6-.365 2.45.13.86.62 1.6 1.43 2.28.39.33.81.64 1.25.9s1.03.36 1.76.32c1.36-.08 2.4-.4 3.11-1.09.71-.68 1.06-1.46 1.06-2.39 0-.97-.32-1.96-.98-2.91-.66-.95-1.67-1.63-3.03-1.89z"/><path fill="#F2C652" d="M93.612 83.422c.375-.17.655-.325.792-.457.478-.464.79-1.436.993-1.912.202-.476.367-.958.478-1.438.118-.52.17-1.05.17-1.57 0-.562.21-1.94.087-2.05-.154-.137-3.922 1.04-6.402 1.92-2.48.88-5.138 1.718-7.963 2.345-1.44.32-2.898.562-4.37.71-1.47.146-2.89.152-4.197.097-1.363-.058-2.77-.236-4.153-.604-1.384-.368-4.414-1.586-4.412-1.793 0 0 2.913-1.48 4.932-2.668 2.02-1.188 4.225-2.655 6.62-4.485 2.392-1.83 4.887-3.956 7.484-6.38 2.6-2.422 5.12-4.984 7.58-7.588C93.7 54.94 96 52.4 98.13 50c2.13-2.4 3.92-4.41 5.367-5.97.935-1.03 1.4-1.54 2.336-2.58.75-1.173 1.225-2.216 1.427-3.125.203-.907.217-1.63.044-2.165-.17-.533-.533-.86-1.08-.983-.546-.124-1.19.03-1.86.29-.64.25-1.933.772-3.72 1.58-1.79.81-3.823 1.724-6.1 2.65-2.28.93-4.69 1.813-7.227 2.547-2.54.734-4.903 1.23-7.096 1.513-2.19.287-4.06.35-5.62.323-1.55-.03-2.54-.125-2.94-.144-1.02-.05-2.25-.242-3.63-.62-1.33-.362-2.48-.605-3.46-.66-.38 1.377-.57 2.064-.95 3.427-.12.165-.19.35-.22.553-.03.205-.08.535-.04.825.08.49.14 1.37.26 1.55.25.37 1.92.66 2.81.81.89.15 1.84.31 2.81.43 3.52.44 7.51.43 11.81-.03 4.3-.46 12.27-2.9 12.34-2.79 0 0-2.42 2.57-3.29 3.53-.86.97-1.73 1.86-2.59 2.68-1.04.99-2.57 2.45-4.58 4.2-2.02 1.75-4.27 3.59-6.75 5.35-2.48 1.77-5.06 3.33-7.74 4.54-2.68 1.21-5.16 1.99-7.44 2.44-2.28.46-4.25.57-5.93.56-1.67-.01-2.71-.03-3.11.22-.46.28-.79.51-.99.71-.2.2-.35.47-.47.64-.12.16-.14.57-.08 1.08.02.2.02.45.04.7.03.25.03.64.13.92.16.43.58.88.87 1.19.29.31.64.69 1.04 1.06.44.4.94.78 1.43 1.13.49.35 1 .75 1.51 1.16 2.78 2.23 5.57 3.86 8.22 5.09 2.66 1.23 5.47 1.97 8.31 2.31.4.05 1.01.13 1.82.19.87.06 1.83.11 2.9.11 1.06 0 2.21-.05 3.42-.17s2.46-.32 3.72-.58c.97-.19 1.89-.41 2.79-.65 1.34-.35 2.61-.73 3.79-1.14 1.35-.47 2.52-.88 3.28-1.23zm14.35-29.252s1.385-.784 2.076-1.243c.693-.458 1.356-.903 1.992-1.328 2.405-1.61 5.047-3.12 7.873-4.43 2.825-1.32 7.673-3.22 7.704-3.17 0 0-1.2 1.23-1.688 1.83-.5.61-1.04 1.21-1.61 1.83-.69.74-1.7 1.87-3.03 3.37-1.33 1.5-2.83 3.23-4.5 5.19-1.68 1.96-3.41 4.03-5.2 6.18-1.79 2.15-3.45 4.18-4.98 6.08-1.53 1.89-2.86 3.55-3.98 4.99-1.13 1.43-1.85 2.43-2.13 3-.3.6-.52 1.11-.69 1.47-.18.36-.28.67-.31.92-.03.25-.03.5 0 .75s.03.81.13.91c.12.11 1.01-.14 1.64-.54s1.27-.8 1.9-1.15c1.91-1.06 3.84-2.04 5.62-2.95 1.78-.92 3.67-2 5.62-3.08.56-.32 1.63-.86 3.16-1.63 1.52-.78 3.14-1.58 4.84-2.37 1.7-.8 3.27-1.51 4.71-2.12 1.44-.62 2.5-1.01 2.77-1.26.35-.34.6-.96.77-1.33.17-.37.29-.71.35-1.04.06-.33.08-.66.08-1.01 0-.39.1-1.28 0-1.37-.17-.15-2.71.58-4.5 1.38-1.79.8-3.65 1.73-5.58 2.8-1.93 1.06-3.86 2.17-5.8 3.28-1.93 1.11-5.11 2.67-5.15 2.62 0 0 1.77-2.42 3.07-4.09 1.3-1.67 2.74-3.48 4.33-5.42 1.58-1.93 3.23-3.9 4.93-5.87 1.7-1.97 3.36-3.84 4.97-5.58 1.61-1.75 3.13-3.3 4.54-4.66 1.41-1.36 2.58-2.41 3.5-3.19.65-.55.98-.82 1.64-1.35.52-.65.85-1.24 1-1.8.14-.56.14-1.03 0-1.44-.15-.4-.42-.7-.82-.89-.41-.19-.89-.2-1.39-.14-.44.06-1.3.2-2.52.55-1.21.35-2.6.81-4.16 1.4-1.56.59-3.2 1.29-4.93 2.09-1.73.8-3.35 1.61-4.85 2.39-1.5.78-2.79 1.49-3.85 2.1-1.07.61-1.77.99-2.04 1.14-.74.44-1.59.97-2.51 1.45-.93.47-1.79 1.08-2.6 1.81l-.52 2.75c-.29.41-.35.78-.17 1.1.17.32.14.96.17.98zm28.528 3.554c-1.125 1.16-1.846 2.03-2.12 2.55-.293.55-.52 1.017-.694 1.353-.172.338-.27.63-.3.877-.03.248-.03.5 0 .75.028.25.014.81.128.932.136.146 1.01.03 1.646-.24.634-.27 1.278-.522 1.904-.705 1.91-.55 3.837-.85 5.625-1 1.78-.14 3.7-.28 5.62-.2.56.02 1.63.12 3.16.4 1.52.28 3.14.7 4.84 1.31 1.7.62 3.27 1.34 4.71 2.13 1.44.78 2.51 1.54 2.77 1.54.22 0 .6-.32.77-.5.17-.18.28-.4.34-.66s.09-.56.09-.91c0-.39.12-1.07 0-1.36-.4-.93-2.72-2.3-4.5-3.21-1.79-.9-3.65-1.6-5.58-2.06-1.94-.46-3.87-.72-5.8-.8-1.94-.08-5.11-.06-5.15-.17 0 0 1.77-1.57 3.07-2.52 1.29-.95 2.74-1.88 4.32-2.72 1.59-.84 3.23-1.57 4.93-2.13 1.7-.56 3.36-.92 4.97-1.09 1.61-.16 3.12-.12 4.54.09 1.41.21 2.58.54 3.5.88.66.25.98.39 1.64.7.52.01.85-.16 1-.53.14-.37.14-.84 0-1.43s-.42-1.24-.82-1.93c-.41-.7-.89-1.32-1.39-1.86-.47-.5-1.3-1.38-2.51-2.43-1.21-1.05-2.6-2.12-4.15-3.13-1.56-1.01-3.21-1.9-4.94-2.63-1.73-.73-3.35-1.22-4.85-1.55-1.5-.33-2.78-.48-3.85-.54-1.06-.06-1.76-.08-2.03-.07-.71.02-1.59.09-2.51.11-.92.02-1.79.23-2.6.63-.2 1.01-.31 1.52-.52 2.54-.29.29-.34.64-.17 1.03s.13 1.01.17 1.05c.05.05 1.39-.2 2.08-.34s1.36-.25 1.99-.35c2.41-.35 5.05-.21 7.88.61s7.73 3.42 7.7 3.52c0 0-1.2.07-1.69.22s-1.03.27-1.6.38c-.69.13-1.71.38-3.03.83-1.33.45-2.83 1.06-4.5 1.91-1.68.86-3.41 1.9-5.19 3.14-1.79 1.25-3.45 2.57-4.98 3.91-1.53 1.34-2.86 2.62-3.98 3.78z"/><path fill="#E6E6E6" d="M118.716 153.736c2.055-2.783 1.487-7.383.808-10.347-.628.03-1.258.05-1.896.05l-2.84 13.99c2.04-2.28 3.928-3.7 3.928-3.7zm29.654 17.116c-.7.83-1.436 1.59-2.204 2.282 19.038 1.855 33.04 8.06 33.04 15.434 0 1.085-.306 2.145-.883 3.17 9.522-12.96-22.71-19.58-29.952-20.886z"/><path fill="none" d="M172.738 196.848l.006-.004"/><path fill="#E6E6E6" d="M82.607 193.43c-.183.73-.177 1.52.1 2.343 6.4 8.84 26.796 15.305 50.987 15.305 16.017 0 30.366-2.837 40.1-7.317-2.006.61-59.16 17.52-91.187-10.33z"/><path fill="#FFF" d="M75.316 173.615s-10.897-25.35-17.92-20.923c0 0-1.097 3.536 1.66 3.634 0 0-2.834 2.204 1.81 3.47 0 0-2.6 3.217 1.792 3.924l14.16 18.63s1.446.69 1.106-4.013c0 0-1.485-8.485 20.404-6.593l1.8.156-1.04-4.677c-10.963-1.07-20.975-.044-23.772 6.392zm-15.66-17.456s3.518-1.88 4.06 2.44c0 0-.755-3.16-4.06-2.44zm1.67 3.54h-.048l.048-.01c4.024-.88 4.727 4.96 4.727 4.96-1.448-5.18-4.33-5.01-4.727-4.97z"/><path fill="#CCC" d="M61.326 159.706l-.048.006c.017-.002.032-.002.048-.006z"/><path fill="#CCC" d="M61.326 159.706c.396-.047 3.28-.212 4.727 4.966 0 0-.703-5.84-4.727-4.966zm2.39-1.106c-.542-4.313-4.06-2.44-4.06-2.44 3.305-.72 4.06 2.44 4.06 2.44zm82.634 34.67c.233.1.443.104.632.036-.21 0-.423-.013-.633-.036zm1.378-3.105c-.407-1.624-.47-2.684-.333-3.363-.43.033-.905.212-1.32.416-.212 1.728-1.043 3.103-1.043 3.103 1.663 2.81 2.696-.15 2.696-.15z"/><path fill="#D0D2D3" d="M89.5 108.433c-3.386-6.366.27-3.06 1.278-2.09.958-1.398 2.074-2.714 3.332-3.93l-.004-.002c-11.298-3.84-5.214 7.23-5.214 7.23h.007c.18-.4.39-.8.6-1.2z"/><path fill="#919496" d="M89.5 108.433l.002.002c.387-.716.812-1.415 1.276-2.093-1.008-.967-4.664-4.275-1.277 2.09zm54.296-3.027c.995 1.316 1.847 2.71 2.532 4.174 2.492-4.107-.17-4.48-2.532-4.174z"/><path fill="#FFF" d="M147.585 112.992c-1.246 1.446-2.346 2.388-2.346 2.388-1.97-1.373-1.02-2.923-1.02-2.923.93-1.123 1.61-2.068 2.1-2.877-.69-1.462-1.54-2.857-2.53-4.174-1.42.185-2.73.61-2.73.61-2.39-.356-2.09-2.92-2.09-2.92.67-.36 1.31-.664 1.91-.926l-.05-.043c-.88-.826-1.83-1.604-2.83-2.33-.79-.57-1.61-1.105-2.47-1.607-1.64-.96-3.4-1.79-5.26-2.476-3.57-1.315-7.5-2.09-11.64-2.202-.34-.01-.68-.02-1.03-.02-2.6 0-5.12.266-7.53.76-6.35 1.3-11.91 4.21-15.99 8.16-1.26 1.217-2.38 2.533-3.34 3.93-.47.68-.89 1.377-1.28 2.093-.22.395-.42.794-.61 1.198-.21.445-.41.893-.58 1.35-.91 2.362-1.41 4.876-1.41 7.484 0 3.702 1 7.212 2.77 10.372.25.14.5.3.75.48.22.17.45.33.68.49-1.11-2.19-1.72-4.58-1.72-7.07 0-10.94 11.68-19.8 26.1-19.8 14.41 0 26.09 8.86 26.09 19.8 0 10.93-11.68 19.8-26.1 19.8-4.29 0-8.32-.79-11.89-2.18l-.27.2c4.27 1.82 9.12 2.86 14.27 2.86.64 0 1.27-.02 1.9-.05.68 2.96 1.25 7.56-.81 10.34 0 0-1.89 1.42-3.93 3.7-.59.66-1.2 1.39-1.77 2.18.06 1.23.07 2.51.05 3.8 1.45-4.24 4.4-8.42 10.34-9.8l-2.44-11s5.08-1.19 11.01-3.81v13.78s-12.28 14.35-7.51 25.37c8.66-2.34 8.13-.61 4.65 2.17 2.86-.31 6.02-.95 9.13-2.18v-.01l.49-37.1.27.09c.26-1.19 1.24-2.18 2.83-.58v-.52l2.33 2.36s1.89 20.35.3 32.3c.57-.43 1.13-.89 1.67-1.39.77-.69 1.5-1.45 2.2-2.28 7.24 1.3 39.47 7.92 29.95 20.88-1.04 1.84-2.95 3.56-5.58 5.11h-.01c-7.87 4.63-22.13 7.73-38.43 7.73-23.39 0-42.58-6.37-44.69-14.51-3.03-1.07-6.36.7-7.02 3.37 32.02 27.85 89.18 10.93 91.19 10.33 8.09-3.72 12.99-8.57 12.99-13.89 0-9.53-15.77-17.58-37.44-20.25 6.47-8.8 8.85-24.6-.66-52.71-.21-.62-.42-1.25-.64-1.88-.12-.69-.27-1.37-.46-2.04z"/><path fill="#D0D2D3" d="M112.195 174.79c1.18 1.572 2.038 2.273 5.02 3.933 0 0 .892.356 2.252.738 1.937-.61 3.6-1.1 5.015-1.49-4.776-11.02 7.503-25.37 7.503-25.37v-13.78c-5.937 2.62-11.014 3.82-11.014 3.82l2.44 11c-5.94 1.38-8.89 5.56-10.34 9.8-.06 3.95-.45 8.02-.87 11.36zm-4.617-39.8c-.458 1.946-1.92 3.774-3.96 5.39 3.568 1.387 7.605 2.175 11.89 2.175 14.412 0 26.097-8.865 26.097-19.8 0-10.936-11.686-19.8-26.098-19.8-14.414 0-26.1 8.864-26.1 19.8 0 2.49.612 4.87 1.718 7.064 8.08 5.67 16.453 5.17 16.453 5.17zm2.31 3.03c2.79 2.803.202 3.426.202 3.426-1.002 0-1.578-.853-1.89-1.586-.235-.556-.32-1.042-.32-1.042.224.363.435.668.633.924.624-.374.27-1.33.27-1.33-.5-.095-.904-.08-.904-.08 2.41-.43 2.18-1.673 1.8-2.403-.62-.31-1.8-.97-2.7-1.98 0 0 2.27-4.62 3.1-2.18 0 0 1.87-2.75 1.87 1.66 0 0-1.78 1.21-1.88 2.68l-.23-.1c.54.97.02 2 .02 2zm13.523-28.05c6.96 0 12.6 5.6 12.6 12.51 0 .258-.02.51-.04.766l.04-.04-.06.523c0 .03 0 .06-.01.09l-.02.21h-.01c-.77 6.17-6.06 10.95-12.48 10.95-5.91 0-10.86-4.06-12.21-9.51l-.01-.01h.02c-.23-.96-.37-1.96-.37-3 0-6.91 5.64-12.51 12.6-12.51zm-33.85 13.45v-.042c-.02-.188-.03-.38-.04-.573l-.02-.326h.01c0-.08-.01-.16-.01-.24 0-5.56 4.57-10.06 10.2-10.06 5.64 0 10.21 4.5 10.21 10.05 0 .99-.15 1.94-.41 2.84h.01c-1.24 4.17-5.15 7.22-9.78 7.22-5.23 0-9.53-3.88-10.12-8.89v-.01z"/><path fill="#BE1E2D" d="M110.587 140.867c.342-1.735-.89-2.284-1.804-2.456 0 .01.355.96-.27 1.34 1.372 1.78 2.074 1.13 2.074 1.13zm-2.387-1.007"/><path fill="#6D6F71" d="M107.88 138.332s.404-.015.902.08c.914.17 2.146.72 1.804 2.455 0 0-.702.648-2.073-1.125-.198-.256-.41-.56-.634-.924 0 0 .08.486.32 1.042.31.733.88 1.586 1.89 1.586 0 0 2.58-.623-.21-3.425 0 0 .52-1.03-.02-2-.06-.02-.12-.05-.19-.08.37.73.61 1.98-1.81 2.41z"/><path fill="#D0D2D3" d="M138.978 103.096s-.3 2.564 2.087 2.92c0 0 1.31-.425 2.73-.61 2.363-.306 5.025.067 2.533 4.174-.49.81-1.17 1.755-2.105 2.877 0 0-.952 1.55 1.017 2.923 0 0 1.1-.942 2.346-2.388 1.446-1.68 3.088-4.038 3.44-6.397.157-1.047.064-2.095-.42-3.083 0 0-1.655-4.85-9.718-1.343-.602.26-1.235.56-1.91.92z"/><path fill="#ACAFB1" d="M109.47 125.09c.268-.9.417-1.85.417-2.838 0-5.553-4.566-10.055-10.203-10.055-5.634 0-10.2 4.502-10.2 10.055 0 .078.01.155.01.234l.084.097c6.53 7.502 19.797 2.543 19.892 2.508zm-19.958-2.286c.01.192.02.385.04.573l-.04-.573z"/><path fill="#ACAFB1" d="M99.685 132.31c4.635 0 8.54-3.048 9.785-7.22-13.455 5.474-19.817-1.56-19.91-1.665.59 5.002 4.895 8.884 10.125 8.884zm36.255-8.582l-.012.093c.005-.03.01-.06.012-.09zm-24.745 1.747c16.05 5.965 24.178-1.644 24.77-2.23.016-.253.038-.507.038-.766 0-6.91-5.64-12.51-12.592-12.51-6.95 0-12.59 5.6-12.59 12.51 0 1.03.14 2.03.38 2.99z"/><path fill="#ACAFB1" d="M111.197 125.48c1.354 5.456 6.3 9.51 12.214 9.51 6.43 0 11.71-4.78 12.49-10.95-11.98 8.89-24.39 1.62-24.69 1.44z"/><path fill="#1D8FCD" d="M111.965 133.434c0-4.407-1.875-1.662-1.875-1.662-.837-2.438-3.107 2.18-3.107 2.18.9 1.013 2.087 1.677 2.7 1.978.068.034.13.063.183.086.14.065.224.1.224.1.098-1.47 1.875-2.682 1.875-2.682zm-1.848 1.464l-.027.09s.008-.034.027-.09c.65-2.31.967-1.154.967-1.154-.683.482-.902.962-.967 1.154z"/><path fill="#FFF" d="M110.117 134.898c-.02.056-.027.09-.027.09l.027-.09zm0 0c.065-.192.284-.673.967-1.154 0 0-.318-1.156-.967 1.154z"/><path fill="#CCC" d="M144.195 142.217l-2.334-2.356v.52c.37.37.77.86 1.2 1.53 2.81 4.36 0 38.49 0 38.49l.02.05c.64-1.48 1.1-3.53 1.42-5.92 1.6-11.94-.3-32.3-.3-32.3zm-5.23-.312c-.03-.3-.01-.628.063-.944l-.274-.09-.487 37.1c2.706-20.19.7-36.05.7-36.05z"/><path fill="#FFF" d="M143.06 141.905c-.435-.672-.83-1.16-1.198-1.526-1.595-1.6-2.57-.62-2.834.58-.07.31-.093.64-.062.94 0 0 2.007 15.85-.7 36.05-.196 1.45-.413 2.92-.66 4.41 0 0-.673 8.25 2.077 8.72 0 0 1.822 3.73 3.376 1.09 0 0 1.57.89 3.29 1.08.21.02.42.03.63.03 1.44-.01 2.86-.64 3.39-2.83 0 0 1.09-4.41 0-4.07 0 0-2.54-1.8-2.98.4-.14.68-.08 1.74.33 3.36 0 0-1.03 2.96-2.7.15 0 0 .83-1.38 1.04-3.1.18-1.52-.11-3.3-1.88-4.68l-1.12-2.11-.02-.05s2.8-34.13 0-38.49zm-18.578 36.065c-1.416.383-3.08.876-5.015 1.49-2.383.758-5.17 1.695-8.43 2.85 0 0 .606-3.138 1.158-7.52.42-3.343.81-7.408.874-11.36.02-1.292 0-2.57-.06-3.808-.28-5.855-1.56-10.78-4.93-11.674 0 0-2.15-.548-3.49 2.68 0 0-3.34-5.106-5.97 0 0 0-3.78-4.827-4.95 1.885 0 0-.3 6.99 3.29 5.24 0 0 .25.75 1.65-1.307 0 0 3.37 4.113 5.34-3.087 0 0 2.86 9.52 4.83 0 0 0 2.68 25.98-4.21 38.57 0 0 4.83 4.33 9.75-2.39 0 0 10.08-5.65 14.79-9.41 3.48-2.78 4-4.52-4.65-2.17z"/><path fill="#E6E6E6" d="M108.8 153.36c-1.97 9.527-4.834 0-4.834 0-1.968 7.2-5.336 3.086-5.336 3.086-1.4 2.056-1.654 1.306-1.654 1.306l2.11 9.472 1.043 4.677 4.46 20.03c6.89-12.58 4.2-38.57 4.2-38.57z"/><path fill="#96D9F7" d="M107.578 134.99s-8.373.506-16.453-5.17c-.227-.16-.455-.322-.68-.492-.253-.188-.504-.346-.755-.488-.04-.022-.078-.05-.117-.07-1.482-.937-3.23-1.5-5.11-1.56-.105-.003-.21-.012-.318-.012-5.55 0-10.047 4.416-10.047 9.86 0 5.447 4.498 9.862 10.047 9.862.037 0 .07-.005.108-.005 5.626.142 14.024-2.448 19.103-6.334.088-.06.177-.13.262-.2 2.04-1.61 3.5-3.44 3.96-5.39zm-24.255 7.71c-.024 0-.05.005-.072.005-3.71 0-6.71-2.95-6.71-6.592 0-3.64 3.01-6.592 6.72-6.592 1.34 0 2.58.39 3.63 1.05.19.11.4.22.58.38 7.66 6.45 14.27 6.53 14.27 6.53-4.75 3.39-13.03 5.36-18.4 5.23z"/><path fill="#D6EFFB" d="M101.73 137.477s-6.617-.08-14.27-6.528c-.186-.16-.39-.27-.582-.38-1.047-.66-2.29-1.05-3.628-1.05-3.71 0-6.716 2.95-6.716 6.59s3.006 6.59 6.716 6.59c.023 0 .048-.01.072-.01 5.37.13 13.655-1.84 18.408-5.23zm-19.123 1.053c-1.87 0-3.387-1.586-3.387-3.54 0-1.957 1.517-3.543 3.387-3.543s3.385 1.586 3.385 3.542c0 1.95-1.515 3.54-3.385 3.54z"/><ellipse fill="#FFF" cx="82.607" cy="134.989" rx="3.387" ry="3.542"/><path fill="#F2C652" d="M140.087 78.99c1.14-.924 2.313-1.86 3.524-2.792 1.21-.933 2.38-1.81 3.52-2.624 1.13-.813 2.19-1.527 3.16-2.144.97-.617 1.77-1.083 2.39-1.423.45-.238.67-.354 1.11-.58.38-.31.64-.613.78-.914.15-.3.21-.576.17-.824-.03-.25-.16-.46-.37-.61-.21-.16-.48-.22-.78-.24-.26-.02-.77-.04-1.51.02-.73.06-1.59.16-2.55.32-.96.16-1.99.36-3.08.62s-2.11.53-3.06.8c-.95.27-1.77.53-2.46.75-.68.22-1.13.36-1.3.42-.47.16-1.02.37-1.61.53-.58.16-1.15.41-1.7.74l-.62 1.52c-.21.2-.29.41-.22.61.06.2-.03.56-.01.58 0 0 .89-.29 1.34-.47l1.3-.53c1.57-.65 3.27-1.2 5.05-1.63 1.78-.43 4.79-.95 4.8-.92 0 0-.83.56-1.19.85-.35.29-.73.58-1.13.86-.48.34-1.2.87-2.13 1.58-.94.7-2 1.52-3.19 2.45-1.19.93-2.43 1.92-3.71 2.94-1.27 1.03-2.47 2-3.57 2.91-1.1.9-2.06 1.7-2.87 2.4-.81.69-1.35 1.18-1.57 1.48-.24.31-.43.57-.57.76-.14.19-.23.35-.28.5-.05.14-.08.28-.09.43-.01.14-.08.47-.03.54.06.07.6.04 1.01-.12.41-.16.82-.31 1.23-.44 1.22-.39 2.44-.72 3.58-1.04 1.14-.31 2.35-.72 3.59-1.11.36-.11 1.04-.3 2.01-.57.97-.26 2-.53 3.07-.79 1.08-.26 2.06-.48 2.96-.66.9-.19 1.56-.28 1.74-.4.24-.16.46-.49.61-.68.14-.19.25-.38.32-.56.07-.18.13-.37.17-.57.05-.23.21-.72.16-.79-.08-.1-1.63.02-2.75.26-1.12.25-2.3.57-3.53.96s-2.48.8-3.72 1.21c-1.24.41-3.26.94-3.27.91 0 0 1.3-1.18 2.24-1.99.94-.81 1.98-1.68 3.12-2.6z"/><path fill="#666" d="M89.496 121.915s6.414 8 20.084 2.126l-.22 1.38s-13.075 5.6-19.8-1.99l-.064-1.51zm21.464 2.38s13.46 7.67 25.043-1.817l-.194 2.108s-11 8.456-24.62.893l-.24-1.19z"/></svg>