<svg xmlns="http://www.w3.org/2000/svg" xmlns:xlink="http://www.w3.org/1999/xlink" width="250" height="250" viewBox="0 0 250 250"><path opacity=".15" fill="#050505" d="M133.816 237.564c-23.948 0-46.483-.976-63.454-2.746-24.964-2.604-29.696-5.72-29.696-10.555 0-4.328 3.68-7.226 22.345-9.69l-.52-6.628c-3.11-.956-4.29-1.594-5.08-2.287-.67-.588-1.12-1.385-1.29-2.262-.93-4.89-.1-11.18 5.29-12.82 1.97-.598 6.86-1.258 11.14-1.755l-7.51-9.96c-2.58-.85-3.72-2.46-4.21-3.76-.29-.78-.4-1.54-.37-2.25-1.12-.89-1.81-2-2.07-3.32-.08-.42-.11-.84-.1-1.24-1.84-2.62-1.01-5.91-.71-6.86.29-.91.89-1.69 1.7-2.19 1.27-.79 2.66-1.19 4.13-1.19 3.08 0 6.08 1.69 9.29 5.25.43-.07.86-.11 1.3-.11 4.63 0 9.31 3.99 14.57 12.47 1.07-.59 2.15-1.18 3.25-1.75-.81-8.57-1.58-15.24-1.74-16.23-.02-.11-.05-.23-.07-.35-2.3-.77-3.97-2-4.97-3.7-1.26-2.12-1.12-4.4-.55-5.9-2.1-1.42-3.62-3.76-3.85-6.24l-1.2-12.71c-1.82-1.42-2.82-3.4-2.65-5.44.04-.42.13-.85.28-1.26-.24-.72-.34-1.47-.28-2.24.1-1.13.59-2.27 1.51-3.14l-.35-3.74-44.42.59c-1.87 0-3.49-1.3-3.9-3.13l-20-89.75c-.28-1.24.05-2.53.89-3.49.77-.88 1.87-1.37 3.02-1.37.11 0 .21.01.32.02l128.5 10.25c1.06.09 2.04.59 2.73 1.4s1.02 1.86.94 2.92l-2.3 27.94c.06.13.13.27.18.4l.29.76 2.5-.51c.27-.06.55-.08.81-.08 1.71 0 3.27 1.1 3.81 2.79l.19.58c.18-.02.36-.03.54-.03.47 0 .93.08 1.36.24l.5-.07c.58-13.95.55-19.29.41-21.28-.31-4.29.61-7.63 2.75-9.93 1.78-1.91 4.34-2.97 7.21-2.97.57 0 1.06.04 1.43.09.26-.02.52-.02.77-.02 2.75 0 5.32.91 7.55 2.61 4.06-4.59 9.98-7.06 17.13-7.06 3.31 0 5.93.53 6.99.78 9.19.48 14.26 4.2 16.99 7.56 3.71-1.19 9.24-2.64 14.15-2.64 10.42 0 12.38 6.5 12.73 9.29 1.1 8.54-3.86 23.85-9.6 41.58-1.74 5.39-3.55 10.95-5.12 16.22-2.3 12.37-8.51 43.51-10.33 52.57 3.23 2.75 6.38 7.32 4.36 12.55-.29.76-.8 1.4-1.46 1.86L209 209.4c-.124.54-.36 1.04-.69 1.48-.38.51-1.745 2.13-3.946 2.563-.38.125-1.17.42-2.28.85 4.39.53 8.23 1.12 11.4 1.745 8.124 1.6 13.534 3.62 13.534 8.27 0 4.84-4.73 7.95-29.7 10.55-16.974 1.77-39.51 2.74-63.456 2.74zm-57.298-24.44c1.804-.156 3.663-.306 5.57-.445-1.744-.37-3.675-.79-5.665-1.24l.095 1.67z"/><text transform="translate(140.3 157.7)" fill="#0F4481" font-family="'Blumrblack'" font-size="10.889">#1</text><path fill="#FFF" stroke="#000" stroke-width=".25" d="M156.354 171.97c-1.82 0-3.662-.1-5.47-.3-2.25-.25-4.496-.652-6.675-1.2-2.2-.55-4.37-1.256-6.45-2.095-1.7-.684-2.72-2.432-2.47-4.244l.78-5.84c.15-1.12.77-2.13 1.7-2.77.67-.46 1.46-.69 2.26-.69.31 0 .63.04.94.11 1.77.44 3.59.75 5.39.93 1.37.15 2.77.22 4.14.22.43 0 .86-.01 1.29-.02 1.8-.06 3.61-.24 5.39-.55.23-.04.45-.06.68-.06.96 0 1.9.35 2.63.99.91.79 1.41 1.95 1.37 3.16l-.29 8.52c-.08 2.11-1.78 3.8-3.89 3.86-.45.01-.9.02-1.35.02z"/><path d="M139.854 160.19c.93.138 1.396.19 2.336.264l.416.036.367.03c.11.014.217.025.31.036.09.012.176.03.254.047.07.015.144.026.21.045.068.018.138.033.205.057.063.02.122.042.185.064.063.02.122.04.18.07.104.05.21.11.31.18.1.06.19.14.273.22.082.07.166.15.24.24.074.09.144.18.202.27.063.1.114.2.16.31.048.11.092.22.13.35.038.12.07.25.092.38.023.13.043.27.056.42.012.14.01.29.006.43-.005.14-.015.27-.036.4s-.06.24-.1.36-.092.22-.147.32c-.055.1-.115.19-.192.27-.07.08-.16.16-.24.23-.09.06-.19.12-.3.18-.1.05-.23.09-.35.13-.04.01-.1.03-.15.04-.05.01-.11.01-.18.02s-.12.01-.19.01-.14.01-.21 0c-.07 0-.16-.01-.26-.02l-.32-.03c-.11-.01-.25-.03-.39-.06-.14-.02-.29-.05-.45-.07-.79-.14-1.19-.23-1.97-.41-.16-1.99-.24-2.96-.4-4.87zm2.753 4.05c.12.016.23.023.334.025.11.002.2-.005.28-.018.09-.014.17-.034.23-.06.07-.028.12-.066.16-.11.04-.04.08-.09.11-.15.03-.063.06-.138.07-.214.02-.078.03-.17.03-.27 0-.102 0-.21-.01-.333-.01-.115-.02-.227-.04-.327s-.04-.195-.07-.273c-.03-.083-.07-.163-.11-.23-.04-.067-.09-.128-.14-.177-.06-.057-.12-.104-.18-.146s-.15-.07-.23-.1c-.08-.03-.17-.058-.27-.077-.1-.02-.21-.037-.32-.05-.22-.02-.32-.03-.54-.06l.19 2.485c.22.038.32.054.53.084zm7.08 1.826c-.054.046-.11.092-.17.135-.06.05-.12.09-.177.13-.056.04-.117.07-.183.1-.064.03-.134.05-.195.08-.063.03-.132.06-.202.07s-.146.02-.22.04c-.075.01-.153.03-.23.03h-.253c-.128 0-.253-.01-.37-.03-.115-.02-.228-.04-.33-.07-.1-.03-.194-.07-.283-.11-.09-.05-.177-.1-.248-.15-.075-.06-.144-.13-.202-.2-.06-.07-.11-.15-.15-.23-.043-.08-.078-.17-.104-.26-.025-.09-.034-.19-.04-.29-.008-.1-.015-.19-.003-.27.01-.09.035-.17.063-.24.025-.07.06-.14.104-.2.048-.06.104-.12.168-.16s.153-.08.25-.12c.095-.04.208-.07.336-.11.128-.04.27-.07.427-.1.156-.03.33-.06.52-.09l.08-.01c.026 0 .06 0 .095-.01l.104-.01.116-.01c.14-.03.27-.05.373-.08s.196-.06.263-.1c.067-.03.12-.09.15-.13.033-.05.048-.1.04-.15l-.02-.08c-.01-.02-.023-.05-.038-.07-.012-.02-.03-.04-.054-.05-.022-.02-.05-.03-.07-.04l-.093-.03s-.07-.02-.11-.02c-.04-.01-.09-.01-.14 0-.05.01-.1 0-.15.01-.05 0-.09.01-.14.02l-.11.03c-.03.01-.07.02-.1.04l-.08.05c-.02.02-.04.03-.06.06-.02.03-.03.05-.04.07l-.03.09c0 .03-.01.07-.01.1-.71.03-1.06.03-1.77.02 0-.12 0-.23.02-.32.02-.1.05-.2.09-.28s.11-.16.18-.23c.07-.07.16-.14.26-.19.1-.06.22-.11.34-.16.13-.05.26-.09.41-.12.15-.03.31-.07.48-.09s.36-.04.56-.06l.28-.01h.27c.09 0 .17 0 .26.01s.16.01.24.02l.23.03c.07.01.14.02.2.04.07.01.13.02.18.04.06.02.11.04.15.06.06.03.11.05.16.08s.1.07.14.11c.04.03.08.06.12.1.03.04.07.08.09.12.03.04.05.1.07.14.02.05.04.11.05.16.02.07.04.14.05.2l.03.23c.09.96.14 1.44.24 2.42l.03.12c.02.04.03.07.05.1.02.03.05.06.08.08.03.02.06.04.1.06 0 .05 0 .08.01.13-.74.06-1.11.08-1.86.11-.05-.17-.08-.25-.14-.42zm-.335-1.435l-.15.06c-.06.02-.12.04-.186.06l-.2.07c-.108.04-.208.07-.29.1-.082.04-.152.07-.21.11-.052.04-.093.08-.115.12-.02.04-.03.09-.02.13 0 .03 0 .06.01.08.01.03.03.05.04.08.02.03.03.05.05.07.02.02.05.04.07.05.03.02.05.04.08.05.03.01.06.02.1.03.03.01.07.02.11.02.04.01.08.01.12.01.08-.01.15-.01.21-.02.07-.01.13-.02.19-.04s.11-.04.15-.06c.05-.02.08-.05.11-.09.03-.03.06-.07.08-.11.02-.04.04-.09.05-.14l.03-.17v-.33c0-.02-.01-.03-.01-.05l-.01-.03c-.01 0-.09.04-.14.05zm6.67 1.68c-.03-.23-.042-.34-.07-.56-.04.07-.08.14-.13.2l-.144.19c-.046.06-.106.11-.165.16-.058.05-.115.1-.174.14l-.18.12c-.07.04-.14.07-.21.1l-.22.06c-.08.02-.15.04-.23.05-.15.02-.29.03-.43.02s-.28-.03-.4-.07-.25-.1-.36-.16c-.12-.07-.23-.15-.33-.25s-.19-.21-.28-.32c-.08-.11-.15-.24-.21-.38s-.12-.29-.16-.44c-.04-.16-.07-.32-.09-.5-.02-.18-.03-.35-.02-.51 0-.16.03-.32.06-.46s.06-.28.12-.42c.06-.13.12-.27.2-.39.07-.12.16-.23.26-.33.09-.1.19-.19.3-.26.11-.08.23-.15.36-.2.12-.05.26-.09.39-.12.07-.02.13-.02.2-.03.06-.01.13-.01.19-.01.06-.01.12 0 .18 0s.11.02.17.03c.06.02.11.03.17.05.06.02.11.04.17.07.05.03.1.06.15.1l.16.11c-.1-.84-.14-1.26-.23-2.09.69-.19 1.04-.29 1.72-.52.29 2.5.45 3.77.79 6.35-.66.15-.98.22-1.64.35zm-.88-1.07c.053-.02.1-.06.14-.09.04-.03.086-.06.12-.11.03-.04.065-.09.093-.14.028-.05.05-.11.067-.17.02-.06.032-.12.042-.19.01-.06.018-.14.02-.22 0-.07-.004-.15-.014-.23-.012-.09-.03-.18-.047-.25-.016-.07-.032-.15-.054-.21-.02-.06-.05-.11-.08-.16s-.07-.09-.11-.12c-.04-.03-.08-.07-.12-.09-.04-.02-.09-.04-.14-.05-.05-.01-.1-.02-.16-.01s-.12.01-.18.02c-.07.02-.12.03-.18.05-.05.02-.11.05-.15.08-.05.03-.09.07-.12.11-.04.04-.07.09-.1.14-.02.05-.04.1-.06.16-.01.06-.03.12-.04.19-.01.07-.02.14-.02.22 0 .07.01.16.02.25.01.08.02.16.04.23.01.07.04.14.06.2s.04.12.07.17c.03.05.07.1.11.14.03.04.07.08.12.11.04.03.09.05.14.07.04.01.1.02.15.02.06 0 .12 0 .17-.01.06-.01.12-.02.17-.05z" fill="#0F4481"/><text transform="translate(140.3 157.7)" fill="#0F4481" font-family="'Blumrblack'" font-size="10.889">#1</text><path fill="#FFF" stroke="#000" stroke-width=".25" d="M156.354 171.97c-1.82 0-3.662-.1-5.47-.3-2.25-.25-4.496-.652-6.675-1.2-2.2-.55-4.37-1.256-6.45-2.095-1.7-.684-2.72-2.432-2.47-4.244l.78-5.84c.15-1.12.77-2.13 1.7-2.77.67-.46 1.46-.69 2.26-.69.31 0 .63.04.94.11 1.77.44 3.59.75 5.39.93 1.37.15 2.77.22 4.14.22.43 0 .86-.01 1.29-.02 1.8-.06 3.61-.24 5.39-.55.23-.04.45-.06.68-.06.96 0 1.9.35 2.63.99.91.79 1.41 1.95 1.37 3.16l-.29 8.52c-.08 2.11-1.78 3.8-3.89 3.86-.45.01-.9.02-1.35.02z"/><path d="M139.854 160.19c.93.138 1.396.19 2.336.264l.416.036.367.03c.11.014.217.025.31.036.09.012.176.03.254.047.07.015.144.026.21.045.068.018.138.033.205.057.063.02.122.042.185.064.063.02.122.04.18.07.104.05.21.11.31.18.1.06.19.14.273.22.082.07.166.15.24.24.074.09.144.18.202.27.063.1.114.2.16.31.048.11.092.22.13.35.038.12.07.25.092.38.023.13.043.27.056.42.012.14.01.29.006.43-.005.14-.015.27-.036.4s-.06.24-.1.36-.092.22-.147.32c-.055.1-.115.19-.192.27-.07.08-.16.16-.24.23-.09.06-.19.12-.3.18-.1.05-.23.09-.35.13-.04.01-.1.03-.15.04-.05.01-.11.01-.18.02s-.12.01-.19.01-.14.01-.21 0c-.07 0-.16-.01-.26-.02l-.32-.03c-.11-.01-.25-.03-.39-.06-.14-.02-.29-.05-.45-.07-.79-.14-1.19-.23-1.97-.41-.16-1.99-.24-2.96-.4-4.87zm2.753 4.05c.12.016.23.023.334.025.11.002.2-.005.28-.018.09-.014.17-.034.23-.06.07-.028.12-.066.16-.11.04-.04.08-.09.11-.15.03-.063.06-.138.07-.214.02-.078.03-.17.03-.27 0-.102 0-.21-.01-.333-.01-.115-.02-.227-.04-.327s-.04-.195-.07-.273c-.03-.083-.07-.163-.11-.23-.04-.067-.09-.128-.14-.177-.06-.057-.12-.104-.18-.146s-.15-.07-.23-.1c-.08-.03-.17-.058-.27-.077-.1-.02-.21-.037-.32-.05-.22-.02-.32-.03-.54-.06l.19 2.485c.22.038.32.054.53.084zm7.08 1.826c-.054.046-.11.092-.17.135-.06.05-.12.09-.177.13-.056.04-.117.07-.183.1-.064.03-.134.05-.195.08-.063.03-.132.06-.202.07s-.146.02-.22.04c-.075.01-.153.03-.23.03h-.253c-.128 0-.253-.01-.37-.03-.115-.02-.228-.04-.33-.07-.1-.03-.194-.07-.283-.11-.09-.05-.177-.1-.248-.15-.075-.06-.144-.13-.202-.2-.06-.07-.11-.15-.15-.23-.043-.08-.078-.17-.104-.26-.025-.09-.034-.19-.04-.29-.008-.1-.015-.19-.003-.27.01-.09.035-.17.063-.24.025-.07.06-.14.104-.2.048-.06.104-.12.168-.16s.153-.08.25-.12c.095-.04.208-.07.336-.11.128-.04.27-.07.427-.1.156-.03.33-.06.52-.09l.08-.01c.026 0 .06 0 .095-.01l.104-.01.116-.01c.14-.03.27-.05.373-.08s.196-.06.263-.1c.067-.03.12-.09.15-.13.033-.05.048-.1.04-.15l-.02-.08c-.01-.02-.023-.05-.038-.07-.012-.02-.03-.04-.054-.05-.022-.02-.05-.03-.07-.04l-.093-.03s-.07-.02-.11-.02c-.04-.01-.09-.01-.14 0-.05.01-.1 0-.15.01-.05 0-.09.01-.14.02l-.11.03c-.03.01-.07.02-.1.04l-.08.05c-.02.02-.04.03-.06.06-.02.03-.03.05-.04.07l-.03.09c0 .03-.01.07-.01.1-.71.03-1.06.03-1.77.02 0-.12 0-.23.02-.32.02-.1.05-.2.09-.28s.11-.16.18-.23c.07-.07.16-.14.26-.19.1-.06.22-.11.34-.16.13-.05.26-.09.41-.12.15-.03.31-.07.48-.09s.36-.04.56-.06l.28-.01h.27c.09 0 .17 0 .26.01s.16.01.24.02l.23.03c.07.01.14.02.2.04.07.01.13.02.18.04.06.02.11.04.15.06.06.03.11.05.16.08s.1.07.14.11c.04.03.08.06.12.1.03.04.07.08.09.12.03.04.05.1.07.14.02.05.04.11.05.16.02.07.04.14.05.2l.03.23c.09.96.14 1.44.24 2.42l.03.12c.02.04.03.07.05.1.02.03.05.06.08.08.03.02.06.04.1.06 0 .05 0 .08.01.13-.74.06-1.11.08-1.86.11-.05-.17-.08-.25-.14-.42zm-.335-1.435l-.15.06c-.06.02-.12.04-.186.06l-.2.07c-.108.04-.208.07-.29.1-.082.04-.152.07-.21.11-.052.04-.093.08-.115.12-.02.04-.03.09-.02.13 0 .03 0 .06.01.08.01.03.03.05.04.08.02.03.03.05.05.07.02.02.05.04.07.05.03.02.05.04.08.05.03.01.06.02.1.03.03.01.07.02.11.02.04.01.08.01.12.01.08-.01.15-.01.21-.02.07-.01.13-.02.19-.04s.11-.04.15-.06c.05-.02.08-.05.11-.09.03-.03.06-.07.08-.11.02-.04.04-.09.05-.14l.03-.17v-.33c0-.02-.01-.03-.01-.05l-.01-.03c-.01 0-.09.04-.14.05zm6.67 1.68c-.03-.23-.042-.34-.07-.56-.04.07-.08.14-.13.2l-.144.19c-.046.06-.106.11-.165.16-.058.05-.115.1-.174.14l-.18.12c-.07.04-.14.07-.21.1l-.22.06c-.08.02-.15.04-.23.05-.15.02-.29.03-.43.02s-.28-.03-.4-.07-.25-.1-.36-.16c-.12-.07-.23-.15-.33-.25s-.19-.21-.28-.32c-.08-.11-.15-.24-.21-.38s-.12-.29-.16-.44c-.04-.16-.07-.32-.09-.5-.02-.18-.03-.35-.02-.51 0-.16.03-.32.06-.46s.06-.28.12-.42c.06-.13.12-.27.2-.39.07-.12.16-.23.26-.33.09-.1.19-.19.3-.26.11-.08.23-.15.36-.2.12-.05.26-.09.39-.12.07-.02.13-.02.2-.03.06-.01.13-.01.19-.01.06-.01.12 0 .18 0s.11.02.17.03c.06.02.11.03.17.05.06.02.11.04.17.07.05.03.1.06.15.1l.16.11c-.1-.84-.14-1.26-.23-2.09.69-.19 1.04-.29 1.72-.52.29 2.5.45 3.77.79 6.35-.66.15-.98.22-1.64.35zm-.88-1.07c.053-.02.1-.06.14-.09.04-.03.086-.06.12-.11.03-.04.065-.09.093-.14.028-.05.05-.11.067-.17.02-.06.032-.12.042-.19.01-.06.018-.14.02-.22 0-.07-.004-.15-.014-.23-.012-.09-.03-.18-.047-.25-.016-.07-.032-.15-.054-.21-.02-.06-.05-.11-.08-.16s-.07-.09-.11-.12c-.04-.03-.08-.07-.12-.09-.04-.02-.09-.04-.14-.05-.05-.01-.1-.02-.16-.01s-.12.01-.18.02c-.07.02-.12.03-.18.05-.05.02-.11.05-.15.08-.05.03-.09.07-.12.11-.04.04-.07.09-.1.14-.02.05-.04.1-.06.16-.01.06-.03.12-.04.19-.01.07-.02.14-.02.22 0 .07.01.16.02.25.01.08.02.16.04.23.01.07.04.14.06.2s.04.12.07.17c.03.05.07.1.11.14.03.04.07.08.12.11.04.03.09.05.14.07.04.01.1.02.15.02.06 0 .12 0 .17-.01.06-.01.12-.02.17-.05z" fill="#0F4481"/><path fill="#FFF" d="M131.316 235.064c-23.948 0-46.483-.976-63.454-2.746-24.964-2.604-29.696-5.72-29.696-10.555 0-4.328 3.68-7.226 22.345-9.69l-.52-6.628c-3.11-.956-4.29-1.594-5.08-2.287-.67-.588-1.12-1.385-1.29-2.262-.93-4.89-.1-11.18 5.29-12.82 1.97-.598 6.86-1.258 11.14-1.755l-7.51-9.96c-2.58-.85-3.72-2.46-4.21-3.76-.29-.78-.4-1.54-.37-2.25-1.12-.89-1.81-2-2.07-3.32-.08-.42-.11-.84-.1-1.24-1.84-2.62-1.01-5.91-.71-6.86.29-.91.89-1.69 1.7-2.19 1.27-.79 2.66-1.19 4.13-1.19 3.08 0 6.08 1.69 9.29 5.25.43-.07.86-.11 1.3-.11 4.63 0 9.31 3.99 14.57 12.47 1.07-.59 2.15-1.18 3.25-1.75-.81-8.57-1.58-15.24-1.74-16.23-.02-.11-.05-.23-.07-.35-2.3-.77-3.97-2-4.97-3.7-1.26-2.12-1.12-4.4-.55-5.9-2.1-1.42-3.62-3.76-3.85-6.24l-1.2-12.71c-1.82-1.42-2.82-3.4-2.65-5.44.04-.42.13-.85.28-1.26-.24-.72-.34-1.47-.28-2.24.1-1.13.59-2.27 1.51-3.14l-.35-3.74-44.42.59c-1.87 0-3.49-1.3-3.9-3.13l-20-89.75c-.28-1.24.05-2.53.89-3.49.77-.88 1.87-1.37 3.02-1.37.11 0 .21.01.32.02l128.5 10.25c1.06.09 2.04.59 2.73 1.4s1.02 1.86.94 2.92l-2.3 27.94c.06.13.13.27.18.4l.29.76 2.5-.51c.27-.06.55-.08.81-.08 1.71 0 3.27 1.1 3.81 2.79l.19.58c.18-.02.36-.03.54-.03.47 0 .93.08 1.36.24l.5-.07c.58-13.95.55-19.29.41-21.28-.31-4.29.61-7.63 2.75-9.93 1.78-1.91 4.34-2.97 7.21-2.97.57 0 1.06.04 1.43.09.26-.02.52-.02.77-.02 2.75 0 5.32.91 7.55 2.61 4.06-4.59 9.98-7.06 17.13-7.06 3.31 0 5.93.53 6.99.78 9.19.48 14.26 4.2 16.99 7.56 3.71-1.19 9.24-2.64 14.15-2.64 10.42 0 12.38 6.5 12.73 9.29 1.1 8.54-3.86 23.85-9.6 41.58-1.74 5.39-3.55 10.95-5.12 16.22-2.3 12.37-8.51 43.51-10.33 52.57 3.23 2.75 6.38 7.32 4.36 12.55-.29.76-.8 1.4-1.46 1.86l-10.82 45.84c-.12.54-.36 1.04-.69 1.48-.38.51-1.74 2.13-3.94 2.56-.38.13-1.17.42-2.28.85 4.39.53 8.23 1.12 11.4 1.75 8.13 1.6 13.54 3.62 13.54 8.27 0 4.84-4.73 7.95-29.7 10.55-16.97 1.77-39.51 2.74-63.46 2.74zm-57.298-24.44c1.804-.156 3.663-.306 5.57-.445-1.744-.37-3.675-.79-5.665-1.24l.095 1.67z"/><ellipse fill="#ED1F24" cx="131.314" cy="221.765" rx="89.149" ry="9.3"/><path fill="#9B674E" d="M173.213 37.25s-3-8.25-10.25-7.5c0 0-8-1.75-7.25 8.5s-3 70.75-3 70.75l14.25.25 6.25-72z"/><ellipse opacity=".15" cx="131.314" cy="221.765" rx="89.149" ry="9.3"/><path fill="#FEE86E" d="M10.963 17.25l20 89.75 75.157-1s4.02 12.676 16.677 13.505c0 0-6.343-9.838-4.343-13.17s14.676-2 14.676-2l6.333-76.834-128.5-10.25z"/><path d="M28.894 33.884l6.144-.536.563 6.492 5.72-.51-.56-6.465 6.12-.537 1.69 19.074-6.14.537-.64-7.41-5.71.51.65 7.4-6.11.53-1.69-19.1zm24.933-.51l6.197-.536 8.37 18.483-6.063.54-.93-2.47-6.06.54-.53 2.61-6.01.51 5.04-19.66zm6.09 12.126l-2.468-6.438-1.37 6.76 3.83-.322zm8.49-11.696l7.86-.697c.43-.036.84-.063 1.233-.08.394-.02.76-.028 1.1-.028.34-.02.662-.02.966 0s.59.03.858.05c.25.03.497.07.738.12.24.04.47.1.684.17.214.05.42.12.617.2.197.08.393.16.59.25.232.14.45.29.657.44.205.15.397.31.577.47.18.18.344.36.497.55.15.18.29.39.416.6.125.19.24.41.35.65.106.24.195.49.267.74.072.25.134.52.188.8.054.28.098.57.134.86.03.53.03 1.04 0 1.52-.04.48-.12.93-.25 1.34-.13.43-.29.83-.5 1.19-.21.36-.45.7-.74 1-.29.32-.62.6-.98.84-.37.24-.78.46-1.22.65-.45.18-.93.33-1.44.44-.51.11-1.07.2-1.68.25l-3.65.32.51 5.84-6.15.53-1.67-19.1zm8.852 7.86c.32-.017.61-.05.87-.093s.49-.09.71-.14c.21-.05.39-.11.55-.17.15-.06.28-.14.39-.23.1-.07.19-.16.26-.26.07-.11.12-.23.16-.37.05-.12.08-.26.09-.41 0-.15 0-.32-.02-.52-.02-.18-.05-.34-.08-.49-.04-.15-.09-.29-.17-.41-.06-.12-.13-.23-.22-.32s-.19-.17-.3-.24c-.11-.05-.25-.1-.42-.13-.17-.03-.36-.06-.58-.08-.22-.01-.46-.02-.74-.02-.28 0-.58.02-.9.06L74.9 38l.32 3.92 1.99-.19zm8.67-7.86l7.86-.697c.43-.036.84-.063 1.23-.08.39-.02.76-.028 1.1-.028.34-.02.66-.02.96 0 .3.01.59.03.86.05.25.03.49.07.74.12.24.04.47.1.68.17.21.05.42.12.61.2.2.08.39.16.59.25.23.14.45.29.66.44.2.15.39.31.58.47.18.18.34.36.49.55.15.18.29.39.41.6.12.19.24.41.35.65.1.24.19.49.26.74s.13.52.18.8c.05.28.1.57.13.86.04.53.04 1.04 0 1.52s-.12.93-.24 1.34c-.13.43-.29.83-.5 1.19-.21.36-.45.7-.74 1-.29.32-.62.6-.98.84-.37.24-.78.46-1.22.65-.45.18-.93.33-1.44.44-.51.11-1.07.2-1.68.25l-3.65.32.51 5.84-6.14.53-1.66-19.1zm8.85 7.86c.32-.017.61-.05.87-.093s.49-.09.71-.14c.21-.05.39-.11.55-.17.15-.06.28-.14.39-.23.1-.07.19-.16.26-.26s.12-.23.16-.37c.05-.12.08-.26.09-.41.01-.15 0-.32-.02-.52-.02-.18-.05-.34-.08-.49-.04-.15-.09-.29-.16-.41-.06-.12-.13-.23-.22-.32s-.19-.17-.3-.24c-.11-.05-.25-.1-.42-.13-.17-.03-.36-.06-.58-.08-.22-.01-.46-.02-.74-.02-.28 0-.58.02-.9.06l-1.96.16.32 3.92 1.98-.19zm16.8 3.73l-8.08-11.4 6.78-.62 3.86 6.225 2.73-6.79 6.6-.59-5.8 12.63.61 7.05-6.12.53-.62-7.06zM31.12 58.236l10.48-.916.29 3.506-6.018.526.175 2.143 4.812-.428.29 3.35-4.81.43.42 4.87-4.44.39-1.21-13.87zm14.54-.214l4.5-.39 6.078 13.42-4.402.39-.682-1.79-4.402.39-.39 1.89L42 72.3l3.66-14.28zm4.422 8.805l-1.792-4.675-.994 4.91 2.786-.235zm7.655-5.162l-3.994.35-.312-3.642 12.43-1.09.31 3.642-3.99.35.9 10.21-4.44.39-.89-10.21zm8.443-3.273l4.46-.39.41 4.714 4.15-.37-.41-4.695 4.44-.39 1.23 13.85-4.462.39-.468-5.37-4.15.37.468 5.38-4.44.39L66.18 58.4zm14.384-.098l11.064-.954.292 3.312-6.623.584.156 1.83 5.61-.486.273 3.195-5.61.487.195 2.144 6.9-.604.29 3.37-11.33.993-1.21-13.87zm12.418.06l6.643-.585c.52-.04 1.003-.06 1.452-.06.448 0 .86.02 1.237.06.376.05.717.12 1.022.21.305.09.575.2.81.33.246.14.46.31.642.5s.338.4.468.65c.13.24.237.52.32.82.085.3.14.62.167.97.026.22.036.43.03.62-.008.19-.024.37-.05.54-.04.18-.084.35-.136.51-.052.16-.117.32-.195.47-.078.14-.17.28-.272.42-.104.13-.22.27-.35.4-.13.11-.274.23-.43.34-.156.11-.33.22-.526.32.208.01.396.04.565.09.16.04.32.11.46.18.15.06.29.14.42.23.12.09.23.18.32.29.1.12.19.25.27.39.07.14.15.3.21.47.06.18.12.37.16.57.04.2.08.41.1.63l.23 1.93c0 .01 0 .02.02.04.01.14.03.26.06.37s.07.18.1.25c.04.08.08.13.12.16s.1.05.16.05l.04.53-4.48.39-.08-.24c-.03-.08-.05-.16-.08-.23-.02-.07-.03-.13-.05-.2-.02-.07-.04-.13-.05-.2-.04-.12-.07-.22-.09-.32-.02-.1-.03-.19-.03-.26l-.12-1.37c-.02-.19-.04-.35-.07-.5-.04-.15-.08-.29-.13-.42-.04-.12-.09-.23-.16-.32-.07-.1-.14-.18-.22-.25-.08-.07-.17-.12-.26-.17-.1-.04-.21-.08-.34-.11-.13-.03-.27-.05-.42-.05-.15-.01-.31-.01-.48.01l-1.89.15.41 4.79-4.38.39-1.23-13.87zm6.955 5.395c.168-.02.328-.04.477-.06.15-.03.283-.06.4-.1.13-.03.24-.06.33-.11.09-.05.17-.1.234-.15.065-.06.117-.12.156-.19.04-.07.078-.15.117-.25.03-.08.05-.17.05-.27.01-.11.01-.22-.01-.33-.01-.13-.03-.25-.05-.35-.02-.11-.06-.2-.1-.28-.04-.08-.08-.15-.14-.21-.06-.07-.12-.12-.18-.16-.08-.04-.17-.08-.27-.11s-.22-.05-.35-.05c-.13-.02-.28-.02-.45-.02s-.35 0-.54.02l-1.91.17.24 2.59 2.03-.17zm10.047-5.74c-.458 1.67-1.316 3.81-1.875 4.72l-1.12.14c.44-1.18.95-3.25 1.17-4.69l1.81-.18zm4.364 9.51c.04.13.084.24.136.35.052.1.11.19.175.27.06.09.13.17.2.23s.15.12.24.17c.08.05.17.09.27.13s.21.05.33.07c.11.01.24.02.38.02.13 0 .28-.01.44-.02.13 0 .25-.02.37-.04.11-.03.22-.05.33-.08l.26-.12s.16-.08.24-.14c.06-.05.12-.11.17-.17.05-.06.09-.12.13-.19.02-.07.04-.13.06-.21.01-.07.01-.15 0-.23 0-.12-.05-.23-.14-.34-.09-.11-.22-.21-.39-.3-.16-.08-.36-.16-.61-.23s-.53-.14-.84-.19l-.34-.06c-.1-.01-.18-.03-.25-.04-.26-.04-.51-.08-.75-.13l-.67-.13c-.21-.04-.4-.08-.59-.13l-.51-.12-.44-.12s-.26-.08-.36-.12c-.12-.05-.22-.1-.32-.14-.1-.04-.18-.07-.25-.11-.15-.08-.28-.17-.41-.26-.13-.1-.25-.2-.35-.31-.12-.1-.22-.21-.31-.33-.09-.12-.18-.24-.25-.37-.08-.13-.15-.27-.22-.4-.07-.14-.12-.28-.16-.44-.05-.14-.09-.29-.13-.46-.03-.16-.06-.33-.07-.5-.03-.34-.02-.67.02-.98.04-.32.11-.62.21-.89.1-.29.24-.56.42-.8s.38-.48.61-.7c.25-.22.52-.42.81-.6.29-.18.61-.33.96-.46s.73-.24 1.12-.32c.4-.09.82-.15 1.28-.19.46-.04.88-.05 1.28-.04s.77.05 1.14.12c.36.07.7.15 1.01.26s.61.25.88.42c.27.17.52.36.74.56s.41.44.58.7.31.54.43.84c.12.3.21.62.27.97l-4.23.37c-.03-.1-.06-.2-.1-.28s-.09-.17-.14-.25c-.05-.07-.11-.13-.17-.19-.07-.06-.14-.12-.21-.17-.08-.04-.16-.07-.25-.1s-.19-.06-.29-.07c-.12-.01-.24-.02-.35-.02h-.39c-.12.01-.23.03-.34.05-.1.02-.19.04-.27.07-.09.02-.17.06-.24.1-.08.04-.14.08-.19.12-.05.05-.1.1-.14.15-.04.05-.07.11-.1.17-.03.05-.04.11-.05.18-.01.07-.01.15-.01.25.01.1.06.21.15.31s.21.2.38.27c.16.07.35.15.58.21.23.06.5.12.82.17.05.01.1.02.14.03.04 0 .08.01.1.03l.34.05c.13.02.29.04.47.06.41.07.79.13 1.13.21.33.07.64.14.91.2s.51.13.71.2c.2.07.37.14.5.22.17.09.32.18.46.28.14.1.27.2.39.3.12.1.23.21.33.33.1.12.2.23.29.35.08.13.15.26.21.4s.12.28.18.44c.04.14.07.3.11.47.03.17.05.33.07.5.04.39.04.76 0 1.1-.04.35-.11.67-.21.97-.11.31-.25.6-.43.87-.18.26-.4.51-.65.75-.25.22-.53.42-.84.6-.31.18-.65.34-1.03.49-.38.13-.78.24-1.22.33s-.9.15-1.39.19c-.47.05-.91.06-1.33.05-.42-.03-.82-.07-1.19-.13-.37-.08-.71-.18-1.04-.3-.34-.13-.64-.28-.93-.46-.29-.18-.55-.39-.78-.63-.24-.24-.44-.49-.63-.76-.17-.28-.32-.57-.44-.9-.12-.33-.22-.67-.28-1.04l4.32-.39zM50.67 76.55l6.64-.575c.417-.03.81-.06 1.18-.08.367-.026.712-.046 1.033-.06h.866c.25 0 .49.014.72.046.21.02.41.04.6.08.19.03.38.07.58.12.17.05.35.1.53.16.17.06.34.13.5.21.3.15.6.31.88.49.28.19.54.4.78.64.24.23.47.47.68.74.21.27.41.55.59.83.17.31.33.63.47.98.13.34.26.71.37 1.09.11.39.2.79.27 1.21.07.42.13.86.18 1.32.03.48.04.95.03 1.4-.01.45-.04.88-.09 1.3-.06.42-.15.82-.25 1.19-.11.38-.24.74-.4 1.1-.15.35-.32.68-.53.99-.21.31-.43.6-.67.87-.26.26-.54.5-.83.74-.3.23-.63.45-.98.64-.13.08-.27.16-.42.23-.15.07-.32.13-.49.18-.18.07-.36.13-.54.18-.19.06-.38.11-.59.16-.21.03-.45.07-.72.12-.28.05-.58.1-.92.15l-1.11.11-1.28.13-5.63.48-1.49-17.11zm8.083 12.176c.337-.03.65-.08.938-.145.29-.06.55-.14.78-.24.24-.09.45-.21.63-.33.18-.13.32-.28.44-.46.12-.16.22-.35.3-.57.09-.22.15-.47.19-.74.05-.27.07-.58.07-.91 0-.33-.01-.7-.04-1.1-.03-.38-.08-.74-.14-1.07-.06-.33-.13-.62-.21-.87-.1-.27-.2-.51-.32-.72-.12-.21-.25-.38-.39-.53-.16-.16-.34-.29-.53-.39s-.41-.18-.65-.23c-.24-.06-.5-.1-.78-.12s-.58 0-.9.03l-1.54.12.72 8.44 1.49-.12zM72.45 76.164l5.558-.48 7.506 16.576-5.438.48-.842-2.21-5.438.48-.48 2.335-5.39.457 4.524-17.635zm5.46 10.875l-2.21-5.78-1.228 6.06 3.44-.29zm9.45-.14l-7.242-10.23 6.087-.56 3.465 5.59 2.45-6.09 5.92-.53-5.2 11.33.55 6.33-5.484.48-.553-6.33zm10.957-6.5l-.385-4.31 5.125-.43.36 4.28-.577 6.81-2.79.26-1.733-6.62zm.746 8.08l5.028-.44.41 4.71-5.02.46-.41-4.74z" fill="#704637"/><path fill="#FFF" stroke="#000" stroke-width=".25" d="M156.357 171.602c-1.81 0-3.638-.102-5.435-.302-2.237-.246-4.467-.646-6.625-1.188-2.184-.55-4.336-1.248-6.4-2.08-1.538-.62-2.46-2.203-2.24-3.848l.784-5.85c.14-1.02.71-1.934 1.56-2.514.61-.416 1.32-.633 2.05-.633.29 0 .58.032.86.103 1.79.437 3.62.752 5.44.938 1.39.143 2.8.213 4.18.213.44 0 .88 0 1.32-.02 1.82-.06 3.65-.24 5.44-.55.21-.03.42-.05.62-.05.87 0 1.72.32 2.39.9.83.72 1.28 1.77 1.24 2.86l-.29 8.52c-.06 1.92-1.61 3.45-3.53 3.5-.44.02-.88.02-1.32.02z"/><text transform="translate(140.3 157.7)" fill="#0F4481" font-family="'Blumrblack'" font-size="10.889">#1</text><path d="M139.854 160.19c.93.138 1.396.19 2.336.264l.416.036.367.03c.11.014.217.025.31.036.09.012.176.03.254.047.07.015.144.026.21.045.068.018.138.033.205.057.063.02.122.042.185.064.063.02.122.04.18.07.104.05.21.11.31.18.1.06.19.14.273.22.082.07.166.15.24.24.074.09.144.18.202.27.063.1.114.2.16.31.048.11.092.22.13.35.038.12.07.25.092.38.023.13.043.27.056.42.012.14.01.29.006.43-.005.14-.015.27-.036.4s-.06.24-.1.36-.092.22-.147.32c-.055.1-.115.19-.192.27-.07.08-.16.16-.24.23-.09.06-.19.12-.3.18-.1.05-.23.09-.35.13-.04.01-.1.03-.15.04-.05.01-.11.01-.18.02s-.12.01-.19.01-.14.01-.21 0c-.07 0-.16-.01-.26-.02l-.32-.03c-.11-.01-.25-.03-.39-.06-.14-.02-.29-.05-.45-.07-.79-.14-1.19-.23-1.97-.41-.16-1.99-.24-2.96-.4-4.87zm2.753 4.05c.12.016.23.023.334.025.11.002.2-.005.28-.018.09-.014.17-.034.23-.06.07-.028.12-.066.16-.11.04-.04.08-.09.11-.15.03-.063.06-.138.07-.214.02-.078.03-.17.03-.27 0-.102 0-.21-.01-.333-.01-.115-.02-.227-.04-.327s-.04-.195-.07-.273c-.03-.083-.07-.163-.11-.23-.04-.067-.09-.128-.14-.177-.06-.057-.12-.104-.18-.146s-.15-.07-.23-.1c-.08-.03-.17-.058-.27-.077-.1-.02-.21-.037-.32-.05-.22-.02-.32-.03-.54-.06l.19 2.485c.22.038.32.054.53.084zm7.08 1.826c-.054.046-.11.092-.17.135-.06.05-.12.09-.177.13-.056.04-.117.07-.183.1-.064.03-.134.05-.195.08-.063.03-.132.06-.202.07s-.146.02-.22.04c-.075.01-.153.03-.23.03h-.253c-.128 0-.253-.01-.37-.03-.115-.02-.228-.04-.33-.07-.1-.03-.194-.07-.283-.11-.09-.05-.177-.1-.248-.15-.075-.06-.144-.13-.202-.2-.06-.07-.11-.15-.15-.23-.043-.08-.078-.17-.104-.26-.025-.09-.034-.19-.04-.29-.008-.1-.015-.19-.003-.27.01-.09.035-.17.063-.24.025-.07.06-.14.104-.2.048-.06.104-.12.168-.16s.153-.08.25-.12c.095-.04.208-.07.336-.11.128-.04.27-.07.427-.1.156-.03.33-.06.52-.09l.08-.01c.026 0 .06 0 .095-.01l.104-.01.116-.01c.14-.03.27-.05.373-.08s.196-.06.263-.1c.067-.03.12-.09.15-.13.033-.05.048-.1.04-.15l-.02-.08c-.01-.02-.023-.05-.038-.07-.012-.02-.03-.04-.054-.05-.022-.02-.05-.03-.07-.04l-.093-.03s-.07-.02-.11-.02c-.04-.01-.09-.01-.14 0-.05.01-.1 0-.15.01-.05 0-.09.01-.14.02l-.11.03c-.03.01-.07.02-.1.04l-.08.05c-.02.02-.04.03-.06.06-.02.03-.03.05-.04.07l-.03.09c0 .03-.01.07-.01.1-.71.03-1.06.03-1.77.02 0-.12 0-.23.02-.32.02-.1.05-.2.09-.28s.11-.16.18-.23c.07-.07.16-.14.26-.19.1-.06.22-.11.34-.16.13-.05.26-.09.41-.12.15-.03.31-.07.48-.09s.36-.04.56-.06l.28-.01h.27c.09 0 .17 0 .26.01s.16.01.24.02l.23.03c.07.01.14.02.2.04.07.01.13.02.18.04.06.02.11.04.15.06.06.03.11.05.16.08s.1.07.14.11c.04.03.08.06.12.1.03.04.07.08.09.12.03.04.05.1.07.14.02.05.04.11.05.16.02.07.04.14.05.2l.03.23c.09.96.14 1.44.24 2.42l.03.12c.02.04.03.07.05.1.02.03.05.06.08.08.03.02.06.04.1.06 0 .05 0 .08.01.13-.74.06-1.11.08-1.86.11-.05-.17-.08-.25-.14-.42zm-.335-1.435l-.15.06c-.06.02-.12.04-.186.06l-.2.07c-.108.04-.208.07-.29.1-.082.04-.152.07-.21.11-.052.04-.093.08-.115.12-.02.04-.03.09-.02.13 0 .03 0 .06.01.08.01.03.03.05.04.08.02.03.03.05.05.07.02.02.05.04.07.05.03.02.05.04.08.05.03.01.06.02.1.03.03.01.07.02.11.02.04.01.08.01.12.01.08-.01.15-.01.21-.02.07-.01.13-.02.19-.04s.11-.04.15-.06c.05-.02.08-.05.11-.09.03-.03.06-.07.08-.11.02-.04.04-.09.05-.14l.03-.17v-.33c0-.02-.01-.03-.01-.05l-.01-.03c-.01 0-.09.04-.14.05zm6.67 1.68c-.03-.23-.042-.34-.07-.56-.04.07-.08.14-.13.2l-.144.19c-.046.06-.106.11-.165.16-.058.05-.115.1-.174.14l-.18.12c-.07.04-.14.07-.21.1l-.22.06c-.08.02-.15.04-.23.05-.15.02-.29.03-.43.02s-.28-.03-.4-.07-.25-.1-.36-.16c-.12-.07-.23-.15-.33-.25s-.19-.21-.28-.32c-.08-.11-.15-.24-.21-.38s-.12-.29-.16-.44c-.04-.16-.07-.32-.09-.5-.02-.18-.03-.35-.02-.51 0-.16.03-.32.06-.46s.06-.28.12-.42c.06-.13.12-.27.2-.39.07-.12.16-.23.26-.33.09-.1.19-.19.3-.26.11-.08.23-.15.36-.2.12-.05.26-.09.39-.12.07-.02.13-.02.2-.03.06-.01.13-.01.19-.01.06-.01.12 0 .18 0s.11.02.17.03c.06.02.11.03.17.05.06.02.11.04.17.07.05.03.1.06.15.1l.16.11c-.1-.84-.14-1.26-.23-2.09.69-.19 1.04-.29 1.72-.52.29 2.5.45 3.77.79 6.35-.66.15-.98.22-1.64.35zm-.88-1.07c.053-.02.1-.06.14-.09.04-.03.086-.06.12-.11.03-.04.065-.09.093-.14.028-.05.05-.11.067-.17.02-.06.032-.12.042-.19.01-.06.018-.14.02-.22 0-.07-.004-.15-.014-.23-.012-.09-.03-.18-.047-.25-.016-.07-.032-.15-.054-.21-.02-.06-.05-.11-.08-.16s-.07-.09-.11-.12c-.04-.03-.08-.07-.12-.09-.04-.02-.09-.04-.14-.05-.05-.01-.1-.02-.16-.01s-.12.01-.18.02c-.07.02-.12.03-.18.05-.05.02-.11.05-.15.08-.05.03-.09.07-.12.11-.04.04-.07.09-.1.14-.02.05-.04.1-.06.16-.01.06-.03.12-.04.19-.01.07-.02.14-.02.22 0 .07.01.16.02.25.01.08.02.16.04.23.01.07.04.14.06.2s.04.12.07.17c.03.05.07.1.11.14.03.04.07.08.12.11.04.03.09.05.14.07.04.01.1.02.15.02.06 0 .12 0 .17-.01.06-.01.12-.02.17-.05z" fill="#0F4481"/><path opacity=".15" d="M171.984 91.76s-.707-5.855-10.617-3.835c-.908-1.312-1.928-2.572-3.05-3.773l5.286-15.355-4.105 1.825-1.414-5.303-4.375 1.54-1-3.21-6.42.96-1.38-4.29-5.83 1.2-1.51-3.92-6.51 14.14c-8.39-.55-16.28 1.41-22.43 5.26l-.01-.01c-11.8-7.03-7.59 6.88-7.59 6.88h.01c-2.1 2.78-3.6 5.96-4.35 9.46-3.12 14.65 8.12 29.6 25.44 34.65-12.71 4.66-27.22-2.54-27.46-2.66l-1.56 3.04-1.57 3.05c.82.42 15.87 7.97 30.55 3.86 1.71-.48 3.42-1.12 5.1-1.95-.36 2.74-1.23 5.57-3.16 7.29 0 0-18.38 8.49-12.68 21.47 0-.09 2.11-20.18 17.98-20.47l-.07-9.43c1.72-1.03 3.4-2.27 5.01-3.77 2.27-.31 5.13-.78 8.24-1.43l-3.29 15.51s-19.92 15.25-13.56 29.79c15.91 2.87 49.52 1.17 40.61-68.23.03-.81.02-1.61-.03-2.4 2.92-2.23 6.65-5.96 5.66-9.95zm-6.265 5.805c-.42-1.81-1.05-3.583-1.86-5.303 2.73.22 5.64 1.276 1.85 5.303z"/><path fill="#D0D2D3" d="M126.684 138.648c-14.688 4.105-29.73-3.438-30.56-3.86l3.127-6.097-1.56 3.05 1.56-3.05c.23.11 22.51 11.21 36.08-2.99l4.96 4.73c-4.17 4.37-8.86 6.9-13.59 8.22z"/><path fill="#3D1E17" d="M159.93 222.982l20.504-8.536-20.416 3.52"/><path fill="#5B372C" d="M158.082 216.03v6.247l1.848.705v-5.544"/><path fill="#9B674E" d="M139.19 141.754s-3.757-2.23-12.087-1.056c0 0-19.597-.117-24.643 0-5.045.116-13.142.82-16.78 5.866 0 0-1.76 4.226 5.984 5.047 0 0-.586 1.29-.234 2.7.353 1.41 4.694 42.24 3.52 47.76 0 0-1.877 3.76 4.812 2.94 0 0 2.23.59 3.05 1.53.823.94 12.79-10.44 12.79-10.44l27.223-13.26-.938-23.93s1.76-9.62 1.644-10.33c-.11-.7-2.22-6.68-4.34-6.8z"/><path fill="#7F513E" d="M116.63 185.58l-9.064-35.29-11.265-2.642-4.81 4.477c-.13.48-.25 1.244-.08 2.063 1.36.567 3.32 1.28 4.19 1.12 1.41-.266 7.04 11.88 7.22 13.815s-3.34 11.09-2.46 14.08l.88 2.992s-1.85 2.64-1.41 5.017c.41 2.212.14 11.742 3.01 15.32.42.395 3.23-1.853 6.11-4.362 3.77-6.474 7.7-16.59 7.7-16.59z"/><path fill="#8E5944" d="M91.666 151.61s4.107 1.993 5.164 1.76c0 0 5.632 11.733 5.632 14.198 0 2.166 31.843-4.467 39.53-6.1l-.104-2.584s1.76-9.622 1.644-10.326c-.117-.703-2.23-6.688-4.343-6.806 0 0-3.76-2.23-12.09-1.056 0 0-19.6-.117-24.64 0-5.05.117-13.14.82-16.78 5.867 0 0-1.76 4.227 5.98 5.048z"/><path fill="#3D1E17" d="M114.167 212.773l4.84-1.496-4.928-.263"/><path fill="#5B372C" d="M112.318 210.31v1.758l1.85.705v-2.377"/><path fill="#9B674E" d="M141.89 158.3s.233-8.803.233-9.507c0-.703-3.637-5.514-3.637-7.744 0-2.23-3.402-3.99 1.524-19.48 4.927-15.49 14.662-48.43 30.738-47.14l2.697 4.93-16.54 45.61-7.157 22.76-7.86 10.56z"/><path fill="#8E5944" d="M103.87 185.17s-2.464.94-2.7 4.576c-.233 3.638.94 17.484 2.465 18.54 1.525 1.057 11.616 2.464 13.61 3.638s32.153 7.04 35.79 6.688c3.64-.353 3.99-1.525 3.99-1.525l1.877-23-54.446-9.033"/><path fill="#774635" d="M104.34 166.747s-1.41-8.448-1.88-8.565c0 0 21.71-2.466 26.99 1.172 0 0 7.276-3.638 9.856-2.814 2.58.82 2.815-7.745 2.815-7.745l-.11 10.797-37.66 7.155z"/><path fill="#7C4A39" d="M141.89 158.886s-5.046-1.29-12.792.82l.234 8.332 25.7 1.76 2.462-9.386s-12.79-.822-15.605-1.526z"/><path fill="#8E5944" d="M153.387 163.814s-25.11-3.99-26.87-3.99c-1.76 0-7.392-1.76-12.556-.117 0 0-7.86 0-9.62 3.872-1.76 3.87-5.75 10.79-3.05 14.43 0 0 0 5.63 3.17 7.04 0 0 43.3 8.86 47.88 8.74 0 0 3.05-.53 6.81-2.05 3.76-1.53 5.52-24.41 5.52-24.41l-11.26-3.52z"/><path fill="#89523D" d="M212.17 38.158S211.13 26.668 194.963 26c0 0-19.75-5.5-24.684 13.096 0 0-10.44 71.093-11.38 72.97s-2.11 8.684-2.23 9.857c0 0 .53 1.466 2.29.528 1.76-.93 9.33-.64 10.85 1 0 0 9.74-1.05 10.56-.47.82.59 6.92 2.7 8.45 1.65 1.52-1.05 21.11-86.46 23.34-86.46z"/><path fill="#704637" d="M141.89 158.886s.04-.15.116-.42c.557-1.98 3.01-10.376 5.28-12.957 2.58-2.94 4.694-9.04 4.694-9.04s3.342-13.05 5.045-13.97c.38-.21.47-.24.47-.24s5.983-3.29 13.024.94c0 0 13.84-3.85 19.59 1.55l-6.69 21.91-.82 5.28-17.49 12.55-23.24-5.63zm77.99-72.64s1.644.585 1.76 1.876-11.693 60.2-11.693 60.2l-4.604-.282 14.538-61.795z"/><path fill="#9B674E" d="M182.254 146.682s17.266-107.94 27.71-111.932c0 0 23.99-9.768 25.5 2 1.728 13.455-15.427 52.137-19.25 74.75 0 0-7.09 32.718-9.67 34.946l-3.052 2.347-21.707-1.994"/><path fill="#845140" d="M105.366 185.314s-1.76.88-1.76 1.938 50.837 6.952 50.837 6.952l-49.077-8.89z"/><path fill="#D0D2D3" d="M81.325 189l-4.216-5.398c.92-.724 23.02-17.733 53.59-20.82l.69 6.814c-28.63 2.89-49.86 19.24-50.07 19.405z"/><path opacity=".15" d="M162.998 88.153s.303-6.806 5.445-7.713c0 0 15.727-8.62 18.9 3.025 3.178 11.644-1.058 33.874-2.87 39.167-1.815 5.294-6.655 26.314-6.655 26.314l-17.996 3.023"/><path fill="#FFF" d="M115.235 79.177c7.392-3.91 16.854-5.31 26.565-3.25 10.468 2.224 19.037 8 24.104 15.324 9.912-2.02 10.615 3.84 10.615 3.84.29 1.19.15 2.35-.24 3.46-21.66 4.55-49.15 1.36-61.05-19.36z"/><path fill="#D0D2D3" d="M105.602 87.227s-4.204-13.913 7.59-6.885c11.8 7.026-7.59 6.885-7.59 6.885z"/><path fill="#919496" d="M108.73 84.3s-4.79-7.446-2.155 1.718c2.632 9.168 2.155-1.72 2.155-1.72z"/><path fill="#FFF" d="M170.883 107.435c.588-14.183-11.607-27.796-29.082-31.508-19.09-4.054-37.23 5.245-40.53 20.77-3.29 15.522 9.51 31.393 28.6 35.446.72.152 1.43.28 2.15.396.06 3.49-.4 8.8-3.38 11.45 0 0-18.37 8.48-12.67 21.47.01-.09 2.11-20.18 17.99-20.47l-.08-12.61s5.97-.49 13.28-2.02l-3.29 15.5s-19.92 15.25-13.56 29.78c15.91 2.87 49.52 1.17 40.62-68.23z"/><path fill="#D0D2D3" d="M143.83 145.876l3.295-15.507c-7.305 1.53-13.24 2.02-13.24 2.02l.05 12.6c-15.873.28-17.975 20.38-17.98 20.46 1.11 2.53 1.746 3.44 5.01 6.29 0 0 4.562 3.05 9.306 3.91-6.35-14.54 13.56-29.79 13.56-29.79z"/><ellipse transform="rotate(-168 130.5 103.5)" fill="#D0D2D3" cx="130.504" cy="103.546" rx="30.028" ry="22.78"/><ellipse transform="rotate(-168 116.6 95.4)" fill="#FFF" cx="116.567" cy="95.355" rx="11.739" ry="11.571"/><ellipse transform="rotate(-168 143.2 101.3)" fill="#FFF" cx="143.217" cy="101.287" rx="14.487" ry="14.393"/><circle fill="#0071BC" cx="145.775" cy="101.908" r="11.219"/><path fill="#0F4481" d="M144.4 104.504c-1.54-2.79-.527-6.292 2.26-7.83 2.785-1.535 6.287-.524 7.828 2.264 1.535 2.785.522 6.29-2.262 7.827-2.787 1.537-6.292.524-7.826-2.26z"/><path fill="#FFF" d="M148.05 103.473c-.82-1.482-.278-3.343 1.2-4.16 1.48-.816 3.342-.28 4.162 1.2.814 1.482.273 3.345-1.205 4.162-1.482.817-3.34.277-4.158-1.202z"/><circle fill="#FFF" cx="144.068" cy="99.769" r="1.491"/><circle fill="#0071BC" cx="118.162" cy="95.843" r="9.315"/><path fill="#0F4481" d="M117.02 98c-1.275-2.315-.437-5.224 1.876-6.5 2.31-1.276 5.223-.436 6.5 1.88 1.274 2.312.434 5.222-1.88 6.498-2.31 1.273-5.22.433-6.497-1.878z"/><path fill="#FFF" d="M120.05 97.142c-.68-1.23-.232-2.774.997-3.452 1.227-.677 2.774-.234 3.454.997.68 1.23.23 2.775-1 3.455-1.22.676-2.77.23-3.45-1z"/><circle fill="#FFF" cx="116.745" cy="94.067" r="1.237"/><path fill="#BE1E2D" d="M121.4 112.65s.397 5.098-1.293 5c0 0 5.6 5.306 8.438-2.875 0 0-5.066-.44-5.97-2.196l-1.174.07z"/><path fill="#6C6F71" d="M122.12 112.835l-.02-.072c-.01-.065-.02-.18-.023-.313-.01-.153.022-.23.04-.354.02-.114.044-.237.067-.36.15-.44.302-.877.302-.877l.832.36-.298.75-.06.26c-.018.08-.05.18-.04.19-.002.03-.017.05-.022.08l.017.07-.794.24z"/><path fill="#6C6F71" d="M118.302 107.68c.267.754.22 1.378.298 2.013.09.622.292 1.207.653 1.616.357.41.866.65 1.46.75.293.05.607.06.923.07.318-.01.64-.04.97-.07l.206-.02.17.12c.324.23.7.46 1.063.67.37.21.756.38 1.14.56.774.33 1.58.56 2.393.64.81.08 1.627-.02 2.39-.3.386-.14.743-.34 1.11-.54.38-.19.754-.4 1.24-.55-.142.48-.414.88-.77 1.2-.35.33-.78.55-1.216.76-.88.4-1.88.57-2.844.5-.966-.07-1.896-.34-2.748-.73-.43-.19-.836-.43-1.23-.68-.394-.26-.76-.52-1.124-.86l.375.1c-.35.09-.71.15-1.08.18-.37.02-.75.04-1.13-.03-.76-.09-1.58-.47-2.11-1.14-.52-.67-.71-1.47-.74-2.21-.03-.74.04-1.51.62-2.09z"/><path fill="#1D8FCD" d="M120.16 108.56s3.658-4.655 4.017-1.712c0 0 2.767-2.64 1.714 2.322 0 0-2.29.938-2.75 2.567 0 0-1.89-1.27-2.98-3.177z"/><path fill="#FFF" d="M123.408 110.47s.28-.674 1.418-1.163c0 0-.08-1.423-1.418 1.163z"/><path fill="#6C6F71" d="M118.616 117.304l.032.38.047.882c.014.17.02.36.078.547.038.192.124.38.21.57.114.178.212.375.373.533.146.17.307.33.5.464.36.29.777.533 1.196.708.402.205.834.3 1.175.438.355.11.664.17.873.234.21.06.332.092.332.092l.037.01c.24.068.38.318.31.56-.07.228-.3.366-.53.32l-.36-.07c-.23-.05-.56-.113-.95-.22-.39-.133-.85-.248-1.31-.496-.24-.112-.48-.22-.71-.38-.23-.152-.48-.292-.68-.502-.22-.183-.41-.4-.58-.633-.19-.21-.31-.48-.43-.72-.1-.26-.18-.51-.21-.76-.05-.24-.04-.48-.04-.69.02-.21.05-.41.12-.57.05-.16.13-.29.2-.4.15-.2.27-.28.27-.28z"/><path fill="#919496" d="M166.44 94.125l1.91 8.563s13.87-11.318-1.91-8.563z"/><path fill="#D0D2D3" d="M163.533 91.837s-.95 2.815 1.65 3.788c0 0 14.065-1.503 2.018 8.003 0 0-1.44 1.518.45 3.53 0 0 10.47-5.7 8.88-12.072 0 0-.81-6.765-12.98-3.25z"/><path fill="#915E4A" d="M154.443 175.548s-4.224-12.32 3.756-21.356c0 0 6.1-7.275 17.13-6.22 0 0 28.63-4.106 34.61.353 0 0 7.04 4.226 5.04 9.39l-1.18.47-11.27 47.756s-.7.94-1.65 1.06c-.94.12-31.27 12.32-34.79 14.32l-12.2-2.58.53-43.18z"/><path fill="#9B674E" d="M172.828 160.97l-6.69 59.773-11.91-2.495.112-43.327s2.383-20.75 18.488-13.95z"/><path opacity=".15" d="M154.443 175.548s3.412-.06 4.434-1.194c1.02-1.134 4.084-8.506 5.443-8.847 1.36-.34 7.486-2.948 8.055.907 0 0 37.54-3.743 39.13-8.28l-50.474-.227s-7.61 11.348-6.58 17.64z"/><path fill="#8E5944" d="M154.445 175.62l1.965-1.13s5.28-14.256 8.447-13.728c3.168.528 7.305.704 7.746.617.438-.09 2.64.17 2.64.17s16.897-1.76 19.097-1.15c1.7.47 13.525-1.05 19.473-2.21l.006-.02 1.17-.47c1.99-5.17-5.05-9.39-5.05-9.39-5.99-4.46-34.62-.35-34.62-.35-11.03-1.06-17.13 6.22-17.13 6.22-7.98 9.03-3.76 21.35-3.76 21.35v.07z"/><path fill="#5B372C" d="M66.356 201.292l1.76 24.112-2.64-1.23-1.76-22.356"/><path fill="#3D1E17" d="M66.18 198.827l3.344 3.168 1.232 21.826-2.64 1.59"/><path fill="#5B372C" d="M88.182 205.69l1.76 24.115-2.64-1.232-1.76-22.354"/><path fill="#3D1E17" d="M88.005 203.23l3.344 3.166 1.23 21.827-2.64 1.582"/><path fill="#5B372C" d="M111.943 201.818l1.76 24.116-2.64-1.233-1.76-22.35"/><path fill="#3D1E17" d="M111.767 199.355l3.344 3.168 1.24 21.827-2.64 1.584"/><path fill="#5B372C" d="M94.342 196.715l1.76 24.113-2.64-1.23-1.76-22.355"/><path fill="#3D1E17" d="M94.166 194.25l3.344 3.17 1.232 21.824-2.64 1.584"/><path fill="#9B674E" d="M57.537 200.148s-1.346-7.066 2.524-8.244 26.09-3.365 27.77-3.03c1.69.338 33.66 4.376 35.67 5.554 2.02 1.178 3.87 7.908 2.19 9.086-1.68 1.178-28.77 5.723-29.95 5.723-1.17-.003-35.5-6.733-38.19-9.09z"/><path fill="#7F513E" d="M95.732 209.234c1.178 0 28.27-4.543 29.952-5.722 1.493-1.045.2-6.46-1.52-8.485l-.668-.6s-22.466 5.807-25.46 6.51c-2.99.708-2.304 8.297-2.304 8.297z"/><path fill="#FFF" d="M168.97 129.105s.22.053.636.15l1.75.44c1.502.39 3.63.985 6.168 1.784 2.543.8 5.49 1.81 8.607 3.22 1.57.7 3.17 1.5 4.77 2.56.81.53 1.61 1.12 2.39 1.86.77.74 1.56 1.63 2.12 2.88.28.62.49 1.34.55 2.11.04.38.02.77-.01 1.15l-.09.56-.12.48c-.07.23-.07.35-.21.72-.12.31-.24.66-.37.93s-.27.53-.41.79l-.48.73c-1.38 1.89-3.15 3.12-4.81 3.99-1.68.89-3.31 1.46-4.83 1.97-1.52.49-2.95.87-4.25 1.19-2.6.63-4.68 1.13-6.02 1.52-.68.19-1.16.36-1.48.47l-.46.17-2.26-6.47.73-.21c.45-.12 1.12-.29 1.92-.44 1.6-.34 3.79-.63 6.28-1.09 1.24-.23 2.56-.49 3.9-.83 1.33-.34 2.7-.77 3.93-1.35 1.24-.57 2.31-1.31 3-2.16l.24-.33.2-.34c.07-.12.08-.17.14-.26.04-.02.12-.33.18-.51l.05-.15.03-.08.02-.04c-.07.27-.02.07-.03.13v-.01c.01-.03.01-.05.02-.08.01-.05.02-.1.02-.15 0-.1-.02-.23-.09-.4-.26-.72-1.35-1.81-2.56-2.64-1.22-.86-2.61-1.63-3.99-2.3-2.78-1.33-5.58-2.34-7.98-3.15-2.42-.8-4.48-1.35-5.91-1.73l-1.67-.43-.58-.13 1.05-4.6z"/><path fill="none" stroke="#FFF" stroke-width="7.551" stroke-miterlimit="10" d="M89.917 191.82s21.966-19.887 51.91-22.91"/><g fill="#D0D2D3"><path d="M79.36 184.244c.04-.09.083-.17.125-.26.762 2.328 2.09 2.662 3.137 4.276.834 6.937-1.574 6.028-1.574 6.028l-16.194-21.475c-5.047-.83-2.043-4.52-2.043-4.52-5.33-1.472-2.06-4-2.06-4-3.16-.12-1.89-4.18-1.89-4.18 8.09-5.052 20.51 24.13 20.51 24.13z"/><path d="M65.187 171.377s4.35-.982 4.69 5.507c-.003 0 .732-7.566-4.69-5.507zm-1.77-3.91s3.654-1.298 3.456 1.336c0 0-.284-1.78-3.457-1.337z"/></g><path fill="#D0D2D3" d="M145.72 142.37s15.237-1.74 16.372 1.437l-.21 4.744-5.5 1.31-10.66-7.48z"/><path fill="#CCA21F" d="M141.75 65.242l7.713-1.588 1.814 5.67-6.125 2.723m9.756-.68l7.71-2.722 1.818 6.805-6.125 2.722"/><path fill="#F1C119" d="M135.172 76.055l6.957-15.123 3.02 7.864 12.1-1.814 2.72 8.77 8.16-3.628-6.35 18.45s-17.85-1.513-26.62-14.52z"/><path fill="#D0D2D3" d="M163.904 152.54s1.777-4.728 5.37-4.272l.075 4.8-5.71.114.26-.643z"/><path fill="#BCA577" d="M163.695 147.838c-.77 0-1.707.162-2.668.47v-2.77h-.017c-.274-1.918-5.385-3.447-11.646-3.447-6.262 0-11.37 1.53-11.646 3.45h-.02v20.7h.01c.05 1.98 5.25 3.59 11.657 3.59 6.41 0 11.608-1.6 11.657-3.58h.005v-1.62c.96.31 1.9.47 2.668.47 3.26 0 5.91-2.65 5.91-5.91v-5.42c.002-3.26-2.65-5.91-5.91-5.91zm2.463 11.332c0 1.357-1.105 2.464-2.463 2.464-.818 0-1.81-.306-2.668-.72v-8.907c.858-.414 1.85-.72 2.668-.72 1.356 0 2.463 1.105 2.463 2.464v5.42z"/><path fill="#42210B" d="M149.365 147.646c-5.62 0-9.215-1.105-9.215-1.942 0-.836 3.596-1.942 9.215-1.942 5.62 0 9.217 1.106 9.217 1.942s-3.596 1.942-9.217 1.942z"/><path fill="#FFF" d="M176.154 151.82s-.908-3.78-5.596-3.78-2.722.794-2.27 3.817c0 0-1.56.975-2.807.748-.92-.17-1.36-.71-2.4.312-1.89 1.842-.07 4.935 1.14 4.935 0 0-2.46 3.28 2.84 3.8 0 0 6.89.55 8.85-3.232 1.97-3.782.27-6.6.27-6.6z"/><path fill="#D0D2D3" d="M164.813 157.87s2.875.228 3.857-.378c0 0-1.06 1.89-3.857.377z"/><text transform="translate(140.3 157.7)" fill="#0F4481" font-family="'Blumrblack'" font-size="10.889">#1</text><path d="M139.854 160.19c.93.138 1.396.19 2.336.264l.416.036.367.03c.11.014.217.025.31.036.09.012.176.03.254.047.07.015.144.026.21.045.068.018.138.033.205.057.063.02.122.042.185.064.063.02.122.04.18.07.104.05.21.11.31.18.1.06.19.14.273.22.082.07.166.15.24.24.074.09.144.18.202.27.063.1.114.2.16.31.048.11.092.22.13.35.038.12.07.25.092.38.023.13.043.27.056.42.012.14.01.29.006.43-.005.14-.015.27-.036.4s-.06.24-.1.36-.092.22-.147.32c-.055.1-.115.19-.192.27-.07.08-.16.16-.24.23-.09.06-.19.12-.3.18-.1.05-.23.09-.35.13-.04.01-.1.03-.15.04-.05.01-.11.01-.18.02s-.12.01-.19.01-.14.01-.21 0c-.07 0-.16-.01-.26-.02l-.32-.03c-.11-.01-.25-.03-.39-.06-.14-.02-.29-.05-.45-.07-.79-.14-1.19-.23-1.97-.41-.16-1.99-.24-2.96-.4-4.87zm2.753 4.05c.12.016.23.023.334.025.11.002.2-.005.28-.018.09-.014.17-.034.23-.06.07-.028.12-.066.16-.11.04-.04.08-.09.11-.15.03-.063.06-.138.07-.214.02-.078.03-.17.03-.27 0-.102 0-.21-.01-.333-.01-.115-.02-.227-.04-.327s-.04-.195-.07-.273c-.03-.083-.07-.163-.11-.23-.04-.067-.09-.128-.14-.177-.06-.057-.12-.104-.18-.146s-.15-.07-.23-.1c-.08-.03-.17-.058-.27-.077-.1-.02-.21-.037-.32-.05-.22-.02-.32-.03-.54-.06l.19 2.485c.22.038.32.054.53.084zm7.08 1.826c-.054.046-.11.092-.17.135-.06.05-.12.09-.177.13-.056.04-.117.07-.183.1-.064.03-.134.05-.195.08-.063.03-.132.06-.202.07s-.146.02-.22.04c-.075.01-.153.03-.23.03h-.253c-.128 0-.253-.01-.37-.03-.115-.02-.228-.04-.33-.07-.1-.03-.194-.07-.283-.11-.09-.05-.177-.1-.248-.15-.075-.06-.144-.13-.202-.2-.06-.07-.11-.15-.15-.23-.043-.08-.078-.17-.104-.26-.025-.09-.034-.19-.04-.29-.008-.1-.015-.19-.003-.27.01-.09.035-.17.063-.24.025-.07.06-.14.104-.2.048-.06.104-.12.168-.16s.153-.08.25-.12c.095-.04.208-.07.336-.11.128-.04.27-.07.427-.1.156-.03.33-.06.52-.09l.08-.01c.026 0 .06 0 .095-.01l.104-.01.116-.01c.14-.03.27-.05.373-.08s.196-.06.263-.1c.067-.03.12-.09.15-.13.033-.05.048-.1.04-.15l-.02-.08c-.01-.02-.023-.05-.038-.07-.012-.02-.03-.04-.054-.05-.022-.02-.05-.03-.07-.04l-.093-.03s-.07-.02-.11-.02c-.04-.01-.09-.01-.14 0-.05.01-.1 0-.15.01-.05 0-.09.01-.14.02l-.11.03c-.03.01-.07.02-.1.04l-.08.05c-.02.02-.04.03-.06.06-.02.03-.03.05-.04.07l-.03.09c0 .03-.01.07-.01.1-.71.03-1.06.03-1.77.02 0-.12 0-.23.02-.32.02-.1.05-.2.09-.28s.11-.16.18-.23c.07-.07.16-.14.26-.19.1-.06.22-.11.34-.16.13-.05.26-.09.41-.12.15-.03.31-.07.48-.09s.36-.04.56-.06l.28-.01h.27c.09 0 .17 0 .26.01s.16.01.24.02l.23.03c.07.01.14.02.2.04.07.01.13.02.18.04.06.02.11.04.15.06.06.03.11.05.16.08s.1.07.14.11c.04.03.08.06.12.1.03.04.07.08.09.12.03.04.05.1.07.14.02.05.04.11.05.16.02.07.04.14.05.2l.03.23c.09.96.14 1.44.24 2.42l.03.12c.02.04.03.07.05.1.02.03.05.06.08.08.03.02.06.04.1.06 0 .05 0 .08.01.13-.74.06-1.11.08-1.86.11-.05-.17-.08-.25-.14-.42zm-.335-1.435l-.15.06c-.06.02-.12.04-.186.06l-.2.07c-.108.04-.208.07-.29.1-.082.04-.152.07-.21.11-.052.04-.093.08-.115.12-.02.04-.03.09-.02.13 0 .03 0 .06.01.08.01.03.03.05.04.08.02.03.03.05.05.07.02.02.05.04.07.05.03.02.05.04.08.05.03.01.06.02.1.03.03.01.07.02.11.02.04.01.08.01.12.01.08-.01.15-.01.21-.02.07-.01.13-.02.19-.04s.11-.04.15-.06c.05-.02.08-.05.11-.09.03-.03.06-.07.08-.11.02-.04.04-.09.05-.14l.03-.17v-.33c0-.02-.01-.03-.01-.05l-.01-.03c-.01 0-.09.04-.14.05zm6.67 1.68c-.03-.23-.042-.34-.07-.56-.04.07-.08.14-.13.2l-.144.19c-.046.06-.106.11-.165.16-.058.05-.115.1-.174.14l-.18.12c-.07.04-.14.07-.21.1l-.22.06c-.08.02-.15.04-.23.05-.15.02-.29.03-.43.02s-.28-.03-.4-.07-.25-.1-.36-.16c-.12-.07-.23-.15-.33-.25s-.19-.21-.28-.32c-.08-.11-.15-.24-.21-.38s-.12-.29-.16-.44c-.04-.16-.07-.32-.09-.5-.02-.18-.03-.35-.02-.51 0-.16.03-.32.06-.46s.06-.28.12-.42c.06-.13.12-.27.2-.39.07-.12.16-.23.26-.33.09-.1.19-.19.3-.26.11-.08.23-.15.36-.2.12-.05.26-.09.39-.12.07-.02.13-.02.2-.03.06-.01.13-.01.19-.01.06-.01.12 0 .18 0s.11.02.17.03c.06.02.11.03.17.05.06.02.11.04.17.07.05.03.1.06.15.1l.16.11c-.1-.84-.14-1.26-.23-2.09.69-.19 1.04-.29 1.72-.52.29 2.5.45 3.77.79 6.35-.66.15-.98.22-1.64.35zm-.88-1.07c.053-.02.1-.06.14-.09.04-.03.086-.06.12-.11.03-.04.065-.09.093-.14.028-.05.05-.11.067-.17.02-.06.032-.12.042-.19.01-.06.018-.14.02-.22 0-.07-.004-.15-.014-.23-.012-.09-.03-.18-.047-.25-.016-.07-.032-.15-.054-.21-.02-.06-.05-.11-.08-.16s-.07-.09-.11-.12c-.04-.03-.08-.07-.12-.09-.04-.02-.09-.04-.14-.05-.05-.01-.1-.02-.16-.01s-.12.01-.18.02c-.07.02-.12.03-.18.05-.05.02-.11.05-.15.08-.05.03-.09.07-.12.11-.04.04-.07.09-.1.14-.02.05-.04.1-.06.16-.01.06-.03.12-.04.19-.01.07-.02.14-.02.22 0 .07.01.16.02.25.01.08.02.16.04.23.01.07.04.14.06.2s.04.12.07.17c.03.05.07.1.11.14.03.04.07.08.12.11.04.03.09.05.14.07.04.01.1.02.15.02.06 0 .12 0 .17-.01.06-.01.12-.02.17-.05z" fill="#0F4481"/><path fill="#FFF" d="M89.945 189.387c.04-.09.084-.17.126-.26.77 2.328 2.1 2.663 3.14 4.275.84 6.937-1.57 6.03-1.57 6.03l-16.2-21.475c-5.04-.83-2.04-4.52-2.04-4.52-5.33-1.472-2.06-4-2.06-4-3.16-.118-1.89-4.18-1.89-4.18 8.09-5.056 20.51 24.13 20.51 24.13z"/><path fill="#D0D2D3" d="M74.26 173.042s4.35-.983 4.69 5.506c-.003 0 .733-7.566-4.69-5.506zm-1.77-3.912s3.655-1.297 3.457 1.337c0 0-.284-1.78-3.457-1.337z"/><defs><path id="a" d="M82.762 138.73l.403-.388c.13 1.394 1.385 2.783 2.787 3.09l-.404.388c-1.4-.306-2.654-1.696-2.786-3.09z"/></defs><clipPath id="b"><use xlink:href="#a" overflow="visible"/></clipPath><g clip-path="url(#b)"><path fill="#0D0D0D" d="M82.762 138.73l.403-.388.007.07-.403.387-.01-.07m.01.07l.4-.39.01.11-.41.39-.02-.11m.02.11l.4-.39c0 .04.01.07.02.11l-.41.39c-.01-.04-.02-.08-.02-.12"/><path fill="#0E0E0E" d="M82.806 139.025l.403-.39c0 .04.01.077.02.115l-.41.387-.03-.112m.02.115l.4-.388.03.12-.41.386-.04-.12m.03.12l.4-.387c.01.05.02.09.04.13l-.41.39-.04-.12"/><path fill="#0F0F0F" d="M82.902 139.38l.404-.387c.014.043.03.086.046.13l-.404.386-.046-.13"/><path fill="#0F0F0F" d="M82.948 139.51l.404-.387.056.137-.403.387c-.02-.045-.04-.092-.057-.138"/><path fill="#0F0F0F" d="M83.005 139.646l.403-.388c.02.05.045.1.07.147l-.405.388c-.024-.048-.046-.097-.068-.147"/><path fill="#101010" d="M83.073 139.795l.404-.388c.026.056.055.108.085.164l-.404.39c-.03-.05-.058-.1-.085-.16m.087.16l.403-.38c.036.07.075.14.116.2l-.41.39-.12-.19"/><path fill="#101010" d="M83.275 140.152l.403-.387c.062.096.126.188.195.278l-.403.388c-.07-.08-.135-.18-.195-.27"/><path fill="#111" d="M83.47 140.432l.404-.387c.145.188.308.366.483.527l-.403.387c-.177-.17-.34-.34-.483-.53"/><path fill="#101010" d="M83.954 140.96l.403-.388c.082.074.167.146.254.214l-.4.388c-.08-.07-.17-.14-.25-.215"/><path fill="#101010" d="M84.208 141.174l.403-.388c.06.046.13.09.19.134l-.4.387c-.06-.043-.12-.087-.18-.133"/><path fill="#101010" d="M84.39 141.307l.404-.387c.053.035.105.07.16.104l-.405.387c-.06-.03-.11-.06-.16-.1"/><path fill="#0F0F0F" d="M84.55 141.41l.403-.39c.046.03.093.057.14.083l-.403.387c-.047-.025-.095-.052-.14-.08"/><path fill="#0F0F0F" d="M84.69 141.49l.403-.387.13.07-.402.385-.13-.068m.13.07l.41-.386.13.06-.4.387c-.04-.01-.08-.04-.13-.06"/><path fill="#0E0E0E" d="M84.948 141.62l.403-.388c.04.02.08.035.12.05l-.4.39-.12-.053"/><path fill="#0E0E0E" d="M85.067 141.67l.403-.387c.04.017.078.03.117.045l-.404.387-.116-.044m.117.05l.404-.38.114.04-.404.39-.114-.03"/><path fill="#0D0D0D" d="M85.297 141.753l.404-.388c.04.013.08.022.12.033l-.4.387-.11-.032"/><path fill="#0D0D0D" d="M85.41 141.785l.403-.387c.037.01.074.02.11.027l-.402.387-.11-.027m.11.028l.41-.387c.01.002.02.006.03.006l-.4.39-.02-.01"/></g><path fill="#0E0E0E" d="M85.55 141.82l.403-.386 20.31 4.435-.403.38"/><defs><path id="c" d="M108.054 145.46c-.134.13-.27.257-.403.388-.41.398-1.05.57-1.79.408l.41-.387c.74.16 1.38-.01 1.79-.41z"/></defs><clipPath id="d"><use xlink:href="#c" overflow="visible"/></clipPath><g clip-path="url(#d)"><path fill="#0D0D0D" d="M105.86 146.256l.403-.387c.028 0 .056.01.084.01l-.404.38c-.028-.01-.055-.01-.083-.02"/><path fill="#0C0C0C" d="M105.943 146.273l.404-.388.11.02-.404.386c-.036 0-.073-.01-.11-.01"/><path fill="#0C0C0C" d="M106.053 146.29l.403-.386c.037.006.074.01.11.014l-.402.387c-.038-.004-.074-.008-.11-.014"/><path fill="#0C0C0C" d="M106.164 146.305l.403-.387.11.01-.404.385c-.037 0-.073-.004-.11-.008"/><path fill="#0B0B0B" d="M106.273 146.313l.403-.386c.04 0 .076.003.114.003l-.403.387c-.038 0-.076-.003-.114-.004"/><path fill="#0B0B0B" d="M106.387 146.316l.403-.388c.04 0 .077 0 .115-.002l-.404.386c-.03.004-.07.004-.11.004m.11-.003l.41-.386c.04-.002.08-.005.12-.01l-.4.387c-.04.005-.07.01-.12.01"/><path fill="#0A0A0A" d="M106.62 146.305l.404-.387c.043-.004.086-.01.127-.018l-.4.388c-.04.007-.08.013-.12.017"/><path fill="#0A0A0A" d="M106.748 146.288l.403-.388c.05-.008.1-.018.14-.027l-.4.387c-.04.01-.09.02-.13.028"/><path fill="#0A0A0A" d="M106.883 146.26l.403-.387c.052-.014.102-.027.15-.044l-.403.38c-.048.01-.098.03-.15.04"/><path fill="#090909" d="M107.034 146.216l.404-.387c.064-.03.126-.05.187-.08l-.403.39c-.06.02-.123.05-.188.07"/><path fill="#090909" d="M107.22 146.143l.404-.39c.16-.075.304-.174.43-.294l-.404.38c-.124.12-.268.21-.43.29"/></g><defs><path id="e" d="M108.054 145.46c-.066.063-.134.13-.202.192l-.202.193c.376-.36.575-.906.513-1.566l.404-.39c.062.66-.137 1.21-.513 1.56z"/></defs><clipPath id="f"><use xlink:href="#e" overflow="visible"/></clipPath><g clip-path="url(#f)"><path d="M108.163 144.28l.404-.388c0 .014.002.026.003.04l-.404.39c0-.013 0-.03-.003-.043"/><path d="M108.167 144.32l.404-.387c.01.037.01.073.01.11l-.4.388v-.11"/><path d="M108.173 144.432l.403-.388v.108l-.402.39v-.11"/><path d="M108.174 144.54l.403-.388c0 .037 0 .074-.004.11l-.403.386c.003-.035.004-.07.004-.107"/><path d="M108.17 144.648l.404-.387c-.002.04-.005.08-.01.12l-.403.39c.01-.03.01-.07.01-.11m-.01.11l.41-.38c0 .04-.01.08-.01.11l-.4.39c.01-.03.01-.07.02-.11"/><path d="M108.146 144.87l.403-.386-.03.117-.41.39c.01-.04.01-.08.02-.12m-.02.12l.4-.39c-.01.05-.02.09-.03.13l-.41.39.03-.12m-.02.11l.4-.38c-.02.05-.03.09-.05.13l-.4.39c.01-.04.03-.08.04-.13m-.03.12l.4-.38-.06.15-.41.39c.02-.04.04-.09.06-.14"/><path d="M107.988 145.38l.403-.387c-.02.06-.06.12-.09.175l-.4.387c.04-.057.07-.116.1-.175"/><path d="M107.89 145.555l.403-.387c-.07.107-.15.205-.24.29l-.403.39c.09-.088.17-.186.24-.293"/></g><defs><path id="g" d="M108.626 146.048l-.202.193-.202.2c.48-.46.734-1.15.654-2l.403-.39c.08.85-.18 1.54-.66 2z"/></defs><clipPath id="h"><use xlink:href="#g" overflow="visible"/></clipPath><g clip-path="url(#h)"><path fill="#0D0D0D" d="M108.877 144.436l.403-.387.005.05-.403.39-.005-.06"/><path fill="#0C0C0C" d="M108.88 144.488l.404-.387c.004.05.006.1.008.15l-.404.39c0-.04-.003-.09-.007-.14"/><path fill="#0C0C0C" d="M108.89 144.63l.403-.388c0 .047.002.094 0 .14l-.403.388v-.14m0 .14l.405-.388c0 .047-.002.093-.005.14l-.403.388c.002-.048.004-.094.004-.14"/><path fill="#0B0B0B" d="M108.886 144.908l.403-.387-.02.15-.41.39c0-.04.01-.09.01-.14m-.01.14l.4-.38c-.01.05-.01.1-.02.14l-.41.39.02-.14"/><path fill="#0B0B0B" d="M108.855 145.19l.403-.388c-.008.053-.018.103-.03.15l-.403.388c.012-.048.022-.1.03-.15"/><path fill="#0A0A0A" d="M108.826 145.342l.404-.388c-.012.053-.026.104-.04.155l-.404.38c.014-.05.028-.1.04-.16"/><path fill="#0A0A0A" d="M108.786 145.496l.403-.387-.06.16-.41.39c.02-.06.04-.11.05-.17m-.06.16l.4-.39c-.03.06-.05.12-.08.18l-.41.38c.03-.06.05-.12.08-.18"/><path fill="#090909" d="M108.653 145.84l.404-.387c-.038.076-.08.15-.125.222l-.403.388c.04-.072.08-.146.12-.223"/><path fill="#090909" d="M108.53 146.063l.402-.388c-.087.138-.19.263-.306.373l-.403.388c.115-.112.218-.238.306-.373"/></g><path fill="#0E0E0E" d="M79.803 107.308l.403-.387 2.96 31.43-.404.39"/><defs><path id="i" d="M80.313 105.75c.04-.04.08-.08.12-.117l.284-.27c-.375.357-.573.9-.51 1.558l-.404.39c-.062-.65.136-1.2.51-1.56z"/></defs><clipPath id="j"><use xlink:href="#i" overflow="visible"/></clipPath><g clip-path="url(#j)"><path fill="#090909" d="M80.313 105.75l.404-.388c-.09.087-.17.185-.24.292l-.403.387c.07-.1.15-.2.24-.29"/><path fill="#090909" d="M80.074 106.04l.403-.386c-.035.055-.067.113-.096.173l-.4.387c.03-.06.06-.118.1-.173"/><path fill="#0A0A0A" d="M79.978 106.214l.403-.387-.06.14-.4.388.06-.14"/><path fill="#0A0A0A" d="M79.917 106.355l.403-.387c-.016.042-.03.084-.042.127l-.403.387c.012-.044.026-.086.042-.127"/><path fill="#0A0A0A" d="M79.874 106.482l.403-.387c-.012.04-.022.08-.03.12l-.404.388.03-.12"/><path fill="#0B0B0B" d="M79.843 106.603l.403-.387c-.01.038-.016.077-.023.117l-.403.387c.006-.04.014-.08.023-.117"/><path fill="#0B0B0B" d="M79.82 106.72l.403-.387c-.006.036-.01.073-.015.11l-.404.386.016-.11m-.015.11l.404-.39c-.01.03-.01.07-.01.11l-.41.38c0-.04 0-.08.01-.11"/><path fill="#0C0C0C" d="M79.795 106.94l.404-.386c-.01.035-.01.07-.01.108l-.41.387v-.11m0 .1l.4-.39v.11l-.41.39v-.11m0 .11l.4-.39v.11l-.4.38-.01-.11"/><path fill="#0D0D0D" d="M79.8 107.267l.402-.387.003.042-.403.387c0-.02-.002-.03-.003-.05"/></g><defs><path id="k" d="M80.313 105.75l.1-.098.162-.155.142-.135c.42-.402 1.06-.572 1.8-.41l-.404.387c-.74-.17-1.38 0-1.8.41z"/></defs><clipPath id="l"><use xlink:href="#k" overflow="visible"/></clipPath><g clip-path="url(#l)"><path d="M80.313 105.75l.404-.388c.125-.12.27-.218.43-.294l-.404.387c-.16.075-.305.174-.43.294"/><path d="M80.744 105.454l.403-.387c.06-.028.123-.054.188-.075l-.404.387c-.06.02-.12.04-.18.07"/><path d="M80.93 105.38l.405-.388c.05-.017.1-.032.152-.044l-.403.387c-.053.012-.104.027-.153.044"/><path d="M81.083 105.334l.403-.387c.045-.01.09-.02.137-.028l-.403.38-.137.03m.137-.03l.403-.39.128-.02-.4.39c-.04 0-.08.01-.12.01m.13-.02l.41-.39.12-.01-.4.39-.12.01m.12-.01l.41-.39c.04 0 .08-.01.12 0l-.4.39h-.12"/><path d="M81.583 105.278l.403-.387c.038 0 .076.01.114.01l-.403.39h-.114"/><path d="M81.698 105.28l.403-.386.12.008-.4.388-.11-.01"/><path d="M81.808 105.29l.404-.388.11.014-.403.387-.12-.013"/><path d="M81.92 105.303l.403-.387c.036.006.073.012.11.02l-.403.386c-.038-.008-.074-.014-.11-.02"/><path d="M82.03 105.32l.402-.386c.028.005.056.01.084.017l-.404.39-.083-.01"/></g><defs><path id="m" d="M79.75 105.153l.403-.387c.535-.513 1.35-.73 2.296-.524l-.41.387c-.95-.21-1.76.01-2.3.52z"/></defs><clipPath id="n"><use xlink:href="#m" overflow="visible"/></clipPath><g clip-path="url(#n)"><path fill="#090909" d="M79.75 105.153l.403-.387c.16-.153.344-.28.55-.376l-.404.387c-.21.097-.39.223-.55.376"/><path fill="#090909" d="M80.3 104.777l.402-.387c.077-.037.157-.07.24-.096l-.404.387c-.082.03-.162.06-.24.1"/><path fill="#0A0A0A" d="M80.54 104.68l.402-.386c.063-.02.128-.04.193-.056l-.403.387c-.066.016-.13.034-.193.056"/><path fill="#0A0A0A" d="M80.732 104.625l.403-.387c.057-.014.115-.026.174-.036l-.41.387-.18.03m.17-.04l.4-.39c.05-.01.1-.02.16-.02l-.41.38c-.06 0-.11.01-.17.02"/><path fill="#0B0B0B" d="M81.07 104.566l.403-.387c.05-.01.102-.01.153-.02l-.403.38-.153.01m.152-.01l.403-.39c.048-.01.098-.01.147-.01l-.403.39h-.15m.15.02l.4-.39h.14l-.41.38-.15-.01"/><path fill="#0C0C0C" d="M81.516 104.556l.403-.386.14.01-.41.387-.14-.01"/><path fill="#0C0C0C" d="M81.656 104.567l.404-.387c.046.005.094.01.142.018l-.403.387-.15-.018"/><path fill="#0C0C0C" d="M81.798 104.584l.403-.387.15.022-.4.38-.14-.02"/><path fill="#0D0D0D" d="M81.94 104.607l.402-.387.107.022-.41.387-.11-.03"/></g><path d="M105.204 112.856l.403-.387 2.96 31.42-.404.38m-26.05-38.94l.404-.39 20.31 4.43-.403.38"/><path fill="#0E0E0E" d="M105.917 113.012l.404-.387 2.96 31.424-.4.38m-26.83-39.8l.41-.39 20.31 4.43-.4.38"/><defs><path id="o" d="M102.827 109.388c1.402.306 2.65 1.69 2.78 3.082l-.403.387c-.13-1.393-1.378-2.775-2.78-3.082.12-.113.238-.228.356-.34.014-.016.033-.034.047-.047z"/></defs><clipPath id="p"><use xlink:href="#o" overflow="visible"/></clipPath><g clip-path="url(#p)"><path d="M102.424 109.774l.403-.387.028.006-.404.387-.02-.006"/><path d="M102.452 109.78l.404-.386c.037.008.075.018.112.028l-.404.387-.112-.03"/><path d="M102.563 109.81l.404-.388c.038.01.075.02.112.033l-.41.387-.12-.033m.12.03l.4-.39.11.04-.41.38-.12-.04m.11.04l.4-.39.11.04-.4.38-.12-.04m.11.04l.4-.39.12.05-.41.38-.12-.05m.12.05l.4-.39.13.06-.41.38-.13-.06m.13.06l.41-.38.13.07-.41.38-.13-.07m.14.07l.4-.39.14.08-.41.38c-.05-.03-.1-.06-.14-.08m.15.08l.4-.39c.05.03.1.06.16.1l-.41.38c-.05-.04-.1-.07-.16-.11m.16.1l.4-.39.18.13-.41.39c-.06-.04-.12-.09-.18-.13m.18.13l.4-.39c.09.06.17.13.25.21l-.4.38c-.08-.08-.16-.15-.25-.22m.25.21l.41-.39c.18.16.34.33.48.52l-.4.39c-.14-.19-.3-.36-.48-.52m.48.52l.4-.39c.07.09.14.18.2.28l-.41.38c-.06-.1-.12-.19-.19-.28m.18.29l.4-.39c.04.07.08.13.11.2l-.4.39c-.04-.06-.08-.13-.12-.19m.12.18l.4-.39c.03.06.06.11.09.17l-.4.39-.08-.16m.08.17l.4-.39.07.15-.41.38-.06-.15m.07.15l.41-.38.06.14-.4.39-.05-.14m.04.15l.4-.39c.02.04.03.08.05.13l-.41.38-.05-.13m.05.14l.4-.39.04.12-.4.38-.04-.12m.04.12l.4-.39.03.12-.41.38-.04-.12m.03.12l.41-.39.03.11-.41.39-.03-.11m.03.11l.4-.39c.01.04.01.07.02.11l-.41.38-.02-.12m.02.11l.4-.39.01.11-.4.39-.02-.12m.02.12l.4-.39v.07l-.41.38-.01-.07"/></g><path fill="#1E1E1E" d="M102.357 109.065c1.79.392 3.393 2.167 3.56 3.946l2.96 31.43c.168 1.79-1.16 2.92-2.952 2.52l-20.31-4.43c-1.796-.39-3.393-2.16-3.562-3.94l-2.96-31.42c-.166-1.78 1.155-2.91 2.953-2.52l20.31 4.44zm5.806 35.214l-2.96-31.43c-.13-1.4-1.377-2.78-2.78-3.08l-20.31-4.44c-1.402-.31-2.442.57-2.312 1.97l2.96 31.42c.13 1.39 1.39 2.78 2.79 3.09l20.31 4.43c1.41.3 2.44-.59 2.31-1.98"/><path fill="#141414" d="M102.424 109.774c1.402.307 2.65 1.69 2.78 3.082l2.96 31.423c.13 1.39-.903 2.28-2.304 1.97l-20.31-4.44c-1.402-.31-2.656-1.7-2.788-3.09l-2.96-31.43c-.13-1.4.91-2.28 2.313-1.97l20.31 4.43z"/><defs><path id="q" d="M102.357 109.065l.404-.386c1.79.39 3.4 2.16 3.57 3.94l-.4.38c-.17-1.78-1.77-3.56-3.56-3.95z"/></defs><clipPath id="r"><use xlink:href="#q" overflow="visible"/></clipPath><g clip-path="url(#r)"><path fill="#0D0D0D" d="M102.357 109.065l.404-.386h.04l-.4.38-.03-.01"/><path fill="#0D0D0D" d="M102.392 109.074l.404-.387c.047.01.095.023.143.036l-.41.387-.15-.036"/><path fill="#0D0D0D" d="M102.535 109.11l.404-.388.14.042-.41.387-.15-.04"/><path fill="#0E0E0E" d="M102.678 109.15l.403-.386c.05.015.1.03.15.048l-.4.387-.14-.05m.15.05l.41-.39.15.05-.4.38-.15-.06"/><path fill="#0E0E0E" d="M102.973 109.256l.403-.387.15.06-.402.38-.15-.07"/><path fill="#0F0F0F" d="M103.125 109.32l.403-.386c.055.024.11.05.163.077l-.4.39-.16-.07"/><path fill="#0F0F0F" d="M103.287 109.398l.403-.387.168.09-.403.39-.168-.09"/><path fill="#0F0F0F" d="M103.455 109.486l.403-.387c.06.03.12.06.18.1l-.404.38c-.06-.04-.12-.07-.18-.11"/><path fill="#101010" d="M103.634 109.59l.403-.387c.07.042.137.085.203.13l-.403.388-.203-.13m.203.14l.403-.38c.08.06.157.11.233.17l-.403.39c-.076-.06-.154-.11-.233-.17"/><path fill="#101010" d="M104.07 109.892l.403-.387c.112.086.22.178.324.273l-.403.387c-.104-.096-.212-.187-.324-.273"/><path fill="#111" d="M104.395 110.165l.403-.387c.226.206.433.432.618.674l-.404.387c-.184-.25-.392-.47-.617-.68"/><path fill="#101010" d="M105.012 110.84l.404-.388c.088.116.172.235.25.357l-.403.38c-.08-.12-.162-.24-.25-.36"/><path fill="#101010" d="M105.262 111.196l.403-.387c.052.08.102.16.148.24l-.403.38c-.046-.09-.096-.17-.148-.25m.148.25l.404-.39c.04.07.075.14.11.21l-.405.38c-.04-.07-.07-.14-.11-.21"/><path fill="#0F0F0F" d="M105.52 111.653l.404-.387c.03.063.06.125.087.188l-.4.387-.08-.18m.09.19l.41-.38c.03.06.05.12.08.18l-.4.39c-.02-.06-.04-.12-.07-.17"/><path fill="#0F0F0F" d="M105.68 112.018l.402-.387.06.17-.404.39c-.018-.05-.038-.11-.06-.16"/><path fill="#0E0E0E" d="M105.738 112.184l.404-.387c.017.05.033.103.048.155l-.403.387c-.015-.06-.03-.11-.05-.16"/><path fill="#0E0E0E" d="M105.787 112.34l.403-.388c.015.05.028.102.042.153l-.403.387-.05-.153"/><path fill="#0E0E0E" d="M105.83 112.492l.402-.387c.012.048.023.096.032.145l-.403.387-.03-.145"/><path fill="#0D0D0D" d="M105.86 112.637l.404-.387c.01.048.02.096.027.145l-.4.387-.02-.145"/><path fill="#0D0D0D" d="M105.888 112.78l.403-.386c.01.047.02.094.02.142l-.4.387-.02-.142"/><path fill="#0D0D0D" d="M105.908 112.923l.403-.387c.01.03.01.06.01.09l-.4.385-.01-.08"/></g><path fill="#444" d="M91.142 109.025c.694.152 1.314.84 1.38 1.53.065.695-.45 1.128-1.144.978-.7-.153-1.314-.833-1.38-1.53-.065-.69.442-1.13 1.144-.978z"/><path fill="#040404" d="M91.208 109.74c.3.065.564.36.592.657.028.298-.19.485-.49.42s-.565-.36-.594-.657c-.027-.298.193-.486.492-.42z"/><path fill="#FFF" d="M81.463 116.875s-3.125-.75-3.25.75 2.25 3.375 5.625 3.25 1.25-3.875-2.375-4z"/><path fill="#FFF" d="M81.463 120.375s-3.125-.75-3.25.75 2.25 3.375 5.625 3.25 1.25-3.875-2.375-4z"/><path fill="#A8170C" d="M135.213 132.334l2.293 3.374 4.457-4.458s-4.666.834-6.75 1.084z"/><path fill="#A8170C" d="M137.297 134.167l-3.084 11.083 3.084.334 1.084-11.667"/><path fill="#ED1F24" d="M134.213 145.25s-5.666.458-8.457 5.708l.5 3.167 6.54-1.667s-.333-5.04 4.5-6.874l-3.083-.334z"/></svg>