<svg xmlns="http://www.w3.org/2000/svg" width="250" height="250" viewBox="0 0 250 250"><path opacity=".15" d="M126.71 249.2c-1.144 0-2.232-.49-2.99-1.347l-10.03-11.308c-.732-.826-1.09-1.92-.99-3.02l.104-1.13-12.332.693c-.98.662-2.027.996-3.125.996-.873 0-1.66-.215-2.346-.575-.29.05-.59.07-.88.07-.88 0-1.7-.24-2.41-.65-2.43-.17-4.07-1.99-4.53-2.56-.31-.4-.55-.84-.7-1.31-.29-.29-.51-.54-.62-.68-.6-.75-.91-1.68-.88-2.64.02-.47.08-.93.19-1.38.04-.15.1-.33.16-.49.07-.21.17-.51.34-.83.07-.13.17-.3.26-.44.15-.25.3-.47.47-.68.09-.11.21-.24.32-.35.18-.2.36-.38.56-.55.09-.07.22-.18.33-.26.18-.14.38-.29.61-.43.08-.05.21-.13.31-.18.22-.13.44-.24.67-.35.06-.03.18-.08.26-.11.25-.11.47-.2.7-.28.06-.03.2-.07.26-.09.17-.06.42-.13.68-.2.05-.02.16-.04.22-.06.27-.06.5-.12.75-.17l.16-.03c.26-.05.53-.09.82-.14l.15-.02c.26-.04.56-.08.86-.11l.14-.01c.23-.03.54-.05.86-.07.36-.02.67-.04.99-.05h.05c.41-.02.82-.02 1.24-.02 1.09 0 2.21.04 3.29.11-.27-2.92.05-5.34.68-7.35-.52.06-1.04.09-1.56.09-.34 0-.66-.02-.99-.05-.03 0-.31-.03-.31-.03-.31-.04-.62-.09-.92-.15l-.12-.03c-1.22-.27-2.34-.76-3.32-1.45l-.13-.09c-.36-.27-.68-.53-.96-.81-.35-.35-.66-.71-.95-1.11-.11-.15-.2-.3-.29-.45-.14-.22-.31-.5-.45-.78l-.06-.12c-.18-.21-.36-.42-.52-.65-.11-.15-.2-.3-.29-.45-.14-.23-.31-.5-.45-.78-.07-.15-.14-.31-.21-.47-.12-.29-.22-.55-.31-.82-.05-.17-.1-.34-.14-.52-.06-.26-.12-.51-.16-.77-.03-.17-.06-.34-.07-.52-.02-.24-.04-.49-.05-.74 0-.2-.01-.33-.01-.46 0-.27.02-.53.04-.8.01-.14.02-.26.03-.38.03-.29.08-.58.13-.88l.04-.22c.07-.36.16-.71.25-1.06l.08-.26c.07-.24.15-.49.23-.73l.11-.3c.09-.25.17-.45.25-.65l.15-.36c.08-.19.16-.36.24-.53l.17-.36c.07-.15.37-.75.37-.75-.04-.34-.05-.74.02-1.2.14-.81.5-1.54 1.02-2.13l-.04-.28-16.72 21.6c-.79 1.02-1.97 1.56-3.16 1.56-.85 0-1.71-.27-2.44-.84l-1.66-1.28c-.84-.64-1.39-1.6-1.52-2.65s.16-2.12.81-2.96l9.75-12.6L60.7 211.8c-.708.85-1.73 1.37-2.83 1.43l-15.09.9c-.08.01-.16.01-.24.01-1.06 0-2.08-.42-2.83-1.17-.81-.81-1.23-1.92-1.16-3.07l.9-15.08c.07-1.11.59-2.13 1.44-2.84l19.84-16.52L48 185.32c-.73.564-1.59.84-2.446.84-1.192 0-2.373-.53-3.162-1.55l-1.3-1.62c-.65-.84-.94-1.9-.807-2.958s.68-2.01 1.52-2.66l29.9-23.17c-1.1-.58-1.885-1.544-2.27-2.65-1.23-1.09-1.82-2.77-1.51-4.4l-1.453-2.23-36.155 4.61c-.17.03-.34.04-.51.04-1.98 0-3.7-1.47-3.96-3.49L25.58 144c-.133-1.05.157-2.11.806-2.95.65-.84 1.605-1.38 2.66-1.52l15.773-2-25.63 2.338c-.13.01-.25.016-.37.016-.97 0-1.92-.356-2.65-1.01L4.81 128.85c-.857-.76-1.347-1.85-1.347-2.992s.49-2.233 1.347-2.992l11.304-10.023c.735-.65 1.68-1.004 2.654-1.004.12 0 .24 0 .363.01l25.58 2.34-15.72-2c-2.19-.28-3.74-2.28-3.46-4.47l.26-2.07c.14-1.05.68-2.01 1.52-2.66.71-.55 1.57-.84 2.45-.84.17 0 .34.01.51.03l8.48 1.08-3.79-5.61c-1.37-.5-2.41-1.59-2.86-2.91-1.03-.92-1.64-2.27-1.58-3.7l-.61-.91c-1.26-1.88-1.71-4.13-1.26-6.34.46-2.24 1.77-4.17 3.7-5.42 1.4-.91 3.03-1.39 4.7-1.39 2.46 0 4.76 1.03 6.37 2.8l1.03-.69c.53-.36 1.8-1.19 1.8-1.19l-4.47-3.46c-.84-.65-1.39-1.61-1.52-2.66s.16-2.12.81-2.96l1.28-1.65c.79-1.02 1.97-1.55 3.16-1.55.86 0 1.72.27 2.45.83l7.46 5.77.21-.13-14.87-12.38c-.85-.71-1.37-1.74-1.43-2.84l-.93-15.06c-.07-1.15.36-2.26 1.17-3.07.75-.76 1.77-1.18 2.83-1.18.08 0 .16 0 .24.01l15.08.9c1.11.06 2.13.58 2.84 1.43L76.9 59.58l-9.642-12.45c-.65-.84-.94-1.905-.805-2.96.135-1.052.683-2.01 1.524-2.66l1.658-1.28c.728-.56 1.588-.83 2.44-.83 1.196 0 2.378.532 3.167 1.55L88.73 58.37l.436-.07c.52-.09 1.043-.176 1.56-.247.267-.036.522-.064.777-.093l.207-.023c.49-.054.975-.104 1.455-.14.34-.027.675-.044 1.012-.06.47-.024.94-.04 1.407-.043h.305c.23 0 .46 0 .69.005.47.01.93.03 1.39.06.32.02.65.04.98.08.47.05.94.12 1.4.19l.17.03c.25.03.5.07.75.12.5.1 1 .23 1.5.36l.15.04c.2.05.4.1.6.16.79.24 1.51.5 2.18.8.47.2.89.5 1.25.86L103 29.41c-.132-1.06.158-2.12.81-2.96.65-.84 1.61-1.39 2.666-1.52l2.075-.26c.17-.02.34-.03.5-.03 1.99 0 3.71 1.474 3.97 3.494l2.01 15.823-2.35-25.68c-.1-1.1.26-2.193.99-3.02l10.05-11.3c.76-.856 1.85-1.346 2.99-1.346s2.24.49 3 1.35l10.03 11.32c.73.83 1.09 1.92.99 3.02l-2.34 25.67 2.02-15.81c.26-2.02 1.98-3.49 3.97-3.49.17 0 .33.01.5.03l2.08.26c1.06.13 2.01.68 2.66 1.52s.94 1.91.81 2.96l-2.03 15.93c7.26-2.69 13.49-4.05 18.55-4.05 2.43 0 4.66.31 6.63.93.65.21 1.24.57 1.71 1.07.02.03.23.24.58.64l2.33-3.01c.65-.84 1.61-1.38 2.66-1.52.17-.02.34-.03.51-.03.88 0 1.75.29 2.45.84l1.65 1.28c1.75 1.35 2.07 3.86.72 5.61l-3.92 5.07c.07.1.14.19.2.29l10.46-12.57c.71-.85 1.73-1.37 2.84-1.43l15.09-.89c.08-.01.16-.01.24-.01 1.06 0 2.08.42 2.83 1.17.81.81 1.23 1.93 1.16 3.07l-.9 15.09c-.06 1.1-.58 2.13-1.43 2.83L195 74.54l.04.09 10.5-8.13c.73-.568 1.59-.84 2.446-.84 1.19 0 2.37.53 3.16 1.54l1.28 1.645c.65.84.94 1.9.81 2.95-.135 1.05-.68 2.01-1.52 2.66l-7.25 5.61c.353.89.376 1.9.03 2.84-.46 1.24-1.5 2.17-2.763 2.49-.37.5-.86.91-1.42 1.185.14.36.56 1.474.56 1.474.46 1.24.93 2.58 1.39 3.96l.27.83c.45 1.38.83 2.626 1.17 3.82l.11.366c.37 1.28.72 2.64 1.08 4.16.09.333.16.674.24 1.015.19.81.35 1.55.5 2.246l17.61-2.23c.17-.02.34-.03.51-.03.88 0 1.75.3 2.45.85.84.66 1.39 1.62 1.52 2.67l.25 2.07c.27 2.19-1.28 4.18-3.462 4.46l-15.85 2.02 25.71-2.35c.12-.01.24-.02.37-.02.98 0 1.92.36 2.66 1.01l11.31 10.04c.85.76 1.34 1.85 1.34 2.99 0 1.15-.49 2.24-1.34 3l-11.31 10.01c-.73.65-1.68 1.01-2.65 1.01-.12 0-.24 0-.36-.01l-25.79-2.36 15.94 2.03c2.19.28 3.74 2.28 3.47 4.46l-.26 2.08c-.13 1.06-.68 2.02-1.52 2.67-.71.55-1.57.84-2.46.84-.16 0-.33-.01-.5-.03l-37.18-4.74c-1.07 3.29-2.42 6.48-4.03 9.54l3.44 2.67.26.04c3.19.62 5.31 1.92 6.45 2.62 1.41.88 2.37 1.66 2.95 2.12l.92.77c.32.27.61.58.93.95l.02.03c.18.23.35.47.51.71 0 0 .21.34.25.41.1.19.19.36.27.53l.3.35c.18.23.34.46.5.7l.16.26c.04.06.08.13.11.19.15.27.28.55.39.83.05.11.11.26.16.42.01.02.02.04.02.07l12.04 9.31c.84.65 1.39 1.61 1.52 2.66.14 1.05-.15 2.12-.8 2.96l-1.28 1.66c-.79 1.02-1.97 1.55-3.17 1.55-.86 0-1.72-.27-2.45-.84l-10.25-7.94-.11.04 17.56 14.62c.85.71 1.37 1.73 1.44 2.84l.91 15.08c.07 1.14-.35 2.26-1.16 3.07-.75.75-1.77 1.17-2.83 1.17-.08 0-.16 0-.24-.01l-15.08-.9c-1.11-.07-2.13-.59-2.84-1.43l-13.69-16.45c-.01.07-.02.14-.02.21l7 9.04c1.35 1.75 1.03 4.26-.71 5.61l-1.65 1.28c-.7.55-1.57.84-2.45.84-.17 0-.34-.01-.51-.03-1.06-.14-2.01-.68-2.66-1.52l-1.89-2.44c-.74 1.87-1.76 3.86-3.26 5.73-.59.8-1.27 1.42-1.83 1.93l-.24.23c-.12.12-.26.23-.4.32l-.24.18c-.64.47-1.45 1.05-2.49 1.49-.45.2-.92.39-1.41.55-.17.05-.34.1-.52.15.57.79 1.1 1.56 1.61 2.31.1.15.2.32.28.48.36.5.71 1.01 1.06 1.52.34.51.54 1.07.63 1.65 2.7 1.74 5.45 4.24 7.11 5.83l.08.08c.32.3.67.65 1.02 1l.08.07c.34.33.66.66.96.99.02.01.09.09.11.1.3.31.59.62.86.92l-2.87 2.79 2.98-2.67c.27.3.52.59.76.87l.12.14c.22.26.44.54.64.79l.1.13c.21.26.4.54.57.78l.08.13c.18.26.33.53.47.8l.19.24c.24.31.43.58.59.82l.09.13c.19.28.36.59.5.87l.06.13c.03.07.06.15.09.22.25.63.36 1.19.36 1.76 0 2.09-1.14 3.82-2.89 4.65l-.06.07c-.73.77-2.06 1.69-4.3 1.71-.69.22-1.39.33-2.09.33-2.71 0-5.05-1.63-6.42-4.4-.87-.99-1.39-2.08-1.68-2.79-.61-.68-1.34-1.45-2.11-2.25-2.39-2.51-4.13-4.38-5.14-6.09-.12-.02-.25-.03-.37-.06-1.04-.21-1.95-.82-2.54-1.7-.51-.77-1.08-1.58-1.68-2.4l-.14-.19c-.53-.72-1.1-1.46-1.68-2.19l-.17-.21c-.57-.72-1.16-1.43-1.76-2.13l-.91-1.05c-.06.78-.34 1.54-.83 2.17-.65.84-1.61 1.39-2.66 1.52l-2.07.26c-.17.02-.33.03-.5.03-1.98 0-3.71-1.48-3.96-3.5l-.72-5.65-.36.13 1.4 15.38c.1 1.1-.26 2.19-.99 3.02l-10.05 11.31c-.76.86-1.85 1.35-3 1.35zm33.455-44.127c.154.02.308.03.458.033l.123 4.003v-4c.118 0 .194-.02.29-.07l.1-.06s.12-.1.16-.13c.045-.05.224-.23.266-.27.042-.07.085-.13.13-.19.72-.97 1.377-2.62 1.846-4.67.014-.06.028-.12.044-.18.1-.36.18-.82.266-1.31l.23-1.3.068-.51c.123-1.01.23-2.16.332-3.3l-4.115-5.32.09.78.142 1.39.12 1.42c.026.35.05.72.07 1.08l.038.69c.018.36.035.73.047 1.09 0 0 .03 1.17.032 1.46 0 0 0 1.21-.003 1.49l-.02.67-.03.82-.03.67c-.02.26-.03.54-.05.81l-.05.66-.1.97-.06.53-.12.92-.08.55c-.07.39-.13.78-.21 1.18l-.01.03zm-52.47-21.338c.072.202.132.402.18.602l.086-.68c-.11-.04-.23-.08-.34-.122.03.073.06.147.08.2z"/><g fill="#FFED92"><path d="M247.27 120.923l-11.312-10.04c-.735-.653-1.68-1.01-2.655-1.01-.12 0-.242.006-.363.018l-25.71 2.35 15.853-2.02c2.186-.28 3.734-2.27 3.465-4.45l-.255-2.07c-.13-1.05-.675-2.01-1.515-2.67-.706-.55-1.57-.84-2.455-.84-.168 0-.336.01-.505.03l-17.606 2.24c-.147-.69-.31-1.43-.496-2.24-.078-.34-.157-.68-.238-1.02-.366-1.52-.72-2.88-1.08-4.16l-.107-.36c-.34-1.19-.72-2.44-1.16-3.82l-.27-.83c-.46-1.38-.92-2.72-1.38-3.96 0 0-.42-1.11-.56-1.47.56-.28 1.05-.68 1.43-1.19 1.27-.32 2.31-1.25 2.77-2.49.35-.94.32-1.95-.03-2.84l7.25-5.61c.84-.65 1.39-1.61 1.52-2.66.14-1.05-.15-2.12-.81-2.96l-1.28-1.64c-.79-1.01-1.97-1.54-3.16-1.54-.85 0-1.72.27-2.44.84l-10.5 8.13-.04-.09 17.75-14.78c.85-.7 1.37-1.73 1.44-2.83l.91-15.08c.07-1.14-.36-2.26-1.16-3.06-.75-.75-1.77-1.17-2.83-1.17-.08 0-.15 0-.23.01l-15.09.9c-1.1.07-2.13.58-2.83 1.43l-10.46 12.56-.2-.29 3.92-5.07c1.36-1.74 1.04-4.25-.71-5.61l-1.65-1.27c-.7-.55-1.56-.84-2.44-.84-.17 0-.34.01-.51.03-1.05.13-2.01.68-2.66 1.52l-2.33 3c-.35-.4-.55-.62-.57-.64-.47-.5-1.06-.87-1.71-1.08-1.97-.61-4.2-.92-6.63-.92-5.07 0-11.29 1.36-18.56 4.05l2.03-15.93c.13-1.05-.16-2.11-.81-2.95s-1.61-1.38-2.66-1.52l-2.08-.26c-.17-.02-.33-.03-.5-.03-1.98 0-3.7 1.48-3.96 3.5L137.04 42l2.34-25.66c.1-1.1-.26-2.19-.99-3.02L128.35 1.98c-.76-.855-1.845-1.345-2.99-1.346-1.143 0-2.232.49-2.992 1.347L112.32 13.3c-.734.826-1.093 1.92-.99 3.02L113.676 42l-2.01-15.824c-.255-2.02-1.98-3.496-3.96-3.496-.167 0-.334.01-.5.03l-2.08.26c-1.055.13-2.014.67-2.666 1.51-.65.84-.94 1.9-.8 2.95l3.95 30.99c-.35-.36-.772-.654-1.242-.86-.68-.3-1.392-.56-2.19-.807-.195-.06-.4-.115-.602-.165l-.15-.04c-.496-.134-.996-.262-1.5-.36-.245-.05-.496-.09-.747-.13l-.17-.026c-.46-.078-.93-.147-1.41-.196-.33-.036-.65-.06-.98-.08-.46-.03-.92-.056-1.39-.067-.23-.01-.47-.01-.7-.01h-.31c-.47 0-.94.02-1.41.04-.33.02-.67.03-1.01.06-.48.04-.96.09-1.45.14l-.21.02-.78.09c-.52.07-1.04.16-1.56.25l-.44.07-13.48-17.4c-.79-1.02-1.97-1.55-3.17-1.55-.86 0-1.72.27-2.44.83l-1.66 1.28c-.84.65-1.39 1.61-1.53 2.66s.15 2.12.8 2.96l9.64 12.45-16.36-19.66c-.71-.85-1.73-1.37-2.83-1.44l-15.08-.9h-.24c-1.06 0-2.08.42-2.83 1.17-.81.81-1.23 1.92-1.16 3.07l.9 15.07c.07 1.1.58 2.13 1.43 2.83l14.9 12.38-.21.12-7.46-5.77c-.72-.57-1.59-.84-2.44-.84-1.19 0-2.38.53-3.16 1.55l-1.28 1.65c-.65.83-.94 1.88-.81 2.93-.04-.06-.07-.12-.11-.17.08-1.31-.48-2.58-1.52-3.4-.72-.57-1.59-.86-2.47-.86-.4 0-.8.06-1.19.18-.48-.19-.98-.28-1.48-.28-.78 0-1.56.23-2.23.68-1.1.74-1.76 1.97-1.77 3.27-.84 1-1.13 2.36-.77 3.64.36 1.27 1.33 2.28 2.56 2.7.24.38.54.7.89.98-1.83 1.25-3.08 3.12-3.52 5.29-.45 2.21 0 4.46 1.25 6.34.01.01.61.9.61.9-.05 1.42.55 2.77 1.58 3.69.45 1.32 1.49 2.41 2.86 2.91l3.79 5.6-8.48-1.08c-.17-.02-.34-.03-.51-.03-.89 0-1.75.29-2.45.84-.84.65-1.39 1.6-1.52 2.66l-.26 2.07c-.28 2.19 1.27 4.19 3.46 4.47l15.72 2-25.58-2.34c-.13-.01-.25-.02-.37-.02-.98 0-1.92.35-2.66 1.01L3.44 120.86c-.857.758-1.347 1.847-1.347 2.99 0 1.146.49 2.235 1.346 2.994l11.31 10.03c.73.653 1.68 1.01 2.65 1.01.12 0 .24-.007.36-.018l25.62-2.337-15.78 2c-1.06.13-2.01.68-2.66 1.52-.65.84-.94 1.9-.81 2.95l.26 2.08c.25 2.02 1.98 3.49 3.96 3.49.17 0 .34-.01.51-.04l36.15-4.61 1.45 2.23c-.31 1.63.28 3.3 1.51 4.4.38 1.1 1.17 2.06 2.27 2.64l-29.9 23.18c-.84.65-1.39 1.6-1.52 2.66s.15 2.11.8 2.95l1.28 1.64c.79 1.02 1.97 1.55 3.17 1.55.85 0 1.71-.27 2.44-.83l12.64-9.78-19.84 16.52c-.85.71-1.37 1.73-1.44 2.84l-.9 15.08c-.07 1.14.35 2.26 1.16 3.07.75.75 1.77 1.17 2.83 1.17.07 0 .15 0 .23-.01l15.09-.9c1.1-.07 2.13-.58 2.83-1.43l16.5-19.81-9.76 12.6c-.65.84-.94 1.9-.81 2.95s.68 2.01 1.52 2.66l1.65 1.28c.73.56 1.59.83 2.44.83 1.2 0 2.38-.53 3.17-1.55l16.72-21.6c.01.09.02.18.04.27-.52.59-.88 1.32-1.02 2.13-.08.46-.06.85-.03 1.19l-.38.75-.17.37c-.08.17-.15.34-.24.53l-.15.35c-.08.2-.16.39-.25.64l-.11.3c-.08.25-.16.5-.23.73l-.08.25c-.1.35-.18.7-.25 1.06l-.04.22c-.05.29-.1.58-.13.87-.02.12-.02.24-.03.38-.02.26-.04.52-.04.79 0 .13 0 .27.01.46.01.25.03.51.05.74.02.18.04.36.07.52.04.26.1.52.16.77.05.17.09.34.15.51.08.27.19.53.31.82.07.16.14.31.21.46.14.28.31.56.45.78.09.15.18.3.29.44.17.23.34.44.52.65l.06.12c.14.28.31.55.46.78.09.15.18.3.29.44.3.4.61.76.96 1.1.28.27.6.54.96.81l.13.09c.98.69 2.1 1.18 3.32 1.45l.12.02c.3.06.62.11.92.14 0 0 .28.03.31.03.33.03.66.04.99.04.52 0 1.04-.03 1.56-.09-.63 2-.95 4.42-.68 7.34-1.08-.07-2.19-.11-3.29-.11-.41 0-.82 0-1.23.02h-.05c-.32.01-.63.02-.99.05-.31.02-.62.04-.85.07l-.14.01c-.3.03-.59.07-.85.1l-.15.02c-.29.04-.56.09-.82.14l-.15.03c-.25.05-.48.1-.75.17-.06.02-.17.04-.23.06-.27.07-.52.15-.68.2l-.26.08c-.23.08-.45.17-.7.27l-.26.11c-.23.11-.45.22-.67.35-.1.05-.23.13-.3.18-.22.14-.42.29-.6.43-.11.08-.24.18-.33.25-.2.17-.38.35-.56.55-.1.11-.23.25-.31.35-.18.21-.33.43-.48.68-.09.14-.19.31-.25.44-.17.33-.27.62-.34.83-.06.16-.11.34-.15.48-.11.45-.17.91-.19 1.38-.03.95.28 1.89.88 2.63.12.14.33.39.63.68.15.47.38.92.7 1.31.46.57 2.1 2.39 4.53 2.56.71.41 1.54.65 2.41.65.3 0 .59-.03.89-.08.69.36 1.47.57 2.35.57 1.1 0 2.15-.33 3.13-1l12.33-.69-.11 1.13c-.1 1.1.26 2.19.99 3.02l10.04 11.31c.76.86 1.85 1.35 2.99 1.35 1.14 0 2.23-.49 2.99-1.35l10.03-11.31c.74-.82 1.1-1.92 1-3.02l-1.4-15.38.36-.12.72 5.65c.26 2.02 1.98 3.5 3.96 3.5.17 0 .33-.01.5-.03l2.08-.26c1.05-.14 2.01-.68 2.66-1.52.49-.63.77-1.39.83-2.17l.91 1.05c.6.7 1.19 1.42 1.76 2.14l.17.21c.58.73 1.15 1.47 1.68 2.19l.14.19c.6.82 1.17 1.62 1.68 2.39.59.88 1.51 1.49 2.55 1.7.12.02.25.04.37.05 1.01 1.71 2.75 3.58 5.14 6.09.77.8 1.51 1.57 2.11 2.26.28.71.81 1.79 1.68 2.78 1.36 2.77 3.71 4.4 6.42 4.4.7 0 1.4-.11 2.09-.33 2.24-.03 3.58-.94 4.3-1.71l.06-.07c1.75-.83 2.9-2.55 2.9-4.65 0-.57-.11-1.13-.36-1.75-.03-.07-.06-.15-.09-.22l-.06-.13c-.14-.29-.31-.59-.5-.87l-.09-.14c-.15-.23-.35-.5-.59-.81l-.18-.24c-.13-.27-.29-.54-.47-.8l-.08-.13c-.16-.25-.36-.52-.56-.79l-.1-.13c-.19-.25-.42-.53-.64-.79l-.11-.14c-.23-.28-.49-.57-.76-.87l-2.98 2.67 2.87-2.8c-.27-.3-.55-.6-.85-.92l-.1-.11-.96-.99c-.01 0-.08-.07-.08-.08-.35-.35-.7-.7-1.01-1l-.09-.08c-1.65-1.6-4.41-4.09-7.11-5.84-.08-.57-.29-1.13-.63-1.65-.34-.51-.69-1.01-1.05-1.51-.08-.17-.17-.33-.28-.48-.51-.76-1.04-1.52-1.61-2.31.18-.05.35-.1.52-.16.49-.15.96-.34 1.41-.55 1.04-.44 1.85-1.02 2.49-1.48l.24-.18c.14-.1.27-.21.39-.32l.25-.23c.56-.51 1.24-1.13 1.83-1.93 1.5-1.87 2.52-3.86 3.26-5.73l1.89 2.44c.65.83 1.6 1.38 2.66 1.51.16.02.33.03.5.03.88 0 1.75-.3 2.45-.84l1.65-1.28c1.74-1.36 2.06-3.87.71-5.61l-7-9.04.03-.21 13.69 16.45c.71.85 1.74 1.37 2.84 1.43l15.09.91c.08 0 .16.01.24.01 1.06 0 2.08-.42 2.83-1.18.81-.81 1.23-1.93 1.16-3.07l-.9-15.08c-.06-1.11-.58-2.13-1.43-2.84l-17.57-14.62.11-.04 10.25 7.94c.73.57 1.6.84 2.45.84 1.2 0 2.38-.53 3.17-1.55l1.28-1.65c.65-.84.94-1.9.8-2.95-.13-1.05-.68-2.01-1.52-2.66l-12-9.27c-.01-.02-.02-.05-.02-.07-.06-.16-.12-.31-.16-.42-.12-.28-.24-.56-.39-.83-.04-.07-.07-.13-.11-.19l-.17-.26c-.15-.24-.31-.48-.5-.7-.02-.03-.22-.27-.31-.36-.07-.17-.16-.35-.26-.53-.04-.07-.25-.41-.26-.41-.15-.24-.32-.48-.51-.71l-.02-.02c-.31-.38-.61-.68-.93-.95l-.92-.78c-.57-.47-1.54-1.24-2.95-2.13-1.14-.69-3.26-1.99-6.45-2.61l-.25-.05-3.44-2.67c1.61-3.06 2.96-6.24 4.04-9.53l37.19 4.74c.17.02.34.03.5.03.88 0 1.75-.3 2.45-.84.84-.65 1.39-1.61 1.52-2.67l.26-2.08c.27-2.19-1.28-4.18-3.47-4.46l-15.94-2.03 25.8 2.36c.12.01.24.01.36.01.97 0 1.92-.36 2.65-1.01l11.3-10.02c.86-.76 1.35-1.85 1.35-2.99s-.49-2.24-1.34-3zM43.05 77.103l-1.03.69c-1.163-1.278-2.687-2.162-4.363-2.56.708-.463 1.28-1.126 1.583-1.95.223-.607.29-1.246.213-1.864.248.39.55.74.923 1.03l4.474 3.46s-1.27.83-1.8 1.19zm63.44 105.234c-.046-.2-.105-.4-.18-.602-.02-.054-.048-.127-.078-.2l.346.12-.087.682zm56.273 12.12l-.068.508-.23 1.296c-.085.5-.166.96-.265 1.32l-.044.18c-.47 2.05-1.125 3.7-1.846 4.67-.045.06-.088.12-.13.19-.042.05-.22.23-.267.27l-.16.13-.098.05c-.097.06-.173.07-.29.07v4l-.124-4c-.15 0-.3-.01-.45-.03 0-.01.01-.02.01-.03.08-.39.14-.78.21-1.18l.08-.55c.05-.31.09-.61.13-.92l.06-.53.1-.97.05-.65c.02-.27.04-.55.05-.81.02-.23.03-.46.04-.67.02-.27.03-.55.03-.82l.02-.67c.01-.28.01-1.48.01-1.48 0-.29-.03-1.46-.03-1.46-.01-.36-.03-.73-.04-1.09l-.04-.69c-.02-.36-.04-.73-.07-1.08l-.12-1.42-.14-1.39-.09-.78 4.12 5.32c-.1 1.15-.21 2.29-.33 3.3z"/><path d="M77.823 30.196l.523.097.217.484c.623 1.39 1.98 2.304 3.5 2.36l.15.003c1.464 0 2.816-.8 3.517-2.096l.25-.462.523-.056c1.515-.162 2.806-1.17 3.33-2.598.526-1.43.194-3.033-.856-4.136l-.365-.384.108-.518c.313-1.49-.247-3.027-1.444-3.967-.718-.564-1.59-.854-2.47-.854-.587 0-1.177.12-1.727.39l-.48.23-.46-.27c-.62-.36-1.31-.53-1.99-.53-.78 0-1.56.22-2.23.68-1.27.85-1.94 2.34-1.74 3.85l.07.52-.39.35c-1.13 1.02-1.59 2.59-1.17 4.06.42 1.46 1.63 2.56 3.12 2.84z"/></g><path fill="#FFB000" d="M233.313 133.933l11.303-10.018-11.313-10.04-49.884 4.55c-.24-2.398-.63-4.744-1.15-7.045l40.3-5.13-.26-2.067-40.57 5.157c-1.41-5.335-3.56-10.345-6.34-14.946l32.44-25.117-1.28-1.647-32.26 24.974c-1.31-1.997-2.74-3.9-4.27-5.708l38.73-32.246.9-15.08-15.09.9-32.35 38.86c-1.86-1.49-3.82-2.825-5.85-4.08l25.22-32.59-1.65-1.276-25.36 32.762c-4.59-2.587-9.57-4.53-14.82-5.78l5.27-41.445-2.08-.25-5.25 41.22c-2.29-.45-4.64-.73-7.03-.9l4.66-51.04-10.02-11.31-10.04 11.31 4.68 51.24c-2.37.27-4.69.73-6.99 1.28l-5.32-41.79-2.08.26 5.4 42.06c-5.03 1.42-9.77 3.52-14.13 6.19L70.7 41.41l-1.658 1.28 26 33.572c-1.965 1.295-3.832 2.74-5.62 4.27L56.08 40.488 41 39.59l.905 15.076 40.157 33.43c-1.477 1.83-2.81 3.768-4.056 5.782l-33.903-26.24-1.282 1.65 34.1 26.39c-2.47 4.324-4.35 9-5.63 13.93l-42.91-5.466-.26 2.073 42.65 5.435c-.49 2.278-.86 4.6-1.08 6.965L17.4 113.83 6.09 123.85l11.31 10.03 52.27-4.767c.22 2.372.582 4.696 1.074 6.97l-42.63 5.417.267 2.08 42.88-5.46c1.27 4.97 3.17 9.67 5.65 14.02L42.8 178.552l1.28 1.647L78 153.94c1.247 2.007 2.58 3.953 4.058 5.784l-40.17 33.446-.905 15.086 15.087-.9 33.35-40.067c1.796 1.53 3.656 2.96 5.628 4.27l-26.007 33.6 1.66 1.28 26.15-33.79c4.37 2.66 9.09 4.77 14.12 6.19l-5.36 42.06 2.08.26 5.31-41.79c2.29.55 4.6 1 6.99 1.28l-4.68 51.24 10.02 11.31 10.04-11.31-4.66-51.05c2.39-.17 4.74-.44 7.04-.9l5.25 41.22 2.08-.26-5.28-41.45c5.26-1.25 10.25-3.2 14.83-5.79l25.36 32.75 1.65-1.28-25.22-32.57c2.03-1.24 4-2.59 5.85-4.07l32.34 38.84 15.08.9-.9-15.09-38.71-32.23c1.53-1.81 2.96-3.7 4.27-5.7l32.24 24.96 1.29-1.66-32.43-25.1c2.8-4.61 4.94-9.64 6.35-14.98l40.56 5.17.26-2.08-40.3-5.14c.52-2.31.91-4.66 1.15-7.06l49.89 4.57z"/><path fill="#FFE000" d="M32.09 69.236l1.307.75 1.358-.65-.31 1.475 1.038 1.1-1.498.16-.717 1.33-.616-1.37-1.482-.27 1.118-1.01m163.656 6.12l1.307.75 1.36-.65-.31 1.48 1.04 1.1-1.5.16-.71 1.33-.61-1.37-1.48-.27 1.12-1.01"/><path opacity=".15" d="M194.456 169.512c.03-.09.05-.184.072-.277.028-.115.056-.23.07-.348.017-.106.022-.213.027-.32.005-.103.007-.205.003-.308-.004-.12-.015-.24-.03-.36-.013-.09-.03-.18-.048-.26-.027-.13-.06-.26-.1-.38-.024-.07-.053-.14-.08-.21-.055-.14-.11-.27-.18-.39l-.003-.01c-.02-.04-.048-.08-.07-.12-.01-.01-.016-.02-.022-.04l-.018-.03c-.08-.13-.158-.25-.254-.37 0 0 0-.01-.002-.01-.13-.16-.27-.32-.44-.46l-.82-.69c-.55-.45-1.36-1.1-2.55-1.85-1.19-.73-2.75-1.64-5.08-2.1-1.16-.21-2.56-.25-3.98.11-1.43.34-2.79 1.1-3.86 2.03-1.09.93-1.92 2.01-2.62 3.13-.7 1.12-1.26 2.28-1.74 3.48-.96 2.38-1.62 4.88-2.16 7.44-1.07 5.12-1.6 10.56-2.08 15.88-.12 1.32-.24 2.66-.39 3.88l-.06.47-.03.22-.04.23-.16.92c-.1.61-.21 1.23-.37 1.81-.54 2.36-1.36 4.59-2.54 6.16-.27.43-.62.71-.92 1.05-.35.25-.66.56-1.04.7-.71.38-1.5.57-2.36.54-.85-.02-1.75-.17-2.63-.48-.88-.28-1.73-.69-2.53-1.1-.51-.28-.99-.57-1.46-.86-.39-.25-.77-.51-1.14-.77l.08-.02c.35-.09.62-.19.83-.3l.01-.01c.06-.03.12-.07.17-.1l.03-.02c.05-.03.09-.06.12-.09.01-.01.02-.02.03-.02l.08-.07.02-.02.06-.06c.13-.45.25-.9.36-1.36l.02-.05c.1-.41.19-.82.27-1.24.02-.09.03-.18.05-.26.07-.35.13-.7.18-1.05.03-.17.05-.33.07-.5.04-.27.08-.55.11-.84.03-.18.04-.37.06-.56.03-.26.06-.52.08-.78.02-.2.03-.4.05-.6.02-.25.04-.51.05-.76l.03-.62c.01-.26.02-.51.02-.77 0-.2.01-.41.01-.61v-1.38c0-.27-.01-.54-.02-.81l-.01-.57c-.01-.34-.03-.68-.04-1.02-.01-.22-.02-.44-.04-.66-.02-.34-.04-.68-.07-1.02l-.05-.59-.06-.76c-.02-.21-.04-.42-.07-.63l-.07-.71-.07-.64-.08-.67-.08-.64-.09-.65-.09-.63-.09-.63c-.03-.21-.06-.41-.1-.61l-.1-.61-.1-.6-.11-.58-.19-1.02-.12-.6-.12-.6-.09-.45-.13-.6-.09-.41-.12-.56-.09-.39-.12-.53-.08-.35-.12-.51-.07-.28-.12-.51-.05-.18-.14-.53-.01-.02c-.28-1.05-.49-1.81-.61-2.2l.02-.03-.68-2.64c-.16-.64-.32-1.3-.45-1.81v-.02c-.13-.49-.22-.85-.25-.9-.03-.06-.07-.1-.12-.13-.01-.01-.02-.01-.03-.01-.04-.02-.08-.04-.12-.04h-.02c-.04-.01-.08-.01-.1-.01h-.15l.01.07-.04-.15c-.19-.71-.39-1.43-.6-2.15l-.09-.33c-.2-.69-.41-1.4-.63-2.1l-.15-.49c-.2-.66-.42-1.34-.64-2.02-.06-.2-.13-.4-.19-.61-.28-.86-.58-1.73-.89-2.61-.09-.52-.2-1.03-.33-1.54-.02-.07-.03-.15-.05-.22-.14-.52-.3-1.02-.48-1.52l-.01-.03.03-.04.2-.24c.11-.13.22-.26.33-.4l.16-.19c.15-.19.31-.4.46-.6l.15-.21c.16-.23.31-.46.46-.7.02-.02.03-.04.04-.07.14-.23.28-.46.4-.7l.09-.17c.14-.26.26-.52.37-.78l.04-.11c.1-.24.19-.49.26-.74.02-.04.03-.09.05-.14.08-.27.14-.54.18-.81.01-.05.01-.1.02-.15.03-.25.04-.5.04-.76-.01-.03 0-.06 0-.09-.02-.27-.05-.54-.11-.8-.01-.06-.03-.12-.05-.18-.07-.27-.15-.53-.28-.79l-.02-.04-.06-.13v-.01c-.03-.05-.06-.12-.1-.19l-.01-.03c-.05-.07-.1-.15-.16-.24l-.02-.03c-.07-.08-.14-.18-.22-.27l-.03-.03c-.09-.1-.18-.19-.29-.28l-.04-.04c-.11-.09-.23-.18-.35-.27l-.05-.04c-.13-.09-.27-.17-.43-.25l-.06-.03c-.16-.08-.33-.15-.52-.21l-.06-.02c-.19-.06-.4-.11-.62-.15l-.07-.01c-.22-.04-.46-.07-.72-.07h-.07c-.27-.01-.54 0-.84.02l-.07.01c-.31.03-.63.08-.97.15l-.06.01c-.35.07-.71.16-1.1.28l-.06.02c-.39.12-.81.27-1.24.45l-.04.02c-.45.18-.91.39-1.41.63h-.1l-.02-.02c-.2-.17-.41-.34-.62-.5l-.01-.01-.03-.03-.01-.01-.08-.06-.05-.04c-.28-.22-.57-.43-.87-.63l-.18-.12c-.3-.21-.61-.41-.92-.61l-.18-.11-.02-.01H136c-.34-.21-.685-.41-1.035-.61l-.07-.04-.01-.01c-.78-.43-1.59-.83-2.43-1.2l-.15-.06-.05-.02-.05-.03c-.31-.14-.63-.27-.96-.39v-.01l-.01-.01c-.09-.04-.19-.07-.29-.11l-.02-.01-.02-.01c-.31-.11-.61-.22-.92-.32l-.02-.01-.02-.01-.31-.11-.02-.01-.01-.01c-.33-.1-.67-.21-1.01-.31-.09-.02-.17-.05-.26-.07l-.03-.01h-.02c-.87-.25-1.77-.45-2.68-.62h-.01s-.01 0-.01-.01c-.1-.02-.21-.03-.31-.05l-.06-.01-.07-.01c-.3-.05-.61-.1-.91-.14l-.46-.06h-.03l-.03-.01c-.3-.03-.6-.07-.9-.1l-.47-.04-.03-.01h-.04c-.3-.03-.59-.04-.89-.06l-.06-.01c-.02 0-.04-.01-.05-.01-.13-.01-.26-.02-.384-.02h-.03c-.47-.02-.95-.03-1.43-.03-.5 0-1 .01-1.49.04h-.02l-.59.03-.11.01h-.01c-.87.05-1.73.13-2.58.25-.85.11-1.68.26-2.5.44h-.01c-.81.17-1.61.38-2.39.61-.01.01-.02.01-.03.01-.77.24-1.53.5-2.26.78l-.06.03c-.73.28-1.44.59-2.12.92l-.08.04c-.68.33-1.34.68-1.97 1.06l-.09.06c-.63.38-1.24.77-1.83 1.19l-.07.05c-.58.42-1.14.86-1.68 1.32-.01.01-.02.01-.03.02-3.74-1.2-5.25-.5-5.69.82v.01c-.02.09-.05.17-.07.27-.07.36-.09.76-.05 1.17v.05l.03.27.01.08.05.27.01.05c.05.29.12.57.2.85l.03.11.07.22.04.12.08.22.03.09c.17.47.35.89.5 1.23-.17.31-.33.62-.48.94l-.01.02c-.15.32-.29.64-.43.97l-.01.03c-.13.32-.24.64-.35.97l-.01.05c-.1.31-.2.62-.28.94l-.03.09c-.08.3-.15.6-.21.9l-.03.15c-.05.28-.1.57-.14.85l-.03.22c-.04.27-.06.55-.08.83l-.03.25c-.03.37-.04.73-.04 1.09 0 .38.01.75.04 1.12 0 .1.02.2.02.29.02.28.05.56.08.83.01.1.03.19.05.29.04.27.09.55.14.82l.06.24c.07.29.13.57.21.86l.06.18c.08.31.18.61.28.9.01.04.03.08.04.13.11.32.23.63.36.94l.03.06c.14.33.29.66.45.99l.01.01c.17.34.35.67.54 1h-.03c-.59-.03-1.13-.05-1.61-.07l-.24-.01v-.01c-.01-.05-.02-.1-.03-.13s-.02-.06-.03-.07c-.14-.22-.41-.12-.41-.12-.05.01-.13.01-.22 0h-.03c-.09-.01-.2-.03-.32-.05l-.06-.02-.32-.07-.42-.11c-.36-.6-.72-1.19-1.08-1.79l-7.65-12.6-3.48-5.73c.06-.03.11-.06.16-.1l.05-.04c.04-.04.07-.07.1-.12.02-.04.04-.07.06-.11.01-.04.03-.07.04-.1.02-.08.04-.16.03-.25-.03-.39-.38-.68-.77-.65-.01 0-.06.01-.12.01l-.05.01-.22.03h-.06c-.08-.12-.15-.24-.22-.36.65-.49 1.31-.97 1.95-1.44.5-.36.99-.71 1.48-1.06.31-.21.62-.43.92-.64.94-.65 1.87-1.29 2.8-1.9.18-.11.36-.23.53-.35.51-.33 1.01-.65 1.51-.97.26-.17.53-.34.79-.5.91-.58 1.82-1.13 2.72-1.67.17-.1.35-.21.52-.31l1.48-.86.72-.41c.84-.48 1.68-.94 2.5-1.38l.64-.34 1.38-.72.74-.38c.75-.38 1.5-.75 2.24-1.11l.75-.36c.42-.2.84-.39 1.25-.59l.8-.36c.65-.29 1.3-.58 1.93-.85.29-.12.57-.25.85-.37.37-.16.73-.31 1.1-.46.33-.14.66-.27.98-.4.51-.2 1.02-.4 1.52-.59l.95-.36c.3-.11.61-.22.91-.33.46-.17.91-.33 1.36-.48.31-.11.61-.21.9-.31.34-.12.69-.23 1.03-.34.24-.08.48-.16.72-.23.5-.16.99-.31 1.47-.45l.59-.18 1.05-.3.56-.15 1.37-.36.48-.12c.35-.08.69-.17 1.02-.24l.42-.1c.42-.1.83-.19 1.23-.27l.41-.08.88-.18c.12-.02.24-.05.35-.07l.05-.01.02.03c.5.87.99 1.78 1.42 2.72l.05.11c.21.47.41.94.58 1.41.01.02.02.05.03.07.18.48.34.96.47 1.44v.01c0 .05.01.08.02.11l.01.02c.01.02.02.03.02.03.06.2.14.38.22.55l.08.14c.08.13.17.26.26.37l.06.07v.01c.12.13.25.24.39.35.04.02.07.05.11.07.12.07.24.14.37.2l.13.06c.17.07.35.12.54.17.04.01.08.01.12.02.17.03.34.05.51.07.06 0 .12.01.19.01h.01c.21.01.43.01.66 0h.08c.23-.01.47-.03.71-.06l.22-.03h.03c.21-.03.42-.07.64-.11l.02-.01h.02c.05-.01.1-.01.15-.02h.01c.28-.06.57-.13.86-.21h.01l.25-.07.74-.21.25-.08c.32-.1.64-.2.97-.32h.01c.01 0 .02-.01.02-.01l.17-.06.06-.02.02-.01.82-.3.3-.12c.31-.11.62-.24.94-.36.04-.02.09-.03.13-.05.05-.02.09-.04.14-.05l.09-.04c.31-.13.63-.26.95-.4l.02-.01.33-.14 1.03-.45.2-.09c.4-.17.8-.36 1.2-.54l.03-.01.04-.02.3-.14c.35-.16.69-.32 1.04-.48l.32-.15c.43-.2.85-.41 1.29-.61l.25-.12.08-.04.19-.1.85-.41.49-.23.92-.45.3-.15.03-.02.11-.06.28-.14.9-.45.38-.19c1.21-.59 2.44-1.2 3.69-1.81l.34-.16c2.72-1.33 5.51-2.66 8.32-3.91l.28-.13c1.41-.63 2.82-1.23 4.23-1.81 16.62-6.77 32.63-7.8 32.63-7.8-.26-1.4-.56-2.78-.88-4.16-.07-.32-.15-.65-.23-.97-.33-1.35-.67-2.68-1.04-4-.03-.12-.07-.24-.11-.36-.35-1.25-.73-2.47-1.12-3.68l-.26-.81c-.43-1.3-.88-2.59-1.35-3.85-.04-.12-.09-.24-.13-.36-.46-1.22-.93-2.41-1.41-3.59l-.19-.46c-.53-1.28-1.07-2.53-1.62-3.76l-.07-.16c-1.16-2.56-2.36-5.01-3.57-7.34l.36.03C180.8 54.94 172.31 46 172.31 46c-18.94-5.92-63.79 25.43-63.79 25.43l-.23.06-4.23-8.312c-.57-.25-1.16-.46-1.76-.64-.2-.06-.41-.106-.62-.16-.405-.11-.82-.22-1.24-.3-.25-.05-.51-.088-.77-.13-.39-.06-.784-.12-1.19-.163-.273-.03-.56-.05-.84-.07-.394-.03-.794-.05-1.2-.06-.29-.007-.583-.01-.88-.006-.41 0-.825.02-1.243.04-.3.01-.6.03-.9.05-.44.03-.87.08-1.31.13-.3.03-.6.06-.9.1-.47.06-.95.14-1.43.23-.27.04-.54.08-.82.14-.605.11-1.216.24-1.83.38-.155.03-.31.06-.46.1-.77.18-1.545.38-2.325.6-.243.07-.49.15-.734.22-.54.16-1.09.32-1.63.49-.31.1-.63.2-.94.31-.487.16-.97.32-1.45.49-.34.12-.67.24-1.01.37-.467.17-.93.34-1.397.52l-1.03.41c-.46.18-.92.37-1.38.56-.34.14-.68.28-1.02.43-.46.2-.93.4-1.39.61-.33.15-.67.29-1 .45-.48.22-.96.44-1.44.67-.31.14-.62.29-.93.44-.54.26-1.08.53-1.61.8l-.72.35c-.76.39-1.52.78-2.27 1.17l-.68.37c-.53.28-1.06.56-1.58.84l-.92.51-1.28.72c-.33.18-.65.36-.97.55-.39.22-.79.45-1.18.68l-.97.56-1.11.66c-.32.19-.64.38-.95.58l-1.05.64-.91.56c-.34.21-.68.42-1.01.63-.29.18-.58.37-.87.55l-.97.62c-.27.17-.55.35-.81.52-.31.2-.61.39-.91.59-.55.36-1.09.72-1.6 1.06l-.61.41-.87.59c-.18.13-.37.26-.55.38-.28.19-.55.38-.82.56l-.46.32-.78.55-.2.14-1.42-2.26-.1-.11c-1.39-2.06-4.23-2.62-6.33-1.26-2.1 1.37-2.68 4.14-1.28 6.2l.01.01 1.56 2.3c-.11.26-.21.53-.27.83-.08.38.17.76.55.84.05.01.1.01.15.01.11 0 .2-.03.29-.07.01 0 .02-.01.03-.02.09-.05.16-.11.23-.18l.03.04c.39.56.8 1.17 1.26 1.85l4.37 6.46c1.67 2.5 3.55 5.32 5.61 8.4l14 21.05c2.58 3.84 5.16 7.86 7.82 11.92l3.5 5.35v.01c.01.02.01.03.01.05-.19.3-.37.62-.52.98-.15.36.02.78.38.93.09.04.18.06.28.06.28 0 .54-.17.66-.44.03-.07.07-.14.11-.21 1.21 1.86 2.43 3.73 3.65 5.59l4.1 6.29c-.11.09-.22.19-.34.29 0 0-1.04 1.31.14 2.19.35.26.92.48 1.73.07 0 0 .04-.02.07-.05l.02-.02.13.2.21.32-.02.01c-.14.05-.27.1-.4.16l-.1.05c-.09.04-.18.09-.26.14-.04.02-.07.04-.1.07-.07.05-.14.1-.19.15l-.07.07c-.06.08-.12.16-.15.24 0 0-.68 1.13.59 1.86.45.25 1.3-.16 1.3-.16s.35-.22.86-.39l.54.81 1.64 2.51.01.01 1.52 2.33.6.92.9 1.4c.01.01.02.03.03.05.46.71.92 1.42 1.37 2.12.56.88 1.12 1.76 1.67 2.64l4.02 6.4c-.73 1.35-.76 2.81-.76 2.81-.03.21-.06.43-.07.63v.22c0 .13 0 .26.01.39l.02.25c.01.11.03.22.04.32.02.1.03.19.05.27.02.09.04.17.07.25.16.59.4 1.12.67 1.59-.06.03-.14.07-.22.13-.33.24-1.04.8-1.25.81 0 0-.3.01-.34.27 0 .02 0 .07.01.12v.03c.03.19.11.53.26.97l.01.02-.19.33c-.05.08-.09.16-.14.25l-.16.3-.18.33-.15.3-.18.37-.14.3c-.07.14-.13.28-.19.42l-.12.29c-.07.15-.12.31-.18.47l-.1.27-.18.57c-.02.06-.04.12-.05.18-.07.25-.13.51-.18.77-.01.04-.01.08-.02.12-.04.21-.07.43-.1.64-.01.08-.01.17-.02.25-.01.17-.02.34-.02.51 0 .09 0 .19.01.28 0 .15.01.31.03.46.01.1.02.2.04.3.02.14.06.29.09.43.02.1.05.2.08.29.05.15.1.29.16.43.04.09.08.19.12.27.08.15.17.3.26.44.05.08.09.15.14.22.16.22.33.42.53.61.17.17.35.32.54.45l.06.05c.56.4 1.19.66 1.86.81l.08.02c.19.04.38.07.58.09l.14.02c.22.02.45.03.68.03 2.81 0 6.19-1.4 9.35-2.94l.3-.15c.88 1.39 1.72 2.73 2.51 3.99-.28.14-.56.29-.84.45-.09.06-.18.12-.28.18-.25.15-.49.32-.72.49-.1.07-.2.15-.29.23-.31.25-.61.51-.9.8-2.97 3.05-3.75 7.55-2.3 13.37l2.45-.61c.08.19.16.39.24.6v.01c.16.39.31.78.44 1.14l.02.05.17.48v.01h-.03c.02.03.04.06.05.09l.01.03.01.03c-.23-.04-6.91-1.29-12.4-1.1-.28.01-.56.02-.83.04h-.04l-.78.06-.06.01c-.25.02-.48.05-.72.08l-.09.01c-.22.03-.44.07-.65.11l-.11.02c-.2.04-.4.09-.59.14l-.12.03c-.18.05-.36.1-.53.16-.04.01-.09.02-.13.04-.16.06-.31.12-.46.19-.04.02-.09.03-.13.05-.14.06-.26.14-.39.21l-.14.07c-.11.07-.22.15-.32.23l-.12.09c-.1.08-.18.17-.26.26-.04.04-.08.07-.11.11-.08.09-.13.19-.19.29-.03.04-.06.08-.09.13-.05.1-.09.22-.13.34-.02.05-.04.09-.05.14-.04.16-.07.34-.07.52 0 0 1.66 2.06 2.81.47 0 0 .17 2.56 2.78.31 0 0 .87 2.83 3.04.51l16.7-.94s1.3-.94-2.57-2.9h-.05l-.01-.03-.1-.24c-.02-.05-.05-.11-.07-.16l-.08-.18c-.02-.04-.03-.07-.05-.11l-.58-1.37-.32-.77 1.01-.25c-.6-2.39-.97-5.59.63-7.24.13-.13.27-.25.42-.37.1-.07.2-.13.3-.2.05-.03.11-.07.16-.1.15-.08.29-.16.44-.23l.05-.02c.17-.08.35-.15.53-.21l.37.59 4.72 7.5.02.02.16.26.03.05.03.05c.56.89 1.73 1.18 2.66.67.95-.53 1.28-1.71.73-2.63l-3.31-5.66.45.15.08.02c.19.06.39.12.62.19.02.01.04.01.06.02.21.06.43.13.67.19l.17.05c.25.07.51.14.79.2l.21.05c.3.06.6.13.92.19l.08.01c.3.06.61.1.92.14l.21.03c.33.04.66.07 1 .09l.2.01c.36.02.71.03 1.06.02h.02c.4-.02.8-.03 1.21-.06h.05c.41-.03.83-.06 1.26-.1l.06-.01c.43-.05.87-.1 1.31-.16l.07-.01c.44-.06.89-.13 1.34-.21h.03l.04-.01c.44-.08.9-.16 1.35-.27.01 0 .03 0 .04-.01l.04-.01h.01c.47-.1.94-.22 1.41-.35h.05l.04-.01c.48-.13.95-.27 1.42-.43l.03-.01c.48-.16.96-.33 1.44-.52.01 0 .02-.01.03-.01h.01l.01-.01c.48-.19.96-.4 1.44-.62l.03-.01.01-.01c.01 0 .02-.01.02-.01.48-.23.96-.47 1.43-.73l.01-.01c.48-.27.95-.55 1.41-.86h.01v-.01l.01-.01c.17-.11.35-.23.52-.35l.01-.01c2.38 2.2 5.15 4.92 7.91 7.96l.04.04c.66.73 1.32 1.48 1.98 2.24l.14.17c.62.73 1.24 1.48 1.85 2.24l.17.22c.6.76 1.2 1.54 1.78 2.33.04.06.09.11.13.17.62.84 1.21 1.69 1.79 2.54l1.74-1.16c.02.02.04.05.06.07.28.37.57.76.84 1.13-.02.07-.04.14-.06.23-.02.1-.03.2-.04.32-.08 2.49 9.06 9.86 9.24 11.9 0 0 1.24 4.26 4.61 2.67 0 0 2.4.35 2.31-1.25 0 0 1.6.27 1.6-1.15 0-.08-.03-.2-.1-.34l-.01-.02c-.06-.14-.16-.3-.27-.48l-.04-.06c-.12-.18-.27-.38-.43-.59l-.07-.09c-.17-.22-.35-.45-.56-.69-.03-.04-.06-.07-.09-.11-.21-.25-.44-.5-.68-.77l-.1-.12c-.25-.28-.51-.56-.78-.85l-.11-.12c-.29-.3-.58-.6-.89-.91l-.09-.09c-.32-.32-.65-.64-.98-.97l-.06-.06c-2.9-2.78-6.35-5.61-8.66-6.51-.06-.16-.82-.96-1.62-1.94l-.19-.24-.08-.11c-.1-.13-.19-.26-.29-.39-.02-.02-.04-.05-.06-.08l1.29-.86c-.67-1-1.37-1.99-2.08-2.96l-.21-.28c-.7-.94-1.42-1.87-2.15-2.78l-.06-.07c-.76-.94-1.53-1.86-2.31-2.76l-.13-.16c-.77-.88-1.54-1.74-2.31-2.57l-.03-.03c.51.25 1.04.49 1.61.7 1.15.45 2.46.77 3.89.85.27.02.56.02.84.01h.03c.52-.02 1.05-.08 1.58-.19h.01l.12-.03c.3-.06.59-.14.89-.23.34-.11.68-.25 1.01-.4.75-.31 1.38-.8 2.03-1.26.56-.52 1.18-1.05 1.62-1.66 1.93-2.38 2.96-5.11 3.72-7.82.22-.68.36-1.36.51-2.05l.23-1.03.06-.26.06-.27.09-.52c.24-1.42.41-2.73.59-4.06.7-5.29 1.45-10.49 2.62-15.14.59-2.32 1.29-4.49 2.12-6.34.82-1.84 1.86-3.35 2.78-4.04.46-.36.84-.52 1.2-.57.35-.06.73-.05 1.16.05.87.2 1.83.74 2.59 1.27.77.52 1.37 1.05 1.78 1.41l.62.56.09.09c.03.03.07.06.1.09 1.51 1.26 3.75 1.07 5.01-.43.15-.18.28-.37.39-.57.04-.07.06-.14.1-.22.05-.13.11-.26.15-.4zm-82.45 30.61v.008c-.002 0-.003-.003-.004-.005.002 0 .003-.002.005-.003zm-15.585-26.66l-.02-.04c-.36-.61-.71-1.223-1.08-1.836 1.39.083 3.01.193 4.82.34l.75.063h.01c.59.44 1.21.85 1.84 1.24l.03.02c.63.39 1.29.75 1.97 1.1l.06.03c.67.33 1.36.65 2.07.94l.1.04c.7.28 1.42.54 2.15.78l.14.04c.73.23 1.47.44 2.23.61.06.01.11.02.16.03.76.17 1.53.33 2.32.45.05.01.11.01.16.02.8.12 1.6.22 2.42.28h.11c.84.06 1.69.1 2.55.1.31.01.74 0 1.25-.03l1.15-.06c.15.51.26.99.34 1.44.04.22.07.43.09.64v.02c.03.2.04.4.06.6h-.01c-.18.07-.35.13-.51.19l-.05.02c-.17.06-.33.11-.47.15l-.26.07c-.06.01-.11.02-.16.02l.03.01-.27.07c.09.26.17.51.24.75.05.18.1.36.14.53l.02.08c.06.25.1.49.14.74 0 .01.01.02.01.03v.01c.03.2.05.39.06.58l.02.16v.01c.03.46.02.89-.02 1.29-.05.06-.1.12-.14.19l-.03.04c-.03.06-.07.12-.1.18l-.03.08c-.02.05-.04.11-.05.17-.01.02-.01.05-.01.08-.01.08-.01.16.02.24 0 0-.98.71-.89 1.6l-.04.02c-.02.01-.02.02-.05.03-.03.02-.05.05-.08.08l-.07.1c-.03.04-.05.08-.08.13-.22.15-.43.28-.65.42l-.85.54-.47.3c-.34.22-.69.44-1.02.65l-.42.26-.97.6c-.16.09-.31.19-.46.28l-.86.53-.44.27-.81.48-.43.26-.76.44c-.14.08-.27.16-.4.23l-.74.43-.35.2-.9.5-.1.06-.63-1.09-5.52-9.44.01-.02c.04-.17.05-.31.05-.45 0-.04-.01-.08-.02-.12-.01-.09-.03-.18-.06-.26-.01-.03-.02-.06-.04-.1-.04-.08-.08-.16-.14-.23l-.04-.05c-.07-.08-.15-.16-.23-.22-.01-.01-.02-.01-.04-.02-.07-.05-.14-.1-.21-.14l-.08-.04c-.05-.02-.1-.05-.15-.07-.03-.01-.05-.02-.07-.03l-.02-.01-4.11-7.03c-.33-.57-.67-1.15-1.01-1.72zm8.02 23.294c-.26.13-.52.25-.77.364l-.01.007c-.99.46-1.82.802-2.5 1.055v.002c-.16.06-.31.114-.46.164l-.04.015c-.13.045-.26.086-.38.124l-.05.017c-.13.04-.25.078-.37.11.35-.788.84-1.705 1.35-2.467l-.07-.05c.06-.107.09-.227.09-.355v-.06c.01-.122-.01-.248-.04-.382v-.02c-.03-.143-.09-.29-.15-.438l-.03-.066c-.06-.138-.13-.275-.21-.412l-.02-.033c-.09-.15-.18-.29-.28-.43l-.03-.04c-.09-.13-.19-.26-.28-.38-.01 0-.01-.01-.02-.02-.21-.26-.4-.48-.53-.63.66-.89.28-1.89.04-2.34l-.09-.16-.01-.01-.03-.05c.05-.2.13-.37.22-.54.03-.05.06-.11.1-.16.01-.02.03-.04.05-.06l.38.61 1.46 2.33 2.74 4.36zm-6.53-9.792c0-.003 0-.005.01-.007.05-.123.1-.238.16-.346l.28.45-.53.31c.02-.14.05-.27.09-.4zm-30.55-61.41L53.98 104.04l-5.34-8.592-1.472-2.338-2.397-3.805c.42.216.83.456 1.25.71l.2.12c.84.52 1.69 1.11 2.55 1.77l.19.147c.43.333.86.68 1.28 1.047.05.03.09.07.13.11.41.35.81.71 1.22 1.09l.15.14c.43.4.86.82 1.29 1.25l.2.2c.42.42.84.86 1.25 1.31l.06.06c.43.46.86.95 1.28 1.44l.24.28c.85.99 1.69 2.05 2.52 3.15.09.1.17.21.25.32.41.54.82 1.1 1.22 1.68l.16.22c.37.52.73 1.06 1.09 1.6l.22.32c.39.59.77 1.2 1.16 1.81l.23.37c.35.57.7 1.14 1.04 1.73.05.08.1.16.14.25.37.64.73 1.29 1.09 1.95l.24.45c.37.67.73 1.36 1.08 2.05.43.85.84 1.69 1.23 2.54l.33.71c.29.63.57 1.27.84 1.9l.3.69c.32.77.63 1.54.93 2.3l.07.18c.34.88.66 1.76.95 2.62l.06.16c.28.8.53 1.6.77 2.38l.1.31c.77 2.57 1.37 5.06 1.79 7.41-1.2-1.97-2.38-3.92-3.55-5.85-.97-1.6-1.93-3.19-2.9-4.73z"/><path fill="#FFF" d="M96.93 203.362c-1.533 0-2.895-.417-3.957-1.455-3.373-3.298-.095-9.066 1.47-11.394l5.406 3.633c-.51.762-1.01 1.68-1.35 2.467 3.2-.89 11.74-4.716 33.56-20.12l3.75 5.318c-12.85 9.07-22.78 15.34-29.54 18.62-3.17 1.54-6.55 2.94-9.35 2.94z"/><path fill="#E5E5E5" d="M119.902 185.122s-13.59 16.99-25.762 17.62c.83.43 1.77.62 2.79.62 2.805 0 6.185-1.396 9.35-2.934 4.462-2.17 10.32-5.644 17.475-10.36l-3.853-4.946z"/><path fill="#FFF" d="M105.53 217.52s1.6 3.907 1.732 4.618c.134.71 3.063-.4 3.063-.666 0-.268-1.953-3.642-1.998-5.55-.044-1.91-2.975 1.686-2.975 1.686"/><path fill="#FFF" d="M107.13 221.628c-.03-.052-.058-.103-.09-.155 1.467.412 2.1-.16 3.296-.142 3.874 1.97 2.572 2.9 2.572 2.9l-16.703.94c-2.175 2.32-3.042-.5-3.042-.5-2.607 2.25-2.782-.31-2.782-.31-1.15 1.6-2.81-.47-2.81-.47.19-5.93 19.57-2.25 19.57-2.25z"/><path fill="#D0D2D3" d="M93.256 224.08s.996-2.59 4.468-.52c0 .003-3.657-2.996-4.468.52zm-2.634-.438s.594-2.338 1.887-1.324c-.01 0-1.02-.47-1.89 1.324zm15.583-4.48l3.75 1.465-.975-2.31"/><path fill="#FFF" d="M158.093 222.62s2.58 3.344 2.896 3.992c.31.65 2.84-1.198 2.77-1.455s-2.85-2.99-3.4-4.82c-.55-1.83-2.42 2.417-2.42 2.417"/><path fill="#FFF" d="M163.118 224.935s-3.108-1.688-3.197.8c-.08 2.486 9.06 9.855 9.24 11.898 0 0 1.25 4.263 4.62 2.664 0 0 2.4.355 2.31-1.243 0 0 1.6.267 1.6-1.155 0-1.42-10.21-11.9-14.56-12.97z"/><path fill="#D0D2D3" d="M171.762 237.484s2.25 1.245 1.775 2.725c0 0 1.48-1.78-1.775-2.73zm2.486-1.33s2.25 1.242 1.776 2.722c0 0 1.48-1.775-1.776-2.723z"/><path fill="#231F20" d="M103.748 219.8c-1.45-5.82-.677-10.316 2.298-13.366 5.186-5.312 14.658-3.385 15.72-3.148l-1.412 6.358c-1.787-.39-7.397-.978-9.655 1.345-1.61 1.65-1.23 4.84-.64 7.24l-6.32 1.57z"/><path fill="#D3AD59" d="M39.535 81.113l3.62 5.744 4.152 6.59 5.34 8.594 13.363 21.52c2.458 3.93 4.906 8.05 7.44 12.19l7.65 12.61 7.65 12.6c2.51 4.16 5.04 8.22 7.348 12.24l12.77 21.86 12.456 21.32c.54.93.214 2.11-.73 2.64-.925.52-2.1.22-2.656-.66l-.027-.04-13.13-20.88c-3.94-6.26-8.53-13.56-13.45-21.39-2.43-3.93-5.09-7.9-7.73-11.98l-8.05-12.33-8.05-12.33c-2.66-4.06-5.24-8.08-7.81-11.92l-14.06-21.06-5.6-8.39c-1.68-2.49-3.15-4.66-4.37-6.45l-3.8-5.62h-.01c-1.4-2.06-.82-4.83 1.28-6.2 2.1-1.36 4.93-.8 6.32 1.26l.07.12z"/><path fill="#AF893E" d="M33.826 89.928c-.048 0-.1-.005-.148-.015-.384-.083-.63-.46-.547-.843.88-4.092 7.03-4.512 7.29-4.527.39-.024.73.274.75.666.03.39-.27.72-.66.75-.05 0-5.33.37-5.98 3.4-.07.33-.36.56-.69.56zm53.524 79.88c.305.466.603.928.904 1.393 1.616.17 5.104.24 6.834.27-1.574-2.68-3.225-5.39-4.896-8.13l-4.212-.82v-2.66s-3.93-2.61-6.05-1.4c1.223 1.88 2.442 3.74 3.65 5.6l1.64 2.52c.537.15 1.22.24 2.09.22 3.553-.09.356 0 .356 0s-.24 1.77-.315 3.04zm8.685 13.71l3.69 5.867c.188-.194.45-.373.82-.504 1.508-.53 1.597-2.57 1.686-3.99s-1.59-3.28-1.59-3.28c-1.04-1.23-3.4.76-4.6 1.92z"/><path fill="#AF893E" d="M38.857 85.488s28.653 42.327 32.205 59.614l1.303-1.598s-12.58-34.1-30.902-57.424"/><path fill="#AF893E" d="M71.12 146.76c-.09 0-.184-.017-.273-.054-.36-.152-.532-.568-.38-.93 1.685-4.02 6.6-4.5 6.808-4.52.392-.036.734.254.77.644.036.392-.252.736-.643.772-.042.004-4.274.43-5.625 3.652-.114.274-.38.437-.656.437z"/><path fill="#490101" d="M120.413 112.544s.08.094.225.27c1.01 1.24 5.128 6.502 6.443 11.48l14.63-2.058.15-9.17-13.67-10.57"/><path fill="#D0D2D3" d="M93.753 147.263s-5.482-9.97 4.694-6.508c10.18 3.464-4.694 6.508-4.694 6.508z"/><path fill="#919496" d="M95.674 144.514s-4.88-4.925-1.372 1.666c3.507 6.593 1.372-1.666 1.372-1.666z"/><path fill="#FFF" d="M145.437 153.188c-1.855-10.96-13.41-19.4-27.396-19.4-2.91 0-5.72.37-8.36 1.05-5.75 2.678-12.48 7.53-15.17 16.243-4.97 16.11 24.93 22.38 24.93 22.38 2.13 4.68 1.01 7.82 1.01 7.82v.42l-.19.07c.2 2.21.02 4.62-1.21 6.3 0 0-12.69 9.49-6.21 18.51-.01-.07-1.66-15.8 10.44-18.6l-2.11-9.64s4.5-1.34 9.84-3.7v12.41s-12.77 14.92-5.54 25.02c12.66-.38 38.12-7.15 20.01-58.85z"/><path fill="#E5E5E5" d="M119.725 174.778s2.442 3.67 2.354 5.002l15.58-5.284s-1.6-4.795-2.58-5.816c0 0-8.79 5.3-15.37 6.098z"/><ellipse fill="#FFF" cx="117.831" cy="154.753" rx="26.64" ry="20.957"/><path fill="#FFF" d="M144.24 197.54s.215.23.61.662c.412.436 1.03 1.072 1.85 1.845s1.84 1.687 3.06 2.65c1.218.955 2.64 1.966 4.25 2.834.81.42 1.66.83 2.536 1.1.878.31 1.778.47 2.633.48.86.03 1.65-.16 2.36-.54.37-.14.69-.46 1.04-.7.3-.34.65-.61.92-1.05 1.18-1.57 2-3.8 2.54-6.16.16-.58.26-1.19.37-1.81l.16-.92.04-.23.03-.22.06-.47c.15-1.21.27-2.56.39-3.88.47-5.32 1.01-10.76 2.08-15.88.54-2.56 1.21-5.06 2.16-7.44.48-1.19 1.04-2.35 1.74-3.47.7-1.11 1.53-2.2 2.63-3.13 1.07-.93 2.43-1.69 3.86-2.03 1.42-.35 2.82-.32 3.98-.1 2.33.46 3.89 1.37 5.09 2.1 1.19.74 2 1.4 2.55 1.85l.82.69c1.5 1.27 1.69 3.51.43 5.01-1.27 1.5-3.51 1.69-5.01.43l-.1-.08-.1-.09-.62-.56c-.41-.36-1.01-.88-1.78-1.41-.76-.53-1.72-1.06-2.59-1.27-.43-.1-.81-.12-1.16-.05-.36.06-.74.22-1.2.58-.92.7-1.96 2.2-2.78 4.04-.84 1.85-1.53 4.02-2.12 6.33-1.18 4.65-1.93 9.85-2.62 15.14-.18 1.34-.35 2.65-.59 4.07l-.09.52-.06.27-.06.26-.23 1.03c-.15.69-.29 1.37-.51 2.05-.76 2.71-1.8 5.44-3.72 7.82-.44.61-1.06 1.13-1.63 1.66-.65.47-1.28.96-2.03 1.26-1.44.69-3.06.95-4.48.85-1.44-.09-2.75-.41-3.89-.86-1.17-.43-2.19-.97-3.14-1.52-1.88-1.11-3.41-2.31-4.71-3.42-1.29-1.11-2.35-2.14-3.19-3.01-.85-.87-1.48-1.58-1.91-2.07l-.66-.78c-.64-.74-.54-1.86.2-2.49.73-.61 1.81-.54 2.45.15l.05.06z"/><path fill="#D0D2D3" d="M159.026 211.475c.407.03.834.02 1.265-.01-4.39-.55-6.62-3.47-7.71-6.776-1.03-.65-1.97-1.34-2.81-2-1.22-.97-2.24-1.88-3.06-2.65s-1.43-1.41-1.85-1.85c-.39-.44-.61-.66-.61-.66l-.05-.06c-.53-.58-1.36-.72-2.05-.4l-1.01 1.64c.01.39.14.78.41 1.1l.66.78c.43.49 1.06 1.2 1.91 2.07.85.86 1.9 1.89 3.2 3 1.3 1.11 2.83 2.3 4.71 3.42.95.54 1.97 1.09 3.14 1.51 1.15.45 2.46.77 3.89.86zm30.632-42.687c-5.093-.118-9.636-12.68-15.156.12-5.21 12.075.564 35.06-13.02 42.39.688-.143 1.374-.355 2.025-.666.752-.303 1.38-.792 2.03-1.256.565-.524 1.18-1.05 1.62-1.656 1.926-2.382 2.96-5.114 3.725-7.82.215-.682.36-1.363.51-2.05l.23-1.03.057-.257.05-.27.09-.518c.23-1.42.4-2.73.58-4.066.69-5.3 1.44-10.49 2.62-15.14.58-2.32 1.28-4.49 2.11-6.33.82-1.84 1.85-3.35 2.77-4.04.46-.36.84-.52 1.2-.58.35-.07.72-.05 1.16.05.87.2 1.83.73 2.59 1.27.77.52 1.37 1.05 1.77 1.41l.62.57.09.08.1.09c1.5 1.26 3.74 1.07 5.01-.43 1.12-1.34 1.09-3.26.01-4.56.38 2.08.27 4.73-2.83 4.66z"/><path fill="#231F20" d="M157.39 225.143c-8.49-12.734-22.415-23.637-22.555-23.745l3.996-5.14c.61.47 14.91 11.67 23.98 25.273l-5.42 3.62z"/><path fill="#FFF" d="M98.224 140.598c5.026-4.195 12.043-6.81 19.816-6.81 8.377 0 15.88 3.03 20.95 7.814 7.264-3.158 7.818 1.37 7.818 1.37.42.86-.32 1.484-.444 2.396-15.846 7.007-35.66 9.162-48.14-4.77z"/><path fill="#D0D2D3" d="M130.972 187.026v-12.41c-5.345 2.36-9.81 3.702-9.81 3.702l2.087 9.643c-12.11 2.81-10.46 18.53-10.45 18.6 1.26 1.76 1.9 2.36 4.86 4.01 0 0 3.99 1.6 7.76 1.48-7.24-10.1 5.54-25.02 5.54-25.02z"/><ellipse fill="#D0D2D3" cx="116.993" cy="152.519" rx="23.51" ry="17.834"/><ellipse fill="#FFF" cx="104.987" cy="147.89" rx="9.191" ry="9.058"/><ellipse fill="#FFF" cx="126.357" cy="148.095" rx="11.344" ry="11.269"/><circle fill="#0071BC" cx="127.086" cy="145.936" r="8.784"/><path fill="#0F4481" d="M128.804 147.464c-2.407.65-4.883-.77-5.534-3.175-.65-2.41.768-4.88 3.177-5.54 2.402-.65 4.88.77 5.53 3.17.652 2.4-.77 4.88-3.173 5.53z"/><path fill="#FFF" d="M128.698 144.497c-1.28.346-2.595-.41-2.94-1.688-.346-1.28.407-2.6 1.686-2.94 1.28-.35 2.596.41 2.942 1.68.344 1.28-.41 2.59-1.688 2.94z"/><circle fill="#FFF" cx="125.141" cy="146.835" r="1.168"/><circle fill="#0071BC" cx="105.604" cy="146.669" r="7.293"/><path fill="#0F4481" d="M107.087 147.872c-1.97.63-4.08-.45-4.71-2.42-.633-1.968.45-4.078 2.42-4.712 1.968-.63 4.078.45 4.71 2.422.633 1.967-.45 4.078-2.42 4.71z"/><path fill="#FFF" d="M106.886 145.414c-1.047.337-2.167-.24-2.503-1.285-.335-1.05.238-2.17 1.286-2.51 1.04-.34 2.16.24 2.5 1.29.33 1.04-.25 2.16-1.29 2.5z"/><circle fill="#FFF" cx="104.026" cy="147.49" r=".969"/><path fill="#D0D2D3" d="M95.305 151.94s9.502-6.305 19.092-3.196c0 0 11.544-4.44 24.065.71l-1.688 9.413-11.81 4.972-24.776.08-4.883-11.99z"/><path fill="#231F20" d="M112.706 195.187c-1.875 3.31-2.76 7.387.1 11.372 1.264 1.75 1.9 2.35 4.862 4 0 0 3.992 1.59 7.765 1.48 6.462-.2 16.262-2.07 21.896-10.73-8.24-3.11-23.03-5.03-34.63-6.13z"/><path fill="#BE1E2D" d="M112.83 153.152s1.133 3.84-.177 4.04c0 0 5.15 3.152 5.995-3.575 0 0-3.952.49-4.928-.71l-.89.245z"/><path fill="#6C6F71" d="M113.412 153.177l-.026-.052c-.02-.05-.047-.135-.07-.236-.032-.12-.022-.19-.027-.28l-.01-.29.09-.72.69.14-.11.62-.01.21c0 .06-.01.15 0 .15 0 .02-.01.04-.01.06l.02.05-.57.31z"/><path fill="#6C6F71" d="M109.648 149.852c.327.533.393 1.02.556 1.492.17.462.42.876.764 1.13.34.257.77.36 1.24.337.232 0 .475-.04.718-.09.243-.06.485-.13.732-.2l.156-.04.147.07c.29.13.62.25.93.35.32.1.64.18.97.24.65.13 1.31.18 1.94.11.64-.06 1.25-.27 1.79-.61.27-.17.51-.38.76-.59.26-.21.51-.43.86-.62-.03.39-.17.75-.39 1.05-.21.31-.5.55-.8.78-.6.46-1.34.75-2.09.85-.75.11-1.5.06-2.22-.11-.36-.08-.71-.19-1.05-.32-.34-.14-.67-.28-1-.48l.31.02c-.25.13-.52.23-.8.32-.28.08-.56.15-.87.16-.6.06-1.29-.1-1.8-.53-.51-.42-.78-1-.93-1.56-.14-.56-.21-1.16.13-1.7z"/><path fill="#1D8FCD" d="M111.215 149.984s2.043-4.16 2.797-1.964c0 0 1.69-2.473 1.69 1.5 0 0-1.6 1.09-1.69 2.414 0 0-1.654-.665-2.797-1.95z"/><path fill="#FFF" d="M114.012 150.92s.104-.563.896-1.12c0 0-.292-1.077-.896 1.12z"/><path fill="#6C6F71" d="M112.393 158s-.02.105-.05.293l-.14.677c-.022.132-.056.278-.05.432-.008.153.02.31.05.472.05.158.085.326.176.48.07.155.16.31.28.45.21.29.48.555.76.77.26.235.57.392.8.564.24.153.47.26.61.35l.23.136.02.015c.17.1.22.31.12.48-.1.16-.3.22-.46.14l-.26-.13c-.17-.09-.4-.2-.68-.36-.27-.18-.59-.36-.89-.63-.16-.13-.32-.26-.46-.43-.15-.16-.3-.32-.42-.52-.13-.18-.23-.39-.32-.6-.1-.2-.14-.43-.18-.64-.02-.22-.04-.43-.01-.62.01-.2.06-.38.1-.54.05-.16.12-.3.2-.41.07-.11.16-.19.23-.26.16-.13.27-.16.27-.16z"/><path fill="#FFF" d="M125.218 180.657s-1.51-3.552 1.776-4.617 19.002-7.28 21.755-11.455c0 0 .23-.415 0-1.037 0 0 .32-.06.44.178.12.237 1.27 5.063 1.27 5.063s6.45 20.57 2.36 34.42c0 0-2.13 2.57-9.95-1.42v-3.11l-2.49 5.24s-7.37 4.97-21.58.35c0 0-7.2.71-8.79-1.07 0 0-1.51-6.57 8.25-16.52 0 0 2.48-2.93.71-7.82l2.75-.71s1.15 0 1.33.97c.18.98.53 2.13.53 2.13s.11.25.37.35c.43.16 1.25.14 1.22-.97z"/><path fill="#E5E5E5" d="M152.833 203.213c.138-.463.26-.933.374-1.41-2.886 1.16-7.566-.81-7.566-.81s-.88-7.99-1.42-8.26c-.53-.265-1.77 3.02-1.77 3.02l-3.64 6.572c-5.77 4.086-21.4-.266-21.4-.266-2.37.95-5.32.16-7.42-.7-.1 1.19.05 1.85.05 1.85 1.6 1.77 8.79 1.06 8.79 1.06 14.21 4.61 21.58-.36 21.58-.36l2.49-5.24v3.1c7.82 3.99 9.95 1.42 9.95 1.42z"/><path fill="#FFF" d="M129.07 194.478c-.114-.932-.256-1.762-.408-2.428-.813.012-1.49-.07-1.49-.07l.31 2.576c.558.132 1.1.07 1.587-.078z"/><path fill="#E5E5E5" d="M126.946 201.876s.712-.147.712-.71c0 0 .828-.03.414-1.45 0 0 .562-.415.443-.917 0 0 .978-.42.148-1.52 0 0 .917-.57.385-1.36 0 0 .83-.95.474-1.84 0 0 .62-.12.592-1.39 0 0 .828-.48.652-1.57 0 0 1.005-.92.176-1.99 0 0 .89-.71.504-1.51 0 0 .8-1.01.355-1.72 0 0 1.07-.59.69-1.39 0 0 .77-.8.62-1.22 0 0 .83-.3.24-1.19 0 0 1.04-.98.39-1.54 0 0-.65-.36-1.57.23s-3.4 6.06-3.4 6.06-1.83 14.92-1.81 14.98z"/><path fill="#D0D2D3" d="M121.133 178.318l.13-.773 1.186-.533.35.236.29-.116-.06-.415s20.07-6.928 25.87-12.73l.23 1.895-6.75 6.57-18.41 7.432-2.86-1.566z"/><path fill="#E5E5E5" d="M129.67 181.394s-5.802 12.787-5.09 17.522c0 0-4.855-1.42-8.762-1.065 0 0 1.658-6.86 5.683-15.63l-1 .09s-6.45 11.05-7.16 16.73c0 0 11.96 1.07 13.62 2.84 0 0 1.42-14.09 6.04-21.67l-3.31 1.19z"/><path fill="#D0D2D3" d="M126.783 180.8l2.133 1.954s17.893-6.128 21.534-13.32c0 0-19.448 12.21-23.667 11.367z"/><path fill="#F4F4F4" d="M150.565 169.116c.006-.012.013-.02.02-.033l-1.143-4.396c.002-.014.007-.026.007-.042-.13-.5-.23-.858-.26-.92-.12-.236-.53-.174-.53-.174.17.6.08 1.04.08 1.04-2.76 4.18-18.47 10.39-21.76 11.46l-.15.06-3.23.99 1.58 3.71c-.04.85-.62.97-1.04.88-.06-.01-.12-.02-.17-.04-.26-.1-.38-.34-.38-.34s-.36-1.15-.54-2.13c-.02-.07-.04-.14-.07-.2l-.34-1.48s-2.01.96-3.05 1.26l-.23.06c-.07.02-.12.02-.17.03l.03.01-.27.07c.17.48.29.93.39 1.37.06.25.1.5.14.74 0 .02 0 .03.01.04l.06.58c0 .06.01.12.01.18h.07c.18.09.71.34 1.41.62.61.24 1.71.06 1.71.06-5.15 9.94-5.95 18.28-5.95 18.28l3.11.43c.22-6.62 6.63-19.3 6.63-19.3 10.04-1.61 16.55-5.67 20.21-8.8 1.61-1.18 2.92-2.48 3.7-3.89l.04-.07z"/><path fill="#E5E5E5" d="M129.314 174.467c-.548-.61-7.002-3.105-9.708-3.907-7.12-2.11-21.49-1.72-21.49-1.72l.01.016c4.872 4.21 11.907 6.422 19.705 6.854 2.13.118 10.09-1.066 11.49-1.243zm1.02.293l2.777 2.457 5.85.817s-7.24-3.266-8.62-3.273z"/><path fill="#D0D2D3" d="M124.12 177.337l3.447 4.174-2.514-2.04"/><path fill="#E5E5E5" d="M146.02 176.342s.067-.045.18-.114c.666-.41 2.524-1.38 3.708-.13 1.515 1.602-.676 7.758-2.702 10.35 0 0 6.354-6.163 4.01-10.793-1.368-2.707-4.91.492-5.195.687z"/><path fill="#D0D2D3" d="M122.478 177.96l-.544 4.506.61.11.82-1.132"/><path fill="#F4F4F4" d="M117.32 200.56s-.568-.454-.627-.248c-.06.21-1.006 3.315-.088 4.056 0 0 2.664.178 3.552.416 0 0-.354-3.346-.178-3.612.17-.268-2.16-.423-2.66-.612z"/><path fill="#919496" d="M139.514 142.118l2.856 6.247s8.78-10.923-2.856-6.247z"/><path fill="#D0D2D3" d="M136.917 140.84s-.27 2.31 1.878 2.632c0 0 10.53-3.438 2.848 5.8 0 0-.857 1.398.914 2.633 0 0 7.09-6.068 4.835-10.688 0 0-1.722-5.052-10.475-.378z"/><path fill="#F4F4F4" d="M95.667 189.095s-.196-.062-.527.178c-.332.242-1.036.8-1.255.81 0 0-.296.012-.34.27-.04.255.634 3.174 3.118 5.49 0 0 2.078-.72 2.885-1.56"/><path fill="#E5E5E5" d="M96.087 189.104c-.257-.11-1.048-.147-.9.875.15 1.02 2.55 5.23 4.184 4.47 1.64-.76-1.18-3.76-1.3-3.85-.15-.12-1.38-1.26-1.97-1.51z"/><path fill="#D0D2D3" d="M96.133 189.333c-.223-.113-.888-.195-.695.714.192.91 2.477 4.774 3.797 4.215 1.32-.558-1.263-3.367-1.35-3.472-.128-.16-1.243-1.2-1.752-1.457z"/><path fill="#FFF" d="M96.312 188.69l-.772.67s-.654.33.816 2.537l1.438-.506c0 .01-1.3-2.62-1.482-2.7z"/><path fill="#FFF" d="M94.584 185.224s.066-5.566 5.425-5.072c0 0 1.62.39 1.23 1.808-.12.416-.44.942-1.32 1.116 0 0-3.2.145-3.46 2.29 0 0 3.93-2.435 4.97-1.75 0 0 1.23.474.67 1.83-.2.476-1.12.676-1.12.676s-2.42.237-2.86 2.113c0 0 1.45 2.02-.7 3.278 0 0-3.53-2.537-2.87-6.29z"/><path fill="#A8170C" d="M171.11 44.995c-6.188 27.343-63.916 24.48-63.916 24.48l-.23.06-4.226-8.312C83.578 52.85 44.026 81.06 37.882 85.58c7.922.456 19.204 11.458 27.236 27.34 5.804 11.475 8.548 22.808 7.993 30.723 32.22-25.544 58.22-26.188 58.22-26.188 3.07.022 11.69 1.99 3.16 3.79-8.52 1.798-7.4 3.05-7.4 3.05 2.16 7.19 21.34-5.773 39.65-13.23 16.62-6.77 32.63-7.802 32.63-7.802-6.06-32.66-28.25-58.268-28.25-58.268z"/><path fill="#E5E5E5" d="M120.494 182.31s-.682-.03-.682.534c0 0-.74.682-.56 1.214 0 0-.98.71-.89 1.6 0 0-.444.205-.444.946 0 0-.858.354-.77 1.213 0 0-.8.354-.65 1.51 0 0-.977.68-.888 1.776 0 0-.65.386-.355 1.034 0 0-.83.327-.68 1.48 0 0-.888.475-.68 1.63 0 0-.74.59-.534 1.51 0 0-.74.502-.23 1.3 0 0-.41.652.21.978l7.25-16.636"/><path fill="#1F4AB5" d="M106.966 69.537l-4.227-8.313C83.58 52.85 44.02 81.06 37.88 85.58c1.606.093 3.353.625 5.18 1.538l51.325 3.935s16.932-7.814 21.668-5.446l-9.09-16.07z"/><path fill="#FFF" d="M108.18 86.317c-41.736-12.965-70.298-.737-70.298-.737 7.922.456 19.204 11.458 27.236 27.34 5.804 11.475 8.548 22.808 7.993 30.723l35.07-57.326z"/><path fill="#1F4AB5" d="M170.99 44.048c-18.942-5.92-63.795 25.43-63.795 25.43l-.23.06-2.177-4.285c2.114 5.885 4.648 11.49 7.122 13.37 0 0 8.17 14.207 9.59 15.036 0 0 20.818-10.72 43.81-19.78 15.628-6.16 16.692-4.5 22.438-4.1-8.266-16.8-16.757-25.74-16.757-25.74z"/><path fill="#D0D2D3" d="M148.75 164.585s.89-1.022-.088-1.033l.1.577s0 .18-.013.45z"/><path fill="#FFE000" d="M84.867 99.3l.96-.85-.96-.854-4.238.387c-.02-.204-.06-.403-.1-.6l3.42-.434-.02-.18-3.45.44c-.12-.46-.3-.88-.54-1.27l2.75-2.14-.11-.14-2.74 2.12c-.11-.17-.24-.33-.37-.49l3.29-2.74.07-1.28-1.28.07-2.75 3.3c-.16-.13-.33-.24-.5-.35l2.14-2.77-.14-.11-2.15 2.79c-.39-.22-.81-.39-1.26-.49l.45-3.52-.18-.03-.45 3.5c-.2-.04-.4-.07-.6-.08l.39-4.33-.86-.96-.85.96.39 4.35c-.21.02-.4.06-.6.1l-.45-3.55-.18.02.45 3.57c-.43.12-.83.3-1.2.52L71 91.39l-.14.11 2.21 2.85c-.17.11-.33.23-.48.36l-2.84-3.4-1.28-.08.08 1.28 3.41 2.84c-.13.15-.24.32-.35.49l-2.88-2.23-.11.14L71.54 96c-.21.37-.37.77-.48 1.187l-3.65-.464-.02.18 3.62.46c-.04.194-.07.39-.09.59l-4.44-.405-.96.85.96.855 4.44-.4c.02.2.05.4.09.59l-3.62.46.02.175 3.645-.464c.11.428.27.828.48 1.19l-2.896 2.25.11.14 2.88-2.23c.1.17.22.336.34.49l-3.42 2.84-.08 1.285 1.28-.08 2.83-3.41c.15.13.31.25.48.36l-2.21 2.85.14.11 2.22-2.87c.37.22.77.4 1.2.52l-.42 3.6.17.02.45-3.55c.19.04.39.08.59.11l-.4 4.35.85.96.85-.96-.4-4.34c.2-.02.4-.04.6-.08l.44 3.5.17-.02-.45-3.52c.45-.1.87-.27 1.26-.49l2.15 2.79.14-.11-2.15-2.76c.17-.1.34-.22.5-.34l2.74 3.3 1.28.08-.08-1.28-3.29-2.73c.13-.15.25-.31.36-.48l2.74 2.12.11-.14-2.76-2.13c.24-.4.42-.82.54-1.28l3.44.44.02-.18-3.43-.44c.04-.2.08-.4.1-.6l4.23.39zm-35.55-14.727l1.307.75 1.36-.65-.31 1.475 1.037 1.092-1.49.16-.71 1.325-.61-1.375-1.48-.273 1.12-1.01m50.95.637l1.31.75 1.36-.65-.31 1.476 1.04 1.09-1.5.162-.72 1.324-.61-1.375-1.48-.27 1.12-1.01m-26.3 41.49l1.31.75 1.36-.65-.31 1.48 1.04 1.09-1.5.16-.71 1.33-.61-1.37-1.48-.27 1.12-1.01"/><path fill="#FFF" d="M149.742 177.91l.3-1.28c-.34-.25-.7-.523-1.106-.775-.495-.31-1.03-.645-1.603-1-.58-.33-1.202-.657-1.855-1.013-.656-.352-1.358-.655-2.085-1.007-1.46-.665-3.055-1.308-4.754-1.92-.85-.312-1.73-.582-2.62-.886-.9-.29-1.82-.55-2.75-.83-1.87-.52-3.81-1.02-5.79-1.47-1.98-.45-3.99-.86-6-1.22-8.05-1.48-16.14-2.31-22.22-2.76-3.04-.23-5.58-.36-7.36-.44l-2.08-.08-.75-.02-.15 6.12 2.69.11c1.72.08 4.19.22 7.15.46 5.92.47 13.81 1.33 21.54 2.8 1.93.35 3.85.77 5.72 1.2 1.88.43 3.7.91 5.45 1.41.86.27 1.72.51 2.55.78.81.28 1.63.54 2.4.83 1.54.56 2.96 1.15 4.24 1.74.62.31 1.24.58 1.79.88l1.56.86 1.29.82c.4.25.72.52 1.03.74.64.43 1.04.84 1.34 1.1l.46.39 1.32-2.75.23-2.85z"/><path fill="#F4F4F4" d="M89.176 162.743s.158-.13.555-.034c.4.09 1.27.34 1.47.27 0 0 .28-.1.42.12.14.22.62 3.17-.79 6.26 0 0-2.19.12-3.26-.35"/><path fill="#E5E5E5" d="M88.79 162.91c.198-.196.915-.53 1.166.47.25 1.002-.367 5.81-2.168 5.732-1.8-.08-.326-3.926-.252-4.058.098-.17.803-1.69 1.255-2.143z"/><path fill="#D0D2D3" d="M88.835 163.143c.164-.19.747-.52.915.394.168.915-.476 5.36-1.91 5.344-1.432-.01-.11-3.59-.07-3.72.057-.19.692-1.58 1.065-2.01z"/><path fill="#FFF" d="M86.7 158.956s-3.472-4.352-7.395-.668c0 0-1.04 1.304.136 2.187.35.26.92.477 1.73.07 0 0 2.62-1.853 4.13-.315 0 0-4.59.493-5 1.675 0 0-.68 1.134.59 1.86.45.256 1.3-.154 1.3-.154s2.06-1.29 3.56-.08c0 0 .1 2.49 2.57 2.16 0 0 1.23-4.17-1.6-6.72z"/><path fill="#FFF" d="M88.425 162.617l.97.323s.73.06.21 2.656l-1.523.08c0 .002.204-2.92.343-3.06z"/><path fill="#D0D2D3" d="M159.13 223.936l4.22.776-1.89-2.352"/><path fill="#111" d="M150.478 118.58c-9.75-11.047-30.076-29.87-42.83-47.418 0 0 4.533 8.188 10.39 17.642 7.426 11.985 16.81 26.168 19.92 30.073l.18.306-.14.025c.03.037.056.074.077.11l.008.018c.058.108.075.22.048.333v.02c-.01.03-.02.06-.04.09l-.03.05-.06.09c-.01.02-.04.04-.06.06-.03.03-.08.07-.12.11l-.14.1-.11.06c-.05.03-.1.06-.16.09l-.13.06-.22.1-.13.05c-.12.05-.26.1-.41.15l-.11.03c-.12.04-.25.08-.39.12l-.19.05-.42.11-.19.04-.68.15c-8.52 1.8-7.41 3.05-7.41 3.05 1.51 5.03 11.35.19 23.4-5.72z" opacity=".15"/><path fill="#D0D2D3" d="M119.748 181.866l2.04 1.733.757-1.05"/><path fill="#E5E5E5" d="M135.598 176.683s9.567 3.098 11.167 5.228c0 0-4.27.9-8.864-3.25-.27-.25-4.17-1.11-4.51-1.36-.48-.35 2.6-.12 2.22-.6z"/><path fill="#D0D2D3" d="M165.555 43.304c1.975 0 3.803.233 5.437.744 0 0 8.49 8.94 16.757 25.74l-.37-.03c4.92 9.422 9.64 20.937 11.97 33.504 0 0-16.01 1.03-32.63 7.8-5.79 2.36-11.67 5.27-17.07 7.918-.36.176-.72.35-1.07.524l-.43.206-1.25.607-.43.206-1.07.518c-.11.05-.21.11-.32.15-.43.21-.86.41-1.28.61l-.37.18-.97.45-.37.17c-.41.19-.81.37-1.21.55l-.26.11c-.32.15-.65.29-.96.42l-.37.16c-.36.15-.71.3-1.06.44l-.13.06c-.36.15-.71.28-1.05.42-.11.05-.22.09-.33.13-.29.11-.56.21-.83.3l-.25.09c-.33.12-.66.22-.98.32-.09.03-.18.06-.27.08-.25.07-.49.15-.73.21-.08.03-.17.05-.26.07-.3.08-.59.15-.87.21-.06.01-.11.02-.17.04-.23.05-.45.09-.67.12l-.24.03c-.25.03-.49.06-.72.07h-.05l-.27.01c-.13 0-.27 0-.4-.01l-.19-.01c-.18-.01-.34-.04-.51-.07-.04-.01-.08-.01-.12-.02-.19-.04-.37-.1-.54-.17-.04-.02-.08-.04-.13-.06-.13-.06-.25-.13-.37-.21l-.11-.07c-.14-.1-.27-.22-.39-.35-.02-.03-.04-.05-.06-.08-.09-.11-.18-.24-.26-.37-.02-.04-.05-.09-.07-.13-.09-.17-.17-.35-.23-.55 0 0-.05-.06-.05-.16-.54-1.98-1.52-4-2.56-5.78-9.28 1.77-27.08 7.04-47.86 22.6.07.12.14.24.22.36.24-.04.41-.06.44-.06h.07c.37 0 .67.28.71.64.03.31-.16.59-.43.71 1.16 1.9 2.32 3.82 3.48 5.73l7.65 12.6c.36.6.72 1.19 1.08 1.79.37.09.97.26 1.26.26.04 0 .08-.01.11-.02 0 0 .06-.02.14-.02.09 0 .2.03.27.15.02.03.04.1.06.21l.24.01 1.64.08c-1.52-2.63-2.37-5.56-2.37-8.64 0-2.94.77-5.75 2.17-8.29-.86-1.88-2.53-6.43 1.53-6.43.82 0 1.88.19 3.23.62 4.45-3.85 10.7-6.38 17.7-6.79h.12l.6-.03c.49-.02.99-.03 1.5-.03.48 0 .96.01 1.44.03.15.01.3.02.46.02.33.02.66.04.98.07.17.02.34.03.51.05.31.03.62.07.93.11l.49.06c.33.05.66.1.99.16.13.02.26.04.39.07.92.18 1.83.39 2.71.63l.29.09c.35.1.69.2 1.03.32l.36.12c.32.11.64.22.96.34.11.04.22.08.33.13.34.13.69.27 1.02.42l.21.09c.83.36 1.64.77 2.42 1.2l.1.05c.35.19.69.4 1.02.6l.21.13c.31.19.6.39.9.58l.21.14c.31.22.61.44.91.66l.12.09c.22.18.44.36.66.53 2.39-1.17 4.22-1.59 5.61-1.59 3.31 0 4.11 2.36 4.11 2.36 1.44 2.95-.93 6.5-2.84 8.67.39 1.07.69 2.17.88 3.31 1.3 3.72 2.37 7.19 3.24 10.45l-.02-.08h.1c.01 0 .04-.01.08-.01.1 0 .26.03.34.19.03.06.13.42.25.92.13.49.28 1.12.44 1.74l.7 2.7c-.01.02-.02.02-.02.04.76 2.55 5.68 19.93 2.64 32.68-.12.48-.24.94-.38 1.41 0 0-.39.47-1.43.69.37.26.75.52 1.14.77.47.29.95.59 1.47.86.81.41 1.66.82 2.54 1.1.88.31 1.78.46 2.64.48h.18c.8 0 1.52-.19 2.18-.55.38-.15.69-.46 1.04-.7.31-.34.65-.61.93-1.05 1.18-1.57 2-3.8 2.54-6.17.16-.58.27-1.19.37-1.81l.16-.92.04-.23.03-.22.06-.47c.15-1.21.27-2.56.39-3.88.48-5.32 1.01-10.76 2.08-15.88.54-2.56 1.21-5.06 2.17-7.44.48-1.19 1.04-2.36 1.73-3.48.7-1.11 1.53-2.2 2.63-3.13 1.07-.94 2.43-1.7 3.86-2.04.76-.19 1.51-.27 2.21-.27.63 0 1.23.07 1.77.17 2.34.46 3.9 1.37 5.09 2.1 1.19.75 2 1.41 2.55 1.85l.83.7c.17.14.31.3.45.46.1.13.19.26.27.4.04.05.07.1.1.15.07.12.13.25.18.38.03.07.06.14.08.22.04.12.07.25.1.37.02.09.03.18.05.27l.03.35c0 .11 0 .21-.01.32-.01.1-.01.21-.03.32-.02.12-.05.23-.08.35-.02.09-.04.18-.07.27-.05.14-.11.27-.17.4-.03.07-.06.14-.1.21-.11.2-.23.39-.38.56-.7.84-1.71 1.27-2.72 1.27-.81 0-1.62-.28-2.29-.84l-.1-.09-.09-.09-.62-.57c-.4-.36-1.01-.88-1.78-1.41-.76-.53-1.72-1.06-2.59-1.27-.26-.06-.5-.09-.72-.09-.15 0-.3.01-.44.04-.36.05-.74.21-1.2.57-.92.69-1.96 2.2-2.78 4.04-.83 1.85-1.53 4.02-2.11 6.33-1.18 4.65-1.92 9.84-2.62 15.14-.18 1.33-.35 2.64-.58 4.06l-.09.52-.05.27-.06.26-.23 1.03c-.14.69-.29 1.37-.51 2.05-.76 2.71-1.79 5.44-3.72 7.82-.44.61-1.06 1.13-1.62 1.66-.65.46-1.28.95-2.03 1.25-.33.16-.67.29-1.02.4-.33.11-.66.19-1 .26h-.01c-.4.08-.8.14-1.19.17-.14.01-.27.01-.4.02-.12.01-.25.01-.38.01-.16 0-.32 0-.48-.01-1.44-.09-2.75-.41-3.89-.86-.57-.21-1.11-.44-1.62-.69 3.23 3.48 6.51 7.43 9.29 11.61l-1.29.86c.14.19.28.37.42.55l.32.4c.76.92 1.45 1.65 1.51 1.8 4.64 1.81 13.92 11.4 13.92 12.75 0 1.04-.85 1.18-1.31 1.18-.18 0-.3-.02-.3-.02.06 1.11-1.07 1.28-1.77 1.28-.31 0-.54-.03-.54-.03-.53.26-1.01.36-1.44.36-2.3 0-3.18-3.02-3.18-3.02-.18-2.05-9.32-9.41-9.24-11.9.01-.22.05-.4.1-.55-.29-.4-.6-.82-.89-1.2l-1.74 1.16c-4.69-7.03-11.03-13.5-15.8-17.9l-.54.36h-.01c-.47.3-.94.59-1.42.86l-.01.01c-.48.26-.96.51-1.45.74h-.01c-.48.23-.97.44-1.46.64h-.01c-.49.19-.98.37-1.47.53l-.02.01c-.49.16-.98.31-1.46.44l-.03.01c-.48.13-.96.25-1.44.35l-.04.01c-.48.11-.95.2-1.42.28l-.04.01c-.46.08-.92.15-1.37.21l-.04.01c-.45.07-.9.12-1.33.16-.01 0-.03.01-.04.01-.44.04-.87.08-1.28.1h-.03c-.43.03-.84.04-1.24.06l-.39.01c-3 0-6.04-1-7.04-1.36l3.31 5.67c.54.93.21 2.11-.73 2.64-.31.17-.64.25-.98.25-.67 0-1.31-.33-1.68-.92l-.03-.04-5.31-8.43c-.75.26-1.41.62-1.91 1.13-1.6 1.65-1.23 4.85-.63 7.24l-1.02.26.91 2.14c.15.32.27.57.33.71h.05c3.88 1.97 2.57 2.9 2.57 2.9l-16.7.94c-.63.67-1.15.91-1.57.91-1.03 0-1.46-1.42-1.46-1.42-.79.69-1.36.93-1.77.93-.92 0-1.01-1.24-1.01-1.24-.32.45-.68.61-1.04.61-.91 0-1.77-1.07-1.77-1.07.08-2.65 3.98-3.38 8.28-3.38 5.24 0 11.06 1.09 11.26 1.12l-.02-.06-.05-.09h.02c-.21-.61-.55-1.5-.86-2.28l-2.45.61c-1.45-5.82-.68-10.31 2.3-13.36.9-.93 1.94-1.63 3.04-2.17l-2.51-3.99c-.1.05-.2.11-.3.15-3.17 1.54-6.54 2.93-9.35 2.93-.23 0-.46-.01-.69-.03l-.15-.02c-.19-.02-.38-.05-.57-.09-.03 0-.05-.01-.08-.02-.46-.1-.89-.25-1.29-.46-.42-.21-.81-.49-1.17-.83-2.97-2.91-.79-7.72.85-10.42-.22-.62-.29-1.05-.28-1.14.04-.26.34-.27.34-.27.22-.01.92-.57 1.25-.81.08-.06.16-.1.22-.13-.61-1.04-1.05-2.38-.78-3.92 0 0 .02-1.46.75-2.81l-4.02-6.4c-1.01-1.64-2.07-3.29-3.14-4.94-.27-.43-.54-.85-.82-1.27l-2.13-3.26c-.55-.83-1.1-1.67-1.64-2.51l-.54-.82c-.52.17-.87.39-.87.39s-.49.24-.93.24c-.13 0-.26-.02-.37-.09-1.27-.73-.59-1.86-.59-1.86.13-.36.65-.66 1.31-.9l-.34-.52-.1.07c-.32.16-.61.23-.85.23-.38 0-.66-.14-.87-.29-1.18-.88-.14-2.19-.14-2.19.11-.1.22-.2.33-.29l-4.1-6.29c-1.22-1.86-2.44-3.73-3.65-5.59-.04.07-.08.14-.11.21-.12.27-.38.44-.66.44-.09 0-.18-.02-.27-.06-.36-.15-.54-.57-.38-.93.15-.36.33-.68.52-.98l-.01-.06-3.49-5.35c-2.67-4.06-5.25-8.08-7.82-11.92l-14-21.09-5.61-8.39-4.37-6.45c-.47-.7-.9-1.33-1.29-1.9-.14.16-.33.26-.54.26-.05 0-.1-.01-.15-.02-.39-.08-.63-.46-.55-.84.06-.29.16-.57.28-.83l-1.56-2.3c-1.4-2.06-.82-4.84 1.28-6.2.78-.5 1.66-.75 2.52-.75 1.48 0 2.93.71 3.81 2.01l.08.12 1.44 2.28c9.72-6.82 35.58-23.7 53.55-23.7 3 0 5.79.47 8.24 1.54l2.04 4.03 2.19 4.29.23-.06c0 .01 37.44-26.16 58.36-26.16m-93.11 90.82c-1.13-6.42-3.6-13.78-7.35-21.21-6.29-12.44-14.58-21.89-21.68-25.62l3.87 6.14 5.34 8.59c3.91 6.3 8.48 13.64 13.37 21.51 2.13 3.42 4.27 6.98 6.46 10.58m34.93 58.37c2.79-1.55 6.28-3.65 10.65-6.48.13-.28.33-.37.33-.37-.09-.89.89-1.6.89-1.6-.11-.34.15-.74.35-.99.04-.4.04-.83.02-1.28-.01-.05-.01-.11-.02-.17-.01-.19-.03-.38-.06-.58 0-.01 0-.03-.01-.04-.04-.24-.08-.49-.14-.74-.01-.02-.01-.05-.02-.07l-.14-.54c-.08-.25-.15-.5-.24-.76l.27-.07-.03-.01c.05 0 .1-.01.17-.02l.22-.05c.3-.08.68-.23 1.06-.38-.05-.77-.19-1.69-.48-2.71-.39.03-.77.05-1.15.06-.36.02-.67.04-.94.04-.12 0-.22-.01-.32-.01-7.08 0-13.51-2.18-18.28-5.72l-.75-.06c-1.81-.14-3.44-.25-4.82-.34.37.63.74 1.25 1.11 1.88v.01c.33.57.68 1.15 1 1.72l4.1 7.03c.42.16 1.35.63 1.05 1.75l-.01.02 6.15 10.53m-10.91-7.14s.2-.13.52-.31l-.28-.44c-.13.22-.22.47-.25.75m2.02 11.25c.97-.27 2.43-.81 4.6-1.86-1.09-1.72-2.22-3.51-3.38-5.36l-1.22-1.94c-.16.23-.29.48-.36.79 0 0 1 1.39.11 2.58.55.6 2.01 2.38 1.52 3.28l.08.05c-.51.76-1 1.68-1.35 2.47m12.17 1.52l.01-.01h-.01m54.94-156v1-1c-19.59 0-52.63 22.03-58.18 25.83l-1.69-3.34-2.05-4.03-.17-.32-.33-.15c-2.47-1.08-5.38-1.62-8.64-1.62-17.65 0-42.5 15.81-53.25 23.28l-.87-1.37c-.02-.02-.05-.08-.08-.12-1.06-1.56-2.79-2.47-4.66-2.47-1.09 0-2.15.31-3.07.91-1.25.81-2.1 2.06-2.39 3.5-.29 1.43 0 2.89.82 4.1l1.27 1.88c-.06.17-.1.33-.14.5-.2.92.39 1.83 1.31 2.03.12.03.24.04.36.04.06 0 .12 0 .18-.01l.81 1.2.04.07 4.33 6.39 2.9 4.36 2.7 4.04 14.04 21.03c1.66 2.49 3.3 5 5.03 7.66.92 1.41 1.84 2.84 2.78 4.26l2.42 3.71.76 1.17c-.11.2-.2.39-.28.59-.37.87.04 1.88.91 2.24.21.09.44.13.66.13.2 0 .39-.03.57-.1l2.99 4.59 3.67 5.63c-.22.35-.58 1.05-.47 1.84.08.62.4 1.15.94 1.56.16.12.33.22.51.29-.14.3-.34.9-.17 1.59.11.43.41 1.03 1.21 1.48.25.14.54.22.86.22.63 0 1.24-.28 1.36-.33l.05-.02.07.11 1.64 2.51c.71 1.09 1.42 2.18 2.13 3.26l.52.81.29.46c.96 1.48 2.08 3.21 3.13 4.92l2.35 3.74 1.39 2.2c-.51 1.19-.6 2.33-.62 2.65-.21 1.25-.04 2.49.49 3.7-.15.11-.31.23-.42.29-.48.08-.99.43-1.09 1.08-.05.3.05.75.17 1.18-2.8 4.81-2.97 8.8-.46 11.26.37.36.8.68 1.27.93l.13.07c.48.24.99.43 1.54.55l.13.02c.18.04.4.07.62.1l.17.02c.28.02.54.04.78.04 2.96 0 6.32-1.37 9.28-2.79l.55.88.91 1.45c-.88.52-1.66 1.14-2.34 1.83-3.22 3.3-4.08 8.08-2.57 14.23-2.05-.25-4.54-.47-6.91-.47-6.07 0-9.2 1.46-9.29 4.35l-.01.37.23.28c.19.24 1.23 1.45 2.55 1.45.17 0 .37-.02.58-.08.33.42.82.71 1.47.71.44 0 .92-.15 1.44-.45.41.52 1 .95 1.79.95.67 0 1.35-.32 2.01-.94l16.33-.92.29-.02.24-.17c.32-.23.67-.73.62-1.4-.08-1.03-1.06-2.01-3.08-3.07l-.18-.37-.43-1.02.85-.22-.24-.97c-.75-3.03-.62-5.27.38-6.3.21-.22.47-.41.79-.58l4.85 7.71.03.04c.54.87 1.49 1.38 2.52 1.38.51 0 1.02-.13 1.46-.38.7-.39 1.19-1.03 1.4-1.79.2-.76.1-1.55-.3-2.22l-2.02-3.47c1.4.35 3.14.66 4.88.66.14 0 .28 0 .42-.01.4-.02.82-.03 1.24-.06h.02l.05-.01c.42-.02.86-.06 1.31-.1.47-.05.92-.1 1.37-.16h.01l.04-.01h.03c.46-.07.93-.14 1.41-.22l.02-.01.03-.01c.47-.08.95-.18 1.44-.28l.05-.02.02-.01c.48-.11.97-.23 1.46-.37l.03-.01.02-.01c.52-.14 1.01-.29 1.49-.45l.04-.01c.5-.16 1.01-.35 1.51-.55l.04-.01.01-.01c.5-.2 1-.42 1.49-.64l.02-.01h.01c.46-.22.92-.45 1.37-.7h.02l.14-.08c.48-.27.92-.54 1.34-.81 4.5 4.2 10.56 10.44 15.06 17.18l.56.83.83-.55.95-.64.05.07c-.02.09-.02.19-.03.29-.06 1.65 1.98 3.9 5.36 7.43 1.49 1.56 3.75 3.91 3.89 4.6l.01.1.02.08c.05.15 1.13 3.74 4.14 3.74.52 0 1.06-.12 1.61-.34.1 0 .23.01.37.01.98 0 1.75-.27 2.23-.78.12-.13.25-.3.35-.53 1.1-.18 1.79-.98 1.79-2.13 0-2.07-9.58-11.5-14.28-13.56-.11-.14-.26-.31-.48-.56-.25-.3-.57-.66-.9-1.06l-.06-.08.4-.27.83-.55-.55-.84c-1.9-2.84-4.16-5.79-6.75-8.79.68.15 1.38.24 2.08.28.17.02.36.02.55.02.14 0 .27 0 .41-.01.14 0 .28-.01.42-.02h.02c.4-.03.81-.08 1.23-.16h.01l.1-.02c.43-.09.78-.18 1.11-.29.38-.12.75-.27 1.1-.43.75-.31 1.36-.75 1.95-1.18l.26-.18.05-.03.05-.04.26-.24c.51-.47 1.04-.96 1.47-1.54 2.17-2.7 3.22-5.78 3.9-8.16.21-.67.36-1.35.5-2.02l.02-.09.23-1.03.05-.25.06-.29.1-.54c.2-1.25.36-2.43.51-3.57l.08-.54c.63-4.78 1.4-10.28 2.6-15.02.62-2.44 1.31-4.51 2.06-6.17.74-1.67 1.69-3.07 2.47-3.66.39-.3.62-.37.76-.39.1-.02.19-.03.27-.03.15 0 .31.02.49.07.63.15 1.45.55 2.25 1.11.7.48 1.24.95 1.69 1.35l.6.56.09.09.07.06.06.06c.83.69 1.87 1.08 2.94 1.08 1.35 0 2.62-.59 3.49-1.62.19-.23.35-.47.49-.73.04-.07.08-.14.11-.21l.01-.01.02-.04c.07-.14.15-.32.21-.51.03-.09.06-.19.08-.29l.01-.06c.04-.16.08-.3.1-.45.02-.15.03-.28.03-.42.01-.12.01-.26 0-.4 0-.13-.02-.28-.04-.43-.02-.12-.04-.24-.07-.36-.03-.14-.07-.3-.12-.46-.02-.07-.05-.15-.09-.22l-.02-.05c-.07-.17-.14-.33-.23-.49-.03-.05-.06-.11-.1-.16-.12-.19-.23-.36-.37-.54l-.03-.04-.01-.01c-.19-.22-.36-.39-.54-.54l-.82-.69h-.01l-.04-.03c-.56-.45-1.4-1.13-2.62-1.9-1.06-.65-2.82-1.72-5.43-2.23-.65-.13-1.31-.19-1.96-.19-.84 0-1.67.1-2.46.3-1.5.36-3.02 1.16-4.28 2.25-1.03.88-1.93 1.95-2.81 3.36-.67 1.08-1.27 2.27-1.82 3.64-.87 2.18-1.58 4.6-2.22 7.61-1.08 5.17-1.61 10.52-2.1 16l-.01.1c-.11 1.27-.23 2.58-.37 3.75l-.07.46-.03.2-.04.21-.16.93-.02.11c-.1.57-.19 1.11-.33 1.6-.58 2.53-1.4 4.53-2.38 5.84l-.03.03-.02.03c-.12.2-.29.37-.48.56-.09.09-.18.18-.26.27l-.26.2c-.17.14-.35.28-.47.32l-.06.02-.06.03c-.53.29-1.09.43-1.71.43h-.14c-.78-.01-1.58-.15-2.33-.42-.86-.27-1.66-.66-2.41-1.04-.32-.17-.65-.36-1.05-.6.09-.08.15-.14.18-.18l.13-.16.06-.2c.13-.43.25-.88.38-1.43l.03-.11c2.9-12.39-1.4-28.66-2.57-32.7l.01-.02-.08-.31v-.2l-.07-.07-.65-2.5c-.15-.61-.31-1.24-.43-1.74-.24-.93-.28-1.01-.33-1.11-.14-.28-.36-.49-.64-.62-.86-3.12-1.88-6.39-3.04-9.73-.16-.93-.41-1.89-.72-2.84 2.13-2.56 4.14-6.1 2.62-9.28-.19-.48-1.36-2.96-5.03-2.96-1.58 0-3.42.48-5.47 1.42l-.19-.15-.1-.07c-.33-.25-.64-.48-.96-.7l-.11-.08-.11-.07c-.31-.21-.61-.41-.92-.6l-.16-.1-.05-.03c-.36-.22-.71-.43-1.07-.63l-.1-.06c-.82-.45-1.67-.87-2.51-1.24l-.09-.04-.11-.05c-.37-.16-.72-.3-1.08-.44l-.24-.09-.1-.04c-.33-.13-.66-.24-.99-.35l-.36-.12c-.35-.12-.71-.23-1.07-.33l-.11-.03-.17-.05c-.93-.26-1.87-.47-2.8-.65l-.23-.04-.17-.03c-.35-.06-.68-.12-1.02-.16l-.39-.06-.11-.01c-.32-.04-.64-.08-.96-.11-.17-.02-.34-.04-.52-.05-.34-.03-.68-.05-1.01-.07l-.2-.01-.27-.02c-.5-.02-.99-.03-1.49-.03s-1.02.01-1.54.03c-.2 0-.4.02-.6.03h-.15c-6.81.4-13.13 2.77-17.86 6.67-1.16-.34-2.15-.51-3-.51-1.79 0-2.67.78-3.08 1.43-1.03 1.6-.38 4.04.44 5.96-1.37 2.65-2.06 5.45-2.06 8.33 0 2.5.52 4.94 1.55 7.26-.12-.04-.26-.06-.4-.06-.12 0-.22.02-.31.03-.12-.02-.36-.07-.56-.12l-.18-.3-.69-1.14-4.32-7.11-3.33-5.5-3-4.94-.1-.16c.14-.28.21-.6.18-.93-.04-.41-.22-.78-.49-1.05 19.72-14.42 36.6-19.51 45.4-21.28.98 1.76 1.68 3.38 2.09 4.84.02.14.06.27.12.39.06.2.14.39.25.6.02.05.05.09.07.14.13.23.25.4.38.56l.09.1c.16.18.34.34.54.49.04.03.09.06.14.09.19.12.36.21.53.29.08.04.13.06.17.07.22.09.45.16.7.21l.15.03c.19.04.4.07.61.09h.06l.15.01c.16.01.31.01.46.01h.32l.04-.01c.25-.02.52-.04.79-.08l.16-.02.08-.01c.24-.04.48-.08.73-.13l.08-.02.1-.02c.3-.07.61-.14.92-.22.06-.01.12-.03.19-.05l.09-.02c.24-.07.49-.14.75-.22l.1-.03.19-.05c.32-.1.65-.21.99-.33l.16-.06.1-.03c.27-.09.56-.2.85-.3.11-.04.23-.09.34-.13.35-.13.71-.27 1.07-.42l.13-.056c.36-.15.71-.3 1.07-.45l.36-.16c.33-.14.66-.28.98-.43l.27-.11 1.22-.55.37-.18.68-.32.29-.13.21-.1.17-.08c.42-.2.85-.4 1.28-.61l.16-.08.15-.07 1.08-.52.43-.21 1.25-.61.39-.19.5-.24.6-.29.78-.38c5.28-2.59 10.74-5.27 16.23-7.51 16.26-6.63 32.15-7.72 32.31-7.73l1.12-.07-.21-1.1c-1.94-10.49-5.73-21.31-11.25-32.2l.33.02-.77-1.56c-8.24-16.75-16.58-25.62-16.93-25.99l-.18-.19-.25-.08c-1.68-.52-3.6-.79-5.73-.79zm-95.43 86c-1.1-1.8-2.17-3.55-3.26-5.3l-10.77-17.34-2.58-4.15-1.92-3.08-3.43-5.51-1.46-2.31c6.14 4.69 12.58 13 17.52 22.77 2.53 5.01 4.52 10.08 5.89 14.95zM95.92 171l-.14-.28c.96.06 1.924.14 2.894.21l.29.02.18.01c5.1 3.71 11.7 5.75 18.62 5.75.1.01.213.01.336.01.28 0 .62-.01 1-.03l.33-.01c.08.34.14.67.18 1l-.28.09-.16.04-.04.01-4.18.52 3.16 1.15c.05.15.1.3.14.45.05.16.09.32.12.48l.01.01.02.07c.06.23.09.45.13.67l.01.02.01.04c.02.15.04.33.05.5l.01.11c.02.34.03.63.01.91-.23.34-.34.64-.38.91-.33.34-.75.89-.86 1.59-.03.04-.06.08-.08.12-3.56 2.3-6.76 4.26-9.54 5.84l-3.19-5.46-2.27-3.89c.12-.98-.4-1.88-1.39-2.38l-1.63-2.8-2.31-3.95c-.24-.43-.5-.86-.76-1.3l-.23-.4zm4.913 22.65c-.01-.24-.05-.48-.12-.73l.81 1.29.08.13c-.36.17-.7.32-1.03.46l.052-.08.55-.82-.35-.24z"/><path fill="#BFC0C1" d="M139.234 177.973c-.45.22-.918.433-1.4.645.026.012.053.026.066.036.085.078.17.143.256.217.488-.24.982-.48 1.476-.74l-.398-.15z"/><path fill="#FFE000" d="M80.153 21.892l2.282 1.31 2.373-1.134-.54 2.575 1.813 1.906-2.61.27-1.25 2.31-1.07-2.4-2.59-.48 1.95-1.76"/><path opacity=".15" fill="#020202" d="M231.237 38.948c-.253-.603-.79-1.04-1.43-1.162-3.276-.628-4.892-.918-8.23-1.48-.107-.018-.215-.026-.322-.026-.67 0-1.304.347-1.662.93-2.188 3.57-3.637 5.92-5.31 8.604.175-2.832.213-5.358.172-8.984-.012-.962-.723-1.773-1.676-1.908-3.25-.462-4.84-.668-8.08-1.054-.08-.01-.16-.014-.24-.014-.73 0-1.41.413-1.75 1.08-2.79 5.585-5.65 11.157-8.4 16.458 1.18-6.35 2.04-12.71 2.58-19 .04-.515-.12-1.026-.46-1.42-.34-.397-.81-.643-1.33-.687-3.42-.288-5.1-.41-8.6-.62l-.12-.003c-.63 0-1.23.306-1.6.826-4.19 5.93-8.56 12.196-12.83 18.652.22-7.118-.05-12.36-.93-20.648-.11-.988-.94-1.74-1.93-1.743l-1.92-.01c-2.22 0-3.82.02-6.59.07-.49.01-.94.21-1.28.53.11-.47.06-.96-.17-1.39-.34-.63-1-1.02-1.71-1.02h-.09c-3.69.17-5.46.27-9.03.53-.65.04-1.22.4-1.55.96-1.26 2.17-2.13 3.68-3.04 5.34-.72-1.44-1.43-2.77-2.45-4.59-.35-.62-1-1-1.7-1-.07 0-.13 0-.2.01-3.6.36-5.38.56-9.07 1.03-.69.09-1.28.53-1.55 1.17s-.18 1.38.24 1.93c3.94 5.22 5.69 7.95 8.63 13.5-.08 2.52-.14 4.17-.23 6.38-.02-.14-.05-.28-.1-.42-3.38-9.28-5.55-13.88-10.58-22.37-.36-.6-1-.96-1.68-.96-.1 0-.21 0-.31.02-3.32.53-4.93.81-8.18 1.41-.81.15-1.44.79-1.57 1.61-.9 5.63-1.43 9.59-1.83 13.81-.11-.02-.21-.05-.32-.05-.11 0-.22.01-.33.02-3.19.54-5 .86-7.79 1.42-1.99-4.99-3.18-7.84-5.48-13.14-.32-.73-1.03-1.18-1.79-1.18-.16 0-.32.02-.48.06-3.17.8-4.71 1.21-7.85 2.09-.57.16-1.03.56-1.27 1.11-.24.54-.21 1.16.07 1.68 2.11 3.98 3.62 6.9 5.13 9.91-3.92-3.79-7.49-6.7-13.14-10.87-.34-.25-.75-.38-1.16-.38-.2 0-.4.03-.6.09-3.13 1-4.66 1.51-7.75 2.58-.95.33-1.49 1.33-1.25 2.3 1.34 5.47 2.35 9.02 3.8 13.15-4.1-1.81-7.38-3.01-12.3-4.54.55-2.23 1.03-3.84 1.97-6.64.24-.72.04-1.51-.5-2.03-.37-.36-.86-.54-1.35-.54-.24 0-.48.04-.71.13-3.54 1.37-5.24 2.06-8.69 3.52-.62.26-1.05.81-1.17 1.47-.26 1.54-.44 2.7-.58 3.84-.86-.67-1.72-1.32-2.87-2.2-.35-.27-.76-.4-1.18-.4-.28 0-.55.05-.81.17-2.9 1.31-4.3 1.96-7.14 3.33-.63.31-1.05.93-1.1 1.63-.04.7.29 1.38.88 1.76 7.31 4.78 10.82 7.17 17.89 12.2.33.24.73.36 1.13.36.24 0 .47-.05.7-.13 2.33-.9 3.49-1.33 5.89-2.19.66-.23 1.14-.8 1.27-1.49.12-.69-.13-1.39-.67-1.84l-.94-.77c1.56.55 3.11 1.15 5.13 1.97.24.09.48.14.73.14.21 0 .41-.03.61-.1 2.43-.79 3.85-1.24 5.98-1.88.3.77 1.03 1.24 1.81 1.24.18 0 .36-.02.54-.07 2.41-.69 3.59-1.02 6.04-1.66.53-.14.97-.5 1.23-.98.25-.49.29-1.05.11-1.57l-.18-.48c1.09-.3 2.04-.54 3.29-.86.44.44.83.83 1.4 1.41.37.38.87.59 1.39.59.15 0 .3-.02.45-.06 2.44-.58 3.69-.86 6.13-1.39l.09.19c.33.69 1.02 1.11 1.76 1.11.12 0 .25-.02.38-.04 5.28-1.05 8.21-1.57 13.01-2.28.1.35.27.67.55.92.36.33.83.52 1.32.52.08 0 .17-.01.26-.02 2.46-.33 3.7-.49 6.31-.78.93-.11 1.66-.86 1.73-1.8l.1-1.43c1.29-.16 2.31-.27 3.61-.41.18.46.35.92.59 1.55.29.76 1.02 1.26 1.82 1.26.06 0 .11 0 .17-.01 2.59-.23 3.87-.33 6.54-.5.61-.04 1.17-.37 1.51-.88.14-.22.22-.46.27-.71l-.07 1.48c-.02.54.18 1.06.56 1.45.37.37.87.58 1.39.58h.05c2.71-.07 4.01-.09 6.62-.1.08 0 .16-.01.24-.02-.03.41.05.83.28 1.2.35.55.95.89 1.6.9 2.65.06 3.93.11 6.5.23h.09c.76 0 1.46-.45 1.78-1.14.42-.92.7-1.52 1.03-2.24 1.34.05 2.37.09 3.64.16-.02.48-.05.97-.09 1.62-.06 1.06.75 1.98 1.81 2.05 1.6.12 2.71.2 3.91.3-.18.49-.16 1.04.07 1.51.3.61.88 1.02 1.55 1.09 2.64.27 3.93.42 6.54.75.08.01.16.01.24.01.66 0 1.28-.34 1.64-.9.66-1.02 1.08-1.68 1.62-2.5 1.33.15 2.37.28 3.59.44-.11.5-.24 1.02-.39 1.68-.13.53-.02 1.09.28 1.54.31.45.79.76 1.33.84 2.17.33 3.45.53 5.21.83l-.1.2c-.29.55-.3 1.2-.03 1.76s.79.95 1.4 1.06c2.53.47 3.78.72 6.36 1.26.13.03.27.04.4.04.68 0 1.33-.36 1.68-.96 1.89-3.24 3.18-5.46 4.57-7.87-.27 2.45-.62 4.77-1.19 8.07-.17 1.02.47 2 1.48 2.23 2.62.61 3.89.92 6.48 1.59.16.04.33.06.49.06.62 0 1.23-.3 1.6-.83 6.51-9.3 13.06-18.87 19.47-28.46.36-.54.43-1.23.18-1.83zm-72.96-9.797c-3.57 6.74-6.93 13.57-10.04 20.37.19-1.89.345-3.49.558-5.8 3.49-5.79 5.528-8.93 9.483-14.56z"/><path fill="#FFF" d="M230.02 37.485c-.254-.603-.79-1.04-1.432-1.162-3.275-.628-4.89-.918-8.228-1.48-.107-.018-.216-.026-.323-.026-.67 0-1.304.347-1.662.93-2.188 3.57-3.637 5.922-5.31 8.604.176-2.83.213-5.35.172-8.98-.012-.96-.723-1.77-1.676-1.91-3.24-.46-4.83-.67-8.07-1.05-.08-.01-.15-.01-.23-.01-.73 0-1.41.42-1.74 1.08-2.79 5.59-5.64 11.16-8.39 16.46 1.18-6.35 2.05-12.71 2.58-19 .05-.51-.12-1.02-.45-1.42s-.81-.64-1.32-.68c-3.42-.28-5.1-.41-8.6-.62h-.12c-.63 0-1.22.31-1.59.83-4.19 5.93-8.56 12.2-12.82 18.66.22-7.12-.05-12.36-.93-20.65-.1-.99-.94-1.74-1.93-1.74l-1.93-.02c-2.21 0-3.81.02-6.58.08-.48.01-.93.21-1.28.53.11-.46.07-.95-.17-1.39-.34-.62-1-1.01-1.71-1.01-.02 0-.06 0-.09.01-3.68.17-5.45.28-9.03.54-.64.05-1.22.41-1.54.97-1.26 2.17-2.12 3.69-3.03 5.34-.71-1.44-1.42-2.76-2.44-4.59-.34-.62-1-1-1.7-1-.06 0-.13.01-.19.01-3.6.36-5.38.57-9.06 1.03-.69.09-1.28.54-1.55 1.18-.27.64-.18 1.38.24 1.94 3.94 5.22 5.7 7.96 8.63 13.51-.07 2.53-.13 4.18-.22 6.39-.01-.14-.04-.28-.09-.41-3.38-9.28-5.55-13.88-10.57-22.37-.35-.6-.99-.96-1.67-.96-.1 0-.21.01-.31.02-3.32.53-4.92.81-8.18 1.41-.81.15-1.44.8-1.57 1.61-.89 5.64-1.43 9.59-1.83 13.82-.1-.02-.21-.05-.32-.05-.1 0-.21.01-.32.03-3.19.54-5 .87-7.79 1.42-1.99-4.98-3.19-7.84-5.49-13.14-.32-.73-1.03-1.18-1.8-1.18-.16 0-.32.02-.48.06-3.17.8-4.71 1.21-7.84 2.09-.57.16-1.03.57-1.26 1.11-.23.54-.21 1.16.07 1.68 2.11 3.99 3.62 6.91 5.12 9.91-3.92-3.79-7.49-6.7-13.14-10.87-.34-.25-.74-.38-1.15-.38-.2 0-.4.03-.59.09-3.14 1.01-4.66 1.51-7.75 2.59-.95.33-1.49 1.33-1.25 2.3 1.34 5.47 2.35 9.02 3.8 13.15-4.1-1.81-7.38-3.01-12.3-4.54.54-2.23 1.03-3.84 1.96-6.63.24-.71.04-1.5-.5-2.03-.37-.35-.85-.54-1.34-.54-.24 0-.48.05-.71.14-3.53 1.37-5.24 2.06-8.69 3.52-.61.26-1.05.81-1.16 1.47-.26 1.54-.44 2.7-.58 3.84-.86-.66-1.72-1.32-2.87-2.2-.34-.27-.76-.4-1.18-.4-.27 0-.54.06-.8.17-2.9 1.31-4.3 1.96-7.14 3.33-.63.31-1.05.93-1.1 1.63-.04.7.29 1.38.88 1.76 7.31 4.78 10.82 7.17 17.89 12.2.34.24.73.36 1.13.36.24 0 .47-.04.7-.13 2.34-.89 3.49-1.32 5.9-2.18.66-.23 1.14-.8 1.27-1.49.12-.69-.14-1.39-.68-1.84l-.93-.78c1.56.56 3.11 1.16 5.13 1.97.23.1.48.14.73.14.2 0 .4-.03.6-.09 2.43-.79 3.85-1.24 5.98-1.88.3.77 1.03 1.24 1.81 1.24.18 0 .36-.02.54-.07 2.41-.7 3.59-1.02 6.04-1.67.53-.14.97-.49 1.23-.98.25-.48.29-1.05.11-1.56l-.17-.49c1.09-.29 2.04-.54 3.29-.86.45.45.83.83 1.4 1.41.37.38.87.59 1.39.59.15 0 .3-.02.45-.06 2.45-.58 3.69-.86 6.14-1.38l.09.19c.33.69 1.02 1.11 1.76 1.11.12 0 .25-.01.38-.03 5.28-1.05 8.21-1.57 13.01-2.28.1.35.28.67.55.92.36.33.84.52 1.32.52.09 0 .18-.01.26-.02 2.47-.33 3.7-.49 6.31-.78.94-.1 1.66-.86 1.73-1.79.04-.56.08-1 .11-1.42 1.29-.16 2.31-.27 3.61-.41.18.47.36.92.59 1.55.29.76 1.02 1.26 1.83 1.26.06 0 .12 0 .17-.01 2.59-.23 3.87-.32 6.54-.5.61-.04 1.17-.36 1.51-.88.14-.21.22-.46.27-.7l-.06 1.48c-.03.54.17 1.07.55 1.45.37.38.87.58 1.39.58h.05c2.71-.07 4.01-.09 6.63-.1.08 0 .16-.01.24-.02-.04.42.05.84.28 1.2.35.55.95.89 1.6.91 2.65.06 3.92.11 6.49.23h.09c.77 0 1.46-.45 1.78-1.14.42-.92.7-1.52 1.03-2.24 1.34.05 2.38.1 3.64.17-.02.48-.05.98-.08 1.62-.06 1.06.75 1.97 1.81 2.05 1.6.11 2.71.2 3.91.3-.18.49-.16 1.03.07 1.51.3.61.88 1.02 1.55 1.09 2.65.27 3.93.42 6.54.75.09.01.17.01.25.01.66 0 1.28-.33 1.64-.89.66-1.03 1.08-1.68 1.62-2.51 1.34.16 2.37.28 3.6.44l-.4 1.68c-.12.53-.02 1.09.28 1.55.31.45.79.75 1.33.83 2.17.32 3.46.53 5.21.82l-.1.2c-.28.55-.3 1.2-.03 1.76s.79.95 1.4 1.07c2.54.47 3.78.71 6.37 1.25.14.03.27.04.4.04.68 0 1.33-.36 1.68-.96 1.89-3.23 3.19-5.46 4.57-7.87-.26 2.45-.61 4.77-1.18 8.07-.17 1.02.48 2 1.48 2.23 2.62.61 3.89.92 6.48 1.59.16.04.32.06.48.06.62 0 1.22-.3 1.59-.83 6.51-9.3 13.06-18.88 19.47-28.47.36-.54.43-1.23.18-1.83zM147.017 48.06c.192-1.9.346-3.5.56-5.81 3.488-5.793 5.527-8.93 9.482-14.56-3.57 6.735-6.94 13.56-10.05 20.37z"/><path fill="#00AEFF" d="M37.32 48.6c2.814-1.356 4.234-2.018 7.1-3.312 2.278 1.73 3.41 2.604 5.66 4.362.21-2.798.39-4.246.897-7.23 3.42-1.445 5.148-2.145 8.638-3.502-1.19 3.552-1.674 5.27-2.435 8.584 7.46 2.26 10.992 3.614 17.617 6.716-2.992.886-4.475 1.348-7.413 2.308-4.312-1.737-6.55-2.525-11.177-3.932-.107.7-.155 1.045-.242 1.73 2.11 1.716 3.16 2.58 5.243 4.316-2.394.855-3.582 1.295-5.936 2.198-7.05-5.015-10.643-7.463-17.95-12.238zm32.576-11.5c3.055-1.063 4.597-1.578 7.703-2.57 8.04 5.934 11.71 9.188 18.33 16.203-2.55.543-3.82.828-6.33 1.424-.87-.892-1.31-1.333-2.21-2.208-2.58.65-3.86.98-6.4 1.69.34.99.51 1.48.87 2.47-2.45.64-3.67.98-6.09 1.68-2.8-7.18-3.98-10.92-5.89-18.69zm13.914 9.444c-2.427-2.218-3.676-3.3-6.247-5.405.764 2.66 1.166 3.98 2.015 6.58 1.685-.49 2.53-.72 4.232-1.19zm4.68-13.537c3.096-.866 4.657-1.282 7.8-2.078 2.51 5.78 3.723 8.7 6.066 14.59 3.694-.75 5.56-1.09 9.323-1.73.64 2.24.96 3.37 1.58 5.63-6.19.88-9.23 1.41-15.23 2.6-3.67-7.7-5.58-11.51-9.55-19.02zm27.264-4.615c3.233-.602 4.858-.883 8.133-1.41 4.965 8.397 7.062 12.82 10.423 22.05-2.648.173-3.967.273-6.584.502-.447-1.187-.676-1.776-1.147-2.95-2.7.273-4.03.425-6.69.757-.1 1.22-.15 1.82-.24 3.03-2.56.29-3.83.44-6.35.78.48-8.88.97-13.43 2.45-22.75zm8.903 13.6c-1.334-3.013-2.042-4.5-3.54-7.427-.402 3.212-.582 4.808-.89 7.98 1.766-.234 2.652-.343 4.43-.553zm13.775-.054c-3.125-5.945-4.938-8.797-9.034-14.225 3.58-.455 5.384-.66 9.013-1.024 1.75 3.11 2.55 4.71 4.04 7.95 1.84-3.45 2.81-5.18 4.84-8.68 3.58-.26 5.37-.36 8.99-.53-4.63 6.56-6.74 9.8-10.58 16.19-.34 3.68-.52 5.53-.9 9.23-2.68 0-4.01.03-6.67.09.16-3.62.23-5.42.33-9.02zm21.028-14.63c3.364-.07 5.056-.084 8.454-.072 1.12 10.502 1.257 15.908.615 26.954-2.71-.252-4.07-.362-6.75-.552.08-1.43.11-2.143.16-3.565-2.77-.16-4.15-.222-6.89-.316-.64 1.37-.95 2.052-1.58 3.417-2.63-.124-3.94-.17-6.54-.234 3.84-8.698 8.03-17.246 12.51-25.632zm2.61 17.19c.02-3.678-.012-5.5-.17-9.12-1.807 3.593-2.685 5.383-4.39 8.955 1.822.052 2.73.085 4.56.164zm23.127-14.348c3.406.203 5.116.325 8.552.615-.82 9.686-2.4 19.303-4.66 28.756-2.72-.47-4.08-.68-6.78-1.09.36-1.51.53-2.27.86-3.78-2.79-.38-4.18-.55-6.94-.87-.92 1.41-1.38 2.12-2.28 3.53-2.65-.33-3.96-.48-6.58-.76 5.65-9 11.68-17.7 17.81-26.39zm-.788 18.56c.74-3.918 1.07-5.868 1.63-9.745-2.55 3.69-3.79 5.533-6.23 9.21 1.83.2 2.75.308 4.59.535zm18.84-14.37c3.2.38 4.81.59 8.03 1.05.06 5.655-.06 8.52-.62 14.306 0 .098 0 .208-.02.328-.02.12-.05.254-.08.403l-.09.45c-.03.148-.09.327-.15.525-.05.17-.1.36-.15.552-.05.192-.14.413-.2.63-.06.19-.12.435-.2.678-.09.244-.26.757-.26.757s.14-.28.2-.42c.06-.14.13-.28.2-.42.07-.14.15-.28.24-.43.09-.15.19-.3.28-.47.07-.14.15-.3.25-.47.1-.18.2-.37.31-.55.1-.16.22-.34.34-.54l.39-.66c3.34-5.34 5-8 8.26-13.33 3.26.55 4.9.84 8.18 1.47-6.38 9.55-12.86 19.02-19.45 28.43-2.62-.67-3.92-.99-6.52-1.6.99-5.79 1.34-8.66 1.71-14.34 0-.09.02-.2.02-.32s.02-.26.04-.4.05-.31.09-.48c.04-.18.09-.36.12-.52.02-.17.05-.37.09-.58.04-.2.11-.42.17-.64.06-.2.11-.42.17-.64.06-.23.16-.69.16-.69s-.12.26-.16.39c-.05.12-.1.25-.16.39l-.19.4c-.07.14-.12.29-.19.41s-.17.27-.25.43c-.08.16-.18.35-.29.56-.1.18-.21.39-.33.6-.12.21-.26.45-.41.71-3 5.27-4.53 7.9-7.62 13.18-2.57-.54-3.85-.79-6.41-1.26 4.87-9.28 9.71-18.57 14.4-27.95z"/></svg>