<svg xmlns="http://www.w3.org/2000/svg" width="250" height="250" viewBox="0 0 250 250"><path d="M105.085 201.072c-.02-.05-.04-.1-.063-.152l-.086-.217c-.026-.066-.056-.14-.084-.215-.034-.086-.065-.168-.104-.264-.018-.047-.04-.1-.057-.148-.08-.207-.16-.436-.26-.683l-.12-.323c-.05-.125-.1-.256-.14-.39l-.12-.324c-.05-.147-.11-.298-.17-.455l-.14-.38-.32-.87c-.05-.14-.1-.27-.15-.42-.09-.24-.18-.48-.27-.74l-.04-.11c-.55-1.49-1.18-3.21-1.88-5.12h86.4l-.49-53.97v-31.54c.13-.15.22-.32.29-.48.01-.01.01-.02.02-.03.07-.15.11-.31.14-.47l.01-.04c.03-.16.04-.32.04-.48v-.01c0-.16-.02-.31-.05-.46v-.03c-.02-.14-.06-.27-.09-.39l-.01-.04c-.03-.12-.07-.23-.11-.33v-.01c-.08-.21-.16-.36-.2-.42v-47.9L163.4 56.1c-4.44-3.74-10-6.6-16.24-8.21h-.02c-.58-.14-1.166-.28-1.75-.41l-.14-.03c-.55-.11-1.11-.22-1.67-.31l-.26-.05c-.52-.08-1.06-.16-1.58-.23-.124-.01-.24-.04-.366-.05-.5-.06-1.01-.11-1.52-.16-.15-.01-.31-.03-.46-.05-.5-.04-1-.06-1.5-.09l-.51-.03c-.67-.03-1.34-.04-2.02-.04-.683 0-1.36.02-2.034.05-.216.01-.427.03-.64.04-.465.03-.93.06-1.387.1-.24.02-.48.05-.72.07-.436.04-.867.09-1.3.15l-.7.09c-.46.07-.92.145-1.373.22-.19.036-.38.066-.564.1-1.296.24-2.565.535-3.81.88-.14.04-.28.087-.424.13-.48.136-.95.28-1.42.43l-.52.174c-.45.15-.89.306-1.32.47l-.49.18c-.474.187-.94.378-1.41.577-.1.05-.21.09-.32.14-1.17.52-2.304 1.08-3.4 1.68-.05.03-.103.06-.16.09-.48.27-.955.55-1.42.84l-.3.19c-.427.27-.845.54-1.255.82-.1.07-.196.13-.29.2-.44.31-.87.62-1.29.94-.05.04-.108.08-.158.12-.98.74-1.9 1.53-2.78 2.36l-.01.01-.02-.01c-2.55-1.11-4.59-1.56-6.22-1.61h-.01c-.2-.01-.39-.01-.57 0h-.03l-.53.03h-.03l-.5.06h-.03c-.16.03-.32.06-.47.09h-.01c-1.55.36-2.53 1.13-3.12 1.82l-.02.02-.15.18-.03.03c-.05.06-.09.11-.12.16l-.03.04-.1.15-.03.04-.08.13-.03.04-.06.11-.02.05-.05.09-.02.04-.04.07-.02.04-.02.04-.02.03c0 .01-.01.02-.01.02-.01.01-.01.02-.01.02-.14.28-.24.57-.33.86l-.04.13c-.31 1.06-.31 2.15-.11 3.25l-31 3.14-.19-.1.03.13-.28.03 21.72 72.54-11.13.31-.03.36-.2-.54L67 190.29l.78.2.147.04c.026 0 .06.01.085.02l1.464.38.14.04c2.85.75 7.71 2.03 12.95 3.46l1.74.48c.03.01.06.01.09.02.57.15 1.13.31 1.7.47l.1.03 1.67.47.12.03c.54.15 1.09.3 1.63.46.05.01.11.03.17.05l1.53.43.24.07c.49.14.98.28 1.47.43l.22.06c.47.13.94.27 1.4.4l.27.08c.43.12.86.25 1.27.38l.31.09c.39.12.78.23 1.16.35.11.03.23.06.34.1.36.11.71.22 1.05.32.11.04.23.07.34.11l.92.29c.12.04.25.08.37.12.27.09.53.17.79.26l.36.12c.23.08.44.15.66.23l.35.12c.19.06.35.13.52.19l.33.12c.14.05.26.1.39.16.1.04.21.08.3.12l.26.13c.08.04.17.08.24.12.06.03.1.06.14.09.06.04.12.08.16.11.02.01.01.02.02.04l-.02-.03-.05-.11-.04-.1-.08-.18zm.263.536c0-.033-.043-.075-.082-.116.053.114.083.16.082.116z" opacity=".15"/><path fill="#1B75BB" d="M101.348 196.608c0-.04-.036-.09-.095-.144.064.14.097.19.095.144z"/><path fill="#FFF" d="M159.2 50.985c-7.075-5.907-16.954-9.586-27.896-9.586-11.792 0-22.354 4.26-29.493 11-10.22-4.45-12.32 1.7-12.32 1.7-.59 1.21-.7 2.49-.53 3.77 22.31 9.86 52.68 12.71 70.25-6.9z"/><path fill="#1B75BB" d="M182.953 96.516V48.66l-23.62 2.433c-.044-.037-.09-.07-.134-.107-17.57 19.61-47.94 16.76-70.25 6.897.02.152.02.304.05.455l-31.46 3.24 21.72 72.54-11.14.305-.03.363-.2-.547-4.9 51.01s36.19 9.33 38.23 11.21c-.39-.85-1.96-5.05-4.21-11.22h81.21l4.7-53.98-14.62-8.13 14.62 8.12V99.73c1.03-1.285.15-2.96 0-3.217zm-48.008 8.076l6.977 3.877-6.977-3.88z"/><path fill="#0E4F82" d="M67.926 134.238s33.474 63.852 33.42 62.37S63.02 185.25 63.02 185.25l4.906-51.012zm113.634-2.963L57.8 61.425l43.793 116.264"/><path fill="#FFF" d="M128.646 105.048s28.35 57.316 38.346 1.513c0 0 6.795 2.23 5.48 4.57 0 0-12.595 57.53-46.714 1.38-.002 0-5.23-5.79 2.888-7.46z"/><path fill="#FFF" d="M166.992 100.944c-6.313-8.148-10.078-.54-10.078-.54.557 1.095 2.902.6 2.902.6 5.926-.925 5.246 4.044 5.246 4.044l3.69 4.723"/><path fill="#FFF" d="M166.543 109.772s-1.05-2.3-1.48-4.724c-.43-2.427 1.172.124 1.172.124l1.08-3.18.186-.956s-.49-9.945 4.05-14.772c0 0 6.21-.804 0 7.603 0 0-2.22 6.09-1.9 7.387 0 0 .79 2.032 2.64.876 0 0 3.52-5.145 10.65-5.65 0 0 2.92 4.774-5.18 4.774l-3.53 2.776s3.63 9.445-6.1 6.574"/><path fill="#FFF" d="M168.754 100.604s-.598.926-3.766-.37 3.766 7.41 3.766 7.41v-7.04zM112.06 96.48l17.858 5.65-2.02 2.918 7.285 13.577 3.602 7.195.523 8.727-45.625 2.328S90.63 107.25 90.47 106.75c-.16-.5 14.588-10.873 14.588-10.873l7 .602z"/><path fill="#D0D2D3" d="M136.125 123.91s-6.125-10.002-7.36-18.62l-7.025 3.947 2.053 13.844 5.715 2.87 6.617-2.04zm31.617-62.043s7.717-14.035-6.607-9.16c-14.328 4.875 6.607 9.16 6.607 9.16z"/><path fill="#919496" d="M165.04 57.996s6.866-6.93 1.93 2.346c-4.937 9.28-1.93-2.346-1.93-2.346zm-64.462-2.62l-4.02 8.792s-12.36-15.376 4.02-8.793z"/><path fill="#FFF" d="M92.74 68.708c2.612-15.426 18.877-27.31 38.565-27.31 21.51 0 38.94 14.18 38.94 31.67 0 17.49-17.433 31.667-38.94 31.667-.81 0-1.605-.025-2.404-.065-.86 3.76-1.58 9.59 1.03 13.118 0 0 17.87 13.357 8.75 26.046.01-.093 2.35-22.236-14.7-26.18l3.1-13.946s-6.44-1.514-13.96-4.837v17.48s17.99 21 7.8 35.22c-17.81-.54-53.65-10.07-28.16-82.85z"/><path fill="#D0D2D3" d="M113.1 116.34V98.87c7.524 3.324 13.964 4.838 13.964 4.838l-3.092 13.947c17.045 3.943 14.71 26.086 14.7 26.18-1.778 2.476-2.673 3.313-6.843 5.636 0 0-5.62 2.25-10.93 2.09 10.18-14.22-7.8-35.22-7.8-35.22z"/><ellipse fill="#D0D2D3" cx="137.154" cy="73.766" rx="33.094" ry="25.105"/><path fill="#D0D2D3" d="M104.234 53.574s.38 3.253-2.646 3.706c0 0-14.82-4.84-4.008 8.166 0 0 1.21 1.967-1.285 3.705 0 0-9.98-8.54-6.805-15.04 0 0 2.42-7.11 14.744-.53z"/><ellipse fill="#FFF" cx="154.055" cy="68.125" rx="12.938" ry="12.752"/><ellipse fill="#FFF" cx="123.973" cy="68.414" rx="15.967" ry="15.862"/><path fill="#6C6F71" d="M135.908 95.877s.846-2.56 3.477-2.34c0 0-.7-.77-3.477-1.954 0 0 2.455.233 4.133 1.574 0 0 6.18.563 4.4-4.52 0 0 3.46 6.063-4.76 5.364 0 .01-2.02.4-3.76 1.88z"/><path fill="#BE1E2D" d="M142.648 87.953s1.977 2.396-1.803 3.65c0 0-2.146.89-5.092-2.298 0 0 16.395-7.432 6.895-1.352z"/><path fill="#D0D2D3" d="M106.174 102.13l1.83 47.384-7.426-3.183-5.887-41.04 1.87-1.7 7.51 44.24"/><path fill="#6C6F71" d="M143.225 82.848l-.432 2.715s-8.475 6.198-10.463 1.29l.74-1.896-2.543 3.26 1.525-.944s-.232 6.02 10.83-.965c0 0 5.092-2.05.604 1.1 0 0 7.455-3.375.232-2.125L144 83.2l-.775-.352z"/><path fill="#1D8FCD" d="M147.162 81.533s-2.877-5.856-3.938-2.765c0 0-2.38-3.48-2.38 2.11 0 0 2.255 1.535 2.38 3.397 0 0 2.33-.936 3.938-2.742z"/><path fill="#FFF" d="M143.225 82.848s-.146-.79-1.262-1.578c0 0 .412-1.516 1.262 1.578z"/><path fill="#D0D2D3" d="M167.84 101.53l.914 2.777s5.594 2.63.975 6.686c0 0 5.21-3.745-.03-6.686l-1.86-2.777zm2.406 10.28s.293 2.5-3.79 10.646l3.79-10.647z"/><path fill="#002749" d="M68.144 134.422L63.02 185.25h120.425l-.492-53.975"/><circle fill="#0071BC" cx="121.072" cy="68.498" r="12.364"/><path fill="#0F4481" d="M121.96 71.61c2.297-2.653 2.008-6.66-.645-8.957-2.65-2.293-6.658-2.006-8.957.647-2.293 2.65-2.005 6.66.646 8.956 2.654 2.295 6.663 2.005 8.956-.646z"/><path fill="#FFF" d="M118.263 69.664c1.222-1.41 1.064-3.54-.344-4.76-1.41-1.218-3.54-1.067-4.76.343-1.22 1.41-1.07 3.542.34 4.762 1.41 1.21 3.53 1.06 4.76-.35z"/><circle fill="#FFF" cx="123.4" cy="66.582" r="1.644"/><circle fill="#0071BC" cx="152.229" cy="68.281" r="10.265"/><path fill="#0F4481" d="M152.967 70.867c1.904-2.204 1.666-5.53-.535-7.437-2.2-1.904-5.53-1.666-7.438.537-1.902 2.2-1.664 5.53.54 7.436 2.198 1.904 5.53 1.664 7.433-.536z"/><path fill="#FFF" d="M149.896 69.25c1.014-1.17.885-2.938-.285-3.95-1.16-1.012-2.93-.888-3.95.283-1.01 1.17-.88 2.94.29 3.954 1.17 1.01 2.94.88 3.95-.287z"/><circle fill="#FFF" cx="154.162" cy="66.691" r="1.364"/><path d="M78.204 171.962c-.8 0-1.2-.336-1.2-1.01v-5.084c-.37-.253-1.032-.47-1.99-.646s-1.812-.292-2.56-.344c-.268.457-.487 1.118-.658 1.98-.17.864-.35 1.733-.533 2.61s-.428 1.567-.733 2.075c-1.016 0-1.587-.26-1.714-.78.355-.51.933-3.105 1.733-7.79.8-4.684 1.45-8.35 1.97-10.997.51-2.646 1.07-4.87 1.66-6.675.59-1.8 1.17-2.7 1.71-2.7s.96.12 1.25.34c0 .93.25 3.44.76 7.53.5 4.09.76 6.73.76 7.93 0 1.2.13 3.19.41 5.98.27 2.79.41 4.88.41 6.28-.01.88-.44 1.32-1.3 1.32zm-1.638-12.73c-.23-2.305-.435-4.5-.62-6.59-.183-2.088-.275-3.35-.275-3.79 0-.437.01-.687.02-.75-.4.418-.99 2.748-1.76 6.988s-1.17 6.925-1.23 8.055c1.08.292 1.99.438 2.72.438s1.25-.037 1.55-.113c-.03-.52-.17-1.934-.4-4.238zm7.254-.314l-.037 4.228c0 3.44.248 6.15.743 8.13l-.438 1.05h-1.085l-.514-.572c.02-1.168.03-2.48.03-3.933 0-1.45-.11-4.56-.34-9.32s-.34-8.31-.34-10.66c0-1.23.43-1.85 1.29-1.85 1.35 0 2.5.36 3.42 1.07.92.71 1.39 1.73 1.39 3.05v2.75c0 .75-.14 1.43-.42 2.05-.28.62-.6 1.27-.97 1.95-.37.68-.57 1.06-.61 1.14.14.64.39 1.88.74 3.73.76 4.05 1.6 6.97 2.53 8.74.27.51.4.91.4 1.19 0 .29-.08.53-.24.73-.16.2-.37.3-.64.3-.55 0-1.07-.62-1.57-1.87s-.91-2.64-1.21-4.16c-.93-4.66-1.49-7.22-1.7-7.69h-.48zm.154-11.483l-.133.553c0 1.066.03 2.605.08 4.618.05 2.012.08 3.476.08 4.39.61-.317 1.1-1.146 1.48-2.485.38-1.34.56-2.36.56-3.07s-.01-1.23-.05-1.57c-.04-.34-.12-.71-.25-1.11-.25-.84-.84-1.27-1.75-1.31zm9.446 11.483l-.04 4.228c0 3.44.25 6.15.744 8.13l-.438 1.05H92.6l-.514-.572c.025-1.168.038-2.48.038-3.933 0-1.45-.11-4.56-.333-9.32s-.33-8.31-.33-10.66c0-1.23.43-1.85 1.3-1.85 1.36 0 2.5.36 3.43 1.07.93.71 1.39 1.73 1.39 3.05v2.75c0 .75-.14 1.43-.42 2.05-.28.62-.6 1.27-.97 1.95-.37.68-.57 1.06-.61 1.14.14.64.39 1.88.75 3.73.76 4.05 1.61 6.97 2.54 8.74.27.51.4.91.4 1.19 0 .29-.08.53-.23.73-.16.2-.37.3-.64.3-.54 0-1.07-.62-1.57-1.87s-.9-2.64-1.21-4.16c-.92-4.66-1.49-7.22-1.69-7.69h-.48zm.15-11.483l-.132.553c0 1.066.025 2.605.076 4.618.05 2.012.076 3.476.076 4.39.61-.317 1.1-1.146 1.476-2.485.375-1.34.562-2.36.562-3.07s-.02-1.23-.057-1.57c-.03-.34-.12-.71-.24-1.11-.25-.84-.84-1.27-1.75-1.31zm11.73 11.578l.19 8.284v1.16l-.018 1.087h.514l1.124-.038c1.066 0 1.6.323 1.6.972 0 .33-.13.612-.39.847s-.563.353-.905.353H105.7c-1.18 0-1.935-.025-2.265-.076-.203.025-.362.038-.476.038-.93 0-1.39-.292-1.39-.876 0-.24.07-.47.22-.686s.3-.33.45-.343h1.1l.07-.515-.27-8.283.21-8.684c0-1.485-.07-2.882-.19-4.19h-.75l-.9.04c-.38 0-.68-.074-.9-.22-.22-.146-.33-.422-.33-.83 0-.595.64-.894 1.92-.894h4.64c1.05 0 1.58.27 1.58.81 0 .24-.12.46-.35.66s-.49.3-.78.3h-2c.1 1.06.15 2.27.15 3.61l-.21 7.44zm10.59 8.265c.57-2.87 1.272-7.015 2.103-12.436s1.323-8.57 1.476-9.445h.87c.23 0 .43.083.62.248s.27.368.27.61c0 1.46-.32 3.296-.94 5.512-.62 2.215-.99 3.644-1.1 4.284-.11.65-.22 1.68-.33 3.12-.12 1.44-.25 2.85-.4 4.23s-.36 2.79-.61 4.23c-.26 1.44-.61 2.6-1.08 3.49-.47.89-1.02 1.34-1.65 1.34l-.73-.59c0-3.16-.3-6.38-.91-9.67s-1.2-6.05-1.78-8.28c-.58-2.23-.97-3.65-1.17-4.24-.46-1.41-.69-2.28-.69-2.63 0-.34.1-.6.3-.78s.41-.27.65-.27c.72 0 1.41 1.25 2.07 3.73.66 2.5 1.15 4.84 1.48 7.02.33 2.18.57 3.85.74 5s.32 2.31.46 3.48.24 1.86.27 2.09zm7.788-14.988l-.21-3.293c0-1.84.546-2.762 1.638-2.762.698 0 1.65.162 2.856.485 1.206.324 1.81.74 1.81 1.247 0 .533-.38.94-1.143 1.22-1.21-.406-2.19-.654-2.96-.743.04.56.06 1.117.06 1.676l-.17 5.6c0 .024.04.228.11.608l1.39-.058c1.26 0 1.88.356 1.88 1.066 0 .28-.12.524-.34.733-.23.21-.52.31-.87.31s-.73-.03-1.13-.08h-.99c.07.99.11 1.97.11 2.95l-.17 7.06c0 1.46.02 2.19.07 2.19l2.87-.1c.99 0 1.48.31 1.48.95 0 .39-.18.67-.52.85-.35.17-.73.26-1.16.26H125c-.344 0-.654-.12-.934-.36s-.428-.52-.44-.85v-1.03l-.247-6.59.26-11.38zm8.416 14.816l.114-12.283c0-.838-.076-2.116-.23-3.837-.15-1.72-.228-2.814-.228-3.284s.146-.835.438-1.096c.292-.26.603-.39.933-.39 2.68 0 4.86 1.567 6.54 4.703.97 1.79 1.45 3.68 1.45 5.67l-.07 1.96v2.15c0 2.61-.11 4.36-.35 5.23-.23.87-.48 1.6-.73 2.19s-.56 1.1-.91 1.56c-.82 1.04-1.86 1.88-3.12 2.51h-2.82c-.66 0-.99-1.7-.99-5.11zm2.723 2.19v.934c2.26 0 3.618-2.285 4.075-6.855.102-1.054.152-2.07.152-3.047 0-7.846-1.51-11.946-4.532-12.302-.19 1.028-.286 2.44-.286 4.237 0 1.796.1 4.605.296 8.426.197 3.82.295 6.69.295 8.6zm9.14-17.006l-.21-3.293c0-1.84.547-2.762 1.64-2.762.697 0 1.65.162 2.855.485 1.206.324 1.81.74 1.81 1.247 0 .533-.38.94-1.143 1.22-1.21-.406-2.19-.654-2.96-.743.04.56.06 1.117.06 1.676l-.17 5.6c0 .024.04.228.11.608l1.39-.058c1.26 0 1.88.356 1.88 1.066 0 .28-.12.524-.34.733-.23.21-.52.31-.87.31s-.73-.03-1.13-.08h-.99c.07.99.11 1.97.11 2.95l-.17 7.06c0 1.46.02 2.19.07 2.19l2.87-.1c.99 0 1.48.31 1.48.95 0 .39-.18.67-.52.85-.35.17-.73.26-1.16.26h-3.29c-.35 0-.66-.12-.94-.36s-.43-.52-.44-.85v-1.03l-.25-6.59.27-11.38zm10.19 6.628l-.04 4.228c0 3.44.248 6.15.743 8.13l-.438 1.05h-1.086l-.514-.572c.025-1.168.038-2.48.038-3.933 0-1.45-.11-4.56-.333-9.32-.223-4.76-.334-8.31-.334-10.66 0-1.23.432-1.85 1.295-1.85 1.358 0 2.5.36 3.428 1.07.927.71 1.39 1.73 1.39 3.05v2.75c0 .75-.14 1.43-.418 2.05-.28.62-.604 1.27-.972 1.95-.368.68-.57 1.06-.61 1.14.14.64.39 1.88.744 3.73.762 4.05 1.605 6.97 2.532 8.74.267.51.4.91.4 1.19 0 .29-.08.53-.238.73-.16.2-.37.3-.638.3-.546 0-1.07-.62-1.57-1.87-.503-1.25-.905-2.64-1.21-4.16-.927-4.66-1.492-7.22-1.695-7.69h-.47zm.152-11.483l-.14.553c0 1.066.02 2.605.07 4.618.05 2.012.07 3.476.07 4.39.61-.317 1.1-1.146 1.47-2.485.37-1.34.56-2.36.56-3.07s-.02-1.23-.06-1.57c-.04-.34-.12-.71-.25-1.11-.25-.84-.84-1.27-1.75-1.31zm7.17 15.12l-.02-2.284v-.93c0-3.83.19-6.5.57-8 .45-1.85 1.09-3.13 1.9-3.84 1.1-.99 2.5-1.48 4.19-1.48.4 0 .7.1.9.29.19.19.29.42.29.69 0 .27-.08.51-.24.72-.16.21-.36.32-.6.34h-1.83c-.53 0-1 .35-1.39 1.03-.38.69-.66 1.53-.84 2.52-.33 1.88-.49 3.43-.48 4.67v.19l-.17 7.52c0 1.59.08 2.69.26 3.29.17.61.35 1.1.53 1.48.18.38.4.69.65.93.58.56 1.33.84 2.25.84.3 0 .58-.11.83-.34.3 0 .57.07.82.21s.36.36.36.65c0 1.03-.72 1.55-2.15 1.55-.59 0-1.2-.09-1.84-.26-.65-.17-1.12-.36-1.44-.56-1.73-1.12-2.59-4.17-2.59-9.16zm14.17-3.542l.19 8.284v1.16l-.02 1.087h.51l1.12-.038c1.06 0 1.6.323 1.6.972 0 .33-.13.612-.39.847s-.57.353-.91.353h-1.72c-1.18 0-1.94-.025-2.27-.076-.21.025-.37.038-.48.038-.93 0-1.39-.292-1.39-.876 0-.24.07-.47.23-.686s.3-.33.45-.343h1.1l.07-.515-.27-8.283.21-8.684c0-1.485-.06-2.882-.19-4.19h-.74l-.9.04c-.38 0-.68-.074-.9-.22-.22-.146-.33-.422-.33-.83 0-.595.64-.894 1.92-.894h4.64c1.05 0 1.58.27 1.58.81 0 .24-.12.46-.35.66s-.49.3-.78.3h-2c.1 1.06.15 2.27.15 3.61l-.21 7.44z" fill="#BBC9DA"/></svg>