<svg xmlns="http://www.w3.org/2000/svg" width="250" height="250" viewBox="0 0 250 250"><path opacity=".15" d="M133.542 70.207c-1.522 0-3.07.05-4.63.15-.35-1.16-.988-2.18-1.828-3.006l.347-7.77c.02-.27 0-.55-.04-.82l-.95-5.81c-.32-1.96-2.02-3.35-3.94-3.35-.21 0-.43.02-.65.06l-7.31 1.2c-1.04.18-1.98.76-2.6 1.62s-.87 1.94-.69 2.98l.66 4c-1.05-.31-2.17-.48-3.33-.48-1.49 0-2.99.26-4.48.78-2.75.96-5.02 2.68-6.5 4.88-.63-.39-1.37-.61-2.12-.61-.34 0-.68.04-1.01.13l-.41-.71c-.64-1.11-1.77-1.85-3.04-1.99-.14-.01-.29-.02-.43-.02-1.12 0-2.19.47-2.96 1.31l-4.03 4.43c-1.07 1.18-1.33 2.88-.7 4.32l-.06.13h-.16c-.97 0-1.91.36-2.65 1.01L74 77.94c-.21.18-.39.375-.54.58-.23.13-.45.287-.65.466l-5.62 4.97c-.417.367-.746.81-.976 1.303l-2.93-2.23c-.7-.54-1.552-.82-2.423-.82-.17 0-.35.01-.53.03-1.05.14-2 .69-2.65 1.54l-4.36 5.72c-.64.84-.92 1.91-.78 2.96s.7 2 1.54 2.64l3.18 2.42c.7.53 1.56.82 2.43.82.18 0 .36-.02.54-.04l.18-.03.49.37c-3.74.42-7.08 3.11-9.27 7.54-1.21 2.44-1.7 5.45-1.45 8.92l-4.34-.85c-.25-.05-.51-.08-.76-.08-.79 0-1.57.24-2.23.68-.88.59-1.49 1.51-1.69 2.55l-1.02 5.23c-.12.59-.09 1.18.05 1.74-.89 1.35-1.53 2.98-1.89 4.81-1.07 5.49 1.74 11.93 8.3 13.2.71.14 1.41.21 2.09.21.97 0 1.86-.13 2.68-.37.07.11.14.23.21.34.59.88 1.51 1.49 2.55 1.69l4.67.91c.11 41.14 33.62 74.58 74.79 74.58 41.24 0 74.79-33.55 74.79-74.79 0-41.24-33.55-74.79-74.79-74.79z"/><path fill="#FFF" d="M130.542 67.207c-1.522 0-3.07.05-4.63.15-.35-1.16-.99-2.18-1.83-3.006l.348-7.77c.012-.27-.004-.55-.05-.82l-.953-5.81c-.322-1.96-2.02-3.35-3.942-3.35-.215 0-.433.02-.652.06l-7.312 1.2c-1.04.18-1.98.76-2.6 1.62s-.87 1.94-.7 2.98l.66 4c-1.05-.31-2.16-.48-3.33-.48-1.49 0-2.99.26-4.48.78-2.75.96-5.02 2.68-6.5 4.88-.63-.39-1.37-.61-2.12-.61-.33 0-.67.04-1 .13l-.41-.71c-.64-1.11-1.77-1.85-3.04-1.99-.14-.01-.29-.02-.43-.02-1.12 0-2.19.47-2.96 1.31l-4.03 4.43c-1.07 1.18-1.33 2.88-.7 4.32l-.06.13h-.16c-.97 0-1.91.36-2.65 1.01L71 74.94c-.204.18-.384.375-.54.58-.227.13-.443.287-.646.466l-5.62 4.97c-.414.37-.743.81-.973 1.305l-2.93-2.23c-.7-.54-1.55-.82-2.42-.82-.18 0-.35.01-.53.03-1.05.14-2 .7-2.64 1.54l-4.36 5.72c-.64.85-.92 1.91-.78 2.96s.7 2.01 1.54 2.65l3.18 2.42c.7.53 1.56.82 2.43.82.18 0 .36-.01.54-.04.06 0 .12-.01.18-.02l.5.38c-3.74.42-7.08 3.12-9.27 7.54-1.21 2.45-1.7 5.45-1.45 8.93l-4.33-.84c-.25-.05-.51-.07-.76-.07-.79 0-1.57.24-2.23.68-.88.59-1.48 1.51-1.69 2.55l-1.02 5.23c-.11.6-.09 1.19.05 1.74-.89 1.35-1.53 2.98-1.89 4.82-1.07 5.49 1.74 11.93 8.3 13.21.71.14 1.41.21 2.09.21.97 0 1.86-.13 2.68-.36.07.12.14.23.21.34.6.88 1.51 1.49 2.56 1.69l4.67.91c.11 41.15 33.62 74.59 74.79 74.59 41.24 0 74.8-33.55 74.8-74.79.01-41.24-33.54-74.79-74.78-74.79z"/><path fill="#D0D1D2" d="M170.395 118.798s15.723-4.065 5.208 10.967l-2.095-2.472-3.113-8.495z"/><circle fill="#FFD527" cx="130.542" cy="141.999" r="70.793"/><path fill="#660704" d="M74.992 157.85l.636 28.184 27.64 1 4.18-30.638"/><path fill="#A8170C" d="M137.09 147.778c-.01-.064-.02-.128-.034-.192-.06-.263-.14-.517-.237-.763-.04-.092-.08-.18-.13-.27-.08-.167-.17-.327-.27-.483-.1-.166-.21-.324-.33-.478-.07-.085-.14-.17-.21-.25-.46-.522-1.02-.95-1.66-1.244-.26-.12-.53-.21-.81-.284l-.03-.01c-.42-.11-.84-.187-1.29-.187h-2.54c-.29 0-.57.038-.85.085H69.44v16.216h15.372v.002h43.933c.273.045.55.084.835.084h2.534c2.798 0 5.067-2.27 5.067-5.07v-6.25c.01-.31-.03-.61-.09-.906z"/><path fill="#D81405" d="M75.69 154.935c0 2.8-2.27 5.07-5.067 5.07h-2.535c-2.798 0-5.068-2.27-5.068-5.07v-6.25c0-2.8 2.27-5.067 5.068-5.067h2.535c2.798 0 5.067 2.27 5.067 5.067v6.25z"/><path fill="#FF9997" d="M72.775 144.113l-9.755 9.755v1.066c0 1.664.812 3.127 2.05 4.05l10.59-10.59c-.11-1.9-1.25-3.51-2.885-4.28zm-5.098 15.85l8.014-8.014v-2.16l-9.72 9.72c.53.24 1.11.39 1.71.44z"/><path opacity=".4" fill="#660704" d="M92.478 143.698h-8s2.183 3.88.85 7.517-11.756 23.89-9.452 35.285l1.5 2.25 6.132-3.594 13.456-38.063-4.486-3.395z"/><path fill="#E5E5E5" d="M161.532 90.617c-3.356.304-6.538-1.894-7.736-5.35L146.22 63.41c-1.403-4.057.487-8.408 4.216-9.704l11.656-4.036c.51-.176 1.04-.292 1.576-.34 3.357-.307 6.538 1.895 7.735 5.353l7.576 21.855c1.4 4.056-.49 8.407-4.22 9.7l-11.66 4.038c-.51.178-1.04.293-1.58.34zm2.616-36.018c-.11.01-.22.03-.324.07L152.17 58.7c-.96.333-1.397 1.692-.95 2.972l7.57 21.854c.504 1.455 1.754 2.04 2.58 1.745l11.656-4.03c.956-.33 1.39-1.69.947-2.97L166.4 56.41c-.44-1.27-1.49-1.883-2.255-1.815z"/><path fill="#FFF" d="M121.624 172.37l1.244-.127c.39-.05.94-.072 1.462-.17l1.79-.32c.67-.186 1.43-.357 2.224-.607.774-.297 1.644-.552 2.48-1 1.71-.812 3.526-1.95 5.136-3.627 1.624-1.66 3.073-3.79 4.236-6.29 1.17-2.5 2.062-5.36 2.73-8.4.685-3.04 1.09-6.29 1.367-9.61.294-3.32.377-6.74.396-10.16-.01-3.42-.09-6.86-.27-10.24-.16-3.38-.4-6.71-.67-9.94-.27-3.23-.57-6.34-.89-9.3-.3-2.96-.65-5.75-.95-8.33-.64-5.16-1.22-9.45-1.65-12.45l-.67-4.72 6.85-.92.56 4.77c.35 3.03.84 7.38 1.35 12.6.24 2.61.53 5.44.76 8.44.25 3 .48 6.17.68 9.45.19 3.29.35 6.69.44 10.15.1 3.46.1 6.99.02 10.53-.11 3.54-.28 7.08-.67 10.58-.38 3.5-.89 6.94-1.72 10.25-.81 3.31-1.88 6.48-3.31 9.37-1.43 2.88-3.25 5.46-5.34 7.48-2.07 2.05-4.41 3.45-6.54 4.4-1.06.52-2.11.81-3.05 1.14-.96.28-1.86.46-2.66.65l-2.22.34c-.65.09-1.11.09-1.53.14l-1.25.09-.38-4.24z"/><path fill="#E5E5E5" d="M223.1 73.127l-16.022-46.632c-.008-.08.01-.166-.016-.24-.023-.073-.09-.13-.136-.2l-.007-.018h-.01c-1.5-2.113-12.71-.343-25.7 4.118-12.99 4.463-22.93 9.962-22.81 12.546l-.07.03 16.46 47.91s13.67.72 25.98-3.51 22.59-13.18 22.59-13.18l-.14-.38c-.01-.08.01-.16-.01-.24-.03-.07-.1-.12-.14-.19z"/><path fill="#DBDBDB" d="M184.14 38.664c-12.5 4.294-23.628 5.742-24.647 3.937-.568-2.1 9.364-7.74 21.86-12.04 12.496-4.29 23.102-6.28 24.644-3.93.33 2.41-9.363 7.75-21.858 12.05z"/><path fill="#BCBCBC" d="M183.545 36.937c-10.686 3.672-19.996 5.507-20.68 4.504-.288-1.22 8.395-5.48 19.08-9.15 10.685-3.67 19.61-5.79 20.68-4.5.066 1.43-8.396 5.49-19.08 9.16z"/><path fill="#B5971C" d="M202.388 38.897c-1.685.58-1.414 3.72 1.716 2.642 3.13-1.08 6.47 7.46 1.304 6.14-5.165-1.32-8.68 1.77-12.418 2.25-3.74.47-1.975 4.04-5.982 6.09s-7.377-1.1-7.377-1.1c-1.25-3.88-2.9-4.19-4.09-3.71l3.55 10.31c-2.36.98-4.48 1.37-5.58.21-1.38-1.46-3.28-2.27-4.38-1.52l-.12-.36c-.51.93-.64 1.76-.64 1.76l3.46 3.79 14.67 1.15 14.95-7.83s12.93.41 10.62-9.84c-2.31-10.24-7.95-10.59-9.63-10.02z"/><path fill="#BCBCBC" d="M183.582 74.653c.807 2.348-.443 4.907-2.793 5.715-2.35.807-4.91-.445-5.72-2.792l-8.94-26.003c-.81-2.35.44-4.907 2.79-5.714 2.35-.81 4.9.44 5.71 2.79l8.93 26zm16.873-3.643c.806 2.346-.445 4.907-2.792 5.715-2.35.807-4.91-.445-5.717-2.793l-8.933-26.002c-.807-2.353.443-4.91 2.79-5.716 2.35-.806 4.91.445 5.718 2.795l8.94 26zm15.23-7.385c.805 2.348-.444 4.907-2.794 5.714-2.35.8-4.9-.45-5.71-2.8l-8.93-26c-.8-2.36.45-4.91 2.8-5.72 2.35-.81 4.91.44 5.72 2.79l8.93 26z"/><path fill="#FFD527" d="M168.23 62.88l6.37 18.54s2.452 1.913 4.726 1.606c2.57-.347 17.717.644 35.798-11.76 0 0 2.8-2.038 3.183-4.055l-6.287-18.29s-8.91 2.66-10.61 1.63c-1.7-1.03-6.19.79-5.99-3.72.2-4.51-9.434-6.31-8.08 1.16 1.36 7.48 11.056 7.1 10.974 6.86 0 0-8.566.93-12.73 3.3s-9.97 5.85-12.084 3.61c-2.117-2.23-5.464-2.97-5.265 1.14z"/><path fill="none" d="M197.552 54.93c-.63.01-1.603-.052-2.713-.267l.22.646c1.04-.18 1.91-.31 2.49-.38z"/><path fill="#BCBCBC" d="M173.734 57.354c4.674.28-1.247-4.415.197-4.91 0 0 .67-.85 1.61-1.223l-.88-2.57c-.81-2.35-3.36-3.59-5.71-2.79-2.35.81-3.6 3.37-2.79 5.72l2.85 8.3c.7-1.24 2.07-2.67 4.75-2.51z"/><path fill="#967D14" d="M173.493 61.746c1.105 1.167 3.222.77 5.583-.208l-3.543-10.316c-.938.372-1.602 1.222-1.602 1.222-1.44.496 4.48 5.192-.19 4.91-2.67-.158-4.05 1.27-4.74 2.517l.13.36c1.11-.74 3.01.06 4.38 1.52z"/><path fill="#DBBB37" d="M198.308 54.836s-.282.033-.756.094c.477-.01.77-.053.756-.094z"/><path fill="#F2C716" d="M180.79 80.368c2.35-.81 3.6-3.367 2.792-5.715l-4.506-13.115c-2.36.98-4.478 1.374-5.583.208-1.378-1.46-3.278-2.267-4.38-1.52l5.96 17.35c.808 2.347 3.366 3.6 5.716 2.792z"/><path fill="#967D14" d="M192.99 49.935c-3.74.476-1.976 4.043-5.983 6.093-.366.188-.723.29-1.075.396l3.037 8.84 8.06-4.22-3.83-11.15c-.08.007-.14.03-.21.04z"/><path fill="#F2C716" d="M197.663 76.726c2.347-.808 3.598-3.37 2.792-5.716l-5.395-15.7c-2.583.443-6.16 1.22-8.683 2.412l5.568 16.21c.808 2.35 3.368 3.6 5.718 2.794z"/><path fill="#967D14" d="M202.388 38.897c-1.685.58-1.414 3.72 1.716 2.642 3.13-1.08 6.47 7.46 1.304 6.14-1.748-.45-3.295-.37-4.738-.08l3.747 10.91c2.807-.45 6.665-1.77 7.626-5.49l-4.33-12.61c-2.162-1.88-4.372-1.85-5.325-1.53z"/><path fill="#F2C716" d="M187.335 47.975c.813 4.47 4.6 6.124 7.504 6.688l-3.32-9.653c-.29-.845-.81-1.538-1.46-2.054-1.84.293-3.32 1.784-2.73 5.02zM212.89 69.34c2.35-.808 3.6-3.367 2.794-5.715l-4.932-14.354c-2.36.65-7.345 1.89-9.035 1.39l5.458 15.89c.806 2.35 3.366 3.6 5.716 2.79z"/><path fill="#BCBCBC" d="M204.104 41.54c-3.13 1.077-3.4-2.06-1.716-2.642.953-.324 3.163-.353 5.324 1.524l-.96-2.798c-.81-2.353-3.37-3.6-5.717-2.793-2.35.81-3.6 3.37-2.793 5.72l2.427 7.06c1.44-.29 2.99-.37 4.73.08 5.16 1.32 1.82-7.22-1.31-6.14z"/><path fill="#FFF" d="M146.844 62.138s5.43-5.127 10.857-2.767c3.53 1.54 5.18 5.82 3.7 8.23 0 0 5.62.69 6.43 6.71.81 6.02-.96 13.87-13.45 12.7-11.03-1.04-15.01-5.63-15.01-5.63s-11.5-18.99-1.58-22.18c9.92-3.19 8.27 1.45 9.08 2.96z"/><path fill="#D0D1D2" d="M146.91 62.842S151.562 74.06 142 78.1c0 0 14.172-2.143 4.91-15.258z"/><path fill="#D0D1D2" d="M161.393 67.596s-9.395-.276-11.19 4.487c0 0 2.127-2.564 11.19-4.487zm4.15 10.816s-12.66 9.33-16.717-1.272c0 0 1.08 11.023 12.473 5.75 0 0 5.31-1.495 4.24-4.478z"/><path fill="#E5E5E5" d="M167.703 83.087l-6.327 2.192c-.77.27-1.878-.25-2.44-1.49-2.39.72-4.223.63-5.622.07l.482 1.39c1.198 3.45 4.38 5.65 7.736 5.35.537-.05 1.066-.17 1.576-.34l5.827-2.02-1.232-5.18z"/><path fill="#FFF" d="M128.906 193.883c-3.092-12.73 2.182-19.82 2.182-22.002l-26.366-42.24c-12.955 10-25.418 36.43-28.84 57.36 12.983 15.76 32.647 25.81 54.66 25.81 3.182 0 6.31-.23 9.38-.64-.325-6.48-2.537-13.46-11.016-18.27z"/><path fill="#D0D1D2" d="M133.27 202.065c-2.182-2.546-4-3.455-6.85-5.03-2.736-1.515-1.696-17.153.85-21.154l-20.972-16.91c-3.376 5.28-13.907 25.56-13.035 43.21 10.828 6.72 23.596 10.62 37.28 10.62 1.914 0 3.805-.1 5.683-.24-.067-3.7-.724-7.58-2.956-10.48z"/><ellipse transform="rotate(92.26 141.96 144.71)" fill="#FFF" cx="141.952" cy="144.708" rx="35.318" ry="44.078"/><ellipse transform="rotate(92.26 147.13 141.38)" fill="#D0D1D2" cx="147.13" cy="141.382" rx="28.138" ry="36.887"/><ellipse transform="rotate(92.26 167.06 139.69)" fill="#FFF" cx="167.055" cy="139.681" rx="14.896" ry="15.115"/><ellipse transform="rotate(92.26 131.93 138.62)" fill="#FFF" cx="131.929" cy="138.623" rx="18.532" ry="18.656"/><path fill="#919396" d="M109.63 124.052c.01-.012-5.682 7.707-5.814 10.298l-1.18-2.115s-8.847-13.904 6.994-8.183z"/><path fill="#D0D1D2" d="M113.682 121.854s-8.564-6.15-14.558-2.687c0 0-7.82 6.084 2.225 16.92l2.42 2.91s2.01-1.364 1.74-4.505c0 0-11.58-14.15 5.13-8.976 0 .004 2.73-.083 3.04-3.662z"/><circle fill="#0071BC" cx="129.056" cy="136.545" r="14.078"/><circle fill="#0F4481" cx="126.572" cy="134.111" r="7.231"/><circle fill="#FFF" cx="128.204" cy="133.862" r="3.843"/><circle fill="#FFF" cx="119.4" cy="134.188" r="1.871"/><circle fill="#0071BC" cx="165.349" cy="139.126" r="11.576"/><circle fill="#0F4481" cx="163.307" cy="137.124" r="5.945"/><circle fill="#FFF" cx="164.648" cy="136.919" r="3.161"/><circle fill="#FFF" cx="157.407" cy="137.186" r="1.537"/><path fill="#D0D1D2" d="M112.904 144.304s15.546-11.638 38.366-1.728l-2.364 9-15.637 9.274-15.1-5.273-5.27-10.91m38.82-2s20-5.91 30.09 4.455l-10.55 9-6.55 1.092-9.91-5.91-3.09-8.637z"/><linearGradient id="a" gradientUnits="userSpaceOnUse" x1="131.344" y1="153.449" x2="133.526" y2="124.115"><stop offset="0" stop-color="#FFF" stop-opacity="0"/><stop offset="1" stop-color="#A8170C"/></linearGradient><path fill="url(#a)" d="M112.904 144.304s15.546-11.638 38.366-1.728l-2.364 9-15.637 9.274-15.1-5.273-5.27-10.91"/><linearGradient id="b" gradientUnits="userSpaceOnUse" x1="167.485" y1="150.123" x2="165.485" y2="135.486"><stop offset="0" stop-color="#FFF" stop-opacity="0"/><stop offset="1" stop-color="#A8170C"/></linearGradient><path fill="url(#b)" d="M151.725 142.667s20-5.91 30.093 4.455l-10.546 9-6.546 1.092-9.91-5.91-3.09-8.637z"/><path fill="#BE202E" d="M146.41 151.097s1.674 15.2 6.68 15.51c5.003.313 4.295-15.75 4.295-15.75s-3.322 1.05-4.947-1.575c0 0-1.707 4.047-6.26 2.112"/><path fill="#6D6F71" d="M159.183 144.198c.06-.038.31.212.64.738.327.526.765 1.334.954 2.47.113.807-.003 1.807-.608 2.623-.63.79-1.6 1.26-2.56 1.48-.99.24-2.09.3-3.17-.05-.28-.07-.54-.19-.8-.35-.27-.13-.5-.33-.71-.56-.11-.12-.24-.21-.31-.35l-.12-.21-.01-.02c-.01-.02-.01-.01-.01-.01v-.01l-.45.74-.62.62c-.91.75-2.11.96-3.13.81-1.04-.13-1.96-.57-2.69-1.14-.76-.54-1.32-1.25-1.7-1.98-.55-1.01-.48-1.99-.41-2.59.19-.61.32-.91.39-.89.07.02.07.37.02.92.06.56.1 1.38.64 2.2.35.6.86 1.2 1.53 1.65.65.47 1.45.82 2.31.91.84.1 1.74-.09 2.41-.65l.46-.48.35-.61c.24-.5.37-1.05.56-1.58l.26-.81.13-.39.06-.18.01-.04.01.06.02.13.06.31c.12.67.23 1.35.44 1.99l.14.47.07.14c.04.1.14.16.21.24.14.16.3.3.5.4.18.12.38.22.6.27.85.28 1.79.26 2.65.06.88-.19 1.64-.56 2.11-1.12.45-.57.59-1.32.53-2.02-.23-1.99-1.05-3.2-.86-3.28z"/><path fill="#0B8ECC" d="M152.497 142.407s-1.824-4.045-4.698 2.895l4.29 3.936 3.96-3.333c0-.002-2.27-6.596-3.57-3.498z"/><path fill="#FFF" d="M148.692 145.27l1.848 1.68s-.35-2.374-1.848-1.68zm5.196 1.812l1.378-1.038s-.973-.52-1.378 1.038z"/><path fill="#AFAFAF" d="M108.5 191.22s11.458 4.935 11.03 9.094c-.466 4.51-3.308 8.323-12.544 3.88"/><path fill="#D0D1D2" d="M86.083 193.096c-.693.754-1.492 1.42-2.335 2.004.906.8 1.834 1.576 2.78 2.33l6.192-3.03 3.152-9.243c-4.152-.123-7.14 5.06-9.79 7.94zm-1.363 10.12s11.273 8.456 19.396 10.427l5.092.24-9.213-13.938-15.275 3.272z"/><path fill="#FFF" d="M91.797 157.292l-.864.652c-.57.426-1.393 1.05-2.386 1.846-1.002.794-2.228 1.794-3.583 2.972-1.362 1.175-2.863 2.538-4.44 4.082-3.16 3.075-6.626 6.896-9.74 11.358-1.538 2.235-3.016 4.618-4.224 7.14-1.227 2.508-2.2 5.162-2.702 7.786-.498 2.597-.42 5.25.492 6.982.438.873 1.055 1.475 1.822 1.925.786.43 1.764.682 2.84.757 2.17.138 4.576-.388 6.783-1.14 2.224-.748 4.307-1.73 6.19-2.73 3.768-2.03 6.762-4.12 8.825-5.613 1.033-.75 1.833-1.36 2.375-1.78l.834-.64 4.18 5.5-.91.65c-.59.43-1.45 1.05-2.58 1.82-2.25 1.53-5.51 3.68-9.77 5.83-2.14 1.06-4.53 2.11-7.24 2.95-2.71.81-5.75 1.49-9.24 1.19-1.73-.18-3.6-.65-5.34-1.68-1.73-1.04-3.21-2.68-4.03-4.49-.88-1.81-1.18-3.71-1.24-5.49-.06-1.8.16-3.52.51-5.16.73-3.29 1.96-6.3 3.41-9.08 1.43-2.8 3.12-5.35 4.85-7.72 3.49-4.72 7.26-8.64 10.66-11.78 1.7-1.57 3.3-2.96 4.76-4.14 1.45-1.2 2.73-2.19 3.82-3 1.09-.82 1.93-1.43 2.51-1.83l.88-.63 2.52 3.43z"/><path fill="#FFF" d="M86.447 195.664s-.23 7.13 10.35 7.13c0 0 0 3.452 2.99 8.052 0 0 2.99 2.988 7.59 1.61 0 0 3.066 1.38 5.137-.078 2.07-1.456 4.982-18.017-5.52-24.838-10.503-6.823-19.014 3.523-20.547 8.124z"/><path fill="#D0D1D2" d="M105.844 200.802s2.3 5.826 1.533 11.653c0 0 2.224-7.818 1.38-11.958 0 0-2.3-.386-2.913.305z"/><circle fill="none" stroke="#FFF" stroke-miterlimit="10" cx="82.902" cy="120.059" r="5.212"/><circle fill="#FFF" cx="92.479" cy="99.087" r="3.395"/><circle fill="#FFF" cx="157.573" cy="190.609" r="5.697"/><circle fill="none" stroke="#FFF" stroke-miterlimit="10" cx="128.724" cy="90.481" r="7.637"/><circle fill="none" stroke="#FFF" stroke-miterlimit="10" cx="171.757" cy="107.33" r="3.878"/><path d="M51.85 137.374l1.1-5.66c2.557.5 3.48-1.975 3.79-3.24.207-1.065.26-2.634-1.018-2.882-2.374-.462-3.643 11.417-11.4 9.907-4.504-.88-5.714-5.54-5.134-8.52.498-2.56 1.822-4.98 4.34-5.76l-2.496-.81 1.02-5.24 7.636 1.48-1.07 5.5c-2.252-.44-3.874 1.08-4.288 3.21-.172.88.14 2.2 1.204 2.41 3.134.61 4.75-11.58 11.898-10.19 4.747.92 5.586 5.69 4.88 9.32-.597 3.07-2.44 4.92-4.036 5.81l2.278.79-1.036 5.32-7.67-1.49zm-.698-25.378c-.115-1.44-.235-4.477 1.032-7.032 1.653-3.333 4.983-6.906 9.455-4.688l5.41 2.687.82-1.667 3.55 1.764-2.95 5.943-1.58.047c.9 1.73.41 3.63-.08 4.63-1.31 2.64-4.13 4.77-7.35 3.17-3.14-1.557-3.8-5.173-2.25-8.312.81-1.638 2.1-2.21 2.33-2.267l-.97-.48c-1.25-.62-2.12.37-2.87 1.87-.82 1.64-.84 3.43-.78 4.77l-3.8-.43zm11.606-4.14c-.18.015-1.04.073-1.618 1.24-.55 1.11-.188 1.913.673 2.34.777.386 1.622.01 2.035-.824.414-.833.258-1.775-.035-2.232l-1.055-.524zm9.206-4.83l-3.23-2.46.808-1.06L57.46 90.3l-.79 1.037-3.18-2.423 4.357-5.72L73.11 94.82l1.108-1.455 3.23 2.46-5.484 7.2zm.48-24.06l4.95 5.596c1.767 1.998 2.89 2.66 3.842 1.817.813-.72.826-2.02-.098-3.06l-3.266-3.7-1.533 1.35-2.72-3.07 6.01-5.32 7.54 8.52 1.14-1.01 2.73 3.09-4.39 3.88-1.92-.91c0 1.03.25 2.95-1.72 4.7-3.51 3.1-6.27 2.31-9.68-1.54l-2.83-3.2-.98.86-2.71-3.07 5.62-4.97zm12.502-9.646l-1.422-2.473 4.032-4.43 2.334 4.058 2.553-1.468 2.01 3.493-2.554 1.468 2.75 4.783c.52.92 1.04 2.26 2.09 1.66.35-.2 1.04-.92 1.43-1.43l1.98 3.44c-.62.79-2.34 2.03-2.96 2.38-4.03 2.32-5.43.19-7.49-3.2l-2.75-4.78-1.45.84-2.01-3.49 1.45-.83zm29.402 1.62c-1.51 2.63-3.616 4.124-6.66 5.19-3.63 1.27-8.535.39-10.5-5.23-1.68-4.8.78-8.846 5.2-10.392 3.482-1.22 6.77-.365 8.478 1.796.71.9 1.82 3.042 1.79 4.926l-9.22 3.225c.452.73 1.396 2.205 3.854 1.345.995-.348 2.486-.968 3.606-2.838l3.452 1.98zm-7.418-4.96c-.418-1.1-1.112-2.238-2.985-1.583-1.785.625-1.632 2.378-1.434 3.13l4.42-1.546zm5.238-14.193l7.312-1.2.954 5.813-.356 7.976-4.04.663-2.916-7.44-.954-5.82zm5.83 14.47c2.173-.356 3.888.9 4.174 2.646.28 1.713-.89 3.382-3.124 3.75-1.988.325-3.744-.99-4.004-2.58-.252-1.53.752-3.455 2.955-3.816z" fill="#FFD527"/></svg>