<svg xmlns="http://www.w3.org/2000/svg" width="250" height="250" viewBox="0 0 250 250"><path opacity=".15" d="M217.958 106.958L111.933 44.6l-5.61 21.765c-.804-.205-1.628-.31-2.47-.31-7.257 0-14.29 7.467-21.928 23.385-3.582-4.483-9.446-10.087-16.38-10.087-4.967 0-9.393 2.792-13.16 8.3-1.074 1.08-1.996 2.796-2.104 4.89h-.26c-5.47 0-9.82 1.526-12.58 4.414-2.44 2.555-3.59 6.002-3.4 10.25l.03.537.19.504c.32.893 8.02 21.56 31.75 28.737 1.89 3.176 5.15 7.17 9.73 11.92-3.38 5.904-5.16 12.523-5.16 19.313 0 22.125 18.75 40.127 41.8 40.127 20.13 0 37.02-13.488 40.94-32 1.02.46 1.58.88 1.71.98l1.15 1.184 1.82-.31c2.22-.38 3.41-1.55 4.01-2.48.98-1.48 1.03-3.22.75-4.36l-.28-1.14-.9-.75c-2.05-1.7-4.56-2.9-7.46-3.59-.15-2.46-.52-4.88-1.13-7.27 4.87-3.53 4.7-8.49 3.75-10.92l-.09-.22-.11-.22c-.85-1.53-2.15-2.76-3.86-3.64-1-.55-2.13-.97-3.37-1.26-.89-2.02-2.01-3.97-3.33-5.81l22.24 12.87 49.8-42.5z"/><path fill="#F47F38" d="M215.994 104.013L109.97 41.656l-5.61 21.764c-.805-.205-1.63-.31-2.47-.31-7.258 0-14.29 7.468-21.93 23.386-3.58-4.483-9.445-10.088-16.378-10.088-4.968 0-9.394 2.793-13.162 8.3-1.073 1.08-1.995 2.798-2.103 4.892h-.265c-5.468 0-9.82 1.525-12.585 4.414-2.445 2.554-3.59 6.002-3.406 10.25l.03.536.18.504c.32.894 8.02 21.56 31.75 28.738 1.89 3.176 5.15 7.17 9.73 11.92-3.38 5.904-5.16 12.523-5.16 19.31 0 22.128 18.75 40.13 41.8 40.13 20.13 0 37.02-13.488 40.94-32 1.02.46 1.58.88 1.71.98l1.16 1.184 1.82-.305c2.22-.37 3.4-1.55 4.01-2.47.98-1.48 1.03-3.22.75-4.35l-.28-1.13-.9-.74c-2.06-1.7-4.56-2.89-7.46-3.58-.14-2.45-.52-4.88-1.13-7.26 4.87-3.53 4.7-8.49 3.75-10.91l-.08-.22-.11-.21c-.85-1.53-2.15-2.76-3.86-3.64-.99-.55-2.12-.96-3.37-1.26-.89-2.02-2-3.96-3.32-5.81l22.23 12.88 49.81-42.5z"/><path fill="#FAAF40" d="M97.823 102.87l9.75 14.036-.487-16.578"/><path fill="#FFCC7A" d="M112.21 47.056L97.823 102.87l67.975 39.353 44.157-37.68"/><g fill="#231F20"><path d="M351.648 88.97c2.823 1.568 4.57 2.534 7.71 4.266l.875-.29 1.198-2.63-.26-.81c-3.51-1.937-5.34-2.95-8.71-4.817l1.25-3.43 5.85 3.24.88-.31 1.14-2.67-.27-.8c-2.49-1.38-3.81-2.11-6.15-3.41l.84-2.33c.34-.08.73-.26.84-.69.18-.66-.52-1.15-.77-1.34l-2.94-1.64-.9.35-1.13 3.37c-2.33-1.3-3.73-2.08-6.11-3.42l.63-2.31c.31-.1.66-.28.76-.69.16-.67-.54-1.16-.8-1.35l-2.93-1.65-.92.39-.83 3.31-5.73-3.24-.92.42-.59 2.97.31.66 5.9 3.33-.9 3.61c-3.19-1.8-5.01-2.83-8.41-4.76l-.92.44-.52 3.01.31.65c3.3 1.87 5.07 2.87 8.14 4.59-2.25 1.66-5.53 2.26-9.77 1.79l-.69.7c.19 1.56.27 2.34.43 3.89l.55.56c1.73.2 3.42.16 5.05-.1-1.5 2.03-3.21 3.85-5.08 5.42l-.14.79c.79 1.35 1.18 2.02 1.93 3.35l.98.14c1.05-1.01 2.11-2.52 3.04-3.85.76-1.09 1.7-2.43 2.09-2.6.05-.02.12-.03.18-.04.26-.06.75-.15.9-.63.17-.51-.24-.95-.39-1.11l-1.75-1.87c2.56-.7 4.98-2 7.25-3.89 1.84 1.03 2.91 1.62 4.77 2.67.45 3.26 1.44 6.36 2.9 9.15l-.25-.22-2.79-.33-.68.76c.94 4.25 1.45 7.97 1.47 10.75l.68.62c1.3-.11 1.96-.16 3.3-.25l.59-.63c-.03-2.37-.67-5.78-1.87-9.89 1.22 2.15 2.73 4.11 4.5 5.8l.89-.02c.95-1 1.43-1.5 2.4-2.48l-.01-.89c-3.52-3.43-5.64-6.69-6.32-9.71zm-3.094-6.454c-2.164-1.206-3.487-1.945-5.71-3.19l.98-3.572c2.228 1.25 3.6 2.016 5.896 3.295l-1.166 3.46z"/><path d="M344.357 93.063c-1.08-.185-1.616-.277-2.682-.455l-.602.548.91-3.12c.283-.107.613-.315.7-.722.138-.644-.494-1.107-.702-1.26l-2.53-1.427-.91.385-2.69 10.1-1.42-.802-.93.5c-.09 1.265-.14 1.896-.25 3.156l.32.6 2.45 1.374c.72.39 1.28.305 1.62.162.66-.27 1.13-.956 1.47-2.096L341 93.53c.2 3 .14 6.23-.18 9.62l.52.67c1.253.21 1.885.32 3.16.54l.734-.58c.237-3.79.125-7.22-.336-10.22l-.51-.52zm-8.056 8.324v.003-.003zm46.31 9.297l1.3-.632 3.47 1.86.78-.153 4.64-5.6-.18-.96c-6.78-3.64-13.76-7.41-20.73-11.22l-.84.24-3.51 6.2.25.86 3.26 1.77-.04 1.31c-3.51-1.91-5.53-3.02-9.29-5.08l-.86.27-1.3 2.57.26.83.52.28c9.7 5.3 19.41 10.56 28.88 15.62l.76-.13 2-2.2-.17-.98c-3.72-1.98-5.75-3.07-9.16-4.9zm4.81-4.087l-.64.813c-5.59-3.004-8.6-4.633-14.33-7.756l.52-.88c4.51 2.458 9.25 5.023 14.46 7.823zm-7.59 1.25c-.39.22-.74.423-1.2.684-1.32-.71-2.18-1.17-3.37-1.82l-.52-.28c.06-.47.1-.84.14-1.26 1.88 1.02 3.13 1.7 4.97 2.69zM389.5 93.2l.186-.265c.494.008 1.108-.066 1.288-.603.226-.667-.52-1.158-.924-1.422l-2.91-1.576-.82.2-.96 1.427c-3.88-2.1-6.387-3.46-9.65-5.25l-3.546-1.94-.857.26-1.128 2.15.26.85 3.38 1.86c3.22 1.77 5.68 3.11 9.48 5.16l-.75 1.11c-4.04-2.18-6.21-3.37-10.4-5.65l-.85.25-1.17 2.13.25.85c8.32 4.54 16.54 8.99 24.43 13.22l.77-.14 1.61-1.89-.18-.96c-4.22-2.25-6.43-3.44-10.45-5.61l.77-1.09c5.14 2.78 7.87 4.24 13.17 7.07l.77-.14 1.65-1.86-.17-.97c-5.36-2.86-8.13-4.34-13.28-7.12zm-25.08 12.796l-.848.243-4.6 8.2.247.85 2.31 1.26.84-.23.31-.53c4.79 2.61 7.42 4.04 12.29 6.65l-.02.01.19.94 2.33 1.25.78-.15 5.86-7.01-.19-.96c-6.47-3.47-13.03-7.02-19.52-10.56zm14.205 11.882l-1.32 1.654c-4.94-2.652-7.63-4.11-12.74-6.894l1.06-1.792c5.09 2.777 7.867 4.277 12.998 7.032zm36.885-7.71c-1.765-.93-2.71-1.43-4.355-2.3l-.4-.214-.75.126c-4.707 5.026-7.02 7.467-11.774 12.432l.16.988 2.88 1.52.7-.076c4.65-3.935 9.24-7.784 13.65-11.44l-.1-1.037zM394.8 123.54l-.73.103-3.317 3.21.143 1.006 3.385 1.78.71-.09 3.45-3.14-.13-1.02"/></g><path d="M104.59 85.684c3.954-8.057 6.434-11.85 12.268-18.714l5.53 3.344c-2.313 8.937-3.198 13.61-4.347 23.165-1.59-.93-2.39-1.39-3.99-2.32.24-1.96.38-2.93.67-4.86l-4.03-2.36c-.88 1.59-1.3 2.4-2.1 4.04-1.59-.93-2.39-1.39-3.99-2.32zm12.16-10.34c.042-.242.066-.36.11-.603-.098-.05-.148-.08-.246-.14l-.354.46c-1.636 2.3-2.406 3.48-3.86 5.9l2.92 1.72c.51-2.96.795-4.42 1.43-7.32zm16.06 7.808l4.134 2.475c-3.304 5.587-4.765 8.526-7.24 14.61l-3.837-2.224c.198-.52.3-.78.503-1.296-.087-.016-.286.006-.53.036-.59.072-1.273.16-2.062.05-.395-.056-.77-.17-1.11-.367-1.024-.593-1.577-1.483-1.826-2.342-.242-.834-.205-1.75.04-2.408 1.902-5.124 3-7.614 5.465-12.4l4.132 2.47c-2.48 4.548-3.59 6.91-5.54 11.774-.24.59.19.945.65 1.214.42.247.72.212 1.07.174.15-.016.32-.088.49-.16 2-4.787 3.13-7.125 5.64-11.606zm13.02 17.47c-.882 1.22-2.105 1.726-3.834 1.637-.89-.05-1.954-.43-3.153-1.13l-.35-.21c-.116-.07-.29-.23-.373-.26-.267-.1-.75.11-.865.35-.155.32.16.73.665 1.17.51.45 1.164.96 1.853 1.45 1.155.82 2.384 1.79 3.186 2.91.77 1.08 1.1 2.27.47 3.53-.69 1.39-2 1.87-3.43 1.75-1.47-.13-3.22-.81-4.71-1.69-1.76-1.03-3.2-2.12-4.07-3.15-.9-1.07-1.24-2.14-.8-3.26.2-.53.76-.76 1.48-.82.72-.06 2.44.25 2.44.25.02-.05-1.98-2.17-1.45-3.35.19-.44.73-.67 1.39-.81.65-.13 2.07.01 2.07.01.05-.08-1.04-2.29-.97-3.11.04-.48.12-.95.29-1.37.81-1.58 1.23-2.36 2.09-3.9.9-1.23 2.14-1.75 4-1.65.91.05 2.06.48 3.33 1.24 2.09 1.25 2.97 3.43 3.31 3.69.12.09 1.09.01 1.92.12.78.11 1.64.3 2.3.69-.62.85-.92 1.29-1.52 2.16-1.09-.66-2.44-1.22-2.58-1.13-.04.02-.06.32-.09.39-.03.08-.13.19-.13.29-.01.1-.07.19-.12.27-.99 1.53-1.47 2.3-2.4 3.87zm-9.558 4.277c-.94-.14-1.723-.08-1.966.5-.243.57.276 1.45 2.032 2.46.635.36 1.383.69 2.017.85.63.16 1.154.15 1.315-.2.11-.24.167-.47-.015-.79-.2-.36-.643-.78-1.538-1.44l-1.845-1.41zm7.863-10.35c.293-.48.324-.89.165-1.34-.076-.22-.278-.44-.644-.66-.646-.39-1.174-.24-1.474-.02-.18.13-.366.33-.462.58-.905 1.52-1.344 2.29-2.188 3.86-.308.47-.334.86-.14 1.32.092.21.28.44.594.62.666.39 1.126.24 1.436.02.175-.13.344-.35.474-.58.864-1.55 1.314-2.31 2.24-3.82zm16.45 5.22c1.65.99 2.48 1.48 4.13 2.47-4.075 4.92-5.937 7.51-9.22 12.93l-3.836-2.23c.26-.47.39-.7.67-1.16-.1-.02-.31-.01-.57 0-.64.03-1.37.08-2.2-.06-.42-.07-.8-.19-1.14-.39-1.02-.6-1.52-1.44-1.69-2.23-.17-.77-.04-1.61.29-2.2 2.56-4.58 3.99-6.79 7.08-11.03l4.13 2.47c-3.09 4.02-4.52 6.1-7.11 10.44-.31.52.11.87.57 1.14.42.24.74.23 1.12.21.16-.01.35-.07.54-.12 2.64-4.26 4.08-6.33 7.21-10.28zm13.6 11.61c-.303-.28-.687-.55-1.05-.76-.645-.39-1.473-.78-2.382-.85-1.05-.08-1.504.2-1.82.58-2.815 3.4-4.133 5.16-6.563 8.8l-3.838-2.23c3.38-5.34 5.288-7.9 9.455-12.74l4.127 2.47c-.478.52-.714.79-1.182 1.33.176-.13.795-.35 1.75-.29.936.05 2.206.35 3.72 1.26-.904.95-1.347 1.43-2.216 2.4zm7.787-5.03c1.69 1.02 2.534 1.53 4.224 2.56-.89.79-1.328 1.2-2.192 2.01l-4.17-2.52c.843-.84 1.27-1.25 2.138-2.07zm-14.097 16c3.67-5.1 5.72-7.53 10.166-12.13l4.13 2.47c-4.56 4.5-6.66 6.88-10.45 11.87-1.53-.89-2.3-1.34-3.84-2.22zm21.498-11.51c1.957 1.18 2.935 1.78 4.89 2.97-5.39 3.77-7.9 5.81-12.515 10.13l-2.46-1.45c3.7-4.87 5.726-7.22 10.085-11.66zm-12.536 13.07l4.05 2.36c-.846.95-1.26 1.44-2.073 2.41l-3.99-2.31c.79-1 1.193-1.49 2.013-2.47z"/><ellipse fill="#FAAF40" cx="110.376" cy="165.271" rx="38.276" ry="36.611"/><path fill="#FFF" d="M129.03 169.268s18.825-7.818 28.3 0c0 0 .516 2.11-1.928 2.52 0 0-7.223-6.806-24.993-1.08"/><path fill="#E6E7E8" d="M137.493 166.74l-1.425 2.473s-5.438 1.352-6.29 1.762c-.856.41-.747-4.506-.747-4.506l6.37-.68 2.1.94z"/><path fill="#FFF" d="M97.025 170.713s-6.51.12-8.178 2.81c0 0-1.297 1.833.902.978 0 0-1.51 2.3 1.2 1.41 0 0-1.04 2.23 1.5 1.04l6.69-4.61m16.62 8.04s4.83 7.76 3.37 11.7c0 0-.96.84-1.43-.99 0 0-1.41 3.46-2.46-.12 0 0-1.41 2.68-2.31-.73 0 0-.52-8.99-.62-10.77"/><path fill="#E6E7E8" d="M95.45 171.006s-1.935 2.496 1.32 2.943c3.26.44 1.475-3.37-1.32-2.95zm17.19 12.498s2.57 3.137 4.53-.338c-.002 0-2.993-2.69-4.53.338z"/><ellipse transform="rotate(-69.65 112.65 166.47)" fill="#FFF" cx="112.648" cy="166.472" rx="16.85" ry="18.302"/><path fill="#E6E7E8" d="M124.554 179.895s2.25-4.418 2.514-6.77l1.964 1.447s-.966 2.533-4.478 5.323z"/><path fill="#FFF" d="M97 157.293s-13.972-16.59-15.65-38.063l-15.69 9.747s-.325 6.652 30.134 32.553"/><path fill="#E6E7E8" d="M92.325 150.646s2.28 4.99 2.854 10.36c0 0 2.2-1.614 5.9-.567l-8.77-9.8z"/><path fill="#D0D1D2" d="M105.65 122.248s-6.32-8.666-7.255 3.417l2.107-.385 5.148-3.032z"/><path fill="#919396" d="M102.022 124.006s-2.406-5.538-2.77 1.007c-.362 6.546 2.77-1.007 2.77-1.007z"/><path fill="#FFF" d="M143.85 159.852c-6.156 11.314-22.595 14.268-36.722 6.586-14.127-7.68-20.59-23.082-14.435-34.4 6.153-11.32 22.595-14.27 36.722-6.588 14.125 7.68 20.588 23.08 14.435 34.402z"/><path fill="#D0D1D2" d="M100.623 156.207s-2.87 12.834 5.318 3.52l-5.31-3.52z"/><ellipse transform="rotate(-61.47 114.3 144.43)" fill="#D0D1D2" cx="114.299" cy="144.421" rx="18.585" ry="24.365"/><path fill="#D0D1D2" d="M142.275 142.67s6.938-.592 9.166 3.398c0 0 2.39 6.096-6.98 8.848l-2.36.83s-.68-1.453.54-3.145c0 0 11.36-4.1.13-6.82 0 0-1.52-.97-.48-3.1z"/><path fill="#BE202E" d="M102.022 153.332s-4.544 16.984 5.072 3.316c0 0-1.092-2.057-1.49-3.56 0 .004-2.852.635-3.582.244z"/><ellipse transform="rotate(-61.47 103.47 136.9)" fill="#FFF" cx="103.475" cy="136.894" rx="9.837" ry="9.982"/><ellipse transform="rotate(-61.47 123.77 148.18)" fill="#FFF" cx="123.769" cy="148.174" rx="12.241" ry="12.321"/><path fill="#919396" d="M143.592 145.16c0-.012.617 6.293-.182 7.81l1.382-.802c0-.002 9.722-4.898-1.2-7.008z"/><path fill="#D0D1D2" d="M142.037 142.54s6.94-.59 9.167 3.4c0 0 2.38 6.097-6.98 8.85l-2.364.83s-.68-1.454.54-3.146c0 0 11.353-4.11.122-6.828 0 0-1.524-.97-.485-3.105z"/><path fill="#6D6F71" d="M106.416 151.207l-1.393 2.227.366.156 1.34-2.246"/><path fill="#6D6F71" d="M100.624 149.154s-.292 5.188 4.652 3.875l.113.56s-6.34 1.17-5.17-4.61l.4.17z"/><path fill="#6D6F71" d="M105.604 153.092s2.108 7.07 7.064 3.314l.255.21s-4.372 4.6-7.9-3.183l.58-.34z"/><path fill="#6D6F71" d="M112.023 155.855s2.547-.102 1.015 1.742c0 0 2.228-2.087-1.015-1.742z"/><path fill="#D0D1D2" d="M104.517 162.752s-5.493 4.25-8.084 10.514c0 0 1.717 4.662 6.912 7.334 0 0 4.38 2.996 9.756 2.896 0 0 2.74-9.893 1.21-17.61 0 0-4.81-.366-9.79-3.134z"/><path fill="#FFF" d="M137.484 177.453s.334 1.262-.317 1.832c0 0-.447.365 0 .895 0 0 .604.53.405-.73 0 0 1.102-.244.775 1.1 0 0 .814.162.692-.652 0 0 .4.408.53-.324 0 0-.44-1.285-1.1-2.432-.66-1.15-1 .31-1 .31z"/><path fill="#E6E7E8" d="M90.068 174.313s.75-.69 2.257-.98c0 0-1.998.272-3.462 1.34 0-.003.954-.17 1.205-.36zm.77 1.6s2.156-1.237 2.34-1.48c0 0-1.382 1.16-1.993 1.364l-.347.117zm26.884 15.167s.123-2.002-.427-3.527c0 0 .84 1.705.582 4.02l-.155-.493zm-2.455-.123s.685-1.432-.15-3.69c0 0 .542 2.415-.086 4.06 0 0 .19-.233.24-.37z"/><path fill="#FFF" d="M124.554 174.426l2.514.053s7.006-.33 11.402 4.48c0 0 2.428-2.58-8.234-9.07m-19.19-94.68c-.12-.42-.25-.86-.398-1.3-4.1-7.93-13.844-17.46-30.058 19.67 0 0-14.75-25.72-27.48-6.57 0 0-2.922 2.33 0 6.56 0 0-18.16-3.85-17.532 10.52 0 0 9.023 25.05 38.53 28.42l4.672-6.87s11.637-32.05 31.466-42.77c.81-1.89 1.24-4.39.8-7.68z"/><path fill="#0B8ECC" d="M108.24 147.918s2.4-1.676 1.687 3.23l-3.767.78-1.12-3.23s3.516-2.97 3.2-.78z"/><path fill="#FFF" d="M109.432 150.83l-1.62.33s1.005-1.23 1.62-.33zm-3.564-.728l-.428-1.055s.726.033.428 1.055z"/><path fill="#E6E7E8" d="M63.69 116.742l3.172 2.743 5.346-2.966s-1.646-2.75-.355-8.54l-3.302-1.2-4.86 9.94z"/><path fill="#D0D1D2" d="M81.33 95.326s-1.3 15.842-12.987 13.342c0 0-3.165 20.358-16.07 11.488 0 0-8.975-5.76-8.975-9.248l9.392.56-7.722.897s18.327 20.518 21.895-5.57c0 0 .438-9.1-13.754-13.21 0 0 13.35.062 15.44 13.21 0 0 6.81 3.73 12.78-11.47z"/><path fill="#D0D1D2" d="M74.24 107.003s-5.37 5.59 0 14.17c0 0-5.346-4.896-2.387-13.184l2.387-.99zm-9.745 11.727l5.52 3.723-5.52-5.934m-11.805-5.06s-6.47-6.56-13.15-5.72c0 0 12.095 3.94 9.61 6.13l3.54-.41z"/><path fill="none" stroke="#BBBDBF" stroke-linecap="round" stroke-linejoin="round" stroke-miterlimit="10" d="M108.58 77.674c0-3.93-3.746-7.118-8.367-7.118-3.697 0-6.694 2.55-6.694 5.695 0 2.52 2.39 4.56 5.35 4.56 2.36 0 4.28-1.63 4.28-3.64 0-1.61-1.54-2.91-3.43-2.91-1.52 0-2.74 1.05-2.74 2.33 0 1.03.98 1.87 2.19 1.87.97 0 1.75-.66 1.75-1.49 0-.66-.63-1.19-1.41-1.19-.62 0-1.13.43-1.13.96 0 .43.4.77.9.77.39 0 .71-.27.71-.61"/><path fill="#E6E7E8" d="M86.865 81.228s-1.983 8.39 6.027 10.77c8.01 2.378-7.428-2.68-6.027-10.77z"/><circle fill="#0071BC" cx="104.431" cy="137.526" r="8.089"/><path fill="#0F4481" d="M103.196 140.684c-1.724-1.516-1.89-4.14-.376-5.86 1.515-1.722 4.14-1.892 5.863-.376 1.72 1.516 1.89 4.14.374 5.86-1.514 1.725-4.14 1.893-5.86.376z"/><path fill="#FFF" d="M105.42 139.094c-.916-.805-1.004-2.2-.2-3.113.805-.91 2.2-1 3.118-.2.914.81 1.002 2.21.196 3.12-.805.92-2.198 1-3.114.2z"/><circle fill="#FFF" cx="101.818" cy="137.552" r="1.075"/><circle fill="#0071BC" cx="125.643" cy="148.049" r="9.471"/><path fill="#0F4481" d="M122.22 150.455c-1.26-2.375-.355-5.318 2.017-6.576 2.373-1.26 5.318-.36 6.578 2.02 1.258 2.37.354 5.31-2.02 6.57-2.373 1.26-5.317.35-6.575-2.02z"/><path fill="#FFF" d="M125.314 149.635c-.667-1.264-.187-2.826 1.073-3.494s2.827-.19 3.497 1.07c.667 1.27.187 2.83-1.077 3.5-1.26.67-2.823.19-3.493-1.07z"/><circle fill="#FFF" cx="122.009" cy="146.452" r="1.259"/></svg>