<svg xmlns="http://www.w3.org/2000/svg" width="250" height="250" viewBox="0 0 250 250"><path d="M219.752 139.21c0-20.27-6.45-39.436-18.675-55.536V73.92h-8.534c-17.357-17.25-40.29-26.726-64.808-26.726-24.517 0-47.45 9.475-64.807 26.727h-5.924v6.47C43.266 96.9 35.72 117.72 35.72 139.21c0 13.136 2.71 25.802 8.058 37.685-3.553 10.695-4.978 20.51-4.02 27.797.24 1.825.594 3.658 1.08 5.605l.894 3.565h2.595v.074h29.708c15.71 11.316 34.245 17.29 53.7 17.29 19.458 0 37.992-5.974 53.702-17.29h31.29V193.56h-10.764c11.65-15.852 17.79-34.574 17.79-54.35z" opacity=".15"/><path fill="#FFD69F" d="M216.28 134.268c0-20.27-6.45-39.437-18.675-55.537v-9.75h-8.534c-17.35-17.25-40.29-26.72-64.8-26.72s-47.45 9.48-64.81 26.73h-5.92v6.47c-13.74 16.5-21.29 37.32-21.29 58.81 0 13.14 2.71 25.81 8.06 37.69-3.55 10.7-4.98 20.51-4.02 27.8.24 1.83.6 3.66 1.08 5.61l.9 3.57h2.59v.07h29.71c15.71 11.32 34.25 17.29 53.7 17.29s38-5.97 53.71-17.29h31.29v-20.38H198.5c11.65-15.85 17.79-34.57 17.79-54.35z"/><circle fill="#FAAF40" cx="124.264" cy="134.268" r="87.308"/><path fill="#3FBCFF" d="M72.002 87.958h105.52v107.195H72.002z"/><path fill="#2CACE5" d="M178.907 94.692L70.957 92.41V80.877h107.56"/><circle fill="#FFF692" cx="151.449" cy="160.219" r="15.334"/><path fill="#4CD812" d="M114.117 173.936s22.59-11.914 60.702-6.396c0 0 11.98 9.34 14.89 19.122 2.91 9.78-3.61 14.69-3.61 14.69l-58.28-2.962-13.72-24.454z"/><path fill="#4CE813" d="M60.414 178.136s39.706-43.03 124.108 25.155l-44.627-3.11-75.74 2.08-3.74-24.11z"/><path fill="#F2E3CB" d="M62.01 78.025V198.12l126.09-.002V78.025H62.01zM174.75 194.01H75.36v-49.122h99.39v49.122zm0-56.132H75.36v-48.21h99.39v48.21z"/><path fill="#D6C4AB" d="M63.43 79.167h125.405v6.393H63.43z"/><path fill="#D6C4AB" d="M65.83 83.733h5.48v111.19h-5.48zm114.098 0h5.48v111.19h-5.48z"/><path fill="#F2E3CB" d="M192.896 193.326V73.686H58.243V193.33h-12.68v10.957h158.983V193.33h-11.65zM66.466 81.68h118.208v111.647H66.464V81.68z"/><path d="M143.1 86.396s3.432-.638 4.414 1.52c.98 2.158-1.104 5.444-1.104 5.444l-3.2 1.104-.11-8.068z" opacity=".15"/><path fill="#FFF" d="M41.936 204.21H92.67c-1.192-4.77-3.96-9.24-8.306-11.99-2.5-10.302 1.766-16.04 1.766-17.806l-21.336-34.187c-13.342 10.3-26.045 42.132-23.838 58.907.234 1.787.576 3.466.98 5.077z"/><path fill="#D0D1D2" d="M90.35 204.21c-.46-1.995-1.255-3.857-2.455-5.37-1.766-2.06-3.237-2.796-5.543-4.07-2.215-1.225-1.373-13.88.687-17.118l-16.98-13.685c-3.08 4.81-13.51 25.01-9.82 40.244h34.11z"/><path fill="#FFF" d="M61.53 167.24l-.243.85-.172.844-.2 1.3c-.112.995-.245 2.217-.26 3.637-.034 1.42.002 3.03.188 4.75.166 1.73.475 3.58 1.01 5.46.53 1.87 1.242 3.78 2.286 5.53 1.04 1.74 2.38 3.31 4.01 4.52 1.63 1.2 3.52 2.1 5.6 2.54.5.15 1.06.17 1.58.27l.79.13c.27.02.54.02.82.04l1.63.07c.55-.03 1.1-.06 1.65-.1 2.19-.12 4.38-.55 6.49-1.07 1.05-.2 2.08-.59 3.08-.88.5-.16 1-.3 1.49-.46l1.44-.54c.95-.37 1.88-.67 2.76-1.06l2.54-1.12c.82-.35 1.59-.71 2.32-1.09l2.07-1.04c1.31-.62 2.41-1.27 3.34-1.77l2.88-1.6 3.36 6.04-3.09 1.58c-.99.5-2.17 1.13-3.58 1.75-.71.32-1.45.67-2.24 1.03-.78.37-1.62.73-2.52 1.07l-2.76 1.1c-.96.39-1.99.69-3.03 1.06l-1.59.54c-.54.17-1.11.31-1.67.46-1.14.28-2.26.66-3.48.87-2.39.51-4.92.91-7.56.98l-1.99.05-2.03-.15c-.34-.03-.68-.05-1.02-.09l-1.03-.19c-.68-.14-1.37-.21-2.04-.42-2.72-.68-5.34-2-7.54-3.75s-3.93-3.95-5.17-6.21c-1.26-2.27-2.03-4.61-2.58-6.82-.55-2.22-.83-4.34-.95-6.29-.14-1.95-.12-3.74-.03-5.32.07-1.58.26-2.96.43-4.1.11-.57.2-1.09.29-1.53l.31-1.23c.17-.55.27-.84.27-.84l4.06 1.25zm49.808-24.637s-.01.046-.036.136c-.01.05-.093.32-.048.24.013-.04.017.02.025-.09 0-.06-.04-.39-.3-.71-.28-.31-.52-.36-.48-.36.02-.01.24-.01.52-.06.56-.1 1.4-.36 2.29-.77 1.8-.81 3.91-2.13 5.96-3.81 2.05-1.68 4.07-3.7 5.81-5.93 1.75-2.22 3.22-4.62 4.3-6.97 1.09-2.35 1.8-4.65 2.21-6.65.42-2 .55-3.68.59-4.86.02-.59.03-1.06.02-1.37v-.49l8.13.09-.04.62c-.02.4-.06.99-.14 1.74-.16 1.49-.46 3.62-1.16 6.1-.68 2.47-1.75 5.26-3.27 8.04-1.5 2.78-3.44 5.52-5.66 7.98-2.21 2.47-4.69 4.66-7.21 6.46-2.52 1.8-5.08 3.21-7.54 4.13-1.24.45-2.44.79-3.73.92-.65.05-1.32.07-2.09-.08-.75-.15-1.71-.52-2.42-1.35-.72-.82-.92-1.77-.94-2.34-.04-.63.04-1.01.12-1.4.1-.44.12-.43.15-.56.03-.09.04-.14.04-.14l4.8 1.42z"/><path fill="#D0D1D2" d="M125.857 130.263c-.248.34-.49.68-.75 1.012-1.742 2.22-3.76 4.25-5.817 5.923-2.05 1.678-4.162 3-5.965 3.81-.892.402-1.727.67-2.294.764-.27.05-.49.053-.52.057-.04 0 .2.05.47.36.11.13.18.25.22.37l-4.66-1.38-.04.13c-.03.13-.05.11-.15.55-.08.39-.16.77-.12 1.4.02.57.22 1.52.94 2.34.72.82 1.68 1.19 2.42 1.34.78.15 1.44.13 2.09.07 1.29-.13 2.49-.47 3.73-.93 2.46-.92 5.02-2.33 7.54-4.13 2.05-1.46 4.06-3.19 5.93-5.11-1.6-1.93-2.5-4.3-2.99-6.61zm-14.603 12.716c-.03.05-.003-.05.02-.14l.005.05c-.01.1-.02.04-.03.08zm20.49-29.05s.1 5.15 7.357 4.85c0 0 1.18-3.31 1.11-5.4" opacity=".3"/><path fill="#FFF" d="M147.686 99.614c-12.845 9.596-4.513-3.138-2.158-7.652 2.747-5.297-1.962-8.436-6.082-4.12-2.942 3.138-4.61 10.104-5.788 14.027 0 0-8.353-10.65-12.065-5.89-1.57 2.01-1.57 5 1.374 5.79 3.814 1.04 5.482 1.62 6.36 5.26-1.553 4.55.292 6.57 2.96 8.14 2.235 1.32 4.92 2.77 7.944.91.83-.55 1.35-1.35 1.75-2.19l.02.03.12-.31c.4-.88.95-2.51.95-2.51.99-2.34 2.1-3.47 5.62-4.06 2.95-.59 7.66-.4 9.03-3.93 1.96-5.69-6.08-6.46-10-3.53z"/><path fill="#D0D1D2" d="M125 138.323s12.725-3.29 4.216 8.875l-1.696-2-2.52-6.875z"/><ellipse transform="rotate(92.3 94.9 152.4)" fill="#FFF" cx="94.921" cy="152.424" rx="28.581" ry="35.67"/><ellipse transform="rotate(92.3 99.3 152.2)" fill="#D0D1D2" cx="99.258" cy="152.235" rx="22.771" ry="29.851"/><ellipse transform="rotate(92.3 115.4 150.9)" fill="#FFF" cx="115.382" cy="150.859" rx="12.055" ry="12.231"/><ellipse transform="rotate(92.3 87 150)" fill="#FFF" cx="86.957" cy="150.002" rx="14.997" ry="15.097"/><path fill="#919396" d="M68.765 135.707c.007-.01-4.6 6.238-4.706 8.335l-.96-1.71s-7.16-11.253 5.66-6.625z"/><path fill="#D0D1D2" d="M72.043 133.93s-6.93-4.975-11.78-2.175c0 0-6.33 4.925 1.8 13.69l1.962 2.357s1.628-1.104 1.41-3.644c0 0-9.374-11.45 4.15-7.264 0 .002 2.212-.067 2.458-2.964z"/><circle fill="#0071BC" cx="84.632" cy="148.32" r="11.394"/><path fill="#0F4481" d="M81.748 140.563c3.195-.483 6.177 1.717 6.66 4.913.483 3.195-1.716 6.176-4.912 6.658-3.197.485-6.178-1.715-6.662-4.91-.48-3.196 1.718-6.178 4.914-6.66z"/><circle fill="#FFF" cx="83.943" cy="146.149" r="3.11"/><circle fill="#FFF" cx="76.818" cy="146.412" r="1.514"/><circle fill="#0071BC" cx="114.001" cy="150.41" r="9.367"/><circle fill="#0F4481" cx="112.349" cy="148.787" r="4.811"/><path fill="#FFF" d="M113.052 146.095c1.397-.212 2.7.75 2.912 2.146.21 1.4-.75 2.71-2.147 2.92-1.397.21-2.7-.75-2.91-2.14-.213-1.4.75-2.7 2.145-2.91z"/><circle fill="#FFF" cx="107.575" cy="148.84" r="1.244"/><path fill="#FCFCD4" d="M144.768 202.673v-30.54h-.005c.024-.112.054-.226.054-.343 0-2.764-6.94-5.003-15.5-5.003-8.56 0-15.597 2.24-15.597 5.003v31.538h.152c.548 2.603 7.243 4.66 15.445 4.66 8.203 0 14.897-2.058 15.446-4.66h.005v-.03c.02-.104.05-.207.05-.313s-.03-.207-.05-.312z"/><path fill="#D0D1D2" d="M128.213 186.038c1.03-2.67-.44-4.143-.44-4.143l-4.047.343c-2.17-8.02-7.688-9.075-7.688-9.075l-2.538 3.465v26.627c.42 1.995 4.606 3.664 10.157 4.338 8.384-6.215 6.01-20.193 6.01-20.193s-1.646-.863-1.454-1.362z"/><path fill="#FFF" d="M126.546 185.556c1.296-.812 2.04-2.005 1.128-3.833-1.766-3.826-7.167 2.348-11.858.504 0 0-1.03-.552-1.09-1.68-.03-.493.398-1.068.398-1.068 1.093-1.43 3.997-.57 4.016-3.06.024-3.51-3.307-3.68-5.297-2.65-4.543 2.34-6.704 8.35-7.61 12.75h-.017c-.004.03-.004.07-.006.11l-.02.08.015-.01c-.722 9.56 8.186 9.36 15.683 8.1 5.835-.99 11.633-8.64 4.658-9.27z"/><ellipse fill="#844C26" cx="129.329" cy="171.606" rx="12.36" ry="2.453"/><path fill="#D0D1D2" d="M121.836 181.918s1.52 1.472 1.57 4.12c.048 2.648 1.03 7.408-1.52 8.78-2.552 1.373-9.063.453-9.063.453s7.394-13.99 9.013-13.54"/><path fill="#FCFCD4" d="M121.836 199.38c0 1.682-1.36 3.042-3.042 3.042-1.678 0-3.04-1.36-3.04-3.04v-17.464c0-1.678 1.36-3.04 3.04-3.04s3.042 1.362 3.042 3.04v17.463z"/><path fill="#D0D1D2" d="M119.287 175.297s7.847 2.404 18.54.492c0 0-5.297 4.16-16.185 2.94m12.015-76.86s1.963 2.3 3.556 8.16c0 0-.956-4.98-.563-5.13 0 0-.982-1.96-2.993-3.04M96.6 172.67c.148 3.237 1.62 8.682 4.563 10.448 7.063 4.27 7.063-9.12 7.063-12.65"/><path fill="#6D6F71" d="M108.224 170.466c.096 0 .196.884.217 2.277-.03 1.72-.13 3.686-.52 5.797-.21 1.05-.48 2.148-.99 3.212-.25.53-.56 1.058-1.01 1.51-.43.45-1.02.817-1.67.937-1.37.23-2.57-.38-3.55-1.04-1-.71-1.68-1.69-2.21-2.64-1.04-1.94-1.56-3.9-1.85-5.62-.19-1.36-.1-2.24-.02-2.25.11-.01.2.85.5 2.16.32 1.67.87 3.57 1.89 5.41.52.9 1.17 1.8 2.06 2.42.89.6 2.01 1.12 3.08.92 1.05-.2 1.8-1.13 2.25-2.1.48-.98.75-2.05.97-3.06.41-2.05.54-4 .62-5.7.1-1.38.17-2.27.27-2.27z"/><path fill="#BE202E" d="M98.146 166.787s.957 14.788 4.782 15.01c3.826.22 3.605-15.23 3.605-15.23s-3.017-.073-3.237-1.177c0 0-1.84 3.09-5.327 1.625"/><path fill="#6D6F71" d="M107.98 161.17c.042-.03.246.147.524.534.273.386.645.98.842 1.84.125.608.083 1.38-.34 2.03-.438.636-1.16 1.036-1.883 1.25-.736.232-1.575.326-2.417.112-.214-.04-.42-.117-.62-.23-.21-.084-.397-.222-.567-.39-.09-.083-.19-.15-.25-.25l-.1-.152-.01-.012-.01-.012-.31.59-.44.502c-.66.62-1.57.837-2.35.77-.8-.05-1.52-.342-2.1-.737-.6-.377-1.07-.887-1.39-1.425-.46-.743-.46-1.495-.44-1.96.11-.47.2-.707.26-.693.05.016.07.278.06.706.07.423.14 1.046.59 1.646.3.44.71.87 1.25 1.18.52.33 1.15.56 1.8.59.65.03 1.32-.15 1.81-.61l.33-.39.24-.48c.16-.39.23-.82.35-1.23l.16-.63.08-.31.03-.14.01-.03.01.04.02.09.06.24c.12.51.24 1.02.43 1.5l.13.35.06.11c.04.07.12.11.17.17.11.11.24.22.4.28.14.08.3.15.47.18.66.17 1.38.11 2.02-.08.66-.18 1.22-.5 1.56-.95.32-.46.39-1.04.31-1.57-.26-1.52-.94-2.4-.8-2.47z"/><path fill="#0B8ECC" d="M103.455 159.465s-1.476-3.272-3.803 2.343l3.477 3.185 3.2-2.697s-1.84-5.338-2.88-2.83z"/><path fill="#FFF" d="M100.376 161.782l1.494 1.358s-.283-1.92-1.494-1.358zm4.204 1.468l1.114-.843s-.786-.418-1.114.842zm11.885-39.577s-.4-3.557-1.198-4.36c-.805-.807-4.394-1.23-4.394-1.23s3.62-.448 4.43-1.27c.784-.796 1.16-4.322 1.16-4.322s.38 3.53 1.165 4.33c.807.82 4.428 1.27 4.428 1.27s-3.494.36-4.288 1.13c-.83.81-1.303 4.47-1.303 4.47zm25.75 11.625s-.4-3.557-1.196-4.36c-.81-.81-4.4-1.23-4.4-1.23s3.62-.45 4.43-1.27c.78-.798 1.16-4.323 1.16-4.323s.38 3.525 1.16 4.323c.8.82 4.42 1.27 4.42 1.27s-3.5.353-4.29 1.126c-.84.81-1.31 4.464-1.31 4.464zm-7.228 20.32s-.228-2.063-.688-2.527c-.47-.46-2.55-.71-2.55-.71s2.1-.26 2.57-.74c.45-.46.68-2.51.68-2.51s.21 2.05.67 2.51c.47.48 2.57.73 2.57.73s-2.03.21-2.5.66c-.49.47-.77 2.59-.77 2.59z"/><path d="M105.598 56.995c-3.07 0-5.297 2.335-5.297 5.552 0 .072.01.145.01.217l.07 1.29c0 .963 0 1.912-.01 2.848-.46-1.227-.93-2.41-1.43-3.547-.88-2.025-2.43-5.577-5.38-6.428-.54-.262-1.13-.39-1.72-.39-.84 0-1.69.268-2.39.794-1.31.98-2.26 2.21-2.84 3.61-2.36-3.12-5.79-4.8-9.98-4.8-1.01 0-2.51.3-4.02 1.64-.34-.42-.74-.77-1.19-1.05-.89-.57-1.97-.86-3.21-.86-2.03 0-3.26.87-3.92 1.6-.61.66-1.33 1.83-1.33 3.62 0 .04.02.74.02.74-.15-.61-.37-1.21-.67-1.79-1.43-2.84-3.75-3.15-4.67-3.15-.62 0-1.85.15-3.01 1.09-.41-.75-.89-1.46-1.46-2.11-1.5-1.71-4.24-3.76-8.81-3.76-1.42 0-2.71.48-3.74 1.38-1.99 1.76-2.22 4.59-2.22 6.56v.38l.36 21.09-.25 12.83c0 .54.18 5.3 6.44 5.3h.2c1.89 0 3.66-.43 5.27-1.27 1.53-.8 2.8-1.83 3.78-3.05.19-.24.37-.49.56-.75.22.45.45.9.71 1.34 1.54 2.65 4.11 4.1 7.24 4.1h.07c4.04 0 6.57-2.62 8.16-6.6.18.45.36.89.57 1.34 2.28 4.74 5.99 5.45 8.01 5.45 2.51 0 5.25-.83 7.37-3.65 1.54 2.52 4.21 2.63 4.62 2.63 1.5 0 2.91-.6 3.98-1.69 1.32-1.36 1.6-2.79 1.6-3.75 0-.8-.17-1.6-.53-2.39V88.5c.86 2.652 1.09 3.71 1.15 4.093-.04.63.07 1.26.31 1.84.03.093.06.213.09.356.26 1.1.66 1.99 1.24 2.71.95 1.2 2.4 1.88 3.98 1.88.8 0 1.74-.18 3.14-.61.92-.28 1.7-.87 2.22-1.68.77-1.22 1.45-3.07 1.96-13.52.33-6.84.52-12.4.55-16.56v-3.95c0-1.28-.32-2.45-.94-3.49-.98-1.62-2.63-2.55-4.53-2.55zM215.44 75.27v-.382c0-3.893-.532-7.278-1.58-10.055-2.103-5.61-6.396-8.702-12.09-8.702-1.043 0-2.615.31-4.174 1.76-.228.22-.438.46-.64.72-.98-1.03-2.314-1.61-3.81-1.61-3.07 0-5.3 2.34-5.3 5.55 0 .08.003.15.007.22l.07 1.29c0 .96-.004 1.91-.01 2.85-.46-1.22-.937-2.41-1.43-3.54-.882-2.02-2.427-5.58-5.38-6.43-.548-.26-1.137-.39-1.724-.39-.85 0-1.69.27-2.4.8-1.06.79-1.87 1.74-2.46 2.8-.43-.52-.91-.99-1.47-1.42-1.95-1.49-4.31-2.25-7.02-2.25-2.2 0-4.4 1.19-5.3 3.77-2.33-2.67-5.55-4.1-9.41-4.1-1.05 0-2.62.31-4.18 1.76l-.06.06c-.94-.74-2.3-1.26-4.24-1.26h-6.21c-6.39 0-6.57 4.67-6.57 5.2 0 2.56 1.37 3.87 2.18 4.42.55.38 1.18.65 1.86.81.01.54.02 1.09.02 1.63l-.28 11.6v.23l.02.68c-1.12-1.58-2.79-2.49-4.6-2.49-.68 0-1.32.03-1.9.1-1.95.22-3.36.7-4.38 1.31v-.64l.02-3.3c-.02-1.57 0-3.16.07-4.78.03-1.03.1-1.94.21-2.72.01-.05.01-.1.02-.15.1-.9.25-2.11.47-3.6.16-1.13.55-2.38 1.15-3.67l.32.06c.22.04.44.06.67.06 1.29 0 2.5-.42 3.48-1.22 1.22-.99 1.89-2.41 1.89-4 0-2.71-1.97-5.46-6.43-5.49-2.5 0-4.75.79-6.64 2.29-.95.73-1.78 1.65-2.45 2.7-.57.87-1.06 1.79-1.45 2.72-.39.91-.73 1.95-1.01 3.09-.26 1.07-.51 2.36-.75 3.94-.25 1.67-.37 4.23-.37 7.85l.03 3.82c0 2.01.04 3.76.13 5.21.08 1.18.18 2.26.3 3.14.12.94.32 2.16.63 3.7.38 1.87 1.14 3.8 2.25 5.72 1.31 2.3 3.22 3.96 5.63 4.91 1.23.5 2.49.75 3.76.75 1.25 0 2.49-.24 3.71-.72.69.28 1.46.42 2.28.42 1.48 0 3.02-.63 4.05-1.95.73.28 1.58.45 2.57.45.2 0 .4-.01.63-.03.55.05 1.43.08 3.04.08h2.29c1.46 0 2.81-.52 3.89-1.5l.21-.21c2.18 2.63 4.89 3.09 6.51 3.09 2.5 0 5.24-.83 7.35-3.64.17.38.38.73.66 1.04l.69.77c.76.84 1.84 1.32 2.97 1.32h1.45c1.01 0 1.96-.38 2.68-1.03 1.02.97 2.21 1.46 3.57 1.46 1.3 0 2.51-.48 3.45-1.34.94.37 1.76.4 1.97.4 1.5 0 2.91-.6 3.98-1.69 1.32-1.36 1.6-2.79 1.6-3.75 0-.8-.18-1.6-.54-2.4V88.5c.86 2.66 1.09 3.72 1.15 4.1-.04.63.06 1.26.31 1.833.03.1.06.22.09.37.26 1.104.66 1.99 1.23 2.71.95 1.194 2.4 1.88 3.97 1.88.8 0 1.73-.18 3.13-.605.91-.28 1.7-.876 2.21-1.685.26-.416.51-.917.75-1.8 2.29 4.24 5.79 4.91 7.72 4.91 4.99 0 10.94-3.3 10.94-19.06l-.1-5.84z" opacity=".15"/><path fill="#FFF" d="M104.716 55.95c-3.07 0-5.297 2.336-5.297 5.553v.217l.07 1.29c0 .963-.01 1.912-.01 2.848-.46-1.227-.94-2.41-1.43-3.547-.88-2.02-2.43-5.57-5.38-6.42-.55-.26-1.14-.39-1.73-.39-.85 0-1.69.27-2.4.8-1.32.98-2.26 2.2-2.84 3.61-2.36-3.12-5.79-4.8-9.98-4.8-1.01 0-2.52.3-4.03 1.64-.35-.42-.75-.77-1.19-1.05-.89-.57-1.98-.86-3.22-.86-2.03 0-3.26.88-3.93 1.6-.61.67-1.34 1.83-1.34 3.63 0 .04.02.74.02.74-.16-.62-.38-1.22-.67-1.8-1.44-2.84-3.75-3.14-4.68-3.14-.63 0-1.85.15-3.01 1.09-.41-.75-.9-1.46-1.47-2.11-1.5-1.72-4.24-3.76-8.82-3.76-1.43 0-2.72.48-3.74 1.38-1.99 1.76-2.22 4.59-2.22 6.57v.37l.35 21.1-.26 12.83c0 .54.18 5.3 6.44 5.3h.2c1.88 0 3.65-.43 5.26-1.27 1.53-.8 2.8-1.83 3.78-3.05.19-.23.37-.49.55-.75.22.45.45.9.71 1.34 1.54 2.64 4.11 4.1 7.23 4.1h.06c4.03 0 6.57-2.62 8.16-6.6.18.44.36.89.57 1.33 2.27 4.74 5.99 5.45 8 5.45 2.51 0 5.25-.83 7.37-3.65 1.54 2.52 4.21 2.63 4.62 2.63 1.5 0 2.91-.6 3.97-1.69 1.32-1.36 1.6-2.79 1.6-3.75 0-.8-.18-1.6-.54-2.39V87.5c.85 2.655 1.08 3.714 1.14 4.1-.04.63.06 1.26.31 1.84.03.09.06.21.09.354.26 1.106.66 1.99 1.23 2.71.95 1.2 2.4 1.887 3.98 1.887.79 0 1.73-.18 3.13-.6.92-.27 1.7-.87 2.21-1.68.77-1.21 1.45-3.07 1.96-13.52.33-6.84.51-12.4.55-16.56v-4c0-1.28-.32-2.45-.95-3.49-.98-1.62-2.63-2.54-4.54-2.54zm109.842 18.274v-.38c0-3.894-.53-7.28-1.578-10.056-2.104-5.61-6.397-8.702-12.09-8.702-1.044 0-2.616.306-4.175 1.76-.228.21-.438.453-.64.716-.98-1.03-2.314-1.61-3.81-1.61-3.07 0-5.3 2.334-5.3 5.55 0 .073.003.146.007.218l.07 1.29c0 .962-.004 1.91-.01 2.847-.46-1.226-.937-2.41-1.43-3.544-.882-2.025-2.427-5.58-5.38-6.43-.548-.26-1.137-.39-1.724-.39-.847 0-1.688.27-2.394.796-1.055.78-1.87 1.73-2.457 2.79-.423-.52-.912-1-1.467-1.42-1.947-1.5-4.308-2.25-7.015-2.25-2.193 0-4.396 1.19-5.3 3.76-2.327-2.67-5.543-4.1-9.406-4.1-1.05 0-2.62.3-4.18 1.76l-.06.06c-.94-.74-2.3-1.26-4.24-1.26h-6.21c-6.39 0-6.57 4.66-6.57 5.19 0 2.56 1.37 3.87 2.18 4.42.55.38 1.18.64 1.86.81.01.54.02 1.08.02 1.62l-.27 11.61v.22l.02.68c-1.12-1.58-2.79-2.49-4.6-2.49-.68 0-1.32.03-1.9.1-1.95.22-3.36.7-4.38 1.31v-.64l.02-3.31c-.01-1.57.01-3.17.08-4.78.03-1.03.1-1.95.22-2.72l.02-.15c.09-.9.25-2.11.46-3.6.16-1.13.55-2.38 1.15-3.67l.33.05c.22.03.44.05.67.05 1.3 0 2.5-.43 3.49-1.23 1.22-.99 1.89-2.41 1.89-4 0-2.71-1.97-5.46-6.44-5.49-2.5 0-4.75.79-6.64 2.29-.95.73-1.78 1.65-2.45 2.7-.57.87-1.06 1.79-1.45 2.72-.39.91-.72 1.95-1 3.09-.26 1.06-.51 2.35-.75 3.94-.26 1.67-.38 4.23-.38 7.85l.02 3.82c0 2.01.04 3.76.13 5.21.07 1.18.18 2.26.3 3.14.12.94.32 2.15.63 3.7.37 1.86 1.14 3.8 2.25 5.72 1.31 2.3 3.22 3.96 5.63 4.9 1.23.5 2.49.76 3.75.76 1.25 0 2.49-.24 3.71-.73.7.27 1.46.42 2.28.42 1.48 0 3.02-.63 4.05-1.95.73.28 1.59.45 2.58.45.19 0 .4-.01.63-.03.55.05 1.43.08 3.03.08h2.29c1.46 0 2.8-.52 3.89-1.5l.21-.21c2.19 2.63 4.9 3.09 6.51 3.09 2.5 0 5.25-.83 7.36-3.64.17.38.38.73.66 1.04l.69.77c.76.84 1.84 1.32 2.97 1.32h1.45c1.01 0 1.96-.38 2.68-1.04 1.02.97 2.22 1.46 3.57 1.46 1.29 0 2.51-.48 3.45-1.34.94.37 1.76.4 1.97.4 1.49 0 2.9-.6 3.97-1.7 1.32-1.36 1.6-2.8 1.6-3.76 0-.8-.18-1.6-.54-2.4v-2.8c.85 2.66 1.08 3.72 1.14 4.1-.04.63.07 1.26.31 1.84.03.1.06.22.09.37.26 1.1.67 1.99 1.24 2.71.95 1.19 2.39 1.88 3.97 1.88.8 0 1.73-.18 3.13-.61.92-.28 1.7-.87 2.22-1.68.26-.41.51-.92.75-1.8 2.29 4.24 5.79 4.91 7.72 4.91 4.99 0 10.94-3.3 10.94-19.06l-.1-5.84z"/><path fill="#0071BC" d="M41.82 80.458l-.355-21.168v-.306c0-1.866.288-3.053.865-3.562.288-.254.652-.38 1.094-.38 2.477 0 4.41.796 5.8 2.39s2.087 3.648 2.087 6.158c0 1.577-.41 3.214-1.24 4.91-.83 1.696-1.82 2.96-2.97 3.79 2.12 1.426 3.64 3.237 4.54 5.433.91 2.197 1.36 4.5 1.36 6.908 0 1.28-.31 2.58-.95 3.92-.63 1.34-1.27 2.41-1.9 3.21-.64.8-1.47 1.47-2.51 2.01-1.03.55-2.17.82-3.41.82h-.2c-1.63 0-2.44-.43-2.44-1.3l.26-12.82zm3.207-22.466c-.492 0-.738.624-.738 1.87s.03 3.206.1 5.877c.07 2.67.1 4.6.1 5.81.9-.21 1.67-.95 2.31-2.24.52-1.09.96-2.13 1.3-3.14.34-1.01.56-1.64.66-1.87v-1.86c0-1.02-.38-2.02-1.13-2.99-.76-.98-1.63-1.47-2.61-1.47zm3.79 31.472c.984-1.323 1.477-2.85 1.477-4.58s-.145-3.252-.433-4.567c-.28-1.314-.6-2.307-.95-2.977-.35-.67-.75-1.242-1.21-1.717-.56-.576-1.02-.924-1.37-1.043h-1.86c.17 4.8.26 10.56.26 17.275 1.75-.27 3.11-1.067 4.1-2.39zm19.67-18.547l.05.89c0 15.42-2.24 23.128-6.717 23.128-1.73.017-3.01-.687-3.842-2.112-.865-1.458-1.39-2.91-1.578-4.35-.29-2.223-.454-4.772-.496-7.647-.042-2.875-.063-7.026-.063-12.454l-.22-7.455c.32-.73.69-1.094 1.11-1.094s.79.318 1.11.954.49 1.31.49 2.022v14.17c0 1.24.12 3.08.37 5.52.25 2.44.37 4.28.37 5.52 0 2.54 1.11 3.81 3.31 3.81 2.48 0 3.72-9.34 3.72-28.02v-2.92l-.03-.87c0-.41.09-.71.28-.92.19-.21.51-.31.98-.31s.82.07 1.06.23c.22.13.38.34.48.61.14.42.21.98.23 1.68l-.36 5.24-.23 4.35zm3.357 7.303l.05-1.985c0-.17-.024-.254-.076-.254v-.94c0-5.46.314-9.34.94-11.65.527-1.95 1.036-3.15 1.528-3.61.492-.46.975-.68 1.45-.68 4.037 0 6.818 2.04 8.345 6.11.89 2.34 1.33 5.23 1.33 8.65v.38l.1 5.91c0 9.99-2.31 14.99-6.94 14.99-1.91 0-3.38-1.06-4.4-3.18-.97-2.03-1.56-4.03-1.78-6-.35-2.97-.53-5.54-.53-7.71zm3.078-7.125l-.254 4.81c0 5.037.407 9.43 1.22 13.18.866 2.187 1.69 3.476 2.47 3.866.626 0 1.195-.25 1.704-.76s.912-1.19 1.208-2.05c.296-.85.547-1.76.75-2.71.187-.93.33-1.93.433-3 .17-1.85.254-3.42.254-4.73s-.114-3.31-.343-6-.344-4.7-.344-6.03v-.91c-.034-1.27-.45-2.4-1.247-3.39-.797-.99-1.815-1.49-3.053-1.49-1.188 0-1.976.67-2.366 2.01-.322 1.12-.483 2.5-.483 4.15l.06 3.08zm13.816 1.96l.305-9.72c0-1.61.636-2.89 1.908-3.84v.33c.14-.086.27-.128.39-.128.82 0 1.83 1.404 3.06 4.21 1.22 2.81 2.33 5.89 3.31 9.25s1.97 6.747 2.94 10.165c.98 3.418 1.58 5.423 1.82 6.017.7-7.28 1.05-16.09 1.05-26.44l-.07-1.4c0-1.04.44-1.55 1.3-1.55.49 0 .86.2 1.11.61.25.4.37.88.37 1.42v3.94c-.04 4.08-.22 9.54-.55 16.37-.33 6.82-.77 10.68-1.33 11.56-.95.28-1.6.43-1.97.43s-.64-.13-.84-.37-.35-.63-.47-1.13-.22-.85-.3-1.02l.03-.23c0-1.29-1.24-5.39-3.74-12.29-2.49-6.9-4.3-11.65-5.42-14.25v26.23c.04.07.11.18.21.35.22.37.33.72.33 1.04s-.15.64-.47.96c-.31.32-.68.48-1.1.48-1.13 0-1.7-1.06-1.7-3.18L88.79 73zm38.7 11.652l-2.036.204c-1.188 0-1.78-.49-1.78-1.47 0-.85 1.12-1.4 3.357-1.65.44-.05.92-.07 1.45-.07s.97.27 1.34.82c.37.55.56 1.27.56 2.18 0 .91.17 2.39.52 4.44.35 2.06.52 3.44.52 4.15 0 1.28-.43 1.91-1.29 1.91s-1.43-.36-1.72-1.09v-.05c-.21.09-.59.28-1.15.59-1.06.58-2.1.87-3.13.87-.75 0-1.5-.15-2.24-.46-1.6-.62-2.82-1.68-3.67-3.18-.92-1.57-1.52-3.08-1.81-4.53-.29-1.44-.48-2.57-.59-3.41-.12-.84-.21-1.81-.28-2.9-.08-1.37-.13-3.02-.13-4.96l-.03-3.84c0-3.36.11-5.77.33-7.22.22-1.46.44-2.65.67-3.59.23-.93.49-1.76.8-2.48.3-.72.68-1.42 1.12-2.1.44-.69.95-1.26 1.52-1.7 1.24-.98 2.65-1.47 4.25-1.46 1.59.01 2.39.51 2.39 1.49 0 .38-.14.67-.41.9-.27.22-.6.33-.97.33l-1.5-.26c-1.31.02-2.34.81-3.08 2.37-.8 1.71-1.31 3.34-1.53 4.89-.23 1.55-.39 2.79-.49 3.74-.14.94-.22 2-.25 3.18-.07 1.65-.1 3.3-.08 4.94l-.03 3.23c0 3.33.14 5.69.44 7.1.29 1.41.6 2.53.93 3.36.3.85.67 1.55 1.12 2.09 1.44 1.11 2.7 1.72 3.79 1.86 1.54 0 2.82-.73 3.84-2.19-.05-3.08-.33-5.07-.84-5.95zm12.415-7.887l.255 11.067v1.552l-.025 1.45h.687l1.5-.06c1.426 0 2.14.43 2.14 1.3 0 .44-.175.82-.522 1.13-.348.31-.75.47-1.21.47h-2.29c-1.576 0-2.585-.04-3.026-.1-.27.03-.483.05-.636.05-1.238 0-1.857-.39-1.857-1.17 0-.32.1-.63.3-.92.2-.29.4-.44.61-.46h1.47l.1-.69-.36-11.06.28-11.61c0-1.98-.09-3.85-.26-5.6h-.99l-1.2.05c-.51 0-.91-.1-1.2-.29-.29-.2-.44-.57-.44-1.11 0-.8.85-1.2 2.57-1.2h6.2c1.41 0 2.11.36 2.11 1.09 0 .32-.15.62-.46.89-.3.27-.65.41-1.04.41h-2.67c.13 1.42.2 3.04.2 4.83l-.28 9.95zm6.717 1.4l.05-1.985c0-.17-.025-.254-.076-.254v-.94c0-5.46.313-9.34.94-11.65.526-1.95 1.035-3.15 1.527-3.61.5-.46.98-.68 1.45-.68 4.04 0 6.82 2.04 8.35 6.11.88 2.34 1.33 5.23 1.33 8.65v.38l.1 5.91c0 9.99-2.31 14.99-6.94 14.99-1.91 0-3.38-1.06-4.4-3.18-.97-2.03-1.56-4.03-1.78-6-.35-2.97-.53-5.54-.53-7.71zm3.077-7.125l-.254 4.81c0 5.037.407 9.43 1.22 13.18.866 2.187 1.69 3.476 2.47 3.866.627 0 1.195-.25 1.704-.76s.91-1.19 1.21-2.05c.295-.85.546-1.76.75-2.71.186-.93.33-1.93.432-3 .16-1.85.25-3.42.25-4.73s-.12-3.31-.35-6c-.23-2.69-.35-4.7-.35-6.03v-.91c-.04-1.27-.45-2.4-1.25-3.39-.8-.99-1.82-1.49-3.06-1.49-1.19 0-1.98.67-2.37 2.01-.32 1.12-.48 2.5-.48 4.15l.05 3.08zm16.413 5.597l-.052 5.648c0 4.597.33 8.218.992 10.864l-.585 1.4h-1.45l-.688-.764c.034-1.56.05-3.312.05-5.254s-.147-6.094-.444-12.455c-.297-6.36-.445-11.1-.445-14.24 0-1.64.577-2.47 1.73-2.47 1.814 0 3.342.48 4.58 1.43 1.237.95 1.857 2.31 1.857 4.07v3.67c0 1-.188 1.92-.56 2.74-.374.83-.807 1.69-1.298 2.6-.492.91-.764 1.41-.814 1.52.187.85.518 2.51.992 4.99 1.018 5.41 2.146 9.3 3.384 11.68.35.68.53 1.21.53 1.59s-.11.71-.32.97c-.22.27-.5.4-.86.4-.73 0-1.43-.83-2.1-2.5s-1.21-3.52-1.62-5.56c-1.24-6.22-2-9.65-2.27-10.28h-.63zm.202-15.342l-.178.738c0 1.425.034 3.482.102 6.17.067 2.69.102 4.644.102 5.865.814-.424 1.472-1.53 1.972-3.32.5-1.79.75-3.16.75-4.11 0-.95-.024-1.648-.075-2.098-.05-.45-.16-.945-.33-1.488-.34-1.12-1.122-1.706-2.343-1.757zm10.024 11.704l.306-9.72c0-1.61.636-2.89 1.908-3.84v.33c.136-.085.263-.127.382-.127.814 0 1.832 1.404 3.053 4.21 1.222 2.81 2.324 5.89 3.308 9.25s1.963 6.747 2.938 10.165 1.59 5.423 1.82 6.017c.7-7.28 1.05-16.09 1.05-26.44l-.07-1.4c0-1.04.44-1.55 1.3-1.55.5 0 .86.2 1.11.61s.37.88.37 1.42v3.94c-.03 4.08-.21 9.54-.54 16.37-.33 6.82-.77 10.68-1.33 11.56-.95.28-1.6.43-1.97.43s-.64-.13-.84-.37-.35-.63-.47-1.13c-.12-.51-.22-.85-.3-1.02l.03-.23c0-1.29-1.25-5.39-3.74-12.29-2.49-6.9-4.3-11.65-5.42-14.25v26.23c.04.07.1.18.21.35.22.37.33.72.33 1.04s-.15.64-.47.96c-.31.32-.68.48-1.1.48-1.13 0-1.7-1.06-1.7-3.18l-.1-17.87zm20.71 5.166l.05-1.985c0-.17-.023-.254-.074-.254v-.94c0-5.46.313-9.34.94-11.65.526-1.95 1.035-3.15 1.527-3.61.49-.46.97-.68 1.45-.68 4.03 0 6.81 2.04 8.34 6.11.88 2.34 1.32 5.23 1.32 8.65v.38l.1 5.91c0 9.99-2.32 14.99-6.95 14.99-1.92 0-3.39-1.06-4.4-3.18-.97-2.03-1.57-4.03-1.78-6-.36-2.97-.54-5.54-.54-7.71zm3.08-7.125l-.255 4.81c0 5.037.41 9.43 1.23 13.18.87 2.187 1.69 3.476 2.47 3.866.63 0 1.2-.25 1.71-.76s.91-1.19 1.21-2.05c.3-.85.55-1.76.75-2.71.19-.93.33-1.93.43-3 .17-1.85.26-3.42.26-4.73s-.11-3.31-.34-6c-.23-2.69-.34-4.7-.34-6.03v-.91c-.03-1.27-.45-2.4-1.24-3.39s-1.81-1.49-3.05-1.49c-1.19 0-1.98.67-2.36 2.01-.32 1.12-.48 2.5-.48 4.15l.05 3.08z"/></svg>