<svg xmlns="http://www.w3.org/2000/svg" width="250" height="250" viewBox="0 0 250 250"><path opacity=".15" d="M237.983 174.766c-.63-1.23-1.877-2.092-3.335-2.174l-16.16-2.646c-.213-.035-.427-.053-.642-.053-.56-.36-1.216-.584-1.92-.625l-12.824-2.098c.004-.074.006-.15.006-.225v-8.277c6.217-12.234 9.367-25.41 9.367-39.18 0-47.852-38.93-86.782-86.782-86.782S38.91 71.636 38.91 119.488c0 14.872 3.84 29.428 11.008 42.27-1.34.506-2.342 1.71-2.547 3.193l-.42 3.08-2.88-3.43c-.78-.93-1.91-1.43-3.06-1.43-.65 0-1.31.16-1.92.49-1.67.92-2.46 2.89-1.89 4.71l8 25.42c.53 1.67 2.07 2.8 3.82 2.8l36.31-.14c.28.17.58.31.9.4l4.02 1.23c.42.15.87.22 1.31.22h.19l4.13-.18c1.29-.05 2.41-.72 3.1-1.7h.81v.76c0 1.76 1.15 3.32 2.83 3.83l4.02 1.23c.42.15.87.22 1.31.22h.19l4.12-.19c2.14-.09 3.82-1.85 3.82-3.99v-1.9l4.72-.02c-.03.4-.06.76-.09 1.07-.06.74-.11 1.32-.16 1.72l-.08.71c-.03.32-.04.64-.03.97.12 3.81 3.2 6.79 7.01 6.79h.22c1.87-.06 3.61-.84 4.89-2.2.28-.29.53-.6.74-.93.26.71.66 1.31 1.09 1.74.54.54 1.21.91 1.96 1.08l21.62 4.87c1.6 1.67 3.26 2.06 4.47 2.06.82 0 1.57-.17 2.24-.47.69.31 1.48.52 2.34.52.81 0 1.53-.17 2.18-.47.29.05.59.07.89.07 2.52 0 4.54-1.62 5.09-2.12.23-.2.43-.43.6-.67.31-.06.61-.15.9-.25.6.24 1.27.39 2.01.39.72 0 1.37-.14 1.95-.38.22.03.44.04.67.04 2.36 0 4.23-1.5 4.74-1.96.71-.64 1.17-1.5 1.3-2.45.27-1.99-.33-3.94-1.68-5.51-2.02-2.33-6.01-3.94-11.91-4.81l4.97-.02c.4.34.87.6 1.4.76l4.01 1.23c.42.14.87.22 1.31.22h.19l4.13-.18c1.44-.07 2.67-.89 3.32-2.07h.58v1.11c0 1.76 1.15 3.31 2.83 3.82l4.02 1.23c.42.14.87.22 1.31.22h.19l4.13-.19c2.14-.09 3.82-1.85 3.82-3.99v-1.89l8.13.16c.74 0 1.44-.2 2.05-.57l4.29-.02c1.88 0 3.5-1.32 3.9-3.16l2.25-10.49h3.92c2.2 0 3.99-1.78 4-3.98l.01-1.27.01-.11c.05-.76-.12-1.5-.45-2.14zm-103.6 24.52l-.052-1.606-.05-1.42 4.96-.02-.18.252c-1.72.62-3.48 1.477-4.67 2.793z"/><path fill="#B2D573" d="M234.483 170.766c-.63-1.23-1.877-2.092-3.335-2.174l-16.16-2.646c-.213-.035-.427-.053-.642-.053-.56-.36-1.216-.584-1.92-.625l-12.824-2.098c.004-.074.006-.15.006-.225v-8.277c6.217-12.234 9.367-25.41 9.367-39.18 0-47.852-38.93-86.782-86.782-86.782S35.41 67.636 35.41 115.488c0 14.872 3.84 29.428 11.01 42.27-1.34.506-2.343 1.71-2.55 3.193l-.427 3.08-2.878-3.43c-.782-.93-1.915-1.43-3.067-1.43-.654 0-1.314.16-1.92.49-1.673.92-2.466 2.89-1.893 4.71l8 25.42c.524 1.67 2.07 2.8 3.815 2.8l36.308-.14c.278.17.58.31.9.4l4.015 1.23c.42.15.864.22 1.313.22h.186l4.125-.18c1.288-.05 2.412-.72 3.1-1.7h.805v.76c0 1.76 1.15 3.32 2.833 3.83l4.015 1.23c.42.15.864.22 1.313.22h.186l4.12-.19c2.13-.09 3.82-1.85 3.82-3.99v-1.9l4.72-.02c-.03.4-.06.76-.09 1.07-.06.74-.12 1.32-.16 1.72l-.09.71c-.04.32-.05.64-.04.97.12 3.81 3.19 6.79 7 6.79h.22c1.87-.06 3.61-.84 4.89-2.2.27-.29.52-.6.74-.93.25.71.65 1.31 1.08 1.74.53.54 1.21.91 1.95 1.08l21.62 4.87c1.59 1.67 3.25 2.06 4.46 2.06.82 0 1.57-.17 2.24-.47.69.31 1.47.52 2.34.52.81 0 1.53-.17 2.17-.47.29.05.58.07.88.07 2.52 0 4.54-1.62 5.09-2.12.23-.2.43-.43.6-.67.31-.06.61-.15.9-.25.59.24 1.26.39 2 .39.72 0 1.37-.14 1.95-.38.22.03.44.04.67.04 2.36 0 4.23-1.5 4.74-1.96.71-.64 1.17-1.5 1.3-2.45.27-1.99-.33-3.94-1.68-5.51-2.02-2.33-6.01-3.94-11.91-4.81l4.97-.02c.4.34.87.6 1.39.76l4.02 1.23c.42.14.86.22 1.31.22h.19l4.12-.18c1.44-.07 2.67-.89 3.32-2.07h.58v1.11c0 1.76 1.15 3.31 2.83 3.82l4.01 1.23c.42.14.86.22 1.31.22h.18l4.12-.19c2.14-.09 3.82-1.85 3.82-3.99v-1.89l8.13.16c.74 0 1.44-.2 2.05-.57l4.3-.02c1.88 0 3.5-1.32 3.9-3.16l2.25-10.49h3.91c2.2 0 3.99-1.78 4-3.98v-1.27l.01-.11c.05-.76-.11-1.5-.45-2.14zm-103.6 24.52l-.052-1.606-.05-1.42 4.96-.02-.18.252c-1.72.62-3.48 1.477-4.67 2.793z"/><linearGradient id="a" gradientUnits="userSpaceOnUse" x1="122.193" y1="16.127" x2="122.193" y2="200.079"><stop offset="0" stop-color="#1B1440"/><stop offset=".819" stop-color="#ED1E79"/></linearGradient><path fill="url(#a)" d="M64.332 174.666h115.723c15.37-15.03 24.92-35.982 24.92-59.178 0-45.72-37.062-82.782-82.78-82.782-45.72 0-82.783 37.063-82.783 82.782 0 23.196 9.55 44.15 24.92 59.178z"/><circle fill="#E2E2E2" cx="123.797" cy="116.049" r="39.125"/><circle fill="#AAA" cx="131.095" cy="89.809" r="6.365"/><circle fill="#AAA" cx="132.13" cy="103.472" r="4.606"/><circle fill="#AAA" cx="141.911" cy="98.142" r="4.037"/><path fill="#6FB344" d="M46.833 185.166c19.94-23.867 34.775-59.08 75.058-59.08 47.14 0 70.26 45.8 92.61 62.414"/><path fill="#75451D" d="M85.792 144.79h4v23.376h-4z"/><path fill="#4F3014" d="M86.792 144.79h4v23.376h-4z"/><path fill="#75451D" d="M177.042 144.79h4v23.376h-4z"/><path fill="#4F3014" d="M178.042 144.79h4v23.376h-4z"/><path fill="#ED1F24" d="M65.897 140.285h129.71v9.668H65.897z"/><path fill="#4C8C22" d="M37.5 163.166l8.667 10.334 1.666-12 3 11.666 2.668-8.334 5.34 8 4.34-6.332 3.67 8.332 4.67-5 3.34 5.334 4-5 7.34 5.666 5-2.666 2 4 5.33-4.666 6 5.666 5-4.334 7.34 5.334 6-5.334 8.34 3.668 5.34-5.334-.33 10 3.33-11.334 3.67 10 2.72-11.568 6.62 6.568 4.74-5.207 1.6 11.207 5.99-8.275 2.19 5.074 4.16-4.79 4.34 5.34 3-9 7.67 10.34 6.34-8.33 2.33 10 6.33-9.33 5 4 3.66-2.33 4 7.34 3.67-8.66 1 9.67 5-7.33-2.67 12.42-175.34.67"/><path fill="#B20F1B" d="M95 145.584s-1.05 2.656-.302 4.37h8.565l.07-.038-5.104-9.63h-3.88c-.37 1.267-.35 2.997.65 5.298z"/><path fill="#75451D" d="M88.042 190.29l-4.166-1.27v-19.727h4.166"/><path fill="#4F3014" d="M92.167 190.104L88 190.29v-20.997h4.167"/><path fill="#75451D" d="M104.417 194.416l-4.166-1.27v-19.728h4.17"/><path fill="#4F3014" d="M108.542 194.23l-4.166.186v-20.998h4.166"/><path fill="#B20F1B" d="M170.167 142.5c-.66 2.148-.99 5.768 1.44 7.453h8.845c.744-.162 1.215-.287 1.215-.287l-4.112-9.38h-7.253c.107.638.115 1.402-.135 2.214z"/><path fill="#75451D" d="M181.875 190.29l-4.167-1.27v-19.727h4.167"/><path fill="#4F3014" d="M186 190.104l-4.167.187V169.3H186"/><path fill="#75451D" d="M198.25 194.416l-4.167-1.27v-19.728h4.167"/><path fill="#4F3014" d="M202.375 194.23l-4.167.186v-20.998h4.167"/><path fill="#ED1F24" d="M65.897 153.277h129.71v9.668H65.897z"/><path fill="#A8170C" d="M82.455 170.94l-16.542-2.577v-1.812l16.542 2.58"/><path fill="#93100C" d="M212.18 170.94l-129.728.01v-1.85l129.736.162"/><path fill="#ED1F24" d="M212.227 169.29H82.515l-16.618-2.72h129.71"/><path fill="#B20F1B" d="M101.667 153.334l-.312-.057H97.9c-.22 1.447-.61 5.006.85 5.14 1.833.167 4.833-.167 4.833-.167s-1.166 1.75.834 1.75 6.083-1.25 5.916-5c-.03-.664-.183-1.23-.408-1.723h-8.17l-.088.057zm24.28-3.38l1.17-9.67h-10.815l-.3.05s-1.798 4.24-2.872 9.62h12.817zm-.4 3.323h-12.95c-.393 3.246-.383 6.656.482 9.668h11.29l1.17-9.668z"/><path fill="#A8170C" d="M101.187 174.266l-16.54-2.578v-1.813l16.54 2.578"/><path fill="#93100C" d="M230.91 174.266l-129.727.007v-1.85l129.737.16"/><path fill="#ED1F24" d="M230.958 172.613H101.246l-16.616-2.72h129.71"/><path fill="#B20F1B" d="M112.542 169.854s10.438-2.813 14.375 2.938l4.375.125-6.5-7.375s-18.75-.375-16.375 2.875 4.125 1.437 4.125 1.437z"/><path fill="#B20F1B" d="M106.917 167.916s-3.5 3.5 0 4.875l1.875 1.63h9.75l-6.625-5.5-5-1z"/><path fill="#FFF" d="M157.016 195.346c.085-.094.16-.195.24-.293-2.425.475-4.872-.06-4.872-.06-3.803 1.415-2.743 2.3-2.743 2.3l19.65 4.426c2.13 3.18 3.72 0 3.72 0 2.66 3.18 3.37.17 3.37.17 1.06 2.12 3.44 0 3.44 0 .96-7.08-22.78-6.55-22.78-6.55z"/><path fill="#FFF" d="M146.547 165.908l.507.06c.31.046.764.116 1.342.204 1.143.19 2.75.547 4.653 1.16 1.89.625 4.09 1.578 6.2 3.238 1.04.84 2.03 1.895 2.8 3.162.78 1.26 1.26 2.742 1.48 4.21.1.548.2 1.386.23 2.052.04.693.03 1.39 0 2.076-.07 1.377-.31 2.717-.64 3.973-.66 2.52-1.64 4.707-2.57 6.457-.93 1.75-1.73 3.13-2.15 3.977-.22.424-.32.713-.34.83-.03.133 0 .107-.01.123l-5.81-1.857c0 .02.11-.31.31-.707.2-.418.51-.885.85-1.39.69-1.02 1.67-2.187 2.65-3.636.97-1.447 2.02-3.143 2.7-5.094.34-.975.6-2 .74-3.06.07-.53.12-1.067.13-1.61.02-.57.01-.973-.05-1.654-.1-.992-.37-1.934-.85-2.773-.47-.85-1.11-1.61-1.86-2.26-1.5-1.31-3.37-2.1-4.99-2.65-1.64-.55-3.09-.78-4.09-.94-.5-.07-.9-.1-1.16-.12l-.38-.02.26-3.77z"/><path fill="#D0D2D3" d="M169.772 121.592s4.664-8.48-3.992-5.535c-8.657 2.945 3.992 5.535 3.992 5.535z"/><path fill="#FFF" d="M124.453 125.725c1.578-9.32 11.406-16.5 23.303-16.5 12.997 0 23.53 8.567 23.53 19.135 0 10.568-10.534 19.137-23.53 19.137-.488 0-.97-.016-1.453-.04-.52 2.27-.956 5.794.617 7.927 0 0 10.794 8.07 5.288 15.738.007-.057 1.417-13.436-8.883-15.82l1.87-8.426s-3.894-.916-8.44-2.924v10.557s10.868 12.68 4.715 21.27c-10.762-.33-32.418-6.09-17.017-50.07z"/><path fill="#D0D2D3" d="M136.756 154.508V143.95c4.546 2.01 8.438 2.925 8.438 2.925l-1.87 8.426c10.3 2.39 8.89 15.77 8.884 15.82-1.074 1.5-1.615 2.01-4.135 3.41 0 0-3.396 1.36-6.604 1.26 6.15-8.59-4.72-21.28-4.72-21.28z"/><ellipse fill="#D0D2D3" cx="151.291" cy="128.781" rx="19.996" ry="15.17"/><ellipse fill="#FFF" cx="161.503" cy="125.373" rx="7.816" ry="7.705"/><ellipse fill="#FFF" cx="143.325" cy="125.548" rx="9.648" ry="9.585"/><path fill="#6C6F71" d="M150.537 142.143s.512-1.545 2.102-1.414c0 0-.43-.47-2.11-1.18 0 0 1.48.14 2.5.95 0 0 3.73.34 2.65-2.73 0 0 2.09 3.66-2.88 3.24 0 0-1.23.23-2.28 1.13z"/><path fill="#BE1E2D" d="M154.61 137.354s1.194 1.447-1.09 2.207c0 0-1.297.54-3.076-1.38 0 0 9.907-4.49 4.166-.82z"/><path fill="#6C6F71" d="M154.958 134.27l-.26 1.64s-5.12 3.747-6.322.782l.447-1.148-1.537 1.97.922-.57s-.14 3.638 6.544-.583c0 0 3.077-1.23.364.67 0 0 4.506-2.04.14-1.28l.172-1.26-.47-.21z"/><path fill="#1D8FCD" d="M157.338 133.475s-1.738-3.54-2.38-1.67c0 0-1.438-2.104-1.438 1.273 0 0 1.362.93 1.438 2.055 0 0 1.408-.567 2.38-1.658z"/><path fill="#FFF" d="M154.958 134.27s-.088-.477-.763-.953c0 0 .25-.917.763.953z"/><circle fill="#0071BC" cx="141.572" cy="125.599" r="7.471"/><path fill="#0F4481" d="M142.11 127.48c1.387-1.605 1.213-4.025-.39-5.413-1.603-1.385-4.024-1.212-5.413.392-1.385 1.6-1.21 4.02.39 5.41 1.604 1.38 4.027 1.21 5.412-.39z"/><path fill="#FFF" d="M139.875 126.303c.738-.852.644-2.14-.208-2.875-.85-.736-2.138-.646-2.875.207s-.643 2.14.208 2.877c.853.736 2.138.642 2.875-.21z"/><circle fill="#FFF" cx="142.979" cy="124.441" r=".993"/><circle fill="#0071BC" cx="160.399" cy="125.468" r="6.202"/><path fill="#0F4481" d="M160.846 127.03c1.15-1.333 1.006-3.342-.323-4.494-1.33-1.15-3.342-1.006-4.495.325-1.15 1.33-1.005 3.35.326 4.5 1.328 1.15 3.34 1.01 4.492-.32z"/><path fill="#FFF" d="M158.99 126.053c.612-.708.535-1.775-.173-2.387-.705-.61-1.774-.536-2.387.172-.61.708-.534 1.776.173 2.39.707.608 1.775.532 2.386-.175z"/><circle fill="#FFF" cx="161.567" cy="124.507" r=".825"/><path fill="#A8170C" d="M64.74 153.277H66v9.617h-1.26zm0-13.043H66v9.62h-1.26z"/><path fill="#919496" d="M126.854 123.73s-.375-4.5 3.25-6c0 0-4.938-1.814-5.75-.69s-1.25 4.002 2.5 6.69z"/><path fill="#D0D1D2" d="M108.458 149.238s2.498 2.432 3.85 2.432.81 4.186-2.702 2.498"/><path fill="#FFF" d="M98.913 144.893s-2.447 2.61.164 5.223c2.61 2.61 2.12 4.732 2.12 4.732s-1.142 2.938.98 2.938 3.918-1.14 3.265-4.732c0 0 2.448 2.773.815 4.732-1.63 1.957 4.243 3.264 4.733-2.285.49-5.54-5.386-11.26-7.997-11.26"/><path fill="#D0D2D3" d="M131.397 116.58s.23 1.967-1.6 2.24c0 0-8.954-2.924-2.42 4.935 0 0 .73 1.188-.777 2.238 0 0-6.03-5.16-4.11-9.09 0-.002 1.46-4.297 8.907-.322z"/><path fill="#FFF" d="M128.07 168.05l-.622-.104-1.818-.27c-1.573-.204-3.838-.468-6.527-.58-1.34-.046-2.793-.044-4.268.073-.734.06-1.48.15-2.182.3-.695.14-1.377.36-1.822.61-.22.12-.36.25-.41.32-.03.02-.04.07-.03.05l-.06.15c.01 0 .02-.02.02-.03l.01-.03c.01-.04 0-.17-.04-.28-.04-.12-.1-.18-.1-.18s.23.15.53.26c.61.23 1.46.42 2.32.59.91.16 1.82.33 2.73.49 1.88.38 3.87.74 5.92 1.85 1.01.55 2.09 1.41 2.78 2.67.17.31.32.63.43.96l.08.25.07.25.09.32c.12.42.23.84.32 1.35.39 1.95.58 3.61.73 5.28.14 1.64.26 3.18.35 4.6.17 2.84.25 5.2.31 6.86l.09 2.62c.05 1.66-1.25 3.05-2.92 3.1-1.66.05-3.05-1.26-3.1-2.92 0-.14 0-.28.02-.42l.01-.05.08-.64c.05-.43.11-1.05.17-1.85.14-1.6.29-3.89.36-6.63.04-1.37.06-2.85-.01-4.4-.04-1.53-.16-3.23-.37-4.71-.03-.35-.12-.79-.22-1.23l-.06-.33-.02-.08-.01-.04c.01.03-.02-.1.02.06v-.01l-.02-.07c-.02-.1-.06-.18-.1-.27-.17-.33-.53-.7-1.11-1.03-1.16-.68-2.88-1.1-4.63-1.45l-2.74-.54c-.95-.21-1.91-.4-3.02-.83-.54-.23-1.15-.5-1.82-1.11-.33-.31-.67-.74-.88-1.28-.22-.54-.27-1.13-.23-1.61.03-.26.07-.44.13-.69l.11-.35.06-.15c.18-.44.38-.79.63-1.11.5-.64 1.07-1.05 1.6-1.35 1.08-.61 2.07-.87 3.01-1.08.94-.2 1.83-.31 2.69-.38 1.71-.15 3.28-.14 4.73-.11 2.89.07 5.25.3 6.91.48l1.93.22.7.1c1.18.16 2.01 1.25 1.85 2.43-.16 1.18-1.25 2.01-2.43 1.85l-.06-.01-.05-.01zm14.23 29.02c.058-.064.106-.13.163-.195-2.133.232-2.88-.707-4.546-.96-5.833 1.835-4.242 3.43-4.242 3.43l22.975 5.177c2.482 3.727 4.342 0 4.342 0 3.1 3.727 3.936.207 3.936.207 1.238 2.48 4.018 0 4.018 0 1.116-8.28-26.646-7.66-26.646-7.66z"/><path fill="#D0D2D3" d="M160.997 203.69s-.783-3.825-6.084-1.757c0 .003 5.772-3.312 6.084 1.758zm3.76 0s-.283-3.382-2.313-2.274c0 0 1.522-.414 2.313 2.275z"/><path fill="#FFF" d="M133.547 165.908s.185.02.53.063c.33.05.803.12 1.4.22 1.196.2 2.875.58 4.864 1.24 1 .34 2.06.77 3.15 1.35 1.09.59 2.22 1.3 3.28 2.23 1.07.93 2.03 2.13 2.73 3.53.35.7.61 1.44.81 2.2.08.39.18.75.23 1.17.05.33.11.61.14 1.03.15 1.57.07 3-.16 4.45-.24 1.43-.63 2.78-1.1 4.03-.92 2.52-2.11 4.67-3.16 6.41-1.05 1.74-1.93 3.14-2.41 4-.24.43-.36.74-.38.84-.02.08-.01.07 0 .08h.01l-5.81-1.85.09-.22c.06-.15.16-.37.27-.57.24-.45.56-.92.94-1.44.76-1.04 1.83-2.25 2.95-3.74 1.12-1.49 2.35-3.23 3.28-5.23.46-.99.85-2.05 1.11-3.13.26-1.06.39-2.24.38-3.27.02-.22-.02-.59-.05-.9 0-.22-.08-.49-.11-.74-.11-.5-.25-.98-.46-1.44-.41-.91-1.01-1.74-1.75-2.44-1.48-1.43-3.41-2.3-5.1-2.89-1.7-.6-3.22-.85-4.27-1-.52-.08-.94-.11-1.21-.13-.26-.02-.4-.02-.4-.02l.26-3.77z"/><path fill="#D0D2D3" d="M176.31 139.47s-2.416 2.29-.363 5.79c2.053 3.502-1.086 3.742.483 4.707 1.57.967 3.138-.48 3.138-2.05 0 0-1.568 5.913-.483 6.517 1.087.604 3.14 1.328 4.347-4.707 0 0 .603 3.982-.846 4.707 0 0 3.138.604 3.5-3.258.36-3.863-2.414-12.674-6.396-12.795"/><path fill="#FFF" d="M126.103 138.21l-1.565-.448c-1.008-.275-2.458-.656-4.208-1.055-3.484-.785-8.237-1.71-12.82-1.752-1.123.027-2.26.055-3.27.252-1.004.176-1.963.443-2.558.846-.62.395-.882.783-1.038 1.252-.014.14-.036.27-.07.402-.043.123.01.314 0 .46-.025.298.06.655.133.993.036.328.175.676.29 1.004.114.326.196.635.356.934.295.594.487 1.115.76 1.54l.77 1.337.078.137c.64 1.102.26 2.506-.84 3.137-1.1.63-2.5.25-3.13-.85l-.02-.04-.87-1.59c-.29-.49-.56-1.19-.9-1.94-.18-.37-.31-.82-.46-1.29-.15-.47-.31-.94-.39-1.53-.1-.56-.21-1.14-.18-1.84.02-.35-.02-.66.06-1.04.07-.37.15-.74.24-1.12.46-1.55 1.68-2.96 3.04-3.71 1.36-.81 2.75-1.11 4.1-1.33 1.36-.22 2.67-.23 3.99-.23 5.19.17 10.06 1.26 13.68 2.15 1.81.45 3.3.88 4.35 1.19l1.65.51c.99.31 1.55 1.36 1.24 2.35-.3.98-1.33 1.53-2.31 1.25l-.06-.02z"/><path fill="#D0D1D2" d="M159.954 135.89l.242-.177.67-.465c.582-.387 1.416-.922 2.475-1.484 1.07-.56 2.34-1.172 3.82-1.643 1.48-.47 3.18-.83 5.02-.7.92.08 1.87.25 2.76.64.46.16.87.43 1.29.65.38.29.8.53 1.11.86.34.31.67.63.93.97l.41.5.34.51c.23.34.43.67.58 1 .15.33.34.65.45.96.51 1.23.78 2.27.94 2.99l.24 1.14c.27 1.24-.53 2.47-1.77 2.73-1.24.27-2.47-.53-2.73-1.77l-.03-.19-.01-.14-.11-.92c-.07-.58-.22-1.4-.5-2.31-.05-.24-.17-.44-.25-.67-.08-.24-.19-.46-.31-.68l-.18-.34-.21-.31c-.13-.22-.3-.4-.47-.59-.15-.21-.37-.33-.55-.52-.22-.13-.41-.31-.66-.41-.45-.26-1.01-.41-1.6-.52-1.18-.19-2.53-.06-3.79.23-1.26.28-2.44.72-3.43 1.14-.99.42-1.8.84-2.35 1.14l-.63.36-.21.13-.04.02c-.59.35-1.35.17-1.71-.42-.34-.55-.18-1.27.33-1.65z"/><g fill="#FFF"><path d="M72.744 87.913l-14.92-9.474-.212-.15c-1.3-.86-1.996-1.61-2.085-2.24-.045-.32.034-.63.236-.94 1.137-1.73 2.58-2.71 4.33-2.95 1.75-.24 3.5.22 5.25 1.37 1.1.72 2.05 1.76 2.85 3.12.802 1.35 1.227 2.63 1.276 3.81 1.96-.83 3.92-1.05 5.87-.67 1.95.37 3.76 1.11 5.44 2.22.88.58 1.65 1.4 2.29 2.46.64 1.06 1.09 1.99 1.36 2.8s.34 1.7.25 2.67c-.1.97-.43 1.89-1 2.75l-.1.14c-.75 1.13-1.43 1.5-2.03 1.1l-8.82-6.07zM58.556 75.36c-.226.343.096.8.964 1.373.87.572 2.25 1.45 4.144 2.628 1.893 1.19 3.26 2.05 4.1 2.6.27-.72.104-1.6-.498-2.64-.515-.86-1.047-1.64-1.595-2.35-.54-.7-.88-1.14-1-1.32l-1.29-.85c-.71-.46-1.57-.66-2.6-.58s-1.76.46-2.21 1.15zm23.68 11.812c-.472-1.293-1.31-2.337-2.516-3.132-1.206-.794-2.333-1.393-3.382-1.796-1.05-.402-1.886-.637-2.513-.702s-1.21-.047-1.752.054c-.66.126-1.112.285-1.358.48l-.853 1.294c3.424 2.087 7.477 4.672 12.16 7.757.612-1.344.683-2.66.213-3.955zm.074-22.652l.536.515c8.763 9.427 11.775 15.413 9.037 17.958-1.048.993-2.23 1.29-3.55.892-1.357-.4-2.502-.987-3.436-1.764-1.44-1.19-2.988-2.65-4.648-4.39-1.66-1.73-4.04-4.26-7.12-7.58l-4.38-4.42c-.22-.63-.2-1.06.05-1.3.25-.23.66-.25 1.22-.04.55.21 1.04.53 1.44.96l8.05 8.67c.7.76 1.82 1.82 3.36 3.17 1.54 1.36 2.66 2.41 3.36 3.17 1.44 1.56 2.84 1.71 4.19.45 1.52-1.41-3.03-7.82-13.64-19.24l-1.66-1.79-.51-.51c-.23-.25-.35-.49-.35-.72s.14-.48.42-.74c.28-.27.54-.42.77-.46.21-.04.43-.01.64.1.33.18.69.48 1.1.89l2.76 3.41 2.33 2.79zm7.606 1.87l-.748-1.48c-.067-.124-.12-.177-.157-.156l-.37-.69c-2.16-4.016-3.47-6.995-3.92-8.94-.38-1.64-.48-2.728-.3-3.26.18-.53.45-.89.8-1.077 2.97-1.598 5.82-1.202 8.55 1.186 1.58 1.37 3.04 3.316 4.4 5.835l.15.28 2.41 4.298c3.96 7.344 4.23 11.93.83 13.763-1.41.75-2.9.56-4.49-.6-1.51-1.12-2.74-2.35-3.68-3.71-1.44-2.04-2.58-3.86-3.44-5.46zm-.557-6.454l1.71 3.635c1.99 3.71 4.03 6.78 6.11 9.21 1.5 1.27 2.61 1.89 3.34 1.87.46-.24.78-.66.95-1.23.17-.57.2-1.23.08-1.98s-.3-1.51-.52-2.29c-.24-.76-.53-1.55-.87-2.37-.61-1.42-1.17-2.62-1.69-3.58s-1.4-2.38-2.63-4.27c-1.24-1.89-2.12-3.32-2.64-4.29l-.36-.67c-.53-.92-1.28-1.59-2.26-2-.98-.41-1.93-.37-2.84.12-.87.47-1.19 1.28-.94 2.42.2.95.63 2.03 1.28 3.24L89.33 60zm13.82-4.942l-1.37-8c-.27-1.318.04-2.472.92-3.46l.05.27c.1-.092.19-.147.29-.167.66-.136 1.73.844 3.19 2.937s2.88 4.43 4.24 7.015c1.36 2.58 2.73 5.19 4.09 7.82s2.19 4.17 2.49 4.62c-.65-6.07-1.83-13.34-3.55-21.8l-.3-1.13c-.18-.85.09-1.34.8-1.49.4-.09.74.02 1.01.31s.45.66.54 1.1l.65 3.22c.65 3.35 1.41 7.84 2.27 13.48s1.14 8.86.83 9.68c-.73.39-1.24.62-1.54.68s-.55.01-.75-.16c-.2-.17-.39-.45-.57-.85-.18-.4-.32-.66-.42-.78l-.02-.19c-.21-1.06-1.91-4.2-5.1-9.43s-5.45-8.82-6.8-10.76l4.36 21.46c.04.05.12.13.23.25.24.26.39.53.44.79s-.02.55-.22.87-.48.5-.83.57c-.93.19-1.58-.58-1.93-2.31l-3.05-14.6zm29.06 6.603l.23 2.706c-.03.354.03 1.226.18 2.618s.21 2.3.17 2.73l-.01.05c-.06.64-.34 1.02-.83 1.17-.61-.05-1.07-.19-1.4-.42-.32-.23-.46-.62-.41-1.19.1-1.22.05-3.03-.16-5.41l-4.22-1.01c-.36.94-.65 1.97-.9 3.1s-.45 1.95-.63 2.46c-.35 1.05-.87 1.55-1.56 1.48-.34-.03-.64-.16-.91-.41-.27-.24-.39-.53-.36-.87l.14-.37c2.61-7.34 4.71-14.53 6.28-21.57.05-.19.14-.77.28-1.72.32-2.1.71-3.42 1.16-3.97l1.46.13c.39.04.73.16 1.01.37s.4.5.37.87c-.19 2.2-.19 5.49.01 9.87s.22 7.53.05 9.43zm-2.34.666c-.05-.43-.03-1.17.07-2.222.09-1.05.14-2.36.16-3.93s0-3.39-.04-5.48c-.05-2.08-.07-3.6-.07-4.53-1.96 7.15-3.26 12.19-3.9 15.14.46.37 1.72.72 3.76 1.04zm7.21 8.933c.3-.716.76-.946 1.35-.69.3.127.65.396 1.05.806.4.41.78.692 1.14.845.36.152.84.09 1.45-.188.61-.28 1.18-.71 1.7-1.29 1.07-1.18 1.84-2.32 2.31-3.44.48-1.12.79-2.39.94-3.84.15-1.45.19-2.85.1-4.21-.08-1.36-.17-2.72-.27-4.09-.22-3.25.15-5.97 1.1-8.17.87-2.09 2.23-3.45 4.06-4.07.97-.33 1.93-.29 2.88.12.48.2.89.54 1.23 1 .34.46.51.94.51 1.45l-1.05.57c-.67-.29-1.13-.64-1.4-1.06-.52-.16-1.05-.11-1.59.15-.99.48-1.73 1.29-2.21 2.41s-.81 2.28-.98 3.47c-.17 1.19-.22 2.3-.15 3.33.07 1.03.14 2.14.21 3.34.09 1.2.15 2.35.19 3.45.1 2.54-.37 5.03-1.41 7.48-.72 1.72-1.86 3.19-3.43 4.4-.74.58-1.58.95-2.52 1.13s-1.86.07-2.76-.31c-.97-.41-1.66-.88-2.1-1.4-.43-.52-.58-.94-.44-1.27zm21.82-13.266l1.87-3.17c1.15-1.697 2.23-2.205 3.24-1.52.64.437 1.42 1.183 2.33 2.237.91 1.054 1.2 1.815.88 2.284-.33.5-.94.63-1.82.41-.86-1.13-1.61-1.97-2.26-2.53-.32.54-.65 1.07-1 1.58l-3.67 5.06c-.02.03-.11.24-.28.64l1.31.82c1.16.79 1.51 1.51 1.07 2.17-.18.26-.44.42-.78.47-.35.05-.68-.03-1-.25-.32-.22-.66-.48-1-.78l-.92-.62c-.55.96-1.13 1.89-1.75 2.79l-4.59 6.41c-.92 1.35-1.35 2.04-1.3 2.07l2.72 1.72c.91.62 1.17 1.23.77 1.81-.25.36-.59.52-1.01.47s-.84-.21-1.24-.48l-3.04-2.06c-.32-.21-.53-.51-.64-.91s-.07-.74.13-1.05l.64-.95 3.9-6.23 7.38-10.34zm5.9 13.837l-3.37 3.305c-2.72 2.713-4.66 5.046-5.83 6.998l-1.17.48-.86-.856.05-.855c.94-.91 1.98-1.93 3.13-3.08s3.51-3.69 7.09-7.62 6.29-6.82 8.14-8.67c.97-.97 1.79-1.12 2.48-.44 1.07 1.07 1.69 2.25 1.86 3.54.17 1.29-.27 2.45-1.31 3.5l-2.17 2.16c-.59.59-1.24 1.02-1.95 1.28s-1.47.52-2.3.77-1.28.38-1.38.41c-.39.61-1.18 1.79-2.36 3.53-2.6 3.79-4.23 6.76-4.9 8.89-.19.61-.4 1.03-.63 1.25-.23.22-.48.35-.76.38-.28.03-.52-.06-.73-.27-.43-.43-.35-1.34.24-2.72.59-1.38 1.36-2.8 2.33-4.24 2.94-4.41 4.52-6.88 4.73-7.41l-.38-.38zm9.17-8.935l-.54.33c-.84.84-2.04 2.075-3.59 3.702-1.55 1.626-2.68 2.8-3.4 3.52.73.23 1.77-.034 3.12-.795 1.35-.77 2.31-1.43 2.87-1.99s.96-.99 1.19-1.29c.23-.3.46-.66.68-1.08.46-.86.34-1.67-.35-2.42z"/><path d="M171.736 89.784l-1.99 1.85c-.297.192-.946.778-1.947 1.758-1.01.98-1.69 1.585-2.04 1.815l-.04.023c-.54.347-1.01.368-1.43.065-.33-.51-.51-.963-.53-1.355-.02-.393.21-.743.68-1.052 1.03-.67 2.42-1.824 4.16-3.46l-1.81-3.946c-.96.3-1.95.7-2.99 1.207s-1.82.84-2.32 1.02c-1.05.37-1.76.27-2.13-.32-.19-.29-.27-.61-.24-.97.02-.37.18-.64.46-.83l.38-.12c7.39-2.47 14.35-5.26 20.86-8.36.18-.09.69-.37 1.53-.84 1.86-1.04 3.14-1.55 3.84-1.53l.8 1.23c.21.33.33.67.33 1.02.01.35-.15.62-.45.82-1.86 1.2-4.44 3.23-7.77 6.09s-5.79 4.81-7.39 5.85zm-1.968-1.43c.31-.304.908-.742 1.793-1.317.89-.574 1.95-1.338 3.2-2.29 1.25-.953 2.68-2.09 4.3-3.41s2.8-2.27 3.53-2.85c-6.83 2.867-11.6 4.954-14.32 6.26 0 .592.5 1.794 1.51 3.606z"/></g></svg>