<svg xmlns="http://www.w3.org/2000/svg" width="250" height="250" viewBox="0 0 250 250"><path d="M57.837 175.87c-.038-1.138-.368-2.368-1.007-3.75-.008-.02-.016-.035-.024-.052-.07-.306-.173-.607-.308-.9-.158-.344-.36-.687-.636-1.068-.042-.076-.085-.15-.13-.225-.082-.27-.173-.513-.28-.74-.19-.413-.435-.783-.726-1.103-.26-.393-.568-.72-.89-1.014-.188-.376-.423-.714-.697-1.008-.38-.538-.84-.964-1.31-1.352-.07-.054-.13-.102-.17-.144-.38-.444-.85-.787-1.37-1.024 1.59-1.488 2.37-3.638 2.07-6.128-.02-.17-.05-.335-.09-.497-.01-.064-.02-.13-.04-.193-.29-1.44-1.21-2.626-2.75-3.533-.32-.35-.69-.63-1.1-.85l-.09-.06c.42-.34.8-.72 1.13-1.17 1.57-1.6 1.67-3.17 1.46-4.25-.14-.66-.4-1.28-.82-1.86-.3-.5-.71-.93-1.2-1.26-.09-.07-.19-.11-.29-.17.6-1.1.89-2.02.9-2.93 0-.14-.01-.57-.07-1.29-.02-.27-.04-.47-.05-.59 0-.48-.08-.94-.23-1.37l-.04-.31c-.04-1.44-.76-2.57-2.69-5.24-.16-.23-.35-.44-.56-.63l-.02-.02c1.8-.6 2.74-2.05 3.01-3.35l.17-.85c.41-1.98-.43-3.47-2.97-6.34.11.01.17.02.19.02.08.02.16.03.24.04.18.05.37.08.57.11.16.02.32.03.48.03.52 0 1.01-.1 1.47-.29H49c.775 0 1.54-.22 2.19-.65l.4-.26c.89-.59 1.51-1.5 1.73-2.54.116-.57.14-1.16.06-1.81-.06-1.42-.873-2.7-2.12-3.36.318-.38.58-.8.77-1.25.11-.25.19-.44.27-.58.21-.31.375-.63.49-.97.285-.56.44-1.2.43-1.85 0-.57-.05-1.13-.134-1.69.19-.02.37-.04.554-.08.25.03.5.05.75.05.154 0 .395-.02.55-.04 1.42-.16 2.642-1.08 3.21-2.39.143-.34.25-.7.33-1.16.3-1.23 0-2.56-.845-3.54-.24-.29-.57-.6-1-.86-.163-.2-.336-.38-.52-.55-.38-.34-.83-.6-1.3-.77-.29-.31-.63-.55-1-.74-.14-.11-.29-.21-.45-.3-1.56-.86-2.72-1.5-3.49-1.93-2.66-1.97-4.56-3.16-5.97-3.76-.55-.23-1.14-.35-1.75-.35-.74 0-1.5.17-2.42.54l-.16.06c-.13-.01-.258-.02-.38-.02-1 0-1.97.38-2.71 1.06-.35.2-.743.47-1.104.84-.44.38-.8.87-1.05 1.44L34 94c-.315.733-.4 1.544-.25 2.328.764 3.965 2.164 7.5 4.16 10.564-.73-.27-1.18-.4-1.52-.47-1.166-.242-2.154-.36-3.02-.36-3.538 0-5.23 2.083-5.634 4.03-.32 1.543-.205 2.88.347 3.99l-.163.04c-1.82.442-3.18 1.83-3.55 3.62-.33 1.584-.035 3.957 3.262 6.267.893.61 1.63 1.05 2.3 1.34-.514.08-1 .25-1.43.51-1.1.08-2.124.61-2.82 1.48-.728.9-1.336 2-1.86 3.36-.405 1.05-.35 2.22.15 3.22.122.24.266.47.432.68.02.26.056.52.11.77-.054 3.42 2.14 6.56 6.69 9.6.25.17.484.32.724.47-1.823 1.01-2.975 2.91-3.102 5.31-.057 1.07.32 2.1 1.014 2.88-.795.32-1.41.83-1.88 1.28-1.842 1.73-1.807 3.53-1.623 4.45.693 3.45 4.43 4.73 8.55 5.49-.914 1.21-1.698 2.67-2.33 4.39-.17.45-.32.9-.46 1.35-.655-.5-1.514-.95-2.658-1.45-.7-.76-1.65-1.21-2.65-1.28-.2-.04-.68-.13-1.78-.38-1.28-.28-2.26-.42-3.09-.42-.89 0-1.65.15-2.33.47-.63.29-1.17.73-1.56 1.28-1.35 1.33-2.59 3.64-2.34 7.55.1 2.35.59 4.49 1.45 6.36l.12.27c.13.28.29.55.47.79-.45 1.34-.71 2.84-.02 4.33 1.32 2.85 4.73 2.9 7.78 2.95h.6c2.73 0 4.02-.16 4.9-.39l19.25-3.31c.34-.06.58-.13.9-.27.03-.02.39-.16 2.16-.75.68-.25 1.24-.46 1.7-.64.23-.02.45-.04.66-.07.49-.08.96-.25 1.38-.49.28-.1.55-.23.8-.39.32-.21.61-.45.85-.73.22-.09.45-.2.68-.33 1.04-.57 1.73-1.55 1.97-2.63.27-.8.3-1.68.02-2.54-.51-1.6-1.95-2.66-3.56-2.76zm-29.662 4.395c-.076-.06-.18-.146-.317-.27l.19.09c.063.063.128.125.196.186h-.07zm13.418-1.924c-.02-.05-.043-.1-.066-.14-.48-1.04-.51-2.42-.093-4.1.44-1.77.937-2.23.92-2.23.085-.04.194-.07.322-.09.11.02.218.03.324.05.13.07.34.18.654.36.45.26.867.49 1.26.68.307.34.674.65 1.117 1.04.13.11.23.2.31.28.16.22.34.42.53.6.24.45.45.82.65 1.12.13.2.28.38.43.55.07.32.17.65.32.95l.03.05c-2.53.34-4.76.65-6.68.93zM116.798 54.7c.066-.42.064-.84 0-1.25 0-.178-.012-.357-.036-.538-.236-1.764-.41-3.08-.516-3.95.003-3.307-.16-5.548-.513-7.045-.447-1.89-2.017-2.863-2.613-3.233l-.152-.09c-.326-.544-.778-1.007-1.327-1.347-.41-.255-.86-.43-1.33-.522-.39-.17-.83-.327-1.36-.39-.28-.06-.56-.09-.85-.09-.3 0-.61.034-.91.105l-.94.222c-.78.183-1.48.595-2.02 1.182-2.06 2.235-3.71 4.62-4.95 7.123.11-.75.01-1.352-.3-2.084-.19-.432-.43-.843-.79-1.3-.75-1.114-2.01-1.76-3.32-1.76-.53 0-1.07.106-1.59.33l-.53.23c-.81.356-1.47.96-1.89 1.71-.1.09-.19.184-.28.28-.63-.32-1.34-.49-2.08-.49-.68 0-1.36.145-2.01.43-1.82.79-2.82 2.385-3.37 4.37-.65-.712-1.47-1.29-2.47-1.7-1.1-.42-2.07-.626-2.98-.626-1.04 0-1.99.262-2.82.784-.11.07-.21.15-.31.22-.44.15-.81.32-1.15.53-3.05 1.92-4.41 5.71-4.05 11.27.05.67.11 1.31.19 1.94-.42-.2-.92-.44-1.55-.75.17-.67.28-1.19.34-1.6.14-1-.1-2.02-.68-2.85-4.07-5.85-4.4-6.22-4.63-6.5-.94-1.07-1.95-1.85-3.02-2.32-.07-.08-.1-.12-.1-.12-.3-.41-.68-.77-1.12-1.04-1.28-.79-2.75-1.2-4.37-1.2h-.11c-.36.01-.73.06-1.07.16-1.05.05-2.04.46-2.87 1.19-.35.31-.69.7-1.17 1.33-.08.12-.16.21-.22.28-.83.8-1.28 1.92-1.23 3.07-.31 1.89.03 3.97 1 6.14.82 1.91 1.99 3.75 3.5 5.47 1.12 1.28 2.21 2.26 3.39 3.03l3.17 2.01c.78.51 1.57.89 2.37 1.16.94.49 1.73.87 2.39 1.14.81.5 1.43.9 1.86 1.19.3.21.63.38.98.5.04.04.08.09.12.14.19.21.35.42.48.62-.21-.06-.37-.12-.49-.16-.54-.6-1.16-.95-1.78-1.23-.68-.51-1.52-.78-2.38-.78-.13 0-.26.01-.39.02-.18.02-.36.05-.53.09-1.36.1-2.6.9-3.25 2.13-.74 1.41-.57 3.12.42 4.36 1.62 2.03 2.97 3.36 4.26 4.2.17.11.35.21.54.29 1.31.59 2.97 1.12 5.08 1.63.3.07.61.11.91.11.63 0 1.26-.15 1.82-.44 1.38-.24 2.68-.88 3.81-1.87.53-.47.99-1 1.35-1.6l.83-1.28c.57-.87.9-1.91 1.03-3.12 1.83.57 3.16.83 4.26.83.68 0 1.3-.1 1.87-.3.66-.07 1.28-.3 1.82-.67.89-.26 1.66-.83 2.18-1.6.62-.55 1.06-1.28 1.24-2.11.13-.56.36-1.58.07-2.7h.06c.69 0 1.3-.06 1.86-.19 1.16-.26 2.14-1.03 2.68-2.09.35-.69.49-1.47.41-2.23.15-.48.31-.97.47-1.48.24-.79.41-1.49.52-2.12.31-.71.42-1.5.28-2.29.04-.18.12-.53.29-1.05-.05.69-.01 1.34.14 1.95.23.97.74 1.87 1.52 2.66.15.15.3.3.45.43.19.22.41.41.65.58 1.1.79 2.27 1.19 3.48 1.19.41 0 .82-.05 1.21-.14.26-.06.47-.11.63-.13.37-.01.72-.07 1.06-.17.63-.11 1.23-.36 1.75-.75.46-.34.88-.71 1.28-1.11.12.14.25.27.39.4.19.36.43.72.75 1.05.77.82 1.83 1.28 2.93 1.28.3 0 .61-.04.91-.11.45-.11.82-.27 1.12-.42 1.18-.49 2.07-1.52 2.36-2.79.09-.37.14-.82.1-1.32.06-.25.1-.49.13-.73.05-.52-.01-1.03-.15-1.52zm-33.74 8.365c.132-.46.26-.98.385-1.572.022.056.04.117.064.17.142.33.347.667.592 1.023-.19.05-.39.098-.57.177-.19.08-.35.15-.48.203z" opacity=".15" fill="#050505"/><circle opacity=".15" fill="#050505" cx="131.833" cy="139.749" r="82.917"/><linearGradient id="a" gradientUnits="userSpaceOnUse" x1="124.999" y1="78.627" x2="124.999" y2="270.061"><stop offset="0" stop-color="#1B1440"/><stop offset=".819" stop-color="#ED1E79"/></linearGradient><circle fill="url(#a)" cx="125" cy="134.799" r="83.168"/><path fill="#FFF" d="M116.684 205.94s-.505 9.288 16.496 11.622c8.195-.8 16.037-2.8 23.36-5.803 2.468-2.36 3.606-4.98 3.135-7.1-1.28-5.76-42.99 1.28-42.99 1.28z"/><path fill="#FFF" d="M120.688 217.855c1.428.074 2.865.11 4.312.11 5.3 0 10.474-.517 15.496-1.462l.05-5.127-21.208-.768 1.35 7.247z"/><path fill="#D0D1D2" d="M120.937 201.4s-.41 7.496 13.35 9.344c13.763 1.85 22.183-5.75 21.155-10.37-1.027-4.622-34.505 1.026-34.505 1.026z"/><path fill="#FFF" d="M153.02 181.244c-7.257-6.006-4.126-29.557-4.126-29.557l-24.245 1.908s8.41 15.557 1.24 31.232c-7.36 16.084-9.14 20.053 16.37 18.426 4.83-.705-3.51-1.06 1.02-2.56 15.65-7.916 15.54-14.638 9.72-19.45z"/><path fill="#D0D1D2" d="M145.172 157.04s-2.757 16.083 7.12 26.65c9.88 10.563-15.85 14.93-15.85 14.93l-6.948-12.407s5.57-18.604.746-27.563l14.932-1.61z"/><path fill="#1F4AB5" d="M126.31 162.9l10.565 4.024 2.808 40.615-24.807-.14"/><path fill="#1F4AB5" d="M150.26 161.512l-9.572 5.1-1.79 40.697 23.79.09M133.156 75.11s-40.464 46.254-18.968 94.365l-11.516 2.045s-37.49-37.873-23.16-71.652"/><path fill="#0F3C96" d="M78.554 108.888s-.192 33.78 25.334 54.506l5.374.193 2.88-.18-2.304-8.65s-23.223-49.9-31.284-45.87z"/><g fill="#6593EF"><path d="M116.46 172.322c-.137-.64-.63.217-.448-.586l-.117.184c.05-.383.084-.77.084-1.168 0-.06-.01-.115-.01-.172.07-.182.03-.465-.04-.723-.04-.428-.13-.842-.23-1.248l.12-.01c-.08-.05-.14-.15-.19-.25-.03-.09-.05-.19-.08-.28 0-.07.02-.13.06-.17.3-.05.27.48.36.69-.21-.93.36-1.18-.21-1.87l-.03.17c-.49-.35-.36-1.02-.6-1.43.12.08.24.03.26-.06-.83-.7-1.29-1.67-2.37-2.26l-.07-.51-.17.2c-.53-.27.12-.4-.22-.59.13.07.08.09.07.16-.45-.6-.47.01-.76-.24.02.32.59.43.24.66-.42-.56-1.4-.93-1.26-1.53-.67-.07-1.33-.36-2-.57-.69-.15-1.36-.34-1.92-.4-.15.12.09.08.03.17-.45-.33-1.43.39-1.46.07-.2.11-.24.36-.28.45-.3-.15-.63-.08-.98-.04l.27.02-.02.05-.38-.02V161c-.42.1-.9.19-1.33.37-.42.19-.85.34-1.3.39.52-.04.1.39.36.4-.65-.31-1.43.37-2.02.92.08.074.09.18.22.18 0 0-.5.134-.49.153l.13.04c-.42.69-1.53 1.01-1.59 1.655.22-.27.31-.205.48-.13-.31.493-.57.972-1.04 1.52.04-.02.09-.03.12-.01-.06.17-.25.32-.36.48l.23.11c-.22.29-.23.76-.55 1.11.18.2-.47.94-.39 1.464-.08.18.34-.37.27.14-.57.03-.08.67-.69.696-.02 0 .22.48.23.47l-.3.11c.6.37-.2.64.05 1.24.06-.04.07-.11.12-.082-.04.2-.03.66-.22.34-.03.34.24 1.43.38.88-.16.07-.15-.4-.14-.6.26-.03.3.45.61.49-.03.02-.05.09-.08.14l.17.02c-.08.64.23 1.17.12 1.69.08-.01.19.052.27.24l-.29.16.32.57.27-.495c.39.56.18 1.28.53 1.78.52-.24.55 1.07 1.3 1.05-.01.01-.23-.4-.22-.41.62.74.98.55 1.54 1.26-.7-.33-.62-.39-1.79-.82 1.02.55 1.29 1.61 2.44 1.81 0-.15-.19-.34.1-.34.04.35.85.45.58.68.34.05.5-.19.69-.16l.89.7-.02-.07c.98-.03 1.75.14 2.6.4.42.16.85.25 1.3.25.45.02.91-.01 1.36-.15l-.07-.16c0 .02.51.17.51.15-.39-.06.11-.25.09-.41l1.25.01c-.03-.15-.21-.45-.46-.31.36-.3.94-.08 1.29-.27l-.18-.08.4-.07-.1-.19c.61-.23 1.22-.76 1.57-.66l-.26-.24.7-.21-.45.06c.55-.52 1.6-1.08 1.67-1.26l-.14-.03c.03-.14.15-.15.27-.23l-.21-.05c.38-.42.54-.76.7-1.09.13-.36.25-.73.64-1.23.12-.32-.15.14-.25.1-.05-.24.28-.54.41-.6-.33-.03-.48.44-.52 0 .26-.17-.34.05-.07-.34 0 .01.42-.02.42-.02.02-.28-.27-.16-.11-.54.3-.4.24.72.53-.02.07-.41-.56-1.01-.28-1.66zm-18.927 3.192l-.106-.25c.103.105.275.132.106.25zm.842-1.192c-.047-.168-.1-.2.1-.258.056-.11-.088-.2-.032-.31.268.254-.047.348-.068.568zm17.123-6.45c.01-.02.038-.028.04-.052-.004.057 0 .115.004.172-.012-.04-.03-.078-.044-.12zm-.307-1.32c-.02.222.62.628.32.964.01-.004-.18-.453-.2-.443.04.184.08.36.09.525-.11-.297-.23-.588-.38-.87.03-.054.07-.12.18-.175zm-.75-1.28c0-.167-.18-.382-.02-.522.43.135.29.504.41.72l-.17-.044c.07.29.03.47-.02.61-.04-.064-.07-.128-.11-.19.01 0 .02-.01.03-.01-.21-.333-.52-.84-.43-1.226.35.076.19.69.34.663zm-.88-1.46l-.06.313-.24-.227.31-.087zm-.11.56c.07.12.13.237.19.356-.28-.313-.58-.615-.91-.885-.05-.164-.09-.338-.3-.39v.157c-.09-.068-.18-.14-.27-.203 0-.033-.02-.104-.08-.252.53.283.99.74 1.39 1.216zm-3.29-2.106l.13-.098.18.074-.3.024zm-1.23-.41c.07.062.14.132.2.198-.28-.068-.57-.123-.86-.164-.02-.023-.05-.045-.08-.07.22-.226.49-.154.74.037zm-2.15-.567c.35-.38 1.05.69.89-.24.15.12.6.4.42.54-.37-.07-1.09-.11-1.35.13.02-.06.01-.13-.03-.19.15.04.36-.02.46-.08-.05-.15-.28-.11-.37-.18zm-.97.52c.03.02.07.03.1.06-.17.02-.35.05-.52.08.09-.1.33-.13.42-.14zm-3.32-.06l.2.02c-.31.32-.18.1-.19-.02l-.23-.02c.18-.08.23-.05.24.02zm.04.35c-.19.13-.7.46-.64.4-.05-.19.46-.44.64-.41zm-.41 1.15l-.01.01c-.12-.01-.23-.04-.27-.15.27-.06.22.08.29.13zm-2.05 1.43c.32-.12.11-.24.18-.4l.14.27c-.4.22-.55.13-1.05.19.18-.46.62-.25.73-.08zm-.85-.26c-.03.28.28.56-.26.56l.26-.56zm-1.01 7.8l.06.36c-.08 0-.16.01-.3 0 .13-.12.2-.25.24-.37zm.29 4.25c-.02-.13-.04-.2-.1-.27-.08.12-.11.45-.24.31.06-.2-.11-.6.07-.71-.01.45.62.35.28.66zm.55-1.29c.08-.07.11-.15.11-.22.02.04.05.08.07.12-.03.04-.07.09-.17.1zm1.67 3.06l.06-.2.08.03-.18-.32c.52.08.45.66.59.89-.15-.15-.28-.87-.54-.41zm1.39-.05l.05.03-.01.04c-.02-.02-.02-.05-.04-.08zm1.52 2.19c.23.23.45-.11.57.33-.37.22-.46-.16-.57-.33zm.85.09c.46.02-.12-.4.19-.42l-.22-.04c.41-.13.19.33.46.34l-.18-.01c-.18.17.23.22.23.4-.22.03-.65-.28-.47-.27zm4.23-.74c.06-.05-.03-.15-.16-.2.14-.03.28-.05.42-.08.01.11-.14.12-.25.27zm4.82-1.23c.1-.31.16-.28.34-.35.02.1-.15.27-.34.34zm.43-.17c.19-.46.47-.06.68-.25-.11.42-.38.06-.67.24zm1.6-4.65c-.02.01-.04 0-.06 0 .03-.09.07-.17.09-.25.04.01.07.04.09.11l-.11.13zm.98-4.56c-.01.26-.21.23-.07.5l.07-.5z"/><path d="M116.146 169.398l-.03-.27-.122.27m-19.086 4.152l-.133-.017c.054.13.097.088.133.018zm.092-5.24c.02-.022.03-.036.047-.054-.03-.03-.077-.055-.147-.068l.1.12zm.07 7.262c.07-.11.11-.215.136-.313-.098.01-.17.13-.137.31zm.343-8.79c.05-.085.116-.15.175-.226-.075.034-.173.1-.175.227zm6.77-5.76l-.01.03.12-.026"/></g><path fill="#FFF" d="M131.25 168.506l-.422.674c-.27.436-.706 1.098-1.162 1.887-.95 1.568-2.293 3.975-3.847 6.877-1.57 2.908-3.35 6.363-5.46 10.06-1.05 1.847-2.19 3.755-3.5 5.665-1.31 1.9-2.73 3.84-4.6 5.65l-1.51 1.31c-.57.41-1.14.82-1.75 1.2-1.29.71-2.74 1.36-4.41 1.54-.41.04-.82.09-1.23.11l-1.24-.1c-.85-.04-1.58-.3-2.33-.53-1.46-.51-2.71-1.24-3.75-2.03-2.11-1.58-3.64-3.33-4.91-5-1.31-1.67-2.33-3.31-3.26-4.82-1.8-3.04-3.08-5.61-3.94-7.42l-1.34-2.85 7.6-3.25 1.14 2.71c.73 1.72 1.83 4.15 3.3 6.91.76 1.35 1.59 2.81 2.57 4.19.96 1.39 2.09 2.72 3.27 3.69 1.21 1 2.28 1.42 3.29 1.34 1.03-.03 2.46-.77 3.84-2.01 1.38-1.22 2.69-2.81 3.91-4.45 1.23-1.65 2.37-3.38 3.44-5.11 2.15-3.44 4.07-6.81 5.78-9.69 1.7-2.89 3.16-5.27 4.29-6.98.55-.86.98-1.46 1.28-1.89l.45-.66 4.44 2.93z"/><ellipse transform="rotate(90.11 133.59 123.97)" fill="#FFF" cx="133.589" cy="123.967" rx="37.279" ry="46.525"/><ellipse transform="rotate(84.65 133.84 124)" fill="#D0D1D2" cx="133.836" cy="123.996" rx="31.373" ry="41.126"/><ellipse transform="rotate(90.47 156.05 121.15)" fill="#FFF" cx="156.052" cy="121.152" rx="17.431" ry="17.684"/><ellipse transform="rotate(90 117.69 122.56)" fill="#FFF" cx="117.707" cy="121.588" rx="19.561" ry="19.691"/><path fill="#919396" d="M95.826 102.162c.01-.012-5.998 8.136-6.138 10.87l-1.245-2.23s-9.338-14.677 7.383-8.64z"/><path fill="#D0D1D2" d="M100.103 99.843s-9.04-6.49-15.365-2.837c0 0-8.255 6.424 2.348 17.858l2.56 3.074s2.123-1.44 1.837-4.755c0 0-12.226-14.933 5.414-9.474 0 0 2.885-.09 3.206-3.87z"/><path fill="#919396" d="M169.824 102.162c-.01-.012 5.998 8.136 6.14 10.87l1.243-2.23s9.338-14.677-7.383-8.64z"/><path fill="#D0D1D2" d="M165.55 99.843s9.038-6.49 15.364-2.837c0 0 8.255 6.424-2.35 17.858l-2.558 3.074s-2.124-1.44-1.84-4.755c0 0 12.228-14.933-5.412-9.474 0 0-2.885-.09-3.205-3.87z"/><path fill="#0071BC" d="M114.88 107.443c7.856-1.44 15.39 3.764 16.83 11.62 1.44 7.855-3.76 15.39-11.616 16.828-7.856 1.45-15.39-3.76-16.83-11.61-1.44-7.85 3.76-15.39 11.615-16.83z"/><path fill="#0F4481" d="M113.52 111.94c4.035-.738 7.906 1.934 8.645 5.97.74 4.034-1.932 7.905-5.967 8.64-4.036.743-7.907-1.93-8.645-5.963-.74-4.037 1.93-7.908 5.968-8.646z"/><circle fill="#FFF" cx="116.527" cy="118.94" r="3.948"/><circle fill="#FFF" cx="107.498" cy="119.556" r="1.922"/><circle fill="#0071BC" cx="153.564" cy="120.017" r="12.923"/><path fill="#0F4481" d="M150.02 111.327c3.607-.663 7.065 1.724 7.727 5.33.66 3.606-1.727 7.063-5.334 7.727-3.604.66-7.063-1.726-7.723-5.33-.662-3.61 1.724-7.066 5.33-7.727z"/><circle fill="#FFF" cx="152.705" cy="117.58" r="3.529"/><circle fill="#FFF" cx="144.636" cy="118.132" r="1.717"/><path fill="#D0D1D2" d="M138.69 132.11s-19.448-6.524-32.69 10.75l18.328 3.933 15.834-6.813-1.472-7.87z"/><path fill="#6D6F71" d="M130.813 139.105c.195-.053.373 1.37 1.663 2.943.596.807 1.694 1.492 2.9 1.55 1.202.067 2.553-.608 3.208-1.813l.26-.588.21-.936c.122-.56.245-1.13.367-1.68.8 4.1 1.45 4.03 2.32 4.28.2-.04.4-.03.6-.19.21-.11.42-.22.57-.4l.25-.24.18-.29c.14-.18.23-.38.3-.6.63-1.83.32-3.24.53-3.24.07-.01.2.31.3.91.1.6.17 1.5-.13 2.59-.31.97-1.05 2.14-2.57 2.36-.78.01-1.44-.45-1.89-.98-.12-.13-.23-.27-.32-.43l-.08-.13c-.01.03.03-.04-.03.07-.84 1.54-2.56 2.37-4.09 2.25-.77-.04-1.47-.32-2.05-.68-.59-.34-1.04-.82-1.39-1.31-1.29-1.88-1.16-3.41-1.07-3.39z"/><path fill="#0B8ECC" d="M139.602 133.25s-2.06-4.205-4.86 3.21l4.66 4.01 4.073-3.647c0-.003-2.614-6.884-3.873-3.573z"/><path fill="#FFF" d="M135.682 136.396l2.006 1.713s-.448-2.5-2.006-1.72zm5.542 1.74l1.42-1.14s-1.044-.516-1.42 1.14z"/><path fill="#D0D1D2" d="M95.188 129.553s15.322-10.205 43.056-11.835l-7.294-20.73-14.01 1.857-12.027 4.86-6.142 7.935-3.58 17.913z"/><path fill="#D0D1D2" d="M141.762 99.868l-3.71 18.233s18.232-1.4 36.21 6.08l-.32-5.69s-1.344-8.15-3.84-9.79c-2.495-1.63-19.447-12.67-28.34-8.83z"/><path fill="#6593EF" d="M140.482 76.326s4.86-1.792 6.142 5.117 10.236 2.815 14.33 11.26c0 0 .608 1.695-.83 2.08s-28.087-8.605-73.38 31.188c-.216.19 0 0 0 0s-5.886 1.79-4.607-6.91c1.28-8.7-6.717-7.99-2.624-12.85 3.93-4.66 34.545-26.09 58.06-29.53.984-.14 1.954-.26 2.91-.34z"/><path fill="#1F4AB5" d="M142.273 78.117s-2.56-8.19-11.516-6.91c-8.956 1.28-49.133 9.47-52.204 32.5 0 0 1.792 5.117 3.327 5.374 1.537.26 60.393-30.96 60.393-30.96z"/><path fill="#6D6F71" d="M132.602 139.24c0-.002-.25.01-.592.053-.174 0-.37.043-.574.078-.21.01-.403.1-.612.14-.16.13-.394.13-.53.26-.12.14-.336.18-.42.32-.2.25-.41.43-.41.43l-.035.03c-.06.05-.15.04-.2-.02-.03-.02-.04-.06-.04-.09 0 0 .01-.26.15-.68.05-.21.25-.4.44-.61.19-.2.47-.33.74-.46.27-.05.56-.14.82-.14.26 0 .5.02.7.06.4.08.64.21.64.21l.01.01c.11.07.16.22.09.33-.05.08-.12.12-.2.13zm7.314 7.242c-.002 0 .256-.086.6-.234.183-.055.375-.156.578-.258.217-.074.395-.23.6-.34.133-.176.374-.26.475-.44.08-.185.29-.302.33-.478.12-.326.27-.578.27-.578l.02-.037c.04-.064.12-.086.19-.047.03.02.05.055.06.09 0 0 .06.283.04.754 0 .236-.14.488-.27.76-.14.268-.38.48-.62.697-.27.15-.53.33-.8.41-.27.09-.52.15-.74.17-.44.06-.73 0-.73 0h-.02c-.13-.02-.22-.15-.19-.28.02-.09.08-.15.16-.18z"/><circle fill="#FFF" cx="84.951" cy="70.182" r="1.271"/><circle fill="#FFF" cx="160.698" cy="81.443" r="1.271"/><circle fill="#FFF" cx="62.021" cy="112.549" r="1.271"/><circle fill="#FFF" cx="62.021" cy="142.549" r="1.271"/><circle opacity=".3" fill="#FFF" cx="175.029" cy="86.562" r="1.588"/><circle opacity=".3" fill="#FFF" cx="129.99" cy="60.714" r="1.588"/><circle opacity=".3" fill="#FFF" cx="51.751" cy="131.215" r="1.589"/><circle opacity=".3" fill="#FFF" cx="79.084" cy="148.883" r="1.589"/><path fill="#FFF" d="M73.623 167.416c12.376 9.244 4.348-3.025 2.08-7.373-2.647-5.104 1.89-8.127 5.86-3.97 2.834 3.024 4.442 9.735 5.576 13.515 0 0 8.04-10.252 11.62-5.67 1.51 1.938 1.51 4.82-1.33 5.576-3.68 1.002-5.29 1.566-6.13 5.076 1.49 4.387-.28 6.33-2.85 7.848-2.16 1.273-4.74 2.672-7.66.877-.79-.53-1.29-1.303-1.68-2.11l-.02.03-.11-.297c-.38-.848-.91-2.414-.91-2.414-.96-2.248-2.02-3.342-5.41-3.904-2.84-.566-7.38-.38-8.7-3.78-1.89-5.484 5.86-6.23 9.64-3.404z"/><path fill="#D0D1D2" d="M87.14 169.588s-1.89 2.223-3.426 7.87c0 0 .92-4.796.542-4.94 0 .002.946-1.89 2.884-2.93"/><path fill="#1F4AB5" d="M132.294 168.463l-.353.623c-.21.396-.59 1.023-.96 1.734-.76 1.404-1.86 3.61-3.13 6.25-1.29 2.705-2.8 5.86-4.41 9.24-1.71 3.428-3.56 7.123-6.17 10.86-1.33 1.862-2.83 3.76-4.95 5.54-1.07.885-2.32 1.738-3.83 2.414-1.5.662-3.29 1.164-5.12 1.186-.46.012-.91.01-1.37-.002-.44-.035-.87-.11-1.31-.182-.43-.076-.86-.16-1.29-.252-.39-.117-.76-.252-1.14-.387-.76-.27-1.51-.566-2.1-.916-.6-.33-1.28-.68-1.79-1.05-1.02-.73-2.03-1.48-2.77-2.21l-1.16-1.09-.97-1.06c-.31-.34-.62-.69-.92-1.02-.26-.33-.52-.66-.77-.97-.49-.63-1-1.24-1.39-1.81-.77-1.13-1.51-2.13-2.01-2.95l-1.61-2.57 14.01-7.21 1 2.23c.31.72.74 1.48 1.21 2.43.23.48.51.89.78 1.38l.43.73.46.67c.16.23.32.47.48.71l.48.61c.33.47.64.73.95 1.08.61.56.88.73.89.85 0 .15.55.24 1.58-.38 1-.57 2.2-1.64 3.35-2.86 2.33-2.49 4.54-5.65 6.58-8.65l5.58-8.49c1.67-2.54 3.09-4.61 4.2-6.13.54-.77.95-1.26 1.23-1.65l.43-.57 5.95 3.93z"/><path fill="#0F3C96" d="M126.343 164.535l2.274 3.42 3 .25-2.125 3.75 9.425 11.885-2.073-18.354-10.535-2.586m24.16.368l-1.61 4.187-3.06.656 2.12 3.75-8.98 11.98 1.7-18.66 9.59-3.65"/><path fill="#E53017" d="M187.436 189.71c-3.606-6.903-14.584-24.114-29.936-13.327 0 0-19.833 2.303-30.453 14.842 0 0-5.117-.254-5.245 1.408-.085 1.11 7.81 14.584 16.495 24.264 19.47-3.13 36.67-13.02 49.14-27.186z"/><path fill="#AF1E0B" d="M157.31 176.408c-.9.12-5.003.725-10.17 2.4 4.484 4.367 14.497 14.88 20.863 27.19 2.75-1.667 5.384-3.5 7.915-5.462-4.998-7.946-12.69-19.304-18.61-24.128z"/><path fill="#1F4AB5" d="M182.82 193.963c-.303-.84-.61-1.697-.926-2.57-.57-1.748-1.435-3.496-2.226-5.27-.37-.896-.905-1.75-1.37-2.623-.5-.863-.92-1.754-1.492-2.588-1.104-1.68-2.197-3.348-3.502-4.87-.61-.778-1.236-1.536-1.947-2.23-.696-.698-1.33-1.417-2.053-2.056-.734-.623-1.46-1.236-2.166-1.836-.72-.586-1.52-1.076-2.248-1.586-.715-.52-1.503-.938-2.266-1.33-.77-.39-1.457-.813-2.243-1.072l-2.17-.807c-.73-.19-1.43-.342-2.08-.488-.33-.068-.64-.135-.95-.197-.36-.03-.7-.063-1.03-.09-.66-.05-1.27-.078-1.81-.096-.3-.02-.48.002-.64.025-.17.02-.33.03-.48.05l-.76.09c-.41.05-.21.87-.21.87l-.1 6.33s.22.01.64.02c.21 0 .47.01.77.02l.49.01c.19 0 .37.01.45.06.23.08.47.16.73.23l.41.09.55.23 1.21.48 1.31.75c.46.21.9.62 1.37.95.47.33.95.68 1.4 1.15.45.45.95.84 1.4 1.35l1.35 1.56c.45.53.84 1.17 1.27 1.75.44.58.82 1.23 1.19 1.89.8 1.27 1.43 2.7 2.08 4.11.34.69.55 1.46.84 2.18.26.74.57 1.43.75 2.19.4 1.5.87 2.92 1.1 4.41l.42 2.13c.14.69.18 1.41.27 2.08.16 1.35.35 2.61.36 3.83l.06 1.25c4.47-2.93 8.64-6.28 12.46-9.99-.05-.15-.09-.31-.14-.46z"/><path fill="#D0D1D2" d="M127.59 194.775c-2.558-2.56-6.044.096-6.044.096-9.596 5.64 7.805 14.78 7.805 16.96s4.1 2.82 4.1 2.82.74 1.1 1.85 2.67c3.54-.43 7.01-1.07 10.4-1.94-6.43-8.18-16.36-18.85-18.1-20.59z"/><path fill="#FFF" d="M62.052 102.868s-.164-1.877-.57-2.313c-.413-.435-2.29-.706-2.29-.706s1.905-.19 2.34-.61c.422-.41.666-2.27.666-2.27s.153 1.86.553 2.29c.42.44 2.31.72 2.31.72s-1.83.14-2.26.54c-.44.41-.74 2.33-.74 2.33zm2.208 35.054s-.256-2.947-.895-3.63c-.647-.685-3.592-1.11-3.592-1.11s2.99-.295 3.672-.955c.663-.645 1.046-3.553 1.046-3.553s.24 2.922.87 3.6c.65.695 3.62 1.14 3.62 1.14s-2.88.222-3.55.843c-.7.655-1.16 3.665-1.16 3.665zm87.974-64.68s-.258-2.946-.896-3.63c-.646-.683-3.592-1.11-3.592-1.11s2.988-.293 3.672-.953c.662-.65 1.045-3.56 1.045-3.56s.24 2.92.87 3.6c.647.69 3.62 1.14 3.62 1.14s-2.885.22-3.554.84c-.71.65-1.17 3.66-1.17 3.66z"/><path fill="#0F3C96" d="M124.587 170.615l.08-.316 1.268-5.23-.025.03c-.286.38-.69.88-1.233 1.65-1.113 1.52-2.53 3.59-4.206 6.13l-.03.06c1.04 3.55.32 12.6.32 12.6l3.84-14.94zm28.35 1.31s-3.187-.814-3.624-.064.313 6.44.313 6.44l5.063-.87-1.76-5.5z"/><circle fill="#FFF" cx="186.544" cy="153.607" r="1.271"/><circle opacity=".3" fill="#FFF" cx="179.379" cy="169.984" r="1.588"/><path opacity=".3" fill="#FFF" d="M199.904 138.508c0 .88-.71 1.59-1.588 1.59s-1.59-.71-1.59-1.59c0-.875.713-1.588 1.59-1.588s1.588.713 1.588 1.588z"/><path fill="#FFF" d="M178.344 151.492s-.164-1.877-.57-2.313c-.412-.44-2.288-.71-2.288-.71s1.903-.19 2.34-.61c.42-.41.665-2.26.665-2.26s.16 1.86.56 2.29c.42.44 2.31.72 2.31.72s-1.83.14-2.26.53c-.45.42-.74 2.33-.74 2.33zM55.837 173.87c-.038-1.138-.368-2.368-1.007-3.75-.008-.02-.016-.035-.024-.052-.07-.306-.173-.607-.308-.9-.158-.344-.36-.687-.636-1.068-.042-.076-.085-.15-.13-.225-.082-.27-.173-.513-.28-.74-.19-.413-.435-.783-.726-1.103-.26-.393-.568-.72-.89-1.014-.188-.376-.423-.714-.697-1.008-.38-.538-.84-.964-1.31-1.352-.07-.054-.13-.102-.17-.144-.38-.444-.85-.787-1.37-1.024 1.59-1.488 2.37-3.638 2.07-6.128-.02-.17-.05-.335-.09-.497-.01-.064-.02-.13-.04-.193-.29-1.44-1.21-2.626-2.75-3.533-.32-.35-.69-.63-1.1-.85l-.09-.06c.42-.34.8-.72 1.13-1.17 1.57-1.6 1.67-3.17 1.46-4.25-.14-.66-.4-1.28-.82-1.86-.3-.5-.71-.93-1.2-1.26-.09-.07-.19-.11-.29-.17.6-1.1.89-2.02.9-2.93 0-.14-.01-.57-.07-1.29-.02-.27-.04-.47-.05-.59 0-.48-.08-.94-.23-1.37l-.04-.31c-.04-1.44-.76-2.57-2.69-5.24-.16-.23-.35-.44-.56-.63l-.02-.02c1.8-.6 2.74-2.05 3.01-3.35l.17-.85c.41-1.98-.43-3.47-2.97-6.34.11.01.17.02.19.02.08.02.16.03.24.04.18.05.37.08.57.11.16.02.32.03.48.03.52 0 1.01-.1 1.47-.29H47c.775 0 1.54-.22 2.19-.65l.4-.26c.89-.59 1.51-1.5 1.73-2.54.116-.57.14-1.16.06-1.81-.06-1.42-.873-2.7-2.12-3.36.318-.38.58-.8.77-1.25.11-.25.19-.44.27-.58.21-.31.375-.63.49-.97.285-.56.44-1.2.43-1.85 0-.57-.05-1.13-.134-1.69.19-.02.37-.04.554-.08.25.03.5.05.75.05.154 0 .395-.02.55-.04 1.42-.16 2.642-1.08 3.21-2.39.143-.34.25-.7.33-1.16.3-1.23 0-2.56-.845-3.54-.24-.29-.57-.6-1-.86-.163-.2-.336-.38-.52-.55-.38-.34-.83-.6-1.3-.77-.29-.31-.63-.55-1-.74-.14-.11-.29-.21-.45-.3-1.56-.86-2.72-1.5-3.49-1.93-2.66-1.97-4.56-3.16-5.97-3.76-.55-.23-1.14-.35-1.75-.35-.74 0-1.5.17-2.42.54l-.16.06c-.13-.01-.258-.02-.38-.02-1 0-1.97.38-2.71 1.06-.35.2-.743.47-1.104.84-.44.38-.8.87-1.05 1.44L32 92c-.315.733-.4 1.544-.25 2.328.764 3.965 2.164 7.5 4.16 10.564-.73-.27-1.18-.4-1.52-.47-1.166-.242-2.154-.36-3.02-.36-3.538 0-5.23 2.083-5.634 4.03-.32 1.543-.205 2.88.347 3.99l-.163.04c-1.82.442-3.18 1.83-3.55 3.62-.33 1.584-.035 3.957 3.262 6.267.893.61 1.63 1.05 2.3 1.34-.514.08-1 .25-1.43.51-1.1.08-2.124.61-2.82 1.48-.728.9-1.336 2.01-1.86 3.36-.405 1.05-.35 2.22.15 3.22.122.24.266.47.432.68.02.26.056.52.11.77-.054 3.42 2.14 6.56 6.69 9.6.25.17.484.31.724.47-1.823 1.01-2.975 2.91-3.102 5.31-.057 1.07.32 2.1 1.014 2.88-.795.32-1.41.84-1.88 1.28-1.842 1.73-1.807 3.54-1.623 4.45.693 3.45 4.43 4.73 8.55 5.48-.914 1.21-1.698 2.67-2.33 4.39-.17.45-.32.9-.46 1.35-.655-.5-1.514-.95-2.658-1.45-.7-.76-1.65-1.2-2.65-1.28-.2-.03-.68-.13-1.78-.38-1.28-.28-2.26-.41-3.09-.41-.89 0-1.65.15-2.33.47-.63.29-1.17.73-1.56 1.28-1.35 1.34-2.59 3.64-2.34 7.55.1 2.35.59 4.5 1.45 6.37l.12.27c.13.29.29.55.47.8-.45 1.33-.71 2.84-.02 4.33 1.32 2.85 4.73 2.9 7.78 2.95h.6c2.73 0 4.02-.16 4.9-.39l19.25-3.31c.34-.06.58-.13.9-.27.03-.02.39-.16 2.16-.74.68-.25 1.24-.46 1.7-.64.23-.02.45-.04.66-.07.49-.08.96-.25 1.38-.49.28-.1.55-.23.8-.39.32-.21.61-.45.85-.73.22-.09.45-.2.68-.33 1.04-.57 1.73-1.54 1.97-2.63.27-.79.3-1.68.02-2.53-.51-1.6-1.95-2.67-3.56-2.76zm-29.662 4.395c-.076-.06-.18-.146-.317-.27l.19.09c.063.063.128.125.196.186h-.07zm13.418-1.924c-.02-.05-.043-.1-.066-.14-.48-1.04-.51-2.42-.093-4.1.44-1.77.937-2.23.92-2.23.085-.04.194-.07.322-.09.11.02.218.03.324.05.13.07.34.18.654.36.45.26.867.49 1.26.68.307.34.674.65 1.117 1.04.13.11.23.2.31.28.16.22.34.42.53.6.24.45.45.82.65 1.12.13.2.28.38.43.55.07.32.17.65.32.95l.03.05c-2.53.34-4.76.65-6.68.93zM114.798 52.7c.066-.42.064-.84 0-1.25 0-.178-.012-.357-.036-.538-.236-1.764-.41-3.08-.516-3.95.003-3.307-.16-5.548-.513-7.045-.447-1.89-2.017-2.863-2.613-3.233l-.152-.09c-.326-.544-.778-1.007-1.327-1.347-.41-.255-.86-.43-1.33-.522-.39-.17-.83-.327-1.36-.39-.28-.06-.56-.09-.85-.09-.3 0-.61.034-.91.105l-.94.222c-.78.183-1.48.595-2.02 1.182-2.06 2.235-3.71 4.62-4.95 7.123.11-.75.01-1.352-.3-2.084-.19-.432-.43-.843-.79-1.3-.75-1.114-2.01-1.76-3.32-1.76-.53 0-1.07.106-1.59.33l-.53.23c-.81.356-1.47.96-1.89 1.71-.1.09-.19.184-.28.28-.63-.32-1.34-.49-2.08-.49-.68 0-1.36.145-2.01.43-1.82.79-2.82 2.385-3.37 4.37-.65-.712-1.47-1.29-2.47-1.7-1.1-.42-2.07-.626-2.98-.626-1.04 0-1.99.262-2.82.784-.11.07-.21.15-.31.22-.44.15-.81.32-1.15.53-3.05 1.92-4.41 5.71-4.05 11.27.05.67.11 1.31.19 1.94-.42-.2-.92-.44-1.55-.75.17-.67.28-1.19.34-1.6.14-1-.1-2.02-.68-2.85-4.07-5.85-4.4-6.22-4.63-6.5-.94-1.07-1.95-1.85-3.02-2.32-.07-.08-.1-.12-.1-.12-.3-.41-.68-.77-1.12-1.04-1.28-.79-2.75-1.2-4.37-1.2h-.11c-.36.01-.73.06-1.07.16-1.05.05-2.04.46-2.87 1.19-.35.31-.69.7-1.17 1.33-.08.12-.16.21-.22.28-.83.8-1.28 1.92-1.23 3.07-.31 1.89.03 3.97 1 6.14.82 1.91 1.99 3.75 3.5 5.47 1.12 1.28 2.21 2.26 3.39 3.03l3.17 2.01c.78.51 1.57.89 2.37 1.16.94.49 1.73.87 2.39 1.14.81.5 1.43.9 1.86 1.19.3.21.63.38.98.5.04.04.08.09.12.14.19.21.35.42.48.62-.21-.06-.37-.12-.49-.16-.54-.6-1.16-.95-1.78-1.23-.68-.51-1.52-.78-2.38-.78-.13 0-.26.01-.39.02-.18.02-.36.05-.53.09-1.36.1-2.6.9-3.25 2.13-.74 1.41-.57 3.12.42 4.36 1.62 2.03 2.97 3.36 4.26 4.2.17.11.35.21.54.29 1.31.59 2.97 1.12 5.08 1.63.3.07.61.11.91.11.63 0 1.26-.15 1.82-.44 1.38-.24 2.68-.88 3.81-1.87.53-.47.99-1 1.35-1.6l.83-1.28c.57-.87.9-1.91 1.03-3.12 1.83.57 3.16.83 4.26.83.68 0 1.3-.1 1.87-.3.66-.07 1.28-.3 1.82-.67.89-.26 1.66-.83 2.18-1.6.62-.55 1.06-1.28 1.24-2.11.13-.56.36-1.58.07-2.7h.06c.69 0 1.3-.06 1.86-.19 1.16-.26 2.14-1.03 2.68-2.09.35-.69.49-1.47.41-2.23.15-.48.31-.97.47-1.48.24-.79.41-1.49.52-2.12.31-.71.42-1.5.28-2.29.04-.18.12-.53.29-1.05-.05.69-.01 1.34.14 1.95.23.97.74 1.87 1.52 2.66.15.15.3.3.45.43.19.22.41.41.65.58 1.1.79 2.27 1.19 3.48 1.19.41 0 .82-.05 1.21-.14.26-.06.47-.11.63-.13.37-.01.72-.07 1.06-.17.63-.11 1.23-.36 1.75-.75.46-.34.88-.71 1.28-1.11.12.14.25.27.39.4.19.36.43.72.75 1.05.77.82 1.83 1.28 2.93 1.28.3 0 .61-.04.91-.11.45-.11.82-.27 1.12-.42 1.18-.49 2.07-1.52 2.36-2.79.09-.37.14-.82.1-1.32.06-.25.1-.49.13-.73.05-.52-.01-1.03-.15-1.52zm-33.74 8.365c.132-.46.26-.98.385-1.572.022.056.04.117.064.17.142.33.347.667.592 1.023-.19.05-.39.098-.57.177-.19.08-.35.15-.48.203z"/><linearGradient id="b" gradientUnits="userSpaceOnUse" x1="28.886" y1="101.765" x2="39.886" y2="207.265"><stop offset="0" stop-color="#1B1440"/><stop offset=".819" stop-color="#ED1E79"/></linearGradient><path fill="url(#b)" d="M19.282 169.216c.41-.19 1.367-.115 2.87.22 1.505.336 2.286.49 2.345.463-.074.07-.064.2.03.41 2.094.84 3.215 1.43 3.363 1.75.04.09.037.19-.01.32.3.11.396.05.287-.19 1.016.74 2.665 1.73 4.947 2.99-.05-2.04.35-4.21 1.2-6.52 1.04-2.83 2.454-4.65 4.24-5.47.673-.31 1.892-.33 3.657-.04 1.88.3 2.99.82 3.33 1.55.06.11.12.14.19.07.08-.07.14-.05.2.07.06.12.05.17-.02.17-.11-.02-.17.01-.17.08.13.04.36.08.69.1l.19.76.33.12.08-.3c-.28-.08-.41-.31-.37-.68.1.13.32.34.66.62.35.28.55.48.6.6l.08.18c-.08.04-.1.12-.05.23.06.11.11.12.17.02.06-.1.12-.09.18.03.06.11.06.18.01.18s-.06.05-.02.14c.06.11.25.31.59.58.34.27.54.46.59.58.01.03 0 .16-.04.39.04.02.11.01.2-.02.1-.03.18.02.23.13.06.12.11.29.16.51.05.22.11.39.16.51.04.09.08.12.11.08.03-.03.07 0 .12.11s.13.23.25.39.21.29.26.41c.06.11.07.2.05.27s-.01.14.04.25.02.14-.1.12c-.11-.02-.14.03-.09.15.04.08.12.1.24.05.09-.04.16 0 .21.11.43.94.65 1.71.64 2.31.03 1.06.08 1.81.15 2.28.06-.03-.1-.1-.47-.21-.06.17-.06.35.03.52.13.05.3.02.5-.07-.29.14-.4.75-.32 1.85.99-.1 2.28-.31 3.87-.62-.17.08-.21.22-.12.43-.4.22-.68.26-.85.12-.17.08-.15.16.06.24-.61.28-.93.56-.95.81-.39-.14-.7-.32-.94-.53 0 .14.09.42.28.83-.23.04-.53.05-.89.04-.44.2-1.17.49-2.21.86-1.38.46-2.18.74-2.38.83l-19.49 3.35c-.61.21-2.13.31-4.55.29-2.61-.04-4-.25-4.18-.63-.13-.29-.01-.92.36-1.87.22 0 .63-.03 1.24-.09.05-.2.07-.32.05-.35-.04-.09-.27-.35-.69-.8-.41-.45-.68-.8-.81-1.06-.05-.12-.09-.25-.1-.4-.02-.15-.05-.29-.11-.41-.05-.12-.12-.14-.19-.07s-.14.04-.19-.08c-.05-.11-.02-.15.1-.12s.16-.01.1-.12c-.05-.12-.11-.12-.16-.01s-.11.11-.16-.01c-.66-1.44-1.03-3.08-1.1-4.93-.16-2.34.35-3.94 1.51-4.8l.07-.19zm.858 2.32c-.234.108-.453.422-.657.942-.204.52-.25.897-.144 1.13l.31.336c.05.117.05.17-.01.162s-.06.045-.01.162.14.53.25 1.24.2 1.125.25 1.242c.05.117.08.236.08.36 0 .122.03.242.08.358.27.586.77 1.294 1.51 2.125 1.31 1.454 2.32 2.283 3.03 2.485.71.203 1.61.25 2.7.14.87-.117 1.75-.24 2.65-.37.72-.05 1.15-.052 1.28-.005.07-.07.17-.132.28-.186.26-.12.7-.2 1.32-.24.78-.075 1.25-.133 1.41-.17-.08-.177-.04-.306.14-.387-.79-.774-1.37-1.586-1.77-2.435-.1-.205-1.43-1.257-4.01-3.155.06-.1.13-.183.2-.253-1.53-.538-3.05-1.38-4.57-2.523-.67-.224-1.54-.452-2.61-.688-1.07-.233-1.66-.324-1.78-.27zm18.534-5.303c-1.434.66-2.474 2.292-3.122 4.892-.646 2.6-.533 4.847.342 6.743.162.35.26.926.29 1.726.032.8.032 1.24 0 1.327 2.9-.48 7.18-1.1 12.84-1.83l.394-.18c.47-.21.858-.68 1.17-1.39-.13-.44-.168-.98-.112-1.62.057-.64.07-1 .044-1.06-.04-.09-.072-.11-.095-.09-.02.03-.06-.01-.115-.13-.04-.09-.017-.15.07-.19l-.212-.11c.01-.04.05-.06.118-.08.068-.01.068-.09 0-.24-.04-.09-.104-.13-.19-.12-.087.01-.158-.05-.212-.17-.094-.2-.004-.31.27-.33-.03.02-.05.04-.067.09l-.044.02-.08-.17c-.042-.08-.132-.38-.276-.88-.143-.5-.275-.88-.397-1.14-.092.19-.24.33-.446.42-.233-.35-.544-.95-.934-1.79-.04-.09-.1-.1-.182-.05-.08.06-.148.03-.202-.09-.054-.12-.347-.4-.88-.86-.53-.46-.81-.72-.837-.78-.07-.15-.08-.28-.03-.41-.52-.12-1.22-.43-2.12-.96-.9-.52-1.51-.8-1.82-.83-.32-.03-.67-.08-1.06-.15-.8.05-1.5.22-2.12.5zM36.838 181.3l-.135.168.274.246.22-.1-.36-.315zm4.573-.94l-.21.102.35.746.22-.1-.34-.748zm12.4-2.098l.1.22-.35.162-.1-.22.35-.162z"/><linearGradient id="c" gradientUnits="userSpaceOnUse" x1="31.623" y1="101.478" x2="42.623" y2="206.978"><stop offset="0" stop-color="#1B1440"/><stop offset=".819" stop-color="#ED1E79"/></linearGradient><path fill="url(#c)" d="M32.492 146.747c-.03.006.725-.038 2.267-.135 1.54-.096 2.69-.22 3.45-.373 1.96-.4 3.35-.58 4.18-.55.29-.19.42-.28.39-.28l1.89-.38c0 .03.05.1.14.22.08.11.14.23.17.36.04.19-.17.48-.62.86-.48.88-1.97 1.58-4.47 2.08-1.33.27-2.55.4-3.67.39l-.19.28c.16.33.44.45.81.38-.08.11-.11.22-.09.31.39.15.54.1.46-.15.83.55 1.55 1 2.14 1.34 1.08.64 1.84.96 2.27.97.16.16.97.64 2.41 1.44.02.12.02.22-.02.27s-.05.1-.05.13l.55-.11c.07.18.37.43.9.73.52.3.82.6.87.88.02.12-.04.2-.2.23l.04.19c.03.15.11.14.23-.05.24 2.02-.71 3.25-2.87 3.68-.47.09-1.05.03-1.72-.2-.1-.01-.27.05-.5.2-.24.14-.4.23-.5.25-.76.15-2.87-.06-6.32-.65-3.96-.65-6.04-1.48-6.24-2.5-.04-.19.11-.44.44-.75s.58-.49.73-.52c.44-.09 1.05.17 1.83.77 1.67.25 2.78.44 3.33.56 1.17.25 2.02.54 2.55.87.07-.12.1-.22.08-.32l2.85.12c1.33.07 2.36.02 3.09-.12.57-.11.83-.3.78-.55-.11-.54-1.7-1.6-4.78-3.18-2.21-1.17-4.01-2.04-5.41-2.61-.03-.16-.42-.4-1.17-.7-.75-.31-1.19-.74-1.29-1.27-.14.15-.29.19-.48.09.07-1.3.62-2.05 1.66-2.26zm9.816.247l-.113.417.2.01.112-.41-.2-.01zm.72-1.082l-.058.21.417.112.057-.21-.417-.112zm.843-.465l-.34.266.09.18.3-.256-.04-.19z"/><linearGradient id="d" gradientUnits="userSpaceOnUse" x1="31.148" y1="101.531" x2="42.147" y2="207.024"><stop offset="0" stop-color="#1B1440"/><stop offset=".819" stop-color="#ED1E79"/></linearGradient><path fill="url(#d)" d="M30.445 127.056c.226.004.596.075 1.11.212.064 0 .434-.01 1.112-.03.452-.024.756.125.912.45.06-.097.1-.192.1-.29l1.39.556c.13.002.22-.028.29-.092-.13.127-.07.32.18.583.09-.096.14-.19.15-.288.19.003.37.087.52.25-.2-.003-.29.06-.3.19.71.01 1.49.378 2.35 1.1 1.56 1.316 2.45 2.057 2.67 2.22 0 .033-.05.097-.15.192-.1.09-.15.17-.15.23.12.1.3.03.53-.19 1.29 1.79 1.93 2.8 1.93 3.03 0 .09.02.3.06.63.04.32.06.55.06.67 0 .13.02.17.07.14s.07.01.07.12.02.41.06.89.06.77.05.87c-.01.39-.33 1.04-.95 1.97-.17-.01-.25.11-.25.33-.01.51-.55.92-1.62 1.23-.72.18-1.44.36-2.19.54 0-.42.02-.61.05-.58-.3.38-.59.57-.88.57-1.32-.02-3.4-.99-6.24-2.91-3.32-2.22-4.96-4.29-4.93-6.22 0-.1.08-.24.25-.43-.26-.17-.38-.44-.38-.83 0-.42.16-.71.46-.87.3-.16.6-.3.89-.42 0 .03.11.21.31.53.21.32.31.57.31.73-.01.58.55 1.46 1.69 2.64.63.59 1.26 1.19 1.87 1.82.61.62 1.8 1.38 3.55 2.28 1.75.9 3.08 1.35 3.98 1.37.29 0 .67-.23 1.14-.69.47-.46.71-.84.71-1.13 0-.13-.05-.4-.14-.8-.09-.41-.14-.67-.13-.8 0-.48-.24-1.09-.75-1.8-.7-1.05-1.06-1.58-1.09-1.62-.39-.04-.73-.3-1.03-.79-.3-.49-.59-.73-.88-.74-.1-.13-.05-.29.15-.48-.23 0-.49-.06-.77-.16-.61-.66-1.44-1.14-2.5-1.45-.93-.27-1.5-.62-1.72-1.04-.04 0-.08-.02-.15-.05-.03-.03-.05-.03-.05 0l-.01.19c-.01.13-.68.21-2.04.26-1.29.04-2.05.03-2.27-.04-.17.16-.2.29-.11.39-.03 0-.2.05-.49.14s-.53.1-.72.03c-.07.07-.1.26-.11.58-.19.03-.53-.02-1.01-.16.37-.96.79-1.73 1.25-2.3.42.01.67.11.77.3.39-.38.68-.52.88-.42.07-.06.1-.21.11-.43.19.01.52-.04.99-.13.46-.08.76-.13.89-.13zm-3.6 1.392l-.29-.005-.012.677.29.005.01-.677zm7.21-.367l-.194.11.19.38.2.01-.18-.48zm8.01 11.94l-.08.17.306.18.08-.17-.3-.17zm.402-5.75h-.242l-.013.82.242.01.013-.82zm.063 5.08l-.01.53h-.144l.01-.53h.144z"/><linearGradient id="e" gradientUnits="userSpaceOnUse" x1="35.397" y1="101.085" x2="46.397" y2="206.585"><stop offset="0" stop-color="#1B1440"/><stop offset=".819" stop-color="#ED1E79"/></linearGradient><path fill="url(#e)" d="M33.583 108.348c.474.098 1.678.563 3.612 1.393 1.815.78 2.807 1.23 2.977 1.36.108-.04.273-.04.493.01 1.136.24 2.015.69 2.636 1.34.09-.08.14-.17.16-.26.5.3 1.15.64 1.97 1-.05.26-.11.46-.17.61-.06.15-.09.21-.08.18l.21.44c-.16.13-.24.25-.26.34-.13-.02-.43-.06-.91-.11-.48-.05-.8-.09-.96-.12-1.32-.27-2.25-.66-2.77-1.16-.08.08-.13.17-.15.26l-.75-.15c-.22-.05-.7-.26-1.44-.65-.75-.38-1.52-.69-2.33-.93.03-.12.1-.22.21-.3l-.31-.41c.01.13-.03.37-.1.72-.18-.09-.48-.2-.92-.34-.43-.13-.74-.23-.93-.29l-1.25-.16c.43.62.98 1.52 1.65 2.71 1.78 1.88 3.55 3.77 5.32 5.68 2.54 2.76 3.77 4.33 3.69 4.7l-.17.85c-.1.47-.78.58-2.04.32-.6-.12-1.33-.41-2.19-.85-1.12-.59-1.77-.93-1.96-1-1.6-.66-2.73-1.14-3.39-1.45-1.24-.65-2.32-1.37-3.25-2.16-.39-.01-1.13-.4-2.22-1.15-1.2-.84-1.74-1.56-1.62-2.16.06-.28.26-.47.59-.55.33-.08.67-.16 1.02-.26l11.69 6.48c.01-.36-.27-.81-.85-1.36-.44-.39-.87-.79-1.28-1.2l-6.79-7.48c-.17-.6-.47-1.17-.88-1.72-.24-.28-.28-.8-.12-1.55.18-.88 1.49-1.07 3.92-.57zm5.936 2.568c-.42.077-.72.095-.9.055-.03.13.14.24.52.32.02-.1.14-.22.37-.36zm.72 11.708l.02.598-.19-.04-.09-.513.25-.05zm7.19-9.172c-.01.032 0 .14.03.327.02.18.02.35-.01.51l-.4.26c-.04-.01-.07-.09-.1-.24s-.13-.25-.29-.28c-.26-.05-.59.06-1.01.33l-.05.23-.05.23c0-.17.01-.43.01-.79 0-.36.01-.63.01-.79.12-.11.3-.14.56-.08-.18.36-.23.59-.15.71.29-.21.42-.43.38-.67l1.05.22z"/><linearGradient id="f" gradientUnits="userSpaceOnUse" x1="44.567" y1="100.129" x2="55.567" y2="205.629"><stop offset="0" stop-color="#1B1440"/><stop offset=".819" stop-color="#ED1E79"/></linearGradient><path fill="url(#f)" d="M40.376 91.224c1.127.48 2.914 1.632 5.362 3.45.762.43 2.01 1.12 3.742 2.072-.03-.013-.137-.006-.324.02.123.157.466.46 1.03.913-.16-.28-.217-.48-.166-.6.17.18.356.52.56 1.03.127-.05.21-.12.247-.21.004.07.052.14.143.22.09.07.14.14.143.22.21-.09.343-.19.394-.31.152.13.328.42.528.85.317-.01.522.05.616.16-.01.03-.03.11-.05.24-.02.13-.04.22-.07.28-.25.03-.64-.09-1.16-.34-.25.1-.41.22-.47.37.01-.03 0-.09-.03-.18s-.02-.2.05-.35c.04-.09.09-.09.15.01.07.1.12.08.17-.03-.01.03-.02-.15-.03-.54-.31.07-.59.31-.82.7l-.85-.47c-.47.21-.86.26-1.16.13-.09-.04-.25-.19-.49-.45s-.45-.43-.62-.51c.01-.03.09.16.23.57-.27-.11-.43-.29-.51-.53l-3.15-1.24c.34 1.02 1.09 2.5 2.26 4.43.8 1.32 1.21 2.71 1.22 4.15-.07-.07-.25-.14-.53-.23-.01.17.1.41.33.71-.14.18-.36.61-.66 1.29-.17.41-.56.72-1.17.92l-.03-.18c-.13.15-.39.26-.76.31-.37.05-.67.03-.91-.07-.47-.2-.95-.65-1.45-1.36-.35-.57-.7-1.12-1.06-1.66-2.68-3.11-4.45-6.94-5.33-11.48l.38-.89c.27.11.46.16.57.14.07-.15-.04-.28-.3-.39.02-.03.18-.14.5-.31.23-.12.37-.24.42-.35l.76.32c.02.53.12 1.2.3 2.02.15.62.2 1 .15 1.11-.05.12-.1.15-.14.1-.06-.1-.12-.12-.18-.08 1.85 3.38 3.25 5.84 4.21 7.37.53.64 1.27 1.61 2.23 2.9l.28-.15c-.09-1.5-.72-3.23-1.89-5.18-.93-1.5-1.86-3.02-2.79-4.55.18.07.3.04.37-.11-.05-.13-.25-.11-.6.05-.13-.26-.5-.84-1.1-1.73-.53-.72-.78-1.12-.74-1.21s.09-.08.17.02c.08.1.15.09.2-.02.04-.09.02-.19-.05-.31s-.08-.24-.03-.36c.07-.15.37-.33.92-.55.55-.22.92-.29 1.1-.22zm9.2 6.772l-.576.49.203.14.577-.49-.203-.14zm.916.812l-.61-.05.014.216.52.012.076-.178zm-.166-.965l-.197-.03-.06.5.22.095.03-.565z"/><linearGradient id="g" gradientUnits="userSpaceOnUse" x1="64.962" y1="98.004" x2="75.962" y2="203.507"><stop offset="0" stop-color="#1B1440"/><stop offset=".819" stop-color="#ED1E79"/></linearGradient><path fill="url(#g)" d="M57.95 47.927c.275.315 1.728 2.364 4.358 6.146-.042.294-.14.745-.294 1.35-.136-.008-.383-.07-.742-.185.088.052-.445-.703-1.6-2.264-1.988-2.757-3.805-4.658-5.45-5.703-.282-.22-.836-.48-1.66-.79-.067-.02-.187.06-.36.25-.18.29-.105 1.25.22 2.9.68 1.46 1.585 2.84 2.71 4.12 1.34 1.53 2.803 2.73 4.39 3.61-.027.07.056.19.25.36 1.195.59 2.39 1.17 3.586 1.75 2.437 1.17 3.786 1.83 4.05 1.98.503.33.73.71.68 1.14.142-.08.382-.1.722-.05.595.68 1.32 1.46 2.177 2.34-.124.15-.105.4.055.73l.93 1.5c.052.6.115 1.21.188 1.83.044 1.08-.1 1.86-.43 2.37l-.876 1.35c-.155.27-.354.51-.595.72-.71.62-1.47.94-2.3.98-.02-.02-.07-.13-.15-.32-.14.08-.32.3-.52.65-1.85-.44-3.3-.9-4.37-1.38-.9-.58-2-1.69-3.31-3.33.18.02.28.08.29.2.11-.01.22-.11.32-.28.1.12.31.25.62.38.31.14.5.24.56.31.19.22.49.49.9.82.17.1.79.32 1.84.64 1.23.38 2.21.59 2.94.64.18.01.49-.09.92-.3.44-.21.69-.39.77-.55.69-1.07.84-2.32.45-3.74-.32-1.14-.93-2.23-1.84-3.27-.51-.58-1-1.01-1.46-1.29-.07.02-.2.02-.38.01-.54-.38-1.32-.88-2.33-1.49-.65-.25-1.53-.67-2.66-1.27-.57-.15-1.14-.41-1.73-.8l-3.19-2.02c-.81-.53-1.65-1.29-2.53-2.29-1.23-1.4-2.18-2.87-2.83-4.4-.76-1.69-.97-3.13-.64-4.32l-.04-.41c.15-.13.37-.38.65-.76.29-.38.5-.62.62-.73.32-.27.63-.26.93.03l.43-.38c.89-.01 1.67.19 2.32.6.21.29.54.64.99 1.06-.14-.01-.18.04-.12.16.8.04 1.63.54 2.47 1.5zm-6.882 1.467l-.196-.15-.195.364.195.15.196-.364zm11.545 22.483l-.232-.118-.19.29.2.15.23-.33z"/><linearGradient id="h" gradientUnits="userSpaceOnUse" x1="81.281" y1="96.3" x2="92.281" y2="201.8"><stop offset="0" stop-color="#1B1440"/><stop offset=".819" stop-color="#ED1E79"/></linearGradient><path fill="url(#h)" d="M78.33 47.55c.035.056.123.286.264.692.117.308.237.5.36.573-.083 1.08-.338 3.126-.767 6.137-.604 3.884-1.11 5.954-1.52 6.21l-.45.284-.41.257c-.05.223.054.538.31.948 1.03 1.64 2.943 2.53 5.74 2.68.002-.11-.022-.21-.074-.29.116.01.563-.16 1.34-.5.312.07.494.15.545.23.05.09.02.37-.09.86-.15-.06-.322-.02-.513.1-.12-.19-.165-.35-.134-.48-.2-.02-.37.01-.51.1l-.1.29c.29.09.51.2.66.33-.16.11-.18.25-.06.45-.24.04-.55.06-.92.07l-.17.45c-.26-.06-.52-.01-.77.14-.49.31-1.86.11-4.1-.62.11-.14.22-.32.34-.55l-.05-.08-.69.44c-1.75-1.64-2.74-2.63-2.96-2.99-1.27-2.02-2.03-4.83-2.28-8.45-.26-3.98.47-6.52 2.19-7.6.14-.09.41-.17.81-.25.41-.08.64-.14.69-.17.11-.07.11-.13.01-.17-.11-.04-.12-.09-.04-.15.44-.27 1.18-.21 2.24.2.52.22.9.52 1.16.93zm-1.642 1.204c-.052-.082-.16-.165-.33-.25-.122-.074-.174-.156-.153-.246-.082.052-.23.106-.44.163-.212.06-.373.12-.48.19-.875.55-1.266 2.32-1.175 5.31.107 2.72.413 4.5.917 5.37.402-1.66.812-3.31 1.23-4.94.682-3.09.826-4.95.43-5.58zm1.216-1.336l-.206-.328-.368.232.206.328.368-.232zm.333 7.16l-.128-.205-.33.206.13.2.32-.21z"/><linearGradient id="i" gradientUnits="userSpaceOnUse" x1="93.74" y1="95.001" x2="104.74" y2="200.501"><stop offset="0" stop-color="#1B1440"/><stop offset=".819" stop-color="#ED1E79"/></linearGradient><path fill="url(#i)" d="M93.293 42.38c.038.087-.345 1.15-1.15 3.185-.31.908-.802 2.403-1.48 4.49-.765 2.123-1.026 3.466-.783 4.027-.013-.03-.095-.1-.25-.208.118.512-.027 1.436-.432 2.77-.28.895-.567 1.774-.86 2.64.056.046.135.187.237.423-.512.117-1.25.12-2.21.01-.076-.178-.045-.472.093-.884-.085-.033-.305.027-.66.18-.025-.058-.123-.2-.29-.426-.17-.225-.28-.398-.33-.517-.59-1.36-.848-3.9-.774-7.622.085-3.937.63-6.123 1.637-6.56.54-.23.93-.064 1.17.498.11.237.04.775-.19 1.614-.23.84-.33 1.39-.28 1.652.19 1.396.27 2.802.25 4.215-.01 1.198-.03 2.403-.07 3.613l.16.355c.23-.132.39-.412.48-.84.52-2.05 1.03-4.08 1.53-6.09.67-2.575 1.44-4.345 2.28-5.31.03-.013.06-.12.08-.32.02-.202.09-.328.21-.38.12-.05.17-.047.16.01-.01.057.04.06.16.01.15-.065.12-.138-.09-.223.15-.064.34-.06.59.01.08-.385.04-.632-.11-.742l.53-.23c.02.03.08.116.19.26.12.14.2.27.25.39zm-1.628 4.025l-.096-.222-.36.154.09.222.35-.16zm1.368-4.018l-.19-.076-.266.49.21.12.246-.53z"/><linearGradient id="j" gradientUnits="userSpaceOnUse" x1="108.851" y1="93.426" x2="119.851" y2="198.932"><stop offset="0" stop-color="#1B1440"/><stop offset=".819" stop-color="#ED1E79"/></linearGradient><path fill="url(#j)" d="M109.84 40.834c.282 1.193.416 3.314.406 6.363.105.87.29 2.284.55 4.242-.006-.04-.076-.12-.207-.25-.06.19-.1.65-.13 1.37.13-.3.25-.46.38-.49-.04.24-.21.59-.5 1.06.11.07.22.09.31.07-.06.04-.09.12-.09.24-.01.11-.04.2-.09.24.19.12.35.16.48.13-.02.2-.15.51-.38.93.19.25.27.45.24.59-.03.01-.11.04-.23.1-.12.06-.21.1-.27.11-.18-.19-.32-.57-.42-1.15-.23-.15-.43-.2-.59-.16.03-.01.07-.05.12-.13.04-.08.15-.14.3-.17.09-.02.12.02.08.13-.04.11 0 .15.12.12-.03.01.11-.11.42-.35-.25-.21-.6-.29-1.05-.25l-.13-.96c-.46-.26-.73-.54-.8-.86-.02-.1 0-.32.07-.66.06-.35.08-.62.03-.81.03-.01-.08.17-.33.52-.07-.28-.03-.53.12-.73l-.87-3.28c-.62.87-1.37 2.36-2.23 4.45-.59 1.43-1.47 2.58-2.62 3.44.01-.1-.04-.29-.14-.57-.14.09-.27.32-.38.69-.24-.01-.71.07-1.44.24-.44.1-.92-.03-1.44-.41l.12-.12c-.21-.02-.44-.16-.7-.43s-.42-.53-.48-.78c-.12-.5-.04-1.16.23-1.98.25-.62.48-1.23.7-1.84.91-4 2.94-7.71 6.08-11.11l.94-.22c.06.28.14.46.23.54.15-.04.2-.2.13-.48.03-.01.21.07.55.22.22.11.4.15.52.12l.19.8c-.42.33-.91.81-1.45 1.43-.42.49-.69.76-.81.78-.13.03-.18.01-.17-.06.04-.11.02-.17-.05-.19-1.63 3.5-2.77 6.09-3.44 7.77-.2.81-.54 1.98-1.01 3.51l.28.13c1.15-.97 2.16-2.5 3.05-4.59.65-1.65 1.32-3.29 2-4.95.04.19.14.27.3.23.07-.12-.06-.27-.4-.45.14-.27.38-.9.74-1.92.26-.86.44-1.3.53-1.32.09-.02.12.03.08.15-.04.13.01.18.13.15.1-.02.17-.09.22-.22.06-.13.15-.21.27-.24.16-.04.49.1.99.41.51.31.78.56.82.75zm.007 11.424l-.737-.175.008.247.737.174-.008-.246zm-.11 1.22l-.322-.522-.166.138.29.426.19-.043zm.678-.707l-.09-.17-.44.25.057.24.473-.31z"/></svg>