<svg xmlns="http://www.w3.org/2000/svg" width="250" height="250" viewBox="0 0 250 250"><path opacity=".15" d="M226.893 91.06c-2.878-8.184-8.93-12.877-16.602-12.877-2.4 0-4.96.47-7.6 1.397-6.9 2.426-12.29 9.978-15.66 16.023-5.18-3.604-11.65-5.434-19.32-5.434-5.83 0-11.28 1.07-15.23 2.13.02-.38.02-.75.03-1.12v-.03c8.99-2.61 25.26-8.62 31.13-19.19 1.35-2.43 2.37-4.89 3.03-7.3l.87-3.2-6.74-3.29 6.92-2.72-1.12-3.57c-1.83-5.79-6.18-10.73-12.58-14.29-4.54-2.52-9.08-3.8-13.49-3.8-3.47 0-7.76.81-11.99 3.7-6.58-10.99-15.06-13.36-21.09-13.36-4.67 0-9.47 1.37-14.27 4.09-14.09 7.97-17.85 21.76-9.8 35.99.48.85 1.04 1.66 1.64 2.46-.4.64-.78 1.31-1.14 2.01-2.49 4.93-3.17 9.89-1.95 14.34.95 3.48 3.58 8.39 10.73 12.01 1.03.52 2.16.95 3.37 1.28h-.07c-26.24 0-49 15.16-60 37.18-4.39-3.9-7.86-7.27-10.24-9.68.09-.38.14-.78.15-1.18.4-1 .67-2.07.77-3.2.29-3.1-.55-6.36-2.37-9.19-2.63-4.08-6.92-6.62-11.19-6.62-1.96 0-3.84.54-5.44 1.57-5.22 3.36-6.24 11.09-2.29 17.23 2.63 4.08 6.92 6.62 11.19 6.62.02 0 .04-.01.05-.01 3.64 13.68 7.77 25.86 12.38 36.5.13 4.06.62 8.03 1.44 11.88-3.56 5.15-5.67 10.84-2.22 15.23 2.01 2.55 5.38 3.69 9.47 3.74 5.6 9.84 13.6 18.14 23.23 24.07l2.83 1.66 8.96 4.12c1.08.39 2.16.76 3.26 1.1.18.05.36.1.54.16.82.25 1.64.48 2.47.7.3.07.59.14.89.22.73.18 1.46.35 2.19.5l1.04.21c.69.13 1.39.26 2.09.37l1.12.18c.7.1 1.39.18 2.09.26.38.04.75.09 1.13.12.74.07 1.49.13 2.23.17.34.02.67.05 1 .07 1.08.05 2.16.08 3.25.08 1.01 0 2.02-.03 3.03-.08.25-.01.5-.02.75-.04.93-.05 1.85-.12 2.78-.21.32-.03.63-.07.94-.11.65-.07 1.31-.15 1.96-.25l1.08-.15c.81-.13 1.61-.28 2.4-.43l1.28-.27c.57-.12 1.12-.25 1.68-.39.52-.13 1.04-.26 1.55-.4.65-.18 1.29-.36 1.92-.55l1.01-.32c.87-.27 1.73-.56 2.58-.87l.29-.11c.91-.34 1.81-.7 2.7-1.07l.22-.09c2.16-.92 4.27-1.94 6.32-3.08l2.87-1.59-.03-.11c9.36-5.82 17.17-13.87 22.71-23.41 1.17-.27 2.53-.87 3.9-2.06.57-.48 2.73-2.54 3.52-6.08 4.89-4.39 8.83-8.38 11.6-11.32.38-.02.76-.08 1.12-.19.34.03.68.07 1.03.07 4.27 0 8.56-2.54 11.19-6.63 3.96-6.15 2.93-13.87-2.29-17.23-1.59-1.03-3.47-1.57-5.44-1.57-.83 0-1.66.1-2.49.28-.09-.49-.24-.98-.5-1.44-.11-1.26-.5-2.79-1.58-4.05-1.1-1.29-2.68-2.02-4.45-2.05-1.32-1.61-3.27-2.79-5.76-2.79-.6 0-1.21.08-1.83.22-.41-.09-.85-.14-1.31-.14-.38 0-.77.04-1.15.1-.17-.5-.33-1.01-.51-1.5 3.3-.24 6.19-1.24 8.6-2.93 4.58 4.91 9.4 6.03 12.82 6.03 3.95 0 8.02-1.48 11.79-4.27 8.83-6.57 10.59-16.01 4.84-24.98 9.74-4.24 13.53-13.04 9.89-23.39zm-29.512 73.966c-.16.247-.33.442-.51.613-.3-.23-.62-.41-.97-.56.08-.25.19-.51.37-.78.52-.8 1.21-1.19 1.6-1.24.1.31.09 1.1-.47 1.96zM34.7 117.36c-.178-.172-.354-.366-.513-.613-.555-.862-.57-1.648-.474-1.963.385.05 1.078.44 1.594 1.24.176.273.283.53.364.776-.34.15-.67.334-.97.56zm103.008-22.562c-.44 1.73-.98 3.324-1.525 4.704-3.393-1.078-6.9-1.892-10.502-2.42 4.31-.323 8.61-1.303 12.03-2.284zm47.36 75.047c.09-.063.177-.137.267-.203l.02.08c-.095.04-.19.084-.286.123zm-25.235-57.032c-1.143-.993-2.313-1.957-3.52-2.873l.017-.012c.33-.227.66-.445.988-.657.2-.12.4-.26.598-.38.23-.14.46-.27.688-.41.176-.1.35-.21.524-.31l.697-.39c.167-.09.333-.18.498-.26l.703-.36c.156-.07.31-.14.466-.22.24-.11.48-.23.72-.33.105-.04.208-.08.313-.13.474-.2.946-.38 1.415-.55.163-.06.325-.12.487-.17.21-.07.42-.13.63-.19.13-.04.26-.08.392-.11-2.19 2.23-4.19 4.72-5.61 7.39z"/><path fill="#FAAF40" d="M225.328 87.735c-2.878-8.185-8.93-12.878-16.602-12.878-2.408 0-4.968.47-7.605 1.397-6.89 2.426-12.29 9.978-15.66 16.023-5.18-3.604-11.65-5.434-19.32-5.434-5.83 0-11.28 1.075-15.23 2.132.03-.382.02-.743.03-1.12v-.024c8.99-2.6 25.26-8.61 31.14-19.18 1.35-2.43 2.37-4.88 3.03-7.29l.87-3.19-6.74-3.28 6.93-2.71-1.12-3.56c-1.83-5.79-6.18-10.73-12.58-14.28-4.54-2.52-9.08-3.8-13.49-3.8-3.46 0-7.76.82-11.98 3.7-6.59-10.99-15.07-13.36-21.1-13.36-4.67 0-9.47 1.38-14.27 4.09-14.09 7.97-17.85 21.76-9.8 35.99.48.85 1.04 1.67 1.64 2.46-.4.64-.78 1.31-1.14 2.01-2.49 4.93-3.17 9.89-1.95 14.35.95 3.49 3.59 8.4 10.73 12.02 1.03.52 2.16.95 3.37 1.28l-.07-.01c-26.24 0-49 15.16-60 37.18-4.4-3.89-7.87-7.27-10.24-9.68.09-.38.13-.77.14-1.17.4-1 .67-2.07.77-3.2.29-3.1-.55-6.36-2.37-9.18-2.63-4.08-6.92-6.62-11.19-6.62-1.96 0-3.84.55-5.44 1.58-5.22 3.36-6.24 11.09-2.29 17.23 2.63 4.09 6.92 6.63 11.19 6.63h.05c3.63 13.69 7.76 25.86 12.38 36.51.13 4.06.62 8.03 1.44 11.88-3.57 5.15-5.68 10.84-2.23 15.23 2.01 2.56 5.39 3.69 9.47 3.75 5.6 9.84 13.61 18.14 23.23 24.08l2.83 1.66 8.95 4.1c1.08.4 2.17.77 3.26 1.11.18.06.37.11.55.16.82.25 1.64.49 2.47.71.29.08.59.14.88.22.73.18 1.46.35 2.19.51l1.05.21c.7.14 1.4.26 2.1.37.37.06.74.12 1.12.18.69.1 1.39.18 2.09.26.38.04.75.09 1.13.12.74.07 1.49.12 2.23.17.34.02.67.05 1 .06 1.08.05 2.16.08 3.25.08 1.01 0 2.02-.03 3.03-.08l.75-.03c.93-.05 1.86-.12 2.78-.21.32-.03.63-.07.94-.1.65-.07 1.31-.15 1.96-.25.36-.05.73-.1 1.08-.15.8-.13 1.6-.27 2.4-.43.43-.09.86-.18 1.28-.27.56-.12 1.12-.25 1.68-.39l1.55-.39c.65-.17 1.29-.36 1.93-.55l1.01-.31c.87-.27 1.73-.56 2.58-.87.1-.04.19-.08.29-.11.91-.34 1.81-.7 2.7-1.07l.21-.09c2.16-.91 4.27-1.93 6.33-3.07l2.88-1.59-.03-.11c9.35-5.82 17.17-13.88 22.7-23.42 1.17-.28 2.52-.87 3.9-2.06.57-.48 2.73-2.54 3.52-6.08 4.89-4.38 8.83-8.37 11.6-11.32.38-.01.76-.08 1.12-.19.34.03.68.07 1.03.07 4.27 0 8.56-2.54 11.19-6.62 3.96-6.15 2.93-13.87-2.29-17.23-1.59-1.03-3.48-1.57-5.44-1.57-.83 0-1.66.1-2.49.29-.09-.49-.24-.98-.5-1.44-.11-1.26-.5-2.78-1.58-4.05-1.1-1.29-2.68-2.01-4.45-2.04-1.32-1.61-3.27-2.79-5.76-2.79-.59 0-1.21.08-1.82.22-.42-.08-.85-.13-1.31-.13-.38 0-.77.04-1.15.11-.17-.5-.33-1.01-.51-1.5 3.3-.24 6.19-1.24 8.6-2.93 4.57 4.91 9.4 6.03 12.82 6.03 3.95 0 8.02-1.48 11.78-4.28 8.83-6.56 10.6-16.01 4.85-24.98 9.74-4.23 13.53-13.03 9.89-23.39zm-41.562 78.58l.02.082c-.096.04-.19.083-.286.122l.266-.21zm-29.024-59.7l.018-.012c.33-.227.66-.445.988-.657.2-.13.4-.26.598-.384.23-.143.458-.277.687-.412.175-.104.35-.208.523-.308.232-.134.464-.262.696-.388.166-.09.332-.178.497-.265.23-.13.47-.25.7-.36.15-.08.31-.15.46-.22.24-.12.48-.23.72-.34.1-.05.21-.09.31-.13.47-.2.94-.39 1.41-.56l.48-.18c.21-.07.42-.14.62-.2l.39-.12c-2.19 2.22-4.19 4.71-5.61 7.38-1.15-1-2.32-1.96-3.53-2.88zM136.14 91.473c-.44 1.73-.98 3.324-1.526 4.704-3.393-1.078-6.9-1.892-10.502-2.42 4.31-.323 8.602-1.303 12.027-2.284zM32.143 111.46c.385.05 1.078.44 1.594 1.24.176.272.283.53.364.775-.34.15-.67.333-.97.56-.18-.172-.35-.366-.51-.613-.55-.862-.57-1.65-.47-1.963zm164.145 48.28c.095.313.08 1.1-.474 1.96-.16.248-.336.443-.515.614-.3-.226-.63-.41-.97-.56.08-.244.19-.5.36-.773.51-.8 1.21-1.19 1.59-1.24z"/><circle fill="#3FD8D8" cx="114.344" cy="160.093" r="63.055"/><path fill="#A67C52" d="M114.344 223.148c11.082 0 21.492-2.865 30.54-7.886-.366-1.145-.84-1.933-.84-1.933 38.944-17.78.84-66.57-2.13-80.98-2.97-14.41 3.252-23.12 3.252-23.12 34.475-32.14 49.88 10.88 49.88 10.88-.085-.94-.194-1.84-.314-2.72-1.97-6.75-4.758-13.15-8.264-19.07-14.145-14.38-40.274-3.64-40.274-3.64C151.25 65.52 130.18 63.7 130.18 63.7c20.977 14.327 5.297 39.85 5.297 39.85-20.516 30.682 10.475 60.692 5.21 83.375-2.663 11.463-17.538 4.518-20.825 11.13-2.19 4.405-12.916 13.534-21.35 18.777-2.03 1.262-2.96 1.916-5.084 2.25-.318.05-.652.1-.99.15 6.824 2.53 14.203 3.916 21.906 3.916z"/><path fill="#779232" d="M202.448 80.028c-10.005 3.518-17.122 21.772-17.122 21.772s16.977 9.782 26.98 6.265c10.005-3.52 11.97-11.262 9.248-19.003-2.722-7.742-9.103-12.55-19.106-9.034z"/><path fill="#9EB13F" d="M211.177 111.966c-6.325-8.514-25.868-9.9-25.868-9.9s-4.32 19.113 2.01 27.626c6.32 8.513 14.3 8.095 20.89 3.2 6.58-4.895 9.29-12.413 2.96-20.926z"/><path fill="#754C24" d="M141.256 142.884s-11.3-18.807.363-35.03c4.78-6.66 15.49-9.634 23.54-10.163-5.77 1.06-12.43 4.49-20 11.55 0 0-6.22 8.71-3.25 23.12 2.78 13.52 36.48 57.29 8.5 77.33 14.64-26.96-9.17-66.8-9.17-66.8zm4.16-66.567c1.578 4.416 2.168 10.36.778 18.38l-3.433 2.112c.01 0 3.28-9.23 2.66-20.5z"/><path fill="#55B53F" d="M189.48 121.03c2.02-10.413-10.135-25.78-10.135-25.78s-17.02 9.71-19.04 20.12 3.668 16.018 11.724 17.58c8.05 1.565 15.43-1.51 17.45-11.92z"/><path fill="#F15A22" d="M37.428 119.31s77 87.667 155.334 47.334c0 0-47 51-90.668 37.667-43.666-13.33-60.333-70.95-64.666-85z"/><path fill="#FFF" d="M97.39 168.543l2.26-1.188c.66-.394 1.447-.84 2.354-1.405.906-.59 1.933-1.244 3-2.04.545-.38 1.09-.805 1.648-1.253.567-.437 1.14-.9 1.708-1.407.58-.49 1.164-1.006 1.733-1.56.588-.537 1.162-1.11 1.73-1.708 1.156-1.174 2.246-2.473 3.31-3.81 1.015-1.37 2.022-2.776 2.834-4.254.815-1.47 1.525-2.976 1.976-4.44.44-1.45.62-2.87.465-3.882-.158-1.052-.522-1.43-1.065-1.786-.57-.347-1.495-.633-2.556-.65-1.02-.07-2.09.026-3.045.165-.946.102-1.826.355-2.52.474l-2.242.61-2.02-7.29 2.714-.61c.91-.12 1.95-.36 3.26-.45 1.29-.12 2.782-.2 4.534.01 1.7.16 3.818.64 5.877 2.11 1.024.72 1.938 1.77 2.6 2.96.303.59.54 1.22.746 1.85.13.61.3 1.26.34 1.86.2 2.46-.32 4.65-1.02 6.66-.73 2-1.71 3.81-2.78 5.54-1.07 1.73-2.3 3.29-3.54 4.79-1.28 1.46-2.58 2.85-3.93 4.1-.66.63-1.33 1.24-2.01 1.8-.66.58-1.33 1.12-1.99 1.63-.65.52-1.3 1-1.95 1.45-.63.46-1.25.89-1.87 1.28-1.21.81-2.37 1.47-3.39 2.07-1.04.58-1.99 1.06-2.75 1.46l-2.31 1.07-2.08-4.2z"/><path fill="#D0D1D2" d="M127.652 184.69s.788.1 2.168.272c.686.083 1.55.218 2.428.236l1.43.077.77.043c.267-.006.54-.012.818-.02.555-.01 1.133-.02 1.73-.033.6-.006 1.198-.116 1.82-.17.622-.062 1.26-.118 1.89-.273.633-.142 1.287-.23 1.93-.415.64-.19 1.29-.387 1.946-.584.64-.255 1.287-.512 1.94-.77 1.29-.585 2.58-1.22 3.85-1.987.64-.35 1.272-.755 1.9-1.168.627-.408 1.252-.797 1.87-1.243 1.237-.847 2.455-1.723 3.637-2.595l6.53-4.84c1.95-1.425 3.58-2.608 4.74-3.42l1.82-1.283 5.09 8.252s-.68.37-1.87 1.04c-1.2.65-2.9 1.62-4.93 2.8l-7.04 4.12c-1.31.76-2.68 1.54-4.12 2.31-.7.39-1.46.76-2.2 1.14-.74.38-1.5.75-2.29 1.08-1.54.71-3.18 1.32-4.8 1.84-.83.23-1.65.47-2.47.68l-2.47.46c-.81.13-1.62.17-2.4.25-.78.09-1.55.09-2.29.08-.74-.02-1.47.03-2.15-.04-.69-.06-1.35-.12-1.98-.17l-.93-.09-.89-.15-1.63-.27c-1.05-.15-1.84-.37-2.52-.52l-2.13-.51.75-4.19z"/><path fill="#FFF" d="M62.51 169.395s35.748 59.024 67.252 32.25c6.483-5.512 16.134-28.63-6.4-34.11-7.982-1.94-18.6 5.775-27.6-2.558"/><path fill="#D0D1D2" d="M88.028 176.535s23 28.833 41.833 13c3.78-3.17 6.5-15.333-6.33-18.667 0 0-6.5-1-11.83 2.834-5.33 3.833-13-1.333-13-4s-12.83 3.333-12.83 3.333l2.17 3.5z"/><path fill="#FFF" d="M118.317 194.158l2.29-.213c.73-.066 1.616-.147 2.598-.27.99-.12 2.105-.225 3.314-.412 1.21-.166 2.52-.358 3.87-.62 1.37-.22 2.77-.57 4.21-.9.71-.196 1.43-.396 2.16-.6.72-.204 1.43-.476 2.16-.71.73-.224 1.43-.54 2.14-.82l1.06-.432 1.04-.49c1.39-.62 2.73-1.4 4.04-2.14l1.91-1.19c.63-.39 1.23-.85 1.83-1.25 1.2-.8 2.32-1.73 3.39-2.53l2.97-2.44c.9-.79 1.73-1.52 2.46-2.17.73-.64 1.35-1.25 1.87-1.72l1.63-1.51 7.62 9.33-1.96 1.35c-.63.43-1.37.96-2.26 1.54l-2.99 1.94-3.65 2.2c-1.35.73-2.7 1.55-4.23 2.28-.76.37-1.5.77-2.29 1.12l-2.41 1.06c-1.66.65-3.34 1.31-5.09 1.81l-1.3.39-1.31.32c-.88.21-1.74.45-2.61.58-.87.15-1.73.34-2.58.45l-2.51.31c-1.64.13-3.23.28-4.72.31-1.49.07-2.89.07-4.18.06-1.28.01-2.46-.05-3.5-.07-1.05-.02-1.93-.07-2.66-.11l-2.3-.12-.09-4.25z"/><path fill="#D0D1D2" d="M101.678 127.238s7.886-7.903 6.917 4.67l-2.104-.73-4.81-3.94z"/><ellipse transform="rotate(61.7 85.8 150.6)" fill="#FFF" cx="85.768" cy="150.546" rx="24.28" ry="30.302"/><ellipse transform="rotate(61.7 88.9 148.5)" fill="#D0D1D2" cx="88.858" cy="148.535" rx="19.343" ry="25.358"/><ellipse transform="rotate(61.7 100 140.6)" fill="#FFF" cx="100.057" cy="140.562" rx="10.24" ry="10.391"/><ellipse transform="rotate(61.7 78.9 152.2)" fill="#FFF" cx="78.896" cy="152.215" rx="12.741" ry="12.825"/><path fill="#919396" d="M59.414 149.62c.002-.01-.668 6.548.158 8.128l-1.438-.84s-10.096-5.137 1.28-7.29z"/><path fill="#D0D1D2" d="M61.045 146.903s-7.22-.646-9.557 3.498c0 0-2.502 6.34 7.23 9.24l2.454.88s.714-1.51-.544-3.27c0 0-11.803-4.32-.102-7.1 0 0 1.59-1 .52-3.23z"/><circle fill="#0071BC" cx="76.469" cy="151.99" r="9.678"/><circle fill="#0F4481" cx="74.148" cy="151.417" r="4.971"/><circle fill="#FFF" cx="75.027" cy="150.7" r="2.642"/><circle fill="#FFF" cx="69.93" cy="153.97" r="1.286"/><circle fill="#0071BC" cx="98.854" cy="140.83" r="7.958"/><circle fill="#0F4481" cx="96.944" cy="140.358" r="4.087"/><circle fill="#FFF" cx="97.667" cy="139.768" r="2.173"/><circle fill="#FFF" cx="93.475" cy="142.458" r="1.057"/><path fill="#FFF200" d="M37.428 119.31s43.334 142 155.334 47.334c0 0-110.668 132.334-155.334-47.333z"/><path fill="#FFF" d="M83.408 183.767l-.572.367c-.38.24-.935.594-1.642 1.043-.783.45-1.756 1.07-2.833 1.628-1.07.6-2.32 1.217-3.69 1.87-1.38.635-2.89 1.286-4.53 1.9-1.65.596-3.4 1.203-5.29 1.676-1.89.49-3.88.91-6.04 1.11-2.16.19-4.46.27-7.14-.41-.64-.13-1.38-.44-2.08-.74-.34-.12-.74-.4-1.09-.61-.36-.25-.72-.43-1.07-.78-.35-.32-.69-.66-1.01-1.01-.3-.37-.57-.81-.83-1.24-.28-.43-.45-.87-.59-1.33-.14-.45-.31-.94-.37-1.37-.09-.83-.2-1.78-.09-2.47.04-.37.08-.74.13-1.11.05-.37.15-.65.23-.98.17-.63.34-1.28.58-1.79.23-.53.44-1.11.68-1.58.5-.95.99-1.9 1.53-2.69l.79-1.22.81-1.1c.53-.74 1.07-1.41 1.6-2.04.53-.63 1.03-1.26 1.54-1.81 1.01-1.12 1.94-2.14 2.79-2.98.84-.86 1.58-1.61 2.21-2.19l1.95-1.86 6.04 6.55-1.81 1.72c-.59.54-1.26 1.22-2.03 2-.79.77-1.61 1.67-2.51 2.66-.47.49-.88 1.02-1.34 1.56-.46.54-.91 1.1-1.33 1.68l-.66.89-.59.9c-.43.62-.72 1.22-1.06 1.83-.26.59-.55 1.21-.64 1.67-.03.12-.1.27-.1.35 0 .09-.01.17-.02.26-.07.22.03.2-.02.3-.01.03.03-.02.01-.02-.02 0-.04-.01-.03-.05 0-.03-.05-.05-.06-.06.02-.02.01-.03 0-.02-.05.01.05.02.07.04.05.02.02.07.13.09.18.05.29.15.58.2.99.27 2.53.32 4.06.18 1.54-.12 3.15-.45 4.69-.84 1.55-.37 3.04-.89 4.45-1.38 1.41-.52 2.72-1.07 3.92-1.61 1.19-.56 2.28-1.09 3.22-1.61.97-.49 1.69-.96 2.34-1.32.67-.4 1.24-.78 1.61-1.01l.57-.36 4.63 7.25z"/><path fill="#D0D1D2" d="M39.274 109.138c-2.765-4.295-7.736-6.02-11.103-3.854-3.36 2.168-3.85 7.407-1.09 11.702s7.74 6.02 11.11 3.854c3.37-2.167 3.86-7.407 1.09-11.702zm-2.875 8.928c-2.17 1.395-5.37.284-7.15-2.48-1.78-2.764-1.47-6.135.7-7.53 2.16-1.395 5.36-.283 7.14 2.48 1.78 2.764 1.46 6.136-.7 7.53z"/><path fill="#FFF200" d="M36.953 116.952s1.906-.39 2.156 2.89c0 0 .53.767.98.064.7-1.087-.97-4.22-2.74-3.906 0 0-.74.202-.41.952z"/><path fill="#F15A22" d="M36.277 117.65s1.906-.39 2.156 2.89c0 0 .53.767.984.064.7-1.087-.97-4.22-2.734-3.906 0 0-.74.202-.406.952z"/><path fill="#FFF200" d="M35.36 118.046s1.905-.39 2.155 2.89c0 0 .53.767.984.064.7-1.087-.97-4.22-2.74-3.906 0 0-.74.202-.41.952z"/><path fill="#F15A22" d="M34.516 118.655s1.906-.39 2.156 2.89c0 0 .53.767.984.064.7-1.09-.97-4.22-2.734-3.91 0 0-.738.2-.406.95z"/><path fill="#D0D1D2" d="M190.25 169.12c3.366 2.167 8.338.44 11.103-3.854s2.276-9.534-1.09-11.702c-3.367-2.167-8.34-.44-11.104 3.854s-2.28 9.535 1.09 11.702zm1.082-10.304c1.78-2.764 4.98-3.875 7.146-2.48 2.167 1.396 2.48 4.767.702 7.53-1.78 2.765-4.98 3.875-7.146 2.48s-2.48-4.766-.702-7.53z"/><path fill="#FFF200" d="M191.48 165.232s-1.906-.39-2.156 2.89c0 0-.53.767-.984.064-.7-1.087.97-4.22 2.734-3.906 0 0 .74.202.406.952z"/><path fill="#F15A22" d="M192.156 165.93s-1.906-.39-2.156 2.892c0 0-.53.766-.984.063-.7-1.087.97-4.22 2.734-3.906 0-.01.74.2.406.95z"/><path fill="#FFF200" d="M193.074 166.326s-1.906-.39-2.156 2.89c0 0-.53.767-.984.064-.7-1.087.97-4.22 2.734-3.906 0 0 .738.202.406.952z"/><path fill="#F15A22" d="M193.918 166.936s-1.906-.39-2.156 2.89c0 0-.53.767-.984.064-.7-1.087.97-4.22 2.734-3.906 0-.002.738.202.406.952z"/><path fill="#D0D1D2" d="M95.885 161.95c4.22 3.962 6.795 4.89 7.96 3.944 1.145-.932.683-3.424-2.23-8.246"/><path fill="#6D6F71" d="M95.885 161.95s.26.142.673.438c.42.29.983.723 1.65 1.263.677.53 1.487 1.11 2.415 1.61.467.24.962.47 1.477.59.508.12 1.052.14 1.436-.11.038-.02.115-.07.124-.08l.155-.15c.062-.1.12-.15.165-.27.107-.2.135-.46.154-.71.01-.51-.095-1.05-.244-1.55-.287-1.01-.72-1.91-1.09-2.68-.388-.76-.672-1.42-.885-1.88-.2-.46-.3-.74-.3-.74s.193.22.505.63c.296.42.72 1.01 1.123 1.78.396.78.85 1.7 1.173 2.76.165.53.296 1.11.294 1.72-.017.31-.046.64-.192.95-.05.15-.18.33-.284.46l-.152.15c-.093.09-.15.11-.227.17-.61.39-1.324.3-1.894.16-.58-.15-1.1-.4-1.59-.67-.96-.54-1.77-1.16-2.46-1.71-1.37-1.08-2.02-2.08-2.02-2.08z"/><path fill="#BE202E" d="M99.94 156.854c-1.075.232-2.36-.413-3.024-1.35.543 1.426.092 3.163-.973 4.35 2.943 2.765 5.322 4.23 6.135 3.568.8-.65-.105-3.203-2.138-6.568z"/><path fill="#6D6F71" d="M100.956 151.93c.038-.033.738.622 1.005 2.096.16 1.04-.34 2.35-1.56 2.978-.63.304-1.37.22-2-.017-.16-.056-.32-.118-.47-.214l-.22-.13c-.08-.048-.16-.093-.15-.096l-.1-.083v.017l.01.07c0 .03.01-.01.01.06v.19c-.01 1.76-1 3.32-2.31 4.11-.66.4-1.4.61-2.1.6-.7-.03-1.34-.13-1.9-.44-1.22-.76-1.69-1.51-1.65-1.56.08-.1.72.55 1.87 1.13.97.44 2.36.51 3.49-.23 1.13-.69 1.99-2.1 2-3.6l.01-.16c0-.04-.04-.22-.06-.32l-.16-.72c-.05-.23-.14-.51-.21-.76l-.11-.38-.06-.19c-.02-.05 0-.03.03 0l.06.08.76.89.7.7c.05.05.13.13.16.15l.1.06.19.11c.12.09.25.14.39.19.53.21 1.11.27 1.56.06.43-.2.83-.6 1.04-1.04.25-.43.29-.91.27-1.36-.12-1.3-.65-2.09-.52-2.14z"/><path fill="#0B8ECC" d="M95.05 152.01s-2.493-1.755-1.768 3.356l3.917.828 1.18-3.358c0-.002-3.65-3.11-3.33-.825z"/><path fill="#FFF" d="M93.8 155.035l1.68.35s-1.037-1.284-1.68-.35zm3.71-.743l.45-1.097s-.756.033-.45 1.097z"/><g fill="#D0D1D2"><path d="M185.83 145.863s-1.04-4.482-5.283-2.966c-4.242 1.515-13.86 9.387-10.307 34.368 0 0 1.64 4.213 5.392 2.28 0 0 2.085-.976 2.86-3.642s-.594-9.432.674-11.68c0 0 5.813-1.367 5.17-8.907 0 0 2.994 2.583 5.18-1.938 2.184-4.52.447-4.236.447-4.236s.85-5.386-4.134-3.28z"/><path d="M178.768 147.22c-.594 2.413-.116 6.52 3.413 5.722 2.58-.556 4.35-4.677 3.69-7.044"/><path d="M182.504 152.842c.014-.056-.085-.14.04-.168.778 1.68 1.634 3.335 3.948 2.103 1.986-1.058 3.342-4.386 3.45-5.55m-13.262 13.968c.182-.49.643-.676 1.022-1 1.383-1.028 2.556-2.405 2.535-4.255"/></g><path fill="#FFF" d="M175.996 143.975s-2.64-5.204-7.404-2.052c-4.766 3.15-14.223 15.763-2.273 45.452 0 0 3.29 4.69 7.33 1.173 0 0 2.27-1.832 2.42-5.352.14-3.52-3.6-11.437-2.72-14.59 0 0 6.74-3.445 3.66-12.535 0 0 4.47 2.28 5.79-3.95 1.32-6.23-.74-5.35-.74-5.35s-.59-6.89-6.09-2.78z"/><path fill="#6D6F71" d="M176.045 144.008c.06-.054.682.696.9 2.127.176 1.16.11 2.515-.265 3.918-.392 1.37-1.103 2.922-2.583 3.842-.743.423-1.548.73-2.407.685-.85-.026-1.632-.432-2.173-.967-1.094-1.092-1.52-2.44-1.775-3.574-.265-1.37-.11-2.26-.03-2.26.114 0 .137.86.5 2.14.277 1.07.742 2.33 1.708 3.25.48.45 1.104.76 1.794.78.685.04 1.42-.24 2.06-.61 1.262-.77 1.956-2.18 2.342-3.47.376-1.32.473-2.6.347-3.7-.092-1.36-.522-2.14-.418-2.19z"/><path fill="#6D6F71" d="M182.08 146.87c.09-.024.313.894.138 2.297-.085.754-.264 1.602-.548 2.5-.13.452-.354.896-.54 1.368l-.394.674c-.13.22-.267.45-.464.65l-.552.62c-.217.16-.404.35-.638.49-.434.3-.945.52-1.47.58-1.093.11-1.942-.53-2.463-1.06-.67-.68-1.03-1.28-1.21-1.58l.11.02c-.07-.07.01.16-.04.14-.02 0-.04-.02-.07-.04-.04 0-.14-.17.02-.27l.11.02c.27.22.72.76 1.39 1.34.53.48 1.25.94 2.06.82.4-.06.81-.23 1.19-.51.2-.12.37-.3.56-.45l.48-.55c.17-.17.3-.38.42-.59.12-.21.25-.42.37-.62.18-.44.4-.85.53-1.28.29-.85.5-1.66.62-2.38.28-1.34.24-2.21.34-2.23zm-9.31 13.673c.052-.03.49.84.313 2.294-.042.55-.24 1.235-.576 1.917-.355.682-.772 1.26-1.144 1.643-.425.54-.872.915-1.06 1.2-.2.293-.257.506-.32.497-.032.005-.07-.242.083-.628.17-.404.545-.797.91-1.357.3-.44.64-1.01.972-1.64.31-.63.535-1.23.656-1.72.274-1.31.034-2.19.165-2.21z"/><path fill="#D0D1D2" d="M143.747 188.41s16.28-4.04 21.614-2.458c0 0-2.36-9.76-3.23-11.51-.77-1.538-17.21 12.385-18.37 13.968z"/><path fill="#FFF" d="M161.86 173.036s5.827 12.71 3.73 12.655c-3.563-.09-14.87-.59-15.313-.78-1.656-.68.315-2.39 3.75-5.31 3.345-2.84 7.834-6.56 7.834-6.56z"/><path fill="#9EB13F" d="M169.26 54.478l11.932-4.68c-1.593-5.037-5.498-9.096-10.715-11.993-10.187-5.658-21.494-4.756-28.807 8.408S144 85.475 144 85.475s27.25-5.607 34.562-18.77c1.236-2.226 2.105-4.36 2.662-6.403l-11.963-5.824z"/><path fill="#55B53F" d="M112.848 88.194c9.903 5.014 28.854-2.826 28.854-2.826s-4.9-19.913-14.803-24.926c-9.91-5.014-17.18-.892-21.06 6.77-3.88 7.666-2.9 15.97 7 20.982z"/><path fill="#779232" d="M105.256 58.963c7.818 13.82 36.6 19.51 36.6 19.51s9.95-27.6 2.133-41.42c-7.82-13.82-19.75-14.68-30.45-8.628-10.7 6.05-16.11 16.72-8.29 30.538z"/><g opacity=".15"><path d="M85.334 77.312c-.962 0-1.744.176-2.377.442-.85-1.065-2.122-1.696-3.51-1.696-1.272 0-2.956.488-4.284 2.587-.1-.095-.19-.196-.298-.28-.752-.586-1.65-1.066-2.75-1.47-.446-.164-.913-.245-1.38-.245-.633 0-1.266.15-1.84.45-.14.07-.274.15-.402.238-.08.013-.16.027-.24.044-3.15.053-5.404 2.34-6.694 4.037-.72-.68-1.63-1.2-2.72-1.48-.33-.09-.67-.13-1-.13-.27 0-.53.02-.78.07-.13-.26-.25-.48-.37-.67-1.25-2.01-2.96-2.31-3.87-2.31-1.06 0-1.94.33-2.69.84l.54-.72c.95-1.25 1.83-2.62 1.83-4.24 0-.66-.16-1.3-.46-1.87-.57-1.51-1.89-3.25-4.84-4.39-1.7-.7-3.39-1.05-5.04-1.05h-.21c-.1 0-.2 0-.3.01-.82-.68-1.86-1.27-3.19-1.27-2.97 0-4.31 2.78-5.29 4.84-.99 2.1-1.35 3.16-1.49 3.95l-3.64 13.55c-.08.3-.13.61-.14.93-.02.23-.07.72-.16 1.57-.04.45-.07.84-.09 1.17-.05.13-.09.25-.12.37-.13.43-.17.87-.14 1.31-.03.27-.02.56.02.84.04.29.1.57.2.83 0 .14.01.28.02.43.08 1.16.66 2.18 1.51 2.85.6.56 1.37.93 2.24 1.04.16.02.32.03.48.03 1.15 0 2.22-.5 2.96-1.32.67.18 1.42.26 2.27.27.26.05.53.07.8.07.32 0 .65-.03 1.02-.1h.04c.2.02.39.03.58.03.41 0 .8-.06 1.18-.17.33-.06.64-.16.94-.27.3-.03.59-.08.88-.17.57-.11 1.07-.32 1.51-.53l.06-.03c.54-.17 1.02-.45 1.43-.81.99 1.66 2.72 2.72 4.93 2.89.1.01.21.01.32.01h.27c.9 0 2.2-.28 3.49-1.58 1.23 1.75 2.79 2.03 3.65 2.03.62 0 1.22-.12 1.82-.38.7-.25 1.29-.7 1.75-1.27.89.54 1.93 1.01 3.12 1.01.11 0 .45-.02 1.03-.08.16-.01.28-.03.36-.03.41-.01.8-.08 1.18-.2l.08-.01c1.37-.08 2.4-.8 4.3-2.22.11-.08.19-.18.29-.27.96 1.66 2.62 2.18 3.76 2.18h.62c1.38 0 2.38-.55 3.46-1.67l.02.05c.18.68.53 1.31 1.04 1.81l.24.25c.75.75 1.77 1.18 2.83 1.18.52 0 1.05-.09 1.6-.27 1.72-.45 2.99-2.01 2.99-3.87v-.95c0-.13 0-.27-.02-.4.05-.16.08-.26.11-.33.11-.32.18-.65.21-.98.24-.76.36-1.59.36-2.48v-.06c.1-.44.22-1 .37-1.78.44-2.19.53-2.98.53-3.55 0-6.21-3.81-6.69-4.98-6.69zm-46.5 9.867c-.06.02-.113.05-.162.07-.144.03-.284.07-.422.12l-.406.03c.24-.78.462-1.52.667-2.21.41.14.86.41 1.34.8.19.15.33.27.45.39-.18.13-.36.27-.52.4-.3.11-.6.24-.92.39zm8.902-6.58c-.118-.13-.228-.27-.353-.4.186-.15.374-.31.566-.48.16-.07.31-.15.46-.23-.25.35-.48.72-.68 1.1zm73.134.51c1.38-1.48 2.284-2.68 2.83-3.77.877-1.09 1.417-2.24 1.613-3.44.167-.45.258-.92.258-1.41v-1.43c0-.31-.03-.62-.1-.92-.19-.83-.51-1.57-.93-2.21-.24-.55-.61-1.05-1.09-1.44-2.07-1.73-3.83-2.54-5.56-2.54-.33 0-.65.04-.96.11-1.2.04-2.36.38-3.42 1-.69.39-.98.54-1.07.58l-.05.02c-.58.23-1.11.59-1.58 1.07-.82.54-1.41 1.37-1.66 2.32-.62 1.04-1.42 2.72-2.5 5.71-.05.13-.09.26-.12.4l-2.33 9.44c-.04.16-.07.32-.09.48-.03.21-.12.75-.27 1.56-.12.62-.19 1.22-.21 1.81-.08.22-.15.45-.2.7-.02.08-.03.16-.05.24-.02.17-.05.33-.06.5-.18.54-.27 1.08-.27 1.62 0 .71.11 1.39.32 2.03.01.36.04.7.1 1.02.35 1.9 2.01 3.28 3.94 3.28h.45c1.8 0 3.32-1.19 3.82-2.82.25-.4.44-.84.54-1.3.08-.37.1-.74.08-1.11l.06-.24c.12-.49.21-.89.27-1.23.29-.78.6-1.96 1.03-4.07.04-.21.08-.39.12-.55.64-.15 1.22-.44 1.71-.85l.13-.07c.06-.04.12-.07.17-.11.29-.16.58-.36.86-.62.09-.05.17-.11.25-.17 1.3-.94 2.66-2.17 4.03-3.64zm57.98-3.44c2.617 0 4.592-2.01 4.592-4.66 0-2.42-1.666-4.36-4.146-4.84-.255-.05-.51-.08-.76-.08-1.465 0-2.84.8-3.54 2.14-.426.81-.81 1.62-.81 2.66 0 2.71 2.004 4.76 4.663 4.76zm32.088 0c2.618 0 4.593-2.01 4.593-4.66 0-2.42-1.66-4.36-4.14-4.84-.25-.05-.51-.08-.76-.08-1.46 0-2.84.8-3.54 2.14-.42.81-.81 1.62-.81 2.66 0 2.71 2.01 4.76 4.67 4.76z"/><path d="M227.097 84.134c0-.4-.053-.81-.187-1.452l-.03-.15c-.034-.587-.196-1.14-.46-1.634-.156-.996-.686-1.905-1.494-2.534-.75-.585-1.65-1.065-2.748-1.47-.447-.163-.914-.245-1.38-.245-.634 0-1.265.15-1.84.44-.14.07-.274.15-.403.24l-.24.04c-3.53.06-5.93 2.92-7.115 4.62-.243-.54-.605-1.04-1.08-1.43-.52-.44-1.127-.76-2.238-1.19-.46-.18-.946-.27-1.438-.27-1.098 0-1.927.39-2.576.92-.195-.49-.47-.96-.858-1.35-.46-.47-.945-.76-1.858-1.23-.95-.5-1.638-.86-2.687-.86-2.37 0-4.554 1.02-6.524 3.03-.18-.34-.39-.66-.67-.94-.46-.47-.94-.76-1.86-1.23-.95-.5-1.63-.86-2.68-.86-2.97 0-5.65 1.59-7.98 4.74-.2-.29-.43-.55-.7-.78-.52-.44-1.13-.76-2.24-1.19-.46-.18-.94-.27-1.43-.27-.28 0-.54.04-.8.08-.73-.96-1.87-1.59-3.17-1.59h-.42c-.64 0-1.27.15-1.82.44-.78-.61-1.77-.96-2.88-.96-.94 0-1.77.26-2.5.69-1.27-1.69-2.78-2.55-4.46-2.55h-.19c-.3-.06-.64-.11-.99-.11-2.88 0-5.37 1.81-7.44 5.34-.65-.29-1.39-.46-2.17-.46-.79 0-1.48.21-2.11.55-.41-.29-.85-.53-1.34-.69-.06-.33-.15-.66-.28-.98-.32-.96-.99-1.77-1.9-2.26-.9-.49-1.77-.72-2.66-.72-2.01 0-3.34 1.21-4.32 2.79-.11-.12-.23-.24-.36-.35-.75-.59-1.65-1.07-2.75-1.47-.44-.17-.91-.25-1.37-.25-.63 0-1.26.15-1.84.45-.14.07-.27.15-.4.24-.08.01-.16.02-.24.04-4.2.07-6.81 4.12-7.66 5.44-1.85 2.83-2.67 4.9-2.67 6.71 0 .09 0 .19.01.3-.03.43.01.87.12 1.29.14.55.29 1.09.43 1.61l.03.11c.66 2.17 1.89 3.16 2.96 3.62.96.61 2.11 1.21 3.45 1.21.12 0 .46-.02 1.03-.07.16-.02.28-.03.36-.04.41-.01.81-.08 1.18-.2l.08-.01c1.38-.08 2.41-.8 4.31-2.22.22-.16.41-.34.58-.54.11.13.2.27.32.4 1.28 1.34 2.65 1.62 3.58 1.62 2.14 0 3.63-1.47 5.03-3.04l.47-.55c.2.09.38.17.54.24.42.16.85.26 1.28.28.13.26.28.51.46.74.37 1.23 1.32 2.24 2.58 2.65.41.14.84.2 1.25.2.92 0 1.81-.32 2.53-.9.83.81 1.77 1.49 2.87 1.77.51.22 1.06.34 1.6.35.3.07.61.1.91.1.51 0 1.02-.1 1.5-.29.76-.16 1.47-.53 2.03-1.09.26-.26.72-.73 1.07-1.39.55.24 1.07.41 1.57.51.25.04.5.07.74.07.93 0 1.83-.33 2.56-.93.53-.44.94-1.01 1.18-1.64l.61-.7.19-.25V94c0 .894.31 1.762.85 2.465.73 1.164 2.01 1.884 3.4 1.884h.46c.51 0 .99-.11 1.45-.29-.3.44-.52.94-.62 1.5-.37 2.04.76 3.63 1.13 4.15l.08.1c.62.8 1.17 1.34 1.78 1.72.65.4 1.38.61 2.12.61.07 0 .14-.01.21-.01h.22c.11 0 .23 0 .34-.01.11.01.22.01.33.01.54 0 1.07-.1 1.65-.3.6-.13 1.12-.37 1.6-.62l.1-.06c.64-.21 1.22-.59 1.67-1.08.48-.4.83-.83 1.07-1.13.01-.01.04-.05.07-.09.2.36.4.65.52.81.02.04.05.07.08.11.62.81 1.17 1.34 1.78 1.73.65.4 1.39.61 2.12.61.07 0 .14 0 .21-.01h.21c.11 0 .22 0 .33-.01.11.01.22.01.33.01.54 0 1.07-.1 1.65-.3.6-.13 1.11-.37 1.6-.62l.1-.06c.64-.21 1.21-.59 1.67-1.08.47-.4.82-.83 1.06-1.13l.25-.32c.51-.33.94-.76 1.26-1.28.14-.17.27-.35.4-.55l.3-.46c.67-.88 1.17-1.56 1.5-2.03.05-.07.09-.13.13-.2l.43-.71c.7.56 1.58.89 2.51.89h.45c1.57 0 2.99-.92 3.64-2.35.37-.8.65-1.43.85-1.89.19-.31.33-.67.43-1.03.67 2.01 1.85 2.97 2.88 3.41.96.61 2.11 1.2 3.45 1.2.12 0 .46-.02 1.03-.08l.36-.03c.41-.01.81-.08 1.18-.21l.08-.01c1.37-.08 2.4-.8 4.31-2.22.15-.11.29-.23.43-.36.22-.2.42-.42.59-.67.16-.2.63-.79 1.44-1.78.47-.57.84-1.16 1.11-1.75.39-.54.66-1.15.79-1.79l.35-.92c.1-.26.16-.52.21-.78.14-.5.19-1.03.15-1.57l-.01-.26c.08-.43.12-.8.12-1.15zm-36.555 10.672c.06-.105.12-.23.187-.363.02.014.03.032.06.045-.05.07-.09.14-.13.212l-.19.334c-.05.038-.08.09-.13.13.06-.12.13-.245.19-.358zm-15.56 1.727c.11-.17.21-.348.297-.537.36-.804.64-1.435.84-1.895.24-.39.42-.83.51-1.31.02-.13.07-.33.16-.63.18.31.38.61.61.88.48.59 1.02 1.08 1.63 1.46-.05.07-.09.14-.13.21l-.19.34c-.26.21-.49.45-.69.71-.18.24-.33.43-.47.6-.26-.05-.52-.07-.79-.07h-.39c-.51 0-.99.1-1.43.27z"/></g><g fill="#FFF"><path d="M84.584 76.062c-.962 0-1.744.176-2.377.442-.85-1.065-2.122-1.696-3.51-1.696-1.272 0-2.956.488-4.284 2.587-.1-.095-.19-.196-.298-.28-.752-.586-1.65-1.066-2.75-1.47-.446-.164-.913-.245-1.38-.245-.633 0-1.266.15-1.84.45-.14.07-.274.15-.402.238-.08.013-.16.027-.24.044-3.15.053-5.404 2.34-6.694 4.037-.72-.68-1.63-1.2-2.72-1.48-.33-.09-.67-.13-1-.13-.27 0-.53.02-.78.07-.13-.26-.25-.48-.37-.67-1.25-2.01-2.96-2.31-3.87-2.31-1.06 0-1.94.33-2.69.84l.54-.72c.95-1.25 1.83-2.62 1.83-4.24 0-.66-.16-1.3-.46-1.87-.57-1.51-1.89-3.25-4.84-4.39-1.7-.7-3.39-1.05-5.04-1.05h-.21c-.1 0-.2 0-.3.01-.82-.68-1.86-1.27-3.19-1.27-2.97 0-4.31 2.78-5.29 4.84-.99 2.1-1.35 3.16-1.49 3.95L27.3 85.32c-.08.303-.126.616-.134.93-.015.23-.068.727-.16 1.57-.04.453-.07.84-.09 1.175-.045.13-.085.25-.12.376-.123.43-.168.88-.14 1.31-.024.28-.017.56.02.84.04.29.107.57.205.84 0 .14.01.28.02.43.08 1.16.66 2.18 1.51 2.85.6.56 1.38.94 2.24 1.04.16.02.32.03.48.03 1.15 0 2.22-.49 2.97-1.31.68.18 1.43.27 2.27.27.26.05.53.07.8.07.33 0 .66-.03 1.03-.1h.04c.2.03.39.04.58.04.41 0 .81-.06 1.19-.16.34-.06.65-.16.94-.27.3-.02.6-.08.88-.16.57-.11 1.07-.32 1.51-.53l.06-.02c.54-.17 1.02-.45 1.43-.81.99 1.66 2.72 2.72 4.94 2.89.11.01.22.01.32.01h.28c.9 0 2.2-.28 3.49-1.57 1.23 1.75 2.79 2.03 3.65 2.03.62 0 1.22-.12 1.82-.38.7-.25 1.29-.7 1.75-1.26.9.54 1.93 1.01 3.13 1.01.11 0 .46-.02 1.03-.07.16-.01.28-.03.36-.03.41-.01.81-.08 1.18-.2l.08-.01c1.38-.07 2.41-.79 4.31-2.21.11-.08.2-.18.3-.27.96 1.65 2.63 2.18 3.76 2.18h.63c1.38 0 2.39-.55 3.46-1.68l.03.05c.18.68.53 1.31 1.04 1.82l.24.25c.75.76 1.77 1.18 2.83 1.18.52 0 1.05-.08 1.6-.26 1.72-.44 2.99-2.01 2.99-3.87v-.94c0-.14 0-.27-.01-.4.04-.16.08-.26.1-.33.11-.31.18-.64.21-.97.24-.76.37-1.59.37-2.48v-.08c.1-.43.22-1 .37-1.78.44-2.19.53-2.98.53-3.55 0-6.2-3.81-6.68-4.97-6.68zM39.01 85.535c-.3.11-.6.246-.926.394-.06.02-.113.05-.162.07-.144.03-.284.07-.422.12l-.406.03c.24-.78.462-1.52.667-2.21.41.14.86.41 1.34.8.19.15.33.27.45.39-.18.13-.36.27-.52.4zm8.19-7.046c.164-.07.316-.15.468-.24-.25.35-.476.72-.68 1.1-.12-.13-.23-.27-.354-.4.186-.15.374-.31.566-.48zm72.92 1.37c1.38-1.48 2.284-2.68 2.83-3.77.877-1.09 1.417-2.24 1.613-3.44.167-.45.257-.92.257-1.41v-1.43c0-.31-.036-.62-.107-.92-.195-.83-.51-1.57-.937-2.21-.246-.55-.615-1.05-1.088-1.44-2.068-1.73-3.835-2.54-5.562-2.54-.33 0-.652.04-.96.11-1.203.04-2.362.38-3.417 1-.69.39-.98.54-1.08.58l-.05.02c-.58.23-1.11.59-1.58 1.07-.82.54-1.42 1.37-1.67 2.32-.62 1.04-1.42 2.72-2.51 5.71-.05.13-.09.26-.12.4l-2.34 9.44c-.04.16-.07.32-.09.48-.03.21-.13.75-.27 1.56-.12.62-.2 1.22-.22 1.81-.08.22-.15.45-.21.7-.02.08-.04.16-.05.24-.03.17-.05.33-.07.5-.18.54-.27 1.08-.27 1.62 0 .71.11 1.39.31 2.03.01.36.04.7.1 1.02.35 1.9 2 3.28 3.93 3.28h.45c1.8 0 3.32-1.19 3.82-2.82.25-.4.44-.84.54-1.3.08-.37.11-.74.08-1.11l.06-.24c.12-.49.2-.89.26-1.23.28-.78.6-1.96 1.03-4.07.04-.21.08-.39.12-.55.64-.15 1.22-.44 1.7-.85l.13-.07.16-.11c.29-.16.58-.36.86-.62.09-.05.17-.11.25-.17 1.3-.94 2.66-2.17 4.03-3.64zm57.98-3.44c2.617 0 4.592-2.01 4.592-4.66 0-2.42-1.666-4.36-4.146-4.84-.255-.05-.51-.08-.76-.08-1.465 0-2.84.8-3.54 2.14-.426.81-.81 1.62-.81 2.66 0 2.71 2.004 4.76 4.663 4.76zm32.088 0c2.618 0 4.593-2.01 4.593-4.66 0-2.42-1.66-4.36-4.14-4.84-.25-.05-.51-.08-.76-.08-1.46 0-2.84.8-3.54 2.14-.42.81-.81 1.62-.81 2.66 0 2.71 2.01 4.76 4.67 4.76z"/><path d="M226.347 82.884c0-.4-.053-.81-.187-1.452l-.03-.15c-.034-.587-.196-1.14-.46-1.634-.156-.996-.686-1.905-1.494-2.534-.75-.585-1.65-1.065-2.748-1.47-.447-.163-.914-.245-1.38-.245-.634 0-1.265.15-1.84.44-.14.07-.274.15-.403.24l-.24.04c-3.53.06-5.93 2.92-7.115 4.62-.243-.54-.605-1.04-1.08-1.43-.52-.44-1.127-.76-2.238-1.19-.46-.18-.946-.27-1.438-.27-1.098 0-1.927.39-2.576.92-.195-.49-.47-.96-.858-1.35-.46-.47-.945-.76-1.858-1.23-.95-.5-1.638-.86-2.687-.86-2.37 0-4.554 1.02-6.524 3.03-.18-.34-.39-.66-.67-.94-.46-.47-.94-.76-1.86-1.23-.95-.5-1.63-.86-2.68-.86-2.97 0-5.65 1.59-7.98 4.74-.2-.29-.43-.55-.7-.78-.52-.44-1.13-.76-2.24-1.19-.46-.18-.94-.27-1.43-.27-.28 0-.54.04-.8.08-.73-.96-1.87-1.59-3.17-1.59h-.42c-.64 0-1.27.15-1.82.44-.78-.61-1.77-.96-2.88-.96-.94 0-1.77.26-2.5.69-1.27-1.69-2.78-2.55-4.46-2.55h-.19c-.3-.06-.64-.11-.99-.11-2.88 0-5.37 1.81-7.44 5.34-.65-.29-1.39-.46-2.17-.46-.79 0-1.48.21-2.11.55-.41-.29-.85-.53-1.34-.69-.06-.33-.15-.66-.28-.98-.32-.96-.99-1.77-1.9-2.26-.9-.49-1.77-.72-2.66-.72-2.01 0-3.34 1.21-4.32 2.79-.11-.12-.23-.24-.36-.35-.75-.59-1.65-1.07-2.75-1.47-.44-.17-.91-.25-1.37-.25-.63 0-1.26.15-1.84.45-.14.07-.27.15-.4.24-.08.01-.16.02-.24.04-4.2.07-6.81 4.12-7.66 5.44-1.85 2.83-2.67 4.9-2.67 6.71 0 .09 0 .19.01.3-.03.43.01.87.12 1.29.14.55.29 1.09.43 1.61l.03.11c.66 2.17 1.89 3.16 2.96 3.62.96.61 2.11 1.21 3.45 1.21.12 0 .46-.02 1.03-.07.16-.02.28-.03.36-.04.41-.01.81-.08 1.18-.2l.08-.01c1.38-.08 2.41-.8 4.31-2.22.22-.16.41-.34.58-.54.11.13.2.27.32.4 1.28 1.34 2.65 1.62 3.58 1.62 2.14 0 3.63-1.47 5.03-3.04l.47-.55c.2.09.38.17.54.24.42.16.85.26 1.28.28.13.26.28.51.46.74.37 1.23 1.32 2.24 2.58 2.65.41.14.84.2 1.25.2.92 0 1.81-.32 2.53-.9.83.81 1.77 1.49 2.87 1.77.51.22 1.06.34 1.6.35.3.07.61.1.91.1.51 0 1.02-.1 1.5-.29.76-.16 1.47-.53 2.03-1.09.26-.26.72-.73 1.07-1.39.55.24 1.07.41 1.57.51.25.04.5.07.74.07.93 0 1.83-.33 2.56-.93.53-.44.94-1.01 1.18-1.64l.61-.7.19-.25v1.21c0 .89.31 1.76.85 2.46.73 1.16 2.01 1.88 3.4 1.88h.45c.51 0 .99-.11 1.45-.28-.3.44-.52.94-.62 1.5-.37 2.04.76 3.62 1.13 4.14l.08.11c.62.81 1.17 1.34 1.78 1.73.65.4 1.38.61 2.12.61.07 0 .14 0 .21-.01h.22c.11 0 .23 0 .34-.01.11.01.22.02.33.02.54 0 1.07-.1 1.65-.3.6-.12 1.12-.37 1.6-.62l.1-.05c.64-.21 1.22-.58 1.67-1.07.48-.4.83-.83 1.07-1.12.01-.01.04-.04.07-.08.2.37.4.65.52.82.02.04.05.07.08.1.62.81 1.17 1.34 1.78 1.73.65.4 1.39.61 2.12.61.07 0 .14 0 .21-.01h.21c.11 0 .22-.01.33-.01.11.01.22.01.33.01.54 0 1.07-.1 1.65-.3.6-.13 1.11-.38 1.6-.62l.1-.06c.64-.21 1.21-.59 1.67-1.08.47-.4.82-.83 1.06-1.13l.25-.32c.51-.33.94-.76 1.26-1.28.14-.17.27-.35.4-.55l.3-.47c.67-.88 1.17-1.56 1.5-2.03l.13-.19.43-.7c.7.57 1.58.9 2.51.9h.45c1.57 0 2.99-.92 3.64-2.35.37-.81.65-1.44.85-1.9.19-.32.33-.67.43-1.04.68 2.01 1.85 2.97 2.88 3.4.96.62 2.11 1.21 3.46 1.21.11 0 .46-.01 1.03-.07.16-.02.28-.03.36-.03.41-.01.8-.08 1.18-.21l.08-.01c1.38-.08 2.41-.8 4.31-2.22.15-.11.29-.23.42-.37.22-.19.42-.41.59-.66.16-.2.63-.79 1.44-1.78.47-.57.84-1.15 1.11-1.75.39-.53.66-1.14.79-1.78l.35-.92c.1-.25.17-.51.21-.78.14-.5.19-1.03.15-1.56l-.01-.26c.08-.43.12-.79.12-1.15zm-48.18 10.567c-.063.12-.126.23-.187.34-.253.21-.483.45-.683.71-.174.24-.33.43-.466.6-.25-.05-.51-.08-.78-.08h-.38c-.5 0-.98.1-1.43.27.12-.17.22-.35.3-.53.37-.8.65-1.43.85-1.89.24-.39.42-.83.52-1.31.03-.13.08-.33.16-.63.19.31.39.61.62.88.48.59 1.03 1.08 1.63 1.46-.04.07-.09.14-.13.22zm11.742 0l-.19.34c-.05.04-.08.09-.13.13.06-.12.13-.24.19-.36.06-.1.12-.23.18-.36l.06.05c-.05.07-.09.14-.13.22z"/></g><path fill="#0071BC" d="M47.758 71.56c0 .326-.337.93-1.01 1.813-.675.883-1.01 1.348-1.01 1.394-.024-.07-.118-.104-.28-.104-1.185 1.115-1.905 1.672-2.16 1.672-.07 0-.14-.035-.21-.104-.162.17-.15.25.036.25-.79.44-1.94 1.22-3.45 2.34 1.348.58 2.65 1.5 3.903 2.75 1.533 1.54 2.3 3.01 2.3 4.43 0 .54-.36 1.34-1.08 2.41-.767 1.14-1.44 1.71-2.022 1.71-.093 0-.128.04-.104.11.03.07-.01.11-.1.11s-.13-.02-.1-.07c.05-.07.05-.11 0-.14-.07.07-.16.21-.28.42l-.56-.1-.17.18.18.14c.14-.16.33-.17.56-.03-.11.03-.32.11-.61.25s-.48.21-.57.21h-.14c0-.07-.04-.1-.14-.1-.09 0-.11.04-.07.11.05.07.03.1-.07.1s-.13-.02-.12-.05c.01-.03-.02-.05-.08-.05-.09 0-.28.07-.56.21-.28.14-.46.21-.55.21-.02 0-.1-.05-.24-.14-.02.02-.04.06-.05.14-.01.08-.06.11-.15.11s-.22-.02-.38-.05-.29-.05-.38-.05c-.07 0-.1.01-.09.04.01.03-.02.04-.1.04s-.19.02-.33.05-.26.04-.35.04-.16-.02-.19-.05c-.04-.04-.09-.05-.17-.05-.08 0-.1-.03-.05-.1.04-.07.02-.1-.07-.1-.07 0-.11.04-.11.14 0 .07-.04.1-.14.1-.74 0-1.31-.09-1.7-.28-.7-.3-1.21-.5-1.53-.59 0 .04.09-.04.28-.25-.09-.09-.21-.14-.35-.14-.07.07-.1.19-.1.35 0-.23-.37-.49-1.11-.76-.23.67-.49 1.58-.77 2.72 0-.14-.08-.21-.24-.21-.02-.33.04-.52.18-.59 0-.14-.06-.15-.17-.04 0-.49-.08-.78-.24-.87.21-.21.42-.36.63-.45-.09-.05-.3-.07-.63-.07.05-.16.13-.36.25-.59 0-.35.03-.91.1-1.7.12-1.05.18-1.65.18-1.82l3.69-13.76c.04-.46.44-1.49 1.18-3.07.82-1.69 1.37-2.54 1.68-2.54.24 0 .61.27 1.12.8-.07.14-.17.42-.31.84.12.09.19.14.21.14.07 0 .31-.07.73-.21.42-.14.73-.21.94-.21.1 0 .19.02.3.05.11.04.21.05.3.05s.13-.03.11-.1c-.02-.07.01-.1.11-.1.09 0 .11.04.05.11s-.04.11.06.11.11-.04.05-.11-.04-.11.05-.11c1.14 0 2.32.26 3.55.77 1.58.6 2.48 1.42 2.69 2.44l.11.11zm-16.34 19.86h-.175v-.278h.174v.278zm12.438-6.272c0-1.138-.753-2.31-2.258-3.52-1.505-1.207-3.01-1.81-4.515-1.81-.278 0-.684-.11-1.216-.332-.533-.22-.822-.354-.868-.4-.56 2.043-1.45 5.028-2.68 8.954v.313c0 .372.18.767.56 1.185.32.047.69.187 1.09.418.4.232.63.348.68.348.07 0 .1-.01.08-.035-.01-.03.03-.04.12-.04.07 0 .1.03.1.1l.14-.11c.02.02.02.05.01.1-.02.04.04.07.15.07.07 0 .11-.03.14-.09.02-.06.08-.09.17-.09.16 0 .21.09.14.28 0-.02-.02-.05-.04-.07v-.03h.14s.29.03.66.08c.37.06.66.08.87.08-.1-.12-.14-.26-.14-.42.3-.05.78-.07 1.45-.07.07 0 .1-.03.09-.1-.02-.07.03-.11.12-.11s.37-.11.83-.32c.46-.21.72-.32.76-.32.11 0 .21.03.27.1.23-.3.65-.67 1.26-1.1.61-.43.97-.75 1.09-.94.11-.2.25-.42.41-.65.2-.54.31-1.05.31-1.54zm-10.07-2.473V82.5h-.59v.174h.59zm.767-3.275l-.07-.14-.244.104v.174l.31-.138zm11.428-7.98c0-.185-.13-.422-.41-.713-.28-.29-.51-.436-.69-.436l-.31.11c-.09 0-.13-.01-.1-.05.03-.03-.01-.05-.1-.05s-.39-.07-.89-.21c-.5-.14-.79-.21-.88-.21-.09 0-.18-.01-.26-.05s-.17-.05-.26-.05c-.47 0-1.08.12-1.85.35-1.35.42-2.19.83-2.54 1.24-.35.41-.65.98-.9 1.73-.19.61-.37 1.22-.56 1.85-.18.49-.31.77-.38.84.02.07.04.15.04.25 0 .21-.08.52-.24.94-.19.54-.29.86-.31.98.14 0 .21.07.21.21.74-.28 1.45-.42 2.12-.42.16 0 1.25-.56 3.27-1.67.05.07.08.14.11.21.81-.83 1.82-1.57 3.03-2.23.35-.37.76-.87 1.24-1.49.48-.63.71-.99.71-1.08zm12.48 12.648c0-.022-.07.518-.22 1.62-.15 1.104-.22 1.934-.22 2.49 0 1.442-.07 2.452-.21 3.032.1.232.14.336.14.314v1.394c-.02 0-.08.023-.17.07-.09.046-.18.07-.28.07-.13 0-.31-.187-.52-.558-.56-.465-.83-1.614-.83-3.45 0-.976.08-1.858.25-2.648l-.17-.174c-.25.07-.38.244-.38.523-.07-.07-.14-.1-.21-.1-.16.26-.15.37.04.35-.51.51-.93.96-1.26 1.33-.6.68-.94 1.16-1.01 1.47-.14.1-.59.59-1.36 1.5-.09 0-.15-.01-.19-.05-.03-.03-.06-.05-.09-.05v.41c-.14.02-.35.2-.64.53-.29.33-.54.5-.75.5-.09 0-.14-.06-.14-.17h-.14c-.11 0-.11.06 0 .18-1.46-.11-2.19-.96-2.19-2.55 0-.35.13-.74.39-1.19.02-.07 0-.19-.07-.38s-.1-.31-.1-.38c0-.56.45-2.01 1.36-4.36 1.02-2.7 1.9-4.05 2.65-4.05.14 0 .29.14.47.42s.26.48.26.59c0 .33-.27.73-.8 1.19-.42 1.15-.71 1.9-.87 2.27-.35.79-.68 1.35-.98 1.68.07.07.14.11.21.11-.16.65-.33 1.31-.49 1.99-.23.94-.35 1.67-.35 2.21 0 .42.09.63.28.63.4 0 1.37-.97 2.93-2.93 1.14-1.39 2.01-2.54 2.62-3.44.12 0 .34-.24.66-.73.33-.48.69-.73 1.08-.73-.09-.11-.09-.23 0-.35.91.24 1.36.74 1.36 1.5zm-1.56 6.9l-.28-.14-.03.14.28.138.04-.14zm.66.66l-.14-.07-.14.28.14.07.14-.28zm.21.663l-.14-.27-.14.04.14.25h.14zm14.53-9.4c0 .17-.04.43-.14.8 0 .05.02.32.04.81.03.33-.08.55-.31.66.07.05.14.07.21.07l-.38 1.01c0 .09.02.16.07.21-.09-.09-.23-.04-.42.14.07.07.14.1.21.1 0 .14-.06.27-.17.39 0-.14-.04-.21-.14-.21 0 .52-.25 1.08-.76 1.71-.93 1.14-1.45 1.79-1.57 1.95-.02 0-.07-.03-.14-.1s-.12-.1-.17-.1c-.07.09-.02.22.14.38-1.27.95-2 1.43-2.16 1.43-.07 0-.22.02-.45.05-.23.04-.39.06-.48.06-.09 0-.13.02-.1.05.02.04 0 .05-.09.05-.08 0-.29.02-.64.06-.34.04-.55.05-.62.05-.28 0-.75-.22-1.43-.66 0-.11-.08-.17-.24-.17-.37 0-.68-.38-.91-1.15-.14-.51-.28-1.03-.42-1.57.3 0 .44.02.42.04-.28-.2-.42-.41-.42-.62 0-.95.67-2.46 2.02-4.53 1.56-2.41 3.03-3.62 4.43-3.62.07 0 .18.06.31.18.11-.18.31-.28.59-.28.3 0 .51.11.62.33.12.21.22.43.31.64-.02 0-.15.08-.38.23-.23.16-.41.23-.52.23-.42 0-1.04.42-1.88 1.25-.41.46-.84.92-1.29 1.37-.44.45-.97 1.32-1.6 2.59-.62 1.27-.94 2.23-.94 2.88 0 .21.17.48.51.82.34.34.61.5.82.5.09 0 .28-.03.57-.1.29-.07.48-.1.58-.1.35 0 .78-.19 1.29-.56.74-.51 1.13-.78 1.15-.8.02-.28.21-.53.56-.75s.53-.43.53-.64c.09-.07.21-.03.35.11 0-.16.03-.35.1-.56.47-.44.8-1.04 1.01-1.81.19-.67.43-1.09.73-1.25 0-.02.01-.06.04-.1.03-.02.03-.03 0-.03H71c-.09 0-.16-.49-.21-1.46-.05-.93-.05-1.48 0-1.64-.12-.11-.21-.14-.28-.07 0-.02-.034-.14-.103-.35-.07-.21-.08-.38-.032-.52-.05-.04-.19-.07-.42-.07-.023-.14.01-.38.1-.73.7.26 1.257.55 1.67.87 0 .31-.07.49-.21.56.28.28.387.49.317.63.045.05.15.07.31.07 0 .14.037.38.1.71.08.34.11.56.11.65zm-9.2 8.52l-.12-.05-.12.23.13.06.12-.22zm.49.33h-.39v-.1h.39v.11zm3.66-.1v-.17h-.59v.18h.59zm4.01-11.32v-.21h-.48v.21h.49zm.35 5.19l-.08-.14-.27.14v.14l.35-.14zm13.97-2.75c0 .35-.15 1.27-.45 2.75-.28 1.4-.45 2.16-.52 2.3.05.07.07.19.07.35 0 .84-.18 1.52-.56 2.06.07.05.14.07.21.07-.14.4-.28.91-.42 1.54-.18 0-.33-.01-.45-.03-.11-.02-.16-.03-.14-.03l-.28.21c-.11-.09-.21-.14-.27-.14 0-.09-.02-.31-.05-.66-.03-.34-.05-.58-.05-.69 0-.97.14-1.68.42-2.12-.07-.04-.14-.07-.21-.07v-.56c0-.16.08-.53.25-1.11.16-.58.27-1.17.31-1.77.1 0 .18.04.25.11l.25-.28c-.09.03-.27.04-.52.04.04-.14.07-.37.1-.7.03-.32.06-.55.08-.69l-.07-.9c-.37.39-.92.91-1.66 1.56-1.06 1.53-2.14 3.06-3.23 4.58-1.57 2.2-2.5 3.3-2.78 3.3h-.63c-.35 0-.52-.47-.52-1.39 0-.44.09-1 .28-1.67.26-.88.4-1.39.42-1.53.23-1.23.41-2.1.52-2.6.28-.98.63-1.84 1.04-2.61-.04-.28.12-.86.49-1.74.42-.97.85-1.46 1.29-1.46.21 0 .37.11.47.33.11.22.22.45.33.68l-2.85 9.2c.26-.05.54-.31.84-.8.21-.37.43-.73.67-1.08l4.29-5.89c.4-.21.76-.5 1.08-.87.16-.21.52-.32 1.08-.32.65 0 .98.9.98 2.69zm-9.09 6.8l-.42.1v-.14l.35-.14.07.18zM84 93.28c-.022 0-.1.02-.225.07-.13.04-.25.06-.367.06l-.243-.246c0-.022.05-.057.156-.103.11-.05.16-.13.16-.25 0-.18-.12-.4-.38-.66h-.35c.12-.02.3-.05.56-.1.26-.05.44-.08.56-.1.09.07.14.2.14.39-.28-.07-.45-.07-.52 0 .18.18.36.24.52.17v.78zm.63-5.96c-.114-.28-.17-.49-.17-.63-.096 0-.144.14-.144.42.076 0 .18.07.314.21zm36.2-16.07c-.116-.12-.21-.13-.28-.04.07.12.105.26.105.42 0 .74-.373 1.51-1.116 2.3-.26.74-1.04 1.81-2.34 3.2-1.21 1.3-2.36 2.35-3.45 3.134l-.17-.207c-.24.49-.42.73-.56.73-.1 0-.16-.016-.19-.05-.04-.035-.07-.05-.09-.05.02-.02.03.07.03.28-.11.07-.29.116-.52.14-.09.022-.14.13-.14.312-.09 0-.28.05-.56.15-.27.1-.45.16-.52.16-.09 0-.13-.02-.1-.07.05-.07.05-.12 0-.14l-.41.52-.21-.21c-.56.44-1.01 1.52-1.36 3.24-.42 2.07-.76 3.34-1.01 3.83 0 .21-.09.64-.25 1.29s-.29.97-.39.97l-.45-.11c-.05.02-.07.07-.07.14.14.07.34.1.62.1 0 .14.03.25.1.35-.26.14-.47.28-.63.41 0 .02.03.1.08.24.06.14.09.24.09.31h-.46c-.05-.25-.05-.61 0-1.08-.24-.32-.35-.74-.35-1.25 0-.23.09-.51.28-.84-.05-.14-.05-.35 0-.63.07-.3.17-.52.31-.66-.05-.61 0-1.27.14-1.99.21-1.19.31-1.8.31-1.85l2.34-9.44c1.07-2.95 1.95-4.85 2.65-5.71-.02-.05-.04-.17-.04-.35.18-.05.35-.17.49-.35.14-.19.27-.3.38-.35.21-.07.74-.35 1.6-.84.55-.33 1.12-.49 1.7-.49.09 0 .19.01.29.05s.2.05.29.05.11-.04.05-.11-.04-.1.06-.1c.72 0 1.72.53 3 1.6 0 .21-.11.36-.31.45.09.07.29.09.59.07.18.25.32.58.42.97v1.43zm-12.96 12.57h-.175v-.388h.173v.386zm11.113-13.49c0-.39-.14-.81-.418-1.25-.28-.44-.617-.66-1.01-.66-.56 0-1.06.08-1.5.24-.697.28-1.29.687-1.777 1.22-.07.095-.2.36-.384.804-.164.325-.35.522-.56.592-.79 1.72-1.44 3.357-1.95 4.914-.28.81-.618 2.15-1.01 4.004-.026.14-.12.21-.28.21.07 0 .22.126.45.38-.047-.14.046-.307.28-.504.23-.2.5-.26.8-.19l-.21-.21c.303-.184.698-.474 1.186-.87.07.07.15.105.24.105.02-.42.14-.71.35-.87.92-.65 2.04-1.78 3.34-3.38 1.62-1.954 2.44-3.46 2.44-4.53zm-8.365 10.91l-.172-.034-.103.28.14.034.138-.28zm5.09-12.473v-.18h-.593v.175h.59zm16.235 14.11c0 .164-.047.43-.14.8 0 .05.012.316.035.804.02.33-.083.55-.315.66.07.05.14.07.21.07l-.384 1.01c0 .09.02.16.07.21-.1-.09-.23-.04-.42.14.07.07.14.1.21.1 0 .14-.06.27-.18.39 0-.14-.05-.21-.14-.21 0 .51-.26 1.08-.77 1.71-.93 1.14-1.45 1.79-1.56 1.95-.02 0-.07-.03-.14-.1s-.13-.1-.17-.1c-.07.09-.02.22.14.38-1.28.96-2 1.43-2.16 1.43-.07 0-.22.02-.45.05-.23.04-.4.06-.49.06-.1 0-.13.02-.11.06.02.04-.01.05-.09.05-.09 0-.3.02-.65.06-.35.04-.56.05-.63.05-.28 0-.75-.22-1.43-.66 0-.12-.08-.18-.24-.18-.37 0-.67-.38-.9-1.15-.14-.51-.28-1.03-.41-1.56.3 0 .44.01.41.03-.28-.21-.42-.42-.42-.63 0-.95.67-2.46 2.02-4.53 1.55-2.41 3.03-3.62 4.42-3.62.07 0 .18.06.31.18.11-.19.31-.28.59-.28.3 0 .51.11.63.32.11.21.22.43.31.64-.03 0-.15.08-.39.24-.24.16-.41.23-.52.23-.42 0-1.05.42-1.89 1.25-.42.47-.85.92-1.29 1.37-.44.46-.97 1.32-1.6 2.59-.63 1.28-.94 2.24-.94 2.88 0 .21.17.48.5.82.34.34.61.51.82.51.09 0 .28-.03.58-.1.29-.07.48-.1.57-.1.35 0 .78-.18 1.29-.55.74-.51 1.12-.77 1.15-.8.02-.28.21-.53.56-.75.34-.22.52-.43.52-.64.09-.07.21-.03.35.11 0-.16.03-.35.1-.55.46-.44.8-1.05 1.01-1.82.19-.67.43-1.09.73-1.25 0-.02.01-.05.03-.1.02-.02.02-.03 0-.03h-.14c-.09 0-.16-.48-.21-1.46-.05-.93-.05-1.47 0-1.64-.12-.11-.21-.14-.28-.07 0-.02-.04-.14-.11-.34s-.08-.38-.04-.52c-.05-.04-.19-.07-.42-.07-.02-.14.01-.38.11-.73.7.26 1.25.55 1.67.87 0 .31-.07.49-.21.56.28.28.39.49.32.63.04.05.15.07.31.07 0 .14.04.38.11.72.07.34.1.55.1.65zm-9.2 8.52l-.12-.053-.123.222.12.055.12-.22zm.49.33h-.384v-.103h.38v.103zm3.658-.104v-.172h-.59v.17h.59zm4.01-11.32v-.21h-.49v.21h.49zm.35 5.19l-.08-.14-.27.14v.138l.35-.14zm16.73-.24c0 .532-.07 1.49-.21 2.872-.14 1.38-.19 2.303-.17 2.77-.16.23-.4.57-.73 1.01 0-.19-.15-.525-.45-1.01.28 0 .49-.05.63-.14 0-.095-.07-.106-.21-.037 0-.14-.05-.268-.17-.384-.11.095-.27.19-.45.28-.07-.905-.11-2.61-.11-5.12-.12.07-.62.57-1.5 1.497-.77.81-1.27 1.22-1.5 1.22-.09 0-.11-.03-.07-.1.05-.07.04-.1-.03-.1-.14 0-.2.11-.2.32-.23-.09-.59-.26-1.08-.52-.23-.62-.48-1.6-.73-2.92-.28.25-.72.78-1.32 1.57-.49.68-.86 1.08-1.12 1.22.02.05.07.08.14.11.07.02.13.06.18.11l-1.6 1.88c-.98 1.09-1.64 1.64-1.99 1.64-.21 0-.43-.13-.68-.38-.24-.25-.36-.53-.36-.84 0-.37.08-.96.24-1.76.16-.8.33-1.26.49-1.38-.07-.04-.14-.07-.21-.07v-.35c-.02-.18.45-1.51 1.4-3.97 1.05-2.64 1.83-3.97 2.34-3.97.21 0 .47.09.77.25 0 .02.03.09.07.19.05.1.07.2.07.3 0 .3-.21.64-.62 1.01.07.05.13.07.18.07-.35.77-.8 1.88-1.36 3.35-.19-.12-.4-.13-.63-.04 0 .1.05.14.14.14.09 0 .14-.03.14-.1.09 0 .14.08.14.24 0-.07-.42 1.27-1.25 4.01l.07.77c.56-.6 1.19-1.44 1.88-2.51.95-1.37 1.48-2.12 1.57-2.26.12-.02.38-.31.8-.87.42-.56.81-.84 1.19-.84.68 0 1.08.4 1.22 1.19.02.07.05.73.07 1.99.02.35.07.6.14.74-.04.05.02.07.18.07.12 0 .67-.59 1.66-1.78.98-1.19 1.62-1.78 1.9-1.78.6 0 .97.28 1.11.84.07.21.1.76.1 1.64zm-5.68 1.844v-.17h-.31v.172h.31zm16.9-7.105c0 .047-.03.22-.1.52-.04.234-.04.397 0 .49-.46.627-1.4 1.777-2.82 3.45-1.85 2.137-2.96 3.205-3.31 3.205h-.73c-.11.12-.17.35-.17.7 0 1.39.83 2.67 2.48 3.83.05-.07.07-.14.07-.21.07.05.41.12 1.01.21.17.162.25.28.25.35s-.13.23-.38.49c-.07-.096-.18-.14-.34-.14 0-.166.03-.28.1-.35-.12-.096-.23-.14-.35-.14l-.17.14c.14.16.23.31.28.45-.14 0-.21.08-.21.242-.16-.07-.36-.18-.59-.32l-.27.21c-.14-.14-.31-.21-.52-.21-.42 0-1.17-.65-2.26-1.95.12-.05.26-.12.42-.21v-.07H151c-.44-1.67-.66-2.66-.66-2.96 0-1.72.61-3.73 1.84-6.03 1.37-2.53 2.785-3.8 4.25-3.8.115 0 .312.05.59.16.27.1.44.15.48.15.095 0 .12-.04.07-.11-.05-.07-.033-.1.036-.1.37 0 .8.32 1.29.97.23.32.35.66.35 1.01zm-1.46.105c0-.07-.03-.16-.1-.28-.05-.09-.05-.16 0-.21-.07 0-.18-.024-.33-.07-.15-.047-.27-.07-.37-.07-.75 0-1.66.93-2.75 2.787-.98 1.7-1.48 2.904-1.5 3.624.88-.86 1.76-1.706 2.65-2.54 1.6-1.63 2.4-2.71 2.4-3.24zm-1.29 4.144v-.17h-.27v.17h.28zm2.55-4.49v-.28h-.31v.28h.31zm10.77 1.19c0 .07-.55.66-1.67 1.78-.46.51-1.22 1.36-2.26 2.54-1.12 1.19-1.68 2-1.68 2.44 0-.02-.03-.09-.1-.21-.07.37-.43.94-1.08 1.71-.44.52-.88 1.01-1.32 1.5.02.05.04.17.04.35-.37-.07-.86-.28-1.46-.62 0-.14.11-.32.31-.56-.05-.04-.21-.07-.49-.07 0-.04-.02-.16-.07-.36-.04-.19-.07-.34-.07-.43 0-1.07.56-2.82 1.68-5.26 1.18-2.58 2.17-3.87 2.96-3.87.42 0 .63.22.63.66 0 .19-.19.52-.59 1.01-.39.49-.61.83-.66 1.01-.28.98-.62 1.93-1.04 2.86-.35.79-.71 1.58-1.08 2.37v.28c.19-.02.37-.16.56-.42.93-1.21 1.85-2.4 2.75-3.59 1.19-1.51 2.2-2.46 3.03-2.85.03 0 .07-.06.14-.19s.15-.19.25-.19c.09 0 .13.02.1.05-.02.04.01.05.1.05.12 0 .12-.06 0-.17.12 0 .25.06.39.17.16-.23.21-.41.14-.52h.42c0 .02.01.1.05.22.03.13.05.24.05.33zm-2.23 2.19v-.17h-.27v.17h.28zm2.06-2.26l-.1-.1-.32.25.11.14.31-.28zm5.16 1.54c-.45 1.49-1 3.13-1.68 4.95-.56 1.46-.92 2.6-1.08 3.41-.21 0-.35.04-.42.1 0 .21.1.22.31.04-.19.44-.51 1.18-.98 2.2h-.45c-.05-.09-.13-.21-.25-.35v-1.39c.16-.16.24-.31.24-.45.23 0 .39.04.46.11l.14-.17c-.25-.14-.52-.16-.8-.07.16-.72.36-1.23.59-1.53 0-.09-.07-.14-.21-.14.28-.86.76-2.06 1.43-3.62v-.52c.05-.25.29-.83.72-1.72s.72-1.34.86-1.34c.61.23.98.41 1.12.52zm-3.59 9.37v-.18h-.6v.18h.59zm-.18.31l-.28-.28-.11.11.28.24.1-.07zm.21.04l-.25.38-.14-.11.24-.38.14.11zm7.52-20.35c0 .44-.2.66-.59.66-.44 0-.67-.25-.67-.76 0-.09.12-.36.35-.8.6.12.91.42.91.91zm9.93 12.13c0 .68-.35 2.08-1.05 4.22-.63 1.95-1.06 3.13-1.29 3.52-.44.84-1.06 1.89-1.85 3.17-.32.47-.82 1.14-1.5 2.02l-.38.59c-.18.28-.31.42-.38.42-.16 0-.18.07-.07.21-.09 0-.17-.03-.24-.1-.16.1-.24.16-.24.21.03.02.06.05.11.07-.07.05-.33.37-.8.98-.42.51-.69.77-.83.77-.09 0-.15-.03-.17-.1-.05.05-.01.14.1.28-.11.02-.34.12-.68.3s-.54.26-.61.26-.19.04-.38.11-.32.1-.42.1c-.07 0-.13-.04-.16-.12-.03-.08-.1-.12-.19-.12s-.15.04-.17.12c-.02.08-.07.12-.14.12-.11 0-.18-.05-.19-.15s-.03-.15-.05-.15c-.12 0-.18.1-.18.31-.19-.11-.43-.37-.73-.76-.35-.48-.5-.86-.45-1.11h.39c0 .07.13.25.38.53h.28c.05-.04.08-.02.1.07s.07.18.14.25c.14-.14.22-.21.25-.21.84 0 1.94-.92 3.31-2.75l.21.21.94-1.68c.09.04.2 0 .31-.14.26-.26.46-.44.6-.53-.07-.07-.14-.11-.21-.11.3-.33.67-.91 1.12-1.75.33-.61.65-.94.98-1.01.14-.09.13-.14-.04-.14h-.27v-.31c0-.09.12-.33.38-.72.28-.48.45-.8.52-.96.4-.98.76-2 1.08-3.07l-.07-.37-1.91 1.99c-1.27 1.28-2.1 1.92-2.47 1.92-.74 0-1.37-.31-1.88-.94-.47-.56-.7-1.17-.7-1.85 0-1.32.69-2.94 2.06-4.84 1.56-2.13 3.17-3.2 4.85-3.2.05 0 .33.13.84.4s.8.44.87.51c-.14.33-.26.49-.35.49-.1 0-.18-.02-.27-.05-.08-.03-.17-.05-.26-.05-.23 0-.62.15-1.15.45-.79.44-1.52 1.02-2.17 1.74-.54.63-1.09 1.24-1.65 1.85 0 .02-.21.53-.63 1.53-.3.75-.45 1.26-.45 1.53 0 .56.26.84.77.84.1 0 .21-.05.34-.16.13-.1.23-.15.29-.15.1 0 .14.02.12.06-.01.04.02.06.09.06.02 0 .29-.28.81-.84.58-.65.98-1.07 1.2-1.25.22-.19.5-.42.82-.7.05-.04.44-.58 1.19-1.6.56-.77.92-1.15 1.09-1.15.77 0 1.16.35 1.16 1.05zm-10.78 16.45l-.14-.31-.14.07.14.25h.14zm2.3-1.57l-.28-.1-.07.14.28.14.07-.17zm20.21-14.87c0 .68-.35 2.08-1.04 4.22-.63 1.96-1.06 3.13-1.29 3.52-.44.84-1.06 1.9-1.84 3.17-.32.47-.82 1.14-1.5 2.02l-.38.6c-.19.28-.32.42-.39.42-.16 0-.19.07-.07.21-.09 0-.17-.03-.24-.1-.16.1-.24.16-.24.21.03.02.06.05.11.07-.07.05-.34.37-.8.98-.42.51-.7.77-.84.77-.09 0-.15-.03-.17-.1-.05.05-.01.14.11.28-.11.02-.34.12-.68.3s-.54.26-.61.26-.19.04-.38.11c-.18.07-.32.11-.41.11-.07 0-.12-.04-.15-.12-.04-.09-.1-.13-.19-.13s-.15.04-.18.13c-.02.08-.07.12-.14.12-.11 0-.18-.05-.19-.16s-.03-.15-.05-.15c-.11 0-.17.11-.17.32-.18-.12-.43-.37-.73-.77-.35-.48-.5-.86-.45-1.11h.39c0 .07.13.25.38.53h.28c.05-.05.08-.02.1.07s.07.17.14.24c.14-.14.22-.21.25-.21.83 0 1.94-.92 3.31-2.75l.21.21c.23-.42.54-.98.94-1.69.09.05.19 0 .31-.14.25-.26.45-.43.59-.53-.07-.07-.14-.1-.21-.1.3-.33.67-.91 1.11-1.75.32-.61.65-.94.98-1.01.14-.1.13-.14-.04-.14h-.28v-.31c0-.1.13-.33.39-.72.28-.48.45-.8.52-.96.39-.98.75-2.01 1.08-3.08l-.07-.38-1.92 1.99c-1.27 1.28-2.1 1.92-2.47 1.92-.74 0-1.37-.31-1.88-.94-.46-.56-.7-1.17-.7-1.84 0-1.32.69-2.94 2.06-4.84 1.56-2.14 3.17-3.2 4.84-3.2.05 0 .33.13.84.4s.8.44.87.51c-.14.32-.26.49-.35.49-.1 0-.18-.02-.27-.06-.08-.04-.17-.05-.26-.05-.23 0-.62.15-1.15.45-.79.44-1.52 1.02-2.17 1.74-.54.63-1.09 1.24-1.65 1.85 0 .02-.21.53-.63 1.53-.3.74-.46 1.25-.46 1.53 0 .55.25.83.77.83.09 0 .2-.05.33-.16.13-.1.23-.15.3-.15.1 0 .14.02.12.05-.01.04.02.06.09.06.02 0 .29-.28.81-.84.59-.65.99-1.07 1.21-1.26.22-.19.5-.42.82-.7.05-.05.44-.58 1.19-1.6.56-.77.92-1.15 1.09-1.15.77 0 1.16.35 1.16 1.04zm-10.77 16.44l-.14-.31-.14.07.14.24h.14zm2.3-1.57l-.28-.1-.06.14.28.14.07-.17zm14.9-16.38c-.44 1.49-1 3.14-1.67 4.95-.55 1.47-.91 2.61-1.08 3.42-.21 0-.35.04-.41.1 0 .21.11.22.32.04-.18.44-.51 1.17-.97 2.2h-.45c-.04-.1-.12-.21-.24-.35v-1.39c.16-.17.25-.32.25-.46.23 0 .39.03.46.1l.14-.17c-.26-.14-.52-.16-.8-.07.16-.72.36-1.23.59-1.53 0-.09-.07-.14-.21-.14.28-.86.75-2.07 1.43-3.62v-.53c.04-.25.28-.83.71-1.72.43-.9.72-1.34.86-1.34.61.23.98.4 1.12.52zm-3.59 9.38v-.18h-.59v.18h.6zm-.17.31l-.28-.28-.1.11.28.24.11-.07zm.21.04l-.24.38-.14-.11.24-.38.14.11zm7.53-20.35c0 .44-.2.66-.59.66-.44 0-.66-.26-.66-.77 0-.09.12-.36.35-.8.61.11.91.41.91.9zm11.57 11.11c0 .17-.04.43-.14.8 0 .05.02.32.04.81.02.33-.08.55-.31.66.07.05.14.07.21.07l-.38 1.01c0 .09.03.16.07.21-.09-.09-.23-.04-.42.14.07.07.14.11.21.11 0 .14-.06.27-.17.38 0-.14-.05-.21-.14-.21 0 .51-.25 1.08-.77 1.71-.93 1.14-1.45 1.79-1.56 1.95-.02 0-.07-.03-.14-.1s-.12-.1-.17-.1c-.07.09-.02.22.14.38-1.27.95-2 1.43-2.16 1.43-.07 0-.22.02-.45.05-.23.04-.4.05-.49.05-.09 0-.13.02-.1.06.02.03 0 .05-.08.05s-.29.02-.64.05c-.35.04-.56.05-.63.05-.27 0-.75-.22-1.42-.66 0-.11-.08-.17-.25-.17-.38 0-.68-.38-.91-1.15-.14-.51-.28-1.03-.42-1.57.3 0 .44.01.42.03-.28-.2-.42-.41-.42-.62 0-.95.67-2.46 2.02-4.53 1.56-2.42 3.03-3.62 4.43-3.62.07 0 .17.06.31.18.12-.18.31-.28.59-.28.3 0 .51.11.63.32s.23.43.32.65c-.02 0-.15.08-.38.24-.23.15-.4.23-.52.23-.42 0-1.05.42-1.88 1.25-.42.46-.85.92-1.29 1.37s-.98 1.31-1.6 2.59-.94 2.23-.94 2.88c0 .21.17.48.51.81.34.34.61.51.82.51.09 0 .28-.03.57-.1.29-.07.48-.1.58-.1.35 0 .78-.18 1.29-.56.74-.51 1.12-.77 1.15-.8.02-.28.21-.53.56-.75s.52-.43.52-.64c.09-.07.21-.03.35.11 0-.16.04-.35.1-.55.46-.44.8-1.05 1.01-1.82.19-.67.43-1.09.73-1.25 0-.02.01-.06.04-.11.02-.02.02-.03 0-.03h-.2c-.09 0-.16-.49-.21-1.46-.04-.93-.04-1.48 0-1.64-.11-.12-.2-.14-.27-.07 0-.02-.04-.14-.11-.35-.07-.21-.08-.38-.03-.52-.05-.05-.19-.07-.42-.07-.02-.14.01-.39.11-.73.7.25 1.26.54 1.68.87 0 .3-.07.49-.21.55.28.28.39.49.31.63.05.05.15.07.32.07 0 .14.04.38.11.72.08.34.11.55.11.65zm-9.2 8.52l-.12-.05-.12.22.12.06.13-.23zm.49.33h-.38v-.1h.39v.11zm3.66-.1v-.17h-.59v.18h.59zm4.01-11.33v-.21h-.48v.21h.49zm.35 5.19l-.07-.14-.27.14v.14l.35-.14z"/></svg>