<svg xmlns="http://www.w3.org/2000/svg" width="250" height="250" viewBox="0 0 250 250"><path opacity=".15" d="M208.335 147.71c-.664-1.27-1.637-2.47-2.898-3.575-1.256-1.096-2.837-1.998-4.833-2.762-1.818-.693-3.967-1.225-6.568-1.625-.615-.094-1.264-.178-1.942-.248l28.85-28.12-8.295-10.285-57.88-8.41-22.61-45.803-1.61 3.26-6.69-13.545L96.44 92.18l-61.34 8.915 10.26 10-1.965.285 28.548 27.827c-.794-.023-1.616-.037-2.465-.037-3.46 0-6.48.195-8.98.578-2.612.4-4.768.93-6.596 1.623-2.002.77-3.59 1.66-4.854 2.76-1.262 1.09-2.245 2.29-2.922 3.56-.665 1.25-1.096 2.54-1.28 3.85-.148 1.03-.223 2.03-.223 2.96v23.9c0 .93.074 1.93.22 2.96.186 1.31.614 2.61 1.276 3.87.67 1.29 1.66 2.5 2.94 3.6 1.26 1.1 2.85 2.01 4.85 2.78 1.82.71 3.99 1.25 6.61 1.66 2.51.4 5.55.59 9.03.59.5 0 .96-.01 1.44-.02l-2 11.65 11.05-5.81-2.76 16.1 43.75-23h14.2c1.59 0 2.97-.94 3.61-2.31l.8.42c.71 1.15 1.97 1.9 3.4 1.9h.2l43.75 23-3.77-21.94c.59.01 1.17.02 1.79.02 3.46 0 6.49-.2 8.98-.59 2.6-.41 4.75-.95 6.57-1.66 2-.77 3.58-1.69 4.83-2.8 1.25-1.11 2.22-2.32 2.88-3.6.65-1.26 1.06-2.56 1.23-3.87.13-1.01.2-2 .2-2.92v-23.9c0-.92-.07-1.91-.2-2.9-.18-1.31-.59-2.61-1.25-3.86z"/><path fill="#F47F38" d="M65.487 203.287l8.295 10.283 13.93-19.343-11.112-2.842m132.527-92.457l8.294 10.285-19.57 5.91-7.27-12.68m-159-3.515l8.3 10.285 9.35-1.36"/><path fill="#F47F38" d="M128.648 184.727l54.865 28.843-10.478-61.093 44.386-43.264-61.34-8.914-27.43-55.59-27.43 55.58-61.34 8.91 44.39 43.26-10.48 61.09"/><path fill="#FFD200" d="M120.354 174.444l54.865 28.843-10.48-61.092 44.38-43.267-61.34-8.914-27.43-55.584-27.43 55.584-61.34 8.914 44.38 43.267-10.48 61.092"/><path fill="#FAAF40" d="M120.354 160.182l40.787 21.443-7.78-45.418 33-32.164-45.6-6.628-20.39-41.32-20.39 41.32-45.6 6.628 33 32.164-7.79 45.418"/><path fill="#FFF" d="M123.58 116.94s-32.73 66.17-44.27 1.745c0 0-7.845 2.566-6.324 5.273 0 0 14.54 66.42 53.93 1.592 0 0 6.035-6.692-3.337-8.61z"/><path fill="#FFF" d="M79.31 112.2c7.288-9.405 11.635-.62 11.635-.62-.64 1.262-3.35.69-3.35.69-6.84-1.068-6.057 4.67-6.057 4.67l-4.264 5.45"/><path fill="#FFF" d="M79.828 122.393s1.213-2.652 1.71-5.452c.496-2.8-1.354.15-1.354.15l-1.247-3.67-.213-1.1s.57-11.48-4.668-17.05c0 0-7.162-.93 0 8.78 0 0 2.567 7.03 2.192 8.53 0 0-.91 2.35-3.047 1.01 0 0-4.06-5.94-12.29-6.52 0 0-3.37 5.51 5.99 5.51l4.08 3.21s-4.18 10.91 7.04 7.59"/><path fill="#FFF" d="M77.275 111.81s.69 1.067 4.348-.43c3.657-1.495-4.348 8.554-4.348 8.554v-8.125zm36.482 22.93s12.4-20.58 12.29-23.51l19.166-6.137 24.834 9.146-7.268 36.88-16.7 12.61-14.53 12.33-21.01-13.75 2.19-3.15-.87-18.96 1.88-5.49z"/><path fill="#D0D2D3" d="M114.946 138.717s7.07-11.55 8.496-21.498l8.11 4.55-2.368 15.98-6.6 3.31-7.638-2.36zm-36.503-71.63s-8.908-16.202 7.63-10.573c16.54 5.627-7.63 10.574-7.63 10.574z"/><path fill="#919496" d="M81.563 62.617s-7.927-8.002-2.227 2.71c5.7 10.713 2.227-2.71 2.227-2.71zm74.423-3.023l4.64 10.15s14.27-17.752-4.64-10.15z"/><path fill="#FFF" d="M165.03 74.985c-3.015-17.81-21.792-31.527-44.52-31.527-24.83 0-44.96 16.37-44.96 36.56s20.128 36.56 44.96 36.56c.932 0 1.855-.028 2.775-.075.995 4.34 1.827 11.07-1.18 15.146 0 0-20.624 15.42-10.1 30.06-.014-.11-2.708-25.67 16.97-30.22l-3.57-16.11s7.435-1.75 16.12-5.58v20.16s-20.762 24.24-9.003 40.66c20.56-.63 61.938-11.63 32.51-95.65z"/><path fill="#D0D2D3" d="M141.525 129.977V109.81c-8.686 3.833-16.12 5.58-16.12 5.58l3.57 16.105c-19.678 4.55-16.984 30.114-16.97 30.222 2.052 2.86 3.083 3.828 7.896 6.508 0 0 6.49 2.596 12.62 2.41-11.75-16.414 9.01-40.658 9.01-40.658z"/><ellipse fill="#D0D2D3" cx="113.757" cy="80.823" rx="38.206" ry="28.985"/><path fill="#D0D2D3" d="M151.763 57.514s-.437 3.754 3.058 4.276c0 0 17.11-5.587 4.63 9.43 0 0-1.39 2.27 1.49 4.276 0 0 11.52-9.865 7.86-17.373 0 0-2.79-8.203-17.02-.61z"/><ellipse fill="#FFF" cx="94.246" cy="74.313" rx="14.935" ry="14.721"/><circle fill="#0071BC" cx="95.41" cy="75.22" r="10.974"/><path fill="#0F4481" d="M94.62 77.984c-2.038-2.355-1.78-5.914.572-7.95s5.91-1.78 7.95.574c2.037 2.353 1.78 5.913-.574 7.948-2.35 2.038-5.91 1.78-7.948-.572z"/><path fill="#FFF" d="M97.903 76.256c-1.083-1.252-.946-3.143.304-4.225s3.142-.94 4.226.31c1.082 1.25.944 3.15-.307 4.23-1.25 1.08-3.14.95-4.223-.3z"/><circle fill="#FFF" cx="93.343" cy="73.519" r="1.458"/><ellipse fill="#FFF" cx="128.975" cy="74.645" rx="18.436" ry="18.313"/><circle fill="#0071BC" cx="131.543" cy="74.54" r="12.655"/><path fill="#0F4481" d="M130.633 77.727c-2.352-2.717-2.055-6.82.66-9.166 2.713-2.34 6.814-2.05 9.167.67 2.35 2.72 2.053 6.82-.662 9.17-2.712 2.35-6.816 2.05-9.165-.66z"/><path fill="#FFF" d="M134.418 75.734c-1.25-1.444-1.092-3.623.352-4.87 1.44-1.248 3.62-1.095 4.87.35 1.25 1.442 1.09 3.624-.353 4.872-1.442 1.248-3.62 1.088-4.87-.352z"/><circle fill="#FFF" cx="129.158" cy="72.58" r="1.682"/><path fill="#6C6F71" d="M112.738 107.742s-.977-2.955-4.014-2.703c0 0 .81-.89 4.014-2.26 0 0-2.835.27-4.772 1.81 0 0-4.843 3.71-2.792-2.16 0 0-4.395 7.12 3.215 3.13 0 0 2.34.45 4.34 2.16z"/><path fill="#BE1E2D" d="M107.413 97.203s-4.136 11.965 2.083 4.215c0 0 1.66-2.343 5.877-2.654 0 0-18.927-8.58-7.96-1.56z"/><path fill="#D0D2D3" d="M149.525 113.57l-2.115 54.705 8.576-3.675 6.793-47.38-2.16-1.97-8.66 51.073"/><path fill="#6C6F71" d="M106.75 91.31l.497 3.134s9.782 7.156 12.08 1.492l-.855-2.192 2.937 3.763-1.76-1.09s.26 6.948-12.51-1.115c0 0-5.88-2.367-.7 1.27 0 0-8.61-3.897-.27-2.454l-.33-2.404.9-.403z"/><path fill="#1D8FCD" d="M102.203 89.79s3.322-6.76 4.547-3.19c0 0 2.745-4.02 2.745 2.435 0 0-2.602 1.774-2.745 3.924 0-.01-2.692-1.08-4.547-3.17z"/><path fill="#FFF" d="M106.75 91.31s.17-.913 1.455-1.823c0 0-.476-1.748-1.454 1.824z"/><path fill="#ACAFB1" d="M80.093 79.016s12.525-5.514 27.635 2.273c0 0-.982 7.28-13.943 7.87 0 0-9.578.5-13.692-10.15zm31.78 2.466s10.835-7.38 34.207 0c0 0-3.89 13.542-17.262 12.048-.002 0-13.507-.288-16.944-12.048z"/><path fill="#D0D2D3" d="M78.33 112.88l-1.055 3.206s-6.458 3.036-1.124 7.717c0 0-6.02-4.323.04-7.717l2.15-3.207zm-2.778 11.864s-.336 2.887 4.375 12.293l-4.375-12.293z"/><path fill="#FFD200" d="M160.548 187.337v-12.583m45.51-25.352c-.172-1.31-.59-2.608-1.243-3.86-.664-1.27-1.637-2.47-2.898-3.575-1.256-1.096-2.837-1.998-4.833-2.76-1.818-.694-3.967-1.227-6.568-1.626-2.493-.38-5.512-.57-8.972-.57-3.477 0-6.504.2-8.997.58-2.604.4-4.753.94-6.572 1.63-2.003.77-3.583 1.68-4.836 2.78-1.24 1.1-2.21 2.29-2.87 3.56-.66 1.26-1.08 2.57-1.24 3.91-.12 1-.18 1.96-.18 2.86v9.64l-4.55-20.77c-.4-1.83-2.03-3.14-3.91-3.14h-25.52c-1.88 0-3.51 1.31-3.91 3.15l-4.88 22.3v-21.44c0-2.21-1.79-4-4-4H91.22c-2.21 0-4 1.79-4 4v.89c-.297-.31-.61-.63-.948-.93-1.238-1.1-2.806-2.01-4.794-2.78-1.802-.7-3.95-1.23-6.555-1.63-2.493-.38-5.51-.58-8.97-.58-3.46 0-6.48.2-8.98.58-2.612.4-4.768.93-6.596 1.63-2 .76-3.59 1.66-4.85 2.76-1.265 1.09-2.248 2.29-2.925 3.56-.665 1.25-1.096 2.54-1.28 3.84-.148 1.03-.223 2.03-.223 2.96v23.9c0 .93.07 1.93.22 2.96.18 1.31.61 2.61 1.27 3.87.68 1.28 1.67 2.49 2.94 3.6 1.26 1.09 2.85 2 4.85 2.77 1.83.71 3.99 1.25 6.62 1.66 2.51.39 5.55.59 9.03.59 3.46 0 6.48-.2 8.96-.59 2.59-.41 4.72-.95 6.53-1.66 1.99-.78 3.56-1.71 4.79-2.83.32-.29.61-.59.89-.9v.9c0 2.21 1.79 4 4 4h18.88c.55 0 1.07-.11 1.54-.31.47.19.97.31 1.49.31h18.59c1.89 0 3.51-1.32 3.91-3.15.39 1.83 2.01 3.15 3.9 3.15h18.59c1.21 0 2.35-.55 3.11-1.49.41-.51.67-1.11.79-1.74 1.08.79 2.36 1.47 3.89 2.07 1.82.7 3.97 1.24 6.57 1.66 2.49.39 5.52.59 9.01.59 3.46 0 6.49-.2 8.98-.59 2.6-.41 4.75-.96 6.57-1.66 2-.77 3.58-1.69 4.83-2.8 1.25-1.11 2.22-2.32 2.88-3.6.64-1.25 1.06-2.56 1.23-3.87.13-1.01.2-2 .2-2.92v-23.9c0-.93-.07-1.91-.2-2.91z"/><path fill="#F47F38" d="M67.632 148.485h-3.657v31.578h3.657v-12.648h18.874v8.795c0 .745-.052 1.545-.154 2.4-.103.857-.368 1.71-.795 2.556-.43.847-1.07 1.66-1.927 2.442-.856.782-2.043 1.47-3.56 2.066-1.518.596-3.416 1.075-5.696 1.438-2.28.362-5.058.544-8.334.544-3.294 0-6.1-.182-8.418-.544-2.317-.363-4.25-.843-5.793-1.438-1.55-.596-2.77-1.284-3.68-2.066-.91-.78-1.58-1.596-2.03-2.442s-.73-1.698-.85-2.555c-.12-.85-.18-1.65-.18-2.4v-23.9c0-.74.06-1.54.18-2.38.12-.84.4-1.69.85-2.52.45-.83 1.12-1.64 2.01-2.41.89-.77 2.11-1.45 3.66-2.04 1.54-.58 3.47-1.05 5.78-1.41 2.3-.35 5.1-.53 8.37-.53 3.27 0 6.06.18 8.36.53 2.3.36 4.2.83 5.72 1.41 1.52.59 2.71 1.27 3.57 2.04.86.77 1.51 1.58 1.94 2.42.43.84.69 1.68.79 2.53.1.85.15 1.65.15 2.39v8.88H67.63V148.5zm42.466-6.45v44.533H91.224v-44.532h18.874zm22.952 34.818l-1.314 9.716H113.14l9.745-44.54h25.52l9.744 44.53h-18.6l-1.32-9.72h-5.19zm.835-6.422h3.52l-1.76-11.81-1.76 11.81zm47.658 17.23c-3.293 0-6.09-.18-8.39-.54-2.298-.36-4.216-.84-5.75-1.44s-2.74-1.28-3.616-2.06c-.875-.78-1.53-1.59-1.97-2.44s-.706-1.7-.81-2.55c-.102-.85-.152-1.65-.152-2.4v-23.9c0-.74.05-1.54.152-2.38.104-.85.373-1.69.81-2.53.44-.83 1.095-1.64 1.97-2.41.875-.77 2.08-1.45 3.615-2.04 1.535-.59 3.453-1.06 5.752-1.41s5.096-.53 8.39-.53c3.276 0 6.063.18 8.362.53s4.215.82 5.75 1.41c1.537.59 2.746 1.27 3.63 2.04.884.78 1.546 1.58 1.983 2.42.43.84.71 1.68.82 2.53.11.85.17 1.64.17 2.39v23.9c0 .75-.06 1.55-.17 2.4-.11.86-.39 1.71-.82 2.56s-1.1 1.66-1.99 2.44c-.89.78-2.1 1.47-3.63 2.06s-3.45 1.08-5.75 1.44c-2.3.37-5.09.55-8.37.55zm-1.814-7.59h3.65v-31.58h-3.66v31.58z"/></svg>