<svg xmlns="http://www.w3.org/2000/svg" width="250" height="250" viewBox="0 0 250 250"><path d="M214.597 186.063s0-.002-.002-.002c-1.49-3.25-12.768-10.33-22.376-15.92l-.02-.01c-.52-.3-1.03-.59-1.53-.88l-.09-.05c-.48-.28-.96-.55-1.42-.81l-.16-.09-1.33-.75-.19-.1c-.42-.23-.83-.46-1.22-.68l-.24-.13-.1-.06c.47-.78.92-1.57 1.36-2.36 1.26.71 2.7 1.13 4.24 1.13 4.78 0 8.66-3.88 8.66-8.66l-.01-.09c5.26-.65 9.34-5.13 9.34-10.57 0-4.09-2.31-7.64-5.7-9.43.01-.19.03-.37.03-.56 0-3.68-2.99-6.66-6.67-6.66-.31 0-.61.03-.91.07 0-.16.01-.32.01-.48 0-23.43-10.97-44.28-28.05-57.73 12.28 1.26 25.09.19 34.44-6.52l-11.5-12.5 4-14.5c-9.7.25-18.12 13.03-27.08 13.8-10.94.94-35.44-7.39-38.35-8.39-.07-.38-.1-.6-.1-.6s-.02.21-.03.56l-.05-.02v-.79c-17.43-16.16-44.33 4.1-48.15 7.13-.2-.97-1.06-1.7-2.09-1.7-1.17 0-2.13.96-2.13 2.14V71.4C64.79 81.237 55.62 95 51.6 110.83c-3.6 1.764-6.08 5.45-6.08 9.73 0 .3.02.6.05.894-2.65 1.94-4.377 5.065-4.377 8.603 0 5.35 3.94 9.763 9.073 10.532 1.04 6.55 2.96 12.8 5.61 18.65.29 12.84 8.39 26.59 28.16 32.13.27.17.54.35.814.51-1.24 1.74-1.98 3.87-1.98 6.17 0 5.89 4.78 10.67 10.67 10.67.12 0 .24-.02.36-.02 1.26 4.98 5.76 8.68 11.14 8.68 2.53 0 4.86-.83 6.76-2.22 1.295.77 2.8 1.21 4.41 1.21 4.79 0 8.67-3.88 8.67-8.66 0-.03-.01-.06-.01-.09 3.645-.46 6.717-2.74 8.26-5.91 13.62-1.91 26.04-7.54 36.197-15.85 6.67 1.48 14 2.81 21.62 3.69 0 0 23.52 2.11 23.82-2.71.02-.21-.06-.45-.18-.71zM81.505 50.37c1.438 1.987 5.396 8.195 4.403 15.024-1.5.874-2.973 1.79-4.403 2.764v-17.79z" opacity=".15"/><path d="M94.93 55.74c-.9-2.575-2.086-6.308-2.666-7.97-.18-.52-.318-.843-.346-.857-.42-.203-1.57-1.362-1.68-1.674-.014-.05 0-.07 0-.07.115-.21 2.044-1.02 3.706-1.6 2.575-.9 6.206-1.45 7.017.88.69 1.97-1.03 3.83-1.38 4.16 0 0-.02.05-.02.07.46.03 3.65-.3 4.53 2.22 1.35 3.86-2.61 6.87-6.55 8.25-.58.2-1.08.31-1.08.31-.12-.08-1.14-2.68-1.51-3.74zm.03-10.122c-.228.08-.387.16-.4.187-.014.028 1.064 3.45 1.085 3.512.028.013.05.006.132-.023.603-.21 2.88-1.563 2.313-3.184-.405-1.164-2.298-.782-3.13-.492zm6.31 6.533c-.593-1.7-2.96-1.41-4.395-.91-.228.08-.49.2-.504.23-.02.01.06.24.19.59.41 1.16 1.38 3.67 1.68 4.19 0 0 .05.01.11-.01 1.77-.61 3.47-2.56 2.94-4.07zm4.365-1.2c-.452-2.64 1.046-5.76 4.646-6.37 0 0 1.05-.13 1.21-.02.03.02.07.15.1.3.05.28.07.66.07.79.22-.01 2.61.34 3.13 3.4.44 2.58-.76 5.35-3.77 5.87-2.91.5-4.9-1.23-5.36-3.94zm4.678-3.05l-.173.03c-.03-.04-.07-.14-.092-.27-.04-.24-.05-.55-.042-.64-1.04.18-2.265 1.37-1.91 3.45.038.22.446 2.6 2.527 2.25 1.02-.17 2.017-1.12 1.687-3.05-.32-1.86-1.542-1.83-1.997-1.76zm6.68-2.1c.04-.83.09-1.38.18-1.46.323-.29 1.24-.55 2.03-.52.197.01.46.07.456.13-.04.18-.11.72-.13 1.14-.02.35 0 .44.04.44.02 0 .07-.04.07-.04s1.12-1.33 2.77-1.25c2.74.13 2.63 3.74 2.45 7.5-.07 1.45-.19 2.57-.19 2.57-.01.11-.97.4-1.91.35-.42-.02-.72-.14-.72-.14.16-.98.33-2.29.4-3.74.1-2.13.1-3.8-1.11-3.86-1.43-.07-1.9 1.47-1.9 1.47 0-.02-.05 1.41-.12 2.8-.06 1.21-.14 2.37-.21 2.44-.46.42-1.7.51-2.29.48-.18 0-.33-.01-.33-.08.14-.7.25-1.9.31-3.24.08-1.73.11-3.65.17-4.94zm19.642 3.25c.078-.12.748.06 1.123.24.893.43.912.64.912.64-.31.65-6.023 6.8-6.336 6.91-.313.11-1.684-.48-1.684-.48-.502-.24-.7-.45-.7-.45.374-.78.806-6.97 1.372-8.16.023-.05.762-.21 1.945.35 0 0-.936 4.5-.967 5.86 0 0-.023.09.064.03.757-.53 3.777-4.1 4.27-4.92zm6.08 10.44c-.145.86-.02 1.24.146 1.54-.06.21-1.4.59-2.2.33-.07-.02-.32-.54-.12-1.49 0 0 .01-.03 0-.04-.02-.01-.06.02-.06.02s-1.14.43-2.41.02c-1.54-.49-2.22-1.6-1.75-3.06.97-2.99 5.05-2.11 5.4-2 .02.01.04 0 .04 0 .16-.5-.36-1.04-1.85-1.52-.46-.15-1.05-.3-1.27-.33h-.01c.16-.49.85-1.22 1.11-1.36.02-.01.41 0 1.24.27 2.61.84 3.49 2.2 2.82 4.28l-.28.87c-.28.86-.69 2.14-.75 2.52zm-1.29-2.68c.065-.2.122-.37.104-.38-.62-.2-2.62-.5-3.02.73-.14.43.02.94.79 1.19.44.15 1.54.25 1.91-.88l.21-.65zm3.452 1.45c.717-2.99 3.455-4.15 6.098-3.51.316.08.402.1.47.13.058.07.032.33-.038.62-.113.48-.344 1.05-.486 1.11l-.12-.03c-.66-.16-3.08-.64-3.72 2.03-.23 1 .07 1.98 1.55 2.34.93.22 1.57.01 1.63.02.08.13.04.47-.05.84-.11.48-.31.98-.45 1.06 0 0-.66.2-1.79-.08-2.83-.68-3.51-2.65-3.06-4.51zm13.576 4.47c-.008.88.174 1.23.387 1.5-.033.22-1.29.8-2.127.67-.07-.01-.398-.48-.357-1.45 0 0 .006-.03-.012-.04-.018 0-.06.03-.06.03s-1.058.61-2.374.4c-1.602-.25-2.45-1.23-2.215-2.75.482-3.11 4.656-2.88 5.012-2.83.018.01.04-.01.04-.01.08-.51-.524-.97-2.073-1.21-.48-.07-1.09-.13-1.31-.13h-.017c.08-.51.645-1.34.873-1.52.02-.01.41-.06 1.266.07 2.703.42 3.79 1.63 3.457 3.78l-.14.91c-.14.89-.346 2.22-.35 2.61zm-1.697-2.45c.033-.21.06-.39.043-.39-.65-.1-2.67-.09-2.87 1.19-.07.45.16.92.96 1.05.46.08 1.56.01 1.75-1.16l.1-.67zm4.64-2.17c.02-.68.054-1.13.13-1.2.26-.24 1.006-.47 1.652-.45.162.01.377.05.375.1-.02.15-.074.59-.086.94-.01.29.006.36.043.36.018 0 .055-.03.055-.03s.902-1.1 2.252-1.06c2.248.08 2.2 3.03 2.098 6.11-.04 1.19-.125 2.11-.125 2.11-.004.09-.785.33-1.56.31-.343-.01-.59-.11-.59-.11.116-.8.243-1.88.284-3.07.06-1.74.033-3.11-.957-3.15-1.17-.04-1.535 1.23-1.535 1.23 0-.02-.02 1.15-.06 2.29-.034.99-.085 1.94-.14 2-.373.35-1.385.44-1.87.43-.144-.01-.27-.01-.27-.06.11-.57.18-1.56.218-2.66.05-1.42.047-2.99.085-4.05zm8.884 3.06c-.333-2.32.79-4.64 3.677-5.05.838-.12 2.297.04 2.523 1.62.217 1.52-.89 3.33-3.057 4.44.016.11.443.43 1.37.3.765-.11 1.565-.37 2.07-.78 0 0 .015-.02.032-.02.035 0 .086.23.102.33.06.43.06 1.19-.217 1.67 0 0-.547.5-2.275.75-2.495.36-3.93-1.15-4.226-3.23zm3.515-3.39c-.963.14-1.674 1.4-1.473 2.81.03.2.037.25.107.24.74-.12 2.16-1.42 1.99-2.61-.06-.37-.36-.47-.63-.44zm7.985 5.57c-.165.07-.944-.41-1.28-1.19l-.05-.11c1.897-.83 2.274-1.99 2.046-2.52-.416-.96-3.28-.32-3.898-1.74-.594-1.37.896-3.59 2.762-4.4.182-.08.986.37 1.313 1.08-.248.1-2.145 1.34-1.766 2.22.36.83 3.143.19 3.938 1.88.84 1.93-1.777 4.23-3.064 4.79z" opacity=".15"/><circle fill="#3FD8D8" cx="118.848" cy="126.57" r="73.478"/><path fill="#FFF" d="M88.55 126.653c0-4.095-2.31-7.646-5.694-9.434.016-.19.028-.38.028-.57 0-3.69-2.985-6.67-6.667-6.67-.495 0-.976.06-1.44.16-1.72-3.45-5.275-5.83-9.394-5.83-3.38 0-6.378 1.6-8.3 4.08-1.422-.69-3.013-1.09-4.7-1.09-5.983 0-10.833 4.85-10.833 10.83 0 .3.02.6.045.89-2.65 1.94-4.378 5.06-4.378 8.6 0 5.89 4.775 10.66 10.667 10.66.122 0 .24-.02.36-.02 1.258 4.99 5.762 8.68 11.14 8.68 2.53 0 4.863-.83 6.763-2.22 1.292.76 2.794 1.21 4.404 1.21 4.79 0 8.67-3.88 8.67-8.67v-.1c5.26-.66 9.34-5.14 9.34-10.58zm117.002 17c0-4.095-2.31-7.646-5.695-9.434.016-.19.03-.38.03-.57 0-3.69-2.986-6.67-6.668-6.67-.5 0-.98.06-1.44.16-1.73-3.45-5.28-5.83-9.4-5.83-3.38 0-6.38 1.6-8.3 4.08-1.43-.69-3.02-1.09-4.7-1.09-5.99 0-10.84 4.85-10.84 10.83 0 .3.02.6.04.89-2.65 1.94-4.38 5.06-4.38 8.6 0 5.89 4.77 10.66 10.66 10.66.12 0 .24-.02.36-.02 1.26 4.99 5.76 8.68 11.14 8.68 2.53 0 4.86-.83 6.76-2.22 1.29.76 2.79 1.21 4.4 1.21 4.78 0 8.66-3.88 8.66-8.67 0-.04-.01-.07-.01-.1 5.27-.66 9.34-5.14 9.34-10.58z"/><path fill="#DDD9DA" d="M180.933 164.844s-37.086 28.945-85.33 26.533c-51.233-2.562-51.133-47.303-31.658-58.795 18.393-10.854 34.674-7.538 34.674-7.538s7.23-10.947 15.07-11.156c22.61-.603 40.02 18.77 61.43 32.036"/><path fill="#00AEFF" d="M150.026 136.5c11.308-4.672-30.453-22.46-40.553-21.255 0 0-.288.03-.753.108-5.673 3.02-10.1 9.69-10.1 9.69s40.1 16.132 51.406 11.458z"/><path fill="#DDD9DA" d="M133.595 174.19s24.725 9.648 53.367 12.965c0 0 23.52 2.11 23.82-2.713.3-4.824-36.483-24.423-36.483-24.423m-9.05-19.3s9.95-10.96 17.79-7.34l-2.52 29.9"/><circle fill="#0F4481" cx="68.618" cy="152.934" r="14.322"/><path fill="#FFF" d="M116.536 118.49l.076.124c.026.048.19.29.12.223-.024-.035-.01.023-.05-.075-.02-.06-.083-.395.08-.783.174-.39.4-.51.355-.5-.025 0-.242.06-.528.1-.59.08-1.49.07-2.48-.06-2.01-.25-4.48-.91-6.99-1.94-2.52-1.02-5.11-2.4-7.48-4.06-2.38-1.65-4.55-3.55-6.31-5.53-1.78-1.98-3.17-4.02-4.17-5.84-1.02-1.83-1.65-3.44-2.05-4.58-.2-.57-.35-1.03-.43-1.34l-.15-.48-7.93 2.55s.08.2.22.59.35.95.66 1.66c.6 1.41 1.54 3.41 2.96 5.62 1.4 2.21 3.29 4.63 5.61 6.89 2.31 2.27 5.03 4.37 7.94 6.11 2.9 1.75 5.99 3.15 9 4.16 3.01 1 5.94 1.61 8.62 1.77 1.35.07 2.63.04 3.93-.22.65-.14 1.3-.32 2.02-.7.68-.37 1.51-1.03 1.96-2.05.45-1.02.36-2.01.21-2.58-.16-.62-.35-.98-.55-1.33-.23-.41-.25-.38-.32-.5l-.08-.12-4.28 2.83z"/><path fill="#D0D1D2" d="M97.66 118.14c2.41 1.315 4.904 2.407 7.35 3.22 3.012 1.006 5.94 1.618 8.624 1.778 1.35.072 2.63.048 3.932-.217.65-.13 1.307-.31 2.02-.69.685-.36 1.514-1.02 1.966-2.04.458-1.01.362-2 .21-2.57-.154-.62-.344-.97-.544-1.33-.23-.4-.247-.38-.32-.49l-.082-.11-4.152 2.75c.008-.12.032-.27.1-.43.173-.38.398-.5.354-.49-.025.01-.242.07-.528.1-.585.08-1.482.07-2.477-.05-2.01-.25-4.476-.91-6.988-1.93-2.52-1.02-5.104-2.4-7.477-4.05-.356-.24-.695-.51-1.042-.76.218 2.41.043 5-.945 7.37zm19.022.622l-.01-.05c.05.08.105.17.06.125-.024-.035-.01.023-.05-.075zM87.93 96.552s1.452 5.075-5.745 6.968c0 0-2.15-2.887-2.7-4.954" opacity=".3"/><path fill="#6D6F71" d="M118.156 125.102l-.542-.208-.753 6.482.25.227c6.41 2.023 13.52 3.985 19.72 5.01.44-3.21.7-7.348.7-7.348l-19.36-4.163z"/><path fill="#D0D1D2" d="M110.53 71.49s-9.914-9.11-8.09 5.987l2.497-.99 5.592-4.997z"/><ellipse transform="rotate(115.83 130.91 98.75)" fill="#FFF" cx="130.914" cy="98.746" rx="29.282" ry="36.547"/><ellipse transform="rotate(115.83 127.08 96.48)" fill="#D0D1D2" cx="127.085" cy="96.482" rx="23.33" ry="30.583"/><ellipse transform="rotate(115.82 113.18 87.46)" fill="#FFF" cx="113.176" cy="87.461" rx="12.351" ry="12.531"/><ellipse transform="rotate(115.83 139.28 100.4)" fill="#FFF" cx="139.281" cy="100.399" rx="15.365" ry="15.468"/><path fill="#919396" d="M162.62 96.257c-.002-.013 1.147 7.854.232 9.803l1.688-1.086s11.9-6.718-1.92-8.717z"/><path fill="#D0D1D2" d="M160.515 93.067s8.664-1.153 11.697 3.718c0 0 3.344 7.504-8.233 11.507l-2.91 1.182s-.94-1.782.48-3.973c0 0 13.99-5.82-.25-8.56 0 0-1.97-1.13-.79-3.86z"/><circle fill="#0071BC" cx="137.88" cy="99.976" r="10.821"/><path fill="#0F4481" d="M143.765 94.766c-2.462-1.833-5.944-1.324-7.777 1.138-1.835 2.463-1.325 5.944 1.136 7.776 2.463 1.837 5.946 1.326 7.78-1.135 1.832-2.462 1.324-5.944-1.14-7.78z"/><circle fill="#FFF" cx="139.428" cy="98.464" r="2.954"/><circle fill="#FFF" cx="145.28" cy="101.872" r="1.439"/><circle fill="#0071BC" cx="113.824" cy="87.969" r="8.739"/><circle fill="#0F4481" cx="115.896" cy="87.36" r="4.489"/><circle fill="#FFF" cx="115.075" cy="86.748" r="2.386"/><circle fill="#FFF" cx="119.802" cy="89.5" r="1.161"/><path fill="#6D6F71" d="M114.89 100.352c-.022-.048-.292.016-.73.23-.433.215-1.056.574-1.65 1.255-.405.492-.738 1.207-.67 2 .09.784.55 1.495 1.1 2.037.552.564 1.266 1.056 2.128 1.27.212.067.437.096.672.09.23.024.465-.01.7-.08.116-.034.242-.044.347-.104l.16-.09.01-.01c.01-.01.01-.008.01-.008s.002 0 0 0l-.01.677.156.66c.295.88 1.01 1.51 1.752 1.83.747.34 1.536.42 2.255.34.725-.05 1.39-.29 1.943-.62.775-.45 1.137-1.13 1.337-1.56.124-.48.158-.74.102-.76-.058-.01-.2.21-.395.61-.27.34-.635.87-1.333 1.2-.487.26-1.07.44-1.704.47-.626.05-1.308-.05-1.914-.34-.606-.28-1.127-.77-1.342-1.43l-.115-.51.01-.55c.04-.43.18-.85.27-1.28l.15-.65.07-.32.03-.14v-.04l-.03.04-.07.07-.17.19c-.36.4-.7.81-1.11 1.15l-.28.26-.11.07c-.07.05-.16.04-.24.07-.16.05-.33.08-.5.06-.17.01-.34-.01-.51-.07-.69-.17-1.31-.56-1.8-1.05-.51-.48-.86-1.04-.95-1.61-.07-.57.14-1.12.48-1.57.96-1.24 2.01-1.71 1.91-1.85z"/><path fill="#0B8ECC" d="M119.805 100.992s2.913-2.245 2.307 3.95l-4.678 1.204-1.6-3.987s4.237-3.94 3.97-1.17z"/><path fill="#FFF" d="M121.47 104.57l-2.007.51s1.182-1.6 2.006-.51zm-4.51-.7l-.6-1.297s.913 0 .6 1.296z"/><path fill="#A0A2A3" d="M152.196 180.818c.563-.24.94-.39.94-.39L136.61 176s-2.363 6.487-11.42 13.126c10.085-2 19.197-5.044 27.006-8.308z"/><path fill="#FFF" d="M118.066 122.33s-1.508 6.935 3.316 10.402c4.825 3.468 16.132-3.468 16.132-3.468l-1.207-2.26-18.24-4.674z"/><path fill="#D0D1D2" d="M130.317 132.63l-3.658-5.626-6.49-1.81s-.39 3.006-.33 6.08c.42.527.93 1.02 1.54 1.458 2.19 1.58 5.73.997 8.93-.1z"/><path fill="#A0A2A3" d="M135.604 166.45s42.213 23.722 74.977 17.29l.02-.01c-2.63-5.772-36.3-23.71-36.3-23.71s-.23-1.56-13.26 1.96c-6.23 1.682-25.43 4.47-25.43 4.47zm30.532-26.63c.504.498 1.187 1.22 1.43 1.707.387.773 6.94-9.84 15.47-8.04l.008-.102c-6.445-2.973-14.31 3.895-16.908 6.435z"/><path fill="#F2D86B" d="M77.506 101.665c0 1.178-.955 2.133-2.133 2.133s-2.133-.955-2.133-2.133V47.427c0-1.18.956-2.133 2.133-2.133 1.178 0 2.133.954 2.133 2.133v54.238z"/><path fill="#FFF" d="M76.135 78.538s-6.704-3.2-11.122.686c-2.87 2.523-3.123 7.084-.99 8.912 0 0-5.104 2.362-4.037 8.304 1.066 5.94 5.133 12.84 16.606 7.923 10.13-4.343 12.493-9.903 12.493-9.903s5.104-21.482-5.256-21.482-7.39 3.884-7.7 5.56z"/><path fill="#D0D1D2" d="M76.288 79.225s-.99 12.036 9.293 12.95c0 0-14.06 2.285-9.29-12.95z"/><path fill="#D0D1D2" d="M64.023 88.136s8.81-3.122 11.96.84c0 0-2.794-1.78-11.96-.84zM63.39 99.64s14.828 4.977 15.437-6.297c0 0 2.336 10.767-10.056 9.243 0 0-5.48.202-5.38-2.946z"/><path fill="#F2D86B" d="M73.24 102.544v4.866c0 1.18.956 2.133 2.133 2.133s2.133-.954 2.133-2.133v-7.22c-.864 1.094-2.208 1.984-4.266 2.354z"/><ellipse fill="#D6B303" cx="75.323" cy="108.097" rx="2.083" ry="1.549"/><path fill="#0099B2" d="M77.506 71.702s32.942-24.55 48.162-13.218l-.053-15.797V32.5C106.815 15.07 77 47.368 77 47.368s11.07 13.364.506 24.334z"/><path fill="#0099B2" d="M125.46 58.526s48.59 21.46 73.258 3.792l-11.5-12.5 4-14.5c-9.704.25-17.593 8.08-26.552 8.85C153.03 45.168 125.5 33.5 125.5 33.5s-.954 21.596.063 24.93"/><path fill="#048B99" d="M125.688 40.118s-.9 15.447.115 18.782c0 0 9.22 3.172 9.197 3.155-6.75-5.312-9.312-21.937-9.312-21.937z"/><path fill="#FFF" d="M130.22 194.652c0-4.095-2.31-7.646-5.696-9.434.016-.188.028-.375.028-.566 0-3.683-2.985-6.667-6.667-6.667-.495 0-.976.058-1.44.16-1.72-3.45-5.275-5.827-9.394-5.827-3.38 0-6.37 1.604-8.29 4.084-1.42-.688-3.01-1.084-4.7-1.084-5.98 0-10.83 4.85-10.83 10.834 0 .303.02.6.05.897-2.65 1.94-4.38 5.06-4.38 8.6 0 5.89 4.78 10.66 10.67 10.66.13 0 .24-.02.36-.02 1.26 4.99 5.77 8.68 11.14 8.68 2.53 0 4.87-.83 6.77-2.22 1.29.76 2.8 1.21 4.41 1.21 4.79 0 8.67-3.88 8.67-8.67 0-.03-.01-.06-.01-.1 5.26-.66 9.34-5.14 9.34-10.58zM91.667 52.786c-1.035-1.977-2.44-4.857-3.11-6.133-.207-.398-.357-.646-.38-.653-.365-.114-1.435-.916-1.56-1.155-.017-.032-.01-.056-.01-.056.07-.18 1.535-1.07 2.81-1.74 1.978-1.04 4.852-1.91 5.787-.13.793 1.51-.383 3.22-.626 3.54 0 0-.015.04-.007.06.37-.03 2.92-.68 3.93 1.25 1.55 2.96-1.29 5.87-4.32 7.46-.44.23-.84.37-.84.37-.1-.05-1.24-2.03-1.67-2.84zm-1.182-8.198c-.176.092-.295.175-.302.2-.008.023 1.273 2.664 1.298 2.712.03.008.04 0 .11-.034.46-.242 2.15-1.61 1.49-2.854-.46-.892-1.95-.358-2.59-.024zm5.888 4.536c-.684-1.308-2.566-.79-3.667-.214-.176.092-.375.216-.382.24-.016.01.076.185.217.456.47.893 1.55 2.805 1.86 3.193 0 0 .04 0 .09-.03 1.36-.71 2.5-2.49 1.89-3.65zm8.517-.196c-.01-.035-.028-.03-.028-.03-.33 1-1.104 1.802-1.92 2.02-1.567.416-2.378-1.026-2.842-2.28-.078-.223-.21-.653-.344-1.157-.356-1.33-.78-3.21-.745-3.43 0 0 .36-.48 1.37-.75 0 0 .4-.1.51-.04.04.13.3 1.55.64 2.81.11.39.22.75.32 1.05 0 0 .36 1.42 1.35 1.15.91-.24 1.12-1.54 1.06-1.69l-.15-.59c-.33-1.23-.83-3.32-.81-3.45.06-.2.63-.7 1.42-.91.1-.03.39-.08.45-.04.04.12.65 2.98 1.15 4.89.18.68.36 1.25.48 1.51.3.7.55 1.01.84 1.27.06.21-.95 1.26-1.68 1.46-.07.02-.55-.34-.93-1.39l-.11-.36zm2.84-3.138c-.16-2.19 1.306-4.608 4.287-4.826 0 0 .865-.027.98.073.02.017.045.123.054.25.02.232.01.54 0 .65.18.004 2.1.478 2.28 3.01.16 2.137-1.04 4.3-3.53 4.483-2.4.176-3.89-1.394-4.05-3.64zm4.052-2.12l-.144.012c-.02-.035-.045-.123-.053-.23-.014-.2.003-.453.016-.526-.86.063-1.95.938-1.82 2.662.02.18.16 2.155 1.88 2.03.85-.063 1.73-.76 1.62-2.358-.11-1.545-1.11-1.616-1.48-1.59zm5.463-1.175c.073-.68.14-1.125.218-1.19.277-.223 1.038-.395 1.683-.325.16.017.372.076.366.13-.033.14-.117.584-.154.925-.03.286-.02.36.015.364.018 0 .058-.03.058-.03s.98-1.04 2.33-.9c2.24.24 1.98 3.18 1.65 6.24-.12 1.18-.28 2.08-.28 2.08-.01.09-.81.27-1.58.19-.34-.04-.58-.15-.58-.15.18-.8.38-1.86.51-3.04.19-1.74.26-3.11-.72-3.21-1.16-.13-1.62 1.11-1.62 1.11 0-.02-.1 1.14-.22 2.27-.1.98-.22 1.93-.28 1.98-.39.32-1.41.33-1.89.28-.14-.02-.27-.03-.26-.08.15-.57.3-1.55.41-2.64.16-1.42.27-2.98.38-4.03zm12.935 9.83c-.436-.866-.117-10.263.824-12.678.02-.05.98-.14 1.92.227 0 0 .352.137.332.188-.24.814-1.213 7.774-.992 10.235 0 0 .02.24.1.29.066.026.207-.036.256-.113.494-.426 4.152-4.313 5.184-6.962.104-.268-.41-.932-.783-1.116 0-.04.01-.074.03-.124.11-.285.49-.796.6-.83 0 0 1.71.18 3.25.78 0 0 .24.132.23.166-1.23 3.17-7.5 10.345-8.11 10.61-.81.108-2.03-.328-2.64-.563-.1-.038-.18-.087-.19-.11zm12.062-3.2c-.043.08-1.096 1.882-1.893 3.333-.4.726-.73 1.366-.85 1.65-.29.707-.3 1.11-.27 1.497-.11.19-1.56.254-2.22-.11-.06-.035-.16-.618.29-1.648.1-.214.36-.743.72-1.39.89-1.625 2.26-3.997 2.39-4.09 0 0 .52-.083 1.43.42 0 0 .36.2.39.337zm-.43-1.53c-.585-.323-.755-.91-.374-1.604.295-.53 1.133-.75 1.7-.44s.763.93.397 1.6c-.31.57-1.156.76-1.724.45zm6.862 10.298c-.105.867.033 1.24.215 1.533-.06.208-1.38.65-2.19.428-.07-.02-.34-.522-.19-1.49 0 0 .01-.034-.01-.04-.02-.003-.06.022-.06.022s-1.12.478-2.41.127c-1.57-.427-2.3-1.504-1.9-2.98.83-3.04 4.95-2.342 5.3-2.247.01.005.04-.008.04-.008.14-.503-.41-1.026-1.92-1.44-.47-.127-1.07-.253-1.29-.276l-.02-.005c.14-.503.79-1.258 1.04-1.414.02-.012.41-.017 1.25.21 2.64.722 3.58 2.044 3.01 4.145l-.24.886c-.24.868-.6 2.17-.64 2.55zm-1.41-2.624c.057-.21.104-.39.088-.39-.625-.17-2.64-.39-2.98.86-.12.43.063.93.844 1.14.45.12 1.555.18 1.87-.97l.178-.66zm8.334 4.31c.01-.06.012-.07-.006-.08-.018 0-.063.04-.063.04-.83.9-1.9.86-2.52.76-1.69-.29-2.34-2.08-2.1-3.5.45-2.68 2.54-4.61 6.11-4.01 0 0 .62.1.6.19 0 0 0 .31-.06.66l-.06.26.19.03c.23.04.6.12.74.23l-.38 2.25c-.28 1.65-.59 3.71-.67 4.21-.83 4.88-4.36 5.14-5.72 4.91-.11-.02-.5-1.09-.35-1.96l.34.05c.91.15 3.2.16 3.92-4.1zm.43-5.06c-1.577-.27-2.663.75-2.9 2.15-.108.65.18 1.43 1.013 1.57 1.05.17 1.71-.81 1.75-1.04.05-.27.38-2.16.51-2.58.01-.05-.36-.12-.36-.12zm8.442 5.95c.003-.06.003-.07-.015-.08-.018 0-.057.05-.057.05-.732.98-1.8 1.05-2.43 1.01-1.705-.11-2.53-1.83-2.438-3.26.178-2.71 2.066-4.85 5.676-4.61 0 0 .63.04.623.13 0 0 .03.31.01.67-.01.09-.04.26-.04.26l.19.01c.23.01.61.05.76.15l-.15 2.28c-.11 1.67-.22 3.76-.25 4.26-.33 4.94-3.81 5.56-5.2 5.47-.11-.01-.6-1.03-.54-1.91l.34.02c.91.06 3.2-.17 3.48-4.48zm-.083-5.08c-1.6-.1-2.574 1.02-2.668 2.44-.05.66.32 1.41 1.16 1.46 1.06.07 1.61-.98 1.63-1.21.01-.27.16-2.19.24-2.62 0-.06-.38-.08-.38-.08zm4.983-2.22c-.667.01-1.108-.41-1.128-1.2-.014-.62.602-1.22 1.25-1.24.646-.02 1.125.42 1.143 1.18.015.64-.617 1.24-1.266 1.25zm1.142 1.1c.002.09-.002 2.18.037 3.83.02.82.05 1.54.09 1.85.1.75.29 1.11.52 1.42 0 .21-1.22 1-1.98 1.02-.07 0-.45-.46-.58-1.57-.03-.24-.06-.83-.08-1.57-.05-1.85-.06-4.59.01-4.74 0 0 .4-.33 1.45-.36 0 0 .41-.01.5.1zm2.02 3.74c-.317-2.17.968-4.69 3.925-5.13 0 0 .86-.09.982 0 .02.02.05.12.07.25.03.23.04.54.04.64.18-.01 2.12.33 2.49 2.84.31 2.12-.73 4.36-3.2 4.72-2.39.35-3.98-1.11-4.31-3.34zm3.886-2.41l-.143.02c-.023-.03-.053-.12-.068-.23-.03-.2-.03-.45-.023-.53-.854.12-1.88 1.07-1.63 2.78.026.18.314 2.14 2.024 1.89.836-.12 1.672-.88 1.44-2.46-.225-1.54-1.225-1.53-1.6-1.48zm5.842.33c-1.17-3.67-3.03-7.5-3.03-7.5.128-.25 1.23-.64 1.23-.64.858-.27 1.427-.21 1.44-.12.015.1.173 1.79.376 2.43.195.61 1.207 4.67 1.38 5.34 0 0-.306.23-.665.34-.46.14-.73.14-.73.14zm1.88 3.35c-.636.2-1.314-.15-1.517-.79-.2-.64.148-1.32.783-1.52s1.313.14 1.516.78c.2.63-.15 1.31-.783 1.51z"/></svg>