<svg xmlns="http://www.w3.org/2000/svg" width="250" height="250" viewBox="0 0 250 250"><path fill="#1D76BB" d="M61.966 214.056l.007.01-.007-.01m-.35-.44l-.004.002c.096.13.198.258.31.383-.11-.12-.21-.25-.306-.38"/><path fill="#1D76BB" d="M61.966 214.056l.007.01-.007-.01m-.35-.44l-.004.002c.096.13.198.258.31.383-.11-.12-.21-.25-.306-.38"/><path fill="#1D76BB" d="M61.966 214.056l.007.01-.007-.01m-.35-.44l-.004.002c.096.13.198.258.31.383-.11-.12-.21-.25-.306-.38"/><path fill="#1B75BB" d="M104.348 210.085c0-.04-.036-.09-.095-.144.064.14.097.19.095.15z"/><path d="M108.085 214.55c-.02-.05-.04-.1-.063-.153l-.086-.217c-.026-.066-.056-.14-.084-.215-.034-.086-.065-.168-.104-.264l-.057-.14c-.08-.2-.16-.43-.26-.68l-.12-.32c-.05-.12-.1-.25-.14-.39l-.12-.32c-.05-.14-.11-.3-.17-.45l-.14-.38-.32-.87-.15-.41c-.09-.24-.18-.48-.27-.74l-.04-.11c-.55-1.49-1.18-3.21-1.88-5.12h86.4l-.49-72.95V99.24c.13-.158.22-.32.29-.486l.02-.035c.07-.16.11-.32.14-.47l.01-.04c.03-.17.04-.33.04-.48v-.02c0-.16-.02-.32-.05-.47v-.04c-.02-.14-.06-.27-.09-.39l-.01-.04c-.03-.12-.07-.24-.11-.33v-.02c-.08-.22-.16-.37-.2-.43V48.16l-23.62 2.433c-4.44-3.742-10-6.6-16.24-8.212h-.02c-.58-.14-1.16-.28-1.75-.41l-.14-.03c-.55-.11-1.11-.22-1.67-.31l-.26-.05c-.52-.08-1.06-.16-1.58-.23-.12-.01-.24-.04-.36-.05-.5-.06-1.01-.11-1.52-.16-.15-.01-.31-.03-.46-.05-.5-.04-1-.06-1.5-.09l-.51-.03c-.67-.03-1.34-.04-2.02-.04-.68 0-1.36.02-2.03.05-.21.01-.42.03-.64.04-.46.03-.93.06-1.38.1-.24.02-.48.05-.72.07-.44.04-.87.09-1.3.15l-.7.09c-.46.07-.92.15-1.37.22-.19.04-.38.07-.56.1-1.29.24-2.56.54-3.81.88-.14.04-.28.09-.42.13-.47.14-.95.28-1.42.43l-.52.18c-.44.15-.88.31-1.32.47l-.48.18c-.47.19-.94.38-1.41.58l-.32.14c-1.17.52-2.3 1.08-3.4 1.68-.05.03-.1.06-.16.09-.48.27-.95.55-1.42.84l-.3.19c-.42.27-.84.54-1.25.82l-.29.2c-.44.31-.87.62-1.29.94l-.15.12c-.98.74-1.9 1.53-2.78 2.36l-.01.01-.02-.01c-2.55-1.1-4.59-1.55-6.22-1.6h-.01c-.2-.01-.39-.01-.57 0h-.1l-.52.03h-.03c-.17.02-.34.04-.5.07-.01 0-.01 0-.02.01-.16.02-.32.06-.47.09h-.01c-1.54.36-2.52 1.13-3.12 1.82l-.01.02c-.06.06-.1.12-.15.18l-.03.03c-.05.06-.09.11-.12.16l-.03.04-.1.15-.03.04-.08.13-.03.04-.07.11-.02.05-.05.09-.02.04-.03.07-.02.04-.02.04-.02.03v.03l-.01.01c-.14.28-.25.57-.34.86l-.04.13c-.31 1.06-.32 2.16-.11 3.25l-31 3.15-.19-.11.03.12-.28.03 21.72 72.54-11.14.31-.02.36-.19-.54-4.9 69.99.78.2.15.04.09.02 1.47.39c.05.01.1.02.14.03 2.86.75 7.72 2.03 12.96 3.46l1.74.48.09.03c.57.15 1.13.31 1.7.47.04.01.07.02.1.03l1.68.47.13.03c.55.15 1.09.31 1.63.46l.17.05 1.53.44.25.07c.5.14.99.28 1.48.43l.22.06c.48.14.94.27 1.4.41l.27.08 1.28.38.32.09c.4.12.78.24 1.16.36l.34.11c.36.11.71.22 1.05.32l.34.1c.32.1.63.2.93.3.12.04.25.08.36.12.28.09.54.17.79.26.12.04.25.08.36.12.24.08.45.15.66.23l.36.12.52.2c.11.04.23.08.33.12l.39.16c.1.04.21.09.3.13.1.04.18.08.27.12.09.04.18.09.24.12.07.04.1.07.15.1.06.04.13.08.16.11.02.01.02.02.03.03l-.02-.02-.05-.11-.04-.1c-.03-.05-.06-.12-.09-.18zm.263.535c0-.033-.043-.075-.082-.116.053.11.083.15.082.11z" opacity=".15"/><path fill="#FFF" d="M162.2 45.485c-7.075-5.907-16.954-9.586-27.896-9.586-11.792 0-22.354 4.26-29.493 11-10.22-4.45-12.32 1.7-12.32 1.7-.59 1.21-.7 2.49-.53 3.77 22.31 9.86 52.68 12.71 70.25-6.9z"/><path fill="#1B75BB" d="M185.953 91.017V43.16l-23.62 2.433c-.044-.037-.09-.07-.134-.107-17.57 19.61-47.94 16.76-70.25 6.897.02.152.02.304.05.455l-31.46 3.24 21.72 72.54-11.14.304-.02.363-.2-.546-4.9 69.98s36.19 9.33 38.23 11.21c-.39-.85-1.96-5.05-4.21-11.22h81.21l4.7-72.95-14.63-8.13 14.62 8.13V94.23c1.02-1.285.14-2.96 0-3.216zm-48.008 8.076l6.977 3.877-6.977-3.877z"/><path fill="#0E4F82" d="M70.926 128.74s33.474 82.826 33.42 81.345-38.326-11.358-38.326-11.358l4.906-69.988zm113.634-2.964L60.8 55.926l43.793 135.24"/><path fill="#FFF" d="M131.646 99.55s28.35 57.315 38.346 1.512c0 0 6.795 2.222 5.48 4.567 0 0-12.595 57.53-46.714 1.37-.002 0-5.23-5.8 2.888-7.46z"/><path fill="#FFF" d="M169.992 95.444c-6.313-8.148-10.078-.54-10.078-.54.557 1.095 2.902.6 2.902.6 5.926-.925 5.246 4.044 5.246 4.044l3.69 4.723M115.06 90.98l17.858 5.65-2.02 2.918 7.285 13.577 3.602 7.195.523 8.726-45.625 2.33S93.63 101.75 93.47 101.25s14.588-10.873 14.588-10.873l7 .602z"/><path fill="#D0D2D3" d="M139.125 118.41s-6.125-10.002-7.36-18.62l-7.025 3.947 2.053 13.844 5.715 2.87 6.617-2.04zm31.617-62.043s7.717-14.035-6.607-9.16c-14.328 4.875 6.607 9.16 6.607 9.16z"/><path fill="#919496" d="M103.578 49.876l-4.02 8.793s-12.36-15.38 4.02-8.8z"/><path fill="#FFF" d="M95.74 63.208c2.612-15.426 18.877-27.31 38.565-27.31 21.51 0 38.94 14.18 38.94 31.67 0 17.49-17.433 31.667-38.94 31.667-.81 0-1.605-.025-2.404-.065-.86 3.76-1.58 9.59 1.03 13.118 0 0 17.87 13.357 8.75 26.047.01-.093 2.35-22.236-14.7-26.18l3.1-13.947s-6.44-1.514-13.96-4.837v17.48s17.99 21 7.8 35.22c-17.81-.54-53.65-10.07-28.16-82.85z"/><path fill="#D0D2D3" d="M116.1 110.842v-17.47c7.524 3.322 13.964 4.836 13.964 4.836l-3.092 13.947c17.045 3.943 14.71 26.087 14.7 26.18-1.778 2.477-2.673 3.314-6.843 5.637 0 0-5.62 2.248-10.93 2.088 10.18-14.22-7.8-35.218-7.8-35.218z"/><ellipse fill="#D0D2D3" cx="140.154" cy="68.266" rx="33.094" ry="25.105"/><path fill="#D0D2D3" d="M107.234 48.074s.38 3.253-2.646 3.706c0 0-14.82-4.84-4.008 8.166 0 0 1.21 1.967-1.285 3.705 0 0-9.98-8.54-6.805-15.04 0 0 2.42-7.11 14.744-.53z"/><ellipse fill="#FFF" cx="157.055" cy="62.626" rx="12.938" ry="12.752"/><ellipse fill="#FFF" cx="126.973" cy="62.915" rx="15.967" ry="15.862"/><path fill="#6C6F71" d="M138.908 90.378s.846-2.56 3.477-2.34c0 0-.7-.77-3.477-1.954 0 0 2.455.233 4.133 1.574 0 0 6.18.563 4.4-4.52 0 0 3.46 6.063-4.76 5.364 0 0-2.02.395-3.76 1.876z"/><path fill="#BE1E2D" d="M145.648 82.453s1.977 2.396-1.803 3.65c0 0-2.146.89-5.092-2.298 0 0 16.395-7.432 6.895-1.352z"/><path fill="#D0D2D3" d="M109.174 96.63l1.83 47.385-7.426-3.183L97.69 99.79l1.868-1.705 7.504 44.24"/><path fill="#6C6F71" d="M146.225 77.35l-.432 2.714s-8.475 6.198-10.463 1.29l.74-1.896-2.543 3.26 1.525-.944s-.232 6.02 10.83-.965c0 0 5.092-2.05.604 1.1 0 0 7.455-3.38.232-2.13L147 77.7l-.775-.35z"/><path fill="#1D8FCD" d="M150.162 76.033s-2.877-5.856-3.938-2.765c0 0-2.38-3.48-2.38 2.11 0 0 2.255 1.535 2.38 3.397 0 0 2.33-.935 3.938-2.742z"/><path fill="#FFF" d="M146.225 77.35s-.146-.792-1.262-1.58c0 0 .412-1.515 1.262 1.58z"/><path fill="#002749" d="M71.144 128.922l-5.124 69.805h120.425l-.492-72.95"/><circle fill="#0071BC" cx="124.072" cy="62.998" r="12.364"/><path fill="#0F4481" d="M124.96 66.11c2.297-2.653 2.008-6.66-.645-8.957-2.65-2.293-6.658-2.006-8.957.647-2.293 2.65-2.005 6.66.646 8.956 2.654 2.296 6.663 2.006 8.956-.646z"/><path fill="#FFF" d="M121.263 64.164c1.222-1.41 1.064-3.54-.344-4.76-1.41-1.218-3.54-1.067-4.76.343-1.22 1.41-1.07 3.542.34 4.762 1.41 1.21 3.53 1.06 4.76-.35z"/><circle fill="#FFF" cx="126.4" cy="61.082" r="1.644"/><circle fill="#0071BC" cx="155.229" cy="62.782" r="10.265"/><path fill="#0F4481" d="M155.967 65.367c1.904-2.204 1.666-5.53-.535-7.437-2.2-1.904-5.53-1.666-7.438.537-1.902 2.2-1.664 5.53.54 7.436 2.198 1.905 5.53 1.664 7.433-.536z"/><path fill="#FFF" d="M152.896 63.75c1.014-1.17.885-2.938-.285-3.95-1.16-1.012-2.93-.888-3.95.283-1.01 1.17-.88 2.94.29 3.954 1.17 1.01 2.94.882 3.95-.287z"/><circle fill="#FFF" cx="157.162" cy="61.191" r="1.364"/><path fill="#FFF" d="M169.563 104.288s-1.05-2.3-1.48-4.724c-.43-2.427 1.172.124 1.172.124l1.08-3.18.186-.956s-.49-9.945 4.05-14.772c0 0 6.21-.804 0 7.603 0 0-2.22 6.09-1.9 7.387 0 0 .79 2.032 2.64.876 0 0 3.52-5.145 10.65-5.65 0 0 2.92 4.774-5.18 4.774l-3.53 2.776s3.63 9.445-6.1 6.574"/><path fill="#D0D2D3" d="M170.86 96.045l.913 2.777s5.594 2.63.975 6.686c0 0 5.215-3.745-.03-6.686l-1.86-2.777z"/><path d="M128.957 170.104l-1-1h-6.588v-19.09l-1-1h-14.85v-3.804h20.87l1-1v-4.24l-1-1H78.18l-1 1v4.24l1 1h20.876v3.804H84.208l-1 1v19.09h-6.366l-1 1v4.24l1 1h6.366v12.17l1 1h4.464l1-1v-12.17h25.23l-.004 6.26h-6.138l-.98 1.206.895 4.24.98.795h7.588c2.622 0 4.125-1.422 4.125-3.902v-8.598h6.588l1-1v-4.24zm-14.052-14.85v3.805h-9.385v-3.81h9.385zm0 10.046v3.804h-9.385V165.3h9.385zm-15.85 0v3.804h-9.383V165.3h9.384zm0-10.045v3.804h-9.383v-3.81h9.384zm81.4 22.59l-4.912-1.34-1.242.77-.65 3.262c-.3.747-.82 1.067-1.71 1.067h-8.04c-.35 0-.56 0-.56-.786v-10.384h3.36v1.232l1 1h4.47l1-1v-32.813l-1-1H138l-1 1v32.813l1 1h4.465l1-1v-1.232h3.36c-.21 7.162-5.84 11.113-17.167 12.066l-.87 1.3 1.565 4.91 1.063.69c14.67-1.648 22.107-8.028 22.116-18.967h3.338v12.616c0 3.09 1.782 4.79 5.02 4.79h12.052c3.45 0 5.64-1.74 6.33-5.01l.895-3.8-.71-1.2zM166.69 161.28v2.91h-23.22v-2.91h23.223zm-23.22-14.723v-2.467h23.223v2.465H143.47zm0 8.48v-2.24h23.223v2.24H143.47z" fill="#BBC9DA"/><path fill="#6C6F71" d="M-646.326 301.937s.604-1.828 2.484-1.672c0 0-.5-.55-2.484-1.396 0 0 1.754.16 2.953 1.12 0 0 4.41.4 3.14-3.23 0 0 2.47 4.33-3.402 3.83 0 0-1.45.28-2.69 1.34z"/><path fill="#BE1E2D" d="M-641.51 296.274s1.412 1.712-1.288 2.61c0 0-1.533.633-3.638-1.644 0 0 11.713-5.31 4.926-.966z"/><path fill="#6C6F71" d="M-641.1 292.628l-.308 1.938s-6.055 4.43-7.475.923l.53-1.36-1.818 2.33 1.09-.68s-.17 4.3 7.73-.69c0 0 3.64-1.47.43.79 0 0 5.32-2.42.16-1.52l.2-1.49-.56-.25z"/><path fill="#1D8FCD" d="M-638.286 291.688s-2.055-4.185-2.813-1.976c0 0-1.7-2.486-1.7 1.508 0 0 1.62 1.097 1.7 2.428 0 0 1.67-.67 2.82-1.96z"/><path fill="#FFF" d="M-641.1 292.628s-.104-.565-.9-1.128c0 0 .294-1.083.9 1.128z"/></svg>