<svg xmlns="http://www.w3.org/2000/svg" width="250" height="250" viewBox="0 0 250 250"><path opacity=".15" d="M237.983 174.766c-.63-1.23-1.877-2.092-3.335-2.174l-16.16-2.646c-.213-.035-.427-.053-.642-.053-.56-.36-1.216-.584-1.92-.625l-12.824-2.098c.004-.074.006-.15.006-.225v-8.277c6.217-12.234 9.367-25.41 9.367-39.18 0-47.852-38.93-86.782-86.782-86.782S38.91 71.636 38.91 119.488c0 14.872 3.84 29.428 11.008 42.27-1.34.506-2.342 1.71-2.547 3.193l-.42 3.08-2.88-3.43c-.78-.93-1.91-1.43-3.06-1.43-.65 0-1.31.16-1.92.49-1.67.92-2.46 2.89-1.89 4.71l8 25.42c.53 1.67 2.07 2.8 3.82 2.8l36.31-.14c.28.17.58.31.9.4l4.02 1.23c.42.15.87.22 1.31.22h.19l4.13-.18c1.29-.05 2.41-.72 3.1-1.7h.81v.76c0 1.76 1.15 3.32 2.83 3.83l4.02 1.23c.42.15.87.22 1.31.22h.19l4.12-.19c2.14-.09 3.82-1.85 3.82-3.99v-1.9l4.72-.02c-.03.4-.06.76-.09 1.07-.06.74-.11 1.32-.16 1.72l-.08.71c-.03.32-.04.64-.03.97.12 3.81 3.2 6.79 7.01 6.79h.22c1.87-.06 3.61-.84 4.89-2.2.28-.29.53-.6.74-.93.26.71.66 1.31 1.09 1.74.54.54 1.21.91 1.96 1.08l21.62 4.87c1.6 1.67 3.26 2.06 4.47 2.06.82 0 1.57-.17 2.24-.47.69.31 1.48.52 2.34.52.81 0 1.53-.17 2.18-.47.29.05.59.07.89.07 2.52 0 4.54-1.62 5.09-2.12.23-.2.43-.43.6-.67.31-.06.61-.15.9-.25.6.24 1.27.39 2.01.39.72 0 1.37-.14 1.95-.38.22.03.44.04.67.04 2.36 0 4.23-1.5 4.74-1.96.71-.64 1.17-1.5 1.3-2.45.27-1.99-.33-3.94-1.68-5.51-2.02-2.33-6.01-3.94-11.91-4.81l4.97-.02c.4.34.87.6 1.4.76l4.01 1.23c.42.14.87.22 1.31.22h.19l4.13-.18c1.44-.07 2.67-.89 3.32-2.07h.58v1.11c0 1.76 1.15 3.31 2.83 3.82l4.02 1.23c.42.14.87.22 1.31.22h.19l4.13-.19c2.14-.09 3.82-1.85 3.82-3.99v-1.89l8.13.16c.74 0 1.44-.2 2.05-.57l4.29-.02c1.88 0 3.5-1.32 3.9-3.16l2.25-10.49h3.92c2.2 0 3.99-1.78 4-3.98l.01-1.27.01-.11c.05-.76-.12-1.5-.45-2.14zm-103.6 24.52l-.052-1.606-.05-1.42 4.96-.02-.18.252c-1.72.62-3.48 1.477-4.67 2.793z"/><path fill="#B2D573" d="M236.79 171.798c-.63-1.23-1.88-2.093-3.337-2.175l-16.162-2.646c-.21-.035-.42-.053-.63-.053-.56-.36-1.21-.584-1.92-.625l-12.82-2.1c.01-.08.01-.15.01-.23v-8.27c6.22-12.24 9.37-25.41 9.37-39.18 0-47.86-38.93-86.79-86.78-86.79s-86.8 38.93-86.8 86.79c0 14.87 3.84 29.42 11.01 42.27-1.34.5-2.34 1.71-2.55 3.19l-.42 3.08-2.88-3.43c-.78-.93-1.91-1.43-3.06-1.43-.65 0-1.31.16-1.92.49-1.67.92-2.46 2.89-1.89 4.71l8 25.42c.53 1.67 2.07 2.8 3.82 2.8l36.3-.14c.28.17.58.31.9.4l4.02 1.23c.42.14.87.21 1.31.21.01 0 .13 0 .19-.01l4.13-.19c1.29-.06 2.41-.72 3.1-1.71l.8-.01v.75c0 1.76 1.15 3.31 2.84 3.83l4.02 1.22c.42.14.87.22 1.32.22h.18l4.13-.19c2.14-.1 3.82-1.86 3.82-4v-1.9l4.73-.02c-.03.41-.06.77-.09 1.07-.06.74-.11 1.32-.16 1.72 0 0-.08.69-.08.71-.03.32-.05.64-.04.97.12 3.81 3.2 6.79 7.01 6.79l.22-.01c1.88-.06 3.61-.85 4.9-2.21.28-.29.53-.6.74-.93.26.71.66 1.31 1.09 1.73.54.54 1.22.91 1.96 1.08l21.62 4.87c1.6 1.67 3.26 2.06 4.47 2.06.82 0 1.57-.18 2.24-.47.69.31 1.47.52 2.34.52.81 0 1.53-.17 2.18-.47.29.04.58.07.88.07 2.52 0 4.54-1.63 5.09-2.12.23-.2.43-.43.6-.67.31-.06.61-.15.9-.25.6.24 1.27.39 2 .39.72 0 1.37-.14 1.95-.38.22.03.45.04.68.04 2.36 0 4.23-1.5 4.74-1.96.71-.64 1.17-1.5 1.3-2.45.27-1.99-.33-3.94-1.68-5.51-2.01-2.33-6-3.94-11.91-4.81l4.97-.02c.4.34.88.6 1.4.76l4.02 1.23c.42.14.86.22 1.31.22l.18-.01 4.13-.19c1.44-.06 2.68-.88 3.33-2.06h.58v1.12c0 1.76 1.15 3.31 2.83 3.83l4.02 1.23c.42.14.87.22 1.32.22l.19-.01 4.12-.18c2.14-.1 3.82-1.86 3.82-4v-1.89l8.13.16c.74 0 1.45-.2 2.05-.57l4.3-.02c1.88-.01 3.5-1.32 3.9-3.16l2.25-10.49h3.91c2.2 0 3.99-1.78 4-3.98l.01-1.27.01-.11c.05-.77-.11-1.51-.45-2.15zm-103.604 24.52l-.05-1.606-.056-1.42 4.96-.02c-.005.005-.13.175-.185.25-1.724.623-3.486 1.478-4.67 2.795z"/><linearGradient id="a" gradientUnits="userSpaceOnUse" x1="124.498" y1="17.158" x2="124.498" y2="201.111"><stop offset="0" stop-color="#1B1440"/><stop offset=".819" stop-color="#ED1E79"/></linearGradient><path fill="url(#a)" d="M66.637 175.698H182.36c15.37-15.03 24.92-35.983 24.92-59.18 0-45.718-37.062-82.78-82.78-82.78-45.72 0-82.783 37.062-82.783 82.78 0 23.197 9.55 44.15 24.92 59.18z"/><circle fill="#E2E2E2" cx="126.103" cy="117.081" r="39.126"/><circle fill="#AAA" cx="133.399" cy="90.841" r="6.366"/><circle fill="#AAA" cx="134.435" cy="104.504" r="4.606"/><circle fill="#AAA" cx="144.216" cy="99.174" r="4.036"/><path fill="#6FB344" d="M49.138 186.198c19.94-23.868 34.775-59.08 75.058-59.08 47.13 0 70.25 45.798 92.608 62.414"/><path fill="#75451D" d="M88.097 145.823h4v23.375h-4z"/><path fill="#4F3014" d="M89.097 145.823h4v23.375h-4z"/><path fill="#75451D" d="M179.347 145.823h4v23.375h-4z"/><path fill="#4F3014" d="M180.347 145.823h4v23.375h-4z"/><path fill="#ED1F24" d="M68.202 141.316h129.71v9.67H68.202z"/><path fill="#4C8C22" d="M39.805 164.198l8.667 10.334 1.666-12 3 11.666 2.667-8.334 5.333 8 4.334-6.333 3.666 8.34 4.667-5 3.333 5.34 4-5 7.334 5.67 5-2.66 2 4 5.333-4.67 6 5.67 5-4.33 7.333 5.34 6-5.33 8.334 3.67 5.333-5.33-.333 10 3.333-11.33 3.667 10 2.718-11.56 6.615 6.57 4.732-5.2 1.602 11.21 5.98-8.28 2.19 5.08 4.15-4.8 4.33 5.34 3-9 7.66 10.34 6.33-8.33 2.33 10 6.33-9.33 5 4 3.66-2.33 4 7.34 3.66-8.67 1 9.66 5-7.33-2.66 12.4-175.34.67"/><path fill="#B20F1B" d="M97.305 146.615s-1.05 2.656-.302 4.37h8.565c.042-.02.07-.037.07-.037l-5.103-9.632h-3.88c-.364 1.268-.344 3 .65 5.3z"/><path fill="#75451D" d="M90.347 191.323l-4.167-1.27v-19.73h4.167"/><path fill="#4F3014" d="M94.472 191.136l-4.167.187v-21h4.167"/><path fill="#75451D" d="M106.722 195.448l-4.167-1.27v-19.73h4.167"/><path fill="#4F3014" d="M110.847 195.26l-4.167.188v-21h4.167"/><path fill="#B20F1B" d="M172.472 143.53c-.66 2.15-.99 5.77 1.44 7.455h8.846c.744-.162 1.214-.287 1.214-.287l-4.112-9.382h-7.253c.107.64.114 1.404-.135 2.215z"/><path fill="#75451D" d="M184.18 191.323l-4.166-1.27v-19.73h4.166"/><path fill="#4F3014" d="M188.305 191.136l-4.166.187v-21h4.16"/><path fill="#75451D" d="M200.555 195.448l-4.166-1.27v-19.73h4.16"/><path fill="#4F3014" d="M204.68 195.26l-4.166.188v-21h4.166"/><path fill="#ED1F24" d="M68.202 154.31h129.71v9.667H68.202z"/><path fill="#A8170C" d="M84.76 171.973l-16.542-2.577v-1.813l16.542 2.578"/><path fill="#93100C" d="M214.483 171.973l-129.727.01v-1.85l129.737.16"/><path fill="#ED1F24" d="M214.53 170.32H84.82l-16.62-2.718h129.71"/><path fill="#B20F1B" d="M103.972 154.365l-.312-.057h-3.457c-.22 1.448-.608 5.007.852 5.14 1.833.167 4.833-.167 4.833-.167s-1.167 1.75.833 1.75 6.09-1.25 5.92-5c-.03-.66-.18-1.23-.41-1.72h-8.17l-.08.06zm24.28-3.38l1.17-9.67h-10.815l-.302.05s-1.796 4.242-2.87 9.62h12.817zm-.402 3.325H114.9c-.39 3.245-.38 6.655.484 9.667h11.296l1.17-9.668z"/><path fill="#A8170C" d="M103.49 175.297l-16.54-2.578v-1.82l16.54 2.57"/><path fill="#93100C" d="M233.216 175.297l-129.728.01v-1.852l129.737.16"/><path fill="#ED1F24" d="M233.263 173.645H103.55l-16.616-2.72h129.712"/><path fill="#B20F1B" d="M114.847 170.886s10.438-2.813 14.375 2.938l4.375.125-6.5-7.38s-18.75-.38-16.375 2.87 4.125 1.43 4.125 1.43z"/><path fill="#B20F1B" d="M109.222 168.948s-3.5 3.5 0 4.875l1.875 1.625h9.75l-6.625-5.5-5-1z"/><path fill="#FFF" d="M159.32 196.378c.085-.095.16-.195.238-.293-2.423.475-4.87-.06-4.87-.06-3.802 1.414-2.743 2.3-2.743 2.3l19.646 4.426c2.13 3.19 3.72 0 3.72 0 2.65 3.19 3.37.18 3.37.18 1.06 2.13 3.44 0 3.44 0 .96-7.08-22.78-6.55-22.78-6.55z"/><path fill="#FFF" d="M148.852 166.94l.507.06c.31.046.76.116 1.34.204 1.14.188 2.75.547 4.65 1.16 1.89.624 4.1 1.577 6.21 3.238 1.04.84 2.03 1.895 2.8 3.162.78 1.26 1.26 2.74 1.48 4.208.1.55.2 1.387.23 2.053.04.694.03 1.39 0 2.077-.07 1.377-.31 2.717-.64 3.973-.66 2.52-1.65 4.707-2.57 6.457-.93 1.75-1.73 3.13-2.15 3.977-.22.42-.32.71-.34.82-.03.13 0 .1-.01.12l-5.81-1.86c0 .02.11-.31.31-.71.21-.42.51-.89.86-1.39.69-1.02 1.68-2.19 2.66-3.64.97-1.45 2.02-3.14 2.69-5.09.34-.98.6-2 .74-3.06.06-.53.12-1.07.12-1.61.01-.57.01-.98-.06-1.66-.1-1-.37-1.94-.84-2.78-.47-.85-1.11-1.6-1.86-2.25-1.5-1.31-3.38-2.1-5-2.65-1.64-.55-3.09-.78-4.09-.93-.5-.07-.9-.1-1.16-.12l-.38-.02.26-3.77z"/><path fill="#D0D2D3" d="M172.077 122.624s4.664-8.48-3.992-5.535c-8.657 2.94 3.992 5.53 3.992 5.53z"/><path fill="#FFF" d="M126.758 126.757c1.578-9.32 11.406-16.5 23.303-16.5 13 0 23.53 8.566 23.53 19.135s-10.53 19.136-23.53 19.136c-.48 0-.97-.016-1.45-.04-.52 2.27-.95 5.794.62 7.927 0 0 10.8 8.07 5.29 15.738.01-.056 1.42-13.436-8.88-15.82l1.87-8.426s-3.89-.915-8.44-2.923v10.557s10.87 12.69 4.72 21.28c-10.76-.32-32.42-6.09-17.01-50.06z"/><path fill="#D0D2D3" d="M139.06 155.54v-10.557c4.547 2.008 8.44 2.923 8.44 2.923l-1.87 8.427c10.3 2.384 8.89 15.764 8.883 15.82-1.074 1.495-1.615 2.002-4.135 3.405 0 0-3.396 1.358-6.604 1.26 6.154-8.59-4.713-21.278-4.713-21.278z"/><ellipse fill="#D0D2D3" cx="153.596" cy="129.813" rx="19.996" ry="15.17"/><ellipse fill="#FFF" cx="163.808" cy="126.405" rx="7.816" ry="7.705"/><ellipse fill="#FFF" cx="145.63" cy="126.58" rx="9.648" ry="9.584"/><path fill="#6C6F71" d="M152.842 143.175s.512-1.546 2.102-1.414c0 0-.424-.46-2.102-1.18 0 0 1.483.15 2.498.95 0 0 3.73.35 2.656-2.73 0 0 2.09 3.67-2.88 3.25 0 0-1.223.24-2.274 1.14z"/><path fill="#BE1E2D" d="M156.915 138.386s1.194 1.447-1.09 2.207c0 0-1.297.536-3.076-1.39 0 0 9.9-4.49 4.16-.817z"/><path fill="#6C6F71" d="M157.263 135.302l-.26 1.64s-5.12 3.746-6.322.78l.45-1.146-1.53 1.97.93-.57s-.14 3.637 6.55-.583c0 0 3.08-1.238.37.665 0 0 4.51-2.04.15-1.284l.17-1.26-.47-.212z"/><path fill="#1D8FCD" d="M159.643 134.507s-1.738-3.54-2.38-1.67c0 0-1.438-2.105-1.438 1.273 0 0 1.362.93 1.438 2.054 0 0 1.408-.565 2.38-1.657z"/><path fill="#FFF" d="M157.263 135.302s-.088-.478-.763-.953c0 0 .25-.92.763.95z"/><circle fill="#0071BC" cx="143.877" cy="126.63" r="7.471"/><path fill="#0F4481" d="M144.414 128.51c1.388-1.603 1.214-4.023-.39-5.41-1.602-1.386-4.023-1.213-5.412.39-1.385 1.603-1.21 4.025.39 5.412 1.603 1.386 4.026 1.21 5.412-.39z"/><path fill="#FFF" d="M142.18 127.335c.738-.853.644-2.14-.208-2.876-.85-.74-2.138-.65-2.875.2s-.643 2.14.208 2.88c.852.73 2.137.64 2.875-.21z"/><circle fill="#FFF" cx="145.284" cy="125.473" r=".993"/><circle fill="#0071BC" cx="162.704" cy="126.5" r="6.203"/><path fill="#0F4481" d="M163.15 128.062c1.15-1.332 1.006-3.342-.323-4.493-1.33-1.15-3.342-1.01-4.495.32-1.15 1.33-1.005 3.34.326 4.49 1.328 1.15 3.34 1 4.492-.33z"/><path fill="#FFF" d="M161.294 127.085c.613-.708.536-1.775-.172-2.388-.705-.61-1.774-.536-2.387.172-.61.7-.534 1.77.173 2.39.706.6 1.775.53 2.386-.18z"/><circle fill="#FFF" cx="163.872" cy="125.539" r=".825"/><path fill="#A8170C" d="M67.044 154.31h1.26v9.616h-1.26zm0-13.043h1.26v9.618h-1.26z"/><path fill="#919496" d="M129.16 124.76s-.376-4.5 3.25-6c0 0-4.94-1.812-5.75-.687s-1.25 4 2.5 6.688z"/><path fill="#D0D1D2" d="M110.763 150.27s2.5 2.432 3.85 2.432.81 4.186-2.702 2.498"/><path fill="#FFF" d="M101.218 145.925s-2.448 2.61.163 5.222 2.13 4.732 2.13 4.732-1.14 2.93.98 2.93 3.92-1.14 3.27-4.73c0 0 2.45 2.77.82 4.73-1.63 1.95 4.25 3.26 4.74-2.29.49-5.55-5.39-11.26-8-11.26"/><path fill="#D0D2D3" d="M133.703 117.612s.23 1.966-1.6 2.24c0 0-8.955-2.925-2.422 4.934 0 0 .73 1.188-.77 2.238 0 0-6.03-5.16-4.11-9.092 0 0 1.46-4.294 8.91-.32z"/><path fill="#FFF" d="M130.377 169.083l-.624-.106-1.818-.27c-1.573-.203-3.837-.467-6.527-.58-1.34-.045-2.793-.045-4.268.074-.735.07-1.48.16-2.18.31-.697.15-1.378.36-1.823.62-.22.13-.37.26-.416.32-.03.03-.04.07-.03.05l-.06.16c.01 0 .02-.02.02-.02.01-.02 0 .01.01-.03.01-.03 0-.16-.04-.27-.04-.11-.1-.17-.1-.17s.23.15.53.26c.61.23 1.46.42 2.32.59.91.17 1.82.33 2.73.5 1.89.38 3.87.74 5.93 1.85 1.01.56 2.09 1.42 2.78 2.67.17.31.32.64.43.97l.08.25.07.25.09.32c.12.42.23.85.32 1.36.39 1.95.58 3.62.73 5.28.15 1.64.26 3.18.35 4.6.17 2.84.24 5.2.31 6.85l.09 2.63c.05 1.66-1.25 3.05-2.92 3.1-1.66.05-3.05-1.25-3.1-2.91 0-.14.01-.28.02-.42l.01-.04.08-.64c.05-.42.11-1.05.18-1.85.14-1.59.29-3.88.36-6.62.04-1.37.06-2.85-.01-4.4-.04-1.52-.16-3.22-.37-4.71-.03-.35-.12-.78-.21-1.22l-.06-.32-.02-.08-.01-.04c.01.03-.02-.09.02.06v-.01l-.02-.07c-.02-.09-.06-.18-.11-.26-.17-.33-.53-.69-1.11-1.02-1.16-.67-2.87-1.1-4.62-1.45l-2.74-.53c-.95-.2-1.92-.4-3.02-.83-.54-.23-1.16-.5-1.82-1.11-.33-.31-.67-.74-.88-1.28-.22-.53-.27-1.12-.22-1.6.02-.26.07-.45.13-.69l.11-.35.06-.16c.18-.43.38-.78.63-1.1.5-.64 1.07-1.04 1.6-1.35 1.08-.6 2.07-.86 3.01-1.07.94-.2 1.83-.31 2.69-.38 1.71-.15 3.29-.14 4.74-.11 2.89.07 5.25.3 6.91.48.83.1 1.48.17 1.93.23l.7.1c1.19.16 2.02 1.25 1.85 2.43-.15 1.19-1.24 2.02-2.43 1.86l-.06-.01-.05-.01zm14.227 29.02c.06-.064.107-.13.164-.195-2.133.23-2.88-.708-4.546-.96-5.833 1.834-4.243 3.43-4.243 3.43l22.97 5.177c2.48 3.727 4.34 0 4.34 0 3.1 3.727 3.93.207 3.93.207 1.24 2.484 4.01 0 4.01 0 1.11-8.28-26.65-7.66-26.65-7.66z"/><path fill="#D0D2D3" d="M163.3 204.724s-.78-3.827-6.083-1.758c0 .002 5.772-3.313 6.084 1.758zm3.76 0s-.28-3.383-2.312-2.275c0-.01 1.522-.42 2.313 2.27z"/><path fill="#FFF" d="M135.852 166.94s.185.02.53.062c.33.042.804.117 1.4.217 1.196.19 2.874.58 4.864 1.24.992.33 2.058.77 3.15 1.34 1.085.58 2.213 1.29 3.28 2.23 1.06.93 2.028 2.13 2.723 3.52.34.69.61 1.44.8 2.2.08.39.17.74.23 1.17.04.33.1.6.13 1.03.14 1.56.06 3-.17 4.44-.24 1.42-.64 2.78-1.11 4.03-.93 2.52-2.12 4.66-3.17 6.4-1.05 1.74-1.94 3.13-2.41 4-.25.43-.36.73-.38.84-.03.07-.01.07-.01.07l-5.81-1.86.09-.22c.06-.15.15-.38.27-.57.23-.45.56-.93.94-1.44.76-1.05 1.82-2.25 2.95-3.75 1.11-1.49 2.34-3.24 3.27-5.23.46-1 .84-2.05 1.11-3.14.26-1.07.39-2.24.37-3.27.01-.23-.03-.59-.05-.91-.01-.22-.08-.5-.11-.74-.11-.5-.26-.98-.47-1.44-.41-.91-1.01-1.75-1.75-2.45-1.48-1.43-3.42-2.31-5.1-2.9-1.7-.6-3.23-.85-4.27-1.01-.53-.08-.94-.11-1.22-.13l-.4-.03.26-3.77z"/><path fill="#D0D2D3" d="M178.613 140.5s-2.414 2.292-.362 5.792c2.06 3.5-1.08 3.742.49 4.707 1.57.96 3.14-.49 3.14-2.06 0 0-1.57 5.91-.48 6.52 1.09.6 3.14 1.32 4.35-4.71 0 0 .61 3.98-.84 4.71 0 0 3.14.6 3.5-3.26.37-3.87-2.41-12.68-6.39-12.8"/><path fill="#FFF" d="M128.407 139.242l-1.565-.448c-1.008-.276-2.458-.656-4.208-1.056-3.485-.784-8.238-1.71-12.82-1.75-1.124.026-2.26.054-3.27.25-1.004.176-1.962.444-2.558.846-.62.395-.882.783-1.038 1.253-.014.14-.037.27-.07.4-.044.124.01.315 0 .463-.025.297.06.654.132.992.037.327.175.676.29 1.003.115.326.197.635.357.935.294.593.487 1.115.76 1.54l.768 1.336.08.138c.632 1.1.252 2.505-.848 3.137-1.1.64-2.504.26-3.136-.84l-.02-.04-.87-1.59c-.29-.48-.56-1.18-.9-1.93-.18-.36-.31-.82-.46-1.28-.15-.46-.31-.94-.39-1.52-.1-.56-.21-1.14-.18-1.83.02-.34-.03-.66.05-1.04.07-.37.15-.74.24-1.12.46-1.54 1.69-2.95 3.04-3.71 1.37-.8 2.76-1.1 4.11-1.32 1.36-.22 2.68-.22 3.99-.22 5.2.17 10.06 1.26 13.68 2.15 1.81.45 3.3.88 4.35 1.19 1.05.32 1.65.51 1.65.51.99.31 1.55 1.36 1.24 2.35-.3.98-1.33 1.53-2.31 1.26l-.05-.02z"/><path fill="#D0D1D2" d="M162.26 136.922l.242-.178c.154-.107.38-.265.67-.465.58-.39 1.415-.93 2.475-1.49 1.06-.56 2.33-1.17 3.814-1.65 1.48-.48 3.18-.83 5.02-.71.92.08 1.87.24 2.76.63.46.15.87.43 1.29.65.38.28.8.53 1.11.85.34.31.67.62.93.96l.41.49.33.51c.23.34.43.67.58 1 .16.32.35.64.45.95.51 1.23.78 2.27.94 2.98l.24 1.13c.27 1.24-.53 2.46-1.77 2.73s-2.46-.53-2.73-1.77l-.03-.19-.02-.14-.11-.92c-.07-.59-.22-1.41-.5-2.31-.05-.24-.16-.44-.25-.68-.08-.24-.19-.46-.31-.68l-.17-.35-.21-.31c-.13-.23-.3-.41-.47-.6-.16-.22-.37-.34-.55-.53-.22-.13-.41-.32-.66-.42-.46-.27-1.01-.41-1.6-.52-1.18-.2-2.53-.07-3.79.22-1.26.28-2.44.72-3.43 1.14-.99.42-1.79.84-2.35 1.15l-.63.36-.2.12-.04.02c-.59.36-1.36.17-1.71-.42-.33-.55-.18-1.27.33-1.65z"/><g fill="#FFF"><path d="M102.723 69.816l-.652-.15-2.63 1.47-.16.728 1.45 2.004c.36.547.33.974-.11 1.425l-1.21 1.244c-.28.292-.49.234-.82-.09l-5.76-5.595 1.42-1.46.37.358.71-.01 1.72-1.762-.01-.707-7.98-7.75-.71.01-4.73 4.87-.74-5.32c.18-.29.33-.65.16-1-.1-.19-.33-.42-.93-.42h-.01l-3 .34-.44.51.01.61-3.87 3.99-.22-.49c.16-.27.27-.61.11-.93-.1-.19-.33-.43-.89-.43l-.28.09-2.53 1.77-.13.67c2.22 3.61 3.23 7.46 3.04 11.45l-5.64-5.48-.71.01-6.34 6.53.01.71 19.17 18.62.71-.01 1.71-1.76-.01-.7-1.1-1.06 4.28-4.41-.01-.71L75.59 76.9l1.47.296.597-.447.085-1 5.98 5.81.708-.01 1.713-1.77-.01-.71-.678-.66 1.808-1.87c2.657 4.79 2.49 9.39-.51 14.03l.29.75 3.18.87.56-.23c3.556-5.89 3.298-12.04-.764-18.28l.07-.08 6.79 6.6c1.37 1.33 2.82 1.34 4.08.05l2.92-3.01c1.99-2.05 1.42-3.82.6-4.94l-1.78-2.52zM73.79 84.414l2.225-2.29 4.88 4.743-2.224 2.29-4.88-4.743zm-7.566-7.353l2.224-2.28 4.88 4.74-2.224 2.29-4.88-4.74zm13.637-4.08l2.68-2.75 2.81 3.56-2.26 2.34L79.87 73zm-.17-10.18l.8 4.8-2.99 3.08c-.17-1.18-.58-2.62-1.23-4.34l3.42-3.52zm12.17 4.3l-3.89 4-2.81-3.55 3.48-3.57 3.22 3.13zm34.88.27l.11-11.86 11.21.1.51-.49.03-3.18-.49-.5-11.21-.1.07-7.62c.31-.22.7-.6.61-1.09-.11-.6-.86-.76-1.24-.83l-3.18-.03-.5.5-.22 25.08-12.51-.11-.5.5-.03 3.18.5.5 31.36.28.51-.49.03-3.18-.49-.5-14.53-.13zm61.9 8.66l-.48-.51-.61-.02-8.65-9.23-.7-.02-2 1.88-.02.71 6.82 7.27-4.14.41-.42-.6-.75-.08-4.06 3.81-4.9-5.22-.7-.02-2.01 1.88-.02.71 4.9 5.23-7.02 6.58h-.11l-1.88-2-.78.07-1.82 2.7.05.62 2.47 2.64c.47.5 1.01.75 1.6.75.73 0 1.47-.37 2.29-1.14l7.86-7.37 4.9 5.23.71.02 2.01-1.88.02-.71-4.9-5.22 2.76-2.58 7.79.25c.66.54 1.16.56 1.48.22.25-.26.26-.64.24-.87l.11-3.47z"/><path d="M161.834 82.264c-.07-1.764-.173-3.47-.306-5.074 2.93-1.13 6.65-3.472 11.065-6.968l.71-.153.385-.59-.61-3.19-.598-.4-.548.12-1.76-1.88c1.4-.87 2.796-1.78 4.153-2.71.604.04.94-.09 1.112-.4.098-.18.162-.47-.104-.9l-1.76-2.51-.703-.12c-1.73 1.25-3.538 2.52-5.386 3.76l-2.477-2.65-.707-.02-2.003 1.88-.023.7 2.065 2.2c-3.23 2.11-6.61 3.93-10.05 5.42l-.27.63 1.03 2.79.68.28 1.08-.5c.24 1.33.34 2 .37 2.32-2.45.23-5.39-.09-8.76-.96l-.62.41-.52 3.25.38.56c3.55.83 6.82 1.07 9.75.71.06 1.16.06 2.68 0 4.53l.59.51 3.39-.61.41-.51zm-1.752-11.868c1.128-.63 3.405-1.997 6.922-4.158l1.815 1.937c-2.92 2.232-5.63 3.908-8.07 4.99-.22-1.114-.44-2.027-.67-2.77z"/></g></svg>