<svg xmlns="http://www.w3.org/2000/svg" width="250" height="250" viewBox="0 0 250 250"><path opacity=".15" fill="#050505" d="M132.06 61.954c-1.913-1.358-3.897-2.567-5.93-3.613.42-.89.782-1.8 1.09-2.73l5.51-.2 2.718-2.92-.203-5.6-.92-.85L134 37l-2.92-2.714-10.776.388c-.027-.275-.08-.553-.16-.83-.544-1.86-2.153-3.083-4.307-3.276l-.11-.01-.317-.006-4.31.155-2.717 2.92.054 1.48-10.96.394-2.717 2.91.325 9.04-.856.92.2 5.61 2.91 2.72 3.52-.13-.98 1.42.72 3.62c-.21.02-.43.04-.64.05l-1.53.11-2.63 3.45.13.65-2.29-3.22-3.63-.81-.93.53-.02-.79-10.24-9.85-3.99.08-.44.46-.03-.05c-.79-1.54-2.37-2.46-4.23-2.46h-.21l-4.62.57-2.44 2.81.01.39-.09.1c-.38-.09-.77-.13-1.18-.13h-.54l-1.47.48-4.09 2.9-.76 3.75.7 1.14c.12.2.23.39.34.59l-2.27.05-8.41 8.74.07 3.98L67 96.05l3.99-.08 3.686-3.83-.01-.503 4.142 1.12 3.05-1.23.58-.97c1.87-3.13 2.87-6.37 3.01-9.66.83.31 1.57.41 2.17.41 1.21 0 3.01-.37 4.71-2.13l2.98-3.1c1.23-1.28 1.99-2.706 2.28-4.158l2.655 1.87 1.32-.19c7.01-.98 12.68-2.93 16.89-5.79 1.957 1.04 3.99 2.35 6.067 3.91l1.057.79 3.76-.39 4.43-5.03-.49-4.23-1.22-.87z"/><circle opacity=".15" fill="#050505" cx="131.833" cy="139.749" r="82.917"/><path fill="#FFF" d="M125 221.967c-48.065 0-87.168-39.104-87.168-87.168 0-48.07 39.104-87.17 87.168-87.17 48.064 0 87.168 39.1 87.168 87.17 0 48.06-39.104 87.16-87.168 87.16z"/><linearGradient id="a" gradientUnits="userSpaceOnUse" x1="124.999" y1="78.627" x2="124.999" y2="270.061"><stop offset="0" stop-color="#1B1440"/><stop offset=".819" stop-color="#ED1E79"/></linearGradient><circle fill="url(#a)" cx="125" cy="134.799" r="83.168"/><path fill="#FFF" d="M116.684 205.94s-.505 9.288 16.496 11.622c8.195-.8 16.037-2.8 23.36-5.803 2.468-2.36 3.606-4.98 3.135-7.1-1.28-5.76-42.99 1.28-42.99 1.28z"/><path fill="#FFF" d="M120.688 217.855c1.428.074 2.865.11 4.312.11 5.3 0 10.474-.517 15.496-1.462l.05-5.127-21.208-.768 1.35 7.247z"/><path fill="#D0D1D2" d="M120.937 201.4s-.41 7.496 13.35 9.344c13.763 1.85 22.183-5.75 21.155-10.37-1.027-4.622-34.505 1.026-34.505 1.026z"/><path fill="#FFF" d="M153.02 181.244c-7.257-6.006-4.126-29.557-4.126-29.557l-24.245 1.908s8.41 15.557 1.24 31.232c-7.36 16.084-9.14 20.053 16.37 18.426 4.83-.705-3.51-1.06 1.02-2.56 15.65-7.916 15.54-14.638 9.72-19.45z"/><path fill="#D0D1D2" d="M145.172 157.04s-2.757 16.083 7.12 26.65c9.88 10.563-15.85 14.93-15.85 14.93l-6.948-12.407s5.57-18.604.746-27.563l14.932-1.61z"/><path fill="#1F4AB5" d="M126.31 162.9l10.565 4.024 2.808 40.615-24.807-.14"/><path fill="#1F4AB5" d="M150.26 161.512l-9.572 5.1-1.79 40.697 23.79.09M133.156 75.11s-40.464 46.254-18.968 94.365l-11.516 2.045s-37.49-37.873-23.16-71.652"/><path fill="#0F3C96" d="M78.554 108.888s-.192 33.78 25.334 54.506l5.374.193 2.88-.18-2.304-8.65s-23.223-49.9-31.284-45.87z"/><g fill="#6593EF"><path d="M116.46 172.322c-.137-.64-.63.217-.448-.586l-.117.184c.05-.383.084-.77.084-1.168 0-.06-.01-.115-.01-.172.07-.182.03-.465-.04-.723-.04-.428-.13-.842-.23-1.248l.12-.01c-.08-.05-.14-.15-.19-.25-.03-.09-.05-.19-.08-.28 0-.07.02-.13.06-.17.3-.05.27.48.36.69-.21-.93.36-1.18-.21-1.87l-.03.17c-.49-.35-.36-1.02-.6-1.43.12.08.24.03.26-.06-.83-.7-1.29-1.67-2.37-2.26l-.07-.51-.17.2c-.53-.27.12-.4-.22-.59.13.07.08.09.07.16-.45-.6-.47.01-.76-.24.02.32.59.43.24.66-.42-.56-1.4-.93-1.26-1.53-.67-.07-1.33-.36-2-.57-.69-.15-1.36-.34-1.92-.4-.15.12.09.08.03.17-.45-.33-1.43.39-1.46.07-.2.11-.24.36-.28.45-.3-.15-.63-.08-.98-.04l.27.02-.02.05-.38-.02V161c-.42.1-.9.19-1.33.37-.42.19-.85.34-1.3.39.52-.04.1.39.36.4-.65-.31-1.43.37-2.02.92.08.074.09.18.22.18 0 0-.5.134-.49.153l.13.04c-.42.69-1.53 1.01-1.59 1.655.22-.27.31-.205.48-.13-.31.493-.57.972-1.04 1.52.04-.02.09-.03.12-.01-.06.17-.25.32-.36.48l.23.11c-.22.29-.23.76-.55 1.11.18.2-.47.94-.39 1.464-.08.18.34-.37.27.14-.57.03-.08.67-.69.696-.02 0 .22.48.23.47l-.3.11c.6.37-.2.64.05 1.24.06-.04.07-.11.12-.082-.04.2-.03.66-.22.34-.03.34.24 1.43.38.88-.16.07-.15-.4-.14-.6.26-.03.3.45.61.49-.03.02-.05.09-.08.14l.17.02c-.08.64.23 1.17.12 1.69.08-.01.19.052.27.24l-.29.16.32.57.27-.495c.39.56.18 1.28.53 1.78.52-.24.55 1.07 1.3 1.05-.01.01-.23-.4-.22-.41.62.74.98.55 1.54 1.26-.7-.33-.62-.39-1.79-.82 1.02.55 1.29 1.61 2.44 1.81 0-.15-.19-.34.1-.34.04.35.85.45.58.68.34.05.5-.19.69-.16l.89.7-.02-.07c.98-.03 1.75.14 2.6.4.42.16.85.25 1.3.25.45.02.91-.01 1.36-.15l-.07-.16c0 .02.51.17.51.15-.39-.06.11-.25.09-.41l1.25.01c-.03-.15-.21-.45-.46-.31.36-.3.94-.08 1.29-.27l-.18-.08.4-.07-.1-.19c.61-.23 1.22-.76 1.57-.66l-.26-.24.7-.21-.45.06c.55-.52 1.6-1.08 1.67-1.26l-.14-.03c.03-.14.15-.15.27-.23l-.21-.05c.38-.42.54-.76.7-1.09.13-.36.25-.73.64-1.23.12-.32-.15.14-.25.1-.05-.24.28-.54.41-.6-.33-.03-.48.44-.52 0 .26-.17-.34.05-.07-.34 0 .01.42-.02.42-.02.02-.28-.27-.16-.11-.54.3-.4.24.72.53-.02.07-.41-.56-1.01-.28-1.66zm-18.927 3.192l-.106-.25c.103.105.275.132.106.25zm.842-1.192c-.047-.168-.1-.2.1-.258.056-.11-.088-.2-.032-.31.268.254-.047.348-.068.568zm17.123-6.45c.01-.02.038-.028.04-.052-.004.057 0 .115.004.172-.012-.04-.03-.078-.044-.12zm-.307-1.32c-.02.222.62.628.32.964.01-.004-.18-.453-.2-.443.04.184.08.36.09.525-.11-.297-.23-.588-.38-.87.03-.054.07-.12.18-.175zm-.75-1.28c0-.167-.18-.382-.02-.522.43.135.29.504.41.72l-.17-.044c.07.29.03.47-.02.61-.04-.064-.07-.128-.11-.19.01 0 .02-.01.03-.01-.21-.333-.52-.84-.43-1.226.35.076.19.69.34.663zm-.88-1.46l-.06.313-.24-.227.31-.087zm-.11.56c.07.12.13.237.19.356-.28-.313-.58-.615-.91-.885-.05-.164-.09-.338-.3-.39v.157c-.09-.068-.18-.14-.27-.203 0-.033-.02-.104-.08-.252.53.283.99.74 1.39 1.216zm-3.29-2.106l.13-.098.18.074-.3.024zm-1.23-.41c.07.062.14.132.2.198-.28-.068-.57-.123-.86-.164-.02-.023-.05-.045-.08-.07.22-.226.49-.154.74.037zm-2.15-.567c.35-.38 1.05.69.89-.24.15.12.6.4.42.54-.37-.07-1.09-.11-1.35.13.02-.06.01-.13-.03-.19.15.04.36-.02.46-.08-.05-.15-.28-.11-.37-.18zm-.97.52c.03.02.07.03.1.06-.17.02-.35.05-.52.08.09-.1.33-.13.42-.14zm-3.32-.06l.2.02c-.31.32-.18.1-.19-.02l-.23-.02c.18-.08.23-.05.24.02zm.04.35c-.19.13-.7.46-.64.4-.05-.19.46-.44.64-.41zm-.41 1.15l-.01.01c-.12-.01-.23-.04-.27-.15.27-.06.22.08.29.13zm-2.05 1.43c.32-.12.11-.24.18-.4l.14.27c-.4.22-.55.13-1.05.19.18-.46.62-.25.73-.08zm-.85-.26c-.03.28.28.56-.26.56l.26-.56zm-1.01 7.8l.06.36c-.08 0-.16.01-.3 0 .13-.12.2-.25.24-.37zm.29 4.25c-.02-.13-.04-.2-.1-.27-.08.12-.11.45-.24.31.06-.2-.11-.6.07-.71-.01.45.62.35.28.66zm.55-1.29c.08-.07.11-.15.11-.22.02.04.05.08.07.12-.03.04-.07.09-.17.1zm1.67 3.06l.06-.2.08.03-.18-.32c.52.08.45.66.59.89-.15-.15-.28-.87-.54-.41zm1.39-.05l.05.03-.01.04c-.02-.02-.02-.05-.04-.08zm1.52 2.19c.23.23.45-.11.57.33-.37.22-.46-.16-.57-.33zm.85.09c.46.02-.12-.4.19-.42l-.22-.04c.41-.13.19.33.46.34l-.18-.01c-.18.17.23.22.23.4-.22.03-.65-.28-.47-.27zm4.23-.74c.06-.05-.03-.15-.16-.2.14-.03.28-.05.42-.08.01.11-.14.12-.25.27zm4.82-1.23c.1-.31.16-.28.34-.35.02.1-.15.27-.34.34zm.43-.17c.19-.46.47-.06.68-.25-.11.42-.38.06-.67.24zm1.6-4.65c-.02.01-.04 0-.06 0 .03-.09.07-.17.09-.25.04.01.07.04.09.11l-.11.13zm.98-4.56c-.01.26-.21.23-.07.5l.07-.5z"/><path d="M116.146 169.398l-.03-.27-.122.27m-19.086 4.152l-.133-.017c.054.13.097.088.133.018zm.092-5.24c.02-.022.03-.036.047-.054-.03-.03-.077-.055-.147-.068l.1.12zm.07 7.262c.07-.11.11-.215.136-.313-.098.01-.17.13-.137.31zm.343-8.79c.05-.085.116-.15.175-.226-.075.034-.173.1-.175.227zm6.77-5.76l-.01.03.12-.026"/></g><path fill="#FFF" d="M131.25 168.506l-.422.674c-.27.436-.706 1.098-1.162 1.887-.95 1.568-2.293 3.975-3.847 6.877-1.57 2.908-3.35 6.363-5.46 10.06-1.05 1.847-2.19 3.755-3.5 5.665-1.31 1.9-2.73 3.84-4.6 5.65l-1.51 1.31c-.57.41-1.14.82-1.75 1.2-1.29.71-2.74 1.36-4.41 1.54-.41.04-.82.09-1.23.11l-1.24-.1c-.85-.04-1.58-.3-2.33-.53-1.46-.51-2.71-1.24-3.75-2.03-2.11-1.58-3.64-3.33-4.91-5-1.31-1.67-2.33-3.31-3.26-4.82-1.8-3.04-3.08-5.61-3.94-7.42l-1.34-2.85 7.6-3.25 1.14 2.71c.73 1.72 1.83 4.15 3.3 6.91.76 1.35 1.59 2.81 2.57 4.19.96 1.39 2.09 2.72 3.27 3.69 1.21 1 2.28 1.42 3.29 1.34 1.03-.03 2.46-.77 3.84-2.01 1.38-1.22 2.69-2.81 3.91-4.45 1.23-1.65 2.37-3.38 3.44-5.11 2.15-3.44 4.07-6.81 5.78-9.69 1.7-2.89 3.16-5.27 4.29-6.98.55-.86.98-1.46 1.28-1.89l.45-.66 4.44 2.93z"/><ellipse transform="rotate(90.11 133.59 123.97)" fill="#FFF" cx="133.589" cy="123.967" rx="37.279" ry="46.525"/><ellipse transform="rotate(84.65 133.84 124)" fill="#D0D1D2" cx="133.836" cy="123.996" rx="31.373" ry="41.126"/><ellipse transform="rotate(90.47 156.05 121.15)" fill="#FFF" cx="156.052" cy="121.152" rx="17.431" ry="17.684"/><ellipse transform="rotate(90 117.69 122.56)" fill="#FFF" cx="117.707" cy="121.588" rx="19.561" ry="19.691"/><path fill="#919396" d="M95.826 102.162c.01-.012-5.998 8.136-6.138 10.87l-1.245-2.23s-9.338-14.677 7.383-8.64z"/><path fill="#D0D1D2" d="M100.103 99.843s-9.04-6.49-15.365-2.837c0 0-8.255 6.424 2.348 17.858l2.56 3.074s2.123-1.44 1.837-4.755c0 0-12.226-14.933 5.414-9.474 0 0 2.885-.09 3.206-3.87z"/><path fill="#919396" d="M169.824 102.162c-.01-.012 5.998 8.136 6.14 10.87l1.243-2.23s9.338-14.677-7.383-8.64z"/><path fill="#D0D1D2" d="M165.55 99.843s9.038-6.49 15.364-2.837c0 0 8.255 6.424-2.35 17.858l-2.558 3.074s-2.124-1.44-1.84-4.755c0 0 12.228-14.933-5.412-9.474 0 0-2.885-.09-3.205-3.87z"/><path fill="#0071BC" d="M114.88 107.443c7.856-1.44 15.39 3.764 16.83 11.62 1.44 7.855-3.76 15.39-11.616 16.828-7.856 1.45-15.39-3.76-16.83-11.61-1.44-7.85 3.76-15.39 11.615-16.83z"/><path fill="#0F4481" d="M113.52 111.94c4.035-.738 7.906 1.934 8.645 5.97.74 4.034-1.932 7.905-5.967 8.64-4.036.743-7.907-1.93-8.645-5.963-.74-4.037 1.93-7.908 5.968-8.646z"/><circle fill="#FFF" cx="116.527" cy="118.94" r="3.948"/><circle fill="#FFF" cx="107.498" cy="119.556" r="1.922"/><circle fill="#0071BC" cx="153.564" cy="120.017" r="12.923"/><path fill="#0F4481" d="M150.02 111.327c3.607-.663 7.065 1.724 7.727 5.33.66 3.606-1.727 7.063-5.334 7.727-3.604.66-7.063-1.726-7.723-5.33-.662-3.61 1.724-7.066 5.33-7.727z"/><circle fill="#FFF" cx="152.705" cy="117.58" r="3.529"/><circle fill="#FFF" cx="144.636" cy="118.132" r="1.717"/><path fill="#D0D1D2" d="M138.69 132.11s-19.448-6.524-32.69 10.75l18.328 3.933 15.834-6.813-1.472-7.87z"/><path fill="#6D6F71" d="M130.813 139.105c.195-.053.373 1.37 1.663 2.943.596.807 1.694 1.492 2.9 1.55 1.202.067 2.553-.608 3.208-1.813l.26-.588.21-.936c.122-.56.245-1.13.367-1.68.8 4.1 1.45 4.03 2.32 4.28.2-.04.4-.03.6-.19.21-.11.42-.22.57-.4l.25-.24.18-.29c.14-.18.23-.38.3-.6.63-1.83.32-3.24.53-3.24.07-.01.2.31.3.91.1.6.17 1.5-.13 2.59-.31.97-1.05 2.14-2.57 2.36-.78.01-1.44-.45-1.89-.98-.12-.13-.23-.27-.32-.43l-.08-.13c-.01.03.03-.04-.03.07-.84 1.54-2.56 2.37-4.09 2.25-.77-.04-1.47-.32-2.05-.68-.59-.34-1.04-.82-1.39-1.31-1.29-1.88-1.16-3.41-1.07-3.39z"/><path fill="#0B8ECC" d="M139.602 133.25s-2.06-4.205-4.86 3.21l4.66 4.01 4.073-3.647c0-.003-2.614-6.884-3.873-3.573z"/><path fill="#FFF" d="M135.682 136.396l2.006 1.713s-.448-2.5-2.006-1.72zm5.542 1.74l1.42-1.14s-1.044-.516-1.42 1.14z"/><path fill="#D0D1D2" d="M95.188 129.553s15.322-10.205 43.056-11.835l-7.294-20.73-14.01 1.857-12.027 4.86-6.142 7.935-3.58 17.913z"/><path fill="#D0D1D2" d="M141.762 99.868l-3.71 18.233s18.232-1.4 36.21 6.08l-.32-5.69s-1.344-8.15-3.84-9.79c-2.495-1.63-19.447-12.67-28.34-8.83z"/><path fill="#6593EF" d="M140.482 76.326s4.86-1.792 6.142 5.117 10.236 2.815 14.33 11.26c0 0 .608 1.695-.83 2.08s-28.087-8.605-73.38 31.188c-.216.19 0 0 0 0s-5.886 1.79-4.607-6.91c1.28-8.7-6.717-7.99-2.624-12.85 3.93-4.66 34.545-26.09 58.06-29.53.984-.14 1.954-.26 2.91-.34z"/><path fill="#1F4AB5" d="M142.273 78.117s-2.56-8.19-11.516-6.91c-8.956 1.28-49.133 9.47-52.204 32.5 0 0 1.792 5.117 3.327 5.374 1.537.26 60.393-30.96 60.393-30.96z"/><path fill="#6D6F71" d="M132.602 139.24c0-.002-.25.01-.592.053-.174 0-.37.043-.574.078-.21.01-.403.1-.612.14-.16.13-.394.13-.53.26-.12.14-.336.18-.42.32-.2.25-.41.43-.41.43l-.035.03c-.06.05-.15.04-.2-.02-.03-.02-.04-.06-.04-.09 0 0 .01-.26.15-.68.05-.21.25-.4.44-.61.19-.2.47-.33.74-.46.27-.05.56-.14.82-.14.26 0 .5.02.7.06.4.08.64.21.64.21l.01.01c.11.07.16.22.09.33-.05.08-.12.12-.2.13zm7.314 7.242c-.002 0 .256-.086.6-.234.183-.055.375-.156.578-.258.217-.074.395-.23.6-.34.133-.176.374-.26.475-.44.08-.185.29-.302.33-.478.12-.326.27-.578.27-.578l.02-.037c.04-.064.12-.086.19-.047.03.02.05.055.06.09 0 0 .06.283.04.754 0 .236-.14.488-.27.76-.14.268-.38.48-.62.697-.27.15-.53.33-.8.41-.27.09-.52.15-.74.17-.44.06-.73 0-.73 0h-.02c-.13-.02-.22-.15-.19-.28.02-.09.08-.15.16-.18z"/><circle fill="#FFF" cx="84.951" cy="70.182" r="1.271"/><circle fill="#FFF" cx="160.698" cy="81.443" r="1.271"/><circle fill="#FFF" cx="62.021" cy="112.549" r="1.271"/><circle fill="#FFF" cx="62.021" cy="142.549" r="1.271"/><circle opacity=".3" fill="#FFF" cx="175.029" cy="86.562" r="1.588"/><circle opacity=".3" fill="#FFF" cx="129.99" cy="60.714" r="1.588"/><circle opacity=".3" fill="#FFF" cx="51.751" cy="131.215" r="1.589"/><circle opacity=".3" fill="#FFF" cx="79.084" cy="148.883" r="1.589"/><path fill="#FFF" d="M73.623 167.416c12.376 9.244 4.348-3.025 2.08-7.373-2.647-5.104 1.89-8.127 5.86-3.97 2.834 3.024 4.442 9.735 5.576 13.515 0 0 8.04-10.252 11.62-5.67 1.51 1.938 1.51 4.82-1.33 5.576-3.68 1.002-5.29 1.566-6.13 5.076 1.49 4.387-.28 6.33-2.85 7.848-2.16 1.273-4.74 2.672-7.66.877-.79-.53-1.29-1.303-1.68-2.11l-.02.03-.11-.297c-.38-.848-.91-2.414-.91-2.414-.96-2.248-2.02-3.342-5.41-3.904-2.84-.566-7.38-.38-8.7-3.78-1.89-5.484 5.86-6.23 9.64-3.404z"/><path fill="#D0D1D2" d="M87.14 169.588s-1.89 2.223-3.426 7.87c0 0 .92-4.796.542-4.94 0 .002.946-1.89 2.884-2.93"/><path fill="#1F4AB5" d="M132.294 168.463l-.353.623c-.21.396-.59 1.023-.96 1.734-.76 1.404-1.86 3.61-3.13 6.25-1.29 2.705-2.8 5.86-4.41 9.24-1.71 3.428-3.56 7.123-6.17 10.86-1.33 1.862-2.83 3.76-4.95 5.54-1.07.885-2.32 1.738-3.83 2.414-1.5.662-3.29 1.164-5.12 1.186-.46.012-.91.01-1.37-.002-.44-.035-.87-.11-1.31-.182-.43-.076-.86-.16-1.29-.252-.39-.117-.76-.252-1.14-.387-.76-.27-1.51-.566-2.1-.916-.6-.33-1.28-.68-1.79-1.05-1.02-.73-2.03-1.48-2.77-2.21l-1.16-1.09-.97-1.06c-.31-.34-.62-.69-.92-1.02-.26-.33-.52-.66-.77-.97-.49-.63-1-1.24-1.39-1.81-.77-1.13-1.51-2.13-2.01-2.95l-1.61-2.57 14.01-7.21 1 2.23c.31.72.74 1.48 1.21 2.43.23.48.51.89.78 1.38l.43.73.46.67c.16.23.32.47.48.71l.48.61c.33.47.64.73.95 1.08.61.56.88.73.89.85 0 .15.55.24 1.58-.38 1-.57 2.2-1.64 3.35-2.86 2.33-2.49 4.54-5.65 6.58-8.65l5.58-8.49c1.67-2.54 3.09-4.61 4.2-6.13.54-.77.95-1.26 1.23-1.65l.43-.57 5.95 3.93z"/><path fill="#0F3C96" d="M126.343 164.535l2.274 3.42 3 .25-2.125 3.75 9.425 11.885-2.073-18.354-10.535-2.586m24.16.368l-1.61 4.187-3.06.656 2.12 3.75-8.98 11.98 1.7-18.66 9.59-3.65"/><path fill="#E53017" d="M187.436 189.71c-3.606-6.903-14.584-24.114-29.936-13.327 0 0-19.833 2.303-30.453 14.842 0 0-5.117-.254-5.245 1.408-.085 1.11 7.81 14.584 16.495 24.264 19.47-3.13 36.67-13.02 49.14-27.186z"/><path fill="#AF1E0B" d="M157.31 176.408c-.9.12-5.003.725-10.17 2.4 4.484 4.367 14.497 14.88 20.863 27.19 2.75-1.667 5.384-3.5 7.915-5.462-4.998-7.946-12.69-19.304-18.61-24.128z"/><path fill="#1F4AB5" d="M182.82 193.963c-.303-.84-.61-1.697-.926-2.57-.57-1.748-1.435-3.496-2.226-5.27-.37-.896-.905-1.75-1.37-2.623-.5-.863-.92-1.754-1.492-2.588-1.104-1.68-2.197-3.348-3.502-4.87-.61-.778-1.236-1.536-1.947-2.23-.696-.698-1.33-1.417-2.053-2.056-.734-.623-1.46-1.236-2.166-1.836-.72-.586-1.52-1.076-2.248-1.586-.715-.52-1.503-.938-2.266-1.33-.77-.39-1.457-.813-2.243-1.072l-2.17-.807c-.73-.19-1.43-.342-2.08-.488-.33-.068-.64-.135-.95-.197-.36-.03-.7-.063-1.03-.09-.66-.05-1.27-.078-1.81-.096-.3-.02-.48.002-.64.025-.17.02-.33.03-.48.05l-.76.09c-.41.05-.21.87-.21.87l-.1 6.33s.22.01.64.02c.21 0 .47.01.77.02l.49.01c.19 0 .37.01.45.06.23.08.47.16.73.23l.41.09.55.23 1.21.48 1.31.75c.46.21.9.62 1.37.95.47.33.95.68 1.4 1.15.45.45.95.84 1.4 1.35l1.35 1.56c.45.53.84 1.17 1.27 1.75.44.58.82 1.23 1.19 1.89.8 1.27 1.43 2.7 2.08 4.11.34.69.55 1.46.84 2.18.26.74.57 1.43.75 2.19.4 1.5.87 2.92 1.1 4.41l.42 2.13c.14.69.18 1.41.27 2.08.16 1.35.35 2.61.36 3.83l.06 1.25c4.47-2.93 8.64-6.28 12.46-9.99-.05-.15-.09-.31-.14-.46z"/><path fill="#D0D1D2" d="M127.59 194.775c-2.558-2.56-6.044.096-6.044.096-9.596 5.64 7.805 14.78 7.805 16.96s4.1 2.82 4.1 2.82.74 1.1 1.85 2.67c3.54-.43 7.01-1.07 10.4-1.94-6.43-8.18-16.36-18.85-18.1-20.59z"/><path fill="#FFF" d="M62.052 102.868s-.164-1.877-.57-2.313c-.413-.435-2.29-.706-2.29-.706s1.905-.19 2.34-.61c.422-.41.666-2.27.666-2.27s.153 1.86.553 2.29c.42.44 2.31.72 2.31.72s-1.83.14-2.26.54c-.44.41-.74 2.33-.74 2.33zm2.208 35.054s-.256-2.947-.895-3.63c-.647-.685-3.592-1.11-3.592-1.11s2.99-.295 3.672-.955c.663-.645 1.046-3.553 1.046-3.553s.24 2.922.87 3.6c.65.695 3.62 1.14 3.62 1.14s-2.88.222-3.55.843c-.7.655-1.16 3.665-1.16 3.665zm87.974-64.68s-.258-2.946-.896-3.63c-.646-.683-3.592-1.11-3.592-1.11s2.988-.293 3.672-.953c.662-.65 1.045-3.56 1.045-3.56s.24 2.92.87 3.6c.647.69 3.62 1.14 3.62 1.14s-2.885.22-3.554.84c-.71.65-1.17 3.66-1.17 3.66z"/><path fill="#0F3C96" d="M124.587 170.615l.08-.316 1.268-5.23-.025.03c-.286.38-.69.88-1.233 1.65-1.113 1.52-2.53 3.59-4.206 6.13l-.03.06c1.04 3.55.32 12.6.32 12.6l3.84-14.94zm28.35 1.31s-3.187-.814-3.624-.064.313 6.44.313 6.44l5.063-.87-1.76-5.5z"/><path fill="#FFF" d="M46.583 72.573l-.077-3.985 8.41-8.743 2.268-.045c-.11-.194-.228-.39-.347-.582l-.705-1.137.76-3.75 4.09-2.89 1.467-.48h.54c.41 0 .8.05 1.18.13l.09-.09-.01-.39 2.44-2.81 4.61-.56h.2c1.85 0 3.43.92 4.22 2.46.01.02.01.03.02.05l.44-.46 3.98-.08 10.24 9.85.02.8.93-.52 3.63.82 2.58 3.65c2.26 3.03 1.91 6.8-.95 9.77l-2.98 3.1c-1.7 1.77-3.5 2.14-4.71 2.14-.6 0-1.35-.09-2.17-.4-.14 3.28-1.14 6.53-3.01 9.66l-.58.97-3.05 1.23L76 89.13l.01.5-3.685 3.83-3.985.08-21.78-20.95z"/><linearGradient id="b" gradientUnits="userSpaceOnUse" x1="67.286" y1="56.645" x2="82.459" y2="91.207"><stop offset="0" stop-color="#1B1440"/><stop offset=".819" stop-color="#ED1E79"/></linearGradient><path fill="url(#b)" d="M93.003 63.123l-1.102-.247-2.69 1.52-.27 1.23 1.49 2.037c.29.43.27.696-.07 1.05l-1.23 1.283c-.06.067-.1.09-.1.097-.02-.007-.11-.043-.27-.194l-5.69-5.48.99-1.03.14.13 1.19-.03 1.75-1.82-.02-1.2-8.23-7.92-1.19.02-4.36 4.53-.68-4.67c.18-.32.35-.79.11-1.25-.12-.24-.43-.62-1.22-.62l-3.13.38-.74.85.01.49-3.4 3.53c.09-.27.12-.59-.05-.91-.11-.23-.42-.62-1.22-.62l-.47.16-2.58 1.83-.23 1.13c2.12 3.41 3.17 7.03 3.14 10.79l-5.27-5.07-1.19.02-6.47 6.73.03 1.19L69.7 90.11l1.19-.02 1.748-1.82-.024-1.19-.89-.854 4.144-4.307-.027-1.19-9.86-9.49.42.08 1-.76.03-.33 5.67 5.45 1.19-.03 1.75-1.82-.03-1.18-.46-.45 1.31-1.36c2.46 4.65 2.25 9.13-.65 13.66l.49 1.27 3.27.88.95-.39c3.35-5.61 3.41-11.42.19-17.3l5.5 5.29c1.55 1.48 3.25 1.48 4.66.01l2.98-3.1c2.19-2.28 1.54-4.25.62-5.49l-1.83-2.59zM63.6 78.427l1.813-1.884 4.555 4.38-1.812 1.883-4.555-4.38zm-7.798-7.502l1.812-1.884 4.554 4.38-1.812 1.89-4.554-4.38zm13.966-4.257l2.243-2.332 2.49 3.11-1.88 1.958-2.84-2.736zm-.208-5.637l-2.484 2.59c-.215-1.06-.585-2.27-1.115-3.68l2.9-3 .71 4.1zm11.544-.45l-3.477 3.62-2.484-3.11 3.116-3.24 2.84 2.74z"/><path fill="#FFF" d="M98.454 69.04l-1.293-6.344 2.63-3.444 1.53-.104c.22-.015.43-.03.64-.05l-.72-3.62.98-1.43-3.52.127-2.91-2.714-.2-5.6.86-.92-.32-9.04 2.72-2.91 10.96-.39-.05-1.48 2.72-2.91 4.31-.15.32.01.11.01c2.16.2 3.77 1.42 4.31 3.28.08.28.14.56.16.83l10.78-.38 2.92 2.72.33 9.04.92.86.2 5.61-2.71 2.92-5.51.2c-.31.93-.67 1.85-1.09 2.74 2.03 1.04 4.02 2.25 5.93 3.61l1.23.87.49 4.23-4.43 5.03-3.76.39-1.05-.79c-2.07-1.56-4.11-2.86-6.06-3.9-4.21 2.86-9.87 4.81-16.88 5.79l-1.32.19-3.13-2.2z"/><linearGradient id="c" gradientUnits="userSpaceOnUse" x1="110.641" y1="37.61" x2="125.815" y2="72.174"><stop offset="0" stop-color="#1B1440"/><stop offset=".819" stop-color="#ED1E79"/></linearGradient><path fill="url(#c)" d="M132.55 49.584l.81-.873-.1-2.81-.873-.81-16.423.59c.468-1.06.84-1.95 1.113-2.68.324-.16.696-.45.726-.96.028-.5-.28-.9-.915-1.19l-1.874-.56 12.483-.45.135 3.75.873.81 2.963-.1.813-.87-.26-7.4-.87-.81-13.23.48-.07-2.16c.28-.28.56-.71.41-1.23-.14-.5-.6-.79-1.37-.86h-.1l-2.81.1-.81.88.12 3.45-12.93.47-.81.88.27 7.41.88.82 2.96-.11.82-.87-.13-3.75 8.44-.31-.15.08c-.4 1.38-1.1 3.21-2.06 5.44l-10.73.38-.81.87.1 2.82.87.81 8.42-.3c-1.28 2.24-2.48 4.17-3.56 5.76l.23 1.19 2.59 1.69 1.13-.19c.34-.44.66-.89.96-1.33 1.34.45 2.86.99 4.53 1.61-3.27 1.87-7.54 3-12.7 3.35l-.77 1.01.72 3.54.94.67c7.44-1.04 13.15-3.19 17-6.39 2.7 1.24 5.54 2.97 8.45 5.15l1.14-.11 2.57-2.91-.14-1.24c-2.77-1.97-5.7-3.6-8.71-4.84 1.57-2.31 2.65-4.84 3.23-7.54l6.6-.24zm-11.633.418c-.53 1.84-1.47 3.688-2.81 5.513-2.268-.802-4.288-1.445-6.028-1.92.78-1.29 1.41-2.408 1.87-3.342l6.96-.25z"/><circle fill="#FFF" cx="186.544" cy="153.607" r="1.271"/><circle opacity=".3" fill="#FFF" cx="179.379" cy="169.984" r="1.588"/><path opacity=".3" fill="#FFF" d="M199.904 138.508c0 .88-.71 1.59-1.588 1.59s-1.59-.71-1.59-1.59c0-.875.713-1.588 1.59-1.588s1.588.713 1.588 1.588z"/><path fill="#FFF" d="M178.344 151.492s-.164-1.877-.57-2.313c-.412-.44-2.288-.71-2.288-.71s1.903-.19 2.34-.61c.42-.41.665-2.26.665-2.26s.16 1.86.56 2.29c.42.44 2.31.72 2.31.72s-1.83.14-2.26.53c-.45.42-.74 2.33-.74 2.33z"/></svg>