<svg xmlns="http://www.w3.org/2000/svg" width="250" height="250" viewBox="0 0 250 250"><path opacity=".15" d="M131.648 188.727l54.865 28.843-10.478-61.093 44.386-43.264-61.34-8.914-27.43-55.59-27.43 55.58-61.34 8.91 44.39 43.26-10.48 61.09"/><path fill="#F47F38" d="M65.487 203.287l8.295 10.283 13.93-19.343-11.112-2.842m132.527-92.457l8.294 10.285-19.57 5.91-7.27-12.68m-159-3.515l8.3 10.285 9.35-1.36"/><path fill="#F47F38" d="M128.648 184.727l54.865 28.843-10.478-61.093 44.386-43.264-61.34-8.914-27.43-55.59-27.43 55.58-61.34 8.91 44.39 43.26-10.48 61.09"/><path fill="#FFD200" d="M120.354 174.444l54.865 28.843-10.48-61.092 44.38-43.267-61.34-8.914-27.43-55.584-27.43 55.584-61.34 8.914 44.38 43.267-10.48 61.092"/><path fill="#FAAF40" d="M120.354 160.182l40.787 21.443-7.78-45.418 33-32.164-45.6-6.628-20.39-41.32-20.39 41.32-45.6 6.628 33 32.164-7.79 45.418"/><path fill="#FFF" d="M123.58 116.94s-32.73 66.17-44.27 1.745c0 0-7.845 2.566-6.324 5.273 0 0 14.54 66.42 53.93 1.592 0 0 6.035-6.692-3.337-8.61z"/><path fill="#FFF" d="M79.31 112.2c7.288-9.405 11.635-.62 11.635-.62-.64 1.262-3.35.69-3.35.69-6.84-1.068-6.057 4.67-6.057 4.67l-4.264 5.45"/><path fill="#FFF" d="M79.828 122.393s1.213-2.652 1.71-5.452c.496-2.8-1.354.15-1.354.15l-1.247-3.67-.213-1.1s.57-11.48-4.668-17.05c0 0-7.162-.93 0 8.78 0 0 2.567 7.03 2.192 8.53 0 0-.91 2.35-3.047 1.01 0 0-4.06-5.94-12.29-6.52 0 0-3.37 5.51 5.99 5.51l4.08 3.21s-4.18 10.91 7.04 7.59"/><path fill="#FFF" d="M77.275 111.81s.69 1.067 4.348-.43c3.657-1.495-4.348 8.554-4.348 8.554v-8.125zm36.482 22.93s12.4-20.58 12.29-23.51l19.166-6.137 24.834 9.146-7.268 36.88-16.7 12.61-14.53 12.33-21.01-13.75 2.19-3.15-.87-18.96 1.88-5.49z"/><path fill="#D0D2D3" d="M114.946 138.717s7.07-11.55 8.496-21.498l8.11 4.55-2.368 15.98-6.6 3.31-7.638-2.36zm-36.503-71.63s-8.908-16.202 7.63-10.573c16.54 5.627-7.63 10.574-7.63 10.574z"/><path fill="#919496" d="M81.563 62.617s-7.927-8.002-2.227 2.71c5.7 10.713 2.227-2.71 2.227-2.71zm74.423-3.023l4.64 10.15s14.27-17.752-4.64-10.15z"/><path fill="#FFF" d="M165.03 74.985c-3.015-17.81-21.792-31.527-44.52-31.527-24.83 0-44.96 16.37-44.96 36.56s20.128 36.56 44.96 36.56c.932 0 1.855-.028 2.775-.075.995 4.34 1.827 11.07-1.18 15.146 0 0-20.624 15.42-10.1 30.06-.014-.11-2.708-25.67 16.97-30.22l-3.57-16.11s7.435-1.75 16.12-5.58v20.16s-20.762 24.24-9.003 40.66c20.56-.63 61.938-11.63 32.51-95.65z"/><path fill="#D0D2D3" d="M141.525 129.977V109.81c-8.686 3.833-16.12 5.58-16.12 5.58l3.57 16.105c-19.678 4.55-16.984 30.114-16.97 30.222 2.052 2.86 3.083 3.828 7.896 6.508 0 0 6.49 2.596 12.62 2.41-11.75-16.414 9.01-40.658 9.01-40.658z"/><ellipse fill="#D0D2D3" cx="113.757" cy="80.823" rx="38.206" ry="28.985"/><path fill="#D0D2D3" d="M151.763 57.514s-.437 3.754 3.058 4.276c0 0 17.11-5.587 4.63 9.43 0 0-1.39 2.27 1.49 4.276 0 0 11.52-9.865 7.86-17.373 0 0-2.79-8.203-17.02-.61z"/><ellipse fill="#FFF" cx="94.246" cy="74.313" rx="14.935" ry="14.721"/><circle fill="#0071BC" cx="95.41" cy="75.22" r="10.974"/><path fill="#0F4481" d="M94.62 77.984c-2.038-2.355-1.78-5.914.572-7.95s5.91-1.78 7.95.574c2.037 2.353 1.78 5.913-.574 7.948-2.35 2.038-5.91 1.78-7.948-.572z"/><path fill="#FFF" d="M97.903 76.256c-1.083-1.252-.946-3.143.304-4.225s3.142-.94 4.226.31c1.082 1.25.944 3.15-.307 4.23-1.25 1.08-3.14.95-4.223-.3z"/><circle fill="#FFF" cx="93.343" cy="73.519" r="1.458"/><ellipse fill="#FFF" cx="128.975" cy="74.645" rx="18.436" ry="18.313"/><circle fill="#0071BC" cx="131.543" cy="74.54" r="12.655"/><path fill="#0F4481" d="M130.633 77.727c-2.352-2.717-2.055-6.82.66-9.166 2.713-2.34 6.814-2.05 9.167.67 2.35 2.72 2.053 6.82-.662 9.17-2.712 2.35-6.816 2.05-9.165-.66z"/><path fill="#FFF" d="M134.418 75.734c-1.25-1.444-1.092-3.623.352-4.87 1.44-1.248 3.62-1.095 4.87.35 1.25 1.442 1.09 3.624-.353 4.872-1.442 1.248-3.62 1.088-4.87-.352z"/><circle fill="#FFF" cx="129.158" cy="72.58" r="1.682"/><path fill="#6C6F71" d="M112.738 107.742s-.977-2.955-4.014-2.703c0 0 .81-.89 4.014-2.26 0 0-2.835.27-4.772 1.81 0 0-4.843 3.71-2.792-2.16 0 0-4.395 7.12 3.215 3.13 0 0 2.34.45 4.34 2.16z"/><path fill="#BE1E2D" d="M107.413 97.203s-4.136 11.965 2.083 4.215c0 0 1.66-2.343 5.877-2.654 0 0-18.927-8.58-7.96-1.56z"/><path fill="#D0D2D3" d="M149.525 113.57l-2.115 54.705 8.576-3.675 6.793-47.38-2.16-1.97-8.66 51.073"/><path fill="#6C6F71" d="M106.75 91.31l.497 3.134s9.782 7.156 12.08 1.492l-.855-2.192 2.937 3.763-1.76-1.09s.26 6.948-12.51-1.115c0 0-5.88-2.367-.7 1.27 0 0-8.61-3.897-.27-2.454l-.33-2.404.9-.403z"/><path fill="#1D8FCD" d="M102.203 89.79s3.322-6.76 4.547-3.19c0 0 2.745-4.02 2.745 2.435 0 0-2.602 1.774-2.745 3.924 0-.01-2.692-1.08-4.547-3.17z"/><path fill="#FFF" d="M106.75 91.31s.17-.913 1.455-1.823c0 0-.476-1.748-1.454 1.824z"/><path fill="#ACAFB1" d="M80.093 79.016s12.525-5.514 27.635 2.273c0 0-.982 7.28-13.943 7.87 0 0-9.578.5-13.692-10.15zm31.78 2.466s10.835-7.38 34.207 0c0 0-3.89 13.542-17.262 12.048-.002 0-13.507-.288-16.944-12.048z"/><path fill="#D0D2D3" d="M78.33 112.88l-1.055 3.206s-6.458 3.036-1.124 7.717c0 0-6.02-4.323.04-7.717l2.15-3.207zm-2.778 11.864s-.336 2.887 4.375 12.293l-4.375-12.293z"/><path fill="#FFD200" d="M171.7 171.066v-6.56l-2.765-2.766h-7.877v-.374l5.956-5.957c2.09-.68 2.856-2.15 3.135-3.05.54-1.78-.04-3.63-1.56-4.97l-4.3-4.3h-3.91l-.56.56h-17.53l-2.77 2.76v3.36l-.66-.42-1.32.31c.06-.35.11-.69.17-1.04 1.08-1.53.96-2.98.76-3.8-.44-1.71-1.81-2.96-3.69-3.34l-.09-.02-5.69-.81-3.15 2.4-.17 1.37c-.25 1.97-.53 3.99-.84 6.01h-2.74l-5.49-3.75-4.12 1.07-.13.26h-8.99c.6-1.08.61-2.11.54-2.67-.12-1-.77-3.41-4.35-4.1l-.14-.03-5.21-.55-2.94 2.08-.09.37c-.39-.4-.89-.78-1.55-1.11l-.18-.1-5.76-2.03-3.73 2.2-.27 1.51c-1.48 8.48-4.56 15.6-9.16 21.17l-.74.89-.05 3.36 4.44 5.71 2.43.15v16.18l2.76 2.77h6.76l2.77-2.77v-4.71l2.42 1.21 1.32-.4 1.3 4.54 2.56 1.94h6.53c3.46 0 6.95-2.27 6.95-7.35v-8c.51 1.62.94 3.14 1.28 4.56l.34 1.4 3.56 2 3.23-1.03-.25 1.45 4.51 5.79 3.68.59 1.08-.72c3.3-2.2 6.13-4.58 8.44-7.1.57.54 1.17 1.12 1.81 1.76l1.11 1.11 4.41-.47 1.11-1.71 1.14 5 2.62 2.09h6.18c2.7 0 5.78-1.53 6.56-5.67v-13.9h7.93l2.91-2.44zm-73.946-9.108l-.574-.122c.19-.314.386-.62.574-.946v1.068zm-.125 19.264l.12-.308v.308h-.13zm23.05-19.358l.72.722h1.37c-.61 2.716-1.33 5.388-2.17 7.994-.55-1.32-1.13-2.688-1.77-4.11l1.84-4.606zm3.01 17.39l.11.05-.09.063c-.01-.038-.03-.076-.04-.113zm25.06 1.164h-1.49l-.37-2.598-.94-.812c-1.22-1.06-2.44-2.082-3.63-3.056l.03-.12h6.38v6.586zm0-24.484v5.808h-4.03c.12-1.096.25-2.218.35-3.392l.8-1.34-.3-1.252h3.36l-.21.176z"/><path fill="#F47F38" d="M115.085 164.856l1.03-.478 3.552-8.88.884-.885-.11-1.27-4.42-3.01-1.2.312-.37.748H98.18l1.187-4.005c.596-.297 1.38-.8 1.29-1.595-.105-.908-1.2-1.13-1.69-1.224l-3.815-.41-.893.63c-1.7 7.32-4.34 12.94-7.84 16.69l.06 1.19 3.01 2.61 1.16-.08c1.95-2.22 3.81-5.03 5.51-8.36h4.89v27.66h-4.59l-.8 1.05 1.2 4.22.79.6h5.42c1.36 0 3.64-.52 3.64-4.04v-29.5h5.95l-2.33 5.48.5 1.11 2.16.72-3.37 1.12-.5 1.1c2.51 6.09 4.32 11.39 5.38 15.74l1.05.59 4.41-1.4.54-1.02c-1.21-4.28-3.3-9.57-6.24-15.71l.75.25z"/><path fill="#F47F38" d="M85.547 156.91c1.243-2.993 2.188-6.18 2.813-9.488.38-.17.802-.472.853-1.017.075-.807-.74-1.215-1.008-1.35l-4.113-1.446-1.09.64c-1.574 9.05-4.893 16.69-9.863 22.7l-.02 1.03 2.81 3.61 1.24.07c.53-.54 1.45-1.72 2.8-3.6v21.69l.82.82h4.01l.83-.83v-30.5c.36-.31.57-.65.61-1.03.03-.3-.02-.75-.46-1.19l-.27-.15zm13.41 9.755c-.027-.905-1.077-1.255-1.42-1.37l-3.91-.828-.987.684c-1.053 6.83-2.707 12.21-4.917 15.98l.344 1.16 3.615 1.81 1.09-.33c2.132-3.73 3.827-9.01 5.037-15.69.52-.25 1.16-.68 1.14-1.4zm39.488 8.393c1.622-4.05 2.77-10.016 3.418-17.755l.504-.84-.268-1.125-3.82-2.41-1.15.274-.36.603h-3.34c.43-2.166.82-4.373 1.16-6.582.44-.41.83-.93.68-1.545-.07-.266-.3-.734-1.14-.902l-4.22-.602-.94.717c-.37 2.93-.8 5.92-1.29 8.92h-4.92l-.83.83v3.82l.83.83h4.04c-.93 5.22-2.28 10.31-4.02 15.16l.46 1.04 3.81 1.61 1.1-.5.47-1.4c1.34.86 2.06 1.36 2.45 1.65-2.08 2.65-5.16 5.28-9.17 7.83l-.21 1.21 2.81 3.62 1.11.18c4.18-2.78 7.52-5.85 9.94-9.12 1.21 1.03 2.71 2.44 4.48 4.21l1.27-.13 2.61-4.02-.16-1.07c-1.83-1.57-3.62-3.07-5.36-4.45zm-2.518-15.783c-.5 4.927-1.35 9.15-2.53 12.584-1.223-.76-2.3-1.37-3.22-1.82.44-1.78 1.2-5.32 2.315-10.77h3.435z"/><path fill="#F47F38" d="M157.748 165.05v-5.055l7.588-7.588c.702-.098 1.438-.33 1.65-1.022.166-.538-.07-1.078-.645-1.555l-3.41-3.414h-1.17l-.56.56h-17.53l-.82.83v3.814l.83.827h13.59l-3.3 4.31-.93-.132-.94.82v7.605h-9.81l-.83.828v3.815l.83.828h9.82v13.21h-3.79l-.81 1.01 1.01 4.42.81.65h5.02c1.29 0 3.44-.57 3.44-4.44v-14.85h9.82l.83-.82v-3.81l-.83-.83h-9.82z"/><path fill="#FFD200" d="M160.548 187.337v-12.583"/></svg>