<svg xmlns="http://www.w3.org/2000/svg" width="250" height="250" viewBox="0 0 250 250"><path opacity=".15" d="M214.597 186.063s0-.002-.002-.002c-1.49-3.25-12.768-10.33-22.376-15.92l-.02-.01c-.52-.3-1.03-.59-1.53-.88l-.09-.05c-.48-.28-.96-.55-1.42-.81l-.16-.09-1.33-.75-.19-.1c-.42-.23-.83-.46-1.22-.68l-.24-.13-.1-.06c.47-.78.92-1.57 1.36-2.36 1.26.71 2.7 1.13 4.24 1.13 4.78 0 8.66-3.88 8.66-8.66l-.01-.09c5.26-.65 9.34-5.13 9.34-10.57 0-4.09-2.31-7.64-5.7-9.43.01-.19.03-.37.03-.56 0-3.68-2.99-6.66-6.67-6.66-.31 0-.61.03-.91.07 0-.16.01-.32.01-.48 0-23.43-10.97-44.28-28.05-57.73 12.28 1.26 25.09.19 34.44-6.52l-11.5-12.5 4-14.5c-9.7.25-18.12 13.03-27.08 13.8-10.94.94-35.44-7.39-38.35-8.39-.07-.38-.1-.6-.1-.6s-.02.21-.03.56l-.05-.02v-.79c-17.43-16.16-44.33 4.1-48.15 7.13-.2-.97-1.06-1.7-2.09-1.7-1.17 0-2.13.96-2.13 2.14V71.4C64.79 81.237 55.62 95 51.6 110.83c-3.6 1.764-6.08 5.45-6.08 9.73 0 .3.02.6.05.894-2.65 1.94-4.377 5.065-4.377 8.603 0 5.35 3.94 9.763 9.073 10.532 1.04 6.55 2.96 12.8 5.61 18.65.29 12.84 8.39 26.59 28.16 32.13.27.17.54.35.814.51-1.24 1.74-1.98 3.87-1.98 6.17 0 5.89 4.78 10.67 10.67 10.67.12 0 .24-.02.36-.02 1.26 4.98 5.76 8.68 11.14 8.68 2.53 0 4.86-.83 6.76-2.22 1.295.77 2.8 1.21 4.41 1.21 4.79 0 8.67-3.88 8.67-8.66 0-.03-.01-.06-.01-.09 3.645-.46 6.717-2.74 8.26-5.91 13.62-1.91 26.04-7.54 36.197-15.85 6.67 1.48 14 2.81 21.62 3.69 0 0 23.52 2.11 23.82-2.71.02-.21-.06-.45-.18-.71zM81.505 50.37c1.438 1.987 5.396 8.195 4.403 15.024-1.5.874-2.973 1.79-4.403 2.764v-17.79z"/><circle fill="#3FD8D8" cx="118.847" cy="127.452" r="73.478"/><path fill="#FFF" d="M88.55 127.535c0-4.095-2.31-7.646-5.694-9.434.016-.18.028-.37.028-.56 0-3.68-2.985-6.66-6.667-6.66-.495 0-.976.06-1.44.16-1.72-3.45-5.275-5.82-9.394-5.82-3.38 0-6.378 1.61-8.3 4.09-1.422-.68-3.013-1.08-4.7-1.08-5.983 0-10.833 4.85-10.833 10.84 0 .31.02.6.045.9-2.65 1.94-4.378 5.07-4.378 8.61 0 5.89 4.775 10.67 10.667 10.67.122 0 .24-.01.36-.02 1.258 4.99 5.762 8.69 11.14 8.69 2.53 0 4.863-.83 6.763-2.21 1.292.77 2.794 1.21 4.404 1.21 4.79 0 8.67-3.88 8.67-8.66v-.09c5.26-.66 9.34-5.14 9.34-10.58zm117 17c0-4.095-2.31-7.646-5.694-9.434.016-.18.03-.37.03-.56 0-3.68-2.986-6.66-6.668-6.66-.495 0-.976.06-1.44.16-1.72-3.45-5.275-5.82-9.393-5.82-3.38 0-6.38 1.61-8.3 4.09-1.423-.68-3.014-1.08-4.7-1.08-5.984 0-10.834 4.85-10.834 10.84 0 .31.03.6.05.9-2.65 1.94-4.38 5.07-4.38 8.61 0 5.89 4.78 10.67 10.67 10.67.12 0 .24-.01.36-.02 1.26 4.99 5.76 8.69 11.14 8.69 2.53 0 4.87-.83 6.76-2.21 1.3.77 2.8 1.21 4.41 1.21 4.79 0 8.67-3.88 8.67-8.66v-.09c5.27-.66 9.34-5.14 9.34-10.58z"/><path fill="#DDD9DA" d="M180.932 165.726s-37.086 28.945-85.33 26.533c-51.233-2.57-51.133-47.31-31.658-58.8 18.393-10.86 34.674-7.54 34.674-7.54s7.24-10.95 15.076-11.16c22.613-.61 40.026 18.77 61.433 32.03"/><path fill="#00AEFF" d="M150.025 137.383c11.308-4.673-30.452-22.462-40.553-21.256 0 0-.288.03-.753.108-5.68 3.02-10.11 9.69-10.11 9.69s40.1 16.132 51.4 11.458z"/><path fill="#DDD9DA" d="M133.594 175.072s24.725 9.648 53.367 12.965c0 0 23.52 2.11 23.82-2.713.31-4.824-36.48-24.423-36.48-24.423m-9.04-19.29s9.95-10.95 17.79-7.33l-2.51 29.9"/><circle fill="#0F4481" cx="68.617" cy="153.815" r="14.322"/><path fill="#FFF" d="M116.536 119.373l.076.123c.026.048.19.29.12.223-.024-.04-.01.02-.05-.08-.02-.06-.083-.4.08-.79.174-.39.4-.51.355-.5-.025 0-.242.06-.528.1-.59.08-1.49.07-2.48-.06-2.01-.25-4.48-.91-6.99-1.94-2.52-1.02-5.11-2.4-7.48-4.06-2.38-1.65-4.55-3.55-6.31-5.54-1.78-1.98-3.17-4.01-4.17-5.84-1.02-1.83-1.65-3.44-2.05-4.58-.2-.57-.35-1.03-.43-1.34l-.15-.48-7.94 2.53.22.6c.14.38.35.95.66 1.66.6 1.41 1.54 3.41 2.96 5.62 1.4 2.22 3.29 4.63 5.61 6.89 2.31 2.27 5.03 4.37 7.94 6.12 2.9 1.75 5.99 3.15 9 4.15 3.01 1 5.94 1.61 8.62 1.77 1.35.07 2.63.05 3.93-.22.65-.14 1.3-.32 2.02-.7.68-.37 1.51-1.03 1.96-2.05.46-1.02.36-2.01.21-2.58-.16-.62-.35-.98-.55-1.33-.23-.4-.25-.38-.32-.49l-.08-.12-4.28 2.83z"/><path opacity=".3" fill="#D0D1D2" d="M97.66 119.02c2.41 1.316 4.903 2.408 7.35 3.222 3.01 1.005 5.94 1.617 8.623 1.777 1.35.07 2.63.04 3.932-.22.65-.14 1.307-.32 2.02-.7.685-.37 1.514-1.02 1.966-2.05.46-1.02.37-2.01.21-2.58-.15-.62-.34-.98-.54-1.33-.23-.4-.24-.38-.32-.5l-.08-.12-4.15 2.74c.01-.13.03-.27.1-.43.18-.39.4-.51.36-.5-.02 0-.24.06-.53.1-.58.08-1.48.07-2.47-.06-2.01-.25-4.47-.92-6.99-1.94-2.52-1.02-5.1-2.4-7.47-4.05-.35-.25-.69-.51-1.04-.77.22 2.4.05 4.99-.94 7.36zm19.022.624l-.01-.05c.05.08.105.17.06.125-.024-.04-.012.02-.05-.08zM87.93 97.434s1.45 5.074-5.746 6.967c0 0-2.15-2.88-2.7-4.95"/><path fill="#6D6F71" d="M118.155 125.983l-.542-.208-.753 6.482.243.227c6.404 2.023 13.517 3.985 19.717 5.01.44-3.21.693-7.348.693-7.348l-19.358-4.163z"/><path fill="#D0D1D2" d="M110.528 72.372s-9.913-9.11-8.09 5.987l2.498-.99 5.592-5z"/><ellipse transform="rotate(115.83 130.91 99.63)" fill="#FFF" cx="130.914" cy="99.627" rx="29.282" ry="36.547"/><ellipse transform="rotate(115.83 127.08 97.36)" fill="#D0D1D2" cx="127.084" cy="97.364" rx="23.33" ry="30.583"/><ellipse transform="rotate(115.82 113.18 88.34)" fill="#FFF" cx="113.176" cy="88.342" rx="12.351" ry="12.531"/><ellipse transform="rotate(115.83 139.28 101.28)" fill="#FFF" cx="139.28" cy="101.281" rx="15.365" ry="15.468"/><path fill="#919396" d="M162.62 97.138c-.003-.013 1.146 7.854.23 9.803l1.69-1.08s11.9-6.72-1.92-8.71z"/><path fill="#D0D1D2" d="M160.514 93.95s8.664-1.154 11.697 3.717c0 0 3.35 7.504-8.23 11.507l-2.91 1.182s-.94-1.782.49-3.973c0 0 14-5.828-.25-8.567 0 0-1.96-1.13-.79-3.867z"/><circle fill="#0071BC" cx="137.879" cy="100.857" r="10.821"/><path fill="#0F4481" d="M143.764 95.647c-2.462-1.833-5.944-1.324-7.777 1.138-1.835 2.463-1.325 5.944 1.136 7.776 2.463 1.84 5.946 1.33 7.78-1.13 1.832-2.46 1.324-5.94-1.14-7.78z"/><circle fill="#FFF" cx="139.427" cy="99.345" r="2.954"/><circle fill="#FFF" cx="145.279" cy="102.753" r="1.439"/><circle fill="#0071BC" cx="113.824" cy="88.85" r="8.739"/><circle fill="#0F4481" cx="115.895" cy="88.242" r="4.489"/><circle fill="#FFF" cx="115.074" cy="87.629" r="2.386"/><circle fill="#FFF" cx="119.801" cy="90.381" r="1.161"/><path fill="#6D6F71" d="M114.89 101.233c-.023-.048-.293.016-.73.23-.434.215-1.057.574-1.65 1.255-.406.492-.74 1.207-.67 2 .088.784.55 1.495 1.098 2.037.553.564 1.267 1.056 2.13 1.27.21.067.436.096.67.09.232.024.466-.01.7-.08.117-.034.243-.044.348-.104l.16-.09.01-.01c.01-.01.01 0 .01 0s.002 0 0 0l-.01.68.156.67c.295.88 1.01 1.51 1.752 1.83.747.34 1.536.42 2.255.35.72-.05 1.39-.29 1.94-.61.77-.45 1.13-1.13 1.33-1.56.12-.48.15-.74.1-.75-.06-.01-.2.22-.4.61-.27.35-.64.88-1.34 1.2-.49.26-1.07.45-1.71.47-.63.05-1.31-.04-1.92-.33-.61-.28-1.13-.77-1.34-1.42l-.12-.51.01-.54c.04-.43.18-.85.27-1.28l.15-.64.07-.32.03-.14v-.03l-.04.04-.06.07-.17.19c-.36.4-.71.81-1.11 1.15l-.29.26-.11.07c-.07.05-.16.05-.24.07-.16.05-.33.08-.5.06-.18.01-.35-.01-.52-.06-.69-.16-1.3-.56-1.8-1.04-.51-.48-.87-1.04-.95-1.61-.07-.57.15-1.12.48-1.56.96-1.24 2.01-1.71 1.92-1.84z"/><path fill="#0B8ECC" d="M119.804 101.874s2.913-2.245 2.307 3.95l-4.67 1.204-1.6-3.987s4.24-3.93 3.97-1.16z"/><path fill="#FFF" d="M121.47 105.453l-2.007.508s1.182-1.6 2.006-.5zm-4.51-.703l-.6-1.296s.913 0 .6 1.296z"/><path fill="#A0A2A3" d="M152.195 181.7c.563-.24.94-.39.94-.39l-16.526-4.43s-2.37 6.488-11.42 13.127c10.08-2 19.19-5.043 27-8.307z"/><path fill="#FFF" d="M118.066 123.212s-1.508 6.935 3.316 10.402c4.825 3.468 16.13-3.468 16.13-3.468l-1.206-2.26-18.24-4.674z"/><path fill="#D0D1D2" d="M130.316 133.513l-3.658-5.627-6.482-1.81s-.392 3.006-.332 6.08c.423.527.93 1.02 1.538 1.458 2.196 1.578 5.73.996 8.934-.1z"/><path fill="#A0A2A3" d="M135.604 167.333s42.213 23.72 74.977 17.288h.02c-2.63-5.77-36.3-23.71-36.3-23.71s-.23-1.56-13.26 1.96c-6.23 1.68-25.43 4.47-25.43 4.47zm30.53-26.63c.505.497 1.188 1.22 1.43 1.706.388.77 6.94-9.84 15.47-8.04l.01-.11c-6.446-2.98-14.31 3.89-16.91 6.43z"/><path fill="#F2D86B" d="M77.506 102.546c0 1.178-.955 2.133-2.133 2.133s-2.133-.96-2.133-2.14V48.31c0-1.18.956-2.133 2.133-2.133 1.178 0 2.133.954 2.133 2.133v54.238z"/><path fill="#FFF" d="M76.135 79.42s-6.704-3.2-11.122.685c-2.87 2.523-3.123 7.084-.99 8.912 0 0-5.104 2.362-4.037 8.304 1.066 5.95 5.133 12.84 16.606 7.93 10.13-4.34 12.493-9.9 12.493-9.9s5.104-21.48-5.256-21.48c-10.37 0-7.39 3.89-7.7 5.56z"/><path fill="#D0D1D2" d="M76.287 80.106s-.99 12.036 9.293 12.95c0 0-14.067 2.285-9.293-12.95z"/><path fill="#D0D1D2" d="M64.022 89.017s8.81-3.122 11.96.84c0 0-2.793-1.78-11.96-.84zm-.634 11.503s14.83 4.978 15.438-6.296c0 0 2.336 10.767-10.056 9.243 0 0-5.483.202-5.382-2.946z"/><path fill="#F2D86B" d="M73.24 103.425v4.866c0 1.18.956 2.14 2.133 2.14s2.133-.95 2.133-2.13v-7.22c-.864 1.1-2.208 1.99-4.266 2.36z"/><ellipse fill="#D6B303" cx="75.322" cy="108.978" rx="2.083" ry="1.549"/><path fill="#0099B2" d="M77.506 72.583s42.878-24.55 58.098-13.218l-.053-36.297v-4.536C129.46 1.457 77.01 43.68 77.01 43.68s11.06 17.934.496 28.903z"/><path fill="#0099B2" d="M135.604 59.408s38.447 21.46 63.114 3.792l-11.5-12.5 4-14.5c-9.704.25-20.278 3.14-27.083-1.542-14.292-9.833-28.75-15.46-28.75-15.46s-.797 36.688.22 40.022"/><path fill="#048B99" d="M135.55 21.7s-.962 34.33.054 37.666c0 0-.16-.03-.136-.02.38.13 5.43 2.84 8.5 4.02L135.55 21.7z"/><path fill="#FFF" d="M130.22 195.534c0-4.095-2.312-7.646-5.697-9.434.016-.188.028-.375.028-.566 0-3.683-2.98-6.667-6.66-6.667-.49 0-.97.058-1.44.16-1.72-3.45-5.27-5.827-9.39-5.827-3.38 0-6.37 1.604-8.3 4.084-1.42-.688-3.01-1.084-4.7-1.084-5.98 0-10.83 4.85-10.83 10.834 0 .303.02.6.05.897-2.65 1.94-4.38 5.07-4.38 8.61 0 5.89 4.78 10.67 10.67 10.67.12 0 .24-.01.36-.02 1.26 4.99 5.76 8.69 11.14 8.69 2.53 0 4.86-.82 6.76-2.21 1.29.77 2.8 1.22 4.41 1.22 4.79 0 8.67-3.88 8.67-8.66v-.09c5.27-.65 9.34-5.13 9.34-10.57z"/><g fill="#FFF"><path d="M157.783 48.905c-1.92-1.155-3.338-2.085-4.71-2.985-.423-.277-.84-.55-1.263-.825l.68-.075c.426-.77.83-1.866 1.185-2.834.22-.6.513-1.394.678-1.683.19-.013.5-.068.64-.384.186-.42-.15-.83-.32-1.03-.988-1.04-1.47-1.55-2.412-2.57l-.84.2c-.56 1.93-1.24 3.65-2.07 5.27l.08.56 2.06 2.31c-1.14-.74-2.34-1.48-3.81-2.31v-1.88c0-2.81.01-4.83-.01-7.8 1.49.93 2.64 1.71 3.94 2.59 1.11.75 2.32 1.57 3.94 2.62l.77-.43-.02-2.27-.23-.42c-2.2-1.42-3.98-2.68-5.55-3.8-4.52-3.21-7.51-5.34-14.3-6.35l-.57.48c-.02.9-.04 1.36-.07 2.3l.43.51c3.9.51 5.66 1.35 8.74 3.02-.01 3.15-.04 5.22-.07 8.03l-.02 1.8c-3.59-1.67-6.02-2.19-10.49-2.39l-.29.26-.22-.52c-2.27-.96-5.88-3.01-6.3-3.68.21-.86 2.78-5.64 4.01-6.9.08-.08.16-.15.24-.21.24-.2.52-.42.51-.79-.01-.12-.05-.35-.29-.53-.78-.61-1.18-.9-1.94-1.42l-.72.17-.25.45c-2.04.32-3.26.62-5.09 1.21l.17-.44c.32-.17.63-.42.65-.79.01-.16-.04-.47-.43-.7l-.29-.07c-1.03.06-1.58.12-2.66.27l-.42.38c-.84 3.55-2.19 6.93-3.94 9.81 0-1.88-.02-3.36-.12-5.7l-.71-.43c-3.55 1.7-5.49 2.77-8.7 4.56l-1.25.69-.26.49c.26 2.87.31 4.2.41 6.85l.72.43c.81-.41 1.22-.61 2.03-1.01.59-.29.98-.47 1.45-.69l.03 2.3c.02 2.28.04 4.1.18 6.96-.23.11-.42.2-.62.3-.13-2.31-.16-3.76-.2-5.86l-.02-.9c.27-.29.47-.59.34-.93-.08-.22-.28-.35-.53-.37-.15-.01-.34.03-.65.13-.91.4-1.36.62-2.27 1.06l-.28.46.05 1.43c.08 2.37.13 3.96.34 6.78-.38.21-.64.36-1.08.63l-.16.7c.44.67.66 1.01 1.11 1.73l.23.19c.11.04.22.07.32.08.21.01.41-.06.56-.19.2-.18.28-.45.32-.69 3.95-2.58 6.02-3.4 10.08-4.99l.3-.59-.49-1.9-.7-.33c-1.35.62-2.14.98-3.35 1.6-.04-1.27-.05-2.14-.06-3.48.84-.26 1.36-.41 2.34-.65l.37-.48v-.17l.24.44.68.2c.53-.3 1.12-.76 1.74-1.3-.06 3.66-.09 5.78.07 9.61l.53.48c.91-.04 1.36-.06 2.27-.07l.5-.52-.03-1.1c1.8-.05 2.88-.04 4.71-.01 0 .26 0 .49.01.82l.49.5 2.26.06.52-.5c-.01-3.99.08-6.21.27-10.48.52.36.99.64 1.37.8l.66-.29.05-.13c.27-.74.46-1.25.69-1.86l-.09 1.71.48.52c4.11.19 6.56.46 10.63 2.34-.04 3.75-.06 5.73-.03 9.34l.3.45c.86.38 1.28.59 2.16 1.06l.73-.45c-.05-3.42-.06-5.34-.06-8.8 1.97 1.1 3.45 2.07 5.02 3.08 1.35.88 2.75 1.78 4.62 2.9l.76-.44-.03-2.27-.25-.42zM122.93 30.22c1.618-.526 2.69-.822 4.283-1.13-.618 1.36-1.592 3.226-2.07 3.75-.492-.422-1.645-1.75-2.213-2.62zm-1.353 10.11c1.314-1.287 2.95-2.886 3.528-2.944.504.032 2.202 1.344 3.442 2.303l.773.59c-3.32.08-5.41.3-8.633.91.296-.29.595-.58.89-.87zm.962 3.473c1.93-.24 3.06-.322 4.84-.393-.07 1.785-.1 2.88-.12 4.61-1.8-.01-2.92-.002-4.76.088-.01-1.616 0-2.636.04-4.305zm-5.72-6.436v-.678c.54.28.89.47 1.52.87l.65-.11c.46-.57 1.04-1.78 1.55-2.85.19-.41.42-.89.59-1.21.56.58 1.53 1.62 1.86 2.02-.58.93-4.7 4.28-6.93 5.6l-.17-.13c-.86.25-1.39.41-2.1.65v-.52c0-.72 0-1.32-.01-2.17 1.03-.43 1.62-.65 2.69-1.04l.33-.47zm-3.43-1.034c-1.54.667-2.48 1.103-3.87 1.79-.04-1.024-.07-1.765-.14-2.92 1.54-.832 2.49-1.335 3.94-2.056.04 1.153.05 1.95.06 3.186z"/><path d="M142.28 38.13l.417-.586c-.406-2.19-1.356-4.74-2.748-7.368l-.57-.25c-.94.244-1.42.392-2.37.72l-.27.72c.96 1.704 1.78 3.958 2.52 6.894l.61.363c1.02-.26 1.49-.352 2.41-.493zm35.23 14.36c-1.884-.12-3.71-.492-5.805-1.02.175-.306.338-.61.486-.89.22-.403.49-.904.65-1.03.15-.075.45-.23.48-.582.04-.374-.27-.616-.42-.732-.27-.165-.51-.305-.72-.438 2.68.765 5.12.883 8.8.842-.1.926-.16 1.526-.26 2.554l.52.55c.89-.03 1.36-.063 2.29-.158l.45-.443c.22-1.98.33-2.925.62-5.033l-.54-.565c-1.93.16-3.39.192-4.74.105-1.73-.112-3.33-.428-5.27-.904.07-.67.12-1.146.2-1.877.21-.14.44-.36.43-.7-.01-.51-.56-.73-.8-.82-.8-.21-1.19-.32-1.97-.57l-.65.42c-.12 1.11-.19 1.75-.27 2.67-3.48-1.13-5.97-2.3-10.57-4.93l-.75.42c-.04 2.36-.04 3.54-.05 5.89l.26.43c.99.56 1.5.84 2.57 1.38l.72-.43.09-2.79c2.83 1.46 4.98 2.5 6.88 3.22l-.02.01c-.39.87-.99 2-1.81 3.36-2.92-.99-5.23-2.07-8.66-4.05l-.75.43.01 2.24.26.43c2.92 1.66 5.02 2.65 7.47 3.52-.99 1.17-2.11 2.26-3.34 3.25l-.06.72c.38.43.69.76.99 1.07.32.34.61.65.96 1.05l.71.05c.18-.16.39-.39.58-.6.07-.08.16-.18.24-.26.63.29 2.39 1.48 3.35 2.22-1.12.2-3.12.47-5.23.34-1.69-.11-3.15-.46-4.34-1.03l-.71.51c.15 1.22.21 1.82.34 3.04l.31.41c1.04.4 2.15.65 3.32.72 2.98.19 5.78-.73 7.64-1.34.82-.27 1.52-.5 1.88-.51.89.06 4.3 3.14 5.42 4.15l.71-.04 2.19-2.37-.07-.75c-.94-.66-2.4-1.42-3.7-2.08-.81-.41-1.79-.91-2.21-1.2l.54-.77c.85-1.2 2.1-2.96 2.66-4.37 1.98.02 3.1-.06 5.13-.36l.42-.44.2-1.8-.57-.55c-2.64.36-4.54.46-6.37.35zm-9.215 3.786c.188-.248.525-.64.79-.947.36-.43.73-.86.99-1.21 2.044.54 3.274.77 5.204.96-.71 1.69-2.04 3.68-2.49 3.79-.72-.05-3.69-1.9-4.5-2.61z"/></g><path fill="#FFF" d="M102.803 44.237l-18.637 9.16-.185.542.96 1.94.54.18 18.64-9.16.19-.54-.95-1.95"/><path d="M135.966 28.152c.26.034.49.073.73.11l-.585-3.354-.51.43c-.02.902-.03 1.362-.07 2.3l.44.514zm3.244 14.49l-.63-3.6c-1.01-.174-2.107-.288-3.348-.368-.016 1.157-.03 2.328-.043 3.506 1.47.087 2.75.212 4.02.462z" fill="#B3FBFF"/></svg>