<svg xmlns="http://www.w3.org/2000/svg" width="250" height="250" viewBox="0 0 250 250"><path d="M105.085 212.072c-.02-.05-.04-.1-.063-.152l-.086-.217c-.026-.066-.056-.14-.084-.215-.034-.086-.065-.168-.104-.264-.018-.047-.04-.1-.057-.148-.08-.207-.16-.436-.26-.683l-.12-.323c-.05-.125-.1-.256-.14-.39l-.12-.324c-.05-.147-.11-.298-.17-.455l-.14-.38-.32-.87c-.05-.14-.1-.27-.15-.42-.09-.24-.18-.48-.27-.74l-.04-.11c-.55-1.49-1.18-3.21-1.88-5.12h86.4l-.49-64.97v-31.54c.13-.15.22-.32.29-.48.01-.01.01-.02.02-.03.07-.15.11-.31.14-.47l.01-.04c.03-.16.04-.32.04-.48v-.01c0-.16-.02-.31-.05-.46v-.03c-.02-.14-.06-.27-.09-.39l-.01-.04c-.03-.12-.07-.23-.11-.33v-.01c-.08-.21-.16-.36-.2-.42v-47.9L163.4 56.1c-4.44-3.74-10-6.6-16.24-8.21h-.02c-.58-.14-1.166-.28-1.75-.41l-.14-.03c-.55-.11-1.11-.22-1.67-.31l-.26-.05c-.52-.08-1.06-.16-1.58-.23-.124-.01-.24-.04-.366-.05-.5-.06-1.01-.11-1.52-.16-.15-.01-.31-.03-.46-.05-.5-.04-1-.06-1.5-.09l-.51-.03c-.67-.03-1.34-.04-2.02-.04-.683 0-1.36.02-2.034.05-.216.01-.427.03-.64.04-.465.03-.93.06-1.387.1-.24.02-.48.05-.72.07-.436.04-.867.09-1.3.15l-.7.09c-.46.07-.92.145-1.373.22-.19.036-.38.066-.564.1-1.296.24-2.565.535-3.81.88-.14.04-.28.087-.424.13-.48.136-.95.28-1.42.43l-.52.174c-.45.15-.89.306-1.32.47l-.49.18c-.474.187-.94.378-1.41.577-.1.05-.21.09-.32.14-1.17.52-2.304 1.08-3.4 1.68-.05.03-.103.06-.16.09-.48.27-.955.55-1.42.84l-.3.19c-.427.27-.845.54-1.255.82-.1.07-.196.13-.29.2-.44.31-.87.62-1.29.94-.05.04-.108.08-.158.12-.98.74-1.9 1.53-2.78 2.36l-.01.01-.02-.01c-2.55-1.11-4.59-1.56-6.22-1.61h-.01c-.2-.01-.39-.01-.57 0h-.03l-.53.03h-.03l-.5.06h-.03c-.16.03-.32.06-.47.09h-.01c-1.55.36-2.53 1.13-3.12 1.82l-.02.02-.15.18-.03.03c-.05.06-.09.11-.12.16l-.03.04-.1.15-.03.04-.08.13-.03.04-.06.11-.02.05-.05.09-.02.04-.04.07-.02.04-.02.04-.02.03c0 .01-.01.02-.01.02-.01.01-.01.02-.01.02-.14.28-.24.57-.33.86l-.04.13c-.31 1.06-.31 2.15-.11 3.25l-31 3.14-.19-.1.03.13-.28.03 21.72 72.54-11.13.31-.03.36-.2-.54L67 201.29l.78.2.147.04c.026 0 .06.01.085.02l1.464.38.14.04c2.85.75 7.71 2.03 12.95 3.46l1.74.48c.03.01.06.01.09.02.57.15 1.13.31 1.7.47l.1.03 1.67.47.12.03c.54.15 1.09.3 1.63.46.05.01.11.03.17.05l1.53.43.24.07c.49.14.98.28 1.47.43l.22.06c.47.13.94.27 1.4.4l.27.08c.43.12.86.25 1.27.38l.31.09c.39.12.78.23 1.16.35.11.03.23.06.34.1.36.11.71.22 1.05.32.11.04.23.07.34.11l.92.29c.12.04.25.08.37.12.27.09.53.17.79.26l.36.12c.23.08.44.15.66.23l.35.12c.19.06.35.13.52.19l.33.12c.14.05.26.1.39.16.1.04.21.08.3.12l.26.13c.08.04.17.08.24.12.06.03.1.06.14.09.06.04.12.08.16.11.02.01.01.02.02.04l-.02-.03-.05-.11-.04-.1-.08-.18zm.263.536c0-.033-.043-.075-.082-.116.053.114.083.16.082.116z" opacity=".15"/><path fill="#1B75BB" d="M101.348 207.608c0-.04-.036-.09-.095-.144.064.14.097.19.095.144z"/><path fill="#FFF" d="M159.2 50.985c-7.075-5.907-16.954-9.586-27.896-9.586-11.792 0-22.354 4.26-29.493 11-10.22-4.45-12.32 1.7-12.32 1.7-.59 1.21-.7 2.49-.53 3.77 22.31 9.86 52.68 12.71 70.25-6.9z"/><path fill="#1B75BB" d="M182.953 96.516V48.66l-23.62 2.433c-.044-.037-.09-.07-.134-.107-17.57 19.61-47.94 16.76-70.25 6.897.02.152.02.304.05.455l-31.46 3.24 21.72 72.54-11.14.305-.03.363-.2-.547-4.9 62.01s36.19 9.33 38.23 11.21c-.39-.85-1.96-5.05-4.21-11.22h81.21l4.7-64.98-14.62-8.13 14.62 8.12V99.73c1.03-1.285.15-2.96 0-3.217zm-48.008 8.076l6.977 3.877-6.977-3.88z"/><path fill="#0E4F82" d="M67.926 134.238s33.474 74.852 33.42 73.37S63.02 196.25 63.02 196.25l4.906-62.012zm113.634-2.963L57.8 61.425l43.793 116.264"/><path fill="#FFF" d="M128.646 105.048s28.35 57.316 38.346 1.513c0 0 6.795 2.23 5.48 4.57 0 0-12.595 57.53-46.714 1.38-.002 0-5.23-5.79 2.888-7.46z"/><path fill="#FFF" d="M166.992 100.944c-6.313-8.148-10.078-.54-10.078-.54.557 1.095 2.902.6 2.902.6 5.926-.925 5.246 4.044 5.246 4.044l3.69 4.723"/><path fill="#FFF" d="M166.543 109.772s-1.05-2.3-1.48-4.724c-.43-2.427 1.172.124 1.172.124l1.08-3.18.186-.956s-.49-9.945 4.05-14.772c0 0 6.21-.804 0 7.603 0 0-2.22 6.09-1.9 7.387 0 0 .79 2.032 2.64.876 0 0 3.52-5.145 10.65-5.65 0 0 2.92 4.774-5.18 4.774l-3.53 2.776s3.63 9.445-6.1 6.574"/><path fill="#FFF" d="M168.754 100.604s-.598.926-3.766-.37 3.766 7.41 3.766 7.41v-7.04zM112.06 96.48l17.858 5.65-2.02 2.918 7.285 13.577 3.602 7.195.523 8.727-45.625 2.328S90.63 107.25 90.47 106.75c-.16-.5 14.588-10.873 14.588-10.873l7 .602z"/><path fill="#D0D2D3" d="M136.125 123.91s-6.125-10.002-7.36-18.62l-7.025 3.947 2.053 13.844 5.715 2.87 6.617-2.04zm31.617-62.043s7.717-14.035-6.607-9.16c-14.328 4.875 6.607 9.16 6.607 9.16z"/><path fill="#919496" d="M165.04 57.996s6.866-6.93 1.93 2.346c-4.937 9.28-1.93-2.346-1.93-2.346zm-64.462-2.62l-4.02 8.792s-12.36-15.376 4.02-8.793z"/><path fill="#FFF" d="M92.74 68.708c2.612-15.426 18.877-27.31 38.565-27.31 21.51 0 38.94 14.18 38.94 31.67 0 17.49-17.433 31.667-38.94 31.667-.81 0-1.605-.025-2.404-.065-.86 3.76-1.58 9.59 1.03 13.118 0 0 17.87 13.357 8.75 26.046.01-.093 2.35-22.236-14.7-26.18l3.1-13.946s-6.44-1.514-13.96-4.837v17.48s17.99 21 7.8 35.22c-17.81-.54-53.65-10.07-28.16-82.85z"/><path fill="#D0D2D3" d="M113.1 116.34V98.87c7.524 3.324 13.964 4.838 13.964 4.838l-3.092 13.947c17.045 3.943 14.71 26.086 14.7 26.18-1.778 2.476-2.673 3.313-6.843 5.636 0 0-5.62 2.25-10.93 2.09 10.18-14.22-7.8-35.22-7.8-35.22z"/><ellipse fill="#D0D2D3" cx="137.154" cy="73.766" rx="33.094" ry="25.105"/><path fill="#D0D2D3" d="M104.234 53.574s.38 3.253-2.646 3.706c0 0-14.82-4.84-4.008 8.166 0 0 1.21 1.967-1.285 3.705 0 0-9.98-8.54-6.805-15.04 0 0 2.42-7.11 14.744-.53z"/><ellipse fill="#FFF" cx="154.055" cy="68.125" rx="12.938" ry="12.752"/><ellipse fill="#FFF" cx="123.973" cy="68.414" rx="15.967" ry="15.862"/><path fill="#6C6F71" d="M135.908 95.877s.846-2.56 3.477-2.34c0 0-.7-.77-3.477-1.954 0 0 2.455.233 4.133 1.574 0 0 6.18.563 4.4-4.52 0 0 3.46 6.063-4.76 5.364 0 .01-2.02.4-3.76 1.88z"/><path fill="#BE1E2D" d="M142.648 87.953s1.977 2.396-1.803 3.65c0 0-2.146.89-5.092-2.298 0 0 16.395-7.432 6.895-1.352z"/><path fill="#D0D2D3" d="M106.174 102.13l1.83 47.384-7.426-3.183-5.887-41.04 1.87-1.7 7.51 44.24"/><path fill="#6C6F71" d="M143.225 82.848l-.432 2.715s-8.475 6.198-10.463 1.29l.74-1.896-2.543 3.26 1.525-.944s-.232 6.02 10.83-.965c0 0 5.092-2.05.604 1.1 0 0 7.455-3.375.232-2.125L144 83.2l-.775-.352z"/><path fill="#1D8FCD" d="M147.162 81.533s-2.877-5.856-3.938-2.765c0 0-2.38-3.48-2.38 2.11 0 0 2.255 1.535 2.38 3.397 0 0 2.33-.936 3.938-2.742z"/><path fill="#FFF" d="M143.225 82.848s-.146-.79-1.262-1.578c0 0 .412-1.516 1.262 1.578z"/><path fill="#D0D2D3" d="M167.84 101.53l.914 2.777s5.594 2.63.975 6.686c0 0 5.21-3.745-.03-6.686l-1.86-2.777zm2.406 10.28s.293 2.5-3.79 10.646l3.79-10.647z"/><path fill="#002749" d="M68.144 134.422L63.02 196.25h120.425l-.492-64.975"/><circle fill="#0071BC" cx="121.072" cy="68.498" r="12.364"/><path fill="#0F4481" d="M121.96 71.61c2.297-2.653 2.008-6.66-.645-8.957-2.65-2.293-6.658-2.006-8.957.647-2.293 2.65-2.005 6.66.646 8.956 2.654 2.295 6.663 2.005 8.956-.646z"/><path fill="#FFF" d="M118.263 69.664c1.222-1.41 1.064-3.54-.344-4.76-1.41-1.218-3.54-1.067-4.76.343-1.22 1.41-1.07 3.542.34 4.762 1.41 1.21 3.53 1.06 4.76-.35z"/><circle fill="#FFF" cx="123.4" cy="66.582" r="1.644"/><circle fill="#0071BC" cx="152.229" cy="68.281" r="10.265"/><path fill="#0F4481" d="M152.967 70.867c1.904-2.204 1.666-5.53-.535-7.437-2.2-1.904-5.53-1.666-7.438.537-1.902 2.2-1.664 5.53.54 7.436 2.198 1.904 5.53 1.664 7.433-.536z"/><path fill="#FFF" d="M149.896 69.25c1.014-1.17.885-2.938-.285-3.95-1.16-1.012-2.93-.888-3.95.283-1.01 1.17-.88 2.94.29 3.954 1.17 1.01 2.94.88 3.95-.287z"/><circle fill="#FFF" cx="154.162" cy="66.691" r="1.364"/><path d="M94.57 190.063c-1.373 0-2.06-.578-2.06-1.733v-8.732c-.633-.436-1.77-.807-3.417-1.112-1.646-.305-3.113-.5-4.4-.59-.457.786-.833 1.92-1.127 3.402-.294 1.483-.6 2.977-.916 4.48-.316 1.505-.736 2.693-1.26 3.565-1.744 0-2.725-.447-2.942-1.34.61-.873 1.603-5.332 2.976-13.378 1.374-8.045 2.502-14.34 3.385-18.887.88-4.546 1.83-8.366 2.86-11.463 1.02-3.096 2-4.644 2.94-4.644s1.65.2 2.16.59c0 1.6.43 5.9 1.3 12.92.87 7.02 1.3 11.56 1.3 13.62s.23 5.49.7 10.27c.47 4.79.7 8.38.7 10.78 0 1.51-.74 2.26-2.23 2.26zM91.76 168.2c-.392-3.957-.747-7.73-1.063-11.316-.316-3.586-.475-5.756-.475-6.508s.01-1.183.033-1.292c-.698.72-1.706 4.72-3.025 12.003-1.32 7.282-2.022 11.894-2.11 13.834 1.854.51 3.407.76 4.66.76 1.254 0 2.143-.06 2.667-.19-.065-.89-.294-3.32-.687-7.27zm9.417 13.524l.196-21.095c0-1.44-.13-3.64-.392-6.59-.26-2.96-.39-4.84-.39-5.65s.25-1.44.75-1.88c.5-.45 1.04-.67 1.61-.67 4.6 0 8.34 2.69 11.22 8.07 1.66 3.07 2.49 6.32 2.49 9.74l-.13 3.36v3.69c0 4.49-.2 7.49-.6 8.99-.4 1.5-.82 2.76-1.26 3.76s-.96 1.9-1.57 2.68c-1.41 1.79-3.2 3.23-5.36 4.32h-4.84c-1.13 0-1.7-2.92-1.7-8.77zm4.677 3.76v1.603c3.88 0 6.214-3.925 7-11.773.173-1.81.26-3.554.26-5.233 0-13.47-2.595-20.51-7.783-21.12-.32 1.77-.49 4.19-.49 7.28s.17 7.91.51 14.48c.34 6.56.51 11.49.51 14.78zm22.24-17.66l.326 14.227v2l-.033 1.87h.883l1.93-.06c1.832 0 2.747.56 2.747 1.67 0 .57-.224 1.06-.67 1.46-.447.41-.965.61-1.554.61h-2.943c-2.027 0-3.325-.04-3.892-.13-.35.05-.622.07-.818.07-1.592 0-2.387-.5-2.387-1.5 0-.41.13-.8.393-1.17.262-.37.523-.57.785-.59h1.9l.13-.88-.45-14.22.36-14.92c0-2.55-.11-4.95-.32-7.19h-1.28l-1.53.07c-.65 0-1.16-.12-1.53-.37-.37-.25-.55-.72-.55-1.42 0-1.02 1.1-1.53 3.31-1.53h7.98c1.81 0 2.72.47 2.72 1.41 0 .41-.19.8-.59 1.14-.39.35-.84.52-1.34.52h-3.44c.18 1.84.26 3.91.26 6.22l-.36 12.79zm8.633 1.8l.065-2.553c0-.21-.033-.32-.1-.32v-1.21c0-7.02.404-12.01 1.212-14.98.675-2.5 1.33-4.05 1.962-4.64.632-.59 1.253-.88 1.864-.88 5.188 0 8.765 2.62 10.727 7.85 1.134 3.01 1.7 6.72 1.7 11.12v.49l.132 7.59c0 12.85-2.98 19.27-8.93 19.27-2.47 0-4.35-1.36-5.66-4.09-1.24-2.61-2.01-5.18-2.29-7.71-.46-3.81-.69-7.11-.69-9.9zm3.957-9.158l-.327 6.18c0 6.477.523 12.124 1.57 16.942 1.11 2.813 2.17 4.47 3.172 4.97.8 0 1.53-.326 2.19-.98.65-.653 1.17-1.53 1.55-2.633.38-1.1.7-2.262.96-3.482.24-1.2.42-2.485.55-3.86.22-2.375.32-4.403.32-6.082s-.15-4.25-.44-7.71c-.3-3.46-.45-6.05-.45-7.75v-1.18c-.05-1.63-.58-3.09-1.61-4.36-1.03-1.27-2.34-1.91-3.93-1.91-1.53 0-2.54.86-3.05 2.59-.42 1.44-.62 3.22-.62 5.33l.06 3.96zm18.02 26.817l2.78.49c.85 0 1.59-.37 2.224-1.11.632-.742 1.1-1.67 1.406-2.78.59-2.138.883-4.028.883-5.675s-.272-3.276-.817-4.89-1.216-3.112-2.012-4.497c-.796-1.38-1.586-2.79-2.37-4.23-1.876-3.4-2.813-6.73-2.813-10.01 0-2 .338-3.78 1.015-5.33 1.264-2.88 2.943-4.31 5.036-4.31.785 0 1.53.25 2.24.76.708.5 1.063 1.05 1.063 1.64 0 1.03-.55 1.54-1.64 1.54-.48 0-.95-.13-1.41-.39-1.42.07-2.38 1.65-2.88 4.75-.11.68-.17 1.47-.17 2.37 0 .91.19 2.02.59 3.35s.89 2.52 1.48 3.55c.6 1.04 1.24 2.18 1.93 3.44s1.33 2.47 1.94 3.65c1.39 2.73 2.08 5.84 2.06 9.36.02 2.7-.6 5.29-1.87 7.75-.61 1.22-1.48 2.22-2.6 2.99s-2.41 1.17-3.85 1.19v.17c-1.83-.26-2.84-1.12-3.01-2.58l.75-1.14z" fill="#BBC9DA"/></svg>