<svg xmlns="http://www.w3.org/2000/svg" width="250" height="250" viewBox="0 0 250 250"><path opacity=".15" d="M203.788 90.125c12.313-4.23 22.593-13.18 22.593-13.18l-.13-.383c0-.08.01-.164-.01-.24-.02-.07-.09-.13-.13-.195l-16.03-46.632c0-.08.01-.166-.01-.24-.02-.073-.09-.13-.13-.2v-.018c-1.49-2.113-12.71-.343-25.69 4.118-12.99 4.463-22.93 9.962-22.81 12.546l-.06.03 2.53 7.37-10.44 3.62c-2.4.84-4.04 2.95-4.52 5.42-.82-1.11-2.81-1.66-8.15.06-3.62 1.17-4.38 4.43-3.89 8.11-1.1-.05-2.21-.08-3.32-.08-1.01 0-2.03.03-3.07.07-.32-1.17-.94-2.22-1.76-3.06l.51-7.74c.02-.27.01-.55-.03-.82l-.83-5.83c-.28-1.99-1.99-3.43-3.95-3.43-.19 0-.38.01-.57.04l-7.34 1.04c-1.02.15-1.93.69-2.57 1.49-.4-.67-.99-1.22-1.7-1.56-.55-.26-1.14-.39-1.74-.39-.44 0-.89.07-1.31.22l-7.29 2.54c-2.09.73-3.19 3.01-2.47 5.09l1.17 3.35c-2.18 1.11-3.91 2.91-4.96 5.18-.1.22-.19.44-.28.66-.59-.76-1.44-1.28-2.39-1.46-.25-.05-.5-.07-.76-.07-.79 0-1.57.24-2.24.69l-6.65 4.49c-.22.15-.43.32-.61.51-.24.1-.48.23-.7.38l-6.22 4.2c-.47.32-.85.72-1.14 1.17l-2.61-2.59c-.78-.77-1.8-1.16-2.81-1.16-1.03 0-2.05.4-2.84 1.18l-5.06 5.1c-.75.76-1.17 1.77-1.16 2.84s.43 2.08 1.18 2.83L64.22 88c.75.75 1.76 1.16 2.813 1.16h.2l.41.4-.11-.004c-3.68 0-7.33 2.28-10.01 6.26-1.52 2.27-2.4 5.19-2.61 8.67l-4.2-1.41c-.42-.143-.85-.21-1.27-.21-1.67 0-3.23 1.056-3.79 2.727l-1.7 5.055c-.19.57-.242 1.16-.18 1.73-1.06 1.22-1.91 2.75-2.51 4.525-1.78 5.3.16 12.06 6.49 14.18 1.12.38 2.25.57 3.35.57.486 0 .95-.04 1.4-.1.41 1.08 1.287 1.98 2.47 2.38l4.47 1.5c-.41 3.19-.61 6.41-.61 9.63 0 12.95 3.314 25.14 9.13 35.772-1.093 1.64-2.143 3.35-3.082 5.173-1.45 2.78-2.68 5.794-3.4 9.076-.35 1.64-.57 3.36-.51 5.15.06 1.79.36 3.68 1.24 5.49.83 1.82 2.3 3.45 4.03 4.49 1.73 1.035 3.6 1.51 5.34 1.68 3.48.3 6.52-.38 9.23-1.19 2.71-.83 5.1-1.89 7.24-2.95.36-.18.7-.365 1.05-.55 3.19 2.25 11.64 7.92 18.1 9.49l5.09.24-.17-.26c6.82 2.05 14.04 3.16 21.51 3.16 41.24 0 74.79-33.55 74.79-74.792 0-20.02-7.92-38.21-20.77-51.64 4.75-.41 10.62-1.31 16.22-3.23zm-48.62-28.418l10.428-3.61 8.222 23.93c-.935-.6-1.884-1.18-2.846-1.74.036-1.012-.026-2.022-.156-2.986-.81-6.01-6.423-6.7-6.423-6.7 1.48-2.4-.168-6.69-3.69-8.22-2.237-.97-4.468-.66-6.325.02.19-.32.456-.57.79-.68zM78.8 204.65c-2.208.754-4.615 1.28-6.785 1.142-1.075-.075-2.054-.327-2.84-.757-.766-.45-1.383-1.052-1.82-1.925-.914-1.73-.99-4.386-.493-6.982.503-2.624 1.476-5.278 2.702-7.786.415-.867.87-1.71 1.34-2.545 3.934 6.018 8.707 11.433 14.156 16.085l-.07.04c-1.884 1-3.967 1.982-6.19 2.73z"/><path fill="#FFF" d="M130.542 67.207c-1.008 0-2.032.022-3.07.067-.324-1.175-.938-2.218-1.763-3.06l.5-7.746c.02-.276.01-.554-.03-.828l-.84-5.83c-.29-1.995-2-3.435-3.96-3.435-.19 0-.38.013-.57.04l-7.34 1.047c-1.02.145-1.94.683-2.57 1.487-.4-.68-.99-1.23-1.7-1.57-.55-.27-1.15-.4-1.74-.4-.45 0-.89.07-1.32.22l-7.29 2.54c-2.09.72-3.19 3-2.47 5.09l1.16 3.35c-2.18 1.11-3.92 2.91-4.96 5.18-.1.22-.19.44-.28.66-.59-.76-1.44-1.28-2.39-1.47-.25-.05-.51-.08-.76-.08-.79 0-1.57.23-2.24.68l-6.65 4.49c-.23.15-.43.32-.61.51-.25.1-.48.23-.7.37l-6.22 4.2c-.47.31-.85.71-1.14 1.16l-2.6-2.58c-.78-.77-1.8-1.16-2.82-1.16-1.03 0-2.06.39-2.84 1.18l-5.05 5.12c-.75.75-1.17 1.77-1.16 2.83s.43 2.08 1.18 2.82l2.84 2.81c.75.75 1.76 1.16 2.81 1.16h.19l.4.4h-.11c-3.69 0-7.34 2.28-10.02 6.26-1.53 2.27-2.41 5.19-2.61 8.67l-4.2-1.41c-.43-.14-.85-.21-1.28-.21-1.67 0-3.23 1.06-3.79 2.73l-1.7 5.05c-.19.57-.25 1.16-.18 1.73-1.06 1.22-1.91 2.75-2.51 4.53-1.78 5.3.16 12.05 6.48 14.18 1.12.37 2.24.56 3.35.56.48 0 .95-.04 1.4-.1.41 1.08 1.28 1.98 2.47 2.38l4.46 1.5c-.41 3.19-.62 6.41-.62 9.63 0 41.24 33.55 74.79 74.8 74.79 41.24 0 74.79-33.55 74.79-74.8 0-41.24-33.55-74.79-74.79-74.79z"/><path fill="#D0D1D2" d="M170.395 118.798s15.723-4.065 5.208 10.967l-2.095-2.472-3.113-8.495z"/><circle fill="#FFD527" cx="130.542" cy="141.999" r="70.793"/><path fill="#660704" d="M74.992 157.85l.636 28.184 27.64 1 4.18-30.638"/><path fill="#A8170C" d="M137.09 147.778c-.01-.064-.02-.128-.034-.192-.06-.263-.14-.517-.237-.763-.04-.092-.08-.18-.13-.27-.08-.167-.17-.327-.27-.483-.1-.166-.21-.324-.33-.478-.07-.085-.14-.17-.21-.25-.46-.522-1.02-.95-1.66-1.244-.26-.12-.53-.21-.81-.284l-.03-.01c-.42-.11-.84-.187-1.29-.187h-2.54c-.29 0-.57.038-.85.085H69.44v16.216h15.372v.002h43.933c.273.045.55.084.835.084h2.534c2.798 0 5.067-2.27 5.067-5.07v-6.25c.01-.31-.03-.61-.09-.906z"/><path fill="#D81405" d="M75.69 154.935c0 2.8-2.27 5.07-5.067 5.07h-2.535c-2.798 0-5.068-2.27-5.068-5.07v-6.25c0-2.8 2.27-5.067 5.068-5.067h2.535c2.798 0 5.067 2.27 5.067 5.067v6.25z"/><path fill="#FF9997" d="M72.775 144.113l-9.755 9.755v1.066c0 1.664.812 3.127 2.05 4.05l10.59-10.59c-.11-1.9-1.25-3.51-2.885-4.28zm-5.098 15.85l8.014-8.014v-2.16l-9.72 9.72c.53.24 1.11.39 1.71.44z"/><path opacity=".4" fill="#660704" d="M92.478 143.698h-8s2.183 3.88.85 7.517-11.756 23.89-9.452 35.285l1.5 2.25 6.132-3.594 13.456-38.063-4.486-3.395z"/><path fill="#E5E5E5" d="M161.532 90.617c-3.356.304-6.538-1.894-7.736-5.35L146.22 63.41c-1.403-4.057.487-8.408 4.216-9.704l11.656-4.036c.51-.176 1.04-.292 1.576-.34 3.357-.307 6.538 1.895 7.735 5.353l7.576 21.855c1.4 4.056-.49 8.407-4.22 9.7l-11.66 4.038c-.51.178-1.04.293-1.58.34zm2.616-36.018c-.11.01-.22.03-.324.07L152.17 58.7c-.96.333-1.397 1.692-.95 2.972l7.57 21.854c.504 1.455 1.754 2.04 2.58 1.745l11.656-4.03c.956-.33 1.39-1.69.947-2.97L166.4 56.41c-.44-1.27-1.49-1.883-2.255-1.815z"/><path fill="#FFF" d="M121.624 172.37l1.244-.127c.39-.05.94-.072 1.462-.17l1.79-.32c.67-.186 1.43-.357 2.224-.607.774-.297 1.644-.552 2.48-1 1.71-.812 3.526-1.95 5.136-3.627 1.624-1.66 3.073-3.79 4.236-6.29 1.17-2.5 2.062-5.36 2.73-8.4.685-3.04 1.09-6.29 1.367-9.61.294-3.32.377-6.74.396-10.16-.01-3.42-.09-6.86-.27-10.24-.16-3.38-.4-6.71-.67-9.94-.27-3.23-.57-6.34-.89-9.3-.3-2.96-.65-5.75-.95-8.33-.64-5.16-1.22-9.45-1.65-12.45l-.67-4.72 6.85-.92.56 4.77c.35 3.03.84 7.38 1.35 12.6.24 2.61.53 5.44.76 8.44.25 3 .48 6.17.68 9.45.19 3.29.35 6.69.44 10.15.1 3.46.1 6.99.02 10.53-.11 3.54-.28 7.08-.67 10.58-.38 3.5-.89 6.94-1.72 10.25-.81 3.31-1.88 6.48-3.31 9.37-1.43 2.88-3.25 5.46-5.34 7.48-2.07 2.05-4.41 3.45-6.54 4.4-1.06.52-2.11.81-3.05 1.14-.96.28-1.86.46-2.66.65l-2.22.34c-.65.09-1.11.09-1.53.14l-1.25.09-.38-4.24z"/><path fill="#E5E5E5" d="M223.1 73.127l-16.022-46.632c-.008-.08.01-.166-.016-.24-.023-.073-.09-.13-.136-.2l-.007-.018h-.01c-1.5-2.113-12.71-.343-25.7 4.118-12.99 4.463-22.93 9.962-22.81 12.546l-.07.03 16.46 47.91s13.67.72 25.98-3.51 22.59-13.18 22.59-13.18l-.14-.38c-.01-.08.01-.16-.01-.24-.03-.07-.1-.12-.14-.19z"/><path fill="#DBDBDB" d="M184.14 38.664c-12.5 4.294-23.628 5.742-24.647 3.937-.568-2.1 9.364-7.74 21.86-12.04 12.496-4.29 23.102-6.28 24.644-3.93.33 2.41-9.363 7.75-21.858 12.05z"/><path fill="#BCBCBC" d="M183.545 36.937c-10.686 3.672-19.996 5.507-20.68 4.504-.288-1.22 8.395-5.48 19.08-9.15 10.685-3.67 19.61-5.79 20.68-4.5.066 1.43-8.396 5.49-19.08 9.16z"/><path fill="#B5971C" d="M202.388 38.897c-1.685.58-1.414 3.72 1.716 2.642 3.13-1.08 6.47 7.46 1.304 6.14-5.165-1.32-8.68 1.77-12.418 2.25-3.74.47-1.975 4.04-5.982 6.09s-7.377-1.1-7.377-1.1c-1.25-3.88-2.9-4.19-4.09-3.71l3.55 10.31c-2.36.98-4.48 1.37-5.58.21-1.38-1.46-3.28-2.27-4.38-1.52l-.12-.36c-.51.93-.64 1.76-.64 1.76l3.46 3.79 14.67 1.15 14.95-7.83s12.93.41 10.62-9.84c-2.31-10.24-7.95-10.59-9.63-10.02z"/><path fill="#BCBCBC" d="M183.582 74.653c.807 2.348-.443 4.907-2.793 5.715-2.35.807-4.91-.445-5.72-2.792l-8.94-26.003c-.81-2.35.44-4.907 2.79-5.714 2.35-.81 4.9.44 5.71 2.79l8.93 26zm16.873-3.643c.806 2.346-.445 4.907-2.792 5.715-2.35.807-4.91-.445-5.717-2.793l-8.933-26.002c-.807-2.353.443-4.91 2.79-5.716 2.35-.806 4.91.445 5.718 2.795l8.94 26zm15.23-7.385c.805 2.348-.444 4.907-2.794 5.714-2.35.8-4.9-.45-5.71-2.8l-8.93-26c-.8-2.36.45-4.91 2.8-5.72 2.35-.81 4.91.44 5.72 2.79l8.93 26z"/><path fill="#FFD527" d="M168.23 62.88l6.37 18.54s2.452 1.913 4.726 1.606c2.57-.347 17.717.644 35.798-11.76 0 0 2.8-2.038 3.183-4.055l-6.287-18.29s-8.91 2.66-10.61 1.63c-1.7-1.03-6.19.79-5.99-3.72.2-4.51-9.434-6.31-8.08 1.16 1.36 7.48 11.056 7.1 10.974 6.86 0 0-8.566.93-12.73 3.3s-9.97 5.85-12.084 3.61c-2.117-2.23-5.464-2.97-5.265 1.14z"/><path fill="none" d="M197.552 54.93c-.63.01-1.603-.052-2.713-.267l.22.646c1.04-.18 1.91-.31 2.49-.38z"/><path fill="#BCBCBC" d="M173.734 57.354c4.674.28-1.247-4.415.197-4.91 0 0 .67-.85 1.61-1.223l-.88-2.57c-.81-2.35-3.36-3.59-5.71-2.79-2.35.81-3.6 3.37-2.79 5.72l2.85 8.3c.7-1.24 2.07-2.67 4.75-2.51z"/><path fill="#967D14" d="M173.493 61.746c1.105 1.167 3.222.77 5.583-.208l-3.543-10.316c-.938.372-1.602 1.222-1.602 1.222-1.44.496 4.48 5.192-.19 4.91-2.67-.158-4.05 1.27-4.74 2.517l.13.36c1.11-.74 3.01.06 4.38 1.52z"/><path fill="#DBBB37" d="M198.308 54.836s-.282.033-.756.094c.477-.01.77-.053.756-.094z"/><path fill="#F2C716" d="M180.79 80.368c2.35-.81 3.6-3.367 2.792-5.715l-4.506-13.115c-2.36.98-4.478 1.374-5.583.208-1.378-1.46-3.278-2.267-4.38-1.52l5.96 17.35c.808 2.347 3.366 3.6 5.716 2.792z"/><path fill="#967D14" d="M192.99 49.935c-3.74.476-1.976 4.043-5.983 6.093-.366.188-.723.29-1.075.396l3.037 8.84 8.06-4.22-3.83-11.15c-.08.007-.14.03-.21.04z"/><path fill="#F2C716" d="M197.663 76.726c2.347-.808 3.598-3.37 2.792-5.716l-5.395-15.7c-2.583.443-6.16 1.22-8.683 2.412l5.568 16.21c.808 2.35 3.368 3.6 5.718 2.794z"/><path fill="#967D14" d="M202.388 38.897c-1.685.58-1.414 3.72 1.716 2.642 3.13-1.08 6.47 7.46 1.304 6.14-1.748-.45-3.295-.37-4.738-.08l3.747 10.91c2.807-.45 6.665-1.77 7.626-5.49l-4.33-12.61c-2.162-1.88-4.372-1.85-5.325-1.53z"/><path fill="#F2C716" d="M187.335 47.975c.813 4.47 4.6 6.124 7.504 6.688l-3.32-9.653c-.29-.845-.81-1.538-1.46-2.054-1.84.293-3.32 1.784-2.73 5.02zM212.89 69.34c2.35-.808 3.6-3.367 2.794-5.715l-4.932-14.354c-2.36.65-7.345 1.89-9.035 1.39l5.458 15.89c.806 2.35 3.366 3.6 5.716 2.79z"/><path fill="#BCBCBC" d="M204.104 41.54c-3.13 1.077-3.4-2.06-1.716-2.642.953-.324 3.163-.353 5.324 1.524l-.96-2.798c-.81-2.353-3.37-3.6-5.717-2.793-2.35.81-3.6 3.37-2.793 5.72l2.427 7.06c1.44-.29 2.99-.37 4.73.08 5.16 1.32 1.82-7.22-1.31-6.14z"/><path fill="#FFF" d="M146.844 62.138s5.43-5.127 10.857-2.767c3.53 1.54 5.18 5.82 3.7 8.23 0 0 5.62.69 6.43 6.71.81 6.02-.96 13.87-13.45 12.7-11.03-1.04-15.01-5.63-15.01-5.63s-11.5-18.99-1.58-22.18c9.92-3.19 8.27 1.45 9.08 2.96z"/><path fill="#D0D1D2" d="M146.91 62.842S151.562 74.06 142 78.1c0 0 14.172-2.143 4.91-15.258z"/><path fill="#D0D1D2" d="M161.393 67.596s-9.395-.276-11.19 4.487c0 0 2.127-2.564 11.19-4.487zm4.15 10.816s-12.66 9.33-16.717-1.272c0 0 1.08 11.023 12.473 5.75 0 0 5.31-1.495 4.24-4.478z"/><path fill="#E5E5E5" d="M167.703 83.087l-6.327 2.192c-.77.27-1.878-.25-2.44-1.49-2.39.72-4.223.63-5.622.07l.482 1.39c1.198 3.45 4.38 5.65 7.736 5.35.537-.05 1.066-.17 1.576-.34l5.827-2.02-1.232-5.18z"/><path fill="#FFF" d="M128.906 193.883c-3.092-12.73 2.182-19.82 2.182-22.002l-26.366-42.24c-12.955 10-25.418 36.43-28.84 57.36 12.983 15.76 32.647 25.81 54.66 25.81 3.182 0 6.31-.23 9.38-.64-.325-6.48-2.537-13.46-11.016-18.27z"/><path fill="#D0D1D2" d="M133.27 202.065c-2.182-2.546-4-3.455-6.85-5.03-2.736-1.515-1.696-17.153.85-21.154l-20.972-16.91c-3.376 5.28-13.907 25.56-13.035 43.21 10.828 6.72 23.596 10.62 37.28 10.62 1.914 0 3.805-.1 5.683-.24-.067-3.7-.724-7.58-2.956-10.48z"/><ellipse transform="rotate(92.26 141.96 144.71)" fill="#FFF" cx="141.952" cy="144.708" rx="35.318" ry="44.078"/><ellipse transform="rotate(92.26 147.13 141.38)" fill="#D0D1D2" cx="147.13" cy="141.382" rx="28.138" ry="36.887"/><ellipse transform="rotate(92.26 167.06 139.69)" fill="#FFF" cx="167.055" cy="139.681" rx="14.896" ry="15.115"/><ellipse transform="rotate(92.26 131.93 138.62)" fill="#FFF" cx="131.929" cy="138.623" rx="18.532" ry="18.656"/><path fill="#919396" d="M109.63 124.052c.01-.012-5.682 7.707-5.814 10.298l-1.18-2.115s-8.847-13.904 6.994-8.183z"/><path fill="#D0D1D2" d="M113.682 121.854s-8.564-6.15-14.558-2.687c0 0-7.82 6.084 2.225 16.92l2.42 2.91s2.01-1.364 1.74-4.505c0 0-11.58-14.15 5.13-8.976 0 .004 2.73-.083 3.04-3.662z"/><circle fill="#0071BC" cx="129.056" cy="136.545" r="14.078"/><circle fill="#0F4481" cx="126.572" cy="134.111" r="7.231"/><circle fill="#FFF" cx="128.204" cy="133.862" r="3.843"/><circle fill="#FFF" cx="119.4" cy="134.188" r="1.871"/><circle fill="#0071BC" cx="165.349" cy="139.126" r="11.576"/><circle fill="#0F4481" cx="163.307" cy="137.124" r="5.945"/><circle fill="#FFF" cx="164.648" cy="136.919" r="3.161"/><circle fill="#FFF" cx="157.407" cy="137.186" r="1.537"/><path fill="#D0D1D2" d="M112.904 144.304s15.546-11.638 38.366-1.728l-2.364 9-15.637 9.274-15.1-5.273-5.27-10.91m38.82-2s20-5.91 30.09 4.455l-10.55 9-6.55 1.092-9.91-5.91-3.09-8.637z"/><linearGradient id="a" gradientUnits="userSpaceOnUse" x1="131.344" y1="153.449" x2="133.526" y2="124.115"><stop offset="0" stop-color="#FFF" stop-opacity="0"/><stop offset="1" stop-color="#A8170C"/></linearGradient><path fill="url(#a)" d="M112.904 144.304s15.546-11.638 38.366-1.728l-2.364 9-15.637 9.274-15.1-5.273-5.27-10.91"/><linearGradient id="b" gradientUnits="userSpaceOnUse" x1="167.485" y1="150.123" x2="165.485" y2="135.486"><stop offset="0" stop-color="#FFF" stop-opacity="0"/><stop offset="1" stop-color="#A8170C"/></linearGradient><path fill="url(#b)" d="M151.725 142.667s20-5.91 30.093 4.455l-10.546 9-6.546 1.092-9.91-5.91-3.09-8.637z"/><path fill="#BE202E" d="M146.41 151.097s1.674 15.2 6.68 15.51c5.003.313 4.295-15.75 4.295-15.75s-3.322 1.05-4.947-1.575c0 0-1.707 4.047-6.26 2.112"/><path fill="#6D6F71" d="M159.183 144.198c.06-.038.31.212.64.738.327.526.765 1.334.954 2.47.113.807-.003 1.807-.608 2.623-.63.79-1.6 1.26-2.56 1.48-.99.24-2.09.3-3.17-.05-.28-.07-.54-.19-.8-.35-.27-.13-.5-.33-.71-.56-.11-.12-.24-.21-.31-.35l-.12-.21-.01-.02c-.01-.02-.01-.01-.01-.01v-.01l-.45.74-.62.62c-.91.75-2.11.96-3.13.81-1.04-.13-1.96-.57-2.69-1.14-.76-.54-1.32-1.25-1.7-1.98-.55-1.01-.48-1.99-.41-2.59.19-.61.32-.91.39-.89.07.02.07.37.02.92.06.56.1 1.38.64 2.2.35.6.86 1.2 1.53 1.65.65.47 1.45.82 2.31.91.84.1 1.74-.09 2.41-.65l.46-.48.35-.61c.24-.5.37-1.05.56-1.58l.26-.81.13-.39.06-.18.01-.04.01.06.02.13.06.31c.12.67.23 1.35.44 1.99l.14.47.07.14c.04.1.14.16.21.24.14.16.3.3.5.4.18.12.38.22.6.27.85.28 1.79.26 2.65.06.88-.19 1.64-.56 2.11-1.12.45-.57.59-1.32.53-2.02-.23-1.99-1.05-3.2-.86-3.28z"/><path fill="#0B8ECC" d="M152.497 142.407s-1.824-4.045-4.698 2.895l4.29 3.936 3.96-3.333c0-.002-2.27-6.596-3.57-3.498z"/><path fill="#FFF" d="M148.692 145.27l1.848 1.68s-.35-2.374-1.848-1.68zm5.196 1.812l1.378-1.038s-.973-.52-1.378 1.038z"/><path fill="#AFAFAF" d="M108.5 191.22s11.458 4.935 11.03 9.094c-.466 4.51-3.308 8.323-12.544 3.88"/><path fill="#D0D1D2" d="M86.083 193.096c-.693.754-1.492 1.42-2.335 2.004.906.8 1.834 1.576 2.78 2.33l6.192-3.03 3.152-9.243c-4.152-.123-7.14 5.06-9.79 7.94zm-1.363 10.12s11.273 8.456 19.396 10.427l5.092.24-9.213-13.938-15.275 3.272z"/><path fill="#FFF" d="M91.797 157.292l-.864.652c-.57.426-1.393 1.05-2.386 1.846-1.002.794-2.228 1.794-3.583 2.972-1.362 1.175-2.863 2.538-4.44 4.082-3.16 3.075-6.626 6.896-9.74 11.358-1.538 2.235-3.016 4.618-4.224 7.14-1.227 2.508-2.2 5.162-2.702 7.786-.498 2.597-.42 5.25.492 6.982.438.873 1.055 1.475 1.822 1.925.786.43 1.764.682 2.84.757 2.17.138 4.576-.388 6.783-1.14 2.224-.748 4.307-1.73 6.19-2.73 3.768-2.03 6.762-4.12 8.825-5.613 1.033-.75 1.833-1.36 2.375-1.78l.834-.64 4.18 5.5-.91.65c-.59.43-1.45 1.05-2.58 1.82-2.25 1.53-5.51 3.68-9.77 5.83-2.14 1.06-4.53 2.11-7.24 2.95-2.71.81-5.75 1.49-9.24 1.19-1.73-.18-3.6-.65-5.34-1.68-1.73-1.04-3.21-2.68-4.03-4.49-.88-1.81-1.18-3.71-1.24-5.49-.06-1.8.16-3.52.51-5.16.73-3.29 1.96-6.3 3.41-9.08 1.43-2.8 3.12-5.35 4.85-7.72 3.49-4.72 7.26-8.64 10.66-11.78 1.7-1.57 3.3-2.96 4.76-4.14 1.45-1.2 2.73-2.19 3.82-3 1.09-.82 1.93-1.43 2.51-1.83l.88-.63 2.52 3.43z"/><path fill="#FFF" d="M86.447 195.664s-.23 7.13 10.35 7.13c0 0 0 3.452 2.99 8.052 0 0 2.99 2.988 7.59 1.61 0 0 3.066 1.38 5.137-.078 2.07-1.456 4.982-18.017-5.52-24.838-10.503-6.823-19.014 3.523-20.547 8.124z"/><path fill="#D0D1D2" d="M105.844 200.802s2.3 5.826 1.533 11.653c0 0 2.224-7.818 1.38-11.958 0 0-2.3-.386-2.913.305z"/><circle fill="none" stroke="#FFF" stroke-miterlimit="10" cx="82.902" cy="120.059" r="5.212"/><circle fill="#FFF" cx="92.479" cy="99.087" r="3.395"/><circle fill="#FFF" cx="157.573" cy="190.609" r="5.697"/><circle fill="none" stroke="#FFF" stroke-miterlimit="10" cx="128.724" cy="90.481" r="7.637"/><circle fill="none" stroke="#FFF" stroke-miterlimit="10" cx="171.757" cy="107.33" r="3.878"/><path d="M53.17 127.074l1.836-5.466c2.47.83 3.71-1.5 4.183-2.715.34-1.03.6-2.577-.63-2.992-2.3-.77-5.12 10.84-12.61 8.33-4.35-1.46-4.94-6.23-3.97-9.11.83-2.47 2.46-4.7 5.06-5.13l-2.37-1.12 1.7-5.05 7.37 2.48-1.79 5.32c-2.18-.73-3.98.56-4.67 2.62-.29.85-.16 2.2.87 2.55 3.02 1.02 6.23-10.86 13.14-8.54 4.58 1.54 4.79 6.39 3.61 9.88-1 2.97-3.07 4.56-4.77 5.24l2.15 1.08-1.73 5.15-7.41-2.49zm2.66-25.264c.074-1.445.353-4.47 1.944-6.838 2.077-3.087 5.847-6.193 9.99-3.407l5.016 3.374 1.038-1.55 3.292 2.21-3.7 5.5-1.57-.16c.67 1.83-.062 3.65-.69 4.58-1.64 2.44-4.72 4.18-7.7 2.18-2.906-1.96-3.09-5.63-1.134-8.54 1.02-1.52 2.373-1.92 2.614-1.95l-.9-.61c-1.16-.78-2.15.08-3.085 1.47-1.02 1.52-1.28 3.29-1.397 4.63l-3.71-.93zm12.048-2.583c-.18-.01-1.04-.064-1.767 1.016-.69 1.03-.43 1.873.36 2.41.72.483 1.61.22 2.13-.55.52-.773.49-1.728.26-2.218l-.97-.658zm9.737-3.56l-2.882-2.86.94-.946-10.783-10.7-.917.93-2.838-2.81 5.065-5.11 13.62 13.51 1.29-1.29 2.88 2.86-6.375 6.43zm3.607-23.804l4.18 6.193c1.493 2.21 2.52 3.012 3.575 2.3.9-.606 1.08-1.89.3-3.045l-2.76-4.08-1.695 1.15-2.29-3.39 6.655-4.49 6.367 9.43 1.26-.85 2.306 3.42-4.85 3.28-1.78-1.15c-.13 1.03-.13 2.97-2.31 4.44-3.88 2.62-6.52 1.49-9.4-2.78l-2.393-3.54-1.08.73-2.29-3.39 6.22-4.19zm20.294-14.535l-1.325-3.807 7.3-2.53 6.32 18.16 1.41-.49 1.33 3.81-6.85 2.39-.87-.91c-.26.49-1.2 1.93-3.22 2.63-4.13 1.44-8.07-1.29-9.48-5.36-1.59-4.57.6-8.58 4.2-9.83 2.08-.72 3.4-.33 4.08-.17l-1.51-4.33-1.35.47zm4.242 14.544c1.142-.397 1.697-2.2.774-4.472-.693-1.99-2.22-3.167-3.332-2.78-1.23.428-1.58 2.158-.805 4.384.613 1.757 2.075 3.316 3.363 2.868zm8.302-20.45l7.333-1.046.833 5.83-.523 7.965-4.05.58-2.76-7.49-.833-5.83zm5.525 14.585c2.18-.31 3.866.982 4.116 2.73.25 1.72-.96 3.363-3.2 3.683-1.99.285-3.72-1.065-3.94-2.66-.22-1.535.83-3.438 3.04-3.753z" fill="#FFD527"/></svg>