<svg xmlns="http://www.w3.org/2000/svg" width="250" height="250" viewBox="0 0 250 250"><path opacity=".15" d="M217.958 106.958L111.933 44.6l-5.61 21.765c-.804-.205-1.628-.31-2.47-.31-7.257 0-14.29 7.467-21.928 23.385-3.582-4.483-9.446-10.087-16.38-10.087-4.967 0-9.393 2.792-13.16 8.3-1.074 1.08-1.996 2.796-2.104 4.89h-.26c-5.47 0-9.82 1.526-12.58 4.414-2.44 2.555-3.59 6.002-3.4 10.25l.03.537.19.504c.32.893 8.02 21.56 31.75 28.737 1.89 3.176 5.15 7.17 9.73 11.92-3.38 5.904-5.16 12.523-5.16 19.313 0 22.125 18.75 40.127 41.8 40.127 20.13 0 37.02-13.488 40.94-32 1.02.46 1.58.88 1.71.98l1.15 1.184 1.82-.31c2.22-.38 3.41-1.55 4.01-2.48.98-1.48 1.03-3.22.75-4.36l-.28-1.14-.9-.75c-2.05-1.7-4.56-2.9-7.46-3.59-.15-2.46-.52-4.88-1.13-7.27 4.87-3.53 4.7-8.49 3.75-10.92l-.09-.22-.11-.22c-.85-1.53-2.15-2.76-3.86-3.64-1-.55-2.13-.97-3.37-1.26-.89-2.02-2.01-3.97-3.33-5.81l22.24 12.87 49.8-42.5z"/><path fill="#F47F38" d="M215.994 104.013L109.97 41.656l-5.61 21.764c-.805-.205-1.63-.31-2.47-.31-7.258 0-14.29 7.468-21.93 23.386-3.58-4.483-9.445-10.088-16.378-10.088-4.968 0-9.394 2.793-13.162 8.3-1.073 1.08-1.995 2.798-2.103 4.892h-.265c-5.468 0-9.82 1.525-12.585 4.414-2.445 2.554-3.59 6.002-3.406 10.25l.03.536.18.504c.32.894 8.02 21.56 31.75 28.738 1.89 3.176 5.15 7.17 9.73 11.92-3.38 5.904-5.16 12.523-5.16 19.31 0 22.128 18.75 40.13 41.8 40.13 20.13 0 37.02-13.488 40.94-32 1.02.46 1.58.88 1.71.98l1.16 1.184 1.82-.305c2.22-.37 3.4-1.55 4.01-2.47.98-1.48 1.03-3.22.75-4.35l-.28-1.13-.9-.74c-2.06-1.7-4.56-2.89-7.46-3.58-.14-2.45-.52-4.88-1.13-7.26 4.87-3.53 4.7-8.49 3.75-10.91l-.08-.22-.11-.21c-.85-1.53-2.15-2.76-3.86-3.64-.99-.55-2.12-.96-3.37-1.26-.89-2.02-2-3.96-3.32-5.81l22.23 12.88 49.81-42.5z"/><path fill="#FAAF40" d="M97.823 102.87l9.75 14.036-.487-16.578"/><path fill="#FFCC7A" d="M112.21 47.056L97.823 102.87l67.975 39.353 44.157-37.68"/><ellipse fill="#FAAF40" cx="110.376" cy="165.271" rx="38.276" ry="36.611"/><path fill="#FFF" d="M129.03 169.268s18.825-7.818 28.3 0c0 0 .516 2.11-1.928 2.52 0 0-7.223-6.806-24.993-1.08"/><path fill="#E6E7E8" d="M137.493 166.74l-1.425 2.473s-5.438 1.352-6.29 1.762c-.856.41-.747-4.506-.747-4.506l6.37-.68 2.1.94z"/><path fill="#FFF" d="M97.025 170.713s-6.51.12-8.178 2.81c0 0-1.297 1.833.902.978 0 0-1.51 2.3 1.2 1.41 0 0-1.04 2.23 1.5 1.04l6.69-4.61m16.62 8.04s4.83 7.76 3.37 11.7c0 0-.96.84-1.43-.99 0 0-1.41 3.46-2.46-.12 0 0-1.41 2.68-2.31-.73 0 0-.52-8.99-.62-10.77"/><path fill="#E6E7E8" d="M95.45 171.006s-1.935 2.496 1.32 2.943c3.26.44 1.475-3.37-1.32-2.95zm17.19 12.498s2.57 3.137 4.53-.338c-.002 0-2.993-2.69-4.53.338z"/><ellipse transform="rotate(-69.7 112.7 166.5)" fill="#FFF" cx="112.648" cy="166.472" rx="16.85" ry="18.302"/><path fill="#E6E7E8" d="M124.554 179.895s2.25-4.418 2.514-6.77l1.964 1.447s-.966 2.533-4.478 5.323z"/><path fill="#FFF" d="M97 157.293s-13.972-16.59-15.65-38.063l-15.69 9.747s-.325 6.652 30.134 32.553"/><path fill="#E6E7E8" d="M92.325 150.646s2.28 4.99 2.854 10.36c0 0 2.2-1.614 5.9-.567l-8.77-9.8z"/><path fill="#D0D1D2" d="M105.65 122.248s-6.32-8.666-7.255 3.417l2.107-.385 5.148-3.032z"/><path fill="#919396" d="M102.022 124.006s-2.406-5.538-2.77 1.007c-.362 6.546 2.77-1.007 2.77-1.007z"/><path fill="#FFF" d="M143.85 159.852c-6.156 11.314-22.595 14.268-36.722 6.586-14.127-7.68-20.59-23.082-14.435-34.4 6.153-11.32 22.595-14.27 36.722-6.588 14.125 7.68 20.588 23.08 14.435 34.402z"/><path fill="#D0D1D2" d="M100.623 156.207s-2.87 12.834 5.318 3.52l-5.31-3.52z"/><ellipse transform="rotate(-61.5 114.3 144.4)" fill="#D0D1D2" cx="114.299" cy="144.421" rx="18.585" ry="24.365"/><path fill="#D0D1D2" d="M142.275 142.67s6.938-.592 9.166 3.398c0 0 2.39 6.096-6.98 8.848l-2.36.83s-.68-1.453.54-3.145c0 0 11.36-4.1.13-6.82 0 0-1.52-.97-.48-3.1z"/><path fill="#BE202E" d="M102.022 153.332s-4.544 16.984 5.072 3.316c0 0-1.092-2.057-1.49-3.56 0 .004-2.852.635-3.582.244z"/><ellipse transform="rotate(-61.5 103.5 136.9)" fill="#FFF" cx="103.475" cy="136.894" rx="9.837" ry="9.982"/><ellipse transform="rotate(-61.5 123.8 148.2)" fill="#FFF" cx="123.769" cy="148.174" rx="12.241" ry="12.321"/><path fill="#919396" d="M143.592 145.16c0-.012.617 6.293-.182 7.81l1.382-.802c0-.002 9.722-4.898-1.2-7.008z"/><path fill="#D0D1D2" d="M142.037 142.54s6.94-.59 9.167 3.4c0 0 2.38 6.097-6.98 8.85l-2.364.83s-.68-1.454.54-3.146c0 0 11.353-4.11.122-6.828 0 0-1.524-.97-.485-3.105z"/><path fill="#6D6F71" d="M106.416 151.207l-1.393 2.227.366.156 1.34-2.246"/><path fill="#6D6F71" d="M100.624 149.154s-.292 5.188 4.652 3.875l.113.56s-6.34 1.17-5.17-4.61l.4.17z"/><path fill="#6D6F71" d="M105.604 153.092s2.108 7.07 7.064 3.314l.255.21s-4.372 4.6-7.9-3.183l.58-.34z"/><path fill="#6D6F71" d="M112.023 155.855s2.547-.102 1.015 1.742c0 0 2.228-2.087-1.015-1.742z"/><path fill="#D0D1D2" d="M104.517 162.752s-5.493 4.25-8.084 10.514c0 0 1.717 4.662 6.912 7.334 0 0 4.38 2.996 9.756 2.896 0 0 2.74-9.893 1.21-17.61 0 0-4.81-.366-9.79-3.134z"/><path fill="#FFF" d="M137.484 177.453s.334 1.262-.317 1.832c0 0-.447.365 0 .895 0 0 .604.53.405-.73 0 0 1.102-.244.775 1.1 0 0 .814.162.692-.652 0 0 .4.408.53-.324 0 0-.44-1.285-1.1-2.432-.66-1.15-1 .31-1 .31z"/><path fill="#E6E7E8" d="M90.068 174.313s.75-.69 2.257-.98c0 0-1.998.272-3.462 1.34 0-.003.954-.17 1.205-.36zm.77 1.6s2.156-1.237 2.34-1.48c0 0-1.382 1.16-1.993 1.364l-.347.117zm26.884 15.167s.123-2.002-.427-3.527c0 0 .84 1.705.582 4.02l-.155-.493z"/><path d="M120.47 66.456l-3.763-2.257c-1.194 2.71-1.75 4.09-2.778 6.9l2.44 1.44c-.61 1.6-.9 2.41-1.46 4.05l-2.4-1.41c-1.55 4.75-2.21 7.19-3.28 12.18l-2.45-1.41c1.88-9.42 4.86-18.61 8.92-27.31 2.64 1.6 3.96 2.4 6.6 3.99-.77 1.5-1.14 2.26-1.85 3.79zm.882 19.342c-.314.917-.467 1.378-.764 2.304-.693 1.908-1.475 3.073-2.567 3.7-.55.32-1.19.27-1.93-.158-1.47-.843-1.89-2.655-1.89-4.23 0-.912.11-1.906.38-2.934 1.18-4.138 1.86-6.165 3.38-10.123.81-1.864 1.84-2.982 3.16-3.51.65-.257 1.39-.14 2.22.352 1.63.96 1.88 2.7 1.71 4.13-.09.85-.31 1.74-.67 2.67-.95 2.23-1.39 3.36-2.23 5.65l-3.96-2.32c-.59 1.74-.87 2.62-1.4 4.4-.21.79-.24 1.46-.14 1.97.06.24.19.46.4.58.44.25.77-.11 1.04-.58.14-.26.28-.58.41-.99.28-.89.42-1.33.71-2.22l2.21 1.28zm-2.187-7.323l1.757 1.032c.42-1.105.637-1.655 1.083-2.745.305-.744.45-1.353.365-1.896-.037-.24-.202-.47-.423-.602-.467-.277-.854.076-1.197.523-.183.24-.343.545-.524.924-.437 1.1-.65 1.66-1.06 2.77zm1.482 15.438c2.523-8.983 6.134-17.65 10.763-25.754l2.594 1.56c-5.595 9.46-7.86 14.63-11.07 25.5l-2.287-1.31zM136.06 70.97l2.593 1.57c-.798 1.274-1.186 1.918-1.94 3.224l-2.556-1.532c.74-1.32 1.12-1.972 1.902-3.26zm-11.312 25.296c2.462-8.023 4.058-11.892 7.857-19.167l2.52 1.5c-3.887 7.2-5.534 11.03-8.09 18.97-.914-.53-1.372-.79-2.287-1.31zm7.82-.926c-.278.7-.577 1.56.045 1.92.53.304.812-.005 1.277-1.154.43-1.06.648-1.583 1.104-2.63.95.554 1.425.83 2.375 1.382-.33.722-.49 1.083-.8 1.81-.91 2.097-1.69 3.318-2.5 3.875-.82.556-1.65.465-2.63-.093-.82-.467-1.44-1.253-1.66-2.45-.21-1.196-.03-2.855.81-5.002 1.31-3.366 2.04-5.014 3.61-8.24 1-2.06 2.07-3.206 3.09-3.684s2.03-.305 2.93.23c1.07.642 1.7 1.405 1.79 2.5.09 1.094-.37 2.503-1.44 4.504-.31.564-.45.848-.75 1.417l-2.43-1.435c.44-.89.66-1.33 1.12-2.2.57-1.09.63-1.54.06-1.87-.67-.4-1.11.38-1.45 1.04-2.03 3.92-2.95 5.93-4.58 10.07zm16.125-16.73l2.592 1.57c-.876 1.205-1.303 1.817-2.137 3.053l-2.552-1.534c.82-1.25 1.238-1.87 2.097-3.09zm-12.797 24.05c2.92-7.656 4.747-11.338 8.978-18.24l2.517 1.502c-4.31 6.826-6.19 10.47-9.2 18.05l-2.29-1.312zm9.88 5.662l-2.286-1.312c.213-.487.318-.73.537-1.216-.63.315-1.156.52-1.71.587-.295.04-.552-.02-.756-.13-.63-.36-.81-1.17-.8-2.03.01-.83.26-1.85.61-2.63 2.13-4.72 3.33-7.01 5.99-11.43.44-.73 1.12-1.48 1.85-1.95.69-.43 1.5-.65 2.19-.23.48.29.77.93.9 1.48.09.34.14.68.2 1.06 1.82-2.74 2.79-4.08 4.81-6.68l2.59 1.57c-6.76 8.44-9.64 13.1-14.11 22.94zm5.04-15.22c.31-.5.278-1.245-.09-1.464-.37-.218-.94.04-1.307.64-2.37 3.86-3.45 5.85-5.4 9.948-.3.634-.25 1.263.1 1.462.34.2.91-.068 1.22-.698 1.98-4.073 3.08-6.05 5.47-9.887zm7.954 5.134c.186-.27.498-.7.617-1.035.12-.33.062-.68-.26-.87-.417-.25-.882.04-1.267.48-.19.22-.4.49-.585.76l-.527.79-2.45-1.44c.182-.28.27-.42.456-.71.8-1.22 1.914-2.1 3.08-2.55s2.368-.41 3.34.17c.825.5 1.286 1.32 1.372 2.3s-.25 2.1-1.016 3.17c-2.86 3.99-4.18 6.06-6.555 10.34-.866 1.56-1.16 2.31-1.47 3.14l-2.242-1.28c-.025-.48.4-1.32.517-1.55l-.16-.09c-.264.23-.68.53-1.177.71-.494.18-1.05.19-1.504-.06-.3-.17-.68-.63-.75-1.48-.07-.83.12-2.16 1.08-4.02 1.03-1.98 2.25-3.14 3.38-3.75 1.12-.61 2.22-.78 3.07-.83.85-.04 1.49-.05 1.81-.33.48-.73.72-1.09 1.22-1.81zm-3.05 4.682c-1.566-.028-2.968 1.23-3.876 2.9-.122.226-.307.63-.406 1.033-.107.44-.103.83.174.99.53.31 1.206.11 1.54-.5.983-1.79 1.495-2.68 2.567-4.42zm4.973 13.946c-.915-.524-1.376-.785-2.29-1.31.252-.454.38-.68.64-1.132-.676.28-1.236.455-1.813.5-.31.026-.573-.035-.776-.15-.634-.364-.773-1.14-.705-1.95.06-.787.38-1.744.8-2.47 2.51-4.407 3.9-6.534 6.93-10.632.5-.675 1.25-1.372 2.04-1.787.74-.392 1.58-.568 2.28-.15.47.284.73.897.84 1.424.06.325.1.65.14 1.01 2.05-2.543 3.14-3.78 5.39-6.182l2.59 1.57c-7.52 7.773-10.8 12.088-16.08 21.26zm6.2-14.24c.355-.464.368-1.17 0-1.39s-.976.01-1.393.565c-2.692 3.57-3.944 5.42-6.232 9.24-.354.59-.334 1.19.012 1.38s.95-.04 1.31-.63c2.316-3.8 3.582-5.63 6.304-9.19zm5.35 12.78c-.54.73-.807 1.095-1.33 1.834-1.174 1.512-2.29 2.396-3.65 2.81-.694.21-1.396.11-2.143-.318-1.472-.84-1.563-2.387-1.238-3.69.188-.76.52-1.57 1.03-2.4 2.174-3.32 3.345-4.93 5.84-8.057 1.278-1.463 2.64-2.286 4.233-2.59.776-.15 1.58.023 2.402.516 1.62.96 1.556 2.44 1.088 3.6-.28.69-.7 1.41-1.294 2.14-1.51 1.75-2.24 2.64-3.65 4.45-1.58-.93-2.38-1.39-3.96-2.32-1.02 1.38-1.51 2.08-2.47 3.51-.4.64-.58 1.19-.56 1.62.01.2.12.4.33.52.44.25.88-.02 1.28-.39.22-.2.44-.45.67-.78.49-.71.74-1.07 1.25-1.77l2.21 1.28zm-.946-6.285l1.756 1.03c.695-.88 1.05-1.31 1.77-2.17.49-.59.773-1.08.79-1.54.006-.2-.133-.41-.354-.54-.47-.28-.98-.03-1.45.31-.26.18-.49.42-.77.71-.71.86-1.06 1.3-1.75 2.18zm11.02 3.47c.32-.35.746-.79.945-1.18.186-.37.23-.77-.163-1.01-.32-.19-.77-.03-1.17.22-.4.25-.86.69-1.18 1.04-.42.46-.62 1.09-.7 1.7-.08.59-.08 1.28-.06 1.9.02.85.04 1.88-.18 2.85-.24 1-.66 2.04-1.46 3.05-.78.98-1.76 1.93-2.81 2.47-1.09.56-2.24.76-3.33.14-1.38-.79-1.65-2.09-1.42-3.35s1.01-2.55 1.62-3.4l2.19 1.27c-.33.43-.75 1.05-.93 1.6-.19.58-.24 1.14.24 1.41.67.38 1.52-.52 2.22-1.43.72-.94.72-2.32.67-3.6-.04-.97-.12-1.89.07-2.89.19-1.01.58-2.03 1.53-3.12.77-.88 1.82-1.8 3.01-2.28 1.16-.47 2.49-.56 3.71.14 1.49.84 1.74 1.9 1.41 2.91-.33 1-1.23 2.04-2 2.86-.91-.55-1.37-.82-2.29-1.36zm12.457-6.08l3 1.82c-6.468 4.9-9.43 7.58-14.707 13.29-.59-.35-.89-.52-1.48-.86 4.712-6.05 7.374-8.93 13.187-14.25zm-15.644 16.38l2.43 1.4c-1.004 1.23-1.492 1.85-2.44 3.11l-2.383-1.36c.93-1.28 1.41-1.91 2.393-3.15z"/><path fill="#E6E7E8" d="M115.267 190.957s.685-1.432-.15-3.69c0 0 .542 2.415-.086 4.06 0 0 .19-.233.24-.37z"/><path fill="#FFF" d="M124.554 174.426l2.514.053s7.006-.33 11.402 4.48c0 0 2.428-2.58-8.234-9.07m-19.19-94.68c-.12-.42-.25-.86-.398-1.3-4.1-7.93-13.844-17.46-30.058 19.67 0 0-14.75-25.72-27.48-6.57 0 0-2.922 2.33 0 6.56 0 0-18.16-3.85-17.532 10.52 0 0 9.023 25.05 38.53 28.42l4.672-6.87s11.637-32.05 31.466-42.77c.81-1.89 1.24-4.39.8-7.68z"/><path fill="#0B8ECC" d="M108.24 147.918s2.4-1.676 1.687 3.23l-3.767.78-1.12-3.23s3.516-2.97 3.2-.78z"/><path fill="#FFF" d="M109.432 150.83l-1.62.33s1.005-1.23 1.62-.33zm-3.564-.728l-.428-1.055s.726.033.428 1.055z"/><path fill="#E6E7E8" d="M63.69 116.742l3.172 2.743 5.346-2.966s-1.646-2.75-.355-8.54l-3.302-1.2-4.86 9.94z"/><path fill="#D0D1D2" d="M81.33 95.326s-1.3 15.842-12.987 13.342c0 0-3.165 20.358-16.07 11.488 0 0-8.975-5.76-8.975-9.248l9.392.56-7.722.897s18.327 20.518 21.895-5.57c0 0 .438-9.1-13.754-13.21 0 0 13.35.062 15.44 13.21 0 0 6.81 3.73 12.78-11.47z"/><path fill="#D0D1D2" d="M74.24 107.003s-5.37 5.59 0 14.17c0 0-5.346-4.896-2.387-13.184l2.387-.99zm-9.745 11.727l5.52 3.723-5.52-5.934m-11.805-5.06s-6.47-6.56-13.15-5.72c0 0 12.095 3.94 9.61 6.13l3.54-.41z"/><path fill="none" stroke="#BBBDBF" stroke-linecap="round" stroke-linejoin="round" stroke-miterlimit="10" d="M108.58 77.674c0-3.93-3.746-7.118-8.367-7.118-3.697 0-6.694 2.55-6.694 5.695 0 2.52 2.39 4.56 5.35 4.56 2.36 0 4.28-1.63 4.28-3.64 0-1.61-1.54-2.91-3.43-2.91-1.52 0-2.74 1.05-2.74 2.33 0 1.03.98 1.87 2.19 1.87.97 0 1.75-.66 1.75-1.49 0-.66-.63-1.19-1.41-1.19-.62 0-1.13.43-1.13.96 0 .43.4.77.9.77.39 0 .71-.27.71-.61"/><path fill="#E6E7E8" d="M86.865 81.228s-1.983 8.39 6.027 10.77c8.01 2.378-7.428-2.68-6.027-10.77z"/><circle fill="#0071BC" cx="104.431" cy="137.526" r="8.089"/><path fill="#0F4481" d="M103.196 140.684c-1.724-1.516-1.89-4.14-.376-5.86 1.515-1.722 4.14-1.892 5.863-.376 1.72 1.516 1.89 4.14.374 5.86-1.514 1.725-4.14 1.893-5.86.376z"/><path fill="#FFF" d="M105.42 139.094c-.916-.805-1.004-2.2-.2-3.113.805-.91 2.2-1 3.118-.2.914.81 1.002 2.21.196 3.12-.805.92-2.198 1-3.114.2z"/><circle fill="#FFF" cx="101.818" cy="137.552" r="1.075"/><circle fill="#0071BC" cx="125.643" cy="148.049" r="9.471"/><path fill="#0F4481" d="M122.22 150.455c-1.26-2.375-.355-5.318 2.017-6.576 2.373-1.26 5.318-.36 6.578 2.02 1.258 2.37.354 5.31-2.02 6.57-2.373 1.26-5.317.35-6.575-2.02z"/><path fill="#FFF" d="M125.314 149.635c-.667-1.264-.187-2.826 1.073-3.494s2.827-.19 3.497 1.07c.667 1.27.187 2.83-1.077 3.5-1.26.67-2.823.19-3.493-1.07z"/><circle fill="#FFF" cx="122.009" cy="146.452" r="1.259"/></svg>