<svg xmlns="http://www.w3.org/2000/svg" width="250" height="250" viewBox="0 0 250 250"><path opacity=".15" d="M219.752 139.21c0-20.27-6.45-39.436-18.675-55.536V73.92h-8.534c-17.357-17.25-40.29-26.726-64.808-26.726-24.517 0-47.45 9.475-64.807 26.727h-5.924v6.47C43.266 96.9 35.72 117.72 35.72 139.21c0 13.136 2.71 25.802 8.058 37.685-3.553 10.695-4.978 20.51-4.02 27.797.24 1.825.594 3.658 1.08 5.605l.894 3.565h2.595v.074h29.708c15.71 11.316 34.245 17.29 53.7 17.29 19.458 0 37.992-5.974 53.702-17.29h31.29V193.56h-10.764c11.65-15.852 17.79-34.574 17.79-54.35z"/><path fill="#FFD69F" d="M216.28 134.268c0-20.27-6.45-39.437-18.675-55.537v-9.75h-8.534c-17.35-17.25-40.29-26.72-64.8-26.72s-47.45 9.48-64.81 26.73h-5.92v6.47c-13.74 16.5-21.29 37.32-21.29 58.81 0 13.14 2.71 25.81 8.06 37.69-3.55 10.7-4.98 20.51-4.02 27.8.24 1.83.6 3.66 1.08 5.61l.9 3.57h2.59v.07h29.71c15.71 11.32 34.25 17.29 53.7 17.29s38-5.97 53.71-17.29h31.29v-20.38H198.5c11.65-15.85 17.79-34.57 17.79-54.35z"/><circle fill="#FAAF40" cx="124.264" cy="134.268" r="87.308"/><path fill="#3FBCFF" d="M72.002 87.958h105.52v107.195H72.002z"/><path fill="#2CACE5" d="M178.907 94.692L70.957 92.41V80.877h107.56"/><circle fill="#FFF692" cx="151.449" cy="160.219" r="15.334"/><path fill="#4CD812" d="M114.117 173.936s22.59-11.914 60.702-6.396c0 0 11.98 9.34 14.89 19.122 2.91 9.78-3.61 14.69-3.61 14.69l-58.28-2.962-13.72-24.454z"/><path fill="#4CE813" d="M60.414 178.136s39.706-43.03 124.108 25.155l-44.627-3.11-75.74 2.08-3.74-24.11z"/><path fill="#F2E3CB" d="M62.01 78.025V198.12l126.09-.002V78.025H62.01zM174.75 194.01H75.36v-49.122h99.39v49.122zm0-56.132H75.36v-48.21h99.39v48.21z"/><path fill="#D6C4AB" d="M63.43 79.167h125.405v6.393H63.43z"/><path fill="#D6C4AB" d="M65.83 83.733h5.48v111.19h-5.48zm114.098 0h5.48v111.19h-5.48z"/><path fill="#F2E3CB" d="M192.896 193.326V73.686H58.243V193.33h-12.68v10.957h158.983V193.33h-11.65zM66.466 81.68h118.208v111.647H66.464V81.68z"/><path opacity=".15" d="M143.1 86.396s3.432-.638 4.414 1.52c.98 2.158-1.104 5.444-1.104 5.444l-3.2 1.104-.11-8.068z"/><path fill="#FFF" d="M41.936 204.21H92.67c-1.192-4.77-3.96-9.24-8.306-11.99-2.5-10.302 1.766-16.04 1.766-17.806l-21.336-34.187c-13.342 10.3-26.045 42.132-23.838 58.907.234 1.787.576 3.466.98 5.077z"/><path fill="#D0D1D2" d="M90.35 204.21c-.46-1.995-1.255-3.857-2.455-5.37-1.766-2.06-3.237-2.796-5.543-4.07-2.215-1.225-1.373-13.88.687-17.118l-16.98-13.685c-3.08 4.81-13.51 25.01-9.82 40.244h34.11z"/><path fill="#FFF" d="M61.53 167.24l-.243.85-.172.844-.2 1.3c-.112.995-.245 2.217-.26 3.637-.034 1.42.002 3.03.188 4.75.166 1.73.475 3.58 1.01 5.46.53 1.87 1.242 3.78 2.286 5.53 1.04 1.74 2.38 3.31 4.01 4.52 1.63 1.2 3.52 2.1 5.6 2.54.5.15 1.06.17 1.58.27l.79.13c.27.02.54.02.82.04l1.63.07c.55-.03 1.1-.06 1.65-.1 2.19-.12 4.38-.55 6.49-1.07 1.05-.2 2.08-.59 3.08-.88.5-.16 1-.3 1.49-.46l1.44-.54c.95-.37 1.88-.67 2.76-1.06l2.54-1.12c.82-.35 1.59-.71 2.32-1.09l2.07-1.04c1.31-.62 2.41-1.27 3.34-1.77l2.88-1.6 3.36 6.04-3.09 1.58c-.99.5-2.17 1.13-3.58 1.75-.71.32-1.45.67-2.24 1.03-.78.37-1.62.73-2.52 1.07l-2.76 1.1c-.96.39-1.99.69-3.03 1.06l-1.59.54c-.54.17-1.11.31-1.67.46-1.14.28-2.26.66-3.48.87-2.39.51-4.92.91-7.56.98l-1.99.05-2.03-.15c-.34-.03-.68-.05-1.02-.09l-1.03-.19c-.68-.14-1.37-.21-2.04-.42-2.72-.68-5.34-2-7.54-3.75s-3.93-3.95-5.17-6.21c-1.26-2.27-2.03-4.61-2.58-6.82-.55-2.22-.83-4.34-.95-6.29-.14-1.95-.12-3.74-.03-5.32.07-1.58.26-2.96.43-4.1.11-.57.2-1.09.29-1.53l.31-1.23c.17-.55.27-.84.27-.84l4.06 1.25zm49.808-24.637s-.01.046-.036.136c-.01.05-.093.32-.048.24.013-.04.017.02.025-.09 0-.06-.04-.39-.3-.71-.28-.31-.52-.36-.48-.36.02-.01.24-.01.52-.06.56-.1 1.4-.36 2.29-.77 1.8-.81 3.91-2.13 5.96-3.81 2.05-1.68 4.07-3.7 5.81-5.93 1.75-2.22 3.22-4.62 4.3-6.97 1.09-2.35 1.8-4.65 2.21-6.65.42-2 .55-3.68.59-4.86.02-.59.03-1.06.02-1.37v-.49l8.13.09-.04.62c-.02.4-.06.99-.14 1.74-.16 1.49-.46 3.62-1.16 6.1-.68 2.47-1.75 5.26-3.27 8.04-1.5 2.78-3.44 5.52-5.66 7.98-2.21 2.47-4.69 4.66-7.21 6.46-2.52 1.8-5.08 3.21-7.54 4.13-1.24.45-2.44.79-3.73.92-.65.05-1.32.07-2.09-.08-.75-.15-1.71-.52-2.42-1.35-.72-.82-.92-1.77-.94-2.34-.04-.63.04-1.01.12-1.4.1-.44.12-.43.15-.56.03-.09.04-.14.04-.14l4.8 1.42z"/><path opacity=".3" fill="#D0D1D2" d="M125.857 130.263c-.248.34-.49.68-.75 1.012-1.742 2.22-3.76 4.25-5.817 5.923-2.05 1.678-4.162 3-5.965 3.81-.892.402-1.727.67-2.294.764-.27.05-.49.053-.52.057-.04 0 .2.05.47.36.11.13.18.25.22.37l-4.66-1.38-.04.13c-.03.13-.05.11-.15.55-.08.39-.16.77-.12 1.4.02.57.22 1.52.94 2.34.72.82 1.68 1.19 2.42 1.34.78.15 1.44.13 2.09.07 1.29-.13 2.49-.47 3.73-.93 2.46-.92 5.02-2.33 7.54-4.13 2.05-1.46 4.06-3.19 5.93-5.11-1.6-1.93-2.5-4.3-2.99-6.61zm-14.603 12.716c-.03.05-.003-.05.02-.14l.005.05c-.01.1-.02.04-.03.08zm20.49-29.05s.1 5.15 7.357 4.85c0 0 1.18-3.31 1.11-5.4"/><path fill="#FFF" d="M147.686 99.614c-12.845 9.596-4.513-3.138-2.158-7.652 2.747-5.297-1.962-8.436-6.082-4.12-2.942 3.138-4.61 10.104-5.788 14.027 0 0-8.353-10.65-12.065-5.89-1.57 2.01-1.57 5 1.374 5.79 3.814 1.04 5.482 1.62 6.36 5.26-1.553 4.55.292 6.57 2.96 8.14 2.235 1.32 4.92 2.77 7.944.91.83-.55 1.35-1.35 1.75-2.19l.02.03.12-.31c.4-.88.95-2.51.95-2.51.99-2.34 2.1-3.47 5.62-4.06 2.95-.59 7.66-.4 9.03-3.93 1.96-5.69-6.08-6.46-10-3.53z"/><path fill="#D0D1D2" d="M125 138.323s12.725-3.29 4.216 8.875l-1.696-2-2.52-6.875z"/><ellipse transform="rotate(92.3 94.9 152.4)" fill="#FFF" cx="94.921" cy="152.424" rx="28.581" ry="35.67"/><ellipse transform="rotate(92.3 99.3 152.2)" fill="#D0D1D2" cx="99.258" cy="152.235" rx="22.771" ry="29.851"/><ellipse transform="rotate(92.3 115.4 150.9)" fill="#FFF" cx="115.382" cy="150.859" rx="12.055" ry="12.231"/><ellipse transform="rotate(92.3 87 150)" fill="#FFF" cx="86.957" cy="150.002" rx="14.997" ry="15.097"/><path fill="#919396" d="M68.765 135.707c.007-.01-4.6 6.238-4.706 8.335l-.96-1.71s-7.16-11.253 5.66-6.625z"/><path fill="#D0D1D2" d="M72.043 133.93s-6.93-4.975-11.78-2.175c0 0-6.33 4.925 1.8 13.69l1.962 2.357s1.628-1.104 1.41-3.644c0 0-9.374-11.45 4.15-7.264 0 .002 2.212-.067 2.458-2.964z"/><circle fill="#0071BC" cx="84.632" cy="148.32" r="11.394"/><path fill="#0F4481" d="M81.748 140.563c3.195-.483 6.177 1.717 6.66 4.913.483 3.195-1.716 6.176-4.912 6.658-3.197.485-6.178-1.715-6.662-4.91-.48-3.196 1.718-6.178 4.914-6.66z"/><circle fill="#FFF" cx="83.943" cy="146.149" r="3.11"/><circle fill="#FFF" cx="76.818" cy="146.412" r="1.514"/><circle fill="#0071BC" cx="114.001" cy="150.41" r="9.367"/><circle fill="#0F4481" cx="112.349" cy="148.787" r="4.811"/><path fill="#FFF" d="M113.052 146.095c1.397-.212 2.7.75 2.912 2.146.21 1.4-.75 2.71-2.147 2.92-1.397.21-2.7-.75-2.91-2.14-.213-1.4.75-2.7 2.145-2.91z"/><circle fill="#FFF" cx="107.575" cy="148.84" r="1.244"/><path fill="#FCFCD4" d="M144.768 202.673v-30.54h-.005c.024-.112.054-.226.054-.343 0-2.764-6.94-5.003-15.5-5.003-8.56 0-15.597 2.24-15.597 5.003v31.538h.152c.548 2.603 7.243 4.66 15.445 4.66 8.203 0 14.897-2.058 15.446-4.66h.005v-.03c.02-.104.05-.207.05-.313s-.03-.207-.05-.312z"/><path fill="#D0D1D2" d="M128.213 186.038c1.03-2.67-.44-4.143-.44-4.143l-4.047.343c-2.17-8.02-7.688-9.075-7.688-9.075l-2.538 3.465v26.627c.42 1.995 4.606 3.664 10.157 4.338 8.384-6.215 6.01-20.193 6.01-20.193s-1.646-.863-1.454-1.362z"/><path fill="#FFF" d="M126.546 185.556c1.296-.812 2.04-2.005 1.128-3.833-1.766-3.826-7.167 2.348-11.858.504 0 0-1.03-.552-1.09-1.68-.03-.493.398-1.068.398-1.068 1.093-1.43 3.997-.57 4.016-3.06.024-3.51-3.307-3.68-5.297-2.65-4.543 2.34-6.704 8.35-7.61 12.75h-.017c-.004.03-.004.07-.006.11l-.02.08.015-.01c-.722 9.56 8.186 9.36 15.683 8.1 5.835-.99 11.633-8.64 4.658-9.27z"/><ellipse fill="#844C26" cx="129.329" cy="171.606" rx="12.36" ry="2.453"/><path fill="#D0D1D2" d="M121.836 181.918s1.52 1.472 1.57 4.12c.048 2.648 1.03 7.408-1.52 8.78-2.552 1.373-9.063.453-9.063.453s7.394-13.99 9.013-13.54"/><path fill="#FCFCD4" d="M121.836 199.38c0 1.682-1.36 3.042-3.042 3.042-1.678 0-3.04-1.36-3.04-3.04v-17.464c0-1.678 1.36-3.04 3.04-3.04s3.042 1.362 3.042 3.04v17.463z"/><path fill="#D0D1D2" d="M119.287 175.297s7.847 2.404 18.54.492c0 0-5.297 4.16-16.185 2.94m12.015-76.86s1.963 2.3 3.556 8.16c0 0-.956-4.98-.563-5.13 0 0-.982-1.96-2.993-3.04M96.6 172.67c.148 3.237 1.62 8.682 4.563 10.448 7.063 4.27 7.063-9.12 7.063-12.652"/><path fill="#6D6F71" d="M108.224 170.466c.096 0 .196.884.217 2.277-.03 1.72-.13 3.686-.52 5.797-.21 1.05-.48 2.148-.99 3.212-.25.53-.56 1.058-1.01 1.51-.43.45-1.02.817-1.67.937-1.37.23-2.57-.38-3.55-1.04-1-.71-1.68-1.69-2.21-2.64-1.04-1.94-1.56-3.9-1.85-5.62-.19-1.36-.1-2.24-.02-2.25.11-.01.2.85.5 2.16.32 1.67.87 3.57 1.89 5.41.52.9 1.17 1.8 2.06 2.42.89.6 2.01 1.12 3.08.92 1.05-.2 1.8-1.13 2.25-2.1.48-.98.75-2.05.97-3.06.41-2.05.54-4 .62-5.7.1-1.38.17-2.27.27-2.27z"/><path fill="#BE202E" d="M98.146 166.787s.957 14.788 4.782 15.01c3.826.22 3.605-15.23 3.605-15.23s-3.017-.073-3.237-1.177c0 0-1.84 3.09-5.327 1.625"/><path fill="#6D6F71" d="M107.98 161.17c.042-.03.246.147.524.534.273.386.645.98.842 1.84.125.608.083 1.38-.34 2.03-.438.636-1.16 1.036-1.883 1.25-.736.232-1.575.326-2.417.112-.214-.04-.42-.117-.62-.23-.21-.084-.397-.222-.567-.39-.09-.083-.19-.15-.25-.25l-.1-.152-.01-.012-.01-.012-.31.59-.44.502c-.66.62-1.57.837-2.35.77-.8-.05-1.52-.342-2.1-.737-.6-.377-1.07-.887-1.39-1.425-.46-.743-.46-1.495-.44-1.96.11-.47.2-.707.26-.693.05.016.07.278.06.706.07.423.14 1.046.59 1.646.3.44.71.87 1.25 1.18.52.33 1.15.56 1.8.59.65.03 1.32-.15 1.81-.61l.33-.39.24-.48c.16-.39.23-.82.35-1.23l.16-.63.08-.31.03-.14.01-.03.01.04.02.09.06.24c.12.51.24 1.02.43 1.5l.13.35.06.11c.04.07.12.11.17.17.11.11.24.22.4.28.14.08.3.15.47.18.66.17 1.38.11 2.02-.08.66-.18 1.22-.5 1.56-.95.32-.46.39-1.04.31-1.57-.26-1.52-.94-2.4-.8-2.47z"/><path fill="#0B8ECC" d="M103.455 159.465s-1.476-3.272-3.803 2.343l3.477 3.185 3.2-2.697s-1.84-5.338-2.88-2.83z"/><path fill="#FFF" d="M100.376 161.782l1.494 1.358s-.283-1.92-1.494-1.358zm4.204 1.468l1.114-.843s-.786-.418-1.114.842zm11.885-39.577s-.4-3.557-1.198-4.36c-.805-.807-4.394-1.23-4.394-1.23s3.62-.448 4.43-1.27c.784-.796 1.16-4.322 1.16-4.322s.38 3.53 1.165 4.33c.807.82 4.428 1.27 4.428 1.27s-3.494.36-4.288 1.13c-.83.81-1.303 4.47-1.303 4.47zm25.75 11.625s-.4-3.557-1.196-4.36c-.81-.81-4.4-1.23-4.4-1.23s3.62-.45 4.43-1.27c.78-.798 1.16-4.323 1.16-4.323s.38 3.525 1.16 4.323c.8.82 4.42 1.27 4.42 1.27s-3.5.353-4.29 1.126c-.84.81-1.31 4.464-1.31 4.464zm-7.228 20.32s-.228-2.063-.688-2.527c-.47-.46-2.55-.71-2.55-.71s2.1-.26 2.57-.74c.45-.46.68-2.51.68-2.51s.21 2.05.67 2.51c.47.48 2.57.73 2.57.73s-2.03.21-2.5.66c-.49.47-.77 2.59-.77 2.59z"/><path d="M137.343 82.154c-.58-1.035-1.12-1.98-1.626-2.836-.324-.548-.604-1.21-.83-1.962-.29-.963-.313-1.418-.313-1.535 0-.62.044-1.02.08-1.24l.027-.15c2.85-.21 4.87-2.34 4.87-5.21 0-1.04-.33-3.03-2.59-4.59-1.24-.86-2.66-1.31-4.11-1.31-1.87 0-5.3.73-7.58 5.44-2.45-3.48-6.12-5.36-10.66-5.36-1.05 0-2.63.31-4.22 1.76-.29.27-.57.58-.82.94-1-1.15-2.42-1.8-4.02-1.8-3.11 0-5.36 2.35-5.36 5.6 0 .07.01.15.01.22l.08 1.33c0 1.36 0 2.7-.02 4.01-.6-1.64-1.23-3.21-1.89-4.71-1.34-3.02-2.95-5.84-5.57-6.55-.54-.25-1.11-.37-1.69-.37-.83 0-1.66.26-2.36.77-.6.45-1.14.95-1.6 1.48-.75-.46-1.7-.87-2.9-1.19-2.04-.54-3.69-.8-5.03-.8-.49 0-1.89.1-3.25.94-.35-.42-.76-.78-1.22-1.06-.89-.56-1.98-.85-3.23-.85-2.04 0-3.27.86-3.95 1.59-.62.67-1.37 1.85-1.37 3.68l.03.95v2.96c0 3.98-.05 7.36-.15 10.22V71.2c0-1.375-.32-2.695-.95-3.92-1.47-2.84-3.79-3.147-4.71-3.147-.66 0-2 .16-3.23 1.263-.45-.855-.99-1.655-1.64-2.388-1.54-1.734-4.38-3.804-9.09-3.804-1.43 0-2.73.475-3.76 1.368-2.06 1.78-2.3 4.68-2.3 6.7v.38l.38 21.74-.26 13.22c0 .55.19 5.34 6.57 5.34h.22c1.94 0 3.76-.43 5.42-1.28 1.58-.81 2.89-1.85 3.91-3.1.27-.33.54-.71.8-1.1.27.58.56 1.16.9 1.72 1.58 2.67 4.22 4.13 7.41 4.13h.06c3.48 0 5.88-1.88 7.53-4.87.23 1.31.92 2.49 1.99 3.37 1.11.92 2.45 1.4 3.86 1.4h4.62c1.24 0 2.39-.27 3.45-.8.34-.17.65-.39.94-.62 1.19.62 2.31.66 2.57.66 1.5 0 2.93-.59 4-1.68 1.37-1.38 1.66-2.83 1.66-3.81 0-.82-.18-1.64-.56-2.45v-4.17c1.23 3.648 1.53 4.998 1.6 5.448-.04.64.07 1.29.33 1.88.03.1.06.22.1.37.27 1.12.69 2.03 1.28 2.77.98 1.2 2.39 1.86 3.99 1.86.82 0 1.78-.19 3.22-.62.91-.28 1.7-.86 2.21-1.66.33-.5.63-1.12.92-2.36 2.35 4.75 6.14 5.46 8.19 5.46 2.44 0 5.11-.76 7.24-3.27 1 1.59 2.71 2.66 4.97 2.97.19.02.37.04.56.04.45 0 .9-.08 1.32-.23 1.47-.21 2.83-.72 4.06-1.55 1.48-1 2.64-2.31 3.43-3.86 1.33-2.56 2-5.28 1.98-8.05.02-3.46-.7-6.61-2.15-9.4-.51-.97-1.05-1.97-1.63-3.01zm-53.28 6.51c.25-.05.492-.114.73-.193.016 3.1.036 6.57.05 8.92-.282-.02-.57-.04-.877-.04h-.117l.21-8.68zm-.145-10.616l.06-1.94.148.003c.27 0 .54-.03.808-.09l-.074 2.3c-.298-.1-.602-.2-.942-.27zm34.02 10.553c0 .9-.045 1.95-.134 3.14-.208-2.14-.313-4.46-.316-6.93l.108-2c.226 2.64.342 4.59.342 5.81zm10.938.23c.43.78.815 1.62 1.126 2.53.303.88.45 1.73.45 2.62 0 .95-.19 2.11-.57 3.46l-.71-.12c-.23-.04-.457-.06-.684-.06-.103 0-.203.02-.305.02.442-2.29.695-5.02.695-8.28l-.002-.15zm75.644-3.67c-.513-.97-1.057-1.97-1.634-3-.58-1.03-1.12-1.98-1.626-2.83-.324-.55-.604-1.21-.83-1.96-.29-.96-.313-1.41-.313-1.53 0-.62.044-1.02.08-1.24l.027-.15c2.848-.21 4.867-2.34 4.867-5.21 0-1.05-.33-3.03-2.59-4.6-1.24-.86-2.66-1.31-4.11-1.31-1.8 0-5.02.66-7.3 4.88-.19-1.57-1.06-2.91-2.44-3.75-1.01-.61-2.14-.92-3.38-.92h-1.84c-1.31 0-2.53.64-3.28 1.72-.98 1.41-1.48 3.45-1.72 7.06-.06.98-.1 1.59-.13 1.86-.97 7.18-2.39 14.61-4.22 22.12l-.24-10.59.29-10.14c0-.04 0-.89-.01-1.27.85-.22 1.64-.63 2.33-1.23 1.2-1.04 1.86-2.44 1.86-3.93 0-1.9-1.31-5.13-6.22-5.13h-6.52c-1.94 0-3.31.41-4.29 1-2.41-3.97-6.07-6.13-10.54-6.13h-.83c-7.61 0-8.2 4.49-8.2 5.86 0 1.03.23 2.38.73 4.37.4 1.6.48 2.43.48 2.8l-.16 5.92c0 2.09.17 5.1.52 9.18.33 3.8.5 6.67.5 8.55 0 2.5-.24 3.53-.34 3.84-.55.7-.86 1.58-.86 2.48 0 2.08 1.06 3.86 2.89 4.87 1.15.64 2.43.96 3.79.96h.06c2.17-.03 4.24-.79 6.13-2.26 2.75-2.1 4.98-5.39 6.84-10.04.29-.7.54-1.39.77-2.06l.13 3.88c-.5.32-1 .77-1.46 1.41-.7.98-1.07 2.11-1.07 3.28 0 2.5 1.86 5.2 5.95 5.2.2 0 .42-.01.66-.03.57.04 1.48.08 3.19.08h2.41c.75 0 1.47-.14 2.15-.41 1.03.72 2.21 1.11 3.45 1.11.98 0 4.11-.32 5.43-4.18.33 1.52 1.21 2.75 2.52 3.5 1.05.6 2.29.89 3.77.89.48 0 .96-.09 1.41-.26.36-.13.69-.31 1-.51.82.48 1.77.82 2.85.97.19.03.37.04.55.04.46 0 .9-.08 1.33-.23 1.47-.2 2.83-.72 4.06-1.55 1.48-1 2.64-2.31 3.43-3.85 1.34-2.55 2-5.28 1.98-8.04.02-3.46-.7-6.61-2.15-9.39zm-50.776-4.05c0 .12 0 .24-.002.36l-.07-1.05c-.097-1.44-.183-2.8-.258-4.09.22 1.38.33 2.97.33 4.78zm39.17 5.05c.437.78.875 1.56 1.317 2.31.52.88.96 1.85 1.32 2.89.31.88.45 1.73.45 2.62 0 .95-.19 2.11-.57 3.46l-.71-.12c-.18-.03-.36-.04-.54-.04-.19-1.02-.23-1.36-.23-1.36 0-.23-.02-.47-.06-.7l-.53-2.97c-.01-1.54-.16-3.56-.43-6.07z" opacity=".15"/><path d="M136.343 80.82c-.58-1.035-1.12-1.98-1.626-2.836-.324-.548-.604-1.21-.83-1.962-.29-.963-.313-1.418-.313-1.535 0-.628.044-1.028.08-1.25l.027-.155c2.85-.21 4.87-2.34 4.87-5.215 0-1.047-.33-3.036-2.59-4.597-1.24-.862-2.66-1.317-4.11-1.317-1.87 0-5.3.728-7.58 5.438-2.45-3.47-6.12-5.35-10.66-5.35-1.05 0-2.63.31-4.22 1.76-.29.27-.57.58-.82.94-1-1.15-2.42-1.8-4.02-1.8-3.11 0-5.36 2.36-5.36 5.6 0 .08.01.15.01.23l.08 1.33c0 1.36 0 2.7-.02 4.01-.6-1.64-1.23-3.21-1.89-4.71-1.34-3.02-2.95-5.84-5.57-6.55-.54-.25-1.11-.37-1.69-.37-.83 0-1.66.26-2.36.78-.6.45-1.14.94-1.6 1.48-.75-.46-1.7-.87-2.9-1.19-2.04-.54-3.69-.8-5.03-.8-.49 0-1.89.09-3.25.94-.35-.42-.76-.78-1.22-1.06-.89-.56-1.98-.85-3.23-.85-2.04 0-3.27.86-3.95 1.58-.62.67-1.37 1.85-1.37 3.68l.03.95v2.96c0 3.99-.05 7.36-.15 10.22v-11.3c0-1.37-.32-2.69-.95-3.92-1.47-2.84-3.79-3.14-4.71-3.14-.66 0-2 .16-3.23 1.27-.45-.85-.99-1.65-1.64-2.38-1.54-1.73-4.38-3.8-9.09-3.8-1.43 0-2.73.48-3.76 1.37-2.06 1.78-2.3 4.67-2.3 6.7v.38l.38 21.73-.26 13.22c0 .54.19 5.33 6.57 5.33h.22c1.94 0 3.76-.43 5.42-1.29 1.58-.81 2.89-1.86 3.91-3.1.27-.34.54-.71.8-1.1.27.58.56 1.15.9 1.72 1.58 2.66 4.22 4.13 7.41 4.13h.06c3.48 0 5.88-1.88 7.53-4.88.23 1.3.92 2.48 1.99 3.37 1.11.91 2.45 1.4 3.86 1.4h4.62c1.24 0 2.39-.27 3.45-.8.34-.18.65-.39.94-.62 1.19.62 2.31.66 2.57.66 1.5 0 2.93-.6 4-1.68 1.37-1.38 1.66-2.84 1.66-3.82 0-.82-.18-1.64-.56-2.46V94c1.24 3.646 1.54 5 1.61 5.446-.04.65.07 1.296.33 1.888.03.1.06.228.1.37.27 1.128.69 2.03 1.28 2.77.98 1.2 2.39 1.86 3.99 1.86.82 0 1.78-.182 3.22-.61.91-.273 1.7-.86 2.21-1.66.33-.496.63-1.112.92-2.353 2.35 4.75 6.14 5.47 8.19 5.47 2.44 0 5.11-.76 7.24-3.28 1 1.59 2.71 2.66 4.97 2.98.19.03.37.04.56.04.45 0 .9-.08 1.32-.23 1.47-.21 2.83-.72 4.06-1.55 1.48-1 2.64-2.31 3.43-3.86 1.33-2.56 2-5.28 1.98-8.05.02-3.46-.7-6.61-2.15-9.39-.51-.97-1.05-1.97-1.63-3.01zM82.98 74.774c.048.002.097.003.146.003.27 0 .54-.036.808-.09l-.074 2.296c-.298-.102-.602-.2-.942-.268l.06-1.94zm-.13 21.236l.21-8.68c.25-.05.494-.114.73-.193l.052 8.917c-.282-.027-.57-.045-.877-.045h-.116zm33.954-5.61c-.208-2.145-.313-4.46-.316-6.932l.108-2.003c.227 2.63.342 4.583.342 5.802 0 .892-.045 1.944-.134 3.134zm12.078 5.686l-.71-.123c-.23-.04-.457-.06-.684-.06-.103 0-.203.012-.305.02.442-2.294.695-5.023.695-8.28l-.003-.152c.43.79.815 1.62 1.126 2.53.31.88.45 1.73.45 2.62.01.95-.19 2.11-.56 3.46zm74.638-12.262c-.513-.97-1.057-1.97-1.634-3.003-.58-1.03-1.12-1.98-1.626-2.83-.324-.55-.604-1.21-.83-1.96-.29-.96-.313-1.42-.313-1.53 0-.63.044-1.03.08-1.25l.027-.15c2.848-.21 4.867-2.34 4.867-5.21 0-1.05-.33-3.04-2.59-4.6-1.24-.86-2.66-1.31-4.11-1.31-1.8 0-5.02.66-7.3 4.88-.19-1.57-1.06-2.91-2.44-3.75-1.01-.61-2.14-.92-3.38-.92h-1.84c-1.31 0-2.53.64-3.28 1.71-.98 1.41-1.48 3.45-1.72 7.06-.06.98-.1 1.59-.13 1.86-.97 7.18-2.39 14.62-4.22 22.12l-.24-10.59.29-10.14c0-.04 0-.89-.01-1.27.85-.21 1.64-.63 2.33-1.23 1.2-1.04 1.86-2.44 1.86-3.93 0-1.91-1.31-5.13-6.22-5.13h-6.52c-1.94 0-3.31.41-4.29.99-2.41-3.97-6.07-6.13-10.54-6.13h-.83c-7.61 0-8.2 4.49-8.2 5.86 0 1.03.23 2.38.73 4.37.4 1.6.48 2.43.48 2.8l-.16 5.92c0 2.1.17 5.1.52 9.18.33 3.8.5 6.67.5 8.55 0 2.5-.24 3.53-.34 3.84-.55.7-.86 1.58-.86 2.48 0 2.08 1.06 3.86 2.89 4.87 1.15.64 2.43.96 3.79.96h.06c2.17-.03 4.24-.8 6.13-2.27 2.75-2.11 4.98-5.39 6.84-10.04.29-.7.54-1.39.77-2.06l.13 3.88c-.5.32-1 .77-1.46 1.41-.7.98-1.07 2.11-1.07 3.28 0 2.51 1.86 5.21 5.95 5.21.2 0 .42-.01.66-.03.57.05 1.48.08 3.19.08h2.41c.75 0 1.47-.14 2.15-.4 1.03.72 2.21 1.11 3.45 1.11.98 0 4.11-.32 5.43-4.18.33 1.51 1.21 2.75 2.52 3.49 1.05.6 2.29.9 3.77.9.48 0 .96-.08 1.41-.25.36-.14.69-.32 1-.51.82.47 1.77.81 2.85.96.19.02.37.04.55.04.46 0 .9-.08 1.33-.23 1.47-.2 2.83-.72 4.06-1.55 1.48-1 2.64-2.31 3.43-3.86 1.34-2.55 2-5.28 1.98-8.04.02-3.46-.7-6.61-2.15-9.39zm-50.778-3.693l-.07-1.05c-.097-1.44-.183-2.8-.258-4.09.22 1.38.33 2.97.33 4.78 0 .12 0 .24-.002.36zm41.683 15.96l-.71-.12c-.18-.03-.36-.04-.54-.04-.193-1.02-.23-1.36-.234-1.36v.01c0-.23-.02-.47-.06-.7l-.53-2.96c-.02-1.54-.16-3.55-.43-6.06.44.78.88 1.56 1.32 2.31.52.88.96 1.85 1.32 2.89.31.88.45 1.73.45 2.62 0 .95-.19 2.11-.57 3.46z" fill="#FFF"/><path fill="#0071BC" d="M43.682 88.054l-.374-21.813v-.31c0-1.92.303-3.14.91-3.67.302-.26.686-.39 1.15-.39 2.602 0 4.634.82 6.096 2.47 1.462 1.65 2.192 3.76 2.192 6.35 0 1.63-.437 3.32-1.31 5.06-.874 1.75-1.917 3.05-3.13 3.91 2.23 1.47 3.82 3.34 4.774 5.6.953 2.27 1.43 4.64 1.43 7.12 0 1.31-.334 2.66-1.002 4.04-.67 1.38-1.337 2.48-2.006 3.31-.67.82-1.547 1.51-2.634 2.07-1.088.56-2.282.84-3.584.84h-.214c-1.71 0-2.566-.45-2.566-1.34l.268-13.21zm3.37-23.15c-.518 0-.775.643-.775 1.927 0 1.29.035 3.31.106 6.06s.107 4.75.107 5.99c.944-.21 1.756-.98 2.434-2.3.552-1.11 1.007-2.19 1.363-3.23.356-1.04.59-1.68.695-1.92V69.5c0-1.05-.396-2.076-1.19-3.08-.793-1.006-1.707-1.51-2.74-1.51zm3.984 32.43c1.033-1.362 1.55-2.936 1.55-4.718 0-1.783-.15-3.352-.453-4.706-.304-1.354-.638-2.377-1.003-3.067-.366-.69-.79-1.28-1.27-1.77-.59-.595-1.07-.953-1.445-1.075h-1.952c.18 4.946.268 10.88.268 17.802 1.84-.28 3.28-1.102 4.31-2.465zm20.67-19.11l.055.917c0 15.89-2.35 23.84-7.06 23.84-1.81.02-3.16-.71-4.03-2.17-.91-1.5-1.46-3-1.66-4.48-.3-2.29-.48-4.91-.52-7.88-.04-2.96-.07-7.24-.07-12.83l-.24-7.68c.34-.75.73-1.13 1.17-1.13s.83.33 1.17.99.51 1.35.51 2.09v14.6c0 1.28.13 3.18.39 5.69.26 2.52.39 4.42.39 5.69 0 2.62 1.16 3.93 3.48 3.93 2.61 0 3.91-9.62 3.91-28.86V67.9l-.03-.9c0-.42.1-.733.3-.943.2-.21.54-.314 1.03-.314s.86.08 1.11.236c.23.14.4.35.51.62.15.44.23 1.01.24 1.73l-.37 5.4-.24 4.48zm4.467-3.174l-.294-4.535c0-2.534.76-3.8 2.3-3.8.98 0 2.31.222 4.01.667 1.69.446 2.54 1.02 2.54 1.718 0 .733-.54 1.293-1.61 1.678-1.7-.56-3.08-.9-4.15-1.022.05.77.08 1.538.08 2.307l-.24 7.707c0 .035.05.314.16.84l1.95-.08c1.76 0 2.65.49 2.65 1.47 0 .384-.16.72-.49 1.01-.32.287-.73.432-1.22.432s-1.02-.035-1.59-.105H78.9c.107 1.363.16 2.718.16 4.063l-.24 9.727c0 2.01.036 3.016.107 3.016l4.038-.132c1.39 0 2.085.44 2.085 1.32 0 .54-.24.94-.722 1.18-.48.25-1.025.37-1.63.37H78.07c-.48 0-.918-.16-1.31-.48-.393-.32-.598-.71-.615-1.16V99.8l-.348-9.07.376-15.68zm11.58 5.375l.32-10.015c0-1.66.67-2.98 2.005-3.96v.342c.143-.087.276-.13.4-.13.856 0 1.926 1.445 3.21 4.338 1.283 2.893 2.442 6.07 3.477 9.53 1.033 3.46 2.063 6.95 3.088 10.474 1.025 3.52 1.662 5.59 1.912 6.2.73-7.498 1.097-16.578 1.097-27.24l-.08-1.44c0-1.066.454-1.6 1.363-1.6.518 0 .905.21 1.164.63.25.418.38.907.38 1.467v4.07c-.04 4.22-.23 9.84-.58 16.87s-.82 11.01-1.41 11.92c-1 .3-1.69.45-2.07.45-.39 0-.68-.12-.89-.38-.21-.25-.37-.64-.5-1.16-.13-.52-.24-.87-.33-1.05l.03-.23c0-1.33-1.31-5.55-3.93-12.66s-4.52-12-5.7-14.68V99.2l.21.367c.23.384.35.74.35 1.074s-.17.67-.5 1-.72.5-1.16.5c-1.2 0-1.79-1.09-1.79-3.28l-.11-18.4zm21.767 5.322l.054-2.045c0-.175-.027-.262-.08-.262v-.97c0-5.628.33-9.63.99-12.007.55-2.01 1.086-3.25 1.603-3.724.517-.48 1.024-.71 1.523-.71 4.243 0 7.167 2.09 8.77 6.29.928 2.41 1.392 5.38 1.392 8.91v.39l.107 6.08c0 10.29-2.44 15.44-7.31 15.44-2.02 0-3.56-1.09-4.63-3.28-1.02-2.1-1.64-4.16-1.87-6.19-.38-3.06-.56-5.71-.56-7.95zm3.235-7.34l-.268 4.954c0 5.2.428 9.72 1.284 13.58.91 2.26 1.78 3.59 2.6 3.99.66 0 1.26-.26 1.79-.78.54-.52.96-1.23 1.27-2.11.31-.88.58-1.81.79-2.79.2-.96.35-1.99.46-3.09.18-1.9.27-3.53.27-4.87s-.12-3.4-.36-6.18-.36-4.85-.36-6.21v-.94c-.03-1.31-.47-2.47-1.31-3.5S117 68.9 115.7 68.9c-1.24 0-2.07.69-2.48 2.07-.34 1.153-.51 2.58-.51 4.273l.058 3.173zm14.735 21.497l2.27.394c.696 0 1.303-.297 1.82-.892.516-.594.9-1.337 1.15-2.23.48-1.712.72-3.228.72-4.548 0-1.32-.222-2.626-.668-3.92-.445-1.293-.993-2.494-1.645-3.604-.65-1.11-1.297-2.24-1.938-3.395-1.54-2.73-2.3-5.41-2.3-8.03 0-1.61.27-3.03.83-4.28 1.03-2.31 2.4-3.46 4.11-3.46.64 0 1.25.2 1.83.6.58.4.87.84.87 1.31 0 .82-.45 1.23-1.34 1.23-.4 0-.78-.11-1.15-.32-1.16.05-1.95 1.32-2.36 3.8-.09.54-.14 1.17-.14 1.9 0 .72.16 1.62.48 2.69.32 1.06.73 2.01 1.22 2.84s1.01 1.74 1.57 2.75 1.09 1.98 1.59 2.92c1.14 2.18 1.7 4.68 1.68 7.49.01 2.17-.49 4.24-1.53 6.21-.5.98-1.21 1.78-2.13 2.4-.92.62-1.97.94-3.15.95v.13c-1.5-.21-2.32-.9-2.46-2.07l.62-.92zm31.928-17.512l.134 1.127c.018 2.53-.668 5.52-2.06 8.96-1.568 3.93-3.422 6.72-5.562 8.36-1.213.94-2.46 1.42-3.744 1.44-.678 0-1.292-.16-1.845-.46-.55-.31-.82-.77-.82-1.38.81-.82 1.21-2.93 1.21-6.32 0-2-.17-4.96-.51-8.89s-.51-6.88-.51-8.84l.16-5.88c0-.94-.2-2.22-.6-3.82s-.6-2.73-.6-3.4c0-1.24 1.4-1.86 4.2-1.86h.83c3.73 0 6.43 2.05 8.1 6.14 1.18 2.85 1.77 6.78 1.77 11.8v2.49c-.08.15-.13.32-.13.5zm-10.08 11.64v5.138c1.37-.873 2.566-2.093 3.582-3.657 1.017-1.563 1.792-3.272 2.327-5.125.998-3.548 1.497-7.088 1.497-10.618 0-4.055-.518-7.253-1.55-9.596-1.054-2.412-2.355-4.002-3.905-4.77-.97-.49-2.06-.726-3.27-.71v.054c0 3.233.22 8.102.65 14.603.43 6.51.65 11.4.65 14.68zm19.467-9.727l.267 11.405v1.6l-.026 1.493h.722l1.578-.052c1.497 0 2.246.45 2.246 1.34 0 .46-.183.85-.548 1.17-.366.33-.79.49-1.27.49h-2.407c-1.658 0-2.72-.03-3.183-.1-.285.04-.508.06-.67.06-1.3 0-1.95-.4-1.95-1.2 0-.33.106-.64.32-.94.214-.3.428-.45.642-.47h1.552l.106-.71-.374-11.4.294-11.95c0-2.05-.09-3.97-.268-5.77h-1.043l-1.257.05c-.535 0-.954-.1-1.257-.3-.31-.2-.46-.58-.46-1.14 0-.82.9-1.23 2.7-1.23h6.52c1.48 0 2.22.38 2.22 1.13 0 .33-.16.64-.48.92-.33.28-.69.42-1.1.42h-2.81c.14 1.47.21 3.13.21 4.98l-.28 10.24zm19.547 6.948l.59 3.303c0 .438.173 1.504.52 3.2s.52 2.804.52 3.328v.053c0 .786-.303 1.293-.908 1.52-.767 0-1.364-.122-1.792-.366s-.642-.71-.642-1.41c0-1.52-.268-3.73-.803-6.63l-5.4-.78c-.34 1.19-.6 2.49-.776 3.91-.17 1.42-.34 2.45-.5 3.1-.32 1.33-.92 1.99-1.79 1.99-.42 0-.82-.13-1.19-.4s-.54-.61-.54-1.03l.14-.47c2.46-9.31 4.29-18.39 5.48-27.21.04-.24.09-.96.16-2.15.18-2.62.52-4.29 1.02-5h1.85c.5 0 .94.11 1.31.34.38.23.57.57.57 1.02 0 2.72.37 6.77 1.11 12.14.73 5.36 1.11 9.22 1.11 11.58zm-2.862 1.074c-.106-.524-.16-1.438-.16-2.74s-.076-2.918-.228-4.85c-.15-1.93-.37-4.177-.654-6.737-.286-2.56-.48-4.418-.59-5.57-1.657 9-2.727 15.345-3.208 19.032.624.402 2.238.69 4.84.865zm7.542 7.577l2.272.394c.695 0 1.302-.297 1.818-.892.517-.594.9-1.337 1.15-2.23.48-1.712.722-3.228.722-4.548 0-1.32-.223-2.626-.67-3.92-.444-1.293-.992-2.494-1.644-3.604-.65-1.11-1.297-2.24-1.938-3.395-1.533-2.73-2.3-5.41-2.3-8.03 0-1.61.276-3.03.83-4.28 1.033-2.31 2.406-3.46 4.117-3.46.64 0 1.25.2 1.83.6.58.4.87.84.87 1.31 0 .82-.45 1.23-1.34 1.23-.4 0-.78-.11-1.15-.32-1.16.05-1.95 1.32-2.36 3.8-.09.54-.14 1.17-.14 1.9 0 .72.16 1.62.48 2.69.32 1.06.73 2.01 1.22 2.84s1.01 1.74 1.58 2.75 1.09 1.98 1.59 2.92c1.14 2.18 1.7 4.68 1.68 7.49.02 2.17-.49 4.24-1.53 6.21-.5.98-1.21 1.78-2.13 2.4-.92.62-1.97.94-3.15.95v.13c-1.5-.21-2.32-.9-2.46-2.07l.61-.92z"/></svg>