<svg xmlns="http://www.w3.org/2000/svg" width="250" height="250" viewBox="0 0 250 250"><path opacity=".15" d="M237.983 174.766c-.63-1.23-1.877-2.092-3.335-2.174l-16.16-2.646c-.213-.035-.427-.053-.642-.053-.56-.36-1.216-.584-1.92-.625l-12.824-2.098c.004-.074.006-.15.006-.225v-8.277c6.217-12.234 9.367-25.41 9.367-39.18 0-47.852-38.93-86.782-86.782-86.782S38.91 71.636 38.91 119.488c0 14.872 3.84 29.428 11.008 42.27-1.34.506-2.342 1.71-2.547 3.193l-.42 3.08-2.88-3.43c-.78-.93-1.91-1.43-3.06-1.43-.65 0-1.31.16-1.92.49-1.67.92-2.46 2.89-1.89 4.71l8 25.42c.53 1.67 2.07 2.8 3.82 2.8l36.31-.14c.28.17.58.31.9.4l4.02 1.23c.42.15.87.22 1.31.22h.19l4.13-.18c1.29-.05 2.41-.72 3.1-1.7h.81v.76c0 1.76 1.15 3.32 2.83 3.83l4.02 1.23c.42.15.87.22 1.31.22h.19l4.12-.19c2.14-.09 3.82-1.85 3.82-3.99v-1.9l4.72-.02c-.03.4-.06.76-.09 1.07-.06.74-.11 1.32-.16 1.72l-.08.71c-.03.32-.04.64-.03.97.12 3.81 3.2 6.79 7.01 6.79h.22c1.87-.06 3.61-.84 4.89-2.2.28-.29.53-.6.74-.93.26.71.66 1.31 1.09 1.74.54.54 1.21.91 1.96 1.08l21.62 4.87c1.6 1.67 3.26 2.06 4.47 2.06.82 0 1.57-.17 2.24-.47.69.31 1.48.52 2.34.52.81 0 1.53-.17 2.18-.47.29.05.59.07.89.07 2.52 0 4.54-1.62 5.09-2.12.23-.2.43-.43.6-.67.31-.06.61-.15.9-.25.6.24 1.27.39 2.01.39.72 0 1.37-.14 1.95-.38.22.03.44.04.67.04 2.36 0 4.23-1.5 4.74-1.96.71-.64 1.17-1.5 1.3-2.45.27-1.99-.33-3.94-1.68-5.51-2.02-2.33-6.01-3.94-11.91-4.81l4.97-.02c.4.34.87.6 1.4.76l4.01 1.23c.42.14.87.22 1.31.22h.19l4.13-.18c1.44-.07 2.67-.89 3.32-2.07h.58v1.11c0 1.76 1.15 3.31 2.83 3.82l4.02 1.23c.42.14.87.22 1.31.22h.19l4.13-.19c2.14-.09 3.82-1.85 3.82-3.99v-1.89l8.13.16c.74 0 1.44-.2 2.05-.57l4.29-.02c1.88 0 3.5-1.32 3.9-3.16l2.25-10.49h3.92c2.2 0 3.99-1.78 4-3.98l.01-1.27.01-.11c.05-.76-.12-1.5-.45-2.14zm-103.6 24.52l-.052-1.606-.05-1.42 4.96-.02-.18.252c-1.72.62-3.48 1.477-4.67 2.793z"/><path fill="#B2D573" d="M234.483 170.766c-.63-1.23-1.877-2.092-3.335-2.174l-16.16-2.646c-.213-.035-.427-.053-.642-.053-.56-.36-1.216-.584-1.92-.625l-12.824-2.098c.004-.074.006-.15.006-.225v-8.277c6.217-12.234 9.367-25.41 9.367-39.18 0-47.852-38.93-86.782-86.782-86.782S35.41 67.636 35.41 115.488c0 14.872 3.84 29.428 11.01 42.27-1.34.506-2.343 1.71-2.55 3.193l-.427 3.08-2.878-3.43c-.782-.93-1.915-1.43-3.067-1.43-.654 0-1.314.16-1.92.49-1.673.92-2.466 2.89-1.893 4.71l8 25.42c.524 1.67 2.07 2.8 3.815 2.8l36.308-.14c.278.17.58.31.9.4l4.015 1.23c.42.15.864.22 1.313.22h.186l4.125-.18c1.288-.05 2.412-.72 3.1-1.7h.805v.76c0 1.76 1.15 3.32 2.833 3.83l4.015 1.23c.42.15.864.22 1.313.22h.186l4.12-.19c2.13-.09 3.82-1.85 3.82-3.99v-1.9l4.72-.02c-.03.4-.06.76-.09 1.07-.06.74-.12 1.32-.16 1.72l-.09.71c-.04.32-.05.64-.04.97.12 3.81 3.19 6.79 7 6.79h.22c1.87-.06 3.61-.84 4.89-2.2.27-.29.52-.6.74-.93.25.71.65 1.31 1.08 1.74.53.54 1.21.91 1.95 1.08l21.62 4.87c1.59 1.67 3.25 2.06 4.46 2.06.82 0 1.57-.17 2.24-.47.69.31 1.47.52 2.34.52.81 0 1.53-.17 2.17-.47.29.05.58.07.88.07 2.52 0 4.54-1.62 5.09-2.12.23-.2.43-.43.6-.67.31-.06.61-.15.9-.25.59.24 1.26.39 2 .39.72 0 1.37-.14 1.95-.38.22.03.44.04.67.04 2.36 0 4.23-1.5 4.74-1.96.71-.64 1.17-1.5 1.3-2.45.27-1.99-.33-3.94-1.68-5.51-2.02-2.33-6.01-3.94-11.91-4.81l4.97-.02c.4.34.87.6 1.39.76l4.02 1.23c.42.14.86.22 1.31.22h.19l4.12-.18c1.44-.07 2.67-.89 3.32-2.07h.58v1.11c0 1.76 1.15 3.31 2.83 3.82l4.01 1.23c.42.14.86.22 1.31.22h.18l4.12-.19c2.14-.09 3.82-1.85 3.82-3.99v-1.89l8.13.16c.74 0 1.44-.2 2.05-.57l4.3-.02c1.88 0 3.5-1.32 3.9-3.16l2.25-10.49h3.91c2.2 0 3.99-1.78 4-3.98v-1.27l.01-.11c.05-.76-.11-1.5-.45-2.14zm-103.6 24.52l-.052-1.606-.05-1.42 4.96-.02-.18.252c-1.72.62-3.48 1.477-4.67 2.793z"/><linearGradient id="a" gradientUnits="userSpaceOnUse" x1="122.193" y1="16.127" x2="122.193" y2="200.079"><stop offset="0" stop-color="#1B1440"/><stop offset=".819" stop-color="#ED1E79"/></linearGradient><path fill="url(#a)" d="M64.332 174.666h115.723c15.37-15.03 24.92-35.982 24.92-59.178 0-45.72-37.062-82.782-82.78-82.782-45.72 0-82.783 37.063-82.783 82.782 0 23.196 9.55 44.15 24.92 59.178z"/><circle fill="#E2E2E2" cx="123.797" cy="116.049" r="39.125"/><circle fill="#AAA" cx="131.095" cy="89.809" r="6.365"/><circle fill="#AAA" cx="132.13" cy="103.472" r="4.606"/><circle fill="#AAA" cx="141.911" cy="98.142" r="4.037"/><path fill="#6FB344" d="M46.833 185.166c19.94-23.867 34.775-59.08 75.058-59.08 47.14 0 70.26 45.8 92.61 62.414"/><path fill="#75451D" d="M85.792 144.79h4v23.376h-4z"/><path fill="#4F3014" d="M86.792 144.79h4v23.376h-4z"/><path fill="#75451D" d="M177.042 144.79h4v23.376h-4z"/><path fill="#4F3014" d="M178.042 144.79h4v23.376h-4z"/><path fill="#ED1F24" d="M65.897 140.285h129.71v9.668H65.897z"/><path fill="#4C8C22" d="M37.5 163.166l8.667 10.334 1.666-12 3 11.666 2.668-8.334 5.34 8 4.34-6.332 3.67 8.332 4.67-5 3.34 5.334 4-5 7.34 5.666 5-2.666 2 4 5.33-4.666 6 5.666 5-4.334 7.34 5.334 6-5.334 8.34 3.668 5.34-5.334-.33 10 3.33-11.334 3.67 10 2.72-11.568 6.62 6.568 4.74-5.207 1.6 11.207 5.99-8.275 2.19 5.074 4.16-4.79 4.34 5.34 3-9 7.67 10.34 6.34-8.33 2.33 10 6.33-9.33 5 4 3.66-2.33 4 7.34 3.67-8.66 1 9.67 5-7.33-2.67 12.42-175.34.67"/><path fill="#B20F1B" d="M95 145.584s-1.05 2.656-.302 4.37h8.565l.07-.038-5.104-9.63h-3.88c-.37 1.267-.35 2.997.65 5.298z"/><path fill="#75451D" d="M88.042 190.29l-4.166-1.27v-19.727h4.166"/><path fill="#4F3014" d="M92.167 190.104L88 190.29v-20.997h4.167"/><path fill="#75451D" d="M104.417 194.416l-4.166-1.27v-19.728h4.17"/><path fill="#4F3014" d="M108.542 194.23l-4.166.186v-20.998h4.166"/><path fill="#B20F1B" d="M170.167 142.5c-.66 2.148-.99 5.768 1.44 7.453h8.845c.744-.162 1.215-.287 1.215-.287l-4.112-9.38h-7.253c.107.638.115 1.402-.135 2.214z"/><path fill="#75451D" d="M181.875 190.29l-4.167-1.27v-19.727h4.167"/><path fill="#4F3014" d="M186 190.104l-4.167.187V169.3H186"/><path fill="#75451D" d="M198.25 194.416l-4.167-1.27v-19.728h4.167"/><path fill="#4F3014" d="M202.375 194.23l-4.167.186v-20.998h4.167"/><path fill="#ED1F24" d="M65.897 153.277h129.71v9.668H65.897z"/><path fill="#A8170C" d="M82.455 170.94l-16.542-2.577v-1.812l16.542 2.58"/><path fill="#93100C" d="M212.18 170.94l-129.728.01v-1.85l129.736.162"/><path fill="#ED1F24" d="M212.227 169.29H82.515l-16.618-2.72h129.71"/><path fill="#B20F1B" d="M101.667 153.334l-.312-.057H97.9c-.22 1.447-.61 5.006.85 5.14 1.833.167 4.833-.167 4.833-.167s-1.166 1.75.834 1.75 6.083-1.25 5.916-5c-.03-.664-.183-1.23-.408-1.723h-8.17l-.088.057zm24.28-3.38l1.17-9.67h-10.815l-.3.05s-1.798 4.24-2.872 9.62h12.817zm-.4 3.323h-12.95c-.393 3.246-.383 6.656.482 9.668h11.29l1.17-9.668z"/><path fill="#A8170C" d="M101.187 174.266l-16.54-2.578v-1.813l16.54 2.578"/><path fill="#93100C" d="M230.91 174.266l-129.727.007v-1.85l129.737.16"/><path fill="#ED1F24" d="M230.958 172.613H101.246l-16.616-2.72h129.71"/><path fill="#B20F1B" d="M112.542 169.854s10.438-2.813 14.375 2.938l4.375.125-6.5-7.375s-18.75-.375-16.375 2.875 4.125 1.437 4.125 1.437z"/><path fill="#B20F1B" d="M106.917 167.916s-3.5 3.5 0 4.875l1.875 1.63h9.75l-6.625-5.5-5-1z"/><path fill="#FFF" d="M157.016 195.346c.085-.094.16-.195.24-.293-2.425.475-4.872-.06-4.872-.06-3.803 1.415-2.743 2.3-2.743 2.3l19.65 4.426c2.13 3.18 3.72 0 3.72 0 2.66 3.18 3.37.17 3.37.17 1.06 2.12 3.44 0 3.44 0 .96-7.08-22.78-6.55-22.78-6.55z"/><path fill="#FFF" d="M146.547 165.908l.507.06c.31.046.764.116 1.342.204 1.143.19 2.75.547 4.653 1.16 1.89.625 4.09 1.578 6.2 3.238 1.04.84 2.03 1.895 2.8 3.162.78 1.26 1.26 2.742 1.48 4.21.1.548.2 1.386.23 2.052.04.693.03 1.39 0 2.076-.07 1.377-.31 2.717-.64 3.973-.66 2.52-1.64 4.707-2.57 6.457-.93 1.75-1.73 3.13-2.15 3.977-.22.424-.32.713-.34.83-.03.133 0 .107-.01.123l-5.81-1.857c0 .02.11-.31.31-.707.2-.418.51-.885.85-1.39.69-1.02 1.67-2.187 2.65-3.636.97-1.447 2.02-3.143 2.7-5.094.34-.975.6-2 .74-3.06.07-.53.12-1.067.13-1.61.02-.57.01-.973-.05-1.654-.1-.992-.37-1.934-.85-2.773-.47-.85-1.11-1.61-1.86-2.26-1.5-1.31-3.37-2.1-4.99-2.65-1.64-.55-3.09-.78-4.09-.94-.5-.07-.9-.1-1.16-.12l-.38-.02.26-3.77z"/><path fill="#D0D2D3" d="M169.772 121.592s4.664-8.48-3.992-5.535c-8.657 2.945 3.992 5.535 3.992 5.535z"/><path fill="#FFF" d="M124.453 125.725c1.578-9.32 11.406-16.5 23.303-16.5 12.997 0 23.53 8.567 23.53 19.135 0 10.568-10.534 19.137-23.53 19.137-.488 0-.97-.016-1.453-.04-.52 2.27-.956 5.794.617 7.927 0 0 10.794 8.07 5.288 15.738.007-.057 1.417-13.436-8.883-15.82l1.87-8.426s-3.894-.916-8.44-2.924v10.557s10.868 12.68 4.715 21.27c-10.762-.33-32.418-6.09-17.017-50.07z"/><path fill="#D0D2D3" d="M136.756 154.508V143.95c4.546 2.01 8.438 2.925 8.438 2.925l-1.87 8.426c10.3 2.39 8.89 15.77 8.884 15.82-1.074 1.5-1.615 2.01-4.135 3.41 0 0-3.396 1.36-6.604 1.26 6.15-8.59-4.72-21.28-4.72-21.28z"/><ellipse fill="#D0D2D3" cx="151.291" cy="128.781" rx="19.996" ry="15.17"/><ellipse fill="#FFF" cx="161.503" cy="125.373" rx="7.816" ry="7.705"/><ellipse fill="#FFF" cx="143.325" cy="125.548" rx="9.648" ry="9.585"/><path fill="#6C6F71" d="M150.537 142.143s.512-1.545 2.102-1.414c0 0-.43-.47-2.11-1.18 0 0 1.48.14 2.5.95 0 0 3.73.34 2.65-2.73 0 0 2.09 3.66-2.88 3.24 0 0-1.23.23-2.28 1.13z"/><path fill="#BE1E2D" d="M154.61 137.354s1.194 1.447-1.09 2.207c0 0-1.297.54-3.076-1.38 0 0 9.907-4.49 4.166-.82z"/><path fill="#6C6F71" d="M154.958 134.27l-.26 1.64s-5.12 3.747-6.322.782l.447-1.148-1.537 1.97.922-.57s-.14 3.638 6.544-.583c0 0 3.077-1.23.364.67 0 0 4.506-2.04.14-1.28l.172-1.26-.47-.21z"/><path fill="#1D8FCD" d="M157.338 133.475s-1.738-3.54-2.38-1.67c0 0-1.438-2.104-1.438 1.273 0 0 1.362.93 1.438 2.055 0 0 1.408-.567 2.38-1.658z"/><path fill="#FFF" d="M154.958 134.27s-.088-.477-.763-.953c0 0 .25-.917.763.953z"/><circle fill="#0071BC" cx="141.572" cy="125.599" r="7.471"/><path fill="#0F4481" d="M142.11 127.48c1.387-1.605 1.213-4.025-.39-5.413-1.603-1.385-4.024-1.212-5.413.392-1.385 1.6-1.21 4.02.39 5.41 1.604 1.38 4.027 1.21 5.412-.39z"/><path fill="#FFF" d="M139.875 126.303c.738-.852.644-2.14-.208-2.875-.85-.736-2.138-.646-2.875.207s-.643 2.14.208 2.877c.853.736 2.138.642 2.875-.21z"/><circle fill="#FFF" cx="142.979" cy="124.441" r=".993"/><circle fill="#0071BC" cx="160.399" cy="125.468" r="6.202"/><path fill="#0F4481" d="M160.846 127.03c1.15-1.333 1.006-3.342-.323-4.494-1.33-1.15-3.342-1.006-4.495.325-1.15 1.33-1.005 3.35.326 4.5 1.328 1.15 3.34 1.01 4.492-.32z"/><path fill="#FFF" d="M158.99 126.053c.612-.708.535-1.775-.173-2.387-.705-.61-1.774-.536-2.387.172-.61.708-.534 1.776.173 2.39.707.608 1.775.532 2.386-.175z"/><circle fill="#FFF" cx="161.567" cy="124.507" r=".825"/><path fill="#A8170C" d="M64.74 153.277H66v9.617h-1.26zm0-13.043H66v9.62h-1.26z"/><path fill="#919496" d="M126.854 123.73s-.375-4.5 3.25-6c0 0-4.938-1.814-5.75-.69s-1.25 4.002 2.5 6.69z"/><path fill="#D0D1D2" d="M108.458 149.238s2.498 2.432 3.85 2.432.81 4.186-2.702 2.498"/><path fill="#FFF" d="M98.913 144.893s-2.447 2.61.164 5.223c2.61 2.61 2.12 4.732 2.12 4.732s-1.142 2.938.98 2.938 3.918-1.14 3.265-4.732c0 0 2.448 2.773.815 4.732-1.63 1.957 4.243 3.264 4.733-2.285.49-5.54-5.386-11.26-7.997-11.26"/><path fill="#D0D2D3" d="M131.397 116.58s.23 1.967-1.6 2.24c0 0-8.954-2.924-2.42 4.935 0 0 .73 1.188-.777 2.238 0 0-6.03-5.16-4.11-9.09 0-.002 1.46-4.297 8.907-.322z"/><path fill="#FFF" d="M128.07 168.05l-.622-.104-1.818-.27c-1.573-.204-3.838-.468-6.527-.58-1.34-.046-2.793-.044-4.268.073-.734.06-1.48.15-2.182.3-.695.14-1.377.36-1.822.61-.22.12-.36.25-.41.32-.03.02-.04.07-.03.05l-.06.15c.01 0 .02-.02.02-.03l.01-.03c.01-.04 0-.17-.04-.28-.04-.12-.1-.18-.1-.18s.23.15.53.26c.61.23 1.46.42 2.32.59.91.16 1.82.33 2.73.49 1.88.38 3.87.74 5.92 1.85 1.01.55 2.09 1.41 2.78 2.67.17.31.32.63.43.96l.08.25.07.25.09.32c.12.42.23.84.32 1.35.39 1.95.58 3.61.73 5.28.14 1.64.26 3.18.35 4.6.17 2.84.25 5.2.31 6.86l.09 2.62c.05 1.66-1.25 3.05-2.92 3.1-1.66.05-3.05-1.26-3.1-2.92 0-.14 0-.28.02-.42l.01-.05.08-.64c.05-.43.11-1.05.17-1.85.14-1.6.29-3.89.36-6.63.04-1.37.06-2.85-.01-4.4-.04-1.53-.16-3.23-.37-4.71-.03-.35-.12-.79-.22-1.23l-.06-.33-.02-.08-.01-.04c.01.03-.02-.1.02.06v-.01l-.02-.07c-.02-.1-.06-.18-.1-.27-.17-.33-.53-.7-1.11-1.03-1.16-.68-2.88-1.1-4.63-1.45l-2.74-.54c-.95-.21-1.91-.4-3.02-.83-.54-.23-1.15-.5-1.82-1.11-.33-.31-.67-.74-.88-1.28-.22-.54-.27-1.13-.23-1.61.03-.26.07-.44.13-.69l.11-.35.06-.15c.18-.44.38-.79.63-1.11.5-.64 1.07-1.05 1.6-1.35 1.08-.61 2.07-.87 3.01-1.08.94-.2 1.83-.31 2.69-.38 1.71-.15 3.28-.14 4.73-.11 2.89.07 5.25.3 6.91.48l1.93.22.7.1c1.18.16 2.01 1.25 1.85 2.43-.16 1.18-1.25 2.01-2.43 1.85l-.06-.01-.05-.01zm14.23 29.02c.058-.064.106-.13.163-.195-2.133.232-2.88-.707-4.546-.96-5.833 1.835-4.242 3.43-4.242 3.43l22.975 5.177c2.482 3.727 4.342 0 4.342 0 3.1 3.727 3.936.207 3.936.207 1.238 2.48 4.018 0 4.018 0 1.116-8.28-26.646-7.66-26.646-7.66z"/><path fill="#D0D2D3" d="M160.997 203.69s-.783-3.825-6.084-1.757c0 .003 5.772-3.312 6.084 1.758zm3.76 0s-.283-3.382-2.313-2.274c0 0 1.522-.414 2.313 2.275z"/><path fill="#FFF" d="M133.547 165.908s.185.02.53.063c.33.05.803.12 1.4.22 1.196.2 2.875.58 4.864 1.24 1 .34 2.06.77 3.15 1.35 1.09.59 2.22 1.3 3.28 2.23 1.07.93 2.03 2.13 2.73 3.53.35.7.61 1.44.81 2.2.08.39.18.75.23 1.17.05.33.11.61.14 1.03.15 1.57.07 3-.16 4.45-.24 1.43-.63 2.78-1.1 4.03-.92 2.52-2.11 4.67-3.16 6.41-1.05 1.74-1.93 3.14-2.41 4-.24.43-.36.74-.38.84-.02.08-.01.07 0 .08h.01l-5.81-1.85.09-.22c.06-.15.16-.37.27-.57.24-.45.56-.92.94-1.44.76-1.04 1.83-2.25 2.95-3.74 1.12-1.49 2.35-3.23 3.28-5.23.46-.99.85-2.05 1.11-3.13.26-1.06.39-2.24.38-3.27.02-.22-.02-.59-.05-.9 0-.22-.08-.49-.11-.74-.11-.5-.25-.98-.46-1.44-.41-.91-1.01-1.74-1.75-2.44-1.48-1.43-3.41-2.3-5.1-2.89-1.7-.6-3.22-.85-4.27-1-.52-.08-.94-.11-1.21-.13-.26-.02-.4-.02-.4-.02l.26-3.77z"/><path fill="#D0D2D3" d="M176.31 139.47s-2.416 2.29-.363 5.79c2.053 3.502-1.086 3.742.483 4.707 1.57.967 3.138-.48 3.138-2.05 0 0-1.568 5.913-.483 6.517 1.087.604 3.14 1.328 4.347-4.707 0 0 .603 3.982-.846 4.707 0 0 3.138.604 3.5-3.258.36-3.863-2.414-12.674-6.396-12.795"/><path fill="#FFF" d="M126.103 138.21l-1.565-.448c-1.008-.275-2.458-.656-4.208-1.055-3.484-.785-8.237-1.71-12.82-1.752-1.123.027-2.26.055-3.27.252-1.004.176-1.963.443-2.558.846-.62.395-.882.783-1.038 1.252-.014.14-.036.27-.07.402-.043.123.01.314 0 .46-.025.298.06.655.133.993.036.328.175.676.29 1.004.114.326.196.635.356.934.295.594.487 1.115.76 1.54l.77 1.337.078.137c.64 1.102.26 2.506-.84 3.137-1.1.63-2.5.25-3.13-.85l-.02-.04-.87-1.59c-.29-.49-.56-1.19-.9-1.94-.18-.37-.31-.82-.46-1.29-.15-.47-.31-.94-.39-1.53-.1-.56-.21-1.14-.18-1.84.02-.35-.02-.66.06-1.04.07-.37.15-.74.24-1.12.46-1.55 1.68-2.96 3.04-3.71 1.36-.81 2.75-1.11 4.1-1.33 1.36-.22 2.67-.23 3.99-.23 5.19.17 10.06 1.26 13.68 2.15 1.81.45 3.3.88 4.35 1.19l1.65.51c.99.31 1.55 1.36 1.24 2.35-.3.98-1.33 1.53-2.31 1.25l-.06-.02z"/><path fill="#D0D1D2" d="M159.954 135.89l.242-.177.67-.465c.582-.387 1.416-.922 2.475-1.484 1.07-.56 2.34-1.172 3.82-1.643 1.48-.47 3.18-.83 5.02-.7.92.08 1.87.25 2.76.64.46.16.87.43 1.29.65.38.29.8.53 1.11.86.34.31.67.63.93.97l.41.5.34.51c.23.34.43.67.58 1 .15.33.34.65.45.96.51 1.23.78 2.27.94 2.99l.24 1.14c.27 1.24-.53 2.47-1.77 2.73-1.24.27-2.47-.53-2.73-1.77l-.03-.19-.01-.14-.11-.92c-.07-.58-.22-1.4-.5-2.31-.05-.24-.17-.44-.25-.67-.08-.24-.19-.46-.31-.68l-.18-.34-.21-.31c-.13-.22-.3-.4-.47-.59-.15-.21-.37-.33-.55-.52-.22-.13-.41-.31-.66-.41-.45-.26-1.01-.41-1.6-.52-1.18-.19-2.53-.06-3.79.23-1.26.28-2.44.72-3.43 1.14-.99.42-1.8.84-2.35 1.14l-.63.36-.21.13-.04.02c-.59.35-1.35.17-1.71-.42-.34-.55-.18-1.27.33-1.65z"/><path d="M67.378 101.21l-16.8-5.487-.24-.083c-1.473-.508-2.332-1.06-2.576-1.652-.123-.297-.124-.62-.003-.968.67-1.954 1.83-3.262 3.46-3.926 1.63-.662 3.44-.652 5.42.03 1.24.43 2.42 1.205 3.53 2.322 1.11 1.118 1.84 2.245 2.18 3.382 1.7-1.284 3.54-1.985 5.52-2.104 1.98-.117 3.92.15 5.82.808 1 .347 1.95.953 2.83 1.82.88.867 1.55 1.66 2.01 2.38.45.718.75 1.56.9 2.524.14.964.05 1.935-.29 2.91l-.06.162c-.45 1.284-1.01 1.81-1.69 1.573l-10.05-3.69zm-16.853-8.65c-.134.388.29.75 1.274 1.09s2.53.848 4.66 1.522c2.12.675 3.66 1.176 4.61 1.504.08-.765-.3-1.577-1.14-2.437-.72-.72-1.42-1.34-2.13-1.88-.71-.55-1.14-.89-1.3-1.04l-1.47-.51c-.81-.28-1.7-.25-2.67.08-.98.33-1.6.88-1.87 1.66zm25.865 5.58c-.775-1.137-1.846-1.94-3.21-2.412-1.366-.47-2.606-.772-3.722-.902s-1.985-.15-2.608-.06-1.185.255-1.685.486c-.607.285-1.006.552-1.197.8l-.506 1.466c3.833 1.174 8.4 2.676 13.7 4.506.262-1.453.005-2.748-.77-3.884zm-5.524-21.93l.647.366C82.323 83.56 86.716 88.62 84.687 91.76c-.772 1.222-1.845 1.8-3.22 1.738-1.416-.054-2.67-.342-3.766-.864-1.68-.804-3.55-1.843-5.58-3.115s-4.95-3.14-8.76-5.6l-5.33-3.22c-.36-.56-.45-.98-.26-1.27.19-.3.58-.41 1.17-.35s1.14.25 1.64.57l9.94 6.41c.87.56 2.22 1.31 4.04 2.24 1.83.93 3.17 1.68 4.04 2.24 1.79 1.15 3.18.95 4.18-.59 1.12-1.74-4.86-6.84-17.96-15.3l-2.05-1.33-.62-.38c-.28-.19-.46-.39-.51-.61-.05-.22.02-.5.23-.83.21-.33.43-.54.64-.64.2-.1.41-.12.65-.07.36.09.79.29 1.28.6l3.52 2.62 2.95 2.13zm2.217-6.44l-2.754-2.442c-1.45-1.457-1.74-2.614-.88-3.473.55-.55 1.43-1.168 2.64-1.86s2.01-.835 2.41-.434c.42.43.43 1.05.05 1.87-1.28.63-2.25 1.21-2.92 1.73.47.42.92.84 1.36 1.28L77.27 71c.02.022.21.152.57.394l1.055-1.138c.995-.987 1.77-1.2 2.33-.637.22.22.32.5.305.85-.017.34-.163.65-.44.93s-.594.55-.956.83l-.784.77c.838.72 1.642 1.47 2.41 2.24l5.415 5.72c1.147 1.15 1.74 1.71 1.78 1.67l2.202-2.34c.784-.78 1.425-.92 1.924-.41.31.31.4.67.27 1.08-.13.41-.37.78-.71 1.12l-2.6 2.59c-.27.27-.61.42-1.01.45-.4.03-.74-.08-1.01-.33l-.81-.82-5.37-5.02-8.74-9.22zm11.547-5.088l-3.876-7.132c-.68-1.16-.76-2.353-.244-3.573l.14.238c.062-.118.136-.202.22-.252.587-.343 1.913.24 3.975 1.748 2.063 1.51 4.156 3.27 6.28 5.28 2.124 2.01 4.257 4.04 6.4 6.09 2.143 2.06 3.425 3.24 3.846 3.57-2.56-5.53-6.02-12.03-10.38-19.49l-.64-.97c-.43-.74-.34-1.3.28-1.66.36-.21.71-.22 1.06-.03.35.19.64.48.87.87l1.66 2.85c1.7 2.96 3.87 6.97 6.51 12.03 2.64 5.06 3.94 8.03 3.91 8.9-.56.61-.97.99-1.24 1.14-.26.16-.51.19-.76.09s-.51-.3-.81-.62c-.3-.31-.51-.51-.65-.6l-.08-.17c-.54-.93-3.16-3.35-7.87-7.28-4.7-3.92-8.01-6.58-9.91-7.98l11.05 18.9.3.17c.32.18.54.38.68.62s.16.53.07.9-.29.64-.59.82c-.82.48-1.67-.05-2.57-1.57l-7.6-12.83zm29.644-3.13l1.094 2.486c.085.344.426 1.15 1.022 2.417.597 1.267.946 2.106 1.048 2.52l.01.04c.153.62.017 1.076-.406 1.37-.59.146-1.075.163-1.453.052s-.64-.44-.77-.99c-.3-1.197-.93-2.886-1.91-5.065l-4.32.408c-.03 1 .02 2.072.16 3.22.13 1.147.2 1.99.21 2.53.01 1.105-.32 1.74-1 1.907-.33.08-.67.05-1-.093-.34-.144-.54-.38-.63-.71l.01-.397c.09-7.795-.26-15.276-1.05-22.446-.02-.19-.12-.77-.29-1.72-.37-2.09-.44-3.47-.19-4.13l1.42-.35c.38-.09.74-.09 1.07.02.33.11.54.34.63.7.53 2.15 1.6 5.26 3.21 9.34 1.61 4.08 2.65 7.05 3.1 8.91zm-1.998 1.39c-.184-.394-.403-1.102-.655-2.125-.25-1.024-.62-2.28-1.11-3.77-.49-1.49-1.09-3.217-1.81-5.177-.71-1.96-1.23-3.383-1.53-4.27.47 7.396.88 12.59 1.22 15.58.56.2 1.86.12 3.9-.24zm6.184 5.186l1.814.27c.552-.014 1.026-.268 1.424-.76.397-.492.686-1.102.864-1.83.345-1.395.503-2.63.475-3.697s-.234-2.12-.616-3.16-.84-1.99-1.38-2.88c-.54-.88-1.08-1.79-1.61-2.71-1.27-2.17-1.94-4.32-2-6.45-.03-1.3.16-2.46.57-3.47.77-1.89 1.84-2.85 3.2-2.89.51-.01 1 .14 1.47.45.47.32.71.67.72 1.05.02.67-.33 1.01-1.03 1.03-.31.01-.62-.06-.92-.23-.92.07-1.51 1.11-1.78 3.13-.06.44-.08.96-.06 1.54.02.59.16 1.31.44 2.17.28.86.62 1.62 1.03 2.28.41.66.85 1.4 1.32 2.2.47.81.91 1.58 1.33 2.34.95 1.75 1.45 3.76 1.5 6.04.06 1.76-.3 3.44-1.07 5.07-.37.81-.92 1.47-1.63 1.99-.72.52-1.54.8-2.48.84v.11c-1.19-.14-1.86-.68-2-1.62l.47-.76zm23.622-21.02l-1.44 5.42-2.056 9.795-1.546 7.67c-.343 1.374-.92 1.96-1.73 1.757-.468-.117-.756-.423-.865-.917-.11-.494-.1-1.01.036-1.546l2.02-6.654c.37-1.456.82-3.672 1.36-6.646.54-2.974.99-5.188 1.36-6.645l.99-3.673c.51-2.02.7-3.37.6-4.04l-2.34-.35c-.35-.09-.65-.28-.88-.56s-.3-.6-.21-.93c.09-.34.49-.54 1.23-.61.75-.08 1.62-.05 2.61.08 1.74.23 3.18.49 4.34.78.34.08.63.27.85.57.23.29.29.61.21.96s-.28.58-.57.72c-.29.13-.62.16-.98.07l-1.48-.46c-.19-.05-.33-.08-.43-.09-.22 1.67-.55 3.43-1.01 5.27zm8.976 21.274l-.743 2.612c-.154.318-.406 1.156-.755 2.513-.35 1.357-.616 2.227-.8 2.61l-.02.037c-.277.573-.673.84-1.186.795-.55-.27-.933-.57-1.152-.89s-.207-.75.04-1.26c.536-1.11 1.124-2.82 1.765-5.12l-3.586-2.44c-.66.75-1.3 1.61-1.93 2.58-.62.97-1.11 1.66-1.45 2.08-.7.85-1.36 1.13-1.98.83-.3-.15-.54-.39-.7-.71-.16-.32-.17-.64-.02-.95l.26-.3c5.05-5.95 9.55-11.93 13.52-17.96.11-.17.4-.67.88-1.51 1.05-1.85 1.88-2.95 2.49-3.3l1.32.63c.36.17.63.41.82.7.19.3.2.61.04.94-.96 1.99-2.12 5.07-3.48 9.24s-2.46 7.11-3.29 8.83zm-2.425-.205c.107-.42.392-1.104.85-2.054.46-.95.976-2.155 1.548-3.616s1.21-3.175 1.91-5.14 1.22-3.39 1.55-4.268c-4.35 5.99-7.36 10.25-9 12.77.31.51 1.36 1.28 3.16 2.3zm10.913-.854l-2.97 3.662c-2.39 3.002-4.057 5.54-5 7.61l-1.11.61-.947-.755-.06-.855c.83-1 1.75-2.136 2.76-3.404s3.07-4.05 6.18-8.36 5.48-7.48 7.11-9.53c.85-1.07 1.66-1.31 2.41-.71 1.18.94 1.93 2.05 2.25 3.31.31 1.27.01 2.48-.9 3.63l-1.91 2.4c-.52.66-1.12 1.15-1.79 1.5-.67.35-1.4.69-2.2 1.02-.8.34-1.23.53-1.32.57-.32.65-.97 1.91-1.95 3.78-2.15 4.07-3.44 7.19-3.87 9.39-.12.63-.28 1.07-.48 1.32s-.44.41-.71.47-.53 0-.76-.18c-.48-.38-.5-1.29-.07-2.73s1.04-2.93 1.83-4.47c2.43-4.71 3.72-7.34 3.86-7.89l-.42-.33zm8.11-9.913l-.5.39c-.74.93-1.79 2.29-3.143 4.082s-2.348 3.085-2.982 3.883c.76.146 1.76-.234 3.02-1.144 1.26-.9 2.14-1.67 2.63-2.29.5-.62.84-1.09 1.04-1.41.2-.32.39-.7.56-1.14.36-.91.16-1.69-.61-2.36zm-7.416 22.354l10.734-8.51c.727-.587 1.783-1.55 3.17-2.888s2.28-2.17 2.688-2.5c.407-.33.826-.46 1.257-.388.43.07.76.25.99.535 1.88 2.324 2.04 5.312.5 8.963-.88 2.092-2.18 3.837-3.91 5.233l-1.76 1.3-1.87 1.51c-2.27 1.83-3.87 2.95-4.79 3.36-.93.41-1.73.71-2.42.9-.69.18-1.35.29-2 .3-1.48.01-2.94-.3-4.37-.95l-1.98-2.45c-.46-.58.78-2.06 3.73-4.44zm.008 3.897l-.81.66c1.584 1.96 4.52 1.54 8.804-1.27.985-.65 1.902-1.32 2.75-2 6.807-5.5 9.305-9.68 7.496-12.55-1.026.56-2.318 1.47-3.877 2.72s-3.92 3.32-7.1 6.16c-3.17 2.85-5.59 4.95-7.26 6.29zm22.357-1.11l3.172-1.87c1.83-.93 3.02-.85 3.572.24.35.7.67 1.73.95 3.09s.17 2.18-.33 2.43c-.53.27-1.13.1-1.79-.52-.2-1.4-.45-2.51-.75-3.31-.54.32-1.09.62-1.64.9l-5.66 2.66c-.03.01-.21.15-.55.42l.76 1.36c.63 1.25.59 2.06-.11 2.42-.28.14-.58.15-.9.03-.33-.12-.58-.35-.75-.7-.18-.34-.34-.73-.5-1.16l-.5-.98c-.95.58-1.91 1.11-2.88 1.6l-7.12 3.4c-1.46.74-2.17 1.13-2.14 1.18l1.55 2.8c.5.99.43 1.64-.2 1.96-.4.2-.77.17-1.11-.08-.35-.25-.64-.59-.86-1.02l-1.66-3.28c-.18-.35-.22-.71-.12-1.11.09-.4.3-.69.62-.87l1.02-.52 6.43-3.57 11.46-5.47zm-14.363 16.61l.213 1.82c.158.53.525.92 1.105 1.18.578.26 1.242.38 1.99.36 1.44-.03 2.67-.2 3.695-.5 1.023-.3 1.986-.78 2.89-1.42.902-.64 1.71-1.33 2.423-2.09s1.445-1.51 2.193-2.26c1.77-1.8 3.67-3 5.71-3.61 1.25-.37 2.42-.49 3.51-.36 2.03.25 3.24 1.03 3.63 2.33.15.49.13 1-.05 1.54s-.45.86-.82.97c-.64.19-1.06-.05-1.26-.73-.09-.3-.09-.61-.02-.95-.3-.87-1.46-1.17-3.48-.9-.44.06-.94.17-1.5.34s-1.22.5-1.97.99-1.39 1.02-1.93 1.59c-.53.57-1.12 1.18-1.77 1.84-.65.66-1.29 1.29-1.9 1.89-1.44 1.38-3.25 2.39-5.44 3.02-1.68.52-3.4.61-5.17.29-.87-.15-1.65-.5-2.35-1.06-.69-.55-1.17-1.28-1.45-2.17l-.1.03c-.18-1.19.17-1.97 1.05-2.35l.86.26z" fill="#FFF"/></svg>