<svg xmlns="http://www.w3.org/2000/svg" width="250" height="250" viewBox="0 0 250 250"><path opacity=".15" d="M226.893 91.06c-2.878-8.184-8.93-12.877-16.602-12.877-2.4 0-4.96.47-7.6 1.397-6.9 2.426-12.29 9.978-15.66 16.023-5.18-3.604-11.65-5.434-19.32-5.434-5.83 0-11.28 1.07-15.23 2.13.02-.38.02-.75.03-1.12v-.03c8.99-2.61 25.26-8.62 31.13-19.19 1.35-2.43 2.37-4.89 3.03-7.3l.87-3.2-6.74-3.29 6.92-2.72-1.12-3.57c-1.83-5.79-6.18-10.73-12.58-14.29-4.54-2.52-9.08-3.8-13.49-3.8-3.47 0-7.76.81-11.99 3.7-6.58-10.99-15.06-13.36-21.09-13.36-4.67 0-9.47 1.37-14.27 4.09-14.09 7.97-17.85 21.76-9.8 35.99.48.85 1.04 1.66 1.64 2.46-.4.64-.78 1.31-1.14 2.01-2.49 4.93-3.17 9.89-1.95 14.34.95 3.48 3.58 8.39 10.73 12.01 1.03.52 2.16.95 3.37 1.28h-.07c-26.24 0-49 15.16-60 37.18-4.39-3.9-7.86-7.27-10.24-9.68.09-.38.14-.78.15-1.18.4-1 .67-2.07.77-3.2.29-3.1-.55-6.36-2.37-9.19-2.63-4.08-6.92-6.62-11.19-6.62-1.96 0-3.84.54-5.44 1.57-5.22 3.36-6.24 11.09-2.29 17.23 2.63 4.08 6.92 6.62 11.19 6.62.02 0 .04-.01.05-.01 3.64 13.68 7.77 25.86 12.38 36.5.13 4.06.62 8.03 1.44 11.88-3.56 5.15-5.67 10.84-2.22 15.23 2.01 2.55 5.38 3.69 9.47 3.74 5.6 9.84 13.6 18.14 23.23 24.07l2.83 1.66 8.96 4.12c1.08.39 2.16.76 3.26 1.1.18.05.36.1.54.16.82.25 1.64.48 2.47.7.3.07.59.14.89.22.73.18 1.46.35 2.19.5l1.04.21c.69.13 1.39.26 2.09.37l1.12.18c.7.1 1.39.18 2.09.26.38.04.75.09 1.13.12.74.07 1.49.13 2.23.17.34.02.67.05 1 .07 1.08.05 2.16.08 3.25.08 1.01 0 2.02-.03 3.03-.08.25-.01.5-.02.75-.04.93-.05 1.85-.12 2.78-.21.32-.03.63-.07.94-.11.65-.07 1.31-.15 1.96-.25l1.08-.15c.81-.13 1.61-.28 2.4-.43l1.28-.27c.57-.12 1.12-.25 1.68-.39.52-.13 1.04-.26 1.55-.4.65-.18 1.29-.36 1.92-.55l1.01-.32c.87-.27 1.73-.56 2.58-.87l.29-.11c.91-.34 1.81-.7 2.7-1.07l.22-.09c2.16-.92 4.27-1.94 6.32-3.08l2.87-1.59-.03-.11c9.36-5.82 17.17-13.87 22.71-23.41 1.17-.27 2.53-.87 3.9-2.06.57-.48 2.73-2.54 3.52-6.08 4.89-4.39 8.83-8.38 11.6-11.32.38-.02.76-.08 1.12-.19.34.03.68.07 1.03.07 4.27 0 8.56-2.54 11.19-6.63 3.96-6.15 2.93-13.87-2.29-17.23-1.59-1.03-3.47-1.57-5.44-1.57-.83 0-1.66.1-2.49.28-.09-.49-.24-.98-.5-1.44-.11-1.26-.5-2.79-1.58-4.05-1.1-1.29-2.68-2.02-4.45-2.05-1.32-1.61-3.27-2.79-5.76-2.79-.6 0-1.21.08-1.83.22-.41-.09-.85-.14-1.31-.14-.38 0-.77.04-1.15.1-.17-.5-.33-1.01-.51-1.5 3.3-.24 6.19-1.24 8.6-2.93 4.58 4.91 9.4 6.03 12.82 6.03 3.95 0 8.02-1.48 11.79-4.27 8.83-6.57 10.59-16.01 4.84-24.98 9.74-4.24 13.53-13.04 9.89-23.39zm-29.512 73.966c-.16.247-.33.442-.51.613-.3-.23-.62-.41-.97-.56.08-.25.19-.51.37-.78.52-.8 1.21-1.19 1.6-1.24.1.31.09 1.1-.47 1.96zM34.7 117.36c-.178-.172-.354-.366-.513-.613-.555-.862-.57-1.648-.474-1.963.385.05 1.078.44 1.594 1.24.176.273.283.53.364.776-.34.15-.67.334-.97.56zm103.008-22.562c-.44 1.73-.98 3.324-1.525 4.704-3.393-1.078-6.9-1.892-10.502-2.42 4.31-.323 8.61-1.303 12.03-2.284zm47.36 75.047c.09-.063.177-.137.267-.203l.02.08c-.095.04-.19.084-.286.123zm-25.235-57.032c-1.143-.993-2.313-1.957-3.52-2.873l.017-.012c.33-.227.66-.445.988-.657.2-.12.4-.26.598-.38.23-.14.46-.27.688-.41.176-.1.35-.21.524-.31l.697-.39c.167-.09.333-.18.498-.26l.703-.36c.156-.07.31-.14.466-.22.24-.11.48-.23.72-.33.105-.04.208-.08.313-.13.474-.2.946-.38 1.415-.55.163-.06.325-.12.487-.17.21-.07.42-.13.63-.19.13-.04.26-.08.392-.11-2.19 2.23-4.19 4.72-5.61 7.39z"/><path fill="#FAAF40" d="M225.328 87.735c-2.878-8.185-8.93-12.878-16.602-12.878-2.408 0-4.968.47-7.605 1.397-6.89 2.426-12.29 9.978-15.66 16.023-5.18-3.604-11.65-5.434-19.32-5.434-5.83 0-11.28 1.075-15.23 2.132.03-.382.02-.743.03-1.12v-.024c8.99-2.6 25.26-8.61 31.14-19.18 1.35-2.43 2.37-4.88 3.03-7.29l.87-3.19-6.74-3.28 6.93-2.71-1.12-3.56c-1.83-5.79-6.18-10.73-12.58-14.28-4.54-2.52-9.08-3.8-13.49-3.8-3.46 0-7.76.82-11.98 3.7-6.59-10.99-15.07-13.36-21.1-13.36-4.67 0-9.47 1.38-14.27 4.09-14.09 7.97-17.85 21.76-9.8 35.99.48.85 1.04 1.67 1.64 2.46-.4.64-.78 1.31-1.14 2.01-2.49 4.93-3.17 9.89-1.95 14.35.95 3.49 3.59 8.4 10.73 12.02 1.03.52 2.16.95 3.37 1.28l-.07-.01c-26.24 0-49 15.16-60 37.18-4.4-3.89-7.87-7.27-10.24-9.68.09-.38.13-.77.14-1.17.4-1 .67-2.07.77-3.2.29-3.1-.55-6.36-2.37-9.18-2.63-4.08-6.92-6.62-11.19-6.62-1.96 0-3.84.55-5.44 1.58-5.22 3.36-6.24 11.09-2.29 17.23 2.63 4.09 6.92 6.63 11.19 6.63h.05c3.63 13.69 7.76 25.86 12.38 36.51.13 4.06.62 8.03 1.44 11.88-3.57 5.15-5.68 10.84-2.23 15.23 2.01 2.56 5.39 3.69 9.47 3.75 5.6 9.84 13.61 18.14 23.23 24.08l2.83 1.66 8.95 4.1c1.08.4 2.17.77 3.26 1.11.18.06.37.11.55.16.82.25 1.64.49 2.47.71.29.08.59.14.88.22.73.18 1.46.35 2.19.51l1.05.21c.7.14 1.4.26 2.1.37.37.06.74.12 1.12.18.69.1 1.39.18 2.09.26.38.04.75.09 1.13.12.74.07 1.49.12 2.23.17.34.02.67.05 1 .06 1.08.05 2.16.08 3.25.08 1.01 0 2.02-.03 3.03-.08l.75-.03c.93-.05 1.86-.12 2.78-.21.32-.03.63-.07.94-.1.65-.07 1.31-.15 1.96-.25.36-.05.73-.1 1.08-.15.8-.13 1.6-.27 2.4-.43.43-.09.86-.18 1.28-.27.56-.12 1.12-.25 1.68-.39l1.55-.39c.65-.17 1.29-.36 1.93-.55l1.01-.31c.87-.27 1.73-.56 2.58-.87.1-.04.19-.08.29-.11.91-.34 1.81-.7 2.7-1.07l.21-.09c2.16-.91 4.27-1.93 6.33-3.07l2.88-1.59-.03-.11c9.35-5.82 17.17-13.88 22.7-23.42 1.17-.28 2.52-.87 3.9-2.06.57-.48 2.73-2.54 3.52-6.08 4.89-4.38 8.83-8.37 11.6-11.32.38-.01.76-.08 1.12-.19.34.03.68.07 1.03.07 4.27 0 8.56-2.54 11.19-6.62 3.96-6.15 2.93-13.87-2.29-17.23-1.59-1.03-3.48-1.57-5.44-1.57-.83 0-1.66.1-2.49.29-.09-.49-.24-.98-.5-1.44-.11-1.26-.5-2.78-1.58-4.05-1.1-1.29-2.68-2.01-4.45-2.04-1.32-1.61-3.27-2.79-5.76-2.79-.59 0-1.21.08-1.82.22-.42-.08-.85-.13-1.31-.13-.38 0-.77.04-1.15.11-.17-.5-.33-1.01-.51-1.5 3.3-.24 6.19-1.24 8.6-2.93 4.57 4.91 9.4 6.03 12.82 6.03 3.95 0 8.02-1.48 11.78-4.28 8.83-6.56 10.6-16.01 4.85-24.98 9.74-4.23 13.53-13.03 9.89-23.39zm-41.562 78.58l.02.082c-.096.04-.19.083-.286.122l.266-.21zm-29.024-59.7l.018-.012c.33-.227.66-.445.988-.657.2-.13.4-.26.598-.384.23-.143.458-.277.687-.412.175-.104.35-.208.523-.308.232-.134.464-.262.696-.388.166-.09.332-.178.497-.265.23-.13.47-.25.7-.36.15-.08.31-.15.46-.22.24-.12.48-.23.72-.34.1-.05.21-.09.31-.13.47-.2.94-.39 1.41-.56l.48-.18c.21-.07.42-.14.62-.2l.39-.12c-2.19 2.22-4.19 4.71-5.61 7.38-1.15-1-2.32-1.96-3.53-2.88zM136.14 91.473c-.44 1.73-.98 3.324-1.526 4.704-3.393-1.078-6.9-1.892-10.502-2.42 4.31-.323 8.602-1.303 12.027-2.284zM32.143 111.46c.385.05 1.078.44 1.594 1.24.176.272.283.53.364.775-.34.15-.67.333-.97.56-.18-.172-.35-.366-.51-.613-.55-.862-.57-1.65-.47-1.963zm164.145 48.28c.095.313.08 1.1-.474 1.96-.16.248-.336.443-.515.614-.3-.226-.63-.41-.97-.56.08-.244.19-.5.36-.773.51-.8 1.21-1.19 1.59-1.24z"/><circle fill="#3FD8D8" cx="114.344" cy="160.093" r="63.055"/><path fill="#A67C52" d="M114.344 223.148c11.082 0 21.492-2.865 30.54-7.886-.366-1.145-.84-1.933-.84-1.933 38.944-17.78.84-66.57-2.13-80.98-2.97-14.41 3.252-23.12 3.252-23.12 34.475-32.14 49.88 10.88 49.88 10.88-.085-.94-.194-1.84-.314-2.72-1.97-6.75-4.758-13.15-8.264-19.07-14.145-14.38-40.274-3.64-40.274-3.64C151.25 65.52 130.18 63.7 130.18 63.7c20.977 14.327 5.297 39.85 5.297 39.85-20.516 30.682 10.475 60.692 5.21 83.375-2.663 11.463-17.538 4.518-20.825 11.13-2.19 4.405-12.916 13.534-21.35 18.777-2.03 1.262-2.96 1.916-5.084 2.25-.318.05-.652.1-.99.15 6.824 2.53 14.203 3.916 21.906 3.916z"/><path fill="#779232" d="M202.448 80.028c-10.005 3.518-17.122 21.772-17.122 21.772s16.977 9.782 26.98 6.265c10.005-3.52 11.97-11.262 9.248-19.003-2.722-7.742-9.103-12.55-19.106-9.034z"/><path fill="#9EB13F" d="M211.177 111.966c-6.325-8.514-25.868-9.9-25.868-9.9s-4.32 19.113 2.01 27.626c6.32 8.513 14.3 8.095 20.89 3.2 6.58-4.895 9.29-12.413 2.96-20.926z"/><path fill="#754C24" d="M141.256 142.884s-11.3-18.807.363-35.03c4.78-6.66 15.49-9.634 23.54-10.163-5.77 1.06-12.43 4.49-20 11.55 0 0-6.22 8.71-3.25 23.12 2.78 13.52 36.48 57.29 8.5 77.33 14.64-26.96-9.17-66.8-9.17-66.8zm4.16-66.567c1.578 4.416 2.168 10.36.778 18.38l-3.433 2.112c.01 0 3.28-9.23 2.66-20.5z"/><path fill="#55B53F" d="M189.48 121.03c2.02-10.413-10.135-25.78-10.135-25.78s-17.02 9.71-19.04 20.12 3.668 16.018 11.724 17.58c8.05 1.565 15.43-1.51 17.45-11.92z"/><path fill="#F15A22" d="M37.428 119.31s77 87.667 155.334 47.334c0 0-47 51-90.668 37.667-43.666-13.33-60.333-70.95-64.666-85z"/><path fill="#FFF" d="M97.39 168.543l2.26-1.188c.66-.394 1.447-.84 2.354-1.405.906-.59 1.933-1.244 3-2.04.545-.38 1.09-.805 1.648-1.253.567-.437 1.14-.9 1.708-1.407.58-.49 1.164-1.006 1.733-1.56.588-.537 1.162-1.11 1.73-1.708 1.156-1.174 2.246-2.473 3.31-3.81 1.015-1.37 2.022-2.776 2.834-4.254.815-1.47 1.525-2.976 1.976-4.44.44-1.45.62-2.87.465-3.882-.158-1.052-.522-1.43-1.065-1.786-.57-.347-1.495-.633-2.556-.65-1.02-.07-2.09.026-3.045.165-.946.102-1.826.355-2.52.474l-2.242.61-2.02-7.29 2.714-.61c.91-.12 1.95-.36 3.26-.45 1.29-.12 2.782-.2 4.534.01 1.7.16 3.818.64 5.877 2.11 1.024.72 1.938 1.77 2.6 2.96.303.59.54 1.22.746 1.85.13.61.3 1.26.34 1.86.2 2.46-.32 4.65-1.02 6.66-.73 2-1.71 3.81-2.78 5.54-1.07 1.73-2.3 3.29-3.54 4.79-1.28 1.46-2.58 2.85-3.93 4.1-.66.63-1.33 1.24-2.01 1.8-.66.58-1.33 1.12-1.99 1.63-.65.52-1.3 1-1.95 1.45-.63.46-1.25.89-1.87 1.28-1.21.81-2.37 1.47-3.39 2.07-1.04.58-1.99 1.06-2.75 1.46l-2.31 1.07-2.08-4.2z"/><path fill="#D0D1D2" d="M127.652 184.69s.788.1 2.168.272c.686.083 1.55.218 2.428.236l1.43.077.77.043c.267-.006.54-.012.818-.02.555-.01 1.133-.02 1.73-.033.6-.006 1.198-.116 1.82-.17.622-.062 1.26-.118 1.89-.273.633-.142 1.287-.23 1.93-.415.64-.19 1.29-.387 1.946-.584.64-.255 1.287-.512 1.94-.77 1.29-.585 2.58-1.22 3.85-1.987.64-.35 1.272-.755 1.9-1.168.627-.408 1.252-.797 1.87-1.243 1.237-.847 2.455-1.723 3.637-2.595l6.53-4.84c1.95-1.425 3.58-2.608 4.74-3.42l1.82-1.283 5.09 8.252s-.68.37-1.87 1.04c-1.2.65-2.9 1.62-4.93 2.8l-7.04 4.12c-1.31.76-2.68 1.54-4.12 2.31-.7.39-1.46.76-2.2 1.14-.74.38-1.5.75-2.29 1.08-1.54.71-3.18 1.32-4.8 1.84-.83.23-1.65.47-2.47.68l-2.47.46c-.81.13-1.62.17-2.4.25-.78.09-1.55.09-2.29.08-.74-.02-1.47.03-2.15-.04-.69-.06-1.35-.12-1.98-.17l-.93-.09-.89-.15-1.63-.27c-1.05-.15-1.84-.37-2.52-.52l-2.13-.51.75-4.19z"/><path fill="#FFF" d="M62.51 169.395s35.748 59.024 67.252 32.25c6.483-5.512 16.134-28.63-6.4-34.11-7.982-1.94-18.6 5.775-27.6-2.558"/><path fill="#D0D1D2" d="M88.028 176.535s23 28.833 41.833 13c3.78-3.17 6.5-15.333-6.33-18.667 0 0-6.5-1-11.83 2.834-5.33 3.833-13-1.333-13-4s-12.83 3.333-12.83 3.333l2.17 3.5z"/><path fill="#FFF" d="M118.317 194.158l2.29-.213c.73-.066 1.616-.147 2.598-.27.99-.12 2.105-.225 3.314-.412 1.21-.166 2.52-.358 3.87-.62 1.37-.22 2.77-.57 4.21-.9.71-.196 1.43-.396 2.16-.6.72-.204 1.43-.476 2.16-.71.73-.224 1.43-.54 2.14-.82l1.06-.432 1.04-.49c1.39-.62 2.73-1.4 4.04-2.14l1.91-1.19c.63-.39 1.23-.85 1.83-1.25 1.2-.8 2.32-1.73 3.39-2.53l2.97-2.44c.9-.79 1.73-1.52 2.46-2.17.73-.64 1.35-1.25 1.87-1.72l1.63-1.51 7.62 9.33-1.96 1.35c-.63.43-1.37.96-2.26 1.54l-2.99 1.94-3.65 2.2c-1.35.73-2.7 1.55-4.23 2.28-.76.37-1.5.77-2.29 1.12l-2.41 1.06c-1.66.65-3.34 1.31-5.09 1.81l-1.3.39-1.31.32c-.88.21-1.74.45-2.61.58-.87.15-1.73.34-2.58.45l-2.51.31c-1.64.13-3.23.28-4.72.31-1.49.07-2.89.07-4.18.06-1.28.01-2.46-.05-3.5-.07-1.05-.02-1.93-.07-2.66-.11l-2.3-.12-.09-4.25z"/><path fill="#D0D1D2" d="M101.678 127.238s7.886-7.903 6.917 4.67l-2.104-.73-4.81-3.94z"/><ellipse transform="rotate(61.69 85.77 150.55)" fill="#FFF" cx="85.768" cy="150.546" rx="24.28" ry="30.302"/><ellipse transform="rotate(61.69 88.86 148.54)" fill="#D0D1D2" cx="88.858" cy="148.535" rx="19.343" ry="25.358"/><ellipse transform="rotate(61.7 100.05 140.56)" fill="#FFF" cx="100.057" cy="140.562" rx="10.24" ry="10.391"/><ellipse transform="rotate(61.69 78.9 152.22)" fill="#FFF" cx="78.896" cy="152.215" rx="12.741" ry="12.825"/><path fill="#919396" d="M59.414 149.62c.002-.01-.668 6.548.158 8.128l-1.438-.84s-10.096-5.137 1.28-7.29z"/><path fill="#D0D1D2" d="M61.045 146.903s-7.22-.646-9.557 3.498c0 0-2.502 6.34 7.23 9.24l2.454.88s.714-1.51-.544-3.27c0 0-11.803-4.32-.102-7.1 0 0 1.59-1 .52-3.23z"/><circle fill="#0071BC" cx="76.469" cy="151.99" r="9.678"/><circle fill="#0F4481" cx="74.148" cy="151.417" r="4.971"/><circle fill="#FFF" cx="75.027" cy="150.7" r="2.642"/><circle fill="#FFF" cx="69.93" cy="153.97" r="1.286"/><circle fill="#0071BC" cx="98.854" cy="140.83" r="7.958"/><circle fill="#0F4481" cx="96.944" cy="140.358" r="4.087"/><circle fill="#FFF" cx="97.667" cy="139.768" r="2.173"/><circle fill="#FFF" cx="93.475" cy="142.458" r="1.057"/><path fill="#FFF200" d="M37.428 119.31s43.334 142 155.334 47.334c0 0-110.668 132.334-155.334-47.333z"/><path fill="#FFF" d="M83.408 183.767l-.572.367c-.38.24-.935.594-1.642 1.043-.783.45-1.756 1.07-2.833 1.628-1.07.6-2.32 1.217-3.69 1.87-1.38.635-2.89 1.286-4.53 1.9-1.65.596-3.4 1.203-5.29 1.676-1.89.49-3.88.91-6.04 1.11-2.16.19-4.46.27-7.14-.41-.64-.13-1.38-.44-2.08-.74-.34-.12-.74-.4-1.09-.61-.36-.25-.72-.43-1.07-.78-.35-.32-.69-.66-1.01-1.01-.3-.37-.57-.81-.83-1.24-.28-.43-.45-.87-.59-1.33-.14-.45-.31-.94-.37-1.37-.09-.83-.2-1.78-.09-2.47.04-.37.08-.74.13-1.11.05-.37.15-.65.23-.98.17-.63.34-1.28.58-1.79.23-.53.44-1.11.68-1.58.5-.95.99-1.9 1.53-2.69l.79-1.22.81-1.1c.53-.74 1.07-1.41 1.6-2.04.53-.63 1.03-1.26 1.54-1.81 1.01-1.12 1.94-2.14 2.79-2.98.84-.86 1.58-1.61 2.21-2.19l1.95-1.86 6.04 6.55-1.81 1.72c-.59.54-1.26 1.22-2.03 2-.79.77-1.61 1.67-2.51 2.66-.47.49-.88 1.02-1.34 1.56-.46.54-.91 1.1-1.33 1.68l-.66.89-.59.9c-.43.62-.72 1.22-1.06 1.83-.26.59-.55 1.21-.64 1.67-.03.12-.1.27-.1.35 0 .09-.01.17-.02.26-.07.22.03.2-.02.3-.01.03.03-.02.01-.02-.02 0-.04-.01-.03-.05 0-.03-.05-.05-.06-.06.02-.02.01-.03 0-.02-.05.01.05.02.07.04.05.02.02.07.13.09.18.05.29.15.58.2.99.27 2.53.32 4.06.18 1.54-.12 3.15-.45 4.69-.84 1.55-.37 3.04-.89 4.45-1.38 1.41-.52 2.72-1.07 3.92-1.61 1.19-.56 2.28-1.09 3.22-1.61.97-.49 1.69-.96 2.34-1.32.67-.4 1.24-.78 1.61-1.01l.57-.36 4.63 7.25z"/><path fill="#D0D1D2" d="M39.274 109.138c-2.765-4.295-7.736-6.02-11.103-3.854-3.36 2.168-3.85 7.407-1.09 11.702s7.74 6.02 11.11 3.854c3.37-2.167 3.86-7.407 1.09-11.702zm-2.875 8.928c-2.17 1.395-5.37.284-7.15-2.48-1.78-2.764-1.47-6.135.7-7.53 2.16-1.395 5.36-.283 7.14 2.48 1.78 2.764 1.46 6.136-.7 7.53z"/><path fill="#FFF200" d="M36.953 116.952s1.906-.39 2.156 2.89c0 0 .53.767.98.064.7-1.087-.97-4.22-2.74-3.906 0 0-.74.202-.41.952z"/><path fill="#F15A22" d="M36.277 117.65s1.906-.39 2.156 2.89c0 0 .53.767.984.064.7-1.087-.97-4.22-2.734-3.906 0 0-.74.202-.406.952z"/><path fill="#FFF200" d="M35.36 118.046s1.905-.39 2.155 2.89c0 0 .53.767.984.064.7-1.087-.97-4.22-2.74-3.906 0 0-.74.202-.41.952z"/><path fill="#F15A22" d="M34.516 118.655s1.906-.39 2.156 2.89c0 0 .53.767.984.064.7-1.09-.97-4.22-2.734-3.91 0 0-.738.2-.406.95z"/><path fill="#D0D1D2" d="M190.25 169.12c3.366 2.167 8.338.44 11.103-3.854s2.276-9.534-1.09-11.702c-3.367-2.167-8.34-.44-11.104 3.854s-2.28 9.535 1.09 11.702zm1.082-10.304c1.78-2.764 4.98-3.875 7.146-2.48 2.167 1.396 2.48 4.767.702 7.53-1.78 2.765-4.98 3.875-7.146 2.48s-2.48-4.766-.702-7.53z"/><path fill="#FFF200" d="M191.48 165.232s-1.906-.39-2.156 2.89c0 0-.53.767-.984.064-.7-1.087.97-4.22 2.734-3.906 0 0 .74.202.406.952z"/><path fill="#F15A22" d="M192.156 165.93s-1.906-.39-2.156 2.892c0 0-.53.766-.984.063-.7-1.087.97-4.22 2.734-3.906 0-.01.74.2.406.95z"/><path fill="#FFF200" d="M193.074 166.326s-1.906-.39-2.156 2.89c0 0-.53.767-.984.064-.7-1.087.97-4.22 2.734-3.906 0 0 .738.202.406.952z"/><path fill="#F15A22" d="M193.918 166.936s-1.906-.39-2.156 2.89c0 0-.53.767-.984.064-.7-1.087.97-4.22 2.734-3.906 0-.002.738.202.406.952z"/><path fill="#D0D1D2" d="M95.885 161.95c4.22 3.962 6.795 4.89 7.96 3.944 1.145-.932.683-3.424-2.23-8.246"/><path fill="#6D6F71" d="M95.885 161.95s.26.142.673.438c.42.29.983.723 1.65 1.263.677.53 1.487 1.11 2.415 1.61.467.24.962.47 1.477.59.508.12 1.052.14 1.436-.11.038-.02.115-.07.124-.08l.155-.15c.062-.1.12-.15.165-.27.107-.2.135-.46.154-.71.01-.51-.095-1.05-.244-1.55-.287-1.01-.72-1.91-1.09-2.68-.388-.76-.672-1.42-.885-1.88-.2-.46-.3-.74-.3-.74s.193.22.505.63c.296.42.72 1.01 1.123 1.78.396.78.85 1.7 1.173 2.76.165.53.296 1.11.294 1.72-.017.31-.046.64-.192.95-.05.15-.18.33-.284.46l-.152.15c-.093.09-.15.11-.227.17-.61.39-1.324.3-1.894.16-.58-.15-1.1-.4-1.59-.67-.96-.54-1.77-1.16-2.46-1.71-1.37-1.08-2.02-2.08-2.02-2.08z"/><path fill="#BE202E" d="M99.94 156.854c-1.075.232-2.36-.413-3.024-1.35.543 1.426.092 3.163-.973 4.35 2.943 2.765 5.322 4.23 6.135 3.568.8-.65-.105-3.203-2.138-6.568z"/><path fill="#6D6F71" d="M100.956 151.93c.038-.033.738.622 1.005 2.096.16 1.04-.34 2.35-1.56 2.978-.63.304-1.37.22-2-.017-.16-.056-.32-.118-.47-.214l-.22-.13c-.08-.048-.16-.093-.15-.096l-.1-.083v.017l.01.07c0 .03.01-.01.01.06v.19c-.01 1.76-1 3.32-2.31 4.11-.66.4-1.4.61-2.1.6-.7-.03-1.34-.13-1.9-.44-1.22-.76-1.69-1.51-1.65-1.56.08-.1.72.55 1.87 1.13.97.44 2.36.51 3.49-.23 1.13-.69 1.99-2.1 2-3.6l.01-.16c0-.04-.04-.22-.06-.32l-.16-.72c-.05-.23-.14-.51-.21-.76l-.11-.38-.06-.19c-.02-.05 0-.03.03 0l.06.08.76.89.7.7c.05.05.13.13.16.15l.1.06.19.11c.12.09.25.14.39.19.53.21 1.11.27 1.56.06.43-.2.83-.6 1.04-1.04.25-.43.29-.91.27-1.36-.12-1.3-.65-2.09-.52-2.14z"/><path fill="#0B8ECC" d="M95.05 152.01s-2.493-1.755-1.768 3.356l3.917.828 1.18-3.358c0-.002-3.65-3.11-3.33-.825z"/><path fill="#FFF" d="M93.8 155.035l1.68.35s-1.037-1.284-1.68-.35zm3.71-.743l.45-1.097s-.756.033-.45 1.097z"/><g fill="#D0D1D2"><path d="M185.83 145.863s-1.04-4.482-5.283-2.966c-4.242 1.515-13.86 9.387-10.307 34.368 0 0 1.64 4.213 5.392 2.28 0 0 2.085-.976 2.86-3.642s-.594-9.432.674-11.68c0 0 5.813-1.367 5.17-8.907 0 0 2.994 2.583 5.18-1.938 2.184-4.52.447-4.236.447-4.236s.85-5.386-4.134-3.28z"/><path d="M178.768 147.22c-.594 2.413-.116 6.52 3.413 5.722 2.58-.556 4.35-4.677 3.69-7.044"/><path d="M182.504 152.842c.014-.056-.085-.14.04-.168.778 1.68 1.634 3.335 3.948 2.103 1.986-1.058 3.342-4.386 3.45-5.55m-13.262 13.968c.182-.49.643-.676 1.022-1 1.383-1.028 2.556-2.405 2.535-4.255"/></g><path fill="#FFF" d="M175.996 143.975s-2.64-5.204-7.404-2.052c-4.766 3.15-14.223 15.763-2.273 45.452 0 0 3.29 4.69 7.33 1.173 0 0 2.27-1.832 2.42-5.352.14-3.52-3.6-11.437-2.72-14.59 0 0 6.74-3.445 3.66-12.535 0 0 4.47 2.28 5.79-3.95 1.32-6.23-.74-5.35-.74-5.35s-.59-6.89-6.09-2.78z"/><path fill="#6D6F71" d="M176.045 144.008c.06-.054.682.696.9 2.127.176 1.16.11 2.515-.265 3.918-.392 1.37-1.103 2.922-2.583 3.842-.743.423-1.548.73-2.407.685-.85-.026-1.632-.432-2.173-.967-1.094-1.092-1.52-2.44-1.775-3.574-.265-1.37-.11-2.26-.03-2.26.114 0 .137.86.5 2.14.277 1.07.742 2.33 1.708 3.25.48.45 1.104.76 1.794.78.685.04 1.42-.24 2.06-.61 1.262-.77 1.956-2.18 2.342-3.47.376-1.32.473-2.6.347-3.7-.092-1.36-.522-2.14-.418-2.19z"/><path fill="#6D6F71" d="M182.08 146.87c.09-.024.313.894.138 2.297-.085.754-.264 1.602-.548 2.5-.13.452-.354.896-.54 1.368l-.394.674c-.13.22-.267.45-.464.65l-.552.62c-.217.16-.404.35-.638.49-.434.3-.945.52-1.47.58-1.093.11-1.942-.53-2.463-1.06-.67-.68-1.03-1.28-1.21-1.58l.11.02c-.07-.07.01.16-.04.14-.02 0-.04-.02-.07-.04-.04 0-.14-.17.02-.27l.11.02c.27.22.72.76 1.39 1.34.53.48 1.25.94 2.06.82.4-.06.81-.23 1.19-.51.2-.12.37-.3.56-.45l.48-.55c.17-.17.3-.38.42-.59.12-.21.25-.42.37-.62.18-.44.4-.85.53-1.28.29-.85.5-1.66.62-2.38.28-1.34.24-2.21.34-2.23zm-9.31 13.673c.052-.03.49.84.313 2.294-.042.55-.24 1.235-.576 1.917-.355.682-.772 1.26-1.144 1.643-.425.54-.872.915-1.06 1.2-.2.293-.257.506-.32.497-.032.005-.07-.242.083-.628.17-.404.545-.797.91-1.357.3-.44.64-1.01.972-1.64.31-.63.535-1.23.656-1.72.274-1.31.034-2.19.165-2.21z"/><path fill="#D0D1D2" d="M143.747 188.41s16.28-4.04 21.614-2.458c0 0-2.36-9.76-3.23-11.51-.77-1.538-17.21 12.385-18.37 13.968z"/><path fill="#FFF" d="M161.86 173.036s5.827 12.71 3.73 12.655c-3.563-.09-14.87-.59-15.313-.78-1.656-.68.315-2.39 3.75-5.31 3.345-2.84 7.834-6.56 7.834-6.56z"/><path fill="#9EB13F" d="M169.26 54.478l11.932-4.68c-1.593-5.037-5.498-9.096-10.715-11.993-10.187-5.658-21.494-4.756-28.807 8.408S144 85.475 144 85.475s27.25-5.607 34.562-18.77c1.236-2.226 2.105-4.36 2.662-6.403l-11.963-5.824z"/><path fill="#55B53F" d="M112.848 88.194c9.903 5.014 28.854-2.826 28.854-2.826s-4.9-19.913-14.803-24.926c-9.91-5.014-17.18-.892-21.06 6.77-3.88 7.666-2.9 15.97 7 20.982z"/><path fill="#779232" d="M105.256 58.963c7.818 13.82 36.6 19.51 36.6 19.51s9.95-27.6 2.133-41.42c-7.82-13.82-19.75-14.68-30.45-8.628-10.7 6.05-16.11 16.72-8.29 30.538z"/><path d="M113.542 99.213c-.104-.027-.21-.05-.316-.07l-.71-.124c-.487-.21-1.022-.33-1.584-.33-.24 0-.484.01-.73.04-.194-.03-.393-.04-.595-.04-1.055 0-2.082.33-3.293 1.05-1.525.88-2.282 1.95-2.658 2.9-.1-.05-.192-.1-.303-.15-.516-.25-1.093-.38-1.7-.38h-.78c-.8 0-1.58.24-2.242.69-1.58 1.07-2.99 2.26-4.22 3.55-.87-4.1-3.82-4.48-4.84-4.48-1.18 0-2.1.25-2.81.61-.85-1.27-2.24-2.02-3.78-2.02-.77 0-1.69.17-2.6.78-1.12-1.11-2.38-1.68-3.75-1.68h-.25c-.33-.08-.69-.13-1.07-.13-3.07 0-5.75 1.98-7.98 5.85-.41-.2-.84-.38-1.32-.5-.33-.09-.66-.13-.99-.13-.39 0-.78.05-1.15.17-.16-.4-.36-.75-.55-1.06-1.27-2.05-3-2.35-3.92-2.35-2.56 0-4.2 1.88-5.29 3.89-.19-.21-.37-.42-.57-.62l-.13-.13c.36-.26.73-.56 1.11-.9.9-.33 1.63-.97 2.09-1.77.16-.22.44-.59.84-1.12 1.17-1.54 1.95-2.88 1.95-4.45 0-.67-.16-1.32-.48-1.9-.59-1.59-1.99-3.44-5.15-4.67-1.84-.75-3.68-1.14-5.46-1.14h-.23c-.16 0-.32.01-.49.03-.87-.76-1.98-1.43-3.41-1.43-3.02 0-4.38 2.84-5.49 5.14-1.08 2.31-1.48 3.48-1.63 4.32l-4.07 15.19c-.08.31-.13.62-.14.94-.01.25-.07.82-.18 1.77-.05.54-.08.99-.1 1.37l-.15.46c-.12.43-.16.87-.13 1.31-.02.29-.02.6.02.9.04.31.12.61.23.9 0 .17 0 .34.02.53.09 1.17.67 2.19 1.53 2.86.6.56 1.38.95 2.26 1.05.16.02.32.03.48.03 1.25 0 2.41-.58 3.15-1.54.8.25 1.71.37 2.75.37.28.05.56.08.85.08.34 0 .7-.03 1.09-.11.04 0 .07 0 .11-.01.23.02.44.04.64.04.42 0 .83-.06 1.22-.18.37-.07.72-.17 1.05-.3.33-.02.66-.09.97-.18.6-.11 1.12-.33 1.61-.56l.1-.05c.51-.15.96-.42 1.36-.75 1.03 1.74 2.84 2.86 5.17 3.04.11.01.21.01.32.01h.31c.94 0 2.33-.31 3.73-1.79.08-.05.17-.11.25-.18.08.12.17.23.27.34 1.19 1.75 2.67 2.14 3.75 2.14.64 0 1.26-.13 1.87-.4.56-.2 1.05-.53 1.46-.94.68.51 1.37.88 2.11 1.06.52.23 1.09.35 1.65.35h.02c.32.08.64.12.96.12.52 0 1.05-.1 1.53-.3.78-.15 1.51-.53 2.08-1.1.12-.11.27-.27.44-.46.53.19 1.05.27 1.49.27h.7c1.58 0 2.7-.74 4.01-2.26.09.25.21.49.35.72.18.7.54 1.36 1.06 1.88l.28.27c.75.75 1.77 1.17 2.83 1.17.54 0 1.08-.09 1.65-.27 1.26-.32 2.28-1.25 2.74-2.45.52.18 1.06.27 1.61.27.17 0 .31 0 .42.01.25.04.5.07.75.07.07 0 .14 0 .21-.01h.21c.54 0 1.09-.11 1.61-.34.18-.08.36-.17.54-.26.08.21.18.43.31.64.71 1.24 2.03 2.01 3.47 2.01.44 0 .82-.07 1.11-.13.61-.11 1.18-.35 1.67-.71.52.22 1.05.38 1.7.38.17 0 .34-.01.51-.03.17.02.34.03.51.03.48 0 1.08-.08 1.72-.37 1.82-.16 4.11-1.24 5.63-5.1.71-1.81 1.06-3.38 1.06-4.78 0-.99-.17-2.53-1.23-5.77.53-.2 1.02-.51 1.42-.92l.39-.39c.75-.75 1.17-1.77 1.17-2.83 0-1.69-1.02-3.94-3.89-4.69zm-68.816 13.68c-.085.04-.16.073-.227.102-.18.04-.36.093-.53.157-.39.02-.72.052-1 .096-.08.012-.15.026-.23.042.4-1.324.77-2.536 1.1-3.63.63.118 1.34.49 2.11 1.106.49.393.76.69.91.878l-.22.158c-.32.22-.6.43-.86.64-.34.12-.69.275-1.08.452zm156.37-13.68c-.104-.027-.21-.05-.316-.07l-.712-.124c-.485-.21-1.02-.33-1.583-.33-.24 0-.483.01-.73.04-.193-.03-.393-.04-.595-.04-1.37 0-2.556.61-3.292 1.05-.125.07-.22.15-.336.22-.598-.25-1.222-.38-1.87-.38-.085 0-.17 0-.253.01-.34-.08-.7-.13-1.08-.13-1.59 0-3.08.53-4.45 1.57.57-1.37 1.04-2.55 1.42-3.57l.06-.2c.65-.95 1.11-1.91 1.11-3.06 0-1.13-.43-2.04-.79-2.7-1.3-2.34-3.33-2.59-4.15-2.59-.94 0-3.29.3-4.79 3.18-.2.4-.4.82-.61 1.25-.77 1.38-1.62 3.35-2.61 6.02l-.92 2.49c-1.02.02-2.25.24-3.53.92-.61-.36-1.31-.58-2.06-.58h-.47c-.76 0-1.48.21-2.1.59-.82-.74-1.93-1.18-3.17-1.18-2.13 0-3.69 1.24-4.95 3.02-.41-.68-1-1.24-1.72-1.58-.29-.21-.64-.43-1.07-.59-.52-.25-1.1-.39-1.71-.39h-.78c-.8 0-1.58.24-2.24.69-3.58 2.42-6.29 5.42-8.06 8.91-.22.34-.45.67-.69 1-.06.08-.11.15-.15.23-.25.41-.45.81-.61 1.21.06-.35.11-.72.15-1.12.18-1.38.27-1.75.28-1.78.11-.42.15-.85.13-1.27.25-1.07.44-1.92.56-2.61.74-3.61 1.31-6.49 1.75-8.78.47-1.51.86-2.41 1.12-2.91.11-.03.21-.06.31-.1.49-.17.94-.43 1.32-.76 1.42-.64 2.35-2.06 2.35-3.64v-.55c0-1.96-1.41-3.59-3.27-3.93l-.01-.01c-.65-.49-1.71-1.28-3.18-1.28-1.24 0-2.14.52-3.16 1.18l-.35.24c-.21.03-.43.08-.63.15-5 1.64-9.15 3.32-9.15 7.19 0 .83.23 1.64.7 2.49 1.15 2.05 2.92 2.37 3.75 2.4-.4 1.96-.54 2.69-.6 3.04-.19.36-.33.75-.4 1.16-1.3 7.45-1.46 9.64-1.46 10.71 0 .76.1 1.48.28 2.15l.03.7c.02.48.09.93.21 1.37.03.36.12.73.25 1.08.08.2.13.35.17.46.48 1.66 1.98 2.83 3.71 2.88h.13c1.6 0 3.04-.94 3.67-2.4.54-.7.84-1.56.84-2.45v-.34c.01-.03.01-.06.02-.1.11.67.35 1.33.74 1.97.09.15.18.29.28.43.14.24.29.46.48.67 1.09 1.26 2.54 1.95 4.06 1.95.17 0 .31 0 .42.01.25.04.5.07.75.07.07 0 .15-.01.22-.01h.21c.55 0 1.09-.11 1.61-.34.19-.08.37-.17.55-.26.08.22.18.44.3.65.71 1.24 2.04 2.01 3.47 2.01.35 0 .69-.05 1.11-.14 1.23-.21 2.31-.99 2.88-2.13.06-.13.14-.3.2-.48.41.15.8.27 1.18.34.25.04.49.07.74.07.92 0 1.83-.33 2.55-.93.56-.46.97-1.05 1.21-1.72.24-.27.49-.55.73-.83.42-.49.77-.95 1.05-1.38.22.65.59 1.45 1.24 2.15.52.76 1.2 1.36 1.82 1.84 1.26.98 2.39 1.63 3.8 1.64.27.05.54.08.81.08.48 0 .89-.08 1.3-.2.15-.01.3-.02.44-.05l.17-.02c.19.02.38.04.59.04.77 0 1.53-.2 2.38-.63 1.19-.43 2.11-1.41 2.46-2.62.09.18.19.36.3.52.12.21.26.41.42.6 1.55 1.84 2.91 3.11 4.54 3.49.52.23 1.08.35 1.65.35h.01c.31.08.64.12.96.12.52 0 1.04-.11 1.53-.31.63-.12 1.21-.39 1.72-.79.61.3 1.22.51 2.01.51.17 0 .34-.01.5-.03.17.02.34.03.51.03.48 0 1.08-.08 1.72-.37 1.82-.16 4.11-1.24 5.63-5.09.71-1.82 1.05-3.38 1.05-4.78 0-.99-.16-2.53-1.23-5.77.54-.2 1.02-.52 1.43-.93l.39-.39c.75-.75 1.17-1.77 1.17-2.82 0-1.69-1.02-3.94-3.89-4.69zM192.56 115.1c-.094.04-.184.08-.27.123-.07.035-.137.07-.203.108-.3.07-.582.19-.853.32.596-.62 1.26-1.36 2.036-2.25l.073-.08c.008.11.004.21.02.32.032.2.01.32-.047.44-.062.1-.23.34-.6.83l-.157.21z" opacity=".15"/><path d="M112.542 97.88c-.104-.027-.21-.05-.316-.07l-.71-.124c-.487-.21-1.022-.326-1.584-.326-.24 0-.484.013-.73.04-.194-.026-.393-.04-.595-.04-1.055 0-2.082.33-3.293 1.05-1.525.883-2.282 1.95-2.658 2.905-.1-.05-.192-.102-.303-.145-.516-.243-1.093-.38-1.7-.38h-.78c-.8 0-1.58.24-2.242.688-1.58 1.073-2.99 2.264-4.22 3.553-.87-4.09-3.82-4.47-4.84-4.47-1.18 0-2.1.26-2.81.62-.85-1.26-2.24-2.02-3.78-2.02-.77 0-1.69.18-2.6.78-1.12-1.11-2.38-1.67-3.75-1.67-.08 0-.17.01-.25.01-.33-.07-.69-.12-1.07-.12-3.07 0-5.75 1.98-7.98 5.85-.41-.2-.84-.37-1.32-.5-.33-.08-.66-.12-.99-.12-.39 0-.78.06-1.15.17-.16-.4-.36-.75-.55-1.05-1.27-2.04-3-2.35-3.92-2.35-2.56 0-4.2 1.89-5.29 3.9-.19-.21-.37-.41-.57-.62l-.13-.13c.36-.26.73-.56 1.11-.89.9-.33 1.63-.96 2.09-1.77.16-.22.44-.59.84-1.12 1.17-1.53 1.95-2.88 1.95-4.45 0-.67-.16-1.32-.48-1.9-.59-1.59-1.99-3.43-5.15-4.66-1.84-.76-3.68-1.14-5.46-1.14h-.23c-.16 0-.32.01-.49.03-.87-.76-1.98-1.43-3.41-1.43-3.02 0-4.38 2.84-5.49 5.14-1.08 2.31-1.48 3.48-1.63 4.32l-4.08 15.18c-.08.31-.12.62-.13.94-.01.26-.07.82-.18 1.78-.04.53-.08.99-.1 1.37l-.15.46c-.12.44-.16.88-.13 1.32-.02.3-.02.6.02.9.04.32.12.62.23.91 0 .17 0 .35.02.53.09 1.17.67 2.19 1.53 2.86.6.56 1.38.95 2.26 1.05.17.02.33.03.49.03 1.25 0 2.41-.59 3.15-1.54.8.24 1.71.37 2.75.37.28.06.56.08.85.08.34 0 .7-.03 1.09-.11.04 0 .07 0 .11-.01.23.03.44.05.64.05.42 0 .83-.06 1.22-.17.38-.06.72-.17 1.05-.3.34-.02.66-.08.97-.18.59-.1 1.12-.32 1.6-.56l.1-.04c.51-.15.96-.42 1.36-.75 1.04 1.75 2.85 2.86 5.17 3.05.11.01.22.02.32.02h.31c.95 0 2.33-.3 3.73-1.78.09-.06.17-.11.25-.18.09.12.18.23.27.33 1.19 1.75 2.67 2.14 3.75 2.14.64 0 1.26-.13 1.87-.4.56-.2 1.05-.53 1.46-.94.68.52 1.37.88 2.11 1.06.53.24 1.09.36 1.65.36h.02c.32.08.64.12.96.12.52 0 1.05-.1 1.53-.3.78-.15 1.51-.53 2.08-1.1.12-.12.27-.27.44-.47.53.19 1.05.27 1.49.27h.7c1.57 0 2.69-.74 4-2.25.09.25.21.5.35.72.18.71.54 1.36 1.06 1.88l.28.27c.75.75 1.77 1.17 2.83 1.17.54 0 1.08-.09 1.65-.28 1.26-.32 2.28-1.25 2.74-2.45.52.18 1.06.27 1.61.27.17 0 .31 0 .42.01.25.05.5.07.75.07h.43c.54 0 1.09-.11 1.61-.34.19-.08.37-.17.54-.26.09.22.19.43.31.65.71 1.25 2.04 2.02 3.48 2.02.44 0 .81-.07 1.11-.14.61-.1 1.17-.35 1.67-.71.51.22 1.05.38 1.7.38.17 0 .34-.01.5-.03.17.02.34.03.51.03.48 0 1.08-.08 1.72-.37 1.82-.16 4.11-1.23 5.64-5.09.71-1.81 1.06-3.37 1.06-4.77 0-.99-.17-2.52-1.23-5.77.53-.2 1.02-.51 1.42-.92l.39-.39c.75-.75 1.17-1.76 1.17-2.82-.01-1.7-1.02-3.94-3.89-4.69zm-66.887 12.59c-.312.22-.595.43-.853.64-.34.12-.685.275-1.076.452-.085.04-.16.072-.227.1-.18.042-.36.094-.53.158-.39.02-.72.052-1 .096-.08.012-.15.026-.23.042.4-1.324.77-2.536 1.1-3.63.63.118 1.34.49 2.11 1.106.49.393.76.69.91.878-.06.045-.14.098-.22.158zm154.44-12.59c-.103-.027-.21-.05-.315-.07l-.712-.124c-.485-.21-1.02-.326-1.583-.326-.24 0-.483.013-.73.04-.193-.026-.393-.04-.595-.04-1.37 0-2.556.61-3.292 1.05-.125.07-.22.15-.336.225-.598-.25-1.222-.377-1.87-.377-.085 0-.17.003-.253.008-.34-.074-.7-.125-1.08-.125-1.59 0-3.08.53-4.45 1.58.57-1.36 1.04-2.55 1.42-3.56l.06-.19c.65-.94 1.11-1.91 1.11-3.05 0-1.12-.43-2.03-.79-2.69-1.3-2.33-3.33-2.59-4.15-2.59-.94 0-3.29.31-4.79 3.18-.2.41-.4.83-.61 1.25-.77 1.39-1.62 3.36-2.61 6.03l-.92 2.5c-1.02.02-2.25.24-3.53.93-.61-.36-1.31-.57-2.06-.57h-.47c-.76 0-1.48.21-2.1.59-.82-.74-1.93-1.18-3.17-1.18-2.13 0-3.69 1.25-4.95 3.02-.41-.68-1-1.23-1.72-1.58-.29-.2-.64-.42-1.07-.59-.52-.24-1.1-.38-1.71-.38h-.78c-.8 0-1.58.24-2.24.69-3.58 2.43-6.29 5.42-8.06 8.91-.22.34-.45.67-.69 1-.06.08-.11.15-.15.23-.25.41-.45.82-.61 1.21.06-.35.11-.72.15-1.12.18-1.37.27-1.74.28-1.78.11-.42.15-.84.13-1.27.25-1.06.44-1.92.56-2.61.74-3.61 1.31-6.48 1.75-8.78.47-1.51.86-2.4 1.12-2.91.11-.02.21-.05.31-.09.49-.17.94-.43 1.32-.76 1.42-.64 2.35-2.05 2.35-3.64v-.54c0-1.96-1.41-3.59-3.27-3.93-.65-.49-1.71-1.27-3.18-1.27-1.24 0-2.14.52-3.16 1.18l-.35.23c-.22.03-.43.08-.63.15-5 1.65-9.15 3.33-9.15 7.19 0 .83.23 1.64.7 2.49 1.15 2.05 2.92 2.37 3.75 2.4-.4 1.96-.54 2.7-.6 3.05-.19.36-.33.75-.4 1.16-1.3 7.46-1.46 9.64-1.46 10.71 0 .77.1 1.49.28 2.15l.03.7c.02.48.09.93.21 1.37.03.37.12.74.25 1.09.08.2.13.35.17.46.48 1.66 1.98 2.83 3.71 2.88h.13c1.6 0 3.04-.94 3.67-2.4.54-.7.84-1.56.84-2.45v-.34c.01-.03.01-.06.02-.09.11.67.35 1.33.74 1.97.09.15.18.29.28.43.13.24.29.46.47.67 1.09 1.26 2.54 1.95 4.06 1.95.17 0 .31 0 .42.01.25.05.5.07.75.07h.22l.21.01c.55 0 1.09-.11 1.61-.34.19-.08.37-.17.55-.26.08.22.18.44.3.66.71 1.25 2.04 2.01 3.47 2.01.35 0 .69-.04 1.11-.13 1.23-.21 2.31-.99 2.88-2.13.07-.13.14-.29.2-.48.4.16.8.27 1.18.35.24.05.49.07.74.07.92 0 1.83-.32 2.55-.92.55-.46.97-1.05 1.21-1.72.24-.27.48-.55.73-.83.42-.49.76-.94 1.05-1.37.22.65.59 1.45 1.24 2.15.52.76 1.2 1.36 1.82 1.84 1.26.97 2.39 1.63 3.8 1.64.27.05.54.08.81.08.48 0 .88-.08 1.29-.21.15-.01.3-.03.44-.05l.17-.02c.19.02.38.04.59.04.77 0 1.53-.2 2.38-.64 1.19-.44 2.11-1.41 2.46-2.63.09.18.19.36.3.52.12.22.26.42.42.61 1.55 1.85 2.91 3.11 4.54 3.49.52.24 1.09.36 1.65.36h.02c.31.08.64.12.96.12.52 0 1.04-.11 1.53-.31.62-.12 1.21-.39 1.71-.79.61.3 1.22.51 2.01.51.17 0 .34-.01.5-.03.17.02.34.03.51.03.48 0 1.08-.08 1.72-.37 1.82-.16 4.11-1.23 5.63-5.09.71-1.81 1.05-3.37 1.05-4.77 0-.99-.16-2.52-1.23-5.77.54-.2 1.02-.51 1.43-.92l.39-.39c.75-.75 1.17-1.76 1.17-2.82 0-1.69-1.02-3.94-3.88-4.69zm-7.73 14.406c.03.2.01.313-.05.44-.06.095-.23.342-.6.832l-.157.21c-.093.038-.183.078-.27.122-.068.035-.136.07-.202.108-.3.07-.582.183-.853.316.596-.623 1.26-1.365 2.036-2.257l.07-.086c.01.11 0 .21.02.32z" fill="#FFF"/><path fill="#0071BC" d="M54.36 95.042c0 .364-.378 1.04-1.132 2.028-.754.99-1.13 1.508-1.13 1.56-.027-.078-.13-.117-.313-.117-1.326 1.248-2.132 1.872-2.418 1.872-.078 0-.156-.04-.234-.117-.182.182-.17.273.04.273-.885.5-2.172 1.37-3.862 2.62 1.51.65 2.97 1.68 4.37 3.08 1.72 1.72 2.58 3.37 2.58 4.96 0 .6-.4 1.5-1.21 2.69-.85 1.28-1.61 1.91-2.26 1.91-.1 0-.14.04-.12.12.03.08-.01.12-.11.12s-.14-.02-.11-.08c.06-.07.06-.13 0-.15-.07.08-.18.24-.31.47l-.62-.11-.19.2.2.16c.16-.18.37-.19.63-.04-.13.03-.36.12-.68.28-.33.16-.54.23-.65.23h-.16c0-.08-.05-.11-.15-.11-.1 0-.13.04-.08.11.05.08.03.12-.08.12-.1 0-.15-.02-.13-.06.02-.04-.02-.06-.1-.06-.1 0-.31.08-.62.23-.31.16-.52.24-.62.24-.02 0-.11-.05-.27-.15-.03.02-.05.08-.06.16-.01.08-.07.12-.17.12s-.25-.02-.43-.05c-.18-.04-.32-.06-.43-.06-.08 0-.11.02-.1.05.01.03-.03.05-.12.05s-.21.01-.37.05c-.16.03-.29.05-.39.05-.1 0-.18-.02-.21-.06-.04-.04-.1-.06-.2-.06-.09 0-.11-.04-.06-.12.06-.08.03-.12-.07-.12-.08 0-.11.05-.11.15 0 .08-.06.12-.16.12-.83 0-1.47-.1-1.91-.31-.78-.33-1.36-.55-1.72-.66 0 .06.1-.04.31-.27-.11-.1-.24-.15-.39-.15-.08.08-.12.21-.12.39 0-.26-.41-.54-1.25-.86-.26.76-.55 1.77-.86 3.05 0-.16-.09-.23-.27-.23-.02-.36.04-.58.2-.66 0-.15-.06-.17-.19-.04 0-.54-.09-.87-.27-.97.24-.23.47-.4.7-.5-.1-.05-.33-.07-.7-.07.05-.18.14-.4.27-.66 0-.39.04-1.03.12-1.91.13-1.17.2-1.85.2-2.03L40 96.31c.05-.52.5-1.66 1.33-3.43.91-1.9 1.532-2.85 1.87-2.85.26 0 .68.3 1.25.9-.08.16-.197.47-.35.94.13.11.21.16.23.16.08 0 .35-.08.82-.237.47-.15.82-.23 1.05-.23.11 0 .22.02.335.06.11.03.22.05.33.05.1 0 .14-.04.11-.11s.02-.12.12-.12.126.04.06.12c-.063.08-.044.12.06.12.105 0 .12-.04.06-.12s-.045-.12.06-.12c1.27 0 2.6.28 3.98.86 1.77.67 2.77 1.58 3 2.73l.116.12zm-18.292 22.23h-.195v-.312h.195v.312zm13.923-7.02c0-1.273-.84-2.587-2.52-3.94-1.68-1.35-3.37-2.027-5.05-2.027-.31 0-.76-.123-1.36-.37-.59-.248-.92-.397-.97-.45-.62 2.29-1.62 5.63-2.99 10.023v.35c0 .418.21.86.63 1.327.37.052.78.208 1.23.468.46.26.71.39.76.39.08 0 .11-.013.1-.04-.01-.024.04-.038.14-.038.08 0 .12.04.12.117l.16-.117c.03.022.04.06.02.114s.05.08.18.08c.08 0 .13-.04.16-.1.03-.07.09-.1.2-.1.18 0 .24.1.16.31 0-.03-.01-.05-.04-.08v-.04h.16c.08 0 .32.03.74.1.42.06.74.1.98.1-.1-.13-.15-.29-.15-.47.34-.05.88-.08 1.63-.08.08 0 .11-.04.1-.12-.01-.08.03-.12.14-.12.11 0 .42-.12.93-.35s.81-.35.86-.35c.13 0 .24.04.31.11.26-.34.73-.75 1.42-1.23s1.1-.84 1.23-1.06c.13-.22.28-.46.46-.72.23-.6.35-1.17.35-1.72zm-11.27-2.77v-.194h-.66v.195h.67zm.86-3.665l-.08-.156-.27.12v.2l.35-.15zm12.79-8.93c0-.208-.15-.474-.46-.8-.31-.325-.57-.487-.78-.487l-.35.117c-.1 0-.14-.02-.12-.058.03-.04-.01-.06-.11-.06s-.43-.08-.99-.24c-.56-.16-.89-.24-.99-.24-.1 0-.2-.02-.29-.06-.09-.04-.19-.06-.29-.06-.52 0-1.21.13-2.06.39-1.51.47-2.46.93-2.85 1.38-.39.45-.72 1.1-1.01 1.93-.21.67-.41 1.36-.62 2.06-.21.54-.35.86-.43.93.03.07.04.17.04.27 0 .23-.09.58-.27 1.05-.21.6-.32.96-.35 1.09.16 0 .24.08.24.23.83-.31 1.63-.47 2.38-.47.18 0 1.4-.63 3.67-1.87.06.08.09.15.12.23.91-.94 2.04-1.77 3.4-2.5.39-.42.85-.98 1.39-1.68s.8-1.11.8-1.21zm13.15 14.156c0-.025-.08.58-.25 1.813-.17 1.235-.25 2.165-.25 2.79 0 1.61-.07 2.743-.23 3.392.11.26.16.376.16.35v1.56c-.03 0-.09.026-.19.08-.1.05-.21.077-.31.077-.15 0-.35-.208-.58-.624-.62-.52-.93-1.8-.93-3.86 0-1.09.09-2.08.28-2.96l-.19-.19c-.28.08-.43.28-.43.59-.08-.08-.15-.11-.23-.11-.19.29-.17.42.04.39-.58.57-1.04 1.07-1.41 1.48-.67.76-1.05 1.31-1.13 1.64-.16.11-.66.67-1.52 1.68-.1 0-.18-.02-.22-.06-.04-.04-.07-.06-.1-.06v.45c-.15.03-.39.23-.72.6-.32.37-.6.56-.84.56-.1 0-.15-.06-.15-.19h-.15c-.13 0-.13.07 0 .2-1.63-.13-2.45-1.09-2.45-2.86 0-.39.14-.83.43-1.33.03-.07 0-.22-.08-.43s-.11-.35-.11-.43c0-.62.51-2.25 1.52-4.89 1.15-3.02 2.13-4.53 2.97-4.53.16 0 .34.16.53.47.2.31.29.53.29.66 0 .37-.3.81-.89 1.33-.47 1.28-.8 2.13-.98 2.54-.39.89-.76 1.52-1.09 1.88.08.08.16.12.24.12-.18.73-.36 1.48-.54 2.23-.26 1.04-.39 1.87-.39 2.47 0 .47.11.71.32.71.44 0 1.54-1.09 3.28-3.28 1.28-1.56 2.25-2.84 2.93-3.86.13 0 .38-.27.74-.82.36-.54.77-.82 1.21-.82-.1-.12-.1-.25 0-.39 1.01.27 1.52.83 1.52 1.68zm-1.75 7.723l-.31-.156-.04.156.32.156.04-.156zm.74.74l-.15-.078-.15.312.16.078.16-.312zm.24.742l-.15-.312-.15.04.16.272h.16zm12.71-13.768c0 .052-.04.248-.11.585-.05.26-.05.442 0 .546-.52.71-1.57 1.99-3.16 3.87-2.08 2.39-3.31 3.59-3.7 3.59h-.82c-.13.13-.19.39-.19.78 0 1.56.93 2.99 2.77 4.29.06-.07.08-.15.08-.23.08.05.46.13 1.13.24.19.19.28.32.28.39s-.14.26-.43.55c-.07-.1-.2-.15-.39-.15 0-.18.04-.31.12-.39-.13-.1-.26-.15-.39-.15l-.19.16c.16.18.26.35.31.51-.15 0-.23.09-.23.28-.18-.08-.4-.19-.66-.35l-.31.23c-.16-.15-.35-.23-.59-.23-.47 0-1.31-.73-2.53-2.18.13-.05.29-.13.47-.23v-.08h-.66c-.49-1.87-.74-2.97-.74-3.31 0-1.93.69-4.18 2.07-6.75 1.53-2.84 3.12-4.25 4.76-4.25.13 0 .35.06.66.17.32.12.5.18.55.18.11 0 .13-.04.08-.12-.05-.08-.04-.12.04-.12.42 0 .9.37 1.44 1.09.26.37.39.74.39 1.13zm-1.63.118c0-.078-.04-.182-.12-.312-.05-.104-.05-.182 0-.234-.07 0-.2-.025-.37-.078-.17-.052-.3-.078-.41-.078-.83 0-1.86 1.04-3.08 3.12-1.09 1.898-1.65 3.25-1.67 4.056.99-.96 1.98-1.91 2.97-2.847 1.8-1.82 2.7-3.03 2.7-3.627zm-1.44 4.64v-.195h-.31v.195h.32zm2.85-5.03v-.312h-.35v.312h.35zm12.45 3.354c0 .39-.17 1.417-.5 3.08-.31 1.56-.5 2.42-.58 2.575.06.078.08.208.08.39 0 .936-.21 1.703-.62 2.3.08.053.16.08.23.08-.16.44-.31 1.013-.47 1.715-.21 0-.37-.014-.5-.04-.13-.025-.18-.038-.15-.038l-.31.234c-.13-.104-.23-.156-.31-.156 0-.104-.02-.35-.06-.74s-.06-.65-.06-.78c0-1.093.16-1.886.47-2.38-.07-.052-.15-.078-.23-.078v-.624c0-.182.09-.598.28-1.248.18-.65.3-1.313.35-1.99.11 0 .2.04.28.118l.28-.312c-.1.026-.3.04-.58.04.04-.157.08-.417.12-.78.03-.365.06-.625.08-.78l-.07-1.015c-.41.44-1.03 1.023-1.86 1.75-1.19 1.71-2.4 3.42-3.61 5.128-1.76 2.47-2.8 3.7-3.11 3.7h-.7c-.39 0-.58-.52-.58-1.55 0-.49.11-1.11.31-1.86.29-.98.44-1.55.47-1.71.26-1.37.46-2.34.59-2.91.31-1.09.7-2.06 1.17-2.91-.05-.31.13-.96.55-1.94.47-1.09.95-1.63 1.45-1.63.23 0 .41.13.53.37.12.25.24.51.37.77l-3.2 10.29c.29-.05.6-.35.94-.89.23-.42.48-.82.74-1.21l4.8-6.59c.44-.23.85-.56 1.21-.97.18-.23.59-.35 1.21-.35.73 0 1.09 1 1.09 3zm-10.18 7.605l-.46.117v-.156l.39-.156.08.195zm8.43 4.177c-.02 0-.11.025-.25.076-.14.05-.28.076-.41.076l-.27-.273c0-.026.06-.065.18-.117.12-.052.18-.143.18-.273 0-.208-.14-.455-.43-.74h-.39c.13-.023.34-.063.63-.118.29-.056.49-.095.62-.117.11.078.16.22.16.43-.31-.08-.5-.08-.58 0 .21.2.4.263.59.188v.868zm.7-6.674c-.12-.312-.19-.546-.19-.702-.1 0-.16.156-.16.468.09 0 .2.08.35.234zm14.51-5.148c0 .988-.28 2.678-.85 5.07-.08.702-.2 1.847-.35 3.432 0-.025-.04-.104-.12-.234-.08.14-.19.492-.35 1.053.16-.208.29-.312.39-.312-.08.19-.27.43-.58.75.08.08.16.12.24.12-.05.03-.09.09-.12.18-.02.09-.06.15-.11.18.13.13.25.2.35.2-.05.16-.2.38-.46.67.11.23.13.4.08.51-.03 0-.09.02-.2.04-.1.03-.18.04-.23.04-.1-.18-.14-.5-.12-.97-.16-.15-.3-.23-.43-.23.03 0 .06-.03.12-.08.05-.05.14-.08.27-.08.08 0 .09.04.04.12-.05.08-.03.12.08.12-.03 0 .1-.06.39-.19-.16-.21-.42-.34-.78-.39l.07-.78c-.31-.29-.46-.56-.46-.82 0-.08.06-.25.17-.51.12-.25.18-.46.18-.62.03 0-.09.12-.35.35 0-.23.08-.41.24-.54l-.07-2.73c-.65.57-1.51 1.6-2.57 3.08-.73 1.02-1.63 1.76-2.69 2.23.02-.08.02-.23 0-.47-.13.05-.28.2-.43.47-.18-.05-.57-.08-1.17-.08-.37 0-.72-.2-1.05-.58l.12-.08c-.16-.05-.31-.21-.47-.47-.16-.26-.23-.49-.23-.7 0-.41.18-.91.55-1.51.31-.44.61-.88.89-1.32 1.46-2.97 3.73-5.5 6.83-7.59h.78c0 .24.03.39.08.47.13 0 .2-.12.2-.35.03 0 .16.09.39.27.16.13.29.2.39.2v.67c-.39.18-.86.46-1.4.85-.41.31-.67.47-.78.47-.1 0-.14-.03-.11-.08.06-.08.06-.13 0-.16-1.92 2.45-3.3 4.27-4.13 5.46-.31.6-.79 1.46-1.44 2.58l.2.16c1.08-.54 2.16-1.56 3.24-3.04.82-1.17 1.65-2.34 2.49-3.51 0 .16.07.24.2.24.08-.08 0-.22-.23-.43.16-.18.47-.63.94-1.36.36-.62.58-.94.66-.94s.09.05.04.14c-.05.09-.02.14.08.14.08 0 .15-.05.22-.14.07-.1.15-.14.26-.14.13 0 .37.17.71.51.34.34.51.59.51.74zm-2.41 9.907l-.16-.47-.15.08.16.39h.15zm.31-.94l-.54-.28-.04.19.55.27.04-.2zm.35.5l-.04-.16-.39.11v.19l.43-.16zm11.08-14.43l-.39.39c-.21 0-.36.02-.47.06-.1.04-.2.06-.27.06-.1 0-.3-.02-.59-.06-.29-.04-.48-.06-.58-.06-.31 0-.69.15-1.15.47-.45.31-.68.57-.68.78 1.59 4.1 2.38 6.86 2.38 8.26 0 .88-.26 1.99-.78 3.31-.68 1.71-1.48 2.57-2.42 2.57-.08 0-.15-.02-.23-.06-.07-.04-.17-.06-.27-.06s-.23.07-.37.23c-.14.15-.25.23-.33.23-.1 0-.21-.04-.33-.12-.12-.08-.23-.12-.33-.12s-.16.04-.17.11c-.01.08-.07.12-.17.12-.05 0-.32-.13-.82-.39v-.43c.08 0 .24-.02.49-.06.25-.04.42-.06.53-.06.1 0 .16-.04.16-.12l-.08-.2c.05-.03.1-.03.15 0 .05.03.03.07-.08.12.29.13.52.19.7.19v-.7c.1.08.21.12.33.12-.03-.16.21-.56.71-1.22.57-.76.9-1.26 1-1.49.43-.89.56-1.83.41-2.82.02-.06.03-.15.03-.28 0-.42-.42-1.75-1.25-4-.83-2.25-1.25-3.68-1.25-4.31 0-.42.34-.82 1.02-1.22.57-.34 1-.51 1.29-.51.11 0 .16.05.16.15 0 .1.04.16.12.16h.39c0-.11-.11-.16-.31-.16.37-.11.69-.16.98-.16 0 .23.03.37.08.43.03 0 .08-.04.18-.1.09-.07.15-.11.18-.14-.05 0-.1-.01-.15-.04l1.33.24c.6.16.9.43.9.82zm-5.15 2.18l-.27-.28-.12.11.28.27.12-.12zm2.81 9.47l-.08.19-.39-.16v-.16l.47.11zm0-2.89l-.27-.28-.12.07.28.31.12-.12zm34.24-21.49c-.18.05-.35.1-.51.15-.28.1-.44.26-.46.47-.07-.08-.18-.12-.31-.12-1.25 0-2.48 1.98-3.7 5.93-.44 2.34-1.04 5.34-1.79 9.01-.13.75-.36 1.81-.7 3.16-.13.05-.22.09-.27.11 0 .21.12.31.35.31-.1.39-.23 1.17-.39 2.34-.1.99-.23 1.58-.39 1.79.05.05.12.08.2.08-.16.57-.22 1.09-.19 1.56-.26.65-.39 1.04-.39 1.17 0 .13.04.2.11.23v.39c-.23.28-.4.57-.51.85-.05-.18-.14-.44-.27-.78.26 0 .41-.03.47-.08-.44-.21-.66-.58-.66-1.1-.03-.41-.04-.83-.04-1.25-.18-.39-.27-.87-.27-1.44 0-1.3.47-4.64 1.4-10.03.16-.08.29-.46.39-1.13.08-.5.42-2.16 1.02-4.99.57-2.68.86-4.06.86-4.14v-.43c-.1.03-.29-.04-.55-.2-1.77 1.33-3.04 1.99-3.82 1.99h-.7c-.13 0-.26-.12-.39-.35-.13-.24-.19-.42-.19-.55 0-.85 2.14-1.99 6.4-3.39.16 0 .39-.02.71-.08.21-.1.63-.36 1.25-.78.52-.33.83-.5.94-.5.11 0 .37.16.8.48.43.33.7.49.8.49.11 0 .16.04.16.12 0 .08.03.11.11.11h.58v.54zm11 17.67c0 .98-.28 2.67-.86 5.07-.08.7-.19 1.84-.35 3.43 0-.03-.04-.11-.11-.24-.07.14-.19.49-.35 1.05.16-.21.29-.31.39-.31-.07.18-.27.43-.58.74.08.07.16.11.23.11-.05.02-.09.08-.12.17-.02.09-.06.15-.11.17.13.13.25.19.35.19-.05.15-.21.37-.47.66.1.23.13.4.08.5-.03 0-.09.01-.2.04-.1.03-.18.04-.23.04-.1-.18-.14-.51-.11-.97-.16-.16-.3-.24-.43-.24.02 0 .06-.03.12-.08.05-.05.14-.08.27-.08.08 0 .09.04.04.12s-.02.11.08.11c-.03 0 .1-.07.39-.2-.16-.21-.42-.34-.78-.39l.08-.78c-.31-.29-.47-.56-.47-.82 0-.08.06-.25.18-.51s.18-.46.18-.62c.03 0-.09.12-.35.35 0-.23.08-.42.24-.55l-.07-2.73c-.65.57-1.5 1.6-2.57 3.08-.73 1.01-1.62 1.76-2.69 2.22.03-.08.03-.24 0-.47-.13.04-.27.2-.43.46-.18-.05-.57-.08-1.17-.08-.36 0-.71-.19-1.05-.58l.12-.08c-.15-.05-.31-.21-.46-.46s-.24-.49-.24-.7c0-.41.18-.92.55-1.51.31-.44.61-.88.9-1.32 1.45-2.97 3.73-5.5 6.82-7.59h.78c0 .23.03.39.08.47.13 0 .2-.12.2-.35.03 0 .16.09.39.27.16.13.29.19.39.19v.66c-.39.18-.85.46-1.4.85-.42.31-.68.47-.78.47-.1 0-.14-.02-.12-.08.05-.08.05-.13 0-.15-1.92 2.44-3.3 4.26-4.13 5.46-.31.6-.79 1.45-1.44 2.57l.2.16c1.08-.55 2.16-1.56 3.24-3.04.81-1.17 1.64-2.34 2.48-3.51 0 .15.07.23.2.23.08-.08 0-.22-.23-.43.15-.18.47-.64.93-1.36.37-.63.59-.94.67-.94s.09.04.04.13c-.05.09-.03.14.08.14.08 0 .15-.05.21-.14.07-.09.15-.14.26-.14.13 0 .36.17.7.51s.51.59.51.75zm-2.42 9.9l-.15-.47-.16.08.16.39h.15zm.31-.94l-.54-.28-.04.19.55.27.04-.19zm.35.5l-.04-.16-.39.11v.19l.43-.16zm14.59-11.47c0 .08-.62.74-1.87 1.99-.52.57-1.36 1.52-2.53 2.84-1.24 1.32-1.87 2.23-1.87 2.73 0-.03-.04-.11-.11-.24-.08.41-.48 1.05-1.21 1.91-.49.57-.99 1.13-1.48 1.68.02.05.04.18.04.39-.41-.08-.96-.32-1.63-.71 0-.16.12-.37.35-.63-.05-.05-.23-.08-.54-.08 0-.05-.03-.19-.08-.41-.05-.22-.08-.38-.08-.48 0-1.2.63-3.16 1.87-5.89 1.33-2.89 2.43-4.33 3.32-4.33.47 0 .7.25.7.74 0 .21-.22.59-.66 1.13-.44.54-.69.92-.74 1.13-.32 1.09-.7 2.16-1.17 3.2-.39.88-.8 1.77-1.21 2.65v.31c.21-.03.41-.19.62-.47 1.04-1.35 2.07-2.69 3.08-4.02 1.33-1.69 2.46-2.76 3.39-3.2.02 0 .07-.07.15-.22.08-.14.17-.21.27-.21s.14.02.12.06c-.02.04.02.06.12.06.13 0 .13-.06 0-.19.13 0 .28.07.43.2.18-.26.23-.46.16-.59h.47c0 .02.02.11.06.25.04.14.05.27.05.37zm-2.49 2.46v-.2h-.31v.19h.31zm2.3-2.54l-.11-.12-.35.27.11.15.35-.31zm15.5-12.54c0 .21-.35.75-1.05 1.64 0 .02.04.1.12.23-.65 1.76-1.65 4.16-3 7.17-.1.57-.29 1.23-.55 1.99-.45 1.14-.69 1.82-.74 2.02.03.68-.15 1.6-.54 2.77-.54 1.61-.84 2.55-.89 2.81-.18.8-.51 2.65-.99 5.53-.1.03-.26.1-.48.22-.22.12-.39.18-.52.18-.08 0-.21-.04-.39-.11s-.33-.11-.43-.11-.16.04-.18.12-.07.12-.17.12c-.11 0-.16-.04-.16-.12s-.01-.12-.04-.12c-.21.18-.23.27-.08.27-.15-.05-.33-.04-.54.04-.28.1-.45.16-.5.16-.1 0-.21-.06-.33-.18-.12-.12-.23-.18-.33-.18s-.12.04-.06.14c.06.09.05.14-.06.14-.23 0-.69-.27-1.38-.8s-1.06-.94-1.11-1.23c-.31-.13-.57-.61-.78-1.45-.21-.73-.31-1.34-.31-1.84 0-1.65.56-3.32 1.68-5.01 1.22-1.83 2.6-2.74 4.13-2.74.11 0 .48.1 1.13.29.65.2 1.03.29 1.13.29.11 0 .13.02.08.07-.02.06-.02.11 0 .16l2.19-5.93c.94-2.52 1.74-4.38 2.42-5.57.21-.45.42-.87.63-1.29.34-.65.74-.98 1.21-.98.23 0 .45.17.64.52s.29.6.29.76zm-14.66 19.89h-.19l-.11.78h.19l.12-.78zm.31 2.26v-.2h-.31v.19h.32zm.04-5.42l-.15-.04-.15.31.16.04.16-.31zm6.55-2.22c0-.21-.13-.44-.39-.7-.26-.26-.54-.39-.85-.39-1.45 0-2.62 1.04-3.51 3.12-.68 1.56-1.01 2.98-1.01 4.25 0 .11.1.32.28.65.18.33.29.52.33.57.04.05.36.3.95.74.52.39.89.58 1.1.58.16.11.24.22.24.35 0-.1.08-.15.23-.15.42 0 .64.02.67.04-.08.08-.12.17-.12.27.07-.06.18-.09.31-.12.1-.24.26-.78.46-1.64.15 0 .26.03.31.08-.11-.05-.24-.13-.39-.24v-.94c0-.29.15-.48.46-.59-.16-.21-.21-.46-.16-.74.05-.31.11-.61.19-.9-.08-.45.05-1.21.39-2.3.34-1.1.51-1.75.51-1.95zm2.34-5.57l-.03-.16-.27.16v.16l.32-.15zm14.43 2.65c0 .05-.04.25-.11.59-.05.26-.05.45 0 .55-.52.7-1.57 1.99-3.16 3.86-2.08 2.4-3.31 3.59-3.7 3.59h-.82c-.13.13-.19.39-.19.78 0 1.56.92 2.99 2.77 4.29.05-.07.08-.15.08-.23.08.05.46.13 1.13.24.18.18.28.31.28.39s-.14.26-.43.55c-.08-.11-.21-.16-.39-.16 0-.18.04-.31.12-.39-.13-.11-.26-.16-.39-.16l-.19.16c.16.19.26.35.32.51-.15 0-.23.09-.23.27-.18-.08-.4-.19-.66-.35l-.31.23c-.16-.16-.35-.24-.59-.24-.46 0-1.31-.73-2.53-2.18.13-.05.29-.13.47-.23v-.08h-.66c-.49-1.87-.74-2.98-.74-3.32 0-1.93.69-4.18 2.07-6.75 1.54-2.83 3.12-4.25 4.76-4.25.13 0 .35.06.66.17.31.12.5.18.55.18.1 0 .13-.04.08-.12-.05-.08-.04-.12.04-.12.42 0 .9.37 1.44 1.09.26.37.39.74.39 1.13zm-1.64.12c0-.08-.03-.18-.11-.31-.05-.1-.05-.18 0-.23-.08 0-.2-.02-.37-.08-.17-.05-.31-.08-.41-.08-.83 0-1.86 1.04-3.08 3.12-1.09 1.9-1.65 3.25-1.68 4.06.99-.96 1.98-1.91 2.97-2.84 1.8-1.82 2.69-3.03 2.69-3.63zm-1.44 4.64v-.19h-.31v.19h.31zm2.85-5.03v-.31h-.35v.32h.35zm7.72-1.64l-.39.39c-.21 0-.36.02-.47.06s-.19.06-.27.06c-.1 0-.3-.02-.58-.06-.29-.04-.48-.06-.59-.06-.31 0-.69.16-1.15.47s-.68.57-.68.78c1.59 4.11 2.38 6.86 2.38 8.27 0 .89-.26 1.99-.78 3.32-.67 1.72-1.48 2.57-2.42 2.57-.07 0-.15-.02-.23-.06-.07-.03-.17-.05-.27-.05s-.23.08-.37.23c-.14.16-.25.24-.33.24-.1 0-.21-.04-.33-.12-.12-.08-.23-.12-.33-.12s-.16.04-.17.12c-.01.08-.07.11-.17.11-.05 0-.33-.13-.82-.39v-.43c.08 0 .24-.02.49-.06s.43-.06.53-.06.16-.04.16-.11l-.08-.19c.06-.03.11-.03.16 0s.03.07-.07.12c.3.13.53.19.7.19v-.7c.1.08.22.12.34.12-.02-.16.21-.56.71-1.21.57-.76.91-1.26 1.01-1.49.43-.89.57-1.83.41-2.82.03-.06.04-.15.04-.28 0-.42-.41-1.75-1.24-4s-1.25-3.68-1.25-4.31c0-.42.34-.83 1.02-1.22.57-.34 1-.51 1.29-.51.1 0 .16.05.16.16 0 .1.04.16.12.16h.39c0-.11-.11-.16-.32-.16.37-.1.69-.16.98-.16 0 .24.03.38.08.43.03 0 .09-.03.18-.1.09-.06.15-.11.18-.13-.05 0-.1-.01-.16-.04l1.33.24c.6.16.89.43.89.82zm-5.14 2.19l-.27-.27-.11.11.27.27.12-.12zm2.81 9.48l-.07.19-.39-.16v-.16l.47.12zm0-2.89l-.27-.28-.12.08.28.31.12-.12z"/></svg>