<svg xmlns="http://www.w3.org/2000/svg" width="250" height="250" viewBox="0 0 250 250"><path d="M52.007 87.723c-.75-.448-1.878-.965-4.375-1.558.01-.368-.028-.74-.12-1.103l-.114-.452c-.26-1.03-.92-1.914-1.83-2.457-.708-.42-1.513-.644-2.33-.644-.893 0-2.227.26-3.51 1.52-.076.07-.16.16-.23.25l-.345.4c-.403.3-.755.68-1.03 1.14-.102.17-.197.35-.286.54-.104.13-.2.27-.29.42-.67 1.12-.75 2.36-.75 3.15-.02 1.71.515 2.87 1.14 3.64-.274.16-.592.37-.898.67-.44.37-.78.84-1.03 1.36l-.28.6c-.33.73-.44 1.54-.3 2.32.3 1.75.77 3.4 1.41 4.93-.32-.04-.62-.07-.91-.07-2.31 0-4.19 1.32-4.79 3.36-.25.83-.31 1.56-.26 2.2-1.19.53-2.09 1.54-2.46 2.81-.22.74-.37 1.93.26 3.3-1.57.94-2.49 2.17-2.74 3.68l-.03.15c-.11.28-.2.59-.26.93-.47 2.8.89 5.51 4.01 8.06-.36.52-.66 1.1-.86 1.76-.16.53-.21 1.08-.15 1.61-.2.09-.37.18-.52.26-2.05 1.14-2.42 2.83-2.46 3.73-.12 2.59 1.73 4.23 3.62 5.32-.21.21-.41.43-.61.67l-.33-.31c-.43-.78-1.11-1.4-1.91-1.75-.2-.11-.53-.3-.98-.57-1.58-.94-2.68-1.32-3.8-1.32-.16 0-.38.01-.53.03-.65.07-1.26.3-1.78.66-1.4.72-2.93 2.19-3.7 5.16-.48 1.7-.63 3.36-.45 4.94.01.03.04.33.05.4-.55.86-.98 1.92-.83 3.21.34 2.92 3.17 3.9 5.27 4.62 2.02.68 3.07.91 3.87.97l13.18 1.94c.19.02.39.04.58.04.12 0 .24-.01.36-.02.22-.01.69-.02 1.47-.02.42-.01.78-.03 1.09-.04.12.02.24.05.36.06.2.03.41.05.62.05.22 0 .45-.02.67-.06.27-.01.54-.05.81-.12.27-.07.53-.16.77-.28.13-.02.25-.03.38-.06 1.14-.22 2.08-.9 2.65-1.82.48-.66.76-1.47.77-2.33.01-1.3-.61-2.47-1.57-3.21.08-.63.07-1.32-.01-2.08.01-.25 0-.51-.03-.77-.04-.32-.11-.64-.21-.98v-.01c-.01-.19-.02-.38-.04-.56-.05-.4-.15-.77-.29-1.12-.1-.32-.22-.6-.36-.87-.06-.28-.15-.54-.25-.79-.18-.56-.44-1.02-.69-1.42l-.03-.04c-.06-.13-.14-.25-.21-.37 1.14-.96 1.91-2.35 2.12-4.06.02-.15.03-.31.03-.46l.01-.13c.04-.84-.16-2.07-1.23-3.33 1.61-1.12 1.93-2.57 1.96-3.38.03-.62-.07-1.23-.3-1.84-.08-.24-.18-.46-.3-.68.32-.38.6-.78.8-1.24.3-.45.5-.95.59-1.48.3-.75.38-1.57.2-2.36-.03-.77-.29-1.53-.74-2.17l-.09-.13c.07-.17.14-.34.2-.52l.16-.57c.36-1.22.14-2.3-.45-3.46.6-.03 1.19-.19 1.73-.49l.28-.16c.93-.5 1.63-1.36 1.93-2.39.15-.5.21-1.02.2-1.58.03-1-.34-1.96-.97-2.71.09-.15.2-.29.27-.45l.12-.26c.17-.25.31-.51.42-.78.26-.51.41-1.08.43-1.67H51c1.43-.14 2.68-1.03 3.27-2.34.14-.31.24-.64.32-1.02.096-.38.116-.76.1-1.14.26-.25.51-.52.724-.88.07-.12.14-.25.194-.37.09-.12.16-.23.236-.35.24-.4.47-.93.56-1.58.63-1.39.99-3.79-1.37-6.84-1.06-1.37-2.1-2.34-3.184-2.99zM34.68 148.24c.125-.382.33-.76.52-1.062.055-.09.107-.168.156-.24.08.086.162.17.24.248.138.27.296.532.462.81l.08.133c.043.11.092.23.146.34l.01.05c-.563-.11-1.1-.2-1.613-.29zm87.725-102.62c.31-.2.59-.444.838-.727l.307-.352c.697-.79 1.048-1.84.976-2.9-.112-1.65-1.24-3.76-4.052-4.29-.105-.02-.21-.03-.317-.04l-.54-.06c-.397-.13-.818-.2-1.255-.2-.092 0-.185 0-.278.01-.2.01-.402.04-.607.07h-.223c-.092 0-.2.01-.29.01-1.307.09-2.37.73-3.02 1.18-.233.16-.43.32-.623.49-.54-.22-1.17-.39-1.88-.39-.25 0-.5.02-.72.06-.06.01-.12.02-.18.04h-.22c-.21 0-.52.02-.74.06-2.82.46-4.96 2.65-6.38 6.47-.41-.12-.83-.2-1.27-.2-.1 0-.22.01-.33.02.12-1.89.21-3.51.27-4.84.08-.33.17-.72.26-1.2l.02-.11c.2-1.2.27-2.14 0-3.09l-.12-.41c-.29-1.03-.98-1.91-1.93-2.42-.06-.04-.12-.07-.19-.1-.64-.43-1.41-.68-2.22-.68-.49 0-.96.09-1.39.25l-.13.04c-.69.2-1.31.57-1.81 1.09-1.02 1.08-1.61 2.61-1.99 5.2-.15 1.26-.3 2.51-.44 3.75-.03.32-.03.63.01.94-.06.46-.1.97-.12 1.56l-.01.94c-.28-.04-.56-.07-.84-.07-.76 0-1.54.16-2.3.48-2.18.91-3.79 2.69-4.8 5.28-.62-.69-1.47-1.16-2.41-1.28-.35-.05-.73-.08-1.11-.08-.59 0-1.23.06-1.89.18-1.11.2-2.08.85-2.69 1.8-.07.12-.14.24-.2.37l-.13.11c-3.49 2.12-3.71 6.75-3.78 8.26-.02.33-.03.65-.04.96-.66-1.65-1.21-3.06-1.65-4.2l-1.2-4.04-.03-.16c-.01-.77-.24-1.51-.66-2.14l-.06-.22c.08-.77-.07-1.55-.43-2.25l-.04-.1c-.41-1.48-1.65-2.64-3.25-2.88l-.34-.05c-.2-.03-.41-.04-.61-.04-1.13 0-2.22.48-2.99 1.35-.88.99-1.24 2.29-1.03 3.61l-.12.61c-.06.31-.08.63-.07.94.02.53.04.97.06 1.32.01.17.03.33.06.5.02.15.04.31.08.46.1.44.2.85.29 1.24-.12-.08-.24-.16-.36-.23-.09-.05-.18-.1-.28-.15-.79-.4-1.6-.61-2.39-.61-1.06 0-2.08.37-2.88 1.05-.64.55-2.35 1.99-2.16 4.32.02.25.07.5.13.74.67 2.46 1.22 4.23 1.66 5.41l3.02 7.18c.1.23.23.46.37.67.24.56.56 1.16.98 1.83.27.62.53 1.16.79 1.64.05.21.12.42.2.62.08.2.17.39.28.57.12.19.25.38.4.56l.13.14c.05.08.09.17.14.25l.03.08c.16.61.46 1.17.88 1.65.17.41.39.8.71 1.18.75.9 1.82 1.44 3 1.54.12.01.24.02.35.02 1.59 0 3.04-.95 3.68-2.43.44-1.02.58-2.17.43-3.4-.06-.44-.19-.87-.38-1.27-.04-.12-.08-.24-.13-.36.68.24 1.37.35 2.05.35 1.36 0 2.63-.47 3.68-1.36 1.89-1.6 1.58-3.82 1.2-5.21 1.08.9 2.23 1.38 3.42 1.38.19 0 .37-.01.56-.03.17.01.33.01.49.01.77 0 1.92-.07 2.97-.68.1-.05.39-.24.84-.56.12-.09.21-.15.28-.2.34-.21.64-.46.9-.75l.04-.03c1.14-.74 1.65-1.84 2.55-3.95.08-.17.12-.36.17-.55l.1.06c1.27.71 2.34 1.04 3.38 1.04h.1c.22.03.44.05.67.05.53 0 1.1-.11 1.59-.32l.35-.14c1.12-.48 1.95-1.44 2.28-2.6.13-.29.23-.6.29-.92.44.16.9.25 1.36.25.81 0 1.63-.25 2.32-.74.66-.22 1.25-.61 1.72-1.12.61.36 1.31.56 2.03.56.36 0 .72-.05 1.09-.15l.48-.13c.6-.17 1.14-.47 1.59-.88.86.55 1.72.91 2.63.99.33.09.67.13 1.01.13.2 0 .39-.01.58-.04.09 0 .17.01.25.01.72 0 1.43-.2 2.06-.57.43-.17.82-.41 1.16-.71.35.1.72.17 1.15.17.09 0 .18 0 .27-.01.15-.01.29-.03.43-.05h.13c.09 0 .2 0 .29-.01.46-.03 1.02-.14 1.61-.44 1.5-.27 3.67-1.34 4.84-5.02.52-1.64.73-3.06.64-4.32-.06-.86-.28-2.08-1.21-4.47z" opacity=".15" fill="#050505"/><circle opacity=".15" fill="#050505" cx="131.833" cy="139.749" r="82.917"/><path fill="#FFF" d="M125 221.967c-48.065 0-87.168-39.104-87.168-87.168 0-48.07 39.104-87.17 87.168-87.17 48.064 0 87.168 39.1 87.168 87.17 0 48.06-39.104 87.16-87.168 87.16z"/><linearGradient id="a" gradientUnits="userSpaceOnUse" x1="124.999" y1="78.627" x2="124.999" y2="270.061"><stop offset="0" stop-color="#1B1440"/><stop offset=".819" stop-color="#ED1E79"/></linearGradient><circle fill="url(#a)" cx="125" cy="134.799" r="83.168"/><path fill="#FFF" d="M116.684 205.94s-.505 9.288 16.496 11.622c8.195-.8 16.037-2.8 23.36-5.803 2.468-2.36 3.606-4.98 3.135-7.1-1.28-5.76-42.99 1.28-42.99 1.28z"/><path fill="#FFF" d="M120.688 217.855c1.428.074 2.865.11 4.312.11 5.3 0 10.474-.517 15.496-1.462l.05-5.127-21.208-.768 1.35 7.247z"/><path fill="#D0D1D2" d="M120.937 201.4s-.41 7.496 13.35 9.344c13.763 1.85 22.183-5.75 21.155-10.37-1.027-4.622-34.505 1.026-34.505 1.026z"/><path fill="#FFF" d="M153.02 181.244c-7.257-6.006-4.126-29.557-4.126-29.557l-24.245 1.908s8.41 15.557 1.24 31.232c-7.36 16.084-9.14 20.053 16.37 18.426 4.83-.705-3.51-1.06 1.02-2.56 15.65-7.916 15.54-14.638 9.72-19.45z"/><path fill="#D0D1D2" d="M145.172 157.04s-2.757 16.083 7.12 26.65c9.88 10.563-15.85 14.93-15.85 14.93l-6.948-12.407s5.57-18.604.746-27.563l14.932-1.61z"/><path fill="#1F4AB5" d="M126.31 162.9l10.565 4.024 2.808 40.615-24.807-.14"/><path fill="#1F4AB5" d="M150.26 161.512l-9.572 5.1-1.79 40.697 23.79.09M133.156 75.11s-40.464 46.254-18.968 94.365l-11.516 2.045s-37.49-37.873-23.16-71.652"/><path fill="#0F3C96" d="M78.554 108.888s-.192 33.78 25.334 54.506l5.374.193 2.88-.18-2.304-8.65s-23.223-49.9-31.284-45.87z"/><g fill="#6593EF"><path d="M116.46 172.322c-.137-.64-.63.217-.448-.586l-.117.184c.05-.383.084-.77.084-1.168 0-.06-.01-.115-.01-.172.07-.182.03-.465-.04-.723-.04-.428-.13-.842-.23-1.248l.12-.01c-.08-.05-.14-.15-.19-.25-.03-.09-.05-.19-.08-.28 0-.07.02-.13.06-.17.3-.05.27.48.36.69-.21-.93.36-1.18-.21-1.87l-.03.17c-.49-.35-.36-1.02-.6-1.43.12.08.24.03.26-.06-.83-.7-1.29-1.67-2.37-2.26l-.07-.51-.17.2c-.53-.27.12-.4-.22-.59.13.07.08.09.07.16-.45-.6-.47.01-.76-.24.02.32.59.43.24.66-.42-.56-1.4-.93-1.26-1.53-.67-.07-1.33-.36-2-.57-.69-.15-1.36-.34-1.92-.4-.15.12.09.08.03.17-.45-.33-1.43.39-1.46.07-.2.11-.24.36-.28.45-.3-.15-.63-.08-.98-.04l.27.02-.02.05-.38-.02V161c-.42.1-.9.19-1.33.37-.42.19-.85.34-1.3.39.52-.04.1.39.36.4-.65-.31-1.43.37-2.02.92.08.074.09.18.22.18 0 0-.5.134-.49.153l.13.04c-.42.69-1.53 1.01-1.59 1.655.22-.27.31-.205.48-.13-.31.493-.57.972-1.04 1.52.04-.02.09-.03.12-.01-.06.17-.25.32-.36.48l.23.11c-.22.29-.23.76-.55 1.11.18.2-.47.94-.39 1.464-.08.18.34-.37.27.14-.57.03-.08.67-.69.696-.02 0 .22.48.23.47l-.3.11c.6.37-.2.64.05 1.24.06-.04.07-.11.12-.082-.04.2-.03.66-.22.34-.03.34.24 1.43.38.88-.16.07-.15-.4-.14-.6.26-.03.3.45.61.49-.03.02-.05.09-.08.14l.17.02c-.08.64.23 1.17.12 1.69.08-.01.19.052.27.24l-.29.16.32.57.27-.495c.39.56.18 1.28.53 1.78.52-.24.55 1.07 1.3 1.05-.01.01-.23-.4-.22-.41.62.74.98.55 1.54 1.26-.7-.33-.62-.39-1.79-.82 1.02.55 1.29 1.61 2.44 1.81 0-.15-.19-.34.1-.34.04.35.85.45.58.68.34.05.5-.19.69-.16l.89.7-.02-.07c.98-.03 1.75.14 2.6.4.42.16.85.25 1.3.25.45.02.91-.01 1.36-.15l-.07-.16c0 .02.51.17.51.15-.39-.06.11-.25.09-.41l1.25.01c-.03-.15-.21-.45-.46-.31.36-.3.94-.08 1.29-.27l-.18-.08.4-.07-.1-.19c.61-.23 1.22-.76 1.57-.66l-.26-.24.7-.21-.45.06c.55-.52 1.6-1.08 1.67-1.26l-.14-.03c.03-.14.15-.15.27-.23l-.21-.05c.38-.42.54-.76.7-1.09.13-.36.25-.73.64-1.23.12-.32-.15.14-.25.1-.05-.24.28-.54.41-.6-.33-.03-.48.44-.52 0 .26-.17-.34.05-.07-.34 0 .01.42-.02.42-.02.02-.28-.27-.16-.11-.54.3-.4.24.72.53-.02.07-.41-.56-1.01-.28-1.66zm-18.927 3.192l-.106-.25c.103.105.275.132.106.25zm.842-1.192c-.047-.168-.1-.2.1-.258.056-.11-.088-.2-.032-.31.268.254-.047.348-.068.568zm17.123-6.45c.01-.02.038-.028.04-.052-.004.057 0 .115.004.172-.012-.04-.03-.078-.044-.12zm-.307-1.32c-.02.222.62.628.32.964.01-.004-.18-.453-.2-.443.04.184.08.36.09.525-.11-.297-.23-.588-.38-.87.03-.054.07-.12.18-.175zm-.75-1.28c0-.167-.18-.382-.02-.522.43.135.29.504.41.72l-.17-.044c.07.29.03.47-.02.61-.04-.064-.07-.128-.11-.19.01 0 .02-.01.03-.01-.21-.333-.52-.84-.43-1.226.35.076.19.69.34.663zm-.88-1.46l-.06.313-.24-.227.31-.087zm-.11.56c.07.12.13.237.19.356-.28-.313-.58-.615-.91-.885-.05-.164-.09-.338-.3-.39v.157c-.09-.068-.18-.14-.27-.203 0-.033-.02-.104-.08-.252.53.283.99.74 1.39 1.216zm-3.29-2.106l.13-.098.18.074-.3.024zm-1.23-.41c.07.062.14.132.2.198-.28-.068-.57-.123-.86-.164-.02-.023-.05-.045-.08-.07.22-.226.49-.154.74.037zm-2.15-.567c.35-.38 1.05.69.89-.24.15.12.6.4.42.54-.37-.07-1.09-.11-1.35.13.02-.06.01-.13-.03-.19.15.04.36-.02.46-.08-.05-.15-.28-.11-.37-.18zm-.97.52c.03.02.07.03.1.06-.17.02-.35.05-.52.08.09-.1.33-.13.42-.14zm-3.32-.06l.2.02c-.31.32-.18.1-.19-.02l-.23-.02c.18-.08.23-.05.24.02zm.04.35c-.19.13-.7.46-.64.4-.05-.19.46-.44.64-.41zm-.41 1.15l-.01.01c-.12-.01-.23-.04-.27-.15.27-.06.22.08.29.13zm-2.05 1.43c.32-.12.11-.24.18-.4l.14.27c-.4.22-.55.13-1.05.19.18-.46.62-.25.73-.08zm-.85-.26c-.03.28.28.56-.26.56l.26-.56zm-1.01 7.8l.06.36c-.08 0-.16.01-.3 0 .13-.12.2-.25.24-.37zm.29 4.25c-.02-.13-.04-.2-.1-.27-.08.12-.11.45-.24.31.06-.2-.11-.6.07-.71-.01.45.62.35.28.66zm.55-1.29c.08-.07.11-.15.11-.22.02.04.05.08.07.12-.03.04-.07.09-.17.1zm1.67 3.06l.06-.2.08.03-.18-.32c.52.08.45.66.59.89-.15-.15-.28-.87-.54-.41zm1.39-.05l.05.03-.01.04c-.02-.02-.02-.05-.04-.08zm1.52 2.19c.23.23.45-.11.57.33-.37.22-.46-.16-.57-.33zm.85.09c.46.02-.12-.4.19-.42l-.22-.04c.41-.13.19.33.46.34l-.18-.01c-.18.17.23.22.23.4-.22.03-.65-.28-.47-.27zm4.23-.74c.06-.05-.03-.15-.16-.2.14-.03.28-.05.42-.08.01.11-.14.12-.25.27zm4.82-1.23c.1-.31.16-.28.34-.35.02.1-.15.27-.34.34zm.43-.17c.19-.46.47-.06.68-.25-.11.42-.38.06-.67.24zm1.6-4.65c-.02.01-.04 0-.06 0 .03-.09.07-.17.09-.25.04.01.07.04.09.11l-.11.13zm.98-4.56c-.01.26-.21.23-.07.5l.07-.5z"/><path d="M116.146 169.398l-.03-.27-.122.27m-19.086 4.152l-.133-.017c.054.13.097.088.133.018zm.092-5.24c.02-.022.03-.036.047-.054-.03-.03-.077-.055-.147-.068l.1.12zm.07 7.262c.07-.11.11-.215.136-.313-.098.01-.17.13-.137.31zm.343-8.79c.05-.085.116-.15.175-.226-.075.034-.173.1-.175.227zm6.77-5.76l-.01.03.12-.026"/></g><path fill="#FFF" d="M131.25 168.506l-.422.674c-.27.436-.706 1.098-1.162 1.887-.95 1.568-2.293 3.975-3.847 6.877-1.57 2.908-3.35 6.363-5.46 10.06-1.05 1.847-2.19 3.755-3.5 5.665-1.31 1.9-2.73 3.84-4.6 5.65l-1.51 1.31c-.57.41-1.14.82-1.75 1.2-1.29.71-2.74 1.36-4.41 1.54-.41.04-.82.09-1.23.11l-1.24-.1c-.85-.04-1.58-.3-2.33-.53-1.46-.51-2.71-1.24-3.75-2.03-2.11-1.58-3.64-3.33-4.91-5-1.31-1.67-2.33-3.31-3.26-4.82-1.8-3.04-3.08-5.61-3.94-7.42l-1.34-2.85 7.6-3.25 1.14 2.71c.73 1.72 1.83 4.15 3.3 6.91.76 1.35 1.59 2.81 2.57 4.19.96 1.39 2.09 2.72 3.27 3.69 1.21 1 2.28 1.42 3.29 1.34 1.03-.03 2.46-.77 3.84-2.01 1.38-1.22 2.69-2.81 3.91-4.45 1.23-1.65 2.37-3.38 3.44-5.11 2.15-3.44 4.07-6.81 5.78-9.69 1.7-2.89 3.16-5.27 4.29-6.98.55-.86.98-1.46 1.28-1.89l.45-.66 4.44 2.93z"/><ellipse transform="rotate(90.11 133.59 123.97)" fill="#FFF" cx="133.589" cy="123.967" rx="37.279" ry="46.525"/><ellipse transform="rotate(84.65 133.84 124)" fill="#D0D1D2" cx="133.836" cy="123.996" rx="31.373" ry="41.126"/><ellipse transform="rotate(90.47 156.05 121.15)" fill="#FFF" cx="156.052" cy="121.152" rx="17.431" ry="17.684"/><ellipse transform="rotate(90 117.69 122.56)" fill="#FFF" cx="117.707" cy="121.588" rx="19.561" ry="19.691"/><path fill="#919396" d="M95.826 102.162c.01-.012-5.998 8.136-6.138 10.87l-1.245-2.23s-9.338-14.677 7.383-8.64z"/><path fill="#D0D1D2" d="M100.103 99.843s-9.04-6.49-15.365-2.837c0 0-8.255 6.424 2.348 17.858l2.56 3.074s2.123-1.44 1.837-4.755c0 0-12.226-14.933 5.414-9.474 0 0 2.885-.09 3.206-3.87z"/><path fill="#919396" d="M169.824 102.162c-.01-.012 5.998 8.136 6.14 10.87l1.243-2.23s9.338-14.677-7.383-8.64z"/><path fill="#D0D1D2" d="M165.55 99.843s9.038-6.49 15.364-2.837c0 0 8.255 6.424-2.35 17.858l-2.558 3.074s-2.124-1.44-1.84-4.755c0 0 12.228-14.933-5.412-9.474 0 0-2.885-.09-3.205-3.87z"/><path fill="#0071BC" d="M114.88 107.443c7.856-1.44 15.39 3.764 16.83 11.62 1.44 7.855-3.76 15.39-11.616 16.828-7.856 1.45-15.39-3.76-16.83-11.61-1.44-7.85 3.76-15.39 11.615-16.83z"/><path fill="#0F4481" d="M113.52 111.94c4.035-.738 7.906 1.934 8.645 5.97.74 4.034-1.932 7.905-5.967 8.64-4.036.743-7.907-1.93-8.645-5.963-.74-4.037 1.93-7.908 5.968-8.646z"/><circle fill="#FFF" cx="116.527" cy="118.94" r="3.948"/><circle fill="#FFF" cx="107.498" cy="119.556" r="1.922"/><circle fill="#0071BC" cx="153.564" cy="120.017" r="12.923"/><path fill="#0F4481" d="M150.02 111.327c3.607-.663 7.065 1.724 7.727 5.33.66 3.606-1.727 7.063-5.334 7.727-3.604.66-7.063-1.726-7.723-5.33-.662-3.61 1.724-7.066 5.33-7.727z"/><circle fill="#FFF" cx="152.705" cy="117.58" r="3.529"/><circle fill="#FFF" cx="144.636" cy="118.132" r="1.717"/><path fill="#D0D1D2" d="M138.69 132.11s-19.448-6.524-32.69 10.75l18.328 3.933 15.834-6.813-1.472-7.87z"/><path fill="#6D6F71" d="M130.813 139.105c.195-.053.373 1.37 1.663 2.943.596.807 1.694 1.492 2.9 1.55 1.202.067 2.553-.608 3.208-1.813l.26-.588.21-.936c.122-.56.245-1.13.367-1.68.8 4.1 1.45 4.03 2.32 4.28.2-.04.4-.03.6-.19.21-.11.42-.22.57-.4l.25-.24.18-.29c.14-.18.23-.38.3-.6.63-1.83.32-3.24.53-3.24.07-.01.2.31.3.91.1.6.17 1.5-.13 2.59-.31.97-1.05 2.14-2.57 2.36-.78.01-1.44-.45-1.89-.98-.12-.13-.23-.27-.32-.43l-.08-.13c-.01.03.03-.04-.03.07-.84 1.54-2.56 2.37-4.09 2.25-.77-.04-1.47-.32-2.05-.68-.59-.34-1.04-.82-1.39-1.31-1.29-1.88-1.16-3.41-1.07-3.39z"/><path fill="#0B8ECC" d="M139.602 133.25s-2.06-4.205-4.86 3.21l4.66 4.01 4.073-3.647c0-.003-2.614-6.884-3.873-3.573z"/><path fill="#FFF" d="M135.682 136.396l2.006 1.713s-.448-2.5-2.006-1.72zm5.542 1.74l1.42-1.14s-1.044-.516-1.42 1.14z"/><path fill="#D0D1D2" d="M95.188 129.553s15.322-10.205 43.056-11.835l-7.294-20.73-14.01 1.857-12.027 4.86-6.142 7.935-3.58 17.913z"/><path fill="#D0D1D2" d="M141.762 99.868l-3.71 18.233s18.232-1.4 36.21 6.08l-.32-5.69s-1.344-8.15-3.84-9.79c-2.495-1.63-19.447-12.67-28.34-8.83z"/><path fill="#6593EF" d="M140.482 76.326s4.86-1.792 6.142 5.117 10.236 2.815 14.33 11.26c0 0 .608 1.695-.83 2.08s-28.087-8.605-73.38 31.188c-.216.19 0 0 0 0s-5.886 1.79-4.607-6.91c1.28-8.7-6.717-7.99-2.624-12.85 3.93-4.66 34.545-26.09 58.06-29.53.984-.14 1.954-.26 2.91-.34z"/><path fill="#1F4AB5" d="M142.273 78.117s-2.56-8.19-11.516-6.91c-8.956 1.28-49.133 9.47-52.204 32.5 0 0 1.792 5.117 3.327 5.374 1.537.26 60.393-30.96 60.393-30.96z"/><path fill="#6D6F71" d="M132.602 139.24c0-.002-.25.01-.592.053-.174 0-.37.043-.574.078-.21.01-.403.1-.612.14-.16.13-.394.13-.53.26-.12.14-.336.18-.42.32-.2.25-.41.43-.41.43l-.035.03c-.06.05-.15.04-.2-.02-.03-.02-.04-.06-.04-.09 0 0 .01-.26.15-.68.05-.21.25-.4.44-.61.19-.2.47-.33.74-.46.27-.05.56-.14.82-.14.26 0 .5.02.7.06.4.08.64.21.64.21l.01.01c.11.07.16.22.09.33-.05.08-.12.12-.2.13zm7.314 7.242c-.002 0 .256-.086.6-.234.183-.055.375-.156.578-.258.217-.074.395-.23.6-.34.133-.176.374-.26.475-.44.08-.185.29-.302.33-.478.12-.326.27-.578.27-.578l.02-.037c.04-.064.12-.086.19-.047.03.02.05.055.06.09 0 0 .06.283.04.754 0 .236-.14.488-.27.76-.14.268-.38.48-.62.697-.27.15-.53.33-.8.41-.27.09-.52.15-.74.17-.44.06-.73 0-.73 0h-.02c-.13-.02-.22-.15-.19-.28.02-.09.08-.15.16-.18z"/><circle fill="#FFF" cx="84.951" cy="70.182" r="1.271"/><circle fill="#FFF" cx="160.698" cy="81.443" r="1.271"/><circle fill="#FFF" cx="62.021" cy="112.549" r="1.271"/><circle fill="#FFF" cx="62.021" cy="142.549" r="1.271"/><circle opacity=".3" fill="#FFF" cx="175.029" cy="86.562" r="1.588"/><circle opacity=".3" fill="#FFF" cx="129.99" cy="60.714" r="1.588"/><circle opacity=".3" fill="#FFF" cx="51.751" cy="131.215" r="1.589"/><circle opacity=".3" fill="#FFF" cx="79.084" cy="148.883" r="1.589"/><path fill="#FFF" d="M73.623 167.416c12.376 9.244 4.348-3.025 2.08-7.373-2.647-5.104 1.89-8.127 5.86-3.97 2.834 3.024 4.442 9.735 5.576 13.515 0 0 8.04-10.252 11.62-5.67 1.51 1.938 1.51 4.82-1.33 5.576-3.68 1.002-5.29 1.566-6.13 5.076 1.49 4.387-.28 6.33-2.85 7.848-2.16 1.273-4.74 2.672-7.66.877-.79-.53-1.29-1.303-1.68-2.11l-.02.03-.11-.297c-.38-.848-.91-2.414-.91-2.414-.96-2.248-2.02-3.342-5.41-3.904-2.84-.566-7.38-.38-8.7-3.78-1.89-5.484 5.86-6.23 9.64-3.404z"/><path fill="#D0D1D2" d="M87.14 169.588s-1.89 2.223-3.426 7.87c0 0 .92-4.796.542-4.94 0 .002.946-1.89 2.884-2.93"/><path fill="#1F4AB5" d="M132.294 168.463l-.353.623c-.21.396-.59 1.023-.96 1.734-.76 1.404-1.86 3.61-3.13 6.25-1.29 2.705-2.8 5.86-4.41 9.24-1.71 3.428-3.56 7.123-6.17 10.86-1.33 1.862-2.83 3.76-4.95 5.54-1.07.885-2.32 1.738-3.83 2.414-1.5.662-3.29 1.164-5.12 1.186-.46.012-.91.01-1.37-.002-.44-.035-.87-.11-1.31-.182-.43-.076-.86-.16-1.29-.252-.39-.117-.76-.252-1.14-.387-.76-.27-1.51-.566-2.1-.916-.6-.33-1.28-.68-1.79-1.05-1.02-.73-2.03-1.48-2.77-2.21l-1.16-1.09-.97-1.06c-.31-.34-.62-.69-.92-1.02-.26-.33-.52-.66-.77-.97-.49-.63-1-1.24-1.39-1.81-.77-1.13-1.51-2.13-2.01-2.95l-1.61-2.57 14.01-7.21 1 2.23c.31.72.74 1.48 1.21 2.43.23.48.51.89.78 1.38l.43.73.46.67c.16.23.32.47.48.71l.48.61c.33.47.64.73.95 1.08.61.56.88.73.89.85 0 .15.55.24 1.58-.38 1-.57 2.2-1.64 3.35-2.86 2.33-2.49 4.54-5.65 6.58-8.65l5.58-8.49c1.67-2.54 3.09-4.61 4.2-6.13.54-.77.95-1.26 1.23-1.65l.43-.57 5.95 3.93z"/><path fill="#0F3C96" d="M126.343 164.535l2.274 3.42 3 .25-2.125 3.75 9.425 11.885-2.073-18.354-10.535-2.586m24.16.368l-1.61 4.187-3.06.656 2.12 3.75-8.98 11.98 1.7-18.66 9.59-3.65"/><path fill="#E53017" d="M187.436 189.71c-3.606-6.903-14.584-24.114-29.936-13.327 0 0-19.833 2.303-30.453 14.842 0 0-5.117-.254-5.245 1.408-.085 1.11 7.81 14.584 16.495 24.264 19.47-3.13 36.67-13.02 49.14-27.186z"/><path fill="#AF1E0B" d="M157.31 176.408c-.9.12-5.003.725-10.17 2.4 4.484 4.367 14.497 14.88 20.863 27.19 2.75-1.667 5.384-3.5 7.915-5.462-4.998-7.946-12.69-19.304-18.61-24.128z"/><path fill="#1F4AB5" d="M182.82 193.963c-.303-.84-.61-1.697-.926-2.57-.57-1.748-1.435-3.496-2.226-5.27-.37-.896-.905-1.75-1.37-2.623-.5-.863-.92-1.754-1.492-2.588-1.104-1.68-2.197-3.348-3.502-4.87-.61-.778-1.236-1.536-1.947-2.23-.696-.698-1.33-1.417-2.053-2.056-.734-.623-1.46-1.236-2.166-1.836-.72-.586-1.52-1.076-2.248-1.586-.715-.52-1.503-.938-2.266-1.33-.77-.39-1.457-.813-2.243-1.072l-2.17-.807c-.73-.19-1.43-.342-2.08-.488-.33-.068-.64-.135-.95-.197-.36-.03-.7-.063-1.03-.09-.66-.05-1.27-.078-1.81-.096-.3-.02-.48.002-.64.025-.17.02-.33.03-.48.05l-.76.09c-.41.05-.21.87-.21.87l-.1 6.33s.22.01.64.02c.21 0 .47.01.77.02l.49.01c.19 0 .37.01.45.06.23.08.47.16.73.23l.41.09.55.23 1.21.48 1.31.75c.46.21.9.62 1.37.95.47.33.95.68 1.4 1.15.45.45.95.84 1.4 1.35l1.35 1.56c.45.53.84 1.17 1.27 1.75.44.58.82 1.23 1.19 1.89.8 1.27 1.43 2.7 2.08 4.11.34.69.55 1.46.84 2.18.26.74.57 1.43.75 2.19.4 1.5.87 2.92 1.1 4.41l.42 2.13c.14.69.18 1.41.27 2.08.16 1.35.35 2.61.36 3.83l.06 1.25c4.47-2.93 8.64-6.28 12.46-9.99-.05-.15-.09-.31-.14-.46z"/><path fill="#D0D1D2" d="M127.59 194.775c-2.558-2.56-6.044.096-6.044.096-9.596 5.64 7.805 14.78 7.805 16.96s4.1 2.82 4.1 2.82.74 1.1 1.85 2.67c3.54-.43 7.01-1.07 10.4-1.94-6.43-8.18-16.36-18.85-18.1-20.59z"/><path fill="#FFF" d="M62.052 102.868s-.164-1.877-.57-2.313c-.413-.435-2.29-.706-2.29-.706s1.905-.19 2.34-.61c.422-.41.666-2.27.666-2.27s.153 1.86.553 2.29c.42.44 2.31.72 2.31.72s-1.83.14-2.26.54c-.44.41-.74 2.33-.74 2.33zm2.208 35.054s-.256-2.947-.895-3.63c-.647-.685-3.592-1.11-3.592-1.11s2.99-.295 3.672-.955c.663-.645 1.046-3.553 1.046-3.553s.24 2.922.87 3.6c.65.695 3.62 1.14 3.62 1.14s-2.88.222-3.55.843c-.7.655-1.16 3.665-1.16 3.665zm87.974-64.68s-.258-2.946-.896-3.63c-.646-.683-3.592-1.11-3.592-1.11s2.988-.293 3.672-.953c.662-.65 1.045-3.56 1.045-3.56s.24 2.92.87 3.6c.647.69 3.62 1.14 3.62 1.14s-2.885.22-3.554.84c-.71.65-1.17 3.66-1.17 3.66z"/><path fill="#0F3C96" d="M124.587 170.615l.08-.316 1.268-5.23-.025.03c-.286.38-.69.88-1.233 1.65-1.113 1.52-2.53 3.59-4.206 6.13l-.03.06c1.04 3.55.32 12.6.32 12.6l3.84-14.94zm28.35 1.31s-3.187-.814-3.624-.064.313 6.44.313 6.44l5.063-.87-1.76-5.5z"/><circle fill="#FFF" cx="186.544" cy="153.607" r="1.271"/><circle opacity=".3" fill="#FFF" cx="179.379" cy="169.984" r="1.588"/><path opacity=".3" fill="#FFF" d="M199.904 138.508c0 .88-.71 1.59-1.588 1.59s-1.59-.71-1.59-1.59c0-.875.713-1.588 1.59-1.588s1.588.713 1.588 1.588z"/><path fill="#FFF" d="M178.344 151.492s-.164-1.877-.57-2.313c-.412-.44-2.288-.71-2.288-.71s1.903-.19 2.34-.61c.42-.41.665-2.26.665-2.26s.16 1.86.56 2.29c.42.44 2.31.72 2.31.72s-1.83.14-2.26.53c-.45.42-.74 2.33-.74 2.33zM53.257 85.222c-.75-.447-1.878-.964-4.375-1.557.01-.368-.028-.74-.12-1.103l-.114-.452c-.26-1.03-.92-1.914-1.83-2.457-.708-.42-1.513-.644-2.33-.644-.893 0-2.227.26-3.51 1.52-.076.07-.16.16-.23.25l-.345.4c-.403.3-.755.68-1.03 1.14-.102.17-.197.35-.286.54-.104.13-.2.27-.29.42-.67 1.12-.75 2.36-.75 3.15-.02 1.71.515 2.87 1.14 3.64-.274.16-.592.37-.898.67-.44.37-.78.84-1.03 1.36l-.28.6c-.33.73-.44 1.54-.3 2.32.3 1.75.77 3.4 1.41 4.93-.32-.04-.62-.07-.91-.07-2.31 0-4.19 1.32-4.79 3.36-.25.83-.31 1.56-.26 2.2-1.19.53-2.09 1.54-2.46 2.81-.22.74-.37 1.93.26 3.3-1.57.94-2.49 2.17-2.74 3.68l-.03.15c-.11.28-.2.59-.26.93-.47 2.8.89 5.51 4.01 8.06-.36.52-.66 1.1-.86 1.76-.16.53-.21 1.08-.15 1.61-.2.09-.37.18-.52.26-2.05 1.14-2.42 2.83-2.46 3.73-.12 2.59 1.73 4.23 3.62 5.32-.21.21-.41.43-.61.67l-.33-.31c-.43-.78-1.11-1.4-1.91-1.75-.2-.11-.53-.3-.98-.57-1.58-.94-2.68-1.32-3.8-1.32-.16 0-.38.01-.53.03-.65.07-1.26.3-1.78.66-1.4.72-2.93 2.19-3.7 5.16-.48 1.7-.63 3.36-.45 4.94.01.03.04.33.05.4-.55.86-.98 1.92-.83 3.21.34 2.92 3.17 3.9 5.27 4.62 2.02.68 3.07.91 3.87.97L38 155.72c.194.022.39.04.584.04.12 0 .24-.01.36-.02.22-.01.69-.018 1.47-.02.42-.01.78-.028 1.09-.04.12.02.24.05.36.062.206.035.412.05.62.05.226 0 .452-.02.674-.06.27-.01.54-.05.81-.12.27-.065.53-.16.77-.28.13-.014.25-.03.38-.06 1.14-.214 2.08-.9 2.65-1.82.48-.655.765-1.464.77-2.33.01-1.3-.603-2.47-1.57-3.21.08-.63.074-1.32-.01-2.075.015-.25.007-.51-.023-.77-.04-.315-.11-.633-.21-.976-.01-.19-.02-.38-.04-.56-.047-.39-.147-.77-.29-1.12-.096-.31-.22-.6-.357-.86-.06-.28-.148-.54-.25-.79-.178-.56-.44-1.02-.69-1.41l-.03-.04c-.06-.13-.14-.25-.21-.37 1.143-.95 1.91-2.34 2.12-4.06.02-.15.03-.31.03-.46l.01-.13c.036-.84-.16-2.07-1.234-3.33 1.61-1.12 1.93-2.57 1.966-3.38.03-.62-.07-1.23-.296-1.84-.08-.24-.18-.46-.3-.68.32-.37.6-.78.8-1.23.3-.45.5-.95.596-1.48.306-.75.38-1.57.206-2.36-.03-.77-.287-1.52-.745-2.16l-.09-.13c.07-.16.15-.33.2-.51l.17-.57c.36-1.22.15-2.3-.45-3.45.6-.02 1.19-.19 1.73-.48l.29-.15c.94-.5 1.63-1.36 1.93-2.39.15-.5.22-1.02.2-1.58.03-1-.33-1.96-.97-2.71.09-.15.2-.29.28-.45l.12-.26c.17-.25.31-.51.42-.78.26-.51.41-1.08.43-1.67.02 0 .03 0 .04-.01 1.43-.13 2.68-1.02 3.27-2.33.14-.3.24-.63.32-1.01.1-.37.12-.76.1-1.14.26-.24.51-.51.73-.88.07-.12.14-.24.2-.37.09-.11.16-.23.24-.35.24-.39.47-.92.56-1.58.63-1.39.99-3.78-1.37-6.84-1.06-1.36-2.1-2.34-3.18-2.98zM35.93 145.74c.125-.382.33-.76.52-1.062.055-.09.107-.168.156-.24.08.086.162.17.24.248.138.27.296.532.462.81l.08.133c.043.11.092.23.146.34l.01.05c-.563-.11-1.1-.2-1.613-.29zm87.725-102.62c.31-.2.59-.444.838-.727l.307-.352c.697-.79 1.048-1.84.976-2.9-.112-1.65-1.24-3.76-4.052-4.29-.105-.02-.21-.03-.317-.04l-.54-.06c-.397-.13-.818-.2-1.255-.2-.092 0-.185 0-.278.01-.2.01-.402.04-.607.07h-.223c-.092 0-.2.01-.29.01-1.307.09-2.37.73-3.02 1.18-.233.16-.43.32-.623.49-.54-.22-1.17-.39-1.88-.39-.25 0-.5.02-.72.06-.06.01-.12.02-.18.04h-.22c-.21 0-.52.02-.74.06-2.82.46-4.96 2.65-6.38 6.47-.41-.12-.83-.2-1.27-.2-.1 0-.22.01-.33.02.12-1.89.21-3.51.27-4.84.08-.33.17-.72.26-1.2l.02-.11c.2-1.2.27-2.14 0-3.09l-.12-.41c-.29-1.03-.98-1.91-1.93-2.42-.06-.04-.12-.07-.19-.1-.64-.43-1.41-.68-2.22-.68-.48 0-.95.09-1.39.25l-.13.04c-.69.2-1.31.57-1.81 1.09-1.02 1.07-1.61 2.6-1.99 5.19-.15 1.26-.3 2.51-.44 3.75-.03.32-.03.63.01.94-.06.46-.1.97-.12 1.56l-.01.94c-.28-.04-.56-.07-.84-.07-.76 0-1.54.16-2.3.48-2.18.91-3.79 2.69-4.8 5.28-.62-.69-1.47-1.15-2.41-1.28-.35-.05-.73-.07-1.11-.07-.59 0-1.23.06-1.89.18-1.11.2-2.08.85-2.69 1.8-.07.12-.14.24-.2.37l-.13.11c-3.5 2.12-3.72 6.75-3.79 8.26-.02.33-.03.65-.04.96-.66-1.65-1.21-3.06-1.65-4.2L70 51l-.03-.167c-.01-.77-.243-1.51-.66-2.14-.016-.07-.035-.146-.055-.217.076-.77-.07-1.557-.434-2.25l-.04-.1c-.41-1.48-1.65-2.64-3.25-2.88l-.35-.055c-.2-.03-.4-.04-.6-.04-1.13 0-2.22.48-2.99 1.35-.88.99-1.24 2.29-1.03 3.61l-.12.61c-.06.31-.08.63-.07.94.02.53.04.97.06 1.32.01.17.03.33.06.5.02.15.04.31.08.46.1.44.19.85.29 1.25-.11-.08-.23-.16-.36-.23l-.27-.15c-.79-.4-1.6-.6-2.39-.6-1.06 0-2.08.37-2.88 1.05-.64.55-2.35 1.99-2.16 4.32.02.25.07.5.13.74.67 2.46 1.22 4.23 1.66 5.41l3.03 7.18c.1.24.23.46.37.67.23.56.55 1.16.97 1.83.27.62.53 1.16.79 1.64.05.21.12.42.2.62.08.2.18.39.28.57.12.2.25.38.4.56l.13.15.14.25.03.08c.16.61.46 1.17.88 1.65.17.41.39.8.71 1.18.76.9 1.82 1.44 3 1.54.12.01.24.02.35.02 1.59 0 3.04-.95 3.68-2.43.44-1.02.58-2.17.43-3.4-.06-.44-.18-.87-.38-1.27-.04-.12-.08-.24-.13-.36.68.24 1.37.35 2.05.35 1.36 0 2.63-.47 3.68-1.36 1.89-1.6 1.58-3.82 1.21-5.21 1.08.9 2.23 1.38 3.42 1.38.19 0 .38-.01.56-.03.17.01.34.01.49.01.77 0 1.92-.07 2.97-.68.1-.05.39-.24.84-.56.12-.09.21-.15.28-.2.34-.21.65-.46.9-.75l.04-.03c1.14-.74 1.65-1.84 2.55-3.95.08-.17.12-.36.17-.55l.1.06c1.26.71 2.34 1.04 3.38 1.04h.09c.22.03.44.05.67.05.53 0 1.1-.11 1.59-.32l.35-.14c1.12-.48 1.96-1.44 2.28-2.6.14-.29.23-.6.3-.92.44.16.9.25 1.36.25.82 0 1.63-.25 2.32-.74.67-.22 1.26-.6 1.73-1.12.61.36 1.31.56 2.03.56.36 0 .73-.05 1.09-.15l.48-.13c.6-.17 1.14-.48 1.59-.88.87.55 1.72.91 2.63.99.34.09.67.13 1.01.13.2 0 .39-.02.59-.04.08 0 .16.01.25.01.72 0 1.44-.2 2.06-.57.43-.17.81-.41 1.16-.71.35.1.72.17 1.15.17.09 0 .18 0 .26-.01.15-.01.29-.03.43-.05h.13c.09 0 .2 0 .29-.01.46-.03 1.02-.14 1.61-.44 1.5-.27 3.67-1.34 4.84-5.02.52-1.64.73-3.06.64-4.32-.06-.86-.28-2.08-1.22-4.47z"/><linearGradient id="b" gradientUnits="userSpaceOnUse" x1="32.173" y1="102.834" x2="32.173" y2="163.278"><stop offset="0" stop-color="#1B1440"/><stop offset=".819" stop-color="#ED1E79"/></linearGradient><path fill="url(#b)" d="M42.588 149.623c-.153.018-.266-.003-.34-.06-.014-.132.017-.246.094-.344.217.15.304.23.26.23.052-.32.182-.82.39-1.51.13-.39.156-.94.075-1.64-.01-.09-.048-.13-.114-.12-.087.01-.135-.02-.143-.09-.01-.09.02-.11.09-.08.072.03.103.01.094-.06-.01-.08 0-.14.03-.17.03-.04.04-.1.028-.19-.01-.09-.037-.2-.08-.33-.042-.13-.067-.23-.076-.31-.01-.08-.026-.11-.052-.1-.026.01-.043-.01-.05-.08-.01-.09-.01-.21.006-.37.015-.16.018-.28.007-.37-.01-.09-.05-.13-.12-.14-.068 0-.113-.01-.132-.03.072-.14.107-.22.104-.24-.01-.09-.1-.26-.26-.51s-.25-.42-.26-.5c-.01-.07 0-.1.04-.09s.04-.04.03-.12c-.01-.09-.05-.11-.11-.06s-.1.03-.11-.06c-.01-.09.02-.14.08-.14l-.02-.13c-.01-.09-.1-.26-.26-.52s-.26-.44-.3-.55c-.11.23-.07.4.09.52l-.11.18-.19-.15.03-.53c-.21-.09-.35-.16-.43-.22.02-.05.06-.06.13-.02.05.02.06-.02.05-.1-.01-.08-.04-.11-.11-.08-.06.03-.1 0-.11-.09-.06-.55-.67-1.12-1.82-1.72-1.09-.56-1.88-.82-2.38-.76-1.34.15-2.64 1.03-3.91 2.64-1.05 1.32-1.77 2.64-2.17 3.97-1.21-1.3-2.07-2.3-2.57-2.99.02.17-.06.19-.23.06.06-.08.08-.15.07-.21-.03-.24-.63-.86-1.81-1.85-.02-.15 0-.24.07-.27-.05 0-.52-.26-1.42-.8s-1.51-.79-1.82-.76l-.09.11c-.94.31-1.61 1.24-2 2.79-.35 1.21-.46 2.36-.33 3.43.01.09.04.1.1.04.06-.06.09-.05.1.04.01.09-.02.1-.1.06-.07-.05-.1-.03-.09.06.01.09.04.11.11.08s.1 0 .11.08c.01.09 0 .18-.02.28-.02.1-.03.2-.02.28.02.2.12.48.3.86.17.38.27.6.27.67 0 .02-.04.09-.11.21-.41-.09-.68-.16-.82-.21-.45.54-.66.92-.63 1.14.03.28.89.71 2.58 1.29 1.56.53 2.57.78 3.01.78l13.35 1.97c.15-.02.72-.03 1.72-.04.75-.02 1.29-.05 1.61-.09.23.08.43.14.59.16-.04-.31-.04-.51 0-.6.11.19.27.37.49.54.07-.17.34-.27.79-.33-.13-.1-.12-.16.01-.17.08.12.27.15.57.1-.02-.16.04-.24.17-.26-1.1-.14-1.98-.28-2.64-.42.18-.73.38-1.11.6-1.13zm-12.343-.724c-.112-.01-.43-.08-.952-.19-.41-.11-.715-.15-.912-.13-.08.01-.16.03-.22.06-.07-.06-.35-.15-.83-.27l-1.79-.32c-.72-.16-1.3-.38-1.72-.67-.42-.29-.9-1.04-1.44-2.26-.3-.7-.48-1.26-.53-1.7-.01-.09 0-.17.02-.25.03-.08.03-.17.02-.25-.01-.09.03-.38.1-.86s.11-.77.1-.86c-.01-.09.01-.12.04-.11.04.02.05-.02.04-.11l-.13-.29c-.02-.18.09-.41.34-.7.24-.3.45-.45.63-.47.09-.01.45.17 1.1.55.64.38 1.16.71 1.55 1 .75 1.06 1.56 1.93 2.43 2.6-.06.03-.12.07-.18.12 1.27 1.78 1.91 2.75 1.93 2.9.07.63.28 1.28.63 1.95-.13.01-.19.09-.17.22zm1.49.82l-.124-.22.13-.08.17.28-.16.02zm3.066.64l-.06-.56.17-.02.07.56-.16.02zm6.93-1.56c-.17.4-.26.76-.27 1.08-.35.39-.7.61-1.05.65l-.29.03c-3.82-.73-6.73-1.24-8.71-1.54.04-.05.14-.34.29-.86s.21-.92.18-1.19c-.16-1.42.24-2.9 1.21-4.45.98-1.55 2-2.39 3.07-2.51.46-.06.95-.01 1.48.12.24.13.46.23.65.32.2.09.54.4 1.01.93s.87.88 1.17 1.07c-.05.07-.08.16-.06.27.01.04.13.27.38.68.25.41.38.66.39.75.01.08.05.12.11.1.07-.02.1 0 .11.07.07.63.15 1.08.23 1.36.15-.02.28-.08.38-.18.03.19.03.47.02.83-.01.35-.02.56-.01.63l.01.09c-.1 0-.16.04-.15.16.01.09.05.14.1.15.06.02.09.06.1.12.02.11 0 .16-.05.15-.04-.01-.08 0-.09.03l.12.12c-.06.01-.09.04-.09.11.01.09.03.12.05.11.02-.01.04.01.04.08.01.04-.07.27-.25.68z"/><linearGradient id="c" gradientUnits="userSpaceOnUse" x1="37.416" y1="102.834" x2="37.416" y2="163.278"><stop offset="0" stop-color="#1B1440"/><stop offset=".819" stop-color="#ED1E79"/></linearGradient><path fill="url(#c)" d="M40.75 134.844c-.508-.022-1.197-.164-2.07-.424-.63-.183-1.253-.365-1.863-.548-.003.066-.04.13-.108.193-.3-.3-.82-.632-1.55-.995-.35-.17-1.05-.478-2.11-.922-.42-.525-.78-.796-1.09-.81-.11-.005-.3.068-.58.222-.28.152-.41.295-.42.427-.04.704 1.2 1.597 3.72 2.68 2.18.96 3.54 1.45 4.07 1.475.06.003.19-.024.36-.083.18-.06.3-.08.37-.05.4.26.77.39 1.1.41 1.5.07 2.33-.59 2.51-1.97-.12.1-.17.1-.17-.01v-.14c.11 0 .17-.04.17-.13.01-.2-.14-.44-.43-.73-.3-.29-.46-.5-.48-.64l-.38-.02c0-.02.02-.05.05-.08.03-.03.05-.09.06-.18-.82-.77-1.28-1.22-1.36-1.35-.28-.08-.73-.42-1.34-1.02-.34-.33-.74-.74-1.2-1.25.02.18-.09.18-.33.02 0-.07.04-.13.11-.2-.27-.01-.42-.14-.48-.39l.17-.16c.74.19 1.58.3 2.5.34 1.73.08 2.83-.14 3.3-.65.36-.18.54-.34.55-.47 0-.09-.02-.18-.06-.27-.04-.09-.06-.15-.06-.17l-1.32-.06c.02 0-.08.04-.3.12-.54-.16-1.5-.27-2.86-.33-.53-.03-1.31-.13-2.35-.32s-1.54-.29-1.52-.29c-.73-.03-1.22.37-1.48 1.22.1.1.21.1.33.02-.02.37.19.72.64 1.05.44.33.67.55.66.66.83.61 1.88 1.48 3.15 2.62 1.78 1.56 2.66 2.52 2.65 2.9-.01.17-.21.25-.61.23zm2.4-7.687l-.007.132-.236.12-.027-.14.27-.12zm-.636.17l.257.144-.07.13-.26-.14.08-.13zm-.656.598l.13.04-.144.256-.13-.03.144-.26z"/><linearGradient id="d" gradientUnits="userSpaceOnUse" x1="37.907" y1="102.834" x2="37.907" y2="163.278"><stop offset="0" stop-color="#1B1440"/><stop offset=".819" stop-color="#ED1E79"/></linearGradient><path fill="url(#d)" d="M44.766 120.667c-.138.022-.293.085-.467.19l-.11-.185c.02-.108.08-.21.18-.304.05.076.15.126.31.15.02-.15.08-.252.18-.303-.2-.278-.33-.423-.4-.434-.07-.01-.19.05-.37.18-.18.55-.3.86-.35.91.06.01.13.05.18.1-1.34 1.36-2.67 1.94-3.97 1.72-.32-.05-.53-.14-.62-.27l.05-.32.06-.36c.05-.32-.77-1.52-2.48-3.59-1.35-1.58-2.27-2.64-2.79-3.17-.1.03-.25.01-.46-.07-.27-.11-.43-.17-.48-.18-.33-.05-.66.01-1 .17-.69.36-1.06.71-1.11 1.06-.01.07.02.09.09.05.07-.03.1 0 .08.08-.01.05-.08.19-.23.44-.14.25-.22.42-.24.53-.23 1.37.74 2.89 2.89 4.56 1.96 1.51 3.74 2.4 5.34 2.66.29.05 1.24 0 2.87-.15l.09-.55.07.01c.06.17.1.31.13.43 1.38-.82 2.11-1.42 2.17-1.82.03-.19.12-.34.27-.45l-.16-.29c.17-.19.29-.36.38-.5-.16-.02-.22-.1-.2-.23zm-8.107-2.75l.16.026-.05.26-.17-.027.04-.26zm-3.91-3.09l.26.042-.05.29-.26-.05.05-.3zm1.86 4.924c-1.57-1.3-2.29-2.31-2.18-3 .01-.08.05-.19.12-.33.06-.13.1-.23.11-.3.03.05.1.07.19.04.12-.04.21-.06.27-.05.5.09 1.38 1 2.65 2.75.64.96 1.3 1.91 1.96 2.87-.67-.13-1.72-.78-3.15-1.96z"/><linearGradient id="e" gradientUnits="userSpaceOnUse" x1="47.417" y1="102.834" x2="47.417" y2="163.278"><stop offset="0" stop-color="#1B1440"/><stop offset=".819" stop-color="#ED1E79"/></linearGradient><path fill="url(#e)" d="M48.092 108.5l-.705-.21c.018.167-.08.31-.293.43-.044-.08.002-.24.14-.474-.17-.05-.297-.042-.385.024-.02.11-.04.29-.06.534-.03.246-.04.424-.06.535l.04-.16.04-.16c.3-.17.53-.22.7-.17.1.03.16.1.18.2.01.1.03.16.05.17l.28-.16c.03-.11.04-.22.04-.35-.01-.13-.01-.21-.01-.23z"/><linearGradient id="f" gradientUnits="userSpaceOnUse" x1="40.121" y1="102.834" x2="40.121" y2="163.278"><stop offset="0" stop-color="#1B1440"/><stop offset=".819" stop-color="#ED1E79"/></linearGradient><path fill="url(#f)" d="M46.73 108.2c-.53-.293-.958-.557-1.28-.79-.018.063-.057.12-.12.17-.385-.48-.957-.832-1.717-1.056-.147-.043-.26-.054-.335-.03-.108-.1-.757-.464-1.95-1.09-1.27-.673-2.062-1.057-2.378-1.15-1.625-.48-2.524-.423-2.7.167-.148.51-.15.87-.003 1.07.25.4.418.8.502 1.22l4.2 5.47c.25.31.52.6.8.89.36.41.53.73.5.98l-7.59-5.06c-.25.05-.48.09-.71.12-.23.04-.37.15-.43.34-.12.4.21.92.98 1.57.7.57 1.18.88 1.44.91.58.58 1.28 1.13 2.09 1.65.43.25 1.17.64 2.22 1.18.12.06.54.32 1.27.79.56.35 1.04.59 1.44.7.84.25 1.31.22 1.4-.1l.16-.57c.07-.25-.68-1.39-2.25-3.4-1.1-1.39-2.2-2.78-3.3-4.16-.39-.84-.72-1.49-.98-1.93l.84.18c.12.06.33.14.61.26s.49.21.6.28c.07-.23.1-.39.11-.48l.18.3c-.08.05-.13.11-.16.2.54.2 1.05.46 1.53.76.49.3.8.48.95.52l.51.15c.02-.06.06-.12.12-.17.33.37.94.69 1.82.95.11.03.32.08.65.14.32.06.53.1.61.13.01-.07.08-.14.2-.22l-.12-.31c-.01.02.01-.02.07-.12.05-.1.1-.24.15-.4zm-4.16-1.64c-.253-.074-.367-.154-.342-.24.126.037.332.042.616.013-.162.083-.254.16-.274.228z"/><linearGradient id="g" gradientUnits="userSpaceOnUse" x1="50.252" y1="102.834" x2="50.252" y2="134.083"><stop offset="0" stop-color="#1B1440"/><stop offset=".819" stop-color="#ED1E79"/></linearGradient><path fill="url(#g)" d="M50.25 98.293h.006l-.006-.003"/><linearGradient id="h" gradientUnits="userSpaceOnUse" x1="46.383" y1="102.834" x2="46.383" y2="163.278"><stop offset="0" stop-color="#1B1440"/><stop offset=".819" stop-color="#ED1E79"/></linearGradient><path fill="url(#h)" d="M51.364 97.676c-.037.08-.127.147-.273.202 0-.05-.03-.1-.09-.15-.06-.053-.09-.104-.09-.153-.02.06-.08.106-.17.14-.13-.35-.25-.586-.36-.71-.03.08 0 .217.11.41-.38-.316-.6-.53-.69-.64.13-.014.21-.016.23-.007-1.16-.675-2-1.166-2.52-1.472-1.64-1.278-2.84-2.09-3.6-2.436-.12-.055-.37-.01-.75.13-.38.143-.59.264-.63.364-.03.08-.03.162.02.243.05.082.06.153.03.213-.03.08-.08.084-.13.012-.05-.072-.09-.078-.12-.018s.14.34.49.838c.4.615.64 1.015.73 1.2.25-.108.38-.118.42-.03-.05.1-.13.124-.25.07.6 1.06 1.21 2.107 1.83 3.145.76 1.35 1.17 2.538 1.21 3.56l-.19.098c-.64-.892-1.13-1.563-1.48-2.013-.63-1.06-1.55-2.758-2.76-5.096.04-.03.08-.013.12.055.03.04.06.02.1-.06.04-.08.01-.33-.09-.76-.11-.55-.16-1.02-.17-1.38l-.51-.23c-.03.08-.13.16-.28.23-.22.12-.34.19-.35.21.18.08.25.18.2.28-.07.02-.2-.02-.38-.1l-.27.6c.53 3.12 1.69 5.76 3.46 7.92.24.38.47.76.7 1.16.33.49.66.81.98.95.16.07.37.1.62.07.26-.03.43-.1.52-.2l.02.12c.42-.12.69-.32.82-.6.21-.46.37-.75.47-.87-.15-.22-.22-.38-.21-.5.19.06.31.12.36.17.01-.98-.24-1.93-.77-2.85-.77-1.34-1.26-2.36-1.47-3.06l2.13.9c.05.17.16.29.34.37-.09-.28-.14-.41-.15-.39.12.06.26.17.42.36s.27.29.33.32c.2.09.47.06.8-.08l.26.15-.01-.14.42.04-.05.12-.35-.01.31.18c.17-.26.36-.42.58-.46 0 .27.01.39.02.37-.04.08-.08.09-.12.02s-.08-.07-.1-.01c-.04.1-.05.18-.03.24.02.06.03.1.02.12.04-.1.16-.18.33-.24.35.19.62.27.79.25.02-.04.04-.1.05-.19.02-.09.03-.15.04-.17-.06-.08-.2-.12-.42-.12-.13-.3-.25-.49-.35-.59zm-1.58.37l-.138-.1.4-.325.138.1-.4.33zm.747-.132l-.15-.068.05-.34.14.023-.03.38z"/><linearGradient id="i" gradientUnits="userSpaceOnUse" x1="48.166" y1="102.834" x2="48.166" y2="163.278"><stop offset="0" stop-color="#1B1440"/><stop offset=".819" stop-color="#ED1E79"/></linearGradient><path fill="url(#i)" d="M51.21 88.66c-1.022-.61-3.368-1.227-7.04-1.855-.152-.09-.243-.368-.272-.834-.03-.46.023-.81.16-1.03.044-.07.143-.21.295-.4.152-.19.25-.32.296-.4.03-.05.05-.13.07-.22.01-.09.07-.21.16-.36l-.12-.45c-.29-.17-.61-.07-.99.3l-.75.86c.04-.02.07-.06.09-.09.01.03.01.1.02.19.01.1 0 .15-.01.17-.06.02-.18-.03-.35-.13-.12.21-.23.47-.31.78.09-.15.17-.2.25-.16l-.17.29c-.03.06-.09.06-.16.02s-.14-.03-.18.05c-.13.21-.19.6-.19 1.16-.01.66.14 1.08.44 1.27.46.27 1.68.59 3.68.96 1.99.37 3.14.65 3.44.83.09.05.15.1.18.14.79.32 1.41.83 1.87 1.52.12.18.34.64.64 1.38.26.65.45.99.58 1.04-.06.09-.13.16-.23.2.04.02.21.13.51.31-.08.13-.23.27-.45.43.01-.1-.01-.13-.05-.11-.04.03-.06.07-.07.11l.18.03c.06.04.07.09.02.17-.04.08-.1.21-.18.41-.08.2-.14.33-.17.38l.31.19c.4-.24.62-.39.64-.42.05-.07.04-.13-.01-.17-.05-.05-.05-.11-.01-.18s.12-.14.23-.19.18-.12.23-.19c.03-.06.03-.17-.03-.34-.05-.17-.06-.3-.01-.37.04-.08.1-.14.16-.18.06-.04.11-.08.14-.14.41-.68.13-1.64-.82-2.88-.74-.95-1.43-1.62-2.07-2zm-7.366-.666l-.034-.136.316-.08.035.136-.31.08zm5.98.798l-.007-.12.316-.08.035.137-.345.06z"/><linearGradient id="j" gradientUnits="userSpaceOnUse" x1="64.758" y1="102.834" x2="64.758" y2="163.278"><stop offset="0" stop-color="#1B1440"/><stop offset=".819" stop-color="#ED1E79"/></linearGradient><path fill="url(#j)" d="M64.716 47.992l.353-.298c-.15-.168-.21-.345-.19-.53l-.35-.054c-.11.117-.11.295-.02.537.04.082.11.197.2.345z"/><linearGradient id="k" gradientUnits="userSpaceOnUse" x1="63.584" y1="102.834" x2="63.584" y2="163.278"><stop offset="0" stop-color="#1B1440"/><stop offset=".819" stop-color="#ED1E79"/></linearGradient><path fill="url(#k)" d="M63.596 74.125c-.008-.01 0-.032-.007-.043-.03-.006-.03.003 0 .043z"/><linearGradient id="l" gradientUnits="userSpaceOnUse" x1="64.645" y1="102.834" x2="64.645" y2="163.278"><stop offset="0" stop-color="#1B1440"/><stop offset=".819" stop-color="#ED1E79"/></linearGradient><path fill="url(#l)" d="M71.35 66.277c-1.787-4.365-3.122-7.7-4.005-10.008l-1.31-4.47c-.025-.27-.086-.48-.183-.63-.04.09-.093.09-.165.01.008-.1.087-.21.24-.33-.177-.14-.285-.25-.324-.33-.02-.16-.044-.31-.08-.45-.05.04-.115.07-.194.07.11-.3.08-.61-.1-.91-.19-.31-.19-.71-.01-1.21-.03 0-.06.02-.08.06-.06.07-.11.13-.16.17-.15.13-.31.1-.46-.09-.01.12-.05.33-.1.62l-.13.64c.02.5.04.91.06 1.24.27-.09.47-.16.6-.21.04.05.05.1.03.14-.25.12-.44.24-.6.37.47 2.13.88 3.74 1.23 4.83.56 2.09 1.39 4.43 2.5 7 .98 2.32 1.6 4.12 1.89 5.4-.65-.26-1.13-.46-1.45-.59-.42-.43-1.17-1.12-2.26-2.07-1.02-.87-1.71-1.51-2.07-1.93l-.43-.51c-.09-.01-.14-.02-.16-.04L59 56.81c-.15-.18-.38-.36-.68-.542-.4-.2-.693-.23-.88-.07-.52.44-.77.76-.76.95.637 2.32 1.15 4 1.547 5.05l2.97 7.04c.032-.03.1-.04.19-.03-.007.43.33 1.17 1.01 2.21.4.955.78 1.69 1.123 2.2.024.066.03.15.013.25-.018.08.002.133.03.18.033.01.13.067.3.185.244.6.41.93.5 1l.143-.03c.042.05.07.12.08.198-.1.09-.11.2-.03.33.11.2.15.35.125.46.2-.1.31-.16.34-.16l-.01.14c.03.04.17.03.42-.01-.02.08-.07.16-.14.24-.07.08-.11.14-.12.17.13.5.23.78.28.85.07.08.17.13.3.14.16-.36.2-.8.14-1.32l-.3-.36c-.22.18-.35.28-.4.29.06-.14.21-.31.47-.52-.22.04-.38 0-.48-.11.07-.15.16-.17.26-.05 0-.55-.25-1.4-.75-2.57-.47-1.1-.92-1.94-1.34-2.5-.06-.15-.24-.7-.54-1.66-.29-.85-.45-1.31-.49-1.36l-.23-.28c-.05.05-.1.07-.16.06.01-.5-.33-1.53-1.02-3.11-.76-1.75-1.2-2.93-1.32-3.55.23.07.43.2.6.4.12.14.25.36.42.67.16.31.28.51.35.59l2.17 2.57c1.27 1.5 3.17 3.07 5.72 4.72.23.04.39.02.47-.05.19.33.61.61 1.24.85.77.3 1.43.22 1.97-.23.15-.12.07-.68-.25-1.67s-.61-1.69-.91-2.1zm-6.763-17.312c-.004-.14-.02-.228-.048-.26.04-.013.1.012.17.072.06.06.12.093.19.098-.12.068-.22.098-.32.09zm.544 26.67l-.19.336-.1-.12.19-.29.11.08zm-.34-1.433l.14.058-.14.292-.1-.126.11-.224zm-4.13-14.656l-.08-.1.05-.214.11.085-.06.23z"/><linearGradient id="m" gradientUnits="userSpaceOnUse" x1="80.957" y1="102.834" x2="80.957" y2="163.278"><stop offset="0" stop-color="#1B1440"/><stop offset=".819" stop-color="#ED1E79"/></linearGradient><path fill="url(#m)" d="M85.104 57.28c.04-.15.027-.283-.04-.397-.056.033-.13.038-.22.013.064-.24.156-.344.276-.313-.06-.016-.112-.062-.156-.138l-.165-1.01c-.06.033-.13.047-.21.042.13-.205.11-.435-.06-.69l-.41-.64c-.1-.35-.19-.59-.27-.724-.05-.076-.18-.236-.39-.48-.22-.242-.36-.42-.43-.535-.14.077-.23.108-.29.092-.01-.147-.2-.27-.56-.365.08-.124.05-.31-.09-.557-.5-.068-1.1-.042-1.79.08.09.33.17.545.26.65.19-.11.31-.158.37-.143.03.137.12.274.28.412.15.138.24.217.25.236.02-.09.11-.115.26-.075.04.156.3.603.77 1.342.5.778.79 1.145.86 1.1l.11-.065c.02-.01.02 0 .01.028 0 .05.01.083.02.103-.17.276-.17.735 0 1.375.19.73.2 1.39.03 1.97.04.21.1.38.18.51-.18-.05-.3-.02-.34.08.1.17.06.43-.12.78-.18.35-.22.64-.1.88-.01.03-.2.43-.57 1.21-.25.55-.51.91-.8 1.07-.07.05-.21.17-.42.36-.2.2-.34.32-.42.36-.17.1-.47.09-.91-.02-.43-.12-.7-.26-.8-.43-.31-.53-.5-1.47-.59-2.81-.09-1.34-.06-2.3.09-2.88.15-.58.28-1.16.41-1.73.29-1.08.61-1.72.95-1.91.09-.05.2-.2.32-.44.11-.23.18-.36.2-.37-.18-.13-.37-.26-.56-.38-.2-.12-.42-.11-.67.03-.23.13-.35.3-.35.51-.17-.03-.29-.03-.34.01-1.15.66-1.78 2.35-1.91 5.07-.13 2.34.04 3.89.49 4.67.1.17.31.28.64.32.01-.03-.11.03-.36.17.37.38.73.74 1.09 1.09.55.52.98.69 1.28.51.13-.08.22-.07.28.03.76.04 1.25 0 1.48-.13.06-.03.22-.15.49-.34s.44-.31.51-.35c.06-.04.08-.06.04-.08-.04-.02-.02-.05.06-.09.08-.04.2-.14.37-.27.17-.14.29-.22.34-.26.13-.07.5-.81 1.09-2.19-.21-.05-.31-.14-.3-.24.04-.02.1-.02.19.01s.14.04.16.02c.01-.18.13-.96.36-2.34.12-.75.06-1.34-.18-1.76.08-.04.15-.01.21.11zm-3.72-5.244l-.1-.17.4-.232.1.17-.4.232zm-1.14 12.99l-.006-.242.126-.012.006.24-.126.013zm3.14-1.756l-.083-.143.49-.28.09.142-.48.28zm.93-7.095l-.067-.114.156-.24.13.08-.22.28z"/><linearGradient id="n" gradientUnits="userSpaceOnUse" x1="91.266" y1="102.834" x2="91.266" y2="163.278"><stop offset="0" stop-color="#1B1440"/><stop offset=".819" stop-color="#ED1E79"/></linearGradient><path fill="url(#n)" d="M94.4 49.207c-.033-.08-.073-.148-.118-.2.017-.246.016-.448-.002-.608-.06.02-.13.03-.208.01.012-.03.053-.05.122-.05.05 0 .057-.04.023-.12-.034-.08-.08-.12-.133-.11-.055.01-.097.01-.125 0 .05-.05.08-.1.08-.15-.01-.02-.08-.02-.22 0s-.22.01-.26-.02c.1-.26.15-.4.14-.42-.42-.14-.83-.27-1.23-.38-.32-.09-.69-.04-1.09.13-1.49.61-2.51 2.13-3.09 4.53-.5 2.13-.48 3.84.05 5.12.24.59.5.93.78 1.03.12.28.58.65 1.39 1.1.81.45 1.36.61 1.67.49.08-.04.08-.07 0-.11-.08-.04-.08-.08.01-.11.08-.04.17.01.28.15.1.13.2.18.28.15l.21-.09.09-.04c-.23-.21-.33-.35-.28-.42.08-.03.14.01.2.13.14-.35.25-.47.32-.35-.02-.04-.03-.13-.03-.26-.01-.13-.02-.21-.04-.26l-.16.06-.24.1c-.06.02-.49-.15-1.27-.53-.79-.38-1.21-.62-1.26-.75-.15-.37-.25-.92-.3-1.67-.03-.59-.06-1.16-.1-1.71-.02-.33.14-1.16.47-2.48.42-1.62.92-2.56 1.51-2.81.1-.04.23-.03.39.02.17.05.26.08.29.09.2.42.31 1.03.33 1.83 0 .64.01 1.26.03 1.88.14-.06.25-.07.31-.03-.01.08.05.24.2.49.06-.03.14-.06.25-.11l.25-.1c.16-.07.28-.35.35-.86.08-.51.06-.87-.06-1.09.36-.39.4-.91.13-1.56z"/><linearGradient id="o" gradientUnits="userSpaceOnUse" x1="101.213" y1="102.834" x2="101.213" y2="163.278"><stop offset="0" stop-color="#1B1440"/><stop offset=".819" stop-color="#ED1E79"/></linearGradient><path fill="url(#o)" d="M105.196 53.09c-.01.05.04.058.145.028.15-.042.21-.105.19-.19-.13-.076-.26-.096-.39-.06l-.1.235-.15-.3c.08-.135.2-.158.36-.067.03-.145.05-.31.05-.494.01-.184.06-.372.17-.562-.02.006-.07-.05-.15-.164.01-.527.01-.938 0-1.233-.09-.248-.14-.407-.13-.476l-.02-.095c-.01-.063-.14-.404-.39-1.02-.29-.696-.49-1.2-.6-1.512-.08-.227-.25-.438-.48-.634-.24-.195-.43-.272-.58-.23-.1.03-.19.1-.25.207l-.24-.137c.04.127.02.2-.04.217s-.08-.01-.07-.082c.02-.07-.02-.09-.1-.07-.08.03-.3.28-.64.76s-.55.81-.61.98c.05-.01.1.01.16.06.05.03.07.07.04.13-.02.01-.05 0-.06-.03-.02-.02-.08-.03-.16 0-.04.01-.34.77-.9 2.28-.58 1.58-1 2.52-1.27 2.8-.15-.39-.25-1.11-.28-2.16-.03-1.05-.12-1.78-.25-2.17.39-5.36.63-9.42.75-12.17.08-.27.18-.72.3-1.35.12-.72.15-1.18.1-1.37l-.11-.41c-.02.01-.06 0-.13-.03-.06-.02-.14-.02-.24 0s-.14.01-.14-.06c0-.16.01-.22.02-.18l-.44.13c-.38.41-.69 1.39-.92 2.94-.15 1.23-.3 2.46-.43 3.69.06-.02.14-.01.22.04-.16.39-.27 1.12-.31 2.18-.01.94-.02 1.89-.02 2.85-.16.73-.13 1.42.07 2.07.07-.02.13 0 .19.05-.06.11-.18.12-.37.04.13 1.52.19 2.69.17 3.52.01.21.03.62.05 1.26 0 .55.01.87.03.95.06.21.21.39.46.53-.2.26-.26.54-.18.84.02.06.12.26.32.59.2.33.35.53.46.59l.41.23c.45-.34.81-.52 1.08-.55.45-1.09.82-1.91 1.12-2.48.14-.31.45-1.2.93-2.66.3-.95.64-1.58 1.01-1.89l.35.39c.24.85.37 1.33.39 1.44.1.02.16.03.17.05.03.11 0 .34-.08.71.17-.05.27-.02.3.09.01.04-.04.23-.15.56.06-.02.13-.02.21.01-.09.16-.13.25-.13.27.21-.06.35-.07.4-.04-.03.06-.15.11-.36.17.06.23.17.57.32 1.01.12.44.21.75.26.92-.03-.08-.02-.17.03-.25.05.01.09.04.11.09.03.06.07.1.12.13-.03.36-.03.61.01.74l.48-.13c-.16-.1-.23-.17-.2-.23.23-.06.37-.12.4-.18-.26-.02-.44-.04-.54-.07.02-.03.03-.07.03-.13.01-.06.02-.1.03-.13.14.1.27.12.39.06.24-.13.32-.19.26-.17-.06-.05-.15-.1-.26-.13s-.19-.08-.23-.14c.11-.19.16-.33.15-.42.03.01.03.06.01.13zm.01-2.026l.046.16-.254.07-.045-.158.254-.072zm-7.63-2.612l-.158.045-.03-.472.2-.022-.01.45zm7.197 3.385l.09.318c-.03-.106-.13-.135-.3-.087.09-.093.16-.17.21-.23zm-.496.792l.11-.1.355.41-.127.03-.338-.35z"/><linearGradient id="p" gradientUnits="userSpaceOnUse" x1="103.46" y1="102.834" x2="103.46" y2="163.278"><stop offset="0" stop-color="#1B1440"/><stop offset=".819" stop-color="#ED1E79"/></linearGradient><path fill="url(#p)" d="M103.466 50.19l-.016-.002c.018.04.023.04.016.002z"/><linearGradient id="q" gradientUnits="userSpaceOnUse" x1="110.816" y1="102.834" x2="110.816" y2="163.278"><stop offset="0" stop-color="#1B1440"/><stop offset=".819" stop-color="#ED1E79"/></linearGradient><path fill="url(#q)" d="M109.396 49.686c.152-.025.27-.044.358-.06.326-.052 1.194-1.22 2.605-3.5 1.06-1.78 1.77-2.998 2.11-3.655-.06-.08-.09-.23-.08-.45.02-.29.02-.46.02-.5-.06-.32-.22-.62-.48-.89-.56-.53-1.01-.77-1.36-.71-.07.01-.07.05-.02.11s.04.1-.05.11c-.04.01-.2-.01-.48-.07s-.47-.07-.58-.05c-1.37.22-2.5 1.62-3.4 4.2-.8 2.34-1.07 4.31-.81 5.92.04.29.4 1.17 1.07 2.67l.55-.09.01.06c-.14.12-.26.2-.36.26 1.22 1.05 2.03 1.54 2.42 1.48.19-.03.37.01.52.12l.23-.24c.24.1.44.16.6.2-.03-.15.02-.24.15-.26-.07-.12-.18-.25-.33-.38l.14-.15c.11-.02.22.01.35.08-.06.08-.07.19-.05.35.15-.02.27 0 .34.08.2-.28.29-.45.28-.51-.01-.06-.11-.16-.28-.29-.58.01-.91-.01-.98-.04.01.06 0 .13-.04.21-1.72-.83-2.68-1.9-2.9-3.2-.06-.32-.04-.55.05-.68l.32-.05zm2.834-3.74l-.026-.163.26-.042.027.17-.26.04zm1.91-4.892l.042.26-.293.048-.05-.26.29-.048zm-4.07 3.34c.737-1.905 1.453-2.913 2.148-3.027.086-.014.204-.01.353.01.15.02.26.024.32.014-.03.06-.02.12.04.2.09.1.13.18.14.25.09.5-.5 1.64-1.75 3.4-.69.92-1.39 1.85-2.08 2.78-.09-.67.2-1.88.85-3.61z"/><linearGradient id="r" gradientUnits="userSpaceOnUse" x1="118.853" y1="102.834" x2="118.853" y2="163.278"><stop offset="0" stop-color="#1B1440"/><stop offset=".819" stop-color="#ED1E79"/></linearGradient><path fill="url(#r)" d="M120.98 38.773l-1.133-.12c.045.02.09.026.134.023-.02.024-.06.066-.14.125-.07.07-.12.1-.14.1-.04-.04-.07-.16-.09-.36-.24.02-.51.08-.81.19.18-.01.27.03.27.12l-.33.02c-.06.01-.1-.03-.1-.12 0-.08-.05-.12-.14-.12-.24.02-.59.19-1.06.51-.54.37-.81.73-.78 1.09.04.53.47 1.72 1.31 3.57.84 1.85 1.26 2.95 1.29 3.31.01.11 0 .19-.01.24.19.83.13 1.63-.18 2.41-.07.21-.32.64-.76 1.32-.38.58-.55.94-.52 1.07-.1.01-.2-.02-.29-.08l.04.59c-.14.01-.35-.03-.6-.12.09-.05.11-.08.06-.1-.05-.02-.09-.01-.13.01l.08.16c0 .07-.04.1-.13.11-.09.01-.23.03-.44.08s-.34.07-.41.08l.03.36c.43.19.67.29.71.28.09 0 .14-.04.14-.11.01-.06.06-.1.14-.11.09-.01.18.02.29.08.11.06.2.09.29.08.07 0 .16-.08.27-.22.11-.14.21-.21.3-.22.09 0 .16.01.23.04s.14.04.2.04c.79-.05 1.42-.82 1.9-2.31.36-1.15.52-2.1.47-2.85-.08-1.19-.91-3.47-2.48-6.84-.02-.17.16-.41.53-.7s.68-.44.94-.46c.09 0 .25 0 .5.02.24.02.41.02.49.02.07-.01.15-.03.23-.07.09-.04.22-.06.4-.08l.31-.35c-.02-.33-.29-.54-.81-.64zm-3.506 2.887l-.247-.215.092-.105.24.214-.09.106zm2.597 5.08l.25.216-.09.105-.25-.24.1-.07z"/></svg>