<svg xmlns="http://www.w3.org/2000/svg" width="250" height="250" viewBox="0 0 250 250"><path opacity=".15" d="M208.413 133.958c-.417-1.817-2.034-3.104-3.898-3.104h-3.218l19.124-18.64-8.29-10.286-57.87-8.41-22.6-45.803-1.61 3.26-6.68-13.545-27.44 55.584-61.34 8.914 10.26 10-1.96.285L62 130.855l-.032-.002H42.61c-2.208 0-4 1.79-4 4v43.498c0 2.21 1.792 4 4 4h19.36c.678 0 1.316-.16 1.876-.46.56.3 1.197.47 1.875.47h6.88l-4.11 23.93 11.06-5.81-2.76 16.1 54.87-28.84 54.87 28.84-5.86-34.22h6.78c1.99 0 3.68-1.46 3.96-3.43l.05-.34.05.35c.28 1.98 1.97 3.44 3.96 3.44h19.07c1.22 0 2.37-.55 3.13-1.5.76-.95 1.04-2.2.77-3.39l-9.99-43.5z"/><path fill="#F47F38" d="M65.487 203.287l8.295 10.283 13.93-19.343-11.112-2.842m132.527-92.457l8.294 10.285-19.57 5.91-7.27-12.68m-159-3.515l8.3 10.285 9.35-1.36"/><path fill="#F47F38" d="M128.648 184.727l54.865 28.843-10.478-61.093 44.386-43.264-61.34-8.914-27.43-55.59-27.43 55.58-61.34 8.91 44.39 43.26-10.48 61.09"/><path fill="#FFD200" d="M120.354 174.444l54.865 28.843-10.48-61.092 44.38-43.267-61.34-8.914-27.43-55.584-27.43 55.584-61.34 8.914 44.38 43.267-10.48 61.092"/><path fill="#FAAF40" d="M120.354 160.182l40.787 21.443-7.78-45.418 33-32.164-45.6-6.628-20.39-41.32-20.39 41.32-45.6 6.628 33 32.164-7.79 45.418"/><path fill="#FFF" d="M123.58 116.94s-32.73 66.17-44.27 1.745c0 0-7.845 2.566-6.324 5.273 0 0 14.54 66.42 53.93 1.592 0 0 6.035-6.692-3.337-8.61z"/><path fill="#FFF" d="M79.31 112.2c7.288-9.405 11.635-.62 11.635-.62-.64 1.262-3.35.69-3.35.69-6.84-1.068-6.057 4.67-6.057 4.67l-4.264 5.45"/><path fill="#FFF" d="M79.828 122.393s1.213-2.652 1.71-5.452c.496-2.8-1.354.15-1.354.15l-1.247-3.67-.213-1.1s.57-11.48-4.668-17.05c0 0-7.162-.93 0 8.78 0 0 2.567 7.03 2.192 8.53 0 0-.91 2.35-3.047 1.01 0 0-4.06-5.94-12.29-6.52 0 0-3.37 5.51 5.99 5.51l4.08 3.21s-4.18 10.91 7.04 7.59"/><path fill="#FFF" d="M77.275 111.81s.69 1.067 4.348-.43c3.657-1.495-4.348 8.554-4.348 8.554v-8.125zm36.482 22.93s12.4-20.58 12.29-23.51l19.166-6.137 24.834 9.146-7.268 36.88-16.7 12.61-14.53 12.33-21.01-13.75 2.19-3.15-.87-18.96 1.88-5.49z"/><path fill="#D0D2D3" d="M114.946 138.717s7.07-11.55 8.496-21.498l8.11 4.55-2.368 15.98-6.6 3.31-7.638-2.36zm-36.503-71.63s-8.908-16.202 7.63-10.573c16.54 5.627-7.63 10.574-7.63 10.574z"/><path fill="#919496" d="M81.563 62.617s-7.927-8.002-2.227 2.71c5.7 10.713 2.227-2.71 2.227-2.71zm74.423-3.023l4.64 10.15s14.27-17.752-4.64-10.15z"/><path fill="#FFF" d="M165.03 74.985c-3.015-17.81-21.792-31.527-44.52-31.527-24.83 0-44.96 16.37-44.96 36.56s20.128 36.56 44.96 36.56c.932 0 1.855-.028 2.775-.075.995 4.34 1.827 11.07-1.18 15.146 0 0-20.624 15.42-10.1 30.06-.014-.11-2.708-25.67 16.97-30.22l-3.57-16.11s7.435-1.75 16.12-5.58v20.16s-20.762 24.24-9.003 40.66c20.56-.63 61.938-11.63 32.51-95.65z"/><path fill="#D0D2D3" d="M141.525 129.977V109.81c-8.686 3.833-16.12 5.58-16.12 5.58l3.57 16.105c-19.678 4.55-16.984 30.114-16.97 30.222 2.052 2.86 3.083 3.828 7.896 6.508 0 0 6.49 2.596 12.62 2.41-11.75-16.414 9.01-40.658 9.01-40.658z"/><ellipse fill="#D0D2D3" cx="113.757" cy="80.823" rx="38.206" ry="28.985"/><path fill="#D0D2D3" d="M151.763 57.514s-.437 3.754 3.058 4.276c0 0 17.11-5.587 4.63 9.43 0 0-1.39 2.27 1.49 4.276 0 0 11.52-9.865 7.86-17.373 0 0-2.79-8.203-17.02-.61z"/><ellipse fill="#FFF" cx="94.246" cy="74.313" rx="14.935" ry="14.721"/><circle fill="#0071BC" cx="95.41" cy="75.22" r="10.974"/><path fill="#0F4481" d="M94.62 77.984c-2.038-2.355-1.78-5.914.572-7.95s5.91-1.78 7.95.574c2.037 2.353 1.78 5.913-.574 7.948-2.35 2.038-5.91 1.78-7.948-.572z"/><path fill="#FFF" d="M97.903 76.256c-1.083-1.252-.946-3.143.304-4.225s3.142-.94 4.226.31c1.082 1.25.944 3.15-.307 4.23-1.25 1.08-3.14.95-4.223-.3z"/><circle fill="#FFF" cx="93.343" cy="73.519" r="1.458"/><ellipse fill="#FFF" cx="128.975" cy="74.645" rx="18.436" ry="18.313"/><circle fill="#0071BC" cx="131.543" cy="74.54" r="12.655"/><path fill="#0F4481" d="M130.633 77.727c-2.352-2.717-2.055-6.82.66-9.166 2.713-2.34 6.814-2.05 9.167.67 2.35 2.72 2.053 6.82-.662 9.17-2.712 2.35-6.816 2.05-9.165-.66z"/><path fill="#FFF" d="M134.418 75.734c-1.25-1.444-1.092-3.623.352-4.87 1.44-1.248 3.62-1.095 4.87.35 1.25 1.442 1.09 3.624-.353 4.872-1.442 1.248-3.62 1.088-4.87-.352z"/><circle fill="#FFF" cx="129.158" cy="72.58" r="1.682"/><path fill="#6C6F71" d="M112.738 107.742s-.977-2.955-4.014-2.703c0 0 .81-.89 4.014-2.26 0 0-2.835.27-4.772 1.81 0 0-4.843 3.71-2.792-2.16 0 0-4.395 7.12 3.215 3.13 0 0 2.34.45 4.34 2.16z"/><path fill="#BE1E2D" d="M107.413 97.203s-4.136 11.965 2.083 4.215c0 0 1.66-2.343 5.877-2.654 0 0-18.927-8.58-7.96-1.56z"/><path fill="#D0D2D3" d="M149.525 113.57l-2.115 54.705 8.576-3.675 6.793-47.38-2.16-1.97-8.66 51.073"/><path fill="#6C6F71" d="M106.75 91.31l.497 3.134s9.782 7.156 12.08 1.492l-.855-2.192 2.937 3.763-1.76-1.09s.26 6.948-12.51-1.115c0 0-5.88-2.367-.7 1.27 0 0-8.61-3.897-.27-2.454l-.33-2.404.9-.403z"/><path fill="#1D8FCD" d="M102.203 89.79s3.322-6.76 4.547-3.19c0 0 2.745-4.02 2.745 2.435 0 0-2.602 1.774-2.745 3.924 0-.01-2.692-1.08-4.547-3.17z"/><path fill="#FFF" d="M106.75 91.31s.17-.913 1.455-1.823c0 0-.476-1.748-1.454 1.824z"/><path fill="#ACAFB1" d="M80.093 79.016s12.525-5.514 27.635 2.273c0 0-.982 7.28-13.943 7.87 0 0-9.578.5-13.692-10.15zm31.78 2.466s10.835-7.38 34.207 0c0 0-3.89 13.542-17.262 12.048-.002 0-13.507-.288-16.944-12.048z"/><path fill="#D0D2D3" d="M78.33 112.88l-1.055 3.206s-6.458 3.036-1.124 7.717c0 0-6.02-4.323.04-7.717l2.15-3.207zm-2.778 11.864s-.336 2.887 4.375 12.293l-4.375-12.293z"/><path fill="#FFD200" d="M160.548 187.337v-12.583m-97.828 4.598c-.678 0-1.316-.17-1.875-.466-.56.297-1.198.466-1.876.466H39.61c-2.208 0-4-1.79-4-4v-43.498c0-2.21 1.792-4 4-4h19.36c.678 0 1.316.17 1.876.466.56-.297 1.197-.466 1.875-.466h19.36c2.21 0 4 1.79 4 4v43.498c0 2.21-1.79 4-4 4H62.72z"/><path fill="#F47F38" d="M82.077 131.854v43.498H62.72V156.59h-3.75v18.762H39.61v-43.498h19.36v17.917h3.75v-17.91h19.36z"/><path fill="#FFD200" d="M108.507 180.415c-3.563 0-6.66-.193-9.2-.576-2.65-.4-4.84-.93-6.69-1.61-2.034-.75-3.643-1.64-4.913-2.73-1.272-1.08-2.263-2.27-2.944-3.53-.684-1.26-1.115-2.58-1.28-3.91-.127-1-.19-1.95-.19-2.84v-23.34c0-.9.064-1.85.19-2.84.167-1.32.602-2.64 1.292-3.89.683-1.25 1.676-2.42 2.95-3.5 1.27-1.07 2.88-1.95 4.915-2.69 1.85-.67 4.035-1.19 6.687-1.58 2.545-.38 5.635-.56 9.185-.56 3.53 0 6.61.18 9.15.56 2.65.39 4.84.9 6.68 1.57 2.03.74 3.63 1.61 4.91 2.67 1.29 1.07 2.29 2.25 2.98 3.51.68 1.24 1.11 2.53 1.3 3.84.14 1.01.21 1.98.21 2.88v23.35c0 .9-.07 1.87-.21 2.89-.18 1.31-.62 2.61-1.29 3.86-.69 1.26-1.69 2.45-2.98 3.54-1.28 1.08-2.89 1.96-4.92 2.71-1.85.68-4.04 1.21-6.69 1.6-2.55.39-5.63.58-9.18.58z"/><path fill="#F47F38" d="M108.507 176.415c-3.38 0-6.247-.177-8.604-.53-2.358-.355-4.324-.824-5.898-1.406-1.575-.59-2.812-1.26-3.71-2.02s-1.57-1.56-2.018-2.39c-.45-.83-.726-1.66-.83-2.5-.105-.84-.158-1.62-.158-2.35v-23.34c0-.73.05-1.51.15-2.34.1-.83.38-1.65.83-2.47.45-.82 1.12-1.61 2.02-2.36.89-.76 2.13-1.42 3.71-1.99 1.57-.58 3.54-1.03 5.9-1.38 2.35-.35 5.22-.52 8.6-.52 3.36 0 6.22.17 8.57.52 2.36.34 4.32.8 5.9 1.37 1.57.57 2.81 1.24 3.72 1.99.9.75 1.58 1.54 2.03 2.36.45.82.73 1.64.84 2.47.11.82.17 1.6.17 2.33v23.34c0 .73-.06 1.51-.18 2.34-.11.84-.39 1.67-.84 2.49-.45.83-1.13 1.62-2.04 2.38-.91.77-2.15 1.44-3.72 2.02-1.58.58-3.54 1.05-5.9 1.41-2.36.35-5.22.53-8.58.53zm-1.86-7.418h3.75v-30.844h-3.75v30.844z"/><path fill="#FFD200" d="M134.966 179.352c-2.21 0-4-1.79-4-4v-43.498c0-2.21 1.79-4 4-4h19.357c2.21 0 4 1.79 4 4v32.844h6.395c2.21 0 4 1.79 4 4v6.654c0 2.21-1.79 4-4 4h-29.752z"/><path fill="#F47F38" d="M134.966 175.352v-43.498h19.357v36.844h10.395v6.654h-29.752z"/><path fill="#FFD200" d="M192.438 179.352c-1.992 0-3.68-1.466-3.96-3.438l-.05-.342-.048.342c-.28 1.973-1.968 3.438-3.96 3.438h-19.07c-1.22 0-2.37-.556-3.13-1.508-.76-.953-1.042-2.2-.77-3.388l9.993-43.498c.417-1.816 2.034-3.104 3.898-3.104h26.18c1.87 0 3.48 1.287 3.9 3.104l10 43.498c.27 1.188-.01 2.435-.77 3.387-.76.953-1.91 1.51-3.13 1.51h-19.07z"/><path fill="#F47F38" d="M185.766 165.86l-1.346 9.49h-19.07l9.992-43.497h26.173l9.994 43.498h-19.08l-1.35-9.49h-5.33zm.858-6.27h3.608l-1.804-11.537-1.804 11.536z"/></svg>