<?xml version="1.0" encoding="utf-8"?>
<!-- Generator: Adobe Illustrator 16.0.0, SVG Export Plug-In . SVG Version: 6.00 Build 0)  -->
<!DOCTYPE svg PUBLIC "-//W3C//DTD SVG 1.1//EN" "http://www.w3.org/Graphics/SVG/1.1/DTD/svg11.dtd">
<svg version="1.1" id="Layer_1" xmlns="http://www.w3.org/2000/svg" xmlns:xlink="http://www.w3.org/1999/xlink" x="0px" y="0px"
	 width="250px" height="250px" viewBox="0 0 250 250" enable-background="new 0 0 250 250" xml:space="preserve">
<path fill="#BEDB8F" d="M123.514,106.99l-0.153-0.263l-0.001,0l0,0l0,0l-0.373-0.104l0-0.001
	c-24.359,1.882-39.276,3.14-53.541,8.088c-0.114,0.04-0.25,0.086-0.405,0.14c-0.011,0.004-0.025,0.009-0.037,0.013
	c-0.146,0.05-0.305,0.105-0.484,0.168c-0.038,0.013-0.085,0.03-0.125,0.044c-0.161,0.057-0.327,0.115-0.511,0.181
	c-0.058,0.021-0.125,0.045-0.185,0.067c-0.174,0.063-0.349,0.126-0.541,0.197c-0.104,0.038-0.221,0.083-0.331,0.124
	c-0.164,0.061-0.324,0.121-0.498,0.187c-0.14,0.053-0.292,0.112-0.438,0.169c-0.156,0.061-0.307,0.118-0.47,0.183
	c-0.174,0.068-0.36,0.144-0.543,0.218c-0.152,0.061-0.299,0.119-0.457,0.184c-0.196,0.08-0.402,0.167-0.606,0.252
	c-0.155,0.065-0.305,0.126-0.464,0.194c-0.219,0.093-0.448,0.193-0.675,0.292c-0.156,0.068-0.308,0.133-0.467,0.204
	c-0.236,0.105-0.481,0.217-0.725,0.328c-0.16,0.073-0.316,0.143-0.479,0.218c-0.251,0.116-0.509,0.239-0.766,0.361
	c-0.165,0.078-0.327,0.154-0.495,0.235c-0.264,0.128-0.535,0.263-0.805,0.397c-0.168,0.083-0.333,0.165-0.503,0.25
	c-0.276,0.14-0.557,0.286-0.838,0.432c-0.171,0.089-0.341,0.176-0.515,0.268c-0.286,0.151-0.575,0.309-0.865,0.468
	c-0.173,0.095-0.346,0.188-0.521,0.285c-0.294,0.164-0.591,0.334-0.889,0.505c-0.176,0.101-0.351,0.2-0.528,0.304
	c-0.299,0.175-0.601,0.356-0.903,0.539c-0.123,0.074-0.245,0.144-0.368,0.22l0,0c-0.002,0.001-0.003,0.002-0.005,0.003
	c-0.001,0-0.002,0.001-0.003,0.001l0,0c-6.158,3.771-12.746,9.078-17.45,16.28c-0.031,0.048-0.062,0.098-0.093,0.146
	c-0.181,0.278-0.364,0.559-0.539,0.844c-0.106,0.175-0.211,0.351-0.315,0.527c-0.288,0.483-0.572,0.973-0.843,1.475
	c-0.013,0.025-0.025,0.05-0.038,0.074c-0.646,1.209-1.24,2.461-1.769,3.765l-0.007,0.356c0,0,6.708,4.748,19.696,8.107
	c-1.509-2.686-2.47-5.645-2.749-8.797c-0.267-3.018,0.097-6.021,1.083-8.945c-0.002-0.004-0.003-0.007-0.005-0.01
	c-0.051-0.068-3.063-4.239-1.409-7.395c0,0,1.005-2.311,5.841-1.099c0.06,0.015,0.117,0.028,0.172,0.044
	c0.088,0.021,0.168,0.037,0.258,0.063l-0.001,0.005h0.001c1.388-1.613,2.968-3.078,4.702-4.384c0.001,0,0.002,0,0.003,0
	c5.081-3.823,11.497-6.254,18.403-6.866c9.058-0.802,17.879,1.637,24.333,6.699c6.191-3.577,9.563-0.603,9.563-0.603
	c0.166,0.16,0.312,0.323,0.458,0.486c5.984-1.091,11.922-2.661,17.541-4.867v0c-5.619,2.206-11.557,3.776-17.542,4.867
	c2.882,3.237,1.771,7.03,0.322,9.649c4.016,5.118,6.93,11.176,8.349,17.846c0.366,1.722,0.638,3.479,0.797,5.279
	c0.141,1.584,0.192,3.153,0.164,4.709c0.005,2.031-0.128,4.229-0.47,6.545c-0.455,3.137-1.347,6.473-2.685,9.842c0,0,0,0-0.001,0
	c-0.017,0.041-0.029,0.084-0.046,0.127c-0.705,1.697-1.498,3.418-2.465,5.088c-0.937,1.688-2.032,3.335-3.246,4.93
	c-2.419,3.202-5.386,6.157-8.774,8.664c-1.689,1.264-3.507,2.373-5.376,3.396c-1.882,1.008-3.852,1.854-5.858,2.604
	c-2.019,0.695-4.087,1.298-6.181,1.717c-2.095,0.397-4.205,0.694-6.315,0.793c-4.215,0.211-8.391-0.188-12.3-1.13
	c-1.957-0.466-3.852-1.046-5.653-1.758c-1.813-0.681-3.521-1.507-5.148-2.374c-3.232-1.777-6.088-3.822-8.466-5.994
	c-2.385-2.166-4.332-4.406-5.883-6.517c-1.561-2.101-2.705-4.089-3.569-5.757c-0.214-0.418-0.416-0.815-0.605-1.188
	c-0.173-0.383-0.334-0.739-0.485-1.071c-0.302-0.666-0.552-1.233-0.723-1.709c-0.364-0.938-0.558-1.439-0.558-1.439l-0.108-0.28
	c-0.453-1.168-0.424-2.394-0.046-3.491c0-0.001-0.001-0.002-0.001-0.003c0.473-1.37,1.502-2.542,2.961-3.106
	c2.628-1.019,5.583,0.289,6.601,2.916c0.071,0.182,0.131,0.369,0.179,0.554c0,0,0.104,0.403,0.304,1.162
	c0.087,0.385,0.231,0.846,0.406,1.388c0.087,0.271,0.179,0.567,0.278,0.879c0.114,0.309,0.237,0.635,0.365,0.979
	c0.524,1.38,1.237,3.041,2.286,4.845c1.042,1.808,2.381,3.786,4.135,5.742c0.01,0.011,0.021,0.021,0.031,0.03
	c8.244,3.652,19.133,5.021,33.482,1.802c-2.573-2.14-4.337-5.249-4.655-8.839c-0.411-4.635,1.639-9.043,5.386-11.717l-0.662-0.974
	c-1.813,0.437-3.674,0.739-5.546,0.904c-13.451,1.192-25.569-4.808-30.874-14.238c-12.989-3.36-19.696-8.108-19.696-8.108
	l0.007-0.355c-0.153,0.378-0.295,0.771-0.441,1.158c-0.088,0.236-0.181,0.469-0.266,0.71c-0.137,0.389-0.264,0.788-0.392,1.188
	c-0.064,0.199-0.134,0.393-0.197,0.596c-0.005,0.018-0.01,0.031-0.015,0.047c-0.04,0.132-0.074,0.27-0.112,0.4
	c-0.11,0.371-0.216,0.75-0.318,1.131c-0.027,0.102-0.057,0.195-0.083,0.297s-0.052,0.203-0.077,0.305
	c-0.061,0.238-0.115,0.488-0.173,0.732c-0.079,0.332-0.161,0.658-0.234,0.996c-0.011,0.053-0.025,0.104-0.036,0.154
	c0.001,0.005,0.002,0.012,0.003,0.018c0,0.001,0,0.004,0.001,0.005c-0.161,0.765-0.317,1.532-0.451,2.331
	c-2.232,13.394,3.207,31.232,16.703,42.41c10.357,8.578,25.463,13.229,45.498,8.926c4.877-1.047,10.043-2.621,15.507-4.803
	c6.716-2.683,12.623-5.584,17.792-8.635l38.04-18.363l0.417-0.563L123.514,106.99z M154.438,162.175l-3.287,1.599
	c0,0-1.143-2.002-2.811-4.901c-2.676,1.869-5.289,3.636-7.847,5.313l1.442,2.481l-0.25,1.073l-4.498,1.753l-1.315-2.339h-0.001
	l-10.146-18.028l-11.647-20.694l0.541-1.018l4.565-0.643l7.396,12.857c0.276-0.797,1.104-2.136,3.573-3.449
	c-0.002,0.006-0.002,0.012-0.002,0.019c0.338-0.191,0.713-0.36,1.136-0.497c3.682-1.192,8.012,0.604,12.101,6.748
	c0.2-0.086,0.396-0.165,0.597-0.252l8.142,14.002c-0.123,0.089-0.242,0.17-0.365,0.258c1.69,2.902,2.877,4.967,2.877,4.967
	L154.438,162.175z"/>
<g id="Layer_1_1_">
</g>
<path opacity="0.15" enable-background="new    " d="M40.167,97.012v6h24.171c1.281-2.069,2.658-4.072,4.129-6H40.167z"/>
<path opacity="0.15" enable-background="new    " d="M200.225,156.945c-0.639,3.098-1.461,6.128-2.469,9.074
	c2.458,0.787,4.751,1.937,6.84,3.359c0.633-2.107,1.18-4.254,1.629-6.438l20.573-9.933c0,0,0,0-20.181-38.252
	c-1.008-0.105-2.004-0.207-2.996-0.306c17.164,32.533,17.177,32.558,17.177,32.558L200.225,156.945z"/>
<path opacity="0.15" enable-background="new    " d="M210.5,97.012l-18.419,8.39c0.497,0.875,0.978,1.759,1.44,2.655
	c0.097,0.009,0.192,0.019,0.291,0.028c0.069,0.006,0.142,0.013,0.213,0.02c0.724,0.069,1.453,0.14,2.187,0.212
	c0.089,0.009,0.179,0.018,0.269,0.026c0.27,0.026,0.535,0.052,0.807,0.079c0.003,0,0.006,0,0.009,0.001
	c1.103,0.109,2.206,0.222,3.323,0.339c0.218,0.412,0.419,0.794,0.632,1.198l15.251-6.947v-3.178V35.5v-0.667h-6v59L210.5,97.012
	L210.5,97.012z"/>
<path opacity="0.15" enable-background="new    " d="M166.759,205.016c-11.392,7.111-24.841,11.234-39.259,11.234
	c-13.122,0-25.44-3.417-36.138-9.391c-20.036,4.303-35.142-0.35-45.5-8.928c10.118,12.176,27.176,20.149,51.5,14.928
	c10.697,5.974,23.016,9.391,36.138,9.391c14.143,0,27.348-3.975,38.6-10.839C170.003,209.576,168.195,207.419,166.759,205.016z"/>
<path opacity="0.15" enable-background="new    " d="M211.191,175.777c3.178,4.385,5.059,9.769,5.059,15.598
	c0,14.705-11.92,26.625-26.625,26.625c-5.818,0-11.193-1.878-15.574-5.047c4.836,6.688,12.69,11.047,21.574,11.047
	c14.705,0,26.625-11.92,26.625-26.625C222.25,188.482,217.891,180.611,211.191,175.777z"/>
<path fill="#5A5D60" d="M186.532,97.012c2.032,2.661,3.886,5.464,5.549,8.39l18.419-8.39H186.532z"/>
<path fill="#34A1BE" d="M57.6,119.746c0.281-0.146,0.562-0.292,0.838-0.432c0.17-0.086,0.335-0.167,0.503-0.25
	c0.271-0.135,0.541-0.269,0.805-0.397c0.167-0.081,0.33-0.157,0.495-0.235c0.257-0.122,0.515-0.245,0.766-0.361
	c0.163-0.076,0.319-0.146,0.479-0.218c0.244-0.111,0.489-0.223,0.725-0.328c0.159-0.07,0.312-0.136,0.467-0.204
	c0.227-0.099,0.456-0.199,0.675-0.292c0.159-0.068,0.309-0.129,0.464-0.194c0.204-0.085,0.41-0.172,0.606-0.252
	c0.158-0.064,0.305-0.123,0.457-0.184c0.183-0.074,0.369-0.149,0.543-0.218c0.164-0.064,0.314-0.122,0.47-0.183
	c0.146-0.057,0.298-0.116,0.438-0.169c0.174-0.066,0.334-0.126,0.498-0.187c0.11-0.041,0.226-0.085,0.331-0.124
	c0.192-0.071,0.366-0.134,0.541-0.197c0.06-0.021,0.127-0.046,0.185-0.067c0.184-0.066,0.35-0.124,0.511-0.181
	c0.04-0.014,0.086-0.031,0.125-0.044c0.179-0.063,0.338-0.118,0.484-0.168c0.012-0.004,0.026-0.009,0.037-0.013
	c0.155-0.053,0.291-0.1,0.405-0.14c14.265-4.948,29.181-6.206,53.541-8.088c0.012,0,0.022-0.002,0.033-0.002
	c0.001,0,0.002,0,0.003,0c0.326-0.025,0.659-0.049,0.989-0.073c0.049-0.003,0.098-0.007,0.147-0.011
	c0.15-0.011,0.3-0.021,0.45-0.032c0.475-0.034,0.954-0.066,1.436-0.099c0.008,0,0.018-0.001,0.025-0.001
	c0.287-0.019,0.574-0.038,0.863-0.057c0.043-0.002,0.084-0.005,0.125-0.007c0.248-0.016,0.498-0.03,0.746-0.045
	c0.082-0.005,0.16-0.01,0.241-0.015c0.302-0.017,0.604-0.035,0.905-0.052c0.042-0.002,0.085-0.004,0.127-0.007
	c1.007-0.056,2.027-0.107,3.064-0.153c0.002,0,0.004,0,0.008,0c0.111-0.005,0.228-0.01,0.341-0.015
	c0.796-0.035,1.601-0.066,2.414-0.096c0.129-0.004,0.258-0.009,0.387-0.014c0.011,0,0.019,0,0.024-0.001
	c0.354-0.012,0.707-0.026,1.064-0.037c0.02,0,0.038-0.001,0.059-0.002c0.355-0.011,0.72-0.02,1.078-0.03
	c0.543-0.015,1.09-0.03,1.644-0.042c0.155-0.004,0.313-0.007,0.472-0.011c0.385-0.008,0.768-0.017,1.154-0.024
	c0.023,0,0.053-0.001,0.078-0.001c0.256-0.004,0.516-0.008,0.771-0.012c0.102-0.001,0.199-0.003,0.299-0.005
	c0.388-0.005,0.772-0.012,1.162-0.017c0.035,0,0.072,0,0.109-0.001c0.662-0.008,1.333-0.013,2.006-0.017
	c0.083,0,0.165-0.001,0.248-0.002c0.01,0,0.018,0,0.025,0c0.359-0.002,0.719-0.003,1.078-0.004c0.025,0,0.053,0,0.078,0
	c0.33,0,0.664,0,0.998,0c0.453,0,0.904,0,1.362,0.002c0.021,0,0.039,0,0.06,0c0.23,0.001,0.465,0.003,0.697,0.004
	c0.586,0.003,1.17,0.007,1.764,0.013c0.002,0,0.002,0,0.005,0c0.175,0.001,0.352,0.004,0.526,0.007
	c1.09,0.012,2.193,0.03,3.312,0.051c0.386,0.007,0.769,0.013,1.155,0.022c0.004,0,0.01,0,0.014,0
	c0.205,0.004,0.415,0.01,0.621,0.015c0.078,0.002,0.156,0.004,0.234,0.006c0.582,0.014,1.164,0.027,1.754,0.044
	c0.035,0.001,0.068,0.002,0.104,0.003c0.227,0.007,0.455,0.014,0.684,0.021c0.104,0.003,0.209,0.006,0.314,0.01
	c0.484,0.015,0.971,0.03,1.46,0.047c0.421,0.014,0.845,0.03,1.271,0.045c0.006,0,0.013,0,0.019,0
	c0.515,0.019,1.024,0.038,1.546,0.059c0.038,0.001,0.077,0.003,0.115,0.005c0.326,0.013,0.654,0.027,0.984,0.041
	c0.037,0.002,0.074,0.003,0.111,0.005c0.444,0.019,0.895,0.039,1.344,0.06c0.428,0.019,0.854,0.038,1.284,0.059
	c0.056,0.003,0.11,0.005,0.166,0.008c0.552,0.028,1.109,0.056,1.667,0.084c0.053,0.003,0.106,0.006,0.159,0.008
	c0.333,0.018,0.666,0.034,1.002,0.052c0.001,0,0.002,0,0.004,0c0.63,0.034,1.263,0.07,1.896,0.107
	c0.02,0.001,0.035,0.002,0.056,0.003c0.507,0.029,1.017,0.06,1.526,0.091c0.769,0.046,1.535,0.093,2.314,0.144
	c0.133,0.009,0.266,0.019,0.398,0.028c0.33,0.022,0.664,0.046,0.996,0.068c0.531,0.036,1.061,0.071,1.597,0.108
	c0.028,0.002,0.06,0.004,0.088,0.006c0.296,0.021,0.597,0.044,0.894,0.065c0.03,0.002,0.063,0.004,0.094,0.007
	c0.654,0.047,1.311,0.096,1.972,0.146c0.019,0.001,0.034,0.003,0.054,0.004c0.315,0.024,0.637,0.05,0.957,0.075
	c0.07,0.005,0.143,0.011,0.215,0.017c0.354,0.027,0.709,0.057,1.063,0.085c0.674,0.054,1.35,0.109,2.029,0.166
	c0.025,0.002,0.053,0.004,0.076,0.006c0.627,0.053,1.258,0.106,1.894,0.162c0.045,0.004,0.091,0.008,0.136,0.012
	c0.366,0.032,0.733,0.064,1.104,0.097c0.02,0.002,0.039,0.003,0.061,0.005c0.651,0.058,1.307,0.118,1.962,0.179
	c0.063,0.006,0.128,0.012,0.19,0.018c0.193,0.018,0.383,0.034,0.576,0.052c-0.463-0.896-0.943-1.78-1.44-2.655
	c-1.663-2.926-3.517-5.729-5.549-8.39H68.467c-1.472,1.928-2.848,3.931-4.129,6c-3.319,5.361-5.974,11.172-7.852,17.325
	c0.201-0.109,0.401-0.217,0.6-0.322C57.258,119.922,57.428,119.835,57.6,119.746z"/>
<path fill="#34A1BE" d="M216.25,191.375c0-5.829-1.881-11.213-5.059-15.598c-1.812-2.496-4.045-4.657-6.596-6.396
	c-2.091-1.425-4.384-2.574-6.842-3.361c1.008-2.944,1.83-5.977,2.469-9.074l-24.449,11.806l0.199,0.424l2.707-1.274l1.25,2.641
	l-0.005,0.002l0.031,0.066l2.543-1.199l1.285,2.684l2.771-1.283l1.198,2.539l2.509-1.102l1.271,2.507l0,0l0.108,0.218l2.621-1.258
	l1.172,2.436h-0.002l0.039,0.084l2.733-1.271l1.224,2.503l-0.005,0.002l0.138,0.281l2.479-1.161l1.147,2.435l2.763-1.336
	l1.396,2.961l1.049,2.225l-0.002,0.001l0.002,0.003l-7.293,3.438l-3.442,1.625l0.021,0.045l1.256,2.666h-0.002l0.049,0.103
	l2.793-1.278l2.455,5.344l2.646-1.207l2.383,5.052l-2.615,1.299l1.363,2.726l-5.216,2.463l-1.458-2.912l-2.713,1.146l-2.49-5.067
	l-2.408,1.133l-2.469-5.225l-0.331,0.156l0.005,0.008l-2.142,1.014V195.4l-0.271,0.129l0.154,0.33h0.003l1.17,2.479l-2.864,1.361
	l1.155,2.468l-2.603,1.243l1.35,2.863l-3.009,1.42l-0.065-0.131l-2.004,0.942l-16.394-34.745l-2.714,1.311l-38.039,18.363
	c-5.169,3.051-11.076,5.952-17.792,8.635c-5.463,2.182-10.63,3.756-15.507,4.803c10.697,5.975,23.016,9.391,36.138,9.391
	c14.418,0,27.866-4.123,39.259-11.234c1.438,2.404,3.244,4.563,5.342,6.396c0.622,0.547,1.277,1.057,1.95,1.542
	c4.382,3.169,9.757,5.048,15.574,5.048C204.33,218,216.25,206.08,216.25,191.375z"/>
<path fill="#FFFFFF" d="M186.532,97.012H210.5v-3.178v-59V29.5v-0.667H34.167v68.178h6h28.3h118.065V97.012z M70.892,66.557H60.41
	v-32.75h10.482V66.557z M58.548,75.748c-0.747,0-1.121,0.543-1.121,1.628v11.365h-5.291V77.194c0-2.024,0.605-3.646,1.817-4.862
	c1.212-1.215,2.826-1.825,4.842-1.825c2.007,0,3.543,0.59,4.608,1.771C64.468,73.462,65,75.161,65,77.376v11.365h-5.292V77.376
	C59.708,76.291,59.322,75.748,58.548,75.748z M55.71,45.513h2.917v8.639H55.71v12.405H45.229v-32.75H55.71V45.513z M44.65,70.952
	h5.292v17.789H44.65V70.952z M80.002,76.06h-4.041v12.681H70.67V76.06h-4.053v-5.108h13.385V76.06z M91.784,76.06h-3.376
	c-0.913,0-1.367,0.296-1.367,0.887c0,0.348,0.107,0.587,0.325,0.723c0.217,0.134,0.604,0.202,1.161,0.202h2.919v3.962h-3.453
	c-0.471,0-0.802,0.07-0.998,0.209c-0.196,0.138-0.294,0.373-0.294,0.702c0,0.375,0.101,0.621,0.301,0.738
	c0.199,0.117,0.608,0.175,1.225,0.175h3.558v5.082h-4.158c-1.956,0-3.449-0.466-4.484-1.4c-1.033-0.935-1.55-2.283-1.55-4.047
	v-6.972c0-1.704,0.488-3.025,1.466-3.963s2.353-1.407,4.125-1.407h4.601L91.784,76.06L91.784,76.06z M91.906,43.377
	c-0.326-0.493-0.913-0.744-1.756-0.744c-1.635,0-2.452,1.136-2.452,3.408v4.08h3.021v8.638h-3.021v7.797H77.217V45.729
	c0-4.032,1.183-7.164,3.549-9.396c2.366-2.229,5.692-3.346,9.979-3.346c4.131,0,7.185,1.012,9.163,3.035
	c1.98,2.023,2.972,5.146,2.972,9.372v21.163H92.396V46.042C92.396,44.761,92.235,43.873,91.906,43.377z M102.463,88.741
	l-2.568-5.734v-4.574h0.417c1.113,0,1.669-0.478,1.669-1.435c0-0.842-0.643-1.263-1.929-1.263h-0.939V88.74h-5.291V70.952h6.79
	c2.067,0,3.671,0.512,4.809,1.536c1.27,1.149,1.904,2.604,1.904,4.368c0,1.798-0.788,3.315-2.359,4.55l3.051,7.336L102.463,88.741
	L102.463,88.741z M122.287,88.741h-5.291V77.376c0-1.085-0.387-1.628-1.161-1.628c-0.746,0-1.119,0.543-1.119,1.628v11.365h-5.294
	V77.194c0-2.024,0.608-3.646,1.819-4.862c1.211-1.215,2.827-1.825,4.842-1.825c2.007,0,3.543,0.59,4.607,1.771
	c1.064,1.183,1.597,2.882,1.597,5.097V88.741z M134.335,76.06h-3.376c-0.911,0-1.368,0.296-1.368,0.887
	c0,0.348,0.108,0.587,0.324,0.723c0.22,0.134,0.604,0.202,1.161,0.202h2.921v3.962h-3.455c-0.469,0-0.802,0.07-0.997,0.209
	c-0.195,0.138-0.294,0.373-0.294,0.702c0,0.375,0.103,0.621,0.299,0.738c0.201,0.117,0.607,0.175,1.229,0.175h3.557v5.082h-4.158
	c-1.955,0-3.449-0.466-4.482-1.4c-1.033-0.935-1.55-2.283-1.55-4.047v-6.972c0-1.704,0.488-3.025,1.464-3.963
	c0.979-0.938,2.354-1.407,4.127-1.407h4.602v5.109H134.335z M131.33,52.498c-1.998,1.84-5.01,2.759-9.036,2.759l-1.601-0.025v-8.591
	c2.118,0,3.174-0.751,3.174-2.255c0-1.375-0.809-2.063-2.426-2.063c-1.634,0-2.453,0.945-2.453,2.832v21.403h-10.481V46.161
	c0-2.113,0.228-3.844,0.683-5.195c0.457-1.352,1.236-2.611,2.338-3.777c1.236-1.296,2.788-2.321,4.646-3.074
	c1.858-0.752,3.779-1.127,5.758-1.127c3.58,0,6.587,1.122,9.021,3.36c2.438,2.239,3.654,5.015,3.654,8.324
	C134.609,47.891,133.516,50.495,131.33,52.498z M150.154,76.06h-4.04v12.681h-5.294V76.06h-4.053v-5.108h13.387V76.06z
	 M150.407,55.232v-8.591c2.118,0,3.176-0.751,3.176-2.255c0-1.375-0.81-2.063-2.429-2.063c-1.635,0-2.45,0.945-2.45,2.832v21.403
	h-10.483V46.161c0-2.113,0.229-3.844,0.684-5.195c0.461-1.352,1.234-2.611,2.341-3.777c1.239-1.296,2.784-2.321,4.646-3.074
	c1.859-0.752,3.777-1.127,5.754-1.127c3.58,0,6.592,1.122,9.026,3.36c2.435,2.239,3.651,5.015,3.651,8.324
	c0,3.22-1.094,5.824-3.278,7.827c-1.993,1.84-5.008,2.759-9.036,2.759L150.407,55.232z M165.113,91.505
	c-0.338,0-0.889-0.019-1.657-0.06v-6.058h0.89c3.25,0,4.875-1.497,4.875-4.488c0-2.811-1.598-4.214-4.791-4.214h-1.881v14.698
	h-5.574V70.765h7.262c3.188,0,5.681,0.795,7.48,2.386c2.145,1.903,3.215,4.486,3.215,7.749c0,3.123-0.916,5.67-2.746,7.644
	C170.355,90.519,167.998,91.505,165.113,91.505z M184.979,76.791c-0.172-0.312-0.483-0.468-0.932-0.468
	c-0.871,0-1.305,0.714-1.305,2.146v2.568h1.604v5.437h-1.604v4.909h-5.575V78.271c0-2.538,0.63-4.509,1.888-5.915
	c1.26-1.403,3.027-2.107,5.307-2.107c2.197,0,3.82,0.636,4.875,1.912c1.053,1.273,1.578,3.24,1.578,5.9v13.322h-5.572V78.469
	C185.24,77.662,185.152,77.103,184.979,76.791z M191.184,70.765h5.656l2.414,4.245l2.596-4.245h5.545l-5.297,9.167v11.451h-5.574
	V79.932L191.184,70.765z M183.529,48.367v18.19h-10.482v-18.19l-10.041-14.561h10.637l4.545,6.74l4.877-6.74H193.5L183.529,48.367z"
	/>
<path opacity="0.85" fill="#FFFFFF" enable-background="new    " d="M34.225,140.77c0.112-0.193,0.23-0.383,0.346-0.576
	C34.456,140.387,34.337,140.574,34.225,140.77z"/>
<path opacity="0.85" fill="#FFFFFF" enable-background="new    " d="M32.709,143.697c-0.003,0.008-0.007,0.017-0.011,0.021
	c-0.158,0.344-0.311,0.689-0.462,1.04c-0.004,0.013-0.01,0.022-0.014,0.033c-0.04,0.092-0.076,0.188-0.115,0.28
	c0.237-0.565,0.482-1.119,0.738-1.659C32.8,143.51,32.754,143.602,32.709,143.697z"/>
<path opacity="0.85" fill="#FFFFFF" enable-background="new    " d="M33.205,142.668c-0.002,0.004-0.005,0.008-0.006,0.014
	c-0.037,0.072-0.071,0.147-0.106,0.221c0.119-0.24,0.246-0.473,0.368-0.709C33.377,142.354,33.287,142.505,33.205,142.668z"/>
<path opacity="0.85" fill="#FFFFFF" enable-background="new    " d="M29.652,152.975c-0.014,0.063-0.029,0.125-0.042,0.188
	c0,0.003,0,0.005-0.001,0.007c0.011-0.053,0.025-0.102,0.036-0.154C29.647,153.002,29.649,152.988,29.652,152.975z"/>
<path opacity="0.85" fill="#FFFFFF" enable-background="new    " d="M30.643,149.152c-0.02,0.064-0.042,0.131-0.062,0.197
	c-0.005,0.017-0.01,0.032-0.015,0.049c-0.043,0.145-0.083,0.291-0.124,0.438c0.028-0.098,0.06-0.188,0.088-0.283
	C30.569,149.421,30.604,149.283,30.643,149.152z"/>
<path opacity="0.85" fill="#FFFFFF" enable-background="new    " d="M31.034,147.932c-0.025,0.074-0.051,0.146-0.076,0.221
	c-0.006,0.017-0.011,0.031-0.016,0.048c-0.098,0.3-0.191,0.603-0.284,0.905c0.063-0.203,0.132-0.396,0.197-0.596
	C30.916,148.318,30.97,148.12,31.034,147.932z"/>
<path opacity="0.85" fill="#FFFFFF" enable-background="new    " d="M35.55,138.625c-0.049,0.074-0.098,0.148-0.146,0.225
	c0.018-0.025,0.036-0.053,0.054-0.078C35.488,138.723,35.519,138.673,35.55,138.625z"/>
<path opacity="0.85" fill="#FFFFFF" enable-background="new    " d="M31.512,146.611c0.125-0.336,0.245-0.676,0.376-1.002
	c-0.033,0.082-0.069,0.164-0.102,0.246c-0.006,0.015-0.01,0.025-0.016,0.041c-0.141,0.356-0.278,0.722-0.411,1.09
	c-0.005,0.017-0.01,0.029-0.016,0.045c-0.042,0.117-0.081,0.236-0.122,0.354c0.008-0.021,0.017-0.043,0.024-0.064
	C31.331,147.079,31.424,146.85,31.512,146.611z"/>
<path opacity="0.85" fill="#FFFFFF" enable-background="new    " d="M30.052,151.284c-0.048,0.19-0.099,0.379-0.146,0.571
	c-0.002,0.011-0.005,0.021-0.008,0.035c-0.043,0.18-0.082,0.362-0.124,0.545c0.033-0.144,0.071-0.276,0.104-0.418
	C29.937,151.773,29.991,151.523,30.052,151.284z"/>
<path opacity="0.85" fill="#FFFFFF" enable-background="new    " d="M30.288,150.381c-0.019,0.068-0.039,0.135-0.058,0.203
	c-0.004,0.016-0.008,0.029-0.012,0.044c-0.031,0.116-0.06,0.235-0.09,0.353c0.026-0.101,0.057-0.194,0.083-0.295
	C30.239,150.585,30.261,150.479,30.288,150.381z"/>
<path opacity="0.85" fill="#FFFFFF" enable-background="new    " d="M29.608,153.169c-0.001,0.011-0.003,0.019-0.005,0.026
	c-0.078,0.367-0.154,0.74-0.225,1.117c-0.077,0.396-0.15,0.802-0.218,1.209c0.133-0.801,0.29-1.571,0.452-2.336
	C29.611,153.182,29.609,153.174,29.608,153.169z"/>
<polygon opacity="0.15" enable-background="new    " points="200.225,156.945 200.225,156.945 220.798,147.014 "/>
<polygon opacity="0.85" fill="#FFFFFF" enable-background="new    " points="200.225,156.945 200.225,156.945 220.798,147.014 "/>
<path opacity="0.15" enable-background="new    " d="M197.294,108.421c-0.003,0-0.006,0-0.009-0.001
	c1.102,0.11,2.212,0.223,3.332,0.34C199.5,108.644,198.395,108.53,197.294,108.421z"/>
<path opacity="0.85" fill="#FFFFFF" enable-background="new    " d="M197.294,108.421c-0.003,0-0.006,0-0.009-0.001
	c1.102,0.11,2.212,0.223,3.332,0.34C199.5,108.644,198.395,108.53,197.294,108.421z"/>
<path opacity="0.15" enable-background="new    " d="M196.212,108.315c-0.731-0.072-1.463-0.143-2.187-0.212
	c-0.071-0.006-0.144-0.013-0.213-0.02c0.881,0.083,1.771,0.17,2.666,0.258C196.391,108.333,196.301,108.324,196.212,108.315z"/>
<path opacity="0.85" fill="#FFFFFF" enable-background="new    " d="M196.212,108.315c-0.731-0.072-1.463-0.143-2.187-0.212
	c-0.071-0.006-0.144-0.013-0.213-0.02c0.881,0.083,1.771,0.17,2.666,0.258C196.391,108.333,196.301,108.324,196.212,108.315z"/>
<path fill="#34A1BE" d="M192.755,107.986c-0.655-0.061-1.312-0.121-1.962-0.179c-0.021-0.002-0.041-0.003-0.061-0.005
	c0.73,0.065,1.472,0.133,2.213,0.202C192.882,107.998,192.818,107.992,192.755,107.986z"/>
<path opacity="0.85" fill="#FFFFFF" enable-background="new    " d="M192.755,107.986c-0.655-0.061-1.312-0.121-1.962-0.179
	c-0.021-0.002-0.041-0.003-0.061-0.005c0.73,0.065,1.472,0.133,2.213,0.202C192.882,107.998,192.818,107.992,192.755,107.986z"/>
<path fill="#34A1BE" d="M189.495,107.693c-0.636-0.055-1.267-0.109-1.892-0.162c-0.025-0.002-0.054-0.004-0.078-0.006
	c0.699,0.059,1.398,0.118,2.104,0.18C189.586,107.702,189.54,107.697,189.495,107.693z"/>
<path opacity="0.85" fill="#FFFFFF" enable-background="new    " d="M189.495,107.693c-0.636-0.055-1.267-0.109-1.892-0.162
	c-0.025-0.002-0.054-0.004-0.078-0.006c0.699,0.059,1.398,0.118,2.104,0.18C189.586,107.702,189.54,107.697,189.495,107.693z"/>
<path fill="#34A1BE" d="M126.934,106.346c-0.291,0.019-0.578,0.038-0.865,0.057c-0.008,0-0.018,0.001-0.023,0.001
	c0.337-0.022,0.674-0.044,1.016-0.065C127.018,106.341,126.975,106.344,126.934,106.346z"/>
<path opacity="0.85" fill="#FFFFFF" enable-background="new    " d="M126.934,106.346c-0.291,0.019-0.578,0.038-0.865,0.057
	c-0.008,0-0.018,0.001-0.023,0.001c0.337-0.022,0.674-0.044,1.016-0.065C127.018,106.341,126.975,106.344,126.934,106.346z"/>
<path fill="#34A1BE" d="M128.951,106.227c-0.303,0.017-0.604,0.035-0.905,0.052c-0.081,0.005-0.161,0.01-0.241,0.015
	c0.422-0.025,0.846-0.049,1.273-0.073C129.036,106.223,128.993,106.225,128.951,106.227z"/>
<path opacity="0.85" fill="#FFFFFF" enable-background="new    " d="M128.951,106.227c-0.303,0.017-0.604,0.035-0.905,0.052
	c-0.081,0.005-0.161,0.01-0.241,0.015c0.422-0.025,0.846-0.049,1.273-0.073C129.036,106.223,128.993,106.225,128.951,106.227z"/>
<path fill="#34A1BE" d="M132.15,106.066c-0.002,0-0.004,0-0.006,0c0.112-0.005,0.229-0.01,0.347-0.015
	C132.378,106.057,132.264,106.062,132.15,106.066z"/>
<path opacity="0.85" fill="#FFFFFF" enable-background="new    " d="M132.15,106.066c-0.002,0-0.004,0-0.006,0
	c0.112-0.005,0.229-0.01,0.347-0.015C132.378,106.057,132.264,106.062,132.15,106.066z"/>
<polygon fill="#34A1BE" points="123.021,106.619 123.019,106.619 123.019,106.619 "/>
<polygon opacity="0.85" fill="#FFFFFF" enable-background="new    " points="123.021,106.619 123.019,106.619 123.019,106.619 "/>
<path fill="#34A1BE" d="M123.019,106.619c-0.011,0-0.021,0.002-0.033,0.002h0.001C122.997,106.621,123.008,106.62,123.019,106.619z"
	/>
<path opacity="0.85" fill="#FFFFFF" enable-background="new    " d="M123.019,106.619c-0.011,0-0.021,0.002-0.033,0.002h0.001
	C122.997,106.621,123.008,106.62,123.019,106.619z"/>
<path fill="#34A1BE" d="M173.275,106.513c-0.633-0.037-1.268-0.073-1.896-0.107c-0.002,0-0.003,0-0.004,0
	c0.646,0.035,1.299,0.073,1.953,0.11C173.313,106.515,173.294,106.514,173.275,106.513z"/>
<path opacity="0.85" fill="#FFFFFF" enable-background="new    " d="M173.275,106.513c-0.633-0.037-1.268-0.073-1.896-0.107
	c-0.002,0-0.003,0-0.004,0c0.646,0.035,1.299,0.073,1.953,0.11C173.313,106.515,173.294,106.514,173.275,106.513z"/>
<path fill="#34A1BE" d="M149.064,105.735c-0.021,0-0.039,0-0.06,0c0.25,0.001,0.504,0.003,0.755,0.004
	C149.529,105.738,149.297,105.736,149.064,105.735z"/>
<path opacity="0.85" fill="#FFFFFF" enable-background="new    " d="M149.064,105.735c-0.021,0-0.039,0-0.06,0
	c0.25,0.001,0.504,0.003,0.755,0.004C149.529,105.738,149.297,105.736,149.064,105.735z"/>
<path fill="#34A1BE" d="M146.646,105.734c-0.026,0-0.054,0-0.078,0c0.354-0.001,0.716-0.001,1.074-0.001
	C147.309,105.733,146.977,105.733,146.646,105.734z"/>
<path opacity="0.85" fill="#FFFFFF" enable-background="new    " d="M146.646,105.734c-0.026,0-0.054,0-0.078,0
	c0.354-0.001,0.716-0.001,1.074-0.001C147.309,105.733,146.977,105.733,146.646,105.734z"/>
<path fill="#34A1BE" d="M143.1,105.759c-0.39,0.005-0.774,0.011-1.162,0.017c-0.1,0.001-0.197,0.003-0.299,0.005
	c0.521-0.008,1.043-0.017,1.57-0.022C143.172,105.758,143.135,105.758,143.1,105.759z"/>
<path opacity="0.85" fill="#FFFFFF" enable-background="new    " d="M143.1,105.759c-0.39,0.005-0.774,0.011-1.162,0.017
	c-0.1,0.001-0.197,0.003-0.299,0.005c0.521-0.008,1.043-0.017,1.57-0.022C143.172,105.758,143.135,105.758,143.1,105.759z"/>
<path fill="#34A1BE" d="M145.463,105.739c-0.083,0-0.165,0.001-0.248,0.002c0.092,0,0.184-0.001,0.273-0.002
	C145.48,105.739,145.473,105.739,145.463,105.739z"/>
<path opacity="0.85" fill="#FFFFFF" enable-background="new    " d="M145.463,105.739c-0.083,0-0.165,0.001-0.248,0.002
	c0.092,0,0.184-0.001,0.273-0.002C145.48,105.739,145.473,105.739,145.463,105.739z"/>
<path fill="#34A1BE" d="M135.292,105.942c-0.129,0.004-0.258,0.009-0.388,0.014c0.138-0.005,0.275-0.01,0.412-0.015
	C135.311,105.941,135.301,105.941,135.292,105.942z"/>
<path opacity="0.85" fill="#FFFFFF" enable-background="new    " d="M135.292,105.942c-0.129,0.004-0.258,0.009-0.388,0.014
	c0.138-0.005,0.275-0.01,0.412-0.015C135.311,105.941,135.301,105.941,135.292,105.942z"/>
<path fill="#34A1BE" d="M140.787,105.794c-0.389,0.007-0.771,0.016-1.154,0.024c-0.156,0.004-0.314,0.007-0.472,0.011
	c0.563-0.014,1.132-0.026,1.704-0.037C140.84,105.793,140.813,105.793,140.787,105.794z"/>
<path opacity="0.85" fill="#FFFFFF" enable-background="new    " d="M140.787,105.794c-0.389,0.007-0.771,0.016-1.154,0.024
	c-0.156,0.004-0.314,0.007-0.472,0.011c0.563-0.014,1.132-0.026,1.704-0.037C140.84,105.793,140.813,105.793,140.787,105.794z"/>
<path fill="#34A1BE" d="M136.439,105.902c-0.021,0-0.037,0.001-0.059,0.002c0.375-0.012,0.758-0.021,1.137-0.032
	C137.159,105.882,136.797,105.891,136.439,105.902z"/>
<path opacity="0.85" fill="#FFFFFF" enable-background="new    " d="M136.439,105.902c-0.021,0-0.037,0.001-0.059,0.002
	c0.375-0.012,0.758-0.021,1.137-0.032C137.159,105.882,136.797,105.891,136.439,105.902z"/>
<path fill="#34A1BE" d="M160.249,105.932c-0.104-0.003-0.21-0.006-0.315-0.01c0.588,0.018,1.18,0.037,1.775,0.057
	C161.221,105.962,160.732,105.947,160.249,105.932z"/>
<path opacity="0.85" fill="#FFFFFF" enable-background="new    " d="M160.249,105.932c-0.104-0.003-0.21-0.006-0.315-0.01
	c0.588,0.018,1.18,0.037,1.775,0.057C161.221,105.962,160.732,105.947,160.249,105.932z"/>
<path fill="#34A1BE" d="M170.216,106.345c-0.558-0.028-1.114-0.057-1.667-0.084c-0.056-0.002-0.109-0.005-0.166-0.008
	c0.659,0.032,1.324,0.066,1.992,0.101C170.322,106.351,170.27,106.348,170.216,106.345z"/>
<path opacity="0.85" fill="#FFFFFF" enable-background="new    " d="M170.216,106.345c-0.558-0.028-1.114-0.057-1.667-0.084
	c-0.056-0.002-0.109-0.005-0.166-0.008c0.659,0.032,1.324,0.066,1.992,0.101C170.322,106.351,170.27,106.348,170.216,106.345z"/>
<path fill="#34A1BE" d="M164.542,106.083c-0.521-0.021-1.033-0.04-1.546-0.059c-0.006,0-0.012,0-0.018,0
	c0.557,0.021,1.113,0.041,1.679,0.064C164.619,106.087,164.58,106.085,164.542,106.083z"/>
<path opacity="0.85" fill="#FFFFFF" enable-background="new    " d="M164.542,106.083c-0.521-0.021-1.033-0.04-1.546-0.059
	c-0.006,0-0.012,0-0.018,0c0.557,0.021,1.113,0.041,1.679,0.064C164.619,106.087,164.58,106.085,164.542,106.083z"/>
<path fill="#34A1BE" d="M165.755,106.134c-0.037-0.001-0.073-0.003-0.11-0.005c0.481,0.021,0.967,0.042,1.453,0.065
	C166.648,106.173,166.199,106.153,165.755,106.134z"/>
<path opacity="0.85" fill="#FFFFFF" enable-background="new    " d="M165.755,106.134c-0.037-0.001-0.073-0.003-0.11-0.005
	c0.481,0.021,0.967,0.042,1.453,0.065C166.648,106.173,166.199,106.153,165.755,106.134z"/>
<path fill="#34A1BE" d="M159.146,105.898c-0.59-0.017-1.172-0.031-1.754-0.044c-0.078-0.002-0.156-0.004-0.234-0.006
	c0.693,0.017,1.39,0.034,2.093,0.053C159.217,105.9,159.182,105.899,159.146,105.898z"/>
<path opacity="0.85" fill="#FFFFFF" enable-background="new    " d="M159.146,105.898c-0.59-0.017-1.172-0.031-1.754-0.044
	c-0.078-0.002-0.156-0.004-0.234-0.006c0.693,0.017,1.39,0.034,2.093,0.053C159.217,105.9,159.182,105.899,159.146,105.898z"/>
<path fill="#34A1BE" d="M151.529,105.752c-0.002,0-0.002,0-0.004,0c0.176,0.001,0.354,0.004,0.531,0.007
	C151.882,105.757,151.705,105.754,151.529,105.752z"/>
<path opacity="0.85" fill="#FFFFFF" enable-background="new    " d="M151.529,105.752c-0.002,0-0.002,0-0.004,0
	c0.176,0.001,0.354,0.004,0.531,0.007C151.882,105.757,151.705,105.754,151.529,105.752z"/>
<path fill="#34A1BE" d="M156.523,105.833c-0.39-0.009-0.771-0.015-1.155-0.022c0.391,0.007,0.774,0.014,1.169,0.022
	C156.533,105.833,156.527,105.833,156.523,105.833z"/>
<path opacity="0.85" fill="#FFFFFF" enable-background="new    " d="M156.523,105.833c-0.39-0.009-0.771-0.015-1.155-0.022
	c0.391,0.007,0.774,0.014,1.169,0.022C156.533,105.833,156.527,105.833,156.523,105.833z"/>
<path fill="#34A1BE" d="M124.157,106.535c-0.049,0.003-0.098,0.007-0.147,0.011c0.198-0.015,0.397-0.029,0.597-0.043
	C124.457,106.514,124.307,106.524,124.157,106.535z"/>
<path opacity="0.85" fill="#FFFFFF" enable-background="new    " d="M124.157,106.535c-0.049,0.003-0.098,0.007-0.147,0.011
	c0.198-0.015,0.397-0.029,0.597-0.043C124.457,106.514,124.307,106.524,124.157,106.535z"/>
<path fill="#34A1BE" d="M184.434,107.274c-0.072-0.005-0.144-0.011-0.216-0.017c0.425,0.033,0.853,0.067,1.278,0.102
	C185.143,107.331,184.786,107.302,184.434,107.274z"/>
<path opacity="0.85" fill="#FFFFFF" enable-background="new    " d="M184.434,107.274c-0.072-0.005-0.144-0.011-0.216-0.017
	c0.425,0.033,0.853,0.067,1.278,0.102C185.143,107.331,184.786,107.302,184.434,107.274z"/>
<path fill="#34A1BE" d="M183.209,107.179c-0.661-0.05-1.316-0.099-1.973-0.146c-0.029-0.002-0.063-0.004-0.092-0.007
	c0.703,0.051,1.404,0.103,2.114,0.157C183.243,107.182,183.227,107.181,183.209,107.179z"/>
<path opacity="0.85" fill="#FFFFFF" enable-background="new    " d="M183.209,107.179c-0.661-0.05-1.316-0.099-1.973-0.146
	c-0.029-0.002-0.063-0.004-0.092-0.007c0.703,0.051,1.404,0.103,2.114,0.157C183.243,107.182,183.227,107.181,183.209,107.179z"/>
<path fill="#34A1BE" d="M180.164,106.955c-0.536-0.038-1.064-0.073-1.598-0.108c0.562,0.038,1.119,0.075,1.686,0.115
	C180.223,106.959,180.193,106.957,180.164,106.955z"/>
<path opacity="0.85" fill="#FFFFFF" enable-background="new    " d="M180.164,106.955c-0.536-0.038-1.064-0.073-1.598-0.108
	c0.562,0.038,1.119,0.075,1.686,0.115C180.223,106.959,180.193,106.957,180.164,106.955z"/>
<path fill="#34A1BE" d="M177.173,106.75c-0.778-0.05-1.548-0.097-2.315-0.144c0.898,0.055,1.804,0.111,2.716,0.171
	C177.438,106.769,177.305,106.759,177.173,106.75z"/>
<path opacity="0.85" fill="#FFFFFF" enable-background="new    " d="M177.173,106.75c-0.778-0.05-1.548-0.097-2.315-0.144
	c0.898,0.055,1.804,0.111,2.716,0.171C177.438,106.769,177.305,106.759,177.173,106.75z"/>
<path fill="#FFFFFF" d="M197.285,108.42c-0.271-0.027-0.537-0.052-0.807-0.079c-0.895-0.088-1.785-0.175-2.666-0.258
	c-0.099-0.009-0.194-0.019-0.291-0.028c-0.193-0.018-0.383-0.034-0.576-0.052c-0.741-0.069-1.48-0.136-2.213-0.202
	c-0.369-0.033-0.735-0.065-1.104-0.097c-0.705-0.062-1.404-0.122-2.104-0.18c-0.683-0.057-1.355-0.112-2.029-0.166
	c-0.428-0.034-0.854-0.069-1.278-0.102c-0.319-0.025-0.64-0.05-0.957-0.075c-0.71-0.054-1.413-0.105-2.114-0.157
	c-0.297-0.021-0.599-0.044-0.895-0.065c-0.566-0.04-1.124-0.077-1.686-0.115c-0.33-0.021-0.666-0.046-0.996-0.068
	c-0.911-0.06-1.814-0.117-2.713-0.171c-0.514-0.031-1.021-0.062-1.527-0.091c-0.654-0.038-1.309-0.075-1.953-0.11
	c-0.336-0.018-0.669-0.035-1.002-0.052c-0.668-0.035-1.333-0.069-1.992-0.101c-0.432-0.021-0.857-0.04-1.285-0.059
	c-0.486-0.022-0.972-0.044-1.453-0.065c-0.33-0.014-0.66-0.027-0.985-0.041c-0.563-0.023-1.122-0.043-1.681-0.064
	c-0.424-0.016-0.849-0.031-1.27-0.045c-0.596-0.02-1.188-0.039-1.775-0.057c-0.228-0.007-0.457-0.014-0.683-0.021
	c-0.703-0.02-1.399-0.037-2.093-0.053c-0.206-0.005-0.416-0.011-0.621-0.015c-0.395-0.009-0.778-0.015-1.169-0.022
	c-1.116-0.021-2.222-0.039-3.312-0.051c-0.178-0.002-0.355-0.005-0.531-0.007c-0.594-0.006-1.178-0.009-1.766-0.013
	c-0.251-0.001-0.505-0.003-0.755-0.004c-0.458-0.002-0.911-0.002-1.362-0.002c-0.359,0-0.721,0-1.076,0.001
	c-0.359,0.001-0.719,0.002-1.078,0.004c-0.092,0-0.182,0.001-0.273,0.002c-0.673,0.004-1.344,0.009-2.006,0.017
	c-0.527,0.006-1.05,0.014-1.57,0.022c-0.258,0.004-0.518,0.008-0.771,0.012c-0.572,0.011-1.141,0.023-1.704,0.037
	c-0.554,0.013-1.101,0.027-1.644,0.042c-0.379,0.011-0.762,0.021-1.137,0.032c-0.357,0.011-0.71,0.025-1.064,0.037
	c-0.139,0.005-0.274,0.01-0.412,0.015c-0.813,0.03-1.617,0.062-2.413,0.096c-0.115,0.005-0.232,0.01-0.349,0.015
	c-1.037,0.046-2.06,0.098-3.064,0.153c-0.43,0.024-0.854,0.048-1.273,0.073c-0.248,0.015-0.498,0.03-0.746,0.045
	c-0.342,0.021-0.679,0.043-1.016,0.065c-0.48,0.032-0.961,0.064-1.436,0.099c-0.2,0.014-0.398,0.028-0.597,0.043
	c-0.33,0.024-0.663,0.048-0.989,0.073c-0.001,0-0.001,0-0.002,0l0.34,0.108l39.759,67.769l-0.417,0.563l2.713-1.31l-4.751-10.071
	l2.209-1.04l1.188,2.493l2.871-1.342l1.215,2.578l2.623-1.201l1.344,2.761l2.678-1.266l0.98,2.087l24.451-11.805l20.573-9.934
	c0,0-0.013-0.021-17.177-32.558c-0.758-1.435-1.547-2.934-2.372-4.497c-0.213-0.403-0.414-0.786-0.632-1.198
	C199.497,108.644,198.387,108.53,197.285,108.42z M173.785,154.025c-3.771,2.545-6.738-1.726-8.48-3.869
	c-1.746-2.146-8.406-14.688-8.406-14.688l-2.006,0.435l-0.231-0.396l-0.212,0.265l-4.646,1.188l-0.014-0.014
	c1.148,1.984,7.675,13.218,9.852,16.273c2.387,3.355,5.172-0.707,5.172-0.707l2.152,3.547l-1.986,1.676
	c-5.248,3.645-9.281-3.402-9.281-3.402l-9.508-16.738l-2.685,0.547l-2.071-3.183l0.521-0.46l1.673-0.223l-4.155-6.936l0.516-0.646
	l3.258-0.291l4.216,7.317l5.504-0.774l1.408,2.064l-1.212-2.074l0.474-0.412l1.595-0.295l-0.076-0.035l-4.191-6.666l0.344-0.334
	l2.637-0.208l4.107,6.513l4.609-0.913l1.635,2.758l-0.328,0.486l-3.841,0.915c1.037,1.843,6.345,11.226,8.492,14.246
	c2.389,3.355,5.134,0.063,5.134,0.063l2.309,3.306L173.785,154.025z M184.848,147.615c-0.399,1.396-1.033,2.189-1.729,2.615
	c-2.031,1.396-3.327,0.428-3.521,0.265l5.211,8.751l-0.02,0.429l-2.146,1.218l-18.358-30.136l0.265-0.532l2.262-0.422l0.646,1.117
	l0.002-0.008c0,0,0.019-1.064,2.151-2.256C175.607,124.855,186.105,143.248,184.848,147.615z M187.352,130.129l-2.123,0.318
	l-2.438-3.701l0.354-0.413l1.996-0.362l2.368,3.913L187.352,130.129z M195.471,142.729l-1.789,0.752l-2.838-3.873l0.225-0.325
	l2.007-0.642l2.427,3.864L195.471,142.729z M206.154,146.395l-1.221,0.537l-13.332-28.329l0.186-0.265l1.141-0.246l13.354,27.872
	L206.154,146.395z M210.966,143.879l-1.091,0.477l-12.773-26.39l0.217-0.203l0.926-0.044l12.773,25.922L210.966,143.879z"/>
<path fill="#FFFFFF" d="M181.52,145.104c0.004-0.004-0.51-1.943-0.508-1.947c-5.428-12.764-9.596-11.323-9.596-11.323l-0.012-0.036
	c-0.682,0.396-1.242,1.286-1.615,2.827l7.654,12.66c0,0,1.527,0.571,2.808,0.349C180.468,147.534,181.732,146.893,181.52,145.104z"
	/>
<path fill="#89BC69" d="M123.019,106.619c-0.011,0.001-0.021,0.002-0.032,0.002l0.373,0.105L123.019,106.619L123.019,106.619z"/>
<path fill="#89BC69" d="M29.879,152.018c-0.033,0.144-0.072,0.276-0.104,0.418c-0.041,0.182-0.083,0.357-0.122,0.539
	c-0.003,0.016-0.005,0.027-0.008,0.041C29.718,152.677,29.8,152.35,29.879,152.018z"/>
<path fill="#89BC69" d="M35.457,138.771c-0.018,0.024-0.036,0.052-0.054,0.078c-0.165,0.25-0.325,0.508-0.485,0.766
	C35.093,139.328,35.276,139.05,35.457,138.771z"/>
<path fill="#89BC69" d="M31.246,147.32c-0.008,0.021-0.017,0.043-0.024,0.063c-0.063,0.183-0.126,0.363-0.188,0.548
	c-0.063,0.188-0.118,0.387-0.179,0.576C30.982,148.109,31.109,147.709,31.246,147.32z"/>
<path fill="#89BC69" d="M30.531,149.553c-0.028,0.096-0.06,0.188-0.088,0.283c-0.052,0.182-0.104,0.361-0.155,0.545
	c-0.027,0.1-0.049,0.204-0.076,0.305C30.314,150.303,30.421,149.925,30.531,149.553z"/>
<path fill="#89BC69" d="M31.953,145.452c0.529-1.304,1.123-2.556,1.769-3.763c-0.089,0.166-0.174,0.336-0.261,0.504
	c-0.123,0.234-0.25,0.467-0.368,0.709c-0.083,0.17-0.166,0.341-0.247,0.513c-0.255,0.54-0.501,1.094-0.738,1.659
	c-0.074,0.177-0.147,0.354-0.219,0.535c-0.131,0.326-0.251,0.666-0.376,1.002C31.657,146.223,31.799,145.83,31.953,145.452z"/>
<path fill="#89BC69" d="M34.603,140.141c-0.011,0.02-0.021,0.035-0.032,0.053c-0.115,0.193-0.233,0.383-0.346,0.576
	c-0.159,0.277-0.312,0.563-0.465,0.849C34.03,141.113,34.314,140.626,34.603,140.141z"/>
<path fill="#89BC69" d="M91.362,206.859c4.877-1.047,10.043-2.621,15.507-4.803c6.716-2.683,12.623-5.584,17.792-8.635l38.04-18.363
	l0,0l0.417-0.563l-39.759-67.769l28.766,49.473c-0.123,0.089-0.242,0.17-0.365,0.258c1.69,2.902,2.877,4.967,2.877,4.967
	l-0.199,0.751l-3.287,1.599c0,0-1.143-2.002-2.811-4.901c-2.676,1.869-5.289,3.636-7.847,5.313l1.442,2.481l-0.25,1.073
	l-4.498,1.753l-1.315-2.339c-6.031,3.797-11.727,7.059-17.102,9.832c-0.017,0.041-0.029,0.084-0.046,0.127
	c-0.705,1.697-1.498,3.418-2.465,5.088c-0.937,1.688-2.032,3.335-3.246,4.93c-2.419,3.202-5.386,6.157-8.774,8.664
	c-1.689,1.264-3.507,2.373-5.376,3.396c-1.882,1.008-3.852,1.854-5.858,2.604c-2.019,0.695-4.087,1.298-6.181,1.717
	c-2.095,0.397-4.205,0.694-6.315,0.793c-4.215,0.211-8.391-0.188-12.3-1.13c-1.957-0.466-3.852-1.046-5.653-1.758
	c-1.813-0.681-3.521-1.507-5.148-2.374c-3.232-1.777-6.088-3.822-8.466-5.994c-2.385-2.166-4.332-4.406-5.883-6.517
	c-1.561-2.101-2.705-4.089-3.569-5.757c-0.214-0.418-0.416-0.815-0.605-1.188c-0.173-0.383-0.334-0.739-0.485-1.071
	c-0.302-0.666-0.552-1.233-0.723-1.709c-0.364-0.938-0.558-1.439-0.558-1.439l-0.108-0.28c-0.453-1.168-0.424-2.394-0.046-3.491
	c-5.275-8.229-6.998-16.438-7.352-18.408c-0.162,0.766-0.318,1.535-0.452,2.336c-2.232,13.394,3.207,31.232,16.703,42.41
	C56.221,206.512,71.327,211.162,91.362,206.859z"/>
<path fill="#89BC69" d="M60.952,192.552c1.282,0.851,2.646,1.685,4.117,2.402c1.458,0.747,3.017,1.392,4.646,1.944
	c3.259,1.115,6.831,1.748,10.521,1.877c1.847,0.072,3.718-0.039,5.601-0.236l1.409-0.191c0.482-0.058,0.889-0.158,1.343-0.23
	l0.667-0.118c0.215-0.034,0.506-0.12,0.756-0.181l0.778-0.193l0.389-0.1l0.193-0.049l0.098-0.022l0.05-0.013
	c-0.032,0.013,0.138-0.045-0.059,0.023c1.851-0.529,3.69-1.146,5.466-1.918c1.763-0.793,3.509-1.66,5.125-2.718
	c2.23-1.427,4.304-3.073,6.182-4.877c-5.826,4.493-11.755,3.864-11.71,3.839c-3.212,0.063-6.204-1.077-8.533-3.012
	c-14.349,3.219-25.238,1.853-33.482-1.801C56.258,188.923,58.422,190.82,60.952,192.552z"/>
<polygon fill="#9FCF7B" points="152.125,156.2 123.359,106.727 143.982,142.197 "/>
<path fill="#A2D07B" d="M36.963,171.594c0.473-1.371,1.503-2.543,2.962-3.107c2.628-1.019,5.583,0.289,6.601,2.916
	c0.071,0.182,0.131,0.369,0.179,0.554c0,0,0.104,0.403,0.304,1.162c0.087,0.385,0.231,0.846,0.406,1.388
	c0.087,0.271,0.179,0.567,0.278,0.879c0.114,0.309,0.237,0.635,0.365,0.979c0.524,1.38,1.237,3.041,2.286,4.845
	c1.042,1.808,2.381,3.786,4.135,5.742c0.01,0.011,0.021,0.021,0.031,0.03c8.244,3.652,19.133,5.021,33.482,1.802
	c-2.573-2.14-4.337-5.249-4.655-8.839c-0.411-4.635,1.639-9.043,5.386-11.717l-0.662-0.974c-1.813,0.437-3.674,0.739-5.546,0.904
	c-13.451,1.192-25.569-4.808-30.874-14.238c-12.989-3.36-19.696-8.108-19.696-8.108l0.007-0.355
	c-0.153,0.378-0.295,0.771-0.441,1.158c-0.088,0.236-0.181,0.469-0.266,0.71c-0.137,0.389-0.264,0.788-0.392,1.188
	c-0.064,0.199-0.134,0.393-0.197,0.596c-0.005,0.018-0.01,0.031-0.015,0.047c-0.04,0.132-0.074,0.27-0.112,0.4
	c-0.11,0.371-0.216,0.75-0.318,1.131c-0.027,0.102-0.057,0.195-0.083,0.297s-0.052,0.203-0.077,0.305
	c-0.061,0.238-0.115,0.488-0.173,0.732c-0.079,0.332-0.161,0.658-0.234,0.996c-0.011,0.053-0.025,0.104-0.036,0.154
	c0.001,0.005,0.002,0.012,0.003,0.018C29.965,155.157,31.688,163.365,36.963,171.594z"/>
<path fill="#A2D07B" d="M143.387,142.449c0.217,0.326,0.432,0.654,0.646,1.004c2.425,3.947,5.51,9.199,7.727,13.005
	c0.123-0.088,0.242-0.169,0.365-0.258l-8.143-14.003C143.782,142.284,143.586,142.363,143.387,142.449z"/>
<path fill="#A2D07B" d="M139.516,144.066c-2.979,1.213-5.906,2.336-8.77,3.354l9.747,16.766c2.558-1.68,5.171-3.444,7.847-5.313
	c-1.926-3.351-4.556-7.901-6.979-12.021C140.752,145.749,140.131,144.843,139.516,144.066z"/>
<path fill="#A2D07B" d="M120.965,150.611c0.366,1.722,0.638,3.479,0.797,5.279c0.141,1.584,0.192,3.153,0.164,4.709
	c0.005,2.031-0.128,4.229-0.47,6.545c-0.455,3.138-1.347,6.475-2.686,9.844c5.375-2.774,11.07-6.036,17.102-9.832l-10.147-18.03
	C124.119,149.648,122.53,150.146,120.965,150.611z"/>
<path fill="#AFD584" d="M54.81,121.271c0.298-0.171,0.595-0.341,0.889-0.505C55.405,120.931,55.108,121.101,54.81,121.271z"/>
<path fill="#AFD584" d="M53.379,122.114c0.302-0.182,0.604-0.364,0.903-0.539C53.982,121.75,53.681,121.932,53.379,122.114z"/>
<path fill="#AFD584" d="M58.438,119.314c-0.276,0.14-0.557,0.286-0.838,0.432C57.88,119.6,58.162,119.454,58.438,119.314z"/>
<path fill="#AFD584" d="M63.353,117.029c-0.219,0.093-0.448,0.193-0.675,0.292C62.905,117.222,63.134,117.122,63.353,117.029z"/>
<path fill="#AFD584" d="M62.211,117.525c-0.236,0.105-0.481,0.217-0.725,0.328C61.729,117.742,61.975,117.63,62.211,117.525z"/>
<path fill="#AFD584" d="M61.007,118.071c-0.251,0.116-0.509,0.239-0.766,0.361C60.498,118.31,60.756,118.187,61.007,118.071z"/>
<path fill="#AFD584" d="M65.422,116.181c-0.174,0.069-0.36,0.144-0.543,0.218C65.062,116.325,65.248,116.249,65.422,116.181z"/>
<path fill="#AFD584" d="M66.33,115.829c-0.14,0.053-0.292,0.112-0.438,0.169C66.039,115.941,66.19,115.882,66.33,115.829z"/>
<path fill="#AFD584" d="M59.746,118.667c-0.265,0.128-0.535,0.262-0.805,0.397C59.211,118.929,59.482,118.794,59.746,118.667z"/>
<path fill="#AFD584" d="M57.085,120.014c-0.199,0.105-0.398,0.213-0.6,0.322c-0.088,0.047-0.177,0.097-0.266,0.146
	C56.51,120.323,56.799,120.166,57.085,120.014z"/>
<path fill="#AFD584" d="M64.423,116.582c-0.196,0.08-0.402,0.167-0.606,0.252C64.021,116.75,64.227,116.662,64.423,116.582z"/>
<path fill="#AFD584" d="M67.159,115.519c-0.105,0.039-0.221,0.083-0.331,0.124C66.938,115.601,67.054,115.557,67.159,115.519z"/>
<path fill="#AFD584" d="M67.884,115.255c-0.058,0.021-0.125,0.045-0.185,0.067C67.759,115.3,67.826,115.275,67.884,115.255z"/>
<path fill="#AFD584" d="M69.04,114.849c-0.011,0.004-0.025,0.009-0.037,0.013C69.015,114.858,69.029,114.853,69.04,114.849z"/>
<path fill="#AFD584" d="M68.52,115.03c-0.039,0.014-0.085,0.03-0.125,0.044C68.435,115.06,68.481,115.043,68.52,115.03z"/>
<path fill="#AFD584" d="M31.953,145.452l-0.007,0.356c0,0,6.708,4.748,19.696,8.107c-1.509-2.686-2.47-5.645-2.749-8.797
	c-0.267-3.018,0.097-6.021,1.083-8.945c-0.002-0.004-0.003-0.007-0.005-0.01c-0.051-0.068-3.063-4.239-1.409-7.395
	c0,0,1.005-2.311,5.841-1.099c0.06,0.015,0.117,0.028,0.172,0.044c0.088,0.021,0.168,0.037,0.258,0.063l-0.001,0.005h0.001
	c1.389-1.614,2.97-3.08,4.705-4.386c-3.641-0.51-5.979-0.952-6.53-1.06c-6.161,3.771-12.752,9.08-17.458,16.285
	c-0.031,0.048-0.062,0.098-0.093,0.146c-0.181,0.278-0.364,0.559-0.539,0.844c-0.106,0.175-0.211,0.351-0.315,0.527
	c-0.288,0.483-0.572,0.973-0.843,1.475c-0.013,0.025-0.025,0.05-0.038,0.074C33.076,142.896,32.482,144.148,31.953,145.452z"/>
<path fill="#AFD584" d="M53.879,149.777l-1.473-4.117C52.624,147.158,53.134,148.546,53.879,149.777z"/>
<path fill="#AFD584" d="M132.4,140.082c-1.146,0.533-2.213,1.759-3.023,4.057l-0.229,0.533l1.599,2.749
	c2.862-1.019,5.789-2.142,8.769-3.354C136.145,139.82,132.922,140.016,132.4,140.082z"/>
<path fill="#BEDB8F" d="M123.36,106.593l-0.374,0.029l0-0.001c-24.359,1.882-39.276,3.14-53.541,8.088
	c-0.114,0.04-0.25,0.086-0.405,0.14c-0.011,0.004-0.025,0.009-0.037,0.013c-0.146,0.05-0.305,0.105-0.484,0.168
	c-0.038,0.013-0.085,0.03-0.125,0.044c-0.161,0.057-0.327,0.115-0.511,0.181c-0.058,0.021-0.125,0.045-0.185,0.067
	c-0.174,0.063-0.349,0.126-0.541,0.197c-0.104,0.038-0.221,0.083-0.331,0.124c-0.164,0.061-0.324,0.121-0.498,0.187
	c-0.14,0.053-0.292,0.112-0.438,0.169c-0.156,0.061-0.307,0.118-0.47,0.183c-0.174,0.068-0.36,0.144-0.543,0.218
	c-0.152,0.061-0.299,0.119-0.457,0.184c-0.196,0.08-0.402,0.167-0.606,0.252c-0.155,0.065-0.305,0.126-0.464,0.194
	c-0.219,0.093-0.448,0.193-0.675,0.292c-0.156,0.068-0.308,0.133-0.467,0.204c-0.236,0.105-0.481,0.217-0.725,0.328
	c-0.16,0.073-0.316,0.143-0.479,0.218c-0.251,0.116-0.509,0.239-0.766,0.361c-0.165,0.078-0.327,0.154-0.495,0.235
	c-0.264,0.128-0.535,0.263-0.805,0.397c-0.168,0.083-0.333,0.165-0.503,0.25c-0.276,0.14-0.557,0.286-0.838,0.432
	c-0.171,0.089-0.341,0.176-0.515,0.268c-0.286,0.151-0.575,0.309-0.865,0.468c-0.173,0.095-0.346,0.188-0.521,0.285
	c-0.294,0.164-0.591,0.334-0.889,0.505c-0.176,0.101-0.351,0.2-0.528,0.304c-0.299,0.175-0.601,0.356-0.903,0.539
	c-0.126,0.076-0.25,0.147-0.376,0.225c0.001,0,0.003,0,0.004,0.001c0.555,0.105,2.893,0.547,6.534,1.057
	c5.081-3.823,11.497-6.254,18.403-6.866c9.058-0.802,17.879,1.637,24.333,6.699c6.191-3.577,9.563-0.603,9.563-0.603
	c0.166,0.16,0.312,0.323,0.458,0.486c5.984-1.091,11.922-2.661,17.541-4.867v0c-5.619,2.206-11.557,3.776-17.542,4.867
	c2.882,3.237,1.771,7.03,0.322,9.649c4.016,5.118,6.93,11.176,8.349,17.846c1.565-0.465,3.154-0.963,4.76-1.485l-11.647-20.694
	l0.541-1.018l4.565-0.643l7.396,12.857c0.276-0.797,1.104-2.136,3.573-3.449c-0.002,0.006-0.002,0.012-0.002,0.019
	c0.338-0.191,0.713-0.36,1.136-0.497c3.682-1.192,8.012,0.604,12.101,6.748c0.2-0.086,0.396-0.165,0.598-0.252L123.36,106.593z"/>
<circle fill="#FFFFFF" cx="98.842" cy="138.39" r="3.023"/>
<path fill="#FFFFFF" d="M88.684,127.391c-7.715,0.686-13.419,7.451-12.741,15.114c0.68,7.664,7.485,13.324,15.199,12.64
	c6.353-0.563,11.333-5.252,12.518-11.168c-1.129,3.472-4.235,6.106-8.099,6.449c-5.164,0.457-9.719-3.357-10.177-8.521
	c-0.458-5.159,3.357-9.719,8.521-10.176c4.191-0.371,7.98,2.072,9.504,5.767C101.628,131.161,95.518,126.786,88.684,127.391z"/>
<path fill="#FFFFFF" d="M53.879,149.777c2.16,3.572,6.255,5.813,10.745,5.414c6.25-0.551,10.875-5.994,10.329-12.156
	c-0.545-6.16-6.055-10.706-12.306-10.151c-6.25,0.554-10.874,5.997-10.328,12.157c0.019,0.21,0.057,0.413,0.087,0.619
	L53.879,149.777z M66.34,135.698c4.327-0.384,8.144,2.813,8.526,7.139c0.383,4.324-2.812,8.142-7.138,8.524
	c-4.325,0.385-8.142-2.813-8.526-7.139C58.82,139.898,62.015,136.082,66.34,135.698z"/>
<circle fill="#FFFFFF" cx="70.478" cy="141.28" r="2.533"/>
<path fill="#34A1BE" d="M121.926,160.602c0.028-1.556-0.022-3.125-0.164-4.711c-0.159-1.798-0.431-3.558-0.797-5.276
	c-1.419-6.671-4.333-12.728-8.349-17.849c1.449-2.619,2.56-6.412-0.322-9.647c-0.146-0.163-0.292-0.326-0.458-0.486
	c0,0-3.372-2.974-9.563,0.603c-6.454-5.062-15.275-7.501-24.333-6.699c-6.906,0.612-13.323,3.043-18.403,6.866
	c-1.735,1.306-3.316,2.771-4.705,4.386h-0.001l0.001-0.003c-0.089-0.026-0.17-0.042-0.258-0.063
	c-0.056-0.017-0.113-0.029-0.172-0.045c-4.835-1.212-5.841,1.1-5.841,1.1c-1.654,3.152,1.357,7.324,1.409,7.394
	c0.002,0.003,0.003,0.007,0.005,0.011c-0.986,2.922-1.35,5.93-1.083,8.944c0.279,3.153,1.24,6.112,2.749,8.797
	c5.305,9.433,17.422,15.431,30.874,14.238c1.872-0.165,3.733-0.47,5.546-0.904l0.662,0.974c-3.748,2.674-5.797,7.082-5.386,11.718
	c0.318,3.589,2.082,6.698,4.655,8.838c2.33,1.935,5.321,3.071,8.533,3.012c-0.045,0.024,5.884,0.655,11.71-3.839
	c-1.878,1.805-3.952,3.45-6.182,4.877c-1.617,1.059-3.362,1.925-5.125,2.719c-1.776,0.771-3.615,1.389-5.466,1.918
	c0.196-0.068,0.026-0.014,0.059-0.023l-0.05,0.012l-0.098,0.023l-0.193,0.049l-0.389,0.099l-0.778,0.194
	c-0.25,0.06-0.541,0.146-0.756,0.18l-0.667,0.118c-0.454,0.073-0.861,0.175-1.343,0.231l-1.409,0.19
	c-1.883,0.198-3.754,0.31-5.601,0.235c-3.69-0.129-7.262-0.762-10.521-1.877c-1.629-0.553-3.188-1.196-4.646-1.943
	c-1.471-0.718-2.835-1.552-4.117-2.4c-2.53-1.731-4.693-3.631-6.442-5.572c-0.01-0.012-0.021-0.021-0.031-0.032
	c-1.754-1.956-3.093-3.937-4.135-5.742c-1.049-1.803-1.762-3.465-2.286-4.844c-0.128-0.347-0.25-0.671-0.365-0.979
	c-0.099-0.312-0.191-0.604-0.278-0.879c-0.175-0.542-0.318-1.003-0.406-1.388c-0.199-0.759-0.304-1.162-0.304-1.162
	c-0.048-0.183-0.108-0.372-0.179-0.554c-1.017-2.627-3.972-3.934-6.601-2.916c-1.459,0.564-2.49,1.736-2.962,3.107
	c-0.378,1.1-0.407,2.324,0.046,3.492l0.108,0.28c0,0,0.194,0.501,0.558,1.438c0.17,0.477,0.421,1.043,0.723,1.709
	c0.15,0.332,0.312,0.689,0.485,1.072c0.189,0.371,0.391,0.77,0.605,1.188c0.864,1.668,2.008,3.656,3.569,5.758
	c1.551,2.109,3.498,4.352,5.883,6.517c2.378,2.173,5.234,4.218,8.466,5.994c1.627,0.867,3.335,1.692,5.148,2.374
	c1.801,0.712,3.696,1.292,5.653,1.758c3.909,0.94,8.085,1.342,12.3,1.131c2.11-0.1,4.22-0.396,6.315-0.795
	c2.093-0.418,4.162-1.021,6.181-1.716c2.007-0.748,3.977-1.596,5.858-2.604c1.87-1.021,3.687-2.133,5.376-3.396
	c3.388-2.507,6.355-5.462,8.774-8.664c1.214-1.595,2.309-3.241,3.246-4.93c0.968-1.67,1.761-3.39,2.465-5.088
	c0.017-0.042,0.03-0.084,0.046-0.126c1.338-3.369,2.23-6.706,2.686-9.844C121.797,164.828,121.931,162.633,121.926,160.602z
	 M52.319,145.041c-0.545-6.16,4.079-11.604,10.328-12.157c6.25-0.555,11.76,3.991,12.306,10.151
	c0.546,6.162-4.079,11.605-10.329,12.156c-4.49,0.397-8.585-1.842-10.745-5.414c-0.745-1.231-1.255-2.619-1.473-4.117
	C52.376,145.454,52.337,145.251,52.319,145.041z M103.408,137.493c-1.523-3.692-5.313-6.138-9.504-5.765
	c-5.164,0.457-8.979,5.015-8.521,10.174c0.458,5.164,5.013,8.979,10.177,8.521c3.863-0.343,6.97-2.979,8.099-6.447
	c-1.185,5.914-6.165,10.604-12.518,11.168c-7.714,0.685-14.519-4.978-15.199-12.642c-0.678-7.663,5.025-14.431,12.741-15.112
	C95.518,126.786,101.628,131.161,103.408,137.493z M101.853,138.123c0.148,1.664-1.081,3.13-2.744,3.277
	c-1.663,0.146-3.13-1.08-3.278-2.744c-0.147-1.662,1.083-3.129,2.745-3.277C100.238,135.23,101.706,136.462,101.853,138.123z"/>
<path fill="#34A1BE" d="M67.728,151.361c4.327-0.383,7.521-4.2,7.138-8.524c-0.383-4.326-4.199-7.522-8.526-7.139
	c-4.325,0.384-7.52,4.2-7.138,8.524C59.586,148.55,63.403,151.746,67.728,151.361z M70.255,138.757
	c1.394-0.123,2.623,0.906,2.746,2.3c0.124,1.395-0.906,2.623-2.3,2.746s-2.622-0.906-2.746-2.299
	C67.832,140.107,68.861,138.881,70.255,138.757z"/>
<polygon fill="#686A6D" points="191.787,118.338 191.602,118.603 204.934,146.932 206.154,146.395 206.279,145.964 205.023,146.393 
	"/>
<polygon fill="#686A6D" points="197.316,117.762 197.102,117.965 209.875,144.354 210.966,143.879 211.018,143.641 209.959,144.025 
	"/>
<polygon fill="#686A6D" points="183.145,126.333 182.791,126.746 185.229,130.447 187.352,130.129 187.509,129.884 185.632,130.15 
	"/>
<polygon fill="#686A6D" points="191.066,139.279 190.844,139.605 193.682,143.479 195.471,142.729 195.5,142.505 193.841,143.143 
	"/>
<path fill="#686A6D" d="M171.404,131.795l0.012,0.036c0,0,4.168-1.438,9.596,11.323c-0.002,0.004,0.512,1.943,0.508,1.947
	c0.215,1.791-1.052,2.433-1.269,2.527c1.146-0.199,2.092-1.041,1.56-3.508C180.871,139.792,174.723,129.877,171.404,131.795z"/>
<path fill="#686A6D" d="M179.372,150.116l0.226,0.379c0.192,0.163,1.488,1.134,3.521-0.265
	C181.428,151.266,179.372,150.116,179.372,150.116z"/>
<polygon fill="#686A6D" points="164.547,130.225 164.282,130.757 182.643,160.893 184.789,159.675 184.809,159.246 182.7,160.049 
	"/>
<path fill="#686A6D" d="M167.984,130.447c0.488-0.836,1.035-1.418,1.623-1.791c-2.137,1.189-2.152,2.256-2.152,2.256l-0.002,0.008
	l0.24,0.42L167.984,130.447z"/>
<polygon fill="#686A6D" points="151.3,125.19 150.957,125.523 155.15,132.189 155.227,132.227 155.762,132.127 "/>
<path fill="#686A6D" d="M162.346,144.328l-5.229-9.296l-1.783,0.388l-1.7-2.898l-0.474,0.412l1.212,2.075l0.313,0.464l-0.024,0.033
	l0.231,0.396l2.006-0.436c0,0,6.66,12.541,8.406,14.688c1.742,2.146,4.709,6.416,8.48,3.869
	C168.695,156.718,162.346,144.328,162.346,144.328z"/>
<path fill="#686A6D" d="M160.12,134.741l3.841-0.915l0.328-0.486l-4.35,1.082C159.939,134.422,160.006,134.537,160.12,134.741z"/>
<polygon fill="#686A6D" points="139.984,126.689 139.469,127.339 143.626,134.271 144.439,134.164 "/>
<path fill="#686A6D" d="M156.325,154.211l-9.849-17.027l-2.511,0.543l-2.015-3.229l-0.521,0.46l2.071,3.184l2.685-0.548
	l9.508,16.738c0,0,4.033,7.047,9.281,3.401C159.887,160.426,156.325,154.211,156.325,154.211z"/>
<path fill="#686A6D" d="M149.611,136.641c0,0,0.063,0.108,0.176,0.303l0.014,0.015l4.646-1.188l0.212-0.264l0.026-0.033
	L149.611,136.641z"/>
<path fill="#686A6D" d="M139.691,143.218c-1.11-1.485-4.444-4.461-7.291-3.136c0.521-0.066,3.742-0.262,7.113,3.984
	c0.615,0.774,1.236,1.683,1.848,2.785c2.423,4.116,5.053,8.67,6.979,12.02c1.668,2.9,2.811,4.9,2.811,4.9l3.287-1.598l0.199-0.751
	l-3.425,1.435C151.212,162.857,141.251,145.303,139.691,143.218z"/>
<path fill="#686A6D" d="M130.15,136.198c0-0.007,0-0.013,0.002-0.019c-2.469,1.313-3.297,2.652-3.574,3.449l0.704,1.229
	C127.282,140.857,127.383,137.762,130.15,136.198z"/>
<polygon fill="#686A6D" points="114.617,127.414 114.076,128.432 125.725,149.126 135.872,167.156 137.188,169.494 141.686,167.741 
	141.938,166.668 137.439,168.264 "/>
<path fill="#5A5D60" d="M143.387,142.449c-4.09-6.145-8.42-7.94-12.102-6.748c-0.422,0.137-0.797,0.306-1.135,0.497
	c-2.77,1.563-2.868,4.659-2.868,4.659l-0.704-1.229l-7.396-12.857l-4.565,0.643l22.824,40.85l4.496-1.596l-1.443-2.482
	l-9.747-16.765l-1.599-2.749l0.229-0.533c0.811-2.298,1.878-3.521,3.023-4.057c2.847-1.325,6.181,1.65,7.291,3.136
	c1.56,2.085,11.521,19.64,11.521,19.64l3.425-1.433c0,0-1.187-2.063-2.877-4.967c-2.217-3.806-5.302-9.058-7.727-13.005
	C143.818,143.104,143.604,142.775,143.387,142.449z"/>
<path fill="#5A5D60" d="M154.686,135.473l-0.313-0.464l-1.408-2.065l-5.504,0.775l-4.216-7.318l-3.258,0.291l4.455,7.475
	l-0.813,0.107l-1.673,0.224l2.016,3.229l2.51-0.543l9.849,17.027c0,0,3.562,6.215,8.649,3.521l1.986-1.676l-2.152-3.547
	c0,0-2.785,4.063-5.172,0.707c-2.177-3.058-8.701-14.29-9.852-16.273c-0.113-0.193-0.176-0.303-0.176-0.303L154.686,135.473z"/>
<path fill="#5A5D60" d="M168.611,148.988c-2.146-3.021-7.454-12.404-8.491-14.247c-0.114-0.204-0.181-0.319-0.181-0.319l4.35-1.082
	l-1.635-2.758l-4.609,0.913l-4.109-6.513l-2.636,0.208l4.462,6.937l-0.535,0.1l-1.595,0.295l1.7,2.898l1.783-0.388l5.23,9.296
	c0,0,6.35,12.39,11.438,9.697l2.268-1.668l-2.307-3.307C173.746,149.053,171.001,152.346,168.611,148.988z"/>
<path fill="#5A5D60" d="M169.607,128.656c-0.588,0.373-1.135,0.955-1.623,1.791l-0.291,0.893l-0.24-0.42l-0.646-1.117l-2.261,0.422
	l18.153,29.824l2.107-0.803l-5.213-8.751l-0.225-0.379c0,0,2.056,1.149,3.744,0.114c0.695-0.426,1.328-1.219,1.729-2.615
	C186.105,143.248,175.607,124.855,169.607,128.656z M180.251,147.631c-1.28,0.225-2.808-0.349-2.808-0.349l-7.654-12.66
	c0.373-1.541,0.936-2.433,1.615-2.827c3.316-1.918,9.467,7.997,10.404,12.328C182.343,146.59,181.396,147.432,180.251,147.631z"/>
<polygon fill="#5A5D60" points="183.145,126.333 185.632,130.15 187.509,129.884 185.141,125.971 "/>
<polygon fill="#5A5D60" points="191.066,139.279 193.841,143.143 195.5,142.505 193.073,138.641 "/>
<polygon fill="#5A5D60" points="192.927,118.092 191.787,118.338 205.023,146.393 206.279,145.964 "/>
<polygon fill="#5A5D60" points="197.316,117.762 209.959,144.025 211.018,143.641 198.242,117.718 "/>
<polygon fill="#FFFFFF" points="208.396,182.871 208.396,182.868 201.104,186.307 "/>
<polygon fill="#FFFFFF" points="183.811,207.551 183.877,207.682 183.814,207.549 "/>
<polygon fill="#FFFFFF" points="197.682,187.977 197.66,187.932 197.66,187.932 "/>
<polygon fill="#FFFFFF" points="170.771,165.167 168.146,166.369 168.16,166.396 "/>
<polygon fill="#FFFFFF" points="166.934,163.79 164.063,165.132 162.872,162.639 164.055,165.146 "/>
<polygon fill="#FFFFFF" points="174.791,166.662 176.021,169.273 173.343,170.535 172.115,167.928 170.771,165.167 172.032,167.846 
	169.357,169.105 168.175,166.598 165.363,167.922 182.846,204.979 185.656,203.656 186.887,206.262 185.536,203.398 
	188.139,202.154 185.663,203.323 184.654,201.184 187.131,200.016 188.139,202.154 186.982,199.688 189.848,198.326 
	187.307,199.523 186.139,197.048 188.675,195.848 188.52,195.518 188.789,195.389 187.718,193.113 189.857,192.104 190.926,194.37 
	191.257,194.213 193.727,199.438 191.455,194.622 193.861,193.486 196.134,198.305 198.624,203.373 196.271,198.568 
	199.003,197.275 201.337,202.229 202.795,205.141 201.552,202.633 206.727,200.135 208.012,202.677 206.646,199.952 
	209.262,198.652 206.835,199.844 204.412,194.732 206.88,193.604 204.232,194.811 201.777,189.466 204.161,194.661 201.684,195.848 
	199.209,190.65 201.777,189.466 198.984,190.745 198.938,190.645 196.434,191.826 195.152,189.113 195.15,189.113 194.049,186.775 
	196.557,185.592 196.557,185.593 204.914,181.65 203.58,178.84 205.951,177.684 203.189,179.02 202.041,176.585 203.145,178.925 
	200.837,180.016 199.73,177.672 202.041,176.585 199.563,177.746 199.426,177.465 196.73,178.762 195.529,176.223 198.207,174.96 
	195.475,176.229 195.434,176.146 192.939,177.32 191.797,174.904 194.264,173.711 191.643,174.968 191.533,174.751 188.919,175.986 
	187.791,173.336 190.264,172.244 187.755,173.346 185.146,174.577 183.945,172.035 186.555,170.807 183.786,172.09 182.501,169.406 
	183.747,172.048 181.207,173.247 179.958,170.605 179.927,170.539 177.221,171.814 175.975,169.173 175.773,168.749 
	175.773,168.749 "/>
<polygon fill="#1B1C1C" points="182.645,205.073 182.846,204.979 165.363,167.922 165.165,168.016 163.854,165.24 164.055,165.146 
	162.872,162.639 160.663,163.68 165.414,173.75 165.414,173.75 181.807,208.495 183.811,207.551 183.814,207.549 "/>
<polygon fill="#1B1C1C" points="182.846,204.979 182.645,205.073 183.814,207.549 183.877,207.682 186.887,206.262 185.656,203.656 
	"/>
<rect x="185.213" y="200.301" transform="matrix(-0.4263 -0.9046 0.9046 -0.4263 83.4288 456.2502)" fill="#1B1C1C" width="2.366" height="2.736"/>
<polygon fill="#1B1C1C" points="187.307,199.523 189.848,198.326 188.678,195.848 188.675,195.848 186.139,197.048 "/>
<polygon fill="#1B1C1C" points="187.718,193.113 188.789,195.389 188.789,195.391 190.93,194.378 190.926,194.37 189.857,192.104 
	"/>
<rect x="191.133" y="195.119" transform="matrix(-0.4264 -0.9045 0.9045 -0.4264 98.7356 455.5119)" fill="#1B1C1C" width="5.325" height="2.662"/>
<polygon fill="#1B1C1C" points="196.271,198.568 198.624,203.373 201.337,202.229 199.003,197.275 "/>
<polygon fill="#1B1C1C" points="201.552,202.633 202.795,205.141 208.012,202.677 206.727,200.135 "/>
<polygon fill="#1B1C1C" points="206.835,199.844 209.262,198.652 206.88,193.604 204.412,194.732 "/>
<polygon fill="#1B1C1C" points="201.684,195.848 204.161,194.661 201.777,189.466 199.209,190.65 "/>
<polygon fill="#1B1C1C" points="195.152,189.113 196.434,191.826 198.938,190.645 198.938,190.643 197.682,187.977 197.66,187.932 
	"/>
<polygon fill="#1B1C1C" points="196.557,185.592 194.049,186.775 196.557,185.593 "/>
<polygon fill="#1B1C1C" points="204.914,181.65 207.293,180.527 207.348,180.645 205.951,177.684 203.58,178.84 "/>
<polygon fill="#1B1C1C" points="204.914,181.65 196.557,185.593 194.049,186.775 195.15,189.113 195.152,189.113 197.66,187.932 
	197.66,187.932 201.104,186.307 208.396,182.868 208.396,182.867 207.348,180.645 207.293,180.527 "/>
<rect x="200.177" y="177.002" transform="matrix(-0.9039 0.4277 -0.4277 -0.9039 459.8068 253.3067)" fill="#1B1C1C" width="2.553" height="2.588"/>
<polygon fill="#1B1C1C" points="196.73,178.762 199.426,177.465 199.43,177.463 198.207,174.96 195.529,176.223 "/>
<polygon fill="#1B1C1C" points="192.939,177.32 195.434,176.146 195.438,176.146 194.264,173.711 191.797,174.904 "/>
<polygon fill="#1B1C1C" points="188.919,175.986 191.533,174.751 191.533,174.751 190.264,172.244 187.791,173.336 "/>
<rect x="184.409" y="171.286" transform="matrix(-0.9041 0.4273 -0.4273 -0.9041 427.6744 249.4014)" fill="#1B1C1C" width="2.884" height="2.81"/>
<rect x="180.389" y="169.898" transform="matrix(0.4266 0.9044 -0.9044 0.4266 259.1976 -66.2495)" fill="#1B1C1C" width="2.921" height="2.812"/>
<polygon fill="#1B1C1C" points="179.927,170.539 179.932,170.537 178.682,167.896 175.975,169.173 177.221,171.814 "/>
<rect x="172.588" y="167.157" transform="matrix(-0.9047 0.426 -0.426 -0.9047 403.371 246.9891)" fill="#1B1C1C" width="2.96" height="2.885"/>
<polygon fill="#1B1C1C" points="168.24,166.566 168.175,166.598 169.357,169.105 172.032,167.846 170.771,165.167 168.16,166.396 
	"/>
<polygon fill="#1B1C1C" points="163.854,165.24 165.165,168.016 165.363,167.922 168.175,166.598 168.24,166.566 168.16,166.396 
	168.146,166.369 166.934,163.79 164.055,165.146 "/>
<polygon fill="#34A1BE" points="45.229,66.557 55.71,66.557 55.71,54.152 58.628,54.152 58.628,45.513 55.71,45.513 55.71,33.806 
	45.229,33.806 "/>
<rect x="60.41" y="33.806" fill="#34A1BE" width="10.482" height="32.75"/>
<path fill="#34A1BE" d="M102.88,66.557V45.394c0-4.225-0.992-7.349-2.972-9.372c-1.979-2.023-5.032-3.035-9.163-3.035
	c-4.287,0-7.613,1.117-9.979,3.346c-2.367,2.232-3.549,5.364-3.549,9.396v20.828h10.481V58.76h3.021v-8.638h-3.021v-4.08
	c0-2.272,0.817-3.408,2.452-3.408c0.843,0,1.43,0.251,1.756,0.744c0.329,0.495,0.49,1.384,0.49,2.664v20.515H102.88z"/>
<path fill="#34A1BE" d="M121.933,32.987c-1.979,0-3.9,0.375-5.758,1.127c-1.858,0.752-3.41,1.777-4.646,3.074
	c-1.102,1.167-1.881,2.425-2.338,3.777c-0.456,1.351-0.683,3.083-0.683,5.195v20.396h10.481V45.154c0-1.887,0.818-2.832,2.453-2.832
	c1.617,0,2.426,0.688,2.426,2.063c0,1.503-1.056,2.255-3.174,2.255v8.591l1.601,0.025c4.025,0,7.038-0.919,9.036-2.759
	c2.185-2.003,3.278-4.607,3.278-7.827c0-3.309-1.219-6.085-3.654-8.324C128.52,34.109,125.512,32.987,121.933,32.987z"/>
<path fill="#34A1BE" d="M164.323,44.671c0-3.309-1.218-6.085-3.652-8.324c-2.437-2.238-5.446-3.36-9.026-3.36
	c-1.977,0-3.895,0.375-5.754,1.127c-1.861,0.752-3.406,1.777-4.646,3.074c-1.104,1.167-1.88,2.425-2.341,3.777
	c-0.452,1.351-0.684,3.083-0.684,5.195v20.396h10.483V45.154c0-1.887,0.815-2.832,2.45-2.832c1.619,0,2.429,0.688,2.429,2.063
	c0,1.503-1.058,2.255-3.176,2.255v8.591l1.601,0.025c4.028,0,7.043-0.919,9.036-2.759C163.229,50.495,164.323,47.891,164.323,44.671
	z"/>
<polygon fill="#34A1BE" points="183.064,33.806 178.188,40.546 173.643,33.806 163.006,33.806 173.047,48.367 173.047,66.557 
	183.529,66.557 183.529,48.367 193.498,33.806 "/>
<rect x="44.65" y="70.952" fill="#34A1BE" width="5.292" height="17.789"/>
<path fill="#34A1BE" d="M65,88.741V77.376c0-2.215-0.532-3.914-1.597-5.097c-1.064-1.182-2.601-1.771-4.608-1.771
	c-2.016,0-3.629,0.609-4.842,1.825c-1.212,1.216-1.817,2.837-1.817,4.862v11.546h5.291V77.376c0-1.085,0.374-1.628,1.121-1.628
	c0.774,0,1.16,0.543,1.16,1.628v11.365H65z"/>
<polygon fill="#34A1BE" points="66.617,76.06 70.67,76.06 70.67,88.741 75.961,88.741 75.961,76.06 80.002,76.06 80.002,70.952 
	66.617,70.952 "/>
<path fill="#34A1BE" d="M83.059,72.358c-0.978,0.938-1.466,2.259-1.466,3.963v6.972c0,1.764,0.518,3.113,1.55,4.047
	c1.035,0.934,2.528,1.4,4.484,1.4h4.158v-5.082h-3.558c-0.616,0-1.026-0.059-1.225-0.175c-0.2-0.117-0.301-0.362-0.301-0.738
	c0-0.329,0.098-0.564,0.294-0.702c0.196-0.139,0.527-0.209,0.998-0.209h3.453v-3.962h-2.919c-0.556,0-0.944-0.068-1.161-0.202
	c-0.218-0.136-0.325-0.375-0.325-0.723c0-0.591,0.455-0.887,1.367-0.887h3.376v-5.108h-4.601
	C85.412,70.952,84.037,71.421,83.059,72.358z"/>
<path fill="#34A1BE" d="M107.325,76.855c0-1.764-0.634-3.219-1.904-4.368c-1.137-1.023-2.741-1.536-4.809-1.536h-6.79V88.74h5.291
	V75.735h0.939c1.286,0,1.929,0.42,1.929,1.263c0,0.957-0.557,1.435-1.669,1.435h-0.417v4.574l2.568,5.734h5.554l-3.051-7.336
	C106.537,80.17,107.325,78.653,107.325,76.855z"/>
<path fill="#34A1BE" d="M116.083,70.508c-2.016,0-3.631,0.609-4.842,1.825c-1.21,1.216-1.819,2.837-1.819,4.862v11.546h5.294V77.376
	c0-1.085,0.374-1.628,1.119-1.628c0.774,0,1.161,0.543,1.161,1.628v11.365h5.291V77.376c0-2.215-0.533-3.914-1.597-5.097
	C119.626,71.098,118.09,70.508,116.083,70.508z"/>
<path fill="#34A1BE" d="M125.607,72.358c-0.979,0.938-1.465,2.259-1.465,3.963v6.972c0,1.764,0.517,3.113,1.551,4.047
	c1.033,0.934,2.527,1.4,4.481,1.4h4.158v-5.082h-3.558c-0.621,0-1.026-0.059-1.229-0.175c-0.195-0.117-0.299-0.362-0.299-0.738
	c0-0.329,0.1-0.564,0.294-0.702c0.194-0.139,0.526-0.209,0.997-0.209h3.455v-3.962h-2.921c-0.558,0-0.941-0.068-1.161-0.202
	c-0.217-0.136-0.324-0.375-0.324-0.723c0-0.591,0.457-0.887,1.368-0.887h3.376v-5.108h-4.602
	C127.962,70.952,126.586,71.421,125.607,72.358z"/>
<polygon fill="#34A1BE" points="136.77,76.06 140.82,76.06 140.82,88.741 146.113,88.741 146.113,76.06 150.154,76.06 
	150.154,70.952 136.77,70.952 "/>
<path fill="#2D8EA5" d="M171.717,73.15c-1.802-1.591-4.294-2.386-7.48-2.386h-7.262v20.619h5.574V76.686h1.881
	c3.193,0,4.791,1.403,4.791,4.214c0,2.991-1.625,4.488-4.875,4.488h-0.89v6.058c0.769,0.041,1.319,0.06,1.658,0.06
	c2.884,0,5.241-0.986,7.071-2.961c1.83-1.974,2.746-4.521,2.746-7.644C174.932,77.637,173.859,75.053,171.717,73.15z"/>
<path fill="#2D8EA5" d="M190.814,91.383V78.061c0-2.66-0.527-4.626-1.578-5.9c-1.057-1.275-2.678-1.912-4.875-1.912
	c-2.279,0-4.047,0.704-5.31,2.107c-1.257,1.406-1.887,3.376-1.887,5.915v13.112h5.575v-4.909h1.604v-5.437h-1.604v-2.568
	c0-1.431,0.434-2.146,1.305-2.146c0.446,0,0.76,0.156,0.934,0.468s0.262,0.871,0.262,1.678v12.915L190.814,91.383L190.814,91.383z"
	/>
<polygon fill="#2D8EA5" points="202.098,91.383 202.098,79.932 207.395,70.765 201.85,70.765 199.254,75.009 196.84,70.765 
	191.184,70.765 196.523,79.932 196.523,91.383 "/>
</svg>
