<?xml version="1.0" encoding="utf-8"?>
<!-- Generator: Adobe Illustrator 16.0.0, SVG Export Plug-In . SVG Version: 6.00 Build 0)  -->
<!DOCTYPE svg PUBLIC "-//W3C//DTD SVG 1.1//EN" "http://www.w3.org/Graphics/SVG/1.1/DTD/svg11.dtd">
<svg version="1.1" id="Layer_1" xmlns="http://www.w3.org/2000/svg" xmlns:xlink="http://www.w3.org/1999/xlink" x="0px" y="0px"
	 width="250px" height="250px" viewBox="0 0 250 250" enable-background="new 0 0 250 250" xml:space="preserve">
<g id="Layer_1_1_">
</g>
<g>
	<path opacity="0.15" enable-background="new    " d="M169.643,99.873c-0.063-0.065-0.136-0.128-0.201-0.193h45.726V36.005H34.143
		V99.68h39.712c-3.013,2.933-5.75,6.141-8.184,9.583l-4.074-3.913l3.143,5.237c-0.316,0.47-0.614,0.954-0.918,1.433l-0.305-0.188
		L51.16,104.19l4.573,7.641l4.229,7.065c-0.07,0.144-0.136,0.288-0.205,0.432l-4.725-2.364l3.862,4.27
		c-3.702,8.428-5.771,17.734-5.771,27.53c0,37.844,30.68,68.523,68.524,68.523c0.229,0,0.456-0.016,0.686-0.018
		c0.105,0,0.21,0.004,0.315,0.004c0.688,0,1.371-0.012,2.054-0.032c0.466-0.015,0.932-0.039,1.396-0.063
		c0.194-0.01,0.392-0.016,0.584-0.027c0.58-0.032,1.158-0.08,1.734-0.131c0.068-0.006,0.141-0.01,0.21-0.017
		c0.589-0.053,1.174-0.114,1.758-0.183c0.048-0.006,0.097-0.01,0.146-0.016c0.017-0.002,0.029-0.006,0.048-0.008
		c1.14-0.136,2.271-0.299,3.392-0.488c0.01-0.002,0.02-0.006,0.026-0.006c2.241-0.387,4.446-0.887,6.606-1.488
		c0.058-0.018,0.11-0.031,0.166-0.047c3.236-0.916,6.373-2.067,9.392-3.439c0.052-0.023,0.104-0.049,0.151-0.07
		c1.985-0.91,3.918-1.914,5.793-3.007c0.024-0.015,0.054-0.028,0.076-0.042c0.016-0.009,0.027-0.02,0.041-0.025
		c1.096-0.642,2.168-1.313,3.221-2.014c0.037-0.025,0.074-0.051,0.113-0.076c1.045-0.697,2.068-1.426,3.07-2.181
		c0.045-0.033,0.09-0.067,0.135-0.103c0.99-0.75,1.961-1.526,2.907-2.33c0.054-0.047,0.106-0.094,0.16-0.141
		c0.935-0.797,1.848-1.617,2.733-2.468c0.063-0.062,0.121-0.116,0.183-0.174c0.879-0.849,1.733-1.714,2.565-2.604
		c0.063-0.063,0.121-0.132,0.183-0.197c0.827-0.895,1.633-1.809,2.409-2.746c0.055-0.063,0.104-0.129,0.156-0.191
		c0.76-0.923,1.498-1.861,2.207-2.826c8.723-11.498,13.904-25.826,13.904-41.369c0-13.068-3.661-25.281-10.009-35.672l35.002-13.414
		L169.643,99.873z"/>
	<polygon fill="#557C74" points="211.256,95.771 172.695,110.548 165.536,95.965 	"/>
	<circle fill="#72B29D" cx="117.739" cy="144.855" r="68.524"/>
	<path fill="#F1AEA4" d="M176.958,156.736c-0.881,0.682-1.894,1.021-3.024,1.021c-0.814,0-1.699-0.187-2.639-0.539
		c-0.105-0.042-0.211-0.073-0.32-0.116l0.387-0.938l0.172-0.407c1.894,0.78,3.375,0.729,4.537-0.17
		c3.443-2.655,3.481-12.196,3.015-18.221c-1.449-10.106-6.009-19.829-13.61-24.97c-5.806-3.924-15.191-7.564-26.121-9.771
		c-0.852,1.055-4.051,5.364-2.91,9.191c0.768,2.571,3.369,4.483,7.744,5.685l-0.14,0.501l-0.249,0.902
		c-2.921-0.802-5.132-1.934-6.646-3.367c-1.021-0.967-1.734-2.067-2.104-3.312c-1.185-3.987,1.394-8.133,2.718-9.917
		c-22.438-4.18-50.833-2.203-68.355,15.646c0,0-9.868,8.956-7.447,25.956c1.828,0,4.258,0,7.131,0c0.006,0,0.013,0,0.02,0
		c0.209,0,0.419,0,0.634,0c0.479,0,0.968,0,1.469,0c0.689,0,1.396,0,2.123,0c1.893,0,3.917,0,6.042,0c3.73,0,7.773,0,11.976,0
		c0.851,0,1.706,0,2.566,0c-0.004-0.047-0.01-0.104-0.016-0.188c-0.003-0.031-0.008-0.076-0.011-0.115
		c-0.004-0.053-0.008-0.104-0.014-0.16c-0.004-0.063-0.009-0.131-0.017-0.198c0-0.024-0.002-0.046-0.003-0.073
		c-0.002-0.031-0.007-0.068-0.009-0.104c-0.006-0.084-0.011-0.174-0.018-0.271c-0.004-0.059-0.008-0.118-0.012-0.184
		c-0.008-0.11-0.015-0.228-0.021-0.353c-0.004-0.052-0.005-0.104-0.009-0.16c-0.009-0.146-0.016-0.293-0.024-0.451
		c0-0.016-0.001-0.03-0.001-0.047c-0.027-0.596-0.051-1.287-0.065-2.063c0-0.001,0-0.003,0-0.006
		c-0.002-0.229-0.005-0.467-0.007-0.708c0-0.004,0-0.007,0-0.011c0-0.053,0-0.104,0-0.155c-0.002-0.239-0.002-0.483,0-0.735
		c0-0.06,0-0.119,0-0.18c0.002-0.255,0.005-0.516,0.009-0.782c0.001-0.055,0.002-0.108,0.002-0.167c0.003-0.1,0.005-0.199,0.007-0.3
		c0.004-0.188,0.008-0.375,0.015-0.565c0-0.004,0-0.009,0-0.013c0.031-0.993,0.083-2.057,0.165-3.169
		c-3.538,1.709-6.873,2.313-9.776,2.313c-2.073,0-3.924-0.301-5.484-0.703c-1.117-0.287-2.083-0.627-2.867-0.949
		c-0.281-0.115-0.535-0.229-0.768-0.334c-0.91-0.422-1.458-0.76-1.548-0.813l0.779-1.228c0.023,0.012,0.63,0.385,1.688,0.839
		c0.187,0.078,0.396,0.163,0.611,0.247c0.93,0.36,2.107,0.737,3.496,1.021c3.625,0.732,8.612,0.771,14.014-2.08
		c0.068-0.729,0.156-1.479,0.254-2.233c0.004-0.034,0.009-0.067,0.012-0.104c0.1-0.744,0.212-1.5,0.341-2.265
		c0.011-0.06,0.021-0.116,0.03-0.175c0.067-0.385,0.135-0.77,0.208-1.156c0.04-0.2,0.098-0.404,0.137-0.604
		c0.202-1.009,0.422-2.021,0.689-3.04c0.001-0.006,0.002-0.013,0.004-0.02c-1.72-0.873-3.331-1.345-4.818-1.556
		c-6.044-0.854-9.958,2.764-10.008,2.812l-1.007-1.047c0.063-0.059,5.339-4.937,13.148-2.796c0.991,0.271,2.017,0.639,3.083,1.162
		c0.001-0.006,0.004-0.011,0.005-0.017c0.234-0.794,0.495-1.584,0.773-2.369c0.018-0.045,0.034-0.092,0.051-0.137
		c0.045-0.125,0.089-0.25,0.136-0.373c0.004-0.003,0.01-0.003,0.014-0.007c0.849-2.275,1.891-4.497,3.189-6.564
		c0.001-0.003,0.004-0.007,0.005-0.01c-1.109-1.403-5.461-6.046-12.168-2.451l-0.688-1.281c7.107-3.811,12.002,0.569,13.688,2.481
		c0.003-0.004,0.006-0.008,0.009-0.011c0.468-0.667,0.958-1.323,1.487-1.948c2.524-2.988,5.569-5.181,9.073-6.619
		c2.146-0.147,4.311-0.229,6.483-0.243c-0.712,0.099-1.408,0.229-2.09,0.379c-0.348,0.079-0.682,0.181-1.021,0.271
		c-0.319,0.085-0.644,0.162-0.956,0.259c-0.444,0.14-0.877,0.305-1.308,0.469c-0.186,0.071-0.375,0.131-0.558,0.207
		c-0.497,0.205-0.981,0.433-1.458,0.67c-0.101,0.05-0.204,0.094-0.303,0.146c-0.521,0.27-1.028,0.563-1.523,0.873
		c-0.045,0.028-0.094,0.055-0.14,0.084c-0.523,0.333-1.035,0.691-1.53,1.07c-0.014,0.009-0.026,0.019-0.038,0.029
		c-0.542,0.416-1.062,0.869-1.569,1.334c-0.35,0.325-0.686,0.672-1.018,1.022c-0.09,0.093-0.18,0.187-0.268,0.282
		c4.081-2.199,10.773-4.485,15.975,0.159l-0.969,1.084c-6.721-6.006-16.571,1.325-17.667,2.176l-0.002,0.002
		c-0.005,0.007-0.011,0.018-0.017,0.028c-0.42,0.657-0.816,1.329-1.188,2.018c-0.004,0.009-0.01,0.019-0.016,0.028
		c-0.374,0.696-0.722,1.408-1.045,2.13c-0.007,0.015-0.013,0.03-0.02,0.044c-0.177,0.395-0.33,0.801-0.491,1.201
		c-0.13,0.318-0.25,0.638-0.372,0.96c-0.163,0.433-0.325,0.865-0.473,1.302c-0.095,0.274-0.191,0.546-0.28,0.822
		c-0.018,0.058-0.032,0.118-0.051,0.178c2.785-1.801,9.636-4.731,18.574,1.896l-0.688,0.926l-0.179,0.241
		c-0.129-0.096-0.254-0.179-0.382-0.271c-10.477-7.489-17.38-1.009-17.67-0.723l-0.35,0.338c-0.006,0.024-0.011,0.047-0.017,0.07
		c-0.182,0.711-0.343,1.421-0.49,2.128c-0.02,0.086-0.038,0.173-0.057,0.26c-0.005,0.016-0.006,0.032-0.01,0.05
		c-0.145,0.714-0.277,1.428-0.396,2.131c-0.004,0.035-0.012,0.069-0.017,0.104c-0.143,0.86-0.259,1.706-0.362,2.538
		c-0.034,0.279-0.063,0.551-0.094,0.824c-0.039,0.354-0.072,0.701-0.106,1.05c2.869,1.09,13.527,4.579,21.297-0.253l0.767,1.234
		c-8.107,5.045-18.675,1.836-22.199,0.523c-0.027,0.38-0.052,0.752-0.073,1.121c-0.021,0.328-0.046,0.673-0.062,0.988
		c-0.02,0.422-0.029,0.813-0.042,1.213c-0.01,0.291-0.023,0.603-0.029,0.883c-0.017,0.803-0.02,1.55-0.014,2.236
		c0.016,1.804,0.09,3.172,0.143,3.932c0.021,0.287,0.038,0.498,0.045,0.597c0.005,0.042,0.008,0.068,0.008,0.074l-0.722,0.071
		c1.09,0,2.187,0,3.287,0c1.294,0,2.597,0,3.899,0c0.563,0,1.125,0,1.688,0c2.19,0,4.385,0,6.562,0c2.779,0,5.531,0,8.215,0
		c4.699,0,9.188,0,13.251,0c5.428,0,10.09,0,13.465,0c1.34,0,2.479,0,3.381,0c0.48,0,0.892,0,1.23,0c0.162,0,0.305,0,0.436,0
		c0-0.006,0-0.01,0-0.016c0.004-0.05,0.14-1.375,1.148-2.707c0.824-1.086,2.229-2.172,4.633-2.576
		c-1.402-3.691-3.467-6.332-5.863-7.476c-1.314-0.629-2.666-0.741-3.799-0.323l-3.604,1.146l-2.723,0.861
		c-0.188,0.211-0.467,0.496-0.811,0.828c-0.572,0.553-1.35,1.233-2.32,1.948c-2.725,2.009-6.975,4.231-12.438,4.231
		c-0.812,0-1.649-0.051-2.51-0.154c-0.854-0.104-1.73-0.266-2.632-0.486l0.35-1.412c1.391,0.346,2.714,0.516,3.976,0.566
		c4.684,0.201,8.457-1.357,11.122-3.046c1.243-0.787,2.249-1.593,2.984-2.259c0.946-0.861,1.461-1.486,1.479-1.512l0.021,0.018
		l2.022-0.646l4.606-1.461c0.362-0.137,0.748-0.229,1.146-0.277c0.334-0.047,0.676-0.045,1.022-0.027
		c0.063,0.004,0.125-0.008,0.188-0.004c0.811,0.063,1.643,0.287,2.457,0.664c0.019,0.009,0.034,0.012,0.053,0.019
		c0.244-1.306,0.027-2.403-0.657-3.334c-3.089-4.186-14.271-3.557-14.388-3.552l-0.086-1.451c0.49-0.031,12.09-0.676,15.643,4.141
		c1.023,1.384,1.286,3.056,0.801,4.976c0.84,0.586,1.629,1.336,2.355,2.229c0.002,0.004,0.004,0.008,0.007,0.013
		c0.241,0.296,0.476,0.606,0.704,0.937c0,0,0.003,0,0.003,0.002c0.144-0.449,0.349-0.949,0.618-1.455
		c0.646-1.209,1.707-2.476,3.48-3.283c0.027-0.09,0.137-0.475,0.273-1.053c0.121-0.512,0.267-1.187,0.402-1.974
		c0.586-3.365,0.998-8.733-1.469-11.975c-1.457-1.916-3.813-2.854-6.939-2.773l-0.098,0.001l-0.095-0.023
		c-0.021-0.006-1.868-0.447-3.138,0.331c-0.57,0.351-0.938,0.896-1.119,1.667l-1.415-0.332c0.271-1.156,0.87-2.023,1.784-2.58
		c1.602-0.976,3.65-0.626,4.136-0.52c3.545-0.075,6.301,1.061,8.043,3.351c2.615,3.441,2.431,8.715,1.879,12.336
		c-0.19,1.241-0.423,2.292-0.599,3.004c0.429-0.104,0.889-0.178,1.38-0.229c-0.103-1.046-0.015-2.073,0.171-3.021
		c0.51-2.65,1.781-4.695,1.868-4.83l1.226,0.781c-0.015,0.026-1.009,1.627-1.535,3.742c-0.386,1.535-0.521,3.341,0.144,5.015
		c0.032,0.086,0.084,0.164,0.122,0.248c0.328,0.729,0.797,1.395,1.406,1.987c0.676,0.651,1.523,1.22,2.533,1.701
		c0.418,0.2,0.859,0.388,1.334,0.558c0.539,0.192,1.104,0.377,1.713,0.532l-0.355,1.407c-0.596-0.148-1.151-0.323-1.688-0.512
		c-0.311-0.107-0.604-0.227-0.895-0.346c-2.051-0.848-3.59-1.988-4.613-3.416c-0.363-0.512-0.683-1.051-0.914-1.635
		c-0.009-0.021-0.011-0.039-0.02-0.06c-0.092-0.242-0.172-0.483-0.238-0.726c-0.416,0.036-0.795,0.104-1.156,0.184
		c-2.425,0.529-3.715,1.889-4.395,3.162c-0.583,1.092-0.727,2.119-0.758,2.502c0.002,0.003,0.002,0.003,0.005,0.005
		c0.269,0.508,0.524,1.041,0.767,1.597c0.01,0.02,0.02,0.035,0.027,0.055c0.244,0.568,0.474,1.166,0.686,1.789l0.299,0.879
		l-0.926,0.078c-2.919,0.246-4.255,1.553-4.867,2.607c-0.441,0.766-0.513,1.402-0.514,1.416c-0.047,2.283-0.002,4.426,0.131,6.434
		c0.121,0.822,0.198,1.66,0.223,2.514c0.443,3.994,1.287,7.352,2.515,10.021c1.146,2.504,2.621,4.406,4.428,5.652
		c3.448,2.379,7.214,1.844,8.966,1.402c0.039-0.01,0.074-0.021,0.116-0.026c2.646-1.351,4.834-3.437,6.578-6.028
		c2.401-3.57,3.959-8.109,4.672-13.06c-0.229,1.549-0.54,3.051-0.919,4.487C177.85,155.902,177.434,156.369,176.958,156.736z
		 M71.243,138.891c-0.131,0.25-0.247,0.504-0.371,0.754l0.001-0.002c-0.011,0.024-0.023,0.049-0.034,0.07
		c-0.045,0.096-0.086,0.189-0.132,0.284c-0.001,0-0.003,0-0.006-0.002c-0.078-0.006-0.158-0.013-0.235-0.021
		c-0.112-0.01-0.229-0.016-0.341-0.023c-4.781-0.45-7.189-1.803-8.38-3.023c0.047-0.779,0.112-1.551,0.208-2.303l0.045-0.005
		c0.005,0.032,0.478,2.946,7.464,3.801c0.597,0.075,1.233,0.134,1.929,0.175c0.005,0,0.01,0,0.017,0
		C71.353,138.693,71.294,138.792,71.243,138.891z M73.625,126.492c-2.874-0.374-7.655-3.25-7.958-3.434
		c0.242-0.421,0.492-0.839,0.75-1.248c0.008,0.004,0.035,0.021,0.073,0.043l0.032-0.049c0,0,0.009,0.003,0.009,0.006
		c-0.01,0.017-0.021,0.034-0.03,0.049c0.651,0.387,4.903,2.874,7.313,3.19L73.625,126.492z M83.759,113.609
		c-1.421-1.967-5.826-1.663-7.398-1.379l-0.018-0.092c0.75-0.541,1.525-1.059,2.321-1.561c2.097-0.029,4.923,0.312,6.271,2.18
		L83.759,113.609z M167.229,148.682c-3.258,0.939-4.855,4.824-4.873,4.863L161.007,153c0.058-0.143,1.126-2.721,3.365-4.445
		c0.702-0.539,1.517-0.998,2.454-1.271c0.088-0.025,0.179-0.036,0.267-0.058c0.392-0.095,0.784-0.15,1.187-0.178v-0.002
		c0.75-0.197,1.438-0.456,2.068-0.755c1.732-0.825,3.02-2.021,3.825-3.574c1.744-3.354,0.894-7.567,0.409-9.327
		c-0.143-0.513-0.252-0.826-0.255-0.842l0.196-0.07l1.164-0.433c0.099,0.263,2.321,6.427-0.225,11.335
		c-0.917,1.775-2.35,3.143-4.242,4.1c1.055,0.359,2.137,0.931,3.241,1.729l-0.853,1.181c-0.938-0.68-1.844-1.166-2.721-1.481
		C169.598,148.439,168.368,148.357,167.229,148.682z"/>
	<path fill="#F1AEA4" d="M95.185,136.997c-0.013,0.596-0.021,0.938-0.027,1.119c0.004,0.17,0.01,0.505,0.014,1.12
		C95.166,138.547,95.167,137.8,95.185,136.997z"/>
	<path fill="#90544E" d="M68.184,147.089c0.066-0.28,0.145-0.557,0.216-0.835c0.165-0.623,0.346-1.244,0.545-1.855
		c0.052-0.16,0.088-0.324,0.143-0.485c-2.873,0-5.303,0-7.131,0l5.696,5.823c0.015-0.098,0.043-0.191,0.057-0.293
		C67.841,148.65,67.998,147.865,68.184,147.089z"/>
	<path fill="#FFFFFF" d="M95.012,124.527c-0.04,0.2-0.097,0.404-0.137,0.604c0.005-0.001,0.011-0.003,0.016-0.005
		C94.928,124.928,94.972,124.728,95.012,124.527z"/>
	<path fill="#FFFFFF" d="M93.587,100.129c-0.055,0.145-0.106,0.292-0.16,0.439c0.056-0.15,0.122-0.297,0.177-0.448
		C93.599,100.125,93.592,100.125,93.587,100.129z"/>
	<path fill="#FFFFFF" d="M97.06,122.2c0.007-0.023,0.012-0.045,0.018-0.07l-0.001,0.001C97.069,122.155,97.065,122.177,97.06,122.2z
		"/>
	<polygon fill="#FFFFFF" points="145.708,129.439 141.1,130.9 141.102,130.9 	"/>
	<path fill="#FFFFFF" d="M148.064,129.13c0.808,0.062,1.642,0.287,2.455,0.664C149.706,129.417,148.874,129.189,148.064,129.13z"/>
	<path fill="#FFFFFF" d="M165.029,174.671c1.017-1.491,1.928-3.034,2.715-4.627c-2.012,0.746-4.21,0.833-6.551,0.083
		c-3.317-1.064-5.62-3.268-7.215-5.963c-4.961,14.109-21.758,24.586-41.815,24.744c-24.066,0.189-43.693-14.537-43.84-32.896
		c-0.018-2.177,0.25-4.309,0.758-6.375l-1.425,0.1h-0.004c-0.003,0.021-0.004,0.039-0.009,0.061
		c-0.125,0.813-0.218,1.633-0.286,2.457c-0.009,0.092-0.019,0.186-0.025,0.275c-0.065,0.869-0.101,1.748-0.094,2.636
		c0.125,18.089,14.602,33.386,34.73,39.03c5.517,1.551,11.454,2.379,17.642,2.334c0.54-0.004,1.076-0.018,1.612-0.031
		C140.16,195.9,156.48,187.217,165.029,174.671z"/>
	<polygon fill="#D0D1D2" points="141.1,130.9 139.076,131.546 141.102,130.9 	"/>
	<path fill="#D0D1D2" d="M130.007,175.439c-12.174,0.086-22.109-9.646-22.193-21.739c-0.019-2.394,0.366-4.692,1.064-6.854
		l-3.748,0.264c0.714,1.882,1.132,3.904,1.149,6.027c0.076,9.717-7.854,17.658-17.713,17.733
		c-9.859,0.08-17.915-7.733-17.992-17.452c-0.01-1.348,0.146-2.654,0.427-3.916l-1.919,0.133c-0.508,2.067-0.775,4.199-0.758,6.377
		c0.146,18.358,19.772,33.086,43.84,32.896c20.059-0.158,36.855-10.637,41.816-24.744c-1.176-1.982-1.963-4.229-2.48-6.492
		C149.564,167.73,140.706,175.368,130.007,175.439z M105.391,166.475c0.012-0.022,2.315-4.684,5.438,3.6l-5.219,4.482l-0.08-0.07
		l-4.478-4.019C101.054,170.468,103.986,162.77,105.391,166.475z M88.819,177.604c-0.537,0.215-1.054-0.029-1.054-0.029
		s0.223-0.539,0.815-0.691c0.281-0.109,0.625-0.193,1.003-0.244c0.376-0.049,0.777-0.101,1.178-0.148
		c0.792-0.135,1.598-0.174,2.198-0.153c0.298,0.017,0.544,0.079,0.717,0.101c0.17,0.028,0.269,0.045,0.269,0.045
		s-0.1-0.006-0.274-0.012c-0.172-0.003-0.418-0.037-0.711-0.02c-0.591,0.047-1.365,0.176-2.121,0.392
		c-0.375,0.125-0.746,0.25-1.08,0.417C89.42,177.4,89.102,177.52,88.819,177.604z M123.318,178.271
		c-0.676,0.154-1.438,0.336-2.269,0.527c-0.831,0.213-1.743,0.375-2.712,0.526c-0.964,0.174-1.989,0.317-3.054,0.423
		c-2.124,0.271-4.409,0.402-6.691,0.432c-2.285,0.043-4.57-0.035-6.707-0.193c-1.065-0.106-2.101-0.162-3.073-0.305
		c-0.975-0.117-1.895-0.248-2.739-0.387c-1.696-0.255-3.093-0.563-4.07-0.779c-0.494-0.107-0.866-0.213-1.115-0.279
		c-0.255-0.068-0.39-0.106-0.39-0.106l0.189-0.993c0,0,0.562,0.104,1.54,0.286c0.968,0.185,2.357,0.403,4.028,0.646
		c1.671,0.25,3.631,0.445,5.732,0.654c0.701,0.051,1.438,0.104,2.166,0.147c1.457,0.099,2.938,0.185,4.438,0.198
		c1.126,0.021,2.253,0.022,3.362-0.02c1.11-0.006,2.2-0.055,3.254-0.137c1.057-0.053,2.074-0.146,3.036-0.271
		c0.962-0.109,1.88-0.185,2.713-0.34c0.837-0.132,1.605-0.253,2.286-0.357c0.675-0.146,1.262-0.271,1.747-0.377
		c0.975-0.193,1.53-0.31,1.53-0.31l0.006,0.017c0,0-0.543,0.17-1.489,0.477C124.562,177.895,123.983,178.068,123.318,178.271z"/>
	<path fill="#D0D1D2" d="M93.722,135.938c-0.006,0.19-0.011,0.379-0.015,0.565c0,0,0,0,0.001,0
		C93.712,136.314,93.715,136.13,93.722,135.938z"/>
	<path fill="#D0D1D2" d="M150.788,143.91l-1.124,0.078c0.354,0.726,0.671,1.473,0.945,2.236
		C150.68,144.794,150.788,143.91,150.788,143.91z"/>
	<path fill="#D0D1D2" d="M94.875,125.131c-0.073,0.387-0.141,0.771-0.208,1.156c0.067-0.385,0.148-0.773,0.224-1.161
		C94.886,125.128,94.88,125.13,94.875,125.131z"/>
	<path fill="#FFFFFF" d="M93.707,136.503c-0.002,0.101-0.004,0.2-0.007,0.3c0.003-0.099,0.005-0.201,0.009-0.3
		C93.707,136.503,93.707,136.503,93.707,136.503z"/>
	<path fill="#FFFFFF" d="M88.566,170.871c9.858-0.075,17.789-8.018,17.713-17.732c-0.018-2.125-0.436-4.146-1.149-6.029l-1.352,0.1
		c0.25,0.585,0.477,1.188,0.651,1.816c2.107,7.646-2.381,15.551-10.023,17.652c-7.644,2.108-15.546-2.38-17.652-10.023
		c-0.708-2.565-0.655-5.156-0.005-7.555l-5.748,0.403c-0.28,1.263-0.437,2.569-0.427,3.916
		C70.652,163.137,78.707,170.951,88.566,170.871z"/>
	<path fill="#FFFFFF" d="M130.007,175.439c10.699-0.071,19.56-7.709,21.492-17.771c-0.349-1.513-0.576-3.028-0.722-4.479
		c-0.215,7.455-5.229,14.22-12.795,16.303c-9.283,2.558-18.882-2.896-21.438-12.176c-1.048-3.803-0.734-7.649,0.618-11.055
		l-8.284,0.579c-0.699,2.161-1.083,4.46-1.064,6.854C107.897,165.793,117.833,175.525,130.007,175.439z"/>
	<path fill="#FFFFFF" d="M150.576,150.07c-0.047-1.496-0.018-2.813,0.033-3.846c-0.274-0.767-0.592-1.514-0.945-2.235l-1.178,0.083
		c0.697,1.229,1.275,2.557,1.67,3.984C150.343,148.729,150.475,149.4,150.576,150.07z"/>
	<path fill="#0D72B9" d="M76.754,156.652c2.106,7.646,10.009,12.134,17.652,10.022c7.643-2.104,12.132-10.007,10.023-17.649
		c-0.175-0.633-0.401-1.234-0.651-1.819l-2.469,0.174c1.043,2.251,0.945,4.968-0.533,7.181c-2.266,3.387-6.841,4.297-10.223,2.037
		h0.001c-1.271-0.849-2.168-2.029-2.697-3.343c-1.001,0.25-2.028-0.336-2.304-1.337c-0.279-1.016,0.318-2.064,1.333-2.346
		c0.162-0.045,0.322-0.031,0.483-0.035c0.052-0.402,0.133-0.805,0.253-1.199L76.747,149.1
		C76.099,151.495,76.046,154.086,76.754,156.652z"/>
	<path fill="#1A4680" d="M89.234,150.904c0.279,1.018-0.315,2.066-1.332,2.348c-0.015,0.004-0.03,0-0.044,0.003
		c0.529,1.313,1.425,2.494,2.697,3.343h-0.001c3.382,2.26,7.958,1.352,10.223-2.037c1.479-2.213,1.576-4.93,0.533-7.181
		l-2.047,0.142c1.077,1.304,1.239,3.199,0.259,4.679c-1.207,1.803-3.64,2.28-5.434,1.082l0.006-0.005
		c-1.761-1.176-2.252-3.522-1.146-5.313l-5.324,0.373c-0.12,0.395-0.201,0.797-0.253,1.199
		C88.218,149.527,88.998,150.05,89.234,150.904z"/>
	<path fill="#FFFFFF" d="M94.095,153.277l-0.006,0.002c1.794,1.201,4.228,0.721,5.434-1.082c0.98-1.479,0.818-3.375-0.259-4.676
		l-6.313,0.44C91.843,149.752,92.334,152.102,94.095,153.277z"/>
	<path fill="#0D72B9" d="M116.544,157.32c2.558,9.281,12.155,14.729,21.438,12.175c7.563-2.083,12.578-8.847,12.795-16.302
		c-0.108-1.092-0.172-2.146-0.201-3.123c-0.104-0.67-0.233-1.344-0.42-2.014c-0.396-1.431-0.973-2.756-1.67-3.984l-3.149,0.222
		c2.315,2.959,2.597,7.183,0.388,10.479c-2.742,4.113-8.306,5.222-12.408,2.477l-0.01,0.004c-1.541-1.029-2.644-2.459-3.295-4.053
		c-1.213,0.293-2.443-0.42-2.777-1.631c-0.34-1.235,0.386-2.51,1.619-2.854c0.188-0.052,0.377-0.068,0.563-0.072
		c0.147-1.143,0.511-2.269,1.117-3.313l-13.37,0.937C115.81,149.67,115.496,153.52,116.544,157.32z"/>
	<path fill="#1A4680" d="M131.703,150.34c0.34,1.233-0.385,2.508-1.62,2.85c-0.022,0.006-0.048,0.006-0.071,0.015
		c0.651,1.594,1.754,3.021,3.295,4.053l0.01-0.004c4.104,2.745,9.666,1.64,12.408-2.479c2.209-3.297,1.93-7.521-0.388-10.479
		l-4.183,0.292c0.603,0.117,1.188,0.353,1.732,0.714c2.186,1.451,2.771,4.412,1.313,6.594c-1.465,2.186-4.411,2.771-6.604,1.308
		l0.006,0.021c-2.186-1.465-2.773-4.412-1.313-6.601c0.612-0.929,1.501-1.547,2.479-1.867l-8.235,0.579
		c-0.606,1.047-0.97,2.173-1.117,3.313C130.452,148.62,131.414,149.293,131.703,150.34z"/>
	<path fill="#FFFFFF" d="M136.288,146.62c-1.46,2.187-0.869,5.136,1.313,6.601l-0.006-0.021c2.189,1.463,5.139,0.878,6.604-1.306
		c1.46-2.184,0.873-5.145-1.313-6.596c-0.544-0.361-1.133-0.597-1.732-0.714l-2.387,0.167
		C137.789,145.073,136.9,145.693,136.288,146.62z"/>
	<path fill="#D0D1D2" d="M69.082,149.637c0.486-1.976,1.205-3.888,2.127-5.727c-0.501,0-0.99,0-1.469,0c-0.215,0-0.425,0-0.634,0
		c-0.007,0-0.014,0-0.02,0c-0.055,0.16-0.091,0.326-0.143,0.488c-0.199,0.608-0.38,1.229-0.545,1.854
		c-0.072,0.277-0.149,0.557-0.216,0.835c-0.186,0.776-0.342,1.563-0.474,2.354c-0.014,0.101-0.042,0.195-0.057,0.295h0.004
		L69.082,149.637z"/>
	<path fill="#C2C1CD" d="M71.001,149.503c0.449-2.017,1.246-3.899,2.33-5.593c-0.729,0-1.434,0-2.123,0
		c-0.922,1.839-1.641,3.751-2.127,5.727L71.001,149.503z"/>
	<path fill="#C2C1CD" d="M108.878,146.848c0.329-1.014,0.737-1.992,1.206-2.938c-2.177,0-4.371,0-6.562,0
		c0.643,1.003,1.182,2.072,1.608,3.199L108.878,146.848z"/>
	<path fill="#D0D1D2" d="M76.749,149.1c0.514-1.894,1.408-3.658,2.624-5.188c-2.125,0-4.148,0-6.042,0
		c-1.084,1.691-1.881,3.576-2.33,5.593L76.749,149.1z"/>
	<path fill="#D0D1D2" d="M105.13,147.109c-0.427-1.127-0.966-2.196-1.608-3.199c-0.563,0-1.127,0-1.688,0
		c0.783,0.986,1.434,2.096,1.945,3.296L105.13,147.109z"/>
	<path fill="#D0D1D2" d="M149.664,143.988l1.124-0.078c0,0-0.259,0-0.729,0c-0.129,0-0.271,0-0.435,0c-0.342,0-0.75,0-1.231,0
		c0.03,0.055,0.063,0.107,0.094,0.162L149.664,143.988z"/>
	<path fill="#D0D1D2" d="M117.162,146.268c0.323-0.813,0.696-1.602,1.136-2.354c-2.684,0-5.436,0-8.215,0
		c-0.469,0.942-0.876,1.924-1.206,2.938L117.162,146.268z"/>
	<path fill="#0B659B" d="M87.625,148.338c0.206-0.677,0.478-1.342,0.89-1.96c0.736-1.103,1.729-1.913,2.833-2.468
		c-4.201,0-8.245,0-11.976,0c-1.216,1.531-2.11,3.296-2.624,5.188L87.625,148.338z"/>
	<path fill="#0B659B" d="M101.311,147.38l2.469-0.174c-0.513-1.2-1.162-2.31-1.945-3.296c-1.303,0-2.606,0-3.899,0
		c0.271,0.137,0.547,0.257,0.806,0.429C99.91,145.119,100.761,146.188,101.311,147.38z"/>
	<path fill="#1C4773" d="M88.515,146.378c-0.413,0.618-0.684,1.283-0.89,1.96l5.324-0.373c0.021-0.04,0.036-0.081,0.063-0.119
		c1.198-1.798,3.632-2.287,5.435-1.088c0.32,0.217,0.584,0.481,0.817,0.764l2.047-0.142c-0.55-1.192-1.4-2.261-2.57-3.041
		c-0.259-0.172-0.534-0.292-0.806-0.429c-1.101,0-2.197,0-3.287,0c-0.243,0-0.487,0-0.731,0c-0.861,0-1.716,0-2.566,0
		C90.244,144.465,89.251,145.275,88.515,146.378z"/>
	<path fill="#D0D1D2" d="M98.445,146.758c-1.802-1.199-4.236-0.71-5.435,1.088c-0.026,0.038-0.04,0.079-0.063,0.119l6.313-0.443
		C99.029,147.238,98.767,146.975,98.445,146.758z"/>
	<path fill="#0B659B" d="M148.486,144.072c-0.032-0.055-0.063-0.107-0.094-0.162c-0.9,0-2.041,0-3.381,0
		c0.11,0.126,0.221,0.253,0.322,0.384L148.486,144.072z"/>
	<path fill="#0B659B" d="M130.532,145.332c0.097-0.167,0.188-0.334,0.295-0.496c0.222-0.33,0.465-0.634,0.723-0.926
		c-4.063,0-8.552,0-13.251,0c-0.439,0.756-0.813,1.544-1.136,2.357L130.532,145.332z"/>
	<path fill="#1C4773" d="M130.532,145.332l8.235-0.579c0.768-0.25,1.582-0.323,2.387-0.167l4.183-0.292
		c-0.104-0.131-0.212-0.258-0.323-0.384c-3.375,0-8.037,0-13.464,0c-0.258,0.292-0.501,0.596-0.723,0.926
		C130.721,144.998,130.629,145.165,130.532,145.332z"/>
	<path fill="#D0D1D2" d="M138.77,144.753l2.388-0.167C140.352,144.43,139.535,144.503,138.77,144.753z"/>
	<path fill="#FFFFFF" d="M89.234,150.904c-0.236-0.854-1.018-1.377-1.863-1.367c-0.161,0.004-0.321-0.01-0.483,0.035
		c-1.015,0.279-1.612,1.33-1.333,2.346c0.275,1.001,1.303,1.587,2.304,1.337c0.014-0.003,0.029,0.001,0.044-0.003
		C88.919,152.973,89.514,151.922,89.234,150.904z"/>
	<path fill="#FFFFFF" d="M131.703,150.34c-0.289-1.047-1.251-1.72-2.288-1.693c-0.188,0.004-0.376,0.021-0.563,0.074
		c-1.232,0.342-1.957,1.614-1.619,2.85c0.334,1.214,1.565,1.927,2.777,1.634c0.024-0.009,0.049-0.009,0.072-0.015
		C131.318,152.848,132.043,151.573,131.703,150.34z"/>
	<path fill="#6F7072" d="M126.521,177.262c0,0-0.559,0.112-1.53,0.309c-0.485,0.104-1.072,0.229-1.747,0.378
		c-0.68,0.104-1.449,0.228-2.286,0.356c-0.833,0.155-1.751,0.229-2.713,0.34c-0.962,0.125-1.979,0.222-3.036,0.271
		c-1.054,0.082-2.145,0.131-3.254,0.137c-1.109,0.043-2.235,0.038-3.362,0.018c-1.501-0.014-2.982-0.1-4.438-0.196
		c-0.729-0.047-1.464-0.099-2.166-0.147c-2.102-0.209-4.062-0.401-5.732-0.651c-1.671-0.242-3.061-0.464-4.028-0.646
		c-0.979-0.184-1.541-0.287-1.541-0.287l-0.188,0.993c0,0,0.135,0.038,0.39,0.104c0.249,0.068,0.621,0.174,1.115,0.279
		c0.978,0.219,2.374,0.526,4.07,0.781c0.845,0.139,1.765,0.268,2.738,0.387c0.974,0.143,2.009,0.195,3.074,0.303
		c2.137,0.158,4.422,0.238,6.707,0.195c2.283-0.024,4.567-0.156,6.691-0.432c1.064-0.104,2.09-0.249,3.054-0.423
		c0.969-0.149,1.881-0.313,2.712-0.524c0.831-0.193,1.593-0.373,2.269-0.531c0.665-0.199,1.243-0.377,1.72-0.521
		c0.946-0.305,1.489-0.476,1.489-0.476L126.521,177.262z"/>
	<path fill="#CE807D" d="M135.043,112.226c0.37,1.244,1.084,2.344,2.105,3.312c1.516,1.433,3.727,2.564,6.646,3.367l0.249-0.902
		l0.139-0.501c-4.375-1.201-6.979-3.114-7.744-5.685c-1.14-3.827,2.063-8.136,2.91-9.191c0.045-0.054,0.09-0.106,0.118-0.143
		c-0.538-0.105-1.082-0.194-1.622-0.29c-0.025,0.036-0.059,0.079-0.087,0.116C136.436,104.093,133.859,108.239,135.043,112.226z"/>
	<path fill="#CE807D" d="M150.609,146.225c-0.051,1.034-0.08,2.353-0.033,3.846c0.029,0.98,0.093,2.031,0.201,3.125
		c0.146,1.445,0.373,2.967,0.722,4.479c0.521,2.265,1.308,4.511,2.479,6.492c1.595,2.692,3.896,4.896,7.215,5.963
		c2.341,0.75,4.539,0.663,6.551-0.083c0.129-0.048,0.259-0.089,0.386-0.145c-0.069,0.021-0.157,0.041-0.241,0.063
		c-0.043,0.011-0.08,0.021-0.119,0.028c-1.75,0.438-5.516,0.975-8.963-1.404c-1.808-1.246-3.283-3.148-4.429-5.652
		c-1.226-2.668-2.067-6.022-2.513-10.021c-0.023-0.854-0.102-1.688-0.223-2.513c-0.135-2.008-0.18-4.148-0.132-6.434
		c0-0.015,0.068-0.65,0.513-1.416c0.612-1.059,1.949-2.361,4.867-2.609l0.926-0.076l-0.297-0.879
		c-0.213-0.623-0.44-1.221-0.688-1.788c-0.01-0.021-0.021-0.036-0.025-0.058c-0.24-0.556-0.498-1.088-0.769-1.597
		c-0.002-0.002-0.002-0.002-0.004-0.004c0.03-0.384,0.174-1.411,0.757-2.502c0.682-1.274,1.97-2.633,4.396-3.163
		c0.359-0.079,0.739-0.146,1.155-0.186c0.066,0.242,0.146,0.484,0.237,0.728c0.009,0.021,0.011,0.039,0.021,0.06
		c0.229,0.584,0.549,1.125,0.914,1.637c1.021,1.426,2.563,2.568,4.611,3.417c0.289,0.118,0.584,0.233,0.895,0.344
		c0.535,0.188,1.092,0.358,1.688,0.513l0.357-1.408c-0.611-0.155-1.176-0.34-1.713-0.532c-0.477-0.17-0.916-0.354-1.336-0.558
		c-1.01-0.481-1.856-1.051-2.531-1.703c-0.611-0.594-1.078-1.258-1.408-1.985c-0.038-0.085-0.088-0.162-0.122-0.248
		c-0.665-1.676-0.526-3.479-0.144-5.015c0.526-2.115,1.521-3.715,1.537-3.742l-1.228-0.781c-0.086,0.135-1.356,2.18-1.868,4.83
		c-0.186,0.948-0.271,1.977-0.171,3.021c-0.49,0.051-0.951,0.127-1.38,0.229c0.176-0.712,0.406-1.764,0.599-3.004
		c0.552-3.622,0.736-8.895-1.879-12.336c-1.741-2.29-4.498-3.425-8.043-3.351c-0.483-0.107-2.532-0.457-4.136,0.52
		c-0.914,0.557-1.516,1.424-1.784,2.58l1.415,0.332c0.182-0.771,0.549-1.315,1.12-1.667c1.271-0.778,3.116-0.337,3.137-0.331
		l0.095,0.023l0.099-0.001c3.128-0.08,5.483,0.858,6.94,2.773c2.465,3.242,2.053,8.61,1.467,11.976
		c-0.138,0.786-0.28,1.463-0.402,1.975c-0.139,0.578-0.246,0.961-0.273,1.053c-1.772,0.809-2.836,2.072-3.48,3.283
		c-0.271,0.507-0.479,1.007-0.618,1.455c0-0.002-0.003-0.002-0.003-0.004c-0.229-0.328-0.463-0.641-0.704-0.937
		c-0.003-0.005-0.005-0.009-0.007-0.012c-0.729-0.896-1.518-1.646-2.354-2.229c0.483-1.92,0.223-3.593-0.803-4.976
		c-3.553-4.816-15.15-4.171-15.645-4.14l0.088,1.451c0.117-0.005,11.299-0.634,14.388,3.549c0.688,0.933,0.901,2.029,0.658,3.336
		c-0.021-0.008-0.035-0.01-0.056-0.02c-0.813-0.377-1.646-0.604-2.455-0.664c-0.063-0.004-0.125,0.008-0.188,0.004
		c-0.35-0.016-0.689-0.018-1.021,0.028c-0.396,0.05-0.779,0.144-1.146,0.278l-4.605,1.461l-2.023,0.645l-0.021-0.017
		c-0.018,0.024-0.529,0.649-1.479,1.511c-0.734,0.667-1.741,1.473-2.984,2.26c-2.664,1.688-6.438,3.246-11.122,3.045
		c-1.262-0.054-2.585-0.224-3.976-0.566l-0.35,1.41c0.901,0.228,1.777,0.387,2.632,0.488c0.86,0.105,1.698,0.155,2.51,0.155
		c5.463,0,9.713-2.226,12.438-4.231c0.973-0.715,1.748-1.396,2.318-1.947c0.344-0.332,0.621-0.618,0.813-0.829l2.721-0.862
		l3.604-1.146c1.135-0.418,2.482-0.305,3.799,0.324c2.397,1.145,4.463,3.78,5.865,7.478c-2.404,0.401-3.81,1.489-4.634,2.576
		c-1.012,1.329-1.146,2.655-1.147,2.704c0,0.007,0,0.012,0,0.017c0.471,0,0.729,0,0.729,0S150.68,144.794,150.609,146.225z"/>
	<path fill="#CE807D" d="M178.973,136.078c0.041,0.404,0.077,0.839,0.109,1.288c0.47,6.022,0.432,15.563-3.014,18.221
		c-1.164,0.897-2.646,0.95-4.539,0.17l-0.17,0.407l-0.387,0.938c0.108,0.043,0.215,0.075,0.319,0.117
		c0.938,0.354,1.819,0.539,2.64,0.539c1.133,0,2.146-0.34,3.023-1.021c0.477-0.365,0.893-0.834,1.261-1.368
		c0.38-1.438,0.688-2.94,0.921-4.49c0.004-0.036,0.008-0.069,0.014-0.104c0.089-0.604,0.156-1.224,0.225-1.844
		C179.809,144.807,179.714,140.426,178.973,136.078z"/>
	<path fill="#CE807D" d="M170.895,148.909c0.877,0.315,1.783,0.805,2.722,1.481l0.852-1.181c-1.104-0.802-2.188-1.37-3.241-1.729
		c1.896-0.957,3.325-2.321,4.242-4.1c2.547-4.908,0.32-11.072,0.225-11.335l-1.164,0.433l-0.196,0.07
		c0.003,0.016,0.112,0.329,0.255,0.842c0.482,1.76,1.335,5.973-0.408,9.327c-0.81,1.56-2.094,2.749-3.826,3.574
		c-0.633,0.299-1.316,0.558-2.067,0.755v0.002c-0.399,0.024-0.794,0.083-1.187,0.178c-0.089,0.021-0.18,0.029-0.268,0.058
		c-0.938,0.271-1.752,0.729-2.454,1.271c-2.239,1.726-3.31,4.305-3.364,4.445l1.348,0.545c0.018-0.039,1.615-3.924,4.875-4.863
		C168.368,148.357,169.598,148.439,170.895,148.909z"/>
	<path fill="#CE807D" d="M95.368,143.838c0-0.006-0.002-0.031-0.008-0.074c-0.009-0.099-0.025-0.31-0.045-0.597
		c-0.053-0.759-0.128-2.128-0.143-3.931c-0.006-0.688-0.002-1.438,0.013-2.237c0.007-0.28,0.021-0.59,0.03-0.881
		c0.012-0.4,0.023-0.791,0.042-1.214c0.016-0.316,0.042-0.659,0.062-0.989c0.021-0.369,0.046-0.741,0.073-1.121
		c3.524,1.31,14.092,4.521,22.199-0.524l-0.767-1.232c-7.771,4.832-18.428,1.342-21.297,0.252c0.033-0.35,0.067-0.695,0.106-1.051
		c0.03-0.272,0.06-0.545,0.093-0.823c0.104-0.832,0.221-1.681,0.363-2.538c0.005-0.034,0.012-0.066,0.017-0.104
		c0.118-0.705,0.252-1.417,0.396-2.131c0.004-0.018,0.005-0.034,0.01-0.05c0.019-0.087,0.037-0.174,0.057-0.26
		c0.147-0.707,0.309-1.417,0.489-2.128c0.007-0.023,0.011-0.045,0.017-0.068l0.001-0.001l0.35-0.338
		c0.291-0.286,7.193-6.766,17.67,0.723c0.128,0.092,0.253,0.175,0.381,0.271l0.18-0.241l0.688-0.926
		c-8.938-6.627-15.789-3.697-18.575-1.896c0.02-0.06,0.034-0.12,0.052-0.178c0.089-0.276,0.186-0.548,0.279-0.822
		c0.148-0.438,0.312-0.87,0.474-1.302c0.122-0.322,0.242-0.642,0.372-0.96c0.161-0.4,0.313-0.807,0.49-1.201
		c0.008-0.015,0.014-0.03,0.021-0.044c0.323-0.722,0.671-1.434,1.045-2.13c0.005-0.01,0.012-0.02,0.016-0.028
		c0.371-0.688,0.768-1.361,1.188-2.018c0.005-0.01,0.011-0.021,0.017-0.028l0.002-0.002c1.097-0.851,10.946-8.182,17.667-2.176
		l0.969-1.084c-5.2-4.644-11.894-2.357-15.975-0.159c0.088-0.096,0.177-0.189,0.268-0.282c0.332-0.35,0.668-0.697,1.018-1.022
		c0.508-0.465,1.026-0.918,1.569-1.334c0.012-0.01,0.024-0.02,0.038-0.029c0.494-0.379,1.007-0.737,1.53-1.07
		c0.045-0.03,0.095-0.056,0.14-0.084c0.495-0.311,1.002-0.604,1.523-0.873c0.1-0.053,0.202-0.096,0.303-0.146
		c0.476-0.238,0.96-0.465,1.458-0.67c0.182-0.075,0.371-0.136,0.558-0.207c0.431-0.164,0.863-0.329,1.308-0.469
		c0.313-0.097,0.637-0.173,0.956-0.259c0.339-0.09,0.673-0.192,1.021-0.271c0.682-0.15,1.378-0.28,2.09-0.379
		c-2.174,0.014-4.337,0.095-6.483,0.243c-3.504,1.438-6.549,3.631-9.073,6.619c-0.529,0.625-1.021,1.281-1.487,1.948
		c-0.003,0.003-0.006,0.007-0.009,0.011c-1.687-1.913-6.581-6.292-13.688-2.481l0.688,1.281c6.708-3.595,11.059,1.047,12.168,2.451
		c-0.001,0.003-0.004,0.007-0.005,0.01c-1.3,2.067-2.341,4.289-3.189,6.564c-0.046,0.128-0.104,0.253-0.15,0.38
		c-0.016,0.045-0.032,0.092-0.05,0.137c-0.278,0.785-0.54,1.575-0.773,2.369c-0.001,0.005-0.004,0.011-0.005,0.017
		c-1.066-0.523-2.092-0.891-3.083-1.162c-7.811-2.141-13.087,2.737-13.148,2.796l1.007,1.047c0.049-0.048,3.963-3.666,10.008-2.812
		c1.487,0.211,3.1,0.683,4.818,1.556c-0.002,0.005-0.003,0.013-0.004,0.019c-0.269,1.02-0.487,2.031-0.689,3.04
		c-0.04,0.2-0.084,0.4-0.122,0.599c-0.075,0.389-0.156,0.776-0.224,1.161c-0.009,0.06-0.02,0.115-0.03,0.175
		c-0.129,0.766-0.242,1.521-0.341,2.266c-0.003,0.033-0.008,0.067-0.012,0.104c-0.099,0.759-0.186,1.507-0.254,2.233
		c-5.401,2.853-10.39,2.813-14.015,2.08c-1.388-0.279-2.565-0.656-3.496-1.021c-0.214-0.084-0.424-0.169-0.61-0.247
		c-1.06-0.453-1.666-0.826-1.688-0.839l-0.779,1.228c0.09,0.058,0.638,0.394,1.548,0.813c0.232,0.104,0.485,0.22,0.768,0.334
		c0.784,0.324,1.75,0.662,2.867,0.95c1.56,0.4,3.411,0.701,5.484,0.701c2.904,0,6.238-0.602,9.776-2.312
		c-0.081,1.112-0.134,2.175-0.165,3.169c0,0.004,0,0.008,0,0.012c-0.006,0.193-0.009,0.379-0.013,0.566
		c-0.003,0.098-0.005,0.201-0.009,0.301c0,0.058-0.001,0.111-0.002,0.166c-0.004,0.271-0.007,0.527-0.009,0.782
		c0,0.06,0,0.12,0,0.179c-0.003,0.252-0.003,0.498,0,0.736c0,0.053,0,0.104,0,0.156c0,0.003,0,0.006,0,0.01
		c0.002,0.242,0.005,0.479,0.007,0.708c0,0.003,0,0.005,0,0.006c0.015,0.775,0.038,1.468,0.065,2.063
		c0,0.015,0.001,0.031,0.001,0.046c0.008,0.159,0.017,0.308,0.024,0.452c0.003,0.055,0.005,0.106,0.009,0.16
		c0.006,0.125,0.014,0.237,0.021,0.351c0.004,0.063,0.008,0.125,0.012,0.185c0.007,0.094,0.012,0.186,0.018,0.27
		c0.002,0.033,0.006,0.07,0.009,0.104c0.001,0.026,0.003,0.047,0.003,0.072c0.007,0.068,0.012,0.139,0.017,0.198
		c0.006,0.06,0.01,0.108,0.014,0.161c0.003,0.039,0.007,0.084,0.011,0.115c0.006,0.08,0.012,0.143,0.016,0.188
		c0.244,0,0.488,0,0.73,0L95.368,143.838z M95.185,136.997c-0.018,0.803-0.019,1.55-0.014,2.239c-0.004-0.615-0.01-0.95-0.014-1.12
		C95.163,137.936,95.172,137.593,95.185,136.997z"/>
	<path fill="#CE807D" d="M69.462,138.421c-6.986-0.854-7.458-3.769-7.464-3.801l-0.045,0.005c-0.096,0.752-0.161,1.521-0.208,2.303
		c1.19,1.223,3.599,2.573,8.38,3.023c0.11,0.011,0.229,0.017,0.341,0.023c0.078,0.008,0.157,0.014,0.235,0.021
		c0.003,0.002,0.004,0.002,0.006,0.002c0.046-0.095,0.086-0.188,0.132-0.284c0.011-0.021,0.023-0.046,0.034-0.07l-0.001,0.002
		c0.124-0.25,0.24-0.504,0.371-0.754c0.051-0.099,0.109-0.195,0.164-0.295c-0.007,0-0.011,0-0.017,0
		C70.695,138.555,70.06,138.496,69.462,138.421z"/>
	<path fill="#CE807D" d="M71.927,92.397c-0.937,0.59-1.85,1.199-2.731,1.836l0.02,0.109c1.852-0.334,7.036-0.692,8.708,1.623
		l1.386-1.003C77.721,92.765,74.396,92.362,71.927,92.397z"/>
	<path fill="#CE807D" d="M66.529,121.811c0-0.002-0.01-0.006-0.01-0.006l-0.031,0.049c-0.039-0.022-0.065-0.04-0.073-0.043
		c-0.258,0.409-0.507,0.826-0.75,1.248c0.304,0.183,5.084,3.06,7.958,3.434l0.187-1.442c-2.408-0.316-6.66-2.803-7.312-3.19
		C66.509,121.845,66.519,121.828,66.529,121.811z"/>
	<path fill="#6F7072" d="M92.96,176.445c0.292-0.021,0.539,0.017,0.711,0.019c0.175,0.007,0.274,0.013,0.274,0.013
		s-0.099-0.017-0.269-0.045c-0.173-0.021-0.419-0.084-0.717-0.101c-0.601-0.021-1.405,0.019-2.198,0.153
		c-0.399,0.051-0.802,0.103-1.178,0.147c-0.378,0.052-0.722,0.136-1.003,0.245c-0.593,0.15-0.815,0.689-0.815,0.689
		s0.517,0.246,1.054,0.031c0.281-0.084,0.601-0.201,0.939-0.35c0.333-0.167,0.704-0.292,1.08-0.417
		C91.595,176.621,92.369,176.492,92.96,176.445z"/>
	<g>
		<path fill="#FFFFFF" d="M174.466,163.936c-1.743,2.597-3.932,4.683-6.577,6.028c0.084-0.021,0.172-0.042,0.241-0.063
			c-0.127,0.057-0.257,0.098-0.386,0.146c-0.787,1.595-1.698,3.138-2.715,4.627c-8.549,12.546-24.869,21.229-43.808,21.824
			c0.056,1.252,0.158,3.567,0.35,7.867c-4.925,0.592-8.336,4.549-10.563,8.545c2.537,0.294,5.113,0.46,7.729,0.46
			c23.463,0,44.076-12.148,55.93-30.489C175.604,176.139,175.395,169.779,174.466,163.936z"/>
	</g>
	<g>
		<path fill="none" d="M137.275,193.928c0.104-0.029,0.211-0.063,0.315-0.095C137.486,193.865,137.382,193.896,137.275,193.928z"/>
		<path fill="none" d="M139.85,193.104c0.015-0.004,0.025-0.01,0.037-0.014C139.875,193.094,139.861,193.1,139.85,193.104z"/>
		<path fill="none" d="M134.988,194.563c0.029-0.008,0.061-0.016,0.092-0.021C135.049,194.547,135.02,194.555,134.988,194.563z"/>
		<path fill="none" d="M129.945,195.63c0.005,0,0.011-0.002,0.016-0.003c-2.834,0.479-5.754,0.773-8.738,0.868
			c0.056,1.252,0.158,3.569,0.35,7.868c-4.925,0.591-8.336,4.548-10.563,8.544c2.537,0.294,5.113,0.46,7.729,0.46
			c2.667,0,5.293-0.164,7.879-0.469C130.479,205.943,129.945,195.63,129.945,195.63z"/>
		<path fill="none" d="M174.466,163.936c-1.743,2.597-3.932,4.683-6.577,6.028c0.084-0.021,0.172-0.042,0.241-0.063
			c-0.127,0.057-0.257,0.098-0.386,0.146c-0.787,1.595-1.698,3.138-2.715,4.627c-3.932,5.771-9.512,10.724-16.229,14.445
			c0.002-0.001,0.005-0.002,0.005-0.002c0.002-0.002,0.014-0.005,0.014-0.005c3.012,5.421,3.736,10.683,3.453,15.189
			c9.037-5.291,16.726-12.645,22.398-21.424C175.604,176.139,175.395,169.779,174.466,163.936z"/>
		<path fill="none" d="M132.254,195.191c0.15-0.032,0.305-0.063,0.457-0.101C132.559,195.129,132.404,195.159,132.254,195.191z"/>
		<path fill="none" d="M142.111,192.264c0.043-0.018,0.088-0.035,0.133-0.051C142.199,192.229,142.154,192.246,142.111,192.264z"/>
		<path fill="#D0D1D2" d="M148.816,189.111c0,0-0.012,0.002-0.015,0.002c-0.001,0-0.003,0.002-0.005,0.003
			c-2.08,1.155-4.271,2.19-6.556,3.097c-0.046,0.016-0.091,0.033-0.134,0.051c-0.73,0.287-1.477,0.564-2.227,0.826
			c-0.012,0.004-0.023,0.01-0.037,0.014c-0.742,0.258-1.496,0.5-2.256,0.729c-0.105,0.032-0.212,0.063-0.316,0.095
			c-0.727,0.215-1.457,0.422-2.194,0.611c-0.031,0.008-0.063,0.016-0.093,0.023c-0.752,0.19-1.514,0.367-2.276,0.528
			c-0.151,0.035-0.308,0.065-0.457,0.101c-0.76,0.158-1.521,0.306-2.293,0.436c-0.005,0.001-0.011,0.003-0.017,0.003
			c0,0,0.531,10.313-3.325,17.269c9.27-1.094,17.95-4.094,25.649-8.596C152.555,199.792,151.827,194.529,148.816,189.111z"/>
	</g>
	<g>
		<path fill="none" d="M73.812,125.05c-1.849-0.243-4.777-1.762-6.337-2.631c-0.472-0.263-0.823-0.469-0.975-0.559
			c0.01-0.015,0.02-0.032,0.03-0.049c0-0.002-0.009-0.006-0.009-0.006l-0.032,0.049c-0.039-0.022-0.065-0.04-0.073-0.043
			c-0.258,0.409-0.507,0.826-0.75,1.248c0.08,0.048,0.469,0.281,1.045,0.604c1.63,0.914,4.79,2.554,6.914,2.83L73.812,125.05z"/>
		<path fill="none" d="M70.467,139.977c0.078,0.008,0.157,0.016,0.235,0.021C70.705,140,70.706,140,70.708,140
			c0.046-0.098,0.086-0.188,0.132-0.284c0.011-0.021,0.023-0.046,0.034-0.067l-0.001,0.002c0.124-0.252,0.24-0.506,0.371-0.756
			c0.051-0.1,0.109-0.195,0.164-0.293c-0.007-0.002-0.011-0.002-0.017-0.002c-0.695-0.039-1.332-0.101-1.929-0.176
			c-3.994-0.486-5.854-1.646-6.721-2.563c-0.648-0.684-0.741-1.228-0.743-1.238l-0.045,0.005c-0.096,0.752-0.161,1.521-0.208,2.304
			c0.237,0.241,0.522,0.489,0.866,0.735c1.379,0.983,3.682,1.926,7.514,2.287C70.236,139.962,70.354,139.968,70.467,139.977z"/>
		<path fill="none" d="M83.759,113.609l1.177-0.852c-1.019-1.41-2.878-1.95-4.632-2.116c-0.568-0.055-1.127-0.07-1.641-0.063
			c-0.796,0.501-1.572,1.02-2.321,1.561l0.018,0.092c0.402-0.073,0.992-0.146,1.671-0.184
			C79.997,111.94,82.703,112.146,83.759,113.609z"/>
		<path fill="none" d="M174.465,149.213c-1.105-0.802-2.188-1.37-3.242-1.732c1.896-0.957,3.326-2.318,4.243-4.097
			c2.546-4.909,0.32-11.073,0.224-11.335l-1.164,0.43l-0.195,0.073c0.003,0.015,0.111,0.329,0.255,0.841
			c0.481,1.758,1.335,5.974-0.409,9.328c-0.809,1.557-2.093,2.75-3.824,3.574c-0.635,0.299-1.317,0.557-2.068,0.755v0.002
			c-0.4,0.024-0.795,0.083-1.186,0.175c-0.09,0.021-0.181,0.032-0.269,0.061c-0.938,0.271-1.752,0.729-2.454,1.271
			c-2.238,1.726-3.311,4.303-3.365,4.443l1.35,0.545c0.017-0.039,1.615-3.924,4.875-4.863c1.14-0.322,2.367-0.24,3.666,0.229
			c0.875,0.314,1.781,0.805,2.719,1.48L174.465,149.213z"/>
		<path fill="none" d="M172.695,166.204c1.596-2.841,2.904-5.954,3.889-9.224c-0.792,0.508-1.674,0.774-2.65,0.774
			c-0.814,0-1.699-0.188-2.639-0.539c-0.105-0.042-0.211-0.071-0.32-0.116l0.387-0.938l0.172-0.407
			c1.894,0.78,3.375,0.729,4.537-0.17c0.51-0.395,0.937-0.95,1.306-1.607c3.948-16.988-0.892-37.086-20.375-45.233
			c-6.115-2.556-12.34-4.244-18.235-5.338c-1.203,1.693-3.272,5.216-2.322,8.412c0.768,2.571,3.369,4.483,7.744,5.685l-0.14,0.501
			l-0.249,0.902c-2.921-0.802-5.132-1.934-6.646-3.367c-1.021-0.967-1.734-2.067-2.104-3.312c-1.026-3.464,0.781-7.046,2.142-9.097
			c-9.521-1.615-18.061-1.718-23.736-1.491c-0.218,0.079-0.44,0.152-0.656,0.234c-0.186,0.071-0.375,0.131-0.558,0.207
			c-0.497,0.205-0.981,0.433-1.458,0.67c-0.101,0.05-0.204,0.094-0.303,0.146c-0.521,0.27-1.028,0.563-1.523,0.873
			c-0.045,0.028-0.094,0.055-0.14,0.084c-0.523,0.333-1.035,0.691-1.53,1.07c-0.014,0.009-0.026,0.019-0.038,0.029
			c-0.542,0.416-1.062,0.869-1.569,1.334c-0.35,0.325-0.686,0.672-1.018,1.022c-0.09,0.093-0.18,0.187-0.268,0.282
			c4.081-2.199,10.773-4.485,15.975,0.159l-0.969,1.084c-6.721-6.006-16.571,1.325-17.667,2.176l-0.002,0.002
			c-0.005,0.007-0.011,0.018-0.017,0.028c-0.42,0.657-0.816,1.329-1.187,2.018c-0.005,0.009-0.011,0.019-0.017,0.028
			c-0.374,0.696-0.722,1.408-1.045,2.13c-0.007,0.015-0.013,0.03-0.02,0.044c-0.177,0.395-0.33,0.801-0.491,1.201
			c-0.13,0.318-0.25,0.638-0.372,0.96c-0.163,0.433-0.325,0.865-0.473,1.302c-0.095,0.274-0.191,0.546-0.28,0.822
			c-0.018,0.058-0.032,0.118-0.051,0.178c2.785-1.801,9.636-4.731,18.574,1.896l-0.688,0.926l-0.179,0.241
			c-0.128-0.096-0.253-0.179-0.382-0.271c-10.477-7.489-17.38-1.009-17.67-0.723l-0.35,0.338c-0.006,0.024-0.011,0.047-0.017,0.07
			c-0.182,0.711-0.343,1.421-0.49,2.128c-0.02,0.086-0.038,0.173-0.057,0.26c-0.005,0.016-0.006,0.032-0.01,0.05
			c-0.145,0.714-0.277,1.429-0.396,2.132c-0.004,0.034-0.012,0.068-0.017,0.104c-0.143,0.859-0.259,1.706-0.362,2.538
			c-0.034,0.278-0.063,0.551-0.094,0.823c-0.039,0.354-0.072,0.701-0.106,1.051c2.869,1.09,13.527,4.58,21.297-0.252l0.767,1.232
			c-8.107,5.045-18.675,1.836-22.198,0.524c-0.028,0.38-0.053,0.752-0.074,1.121c-0.021,0.329-0.046,0.673-0.062,0.989
			c-0.02,0.422-0.029,0.813-0.042,1.213c-0.01,0.291-0.023,0.602-0.029,0.882c-0.017,0.803-0.02,1.55-0.014,2.237
			c0.016,1.803,0.09,3.172,0.143,3.931c0.021,0.287,0.038,0.498,0.045,0.597c0.005,0.043,0.008,0.068,0.008,0.074l-0.722,0.072
			c1.09,0,2.187,0,3.288,0c1.293,0,2.596,0,3.898,0c0.563,0,1.125,0,1.688,0c2.19,0,4.385,0,6.562,0c2.779,0,5.531,0,8.215,0
			c4.699,0,9.188,0,13.251,0c5.428,0,10.09,0,13.465,0c1.34,0,2.479,0,3.381,0c0.48,0,0.892,0,1.23,0c0.162,0,0.305,0,0.436,0
			c0-0.006,0-0.01,0-0.016c0.004-0.051,0.14-1.375,1.148-2.707c0.824-1.086,2.229-2.173,4.633-2.576
			c-1.402-3.692-3.467-6.332-5.863-7.477c-1.314-0.629-2.666-0.74-3.799-0.322l-3.604,1.146l-2.723,0.86
			c-0.188,0.211-0.467,0.496-0.811,0.828c-0.572,0.555-1.35,1.234-2.32,1.949c-2.725,2.008-6.975,4.232-12.438,4.232
			c-0.811,0-1.649-0.051-2.51-0.155c-0.854-0.104-1.73-0.265-2.632-0.487l0.35-1.412c1.391,0.346,2.714,0.517,3.976,0.567
			c4.683,0.201,8.457-1.358,11.123-3.046c1.242-0.787,2.248-1.592,2.983-2.26c0.946-0.86,1.461-1.485,1.479-1.51l0.021,0.017
			l2.022-0.646l4.606-1.461c0.362-0.138,0.748-0.229,1.146-0.277c0.332-0.047,0.674-0.045,1.021-0.028
			c0.063,0.004,0.125-0.008,0.188-0.004c0.812,0.062,1.644,0.287,2.457,0.664c0.02,0.009,0.035,0.012,0.055,0.019
			c0.242-1.306,0.027-2.404-0.658-3.334c-3.089-4.186-14.271-3.557-14.389-3.552l-0.086-1.451c0.49-0.031,12.09-0.676,15.644,4.14
			c1.022,1.383,1.286,3.056,0.801,4.976c0.841,0.586,1.63,1.336,2.354,2.229c0.003,0.004,0.005,0.008,0.008,0.013
			c0.24,0.296,0.477,0.606,0.704,0.937c0,0,0.003,0,0.003,0.002c0.145-0.449,0.349-0.949,0.617-1.455
			c0.646-1.209,1.707-2.476,3.482-3.283c0.026-0.09,0.135-0.475,0.272-1.053c0.122-0.512,0.267-1.187,0.403-1.974
			c0.586-3.365,0.998-8.733-1.47-11.975c-1.457-1.916-3.813-2.854-6.938-2.773l-0.098,0.001l-0.096-0.023
			c-0.021-0.006-1.868-0.447-3.137,0.331c-0.571,0.351-0.938,0.896-1.12,1.667l-1.415-0.332c0.271-1.156,0.87-2.023,1.784-2.58
			c1.602-0.976,3.649-0.626,4.136-0.52c3.545-0.075,6.303,1.061,8.043,3.351c2.615,3.441,2.432,8.715,1.879,12.336
			c-0.189,1.241-0.423,2.292-0.599,3.004c0.429-0.104,0.889-0.178,1.38-0.229c-0.104-1.046-0.016-2.073,0.171-3.021
			c0.51-2.65,1.782-4.695,1.868-4.83l1.226,0.781c-0.015,0.026-1.009,1.627-1.534,3.742c-0.387,1.535-0.522,3.341,0.143,5.015
			c0.033,0.086,0.084,0.164,0.122,0.248c0.329,0.729,0.797,1.395,1.407,1.987c0.676,0.651,1.522,1.22,2.533,1.701
			c0.418,0.2,0.858,0.388,1.334,0.558c0.539,0.192,1.103,0.377,1.713,0.532l-0.356,1.407c-0.595-0.148-1.151-0.323-1.687-0.512
			c-0.312-0.108-0.604-0.227-0.896-0.346c-2.052-0.848-3.59-1.988-4.613-3.416c-0.362-0.512-0.683-1.051-0.911-1.635
			c-0.012-0.021-0.014-0.039-0.021-0.06c-0.092-0.242-0.172-0.483-0.238-0.726c-0.416,0.036-0.795,0.104-1.156,0.184
			c-2.425,0.529-3.715,1.888-4.395,3.162c-0.583,1.092-0.727,2.119-0.758,2.502c0.003,0.003,0.003,0.003,0.005,0.005
			c0.269,0.508,0.524,1.041,0.767,1.597c0.01,0.021,0.02,0.035,0.027,0.055c0.244,0.568,0.475,1.166,0.688,1.789l0.297,0.879
			l-0.926,0.078c-2.918,0.246-4.255,1.553-4.867,2.607c-0.441,0.766-0.513,1.402-0.514,1.416c-0.047,2.283-0.002,4.426,0.131,6.434
			c0.121,0.822,0.198,1.66,0.223,2.514c0.443,3.994,1.287,7.352,2.515,10.021c1.146,2.502,2.621,4.405,4.428,5.651
			c3.448,2.379,7.214,1.844,8.966,1.403c0.039-0.011,0.074-0.021,0.116-0.027C169.707,169.036,171.305,167.754,172.695,166.204
			L172.695,166.204z M167.229,148.682c-3.258,0.939-4.855,4.824-4.873,4.863L161.007,153c0.058-0.143,1.126-2.721,3.365-4.445
			c0.702-0.539,1.517-0.998,2.454-1.271c0.088-0.025,0.179-0.036,0.267-0.058c0.392-0.095,0.784-0.15,1.187-0.178v-0.002
			c0.75-0.197,1.438-0.456,2.068-0.755c1.732-0.825,3.02-2.021,3.825-3.574c1.744-3.354,0.894-7.567,0.409-9.327
			c-0.143-0.513-0.252-0.826-0.255-0.842l0.196-0.07l1.164-0.433c0.099,0.263,2.321,6.427-0.225,11.335
			c-0.917,1.775-2.35,3.143-4.242,4.1c1.055,0.359,2.137,0.931,3.241,1.729l-0.853,1.181c-0.938-0.68-1.844-1.166-2.721-1.481
			C169.598,148.439,168.368,148.357,167.229,148.682z"/>
		<path fill="none" d="M84.937,112.757l-1.177,0.852c-1.057-1.463-3.763-1.669-5.729-1.563c-4.865,3.208-8.236,6.795-10.557,10.373
			c1.56,0.869,4.488,2.388,6.337,2.631l-0.187,1.442c-2.124-0.276-5.284-1.917-6.914-2.83c-2.557,4.387-3.61,8.693-3.97,12.197
			c0.866,0.912,2.728,2.072,6.721,2.562c0.597,0.075,1.233,0.134,1.929,0.175c0.005,0,0.01,0,0.017,0
			c-0.055,0.1-0.113,0.196-0.164,0.295c-0.131,0.25-0.247,0.504-0.371,0.754l0.001-0.002c-0.011,0.024-0.023,0.049-0.034,0.07
			c-0.045,0.096-0.086,0.189-0.132,0.284c-0.001,0-0.003,0-0.006-0.002c-0.078-0.007-0.158-0.013-0.235-0.021
			c-0.112-0.01-0.229-0.016-0.341-0.023c-3.832-0.361-6.135-1.303-7.514-2.287c-0.164,3.768,0.426,6.246,0.426,6.246
			c1.667,0,3.707,0,6.049,0c0.006,0,0.013,0,0.02,0c0.209,0,0.419,0,0.634,0c0.479,0,0.968,0,1.469,0c0.689,0,1.395,0,2.123,0
			c1.893,0,3.917,0,6.042,0c3.729,0,7.772,0,11.976,0c0.851,0,1.706,0,2.566,0c-0.004-0.045-0.01-0.105-0.016-0.188
			c-0.003-0.031-0.008-0.076-0.011-0.115c-0.004-0.053-0.008-0.104-0.014-0.162c-0.004-0.063-0.009-0.129-0.017-0.197
			c0-0.025-0.002-0.046-0.003-0.073c-0.003-0.032-0.007-0.069-0.009-0.104c-0.006-0.084-0.011-0.174-0.018-0.269
			c-0.004-0.059-0.008-0.12-0.012-0.184c-0.008-0.11-0.015-0.226-0.021-0.351c-0.004-0.054-0.005-0.105-0.009-0.16
			c-0.009-0.146-0.017-0.293-0.024-0.453c0-0.014-0.001-0.03-0.001-0.045c-0.027-0.596-0.051-1.287-0.065-2.063
			c0-0.001,0-0.003,0-0.006c-0.002-0.229-0.005-0.466-0.007-0.708c0-0.004,0-0.007,0-0.01c0-0.053,0-0.104,0-0.156
			c-0.003-0.239-0.003-0.484,0-0.736c0-0.059,0-0.119,0-0.179c0.002-0.255,0.005-0.515,0.009-0.782
			c0.001-0.055,0.002-0.109,0.002-0.167c0.003-0.1,0.005-0.2,0.007-0.3c0.004-0.188,0.008-0.375,0.015-0.566
			c0-0.004,0-0.008,0-0.012c0.031-0.994,0.083-2.057,0.165-3.169c-3.538,1.709-6.873,2.312-9.776,2.312
			c-2.073,0-3.925-0.301-5.484-0.703c-1.117-0.286-2.083-0.627-2.867-0.948c-0.282-0.115-0.535-0.229-0.768-0.334
			c-0.91-0.422-1.458-0.759-1.548-0.813l0.779-1.228c0.023,0.012,0.629,0.385,1.688,0.839c0.187,0.078,0.396,0.163,0.611,0.247
			c0.93,0.36,2.107,0.737,3.495,1.021c3.625,0.732,8.613,0.771,14.015-2.08c0.068-0.729,0.155-1.479,0.254-2.233
			c0.004-0.034,0.009-0.067,0.012-0.104c0.1-0.744,0.212-1.5,0.341-2.266c0.011-0.061,0.021-0.115,0.03-0.175
			c0.067-0.386,0.135-0.771,0.208-1.156c0.04-0.2,0.098-0.404,0.137-0.604c0.202-1.009,0.421-2.021,0.689-3.04
			c0.001-0.006,0.002-0.013,0.004-0.02c-1.72-0.873-3.331-1.345-4.818-1.556c-6.044-0.854-9.958,2.764-10.008,2.812l-1.007-1.047
			c0.062-0.059,5.339-4.937,13.148-2.796c0.991,0.271,2.017,0.639,3.083,1.162c0.001-0.006,0.004-0.011,0.005-0.017
			c0.234-0.794,0.495-1.584,0.773-2.369c0.018-0.045,0.034-0.092,0.05-0.137c0.045-0.125,0.09-0.25,0.137-0.373
			c0.004-0.003,0.01-0.003,0.014-0.007c0.849-2.275,1.891-4.497,3.189-6.564c0.001-0.003,0.004-0.007,0.005-0.01
			c-1.109-1.403-5.461-6.046-12.168-2.451l-0.53-0.987c-2.701,1.082-5.119,2.262-7.275,3.513
			C82.058,110.808,83.917,111.348,84.937,112.757z"/>
		<path fill="none" d="M92.626,105.334c4.289-0.142,7.249,2.58,8.484,3.981c0.003-0.004,0.006-0.008,0.009-0.011
			c0.468-0.667,0.958-1.323,1.487-1.948c1.929-2.283,4.163-4.099,6.673-5.47c-1.913,0.156-3,0.307-3,0.307
			C101.156,103.003,96.633,104.073,92.626,105.334z"/>
		<path fill="#F0BBB5" d="M178.258,155.202c-0.018,0.058-0.033,0.116-0.048,0.176c0.003-0.003,0.006-0.007,0.009-0.012
			C178.232,155.313,178.242,155.257,178.258,155.202z"/>
		<path fill="#F0BBB5" d="M178.258,155.202c0.365-1.397,0.665-2.841,0.881-4.326C178.914,152.367,178.616,153.811,178.258,155.202z"
			/>
		<path fill="#F8CBC7" d="M172.695,166.204c0.633-0.704,1.226-1.458,1.771-2.271c1.651-2.453,2.894-5.371,3.744-8.559
			c-0.367,0.529-0.78,0.994-1.252,1.357c-0.12,0.095-0.249,0.164-0.374,0.242C175.602,160.25,174.291,163.363,172.695,166.204
			L172.695,166.204z"/>
		<path fill="#F8CBC7" d="M137.184,103.129c0.205-0.309,0.401-0.586,0.575-0.82c-22.438-4.18-50.832-2.203-68.355,15.646
			c0,0-9.868,8.956-7.447,25.956c0.338,0,0.704,0,1.082,0c0,0-0.59-2.479-0.426-6.246c-0.344-0.246-0.629-0.494-0.866-0.737
			c0.047-0.779,0.112-1.55,0.208-2.302L62,134.621c0.001,0.014,0.094,0.559,0.743,1.24c0.359-3.506,1.413-7.813,3.97-12.198
			c-0.576-0.322-0.965-0.556-1.045-0.604c0.242-0.421,0.492-0.839,0.75-1.248c0.008,0.004,0.035,0.021,0.073,0.043l0.032-0.049
			c0,0,0.009,0.003,0.009,0.006c-0.01,0.017-0.021,0.034-0.03,0.049c0.151,0.09,0.503,0.296,0.975,0.559
			c2.32-3.578,5.691-7.164,10.557-10.373c-0.679,0.038-1.269,0.11-1.671,0.184l-0.018-0.092c0.75-0.541,1.525-1.059,2.321-1.561
			c0.514-0.007,1.072,0.009,1.641,0.063c2.157-1.251,4.575-2.431,7.275-3.513l-0.158-0.294c1.899-1.018,3.638-1.448,5.204-1.5
			c4.007-1.261,8.529-2.331,13.653-3.142c0,0,1.087-0.151,3-0.307c0.774-0.423,1.573-0.81,2.4-1.149
			c2.146-0.147,4.311-0.229,6.483-0.243c-0.712,0.099-1.408,0.229-2.09,0.379c-0.348,0.079-0.682,0.181-1.021,0.271
			c-0.319,0.085-0.644,0.162-0.956,0.259c-0.222,0.07-0.435,0.155-0.651,0.234C119.124,101.411,127.663,101.514,137.184,103.129z"/>
		<path fill="#F8CBC7" d="M177.373,153.979c2.131-3.805,2.107-11.479,1.709-16.609c-1.449-10.105-6.009-19.829-13.611-24.97
			c-5.805-3.924-15.191-7.564-26.121-9.771c-0.139,0.174-0.349,0.444-0.588,0.779c5.896,1.094,12.121,2.782,18.236,5.338
			C176.482,116.891,181.32,136.988,177.373,153.979z"/>
	</g>
	<rect x="30.234" y="32.097" fill="#D3EFEB" width="181.021" height="63.675"/>
	<polygon fill="#5A909F" points="49.296,57.643 51.555,48.709 53.985,57.643 58.674,57.643 62.408,41.175 58.238,41.175 
		56.503,51.509 53.726,41.175 49.904,41.175 47.126,52.583 46.17,41.175 40.701,41.175 44.174,57.643 	"/>
	<path fill="#5A909F" d="M70.071,58.398c5.272,0,6.836-4.819,6.836-9.366c0-4.549-2.604-8.61-7.033-8.61
		c-4.253,0-6.642,4.44-6.642,8.987C63.232,53.956,65.099,58.398,70.071,58.398z M68.138,47.633
		c-0.088-2.369,1.411-2.583,1.411-2.583c0.614-0.296,2.151,0,2.151,0c0.78,0.269,0.824,2.152,0.824,2.152s0.304,3.338,0,5.22
		c-0.306,1.883-1.522,1.883-1.522,1.883h-1.453c-1.323-0.107-1.414-1.67-1.414-1.67L68.138,47.633z"/>
	<path fill="#5A909F" d="M83.158,51.453c0,0,0.913,0.081,1.369,1.777c0.455,1.695,1.955,5.167,1.955,5.167h4.297l-3.255-7.429
		c0,0,2.019-1.208,2.213-3.39c0,0,0.651-6.349-2.864-6.404c-3.518-0.054-7.816,0-7.816,0v16.469h4.104v-6.19H83.158z M83.028,44.35
		c0.325,0.082,2.215,0.405,2.408,1.977c0.196,1.574-2.408,1.979-2.408,1.979V44.35z"/>
	<path fill="#5A909F" d="M113.897,54.765c1.562-3.875,2.801-8.721-2.671-13.078c0,0-1.628-0.512-8.988-0.512v16.82
		C102.239,57.994,112.334,58.639,113.897,54.765z M106.34,44.917c1.76-0.32,5.278,0.481,4.69,5.326
		c-0.586,4.844-4.69,4.063-4.69,4.063V44.917z"/>
	<polygon fill="#5A909F" points="126.4,46.69 129.59,57.643 132.262,57.643 135.189,47.579 135.189,57.643 139.555,57.643 
		139.555,41.151 133.887,41.175 131.314,50.969 128.746,41.526 123.077,41.526 123.077,57.643 126.4,57.643 	"/>
	<polygon fill="#5A909F" points="150.887,54.765 145.807,54.765 145.807,50.889 150.104,50.889 150.039,47.66 145.938,47.66 
		145.938,44.856 149.975,44.917 150.104,41.175 141.896,41.175 141.896,57.643 150.887,57.643 	"/>
	<polygon fill="#5A909F" points="155.77,48.387 161.436,57.643 164.625,57.643 164.625,41.175 161.109,41.175 161.238,49.772 
		155.836,41.175 152.385,41.175 152.385,57.643 155.77,57.643 	"/>
	<polygon fill="#5A909F" points="169.514,57.643 173.677,57.643 173.677,44.856 177.779,44.856 177.779,41.175 165.536,41.151 
		165.536,44.856 169.514,44.856 	"/>
	<path fill="#5A909F" d="M180.252,57.643l1.109-3.292h3.777l1.237,3.292h4.558l-5.014-16.492l-4.168,0.023l-5.146,16.469H180.252z
		 M183.771,45.641l0.977,5.249h-2.671L183.771,45.641z"/>
	<polygon fill="#5A909F" points="58.71,87.028 58.71,64.262 53.329,64.262 53.329,71.74 47.946,71.74 47.863,64.262 42.731,64.262 
		42.731,87.028 48.114,87.028 48.114,77.062 53.497,76.948 53.497,87.028 	"/>
	<polygon fill="#5A909F" points="66.701,77.516 72.25,77.516 72.166,72.985 66.867,72.985 66.867,69.051 72.083,69.138 
		72.25,63.887 61.655,63.887 61.655,86.991 73.258,86.991 73.258,82.949 66.701,82.949 	"/>
	<path fill="#5A909F" d="M80.829,63.887l-6.645,23.104h4.709l1.433-4.615h4.875l1.6,4.615h5.887l-6.477-23.136L80.829,63.887z
		 M84.698,77.516h-3.45l2.188-7.361L84.698,77.516z"/>
	<polygon fill="#5A909F" points="100.873,52.583 100.482,52.747 100.482,54.306 95.988,54.306 95.923,41.175 91.819,41.175 
		91.819,57.643 100.873,57.643 	"/>
	<polygon fill="#5A909F" points="93.866,64.793 93.866,87.896 105.554,87.896 105.554,80.797 105.048,81.027 105.048,83.211 
		99.248,83.211 99.162,64.793 	"/>
	<polygon fill="#5A909F" points="115.478,69.051 120.777,69.051 120.777,63.887 104.965,63.855 104.965,69.051 110.098,69.051 
		110.098,86.991 115.478,86.991 	"/>
	<polygon fill="#5A909F" points="132.721,71.74 127.338,71.74 127.254,64.262 122.123,64.262 122.123,87.028 127.506,87.028 
		127.506,77.062 132.887,76.948 132.887,87.028 138.102,87.028 138.102,64.262 132.721,64.262 	"/>
	<g>
		<path fill="#6F7072" d="M104.671,179.575c-0.25-0.575,0.146-3.611,0.522-6.058l0.988,0.152c-0.367,2.387-0.686,5.11-0.583,5.535
			L104.671,179.575z"/>
	</g>
	<path fill="#5A909F" d="M160.641,64.606c0,0-2.104-0.719-11.604-0.719v23.591c0,0,13.033,0.909,15.05-4.529
		C166.104,77.516,167.704,70.718,160.641,64.606z M154.336,82.309V69.138c2.268-0.446,6.807,0.677,6.053,7.47
		C159.633,83.403,154.336,82.309,154.336,82.309z"/>
	<path fill="#5A909F" d="M166.359,86.991h4.707l1.43-4.615h4.878l1.601,4.615h5.885l-6.473-23.136l-5.383,0.032L166.359,86.991z
		 M175.609,70.153l1.262,7.362h-3.446L175.609,70.153z"/>
	<polygon fill="#5A909F" points="194.811,64.262 191.729,73.4 188.868,64.262 183.15,64.262 188.141,76.418 188.645,87.536 
		193.802,87.536 193.802,76.647 199.637,63.887 	"/>
	<path fill="#FFA700" d="M68.629,111.787l-2.111-3.863l-2.434-4.45l1.092,4.45l0.025,0.107l0.201,0.819l-0.466-0.448l-0.497-0.478
		l-6.75-6.481l3.889,6.481l1.16,1.936l-3.129-1.936l-12.358-7.641l4.574,7.641l4.686,7.828l-5.387-2.694l5.893,6.511l-2.356-0.788
		l2.973,4.294l3.257,4.704C60.887,127.779,57.768,115.397,68.629,111.787z"/>
	<polygon fill="#5A909F" points="202.913,52.646 202.514,52.813 202.514,54.409 197.915,54.409 197.848,40.97 193.648,40.97 
		193.648,57.824 202.913,57.824 	"/>
	<path fill="#118DCA" d="M105.61,174.557l5.219-4.482c-3.123-8.28-5.427-3.622-5.438-3.6c-1.404-3.705-4.337,3.993-4.337,3.993
		l4.478,4.019L105.61,174.557z M109.781,169.999l-2.249,1.917C107.532,171.916,108.037,169.123,109.781,169.999z M101.987,170.665
		c0,0,1.167-0.575,1.584,1.278L101.987,170.665z"/>
	<path fill="#FFFFFF" d="M101.987,170.665l1.584,1.278C103.153,170.09,101.987,170.665,101.987,170.665z"/>
	<path fill="#FFFFFF" d="M107.532,171.916l2.249-1.917C108.037,169.123,107.532,171.916,107.532,171.916z"/>
	<path fill="#CE807D" d="M83.759,113.609l1.177-0.852c-1.019-1.41-2.878-1.95-4.632-2.116c-0.568-0.055-1.127-0.07-1.641-0.063
		c-0.796,0.501-1.572,1.02-2.321,1.561l0.018,0.092c0.402-0.073,0.992-0.146,1.671-0.184
		C79.997,111.94,82.703,112.146,83.759,113.609z"/>
</g>
</svg>
