<svg xmlns="http://www.w3.org/2000/svg" width="250" height="250" viewBox="0 0 250 250"><path d="M105.085 193.414c-.02-.05-.04-.1-.063-.152l-.086-.217c-.026-.066-.056-.14-.084-.215-.034-.086-.065-.168-.104-.264-.018-.047-.04-.1-.057-.148-.08-.207-.16-.436-.26-.683l-.12-.323c-.05-.125-.1-.256-.14-.39l-.12-.324c-.05-.147-.11-.298-.17-.455l-.14-.387-.32-.87-.15-.418c-.09-.24-.18-.487-.27-.74l-.04-.113c-.55-1.492-1.18-3.213-1.88-5.123h111.79l-.49-46.316L187 132.5v-27.76c.12-.15.22-.32.29-.48l.016-.03c.066-.15.11-.31.14-.47l.01-.04c.026-.16.038-.32.034-.48v-.01c-.008-.16-.02-.31-.05-.46l-.01-.03c-.027-.14-.06-.27-.098-.39l-.014-.04c-.037-.12-.076-.23-.117-.33l-.01-.01c-.08-.21-.16-.36-.2-.422V53.66l-23.62 2.433c-4.44-3.742-10-6.6-16.24-8.212h-.02c-.58-.14-1.16-.28-1.75-.41l-.13-.03c-.55-.11-1.11-.22-1.66-.31l-.25-.05c-.52-.08-1.05-.16-1.58-.23-.12-.01-.24-.04-.37-.05-.5-.06-1.01-.11-1.52-.16-.15-.01-.3-.03-.46-.05-.5-.04-1-.06-1.5-.09l-.51-.03c-.67-.03-1.34-.04-2.02-.04-.68 0-1.36.02-2.04.05-.21.01-.42.03-.64.04-.46.03-.92.06-1.38.1-.24.02-.48.05-.72.07-.44.04-.87.09-1.3.15l-.7.09c-.46.07-.92.15-1.37.22-.19.04-.38.07-.56.1-1.29.24-2.56.54-3.8.88-.14.04-.28.09-.42.13-.48.14-.95.28-1.42.43l-.52.18c-.44.15-.88.31-1.32.47l-.48.18c-.47.19-.94.38-1.41.58-.1.05-.21.09-.32.14-1.17.52-2.3 1.08-3.4 1.68-.05.03-.1.06-.16.09-.48.27-.95.55-1.42.84l-.3.19c-.43.27-.84.54-1.25.82l-.29.2c-.44.31-.87.62-1.29.94l-.15.12c-.97.74-1.9 1.53-2.78 2.36l-.01.01-.01-.01c-2.54-1.1-4.59-1.55-6.21-1.6h-.01c-.2-.01-.39-.01-.57 0H99l-.53.03h-.03c-.17.02-.33.04-.49.07-.01 0-.015 0-.022.01-.16.02-.315.06-.465.09h-.01c-1.544.36-2.524 1.13-3.12 1.82l-.01.02-.15.18-.02.03c-.043.06-.084.11-.12.16l-.03.04-.1.15c-.01.02-.02.03-.024.04l-.08.13-.03.04-.06.11-.02.05-.05.09-.02.04-.04.07-.02.04-.02.04-.02.03c0 .01-.01.02-.01.03l-.01.01c-.14.28-.24.57-.33.86l-.04.13c-.3 1.06-.31 2.16-.1 3.25L62 66.54l-.19-.105.035.124-.28.03 21.72 72.53-28.653.3-.028.36-.194-.55-4.906 40.63.78.2.147.04c.03 0 .06.01.09.02l1.47.38.14.03c2.86.74 25.24 4.75 30.48 6.18l1.74.48.09.02c.57.15 1.13.31 1.7.47l.1.02 1.68.47.12.03c.55.15 1.09.3 1.63.46.06.02.12.03.17.05l1.53.43.25.07c.5.14.99.28 1.47.43.08.02.15.04.22.06l1.41.41c.09.02.18.05.27.08l1.28.38c.11.03.21.06.31.09.4.12.78.23 1.16.35.12.03.23.07.34.1.36.11.71.22 1.05.33.11.04.23.07.34.11l.93.3c.12.04.25.08.37.12.28.09.54.18.79.26l.36.12.66.23.35.12.52.2.34.12.39.16c.1.04.21.09.3.13l.27.13c.09.04.18.08.24.12.07.03.1.06.15.09.06.04.13.08.16.11.02.01.02.02.03.04l-.02-.03c-.01-.03-.03-.07-.05-.11l-.04-.1c-.03-.06-.05-.12-.08-.18zm.263.536c0-.033-.043-.075-.082-.116.053.114.083.16.082.116z" opacity=".15"/><path fill="#1B75BB" d="M101.348 188.95c0-.04-.036-.09-.095-.144.064.14.097.19.095.144z"/><path fill="#FFF" d="M159.2 50.985c-7.075-5.907-16.954-9.586-27.896-9.586-11.792 0-22.354 4.26-29.493 11-10.22-4.45-12.32 1.7-12.32 1.7-.59 1.21-.7 2.49-.53 3.77 22.31 9.86 52.68 12.71 70.25-6.9z"/><path fill="#1B75BB" d="M182.953 96.516V48.66l-23.62 2.433c-.044-.037-.09-.07-.134-.107-17.57 19.61-47.94 16.76-70.25 6.897.02.152.02.304.05.455l-31.46 3.24 21.72 72.54-28.66.305-.03.363-.2-.547-4.91 43.35s53.7 9.33 55.75 11.21c-.39-.85-1.96-5.05-4.21-11.22h81.21l4.7-46.32-14.63-8.13 14.62 8.13V99.73c1.03-1.286.15-2.962 0-3.22zm-48.008 8.076l6.977 3.877-6.977-3.88z"/><path fill="#0E4F82" d="M50.406 134.238s50.994 56.193 50.94 54.712S45.5 177.592 45.5 177.592l4.906-43.354zm131.154-2.963L57.8 61.425l43.793 116.264"/><path fill="#FFF" d="M128.646 105.048s28.35 57.316 38.346 1.513c0 0 6.795 2.23 5.48 4.57 0 0-12.595 57.53-46.714 1.38-.002 0-5.23-5.79 2.888-7.46z"/><path fill="#FFF" d="M166.992 100.944c-6.313-8.148-10.078-.54-10.078-.54.557 1.095 2.902.6 2.902.6 5.926-.925 5.246 4.044 5.246 4.044l3.69 4.723"/><path fill="#FFF" d="M166.543 109.772s-1.05-2.3-1.48-4.724c-.43-2.427 1.172.124 1.172.124l1.08-3.18.186-.956s-.49-9.945 4.05-14.772c0 0 6.21-.804 0 7.603 0 0-2.22 6.09-1.9 7.387 0 0 .79 2.032 2.64.876 0 0 3.52-5.145 10.65-5.65 0 0 2.92 4.774-5.18 4.774l-3.53 2.776s3.63 9.445-6.1 6.574"/><path fill="#FFF" d="M168.754 100.604s-.598.926-3.766-.37 3.766 7.41 3.766 7.41v-7.04zM112.06 96.48l17.858 5.65-2.02 2.918 7.285 13.577 3.602 7.195.523 8.727-45.625 2.328S90.63 107.25 90.47 106.75c-.16-.5 14.588-10.873 14.588-10.873l7 .602z"/><path fill="#D0D2D3" d="M136.125 123.91s-6.125-10.002-7.36-18.62l-7.025 3.947 2.053 13.844 5.715 2.87 6.617-2.04zm31.617-62.043s7.717-14.035-6.607-9.16c-14.328 4.875 6.607 9.16 6.607 9.16z"/><path fill="#919496" d="M165.04 57.996s6.866-6.93 1.93 2.346c-4.937 9.28-1.93-2.346-1.93-2.346zm-64.462-2.62l-4.02 8.792s-12.36-15.376 4.02-8.793z"/><path fill="#FFF" d="M92.74 68.708c2.612-15.426 18.877-27.31 38.565-27.31 21.51 0 38.94 14.18 38.94 31.67 0 17.49-17.433 31.667-38.94 31.667-.81 0-1.605-.025-2.404-.065-.86 3.76-1.58 9.59 1.03 13.118 0 0 17.87 13.357 8.75 26.046.01-.093 2.35-22.236-14.7-26.18l3.1-13.946s-6.44-1.514-13.96-4.837v17.48s17.99 21 7.8 35.22c-17.81-.54-53.65-10.07-28.16-82.85z"/><path fill="#D0D2D3" d="M113.1 116.34V98.87c7.524 3.324 13.964 4.838 13.964 4.838l-3.092 13.947c17.045 3.943 14.71 26.086 14.7 26.18-1.778 2.476-2.673 3.313-6.843 5.636 0 0-5.62 2.25-10.93 2.09 10.18-14.22-7.8-35.22-7.8-35.22z"/><ellipse fill="#D0D2D3" cx="137.154" cy="73.766" rx="33.094" ry="25.105"/><path fill="#D0D2D3" d="M104.234 53.574s.38 3.253-2.646 3.706c0 0-14.82-4.84-4.008 8.166 0 0 1.21 1.967-1.285 3.705 0 0-9.98-8.54-6.805-15.04 0 0 2.42-7.11 14.744-.53z"/><ellipse fill="#FFF" cx="154.055" cy="68.125" rx="12.938" ry="12.752"/><ellipse fill="#FFF" cx="123.973" cy="68.414" rx="15.967" ry="15.862"/><path fill="#6C6F71" d="M135.908 95.877s.846-2.56 3.477-2.34c0 0-.7-.77-3.477-1.954 0 0 2.455.233 4.133 1.574 0 0 6.18.563 4.4-4.52 0 0 3.46 6.063-4.76 5.364 0 .01-2.02.4-3.76 1.88z"/><path fill="#BE1E2D" d="M142.648 87.953s1.977 2.396-1.803 3.65c0 0-2.146.89-5.092-2.298 0 0 16.395-7.432 6.895-1.352z"/><path fill="#D0D2D3" d="M106.174 102.13l1.83 47.384-7.426-3.183-5.887-41.04 1.87-1.7 7.51 44.24"/><path fill="#6C6F71" d="M143.225 82.848l-.432 2.715s-8.475 6.198-10.463 1.29l.74-1.896-2.543 3.26 1.525-.944s-.232 6.02 10.83-.965c0 0 5.092-2.05.604 1.1 0 0 7.455-3.375.232-2.125L144 83.2l-.775-.352z"/><path fill="#1D8FCD" d="M147.162 81.533s-2.877-5.856-3.938-2.765c0 0-2.38-3.48-2.38 2.11 0 0 2.255 1.535 2.38 3.397 0 0 2.33-.936 3.938-2.742z"/><path fill="#FFF" d="M143.225 82.848s-.146-.79-1.262-1.578c0 0 .412-1.516 1.262 1.578z"/><path fill="#D0D2D3" d="M167.84 101.53l.914 2.777s5.594 2.63.975 6.686c0 0 5.21-3.745-.03-6.686l-1.86-2.777zm2.406 10.28s.293 2.5-3.79 10.646l3.79-10.647z"/><path fill="#002749" d="M50.624 134.422l-5.124 43.17h162.612l-.492-46.317"/><circle fill="#0071BC" cx="121.072" cy="68.498" r="12.364"/><path fill="#0F4481" d="M121.96 71.61c2.297-2.653 2.008-6.66-.645-8.957-2.65-2.293-6.658-2.006-8.957.647-2.293 2.65-2.005 6.66.646 8.956 2.654 2.295 6.663 2.005 8.956-.646z"/><path fill="#FFF" d="M118.263 69.664c1.222-1.41 1.064-3.54-.344-4.76-1.41-1.218-3.54-1.067-4.76.343-1.22 1.41-1.07 3.542.34 4.762 1.41 1.21 3.53 1.06 4.76-.35z"/><circle fill="#FFF" cx="123.4" cy="66.582" r="1.644"/><circle fill="#0071BC" cx="152.229" cy="68.281" r="10.265"/><path fill="#0F4481" d="M152.967 70.867c1.904-2.204 1.666-5.53-.535-7.437-2.2-1.904-5.53-1.666-7.438.537-1.902 2.2-1.664 5.53.54 7.436 2.198 1.904 5.53 1.664 7.433-.536z"/><path fill="#FFF" d="M149.896 69.25c1.014-1.17.885-2.938-.285-3.95-1.16-1.012-2.93-.888-3.95.283-1.01 1.17-.88 2.94.29 3.954 1.17 1.01 2.94.88 3.95-.287z"/><circle fill="#FFF" cx="154.162" cy="66.691" r="1.364"/><path d="M59.697 170.106c-.792 0-1.188-.333-1.188-1v-5.037c-.37-.26-1.03-.47-1.98-.65s-1.8-.29-2.54-.34c-.27.45-.48 1.1-.65 1.96-.17.85-.35 1.71-.53 2.58-.19.87-.43 1.55-.73 2.05-1.01 0-1.57-.26-1.7-.78.35-.51.92-3.08 1.71-7.72.79-4.64 1.44-8.27 1.95-10.9s1.06-4.83 1.65-6.61c.59-1.79 1.15-2.68 1.69-2.68s.96.11 1.24.34c0 .92.25 3.4.75 7.45.51 4.05.76 6.67.76 7.86s.14 3.16.41 5.92c.27 2.76.4 4.83.4 6.21 0 .87-.43 1.3-1.28 1.3zm-1.622-12.612c-.227-2.283-.43-4.46-.613-6.527-.182-2.07-.273-3.32-.273-3.755s0-.68.01-.744c-.41.414-.99 2.723-1.75 6.923-.76 4.21-1.17 6.87-1.22 7.98 1.07.29 1.96.44 2.69.44.72 0 1.23-.03 1.54-.11-.04-.51-.17-1.91-.4-4.2zm14.62-4.594l.04.66c0 11.433-1.66 17.15-4.98 17.15-1.284.012-2.234-.51-2.85-1.567-.64-1.08-1.03-2.156-1.17-3.226-.214-1.647-.336-3.537-.368-5.67-.032-2.132-.047-5.21-.047-9.234l-.17-5.527c.24-.54.513-.81.82-.81s.583.234.822.706c.24.472.358.972.358 1.5v10.508c0 .918.09 2.282.273 4.094s.273 3.176.273 4.094c0 1.887.818 2.83 2.453 2.83 1.83 0 2.75-6.924 2.75-20.77v-2.17l-.02-.642c0-.302.07-.528.21-.68.13-.15.38-.226.72-.226s.6.057.78.17c.16.1.28.252.36.453.1.314.15.73.17 1.245l-.27 3.885-.17 3.227zm5.68-5.773l-.36 7.754v1.04l.718-.02c1.245 0 1.868.34 1.868 1.02 0 .34-.13.62-.41.82-.27.21-.64.31-1.08.31-.44 0-.91-.07-1.38-.22v10.94c0 1.13-.33 1.7-1 1.7-.4 0-.86-.19-1.37-.58.22-2.3.38-5.57.48-9.82.11-4.24.2-7.02.28-8.33v-.94c.1-1.87.15-3.62.15-5.24 0-.36.16-.64.47-.85.31-.2.65-.3 1.04-.3s.8.01 1.24.04c.46.03 1 .09 1.64.19 1.46.22 2.19.66 2.19 1.34 0 .73-.65 1.09-1.96 1.09-.51-.25-1.19-.37-2.02-.37h-.46v.46zm22.505 22.186c0 .39-.097.71-.29.963-.196.25-.482.377-.86.377-.93 0-2.1-4.95-3.508-14.848-.2-1.46-.327-2.302-.377-2.528-.478 3.434-.843 6.4-1.094 8.896-.25 2.497-.37 4.972-.37 7.424 0 .277-.11.525-.35.745-.23.22-.48.33-.76.33-.94 0-1.41-.98-1.41-2.943 0-1.21-.53-5.62-1.59-13.24s-1.74-11.78-2.03-12.5c.33-.62.79-.93 1.38-.93s1.13 1.34 1.62 4.02c.49 2.67.9 5.92 1.25 9.74.35 3.81.53 5.75.54 5.8.04-.35.17-1.44.39-3.26s.4-3.28.52-4.39c.38-3.35.57-5.73.57-7.13v-.74c0-.28.11-.55.31-.81.21-.26.45-.39.71-.39.92 0 1.38.38 1.38 1.13v.58c0 2.49.58 6.09 1.74 10.81.51 2.06.87 3.72 1.08 4.96.14-1.42.39-3.48.76-6.17.8-5.86 1.19-10.38 1.19-13.55 0-.57.1-.98.28-1.24.19-.26.5-.39.93-.39s.76.1 1.01.3c.25.2.37.46.37.77s-.13.6-.39.87c0 3.75-.49 8.29-1.46 13.63s-1.46 9.89-1.46 13.65zm9.245-12.036l.188 8.207v1.15l-.02 1.075h.51l1.113-.04c1.057 0 1.585.32 1.585.96 0 .32-.12.6-.38.84-.26.23-.55.35-.89.35h-1.7c-1.17 0-1.91-.03-2.24-.08-.2.02-.36.03-.47.03-.91 0-1.37-.29-1.37-.87 0-.24.08-.47.23-.68.15-.22.31-.33.46-.34h1.1l.08-.51-.26-8.21.21-8.61c0-1.48-.06-2.86-.19-4.15h-.73l-.89.03c-.38 0-.67-.07-.89-.22s-.32-.42-.32-.82c0-.6.64-.89 1.91-.89h4.61c1.05 0 1.57.27 1.57.81 0 .24-.11.46-.34.66-.22.2-.48.3-.77.3h-1.98c.1 1.05.15 2.25.15 3.58l-.21 7.37zm5.64-6.66l-.206-3.264c0-1.822.54-2.734 1.62-2.734.69 0 1.63.16 2.83.48 1.19.32 1.79.73 1.79 1.23 0 .52-.38.93-1.13 1.2-1.2-.4-2.17-.65-2.93-.74.04.55.05 1.1.05 1.66l-.17 5.54c0 .02.04.22.11.6l1.37-.06c1.24 0 1.87.35 1.87 1.05 0 .28-.11.52-.34.73-.23.2-.51.31-.86.31s-.72-.03-1.12-.08h-.98c.08.98.11 1.95.11 2.92l-.17 7c0 1.44.02 2.17.07 2.17l2.84-.1c.98 0 1.47.31 1.47.94 0 .39-.17.67-.51.85-.34.17-.73.26-1.15.26h-3.26c-.34 0-.65-.12-.93-.35-.28-.24-.42-.52-.44-.84v-1.02l-.25-6.53.26-11.29zm8.34 14.678l.113-12.168c0-.83-.075-2.098-.227-3.802-.15-1.704-.22-2.788-.22-3.254 0-.46.15-.82.44-1.08.29-.26.6-.39.93-.39 2.66 0 4.81 1.56 6.47 4.66.96 1.78 1.44 3.65 1.44 5.62l-.08 1.95v2.13c0 2.59-.11 4.32-.35 5.19-.23.87-.47 1.59-.72 2.17-.25.58-.55 1.1-.9 1.55-.81 1.03-1.85 1.86-3.09 2.49h-2.79c-.65.01-.98-1.68-.98-5.05zm2.698 2.17v.925c2.238 0 3.584-2.265 4.037-6.792.102-1.044.152-2.05.152-3.02 0-7.772-1.498-11.835-4.49-12.186-.19 1.018-.283 2.417-.283 4.196 0 1.78.09 4.563.29 8.35.19 3.786.29 6.627.29 8.527zm9.054-16.848l-.207-3.264c0-1.822.54-2.734 1.623-2.734.69 0 1.635.16 2.83.48 1.195.32 1.79.73 1.79 1.23 0 .52-.376.93-1.13 1.2-1.195-.4-2.17-.65-2.924-.74.03.55.05 1.1.05 1.66l-.17 5.54c0 .02.03.22.11.6l1.37-.06c1.24 0 1.86.35 1.86 1.05 0 .28-.12.52-.34.73-.23.2-.51.31-.86.31s-.72-.03-1.12-.08h-.98c.07.98.11 1.95.11 2.92l-.17 7c0 1.44.02 2.17.07 2.17l2.85-.1c.98 0 1.47.31 1.47.94 0 .39-.17.67-.51.85-.34.17-.73.26-1.15.26h-3.27c-.34 0-.65-.12-.93-.35s-.42-.52-.44-.84v-1.02l-.25-6.53.26-11.29zm10.093 6.566l-.036 4.188c0 3.41.244 6.1.736 8.06l-.436 1.04h-1.074l-.51-.56c.025-1.15.037-2.45.037-3.89s-.11-4.52-.33-9.23c-.22-4.71-.33-8.24-.33-10.56 0-1.22.428-1.83 1.283-1.83 1.346 0 2.477.35 3.395 1.06.918.71 1.377 1.71 1.377 3.02v2.72c0 .75-.137 1.42-.414 2.03-.277.61-.598 1.25-.963 1.93l-.604 1.12c.14.63.39 1.86.74 3.7.76 4.01 1.59 6.9 2.51 8.66.27.51.4.9.4 1.18 0 .28-.08.52-.23.72-.16.2-.37.29-.63.29-.54 0-1.06-.62-1.55-1.86-.5-1.24-.9-2.61-1.2-4.12-.91-4.61-1.47-7.15-1.67-7.62h-.47zm.152-11.375l-.13.547c0 1.056.024 2.58.075 4.574.05 1.99.074 3.44.074 4.34.61-.32 1.09-1.14 1.47-2.46s.56-2.35.56-3.05-.02-1.23-.05-1.56c-.03-.34-.12-.7-.24-1.11-.25-.83-.83-1.26-1.73-1.3zm7.3 22.695l1.604.282c.49 0 .918-.213 1.283-.64s.63-.964.81-1.605c.34-1.232.51-2.323.51-3.272 0-.95-.16-1.89-.47-2.82-.32-.932-.71-1.796-1.16-2.595s-.92-1.613-1.37-2.443c-1.08-1.962-1.62-3.886-1.62-5.772 0-1.157.19-2.183.58-3.074.73-1.66 1.7-2.49 2.9-2.49.45 0 .88.145 1.29.434.41.29.61.604.61.943 0 .6-.32.89-.95.89-.28 0-.55-.07-.81-.22-.82.04-1.37.95-1.66 2.74-.07.39-.1.85-.1 1.37s.11 1.17.34 1.94c.22.77.51 1.45.85 2.05.34.6.71 1.26 1.11 1.98.39.73.77 1.43 1.12 2.11.8 1.57 1.2 3.37 1.19 5.4.01 1.56-.35 3.05-1.08 4.47-.36.71-.86 1.28-1.5 1.73-.65.45-1.39.68-2.22.69v.1c-1.06-.15-1.64-.65-1.74-1.49l.43-.66zm8.66-17.886l-.206-3.264c0-1.822.54-2.734 1.62-2.734.692 0 1.636.16 2.83.48 1.196.32 1.794.73 1.794 1.23 0 .52-.377.93-1.133 1.2-1.193-.4-2.168-.65-2.924-.74.04.55.057 1.1.057 1.66l-.17 5.54c0 .02.04.22.113.6l1.377-.06c1.246 0 1.87.35 1.87 1.05 0 .28-.114.52-.34.73-.228.2-.515.31-.86.31s-.72-.03-1.12-.08h-.983c.076.98.113 1.95.113 2.92l-.17 7c0 1.44.025 2.17.076 2.17l2.848-.1c.982 0 1.473.31 1.473.94 0 .39-.17.67-.51.85s-.723.26-1.15.26h-3.264c-.34 0-.648-.12-.926-.35-.275-.24-.42-.52-.434-.84v-1.02l-.244-6.53.26-11.29zm10.565-3.754l-.15 9.64c.465.127 1.17.19 2.113.19h1.396c.063-.114.094-.53.094-1.246s-.086-2.292-.256-4.727c-.168-2.434-.254-4.266-.254-5.498 0-.29.113-.53.34-.727.227-.194.44-.292.64-.292s.366.02.49.057c.128.037.267.088.417.15.15.063.27.107.36.133 0 3.345.12 8.233.366 14.667.244 6.434.367 9.757.367 9.97s-.135.426-.404.633c-.27.208-.574.312-.906.312-.334 0-.602-.245-.803-.735-.2-.49-.336-1.218-.404-2.18-.07-.962-.117-1.795-.143-2.5-.012-.302-.012-.647 0-1.037 0-.528.006-1.132.02-1.812.025-1.19.037-1.88.037-2.07v-.15l.057-1.11-.227-.36v-.04c-.213.05-.445.08-.697.08l-2.49-.36v4.44l.227 6.36c0 .37-.096.69-.283.97-.19.28-.46.42-.81.42-.52 0-.872-.46-1.067-1.4-.195-.93-.293-2.21-.293-3.84l.113-5.88c0-1.22-.02-1.89-.057-2.01v-.18c.102-1.35.15-2.1.15-2.26l-.264-8.71c0-.3.107-.57.32-.8.215-.23.473-.35.773-.35.82 0 1.22.77 1.22 2.3zm8.79 3.754l-.206-3.264c0-1.822.55-2.734 1.63-2.734.69 0 1.64.16 2.83.48 1.2.32 1.79.73 1.79 1.23 0 .52-.37.93-1.13 1.2-1.19-.4-2.17-.65-2.92-.74.04.55.06 1.1.06 1.66l-.17 5.55c0 .02.04.22.12.6l1.38-.06c1.25 0 1.87.35 1.87 1.05 0 .27-.11.52-.34.73-.23.2-.51.31-.86.31s-.72-.03-1.12-.08h-.98c.08.98.12 1.95.12 2.92l-.17 7c0 1.44.03 2.17.08 2.17l2.85-.1c.98 0 1.47.31 1.47.94 0 .39-.17.67-.5.85-.34.18-.72.26-1.15.26h-3.27c-.34 0-.64-.12-.92-.35s-.42-.52-.43-.84v-1.02l-.24-6.53.26-11.29zm8.17 3.868l.228-7.207c0-1.194.47-2.144 1.414-2.848v.245c.1-.063.19-.095.28-.095.6 0 1.36 1.04 2.26 3.12.9 2.083 1.72 4.37 2.45 6.86s1.45 5.002 2.18 7.536c.72 2.534 1.17 4.02 1.34 4.462.51-5.396.77-11.93.77-19.603l-.06-1.036c0-.77.32-1.16.96-1.16.36 0 .64.15.82.45s.27.65.27 1.05v2.92c-.03 3.03-.16 7.08-.41 12.14-.25 5.06-.58 7.92-.99 8.57-.71.21-1.19.32-1.46.32-.28 0-.48-.09-.63-.27-.15-.19-.27-.47-.35-.84s-.17-.63-.23-.76l.02-.17c0-.96-.93-4-2.78-9.12-1.85-5.12-3.19-8.64-4.02-10.57v19.45l.15.26c.17.28.25.53.25.77s-.12.48-.35.72c-.23.24-.51.35-.82.35-.84 0-1.26-.79-1.26-2.36l-.08-13.25z" fill="#BBC9DA"/></svg>