<svg xmlns="http://www.w3.org/2000/svg" width="250" height="250" viewBox="0 0 250 250"><path opacity=".15" d="M217.958 106.958L111.933 44.6l-5.61 21.765c-.804-.205-1.628-.31-2.47-.31-7.257 0-14.29 7.467-21.928 23.385-3.582-4.483-9.446-10.087-16.38-10.087-4.967 0-9.393 2.792-13.16 8.3-1.074 1.08-1.996 2.796-2.104 4.89h-.26c-5.47 0-9.82 1.526-12.58 4.414-2.44 2.555-3.59 6.002-3.4 10.25l.03.537.19.504c.32.893 8.02 21.56 31.75 28.737 1.89 3.176 5.15 7.17 9.73 11.92-3.38 5.904-5.16 12.523-5.16 19.313 0 22.125 18.75 40.127 41.8 40.127 20.13 0 37.02-13.488 40.94-32 1.02.46 1.58.88 1.71.98l1.15 1.184 1.82-.31c2.22-.38 3.41-1.55 4.01-2.48.98-1.48 1.03-3.22.75-4.36l-.28-1.14-.9-.75c-2.05-1.7-4.56-2.9-7.46-3.59-.15-2.46-.52-4.88-1.13-7.27 4.87-3.53 4.7-8.49 3.75-10.92l-.09-.22-.11-.22c-.85-1.53-2.15-2.76-3.86-3.64-1-.55-2.13-.97-3.37-1.26-.89-2.02-2.01-3.97-3.33-5.81l22.24 12.87 49.8-42.5z"/><path fill="#F47F38" d="M215.994 104.013L109.97 41.656l-5.61 21.764c-.805-.205-1.63-.31-2.47-.31-7.258 0-14.29 7.468-21.93 23.386-3.58-4.483-9.445-10.088-16.378-10.088-4.968 0-9.394 2.793-13.162 8.3-1.073 1.08-1.995 2.798-2.103 4.892h-.265c-5.468 0-9.82 1.525-12.585 4.414-2.445 2.554-3.59 6.002-3.406 10.25l.03.536.18.504c.32.894 8.02 21.56 31.75 28.738 1.89 3.176 5.15 7.17 9.73 11.92-3.38 5.904-5.16 12.523-5.16 19.31 0 22.128 18.75 40.13 41.8 40.13 20.13 0 37.02-13.488 40.94-32 1.02.46 1.58.88 1.71.98l1.16 1.184 1.82-.305c2.22-.37 3.4-1.55 4.01-2.47.98-1.48 1.03-3.22.75-4.35l-.28-1.13-.9-.74c-2.06-1.7-4.56-2.89-7.46-3.58-.14-2.45-.52-4.88-1.13-7.26 4.87-3.53 4.7-8.49 3.75-10.91l-.08-.22-.11-.21c-.85-1.53-2.15-2.76-3.86-3.64-.99-.55-2.12-.96-3.37-1.26-.89-2.02-2-3.96-3.32-5.81l22.23 12.88 49.81-42.5z"/><path fill="#FAAF40" d="M97.823 102.87l9.75 14.036-.487-16.578"/><path fill="#FFCC7A" d="M112.21 47.056L97.823 102.87l67.975 39.353 44.157-37.68"/><ellipse fill="#FAAF40" cx="110.376" cy="165.271" rx="38.276" ry="36.611"/><path fill="#FFF" d="M129.03 169.268s18.825-7.818 28.3 0c0 0 .516 2.11-1.928 2.52 0 0-7.223-6.806-24.993-1.08"/><path fill="#E6E7E8" d="M137.493 166.74l-1.425 2.473s-5.438 1.352-6.29 1.762c-.856.41-.747-4.506-.747-4.506l6.37-.68 2.1.94z"/><path fill="#FFF" d="M97.025 170.713s-6.51.12-8.178 2.81c0 0-1.297 1.833.902.978 0 0-1.51 2.3 1.2 1.41 0 0-1.04 2.23 1.5 1.04l6.69-4.61m16.62 8.04s4.83 7.76 3.37 11.7c0 0-.96.84-1.43-.99 0 0-1.41 3.46-2.46-.12 0 0-1.41 2.68-2.31-.73 0 0-.52-8.99-.62-10.77"/><path fill="#E6E7E8" d="M95.45 171.006s-1.935 2.496 1.32 2.943c3.26.44 1.475-3.37-1.32-2.95zm17.19 12.498s2.57 3.137 4.53-.338c-.002 0-2.993-2.69-4.53.338z"/><ellipse transform="rotate(-69.7 112.7 166.5)" fill="#FFF" cx="112.648" cy="166.472" rx="16.85" ry="18.302"/><path fill="#E6E7E8" d="M124.554 179.895s2.25-4.418 2.514-6.77l1.964 1.447s-.966 2.533-4.478 5.323z"/><path fill="#FFF" d="M97 157.293s-13.972-16.59-15.65-38.063l-15.69 9.747s-.325 6.652 30.134 32.553"/><path fill="#E6E7E8" d="M92.325 150.646s2.28 4.99 2.854 10.36c0 0 2.2-1.614 5.9-.567l-8.77-9.8z"/><path fill="#D0D1D2" d="M105.65 122.248s-6.32-8.666-7.255 3.417l2.107-.385 5.148-3.032z"/><path fill="#919396" d="M102.022 124.006s-2.406-5.538-2.77 1.007c-.362 6.546 2.77-1.007 2.77-1.007z"/><path fill="#FFF" d="M143.85 159.852c-6.156 11.314-22.595 14.268-36.722 6.586-14.127-7.68-20.59-23.082-14.435-34.4 6.153-11.32 22.595-14.27 36.722-6.588 14.125 7.68 20.588 23.08 14.435 34.402z"/><path fill="#D0D1D2" d="M100.623 156.207s-2.87 12.834 5.318 3.52l-5.31-3.52z"/><ellipse transform="rotate(-61.5 114.3 144.4)" fill="#D0D1D2" cx="114.299" cy="144.421" rx="18.585" ry="24.365"/><path fill="#D0D1D2" d="M142.275 142.67s6.938-.592 9.166 3.398c0 0 2.39 6.096-6.98 8.848l-2.36.83s-.68-1.453.54-3.145c0 0 11.36-4.1.13-6.82 0 0-1.52-.97-.48-3.1z"/><path fill="#BE202E" d="M102.022 153.332s-4.544 16.984 5.072 3.316c0 0-1.092-2.057-1.49-3.56 0 .004-2.852.635-3.582.244z"/><ellipse transform="rotate(-61.5 103.5 136.9)" fill="#FFF" cx="103.475" cy="136.894" rx="9.837" ry="9.982"/><ellipse transform="rotate(-61.5 123.8 148.2)" fill="#FFF" cx="123.769" cy="148.174" rx="12.241" ry="12.321"/><path fill="#919396" d="M143.592 145.16c0-.012.617 6.293-.182 7.81l1.382-.802c0-.002 9.722-4.898-1.2-7.008z"/><path fill="#D0D1D2" d="M142.037 142.54s6.94-.59 9.167 3.4c0 0 2.38 6.097-6.98 8.85l-2.364.83s-.68-1.454.54-3.146c0 0 11.353-4.11.122-6.828 0 0-1.524-.97-.485-3.105z"/><path fill="#6D6F71" d="M106.416 151.207l-1.393 2.227.366.156 1.34-2.246"/><path fill="#6D6F71" d="M100.624 149.154s-.292 5.188 4.652 3.875l.113.56s-6.34 1.17-5.17-4.61l.4.17z"/><path fill="#6D6F71" d="M105.604 153.092s2.108 7.07 7.064 3.314l.255.21s-4.372 4.6-7.9-3.183l.58-.34z"/><path fill="#6D6F71" d="M112.023 155.855s2.547-.102 1.015 1.742c0 0 2.228-2.087-1.015-1.742z"/><path fill="#D0D1D2" d="M104.517 162.752s-5.493 4.25-8.084 10.514c0 0 1.717 4.662 6.912 7.334 0 0 4.38 2.996 9.756 2.896 0 0 2.74-9.893 1.21-17.61 0 0-4.81-.366-9.79-3.134z"/><path fill="#FFF" d="M137.484 177.453s.334 1.262-.317 1.832c0 0-.447.365 0 .895 0 0 .604.53.405-.73 0 0 1.102-.244.775 1.1 0 0 .814.162.692-.652 0 0 .4.408.53-.324 0 0-.44-1.285-1.1-2.432-.66-1.15-1 .31-1 .31z"/><path fill="#E6E7E8" d="M90.068 174.313s.75-.69 2.257-.98c0 0-1.998.272-3.462 1.34 0-.003.954-.17 1.205-.36zm.77 1.6s2.156-1.237 2.34-1.48c0 0-1.382 1.16-1.993 1.364l-.347.117zm26.884 15.167s.123-2.002-.427-3.527c0 0 .84 1.705.582 4.02l-.155-.493z"/><path d="M115.442 70.457c.62-1.612.945-2.41 1.62-3.99.3-.698.45-1.255.405-1.777-.02-.228-.15-.44-.34-.555-.4-.24-.8.148-1.083.54-.174.24-.34.542-.487.894-2.604 6.21-3.697 9.45-5.436 16.14-.2.79-.24 1.39-.15 1.91.05.24.16.43.33.53.37.21.64-.18.88-.67.11-.23.24-.56.35-.98.54-2 .83-3 1.45-4.96l-.85-.5c.42-1.35.64-2.01 1.09-3.34l3.05 1.79c-1.9 5.28-2.7 7.99-3.99 13.58l-1.21-.7c.02-.59.04-.89.06-1.48-.6.73-1.3 1.11-1.96.73s-1.03-1-1.25-1.8c-.21-.77-.29-1.65-.27-2.51.03-.99.2-2.07.5-3.2 1.66-6.6 2.7-9.8 5.19-15.95.44-1.02.98-1.89 1.55-2.55.5-.57 1.09-1.11 1.75-1.37s1.43-.23 2.2.23c.77.47 1.19 1.15 1.36 1.92s.14 1.63.02 2.42c-.14.92-.44 1.92-.86 2.94-.69 1.56-1.02 2.35-1.66 3.95l-2.22-1.31zm-1.705 19.497c2.182-9.1 5.428-17.94 9.708-26.265l2.162 1.3c-5.143 9.7-7.185 14.99-9.96 26.05l-1.91-1.1zm13.663-15.7l2.102 1.25c-3.64 7.298-5.16 11.17-7.485 19.197l-1.91-1.09c.19-.68.286-1.02.484-1.69-.04.02-.16.12-.31.25-.35.31-.77.68-1.21.86-.22.09-.42.1-.59.01-.51-.29-.7-1.1-.72-2-.02-.87.14-1.94.39-2.79 1.95-6.6 3.16-9.81 5.98-15.92.84.5 1.26.75 2.1 1.26-2.79 5.86-3.99 8.93-5.96 15.25-.24.77-.04 1.01.19 1.15.21.12.4-.03.61-.21.09-.07.21-.22.33-.37 2-6.26 3.22-9.3 6.03-15.1zm.173-8.066c.796.48 1.195.722 1.99 1.203-.708 1.28-1.055 1.92-1.725 3.22l-1.962-1.17c.66-1.31 1-1.96 1.697-3.24zm3.017 1.822c.796.48 1.193.723 1.99 1.204-.73 1.257-1.082 1.892-1.77 3.177l-1.96-1.17c.675-1.29 1.024-1.94 1.74-3.2zm-3.874 24.006c-.254.71-.526 1.58-.01 1.878.442.255.69-.074 1.114-1.24.39-1.075.592-1.61 1.008-2.67l1.98 1.15c-.3.735-.445 1.105-.73 1.845-.82 2.13-1.505 3.39-2.21 4.01-.703.61-1.407.6-2.22.13-.678-.39-1.19-1.11-1.346-2.27-.154-1.16.038-2.8.808-4.98 1.207-3.41 1.876-5.08 3.333-8.35.93-2.09 1.893-3.3 2.786-3.84s1.75-.46 2.5-.02c.89.53 1.4 1.22 1.44 2.28.04 1.05-.42 2.46-1.4 4.5-.28.57-.42.86-.69 1.44l-2.04-1.2c.4-.9.61-1.35 1.04-2.23.53-1.11.59-1.55.12-1.83-.56-.33-.97.46-1.28 1.13-1.88 3.98-2.72 6.02-4.22 10.22zm16.626-16.3c-2.817 4.276-4.106 6.507-6.426 11.12l.1.06.424-.52c1.36-1.65 2.067-2.457 3.53-4.03l1.892 1.127c-1.942 1.88-2.873 2.856-4.65 4.853-1.723 5.297-2.466 8.014-3.68 13.553l-1.835-1.06c.735-3.32 1.15-4.96 2.075-8.2l.082-.3-.1-.06-.176.24c-.293.37-.44.56-.727.94-1.09 2.59-1.6 3.9-2.53 6.57l-1.91-1.1c3.53-10.47 5.94-15.44 11.77-24.53l2.17 1.3zm-3.73 29.076c1.155-3.726 1.803-5.564 3.23-9.15.168-.428.25-.642.423-1.067-.03-.02-.047-.028-.078-.047-.25.38-.373.57-.618.952-2.05 3.23-2.99 4.9-4.7 8.315l-1.59-.91c2.29-7.913 3.76-11.75 7.21-19.027l1.91 1.14c-1.93 3.724-2.82 5.647-4.43 9.557-.17.426-.26.64-.42 1.07l.11.067c.23-.388.36-.58.6-.964 2.2-3.563 3.41-5.3 5.98-8.626l1.24.743c-1.9 3.724-2.78 5.645-4.38 9.55-.17.424-.26.638-.42 1.066l.11.07.59-.96c2.19-3.55 3.38-5.29 5.93-8.62l1.91 1.14c-5.11 6.21-7.36 9.57-11.07 16.62l-1.59-.91zm16.938-13.15l2.095 1.252c-4.655 6.422-6.712 9.852-10.108 17.012l-1.907-1.095c.28-.6.42-.9.708-1.51-.054.01-.193.1-.365.21-.415.27-.896.58-1.386.71-.245.07-.46.07-.63-.03-.51-.29-.625-1.03-.544-1.86.077-.79.37-1.75.73-2.51 2.82-5.9 4.464-8.74 8.124-14.13l2.1 1.25c-3.596 5.16-5.223 7.88-8.035 13.52-.34.69-.157.92.073 1.05.212.12.425-.01.673-.16.106-.06.246-.19.387-.32 2.838-5.58 4.473-8.26 8.084-13.37zm1.035-7.314c.796.48 1.196.722 1.99 1.203-.887 1.12-1.324 1.68-2.175 2.83l-1.956-1.17c.84-1.15 1.265-1.72 2.14-2.85zm3.016 1.822c.8.48 1.2.722 1.99 1.203-.9 1.1-1.35 1.658-2.22 2.786l-1.95-1.18c.86-1.14 1.3-1.7 2.19-2.81zm-8.64 25.716l-1.9-1.094c3.46-7.11 5.55-10.514 10.26-16.887l2.1 1.252c-.4.53-.6.8-.99 1.335.07-.005.24-.072.49-.172.47-.184 1.11-.43 1.7-.496.3-.032.51.01.69.122.57.335.61 1.035.41 1.746-.2.745-.68 1.6-1.17 2.27-3.85 5.207-5.58 7.946-8.57 13.635l-1.91-1.093c2.83-5.55 4.46-8.228 8.1-13.327.44-.62.26-.85.02-.995-.22-.134-.49-.04-.76.092-.14.07-.29.162-.45.274-3.58 5.107-5.19 7.786-7.98 13.338zm15.28-8.018c.29-.373.66-.837.85-1.246.18-.38.23-.78-.1-.976-.26-.158-.65.042-1 .32-.35.285-.75.76-1.04 1.135-.36.49-.56 1.14-.64 1.74-.08.6-.1 1.28-.1 1.89 0 .85-.01 1.86-.23 2.85-.22 1.02-.6 2.09-1.29 3.18-.68 1.05-1.52 2.09-2.41 2.73-.92.66-1.89.97-2.8.45-1.15-.66-1.35-1.93-1.14-3.21.22-1.28.9-2.63 1.44-3.52l1.83 1.06c-.28.46-.65 1.12-.81 1.68-.17.6-.22 1.16.18 1.39.56.32 1.3-.65 1.91-1.62.63-1 .67-2.37.66-3.64-.01-.95-.05-1.85.14-2.86.19-1.01.55-2.05 1.4-3.21.69-.93 1.62-1.93 2.65-2.51 1.01-.56 2.15-.76 3.17-.19 1.24.7 1.42 1.72 1.1 2.74s-1.11 2.12-1.8 3c-.76-.45-1.14-.68-1.91-1.13zm-.92 11.072c-.39.596-.84 1.324-.32 1.623.44.254.77-.01 1.43-.984.61-.9.92-1.35 1.55-2.23l1.98 1.15c-.44.61-.67.91-1.1 1.53-1.25 1.77-2.21 2.81-3.09 3.29-.88.47-1.64.4-2.45-.06-.68-.39-1.12-1.05-1.09-2.06.03-1.01.51-2.42 1.71-4.24 1.88-2.85 2.88-4.24 5-6.95 1.36-1.73 2.6-2.69 3.66-3.09s1.99-.26 2.74.18c.9.53 1.34 1.17 1.22 2.09-.12.91-.84 2.09-2.25 3.77-.4.47-.59.71-.98 1.19l-2.03-1.2c.59-.75.89-1.11 1.5-1.85.76-.92.9-1.29.43-1.57-.56-.33-1.13.32-1.59.88-2.69 3.29-3.95 4.98-6.27 8.49zm3.71 7.28l-1.9-1.09c5.62-8.74 9.06-12.847 16.85-20.227.87.522 1.29.785 2.16 1.307-2.51 2.322-3.71 3.523-6.01 5.998.07 0 .25-.058.52-.143.5-.154 1.19-.362 1.81-.398.31-.018.53.03.72.143.56.335.55.992.29 1.648-.27.688-.83 1.47-1.4 2.074-4.41 4.715-6.44 7.208-10.02 12.398l-1.91-1.092c3.4-5.068 5.32-7.506 9.5-12.13.51-.56.34-.785.1-.93-.22-.133-.51-.055-.8.058-.15.06-.31.14-.49.238-4.13 4.63-6.02 7.073-9.38 12.147zm13.6-.096c-.58.678-.88 1.02-1.44 1.707-1.25 1.42-2.37 2.26-3.65 2.69-.65.22-1.27.16-1.89-.2-1.23-.7-1.12-2.1-.67-3.28.27-.69.66-1.44 1.23-2.2 2.39-3.08 3.66-4.57 6.36-7.47 1.36-1.36 2.72-2.14 4.22-2.47.74-.16 1.44-.03 2.13.38 1.35.81 1.09 2.13.5 3.19-.35.64-.83 1.3-1.47 1.97-1.61 1.63-2.4 2.46-3.91 4.14l-3.3-1.93c-1.1 1.29-1.64 1.94-2.69 3.26-.44.6-.67 1.1-.71 1.49-.02.19.06.36.23.46.37.21.8-.05 1.21-.39.22-.19.45-.42.7-.73.54-.66.81-.99 1.36-1.64.74.43 1.11.64 1.84 1.07zm-.05-5.62l1.46.86c.75-.81 1.13-1.213 1.9-2.01.53-.542.85-.99.93-1.402.04-.178-.06-.364-.24-.473-.39-.24-.89.01-1.36.33-.26.17-.51.39-.8.67-.77.8-1.14 1.2-1.88 2.02z"/><path fill="#E6E7E8" d="M115.267 190.957s.685-1.432-.15-3.69c0 0 .542 2.415-.086 4.06 0 0 .19-.233.24-.37z"/><path fill="#FFF" d="M124.554 174.426l2.514.053s7.006-.33 11.402 4.48c0 0 2.428-2.58-8.234-9.07m-19.19-94.68c-.12-.42-.25-.86-.398-1.3-4.1-7.93-13.844-17.46-30.058 19.67 0 0-14.75-25.72-27.48-6.57 0 0-2.922 2.33 0 6.56 0 0-18.16-3.85-17.532 10.52 0 0 9.023 25.05 38.53 28.42l4.672-6.87s11.637-32.05 31.466-42.77c.81-1.89 1.24-4.39.8-7.68z"/><path fill="#0B8ECC" d="M108.24 147.918s2.4-1.676 1.687 3.23l-3.767.78-1.12-3.23s3.516-2.97 3.2-.78z"/><path fill="#FFF" d="M109.432 150.83l-1.62.33s1.005-1.23 1.62-.33zm-3.564-.728l-.428-1.055s.726.033.428 1.055z"/><path fill="#E6E7E8" d="M63.69 116.742l3.172 2.743 5.346-2.966s-1.646-2.75-.355-8.54l-3.302-1.2-4.86 9.94z"/><path fill="#D0D1D2" d="M81.33 95.326s-1.3 15.842-12.987 13.342c0 0-3.165 20.358-16.07 11.488 0 0-8.975-5.76-8.975-9.248l9.392.56-7.722.897s18.327 20.518 21.895-5.57c0 0 .438-9.1-13.754-13.21 0 0 13.35.062 15.44 13.21 0 0 6.81 3.73 12.78-11.47z"/><path fill="#D0D1D2" d="M74.24 107.003s-5.37 5.59 0 14.17c0 0-5.346-4.896-2.387-13.184l2.387-.99zm-9.745 11.727l5.52 3.723-5.52-5.934m-11.805-5.06s-6.47-6.56-13.15-5.72c0 0 12.095 3.94 9.61 6.13l3.54-.41z"/><path fill="none" stroke="#BBBDBF" stroke-linecap="round" stroke-linejoin="round" stroke-miterlimit="10" d="M108.58 77.674c0-3.93-3.746-7.118-8.367-7.118-3.697 0-6.694 2.55-6.694 5.695 0 2.52 2.39 4.56 5.35 4.56 2.36 0 4.28-1.63 4.28-3.64 0-1.61-1.54-2.91-3.43-2.91-1.52 0-2.74 1.05-2.74 2.33 0 1.03.98 1.87 2.19 1.87.97 0 1.75-.66 1.75-1.49 0-.66-.63-1.19-1.41-1.19-.62 0-1.13.43-1.13.96 0 .43.4.77.9.77.39 0 .71-.27.71-.61"/><path fill="#E6E7E8" d="M86.865 81.228s-1.983 8.39 6.027 10.77c8.01 2.378-7.428-2.68-6.027-10.77z"/><circle fill="#0071BC" cx="104.431" cy="137.526" r="8.089"/><path fill="#0F4481" d="M103.196 140.684c-1.724-1.516-1.89-4.14-.376-5.86 1.515-1.722 4.14-1.892 5.863-.376 1.72 1.516 1.89 4.14.374 5.86-1.514 1.725-4.14 1.893-5.86.376z"/><path fill="#FFF" d="M105.42 139.094c-.916-.805-1.004-2.2-.2-3.113.805-.91 2.2-1 3.118-.2.914.81 1.002 2.21.196 3.12-.805.92-2.198 1-3.114.2z"/><circle fill="#FFF" cx="101.818" cy="137.552" r="1.075"/><circle fill="#0071BC" cx="125.643" cy="148.049" r="9.471"/><path fill="#0F4481" d="M122.22 150.455c-1.26-2.375-.355-5.318 2.017-6.576 2.373-1.26 5.318-.36 6.578 2.02 1.258 2.37.354 5.31-2.02 6.57-2.373 1.26-5.317.35-6.575-2.02z"/><path fill="#FFF" d="M125.314 149.635c-.667-1.264-.187-2.826 1.073-3.494s2.827-.19 3.497 1.07c.667 1.27.187 2.83-1.077 3.5-1.26.67-2.823.19-3.493-1.07z"/><circle fill="#FFF" cx="122.009" cy="146.452" r="1.259"/></svg>