<svg xmlns="http://www.w3.org/2000/svg" width="250" height="250" viewBox="0 0 250 250"><path opacity=".15" d="M219.752 139.21c0-20.27-6.45-39.436-18.675-55.536V73.92h-8.534c-17.357-17.25-40.29-26.726-64.808-26.726-24.517 0-47.45 9.475-64.807 26.727h-5.924v6.47C43.266 96.9 35.72 117.72 35.72 139.21c0 13.136 2.71 25.802 8.058 37.685-3.553 10.695-4.978 20.51-4.02 27.797.24 1.825.594 3.658 1.08 5.605l.894 3.565h2.595v.074h29.708c15.71 11.316 34.245 17.29 53.7 17.29 19.458 0 37.992-5.974 53.702-17.29h31.29V193.56h-10.764c11.65-15.852 17.79-34.574 17.79-54.35z"/><path fill="#FFD69F" d="M216.28 134.268c0-20.27-6.45-39.437-18.675-55.537v-9.75h-8.534c-17.35-17.25-40.29-26.72-64.8-26.72s-47.45 9.48-64.81 26.73h-5.92v6.47c-13.74 16.5-21.29 37.32-21.29 58.81 0 13.14 2.71 25.81 8.06 37.69-3.55 10.7-4.98 20.51-4.02 27.8.24 1.83.6 3.66 1.08 5.61l.9 3.57h2.59v.07h29.71c15.71 11.32 34.25 17.29 53.7 17.29s38-5.97 53.71-17.29h31.29v-20.38H198.5c11.65-15.85 17.79-34.57 17.79-54.35z"/><circle fill="#FAAF40" cx="124.264" cy="134.268" r="87.308"/><path fill="#3FBCFF" d="M72.002 87.958h105.52v107.195H72.002z"/><path fill="#2CACE5" d="M178.907 94.692L70.957 92.41V80.877h107.56"/><circle fill="#FFF692" cx="151.449" cy="160.219" r="15.334"/><path fill="#4CD812" d="M114.117 173.936s22.59-11.914 60.702-6.396c0 0 11.98 9.34 14.89 19.122 2.91 9.78-3.61 14.69-3.61 14.69l-58.28-2.962-13.72-24.454z"/><path fill="#4CE813" d="M60.414 178.136s39.706-43.03 124.108 25.155l-44.627-3.11-75.74 2.08-3.74-24.11z"/><path fill="#F2E3CB" d="M62.01 78.025V198.12l126.09-.002V78.025H62.01zM174.75 194.01H75.36v-49.122h99.39v49.122zm0-56.132H75.36v-48.21h99.39v48.21z"/><path fill="#D6C4AB" d="M63.43 79.167h125.405v6.393H63.43z"/><path fill="#D6C4AB" d="M65.83 83.733h5.48v111.19h-5.48zm114.098 0h5.48v111.19h-5.48z"/><path fill="#F2E3CB" d="M192.896 193.326V73.686H58.243V193.33h-12.68v10.957h158.983V193.33h-11.65zM66.466 81.68h118.208v111.647H66.464V81.68z"/><path opacity=".15" d="M143.1 86.396s3.432-.638 4.414 1.52c.98 2.158-1.104 5.444-1.104 5.444l-3.2 1.104-.11-8.068z"/><path fill="#FFF" d="M41.936 204.21H92.67c-1.192-4.77-3.96-9.24-8.306-11.99-2.5-10.302 1.766-16.04 1.766-17.806l-21.336-34.187c-13.342 10.3-26.045 42.132-23.838 58.907.234 1.787.576 3.466.98 5.077z"/><path fill="#D0D1D2" d="M90.35 204.21c-.46-1.995-1.255-3.857-2.455-5.37-1.766-2.06-3.237-2.796-5.543-4.07-2.215-1.225-1.373-13.88.687-17.118l-16.98-13.685c-3.08 4.81-13.51 25.01-9.82 40.244h34.11z"/><path fill="#FFF" d="M61.53 167.24l-.243.85-.172.844-.2 1.3c-.112.995-.245 2.217-.26 3.637-.034 1.42.002 3.03.188 4.75.166 1.73.475 3.58 1.01 5.46.53 1.87 1.242 3.78 2.286 5.53 1.04 1.74 2.38 3.31 4.01 4.52 1.63 1.2 3.52 2.1 5.6 2.54.5.15 1.06.17 1.58.27l.79.13c.27.02.54.02.82.04l1.63.07c.55-.03 1.1-.06 1.65-.1 2.19-.12 4.38-.55 6.49-1.07 1.05-.2 2.08-.59 3.08-.88.5-.16 1-.3 1.49-.46l1.44-.54c.95-.37 1.88-.67 2.76-1.06l2.54-1.12c.82-.35 1.59-.71 2.32-1.09l2.07-1.04c1.31-.62 2.41-1.27 3.34-1.77l2.88-1.6 3.36 6.04-3.09 1.58c-.99.5-2.17 1.13-3.58 1.75-.71.32-1.45.67-2.24 1.03-.78.37-1.62.73-2.52 1.07l-2.76 1.1c-.96.39-1.99.69-3.03 1.06l-1.59.54c-.54.17-1.11.31-1.67.46-1.14.28-2.26.66-3.48.87-2.39.51-4.92.91-7.56.98l-1.99.05-2.03-.15c-.34-.03-.68-.05-1.02-.09l-1.03-.19c-.68-.14-1.37-.21-2.04-.42-2.72-.68-5.34-2-7.54-3.75s-3.93-3.95-5.17-6.21c-1.26-2.27-2.03-4.61-2.58-6.82-.55-2.22-.83-4.34-.95-6.29-.14-1.95-.12-3.74-.03-5.32.07-1.58.26-2.96.43-4.1.11-.57.2-1.09.29-1.53l.31-1.23c.17-.55.27-.84.27-.84l4.06 1.25zm49.808-24.637s-.01.046-.036.136c-.01.05-.093.32-.048.24.013-.04.017.02.025-.09 0-.06-.04-.39-.3-.71-.28-.31-.52-.36-.48-.36.02-.01.24-.01.52-.06.56-.1 1.4-.36 2.29-.77 1.8-.81 3.91-2.13 5.96-3.81 2.05-1.68 4.07-3.7 5.81-5.93 1.75-2.22 3.22-4.62 4.3-6.97 1.09-2.35 1.8-4.65 2.21-6.65.42-2 .55-3.68.59-4.86.02-.59.03-1.06.02-1.37v-.49l8.13.09-.04.62c-.02.4-.06.99-.14 1.74-.16 1.49-.46 3.62-1.16 6.1-.68 2.47-1.75 5.26-3.27 8.04-1.5 2.78-3.44 5.52-5.66 7.98-2.21 2.47-4.69 4.66-7.21 6.46-2.52 1.8-5.08 3.21-7.54 4.13-1.24.45-2.44.79-3.73.92-.65.05-1.32.07-2.09-.08-.75-.15-1.71-.52-2.42-1.35-.72-.82-.92-1.77-.94-2.34-.04-.63.04-1.01.12-1.4.1-.44.12-.43.15-.56.03-.09.04-.14.04-.14l4.8 1.42z"/><path opacity=".3" fill="#D0D1D2" d="M125.857 130.263c-.248.34-.49.68-.75 1.012-1.742 2.22-3.76 4.25-5.817 5.923-2.05 1.678-4.162 3-5.965 3.81-.892.402-1.727.67-2.294.764-.27.05-.49.053-.52.057-.04 0 .2.05.47.36.11.13.18.25.22.37l-4.66-1.38-.04.13c-.03.13-.05.11-.15.55-.08.39-.16.77-.12 1.4.02.57.22 1.52.94 2.34.72.82 1.68 1.19 2.42 1.34.78.15 1.44.13 2.09.07 1.29-.13 2.49-.47 3.73-.93 2.46-.92 5.02-2.33 7.54-4.13 2.05-1.46 4.06-3.19 5.93-5.11-1.6-1.93-2.5-4.3-2.99-6.61zm-14.603 12.716c-.03.05-.003-.05.02-.14l.005.05c-.01.1-.02.04-.03.08zm20.49-29.05s.1 5.15 7.357 4.85c0 0 1.18-3.31 1.11-5.4"/><path fill="#FFF" d="M147.686 99.614c-12.845 9.596-4.513-3.138-2.158-7.652 2.747-5.297-1.962-8.436-6.082-4.12-2.942 3.138-4.61 10.104-5.788 14.027 0 0-8.353-10.65-12.065-5.89-1.57 2.01-1.57 5 1.374 5.79 3.814 1.04 5.482 1.62 6.36 5.26-1.553 4.55.292 6.57 2.96 8.14 2.235 1.32 4.92 2.77 7.944.91.83-.55 1.35-1.35 1.75-2.19l.02.03.12-.31c.4-.88.95-2.51.95-2.51.99-2.34 2.1-3.47 5.62-4.06 2.95-.59 7.66-.4 9.03-3.93 1.96-5.69-6.08-6.46-10-3.53z"/><path fill="#D0D1D2" d="M125 138.323s12.725-3.29 4.216 8.875l-1.696-2-2.52-6.875z"/><ellipse transform="rotate(92.3 94.9 152.4)" fill="#FFF" cx="94.921" cy="152.424" rx="28.581" ry="35.67"/><ellipse transform="rotate(92.3 99.3 152.2)" fill="#D0D1D2" cx="99.258" cy="152.235" rx="22.771" ry="29.851"/><ellipse transform="rotate(92.3 115.4 150.9)" fill="#FFF" cx="115.382" cy="150.859" rx="12.055" ry="12.231"/><ellipse transform="rotate(92.3 87 150)" fill="#FFF" cx="86.957" cy="150.002" rx="14.997" ry="15.097"/><path fill="#919396" d="M68.765 135.707c.007-.01-4.6 6.238-4.706 8.335l-.96-1.71s-7.16-11.253 5.66-6.625z"/><path fill="#D0D1D2" d="M72.043 133.93s-6.93-4.975-11.78-2.175c0 0-6.33 4.925 1.8 13.69l1.962 2.357s1.628-1.104 1.41-3.644c0 0-9.374-11.45 4.15-7.264 0 .002 2.212-.067 2.458-2.964z"/><circle fill="#0071BC" cx="84.632" cy="148.32" r="11.394"/><path fill="#0F4481" d="M81.748 140.563c3.195-.483 6.177 1.717 6.66 4.913.483 3.195-1.716 6.176-4.912 6.658-3.197.485-6.178-1.715-6.662-4.91-.48-3.196 1.718-6.178 4.914-6.66z"/><circle fill="#FFF" cx="83.943" cy="146.149" r="3.11"/><circle fill="#FFF" cx="76.818" cy="146.412" r="1.514"/><circle fill="#0071BC" cx="114.001" cy="150.41" r="9.367"/><circle fill="#0F4481" cx="112.349" cy="148.787" r="4.811"/><path fill="#FFF" d="M113.052 146.095c1.397-.212 2.7.75 2.912 2.146.21 1.4-.75 2.71-2.147 2.92-1.397.21-2.7-.75-2.91-2.14-.213-1.4.75-2.7 2.145-2.91z"/><circle fill="#FFF" cx="107.575" cy="148.84" r="1.244"/><path fill="#FCFCD4" d="M144.768 202.673v-30.54h-.005c.024-.112.054-.226.054-.343 0-2.764-6.94-5.003-15.5-5.003-8.56 0-15.597 2.24-15.597 5.003v31.538h.152c.548 2.603 7.243 4.66 15.445 4.66 8.203 0 14.897-2.058 15.446-4.66h.005v-.03c.02-.104.05-.207.05-.313s-.03-.207-.05-.312z"/><path fill="#D0D1D2" d="M128.213 186.038c1.03-2.67-.44-4.143-.44-4.143l-4.047.343c-2.17-8.02-7.688-9.075-7.688-9.075l-2.538 3.465v26.627c.42 1.995 4.606 3.664 10.157 4.338 8.384-6.215 6.01-20.193 6.01-20.193s-1.646-.863-1.454-1.362z"/><path fill="#FFF" d="M126.546 185.556c1.296-.812 2.04-2.005 1.128-3.833-1.766-3.826-7.167 2.348-11.858.504 0 0-1.03-.552-1.09-1.68-.03-.493.398-1.068.398-1.068 1.093-1.43 3.997-.57 4.016-3.06.024-3.51-3.307-3.68-5.297-2.65-4.543 2.34-6.704 8.35-7.61 12.75h-.017c-.004.03-.004.07-.006.11l-.02.08.015-.01c-.722 9.56 8.186 9.36 15.683 8.1 5.835-.99 11.633-8.64 4.658-9.27z"/><ellipse fill="#844C26" cx="129.329" cy="171.606" rx="12.36" ry="2.453"/><path fill="#D0D1D2" d="M121.836 181.918s1.52 1.472 1.57 4.12c.048 2.648 1.03 7.408-1.52 8.78-2.552 1.373-9.063.453-9.063.453s7.394-13.99 9.013-13.54"/><path fill="#FCFCD4" d="M121.836 199.38c0 1.682-1.36 3.042-3.042 3.042-1.678 0-3.04-1.36-3.04-3.04v-17.464c0-1.678 1.36-3.04 3.04-3.04s3.042 1.362 3.042 3.04v17.463z"/><path fill="#D0D1D2" d="M119.287 175.297s7.847 2.404 18.54.492c0 0-5.297 4.16-16.185 2.94m12.015-76.86s1.963 2.3 3.556 8.16c0 0-.956-4.98-.563-5.13 0 0-.982-1.96-2.993-3.04M96.6 172.67c.148 3.237 1.62 8.682 4.563 10.448 7.063 4.27 7.063-9.12 7.063-12.652"/><path fill="#6D6F71" d="M108.224 170.466c.096 0 .196.884.217 2.277-.03 1.72-.13 3.686-.52 5.797-.21 1.05-.48 2.148-.99 3.212-.25.53-.56 1.058-1.01 1.51-.43.45-1.02.817-1.67.937-1.37.23-2.57-.38-3.55-1.04-1-.71-1.68-1.69-2.21-2.64-1.04-1.94-1.56-3.9-1.85-5.62-.19-1.36-.1-2.24-.02-2.25.11-.01.2.85.5 2.16.32 1.67.87 3.57 1.89 5.41.52.9 1.17 1.8 2.06 2.42.89.6 2.01 1.12 3.08.92 1.05-.2 1.8-1.13 2.25-2.1.48-.98.75-2.05.97-3.06.41-2.05.54-4 .62-5.7.1-1.38.17-2.27.27-2.27z"/><path fill="#BE202E" d="M98.146 166.787s.957 14.788 4.782 15.01c3.826.22 3.605-15.23 3.605-15.23s-3.017-.073-3.237-1.177c0 0-1.84 3.09-5.327 1.625"/><path fill="#6D6F71" d="M107.98 161.17c.042-.03.246.147.524.534.273.386.645.98.842 1.84.125.608.083 1.38-.34 2.03-.438.636-1.16 1.036-1.883 1.25-.736.232-1.575.326-2.417.112-.214-.04-.42-.117-.62-.23-.21-.084-.397-.222-.567-.39-.09-.083-.19-.15-.25-.25l-.1-.152-.01-.012-.01-.012-.31.59-.44.502c-.66.62-1.57.837-2.35.77-.8-.05-1.52-.342-2.1-.737-.6-.377-1.07-.887-1.39-1.425-.46-.743-.46-1.495-.44-1.96.11-.47.2-.707.26-.693.05.016.07.278.06.706.07.423.14 1.046.59 1.646.3.44.71.87 1.25 1.18.52.33 1.15.56 1.8.59.65.03 1.32-.15 1.81-.61l.33-.39.24-.48c.16-.39.23-.82.35-1.23l.16-.63.08-.31.03-.14.01-.03.01.04.02.09.06.24c.12.51.24 1.02.43 1.5l.13.35.06.11c.04.07.12.11.17.17.11.11.24.22.4.28.14.08.3.15.47.18.66.17 1.38.11 2.02-.08.66-.18 1.22-.5 1.56-.95.32-.46.39-1.04.31-1.57-.26-1.52-.94-2.4-.8-2.47z"/><path fill="#0B8ECC" d="M103.455 159.465s-1.476-3.272-3.803 2.343l3.477 3.185 3.2-2.697s-1.84-5.338-2.88-2.83z"/><path fill="#FFF" d="M100.376 161.782l1.494 1.358s-.283-1.92-1.494-1.358zm4.204 1.468l1.114-.843s-.786-.418-1.114.842zm11.885-39.577s-.4-3.557-1.198-4.36c-.805-.807-4.394-1.23-4.394-1.23s3.62-.448 4.43-1.27c.784-.796 1.16-4.322 1.16-4.322s.38 3.53 1.165 4.33c.807.82 4.428 1.27 4.428 1.27s-3.494.36-4.288 1.13c-.83.81-1.303 4.47-1.303 4.47zm25.75 11.625s-.4-3.557-1.196-4.36c-.81-.81-4.4-1.23-4.4-1.23s3.62-.45 4.43-1.27c.78-.798 1.16-4.323 1.16-4.323s.38 3.525 1.16 4.323c.8.82 4.42 1.27 4.42 1.27s-3.5.353-4.29 1.126c-.84.81-1.31 4.464-1.31 4.464zm-7.228 20.32s-.228-2.063-.688-2.527c-.47-.46-2.55-.71-2.55-.71s2.1-.26 2.57-.74c.45-.46.68-2.51.68-2.51s.21 2.05.67 2.51c.47.48 2.57.73 2.57.73s-2.03.21-2.5.66c-.49.47-.77 2.59-.77 2.59z"/><path d="M111.156 63.333c-3.023 0-5.217 2.282-5.217 5.427v.223l.06 1.177c0 .43 0 .85-.01 1.28-.29-.72-.59-1.42-.89-2.09-.85-1.92-2.34-5.27-5.21-6.08-.53-.245-1.1-.365-1.67-.365-.83 0-1.66.26-2.36.772-.47.34-.88.724-1.26 1.132-.65-.37-1.44-.69-2.41-.95-1.87-.49-3.37-.73-4.6-.73-1.06 0-2.19.28-3.18.92-.8-.44-1.77-.69-2.91-.69-.04 0-.71.02-.71.02l-6.44-.43c-.09-.01-.18-.01-.27-.01-.61 0-1.22.11-1.81.3-.07-.05-.14-.11-.21-.16-.87-.55-1.92-.83-3.12-.83-1.98 0-3.18.84-3.84 1.55-.53.56-1.13 1.48-1.3 2.83-.06-.14-.13-.28-.2-.42-1.42-2.74-3.68-3.04-4.59-3.04-.95 0-3.32.33-4.68 3.36-.25.55-.37 1.16-.35 1.76l.21 6.79c0 3.36.01 6.12.03 8.39-.46-.13-.94-.2-1.42-.2-.65 0-1.25.03-1.81.09-1.64.18-2.89.56-3.84 1.04l.02-3.15c-.02-1.44 0-2.89.07-4.38.02-.93.09-1.76.19-2.46.01-.05.01-.1.02-.15.09-.84.23-1.94.43-3.3.14-.95.47-2 .96-3.09l.15.02c.22.04.44.06.65.06 1.26 0 2.44-.41 3.4-1.18 1.2-.96 1.89-2.4 1.89-3.95 0-2.66-1.92-5.35-6.28-5.37-2.39 0-4.54.73-6.35 2.14-.92.69-1.72 1.56-2.37 2.55-.54.82-1.01 1.68-1.39 2.56-.37.86-.69 1.83-.96 2.89-.25.99-.48 2.18-.7 3.66-.24 1.55-.36 3.93-.36 7.28l.02 3.5c0 1.85.04 3.47.13 4.81.07 1.09.17 2.09.28 2.91.1.87.3 2 .6 3.44.35 1.75 1.09 3.57 2.15 5.37 1.26 2.17 3.09 3.74 5.4 4.63 1.18.47 2.38.71 3.59.71 1.17 0 2.34-.22 3.48-.66.66.24 1.38.37 2.14.37 1.53 0 3.12-.67 4.14-2.08 1.41 1.2 3.2 1.85 5.25 1.85h.05c6.6 0 9.04-7.06 9.89-15.41.18 2.78.3 4.13.39 4.85l-.06 1.39.09 3.78c.04 1.27.67 2.45 1.72 3.18l.9.63c.67.47 1.47.72 2.29.72 1.34 0 2.62-.47 3.69-1.35.06-.05.11-.1.17-.16.26.34.55.65.89.93 1.06.88 2.35 1.35 3.71 1.35h4.13c1.18 0 2.28-.25 3.26-.76.25-.12.48-.27.7-.43 1.05.48 2 .52 2.23.52 1.46 0 2.83-.57 3.87-1.62 1.33-1.33 1.6-2.75 1.6-3.71 0-.77-.16-1.54-.5-2.29v-.9c.39 1.27.53 1.89.57 2.16-.03.61.08 1.23.32 1.8.02.08.05.17.07.28.25 1.07.66 1.94 1.22 2.63.94 1.16 2.36 1.83 3.9 1.83.77 0 1.67-.17 2.99-.56.91-.27 1.69-.86 2.21-1.66.78-1.2 1.41-2.89 1.89-12.61.31-6.3.49-11.42.52-15.25v-3.6c0-1.25-.32-2.4-.94-3.41-.97-1.57-2.59-2.46-4.44-2.46zm-18.908 29.15c0 .13 0 .255.002.38l-.012-.002.01-.37zm121.54-26.687c-.966-1.565-2.585-2.463-4.444-2.463-3.022 0-5.217 2.282-5.217 5.427 0 .075.002.15.006.224l.066 1.175c0 .43-.01.85-.01 1.28-.29-.72-.59-1.42-.89-2.09-.85-1.92-2.34-5.27-5.21-6.08-.53-.25-1.1-.37-1.67-.37-.84 0-1.67.26-2.36.77-.47.34-.88.72-1.26 1.13-.65-.37-1.44-.69-2.41-.95-1.87-.49-3.37-.73-4.6-.73-1.89 0-3.98.88-5.14 3.13-.65-1.48-2.19-3.18-5.96-3.18-2.75 0-5.25 1.17-7.21 3.37-.19.2-.36.42-.53.65-.52-.82-1.2-1.55-2.03-2.17-1.87-1.4-4.12-2.11-6.7-2.11-2.04 0-4.09 1.03-5.06 3.27-2.21-2.34-5.19-3.58-8.74-3.58-.86 0-2.09.21-3.37 1.13l-.01-.8c0-1.29-.48-2.5-1.37-3.5-.99-1.11-2.37-1.72-3.87-1.72-1.23 0-2.42.4-3.45 1.16-1.16.87-1.93 2.14-2.15 3.57-.03.2-.05.41-.05.62v.15c-.08 1.19-.2 2.46-.38 3.8-1.28-4.69-2.86-8.3-6.39-8.53-.08-.01-.17-.01-.26-.01-.68 0-1.34.17-1.93.49l-1.36.75c-1.25.69-2.04 1.99-2.07 3.41-.05 2.08-.07 4.2-.07 6.33l.16 18.47s-.24 7.77-.24 7.81c0 1.59.32 2.97.94 4.1 1.01 1.81 2.9 2.85 5.2 2.85 1.09 0 2.14-.45 2.89-1.24 1.05-1.09 1.67-2.42 1.82-3.93.4.08.77.11 1.07.11.47 0 .93-.05 1.36-.16v.72c0 4.05 2.69 5.9 5.19 5.9 1.18 0 2.91-.43 4.41-2.48.16-.21.28-.44.41-.67 2.08 2.34 4.61 2.76 6.13 2.76 2.32 0 4.86-.73 6.86-3.15.14.24.31.48.5.69l.65.7c.76.83 1.83 1.29 2.95 1.29h1.36c.93 0 1.81-.33 2.51-.89.97.86 2.09 1.28 3.36 1.28 1.54 0 2.92-.64 3.89-1.83.04-.04.07-.1.11-.15 1.54 1 3.41 1.54 5.52 1.54 2.35 0 4.46-.69 6.28-2.04.26.34.56.66.91.95 1.07.88 2.35 1.35 3.71 1.35h4.13c1.17 0 2.27-.26 3.26-.76.25-.13.48-.28.71-.44 1.05.48 2 .51 2.23.51 1.45 0 2.83-.58 3.87-1.63 1.33-1.33 1.61-2.75 1.61-3.71 0-.77-.17-1.53-.5-2.28v-.9c.39 1.28.52 1.89.57 2.16-.04.62.07 1.24.32 1.81.02.08.05.18.07.28.25 1.08.66 1.94 1.22 2.63.94 1.16 2.36 1.83 3.9 1.83.77 0 1.67-.17 2.99-.57.91-.27 1.69-.86 2.21-1.66.77-1.2 1.41-2.9 1.89-12.61.31-6.3.48-11.42.52-15.25V69.2c0-1.248-.32-2.395-.94-3.41zm-37.7 14.403c-.144-.02-.288-.03-.436-.03-.26 0-.517.01-.77.04.166-2.43.496-4.59.988-6.45.017-.07.033-.13.05-.18 1.146-.07 2.23-.47 3.15-1.17.282-.22.533-.46.763-.72l.19 2.95-.14 5.87c-.99-.22-2.16-.34-3.564-.34h-.24zm14.35 12.29v.37h-.01l.01-.38z" opacity=".15"/><path d="M110.322 62.333c-3.023 0-5.217 2.282-5.217 5.427 0 .074.002.148.006.223l.07 1.176v1.28c-.29-.72-.58-1.42-.88-2.09-.85-1.92-2.34-5.27-5.21-6.08-.53-.25-1.1-.37-1.66-.37-.83 0-1.66.26-2.36.77-.46.34-.88.72-1.25 1.13-.65-.37-1.43-.69-2.4-.95-1.86-.49-3.36-.73-4.59-.73-1.06 0-2.18.28-3.17.92-.79-.44-1.77-.69-2.91-.69-.04 0-.71.02-.71.02l-6.44-.43c-.09-.01-.18-.01-.26-.01-.61 0-1.22.11-1.81.3-.07-.05-.14-.11-.21-.16-.87-.55-1.92-.83-3.12-.83-1.97 0-3.17.84-3.84 1.54-.52.56-1.13 1.48-1.29 2.84-.06-.14-.13-.28-.2-.41-1.42-2.75-3.68-3.04-4.59-3.04-.95 0-3.32.33-4.69 3.36-.25.55-.37 1.16-.35 1.76l.21 6.79c0 3.35.01 6.12.03 8.39-.46-.13-.93-.2-1.42-.2-.64 0-1.25.03-1.8.09-1.64.18-2.89.56-3.83 1.04l.02-3.15c-.01-1.43.01-2.89.07-4.38.03-.93.09-1.75.2-2.45.01-.05.02-.1.02-.15.09-.84.24-1.94.44-3.3.14-.95.47-2 .97-3.09l.15.02c.22.03.44.05.66.05 1.26 0 2.44-.41 3.4-1.18 1.2-.96 1.89-2.4 1.89-3.95 0-2.66-1.92-5.35-6.28-5.37-2.38 0-4.54.73-6.34 2.14-.92.69-1.72 1.56-2.36 2.55-.54.81-1.01 1.67-1.39 2.55-.37.86-.69 1.83-.96 2.89-.25.99-.48 2.18-.7 3.66-.24 1.55-.36 3.93-.36 7.28l.03 3.5c0 1.85.04 3.47.13 4.81.07 1.09.17 2.09.28 2.91.11.87.31 2 .6 3.44.36 1.75 1.09 3.57 2.15 5.37 1.26 2.17 3.1 3.74 5.41 4.63 1.18.47 2.38.71 3.59.71 1.17 0 2.34-.22 3.48-.66.66.25 1.38.37 2.14.37 1.53 0 3.12-.67 4.14-2.08 1.42 1.2 3.21 1.85 5.25 1.85h.06c6.6 0 9.04-7.06 9.88-15.41.18 2.78.3 4.13.39 4.85l-.06 1.39.1 3.77c.04 1.27.67 2.45 1.72 3.18l.91.63c.67.47 1.47.72 2.29.72 1.34 0 2.62-.47 3.69-1.35.06-.05.11-.11.17-.16.26.33.55.65.89.93 1.07.88 2.35 1.34 3.71 1.34h4.12c1.18 0 2.28-.25 3.26-.76.25-.12.48-.27.7-.43 1.06.48 2.01.52 2.24.52 1.46 0 2.84-.57 3.87-1.62 1.33-1.33 1.61-2.75 1.61-3.71 0-.77-.17-1.54-.5-2.29v-.9c.39 1.28.52 1.89.57 2.16-.03.62.07 1.23.32 1.8l.07.29c.25 1.07.65 1.93 1.22 2.63.93 1.16 2.35 1.83 3.9 1.83.77 0 1.66-.17 2.99-.57.91-.27 1.69-.86 2.21-1.66.78-1.2 1.41-2.89 1.89-12.61.31-6.3.48-11.42.51-15.25v-3.6c0-1.25-.32-2.4-.95-3.41-.97-1.57-2.59-2.47-4.45-2.47zm-18.908 29.15c0 .13 0 .255.002.38l-.012-.002.01-.37zm121.54-26.687c-.966-1.565-2.585-2.463-4.444-2.463-3.022 0-5.217 2.282-5.217 5.427 0 .075.002.15.006.224l.06 1.175v1.28c-.29-.72-.59-1.42-.89-2.09-.85-1.92-2.34-5.27-5.21-6.08-.53-.25-1.1-.37-1.67-.37-.84 0-1.67.26-2.36.77-.47.34-.88.72-1.26 1.13-.65-.37-1.44-.69-2.4-.95-1.87-.49-3.37-.73-4.6-.73-1.89 0-3.98.88-5.14 3.13-.64-1.48-2.19-3.18-5.96-3.18-2.75 0-5.25 1.17-7.21 3.37-.19.2-.36.42-.53.65-.53-.82-1.21-1.55-2.03-2.17-1.87-1.4-4.12-2.11-6.7-2.11-2.04 0-4.09 1.03-5.06 3.27-2.21-2.34-5.19-3.58-8.74-3.58-.86 0-2.09.21-3.37 1.13v-.8c0-1.29-.48-2.5-1.37-3.5-.99-1.11-2.37-1.72-3.87-1.72-1.23 0-2.42.4-3.45 1.16-1.17.87-1.93 2.14-2.16 3.57-.03.2-.05.41-.05.62v.15c-.08 1.19-.2 2.46-.38 3.8-1.28-4.69-2.87-8.3-6.4-8.53-.09-.01-.17-.01-.26-.01-.68 0-1.34.17-1.93.49l-1.36.75c-1.25.69-2.04 1.99-2.07 3.41-.05 2.08-.08 4.2-.08 6.33l.16 18.47s-.24 7.77-.24 7.81c0 1.59.32 2.97.95 4.1 1.01 1.81 2.9 2.85 5.2 2.85 1.09 0 2.13-.45 2.89-1.24 1.05-1.09 1.67-2.42 1.82-3.93.4.08.77.11 1.07.11.47 0 .92-.05 1.36-.16v.72c0 4.05 2.69 5.9 5.19 5.9 1.18 0 2.91-.43 4.41-2.48.15-.21.28-.44.41-.67 2.08 2.34 4.6 2.76 6.12 2.76 2.32 0 4.86-.73 6.86-3.15.14.24.3.48.5.69l.64.7c.76.83 1.82 1.29 2.94 1.29h1.36c.93 0 1.81-.33 2.51-.89.97.86 2.09 1.28 3.36 1.28 1.54 0 2.92-.64 3.89-1.83.04-.04.06-.1.1-.15 1.55 1 3.42 1.54 5.52 1.54 2.36 0 4.47-.69 6.28-2.04.26.34.57.66.91.95 1.07.88 2.36 1.35 3.72 1.35h4.2c1.17 0 2.27-.26 3.26-.76.25-.13.48-.28.7-.44 1.05.48 2 .51 2.23.51 1.45 0 2.83-.58 3.87-1.63 1.32-1.33 1.6-2.75 1.6-3.71 0-.77-.17-1.53-.51-2.28v-.9c.38 1.28.52 1.89.57 2.16-.04.62.07 1.24.31 1.81.02.08.05.18.07.28.25 1.08.66 1.94 1.22 2.63.93 1.16 2.36 1.83 3.9 1.83.77 0 1.66-.17 2.99-.57.91-.27 1.69-.86 2.21-1.66.78-1.2 1.41-2.9 1.89-12.61.31-6.3.49-11.42.52-15.25V68.2c0-1.248-.32-2.395-.94-3.41zm-37.7 14.403c-.144-.02-.288-.03-.436-.03-.26 0-.517.01-.77.04.166-2.43.496-4.59.988-6.45.017-.07.033-.13.05-.18 1.146-.07 2.23-.47 3.15-1.17.282-.22.533-.46.763-.72l.19 2.95-.14 5.87c-.99-.22-2.16-.34-3.57-.34h-.23zm14.35 12.29v.37h-.01l.01-.38z" fill="#FFF"/><path fill="#0071BC" d="M51.075 89.095l-1.91.187c-1.113 0-1.67-.452-1.67-1.356 0-.78 1.05-1.286 3.15-1.52.415-.048.868-.07 1.36-.07s.916.25 1.266.748.53 1.166.53 2 .17 2.195.49 4.082.49 3.158.49 3.813c0 1.16-.4 1.75-1.2 1.75s-1.34-.34-1.61-1.01v-.05c-.19.07-.55.25-1.07.53-.98.53-1.96.79-2.93.79-.7 0-1.4-.14-2.1-.42-1.49-.58-2.64-1.55-3.43-2.93-.86-1.45-1.42-2.84-1.69-4.17s-.45-2.37-.55-3.14c-.11-.78-.19-1.67-.26-2.67-.08-1.27-.12-2.79-.12-4.57l-.02-3.53c0-3.09.11-5.3.31-6.64.21-1.34.42-2.44.63-3.3.22-.86.47-1.62.75-2.28.29-.66.64-1.31 1.05-1.93.42-.64.89-1.16 1.43-1.57 1.17-.91 2.49-1.36 3.99-1.35 1.49 0 2.24.46 2.24 1.36 0 .34-.13.61-.38.82-.25.2-.56.3-.91.3l-1.41-.24c-1.22.02-2.19.74-2.89 2.18-.74 1.57-1.22 3.07-1.43 4.49s-.35 2.56-.45 3.44c-.13.85-.21 1.83-.24 2.92-.06 1.51-.08 3.03-.07 4.54l-.02 2.97c0 3.06.14 5.23.42 6.53.28 1.29.57 2.32.87 3.08.29.78.64 1.42 1.05 1.92 1.36 1.02 2.54 1.59 3.56 1.71 1.45 0 2.65-.67 3.6-2.01-.04-2.84-.31-4.66-.78-5.47zm18.182-12.68l.048.82c0 14.175-2.1 21.264-6.3 21.264-1.622.01-2.823-.64-3.602-1.95-.812-1.34-1.305-2.68-1.48-4-.27-2.05-.425-4.39-.464-7.03-.04-2.65-.06-6.46-.06-11.45l-.22-6.86c.3-.67.65-1.01 1.04-1.01s.73.29 1.04.87c.3.58.45 1.2.45 1.86v13.03c0 1.14.11 2.83.34 5.07.23 2.24.34 3.93.34 5.07 0 2.34 1.03 3.51 3.1 3.51 2.32 0 3.48-8.59 3.48-25.76V67.2l-.03-.796c0-.374.08-.655.26-.843.17-.18.48-.28.92-.28.43 0 .76.07.99.22.2.13.35.31.45.56.13.39.2.91.21 1.55l-.33 4.82-.22 4zM77.322 97l-.095-3.67c0-.017.023-.563.07-1.64-.126-.404-.385-4.007-.774-10.807-.39-6.8-.6-10.956-.632-12.47h-.19c-2.64-.046-3.96-.52-3.96-1.426 0-.297.18-.542.53-.737.35-.194.69-.292 1.03-.292l6.64.444.79-.023c1.02 0 1.53.38 1.53 1.14 0 .39-.16.7-.5.94-.33.24-.71.36-1.12.36l-2.25-.33-.09.49c0 3.02.27 7.55.81 13.59.54 6.03.82 10.57.82 13.61 0 .37-.17.7-.52.99-.35.29-.73.43-1.14.43l-.93-.6zm7.684-23.415l-.263-4.047c0-2.262.684-3.393 2.052-3.393.875 0 2.067.2 3.58.597 1.51.397 2.266.91 2.266 1.532 0 .655-.47 1.154-1.43 1.497-1.51-.49-2.74-.8-3.7-.91.05.69.08 1.37.08 2.06l-.21 6.88c0 .03.05.28.15.75l1.75-.07c1.58 0 2.36.44 2.36 1.31 0 .35-.14.65-.43.9-.28.26-.64.39-1.08.39-.44 0-.91-.03-1.42-.09h-1.24c.1 1.22.14 2.43.14 3.63l-.21 8.68c0 1.8.03 2.69.1 2.69l3.61-.11c1.24 0 1.86.39 1.86 1.17 0 .48-.21.84-.64 1.05-.43.22-.91.33-1.45.33H86.7c-.43 0-.82-.14-1.17-.43s-.532-.63-.548-1.04v-1.27l-.31-8.09.334-13.99zm10.33 4.795l.287-8.936c0-1.48.597-2.66 1.79-3.532v.304c.127-.078.247-.117.358-.117.77 0 1.72 1.29 2.87 3.87s2.18 5.41 3.1 8.5c.92 3.09 1.84 6.2 2.76 9.34.92 3.14 1.49 4.98 1.71 5.53.65-6.69.98-14.8.98-24.31l-.07-1.29c0-.95.41-1.43 1.22-1.43.46 0 .81.18 1.04.56.23.37.35.81.35 1.31v3.62c-.03 3.76-.2 8.77-.51 15.05s-.72 9.82-1.25 10.63c-.89.26-1.5.39-1.85.39-.34 0-.6-.11-.78-.34-.18-.23-.33-.57-.44-1.04-.11-.47-.21-.78-.29-.94l.03-.21c0-1.19-1.17-4.95-3.5-11.3-2.33-6.35-4.03-10.71-5.08-13.1V95.1l.19.33c.21.343.31.662.31.96 0 .295-.14.592-.44.89-.29.295-.64.442-1.03.442-1.06 0-1.6-.975-1.6-2.924l-.09-16.42zm25.747 8.54l-.167-18.552c0-2.074.024-4.14.072-6.2l1.36-.748c.97.063 2.076 2.605 3.317 7.627 1.002 4.102 1.813 7.786 2.434 11.053.62 3.268.96 5.04 1.02 5.322.22-1.03.63-2.87 1.24-5.52s1.06-4.71 1.36-6.177c.89-4.29 1.44-8.103 1.64-11.44v-.28c.06-.405.26-.732.59-.982.33-.25.68-.374 1.05-.374.36 0 .66.12.89.38.23.26.34.53.34.83 0 3.82.14 9.54.44 17.17.29 7.63.44 13.35.44 17.17 0 .76-.21 1.42-.62 1.99-.41.56-.81.84-1.19.84-.8 0-1.2-.63-1.2-1.9l-.19-20.17v-2.43c-.23 1.23-.73 3.39-1.51 6.46-.78 3.08-1.28 5.44-1.51 7.08v.3c-.03.12-.08.42-.15.89-.07.47-.13.85-.21 1.15-.07.3-.18.64-.32 1.02-.31.75-.81 1.12-1.51 1.12-1.16 0-1.74-1.49-1.74-4.47 0-2.95-.73-7.07-2.2-12.38-.73-2.65-1.2-4.45-1.41-5.38-.06 2.55-.09 4.48-.09 5.77l.41 19.7c0 .69-.25 1.29-.74 1.8-.85 0-1.41-.26-1.71-.79s-.44-1.25-.44-2.16l.23-7.77zm18.897-3.79l.05-1.825c0-.156-.025-.234-.073-.234v-.86c0-5.02.295-8.59.883-10.71.493-1.79.97-2.9 1.433-3.32.46-.42.914-.63 1.36-.63 3.785 0 6.395 1.87 7.826 5.62.82 2.15 1.24 4.81 1.24 7.96v.35l.09 5.43c0 9.19-2.17 13.78-6.52 13.78-1.8 0-3.18-.97-4.13-2.92-.91-1.87-1.47-3.71-1.67-5.52-.34-2.73-.5-5.09-.5-7.09zm2.888-6.55L142.63 81c0 4.633.382 8.672 1.146 12.118.812 2.012 1.582 3.197 2.314 3.556.588 0 1.12-.233 1.6-.702.477-.468.853-1.095 1.133-1.883.277-.79.513-1.62.703-2.5.175-.86.31-1.78.406-2.76.158-1.7.238-3.15.238-4.35s-.107-3.04-.322-5.52c-.215-2.48-.322-4.33-.322-5.55v-.84c-.03-1.17-.42-2.22-1.17-3.13s-1.7-1.37-2.862-1.37c-1.113 0-1.854.61-2.22 1.85-.302 1.03-.453 2.3-.453 3.81l.05 2.83zm15.392 5.146l-.05 5.193c0 4.22.312 7.55.932 9.98l-.55 1.28h-1.358l-.645-.7c.03-1.44.04-3.05.04-4.83s-.14-5.61-.42-11.45-.42-10.22-.42-13.1c0-1.52.54-2.27 1.62-2.27 1.7 0 3.13.43 4.29 1.31 1.16.87 1.74 2.12 1.74 3.74v3.37c0 .92-.18 1.76-.53 2.51-.35.75-.76 1.55-1.22 2.38-.47.83-.72 1.3-.77 1.39.17.78.48 2.31.93 4.58.95 4.97 2.01 8.55 3.17 10.74.33.62.5 1.11.5 1.46s-.1.64-.3.89c-.2.24-.47.36-.8.36-.69 0-1.34-.77-1.97-2.31-.63-1.54-1.14-3.24-1.52-5.11-1.17-5.73-1.87-8.88-2.13-9.45h-.6zm.19-14.107l-.167.67c0 1.31.03 3.2.095 5.67s.096 4.27.096 5.39c.764-.39 1.38-1.41 1.85-3.06.47-1.65.704-2.91.704-3.78s-.024-1.52-.072-1.93-.15-.87-.31-1.37c-.32-1.03-1.05-1.57-2.196-1.62zm20.902 20.54l.24 5.07c0 1.57-.562 2.79-1.684 3.64-1.12.85-2.43 1.27-3.925 1.27-2.26 0-3.897-.83-4.915-2.48-.732-1.17-1.193-2.27-1.385-3.31-.19-1.04-.326-1.84-.405-2.4-.08-.57-.136-1.32-.167-2.27-.06-1.33-.09-2.4-.09-3.21v-2.06c0-4.51.14-7.36.41-8.55.27-1.19.58-2.31.93-3.34.35-1.03.78-1.83 1.29-2.39 1.23-1.38 2.64-2.06 4.25-2.06s2.41.4 2.41 1.21c0 .37-.16.68-.48.92-.32.24-.67.36-1.07.36l-1.02-.12c-1.13 0-1.98 1.09-2.55 3.27-.83 3.12-1.24 6.88-1.24 11.3 0 3.01.1 5.08.3 6.21.2 1.13.42 2.08.66 2.84.23.78.5 1.4.82 1.87.75 1.11 1.71 1.66 2.89 1.66 1.58 0 2.37-2.54 2.37-7.63v-2.2c-.24-.13-.62-.19-1.14-.19l-.95.02c-1.13 0-1.69-.37-1.69-1.1 0-.45.16-.8.49-1.03.32-.24.71-.35 1.18-.35v.02h.66c2.93 0 4.39.49 4.39 1.47l-.52 3.49zm3.842-14.58l-.263-4.05c0-2.26.69-3.4 2.06-3.4.88 0 2.07.2 3.58.59s2.27.91 2.27 1.53c0 .65-.47 1.15-1.43 1.49-1.51-.5-2.74-.8-3.69-.91.05.68.07 1.37.07 2.06l-.21 6.87c0 .03.05.28.15.75l1.74-.07c1.58 0 2.37.44 2.37 1.31 0 .34-.14.64-.43.9-.28.26-.64.39-1.08.39s-.91-.03-1.42-.09h-1.24c.1 1.21.14 2.42.14 3.62l-.21 8.68c0 1.79.03 2.69.1 2.69l3.61-.12c1.24 0 1.86.39 1.86 1.17 0 .48-.22.83-.65 1.05-.43.22-.91.32-1.45.32h-4.13c-.43 0-.82-.15-1.17-.43-.35-.29-.54-.64-.55-1.04v-1.26l-.32-8.1.34-13.99zm10.33 4.79l.287-8.94c0-1.48.6-2.66 1.79-3.53v.3c.13-.08.25-.12.36-.12.77 0 1.72 1.29 2.87 3.87s2.18 5.41 3.11 8.5c.92 3.09 1.84 6.2 2.76 9.34.92 3.14 1.49 4.98 1.71 5.53.65-6.69.98-14.8.98-24.31l-.07-1.29c0-.95.41-1.43 1.22-1.43.46 0 .81.19 1.04.56s.35.81.35 1.31v3.63c-.03 3.76-.2 8.77-.51 15.05-.31 6.28-.72 9.82-1.25 10.63-.89.26-1.5.4-1.85.4-.34 0-.6-.11-.78-.34-.18-.23-.33-.57-.44-1.04-.11-.47-.2-.78-.28-.94l.02-.21c0-1.19-1.17-4.96-3.5-11.3-2.34-6.35-4.03-10.72-5.08-13.1V95.1c.03.064.1.173.19.33.21.343.31.662.31.96 0 .295-.14.592-.44.89-.29.295-.64.442-1.04.442-1.06 0-1.6-.975-1.6-2.924l-.09-16.42z"/></svg>