<svg xmlns="http://www.w3.org/2000/svg" width="250" height="250" viewBox="0 0 250 250"><path d="M50.373 113.21c-.316-.566-1.058-1.89-2.74-2.368-.356-.102-.756-.157-1.126-.157-.772 0-1.525.21-2.3.645-.187.104-.362.222-.528.352-.32-.516-.68-1.076-1.08-1.692-1.22-1.808-2.06-3.01-2.57-3.67-.54-.703-1.29-1.19-2.11-1.417-.29-.148-.56-.262-.87-.348-.49-.137-.99-.207-1.5-.207-.66 0-1.32.116-2.05.38-1.96.753-3.18 1.953-3.63 3.56-.02.054-.03.108-.04.162-.16.3-.28.593-.36.896-.79 2.778.3 5.666 3.22 8.598-.18.185-.34.382-.48.596-2.06-1.183-2.97-1.717-3.34-1.945-2.53-1.556-4.74-3.145-6.58-4.724-.75-.63-1.68-.96-2.6-.96-.25 0-.49.02-.73.07l-.49.04c-2.01.23-3.56 1.42-4.13 3.2-.24.72-.26 1.49-.08 2.22.56 2.23 2.59 4.19 7.75 7.5 1.85 1.17 4.31 2.62 7.29 4.29 1.5.87 2.11 1.21 2.41 1.38.06.31.13.62.21.94-1.01.73-1.78 1.83-2.16 3.22-.15.54-.18 1.09-.11 1.62-.19.1-.36.19-.51.28-2.01 1.2-2.33 2.9-2.35 3.81-.03 1.77.85 3.07 2.02 4.04l-.11.06c-.69-.56-1.51-1.03-2.44-1.43-1.41-.6-2.83-.91-4.2-.91-.42 0-.85.03-1.25.09-.57.08-.99.23-2.33.79-.42.18-.79.42-1.12.72l-.15.12c-.87.79-1.55 1.76-2.02 2.88-.53 1.27-.72 2.39-.58 3.45.29 2.07 1.81 3.53 3.24 4.66 3.35 2.7 7.93 4.72 14.01 6.19.25.06.51.1.76.11.13.02.56.07 1.76.29 1.06.2 1.98.3 2.82.3.42 0 .83-.03 1.2-.08s.65-.13 1.39-.36l.36-.11c.66-.09 1.28-.35 1.8-.72.15-.07.3-.14.45-.23.31-.15.6-.35.86-.58.47-.41.83-.91 1.23-1.56.88-.63 1.45-1.57 1.62-2.6.04-.11.06-.21.09-.32.15-.4.24-.83.25-1.28.01-.58.02-1.02.02-1.38.41-.46.71-1.02.87-1.64.41-1.57-.17-3.23-1.46-4.21-.1-.08-.22-.14-.33-.22.76-.92 1.26-2.1 1.4-3.49.01-.15.02-.3.01-.45v-.14c.02-.85-.21-2.06-1.33-3.29 1.58-1.17 1.86-2.63 1.87-3.45.01-.35-.04-.71-.12-1.06.77-.63 1.29-1.51 1.44-2.5l.07-.45c.25-1.64-.54-3.2-1.88-4.01-.47-.37-1.03-.63-1.62-.75-.3-.25-.64-.46-1-.61-.95-.42-2.22-.96-2.25-.97-.24-.16-.5-.31-.79-.47-.07-.04-.14-.07-.21-.11l-.65-.31c.01-.29-.03-.58-.08-.86.59.07 1.46.12 3.01.14h.07c.44 0 .87-.07 1.27-.2.23-.06.45-.13.67-.23 1.56-.7 3.25-1.57 4.13-3.08.34-.41.6-.89.75-1.4.39-.71.55-1.52.47-2.32.05-.77-.12-1.55-.5-2.23zm47.073-61.462l-.14-.334c-.63-1.493-2.06-2.404-3.582-2.445-.058-2.37-.074-3.43-.075-3.87.01-2.97.22-5.69.61-8.08.2-1.23-.19-2.44-.97-3.32l-.29-.4c-1.34-1.73-2.98-1.99-3.83-1.99-.35 0-.7.04-1.04.12-.74.17-1.41.55-1.94 1.09-1.62 1.64-2.24 4.39-2.38 10.51-.04 2.18 0 5.04.13 8.45.04 1.73.06 2.43.08 2.77l-.78.75-.04.04c-.7-.31-1.39-.47-2.08-.47-.5 0-1 .08-1.46.25-.38-1.86-.71-3.44-1-4.75-.01-.34-.03-.75-.07-1.23 0-.04-.01-.08-.01-.11-.13-1.22-.3-2.14-.81-2.99l-.22-.37c-.55-.92-1.44-1.59-2.48-1.84l-.21-.05c-.42-.15-.85-.22-1.3-.22-.84 0-1.66.26-2.33.75l-.11.06c-.62.36-1.12.89-1.47 1.52-.71 1.3-.89 2.93-.58 5.53.17 1.25.35 2.5.54 3.74.05.31.13.61.25.9.06.45.15.96.28 1.54l.23.9c-.81.08-1.86.37-2.94 1.2-1.99 1.52-3.1 3.81-3.32 6.81-.24-.03-.44-.04-.61-.04-.5-.21-1.03-.32-1.56-.32-.43 0-.85.07-1.26.2-.31.05-.68.14-1.07.3-.54.19-1.04.5-1.47.92l-.47.46c-.57.56-.96 1.28-1.11 2.06-.73 3.68-.58 7.19.46 10.43l.03.17c-1.79-2.43-3.22-4.39-4.25-5.85L50.71 71c-.02-.05-.07-.148-.07-.15-.204-.746-.616-1.407-1.176-1.914-.037-.066-.07-.13-.11-.194-.115-.77-.452-1.49-.974-2.07l-.07-.09c-.7-1.217-2.01-2-3.46-2-.132 0-.27.004-.403.02l-.35.033c-1.347.137-2.53.944-3.154 2.147-.605 1.18-.633 2.53-.105 3.76l.037.628c.016.31.07.622.16.923.153.51.28.93.39 1.265.05.16.11.31.177.457.056.144.118.29.19.43.2.395.397.773.58 1.132-.13-.05-.263-.098-.403-.14-.1-.03-.21-.058-.31-.08-.43-.097-.86-.146-1.26-.146-1.53 0-2.9.69-3.74 1.88-.49.69-1.79 2.52-1.03 4.73.08.24.18.46.3.68 1.26 2.22 2.22 3.8 2.95 4.83l4.71 6.21c.15.21.33.4.51.56.36.49.83 1 1.4 1.54.41.53.8.99 1.17 1.39.1.19.21.37.34.55.12.18.26.34.41.48.16.16.33.31.52.44.06.05.11.09.17.12l.19.21.06.08c.3.54.73 1.01 1.25 1.37.27.36.58.69.99.98.74.53 1.62.81 2.54.81.22 0 .54-.03.76-.06 1.69-.29 3.02-1.63 3.28-3.33.17-1.1.02-2.24-.43-3.39-.17-.41-.4-.8-.69-1.13-.07-.11-.14-.22-.22-.32.19.01.37.02.55.02 1.93 0 3.66-.88 4.75-2.42 1.4-1.98.61-4.02-.09-5.28.08.03.16.06.25.08.15.04.29.07.44.1.25.07.51.12.77.14.16.02.31.02.46.02 1.4 0 2.69-.51 3.63-1.44l.21-.2c.24-.17.47-.36.67-.58.42-.38.77-.86 1-1.41l.04.02c.35.1.71.15 1.06.15 1.03 0 2.05-.4 2.8-1.15.24-.24.46-.51.67-.84.5-.7.75-1.55.73-2.4.33-.03.64-.08.92-.16.76-.08 1.5-.37 2.17-.88l.16-.13c1-.75 1.58-1.92 1.6-3.16.06-.32.06-.65.04-.97.12.01.24.02.36.02 1.18 0 2.31-.52 3.08-1.45.58-.38 1.06-.91 1.37-1.52.35.1.71.15 1.08.15.69 0 1.4-.18 2.04-.56l.42-.25c.16-.09.29-.22.43-.33.07.05.14.1.21.14.68.49 1.5.76 2.35.76.52 0 1.04-.1 1.55-.31l.43-.18c.98-.41 1.75-1.19 2.15-2.18.19-.48.29-.99.29-1.5.07-.6 0-1.21-.21-1.78.06-.38.07-.78.01-1.17-.14-1.02-.34-2.38-.34-2.42.01-.28.01-.59 0-.91-.01-.08-.01-.16-.02-.24l-.08-.72c.35-.19.67-.44.94-.72.15-.11.29-.23.42-.37.3-.26.53-.54.88-1.01 1.49-1.09 2.04-3.07 1.32-4.78z" opacity=".15" fill="#050505"/><circle opacity=".15" fill="#050505" cx="131.833" cy="139.749" r="82.917"/><path fill="#FFF" d="M125 221.967c-48.065 0-87.168-39.104-87.168-87.168 0-48.07 39.104-87.17 87.168-87.17 48.064 0 87.168 39.1 87.168 87.17 0 48.06-39.104 87.16-87.168 87.16z"/><path fill="#FFF" d="M125 221.967c-48.065 0-87.168-39.104-87.168-87.168 0-48.07 39.104-87.17 87.168-87.17 48.064 0 87.168 39.1 87.168 87.17 0 48.06-39.104 87.16-87.168 87.16z"/><linearGradient id="a" gradientUnits="userSpaceOnUse" x1="124.999" y1="78.627" x2="124.999" y2="270.061"><stop offset="0" stop-color="#1B1440"/><stop offset=".819" stop-color="#ED1E79"/></linearGradient><circle fill="url(#a)" cx="125" cy="134.799" r="83.168"/><path fill="#FFF" d="M116.684 205.94s-.505 9.288 16.496 11.622c8.195-.8 16.037-2.8 23.36-5.803 2.468-2.36 3.606-4.98 3.135-7.1-1.28-5.76-42.99 1.28-42.99 1.28z"/><path fill="#FFF" d="M120.688 217.855c1.428.074 2.865.11 4.312.11 5.3 0 10.474-.517 15.496-1.462l.05-5.127-21.208-.768 1.35 7.247z"/><path fill="#D0D1D2" d="M120.937 201.4s-.41 7.496 13.35 9.344c13.763 1.85 22.183-5.75 21.155-10.37-1.027-4.622-34.505 1.026-34.505 1.026z"/><path fill="#FFF" d="M153.02 181.244c-7.257-6.006-4.126-29.557-4.126-29.557l-24.245 1.908s8.41 15.557 1.24 31.232c-7.36 16.084-9.14 20.053 16.37 18.426 4.83-.705-3.51-1.06 1.02-2.56 15.65-7.916 15.54-14.638 9.72-19.45z"/><path fill="#D0D1D2" d="M145.172 157.04s-2.757 16.083 7.12 26.65c9.88 10.563-15.85 14.93-15.85 14.93l-6.948-12.407s5.57-18.604.746-27.563l14.932-1.61z"/><path fill="#1F4AB5" d="M126.31 162.9l10.565 4.024 2.808 40.615-24.807-.14"/><path fill="#1F4AB5" d="M150.26 161.512l-9.572 5.1-1.79 40.697 23.79.09M133.156 75.11s-40.464 46.254-18.968 94.365l-11.516 2.045s-37.49-37.873-23.16-71.652"/><path fill="#0F3C96" d="M78.554 108.888s-.192 33.78 25.334 54.506l5.374.193 2.88-.18-2.304-8.65s-23.223-49.9-31.284-45.87z"/><g fill="#6593EF"><path d="M116.46 172.322c-.137-.64-.63.217-.448-.586l-.117.184c.05-.383.084-.77.084-1.168 0-.06-.01-.115-.01-.172.07-.182.03-.465-.04-.723-.04-.428-.13-.842-.23-1.248l.12-.01c-.08-.05-.14-.15-.19-.25-.03-.09-.05-.19-.08-.28 0-.07.02-.13.06-.17.3-.05.27.48.36.69-.21-.93.36-1.18-.21-1.87l-.03.17c-.49-.35-.36-1.02-.6-1.43.12.08.24.03.26-.06-.83-.7-1.29-1.67-2.37-2.26l-.07-.51-.17.2c-.53-.27.12-.4-.22-.59.13.07.08.09.07.16-.45-.6-.47.01-.76-.24.02.32.59.43.24.66-.42-.56-1.4-.93-1.26-1.53-.67-.07-1.33-.36-2-.57-.69-.15-1.36-.34-1.92-.4-.15.12.09.08.03.17-.45-.33-1.43.39-1.46.07-.2.11-.24.36-.28.45-.3-.15-.63-.08-.98-.04l.27.02-.02.05-.38-.02V161c-.42.1-.9.19-1.33.37-.42.19-.85.34-1.3.39.52-.04.1.39.36.4-.65-.31-1.43.37-2.02.92.08.074.09.18.22.18 0 0-.5.134-.49.153l.13.04c-.42.69-1.53 1.01-1.59 1.655.22-.27.31-.205.48-.13-.31.493-.57.972-1.04 1.52.04-.02.09-.03.12-.01-.06.17-.25.32-.36.48l.23.11c-.22.29-.23.76-.55 1.11.18.2-.47.94-.39 1.464-.08.18.34-.37.27.14-.57.03-.08.67-.69.696-.02 0 .22.48.23.47l-.3.11c.6.37-.2.64.05 1.24.06-.04.07-.11.12-.082-.04.2-.03.66-.22.34-.03.34.24 1.43.38.88-.16.07-.15-.4-.14-.6.26-.03.3.45.61.49-.03.02-.05.09-.08.14l.17.02c-.08.64.23 1.17.12 1.69.08-.01.19.052.27.24l-.29.16.32.57.27-.495c.39.56.18 1.28.53 1.78.52-.24.55 1.07 1.3 1.05-.01.01-.23-.4-.22-.41.62.74.98.55 1.54 1.26-.7-.33-.62-.39-1.79-.82 1.02.55 1.29 1.61 2.44 1.81 0-.15-.19-.34.1-.34.04.35.85.45.58.68.34.05.5-.19.69-.16l.89.7-.02-.07c.98-.03 1.75.14 2.6.4.42.16.85.25 1.3.25.45.02.91-.01 1.36-.15l-.07-.16c0 .02.51.17.51.15-.39-.06.11-.25.09-.41l1.25.01c-.03-.15-.21-.45-.46-.31.36-.3.94-.08 1.29-.27l-.18-.08.4-.07-.1-.19c.61-.23 1.22-.76 1.57-.66l-.26-.24.7-.21-.45.06c.55-.52 1.6-1.08 1.67-1.26l-.14-.03c.03-.14.15-.15.27-.23l-.21-.05c.38-.42.54-.76.7-1.09.13-.36.25-.73.64-1.23.12-.32-.15.14-.25.1-.05-.24.28-.54.41-.6-.33-.03-.48.44-.52 0 .26-.17-.34.05-.07-.34 0 .01.42-.02.42-.02.02-.28-.27-.16-.11-.54.3-.4.24.72.53-.02.07-.41-.56-1.01-.28-1.66zm-18.927 3.192l-.106-.25c.103.105.275.132.106.25zm.842-1.192c-.047-.168-.1-.2.1-.258.056-.11-.088-.2-.032-.31.268.254-.047.348-.068.568zm17.123-6.45c.01-.02.038-.028.04-.052-.004.057 0 .115.004.172-.012-.04-.03-.078-.044-.12zm-.307-1.32c-.02.222.62.628.32.964.01-.004-.18-.453-.2-.443.04.184.08.36.09.525-.11-.297-.23-.588-.38-.87.03-.054.07-.12.18-.175zm-.75-1.28c0-.167-.18-.382-.02-.522.43.135.29.504.41.72l-.17-.044c.07.29.03.47-.02.61-.04-.064-.07-.128-.11-.19.01 0 .02-.01.03-.01-.21-.333-.52-.84-.43-1.226.35.076.19.69.34.663zm-.88-1.46l-.06.313-.24-.227.31-.087zm-.11.56c.07.12.13.237.19.356-.28-.313-.58-.615-.91-.885-.05-.164-.09-.338-.3-.39v.157c-.09-.068-.18-.14-.27-.203 0-.033-.02-.104-.08-.252.53.283.99.74 1.39 1.216zm-3.29-2.106l.13-.098.18.074-.3.024zm-1.23-.41c.07.062.14.132.2.198-.28-.068-.57-.123-.86-.164-.02-.023-.05-.045-.08-.07.22-.226.49-.154.74.037zm-2.15-.567c.35-.38 1.05.69.89-.24.15.12.6.4.42.54-.37-.07-1.09-.11-1.35.13.02-.06.01-.13-.03-.19.15.04.36-.02.46-.08-.05-.15-.28-.11-.37-.18zm-.97.52c.03.02.07.03.1.06-.17.02-.35.05-.52.08.09-.1.33-.13.42-.14zm-3.32-.06l.2.02c-.31.32-.18.1-.19-.02l-.23-.02c.18-.08.23-.05.24.02zm.04.35c-.19.13-.7.46-.64.4-.05-.19.46-.44.64-.41zm-.41 1.15l-.01.01c-.12-.01-.23-.04-.27-.15.27-.06.22.08.29.13zm-2.05 1.43c.32-.12.11-.24.18-.4l.14.27c-.4.22-.55.13-1.05.19.18-.46.62-.25.73-.08zm-.85-.26c-.03.28.28.56-.26.56l.26-.56zm-1.01 7.8l.06.36c-.08 0-.16.01-.3 0 .13-.12.2-.25.24-.37zm.29 4.25c-.02-.13-.04-.2-.1-.27-.08.12-.11.45-.24.31.06-.2-.11-.6.07-.71-.01.45.62.35.28.66zm.55-1.29c.08-.07.11-.15.11-.22.02.04.05.08.07.12-.03.04-.07.09-.17.1zm1.67 3.06l.06-.2.08.03-.18-.32c.52.08.45.66.59.89-.15-.15-.28-.87-.54-.41zm1.39-.05l.05.03-.01.04c-.02-.02-.02-.05-.04-.08zm1.52 2.19c.23.23.45-.11.57.33-.37.22-.46-.16-.57-.33zm.85.09c.46.02-.12-.4.19-.42l-.22-.04c.41-.13.19.33.46.34l-.18-.01c-.18.17.23.22.23.4-.22.03-.65-.28-.47-.27zm4.23-.74c.06-.05-.03-.15-.16-.2.14-.03.28-.05.42-.08.01.11-.14.12-.25.27zm4.82-1.23c.1-.31.16-.28.34-.35.02.1-.15.27-.34.34zm.43-.17c.19-.46.47-.06.68-.25-.11.42-.38.06-.67.24zm1.6-4.65c-.02.01-.04 0-.06 0 .03-.09.07-.17.09-.25.04.01.07.04.09.11l-.11.13zm.98-4.56c-.01.26-.21.23-.07.5l.07-.5z"/><path d="M116.146 169.398l-.03-.27-.122.27m-19.086 4.152l-.133-.017c.054.13.097.088.133.018zm.092-5.24c.02-.022.03-.036.047-.054-.03-.03-.077-.055-.147-.068l.1.12zm.07 7.262c.07-.11.11-.215.136-.313-.098.01-.17.13-.137.31zm.343-8.79c.05-.085.116-.15.175-.226-.075.034-.173.1-.175.227zm6.77-5.76l-.01.03.12-.026"/></g><path fill="#FFF" d="M131.25 168.506l-.422.674c-.27.436-.706 1.098-1.162 1.887-.95 1.568-2.293 3.975-3.847 6.877-1.57 2.908-3.35 6.363-5.46 10.06-1.05 1.847-2.19 3.755-3.5 5.665-1.31 1.9-2.73 3.84-4.6 5.65l-1.51 1.31c-.57.41-1.14.82-1.75 1.2-1.29.71-2.74 1.36-4.41 1.54-.41.04-.82.09-1.23.11l-1.24-.1c-.85-.04-1.58-.3-2.33-.53-1.46-.51-2.71-1.24-3.75-2.03-2.11-1.58-3.64-3.33-4.91-5-1.31-1.67-2.33-3.31-3.26-4.82-1.8-3.04-3.08-5.61-3.94-7.42l-1.34-2.85 7.6-3.25 1.14 2.71c.73 1.72 1.83 4.15 3.3 6.91.76 1.35 1.59 2.81 2.57 4.19.96 1.39 2.09 2.72 3.27 3.69 1.21 1 2.28 1.42 3.29 1.34 1.03-.03 2.46-.77 3.84-2.01 1.38-1.22 2.69-2.81 3.91-4.45 1.23-1.65 2.37-3.38 3.44-5.11 2.15-3.44 4.07-6.81 5.78-9.69 1.7-2.89 3.16-5.27 4.29-6.98.55-.86.98-1.46 1.28-1.89l.45-.66 4.44 2.93z"/><ellipse transform="rotate(90.11 133.59 123.97)" fill="#FFF" cx="133.589" cy="123.967" rx="37.279" ry="46.525"/><ellipse transform="rotate(84.65 133.84 124)" fill="#D0D1D2" cx="133.836" cy="123.996" rx="31.373" ry="41.126"/><ellipse transform="rotate(90.47 156.05 121.15)" fill="#FFF" cx="156.052" cy="121.152" rx="17.431" ry="17.684"/><ellipse transform="rotate(90 117.69 122.56)" fill="#FFF" cx="117.707" cy="121.588" rx="19.561" ry="19.691"/><path fill="#919396" d="M95.826 102.162c.01-.012-5.998 8.136-6.138 10.87l-1.245-2.23s-9.338-14.677 7.383-8.64z"/><path fill="#D0D1D2" d="M100.103 99.843s-9.04-6.49-15.365-2.837c0 0-8.255 6.424 2.348 17.858l2.56 3.074s2.123-1.44 1.837-4.755c0 0-12.226-14.933 5.414-9.474 0 0 2.885-.09 3.206-3.87z"/><path fill="#919396" d="M169.824 102.162c-.01-.012 5.998 8.136 6.14 10.87l1.243-2.23s9.338-14.677-7.383-8.64z"/><path fill="#D0D1D2" d="M165.55 99.843s9.038-6.49 15.364-2.837c0 0 8.255 6.424-2.35 17.858l-2.558 3.074s-2.124-1.44-1.84-4.755c0 0 12.228-14.933-5.412-9.474 0 0-2.885-.09-3.205-3.87z"/><path fill="#0071BC" d="M114.88 107.443c7.856-1.44 15.39 3.764 16.83 11.62 1.44 7.855-3.76 15.39-11.616 16.828-7.856 1.45-15.39-3.76-16.83-11.61-1.44-7.85 3.76-15.39 11.615-16.83z"/><path fill="#0F4481" d="M113.52 111.94c4.035-.738 7.906 1.934 8.645 5.97.74 4.034-1.932 7.905-5.967 8.64-4.036.743-7.907-1.93-8.645-5.963-.74-4.037 1.93-7.908 5.968-8.646z"/><circle fill="#FFF" cx="116.527" cy="118.94" r="3.948"/><circle fill="#FFF" cx="107.498" cy="119.556" r="1.922"/><circle fill="#0071BC" cx="153.564" cy="120.017" r="12.923"/><path fill="#0F4481" d="M150.02 111.327c3.607-.663 7.065 1.724 7.727 5.33.66 3.606-1.727 7.063-5.334 7.727-3.604.66-7.063-1.726-7.723-5.33-.662-3.61 1.724-7.066 5.33-7.727z"/><circle fill="#FFF" cx="152.705" cy="117.58" r="3.529"/><circle fill="#FFF" cx="144.636" cy="118.132" r="1.717"/><path fill="#D0D1D2" d="M138.69 132.11s-19.448-6.524-32.69 10.75l18.328 3.933 15.834-6.813-1.472-7.87z"/><path fill="#6D6F71" d="M130.813 139.105c.195-.053.373 1.37 1.663 2.943.596.807 1.694 1.492 2.9 1.55 1.202.067 2.553-.608 3.208-1.813l.26-.588.21-.936c.122-.56.245-1.13.367-1.68.8 4.1 1.45 4.03 2.32 4.28.2-.04.4-.03.6-.19.21-.11.42-.22.57-.4l.25-.24.18-.29c.14-.18.23-.38.3-.6.63-1.83.32-3.24.53-3.24.07-.01.2.31.3.91.1.6.17 1.5-.13 2.59-.31.97-1.05 2.14-2.57 2.36-.78.01-1.44-.45-1.89-.98-.12-.13-.23-.27-.32-.43l-.08-.13c-.01.03.03-.04-.03.07-.84 1.54-2.56 2.37-4.09 2.25-.77-.04-1.47-.32-2.05-.68-.59-.34-1.04-.82-1.39-1.31-1.29-1.88-1.16-3.41-1.07-3.39z"/><path fill="#0B8ECC" d="M139.602 133.25s-2.06-4.205-4.86 3.21l4.66 4.01 4.073-3.647c0-.003-2.614-6.884-3.873-3.573z"/><path fill="#FFF" d="M135.682 136.396l2.006 1.713s-.448-2.5-2.006-1.72zm5.542 1.74l1.42-1.14s-1.044-.516-1.42 1.14z"/><path fill="#D0D1D2" d="M95.188 129.553s15.322-10.205 43.056-11.835l-7.294-20.73-14.01 1.857-12.027 4.86-6.142 7.935-3.58 17.913z"/><path fill="#D0D1D2" d="M141.762 99.868l-3.71 18.233s18.232-1.4 36.21 6.08l-.32-5.69s-1.344-8.15-3.84-9.79c-2.495-1.63-19.447-12.67-28.34-8.83z"/><path fill="#6593EF" d="M140.482 76.326s4.86-1.792 6.142 5.117 10.236 2.815 14.33 11.26c0 0 .608 1.695-.83 2.08s-28.087-8.605-73.38 31.188c-.216.19 0 0 0 0s-5.886 1.79-4.607-6.91c1.28-8.7-6.717-7.99-2.624-12.85 3.93-4.66 34.545-26.09 58.06-29.53.984-.14 1.954-.26 2.91-.34z"/><path fill="#1F4AB5" d="M142.273 78.117s-2.56-8.19-11.516-6.91c-8.956 1.28-49.133 9.47-52.204 32.5 0 0 1.792 5.117 3.327 5.374 1.537.26 60.393-30.96 60.393-30.96z"/><path fill="#6D6F71" d="M132.602 139.24c0-.002-.25.01-.592.053-.174 0-.37.043-.574.078-.21.01-.403.1-.612.14-.16.13-.394.13-.53.26-.12.14-.336.18-.42.32-.2.25-.41.43-.41.43l-.035.03c-.06.05-.15.04-.2-.02-.03-.02-.04-.06-.04-.09 0 0 .01-.26.15-.68.05-.21.25-.4.44-.61.19-.2.47-.33.74-.46.27-.05.56-.14.82-.14.26 0 .5.02.7.06.4.08.64.21.64.21l.01.01c.11.07.16.22.09.33-.05.08-.12.12-.2.13zm7.314 7.242c-.002 0 .256-.086.6-.234.183-.055.375-.156.578-.258.217-.074.395-.23.6-.34.133-.176.374-.26.475-.44.08-.185.29-.302.33-.478.12-.326.27-.578.27-.578l.02-.037c.04-.064.12-.086.19-.047.03.02.05.055.06.09 0 0 .06.283.04.754 0 .236-.14.488-.27.76-.14.268-.38.48-.62.697-.27.15-.53.33-.8.41-.27.09-.52.15-.74.17-.44.06-.73 0-.73 0h-.02c-.13-.02-.22-.15-.19-.28.02-.09.08-.15.16-.18z"/><circle fill="#FFF" cx="84.951" cy="70.182" r="1.271"/><circle fill="#FFF" cx="160.698" cy="81.443" r="1.271"/><circle fill="#FFF" cx="62.021" cy="112.549" r="1.271"/><circle fill="#FFF" cx="62.021" cy="142.549" r="1.271"/><circle opacity=".3" fill="#FFF" cx="175.029" cy="86.562" r="1.588"/><circle opacity=".3" fill="#FFF" cx="129.99" cy="60.714" r="1.588"/><circle opacity=".3" fill="#FFF" cx="51.751" cy="131.215" r="1.589"/><circle opacity=".3" fill="#FFF" cx="79.084" cy="148.883" r="1.589"/><path fill="#FFF" d="M73.623 167.416c12.376 9.244 4.348-3.025 2.08-7.373-2.647-5.104 1.89-8.127 5.86-3.97 2.834 3.024 4.442 9.735 5.576 13.515 0 0 8.04-10.252 11.62-5.67 1.51 1.938 1.51 4.82-1.33 5.576-3.68 1.002-5.29 1.566-6.13 5.076 1.49 4.387-.28 6.33-2.85 7.848-2.16 1.273-4.74 2.672-7.66.877-.79-.53-1.29-1.303-1.68-2.11l-.02.03-.11-.297c-.38-.848-.91-2.414-.91-2.414-.96-2.248-2.02-3.342-5.41-3.904-2.84-.566-7.38-.38-8.7-3.78-1.89-5.484 5.86-6.23 9.64-3.404z"/><path fill="#D0D1D2" d="M87.14 169.588s-1.89 2.223-3.426 7.87c0 0 .92-4.796.542-4.94 0 .002.946-1.89 2.884-2.93"/><path fill="#1F4AB5" d="M132.294 168.463l-.353.623c-.21.396-.59 1.023-.96 1.734-.76 1.404-1.86 3.61-3.13 6.25-1.29 2.705-2.8 5.86-4.41 9.24-1.71 3.428-3.56 7.123-6.17 10.86-1.33 1.862-2.83 3.76-4.95 5.54-1.07.885-2.32 1.738-3.83 2.414-1.5.662-3.29 1.164-5.12 1.186-.46.012-.91.01-1.37-.002-.44-.035-.87-.11-1.31-.182-.43-.076-.86-.16-1.29-.252-.39-.117-.76-.252-1.14-.387-.76-.27-1.51-.566-2.1-.916-.6-.33-1.28-.68-1.79-1.05-1.02-.73-2.03-1.48-2.77-2.21l-1.16-1.09-.97-1.06c-.31-.34-.62-.69-.92-1.02-.26-.33-.52-.66-.77-.97-.49-.63-1-1.24-1.39-1.81-.77-1.13-1.51-2.13-2.01-2.95l-1.61-2.57 14.01-7.21 1 2.23c.31.72.74 1.48 1.21 2.43.23.48.51.89.78 1.38l.43.73.46.67c.16.23.32.47.48.71l.48.61c.33.47.64.73.95 1.08.61.56.88.73.89.85 0 .15.55.24 1.58-.38 1-.57 2.2-1.64 3.35-2.86 2.33-2.49 4.54-5.65 6.58-8.65l5.58-8.49c1.67-2.54 3.09-4.61 4.2-6.13.54-.77.95-1.26 1.23-1.65l.43-.57 5.95 3.93z"/><path fill="#0F3C96" d="M126.343 164.535l2.274 3.42 3 .25-2.125 3.75 9.425 11.885-2.073-18.354-10.535-2.586m24.16.368l-1.61 4.187-3.06.656 2.12 3.75-8.98 11.98 1.7-18.66 9.59-3.65"/><path fill="#E53017" d="M187.436 189.71c-3.606-6.903-14.584-24.114-29.936-13.327 0 0-19.833 2.303-30.453 14.842 0 0-5.117-.254-5.245 1.408-.085 1.11 7.81 14.584 16.495 24.264 19.47-3.13 36.67-13.02 49.14-27.186z"/><path fill="#AF1E0B" d="M157.31 176.408c-.9.12-5.003.725-10.17 2.4 4.484 4.367 14.497 14.88 20.863 27.19 2.75-1.667 5.384-3.5 7.915-5.462-4.998-7.946-12.69-19.304-18.61-24.128z"/><path fill="#1F4AB5" d="M182.82 193.963c-.303-.84-.61-1.697-.926-2.57-.57-1.748-1.435-3.496-2.226-5.27-.37-.896-.905-1.75-1.37-2.623-.5-.863-.92-1.754-1.492-2.588-1.104-1.68-2.197-3.348-3.502-4.87-.61-.778-1.236-1.536-1.947-2.23-.696-.698-1.33-1.417-2.053-2.056-.734-.623-1.46-1.236-2.166-1.836-.72-.586-1.52-1.076-2.248-1.586-.715-.52-1.503-.938-2.266-1.33-.77-.39-1.457-.813-2.243-1.072l-2.17-.807c-.73-.19-1.43-.342-2.08-.488-.33-.068-.64-.135-.95-.197-.36-.03-.7-.063-1.03-.09-.66-.05-1.27-.078-1.81-.096-.3-.02-.48.002-.64.025-.17.02-.33.03-.48.05l-.76.09c-.41.05-.21.87-.21.87l-.1 6.33s.22.01.64.02c.21 0 .47.01.77.02l.49.01c.19 0 .37.01.45.06.23.08.47.16.73.23l.41.09.55.23 1.21.48 1.31.75c.46.21.9.62 1.37.95.47.33.95.68 1.4 1.15.45.45.95.84 1.4 1.35l1.35 1.56c.45.53.84 1.17 1.27 1.75.44.58.82 1.23 1.19 1.89.8 1.27 1.43 2.7 2.08 4.11.34.69.55 1.46.84 2.18.26.74.57 1.43.75 2.19.4 1.5.87 2.92 1.1 4.41l.42 2.13c.14.69.18 1.41.27 2.08.16 1.35.35 2.61.36 3.83l.06 1.25c4.47-2.93 8.64-6.28 12.46-9.99-.05-.15-.09-.31-.14-.46z"/><path fill="#D0D1D2" d="M127.59 194.775c-2.558-2.56-6.044.096-6.044.096-9.596 5.64 7.805 14.78 7.805 16.96s4.1 2.82 4.1 2.82.74 1.1 1.85 2.67c3.54-.43 7.01-1.07 10.4-1.94-6.43-8.18-16.36-18.85-18.1-20.59z"/><path fill="#FFF" d="M62.052 102.868s-.164-1.877-.57-2.313c-.413-.435-2.29-.706-2.29-.706s1.905-.19 2.34-.61c.422-.41.666-2.27.666-2.27s.153 1.86.553 2.29c.42.44 2.31.72 2.31.72s-1.83.14-2.26.54c-.44.41-.74 2.33-.74 2.33zm2.208 35.054s-.256-2.947-.895-3.63c-.647-.685-3.592-1.11-3.592-1.11s2.99-.295 3.672-.955c.663-.645 1.046-3.553 1.046-3.553s.24 2.922.87 3.6c.65.695 3.62 1.14 3.62 1.14s-2.88.222-3.55.843c-.7.655-1.16 3.665-1.16 3.665zm87.974-64.68s-.258-2.946-.896-3.63c-.646-.683-3.592-1.11-3.592-1.11s2.988-.293 3.672-.953c.662-.65 1.045-3.56 1.045-3.56s.24 2.92.87 3.6c.647.69 3.62 1.14 3.62 1.14s-2.885.22-3.554.84c-.71.65-1.17 3.66-1.17 3.66z"/><path fill="#0F3C96" d="M124.587 170.615l.08-.316 1.268-5.23-.025.03c-.286.38-.69.88-1.233 1.65-1.113 1.52-2.53 3.59-4.206 6.13l-.03.06c1.04 3.55.32 12.6.32 12.6l3.84-14.94zm28.35 1.31s-3.187-.814-3.624-.064.313 6.44.313 6.44l5.063-.87-1.76-5.5z"/><circle fill="#FFF" cx="186.544" cy="153.607" r="1.271"/><circle opacity=".3" fill="#FFF" cx="179.379" cy="169.984" r="1.588"/><path opacity=".3" fill="#FFF" d="M199.904 138.508c0 .88-.71 1.59-1.588 1.59s-1.59-.71-1.59-1.59c0-.875.713-1.588 1.59-1.588s1.588.713 1.588 1.588z"/><path fill="#FFF" d="M178.344 151.492s-.164-1.877-.57-2.313c-.412-.44-2.288-.71-2.288-.71s1.903-.19 2.34-.61c.42-.41.665-2.26.665-2.26s.16 1.86.56 2.29c.42.44 2.31.72 2.31.72s-1.83.14-2.26.53c-.45.42-.74 2.33-.74 2.33zm-127.97-41.95c-.317-.565-1.06-1.888-2.74-2.367-.357-.102-.757-.157-1.127-.157-.772 0-1.525.21-2.3.645-.187.104-.362.222-.528.352-.32-.516-.68-1.076-1.08-1.692-1.22-1.808-2.06-3.01-2.57-3.67-.54-.703-1.29-1.19-2.11-1.417-.29-.148-.56-.262-.87-.348-.49-.137-.99-.207-1.5-.207-.66 0-1.32.12-2.05.38-1.96.76-3.18 1.96-3.63 3.57-.02.06-.03.11-.04.16-.16.3-.28.6-.36.9-.79 2.78.3 5.67 3.22 8.6-.18.19-.34.39-.48.6-2.06-1.18-2.97-1.71-3.34-1.94-2.53-1.55-4.74-3.14-6.58-4.72-.75-.64-1.68-.96-2.6-.96-.25 0-.49.02-.73.07l-.49.04c-2.01.23-3.56 1.42-4.13 3.2-.24.72-.26 1.49-.08 2.22.56 2.23 2.59 4.19 7.75 7.49 1.85 1.17 4.31 2.62 7.29 4.29 1.5.87 2.11 1.22 2.41 1.38.06.31.13.62.21.94-1.01.73-1.78 1.83-2.16 3.22-.15.54-.18 1.09-.11 1.62-.19.09-.36.19-.51.27-2.01 1.2-2.33 2.9-2.35 3.81-.03 1.77.85 3.07 2.02 4.04l-.11.05c-.69-.55-1.51-1.03-2.44-1.42-1.41-.6-2.83-.91-4.2-.91-.42 0-.85.03-1.25.09-.57.08-.99.23-2.33.78-.42.18-.79.42-1.12.72l-.15.12c-.87.79-1.55 1.76-2.02 2.88-.53 1.27-.72 2.39-.58 3.45.29 2.07 1.81 3.53 3.24 4.66 3.35 2.7 7.93 4.72 14.01 6.19.25.06.51.1.76.11.13.02.56.08 1.76.29 1.06.2 1.98.3 2.82.3.42 0 .83-.03 1.2-.08s.65-.13 1.39-.36l.36-.11c.66-.09 1.28-.35 1.8-.72.15-.07.3-.14.45-.23.31-.15.6-.34.86-.58.47-.41.83-.9 1.23-1.56.88-.63 1.45-1.57 1.62-2.6.04-.11.06-.21.09-.31.15-.4.24-.83.25-1.28.01-.57.02-1.02.02-1.38.41-.46.71-1.01.87-1.63.41-1.56-.17-3.23-1.46-4.2-.1-.08-.22-.14-.33-.21.76-.92 1.26-2.1 1.4-3.49.01-.15.02-.3.01-.45v-.13c.02-.85-.21-2.07-1.33-3.3 1.58-1.17 1.86-2.63 1.87-3.45.01-.36-.04-.71-.12-1.06.77-.63 1.29-1.51 1.44-2.5l.07-.46c.25-1.64-.54-3.2-1.88-4.01-.47-.37-1.03-.63-1.62-.75-.3-.25-.64-.46-1-.62-.95-.42-2.22-.96-2.25-.97-.24-.16-.5-.32-.79-.47-.07-.04-.14-.08-.21-.11l-.65-.31c.01-.29-.03-.58-.08-.86.59.07 1.46.12 3.01.14h.07c.44 0 .87-.07 1.27-.2.23-.05.45-.13.67-.23 1.56-.7 3.25-1.56 4.13-3.08.34-.41.6-.89.75-1.4.39-.71.55-1.52.47-2.32.05-.77-.12-1.55-.5-2.23zm47.07-61.462l-.14-.333c-.63-1.493-2.06-2.404-3.58-2.445-.06-2.37-.075-3.424-.076-3.865.015-2.965.222-5.683.612-8.078.2-1.23-.183-2.44-.97-3.32-.052-.07-.26-.36-.29-.4-1.337-1.73-2.975-1.99-3.832-1.99-.35 0-.7.04-1.04.12-.734.17-1.405.55-1.935 1.09-1.613 1.64-2.233 4.39-2.373 10.51-.04 2.18.004 5.04.13 8.45.04 1.73.062 2.43.078 2.77l-.78.75c-.01.01-.027.03-.04.04-.692-.32-1.39-.47-2.077-.47-.5 0-.99.08-1.46.25-.37-1.86-.71-3.44-1-4.75 0-.34-.03-.75-.06-1.23l-.01-.11c-.12-1.22-.3-2.14-.8-2.98l-.22-.37c-.54-.92-1.44-1.59-2.48-1.84-.07-.02-.14-.03-.2-.05-.41-.15-.85-.22-1.3-.22-.84 0-1.65.26-2.33.75l-.1.06c-.61.36-1.12.89-1.46 1.52-.71 1.3-.89 2.93-.58 5.53.17 1.25.36 2.5.55 3.74.05.31.13.61.25.89.06.46.16.96.29 1.54l.24.9c-.81.08-1.86.37-2.93 1.2-1.98 1.52-3.09 3.81-3.32 6.81-.23-.03-.44-.04-.61-.04-.49-.21-1.02-.32-1.55-.32-.43 0-.85.07-1.26.2-.31.05-.68.13-1.07.3-.53.19-1.03.49-1.46.92l-.47.46c-.56.56-.95 1.28-1.11 2.06-.73 3.68-.57 7.19.46 10.43l.03.17c-1.79-2.43-3.21-4.39-4.25-5.84l-2.15-3.6-.06-.15c-.2-.75-.61-1.41-1.17-1.91-.03-.07-.07-.13-.11-.2-.11-.77-.45-1.49-.97-2.07l-.07-.09c-.7-1.22-2.01-2-3.46-2-.13 0-.27 0-.4.02l-.35.03c-1.34.13-2.53.94-3.15 2.14-.6 1.18-.63 2.53-.1 3.76l.03.63c.01.31.07.62.16.92.15.51.28.93.39 1.26.05.16.11.31.17.46.05.14.12.29.19.43l.58 1.13c-.13-.05-.27-.09-.41-.14-.1-.03-.2-.06-.3-.08-.43-.1-.85-.15-1.26-.15-1.53 0-2.9.68-3.74 1.87-.49.69-1.79 2.51-1.03 4.73.08.23.18.46.3.67 1.26 2.21 2.23 3.79 2.95 4.82l4.71 6.21c.16.21.33.4.52.56.37.49.83 1 1.4 1.54.41.53.8.99 1.18 1.39.1.19.21.37.34.54.13.17.27.33.42.48.16.16.33.31.51.44l.18.12.19.2.06.08c.3.54.73 1.01 1.25 1.36.27.35.58.68.99.97.75.53 1.63.81 2.54.81.23 0 .54-.03.76-.07 1.7-.29 3.02-1.63 3.28-3.33.17-1.09.03-2.24-.43-3.39-.16-.41-.39-.8-.68-1.13-.07-.11-.14-.22-.22-.32.19.01.38.02.55.02 1.93 0 3.67-.88 4.76-2.42 1.41-1.98.61-4.02-.09-5.28.08.03.16.06.25.08.15.04.3.07.45.09.25.07.51.11.77.13.16.01.31.01.46.01 1.4 0 2.69-.51 3.63-1.44.08-.08.15-.14.21-.2.25-.17.47-.36.67-.58.43-.38.78-.86 1.01-1.41l.04.01c.35.1.71.15 1.07.15 1.04 0 2.05-.4 2.81-1.15.24-.24.46-.51.67-.84.5-.7.75-1.55.73-2.41.33-.03.64-.08.92-.16.76-.08 1.51-.37 2.17-.88l.17-.13c1-.75 1.59-1.92 1.6-3.15.06-.32.07-.65.05-.97.12.01.24.02.36.02 1.18 0 2.32-.52 3.09-1.45.59-.38 1.06-.91 1.38-1.52.35.1.71.15 1.08.15.7 0 1.4-.18 2.04-.56l.43-.26c.16-.1.29-.22.43-.33.07.05.14.1.21.14.68.49 1.51.76 2.36.76.52 0 1.04-.1 1.55-.31l.43-.18c.98-.41 1.75-1.19 2.15-2.18.2-.48.3-.99.3-1.5.07-.6 0-1.21-.2-1.79.07-.39.07-.79.01-1.18-.14-1.03-.33-2.39-.34-2.42.01-.29.01-.59 0-.91 0-.08-.01-.16-.02-.24l-.07-.72c.35-.2.67-.44.94-.72.15-.12.29-.24.41-.37.3-.27.53-.54.88-1.01 1.49-1.09 2.04-3.07 1.32-4.78z"/><linearGradient id="b" gradientUnits="userSpaceOnUse" x1="31.088" y1="113.5" x2="31.088" y2="159.5"><stop offset="0" stop-color="#1B1440"/><stop offset=".819" stop-color="#ED1E79"/></linearGradient><path fill="url(#b)" d="M21.395 141.573c1.046-.145 2.16.036 3.34.54 1.272.535 2.113 1.24 2.522 2.117l.045.327c-.065.01-.152.06-.262.152-.11.09-.207.14-.294.15-.065.01-.22-.06-.46-.21-.168-.09-.324-.17-.467-.24-.39-.22-.96-.49-1.72-.83-.87-.33-1.78-.42-2.74-.29-.81.11-1.19.34-1.14.69.06.43.11.71.15.84.05-.07.07-.21.04-.41.66.95 2.31 2.14 4.95 3.58.01.08 0 .14-.03.18-.03.04-.04.06-.04.09.72.12 1.76.42 3.12.9 1.51.52 2.42.83 2.7.91.29.08 1.03.38 2.24.91 1.04.01 2.48.13 4.31.37.03-.1.28-.21.75-.34.64-.18 1.1-.33 1.39-.44s.58-.48.9-1.09c.31-.61.45-1.09.4-1.44-.07-.52-.38-1.06-.92-1.61-.47-.47-.82-.73-1.08-.78-.74-.03-1.84-.04-3.3-.01-.01-.05-.05-.13-.14-.25-.04.07-.05.14-.04.2-1.13-.13-2.24-.26-3.35-.37-1.83-.24-2.76-.43-2.78-.59-.07-.5.34-.96 1.24-1.37.09-.02 1.09.11 3.02.38.06-.01.32-.17.77-.48.45-.31.78-.43 1.01-.38.1.07.38.04.84-.09.46-.13.79-.06.98.23.09-.01.12-.09.1-.22.34.09.79.33 1.33.72.11-.15.22-.23.33-.25l.04.33c.55.17 1.02.38 1.38.64.17.11.47.12.91.04.01.09-.01.15-.07.21.14.09.34.13.6.11.25-.01.43.04.54.16-.12.26-.14.44-.06.54.07-.08.18-.22.3-.44.28.1.51.22.71.37-.07.01-.17.01-.32.01s-.25 0-.32.01c-.83.12-1.22.37-1.16.76.03.24.11.5.24.77.06-.19.07-.36.03-.51.3.41.46.68.48.84.04.31.04.98.01 2.03-.02-.31-.09-.54-.2-.71-.07.14-.06.55.04 1.23.01.04-.05.11-.17.2-.12.09-.17.18-.16.27.01.06.08.09.21.07-.43.26-.75.58-.96.97-.27.46-.46.75-.58.85-.13.02-.22.06-.25.14-.02.02-.06-.02-.12-.12-.13.19-.24.3-.33.31-.06.01-.14 0-.23-.04-.11.14-.15.24-.1.28-.22.03-.55.11-1 .25-.45.14-.69.21-.74.22-.68.09-1.6.03-2.76-.19-1.35-.24-2.12-.36-2.32-.35-5.44-1.32-9.59-3.12-12.44-5.42-1.12-.89-1.72-1.59-1.79-2.09-.04-.33.06-.78.3-1.36s.58-1.06 1.02-1.45c-.1.12-.06.24.11.35.04-.03.04-.18 0-.47.8-.33 1.24-.5 1.33-.51zm8.49 8.193l-.165.022.036.262.164-.022-.036-.262zm1.112-6.316l-.138.085.14.214.18-.03-.19-.28zm1.07 7.18l-.094.28.14.048.095-.28-.14-.047zm9.816-3.714c.14.203.197.384.174.542.044-.006.158-.144.343-.413-.065.01-.15-.013-.258-.064-.107-.05-.193-.07-.26-.06zm.435.74l-.163.02-.022.57.164-.022.02-.57z"/><linearGradient id="c" gradientUnits="userSpaceOnUse" x1="37.212" y1="113.5" x2="37.212" y2="159.5"><stop offset="0" stop-color="#1B1440"/><stop offset=".819" stop-color="#ED1E79"/></linearGradient><path fill="url(#c)" d="M35.09 129.857c-.02 0 .49.08 1.532.24 1.043.16 1.828.243 2.356.252 1.364.02 2.32.1 2.867.24.22-.09.32-.13.3-.13l1.32.02c0 .02.02.08.062.16.042.09.063.18.062.26-.01.13-.19.29-.54.48-.45.52-1.54.76-3.28.74-.93-.02-1.76-.11-2.51-.27l-.17.16c.06.24.22.37.49.37-.07.06-.11.13-.11.19.24.16.35.15.33-.03.47.49.89.89 1.23 1.21.63.58 1.08.91 1.37.98.09.13.55.57 1.4 1.31 0 .09-.02.14-.06.18-.03.03-.05.06-.05.08h.38c.02.13.18.34.49.62.3.28.46.51.45.71 0 .09-.06.13-.17.13v.13c0 .11.05.11.16 0-.13 1.38-.95 2.06-2.45 2.04-.33-.01-.7-.14-1.12-.39-.07-.02-.19 0-.37.06s-.3.1-.37.09c-.53-.01-1.9-.46-4.12-1.36-2.55-1.01-3.81-1.87-3.8-2.57 0-.13.13-.28.4-.44.27-.16.46-.24.57-.24.31 0 .68.26 1.11.78 1.08.41 1.79.7 2.14.86.74.34 1.27.66 1.57.95.06-.07.1-.13.1-.2.61.16 1.24.33 1.88.49.88.23 1.57.35 2.08.36.39.01.59-.08.6-.26 0-.37-.91-1.31-2.73-2.82-1.3-1.1-2.38-1.94-3.23-2.53.01-.11-.22-.32-.68-.64-.45-.32-.68-.66-.67-1.03-.11.09-.22.08-.33-.01.23-.85.71-1.28 1.44-1.26zm6.51 1.59l-.135.263.13.035.137-.262-.13-.035zm.638-.615l-.068.13.262.137.068-.14-.262-.14zm.63-.188l-.266.128.03.133.234-.13.002-.13z"/><linearGradient id="d" gradientUnits="userSpaceOnUse" x1="31.589" y1="113.5" x2="31.589" y2="159.5"><stop offset="0" stop-color="#1B1440"/><stop offset=".819" stop-color="#ED1E79"/></linearGradient><path fill="url(#d)" d="M19.71 111.242c2.012 1.723 4.374 3.42 7.083 5.09.877.532 3.314 1.94 7.312 4.225.052.097.132.23.24.402.196.02.45.03.766.01.06-.1.11-.25.14-.45.04-.29.05-.69.03-1.22-.02-.53-.03-.8-.02-.82.05-.35.17-.66.34-.92l-.16-.23c.1-.06.16-.16.18-.31l.36.05c.03.42.08.72.17.89.18.42.28.67.29.74l-.22.13c.06.08.15.12.28.14l-.07.49c-.01.08.02.11.09.08.07-.04.1-.02.09.04-.01.09-.04.18-.09.27-.05.09-.08.18-.09.27-.02.15.06.52.25 1.09.2.57.33.94.42 1.11.35.05.69.26 1.01.62l1.43.68c.56.3.93.58 1.11.83.07-.04.11-.09.12-.15.48.2 1.2.51 2.14.91.04.05-.04.16-.25.33 0 .02.03.06.09.1.06.04.09.09.08.13-.19.1-.27.2-.24.3.03-.02.12-.06.27-.13.15-.07.26-.13.35-.18-.01.11-.08.21-.21.3 0-.02.23 0 .69.07-.11.16-.19.42-.25.76-.32-.41-.64-.54-.97-.41-.82-.13-1.73-.44-2.73-.94-1.38-.7-2.2-1.1-2.45-1.2.04 0 .04.16 0 .46-.01.09-.04.12-.08.09-.06-.03-.1-.04-.13-.02.14.11.36.48.65 1.12.3.63.44 1.01.42 1.14l-.08.55c-.03.19-.14.36-.33.5s-.37.19-.54.17c-.48-.07-.9-.87-1.28-2.4-.19-.83-.37-1.67-.56-2.52-.16-.26-.66-.61-1.51-1.02-.19-.1-1.01-.56-2.46-1.4-2.98-1.67-5.36-3.07-7.15-4.2-3.76-2.41-5.76-4.11-6.01-5.1.08-.26.34-.41.77-.46.5-.04.76-.07.78-.09zm15.214 11.438l-.23-.034-.038.26.228.035.04-.26zm9.72 3.448c.105.15.228.234.372.256l-.068.457c-.196-.02-.304.03-.323.16-.153-.02-.332-.23-.538-.64-.045.15-.1.38-.167.68-.183-.11-.253-.31-.21-.6.012-.08.047-.1.104-.03.057.07.092.06.105-.03l.02-.16c.07-.05.23.01.47.21.02-.04.06-.09.11-.15s.09-.1.11-.12z"/><linearGradient id="e" gradientUnits="userSpaceOnUse" x1="40.07" y1="113.5" x2="40.07" y2="159.5"><stop offset="0" stop-color="#1B1440"/><stop offset=".819" stop-color="#ED1E79"/></linearGradient><path fill="url(#e)" d="M35.97 104.738c.043.012.193.09.45.23.2.103.348.145.445.126.45.585 1.256 1.74 2.415 3.462 1.468 2.245 2.157 3.526 2.067 3.844l-.1.35c-.04.147-.07.253-.09.316.077.136.274.25.59.338 1.27.36 2.648-.062 4.132-1.265-.06-.06-.11-.1-.18-.12.06-.05.21-.34.45-.87.19-.11.32-.15.38-.13s.18.17.34.47c-.11.04-.18.13-.22.28-.15-.05-.25-.11-.29-.19-.12.08-.19.17-.22.28l.08.19c.18-.09.34-.13.48-.14-.04.13.02.21.17.25-.11.13-.25.28-.44.46l.12.3c-.16.09-.27.23-.33.42-.11.38-.9.9-2.37 1.56-.01-.12-.04-.27-.09-.44l-.06-.02-.15.54c-1.64-.03-2.6-.09-2.87-.16-1.57-.45-3.24-1.53-5.02-3.24-1.96-1.9-2.74-3.52-2.37-4.86.03-.11.13-.28.29-.5.17-.23.26-.37.27-.41.02-.08 0-.11-.08-.09-.08.03-.11.01-.09-.06.09-.34.5-.64 1.22-.92.35-.13.69-.14 1.01-.05zm-.282 1.36c-.063-.017-.157-.01-.28.024-.097.02-.16 0-.19-.054-.02.063-.068.16-.15.284-.08.126-.134.23-.158.315-.192.678.418 1.753 1.83 3.228 1.294 1.327 2.266 2.094 2.916 2.3-.555-1.025-1.1-2.048-1.634-3.07-1.07-1.88-1.847-2.888-2.334-3.026zm.006-1.232l-.254-.072-.08.286.253.072.08-.286zm3.44 3.477l-.16-.045-.07.254.158.045.072-.254z"/><linearGradient id="f" gradientUnits="userSpaceOnUse" x1="48.691" y1="113.5" x2="48.691" y2="159.5"><stop offset="0" stop-color="#1B1440"/><stop offset=".819" stop-color="#ED1E79"/></linearGradient><path fill="url(#f)" d="M45.417 65.708c-.053.53.048.92.303 1.168.255.25.362.535.322.856.075-.028.13-.07.168-.123.07.13.132.27.19.41.058.07.19.15.395.24-.115.16-.165.29-.15.38.09.06.143.05.158-.05.13.12.24.31.33.56l2.38 4c1.427 2.01 3.548 4.91 6.363 8.7.387.33.855.93 1.405 1.81s.77 1.39.66 1.56c-.41.57-1.02.81-1.84.71-.67-.08-1.14-.25-1.41-.52-.06.09-.21.14-.44.17-2.87-.97-5.11-2.02-6.71-3.16l-2.74-1.95c-.09-.07-.25-.23-.48-.49-.23-.26-.42-.45-.56-.55-.21-.16-.44-.24-.68-.24.27.57.99 1.61 2.16 3.11 1.07 1.35 1.65 2.27 1.77 2.75.07-.01.11-.05.15-.1l.3.21c.06.03.33.43.82 1.18.53.86.84 1.35.94 1.48.55.44 1.19 1.14 1.92 2.09.77 1.01 1.22 1.78 1.36 2.3-.12-.09-.2-.06-.24.11.13.09.29.08.5-.01-.19.27-.3.47-.32.62.05-.02.15-.15.32-.39l.38.27c.2.49.26.93.2 1.32-.12.02-.23 0-.32-.06-.07-.05-.23-.3-.48-.75 0-.03.02-.1.08-.19.06-.1.09-.19.09-.27-.24.1-.37.14-.41.12l-.02-.14c-.03 0-.13.08-.29.24-.01-.11-.08-.25-.24-.41-.11-.11-.13-.22-.05-.33-.03-.07-.07-.13-.12-.17-.04.02-.09.05-.13.07-.1-.05-.35-.33-.73-.85-.32-.12-.43-.14-.32-.06-.05-.04-.08-.11-.09-.21-.01-.1-.03-.18-.07-.24-.46-.42-1.01-1.03-1.64-1.86-.91-.84-1.42-1.48-1.52-1.9-.09.01-.15.04-.17.07l-4.62-6.09c-.64-.92-1.56-2.42-2.75-4.51-.06-.18.11-.55.5-1.1.14-.2.44-.25.88-.15.33.1.6.22.8.36l6.06 4.92c.02.01.07.01.16 0l.54.38c.45.32 1.27.77 2.48 1.36 1.3.65 2.2 1.13 2.71 1.43.34.05.86.12 1.55.21-.59-1.18-1.65-2.77-3.17-4.77-1.72-2.22-3.1-4.28-4.16-6.16-.61-.97-1.41-2.43-2.4-4.38.12-.17.28-.34.48-.51.01-.05-.02-.09-.07-.13-.11.08-.29.2-.53.35L45 67.21c-.01-.14-.02-.36-.04-.66-.02-.3-.04-.51-.06-.63.2.14.36.13.47-.03.04-.06.07-.13.11-.21.006-.05.02-.07.056-.08zM43.85 77.756l-.123-.056.007.218.107.076.01-.238zm1.013-12.806c.03.184.137.34.315.467l-.268.376c-.13-.12-.226-.214-.285-.283-.146-.212-.184-.387-.112-.525l.35-.035zm.444 1.652c-.062.01-.13-.005-.21-.047-.077-.042-.138-.05-.18-.028.035.025.072.106.11.24.092-.015.186-.07.28-.165zm6.318 24.587l-.146-.03-.06.24.13.09.06-.32zm.547 1.28l-.126-.05-.11.32.134.09.102-.37z"/><linearGradient id="g" gradientUnits="userSpaceOnUse" x1="65.018" y1="113.5" x2="65.018" y2="159.5"><stop offset="0" stop-color="#1B1440"/><stop offset=".819" stop-color="#ED1E79"/></linearGradient><path fill="url(#g)" d="M64.122 66.715c.588.594 1.42 1.782 2.5 3.56.37.47.98 1.228 1.83 2.275-.014-.016-.084-.04-.208-.07.037.13.175.41.416.84-.03-.217-.014-.356.05-.418.06.156.09.42.088.793.093 0 .164-.022.21-.068-.016.046-.005.105.034.175.038.07.05.13.034.175.155 0 .265-.03.327-.09.062.124.1.35.113.676.2.08.317.165.35.26-.017.015-.05.06-.095.138-.04.08-.08.14-.11.17-.17-.04-.39-.22-.65-.51-.18 0-.32.04-.39.12.02-.01.03-.05.03-.11s.04-.13.12-.21c.05-.04.08-.03.09.05.02.08.06.09.12.03-.01.02.02-.1.12-.35-.22-.03-.45.05-.7.23l-.41-.52c-.36.02-.61-.06-.77-.21-.04-.05-.11-.18-.19-.41-.08-.23-.17-.39-.26-.48.02-.01.02.13 0 .42-.14-.14-.2-.3-.18-.47l-1.67-1.59c-.05.73.05 1.86.29 3.39.17 1.04.07 2.02-.29 2.94-.03-.06-.12-.15-.28-.28-.05.11-.04.29.02.54-.14.08-.39.3-.75.65-.22.22-.54.31-.98.28l.02-.12c-.13.06-.31.06-.56 0s-.43-.16-.55-.28c-.24-.25-.43-.66-.57-1.24-.07-.45-.15-.89-.24-1.32-.89-2.65-1.03-5.53-.41-8.63l.47-.46c.14.14.25.22.33.24.08-.07.05-.18-.09-.32.01-.01.14-.04.39-.07.17-.01.29-.05.35-.11l.4.4c-.13.34-.24.79-.34 1.35-.06.44-.12.69-.19.75-.06.06-.1.07-.11.02-.01-.08-.04-.11-.09-.09.3 2.62.55 4.53.76 5.75.17.54.39 1.35.67 2.41l.21-.02c.33-.97.37-2.22.14-3.75-.21-1.19-.4-2.39-.59-3.59.09.09.18.1.26.02 0-.09-.13-.13-.4-.12-.01-.2-.1-.66-.25-1.38-.15-.59-.2-.91-.16-.96s.08-.02.1.06c.02.09.07.1.13.04.05-.05.06-.12.05-.21-.02-.09.01-.17.07-.23.08-.08.32-.11.72-.11.41 0 .66.05.75.15zm4.07 6.65l-.492.16.092.14.49-.16-.09-.14zm.37.748l-.373-.19-.05.14.32.143.09-.093zm.143-.652l-.117-.07-.165.31.116.12.16-.35z"/><linearGradient id="h" gradientUnits="userSpaceOnUse" x1="71.441" y1="113.5" x2="71.441" y2="159.5"><stop offset="0" stop-color="#1B1440"/><stop offset=".819" stop-color="#ED1E79"/></linearGradient><path fill="url(#h)" d="M72.886 59.15c.054.07.056.11.008.12-.065.023-.1.05-.104.08.08-.005.145-.028.197-.068.06.15.112.344.158.585.058.04.114.094.167.163.43.56.518 1.073.27 1.542.164.18.275.523.334 1.032.06.51.018.818-.122.926l-.21.16-.208.162c-.21-.2-.317-.34-.322-.418-.075-.025-.174.01-.296.102-.174-.587-.346-1.19-.516-1.81-.23-.766-.493-1.327-.79-1.68-.032-.004-.133-.01-.305-.017-.17-.01-.3.02-.388.09-.51.38-.76 1.42-.74 3.1.02 1.37.08 2.21.18 2.52.18.52.36 1.06.54 1.62.23.7.47 1.21.71 1.53.08.1.55.23 1.4.39s1.31.22 1.36.18l.21-.16.13-.1c.02.03.06.11.09.23.04.12.07.2.1.23-.1-.09-.17.05-.22.42-.08-.11-.16-.13-.23-.08-.03.08.1.19.38.33-.02.01-.05.03-.08.06l-.19.14c-.07.05-.17.03-.31-.08-.14-.1-.24-.13-.31-.08s-.06.09.02.11c.08.01.09.05.02.1-.26.2-.84.19-1.74-.04s-1.44-.46-1.63-.71c-.3-.02-.64-.29-1.03-.79-.84-1.1-1.3-2.74-1.38-4.93-.07-2.48.54-4.2 1.81-5.18.35-.27.69-.4 1.02-.41.42 0 .85.02 1.29.05.01.02 0 .16-.03.44.04.02.12 0 .25-.05s.19-.07.2-.06c.01.05 0 .1-.04.16.03 0 .07-.01.12-.03.05-.02.1 0 .16.07z"/><linearGradient id="i" gradientUnits="userSpaceOnUse" x1="79.094" y1="113.5" x2="79.094" y2="159.5"><stop offset="0" stop-color="#1B1440"/><stop offset=".819" stop-color="#ED1E79"/></linearGradient><path fill="url(#i)" d="M83.816 57.738l.05.085c.016.068.1.21.254.426.083.28.19.68.324 1.18.105.09.167.13.187.12-.05.21-.05.4-.01.58.04.18.07.34.08.49-.18-.05-.29 0-.33.15l.23.25.04-.26c.12-.07.25-.09.4-.05.05.07 0 .15-.13.23-.09.06-.14.06-.15.01.01-.08 0-.12-.03-.13.03.09.01.24-.04.45.06.04.14.07.26.08s.22.02.29.06c.06-.03-.01.04-.2.24-.1.08-.23.1-.39.04-.01.03 0 .07.01.13s.01.11.01.14c.1-.01.28-.03.53-.08-.01.06-.12.15-.33.28-.01.06.07.12.26.17l-.42.25c-.07-.12-.13-.36-.19-.72-.06-.02-.11-.05-.15-.09-.04-.04-.08-.06-.13-.06-.02.09-.01.17.03.25l-.49-.82c-.25-.39-.44-.69-.56-.89.19-.12.29-.2.31-.26-.06-.02-.19.03-.38.14-.01-.02.01-.12.05-.3-.07 0-.14.01-.2.04.03-.35.03-.54 0-.58-.05-.1-.16-.1-.31-.01-.02-.38-.05-.61-.11-.7-.01-.02-.07-.02-.19 0 .11.14-.13-.3-.73-1.3l-.44-.28c-.27.39-.44 1.09-.48 2.09-.08 1.53-.15 2.47-.21 2.81-.14.62-.29 1.51-.44 2.68-.25.1-.55.37-.9.81l-.45-.12c-.12-.03-.32-.18-.59-.45-.28-.27-.44-.44-.47-.49-.16-.27-.18-.55-.05-.86-.27-.07-.46-.2-.58-.39-.04-.08-.14-.38-.27-.91-.19-.61-.31-1.01-.37-1.2-.2-.81-.56-1.92-1.08-3.36.2.04.31 0 .34-.13-.07-.03-.13-.03-.19 0-.37-.57-.57-1.23-.6-1.98-.25-.93-.49-1.85-.72-2.76-.24-1.03-.33-1.76-.27-2.18-.09-.03-.16-.02-.22.01-.19-1.22-.37-2.44-.54-3.68-.18-1.55-.14-2.58.13-3.07l.4-.24c-.02-.03-.01.02.03.18.02.07.07.08.15.03s.17-.07.24-.06c.07.01.12.01.14 0l.22.37c.1.17.19.61.26 1.34.05.63.07 1.1.06 1.38.6 2.69 1.41 6.67 2.43 11.95.23.35.5 1.03.81 2.04.31 1.01.59 1.68.84 2.02.18-.34.35-1.35.5-3.03.15-1.6.24-2.41.28-2.43.07-.05.12-.06.15-.04.03.02.05.03.07.02.02-.06 0-.1-.06-.11-.07-.04-.13-.04-.16-.02.02-.19.13-.56.34-1.11.21-.55.36-.85.43-.9.08-.04.12-.03.12.04s.04.09.1.06c.06-.04.05-.11-.02-.22l.27.07c.03-.12.1-.21.19-.27.13-.08.34-.05.62.07.28.13.49.29.64.49.19.27.51.71.97 1.31.39.53.61.83.64.88zm-7.732.302l-.187.073.15.448.143-.08-.106-.43zm8.19 2.92l-.45-.308-.08.125.417.25.12-.067zm-.086-.793l-.17-.284c-.033.072-.08.164-.142.277.15-.09.255-.087.312.007zm.133-1l-.08-.142-.22.135.09.142.23-.135zm.18 2.043c-.08.205-.08.373 0 .504-.05-.082-.14-.083-.27-.005.09-.28.19-.45.28-.5z"/><linearGradient id="j" gradientUnits="userSpaceOnUse" x1="89.213" y1="113.5" x2="89.213" y2="159.5"><stop offset="0" stop-color="#1B1440"/><stop offset=".819" stop-color="#ED1E79"/></linearGradient><path fill="url(#j)" d="M90.316 32.715c-.426 2.615-.647 5.514-.667 8.697 0 1.025.06 3.84.19 8.442-.06.095-.13.233-.22.415.08.18.2.4.38.66.12 0 .27-.05.45-.12.26-.11.61-.32 1.05-.61s.66-.44.69-.45c.32-.14.64-.2.96-.19l.1-.26c.09.05.21.05.35-.01l.14.33c-.35.24-.58.44-.68.6-.27.37-.44.59-.49.63l-.23-.12c-.04.08-.03.19.02.31l-.46.19c-.08.03-.09.07-.02.11.06.04.07.08.01.1-.09.03-.18.05-.28.06-.11.01-.2.03-.28.06-.14.06-.41.32-.8.78-.39.46-.64.77-.74.93.13.32.13.72-.01 1.18l.16 1.58c.03.63-.02 1.09-.14 1.38.06.04.13.05.19.03l.32 2.3c-.03.06-.16.04-.42-.04-.02.01-.03.05-.04.12 0 .07-.03.12-.07.13-.19-.11-.32-.13-.38-.06l.25.16c.13.1.24.16.33.21-.1.04-.22.03-.37-.03.02-.01.12.2.3.63-.2-.01-.46.05-.78.18.18-.48.13-.83-.15-1.05-.33-.77-.53-1.71-.62-2.82-.12-1.54-.21-2.45-.25-2.72.02.04-.12.12-.4.24-.08.03-.12.03-.12-.02-.01-.07-.02-.11-.05-.12-.02.17-.23.55-.61 1.13-.39.58-.64.9-.76.95l-.52.22c-.18.08-.38.07-.6-.02-.22-.09-.36-.21-.43-.37-.19-.45.27-1.23 1.37-2.34.61-.59 1.23-1.19 1.86-1.79.15-.28.18-.89.09-1.83-.01-.21-.04-1.15-.08-2.83-.12-3.41-.17-6.17-.13-8.29.1-4.46.51-7.05 1.23-7.79.26-.06.52.08.79.42.29.4.44.61.47.62zm-1.862 18.943l-.09-.213-.243.103.09.213.25-.1zm2.108 10.096c-.073.166-.082.316-.025.45l-.426.18c-.07-.183-.17-.25-.29-.197-.06-.142.03-.407.28-.796-.15.04-.37.11-.66.21.01-.21.14-.38.41-.49.08-.03.11-.01.09.07-.02.09.01.11.09.07.16-.06.22-.09.15-.06.09.03.11.2.07.51.05 0 .12.01.19.02s.13.03.16.04z"/></svg>