<svg xmlns="http://www.w3.org/2000/svg" width="250" height="250" viewBox="0 0 250 250"><text transform="translate(44.9 173.8)" opacity=".11" font-family="'Coda-Heavy'" font-size="46.697">HALLO</text><path opacity=".15" d="M216.548 143.112c-.597-1.123-1.465-2.177-2.58-3.132-1.104-.946-2.484-1.723-4.225-2.374-1.554-.582-3.384-1.026-5.598-1.36-1.77-.267-3.866-.416-6.214-.458l22.99-22.408-8.29-10.285-38.46-5.59c-1.47-5.693-3.34-11.8-5.63-18.353-.17-1.01-.4-2.003-.67-2.985 3.06-3.55 6.72-9.175 4.43-13.877 0 0-2.42-7.097-14.22-1.963-7.34-6.93-17.83-11.594-29.66-12.527l-4.54-9.203-4.55 9.23C107.42 48.834 96.9 53.62 89.6 60.683l-.003-.002c-16.54-5.62-7.63 10.58-7.63 10.58h.01c-1.87 4.02-2.902 8.38-2.902 12.93 0 .14.01.28.01.42 0 .13-.012.26-.012.39 0 1.61.18 3.18.51 4.71.427 2.29 1.12 4.51 2.04 6.64l-46.53 6.75 8.298 10.29 1.97-.28-1.96.29 23.91 23.31c-.26.05-.52.13-.76.23-.47-.19-.98-.3-1.52-.3H49.28c-2.21 0-4 1.79-4 4V177c0 2.21 1.79 4 4 4H65c.54 0 1.054-.1 1.523-.3.47.2.99.3 1.53.3h5.49L69 207.46l8.296 10.29 54.86-28.846 54.863 28.844-6.6-38.484c.12-.18.23-.36.32-.55.78.47 1.64.9 2.65 1.28 1.55.59 3.39 1.044 5.6 1.39 2.11.324 4.66.49 7.6.49 2.92 0 5.46-.166 7.58-.49 2.21-.346 4.04-.8 5.6-1.39 1.74-.66 3.12-1.448 4.22-2.404 1.11-.967 1.98-2.03 2.57-3.15.58-1.11.96-2.26 1.11-3.43.12-.874.17-1.71.17-2.49V149c0-.78-.06-1.613-.18-2.48-.15-1.165-.53-2.314-1.11-3.41z"/><path fill="#F47F38" d="M65.487 203.287l8.295 10.283 13.93-19.343-11.112-2.842m132.527-92.457l8.294 10.285-19.57 5.91-7.27-12.68m-159-3.515l8.3 10.285 9.35-1.36"/><path fill="#F47F38" d="M128.648 184.727l54.865 28.843-10.478-61.093 44.386-43.264-61.34-8.914-27.43-55.59-27.43 55.58-61.34 8.91 44.39 43.26-10.48 61.09"/><path fill="#FFD200" d="M120.354 174.444l54.865 28.843-10.48-61.092 44.38-43.267-61.34-8.914-27.43-55.584-27.43 55.584-61.34 8.914 44.38 43.267-10.48 61.092"/><path fill="#FAAF40" d="M120.354 160.182l40.787 21.443-7.78-45.418 33-32.164-45.6-6.628-20.39-41.32-20.39 41.32-45.6 6.628 33 32.164-7.79 45.418"/><path fill="#FFF" d="M123.58 116.94s-32.73 66.17-44.27 1.745c0 0-7.845 2.566-6.324 5.273 0 0 14.54 66.42 53.93 1.592 0 0 6.035-6.692-3.337-8.61z"/><path fill="#FFF" d="M79.31 112.2c7.288-9.405 11.635-.62 11.635-.62-.64 1.262-3.35.69-3.35.69-6.84-1.068-6.057 4.67-6.057 4.67l-4.264 5.45"/><path fill="#FFF" d="M79.828 122.393s1.213-2.652 1.71-5.452c.496-2.8-1.354.15-1.354.15l-1.247-3.67-.213-1.1s.57-11.48-4.668-17.05c0 0-7.162-.93 0 8.78 0 0 2.567 7.03 2.192 8.53 0 0-.91 2.35-3.047 1.01 0 0-4.06-5.94-12.29-6.52 0 0-3.37 5.51 5.99 5.51l4.08 3.21s-4.18 10.91 7.04 7.59"/><path fill="#FFF" d="M77.275 111.81s.69 1.067 4.348-.43c3.657-1.495-4.348 8.554-4.348 8.554v-8.125zm36.482 22.93s12.4-20.58 12.29-23.51l19.166-6.137 24.834 9.146-7.268 36.88-16.7 12.61-14.53 12.33-21.01-13.75 2.19-3.15-.87-18.96 1.88-5.49z"/><path fill="#D0D2D3" d="M114.946 138.717s7.07-11.55 8.496-21.498l8.11 4.55-2.368 15.98-6.6 3.31-7.638-2.36zm-36.503-71.63s-8.908-16.202 7.63-10.573c16.54 5.627-7.63 10.574-7.63 10.574z"/><path fill="#919496" d="M81.563 62.617s-7.927-8.002-2.227 2.71c5.7 10.713 2.227-2.71 2.227-2.71zm74.423-3.023l4.64 10.15s14.27-17.752-4.64-10.15z"/><path fill="#FFF" d="M165.03 74.985c-3.015-17.81-21.792-31.527-44.52-31.527-24.83 0-44.96 16.37-44.96 36.56s20.128 36.56 44.96 36.56c.932 0 1.855-.028 2.775-.075.995 4.34 1.827 11.07-1.18 15.146 0 0-20.624 15.42-10.1 30.06-.014-.11-2.708-25.67 16.97-30.22l-3.57-16.11s7.435-1.75 16.12-5.58v20.16s-20.762 24.24-9.003 40.66c20.56-.63 61.938-11.63 32.51-95.65z"/><path fill="#D0D2D3" d="M141.525 129.977V109.81c-8.686 3.833-16.12 5.58-16.12 5.58l3.57 16.105c-19.678 4.55-16.984 30.114-16.97 30.222 2.052 2.86 3.083 3.828 7.896 6.508 0 0 6.49 2.596 12.62 2.41-11.75-16.414 9.01-40.658 9.01-40.658z"/><ellipse fill="#D0D2D3" cx="113.757" cy="80.823" rx="38.206" ry="28.985"/><path fill="#D0D2D3" d="M151.763 57.514s-.437 3.754 3.058 4.276c0 0 17.11-5.587 4.63 9.43 0 0-1.39 2.27 1.49 4.276 0 0 11.52-9.865 7.86-17.373 0 0-2.79-8.203-17.02-.61z"/><ellipse fill="#FFF" cx="94.246" cy="74.313" rx="14.935" ry="14.721"/><circle fill="#0071BC" cx="95.41" cy="75.22" r="10.974"/><path fill="#0F4481" d="M94.62 77.984c-2.038-2.355-1.78-5.914.572-7.95s5.91-1.78 7.95.574c2.037 2.353 1.78 5.913-.574 7.948-2.35 2.038-5.91 1.78-7.948-.572z"/><path fill="#FFF" d="M97.903 76.256c-1.083-1.252-.946-3.143.304-4.225s3.142-.94 4.226.31c1.082 1.25.944 3.15-.307 4.23-1.25 1.08-3.14.95-4.223-.3z"/><circle fill="#FFF" cx="93.343" cy="73.519" r="1.458"/><ellipse fill="#FFF" cx="128.975" cy="74.645" rx="18.436" ry="18.313"/><circle fill="#0071BC" cx="131.543" cy="74.54" r="12.655"/><path fill="#0F4481" d="M130.633 77.727c-2.352-2.717-2.055-6.82.66-9.166 2.713-2.34 6.814-2.05 9.167.67 2.35 2.72 2.053 6.82-.662 9.17-2.712 2.35-6.816 2.05-9.165-.66z"/><path fill="#FFF" d="M134.418 75.734c-1.25-1.444-1.092-3.623.352-4.87 1.44-1.248 3.62-1.095 4.87.35 1.25 1.442 1.09 3.624-.353 4.872-1.442 1.248-3.62 1.088-4.87-.352z"/><circle fill="#FFF" cx="129.158" cy="72.58" r="1.682"/><path fill="#6C6F71" d="M112.738 107.742s-.977-2.955-4.014-2.703c0 0 .81-.89 4.014-2.26 0 0-2.835.27-4.772 1.81 0 0-4.843 3.71-2.792-2.16 0 0-4.395 7.12 3.215 3.13 0 0 2.34.45 4.34 2.16z"/><path fill="#BE1E2D" d="M107.413 97.203s-4.136 11.965 2.083 4.215c0 0 1.66-2.343 5.877-2.654 0 0-18.927-8.58-7.96-1.56z"/><path fill="#D0D2D3" d="M149.525 113.57l-2.115 54.705 8.576-3.675 6.793-47.38-2.16-1.97-8.66 51.073"/><path fill="#6C6F71" d="M106.75 91.31l.497 3.134s9.782 7.156 12.08 1.492l-.855-2.192 2.937 3.763-1.76-1.09s.26 6.948-12.51-1.115c0 0-5.88-2.367-.7 1.27 0 0-8.61-3.897-.27-2.454l-.33-2.404.9-.403z"/><path fill="#1D8FCD" d="M102.203 89.79s3.322-6.76 4.547-3.19c0 0 2.745-4.02 2.745 2.435 0 0-2.602 1.774-2.745 3.924 0-.01-2.692-1.08-4.547-3.17z"/><path fill="#FFF" d="M106.75 91.31s.17-.913 1.455-1.823c0 0-.476-1.748-1.454 1.824z"/><path fill="#ACAFB1" d="M80.093 79.016s12.525-5.514 27.635 2.273c0 0-.982 7.28-13.943 7.87 0 0-9.578.5-13.692-10.15zm31.78 2.466s10.835-7.38 34.207 0c0 0-3.89 13.542-17.262 12.048-.002 0-13.507-.288-16.944-12.048z"/><path fill="#D0D2D3" d="M78.33 112.88l-1.055 3.206s-6.458 3.036-1.124 7.717c0 0-6.02-4.323.04-7.717l2.15-3.207zm-2.778 11.864s-.336 2.887 4.375 12.293l-4.375-12.293z"/><path fill="#FFD200" d="M160.548 187.337v-12.583"/><text transform="translate(43.4 172.8)" fill="#F47F38" font-family="'Coda-Heavy'" font-size="46.697">HALLO</text><path fill="#FFD200" d="M214.167 142.354c-.156-1.162-.534-2.312-1.12-3.408-.596-1.123-1.464-2.177-2.58-3.132-1.103-.946-2.483-1.723-4.224-2.374-1.554-.582-3.384-1.026-5.598-1.36-2.105-.317-4.65-.478-7.56-.478-2.93 0-5.48.16-7.588.478-2.21.334-4.04.778-5.598 1.36-1.75.654-3.13 1.435-4.23 2.388-1.1.952-1.96 2.002-2.55 3.112-.6 1.116-.97 2.28-1.12 3.46-.11.852-.16 1.672-.16 2.437v18.413h-2.66v-26.804c0-2.21-1.79-4-4-4h-15.72c-2.21 0-4 1.79-4 4v26.804h-2.93v-26.804c0-2.21-1.79-4-4-4h-15.72c-2.21 0-4 1.79-4 4v11.44l-2.75-12.312c-.41-1.83-2.03-3.13-3.91-3.13H90.91c-1.874 0-3.496 1.3-3.904 3.13l-2.75 12.313v-11.44c0-2.21-1.79-4-4-4H64.54c-.54 0-1.053.105-1.522.3-.47-.194-.99-.3-1.53-.3H45.77c-2.21 0-4 1.79-4 4v36.366c0 2.21 1.79 4 4 4h15.72c.54 0 1.056-.106 1.525-.3.47.193.983.3 1.523.3h15.724c.45 0 .875-.09 1.278-.228.405.134.823.228 1.258.228h15.49c1.33 0 2.526-.654 3.257-1.676.73 1.02 1.925 1.676 3.256 1.676h15.49c.44 0 .86-.094 1.26-.228.4.137.83.228 1.28.228H147c.44 0 .85-.088 1.245-.217.394.13.807.217 1.244.217h24.16c1.59 0 2.95-.933 3.59-2.272.77.48 1.64.91 2.64 1.29 1.55.59 3.38 1.05 5.6 1.39 2.11.33 4.66.49 7.6.49 2.91 0 5.46-.16 7.58-.49 2.21-.34 4.04-.8 5.59-1.39 1.74-.66 3.12-1.44 4.22-2.4 1.11-.96 1.98-2.02 2.57-3.15.58-1.1.96-2.26 1.11-3.42.12-.87.17-1.71.17-2.48v-19.52c0-.78-.06-1.61-.17-2.48z"/><path fill="#F47F38" d="M80.264 136.445v36.367H64.542v-15.687h-3.046v15.687H45.773v-36.367h15.722v14.98h3.046v-14.98h15.73zm19.116 28.433l-1.092 7.935h-15.49l8.118-36.367h21.257l8.117 36.367H104.8l-1.093-7.935H99.38zm.7-5.244h2.93l-1.465-9.646-1.466 9.646zm22.745 13.18v-36.368h15.722v30.804h8.442v5.563h-24.17zm26.653 0v-36.368H165.2v30.804h8.443v5.563h-24.165zm43.607.888c-2.744 0-5.074-.148-6.99-.444-1.913-.297-3.51-.688-4.79-1.175s-2.283-1.05-3.012-1.688c-.73-.638-1.275-1.303-1.64-1.995-.364-.69-.59-1.387-.674-2.086s-.13-1.353-.13-1.96v-19.52c0-.607.04-1.257.13-1.95.08-.69.31-1.378.67-2.062.36-.684.91-1.34 1.64-1.972s1.73-1.186 3.01-1.665c1.28-.48 2.88-.862 4.79-1.15 1.91-.29 4.24-.434 6.99-.434 2.73 0 5.05.15 6.96.44 1.91.29 3.51.68 4.79 1.15 1.28.48 2.29 1.04 3.02 1.67s1.28 1.29 1.65 1.98c.36.69.59 1.37.68 2.07.09.69.14 1.34.14 1.95v19.52c0 .61-.05 1.27-.14 1.96s-.32 1.4-.69 2.09c-.36.7-.91 1.36-1.65 2-.74.64-1.74 1.2-3.02 1.69s-2.88.88-4.79 1.18c-1.92.3-4.24.44-6.97.44zm-1.512-6.202h3.047v-25.788h-3.047V167.5z"/></svg>