<svg xmlns="http://www.w3.org/2000/svg" width="250" height="250" viewBox="0 0 250 250"><path d="M214.597 186.063s0-.002-.002-.002c-1.49-3.25-12.768-10.33-22.376-15.92l-.02-.01c-.52-.3-1.03-.59-1.53-.88l-.09-.05c-.48-.28-.96-.55-1.42-.81l-.16-.09-1.33-.75-.19-.1c-.42-.23-.83-.46-1.22-.68l-.24-.13-.1-.06c.47-.78.92-1.57 1.36-2.36 1.26.71 2.7 1.13 4.24 1.13 4.78 0 8.66-3.88 8.66-8.66l-.01-.09c5.26-.65 9.34-5.13 9.34-10.57 0-4.09-2.31-7.64-5.7-9.43.01-.19.03-.37.03-.56 0-3.68-2.99-6.66-6.67-6.66-.31 0-.61.03-.91.07 0-.16.01-.32.01-.48 0-23.43-10.97-44.28-28.05-57.73 12.28 1.26 25.09.19 34.44-6.52l-11.5-12.5 4-14.5c-9.7.25-18.12 13.03-27.08 13.8-10.94.94-35.44-7.39-38.35-8.39-.07-.38-.1-.6-.1-.6s-.02.21-.03.56l-.05-.02v-.79c-17.43-16.16-44.33 4.1-48.15 7.13-.2-.97-1.06-1.7-2.09-1.7-1.17 0-2.13.96-2.13 2.14V71.4C64.79 81.237 55.62 95 51.6 110.83c-3.6 1.764-6.08 5.45-6.08 9.73 0 .3.02.6.05.894-2.65 1.94-4.377 5.065-4.377 8.603 0 5.35 3.94 9.763 9.073 10.532 1.04 6.55 2.96 12.8 5.61 18.65.29 12.84 8.39 26.59 28.16 32.13.27.17.54.35.814.51-1.24 1.74-1.98 3.87-1.98 6.17 0 5.89 4.78 10.67 10.67 10.67.12 0 .24-.02.36-.02 1.26 4.98 5.76 8.68 11.14 8.68 2.53 0 4.86-.83 6.76-2.22 1.295.77 2.8 1.21 4.41 1.21 4.79 0 8.67-3.88 8.67-8.66 0-.03-.01-.06-.01-.09 3.645-.46 6.717-2.74 8.26-5.91 13.62-1.91 26.04-7.54 36.197-15.85 6.67 1.48 14 2.81 21.62 3.69 0 0 23.52 2.11 23.82-2.71.02-.21-.06-.45-.18-.71zM81.505 50.37c1.438 1.987 5.396 8.195 4.403 15.024-1.5.874-2.973 1.79-4.403 2.764v-17.79z" opacity=".15"/><path d="M107.586 57.963c-.9-2.575-2.085-6.308-2.665-7.97-.18-.52-.31-.843-.34-.857-.42-.203-1.57-1.362-1.68-1.674-.01-.042 0-.07 0-.07.12-.203 2.05-1.016 3.71-1.596 2.58-.898 6.21-1.443 7.02.882.69 1.973-1.03 3.834-1.38 4.166 0 0-.02.056-.02.077.46.03 3.65-.29 4.53 2.22 1.35 3.87-2.61 6.88-6.55 8.25-.58.21-1.08.31-1.08.31-.12-.07-1.14-2.67-1.51-3.73zm.032-10.122c-.23.08-.388.16-.4.19-.015.03 1.063 3.45 1.084 3.51.028.02.05.01.132-.02.603-.21 2.88-1.56 2.313-3.18-.405-1.16-2.298-.78-3.13-.49zm6.31 6.54c-.593-1.7-2.96-1.41-4.395-.91-.228.08-.49.2-.504.23-.03.01.05.24.18.59.4 1.16 1.37 3.67 1.67 4.19 0 0 .05.01.11-.01 1.76-.61 3.46-2.56 2.93-4.07zm4.364-1.2c-.452-2.64 1.046-5.75 4.646-6.37 0 0 1.048-.13 1.2-.02.026.02.07.15.096.3.048.29.068.66.068.8.22-.02 2.602.34 3.125 3.39.44 2.58-.76 5.35-3.772 5.87-2.906.5-4.9-1.24-5.363-3.95zm4.678-3.05l-.173.03c-.03-.04-.07-.14-.092-.27-.04-.24-.05-.55-.042-.64-1.04.18-2.265 1.37-1.91 3.45.038.22.446 2.61 2.527 2.25 1.02-.17 2.017-1.13 1.687-3.06-.32-1.86-1.542-1.83-1.997-1.75zm6.678-2.1c.04-.83.09-1.38.182-1.46.322-.29 1.238-.56 2.03-.52.196.01.458.07.456.13-.03.18-.102.72-.122 1.14-.017.35 0 .44.044.44.022 0 .068-.04.068-.04s1.122-1.33 2.77-1.25c2.747.14 2.638 3.74 2.455 7.5-.07 1.45-.19 2.57-.19 2.57 0 .11-.96.4-1.91.35-.41-.02-.72-.14-.72-.14.16-.98.33-2.3.41-3.75.11-2.13.1-3.8-1.11-3.86-1.42-.07-1.89 1.47-1.89 1.47 0-.02-.04 1.41-.11 2.8-.06 1.21-.14 2.38-.2 2.44-.46.42-1.7.52-2.29.49-.17-.01-.33-.01-.32-.08.15-.69.25-1.9.31-3.24.09-1.73.11-3.65.18-4.94zm19.642 3.25c.08-.12.75.06 1.124.24.893.43.912.64.912.64-.31.65-6.023 6.8-6.334 6.91-.313.11-1.684-.48-1.684-.48-.504-.24-.7-.45-.7-.45.372-.78.804-6.98 1.37-8.16.023-.05.762-.21 1.947.35 0 0-.936 4.5-.97 5.86 0 0-.022.09.065.03.757-.53 3.78-4.09 4.27-4.92zm6.083 10.44c-.146.86-.023 1.24.145 1.55-.064.21-1.4.59-2.205.33-.068-.02-.318-.54-.123-1.49 0 0 .012-.03-.006-.04-.018 0-.063.02-.063.02s-1.14.43-2.4.02c-1.54-.49-2.22-1.6-1.75-3.06.97-3 5.06-2.12 5.4-2.01.02.01.04 0 .04 0 .16-.49-.36-1.04-1.85-1.52-.46-.15-1.05-.3-1.27-.33h-.02c.16-.5.85-1.22 1.11-1.36.03-.01.42 0 1.24.27 2.61.84 3.49 2.2 2.82 4.28l-.28.88c-.27.86-.69 2.14-.75 2.52zm-1.29-2.68c.065-.2.12-.37.103-.38-.617-.2-2.617-.5-3.016.73-.14.43.02.93.79 1.18.448.15 1.548.25 1.91-.88l.212-.65zm3.45 1.44c.717-2.99 3.457-4.15 6.1-3.51.314.08.402.1.47.13.056.07.032.32-.04.62-.113.47-.342 1.05-.486 1.11l-.123-.03c-.664-.16-3.084-.64-3.725 2.03-.24 1 .06 1.98 1.55 2.34.92.22 1.57.01 1.62.02.08.13.03.47-.06.84-.12.48-.31.98-.46 1.06 0 0-.66.2-1.8-.08-2.84-.67-3.51-2.65-3.07-4.51zm13.577 4.47c-.01.87.173 1.23.386 1.5-.03.21-1.29.8-2.125.67-.07-.01-.4-.48-.35-1.46 0 0 .01-.03-.01-.04-.02 0-.06.03-.06.03s-1.06.6-2.37.4c-1.6-.25-2.45-1.23-2.21-2.75.49-3.11 4.66-2.88 5.02-2.83.02.01.04-.01.04-.01.08-.51-.52-.97-2.07-1.21-.48-.07-1.09-.13-1.31-.13h-.02c.08-.52.65-1.34.88-1.52.02-.01.41-.06 1.27.07 2.71.42 3.79 1.63 3.46 3.78l-.14.91c-.14.89-.34 2.22-.35 2.6zm-1.696-2.45c.033-.21.06-.39.043-.39-.64-.1-2.666-.08-2.865 1.2-.068.45.168.92.97 1.04.462.08 1.565.01 1.747-1.16l.1-.68zm4.636-2.17c.024-.68.058-1.13.132-1.2.26-.24 1.006-.47 1.654-.45.162.01.377.05.375.1-.02.15-.07.6-.08.94-.01.29.01.36.04.36.02 0 .06-.03.06-.03s.9-1.1 2.25-1.06c2.25.08 2.21 3.03 2.1 6.1-.04 1.19-.12 2.11-.12 2.11 0 .09-.78.33-1.56.31-.34-.01-.59-.11-.59-.11.12-.81.25-1.88.29-3.07.06-1.75.04-3.12-.95-3.15-1.17-.04-1.54 1.23-1.54 1.23 0-.02-.02 1.15-.06 2.29-.03.99-.08 1.94-.14 2-.37.35-1.38.44-1.87.43-.14 0-.27-.01-.26-.06.11-.57.18-1.56.22-2.66.05-1.42.05-2.99.09-4.05zm8.886 3.06c-.33-2.31.79-4.64 3.68-5.05.836-.12 2.295.04 2.523 1.62.21 1.52-.89 3.33-3.06 4.44.01.11.44.43 1.37.3.76-.11 1.56-.37 2.07-.78 0 0 .01-.02.03-.02.03 0 .09.23.1.33.06.43.06 1.19-.22 1.67 0 0-.55.5-2.28.74-2.5.36-3.93-1.15-4.23-3.23zM186.45 60c-.96.135-1.67 1.4-1.47 2.81.03.194.04.25.11.24.75-.128 2.16-1.42 1.99-2.615-.05-.38-.36-.48-.62-.44zm7.99 5.57c-.16.07-.94-.417-1.28-1.19l-.05-.118c1.9-.827 2.28-1.99 2.05-2.52-.41-.96-3.28-.324-3.89-1.744-.59-1.37.9-3.59 2.76-4.4.18-.08.99.374 1.32 1.077-.24.105-2.14 1.34-1.76 2.22.36.82 3.14.183 3.94 1.88.84 1.93-1.77 4.223-3.06 4.78z" opacity=".15"/><circle fill="#3FD8D8" cx="118.848" cy="126.57" r="73.478"/><path fill="#FFF" d="M88.55 126.653c0-4.095-2.31-7.646-5.694-9.434.016-.19.028-.38.028-.57 0-3.69-2.985-6.67-6.667-6.67-.495 0-.976.06-1.44.16-1.72-3.45-5.275-5.83-9.394-5.83-3.38 0-6.378 1.6-8.3 4.08-1.422-.69-3.013-1.09-4.7-1.09-5.983 0-10.833 4.85-10.833 10.83 0 .3.02.6.045.89-2.65 1.94-4.378 5.06-4.378 8.6 0 5.89 4.775 10.66 10.667 10.66.122 0 .24-.02.36-.02 1.258 4.99 5.762 8.68 11.14 8.68 2.53 0 4.863-.83 6.763-2.22 1.292.76 2.794 1.21 4.404 1.21 4.79 0 8.67-3.88 8.67-8.67v-.1c5.26-.66 9.34-5.14 9.34-10.58zm117.002 17c0-4.095-2.31-7.646-5.695-9.434.016-.19.03-.38.03-.57 0-3.69-2.986-6.67-6.668-6.67-.5 0-.98.06-1.44.16-1.73-3.45-5.28-5.83-9.4-5.83-3.38 0-6.38 1.6-8.3 4.08-1.43-.69-3.02-1.09-4.7-1.09-5.99 0-10.84 4.85-10.84 10.83 0 .3.02.6.04.89-2.65 1.94-4.38 5.06-4.38 8.6 0 5.89 4.77 10.66 10.66 10.66.12 0 .24-.02.36-.02 1.26 4.99 5.76 8.68 11.14 8.68 2.53 0 4.86-.83 6.76-2.22 1.29.76 2.79 1.21 4.4 1.21 4.78 0 8.66-3.88 8.66-8.67 0-.04-.01-.07-.01-.1 5.27-.66 9.34-5.14 9.34-10.58z"/><path fill="#DDD9DA" d="M180.933 164.844s-37.086 28.945-85.33 26.533c-51.233-2.562-51.133-47.303-31.658-58.795 18.393-10.854 34.674-7.538 34.674-7.538s7.23-10.947 15.07-11.156c22.61-.603 40.02 18.77 61.43 32.036"/><path fill="#00AEFF" d="M150.026 136.5c11.308-4.672-30.453-22.46-40.553-21.255 0 0-.288.03-.753.108-5.673 3.02-10.1 9.69-10.1 9.69s40.1 16.132 51.406 11.458z"/><path fill="#DDD9DA" d="M133.595 174.19s24.725 9.648 53.367 12.965c0 0 23.52 2.11 23.82-2.713.3-4.824-36.483-24.423-36.483-24.423m-9.05-19.3s9.95-10.96 17.79-7.34l-2.52 29.9"/><circle fill="#0F4481" cx="68.618" cy="152.934" r="14.322"/><path fill="#FFF" d="M116.536 118.49l.076.124c.026.048.19.29.12.223-.024-.035-.01.023-.05-.075-.02-.06-.083-.395.08-.783.174-.39.4-.51.355-.5-.025 0-.242.06-.528.1-.59.08-1.49.07-2.48-.06-2.01-.25-4.48-.91-6.99-1.94-2.52-1.02-5.11-2.4-7.48-4.06-2.38-1.65-4.55-3.55-6.31-5.53-1.78-1.98-3.17-4.02-4.17-5.84-1.02-1.83-1.65-3.44-2.05-4.58-.2-.57-.35-1.03-.43-1.34l-.15-.48-7.93 2.55s.08.2.22.59.35.95.66 1.66c.6 1.41 1.54 3.41 2.96 5.62 1.4 2.21 3.29 4.63 5.61 6.89 2.31 2.27 5.03 4.37 7.94 6.11 2.9 1.75 5.99 3.15 9 4.16 3.01 1 5.94 1.61 8.62 1.77 1.35.07 2.63.04 3.93-.22.65-.14 1.3-.32 2.02-.7.68-.37 1.51-1.03 1.96-2.05.45-1.02.36-2.01.21-2.58-.16-.62-.35-.98-.55-1.33-.23-.41-.25-.38-.32-.5l-.08-.12-4.28 2.83z"/><path opacity=".3" fill="#D0D1D2" d="M97.66 118.14c2.41 1.315 4.904 2.407 7.35 3.22 3.012 1.006 5.94 1.618 8.624 1.778 1.35.072 2.63.048 3.932-.217.65-.13 1.307-.31 2.02-.69.685-.36 1.514-1.02 1.966-2.04.458-1.01.362-2 .21-2.57-.154-.62-.344-.97-.544-1.33-.23-.4-.247-.38-.32-.49l-.082-.11-4.152 2.75c.008-.12.032-.27.1-.43.173-.38.398-.5.354-.49-.025.01-.242.07-.528.1-.585.08-1.482.07-2.477-.05-2.01-.25-4.476-.91-6.988-1.93-2.52-1.02-5.104-2.4-7.477-4.05-.356-.24-.695-.51-1.042-.76.218 2.41.043 5-.945 7.37zm19.022.622l-.01-.05c.05.08.105.17.06.125-.024-.035-.01.023-.05-.075zM87.93 96.552s1.452 5.075-5.745 6.968c0 0-2.15-2.887-2.7-4.954"/><path fill="#6D6F71" d="M118.156 125.102l-.542-.208-.753 6.482.25.227c6.41 2.023 13.52 3.985 19.72 5.01.44-3.21.7-7.348.7-7.348l-19.36-4.163z"/><path fill="#D0D1D2" d="M110.53 71.49s-9.914-9.11-8.09 5.987l2.497-.99 5.592-4.997z"/><ellipse transform="rotate(115.83 130.91 98.75)" fill="#FFF" cx="130.914" cy="98.746" rx="29.282" ry="36.547"/><ellipse transform="rotate(115.83 127.08 96.48)" fill="#D0D1D2" cx="127.085" cy="96.482" rx="23.33" ry="30.583"/><ellipse transform="rotate(115.82 113.18 87.46)" fill="#FFF" cx="113.176" cy="87.461" rx="12.351" ry="12.531"/><ellipse transform="rotate(115.83 139.28 100.4)" fill="#FFF" cx="139.281" cy="100.399" rx="15.365" ry="15.468"/><path fill="#919396" d="M162.62 96.257c-.002-.013 1.147 7.854.232 9.803l1.688-1.086s11.9-6.718-1.92-8.717z"/><path fill="#D0D1D2" d="M160.515 93.067s8.664-1.153 11.697 3.718c0 0 3.344 7.504-8.233 11.507l-2.91 1.182s-.94-1.782.48-3.973c0 0 13.99-5.82-.25-8.56 0 0-1.97-1.13-.79-3.86z"/><circle fill="#0071BC" cx="137.88" cy="99.976" r="10.821"/><path fill="#0F4481" d="M143.765 94.766c-2.462-1.833-5.944-1.324-7.777 1.138-1.835 2.463-1.325 5.944 1.136 7.776 2.463 1.837 5.946 1.326 7.78-1.135 1.832-2.462 1.324-5.944-1.14-7.78z"/><circle fill="#FFF" cx="139.428" cy="98.464" r="2.954"/><circle fill="#FFF" cx="145.28" cy="101.872" r="1.439"/><circle fill="#0071BC" cx="113.824" cy="87.969" r="8.739"/><circle fill="#0F4481" cx="115.896" cy="87.36" r="4.489"/><circle fill="#FFF" cx="115.075" cy="86.748" r="2.386"/><circle fill="#FFF" cx="119.802" cy="89.5" r="1.161"/><path fill="#6D6F71" d="M114.89 100.352c-.022-.048-.292.016-.73.23-.433.215-1.056.574-1.65 1.255-.405.492-.738 1.207-.67 2 .09.784.55 1.495 1.1 2.037.552.564 1.266 1.056 2.128 1.27.212.067.437.096.672.09.23.024.465-.01.7-.08.116-.034.242-.044.347-.104l.16-.09.01-.01c.01-.01.01-.008.01-.008s.002 0 0 0l-.01.677.156.66c.295.88 1.01 1.51 1.752 1.83.747.34 1.536.42 2.255.34.725-.05 1.39-.29 1.943-.62.775-.45 1.137-1.13 1.337-1.56.124-.48.158-.74.102-.76-.058-.01-.2.21-.395.61-.27.34-.635.87-1.333 1.2-.487.26-1.07.44-1.704.47-.626.05-1.308-.05-1.914-.34-.606-.28-1.127-.77-1.342-1.43l-.115-.51.01-.55c.04-.43.18-.85.27-1.28l.15-.65.07-.32.03-.14v-.04l-.03.04-.07.07-.17.19c-.36.4-.7.81-1.11 1.15l-.28.26-.11.07c-.07.05-.16.04-.24.07-.16.05-.33.08-.5.06-.17.01-.34-.01-.51-.07-.69-.17-1.31-.56-1.8-1.05-.51-.48-.86-1.04-.95-1.61-.07-.57.14-1.12.48-1.57.96-1.24 2.01-1.71 1.91-1.85z"/><path fill="#0B8ECC" d="M119.805 100.992s2.913-2.245 2.307 3.95l-4.678 1.204-1.6-3.987s4.237-3.94 3.97-1.17z"/><path fill="#FFF" d="M121.47 104.57l-2.007.51s1.182-1.6 2.006-.51zm-4.51-.7l-.6-1.297s.913 0 .6 1.296z"/><path fill="#A0A2A3" d="M152.196 180.818c.563-.24.94-.39.94-.39L136.61 176s-2.363 6.487-11.42 13.126c10.085-2 19.197-5.044 27.006-8.308z"/><path fill="#FFF" d="M118.066 122.33s-1.508 6.935 3.316 10.402c4.825 3.468 16.132-3.468 16.132-3.468l-1.207-2.26-18.24-4.674z"/><path fill="#D0D1D2" d="M130.317 132.63l-3.658-5.626-6.49-1.81s-.39 3.006-.33 6.08c.42.527.93 1.02 1.54 1.458 2.19 1.58 5.73.997 8.93-.1z"/><path fill="#A0A2A3" d="M135.604 166.45s42.213 23.722 74.977 17.29l.02-.01c-2.63-5.772-36.3-23.71-36.3-23.71s-.23-1.56-13.26 1.96c-6.23 1.682-25.43 4.47-25.43 4.47zm30.532-26.63c.504.498 1.187 1.22 1.43 1.707.387.773 6.94-9.84 15.47-8.04l.008-.102c-6.445-2.973-14.31 3.895-16.908 6.435z"/><path fill="#F2D86B" d="M77.506 101.665c0 1.178-.955 2.133-2.133 2.133s-2.133-.955-2.133-2.133V47.427c0-1.18.956-2.133 2.133-2.133 1.178 0 2.133.954 2.133 2.133v54.238z"/><path fill="#FFF" d="M76.135 78.538s-6.704-3.2-11.122.686c-2.87 2.523-3.123 7.084-.99 8.912 0 0-5.104 2.362-4.037 8.304 1.066 5.94 5.133 12.84 16.606 7.923 10.13-4.343 12.493-9.903 12.493-9.903s5.104-21.482-5.256-21.482-7.39 3.884-7.7 5.56z"/><path fill="#D0D1D2" d="M76.288 79.225s-.99 12.036 9.293 12.95c0 0-14.06 2.285-9.29-12.95z"/><path fill="#D0D1D2" d="M64.023 88.136s8.81-3.122 11.96.84c0 0-2.794-1.78-11.96-.84zM63.39 99.64s14.828 4.977 15.437-6.297c0 0 2.336 10.767-10.056 9.243 0 0-5.48.202-5.38-2.946z"/><path fill="#F2D86B" d="M73.24 102.544v4.866c0 1.18.956 2.133 2.133 2.133s2.133-.954 2.133-2.133v-7.22c-.864 1.094-2.208 1.984-4.266 2.354z"/><ellipse fill="#D6B303" cx="75.323" cy="108.097" rx="2.083" ry="1.549"/><path fill="#0099B2" d="M77.506 71.702s50.665-22.16 65.884-10.827l.057-16.005V32.182C122.667 20.85 77 47.368 77 47.368s11.07 13.364.506 24.334z"/><path fill="#0099B2" d="M143.333 60.833s43.376 21.375 68.043 3.708l-11.5-12.5 4-14.5c-9.704.25-15.876 12.3-40.21 4.8-17-5.24-20.395-8.6-20.395-8.6s-.91 23.81.11 27.14"/><path fill="#048B99" d="M143.078 40.11s-.678 17.263.34 20.598c0 0 11.395 3.976 11.374 3.958-5.71-4.958-11.714-24.557-11.714-24.557z"/><path fill="#FFF" d="M130.22 194.652c0-4.095-2.31-7.646-5.696-9.434.016-.188.028-.375.028-.566 0-3.683-2.985-6.667-6.667-6.667-.495 0-.976.058-1.44.16-1.72-3.45-5.275-5.827-9.394-5.827-3.38 0-6.37 1.604-8.29 4.084-1.42-.688-3.01-1.084-4.7-1.084-5.98 0-10.83 4.85-10.83 10.834 0 .303.02.6.05.897-2.65 1.94-4.38 5.06-4.38 8.6 0 5.89 4.78 10.66 10.67 10.66.13 0 .24-.02.36-.02 1.26 4.99 5.77 8.68 11.14 8.68 2.53 0 4.87-.83 6.77-2.22 1.29.76 2.8 1.21 4.41 1.21 4.79 0 8.67-3.88 8.67-8.67 0-.03-.01-.06-.01-.1 5.26-.66 9.34-5.14 9.34-10.58zM89.333 61.36c-1.49.57-2.006.604-2.006.604-.172-.077-.594-1.075-.968-2.05-.34-.87-.63-1.735-.66-1.926-.02-.198.7-.98 1.48-1.28 0 0 .8 2.094 1.41 2.368.22.1.62-.033.74-.08 1.51-.578 2.44-2.057 2-3.228-.83-2.165-6.05.198-7.26-2.96-.57-1.473.44-4.115 4.73-5.758.19-.075.77-.232.81-.21 0 0 .04.046.06.1.13.337.4 1.474.22 1.91-.02.006-.23.045-.51.154-1.17.448-3.28 1.58-2.81 2.823.65 1.704 5.74-.69 7.12 2.93.89 2.342-.86 5.25-4.39 6.602zm5.26-11.852c-.67.21-1.243-.087-1.494-.885-.2-.616.25-1.414.9-1.62.65-.206 1.26.1 1.5.86.2.654-.27 1.44-.92 1.645zm1.483.788c.03.09.636 2.21 1.16 3.878.264.834.51 1.553.644 1.85.33.733.625 1.038.946 1.296.068.218-.943 1.373-1.704 1.612-.072.023-.583-.334-1.046-1.424-.092-.23-.3-.823-.533-1.566-.588-1.867-1.4-4.64-1.374-4.807 0 0 .31-.458 1.36-.79 0 .003.41-.13.54-.05zm2.674 3.612c-.818-3.144 1.157-5.583 3.934-6.307.33-.08.423-.11.5-.11.09.04.193.29.274.6.13.5.2 1.15.096 1.27l-.128.04c-.7.19-3.194.93-2.46 3.75.272 1.05 1.04 1.81 2.603 1.41.97-.25 1.46-.77 1.52-.79.14.09.26.43.36.81.13.5.2 1.07.1 1.21 0 0-.52.51-1.71.82-2.98.78-4.59-.73-5.1-2.68zm14.944.458c-.017.12-.734.522-1.518.668-.355.066-.634.02-.634.02-.063-.857-.177-1.995-.406-3.228-.336-1.812-.723-3.17-1.73-2.982-1.028.19-1.288 1.707-1.288 1.707s.276 1.29.495 2.46c.173.94.314 1.8.25 1.87-.34.45-1.27.76-1.96.89-.076.02-.15.03-.16-.02-.003-.63-.26-2.23-.603-4.08-.41-2.2-.943-4.77-1.258-6.47-.205-1.1-.32-1.83-.26-1.92.213-.31.91-.82 1.6-.95.15-.02.456-.04.463-.01.016.19.687 4.43.877 5.46l.03.17s.018.09.074.08c.02 0 .05-.05.05-.05s.77-1.36 2.19-1.62c2.26-.42 2.83 2.45 3.402 5.53.188 1.01.393 2.54.386 2.5zm.743-4.006c-.093-2.466 1.34-4.783 4.415-4.9.892-.033 2.406.29 2.47 1.98.06 1.614-1.298 3.395-3.696 4.322.004.114.418.498 1.405.46.82-.03 1.69-.216 2.26-.6 0 0 .02-.02.04-.02.04 0 .07.245.07.358.02.456-.06 1.257-.41 1.727 0 0-.63.46-2.47.53-2.65.1-3.99-1.635-4.08-3.856zm4.062-3.175c-1.03.04-1.91 1.29-1.86 2.79.01.207.01.265.08.262.79-.05 2.42-1.25 2.37-2.523-.02-.4-.33-.54-.61-.53zm9.28.732c-.06-.02-.25-.04-.25-.04-1.94-.007-2.46 1.682-2.46 1.796l-.01 1.672c-.01 1.083-.01 2.28-.07 2.336-.46.44-1.6.51-2.09.51-.08 0-.15 0-.15-.06.12-.62.14-1.76.14-3 0-1.52-.03-3.21-.02-4.31 0-.68.02-1.14.08-1.19.26-.26 1.04-.52 1.73-.52.17 0 .4.04.4.1-.02.17-.06.9-.07 1.39 0 .04 0 .44.04.44.02 0 .03 0 .07-.04 0 0 1.07-1.51 2.83-1.51 0 0 .15.25.15.73-.01 1.28-.35 1.73-.35 1.73zm.92 2.22c.1-2.468 1.71-4.665 4.78-4.54.89.038 2.37.48 2.31 2.168-.07 1.614-1.56 3.283-4.03 4.018-.01.114.38.53 1.36.57.81.033 1.69-.084 2.29-.42 0 0 .02-.018.03-.018.04 0 .05.25.04.363-.02.456-.17 1.248-.55 1.69 0 0-.67.41-2.51.333-2.66-.1-3.86-1.94-3.77-4.16zm4.3-2.848c-1.03-.05-2.01 1.13-2.07 2.63-.01.21-.01.26.06.27.8.01 2.51-1.06 2.56-2.33.01-.4-.29-.56-.57-.58zm3.79 7.91c-.19-.03-.61-.91-.48-1.79l.02-.13c2.16.33 3.15-.5 3.24-1.1.16-1.09-2.75-2.13-2.5-3.75.24-1.56 2.81-2.7 4.94-2.38.2.03.67.89.56 1.7-.29-.05-2.68-.01-2.83.99-.15.93 2.7 1.93 2.46 3.89-.34 2.19-3.97 2.77-5.43 2.55zm9.99 2.09c.01-.1.82-2.63.94-3.01.27-.83.57-1.76.89-2.67-.28-.49-.47-1.62-.27-2.23 0-.02.39.09.95.25.26-.76.48-1.42.65-1.93.16-.49.26-.81.25-.84-.2-.39-.3-1.92-.21-2.19.19-.1 4.79 1.35 6.33 1.86.85.27 1.51.51 1.49.57-.28.84-1.27 1.6-1.36 1.53-.05-.04-.19-.09-.41-.16-.98-.32-3.33-.95-3.51-.87-.12.06-.5 1.15-.76 1.93-.14.41-.23.76-.23.76.85.26 1.75.53 2.41.75s1.09.38 1.08.41c-.23.7-1.11 1.57-1.18 1.55l-.18-.06c-.74-.24-2.67-.7-2.79-.64-.02.01-.24.6-.49 1.38-.44 1.33-1.01 3.25-1.03 3.92-.06.16-.96.25-2.06-.12-.43-.14-.54-.24-.54-.24zm14.07 2.24c-.13.91.01 1.31.19 1.62-.07.22-1.46.66-2.32.41-.08-.02-.35-.56-.17-1.58 0 0 .01-.04-.01-.05-.02-.01-.07.02-.07.02s-1.19.48-2.54.09c-1.64-.49-2.4-1.64-1.94-3.19.94-3.19 5.27-2.38 5.64-2.27.02 0 .04-.01.04-.01.16-.53-.41-1.1-2-1.56-.49-.15-1.12-.29-1.35-.32l-.02-.01c.15-.53.86-1.31 1.13-1.47.02-.02.44-.01 1.31.24 2.77.81 3.74 2.23 3.09 4.43l-.27.93c-.27.91-.67 2.28-.73 2.67zm-1.44-2.8c.06-.22.12-.4.1-.41-.66-.2-2.78-.46-3.16.85-.14.45.05.98.87 1.22.47.14 1.63.22 1.99-.98l.2-.69zm9.82 6.77c-.07.1-.89.17-1.66-.01-.36-.09-.59-.24-.59-.24.29-.81.65-1.9.95-3.12.43-1.79.63-3.19-.37-3.43-1.02-.25-1.87 1.03-1.87 1.03s-.27 1.28-.55 2.45c-.23.92-.45 1.77-.54 1.8-.5.27-1.47.17-2.16 0-.07-.02-.15-.04-.13-.09.25-.59.67-2.15 1.11-3.97.53-2.18 1.09-4.74 1.49-6.42.26-1.09.46-1.81.55-1.86.32-.2 1.17-.39 1.85-.22.15.03.43.14.43.18-.07.18-1.19 4.32-1.43 5.34l-.04.17s-.03.09.03.1c.02 0 .06-.03.06-.03s1.26-.93 2.66-.59c2.23.54 1.58 3.39.84 6.44-.24.99-.68 2.47-.67 2.44zm8.12-4.72c-.06-.03-.24-.09-.24-.09-1.91-.36-2.72 1.21-2.74 1.32l-.31 1.64c-.2 1.06-.42 2.24-.48 2.28-.53.35-1.67.21-2.15.12-.08-.01-.15-.03-.14-.08.23-.6.45-1.71.68-2.93.28-1.5.55-3.17.75-4.25.12-.68.23-1.12.29-1.17.31-.21 1.12-.33 1.79-.21.17.03.39.11.38.16-.05.16-.22.87-.31 1.35-.01.03-.08.43-.04.43.02 0 .03.01.08-.02 0 0 1.32-1.3 3.06-.98 0 0 .1.27.02.74-.24 1.25-.66 1.63-.66 1.63zm.8 2.4c.29-2.46 2.06-4.53 5.12-4.16.88.1 2.33.65 2.13 2.33-.19 1.6-1.81 3.15-4.32 3.7-.02.11.33.55 1.31.67.81.09 1.7.05 2.32-.24 0 0 .02-.02.04-.02.04 0 .03.25.02.36-.05.45-.26 1.23-.67 1.64 0 0-.7.36-2.53.14-2.65-.31-3.7-2.23-3.44-4.44zm4.51-2.51c-1.02-.12-2.09.97-2.27 2.47-.03.2-.03.26.04.27.79.07 2.59-.86 2.74-2.13.04-.4-.24-.59-.52-.62zm4.46.4c0-.73.02-1.2.1-1.28.27-.27 1.05-.53 1.73-.52.17 0 .4.04.4.09-.02.15-.06.62-.07.98 0 .3.02.38.05.38.02 0 .05-.04.05-.04s.92-1.19 2.34-1.19c2.38.01 2.42 3.12 2.4 6.37 0 1.25-.07 2.22-.07 2.22 0 .09-.82.37-1.64.37-.36-.01-.62-.1-.62-.1.1-.86.2-2 .2-3.25.01-1.84-.06-3.29-1.11-3.29-1.24-.01-1.58 1.34-1.58 1.34 0-.02.01 1.21.01 2.41-.01 1.05-.03 2.05-.09 2.11-.38.38-1.45.5-1.96.5-.15 0-.28 0-.28-.06.1-.61.14-1.65.15-2.81 0-1.5-.04-3.15-.04-4.27z"/></svg>