<svg xmlns="http://www.w3.org/2000/svg" width="250" height="250" viewBox="0 0 250 250"><path opacity=".15" d="M215.682 169.762l11.965-21.572H200.05c4.77-10.252 7.446-21.672 7.446-33.723 0-44.238-35.86-80.1-80.1-80.1-44.24 0-80.1 35.86-80.1 80.1 0 12.05 2.677 23.47 7.444 33.723H25.354l11.965 21.572-11.97 20.88h21.94v28.99h160.2v-28.99h20.14l-11.96-20.88zm-155.88-12.344l-.46.324.054-.96c.133.214.272.423.406.636z"/><path fill="#F4D382" d="M56.87 144.19H22.353l11.967 21.57-11.966 20.88H54.53m135.6-42.45h34.516l-11.964 21.572 11.964 20.88H192.47"/><path fill="#C59938" d="M44.297 162.25l20.395-14.404 8.33 36.033m131.47-21.63l-20.394-14.41-8.328 36.03"/><circle fill="#DBB48A" cx="124.398" cy="110.467" r="80.1"/><circle fill="#FFF" cx="124.358" cy="171.909" r="34.118"/><path fill="#FFF" d="M168.484 61.8c-.87-2.027-2.188-3.877-2.188-3.877 2.176-19.36-9.838-15.39-9.838-15.39-3.97.69-1.145 3.96-1.145 3.96 11.36 1.984 6.32 10.622 6.32 10.622-9.49-18.983-20.244-.345-20.244-.345 2.53 6.73 6.97 1.035 6.97 1.035 6.05-12.427 13.1 6.73 13.1 6.73-5.35 6.73-4.66-2.417-4.66-2.417-5.64-2.163-3.92 4.142-3.92 4.142 1.24 7.37 12.27.747 12.42.654 18.7 17.946 25.81 41.662 15.73 58.686-8.07 13.613-25.18 19.63-44.35 17.518 1.07-.572 2.13-1.164 3.19-1.79 11.93-7.07 21.2-16.603 27.18-26.997-5.67 6.53-12.77 12.51-21.08 17.44-6.93 4.11-14.09 7.11-21.17 9.06-7.08-1.95-14.24-4.95-21.17-9.05-8.32-4.93-15.42-10.91-21.08-17.43 5.98 10.4 15.24 19.93 27.18 27 1.06.63 2.12 1.22 3.19 1.79-19.17 2.11-36.28-3.9-44.35-17.51-10.09-17.02-2.97-40.74 15.73-58.68.15.1 11.17 6.72 12.42-.65 0 0 1.71-6.3-3.93-4.14 0 0 .69 9.15-4.66 2.42 0 0 7.04-19.15 13.1-6.73 0 0 4.44 5.7 6.97-1.03 0 0-8.89-15.93-19.02-1.89 0 0-.48-9.44 11.49-9.21 0 0 1.96-2.78-2.01-3.47 0 0-17.54-3.63-15.37 15.72 0 0-1.32 1.85-2.19 3.88C57 80.46 47.5 109.86 60.08 131.1c11.66 19.68 38.59 26.09 64.73 17.19 26.14 8.9 53.07 2.49 64.73-17.19 12.58-21.23 3.082-50.63-21.07-69.286z"/><path fill="#D0D2D3" d="M86.584 87.295s-7.09 2.993-12.366-.135c0 0-8.246 1.84-2.06 9.856 0 0 6.18 8.77 9.056 4.71l5.37-14.43z"/><path fill="#919496" d="M81.175 97.695s-7.497-.648-8.11-7.582c0 0-1.146 10.55 8.11 7.582z"/><path fill="#D0D2D3" d="M162.207 87.295s7.09 2.993 12.365-.135c0 0 8.246 1.84 2.06 9.856 0 0-6.18 8.77-9.056 4.71l-5.37-14.43z"/><path fill="#919496" d="M167.615 97.695s7.498-.648 8.11-7.582c0 0 1.148 10.55-8.11 7.582z"/><path fill="#FFF" d="M174.125 111.592c0-20.586-22.28-37.274-49.765-37.274-27.487 0-49.768 16.688-49.768 37.274 0 17.908 16.862 32.857 39.34 36.447 3.374-2.1 7.157-3.28 11.152-3.28 3.867 0 7.533 1.1 10.82 3.08 21.916-3.91 38.22-18.65 38.22-36.26z"/><ellipse fill="#D0D2D3" cx="124.36" cy="111.592" rx="44.291" ry="33.174"/><path fill="#D0D2D3" d="M113.932 148.04c-8.617 5.358-14.562 16.733-14.562 29.9 0 18.32 11.513 33.175 25.714 33.175 14.203 0 25.716-14.854 25.716-33.176 0-13.34-6.1-24.83-14.896-30.1-3.707.66-7.568 1.02-11.545 1.02-3.58 0-7.07-.29-10.43-.83z"/><path fill="#BE1E2D" d="M112.675 115.756s11.43 58.984 23.41.26l-.16-.26-1.78 1.53-1.61.95h-.46l-1.21.173-2.126-.18-2.88-1.99-1.3-1.87-1.01 1.12-.69.74-.78.63-.84.51-.78.49-.81.34-.87.23-1.07-.06-1.15-.38-1.27-.55-1.67-1.18-.84-1.07-.16.51z"/><path fill="#6C6F71" d="M138.848 115.388s-3.295 1.38-3.996-2.416c0 0-.186 1.812.666 2.68-1.363 1.426-6.184 5.578-10.532-1.53l-.49-9.056-.49 1.79v7.267c-5.13 8.38-10.914 1.105-10.914 1.105l-.003.002c.49-.93.35-2.258.35-2.258-.7 3.797-4 2.416-4 2.416 1.67.938 2.65.848 3.22.366v.002c5.79 7 10.36 1.42 11.82-.812 1.44 2.205 5.9 7.652 11.59 1.07.6.21 1.47.097 2.76-.626z"/><path fill="#1D8FCD" d="M124.397 109.508l3.39-4.37s-1.697-3.178-3.433-.072c-1.735-3.105-3.432.072-3.432.072l3.39 4.37v.11l.042-.055.043.056v-.12z"/><path fill="#FFF" d="M123.594 108.033s-.027-2.233-1.148-1.27l1.148 1.27zm1.492 0s.03-2.233 1.15-1.27l-1.15 1.27z"/><path fill="#D0D2D3" d="M82.67 101.663s.91-39.77 35.896-19.923c34.938 19.816-35.896 19.923-35.896 19.923z"/><ellipse fill="#FFF" cx="104.292" cy="95.135" rx="18.892" ry="16.972"/><path fill="#D0D2D3" d="M128.307 81.74S159.1 60.31 165.05 99.176L128.308 81.74z"/><ellipse fill="#FFF" cx="143.879" cy="95.135" rx="18.895" ry="16.972"/><circle fill="#0071BC" cx="108.253" cy="95.135" r="11.491"/><path fill="#0F4481" d="M103.174 99.63c-2.808-3.245-2.453-8.145.79-10.95 3.24-2.804 8.14-2.452 10.95.792 2.804 3.24 2.45 8.144-.792 10.948-3.24 2.806-8.142 2.452-10.948-.79z"/><path fill="#FFF" d="M106.316 97.25c-1.492-1.725-1.304-4.327.42-5.816 1.72-1.49 4.327-1.307 5.82.416 1.49 1.725 1.298 4.332-.424 5.822-1.723 1.49-4.325 1.3-5.816-.422z"/><circle fill="#FFF" cx="100.725" cy="93.481" r="2.009"/><circle fill="#0071BC" cx="139.74" cy="95.135" r="11.491"/><path fill="#0F4481" d="M134.662 99.63c-2.81-3.245-2.455-8.145.787-10.95 3.24-2.804 8.14-2.452 10.95.792 2.8 3.24 2.45 8.144-.79 10.948-3.24 2.806-8.15 2.452-10.95-.79z"/><path fill="#FFF" d="M137.8 97.25c-1.49-1.725-1.302-4.327.42-5.816 1.722-1.49 4.33-1.307 5.82.416 1.49 1.725 1.3 4.332-.423 5.822-1.72 1.49-4.324 1.3-5.816-.422z"/><circle fill="#FFF" cx="132.213" cy="93.481" r="2.009"/><path fill="#A6A8AB" d="M113.56 128.215s11.438 34.805 21.676-.746c0 0-3.2 16.41-10.25 16.68 0 0-5.607 1.6-11.426-15.94z"/><path fill="#EF4B4D" d="M119.36 128.215s5.9-6.267 5.48 5.928c0 0 .1-10.584 6.052-6.674 0 0-5.78 24.27-11.532.74z"/><path fill="#A6A8AB" d="M87.49 63.76s-1.552-1.985-3.624 0c0 0 1.813-3.02 3.625 0zm74.717.517s3.795-3.186 4.668.95c0 0 .242-5.178-4.668-.95z"/><path fill="#FFF800" d="M124.99 35.672l2.912 8.963h9.424l-7.623 5.54 2.91 8.963-7.624-5.54-7.63 5.54 2.91-8.964-7.63-5.54h9.42m-8.52 12.698l1.72 5.31h5.58l-4.52 3.283 1.72 5.31-4.52-3.28-4.52 3.28 1.72-5.31-4.52-3.283h5.58m24.96-5.31l1.72 5.31h5.58l-4.52 3.283 1.72 5.31-4.52-3.28-4.52 3.28 1.73-5.31-4.52-3.283H135"/><path fill="#E2BC44" d="M44.297 162.25h160.2v53.383h-160.2z"/><path d="M488.018 360.22c0 .695-.295 1.324-.883 1.89-.588.562-1.23.845-1.926.845h-12.35c-.7 0-1.33-.282-1.89-.846-.57-.57-.85-1.2-.85-1.89V335.2c0-.695.28-1.325.84-1.89.56-.563 1.19-.846 1.89-.846h15.55l-1.26 5.507h-8.97v19.48h1.69v-12.89H488v15.66zm21.918 2.734h-8.387l-4-11.805h-.18v11.8h-8.07v-30.48h15.8c.69 0 1.32.28 1.89.84.56.56.84 1.19.84 1.89v13.21c0 .55-.19 1.07-.58 1.56-.39.49-.84.83-1.37 1.02l4.03 11.95zm-9.466-17.348v-7.63h-3.096v7.63h3.096zm33.47 17.348h-8.24l-.47-2.124-.07-.07h-5.184c0 .022-.168.755-.504 2.194h-8.242l5.867-24.98 1.347-5.506h8.3l7.197 30.486zm-10.04-7.702l-1.332-5.507-1.296 5.507h2.628zm25.84 7.702h-11.768c-.696 0-1.326-.282-1.89-.846-.564-.564-.846-1.193-.846-1.89v-25.015c0-.695.28-1.325.845-1.89.57-.563 1.2-.846 1.9-.846h11.77v5.507h-6.4v19.472h6.41v5.508zm9.43 0h-8.133V332.47h8.134v30.484zm24.008 0h-8.242l-.47-2.124-.07-.07h-5.183c0 .022-.17.755-.504 2.194h-8.25l5.86-24.98 1.35-5.506h8.3l7.19 30.486zm-10.042-7.702l-1.332-5.507-1.295 5.507h2.62zm26.814-17.276h-7.99v6.118h4.246c.696 0 1.332.282 1.908.847.575.57.863 1.2.863 1.89v13.39c0 .7-.288 1.33-.863 1.89-.576.57-1.212.85-1.908.85H584.51l-1.297-5.5h7.666v-7.85h-4.25c-.7 0-1.33-.28-1.89-.86-.57-.57-.85-1.21-.85-1.9v-11.63c0-.69.28-1.32.84-1.89.56-.56 1.19-.84 1.89-.84h14.1l-.79 5.51zm11.803-5.506l-2.087 20.838h-6.37l-2.052-20.84h10.51zm-1.223 30.484h-8.1v-8.278h8.1v8.278zM87.03 205.85c0 .9-.37 1.713-1.115 2.44s-1.566 1.094-2.465 1.094H62.336v-39.39H83.45c.9 0 1.72.363 2.465 1.092s1.116 1.543 1.116 2.44v32.324zm-10.51-3.58v-25.16h-3.766v25.16h3.767zm41.53 7.114H107.4l-.604-2.744-.093-.093h-6.697c0 .03-.217.977-.65 2.837h-10.65l9.203-39.39h10.84l9.3 39.39zm-12.975-9.952l-1.72-7.115-1.675 7.115h3.395zm39.39 9.952h-10.51v-31.996h-3.768v31.996h-10.464v-39.39h10.464v2.603c.248-.713.697-1.326 1.35-1.838.65-.52 1.348-.77 2.092-.77h7.25c.9 0 1.72.36 2.46 1.09s1.11 1.54 1.11 2.44v35.86zm25.532 0h-10.464V193.34l-2.93-2.466v18.51h-10.465v-39.39h10.465v7.16l4.65-7.16h8.51l-8.23 12.648 8.464 7.022v19.72zm18.65-7.114l.853 7.114h-17.83v-39.39h17.83l-.854 7.114h-6.465v7.906h6.24v7.115h-6.23v10.13h6.47z" fill="#FFF"/></svg>