<?xml version="1.0" encoding="utf-8"?>
<!-- Generator: Adobe Illustrator 16.0.0, SVG Export Plug-In . SVG Version: 6.00 Build 0)  -->
<!DOCTYPE svg PUBLIC "-//W3C//DTD SVG 1.1//EN" "http://www.w3.org/Graphics/SVG/1.1/DTD/svg11.dtd">
<svg version="1.1" id="Layer_1" xmlns="http://www.w3.org/2000/svg" xmlns:xlink="http://www.w3.org/1999/xlink" x="0px" y="0px"
	 width="250px" height="250px" viewBox="0 0 250 250" enable-background="new 0 0 250 250" xml:space="preserve">
<path opacity="0.15" fill="#231F20" enable-background="new    " d="M136.721,222.723c-1.831,0-3.77-0.052-5.765-0.156
	c-11.638-0.603-19.333-2.3-23.943-5.375c-0.707-0.003-1.408-0.012-2.103-0.025h-0.124c-2.705,0-5.455-0.153-8.175-0.459
	c-0.916-0.084-1.855-0.185-2.8-0.301c-0.813,0.049-1.646,0.072-2.487,0.072c-0.561,0-1.126-0.011-1.692-0.03l-0.21-0.008
	c-0.786-0.031-1.623-0.084-2.462-0.156l-0.227-0.021c-2.246-0.2-4.694-0.553-7.421-1.072l-0.201-0.039
	c-3.1-0.597-6.042-1.302-8.891-1.984c-0.85-0.204-1.686-0.404-2.502-0.596c-0.447-0.104-1.724-0.395-1.724-0.395
	c-0.476-0.106-0.93-0.204-1.376-0.296l-0.309-0.063c-0.468-0.096-0.921-0.181-1.365-0.26l-0.218-0.037
	c-0.459-0.078-0.857-0.139-1.244-0.189l-0.142-0.017c-0.381-0.047-0.726-0.085-1.055-0.107c-0.626-0.042-1.22-0.09-1.791-0.142
	c-0.168-0.017-0.643-0.066-0.643-0.066c-0.336-0.033-0.694-0.071-1.029-0.111c-0.233-0.028-0.438-0.057-0.643-0.086l-0.121-0.017
	c-0.268-0.036-0.562-0.077-0.838-0.121c-0.284-0.045-0.535-0.09-0.785-0.135c-0.254-0.047-0.504-0.092-0.742-0.141
	c-0.276-0.056-0.538-0.115-0.796-0.175c-0.249-0.059-0.477-0.114-0.697-0.173c-0.26-0.066-0.547-0.146-0.823-0.229
	c-0.191-0.058-0.413-0.129-0.631-0.203c-0.237-0.078-0.532-0.18-0.809-0.286c-0.208-0.08-0.371-0.147-0.535-0.217
	c-0.332-0.142-0.635-0.274-0.915-0.412c-0.153-0.074-0.311-0.159-0.469-0.246c-0.285-0.149-0.631-0.344-0.948-0.544l-0.193-0.122
	l-0.079-0.057c-1.709-1.14-3.063-2.591-4.029-4.314l-0.044-0.072l-0.121-0.227c-0.224-0.43-0.411-0.844-0.585-1.293l-0.096-0.251
	c-0.152-0.42-0.288-0.863-0.402-1.318l-0.033-0.133c-0.07-0.292-0.132-0.595-0.186-0.902l-0.037-0.156l-0.045-0.379
	c-0.098-0.719-0.148-1.409-0.155-2.107c-0.075-7.501,7.128-10.466,12.387-12.632c1.568-0.644,4.034-1.659,5.227-2.421
	c0.054-0.354,0.119-0.842,0.192-1.502c-11.568-15.415-17.906-34.352-17.906-53.688c0.002-49.325,40.13-89.453,89.452-89.453
	c49.323,0,89.45,40.127,89.45,89.45c0,25.139-10.39,48.631-28.395,65.396c1.483,0.957,2.834,2.274,3.748,4.092
	c1.563,3.103,1.345,6.707-0.599,9.889c-4.993,8.173-22.791,10.851-33.622,11.248C157.16,219.938,150.015,222.723,136.721,222.723z"
	/>
<path fill="#FFFFFF" d="M132.53,219.318c-1.828,0-3.769-0.052-5.763-0.155c-11.638-0.603-19.333-2.301-23.944-5.376
	c-0.707-0.001-1.407-0.011-2.103-0.024h-0.124c-2.704,0-5.454-0.154-8.174-0.458c-0.916-0.086-1.855-0.187-2.8-0.303
	c-0.813,0.049-1.646,0.073-2.487,0.073c-0.562,0-1.126-0.011-1.692-0.031l-0.21-0.008c-0.786-0.031-1.623-0.083-2.462-0.155
	l-0.227-0.021c-2.246-0.2-4.694-0.554-7.421-1.072l-0.202-0.039c-3.099-0.598-6.042-1.303-8.89-1.984
	c-0.85-0.204-1.686-0.405-2.502-0.595c-0.447-0.106-1.724-0.396-1.724-0.396c-0.476-0.105-0.93-0.203-1.376-0.295l-0.309-0.063
	c-0.468-0.094-0.922-0.18-1.365-0.258l-0.218-0.038c-0.459-0.078-0.858-0.14-1.244-0.189l-0.142-0.017
	c-0.381-0.048-0.727-0.084-1.055-0.107c-0.626-0.043-1.22-0.09-1.791-0.143c-0.168-0.016-0.644-0.066-0.644-0.066
	c-0.336-0.033-0.693-0.071-1.029-0.111c-0.233-0.028-0.438-0.057-0.643-0.085l-0.121-0.017c-0.268-0.036-0.562-0.078-0.838-0.121
	c-0.284-0.045-0.535-0.089-0.786-0.135c-0.253-0.046-0.504-0.093-0.742-0.142c-0.276-0.055-0.538-0.114-0.796-0.173
	c-0.248-0.059-0.477-0.115-0.697-0.174c-0.26-0.066-0.547-0.147-0.823-0.229c-0.19-0.056-0.413-0.129-0.631-0.202
	c-0.237-0.078-0.532-0.181-0.808-0.286c-0.208-0.081-0.372-0.147-0.535-0.218c-0.332-0.141-0.635-0.274-0.915-0.411
	c-0.153-0.075-0.311-0.159-0.469-0.246c-0.285-0.15-0.631-0.344-0.947-0.544l-0.193-0.122l-0.08-0.057
	c-1.709-1.141-3.063-2.591-4.029-4.313l-0.044-0.072l-0.121-0.228c-0.224-0.43-0.411-0.845-0.585-1.293l-0.094-0.253
	c-0.152-0.421-0.288-0.864-0.401-1.319l-0.033-0.132c-0.07-0.293-0.132-0.596-0.185-0.902l-0.037-0.156l-0.045-0.38
	c-0.098-0.719-0.147-1.408-0.155-2.107c-0.075-7.502,7.127-10.467,12.387-12.631c1.568-0.645,4.034-1.66,5.226-2.421
	c0.054-0.356,0.119-0.843,0.192-1.504c-11.568-15.414-17.906-34.351-17.906-53.688c0-49.323,40.127-89.45,89.451-89.45
	c49.322,0,89.449,40.127,89.449,89.45c0,25.14-10.391,48.631-28.395,65.396c1.483,0.957,2.833,2.274,3.748,4.09
	c1.562,3.104,1.344,6.709-0.6,9.89c-4.993,8.174-22.79,10.851-33.622,11.249C152.972,216.535,145.826,219.318,132.53,219.318z"/>
<g id="Layer_2">
</g>
<circle fill="#FFAC27" cx="126.229" cy="122.925" r="81.594"/>
<circle fill="#F29F27" cx="126.229" cy="122.925" r="53.353"/>
<path fill="#FFF5D9" d="M87.223,116.598c0,0-19.055,0.111-19.31,6.788c-0.101,2.658-2.662,7.183-0.57,15.284
	s8.428-9.573,8.428-9.573L87.223,116.598z"/>
<g>
	<path fill="#FFFFFF" d="M85.323,78.973l-3.489-15.194l2.379-1.65l12.992,8.594l-2.524,1.762l-1.979-1.329l-5.392,3.74l0.552,2.317
		L85.323,78.973z M85.286,66.082l1.326,5.774l3.569-2.475L85.286,66.082z"/>
	<path fill="#FFFFFF" d="M96.869,55.308l4.165,11.011l7.22-2.73l0.956,2.527l-9.928,3.755l-5.12-13.54L96.869,55.308z"/>
	<path fill="#FFFFFF" d="M112.473,50.758l1.655,11.655l7.643-1.084l0.38,2.675l-10.509,1.491l-2.034-14.33L112.473,50.758z"/>
	<path fill="#FFFFFF" d="M142.232,52.094c0.662,0.458,1.248,1.068,1.754,1.823l-2.271,1.517c-0.479-0.881-1.289-1.436-2.424-1.66
		c-1.136-0.226-1.915-0.102-2.338,0.373c-0.42,0.475-0.512,0.931-0.272,1.373c0.241,0.441,0.91,0.87,2.008,1.283
		c1.174,0.363,2.185,0.975,3.031,1.831c0.845,0.856,1.125,2.01,0.837,3.462c-0.226,1.136-0.941,2.01-2.148,2.624
		c-1.208,0.613-2.505,0.783-3.893,0.508c-1.318-0.262-2.383-0.67-3.192-1.223c-0.807-0.555-1.464-1.21-1.971-1.965l2.269-1.519
		c0.48,0.883,1.466,1.537,2.957,1.964c1.261,0.25,2.102,0.138,2.521-0.336c0.417-0.474,0.524-1.01,0.317-1.609
		c-0.206-0.597-0.927-1.084-2.163-1.462c-1.111-0.352-2.084-0.905-2.918-1.66c-0.834-0.756-1.112-1.827-0.837-3.216
		c0.249-1.256,0.987-2.158,2.215-2.704c1.226-0.548,2.405-0.708,3.544-0.483C140.577,51.273,141.568,51.634,142.232,52.094z"/>
	<path fill="#FFFFFF" d="M146.398,65.551c-0.666-1.842-0.563-3.692,0.304-5.552c0.871-1.864,2.228-3.131,4.065-3.799
		c1.838-0.667,3.689-0.564,5.555,0.306c1.866,0.871,3.131,2.227,3.799,4.065c0.669,1.839,0.566,3.69-0.306,5.556
		c-0.87,1.865-2.227,3.131-4.064,3.798c-1.84,0.668-3.69,0.565-5.555-0.306C148.33,68.748,147.064,67.392,146.398,65.551z
		 M151.347,67.176c1.161,0.542,2.287,0.589,3.385,0.143c1.097-0.447,1.915-1.251,2.462-2.418c0.543-1.166,0.638-2.312,0.275-3.439
		c-0.361-1.127-1.128-1.964-2.299-2.512c-1.16-0.542-2.287-0.589-3.385-0.143c-1.099,0.446-1.916,1.252-2.46,2.418
		c-0.545,1.166-0.638,2.313-0.276,3.439C149.41,65.792,150.177,66.629,151.347,67.176z"/>
	<path fill="#FFFFFF" d="M169.898,64.55l-5.415,6.417c-0.706,0.835-0.979,1.658-0.817,2.466c0.16,0.808,0.607,1.523,1.345,2.145
		c0.74,0.622,1.52,0.944,2.341,0.965c0.824,0.021,1.587-0.386,2.294-1.222l5.413-6.416l2.214,1.867l-5.91,7.006
		c-0.954,1.131-2.218,1.706-3.79,1.726c-1.574,0.019-3.049-0.552-4.425-1.713c-1.378-1.162-2.189-2.52-2.436-4.074
		c-0.245-1.554,0.109-2.897,1.063-4.028l5.911-7.007L169.898,64.55z"/>
	<path fill="#FFFFFF" d="M183.472,77.99l-9.493,6.959l4.564,6.226l-2.179,1.597l-6.275-8.56l11.673-8.559L183.472,77.99z"/>
	<path fill="#FFFFFF" d="M193.549,96.48c0.003,0.807-0.161,1.634-0.492,2.481l-2.543-0.992c0.448-0.9,0.439-1.88-0.024-2.939
		c-0.467-1.061-1.014-1.628-1.644-1.703c-0.632-0.075-1.06,0.113-1.282,0.562c-0.226,0.45-0.192,1.244,0.097,2.382
		c0.375,1.171,0.453,2.349,0.233,3.534c-0.218,1.184-1.004,2.074-2.359,2.669c-1.061,0.465-2.187,0.378-3.38-0.26
		s-2.076-1.606-2.644-2.901c-0.541-1.232-0.814-2.336-0.825-3.317c-0.01-0.979,0.152-1.893,0.483-2.742l2.545,0.992
		c-0.448,0.899-0.422,2.082,0.08,3.547c0.517,1.178,1.091,1.804,1.719,1.875c0.628,0.072,1.13-0.148,1.501-0.659
		c0.373-0.511,0.359-1.383-0.04-2.612c-0.347-1.112-0.45-2.225-0.309-3.342c0.142-1.116,0.859-1.959,2.156-2.528
		c1.172-0.514,2.335-0.426,3.484,0.267c1.15,0.693,1.959,1.569,2.424,2.63C193.275,94.653,193.546,95.673,193.549,96.48z"/>
	<path fill="#FFFFFF" d="M184.202,113.678l14.461-0.808l0.313,5.567c0.251,4.497-2.036,6.88-6.859,7.149
		c-4.816,0.271-7.352-1.844-7.603-6.339L184.202,113.678z M187.394,119.086c0.148,2.563,1.671,3.766,4.562,3.61
		c2.89-0.167,4.263-1.533,4.119-4.096l-0.149-2.678l-8.682,0.486L187.394,119.086z"/>
	<path fill="#FFFFFF" d="M184.94,128.34l12.99,8.616l-0.588,2.836l-15.341,2.711l0.619-3.015l2.35-0.4l1.337-6.424l-1.998-1.303
		L184.94,128.34z M193.842,137.664l-4.936-3.276l-0.886,4.253L193.842,137.664z"/>
	<path fill="#FFFFFF" d="M194.522,150.229l-1.518,3.038l-5.731,0.89l2.696,5.188l-1.484,2.969l-4.104-7.98l-6.474-3.235l1.293-2.589
		l6.474,3.233L194.522,150.229z"/>
</g>
<path fill="#FFF5D9" d="M135.673,123.533l-64.513,0.649l0.732,72.788l-0.215-24.337c-0.015,0.113,0.215,24.565,0.216,24.684
	c0.05,4.872,14.593,8.791,32.479,8.611c17.887-0.18,32.084-4.271,32.036-9.145c-0.001-0.155-0.263-24.646-0.293-24.8l0.045-0.001
	L135.673,123.533z"/>
<path fill="#E2D3A3" d="M135.674,123.665c0.05,4.871-14.148,8.964-32.035,9.144c-17.887,0.181-32.431-3.738-32.479-8.611
	c-0.05-4.869,14.415-8.851,32.302-9.031C121.347,114.986,135.625,118.792,135.674,123.665z"/>
<path fill="#F1EA2F" d="M89.012,103.866c0,0-2.746,11.87,13.319,11.425c13.061-0.362,12.147-11.848,12.147-11.848l-10.84-15.154
	L89.012,103.866z"/>
<linearGradient id="SVGID_1_" gradientUnits="userSpaceOnUse" x1="286.5449" y1="-443.7378" x2="286.5449" y2="-420.2349" gradientTransform="matrix(0.9963 -0.0866 -0.0866 -0.9963 -223.3731 -328.6448)">
	<stop  offset="0" style="stop-color:#F1EA2F"/>
	<stop  offset="0.3548" style="stop-color:#F1EA2F;stop-opacity:0.6452"/>
	<stop  offset="1" style="stop-color:#F1EA2F;stop-opacity:0"/>
</linearGradient>
<path fill="url(#SVGID_1_)" d="M100.91,98.411c5.458-0.474,10.471,1.563,13.567,5.033c0.789-12.3-4.604-30.763-12.811-30.289
	c-8.061,0.466-10.48,17.802-12.612,29.738c-0.136,0.77-0.201,1.486-0.203,2.156C91.388,101.439,95.762,98.859,100.91,98.411z"/>
<g>
	<path fill="#564E4D" d="M102.962,126.822c-0.944,0.082-1.804-0.58-1.956-1.529c-0.06-0.382-1.484-9.47-0.627-16.541
		c0.12-0.998,1.027-1.709,2.027-1.589c0.999,0.121,1.71,1.028,1.59,2.026c-0.795,6.57,0.596,15.442,0.609,15.529
		c0.159,0.994-0.518,1.929-1.512,2.086C103.048,126.813,103.004,126.817,102.962,126.822z"/>
</g>
<path fill="#E2D3A3" d="M106.566,145.11c0,0-8.512,1.051-9.248,7.972c-0.735,6.923,3.244,50.785-8.646,51.711
	c0,0,12.731,2.766,24.6-0.411c11.868-3.175,3.463-39.434,3.463-39.434L106.566,145.11z"/>
<path fill="#FFF5D9" d="M164.905,149.836l-64.513,0.649l0.487,48.449h0.03c-0.015,0.114-0.03,0.228-0.028,0.347
	c0.048,4.871,14.592,8.79,32.479,8.61c17.887-0.181,32.086-4.272,32.036-9.145c-0.002-0.155-0.018-0.308-0.05-0.46l0.045-0.001
	L164.905,149.836L164.905,149.836z"/>
<g>
	<path fill="#E2D3A3" d="M164.906,149.968c0.049,4.87-14.148,8.963-32.035,9.144c-17.887,0.18-32.431-3.74-32.48-8.61
		c-0.049-4.87,14.415-8.852,32.302-9.032C150.58,141.29,164.856,145.096,164.906,149.968z"/>
</g>
<g>
	<path fill="#F1EA2F" d="M117.016,128.918c0,0-3.267,16.876,19.356,15.43c18.396-1.176,16.521-17.324,16.521-17.324l-16.054-20.809
		L117.016,128.918z"/>
</g>
<linearGradient id="SVGID_2_" gradientUnits="userSpaceOnUse" x1="287.8945" y1="-449.8125" x2="287.8945" y2="-426.7202" gradientTransform="matrix(0.9924 -0.1225 -0.1225 -0.9924 -208.7083 -307.4349)">
	<stop  offset="0" style="stop-color:#F1EA2F"/>
	<stop  offset="0.3333" style="stop-color:#F1EA2F;stop-opacity:0.6452"/>
	<stop  offset="1" style="stop-color:#F1EA2F;stop-opacity:0"/>
</linearGradient>
<path fill="url(#SVGID_2_)" d="M133.514,120.622c7.67-0.946,14.839,1.67,19.382,6.402c0.483-17.379-8.056-43.129-19.603-42.045
	c-11.341,1.064-13.868,25.629-16.267,42.564c-0.155,1.09-0.209,2.103-0.178,3.05C120.242,125.375,126.274,121.515,133.514,120.622z"
	/>
<g>
	<path fill="#564E4D" d="M133.873,153.828c-0.081,0-0.164-0.003-0.247-0.013c-1.152-0.124-1.987-1.159-1.863-2.311
		c0.009-0.086,0.915-8.798-0.356-16.756c-0.183-1.145,0.595-2.22,1.739-2.404c1.144-0.185,2.224,0.597,2.406,1.743
		c1.363,8.524,0.426,17.486,0.385,17.864C135.821,153.022,134.922,153.817,133.873,153.828z"/>
</g>
<path fill="#E2D3A3" d="M89.142,131.534c0,0,8.398,35.535,9.441,43.245c1.042,7.708-2.208,20.446-2.208,20.446
	s-8.883-19.813-9.04-23.429C87.179,168.179,89.142,131.534,89.142,131.534z"/>
<path fill="#FFF5D9" d="M70.401,122.878c-7.891,6.954-6.174,53.614-8.774,58.947c-2.6,5.332-16.937,6.923-16.893,11.265
	c0.044,4.343,2.475,6.247,11.889,6.876c9.414,0.631,26.132,7.939,38.396,4.197c4.953-1.512,1.522-10.563-0.834-22.906
	c-3.475-18.222-7.711-42.276-4.472-48.924c0,0-4.133-3.257-7.757-3.702C78.334,128.186,73.738,119.937,70.401,122.878z"/>
<path fill="#E2D3A3" d="M59.127,197.168c-7.989,0.409-12.16-1.281-14.302-2.894c0.494,3.509,3.292,5.122,11.797,5.69
	c8.192,0.547,21.914,6.151,33.42,5.132c3.372-1.195,2.662-3.203,2.662-3.203C78.264,205.055,59.127,197.168,59.127,197.168z"/>
<path fill="#FFF5D9" d="M165.023,185.126c0,0,0.561,7.714,13.836,8.545c0,0,7.241,0.65,4.869,4.534
	c-2.373,3.883-16.326,7.643-30.317,7.543c0,0-2.827,6.781-26.238,5.569c-23.411-1.211-21.778-6.775-21.778-6.775l-4.515-5.263"/>
<path fill="#E2D3A3" d="M146.533,193.514c0,0,2.099-7.258,1.749-18.108c0,0,1.899,20.966,5.032,20.694l-1.162,4.354
	C152.151,200.454,150.673,197.332,146.533,193.514z"/>
<path fill="#E2D3A3" d="M111.791,168.775c0,0-1.745,17.271-3.163,21.383c-0.836,2.424-1.578,10.987,8.045,8.479
	c0,0-8.21-0.881-5.386-7.904C114.11,183.71,111.791,168.775,111.791,168.775z"/>
<path fill="#E2D3A3" d="M147.041,158.068c0,0,2.638,0.257,2.177,2.373c0,0,1.403-2.018,4.427-3.542
	c2.521-1.273-4.893-2.686-4.893-2.686L147.041,158.068z"/>
<path fill="#FFF5D9" d="M100.598,183.241c0,0-4.816,12.833-7.689,15.034c-2.873,2.198,4.271,4.901,12.102,4.1
	C112.844,201.571,100.598,183.241,100.598,183.241z"/>
<g id="Layer_2_1_">
</g>
</svg>
