<?xml version="1.0" encoding="utf-8"?>
<!-- Generator: Adobe Illustrator 16.0.0, SVG Export Plug-In . SVG Version: 6.00 Build 0)  -->
<!DOCTYPE svg PUBLIC "-//W3C//DTD SVG 1.1//EN" "http://www.w3.org/Graphics/SVG/1.1/DTD/svg11.dtd">
<svg version="1.1" id="Layer_1" xmlns="http://www.w3.org/2000/svg" xmlns:xlink="http://www.w3.org/1999/xlink" x="0px" y="0px"
	 width="250px" height="250px" viewBox="0 0 250 250" enable-background="new 0 0 250 250" xml:space="preserve">
<path opacity="0.15" fill="#231F20" enable-background="new    " d="M225.272,110.898c-0.04-0.159-0.095-0.358-0.172-0.615
	c-0.065-0.219-0.147-0.46-0.239-0.721c-0.014-0.043-0.186-0.499-0.259-0.686c-0.196-0.505-0.432-0.991-0.66-1.385
	c-0.508-0.89-1.173-1.667-1.971-2.298c0.879-1.66,1.105-3.565,0.64-5.416c-0.079-0.316-0.182-0.644-0.343-1.098
	c-0.108-0.307-0.252-0.685-0.427-1.127c-0.157-0.396-0.34-0.83-0.54-1.295c-0.22-0.518-0.462-1.048-0.726-1.589
	c-0.586-1.206-1.476-2.167-2.534-2.85c0.402-1.737,0.196-3.583-0.68-5.22c-0.083-0.152-0.213-0.385-0.398-0.691
	c-0.145-0.236-0.306-0.49-0.479-0.75c-0.145-0.218-0.296-0.443-0.443-0.655c-0.228-0.331-0.439-0.617-0.634-0.861
	c-1.429-1.826-3.543-2.869-5.829-2.869c-0.99,0-1.973,0.214-2.854,0.588c0.092-0.383,0.171-0.768,0.23-1.153
	c0.257-1.672,0.217-3.357-0.117-5.017c-0.289-1.431-0.777-2.846-1.445-4.204c-0.601-1.221-1.347-2.421-2.224-3.574
	c-0.769-1.009-1.619-1.995-2.528-2.934c-1.022-1.053-2.108-2.065-3.233-3.015c-1.071-0.904-2.173-1.77-3.272-2.575
	c-1.258-0.923-2.726-1.371-4.182-1.371c-1.652,0-3.284,0.585-4.588,1.698c0.014-0.036,0.03-0.07,0.045-0.106
	c0.246-0.655,0.428-1.343,0.543-2.045c0.023-0.151,0.042-0.305,0.058-0.458c0.072-0.773,0.043-1.538-0.1-2.322
	c-0.402-2.125-1.729-3.977-3.645-5.08c-0.165-0.096-0.407-0.226-0.716-0.375c-0.254-0.125-0.555-0.259-0.922-0.41
	c-0.276-0.112-0.575-0.224-0.92-0.346c-0.345-0.121-0.689-0.23-1.03-0.328c-0.106-0.031-0.217-0.06-0.325-0.085
	c-0.565-0.134-1.146-0.201-1.721-0.201c-0.359,0-0.714,0.034-1.063,0.083c-0.135-0.116-0.272-0.228-0.415-0.334
	c-0.696-0.523-1.469-1.035-2.303-1.528c-0.868-0.511-1.723-0.948-2.542-1.297c-1.271-0.542-2.598-0.951-3.947-1.215
	c-0.922-0.179-1.849-0.269-2.757-0.269c-0.309,0-0.617,0.017-0.925,0.038c-1.015-1.39-2.521-2.417-4.333-2.823
	c-0.052-0.011-0.104-0.021-0.155-0.033c-0.935-0.187-1.831-0.371-2.695-0.554c-0.854-0.181-1.636-0.35-2.345-0.508l-5.247-1.174
	c-0.709-0.158-1.481-0.336-2.331-0.537c-0.844-0.199-1.726-0.413-2.646-0.64c-0.048-0.012-0.097-0.023-0.146-0.034
	c-0.547-0.124-1.104-0.185-1.658-0.185c-0.62,0-1.223,0.078-1.801,0.222c-1.1-0.68-2.366-1.066-3.699-1.095
	c-0.125-0.002-0.252-0.004-0.378-0.004c-0.414,0-0.839,0.017-1.267,0.049c-0.401,0.031-0.739,0.065-1.016,0.1
	c-1.854,0.192-3.48,1.037-4.65,2.303c-0.176-0.226-0.333-0.416-0.478-0.58c-1.362-1.547-3.341-2.463-5.459-2.511
	c-0.042-0.001-0.157-0.002-0.202-0.002c-0.132,0-0.322,0.002-0.587,0.009c-0.285,0.007-0.6,0.021-0.943,0.039
	c-0.326,0.018-0.648,0.04-0.964,0.063c-0.473,0.036-0.888,0.083-1.268,0.145c-0.211,0.034-0.421,0.079-0.629,0.132
	c-0.853,0.219-1.633,0.574-2.327,1.034c-0.724-0.227-1.494-0.354-2.296-0.354c-0.326,0-0.657,0.02-0.978,0.06
	c-0.157,0.02-0.518,0.074-1.06,0.186c-0.314,0.064-0.703,0.151-1.177,0.261c-0.467,0.109-1.003,0.246-1.61,0.41
	c-0.593,0.162-1.218,0.346-1.875,0.555c-1.621,0.511-2.928,1.56-3.793,2.889c-1.359-1.154-3.063-1.792-4.872-1.792
	c-0.669,0-1.336,0.089-2.015,0.274c-0.168,0.046-0.426,0.123-0.737,0.23c-0.27,0.089-0.56,0.193-0.856,0.308
	c-0.235,0.089-0.479,0.185-0.753,0.296c-0.357,0.145-0.669,0.282-0.936,0.41c-2.237,1.056-3.729,3.067-4.157,5.329
	c-0.415-0.295-0.85-0.563-1.323-0.772c-0.959-0.425-1.978-0.639-3.027-0.639c-0.545,0-1.092,0.059-1.628,0.178
	c-0.853,0.184-1.743,0.43-2.646,0.729c-0.956,0.319-1.849,0.678-2.662,1.071c-1.247,0.606-2.424,1.338-3.5,2.177
	c-1.359,1.06-2.484,2.311-3.342,3.712c-1.007,1.643-1.593,3.462-1.743,5.407c-0.16,2.082,0.272,4.196,1.284,6.284
	c0.504,1.04,1.123,1.952,1.825,2.758c-0.85,0.127-1.686,0.403-2.466,0.851l-0.717,0.411c-0.801,0.458-1.483,1.055-2.029,1.743
	l-4.522-4.979c-1.456-1.602-3.502-2.521-5.617-2.521c-1.875,0-3.692,0.712-5.123,2.012c-0.116,0.105-0.372,0.352-0.753,0.758
	c-0.219,0.234-0.489,0.53-0.817,0.898c-0.318,0.358-0.677,0.777-1.071,1.254c-0.392,0.475-0.796,0.985-1.213,1.533
	c-1.632,2.141-1.857,4.93-0.8,7.239c-0.536-0.12-1.084-0.185-1.64-0.185c-2.455,0-4.699,1.172-6.141,3.193
	c-0.093,0.129-0.294,0.429-0.592,0.923c-0.166,0.276-0.368,0.624-0.604,1.041c-0.237,0.42-0.499,0.907-0.792,1.473
	c-0.281,0.544-0.567,1.127-0.858,1.75c-1.059,2.263-0.816,4.815,0.441,6.797c-3.03,0.183-5.637,2.064-6.689,4.891
	c-0.012,0.033-0.024,0.066-0.036,0.099c-0.052,0.147-0.13,0.377-0.233,0.718c-0.077,0.255-0.157,0.535-0.239,0.853
	c-0.061,0.24-0.123,0.486-0.186,0.747c-0.092,0.381-0.163,0.721-0.215,1.017c-0.643,3.547,1.287,7.001,4.635,8.263
	c0.184,0.069,0.369,0.132,0.559,0.185l12.355,11.481c0.417,0.387,0.886,0.72,1.389,1.003c-0.15,1.13-0.279,2.268-0.368,3.395
	l-0.043,0.604c-0.038,0.553-0.07,1.106-0.097,1.719l-0.023,0.561c-0.024,0.728-0.04,1.456-0.04,2.19v82.37
	c0,3.911,3.171,7.081,7.081,7.081h32.562c0.061,0,108.44-0.003,108.44-0.003c3.911,0,7.08-3.171,7.08-7.08v-82.368
	c0-0.803-0.019-1.599-0.049-2.391l-0.027-0.648c-0.034-0.713-0.076-1.423-0.134-2.131l-0.021-0.288
	c-0.063-0.751-0.145-1.499-0.232-2.229c-0.035-0.283-0.071-0.565-0.107-0.843c-0.055-0.408-0.117-0.811-0.18-1.213l5.564-1.417
	l8.973,2.662c0.299,0.088,0.601,0.157,0.907,0.205c0.433,0.077,0.905,0.122,1.33,0.122c0.586,0,1.235-0.082,1.802-0.226
	c1.895-0.478,3.48-1.665,4.47-3.339C225.492,114.817,225.767,112.83,225.272,110.898z M179.556,65.63
	c1.042-0.544,2.003-1.23,2.859-2.042c0.057-0.055,0.109-0.113,0.165-0.169c-0.139,0.52-0.221,1.057-0.24,1.599l-8.848,8.58
	c-0.66-0.486-1.318-0.974-1.998-1.44c0.897-1.002,1.651-2.185,2.227-3.536c0.231-0.542,0.418-1.084,0.566-1.628
	c0.568-0.018,1.136-0.065,1.688-0.161C177.241,66.616,178.448,66.21,179.556,65.63z"/>
<path fill="#FFFFFF" d="M224.06,106.869c-0.04-0.159-0.095-0.357-0.172-0.615c-0.066-0.219-0.148-0.459-0.24-0.721
	c-0.015-0.043-0.185-0.498-0.259-0.685c-0.196-0.505-0.431-0.991-0.66-1.385c-0.508-0.889-1.173-1.666-1.971-2.297
	c0.879-1.66,1.106-3.566,0.64-5.416c-0.08-0.316-0.182-0.644-0.343-1.098c-0.108-0.307-0.252-0.685-0.427-1.128
	c-0.156-0.395-0.339-0.83-0.539-1.295c-0.221-0.518-0.463-1.048-0.726-1.589c-0.586-1.206-1.476-2.167-2.534-2.849
	c0.402-1.738,0.197-3.584-0.681-5.22c-0.082-0.152-0.213-0.385-0.397-0.691c-0.146-0.236-0.306-0.49-0.479-0.749
	c-0.145-0.218-0.296-0.443-0.443-0.655c-0.227-0.332-0.438-0.617-0.633-0.862c-1.43-1.825-3.544-2.868-5.83-2.868
	c-0.99,0-1.972,0.214-2.854,0.588c0.092-0.383,0.172-0.768,0.232-1.153c0.255-1.672,0.216-3.357-0.118-5.017
	c-0.29-1.431-0.777-2.846-1.446-4.204c-0.599-1.22-1.347-2.42-2.224-3.575c-0.769-1.008-1.619-1.995-2.529-2.933
	c-1.021-1.053-2.106-2.065-3.231-3.015c-1.072-0.903-2.174-1.77-3.272-2.575c-1.259-0.923-2.727-1.371-4.182-1.371
	c-1.652,0-3.285,0.586-4.589,1.698c0.015-0.036,0.031-0.07,0.045-0.106c0.247-0.655,0.43-1.343,0.542-2.045
	c0.024-0.151,0.044-0.304,0.059-0.458c0.073-0.773,0.043-1.538-0.1-2.322c-0.402-2.125-1.729-3.977-3.643-5.08
	c-0.166-0.096-0.409-0.227-0.717-0.375c-0.255-0.125-0.556-0.26-0.922-0.41c-0.277-0.112-0.576-0.224-0.921-0.346
	c-0.345-0.121-0.689-0.23-1.028-0.328c-0.108-0.03-0.218-0.06-0.326-0.085c-0.566-0.134-1.146-0.202-1.721-0.202
	c-0.359,0-0.715,0.034-1.063,0.083c-0.135-0.116-0.271-0.228-0.414-0.334c-0.697-0.523-1.469-1.036-2.303-1.529
	c-0.868-0.511-1.725-0.947-2.544-1.297c-1.27-0.542-2.597-0.951-3.947-1.215c-0.92-0.179-1.847-0.269-2.756-0.269
	c-0.309,0-0.617,0.017-0.925,0.038c-1.015-1.39-2.521-2.417-4.333-2.823c-0.051-0.011-0.103-0.021-0.155-0.033
	c-0.935-0.187-1.832-0.371-2.694-0.554c-0.854-0.181-1.636-0.35-2.346-0.508l-5.246-1.174c-0.71-0.158-1.483-0.336-2.331-0.537
	c-0.844-0.198-1.726-0.412-2.647-0.64c-0.048-0.012-0.096-0.023-0.145-0.033c-0.547-0.124-1.104-0.186-1.658-0.186
	c-0.621,0-1.223,0.078-1.801,0.222c-1.1-0.68-2.367-1.066-3.699-1.096c-0.125-0.002-0.252-0.004-0.378-0.004
	c-0.414,0-0.839,0.016-1.267,0.049c-0.401,0.031-0.739,0.065-1.016,0.1c-1.855,0.192-3.48,1.036-4.651,2.303
	c-0.176-0.227-0.333-0.417-0.478-0.58c-1.362-1.547-3.34-2.463-5.458-2.511c-0.043-0.001-0.158-0.002-0.201-0.002
	c-0.132,0-0.323,0.002-0.587,0.009c-0.286,0.007-0.601,0.02-0.943,0.039c-0.327,0.018-0.649,0.04-0.965,0.063
	c-0.473,0.036-0.888,0.083-1.267,0.146c-0.211,0.033-0.421,0.079-0.629,0.132c-0.853,0.219-1.633,0.574-2.327,1.034
	c-0.724-0.226-1.494-0.354-2.296-0.354c-0.327,0-0.658,0.02-0.978,0.061c-0.157,0.019-0.518,0.073-1.061,0.186
	c-0.313,0.065-0.703,0.151-1.177,0.261c-0.467,0.109-1.003,0.246-1.609,0.41c-0.593,0.162-1.218,0.346-1.876,0.555
	c-1.62,0.512-2.928,1.56-3.793,2.889c-1.359-1.154-3.063-1.792-4.873-1.792c-0.668,0-1.335,0.089-2.015,0.273
	c-0.167,0.047-0.425,0.123-0.736,0.23c-0.271,0.089-0.561,0.193-0.857,0.308c-0.235,0.09-0.479,0.186-0.752,0.296
	c-0.358,0.145-0.669,0.282-0.936,0.41c-2.236,1.056-3.729,3.067-4.158,5.329c-0.415-0.295-0.85-0.564-1.323-0.772
	c-0.96-0.425-1.978-0.639-3.027-0.639c-0.545,0-1.093,0.06-1.628,0.178c-0.854,0.184-1.744,0.43-2.646,0.729
	c-0.955,0.318-1.849,0.677-2.661,1.07c-1.248,0.606-2.425,1.338-3.5,2.177c-1.359,1.06-2.484,2.311-3.342,3.712
	c-1.007,1.643-1.593,3.462-1.743,5.407c-0.159,2.082,0.272,4.196,1.285,6.284c0.504,1.04,1.122,1.951,1.825,2.758
	c-0.85,0.127-1.687,0.402-2.466,0.851l-0.717,0.411c-0.801,0.459-1.482,1.055-2.029,1.743l-4.523-4.979
	c-1.455-1.602-3.502-2.521-5.616-2.521c-1.875,0-3.693,0.712-5.124,2.012c-0.116,0.105-0.372,0.353-0.753,0.758
	c-0.219,0.234-0.489,0.53-0.817,0.898c-0.318,0.358-0.677,0.777-1.07,1.255c-0.393,0.475-0.796,0.985-1.213,1.533
	c-1.631,2.141-1.857,4.929-0.8,7.239c-0.536-0.12-1.084-0.184-1.64-0.184c-2.455,0-4.699,1.172-6.141,3.193
	c-0.092,0.129-0.295,0.43-0.592,0.923c-0.167,0.276-0.369,0.624-0.605,1.041c-0.237,0.42-0.499,0.907-0.791,1.472
	c-0.281,0.545-0.567,1.128-0.858,1.75c-1.059,2.263-0.816,4.815,0.441,6.796c-3.03,0.183-5.637,2.064-6.689,4.891
	c-0.012,0.033-0.024,0.066-0.037,0.099c-0.051,0.147-0.129,0.378-0.234,0.718c-0.076,0.255-0.156,0.535-0.238,0.853
	c-0.062,0.24-0.124,0.487-0.187,0.747c-0.092,0.381-0.164,0.721-0.215,1.017c-0.643,3.547,1.288,7.001,4.635,8.263
	c0.184,0.069,0.369,0.132,0.559,0.185l12.355,11.482c0.417,0.387,0.887,0.719,1.389,1.003c-0.15,1.129-0.279,2.268-0.368,3.395
	l-0.043,0.604c-0.039,0.553-0.07,1.106-0.097,1.719l-0.023,0.56c-0.025,0.727-0.041,1.456-0.041,2.191v82.37
	c0,3.911,3.171,7.081,7.081,7.081H85.47c0.061,0,108.439-0.004,108.439-0.004c3.911,0,7.081-3.17,7.081-7.08v-82.366
	c0-0.802-0.021-1.6-0.05-2.392l-0.027-0.649c-0.033-0.712-0.077-1.423-0.134-2.13l-0.02-0.288c-0.065-0.751-0.146-1.499-0.232-2.23
	c-0.035-0.283-0.071-0.565-0.109-0.843c-0.054-0.408-0.116-0.811-0.178-1.213l5.564-1.417l8.972,2.662
	c0.299,0.088,0.601,0.157,0.907,0.205c0.433,0.077,0.905,0.122,1.33,0.122c0.587,0,1.235-0.082,1.803-0.225
	c1.894-0.479,3.48-1.666,4.469-3.339C224.279,110.789,224.553,108.802,224.06,106.869z M178.343,61.602
	c1.042-0.543,2.003-1.23,2.857-2.042c0.058-0.055,0.111-0.114,0.167-0.169c-0.139,0.521-0.221,1.057-0.241,1.599l-8.847,8.58
	c-0.661-0.486-1.319-0.973-1.999-1.44c0.898-1.002,1.651-2.184,2.228-3.536c0.23-0.542,0.418-1.084,0.566-1.628
	c0.568-0.018,1.136-0.066,1.688-0.161C176.027,62.587,177.234,62.181,178.343,61.602z"/>
<path fill="#F5EF82" stroke="#332F30" stroke-width="10" stroke-miterlimit="10" d="M189.977,202.637v-78.433
	c0-32.791-29.803-59.373-66.571-59.373c-36.763,0-66.564,26.581-66.564,59.373v78.433H189.977z"/>
<g id="Layer_2">
</g>
<path fill="none" stroke="#332F30" stroke-width="10" stroke-miterlimit="10" d="M189.977,202.637v-78.433
	c0-32.791-29.803-59.373-66.571-59.373c-36.763,0-66.564,26.581-66.564,59.373v78.433H189.977z"/>
<path fill="none" stroke="#332F30" stroke-width="10" stroke-miterlimit="10" d="M123.406,64.832c-0.625,0-1.249,0.01-1.869,0.025
	l-11.135,137.78h27.144L126.15,64.887C125.24,64.854,124.326,64.832,123.406,64.832z"/>
<path fill="none" stroke="#332F30" stroke-width="10" stroke-miterlimit="10" d="M111.73,65.743l-54.888,125.44v11.456h25.56
	l34.501-137.521C115.158,65.267,113.432,65.476,111.73,65.743z"/>
<path fill="none" stroke="#332F30" stroke-width="10" stroke-miterlimit="10" d="M143.554,68.823l46.423,70.361v-14.981
	c0-6.118-1.035-12.019-2.966-17.574L155.09,71.973C151.264,70.124,147.783,69.982,143.554,68.823z"/>
<path fill="none" stroke="#332F30" stroke-width="10" stroke-miterlimit="10" d="M93.396,71.197l-34.161,37.188
	c-1.558,5.036-2.394,10.34-2.394,15.816v16.615l47.846-73.255C100.675,68.596,97.059,69.544,93.396,71.197z"/>
<path fill="none" stroke="#332F30" stroke-width="10" stroke-miterlimit="10" d="M130.757,65.194l34.849,137.443h24.371v-14.111
	L136.014,65.9C134.286,65.605,132.531,65.368,130.757,65.194z"/>
<path fill="#F9ED21" d="M126.15,64.887l11.395,137.75h28.059L130.757,65.194C129.234,65.044,127.699,64.942,126.15,64.887z"/>
<path fill="#AF3493" d="M136.014,65.9l53.963,122.626v-49.344l-46.997-71.74C140.707,66.82,138.382,66.305,136.014,65.9z"/>
<path fill="#A4D071" d="M59.235,108.386l34.161-37.188C76.84,78.669,64.26,92.129,59.235,108.386z"/>
<path fill="#E81C3D" d="M155.09,71.974l31.921,34.656C181.833,91.706,170.233,79.296,155.09,71.974z"/>
<path fill="#45C1C5" d="M104.928,67.151l-48.086,73.667v50.365l54.888-125.44C109.417,66.108,107.15,66.581,104.928,67.151z"/>
<path fill="#F79443" d="M116.903,65.115L82.402,202.637h28l11.135-137.78C119.978,64.894,118.433,64.983,116.903,65.115z"/>
<path fill="#FFFFFF" stroke="#332F30" stroke-width="5" stroke-miterlimit="10" d="M105.704,88.124l-6.699,1.723l5.168,3.637
	c0,0,0.958,1.722,4.212,1.722c0,0,1.531,9.571,12.441,8.997l7.848,8.614c0,0,12.251-4.594,9.57-14.356l-13.396-0.574
	c0,0,16.079-8.806,2.105-28.52l-14.933,19.14C112.02,88.506,109.34,85.253,105.704,88.124z"/>
<path fill="#FFFFFF" d="M101.209,183.066c0,0,0.007,0.19,0.019,0.549c0.017,0.369,0.049,0.92,0.108,1.617
	c0.122,1.394,0.344,3.408,0.888,5.677c0.278,1.126,0.636,2.328,1.149,3.428c0.498,1.099,1.206,2.1,1.896,2.526
	c0.345,0.213,0.655,0.297,1.041,0.313c0.383,0.016,0.868-0.079,1.41-0.289c1.088-0.425,2.302-1.263,3.43-2.256
	c1.138-0.994,2.228-2.135,3.258-3.315c1.034-1.179,2.003-2.411,2.917-3.633c0.918-1.214,1.766-2.434,2.561-3.598
	c0.791-1.166,1.525-2.286,2.188-3.33c1.33-2.087,2.393-3.864,3.132-5.111c0.731-1.254,1.149-1.969,1.149-1.969l5.18,3.099
	c0,0-0.454,0.722-1.248,1.986c-0.801,1.258-1.953,3.05-3.404,5.169c-0.722,1.064-1.523,2.206-2.393,3.399
	c-0.875,1.195-1.807,2.445-2.83,3.715c-1.017,1.271-2.104,2.568-3.294,3.841c-1.187,1.272-2.461,2.534-3.896,3.707
	c-1.438,1.163-3.027,2.278-5.052,3.003c-1.008,0.35-2.167,0.586-3.406,0.497c-1.231-0.079-2.49-0.534-3.447-1.207
	c-0.964-0.674-1.667-1.489-2.214-2.282c-0.546-0.803-0.945-1.596-1.275-2.366c-0.652-1.544-1.02-2.996-1.305-4.321
	c-0.543-2.656-0.704-4.844-0.791-6.382c-0.04-0.768-0.056-1.373-0.061-1.791c-0.002-0.432-0.002-0.661-0.002-0.661L101.209,183.066z
	"/>
<path fill="#D0D2D3" d="M97.676,167.817c0,0-0.174-0.742-1.135-0.821c-1.733-0.142-2.207,1.773-2.207,1.773s2.711,0.433,2.711,1.252
	C97.045,170.842,97.676,167.817,97.676,167.817z"/>
<path fill="#FFFFFF" d="M92.883,169.14c0,0,1.577-1.576,4.035,0.568l2.27,15.823c0,0-3.468,1.07-4.225-0.883
	C94.208,182.693,90.804,171.094,92.883,169.14z"/>
<path fill="#D0D2D3" d="M96.27,168.861c0,0-0.896-0.21-1.746,1.353c-0.457,0.837-1.001,11.751,4.303,15.365l0.867-2.758
	l-2.837-8.071L96.27,168.861z"/>
<path fill="#FFFFFF" d="M103.365,173.144c0,0,1.182-2.648,2.932-0.379c1.749,2.271,2.837,6.714-2.175,12.151"/>
<path fill="#D0D2D3" d="M105.162,173.616c-1.183-0.648-0.734-1.451-0.516-1.737c-0.8,0.194-1.281,1.263-1.281,1.263l0.386,6.02
	c0.145,0.38,0.287,0.545,0.417,0.362C104.83,178.58,106.627,174.42,105.162,173.616z"/>
<g>
	<g>
		<path fill="#332F30" d="M120.616,130.216c6.526,0,12.37,1.897,16.935,5.047c0.002,0,0.002,0,0.002,0
			c1.878,1.295,3.54,2.804,4.942,4.481c0.494-0.077,0.951-0.11,1.371-0.11c3.709,0,4.612,2.64,4.612,2.64
			c1.13,2.317,0.166,4.961-1.247,7.172c9.667,28.462,6.229,42.807-1.124,49.945l-20.321-0.447c0,0.003,0,0.007,0,0.009l-5.928-0.136
			l-0.444,0.273c-0.475,0.247-0.969,0.478-1.452,0.712c-1.799,0.813-3.819,1.467-6.016,1.467c-0.201,0-0.404-0.006-0.607-0.017
			c-0.291-0.036-0.581-0.072-0.87-0.112c-0.344,0.156-0.684,0.314-1.054,0.447c-0.863,0.301-1.836,0.519-2.874,0.519
			c-0.176,0-0.354-0.007-0.533-0.021c-1.232-0.079-2.49-0.532-3.448-1.209c-0.964-0.674-1.667-1.486-2.213-2.281
			c-0.547-0.8-0.947-1.595-1.275-2.366c-0.653-1.545-1.021-2.995-1.305-4.321c-0.511-2.5-0.683-4.573-0.775-6.092
			c-0.851-0.041-1.7-0.315-2.031-1.171c-0.756-1.951-4.161-13.554-2.081-15.507c0,0,0.553-0.543,1.508-0.556
			c0.162-0.455,0.696-1.596,1.968-1.596c0.059,0,0.118,0.005,0.181,0.009c0.736,0.06,1.01,0.507,1.097,0.714
			c0.338-0.221,0.574-0.338,0.574-0.338c0.173-0.028,0.34-0.042,0.504-0.042c2.317,0,3.833,2.763,4.778,5.566
			c0.088-0.148,0.222-0.348,0.394-0.535c0.001-0.002,0.001-0.002,0.002-0.003c0.066-0.07,0.138-0.141,0.216-0.203
			c0.002,0,0.003-0.002,0.004-0.003c0.22-0.18,0.485-0.313,0.786-0.313c0.405,0,0.877,0.242,1.401,0.92
			c1.712,2.222,2.775,6.527-1.879,11.811c0.059,0.335,0.135,0.736,0.235,1.207c0.324,1.46,0.884,3.592,1.996,5.721
			c0.547,1.062,1.264,2.08,2.113,2.823c0.496,0.433,1.023,0.749,1.594,0.963c0.269-0.211,0.535-0.429,0.795-0.659
			c1.139-0.991,2.229-2.134,3.259-3.314c0.35-0.399,0.681-0.81,1.017-1.219c1.306-2.56,3.203-4.814,4.697-6.364
			c0.698-1.038,1.357-2.04,1.95-2.979c0.462-0.725,0.891-1.41,1.285-2.05c0.018-1.59-0.591-3.228-0.96-4.835
			c-0.549,0.028-1.099,0.049-1.659,0.049c-14.836,0-26.929-9.786-26.929-21.85c0-2.815,0.659-5.504,1.847-7.976
			c-2.699-6.137,1.049-7.544,1.049-7.544c0.609-0.32,1.251-0.457,1.905-0.457c0.942,0,1.908,0.284,2.825,0.709
			c1.36-1.135,2.871-2.147,4.506-3.022c0.066-0.035,0.13-0.068,0.196-0.103c0.518-0.271,1.044-0.531,1.586-0.771
			c0.002,0,0.004-0.001,0.007-0.003C111.552,131.188,115.941,130.216,120.616,130.216 M120.616,126.281
			c-4.758,0-9.476,0.927-13.701,2.684h-0.031l-0.586,0.263l-0.022,0.008l-0.158,0.073l-0.001,0.001
			c-0.579,0.259-1.168,0.548-1.804,0.88l-0.044,0.021l-0.174,0.09c-1.188,0.636-2.321,1.335-3.388,2.095
			c-0.711-0.162-1.411-0.246-2.094-0.246c-1.268,0-2.466,0.277-3.565,0.823c-1.26,0.559-2.805,1.82-3.652,3.826
			c-0.874,2.077-0.867,4.487,0.017,7.191c-1.019,2.602-1.534,5.31-1.534,8.071c0,4.264,1.246,8.29,3.449,11.838
			c-0.552,0.339-1.049,0.77-1.476,1.29c-0.833,0.369-1.396,0.834-1.663,1.085l0,0c-2.083,1.958-2.426,5.261-1.184,11.4
			c0.74,3.662,1.857,7.271,2.29,8.395c0.406,1.046,1.091,1.906,1.983,2.535c0.129,1.2,0.325,2.572,0.637,4.096l0.004,0.017
			l0.003,0.019c0.287,1.334,0.721,3.114,1.527,5.024c0.492,1.152,1.03,2.147,1.649,3.053c0.932,1.359,1.978,2.432,3.207,3.291
			c1.563,1.103,3.505,1.787,5.452,1.912c0.237,0.018,0.511,0.027,0.785,0.027c1.365,0,2.769-0.248,4.169-0.738l0.018-0.007
			l0.019-0.008c0.104-0.039,0.204-0.078,0.301-0.114l0.071,0.002c0.278,0.018,0.553,0.023,0.826,0.023
			c2.433,0,4.931-0.593,7.635-1.816l0.052-0.021l0.05-0.022l0.385-0.188c0.261-0.123,0.522-0.249,0.78-0.378l4.845,0.114
			l4.024,0.092v-0.013l16.302,0.357l1.646,0.037l1.182-1.146c9.987-9.697,10.884-27.309,2.67-52.354
			c2.019-4.049,1.501-7.135,0.58-9.135c-0.788-1.949-3.221-4.912-7.95-5.022c-1.311-1.351-2.771-2.582-4.361-3.68
			C134.341,128.27,127.711,126.281,120.616,126.281L120.616,126.281z M108.646,185.586c2.301-3.153,3.137-6.194,3.041-8.87
			c2.417,0.621,4.961,0.999,7.589,1.103c-0.167,0.267-0.34,0.542-0.52,0.82c-0.51,0.806-1.083,1.685-1.712,2.62
			c-1.495,1.583-3.458,3.93-4.917,6.657c-0.222,0.271-0.444,0.541-0.675,0.805c-0.399,0.455-0.781,0.876-1.152,1.266
			c-0.054-0.093-0.105-0.19-0.156-0.288C109.376,188.229,108.928,186.738,108.646,185.586L108.646,185.586z"/>
	</g>
	<g>
		<path fill="#332F30" d="M116.108,118.458c0.689,0,1.374,0.008,2.048,0.019c0.084,0,0.167,0,0.253,0
			c2.003,0,3.939,0.085,5.767,0.139c1.917,0.064,3.718,0.173,5.387,0.309c1.665,0.151,3.196,0.293,4.562,0.451
			c1.362,0.176,2.56,0.349,3.576,0.551c1.021,0.216,1.836,0.436,2.572,0.835c0.347,0.188,0.771,0.496,1.059,1.004
			c0.071,0.132,0.117,0.228,0.161,0.354c0.039,0.13,0.063,0.248,0.076,0.339c0.026,0.187,0.025,0.279,0.025,0.279l-0.022,0.282
			c0,0-0.003,0.017-0.008,0.05c-0.002,0.017-0.005,0.038-0.008,0.063c0-0.001,0-0.001,0-0.001c0.001,0-0.026,0.118-0.051,0.19
			c-0.027,0.088-0.062,0.184-0.107,0.282c-0.045,0.098-0.1,0.2-0.16,0.298c-0.064,0.099-0.081,0.107-0.126,0.167
			c-0.077,0.09-0.185,0.215-0.27,0.29c-0.083,0.073-0.175,0.147-0.275,0.225c-0.083,0.055-0.176,0.117-0.271,0.181
			c-0.729,0.435-1.537,0.707-2.554,0.991c-0.507,0.139-1.058,0.268-1.654,0.393c-0.593,0.139-1.23,0.283-1.913,0.42
			c-1.361,0.273-2.897,0.529-4.572,0.765c-1.674,0.257-3.492,0.391-5.419,0.505c-0.485,0.027-0.964,0.06-1.471,0.074
			c-0.492,0.006-0.99,0.016-1.494,0.018c-0.245,0.002-0.49,0.003-0.737,0.003c-0.777,0-1.565-0.009-2.367-0.025
			c-2.11-0.089-4.295-0.21-6.536-0.546c-1.124-0.16-2.262-0.348-3.452-0.623c-0.598-0.143-1.202-0.296-1.895-0.545
			c-0.346-0.126-0.718-0.275-1.181-0.535c-0.13-0.076-0.259-0.154-0.386-0.241c-0.168-0.127-0.312-0.235-0.487-0.401
			c-0.104-0.103-0.205-0.214-0.299-0.327c-0.049-0.063-0.084-0.103-0.142-0.187c-0.06-0.089-0.117-0.182-0.169-0.278
			c-0.109-0.213-0.188-0.349-0.27-0.641c-0.038-0.136-0.067-0.279-0.087-0.419l-0.024-0.214c0.003-0.066,0.001-0.082-0.001-0.082
			c-0.003,0-0.007,0.014-0.009,0.014c-0.005,0-0.002-0.078,0.039-0.599l0.022-0.101l0.012-0.05c0.017-0.078,0.038-0.156,0.062-0.236
			c0.048-0.157,0.108-0.314,0.181-0.467c0.073-0.151,0.156-0.293,0.247-0.426c0.082-0.117,0.101-0.133,0.156-0.201
			c0.095-0.112,0.196-0.219,0.301-0.321c0.177-0.161,0.32-0.266,0.49-0.386l0.389-0.229c0.465-0.24,0.842-0.369,1.19-0.478
			c0.695-0.214,1.303-0.332,1.904-0.436c1.194-0.211,2.335-0.309,3.46-0.373C113.163,118.491,114.653,118.458,116.108,118.458
			 M106.228,122.715c0,0,0.002-0.002,0.006-0.009l0,0c0.002,0-0.001-0.022-0.005-0.022c-0.002,0-0.005,0.005-0.006,0.019
			l-0.007,0.037c0.003,0.003,0.007,0.007,0.007,0.01c-0.006,0.011,0.04,0.044,0.057,0.071c0.065,0.06,0.156,0.121,0.259,0.18
			c0.209,0.113,0.447,0.21,0.694,0.292c0.493,0.17,1.017,0.296,1.541,0.408c1.05,0.218,2.121,0.372,3.185,0.499
			c2.13,0.25,4.244,0.387,6.29,0.469c1.597,0.063,3.152,0.091,4.653,0.091c2.344,0,4.55-0.069,6.542-0.185
			c3.27-0.191,5.986-0.521,7.825-0.931c0.917-0.203,1.62-0.438,2.001-0.658c0.176-0.087,0.275-0.213,0.279-0.213
			c0,0,0,0.001-0.003,0.003c-0.001,0.001,0.003,0.018,0.008,0.018c0.002,0,0.004,0,0.005-0.008c0.004-0.017,0.008-0.034,0.008-0.048
			l0,0c0,0,0-0.001-0.004-0.008c-0.014-0.024-0.097-0.13-0.292-0.236c-0.382-0.22-1.085-0.455-2.001-0.657
			c-1.838-0.412-4.555-0.74-7.825-0.934c-1.99-0.115-4.192-0.182-6.535-0.182c-1.502,0-3.062,0.028-4.661,0.09
			c-2.047,0.081-4.16,0.219-6.291,0.469c-1.063,0.127-2.133,0.281-3.185,0.501c-0.524,0.109-1.047,0.236-1.54,0.407
			c-0.247,0.081-0.485,0.18-0.695,0.292c-0.103,0.058-0.194,0.118-0.259,0.179C106.27,122.673,106.23,122.715,106.228,122.715
			 M106.215,122.736L106.215,122.736c0-0.001,0-0.001,0-0.002C106.212,122.735,106.215,122.736,106.215,122.736 M116.108,114.524
			c-1.689,0-3.225,0.041-4.698,0.128c-1.033,0.059-2.415,0.161-3.915,0.425c-0.694,0.12-1.471,0.271-2.374,0.548
			c-0.509,0.16-1.105,0.366-1.832,0.739l-0.103,0.053l-0.098,0.058l-0.388,0.229l-0.142,0.083l-0.134,0.095
			c-0.238,0.168-0.521,0.375-0.863,0.684l-0.052,0.047l-0.051,0.05c-0.193,0.188-0.378,0.386-0.551,0.588l-0.032,0.039l-0.031,0.038
			c-0.075,0.088-0.183,0.221-0.33,0.432c-0.224,0.327-0.406,0.645-0.562,0.969c-0.161,0.339-0.292,0.678-0.396,1.021
			c-0.052,0.173-0.094,0.334-0.131,0.491l-0.011,0.043l-0.009,0.043l-0.005,0.021l-0.017,0.071l-0.061,0.273l-0.022,0.28
			c-0.021,0.259-0.044,0.555-0.041,0.874l-0.012,0.239l0.035,0.309l0.024,0.214l0.006,0.051l0.008,0.052
			c0.044,0.312,0.108,0.623,0.192,0.926c0.181,0.652,0.4,1.078,0.531,1.328l0.027,0.052l0.024,0.051l0.025,0.047
			c0.106,0.192,0.223,0.386,0.347,0.573l0.013,0.017l0.013,0.019c0.119,0.175,0.202,0.279,0.297,0.396l0.024,0.029l0.034,0.043
			c0.184,0.223,0.377,0.436,0.573,0.627l0.027,0.027l0.027,0.025c0.324,0.307,0.59,0.512,0.835,0.694l0.082,0.062l0.084,0.056
			c0.186,0.125,0.375,0.243,0.567,0.358l0.048,0.026l0.048,0.025c0.689,0.384,1.263,0.612,1.734,0.788
			c0.911,0.328,1.667,0.521,2.351,0.684c1.477,0.341,2.804,0.545,3.797,0.688c2.473,0.37,4.873,0.494,6.927,0.581l0.042,0.002
			l0.042,0.001c0.831,0.017,1.646,0.024,2.451,0.024c0.254,0,0.508-0.001,0.76-0.001l1.08-0.016l0.439-0.006l0.029-0.002h0.029
			c0.437-0.011,0.852-0.036,1.269-0.059l0.312-0.017c1.883-0.113,3.877-0.252,5.771-0.542c1.735-0.243,3.34-0.511,4.772-0.801
			c0.7-0.137,1.34-0.283,1.986-0.435c0.679-0.146,1.287-0.287,1.847-0.444c1.147-0.316,2.357-0.704,3.528-1.404l0.094-0.055
			l0.09-0.062l0.231-0.153l0.122-0.083l0.116-0.086c0.176-0.138,0.34-0.273,0.484-0.402c0.22-0.195,0.46-0.445,0.697-0.733
			l0.035-0.046l0.008-0.011c0.094-0.114,0.203-0.253,0.343-0.466l0.016-0.021l0.014-0.021c0.163-0.258,0.311-0.524,0.426-0.791
			c0.111-0.237,0.207-0.493,0.281-0.748c0.084-0.276,0.142-0.539,0.176-0.79h0.003c0.007-0.024,0.01-0.048,0.014-0.069l0,0
			c0-0.003,0-0.007,0-0.009c0.02-0.148,0.026-0.221,0.026-0.221l0.023-0.298l0.016-0.155l0.001-0.155
			c0.003-0.26-0.02-0.554-0.066-0.873c-0.041-0.292-0.11-0.601-0.2-0.907l-0.013-0.033l-0.012-0.033
			c-0.148-0.463-0.325-0.798-0.431-0.999l-0.021-0.041l-0.024-0.042c-0.599-1.068-1.479-1.923-2.61-2.539
			c-1.222-0.661-2.472-0.979-3.64-1.226l-0.02-0.004l-0.019-0.003c-0.996-0.198-2.181-0.382-3.848-0.595l-0.022-0.003l-0.025-0.002
			c-1.448-0.168-3.095-0.319-4.657-0.461c-1.868-0.153-3.745-0.261-5.607-0.324c-0.466-0.014-0.921-0.028-1.381-0.044
			c-1.449-0.048-2.946-0.098-4.517-0.098h-0.222C117.502,114.531,116.808,114.524,116.108,114.524L116.108,114.524z"/>
	</g>
</g>
<g>
	<path fill="#BABABA" d="M106.525,140.631c0,0-5.696-6.259-9.818-4.084c0,0-4.528,1.694-0.052,9.498l0.001-0.002
		c0,0,2.098,0.183,2.334-1.774"/>
</g>
<path fill="#FFFFFF" d="M120.739,173.912c0.559,0,1.11-0.018,1.658-0.049c0.598,2.599,1.819,5.262,0.022,7.693
	c0,0-11.084,9.104-7.962,17.14l31.648,0.696c7.387-7.17,10.828-21.614,0.994-50.338v0.001
	c-2.269-10.642-12.901-18.841-26.485-18.841c-14.838,0-26.805,9.781-26.805,21.848C93.811,164.129,105.904,173.912,120.739,173.912z
	"/>
<path fill="#D0D2D3" d="M115.589,198.725l10.197,0.234c0.175-8.436,7.281-17.021,7.281-17.021h-0.342v-12.07
	c-5.294,3.285-9.402,3.678-9.402,3.678l2.334,9.281C116.639,184.912,115.632,194.399,115.589,198.725z"/>
<ellipse fill="#D0D2D3" cx="117.777" cy="155.067" rx="22.831" ry="17.321"/>
<path fill="#FFFFFF" d="M148.259,165.295c0,0-10.018,12.105,0.78,12.777l0.783,2.371
	C149.822,180.443,135.409,178.041,148.259,165.295z"/>
<path fill="#D0D2D3" d="M107.867,166.561c0,0,1.212,3.437,2.62,3.468c1.405,0.035,4.971,0.035,6.083-2.19
	C117.681,165.613,107.867,166.561,107.867,166.561z"/>
<path fill="#FFFFFF" d="M143.197,169.155c0,0-7.502,11.063,7.107,12.896l0.605,2.204
	C150.912,184.253,133.211,182.889,143.197,169.155z M149.366,183.308c0,0,0.679,9.309-5.481,15.683l2.488-0.398
	c0,0,5.218-5.71,4.539-14.339L149.366,183.308L149.366,183.308z M132.352,191.655v-0.003l1.28,0.261l-1.314,6.417l-1.276-0.262
	l0.964-4.703l-1.028,0.684l-0.679-1.024 M139.009,193.027l-0.242,1.197l-2.655-0.539l-0.185,0.901l0.518,0.104
	c0.855,0.176,1.46,0.502,1.828,0.971c0.352,0.539,0.458,1.157,0.31,1.871c-0.11,0.547-0.422,0.966-0.928,1.284
	c-0.511,0.315-1.078,0.405-1.704,0.279c-0.597-0.117-1.075-0.31-1.436-0.558c-0.362-0.259-0.655-0.553-0.885-0.9l1.032-0.678
	c0.213,0.397,0.632,0.678,1.251,0.837c0.77,0.155,1.246-0.043,1.438-0.585c0.057-0.37-0.022-0.655-0.232-0.878
	c-0.104-0.169-0.543-0.34-1.325-0.522l-1.363-0.279l0.678-3.293l3.936,0.806L139.009,193.027z"/>
<path fill="#6C6F71" stroke="#6C6F71" stroke-linejoin="round" stroke-miterlimit="10" d="M112.157,165.042
	c-0.077,0.178-0.135,0.39-0.173,0.591c-0.038,0.205-0.063,0.413-0.071,0.621c-0.007,0.208,0.005,0.42,0.034,0.626
	c0.02,0.19,0.067,0.454,0.126,0.521c0.158,0.229,0.582,0.299,0.969,0.243c0.398-0.051,0.796-0.199,1.161-0.397
	c0.738-0.403,1.361-1.018,1.849-1.719c0.244-0.354,0.458-0.725,0.643-1.116c0.182-0.391,0.334-0.798,0.463-1.212l0,0l0.033-0.063
	c0.048-0.096,0.16-0.134,0.254-0.087c0.012,0.004,0.019,0.009,0.028,0.017l1.208,0.867l-1.408-0.474l0.313-0.14l0,0
	c-0.245,0.874-0.594,1.732-1.122,2.49c-0.521,0.757-1.189,1.431-2.011,1.885c-0.41,0.229-0.859,0.402-1.342,0.468
	c-0.24,0.032-0.495,0.04-0.754-0.021c-0.254-0.058-0.53-0.197-0.709-0.455c-0.041-0.065-0.095-0.173-0.104-0.216l-0.024-0.078
	c-0.018-0.075-0.015-0.07-0.021-0.11c-0.02-0.116-0.04-0.234-0.05-0.349c-0.021-0.239-0.025-0.473-0.007-0.709
	c0.016-0.234,0.051-0.467,0.113-0.693c0.062-0.23,0.137-0.447,0.252-0.669L112.157,165.042z"/>
<path fill="#6C6F71" stroke="#6C6F71" stroke-linejoin="round" stroke-miterlimit="10" d="M108.173,163.151l1.338-0.338
	c0.08-0.02,0.16,0.028,0.18,0.106c0.005,0.03,0.005,0.056-0.003,0.083l-0.015,0.041l0,0c-0.103,0.229-0.185,0.479-0.252,0.727
	c-0.066,0.25-0.116,0.503-0.136,0.753c-0.044,0.506,0.025,1.012,0.278,1.408c0.064,0.099,0.139,0.187,0.217,0.274
	c0.087,0.079,0.174,0.151,0.274,0.219c0.099,0.063,0.203,0.121,0.313,0.173c0.11,0.049,0.224,0.088,0.343,0.122
	c0.115,0.044,0.241,0.056,0.362,0.083l0.089,0.053c0.252,0.021-0.279,0.027,0.477,0.025v0.587c-0.756-0.009-0.268-0.027-0.547-0.064
	c-0.14-0.02-0.133-0.047-0.271-0.076c-0.139-0.04-0.205-0.064-0.338-0.115c-0.138-0.047-0.235-0.102-0.365-0.167
	c-0.131-0.063-0.239-0.141-0.359-0.229c-0.122-0.084-0.221-0.186-0.328-0.293c-0.098-0.114-0.185-0.233-0.262-0.364
	c-0.149-0.259-0.236-0.545-0.274-0.831c-0.04-0.287-0.03-0.574,0.005-0.85c0.035-0.28,0.101-0.55,0.183-0.811
	c0.082-0.265,0.177-0.517,0.304-0.771l0,0l0.165,0.231L108.173,163.151z"/>
<path fill="#6C6F71" stroke="#6C6F71" stroke-linejoin="round" stroke-miterlimit="10" d="M108.366,167.82
	c0,0,0.057,0.109,0.174,0.281c0.06,0.083,0.13,0.188,0.22,0.302c0.09,0.109,0.193,0.232,0.316,0.354
	c0.125,0.116,0.258,0.249,0.417,0.362c0.081,0.052,0.161,0.114,0.241,0.173c0.09,0.051,0.18,0.101,0.271,0.149
	c0.184,0.104,0.389,0.174,0.596,0.25c0.217,0.045,0.425,0.135,0.655,0.146l0.338,0.045c0.111,0.011,0.227,0.004,0.339,0.008
	c0.112,0.001,0.226,0.003,0.337,0.005c0.111-0.004,0.218-0.023,0.329-0.032c0.217-0.027,0.43-0.024,0.627-0.078
	c0.2-0.038,0.388-0.073,0.56-0.105c0.178-0.024,0.333-0.082,0.473-0.114c0.143-0.036,0.268-0.068,0.368-0.094
	c0.206-0.05,0.323-0.075,0.323-0.075s-0.108,0.055-0.293,0.152c-0.096,0.049-0.211,0.104-0.344,0.172
	c-0.135,0.059-0.28,0.145-0.456,0.194c-0.172,0.06-0.362,0.124-0.562,0.19c-0.198,0.074-0.422,0.094-0.647,0.147
	c-0.112,0.018-0.229,0.045-0.348,0.053c-0.119,0.01-0.239,0.018-0.362,0.018c-0.123,0.006-0.247,0.018-0.373,0.013l-0.375-0.04
	c-0.252-0.014-0.498-0.097-0.738-0.159c-0.119-0.036-0.232-0.097-0.345-0.144c-0.115-0.05-0.228-0.096-0.324-0.169
	c-0.1-0.068-0.197-0.132-0.294-0.196c-0.086-0.078-0.171-0.147-0.252-0.221c-0.084-0.07-0.149-0.153-0.216-0.233
	c-0.067-0.079-0.134-0.148-0.182-0.23c-0.109-0.154-0.196-0.3-0.256-0.44c-0.067-0.136-0.11-0.262-0.143-0.361
	C108.377,167.943,108.366,167.82,108.366,167.82z"/>
<path fill="#6C6F71" d="M102.632,135.608"/>
<g>
	<g>
		<path fill="#919496" d="M139.641,143.292l3.205,7.008C142.846,150.301,152.693,138.045,139.641,143.292z"/>
	</g>
	<g>
		<path fill="#D0D2D3" d="M136.728,141.857c0,0-0.302,2.591,2.108,2.953c0,0,11.813-3.858,3.195,6.508c0,0-0.965,1.566,1.024,2.952
			c0,0,7.955-6.81,5.425-11.993C148.478,142.277,146.55,136.613,136.728,141.857L136.728,141.857L136.728,141.857z"/>
	</g>
</g>
<path fill="#6C6F71" d="M97.335,152.11c0,0,0.032,0.067,0.096,0.175c0.065,0.104,0.158,0.263,0.278,0.461
	c0.114,0.205,0.285,0.439,0.464,0.712c0.204,0.258,0.393,0.573,0.656,0.875c0.125,0.154,0.253,0.315,0.388,0.483
	c0.146,0.157,0.295,0.318,0.45,0.485c0.287,0.35,0.667,0.642,1.016,0.985c0.393,0.281,0.755,0.643,1.207,0.881
	c0.215,0.135,0.432,0.27,0.65,0.405l0.7,0.321l0.351,0.161l0.368,0.114c0.246,0.078,0.49,0.151,0.731,0.23
	c0.492,0.126,1,0.163,1.477,0.262c0.489,0.031,0.968,0.021,1.422,0.043c0.456,0.016,0.885-0.076,1.286-0.103
	c0.401-0.034,0.772-0.057,1.092-0.149c0.325-0.069,0.606-0.133,0.839-0.181c0.472-0.093,0.74-0.147,0.74-0.147l0.046-0.008
	c0.205-0.042,0.403,0.092,0.443,0.298c0.035,0.181-0.068,0.359-0.237,0.424c0,0-0.267,0.102-0.734,0.279
	c-0.239,0.084-0.526,0.187-0.855,0.307c-0.327,0.138-0.715,0.218-1.144,0.307c-0.431,0.076-0.891,0.213-1.394,0.249
	c-0.505,0.017-1.041,0.058-1.596,0.06c-0.554-0.065-1.136-0.101-1.712-0.221c-0.563-0.172-1.172-0.255-1.709-0.54l-0.825-0.368
	c-0.26-0.147-0.512-0.308-0.764-0.462c-0.519-0.292-0.933-0.703-1.375-1.049c-0.381-0.408-0.786-0.77-1.083-1.181
	c-0.319-0.396-0.59-0.79-0.818-1.167c-0.46-0.752-0.743-1.426-0.918-1.905c-0.093-0.236-0.152-0.433-0.189-0.57
	c-0.034-0.134-0.052-0.202-0.052-0.202l-0.001-0.006c-0.052-0.206,0.068-0.411,0.271-0.465
	C97.077,151.86,97.258,151.95,97.335,152.11z"/>
<path fill="#6C6F71" d="M115.936,158.817c0,0,0.074,0.049,0.2,0.117c0.129,0.07,0.319,0.174,0.562,0.307
	c0.24,0.141,0.555,0.275,0.901,0.446c0.367,0.141,0.754,0.342,1.206,0.493c0.443,0.175,0.931,0.336,1.452,0.485
	c0.516,0.164,1.079,0.26,1.648,0.393c0.584,0.062,1.176,0.205,1.789,0.202c0.307,0.015,0.613,0.029,0.923,0.042l0.926-0.052
	c0.625,0.006,1.226-0.174,1.831-0.257c0.603-0.104,1.166-0.33,1.733-0.48c0.552-0.19,1.063-0.445,1.565-0.648
	c0.256-0.093,0.486-0.222,0.703-0.36c0.22-0.13,0.435-0.255,0.639-0.375c0.407-0.251,0.809-0.435,1.109-0.688
	c0.315-0.23,0.594-0.434,0.82-0.598c0.464-0.327,0.729-0.515,0.729-0.515l0.037-0.023c0.171-0.119,0.405-0.081,0.524,0.089
	c0.109,0.153,0.084,0.359-0.044,0.486c0,0-0.243,0.235-0.664,0.646c-0.214,0.204-0.476,0.447-0.774,0.73
	c-0.287,0.299-0.673,0.563-1.094,0.856c-0.211,0.147-0.429,0.298-0.654,0.456c-0.222,0.163-0.463,0.321-0.73,0.445
	c-0.527,0.26-1.063,0.59-1.665,0.829c-0.613,0.195-1.234,0.467-1.905,0.612c-0.672,0.113-1.348,0.31-2.049,0.317l-1.038,0.063
	c-0.346-0.018-0.688-0.038-1.03-0.058c-0.687-0.012-1.34-0.179-1.978-0.284c-0.623-0.169-1.235-0.308-1.783-0.532
	c-0.274-0.107-0.542-0.212-0.8-0.312c-0.253-0.113-0.491-0.235-0.722-0.347c-0.467-0.212-0.86-0.474-1.218-0.679
	c-0.345-0.235-0.65-0.423-0.886-0.608c-0.241-0.171-0.423-0.328-0.548-0.437c-0.127-0.107-0.181-0.162-0.181-0.162l-0.023-0.022
	c-0.146-0.149-0.146-0.387,0.004-0.535C115.589,158.731,115.789,158.717,115.936,158.817z"/>
<path fill="#FFFFFF" d="M104.83,178.723c0,0-1.512-12.199-6.619-11.348c0,0-3.036,1.461-3.216,4.255
	c-0.188,2.931,0.474,15.886,6.999,14.563C101.994,186.193,106.344,185.625,104.83,178.723z"/>
<path fill="#D0D2D3" d="M96.891,168.266c-0.207,0.172-0.417,0.37-0.622,0.594c0.864,0.607,2.143,1.759,2.856,3.592
	c1.165,2.992,1.576,6.995,1.576,6.995S102.082,172.329,96.891,168.266z"/>
<path opacity="0.15" enable-background="new    " d="M96.398,185.712c0,0,3.885,13.374,9.638,13.768l1.868-2.165l-7.081-11.85
	L96.398,185.712z"/>
<path opacity="0.15" enable-background="new    " d="M141.606,174.122c0,0-11.934,22.555-20.392,25.243l-1.639-1.246
	L141.606,174.122z"/>
<path fill="#FFFFFF" d="M104.257,183.504c0,0,0.028,0.198,0.079,0.572c0.057,0.386,0.161,0.97,0.318,1.706
	c0.324,1.461,0.884,3.594,1.995,5.722c0.547,1.06,1.264,2.08,2.113,2.822c0.855,0.745,1.779,1.187,2.912,1.251
	c1.134,0.078,2.522-0.3,3.927-0.939c0.354-0.172,0.708-0.345,1.064-0.517l1.06-0.654c0.72-0.396,1.396-0.981,2.096-1.475
	c1.371-1.074,2.708-2.255,3.965-3.516c0.647-0.604,1.256-1.253,1.85-1.9c0.591-0.653,1.205-1.261,1.759-1.923
	c1.104-1.324,2.217-2.552,3.182-3.823c0.977-1.258,1.93-2.413,2.737-3.555c0.823-1.126,1.581-2.153,2.248-3.067
	c0.647-0.935,1.211-1.753,1.675-2.422c0.928-1.344,1.459-2.111,1.459-2.111l4.707,3.163c0,0-0.547,0.786-1.499,2.168
	c-0.474,0.688-1.054,1.528-1.719,2.488c-0.693,0.945-1.472,2.013-2.326,3.175c-0.833,1.174-1.831,2.393-2.849,3.7
	c-1.001,1.323-2.187,2.639-3.355,4.033c-0.586,0.698-1.249,1.362-1.884,2.063c-0.638,0.696-1.292,1.393-2.007,2.065
	c-1.374,1.373-2.873,2.704-4.475,3.96c-0.839,0.602-1.607,1.257-2.534,1.785l-1.341,0.823c-0.476,0.248-0.969,0.477-1.453,0.712
	c-1.963,0.887-4.19,1.585-6.625,1.45c-0.604-0.073-1.206-0.149-1.793-0.262c-0.576-0.18-1.158-0.347-1.704-0.57
	c-0.518-0.27-1.055-0.519-1.525-0.825c-0.444-0.329-0.915-0.64-1.308-0.995c-1.595-1.412-2.629-2.988-3.391-4.436
	c-1.513-2.917-2.131-5.422-2.531-7.174c-0.189-0.881-0.313-1.579-0.386-2.069c-0.037-0.256-0.065-0.454-0.083-0.588
	c-0.016-0.121-0.023-0.185-0.023-0.185L104.257,183.504z"/>
<path fill="#F4EB1F" d="M141.568,123.021c0,0-0.002,0.016-0.008,0.05c-0.001,0.017-0.004,0.038-0.008,0.063
	c0.007-0.018-0.024,0.113-0.051,0.188c-0.025,0.088-0.061,0.184-0.108,0.282c-0.043,0.098-0.098,0.2-0.159,0.298
	c-0.063,0.098-0.08,0.107-0.125,0.168c-0.078,0.09-0.184,0.214-0.271,0.29c-0.083,0.072-0.175,0.146-0.274,0.224
	c-0.083,0.056-0.176,0.117-0.271,0.181c-0.728,0.435-1.538,0.707-2.554,0.99c-0.508,0.14-1.058,0.27-1.653,0.393
	c-0.595,0.14-1.232,0.285-1.913,0.421c-1.362,0.274-2.898,0.529-4.574,0.764c-1.675,0.257-3.493,0.392-5.419,0.507
	c-0.485,0.027-0.963,0.059-1.471,0.074c-0.491,0.006-0.989,0.014-1.494,0.018c-1.016,0.006-2.049,0-3.105-0.022
	c-2.11-0.089-4.294-0.21-6.535-0.546c-1.125-0.162-2.261-0.348-3.452-0.623c-0.599-0.143-1.203-0.297-1.894-0.545
	c-0.346-0.127-0.719-0.276-1.181-0.535c-0.131-0.076-0.26-0.154-0.386-0.239c-0.169-0.126-0.313-0.235-0.487-0.402
	c-0.105-0.103-0.205-0.214-0.298-0.327c-0.05-0.063-0.084-0.103-0.142-0.187c-0.06-0.09-0.117-0.183-0.169-0.278
	c-0.109-0.213-0.188-0.35-0.269-0.641c-0.038-0.137-0.068-0.279-0.087-0.42l-0.024-0.213c0.013-0.274-0.049,0.313,0.03-0.667
	l0.022-0.101l0.012-0.05c0.018-0.078,0.039-0.156,0.062-0.236c0.048-0.157,0.108-0.313,0.181-0.467
	c0.072-0.151,0.155-0.293,0.247-0.426c0.081-0.117,0.101-0.133,0.156-0.201c0.095-0.112,0.196-0.219,0.301-0.321
	c0.177-0.161,0.32-0.266,0.49-0.386l0.388-0.229c0.467-0.24,0.842-0.369,1.191-0.478c0.694-0.214,1.302-0.331,1.904-0.436
	c1.194-0.211,2.335-0.309,3.46-0.373c2.247-0.131,4.419-0.14,6.516-0.103c2.094-0.008,4.115,0.083,6.021,0.138
	c1.918,0.065,3.72,0.175,5.388,0.311c1.666,0.151,3.196,0.293,4.561,0.451c1.361,0.174,2.561,0.347,3.575,0.551
	c1.023,0.215,1.837,0.435,2.575,0.834c0.348,0.188,0.771,0.496,1.058,1.005c0.069,0.132,0.119,0.227,0.16,0.355
	c0.04,0.13,0.061,0.245,0.077,0.339c0.025,0.185,0.025,0.279,0.025,0.279L141.568,123.021z M139.574,122.739
	c-0.012-0.007,0.008,0.021-0.012-0.009c-0.013-0.024-0.095-0.13-0.291-0.236c-0.383-0.22-1.086-0.455-2.001-0.657
	c-1.839-0.412-4.556-0.74-7.825-0.934c-3.268-0.188-7.101-0.252-11.196-0.092c-2.047,0.081-4.16,0.219-6.291,0.469
	c-1.063,0.127-2.133,0.281-3.185,0.501c-0.524,0.109-1.047,0.236-1.54,0.407c-0.247,0.081-0.484,0.18-0.695,0.292
	c-0.103,0.058-0.194,0.118-0.259,0.179c-0.014,0.018-0.072,0.079-0.045,0.048c0.004,0.003-0.004-0.051-0.012-0.003l-0.018,0.102
	c0.013-0.13,0.007-0.037,0.01-0.066l0.001-0.002c0-0.001,0-0.001-0.002-0.003c-0.009,0,0.01,0.012,0.009,0.017
	c-0.006,0.011,0.04,0.044,0.057,0.071c0.066,0.059,0.157,0.121,0.259,0.179c0.209,0.113,0.447,0.211,0.694,0.292
	c0.493,0.169,1.017,0.296,1.541,0.408c1.05,0.218,2.12,0.372,3.185,0.498c2.13,0.25,4.244,0.387,6.29,0.47
	c4.095,0.16,7.927,0.096,11.195-0.094c3.271-0.191,5.987-0.52,7.825-0.932c0.916-0.202,1.62-0.437,2-0.657
	c0.192-0.096,0.295-0.237,0.28-0.208c-0.002,0.001,0.005,0.034,0.01,0.011c0.009-0.024,0.011-0.046,0.015-0.062
	c0.007-0.033,0.01-0.05,0.01-0.05L139.574,122.739z"/>
<path fill="#FAF5AB" d="M104.672,134.875c0.126,0.084,0.255,0.165,0.385,0.243c0.461,0.257,0.835,0.404,1.181,0.532
	c0.692,0.248,1.294,0.405,1.896,0.544c1.191,0.275,2.326,0.464,3.451,0.625c2.242,0.336,4.426,0.456,6.536,0.548
	c1.055,0.021,2.089,0.026,3.105,0.021c0.504-0.009,1.001-0.015,1.494-0.018c0.506-0.017,0.984-0.046,1.47-0.074
	c1.923-0.114,3.744-0.249,5.418-0.507c1.677-0.234,3.209-0.491,4.573-0.765c0.68-0.136,1.318-0.279,1.913-0.419
	c0.524-0.112,1.003-0.225,1.459-0.346c-0.904-0.622-1.86-1.196-2.86-1.72c-1.5,0.206-3.27,0.373-5.246,0.487
	c-3.268,0.186-7.102,0.252-11.196,0.093c-2.047-0.082-4.161-0.221-6.29-0.471c-1.064-0.126-2.134-0.279-3.185-0.5
	c-0.353-0.074-0.7-0.161-1.042-0.258c-1.168,0.521-2.28,1.112-3.333,1.764C104.488,134.735,104.577,134.803,104.672,134.875z"/>
<path fill="none" stroke="#332F30" stroke-width="10" stroke-miterlimit="10" d="M189.977,202.637v-78.433
	c0-32.791-29.803-59.373-66.571-59.373c-36.763,0-66.564,26.581-66.564,59.373v78.433H189.977z"/>
<g>
	<path fill="#1D8FCD" d="M109.972,163.197c0,0,1.986-4.04,2.72-1.907c0,0,1.641-2.404,1.641,1.452c0,0-1.555,1.06-1.641,2.342
		c0,0-1.61-0.646-2.72-1.895V163.197z"/>
	<path fill="#FFFFFF" d="M112.692,164.104c0,0,0.1-0.544,0.867-1.088C113.56,163.017,113.275,161.973,112.692,164.104z"/>
</g>
<path opacity="0.15" enable-background="new    " d="M122.068,173.796c0,0,12.26-1.246,19.209-12.327c0,0-5.311,14.162-18.161,15.08
	L122.068,173.796z"/>
<path fill="none" d="M48.111,131.112c0-41.424,33.581-75.004,75.005-75.004c41.423,0,75.004,33.581,75.004,75.004"/>
<g>
	<path fill="#332F30" d="M45.081,102.978l5.422,4.65c0.096,0.082,0.128,0.197,0.096,0.345c-0.048,0.189-0.109,0.402-0.184,0.637
		c-0.075,0.236-0.167,0.5-0.275,0.793c-0.061,0.161-0.141,0.223-0.241,0.186c-0.03-0.011-0.054-0.025-0.07-0.043L35.768,96.479
		l-0.995-0.006c-0.088-0.009-0.148-0.021-0.178-0.032c-0.152-0.056-0.208-0.185-0.167-0.387c0.029-0.173,0.072-0.373,0.126-0.599
		c0.055-0.226,0.11-0.442,0.164-0.653c0.054-0.209,0.109-0.402,0.161-0.577c0.054-0.176,0.095-0.303,0.125-0.384
		c0.075-0.202,0.245-0.306,0.509-0.311l19.87-0.337c0.092,0,0.152,0.005,0.183,0.017c0.171,0.063,0.235,0.202,0.192,0.415
		c-0.037,0.192-0.084,0.408-0.143,0.644c-0.059,0.235-0.12,0.466-0.186,0.688c-0.065,0.224-0.128,0.426-0.19,0.609
		c-0.062,0.184-0.107,0.316-0.138,0.397c-0.064,0.171-0.182,0.26-0.355,0.265l-7.329,0.099L45.081,102.978z M43.973,102.019
		l2.095-5.675L37.5,96.448L43.973,102.019z"/>
	<path fill="#332F30" d="M56.981,87.833c0.211,0.15,0.379,0.261,0.507,0.332c0.127,0.072,0.245,0.103,0.352,0.092
		s0.215-0.075,0.326-0.193c0.112-0.12,0.251-0.296,0.42-0.534l0.929-1.299c0.5-0.7,0.891-1.284,1.172-1.751
		c0.281-0.467,0.439-0.919,0.474-1.357c0.035-0.437-0.051-0.908-0.258-1.414c-0.208-0.505-0.55-1.146-1.026-1.923l0.613-0.553
		c0.061,0.044,0.208,0.181,0.439,0.412c0.231,0.231,0.494,0.502,0.789,0.811c0.295,0.31,0.593,0.632,0.896,0.967
		c0.302,0.336,0.556,0.635,0.763,0.903c0.217,0.326,0.213,0.646-0.014,0.962c-0.477,0.651-1.069,1.46-1.775,2.429
		c-0.707,0.97-1.55,2.142-2.531,3.516l-1.558,2.18c-0.088,0.123-0.184,0.18-0.289,0.169c-0.105-0.009-0.193-0.04-0.264-0.088
		l-12.827-9.164c-0.246-0.175-0.461-0.293-0.65-0.355c-0.187-0.061-0.357-0.076-0.51-0.048c-0.153,0.03-0.293,0.095-0.419,0.197
		c-0.126,0.102-0.245,0.231-0.356,0.389c-0.138,0.192-0.262,0.394-0.375,0.606l-0.776-0.438c0.25-0.535,0.496-1.037,0.738-1.505
		c0.242-0.468,0.463-0.879,0.663-1.232c0.2-0.353,0.368-0.645,0.508-0.876c0.139-0.232,0.229-0.378,0.273-0.439
		c0.2-0.281,0.441-0.32,0.722-0.12L56.981,87.833z"/>
	<path fill="#332F30" d="M66.177,76.949c0.174,0.191,0.314,0.334,0.424,0.431c0.111,0.097,0.217,0.152,0.324,0.164
		c0.105,0.013,0.225-0.028,0.359-0.12c0.135-0.092,0.309-0.236,0.523-0.432l1.183-1.074c0.637-0.579,1.142-1.066,1.515-1.463
		c0.374-0.396,0.623-0.806,0.75-1.226c0.126-0.42,0.143-0.899,0.046-1.437c-0.095-0.538-0.294-1.237-0.597-2.097l0.717-0.41
		c0.051,0.056,0.165,0.221,0.342,0.495c0.177,0.275,0.377,0.595,0.6,0.96c0.223,0.365,0.446,0.743,0.672,1.135
		c0.225,0.391,0.409,0.739,0.555,1.043c0.142,0.365,0.07,0.677-0.217,0.938c-0.605,0.534-1.354,1.201-2.249,1.999
		c-0.897,0.798-1.968,1.766-3.218,2.901l-1.983,1.8c-0.112,0.102-0.219,0.136-0.319,0.105c-0.101-0.031-0.181-0.079-0.239-0.144
		L54.766,68.85c-0.201-0.222-0.389-0.384-0.559-0.484c-0.171-0.099-0.334-0.151-0.489-0.155c-0.155-0.003-0.306,0.031-0.451,0.104
		c-0.146,0.072-0.288,0.175-0.431,0.304c-0.175,0.16-0.34,0.331-0.492,0.513l-0.669-0.591c0.357-0.47,0.704-0.908,1.041-1.315
		c0.335-0.406,0.638-0.761,0.908-1.064c0.27-0.303,0.497-0.553,0.682-0.75c0.185-0.196,0.304-0.321,0.359-0.372
		c0.255-0.231,0.499-0.219,0.73,0.036L66.177,76.949z"/>
	<path fill="#332F30" d="M84.298,51.09c-0.355-0.486-0.734-0.866-1.139-1.143c-0.403-0.278-0.825-0.463-1.267-0.56
		c-0.441-0.097-0.892-0.107-1.352-0.034c-0.461,0.074-0.924,0.223-1.389,0.449c-0.454,0.221-0.862,0.487-1.225,0.801
		c-0.361,0.313-0.645,0.669-0.847,1.065c-0.202,0.396-0.306,0.831-0.312,1.299c-0.005,0.469,0.118,0.964,0.373,1.487
		c0.226,0.465,0.531,0.811,0.915,1.036c0.384,0.226,0.823,0.372,1.315,0.438c0.491,0.066,1.028,0.079,1.605,0.036
		c0.578-0.04,1.175-0.091,1.791-0.151c0.688-0.059,1.386-0.101,2.091-0.127c0.705-0.025,1.377,0.035,2.015,0.18
		c0.638,0.146,1.227,0.409,1.765,0.794c0.539,0.383,0.995,0.958,1.365,1.722c0.325,0.668,0.517,1.304,0.577,1.908
		c0.061,0.605,0.017,1.179-0.132,1.724c-0.148,0.544-0.381,1.055-0.7,1.531c-0.318,0.478-0.695,0.92-1.131,1.329
		c-0.436,0.409-0.916,0.781-1.439,1.118c-0.524,0.338-1.057,0.638-1.598,0.901c-0.649,0.315-1.313,0.589-1.995,0.823
		c-0.681,0.235-1.376,0.435-2.085,0.599c-0.097,0.022-0.186,0.017-0.269-0.021c-0.083-0.037-0.147-0.087-0.19-0.15
		c-0.118-0.195-0.281-0.482-0.491-0.865c-0.21-0.382-0.42-0.773-0.632-1.172c-0.211-0.4-0.402-0.762-0.571-1.086
		c-0.169-0.323-0.268-0.516-0.296-0.573l0.69-0.425c0.35,0.547,0.745,0.977,1.189,1.289c0.443,0.31,0.914,0.516,1.411,0.615
		c0.497,0.099,1.011,0.101,1.544,0.004s1.071-0.277,1.612-0.54c0.484-0.235,0.926-0.518,1.327-0.85
		c0.401-0.333,0.719-0.707,0.953-1.125c0.232-0.418,0.362-0.873,0.387-1.362c0.025-0.49-0.096-1.011-0.364-1.563
		c-0.22-0.454-0.52-0.788-0.897-1c-0.378-0.212-0.813-0.35-1.306-0.416c-0.492-0.066-1.024-0.08-1.597-0.041
		c-0.574,0.04-1.167,0.082-1.777,0.127c-0.693,0.05-1.395,0.082-2.104,0.097s-1.387-0.053-2.029-0.208
		c-0.644-0.156-1.238-0.431-1.784-0.83c-0.545-0.398-1.009-0.99-1.39-1.774c-0.459-0.947-0.659-1.832-0.596-2.652
		s0.303-1.57,0.72-2.25c0.417-0.681,0.97-1.29,1.66-1.828c0.689-0.537,1.436-1,2.239-1.392c0.533-0.258,1.133-0.499,1.803-0.722
		c0.669-0.222,1.312-0.4,1.929-0.532c0.097-0.023,0.187-0.016,0.271,0.021c0.083,0.038,0.147,0.087,0.189,0.151
		c0.118,0.193,0.274,0.467,0.47,0.82c0.195,0.354,0.393,0.712,0.593,1.076c0.201,0.364,0.378,0.692,0.533,0.988
		c0.155,0.295,0.248,0.473,0.275,0.53L84.298,51.09z"/>
	<path fill="#332F30" d="M94.879,55.151l-0.631,7.114c-0.011,0.125-0.085,0.218-0.225,0.279c-0.181,0.072-0.39,0.146-0.625,0.221
		c-0.235,0.076-0.504,0.154-0.805,0.237c-0.167,0.046-0.263,0.017-0.292-0.087c-0.009-0.032-0.01-0.058-0.006-0.083l2.456-19.038
		l-0.572-0.813c-0.043-0.078-0.069-0.131-0.078-0.164c-0.043-0.155,0.031-0.276,0.219-0.361c0.157-0.077,0.344-0.158,0.56-0.246
		c0.216-0.086,0.424-0.169,0.626-0.247c0.202-0.078,0.389-0.146,0.563-0.204c0.174-0.059,0.302-0.099,0.385-0.122
		c0.208-0.057,0.39,0.021,0.549,0.234l11.825,15.968c0.054,0.075,0.085,0.128,0.095,0.159c0.049,0.176-0.029,0.308-0.227,0.396
		c-0.179,0.083-0.381,0.168-0.606,0.258c-0.228,0.09-0.45,0.173-0.668,0.25c-0.22,0.076-0.421,0.143-0.606,0.199
		c-0.185,0.057-0.32,0.096-0.403,0.119c-0.177,0.048-0.317,0.003-0.421-0.135l-4.341-5.904L94.879,55.151z M95.015,53.692
		l5.836-1.596l-5.068-6.911L95.015,53.692z"/>
	<path fill="#332F30" d="M107.38,40.195c0.563-0.178,1.099-0.336,1.607-0.475c0.508-0.138,0.96-0.254,1.356-0.347
		c0.396-0.091,0.725-0.165,0.989-0.219c0.264-0.055,0.434-0.086,0.508-0.095c0.342-0.042,0.534,0.107,0.576,0.449l2.216,17.968
		c0.031,0.256-0.078,0.421-0.33,0.495c-0.177,0.054-0.374,0.109-0.589,0.162c-0.216,0.053-0.426,0.101-0.632,0.143
		c-0.207,0.042-0.397,0.076-0.573,0.103c-0.176,0.028-0.306,0.047-0.391,0.057c-0.256,0.031-0.401-0.086-0.434-0.354L109.73,42.23
		c-0.036-0.299-0.096-0.537-0.178-0.717s-0.185-0.315-0.311-0.409c-0.125-0.093-0.267-0.151-0.428-0.175
		c-0.159-0.024-0.335-0.024-0.528,0c-0.235,0.029-0.468,0.074-0.698,0.135L107.38,40.195z"/>
	<path fill="#332F30" d="M121.038,37.986c0.117,0.002,0.209,0.041,0.271,0.112c0.063,0.071,0.137,0.162,0.22,0.271l10.805,15.048
		l-0.069-14.478c0.002-0.129,0.09-0.197,0.263-0.204c0.194-0.028,0.454-0.054,0.776-0.079c0.323-0.025,0.636-0.034,0.937-0.027
		c0.173,0.004,0.254,0.086,0.251,0.248l-0.75,15.719l-0.068,2.952c-0.002,0.129-0.088,0.197-0.262,0.204
		c-0.194,0.017-0.411,0.028-0.655,0.033c-0.242,0.004-0.486,0.004-0.735-0.001c-0.096-0.002-0.172-0.023-0.223-0.062
		c-0.053-0.039-0.107-0.102-0.156-0.19l-10.884-15.163l0.062,14.849c-0.003,0.13-0.09,0.197-0.262,0.204
		c-0.195,0.028-0.461,0.05-0.801,0.062c-0.339,0.013-0.643,0.017-0.912,0.012c-0.172-0.004-0.257-0.086-0.252-0.248l0.79-16.799
		l-1.281-1.837c-0.042-0.045-0.063-0.104-0.061-0.179c0.003-0.14,0.103-0.234,0.296-0.285c0.173-0.028,0.394-0.052,0.664-0.072
		c0.268-0.02,0.541-0.039,0.816-0.053c0.274-0.015,0.525-0.025,0.751-0.032C120.797,37.986,120.952,37.984,121.038,37.986z"/>
	<path fill="#332F30" d="M144.051,41.809c-0.683-0.152-1.252-0.26-1.706-0.323c-0.454-0.063-0.852-0.025-1.191,0.114
		c-0.34,0.139-0.656,0.408-0.947,0.804c-0.294,0.396-0.618,0.976-0.976,1.733l-0.77-0.255c0.012-0.042,0.037-0.157,0.083-0.345
		c0.049-0.188,0.11-0.41,0.183-0.67c0.075-0.259,0.154-0.544,0.241-0.855c0.087-0.312,0.175-0.615,0.261-0.909
		c0.088-0.294,0.173-0.568,0.25-0.82c0.078-0.252,0.146-0.45,0.199-0.592c0.046-0.155,0.156-0.214,0.336-0.172
		c0.95,0.235,1.86,0.455,2.73,0.66c0.868,0.206,1.67,0.39,2.405,0.554l5.243,1.173c0.736,0.165,1.545,0.34,2.43,0.526
		c0.884,0.187,1.806,0.377,2.767,0.57c0.147,0.033,0.213,0.13,0.2,0.292c-0.014,0.153-0.04,0.358-0.082,0.619
		c-0.043,0.261-0.088,0.542-0.141,0.846c-0.049,0.302-0.107,0.612-0.167,0.93c-0.059,0.317-0.116,0.607-0.171,0.871
		c-0.053,0.265-0.099,0.49-0.135,0.681c-0.037,0.19-0.061,0.307-0.069,0.348l-0.805-0.098c0-0.837-0.043-1.497-0.128-1.979
		c-0.083-0.482-0.246-0.857-0.483-1.125c-0.238-0.269-0.572-0.469-0.997-0.604c-0.43-0.134-0.99-0.278-1.683-0.434l-2.016-0.451
		l-3.703,16.549c-0.054,0.252-0.214,0.371-0.476,0.356c-0.185-0.009-0.388-0.023-0.608-0.046c-0.221-0.022-0.437-0.048-0.642-0.078
		c-0.211-0.03-0.402-0.062-0.574-0.095c-0.175-0.034-0.305-0.06-0.388-0.079c-0.252-0.056-0.348-0.216-0.29-0.478l3.754-16.785
		L144.051,41.809z"/>
	<path fill="#332F30" d="M167.75,52.726c0.133-0.586,0.172-1.123,0.115-1.608c-0.055-0.486-0.192-0.926-0.409-1.323
		c-0.218-0.397-0.507-0.745-0.863-1.043c-0.357-0.299-0.773-0.55-1.249-0.753c-0.466-0.198-0.937-0.332-1.408-0.398
		c-0.475-0.068-0.928-0.048-1.36,0.06c-0.432,0.108-0.825,0.314-1.184,0.617c-0.357,0.304-0.651,0.722-0.877,1.257
		c-0.205,0.476-0.265,0.932-0.183,1.371c0.083,0.438,0.259,0.864,0.533,1.279c0.274,0.415,0.615,0.827,1.026,1.235
		c0.411,0.409,0.84,0.826,1.291,1.251c0.497,0.481,0.987,0.979,1.467,1.495c0.48,0.515,0.877,1.062,1.188,1.639
		c0.312,0.576,0.497,1.193,0.563,1.851c0.062,0.659-0.072,1.379-0.405,2.162c-0.291,0.683-0.646,1.245-1.064,1.688
		c-0.415,0.442-0.877,0.786-1.385,1.031c-0.509,0.246-1.048,0.405-1.618,0.478c-0.569,0.074-1.151,0.08-1.745,0.019
		c-0.593-0.061-1.189-0.177-1.788-0.351c-0.599-0.174-1.175-0.378-1.729-0.614c-0.663-0.283-1.307-0.605-1.931-0.964
		c-0.623-0.36-1.229-0.753-1.82-1.181c-0.081-0.057-0.135-0.13-0.162-0.217c-0.024-0.088-0.029-0.167-0.01-0.242
		c0.068-0.216,0.179-0.529,0.329-0.938c0.15-0.41,0.309-0.824,0.471-1.246c0.163-0.422,0.312-0.804,0.443-1.145
		c0.135-0.341,0.214-0.541,0.239-0.599l0.773,0.242c-0.184,0.623-0.247,1.205-0.19,1.743c0.056,0.539,0.211,1.028,0.462,1.469
		c0.25,0.44,0.588,0.829,1.008,1.167c0.424,0.338,0.912,0.625,1.466,0.863c0.495,0.21,1.001,0.358,1.513,0.442
		c0.515,0.084,1.004,0.079,1.475-0.02c0.469-0.098,0.896-0.299,1.283-0.602c0.386-0.303,0.699-0.736,0.939-1.299
		c0.199-0.466,0.252-0.91,0.165-1.334c-0.088-0.424-0.271-0.842-0.542-1.257c-0.274-0.415-0.612-0.825-1.019-1.232
		c-0.406-0.406-0.826-0.826-1.261-1.257c-0.492-0.49-0.978-0.998-1.455-1.525c-0.478-0.524-0.869-1.081-1.176-1.667
		c-0.307-0.587-0.486-1.216-0.543-1.89c-0.059-0.673,0.083-1.411,0.425-2.212c0.413-0.969,0.952-1.7,1.61-2.19
		c0.66-0.491,1.384-0.802,2.17-0.934c0.787-0.131,1.609-0.114,2.469,0.052c0.858,0.167,1.697,0.426,2.52,0.777
		c0.543,0.232,1.118,0.527,1.727,0.885c0.606,0.359,1.162,0.727,1.668,1.106c0.081,0.059,0.135,0.13,0.16,0.218
		s0.031,0.168,0.011,0.242c-0.067,0.217-0.171,0.514-0.312,0.894c-0.139,0.379-0.278,0.764-0.419,1.154
		c-0.146,0.389-0.277,0.739-0.396,1.049c-0.119,0.312-0.194,0.497-0.219,0.555L167.75,52.726z"/>
	<path fill="#332F30" d="M171.643,55.223c0.7-0.116,1.282-0.361,1.739-0.737c0.458-0.375,0.827-0.799,1.101-1.273
		c0.23-0.401,0.397-0.808,0.5-1.22c0.103-0.414,0.153-0.8,0.151-1.162c0.011-0.105,0.049-0.189,0.116-0.25
		c0.066-0.062,0.153-0.079,0.263-0.052c0.214,0.061,0.429,0.129,0.644,0.205c0.218,0.076,0.417,0.15,0.599,0.224
		c0.181,0.073,0.34,0.144,0.476,0.21s0.232,0.115,0.286,0.148c0.131,0.075,0.205,0.162,0.224,0.26
		c0.017,0.097,0.018,0.209,0.008,0.339c-0.039,0.239-0.099,0.466-0.18,0.68c-0.081,0.215-0.182,0.424-0.299,0.629
		c-0.259,0.447-0.573,0.848-0.947,1.204c-0.375,0.355-0.792,0.655-1.256,0.896c-0.464,0.243-0.968,0.411-1.514,0.505
		c-0.545,0.094-1.118,0.099-1.713,0.015L171.643,55.223z"/>
	<path fill="#332F30" d="M177.168,75.23c-0.181-0.185-0.173-0.372,0.02-0.558l11.431-11.087c0.396-0.382,0.574-0.72,0.537-1.013
		c-0.036-0.293-0.187-0.575-0.448-0.846c-0.15-0.154-0.328-0.313-0.531-0.476l0.559-0.676c0.985,0.722,1.951,1.483,2.899,2.281
		c0.946,0.798,1.85,1.641,2.71,2.528c0.719,0.741,1.377,1.507,1.979,2.295c0.601,0.789,1.101,1.592,1.503,2.409
		c0.402,0.816,0.688,1.645,0.858,2.483c0.168,0.839,0.188,1.686,0.058,2.539c-0.132,0.854-0.433,1.711-0.902,2.571
		c-0.471,0.86-1.144,1.717-2.025,2.57c-1.164,1.131-2.403,1.93-3.711,2.396c-1.308,0.467-2.633,0.635-3.972,0.503
		c-1.341-0.131-2.668-0.546-3.976-1.247c-1.309-0.701-2.543-1.65-3.706-2.847c-0.338-0.347-0.622-0.665-0.857-0.955
		c-0.236-0.289-0.467-0.578-0.694-0.867c-0.228-0.29-0.476-0.593-0.739-0.913C177.897,76.004,177.565,75.64,177.168,75.23z
		 M179.914,76.208c0.215,0.36,0.456,0.705,0.722,1.032c0.264,0.328,0.553,0.653,0.868,0.978c0.9,0.928,1.841,1.617,2.827,2.069
		c0.987,0.453,1.981,0.671,2.985,0.656c1.003-0.016,2.006-0.256,3.005-0.724c1-0.468,1.968-1.153,2.903-2.061
		c0.888-0.861,1.568-1.78,2.045-2.758c0.476-0.978,0.731-1.978,0.765-3c0.036-1.023-0.161-2.045-0.591-3.066
		c-0.431-1.022-1.105-2.008-2.027-2.958l-0.572-0.591c-0.338-0.348-0.625-0.587-0.869-0.721c-0.242-0.134-0.487-0.075-0.742,0.171
		L179.914,76.208z"/>
	<path fill="#332F30" d="M196.371,87.327l-7.08,0.943c-0.124,0.017-0.231-0.036-0.321-0.158c-0.11-0.161-0.228-0.348-0.354-0.562
		c-0.125-0.214-0.261-0.458-0.408-0.733c-0.081-0.153-0.071-0.254,0.021-0.304c0.028-0.016,0.054-0.023,0.08-0.023l19.113-1.778
		l0.668-0.738c0.064-0.06,0.113-0.097,0.142-0.112c0.145-0.076,0.277-0.03,0.399,0.135c0.111,0.136,0.23,0.3,0.362,0.492
		c0.134,0.192,0.259,0.377,0.378,0.557s0.228,0.348,0.322,0.505c0.097,0.157,0.164,0.271,0.204,0.349
		c0.102,0.189,0.063,0.385-0.107,0.587l-12.989,15.041c-0.06,0.068-0.104,0.111-0.134,0.125c-0.161,0.085-0.307,0.041-0.437-0.134
		c-0.118-0.156-0.247-0.334-0.385-0.536c-0.136-0.201-0.268-0.4-0.389-0.597c-0.123-0.197-0.233-0.38-0.328-0.548
		s-0.163-0.291-0.203-0.367c-0.086-0.162-0.073-0.309,0.04-0.442l4.81-5.53L196.371,87.327z M197.824,87.139l2.837,5.344
		l5.631-6.459L197.824,87.139z"/>
	<path fill="#332F30" d="M214.529,97.473c0.041,0.156,0.023,0.293-0.047,0.411c-0.069,0.118-0.182,0.246-0.335,0.384l-6.844,6.471
		l8.672,1.823c0.142,0.03,0.256,0.073,0.349,0.127c0.09,0.054,0.177,0.149,0.254,0.284c0.079,0.136,0.149,0.284,0.213,0.446
		c0.063,0.161,0.122,0.319,0.181,0.471c0.054,0.152,0.103,0.293,0.142,0.422c0.038,0.129,0.067,0.23,0.084,0.303
		c0.05,0.188,0.01,0.297-0.115,0.329c-0.043,0.011-0.086,0.011-0.133,0.001c-0.049-0.011-0.101-0.02-0.156-0.028l-10.842-3.217
		l-8.021,2.042c-0.251,0.064-0.429-0.024-0.534-0.264c-0.078-0.168-0.154-0.357-0.236-0.564c-0.081-0.208-0.152-0.41-0.221-0.609
		c-0.067-0.199-0.125-0.384-0.176-0.555c-0.05-0.17-0.084-0.297-0.104-0.381c-0.064-0.25,0.034-0.408,0.295-0.475l7.973-2.031
		l6.625-6.296c0.401-0.38,0.665-0.708,0.789-0.983c0.122-0.276,0.144-0.581,0.059-0.914c-0.021-0.083-0.053-0.176-0.096-0.275
		c-0.042-0.1-0.091-0.216-0.147-0.346l0.836-0.313c0.212,0.435,0.406,0.86,0.584,1.275s0.336,0.794,0.473,1.137
		c0.138,0.343,0.247,0.631,0.329,0.865C214.462,97.247,214.511,97.4,214.529,97.473z"/>
</g>
<path fill="none" d="M48.111,131.112c0-41.424,33.581-75.004,75.005-75.004c41.423,0,75.004,33.581,75.004,75.004"/>
</svg>
