<?xml version="1.0" encoding="utf-8"?>
<!-- Generator: Adobe Illustrator 16.0.0, SVG Export Plug-In . SVG Version: 6.00 Build 0)  -->
<!DOCTYPE svg PUBLIC "-//W3C//DTD SVG 1.1//EN" "http://www.w3.org/Graphics/SVG/1.1/DTD/svg11.dtd">
<svg version="1.1" id="Layer_1" xmlns="http://www.w3.org/2000/svg" xmlns:xlink="http://www.w3.org/1999/xlink" x="0px" y="0px"
	 width="250px" height="250px" viewBox="0 0 250 250" enable-background="new 0 0 250 250" xml:space="preserve">
<path opacity="0.15" fill="#231F20" enable-background="new    " d="M96.255,227.373c-4.729,0-11.887-0.893-18.202-1.682
	c-3.967-0.495-8.462-1.057-10.019-1.057c-5.615,0-28.748-0.359-29.73-0.376c-3.922-0.062-7.07-3.259-7.07-7.182v-6.373
	c0-0.239,0.012-0.479,0.036-0.716l1.464-14.641v-20.474l-2.17-14.466c-0.093-0.616-0.104-1.24-0.036-1.859l1.099-9.883l0.6-13.749
	c-0.964-2.469-1.165-5.262-0.531-7.985c0.116-0.515,0.267-1.045,0.452-1.582l-0.163-8.61c-0.006-0.353,0.013-0.705,0.058-1.055
	l1.485-11.509l1.031-10.652l-1.378-9.645c-0.036-0.249-0.058-0.499-0.066-0.75L32.74,73.005c-0.013-0.335-0.001-0.671,0.033-1.005
	l1.087-10.503v-8.13l-1.807-13.005c-0.298-2.153,0.394-4.325,1.883-5.909c1.363-1.449,3.258-2.262,5.231-2.262
	c0.183,0,0.367,0.008,0.551,0.021l14.621,1.125c0.063,0.005,10.371,1.071,10.371,1.071l24.428-2.188
	c0.213-0.02,0.427-0.029,0.641-0.029c0.207,0,0.415,0.009,0.622,0.027l16.864,1.467c0,0,18.457-0.369,18.505-0.369
	c0.126,0,0.252,0.003,0.378,0.01l14.246,0.75c0.213,0.011,0.427,0.032,0.639,0.063c0.439,0.063,10.85,1.557,17.787,3.098
	c1.037,0.23,4.488,0.767,14.096,0.767c4.182,0,8.018-0.1,10.079-0.153c0.661-0.017,1.157-0.029,1.446-0.033
	c1.424-0.114,8.7-1.167,14.89-2.118l11.674-2.919c0.583-0.146,1.167-0.215,1.746-0.215c2.77,0,5.366,1.612,6.546,4.235l3.373,7.499
	c0.313,0.691,0.514,1.428,0.593,2.182l1.123,10.497c0.084,0.791,0.037,1.59-0.141,2.365c-1.17,5.124-2.991,13.148-3.313,14.712
	c-0.146,1.164-0.246,5.695-0.252,9.471l2.564,19.782c0.029,0.229,0.05,0.46,0.056,0.692l0.374,11.622
	c0.003,0.077,0.006,0.154,0.006,0.231v14.247c0,0.367,0,1.483-1.161,13.089c-0.514,4.932-1.838,18.597-1.838,22.903
	c0,3.95-0.34,9.002-0.564,12.345c-0.084,1.255-0.181,2.678-0.186,3.048c0,1.56-0.452,2.91-1.25,4.542
	c-0.851,3.361-2.621,8.08-6.307,13.061c-0.188,0.289-0.398,0.566-0.626,0.829c-9.282,11.915-30.663,25.964-79.846,25.964
	c-0.003,0-0.005,0-0.008,0c-2.639,0-5.365-0.042-8.106-0.119c-0.833-0.002-2.012-0.024-3.414-0.052
	c-2.062-0.044-4.628-0.095-7.221-0.095c-7.205,0-9.539,0.42-10.15,0.572C101.316,227.015,99.263,227.373,96.255,227.373z"/>
<path fill="#FFFFFF" d="M93.841,224.959c-4.729,0-11.887-0.893-18.202-1.681c-3.967-0.496-8.462-1.058-10.019-1.058
	c-5.615,0-28.748-0.358-29.73-0.376c-3.922-0.062-7.07-3.258-7.07-7.181v-6.373c0-0.24,0.012-0.479,0.036-0.716l1.464-14.641
	v-20.474l-2.17-14.467c-0.092-0.616-0.104-1.24-0.035-1.859l1.098-9.883l0.601-13.749c-0.964-2.469-1.165-5.261-0.531-7.984
	c0.116-0.514,0.267-1.044,0.452-1.583l-0.163-8.61c-0.006-0.353,0.013-0.705,0.058-1.055l1.484-11.507l1.031-10.652l-1.377-9.646
	c-0.036-0.249-0.058-0.499-0.067-0.75l-0.376-10.123c-0.013-0.335-0.001-0.671,0.033-1.005l1.087-10.503v-8.131l-1.806-13.005
	c-0.299-2.153,0.394-4.325,1.883-5.909c1.363-1.449,3.258-2.262,5.231-2.262c0.183,0,0.367,0.007,0.551,0.021l14.621,1.125
	c0.063,0.005,10.371,1.071,10.371,1.071l24.428-2.188c0.213-0.019,0.427-0.029,0.64-0.029c0.208,0,0.416,0.009,0.622,0.027
	l16.863,1.467c0,0,18.457-0.369,18.505-0.369c0.126,0,0.252,0.003,0.377,0.01l14.247,0.75c0.213,0.011,0.426,0.032,0.638,0.063
	c0.44,0.063,10.851,1.556,17.788,3.098c1.037,0.23,4.486,0.767,14.097,0.767c4.181,0,8.018-0.1,10.08-0.153
	c0.661-0.017,1.156-0.029,1.444-0.033c1.423-0.113,8.698-1.167,14.89-2.117l11.674-2.919c0.582-0.146,1.167-0.216,1.745-0.216
	c2.771,0,5.366,1.612,6.548,4.236l3.373,7.499c0.312,0.691,0.511,1.428,0.592,2.182l1.125,10.497
	c0.083,0.791,0.037,1.59-0.142,2.364c-1.169,5.125-2.992,13.148-3.313,14.712c-0.148,1.164-0.248,5.695-0.253,9.471l2.564,19.782
	c0.028,0.229,0.049,0.46,0.055,0.692l0.375,11.622c0.002,0.078,0.004,0.155,0.004,0.232v14.247c0,0.367,0,1.483-1.16,13.088
	c-0.514,4.932-1.837,18.598-1.837,22.904c0,3.949-0.341,9.001-0.565,12.344c-0.083,1.256-0.181,2.678-0.184,3.049
	c0,1.559-0.454,2.91-1.252,4.541c-0.85,3.362-2.621,8.08-6.306,13.061c-0.188,0.289-0.398,0.566-0.627,0.83
	c-9.28,11.915-30.662,25.963-79.844,25.963c-0.003,0-0.007,0-0.01,0c-2.637,0-5.364-0.041-8.106-0.118
	c-0.833-0.003-2.012-0.025-3.414-0.053c-2.062-0.043-4.628-0.095-7.221-0.095c-7.205,0-9.539,0.42-10.15,0.572
	C98.902,224.602,96.85,224.959,93.841,224.959z"/>
<path fill="#D3AA76" d="M36.026,36.217l1.89,13.607v9.071l-1.135,10.962l0.378,10.206l1.512,10.583l-1.135,11.717l-1.512,11.718
	l0.32,16.914l-0.698,15.97l-1.134,10.207l2.268,15.12v12.096v9.447l-1.512,15.12v6.426c0,0,24.191,0.379,29.861,0.379
	c5.669,0,28.726,4.157,32.129,2.268c3.401-1.891,19.655-1.135,24.19-1.135c4.536,0,14.741-0.755,18.899-0.755
	s24.947-12.095,24.947-12.095l9.449,0.379l7.56-3.779l4.537-4.537c0,0,18.521-1.512,17.765-3.024
	c-0.755-1.512,6.425-12.095,6.425-13.607c0-1.512,0.755-9.828,0.755-15.497c0-5.67,1.891-23.814,1.891-23.814
	s1.134-11.341,1.134-12.474c0-1.134,0-14.364,0-14.364l-0.378-11.718l-2.646-20.412c0,0,0-9.45,0.379-11.339
	s3.403-15.12,3.403-15.12l-1.135-10.583l-3.402-7.56l-12.095,3.024c0,0-14.741,2.268-16.253,2.268s-20.789,0.756-27.594-0.756
	c-6.803-1.512-17.388-3.024-17.388-3.024l-14.364-0.755L104.44,37.73l-17.387-1.512L61.73,38.485l-10.961-1.134L36.026,36.217z"/>
<path fill="#B58E64" d="M128.256,130.713c0,0-5.292,14.741,0.755,21.923l-2.268,3.402l-7.938-27.593l-3.796,3.803
	c0,0-6.788,35.76,41.595,43.32l-3.778,4.537l-3.026,5.416l-3.401,4.537l-2.458,6.615l-2.834,5.291l-6.048,4.725l-13.608,10.205
	l54.81-10.205l23.057-16.631l9.449-8.315c0,0,3.779-31.373-10.583-47.627l-40.445,15.12L128.256,130.713z"/>
<path fill="#2270AA" d="M208.011,87.623c0,0-13.607,19.655-49.139,2.646c-35.53-17.009-63.124,4.537-63.124,4.537V63.81
	c0,0,27.593-21.545,63.124-4.536c35.531,17.01,49.139-2.646,49.139-2.646V87.623z"/>
<path fill="#BE3926" d="M95.749,94.805c0,0,27.593-21.545,63.124-4.536c35.531,17.01,49.139-2.646,49.139-2.646V125.8
	c0,0-13.607,19.654-49.139,2.646c-35.53-17.009-63.124,4.536-63.124,4.536V94.805z"/>
<path fill="#E2E2E2" d="M95.749,63.432c0,0,27.279-10.079,52.604,22.806c0,0-28.198,13.931-52.604,47.122V63.432z"/>
<g id="Layer_2">
</g>
<polygon fill="#FFB000" points="100.553,112.557 102.297,114.968 105.271,114.898 103.517,117.301 104.502,120.108 101.675,119.184 
	99.31,120.988 99.315,118.013 96.868,116.32 99.7,115.407 "/>
<polygon fill="#FFB000" points="100.216,64.545 101.936,66.974 104.91,66.936 103.131,69.321 104.087,72.139 101.27,71.183 
	98.885,72.963 98.923,69.987 96.492,68.271 99.334,67.386 "/>
<g>
	<path fill="#FFB000" d="M124.593,89.104l1.207-1.071l-1.208-1.072l-5.328,0.486c-0.024-0.257-0.067-0.506-0.122-0.753l4.305-0.548
		l-0.027-0.22l-4.332,0.551c-0.15-0.569-0.38-1.105-0.677-1.596l3.465-2.682l-0.138-0.175l-3.445,2.667
		c-0.138-0.214-0.291-0.417-0.455-0.61l4.135-3.443l0.097-1.61l-1.612,0.095l-3.454,4.151c-0.198-0.16-0.408-0.302-0.625-0.436
		l2.694-3.48l-0.176-0.137l-2.708,3.499c-0.488-0.276-1.021-0.484-1.583-0.617l0.563-4.427l-0.221-0.027l-0.56,4.401
		c-0.245-0.048-0.496-0.078-0.752-0.097l0.498-5.45l-1.071-1.208l-1.073,1.208l0.5,5.472c-0.253,0.029-0.501,0.078-0.746,0.137
		l-0.568-4.463l-0.221,0.027l0.572,4.492c-0.537,0.152-1.043,0.376-1.508,0.661l-2.791-3.605l-0.177,0.137l2.776,3.586
		c-0.209,0.139-0.409,0.293-0.6,0.456l-3.56-4.276l-1.61-0.096l0.097,1.61l4.289,3.571c-0.159,0.196-0.3,0.402-0.434,0.618
		l-3.621-2.803l-0.137,0.176l3.641,2.818c-0.264,0.462-0.465,0.96-0.602,1.488l-4.583-0.583l-0.028,0.22l4.554,0.581
		c-0.052,0.243-0.092,0.491-0.115,0.743l-5.585-0.511l-1.207,1.071l1.208,1.07l5.582-0.509c0.023,0.253,0.063,0.501,0.115,0.746
		l-4.553,0.577l0.028,0.223l4.58-0.583c0.136,0.53,0.338,1.033,0.604,1.497l-3.643,2.82l0.136,0.176l3.624-2.804
		c0.133,0.214,0.275,0.423,0.434,0.618l-4.29,3.571l-0.097,1.611l1.611-0.096l3.562-4.279c0.191,0.164,0.391,0.318,0.601,0.455
		l-2.777,3.589l0.176,0.137l2.793-3.608c0.465,0.284,0.971,0.509,1.507,0.661l-0.572,4.491l0.222,0.028l0.568-4.464
		c0.243,0.06,0.491,0.108,0.745,0.137l-0.5,5.473l1.072,1.208l1.073-1.208l-0.499-5.451c0.255-0.018,0.506-0.047,0.752-0.096
		l0.561,4.402l0.221-0.027l-0.564-4.426c0.562-0.134,1.095-0.342,1.583-0.619l2.709,3.498l0.176-0.137l-2.694-3.478
		c0.216-0.133,0.426-0.278,0.624-0.436l3.453,4.148l1.612,0.096l-0.098-1.611l-4.134-3.441c0.163-0.193,0.317-0.396,0.456-0.609
		l3.443,2.666l0.138-0.177l-3.464-2.681c0.299-0.492,0.528-1.03,0.678-1.599l4.331,0.553l0.028-0.222l-4.304-0.548
		c0.055-0.247,0.097-0.498,0.122-0.754L124.593,89.104z"/>
</g>
<polygon fill="#FFB000" points="137.186,80.205 138.216,82.995 141.099,83.73 138.761,85.571 138.953,88.541 136.48,86.887 
	133.715,87.987 134.523,85.124 132.623,82.835 135.596,82.719 "/>
<g>
	<path fill="#65CBE4" d="M101.826,51.752c-16.709-23.784-43.133-3.666-43.133-3.666c-15.497,8.203-10.687,25.476-9.455,29.14
		l-0.077,0.045c-0.048,0.018-0.096,0.038-0.145,0.059c-0.352,0.176-0.625,0.385-0.956,0.59c-0.599,0.478-1.202,1.079-1.591,1.889
		c-0.39,0.808-0.504,1.767-0.412,2.696c0.198,1.875,1.051,3.659,2.028,5.397c0.125,0.217,0.25,0.434,0.377,0.653l0.096,0.164
		c0.026,0.044,0.012,0.02,0.015,0.027l0.042,0.092c0.057,0.126,0.118,0.242,0.178,0.362c0.245,0.471,0.515,0.919,0.799,1.367
		c0.573,0.889,1.203,1.761,1.9,2.603c0.938,1.124,1.94,2.173,3.118,3.009c0.315,0.218,0.644,0.42,0.991,0.595
		c0.111,0.342,0.297,0.792,0.571,1.336c0.364,0.8,0.977,1.832,1.418,3.1c0.091,0.321,0.188,0.651,0.268,0.997
		c0.039,0.358,0.118,0.708,0.138,1.095c0.077,0.769,0.038,1.579-0.02,2.427c-0.133,1.639-0.4,3.21-0.513,4.614
		c-0.025,0.291-0.042,0.571-0.054,0.846c-0.086,0.013-0.184,0.034-0.304,0.076c-0.352,0.115-0.829,0.346-1.414,0.654
		c-0.52,0.216-1.211,0.598-1.997,0.96c-0.203,0.084-0.372,0.151-0.605,0.229c-0.229,0.071-0.46,0.161-0.702,0.223
		c-0.479,0.143-0.996,0.269-1.539,0.406c-1.046,0.26-2.094,0.536-2.951,1.044c-0.218,0.107-0.404,0.285-0.589,0.419
		c-0.175,0.155-0.323,0.333-0.465,0.488c-0.117,0.182-0.221,0.355-0.315,0.517c-0.068,0.174-0.122,0.34-0.17,0.489
		c-0.236,0.768-0.212,1.386-0.147,1.787c0.016,0.089,0.032,0.166,0.048,0.235c-0.867,0.238-1.871,0.669-2.904,1.315
		c-1.406,0.911-2.898,2.196-4.063,3.937c-0.555,0.843-1.014,1.742-1.23,2.707c-0.22,0.949-0.15,2.039,0.409,2.849
		c0.561,0.804,1.398,1.159,2.079,1.317c0.346,0.11,0.68,0.115,0.985,0.165c0.307,0.021,0.592,0.016,0.853,0.018
		c0.653-0.025,1.171-0.09,1.555-0.178l20.034,2.482l12.104,1.364l6.82,5.626l0.583-0.279c0.217,0.022,0.447,0.034,0.704,0.012
		c0.653-0.046,1.395-0.282,2.121-0.672c0.73-0.387,1.457-0.917,2.197-1.472c0.376-0.282,0.745-0.548,1.154-0.813l0.839,0.11
		c-0.056,0.044-0.088,0.078-0.08,0.109c0.04,0.147,0.563,0.051,1.451,0.071l2.012,0.261l1.974,1.254
		c1.11,0.874,2.264,2.007,3.777,2.991c0.763,0.481,1.64,0.932,2.67,1.093c0.252,0.06,0.519,0.054,0.785,0.053
		c0.269,0.02,0.532-0.038,0.798-0.083c0.52-0.078,1.096-0.29,1.566-0.704c0.47-0.419,0.755-1.002,0.873-1.566
		c0.13-0.569,0.124-1.128,0.083-1.671c-0.091-1.089-0.368-2.125-0.675-3.151c-0.32-1.064-0.69-2.061-0.981-3.059
		c-0.312-1.011-0.64-2.01-1.075-2.965c-0.118-0.235-0.229-0.473-0.353-0.706c-0.143-0.228-0.259-0.463-0.42-0.675l-0.238-0.318
		l-0.06-0.08l-0.016-0.017l0.014,0.017c0.011,0.017-0.019-0.026-0.026-0.037c-0.052-0.074-0.103-0.147-0.165-0.206
		c-0.235-0.251-0.504-0.406-0.753-0.524c-0.494-0.231-0.987-0.34-1.305-0.489c-0.044-0.018-0.06-0.036-0.093-0.05
		c-0.016-0.02,0.024,0.037-0.016-0.007c-0.014-0.006-0.01-0.028-0.037-0.023l-0.08,0.014l-0.01,0.001
		c-0.024,0.009,0.165-0.064,0.084-0.035l-0.002-0.005l-0.005-0.013l-0.01-0.018c-0.014-0.026-0.029-0.053-0.047-0.079
		c-0.033-0.052-0.033-0.126-0.06-0.185c-0.002-0.084-0.017-0.153-0.017-0.251c-0.015-0.364,0.115-0.886-0.133-1.496
		c-0.03-0.083-0.055-0.126-0.079-0.171l-0.074-0.139l-0.146-0.276c-0.096-0.184-0.191-0.365-0.284-0.545
		c-0.373-0.722-0.74-1.422-1.153-2.062c-0.411-0.638-0.875-1.215-1.401-1.669c-0.524-0.451-1.094-0.791-1.654-0.972
		c-0.685-0.212-1.244-0.239-1.615-0.213c-0.052,0.005-0.093,0.012-0.139,0.017c-0.05-0.516-0.113-0.949-0.204-1.226
		c-0.036-0.456-0.036-0.834-0.029-1.142c0.072-0.016,0.144-0.027,0.217-0.044c1.577-0.375,3.116-1.077,4.436-2.093
		c1.337-0.993,2.476-2.244,3.464-3.599c0.996-1.354,1.824-2.832,2.574-4.355c1.097-2.244,1.963-4.536,2.728-6.804
		c0.732-2.274,1.493-4.466,2.104-6.697c0.599-2.221,1.045-4.472,0.997-6.716c-0.042-1.117-0.161-2.235-0.52-3.286
		c-0.062-0.268-0.198-0.522-0.297-0.781c-0.105-0.261-0.212-0.518-0.354-0.736c-0.055-0.097-0.165-0.281-0.144-0.253l-0.052-0.295
		c-0.053-0.227-0.045-0.458-0.069-0.688c-0.016-0.922,0.221-1.831,0.552-2.718c0.327-0.892,0.728-1.771,1.001-2.709
		c0.146-0.465,0.236-0.953,0.296-1.437c0.016-0.121,0.015-0.245,0.021-0.367c-0.003-0.12,0.028-0.236-0.002-0.411
		c-0.042-0.228-0.083-0.456-0.123-0.68c-0.089-0.447-0.149-0.9-0.26-1.324c-0.111-0.425-0.222-0.843-0.332-1.257
		c-0.442-1.635-0.951-3.178-1.217-4.581c-0.192-1.265-0.44-2.425-0.637-3.516c0.222-0.754,1.19-4.253,0.508-5.922
		C107.279,53.116,101.826,51.752,101.826,51.752"/>
	<path fill="#179BA5" d="M49.358,81.97c0,0-0.98,1.661,0.043,2.385c1.022,0.726,2.387-1.235,3.41-0.936
		c1.022,0.297,0.042,1.32,0.042,1.32s1.065,4.006,2.557,4.859s-1.066,2.856-1.066,2.856l5.072,1.917c0,0,1.463-0.772-0.569-4.137
		c-2.03-3.365-2.671-3.194-1.988-4.004c0.681-0.81-1.023-2.515-1.023-2.515l0.085-1.023l-1.45-3.024l-2.301-0.255
		C52.171,79.414,49.358,81.671,49.358,81.97z"/>
	<path fill="#179BA5" d="M76.167,46.551c0,0-1.343,20.01,2.494,21.034c0,0-6.096,2.047-2.122,4.188l0.14,4.698
		c0,0-7.161,0.084-7.417,3.581c-0.255,3.495,0.768,13.297,7.927,14.832c0,0,4.603,6.393,4.603,7.927
		c0,1.535,3.323,14.065,16.878,9.207l0.17,0.425c0,0-3.153,3.324-10.996,3.581c-7.843,0.255,3.496,2.813,3.496,2.813l1.899,3.609
		l-4.076,5.409c0,0-1.063-3.051-5.069-4.757c-4.005-1.706-18.752-4.007-25.146-18.411l-1.96-5.541l-0.938-2.642
		c0,0,1.692,1.288,2.806,0.473c1.115-0.814,0.464-1.838,0.464-1.838s2.612,1.535,2.698-1.107c0.085-2.643-1.705-15.684-9.718-16.962
		c-8.012-1.279,5.199-26.427,5.199-26.427S70.54,40.159,76.167,46.551z"/>
	<g>
		<path fill="#048294" d="M58.693,48.086c-15.512,8.212-10.677,25.513-9.45,29.152c-0.075,0.027-0.15,0.057-0.226,0.092
			c-0.353,0.176-0.625,0.385-0.956,0.59C47.463,78.399,46.86,79,46.47,79.811c-0.389,0.808-0.503,1.767-0.412,2.696
			c0.198,1.875,1.052,3.659,2.028,5.397c0.125,0.217,0.25,0.434,0.377,0.653l0.096,0.164c0.025,0.044,0.012,0.02,0.015,0.027
			l0.042,0.092c0.057,0.126,0.118,0.242,0.178,0.362c0.245,0.471,0.515,0.919,0.799,1.367c0.573,0.889,1.203,1.761,1.9,2.603
			c0.937,1.124,1.94,2.173,3.118,3.009c0.315,0.218,0.644,0.42,0.991,0.595c0.111,0.342,0.297,0.792,0.571,1.336
			c0.364,0.8,0.976,1.832,1.418,3.1c0.091,0.321,0.188,0.651,0.267,0.997c0.04,0.358,0.118,0.708,0.138,1.095
			c0.078,0.769,0.038,1.579-0.019,2.427c-0.134,1.639-0.401,3.21-0.513,4.614c-0.025,0.291-0.042,0.571-0.054,0.846
			c-0.086,0.013-0.185,0.034-0.304,0.076c-0.352,0.115-0.829,0.346-1.414,0.654c-0.52,0.216-1.211,0.598-1.996,0.96
			c-0.203,0.084-0.372,0.151-0.605,0.229c-0.229,0.071-0.461,0.161-0.703,0.223c-0.479,0.143-0.996,0.269-1.539,0.406
			c-1.046,0.26-2.094,0.536-2.95,1.044c-0.218,0.107-0.404,0.285-0.588,0.419c-0.175,0.155-0.324,0.333-0.465,0.488
			c-0.117,0.182-0.221,0.355-0.315,0.517c-0.068,0.174-0.123,0.34-0.171,0.489c-0.235,0.768-0.211,1.386-0.147,1.787
			c0.016,0.089,0.032,0.166,0.048,0.235c-0.867,0.238-1.871,0.67-2.904,1.315c-1.406,0.911-2.898,2.196-4.063,3.937
			c-0.555,0.843-1.014,1.742-1.23,2.707c-0.22,0.949-0.15,2.039,0.409,2.849c0.561,0.804,1.397,1.159,2.079,1.317
			c0.346,0.11,0.679,0.115,0.986,0.165c0.307,0.021,0.592,0.016,0.853,0.018c0.754-0.027,1.339-0.11,1.73-0.219
			c0.393-0.099,0.596-0.187,0.586-0.267c-0.009-0.081-0.229-0.129-0.621-0.151c-0.393-0.014-0.96-0.037-1.662-0.093
			c-0.238-0.037-0.5-0.06-0.771-0.109c-0.261-0.074-0.564-0.101-0.838-0.216c-0.572-0.175-1.155-0.495-1.481-1.019
			c-0.325-0.52-0.385-1.247-0.199-2.025c0.185-0.777,0.589-1.576,1.093-2.337c1.056-1.582,2.432-2.809,3.7-3.705
			c1.289-0.877,2.499-1.417,3.407-1.674c0.784-0.218,1.37-0.283,1.693-0.349c0.013,0.005,0.021,0.008,0.035,0.013
			c0.308,0.125,0.72,0.392,1.191,0.815c0.587,0.507,1.224,1.208,1.925,2.029c0.706,0.822,1.459,1.773,2.385,2.759
			c0.235,0.246,0.481,0.492,0.752,0.734c0.139,0.119,0.281,0.239,0.435,0.354c0.157,0.117,0.328,0.226,0.479,0.31
			c0.315,0.181,0.635,0.365,0.959,0.554c0.326,0.184,0.673,0.331,1.017,0.505c1.387,0.647,2.896,1.208,4.48,1.642
			c3.065,0.86,6.002,1.335,8.542,1.764c2.544,0.423,4.703,0.798,6.3,1.13c0.716,0.127,1.281,0.237,1.677,0.296
			c0.396,0.05,0.623,0.045,0.647-0.03c0.024-0.078-0.159-0.203-0.525-0.372c-0.365-0.172-0.912-0.385-1.618-0.598
			c-1.587-0.479-3.759-0.958-6.295-1.438c-2.533-0.492-5.439-0.992-8.423-1.828c-1.543-0.422-2.996-0.955-4.325-1.56
			c-0.328-0.16-0.662-0.298-0.973-0.469c-0.309-0.172-0.614-0.342-0.915-0.508c-0.57-0.3-1.022-0.748-1.484-1.2
			c-1.794-1.852-3.216-3.645-4.616-4.624c-0.57-0.396-1.121-0.623-1.535-0.65c-0.157-0.012-0.275,0.003-0.373,0.025
			c-0.365-0.06-0.903-0.081-1.593,0.017c-0.18,0.023-0.372,0.06-0.57,0.104c0.007-0.047,0.016-0.09,0.022-0.143
			c0.053-0.377,0.143-0.93,0.402-1.516c0.225-0.452,0.645-0.935,1.359-1.285c0.709-0.36,1.667-0.602,2.727-0.862
			c0.547-0.138,1.087-0.276,1.598-0.445c0.259-0.077,0.495-0.177,0.731-0.265c0.228-0.086,0.497-0.209,0.708-0.319
			c0.847-0.471,1.458-0.932,1.904-1.281c0.54-0.381,0.954-0.688,1.23-0.895c0.043-0.036,0.074-0.058,0.109-0.084
			c-0.016,0.911,0.051,1.717,0.187,2.348c0.033,0.164,0.07,0.313,0.108,0.456c-0.169-0.253-0.326-0.48-0.469-0.678
			c-0.128-0.209-0.215-0.402-0.309-0.55c-0.178-0.299-0.309-0.453-0.381-0.431c-0.071,0.022-0.067,0.219,0.01,0.579
			c0.042,0.178,0.085,0.405,0.178,0.653c0.11,0.241,0.243,0.52,0.398,0.83c0.749,1.361,2.494,2.824,4.795,3.736
			c1.143,0.482,2.406,0.88,3.726,1.265c1.318,0.388,2.702,0.762,4.048,1.28c0.328,0.137,0.651,0.274,0.974,0.408
			c0.332,0.131,0.659,0.26,0.984,0.389c0.641,0.257,1.265,0.518,1.871,0.78c1.211,0.526,2.347,1.057,3.381,1.597
			c2.068,1.072,3.738,2.173,4.741,3.208c0.497,0.491,0.801,0.951,0.982,1.286c0.062,0.111,0.107,0.201,0.147,0.282
			c-0.274,0.173-0.585,0.415-0.917,0.754c-0.567,0.375-1.353,1.302-1.864,2.564c-0.523,1.21-0.538,2.472-0.291,3.141
			c0.109,0.793,0.523,1.325,0.79,1.632c0.335,0.267,0.529,0.363,0.58,0.304s-0.043-0.262-0.245-0.556
			c-0.136-0.34-0.39-0.793-0.401-1.464c0.059-0.582,0.148-1.565,0.606-2.639c0.45-1.109,1.052-1.985,1.352-2.521
			c0.759-1.017,1.4-1.383,1.319-1.537c-0.023-0.063-0.273-0.03-0.646,0.158c-0.004-0.078-0.015-0.16-0.033-0.254
			c-0.084-0.426-0.346-1.022-0.828-1.626c-1.001-1.25-2.705-2.479-4.799-3.639c-1.049-0.583-2.201-1.147-3.428-1.694
			c-0.615-0.275-1.246-0.545-1.896-0.809c-0.321-0.128-0.645-0.258-0.973-0.388c-0.331-0.139-0.664-0.28-1-0.42
			c-1.429-0.55-2.836-0.92-4.152-1.292c-1.317-0.368-2.548-0.733-3.645-1.16c-1.617-0.596-2.888-1.404-3.772-2.243
			c-0.072-0.369-0.165-0.864-0.214-1.491c-0.041-0.845-0.004-1.984,0.181-3.336c0.167-1.354,0.461-2.916,0.603-4.642
			c0.062-0.889,0.094-1.777-0.003-2.609c-0.032-0.416-0.128-0.836-0.19-1.232c-0.102-0.392-0.227-0.768-0.348-1.122
			c-0.567-1.396-1.292-2.39-1.776-3.099c-0.171-0.251-0.322-0.478-0.456-0.678c0.083,0.028,0.164,0.062,0.249,0.086
			c0.72,0.199,1.583,0.204,2.286-0.186c0.358-0.184,0.599-0.385,0.881-0.632c0.255-0.248,0.565-0.558,0.632-1.107
			c0.032-0.267-0.054-0.558-0.187-0.75c-0.128-0.208-0.284-0.336-0.434-0.457c-0.303-0.221-0.604-0.358-0.898-0.476
			c-0.591-0.226-1.165-0.359-1.724-0.467c-0.28-0.051-0.554-0.095-0.829-0.132c-0.136-0.016-0.271-0.03-0.404-0.045
			c-0.008,0-0.025,0.003-0.034-0.006c-0.01-0.006,0.001,0.004-0.018-0.01l-0.082-0.056l-0.078-0.054l-0.079-0.054
			c-0.745-0.517-1.458-0.935-2.077-1.368c-0.306-0.216-0.601-0.425-0.851-0.654c-0.271-0.209-0.486-0.45-0.692-0.678
			c-0.265-0.235-0.419-0.509-0.601-0.719c-0.186-0.208-0.29-0.422-0.402-0.584c-0.216-0.327-0.371-0.498-0.447-0.471
			c-0.074,0.027-0.05,0.248,0.065,0.647c0.062,0.198,0.123,0.451,0.279,0.708c0.151,0.259,0.286,0.59,0.542,0.881
			c0.214,0.269,0.441,0.551,0.724,0.797c0.265,0.268,0.567,0.507,0.882,0.752c0.63,0.485,1.338,0.937,2.03,1.45l0.073,0.054
			l0.073,0.052l0.077,0.056c0.034,0.021,0.099,0.082,0.151,0.099c0.114,0.038,0.217,0.085,0.346,0.104
			c0.126,0.018,0.254,0.036,0.384,0.053c0.253,0.041,0.512,0.088,0.771,0.142c0.517,0.113,1.047,0.251,1.538,0.45
			c0.242,0.1,0.475,0.219,0.649,0.352c0.175,0.143,0.226,0.249,0.202,0.283c0.005,0.058-0.11,0.257-0.308,0.423
			c-0.184,0.159-0.44,0.361-0.652,0.456c-0.425,0.233-0.951,0.235-1.492,0.088c-0.545-0.161-1.093-0.462-1.615-0.832
			c-1.046-0.748-2.004-1.743-2.897-2.816c-0.667-0.805-1.276-1.645-1.826-2.492c-0.271-0.424-0.531-0.853-0.755-1.277
			c-0.053-0.107-0.111-0.213-0.157-0.317l-0.037-0.079c-0.021-0.052-0.068-0.13-0.075-0.14l-0.095-0.16
			c-0.125-0.212-0.25-0.425-0.372-0.634c-0.967-1.68-1.768-3.362-1.962-4.958c-0.093-0.793-0.013-1.55,0.274-2.189
			c0.288-0.641,0.762-1.149,1.258-1.582c0.272-0.18,0.553-0.404,0.793-0.536c0.237-0.125,0.513-0.211,0.8-0.264
			c0.571-0.112,1.148-0.135,1.678-0.173c0.659-0.055,1.201-0.131,1.567-0.26c0.236-0.081,0.38-0.177,0.451-0.254
			c2.819,0.21,4.794,1.63,4.794,1.63l2.386,4.433c-0.512-7.84,9.035-23.355,9.035-23.355c-5.626-8.013-0.513-13.126-0.513-13.126
			c9.376,0.17,17.219,7.501,17.219,7.501c8.182-6.99,15.002-2.472,15.002-2.472C85.117,27.968,58.693,48.086,58.693,48.086z"/>
		<path fill="#048294" d="M58.017,87.695c0.046-0.064,0.093-0.129,0.141-0.196c0.059-0.064,0.12-0.129,0.181-0.194
			c0.071-0.061,0.143-0.124,0.216-0.187c0.023-0.017,0.031-0.03,0.063-0.052l0.124-0.081l0.254-0.166
			c0.16-0.109,0.363-0.231,0.58-0.358c0.107-0.064,0.214-0.127,0.321-0.191l0.082-0.049c0.021-0.016,0.079-0.032,0.029-0.048
			l-0.157-0.097c-0.218-0.135-0.438-0.271-0.662-0.41c-0.119-0.07-0.22-0.146-0.327-0.22l-0.273-0.193
			c-0.12-0.079-0.24-0.159-0.363-0.24c-0.257-0.157-0.537-0.305-0.849-0.427c-0.153-0.062-0.313-0.093-0.472-0.141
			c-0.113-0.032-0.086-0.024-0.089-0.025l-0.001-0.001c-0.001,0,0.002-0.005,0.002-0.006l0-0.001l0.009-0.114l0.021-0.273
			c0.021-0.182-0.015-0.371-0.021-0.559c-0.015-0.188-0.029-0.378-0.043-0.57c-0.11-0.455-0.181-0.912-0.393-1.33
			c-0.088-0.213-0.174-0.423-0.314-0.609c-0.133-0.186-0.236-0.39-0.396-0.551c-0.159-0.162-0.317-0.321-0.472-0.478
			c-0.184-0.125-0.367-0.248-0.547-0.369c-0.179-0.121-0.393-0.178-0.584-0.264c-0.191-0.092-0.399-0.12-0.6-0.155
			c-0.399-0.099-0.797-0.04-1.163-0.017c-0.355,0.099-0.709,0.155-0.99,0.331c-0.144,0.077-0.283,0.149-0.419,0.22
			c-0.124,0.086-0.233,0.184-0.342,0.27c-0.107,0.09-0.208,0.177-0.308,0.26c-0.089,0.089-0.16,0.189-0.234,0.278
			c-0.137,0.164-0.27,0.315-0.383,0.465c-0.092,0.162-0.178,0.314-0.259,0.456c-0.078,0.143-0.151,0.272-0.207,0.396
			c-0.042,0.129-0.08,0.247-0.115,0.353c-0.127,0.424-0.151,0.658-0.067,0.69c0.083,0.032,0.253-0.145,0.488-0.486
			c0.057-0.085,0.12-0.181,0.188-0.286c0.08-0.096,0.167-0.201,0.261-0.313c0.09-0.112,0.186-0.234,0.29-0.362
			c0.116-0.115,0.248-0.227,0.377-0.352c0.077-0.061,0.147-0.134,0.233-0.194c0.089-0.053,0.182-0.109,0.278-0.167
			c0.096-0.056,0.189-0.123,0.292-0.179c0.109-0.043,0.221-0.085,0.335-0.13c0.22-0.118,0.483-0.121,0.737-0.186
			c0.261,0.01,0.537-0.032,0.809,0.058c0.138,0.031,0.281,0.047,0.409,0.121c0.129,0.067,0.278,0.1,0.4,0.192
			c0.125,0.086,0.251,0.173,0.379,0.263c0.109,0.115,0.221,0.23,0.333,0.347c0.118,0.112,0.188,0.272,0.289,0.408
			c0.106,0.131,0.17,0.296,0.237,0.458c0.122,0.225,0.184,0.483,0.246,0.742l-0.631,0.09c-2.301,1.023-5.115,4.858,1.022,5.881
			h1.216c0.025,0.077,0.049,0.154,0.081,0.224c0.104,0.198,0.219,0.367,0.346,0.503c0.122,0.139,0.255,0.246,0.374,0.34
			c0.128,0.083,0.236,0.169,0.348,0.219c0.216,0.115,0.391,0.179,0.518,0.203c0.125,0.027,0.195,0.023,0.214-0.012
			c0.042-0.081-0.167-0.231-0.486-0.531c-0.086-0.069-0.159-0.165-0.253-0.254c-0.083-0.097-0.175-0.205-0.251-0.325
			c-0.081-0.119-0.144-0.254-0.2-0.395c-0.04-0.145-0.071-0.295-0.059-0.452c0.011-0.121,0.047-0.247,0.099-0.376
			C57.95,87.828,57.978,87.761,58.017,87.695z"/>
		<path fill="#048294" d="M110.107,72.269c-0.042-0.229-0.083-0.456-0.123-0.68c-0.089-0.447-0.148-0.9-0.259-1.324
			c-0.111-0.425-0.222-0.844-0.332-1.257c-0.443-1.635-0.951-3.178-1.217-4.581c-0.192-1.265-0.441-2.426-0.637-3.516
			c0.222-0.754,1.19-4.253,0.507-5.921c-0.768-1.875-6.222-3.239-6.222-3.239c2.536,2.393,4.011,5.034,4.817,6.89
			c-0.001,0.015-0.003,0.025-0.003,0.04c-0.012,0.205-0.017,0.456-0.014,0.752c0.008,0.294,0.05,0.618,0.085,0.986
			c0.172,1.288,0.452,2.659,0.645,4.122c0.266,1.56,0.742,3.065,1.157,4.699c0.101,0.404,0.203,0.816,0.306,1.231
			c0.103,0.417,0.149,0.837,0.23,1.262c0.036,0.212,0.073,0.426,0.109,0.642c0.013,0.04-0.006,0.153-0.007,0.257
			c-0.009,0.104-0.007,0.206-0.02,0.31c-0.058,0.416-0.136,0.835-0.274,1.258c-0.254,0.848-0.654,1.705-1.009,2.637
			c-0.356,0.927-0.652,1.977-0.641,3.088c0.022,0.275,0.016,0.556,0.076,0.831l0.081,0.465c0.124,0.267,0.159,0.294,0.227,0.424
			c0.138,0.216,0.225,0.438,0.31,0.659c0.083,0.226,0.199,0.432,0.252,0.678c0.315,0.933,0.419,1.955,0.453,2.987
			c0.035,2.08-0.394,4.239-0.987,6.405c-0.597,2.163-1.373,4.379-2.1,6.631c-0.757,2.236-1.611,4.489-2.677,6.667
			c-0.728,1.479-1.528,2.903-2.472,4.189c-0.937,1.289-2.002,2.455-3.227,3.368c-1.208,0.935-2.594,1.563-4.016,1.911
			c-1.435,0.323-2.909,0.349-4.333,0.157c-1.432-0.191-2.796-0.584-4.124-1.089c-0.324-0.128-0.68-0.231-1.029-0.335
			c-0.349-0.101-0.698-0.218-1.042-0.301c-0.688-0.172-1.369-0.346-2.041-0.486c-2.685-0.582-5.223-1.042-7.383-1.988
			c-0.291-0.12-0.579-0.239-0.864-0.356c-0.268-0.134-0.532-0.268-0.794-0.398c-0.255-0.149-0.507-0.297-0.758-0.442
			c-0.243-0.16-0.486-0.318-0.724-0.474c-0.944-0.649-1.802-1.359-2.6-2.062c-1.595-1.411-2.944-2.816-4.136-4.063
			c-0.95-0.917-1.544-1.408-1.656-1.306c-0.072,0.067,0.089,0.371,0.44,0.862l-0.146-0.137c0,0,5.609,12.644,17.246,14.778
			c0.103,0.018,0.209,0.037,0.315,0.055c10.071,1.666,11.767,5.609,12.048,6.755c-0.177,0.223-0.371,0.479-0.568,0.758
			c-0.45,0.583-0.841,1.119-0.975,1.496c-0.385,0.527-0.661,0.967-0.833,1.288c-0.201,0.044-0.391,0.098-0.554,0.158
			c-0.447,0.166-0.815,0.35-1.16,0.479c-0.344,0.13-0.665,0.237-0.969,0.279c-0.077,0.012-0.157,0.033-0.199,0.028
			c-0.066-0.008-0.133-0.017-0.197-0.024c-0.138-0.022-0.251-0.017-0.398-0.052c-0.632-0.128-1.146-0.231-1.503-0.277
			c-0.386-0.05-0.61-0.026-0.601,0.049c0.004,0.079,0.181,0.187,0.49,0.337c0.324,0.156,0.808,0.354,1.447,0.573
			c0.133,0.05,0.318,0.082,0.488,0.122c0.09,0.02,0.183,0.043,0.277,0.06c0.115,0.01,0.203-0.012,0.297-0.016
			c0.376-0.018,0.771-0.115,1.169-0.235c0.788-0.237,1.597-0.683,2.26-0.496c0.674,0.178,1.373,0.961,1.919,1.783
			c0.555,0.826,0.914,1.811,0.498,2.65c-0.383,0.833-1.266,1.488-2.092,2.07c-0.433,0.292-0.857,0.579-1.268,0.856
			c-0.42,0.285-0.826,0.595-1.188,0.886c-0.731,0.587-1.385,1.111-2.018,1.499c-0.629,0.391-1.229,0.637-1.769,0.742
			c-1.341,0.246-2.177-0.165-2.242,0.025c-0.034,0.073,0.143,0.212,0.52,0.411c0.387,0.152,1.007,0.357,1.816,0.287
			c0.653-0.048,1.394-0.282,2.121-0.674c0.73-0.387,1.457-0.917,2.196-1.471c0.376-0.282,0.746-0.549,1.155-0.813
			c0.419-0.271,0.851-0.552,1.293-0.84c0.445-0.306,0.902-0.627,1.344-1.023c0.434-0.4,0.868-0.876,1.153-1.497
			c0.297-0.64,0.358-1.409,0.18-2.047c-0.171-0.637-0.451-1.199-0.786-1.672c-0.165-0.241-0.326-0.479-0.517-0.688
			c-0.173-0.218-0.372-0.422-0.578-0.616c-0.414-0.38-0.902-0.738-1.511-0.871c-0.149-0.034-0.297-0.049-0.441-0.051
			c0.209-0.218,0.455-0.477,0.743-0.781c0.371-0.182,0.854-0.648,1.327-1.262c0.218-0.309,0.411-0.609,0.553-0.888
			c0.128-0.29,0.214-0.549,0.247-0.757c0.317-0.684,0.514-1.247,0.572-1.654c0.056-0.3,0.071-0.5,0.042-0.589
			c0.028-0.185,0.053-0.377,0.07-0.586c0.144-0.429,0.148-1.162,0.094-1.959c-0.009-0.114-0.017-0.218-0.025-0.326
			c0.025,0.006,0.046,0.013,0.075,0.019c0.34,0.085,0.834,0.211,1.398,0.468c0.944,0.387,1.839,1.24,2.545,2.464
			c0.362,0.606,0.694,1.291,1.048,2.022c0.089,0.183,0.18,0.368,0.271,0.556c0.083,0.176,0.208,0.397,0.263,0.543
			c0.091,0.204,0.04,0.586,0.02,1.093c-0.002,0.123,0.013,0.273,0.022,0.412c0.042,0.148,0.063,0.305,0.135,0.45l0.117,0.214
			c0.029,0.048,0.023,0.052,0.081,0.128l0.055,0.065c0.034,0.043,0.168,0.16,0.241,0.204c0.067,0.04,0.142,0.09,0.204,0.117
			c0.51,0.238,0.944,0.331,1.308,0.517c0.178,0.085,0.327,0.186,0.421,0.291c0.029,0.024,0.043,0.053,0.063,0.081l0.126,0.175
			l0.199,0.271c0.135,0.178,0.235,0.388,0.354,0.583c0.11,0.204,0.207,0.424,0.314,0.636c0.394,0.879,0.707,1.84,1.008,2.837
			c0.295,1.021,0.669,2.036,0.975,3.056c0.297,0.989,0.553,1.971,0.635,2.915c0.084,0.936-0.04,1.862-0.578,2.329
			c-0.266,0.235-0.625,0.392-1.042,0.456c-0.204,0.037-0.405,0.089-0.609,0.072c-0.202,0.004-0.404,0.014-0.605-0.035
			c-0.807-0.116-1.576-0.48-2.28-0.908c-1.411-0.878-2.593-1.972-3.779-2.848c-0.588-0.441-1.182-0.84-1.811-1.12l-0.233-0.105
			c-0.097-0.057-0.207-0.057-0.278-0.079c-0.161-0.026-0.319-0.054-0.473-0.084c-0.307-0.07-0.611-0.067-0.898-0.079
			c-0.382-0.019-0.721,0.038-1.014,0.088c-0.145,0.025-0.28,0.05-0.403,0.073c-0.119,0.041-0.228,0.078-0.326,0.113
			c-0.385,0.146-0.573,0.26-0.551,0.334c0.05,0.188,0.876-0.023,2.251,0.119c0.259,0.024,0.529,0.036,0.798,0.117
			c0.136,0.031,0.274,0.063,0.415,0.096c0.08,0.02,0.125,0.021,0.159,0.05l0.195,0.1c0.523,0.262,1.059,0.648,1.61,1.095
			c1.114,0.874,2.271,2.012,3.788,3.001c0.763,0.479,1.64,0.93,2.67,1.093c0.252,0.058,0.519,0.054,0.785,0.053
			c0.269,0.018,0.532-0.039,0.798-0.083c0.52-0.08,1.096-0.293,1.566-0.705c0.47-0.419,0.755-1.003,0.873-1.566
			c0.13-0.569,0.124-1.127,0.083-1.671c-0.091-1.087-0.368-2.124-0.675-3.15c-0.32-1.064-0.69-2.061-0.981-3.06
			c-0.312-1.011-0.64-2.01-1.075-2.964c-0.118-0.237-0.229-0.476-0.353-0.707c-0.143-0.227-0.259-0.464-0.42-0.675l-0.238-0.318
			l-0.06-0.078l-0.016-0.02l0.014,0.018c0.011,0.018-0.019-0.026-0.026-0.037c-0.052-0.073-0.103-0.146-0.165-0.205
			c-0.235-0.251-0.504-0.407-0.753-0.524c-0.494-0.231-0.987-0.341-1.305-0.489c-0.044-0.018-0.06-0.036-0.093-0.052
			c-0.016-0.019,0.024,0.039-0.016-0.005c-0.014-0.007-0.01-0.028-0.037-0.023l-0.08,0.013l-0.01,0.002
			c-0.024,0.009,0.165-0.065,0.084-0.035l-0.002-0.006l-0.005-0.013l-0.01-0.018c-0.014-0.026-0.029-0.053-0.047-0.078
			c-0.033-0.051-0.033-0.126-0.06-0.185c-0.002-0.084-0.017-0.154-0.017-0.249c-0.015-0.366,0.115-0.887-0.133-1.498
			c-0.03-0.084-0.055-0.126-0.079-0.171l-0.074-0.139l-0.146-0.276c-0.096-0.184-0.191-0.365-0.284-0.545
			c-0.373-0.721-0.74-1.422-1.153-2.062c-0.411-0.638-0.875-1.215-1.401-1.669c-0.524-0.452-1.094-0.791-1.654-0.972
			c-0.685-0.212-1.244-0.239-1.615-0.213c-0.052,0.006-0.093,0.012-0.139,0.017c-0.05-0.517-0.113-0.949-0.204-1.227
			c-0.036-0.457-0.036-0.835-0.029-1.142c0.072-0.016,0.144-0.026,0.217-0.043c1.577-0.376,3.116-1.076,4.436-2.093
			c1.337-0.994,2.476-2.244,3.464-3.599c0.996-1.354,1.824-2.832,2.574-4.355c1.097-2.244,1.963-4.536,2.728-6.804
			c0.732-2.274,1.493-4.466,2.104-6.697c0.599-2.221,1.045-4.472,0.997-6.716c-0.042-1.117-0.161-2.234-0.52-3.285
			c-0.062-0.268-0.198-0.522-0.297-0.782c-0.105-0.261-0.212-0.518-0.354-0.735c-0.055-0.098-0.165-0.281-0.144-0.255l-0.052-0.294
			c-0.053-0.227-0.045-0.458-0.069-0.688c-0.016-0.921,0.221-1.83,0.552-2.717c0.327-0.892,0.728-1.771,1.001-2.71
			c0.146-0.464,0.236-0.952,0.296-1.437c0.016-0.121,0.015-0.245,0.021-0.367C110.106,72.56,110.137,72.444,110.107,72.269z"/>
		<path fill="#048294" d="M92.778,67.903l0.019-0.172l0.022-0.292l0.023-0.637l0.013-0.318c0.026-0.078-0.059-0.042-0.104-0.047
			l-0.158,0.006c-0.366,0.015-0.732,0.029-1.094,0.044c-0.2,0.017-0.396,0.001-0.59-0.008c-0.196-0.016-0.392-0.01-0.583-0.037
			c-0.768-0.086-1.498-0.282-2.197-0.531c-0.698-0.255-1.37-0.576-2.044-0.868c-0.669-0.3-1.366-0.555-2.054-0.716
			c-0.174-0.036-0.346-0.072-0.517-0.106c-0.172-0.024-0.344-0.036-0.513-0.053c-0.338-0.048-0.668-0.02-0.988-0.016
			c-0.638,0.041-1.224,0.144-1.757,0.299c-0.134,0.036-0.267,0.071-0.396,0.105c-0.155,0.058-0.262,0.108-0.382,0.163
			c-0.229,0.108-0.438,0.217-0.635,0.322c-0.31,0.172-0.575,0.33-0.802,0.47l-3.836,1.072l-0.128,0.896l8.737,0.384l2.13,0.511
			l1.213,0.934c-0.195-0.084-0.402-0.169-0.64-0.25c-0.212-0.085-0.467-0.169-0.755-0.258c-0.29-0.079-0.224,0.611-0.579,0.545
			c-0.711-0.091-1.536-0.165-2.414-0.091c-1.811,0.108-3.381,0.722-4.089,1.341c-0.575,0.419-0.954,0.848-1.146,1.179
			c-0.181,0.343-0.237,0.537-0.171,0.574c0.155,0.095,0.573-0.571,1.685-1.157c0.773-0.294,2.144-0.716,3.796-0.82
			c1.598-0.11,3.011,0.063,3.869,0.141c0.319,0.067,0.602,0.141,0.855,0.211l-0.388,1.671c-0.121-0.058-0.243-0.115-0.36-0.176
			c-0.181-0.076-0.366-0.138-0.545-0.206c-0.18-0.071-0.361-0.133-0.549-0.17c-0.731-0.22-1.484-0.239-2.18-0.215
			c-0.696,0.064-1.353,0.193-1.935,0.402c-1.176,0.395-2.114,0.941-2.888,1.421c-0.402,0.268-0.734,0.509-1.004,0.721h-0.812
			c0,0.26,0.018,0.503,0.051,0.73c-0.019,0.039-0.028,0.071-0.016,0.091c0.007,0.01,0.025,0.013,0.041,0.017
			c0.108,0.611,0.333,1.104,0.692,1.463c3.58-1.791,9.461,7.16,11.252-0.512c6.138,1.79-0.512,9.462,0.512,12.274
			c1.279,4.091,9.717,4.859,11.763,1.278c-9.67,2.175-6.961-15.492-7.5-21.102c0.009-0.055,0.018-0.109,0.029-0.164
			C92.757,68.136,92.763,68.018,92.778,67.903z M91.519,67.596l0.162-0.007l0.002,0.001l0.007,0c0.006,0-0.001,0.004,0,0.005
			l-0.009,0.08l-0.129,0.015c0,0-0.079-0.035-0.216-0.093C91.398,67.598,91.459,67.6,91.519,67.596z"/>
		<path fill="#048294" d="M98.223,96.098c-0.512-0.128-0.704,0.704-1.342,0.575c-0.512-0.127-0.918-0.981-1.406-1.278
			c-1.104-0.671-1.694-0.799-2.974-0.543c-1.406,0.255-3.932,1.822-5.21,2.461c-0.896,0.512-1.535,0.64-1.918,1.663l0.044-0.011
			c2.429-1.023,5.839-1.268,8.268-1.14c1.278,0.128,2.942,0.128,4.348,0.383c1.533,0.256,2.813,1.278,4.347,1.535
			C102.25,97.057,100.269,96.354,98.223,96.098z"/>
		<path fill="#048294" d="M91.894,101.789c-1.407-0.386-1.023-1.343-2.302-1.598l-0.128-0.064c-1.79-0.64-3.836,2.813-3.708,4.475
			c0.384,3.325,3.452,0.257,5.498-0.383c1.406-0.512,2.429-0.64,3.963-0.384c1.406,0.256,2.813,1.79,4.091,1.79
			c2.94,0,2.365-3.324,0.319-3.963C97.455,101.022,94.322,102.172,91.894,101.789z"/>
		<path fill="#048294" d="M98.415,79.285c1.534-3.068,3.58,0.512,6.009-0.128c2.685-0.767,1.742-4.962-1.2-4.833
			c-1.15,0-1.23,0.571-2.252,0.443c-1.278-0.255-1.023-0.213-0.128-1.109c2.558-2.43,4.476,0.768,6.394,1.279
			c1.15-2.685-3.198-3.197-4.987-3.069l-0.128-0.64c3.069-1.022,4.476,0.384,6.777,2.173c1.79-3.834-7.543-5.114-9.59-5.752
			l-0.128,0.767C99.437,71.485,97.264,75.704,98.415,79.285z"/>
		<path fill="#048294" d="M80.267,128.788c-0.241-0.328-0.651-0.756-1.211-1.257c-0.552-0.458-1.225-0.984-2.074-1.431
			c-0.841-0.453-1.839-0.849-2.946-1.117c-2.21-0.559-4.806-0.569-7.397-0.79c-2.613-0.272-4.774-1.723-6.561-3.012
			c-1.787-1.321-3.348-2.481-4.605-3.125c-1.211-0.617-1.999-0.77-2.041-0.643c-0.062,0.156,0.616,0.514,1.686,1.246
			c1.131,0.748,2.567,1.943,4.349,3.345c0.899,0.69,1.904,1.418,3.073,2.038c1.165,0.619,2.519,1.109,3.974,1.264l0.523,0.058
			l0.497,0.028c0.329,0.018,0.654,0.036,0.978,0.054c0.646,0.036,1.275,0.065,1.884,0.111c1.222,0.082,2.366,0.206,3.403,0.431
			c1.038,0.221,1.964,0.547,2.766,0.922c0.805,0.369,1.471,0.813,2.037,1.193c1.174,0.82,1.828,1.385,1.956,1.258
			C80.618,129.307,80.513,129.11,80.267,128.788z"/>
	</g>
	<path fill="#048294" d="M98.478,125.06l-6.328,5.116c0,0,2.749,1.661,5.882-0.704l1.214,2.236l-1.789,1.791l-4.667,0.449
		l-4.778,3.405l10.851,3.051l2.685,1.982l4.229,0.071l-1.608-4.164c0,0-2.494,0.703-5.498-0.639l0.192-1.727
		c0,0,4.156-0.385,5.434-1.854l-1.727-5.372l-3.005-3.708l-1.342-2.237l-1.157-2.383l-2.41-1.276l-1.701-0.236l-0.872,2.042
		c0,0,2.878,0.384,2.431,2.238c-0.448,1.854-3.324,5.562-3.324,5.562s4.667-2.303,5.817-5.307l-0.128,0.959
		C96.881,124.357,96.753,125.443,98.478,125.06z"/>
	<path fill="#048294" d="M42.027,121.671c0,0,5.69,0.127,10.294,6.328l12.402,2.942l10.549,1.277l3.26,1.471l-0.511-2.174
		l1.534,0.32c0,0-6.009-3.965-5.754-6.267l1.918,0.384l1.598,0.833l0.319-0.896l-2.813-1.982l0.128-0.832l3.836,1.726l2.557,1.854
		l1.216,1.088l0.493,1.066l0.529-0.321l1.531,0.436c0,0-1.47,1.754-1.723,2.465c-0.216,0.604-0.402,1.951-0.191,2.558
		c0.178,0.514,1.47,1.597,1.47,1.597l2.494,0.191l3.667-0.479l-1.813,1.565l-2.686,1.981l-2.824,2.17l-3.969-2.616l-2.708-2.423
		l-2.804-1.262l-5.448-0.189l-12.001-1.29l-8.282-1.742l-5.306-0.128l-3.836-0.96l-1.087-3.196l1.278-4.411L42.027,121.671z"/>
	<path fill="#048294" d="M45.416,120.073c0,0,3.581,0.063,5.051,2.238c1.47,2.173,3.133,4.986,5.946,4.986l0.767-1.405
		c0,0-4.284-3.707-5.498-5.115l-1.534-1.726l-1.599-0.448l-1.939,0.028L45.416,120.073z"/>
	<path fill="#FFFFFF" d="M81.013,40.16c7.035,0,14.585,2.778,20.792,11.612c0,0,5.455,1.363,6.222,3.238
		c0.683,1.668-0.286,5.167-0.509,5.921c0.196,1.09,0.445,2.251,0.637,3.516c0.267,1.402,0.774,2.945,1.217,4.58
		c0.11,0.414,0.219,0.833,0.332,1.257c0.11,0.424,0.171,0.877,0.26,1.324c0.041,0.225,0.082,0.452,0.124,0.679
		c0.03,0.175-0.001,0.29,0.001,0.41c-0.008,0.121-0.006,0.246-0.022,0.367c-0.058,0.485-0.148,0.972-0.295,1.437
		c-0.273,0.939-0.676,1.818-1.001,2.709c-0.332,0.887-0.569,1.795-0.552,2.718c0.023,0.229,0.016,0.461,0.068,0.688l0.052,0.295
		c0-0.002-0.001-0.003-0.001-0.003c-0.004,0,0.095,0.167,0.146,0.256c0.143,0.218,0.25,0.475,0.354,0.736
		c0.099,0.259,0.235,0.515,0.297,0.781c0.359,1.051,0.479,2.169,0.52,3.286c0.047,2.246-0.398,4.494-0.998,6.717
		c-0.61,2.23-1.372,4.423-2.104,6.697c-0.766,2.268-1.631,4.56-2.728,6.804c-0.751,1.522-1.579,3-2.575,4.354
		c-0.988,1.355-2.126,2.604-3.463,3.599c-1.32,1.016-2.86,1.717-4.436,2.093c-0.072,0.016-0.144,0.028-0.217,0.043
		c-0.006,0.307-0.006,0.686,0.029,1.143c0.092,0.278,0.155,0.709,0.204,1.226c0.046-0.005,0.085-0.012,0.139-0.017
		c0.073-0.005,0.154-0.008,0.241-0.008c0.355,0,0.825,0.051,1.374,0.221c0.56,0.182,1.129,0.521,1.654,0.972
		c0.524,0.455,0.99,1.03,1.4,1.669c0.414,0.639,0.78,1.339,1.153,2.063c0.093,0.178,0.188,0.36,0.284,0.544l0.146,0.275l0.074,0.14
		c0.024,0.046,0.05,0.088,0.079,0.171c0.247,0.613,0.118,1.131,0.133,1.497c0,0.096,0.015,0.165,0.017,0.25
		c0.027,0.06,0.027,0.134,0.06,0.185c0.017,0.024,0.033,0.05,0.046,0.078l0.01,0.02l0.005,0.012l0.002,0.005
		c0.014-0.005,0.018-0.009,0.019-0.009c0.001,0-0.108,0.043-0.107,0.043c0,0,0,0,0.002,0l0.011-0.001l0.08-0.013
		c0.002,0,0.005,0,0.006,0c0.02,0,0.018,0.018,0.031,0.025c0.011,0.012,0.017,0.016,0.018,0.016c0.004,0-0.006-0.016-0.006-0.016
		s0.001,0.001,0.004,0.005c0.034,0.016,0.051,0.032,0.094,0.05c0.317,0.15,0.809,0.26,1.304,0.488
		c0.25,0.118,0.519,0.275,0.754,0.525c0.061,0.057,0.112,0.132,0.164,0.205c0.005,0.007,0.018,0.024,0.024,0.037l-0.011-0.016
		l0.015,0.017l0.06,0.08l0.238,0.316c0.161,0.209,0.279,0.449,0.42,0.676c0.126,0.23,0.235,0.468,0.353,0.705
		c0.437,0.954,0.764,1.953,1.075,2.966c0.292,0.996,0.662,1.994,0.982,3.059c0.307,1.023,0.583,2.062,0.676,3.149
		c0.041,0.546,0.046,1.102-0.084,1.672c-0.117,0.563-0.402,1.15-0.872,1.565c-0.471,0.415-1.047,0.624-1.566,0.703
		c-0.231,0.042-0.458,0.089-0.692,0.089c-0.035,0-0.07,0-0.106-0.003c-0.044,0-0.087,0-0.131,0c-0.222,0-0.443-0.008-0.653-0.055
		c-1.031-0.164-1.908-0.615-2.67-1.094c-1.513-0.985-2.666-2.117-3.777-2.992l-1.975-1.251l-2.011-0.264
		c-0.091-0.001-0.177-0.003-0.261-0.003c-0.361,0-0.646,0.016-0.848,0.016c-0.207,0-0.325-0.016-0.342-0.082
		c-0.008-0.029,0.024-0.067,0.08-0.108l-0.839-0.11c-0.409,0.264-0.779,0.531-1.154,0.813c-0.741,0.554-1.467,1.087-2.197,1.47
		c-0.726,0.392-1.467,0.627-2.121,0.673c-0.1,0.01-0.196,0.014-0.289,0.014c-0.146,0-0.282-0.011-0.415-0.023l-0.583,0.279
		l-6.82-5.625l-12.104-1.362l-20.033-2.485c-0.385,0.088-0.903,0.152-1.555,0.179c-0.058,0-0.114,0-0.173,0
		c-0.021,0-0.042,0-0.065,0c-0.194,0-0.399-0.002-0.615-0.018c-0.306-0.05-0.64-0.052-0.986-0.165
		c-0.681-0.158-1.517-0.516-2.079-1.317c-0.558-0.809-0.629-1.899-0.408-2.848c0.217-0.966,0.675-1.863,1.23-2.708
		c1.165-1.74,2.658-3.024,4.062-3.937c1.035-0.645,2.039-1.077,2.905-1.315c-0.016-0.069-0.032-0.146-0.047-0.235
		c-0.065-0.401-0.088-1.02,0.147-1.787c0.047-0.148,0.102-0.314,0.17-0.488c0.093-0.162,0.198-0.333,0.315-0.517
		c0.142-0.155,0.29-0.332,0.465-0.488c0.185-0.133,0.371-0.311,0.589-0.418c0.855-0.509,1.903-0.786,2.95-1.045
		c0.543-0.137,1.06-0.264,1.539-0.404c0.243-0.062,0.475-0.152,0.703-0.223c0.234-0.079,0.404-0.145,0.606-0.229
		c0.787-0.363,1.476-0.743,1.997-0.96c0.584-0.309,1.063-0.54,1.414-0.654c0.121-0.042,0.219-0.063,0.305-0.075
		c0.011-0.275,0.027-0.557,0.054-0.847c0.112-1.404,0.378-2.975,0.512-4.614c0.058-0.848,0.097-1.658,0.019-2.426
		c-0.02-0.388-0.099-0.738-0.138-1.095c-0.079-0.346-0.176-0.676-0.267-0.997c-0.443-1.268-1.055-2.299-1.418-3.1
		c-0.275-0.544-0.46-0.994-0.571-1.335c-0.347-0.174-0.677-0.377-0.991-0.596c-1.178-0.836-2.182-1.884-3.119-3.008
		c-0.698-0.844-1.327-1.715-1.899-2.603c-0.284-0.448-0.553-0.896-0.8-1.367c-0.061-0.119-0.121-0.237-0.178-0.362l-0.043-0.092
		c0.001,0.001,0.001,0.002,0.001,0.002s-0.002-0.006-0.016-0.028l-0.095-0.164c-0.126-0.219-0.252-0.436-0.377-0.654
		c-0.977-1.737-1.829-3.521-2.028-5.397c-0.094-0.929,0.022-1.887,0.412-2.695c0.39-0.811,0.991-1.411,1.591-1.89
		c0.331-0.205,0.604-0.414,0.956-0.589c0.048-0.022,0.097-0.042,0.144-0.06l0.077-0.045c-1.232-3.665-6.042-20.937,9.454-29.14
		C58.672,48.106,69.109,40.16,81.013,40.16 M48.553,88.768L48.553,88.768L48.553,88.768L48.553,88.768 M102.583,128.076l0.002,0.002
		c0,0.003,0.001,0.005,0.001,0.005S102.585,128.079,102.583,128.076 M81.013,37.602c-11.906,0-22.203,7.228-23.715,8.338
		c-15.137,8.148-12.726,23.987-11.08,30.19c-0.934,0.788-1.613,1.638-2.073,2.593c-0.572,1.188-0.798,2.592-0.652,4.057
		c0.256,2.417,1.328,4.588,2.343,6.397c0.004,0.008,0.009,0.016,0.015,0.024l0.378,0.654l0.054,0.094
		c0.055,0.118,0.111,0.232,0.169,0.347l0.037,0.074c0.006,0.012,0.012,0.022,0.017,0.032c0.25,0.478,0.539,0.972,0.91,1.558
		c0.653,1.017,1.353,1.976,2.087,2.862c1.259,1.51,2.404,2.609,3.609,3.465c0.141,0.097,0.281,0.189,0.418,0.279
		c0.096,0.218,0.203,0.443,0.319,0.675c0.128,0.279,0.271,0.562,0.421,0.858c0.304,0.6,0.618,1.221,0.863,1.906l0.016,0.054
		c0.062,0.216,0.12,0.422,0.169,0.62c0.016,0.118,0.032,0.235,0.051,0.352c0.027,0.17,0.049,0.319,0.056,0.429
		c0.002,0.04,0.005,0.079,0.009,0.117c0.054,0.542,0.031,1.16-0.026,1.982c-0.063,0.782-0.163,1.572-0.259,2.336
		c-0.067,0.526-0.131,1.034-0.184,1.532c-0.123,0.062-0.252,0.129-0.391,0.201c-0.332,0.144-0.679,0.318-1.042,0.5
		c-0.274,0.137-0.57,0.284-0.883,0.43c-0.136,0.056-0.236,0.095-0.365,0.139c-0.093,0.03-0.188,0.06-0.283,0.092
		c-0.101,0.034-0.207,0.071-0.268,0.085c-0.032,0.009-0.063,0.017-0.095,0.026c-0.374,0.11-0.804,0.218-1.258,0.333l-0.173,0.044
		c-1.239,0.308-2.45,0.639-3.565,1.286c-0.34,0.183-0.593,0.383-0.764,0.519c-0.028,0.022-0.056,0.045-0.082,0.064
		c-0.072,0.052-0.14,0.107-0.207,0.166c-0.245,0.219-0.438,0.435-0.577,0.591l-0.077,0.084c-0.096,0.107-0.184,0.22-0.261,0.342
		c-0.14,0.218-0.266,0.424-0.377,0.617c-0.065,0.113-0.122,0.231-0.169,0.353c-0.094,0.24-0.165,0.455-0.221,0.633
		c-0.003,0.011-0.006,0.022-0.01,0.031c-0.104,0.337-0.181,0.674-0.232,1.01c-0.566,0.261-1.131,0.566-1.682,0.91
		c-0.012,0.008-0.024,0.016-0.037,0.023c-1.967,1.274-3.581,2.842-4.797,4.66c-0.819,1.243-1.339,2.405-1.601,3.569
		c-0.408,1.757-0.118,3.534,0.799,4.862c0.812,1.163,2.023,1.965,3.513,2.333c0.43,0.124,0.806,0.168,1.061,0.195
		c0.059,0.008,0.116,0.013,0.172,0.02c0.081,0.018,0.162,0.023,0.244,0.029c0.292,0.02,0.552,0.021,0.794,0.021h0.034h0.031h0.149
		c0.009,0,0.016,0,0.023,0c0.032,0,0.064,0,0.096-0.002c0.567-0.02,1.084-0.07,1.544-0.145l19.635,2.433
		c0.01,0.002,0.019,0.003,0.028,0.006l11.35,1.278l6.234,5.144c0.467,0.385,1.044,0.582,1.627,0.582c0.374,0,0.75-0.08,1.101-0.248
		L84,142.636c0.124-0.003,0.248-0.008,0.369-0.017c1.006-0.073,2.09-0.408,3.134-0.97c0.875-0.461,1.69-1.057,2.519-1.676
		c0.025-0.018,0.05-0.04,0.075-0.056c0.199,0.033,0.415,0.053,0.648,0.053c0.106,0,0.233-0.004,0.377-0.01
		c0.134-0.003,0.294-0.01,0.472-0.01c0.024,0,0.049,0,0.075,0.002l1.308,0.173L94.357,141c0.296,0.236,0.61,0.502,0.939,0.785
		c0.832,0.709,1.772,1.51,2.927,2.263c0.011,0.007,0.02,0.016,0.031,0.02c0.79,0.497,2.012,1.183,3.558,1.444
		c0.422,0.087,0.806,0.099,1.131,0.099h0.073c0.054,0.004,0.109,0.004,0.164,0.004c0.432,0,0.792-0.065,1.056-0.114l0.056-0.011
		c0.759-0.118,1.852-0.444,2.832-1.302c0.848-0.753,1.44-1.793,1.686-2.943c0.208-0.93,0.182-1.774,0.136-2.406
		c0-0.012-0.001-0.018-0.001-0.028c-0.112-1.323-0.438-2.542-0.773-3.67c-0.166-0.55-0.336-1.061-0.503-1.56
		c-0.173-0.52-0.335-1.006-0.475-1.482c-0.003-0.015-0.008-0.023-0.01-0.035c-0.377-1.222-0.724-2.247-1.193-3.273
		c-0.013-0.027-0.027-0.058-0.041-0.084l-0.105-0.212c-0.094-0.189-0.186-0.379-0.287-0.564c-0.025-0.048-0.051-0.091-0.08-0.137
		c-0.033-0.051-0.064-0.107-0.095-0.16c-0.107-0.187-0.257-0.443-0.462-0.711l-0.228-0.302l-0.027-0.037
		c-0.003-0.005-0.006-0.01-0.009-0.013c-0.003-0.004-0.006-0.011-0.009-0.016l0,0c-0.084-0.117-0.221-0.312-0.425-0.517
		c-0.403-0.419-0.886-0.758-1.475-1.041c-0.051-0.024-0.102-0.048-0.151-0.069c-0.039-0.353-0.124-0.749-0.291-1.174
		c-0.075-0.2-0.149-0.347-0.207-0.456l-0.075-0.141l-0.145-0.274l-0.117-0.228l-0.154-0.296c-0.348-0.67-0.78-1.504-1.277-2.274
		c-0.571-0.887-1.203-1.634-1.875-2.215c-0.256-0.219-0.52-0.421-0.789-0.603c0.586-0.326,1.146-0.693,1.669-1.095
		c1.439-1.072,2.745-2.425,3.988-4.133c0.967-1.313,1.859-2.818,2.8-4.728c1.006-2.059,1.913-4.318,2.857-7.118
		c0.004-0.012,0.008-0.023,0.012-0.035c0.189-0.587,0.38-1.17,0.569-1.748c0.539-1.645,1.097-3.346,1.565-5.057
		c0.8-2.962,1.135-5.255,1.089-7.445c-0.001-0.015-0.001-0.028-0.002-0.041c-0.058-1.581-0.25-2.793-0.62-3.916
		c-0.091-0.335-0.209-0.609-0.298-0.816c-0.022-0.051-0.046-0.103-0.065-0.154c-0.005-0.015-0.011-0.029-0.017-0.042
		c-0.11-0.276-0.241-0.588-0.422-0.908c0-0.004,0-0.009,0-0.013c-0.003-0.072-0.008-0.142-0.014-0.214
		c0.004-0.461,0.129-1.006,0.391-1.706c0.11-0.301,0.225-0.586,0.337-0.872c0.249-0.624,0.505-1.271,0.717-1.993
		c0.174-0.561,0.299-1.17,0.384-1.862c0.024-0.192,0.031-0.355,0.035-0.465l0.001-0.06c0.003-0.036,0.004-0.074,0.005-0.11
		c0.014-0.177,0.029-0.484-0.035-0.874c-0.003-0.016-0.006-0.031-0.008-0.044l-0.094-0.515l-0.029-0.161
		c-0.002-0.014-0.004-0.026-0.007-0.04c-0.027-0.135-0.05-0.271-0.075-0.408c-0.055-0.323-0.119-0.687-0.22-1.069l-0.164-0.622
		l-0.167-0.633c-0.147-0.544-0.295-1.059-0.44-1.563c-0.292-1.01-0.567-1.966-0.729-2.803c-0.134-0.867-0.286-1.665-0.434-2.436
		c-0.034-0.177-0.068-0.353-0.101-0.526c0.524-1.951,1.083-4.976,0.252-7.008c-0.97-2.37-4.509-3.779-7.046-4.504
		C97.503,41.618,89.994,37.602,81.013,37.602L81.013,37.602z"/>
</g>
<g>
	<path fill="#BABABA" d="M145.426,116.645c0,0-7.559-8.305-13.029-5.423c0,0-6.009,2.251-0.072,12.606l0.004-0.002
		c0,0,2.784,0.242,3.1-2.353"/>
</g>
<path fill="#FFFFFF" d="M163.286,163.574c0.739,0,1.472-0.022,2.199-0.06c0.79,3.442,1.449,8.781-0.937,12.008
	c0,0-13.743,10.285-9.601,20.947l42.001,0.923c9.807-9.516,14.368-28.68,1.316-66.803v0.001
	c-3.008-14.125-17.119-25.005-35.146-25.005c-19.692,0-35.572,12.981-35.572,28.995C127.55,150.593,143.596,163.574,163.286,163.574
	z"/>
<path fill="#D0D2D3" d="M156.449,196.501l13.532,0.31c0.231-11.192,9.664-22.587,9.664-22.587h-0.452v-16.019
	c-7.029,4.362-12.481,4.882-12.481,4.882l3.102,12.316C157.843,178.174,156.507,190.762,156.449,196.501z"/>
<ellipse fill="#D0D2D3" cx="157.932" cy="135.219" rx="30.301" ry="22.986"/>
<ellipse fill="#FFFFFF" cx="142.457" cy="130.055" rx="11.847" ry="11.674"/>
<path fill="#FFFFFF" d="M169.088,115.291c8.264,0,14.962,6.656,14.962,14.867c0,8.21-6.698,14.864-14.962,14.864
	c-8.266,0-14.965-6.654-14.965-14.864C154.125,121.948,160.822,115.291,169.088,115.291z"/>
<path fill="#0071BC" d="M140.501,117.938c4.667,0,8.45,3.783,8.45,8.449c0,4.67-3.783,8.451-8.45,8.451
	c-4.665,0-8.452-3.781-8.452-8.451C132.049,121.72,135.833,117.938,140.501,117.938z"/>
<g>
	<circle fill="#0F4481" cx="139.198" cy="124.777" r="4.341"/>
	<circle fill="#FFFFFF" cx="138.208" cy="124.777" r="2.308"/>
	<circle fill="#FFFFFF" cx="143.463" cy="124.18" r="1.122"/>
</g>
<path fill="#0071BC" d="M167.912,116.591c6.012,0,10.885,4.872,10.885,10.881c0,6.016-4.874,10.89-10.885,10.89
	c-6.013,0-10.884-4.876-10.884-10.89C157.028,121.463,161.901,116.591,167.912,116.591z"/>
<g>
	<circle fill="#0F4481" cx="164.42" cy="123.716" r="5.588"/>
	<circle fill="#FFFFFF" cx="163.145" cy="123.696" r="2.972"/>
	<circle fill="#FFFFFF" cx="169.924" cy="123.024" r="1.447"/>
</g>
<path fill="#FFFFFF" d="M199.806,152.136c0,0-13.296,16.067,1.036,16.957l1.037,3.149
	C201.88,172.242,182.754,169.053,199.806,152.136z"/>
<path fill="#6C6F71" d="M139.255,112.741"/>
<g>
	<g>
		<path fill="#919496" d="M190.879,117.667l4.25,9.301C195.129,126.968,208.201,110.703,190.879,117.667z"/>
	</g>
	<g>
		<path fill="#D0D2D3" d="M187.013,115.763c0,0-0.401,3.437,2.798,3.917c0,0,15.672-5.12,4.237,8.638c0,0-1.276,2.08,1.36,3.918
			c0,0,10.561-9.038,7.197-15.916c0,0-2.559-7.517-15.592-0.56L187.013,115.763L187.013,115.763z"/>
	</g>
</g>
<path fill="#D0D2D3" d="M130.878,135.069c0,0,11.42-8.159,23.219-3.137c0,0-2.136,21.586-15.438,11.797
	C138.659,143.729,128.368,137.451,130.878,135.069z"/>
<path fill="#D0D2D3" d="M154.053,132.016c0,0,16.356-5.982,33.048,0.795c0,0-4.788,15.32-17.694,13.303
	C159.366,144.544,154.178,137.412,154.053,132.016z"/>
<path fill="#D0D2D3" d="M130.563,126.285c0,0,10.919-6.151,23.47,0c0,0,18.134-5.962,30.056-1.442c0,0-4.58-9.789-18.76-10.73
	c-14.183-0.941-14.746,1.318-14.746,1.318l-7.906,1.507l-6.025,2.447C136.649,119.381,130.816,124.338,130.563,126.285z"/>
<path fill="#6C6F71" d="M153.833,138.102c0,0-0.117,0.897-0.247,2.226c-0.043,0.656-0.128,1.459-0.032,2.171
	c0.033,0.194,0.049,0.267,0.125,0.451c0.016,0.052,0.073,0.095-0.034,0c-0.151-0.111-0.298-0.067-0.23-0.08
	c0.236-0.061,0.742-0.302,1.147-0.469c1.72-0.747,3.517-1.256,4.858-1.596c1.349-0.326,2.255-0.49,2.255-0.49
	c0.272-0.051,0.536,0.132,0.585,0.403c0.047,0.254-0.111,0.499-0.353,0.573c0,0-0.868,0.258-2.174,0.646
	c-1.302,0.392-3.008,0.972-4.646,1.687c-0.44,0.181-0.747,0.375-1.378,0.563c-0.09,0.02-0.201,0.047-0.361,0.035
	c-0.149,0-0.368-0.077-0.519-0.187c-0.28-0.236-0.322-0.399-0.399-0.548c-0.105-0.22-0.188-0.575-0.212-0.805
	c-0.092-0.995,0.009-1.8,0.118-2.504c0.218-1.395,0.512-2.283,0.512-2.283l0.005-0.015c0.083-0.264,0.369-0.407,0.635-0.319
	C153.724,137.636,153.862,137.867,153.833,138.102z"/>
<g>
	<path fill="#1D8FCD" d="M149.897,137.186c0,0,2.634-5.359,3.606-2.531c0,0,2.178-3.188,2.178,1.927c0,0-2.063,1.406-2.178,3.109
		c0,0-2.136-0.858-3.606-2.513V137.186z"/>
	<path fill="#FFFFFF" d="M153.504,138.39c0,0,0.134-0.725,1.15-1.446C154.657,136.945,154.279,135.559,153.504,138.39z"/>
</g>
<path fill="#6C6F71" d="M152.723,146.289c0.003-0.006-0.014,0.053-0.005,0.089c0.004,0.033,0.011,0.123,0.01,0.224
	c0.013,0.213,0.042,0.512,0.131,0.836c0.06,0.158,0.102,0.33,0.197,0.496c0.08,0.168,0.185,0.342,0.31,0.51
	c0.142,0.163,0.265,0.348,0.454,0.504c0.155,0.173,0.374,0.319,0.575,0.482c0.189,0.173,0.456,0.273,0.671,0.43
	c0.217,0.158,0.486,0.249,0.717,0.375c0.461,0.268,0.962,0.413,1.361,0.612c0.423,0.164,0.772,0.302,1.021,0.397
	c0.248,0.107,0.391,0.17,0.391,0.17l0.03,0.014c0.213,0.093,0.311,0.339,0.218,0.554c-0.068,0.154-0.22,0.25-0.383,0.252
	c0,0-0.158,0.002-0.44,0.008c-0.279-0.018-0.684-0.01-1.167-0.05c-0.481-0.085-1.053-0.129-1.653-0.327
	c-0.297-0.107-0.613-0.17-0.922-0.323c-0.311-0.146-0.627-0.267-0.927-0.472c-0.298-0.198-0.612-0.376-0.87-0.647
	c-0.277-0.237-0.52-0.521-0.726-0.825c-0.192-0.31-0.379-0.622-0.474-0.954c-0.113-0.322-0.173-0.641-0.196-0.938
	c-0.034-0.592,0.067-1.072,0.177-1.391c0.058-0.161,0.111-0.278,0.161-0.383c0.048-0.104,0.064-0.115,0.064-0.119l0.159-0.15
	c0.266-0.257,0.687-0.253,0.942,0.015C152.717,145.838,152.771,146.075,152.723,146.289z"/>
<path fill="#FFFFFF" d="M127.059,123.604c0,0-0.141,0.225-0.405,0.646c-0.272,0.444-0.669,1.141-1.143,2.04
	c-0.466,0.908-1.005,2.03-1.544,3.347c-0.514,1.318-1.083,2.817-1.491,4.479c-0.407,1.657-0.769,3.466-0.844,5.344
	c-0.075,1.873,0.081,3.811,0.571,5.696c0.466,1.896,1.408,3.674,2.63,5.328c0.334,0.395,0.593,0.846,0.983,1.212l1.119,1.139
	c0.368,0.386,0.839,0.692,1.256,1.049c0.429,0.342,0.833,0.712,1.326,0.996c0.951,0.606,1.87,1.252,2.927,1.737l1.526,0.791
	c0.541,0.22,1.079,0.441,1.615,0.66c0.536,0.22,1.07,0.437,1.603,0.656c0.557,0.176,1.111,0.353,1.661,0.529
	c1.097,0.358,2.183,0.717,3.304,0.956c1.11,0.257,2.183,0.568,3.269,0.773c1.09,0.197,2.16,0.389,3.196,0.579
	c2.082,0.373,4.103,0.543,5.941,0.802c1.861,0.146,3.572,0.282,5.087,0.402c1.513,0.138,2.853,0.117,3.947,0.173
	c2.194,0.074,3.448,0.116,3.448,0.116l-0.048,6.771c0,0-1.308-0.027-3.598-0.074c-1.146-0.042-2.531-0.006-4.131-0.126
	c-1.601-0.107-3.403-0.201-5.374-0.354c-1.973-0.244-4.11-0.397-6.371-0.77c-1.13-0.191-2.293-0.386-3.48-0.585
	c-1.187-0.209-2.396-0.533-3.627-0.805c-1.233-0.252-2.475-0.637-3.734-1.026c-0.627-0.194-1.261-0.39-1.896-0.585
	c-0.63-0.245-1.262-0.49-1.896-0.74c-0.635-0.251-1.27-0.505-1.907-0.759l-1.879-0.933c-1.271-0.577-2.478-1.37-3.693-2.134
	c-0.619-0.355-1.184-0.834-1.762-1.28c-0.567-0.466-1.168-0.872-1.698-1.392l-1.581-1.562c-0.534-0.512-0.958-1.144-1.435-1.712
	c-1.81-2.355-3.242-5.05-3.977-7.817c-0.766-2.757-1.004-5.492-0.933-8.015c0.074-2.533,0.501-4.835,0.985-6.912
	c0.488-2.082,1.143-3.895,1.745-5.491c0.624-1.583,1.246-2.924,1.791-4.016c0.553-1.092,1.019-1.934,1.366-2.519
	c0.187-0.307,0.329-0.544,0.425-0.703c0.091-0.142,0.138-0.218,0.138-0.218L127.059,123.604z"/>
<g>
	<path fill="#1D8FCD" d="M149.897,137.186c0,0,2.634-5.359,3.606-2.531c0,0,2.178-3.188,2.178,1.927c0,0-2.063,1.406-2.178,3.109
		c0,0-2.136-0.858-3.606-2.513V137.186z"/>
	<path fill="#FFFFFF" d="M153.504,138.39c0,0,0.134-0.725,1.15-1.446C154.657,136.945,154.279,135.559,153.504,138.39z"/>
</g>
<path fill="#E8E8E8" d="M142.214,115.867c0,0,1.423,0.502,1.172,2.008c-0.252,1.506-6.526,6.442-16.732,0.837l-1.255-3.011
	l3.429-1.255l7.279,1.505L142.214,115.867z"/>
<path fill="#E8E8E8" d="M123.557,123.063c0,0,1.674,2.343,3.432,2.343c1.757,0,6.441-1.59,3.931-5.857
	c-2.51-4.268-4.433-1.924-4.433-1.924L123.557,123.063z"/>
<path fill="#FFFFFF" d="M119.625,120.721c0,0,1.59-10.041,8.284-8.702c6.69,1.339,9.118,2.51,13.135,2.344
	c2.038-0.083,4.267,7.278-6.444,5.02c0,0-5.772-2.426-7.358-1.423c-1.591,1.004,1.504,6.442-4.436,5.272
	C122.804,123.231,118.957,122.98,119.625,120.721z"/>
<path fill="#D0D2D3" d="M130.606,121.043c0,0,0.347-0.972-2.385-2.101c0,0,2.103-0.816,3.263,1.035
	C132.646,121.828,130.606,121.043,130.606,121.043z"/>
<path fill="#FFFFFF" d="M130.252,123.733c0,0,2.508,1.924,3.596,0.418c1.089-1.506,1.507-4.017-0.25-4.352
	C131.84,119.465,129.582,119.465,130.252,123.733z"/>
<path fill="#D0D2D3" d="M184.507,196.938c0,0,8.785-21.586,4.267-35.39c0,0,6.149,11.295-2.509,35.518"/>
<g>
	<g enable-background="new    ">
		<path fill="#493320" d="M40.404,152.788c0.911-0.145,1.901-0.284,2.967-0.42c1.067-0.133,2.269-0.201,3.604-0.201
			c0.498,0,1.017,0.021,1.562,0.062c0.543,0.043,1.079,0.118,1.608,0.226c0.528,0.109,1.031,0.264,1.507,0.466
			c0.477,0.202,0.899,0.464,1.267,0.784c0.368,0.321,0.657,0.714,0.87,1.174c0.212,0.461,0.319,1.001,0.319,1.624
			c0,0.455-0.079,0.909-0.233,1.358c-0.155,0.45-0.386,0.876-0.691,1.273c-0.306,0.398-0.684,0.759-1.133,1.079
			c-0.451,0.321-0.971,0.582-1.561,0.778v0.061c0.176,0.032,0.409,0.086,0.699,0.164c0.29,0.078,0.598,0.191,0.924,0.341
			c0.326,0.151,0.655,0.341,0.986,0.567c0.332,0.228,0.629,0.503,0.893,0.823c0.264,0.32,0.479,0.696,0.645,1.125
			c0.166,0.431,0.249,0.924,0.249,1.484c0,0.218-0.025,0.5-0.078,0.847c-0.053,0.349-0.164,0.718-0.334,1.11
			c-0.17,0.394-0.415,0.79-0.73,1.19c-0.316,0.396-0.738,0.757-1.266,1.079c-0.529,0.321-1.181,0.584-1.958,0.785
			c-0.777,0.203-1.704,0.304-2.781,0.304c-0.487,0-0.919-0.012-1.297-0.031c-0.378-0.021-0.75-0.048-1.118-0.079
			c-0.368-0.029-0.751-0.055-1.15-0.077c-0.399-0.021-0.862-0.031-1.391-0.031c-0.249,0-0.372-0.13-0.372-0.387v-15.379
			c0-0.519-0.114-0.861-0.342-1.032c-0.229-0.171-0.523-0.257-0.886-0.257c-0.208,0-0.436,0.017-0.684,0.048L40.404,152.788z
			 M45.297,160.711c0.103,0,0.205,0.002,0.302,0.008c0.098,0.007,0.194,0.009,0.288,0.009c0.859,0,1.61-0.067,2.252-0.202
			c0.642-0.134,1.173-0.349,1.592-0.637c0.419-0.29,0.733-0.666,0.939-1.126c0.207-0.461,0.311-1.022,0.311-1.686
			c0-0.654-0.109-1.209-0.326-1.67c-0.218-0.46-0.521-0.839-0.908-1.133c-0.389-0.295-0.854-0.511-1.398-0.646
			s-1.142-0.202-1.794-0.202c-0.445,0-0.766,0.031-0.963,0.093c-0.196,0.061-0.295,0.251-0.295,0.559L45.297,160.711L45.297,160.711
			z M45.297,169.332c0.124,0.029,0.282,0.06,0.474,0.083c0.191,0.026,0.396,0.051,0.614,0.07c0.218,0.021,0.442,0.037,0.676,0.048
			s0.453,0.016,0.66,0.016c0.755,0,1.388-0.111,1.895-0.334c0.508-0.223,0.912-0.505,1.212-0.847c0.3-0.342,0.513-0.712,0.637-1.11
			c0.124-0.398,0.186-0.769,0.186-1.111c0-0.839-0.131-1.529-0.396-2.074c-0.264-0.544-0.637-0.973-1.118-1.29
			c-0.481-0.315-1.062-0.531-1.74-0.652c-0.678-0.118-1.426-0.179-2.245-0.179h-0.436c-0.072,0-0.142,0-0.209,0
			c-0.068,0-0.138,0.005-0.21,0.016L45.297,169.332L45.297,169.332z"/>
		<path fill="#493320" d="M62.4,170.962c-0.86,0-1.639-0.151-2.338-0.458c-0.699-0.305-1.302-0.721-1.81-1.25
			c-0.507-0.528-0.898-1.151-1.173-1.872c-0.274-0.72-0.412-1.492-0.412-2.322c0-0.911,0.157-1.745,0.474-2.5
			c0.316-0.755,0.754-1.399,1.312-1.934c0.56-0.532,1.227-0.949,2.004-1.242c0.776-0.295,1.631-0.443,2.563-0.443
			c0.859,0,1.644,0.148,2.353,0.443c0.708,0.293,1.315,0.701,1.818,1.22c0.502,0.52,0.893,1.128,1.173,1.832
			c0.28,0.705,0.419,1.466,0.419,2.284c0,0.932-0.155,1.783-0.466,2.555c-0.311,0.772-0.748,1.43-1.313,1.974
			c-0.564,0.543-1.238,0.965-2.019,1.266C64.204,170.813,63.342,170.962,62.4,170.962z M63.129,169.596
			c0.56,0,1.021-0.12,1.382-0.364s0.647-0.556,0.854-0.939c0.207-0.385,0.35-0.814,0.427-1.291c0.078-0.476,0.117-0.941,0.117-1.396
			c0-0.559-0.06-1.15-0.179-1.771c-0.119-0.621-0.319-1.193-0.598-1.718c-0.28-0.521-0.648-0.956-1.103-1.297
			c-0.456-0.343-1.021-0.512-1.693-0.512c-0.559,0-1.02,0.121-1.383,0.364s-0.647,0.559-0.854,0.947
			c-0.208,0.389-0.353,0.819-0.435,1.29c-0.084,0.472-0.125,0.94-0.125,1.407c0,0.569,0.062,1.162,0.187,1.785
			c0.124,0.622,0.326,1.191,0.606,1.709c0.28,0.519,0.647,0.946,1.103,1.282C61.892,169.43,62.456,169.596,63.129,169.596z"/>
		<path fill="#493320" d="M70.291,159.887c0.559-0.155,1.074-0.287,1.545-0.396c0.471-0.108,0.885-0.2,1.242-0.272
			c0.357-0.072,0.65-0.124,0.878-0.154c0.228-0.031,0.378-0.047,0.451-0.047c0.311,0,0.481,0.185,0.513,0.559l0.046,0.652
			c0.476-0.176,0.956-0.342,1.437-0.497c0.481-0.155,0.939-0.292,1.374-0.412c0.435-0.118,0.833-0.213,1.197-0.278
			c0.362-0.067,0.667-0.103,0.916-0.103c0.589,0,1.095,0.095,1.514,0.28c0.419,0.187,0.764,0.446,1.033,0.776
			c0.269,0.332,0.466,0.733,0.59,1.205c0.124,0.471,0.186,0.991,0.186,1.56l-0.077,7.473c0,0.249-0.125,0.392-0.373,0.436
			c-0.166,0.029-0.35,0.057-0.552,0.084c-0.202,0.024-0.399,0.048-0.591,0.062c-0.191,0.015-0.368,0.023-0.528,0.03
			c-0.161,0.006-0.278,0.009-0.35,0.009c-0.249,0-0.373-0.13-0.373-0.388l0.078-6.184v-0.232c0-0.558-0.044-1.05-0.132-1.469
			s-0.235-0.773-0.442-1.063c-0.208-0.289-0.477-0.508-0.808-0.653c-0.332-0.146-0.746-0.218-1.242-0.218
			c-0.187,0-0.537,0.052-1.048,0.155c-0.512,0.103-1.116,0.305-1.81,0.605v8.823c0,0.25-0.124,0.393-0.373,0.436
			c-0.166,0.03-0.35,0.058-0.552,0.085c-0.202,0.023-0.399,0.046-0.589,0.062c-0.191,0.016-0.368,0.024-0.528,0.029
			c-0.161,0.007-0.277,0.01-0.35,0.01c-0.249,0-0.372-0.13-0.372-0.387v-8.466c0-0.55-0.088-0.923-0.264-1.126
			c-0.176-0.202-0.456-0.304-0.839-0.304c-0.103,0-0.209,0.004-0.318,0.008c-0.109,0.007-0.241,0.024-0.396,0.055L70.291,159.887z"
			/>
		<path fill="#493320" d="M85.498,159.887c0.559-0.155,1.077-0.287,1.553-0.396c0.477-0.108,0.899-0.2,1.267-0.272
			s0.668-0.124,0.901-0.154c0.233-0.031,0.385-0.047,0.458-0.047c0.332,0,0.497,0.185,0.497,0.559v10.656
			c0,0.249-0.124,0.392-0.373,0.436c-0.176,0.029-0.365,0.057-0.567,0.084c-0.202,0.024-0.396,0.048-0.583,0.062
			c-0.186,0.015-0.357,0.023-0.513,0.03c-0.155,0.006-0.274,0.009-0.357,0.009c-0.249,0-0.373-0.13-0.373-0.388V162
			c0-0.551-0.087-0.924-0.264-1.125c-0.176-0.203-0.451-0.305-0.823-0.305c-0.114,0-0.225,0.003-0.334,0.009
			c-0.108,0.005-0.24,0.022-0.396,0.054L85.498,159.887z M90.267,154.186c0,0.559-0.147,0.963-0.442,1.212
			c-0.295,0.249-0.722,0.373-1.282,0.373c-0.465,0-0.823-0.14-1.071-0.419s-0.373-0.668-0.373-1.164c0-0.559,0.153-0.96,0.458-1.204
			c0.306-0.244,0.738-0.364,1.297-0.364c0.466,0,0.818,0.137,1.056,0.412C90.147,153.304,90.267,153.689,90.267,154.186z"/>
		<path fill="#493320" d="M92.536,159.669c0.269-0.019,0.563-0.04,0.885-0.061s0.637-0.041,0.948-0.063v-2.235
			c0-0.755,0.047-1.434,0.14-2.035c0.094-0.599,0.226-1.137,0.397-1.615c0.17-0.476,0.378-0.896,0.621-1.264
			c0.243-0.368,0.521-0.709,0.831-1.02c0.539-0.527,1.157-0.934,1.856-1.22c0.699-0.284,1.442-0.427,2.229-0.427
			c0.342,0,0.702,0.037,1.08,0.109c0.378,0.072,0.725,0.193,1.04,0.364c0.316,0.171,0.577,0.39,0.785,0.658
			c0.207,0.271,0.31,0.598,0.31,0.98c0,0.289-0.05,0.534-0.148,0.729c-0.099,0.196-0.23,0.356-0.396,0.482
			c-0.166,0.122-0.36,0.217-0.583,0.271c-0.223,0.058-0.464,0.085-0.723,0.085c-0.207,0-0.425-0.017-0.652-0.047v-0.327
			c0-0.279-0.016-0.54-0.047-0.784c-0.031-0.243-0.101-0.45-0.21-0.62c-0.108-0.172-0.267-0.305-0.474-0.404
			c-0.207-0.099-0.48-0.148-0.823-0.148c-0.528,0-0.956,0.122-1.282,0.365c-0.327,0.244-0.578,0.567-0.753,0.972
			c-0.177,0.403-0.293,0.869-0.35,1.396c-0.057,0.528-0.085,1.078-0.085,1.647v3.945c0.693-0.031,1.333-0.054,1.918-0.07
			s1.038-0.022,1.359-0.022c0.083,0,0.16,0.028,0.233,0.083c0.073,0.058,0.103,0.149,0.093,0.273l-0.062,0.962l-3.542,0.018v9.584
			c0,0.249-0.125,0.392-0.373,0.436c-0.176,0.028-0.365,0.057-0.567,0.084c-0.202,0.024-0.396,0.048-0.583,0.062
			c-0.187,0.015-0.357,0.023-0.513,0.03c-0.155,0.006-0.274,0.009-0.357,0.009c-0.249,0-0.373-0.13-0.373-0.388v-9.803l-1.786,0.048
			L92.536,159.669z"/>
		<path fill="#493320" d="M102.026,160.229c0.538-0.218,1.069-0.408,1.592-0.574s1.014-0.303,1.476-0.412
			c0.461-0.108,0.88-0.191,1.258-0.25c0.378-0.055,0.691-0.083,0.94-0.083c0.745,0,1.373,0.083,1.879,0.255
			c0.507,0.171,0.917,0.442,1.227,0.816c0.311,0.372,0.534,0.846,0.668,1.421s0.197,1.267,0.186,2.074l-0.078,5.063
			c-0.011,0.321,0.01,0.621,0.063,0.901c0.051,0.279,0.108,0.553,0.171,0.823c0.009,0.01,0.015,0.051,0.015,0.123
			c0,0.153-0.104,0.249-0.31,0.281c-0.135,0.028-0.288,0.057-0.458,0.084c-0.171,0.024-0.344,0.048-0.521,0.062
			c-0.176,0.015-0.352,0.023-0.528,0.03c-0.176,0.006-0.332,0.009-0.466,0.009c-0.114,0-0.2-0.032-0.257-0.094
			c-0.057-0.063-0.101-0.154-0.132-0.279l-0.202-0.747c-0.393,0.178-0.797,0.34-1.211,0.489c-0.415,0.15-0.811,0.279-1.188,0.388
			c-0.378,0.109-0.722,0.195-1.033,0.256c-0.31,0.062-0.564,0.092-0.761,0.092c-0.55,0-1.025-0.101-1.429-0.302
			c-0.404-0.202-0.735-0.454-0.994-0.761c-0.259-0.306-0.451-0.643-0.574-1.01c-0.125-0.368-0.187-0.718-0.187-1.049
			c0-0.59,0.106-1.089,0.318-1.498c0.213-0.41,0.5-0.749,0.862-1.019c0.321-0.238,0.697-0.436,1.126-0.591
			c0.43-0.153,0.903-0.276,1.421-0.364c0.518-0.087,1.077-0.151,1.678-0.193s1.232-0.072,1.895-0.093l0.016-0.528
			c0.011-0.476-0.018-0.903-0.085-1.281c-0.066-0.379-0.189-0.696-0.365-0.956c-0.176-0.259-0.415-0.455-0.715-0.59
			c-0.3-0.134-0.678-0.201-1.133-0.201c-0.559,0-1.142,0.061-1.748,0.185c-0.606,0.124-1.297,0.312-2.074,0.559L102.026,160.229z
			 M108.457,165.138c-0.487,0.031-0.942,0.059-1.367,0.085s-0.813,0.065-1.165,0.118c-0.353,0.05-0.663,0.132-0.933,0.24
			s-0.486,0.261-0.652,0.457c-0.124,0.146-0.228,0.325-0.311,0.544c-0.084,0.218-0.125,0.455-0.125,0.716
			c0,0.218,0.034,0.439,0.1,0.668c0.067,0.227,0.187,0.438,0.357,0.628s0.401,0.35,0.691,0.474c0.29,0.125,0.658,0.186,1.103,0.186
			c0.062,0,0.164-0.01,0.303-0.029c0.14-0.021,0.311-0.056,0.513-0.101c0.202-0.049,0.427-0.113,0.676-0.195
			c0.249-0.084,0.502-0.186,0.761-0.312L108.457,165.138z"/>
		<path fill="#493320" d="M121.568,162.419c0-0.3-0.016-0.575-0.047-0.821c-0.031-0.247-0.109-0.464-0.233-0.646
			c-0.124-0.181-0.302-0.319-0.536-0.418c-0.233-0.1-0.552-0.148-0.956-0.148c-0.58,0-1.069,0.097-1.468,0.293
			c-0.399,0.198-0.722,0.462-0.971,0.793c-0.249,0.332-0.429,0.721-0.543,1.165c-0.114,0.445-0.17,0.921-0.17,1.429
			c0,0.704,0.093,1.357,0.28,1.964c0.186,0.605,0.468,1.137,0.846,1.592s0.857,0.814,1.437,1.072
			c0.58,0.259,1.269,0.388,2.066,0.388c0.207,0,0.44-0.017,0.699-0.049c0.258-0.029,0.522-0.068,0.792-0.116
			c0.269-0.047,0.533-0.104,0.792-0.171c0.259-0.066,0.498-0.137,0.715-0.21l0.357,0.87c-0.487,0.218-0.999,0.423-1.538,0.613
			c-0.538,0.191-1.062,0.357-1.568,0.497c-0.508,0.141-0.979,0.249-1.414,0.326c-0.436,0.077-0.793,0.116-1.073,0.116
			c-0.829,0-1.561-0.154-2.198-0.466c-0.637-0.31-1.173-0.728-1.607-1.25c-0.435-0.522-0.767-1.126-0.994-1.81
			s-0.342-1.398-0.342-2.144c0-0.963,0.181-1.836,0.543-2.617c0.363-0.783,0.859-1.45,1.492-2.004
			c0.632-0.553,1.373-0.981,2.222-1.282c0.849-0.3,1.76-0.451,2.734-0.451c0.393,0,0.784,0.036,1.173,0.11
			c0.389,0.072,0.738,0.196,1.048,0.372c0.311,0.177,0.562,0.409,0.754,0.699c0.191,0.289,0.287,0.652,0.287,1.088
			c0,0.548-0.181,0.944-0.544,1.188c-0.363,0.245-0.813,0.366-1.352,0.366c-0.228,0-0.456-0.017-0.683-0.048L121.568,162.419
			L121.568,162.419z"/>
		<path fill="#493320" d="M125.668,159.887c0.56-0.155,1.076-0.287,1.555-0.396c0.476-0.108,0.896-0.2,1.265-0.272
			c0.367-0.072,0.668-0.124,0.901-0.154c0.233-0.031,0.386-0.047,0.458-0.047c0.33,0,0.496,0.185,0.496,0.559v10.656
			c0,0.249-0.124,0.392-0.374,0.436c-0.178,0.029-0.364,0.057-0.567,0.084c-0.201,0.024-0.396,0.048-0.583,0.062
			c-0.186,0.015-0.356,0.023-0.512,0.03c-0.154,0.006-0.275,0.009-0.358,0.009c-0.248,0-0.372-0.13-0.372-0.388V162
			c0-0.551-0.087-0.924-0.263-1.125c-0.178-0.203-0.453-0.305-0.823-0.305c-0.115,0-0.224,0.003-0.335,0.009
			c-0.108,0.005-0.24,0.022-0.395,0.054L125.668,159.887z M130.438,154.186c0,0.559-0.148,0.963-0.443,1.212
			c-0.296,0.249-0.723,0.373-1.28,0.373c-0.467,0-0.824-0.14-1.073-0.419c-0.25-0.28-0.373-0.668-0.373-1.164
			c0-0.559,0.151-0.96,0.457-1.204s0.737-0.364,1.295-0.364c0.467,0,0.82,0.137,1.057,0.412
			C130.317,153.304,130.438,153.689,130.438,154.186z"/>
		<path fill="#493320" d="M139.026,170.962c-0.859,0-1.638-0.151-2.337-0.458c-0.699-0.305-1.303-0.721-1.81-1.25
			c-0.508-0.528-0.899-1.151-1.173-1.872c-0.274-0.72-0.412-1.492-0.412-2.322c0-0.911,0.158-1.745,0.474-2.5
			c0.317-0.755,0.755-1.399,1.313-1.934c0.559-0.532,1.227-0.949,2.004-1.242c0.776-0.295,1.63-0.443,2.563-0.443
			c0.86,0,1.645,0.148,2.354,0.443c0.709,0.293,1.315,0.701,1.818,1.22c0.502,0.52,0.893,1.128,1.172,1.832
			c0.281,0.705,0.42,1.466,0.42,2.284c0,0.932-0.155,1.783-0.466,2.555c-0.311,0.772-0.748,1.43-1.313,1.974
			c-0.563,0.543-1.236,0.965-2.02,1.266C140.831,170.813,139.97,170.962,139.026,170.962z M139.757,169.596
			c0.559,0,1.021-0.12,1.383-0.364s0.647-0.556,0.855-0.939c0.206-0.385,0.349-0.814,0.426-1.291
			c0.075-0.476,0.117-0.941,0.117-1.396c0-0.559-0.06-1.15-0.179-1.771c-0.119-0.621-0.319-1.193-0.599-1.718
			c-0.279-0.521-0.647-0.956-1.103-1.297s-1.021-0.512-1.693-0.512c-0.558,0-1.02,0.121-1.382,0.364s-0.647,0.559-0.855,0.947
			c-0.206,0.389-0.352,0.819-0.434,1.29c-0.083,0.472-0.123,0.94-0.123,1.407c0,0.569,0.062,1.162,0.185,1.785
			c0.124,0.622,0.326,1.191,0.606,1.709c0.28,0.519,0.647,0.946,1.103,1.282C138.519,169.428,139.084,169.596,139.757,169.596z"/>
	</g>
	<g enable-background="new    ">
		<path fill="#493320" d="M73.584,197.017c-0.249,0-0.373-0.13-0.373-0.388v-15.332c0-0.527-0.114-0.879-0.342-1.049
			c-0.229-0.172-0.523-0.256-0.886-0.256c-0.207,0-0.435,0.016-0.684,0.047l-0.093-0.839c1.159-0.196,2.333-0.354,3.519-0.474
			c1.186-0.119,2.374-0.18,3.565-0.18c0.994,0,1.965,0.057,2.912,0.171c0.948,0.115,1.838,0.305,2.672,0.576
			c0.833,0.27,1.597,0.626,2.292,1.07c0.693,0.446,1.291,1,1.794,1.662c0.502,0.662,0.893,1.445,1.173,2.346
			s0.419,1.941,0.419,3.122c0,1.563-0.277,2.954-0.832,4.172c-0.553,1.217-1.326,2.245-2.314,3.084
			c-0.989,0.838-2.164,1.476-3.525,1.91c-1.362,0.434-2.846,0.652-4.451,0.652c-0.466,0-0.877-0.016-1.235-0.047
			c-0.357-0.03-0.712-0.064-1.064-0.101c-0.352-0.038-0.727-0.071-1.126-0.102C74.606,197.031,74.133,197.017,73.584,197.017z
			 M76.1,195.773c0.394,0.093,0.792,0.157,1.196,0.193c0.404,0.037,0.824,0.056,1.259,0.056c1.242,0,2.35-0.189,3.324-0.567
			c0.973-0.379,1.792-0.92,2.455-1.624c0.662-0.703,1.167-1.56,1.514-2.564c0.347-1.004,0.521-2.133,0.521-3.386
			c0-1.189-0.179-2.278-0.537-3.264c-0.357-0.984-0.878-1.829-1.561-2.538c-0.684-0.71-1.522-1.257-2.517-1.648
			c-0.995-0.388-2.128-0.581-3.402-0.581h-0.792c-0.466,0-0.825,0.037-1.08,0.116c-0.254,0.078-0.38,0.287-0.38,0.628L76.1,195.773
			L76.1,195.773z"/>
		<path fill="#493320" d="M92.146,186.594c0.539-0.218,1.069-0.408,1.592-0.575c0.523-0.165,1.015-0.304,1.476-0.412
			c0.461-0.108,0.88-0.191,1.259-0.249c0.378-0.057,0.691-0.085,0.939-0.085c0.746,0,1.373,0.085,1.879,0.257
			c0.507,0.17,0.916,0.442,1.227,0.815c0.31,0.372,0.534,0.846,0.668,1.421c0.134,0.575,0.196,1.266,0.186,2.074l-0.078,5.063
			c-0.01,0.321,0.01,0.621,0.063,0.901c0.052,0.28,0.109,0.554,0.171,0.823c0.01,0.01,0.015,0.051,0.015,0.123
			c0,0.155-0.104,0.249-0.311,0.28c-0.134,0.031-0.287,0.06-0.458,0.086c-0.17,0.023-0.344,0.047-0.521,0.061
			c-0.176,0.017-0.352,0.025-0.527,0.03c-0.177,0.007-0.332,0.01-0.466,0.01c-0.115,0-0.2-0.031-0.257-0.094
			c-0.057-0.062-0.101-0.154-0.132-0.278l-0.202-0.747c-0.394,0.176-0.797,0.338-1.212,0.487c-0.414,0.152-0.81,0.281-1.188,0.389
			c-0.378,0.108-0.722,0.193-1.033,0.256c-0.311,0.062-0.565,0.093-0.761,0.093c-0.549,0-1.025-0.101-1.429-0.304
			c-0.404-0.201-0.735-0.454-0.994-0.76c-0.259-0.306-0.451-0.644-0.574-1.011c-0.125-0.367-0.187-0.718-0.187-1.048
			c0-0.591,0.106-1.09,0.319-1.499s0.5-0.748,0.862-1.018c0.321-0.239,0.696-0.435,1.126-0.591c0.43-0.154,0.904-0.276,1.422-0.364
			s1.076-0.152,1.677-0.194c0.601-0.041,1.233-0.072,1.895-0.093l0.016-0.528c0.01-0.477-0.018-0.903-0.085-1.28
			c-0.067-0.379-0.189-0.696-0.365-0.956c-0.176-0.258-0.415-0.455-0.714-0.59s-0.678-0.202-1.134-0.202
			c-0.559,0-1.142,0.063-1.747,0.187c-0.606,0.123-1.297,0.311-2.074,0.559L92.146,186.594z M98.578,191.502
			c-0.487,0.03-0.942,0.059-1.367,0.084c-0.425,0.025-0.813,0.066-1.166,0.117s-0.663,0.132-0.933,0.24
			c-0.269,0.109-0.486,0.262-0.652,0.458c-0.124,0.146-0.228,0.325-0.311,0.544c-0.083,0.219-0.125,0.454-0.125,0.717
			c0,0.217,0.034,0.439,0.101,0.666c0.067,0.228,0.187,0.438,0.357,0.629c0.17,0.189,0.401,0.35,0.691,0.474
			c0.29,0.125,0.657,0.186,1.103,0.186c0.062,0,0.164-0.011,0.303-0.03c0.14-0.021,0.31-0.054,0.513-0.101
			c0.202-0.048,0.427-0.112,0.675-0.194c0.249-0.083,0.502-0.186,0.761-0.313L98.578,191.502z"/>
		<path fill="#493320" d="M112.869,186.127c0.051-0.135,0.113-0.235,0.186-0.304c0.072-0.067,0.181-0.12,0.326-0.163
			c0.156-0.041,0.316-0.077,0.482-0.108c0.166-0.031,0.327-0.057,0.482-0.078c0.155-0.021,0.298-0.04,0.427-0.054
			c0.13-0.017,0.231-0.022,0.303-0.022c0.187,0,0.28,0.062,0.28,0.186c0,0.072-0.026,0.159-0.078,0.263
			c-0.373,0.735-0.758,1.51-1.157,2.324c-0.399,0.813-0.8,1.636-1.205,2.468c-0.404,0.834-0.799,1.665-1.188,2.494
			c-0.388,0.828-0.759,1.626-1.11,2.393c-0.353,0.768-0.676,1.489-0.971,2.166c-0.295,0.679-0.552,1.282-0.77,1.811
			c-0.187,0.465-0.404,0.979-0.652,1.538c-0.249,0.558-0.552,1.08-0.909,1.56c-0.357,0.482-0.779,0.885-1.266,1.204
			c-0.487,0.32-1.061,0.481-1.724,0.481c-0.27,0-0.513-0.041-0.73-0.124c-0.218-0.083-0.404-0.196-0.559-0.341
			c-0.155-0.146-0.274-0.312-0.357-0.497c-0.083-0.186-0.125-0.388-0.125-0.606c0-0.165,0.029-0.339,0.085-0.52
			c0.058-0.181,0.153-0.345,0.288-0.489c0.238,0.136,0.466,0.23,0.684,0.287c0.218,0.058,0.445,0.086,0.684,0.086
			c0.29,0,0.574-0.048,0.854-0.142c0.279-0.091,0.553-0.255,0.823-0.489c0.27-0.232,0.542-0.545,0.816-0.939
			c0.274-0.393,0.552-0.895,0.831-1.505l0.901-1.989l-3.869-8.855c-0.207-0.485-0.424-0.813-0.652-0.979
			c-0.228-0.165-0.503-0.25-0.824-0.25c-0.104,0-0.212,0.007-0.326,0.018c-0.114,0.011-0.233,0.025-0.357,0.047l-0.093-0.746
			c0.424-0.123,0.854-0.238,1.29-0.342c0.435-0.104,0.838-0.194,1.211-0.272c0.374-0.079,0.688-0.137,0.948-0.18
			c0.259-0.041,0.424-0.061,0.497-0.061c0.155,0,0.27,0.049,0.342,0.147s0.145,0.236,0.218,0.413l2.998,7.734h0.062L112.869,186.127
			z"/>
	</g>
</g>
<path fill="#E2BF9A" d="M121.452,216.895l19.277-7.182c0,0,8.315-13.985,9.449-13.985c1.133,0,15.497-10.206,18.522-11.717
	c3.023-1.512,26.835,1.133,26.835,1.133l15.119-7.56C210.656,177.584,212.169,219.541,121.452,216.895z"/>
<g id="Layer_2_1_">
</g>
</svg>
