<?xml version="1.0" encoding="utf-8"?>
<!-- Generator: Adobe Illustrator 16.0.0, SVG Export Plug-In . SVG Version: 6.00 Build 0)  -->
<!DOCTYPE svg PUBLIC "-//W3C//DTD SVG 1.1//EN" "http://www.w3.org/Graphics/SVG/1.1/DTD/svg11.dtd">
<svg version="1.1" id="Layer_1" xmlns="http://www.w3.org/2000/svg" xmlns:xlink="http://www.w3.org/1999/xlink" x="0px" y="0px"
	 width="250px" height="250px" viewBox="0 0 250 250" enable-background="new 0 0 250 250" xml:space="preserve">
<g id="Layer_2">
</g>
<g opacity="0.15">
	<g>
		<path d="M246.615,119.688l-9.117-8.092c-0.85-0.754-1.943-1.166-3.069-1.166c-0.141,0-0.28,0.006-0.421,0.019l-4.007,0.366
			c0.339-0.748,0.481-1.595,0.374-2.469l-0.205-1.666c-0.151-1.221-0.781-2.331-1.753-3.086c-0.815-0.634-1.815-0.974-2.838-0.974
			c-0.193,0-0.389,0.013-0.584,0.038l-28.835,3.664c-0.689-1.955-1.499-3.867-2.424-5.728l23.019-17.823
			c0.971-0.752,1.603-1.858,1.757-3.077c0.154-1.219-0.183-2.447-0.936-3.417l-1.031-1.327c-0.543-0.699-1.247-1.2-2.019-1.491
			l3.096-2.577c0.98-0.817,1.581-2.004,1.657-3.278l0.729-12.157c0.079-1.32-0.41-2.612-1.347-3.546
			c-0.869-0.87-2.047-1.356-3.27-1.356c-0.093,0-0.184,0.004-0.275,0.009l-12.161,0.722c-1.275,0.076-2.464,0.677-3.281,1.658
			l-2.572,3.092c-0.293-0.772-0.794-1.476-1.494-2.019l-1.331-1.03c-0.814-0.63-1.813-0.968-2.832-0.968
			c-0.193,0-0.389,0.013-0.584,0.037c-1.217,0.154-2.322,0.787-3.073,1.757l-18.097,23.374c-1.794-0.827-3.642-1.551-5.538-2.166
			l3.746-29.447c0.155-1.22-0.181-2.45-0.934-3.42c-0.754-0.97-1.861-1.603-3.081-1.755l-1.671-0.211
			c-0.195-0.024-0.389-0.041-0.579-0.041c-0.67,0-1.314,0.137-1.897,0.401l0.366-4.025c0.115-1.27-0.299-2.567-1.146-3.521
			l-8.08-8.992c-0.878-0.99-2.138-1.501-3.46-1.501c0,0-0.001,0-0.002,0c-1.322,0-2.582,0.51-3.46,1.5l-8.089,9.156
			c-0.848,0.955-1.262,2.172-1.146,3.444l0.366,3.979c-0.581-0.262-1.223-0.417-1.889-0.417c-0.192,0-0.384,0.005-0.578,0.029
			l-1.674,0.206c-0.346,0.043-0.683,0.123-1.004,0.24c-11.758-7.004-26.178-10.816-41.204-10.816
			c-4.968,0-10.013,0.416-14.993,1.236c-40.588,6.682-69.218,38.793-63.82,71.582c2.706,16.435,13.644,30.23,29.237,38.874
			c-1.35,0.997-2.065,2.646-1.842,4.321l0.566,4.252l-3.179,2.874c-1.305,1.18-1.827,3-1.348,4.692
			c0.48,1.693,1.879,2.967,3.61,3.286l4.224,0.781l1.755,3.915c0.72,1.606,2.289,2.664,4.048,2.73
			c0.058,0.001,0.116,0.003,0.174,0.003c1.692,0,3.256-0.927,4.066-2.424l2.042-3.77l4.262-0.455
			c1.75-0.188,3.243-1.352,3.851-3.005c0.606-1.653,0.222-3.507-0.992-4.782l-2.958-3.108l0.431-2.05
			c6.457,1.586,13.315,2.446,20.44,2.446c2.748,0,5.53-0.129,8.302-0.38c0.854,1.072,1.779,2.036,2.759,2.874
			c0.215,0.188,0.435,0.371,0.657,0.551l-11.959,9.26c-0.971,0.752-1.603,1.858-1.757,3.076c-0.154,1.218,0.182,2.446,0.934,3.416
			l1.03,1.328c0.543,0.699,1.247,1.2,2.019,1.491l-2.93,2.439l0.384-1.825c0.362-1.723-0.285-3.502-1.669-4.589
			c-0.831-0.652-1.84-0.987-2.857-0.987c-0.679,0-1.361,0.148-1.996,0.453l-3.87,1.851l-3.723-2.139
			c-0.715-0.41-1.51-0.615-2.304-0.615c-0.901,0-1.8,0.265-2.578,0.784c-1.461,0.981-2.24,2.707-2.008,4.452l0.566,4.251
			l-3.178,2.875c-1.306,1.18-1.828,2.999-1.348,4.692c0.48,1.692,1.88,2.967,3.61,3.286l4.225,0.78l1.755,3.916
			c0.72,1.605,2.289,2.664,4.047,2.729c0.058,0.002,0.116,0.004,0.174,0.004c1.692,0,3.256-0.927,4.067-2.424l2.041-3.77
			l2.241-0.239l-0.125,2.081c-0.079,1.319,0.411,2.611,1.346,3.547c0.87,0.87,2.048,1.355,3.271,1.355
			c0.091,0,0.183-0.003,0.274-0.009l12.158-0.723c1.276-0.076,2.463-0.677,3.28-1.659l2.573-3.091
			c0.3,0.793,0.816,1.495,1.499,2.021l1.336,1.032c0.388,0.299,0.807,0.527,1.244,0.687c-0.399,0.707-0.56,1.41-0.614,1.979
			c-3.183,1.547-3.76,3.867-3.76,5.342c0,0.176,0.007,0.347,0.022,0.513c0.004,0.076,0.01,0.153,0.019,0.23l0.669,6.322
			c0.117,5.203,6.839,7.054,12.603,7.054c4.377,0,7.999-1.478,9.286-2.017c1.833-0.526,3.209-2.157,3.337-4.147l0.478-7.401
			c0.014-0.224,0.013-0.446-0.005-0.666c-0.016-2.006-1.078-3.702-2.984-4.913c0.109-0.071,0.217-0.145,0.324-0.221
			c0.475-0.332,1.04-0.74,1.636-1.252c0.108-0.094,0.213-0.191,0.313-0.294c0.155-0.112,0.306-0.234,0.448-0.367
			c0.589-0.546,1.174-1.137,1.738-1.754c0.105-0.116,0.204-0.235,0.296-0.359c0.112-0.104,0.218-0.214,0.318-0.327
			c0.011-0.013,0.075-0.087,0.086-0.1c0.053-0.063,0.105-0.127,0.156-0.191c0.045-0.049,0.09-0.1,0.134-0.152l0.17-0.204
			c0.09-0.108,0.174-0.22,0.253-0.334c0.093-0.1,0.182-0.202,0.267-0.31c0.444-0.564,0.879-1.146,1.298-1.745
			c0.049,0.07,0.098,0.14,0.147,0.209l-1.508,11.832c-0.155,1.219,0.182,2.449,0.935,3.42s1.862,1.602,3.081,1.754l1.674,0.209
			c0.194,0.024,0.388,0.036,0.58,0.036c0.666,0,1.308-0.144,1.889-0.405l-0.366,4.002c-0.116,1.271,0.298,2.535,1.146,3.49
			l7.627,9.113c0.879,0.989,2.006,1.556,3.006,1.556v-0.088c1,0,3.036-0.671,3.914-1.66l7.076-7.655c0.012,0,0.024,0,0.037,0
			c1.522,0,2.88,0.123,3.747,0.063c5.606,1.709,11.021,2.761,16.107,2.761c7.193,0,12.096-1.754,14.374-2.801
			c1.147-0.525,1.818-0.948,1.997-1.065c0.544-0.359,1.004-0.827,1.353-1.374c3.589,1.516,6.762,2.283,9.454,2.283
			c3.628,0,5.686-1.361,6.647-2.266c0.633-0.563,1.103-1.294,1.351-2.113l0.101-0.353c0.04-0.139,0.081-0.254,0.119-0.369
			c0.017-0.051,0.035-0.102,0.051-0.152c0.178-0.371,0.306-0.77,0.378-1.187c0.849-3.932,1.303-7.879,1.385-12.136l0.59,0.025
			c0.067,0.003,0.134,0.005,0.2,0.005c1.236,0,2.425-0.496,3.297-1.383c0.919-0.933,1.397-2.211,1.32-3.519l-0.729-12.202
			c-0.076-1.271-0.674-2.456-1.651-3.273l-3.134-2.619c0.756-0.286,1.446-0.775,1.984-1.455l1.056-1.335
			c0.766-0.969,1.112-2.203,0.964-3.428c-0.149-1.227-0.783-2.342-1.759-3.098l-8.257-6.396c-0.02-0.087-0.035-0.163-0.043-0.218
			c-0.016-0.856-0.253-1.672-0.71-2.436c-0.057-0.14-0.109-0.258-0.151-0.352c-0.145-0.357-0.334-0.695-0.564-1.014
			c-0.328-0.482-0.733-0.895-1.196-1.229c-0.943-3.565-2.051-7.283-3.311-11.114l22.501,2.871c0.195,0.024,0.391,0.037,0.585,0.037
			c1.022,0,2.021-0.338,2.836-0.972c0.971-0.753,1.603-1.862,1.755-3.081l0.207-1.675c0.11-0.875-0.032-1.723-0.371-2.472
			l4.003,0.366c0.141,0.014,0.282,0.021,0.423,0.021c1.126,0,2.218-0.411,3.068-1.164l9.109-8.074
			c0.99-0.877,1.558-2.137,1.558-3.46C248.171,121.827,247.605,120.567,246.615,119.688z"/>
		<path d="M48.192,178.265l0.882-4.2c0.362-1.723-0.285-3.501-1.669-4.588c-0.83-0.652-1.84-0.988-2.857-0.988
			c-0.678,0-1.36,0.149-1.996,0.453l-3.87,1.852l-3.723-2.139c-0.715-0.412-1.51-0.615-2.304-0.615c-0.901,0-1.8,0.263-2.577,0.784
			c-1.462,0.981-2.241,2.707-2.008,4.452l0.566,4.251l-3.179,2.874c-1.305,1.181-1.828,2.999-1.348,4.692s1.879,2.968,3.61,3.287
			l4.224,0.779l1.755,3.916c0.72,1.605,2.289,2.665,4.047,2.729c0.059,0.003,0.116,0.004,0.174,0.004
			c1.692,0,3.256-0.927,4.066-2.423l2.041-3.771l4.262-0.456c1.751-0.186,3.244-1.352,3.851-3.004
			c0.607-1.653,0.222-3.508-0.991-4.783L48.192,178.265z"/>
	</g>
</g>
<g>
	<g>
		<path fill="#FFF16C" d="M243.84,117.838l-9.117-8.092c-0.849-0.754-1.943-1.166-3.069-1.166c-0.141,0-0.28,0.006-0.421,0.019
			l-4.007,0.366c0.339-0.748,0.481-1.595,0.374-2.469l-0.205-1.666c-0.15-1.221-0.781-2.331-1.753-3.086
			c-0.815-0.634-1.815-0.974-2.838-0.974c-0.193,0-0.389,0.013-0.584,0.038l-28.835,3.664c-0.689-1.955-1.498-3.867-2.424-5.728
			l23.019-17.823c0.971-0.752,1.603-1.858,1.757-3.077c0.154-1.219-0.183-2.447-0.936-3.418l-1.031-1.327
			c-0.543-0.699-1.246-1.2-2.018-1.491l3.095-2.577c0.981-0.817,1.581-2.004,1.657-3.278l0.729-12.157
			c0.079-1.32-0.41-2.612-1.346-3.547c-0.869-0.87-2.048-1.356-3.271-1.356c-0.092,0-0.184,0.004-0.274,0.009l-12.162,0.722
			c-1.275,0.076-2.464,0.677-3.28,1.658l-2.573,3.092c-0.293-0.772-0.794-1.476-1.494-2.019l-1.331-1.03
			c-0.814-0.63-1.812-0.968-2.832-0.968c-0.193,0-0.389,0.013-0.583,0.037c-1.217,0.155-2.323,0.787-3.073,1.757l-18.097,23.374
			c-1.794-0.828-3.643-1.551-5.539-2.166l3.746-29.447c0.155-1.22-0.181-2.45-0.934-3.42c-0.754-0.97-1.861-1.603-3.081-1.755
			l-1.671-0.21c-0.195-0.024-0.389-0.041-0.579-0.041c-0.67,0-1.314,0.137-1.897,0.401l0.366-4.025
			c0.115-1.27-0.298-2.567-1.146-3.521l-8.08-9.067c-0.878-0.99-2.137-1.576-3.46-1.576c0,0-0.001,0-0.002,0
			c-1.322,0-2.581,0.585-3.46,1.574l-8.089,9.193c-0.847,0.955-1.262,2.19-1.146,3.462l0.366,3.988
			c-0.581-0.262-1.223-0.413-1.889-0.413c-0.191,0-0.383,0.007-0.577,0.032l-1.675,0.207c-0.346,0.043-0.683,0.124-1.004,0.241
			C115.41,31.78,100.99,27.968,85.964,27.968c-4.968,0-10.013,0.416-14.993,1.236C30.383,35.886,1.753,67.998,7.15,100.786
			c2.706,16.435,13.645,30.229,29.237,38.873c-1.35,0.998-2.065,2.647-1.842,4.322l0.566,4.251l-3.179,2.875
			c-1.305,1.18-1.828,2.999-1.348,4.692c0.48,1.692,1.88,2.966,3.611,3.286l4.224,0.78l1.755,3.915
			c0.72,1.606,2.289,2.664,4.047,2.73c0.058,0.002,0.116,0.004,0.174,0.004c1.693,0,3.256-0.927,4.067-2.424l2.041-3.771
			l4.262-0.455c1.75-0.187,3.244-1.352,3.851-3.005c0.607-1.652,0.222-3.507-0.991-4.782l-2.958-3.108l0.431-2.05
			c6.457,1.586,13.315,2.446,20.44,2.446c2.748,0,5.53-0.128,8.302-0.379c0.854,1.072,1.779,2.036,2.758,2.873
			c0.215,0.188,0.435,0.371,0.657,0.551l-11.959,9.26c-0.971,0.752-1.603,1.858-1.757,3.076c-0.154,1.218,0.182,2.446,0.935,3.417
			l1.03,1.328c0.543,0.699,1.247,1.199,2.019,1.491l-2.93,2.439l0.383-1.826c0.362-1.722-0.285-3.501-1.669-4.588
			c-0.83-0.652-1.84-0.987-2.857-0.987c-0.678,0-1.36,0.147-1.996,0.452l-3.87,1.852l-3.723-2.139
			c-0.715-0.411-1.51-0.615-2.304-0.615c-0.901,0-1.8,0.264-2.577,0.784c-1.462,0.98-2.241,2.706-2.008,4.452l0.566,4.251
			l-3.179,2.874c-1.305,1.181-1.828,3-1.348,4.692c0.48,1.693,1.879,2.967,3.61,3.287l4.224,0.78l1.755,3.915
			c0.72,1.606,2.289,2.664,4.047,2.73c0.059,0.002,0.116,0.003,0.174,0.003c1.692,0,3.256-0.927,4.066-2.424l2.041-3.77l2.241-0.239
			l-0.125,2.081c-0.079,1.32,0.411,2.612,1.346,3.547c0.87,0.87,2.047,1.356,3.271,1.356c0.091,0,0.183-0.004,0.275-0.01
			l12.158-0.723c1.275-0.075,2.463-0.677,3.28-1.658l2.574-3.092c0.3,0.794,0.815,1.495,1.498,2.022l1.336,1.031
			c0.388,0.299,0.807,0.527,1.244,0.687c-0.399,0.707-0.56,1.41-0.613,1.98c-3.183,1.547-3.76,3.866-3.76,5.342
			c0,0.175,0.007,0.346,0.021,0.512c0.004,0.077,0.01,0.154,0.019,0.23l0.669,6.323c0.117,5.202,6.839,7.054,12.603,7.054
			c4.378,0,7.999-1.479,9.286-2.017c1.833-0.526,3.209-2.157,3.337-4.148l0.477-7.4c0.014-0.225,0.012-0.446-0.005-0.667
			c-0.016-2.005-1.079-3.702-2.984-4.912c0.109-0.071,0.217-0.145,0.324-0.221c0.474-0.332,1.039-0.741,1.635-1.252
			c0.109-0.094,0.214-0.191,0.313-0.295c0.156-0.111,0.306-0.233,0.448-0.366c0.589-0.546,1.174-1.137,1.739-1.755
			c0.105-0.115,0.204-0.234,0.296-0.358c0.112-0.104,0.218-0.214,0.318-0.328c0.011-0.013,0.075-0.087,0.086-0.1
			c0.053-0.063,0.105-0.126,0.156-0.191c0.045-0.049,0.09-0.099,0.134-0.151l0.171-0.204c0.089-0.108,0.173-0.221,0.252-0.334
			c0.093-0.1,0.183-0.203,0.268-0.311c0.444-0.564,0.878-1.146,1.297-1.744c0.049,0.069,0.098,0.139,0.148,0.209l-1.508,11.831
			c-0.155,1.219,0.181,2.45,0.934,3.42c0.753,0.971,1.862,1.603,3.082,1.755l1.673,0.209c0.195,0.024,0.389,0.036,0.58,0.036
			c0.666,0,1.308-0.144,1.889-0.406l-0.366,4.002c-0.116,1.272,0.299,2.535,1.146,3.491l8.016,9.113
			c0.878,0.989,2.393,1.556,3.393,1.556v-0.089c1,0,2.648-0.246,3.527-1.235l6.688-7.229c0.011,0,0.023,0,0.036,0
			c1.522,0,2.88-0.303,3.747-0.363c5.606,1.709,11.021,2.549,16.107,2.549c7.193,0,12.096-1.86,14.374-2.906
			c1.147-0.526,1.818-1.002,1.997-1.119c0.544-0.359,1.005-0.854,1.353-1.401c3.589,1.516,6.762,2.271,9.454,2.271
			c3.628,0,5.686-1.367,6.647-2.271c0.633-0.564,1.104-1.298,1.351-2.117l0.102-0.354c0.039-0.138,0.08-0.256,0.119-0.371
			c0.016-0.051,0.034-0.102,0.05-0.151c0.178-0.372,0.306-0.771,0.378-1.188c0.849-3.932,1.303-7.878,1.385-12.135l0.59,0.025
			c0.067,0.002,0.134,0.004,0.201,0.004c1.235,0,2.425-0.496,3.296-1.382c0.919-0.934,1.397-2.212,1.32-3.519l-0.729-12.202
			c-0.076-1.272-0.674-2.456-1.651-3.274l-3.134-2.618c0.756-0.287,1.446-0.776,1.984-1.456l1.056-1.335
			c0.767-0.968,1.113-2.202,0.964-3.428c-0.149-1.227-0.783-2.341-1.759-3.098l-8.257-6.396c-0.02-0.087-0.034-0.162-0.043-0.218
			c-0.015-0.856-0.253-1.671-0.71-2.436c-0.057-0.139-0.109-0.258-0.151-0.352c-0.145-0.356-0.334-0.695-0.563-1.014
			c-0.329-0.482-0.733-0.894-1.197-1.229c-0.943-3.564-2.051-7.283-3.31-11.114l22.5,2.871c0.195,0.024,0.392,0.037,0.586,0.037
			c1.021,0,2.02-0.338,2.835-0.971c0.971-0.754,1.603-1.862,1.755-3.082l0.207-1.675c0.11-0.874-0.032-1.722-0.371-2.472
			l4.003,0.367c0.142,0.014,0.282,0.02,0.423,0.02c1.126,0,2.218-0.411,3.068-1.163l9.109-8.075c0.99-0.877,1.558-2.137,1.558-3.46
			C245.396,119.977,244.83,118.717,243.84,117.838z"/>
		<path fill="#FFF16C" d="M45.417,176.415l0.882-4.2c0.362-1.723-0.285-3.502-1.669-4.588c-0.831-0.652-1.84-0.989-2.857-0.989
			c-0.679,0-1.361,0.149-1.996,0.454l-3.87,1.851l-3.723-2.138c-0.715-0.412-1.51-0.615-2.304-0.615c-0.901,0-1.8,0.263-2.577,0.784
			c-1.461,0.98-2.24,2.706-2.008,4.451l0.566,4.252l-3.178,2.873c-1.306,1.181-1.828,3-1.348,4.692
			c0.48,1.694,1.879,2.968,3.61,3.287l4.224,0.78l1.755,3.915c0.72,1.606,2.289,2.665,4.048,2.73
			c0.058,0.002,0.116,0.003,0.174,0.003c1.692,0,3.256-0.927,4.066-2.423l2.042-3.771l4.262-0.455
			c1.75-0.187,3.243-1.352,3.851-3.005c0.606-1.653,0.222-3.507-0.992-4.782L45.417,176.415z"/>
	</g>
</g>
<path fill="#D8B76C" d="M199.283,153.769c0,0,0.638-0.249,1.059,0.162c0.423,0.41-0.236,1.513-0.236,1.513l-0.541-0.021
	L199.283,153.769z"/>
<g>
	<path fill="#FFB000" d="M231.66,129.372l9.11-8.075l-9.117-8.092l-40.202,3.669c-0.187-1.934-0.505-3.824-0.92-5.679l32.479-4.133
		l-0.206-1.667l-32.693,4.156c-1.132-4.299-2.865-8.336-5.105-12.044l26.144-20.243l-1.032-1.326l-25.995,20.125
		c-1.052-1.609-2.203-3.142-3.442-4.6l31.208-25.985l0.729-12.158l-12.161,0.723l-26.067,31.32
		c-1.493-1.201-3.081-2.276-4.712-3.287L190,55.814l-1.33-1.03l-20.442,26.404c-3.694-2.085-7.707-3.65-11.941-4.656l4.251-33.401
		l-1.672-0.209l-4.23,33.213c-1.847-0.368-3.744-0.587-5.668-0.725l3.755-41.133l-8.081-9.115l-8.089,9.116l3.778,41.291
		c-1.915,0.217-3.783,0.585-5.631,1.033l-4.282-33.679l-1.674,0.208l4.318,33.896c-4.055,1.144-7.867,2.838-11.385,4.985
		l-21.065-27.207l-1.336,1.031l20.953,27.056c-1.583,1.046-3.088,2.208-4.529,3.446L88.83,54.064l-12.152-0.725l0.729,12.15
		l32.362,26.941c-1.19,1.475-2.265,3.037-3.269,4.661L79.177,75.945l-1.033,1.331l27.476,21.266
		c-1.99,3.485-3.508,7.255-4.537,11.227l-34.582-4.404l-0.211,1.669l34.37,4.381c-0.4,1.835-0.696,3.708-0.875,5.613l-42.136-3.857
		l-9.109,8.077l9.114,8.084l42.125-3.842c0.177,1.91,0.469,3.783,0.865,5.617l-34.354,4.365l0.214,1.677l34.558-4.401
		c1.028,4.005,2.555,7.792,4.552,11.299L78.128,165.33l1.03,1.327l27.337-21.161c1.005,1.616,2.078,3.185,3.271,4.661L77.392,177.11
		l-0.729,12.157l12.158-0.725l26.877-32.29c1.446,1.237,2.946,2.392,4.535,3.441l-20.959,27.078l1.336,1.032l21.07-27.229
		c3.516,2.145,7.327,3.845,11.381,4.99l-4.318,33.897l1.674,0.208l4.282-33.682c1.84,0.448,3.708,0.812,5.631,1.031l-3.778,41.294
		l8.083,9.113l8.087-9.113l-3.758-41.139c1.923-0.137,3.816-0.354,5.671-0.726l4.23,33.221l1.672-0.208l-4.258-33.404
		c4.241-1.003,8.257-2.575,11.951-4.668l20.439,26.398l1.33-1.032l-20.322-26.247c1.629-1.003,3.217-2.093,4.71-3.283l26.061,31.298
		l12.157,0.729l-0.729-12.156l-31.196-25.975c1.234-1.454,2.39-2.982,3.441-4.593l25.984,20.12l1.035-1.335l-26.139-20.23
		c2.252-3.716,3.982-7.767,5.115-12.07l32.691,4.17l0.208-1.675l-32.481-4.137c0.419-1.857,0.736-3.752,0.924-5.686L231.66,129.372z
		"/>
</g>
<ellipse transform="matrix(0.9867 -0.1624 0.1624 0.9867 -13.3303 14.2956)" fill="#FFE8AE" cx="80.76" cy="88.669" rx="69.974" ry="55.639"/>
<path fill="#FFE8AE" d="M99.223,85.204c0,0,0.012,0.017,0.037,0.051c0.069,0.085,0.174,0.212,0.311,0.38
	c0.177,0.231,0.411,0.549,0.67,0.929c0.521,0.761,1.184,1.803,1.92,3.138c1.462,2.665,3.293,6.519,4.462,11.681
	c0.587,2.565,0.971,5.476,0.966,8.591c-0.002,3.11-0.468,6.438-1.442,9.654c-0.474,1.612-1.112,3.178-1.818,4.698
	c-0.383,0.739-0.751,1.493-1.17,2.205l-0.641,1.059l-0.323,0.525c0.098-0.206,0.018-0.043,0.036-0.083l-0.017,0.022l-0.033,0.046
	l-0.064,0.093l-0.131,0.184c-1.114,1.396-2.08,2.862-2.782,4.313c-0.708,1.449-1.159,2.876-1.313,4.171
	c-0.151,1.299-0.029,2.469,0.459,3.605c0.487,1.128,1.421,2.208,2.681,3.045c1.25,0.846,2.767,1.449,4.276,1.835
	c1.513,0.398,3.022,0.597,4.388,0.686c1.367,0.091,2.596,0.076,3.613,0.028c1.018-0.047,1.826-0.123,2.377-0.18
	c0.553-0.063,0.847-0.098,0.847-0.098l0.054-0.006c0.869-0.1,1.654,0.525,1.752,1.395c0.077,0.676-0.286,1.301-0.858,1.592
	c0,0-0.283,0.143-0.813,0.412c-0.535,0.264-1.324,0.646-2.363,1.088c-1.04,0.44-2.33,0.942-3.883,1.407
	c-1.553,0.466-3.371,0.901-5.48,1.123c-2.104,0.21-4.515,0.214-7.172-0.366c-2.637-0.568-5.567-1.813-8.13-4.051
	c-2.579-2.206-4.576-5.4-5.633-8.769c-1.081-3.382-1.32-6.876-1.085-10.157c0.235-3.293,0.948-6.401,1.881-9.294l0.062-0.218
	l0.031-0.108l0.015-0.054l0.008-0.027c0.026-0.057-0.047,0.089,0.06-0.135l0.045-0.283l0.095-0.554
	c0.059-0.365,0.067-0.725,0.112-1.068c0.016-0.697,0.017-1.35-0.07-1.97c-0.154-1.239-0.473-2.333-0.933-3.351
	c-0.443-1.015-0.966-1.951-1.572-2.807c-1.195-1.705-2.541-3.069-3.484-3.866c-0.471-0.399-0.839-0.661-1.041-0.773
	c-0.103-0.056-0.154-0.065-0.171-0.052c0.021,0.041,0.071,0.106,0.089,0.134c-0.027-0.02-0.04-0.031-0.04-0.031
	c-6.439-4.946-7.65-14.177-2.703-20.617c4.947-6.439,14.177-7.649,20.617-2.703c1.184,0.911,2.191,1.964,3.016,3.118L99.223,85.204z
	"/>
<g>
	<path fill="#1A1A1A" d="M26.472,65.997c0.247-0.037,0.532-0.313,0.856-0.83c0.323-0.517,0.667-1.27,1.029-2.26
		c0.196-0.37,0.511-0.724,0.945-1.059c0.435-0.335,0.945-0.632,1.532-0.892c0.588-0.259,1.23-0.482,1.928-0.667
		c0.507-0.14,1.228-0.281,2.16-0.422c0.579-0.088,1.152-0.149,1.723-0.184s1.118-0.039,1.643-0.011
		c0.524,0.027,1.014,0.085,1.469,0.175c0.455,0.089,0.858,0.212,1.209,0.368c0.351,0.157,0.635,0.352,0.851,0.583
		c0.216,0.233,0.348,0.504,0.396,0.813c0.072,0.472,0.025,0.932-0.14,1.38c-0.165,0.45-0.433,0.86-0.807,1.233
		c-0.374,0.373-0.845,0.697-1.415,0.968c-0.569,0.273-1.225,0.464-1.964,0.577c-0.316,0.048-0.613,0.079-0.891,0.093
		c-0.277,0.015-0.582,0.047-0.913,0.097c-0.247,0.038-0.438,0.087-0.576,0.146c-0.137,0.061-0.236,0.135-0.297,0.222
		c-0.062,0.089-0.093,0.193-0.094,0.316c0,0.123,0.011,0.265,0.035,0.426c0.052,0.345,0.18,0.611,0.382,0.8
		c0.202,0.19,0.451,0.336,0.747,0.439c0.295,0.104,0.625,0.175,0.991,0.217c0.364,0.04,0.737,0.083,1.119,0.125
		c0.381,0.043,0.756,0.099,1.125,0.168c0.369,0.069,0.707,0.185,1.011,0.349s0.564,0.383,0.78,0.661
		c0.216,0.278,0.359,0.645,0.427,1.102c0.13,0.851,0.091,1.572-0.116,2.163c-0.206,0.591-0.521,1.099-0.946,1.521
		c-0.424,0.423-0.933,0.763-1.525,1.018c-0.592,0.254-1.216,0.432-1.871,0.531c-0.54,0.082-1.087,0.108-1.644,0.08
		c-0.557-0.028-1.082-0.085-1.576-0.171c-0.069-0.038-0.126-0.105-0.172-0.197c-0.046-0.094-0.087-0.199-0.124-0.314
		c-0.038-0.116-0.064-0.228-0.081-0.338c-0.017-0.11-0.03-0.197-0.04-0.26c-0.059-0.39-0.115-0.8-0.168-1.228
		c-0.053-0.427-0.101-0.857-0.143-1.291c-0.042-0.434-0.084-0.876-0.125-1.331c-0.041-0.452-0.07-0.866-0.087-1.24
		c-0.036-0.658-0.054-1.333-0.053-2.029c0.001-0.696,0.032-1.285,0.093-1.765c0.061-0.481,0.172-1.037,0.333-1.669
		c0.16-0.632,0.381-1.216,0.662-1.754c-0.474-0.578-0.992-0.823-1.555-0.737c-0.447,0.067-0.916,0.333-1.405,0.794
		c-0.484,1.023-0.821,2.053-1.011,3.087c-0.19,1.035-0.285,2.232-0.283,3.594c0,1.36,0.071,2.725,0.211,4.092
		c0.14,1.368,0.309,2.699,0.505,3.995c0.039,0.256,0.148,0.421,0.329,0.495c0.182,0.076,0.384,0.121,0.606,0.138
		c0.511,0.089,1.05,0.165,1.619,0.225c0.569,0.058,1.145,0.096,1.727,0.114c0.582,0.018,1.155,0.015,1.719-0.009
		c0.564-0.024,1.097-0.073,1.598-0.15c0.794-0.12,1.509-0.316,2.146-0.587c0.637-0.271,1.197-0.595,1.68-0.97
		c0.483-0.376,0.892-0.793,1.224-1.25c0.333-0.458,0.596-0.934,0.789-1.429c0.193-0.494,0.318-0.998,0.374-1.51
		c0.056-0.513,0.048-1.008-0.024-1.487c-0.092-0.607-0.278-1.188-0.56-1.746c-0.281-0.558-0.647-1.019-1.097-1.382
		c-0.449-0.362-0.978-0.625-1.586-0.786c-0.608-0.163-1.293-0.185-2.057-0.07c1.2-0.205,2.206-0.524,3.02-0.956
		c0.813-0.432,1.46-0.922,1.941-1.475c0.479-0.551,0.806-1.135,0.976-1.755c0.17-0.618,0.21-1.225,0.121-1.82
		c-0.076-0.5-0.298-0.958-0.664-1.375c-0.367-0.417-0.84-0.783-1.42-1.101c-0.581-0.318-1.247-0.585-1.997-0.807
		c-0.751-0.22-1.548-0.385-2.393-0.492c-0.845-0.108-1.716-0.159-2.614-0.153s-1.782,0.075-2.653,0.207
		c-0.748,0.114-1.469,0.274-2.163,0.481c-0.694,0.208-1.343,0.467-1.947,0.774c-0.603,0.309-1.149,0.667-1.634,1.076
		c-0.487,0.409-0.888,0.875-1.208,1.401c-0.318,0.526-0.541,1.105-0.665,1.739c-0.125,0.634-0.129,1.329-0.015,2.084
		C25.904,65.685,26.132,66.048,26.472,65.997z"/>
	<path fill="#1A1A1A" d="M46.85,74.495c0.149,0.313,0.325,0.556,0.528,0.73c0.204,0.174,0.422,0.287,0.658,0.338
		c0.235,0.051,0.479,0.057,0.733,0.018c0.309-0.046,0.617-0.157,0.927-0.333c0.309-0.175,0.606-0.397,0.894-0.667
		c0.286-0.269,0.562-0.577,0.825-0.925c0.263-0.347,0.506-0.72,0.73-1.119c0.128,0.338,0.266,0.643,0.411,0.911
		c0.145,0.27,0.308,0.496,0.486,0.679c0.179,0.183,0.379,0.316,0.601,0.399c0.222,0.083,0.477,0.103,0.765,0.06
		c0.283-0.043,0.583-0.13,0.903-0.26c0.319-0.13,0.642-0.288,0.968-0.474c0.327-0.185,0.648-0.392,0.965-0.62
		c0.279-0.2,0.538-0.407,0.787-0.614c0.024,0.054,0.048,0.114,0.073,0.165c0.408,0.845,0.902,1.224,1.486,1.135
		c0.352-0.053,0.692-0.249,1.018-0.586c0.326-0.337,0.623-0.784,0.892-1.341c0.268-0.557,0.502-1.207,0.699-1.95
		c0.197-0.745,0.344-1.553,0.439-2.427l0.346,0.007c0.063,0.416,0.132,0.843,0.206,1.281c0.074,0.438,0.152,0.864,0.235,1.278
		c0.083,0.414,0.169,0.804,0.26,1.172c0.092,0.369,0.186,0.69,0.283,0.963c0.096,0.273,0.198,0.486,0.304,0.64
		c0.106,0.154,0.213,0.222,0.322,0.206c0.307-0.047,0.6-0.197,0.877-0.452c0.276-0.256,0.538-0.591,0.782-1.006
		s0.471-0.902,0.678-1.457c0.208-0.556,0.396-1.161,0.564-1.819c0.08,0.477,0.224,0.871,0.434,1.184
		c0.208,0.312,0.462,0.553,0.76,0.724c0.298,0.17,0.63,0.276,0.995,0.321c0.365,0.044,0.745,0.036,1.138-0.023
		c0.501-0.076,1.008-0.256,1.521-0.542c0.111-0.061,0.214-0.137,0.322-0.205c0.018,0.034,0.028,0.073,0.047,0.107
		c0.224,0.383,0.492,0.697,0.806,0.939c0.313,0.243,0.655,0.414,1.029,0.512c0.374,0.099,0.745,0.12,1.116,0.063
		c0.35-0.053,0.69-0.164,1.022-0.331c0.333-0.167,0.646-0.365,0.941-0.593c0.296-0.228,0.563-0.474,0.8-0.735
		c0.239-0.262,0.435-0.515,0.589-0.757c0.342,0.581,0.709,1.006,1.101,1.279c0.391,0.273,0.842,0.371,1.354,0.293
		c0.424-0.064,0.832-0.233,1.224-0.508c0.392-0.276,0.75-0.593,1.074-0.953c0.263-0.292,0.494-0.594,0.705-0.899
		c0.022,0.092,0.035,0.191,0.06,0.281c0.079,0.284,0.187,0.532,0.326,0.744c0.138,0.211,0.314,0.371,0.526,0.475
		c0.214,0.106,0.478,0.136,0.794,0.087c0.254-0.038,0.469-0.13,0.645-0.275c0.168-0.135,0.309-0.377,0.422-0.726l2.118-6.472
		l0.186-0.027c0,0.63,0.011,1.218,0.03,1.763c0.02,0.545,0.064,1.049,0.134,1.511c0.179,1.18,0.459,2.054,0.841,2.623
		c0.382,0.569,0.785,0.822,1.209,0.758c0.423-0.065,0.819-0.188,1.186-0.37C93.089,68.612,93.44,68.4,94,68.04
		c0.23-0.146,0.796-0.554,1.695-1.227c0.623-0.465,0.955-0.72,0.996-0.766l0.511-0.527l-0.381-2.593
		c-0.769,0.701-1.432,1.294-1.989,1.781c-0.446,0.391-0.681,0.584-0.705,0.58c-0.016-0.004-0.174,0.149-0.474,0.461
		c-0.059,0.082-0.209,0.186-0.449,0.317c-0.159,0.095-0.285,0.149-0.377,0.163c-0.254,0.038-0.464-0.086-0.631-0.377
		c-0.166-0.29-0.285-0.674-0.358-1.153c-0.043-0.284-0.073-0.599-0.089-0.944c-0.017-0.344-0.025-0.694-0.024-1.049
		c0.002-0.355,0.002-0.757,0.001-1.207c-0.001-0.449,0.004-0.816,0.017-1.102c0.011-0.286,0.019-0.531,0.024-0.737
		c0.004-0.206,0-0.351-0.013-0.435c-0.086-0.571-0.269-1.001-0.544-1.29c-0.277-0.29-0.608-0.405-0.994-0.346
		c-0.385,0.059-0.724,0.189-1.017,0.391c-0.292,0.202-0.531,0.529-0.714,0.983c-0.04,0.101-0.1,0.256-0.178,0.464
		c-0.079,0.209-0.166,0.449-0.259,0.719c-0.093,0.271-0.193,0.555-0.302,0.851c-0.109,0.296-0.202,0.633-0.28,1.007
		s-0.152,0.663-0.223,0.867c-0.072,0.204-0.124,0.352-0.158,0.444l-0.231,0.034c-0.008-0.054-0.013-0.161-0.013-0.323
		c-0.001-0.161-0.008-0.405-0.023-0.73c-0.013-0.325-0.02-0.616-0.02-0.872c0.001-0.257,0.001-0.505,0-0.746
		c0-0.24-0.005-0.46-0.011-0.661c-0.007-0.2-0.019-0.358-0.036-0.473c-0.064-0.424-0.197-0.75-0.397-0.98
		c-0.201-0.23-0.509-0.313-0.925-0.25c-0.416,0.063-0.728,0.233-0.934,0.507c-0.207,0.277-0.326,0.598-0.357,0.966
		c-0.039,0.471-0.068,1.035-0.086,1.692c-0.018,0.658-0.013,1.393,0.015,2.205c0.015,0.423,0.032,0.827,0.049,1.214
		c-0.26,0.475-0.523,0.92-0.79,1.317c-0.136,0.201-0.282,0.396-0.438,0.589c-0.156,0.191-0.315,0.366-0.477,0.523
		c-0.162,0.158-0.325,0.29-0.49,0.397c-0.165,0.106-0.329,0.173-0.49,0.198c-0.216,0.032-0.372-0.046-0.467-0.235
		c-0.096-0.19-0.17-0.46-0.224-0.814c-0.063-0.413-0.076-0.931-0.04-1.554c0.036-0.623,0.067-1.177,0.096-1.664
		c0.027-0.486,0.046-0.96,0.055-1.421c0.009-0.46-0.015-0.875-0.071-1.243c-0.036-0.242-0.087-0.43-0.15-0.563
		c-0.064-0.134-0.14-0.233-0.229-0.3c-0.09-0.065-0.186-0.103-0.291-0.111c-0.104-0.008-0.215-0.002-0.331,0.014
		c-0.085,0.014-0.172,0.029-0.261,0.047c-0.088,0.016-0.176,0.033-0.261,0.045c-0.101,0.014-0.201,0.023-0.299,0.027
		c-0.099,0.003-0.198-0.007-0.296-0.033c-0.099-0.025-0.186-0.076-0.261-0.151c-0.075-0.077-0.152-0.154-0.232-0.234
		c-0.08-0.08-0.175-0.147-0.287-0.201c-0.112-0.055-0.256-0.069-0.435-0.042c-0.535,0.08-1.043,0.273-1.524,0.578
		c-0.481,0.305-0.926,0.685-1.333,1.139c-0.407,0.454-0.767,0.969-1.081,1.543s-0.587,1.24-0.821,1.998
		c-0.234,0.758-0.387,1.454-0.458,2.085c-0.014,0.126-0.011,0.245-0.019,0.368c-0.215,0.16-0.431,0.319-0.673,0.464
		c-0.31,0.185-0.593,0.296-0.848,0.335c-0.3,0.046-0.572,0-0.813-0.136c-0.242-0.138-0.452-0.295-0.628-0.474
		c-0.206-0.213-0.385-0.461-0.539-0.746c0.069-0.215,0.153-0.449,0.249-0.699c0.077-0.218,0.175-0.547,0.292-0.992
		c0.119-0.443,0.239-0.832,0.362-1.166c0.005-0.017,0.035-0.106,0.09-0.269c0.054-0.161,0.108-0.354,0.16-0.58
		c0.053-0.224,0.097-0.466,0.133-0.724c0.036-0.258,0.038-0.494,0.004-0.711c-0.043-0.285-0.213-0.497-0.51-0.638
		c-0.298-0.141-0.667-0.177-1.105-0.11c-0.424,0.064-0.778,0.202-1.061,0.416c-0.283,0.212-0.456,0.434-0.515,0.663L64.94,68.91
		l-0.172,0.035l0.057-6.881c-0.034-0.223-0.152-0.389-0.353-0.496c-0.202-0.107-0.472-0.135-0.812-0.084
		c-0.401,0.061-0.737,0.177-1.008,0.349c-0.271,0.17-0.501,0.4-0.695,0.69c-0.193,0.289-0.359,0.641-0.498,1.057
		c-0.138,0.416-0.274,0.897-0.408,1.445c-0.135,0.549-0.285,1.249-0.453,2.098c-0.167,0.851-0.362,1.695-0.583,2.533l-0.149,0.033
		l-0.084-6.866c-0.034-0.222-0.158-0.385-0.375-0.489c-0.216-0.104-0.508-0.129-0.874-0.073l-0.305,0.023
		c-0.308,0.046-0.563,0.155-0.763,0.325c-0.201,0.171-0.366,0.373-0.497,0.607c-0.131,0.234-0.229,0.486-0.294,0.757
		c-0.066,0.271-0.112,0.529-0.139,0.775c-0.01,0.094-0.019,0.154-0.028,0.193c0.08,0.566,0.162,1.132,0.247,1.697
		c0.1,0.658,0.214,1.416,0.345,2.274c0.09,0.597,0.19,1.138,0.298,1.631c-0.053,0.048-0.099,0.1-0.153,0.147
		c-0.258,0.225-0.513,0.43-0.764,0.614c-0.252,0.185-0.494,0.338-0.723,0.46s-0.43,0.196-0.6,0.221c-0.133,0.02-0.24,0-0.322-0.063
		c-0.081-0.063-0.148-0.161-0.203-0.291c-0.053-0.13-0.098-0.285-0.132-0.466c-0.034-0.181-0.068-0.38-0.1-0.597
		c-0.021-0.134-0.026-0.353-0.016-0.657c0.01-0.303,0.022-0.658,0.036-1.063s0.03-0.917,0.052-1.536
		c0.02-0.618,0.038-1.146,0.053-1.582c0.015-0.437,0.002-0.834-0.039-1.196c-0.041-0.36-0.076-0.644-0.108-0.853
		c-0.032-0.216-0.171-0.377-0.416-0.481c-0.244-0.105-0.556-0.128-0.935-0.071c-0.335,0.051-0.625,0.16-0.87,0.327
		c-0.245,0.167-0.372,0.346-0.381,0.538l-0.32,6.494c-0.014,0.332-0.063,0.629-0.15,0.891c-0.086,0.27-0.198,0.495-0.337,0.676
		c-0.129,0.197-0.275,0.354-0.439,0.47c-0.165,0.118-0.332,0.19-0.502,0.215c-0.116,0.019-0.221,0.002-0.316-0.049
		c-0.095-0.05-0.176-0.123-0.247-0.218c-0.07-0.096-0.128-0.207-0.175-0.334c-0.046-0.126-0.081-0.262-0.103-0.405
		c0-0.008,0.001-0.126,0.008-0.354c0.006-0.228,0.014-0.527,0.024-0.896c0.011-0.37,0.024-0.86,0.041-1.472
		c0.017-0.612,0.033-1.168,0.046-1.668c0.014-0.5,0.027-0.996,0.042-1.489c0.014-0.493,0.016-1.005,0.006-1.534
		c-0.025-0.167-0.135-0.293-0.329-0.379c-0.195-0.086-0.498-0.108-0.91-0.066c-0.246,0.046-0.457,0.146-0.635,0.297
		c-0.178,0.153-0.325,0.338-0.442,0.553c-0.117,0.215-0.212,0.45-0.284,0.706c-0.072,0.255-0.126,0.504-0.165,0.745
		c-0.038,0.243-0.06,0.466-0.066,0.668c-0.006,0.203-0.012,0.363-0.015,0.479c0.036,1.59-0.001,2.794-0.113,3.616
		c-0.064,0.561-0.024,1.347,0.121,2.358C46.589,73.783,46.7,74.182,46.85,74.495z M75.112,66.604
		c0.031-0.394,0.115-0.861,0.255-1.398c0.139-0.537,0.294-0.994,0.466-1.372c0.171-0.377,0.37-0.72,0.595-1.028
		c0.226-0.308,0.477-0.563,0.753-0.765c0.277-0.203,0.574-0.327,0.89-0.375l-0.293,3.89c0.007,0.252-0.014,0.574-0.062,0.962
		c-0.048,0.387-0.13,0.77-0.248,1.144c-0.116,0.376-0.272,0.705-0.466,0.988c-0.194,0.284-0.434,0.446-0.72,0.49
		c-0.177,0.027-0.331,0.003-0.46-0.07c-0.13-0.073-0.241-0.179-0.333-0.315c-0.092-0.137-0.165-0.295-0.221-0.479
		c-0.055-0.182-0.098-0.373-0.128-0.572C75.092,67.367,75.082,67,75.112,66.604z"/>
	<path fill="#1A1A1A" d="M56.37,64.032c0.027,0.237,0.052,0.454,0.076,0.654c0.005,0.049,0.015,0.133,0.029,0.251
		c0.008,0.074,0.02,0.07,0.033,0.005c-0.013-0.092-0.027-0.184-0.04-0.276C56.375,64.006,56.343,63.795,56.37,64.032z"/>
	<path fill="#1A1A1A" d="M101.686,63.262c0.04,0.676,0.099,1.268,0.175,1.777c0.047,0.308,0.109,0.604,0.188,0.888
		c0.079,0.284,0.188,0.531,0.326,0.743c0.139,0.211,0.314,0.371,0.527,0.476c0.213,0.105,0.478,0.135,0.794,0.087
		c0.254-0.039,0.469-0.131,0.645-0.275c0.168-0.137,0.309-0.378,0.422-0.727l2.118-6.471l0.186-0.029
		c0,0.631,0.011,1.218,0.03,1.763c0.019,0.546,0.064,1.05,0.134,1.512c0.179,1.179,0.459,2.053,0.841,2.622
		c0.381,0.569,0.785,0.822,1.208,0.757c0.424-0.063,0.82-0.186,1.186-0.369c0.141-0.061,0.491-0.271,1.051-0.632
		c0.207-0.13,0.698-0.485,1.445-1.041c0.288,0.322,0.634,0.587,1.041,0.795c0.56,0.285,1.14,0.383,1.741,0.291
		c0.817-0.123,1.596-0.659,2.335-1.606l-0.023,1.41c-0.421,0.498-0.78,0.955-1.075,1.375c-0.295,0.419-0.667,0.975-1.114,1.665
		c-0.217,0.333-0.423,0.701-0.619,1.106c-0.195,0.404-0.333,0.714-0.415,0.932c-0.081,0.217-0.229,0.602-0.445,1.155
		c-0.371,0.987-0.464,1.881-0.28,2.681c0.103,0.425,0.267,0.787,0.49,1.084c0.222,0.298,0.488,0.516,0.797,0.654
		c0.309,0.139,0.635,0.228,0.98,0.266c0.345,0.038,0.714,0.028,1.107-0.031c0.486-0.074,0.921-0.219,1.307-0.436
		c0.385-0.216,0.706-0.47,0.96-0.761c0.256-0.291,0.474-0.633,0.655-1.026c0.181-0.395,0.317-0.781,0.409-1.162
		c0.092-0.381,0.162-0.793,0.209-1.238c0.047-0.444,0.066-0.84,0.058-1.185c-0.009-0.347-0.017-0.699-0.025-1.055
		c-0.005-0.159-0.011-0.385-0.017-0.678c-0.058-1.009-0.076-1.7-0.054-2.074c0.022-0.374,0.127-0.647,0.313-0.818
		c0.298-0.273,0.78-0.706,1.449-1.296c0.034-0.029,0.083-0.071,0.146-0.128c0.341-0.356,0.746-0.852,1.218-1.487
		c0.463-0.64,0.77-1.191,0.921-1.652l-1.141-2.453c-0.866,2.035-1.704,3.462-2.509,4.284c-0.225,0.231-0.439,0.428-0.644,0.592
		c-0.066-1.223-0.131-2.216-0.191-2.978c-0.06-0.761-0.05-1.463,0.03-2.106c0.08-0.644,0.1-1.174,0.059-1.597
		c-0.134-1.356-0.266-2.148-0.395-2.374c-0.075-0.13-0.142-0.235-0.202-0.313c-0.163-0.189-0.417-0.258-0.765-0.205l-0.507,0.089
		c-0.102,0.015-0.191,0.024-0.27,0.03c-0.078,0.002-0.15-0.002-0.215-0.017c-0.065-0.013-0.118-0.023-0.159-0.03
		c-0.04-0.005-0.087-0.028-0.14-0.067c-0.053-0.04-0.091-0.066-0.112-0.08c-0.022-0.013-0.061-0.048-0.117-0.107
		c-0.056-0.059-0.097-0.099-0.124-0.119c-0.22-0.198-0.53-0.266-0.931-0.206c-0.886,0.135-1.736,0.693-2.549,1.676
		c-0.56,0.676-0.985,1.437-1.275,2.281c-0.291,0.845-0.544,1.898-0.762,3.162c-0.113,0.625-0.131,1.199-0.062,1.726
		c-0.252,0.216-0.388,0.324-0.406,0.32c-0.016-0.005-0.174,0.149-0.474,0.462c-0.059,0.08-0.208,0.186-0.449,0.316
		c-0.16,0.096-0.285,0.15-0.377,0.165c-0.255,0.038-0.465-0.089-0.632-0.378c-0.166-0.291-0.285-0.675-0.357-1.152
		c-0.043-0.286-0.073-0.6-0.09-0.945c-0.017-0.344-0.025-0.694-0.023-1.049c0.002-0.355,0.002-0.757,0-1.206
		c-0.001-0.45,0.005-0.818,0.017-1.103c0.012-0.286,0.019-0.532,0.024-0.737c0.003-0.206,0-0.352-0.013-0.438
		c-0.086-0.569-0.268-0.999-0.544-1.288c-0.277-0.289-0.608-0.405-0.994-0.347c-0.385,0.059-0.724,0.19-1.017,0.391
		c-0.292,0.202-0.531,0.53-0.714,0.983c-0.04,0.102-0.1,0.256-0.178,0.465c-0.079,0.209-0.165,0.448-0.258,0.719
		s-0.194,0.554-0.303,0.85c-0.108,0.297-0.202,0.632-0.279,1.006s-0.151,0.664-0.224,0.868c-0.071,0.204-0.124,0.352-0.157,0.443
		l-0.231,0.036c-0.008-0.054-0.012-0.163-0.013-0.325c-0.001-0.161,0.083-0.404,0.069-0.729c-0.013-0.325,0.072-0.616,0.072-0.873
		c0-0.256,0-0.504,0-0.744c0-0.241-0.097-0.461-0.104-0.662c-0.006-0.2-0.064-0.357-0.082-0.473
		c-0.064-0.425-0.219-0.752-0.42-0.981c-0.2-0.229-0.52-0.313-0.937-0.25c-0.416,0.063-0.733,0.231-0.94,0.508
		c-0.206,0.275-0.328,0.597-0.359,0.965c-0.039,0.471-0.069,1.035-0.088,1.693c-0.019,0.657-0.014,1.391,0.014,2.203
		S101.646,62.586,101.686,63.262z M118.5,68.018c0.003,0.108,0.011,0.363,0.022,0.763c0.011,0.4,0.021,0.736,0.029,1.007
		c0.007,0.272-0.006,0.525-0.042,0.759c-0.052,0.434-0.102,0.783-0.148,1.046c-0.047,0.263-0.103,0.533-0.167,0.811
		c-0.064,0.278-0.132,0.493-0.204,0.647c-0.071,0.152-0.16,0.297-0.265,0.436c-0.105,0.139-0.225,0.242-0.361,0.309
		c-0.135,0.069-0.296,0.117-0.481,0.145c-0.517,0.078-0.703-0.268-0.56-1.039c0.175-0.925,0.46-1.854,0.855-2.785
		C117.574,69.186,118.014,68.485,118.5,68.018z M115.612,57.75c0.496-1.305,1.191-2.026,2.085-2.161l-0.283,3.981
		c0.07,0.676,0.021,1.365-0.148,2.069c-0.219,0.893-0.592,1.378-1.116,1.458c-0.3,0.045-0.567-0.08-0.801-0.375
		c-0.362-0.458-0.543-1.188-0.545-2.188C114.805,60.07,115.074,59.141,115.612,57.75z"/>
	<path fill="#1A1A1A" d="M137.561,81.839c-0.867,2.035-1.702,3.462-2.508,4.285c-0.227,0.23-0.441,0.429-0.645,0.594
		c-0.067-1.225-0.131-2.217-0.19-2.979c-0.062-0.761-0.051-1.462,0.029-2.106c0.079-0.643,0.1-1.175,0.06-1.596
		c-0.134-1.357-0.266-2.148-0.396-2.375c-0.073-0.131-0.142-0.236-0.2-0.313c-0.162-0.189-0.417-0.257-0.764-0.205l-0.508,0.089
		c-0.102,0.015-0.191,0.025-0.271,0.029c-0.078,0.004-0.15,0-0.216-0.015c-0.065-0.014-0.117-0.024-0.158-0.03
		s-0.088-0.028-0.14-0.069c-0.055-0.04-0.092-0.065-0.112-0.078c-0.021-0.013-0.062-0.049-0.117-0.108
		c-0.057-0.06-0.098-0.099-0.125-0.118c-0.219-0.198-0.529-0.267-0.931-0.205c-0.885,0.134-1.736,0.692-2.547,1.675
		c-0.562,0.676-0.987,1.437-1.276,2.28c-0.29,0.846-0.544,1.899-0.762,3.162c-0.114,0.625-0.132,1.2-0.062,1.727
		c-0.253,0.216-0.389,0.322-0.407,0.32c-0.016-0.004-0.175,0.149-0.473,0.461c-0.06,0.081-0.21,0.186-0.45,0.317
		c-0.159,0.095-0.284,0.149-0.377,0.164c-0.254,0.039-0.465-0.087-0.631-0.378c-0.167-0.29-0.286-0.674-0.358-1.152
		c-0.043-0.285-0.072-0.601-0.09-0.945c-0.017-0.344-0.023-0.694-0.022-1.049c0.002-0.355,0.002-0.757,0.001-1.207
		c-0.002-0.449,0.003-0.816,0.016-1.102c0.011-0.286,0.021-0.531,0.024-0.737c0.005-0.206,0-0.35-0.014-0.435
		c-0.086-0.571-0.268-1-0.543-1.29c-0.276-0.289-0.607-0.405-0.993-0.346c-0.386,0.059-0.725,0.189-1.018,0.391
		c-0.292,0.202-0.531,0.529-0.714,0.983c-0.04,0.101-0.1,0.256-0.179,0.464c-0.078,0.209-0.165,0.45-0.258,0.719
		c-0.092,0.271-0.193,0.555-0.303,0.851c-0.108,0.296-0.202,0.632-0.279,1.006c-0.077,0.374-0.152,0.663-0.224,0.867
		c-0.071,0.204-0.125,0.352-0.157,0.444l-0.231,0.034c-0.008-0.054-0.013-0.162-0.013-0.323c-0.001-0.161-0.252-0.405-0.266-0.73
		c-0.015-0.325-0.265-0.616-0.265-0.873c0-0.255,0-0.504,0-0.745s0.238-0.46,0.232-0.661c-0.007-0.2,0.104-0.358,0.086-0.474
		c-0.064-0.423-0.135-0.75-0.336-0.981c-0.201-0.229-0.478-0.313-0.895-0.249c-0.416,0.063-0.712,0.233-0.919,0.507
		c-0.207,0.277-0.318,0.598-0.349,0.965c-0.039,0.472-0.063,1.036-0.083,1.693c-0.019,0.657-0.012,1.392,0.017,2.204
		c0.016,0.424,0.032,0.828,0.05,1.214c-0.261,0.476-0.523,0.92-0.79,1.317c-0.136,0.201-0.281,0.396-0.438,0.588
		s-0.314,0.367-0.476,0.524c-0.161,0.158-0.325,0.29-0.49,0.397c-0.166,0.107-0.329,0.173-0.491,0.197
		c-0.216,0.033-0.372-0.045-0.467-0.234c-0.096-0.189-0.171-0.46-0.224-0.814c-0.063-0.414-0.076-0.931-0.041-1.554
		c0.036-0.623,0.068-1.177,0.096-1.664c0.028-0.487,0.047-0.96,0.056-1.421c0.009-0.46-0.015-0.875-0.071-1.244
		c-0.037-0.241-0.087-0.429-0.15-0.563c-0.064-0.134-0.14-0.233-0.229-0.3c-0.088-0.066-0.185-0.103-0.29-0.111
		c-0.105-0.008-0.215-0.002-0.332,0.015c-0.085,0.013-0.172,0.028-0.261,0.045c-0.088,0.017-0.176,0.034-0.261,0.046
		c-0.101,0.014-0.2,0.023-0.299,0.027c-0.099,0.004-0.197-0.008-0.296-0.032c-0.099-0.025-0.187-0.076-0.261-0.152
		c-0.075-0.076-0.152-0.155-0.232-0.233c-0.08-0.081-0.175-0.148-0.287-0.202c-0.111-0.055-0.256-0.069-0.434-0.042
		c-0.536,0.081-1.043,0.273-1.524,0.578c-0.482,0.305-0.926,0.685-1.333,1.138c-0.407,0.456-0.768,0.969-1.081,1.544
		c-0.313,0.574-0.587,1.24-0.822,1.999c-0.234,0.757-0.387,1.453-0.458,2.084c-0.042,0.371-0.047,0.73-0.034,1.083
		c-0.089,0.062-0.182,0.134-0.271,0.193c-0.322,0.216-0.632,0.424-0.929,0.625c-0.297,0.201-0.57,0.415-0.819,0.643
		c-0.076-0.498-0.13-0.996-0.162-1.493c-0.032-0.497-0.098-0.882-0.198-1.154c-0.101-0.271-0.198-0.509-0.294-0.714
		c-0.095-0.205-0.187-0.398-0.274-0.58s-0.165-0.37-0.23-0.563c-0.065-0.193-0.117-0.411-0.153-0.653
		c0.011-0.088,0.082-0.232,0.213-0.433c0.131-0.199,0.27-0.417,0.415-0.654c0.146-0.237,0.274-0.479,0.386-0.728
		c0.113-0.249,0.154-0.466,0.126-0.652c-0.014-0.094-0.039-0.204-0.073-0.331c-0.036-0.126-0.108-0.24-0.218-0.343
		s-0.272-0.181-0.485-0.231c-0.213-0.05-0.504-0.049-0.875,0.007c-0.224,0.035-0.421,0.098-0.592,0.191
		c-0.171,0.094-0.323,0.205-0.458,0.332c-0.134,0.128-0.253,0.269-0.356,0.418c-0.103,0.152-0.195,0.305-0.273,0.461
		c-0.398,0.698-0.72,1.279-0.966,1.742c-0.245,0.464-0.454,0.856-0.625,1.178c-0.173,0.322-0.322,0.598-0.448,0.833
		c-0.126,0.234-0.299,0.537-0.519,0.909c-0.22,0.373-0.445,0.704-0.678,0.994c-0.231,0.291-0.536,0.655-0.911,1.095
		c-0.053,0.063-0.134,0.152-0.243,0.264c-0.109,0.112-0.216,0.24-0.32,0.383c-0.105,0.144-0.191,0.301-0.259,0.476
		c-0.013,0.033-0.016,0.066-0.025,0.1c-0.067,0.059-0.209,0.201-0.43,0.431c-0.059,0.08-0.208,0.186-0.449,0.316
		c-0.159,0.096-0.285,0.15-0.377,0.164c-0.255,0.039-0.465-0.087-0.631-0.377c-0.167-0.291-0.286-0.674-0.358-1.152
		c-0.042-0.285-0.073-0.6-0.09-0.945c-0.016-0.343-0.024-0.694-0.023-1.048c0.002-0.356,0.002-0.758,0.001-1.207
		c-0.002-0.45,0.004-0.818,0.016-1.103c0.012-0.286,0.02-0.531,0.024-0.737c0.004-0.206,0-0.352-0.013-0.437
		c-0.086-0.57-0.268-1-0.543-1.289c-0.277-0.289-0.608-0.405-0.994-0.347c-0.385,0.059-0.725,0.189-1.017,0.392
		c-0.292,0.201-0.531,0.529-0.714,0.982c-0.04,0.102-0.1,0.256-0.178,0.465c-0.08,0.209-0.165,0.448-0.258,0.719
		c-0.093,0.271-0.193,0.554-0.302,0.85s-0.202,0.632-0.279,1.006c-0.078,0.375-0.152,0.664-0.223,0.868
		c-0.072,0.204-0.125,0.352-0.157,0.443l-0.231,0.036c-0.009-0.054-0.013-0.162-0.014-0.324c0-0.162-0.553-0.405-0.568-0.73
		c-0.012-0.325-0.564-0.616-0.564-0.873c0-0.256,0-0.504,0-0.744c0-0.241,0.54-0.461,0.534-0.662
		c-0.006-0.2,0.253-0.357,0.236-0.473c-0.064-0.424-0.06-0.752-0.261-0.981c-0.2-0.229-0.44-0.313-0.856-0.25
		c-0.417,0.063-0.693,0.232-0.9,0.508c-0.207,0.276-0.309,0.598-0.34,0.965c-0.04,0.471-0.059,1.035-0.078,1.693
		c-0.018,0.658-0.009,1.391,0.019,2.202c0.015,0.425,0.033,0.829,0.051,1.216c-0.261,0.474-0.523,0.919-0.789,1.316
		c-0.136,0.202-0.281,0.397-0.437,0.588c-0.156,0.192-0.315,0.367-0.476,0.524c-0.161,0.158-0.325,0.29-0.49,0.397
		c-0.165,0.106-0.328,0.172-0.49,0.197c-0.216,0.033-0.372-0.045-0.467-0.235c-0.096-0.189-0.17-0.46-0.224-0.813
		c-0.063-0.414-0.076-0.932-0.04-1.554c0.035-0.624,0.068-1.178,0.096-1.664c0.028-0.486,0.046-0.959,0.056-1.42
		c0.009-0.461-0.015-0.876-0.071-1.244c-0.037-0.241-0.087-0.43-0.149-0.564c-0.064-0.133-0.141-0.233-0.229-0.299
		c-0.089-0.066-0.186-0.104-0.29-0.112c-0.105-0.008-0.215-0.004-0.331,0.014c-0.085,0.013-0.173,0.029-0.261,0.045
		c-0.088,0.018-0.176,0.032-0.261,0.046c-0.101,0.016-0.201,0.024-0.299,0.028c-0.1,0.002-0.198-0.009-0.297-0.033
		c-0.099-0.025-0.186-0.075-0.261-0.152c-0.075-0.077-0.152-0.154-0.231-0.234c-0.08-0.08-0.175-0.146-0.287-0.202
		c-0.111-0.055-0.256-0.068-0.434-0.042c-0.536,0.081-1.043,0.274-1.525,0.579c-0.481,0.304-0.925,0.684-1.333,1.138
		c-0.407,0.456-0.767,0.97-1.08,1.543c-0.314,0.575-0.588,1.241-0.822,1.999c-0.198,0.641-0.324,1.225-0.406,1.775
		c-0.137,0.167-0.272,0.324-0.408,0.467c-0.259,0.274-0.518,0.526-0.779,0.755c-0.261,0.23-0.522,0.444-0.784,0.643
		c-0.261,0.199-0.519,0.401-0.772,0.605c0.178-0.392,0.312-0.766,0.404-1.121c0.092-0.355,0.153-0.708,0.184-1.059
		c0.03-0.35,0.033-0.704,0.01-1.062c-0.022-0.358-0.063-0.735-0.124-1.131c-0.071-0.466-0.204-0.902-0.399-1.309
		c-0.196-0.407-0.442-0.756-0.739-1.046c-0.296-0.29-0.637-0.508-1.021-0.652c-0.385-0.145-0.805-0.183-1.259-0.113
		c-0.355,0.052-0.687,0.268-0.997,0.645c-0.31,0.376-0.64,0.862-0.992,1.458l-0.204-0.097c0.44-0.735,0.877-1.513,1.308-2.333
		c0.432-0.82,0.809-1.65,1.131-2.488c0.322-0.839,0.562-1.667,0.718-2.484c0.155-0.818,0.178-1.592,0.067-2.322
		c-0.079-0.524-0.185-1.013-0.317-1.465c-0.131-0.454-0.32-0.836-0.564-1.151c-0.245-0.313-0.56-0.544-0.945-0.69
		c-0.384-0.146-0.87-0.176-1.455-0.086c-0.524,0.08-0.98,0.365-1.367,0.857c-0.387,0.493-0.717,1.118-0.993,1.876
		c-0.275,0.76-0.5,1.612-0.677,2.558s-0.277,1.963-0.305,3.052c-0.026,1.09-0.05,1.997-0.068,2.723
		c0.024,0.943,0.058,1.801,0.103,2.575c-0.038,0.699-0.024,1.79,0.041,3.27c0.041,1.003,0.086,1.851,0.136,2.546
		c0.001,0.021,0.003,0.038,0.004,0.059c-0.05,0.059-0.095,0.118-0.146,0.175c-0.156,0.171-0.317,0.325-0.486,0.461
		c-0.168,0.138-0.336,0.254-0.503,0.351c-0.167,0.098-0.331,0.157-0.493,0.183c-0.154,0.023-0.305-0.089-0.453-0.338
		c-0.149-0.248-0.254-0.582-0.317-1.001c-0.082-0.538-0.132-1.05-0.15-1.536c-0.019-0.486-0.018-1.03,0.002-1.63
		c0.019-0.6,0.019-1.146,0-1.637c-0.019-0.49-0.069-1.003-0.151-1.541c-0.053-0.35-0.219-0.601-0.499-0.754
		c-0.279-0.151-0.6-0.201-0.962-0.146c-0.324,0.049-0.581,0.198-0.772,0.445c-0.192,0.249-0.375,0.544-0.551,0.89
		c-0.184,0.354-0.376,0.762-0.578,1.222c-0.203,0.46-0.392,0.899-0.569,1.316s-0.337,0.832-0.479,1.248
		c-0.143,0.416-0.219,0.637-0.231,0.662l-0.148-0.12c-0.002-0.016-0.004-0.048-0.003-0.096c0.001-0.151,0.007-0.267,0.019-0.349
		c0.065-0.504,0.106-0.887,0.121-1.153c0.025-0.305,0.049-0.563,0.072-0.775c0.019-0.186,0.025-0.457,0.019-0.815
		c-0.003-0.277-0.027-0.568-0.074-0.872c-0.053-0.35-0.209-0.603-0.47-0.758c-0.259-0.156-0.551-0.209-0.875-0.161
		c-0.347,0.052-0.629,0.204-0.848,0.452c-0.219,0.248-0.416,0.548-0.591,0.902c-0.182,0.354-0.37,0.758-0.561,1.212
		c-0.191,0.455-0.368,0.89-0.53,1.304s-0.308,0.83-0.438,1.249c-0.13,0.417-0.201,0.64-0.213,0.664l-0.147-0.12
		c0.016-0.67,0.038-1.279,0.066-1.825c0.004-0.016,0.005-0.224,0-0.62c0-0.207-0.007-0.41-0.021-0.606
		c-0.007-0.197-0.017-0.383-0.031-0.557c-0.014-0.171-0.032-0.325-0.052-0.457c-0.037-0.241-0.073-0.431-0.11-0.569
		c-0.037-0.138-0.101-0.237-0.193-0.298s-0.223-0.09-0.391-0.084c-0.169,0.005-0.4,0.031-0.693,0.075
		c-0.192,0.029-0.349,0.066-0.467,0.113c-0.12,0.046-0.217,0.117-0.294,0.211c-0.076,0.095-0.138,0.221-0.185,0.38
		c-0.047,0.158-0.09,0.368-0.129,0.628c-0.042,0.253-0.079,0.577-0.113,0.972s-0.062,0.83-0.081,1.301
		c-0.019,0.473-0.042,1.026-0.067,1.663c-0.026,0.634-0.034,1.197-0.022,1.688c0.001,0.049,0.003,0.096,0.004,0.145
		c-0.163,0.276-0.326,0.538-0.491,0.785c-0.135,0.2-0.281,0.396-0.437,0.588c-0.157,0.191-0.315,0.367-0.477,0.524
		s-0.324,0.289-0.49,0.396c-0.166,0.106-0.328,0.172-0.49,0.198c-0.216,0.032-0.372-0.046-0.467-0.235
		c-0.096-0.189-0.17-0.46-0.224-0.813c-0.063-0.415-0.076-0.932-0.04-1.556c0.036-0.622,0.068-1.176,0.096-1.662
		c0.027-0.487,0.046-0.96,0.055-1.421c0.009-0.461-0.014-0.875-0.07-1.244c-0.037-0.242-0.086-0.43-0.15-0.563
		c-0.063-0.134-0.14-0.233-0.229-0.299c-0.088-0.066-0.186-0.104-0.29-0.111c-0.104-0.009-0.214-0.004-0.331,0.014
		c-0.085,0.013-0.172,0.028-0.261,0.045c-0.088,0.017-0.175,0.032-0.26,0.045c-0.102,0.016-0.201,0.025-0.3,0.027
		c-0.098,0.003-0.198-0.007-0.296-0.033c-0.099-0.025-0.186-0.075-0.261-0.152c-0.076-0.076-0.153-0.153-0.232-0.233
		c-0.08-0.08-0.175-0.147-0.287-0.202c-0.111-0.054-0.256-0.069-0.435-0.042c-0.535,0.082-1.043,0.275-1.525,0.579
		c-0.48,0.305-0.925,0.684-1.332,1.139c-0.407,0.455-0.768,0.969-1.081,1.543c-0.313,0.574-0.587,1.24-0.821,1.999
		c-0.235,0.758-0.387,1.453-0.458,2.085c-0.068,0.608-0.059,1.189,0.019,1.745c-0.157,0.127-0.313,0.257-0.485,0.375
		c-0.482,0.333-1.031,0.622-1.647,0.868c-0.616,0.246-1.312,0.427-2.087,0.546l-0.104-0.225c0.647-0.403,1.194-0.832,1.641-1.286
		c0.446-0.453,0.82-0.923,1.12-1.411c0.3-0.489,0.521-1.045,0.662-1.669c0.094-0.419,0.087-0.979-0.018-1.68
		c-0.101-0.66-0.274-1.203-0.52-1.631c-0.246-0.427-0.544-0.761-0.896-1c-0.352-0.241-0.741-0.395-1.168-0.461
		c-0.428-0.066-0.876-0.063-1.345,0.008c-0.649,0.098-1.185,0.296-1.608,0.596c-0.423,0.298-0.77,0.668-1.039,1.108
		c-0.27,0.44-0.499,1.005-0.689,1.695c-0.19,0.691-0.311,1.341-0.36,1.95c-0.049,0.611-0.072,1.229-0.069,1.855
		c0.003,0.626,0.005,1.236,0.008,1.831c-0.51,1.163-0.951,2.284-1.324,3.362c-0.159,0.463-0.309,0.939-0.451,1.428
		c-0.143,0.489-0.266,0.968-0.369,1.434c-0.102,0.467-0.173,0.909-0.213,1.326s-0.035,0.786,0.014,1.106
		c0.083,0.551,0.199,1.068,0.347,1.549c0.148,0.481,0.337,0.893,0.566,1.236c0.229,0.342,0.507,0.601,0.833,0.772
		c0.326,0.173,0.708,0.226,1.148,0.16c0.563-0.086,1.074-0.388,1.532-0.909c0.457-0.521,0.826-1.219,1.108-2.091
		c0.282-0.875,0.457-1.904,0.525-3.091c0.067-1.186-0.006-2.483-0.218-3.892l-0.032-0.209c0.653,0.003,1.17,0.013,1.553,0.027
		c0.383,0.014,0.678,0.027,0.884,0.038c0.207,0.011,0.351,0.02,0.434,0.023c0.083,0.004,0.151,0.003,0.206-0.005
		c0.447-0.068,0.889-0.204,1.327-0.41c0.438-0.204,0.849-0.452,1.23-0.741c0.189-0.143,0.368-0.293,0.538-0.453
		c0.077,0.075,0.148,0.157,0.232,0.222c0.312,0.243,0.656,0.413,1.029,0.512c0.374,0.098,0.746,0.12,1.116,0.063
		c0.35-0.052,0.69-0.163,1.022-0.331c0.333-0.168,0.647-0.365,0.941-0.594c0.295-0.229,0.563-0.472,0.801-0.736
		c0.239-0.262,0.435-0.515,0.589-0.756c0.343,0.581,0.709,1.007,1.101,1.28c0.391,0.271,0.842,0.369,1.354,0.291
		c0.424-0.063,0.832-0.233,1.224-0.508c0.393-0.274,0.751-0.592,1.075-0.952c0.146-0.163,0.28-0.326,0.41-0.492
		c0.077,0.265,0.18,0.497,0.313,0.695c0.137,0.205,0.313,0.359,0.525,0.46c0.212,0.102,0.477,0.128,0.792,0.082
		c0.247-0.038,0.464-0.126,0.652-0.266c0.188-0.14,0.335-0.374,0.443-0.705c0.374-1.121,0.675-2.065,0.901-2.833
		c0.227-0.769,0.414-1.395,0.561-1.877c0.148-0.482,0.264-0.849,0.348-1.099c0.084-0.251,0.164-0.442,0.239-0.572l0.174-0.027
		c-0.016,0.732-0.019,1.413-0.01,2.045c0.001,0.269,0.002,0.54,0.005,0.813c0.001,0.273,0.006,0.531,0.011,0.777
		c0.005,0.244,0.014,0.46,0.027,0.648s0.027,0.333,0.042,0.434c0.035,0.231,0.085,0.469,0.15,0.712
		c0.063,0.242,0.152,0.461,0.265,0.654c0.112,0.193,0.251,0.345,0.417,0.453c0.167,0.108,0.373,0.145,0.62,0.107
		c0.323-0.049,0.601-0.147,0.83-0.295c0.23-0.149,0.421-0.399,0.572-0.751l1.448-6.296l0.173-0.025
		c0.023,0.569,0.059,1.131,0.107,1.684c0.048,0.555,0.11,1.077,0.184,1.566c0.077,0.506,0.173,0.97,0.288,1.393
		c0.116,0.423,0.255,0.784,0.418,1.084c0.164,0.3,0.354,0.524,0.569,0.673c0.216,0.149,0.463,0.202,0.74,0.16
		c0.563-0.085,1.057-0.235,1.482-0.448c0.424-0.213,0.807-0.463,1.146-0.748c0.216-0.181,0.417-0.374,0.614-0.574
		c0.318,0.16,0.633,0.321,0.964,0.47c0.261,0.111,0.875,0.223,1.839,0.337c0.105,0.015,0.76-0.068,1.964-0.251l0.29-0.043
		c0.276-0.16,0.532-0.321,0.768-0.482c0.208-0.143,0.416-0.296,0.623-0.461c0.208-0.165,0.368-0.324,0.479-0.475
		c0.521-0.205,1.011-0.422,1.469-0.649c0.458-0.228,0.892-0.482,1.304-0.763c0.3-0.204,0.589-0.435,0.871-0.677
		c0.078,0.247,0.174,0.479,0.295,0.688c0.224,0.385,0.492,0.698,0.805,0.941c0.313,0.242,0.656,0.413,1.029,0.511
		c0.374,0.1,0.746,0.12,1.116,0.064c0.35-0.053,0.691-0.164,1.023-0.332c0.332-0.167,0.646-0.365,0.941-0.593
		c0.295-0.229,0.563-0.473,0.801-0.736c0.238-0.262,0.435-0.514,0.589-0.756c0.342,0.58,0.708,1.006,1.1,1.279
		c0.391,0.273,0.843,0.37,1.354,0.292c0.424-0.064,0.832-0.234,1.224-0.508c0.393-0.275,0.75-0.593,1.074-0.953
		c0.263-0.292,0.494-0.592,0.706-0.899c0.021,0.092,0.035,0.192,0.059,0.281c0.079,0.284,0.187,0.531,0.326,0.744
		c0.139,0.212,0.314,0.37,0.527,0.476c0.213,0.105,0.478,0.134,0.794,0.087c0.254-0.039,0.469-0.13,0.645-0.275
		c0.168-0.137,0.309-0.378,0.422-0.727l2.118-6.471l0.185-0.029c0.001,0.63,0.011,1.218,0.03,1.763
		c0.02,0.546,0.065,1.05,0.135,1.512c0.178,1.18,0.459,2.053,0.84,2.622c0.382,0.569,0.785,0.822,1.209,0.758
		c0.424-0.064,0.82-0.187,1.187-0.369c0.14-0.061,0.491-0.272,1.052-0.633c0.23-0.145,0.794-0.554,1.694-1.227
		c0.048-0.034,0.081-0.061,0.125-0.093c0.091,0.207,0.198,0.396,0.337,0.552c0.228,0.251,0.503,0.442,0.826,0.57
		c0.322,0.128,0.688,0.203,1.093,0.225c0.405,0.022,0.835-0.001,1.29-0.071c0.632-0.095,1.291-0.267,1.975-0.51
		c0.685-0.244,1.356-0.538,2.013-0.881c0.657-0.342,1.275-0.718,1.856-1.125c0.042-0.03,0.076-0.061,0.117-0.09
		c0.176,0.24,0.366,0.459,0.586,0.63c0.313,0.243,0.656,0.414,1.03,0.512c0.374,0.099,0.746,0.12,1.116,0.063
		c0.35-0.052,0.69-0.163,1.022-0.331c0.333-0.167,0.647-0.365,0.942-0.592c0.295-0.229,0.562-0.475,0.8-0.736
		c0.238-0.262,0.435-0.515,0.589-0.757c0.341,0.581,0.708,1.007,1.1,1.28c0.391,0.272,0.843,0.37,1.354,0.292
		c0.424-0.064,0.832-0.233,1.224-0.508c0.392-0.274,0.75-0.592,1.074-0.951c0.264-0.293,0.494-0.595,0.706-0.9
		c0.021,0.092,0.034,0.191,0.059,0.282c0.079,0.283,0.187,0.53,0.326,0.743c0.138,0.211,0.315,0.371,0.527,0.475
		c0.213,0.107,0.478,0.136,0.794,0.087c0.254-0.038,0.468-0.13,0.644-0.275c0.169-0.135,0.31-0.378,0.423-0.726l2.117-6.472
		l0.186-0.028c0,0.631,0.011,1.219,0.03,1.764c0.02,0.545,0.064,1.048,0.135,1.511c0.179,1.18,0.459,2.054,0.841,2.624
		c0.382,0.568,0.785,0.82,1.208,0.757c0.424-0.065,0.82-0.188,1.187-0.37c0.141-0.061,0.49-0.271,1.052-0.632
		c0.206-0.131,0.697-0.485,1.443-1.041c0.289,0.321,0.635,0.586,1.041,0.794c0.56,0.286,1.14,0.383,1.741,0.293
		c0.817-0.125,1.596-0.661,2.335-1.607l-0.022,1.41c-0.421,0.497-0.78,0.956-1.075,1.375c-0.296,0.419-0.667,0.974-1.114,1.665
		c-0.218,0.333-0.425,0.701-0.618,1.105c-0.196,0.405-0.334,0.715-0.415,0.932c-0.081,0.218-0.229,0.603-0.446,1.155
		c-0.37,0.988-0.465,1.881-0.279,2.681c0.104,0.426,0.268,0.788,0.489,1.085c0.223,0.297,0.487,0.516,0.798,0.655
		c0.309,0.137,0.635,0.226,0.979,0.265c0.345,0.038,0.714,0.028,1.107-0.032c0.486-0.073,0.921-0.218,1.307-0.435
		c0.385-0.217,0.704-0.47,0.961-0.76c0.255-0.291,0.474-0.633,0.654-1.027s0.317-0.78,0.41-1.162
		c0.091-0.379,0.161-0.793,0.208-1.238s0.066-0.84,0.058-1.185c-0.009-0.346-0.017-0.698-0.025-1.055
		c-0.005-0.159-0.009-0.384-0.017-0.677c-0.058-1.009-0.075-1.701-0.053-2.075c0.021-0.374,0.125-0.646,0.313-0.816
		c0.297-0.275,0.78-0.707,1.447-1.297c0.035-0.028,0.085-0.07,0.146-0.126c0.34-0.358,0.747-0.853,1.218-1.488
		c0.463-0.641,0.771-1.191,0.922-1.652L137.561,81.839z M26.33,109.856c-0.019,0.246-0.059,0.445-0.122,0.601
		c-0.063,0.155-0.161,0.242-0.292,0.262c-0.146,0.021-0.278-0.013-0.395-0.105c-0.116-0.092-0.216-0.203-0.299-0.332
		c-0.082-0.129-0.148-0.26-0.195-0.394c-0.048-0.135-0.077-0.232-0.085-0.293c-0.016-0.1-0.02-0.267-0.011-0.5
		c0.007-0.233,0.024-0.512,0.05-0.833c0.027-0.324,0.062-0.672,0.107-1.05c0.045-0.377,0.102-0.755,0.171-1.136
		s0.147-0.749,0.235-1.104c0.087-0.357,0.185-0.673,0.294-0.948c0.016,0.159,0.036,0.347,0.062,0.564
		c0.021,0.192,0.046,0.434,0.078,0.723c0.031,0.289,0.066,0.643,0.104,1.061c0.019,0.24,0.05,0.51,0.091,0.81
		s0.079,0.607,0.114,0.924c0.034,0.316,0.063,0.626,0.085,0.928C26.345,109.335,26.348,109.609,26.33,109.856z M27.803,100.547
		c-0.066-0.441-0.119-0.884-0.158-1.333c-0.039-0.449-0.027-0.947,0.036-1.495c0.063-0.548,0.12-1.008,0.169-1.382
		s0.134-0.703,0.252-0.988c0.119-0.286,0.274-0.521,0.467-0.707s0.432-0.3,0.717-0.343c0.253-0.038,0.461,0,0.625,0.118
		c0.163,0.115,0.288,0.267,0.375,0.452c0.087,0.186,0.142,0.39,0.163,0.611c0.022,0.222,0.026,0.418,0.013,0.588
		c-0.023,0.316-0.119,0.78-0.286,1.394c-0.276,0.729-0.463,1.108-0.561,1.139c-0.199,0.351-0.44,0.688-0.722,1.014
		C28.596,99.941,28.232,100.253,27.803,100.547z M39.188,96.644c0.007,0.252-0.013,0.573-0.061,0.961
		c-0.048,0.389-0.131,0.77-0.247,1.145c-0.117,0.375-0.273,0.705-0.467,0.987c-0.194,0.284-0.434,0.447-0.719,0.49
		c-0.178,0.026-0.331,0.004-0.461-0.07c-0.13-0.073-0.24-0.18-0.332-0.315c-0.092-0.137-0.166-0.296-0.221-0.479
		c-0.055-0.183-0.097-0.374-0.127-0.573c-0.051-0.336-0.062-0.702-0.031-1.098c0.031-0.395,0.115-0.861,0.255-1.398
		c0.138-0.538,0.294-0.995,0.466-1.372c0.171-0.378,0.37-0.721,0.595-1.028c0.226-0.308,0.477-0.563,0.753-0.765
		c0.277-0.202,0.573-0.328,0.89-0.375L39.188,96.644z M61.748,88.248c0.014-0.266,0.033-0.609,0.056-1.034
		c0.023-0.424,0.049-0.891,0.077-1.4c0.027-0.51,0.057-1.054,0.089-1.629c0.031-0.576,0.079-1.143,0.143-1.701
		s0.135-1.094,0.213-1.606c0.079-0.513,0.169-0.969,0.272-1.368c0.104-0.399,0.222-0.719,0.353-0.965
		c0.131-0.244,0.273-0.378,0.425-0.401c0.13-0.02,0.24,0.006,0.329,0.08c0.089,0.074,0.163,0.161,0.221,0.262
		c0.059,0.102,0.101,0.203,0.127,0.3c0.027,0.099,0.042,0.164,0.047,0.194c0.044,0.554,0.04,1.105-0.013,1.652
		c-0.055,0.548-0.145,1.094-0.269,1.637c-0.125,0.543-0.275,1.08-0.449,1.606c-0.175,0.528-0.357,1.044-0.546,1.55
		c-0.19,0.505-0.381,0.994-0.571,1.465S61.894,87.814,61.748,88.248z M66.369,93.004c-0.022,0.373-0.07,0.736-0.143,1.088
		c-0.073,0.353-0.174,0.671-0.305,0.958c-0.13,0.286-0.291,0.523-0.484,0.71c-0.192,0.188-0.419,0.301-0.681,0.341
		c-0.223,0.034-0.456,0.089-0.697,0.165c-0.241,0.077-0.477,0.108-0.707,0.095c-0.262-0.015-0.526-0.042-0.793-0.081
		c-0.012-0.275-0.022-0.572-0.031-0.888c-0.013-0.272-0.023-0.583-0.034-0.934c-0.03-0.927-0.047-1.397-0.05-1.413
		c-0.109-0.152-0.045-0.618,0.19-1.398c0.121-0.403,0.278-0.742,0.474-1.016c0.195-0.274,0.419-0.488,0.672-0.643
		c0.252-0.154,0.515-0.252,0.784-0.293c0.301-0.045,0.556-0.042,0.765,0.009c0.209,0.052,0.379,0.135,0.512,0.25
		c0.132,0.115,0.233,0.258,0.301,0.426c0.069,0.168,0.118,0.35,0.147,0.544c0.045,0.294,0.075,0.621,0.09,0.981
		C66.394,92.266,66.391,92.632,66.369,93.004z M76.569,90.978c0.007,0.253-0.013,0.575-0.061,0.962
		c-0.048,0.388-0.13,0.771-0.248,1.145c-0.117,0.375-0.273,0.705-0.467,0.988c-0.193,0.284-0.434,0.447-0.719,0.49
		c-0.178,0.027-0.332,0.004-0.461-0.07c-0.13-0.074-0.241-0.18-0.333-0.316c-0.091-0.135-0.165-0.295-0.22-0.479
		c-0.056-0.183-0.098-0.373-0.128-0.572c-0.051-0.337-0.061-0.702-0.03-1.098c0.031-0.396,0.116-0.862,0.255-1.398
		c0.139-0.538,0.294-0.995,0.466-1.373c0.171-0.378,0.37-0.72,0.595-1.028c0.226-0.307,0.477-0.562,0.753-0.764
		c0.277-0.203,0.574-0.327,0.89-0.376L76.569,90.978z M98.707,90.277c-0.013,0.229-0.064,0.436-0.154,0.62
		c-0.09,0.187-0.226,0.345-0.407,0.476c-0.181,0.131-0.422,0.219-0.722,0.266c-0.248,0.036-0.476,0.011-0.686-0.076
		c-0.211-0.087-0.4-0.19-0.567-0.309c-0.105-0.074-0.189-0.137-0.279-0.204l0.102-0.105l-0.123-0.832l2.213-3.166
		c0.058,0.119,0.125,0.262,0.201,0.43c0.077,0.168,0.123,0.416,0.137,0.744c0.014,0.329,0.051,0.6,0.111,0.815
		c0.06,0.213,0.106,0.424,0.138,0.636C98.708,89.813,98.72,90.047,98.707,90.277z M108.967,86.068
		c0.007,0.252-0.014,0.574-0.062,0.962c-0.047,0.388-0.13,0.77-0.247,1.145c-0.116,0.375-0.273,0.704-0.466,0.987
		s-0.434,0.446-0.72,0.49c-0.177,0.027-0.331,0.003-0.461-0.07c-0.129-0.073-0.24-0.179-0.332-0.314
		c-0.091-0.137-0.165-0.296-0.221-0.479c-0.055-0.183-0.098-0.374-0.128-0.573c-0.051-0.336-0.061-0.702-0.03-1.099
		c0.03-0.395,0.116-0.861,0.255-1.398c0.139-0.537,0.294-0.994,0.466-1.371c0.171-0.378,0.37-0.721,0.595-1.029
		c0.226-0.308,0.477-0.563,0.754-0.765c0.276-0.203,0.573-0.327,0.889-0.375L108.967,86.068z M131.085,82.738
		c0.07,0.676,0.021,1.365-0.148,2.069c-0.219,0.893-0.591,1.378-1.114,1.458c-0.301,0.046-0.568-0.08-0.803-0.375
		c-0.361-0.458-0.542-1.187-0.545-2.189c0.001-0.465,0.271-1.392,0.809-2.783c0.496-1.306,1.191-2.025,2.085-2.161L131.085,82.738z
		 M132.181,93.714c-0.052,0.434-0.103,0.782-0.149,1.045c-0.047,0.264-0.103,0.534-0.166,0.813
		c-0.064,0.276-0.132,0.492-0.204,0.645c-0.07,0.152-0.159,0.298-0.266,0.436c-0.104,0.138-0.225,0.241-0.36,0.31
		c-0.137,0.067-0.295,0.116-0.481,0.143c-0.517,0.079-0.703-0.268-0.56-1.038c0.175-0.926,0.46-1.854,0.855-2.785
		c0.396-0.93,0.836-1.629,1.321-2.098c0.003,0.108,0.011,0.362,0.021,0.763c0.013,0.399,0.021,0.735,0.03,1.007
		C132.23,93.228,132.216,93.48,132.181,93.714z"/>
	<path fill="#1A1A1A" d="M64.548,113.271c0.027,0.235,0.052,0.454,0.075,0.653c0.005,0.049,0.015,0.134,0.029,0.253
		c0.008,0.073,0.02,0.069,0.033,0.004c-0.013-0.092-0.027-0.185-0.04-0.276C64.553,113.246,64.521,113.035,64.548,113.271z"/>
	<path fill="#1A1A1A" d="M82.002,107.387c0.373,0.272,0.898,0.358,1.577,0.255c0.394-0.059,0.721-0.17,0.985-0.333
		c0.263-0.165,0.472-0.357,0.627-0.58c0.156-0.222,0.257-0.464,0.304-0.727c0.047-0.262,0.051-0.525,0.01-0.79
		c-0.043-0.287-0.133-0.528-0.269-0.723c-0.136-0.195-0.303-0.343-0.5-0.444s-0.419-0.165-0.667-0.191
		c-0.249-0.025-0.507-0.018-0.777,0.022c-0.432,0.066-0.781,0.188-1.05,0.368c-0.269,0.181-0.474,0.383-0.617,0.607
		c-0.144,0.225-0.237,0.457-0.28,0.694c-0.042,0.237-0.051,0.444-0.024,0.624C81.403,106.707,81.629,107.112,82.002,107.387z"/>
	<path fill="#1A1A1A" d="M108.94,112.813c-0.135,0.201-0.281,0.396-0.437,0.587c-0.157,0.193-0.316,0.367-0.477,0.524
		c-0.161,0.158-0.325,0.291-0.49,0.397c-0.165,0.107-0.328,0.173-0.49,0.197c-0.216,0.032-0.372-0.045-0.468-0.235
		c-0.096-0.189-0.17-0.46-0.224-0.813c-0.063-0.414-0.076-0.931-0.041-1.554c0.036-0.623,0.068-1.178,0.096-1.664
		c0.028-0.486,0.046-0.959,0.055-1.42c0.009-0.461-0.015-0.875-0.07-1.244c-0.037-0.241-0.087-0.429-0.15-0.563
		c-0.064-0.134-0.14-0.234-0.229-0.3c-0.09-0.067-0.187-0.104-0.291-0.112c-0.104-0.007-0.215-0.003-0.331,0.015
		c-0.085,0.012-0.172,0.029-0.261,0.045c-0.088,0.018-0.175,0.034-0.261,0.046c-0.101,0.016-0.201,0.024-0.299,0.028
		c-0.1,0.002-0.198-0.008-0.297-0.033c-0.099-0.025-0.187-0.076-0.261-0.152c-0.075-0.078-0.153-0.155-0.231-0.235
		c-0.08-0.079-0.175-0.146-0.287-0.201c-0.111-0.055-0.256-0.069-0.435-0.042c-0.535,0.08-1.043,0.273-1.525,0.579
		c-0.48,0.304-0.925,0.685-1.332,1.138c-0.407,0.455-0.767,0.969-1.081,1.543c-0.313,0.574-0.587,1.24-0.822,1.999
		c-0.234,0.758-0.386,1.454-0.457,2.084c-0.048,0.432-0.046,0.846-0.021,1.25c-0.109,0.174-0.216,0.349-0.333,0.521
		c-0.165,0.241-0.331,0.464-0.497,0.666c-0.166,0.202-0.333,0.369-0.498,0.502c-0.165,0.133-0.325,0.211-0.479,0.235
		c-0.286,0.043-0.505,0.014-0.658-0.087s-0.251-0.292-0.295-0.575c-0.05-0.33-0.021-0.671,0.082-1.024
		c0.105-0.353,0.247-0.713,0.428-1.082c0.181-0.369,0.38-0.738,0.601-1.108c0.22-0.371,0.421-0.738,0.602-1.103
		c0.182-0.364,0.345-0.784,0.49-1.259c0.145-0.475,0.192-0.874,0.144-1.196c-0.05-0.329-0.137-0.622-0.262-0.875
		c-0.125-0.254-0.276-0.464-0.451-0.63c-0.175-0.166-0.369-0.286-0.581-0.358c-0.211-0.072-0.426-0.091-0.642-0.059
		c-0.424,0.064-0.8,0.183-1.129,0.358c-0.328,0.174-0.599,0.365-0.812,0.573c-0.138,0.134-0.336,0.438-0.596,0.91
		c-0.26,0.473-0.52,0.93-0.78,1.371c-0.26,0.441-0.523,0.902-0.79,1.384c-0.266,0.481-0.51,0.924-0.732,1.327l-0.305-0.134
		l1.062-2.28c0.051-0.136,0.152-0.418,0.303-0.85c0.152-0.433,0.322-0.959,0.511-1.583c0.189-0.624,0.379-1.319,0.571-2.087
		c0.192-0.768,0.356-1.552,0.495-2.355c0.139-0.803,0.233-1.597,0.284-2.382c0.05-0.786,0.025-1.509-0.074-2.168
		c-0.056-0.369-0.138-0.705-0.248-1.01s-0.257-0.56-0.441-0.764c-0.184-0.203-0.414-0.349-0.687-0.438
		c-0.274-0.088-0.607-0.103-1-0.043c-0.502,0.076-0.949,0.251-1.342,0.522c-0.393,0.273-0.74,0.614-1.041,1.024
		c-0.3,0.412-0.558,0.878-0.771,1.397s-0.394,1.06-0.542,1.622c-0.148,0.561-0.257,1.136-0.329,1.724
		c-0.072,0.587-0.14,1.147-0.205,1.68c-0.065,0.534-0.104,1.034-0.119,1.499s-0.027,0.859-0.037,1.179
		c-0.009,0.932,0.008,1.886,0.05,2.867c0.042,0.979,0.099,1.914,0.171,2.805c0.071,0.891,0.148,1.706,0.229,2.446
		c0.009,0.081,0.017,0.152,0.025,0.228c-0.285,0.34-0.578,0.672-0.881,0.996c-0.305,0.326-0.613,0.611-0.923,0.855
		c-0.31,0.244-0.604,0.387-0.881,0.429c-0.239,0.036-0.413-0.042-0.521-0.235c-0.107-0.191-0.188-0.461-0.24-0.808
		c-0.054-0.354-0.058-0.757-0.013-1.207c0.044-0.452,0.07-0.901,0.077-1.352c0.006-0.45,0.062-1.001,0.166-1.654
		c0.104-0.653,0.177-1.184,0.218-1.596c0.042-0.411,0.079-0.778,0.11-1.1c0.033-0.322,0.036-0.567,0.01-0.736
		c-0.031-0.2-0.112-0.352-0.243-0.455c-0.132-0.101-0.357-0.129-0.675-0.081c-0.174,0.026-0.365,0.077-0.575,0.153
		c-0.209,0.076-0.407,0.173-0.594,0.293s-0.35,0.262-0.487,0.427c-0.151,0.182-0.23,0.374-0.239,0.574
		c-0.027,0.289-0.116,0.915-0.27,1.88c-0.144,1.176-0.244,1.939-0.298,2.284c-0.028,0.127-0.051,0.576-0.068,1.338
		c-0.096,0.079-0.191,0.159-0.286,0.232c-0.268,0.213-0.557,0.414-0.868,0.598c-0.311,0.186-0.594,0.297-0.848,0.336
		c-0.301,0.045-0.572,0-0.813-0.137s-0.451-0.294-0.627-0.474c-0.206-0.213-0.386-0.46-0.539-0.746
		c0.07-0.215,0.152-0.448,0.249-0.699c0.077-0.217,0.176-0.547,0.293-0.99c0.118-0.445,0.239-0.833,0.361-1.167
		c0.005-0.016,0.035-0.105,0.089-0.268c0.055-0.162,0.108-0.355,0.161-0.58c0.052-0.225,0.097-0.466,0.133-0.724
		c0.036-0.258,0.037-0.495,0.004-0.71c-0.043-0.286-0.213-0.499-0.51-0.639c-0.297-0.14-0.666-0.178-1.105-0.111
		c-0.424,0.065-0.777,0.203-1.061,0.416c-0.284,0.213-0.455,0.435-0.514,0.663l-1.874,7.075l-0.172,0.036l0.058-6.88
		c-0.034-0.224-0.151-0.39-0.354-0.497c-0.202-0.107-0.472-0.135-0.811-0.084c-0.402,0.061-0.738,0.176-1.008,0.348
		c-0.27,0.17-0.502,0.401-0.695,0.691c-0.193,0.289-0.358,0.641-0.498,1.057c-0.138,0.415-0.275,0.897-0.409,1.445
		c-0.134,0.549-0.285,1.249-0.453,2.099c-0.168,0.849-0.362,1.693-0.584,2.531l-0.149,0.032l-0.084-6.866
		c-0.033-0.221-0.159-0.384-0.375-0.488c-0.216-0.104-0.508-0.129-0.875-0.073l-0.303,0.023c-0.309,0.047-0.563,0.155-0.764,0.326
		c-0.2,0.171-0.366,0.374-0.497,0.606c-0.131,0.235-0.229,0.488-0.295,0.757c-0.066,0.272-0.112,0.529-0.138,0.775
		c-0.011,0.094-0.02,0.153-0.028,0.193c0.08,0.566,0.162,1.133,0.247,1.697c0.1,0.657,0.214,1.416,0.345,2.274
		c0.263,1.734,0.598,3.024,1.005,3.87c0.407,0.845,0.902,1.223,1.485,1.134c0.353-0.054,0.692-0.248,1.018-0.585
		c0.326-0.338,0.623-0.785,0.892-1.343c0.27-0.556,0.502-1.207,0.7-1.951c0.197-0.743,0.344-1.552,0.438-2.426l0.346,0.007
		c0.063,0.417,0.131,0.844,0.206,1.282c0.075,0.438,0.152,0.863,0.236,1.277c0.082,0.413,0.168,0.805,0.26,1.172
		c0.091,0.37,0.185,0.689,0.282,0.963c0.096,0.273,0.198,0.487,0.304,0.641c0.106,0.152,0.213,0.222,0.321,0.204
		c0.309-0.047,0.601-0.197,0.878-0.452c0.277-0.254,0.538-0.59,0.782-1.005c0.244-0.416,0.47-0.9,0.678-1.457
		c0.207-0.556,0.396-1.162,0.564-1.818c0.081,0.476,0.225,0.87,0.434,1.183c0.209,0.312,0.462,0.553,0.761,0.724
		c0.297,0.17,0.629,0.276,0.995,0.321c0.365,0.044,0.744,0.037,1.137-0.022c0.501-0.076,1.009-0.257,1.521-0.542
		c0.165-0.092,0.322-0.202,0.481-0.307c0.051,0.25,0.116,0.487,0.205,0.697c0.117,0.278,0.275,0.504,0.476,0.679
		c0.2,0.175,0.445,0.296,0.735,0.367c0.291,0.071,0.636,0.076,1.037,0.015c0.447-0.067,0.907-0.22,1.38-0.457
		c0.473-0.238,0.93-0.513,1.371-0.83c0.441-0.314,0.846-0.648,1.214-0.999c0.046-0.044,0.082-0.083,0.125-0.126
		c0.015,0.068,0.025,0.146,0.042,0.211c0.072,0.297,0.176,0.553,0.311,0.765c0.135,0.214,0.31,0.373,0.521,0.478
		c0.213,0.104,0.486,0.132,0.818,0.081c0.247-0.036,0.453-0.126,0.621-0.269c0.167-0.144,0.323-0.37,0.465-0.678l2.499-6.454
		c0.175-0.461,0.356-0.797,0.544-1.01c0.183-0.204,0.339-0.316,0.47-0.336c0.108-0.016,0.199,0.022,0.271,0.116
		c0.073,0.093,0.122,0.222,0.147,0.387c0.013,0.087,0.002,0.172-0.032,0.258c-0.034,0.085-0.087,0.179-0.158,0.282
		c-0.071,0.103-0.156,0.221-0.254,0.353c-0.099,0.131-0.207,0.278-0.324,0.44c-0.277,0.507-0.495,0.976-0.65,1.405
		c-0.156,0.428-0.269,0.816-0.338,1.165c-0.069,0.348-0.105,0.656-0.108,0.925c-0.003,0.27,0.01,0.494,0.037,0.675
		c0.042,0.28,0.12,0.546,0.233,0.797c0.113,0.251,0.285,0.465,0.517,0.643c0.232,0.178,0.533,0.304,0.903,0.376
		c0.37,0.072,0.832,0.067,1.387-0.017c0.424-0.064,0.856-0.189,1.298-0.373c0.44-0.185,0.86-0.412,1.256-0.683
		c0.293-0.199,0.561-0.423,0.815-0.657c0.095,0.099,0.188,0.2,0.293,0.281c0.313,0.242,0.656,0.414,1.03,0.512
		c0.374,0.099,0.746,0.119,1.115,0.064c0.35-0.053,0.691-0.164,1.023-0.332c0.332-0.166,0.646-0.365,0.941-0.593
		c0.295-0.228,0.562-0.473,0.801-0.735c0.238-0.264,0.434-0.515,0.588-0.757c0.342,0.58,0.709,1.006,1.1,1.279
		c0.391,0.272,0.843,0.369,1.355,0.292c0.424-0.065,0.832-0.234,1.224-0.508c0.393-0.275,0.75-0.592,1.074-0.952
		c0.324-0.361,0.608-0.731,0.854-1.11c0.246-0.38,0.438-0.708,0.578-0.985l-0.94-2.461
		C109.566,111.819,109.255,112.343,108.94,112.813z M90.139,106.465c-0.096,0.547-0.199,1.132-0.308,1.751
		c-0.109,0.622-0.219,1.25-0.33,1.886c-0.111,0.637-0.482,1.227-0.574,1.768c-0.072-0.95-0.427-1.92-0.427-2.908
		c0-0.403,0-0.834,0-1.295c0-0.461,0-0.93,0-1.406c0-0.477,0.292-0.961,0.337-1.454c0.044-0.494,0.222-0.972,0.264-1.438
		c0.127-0.53,0.308-1.012,0.406-1.443c0.1-0.432,0.241-0.802,0.358-1.111c0.118-0.309,0.271-0.554,0.428-0.734
		c0.156-0.182,0.369-0.291,0.619-0.329c0.165-0.024,0.269,0.086,0.307,0.333c0.027,0.178,0.03,0.398,0.007,0.662
		c-0.024,0.264-0.061,0.549-0.115,0.856c-0.053,0.309-0.113,0.629-0.182,0.963c-0.07,0.334-0.14,0.656-0.212,0.967
		c-0.073,0.311-0.14,0.601-0.203,0.871c-0.063,0.269-0.108,0.493-0.137,0.67C90.314,105.456,90.235,105.918,90.139,106.465z
		 M103.394,112.151c0.007,0.253-0.014,0.574-0.062,0.962c-0.048,0.388-0.13,0.771-0.248,1.145c-0.116,0.375-0.272,0.705-0.466,0.988
		s-0.434,0.446-0.719,0.49c-0.178,0.027-0.331,0.003-0.461-0.071c-0.129-0.074-0.24-0.179-0.332-0.315
		c-0.092-0.137-0.166-0.296-0.221-0.479c-0.056-0.184-0.098-0.373-0.128-0.573c-0.051-0.335-0.062-0.702-0.03-1.098
		c0.03-0.396,0.116-0.862,0.255-1.398c0.139-0.537,0.294-0.995,0.466-1.372c0.171-0.378,0.37-0.721,0.595-1.028
		c0.225-0.308,0.477-0.563,0.753-0.765c0.277-0.202,0.573-0.327,0.89-0.375L103.394,112.151z"/>
</g>
<g>
	<path fill="#BABABA" d="M141.865,124.149c0,0-7.528-8.272-12.979-5.401c0,0-5.983,2.242-0.07,12.557l0.002-0.002
		c0,0,2.775,0.24,3.086-2.345"/>
</g>
<path fill="#FFFFFF" d="M159.655,170.892c0.737,0,1.467-0.022,2.191-0.059c0.79,3.429,1.444,8.747-0.931,11.96
	c0,0-13.691,10.243-9.562,20.865l41.835,0.918c9.763-9.479,14.311-28.567,1.311-66.539v0.002c-3-14.068-17.053-24.906-35.008-24.906
	c-19.613,0-35.43,12.93-35.43,28.879S140.043,170.892,159.655,170.892z"/>
<path fill="#D0D2D3" d="M152.845,203.69l13.479,0.308c0.229-11.148,9.625-22.498,9.625-22.498H175.5v-15.955
	c-7,4.344-12.43,4.863-12.43,4.863l3.089,12.267C154.233,185.434,152.903,197.973,152.845,203.69z"/>
<ellipse fill="#D0D2D3" cx="154.322" cy="142.65" rx="30.18" ry="22.895"/>
<ellipse fill="#FFFFFF" cx="138.908" cy="137.507" rx="11.798" ry="11.628"/>
<ellipse fill="#FFFFFF" cx="166.342" cy="137.769" rx="14.563" ry="14.468"/>
<path fill="#0071BC" d="M140.643,130.025c4.648,0,8.417,3.769,8.417,8.416c0,4.651-3.769,8.418-8.417,8.418
	s-8.418-3.767-8.418-8.418C132.225,133.794,135.994,130.025,140.643,130.025z"/>
<circle fill="#0F4481" cx="143.304" cy="137.733" r="4.323"/>
<circle fill="#FFFFFF" cx="144.29" cy="137.733" r="2.298"/>
<circle fill="#FFFFFF" cx="139.057" cy="137.138" r="1.118"/>
<g>
	<path fill="#0071BC" d="M168.306,127.851c5.852,0,10.596,4.742,10.596,10.591c0,5.852-4.744,10.596-10.596,10.596
		c-5.849,0-10.591-4.744-10.591-10.596C157.715,132.593,162.457,127.851,168.306,127.851z"/>
	<circle fill="#0F4481" cx="171.657" cy="137.55" r="5.439"/>
	<circle fill="#FFFFFF" cx="172.898" cy="137.548" r="2.892"/>
	<circle fill="#FFFFFF" cx="166.313" cy="136.8" r="1.408"/>
</g>
<path fill="#FFFFFF" d="M196.031,159.501c0,0-13.243,16.003,1.031,16.89l1.033,3.135
	C198.096,179.525,179.046,176.349,196.031,159.501z"/>
<path fill="#D0D2D3" d="M142.639,161.175c0,0,1.6,4.541,3.46,4.583c1.859,0.044,6.573,0.044,8.044-2.896
	C155.612,159.921,142.639,161.175,142.639,161.175z"/>
<path fill="#FFFFFF" d="M189.341,164.604c0,0-9.916,14.62,9.394,17.042l0.802,2.914C199.536,184.56,176.138,182.756,189.341,164.604
	z M197.495,183.311c0,0,0.896,12.303-7.244,20.73l3.287-0.525c0,0,6.896-7.55,5.998-18.956L197.495,183.311L197.495,183.311z
	 M175.004,194.346v-0.005l1.691,0.347l-1.736,8.481l-1.687-0.347l1.276-6.216l-1.363,0.905l-0.896-1.354 M183.803,196.158
	l-0.321,1.587l-3.507-0.712l-0.244,1.189l0.682,0.137c1.131,0.233,1.929,0.663,2.416,1.285c0.467,0.712,0.603,1.529,0.409,2.475
	c-0.146,0.722-0.557,1.276-1.227,1.695c-0.675,0.419-1.424,0.534-2.252,0.368c-0.789-0.155-1.422-0.408-1.898-0.739
	c-0.478-0.341-0.867-0.729-1.169-1.188l1.364-0.896c0.281,0.526,0.836,0.896,1.654,1.11c1.014,0.205,1.646-0.058,1.901-0.777
	c0.077-0.488-0.031-0.867-0.304-1.16c-0.137-0.224-0.721-0.447-1.753-0.69l-1.802-0.371l0.896-4.354l5.201,1.071L183.803,196.158z"
	/>
<path fill="#AA021B" d="M153.019,154.298c0,0,1.404,12.152-6.207,9.298c0,0-4.346,0-0.54-9.472l1.73-0.086
	C148.002,154.038,148.347,156.461,153.019,154.298z"/>
<path fill="#6C6F71" d="M148.893,151.501c-0.102,0.234-0.179,0.514-0.229,0.78c-0.051,0.272-0.083,0.547-0.093,0.822
	c-0.011,0.276,0.006,0.553,0.044,0.826c0.028,0.255,0.09,0.604,0.168,0.691c0.209,0.302,0.77,0.396,1.282,0.322
	c0.526-0.067,1.05-0.263,1.534-0.527c0.976-0.531,1.8-1.343,2.444-2.27c0.322-0.465,0.604-0.96,0.848-1.475
	c0.242-0.517,0.443-1.054,0.614-1.601l0,0l0.042-0.087c0.062-0.125,0.211-0.176,0.336-0.114c0.013,0.006,0.025,0.013,0.036,0.021
	l1.597,1.146l-1.862-0.627l0.414-0.179l0,0c-0.323,1.154-0.784,2.289-1.481,3.289c-0.688,1.001-1.572,1.892-2.658,2.493
	c-0.542,0.3-1.135,0.53-1.775,0.617c-0.318,0.042-0.654,0.049-0.996-0.03c-0.336-0.078-0.701-0.259-0.936-0.6
	c-0.053-0.087-0.125-0.228-0.138-0.286l-0.031-0.105c-0.025-0.097-0.02-0.093-0.03-0.144c-0.028-0.153-0.053-0.307-0.066-0.462
	c-0.03-0.312-0.035-0.624-0.01-0.935c0.022-0.309,0.069-0.618,0.15-0.918c0.083-0.304,0.181-0.589,0.334-0.885L148.893,151.501z"/>
<g>
	<path fill="#1D8FCD" d="M145.194,149.734c0,0,2.625-5.339,3.593-2.521c0,0,2.169-3.177,2.169,1.918c0,0-2.056,1.4-2.169,3.097
		c0,0-2.128-0.857-3.594-2.504L145.194,149.734z"/>
	<path fill="#FFFFFF" d="M148.787,150.933c0,0,0.133-0.721,1.147-1.441C149.935,149.494,149.559,148.113,148.787,150.933z"/>
</g>
<path fill="#6C6F71" d="M142.919,149l1.768-0.447c0.104-0.026,0.211,0.038,0.238,0.142c0.009,0.037,0.007,0.073-0.004,0.107
	l-0.018,0.054l0,0c-0.135,0.301-0.247,0.633-0.335,0.96c-0.087,0.329-0.151,0.663-0.18,0.995c-0.057,0.663,0.034,1.338,0.369,1.861
	c0.084,0.13,0.182,0.247,0.286,0.359c0.114,0.104,0.23,0.206,0.363,0.291c0.13,0.085,0.268,0.163,0.414,0.226
	c0.145,0.065,0.296,0.12,0.454,0.165c0.15,0.054,0.318,0.074,0.477,0.113l0.117,0.068c0.334,0.031-0.369,0.038,0.631,0.036v0.777
	c-1-0.012-0.354-0.036-0.721-0.085c-0.184-0.029-0.177-0.063-0.36-0.1c-0.181-0.052-0.269-0.085-0.447-0.155
	c-0.181-0.058-0.312-0.13-0.483-0.219c-0.173-0.082-0.316-0.185-0.475-0.3c-0.161-0.111-0.293-0.248-0.432-0.389
	c-0.13-0.15-0.245-0.309-0.344-0.48c-0.199-0.343-0.313-0.723-0.364-1.101c-0.052-0.379-0.041-0.757,0.006-1.123
	c0.046-0.368,0.133-0.725,0.241-1.071c0.108-0.35,0.236-0.682,0.404-1.018l0,0l0.217,0.304L142.919,149z"/>
<path fill="#6C6F71" d="M143.299,162.84c0,0,0.075,0.144,0.228,0.373c0.08,0.111,0.172,0.251,0.292,0.396
	c0.118,0.147,0.254,0.308,0.418,0.469c0.164,0.157,0.341,0.33,0.55,0.479c0.106,0.072,0.213,0.151,0.319,0.23
	c0.118,0.064,0.238,0.131,0.359,0.198c0.242,0.134,0.515,0.23,0.787,0.331c0.288,0.057,0.563,0.178,0.866,0.192l0.447,0.056
	c0.148,0.013,0.301,0.005,0.449,0.01c0.149,0.002,0.298,0.003,0.446,0.005c0.146-0.004,0.29-0.031,0.435-0.043
	c0.286-0.035,0.569-0.031,0.829-0.1c0.264-0.05,0.513-0.097,0.743-0.14c0.234-0.033,0.439-0.103,0.625-0.149
	c0.188-0.047,0.351-0.089,0.485-0.123c0.271-0.063,0.429-0.098,0.429-0.098s-0.142,0.074-0.388,0.203
	c-0.127,0.062-0.278,0.137-0.454,0.224c-0.179,0.079-0.372,0.191-0.604,0.26c-0.229,0.077-0.479,0.161-0.742,0.25
	c-0.261,0.098-0.558,0.125-0.856,0.193c-0.15,0.026-0.302,0.06-0.46,0.076c-0.158,0.009-0.319,0.017-0.481,0.024
	c-0.162,0.006-0.326,0.025-0.491,0.013l-0.497-0.052c-0.333-0.016-0.657-0.127-0.976-0.211c-0.159-0.046-0.306-0.127-0.455-0.188
	c-0.15-0.064-0.299-0.127-0.427-0.223c-0.132-0.088-0.262-0.173-0.389-0.258c-0.113-0.1-0.226-0.199-0.334-0.294
	c-0.11-0.092-0.197-0.205-0.285-0.307c-0.087-0.103-0.177-0.195-0.239-0.305c-0.143-0.205-0.26-0.397-0.339-0.582
	c-0.09-0.179-0.146-0.344-0.191-0.478C143.312,163.001,143.299,162.84,143.299,162.84z"/>
<path fill="#6C6F71" d="M135.719,120.261"/>
<g>
	<g>
		<path fill="#919496" d="M187.139,125.167l4.234,9.264C191.373,134.431,204.393,118.231,187.139,125.167z"/>
	</g>
	<g>
		<path fill="#D0D2D3" d="M183.288,123.271c0,0-0.399,3.424,2.787,3.903c0,0,15.61-5.1,4.22,8.603c0,0-1.274,2.073,1.353,3.903
			c0,0,10.518-9.002,7.171-15.853c0,0-2.547-7.487-15.53-0.558V123.271z"/>
	</g>
</g>
<g>
	<g>
		<path fill="#FFE8AE" d="M167.737,176.584c0,0-2.06-4.757,2.419-6.185c4.478-1.427,25.893-9.751,29.644-15.343
			c0,0,0.984,0.733,0.661-0.1c0,0-0.215-1.369-0.056-1.05c0.159,0.316,1.734,6.781,1.734,6.781s8.79,27.555,3.224,46.108
			c0,0-2.902,3.449-13.549-1.902v-4.162l-3.389,7.017c0,0-10.042,6.66-29.403,0.476c0,0-9.802,0.953-11.978-1.428
			c0,0-2.059-8.801,11.252-22.122c0,0,3.388-3.928,0.968-10.468l3.751-0.951c0,0,1.572,0,1.814,1.308
			c0.243,1.313,0.727,2.857,0.727,2.857s0.158,0.329,0.514,0.461C166.662,178.1,167.768,178.071,167.737,176.584z"/>
	</g>
	<g>
		<path fill="#EFD395" d="M205.364,206.797c0.188-0.62,0.356-1.251,0.51-1.886c-3.934,1.552-10.311-1.088-10.311-1.088
			s-1.207-10.703-1.934-11.062c-0.725-0.357-2.419,4.044-2.419,4.044l-4.962,8.802c-7.863,5.473-29.161-0.356-29.161-0.356
			c-3.234,1.284-7.247,0.222-10.11-0.932c-0.135,1.604,0.068,2.478,0.068,2.478c2.177,2.378,11.979,1.428,11.979,1.428
			c19.359,6.182,29.405-0.478,29.405-0.478l3.385-7.015v4.16C202.463,210.244,205.364,206.797,205.364,206.797z"/>
	</g>
	<g>
		<path fill="#D8B76C" d="M170.09,205.006c0,0,0.972-0.198,0.972-0.951c0,0,1.129-0.04,0.563-1.943c0,0,0.767-0.556,0.605-1.228
			c0,0,1.331-0.555,0.2-2.023c0,0,1.249-0.754,0.524-1.823c0,0,1.13-1.271,0.645-2.457c0,0,0.848-0.16,0.808-1.865
			c0,0,1.128-0.634,0.889-2.101c0,0,1.37-1.23,0.239-2.656c0,0,1.212-0.952,0.687-2.021c0,0,1.091-1.348,0.484-2.301
			c0,0,1.45-0.794,0.93-1.864c0,0,1.049-1.071,0.846-1.626c0,0,1.128-0.396,0.322-1.585c0,0,1.413-1.308,0.523-2.063
			c0,0-0.889-0.474-2.138,0.317c-1.25,0.792-4.636,8.127-4.636,8.127S170.053,204.929,170.09,205.006z"/>
	</g>
	<g>
		<path fill="#D8B76C" d="M173.803,177.572c0,0-7.905,17.127-6.937,23.469c0,0-6.614-1.902-11.938-1.426
			c0,0,2.259-9.198,7.744-20.937l-1.372,0.121c0,0-8.791,14.788-9.76,22.401c0,0,16.293,1.425,18.552,3.806
			c0,0,1.937-18.872,8.229-29.022L173.803,177.572z"/>
	</g>
	<g>
		<path fill="#F4DAA2" d="M202.273,161.126c0.008-0.017,0.018-0.027,0.027-0.045l-1.558-5.887c0.003-0.021,0.011-0.035,0.011-0.058
			c-0.176-0.667-0.309-1.148-0.349-1.232c-0.159-0.315-0.724-0.233-0.724-0.233c1.31,0.389,0.118,1.384,0.118,1.384
			c-3.751,5.592-25.166,13.918-29.644,15.345c-0.071,0.022-0.127,0.049-0.197,0.072v-0.001l-4.399,1.324l2.162,4.969
			c-0.057,1.131-0.845,1.295-1.419,1.179c-0.082-0.018-0.161-0.038-0.231-0.064c-0.354-0.134-0.514-0.462-0.514-0.462
			s-0.483-1.544-0.726-2.855c-0.019-0.101-0.051-0.193-0.087-0.279l-0.455-1.98c0,0-2.736,1.282-4.154,1.686l-0.306,0.078
			c-0.084,0.016-0.163,0.028-0.229,0.034l0.035,0.013l-0.37,0.094c0.235,0.639,0.406,1.245,0.54,1.83l-0.003,0.002
			c0.079,0.34,0.139,0.669,0.188,0.993c0.002,0.017,0.007,0.036,0.009,0.055c0.038,0.265,0.062,0.522,0.084,0.777
			c0.007,0.077,0.018,0.155,0.023,0.231c0.026,0.001,0.064,0.001,0.094,0.003c0.247,0.117,0.968,0.458,1.93,0.825
			c0.831,0.319,2.338,0.08,2.338,0.08c-7.018,13.321-8.105,24.482-8.105,24.482l4.233,0.575c0.304-8.86,9.035-25.852,9.035-25.852
			c13.69-2.147,22.556-7.597,27.546-11.777c2.203-1.583,3.984-3.325,5.039-5.215c0.023-0.035,0.046-0.068,0.061-0.088
			C202.277,161.128,202.277,161.126,202.273,161.126z"/>
	</g>
	<g>
		<polygon fill="#D8B76C" points="166.241,172.137 170.937,177.729 167.513,174.992 		"/>
	</g>
	<g>
		<polygon fill="#D8B76C" points="164.002,172.971 163.262,179.007 164.095,179.156 165.211,177.638 		"/>
	</g>
	<g>
		<path fill="#D8B76C" d="M161.3,178.8c0,0-0.929-0.04-0.929,0.714c0,0-1.007,0.912-0.765,1.627c0,0-1.333,0.952-1.211,2.142
			c0,0-0.606,0.276-0.606,1.267c0,0-1.169,0.475-1.048,1.625c0,0-1.089,0.476-0.887,2.022c0,0-1.33,0.911-1.209,2.38
			c0,0-0.888,0.517-0.484,1.385c0,0-1.13,0.438-0.927,1.982c0,0-1.21,0.637-0.927,2.183c0,0-1.009,0.792-0.727,2.022
			c0,0-1.009,0.674-0.322,1.745c0,0-0.567,0.871,0.282,1.308l9.881-22.284"/>
	</g>
</g>
<g>
	<polygon fill="#FFB000" points="58.556,170.197 64.387,173.547 70.449,170.647 69.067,177.226 73.701,182.094 67.02,182.808 
		63.821,188.717 61.073,182.586 54.461,181.365 59.443,176.86 	"/>
</g>
<g>
	<polygon fill="#FFB000" points="39.13,143.371 44.961,146.721 51.023,143.82 49.641,150.398 54.274,155.268 47.594,155.98 
		44.395,161.89 41.647,155.759 35.035,154.538 40.018,150.033 	"/>
</g>
<g>
	<polygon fill="#FFB000" points="29.88,170.814 35.71,174.163 41.772,171.264 40.391,177.842 45.024,182.711 38.343,183.425 
		35.145,189.333 32.396,183.202 25.785,181.981 30.767,177.477 	"/>
</g>
<path fill="#FFE8AE" d="M133.564,168.041c0,0,0.016,0.048,0.046,0.142c0.042,0.121,0.105,0.3,0.187,0.535
	c0.176,0.487,0.461,1.229,0.861,2.17c0.804,1.877,2.078,4.571,3.965,7.505c0.941,1.468,2.042,2.982,3.303,4.458
	c0.637,0.728,1.31,1.45,2.023,2.144c0.72,0.684,1.476,1.345,2.272,1.961c0.801,0.604,1.639,1.166,2.51,1.672
	c0.876,0.494,1.787,0.918,2.725,1.28c1.881,0.707,3.887,1.092,5.962,1.131c2.074,0.021,4.214-0.267,6.319-0.881
	c2.106-0.598,4.173-1.46,6.13-2.471c1.956-1.017,3.813-2.155,5.523-3.354c1.707-1.205,3.295-2.416,4.714-3.617
	c0.356-0.298,0.705-0.59,1.047-0.875c0.333-0.297,0.66-0.587,0.979-0.87c0.317-0.282,0.629-0.559,0.931-0.826
	c0.294-0.278,0.581-0.548,0.858-0.808c1.121-1.033,2.06-1.987,2.843-2.761c0.779-0.778,1.369-1.418,1.782-1.842
	c0.41-0.428,0.629-0.655,0.629-0.655l5.711,5.094c0,0-0.221,0.252-0.635,0.726c-0.417,0.471-1.009,1.176-1.801,2.047
	c-0.799,0.866-1.753,1.931-2.911,3.105c-0.287,0.296-0.583,0.602-0.889,0.916c-0.314,0.308-0.638,0.623-0.971,0.948
	c-0.332,0.325-0.674,0.657-1.022,0.998c-0.359,0.331-0.729,0.671-1.105,1.018c-1.5,1.396-3.212,2.837-5.095,4.302
	c-1.889,1.461-3.994,2.902-6.31,4.248c-2.318,1.339-4.871,2.565-7.657,3.503c-2.777,0.951-5.821,1.549-8.952,1.664
	c-3.134,0.101-6.342-0.347-9.311-1.304c-1.481-0.483-2.909-1.071-4.255-1.749c-1.341-0.688-2.605-1.451-3.792-2.264
	c-1.179-0.82-2.273-1.689-3.3-2.579c-1.017-0.894-1.956-1.812-2.836-2.729c-1.74-1.847-3.219-3.698-4.473-5.461
	c-1.261-1.76-2.293-3.435-3.167-4.94c-0.865-1.512-1.563-2.857-2.108-3.989c-0.546-1.131-0.946-2.043-1.218-2.691
	c-0.136-0.335-0.24-0.593-0.311-0.767c-0.077-0.203-0.117-0.308-0.117-0.308L133.564,168.041z"/>
<path fill="#EFD395" d="M133.448,176.7c1.229-0.795,2.188-1.521,2.943-2.159c-0.727-1.394-1.301-2.644-1.733-3.653
	c-0.4-0.94-0.686-1.683-0.861-2.17c-0.081-0.235-0.145-0.414-0.187-0.535c-0.03-0.094-0.046-0.142-0.046-0.142l-10.915,3.825
	c0,0,0.04,0.104,0.117,0.308c0.07,0.174,0.175,0.432,0.311,0.767c0.271,0.648,0.672,1.561,1.218,2.691
	c0.359,0.745,0.791,1.589,1.285,2.505C127.893,178.368,131.015,178.275,133.448,176.7z"/>
<path fill="#D8B76C" d="M133.578,168.116c0.226,0.704-2.313,2.278-5.395,3.269c-3.084,0.99-5.234,1.306-5.461,0.602
	c-0.226-0.705,1.557-2.165,4.641-3.154C130.445,167.842,133.352,167.411,133.578,168.116z"/>
<g>
	<g>
		<path fill="#FFFFFF" d="M129.445,166.483c4.758-4.937-0.57-14.742-7.349-14.598c-3.416,0.138-7.01,3.715-2.554,5.529
			c2.49,1.013,8.396,1.888,6.005,6.26"/>
	</g>
	<g>
		<path fill="#FFFFFF" d="M125.517,159.997c0.968,5.129-11.121,1.433-12.893-0.969c-1.903-2.455-3.789-7.957-6.838-3.088
			c-1.619,2.854-2.215,5.818-0.102,8.512c3.025,3.826,8.212,6.091,12.857,7.063c4.198,0.944,12.067-1.504,11.235-7.342"/>
	</g>
	<g>
		<path fill="#D0D2D3" d="M105.125,157.254c0.104,0.212,0.217,0.435,0.354,0.67c0.18,0.349,0.423,0.697,0.655,1.084
			c0.264,0.363,0.519,0.771,0.839,1.145c0.157,0.191,0.316,0.386,0.478,0.582c0.167,0.192,0.352,0.371,0.531,0.562
			c0.349,0.388,0.751,0.733,1.145,1.091c0.39,0.365,0.839,0.654,1.251,0.984c0.43,0.302,0.882,0.561,1.308,0.834
			c0.437,0.251,0.884,0.451,1.297,0.668c0.204,0.113,0.41,0.208,0.616,0.283c0.203,0.083,0.4,0.166,0.588,0.244
			c0.38,0.15,0.718,0.333,1.039,0.425c0.317,0.106,0.595,0.199,0.822,0.288c0.457,0.166,0.72,0.273,0.72,0.273
			s-0.278-0.014-0.766-0.062c-0.245-0.018-0.541-0.056-0.881-0.097c-0.345-0.025-0.717-0.127-1.129-0.224
			c-0.206-0.051-0.42-0.103-0.642-0.158c-0.225-0.051-0.451-0.119-0.677-0.209c-0.454-0.174-0.944-0.338-1.433-0.552
			c-0.476-0.237-0.986-0.461-1.478-0.733c-0.475-0.301-0.992-0.564-1.452-0.909c-0.464-0.339-0.946-0.664-1.361-1.056
			c-0.211-0.188-0.432-0.369-0.633-0.563c-0.196-0.2-0.39-0.396-0.581-0.59c-0.388-0.383-0.709-0.804-1.038-1.183
			c-0.102-0.139-0.201-0.269-0.299-0.4C104.52,158.854,104.773,158.052,105.125,157.254z"/>
	</g>
</g>
<path fill="#FFFFFF" d="M128.184,171.385c1.431-0.459,2.741-1.046,3.715-1.612l-1.629-5.354l-5.277,5.017l0.937,2.592
	C126.603,171.865,127.357,171.65,128.184,171.385z"/>
<path fill="#EFD395" d="M192.634,176.614c0,0,1.124,8.735-5.968,11.244C186.666,187.858,194.537,187.08,192.634,176.614z"/>
<g>
	<path fill="#1A1A1A" d="M116.438,199.271l-17.144,0.347l0.708,6.743c-0.003,0.025-0.014-0.016-0.014,0.012
		c0,1.245,3.572,2.73,7.979,2.767c5.971,0.049,7.815-1.482,7.961-1.639h0.047L116.438,199.271z"/>
	<ellipse cx="107.858" cy="199.371" rx="8.579" ry="2.253"/>
	<polygon fill="#1A1A1A" points="112.444,198.588 103.433,198.563 103.025,194.6 112.714,194.576 	"/>
	<ellipse fill="#1A1A1A" cx="107.861" cy="194.617" rx="4.844" ry="1.272"/>
	<ellipse fill="#1A1A1A" cx="107.922" cy="198.531" rx="4.506" ry="1.271"/>
	<ellipse cx="107.845" cy="194.551" rx="3.98" ry="0.784"/>
	<g>
		<path fill="#C6C4B5" d="M117.559,168.985c-0.024,0.02-0.048,0.042-0.072,0.063c-0.1,1.096-0.051,2.321-0.051,2.321l-0.414-1.911
			c-0.069,0.061-0.138,0.123-0.206,0.186l0.029,2.452l-0.93-1.591c-0.104,0.104-0.208,0.208-0.312,0.315l0.172,2.11l-0.544-1.725
			c-0.036,0.038-0.072,0.076-0.108,0.114l0.333,2.231l-0.656-1.885c-0.498,0.544-0.985,1.109-1.456,1.689l0.194,2.28l-0.59-1.782
			c-0.368,0.47-0.725,0.947-1.069,1.432l0.399,2.914l-0.751-2.41c-0.735,1.073-1.399,2.168-1.969,3.252l0.587,1.587l-0.864-1.046
			c-0.041,0.081-0.081,0.162-0.121,0.242l0.579,1.233l-0.728-0.919c-0.034,0.072-0.069,0.146-0.102,0.218l1.107,2.994l-1.382-2.365
			c-0.283,0.672-0.521,1.332-0.708,1.972l1.629,3.32l-1.836-2.535c-0.04,0.169-0.076,0.337-0.106,0.501
			c-0.799,4.248,1.643,7.111,1.643,7.111l15.076-23.473C121.621,168.896,119.384,167.422,117.559,168.985z"/>
		<path fill="#C6C4B5" d="M113.787,188.923l3.865,0.008c0.491-0.455,0.982-0.954,1.471-1.487l-2.907-0.219l3.406-0.342
			c0.036-0.04,0.072-0.081,0.107-0.123l-1.332-0.291l1.599-0.025c0.045-0.054,0.09-0.106,0.134-0.16l-1.524-0.368l1.979-0.197
			c0.794-1.008,1.56-2.099,2.268-3.243l-3,0.459l3.398-1.117c0.284-0.482,0.559-0.974,0.82-1.472l-2.467,0.332l2.858-1.104
			c0.302-0.611,0.581-1.229,0.837-1.853l-2.662,0.319l2.899-0.915c0.002-0.006,0.005-0.01,0.006-0.015l-2.487,0.37l2.746-1.073
			c0.009-0.023,0.018-0.045,0.024-0.067l-2.487-0.188l2.983-1.412c0.007-0.025,0.015-0.051,0.021-0.076l-2.612,0.64
			c0,0,1.803-0.792,2.755-1.528c0.027-1.913-1.829-3.276-2.079-5.846l-14.486,23.843c0,0,2.773,0.858,5.827-1.283
			c0.42-0.295,0.848-0.631,1.279-1L113.787,188.923z"/>
	</g>
	<path fill="#9B9A8F" d="M106.997,195.316c0.274,0.012,0.557,0.019,0.848,0.019c0.037,0,0.073-0.002,0.11-0.002
		c3.032-4.856,15.256-24.517,16.391-27.578C124.346,167.755,111.812,186.189,106.997,195.316z"/>
	<path fill="#706F69" d="M107.432,194.505c-0.151,0.277-0.296,0.548-0.436,0.812c0.274,0.012,0.557,0.019,0.848,0.019
		c0.037,0,0.073-0.002,0.11-0.002c0.059-0.095,0.123-0.196,0.189-0.303C107.861,194.935,107.613,194.711,107.432,194.505z"/>
</g>
</svg>
