<svg xmlns="http://www.w3.org/2000/svg" width="250" height="250" viewBox="0 0 250 250"><g opacity=".15"><path d="M246.615 119.688l-9.117-8.092c-.85-.754-1.943-1.166-3.07-1.166-.14 0-.28.006-.42.02l-4.007.365c.34-.748.49-1.595.38-2.47l-.2-1.665c-.15-1.22-.78-2.33-1.75-3.086-.81-.634-1.81-.974-2.83-.974-.19 0-.39.013-.58.038l-28.83 3.664c-.69-1.955-1.5-3.867-2.42-5.728l23.02-17.823c.97-.75 1.6-1.85 1.76-3.07.16-1.22-.18-2.44-.93-3.41l-1.03-1.32c-.55-.7-1.25-1.2-2.02-1.49l3.09-2.57c.98-.81 1.58-2 1.66-3.28l.73-12.15c.08-1.32-.41-2.61-1.34-3.54-.86-.87-2.04-1.35-3.27-1.35-.09 0-.18 0-.27.01l-12.16.72c-1.27.08-2.46.68-3.28 1.66l-2.57 3.09c-.29-.77-.79-1.47-1.49-2.02l-1.33-1.03c-.81-.63-1.81-.97-2.83-.97-.19 0-.39.02-.58.04-1.22.15-2.32.79-3.07 1.76L169.7 77.18c-1.794-.824-3.64-1.55-5.538-2.163l3.747-29.443c.15-1.22-.19-2.45-.94-3.42-.76-.97-1.86-1.602-3.08-1.754l-1.67-.21c-.2-.026-.39-.04-.58-.04-.67 0-1.32.134-1.9.4l.36-4.027c.11-1.27-.3-2.567-1.15-3.52l-8.09-9c-.88-.99-2.14-1.5-3.46-1.5s-2.59.51-3.46 1.5l-8.09 9.155c-.85.955-1.26 2.172-1.15 3.444l.36 3.974c-.58-.262-1.23-.417-1.89-.417-.19 0-.39 0-.58.03l-1.68.2c-.35.04-.68.12-1.01.24-11.76-7-26.18-10.81-41.2-10.81-4.97 0-10.02.41-15 1.23-40.57 6.68-69.2 38.79-63.8 71.58 2.7 16.43 13.64 30.23 29.24 38.87-1.35 1-2.07 2.65-1.84 4.32l.56 4.25-3.18 2.87c-1.31 1.18-1.83 3-1.35 4.69.48 1.69 1.88 2.96 3.61 3.28l4.22.78 1.75 3.92c.72 1.6 2.29 2.66 4.05 2.73h.17c1.69 0 3.25-.93 4.06-2.43l2.05-3.77 4.26-.46c1.75-.19 3.24-1.36 3.85-3.01.61-1.65.22-3.51-.99-4.78l-2.96-3.11.43-2.05c6.46 1.58 13.32 2.44 20.44 2.44 2.75 0 5.53-.13 8.3-.38.86 1.07 1.78 2.04 2.76 2.87.22.19.44.37.66.55l-11.96 9.26c-.97.75-1.6 1.86-1.76 3.08-.15 1.21.18 2.44.94 3.41l1.03 1.33c.54.7 1.24 1.2 2.02 1.49l-2.93 2.44.38-1.83c.36-1.73-.29-3.51-1.67-4.59-.83-.65-1.84-.99-2.86-.99-.68 0-1.36.14-1.99.45l-3.87 1.85-3.73-2.14c-.71-.41-1.51-.62-2.3-.62-.9 0-1.8.27-2.58.79-1.46.98-2.24 2.71-2.01 4.45l.57 4.25-3.18 2.88c-1.31 1.18-1.83 3-1.35 4.69.48 1.7 1.88 2.97 3.61 3.29l4.22.78 1.75 3.92c.72 1.6 2.29 2.66 4.05 2.73h.17c1.69 0 3.25-.93 4.07-2.42l2.04-3.77 2.24-.24-.12 2.08c-.08 1.32.41 2.61 1.34 3.54.87.87 2.05 1.35 3.27 1.35.09 0 .18-.01.27-.01l12.16-.72c1.27-.08 2.46-.68 3.28-1.66l2.57-3.09c.3.79.81 1.49 1.5 2.02l1.33 1.03c.39.3.81.52 1.25.68-.4.7-.56 1.41-.61 1.98-3.19 1.54-3.76 3.86-3.76 5.34 0 .17 0 .34.02.51 0 .08.01.15.02.23l.67 6.32c.11 5.2 6.84 7.05 12.6 7.05 4.38 0 8-1.48 9.29-2.02 1.83-.52 3.21-2.16 3.34-4.15l.48-7.4c.01-.22.01-.44-.01-.66-.02-2-1.08-3.7-2.99-4.91.11-.07.22-.15.33-.22.48-.33 1.04-.74 1.64-1.25.11-.1.21-.19.31-.3.15-.11.31-.24.45-.37.59-.54 1.17-1.13 1.74-1.75.1-.12.2-.24.29-.36.11-.1.22-.21.32-.33l.08-.1c.06-.06.11-.12.16-.19l.14-.15.17-.2c.09-.11.17-.22.25-.34.09-.1.18-.2.26-.31.45-.56.88-1.15 1.3-1.75l.15.21-1.51 11.83c-.16 1.22.18 2.45.93 3.42s1.86 1.6 3.08 1.76l1.67.21c.19.03.38.04.58.04.66 0 1.3-.15 1.89-.41l-.37 4c-.12 1.27.3 2.53 1.14 3.49l7.62 9.11c.88.99 2.01 1.56 3.01 1.56v-.09c1 0 3.03-.67 3.91-1.66l7.08-7.65h.04c1.52 0 2.88.12 3.74.06 5.6 1.71 11.02 2.76 16.1 2.76 7.2 0 12.1-1.75 14.38-2.8 1.15-.52 1.82-.95 2-1.06.54-.36 1-.83 1.35-1.38 3.59 1.52 6.76 2.28 9.45 2.28 3.63 0 5.69-1.36 6.65-2.27.63-.56 1.1-1.29 1.35-2.11l.1-.35c.04-.14.08-.25.12-.37l.05-.15c.18-.37.31-.77.38-1.18.85-3.94 1.3-7.88 1.38-12.14l.59.02h.2c1.24 0 2.43-.5 3.3-1.39.92-.93 1.4-2.21 1.32-3.52l-.73-12.2c-.08-1.27-.67-2.46-1.65-3.27l-3.13-2.62c.75-.29 1.44-.78 1.98-1.46l1.06-1.33c.76-.97 1.11-2.21.96-3.43-.15-1.23-.79-2.34-1.76-3.1l-8.26-6.4c-.02-.08-.04-.16-.05-.21-.02-.86-.26-1.67-.71-2.44-.06-.14-.11-.26-.15-.35-.15-.36-.34-.7-.57-1.02-.33-.48-.73-.9-1.2-1.23-.95-3.57-2.05-7.28-3.31-11.11l22.5 2.87c.19.03.39.04.58.04 1.02 0 2.02-.34 2.83-.97.97-.75 1.6-1.86 1.75-3.08l.21-1.67c.11-.88-.03-1.72-.37-2.47l4.01.36c.14.01.28.02.42.02 1.12 0 2.22-.41 3.07-1.16l9.11-8.08c.99-.88 1.56-2.14 1.56-3.46 0-1.32-.57-2.58-1.56-3.46z"/><path d="M48.192 178.265l.882-4.2c.362-1.723-.285-3.5-1.67-4.588-.83-.652-1.84-.988-2.856-.988-.678 0-1.36.14-1.996.45l-3.87 1.85-3.723-2.14c-.72-.41-1.51-.62-2.31-.62-.9 0-1.8.26-2.58.78-1.46.98-2.24 2.7-2.01 4.45l.56 4.25-3.18 2.87c-1.31 1.18-1.83 3-1.35 4.69s1.88 2.97 3.61 3.29l4.22.78 1.75 3.91c.72 1.6 2.29 2.66 4.04 2.73h.17c1.69 0 3.25-.93 4.06-2.42l2.04-3.77 4.26-.46c1.75-.19 3.24-1.35 3.85-3 .61-1.66.22-3.51-.99-4.79l-2.96-3.11z"/></g><g fill="#FFF16C"><path d="M243.84 117.838l-9.117-8.092c-.85-.754-1.943-1.166-3.07-1.166-.14 0-.28.006-.42.02l-4.007.365c.34-.748.48-1.595.374-2.47l-.205-1.665c-.15-1.22-.78-2.33-1.753-3.086-.815-.634-1.815-.974-2.838-.974-.193 0-.39.013-.584.038l-28.835 3.664c-.69-1.955-1.498-3.867-2.424-5.728l23.02-17.823c.97-.75 1.61-1.85 1.76-3.07.16-1.22-.18-2.44-.93-3.42l-1.03-1.32c-.54-.7-1.24-1.2-2.02-1.49l3.1-2.58c.98-.81 1.58-2 1.66-3.27l.73-12.15c.08-1.32-.41-2.61-1.34-3.54-.87-.87-2.05-1.35-3.27-1.35-.09 0-.18 0-.27.01l-12.16.72c-1.27.08-2.46.68-3.28 1.66l-2.57 3.09c-.29-.77-.79-1.47-1.49-2.02l-1.33-1.03c-.81-.63-1.81-.97-2.83-.97-.19 0-.39.02-.58.04-1.21.15-2.32.78-3.07 1.75l-18.1 23.38c-1.79-.83-3.64-1.55-5.54-2.16l3.75-29.44c.16-1.22-.18-2.45-.93-3.42-.75-.97-1.86-1.6-3.08-1.75l-1.67-.21c-.19-.02-.39-.04-.58-.04-.67 0-1.31.14-1.89.4l.37-4.02c.12-1.27-.29-2.56-1.14-3.52l-8.08-9.06c-.88-.99-2.14-1.58-3.46-1.58-1.32 0-2.58.59-3.46 1.57l-8.09 9.19c-.84.96-1.26 2.19-1.14 3.47l.37 3.99c-.58-.26-1.22-.41-1.89-.41-.19 0-.38.01-.58.03l-1.67.2c-.34.05-.68.13-1 .24-11.81-7.04-26.23-10.85-41.26-10.85-4.97 0-10.01.42-14.99 1.24C30.39 35.89 1.76 68 7.15 100.79c2.708 16.44 13.648 30.23 29.238 38.873-1.35 1-2.064 2.65-1.84 4.32l.565 4.26-3.178 2.88c-1.305 1.18-1.828 3-1.348 4.69.48 1.69 1.88 2.96 3.61 3.28l4.22.78 1.75 3.91c.72 1.6 2.29 2.66 4.04 2.73h.17c1.69 0 3.25-.93 4.06-2.43l2.04-3.77 4.26-.46c1.75-.19 3.24-1.36 3.85-3.01.6-1.66.22-3.51-.99-4.79l-2.96-3.11.43-2.05c6.46 1.59 13.31 2.45 20.44 2.45 2.75 0 5.53-.13 8.3-.38.85 1.07 1.78 2.03 2.76 2.87.21.18.43.37.65.55l-11.96 9.26c-.97.75-1.61 1.85-1.76 3.07-.16 1.22.18 2.44.93 3.42l1.03 1.32c.54.7 1.24 1.2 2.02 1.49l-2.93 2.44.38-1.83c.36-1.72-.29-3.5-1.67-4.583-.83-.65-1.84-.99-2.86-.99-.68 0-1.36.144-2 .45l-3.87 1.85-3.72-2.14c-.71-.41-1.51-.61-2.3-.61-.9 0-1.8.263-2.58.783-1.46.98-2.24 2.71-2.01 4.453l.563 4.25-3.18 2.87c-1.3 1.18-1.826 3-1.346 4.69s1.88 2.96 3.61 3.28l4.225.78 1.76 3.915c.72 1.61 2.29 2.66 4.05 2.73h.17c1.69 0 3.26-.92 4.07-2.42l2.04-3.77 2.24-.24-.13 2.08c-.08 1.32.41 2.61 1.34 3.55.87.87 2.05 1.36 3.27 1.36.09 0 .18 0 .28-.01l12.16-.72c1.27-.08 2.46-.68 3.28-1.66l2.57-3.09c.3.8.81 1.5 1.49 2.03l1.34 1.03c.39.3.81.52 1.24.68-.4.71-.56 1.41-.62 1.98-3.19 1.55-3.76 3.87-3.76 5.34 0 .18 0 .35.02.51 0 .08.01.16.02.23l.67 6.33c.11 5.2 6.84 7.05 12.6 7.05 4.38 0 8-1.48 9.29-2.01 1.83-.53 3.21-2.16 3.34-4.15l.47-7.4c.01-.23.01-.45-.01-.67-.02-2-1.08-3.7-2.98-4.91.11-.07.21-.15.32-.22.48-.34 1.04-.74 1.64-1.26.11-.09.21-.19.31-.29.16-.11.31-.23.45-.36.59-.55 1.17-1.14 1.74-1.76.1-.12.2-.24.29-.36.11-.1.22-.21.32-.33l.08-.1.15-.19c.04-.05.09-.1.13-.15l.17-.2c.09-.11.17-.22.25-.34.09-.1.18-.2.27-.31.44-.56.88-1.14 1.29-1.74l.14.21-1.51 11.83c-.16 1.22.18 2.45.93 3.42.75.97 1.86 1.61 3.08 1.76l1.67.21c.2.03.39.04.58.04.67 0 1.31-.14 1.89-.4l-.36 4c-.12 1.27.3 2.53 1.14 3.49l8.01 9.11c.88.99 2.39 1.56 3.39 1.56v-.09c1 0 2.65-.24 3.53-1.23l6.69-7.23h.04c1.52 0 2.88-.3 3.75-.36 5.6 1.71 11.02 2.55 16.11 2.55 7.19 0 12.09-1.86 14.37-2.9 1.15-.53 1.82-1 2-1.12.54-.36 1-.86 1.35-1.4 3.58 1.51 6.76 2.27 9.45 2.27 3.62 0 5.68-1.37 6.64-2.27.63-.57 1.1-1.3 1.35-2.12l.1-.36c.04-.14.08-.25.12-.37l.05-.15c.17-.37.3-.77.37-1.19.85-3.93 1.3-7.88 1.38-12.13l.59.03h.2c1.23 0 2.42-.5 3.29-1.38.92-.93 1.4-2.21 1.32-3.52l-.73-12.2c-.08-1.27-.67-2.46-1.65-3.27l-3.13-2.62c.76-.28 1.45-.77 1.99-1.45l1.06-1.33c.76-.97 1.11-2.2.96-3.43-.15-1.23-.78-2.34-1.76-3.1l-8.26-6.4c-.02-.09-.03-.16-.04-.22-.02-.85-.25-1.67-.71-2.43-.06-.14-.11-.26-.15-.35-.15-.36-.34-.69-.57-1.01-.33-.48-.73-.89-1.2-1.22-.94-3.57-2.05-7.29-3.31-11.12l22.5 2.87c.2.02.39.04.59.04 1.02 0 2.02-.34 2.83-.97.97-.76 1.61-1.87 1.76-3.09l.21-1.67c.11-.87-.03-1.72-.37-2.47l4 .37c.14.01.28.02.42.02 1.12 0 2.22-.41 3.07-1.16l9.11-8.08c.99-.88 1.55-2.14 1.55-3.46 0-1.32-.57-2.58-1.56-3.46z"/><path d="M45.417 176.415l.882-4.2c.36-1.723-.29-3.502-1.67-4.588-.83-.652-1.84-.99-2.86-.99-.68 0-1.36.15-2 .455l-3.87 1.85-3.73-2.137c-.72-.412-1.51-.615-2.31-.615-.9 0-1.8.263-2.58.784-1.46.98-2.24 2.706-2.01 4.45l.56 4.253-3.18 2.873c-1.31 1.18-1.83 3-1.35 4.692.48 1.694 1.88 2.968 3.61 3.287l4.22.78 1.75 3.91c.72 1.6 2.29 2.66 4.04 2.73h.17c1.69 0 3.25-.93 4.06-2.43l2.04-3.77 4.26-.46c1.75-.19 3.24-1.35 3.85-3.01.6-1.66.22-3.51-.99-4.78l-2.96-3.11z"/></g><path fill="#D8B76C" d="M199.283 153.77s.638-.25 1.06.16c.422.41-.237 1.514-.237 1.514l-.54-.02-.283-1.655z"/><path fill="#FFB000" d="M231.66 129.372l9.11-8.075-9.117-8.092-40.202 3.67c-.18-1.935-.5-3.825-.92-5.68l32.48-4.133-.2-1.667-32.69 4.156c-1.13-4.29-2.86-8.33-5.1-12.04l26.15-20.24-1.03-1.32-25.99 20.13c-1.05-1.61-2.2-3.14-3.44-4.6l31.21-25.98.73-12.16-12.16.73-26.07 31.32c-1.49-1.2-3.08-2.27-4.71-3.28L190 55.82l-1.33-1.03-20.442 26.4c-3.694-2.085-7.707-3.65-11.94-4.656l4.25-33.4-1.672-.21-4.23 33.22c-1.847-.37-3.744-.586-5.668-.724l3.755-41.133-8.08-9.115-8.09 9.11 3.778 41.29c-1.91.22-3.78.586-5.63 1.034l-4.28-33.68-1.67.21 4.32 33.895c-4.05 1.15-7.86 2.84-11.38 4.99l-21.06-27.21-1.33 1.03 20.95 27.05c-1.58 1.05-3.09 2.21-4.53 3.45L88.83 54.07l-12.152-.725.73 12.15 32.36 26.94c-1.19 1.47-2.264 3.03-3.268 4.66L79.177 75.94l-1.033 1.33 27.476 21.27c-1.99 3.486-3.508 7.256-4.537 11.228L66.5 105.363l-.21 1.67 34.37 4.38c-.4 1.835-.696 3.708-.875 5.613L57.65 113.17l-9.11 8.078 9.114 8.084 42.125-3.842c.17 1.91.46 3.783.86 5.617l-34.36 4.365.21 1.677 34.56-4.41c1.03 4 2.55 7.79 4.55 11.3l-27.47 21.29 1.03 1.32 27.33-21.16c1 1.61 2.08 3.18 3.27 4.66L77.39 177.1l-.73 12.156 12.16-.725 26.87-32.29c1.44 1.24 2.94 2.4 4.53 3.44l-20.96 27.08 1.33 1.03 21.07-27.22c3.514 2.15 7.325 3.85 11.38 4.99l-4.32 33.9 1.675.21 4.282-33.68c1.84.45 3.704.81 5.63 1.03l-3.78 41.3 8.082 9.12 8.09-9.11-3.76-41.14c1.92-.13 3.81-.35 5.67-.72l4.23 33.22 1.67-.2-4.26-33.4c4.24-1 8.25-2.57 11.95-4.67l20.44 26.4 1.33-1.03-20.33-26.25c1.63-1 3.22-2.09 4.71-3.28l26.06 31.3 12.16.73-.73-12.15-31.2-25.97c1.23-1.45 2.39-2.98 3.44-4.59l25.98 20.12 1.03-1.33-26.14-20.23c2.25-3.71 3.98-7.76 5.11-12.07l32.69 4.17.21-1.67-32.48-4.14c.42-1.85.73-3.75.92-5.68l40.2 3.69z"/><ellipse transform="rotate(-9.4 80.8 88.7)" fill="#FFE8AE" cx="80.76" cy="88.669" rx="69.974" ry="55.639"/><path fill="#FFE8AE" d="M99.223 85.204l.037.05.31.38c.178.232.412.55.67.93.522.76 1.185 1.803 1.92 3.138 1.463 2.665 3.294 6.52 4.463 11.68.587 2.566.97 5.477.966 8.592-.01 3.11-.47 6.438-1.45 9.654-.48 1.612-1.11 3.178-1.82 4.698-.39.74-.75 1.493-1.17 2.205l-.64 1.06-.33.53c.1-.2.02-.04.03-.08l-.02.02-.04.05-.06.1-.13.19c-1.12 1.4-2.08 2.87-2.78 4.32-.71 1.45-1.16 2.88-1.32 4.17-.15 1.3-.03 2.47.46 3.61.48 1.13 1.42 2.21 2.68 3.05 1.25.85 2.77 1.45 4.27 1.84 1.51.4 3.02.6 4.39.69 1.36.09 2.59.08 3.61.03s1.82-.12 2.37-.18l.85-.1h.05c.87-.1 1.65.53 1.75 1.4.07.68-.29 1.3-.86 1.59l-.81.41c-.54.27-1.33.65-2.36 1.09-1.04.44-2.33.94-3.89 1.41-1.55.47-3.37.9-5.48 1.12-2.1.21-4.51.22-7.17-.36-2.64-.57-5.57-1.81-8.13-4.05-2.58-2.2-4.58-5.4-5.63-8.77-1.08-3.38-1.32-6.87-1.09-10.15.24-3.29.95-6.4 1.88-9.29l.07-.22.03-.1.01-.05v-.02c.03-.06-.05.09.06-.13l.05-.28.09-.55c.06-.36.07-.72.11-1.06.02-.7.02-1.35-.07-1.97-.15-1.24-.47-2.33-.93-3.35-.44-1.01-.97-1.95-1.57-2.81-1.19-1.7-2.54-3.07-3.48-3.86-.47-.4-.84-.66-1.04-.77-.1-.06-.16-.07-.17-.05.02.04.07.11.09.14V105c-6.44-4.947-7.65-14.178-2.7-20.618 4.94-6.44 14.17-7.65 20.61-2.704 1.18.91 2.19 1.962 3.01 3.116l.29.414z"/><g fill="#1A1A1A"><path d="M26.472 65.997c.247-.037.532-.313.856-.83.323-.517.667-1.27 1.03-2.26.195-.37.51-.724.944-1.06.435-.334.945-.63 1.532-.89.588-.26 1.23-.483 1.928-.668.507-.14 1.228-.29 2.16-.43.58-.09 1.152-.15 1.723-.19s1.118-.04 1.643-.01c.524.02 1.014.08 1.47.17.454.09.857.21 1.208.37.35.15.635.35.85.58.217.23.35.5.397.81.072.47.025.93-.14 1.38-.165.45-.433.86-.807 1.23-.374.37-.845.69-1.415.96-.56.27-1.22.46-1.96.58-.31.04-.61.07-.89.09-.28.01-.58.05-.91.1-.24.04-.44.09-.57.14-.13.06-.23.13-.29.22-.06.09-.09.19-.09.31s.01.26.04.42c.05.34.18.61.38.8.2.19.45.33.75.44.3.1.63.17.99.21l1.12.12c.38.04.76.1 1.13.17.37.07.71.19 1.01.35s.57.38.78.66c.22.28.36.65.43 1.1.13.85.09 1.57-.11 2.16-.2.59-.52 1.1-.94 1.52-.42.42-.93.76-1.52 1.02-.59.25-1.22.43-1.87.53-.54.08-1.09.1-1.64.08-.56-.03-1.08-.09-1.58-.17-.07-.04-.13-.11-.17-.2-.05-.1-.09-.2-.13-.32-.04-.12-.06-.23-.08-.34l-.04-.26c-.06-.39-.11-.8-.17-1.23-.05-.43-.1-.86-.14-1.29l-.12-1.33c-.04-.45-.07-.87-.09-1.24-.03-.66-.05-1.33-.05-2.03 0-.69.03-1.28.09-1.76.06-.49.17-1.04.33-1.67.16-.64.38-1.22.66-1.76-.48-.58-.99-.82-1.56-.74-.45.06-.92.33-1.41.79-.48 1.02-.82 2.05-1.01 3.08-.19 1.03-.28 2.23-.28 3.59 0 1.36.07 2.72.21 4.09.14 1.37.31 2.7.51 4 .04.25.15.42.33.49.18.07.38.12.6.13.51.09 1.05.17 1.62.23.57.06 1.15.09 1.73.11.59.01 1.16.01 1.72-.01.57-.03 1.1-.08 1.6-.15.8-.12 1.51-.32 2.15-.59.64-.27 1.2-.6 1.68-.97.48-.38.89-.8 1.22-1.25.34-.46.6-.94.79-1.43.19-.5.32-1 .38-1.51.06-.52.05-1.01-.02-1.49-.09-.61-.28-1.19-.56-1.75s-.65-1.02-1.1-1.38c-.45-.37-.98-.63-1.58-.79-.6-.17-1.29-.19-2.05-.07 1.2-.21 2.21-.53 3.02-.96.82-.43 1.46-.92 1.94-1.47.48-.55.81-1.14.98-1.76.17-.62.21-1.23.12-1.82-.07-.5-.29-.96-.66-1.38-.37-.42-.84-.79-1.42-1.1-.58-.32-1.25-.59-2-.81-.75-.22-1.55-.39-2.39-.49-.84-.11-1.71-.16-2.61-.16s-1.78.07-2.65.21c-.75.11-1.47.27-2.16.48-.69.21-1.34.46-1.95.77-.6.31-1.15.66-1.63 1.07-.49.41-.89.87-1.21 1.4-.32.53-.54 1.11-.66 1.74-.13.63-.13 1.33-.02 2.08.12.78.34 1.14.68 1.09zm20.378 8.498c.15.313.325.556.528.73.204.174.422.287.658.338.235.05.48.057.733.018.3-.04.61-.15.92-.33.31-.17.6-.39.89-.66.28-.27.56-.57.82-.92.26-.34.5-.72.73-1.12.13.34.26.65.41.91.14.27.31.5.48.68.18.19.38.32.6.4.22.09.48.11.76.06.28-.04.58-.13.9-.26.32-.13.64-.29.97-.47.32-.18.64-.39.96-.62.28-.2.53-.4.78-.61l.07.17c.41.85.9 1.23 1.48 1.14.35-.05.69-.25 1.02-.58.32-.34.62-.78.89-1.34s.5-1.21.7-1.95c.2-.74.34-1.55.44-2.43l.34.01c.06.42.13.85.2 1.28.07.44.15.87.23 1.28.08.42.17.81.26 1.17.09.37.19.69.28.96.09.28.2.49.3.64.11.16.21.22.32.21.3-.04.6-.19.87-.45.27-.25.54-.59.78-1s.47-.9.67-1.45c.21-.55.39-1.16.56-1.82.08.48.22.88.43 1.19.21.31.46.56.76.73.3.17.63.28 1 .32.36.05.74.04 1.14-.02.5-.07 1.01-.25 1.52-.54.11-.06.21-.13.32-.2.02.04.03.08.05.11.22.38.49.7.8.94.31.24.65.41 1.03.51.37.1.74.12 1.11.06.35-.05.69-.16 1.02-.33.33-.16.64-.36.94-.59.3-.23.56-.47.8-.74.24-.26.43-.51.59-.75.34.58.71 1.01 1.1 1.28.39.27.84.37 1.35.29.43-.06.84-.23 1.23-.51.39-.27.75-.59 1.08-.95.26-.29.49-.6.7-.9.02.09.03.19.06.28.08.28.19.53.32.74.14.21.31.37.52.48.21.11.48.14.79.09.25-.04.47-.13.64-.27.16-.13.31-.37.42-.72l2.12-6.47.18-.02c0 .63.01 1.22.03 1.77.02.55.07 1.05.14 1.51.18 1.18.46 2.06.84 2.63.38.57.79.82 1.21.76.42-.06.82-.18 1.19-.37.14-.06.49-.27 1.05-.63.23-.14.8-.55 1.7-1.22.62-.47.95-.72.99-.77l.51-.53-.38-2.59c-.77.7-1.43 1.29-1.99 1.78-.45.39-.68.58-.7.58-.02 0-.18.15-.48.46-.06.08-.21.18-.45.31-.16.1-.28.15-.38.16-.25.04-.46-.09-.63-.38-.17-.29-.28-.68-.36-1.15-.04-.28-.07-.6-.09-.94-.02-.34-.02-.69-.02-1.05V61.6c0-.45 0-.816.01-1.1l.03-.74c0-.208 0-.35-.02-.437-.09-.57-.27-1-.55-1.29-.28-.29-.61-.406-.99-.347-.39.06-.73.19-1.02.39-.29.2-.53.53-.71.98l-.18.46c-.08.21-.17.45-.26.72l-.3.85c-.11.293-.21.63-.28 1.01s-.16.66-.23.86c-.07.204-.12.352-.16.444l-.23.033c-.01-.06-.01-.16-.01-.326 0-.16 0-.407-.02-.73-.01-.327-.02-.618-.02-.87v-.75c0-.24 0-.46-.01-.66 0-.2-.02-.36-.03-.476-.06-.42-.2-.75-.4-.98-.2-.23-.51-.31-.93-.25-.42.07-.73.24-.94.51-.21.28-.33.6-.36.97-.04.47-.07 1.03-.09 1.69-.02.66-.01 1.39.02 2.2.01.42.03.83.05 1.21-.26.47-.53.92-.79 1.31-.14.2-.29.4-.44.59-.16.19-.32.37-.48.53-.16.16-.32.29-.49.4-.16.11-.33.18-.49.2-.22.03-.37-.04-.47-.23-.1-.19-.17-.46-.22-.81-.06-.41-.07-.93-.04-1.55l.1-1.66c.03-.48.05-.96.06-1.42.01-.46-.02-.87-.07-1.24-.04-.24-.09-.43-.15-.56-.07-.13-.14-.23-.23-.3-.09-.06-.19-.1-.29-.11-.11-.01-.22 0-.33.01-.09.01-.18.03-.26.05l-.26.05c-.1.02-.2.03-.3.03-.1.01-.2 0-.3-.03-.1-.02-.19-.08-.26-.15l-.23-.23c-.08-.08-.17-.14-.29-.2-.12-.05-.26-.07-.44-.04-.54.08-1.04.28-1.53.58-.48.31-.93.69-1.33 1.14-.41.45-.77.97-1.08 1.54s-.59 1.24-.82 2c-.23.76-.39 1.46-.46 2.09-.01.13-.01.25-.02.37-.21.16-.43.32-.67.46-.31.19-.59.3-.85.34-.3.05-.57 0-.81-.14-.24-.14-.45-.29-.63-.47-.21-.21-.39-.46-.54-.74.07-.22.15-.45.25-.7.07-.22.17-.55.29-.99.12-.45.24-.83.36-1.17l.09-.27c.05-.16.11-.35.16-.58.05-.22.1-.46.13-.72.04-.25.04-.49.01-.71-.04-.28-.21-.49-.51-.64-.29-.14-.66-.17-1.1-.11-.42.07-.78.21-1.06.42s-.46.43-.51.66L64.87 69l-.17.034.06-6.88c-.035-.223-.15-.39-.354-.496-.2-.11-.47-.137-.81-.08-.4.06-.74.18-1.01.35-.27.17-.5.4-.69.69-.19.29-.36.64-.5 1.06-.14.412-.27.9-.41 1.44-.13.55-.28 1.25-.45 2.1-.17.85-.36 1.696-.58 2.534l-.15.03-.09-6.87c-.03-.22-.16-.38-.38-.49-.21-.1-.51-.123-.87-.07l-.31.027c-.31.04-.57.15-.77.32-.2.17-.37.37-.5.6-.13.23-.23.48-.3.76-.06.27-.11.53-.14.77-.01.09-.01.15-.02.19.08.57.16 1.13.25 1.7l.37 2.28c.09.59.19 1.14.3 1.63-.06.05-.1.1-.16.15-.26.22-.51.43-.76.61s-.49.34-.72.46-.43.19-.6.22c-.13.02-.24 0-.32-.06-.08-.07-.15-.16-.21-.29-.05-.13-.1-.29-.13-.47s-.07-.38-.1-.6c-.02-.14-.03-.36-.02-.66l.04-1.07.05-1.54.05-1.58c.01-.43 0-.83-.04-1.19s-.08-.65-.11-.86c-.04-.22-.17-.38-.42-.48-.25-.11-.56-.13-.94-.07-.34.05-.63.16-.87.32-.25.16-.37.34-.38.54l-.32 6.49c-.02.33-.07.63-.15.89-.09.27-.2.5-.34.68-.13.19-.28.35-.44.47-.17.12-.33.19-.5.21-.11.02-.22 0-.31-.05-.1-.05-.18-.12-.25-.22s-.13-.21-.18-.34c-.05-.13-.08-.27-.11-.41 0-.01 0-.13.01-.35l.02-.9.04-1.47.05-1.67.04-1.49c.01-.5.01-1.01 0-1.54-.02-.17-.13-.29-.33-.38-.19-.08-.5-.11-.91-.06-.24.04-.46.14-.63.29-.18.15-.33.34-.44.55-.12.21-.21.45-.28.7-.07.26-.13.51-.17.75-.04.24-.06.47-.07.67l-.02.48c.04 1.59 0 2.79-.11 3.61-.065.56-.025 1.34.12 2.35.073.49.184.88.334 1.2zm28.262-7.89c.03-.395.115-.862.255-1.4.14-.536.294-.993.466-1.37.17-.378.37-.72.595-1.03.226-.307.477-.562.753-.764.28-.2.58-.32.89-.37l-.29 3.89c.01.25-.01.58-.06.96-.05.39-.13.77-.25 1.15-.11.38-.27.71-.46.99-.19.29-.43.45-.72.49-.17.03-.33.01-.46-.07-.13-.07-.24-.18-.33-.31-.09-.13-.16-.29-.22-.48-.05-.18-.1-.37-.13-.57-.04-.34-.05-.7-.02-1.1z"/><path d="M56.37 64.032l.076.654.03.25c.007.075.02.07.032.006l-.04-.276c-.093-.66-.125-.87-.098-.634zm45.316-.77c.04.676.1 1.268.175 1.777.05.3.11.6.19.88s.19.53.33.74c.14.21.32.37.53.47.22.1.48.13.8.08.26-.04.47-.13.65-.28.17-.14.31-.38.43-.73l2.12-6.47.19-.03c0 .63.01 1.22.03 1.76.02.54.07 1.05.14 1.51.18 1.18.46 2.05.85 2.62.38.57.79.82 1.21.76.42-.06.82-.19 1.19-.37.14-.06.49-.27 1.05-.63.21-.13.7-.49 1.45-1.04.29.32.63.59 1.04.79.56.28 1.14.38 1.74.29.82-.12 1.59-.66 2.33-1.61l-.02 1.41c-.42.5-.78.96-1.07 1.38-.29.42-.66.97-1.11 1.66-.21.33-.42.7-.62 1.1-.19.4-.33.71-.41.93-.08.22-.23.6-.44 1.15-.37.98-.46 1.88-.28 2.68.1.42.27.78.49 1.08.22.3.49.51.8.65.31.14.64.23.98.27.35.04.72.03 1.11-.03.49-.08.92-.22 1.31-.44.38-.22.71-.47.96-.76.26-.3.47-.64.65-1.03.18-.4.32-.78.41-1.16.09-.38.16-.8.21-1.24.05-.45.07-.84.06-1.19-.01-.34-.02-.7-.02-1.05l-.02-.68c-.06-1.01-.07-1.7-.05-2.07s.13-.65.32-.82c.3-.27.78-.7 1.45-1.29.04-.03.09-.07.15-.13.34-.36.75-.85 1.22-1.49.46-.64.77-1.19.92-1.65l-1.14-2.45c-.87 2.03-1.7 3.46-2.51 4.28-.22.23-.44.43-.64.59-.07-1.22-.13-2.21-.19-2.98s-.05-1.46.03-2.1.1-1.17.06-1.59c-.14-1.36-.27-2.15-.4-2.38-.07-.13-.14-.24-.2-.31-.16-.19-.41-.26-.76-.21l-.5.09c-.1.02-.19.02-.27.03-.08 0-.15 0-.22-.02l-.15-.03c-.04-.01-.09-.03-.14-.07-.05-.04-.09-.07-.11-.08-.02-.02-.06-.05-.11-.11-.06-.06-.1-.1-.13-.12-.22-.2-.53-.26-.93-.2-.89.13-1.74.69-2.55 1.68-.56.67-.98 1.43-1.27 2.28-.29.84-.54 1.9-.76 3.16-.11.62-.13 1.2-.06 1.72-.25.22-.38.33-.4.32-.02 0-.17.15-.47.47-.06.08-.21.19-.45.32-.16.1-.28.15-.37.17-.26.04-.47-.09-.63-.37-.16-.29-.28-.67-.36-1.15-.04-.28-.07-.6-.09-.94s-.02-.69-.02-1.05V58.8c0-.45 0-.81.02-1.1.01-.28.02-.53.02-.73.01-.21 0-.35-.01-.44-.08-.57-.27-1-.54-1.29-.28-.29-.61-.41-.99-.35s-.72.19-1.02.39c-.3.203-.53.53-.72.99-.04.1-.1.26-.17.47-.08.21-.16.45-.26.72l-.3.85c-.11.3-.2.63-.28 1.01s-.15.66-.22.87l-.16.44-.23.03c-.01-.06-.02-.17-.02-.33s.08-.41.07-.73c-.01-.33.07-.62.07-.88V58c0-.24-.09-.46-.1-.66-.01-.2-.07-.36-.08-.477-.06-.424-.22-.75-.42-.98-.2-.23-.52-.313-.93-.25-.42.06-.74.23-.94.51-.21.276-.33.6-.36.966-.04.47-.07 1.04-.09 1.69-.02.66-.02 1.39.01 2.21s.06 1.56.1 2.24zm16.814 4.756l.022.763c.01.4.02.74.03 1.01.006.27-.007.53-.043.76-.06.44-.11.78-.15 1.05-.05.27-.11.54-.17.81-.07.28-.13.5-.21.65-.07.16-.16.3-.27.44-.11.14-.23.24-.36.31-.14.07-.3.12-.48.15-.52.08-.71-.26-.56-1.04.17-.92.46-1.85.85-2.78.39-.93.83-1.63 1.32-2.1zm-2.888-10.268c.496-1.305 1.19-2.026 2.085-2.16l-.283 3.98c.07.676.02 1.365-.148 2.07-.22.892-.592 1.377-1.116 1.457-.3.045-.567-.08-.8-.375-.363-.458-.544-1.188-.546-2.188 0-.464.27-1.393.808-2.784zm21.948 24.09c-.866 2.034-1.7 3.46-2.507 4.284-.227.23-.44.43-.645.594-.067-1.225-.13-2.217-.19-2.98-.062-.76-.05-1.46.03-2.105.078-.643.1-1.175.06-1.596-.135-1.357-.267-2.148-.397-2.375-.07-.13-.14-.236-.2-.313-.16-.19-.41-.26-.76-.21l-.51.09-.27.03c-.08 0-.15 0-.21-.02l-.16-.03s-.09-.03-.14-.07c-.05-.04-.09-.07-.11-.08-.02-.02-.06-.05-.11-.11s-.1-.1-.12-.12c-.22-.2-.53-.27-.93-.21-.88.13-1.73.69-2.54 1.67-.56.67-.98 1.43-1.27 2.28-.29.84-.54 1.9-.76 3.16-.11.62-.13 1.2-.06 1.72-.25.21-.39.32-.41.32-.01-.01-.17.15-.47.46-.06.08-.21.18-.45.32-.16.09-.28.15-.37.16-.26.04-.47-.09-.63-.38-.17-.29-.29-.68-.36-1.16-.04-.28-.07-.6-.09-.94-.02-.35-.02-.7-.02-1.05V82c0-.45 0-.817.01-1.103l.03-.735c.01-.205 0-.35-.01-.434-.08-.57-.26-1-.54-1.29-.27-.29-.6-.405-.99-.346-.38.06-.72.19-1.02.39-.29.2-.53.53-.71.98-.04.1-.1.255-.18.463-.08.21-.16.45-.26.72-.1.27-.2.553-.31.85-.11.295-.2.63-.28 1.005-.07.376-.15.665-.22.87l-.15.444-.23.032c-.01-.053-.01-.16-.01-.32s-.25-.407-.26-.73c-.01-.327-.26-.618-.26-.875v-.74s.24-.46.23-.66c0-.2.11-.36.09-.47-.06-.42-.13-.75-.33-.98-.2-.23-.47-.31-.89-.25-.41.07-.71.24-.92.51-.2.28-.32.6-.35.97-.04.47-.06 1.04-.08 1.69-.02.66-.01 1.39.02 2.21.01.43.03.83.05 1.22-.26.48-.52.92-.79 1.32-.14.2-.28.4-.44.59s-.32.37-.48.53c-.16.16-.33.29-.49.39-.17.11-.33.18-.49.2-.22.03-.37-.04-.47-.23-.1-.19-.17-.46-.22-.82-.06-.41-.08-.93-.04-1.55l.09-1.66c.03-.49.05-.96.06-1.42.01-.46-.01-.88-.07-1.25-.04-.24-.09-.43-.15-.56-.06-.13-.14-.23-.23-.3-.09-.06-.18-.1-.29-.11-.1-.01-.21 0-.33.02-.08.01-.17.02-.26.04l-.26.04-.3.03c-.09.01-.19-.01-.29-.03-.1-.02-.18-.08-.26-.15l-.23-.23c-.08-.08-.17-.14-.28-.2-.11-.05-.25-.07-.43-.04-.53.08-1.04.27-1.52.58-.48.3-.93.68-1.33 1.14-.41.45-.77.97-1.08 1.54-.32.58-.59 1.24-.82 2-.23.76-.38 1.45-.46 2.08-.04.37-.05.73-.03 1.09-.08.06-.18.13-.27.19l-.93.62c-.29.2-.57.42-.81.64-.08-.49-.13-.99-.16-1.49-.03-.49-.09-.88-.19-1.15-.1-.27-.2-.51-.3-.71l-.27-.58s-.16-.37-.23-.56c-.06-.19-.12-.41-.15-.65.02-.08.09-.23.22-.43.13-.2.27-.41.42-.65.15-.24.27-.48.39-.73s.16-.46.13-.65c-.01-.09-.04-.2-.07-.33-.03-.12-.11-.24-.22-.34s-.27-.18-.48-.23c-.21-.05-.5-.05-.87.01-.22.04-.42.1-.59.19-.17.1-.32.21-.46.34-.13.13-.25.27-.36.42-.1.15-.19.3-.27.46-.4.7-.72 1.28-.96 1.74l-.62 1.17-.45.83c-.13.24-.3.54-.52.91-.22.37-.44.71-.68 1-.23.29-.53.65-.91 1.09-.05.07-.13.15-.24.27-.11.11-.21.24-.32.38-.1.15-.19.3-.26.48-.01.03-.01.07-.02.1-.07.06-.21.2-.43.43-.06.08-.21.19-.45.32-.16.1-.29.15-.38.16-.25.04-.46-.09-.63-.38-.17-.29-.29-.67-.36-1.15-.04-.28-.07-.6-.09-.94-.01-.34-.02-.69-.02-1.05V86.9c-.01-.45 0-.817.01-1.102.02-.287.02-.53.03-.738 0-.207 0-.353-.02-.438-.08-.57-.27-1-.54-1.29-.27-.29-.6-.405-.99-.347-.38.06-.72.19-1.02.39-.29.2-.53.53-.71.982l-.18.464c-.08.21-.16.45-.26.72-.09.27-.19.56-.3.85s-.2.64-.28 1.01c-.08.38-.15.67-.22.87l-.16.45-.23.04c-.01-.05-.01-.16-.01-.32s-.55-.4-.57-.73c-.01-.32-.56-.61-.56-.87v-.72c0-.24.54-.46.53-.66 0-.2.25-.35.24-.47-.07-.42-.06-.75-.26-.98-.2-.23-.44-.31-.86-.25s-.7.23-.9.51c-.21.28-.31.6-.34.97-.04.47-.06 1.03-.08 1.69-.02.66-.01 1.39.02 2.2.01.43.03.83.05 1.22-.26.47-.52.92-.79 1.32-.14.2-.28.4-.44.59-.15.19-.31.37-.47.52-.16.16-.33.29-.49.4-.17.11-.33.17-.49.2-.22.04-.37-.04-.47-.23-.1-.19-.17-.46-.22-.81-.07-.41-.08-.93-.04-1.55l.09-1.66c.03-.49.05-.96.06-1.42.01-.46-.01-.88-.07-1.24-.04-.24-.09-.43-.15-.56-.06-.13-.14-.23-.23-.3-.09-.06-.18-.1-.29-.11-.1-.01-.21 0-.33.02-.08.01-.17.03-.26.04-.09.02-.17.03-.26.05-.1.02-.2.03-.3.03-.1.01-.2-.01-.3-.03-.09-.02-.18-.07-.26-.15l-.23-.23c-.08-.08-.17-.15-.28-.2-.11-.05-.26-.06-.44-.04-.53.08-1.04.28-1.52.58-.48.31-.92.69-1.33 1.14-.4.46-.76.97-1.08 1.54-.31.58-.59 1.24-.82 2-.2.64-.32 1.22-.4 1.77-.14.17-.27.33-.41.47-.26.28-.52.53-.78.76-.26.23-.52.44-.78.64s-.52.4-.77.61c.18-.39.31-.77.4-1.12.09-.35.15-.71.18-1.06.03-.35.04-.7.01-1.06-.02-.36-.06-.73-.12-1.13-.07-.46-.2-.9-.4-1.31-.19-.4-.44-.75-.73-1.04-.29-.29-.63-.51-1.02-.65-.38-.14-.8-.18-1.26-.11-.35.06-.68.27-.99.65-.31.37-.64.86-.99 1.46l-.2-.1c.44-.74.88-1.51 1.31-2.33.43-.82.81-1.65 1.13-2.49.32-.84.56-1.66.72-2.48.15-.82.18-1.59.07-2.32-.08-.52-.19-1.01-.32-1.46-.13-.46-.32-.84-.57-1.15-.25-.32-.56-.55-.95-.69-.38-.15-.87-.18-1.45-.09-.53.08-.98.37-1.37.86-.39.49-.72 1.12-.99 1.88-.28.76-.5 1.61-.68 2.55s-.28 1.96-.31 3.05c-.03 1.09-.05 2-.07 2.73.02.94.06 1.8.1 2.57-.04.7-.03 1.79.04 3.27.04 1 .08 1.85.13 2.54v.06c-.05.06-.09.12-.14.18-.16.17-.32.32-.49.46-.17.14-.33.25-.5.35-.17.1-.33.16-.49.18-.15.02-.31-.09-.45-.34-.15-.25-.26-.58-.32-1-.08-.54-.13-1.05-.15-1.53-.02-.49-.01-1.03.01-1.63.02-.6.02-1.15 0-1.64s-.07-1.01-.15-1.54c-.06-.35-.22-.61-.5-.76-.28-.15-.6-.2-.97-.15-.32.05-.58.2-.77.45-.19.25-.37.55-.55.89-.18.36-.37.77-.58 1.23l-.6 1.32s-.33.83-.47 1.25l-.23.66-.15-.12v-.1c0-.15 0-.27.02-.35.06-.5.1-.89.12-1.15.02-.3.05-.56.07-.77.02-.19.02-.46.02-.81-.01-.28-.03-.57-.08-.87-.05-.35-.21-.61-.47-.76-.26-.16-.55-.21-.87-.16-.35.05-.63.2-.85.45-.22.24-.42.54-.59.9-.19.35-.37.76-.57 1.21-.19.45-.36.89-.53 1.3s-.3.83-.43 1.25c-.13.41-.2.64-.21.66l-.15-.12c.02-.67.04-1.28.07-1.83V92c0-.21-.01-.41-.02-.61l-.03-.56c-.02-.17-.04-.33-.06-.46-.03-.24-.07-.43-.11-.57-.03-.14-.1-.237-.19-.3s-.22-.09-.39-.09c-.17.004-.4.03-.69.074-.19.03-.35.07-.47.12s-.22.12-.29.21c-.08.1-.14.22-.19.38-.05.16-.09.37-.13.63-.04.25-.08.58-.11.97s-.06.83-.08 1.3l-.07 1.66c-.03.64-.03 1.2-.02 1.69v.15c-.17.276-.33.54-.49.785-.14.2-.28.4-.44.59-.16.19-.31.37-.48.52s-.32.29-.49.4c-.16.11-.33.17-.49.2-.21.04-.37-.04-.46-.23-.1-.19-.17-.46-.23-.82-.07-.41-.08-.93-.04-1.56l.09-1.66c.03-.49.05-.96.06-1.42.01-.46-.01-.88-.07-1.25-.03-.24-.08-.43-.15-.56-.06-.13-.14-.23-.23-.3-.08-.07-.18-.1-.29-.11-.1-.01-.21 0-.33.01l-.26.05-.26.05c-.1.01-.2.02-.3.02-.1 0-.2-.01-.29-.03-.1-.03-.19-.08-.26-.15l-.23-.24c-.08-.08-.18-.15-.29-.2-.11-.06-.26-.07-.44-.04-.54.08-1.04.27-1.53.57-.48.31-.93.69-1.33 1.14-.41.46-.77.97-1.08 1.54-.32.58-.59 1.24-.82 2-.24.76-.39 1.45-.46 2.09-.07.61-.06 1.19.02 1.74-.16.13-.32.26-.49.38-.48.34-1.03.62-1.64.87-.62.25-1.31.43-2.09.55l-.1-.23c.64-.4 1.19-.83 1.64-1.29.44-.45.82-.92 1.12-1.41.3-.49.52-1.05.66-1.67.09-.42.08-.98-.02-1.68-.1-.66-.28-1.2-.52-1.63-.25-.43-.55-.76-.9-1s-.74-.4-1.17-.46c-.42-.06-.87-.06-1.34.01-.65.1-1.18.3-1.6.6-.42.3-.77.67-1.04 1.11-.27.44-.5 1-.69 1.69-.19.69-.31 1.34-.36 1.95-.05.61-.07 1.23-.07 1.86l.01 1.83c-.51 1.17-.95 2.29-1.32 3.36-.16.46-.31.94-.45 1.43-.15.49-.27.97-.37 1.43-.11.47-.18.91-.22 1.33s-.04.79.01 1.11c.086.55.2 1.07.35 1.55.15.48.33.89.56 1.23.23.34.51.6.83.77.33.17.71.23 1.15.16.56-.09 1.07-.39 1.53-.91.455-.52.82-1.22 1.106-2.09.29-.87.46-1.9.53-3.09s0-2.49-.21-3.89l-.04-.21c.66 0 1.17.01 1.56.03l.89.04c.2.01.35.02.43.02.086 0 .15 0 .21-.01.445-.07.89-.21 1.325-.41.44-.21.85-.45 1.23-.74.19-.15.37-.3.54-.46.08.07.15.15.24.22.31.24.66.41 1.03.51.38.09.75.12 1.12.06.35-.05.69-.17 1.02-.33.33-.17.65-.37.94-.6.3-.23.56-.47.8-.74.24-.26.44-.52.59-.76.34.58.71 1 1.1 1.28.39.27.84.37 1.36.29.42-.07.83-.24 1.22-.51.39-.28.75-.59 1.08-.95.15-.17.28-.33.41-.5.08.27.18.5.31.7.14.21.32.36.53.46.21.1.48.13.79.08.25-.03.47-.12.66-.26s.34-.38.45-.71c.37-1.12.67-2.06.9-2.83.23-.77.41-1.4.56-1.88.15-.49.27-.85.35-1.1.09-.25.17-.44.24-.57l.17-.03c-.02.73-.02 1.41-.01 2.04v.81l.02.78c0 .24.01.46.02.64s.03.34.04.44c.04.23.09.47.15.71s.15.46.27.66c.11.2.25.35.41.46.16.11.37.15.62.11.32-.05.6-.15.83-.29.23-.15.42-.4.57-.75L55 92.97l.17-.03c.02.57.06 1.135.104 1.69.05.554.11 1.08.183 1.565.08.51.174.97.29 1.397.115.422.254.783.42 1.083.16.3.35.526.57.675.212.15.46.2.74.16.56-.086 1.053-.236 1.48-.45.422-.21.81-.46 1.144-.75.22-.18.42-.37.61-.57.32.16.63.32.97.47.26.11.87.22 1.84.34.1.01.76-.07 1.96-.25l.29-.05c.28-.16.53-.32.77-.48.21-.14.42-.295.62-.46.21-.165.37-.324.48-.475.52-.21 1.01-.425 1.47-.65.46-.23.89-.48 1.31-.765.3-.2.59-.43.87-.674.08.247.18.48.3.688.22.39.49.7.81.94.32.25.66.42 1.03.52.38.1.75.12 1.12.06.35-.054.69-.165 1.02-.33.34-.17.65-.37.94-.596.3-.23.57-.473.81-.736.24-.266.44-.52.59-.76.34.58.71 1.01 1.1 1.28.39.273.84.37 1.35.29.42-.06.83-.23 1.22-.506.4-.28.75-.6 1.08-.96.26-.29.5-.59.71-.9.02.09.03.19.06.28.08.29.19.53.32.75.14.21.32.37.53.475.21.11.48.14.79.09.25-.04.47-.13.65-.27.17-.14.31-.38.42-.73l2.12-6.47.19-.03c0 .63.01 1.22.03 1.77.02.55.06 1.05.13 1.52.18 1.18.46 2.05.84 2.62.39.57.79.82 1.21.76.43-.07.82-.19 1.19-.37.14-.06.49-.27 1.05-.63.23-.14.8-.55 1.7-1.22l.13-.09c.09.21.2.4.34.55.23.25.51.44.83.57.32.13.69.21 1.1.23.41.03.84 0 1.29-.07.63-.09 1.29-.26 1.98-.51.69-.24 1.36-.54 2.02-.88.66-.34 1.28-.72 1.86-1.12l.12-.09c.18.24.37.46.59.63.31.25.65.42 1.03.52.37.1.74.12 1.11.06.35-.05.69-.16 1.02-.33.34-.17.65-.37.95-.59.3-.23.56-.48.8-.74s.44-.52.59-.76c.34.58.71 1.01 1.1 1.28.39.27.84.37 1.35.29.42-.06.83-.23 1.22-.51s.75-.59 1.08-.95c.27-.3.5-.6.71-.9.02.09.03.19.06.28.07.28.18.53.32.74.13.21.31.37.52.48.21.11.47.14.79.09.25-.04.47-.13.64-.28.17-.13.31-.37.43-.72l2.12-6.47.19-.03c0 .63.01 1.22.03 1.77.02.54.06 1.05.14 1.51.18 1.18.46 2.05.84 2.62.38.57.78.82 1.21.76.42-.06.82-.19 1.19-.37.14-.06.49-.27 1.05-.63.21-.13.7-.48 1.45-1.04.29.32.63.59 1.04.79.56.29 1.14.39 1.74.3.81-.12 1.59-.66 2.33-1.61l-.02 1.41c-.42.5-.78.96-1.08 1.38-.3.42-.67.97-1.11 1.67-.22.33-.43.7-.62 1.11-.2.4-.34.71-.42.93-.08.22-.23.6-.44 1.15-.37.99-.47 1.88-.28 2.68.1.43.27.79.49 1.09.22.3.49.52.8.66.31.14.64.23.98.27.35.04.71.03 1.11-.03.49-.07.92-.22 1.31-.44.39-.21.71-.47.96-.76.26-.29.48-.63.66-1.02s.32-.78.41-1.16c.09-.38.16-.79.21-1.24s.06-.84.06-1.19l-.03-1.05-.02-.68c-.06-1.01-.07-1.7-.05-2.07.02-.37.13-.65.31-.82.3-.27.78-.71 1.45-1.3.04-.03.09-.07.15-.13.34-.35.74-.85 1.21-1.48.47-.64.77-1.19.93-1.65l-1.14-2.45zM26.33 109.855c-.02.246-.06.445-.122.6-.063.156-.16.243-.292.263-.146.02-.278-.014-.395-.106-.11-.092-.21-.203-.29-.332-.08-.13-.15-.26-.19-.394-.05-.135-.07-.232-.08-.293-.01-.1-.02-.267-.01-.5.01-.233.03-.512.05-.833.03-.324.06-.672.11-1.05.05-.377.1-.755.17-1.136s.15-.75.24-1.104c.09-.357.19-.673.3-.948l.06.564.08.723c.03.29.07.64.1 1.06.02.24.05.51.09.81s.08.6.12.92c.04.31.06.62.09.93.02.3.03.57.01.82zm1.473-9.31c-.066-.44-.12-.883-.158-1.332-.04-.45-.027-.947.036-1.495.07-.55.12-1.01.17-1.383s.14-.703.26-.988c.12-.287.28-.522.47-.708s.43-.3.72-.35c.26-.04.46 0 .63.11.17.11.29.26.38.45.09.18.14.39.17.61.02.22.03.41.01.58-.02.32-.12.78-.28 1.39-.28.73-.46 1.11-.56 1.14-.2.35-.44.68-.72 1.01-.29.32-.66.63-1.09.93zm11.385-3.902c.007.252-.013.573-.06.96-.05.39-.132.77-.248 1.146-.117.37-.273.7-.467.98s-.434.44-.72.49c-.177.02-.33 0-.46-.07-.13-.08-.24-.18-.332-.32-.09-.14-.16-.3-.22-.48-.05-.18-.09-.38-.12-.57-.05-.34-.06-.71-.03-1.1.03-.4.12-.86.26-1.4.14-.54.3-1 .47-1.38.17-.38.37-.72.6-1.03.23-.31.48-.57.76-.77.28-.21.58-.33.89-.38l-.29 3.89zm22.56-8.396l.056-1.034c.023-.424.05-.89.077-1.4l.09-1.63c.03-.575.08-1.142.15-1.7s.14-1.094.22-1.606c.08-.513.17-.97.27-1.368.11-.4.22-.72.36-.97.13-.25.28-.38.43-.4.13-.02.24 0 .33.08.09.07.16.16.22.26s.1.2.13.3c.03.1.04.16.05.19.05.55.04 1.1-.01 1.65-.06.55-.15 1.09-.27 1.64-.13.54-.28 1.08-.45 1.6-.18.53-.36 1.04-.55 1.55-.19.5-.38.99-.57 1.46s-.36.92-.5 1.36zm4.62 4.756c-.02.373-.07.736-.142 1.088-.073.36-.174.67-.305.96-.13.29-.29.53-.48.71-.19.19-.42.3-.68.34-.22.04-.45.09-.7.17-.24.08-.47.11-.7.1-.26-.01-.52-.04-.79-.08l-.03-.88-.03-.93c-.03-.92-.04-1.39-.05-1.41-.11-.15-.04-.62.19-1.4.12-.4.28-.74.48-1.01.2-.27.42-.48.68-.64.25-.15.52-.25.78-.29.3-.04.56-.04.77.01.21.05.38.14.51.25.13.12.24.26.3.43.07.17.12.35.15.55.05.29.08.62.09.98s.01.73-.01 1.1zm10.2-2.026c.008.253-.012.575-.06.962s-.13.77-.248 1.14c-.117.37-.273.7-.467.99-.193.28-.434.44-.72.49-.177.02-.33 0-.46-.07-.13-.08-.24-.18-.333-.32-.09-.14-.165-.3-.22-.48-.056-.18-.098-.37-.128-.57-.05-.34-.06-.71-.03-1.1.03-.4.116-.86.255-1.4.14-.54.294-1 .466-1.38.17-.38.37-.72.595-1.03.226-.31.477-.57.753-.77.28-.2.58-.33.89-.38l-.29 3.88zm22.14-.7c-.014.228-.065.435-.155.62-.09.186-.226.344-.407.475-.18.13-.422.22-.722.266-.248.035-.476.01-.686-.077-.21-.08-.4-.19-.567-.31-.1-.07-.18-.13-.27-.2l.1-.1-.12-.83 2.22-3.16c.06.12.13.26.2.43.08.17.13.42.14.75.02.33.05.6.11.82.06.21.11.42.14.64.04.24.05.48.04.71zm10.26-4.21c.006.252-.015.574-.063.962-.047.38-.13.77-.247 1.14-.116.37-.273.7-.466.98s-.434.44-.72.49c-.177.02-.33 0-.46-.07-.13-.08-.24-.18-.333-.32-.1-.14-.17-.3-.23-.48s-.1-.38-.13-.57c-.05-.34-.06-.7-.03-1.1.03-.4.11-.86.25-1.4.14-.54.29-1 .46-1.38.17-.38.37-.72.59-1.03.22-.31.47-.56.75-.76.27-.21.57-.33.89-.38l-.3 3.89zm22.117-3.33c.07.676.02 1.365-.148 2.07-.22.892-.59 1.377-1.114 1.457-.3.046-.568-.08-.803-.375-.36-.46-.542-1.19-.545-2.19 0-.47.27-1.39.81-2.79.495-1.31 1.19-2.03 2.084-2.16l-.29 3.98zm1.096 10.976c-.05.434-.1.782-.14 1.045-.04.263-.1.533-.16.812-.06.276-.13.492-.2.645-.07.152-.16.298-.26.436-.1.14-.22.24-.36.31-.14.07-.29.12-.48.15-.52.08-.7-.27-.56-1.04.17-.92.46-1.85.85-2.78.4-.93.84-1.63 1.32-2.09.01.11.02.36.03.77.02.4.02.74.03 1.01.01.27 0 .53-.04.76zM64.55 113.27l.075.654.03.253c.007.073.02.07.032.004l-.04-.27c-.092-.66-.124-.87-.097-.63z"/><path d="M82.002 107.387c.373.272.898.358 1.577.255.39-.06.72-.17.98-.333.26-.17.47-.36.62-.58.15-.23.25-.47.3-.73.04-.26.05-.53.01-.79-.05-.29-.14-.53-.27-.73-.14-.2-.3-.35-.5-.45s-.42-.17-.67-.19c-.25-.03-.51-.02-.78.02-.43.06-.78.19-1.05.37s-.48.38-.62.6c-.15.22-.24.45-.28.69-.05.24-.05.44-.03.62.08.54.31.94.68 1.22z"/><path d="M108.94 112.813c-.135.2-.28.396-.437.587-.157.193-.316.367-.477.524-.16.158-.325.29-.49.397-.165.11-.328.18-.49.2-.216.03-.372-.04-.468-.23-.096-.19-.17-.46-.224-.81-.063-.41-.076-.93-.04-1.55l.095-1.66c.02-.48.04-.96.05-1.42.01-.46-.02-.87-.07-1.24-.04-.24-.09-.43-.15-.56-.07-.13-.14-.23-.23-.3-.09-.06-.19-.1-.29-.11-.11 0-.22 0-.33.02-.09.01-.18.03-.26.05-.09.02-.18.04-.26.05-.1.02-.2.03-.3.03-.1 0-.2-.01-.3-.03-.1-.02-.19-.08-.26-.15l-.23-.24c-.08-.08-.18-.14-.29-.2-.11-.05-.26-.07-.44-.04-.54.08-1.05.27-1.53.58-.48.3-.93.68-1.33 1.14-.41.46-.77.97-1.08 1.55-.32.58-.59 1.24-.83 2-.23.76-.39 1.46-.46 2.09-.05.43-.05.85-.02 1.25-.11.17-.22.35-.33.52-.17.24-.33.46-.5.67-.17.2-.34.37-.5.5-.17.13-.33.21-.48.24-.29.05-.51.02-.66-.08s-.25-.3-.3-.58c-.05-.33-.02-.67.08-1.02s.24-.71.43-1.08c.18-.37.38-.74.6-1.11.22-.37.42-.74.6-1.1.18-.36.34-.78.49-1.26.14-.47.19-.87.14-1.19-.05-.33-.14-.62-.26-.87-.13-.26-.28-.47-.45-.63-.18-.17-.37-.29-.59-.36-.21-.07-.43-.09-.64-.06-.43.07-.8.18-1.13.36-.33.17-.6.36-.81.57-.14.14-.34.44-.6.91-.26.48-.52.93-.78 1.37-.26.44-.53.91-.79 1.39l-.73 1.33-.3-.14 1.06-2.28c.05-.13.15-.41.3-.85.15-.43.32-.96.51-1.58s.38-1.32.57-2.08c.19-.77.35-1.56.49-2.36.14-.8.23-1.6.28-2.38.05-.79.02-1.51-.07-2.17-.06-.37-.14-.71-.25-1.01s-.26-.56-.44-.76c-.19-.2-.42-.35-.69-.44-.28-.09-.61-.1-1-.04-.51.08-.95.25-1.35.52-.39.28-.74.62-1.04 1.03-.3.42-.56.88-.77 1.4s-.4 1.06-.54 1.62c-.15.56-.26 1.14-.33 1.73l-.21 1.68c-.07.53-.11 1.03-.12 1.5l-.04 1.18c-.01.94.01 1.89.05 2.87.04.98.1 1.92.17 2.81.07.89.15 1.71.23 2.45l.03.23c-.29.34-.58.67-.88 1-.31.33-.61.61-.92.85-.31.25-.61.39-.88.43-.24.04-.42-.04-.52-.23-.11-.19-.19-.46-.24-.81-.06-.36-.06-.76-.02-1.21.04-.45.07-.9.07-1.35.01-.45.06-1 .17-1.66.1-.65.17-1.18.21-1.6.04-.41.08-.77.11-1.1.03-.32.04-.56.01-.73-.03-.2-.11-.36-.24-.46-.13-.1-.36-.13-.68-.08-.17.03-.36.08-.57.15-.21.08-.41.18-.59.3s-.35.26-.49.43c-.15.18-.23.38-.24.58-.02.29-.11.91-.27 1.88-.14 1.17-.24 1.94-.3 2.28-.03.13-.05.58-.07 1.34-.1.08-.19.16-.29.24-.27.21-.56.41-.87.6-.31.19-.6.3-.85.34-.3.05-.57 0-.81-.13s-.45-.3-.63-.48c-.21-.21-.39-.46-.54-.75.07-.21.15-.45.25-.7.08-.22.18-.55.29-.99.11-.45.23-.83.36-1.17l.09-.26c.05-.16.1-.36.16-.58.05-.23.09-.47.13-.73.03-.26.03-.5 0-.71-.04-.29-.21-.5-.51-.64-.29-.14-.66-.18-1.1-.11-.42.06-.78.2-1.06.41-.28.21-.46.43-.51.66l-1.87 7.08-.17.03.06-6.88c-.04-.22-.16-.39-.36-.49-.2-.1-.47-.13-.81-.08-.4.06-.74.18-1.01.35-.27.17-.5.4-.7.69-.19.29-.36.64-.5 1.06-.13.41-.27.89-.41 1.44-.13.55-.28 1.25-.45 2.1-.16.85-.36 1.69-.58 2.53l-.15.03-.08-6.87c-.04-.23-.16-.39-.38-.49-.21-.11-.51-.13-.87-.08l-.31.02c-.31.05-.57.16-.77.33-.2.17-.37.37-.5.6-.13.23-.23.49-.3.76-.07.27-.11.53-.14.77-.01.09-.02.15-.03.19l.24 1.69.35 2.27c.26 1.73.6 3.02 1 3.87.4.84.9 1.22 1.48 1.13.35-.06.69-.25 1.02-.59.32-.34.62-.78.89-1.34s.5-1.21.7-1.95c.2-.74.34-1.55.44-2.43l.34.01c.07.42.13.84.21 1.28.08.44.15.86.24 1.28.08.41.17.8.26 1.17.09.37.19.69.28.96.1.27.2.49.3.64.11.15.22.22.32.2.31-.05.61-.2.88-.46.28-.25.54-.59.78-1.01.25-.41.47-.9.68-1.45.21-.55.4-1.16.57-1.81.08.47.23.87.43 1.18.21.31.46.55.76.72.3.17.63.28.99.32.37.04.75.04 1.14-.02.5-.07 1.01-.25 1.52-.54.17-.09.32-.2.48-.3.05.25.12.49.21.7.12.28.28.5.48.68.2.17.44.29.73.36s.63.08 1.04.02c.45-.07.91-.22 1.38-.46.47-.24.93-.51 1.37-.83.44-.32.85-.65 1.21-1 .05-.04.08-.08.13-.13.02.07.03.15.05.21.08.3.18.56.31.77.14.22.31.38.53.48.21.1.48.13.81.08.25-.03.45-.12.62-.27.17-.14.32-.37.47-.68l2.5-6.45c.18-.46.36-.8.54-1.01.18-.2.34-.32.47-.34.11-.02.2.02.27.12.08.09.12.22.15.39.01.09 0 .17-.03.26-.03.08-.08.18-.15.28-.07.1-.16.22-.26.35-.1.13-.21.28-.33.44-.28.51-.5.98-.65 1.41-.16.43-.27.82-.34 1.16-.07.35-.1.65-.11.92 0 .27.01.5.04.68.04.28.12.55.24.8s.29.47.52.65c.23.18.54.3.91.37.37.08.83.07 1.39-.01.42-.06.85-.19 1.3-.37.44-.18.86-.41 1.25-.68.29-.2.56-.42.81-.66.1.1.19.2.29.28.31.25.65.42 1.03.52.37.1.74.12 1.11.06.35-.05.69-.17 1.02-.33.33-.17.65-.37.94-.59.3-.23.56-.48.8-.74.23-.26.43-.51.58-.76.34.58.71 1.01 1.1 1.28.39.27.84.37 1.36.29.42-.06.83-.23 1.22-.51s.75-.59 1.07-.95c.33-.36.61-.73.86-1.11.25-.38.44-.71.58-.99l-.94-2.46c-.3.58-.61 1.11-.93 1.58zm-18.8-6.348l-.31 1.75-.33 1.887c-.11.637-.48 1.227-.573 1.768-.072-.95-.427-1.92-.427-2.908v-2.702c0-.475.292-.96.337-1.452.044-.494.222-.972.264-1.438.13-.53.31-1.013.41-1.444.1-.432.24-.802.36-1.11.12-.31.27-.555.43-.735.16-.18.37-.29.62-.32.17-.02.27.09.31.34.03.18.03.4.01.66s-.06.55-.11.86c-.05.31-.11.63-.18.97-.07.33-.14.66-.21.97l-.2.87c-.06.27-.11.5-.14.67-.06.39-.14.85-.23 1.4zm13.254 5.686c.007.26-.014.58-.062.97s-.13.77-.248 1.15c-.116.38-.272.71-.466.99s-.434.45-.72.49c-.177.03-.33.01-.46-.07-.13-.07-.24-.18-.332-.31-.092-.13-.166-.29-.22-.48-.057-.18-.1-.37-.13-.57-.05-.33-.06-.7-.03-1.1.03-.39.117-.86.256-1.39.14-.53.294-.99.466-1.37.17-.37.37-.72.595-1.02.225-.31.477-.56.753-.76.277-.2.573-.32.89-.37l-.292 3.89z"/></g><path fill="#BABABA" d="M141.865 124.15s-7.528-8.273-12.98-5.402c0 0-5.982 2.242-.07 12.557l.003-.002s2.775.24 3.086-2.345"/><path fill="#FFF" d="M159.655 170.892c.737 0 1.467-.022 2.19-.06.79 3.43 1.445 8.748-.93 11.96 0 0-13.69 10.244-9.562 20.866l41.835.918c9.763-9.48 14.31-28.567 1.31-66.54v.003c-3-14.07-17.052-24.91-35.007-24.91-19.61 0-35.43 12.93-35.43 28.88s15.99 28.88 35.6 28.88z"/><path fill="#D0D2D3" d="M152.845 203.69l13.48.308c.228-11.148 9.624-22.498 9.624-22.498h-.45v-15.955c-7 4.344-12.43 4.863-12.43 4.863l3.09 12.267c-11.93 2.76-13.26 15.298-13.32 21.015z"/><ellipse fill="#D0D2D3" cx="154.322" cy="142.65" rx="30.18" ry="22.895"/><ellipse fill="#FFF" cx="138.908" cy="137.507" rx="11.798" ry="11.628"/><ellipse fill="#FFF" cx="166.342" cy="137.769" rx="14.563" ry="14.468"/><path fill="#0071BC" d="M140.643 130.025c4.648 0 8.417 3.77 8.417 8.416 0 4.66-3.77 8.42-8.417 8.42s-8.418-3.76-8.418-8.42c0-4.64 3.77-8.41 8.418-8.41z"/><circle fill="#0F4481" cx="143.304" cy="137.733" r="4.323"/><circle fill="#FFF" cx="144.29" cy="137.733" r="2.298"/><circle fill="#FFF" cx="139.057" cy="137.138" r="1.118"/><path fill="#0071BC" d="M168.306 127.85c5.852 0 10.596 4.743 10.596 10.592 0 5.852-4.744 10.596-10.596 10.596-5.85 0-10.59-4.744-10.59-10.596 0-5.85 4.74-10.59 10.59-10.59z"/><circle fill="#0F4481" cx="171.657" cy="137.55" r="5.439"/><circle fill="#FFF" cx="172.898" cy="137.548" r="2.892"/><circle fill="#FFF" cx="166.313" cy="136.8" r="1.408"/><path fill="#FFF" d="M196.03 159.5s-13.242 16.004 1.032 16.89l1.033 3.136s-19.05-3.177-2.064-20.025z"/><path fill="#D0D2D3" d="M142.64 161.175s1.6 4.54 3.46 4.583c1.858.044 6.572.044 8.043-2.896 1.47-2.94-11.504-1.687-11.504-1.687z"/><path fill="#FFF" d="M189.34 164.604s-9.915 14.62 9.395 17.042l.802 2.914s-23.4-1.804-10.196-19.956zm8.155 18.707s.896 12.31-7.244 20.73l3.29-.52s6.9-7.55 6-18.95l-2.04-1.25zm-22.49 11.04l1.69.35-1.736 8.48-1.69-.34 1.27-6.21-1.37.91-.9-1.35m11.51 0l-.32 1.59-3.51-.71-.25 1.19.68.14c1.13.23 1.93.66 2.42 1.29.46.71.6 1.53.4 2.48-.15.72-.56 1.28-1.23 1.7-.68.42-1.43.54-2.25.37-.79-.15-1.43-.4-1.9-.74-.48-.34-.87-.72-1.17-1.18l1.36-.9c.28.53.84.9 1.65 1.11 1.01.2 1.64-.06 1.9-.78.07-.49-.03-.87-.31-1.16-.14-.22-.72-.45-1.75-.69l-1.8-.37.89-4.35 5.2 1.07-.05-.03z"/><path fill="#AA021B" d="M153.02 154.298s1.403 12.152-6.208 9.298c0 0-4.346 0-.54-9.472l1.73-.086s.345 2.423 5.017.26z"/><path fill="#6C6F71" d="M148.893 151.5c-.102.235-.18.515-.23.78-.05.273-.082.548-.092.823-.01.276.01.553.05.826.03.25.09.6.17.69.21.3.77.39 1.28.32.53-.07 1.05-.27 1.54-.53.98-.53 1.8-1.35 2.45-2.27.32-.47.61-.96.85-1.48s.45-1.06.62-1.6l.05-.09c.07-.13.21-.18.34-.12l.04.02 1.6 1.14-1.86-.63.42-.18c-.32 1.15-.78 2.29-1.48 3.29-.69 1-1.57 1.89-2.66 2.49-.54.3-1.13.53-1.77.62-.32.04-.65.05-.99-.03-.33-.08-.7-.26-.93-.6-.05-.09-.12-.23-.13-.29l-.03-.11c-.03-.1-.02-.09-.03-.15-.03-.15-.05-.31-.07-.46-.03-.31-.03-.63-.01-.94.02-.31.07-.62.15-.92.09-.31.18-.59.34-.89l.47.24z"/><path fill="#1D8FCD" d="M145.194 149.734s2.625-5.34 3.593-2.52c0 0 2.17-3.178 2.17 1.917 0 0-2.057 1.4-2.17 3.1 0 0-2.128-.85-3.594-2.5v.01z"/><path fill="#FFF" d="M148.787 150.933s.133-.72 1.147-1.44c0 0-.375-1.38-1.147 1.44z"/><path fill="#6C6F71" d="M142.92 149l1.767-.447c.104-.026.21.038.238.142.01.037.007.073-.004.107l-.01.054c-.13.3-.24.633-.33.96-.08.33-.15.663-.18.995-.05.67.04 1.34.37 1.87.09.13.18.25.29.36.12.11.23.21.37.29.13.09.27.17.42.23.15.07.3.12.46.17.15.06.32.08.48.12l.12.07c.34.03-.37.04.63.04v.78c-1-.01-.35-.03-.72-.08-.18-.03-.17-.06-.36-.1-.18-.05-.27-.08-.44-.15-.18-.06-.31-.13-.48-.22-.17-.08-.31-.18-.47-.3-.16-.11-.29-.24-.43-.39-.13-.15-.24-.31-.34-.48-.2-.34-.31-.72-.36-1.1-.05-.38-.04-.75.01-1.12.05-.36.13-.72.24-1.07.11-.35.24-.68.41-1.02l.22.31-1.82.03zm.38 13.84s.074.144.227.373c.08.11.172.25.292.396.11.14.25.3.41.46.16.15.34.33.55.48.1.07.21.15.32.23l.36.19c.24.13.51.23.78.33.29.06.56.18.86.19l.44.05c.15.01.3 0 .45.01h.44c.14-.01.29-.03.43-.05.28-.04.57-.03.83-.1l.74-.14c.23-.03.44-.1.62-.15.19-.05.35-.09.48-.12.27-.07.43-.1.43-.1l-.39.2c-.13.06-.28.13-.46.22-.18.08-.37.19-.6.26-.23.07-.48.16-.75.25-.26.09-.56.12-.86.19-.15.02-.3.06-.46.07-.16.01-.32.02-.48.02-.16 0-.33.02-.49.01l-.5-.06c-.34-.01-.66-.13-.98-.21-.16-.05-.31-.13-.46-.19-.15-.06-.3-.12-.43-.22l-.39-.26-.33-.3c-.11-.1-.2-.21-.29-.31-.09-.11-.18-.2-.24-.31-.14-.21-.26-.4-.34-.58-.09-.18-.15-.35-.19-.48-.09-.27-.1-.43-.1-.43z"/><path fill="#919496" d="M187.14 125.167l4.233 9.264s13.02-16.2-4.234-9.26z"/><path fill="#D0D2D3" d="M183.288 123.27s-.4 3.425 2.787 3.904c0 0 15.61-5.1 4.22 8.603 0 0-1.274 2.073 1.353 3.903 0 0 10.518-9.002 7.17-15.853 0 0-2.546-7.487-15.53-.558z"/><path fill="#FFE8AE" d="M167.737 176.584s-2.06-4.757 2.42-6.185c4.477-1.43 25.892-9.76 29.643-15.35 0 0 .984.73.66-.1 0 0-.214-1.37-.055-1.05.16.31 1.734 6.78 1.734 6.78s8.79 27.55 3.22 46.11c0 0-2.9 3.45-13.55-1.91v-4.16l-3.39 7.01s-10.04 6.66-29.41.47c0 0-9.8.95-11.98-1.43 0 0-2.06-8.8 11.25-22.12 0 0 3.39-3.93.97-10.47l3.75-.95s1.57 0 1.81 1.31.72 2.85.72 2.85.16.33.51.46c.59.22 1.7.19 1.66-1.3z"/><path fill="#EFD395" d="M205.364 206.797c.188-.62.356-1.25.51-1.886-3.934 1.56-10.31-1.08-10.31-1.08s-1.208-10.7-1.935-11.06c-.73-.35-2.42 4.05-2.42 4.05l-4.97 8.8c-7.87 5.48-29.16-.35-29.16-.35-3.24 1.29-7.25.23-10.11-.93-.14 1.61.06 2.48.06 2.48 2.17 2.38 11.98 1.43 11.98 1.43 19.36 6.18 29.4-.48 29.4-.48l3.38-7.01v4.16c10.65 5.35 13.55 1.91 13.55 1.91z"/><path fill="#D8B76C" d="M170.09 205.006s.972-.198.972-.95c0 0 1.13-.04.563-1.944 0 0 .767-.556.605-1.228 0 0 1.33-.555.2-2.023 0 0 1.25-.75.524-1.82 0 0 1.13-1.27.645-2.45 0 0 .84-.16.8-1.86 0 0 1.13-.63.89-2.1 0 0 1.37-1.23.24-2.65 0 0 1.21-.95.68-2.02 0 0 1.09-1.35.48-2.3 0 0 1.45-.79.93-1.86 0 0 1.05-1.07.84-1.62 0 0 1.13-.39.32-1.58 0 0 1.41-1.31.52-2.06 0 0-.89-.47-2.14.32s-4.64 8.13-4.64 8.13-2.5 19.99-2.46 20.07z"/><path fill="#D8B76C" d="M173.803 177.572s-7.905 17.127-6.937 23.47c0 0-6.614-1.903-11.938-1.427 0 0 2.26-9.198 7.744-20.937l-1.372.12s-8.79 14.79-9.76 22.402c0 0 16.293 1.425 18.552 3.806 0 0 1.937-18.872 8.23-29.022l-4.52 1.588z"/><path fill="#F4DAA2" d="M202.273 161.126c.008-.017.018-.027.027-.045l-1.558-5.88c.003-.02.01-.03.01-.06-.175-.66-.308-1.15-.348-1.23-.16-.31-.724-.23-.724-.23 1.31.39.118 1.39.118 1.39-3.75 5.59-25.166 13.92-29.644 15.35-.07.02-.127.05-.197.07l-4.4 1.33 2.163 4.97c-.057 1.13-.845 1.3-1.42 1.18-.08-.02-.16-.04-.23-.06-.354-.13-.514-.46-.514-.46s-.483-1.54-.726-2.85c-.02-.1-.05-.19-.087-.28l-.455-1.98s-2.736 1.29-4.154 1.69l-.306.08c-.084.02-.163.03-.23.03l.036.02-.37.1c.235.64.406 1.25.54 1.83h-.003c.08.34.14.67.19 1 0 .02.01.04.01.06.04.27.06.52.09.78l.03.23.1.01c.25.11.97.46 1.93.82.83.32 2.34.08 2.34.08-7.01 13.32-8.1 24.48-8.1 24.48l4.24.57c.31-8.86 9.04-25.85 9.04-25.85 13.69-2.14 22.56-7.59 27.55-11.77 2.21-1.59 3.99-3.33 5.04-5.22l.06-.08z"/><path fill="#D8B76C" d="M166.24 172.137l4.697 5.592-3.424-2.74m-3.51-2.02l-.74 6.03.832.15 1.116-1.52m-3.91 1.16s-.93-.04-.93.71c0 0-1 .91-.76 1.62 0 0-1.33.95-1.21 2.14 0 0-.6.27-.6 1.26 0 0-1.17.47-1.05 1.62 0 0-1.09.47-.88 2.02 0 0-1.33.91-1.21 2.38 0 0-.88.51-.48 1.38 0 0-1.13.44-.92 1.98 0 0-1.21.64-.92 2.18 0 0-1.01.79-.72 2.02 0 0-1.01.67-.32 1.74 0 0-.56.87.28 1.31l9.88-22.28"/><path fill="#FFB000" d="M58.556 170.197l5.83 3.35 6.063-2.9-1.39 6.58 4.63 4.867-6.68.714-3.2 5.91-2.75-6.132-6.62-1.22 4.98-4.506m-20.31-33.49l5.83 3.35 6.06-2.9-1.39 6.578 4.64 4.87-6.68.712-3.2 5.91-2.75-6.13-6.61-1.222 4.98-4.505m-10.14 20.78l5.83 3.35 6.06-2.9-1.38 6.58 4.63 4.87-6.68.712-3.2 5.908-2.75-6.13-6.61-1.222 4.98-4.5"/><path fill="#FFE8AE" d="M133.564 168.04l.046.143.187.535c.176.487.46 1.23.86 2.17.805 1.877 2.08 4.57 3.966 7.505.94 1.468 2.042 2.982 3.303 4.458.637.73 1.31 1.45 2.023 2.15.72.69 1.47 1.35 2.27 1.96.8.61 1.64 1.17 2.51 1.68.87.5 1.78.92 2.72 1.28 1.88.71 3.88 1.09 5.96 1.13 2.07.02 4.21-.26 6.32-.88 2.1-.6 4.17-1.46 6.13-2.47 1.95-1.02 3.81-2.15 5.52-3.35 1.7-1.2 3.29-2.41 4.71-3.61l1.04-.87.98-.87.93-.82.86-.8c1.12-1.03 2.06-1.99 2.84-2.76.78-.78 1.37-1.42 1.78-1.84l.63-.65 5.71 5.09-.64.73c-.42.47-1.01 1.18-1.81 2.05-.8.87-1.76 1.93-2.91 3.11l-.89.92-.97.95-1.03 1-1.11 1.02c-1.5 1.4-3.21 2.84-5.1 4.31-1.89 1.46-3.99 2.9-6.31 4.25-2.32 1.34-4.87 2.56-7.66 3.5-2.78.95-5.82 1.55-8.95 1.67-3.13.1-6.34-.34-9.31-1.3-1.48-.48-2.91-1.07-4.26-1.75-1.34-.69-2.61-1.45-3.79-2.26-1.18-.82-2.27-1.69-3.3-2.58-1.02-.89-1.96-1.81-2.84-2.73-1.74-1.85-3.22-3.7-4.48-5.46-1.27-1.76-2.3-3.44-3.17-4.94-.87-1.51-1.57-2.86-2.11-3.99-.55-1.13-.95-2.04-1.22-2.69l-.31-.77-.12-.31 10.91-3.82z"/><path fill="#EFD395" d="M133.448 176.7c1.23-.795 2.188-1.52 2.943-2.16-.72-1.393-1.3-2.643-1.73-3.652-.4-.94-.68-1.683-.86-2.17l-.19-.535-.04-.142-10.91 3.83.12.31.31.77c.27.65.68 1.56 1.22 2.69.36.75.79 1.59 1.29 2.51 2.32.23 5.44.14 7.87-1.43z"/><path fill="#D8B76C" d="M133.578 168.116c.226.704-2.313 2.278-5.395 3.27-3.084.99-5.234 1.305-5.46.6-.227-.704 1.556-2.164 4.64-3.153 3.082-.99 5.99-1.422 6.215-.717z"/><path fill="#FFF" d="M129.445 166.483c4.758-4.937-.57-14.742-7.35-14.598-3.415.138-7.01 3.715-2.553 5.53 2.49 1.012 8.396 1.887 6.005 6.26"/><path fill="#FFF" d="M125.517 159.997c.968 5.13-11.12 1.433-12.893-.97-1.903-2.454-3.79-7.956-6.838-3.087-1.62 2.854-2.215 5.818-.102 8.512 3.025 3.826 8.212 6.09 12.857 7.063 4.2.944 12.07-1.504 11.24-7.342"/><path fill="#D0D2D3" d="M105.125 157.254c.104.212.217.435.354.67.18.35.42.697.65 1.084.26.363.52.77.84 1.145l.47.582c.16.192.35.37.53.562.35.388.75.733 1.14 1.09.39.366.84.655 1.25.985.43.302.88.56 1.31.834.43.25.88.45 1.29.668.2.113.41.208.61.283l.58.244c.38.15.72.34 1.04.43.31.11.59.2.82.29.46.17.72.28.72.28s-.28-.01-.77-.06c-.25-.01-.54-.05-.88-.09-.35-.02-.72-.12-1.13-.22l-.64-.16c-.23-.05-.45-.12-.68-.21-.46-.17-.95-.33-1.43-.55-.48-.23-.99-.46-1.48-.73-.48-.3-.99-.56-1.45-.91-.47-.34-.95-.66-1.36-1.05-.21-.19-.44-.37-.64-.56l-.58-.59c-.39-.38-.71-.8-1.04-1.18-.1-.13-.2-.26-.3-.4.12-.79.38-1.59.73-2.39z"/><path fill="#FFF" d="M128.184 171.385c1.43-.46 2.74-1.046 3.715-1.612l-1.63-5.354-5.28 5.01.93 2.59c.67-.17 1.42-.38 2.25-.65z"/><path fill="#EFD395" d="M192.634 176.614s1.124 8.735-5.968 11.244c0 0 7.87-.778 5.968-11.244z"/><path fill="#1A1A1A" d="M116.438 199.27l-17.144.348.708 6.743c-.003.03-.014-.01-.014.02 0 1.25 3.572 2.73 7.98 2.77 5.97.05 7.814-1.48 7.96-1.64h.047l.463-8.23z"/><ellipse cx="107.858" cy="199.371" rx="8.579" ry="2.253"/><path fill="#1A1A1A" d="M112.444 198.588l-9.01-.025-.41-3.963 9.69-.024"/><ellipse fill="#1A1A1A" cx="107.861" cy="194.617" rx="4.844" ry="1.272"/><ellipse fill="#1A1A1A" cx="107.922" cy="198.531" rx="4.506" ry="1.271"/><ellipse cx="107.845" cy="194.551" rx="3.98" ry=".784"/><path d="M117.56 168.985c-.025.02-.05.042-.073.063-.1 1.096-.05 2.32-.05 2.32l-.415-1.91c-.07.06-.138.123-.206.186l.03 2.452-.93-1.59c-.105.103-.21.207-.313.314l.172 2.11-.544-1.725-.1.114.34 2.23-.65-1.89c-.49.54-.98 1.11-1.45 1.69l.2 2.28-.59-1.79c-.37.47-.72.94-1.07 1.43l.4 2.91-.75-2.41c-.73 1.07-1.4 2.17-1.97 3.25l.59 1.58-.86-1.05-.12.24.58 1.23-.73-.92c-.03.07-.07.14-.1.22l1.11 2.99-1.38-2.37c-.28.67-.52 1.33-.71 1.97l1.63 3.32-1.83-2.54c-.04.17-.07.34-.1.5-.8 4.25 1.65 7.11 1.65 7.11l15.08-23.47c-2.71 1.02-4.95-.46-6.77 1.11zm-3.773 19.938l3.865.008c.49-.45.982-.95 1.47-1.48l-2.906-.22 3.406-.34.107-.12-1.34-.29 1.6-.02.13-.16-1.53-.37 1.98-.19c.79-1.01 1.56-2.1 2.26-3.24l-3 .46 3.39-1.12c.28-.48.56-.97.82-1.47l-2.47.33 2.86-1.1c.3-.61.58-1.23.83-1.85l-2.67.32 2.9-.91v-.02l-2.49.37 2.75-1.07c.01-.02.02-.04.02-.06l-2.49-.19 2.98-1.41c.01-.02.02-.05.02-.08l-2.61.64s1.8-.79 2.75-1.52c.02-1.91-1.83-3.28-2.08-5.85l-14.49 23.84s2.78.86 5.83-1.28c.42-.29.85-.63 1.28-1l-3.24-.56z" fill="#C6C4B5"/><path fill="#9B9A8F" d="M106.997 195.316c.274.012.557.02.848.02.037 0 .073-.003.11-.003 3.032-4.856 15.256-24.517 16.39-27.578 0 0-12.533 18.434-17.348 27.56z"/><path fill="#706F69" d="M107.432 194.505c-.15.277-.296.548-.436.812.274.012.557.02.848.02.037 0 .073-.003.11-.003l.19-.303c-.283-.09-.53-.32-.712-.52z"/></svg>