<?xml version="1.0" encoding="utf-8"?>
<!-- Generator: Adobe Illustrator 16.0.0, SVG Export Plug-In . SVG Version: 6.00 Build 0)  -->
<!DOCTYPE svg PUBLIC "-//W3C//DTD SVG 1.1//EN" "http://www.w3.org/Graphics/SVG/1.1/DTD/svg11.dtd">
<svg version="1.1" id="Layer_1" xmlns="http://www.w3.org/2000/svg" xmlns:xlink="http://www.w3.org/1999/xlink" x="0px" y="0px"
	 width="250px" height="250px" viewBox="0 0 250 250" enable-background="new 0 0 250 250" xml:space="preserve">
<g id="Layer_3" display="none">
	
		<image display="inline" overflow="visible" enable-background="new    " width="1024" height="768" xlink:href="../06_June_2015/60432D60.jpg"  transform="matrix(-0.2474 0 0 0.2474 -189.3325 62)">
	</image>
</g>
<g id="Layer_2" display="none">
	<g display="inline">
		<g>
			<path fill="#FFFFFF" d="M128.377,150.443c0,0,0.3,0.324,0.859,0.934c0.578,0.611,1.449,1.508,2.604,2.596
				c1.155,1.088,2.588,2.375,4.305,3.729c1.715,1.346,3.723,2.771,5.985,3.991c1.138,0.584,2.333,1.16,3.569,1.546
				c1.234,0.434,2.502,0.653,3.705,0.672c1.219,0.045,2.324-0.226,3.328-0.765c0.524-0.205,0.972-0.646,1.461-0.989
				c0.431-0.482,0.92-0.869,1.303-1.479c1.66-2.215,2.818-5.354,3.582-8.682c0.227-0.816,0.371-1.684,0.521-2.547l0.229-1.297
				l0.061-0.324l0.049-0.307l0.088-0.662c0.211-1.709,0.379-3.604,0.551-5.461c0.671-7.5,1.428-15.148,2.936-22.363
				c0.764-3.611,1.702-7.125,3.051-10.482c0.674-1.678,1.461-3.319,2.445-4.896c0.987-1.571,2.152-3.098,3.694-4.412
				c1.511-1.315,3.425-2.384,5.438-2.863c2.008-0.503,3.979-0.45,5.606-0.147c3.285,0.644,5.479,1.923,7.157,2.95
				c1.682,1.052,2.816,1.977,3.6,2.604c0.76,0.638,1.162,0.979,1.162,0.979c2.111,1.78,2.383,4.937,0.604,7.05
				c-1.781,2.113-4.938,2.383-7.053,0.603c-0.048-0.041-0.096-0.083-0.143-0.125l-0.135-0.122c0,0-0.303-0.278-0.873-0.801
				c-0.57-0.502-1.42-1.245-2.504-1.984c-1.065-0.75-2.42-1.499-3.646-1.789c-0.607-0.146-1.137-0.166-1.635-0.077
				c-0.502,0.08-1.04,0.307-1.688,0.807c-1.303,0.978-2.759,3.098-3.909,5.688c-1.178,2.599-2.151,5.654-2.979,8.911
				c-1.658,6.542-2.711,13.86-3.688,21.308c-0.254,1.884-0.49,3.728-0.82,5.728l-0.129,0.729l-0.073,0.383l-0.08,0.363l-0.319,1.446
				c-0.212,0.968-0.416,1.927-0.72,2.886c-1.075,3.812-2.532,7.653-5.241,11.01c-0.617,0.854-1.484,1.595-2.281,2.332
				c-0.914,0.649-1.802,1.343-2.856,1.769c-2.03,0.97-4.304,1.338-6.308,1.187c-2.021-0.114-3.865-0.571-5.479-1.207
				c-1.646-0.599-3.076-1.362-4.414-2.129c-2.64-1.567-4.793-3.256-6.619-4.813c-1.819-1.563-3.306-3.014-4.495-4.23
				c-1.188-1.225-2.082-2.223-2.688-2.916c-0.604-0.715-0.927-1.096-0.927-1.096c-0.89-1.051-0.759-2.625,0.292-3.514
				c1.022-0.865,2.542-0.768,3.44,0.209L128.377,150.443z"/>
			<path fill="#D0D2D3" d="M149.189,170.059c0.574,0.043,1.172,0.031,1.775-0.012c-6.188-0.775-9.318-4.885-10.855-9.541
				c-1.45-0.912-2.781-1.875-3.965-2.805c-1.721-1.354-3.151-2.641-4.309-3.729c-1.15-1.092-2.021-1.984-2.604-2.6
				c-0.563-0.605-0.858-0.938-0.858-0.938l-0.075-0.082c-0.748-0.811-1.919-1.006-2.881-0.557c-0.469,0.76-0.949,1.539-1.429,2.318
				c0.014,0.547,0.197,1.092,0.578,1.543c0,0,0.322,0.381,0.927,1.094c0.604,0.695,1.496,1.693,2.688,2.916
				c1.189,1.221,2.676,2.67,4.495,4.232c1.826,1.559,3.981,3.244,6.619,4.813c1.338,0.766,2.771,1.531,4.414,2.131
				C145.324,169.484,147.17,169.941,149.189,170.059z"/>
			<path fill="#ED1F24" d="M93.474,127.055c0,0-29.75,2.25-22,26.5l14.75-0.25L93.474,127.055z"/>
			<path fill="#D3202E" d="M75.141,137.221c0,0,6.083-5.541,13.833-6.916l-3.156,15.836l-4.01,0.58L75.141,137.221z"/>
			<path fill="#D1A109" d="M131.161,178.18c0,0-0.642-0.73-1.563-0.641c-0.921,0.092-0.125,1.781-0.125,1.781L131.161,178.18z"/>
			<path fill="#D1A109" d="M77.349,176.305c0,0,2.063-1.5,3.563-0.25l0.188,2.5C81.099,178.555,77.411,177.305,77.349,176.305z"/>
			<path fill="#FFFFFF" d="M95.265,188.813l-0.167,3.656c0,0,10.25,3.877,32.166,0.074l0.055-3
				C127.318,189.543,98.848,190.9,95.265,188.813z"/>
			<polygon fill="#FFFFFF" points="90.661,177.566 92.286,185.68 102.349,186.631 103.599,177.008 			"/>
			<path fill="#FFFFFF" d="M72.265,186.91l-0.167,3.656c0,0,10.25,3.877,32.167,0.074l0.054-3
				C104.319,187.641,75.848,188.998,72.265,186.91z"/>
			<polyline fill="#7F7C7D" points="94.192,183.553 96.036,183.75 97.432,186.127 99.307,182.1 96.307,179.414 93.349,183.414 			
				"/>
			<path fill="#111010" d="M82.659,183.641c0,0-6.144,0.498-9.998,2.66c-3.854,2.164,21.784,3.396,31.658,1.34
				C104.319,187.641,100.966,182.748,82.659,183.641z"/>
			<polygon fill="#FFFFFF" points="113.661,179.469 115.286,187.582 125.349,188.533 126.6,178.91 			"/>
			<path fill="#231F20" d="M105.659,185.543c0,0-6.144,0.498-9.998,2.66c-3.854,2.164,21.784,3.395,31.657,1.34
				C127.318,189.543,123.966,184.65,105.659,185.543z"/>
			<circle fill="#F1C119" cx="112.807" cy="63.721" r="5.667"/>
			<path fill="#7C0505" d="M78.057,60.138c0,0,14.377-10.271,33.75,0.75c4.833,2.75,11.167,8.417,12.5,17.083L78.057,60.138z"/>
			<path fill="#FFFFFF" d="M63.601,70.289c7.074-5.907,16.953-9.586,27.895-9.586c11.792,0,22.354,4.268,29.493,11
				c10.222-4.445,12.324,1.705,12.324,1.705c0.592,1.211,0.705,2.494,0.53,3.778C111.533,87.047,81.169,89.9,63.601,70.289z"/>
			<path fill="#D0D2D3" d="M55.058,81.17c0,0-7.717-14.035,6.607-9.16C75.993,76.885,55.058,81.17,55.058,81.17z"/>
			<path fill="#919496" d="M57.761,77.299c0,0-6.867-6.931-1.93,2.346C60.767,88.926,57.761,77.299,57.761,77.299z"/>
			<path fill="#FFFFFF" d="M130.061,88.011c-2.609-15.426-18.875-27.309-38.563-27.309c-21.51,0-38.941,14.179-38.941,31.668
				c0,17.49,17.434,31.668,38.941,31.668c0.809,0,1.605-0.025,2.404-0.065c0.861,3.759,1.582,9.589-1.021,13.119
				c0,0-17.863,13.357-8.75,26.047c-0.012-0.094-2.346-22.236,14.699-26.18l-2.979-13.572c0,0,6.327-1.89,13.85-5.213v17.471
				c0,0-17.983,21-7.801,35.222C119.708,170.322,155.549,160.787,130.061,88.011z"/>
			<path fill="#D0D2D3" d="M109.699,135.645v-17.47c-7.523,3.323-13.809,5.213-13.809,5.213l2.937,13.572
				c-17.045,3.942-14.711,26.086-14.699,26.181c1.777,2.479,2.672,3.313,6.842,5.637c0,0,5.619,2.248,10.929,2.091
				C91.716,156.645,109.699,135.645,109.699,135.645z"/>
			<ellipse fill="#D0D2D3" cx="85.646" cy="93.069" rx="33.094" ry="25.105"/>
			<ellipse fill="#FFFFFF" cx="68.745" cy="87.429" rx="12.938" ry="12.752"/>
			<ellipse fill="#FFFFFF" cx="98.827" cy="87.718" rx="15.967" ry="15.862"/>
			<g>
				<circle fill="#0071BC" cx="101.728" cy="87.801" r="12.364"/>
				<path fill="#0F4481" d="M100.839,90.914c-2.297-2.653-2.008-6.661,0.645-8.957c2.65-2.293,6.658-2.006,8.957,0.647
					c2.293,2.651,2.005,6.661-0.646,8.956C107.142,93.855,103.132,93.565,100.839,90.914z"/>
				<path fill="#FFFFFF" d="M104.537,88.967c-1.222-1.411-1.064-3.54,0.344-4.759c1.407-1.219,3.539-1.068,4.76,0.342
					c1.219,1.41,1.063,3.542-0.346,4.762C107.884,90.531,105.757,90.375,104.537,88.967z"/>
				<circle fill="#FFFFFF" cx="99.399" cy="85.885" r="1.644"/>
			</g>
			<g>
				<circle fill="#0071BC" cx="70.571" cy="87.585" r="10.265"/>
				<path fill="#0F4481" d="M69.833,90.17c-1.904-2.204-1.666-5.531,0.535-7.437c2.199-1.904,5.529-1.666,7.438,0.537
					c1.902,2.201,1.664,5.53-0.539,7.436C75.067,92.611,71.737,92.371,69.833,90.17z"/>
				<path fill="#FFFFFF" d="M72.903,88.553c-1.014-1.171-0.885-2.938,0.285-3.951c1.168-1.011,2.938-0.887,3.951,0.284
					c1.012,1.171,0.883,2.939-0.287,3.954C75.683,89.851,73.915,89.722,72.903,88.553z"/>
				<circle fill="#FFFFFF" cx="68.638" cy="85.995" r="1.364"/>
			</g>
			<path fill="#BE1E2D" d="M77.911,104.96c0,0,1.594,5.406-0.25,5.688c0,0,7.25,4.438,8.438-5.031c0,0-5.563,0.688-6.938-1
				L77.911,104.96z"/>
			<path fill="#6C6F71" d="M78.73,104.997c0,0-0.014-0.027-0.038-0.073c-0.027-0.069-0.065-0.191-0.099-0.332
				c-0.045-0.163-0.029-0.254-0.038-0.39c-0.003-0.129-0.006-0.267-0.009-0.404c0.063-0.508,0.125-1.016,0.125-1.016l0.979,0.2
				c0,0-0.074,0.44-0.148,0.881c-0.001,0.102-0.003,0.204-0.004,0.299c-0.001,0.088-0.01,0.209,0.001,0.22
				c0.006,0.035-0.006,0.061-0.004,0.092c0.022,0.048,0.035,0.075,0.035,0.075L78.73,104.997z"/>
			<path fill="#6C6F71" d="M73.432,100.314c0.461,0.751,0.553,1.434,0.782,2.101c0.239,0.65,0.592,1.235,1.074,1.593
				c0.479,0.36,1.083,0.505,1.746,0.473c0.328-0.012,0.67-0.063,1.012-0.131c0.342-0.082,0.683-0.185,1.03-0.29l0.219-0.066
				l0.209,0.089c0.403,0.173,0.861,0.342,1.302,0.482c0.446,0.143,0.903,0.246,1.356,0.342c0.91,0.18,1.832,0.248,2.726,0.145
				c0.896-0.093,1.751-0.39,2.512-0.865c0.382-0.238,0.722-0.536,1.07-0.839c0.365-0.291,0.721-0.604,1.211-0.877
				c-0.043,0.55-0.244,1.052-0.553,1.478c-0.3,0.435-0.714,0.778-1.136,1.101c-0.856,0.641-1.895,1.047-2.949,1.191
				c-1.056,0.146-2.122,0.075-3.13-0.157c-0.507-0.109-0.998-0.271-1.479-0.454c-0.484-0.187-0.939-0.386-1.408-0.667l0.428,0.023
				c-0.359,0.174-0.734,0.321-1.125,0.441c-0.396,0.107-0.8,0.214-1.231,0.231c-0.844,0.077-1.818-0.146-2.533-0.742
				c-0.717-0.593-1.107-1.416-1.309-2.207C73.051,101.921,72.949,101.08,73.432,100.314z"/>
			<g>
				<path fill="#1D8FCD" d="M75.638,100.836c0,0,2.877-5.856,3.938-2.765c0,0,2.379-3.481,2.379,2.109c0,0-2.254,1.536-2.379,3.398
					C79.575,103.58,77.245,102.643,75.638,100.836z"/>
				<path fill="#FFFFFF" d="M79.575,102.152c0,0,0.146-0.791,1.262-1.578C80.837,100.574,80.425,99.058,79.575,102.152z"/>
			</g>
			<path fill="#231F20" d="M119.224,186.184c0,0,6.188,1.174,7.25-0.783c0,0,1.614,2.396,0.844,4.125
				c-0.063,0.145,0.002,0.021,0.002,0.021l-6.096-0.955L119.224,186.184z"/>
			<polyline fill="#7F7C7D" points="119.849,184.168 121.349,183.945 122.849,186.574 124.724,182.547 121.724,179.861 
				119.599,184.168 			"/>
			<path fill="#6C6F71" d="M75.974,110.616c0,0,0.044,0.146,0.123,0.403c0.061,0.227,0.147,0.551,0.251,0.939
				c0.055,0.182,0.104,0.385,0.21,0.573c0.085,0.198,0.22,0.38,0.358,0.566c0.163,0.166,0.313,0.355,0.523,0.49
				c0.196,0.149,0.407,0.285,0.647,0.385c0.453,0.23,0.958,0.397,1.45,0.489c0.48,0.13,0.968,0.132,1.367,0.205
				c0.408,0.038,0.755,0.032,0.995,0.051c0.241,0.016,0.379,0.024,0.379,0.024l0.042,0.003c0.275,0.018,0.483,0.255,0.466,0.53
				c-0.017,0.262-0.234,0.463-0.491,0.467c0,0-0.147,0.002-0.405,0.005c-0.259-0.002-0.626,0.006-1.071-0.02
				c-0.446-0.054-0.966-0.073-1.519-0.235c-0.277-0.067-0.563-0.126-0.846-0.25c-0.284-0.109-0.578-0.205-0.845-0.384
				c-0.278-0.146-0.533-0.339-0.769-0.551c-0.246-0.193-0.436-0.456-0.621-0.688c-0.164-0.257-0.313-0.507-0.403-0.77
				c-0.111-0.252-0.157-0.511-0.204-0.741c-0.03-0.235-0.034-0.451-0.002-0.641c0.024-0.189,0.079-0.349,0.13-0.476
				C75.857,110.735,75.974,110.616,75.974,110.616z"/>
			<path fill="#7C0505" d="M82.974,148.344c0,0-6.167,18.949-1.667,34.314c0,0,1.333,3.281,17.167,0.299l0.5-21.186
				C98.974,161.771,94.974,144.465,82.974,148.344z"/>
			<polygon fill="#D1A109" points="94.286,176.93 96.245,176.283 95.891,177.971 			"/>
			<path fill="#F1C119" d="M95.724,177.18c0,0-14.375,3.125-18.375-0.875c0,0,0.5,5.875,1.875,7s14,2.375,18.25,0
				S95.724,177.18,95.724,177.18z"/>
			<path fill="#930805" d="M91.307,159.385l-7-11.338l10.667-2.836l14.833-1.789l14.333-8.951l8.833,11.637
				c-4.166,12.232-2.834,39.982-2.834,39.982c-3.166,1.939-6.833,1.492-6.833,1.492l-1.667-5.818l-2.333,5.07
				c-14.667,0.896-22.333-2.236-22.333-2.236c-4.167-12.383-2.667-22.975-2.667-22.975L91.307,159.385z"/>
			<path fill="#7C0505" d="M90.724,160.221c0,0,14.667,8.75,31.167,4.584l6.916,3.75l1.834-11.834l-4.916-6.25
				C125.725,150.471,90.724,159.221,90.724,160.221z"/>
			<path fill="#820906" d="M81.182,59.471c33.125-2.5,43.479,17.25,43.479,17.25c-24.25-17.375-51.854-12.333-51.854-12.333
				S76.317,59.838,81.182,59.471z"/>
			<path fill="#A8170C" d="M101.599,126.68c0,0-2.125-5,2.5-6.5s26.75-10.25,30.625-16.125c0,0,0.332-0.583,0-1.458
				c0,0,0.457-0.083,0.625,0.25c0.166,0.333,1.791,7.125,1.791,7.125s9.084,28.959,3.334,48.459c0,0-3,3.625-14-2v-4.375l-3.5,7.375
				c0,0-10.375,7-30.375,0.5c0,0-10.125,1-12.375-1.5c0,0-2.125-9.25,11.625-23.25c0,0,3.5-4.125,1-11l3.875-1
				c0,0,1.625,0,1.875,1.375c0.25,1.375,0.75,3,0.75,3s0.167,0.346,0.531,0.48C100.488,128.27,101.63,128.242,101.599,126.68z"/>
			<path fill="#A8170C" d="M80.891,59.179c-3.757,0.284-5.832,2.332-7.365,4.262c4.44-0.636,28.729-3.223,50.529,12.03
				C121.587,70.828,109.258,57.038,80.891,59.179z"/>
			<path fill="#919496" d="M122.222,74.679l4.02,8.793C126.242,83.472,138.602,68.096,122.222,74.679z"/>
			<path fill="#D0D2D3" d="M118.566,72.877c0,0-0.379,3.253,2.646,3.706c0,0,14.82-4.84,4.008,8.166c0,0-1.209,1.967,1.285,3.705
				c0,0,9.981-8.543,6.806-15.047C133.311,73.408,130.891,66.299,118.566,72.877z"/>
			<path fill="#BF4340" d="M101.599,126.68c0.031,1.563-1.11,1.59-1.719,1.359c-0.364-0.139-0.531-0.484-0.531-0.484
				s-0.5-1.625-0.75-3c-0.042-0.232-0.133-0.414-0.239-0.574l-4.011,1.449l-0.945,0.673c0.167,0.746,0.268,1.451,0.31,2.112
				c0,0,0.865,0.439,2.094,0.918c0.859,0.339,2.417,0.084,2.417,0.084c-7.25,14-8.375,25.729-8.375,25.729l4.375,0.604
				c0.313-9.313,9.333-27.168,9.333-27.168c23.461-3.749,33.213-17.041,33.723-17.952c-0.088-0.293-0.141-0.465-0.141-0.465
				l-35.875,12.959C100.781,124.75,101.599,126.68,101.599,126.68z"/>
			<path fill="#7C0505" d="M111.474,138.055c0,0,11.667-5.584,13-15.417c0,0-3.5,0.333-5.083,4.167
				C118.735,128.391,116.473,134.137,111.474,138.055z"/>
			<path fill="#FEE86E" d="M140.252,154.592c-0.611,0.244-1.389,0.369-2.309,0.369c-2.133,0-4.438-0.66-5.746-1.105
				c-1.281-11.129-1.988-11.479-2.954-11.965l-0.515-0.229h-0.477c-1.135,0-2.313,0.416-4.226,5.426l-4.818,8.697
				c-1.979,1.219-5.197,1.855-9.353,1.855c-0.001,0,0,0-0.002,0c-8.681,0-18.623-2.732-18.722-2.764l-0.655-0.182l-0.63,0.254
				c-0.773,0.313-1.677,0.473-2.688,0.473c-1.783,0-3.944-0.5-6.249-1.447l-0.46-0.188c-0.606,2.977-0.229,4.643-0.229,4.643
				c2.25,2.5,12.375,1.5,12.375,1.5c20,6.5,30.375-0.5,30.375-0.5l3.5-7.375v4.375c11,5.625,14,2,14,2
				c0.41-1.396,0.738-2.852,1.01-4.332L140.252,154.592z"/>
			<path fill="#ED1F24" d="M110.974,138.221c0,0,7.75-1.332,11.167-12c0,0,3.333-5.583,6.083-2.333
				c2.75,3.25,5.25,27.833-15.5,33.583L110.974,138.221z"/>
			<path fill="#F1C119" d="M104.557,120.72c0,0-3.333,0.667-3.083,3.417l1.25,3.5c0,0,28.75-6.25,34.583-17.25l-1.957-7.542
				C135.35,102.845,134.391,110.638,104.557,120.72z"/>
			<path fill="#F1C119" d="M140.475,158.43c0.19-0.646,0.363-1.313,0.522-1.979c-4.062,1.631-10.647-1.146-10.647-1.146
				s-1.25-11.25-2-11.625s-2.5,4.25-2.5,4.25l-5.125,9.25c-8.125,5.75-30.125-0.375-30.125-0.375
				c-3.341,1.354-7.487,0.234-10.445-0.979c-0.139,1.688,0.07,2.604,0.07,2.604c2.25,2.5,12.375,1.5,12.375,1.5
				c20,6.5,30.375-0.5,30.375-0.5l3.5-7.375v4.375C137.475,162.055,140.475,158.43,140.475,158.43z"/>
			<path fill="#F1C119" d="M103.571,138.863c0,0,0.393-0.523,1.701-0.523c1.309,0,4.187,0.131,4.776-0.262
				c0,0,0.785-0.523,1.374,0.066c0.589,0.588,4.318,9.42,2.225,20.086c0,0-6.739,2.023-10.403,1.375"/>
			<path fill="#D1A311" d="M102.497,139.678c0.464-0.762,2.447-2.344,3.977,0.586c1.53,2.928,3.212,18.352-2.448,19.455
				c-5.66,1.105-3.961-11.961-3.824-12.428C100.381,146.68,101.433,141.422,102.497,139.678z"/>
			<path fill="#BF4340" d="M135.35,102.845c-0.168-0.333-0.625-0.25-0.625-0.25c0.332,0.875,0,1.458,0,1.458
				c-3.875,5.875-26,14.625-30.625,16.125s-2.5,6.5-2.5,6.5c0.031,1.563-1.11,1.59-1.719,1.359
				c-0.364-0.139-0.531-0.484-0.531-0.484s-2.313,2.375,0.375,2.625s4.006-1.998,3.563-2.875c-2.229-4.417,0-5.625,0-5.625
				c19.438-5.688,29.688-13.688,31.438-15.375c0.567-0.55,0.916-1.29,0.982-2.163C135.527,103.437,135.391,102.93,135.35,102.845z"
				/>
			<path fill="#9E7902" d="M102.811,140.357c0.367-0.707,1.933-2.174,3.141,0.545c1.208,2.717,2.537,17.033-1.933,18.061
				c-4.47,1.028-3.045-11.102-3.02-11.537C101.036,146.773,101.971,141.977,102.811,140.357z"/>
			<path fill="#F1C119" d="M96.724,123.429c-0.168,0-0.708,0.043-1.372,0.104l-2.503,0.646c0.546,1.5,0.794,2.862,0.867,4.086
				c1.113,0.047,4.123,0.094,5.633-0.711l-1.25-2.75C98.099,124.804,97.224,123.429,96.724,123.429z"/>
			<path fill="#FFFFFF" d="M107.021,146.133c-0.161-1.311-0.36-2.48-0.575-3.418c-1.145,0.018-2.097-0.098-2.097-0.098l0.438,3.625
				C105.571,146.428,106.335,146.342,107.021,146.133z"/>
			<path fill="#BF4340" d="M97.286,124.304c0.152,0.607,1.499,4.282,1.969,5.032c0.304,0.484,0.531-0.656,0.094-1.781
				c0,0-0.5-1.625-0.75-3c-0.25-1.375-1.875-1.375-1.875-1.375l-1.614,0.416C95.63,123.546,97.081,123.484,97.286,124.304z"/>
			<path fill="#FEE86E" d="M122.141,126.221c0,0,0.058-0.096,0.163-0.254c0.611-0.911,2.427-3.24,4.67-2.33
				c2.875,1.167,3.666,10.333,2.582,14.833c0,0,4.539-11.604-1.166-16.167C125.057,119.637,122.391,125.805,122.141,126.221z"/>
			<path fill="none" stroke="#540404" stroke-linecap="round" stroke-miterlimit="10" d="M96.411,130.367
				c0,0,2.063,2.563,7.625-0.438"/>
			<path fill="none" stroke="#540404" stroke-linecap="round" stroke-miterlimit="10" d="M94.849,134.367
				c0,0,2.063,2.563,7.625-0.438"/>
			<path fill="none" stroke="#540404" stroke-linecap="round" stroke-miterlimit="10" d="M93.286,138.43
				c0,0,1.813,3.188,7.375,0.188"/>
			<path fill="none" stroke="#540404" stroke-linecap="round" stroke-miterlimit="10" d="M91.661,142.742
				c0,0,1.813,3.188,7.375,0.188"/>
			<path fill="none" stroke="#540404" stroke-linecap="round" stroke-miterlimit="10" d="M89.974,147.264
				c0,0,1.75,3.666,7.313,0.666"/>
			<path fill="none" stroke="#540404" stroke-linecap="round" stroke-miterlimit="10" d="M89.224,151.514
				c0,0,1.813,3.541,7.375,0.541"/>
			<path fill="#F1C119" d="M90.479,154.695c0,0-0.797-0.645-0.881-0.354c-0.083,0.293-1.417,4.666-0.125,5.709
				c0,0,3.75,0.25,5,0.584c0,0-0.5-4.709-0.25-5.084S91.194,154.961,90.479,154.695z"/>
			<path fill="#D1A109" d="M94.495,177.408c0,0-1.458,1.709-2.375,7.168c0,0,3.375-0.166,4.417-0.979L94.495,177.408z"/>
			<path fill="#D0D2D3" d="M98.724,133.887c0,0,1.5-1.998,2.25-0.666c0.75,1.334-0.25,3.334,1.167,4.416
				c1.417,1.084-3.083-1.166-3.083-1.166L98.724,133.887z"/>
			<path fill="#D0D2D3" d="M87.583,133.887c0,0-1.5-1.998-2.25-0.666c-0.75,1.334,0.25,3.334-1.167,4.416
				c-1.417,1.084,3.083-1.166,3.083-1.166L87.583,133.887z"/>
			<path fill="#F1C119" d="M94.286,176.93c0,0,0.563,6.625,2.25,7.563c0,0,19.938,6.625,33.875,1.813c0,0,0.813-2.313,0.75-8.125
				C131.161,178.18,114.786,183.492,94.286,176.93z"/>
			<path fill="#111010" d="M99.757,146.141c0,0.857-0.505,1.559-1.129,1.559H86.946c-0.624,0-1.129-0.697-1.129-1.559v-23.02
				c0-0.859,0.505-1.555,1.129-1.555h11.682c0.624,0,1.129,0.695,1.129,1.555V146.141z"/>
			<path fill="#FFFFFF" d="M104.807,142.887c0,0-1-6.5-5.5-7c0,0-3.667-0.332-4.333,0.918c0,0-0.833,1.582,0.917,1.832
				s3.417,0.334,3.917,0.75c0,0-5.5-0.332-7,1.418c0,0-0.917,2.082,1.25,2.332s6.75-1.082,6.75,0.25
				c0,1.334,1.833,5.334,4.833,2.668C108.64,143.387,104.807,142.887,104.807,142.887z"/>
			<path fill="#F1C119" d="M82.071,138.113c0,0-0.394-0.523-1.701-0.523c-1.309,0-4.187,0.131-4.776-0.262
				c0,0-0.785-0.523-1.374,0.066c-0.589,0.588-4.318,9.42-2.225,20.086c0,0,6.739,2.023,10.403,1.375"/>
			<path fill="#D1A311" d="M83.146,138.928c-0.464-0.762-2.447-2.344-3.977,0.586c-1.53,2.928-3.212,18.352,2.448,19.455
				c5.66,1.105,3.961-11.961,3.824-12.428C85.261,145.93,84.209,140.672,83.146,138.928z"/>
			<path fill="#9E7902" d="M82.832,139.607c-0.367-0.707-1.933-2.174-3.141,0.545c-1.208,2.717-2.537,17.033,1.933,18.061
				c4.47,1.028,3.045-11.102,3.02-11.537C84.606,146.023,83.671,141.227,82.832,139.607z"/>
			<path fill="#FFFFFF" d="M78.621,145.383c0.161-1.311,0.36-2.48,0.575-3.418c1.144,0.018,2.097-0.098,2.097-0.098l-0.438,3.625
				C80.071,145.678,79.307,145.592,78.621,145.383z"/>
			<path fill="#FFFFFF" d="M80.835,142.137c0,0,1-6.5,5.5-7c0,0,3.667-0.332,4.333,0.918c0,0,0.833,1.582-0.917,1.832
				s-3.417,0.334-3.917,0.75c0,0,5.5-0.332,7,1.418c0,0,0.917,2.082-1.25,2.332s-6.75-1.082-6.75,0.25
				c0,1.334-1.833,5.334-4.833,2.668C77.002,142.637,80.835,142.137,80.835,142.137z"/>
			<circle fill="#443E3E" cx="92.578" cy="123.408" r="0.938"/>
			<path fill="#D0D2D3" d="M192.307,109.97c-7.166-0.167-13.562-17.848-21.332,0.167c-7.334,17,0.795,49.355-18.326,59.671
				c0.971-0.199,1.937-0.498,2.853-0.938c1.062-0.427,1.94-1.115,2.854-1.771c0.797-0.735,1.664-1.478,2.283-2.332
				c2.709-3.354,4.166-7.197,5.241-11.011c0.304-0.959,0.509-1.918,0.72-2.883l0.319-1.448l0.08-0.363l0.075-0.383l0.129-0.728
				c0.33-2,0.566-3.845,0.82-5.726c0.977-7.446,2.025-14.769,3.688-21.31c0.828-3.257,1.807-6.313,2.98-8.911
				c1.149-2.589,2.605-4.709,3.91-5.688c0.646-0.5,1.187-0.727,1.688-0.807c0.499-0.089,1.023-0.069,1.635,0.077
				c1.225,0.29,2.577,1.039,3.645,1.789c1.084,0.739,1.936,1.482,2.507,1.984c0.567,0.521,0.874,0.801,0.874,0.801l0.133,0.122
				c0.047,0.042,0.095,0.084,0.146,0.125c2.109,1.78,5.27,1.511,7.051-0.603c1.584-1.881,1.535-4.582,0.019-6.41
				C196.831,106.341,196.672,110.072,192.307,109.97z"/>
		</g>
		<g>
			<g>
				<path fill="#D0D2D3" d="M93.725,55.796c4.448,0,9.651,0.935,15.348,3.67c0.998-0.876,2.302-1.412,3.734-1.412
					c3.129,0,5.667,2.537,5.667,5.667c0,0.729-0.142,1.42-0.392,2.061c1.498,1.558,2.883,3.384,3.989,5.48
					c1.747-0.67,3.234-1.014,4.498-1.127c0.014-0.001,0.021-0.002,0.033-0.003c0.199-0.018,0.396-0.028,0.584-0.035
					c0.021-0.001,0.041-0.002,0.063-0.002c0.092-0.002,0.186-0.004,0.271-0.004c0.088,0,0.176,0.001,0.262,0.004
					c0.021,0,0.046,0.001,0.066,0.001c0.172,0.006,0.336,0.017,0.495,0.031c0.021,0.001,0.041,0.003,0.063,0.005
					c0.162,0.016,0.316,0.036,0.47,0.06c0.019,0.002,0.033,0.005,0.05,0.008c0.153,0.025,0.303,0.054,0.445,0.087
					c0.011,0.002,0.021,0.004,0.029,0.007c0.146,0.035,0.293,0.073,0.432,0.115c0.001,0,0.001,0,0.002,0
					c1.29,0.393,2.139,1.078,2.671,1.697c0.005,0.005,0.011,0.011,0.017,0.016c0.054,0.061,0.104,0.121,0.146,0.181
					c0.008,0.01,0.02,0.021,0.021,0.03c0.043,0.056,0.084,0.11,0.121,0.164c0.01,0.013,0.021,0.025,0.024,0.038
					c0.035,0.05,0.067,0.099,0.101,0.146c0.01,0.015,0.021,0.029,0.026,0.044c0.026,0.044,0.056,0.086,0.077,0.127
					c0.01,0.016,0.02,0.03,0.025,0.045c0.021,0.039,0.043,0.076,0.063,0.112c0.007,0.014,0.016,0.026,0.021,0.039
					c0.019,0.034,0.033,0.066,0.049,0.096c0.007,0.013,0.012,0.024,0.018,0.036c0.014,0.026,0.023,0.052,0.034,0.074
					c0.007,0.014,0.011,0.024,0.017,0.036c0.008,0.017,0.017,0.034,0.021,0.047c0.005,0.014,0.009,0.022,0.013,0.032
					c0.003,0.008,0.007,0.017,0.011,0.022c0.004,0.011,0.006,0.018,0.006,0.018c0.139,0.28,0.238,0.564,0.33,0.851
					c0.017,0.046,0.026,0.092,0.041,0.138c1.105,3.85-1.766,8.201-4.201,11.029c0.231,0.85,0.434,1.711,0.58,2.585
					c1.942,5.554,3.526,10.735,4.795,15.577c0.031-0.251,0.021-0.589-0.131-0.993c0,0,0.052-0.009,0.125-0.009
					c0.146,0,0.39,0.037,0.5,0.259c0.011,0.021,0.023,0.068,0.047,0.138c0.014,0.039,0.027,0.099,0.046,0.151
					c0.012,0.04,0.021,0.07,0.032,0.118c0.02,0.064,0.039,0.145,0.062,0.221c0.017,0.057,0.026,0.105,0.045,0.168
					c0.021,0.08,0.046,0.174,0.067,0.263c0.02,0.071,0.035,0.136,0.057,0.212c0.002,0.009,0.004,0.016,0.006,0.024l0,0
					c0.178,0.688,0.396,1.566,0.606,2.433l0.989,3.813c-0.01,0.015-0.021,0.03-0.025,0.045c0.001,0.001,0.001,0.001,0.001,0.002
					c1.065,3.578,7.924,27.821,3.772,45.748c-0.013,0.049-0.021,0.096-0.031,0.146c-0.165,0.711-0.348,1.414-0.549,2.104
					c0,0-0.553,0.647-2.016,0.971c0.528,0.367,1.063,0.733,1.628,1.093c0.657,0.414,1.331,0.817,2.041,1.2
					c1.14,0.586,2.333,1.16,3.569,1.548c1.232,0.434,2.502,0.651,3.706,0.672c0.088,0.003,0.174,0.005,0.261,0.005
					c1.115,0,2.135-0.271,3.064-0.771c0.527-0.205,0.974-0.646,1.463-0.987c0.431-0.481,0.921-0.869,1.303-1.479
					c1.66-2.216,2.816-5.354,3.582-8.683c0.229-0.815,0.371-1.685,0.521-2.547l0.229-1.297l0.061-0.324l0.049-0.308l0.09-0.662
					c0.209-1.709,0.377-3.604,0.549-5.461c0.671-7.5,1.428-15.147,2.938-22.362c0.762-3.611,1.7-7.125,3.049-10.482
					c0.675-1.678,1.461-3.319,2.445-4.896c0.987-1.571,2.152-3.098,3.694-4.412c1.511-1.315,3.425-2.384,5.438-2.863
					c1.063-0.266,2.113-0.376,3.11-0.376c0.888,0,1.729,0.087,2.496,0.229c3.285,0.644,5.479,1.923,7.158,2.95
					c1.681,1.052,2.815,1.977,3.599,2.604c0.76,0.638,1.162,0.979,1.162,0.979c0.23,0.196,0.436,0.414,0.621,0.64l0,0
					c0.146,0.179,0.271,0.371,0.393,0.563c0.043,0.068,0.092,0.133,0.129,0.202c0.101,0.178,0.178,0.362,0.252,0.548
					c0.041,0.098,0.082,0.194,0.113,0.294c0.061,0.174,0.104,0.349,0.143,0.528c0.023,0.123,0.051,0.245,0.064,0.369
					c0.021,0.165,0.037,0.329,0.047,0.496c0.006,0.145,0.002,0.289-0.008,0.434c-0.007,0.151-0.016,0.3-0.035,0.45
					c-0.021,0.166-0.063,0.328-0.103,0.491c-0.032,0.131-0.062,0.261-0.104,0.39c-0.063,0.188-0.146,0.371-0.23,0.553
					c-0.049,0.099-0.083,0.201-0.139,0.297c-0.151,0.276-0.332,0.542-0.543,0.793c-0.987,1.175-2.402,1.78-3.828,1.78
					c-1.139,0-2.281-0.387-3.224-1.177c-0.048-0.041-0.096-0.083-0.143-0.125l-0.134-0.122c0,0-0.305-0.278-0.873-0.801
					c-0.571-0.502-1.422-1.245-2.504-1.984c-1.066-0.75-2.42-1.499-3.646-1.789c-0.368-0.088-0.706-0.13-1.023-0.13
					c-0.211,0-0.412,0.018-0.607,0.053c-0.501,0.08-1.04,0.307-1.688,0.807c-1.303,0.978-2.759,3.098-3.91,5.688
					c-1.176,2.599-2.15,5.654-2.979,8.911c-1.658,6.542-2.711,13.86-3.688,21.308c-0.254,1.882-0.489,3.726-0.818,5.726
					l-0.131,0.728l-0.073,0.386l-0.08,0.36l-0.317,1.448c-0.211,0.966-0.416,1.925-0.722,2.884c-1.073,3.813-2.53,7.655-5.239,11.01
					c-0.619,0.854-1.486,1.597-2.283,2.332c-0.914,0.651-1.799,1.345-2.856,1.771c-0.463,0.224-0.938,0.406-1.421,0.563
					c-1.027,0.34-2.08,0.539-3.107,0.611c0,0,0,0-0.002,0c-0.188,0.016-0.369,0.02-0.558,0.022c-0.185,0.007-0.366,0.011-0.55,0.011
					c-0.229,0-0.449-0.006-0.67-0.021c-2.021-0.116-3.865-0.573-5.479-1.207c-1.646-0.6-3.075-1.363-4.414-2.129
					c-2.638-1.568-4.793-3.256-6.618-4.813c-0.775-0.668-1.479-1.311-2.141-1.925c-0.521,6.142-0.628,12.599-0.602,17.558
					c0.733,0.084,1.223,0.641,1.223,0.641c0.063,5.813-0.75,8.125-0.75,8.125c-0.611,0.211-1.236,0.395-1.868,0.563
					c-0.413,0.155-0.817,0.283-1.222,0.385c0.22,0.729,0.314,1.557-0.008,2.275c-0.002,0.006-0.002,0.004-0.004,0.01
					c0.002,0.002,0.006,0.008,0.006,0.008l-0.055,3c-7.213,1.252-13.16,1.672-17.896,1.672c-9.655,0-14.271-1.744-14.271-1.744
					l0.027-0.594c-3.278,0.313-6.193,0.437-8.754,0.437c-9.655,0-14.272-1.743-14.272-1.743l0.167-3.656
					c0.043,0.024,0.106,0.049,0.156,0.069c-0.234-0.213-0.187-0.438,0.24-0.681c2.526-1.416,6.025-2.114,8.144-2.434
					c-0.785-0.18-1.348-0.373-1.582-0.563c-1.375-1.125-1.875-7-1.875-7s1.026-0.744,2.158-0.744c0.147,0,0.297,0.014,0.446,0.041
					c-0.624-5.896-0.136-11.813,0.619-16.623c-3.711-0.039-8.575-1.498-8.575-1.498c-0.266-1.354-0.437-2.682-0.533-3.965
					c-5.088-15.989,6.139-22.397,14.354-24.908V123.7C68.932,121.693,55.564,110.88,53,97.175c-0.29-1.336-0.448-2.707-0.448-4.105
					c0-0.124,0.01-0.245,0.012-0.368c-0.001-0.111-0.01-0.22-0.01-0.332c0-3.945,0.895-7.719,2.515-11.203
					c-0.001,0-0.011,0.002-0.011,0.002s-5.603-10.189,1.6-10.189c1.25,0,2.888,0.308,5.007,1.029
					c0.003,0.001,0.005,0.002,0.008,0.003c3.277-3.172,7.306-5.81,11.863-7.74c-0.475,0.068-0.729,0.114-0.729,0.114
					s0.312-0.399,0.865-0.966c-0.046,0.006-0.104,0.014-0.147,0.02c1.268-1.596,2.922-3.256,5.575-3.95
					C81.223,58.281,86.47,55.795,93.725,55.796 M99.524,122.183c0.833-0.291,1.782-0.631,2.826-1.021
					c0.003-0.004,0.006-0.006,0.009-0.008c-1.048,0.391-2.001,0.731-2.839,1.022C99.521,122.179,99.523,122.181,99.524,122.183
					 M93.725,54.796c-7.453,0-12.902,2.58-15.007,3.763c-2.936,0.808-4.734,2.697-5.976,4.261l-0.871,1.097
					c-3.952,1.823-7.461,4.159-10.454,6.959c-1.861-0.593-3.462-0.895-4.76-0.895c-2.417,0-3.545,1.05-4.066,1.931
					c-1.673,2.828,0.559,7.729,1.358,9.301c-1.59,3.579-2.396,7.33-2.396,11.158c0,0.075,0.003,0.15,0.006,0.225l0.004,0.12
					l-0.005,0.099c-0.004,0.085-0.007,0.17-0.007,0.256c0,1.426,0.158,2.879,0.471,4.317c2.579,13.781,16.002,24.875,32.795,27.192
					v3.295c-4.779,1.563-10.79,4.577-13.768,10.254c-2.271,4.329-2.464,9.569-0.575,15.578c0.105,1.343,0.287,2.677,0.54,3.966
					l0.116,0.593l0.578,0.174c0.184,0.058,4.14,1.23,7.708,1.49c-0.751,5.25-0.94,10.184-0.563,14.688
					c-1.116,0.188-1.982,0.798-2.093,0.878l-0.458,0.332l0.048,0.563c0.109,1.274,0.521,5.123,1.651,6.979
					c-1.959,0.435-4.096,1.087-5.831,2.062c-0.077,0.043-0.15,0.088-0.217,0.137l-0.613-0.36l-0.076,1.661l-0.167,3.654
					l-0.033,0.728l0.679,0.256c0.196,0.074,4.9,1.81,14.626,1.81c2.455,0,5.042-0.11,7.704-0.334l-0.008,0.173l0.678,0.258
					c0.195,0.073,4.898,1.81,14.624,1.81c5.541,0,11.62-0.565,18.066-1.686l0.813-0.143l0.016-0.826l0.053-2.853
					c0.19-0.542,0.248-1.129,0.174-1.765c0.119-0.041,0.238-0.083,0.357-0.13c0.729-0.191,1.327-0.375,1.889-0.566l0.457-0.157
					l0.16-0.455c0.037-0.103,0.871-2.547,0.811-8.469l-0.004-0.367l-0.243-0.277c-0.056-0.063-0.401-0.444-0.978-0.717
					c-0.014-3.944,0.063-9.346,0.438-14.703c0.218,0.188,0.433,0.379,0.649,0.563c1.479,1.268,3.795,3.149,6.759,4.915
					c1.368,0.781,2.858,1.582,4.584,2.209c1.838,0.726,3.784,1.15,5.762,1.269c0.228,0.019,0.478,0.021,0.729,0.021
					c0.189,0,0.39-0.004,0.586-0.012l0.08-0.003c0.17-0.007,0.339-0.013,0.512-0.022c1.146-0.082,2.273-0.305,3.352-0.66
					c0.521-0.166,1.03-0.365,1.51-0.595c1.021-0.416,1.865-1.024,2.688-1.617l0.354-0.252l0.052-0.036l0.048-0.045l0.376-0.345
					c0.709-0.646,1.44-1.317,2.021-2.112c3.013-3.734,4.475-8.023,5.408-11.347c0.295-0.933,0.504-1.888,0.704-2.813l0.028-0.129
					l0.318-1.447l0.08-0.362l0.08-0.405l0.131-0.742c0.293-1.771,0.518-3.433,0.729-5.037l0.1-0.729
					c0.926-7.062,1.971-14.509,3.666-21.194c0.879-3.459,1.861-6.402,2.922-8.745c1.07-2.407,2.45-4.436,3.603-5.3
					c0.614-0.475,1.004-0.58,1.244-0.619c0.157-0.028,0.302-0.041,0.448-0.041c0.244,0,0.506,0.034,0.793,0.104
					c0.938,0.222,2.143,0.817,3.305,1.634c1.057,0.721,1.876,1.441,2.418,1.917l0.855,0.787l0.133,0.121
					c0.061,0.053,0.113,0.101,0.17,0.148c1.088,0.917,2.459,1.418,3.871,1.418c1.773,0,3.449-0.778,4.596-2.135
					c0.242-0.29,0.456-0.601,0.648-0.952c0.051-0.089,0.094-0.182,0.133-0.276l0.033-0.078c0.088-0.188,0.195-0.417,0.278-0.667
					c0.041-0.125,0.072-0.25,0.104-0.377l0.021-0.088c0.052-0.198,0.097-0.396,0.121-0.596c0.022-0.175,0.037-0.354,0.045-0.539
					c0.011-0.173,0.015-0.346,0.006-0.52c-0.009-0.198-0.024-0.394-0.053-0.59c-0.021-0.153-0.05-0.298-0.081-0.444
					c-0.051-0.238-0.104-0.44-0.168-0.632c-0.034-0.102-0.073-0.201-0.114-0.301l-0.022-0.057c-0.081-0.205-0.178-0.429-0.303-0.656
					c-0.035-0.063-0.076-0.128-0.119-0.192l-0.03-0.048c-0.138-0.221-0.285-0.452-0.476-0.68c-0.256-0.31-0.494-0.554-0.746-0.766
					l-1.162-0.979l-0.104-0.082c-0.771-0.62-1.938-1.558-3.609-2.604c-1.883-1.152-4.16-2.43-7.496-3.083
					c-0.894-0.165-1.793-0.248-2.688-0.248c-1.147,0-2.276,0.137-3.354,0.406c-2.049,0.487-4.133,1.581-5.854,3.079
					c-1.425,1.213-2.662,2.688-3.885,4.634c-0.938,1.501-1.767,3.155-2.527,5.056c-1.227,3.055-2.211,6.438-3.101,10.648
					c-1.521,7.271-2.292,15.095-2.953,22.479l-0.051,0.539c-0.15,1.65-0.309,3.359-0.494,4.891l-0.09,0.648l-0.045,0.285
					l-0.055,0.301l-0.229,1.299l-0.031,0.181c-0.142,0.804-0.271,1.563-0.47,2.274c-0.824,3.591-2.004,6.461-3.42,8.353
					l-0.023,0.033l-0.021,0.032c-0.196,0.318-0.445,0.568-0.733,0.858c-0.131,0.134-0.263,0.265-0.39,0.4
					c-0.131,0.095-0.258,0.192-0.385,0.294c-0.274,0.219-0.539,0.425-0.771,0.514l-0.06,0.022l-0.056,0.028
					c-0.813,0.438-1.661,0.646-2.594,0.646c-0.074,0-0.146-0.001-0.226-0.004c-1.142-0.02-2.313-0.229-3.412-0.616
					c-1.215-0.379-2.368-0.938-3.441-1.489c-0.584-0.313-1.214-0.688-1.965-1.158c-0.014-0.012-0.023-0.02-0.039-0.023
					c0.391-0.25,0.591-0.473,0.652-0.544l0.138-0.161l0.062-0.203c0.188-0.646,0.375-1.351,0.563-2.156l0.022-0.113
					c4.063-17.54-2.09-40.503-3.67-45.899l0.021-0.033l-0.094-0.348v-0.137l-0.049-0.048l-0.945-3.65
					c-0.209-0.857-0.432-1.738-0.604-2.43l-0.043-0.163l-0.021-0.078l-0.07-0.271l-0.021-0.078l-0.021-0.082l-0.024-0.104
					l-0.037-0.132l-0.037-0.133l-0.047-0.161c-0.049-0.156-0.092-0.256-0.114-0.302c-0.177-0.35-0.481-0.603-0.861-0.724
					c-1.211-4.447-2.67-9.115-4.346-13.906c-0.117-0.678-0.267-1.365-0.45-2.086c2.582-3.099,5.229-7.491,4.063-11.554
					c-0.014-0.047-0.028-0.107-0.049-0.166c-0.113-0.359-0.229-0.661-0.363-0.941l-0.006-0.015l-0.008-0.018l-0.021-0.049
					l-0.011-0.021l-0.047-0.104l-0.026-0.059l-0.074-0.151l-0.001-0.002l-0.023-0.046c-0.021-0.045-0.051-0.092-0.078-0.141
					l-0.049-0.085c-0.011-0.017-0.043-0.07-0.076-0.125l-0.877,0.484l0.847-0.535c-0.033-0.053-0.069-0.107-0.107-0.162
					l-0.012-0.018l-0.033-0.045c-0.039-0.056-0.08-0.113-0.125-0.171l-0.008-0.011l-0.049-0.06c-0.048-0.06-0.104-0.135-0.173-0.21
					c-0.797-0.923-1.854-1.605-3.071-1.992l-0.142-0.068h-0.088c-0.11-0.031-0.229-0.061-0.349-0.088l-0.022-0.006l-0.055-0.011
					c-0.117-0.028-0.287-0.061-0.463-0.09l-0.066-0.011c-0.157-0.025-0.332-0.047-0.515-0.065l-0.089-0.008
					c-0.158-0.015-0.345-0.026-0.535-0.033l-0.076-0.001c-0.092-0.003-0.188-0.004-0.285-0.004c-0.1,0-0.196,0.001-0.299,0.004
					l-0.084,0.003c-0.188,0.006-0.402,0.018-0.621,0.037c-1.241,0.111-2.566,0.411-3.979,0.895
					c-0.914-1.588-2.024-3.096-3.313-4.498c0.168-0.592,0.253-1.198,0.253-1.811c0-3.676-2.991-6.667-6.667-6.667
					c-1.391,0-2.741,0.438-3.868,1.243C103.913,55.974,98.798,54.796,93.725,54.796L93.725,54.796z"/>
			</g>
		</g>
	</g>
</g>
<g>
	<path opacity="0.15" d="M198.993,32.859H62.229v28.766h29.115c-0.711,0-1.414,0.037-2.11,0.094
		c-0.094,0.008-0.188,0.013-0.281,0.021c-0.662,0.062-1.313,0.153-1.959,0.264c-0.115,0.02-0.229,0.04-0.344,0.062
		c-0.64,0.12-1.271,0.262-1.893,0.429c-0.097,0.026-0.192,0.055-0.289,0.082c-0.643,0.181-1.277,0.381-1.898,0.611
		c-0.028,0.01-0.056,0.022-0.084,0.033c-0.63,0.235-1.247,0.497-1.853,0.78c-0.046,0.021-0.093,0.041-0.139,0.063
		c-0.597,0.284-1.179,0.593-1.749,0.921c-0.074,0.042-0.148,0.083-0.222,0.127c-0.561,0.33-1.107,0.682-1.64,1.053
		c-0.063,0.043-0.123,0.087-0.185,0.131c-0.547,0.389-1.08,0.795-1.593,1.225c-0.015,0.012-0.027,0.024-0.042,0.036
		c-1.072,0.901-2.066,1.892-2.977,2.957c-0.021,0.025-0.045,0.05-0.066,0.076c-0.442,0.522-0.863,1.063-1.263,1.621
		c-0.023,0.033-0.047,0.066-0.07,0.1c-0.404,0.568-0.785,1.153-1.142,1.754c-0.002,0.003-0.003,0.005-0.005,0.008
		c-1.093,1.848-1.956,3.847-2.554,5.958c-0.008,0.027-0.017,0.055-0.023,0.082c-0.193,0.69-0.358,1.391-0.493,2.104
		c-0.001,0.008-0.004,0.015-0.005,0.022c-0.192,0.001-0.399,0.006-0.606,0.01c-0.129,0.003-0.261,0.006-0.396,0.011
		c-0.23,0.007-0.463,0.015-0.71,0.027h-0.002c-0.056,0.002-0.118,0.007-0.175,0.01c-0.162,0.008-0.334,0.019-0.505,0.029
		c-0.247,0.015-0.502,0.031-0.766,0.051c-0.188,0.013-0.378,0.027-0.576,0.042c-0.304,0.024-0.623,0.053-0.948,0.082
		c-0.171,0.016-0.332,0.029-0.509,0.045c-0.491,0.048-1.008,0.102-1.547,0.161c-0.188,0.021-0.388,0.045-0.582,0.067
		c-0.395,0.045-0.799,0.093-1.218,0.145c-0.229,0.028-0.462,0.058-0.698,0.088c-0.441,0.057-0.898,0.117-1.367,0.181
		c-0.215,0.029-0.425,0.058-0.646,0.088c-0.699,0.097-1.419,0.2-2.178,0.313c0,0,1.151,6.686,1.219,15.85
		c0.035,4.993-0.248,10.717-1.219,16.504l10.317-2.053l2.668-0.531v0.81v39.387v11.463c0,4.211,1.033,8.182,2.854,11.676
		c0.528,1.014,1.122,1.988,1.777,2.914c0.529,0.748,1.11,1.453,1.715,2.139l-10.143,8.66v28.766h136.766v-28.766h-95.07
		l-0.011-0.068h0.413h1.632h14.942h48.518c13.986,0,25.321-11.338,25.321-25.32v-1.139v-46.479v-13.976v-16.48
		c0-6.294-2.303-12.047-6.104-16.477l10.358-8.844V32.859z"/>
	<g>
		<polygon fill="#CCCCCC" points="159.987,91.16 196.961,59.592 153.266,46.213 		"/>
		<rect x="60.196" y="30.827" fill="#F7F7F7" width="136.765" height="28.766"/>
		<polygon fill="#CCCCCC" points="97.168,156.807 60.195,188.377 103.892,201.756 		"/>
		<rect x="60.195" y="188.377" fill="#F7F7F7" width="136.766" height="28.764"/>
		<g>
			<g>
				<path fill="#FFB400" d="M167.385,59.592H89.312c-12.375,0-22.669,8.879-24.877,20.613c-0.517,0.003-1.086,0.019-1.713,0.048
					h-0.001l0,0c-2.707,0.13-6.487,0.523-11.714,1.304c0,0,1.151,6.686,1.219,15.85c0.035,4.993-0.248,10.718-1.219,16.504
					l10.317-2.053l0,0l2.667-0.531v0.81v39.386v11.465c0,4.211,1.034,8.18,2.854,11.674c0.528,1.016,1.122,1.988,1.777,2.914
					c3.272,4.631,8.057,8.113,13.639,9.73c2.239,0.646,4.603,1.002,7.05,1.002h12.981h1.632h14.942h48.518
					c13.986,0,25.321-11.338,25.321-25.32v-1.139v-46.48v-13.977v-16.48C192.706,70.929,181.371,59.592,167.385,59.592z"/>
				<g>
					<g>
						<g>
							<path fill="#FF7777" d="M155.192,100.821c0,0,20.89,6.874,37.514,0.572v-16.48c0-13.984-11.335-25.321-25.321-25.321H89.312
								c-13.984,0-25.32,11.336-25.32,25.321v11.488C80.308,92.132,109.385,89.418,155.192,100.821z"/>
						</g>
						<path fill="#FAC800" d="M186.383,95.164l3.203-2.646l-3.191-2.651l-14.392,1.614c-0.002-0.013-0.002-0.027-0.004-0.04
							l14.008-2.104l-1.083-1.786l-13.192,2.428c-0.373-1.541-1.011-2.978-1.866-4.258l11.252-7.752l-0.496-2.029l-11.639,8.6
							c-0.021-0.026-0.046-0.051-0.067-0.076l11.545-9.217l0.393-4.134l-4.13,0.382l-9.215,11.545
							c-0.008-0.007-0.016-0.014-0.023-0.021l8.59-11.625l-2.028-0.496l-7.729,11.216c-1.545-1.066-3.323-1.814-5.244-2.155
							l2.37-12.867l-1.786-1.083l-2.068,13.771c-0.04-0.003-0.079-0.007-0.121-0.01l1.588-14.137l-2.646-3.202l-2.652,3.19
							l1.592,14.195c-0.016,0.002-0.031,0.005-0.047,0.006l-2.074-13.813l-1.786,1.083l2.388,12.971
							c-1.684,0.369-3.247,1.053-4.627,1.989l-7.685-11.153l-2.029,0.496l8.539,11.557c-0.01,0.007-0.016,0.015-0.025,0.022
							l-9.162-11.478l-4.132-0.382l0.394,4.134l11.467,9.154c-0.023,0.027-0.045,0.053-0.067,0.079l-11.56-8.54l-0.497,2.029
							l11.16,7.688c-0.899,1.331-1.561,2.833-1.934,4.446l-13.861-2.552l-1.085,1.786l14.683,2.205l0.027-0.122
							c-0.006,0.046-0.014,0.092-0.018,0.138l-15.078-1.692l-3.191,2.651l3.202,2.646l14.979-1.681c0,0.03,0.003,0.061,0.003,0.09
							l-14.607,2.193l1.085,1.785l13.647-2.513c0.277,1.95,0.974,3.762,1.996,5.347l-11.43,7.873l0.497,2.029l11.792-8.713
							c0.02,0.024,0.038,0.05,0.058,0.074l-11.69,9.333l-0.392,4.133l4.131-0.381l9.309-11.663c0.006,0.006,0.014,0.011,0.021,0.016
							l-8.681,11.749l2.028,0.495l7.801-11.319c1.465,1.056,3.15,1.823,4.976,2.217l-2.431,13.207l1.786,1.084l2.111-14.056
							c0.012,0.001,0.024,0.003,0.038,0.004l-1.62,14.44l2.652,3.19l2.646-3.202l-1.613-14.382c0.037-0.003,0.073-0.006,0.11-0.009
							l2.104,14.014l1.786-1.084l-2.414-13.105c1.757-0.305,3.393-0.952,4.843-1.87l7.49,10.871l2.028-0.495l-8.306-11.243
							c0.014-0.01,0.025-0.019,0.038-0.03l8.917,11.171l4.132,0.381l-0.393-4.133l-11.116-8.874c0.027-0.03,0.054-0.062,0.079-0.092
							l11.196,8.272l0.496-2.029l-10.764-7.417c1.167-1.656,1.969-3.585,2.287-5.676l12.966,2.386l1.083-1.785l-13.91-2.089
							c0.002-0.039,0.002-0.078,0.004-0.116L186.383,95.164z"/>
						<path fill="#0F75BC" d="M63.991,112.138v39.386c3.517,0.441,7.033,0.791,10.55,0.791c27.432,0.705,56.271-5.625,82.997,2.113
							c-3.517,2.813-7.738,6.328-11.253,9.143c15.269-3.271,30.962-2.316,46.421-1.721v-46.48
							C149.8,114.735,106.896,111.358,63.991,112.138z"/>
						<path fill="#5E4330" d="M155.192,100.821c-45.808-11.402-74.885-8.688-91.201-4.42v15.737
							c42.905-0.779,85.809,2.598,128.715,3.232v-13.977C176.082,107.695,155.192,100.821,155.192,100.821z"/>
						<polygon fill="#7C5E28" points="157.538,154.428 156.58,182.561 140.775,167.674 148.512,153.605 						"/>
					</g>
					<path fill="#002E47" d="M69.022,81.324v12.001l-3.616-8.221l1.092-1.647C66.498,83.458,68.374,82.774,69.022,81.324z"/>
					<path fill="#0F75BC" d="M64.483,96.446c0,2.11-0.703,4.923,0,4.923c4.497,1.686,8.992,0.227,13.13-1.503V82.72
						c0,0-14.967,3.966-10.81,0.934c0,0,10.873-6.081-15.797-2.096c0,0,1.151,6.686,1.219,15.85
						C56.316,97.921,60.197,96.981,64.483,96.446z"/>
					<path fill="#EE6666" d="M64.483,101.37c-0.703,0,0-2.813,0-4.923c-4.286,0.535-8.167,1.475-12.258,0.961
						c0.035,4.993-0.248,10.718-1.219,16.504l13.304-2.648v5.081c0,0,5.18,3.782,13.303-3.252V99.866
						C73.476,101.597,68.98,103.056,64.483,101.37z"/>
					<g>
						<path fill="#C19A4D" d="M146.285,163.57c3.515-2.814,7.736-6.33,11.253-9.143c-26.727-7.738-55.565-1.408-82.997-2.113
							c-3.517,0-7.033-0.35-10.55-0.791v11.465c0,4.211,1.034,8.18,2.854,11.674l10.064-5.238l2.345,0.641l-10.632,7.512
							c3.272,4.631,8.057,8.113,13.639,9.73l17.492-11.625l14.957,0.523l-12.418,12.104h1.632l13.268-10.033l17.986-0.186
							l-16.312,10.219h48.518c13.986,0,25.321-11.338,25.321-25.32v-1.139C177.247,161.254,161.554,160.299,146.285,163.57z"/>
						<path fill="#493E11" d="M76.91,169.424l-10.064,5.238c0.528,1.016,1.122,1.988,1.777,2.914l10.632-7.512L76.91,169.424z"/>
						<path fill="#493E11" d="M102.293,188.309l12.418-12.104l-14.957-0.523l-17.492,11.625c2.239,0.646,4.603,1.002,7.05,1.002
							H102.293z"/>
						<polygon fill="#493E11" points="117.192,178.275 103.925,188.309 118.867,188.309 135.179,178.09 						"/>
					</g>
					<path fill="#FFB400" d="M76.91,83.083c0,0,1.172-0.99,2.345,0c0,0-0.484,1.582-0.551,1.582c-0.065,0-1.252-0.681-1.252-0.681
						L76.91,83.083z"/>
					<path fill="#969798" d="M72.748,125.986c0,0,1.056-1.084,4.865-2.037v3.197L72.748,125.986z"/>
					<path fill="#FFFFFF" d="M76.91,82.903c0,0-7.773,15.668-11.799,18.679c0,0,10.979,8.641,11.799,12.099V82.903z"/>
					<path fill="#FAC800" d="M78.78,99.673l0.412-0.481l-0.411-0.483l-1.863,0.295c0-0.002,0-0.004,0-0.006l1.814-0.386l-0.14-0.325
						l-1.706,0.443c-0.048-0.28-0.126-0.543-0.236-0.775l1.451-1.414l-0.064-0.37l-1.507,1.573
						c-0.002-0.004-0.005-0.009-0.008-0.014l1.494-1.686l0.051-0.753l-0.532,0.069l-1.192,2.111
						c-0.001-0.001-0.002-0.002-0.003-0.003l1.112-2.127l-0.262-0.09l-0.998,2.046c-0.199-0.194-0.428-0.328-0.676-0.39l0.305-2.349
						l-0.229-0.198l-0.269,2.52c-0.005,0-0.01-0.001-0.015-0.002l0.205-2.586l-0.341-0.583l-0.342,0.582l0.207,2.598
						c-0.002,0-0.004,0-0.006,0.001l-0.27-2.53l-0.23,0.198l0.309,2.366c-0.217,0.067-0.419,0.19-0.597,0.36l-0.991-2.033
						l-0.261,0.09l1.105,2.114c-0.001,0.001-0.002,0.003-0.004,0.004l-1.185-2.099l-0.533-0.069l0.051,0.753l1.484,1.674
						c-0.003,0.004-0.005,0.009-0.008,0.014l-1.497-1.562l-0.063,0.37l1.438,1.401c-0.115,0.242-0.197,0.517-0.246,0.81l-1.79-0.465
						l-0.14,0.325l1.892,0.403l0.019-0.116c-0.005,0.039-0.005,0.08-0.009,0.12l-1.951-0.309l-0.412,0.483l0.413,0.481l1.934-0.306
						c0,0.005,0.001,0.01,0.001,0.016l-1.886,0.401l0.14,0.324l1.766-0.459c0.036,0.355,0.121,0.686,0.253,0.975l-1.476,1.436
						l0.064,0.37l1.526-1.594c0.002,0.004,0.004,0.008,0.007,0.012l-1.512,1.707l-0.051,0.754l0.532-0.069l1.204-2.132
						c0.001,0.001,0.002,0.002,0.003,0.003l-1.124,2.147l0.263,0.089l1.006-2.067c0.189,0.193,0.405,0.335,0.64,0.407l-0.314,2.41
						l0.23,0.196l0.274-2.573c0.001,0,0.003,0,0.005,0l-0.21,2.643l0.342,0.582l0.341-0.583l-0.208-2.63
						c0.005,0,0.009-0.001,0.013-0.002l0.273,2.563l0.229-0.196l-0.311-2.395c0.226-0.056,0.436-0.172,0.622-0.339l0.968,1.984
						l0.262-0.089l-1.075-2.058c0.001-0.002,0.003-0.003,0.004-0.005l1.154,2.044l0.532,0.069l-0.05-0.754l-1.438-1.622
						c0.003-0.005,0.006-0.011,0.01-0.017l1.448,1.514l0.064-0.37l-1.39-1.353c0.15-0.302,0.249-0.654,0.29-1.034l1.679,0.436
						l0.14-0.324l-1.799-0.382c0-0.007,0.001-0.014,0.001-0.021L78.78,99.673z"/>
					<g>
						<polygon fill="#FFB400" points="77.868,85.344 77.483,85.998 77.676,86.731 77.085,86.515 76.576,87.016 76.594,86.228 
							76.087,85.805 76.688,85.535 76.886,84.772 77.239,85.393 						"/>
						<polygon fill="#FFB400" points="77.868,110.188 77.483,110.84 77.676,111.574 77.085,111.357 76.576,111.859 76.594,111.072 
							76.087,110.648 76.688,110.377 76.886,109.614 77.239,110.235 						"/>
					</g>
					<path fill="#FFCC77" d="M79.255,83.083v86.982c0,0-1.173,1.268-2.345,0V83.083C76.91,83.083,78.082,84.137,79.255,83.083z"/>
					<path fill="#FFFFFF" d="M95.784,129.344c0,0-7.913,10.359-16.529,0c0,0,5.626-1.465,0-4.528v1.17h-6.507
						c0,0-3.692,1.346,0.879,3.398c0,0-2.462,5.219,3.87,3.109c0,0,8.188,10.902,21.238,1.23"/>
					<path fill="#FFFFFF" d="M115.612,135.834c0,0,51.522,7.145,35.21-9.67c0,0-8.172,2.109-8.306-3.518
						c0,0-4.246-0.914-7.115-5.117c0.067-0.942,1.705-2.973,1.705-2.973l1.268,0.88l2.695-0.88c0,0,10.632,4.366,13.621,9.393
						c0,0,21.677,23.667-39.804,15.753"/>
					<path fill="#919496" d="M102.981,107.729c0,0,0.209,1.799-1.465,2.05c0,0,0.422,0.91-2.215,4.515c0,0,0.669,1.088-0.712,2.05
						c0,0-5.522-4.727-3.764-8.323C94.826,108.021,96.164,104.089,102.981,107.729z"/>
					<path fill="#FFFFFF" d="M104.424,141.82c0,0,24.051,25.387,16.445,33.842c0,0,15.232-3.641,14.508,1.729
						c0,0,0.072,1.359-1.348,0.852c0,0-0.264,1.289-3.05,0.703l-13.45-0.293c0,0-1.642-1.379,0.049-2.809
						c0,0,5.444-1.416-1.616-13.9c-7.061-12.482-11.519-20.111-11.519-20.111L104.424,141.82z"/>
					<path fill="#CCCCCC" d="M103.044,174.234c6.198-6.893,0.359-24.51,0.359-24.51l-1.523,0.762l-0.422,6.633
						c4.936,7.73-1.098,17.264-1.098,17.264c-1.376,1.166-0.039,2.287-0.039,2.287l10.963,0.238c2.27,0.479,2.484-0.572,2.484-0.572
						c1.158,0.414,1.099-0.693,1.099-0.693C115.457,171.266,103.044,174.234,103.044,174.234z"/>
					<path fill="#FFFFFF" d="M117.956,136.029c11.896,0,21.54-7.844,21.54-17.518s-9.646-17.517-21.539-17.517
						c-10.893,0-19.889,6.574-21.334,15.107l0.006-0.002c-14.102,40.256,5.726,45.53,15.572,45.827
						c0.137-0.189,0.137-0.188-0.001,0.004c2.938,0.088,6.047-1.156,6.047-1.156c2.305-1.285,2.799-1.748,3.781-3.119
						c0.006-0.051,0.008-0.053,0.002-0.002c5.042-7.016-4.838-14.404-4.838-14.404c-1.441-1.951-1.046-5.178-0.567-7.258
						C117.064,136.016,117.508,136.029,117.956,136.029z"/>
					<path fill="#CCCCCC" d="M82.67,132.471l-1.069,3.471c0,0,2.685,1.684,5.533,1.74v-3.738
						C87.134,133.943,85.088,134.029,82.67,132.471z"/>
					<path fill="#D0D2D3" d="M134.837,107.78c0,0,13.542-4.635,4.659,9.537C131.762,119.22,134.837,107.78,134.837,107.78z"/>
					<path fill="#CCCCCC" d="M92.021,144.596c0,0,0.225,1.691,0.357,2.059c0.284-0.049,4.812,0.213,4.266-5.809
						c0,0-0.474-9.158-3.744-11.502"/>
					<path fill="#FFFFFF" d="M86.863,124.751c7.125-5.317,7.795,17.545,7.795,17.545c-0.018,0.027-0.034,0.049-0.052,0.076
						c-3.022,4.453-4.814,1.096-5.221,0.168c-0.059-0.133-0.089-0.219-0.089-0.219c0.496-7.652,0.334-11.309-0.082-12.85
						c-0.761-2.801-2.356,1.412-2.356,1.412c-1.505,7.4-2.025,13.084-1.836,17.41c0.802,18.785,15.003,11.871,20.7,8.32
						c1.435-0.895,2.335-1.582,2.335-1.582s0.78-0.471,1.977-1.162l1.244,3.166l-0.16,0.119
						c-13.111,9.813-20.202,8.688-24.014,5.115c-3.806-3.568-4.348-9.568-4.348-9.568c-3.031-20.283,4.094-27.931,4.094-27.931
						L86.863,124.751z"/>
					<polygon fill="#CCCCCC" points="117.192,143.248 114.188,139.703 116.196,139.867 					"/>
					<path fill="#CCCCCC" d="M142.517,122.646c0,0,0.609-2.734,5.053,1.055C147.569,123.702,143.133,118.998,142.517,122.646z"/>
					<path fill="#CCCCCC" d="M140.088,116.344c0,0,2.381,0.631,5.723,3.137l-5.933-2.786L140.088,116.344z"/>
					<path fill="#CCCCCC" d="M138.891,117.442c0,0,0.364,1.527,0.272,4.158c0,0,0.702-1.848,0.333-4.283"/>
					<path opacity="0.4" d="M64.311,111.263l-0.106-10.269c0,0,0.899-11.142,0.106-15.626c0,0-0.026-1.406,3.371-2.285
						c0,0,4.334-2.755-2.58-2.874l-2.381,0.045l-1.396,31.605L64.311,111.263z"/>
					<polygon fill="#FFB400" points="69.222,101.148 68.761,101.791 69.03,102.535 68.276,102.295 67.652,102.782 67.646,101.991 
						66.991,101.547 67.742,101.298 67.961,100.538 68.432,101.174 					"/>
				</g>
			</g>
			<path fill="#FF7777" d="M80.898,55.299h-3.517l-7.625-12.834c-0.118-0.196-0.31-0.515-0.574-0.957
				c-0.117-0.196-0.3-0.505-0.545-0.928v14.719h-2.913v-20.09h4.003l7.036,11.834c0.059,0.098,0.484,0.818,1.279,2.163V35.209h2.855
				V55.299z"/>
			<path fill="#FF7777" d="M100.86,55.299h-3.871l-1.604-4.783h-7.728l-1.575,4.783h-3.091l6.668-20.09h4.459L100.86,55.299z
				 M94.414,47.616l-2.929-8.964l-2.929,8.964H94.414z"/>
			<path fill="#FF7777" d="M108.396,55.299h-3.886V38.314h-5.343v-3.105h14.571v3.105h-5.343V55.299z"/>
			<path fill="#FF7777" d="M119.405,55.299h-3.621v-20.09h3.621V55.299z"/>
			<path fill="#FF7777" d="M130.975,55.609c-2.67,0-4.748-1.001-6.233-3.003c-1.488-2.001-2.23-4.475-2.23-7.418
				c0-2.924,0.789-5.37,2.37-7.337c1.579-1.967,3.665-2.951,6.255-2.951c2.61,0,4.674,0.984,6.189,2.951
				c1.516,1.968,2.273,4.428,2.273,7.381c0,3.101-0.787,5.605-2.362,7.514C135.662,54.654,133.575,55.609,130.975,55.609z
				 M131.003,52.694c1.305,0,2.409-0.54,3.313-1.619c0.902-1.08,1.354-3.038,1.354-5.873c0-2.306-0.373-4.115-1.12-5.424
				c-0.745-1.31-1.903-1.965-3.473-1.965c-3.101,0-4.651,2.498-4.651,7.491c0,2.424,0.395,4.261,1.185,5.513
				C128.4,52.068,129.531,52.694,131.003,52.694z"/>
			<path fill="#FF7777" d="M157.894,55.299h-3.517l-7.625-12.834c-0.117-0.196-0.308-0.515-0.574-0.957
				c-0.117-0.196-0.3-0.505-0.544-0.928v14.719h-2.915v-20.09h4.003l7.036,11.834c0.06,0.098,0.486,0.818,1.28,2.163V35.209h2.855
				V55.299z"/>
			<path fill="#FF7777" d="M177.856,55.299h-3.87l-1.606-4.783h-7.727l-1.573,4.783h-3.093l6.667-20.09h4.462L177.856,55.299z
				 M171.41,47.616l-2.93-8.964l-2.93,8.964H171.41z"/>
			<path fill="#FF7777" d="M192.368,55.299h-12.362v-20.09h3.811v16.809h8.552V55.299z"/>
			<path fill="#C19A4D" d="M76.788,212.549h-2.88v-8.631h-6.098v8.631h-2.88V192.68h2.88v8.168h6.098v-8.168h2.88V212.549z"/>
			<path fill="#C19A4D" d="M90.474,212.549H80.091V192.68h10.277v2.955h-7.397v5.387h5.946v2.881h-5.946v5.561h7.503V212.549z"/>
			<path fill="#C19A4D" d="M105.295,212.549h-3.044l-2.48-8.164H95.72v8.164h-2.879V192.68h6.93c1.927,0,3.343,0.543,4.248,1.625
				c0.906,1.08,1.357,2.482,1.357,4.197c0,2.555-0.96,4.311-2.879,5.271L105.295,212.549z M95.72,201.516h3.582
				c1.037,0,1.81-0.27,2.317-0.814s0.761-1.291,0.761-2.242c0-0.873-0.25-1.578-0.749-2.117c-0.499-0.537-1.198-0.809-2.095-0.809
				H95.72V201.516z"/>
			<path fill="#C19A4D" d="M113.815,212.855c-2.122,0-3.775-0.99-4.957-2.969c-1.183-1.98-1.773-4.424-1.773-7.336
				c0-2.893,0.628-5.313,1.884-7.256c1.258-1.947,2.915-2.92,4.976-2.92c2.075,0,3.717,0.973,4.922,2.92
				c1.206,1.943,1.809,4.377,1.809,7.299c0,3.066-0.626,5.543-1.878,7.43C117.544,211.912,115.883,212.855,113.815,212.855z
				 M113.839,209.973c1.038,0,1.916-0.533,2.634-1.602c0.719-1.066,1.076-3.002,1.076-5.807c0-2.281-0.296-4.068-0.889-5.363
				c-0.594-1.297-1.515-1.945-2.763-1.945c-2.466,0-3.698,2.471-3.698,7.41c0,2.396,0.313,4.213,0.941,5.451
				C111.77,209.354,112.669,209.973,113.839,209.973z"/>
			<path fill="#C19A4D" d="M133.603,212.549h-10.384V192.68h10.277v2.955h-7.397v5.387h5.947v2.881h-5.947v5.561h7.504V212.549z"/>
			<path fill="#C19A4D" d="M134.646,207.76l2.799-0.742c0.335,1.971,1.622,2.955,3.862,2.955c1.021,0,1.808-0.252,2.357-0.756
				c0.55-0.506,0.824-1.131,0.824-1.877c0-0.545-0.123-1.049-0.373-1.508c-0.248-0.461-0.784-0.822-1.604-1.084l-3.056-0.99
				c-1.046-0.34-1.817-0.727-2.317-1.158c-0.499-0.432-0.899-1.039-1.199-1.828c-0.301-0.783-0.45-1.623-0.45-2.516
				c0-1.775,0.53-3.201,1.592-4.273c1.06-1.07,2.418-1.607,4.072-1.607c1.375,0,2.601,0.373,3.682,1.121
				c1.082,0.748,1.769,1.805,2.066,3.174l-2.741,0.844c-0.42-1.504-1.403-2.258-2.948-2.258c-0.897,0-1.582,0.234-2.053,0.701
				c-0.473,0.465-0.709,1.057-0.709,1.775c0,1.135,0.741,1.93,2.224,2.385l2.716,0.846c1.646,0.516,2.75,1.273,3.313,2.277
				c0.562,1.006,0.842,2.113,0.842,3.328c0,1.949-0.592,3.484-1.772,4.605c-1.184,1.121-2.716,1.682-4.596,1.682
				c-1.583,0-2.971-0.414-4.16-1.236C135.826,210.793,135.037,209.506,134.646,207.76z"/>
			<path fill="#C19A4D" d="M155.927,212.549V192.68h5.889c2.178,0,3.924,0.959,5.244,2.877c1.317,1.916,1.977,4.281,1.977,7.096
				c0,2.813-0.677,5.166-2.036,7.059c-1.357,1.893-3.301,2.838-5.829,2.838H155.927z M158.888,209.623h2.4
				c1.288,0,2.379-0.602,3.276-1.805c0.899-1.203,1.348-2.994,1.348-5.371c0-1.941-0.394-3.582-1.177-4.926
				c-0.786-1.346-1.82-2.018-3.108-2.018h-2.739V209.623z"/>
			<path fill="#C19A4D" d="M183.566,212.549h-3.079l-1.275-4.73h-6.146l-1.251,4.73h-2.459l5.304-19.869h3.546L183.566,212.549z
				 M178.439,204.951l-2.33-8.863l-2.33,8.863H178.439z"/>
			<path fill="#C19A4D" d="M190.396,212.549h-3.055v-8.383l-5.441-11.486h3.486l3.793,8.195l3.63-8.195h2.763l-5.176,11.486V212.549
				z"/>
		</g>
	</g>
</g>
</svg>
