<svg xmlns="http://www.w3.org/2000/svg" width="250" height="250" viewBox="0 0 250 250"><path opacity=".15" d="M198.993 32.86H62.23v28.765h29.114c-.71 0-1.414.037-2.11.094-.094 0-.188.01-.28.02-.663.06-1.314.15-1.96.26l-.344.06c-.64.12-1.27.26-1.893.43-.097.02-.192.05-.29.08-.642.18-1.276.38-1.897.61l-.084.03c-.63.23-1.247.49-1.853.78l-.14.06c-.596.28-1.178.59-1.748.92-.074.04-.148.08-.222.13-.56.33-1.107.68-1.64 1.05-.063.04-.123.08-.185.13-.547.39-1.08.79-1.593 1.22l-.042.03c-1.072.9-2.066 1.89-2.977 2.95l-.066.07c-.442.52-.863 1.06-1.263 1.62l-.07.1c-.404.57-.785 1.15-1.142 1.75h-.005c-1.093 1.85-1.956 3.84-2.554 5.96-.008.02-.017.05-.023.08-.193.69-.358 1.39-.493 2.1 0 0-.004.01-.005.02-.192 0-.4 0-.606.01l-.4.01c-.23 0-.47.01-.71.02-.06 0-.12 0-.18.01l-.51.03c-.25.01-.5.03-.77.05l-.58.04c-.31.02-.63.05-.95.08l-.51.04-1.55.16-.58.07c-.4.04-.8.09-1.22.14-.23.02-.46.05-.7.08l-1.37.18-.65.09c-.7.09-1.42.2-2.18.31 0 0 1.15 6.68 1.22 15.85.03 4.99-.25 10.71-1.22 16.5l10.32-2.05 2.66-.53V165c0 4.21 1.03 8.18 2.85 11.675.52 1.012 1.12 1.986 1.77 2.912.53.746 1.11 1.45 1.71 2.137l-10.14 8.67v28.767h136.77V190.4H103.9l-.01-.068h65.51c13.985 0 25.32-11.338 25.32-25.32v-78.07c0-6.295-2.3-12.048-6.104-16.478l10.36-8.846V32.86z"/><path fill="#CCC" d="M159.987 91.16l36.974-31.568-43.69-13.38"/><path fill="#F7F7F7" d="M60.196 30.827H196.96v28.766H60.197z"/><path fill="#CCC" d="M97.168 156.807l-36.973 31.57 43.697 13.38"/><path fill="#F7F7F7" d="M60.195 188.377H196.96v28.764H60.196z"/><path fill="#FFB400" d="M167.385 59.592H89.312c-12.375 0-22.67 8.88-24.877 20.613-.517.003-1.086.02-1.713.048-2.708.13-6.488.523-11.715 1.304 0 0 1.15 6.686 1.22 15.85.034 4.993-.25 10.718-1.22 16.504l10.317-2.05 2.667-.53v51.66c0 4.21 1.04 8.18 2.86 11.68.53 1.02 1.12 1.99 1.78 2.92 3.27 4.63 8.06 8.12 13.64 9.73 2.24.65 4.6 1 7.05 1h78.07c13.99 0 25.32-11.34 25.32-25.32V84.91c0-13.983-11.33-25.32-25.32-25.32z"/><path fill="#F77" d="M155.192 100.82s20.89 6.875 37.514.573v-16.48c0-13.984-11.335-25.32-25.32-25.32H89.31c-13.984 0-25.32 11.335-25.32 25.32V96.4c16.316-4.268 45.393-6.982 91.2 4.42z"/><path fill="#FAC800" d="M186.383 95.164l3.203-2.646-3.19-2.65-14.393 1.613-.004-.04 14-2.1-1.09-1.78-13.19 2.43c-.38-1.54-1.01-2.98-1.87-4.26l11.25-7.75-.5-2.03-11.64 8.6-.07-.07 11.54-9.21.39-4.13-4.13.38-9.22 11.55-.03-.02 8.59-11.62-2.03-.5-7.73 11.22c-1.55-1.07-3.32-1.81-5.25-2.15l2.37-12.87-1.78-1.08-2.07 13.77-.12-.01 1.59-14.13-2.65-3.2-2.65 3.19 1.59 14.2c-.02 0-.03.01-.05.01l-2.05-13.84-1.78 1.08 2.39 12.97c-1.69.37-3.25 1.06-4.63 1.99l-7.66-11.18-2.03.5 8.54 11.56-.03.02-9.16-11.48-4.13-.38.39 4.14 11.46 9.16-.07.08-11.56-8.54-.5 2.03 11.16 7.69c-.9 1.33-1.57 2.84-1.94 4.45l-13.85-2.56-1.09 1.79 14.68 2.21.02-.12-.02.14-15.08-1.69-3.19 2.65 3.2 2.65 14.98-1.68v.09l-14.61 2.19 1.08 1.79 13.64-2.51c.28 1.95.97 3.76 1.99 5.35l-11.4 7.85.49 2.03 11.79-8.71.05.08-11.68 9.33-.39 4.14 4.13-.38 9.31-11.66.02.02-8.68 11.75 2.03.49 7.8-11.32c1.46 1.05 3.15 1.82 4.97 2.22l-2.43 13.21 1.78 1.08 2.11-14.06h.04l-1.62 14.44 2.65 3.19 2.65-3.2-1.61-14.39.11-.01 2.11 14.01 1.79-1.08-2.41-13.1c1.76-.31 3.39-.95 4.84-1.87l7.49 10.87 2.03-.5-8.3-11.25.04-.03 8.92 11.17 4.13.38-.39-4.14-11.11-8.87.08-.1 11.19 8.27.5-2.03-10.76-7.42c1.17-1.66 1.97-3.59 2.29-5.68l12.97 2.39 1.1-1.8-13.91-2.09v-.11l14.28 1.61z"/><path fill="#0F75BC" d="M63.99 112.138v39.386c3.518.44 7.034.79 10.55.79 27.433.706 56.272-5.624 82.998 2.114-3.517 2.813-7.738 6.328-11.253 9.143 15.27-3.27 30.962-2.31 46.42-1.72v-46.48c-42.905-.63-85.81-4.01-128.714-3.23z"/><path fill="#5E4330" d="M155.192 100.82c-45.808-11.4-74.885-8.687-91.2-4.42v15.738c42.904-.78 85.808 2.598 128.714 3.232v-13.977c-16.624 6.302-37.514-.572-37.514-.572z"/><path fill="#7C5E28" d="M157.538 154.428l-.958 28.133-15.805-14.88 7.737-14.07"/><path fill="#002E47" d="M69.022 81.324v12l-3.616-8.22 1.092-1.647s1.876-.683 2.524-2.133z"/><path fill="#0F75BC" d="M64.483 96.446c0 2.11-.703 4.923 0 4.923 4.497 1.68 8.992.22 13.13-1.51V82.72s-14.967 3.966-10.81.934c0 0 10.873-6.08-15.797-2.096 0 0 1.15 6.686 1.22 15.85 4.09.513 7.97-.427 12.257-.962z"/><path fill="#E66" d="M64.483 101.37c-.703 0 0-2.813 0-4.923-4.286.535-8.167 1.475-12.258.96.035 4.994-.248 10.72-1.22 16.505l13.305-2.648v5.08s5.18 3.783 13.303-3.25v-13.23c-4.137 1.73-8.633 3.19-13.13 1.505z"/><path fill="#C19A4D" d="M146.285 163.57c3.515-2.814 7.736-6.33 11.253-9.143-26.727-7.738-55.565-1.408-82.997-2.113-3.51 0-7.03-.35-10.55-.79v11.464c0 4.21 1.04 8.18 2.86 11.674l10.07-5.238 2.35.64-10.63 7.513c3.28 4.63 8.06 8.113 13.64 9.73l17.49-11.625 14.96.523-12.42 12.105h1.63l13.27-10.04 17.99-.187-16.31 10.22h48.52c13.99 0 25.32-11.34 25.32-25.32v-1.14c-15.45-.597-31.15-1.55-46.42 1.72z"/><path fill="#493E11" d="M76.91 169.424l-10.064 5.238c.528 1.016 1.122 1.988 1.777 2.914l10.632-7.512-2.345-.64zm25.383 18.886l12.418-12.105-14.95-.523-17.49 11.625c2.24.646 4.61 1.002 7.05 1.002h12.98zm14.9-10.035l-13.268 10.034h14.942l16.312-10.22"/><path fill="#FFB400" d="M76.91 83.083s1.172-.99 2.345 0c0 0-.484 1.582-.55 1.582-.066 0-1.253-.68-1.253-.68l-.542-.902z"/><path fill="#969798" d="M72.748 125.986s1.056-1.084 4.865-2.037v3.19l-4.865-1.16z"/><path fill="#FFF" d="M76.91 82.903s-7.773 15.668-11.8 18.68c0 0 10.98 8.64 11.8 12.098V82.91z"/><path fill="#FAC800" d="M78.78 99.673l.412-.48-.41-.484-1.864.29v-.01l1.814-.39-.14-.33-1.706.44c-.048-.28-.126-.55-.236-.78l1.45-1.42-.063-.37-1.507 1.57-.008-.02L78.016 96l.05-.753-.53.07-1.193 2.11h-.003l1.112-2.126-.262-.09-.998 2.05c-.2-.19-.428-.33-.676-.39l.305-2.35-.22-.2-.27 2.52h-.01l.21-2.58-.34-.58-.34.58.21 2.6-.27-2.53-.23.2.31 2.37c-.22.07-.42.19-.6.36l-.99-2.03-.26.09 1.11 2.11v.01l-1.18-2.1-.53-.07.05.76 1.49 1.68-.01.02-1.49-1.56-.06.37 1.44 1.4c-.11.25-.2.52-.25.81l-1.79-.46-.14.33 1.89.41.02-.11c0 .04 0 .08-.01.12l-1.95-.31-.41.48.41.48 1.94-.3v.01l-1.88.4.14.33 1.77-.46c.03.36.12.69.25.98l-1.48 1.44.07.37 1.53-1.6.01.01-1.51 1.71-.05.75.53-.07 1.21-2.13-1.12 2.15.26.09 1.01-2.06c.19.19.41.34.64.41l-.31 2.41.23.2.28-2.57-.21 2.64.35.58.34-.58-.21-2.63h.01l.27 2.56.23-.2-.31-2.4c.22-.06.43-.17.62-.34l.97 1.99.26-.09-1.08-2.06 1.16 2.04.54.07-.05-.76-1.44-1.62.01-.02 1.45 1.52.06-.37-1.39-1.36c.15-.3.25-.65.29-1.03l1.68.44.14-.323-1.8-.38v-.02l1.85.29z"/><path d="M77.868 85.344l-.385.654.193.733-.59-.21-.51.5.018-.78-.507-.42.6-.27.2-.76.352.62m.62 24.8l-.39.65.19.74-.59-.21-.51.5.02-.79-.51-.42.6-.27.2-.76.35.62" fill="#FFB400"/><path fill="#FC7" d="M79.255 83.083v86.982s-1.173 1.268-2.345 0V83.083s1.172 1.054 2.345 0z"/><path fill="#FFF" d="M95.784 129.344s-7.913 10.36-16.53 0c0 0 5.627-1.465 0-4.528v1.17H72.75s-3.692 1.346.88 3.398c0 0-2.463 5.22 3.87 3.11 0 0 8.187 10.9 21.237 1.23m16.875 2.11s51.522 7.145 35.21-9.67c0 0-8.172 2.11-8.306-3.518 0 0-4.246-.914-7.115-5.117.07-.95 1.71-2.98 1.71-2.98l1.27.88 2.7-.88s10.63 4.36 13.62 9.39c0 0 21.68 23.66-39.8 15.75"/><path fill="#919496" d="M102.98 107.73s.21 1.798-1.464 2.05c0 0 .422.91-2.215 4.514 0 0 .67 1.088-.71 2.05 0 0-5.52-4.727-3.76-8.323 0 0 1.34-3.93 8.16-.29z"/><path fill="#FFF" d="M104.424 141.82s24.05 25.387 16.445 33.842c0 0 15.23-3.64 14.5 1.73 0 0 .07 1.358-1.35.85 0 0-.27 1.29-3.05.704l-13.45-.293s-1.65-1.38.05-2.81c0 0 5.44-1.415-1.62-13.9-7.06-12.48-11.52-20.11-11.52-20.11l-.02-.013z"/><path fill="#CCC" d="M103.044 174.234c6.198-6.893.36-24.51.36-24.51l-1.524.762-.422 6.633c4.936 7.73-1.098 17.26-1.098 17.26-1.376 1.16-.04 2.28-.04 2.28l10.964.23c2.27.48 2.484-.57 2.484-.57 1.158.41 1.1-.7 1.1-.7.59-4.38-11.824-1.41-11.824-1.41z"/><path fill="#FFF" d="M117.956 136.03c11.896 0 21.54-7.845 21.54-17.52s-9.646-17.516-21.54-17.516c-10.892 0-19.888 6.574-21.333 15.107h.006c-14.11 40.26 5.72 45.53 15.57 45.83.13-.19.13-.19 0 .01 2.93.09 6.04-1.15 6.04-1.15 2.3-1.28 2.8-1.75 3.78-3.12 0-.05.01-.05 0 0 5.04-7.01-4.84-14.4-4.84-14.4-1.44-1.95-1.05-5.18-.57-7.26.44.03.88.04 1.33.04z"/><path fill="#CCC" d="M82.67 132.47l-1.07 3.472s2.686 1.684 5.534 1.74v-3.738s-2.046.085-4.464-1.473z"/><path fill="#D0D2D3" d="M134.837 107.78s13.542-4.635 4.66 9.537c-7.735 1.903-4.66-9.537-4.66-9.537z"/><path fill="#CCC" d="M92.02 144.596s.226 1.69.358 2.06c.284-.05 4.812.212 4.266-5.81 0 0-.474-9.158-3.744-11.502"/><path fill="#FFF" d="M86.863 124.75c7.125-5.316 7.795 17.546 7.795 17.546l-.052.076c-3.022 4.453-4.814 1.096-5.22.168-.06-.133-.09-.22-.09-.22.496-7.65.334-11.308-.082-12.85-.76-2.8-2.356 1.413-2.356 1.413-1.505 7.4-2.025 13.084-1.836 17.41.802 18.785 15.003 11.87 20.7 8.32 1.435-.895 2.335-1.582 2.335-1.582s.78-.47 1.977-1.16l1.244 3.17-.16.12c-13.11 9.81-20.202 8.69-24.014 5.12-3.806-3.57-4.348-9.57-4.348-9.57-3.03-20.28 4.094-27.93 4.094-27.93l.013-.02z"/><path fill="#CCC" d="M117.192 143.248l-3.004-3.545 2.008.164m26.32-17.22s.61-2.735 5.054 1.054c0 .01-4.437-4.7-5.053-1.05zm-2.428-6.303s2.38.63 5.723 3.137l-5.93-2.78.21-.35zm-1.198 1.098s.365 1.527.273 4.158c0 0 .702-1.848.333-4.283"/><path opacity=".4" d="M64.31 111.263l-.105-10.27s.9-11.14.106-15.625c0 0-.02-1.406 3.38-2.285 0 0 4.34-2.755-2.58-2.874l-2.38.04-1.39 31.6 2.99-.6z"/><path fill="#FFB400" d="M69.222 101.148l-.46.643.268.75-.754-.24-.624.49-.006-.79-.655-.44.76-.25.22-.76.47.64"/><path fill="#F77" d="M80.898 55.3H77.38l-7.624-12.835-.574-.957c-.117-.196-.3-.505-.545-.928V55.3h-2.913V35.21h4.003l7.036 11.833c.06.098.484.818 1.28 2.163V35.21h2.854V55.3zm19.962 0h-3.87l-1.605-4.784h-7.728L86.082 55.3h-3.09l6.667-20.09h4.45l6.74 20.09zm-6.446-7.684l-2.93-8.964-2.928 8.964h5.858zm13.982 7.684h-3.886V38.313h-5.343V35.21h14.57v3.104h-5.342V55.3zm11.01 0h-3.62V35.21h3.62V55.3zm11.57.31c-2.67 0-4.75-1.002-6.234-3.004-1.488-2-2.23-4.475-2.23-7.418 0-2.924.79-5.37 2.37-7.337 1.58-1.96 3.665-2.95 6.255-2.95 2.61 0 4.674.99 6.19 2.95 1.515 1.97 2.272 4.43 2.272 7.39 0 3.1-.79 5.61-2.37 7.52-1.58 1.91-3.66 2.87-6.26 2.87zm.027-2.916c1.305 0 2.41-.54 3.313-1.62.902-1.08 1.354-3.037 1.354-5.872 0-2.306-.373-4.115-1.12-5.424-.745-1.31-1.903-1.965-3.473-1.965-3.1 0-4.65 2.498-4.65 7.49 0 2.425.394 4.262 1.184 5.514.79 1.25 1.92 1.877 3.4 1.877zm26.89 2.606h-3.516l-7.625-12.835-.574-.957c-.117-.196-.3-.505-.544-.928V55.3h-2.915V35.21h4l7.03 11.833c.06.098.48.818 1.28 2.163V35.21h2.85V55.3zm19.963 0h-3.87l-1.606-4.784h-7.727L163.08 55.3h-3.093l6.667-20.09h4.462l6.74 20.09zm-6.446-7.684l-2.93-8.964-2.93 8.964h5.86zm20.958 7.684h-12.362V35.21h3.81v16.808h8.553v3.28z"/><path fill="#C19A4D" d="M76.788 212.55h-2.88v-8.632H67.81v8.63h-2.88V192.68h2.88v8.168h6.098v-8.168h2.88v19.87zm13.686 0H80.09v-19.87h10.28v2.955h-7.4v5.387h5.947v2.88H82.97v5.562h7.504v3.085zm14.82 0h-3.043l-2.48-8.165h-4.05v8.164h-2.88v-19.87h6.93c1.93 0 3.35.54 4.25 1.62.91 1.08 1.36 2.48 1.36 4.19 0 2.55-.96 4.31-2.88 5.27l2.8 8.77zm-9.574-11.034h3.582c1.037 0 1.81-.27 2.317-.814s.76-1.29.76-2.242c0-.873-.25-1.578-.75-2.117-.5-.537-1.2-.81-2.1-.81h-3.81v5.983zm18.095 11.34c-2.122 0-3.775-.99-4.957-2.97-1.183-1.98-1.773-4.424-1.773-7.336 0-2.893.628-5.313 1.884-7.256 1.25-1.947 2.91-2.92 4.97-2.92 2.07 0 3.71.973 4.92 2.92 1.2 1.943 1.81 4.377 1.81 7.3 0 3.065-.63 5.542-1.88 7.43s-2.92 2.83-4.98 2.83zm.024-2.883c1.03 0 1.91-.533 2.63-1.602.72-1.06 1.07-3 1.07-5.8 0-2.28-.3-4.07-.89-5.36-.6-1.29-1.52-1.94-2.77-1.94-2.47 0-3.7 2.47-3.7 7.41 0 2.4.31 4.22.94 5.45.63 1.24 1.53 1.86 2.7 1.86zm19.76 2.577h-10.38v-19.87h10.27v2.955h-7.39v5.387h5.94v2.88h-5.94v5.562h7.5v3.085zm1.04-4.79l2.8-.742c.33 1.97 1.62 2.955 3.86 2.955 1.02 0 1.81-.252 2.36-.756.55-.506.82-1.13.82-1.877 0-.545-.13-1.05-.38-1.508-.25-.46-.79-.822-1.61-1.084l-3.06-.99c-1.05-.34-1.82-.727-2.32-1.158-.5-.432-.9-1.04-1.2-1.828-.3-.783-.45-1.623-.45-2.516 0-1.775.53-3.2 1.59-4.273 1.06-1.07 2.42-1.607 4.07-1.607 1.37 0 2.6.373 3.68 1.12 1.08.75 1.77 1.806 2.06 3.175l-2.74.85c-.42-1.5-1.4-2.26-2.95-2.26-.9 0-1.59.24-2.06.7-.48.47-.71 1.06-.71 1.78 0 1.14.74 1.93 2.22 2.39l2.72.85c1.65.52 2.75 1.28 3.31 2.28.56 1.01.84 2.12.84 3.33 0 1.95-.59 3.49-1.77 4.61-1.19 1.12-2.72 1.68-4.6 1.68-1.58 0-2.97-.41-4.16-1.23-1.19-.82-1.98-2.11-2.37-3.86zm21.28 4.79v-19.87h5.89c2.18 0 3.92.96 5.24 2.877 1.31 1.916 1.97 4.28 1.97 7.096 0 2.813-.68 5.166-2.04 7.06-1.36 1.892-3.3 2.837-5.83 2.837h-5.25zm2.96-2.927h2.4c1.29 0 2.38-.602 3.28-1.805.9-1.203 1.35-2.994 1.35-5.37 0-1.942-.4-3.583-1.18-4.927-.79-1.34-1.82-2.01-3.11-2.01h-2.74v14.12zm24.68 2.927h-3.08l-1.28-4.73h-6.15l-1.25 4.73h-2.46l5.3-19.87h3.54l5.36 19.87zm-5.13-7.6l-2.33-8.862-2.33 8.863h4.66zm11.95 7.6h-3.06v-8.384l-5.44-11.486h3.48l3.79 8.195 3.63-8.195h2.76l-5.18 11.486v8.383z"/></svg>