<svg xmlns="http://www.w3.org/2000/svg" width="250" height="250" viewBox="0 0 250 250"><path opacity=".15" d="M217.208 177.842l-2.64.377v-14.83H201.31c2.61-7.86 4.027-16.27 4.027-25 0-37.82-26.446-69.44-61.848-77.44l-3.67-12.36-16.42-11.77-21.38-1.87-12.66 5.45-8.72 9.47-7.7 16.64v12.74c-16.22 14.53-26.43 35.62-26.43 59.12 0 8.73 1.43 17.13 4.03 25h-9.87v57.18h173.9v-21.51l2.63-21.22z"/><path fill="#FFB400" d="M214.004 174.64l-2.64.375v-14.827H198.11c2.606-7.86 4.024-16.26 4.024-24.997 0-37.81-26.446-69.44-61.848-77.44l-3.664-12.35L120.2 33.63l-21.38-1.864-12.66 5.454-8.723 9.47-7.7 16.646v12.74C53.515 90.604 43.3 111.696 43.3 135.19c0 8.738 1.433 17.136 4.04 24.998h-9.873v57.182h173.898v-21.518l2.64-21.213z"/><path fill="#FFF200" d="M156.565 122.35c-28.02-11.618-40.02-37.877-47.958-65.3-37.125 6.662-65.305 39.1-65.305 78.14 0 43.86 35.556 79.416 79.416 79.416 12.08 0 23.525-2.71 33.776-7.536.682-28.26.07-56.184.07-84.72z"/><path fill="#FFB400" d="M202.133 135.19c0-43.86-35.557-79.415-79.415-79.415-4.82 0-9.528.453-14.11 1.275 7.938 27.422 19.94 53.68 47.958 65.3 0 28.535.61 56.457-.07 84.718 26.964-12.693 45.637-40.1 45.637-71.878z"/><path fill="#EFE565" d="M37.468 160.188v57.182H161.67v-57.182H37.468z"/><path fill="#FFFCC2" d="M211.365 160.188H161.67v57.182h49.695v-57.182z"/><path fill="#FFB400" d="M143.188 80.55s19.882-4.185 31.666 5.297c0 0 11.09-4.867 7.896 9.142 0 0 8.218 18-9.303 30.4 0 0 4.476 14.7 1.036 34.79H88.535l54.653-79.64z"/><path fill="#FFB400" d="M74.54 160.188l-4.803-9.184 2.87-7.318S64.9 129.16 74.54 119.634l4.38-2.053-3.443-10.72s-3.348 2.14-4.784-2.47c0 0-10.235-20.68-.956-23.4V63.33l7.7-16.646 8.722-9.47 12.65-5.454 21.38 1.87 16.42 11.77 5.15 17.363 1.41 17.794-3.15 7.243 3.67 38.963-9.4 33.432H74.54z"/><path fill="#FFF200" d="M129.14 119.938l8.91 5.045.66 35.205H92.417l5.67-22.385"/><path fill="#565759" d="M105.42 134.48s16.367.74 24.638-12.604c0 0-7.515 15.258-15.072 21.858 0 0-13.824 13.87-15.26 16.453 0 0-10.243-15.847 5.693-25.706z"/><path fill="#FFEC66" d="M76.73 160.188s-4.315-8.704-1.254-17.6c0 0-7.878-8.705.127-20.71 0 0 19.176-6.82 22.482 3.106l7.334 9.498s-.39 11.74-6.51 20.925l.81 4.78H76.73z"/><path fill="#FFEC66" d="M138.71 79.544s2.63-2.456 3.538 6.95l-11.293 33.444s-5.712 17.67-29.565 14.972l-17.783-10.883s-6.15-16.9-6.877-19.642c0 0-3.914 4.313-6.468-6.75 0 0-6.41-16.8 3.97-14.648l6.506-22.242L87.77 45.39l34.963.432 11.898 14.493 4.08 19.23z"/><path d="M92.416 115.22s4.16-.932 6.66.35c0 0 1.645.862 5.912-.758 0 0 1.22-.807 2.987.494 0 0 2.074-1.79 4.207-.124 0 0 2.744 3.223 5.365.617 0 0 2.255-1.7 2.195 1.78 0 0-1.465-1.1-4.33-.31 0 0-1.645.55-3.534-.73 0 0-2.623-1.16-3.963.18 0 0-5.67-1.34-7.986-.37 0 0-.85.08-2.69-.73 0 0-2.46-.54-4.83-.41zm8.974 2.055s5.122 3.414 10.67.305h.608s-5.364 5.305-11.278-.305zm4.03-9.878s-.958-1.833-2.87-.78c0 0-3.732.99-3.445-2.23l-3.157 1.33-1.914 2.432 4.114-2.44s2.582 3.67 5.166 1.28c0 0 1.243-.45 2.105.39zm4.495-.684s2.392-1.052 4.018 0c0 0 3.347-.096.383-5.262l3.3 1.93s-.777 6.01 5.852 8.89c0 0-5.93-1.72-6.776-7.36 0 0-.272 3.19-3.523 2.51-.01 0-1.54-1.06-3.26-.68z" fill="#565759"/><path fill="#969798" d="M86 118.438s1.147-3.833 11.48 1.5c0 0 5.355 2.8 7.27 0 0 0 1.53.593 4.305.38 0 0-.957 3.23 6.887 4.665 0 0-6.632-.523-8.913-2.784 0 0-5.54 8.93 10.58 7.53 0 0-2.5 3.57-11.65 3.96 0 0 .48-7.94-4.58-8.71 0 0-8.89-6.4-15.39-6.55z"/><path fill="#565759" d="M95.47 121.93s-9.853-5.352-15.402-2.296h1.817s2.77-2.288 13.585 2.295zm7.462 9.942s1.892-5.87-1.542-6.475c0 0 2.785.64 1.542 6.475z"/><path fill="#565759" d="M97.48 131.872s4.112-9.66-9.09-10.954c0 0-13.105-4.162-14.158 4.065 0 0 1.25-7.083 14.636-3.055 0 0 10.333-1.153 8.61 9.944zm-21.717 9.32s1.34-6.93 2.774-7.503c0 0-2.487-.08.382-5.93 0 0-2.68 3.18-4.31.86 0 0-.53 3.93 1.24 5.05 0 0-.77 3.62-.1 7.5zM71.697 83.42s4.326 1.693 5.033 11.035h1.568v-9.888l1.77-2.923 1.674-7.696V63.186s3.157-4.018 3.3-9.184c0 0 9.04-2.01 19.23 3.587 0 0 12.856-2.44 21.422 4.87 0 0-4.92-6.32-11.236-7.03 0 0 16.416-1.3 15.6 16.35l-1.306-.29.997 2.54 1.6.75 3.28 14.18 1.85-1.7s.39-4.59 3.39-6.89L138.71 62l-6.13-15.784-14.97-10.18-18.8-.81s-17.34 1.82-22.09 17.89l-5.03 10.33s.72 17.22 0 19.944z"/><path fill="#969798" d="M112.21 83.85s-29.368-1.742-31.186 7.5h-1.34l-4.208-9.126v.958l3.827 10.096h2.01s-3.158 12.072 10.235 11.85c0 0 12.042 2.096 11.903-9.017 0 0 1.02-5.66 1.97-6.52 0 0 3.54-.47 3.92.48 0 0 2.05 13.81 10.4 13.27l3.73.04-1.2-.87s-9.96 2.49-11.87-12.72c0 0-2.23-4.59 6.3-5.35 0 0 15.13-.67 15.52 5.07l.86-.5s-.47-7.24-20.85-5.14zm-8.76 6.92l-.615 1.6h-1.445v1.09l1.445.995s-.668 9.48-7.365 9.434c0 0-12.627 2.05-13.393-8.9l1.052-.54.47-1.18h-1.14s2.1-10.68 20.37-6.47l.61 2.74h-1.03v1.21h1.03zm6.082-4.368l-.287 2.04s-1.626-1.345-4.974-.338V85.83l-2.88-.833s7.76-.67 9.96 0l-1.81 1.405z"/><path fill="#565759" d="M87.05 83.42l3.588-3.158 9.088-.717 2.08 1.938 1.03 3.408s-9.04-3.91-15.785-1.47zm25.618-4.594l1.073 2.817s10.28-1.238 11.96-.808l-5.06-3.013-7.96 1.004zm-24.133 10.86s7.653-4.913 11.623 1.083h-.718s-2.344-4.68-10.905-1.09zm26.88.238s5.588-6.023 10.76-.644c0 0-4.16-6.675-10.76.644z"/><circle fill="#565759" cx="94.705" cy="89.637" r="1.913"/><path fill="#CCC" d="M135.46 126.754s4.4 10.618-8.444 33.434h9.172l6.06-13.344-3.536-21.86-3.25 1.77z"/><path fill="#FFF" d="M171.658 160.188s5.273-27.785-2.285-37.988l-30.662 4.89s-.55 11.958-.66 21.236c0 0-6.79 1.914-7.99 11.86h41.6z"/><path fill="#D0D1D2" d="M132.587 160.188s.428-5.073 7.452-11.622l4.65-18.413s11.25.548 14.73-.42l-3.37 22.994s-2.99 4.448-2.85 7.46h-20.62zm41.896-70.724s9.683-5.72 5.567 6.297l-1.867-1.24-3.7-5.05z"/><ellipse transform="rotate(84.8 152.2 106.2)" fill="#FFF" cx="152.207" cy="106.164" rx="24.463" ry="30.531"/><path fill="#919396" d="M127.014 94.904c.006-.01-3.207 5.804-3.065 7.593l-1-1.345s-7.33-8.747 4.06-6.25z"/><path fill="#D0D1D2" d="M128.81 109.965c.93 11.28 13.08 19.272 27.142 17.854 14.063-1.42 24.71-11.71 23.783-22.99-.926-11.28-13.077-19.27-27.14-17.86-14.064 1.42-24.714 11.71-23.784 22.99v-.01z"/><ellipse transform="rotate(84.8 167.9 103.6)" fill="#FFF" cx="167.907" cy="103.595" rx="10.317" ry="10.468"/><path fill="#6D6F71" d="M159.265 116.403s-.776 2.928-.608 3.23l-.414-.09.75-3.237.17.17.102-.073z"/><path fill="#FFF" d="M131.4 106.016c.62 6.75 6.627 11.72 13.42 11.098 6.796-.62 11.803-6.594 11.185-13.344-.615-6.75-6.623-11.718-13.417-11.097-6.794.62-11.803 6.595-11.187 13.345v-.002z"/><path fill="#0B8ECC" d="M158.762 112.23s-1.62-2.61-2.967 2.413l3.303 2.314 2.422-2.647s-2.155-4.322-2.758-2.08z"/><path fill="#FFF" d="M156.402 114.54l1.422.988s-.454-1.6-1.422-.987zm3.735.777l.85-.838s-.714-.27-.85.83z"/><circle fill="#0071BC" cx="143.713" cy="104.386" r="9.392"/><path fill="#0F4481" d="M142.078 107.938c2.238 1.446 5.226.805 6.668-1.433 1.446-2.24.803-5.224-1.433-6.667-2.24-1.446-5.226-.8-6.67 1.436-1.445 2.237-.805 5.222 1.436 6.67l-.01-.006z"/><path fill="#FFF" d="M147.905 104.975c.77-1.19.428-2.778-.76-3.547-1.193-.768-2.78-.424-3.547.764-.768 1.19-.428 2.775.765 3.543 1.188.77 2.774.428 3.542-.76z"/><circle fill="#FFF" cx="139.96" cy="104.582" r="1.248"/><circle fill="#0071BC" cx="167.802" cy="103.374" r="8.375"/><path fill="#0F4481" d="M172.033 105.458c1.296-1.99.732-4.655-1.257-5.952-1.993-1.298-4.656-.732-5.952 1.257-1.296 1.99-.732 4.652 1.26 5.95 1.99 1.298 4.654.735 5.95-1.255z"/><path fill="#FFF" d="M168.125 104.755c1.057.688 2.475.39 3.162-.668.688-1.06.393-2.476-.667-3.165-1.06-.688-2.474-.387-3.163.67-.688 1.06-.39 2.473.668 3.163zm-2.852-1.352c.17.59-.17 1.207-.76 1.377-.592.17-1.208-.17-1.38-.76-.167-.592.173-1.21.763-1.38.59-.17 1.208.173 1.377.763z"/><path fill="#D0D1D2" d="M129.314 93.053s-6.435-3.45-10.238-.53c0 0-4.82 4.882 3.05 11.416l1.93 1.77s1.26-1.12.79-3.25c0 0-9.23-8.67 2.712-6.62 0 0 1.867-.3 1.756-2.79v-.01z"/><path d="M146.164 119.305s3.263-.73 5.225.275c0 0 1.29.68 4.64-.594 0 0 .95-.632 2.34.387 0 0 1.62-1.404 3.3-.097 0 0 2.15 2.53 4.21.484 0 0 1.77-1.328 1.72 1.398 0 0-1.15-.86-3.4-.24 0 0-1.29.43-2.78-.574 0 0-2.06-.91-3.11.143 0 0-4.45-1.052-6.27-.286 0 0-.67.07-2.11-.57 0 0-1.93-.41-3.79-.32zm7.04 1.613s4.02 2.68 8.37.24h.48s-4.21 4.162-8.85-.24z" fill="#6D6F71"/><path opacity=".8" fill="#D0D1D2" d="M154.273 127.942l1.093 2.483s-2.596.395-4.604.202c-2.008-.19 0-2.707 0-2.707l3.51.022z"/><path opacity=".8" fill="#D0D1D2" d="M164.204 130.055c-7.326 34.177-11.096.167-11.096.167l-3.59 4.33-12.897-6.63s-1.03 9.203 4.55 7.203c0 0-.34 3.87 3.53 3.657 0 0 10.07 25.52 18.4 17.102 0 0 7.55-6.805 7.48-27.903l-2.13 3.51-4.22-1.43z"/><path d="M177.117 94.23l-2.263-5.242 3.612 3.383.842 2.62"/><path d="M182.67 102.34c-.037-1.02-.76-9.97-14.548-9.97-.49 0-1.025.015-1.664.047h-19.93c-.658-.032-1.19-.047-1.687-.047-6.22 0-9.78 1.828-11.82 3.92-2.61 2.47-2.86 5.443-2.88 6.065-.35 4.565.47 8.115 2.44 10.55.26.32.54.617.83.894 1.99 2.05 4.78 3.1 8.33 3.1s6.61-1.07 6.73-1.12l.62-.37c5.48-4.79 6.07-12.43 5.91-16.74.49-.23.99-.34 1.48-.34.55 0 1.02.14 1.38.3-.17 4.19.39 11.04 4.98 15.7.34.37 1.7 1.43 1.7 1.43.13.05 3.18 1.12 6.74 1.12 3.91 0 6.9-1.26 8.91-3.75 2.04-2.52 2.88-6.17 2.53-10.83zm-35.02 11.027c-.46.154-3.04.966-5.923.966-2.982 0-5.275-.845-6.814-2.51-1.825-1.97-2.583-5.11-2.252-9.36.01-.308.19-7.514 12.19-7.515l.01-.405v.405c2.18 0 4.64.247 7.32.727.29 1.88 1.45 11.464-4.03 17.237-.15.154-.31.308-.48.455zm8.6-17.723c-.51 0-1.017.12-1.49.35-.087-.676-.163-1.073-.165-1.094l-.085-.433c.536-.137 1.236-.266 1.98-.266.658 0 1.26.11 1.805.3l-.09.48c-.017.09-.092.5-.17 1.14-.597-.31-1.195-.47-1.786-.47zm14.988 18.69c-2.877 0-5.46-.814-5.922-.967-6.212-5.507-4.95-15.844-4.67-17.665 2.74-.5 5.254-.753 7.476-.753 5.157 0 8.127 1.33 9.842 2.87 2.176 2.18 2.18 4.63 2.18 4.63.367 4.69-.62 7.67-2.247 9.51-1.538 1.56-3.77 2.35-6.66 2.35z"/><path opacity=".8" fill="#D0D1D2" d="M138.05 124.027l-2.562-1.828s-1.91 4.14 1.23 5.56l1.33-1.35v-2.39z"/><path fill="#3A3A3A" d="M183.57 102.34c-.037-1.02-.76-9.97-14.548-9.97-.49 0-1.025.015-1.664.047h-19.932c-.655-.032-1.19-.047-1.684-.047-6.228 0-9.785 1.828-11.822 3.92-2.616 2.47-2.866 5.443-2.886 6.065-.35 4.565.47 8.115 2.434 10.55.26.32.538.617.83.894 1.985 2.05 4.776 3.1 8.328 3.1 3.55 0 6.604-1.07 6.73-1.12l.617-.37c5.473-4.79 6.068-12.43 5.903-16.74.49-.23.985-.34 1.477-.34.548 0 1.013.14 1.376.3-.17 4.19.39 11.04 4.97 15.7.34.37 1.7 1.43 1.7 1.43.13.05 3.17 1.12 6.73 1.12 3.9 0 6.9-1.26 8.9-3.75 2.03-2.52 2.88-6.17 2.52-10.83zm-35.02 11.027c-.462.154-3.04.966-5.923.966-2.982 0-5.276-.845-6.815-2.51-1.823-1.97-2.582-5.11-2.25-9.36 0-.308.184-7.514 12.182-7.515l.006-.405v.405c2.173 0 4.635.247 7.312.727.29 1.88 1.446 11.464-4.03 17.237-.157.154-.315.308-.483.455zm8.6-17.723c-.51 0-1.017.12-1.49.35-.088-.676-.164-1.073-.167-1.094l-.082-.433c.54-.137 1.24-.266 1.98-.266.66 0 1.26.11 1.81.3l-.09.48c-.02.09-.09.5-.17 1.14-.6-.31-1.19-.47-1.78-.47zm14.99 18.69c-2.88 0-5.462-.814-5.924-.967-6.21-5.507-4.948-15.844-4.67-17.665 2.74-.5 5.255-.753 7.477-.753 5.155 0 8.126 1.33 9.84 2.87 2.178 2.18 2.18 4.63 2.18 4.63.368 4.69-.618 7.67-2.245 9.51-1.54 1.56-3.774 2.35-6.66 2.35z"/><path d="M129.314 93.053l-.56 8.206 1.633.95.36-1.67"/><path fill="#3A3A3A" d="M132.587 101.45l-3.27-.43-.003-7.967-3.62-1.34s1.17-1.855 5.656-.364v7.71l1.236.48v1.9zm46.396-5.34s-3.357-6.98-4.5-7.396l.29-.272 1.583.152s4.2 3.607 6.093 9.882l-3.47-2.366z"/><path opacity=".5" fill="#969798" d="M148.72 121.293s-5.248-6.384-12.1-.06l.27.967s4.285-6.044 11.83-.907z"/><path fill="#FFF" d="M153.108 134.36s1.39-14.422-9.92-13.202c0 0 .114-.275-1.418.77 0 0-7.175-2.014-4.496 9.178 0 0 1.817 5.835 4.974 2.584 0 0-1.852 3.348 2.967 4.018 0 0 18.27 48.12 25.35-9.727l-6.36 2.08s-4.94 39.89-11.097 4.31z"/><path fill="#D0D1D2" d="M142.248 133.69s-.406-3.35-1.04-6.937c0 0-.365 3.47 1.04 6.936z"/><path fill="#D0D1D2" d="M138.71 131.06s1.326-1.7 2.528-1.677c0 0 .99-2.485-2.527 1.676zm3.06-9.13s2.68.09 4.903 2.098c0 0-.478-2.547-4.902-2.1z"/><circle fill="#565759" cx="120.796" cy="88.632" r="1.937"/><path fill="#969798" d="M75.476 99.538s-2.296-1.75 0-5.083c0 0-5.166-15.58-5.74-4.818 0 0 1-8.302 4.804 4.818 0 0-1.552 3.265.936 5.083z"/><path fill="#353535" d="M65.38 168.612v19.33h-7.292l-8.648-12.92v8.545h2.61v4.374H41.64v-4.37h2.002v-14.95h-1.968v-4.37h9.733l8.31 12.45v-8.07H57.41v-4.37h10.207v4.38H65.38zm15.193-4.375v4.477H78.47v14.718h2.103v4.51H69.315v-4.51h2.136v-14.718h-2.13v-4.477h11.26zm25.435 4.375v19.33h-7.29l-8.648-12.92v8.545h2.61v4.374H82.27v-4.37h2.002v-14.95h-1.968v-4.37h9.733l8.308 12.45v-8.07H98.04v-4.37h10.207v4.38h-2.24zm3.596 7.358c0-7.322 4.884-12.376 11.903-12.376 8.308 0 12.175 4.984 12.175 12.615 0 7.66-4.272 12.34-11.937 12.34-7.087 0-12.14-4.11-12.14-12.58zm15.6.24c0-4.104-1.12-7.394-3.73-7.394-2.068-.033-3.492 2.95-3.492 7.154 0 4.443 1.594 7.258 3.765 7.258 2.135 0 3.458-2.814 3.458-7.02zm21.638-1.29c.135-.68.88-2.103 1.255-2.917l1.864-3.425h-1.86v-4.34h9.13v4.34h-1.83l-6.27 11.02v3.934h1.9v4.41h-10.86v-4.41h1.94v-4l-6.58-10.954h-1.66v-4.34h11.6v4.34h-1.77l1.97 3.595c.21.645.92 2.17 1.05 2.747h.14z"/><path fill="#3A3A3A" d="M51.956 210.885v-3.593h2.606l-.576-1.866h-5.623l-.576 1.866h2.14v3.593h-8.722v-3.593h1.865l3.703-12.042h-1.125v-3.537H56.18l4.854 15.58h1.92v3.592h-11zm1.015-8.75l-1.81-5.924-1.78 5.93h3.6zm30.7 7.24c0 2.44-1.37 4.39-4.11 4.39-2.24 0-3.64-1.428-4.25-3.045-.66.11-1.39.165-2.14.165-5.54 0-9.38-3.236-9.38-9.71 0-5.594 3.71-9.546 9.22-9.546 6.48 0 9.38 3.89 9.38 9.73 0 2.88-.77 5.21-2.27 6.85.22.85.52 1.78 1.21 1.78.5 0 .55-.77.55-1.24v-.8h1.81v1.4zm-7.43-6.937c.03-.33.06-.687.06-1.07 0-3.154-1.29-5.733-3.32-5.733-1.64-.026-3.15 2.332-3.15 5.542 0 .547.03 1.043.11 1.508.63-.658 1.62-1.316 3.24-1.316 1.18-.01 2.2.43 3.08 1.06zm-1.62 3.728c-.19-1.37-.52-2.303-1.45-2.303-.9 0-1.45.904-1.83 2 .55.605 1.18.907 1.84.907.53 0 1.02-.22 1.46-.604zm18.6-14.453v3.537h-1.48v5.926c0 4.416.99 5.348 2.74 5.348 1.67 0 2.77-.66 2.77-5.375v-5.82h-1.48v-3.62h8.12v3.54h-1.48v6.66c0 6.5-2.71 9.43-7.87 9.43-5.54-.17-8.5-3.07-8.5-9.3v-6.78H84.5v-3.56h8.723zm20.88 0v3.62h-1.7v11.903h1.7v3.648H105v-3.648h1.727v-11.904h-1.73v-3.62h9.108zm20.58 3.537v15.635h-5.89l-6.99-10.45v6.91h2.12v3.54h-8.42v-3.54h1.62V195.25h-1.59v-3.537h7.87l6.72 10.065v-6.528h-1.86v-3.537h8.26v3.537h-1.81zm2.91 5.952c0-5.924 3.95-10.01 9.63-10.01 6.72 0 9.85 4.03 9.85 10.202 0 6.198-3.45 9.984-9.65 9.984-5.73 0-9.82-3.318-9.82-10.176zm12.62.193c0-3.318-.9-5.98-3.02-5.98-1.67-.026-2.82 2.387-2.82 5.788 0 3.593 1.29 5.87 3.05 5.87 1.73-.002 2.8-2.278 2.8-5.678z"/><path d="M163.33 204.152l-4.197-29.572 8.645-1.228c3.197-.453 5.965.61 8.306 3.188 2.34 2.577 3.81 5.96 4.406 10.148.592 4.188.093 7.833-1.502 10.935-1.596 3.097-4.246 4.91-7.96 5.438l-7.697 1.1zm3.73-4.97l3.522-.5c1.892-.268 3.366-1.392 4.432-3.37 1.063-1.978 1.344-4.734.84-8.273-.408-2.9-1.33-5.26-2.767-7.1-1.435-1.84-3.097-2.62-4.986-2.35l-4.02.56 2.98 21.02zm33.732-.346l-3.73.53c-.52-1.283-.93-2.727-1.228-4.335-.583 3.4-2.31 5.31-5.187 5.71-1.73.25-3.21-.19-4.438-1.32-1.23-1.13-1.99-2.66-2.26-4.59-.72-5.02 2.43-8.03 9.43-9.03.27-.04.65-.08 1.12-.13l-.23-1.64c-.32-2.26-1.71-3.22-4.16-2.88-2.39.34-3.58 1.67-3.58 3.98l-3.42-.15c-.08-1.85.45-3.45 1.59-4.81 1.14-1.36 2.94-2.21 5.42-2.56 1.34-.19 2.45-.2 3.34-.04.88.16 1.67.54 2.35 1.13.68.59 1.19 1.26 1.52 2.02.33.76.63 2.07.9 3.95l1.4 9.88c.2 1.43.58 2.88 1.14 4.35zm-5.91-10.52c-5.064.717-7.38 2.602-6.945 5.647.127.91.493 1.652 1.095 2.22.6.573 1.416.784 2.447.637 1.48-.212 2.52-.968 3.12-2.264.59-1.303.78-2.71.56-4.226l-.29-2.015zm19.122-13.676l-3.218 25.874c-.196 1.587-.592 2.855-1.188 3.803-.595.946-1.546 1.514-2.852 1.7-.517.07-1.273.127-2.27.165l-.56-3.92 1.88-.224c.823-.116 1.41-.375 1.757-.77.348-.395.575-1.042.68-1.94.107-.9.148-1.422.13-1.566-.013-.087-.196-.516-.553-1.292l-8.877-19.692 4.104-.58 6.26 13.83 1.578-14.942 3.13-.447z" fill="#FFB400"/></svg>