<?xml version="1.0" encoding="utf-8"?>
<!-- Generator: Adobe Illustrator 16.0.0, SVG Export Plug-In . SVG Version: 6.00 Build 0)  -->
<!DOCTYPE svg PUBLIC "-//W3C//DTD SVG 1.1//EN" "http://www.w3.org/Graphics/SVG/1.1/DTD/svg11.dtd">
<svg version="1.1" id="Layer_1" xmlns="http://www.w3.org/2000/svg" xmlns:xlink="http://www.w3.org/1999/xlink" x="0px" y="0px"
	 width="250px" height="250px" viewBox="0 0 250 250" enable-background="new 0 0 250 250" xml:space="preserve">
<g id="Layer_3" display="none">
	
		<image display="inline" overflow="visible" enable-background="new    " width="1024" height="768" xlink:href="../06_June_2015/60432D60.jpg"  transform="matrix(-0.2474 0 0 0.2474 -189.3325 62)">
	</image>
</g>
<g id="Layer_2" display="none">
	<g display="inline">
		<g>
			<path fill="#FFFFFF" d="M128.377,150.443c0,0,0.3,0.324,0.859,0.934c0.578,0.611,1.449,1.508,2.604,2.596
				c1.155,1.088,2.588,2.375,4.305,3.729c1.715,1.346,3.723,2.771,5.985,3.991c1.138,0.584,2.333,1.16,3.569,1.546
				c1.234,0.434,2.502,0.653,3.705,0.672c1.219,0.045,2.324-0.226,3.328-0.765c0.524-0.205,0.972-0.646,1.461-0.989
				c0.431-0.482,0.92-0.869,1.303-1.479c1.66-2.215,2.818-5.354,3.582-8.682c0.227-0.816,0.371-1.684,0.521-2.547l0.229-1.297
				l0.061-0.324l0.049-0.307l0.088-0.662c0.211-1.709,0.379-3.604,0.551-5.461c0.671-7.5,1.428-15.148,2.936-22.363
				c0.764-3.611,1.702-7.125,3.051-10.482c0.674-1.678,1.461-3.319,2.445-4.896c0.987-1.571,2.152-3.098,3.694-4.412
				c1.511-1.315,3.425-2.384,5.438-2.863c2.008-0.503,3.979-0.45,5.606-0.147c3.285,0.644,5.479,1.923,7.157,2.95
				c1.682,1.052,2.816,1.977,3.6,2.604c0.76,0.638,1.162,0.979,1.162,0.979c2.111,1.78,2.383,4.937,0.604,7.05
				c-1.781,2.113-4.938,2.383-7.053,0.603c-0.048-0.041-0.096-0.083-0.143-0.125l-0.135-0.122c0,0-0.303-0.278-0.873-0.801
				c-0.57-0.502-1.42-1.245-2.504-1.984c-1.065-0.75-2.42-1.499-3.646-1.789c-0.607-0.146-1.137-0.166-1.635-0.077
				c-0.502,0.08-1.04,0.307-1.688,0.807c-1.303,0.978-2.759,3.098-3.909,5.688c-1.178,2.599-2.151,5.654-2.979,8.911
				c-1.658,6.542-2.711,13.86-3.688,21.308c-0.254,1.884-0.49,3.728-0.82,5.728l-0.129,0.729l-0.073,0.383l-0.08,0.363l-0.319,1.446
				c-0.212,0.968-0.416,1.927-0.72,2.886c-1.075,3.812-2.532,7.653-5.241,11.01c-0.617,0.854-1.484,1.595-2.281,2.332
				c-0.914,0.649-1.802,1.343-2.856,1.769c-2.03,0.97-4.304,1.338-6.308,1.187c-2.021-0.114-3.865-0.571-5.479-1.207
				c-1.646-0.599-3.076-1.362-4.414-2.129c-2.64-1.567-4.793-3.256-6.619-4.813c-1.819-1.563-3.306-3.014-4.495-4.23
				c-1.188-1.225-2.082-2.223-2.688-2.916c-0.604-0.715-0.927-1.096-0.927-1.096c-0.89-1.051-0.759-2.625,0.292-3.514
				c1.022-0.865,2.542-0.768,3.44,0.209L128.377,150.443z"/>
			<path fill="#D0D2D3" d="M149.189,170.059c0.574,0.043,1.172,0.031,1.775-0.012c-6.188-0.775-9.318-4.885-10.855-9.541
				c-1.45-0.912-2.781-1.875-3.965-2.805c-1.721-1.354-3.151-2.641-4.309-3.729c-1.15-1.092-2.021-1.984-2.604-2.6
				c-0.563-0.605-0.858-0.938-0.858-0.938l-0.075-0.082c-0.748-0.811-1.919-1.006-2.881-0.557c-0.469,0.76-0.949,1.539-1.429,2.318
				c0.014,0.547,0.197,1.092,0.578,1.543c0,0,0.322,0.381,0.927,1.094c0.604,0.695,1.496,1.693,2.688,2.916
				c1.189,1.221,2.676,2.67,4.495,4.232c1.826,1.559,3.981,3.244,6.619,4.813c1.338,0.766,2.771,1.531,4.414,2.131
				C145.324,169.484,147.17,169.941,149.189,170.059z"/>
			<path fill="#ED1F24" d="M93.474,127.055c0,0-29.75,2.25-22,26.5l14.75-0.25L93.474,127.055z"/>
			<path fill="#D3202E" d="M75.141,137.221c0,0,6.083-5.541,13.833-6.916l-3.156,15.836l-4.01,0.58L75.141,137.221z"/>
			<path fill="#D1A109" d="M131.161,178.18c0,0-0.642-0.73-1.563-0.641c-0.921,0.092-0.125,1.781-0.125,1.781L131.161,178.18z"/>
			<path fill="#D1A109" d="M77.349,176.305c0,0,2.063-1.5,3.563-0.25l0.188,2.5C81.099,178.555,77.411,177.305,77.349,176.305z"/>
			<path fill="#FFFFFF" d="M95.265,188.813l-0.167,3.656c0,0,10.25,3.877,32.166,0.074l0.055-3
				C127.318,189.543,98.848,190.9,95.265,188.813z"/>
			<polygon fill="#FFFFFF" points="90.661,177.566 92.286,185.68 102.349,186.631 103.599,177.008 			"/>
			<path fill="#FFFFFF" d="M72.265,186.91l-0.167,3.656c0,0,10.25,3.877,32.167,0.074l0.054-3
				C104.319,187.641,75.848,188.998,72.265,186.91z"/>
			<polyline fill="#7F7C7D" points="94.192,183.553 96.036,183.75 97.432,186.127 99.307,182.1 96.307,179.414 93.349,183.414 			
				"/>
			<path fill="#111010" d="M82.659,183.641c0,0-6.144,0.498-9.998,2.66c-3.854,2.164,21.784,3.396,31.658,1.34
				C104.319,187.641,100.966,182.748,82.659,183.641z"/>
			<polygon fill="#FFFFFF" points="113.661,179.469 115.286,187.582 125.349,188.533 126.6,178.91 			"/>
			<path fill="#231F20" d="M105.659,185.543c0,0-6.144,0.498-9.998,2.66c-3.854,2.164,21.784,3.395,31.657,1.34
				C127.318,189.543,123.966,184.65,105.659,185.543z"/>
			<circle fill="#F1C119" cx="112.807" cy="63.721" r="5.667"/>
			<path fill="#7C0505" d="M78.057,60.138c0,0,14.377-10.271,33.75,0.75c4.833,2.75,11.167,8.417,12.5,17.083L78.057,60.138z"/>
			<path fill="#FFFFFF" d="M63.601,70.289c7.074-5.907,16.953-9.586,27.895-9.586c11.792,0,22.354,4.268,29.493,11
				c10.222-4.445,12.324,1.705,12.324,1.705c0.592,1.211,0.705,2.494,0.53,3.778C111.533,87.047,81.169,89.9,63.601,70.289z"/>
			<path fill="#D0D2D3" d="M55.058,81.17c0,0-7.717-14.035,6.607-9.16C75.993,76.885,55.058,81.17,55.058,81.17z"/>
			<path fill="#919496" d="M57.761,77.299c0,0-6.867-6.931-1.93,2.346C60.767,88.926,57.761,77.299,57.761,77.299z"/>
			<path fill="#FFFFFF" d="M130.061,88.011c-2.609-15.426-18.875-27.309-38.563-27.309c-21.51,0-38.941,14.179-38.941,31.668
				c0,17.49,17.434,31.668,38.941,31.668c0.809,0,1.605-0.025,2.404-0.065c0.861,3.759,1.582,9.589-1.021,13.119
				c0,0-17.863,13.357-8.75,26.047c-0.012-0.094-2.346-22.236,14.699-26.18l-2.979-13.572c0,0,6.327-1.89,13.85-5.213v17.471
				c0,0-17.983,21-7.801,35.222C119.708,170.322,155.549,160.787,130.061,88.011z"/>
			<path fill="#D0D2D3" d="M109.699,135.645v-17.47c-7.523,3.323-13.809,5.213-13.809,5.213l2.937,13.572
				c-17.045,3.942-14.711,26.086-14.699,26.181c1.777,2.479,2.672,3.313,6.842,5.637c0,0,5.619,2.248,10.929,2.091
				C91.716,156.645,109.699,135.645,109.699,135.645z"/>
			<ellipse fill="#D0D2D3" cx="85.646" cy="93.069" rx="33.094" ry="25.105"/>
			<ellipse fill="#FFFFFF" cx="68.745" cy="87.429" rx="12.938" ry="12.752"/>
			<ellipse fill="#FFFFFF" cx="98.827" cy="87.718" rx="15.967" ry="15.862"/>
			<g>
				<circle fill="#0071BC" cx="101.728" cy="87.801" r="12.364"/>
				<path fill="#0F4481" d="M100.839,90.914c-2.297-2.653-2.008-6.661,0.645-8.957c2.65-2.293,6.658-2.006,8.957,0.647
					c2.293,2.651,2.005,6.661-0.646,8.956C107.142,93.855,103.132,93.565,100.839,90.914z"/>
				<path fill="#FFFFFF" d="M104.537,88.967c-1.222-1.411-1.064-3.54,0.344-4.759c1.407-1.219,3.539-1.068,4.76,0.342
					c1.219,1.41,1.063,3.542-0.346,4.762C107.884,90.531,105.757,90.375,104.537,88.967z"/>
				<circle fill="#FFFFFF" cx="99.399" cy="85.885" r="1.644"/>
			</g>
			<g>
				<circle fill="#0071BC" cx="70.571" cy="87.585" r="10.265"/>
				<path fill="#0F4481" d="M69.833,90.17c-1.904-2.204-1.666-5.531,0.535-7.437c2.199-1.904,5.529-1.666,7.438,0.537
					c1.902,2.201,1.664,5.53-0.539,7.436C75.067,92.611,71.737,92.371,69.833,90.17z"/>
				<path fill="#FFFFFF" d="M72.903,88.553c-1.014-1.171-0.885-2.938,0.285-3.951c1.168-1.011,2.938-0.887,3.951,0.284
					c1.012,1.171,0.883,2.939-0.287,3.954C75.683,89.851,73.915,89.722,72.903,88.553z"/>
				<circle fill="#FFFFFF" cx="68.638" cy="85.995" r="1.364"/>
			</g>
			<path fill="#BE1E2D" d="M77.911,104.96c0,0,1.594,5.406-0.25,5.688c0,0,7.25,4.438,8.438-5.031c0,0-5.563,0.688-6.938-1
				L77.911,104.96z"/>
			<path fill="#6C6F71" d="M78.73,104.997c0,0-0.014-0.027-0.038-0.073c-0.027-0.069-0.065-0.191-0.099-0.332
				c-0.045-0.163-0.029-0.254-0.038-0.39c-0.003-0.129-0.006-0.267-0.009-0.404c0.063-0.508,0.125-1.016,0.125-1.016l0.979,0.2
				c0,0-0.074,0.44-0.148,0.881c-0.001,0.102-0.003,0.204-0.004,0.299c-0.001,0.088-0.01,0.209,0.001,0.22
				c0.006,0.035-0.006,0.061-0.004,0.092c0.022,0.048,0.035,0.075,0.035,0.075L78.73,104.997z"/>
			<path fill="#6C6F71" d="M73.432,100.314c0.461,0.751,0.553,1.434,0.782,2.101c0.239,0.65,0.592,1.235,1.074,1.593
				c0.479,0.36,1.083,0.505,1.746,0.473c0.328-0.012,0.67-0.063,1.012-0.131c0.342-0.082,0.683-0.185,1.03-0.29l0.219-0.066
				l0.209,0.089c0.403,0.173,0.861,0.342,1.302,0.482c0.446,0.143,0.903,0.246,1.356,0.342c0.91,0.18,1.832,0.248,2.726,0.145
				c0.896-0.093,1.751-0.39,2.512-0.865c0.382-0.238,0.722-0.536,1.07-0.839c0.365-0.291,0.721-0.604,1.211-0.877
				c-0.043,0.55-0.244,1.052-0.553,1.478c-0.3,0.435-0.714,0.778-1.136,1.101c-0.856,0.641-1.895,1.047-2.949,1.191
				c-1.056,0.146-2.122,0.075-3.13-0.157c-0.507-0.109-0.998-0.271-1.479-0.454c-0.484-0.187-0.939-0.386-1.408-0.667l0.428,0.023
				c-0.359,0.174-0.734,0.321-1.125,0.441c-0.396,0.107-0.8,0.214-1.231,0.231c-0.844,0.077-1.818-0.146-2.533-0.742
				c-0.717-0.593-1.107-1.416-1.309-2.207C73.051,101.921,72.949,101.08,73.432,100.314z"/>
			<g>
				<path fill="#1D8FCD" d="M75.638,100.836c0,0,2.877-5.856,3.938-2.765c0,0,2.379-3.481,2.379,2.109c0,0-2.254,1.536-2.379,3.398
					C79.575,103.58,77.245,102.643,75.638,100.836z"/>
				<path fill="#FFFFFF" d="M79.575,102.152c0,0,0.146-0.791,1.262-1.578C80.837,100.574,80.425,99.058,79.575,102.152z"/>
			</g>
			<path fill="#231F20" d="M119.224,186.184c0,0,6.188,1.174,7.25-0.783c0,0,1.614,2.396,0.844,4.125
				c-0.063,0.145,0.002,0.021,0.002,0.021l-6.096-0.955L119.224,186.184z"/>
			<polyline fill="#7F7C7D" points="119.849,184.168 121.349,183.945 122.849,186.574 124.724,182.547 121.724,179.861 
				119.599,184.168 			"/>
			<path fill="#6C6F71" d="M75.974,110.616c0,0,0.044,0.146,0.123,0.403c0.061,0.227,0.147,0.551,0.251,0.939
				c0.055,0.182,0.104,0.385,0.21,0.573c0.085,0.198,0.22,0.38,0.358,0.566c0.163,0.166,0.313,0.355,0.523,0.49
				c0.196,0.149,0.407,0.285,0.647,0.385c0.453,0.23,0.958,0.397,1.45,0.489c0.48,0.13,0.968,0.132,1.367,0.205
				c0.408,0.038,0.755,0.032,0.995,0.051c0.241,0.016,0.379,0.024,0.379,0.024l0.042,0.003c0.275,0.018,0.483,0.255,0.466,0.53
				c-0.017,0.262-0.234,0.463-0.491,0.467c0,0-0.147,0.002-0.405,0.005c-0.259-0.002-0.626,0.006-1.071-0.02
				c-0.446-0.054-0.966-0.073-1.519-0.235c-0.277-0.067-0.563-0.126-0.846-0.25c-0.284-0.109-0.578-0.205-0.845-0.384
				c-0.278-0.146-0.533-0.339-0.769-0.551c-0.246-0.193-0.436-0.456-0.621-0.688c-0.164-0.257-0.313-0.507-0.403-0.77
				c-0.111-0.252-0.157-0.511-0.204-0.741c-0.03-0.235-0.034-0.451-0.002-0.641c0.024-0.189,0.079-0.349,0.13-0.476
				C75.857,110.735,75.974,110.616,75.974,110.616z"/>
			<path fill="#7C0505" d="M82.974,148.344c0,0-6.167,18.949-1.667,34.314c0,0,1.333,3.281,17.167,0.299l0.5-21.186
				C98.974,161.771,94.974,144.465,82.974,148.344z"/>
			<polygon fill="#D1A109" points="94.286,176.93 96.245,176.283 95.891,177.971 			"/>
			<path fill="#F1C119" d="M95.724,177.18c0,0-14.375,3.125-18.375-0.875c0,0,0.5,5.875,1.875,7s14,2.375,18.25,0
				S95.724,177.18,95.724,177.18z"/>
			<path fill="#930805" d="M91.307,159.385l-7-11.338l10.667-2.836l14.833-1.789l14.333-8.951l8.833,11.637
				c-4.166,12.232-2.834,39.982-2.834,39.982c-3.166,1.939-6.833,1.492-6.833,1.492l-1.667-5.818l-2.333,5.07
				c-14.667,0.896-22.333-2.236-22.333-2.236c-4.167-12.383-2.667-22.975-2.667-22.975L91.307,159.385z"/>
			<path fill="#7C0505" d="M90.724,160.221c0,0,14.667,8.75,31.167,4.584l6.916,3.75l1.834-11.834l-4.916-6.25
				C125.725,150.471,90.724,159.221,90.724,160.221z"/>
			<path fill="#820906" d="M81.182,59.471c33.125-2.5,43.479,17.25,43.479,17.25c-24.25-17.375-51.854-12.333-51.854-12.333
				S76.317,59.838,81.182,59.471z"/>
			<path fill="#A8170C" d="M101.599,126.68c0,0-2.125-5,2.5-6.5s26.75-10.25,30.625-16.125c0,0,0.332-0.583,0-1.458
				c0,0,0.457-0.083,0.625,0.25c0.166,0.333,1.791,7.125,1.791,7.125s9.084,28.959,3.334,48.459c0,0-3,3.625-14-2v-4.375l-3.5,7.375
				c0,0-10.375,7-30.375,0.5c0,0-10.125,1-12.375-1.5c0,0-2.125-9.25,11.625-23.25c0,0,3.5-4.125,1-11l3.875-1
				c0,0,1.625,0,1.875,1.375c0.25,1.375,0.75,3,0.75,3s0.167,0.346,0.531,0.48C100.488,128.27,101.63,128.242,101.599,126.68z"/>
			<path fill="#A8170C" d="M80.891,59.179c-3.757,0.284-5.832,2.332-7.365,4.262c4.44-0.636,28.729-3.223,50.529,12.03
				C121.587,70.828,109.258,57.038,80.891,59.179z"/>
			<path fill="#919496" d="M122.222,74.679l4.02,8.793C126.242,83.472,138.602,68.096,122.222,74.679z"/>
			<path fill="#D0D2D3" d="M118.566,72.877c0,0-0.379,3.253,2.646,3.706c0,0,14.82-4.84,4.008,8.166c0,0-1.209,1.967,1.285,3.705
				c0,0,9.981-8.543,6.806-15.047C133.311,73.408,130.891,66.299,118.566,72.877z"/>
			<path fill="#BF4340" d="M101.599,126.68c0.031,1.563-1.11,1.59-1.719,1.359c-0.364-0.139-0.531-0.484-0.531-0.484
				s-0.5-1.625-0.75-3c-0.042-0.232-0.133-0.414-0.239-0.574l-4.011,1.449l-0.945,0.673c0.167,0.746,0.268,1.451,0.31,2.112
				c0,0,0.865,0.439,2.094,0.918c0.859,0.339,2.417,0.084,2.417,0.084c-7.25,14-8.375,25.729-8.375,25.729l4.375,0.604
				c0.313-9.313,9.333-27.168,9.333-27.168c23.461-3.749,33.213-17.041,33.723-17.952c-0.088-0.293-0.141-0.465-0.141-0.465
				l-35.875,12.959C100.781,124.75,101.599,126.68,101.599,126.68z"/>
			<path fill="#7C0505" d="M111.474,138.055c0,0,11.667-5.584,13-15.417c0,0-3.5,0.333-5.083,4.167
				C118.735,128.391,116.473,134.137,111.474,138.055z"/>
			<path fill="#FEE86E" d="M140.252,154.592c-0.611,0.244-1.389,0.369-2.309,0.369c-2.133,0-4.438-0.66-5.746-1.105
				c-1.281-11.129-1.988-11.479-2.954-11.965l-0.515-0.229h-0.477c-1.135,0-2.313,0.416-4.226,5.426l-4.818,8.697
				c-1.979,1.219-5.197,1.855-9.353,1.855c-0.001,0,0,0-0.002,0c-8.681,0-18.623-2.732-18.722-2.764l-0.655-0.182l-0.63,0.254
				c-0.773,0.313-1.677,0.473-2.688,0.473c-1.783,0-3.944-0.5-6.249-1.447l-0.46-0.188c-0.606,2.977-0.229,4.643-0.229,4.643
				c2.25,2.5,12.375,1.5,12.375,1.5c20,6.5,30.375-0.5,30.375-0.5l3.5-7.375v4.375c11,5.625,14,2,14,2
				c0.41-1.396,0.738-2.852,1.01-4.332L140.252,154.592z"/>
			<path fill="#ED1F24" d="M110.974,138.221c0,0,7.75-1.332,11.167-12c0,0,3.333-5.583,6.083-2.333
				c2.75,3.25,5.25,27.833-15.5,33.583L110.974,138.221z"/>
			<path fill="#F1C119" d="M104.557,120.72c0,0-3.333,0.667-3.083,3.417l1.25,3.5c0,0,28.75-6.25,34.583-17.25l-1.957-7.542
				C135.35,102.845,134.391,110.638,104.557,120.72z"/>
			<path fill="#F1C119" d="M140.475,158.43c0.19-0.646,0.363-1.313,0.522-1.979c-4.062,1.631-10.647-1.146-10.647-1.146
				s-1.25-11.25-2-11.625s-2.5,4.25-2.5,4.25l-5.125,9.25c-8.125,5.75-30.125-0.375-30.125-0.375
				c-3.341,1.354-7.487,0.234-10.445-0.979c-0.139,1.688,0.07,2.604,0.07,2.604c2.25,2.5,12.375,1.5,12.375,1.5
				c20,6.5,30.375-0.5,30.375-0.5l3.5-7.375v4.375C137.475,162.055,140.475,158.43,140.475,158.43z"/>
			<path fill="#F1C119" d="M103.571,138.863c0,0,0.393-0.523,1.701-0.523c1.309,0,4.187,0.131,4.776-0.262
				c0,0,0.785-0.523,1.374,0.066c0.589,0.588,4.318,9.42,2.225,20.086c0,0-6.739,2.023-10.403,1.375"/>
			<path fill="#D1A311" d="M102.497,139.678c0.464-0.762,2.447-2.344,3.977,0.586c1.53,2.928,3.212,18.352-2.448,19.455
				c-5.66,1.105-3.961-11.961-3.824-12.428C100.381,146.68,101.433,141.422,102.497,139.678z"/>
			<path fill="#BF4340" d="M135.35,102.845c-0.168-0.333-0.625-0.25-0.625-0.25c0.332,0.875,0,1.458,0,1.458
				c-3.875,5.875-26,14.625-30.625,16.125s-2.5,6.5-2.5,6.5c0.031,1.563-1.11,1.59-1.719,1.359
				c-0.364-0.139-0.531-0.484-0.531-0.484s-2.313,2.375,0.375,2.625s4.006-1.998,3.563-2.875c-2.229-4.417,0-5.625,0-5.625
				c19.438-5.688,29.688-13.688,31.438-15.375c0.567-0.55,0.916-1.29,0.982-2.163C135.527,103.437,135.391,102.93,135.35,102.845z"
				/>
			<path fill="#9E7902" d="M102.811,140.357c0.367-0.707,1.933-2.174,3.141,0.545c1.208,2.717,2.537,17.033-1.933,18.061
				c-4.47,1.028-3.045-11.102-3.02-11.537C101.036,146.773,101.971,141.977,102.811,140.357z"/>
			<path fill="#F1C119" d="M96.724,123.429c-0.168,0-0.708,0.043-1.372,0.104l-2.503,0.646c0.546,1.5,0.794,2.862,0.867,4.086
				c1.113,0.047,4.123,0.094,5.633-0.711l-1.25-2.75C98.099,124.804,97.224,123.429,96.724,123.429z"/>
			<path fill="#FFFFFF" d="M107.021,146.133c-0.161-1.311-0.36-2.48-0.575-3.418c-1.145,0.018-2.097-0.098-2.097-0.098l0.438,3.625
				C105.571,146.428,106.335,146.342,107.021,146.133z"/>
			<path fill="#BF4340" d="M97.286,124.304c0.152,0.607,1.499,4.282,1.969,5.032c0.304,0.484,0.531-0.656,0.094-1.781
				c0,0-0.5-1.625-0.75-3c-0.25-1.375-1.875-1.375-1.875-1.375l-1.614,0.416C95.63,123.546,97.081,123.484,97.286,124.304z"/>
			<path fill="#FEE86E" d="M122.141,126.221c0,0,0.058-0.096,0.163-0.254c0.611-0.911,2.427-3.24,4.67-2.33
				c2.875,1.167,3.666,10.333,2.582,14.833c0,0,4.539-11.604-1.166-16.167C125.057,119.637,122.391,125.805,122.141,126.221z"/>
			<path fill="none" stroke="#540404" stroke-linecap="round" stroke-miterlimit="10" d="M96.411,130.367
				c0,0,2.063,2.563,7.625-0.438"/>
			<path fill="none" stroke="#540404" stroke-linecap="round" stroke-miterlimit="10" d="M94.849,134.367
				c0,0,2.063,2.563,7.625-0.438"/>
			<path fill="none" stroke="#540404" stroke-linecap="round" stroke-miterlimit="10" d="M93.286,138.43
				c0,0,1.813,3.188,7.375,0.188"/>
			<path fill="none" stroke="#540404" stroke-linecap="round" stroke-miterlimit="10" d="M91.661,142.742
				c0,0,1.813,3.188,7.375,0.188"/>
			<path fill="none" stroke="#540404" stroke-linecap="round" stroke-miterlimit="10" d="M89.974,147.264
				c0,0,1.75,3.666,7.313,0.666"/>
			<path fill="none" stroke="#540404" stroke-linecap="round" stroke-miterlimit="10" d="M89.224,151.514
				c0,0,1.813,3.541,7.375,0.541"/>
			<path fill="#F1C119" d="M90.479,154.695c0,0-0.797-0.645-0.881-0.354c-0.083,0.293-1.417,4.666-0.125,5.709
				c0,0,3.75,0.25,5,0.584c0,0-0.5-4.709-0.25-5.084S91.194,154.961,90.479,154.695z"/>
			<path fill="#D1A109" d="M94.495,177.408c0,0-1.458,1.709-2.375,7.168c0,0,3.375-0.166,4.417-0.979L94.495,177.408z"/>
			<path fill="#D0D2D3" d="M98.724,133.887c0,0,1.5-1.998,2.25-0.666c0.75,1.334-0.25,3.334,1.167,4.416
				c1.417,1.084-3.083-1.166-3.083-1.166L98.724,133.887z"/>
			<path fill="#D0D2D3" d="M87.583,133.887c0,0-1.5-1.998-2.25-0.666c-0.75,1.334,0.25,3.334-1.167,4.416
				c-1.417,1.084,3.083-1.166,3.083-1.166L87.583,133.887z"/>
			<path fill="#F1C119" d="M94.286,176.93c0,0,0.563,6.625,2.25,7.563c0,0,19.938,6.625,33.875,1.813c0,0,0.813-2.313,0.75-8.125
				C131.161,178.18,114.786,183.492,94.286,176.93z"/>
			<path fill="#111010" d="M99.757,146.141c0,0.857-0.505,1.559-1.129,1.559H86.946c-0.624,0-1.129-0.697-1.129-1.559v-23.02
				c0-0.859,0.505-1.555,1.129-1.555h11.682c0.624,0,1.129,0.695,1.129,1.555V146.141z"/>
			<path fill="#FFFFFF" d="M104.807,142.887c0,0-1-6.5-5.5-7c0,0-3.667-0.332-4.333,0.918c0,0-0.833,1.582,0.917,1.832
				s3.417,0.334,3.917,0.75c0,0-5.5-0.332-7,1.418c0,0-0.917,2.082,1.25,2.332s6.75-1.082,6.75,0.25
				c0,1.334,1.833,5.334,4.833,2.668C108.64,143.387,104.807,142.887,104.807,142.887z"/>
			<path fill="#F1C119" d="M82.071,138.113c0,0-0.394-0.523-1.701-0.523c-1.309,0-4.187,0.131-4.776-0.262
				c0,0-0.785-0.523-1.374,0.066c-0.589,0.588-4.318,9.42-2.225,20.086c0,0,6.739,2.023,10.403,1.375"/>
			<path fill="#D1A311" d="M83.146,138.928c-0.464-0.762-2.447-2.344-3.977,0.586c-1.53,2.928-3.212,18.352,2.448,19.455
				c5.66,1.105,3.961-11.961,3.824-12.428C85.261,145.93,84.209,140.672,83.146,138.928z"/>
			<path fill="#9E7902" d="M82.832,139.607c-0.367-0.707-1.933-2.174-3.141,0.545c-1.208,2.717-2.537,17.033,1.933,18.061
				c4.47,1.028,3.045-11.102,3.02-11.537C84.606,146.023,83.671,141.227,82.832,139.607z"/>
			<path fill="#FFFFFF" d="M78.621,145.383c0.161-1.311,0.36-2.48,0.575-3.418c1.144,0.018,2.097-0.098,2.097-0.098l-0.438,3.625
				C80.071,145.678,79.307,145.592,78.621,145.383z"/>
			<path fill="#FFFFFF" d="M80.835,142.137c0,0,1-6.5,5.5-7c0,0,3.667-0.332,4.333,0.918c0,0,0.833,1.582-0.917,1.832
				s-3.417,0.334-3.917,0.75c0,0,5.5-0.332,7,1.418c0,0,0.917,2.082-1.25,2.332s-6.75-1.082-6.75,0.25
				c0,1.334-1.833,5.334-4.833,2.668C77.002,142.637,80.835,142.137,80.835,142.137z"/>
			<circle fill="#443E3E" cx="92.578" cy="123.408" r="0.938"/>
			<path fill="#D0D2D3" d="M192.307,109.97c-7.166-0.167-13.562-17.848-21.332,0.167c-7.334,17,0.795,49.355-18.326,59.671
				c0.971-0.199,1.937-0.498,2.853-0.938c1.062-0.427,1.94-1.115,2.854-1.771c0.797-0.735,1.664-1.478,2.283-2.332
				c2.709-3.354,4.166-7.197,5.241-11.011c0.304-0.959,0.509-1.918,0.72-2.883l0.319-1.448l0.08-0.363l0.075-0.383l0.129-0.728
				c0.33-2,0.566-3.845,0.82-5.726c0.977-7.446,2.025-14.769,3.688-21.31c0.828-3.257,1.807-6.313,2.98-8.911
				c1.149-2.589,2.605-4.709,3.91-5.688c0.646-0.5,1.187-0.727,1.688-0.807c0.499-0.089,1.023-0.069,1.635,0.077
				c1.225,0.29,2.577,1.039,3.645,1.789c1.084,0.739,1.936,1.482,2.507,1.984c0.567,0.521,0.874,0.801,0.874,0.801l0.133,0.122
				c0.047,0.042,0.095,0.084,0.146,0.125c2.109,1.78,5.27,1.511,7.051-0.603c1.584-1.881,1.535-4.582,0.019-6.41
				C196.831,106.341,196.672,110.072,192.307,109.97z"/>
		</g>
		<g>
			<g>
				<path fill="#D0D2D3" d="M93.725,55.796c4.448,0,9.651,0.935,15.348,3.67c0.998-0.876,2.302-1.412,3.734-1.412
					c3.129,0,5.667,2.537,5.667,5.667c0,0.729-0.142,1.42-0.392,2.061c1.498,1.558,2.883,3.384,3.989,5.48
					c1.747-0.67,3.234-1.014,4.498-1.127c0.014-0.001,0.021-0.002,0.033-0.003c0.199-0.018,0.396-0.028,0.584-0.035
					c0.021-0.001,0.041-0.002,0.063-0.002c0.092-0.002,0.186-0.004,0.271-0.004c0.088,0,0.176,0.001,0.262,0.004
					c0.021,0,0.046,0.001,0.066,0.001c0.172,0.006,0.336,0.017,0.495,0.031c0.021,0.001,0.041,0.003,0.063,0.005
					c0.162,0.016,0.316,0.036,0.47,0.06c0.019,0.002,0.033,0.005,0.05,0.008c0.153,0.025,0.303,0.054,0.445,0.087
					c0.011,0.002,0.021,0.004,0.029,0.007c0.146,0.035,0.293,0.073,0.432,0.115c0.001,0,0.001,0,0.002,0
					c1.29,0.393,2.139,1.078,2.671,1.697c0.005,0.005,0.011,0.011,0.017,0.016c0.054,0.061,0.104,0.121,0.146,0.181
					c0.008,0.01,0.02,0.021,0.021,0.03c0.043,0.056,0.084,0.11,0.121,0.164c0.01,0.013,0.021,0.025,0.024,0.038
					c0.035,0.05,0.067,0.099,0.101,0.146c0.01,0.015,0.021,0.029,0.026,0.044c0.026,0.044,0.056,0.086,0.077,0.127
					c0.01,0.016,0.02,0.03,0.025,0.045c0.021,0.039,0.043,0.076,0.063,0.112c0.007,0.014,0.016,0.026,0.021,0.039
					c0.019,0.034,0.033,0.066,0.049,0.096c0.007,0.013,0.012,0.024,0.018,0.036c0.014,0.026,0.023,0.052,0.034,0.074
					c0.007,0.014,0.011,0.024,0.017,0.036c0.008,0.017,0.017,0.034,0.021,0.047c0.005,0.014,0.009,0.022,0.013,0.032
					c0.003,0.008,0.007,0.017,0.011,0.022c0.004,0.011,0.006,0.018,0.006,0.018c0.139,0.28,0.238,0.564,0.33,0.851
					c0.017,0.046,0.026,0.092,0.041,0.138c1.105,3.85-1.766,8.201-4.201,11.029c0.231,0.85,0.434,1.711,0.58,2.585
					c1.942,5.554,3.526,10.735,4.795,15.577c0.031-0.251,0.021-0.589-0.131-0.993c0,0,0.052-0.009,0.125-0.009
					c0.146,0,0.39,0.037,0.5,0.259c0.011,0.021,0.023,0.068,0.047,0.138c0.014,0.039,0.027,0.099,0.046,0.151
					c0.012,0.04,0.021,0.07,0.032,0.118c0.02,0.064,0.039,0.145,0.062,0.221c0.017,0.057,0.026,0.105,0.045,0.168
					c0.021,0.08,0.046,0.174,0.067,0.263c0.02,0.071,0.035,0.136,0.057,0.212c0.002,0.009,0.004,0.016,0.006,0.024l0,0
					c0.178,0.688,0.396,1.566,0.606,2.433l0.989,3.813c-0.01,0.015-0.021,0.03-0.025,0.045c0.001,0.001,0.001,0.001,0.001,0.002
					c1.065,3.578,7.924,27.821,3.772,45.748c-0.013,0.049-0.021,0.096-0.031,0.146c-0.165,0.711-0.348,1.414-0.549,2.104
					c0,0-0.553,0.647-2.016,0.971c0.528,0.367,1.063,0.733,1.628,1.093c0.657,0.414,1.331,0.817,2.041,1.2
					c1.14,0.586,2.333,1.16,3.569,1.548c1.232,0.434,2.502,0.651,3.706,0.672c0.088,0.003,0.174,0.005,0.261,0.005
					c1.115,0,2.135-0.271,3.064-0.771c0.527-0.205,0.974-0.646,1.463-0.987c0.431-0.481,0.921-0.869,1.303-1.479
					c1.66-2.216,2.816-5.354,3.582-8.683c0.229-0.815,0.371-1.685,0.521-2.547l0.229-1.297l0.061-0.324l0.049-0.308l0.09-0.662
					c0.209-1.709,0.377-3.604,0.549-5.461c0.671-7.5,1.428-15.147,2.938-22.362c0.762-3.611,1.7-7.125,3.049-10.482
					c0.675-1.678,1.461-3.319,2.445-4.896c0.987-1.571,2.152-3.098,3.694-4.412c1.511-1.315,3.425-2.384,5.438-2.863
					c1.063-0.266,2.113-0.376,3.11-0.376c0.888,0,1.729,0.087,2.496,0.229c3.285,0.644,5.479,1.923,7.158,2.95
					c1.681,1.052,2.815,1.977,3.599,2.604c0.76,0.638,1.162,0.979,1.162,0.979c0.23,0.196,0.436,0.414,0.621,0.64l0,0
					c0.146,0.179,0.271,0.371,0.393,0.563c0.043,0.068,0.092,0.133,0.129,0.202c0.101,0.178,0.178,0.362,0.252,0.548
					c0.041,0.098,0.082,0.194,0.113,0.294c0.061,0.174,0.104,0.349,0.143,0.528c0.023,0.123,0.051,0.245,0.064,0.369
					c0.021,0.165,0.037,0.329,0.047,0.496c0.006,0.145,0.002,0.289-0.008,0.434c-0.007,0.151-0.016,0.3-0.035,0.45
					c-0.021,0.166-0.063,0.328-0.103,0.491c-0.032,0.131-0.062,0.261-0.104,0.39c-0.063,0.188-0.146,0.371-0.23,0.553
					c-0.049,0.099-0.083,0.201-0.139,0.297c-0.151,0.276-0.332,0.542-0.543,0.793c-0.987,1.175-2.402,1.78-3.828,1.78
					c-1.139,0-2.281-0.387-3.224-1.177c-0.048-0.041-0.096-0.083-0.143-0.125l-0.134-0.122c0,0-0.305-0.278-0.873-0.801
					c-0.571-0.502-1.422-1.245-2.504-1.984c-1.066-0.75-2.42-1.499-3.646-1.789c-0.368-0.088-0.706-0.13-1.023-0.13
					c-0.211,0-0.412,0.018-0.607,0.053c-0.501,0.08-1.04,0.307-1.688,0.807c-1.303,0.978-2.759,3.098-3.91,5.688
					c-1.176,2.599-2.15,5.654-2.979,8.911c-1.658,6.542-2.711,13.86-3.688,21.308c-0.254,1.882-0.489,3.726-0.818,5.726
					l-0.131,0.728l-0.073,0.386l-0.08,0.36l-0.317,1.448c-0.211,0.966-0.416,1.925-0.722,2.884c-1.073,3.813-2.53,7.655-5.239,11.01
					c-0.619,0.854-1.486,1.597-2.283,2.332c-0.914,0.651-1.799,1.345-2.856,1.771c-0.463,0.224-0.938,0.406-1.421,0.563
					c-1.027,0.34-2.08,0.539-3.107,0.611c0,0,0,0-0.002,0c-0.188,0.016-0.369,0.02-0.558,0.022c-0.185,0.007-0.366,0.011-0.55,0.011
					c-0.229,0-0.449-0.006-0.67-0.021c-2.021-0.116-3.865-0.573-5.479-1.207c-1.646-0.6-3.075-1.363-4.414-2.129
					c-2.638-1.568-4.793-3.256-6.618-4.813c-0.775-0.668-1.479-1.311-2.141-1.925c-0.521,6.142-0.628,12.599-0.602,17.558
					c0.733,0.084,1.223,0.641,1.223,0.641c0.063,5.813-0.75,8.125-0.75,8.125c-0.611,0.211-1.236,0.395-1.868,0.563
					c-0.413,0.155-0.817,0.283-1.222,0.385c0.22,0.729,0.314,1.557-0.008,2.275c-0.002,0.006-0.002,0.004-0.004,0.01
					c0.002,0.002,0.006,0.008,0.006,0.008l-0.055,3c-7.213,1.252-13.16,1.672-17.896,1.672c-9.655,0-14.271-1.744-14.271-1.744
					l0.027-0.594c-3.278,0.313-6.193,0.437-8.754,0.437c-9.655,0-14.272-1.743-14.272-1.743l0.167-3.656
					c0.043,0.024,0.106,0.049,0.156,0.069c-0.234-0.213-0.187-0.438,0.24-0.681c2.526-1.416,6.025-2.114,8.144-2.434
					c-0.785-0.18-1.348-0.373-1.582-0.563c-1.375-1.125-1.875-7-1.875-7s1.026-0.744,2.158-0.744c0.147,0,0.297,0.014,0.446,0.041
					c-0.624-5.896-0.136-11.813,0.619-16.623c-3.711-0.039-8.575-1.498-8.575-1.498c-0.266-1.354-0.437-2.682-0.533-3.965
					c-5.088-15.989,6.139-22.397,14.354-24.908V123.7C68.932,121.693,55.564,110.88,53,97.175c-0.29-1.336-0.448-2.707-0.448-4.105
					c0-0.124,0.01-0.245,0.012-0.368c-0.001-0.111-0.01-0.22-0.01-0.332c0-3.945,0.895-7.719,2.515-11.203
					c-0.001,0-0.011,0.002-0.011,0.002s-5.603-10.189,1.6-10.189c1.25,0,2.888,0.308,5.007,1.029
					c0.003,0.001,0.005,0.002,0.008,0.003c3.277-3.172,7.306-5.81,11.863-7.74c-0.475,0.068-0.729,0.114-0.729,0.114
					s0.312-0.399,0.865-0.966c-0.046,0.006-0.104,0.014-0.147,0.02c1.268-1.596,2.922-3.256,5.575-3.95
					C81.223,58.281,86.47,55.795,93.725,55.796 M99.524,122.183c0.833-0.291,1.782-0.631,2.826-1.021
					c0.003-0.004,0.006-0.006,0.009-0.008c-1.048,0.391-2.001,0.731-2.839,1.022C99.521,122.179,99.523,122.181,99.524,122.183
					 M93.725,54.796c-7.453,0-12.902,2.58-15.007,3.763c-2.936,0.808-4.734,2.697-5.976,4.261l-0.871,1.097
					c-3.952,1.823-7.461,4.159-10.454,6.959c-1.861-0.593-3.462-0.895-4.76-0.895c-2.417,0-3.545,1.05-4.066,1.931
					c-1.673,2.828,0.559,7.729,1.358,9.301c-1.59,3.579-2.396,7.33-2.396,11.158c0,0.075,0.003,0.15,0.006,0.225l0.004,0.12
					l-0.005,0.099c-0.004,0.085-0.007,0.17-0.007,0.256c0,1.426,0.158,2.879,0.471,4.317c2.579,13.781,16.002,24.875,32.795,27.192
					v3.295c-4.779,1.563-10.79,4.577-13.768,10.254c-2.271,4.329-2.464,9.569-0.575,15.578c0.105,1.343,0.287,2.677,0.54,3.966
					l0.116,0.593l0.578,0.174c0.184,0.058,4.14,1.23,7.708,1.49c-0.751,5.25-0.94,10.184-0.563,14.688
					c-1.116,0.188-1.982,0.798-2.093,0.878l-0.458,0.332l0.048,0.563c0.109,1.274,0.521,5.123,1.651,6.979
					c-1.959,0.435-4.096,1.087-5.831,2.062c-0.077,0.043-0.15,0.088-0.217,0.137l-0.613-0.36l-0.076,1.661l-0.167,3.654
					l-0.033,0.728l0.679,0.256c0.196,0.074,4.9,1.81,14.626,1.81c2.455,0,5.042-0.11,7.704-0.334l-0.008,0.173l0.678,0.258
					c0.195,0.073,4.898,1.81,14.624,1.81c5.541,0,11.62-0.565,18.066-1.686l0.813-0.143l0.016-0.826l0.053-2.853
					c0.19-0.542,0.248-1.129,0.174-1.765c0.119-0.041,0.238-0.083,0.357-0.13c0.729-0.191,1.327-0.375,1.889-0.566l0.457-0.157
					l0.16-0.455c0.037-0.103,0.871-2.547,0.811-8.469l-0.004-0.367l-0.243-0.277c-0.056-0.063-0.401-0.444-0.978-0.717
					c-0.014-3.944,0.063-9.346,0.438-14.703c0.218,0.188,0.433,0.379,0.649,0.563c1.479,1.268,3.795,3.149,6.759,4.915
					c1.368,0.781,2.858,1.582,4.584,2.209c1.838,0.726,3.784,1.15,5.762,1.269c0.228,0.019,0.478,0.021,0.729,0.021
					c0.189,0,0.39-0.004,0.586-0.012l0.08-0.003c0.17-0.007,0.339-0.013,0.512-0.022c1.146-0.082,2.273-0.305,3.352-0.66
					c0.521-0.166,1.03-0.365,1.51-0.595c1.021-0.416,1.865-1.024,2.688-1.617l0.354-0.252l0.052-0.036l0.048-0.045l0.376-0.345
					c0.709-0.646,1.44-1.317,2.021-2.112c3.013-3.734,4.475-8.023,5.408-11.347c0.295-0.933,0.504-1.888,0.704-2.813l0.028-0.129
					l0.318-1.447l0.08-0.362l0.08-0.405l0.131-0.742c0.293-1.771,0.518-3.433,0.729-5.037l0.1-0.729
					c0.926-7.062,1.971-14.509,3.666-21.194c0.879-3.459,1.861-6.402,2.922-8.745c1.07-2.407,2.45-4.436,3.603-5.3
					c0.614-0.475,1.004-0.58,1.244-0.619c0.157-0.028,0.302-0.041,0.448-0.041c0.244,0,0.506,0.034,0.793,0.104
					c0.938,0.222,2.143,0.817,3.305,1.634c1.057,0.721,1.876,1.441,2.418,1.917l0.855,0.787l0.133,0.121
					c0.061,0.053,0.113,0.101,0.17,0.148c1.088,0.917,2.459,1.418,3.871,1.418c1.773,0,3.449-0.778,4.596-2.135
					c0.242-0.29,0.456-0.601,0.648-0.952c0.051-0.089,0.094-0.182,0.133-0.276l0.033-0.078c0.088-0.188,0.195-0.417,0.278-0.667
					c0.041-0.125,0.072-0.25,0.104-0.377l0.021-0.088c0.052-0.198,0.097-0.396,0.121-0.596c0.022-0.175,0.037-0.354,0.045-0.539
					c0.011-0.173,0.015-0.346,0.006-0.52c-0.009-0.198-0.024-0.394-0.053-0.59c-0.021-0.153-0.05-0.298-0.081-0.444
					c-0.051-0.238-0.104-0.44-0.168-0.632c-0.034-0.102-0.073-0.201-0.114-0.301l-0.022-0.057c-0.081-0.205-0.178-0.429-0.303-0.656
					c-0.035-0.063-0.076-0.128-0.119-0.192l-0.03-0.048c-0.138-0.221-0.285-0.452-0.476-0.68c-0.256-0.31-0.494-0.554-0.746-0.766
					l-1.162-0.979l-0.104-0.082c-0.771-0.62-1.938-1.558-3.609-2.604c-1.883-1.152-4.16-2.43-7.496-3.083
					c-0.894-0.165-1.793-0.248-2.688-0.248c-1.147,0-2.276,0.137-3.354,0.406c-2.049,0.487-4.133,1.581-5.854,3.079
					c-1.425,1.213-2.662,2.688-3.885,4.634c-0.938,1.501-1.767,3.155-2.527,5.056c-1.227,3.055-2.211,6.438-3.101,10.648
					c-1.521,7.271-2.292,15.095-2.953,22.479l-0.051,0.539c-0.15,1.65-0.309,3.359-0.494,4.891l-0.09,0.648l-0.045,0.285
					l-0.055,0.301l-0.229,1.299l-0.031,0.181c-0.142,0.804-0.271,1.563-0.47,2.274c-0.824,3.591-2.004,6.461-3.42,8.353
					l-0.023,0.033l-0.021,0.032c-0.196,0.318-0.445,0.568-0.733,0.858c-0.131,0.134-0.263,0.265-0.39,0.4
					c-0.131,0.095-0.258,0.192-0.385,0.294c-0.274,0.219-0.539,0.425-0.771,0.514l-0.06,0.022l-0.056,0.028
					c-0.813,0.438-1.661,0.646-2.594,0.646c-0.074,0-0.146-0.001-0.226-0.004c-1.142-0.02-2.313-0.229-3.412-0.616
					c-1.215-0.379-2.368-0.938-3.441-1.489c-0.584-0.313-1.214-0.688-1.965-1.158c-0.014-0.012-0.023-0.02-0.039-0.023
					c0.391-0.25,0.591-0.473,0.652-0.544l0.138-0.161l0.062-0.203c0.188-0.646,0.375-1.351,0.563-2.156l0.022-0.113
					c4.063-17.54-2.09-40.503-3.67-45.899l0.021-0.033l-0.094-0.348v-0.137l-0.049-0.048l-0.945-3.65
					c-0.209-0.857-0.432-1.738-0.604-2.43l-0.043-0.163l-0.021-0.078l-0.07-0.271l-0.021-0.078l-0.021-0.082l-0.024-0.104
					l-0.037-0.132l-0.037-0.133l-0.047-0.161c-0.049-0.156-0.092-0.256-0.114-0.302c-0.177-0.35-0.481-0.603-0.861-0.724
					c-1.211-4.447-2.67-9.115-4.346-13.906c-0.117-0.678-0.267-1.365-0.45-2.086c2.582-3.099,5.229-7.491,4.063-11.554
					c-0.014-0.047-0.028-0.107-0.049-0.166c-0.113-0.359-0.229-0.661-0.363-0.941l-0.006-0.015l-0.008-0.018l-0.021-0.049
					l-0.011-0.021l-0.047-0.104l-0.026-0.059l-0.074-0.151l-0.001-0.002l-0.023-0.046c-0.021-0.045-0.051-0.092-0.078-0.141
					l-0.049-0.085c-0.011-0.017-0.043-0.07-0.076-0.125l-0.877,0.484l0.847-0.535c-0.033-0.053-0.069-0.107-0.107-0.162
					l-0.012-0.018l-0.033-0.045c-0.039-0.056-0.08-0.113-0.125-0.171l-0.008-0.011l-0.049-0.06c-0.048-0.06-0.104-0.135-0.173-0.21
					c-0.797-0.923-1.854-1.605-3.071-1.992l-0.142-0.068h-0.088c-0.11-0.031-0.229-0.061-0.349-0.088l-0.022-0.006l-0.055-0.011
					c-0.117-0.028-0.287-0.061-0.463-0.09l-0.066-0.011c-0.157-0.025-0.332-0.047-0.515-0.065l-0.089-0.008
					c-0.158-0.015-0.345-0.026-0.535-0.033l-0.076-0.001c-0.092-0.003-0.188-0.004-0.285-0.004c-0.1,0-0.196,0.001-0.299,0.004
					l-0.084,0.003c-0.188,0.006-0.402,0.018-0.621,0.037c-1.241,0.111-2.566,0.411-3.979,0.895
					c-0.914-1.588-2.024-3.096-3.313-4.498c0.168-0.592,0.253-1.198,0.253-1.811c0-3.676-2.991-6.667-6.667-6.667
					c-1.391,0-2.741,0.438-3.868,1.243C103.913,55.974,98.798,54.796,93.725,54.796L93.725,54.796z"/>
			</g>
		</g>
	</g>
</g>
<g>
	<path opacity="0.15" d="M217.208,177.842l-2.639,0.377v-14.827h-13.258c2.607-7.86,4.025-16.262,4.025-24.997
		c0-37.82-26.446-69.442-61.848-77.441l-3.665-12.357L123.402,36.83l-21.381-1.865l-12.659,5.453l-8.722,9.47l-7.7,16.646v12.74
		c-16.219,14.533-26.434,35.626-26.434,59.121c0,8.736,1.432,17.135,4.038,24.997h-9.872v57.181h124.202h49.695v-21.517
		L217.208,177.842z"/>
	<path fill="#FFB400" d="M214.004,174.639l-2.639,0.376v-14.827h-13.257c2.606-7.859,4.024-16.261,4.024-24.997
		c0-37.819-26.446-69.442-61.848-77.441l-3.664-12.357l-16.423-11.767l-21.381-1.865l-12.659,5.453l-8.722,9.47l-7.7,16.646v12.74
		c-16.219,14.533-26.434,35.626-26.434,59.121c0,8.737,1.432,17.135,4.038,24.997h-9.872v57.182H161.67h49.695v-21.518
		L214.004,174.639z"/>
	<g>
		<path fill="#FFF200" d="M156.565,122.35c-28.019-11.618-40.02-37.877-47.958-65.299c-37.125,6.661-65.305,39.099-65.305,78.14
			c0,43.86,35.556,79.415,79.416,79.415c12.08,0,23.525-2.711,33.776-7.536C157.176,178.809,156.565,150.886,156.565,122.35z"/>
		<path fill="#FFB400" d="M202.133,135.19c0-43.859-35.557-79.415-79.415-79.415c-4.819,0-9.528,0.453-14.11,1.275
			c7.938,27.422,19.939,53.681,47.958,65.299c0,28.536,0.61,56.458-0.071,84.719C183.46,194.375,202.133,166.969,202.133,135.19z"/>
		<path fill="#EFE565" d="M37.468,160.188v57.182H161.67c0-19.061,0-38.121,0-57.182H37.468z"/>
		<path fill="#FFFCC2" d="M211.365,160.188H161.67c0,19.061,0,38.121,0,57.182h49.695V160.188z"/>
		<path fill="#FFB400" d="M143.188,80.549c0,0,19.882-4.184,31.666,5.298c0,0,11.091-4.867,7.896,9.142
			c0,0,8.218,18.001-9.303,30.408c0,0,4.476,14.703,1.036,34.791H88.535L143.188,80.549z"/>
		<path fill="#FFB400" d="M74.541,160.188l-4.804-9.184l2.87-7.318c0,0-7.707-14.527,1.934-24.052l4.379-2.053l-3.443-10.725
			c0,0-3.348,2.139-4.784-2.47c0,0-10.235-20.681-0.956-23.407V63.33l7.7-16.646l8.722-9.47l12.659-5.453l21.381,1.865
			l16.423,11.767l5.149,17.363l1.417,17.794l-3.148,7.242l3.673,38.963l-9.395,33.434H74.541z"/>
		<polygon fill="#FFF200" points="129.141,119.938 138.049,124.983 138.711,160.188 92.416,160.188 98.085,137.803 		"/>
		<g>
			<path fill="#565759" d="M105.419,134.481c0,0,16.368,0.739,24.639-12.605c0,0-7.515,15.258-15.072,21.858
				c0,0-13.824,13.871-15.259,16.453C99.727,160.188,89.483,144.34,105.419,134.481z"/>
			<path fill="#FFEC66" d="M76.73,160.188c0,0-4.315-8.704-1.254-17.601c0,0-7.878-8.704,0.127-20.71c0,0,19.176-6.819,22.482,3.107
				l7.334,9.498c0,0-0.382,11.739-6.505,20.925l0.813,4.781H76.73z"/>
			<path fill="#FFEC66" d="M138.711,79.544c0,0,2.629-2.456,3.537,6.951l-11.293,33.443c0,0-5.712,17.671-29.565,14.972
				l-17.783-10.883c0,0-6.149-16.899-6.877-19.642c0,0-3.914,4.313-6.468-6.749c0,0-6.409-16.801,3.971-14.649l6.505-22.242
				l7.032-15.354l34.963,0.431l11.898,14.493L138.711,79.544z"/>
			<g>
				<path fill="#565759" d="M92.416,115.219c0,0,4.159-0.931,6.659,0.35c0,0,1.646,0.863,5.913-0.757c0,0,1.22-0.807,2.987,0.494
					c0,0,2.074-1.791,4.207-0.124c0,0,2.744,3.223,5.365,0.617c0,0,2.255-1.695,2.195,1.781c0,0-1.465-1.097-4.329-0.305
					c0,0-1.646,0.549-3.535-0.731c0,0-2.623-1.159-3.963,0.182c0,0-5.669-1.34-7.986-0.365c0,0-0.85,0.081-2.682-0.731
					C97.245,115.63,94.793,115.097,92.416,115.219z"/>
				<path fill="#565759" d="M101.39,117.275c0,0,5.122,3.414,10.669,0.305h0.609C112.668,117.58,107.304,122.885,101.39,117.275z"/>
			</g>
			<path fill="#565759" d="M105.419,107.397c0,0-0.957-1.833-2.87-0.78c0,0-3.731,0.991-3.444-2.231l-3.157,1.332l-1.914,2.431
				l4.114-2.431c0,0,2.582,3.674,5.166,1.282C103.314,107,104.557,106.551,105.419,107.397z"/>
			<path fill="#565759" d="M109.915,106.713c0,0,2.392-1.052,4.018,0c0,0,3.347-0.096,0.383-5.262l3.3,1.923
				c0,0-0.777,6.008,5.852,8.887c0,0-5.931-1.724-6.776-7.368c0,0-0.272,3.188-3.523,2.504
				C113.167,107.397,111.637,106.331,109.915,106.713z"/>
			<path fill="#969798" d="M86,118.438c0,0,1.147-3.833,11.479,1.5c0,0,5.356,2.799,7.27,0c0,0,1.531,0.593,4.306,0.38
				c0,0-0.957,3.229,6.887,4.665c0,0-6.632-0.523-8.913-2.784c0,0-5.533,8.932,10.586,7.532c0,0-2.495,3.575-11.65,3.958
				c0,0,0.485-7.939-4.575-8.706C101.39,124.983,92.504,118.586,86,118.438z"/>
			<path fill="#565759" d="M95.47,121.929c0,0-9.853-5.351-15.402-2.295h1.817C81.885,119.633,84.654,117.346,95.47,121.929z"/>
			<path fill="#565759" d="M102.932,131.872c0,0,1.892-5.871-1.542-6.475C101.39,125.397,104.175,126.038,102.932,131.872z"/>
			<path fill="#565759" d="M97.479,131.872c0,0,4.113-9.661-9.089-10.954c0,0-13.105-4.162-14.158,4.065
				c0,0,1.251-7.083,14.636-3.055C88.869,121.929,99.201,120.775,97.479,131.872z"/>
			<path fill="#565759" d="M75.763,141.192c0,0,1.339-6.929,2.774-7.503c0,0-2.487-0.075,0.382-5.921c0,0-2.678,3.178-4.304,0.866
				c0,0-0.531,3.928,1.244,5.055C75.859,133.689,75.094,137.314,75.763,141.192z"/>
			<path fill="#565759" d="M71.697,83.419c0,0,4.326,1.694,5.033,11.036h1.568v-9.888l1.77-2.923l1.674-7.696V63.186
				c0,0,3.157-4.018,3.3-9.184c0,0,9.041-2.009,19.229,3.587c0,0,12.857-2.44,21.423,4.878c0,0-4.921-6.313-11.236-7.031
				c0,0,16.416-1.292,15.599,16.358l-1.305-0.287l0.997,2.544l1.601,0.756l3.28,14.18l1.851-1.695c0,0,0.39-4.592,3.389-6.888
				l-1.159-18.367l-6.124-15.785l-14.972-10.188l-18.798-0.813c0,0-17.341,1.818-22.087,17.89l-5.033,10.332
				C71.697,63.473,72.415,80.692,71.697,83.419z"/>
			<path fill="#969798" d="M112.211,83.85c0,0-29.369-1.742-31.187,7.5h-1.339l-4.209-9.126v0.958l3.827,10.096h2.009
				c0,0-3.157,12.072,10.236,11.849c0,0,12.042,2.097,11.903-9.016c0,0,1.011-5.66,1.968-6.521c0,0,3.539-0.478,3.922,0.478
				c0,0,2.05,13.808,10.4,13.266l3.726,0.041l-1.199-0.876c0,0-9.962,2.494-11.875-12.717c0,0-2.233-4.592,6.298-5.357
				c0,0,15.131-0.67,15.512,5.07l0.861-0.505C133.064,88.988,132.587,81.744,112.211,83.85z M103.451,90.769l-0.616,1.602h-1.445
				v1.088l1.445,0.996c0,0-0.668,9.479-7.365,9.434c0,0-12.627,2.051-13.393-8.899l1.052-0.535l0.479-1.178h-1.148
				c0,0,2.104-10.676,20.375-6.464l0.616,2.74h-1.03v1.216H103.451z M109.532,86.402l-0.287,2.039c0,0-1.626-1.344-4.974-0.337
				v-2.275l-2.881-0.832c0,0,7.759-0.67,9.959,0L109.532,86.402z"/>
			<path fill="#565759" d="M87.051,83.419l3.587-3.157l9.088-0.717l2.081,1.938l1.028,3.408
				C102.835,84.89,93.796,80.979,87.051,83.419z"/>
			<path fill="#565759" d="M112.668,78.826l1.073,2.817c0,0,10.274-1.238,11.953-0.808l-5.064-3.013L112.668,78.826z"/>
			<path fill="#565759" d="M88.535,89.686c0,0,7.653-4.913,11.623,1.083h-0.718C99.439,90.769,97.096,86.093,88.535,89.686z"/>
			<path fill="#565759" d="M115.416,89.924c0,0,5.587-6.023,10.761-0.644C126.177,89.28,122.016,82.605,115.416,89.924z"/>
			<circle fill="#565759" cx="94.705" cy="89.637" r="1.913"/>
		</g>
		<path fill="#CCCCCC" d="M135.461,126.754c0,0,4.398,10.618-8.445,33.434h9.172l6.061-13.344l-3.537-21.86L135.461,126.754z"/>
		<path fill="#FFFFFF" d="M171.658,160.188c0,0,5.273-27.785-2.285-37.988l-30.662,4.89c0,0-0.557,11.958-0.662,21.236
			c0,0-6.792,1.914-7.991,11.861H171.658z"/>
		<path fill="#D0D1D2" d="M132.587,160.188c0,0,0.428-5.073,7.452-11.622l4.655-18.413c0,0,11.255,0.548,14.73-0.421l-3.368,22.995
			c0,0-2.992,4.448-2.852,7.461H132.587z"/>
		<path fill="#D0D1D2" d="M174.483,89.464c0,0,9.683-5.72,5.567,6.297l-1.867-1.241L174.483,89.464L174.483,89.464z"/>
		
			<ellipse transform="matrix(0.091 0.9959 -0.9959 0.091 244.0797 -55.0716)" fill="#FFFFFF" cx="152.207" cy="106.164" rx="24.463" ry="30.531"/>
		<path fill="#919396" d="M127.014,94.904c0.006-0.011-3.207,5.804-3.065,7.593l-0.999-1.345c0,0-7.328-8.747,4.066-6.249H127.014z"
			/>
		<path fill="#D0D1D2" d="M128.811,109.965c0.928,11.28,13.08,19.272,27.141,17.854c14.063-1.417,24.711-11.709,23.783-22.989
			c-0.926-11.28-13.077-19.271-27.141-17.854c-14.063,1.421-24.713,11.713-23.783,22.993V109.965z"/>
		
			<ellipse transform="matrix(0.091 0.9959 -0.9959 0.091 255.7985 -73.04)" fill="#FFFFFF" cx="167.907" cy="103.595" rx="10.317" ry="10.468"/>
		<path fill="#6D6F71" d="M159.265,116.403c0,0-0.776,2.928-0.608,3.23l-0.414-0.09l0.751-3.237l0.17,0.171L159.265,116.403z"/>
		<path fill="#FFFFFF" d="M131.401,106.016c0.618,6.75,6.626,11.719,13.419,11.098c6.796-0.62,11.803-6.594,11.185-13.344
			c-0.615-6.749-6.623-11.718-13.417-11.097c-6.794,0.62-11.803,6.595-11.187,13.345V106.016z"/>
		<path fill="#0B8ECC" d="M158.762,112.231c0,0-1.62-2.611-2.967,2.412l3.303,2.314l2.422-2.647
			C161.52,114.311,159.365,109.988,158.762,112.231L158.762,112.231z"/>
		<path fill="#FFFFFF" d="M156.402,114.541l1.422,0.987C157.824,115.528,157.37,113.928,156.402,114.541z M160.137,115.317
			l0.851-0.838C160.987,114.479,160.273,114.21,160.137,115.317z"/>
		<g>
			<circle fill="#0071BC" cx="143.713" cy="104.386" r="9.392"/>
			<path fill="#0F4481" d="M142.078,107.938c2.238,1.446,5.226,0.805,6.668-1.433c1.446-2.239,0.803-5.224-1.433-6.667
				c-2.24-1.446-5.226-0.801-6.67,1.436c-1.445,2.237-0.805,5.222,1.436,6.669L142.078,107.938z"/>
			<path fill="#FFFFFF" d="M147.905,104.975c0.769-1.19,0.428-2.778-0.76-3.547c-1.193-0.768-2.779-0.424-3.547,0.764
				c-0.768,1.19-0.428,2.775,0.765,3.543C145.551,106.504,147.137,106.163,147.905,104.975z"/>
			<circle fill="#FFFFFF" cx="139.96" cy="104.582" r="1.248"/>
		</g>
		<g>
			<circle fill="#0071BC" cx="167.802" cy="103.374" r="8.375"/>
			<path fill="#0F4481" d="M172.033,105.458c1.296-1.991,0.732-4.655-1.257-5.952c-1.993-1.298-4.656-0.732-5.952,1.257
				c-1.296,1.99-0.732,4.652,1.259,5.95C168.073,108.011,170.738,107.448,172.033,105.458z"/>
			<path fill="#FFFFFF" d="M168.125,104.755c1.057,0.688,2.475,0.39,3.162-0.668c0.688-1.059,0.393-2.476-0.667-3.165
				c-1.06-0.688-2.474-0.387-3.163,0.67C166.769,102.651,167.066,104.065,168.125,104.755L168.125,104.755z"/>
			<path fill="#FFFFFF" d="M165.273,103.403c0.171,0.589-0.17,1.207-0.761,1.377c-0.591,0.169-1.207-0.171-1.379-0.761
				c-0.167-0.591,0.173-1.208,0.763-1.378C164.486,102.471,165.104,102.813,165.273,103.403z"/>
		</g>
		<path fill="#D0D1D2" d="M129.314,93.053c0,0-6.435-3.449-10.238-0.531c0,0-4.821,4.883,3.051,11.417l1.929,1.779
			c0,0,1.259-1.117,0.789-3.249c0,0-9.228-8.669,2.713-6.623c0,0,1.867-0.302,1.756-2.789V93.053z"/>
		<g>
			<path fill="#6D6F71" d="M146.164,119.305c0,0,3.263-0.73,5.225,0.275c0,0,1.292,0.679,4.64-0.594c0,0,0.956-0.632,2.345,0.387
				c0,0,1.626-1.404,3.299-0.097c0,0,2.152,2.531,4.21,0.484c0,0,1.769-1.328,1.721,1.398c0,0-1.146-0.861-3.396-0.24
				c0,0-1.292,0.431-2.773-0.574c0,0-2.059-0.909-3.11,0.143c0,0-4.447-1.052-6.266-0.286c0,0-0.667,0.062-2.104-0.575
				C149.954,119.627,148.03,119.209,146.164,119.305z"/>
			<path fill="#6D6F71" d="M153.205,120.918c0,0,4.019,2.679,8.371,0.24h0.479C162.055,121.158,157.845,125.32,153.205,120.918z"/>
		</g>
		<path opacity="0.8" fill="#D0D1D2" d="M154.273,127.942l1.093,2.483c0,0-2.596,0.395-4.604,0.202c-2.008-0.191,0-2.707,0-2.707
			L154.273,127.942z"/>
		<path opacity="0.8" fill="#D0D1D2" d="M164.204,130.055c-7.326,34.177-11.096,0.167-11.096,0.167l-3.59,4.33l-12.897-6.631
			c0,0-1.032,9.204,4.545,7.204c0,0-0.338,3.871,3.528,3.657c0,0,10.063,25.521,18.397,17.102c0,0,7.544-6.805,7.474-27.903
			l-2.137,3.509L164.204,130.055z"/>
		<polygon points="177.117,94.229 174.854,88.988 178.466,92.371 179.308,94.989 		"/>
		<path d="M182.671,102.34c-0.038-1.021-0.762-9.97-14.549-9.97c-0.489,0-1.025,0.015-1.664,0.047l-19.929,0
			c-0.659-0.032-1.192-0.047-1.688-0.047c-6.226,0-9.782,1.828-11.82,3.921c-2.617,2.47-2.865,5.442-2.887,6.064
			c-0.349,4.565,0.471,8.115,2.435,10.55c0.258,0.321,0.538,0.617,0.83,0.894c1.984,2.058,4.774,3.109,8.328,3.109
			c3.547,0,6.604-1.072,6.731-1.117l0.614-0.364c5.475-4.787,6.069-12.427,5.906-16.735c0.489-0.223,0.984-0.336,1.476-0.336
			c0.548,0,1.014,0.143,1.375,0.305c-0.168,4.193,0.391,11.042,4.976,15.704c0.341,0.366,1.7,1.426,1.7,1.426
			c0.128,0.045,3.172,1.117,6.732,1.117c3.907,0,6.903-1.259,8.906-3.744C182.177,110.646,183.026,106.998,182.671,102.34z
			 M147.649,113.367c-0.46,0.154-3.038,0.966-5.922,0.966c-2.982,0-5.275-0.845-6.814-2.509c-1.825-1.971-2.583-5.11-2.252-9.362
			c0.002-0.307,0.183-7.513,12.181-7.514l0.008-0.405l0,0v0.405c2.173,0,4.633,0.247,7.312,0.727
			c0.289,1.879,1.445,11.464-4.03,17.237C147.976,113.066,147.817,113.22,147.649,113.367z M156.249,95.644
			c-0.509,0-1.016,0.12-1.49,0.351c-0.086-0.677-0.162-1.074-0.164-1.095l-0.085-0.433c0.536-0.137,1.236-0.266,1.98-0.266
			c0.658,0,1.261,0.104,1.805,0.3l-0.089,0.477c-0.018,0.087-0.093,0.494-0.171,1.14C157.438,95.807,156.84,95.644,156.249,95.644z
			 M171.238,114.333c-2.877,0-5.461-0.813-5.922-0.966c-6.212-5.507-4.949-15.844-4.669-17.665c2.74-0.5,5.253-0.753,7.475-0.753
			c5.157,0,8.127,1.332,9.842,2.876c2.176,2.178,2.18,4.637,2.18,4.637c0.367,4.696-0.62,7.67-2.247,9.515
			C176.359,113.535,174.126,114.333,171.238,114.333z"/>
		<path opacity="0.8" fill="#D0D1D2" d="M138.049,124.027l-2.561-1.828c0,0-1.909,4.145,1.229,5.569l1.332-1.35V124.027z"/>
		<path fill="#3A3A3A" d="M183.57,102.34c-0.037-1.021-0.761-9.97-14.548-9.97c-0.491,0-1.025,0.015-1.664,0.047l-19.932,0
			c-0.655-0.032-1.19-0.047-1.684-0.047c-6.228,0-9.785,1.828-11.822,3.921c-2.616,2.47-2.866,5.442-2.886,6.064
			c-0.35,4.565,0.47,8.115,2.434,10.55c0.259,0.321,0.538,0.617,0.831,0.894c1.984,2.058,4.775,3.109,8.327,3.109
			c3.55,0,6.604-1.072,6.731-1.117l0.616-0.364c5.473-4.787,6.068-12.427,5.903-16.735c0.49-0.223,0.985-0.336,1.477-0.336
			c0.548,0,1.013,0.143,1.376,0.305c-0.169,4.193,0.391,11.042,4.975,15.704c0.341,0.366,1.701,1.426,1.701,1.426
			c0.128,0.045,3.171,1.117,6.732,1.117c3.907,0,6.903-1.259,8.906-3.744C183.076,110.646,183.927,106.998,183.57,102.34z
			 M148.549,113.367c-0.461,0.154-3.039,0.966-5.922,0.966c-2.982,0-5.276-0.845-6.815-2.509c-1.823-1.971-2.582-5.11-2.25-9.362
			c0.001-0.307,0.184-7.513,12.182-7.514l0.006-0.405l0,0v0.405c2.173,0,4.635,0.247,7.312,0.727
			c0.291,1.879,1.446,11.464-4.031,17.237C148.875,113.066,148.717,113.22,148.549,113.367z M157.149,95.644
			c-0.51,0-1.016,0.12-1.489,0.351c-0.088-0.677-0.164-1.074-0.167-1.095l-0.082-0.433c0.532-0.137,1.232-0.266,1.979-0.266
			c0.658,0,1.261,0.104,1.806,0.3l-0.091,0.477c-0.017,0.087-0.092,0.494-0.171,1.14C158.336,95.807,157.739,95.644,157.149,95.644z
			 M172.139,114.333c-2.878,0-5.461-0.813-5.923-0.966c-6.21-5.507-4.948-15.844-4.67-17.665c2.74-0.5,5.255-0.753,7.477-0.753
			c5.155,0,8.126,1.332,9.841,2.876c2.177,2.178,2.18,4.637,2.18,4.637c0.367,4.696-0.619,7.67-2.246,9.515
			C177.259,113.535,175.024,114.333,172.139,114.333z"/>
		<polygon points="129.314,93.053 128.753,101.259 130.387,102.217 130.746,100.553 		"/>
		<path fill="#3A3A3A" d="M132.587,101.451l-3.269-0.432l-0.004-7.966l-3.62-1.341c0,0,1.17-1.854,5.656-0.363v7.717l1.236,0.487
			V101.451z"/>
		<path fill="#3A3A3A" d="M178.983,96.11c0,0-3.357-6.979-4.5-7.396l0.291-0.272l1.582,0.152c0,0,4.201,3.607,6.093,9.882
			L178.983,96.11z"/>
		<path opacity="0.5" fill="#969798" d="M148.72,121.293c0,0-5.248-6.384-12.099-0.061l0.268,0.968
			C136.889,122.2,141.175,116.156,148.72,121.293z"/>
		<path fill="#FFFFFF" d="M153.108,134.359c0,0,1.389-14.421-9.921-13.201c0,0,0.115-0.275-1.417,0.771c0,0-7.175-2.015-4.496,9.177
			c0,0,1.817,5.835,4.974,2.584c0,0-1.852,3.348,2.967,4.018c0,0,18.271,48.119,25.351-9.727l-6.361,2.074
			C164.204,130.055,159.265,169.945,153.108,134.359z"/>
		<path fill="#D0D1D2" d="M142.248,133.689c0,0-0.406-3.348-1.04-6.936C141.208,126.754,140.843,130.222,142.248,133.689z"/>
		<path fill="#D0D1D2" d="M138.711,131.059c0,0,1.325-1.698,2.527-1.676C141.238,129.383,142.229,126.898,138.711,131.059z"/>
		<path fill="#D0D1D2" d="M141.771,121.929c0,0,2.678,0.09,4.902,2.099C146.673,124.027,146.195,121.481,141.771,121.929z"/>
		<circle fill="#565759" cx="120.796" cy="88.632" r="1.937"/>
		<path fill="#969798" d="M75.476,99.538c0,0-2.296-1.75,0-5.083c0,0-5.166-15.58-5.74-4.818c0,0,0.999-8.302,4.804,4.818
			C74.541,94.455,72.988,97.72,75.476,99.538z"/>
		<g>
			<path fill="#353535" d="M65.379,168.612v19.329h-7.291l-8.648-12.92v8.546h2.611v4.374h-10.41v-4.374h2.001v-14.955h-1.968
				v-4.375h9.733l8.309,12.446v-8.071H57.41v-4.375h10.207v4.375H65.379z"/>
			<path fill="#353535" d="M80.573,164.237v4.477h-2.103v14.718h2.103v4.51H69.315v-4.51h2.136v-14.718h-2.136v-4.477H80.573z"/>
			<path fill="#353535" d="M106.008,168.612v19.329h-7.291l-8.647-12.92v8.546h2.611v4.374H82.271v-4.374h2.001v-14.955h-1.968
				v-4.375h9.733l8.308,12.446v-8.071h-2.306v-4.375h10.208v4.375H106.008z"/>
			<path fill="#353535" d="M109.604,175.971c0-7.323,4.884-12.377,11.903-12.377c8.308,0,12.175,4.984,12.175,12.615
				c0,7.664-4.272,12.344-11.937,12.344C114.658,188.553,109.604,184.449,109.604,175.971z M125.205,176.209
				c0-4.103-1.12-7.393-3.73-7.393c-2.069-0.033-3.493,2.95-3.493,7.154c0,4.443,1.594,7.258,3.765,7.258
				C123.882,183.229,125.205,180.414,125.205,176.209z"/>
			<path fill="#353535" d="M146.842,174.92c0.135-0.679,0.881-2.103,1.255-2.917l1.864-3.425h-1.864v-4.341h9.122v4.341h-1.831
				l-6.273,11.021v3.933h1.899v4.409H140.16v-4.409h1.934v-4l-6.579-10.954h-1.66v-4.341h11.597v4.341h-1.763l1.967,3.595
				c0.204,0.645,0.915,2.17,1.051,2.747H146.842z"/>
			<path fill="#3A3A3A" d="M51.956,210.885v-3.593h2.606l-0.576-1.866h-5.623l-0.576,1.866h2.139v3.593h-8.721v-3.593h1.865
				l3.703-12.042h-1.125v-3.537H56.18l4.854,15.579h1.919v3.593H51.956z M52.971,202.135l-1.811-5.924l-1.782,5.924H52.971z"/>
			<path fill="#3A3A3A" d="M83.665,209.375c0,2.44-1.371,4.389-4.114,4.389c-2.249,0-3.647-1.427-4.251-3.044
				c-0.659,0.11-1.398,0.165-2.139,0.165c-5.541,0-9.38-3.236-9.38-9.709c0-5.595,3.703-9.547,9.215-9.547
				c6.473,0,9.38,3.896,9.38,9.738c0,2.879-0.768,5.21-2.276,6.856c0.219,0.852,0.521,1.782,1.207,1.782
				c0.494,0,0.548-0.768,0.548-1.233v-0.796h1.81V209.375z M76.232,202.438c0.027-0.331,0.055-0.687,0.055-1.07
				c0-3.154-1.29-5.733-3.319-5.733c-1.645-0.026-3.154,2.332-3.154,5.542c0,0.547,0.028,1.043,0.11,1.508
				c0.632-0.658,1.618-1.316,3.237-1.316C74.339,201.367,75.354,201.806,76.232,202.438z M74.614,206.166
				c-0.192-1.371-0.521-2.303-1.454-2.303c-0.905,0-1.453,0.904-1.837,2.001c0.548,0.604,1.179,0.906,1.837,0.906
				C73.682,206.771,74.175,206.55,74.614,206.166z"/>
			<path fill="#3A3A3A" d="M93.212,191.713v3.537h-1.481v5.926c0,4.416,0.987,5.348,2.743,5.348c1.673,0,2.77-0.659,2.77-5.375
				v-5.816h-1.481v-3.619h8.119v3.537h-1.48v6.666c0,6.5-2.716,9.435-7.873,9.435c-5.54-0.165-8.502-3.072-8.502-9.297v-6.775H84.49
				v-3.565H93.212z"/>
			<path fill="#3A3A3A" d="M114.087,191.713v3.619h-1.701v11.904h1.701v3.648h-9.105v-3.648h1.727v-11.904h-1.727v-3.619H114.087z"
				/>
			<path fill="#3A3A3A" d="M134.659,195.25v15.635h-5.897l-6.994-10.451v6.912h2.113v3.539h-8.42v-3.539h1.618V195.25h-1.591v-3.537
				h7.873l6.72,10.065v-6.528h-1.865v-3.537h8.255v3.537H134.659z"/>
			<path fill="#3A3A3A" d="M137.569,201.202c0-5.924,3.95-10.01,9.626-10.01c6.722,0,9.847,4.031,9.847,10.202
				c0,6.198-3.455,9.984-9.653,9.984C141.656,211.379,137.569,208.06,137.569,201.202z M150.186,201.395
				c0-3.318-0.905-5.979-3.017-5.979c-1.672-0.027-2.825,2.386-2.825,5.787c0,3.593,1.288,5.869,3.045,5.869
				C149.116,207.071,150.186,204.795,150.186,201.395z"/>
		</g>
		<g>
			<path fill="#FFB400" d="M163.331,204.152l-4.198-29.572l8.645-1.228c3.197-0.453,5.965,0.61,8.306,3.188
				c2.34,2.577,3.81,5.96,4.406,10.148c0.592,4.188,0.093,7.833-1.502,10.935c-1.596,3.097-4.246,4.91-7.959,5.438L163.331,204.152z
				 M167.06,199.183l3.522-0.5c1.892-0.269,3.366-1.393,4.432-3.371c1.063-1.978,1.344-4.734,0.84-8.273
				c-0.408-2.891-1.329-5.252-2.767-7.091c-1.435-1.835-3.097-2.619-4.986-2.351l-4.022,0.567L167.06,199.183z"/>
			<path fill="#FFB400" d="M200.792,198.836l-3.729,0.53c-0.521-1.283-0.931-2.727-1.229-4.335
				c-0.583,3.398-2.311,5.301-5.187,5.708c-1.73,0.247-3.209-0.196-4.438-1.325c-1.23-1.131-1.982-2.661-2.257-4.597
				c-0.713-5.026,2.429-8.036,9.43-9.031c0.276-0.038,0.649-0.084,1.121-0.136l-0.233-1.647c-0.321-2.265-1.711-3.227-4.16-2.879
				c-2.384,0.339-3.574,1.665-3.574,3.978l-3.422-0.156c-0.074-1.846,0.456-3.449,1.597-4.813c1.138-1.362,2.944-2.218,5.419-2.568
				c1.339-0.19,2.455-0.204,3.343-0.043c0.888,0.16,1.671,0.536,2.351,1.124c0.679,0.589,1.188,1.261,1.522,2.018
				c0.335,0.755,0.635,2.07,0.902,3.948l1.402,9.88C199.852,195.92,200.233,197.369,200.792,198.836z M194.883,188.315
				c-5.065,0.718-7.382,2.603-6.946,5.648c0.127,0.911,0.493,1.652,1.095,2.22c0.601,0.573,1.416,0.784,2.447,0.637
				c1.489-0.212,2.529-0.968,3.122-2.264c0.594-1.303,0.782-2.709,0.567-4.226L194.883,188.315z"/>
			<path fill="#FFB400" d="M214.004,174.639l-3.218,25.875c-0.196,1.587-0.592,2.855-1.188,3.803
				c-0.595,0.946-1.546,1.514-2.852,1.699c-0.517,0.072-1.273,0.128-2.271,0.166l-0.558-3.919l1.88-0.225
				c0.822-0.116,1.41-0.375,1.756-0.769c0.348-0.396,0.575-1.043,0.68-1.941c0.107-0.899,0.148-1.422,0.129-1.566
				c-0.012-0.087-0.195-0.516-0.552-1.292l-8.877-19.692l4.104-0.581l6.26,13.83l1.578-14.941L214.004,174.639z"/>
		</g>
	</g>
</g>
</svg>
