<?xml version="1.0" encoding="utf-8"?>
<!-- Generator: Adobe Illustrator 16.0.0, SVG Export Plug-In . SVG Version: 6.00 Build 0)  -->
<!DOCTYPE svg PUBLIC "-//W3C//DTD SVG 1.1//EN" "http://www.w3.org/Graphics/SVG/1.1/DTD/svg11.dtd">
<svg version="1.1" id="Layer_1" xmlns="http://www.w3.org/2000/svg" xmlns:xlink="http://www.w3.org/1999/xlink" x="0px" y="0px"
	 width="250px" height="250px" viewBox="0 0 250 250" enable-background="new 0 0 250 250" xml:space="preserve">
<g id="Layer_2" display="none">
	<g display="inline">
		<g>
			<path fill="#FFFFFF" d="M128.377,150.443c0,0,0.3,0.324,0.859,0.934c0.578,0.611,1.449,1.508,2.604,2.596
				c1.155,1.088,2.588,2.375,4.305,3.729c1.715,1.346,3.724,2.771,5.985,3.991c1.138,0.584,2.333,1.16,3.569,1.546
				c1.234,0.434,2.502,0.653,3.705,0.672c1.219,0.045,2.324-0.226,3.328-0.765c0.523-0.205,0.972-0.646,1.461-0.989
				c0.431-0.482,0.92-0.869,1.303-1.479c1.66-2.215,2.818-5.354,3.582-8.682c0.227-0.816,0.371-1.684,0.521-2.547l0.229-1.297
				l0.061-0.324l0.049-0.307l0.088-0.662c0.211-1.709,0.379-3.604,0.552-5.461c0.671-7.5,1.428-15.148,2.937-22.363
				c0.764-3.611,1.701-7.125,3.051-10.482c0.674-1.678,1.461-3.319,2.444-4.896c0.987-1.571,2.152-3.098,3.694-4.412
				c1.511-1.315,3.425-2.384,5.438-2.863c2.008-0.503,3.979-0.45,5.606-0.147c3.285,0.644,5.479,1.923,7.157,2.95
				c1.682,1.052,2.816,1.977,3.6,2.604c0.76,0.638,1.162,0.979,1.162,0.979c2.111,1.78,2.383,4.937,0.604,7.05
				c-1.781,2.113-4.938,2.383-7.053,0.603c-0.048-0.041-0.096-0.083-0.143-0.125l-0.135-0.122c0,0-0.303-0.278-0.873-0.801
				c-0.57-0.502-1.42-1.245-2.504-1.984c-1.065-0.75-2.42-1.499-3.646-1.789c-0.607-0.146-1.137-0.166-1.635-0.077
				c-0.502,0.08-1.04,0.307-1.688,0.807c-1.303,0.978-2.759,3.098-3.909,5.688c-1.178,2.599-2.15,5.654-2.979,8.911
				c-1.658,6.542-2.711,13.86-3.688,21.308c-0.254,1.885-0.49,3.729-0.82,5.729l-0.129,0.729l-0.073,0.384l-0.08,0.362l-0.319,1.446
				c-0.212,0.968-0.416,1.927-0.72,2.886c-1.075,3.813-2.532,7.653-5.241,11.011c-0.617,0.854-1.484,1.595-2.281,2.331
				c-0.914,0.649-1.802,1.344-2.855,1.77c-2.03,0.971-4.305,1.338-6.309,1.188c-2.021-0.114-3.864-0.571-5.479-1.207
				c-1.646-0.6-3.076-1.362-4.414-2.129c-2.64-1.567-4.793-3.256-6.619-4.813c-1.818-1.563-3.306-3.014-4.494-4.229
				c-1.188-1.226-2.082-2.224-2.688-2.916c-0.604-0.715-0.927-1.097-0.927-1.097c-0.89-1.051-0.759-2.625,0.292-3.514
				c1.022-0.865,2.542-0.769,3.44,0.209L128.377,150.443z"/>
			<path fill="#D0D2D3" d="M149.189,170.059c0.574,0.043,1.172,0.031,1.774-0.012c-6.188-0.775-9.317-4.885-10.854-9.541
				c-1.45-0.912-2.781-1.875-3.965-2.805c-1.722-1.354-3.151-2.641-4.31-3.729c-1.149-1.093-2.021-1.984-2.604-2.601
				c-0.563-0.604-0.857-0.938-0.857-0.938l-0.075-0.082c-0.748-0.811-1.919-1.006-2.881-0.557c-0.469,0.76-0.949,1.539-1.429,2.318
				c0.014,0.547,0.197,1.092,0.578,1.543c0,0,0.322,0.381,0.927,1.094c0.604,0.695,1.495,1.693,2.688,2.916
				c1.188,1.221,2.676,2.67,4.494,4.232c1.826,1.559,3.981,3.244,6.619,4.813c1.338,0.766,2.771,1.531,4.414,2.131
				C145.324,169.484,147.17,169.941,149.189,170.059z"/>
			<path fill="#ED1F24" d="M93.474,127.055c0,0-29.75,2.25-22,26.5l14.75-0.25L93.474,127.055z"/>
			<path fill="#D3202E" d="M75.141,137.221c0,0,6.083-5.541,13.833-6.916l-3.156,15.836l-4.01,0.58L75.141,137.221z"/>
			<path fill="#D1A109" d="M131.161,178.18c0,0-0.642-0.729-1.563-0.641c-0.921,0.092-0.125,1.781-0.125,1.781L131.161,178.18z"/>
			<path fill="#D1A109" d="M77.349,176.305c0,0,2.063-1.5,3.563-0.25l0.188,2.5C81.099,178.555,77.411,177.305,77.349,176.305z"/>
			<path fill="#FFFFFF" d="M95.265,188.813l-0.167,3.656c0,0,10.25,3.877,32.166,0.074l0.055-3
				C127.318,189.543,98.848,190.9,95.265,188.813z"/>
			<polygon fill="#FFFFFF" points="90.661,177.566 92.286,185.68 102.349,186.631 103.599,177.008 			"/>
			<path fill="#FFFFFF" d="M72.265,186.91l-0.167,3.656c0,0,10.25,3.877,32.167,0.074l0.054-3
				C104.319,187.641,75.848,188.998,72.265,186.91z"/>
			<polyline fill="#7F7C7D" points="94.192,183.553 96.036,183.75 97.432,186.127 99.307,182.1 96.307,179.414 93.349,183.414 			
				"/>
			<path fill="#111010" d="M82.659,183.641c0,0-6.144,0.498-9.998,2.66c-3.854,2.164,21.784,3.396,31.658,1.34
				C104.319,187.641,100.966,182.748,82.659,183.641z"/>
			<polygon fill="#FFFFFF" points="113.661,179.469 115.286,187.582 125.349,188.533 126.6,178.91 			"/>
			<path fill="#231F20" d="M105.659,185.543c0,0-6.144,0.498-9.998,2.66c-3.854,2.164,21.784,3.395,31.657,1.34
				C127.318,189.543,123.966,184.65,105.659,185.543z"/>
			<circle fill="#F1C119" cx="112.807" cy="63.721" r="5.667"/>
			<path fill="#7C0505" d="M78.057,60.138c0,0,14.377-10.271,33.75,0.75c4.833,2.75,11.167,8.417,12.5,17.083L78.057,60.138z"/>
			<path fill="#FFFFFF" d="M63.601,70.289c7.074-5.907,16.953-9.586,27.895-9.586c11.792,0,22.354,4.268,29.493,11
				c10.222-4.445,12.324,1.705,12.324,1.705c0.592,1.211,0.705,2.494,0.53,3.778C111.533,87.047,81.169,89.9,63.601,70.289z"/>
			<path fill="#D0D2D3" d="M55.058,81.17c0,0-7.717-14.035,6.607-9.16C75.993,76.885,55.058,81.17,55.058,81.17z"/>
			<path fill="#919496" d="M57.761,77.299c0,0-6.867-6.931-1.93,2.346C60.767,88.926,57.761,77.299,57.761,77.299z"/>
			<path fill="#FFFFFF" d="M130.061,88.011c-2.608-15.426-18.875-27.309-38.563-27.309c-21.51,0-38.941,14.179-38.941,31.668
				c0,17.49,17.434,31.668,38.941,31.668c0.809,0,1.605-0.025,2.404-0.065c0.861,3.759,1.582,9.589-1.021,13.119
				c0,0-17.863,13.357-8.75,26.047c-0.012-0.094-2.346-22.236,14.699-26.18l-2.979-13.572c0,0,6.327-1.89,13.85-5.213v17.471
				c0,0-17.983,21-7.801,35.223C119.708,170.322,155.549,160.787,130.061,88.011z"/>
			<path fill="#D0D2D3" d="M109.699,135.645v-17.47c-7.523,3.323-13.809,5.213-13.809,5.213l2.937,13.572
				c-17.045,3.942-14.711,26.086-14.699,26.181c1.777,2.479,2.672,3.313,6.842,5.637c0,0,5.619,2.248,10.929,2.092
				C91.716,156.645,109.699,135.645,109.699,135.645z"/>
			<ellipse fill="#D0D2D3" cx="85.646" cy="93.069" rx="33.094" ry="25.105"/>
			<ellipse fill="#FFFFFF" cx="68.745" cy="87.429" rx="12.938" ry="12.752"/>
			<ellipse fill="#FFFFFF" cx="98.827" cy="87.718" rx="15.967" ry="15.862"/>
			<g>
				<circle fill="#0071BC" cx="101.728" cy="87.801" r="12.364"/>
				<path fill="#0F4481" d="M100.839,90.914c-2.297-2.653-2.008-6.661,0.645-8.957c2.65-2.293,6.658-2.006,8.957,0.647
					c2.293,2.651,2.005,6.661-0.646,8.956C107.142,93.855,103.132,93.565,100.839,90.914z"/>
				<path fill="#FFFFFF" d="M104.537,88.967c-1.222-1.411-1.064-3.54,0.344-4.759c1.407-1.219,3.539-1.068,4.76,0.342
					c1.219,1.41,1.063,3.542-0.346,4.762C107.884,90.531,105.757,90.375,104.537,88.967z"/>
				<circle fill="#FFFFFF" cx="99.399" cy="85.885" r="1.644"/>
			</g>
			<g>
				<circle fill="#0071BC" cx="70.571" cy="87.585" r="10.265"/>
				<path fill="#0F4481" d="M69.833,90.17c-1.904-2.204-1.666-5.531,0.535-7.437c2.199-1.904,5.529-1.666,7.438,0.537
					c1.902,2.201,1.664,5.53-0.539,7.436C75.067,92.611,71.737,92.371,69.833,90.17z"/>
				<path fill="#FFFFFF" d="M72.903,88.553c-1.014-1.171-0.885-2.938,0.285-3.951c1.168-1.011,2.938-0.887,3.951,0.284
					c1.012,1.171,0.883,2.939-0.287,3.954C75.683,89.851,73.915,89.722,72.903,88.553z"/>
				<circle fill="#FFFFFF" cx="68.638" cy="85.995" r="1.364"/>
			</g>
			<path fill="#BE1E2D" d="M77.911,104.96c0,0,1.594,5.406-0.25,5.688c0,0,7.25,4.438,8.438-5.031c0,0-5.563,0.688-6.938-1
				L77.911,104.96z"/>
			<path fill="#6C6F71" d="M78.73,104.997c0,0-0.014-0.027-0.038-0.073c-0.027-0.069-0.065-0.191-0.099-0.332
				c-0.045-0.163-0.029-0.254-0.038-0.39c-0.003-0.129-0.006-0.267-0.009-0.404c0.063-0.508,0.125-1.016,0.125-1.016l0.979,0.2
				c0,0-0.074,0.44-0.148,0.881c-0.001,0.102-0.003,0.204-0.004,0.299c-0.001,0.088-0.01,0.209,0.001,0.22
				c0.006,0.035-0.006,0.061-0.004,0.092c0.022,0.048,0.035,0.075,0.035,0.075L78.73,104.997z"/>
			<path fill="#6C6F71" d="M73.432,100.314c0.461,0.751,0.553,1.434,0.782,2.101c0.239,0.65,0.592,1.235,1.074,1.593
				c0.479,0.36,1.083,0.505,1.746,0.473c0.328-0.012,0.67-0.063,1.012-0.131c0.342-0.082,0.683-0.185,1.03-0.29l0.219-0.066
				l0.209,0.089c0.403,0.173,0.861,0.342,1.302,0.482c0.446,0.143,0.903,0.246,1.356,0.342c0.91,0.18,1.832,0.248,2.726,0.145
				c0.896-0.093,1.751-0.39,2.512-0.865c0.382-0.238,0.722-0.536,1.07-0.839c0.365-0.291,0.721-0.604,1.211-0.877
				c-0.043,0.55-0.244,1.052-0.553,1.478c-0.3,0.435-0.714,0.778-1.136,1.101c-0.856,0.641-1.895,1.047-2.949,1.191
				c-1.056,0.146-2.122,0.075-3.13-0.157c-0.507-0.109-0.998-0.271-1.479-0.454c-0.484-0.187-0.939-0.386-1.408-0.667l0.428,0.023
				c-0.359,0.174-0.734,0.321-1.125,0.441c-0.396,0.107-0.8,0.214-1.231,0.231c-0.844,0.077-1.818-0.146-2.533-0.742
				c-0.717-0.593-1.107-1.416-1.309-2.207C73.051,101.921,72.949,101.08,73.432,100.314z"/>
			<g>
				<path fill="#1D8FCD" d="M75.638,100.836c0,0,2.877-5.856,3.938-2.765c0,0,2.379-3.481,2.379,2.109c0,0-2.254,1.536-2.379,3.398
					C79.575,103.58,77.245,102.643,75.638,100.836z"/>
				<path fill="#FFFFFF" d="M79.575,102.152c0,0,0.146-0.791,1.262-1.578C80.837,100.574,80.425,99.058,79.575,102.152z"/>
			</g>
			<path fill="#231F20" d="M119.224,186.184c0,0,6.188,1.174,7.25-0.783c0,0,1.613,2.396,0.844,4.125
				c-0.063,0.146,0.002,0.021,0.002,0.021l-6.096-0.955L119.224,186.184z"/>
			<polyline fill="#7F7C7D" points="119.849,184.168 121.349,183.945 122.849,186.574 124.724,182.547 121.724,179.861 
				119.599,184.168 			"/>
			<path fill="#6C6F71" d="M75.974,110.616c0,0,0.044,0.146,0.123,0.403c0.061,0.227,0.147,0.551,0.251,0.939
				c0.055,0.182,0.104,0.385,0.21,0.573c0.085,0.198,0.22,0.38,0.358,0.566c0.163,0.166,0.313,0.355,0.523,0.49
				c0.196,0.149,0.407,0.285,0.647,0.385c0.453,0.23,0.958,0.397,1.45,0.489c0.48,0.13,0.968,0.132,1.367,0.205
				c0.408,0.038,0.755,0.032,0.995,0.051c0.241,0.016,0.379,0.024,0.379,0.024l0.042,0.003c0.275,0.018,0.483,0.255,0.466,0.53
				c-0.017,0.262-0.234,0.463-0.491,0.467c0,0-0.147,0.002-0.405,0.005c-0.259-0.002-0.626,0.006-1.071-0.02
				c-0.446-0.054-0.966-0.073-1.519-0.235c-0.277-0.067-0.563-0.126-0.846-0.25c-0.284-0.109-0.578-0.205-0.845-0.384
				c-0.278-0.146-0.533-0.339-0.769-0.551c-0.246-0.193-0.436-0.456-0.621-0.688c-0.164-0.257-0.313-0.507-0.403-0.77
				c-0.111-0.252-0.157-0.511-0.204-0.741c-0.03-0.235-0.034-0.451-0.002-0.641c0.024-0.189,0.079-0.349,0.13-0.476
				C75.857,110.735,75.974,110.616,75.974,110.616z"/>
			<path fill="#7C0505" d="M82.974,148.344c0,0-6.167,18.949-1.667,34.314c0,0,1.333,3.281,17.167,0.299l0.5-21.186
				C98.974,161.771,94.974,144.465,82.974,148.344z"/>
			<polygon fill="#D1A109" points="94.286,176.93 96.245,176.283 95.891,177.971 			"/>
			<path fill="#F1C119" d="M95.724,177.18c0,0-14.375,3.125-18.375-0.875c0,0,0.5,5.875,1.875,7s14,2.375,18.25,0
				S95.724,177.18,95.724,177.18z"/>
			<path fill="#930805" d="M91.307,159.385l-7-11.338l10.667-2.836l14.833-1.789l14.333-8.951l8.833,11.637
				c-4.166,12.232-2.834,39.982-2.834,39.982c-3.166,1.939-6.833,1.492-6.833,1.492l-1.667-5.818l-2.333,5.07
				c-14.667,0.896-22.333-2.236-22.333-2.236c-4.167-12.383-2.667-22.975-2.667-22.975L91.307,159.385z"/>
			<path fill="#7C0505" d="M90.724,160.221c0,0,14.667,8.75,31.167,4.584l6.916,3.75l1.834-11.834l-4.916-6.25
				C125.725,150.471,90.724,159.221,90.724,160.221z"/>
			<path fill="#820906" d="M81.182,59.471c33.125-2.5,43.479,17.25,43.479,17.25c-24.25-17.375-51.854-12.333-51.854-12.333
				S76.317,59.838,81.182,59.471z"/>
			<path fill="#A8170C" d="M101.599,126.68c0,0-2.125-5,2.5-6.5s26.75-10.25,30.625-16.125c0,0,0.332-0.583,0-1.458
				c0,0,0.457-0.083,0.625,0.25c0.166,0.333,1.791,7.125,1.791,7.125s9.084,28.959,3.334,48.459c0,0-3,3.625-14-2v-4.375l-3.5,7.375
				c0,0-10.375,7-30.375,0.5c0,0-10.125,1-12.375-1.5c0,0-2.125-9.25,11.625-23.25c0,0,3.5-4.125,1-11l3.875-1
				c0,0,1.625,0,1.875,1.375c0.25,1.375,0.75,3,0.75,3s0.167,0.346,0.531,0.479C100.488,128.27,101.63,128.242,101.599,126.68z"/>
			<path fill="#A8170C" d="M80.891,59.179c-3.757,0.284-5.832,2.332-7.365,4.262c4.44-0.636,28.729-3.223,50.529,12.03
				C121.587,70.828,109.258,57.038,80.891,59.179z"/>
			<path fill="#919496" d="M122.222,74.679l4.02,8.793C126.242,83.472,138.602,68.096,122.222,74.679z"/>
			<path fill="#D0D2D3" d="M118.566,72.877c0,0-0.379,3.253,2.646,3.706c0,0,14.82-4.84,4.008,8.166c0,0-1.209,1.967,1.285,3.705
				c0,0,9.981-8.543,6.806-15.047C133.311,73.408,130.891,66.299,118.566,72.877z"/>
			<path fill="#BF4340" d="M101.599,126.68c0.031,1.563-1.11,1.59-1.719,1.359c-0.364-0.139-0.531-0.484-0.531-0.484
				s-0.5-1.625-0.75-3c-0.042-0.232-0.133-0.414-0.239-0.574l-4.011,1.449l-0.945,0.673c0.167,0.746,0.268,1.451,0.31,2.111
				c0,0,0.865,0.439,2.094,0.918c0.859,0.34,2.417,0.084,2.417,0.084c-7.25,14-8.375,25.729-8.375,25.729l4.375,0.604
				c0.313-9.313,9.333-27.168,9.333-27.168c23.461-3.749,33.213-17.041,33.723-17.952c-0.088-0.293-0.141-0.465-0.141-0.465
				l-35.875,12.959C100.781,124.75,101.599,126.68,101.599,126.68z"/>
			<path fill="#7C0505" d="M111.474,138.055c0,0,11.667-5.584,13-15.417c0,0-3.5,0.333-5.083,4.167
				C118.735,128.391,116.473,134.137,111.474,138.055z"/>
			<path fill="#FEE86E" d="M140.252,154.592c-0.611,0.244-1.389,0.369-2.309,0.369c-2.133,0-4.438-0.66-5.746-1.105
				c-1.281-11.129-1.988-11.479-2.954-11.965l-0.515-0.229h-0.478c-1.135,0-2.313,0.416-4.226,5.426l-4.818,8.697
				c-1.979,1.219-5.197,1.855-9.353,1.855c-0.001,0,0,0-0.002,0c-8.681,0-18.623-2.732-18.722-2.765l-0.655-0.183l-0.63,0.255
				c-0.773,0.313-1.677,0.473-2.688,0.473c-1.783,0-3.944-0.5-6.249-1.446l-0.46-0.188c-0.606,2.978-0.229,4.644-0.229,4.644
				c2.25,2.5,12.375,1.5,12.375,1.5c20,6.5,30.375-0.5,30.375-0.5l3.5-7.375v4.375c11,5.625,14,2,14,2
				c0.41-1.396,0.738-2.853,1.01-4.332L140.252,154.592z"/>
			<path fill="#ED1F24" d="M110.974,138.221c0,0,7.75-1.332,11.167-12c0,0,3.333-5.583,6.083-2.333
				c2.75,3.25,5.25,27.833-15.5,33.583L110.974,138.221z"/>
			<path fill="#F1C119" d="M104.557,120.72c0,0-3.333,0.667-3.083,3.417l1.25,3.5c0,0,28.75-6.25,34.583-17.25l-1.957-7.542
				C135.35,102.845,134.391,110.638,104.557,120.72z"/>
			<path fill="#F1C119" d="M140.475,158.43c0.19-0.646,0.363-1.313,0.522-1.979c-4.062,1.631-10.647-1.146-10.647-1.146
				s-1.25-11.25-2-11.625s-2.5,4.25-2.5,4.25l-5.125,9.25c-8.125,5.75-30.125-0.375-30.125-0.375
				c-3.341,1.354-7.487,0.234-10.445-0.979c-0.139,1.688,0.07,2.604,0.07,2.604c2.25,2.5,12.375,1.5,12.375,1.5
				c20,6.5,30.375-0.5,30.375-0.5l3.5-7.375v4.375C137.475,162.055,140.475,158.43,140.475,158.43z"/>
			<path fill="#F1C119" d="M103.571,138.863c0,0,0.393-0.523,1.701-0.523c1.309,0,4.187,0.131,4.776-0.262
				c0,0,0.785-0.523,1.374,0.066c0.589,0.588,4.318,9.42,2.225,20.086c0,0-6.739,2.022-10.403,1.375"/>
			<path fill="#D1A311" d="M102.497,139.678c0.464-0.762,2.447-2.344,3.977,0.586c1.53,2.928,3.212,18.353-2.448,19.455
				c-5.66,1.105-3.961-11.961-3.824-12.428C100.381,146.68,101.433,141.422,102.497,139.678z"/>
			<path fill="#BF4340" d="M135.35,102.845c-0.168-0.333-0.625-0.25-0.625-0.25c0.332,0.875,0,1.458,0,1.458
				c-3.875,5.875-26,14.625-30.625,16.125s-2.5,6.5-2.5,6.5c0.031,1.563-1.11,1.59-1.719,1.359
				c-0.364-0.139-0.531-0.484-0.531-0.484s-2.313,2.375,0.375,2.625s4.006-1.998,3.563-2.875c-2.229-4.417,0-5.625,0-5.625
				c19.438-5.688,29.688-13.688,31.438-15.375c0.566-0.55,0.916-1.29,0.981-2.163C135.527,103.437,135.391,102.93,135.35,102.845z"
				/>
			<path fill="#9E7902" d="M102.811,140.357c0.367-0.707,1.933-2.174,3.141,0.545c1.208,2.717,2.537,17.033-1.933,18.061
				c-4.47,1.028-3.045-11.102-3.02-11.537C101.036,146.773,101.971,141.977,102.811,140.357z"/>
			<path fill="#F1C119" d="M96.724,123.429c-0.168,0-0.708,0.043-1.372,0.104l-2.503,0.646c0.546,1.5,0.794,2.862,0.867,4.086
				c1.113,0.047,4.123,0.094,5.633-0.711l-1.25-2.75C98.099,124.804,97.224,123.429,96.724,123.429z"/>
			<path fill="#FFFFFF" d="M107.021,146.133c-0.161-1.311-0.36-2.48-0.575-3.418c-1.145,0.018-2.097-0.098-2.097-0.098l0.438,3.625
				C105.571,146.428,106.335,146.342,107.021,146.133z"/>
			<path fill="#BF4340" d="M97.286,124.304c0.152,0.607,1.499,4.282,1.969,5.032c0.304,0.484,0.531-0.656,0.094-1.781
				c0,0-0.5-1.625-0.75-3c-0.25-1.375-1.875-1.375-1.875-1.375l-1.614,0.416C95.63,123.546,97.081,123.484,97.286,124.304z"/>
			<path fill="#FEE86E" d="M122.141,126.221c0,0,0.058-0.096,0.163-0.254c0.611-0.911,2.427-3.24,4.67-2.33
				c2.875,1.167,3.666,10.333,2.582,14.833c0,0,4.539-11.604-1.166-16.167C125.057,119.637,122.391,125.805,122.141,126.221z"/>
			<path fill="none" stroke="#540404" stroke-linecap="round" stroke-miterlimit="10" d="M96.411,130.367
				c0,0,2.063,2.563,7.625-0.438"/>
			<path fill="none" stroke="#540404" stroke-linecap="round" stroke-miterlimit="10" d="M94.849,134.367
				c0,0,2.063,2.563,7.625-0.438"/>
			<path fill="none" stroke="#540404" stroke-linecap="round" stroke-miterlimit="10" d="M93.286,138.43
				c0,0,1.813,3.188,7.375,0.188"/>
			<path fill="none" stroke="#540404" stroke-linecap="round" stroke-miterlimit="10" d="M91.661,142.742
				c0,0,1.813,3.188,7.375,0.188"/>
			<path fill="none" stroke="#540404" stroke-linecap="round" stroke-miterlimit="10" d="M89.974,147.264
				c0,0,1.75,3.666,7.313,0.666"/>
			<path fill="none" stroke="#540404" stroke-linecap="round" stroke-miterlimit="10" d="M89.224,151.514
				c0,0,1.813,3.541,7.375,0.541"/>
			<path fill="#F1C119" d="M90.479,154.695c0,0-0.797-0.646-0.881-0.354c-0.083,0.293-1.417,4.666-0.125,5.709
				c0,0,3.75,0.25,5,0.584c0,0-0.5-4.709-0.25-5.084S91.194,154.961,90.479,154.695z"/>
			<path fill="#D1A109" d="M94.495,177.408c0,0-1.458,1.709-2.375,7.168c0,0,3.375-0.166,4.417-0.979L94.495,177.408z"/>
			<path fill="#D0D2D3" d="M98.724,133.887c0,0,1.5-1.998,2.25-0.666c0.75,1.334-0.25,3.334,1.167,4.416
				c1.417,1.084-3.083-1.166-3.083-1.166L98.724,133.887z"/>
			<path fill="#D0D2D3" d="M87.583,133.887c0,0-1.5-1.998-2.25-0.666c-0.75,1.334,0.25,3.334-1.167,4.416
				c-1.417,1.084,3.083-1.166,3.083-1.166L87.583,133.887z"/>
			<path fill="#F1C119" d="M94.286,176.93c0,0,0.563,6.625,2.25,7.563c0,0,19.938,6.625,33.875,1.813c0,0,0.813-2.313,0.75-8.125
				C131.161,178.18,114.786,183.492,94.286,176.93z"/>
			<path fill="#111010" d="M99.757,146.141c0,0.857-0.505,1.56-1.129,1.56H86.946c-0.624,0-1.129-0.697-1.129-1.56v-23.02
				c0-0.859,0.505-1.555,1.129-1.555h11.682c0.624,0,1.129,0.695,1.129,1.555V146.141z"/>
			<path fill="#FFFFFF" d="M104.807,142.887c0,0-1-6.5-5.5-7c0,0-3.667-0.332-4.333,0.918c0,0-0.833,1.582,0.917,1.832
				s3.417,0.334,3.917,0.75c0,0-5.5-0.332-7,1.418c0,0-0.917,2.082,1.25,2.332s6.75-1.082,6.75,0.25
				c0,1.334,1.833,5.334,4.833,2.668C108.64,143.387,104.807,142.887,104.807,142.887z"/>
			<path fill="#F1C119" d="M82.071,138.113c0,0-0.394-0.523-1.701-0.523c-1.309,0-4.187,0.131-4.776-0.262
				c0,0-0.785-0.523-1.374,0.066c-0.589,0.588-4.318,9.42-2.225,20.086c0,0,6.739,2.022,10.403,1.375"/>
			<path fill="#D1A311" d="M83.146,138.928c-0.464-0.762-2.447-2.344-3.977,0.586c-1.53,2.928-3.212,18.353,2.448,19.455
				c5.66,1.105,3.961-11.961,3.824-12.428C85.261,145.93,84.209,140.672,83.146,138.928z"/>
			<path fill="#9E7902" d="M82.832,139.607c-0.367-0.707-1.933-2.174-3.141,0.545c-1.208,2.717-2.537,17.033,1.933,18.061
				c4.47,1.028,3.045-11.102,3.02-11.537C84.606,146.023,83.671,141.227,82.832,139.607z"/>
			<path fill="#FFFFFF" d="M78.621,145.383c0.161-1.311,0.36-2.48,0.575-3.418c1.144,0.018,2.097-0.098,2.097-0.098l-0.438,3.625
				C80.071,145.678,79.307,145.592,78.621,145.383z"/>
			<path fill="#FFFFFF" d="M80.835,142.137c0,0,1-6.5,5.5-7c0,0,3.667-0.332,4.333,0.918c0,0,0.833,1.582-0.917,1.832
				s-3.417,0.334-3.917,0.75c0,0,5.5-0.332,7,1.418c0,0,0.917,2.082-1.25,2.332s-6.75-1.082-6.75,0.25
				c0,1.334-1.833,5.334-4.833,2.668C77.002,142.637,80.835,142.137,80.835,142.137z"/>
			<circle fill="#443E3E" cx="92.578" cy="123.408" r="0.938"/>
			<path fill="#D0D2D3" d="M192.307,109.97c-7.166-0.167-13.562-17.848-21.332,0.167c-7.334,17,0.795,49.355-18.326,59.671
				c0.972-0.199,1.938-0.498,2.854-0.938c1.063-0.427,1.939-1.115,2.854-1.771c0.797-0.735,1.664-1.479,2.283-2.332
				c2.709-3.354,4.166-7.197,5.241-11.012c0.304-0.959,0.509-1.918,0.72-2.883l0.319-1.448l0.08-0.362l0.075-0.383l0.129-0.729
				c0.33-2,0.566-3.846,0.82-5.727c0.977-7.445,2.024-14.769,3.688-21.31c0.828-3.257,1.807-6.313,2.98-8.911
				c1.148-2.589,2.604-4.709,3.91-5.688c0.646-0.5,1.187-0.727,1.688-0.807c0.499-0.089,1.023-0.069,1.635,0.077
				c1.225,0.29,2.577,1.039,3.645,1.789c1.084,0.739,1.937,1.482,2.508,1.984c0.566,0.521,0.874,0.801,0.874,0.801l0.133,0.122
				c0.047,0.042,0.095,0.084,0.146,0.125c2.109,1.78,5.271,1.511,7.051-0.603c1.584-1.881,1.535-4.582,0.02-6.41
				C196.831,106.341,196.672,110.072,192.307,109.97z"/>
		</g>
		<g>
			<g>
				<path fill="#D0D2D3" d="M93.725,55.796c4.448,0,9.651,0.935,15.348,3.67c0.998-0.876,2.302-1.412,3.734-1.412
					c3.129,0,5.667,2.537,5.667,5.667c0,0.729-0.142,1.42-0.392,2.061c1.498,1.558,2.883,3.384,3.989,5.48
					c1.747-0.67,3.234-1.014,4.498-1.127c0.015-0.001,0.021-0.002,0.033-0.003c0.199-0.018,0.396-0.028,0.584-0.035
					c0.021-0.001,0.041-0.002,0.063-0.002c0.092-0.002,0.187-0.004,0.271-0.004c0.088,0,0.176,0.001,0.263,0.004
					c0.021,0,0.046,0.001,0.065,0.001c0.172,0.006,0.336,0.017,0.495,0.031c0.021,0.001,0.041,0.003,0.063,0.005
					c0.162,0.016,0.316,0.036,0.47,0.06c0.019,0.002,0.033,0.005,0.05,0.008c0.153,0.025,0.303,0.054,0.445,0.087
					c0.011,0.002,0.021,0.004,0.029,0.007c0.146,0.035,0.293,0.073,0.432,0.115c0.001,0,0.001,0,0.002,0
					c1.29,0.393,2.139,1.078,2.671,1.697c0.005,0.005,0.011,0.011,0.017,0.016c0.055,0.061,0.104,0.121,0.146,0.181
					c0.008,0.01,0.02,0.021,0.021,0.03c0.043,0.056,0.084,0.11,0.121,0.164c0.01,0.013,0.021,0.025,0.023,0.038
					c0.035,0.05,0.066,0.099,0.102,0.146c0.01,0.015,0.021,0.029,0.025,0.044c0.025,0.044,0.057,0.086,0.077,0.127
					c0.01,0.016,0.021,0.03,0.024,0.045c0.021,0.039,0.043,0.076,0.063,0.112c0.007,0.014,0.017,0.026,0.021,0.039
					c0.02,0.034,0.033,0.066,0.049,0.096c0.008,0.013,0.013,0.024,0.019,0.036c0.015,0.026,0.022,0.052,0.034,0.074
					c0.007,0.014,0.011,0.024,0.018,0.036c0.008,0.017,0.017,0.034,0.021,0.047c0.005,0.014,0.009,0.022,0.013,0.032
					c0.004,0.008,0.008,0.017,0.012,0.022c0.004,0.011,0.006,0.018,0.006,0.018c0.139,0.28,0.238,0.564,0.33,0.851
					c0.017,0.046,0.025,0.092,0.041,0.138c1.104,3.85-1.767,8.201-4.201,11.029c0.23,0.85,0.434,1.711,0.58,2.585
					c1.941,5.554,3.525,10.735,4.795,15.577c0.031-0.251,0.021-0.589-0.131-0.993c0,0,0.052-0.009,0.125-0.009
					c0.146,0,0.39,0.037,0.5,0.259c0.011,0.021,0.022,0.068,0.047,0.138c0.014,0.039,0.027,0.099,0.046,0.151
					c0.012,0.04,0.021,0.07,0.032,0.118c0.02,0.064,0.039,0.145,0.062,0.221c0.017,0.057,0.026,0.105,0.045,0.168
					c0.021,0.08,0.046,0.174,0.067,0.263c0.02,0.071,0.035,0.136,0.057,0.212c0.002,0.009,0.004,0.016,0.006,0.024l0,0
					c0.178,0.688,0.396,1.566,0.606,2.433l0.989,3.813c-0.01,0.015-0.021,0.03-0.025,0.045c0.001,0.001,0.001,0.001,0.001,0.002
					c1.065,3.578,7.924,27.821,3.772,45.748c-0.014,0.049-0.021,0.096-0.031,0.146c-0.165,0.711-0.348,1.414-0.549,2.104
					c0,0-0.553,0.647-2.017,0.971c0.528,0.367,1.063,0.733,1.628,1.094c0.657,0.414,1.331,0.816,2.041,1.199
					c1.141,0.587,2.333,1.16,3.569,1.549c1.231,0.434,2.502,0.65,3.706,0.672c0.088,0.003,0.174,0.005,0.261,0.005
					c1.115,0,2.136-0.271,3.063-0.771c0.527-0.205,0.975-0.646,1.463-0.987c0.432-0.481,0.922-0.869,1.304-1.479
					c1.66-2.216,2.815-5.354,3.582-8.683c0.229-0.815,0.371-1.685,0.521-2.547l0.229-1.297l0.062-0.324l0.049-0.308l0.09-0.662
					c0.209-1.709,0.377-3.604,0.549-5.461c0.671-7.5,1.428-15.147,2.938-22.362c0.762-3.611,1.7-7.125,3.049-10.482
					c0.676-1.678,1.461-3.319,2.445-4.896c0.987-1.571,2.152-3.098,3.694-4.412c1.511-1.315,3.425-2.384,5.438-2.863
					c1.063-0.266,2.112-0.376,3.109-0.376c0.889,0,1.729,0.087,2.496,0.229c3.285,0.644,5.479,1.923,7.158,2.95
					c1.681,1.052,2.814,1.977,3.599,2.604c0.761,0.638,1.162,0.979,1.162,0.979c0.229,0.196,0.437,0.414,0.621,0.64l0,0
					c0.146,0.179,0.271,0.371,0.394,0.563c0.043,0.068,0.092,0.133,0.129,0.202c0.101,0.178,0.178,0.362,0.252,0.548
					c0.041,0.098,0.082,0.194,0.113,0.294c0.061,0.174,0.104,0.349,0.143,0.528c0.023,0.123,0.051,0.245,0.063,0.369
					c0.021,0.165,0.037,0.329,0.048,0.496c0.006,0.145,0.002,0.289-0.009,0.434c-0.007,0.151-0.016,0.3-0.034,0.45
					c-0.021,0.166-0.063,0.328-0.104,0.491c-0.032,0.131-0.063,0.261-0.104,0.39c-0.063,0.188-0.146,0.371-0.23,0.553
					c-0.049,0.099-0.083,0.201-0.139,0.297c-0.151,0.276-0.332,0.542-0.543,0.793c-0.987,1.175-2.402,1.78-3.828,1.78
					c-1.139,0-2.281-0.387-3.225-1.177c-0.048-0.041-0.096-0.083-0.143-0.125l-0.135-0.122c0,0-0.305-0.278-0.873-0.801
					c-0.57-0.502-1.422-1.245-2.504-1.984c-1.065-0.75-2.42-1.499-3.646-1.789c-0.368-0.088-0.706-0.13-1.022-0.13
					c-0.211,0-0.412,0.018-0.607,0.053c-0.501,0.08-1.04,0.307-1.688,0.807c-1.304,0.978-2.76,3.098-3.91,5.688
					c-1.176,2.599-2.15,5.654-2.979,8.911c-1.657,6.542-2.711,13.86-3.688,21.308c-0.254,1.882-0.488,3.726-0.817,5.726
					l-0.131,0.728L167,149.08l-0.08,0.359l-0.316,1.449c-0.211,0.965-0.416,1.924-0.723,2.883
					c-1.072,3.813-2.529,7.655-5.238,11.011c-0.619,0.854-1.486,1.597-2.283,2.332c-0.914,0.651-1.799,1.345-2.856,1.771
					c-0.463,0.225-0.938,0.406-1.421,0.563c-1.027,0.34-2.08,0.538-3.107,0.61c0,0,0,0-0.002,0
					c-0.188,0.017-0.369,0.021-0.558,0.022c-0.185,0.007-0.366,0.011-0.55,0.011c-0.229,0-0.449-0.006-0.67-0.021
					c-2.021-0.115-3.865-0.572-5.479-1.206c-1.646-0.601-3.075-1.363-4.413-2.13c-2.639-1.567-4.794-3.256-6.619-4.813
					c-0.774-0.668-1.479-1.311-2.141-1.925c-0.521,6.142-0.628,12.599-0.602,17.558c0.732,0.084,1.223,0.641,1.223,0.641
					c0.063,5.813-0.75,8.125-0.75,8.125c-0.611,0.212-1.236,0.396-1.868,0.563c-0.413,0.155-0.817,0.283-1.222,0.386
					c0.22,0.729,0.314,1.557-0.008,2.274c-0.002,0.006-0.002,0.004-0.004,0.01c0.002,0.003,0.006,0.009,0.006,0.009l-0.055,3
					c-7.214,1.252-13.161,1.672-17.896,1.672c-9.655,0-14.271-1.744-14.271-1.744l0.027-0.594c-3.278,0.313-6.193,0.437-8.754,0.437
					c-9.655,0-14.272-1.743-14.272-1.743l0.167-3.656c0.043,0.024,0.106,0.049,0.156,0.069c-0.234-0.213-0.187-0.438,0.24-0.681
					c2.526-1.416,6.025-2.114,8.144-2.435c-0.785-0.18-1.348-0.372-1.582-0.563c-1.375-1.125-1.875-7-1.875-7
					s1.026-0.744,2.158-0.744c0.147,0,0.297,0.014,0.446,0.041c-0.624-5.896-0.136-11.813,0.619-16.623
					c-3.711-0.039-8.575-1.498-8.575-1.498c-0.266-1.354-0.437-2.683-0.533-3.965c-5.088-15.989,6.139-22.397,14.354-24.908V123.7
					C68.932,121.693,55.564,110.88,53,97.175c-0.29-1.336-0.448-2.707-0.448-4.105c0-0.124,0.01-0.245,0.012-0.368
					c-0.001-0.111-0.01-0.22-0.01-0.332c0-3.945,0.895-7.719,2.515-11.203c-0.001,0-0.011,0.002-0.011,0.002
					s-5.603-10.189,1.6-10.189c1.25,0,2.888,0.308,5.007,1.029c0.003,0.001,0.005,0.002,0.008,0.003
					c3.277-3.172,7.306-5.81,11.863-7.74c-0.475,0.068-0.729,0.114-0.729,0.114s0.312-0.399,0.865-0.966
					c-0.046,0.006-0.104,0.014-0.147,0.02c1.268-1.596,2.922-3.256,5.575-3.95C81.223,58.281,86.47,55.795,93.725,55.796
					 M99.524,122.183c0.833-0.291,1.782-0.631,2.826-1.021c0.003-0.004,0.006-0.006,0.009-0.008
					c-1.048,0.391-2.001,0.731-2.839,1.022C99.521,122.179,99.523,122.181,99.524,122.183 M93.725,54.796
					c-7.453,0-12.902,2.58-15.007,3.763c-2.936,0.808-4.734,2.697-5.976,4.261l-0.871,1.097c-3.952,1.823-7.461,4.159-10.454,6.959
					c-1.861-0.593-3.462-0.895-4.76-0.895c-2.417,0-3.545,1.05-4.066,1.931c-1.673,2.828,0.559,7.729,1.358,9.301
					c-1.59,3.579-2.396,7.33-2.396,11.158c0,0.075,0.003,0.15,0.006,0.225l0.004,0.12l-0.005,0.099
					c-0.004,0.085-0.007,0.17-0.007,0.256c0,1.426,0.158,2.879,0.471,4.317c2.579,13.781,16.002,24.875,32.795,27.192v3.295
					c-4.779,1.563-10.79,4.577-13.768,10.254c-2.271,4.329-2.464,9.569-0.575,15.578c0.105,1.343,0.287,2.677,0.54,3.966
					l0.116,0.593l0.578,0.174c0.184,0.059,4.14,1.23,7.708,1.49c-0.751,5.25-0.94,10.185-0.563,14.688
					c-1.116,0.188-1.982,0.798-2.093,0.878l-0.458,0.332l0.048,0.563c0.109,1.274,0.521,5.123,1.651,6.979
					c-1.959,0.435-4.096,1.087-5.831,2.062c-0.077,0.043-0.15,0.088-0.217,0.137l-0.613-0.359l-0.076,1.661l-0.167,3.653
					l-0.033,0.729l0.679,0.256c0.196,0.074,4.9,1.811,14.626,1.811c2.455,0,5.042-0.11,7.704-0.334l-0.008,0.173l0.678,0.258
					c0.195,0.073,4.898,1.81,14.624,1.81c5.541,0,11.62-0.564,18.066-1.686l0.813-0.143l0.016-0.826l0.053-2.854
					c0.19-0.542,0.248-1.129,0.174-1.765c0.119-0.041,0.238-0.083,0.357-0.13c0.729-0.191,1.327-0.375,1.889-0.566l0.457-0.156
					l0.16-0.455c0.037-0.104,0.871-2.547,0.812-8.47l-0.004-0.366l-0.243-0.277c-0.057-0.063-0.4-0.444-0.979-0.717
					c-0.014-3.944,0.063-9.347,0.438-14.703c0.218,0.188,0.433,0.379,0.649,0.563c1.479,1.268,3.795,3.149,6.759,4.915
					c1.368,0.781,2.858,1.582,4.584,2.209c1.838,0.726,3.784,1.15,5.762,1.269c0.228,0.02,0.478,0.021,0.729,0.021
					c0.188,0,0.39-0.004,0.586-0.012l0.08-0.003c0.17-0.007,0.339-0.013,0.512-0.022c1.146-0.082,2.273-0.305,3.352-0.66
					c0.521-0.166,1.03-0.365,1.51-0.595c1.021-0.416,1.865-1.024,2.688-1.616l0.354-0.253l0.052-0.036l0.048-0.045l0.376-0.345
					c0.709-0.646,1.44-1.317,2.021-2.112c3.014-3.733,4.476-8.022,5.408-11.347c0.295-0.933,0.504-1.888,0.704-2.813l0.028-0.129
					l0.318-1.447l0.08-0.361l0.08-0.405l0.131-0.741c0.293-1.771,0.518-3.434,0.729-5.037l0.1-0.729
					c0.926-7.062,1.971-14.509,3.666-21.194c0.879-3.459,1.861-6.402,2.922-8.745c1.07-2.407,2.451-4.436,3.604-5.3
					c0.613-0.475,1.004-0.58,1.244-0.619c0.156-0.028,0.302-0.041,0.447-0.041c0.244,0,0.507,0.034,0.793,0.104
					c0.938,0.222,2.144,0.817,3.306,1.634c1.058,0.721,1.876,1.441,2.418,1.917l0.854,0.787l0.133,0.121
					c0.062,0.053,0.113,0.101,0.171,0.148c1.088,0.917,2.459,1.418,3.87,1.418c1.773,0,3.449-0.778,4.597-2.135
					c0.242-0.29,0.456-0.601,0.647-0.952c0.051-0.089,0.095-0.182,0.133-0.276l0.033-0.078c0.088-0.188,0.195-0.417,0.278-0.667
					c0.041-0.125,0.072-0.25,0.104-0.377l0.021-0.088c0.052-0.198,0.097-0.396,0.121-0.596c0.022-0.175,0.037-0.354,0.045-0.539
					c0.011-0.173,0.015-0.346,0.007-0.52c-0.01-0.198-0.025-0.394-0.054-0.59c-0.021-0.153-0.05-0.298-0.081-0.444
					c-0.051-0.238-0.104-0.44-0.168-0.632c-0.034-0.102-0.072-0.201-0.113-0.301l-0.022-0.057c-0.081-0.205-0.179-0.429-0.304-0.656
					c-0.035-0.063-0.076-0.128-0.119-0.192l-0.029-0.048c-0.139-0.221-0.285-0.452-0.477-0.68c-0.256-0.31-0.494-0.554-0.746-0.766
					l-1.162-0.979l-0.104-0.082c-0.771-0.62-1.938-1.558-3.609-2.604c-1.883-1.152-4.159-2.43-7.496-3.083
					c-0.893-0.165-1.793-0.248-2.688-0.248c-1.146,0-2.275,0.137-3.354,0.406c-2.049,0.487-4.133,1.581-5.854,3.079
					c-1.425,1.213-2.661,2.688-3.885,4.634c-0.938,1.501-1.767,3.155-2.526,5.056c-1.228,3.055-2.211,6.438-3.102,10.648
					c-1.521,7.271-2.292,15.095-2.953,22.479l-0.051,0.539c-0.15,1.649-0.309,3.358-0.494,4.891l-0.09,0.648l-0.045,0.285
					l-0.055,0.301l-0.229,1.299l-0.031,0.181c-0.142,0.804-0.271,1.563-0.47,2.274c-0.824,3.591-2.004,6.461-3.42,8.353
					l-0.023,0.033l-0.021,0.032c-0.196,0.318-0.445,0.568-0.733,0.857c-0.131,0.135-0.263,0.266-0.39,0.4
					c-0.132,0.095-0.259,0.191-0.386,0.294c-0.273,0.219-0.539,0.425-0.771,0.515l-0.06,0.021l-0.057,0.027
					c-0.813,0.438-1.66,0.646-2.594,0.646c-0.074,0-0.146-0.001-0.227-0.004c-1.142-0.02-2.313-0.229-3.412-0.616
					c-1.215-0.379-2.367-0.938-3.44-1.489c-0.584-0.313-1.214-0.688-1.965-1.158c-0.015-0.012-0.022-0.02-0.039-0.022
					c0.392-0.25,0.591-0.473,0.651-0.544l0.139-0.161l0.063-0.203c0.188-0.646,0.375-1.351,0.563-2.155l0.021-0.113
					c4.063-17.54-2.09-40.503-3.67-45.899l0.021-0.033l-0.094-0.348v-0.137l-0.049-0.048l-0.945-3.65
					c-0.209-0.857-0.432-1.738-0.604-2.43l-0.043-0.163l-0.021-0.078l-0.07-0.271l-0.021-0.078l-0.021-0.082l-0.024-0.104
					l-0.037-0.132l-0.036-0.133l-0.048-0.161c-0.049-0.156-0.092-0.256-0.113-0.302c-0.178-0.35-0.48-0.603-0.861-0.724
					c-1.211-4.447-2.67-9.115-4.346-13.906c-0.117-0.678-0.268-1.365-0.45-2.086c2.582-3.099,5.229-7.491,4.063-11.554
					c-0.014-0.047-0.028-0.107-0.049-0.166c-0.113-0.359-0.229-0.661-0.363-0.941l-0.006-0.015l-0.008-0.018l-0.021-0.049
					l-0.012-0.021l-0.047-0.104l-0.025-0.059l-0.074-0.151l-0.001-0.002l-0.022-0.046c-0.021-0.045-0.051-0.092-0.078-0.141
					l-0.049-0.085c-0.012-0.017-0.043-0.07-0.076-0.125l-0.877,0.484l0.847-0.535c-0.033-0.053-0.069-0.107-0.106-0.162
					l-0.013-0.018l-0.032-0.045c-0.039-0.056-0.08-0.113-0.125-0.171l-0.009-0.011l-0.049-0.06c-0.048-0.06-0.104-0.135-0.173-0.21
					c-0.797-0.923-1.854-1.605-3.071-1.992l-0.142-0.068h-0.088c-0.11-0.031-0.229-0.061-0.35-0.088l-0.021-0.006l-0.055-0.011
					c-0.117-0.028-0.287-0.061-0.463-0.09l-0.066-0.011c-0.157-0.025-0.332-0.047-0.516-0.065l-0.089-0.008
					c-0.157-0.015-0.345-0.026-0.534-0.033l-0.076-0.001c-0.092-0.003-0.188-0.004-0.285-0.004c-0.1,0-0.196,0.001-0.299,0.004
					l-0.084,0.003c-0.188,0.006-0.402,0.018-0.621,0.037c-1.241,0.111-2.566,0.411-3.979,0.895
					c-0.914-1.588-2.024-3.096-3.313-4.498c0.168-0.592,0.253-1.198,0.253-1.811c0-3.676-2.991-6.667-6.667-6.667
					c-1.391,0-2.741,0.438-3.868,1.243C103.913,55.974,98.798,54.796,93.725,54.796L93.725,54.796z"/>
			</g>
		</g>
	</g>
</g>
<g>
	<path opacity="0.15" d="M186.055,156.334c7.017-10.854,11.094-23.783,11.094-37.668c0-21.593-9.85-40.885-25.299-53.631
		c-11.163-9.209-25.252-14.993-40.66-15.765c-3.472-8.612-15.596-14.97-30.022-14.97c-17.133,0-31.021,8.966-31.021,20.028
		c0,5.6,3.563,10.661,9.301,14.294c-7.187,6.925-12.886,15.382-16.57,24.847c-3.041,7.813-4.712,16.309-4.712,25.197
		c0,13.594,3.907,26.276,10.655,36.987l-16.289,11.65v52.32h148.859v-52.32L186.055,156.334z"/>
	<path fill="#FFFFFF" d="M182.133,152.412c7.017-10.854,11.093-23.783,11.093-37.668c0-21.593-9.849-40.885-25.298-53.632
		c-11.163-9.208-25.252-14.992-40.661-15.765c-3.471-8.612-15.595-14.97-30.021-14.97c-17.132,0-31.021,8.966-31.021,20.028
		c0,5.599,3.563,10.66,9.301,14.294c-7.187,6.925-12.886,15.381-16.57,24.847c-3.042,7.813-4.712,16.309-4.712,25.197
		c0,13.594,3.908,26.276,10.655,36.987l-16.289,11.65v52.32h148.859v-52.32L182.133,152.412z"/>
	<polygon fill="#0F75BC" points="48.609,163.381 123.039,110.146 197.469,163.381 119.813,181.752 	"/>
	<path fill="#EA94FF" d="M136.729,62.342c10.851-4.584,21.974-4.714,31.198-1.23c-12.012-9.908-27.406-15.86-44.194-15.86
		c-17.18,0-32.901,6.238-45.03,16.568c4.79,1.8,6.666,3.374,6.666,3.374c19.741,16.277,25.167,23.271,25.167,23.271
		c0.003,0.012,0.005,0.026,0.008,0.039C115.123,77.366,124.413,67.545,136.729,62.342z"/>
	<path fill="#EA94FF" d="M148.253,153.209c0,0,6.761-9.574,7.786-17.545c-1.304,0.416-2.607,0.773-3.908,1.068
		c1.589-1.418,2.871-3.129,3.853-5.061c-0.28-1.445-0.887-2.742-1.938-3.793l4.173-9.798c-0.572-6.271-3.012-13.044-7.338-19.264
		l0.001,0.005c-10.086-14.498-26.566-20.473-36.814-13.354c-1.334,0.928-2.482,2.045-3.472,3.297
		c1.801,8.843,0.333,34.279,0.333,34.279c0,5.687-2.353,3.791-2.811,4.052c-0.785,1.766-2.288,8.135-2.288,8.135
		c-1.831,1.598-3.465-0.551-3.465-0.551c-2.157,1.242-2.941,0-2.941,0c-3.857-4.379-3.203-21.899-3.203-21.899
		c-3.465-5.753-1.866-10.917-1.866-10.917c-1.67,2.681-4.737,4.903-4.737,4.903c3.988,4.445,3.269,7.91,3.269,7.91
		c4.576,13.662-3.007,13.792-3.007,13.792c-2.223,0.326-2.092-5.229-2.092-5.229l-8.563-14.904
		c-6.014-5.425-7.975-12.159-7.975-12.159c-0.866-2.252,0.202-6.316,0.202-6.316l-12.498-0.314
		c-3.042,7.813-4.712,16.309-4.712,25.197c0,38.379,31.112,69.491,69.491,69.491c0.706,0,1.407-0.014,2.108-0.035
		C125.489,177.49,127.183,162.039,148.253,153.209z"/>
	<path fill="#F7F7F7" d="M93.101,117.626c0,0,19.332,56.763,69.534,13.097v13.074c0,0-33.195,41.594-75.951-18.162"/>
	<path fill="#D0D1D2" d="M130.532,72.291l-9.716,4.977l-3.882,0.47C119.933,55.809,130.533,72.291,130.532,72.291L130.532,72.291z"
		/>
	<g>
		<path fill="#FF7777" d="M147.803,167.127c0.331-0.596,0.682-1.209,1.05-1.832C148.484,165.918,148.134,166.531,147.803,167.127z"
			/>
		<path fill="#FF7777" d="M142.68,179.479c0.084-0.338,0.179-0.689,0.282-1.049C142.858,178.789,142.764,179.139,142.68,179.479z"/>
		<path fill="#FF7777" d="M149.2,164.717c0.264-0.439,0.532-0.883,0.816-1.336C149.732,163.834,149.464,164.277,149.2,164.717z"/>
		<path fill="#FF7777" d="M142.412,180.623c0.066-0.309,0.141-0.631,0.221-0.961C142.553,179.992,142.479,180.314,142.412,180.623z"
			/>
		<path fill="#FF7777" d="M150.482,162.646c0.267-0.42,0.54-0.844,0.824-1.273C151.022,161.803,150.749,162.227,150.482,162.646z"/>
		<path fill="#FF7777" d="M146.862,168.885c0.272-0.525,0.559-1.061,0.859-1.607C147.421,167.824,147.135,168.359,146.862,168.885z"
			/>
		<path fill="#FF7777" d="M144.588,173.777c0.14-0.344,0.287-0.693,0.442-1.049C144.875,173.086,144.728,173.434,144.588,173.777z"
			/>
		<path fill="#FF7777" d="M143.004,178.279c0.24-0.83,0.526-1.719,0.87-2.666C143.53,176.561,143.244,177.449,143.004,178.279z"/>
		<path fill="#FF7777" d="M145.266,172.193c0.153-0.346,0.315-0.697,0.484-1.055C145.581,171.496,145.419,171.848,145.266,172.193z"
			/>
		<path fill="#FF7777" d="M146.02,170.572c0.183-0.379,0.376-0.766,0.573-1.156C146.396,169.807,146.202,170.193,146.02,170.572z"/>
		<path fill="#FF7777" d="M142.193,181.748c0.054-0.316,0.118-0.646,0.19-0.99C142.312,181.102,142.247,181.432,142.193,181.748z"/>
		<path fill="#FF7777" d="M153.308,158.451c0.343-0.484,0.702-0.979,1.065-1.475C154.01,157.475,153.65,157.967,153.308,158.451z"/>
		<path fill="#FF7777" d="M143.949,175.414c0.144-0.391,0.296-0.789,0.459-1.199C144.245,174.625,144.093,175.023,143.949,175.414z"
			/>
		<path fill="#FF7777" d="M154.898,156.26c0.552-0.742,1.122-1.496,1.723-2.266C156.021,154.764,155.45,155.518,154.898,156.26z"/>
		<path fill="#FF7777" d="M151.84,160.576c0.291-0.434,0.594-0.873,0.902-1.316C152.434,159.703,152.131,160.143,151.84,160.576z"/>
		<path fill="#D0D1D2" d="M142.193,181.748c0.054-0.316,0.118-0.646,0.19-0.99c0.009-0.043,0.019-0.09,0.028-0.135
			c0.066-0.309,0.141-0.631,0.221-0.961c0.017-0.061,0.031-0.121,0.047-0.184c0.084-0.34,0.179-0.689,0.282-1.049
			c0.014-0.051,0.025-0.1,0.042-0.15c0.24-0.83,0.526-1.719,0.87-2.666c0.023-0.064,0.051-0.133,0.075-0.199
			c0.144-0.391,0.296-0.789,0.459-1.199c0.059-0.145,0.12-0.291,0.18-0.438c0.14-0.344,0.287-0.691,0.442-1.049
			c0.076-0.176,0.155-0.355,0.235-0.535c0.153-0.346,0.315-0.697,0.484-1.055c0.089-0.188,0.176-0.375,0.27-0.566
			c0.183-0.379,0.376-0.766,0.573-1.156c0.09-0.178,0.177-0.352,0.27-0.531c0.272-0.525,0.559-1.061,0.859-1.607
			c0.028-0.049,0.053-0.1,0.081-0.15c0.331-0.596,0.682-1.209,1.05-1.832c0.111-0.189,0.233-0.385,0.348-0.578
			c0.264-0.439,0.532-0.883,0.816-1.336c0.15-0.242,0.31-0.488,0.466-0.734c0.267-0.42,0.54-0.844,0.824-1.273
			c0.175-0.264,0.353-0.529,0.533-0.797c0.291-0.434,0.594-0.873,0.902-1.316c0.187-0.27,0.372-0.537,0.565-0.809
			c0.343-0.484,0.702-0.977,1.065-1.475c0.175-0.24,0.344-0.475,0.525-0.717c0.552-0.742,1.122-1.496,1.723-2.266l8.443-22.281
			c-1.599,0.896-3.251,1.723-4.97,2.449c-1.35,0.57-2.702,1.066-4.056,1.502c-1.025,7.971-7.786,17.545-7.786,17.545
			c-21.07,8.83-22.764,24.281-22.411,30.99c5.645-0.168,11.12-1.01,16.351-2.447C142.192,181.75,142.192,181.748,142.193,181.748z"
			/>
		<path fill="#FFFFFF" d="M110.256,89.189c0.108-0.146,0.228-0.282,0.34-0.424c-0.018-0.085-0.034-0.179-0.052-0.262
			C110.451,88.733,110.346,88.958,110.256,89.189z"/>
		<path fill="#FFFFFF" d="M114.068,85.468c10.248-7.119,26.728-1.144,36.814,13.354l-0.001-0.005
			c4.326,6.22,6.766,12.993,7.338,19.264l-4.173,9.798c1.051,1.051,1.657,2.348,1.938,3.793c-0.981,1.932-2.264,3.643-3.853,5.061
			c1.301-0.295,2.604-0.652,3.908-1.068c0.115-0.891,0.161-1.762,0.115-2.596l9.879-3.914l-9.412,24.84
			c-0.601,0.77-1.171,1.523-1.723,2.266c-0.182,0.242-0.351,0.477-0.525,0.717c-0.363,0.496-0.723,0.99-1.065,1.475
			c-0.193,0.271-0.379,0.539-0.565,0.809c-0.309,0.443-0.611,0.883-0.902,1.316c-0.18,0.268-0.358,0.533-0.533,0.797
			c-0.284,0.43-0.558,0.854-0.824,1.273c-0.156,0.246-0.315,0.492-0.466,0.734c-0.284,0.453-0.553,0.896-0.816,1.336
			c-0.114,0.193-0.236,0.389-0.348,0.578c-0.368,0.623-0.719,1.236-1.05,1.832c-0.028,0.051-0.053,0.102-0.081,0.15
			c-0.301,0.547-0.587,1.082-0.859,1.607c-0.093,0.18-0.18,0.354-0.27,0.531c-0.197,0.391-0.391,0.777-0.573,1.156
			c-0.094,0.191-0.181,0.379-0.27,0.566c-0.169,0.357-0.331,0.709-0.484,1.055c-0.08,0.18-0.159,0.359-0.235,0.535
			c-0.155,0.355-0.303,0.705-0.442,1.049c-0.06,0.146-0.121,0.293-0.18,0.438c-0.163,0.41-0.315,0.809-0.459,1.199
			c-0.024,0.066-0.052,0.135-0.075,0.199c-0.344,0.947-0.63,1.836-0.87,2.666c-0.017,0.051-0.028,0.1-0.042,0.15
			c-0.104,0.359-0.198,0.711-0.282,1.049c-0.016,0.063-0.03,0.123-0.047,0.184c-0.08,0.33-0.154,0.652-0.221,0.961
			c-0.01,0.045-0.02,0.092-0.028,0.135c-0.072,0.344-0.137,0.674-0.19,0.99c-0.001,0-0.001,0.002-0.001,0.004
			c29.419-8.086,51.033-35.021,51.033-67.008c0-21.593-9.849-40.885-25.298-53.632c-9.225-3.484-20.348-3.354-31.198,1.23
			c-12.317,5.203-21.607,15.024-26.185,26.162c0.018,0.083,0.034,0.176,0.052,0.262C111.586,87.513,112.733,86.396,114.068,85.468z"
			/>
		<path fill="#FFFFFF" d="M142.633,179.662c0.017-0.061,0.031-0.121,0.047-0.184C142.664,179.541,142.649,179.602,142.633,179.662z"
			/>
		<path fill="#FFFFFF" d="M143.874,175.613c0.023-0.064,0.051-0.133,0.075-0.199C143.925,175.48,143.897,175.549,143.874,175.613z"
			/>
		<polygon fill="#FFFFFF" points="142.192,181.752 142.192,181.752 142.193,181.748 		"/>
		<path fill="#FFFFFF" d="M142.962,178.43c0.014-0.051,0.025-0.1,0.042-0.15C142.987,178.33,142.976,178.379,142.962,178.43z"/>
		<path fill="#FFFFFF" d="M142.384,180.758c0.009-0.043,0.019-0.09,0.028-0.135C142.402,180.668,142.393,180.715,142.384,180.758z"
			/>
		<path fill="#FFFFFF" d="M145.75,171.139c0.089-0.188,0.176-0.375,0.27-0.566C145.926,170.764,145.839,170.951,145.75,171.139z"/>
		<path fill="#FFFFFF" d="M152.742,159.26c0.187-0.27,0.372-0.537,0.565-0.809C153.114,158.723,152.929,158.99,152.742,159.26z"/>
		<path fill="#FFFFFF" d="M150.017,163.381c0.15-0.242,0.31-0.488,0.466-0.734C150.326,162.893,150.167,163.139,150.017,163.381z"/>
		<path fill="#FFFFFF" d="M151.307,161.373c0.175-0.264,0.354-0.529,0.533-0.797C151.659,160.844,151.481,161.109,151.307,161.373z"
			/>
		<path fill="#FFFFFF" d="M154.373,156.977c0.175-0.24,0.344-0.475,0.525-0.717C154.717,156.502,154.548,156.736,154.373,156.977z"
			/>
		<path fill="#FFFFFF" d="M156.154,133.068c0.046,0.834,0,1.705-0.115,2.596c1.354-0.436,2.706-0.932,4.056-1.502
			c1.719-0.727,3.371-1.553,4.97-2.449l-8.443,22.281l9.412-24.84L156.154,133.068z"/>
		<path fill="#FFFFFF" d="M144.408,174.215c0.059-0.145,0.12-0.291,0.18-0.438C144.528,173.924,144.467,174.07,144.408,174.215z"/>
		<path fill="#FFFFFF" d="M146.593,169.416c0.09-0.178,0.177-0.352,0.27-0.531C146.77,169.064,146.683,169.238,146.593,169.416z"/>
		<path fill="#FFFFFF" d="M145.03,172.729c0.076-0.176,0.155-0.355,0.235-0.535C145.186,172.373,145.106,172.553,145.03,172.729z"/>
		<path fill="#FFFFFF" d="M148.853,165.295c0.111-0.189,0.233-0.385,0.348-0.578C149.086,164.91,148.964,165.105,148.853,165.295z"
			/>
		<path fill="#FFFFFF" d="M147.722,167.277c0.028-0.049,0.053-0.1,0.081-0.15C147.774,167.178,147.75,167.229,147.722,167.277z"/>
	</g>
	<path fill="#D0D1D2" d="M150.881,98.817l0.001,0.005c-10.086-14.498-26.566-20.473-36.814-13.354
		c-1.486,1.033-2.752,2.291-3.812,3.721c-3.257,8.315-3.892,17.322-1.173,25.679c5.666,17.416,23.965,26.193,43.048,21.865
		C160.816,128.982,160.432,112.546,150.881,98.817z"/>
	<path fill="#919396" d="M136.577,69.846c9.515-17.96,12.888,1.636,12.888,1.636l0.662,2.842c-2.22-2.203-13.566-4.484-13.546-4.481
		L136.577,69.846z"/>
	<path fill="#ACAFB1" d="M141.631,97.742c-3.633-9.557-13.733-14.722-22.561-11.536c-8.83,3.182-13.042,13.512-9.412,23.067
		c3.632,9.556,13.732,14.723,22.561,11.536c8.829-3.186,13.042-13.515,9.412-23.068V97.742z"/>
	<path fill="#919396" d="M110.449,111.225c0,0,11.026-12.916,31.584-12.21C142.033,99.015,123.943,101.341,110.449,111.225z"/>
	<path fill="#D0D1D2" d="M131.3,69.793c3.173,2.955,5.683,0.816,5.683,0.816c10.751-18.169,11.858,3.864,11.858,3.864
		c2.3,3.03,5.205,2.618,5.205,2.618l-0.19-4.568c0.203-17.827-11.721-16.931-11.721-16.931
		c-8.164,1.759-10.841,14.196-10.841,14.196L131.3,69.793z"/>
	<g>
		<path fill="#0B8ECC" d="M111.045,119.619c0,0,0.809-3.83,3.3-2.051l0.657,8.066C115.002,125.635,110.502,122.471,111.045,119.619z
			"/>
		<path fill="#FFFFFF" d="M114.604,124.915l-0.309-3.001C112.547,122.874,114.604,124.915,114.604,124.915z"/>
	</g>
	<path fill="#F7F7F7" d="M92.038,119.873c0,0,6.222-6.336,2.72-8.648l-2.72,1.181V119.873z"/>
	<path fill="#F7F7F7" d="M79.58,118.844c0,0-0.452,3.665,3.977,3.72l-2.167,1.102c0,0-0.32,3.906,9.325,2.483l-1.765-9.052
		L79.58,118.844z"/>
	<path fill="#FFCC77" d="M71.251,96.177c0,0,1.961,6.733,7.975,12.159l8.563,14.904c0,0-0.131,5.555,2.092,5.229
		c0,0,7.583-0.13,3.007-13.792c0,0,0.719-3.465-3.269-7.91c0,0,3.067-2.222,4.737-4.903c0,0-1.599,5.164,1.866,10.917
		c0,0-0.654,17.52,3.203,21.899c0,0,0.784,1.242,2.941,0c0,0,1.634,2.148,3.465,0.551c0,0,1.503-6.369,2.288-8.135
		c0.458-0.261,2.811,1.635,2.811-4.052c0,0,1.504-26.016-0.392-34.58c0,0-5.426-6.994-25.167-23.271c0,0-1.876-1.573-6.666-3.374
		c-8.691,7.402-15.538,16.906-19.749,27.727l12.498,0.314C71.453,89.861,70.386,93.925,71.251,96.177z"/>
	<path opacity="0.5" fill="#C49E51" d="M86.809,117.618c0,0,0.883,0.259,6.292-2.289l-0.148-0.456l-5.686,2.222l5.294-2.549v-0.327
		l-7.125,3.138l1.373-0.261V117.618z"/>
	<path opacity="0.5" fill="#C49E51" d="M89.685,107.421c0,0-3.072,1.896-8.367,1.242c0,0,6.994-0.587,7.648-1.242l-9.021-0.327
		l9.674-0.327L89.685,107.421z"/>
	<path opacity="0.5" fill="#C49E51" d="M66.054,86.209l12.845,1.47c0,0,3.824,8.334,17.061,7.942c0,0,2.255,4.707,7.648-0.686
		c0,0-1.863,3.529-5.785,3.431c0,0-2.255,3.53-2.354,5.197c0,0,0.992-4.933,1.667-5.589l-1.765-0.098c0,0,1.274,3.628-5.687,8.335
		c0,0-19.01,2.399-18.231-16.351l-7.948-2.77l9.315,1.177L66.054,86.209z"/>
	<path opacity="0.5" fill="#C49E51" d="M103.608,99.74c0,0,3.333-0.196,4.118-5.981C107.726,93.759,107.333,97.681,103.608,99.74z"
		/>
	<path opacity="0.5" fill="#C49E51" d="M102.921,105.329c0,0,3.824-5.981,4.804-6.275c0,0-2.941,2.746-5.687,6.275
		c0,0-5.124,0.981-5.491,5.883l1.275-2.412c0,0,0.294,20.062,3.53,25.257c0,0-3.333-8.916-2.745-26.273l1.471-1.016
		c0,0-0.98,19.348,2.059,27.29c0,0-2.918-17.814-1.275-27.746h1.275l2.255,4.313c0,0-2.157,1.569,0.588,6.472
		c0,0-1.373,5.491,2.745,9.609c0,0-3.529-4.598-2.059-9.898h2.059l-2.549-0.884c0,0-1.274-4.024,0.49-5.691l2.059-0.98l-2.941,0.196
		L102.921,105.329z"/>
	<ellipse fill="#FFFFFF" cx="90.715" cy="112.406" rx="4.69" ry="2.338"/>
	
		<ellipse transform="matrix(0.9791 -0.2036 0.2036 0.9791 -22.159 19.8584)" fill="#FFFFFF" cx="85.436" cy="117.626" rx="5.981" ry="2.304"/>
	
		<ellipse transform="matrix(0.979 -0.2036 0.2036 0.979 -23.1406 20.2184)" fill="#FFFFFF" cx="86.684" cy="122.564" rx="5.407" ry="2.205"/>
	<ellipse fill="#FFFFFF" cx="97.245" cy="50.406" rx="31.021" ry="20.028"/>
	<polygon fill="#FFFFFF" points="102.746,67.96 108.762,79.756 108.905,56.627 	"/>
	<g>
		<path fill="#0F75BC" d="M81.574,46.927c0.557,1.333,0.658,2.327,0.658,2.327h0.236c0,0,0.067-1.029,0.607-2.327l2.343-6.794h3.777
			l0.168,1.298c-0.186,0.253-0.557,0.472-0.961,0.624v7.722c0.388,0.151,0.725,0.337,0.927,0.59l-0.168,1.399h-3.844l-0.168-1.383
			c0.203-0.253,0.54-0.438,0.927-0.59V45.41c0-0.995,0.152-2.496,0.152-2.496l-0.169-0.017c0,0-0.388,1.434-0.674,2.277
			l-2.242,6.592H80.9l-2.36-6.592c-0.337-0.827-0.674-2.277-0.674-2.277l-0.168,0.017c0,0,0.151,1.5,0.151,2.496v4.435
			c0.388,0.151,0.725,0.371,0.927,0.623l-0.168,1.299h-3.305l-0.168-1.299c0.202-0.252,0.539-0.472,0.927-0.623v-7.79
			c-0.405-0.152-0.776-0.371-0.961-0.624l0.169-1.298h3.844L81.574,46.927z"/>
		<path fill="#0F75BC" d="M99.814,49.776c0.421,0.151,0.81,0.371,0.995,0.59l-0.168,1.399h-3.946l-0.168-1.399
			c0.152-0.203,0.456-0.371,0.81-0.506l-0.456-1.417h-3.373l-0.421,1.366c0.371,0.152,0.692,0.354,0.877,0.557l-0.169,1.399H89.95
			l-0.168-1.399c0.202-0.253,0.64-0.489,1.13-0.641l3.237-9.679h2.31L99.814,49.776z M93.98,46.893h2.411l-0.641-2.057
			c-0.438-1.399-0.455-2.427-0.455-2.427h-0.236c0,0,0,1.028-0.421,2.394L93.98,46.893z"/>
		<path fill="#0F75BC" d="M104.009,49.844c0.388,0.151,0.725,0.371,0.928,0.623l-0.168,1.299h-3.305l-0.168-1.299
			c0.202-0.252,0.539-0.472,0.927-0.623v-7.79c-0.404-0.152-0.775-0.371-0.96-0.624l0.168-1.298h3.473l3.355,6.542
			c0.405,0.792,0.843,2.293,0.843,2.293l0.186-0.068c0,0-0.236-1.467-0.236-2.461v-4.368c-0.388-0.152-0.725-0.387-0.927-0.641
			l0.168-1.298h3.305l0.168,1.298c-0.202,0.253-0.54,0.488-0.927,0.641v9.695h-2.647l-3.389-6.592
			c-0.405-0.793-0.843-2.293-0.843-2.293l-0.186,0.067c0,0,0.236,1.467,0.236,2.462V49.844z"/>
		<path fill="#0F75BC" d="M117.58,39.997c3.119,0,4.822,1.434,4.822,5.767c0,4.131-1.939,6.137-5.059,6.137
			c-3.085,0-4.771-1.602-4.771-5.918C112.572,41.835,114.494,39.997,117.58,39.997z M117.479,49.996
			c1.434,0,2.394-0.995,2.394-4.046c0-3.086-1.028-4.047-2.427-4.047c-1.383,0-2.344,0.843-2.344,3.928
			C115.101,48.899,116.13,49.996,117.479,49.996z"/>
		<path fill="#0F75BC" d="M90.17,61.67v1.989c0.674,0.152,1.315,0.388,1.534,0.658l-0.168,1.399h-4.552l-0.168-1.399
			c0.168-0.219,0.522-0.405,0.927-0.557v-7.705c-0.404-0.152-0.758-0.354-0.927-0.573l0.168-1.399h4.468
			c2.9,0.051,4.653,0.81,4.653,3.76c0,2.832-2.057,3.827-5.176,3.827H90.17z M90.17,55.92v3.912H91.3
			c1.434,0,2.277-0.473,2.277-2.024c0-1.635-1.063-1.888-2.395-1.888H90.17z"/>
		<path fill="#0F75BC" d="M102.004,53.948c3.12,0,4.822,1.433,4.822,5.766c0,4.131-1.939,6.138-5.058,6.138
			c-3.086,0-4.771-1.602-4.771-5.918C96.997,55.785,98.918,53.948,102.004,53.948z M101.903,63.945c1.433,0,2.394-0.994,2.394-4.047
			c0-3.084-1.028-4.046-2.428-4.046c-1.383,0-2.344,0.843-2.344,3.928C99.525,62.85,100.554,63.945,101.903,63.945z"/>
		<path fill="#0F75BC" d="M109.201,63.339c0.859,0,1.417,0.32,1.417,1.281s-0.557,1.265-1.417,1.265
			c-0.86,0-1.399-0.304-1.399-1.265S108.341,63.339,109.201,63.339z"/>
	</g>
	<rect x="48.609" y="163.381" fill="#00AEEF" width="148.859" height="52.32"/>
	<g>
		<path fill="#FFFFFF" d="M61.915,176.041c-0.33-0.467-0.522-1.703-0.549-2.17c-0.521-0.137-1.291-0.246-1.977-0.246
			c-1.291,0-2.224,0.713-2.224,1.893c0,1.209,0.412,1.842,2.306,2.391l2.444,0.713c2.224,0.66,4.311,1.949,4.311,5.381
			c0,3.873-3.185,6.041-7.029,6.041c-2.032,0-4.667-0.521-6.288-1.619c-0.083-1.152,0.274-3.104,0.741-4.064h2.608
			c0.247,0.494,0.467,1.428,0.522,2.279c0.713,0.303,1.62,0.412,2.279,0.412c1.564,0,2.882-0.77,2.882-2.334
			c0-0.852-0.109-1.73-1.812-2.252l-2.828-0.822c-2.389-0.688-4.311-2.225-4.311-5.492c0-3.377,2.718-5.492,6.479-5.492
			c1.84,0,3.982,0.467,5.794,1.318c0.082,1.154-0.275,3.104-0.741,4.064H61.915z"/>
		<path fill="#FFFFFF" d="M80.693,189.824h-12.74l-0.274-2.279c0.274-0.357,0.851-0.658,1.51-0.906v-12.547
			c-0.659-0.248-1.236-0.576-1.51-0.934l0.274-2.279h12.521v4.777l-2.032,0.248c-0.412-0.357-0.796-1.182-1.016-2.033h-4.283v4.723
			h3.816c0.193-0.494,0.412-0.906,0.687-1.152l1.729,0.191v4.887l-1.729,0.221c-0.275-0.221-0.494-0.658-0.687-1.154h-3.816v5.246
			h4.503c0.22-0.852,0.604-1.648,1.016-2.031l2.032,0.244V189.824z"/>
		<path fill="#FFFFFF" d="M86.897,186.693c0.631,0.248,1.18,0.605,1.51,1.016l-0.274,2.115h-5.381l-0.275-2.115
			c0.329-0.41,0.879-0.768,1.51-1.016v-12.686c-0.659-0.246-1.263-0.604-1.565-1.016l0.275-2.113h5.656l5.464,10.652
			c0.659,1.291,1.373,3.734,1.373,3.734l0.302-0.109c0,0-0.384-2.389-0.384-4.008v-7.111c-0.632-0.248-1.181-0.633-1.511-1.045
			l0.275-2.113h5.381l0.275,2.113c-0.33,0.412-0.879,0.797-1.51,1.045v15.787h-4.311l-5.519-10.736
			c-0.659-1.291-1.373-3.734-1.373-3.734l-0.302,0.111c0,0,0.385,2.387,0.385,4.008V186.693z"/>
		<path fill="#FFFFFF" d="M108.009,173.158c-0.302,0.357-0.879,0.686-1.51,0.934v12.547c0.631,0.248,1.208,0.549,1.51,0.906
			l-0.275,2.279h-6.424l-0.275-2.279c0.275-0.357,0.851-0.658,1.51-0.906v-12.547c-0.659-0.248-1.235-0.576-1.51-0.934l0.275-2.279
			h6.424L108.009,173.158z"/>
		<path fill="#FFFFFF" d="M117.7,170.658c5.08,0,7.854,2.334,7.854,9.391c0,6.727-3.158,9.994-8.238,9.994
			c-5.025,0-7.771-2.607-7.771-9.637C109.545,173.652,112.675,170.658,117.7,170.658z M117.536,186.941
			c2.334,0,3.898-1.621,3.898-6.59c0-5.025-1.675-6.59-3.954-6.59c-2.251,0-3.815,1.373-3.815,6.396
			C113.665,185.156,115.339,186.941,117.536,186.941z"/>
		<path fill="#FFFFFF" d="M134.529,170.879c4.723,0.082,7.578,1.125,7.578,5.545c0,2.719-2.06,4.285-4.092,5.053
			c0.659,0.275,1.456,0.742,1.813,1.4l2.003,3.816c0.742,0.248,1.429,0.605,1.758,1.016l-0.274,2.115h-4.641l-3.157-6.727
			c-0.164-0.385-0.521-1.016-1.016-1.016h-1.784v4.393c1.098,0.246,2.142,0.631,2.497,1.07l-0.273,2.279h-7.413l-0.274-2.279
			c0.274-0.357,0.85-0.658,1.51-0.906v-12.547c-0.66-0.248-1.235-0.576-1.51-0.934l0.274-2.279H134.529z M132.718,173.871v5.217
			h1.564c2.333,0,3.706-0.576,3.706-2.553c0-2.113-1.482-2.664-3.651-2.664H132.718z"/>
		<path fill="#FFFFFF" d="M60.781,197.568c-0.205-0.387-0.387-1.252-0.455-1.934c-0.478-0.205-1.388-0.295-1.889-0.295
			c-1.865,0-3.208,1.137-3.208,5.301c0,4.141,1.183,5.461,3.208,5.461c1.639,0,2.913-0.182,4.369-0.729l0.819,2.025
			c-1.684,1.002-3.618,1.434-5.733,1.434c-4.165,0-6.076-2.162-6.076-7.986c0-5.598,2.64-8.078,6.803-8.078
			c2.093,0,3.481,0.547,4.938,1.434c0.068,0.955-0.228,2.572-0.615,3.367H60.781z"/>
		<path fill="#FFFFFF" d="M70.607,194.838c-0.25,0.297-0.728,0.57-1.251,0.773v10.398c0.523,0.205,1.001,0.457,1.251,0.752
			l-0.228,1.889h-5.324l-0.228-1.889c0.228-0.295,0.706-0.547,1.251-0.752v-10.398c-0.545-0.203-1.023-0.477-1.251-0.773
			l0.228-1.889h5.324L70.607,194.838z"/>
		<path fill="#FFFFFF" d="M84.258,196.227l-1.434,0.182c-0.228-0.182-0.409-0.547-0.569-0.955h-2.73v10.557
			c0.523,0.205,1,0.457,1.251,0.752l-0.228,1.889h-5.324l-0.228-1.889c0.228-0.295,0.706-0.547,1.252-0.752v-10.557h-2.73
			c-0.16,0.408-0.342,0.773-0.569,0.955l-1.434-0.182v-3.254h12.742V196.227z"/>
		<path fill="#FFFFFF" d="M90.943,194.838c-0.25,0.297-0.729,0.57-1.251,0.773v10.398c0.523,0.205,1.001,0.457,1.251,0.752
			l-0.228,1.889h-5.324l-0.228-1.889c0.228-0.295,0.705-0.547,1.251-0.752v-10.398c-0.546-0.203-1.023-0.477-1.251-0.773
			l0.228-1.889h5.324L90.943,194.838z"/>
		<path fill="#FFFFFF" d="M92.238,208.65l-0.228-1.799l6.598-9.896c0.66-1.002,1.525-1.684,1.525-1.684l-0.114-0.25
			c0,0-1.046,0.203-2.229,0.203h-2.116c-0.091,0.729-0.341,1.57-0.569,1.957l-2.162-0.137c-0.432-0.773-0.66-2.844-0.341-4.096
			h11.081l0.228,1.799l-6.599,9.896c-0.66,1.002-1.524,1.684-1.524,1.684l0.114,0.252c0,0,1.046-0.205,2.229-0.205h2.776
			c0.091-0.729,0.341-1.57,0.569-1.957l2.162,0.137c0.432,0.771,0.659,2.844,0.341,4.096H92.238z"/>
		<path fill="#FFFFFF" d="M116.149,208.65h-10.558l-0.228-1.889c0.228-0.295,0.706-0.547,1.252-0.752v-10.398
			c-0.546-0.203-1.024-0.477-1.252-0.773l0.228-1.889h10.375v3.959l-1.684,0.207c-0.341-0.297-0.66-0.98-0.842-1.686h-3.549v3.914
			h3.163c0.16-0.41,0.341-0.752,0.569-0.955l1.434,0.158v4.051l-1.434,0.182c-0.228-0.182-0.41-0.545-0.569-0.955h-3.163v4.346
			h3.732c0.182-0.705,0.5-1.365,0.842-1.684l1.684,0.205V208.65z"/>
		<path fill="#FFFFFF" d="M121.287,206.057c0.523,0.203,0.979,0.5,1.252,0.842l-0.228,1.752h-4.459l-0.228-1.752
			c0.273-0.342,0.728-0.639,1.251-0.842v-10.514c-0.546-0.203-1.046-0.5-1.297-0.84l0.228-1.754h4.687l4.527,8.83
			c0.547,1.068,1.139,3.094,1.139,3.094l0.249-0.092c0,0-0.318-1.98-0.318-3.32v-5.895c-0.522-0.205-0.978-0.523-1.25-0.863
			l0.228-1.754h4.46l0.226,1.754c-0.272,0.34-0.728,0.658-1.251,0.863v13.084h-3.571l-4.574-8.896
			c-0.546-1.07-1.138-3.096-1.138-3.096l-0.25,0.092c0,0,0.318,1.979,0.318,3.322V206.057z"/>
		<path fill="#FFFFFF" d="M140.464,197.229c-0.272-0.387-0.432-1.412-0.454-1.799c-0.433-0.113-1.069-0.205-1.639-0.205
			c-1.068,0-1.842,0.592-1.842,1.57c0,1.002,0.341,1.525,1.909,1.98l2.025,0.592c1.844,0.545,3.573,1.613,3.573,4.459
			c0,3.207-2.64,5.006-5.825,5.006c-1.683,0-3.868-0.432-5.21-1.344c-0.069-0.955,0.227-2.57,0.614-3.367h2.161
			c0.204,0.41,0.386,1.184,0.433,1.889c0.592,0.25,1.342,0.342,1.888,0.342c1.298,0,2.39-0.639,2.39-1.934
			c0-0.705-0.091-1.434-1.501-1.865l-2.344-0.684c-1.979-0.568-3.573-1.842-3.573-4.551c0-2.799,2.253-4.551,5.369-4.551
			c1.524,0,3.301,0.387,4.802,1.092c0.068,0.957-0.228,2.572-0.614,3.369H140.464z"/>
	</g>
	<g>
		<path fill="#FFFBB6" d="M151.506,202.893c-0.563-0.045-1.014-0.193-1.354-0.457c-0.339-0.26-0.612-0.592-0.819-0.988
			c-0.208-0.398-0.376-0.844-0.504-1.342c-0.128-0.496-0.265-1.01-0.408-1.543c0.035-0.254,0.101-0.475,0.195-0.664
			c0.094-0.186,0.107-0.428,0.04-0.725c0.109-0.631,0.202-1.24,0.28-1.826c0.077-0.588,0.097-1.186,0.055-1.791
			c0.085-0.188,0.18-0.318,0.282-0.391c-0.023-1.088-0.18-2.184-0.474-3.287c-0.292-1.102-0.646-2.107-1.063-3.018
			c-0.015-0.209-0.011-0.367,0.011-0.477c0.02-0.107,0.006-0.195-0.044-0.266c-0.065-0.162-0.022-0.254,0.128-0.279
			c0.148-0.023,0.299-0.049,0.447-0.072c-0.054-0.336-0.169-0.658-0.343-0.965c-0.173-0.307-0.352-0.666-0.532-1.078
			c0.094-0.361,0.145-0.703,0.149-1.029s0.06-0.633,0.168-0.918c0.628,0.09,1.25,0.209,1.867,0.359
			c0.619,0.148,1.228,0.295,1.825,0.438c0.599,0.143,1.185,0.279,1.762,0.406c0.576,0.127,1.135,0.213,1.679,0.26
			c0.897,0.449,1.815,0.889,2.758,1.322c0.941,0.432,1.818,0.932,2.629,1.5c0.809,0.57,1.519,1.254,2.128,2.057
			s1.046,1.795,1.314,2.979c-0.02,0.117-0.032,0.215-0.04,0.293c-0.005,0.078-0.013,0.156-0.02,0.232
			c-0.006,0.08-0.002,0.164,0.015,0.258c0.015,0.092,0.034,0.223,0.063,0.393c-0.482,1.283-1.173,2.412-2.069,3.379
			c-0.896,0.971-1.904,1.859-3.017,2.672c-1.115,0.813-2.289,1.582-3.522,2.309S152.664,202.111,151.506,202.893z M151.685,186.568
			c-0.167,0.027-0.282,0.084-0.345,0.17c0.358,0.805,0.656,1.572,0.889,2.301c0.233,0.729,0.413,1.465,0.545,2.211
			c0.129,0.746,0.21,1.518,0.244,2.318c0.032,0.797,0.04,1.668,0.02,2.611c0.239-0.059,0.446-0.141,0.621-0.244
			c0.175-0.105,0.353-0.221,0.533-0.346c0.182-0.125,0.373-0.242,0.576-0.352c0.202-0.109,0.442-0.195,0.72-0.26
			c0.051-0.16,0.129-0.293,0.237-0.398c0.107-0.104,0.201-0.209,0.279-0.316c0.437-0.264,0.872-0.535,1.306-0.814
			c0.434-0.281,0.825-0.584,1.175-0.908c0.351-0.326,0.657-0.684,0.92-1.07s0.459-0.83,0.589-1.33
			c-0.194-0.256-0.414-0.463-0.661-0.627c-0.247-0.16-0.502-0.32-0.767-0.479c-0.266-0.158-0.522-0.328-0.771-0.508
			c-0.251-0.18-0.464-0.4-0.639-0.658c-0.306,0.01-0.579-0.025-0.823-0.111c-0.243-0.086-0.478-0.172-0.702-0.26
			c-0.226-0.088-0.464-0.17-0.716-0.246c-0.251-0.072-0.537-0.094-0.857-0.061c-0.527-0.182-0.995-0.295-1.405-0.334
			C152.243,186.818,151.921,186.723,151.685,186.568z"/>
		<path fill="#FFFBB6" d="M180.039,195.555c-0.063,0.336-0.173,0.684-0.335,1.045c-0.162,0.359-0.367,0.691-0.615,0.99
			c-0.25,0.299-0.538,0.561-0.866,0.785c-0.326,0.227-0.687,0.379-1.074,0.463c-0.252-0.018-0.425-0.053-0.521-0.105
			c-0.095-0.051-0.193-0.096-0.295-0.137c-0.062-0.029-0.119-0.053-0.17-0.074c-0.051-0.02-0.097-0.035-0.137-0.049l-0.359-0.086
			l0.054-0.383c0.013-0.154-0.015-0.271-0.085-0.344c-0.069-0.076-0.199-0.176-0.393-0.299c-0.064-0.047-0.13-0.092-0.194-0.139
			c-0.065-0.047-0.121-0.096-0.168-0.146l-0.563-0.455l0.725-0.318c0.446-0.205,0.731-0.424,0.857-0.656
			c0.126-0.229,0.131-0.586,0.014-1.064c-0.384-0.014-0.698,0.025-0.942,0.123c-0.243,0.096-0.488,0.203-0.738,0.32
			c-0.321,0.148-0.649,0.281-0.984,0.402c-0.335,0.123-0.707,0.217-1.117,0.283c-0.15,0.023-0.291,0.041-0.423,0.053
			c-0.133,0.012-0.274,0.021-0.428,0.025l-0.288-0.01c-0.071-0.199-0.128-0.311-0.169-0.332c-0.042-0.023-0.086-0.049-0.128-0.08
			c-0.108-0.076-0.227-0.189-0.355-0.332c-0.128-0.141-0.185-0.336-0.167-0.59c-0.121-0.152-0.204-0.313-0.25-0.477
			c-0.075,0.242-0.121,0.488-0.139,0.74l-0.066,0.299l-0.271,0.102c-0.036,0.025-0.057,0.072-0.064,0.139
			c-0.009,0.068-0.009,0.121-0.003,0.16l-0.063,0.498c-0.031,0.043-0.063,0.082-0.096,0.115c-0.033,0.035-0.065,0.074-0.097,0.117
			c-0.01,0.174-0.03,0.35-0.06,0.525c-0.028,0.178-0.058,0.346-0.09,0.504c-0.055,0.258-0.095,0.51-0.123,0.754
			c-0.027,0.244-0.015,0.475,0.04,0.697l-0.061,0.326c-0.076,0.127-0.164,0.232-0.266,0.316c-0.102,0.082-0.203,0.16-0.307,0.236
			c-0.032,0.043-0.078,0.084-0.139,0.123c-0.062,0.037-0.108,0.07-0.143,0.094l-0.034,0.322l-0.328,0.109
			c-0.198,0.07-0.339,0.121-0.42,0.154c-0.081,0.031-0.178,0.057-0.289,0.076l-0.285,0.016c-0.232-0.133-0.413-0.242-0.542-0.328
			c-0.128-0.084-0.274-0.162-0.439-0.23c-0.204-0.197-0.325-0.35-0.361-0.461c-0.036-0.107-0.071-0.207-0.106-0.297
			c-0.055-0.105-0.093-0.195-0.115-0.27c-0.021-0.072-0.053-0.125-0.097-0.156l-0.419-0.277l0.269-0.303l-0.049-0.48
			c0.219-1.014,0.469-1.992,0.747-2.938c0.278-0.943,0.567-1.91,0.867-2.898c0.101-0.322,0.197-0.645,0.289-0.967
			c0.093-0.32,0.188-0.643,0.289-0.967c-0.027-0.053-0.047-0.115-0.06-0.191c-0.012-0.074-0.007-0.16,0.016-0.262
			c0.154-0.348,0.276-0.662,0.366-0.934c0.09-0.273,0.179-0.553,0.269-0.834c0.098-0.342,0.202-0.676,0.312-1
			c0.111-0.324,0.262-0.664,0.453-1.021l0.417-0.268c0.053-0.027,0.114-0.063,0.185-0.104c0.071-0.037,0.151-0.066,0.245-0.08
			l0.429-0.014c0.484-0.326,0.887-0.742,1.208-1.244c0.321-0.5,0.638-1.094,0.949-1.777l0.217-0.436l0.4,0.164
			c0.103,0.041,0.241,0.072,0.417,0.092c0.175,0.02,0.359,0.041,0.557,0.066c0.349,0.021,0.679,0.055,0.993,0.1
			c0.313,0.045,0.579,0.146,0.796,0.301c0.161,0.283,0.263,0.496,0.305,0.641c0.043,0.148,0.095,0.293,0.156,0.436
			c0.107,0.309,0.21,0.617,0.308,0.928c0.099,0.309,0.189,0.658,0.27,1.049c0.146,0.303,0.274,0.602,0.391,0.9
			c0.115,0.297,0.226,0.6,0.334,0.908c0.165,0.432,0.328,0.852,0.49,1.256c0.161,0.406,0.347,0.783,0.557,1.133
			c0.148-0.025,0.243-0.029,0.284-0.018c0.087-0.053,0.182-0.096,0.281-0.131c0.099-0.035,0.213-0.072,0.34-0.113l0.304-0.078
			l0.158,0.262c0.033,0.092,0.143,0.17,0.325,0.236c0.246-0.021,0.432,0,0.558,0.068c0.125,0.064,0.241,0.137,0.351,0.215
			c0.087,0.063,0.17,0.107,0.25,0.133l0.448,0.1l-0.156,0.457c-0.132,0.365-0.346,0.73-0.643,1.094
			c-0.295,0.365-0.642,0.686-1.037,0.959c0.035,0.109,0.067,0.215,0.094,0.314c0.026,0.102,0.066,0.205,0.122,0.311
			c0.107,0.309,0.206,0.629,0.298,0.959s0.148,0.676,0.168,1.035L180.039,195.555z M171.16,192.016
			c0.555-0.127,1.057-0.254,1.507-0.371c0.45-0.121,0.946-0.283,1.488-0.484c-0.222-0.541-0.457-1.102-0.703-1.686
			c-0.248-0.58-0.504-1.158-0.769-1.729l-0.122,0.307c-0.311,0.453-0.6,0.951-0.866,1.49c-0.267,0.543-0.487,1.047-0.66,1.516
			c-0.085,0.186-0.17,0.373-0.255,0.559c-0.086,0.186-0.16,0.371-0.227,0.555c0.108-0.037,0.215-0.064,0.316-0.08
			C170.974,192.074,171.07,192.049,171.16,192.016z"/>
		<path fill="#FFFBB6" d="M189.177,188.963c-0.113,0.133-0.204,0.285-0.271,0.461c-0.068,0.172-0.135,0.352-0.201,0.533
			c-0.062,0.223-0.132,0.434-0.214,0.639c-0.081,0.205-0.194,0.396-0.339,0.572c-0.048,0.295-0.106,0.529-0.174,0.703
			s-0.187,0.381-0.359,0.619c-0.065,0.777-0.374,1.66-0.923,2.648c0.009,0.172-0.017,0.344-0.074,0.516
			c-0.059,0.172-0.123,0.34-0.192,0.506c-0.028,0.061-0.056,0.129-0.082,0.199c-0.027,0.072-0.047,0.127-0.06,0.168l-0.011,0.289
			c-0.069,0.162-0.151,0.313-0.244,0.441c-0.094,0.131-0.181,0.25-0.259,0.359c-0.029,0.061-0.081,0.145-0.159,0.256l-0.394,0.234
			c-1.394,0.033-2.342-0.561-2.846-1.781l-0.019-0.285c0.023-0.098,0.04-0.203,0.051-0.311c0.013-0.107,0.028-0.221,0.047-0.336
			c0.033-0.273,0.079-0.551,0.139-0.828c0.062-0.279,0.178-0.537,0.35-0.775c0.017-0.137,0.066-0.359,0.151-0.67
			c0.083-0.311,0.237-0.781,0.461-1.412c0.188-0.49,0.337-0.879,0.444-1.164c0.107-0.283,0.194-0.51,0.264-0.674
			c-0.234-0.27-0.502-0.504-0.803-0.705c-0.317-0.426-0.601-0.842-0.847-1.242c-0.247-0.398-0.445-0.762-0.592-1.082
			c-0.059-0.24-0.119-0.441-0.184-0.604s-0.13-0.332-0.198-0.514c-0.089-0.195-0.169-0.395-0.24-0.594
			c-0.07-0.199-0.123-0.412-0.159-0.637c-0.115-0.113-0.192-0.236-0.231-0.365l0.011-0.287c0.034-0.141,0.017-0.314-0.056-0.523
			c-0.072-0.207-0.154-0.42-0.246-0.635c-0.068-0.182-0.144-0.379-0.227-0.598c-0.083-0.215-0.133-0.436-0.15-0.664
			c-0.018-0.227,0.009-0.447,0.081-0.66c0.07-0.211,0.215-0.412,0.434-0.602l0.472-0.105c0.184,0.066,0.361,0.129,0.533,0.188
			s0.34,0.121,0.506,0.191c0.22,0.061,0.431,0.121,0.633,0.186c0.202,0.063,0.418,0.152,0.646,0.27l0.26,0.359l0.415,0.25
			l0.05,0.307c0.029,0.072,0.056,0.174,0.077,0.305c0.039,0.244,0.101,0.387,0.185,0.43l0.166,0.318
			c0.042,0.262,0.11,0.504,0.203,0.729c0.094,0.225,0.186,0.434,0.274,0.631c0.09,0.197,0.181,0.402,0.272,0.617
			s0.141,0.457,0.146,0.725c0.104-0.074,0.187-0.154,0.249-0.242c0.032-0.043,0.064-0.078,0.099-0.102
			c0.034-0.025,0.066-0.059,0.099-0.104l1.29-2.508l-0.101-0.27l0.497-0.656c0.126-0.172,0.247-0.336,0.366-0.49
			c0.119-0.152,0.213-0.311,0.281-0.477l0.273-0.273c0.446-1.029,1.202-1.748,2.268-2.148l0.383-0.119l0.172,0.346
			c0.107,0.193,0.292,0.355,0.553,0.486s0.533,0.25,0.818,0.355l0.28,0.129c0.123,0.17,0.192,0.303,0.207,0.396
			c0.016,0.094,0.02,0.18,0.013,0.256l0.157,0.262c-0.076,0.473-0.206,0.83-0.388,1.07c-0.182,0.238-0.361,0.459-0.539,0.66
			c-0.144,0.178-0.276,0.338-0.397,0.482c-0.12,0.145-0.203,0.314-0.247,0.514l-0.16,0.256c-0.355,0.287-0.56,0.627-0.611,1.02
			l-0.029,0.348l-0.336,0.055c-0.019,0.004-0.056,0.043-0.111,0.119c-0.054,0.076-0.126,0.254-0.214,0.537
			c-0.102,0.209-0.176,0.344-0.223,0.41c-0.046,0.064-0.085,0.119-0.116,0.162c-0.008,0.078-0.019,0.152-0.037,0.221
			c-0.017,0.07-0.037,0.156-0.059,0.254c-0.204,0.283-0.324,0.488-0.36,0.617c-0.036,0.133-0.08,0.279-0.131,0.439
			c-0.051,0.162-0.097,0.318-0.139,0.469c-0.044,0.15-0.127,0.313-0.253,0.486L189.177,188.963z"/>
	</g>
</g>
</svg>
