<svg xmlns="http://www.w3.org/2000/svg" width="250" height="250" viewBox="0 0 250 250"><path opacity=".15" d="M186.055 156.334c7.017-10.854 11.094-23.783 11.094-37.668 0-21.593-9.85-40.885-25.3-53.63-11.17-9.21-25.26-14.994-40.66-15.766-3.48-8.612-15.6-14.97-30.03-14.97-17.14 0-31.02 8.966-31.02 20.028 0 5.6 3.56 10.66 9.3 14.294-7.19 6.925-12.89 15.382-16.57 24.847-3.04 7.81-4.71 16.3-4.71 25.19 0 13.59 3.9 26.27 10.65 36.98L52.53 167.3v52.32h148.86V167.3l-15.336-10.97z"/><path fill="#FFF" d="M182.133 152.412c7.017-10.854 11.093-23.783 11.093-37.668 0-21.593-9.85-40.885-25.298-53.632-11.163-9.208-25.252-14.992-40.66-15.765-3.472-8.612-15.596-14.97-30.022-14.97-17.132 0-31.02 8.966-31.02 20.028 0 5.6 3.562 10.66 9.3 14.294-7.187 6.92-12.886 15.38-16.57 24.84-3.042 7.81-4.712 16.31-4.712 25.19 0 13.59 3.908 26.27 10.655 36.98l-16.29 11.65v52.32h148.86v-52.32l-15.34-10.97z"/><path fill="#0F75BC" d="M48.61 163.38l74.43-53.234 74.43 53.235-77.657 18.38"/><path fill="#EA94FF" d="M136.73 62.342c10.85-4.584 21.973-4.714 31.197-1.23-12.012-9.908-27.406-15.86-44.194-15.86-17.18 0-32.9 6.238-45.03 16.568 4.79 1.8 6.666 3.374 6.666 3.374 19.74 16.277 25.16 23.27 25.16 23.27l.01.04c4.58-11.138 13.87-20.96 26.18-26.162z"/><path fill="#EA94FF" d="M148.253 153.21s6.76-9.575 7.786-17.546c-1.31.416-2.61.773-3.91 1.068 1.59-1.418 2.87-3.13 3.85-5.06-.28-1.446-.89-2.743-1.94-3.794l4.17-9.798c-.58-6.27-3.02-13.044-7.34-19.264v.005c-10.08-14.49-26.56-20.47-36.81-13.35-1.34.93-2.48 2.05-3.47 3.3 1.8 8.85.33 34.28.33 34.28 0 5.69-2.36 3.79-2.81 4.05-.78 1.77-2.29 8.14-2.29 8.14-1.83 1.6-3.47-.55-3.47-.55-2.16 1.24-2.94 0-2.94 0-3.86-4.38-3.21-21.9-3.21-21.9-3.47-5.75-1.87-10.91-1.87-10.91-1.67 2.68-4.74 4.9-4.74 4.9 3.99 4.45 3.27 7.91 3.27 7.91 4.57 13.66-3.01 13.79-3.01 13.79-2.23.33-2.1-5.23-2.1-5.23l-8.56-14.9c-6.01-5.43-7.97-12.16-7.97-12.16-.87-2.25.2-6.32.2-6.32l-12.5-.31c-3.04 7.81-4.71 16.31-4.71 25.2 0 38.38 31.11 69.49 69.49 69.49.7 0 1.4-.01 2.11-.03-.36-6.71 1.34-22.16 22.41-30.99z"/><path fill="#F7F7F7" d="M93.1 117.626s19.333 56.763 69.535 13.097v13.074s-33.195 41.594-75.95-18.162"/><path fill="#D0D1D2" d="M130.532 72.29l-9.716 4.978-3.882.47c3-21.93 13.6-5.447 13.598-5.447z"/><path fill="#F77" d="M147.803 167.127c.33-.596.682-1.21 1.05-1.832-.37.623-.72 1.236-1.05 1.832zm-5.123 12.353c.084-.34.18-.69.282-1.05-.104.36-.198.71-.282 1.05zm6.52-14.763c.264-.44.532-.883.816-1.336-.284.46-.552.9-.816 1.34zm-6.788 15.906c.066-.31.14-.63.22-.96-.08.33-.153.65-.22.96zm8.07-17.977c.267-.42.54-.844.824-1.273-.284.43-.557.854-.824 1.273zm-3.62 6.24c.272-.526.56-1.06.86-1.608-.3.546-.587 1.08-.86 1.607zm-2.274 4.89c.14-.343.287-.692.442-1.05-.155.36-.302.708-.442 1.05zm-1.584 4.504c.24-.83.526-1.72.87-2.667-.344.948-.63 1.836-.87 2.666zm2.262-6.087c.153-.346.315-.697.484-1.055-.17.358-.33.71-.484 1.055zm.754-1.62c.183-.38.376-.767.573-1.157-.197.39-.39.777-.573 1.156zm-3.827 11.175c.054-.316.118-.646.19-.99-.07.344-.136.674-.19.99zm11.115-23.298c.343-.483.702-.978 1.065-1.474-.363.5-.723.99-1.065 1.475zm-9.358 16.964c.143-.39.295-.79.458-1.2-.163.41-.315.81-.46 1.2zm10.948-19.154c.552-.742 1.122-1.496 1.723-2.266-.6.77-1.17 1.524-1.72 2.266zm-3.058 4.316c.29-.434.594-.873.902-1.316-.308.443-.61.883-.902 1.316z"/><path fill="#D0D1D2" d="M142.193 181.748c.054-.316.118-.646.19-.99.01-.043.02-.09.028-.135.07-.31.15-.63.23-.96l.05-.185c.09-.34.18-.69.28-1.05.02-.05.03-.1.05-.15.24-.83.53-1.718.87-2.665l.08-.2c.15-.39.3-.788.46-1.198l.18-.438c.14-.344.29-.69.44-1.05l.24-.534c.16-.346.32-.697.49-1.055l.27-.566c.18-.38.38-.766.57-1.156l.27-.53c.28-.526.56-1.062.86-1.608.03-.05.06-.1.08-.15.33-.596.69-1.21 1.05-1.832.11-.19.24-.385.35-.578.27-.44.53-.883.82-1.336.15-.242.31-.488.47-.734.27-.42.54-.844.83-1.273.17-.264.35-.53.53-.797.29-.434.6-.873.9-1.316l.57-.81c.34-.483.7-.976 1.06-1.474.18-.24.35-.475.53-.717.55-.74 1.12-1.49 1.72-2.26l8.45-22.28c-1.6.9-3.25 1.72-4.97 2.45-1.35.57-2.7 1.07-4.05 1.5-1.02 7.97-7.78 17.55-7.78 17.55-21.07 8.83-22.76 24.28-22.41 30.99 5.65-.16 11.12-1.01 16.35-2.44h.01z"/><path fill="#FFF" d="M110.256 89.19c.108-.147.228-.283.34-.425-.018-.085-.034-.18-.052-.262-.093.23-.198.455-.288.686zm3.812-3.722c10.248-7.12 26.728-1.144 36.814 13.354v-.005c4.325 6.22 6.765 12.993 7.337 19.264l-4.18 9.8c1.05 1.05 1.65 2.35 1.94 3.8-.98 1.93-2.27 3.65-3.86 5.06 1.3-.29 2.6-.65 3.91-1.06.11-.89.16-1.76.11-2.59l9.88-3.91-9.41 24.84c-.6.77-1.17 1.52-1.72 2.27-.19.24-.35.48-.53.72-.37.5-.73.99-1.07 1.47-.2.27-.38.54-.57.81-.31.44-.61.88-.9 1.32-.18.27-.36.54-.53.8-.29.43-.56.86-.83 1.28-.16.25-.32.49-.47.73-.29.46-.56.9-.82 1.34l-.35.58c-.37.62-.72 1.24-1.05 1.83-.03.05-.05.1-.08.15-.3.55-.59 1.08-.86 1.61l-.27.53c-.2.4-.39.78-.57 1.16-.1.19-.18.38-.27.57-.17.36-.33.71-.49 1.06l-.24.54c-.16.36-.31.71-.44 1.05l-.18.44c-.17.41-.32.81-.46 1.2l-.08.2c-.35.95-.63 1.84-.87 2.67-.02.05-.03.1-.05.15-.1.36-.2.71-.28 1.05l-.05.18c-.08.33-.15.65-.22.96l-.03.14c-.07.35-.14.68-.19.99v.01c29.42-8.08 51.03-35.02 51.03-67.01 0-21.59-9.85-40.88-25.3-53.63-9.23-3.48-20.35-3.35-31.2 1.23-12.32 5.2-21.61 15.03-26.19 26.16.01.08.03.18.05.26.98-1.25 2.13-2.37 3.47-3.3z"/><path fill="#FFF" d="M142.633 179.662c.017-.06.03-.12.047-.184-.016.063-.03.124-.047.184zm1.24-4.05l.076-.2c-.03.068-.06.137-.08.2zm-1.68 6.14v-.004m.77-3.318c.013-.05.024-.1.04-.15-.016.05-.027.1-.04.15zm-.58 2.328l.03-.135-.03.135zm3.367-9.618c.09-.19.176-.376.27-.567-.094.19-.18.378-.27.566zm6.992-11.88c.187-.27.372-.537.565-.81-.193.273-.378.54-.565.81zm-2.725 4.12c.15-.24.31-.487.466-.733-.157.246-.316.492-.466.734zm1.29-2.007c.175-.264.354-.53.533-.797-.18.268-.36.533-.533.797zm3.066-4.396c.175-.24.344-.475.525-.717-.18.242-.35.476-.525.717zm1.78-23.91c.047.835 0 1.706-.114 2.597 1.35-.436 2.7-.932 4.05-1.502 1.72-.727 3.37-1.553 4.97-2.45l-8.45 22.282 9.41-24.84-9.88 3.914zm-11.745 41.148l.18-.438-.18.438zm2.185-4.8c.09-.177.177-.35.27-.53-.093.18-.18.353-.27.53zm-1.563 3.315c.076-.177.155-.356.235-.536-.08.18-.16.36-.235.535zm3.823-7.435c.11-.19.233-.385.348-.578-.11.193-.23.388-.34.578zm-1.13 1.982c.027-.05.052-.1.08-.15-.03.05-.053.102-.08.15z"/><path fill="#D0D1D2" d="M150.88 98.817l.002.005c-10.086-14.498-26.566-20.473-36.814-13.354-1.486 1.033-2.752 2.29-3.812 3.72-3.257 8.316-3.892 17.323-1.173 25.68 5.666 17.416 23.965 26.193 43.048 21.865 8.69-7.75 8.31-24.187-1.25-37.916z"/><path fill="#919396" d="M136.577 69.846c9.515-17.96 12.888 1.636 12.888 1.636l.662 2.842c-2.22-2.203-13.566-4.484-13.546-4.48v.002z"/><path fill="#ACAFB1" d="M141.63 97.742C138 88.185 127.9 83.02 119.07 86.206c-8.83 3.182-13.042 13.512-9.412 23.067 3.632 9.556 13.732 14.723 22.56 11.536 8.83-3.19 13.043-13.52 9.413-23.07z"/><path fill="#919396" d="M110.45 111.225s11.025-12.916 31.583-12.21c0 0-18.09 2.326-31.584 12.21z"/><path fill="#D0D1D2" d="M131.3 69.793c3.173 2.955 5.683.816 5.683.816 10.75-18.17 11.858 3.86 11.858 3.86 2.3 3.03 5.21 2.62 5.21 2.62l-.19-4.57c.21-17.83-11.72-16.93-11.72-16.93-8.16 1.76-10.84 14.19-10.84 14.19h.01z"/><path fill="#0B8ECC" d="M111.045 119.62s.81-3.83 3.3-2.052l.657 8.066s-4.5-3.163-3.957-6.015z"/><path fill="#FFF" d="M114.604 124.915l-.31-3c-1.747.96.31 3 .31 3z"/><path fill="#F7F7F7" d="M92.038 119.873s6.222-6.336 2.72-8.648l-2.72 1.18v7.468zm-12.458-1.03s-.452 3.666 3.977 3.72l-2.167 1.103s-.32 3.906 9.325 2.483l-1.765-9.06-9.37 1.74z"/><path fill="#FC7" d="M71.25 96.177s1.962 6.733 7.976 12.16l8.563 14.903s-.14 5.555 2.09 5.23c0 0 7.58-.13 3-13.793 0 0 .72-3.465-3.27-7.91 0 0 3.07-2.222 4.74-4.903 0 0-1.6 5.164 1.86 10.917 0 0-.66 17.52 3.2 21.9 0 0 .78 1.25 2.94 0 0 0 1.63 2.15 3.46.55 0 0 1.5-6.36 2.29-8.13.45-.26 2.81 1.64 2.81-4.05 0 0 1.5-26.01-.4-34.58 0 0-5.43-6.99-25.17-23.27 0 0-1.87-1.57-6.66-3.37-8.69 7.4-15.54 16.91-19.75 27.73l12.5.32s-1.07 4.07-.21 6.32z"/><path opacity=".5" fill="#C49E51" d="M86.81 117.618s.882.26 6.29-2.29l-.147-.455-5.686 2.222 5.294-2.55v-.326l-7.12 3.13 1.38-.26v.52zm2.875-10.198s-3.072 1.897-8.367 1.243c0 0 6.994-.587 7.648-1.242l-9.02-.32 9.673-.32.06.66z"/><path opacity=".5" fill="#C49E51" d="M66.054 86.21L78.9 87.68s3.823 8.333 17.06 7.94c0 0 2.255 4.708 7.648-.685 0 0-1.863 3.53-5.785 3.43 0 0-2.255 3.53-2.354 5.198 0 0 .99-4.933 1.66-5.59l-1.77-.097s1.27 3.628-5.69 8.335c0 0-19.01 2.4-18.23-16.35l-7.95-2.77 9.31 1.18-6.77-2.06zm37.554 13.53s3.333-.196 4.118-5.98c0 0-.393 3.92-4.118 5.98zm-.688 5.59s3.825-5.982 4.805-6.276c0 0-2.94 2.746-5.687 6.275 0 0-5.124.98-5.49 5.88l1.274-2.41s.294 20.06 3.53 25.25c0 0-3.333-8.92-2.745-26.28l1.47-1.02s-.98 19.35 2.06 27.29c0 0-2.918-17.82-1.275-27.75h1.275l2.255 4.31s-2.157 1.57.588 6.47c0 0-1.373 5.49 2.745 9.61 0 0-3.53-4.6-2.06-9.9h2.06l-2.55-.89s-1.273-4.03.49-5.69l2.06-.98-2.94.19-1.864-4.12z"/><ellipse fill="#FFF" cx="90.715" cy="112.406" rx="4.69" ry="2.338"/><ellipse transform="rotate(-11.7 85.5 117.6)" fill="#FFF" cx="85.436" cy="117.626" rx="5.981" ry="2.304"/><ellipse transform="rotate(-11.8 86.7 122.6)" fill="#FFF" cx="86.684" cy="122.564" rx="5.407" ry="2.205"/><ellipse fill="#FFF" cx="97.245" cy="50.406" rx="31.021" ry="20.028"/><path fill="#FFF" d="M102.746 67.96l6.016 11.796.143-23.13"/><path d="M81.574 46.927c.557 1.333.658 2.327.658 2.327h.236s.067-1.03.607-2.327l2.343-6.794h3.777l.168 1.298c-.186.26-.557.48-.96.63v7.72c.387.15.724.34.926.59l-.17 1.4h-3.85l-.17-1.38c.2-.25.54-.44.92-.59v-4.39c0-.99.15-2.49.15-2.49l-.17-.01s-.39 1.44-.68 2.28l-2.24 6.59H80.9l-2.36-6.59c-.337-.83-.674-2.28-.674-2.28l-.168.02s.15 1.5.15 2.5v4.44c.39.15.726.37.928.63l-.168 1.3h-3.305l-.168-1.3c.202-.25.54-.47.927-.62v-7.79c-.405-.15-.776-.37-.96-.62l.168-1.29h3.844l2.46 6.8zm18.24 2.85c.42.15.81.37.995.59l-.17 1.4h-3.95l-.17-1.4c.15-.204.45-.37.81-.507l-.46-1.417H93.5l-.42 1.366c.37.15.69.35.876.55l-.17 1.4h-3.84l-.17-1.4c.203-.26.64-.49 1.13-.64l3.238-9.68h2.31l3.35 9.73zm-5.834-2.884h2.41l-.64-2.057c-.438-1.4-.455-2.427-.455-2.427h-.236s0 1.02-.43 2.39l-.66 2.09zm10.03 2.95c.387.15.724.37.927.624l-.168 1.3h-3.31l-.17-1.3c.2-.252.54-.472.92-.623v-7.79c-.41-.152-.78-.37-.96-.624l.17-1.298h3.47l3.35 6.542c.4.792.84 2.293.84 2.293l.18-.068s-.24-1.47-.24-2.47v-4.36c-.39-.16-.73-.39-.93-.64l.16-1.3h3.3l.17 1.3c-.2.25-.54.48-.93.64v9.69h-2.65l-3.39-6.59c-.41-.8-.85-2.3-.85-2.3l-.19.06s.24 1.46.24 2.46v4.43zm13.57-9.846c3.12 0 4.822 1.434 4.822 5.767 0 4.13-1.94 6.137-5.06 6.137-3.084 0-4.77-1.6-4.77-5.91 0-4.15 1.922-5.98 5.008-5.98zm-.1 10c1.433 0 2.393-.996 2.393-4.047 0-3.086-1.028-4.047-2.427-4.047-1.383 0-2.344.843-2.344 3.928 0 3.07 1.028 4.17 2.377 4.17zM90.17 61.67v1.99c.674.15 1.315.387 1.534.657l-.168 1.4h-4.552l-.168-1.4c.168-.22.522-.405.927-.557v-7.705c-.404-.152-.758-.354-.927-.573l.168-1.4h4.468c2.9.052 4.653.81 4.653 3.76 0 2.833-2.057 3.828-5.176 3.828h-.76zm0-5.75v3.912h1.13c1.434 0 2.277-.473 2.277-2.024 0-1.635-1.063-1.888-2.395-1.888H90.17zm11.834-1.972c3.12 0 4.822 1.433 4.822 5.766 0 4.13-1.94 6.138-5.058 6.138-3.086 0-4.77-1.602-4.77-5.918 0-4.15 1.92-5.986 5.006-5.986zm-.1 9.997c1.432 0 2.393-.994 2.393-4.047 0-3.084-1.028-4.046-2.428-4.046-1.39 0-2.35.843-2.35 3.928 0 3.07 1.03 4.165 2.38 4.165zm7.296-.605c.86 0 1.418.32 1.418 1.28s-.557 1.265-1.417 1.265-1.39-.304-1.39-1.265.54-1.28 1.4-1.28z" fill="#0F75BC"/><path fill="#00AEEF" d="M48.61 163.38h148.858v52.32H48.608z"/><path d="M61.915 176.04c-.33-.466-.522-1.702-.55-2.17-.52-.136-1.29-.245-1.976-.245-1.3 0-2.23.713-2.23 1.893 0 1.21.41 1.842 2.3 2.39l2.44.714c2.22.66 4.31 1.95 4.31 5.38 0 3.874-3.19 6.042-7.03 6.042-2.04 0-4.67-.52-6.29-1.62-.09-1.15.27-3.103.74-4.063h2.61c.24.5.46 1.43.52 2.28.71.31 1.62.42 2.28.42 1.56 0 2.88-.77 2.88-2.33 0-.85-.11-1.73-1.81-2.25l-2.83-.82c-2.39-.69-4.31-2.22-4.31-5.49 0-3.37 2.71-5.49 6.48-5.49 1.84 0 3.98.47 5.79 1.32.08 1.16-.28 3.11-.74 4.07h-2.6zm18.778 13.784h-12.74l-.274-2.28c.27-.356.85-.657 1.51-.905v-12.55c-.66-.25-1.24-.58-1.51-.94l.27-2.28h12.52v4.78l-2.03.25c-.42-.36-.8-1.18-1.02-2.04h-4.28v4.72h3.81c.19-.5.41-.91.68-1.15l1.73.19v4.89l-1.73.22c-.28-.22-.5-.66-.69-1.16h-3.81v5.24h4.5c.22-.85.6-1.65 1.01-2.03l2.03.24v4.78zm6.204-3.13c.63.247 1.18.604 1.51 1.015l-.274 2.11h-5.38l-.276-2.12c.33-.41.88-.77 1.51-1.02V174c-.66-.245-1.263-.603-1.565-1.015l.275-2.114h5.656l5.464 10.66c.66 1.29 1.373 3.74 1.373 3.74l.302-.11s-.384-2.39-.384-4v-7.11c-.632-.25-1.18-.63-1.51-1.04l.274-2.11h5.38l.276 2.12c-.33.41-.88.8-1.51 1.05v15.79h-4.31l-5.52-10.73c-.66-1.29-1.373-3.73-1.373-3.73l-.302.11s.385 2.39.385 4.01v7.22zm21.113-13.536c-.303.357-.88.686-1.51.934v12.547c.63.24 1.207.54 1.51.9l-.276 2.28h-6.424l-.275-2.28c.275-.36.85-.66 1.51-.91v-12.54c-.66-.25-1.235-.58-1.51-.94l.275-2.28h6.424l.275 2.28zm9.69-2.5c5.08 0 7.854 2.334 7.854 9.39 0 6.728-3.158 9.995-8.238 9.995-5.025 0-7.77-2.607-7.77-9.637 0-6.754 3.13-9.748 8.154-9.748zm-.164 16.283c2.334 0 3.898-1.62 3.898-6.59 0-5.02-1.675-6.59-3.954-6.59-2.25 0-3.815 1.38-3.815 6.4 0 5 1.674 6.79 3.87 6.79zm16.994-16.06c4.722.08 7.577 1.13 7.577 5.55 0 2.72-2.06 4.29-4.092 5.06.66.28 1.456.74 1.813 1.4l2.003 3.82c.75.25 1.43.61 1.76 1.02l-.27 2.12h-4.64l-3.16-6.72c-.16-.38-.52-1.01-1.01-1.01h-1.78v4.4c1.1.25 2.14.63 2.5 1.07l-.27 2.28h-7.41l-.27-2.28c.28-.35.85-.66 1.51-.9V174.1c-.66-.245-1.23-.573-1.51-.93l.28-2.28h7zm-1.812 2.99v5.22h1.564c2.333 0 3.706-.57 3.706-2.55 0-2.11-1.482-2.66-3.65-2.66h-1.62zm-71.938 23.7c-.204-.38-.386-1.25-.454-1.93-.478-.2-1.388-.29-1.89-.29-1.864 0-3.207 1.14-3.207 5.3 0 4.14 1.18 5.46 3.2 5.46 1.64 0 2.91-.18 4.37-.73l.82 2.03c-1.69 1-3.62 1.44-5.74 1.44-4.17 0-6.08-2.16-6.08-7.98 0-5.59 2.64-8.07 6.8-8.07 2.09 0 3.48.55 4.93 1.43.07.96-.23 2.58-.62 3.37h-2.16zm9.827-2.73c-.25.3-.728.57-1.25.78v10.4c.522.21 1 .46 1.25.75l-.228 1.89h-5.33l-.23-1.89c.23-.29.7-.54 1.25-.75v-10.4c-.55-.2-1.02-.47-1.25-.77l.23-1.89h5.32l.22 1.89zm13.65 1.39l-1.433.18c-.228-.18-.41-.54-.57-.95h-2.73v10.56c.524.21 1 .46 1.252.76l-.228 1.89h-5.324l-.228-1.89c.228-.29.706-.54 1.252-.75v-10.56h-2.73c-.16.41-.342.78-.57.96l-1.433-.18V193h12.742v3.254zm6.686-1.39c-.25.3-.73.57-1.25.78v10.4c.522.21 1 .46 1.25.75l-.228 1.89H85.39l-.227-1.89c.228-.29.705-.54 1.25-.75v-10.4c-.545-.2-1.022-.47-1.25-.77l.228-1.89h5.33l.23 1.89zm1.295 13.82l-.228-1.8 6.598-9.89c.66-1 1.525-1.68 1.525-1.68l-.114-.25s-1.05.21-2.23.21h-2.12c-.09.73-.34 1.57-.57 1.96l-2.16-.13c-.44-.77-.66-2.84-.35-4.09h11.08l.23 1.8-6.6 9.9c-.66 1.01-1.53 1.69-1.53 1.69l.11.25s1.04-.2 2.23-.2h2.77c.09-.73.34-1.57.57-1.96l2.16.14c.43.77.66 2.85.34 4.1H92.24zm23.912 0h-10.56l-.227-1.89c.228-.29.706-.54 1.252-.75v-10.4c-.546-.2-1.024-.47-1.252-.77l.228-1.89h10.38v3.96l-1.68.21c-.34-.29-.66-.98-.84-1.68h-3.55v3.91h3.17c.16-.41.34-.75.57-.95l1.44.16v4.05l-1.43.19c-.23-.18-.41-.54-.57-.95h-3.17v4.35h3.74c.18-.7.5-1.36.84-1.68l1.69.21v3.96zm5.137-2.59c.523.21.98.5 1.252.84l-.23 1.75h-4.46l-.23-1.75c.27-.34.73-.64 1.25-.84v-10.52c-.55-.2-1.05-.5-1.3-.84l.23-1.75h4.68l4.52 8.83c.54 1.07 1.14 3.1 1.14 3.1l.24-.09s-.32-1.98-.32-3.32v-5.89c-.53-.2-.98-.52-1.25-.86l.22-1.75h4.46l.22 1.75c-.28.34-.73.66-1.25.87v13.09h-3.57l-4.57-8.89c-.55-1.07-1.14-3.09-1.14-3.09l-.25.1s.31 1.98.31 3.32v5.98zm19.177-8.82c-.272-.39-.432-1.41-.454-1.8-.433-.11-1.07-.2-1.64-.2-1.067 0-1.84.6-1.84 1.57 0 1.01.34 1.53 1.908 1.98l2.025.6c1.844.55 3.573 1.61 3.573 4.46 0 3.21-2.64 5.01-5.825 5.01-1.68 0-3.86-.43-5.21-1.34-.06-.96.23-2.57.62-3.37h2.16c.21.41.39 1.19.44 1.89.59.25 1.34.35 1.89.35 1.3 0 2.39-.64 2.39-1.93 0-.7-.09-1.43-1.5-1.86l-2.34-.68c-1.98-.57-3.57-1.84-3.57-4.55 0-2.8 2.25-4.55 5.37-4.55 1.53 0 3.3.39 4.8 1.09.07.96-.23 2.57-.61 3.37h-2.16z" fill="#FFF"/><path d="M151.506 202.893c-.563-.045-1.014-.193-1.354-.457-.34-.26-.612-.592-.82-.988-.207-.398-.375-.844-.503-1.342-.13-.496-.27-1.01-.41-1.543.03-.254.1-.475.19-.664.09-.19.1-.43.04-.73.11-.63.2-1.24.28-1.83.07-.59.09-1.19.05-1.79.08-.19.18-.32.28-.39-.03-1.09-.18-2.19-.48-3.29-.3-1.11-.65-2.11-1.07-3.02-.02-.21-.01-.37.01-.48.02-.11.01-.2-.04-.27-.07-.16-.02-.26.13-.28.15-.02.3-.05.45-.07-.06-.34-.17-.66-.35-.97-.17-.31-.35-.67-.53-1.08.09-.36.14-.71.15-1.03s.06-.63.16-.92c.63.09 1.25.21 1.86.36l1.82.43c.6.14 1.18.28 1.76.4.57.13 1.13.21 1.68.26.89.45 1.81.89 2.75 1.32.94.43 1.82.93 2.63 1.5.81.57 1.52 1.25 2.13 2.05s1.05 1.79 1.31 2.98c-.02.12-.04.21-.04.29l-.02.23c-.01.08-.01.16.01.26.01.09.03.22.06.39-.48 1.28-1.17 2.41-2.07 3.38-.9.97-1.9 1.86-3.02 2.67-1.12.81-2.29 1.58-3.52 2.31s-2.43 1.48-3.59 2.26zm.18-16.325c-.168.027-.283.084-.346.17.358.805.656 1.572.89 2.3.232.73.412 1.466.544 2.212.13.746.21 1.518.244 2.318.032.797.04 1.668.02 2.61.24-.058.446-.14.62-.243.176-.105.354-.22.534-.346.182-.13.373-.25.576-.36.202-.11.442-.2.72-.26.05-.16.13-.3.237-.4.107-.11.2-.21.28-.32.436-.27.87-.54 1.305-.82.434-.28.825-.59 1.175-.91.35-.33.657-.69.92-1.07s.46-.83.59-1.33c-.195-.26-.415-.46-.662-.63-.247-.16-.502-.32-.767-.48-.266-.16-.522-.33-.77-.51-.252-.18-.465-.4-.64-.66-.306.01-.58-.03-.823-.12s-.478-.17-.702-.26c-.22-.09-.46-.17-.71-.25-.25-.08-.53-.1-.85-.06-.52-.19-.99-.3-1.4-.34-.41-.04-.73-.13-.97-.29zm28.354 8.987c-.064.336-.174.684-.336 1.045-.162.36-.367.69-.615.99-.25.3-.54.56-.87.785-.33.227-.69.38-1.08.463-.26-.018-.43-.053-.52-.105-.1-.05-.2-.096-.3-.137-.06-.03-.12-.053-.17-.074-.05-.02-.1-.035-.14-.05l-.36-.085.05-.383c.01-.154-.02-.27-.09-.344-.07-.076-.2-.176-.4-.3-.06-.046-.13-.09-.19-.138-.07-.047-.12-.096-.17-.146l-.56-.455.72-.31c.44-.2.73-.42.85-.65.12-.23.13-.58.01-1.06-.38-.01-.69.03-.94.13-.24.1-.49.21-.74.32-.32.15-.65.28-.98.4-.33.13-.71.22-1.12.29-.15.03-.29.04-.42.06-.14.02-.28.02-.43.03l-.29-.01c-.07-.2-.13-.31-.17-.33-.04-.02-.09-.05-.13-.08-.1-.08-.22-.19-.35-.33-.13-.14-.19-.33-.17-.59-.12-.15-.2-.31-.25-.48-.07.24-.12.49-.14.74l-.06.3-.27.1c-.04.03-.06.08-.07.14-.01.07-.01.12-.01.16l-.06.5c-.04.05-.07.09-.1.12s-.07.08-.1.12c-.01.17-.03.35-.06.53-.03.18-.06.35-.09.51-.06.26-.1.51-.13.75-.02.25-.01.48.04.7l-.06.33c-.07.13-.16.24-.26.32-.1.08-.2.16-.31.24-.04.04-.08.08-.14.12l-.15.09-.04.32-.33.11c-.2.07-.34.12-.42.16-.08.03-.18.06-.29.07l-.28.02c-.23-.13-.41-.24-.54-.33-.13-.08-.28-.16-.44-.23-.21-.2-.33-.35-.36-.46-.04-.11-.07-.21-.11-.3-.06-.1-.1-.19-.12-.27-.02-.07-.06-.12-.1-.15l-.42-.28.27-.3-.05-.48c.22-1.01.47-1.99.75-2.94s.56-1.91.86-2.9c.1-.32.2-.65.29-.97.09-.32.19-.64.29-.97-.02-.05-.04-.11-.06-.19-.01-.07 0-.16.02-.26.15-.35.28-.66.37-.93.09-.27.18-.55.27-.83.1-.34.2-.67.31-1 .11-.32.26-.66.46-1.02l.41-.27c.05-.02.11-.06.18-.1.07-.04.15-.06.24-.08l.43-.01c.48-.32.89-.74 1.21-1.24.32-.5.64-1.09.95-1.77l.22-.44.4.17c.1.04.24.07.41.09l.56.06c.35.02.68.06.99.1.31.05.58.15.79.3.16.28.26.5.31.64.04.15.09.29.15.44.11.31.21.62.31.93.1.31.19.66.27 1.05.14.3.27.6.39.9.11.3.22.6.33.91.16.43.33.85.49 1.26.16.4.35.78.56 1.13.15-.03.24-.03.28-.02.09-.06.18-.1.28-.13.1-.04.21-.08.34-.12l.3-.08.16.26c.03.09.14.17.32.24.24-.02.43 0 .56.06.12.06.24.14.35.21.08.07.17.11.25.14l.45.1-.16.45c-.14.37-.35.73-.65 1.1-.29.37-.64.69-1.04.96.04.11.07.22.1.32.02.1.06.21.12.31.11.31.21.63.3.96s.15.68.17 1.04l-.04.13zm-8.88-3.54c.555-.126 1.057-.253 1.507-.37.45-.12.946-.283 1.488-.484-.222-.54-.457-1.1-.703-1.68-.248-.58-.504-1.16-.77-1.73l-.12.31c-.312.46-.6.95-.867 1.49-.267.55-.487 1.05-.66 1.52l-.255.56c-.086.19-.16.37-.227.56.108-.03.215-.06.316-.08.1-.02.2-.04.29-.07zm18.017-3.052c-.113.133-.204.285-.27.46-.07.173-.136.353-.202.534-.062.223-.132.434-.214.64-.08.204-.19.395-.33.57-.05.296-.1.53-.17.704s-.18.39-.36.62c-.06.78-.37 1.66-.92 2.65.01.17-.01.35-.07.52-.06.17-.12.34-.19.51l-.08.2-.06.17-.01.29c-.07.16-.15.32-.24.44l-.26.36c-.03.06-.08.15-.16.26l-.39.24c-1.39.03-2.34-.56-2.84-1.78l-.02-.28c.03-.09.04-.2.06-.31.01-.1.03-.22.05-.33.03-.27.08-.55.14-.83.06-.28.17-.54.35-.77.01-.13.06-.36.15-.67.08-.31.23-.78.46-1.41.19-.49.33-.88.44-1.16.11-.28.2-.51.27-.67-.23-.27-.5-.5-.8-.7-.31-.42-.6-.84-.84-1.24-.25-.4-.44-.76-.59-1.08-.05-.24-.11-.44-.18-.6l-.2-.51c-.09-.19-.17-.39-.24-.59-.07-.2-.12-.41-.16-.64-.11-.11-.19-.23-.23-.36l.01-.28c.04-.14.02-.31-.05-.52-.07-.2-.15-.42-.24-.63l-.23-.6c-.08-.21-.13-.43-.15-.66-.01-.22.01-.44.08-.66.07-.21.22-.41.44-.6l.47-.1.53.19s.34.12.51.19c.22.06.43.12.64.19.2.07.42.16.64.27l.26.36.41.25.05.31c.03.08.06.18.08.31.04.24.1.39.19.43l.17.32c.04.26.11.5.21.73.09.22.18.43.27.63.09.2.18.4.27.62s.14.46.15.73c.1-.07.18-.15.25-.24.03-.04.06-.07.09-.1.03-.02.06-.06.1-.1l1.29-2.5-.1-.27.5-.65c.12-.17.24-.34.36-.49.12-.15.22-.31.28-.48l.28-.27c.45-1.03 1.21-1.75 2.27-2.15l.39-.12.17.35c.11.2.29.36.55.49s.53.25.82.36l.28.13c.12.17.19.3.21.39.02.09.02.18.02.26l.15.26c-.08.47-.21.83-.39 1.07-.18.24-.36.46-.54.66l-.4.48c-.12.14-.21.31-.25.51l-.16.26c-.35.28-.56.62-.61 1.02l-.03.34-.34.06c-.02.01-.05.04-.11.12-.05.08-.12.25-.21.54-.1.21-.18.34-.22.41l-.12.16c-.01.08-.02.15-.04.22l-.06.26c-.2.28-.32.487-.36.61-.04.13-.08.28-.13.44-.05.16-.1.32-.14.47-.04.15-.13.31-.25.488l-.07.44z" fill="#FFFBB6"/></svg>