<svg xmlns="http://www.w3.org/2000/svg" width="250" height="250" viewBox="0 0 250 250"><path d="M105.085 201.072c-.02-.05-.04-.1-.063-.152l-.086-.217c-.026-.066-.056-.14-.084-.215-.034-.086-.065-.168-.104-.264-.018-.047-.04-.1-.057-.148-.08-.207-.16-.436-.26-.683l-.12-.323c-.05-.125-.1-.256-.14-.39l-.12-.324c-.05-.147-.11-.298-.17-.455l-.14-.38-.32-.87c-.05-.14-.1-.27-.15-.42-.09-.24-.18-.48-.27-.74l-.04-.11c-.55-1.49-1.18-3.21-1.88-5.12h86.4l-.49-53.97v-31.54c.13-.15.22-.32.29-.48.01-.01.01-.02.02-.03.07-.15.11-.31.14-.47l.01-.04c.03-.16.04-.32.04-.48v-.01c0-.16-.02-.31-.05-.46v-.03c-.02-.14-.06-.27-.09-.39l-.01-.04c-.03-.12-.07-.23-.11-.33v-.01c-.08-.21-.16-.36-.2-.42v-47.9L163.4 56.1c-4.44-3.74-10-6.6-16.24-8.21h-.02c-.58-.14-1.166-.28-1.75-.41l-.14-.03c-.55-.11-1.11-.22-1.67-.31l-.26-.05c-.52-.08-1.06-.16-1.58-.23-.124-.01-.24-.04-.366-.05-.5-.06-1.01-.11-1.52-.16-.15-.01-.31-.03-.46-.05-.5-.04-1-.06-1.5-.09l-.51-.03c-.67-.03-1.34-.04-2.02-.04-.683 0-1.36.02-2.034.05-.216.01-.427.03-.64.04-.465.03-.93.06-1.387.1-.24.02-.48.05-.72.07-.436.04-.867.09-1.3.15l-.7.09c-.46.07-.92.145-1.373.22-.19.036-.38.066-.564.1-1.296.24-2.565.535-3.81.88-.14.04-.28.087-.424.13-.48.136-.95.28-1.42.43l-.52.174c-.45.15-.89.306-1.32.47l-.49.18c-.474.187-.94.378-1.41.577-.1.05-.21.09-.32.14-1.17.52-2.304 1.08-3.4 1.68-.05.03-.103.06-.16.09-.48.27-.955.55-1.42.84l-.3.19c-.427.27-.845.54-1.255.82-.1.07-.196.13-.29.2-.44.31-.87.62-1.29.94-.05.04-.108.08-.158.12-.98.74-1.9 1.53-2.78 2.36l-.01.01-.02-.01c-2.55-1.11-4.59-1.56-6.22-1.61h-.01c-.2-.01-.39-.01-.57 0h-.03l-.53.03h-.03l-.5.06h-.03c-.16.03-.32.06-.47.09h-.01c-1.55.36-2.53 1.13-3.12 1.82l-.02.02-.15.18-.03.03c-.05.06-.09.11-.12.16l-.03.04-.1.15-.03.04-.08.13-.03.04-.06.11-.02.05-.05.09-.02.04-.04.07-.02.04-.02.04-.02.03c0 .01-.01.02-.01.02-.01.01-.01.02-.01.02-.14.28-.24.57-.33.86l-.04.13c-.31 1.06-.31 2.15-.11 3.25l-31 3.14-.19-.1.03.13-.28.03 21.72 72.54-11.13.31-.03.36-.2-.54L67 190.29l.78.2.147.04c.026 0 .06.01.085.02l1.464.38.14.04c2.85.75 7.71 2.03 12.95 3.46l1.74.48c.03.01.06.01.09.02.57.15 1.13.31 1.7.47l.1.03 1.67.47.12.03c.54.15 1.09.3 1.63.46.05.01.11.03.17.05l1.53.43.24.07c.49.14.98.28 1.47.43l.22.06c.47.13.94.27 1.4.4l.27.08c.43.12.86.25 1.27.38l.31.09c.39.12.78.23 1.16.35.11.03.23.06.34.1.36.11.71.22 1.05.32.11.04.23.07.34.11l.92.29c.12.04.25.08.37.12.27.09.53.17.79.26l.36.12c.23.08.44.15.66.23l.35.12c.19.06.35.13.52.19l.33.12c.14.05.26.1.39.16.1.04.21.08.3.12l.26.13c.08.04.17.08.24.12.06.03.1.06.14.09.06.04.12.08.16.11.02.01.01.02.02.04l-.02-.03-.05-.11-.04-.1-.08-.18zm.263.536c0-.033-.043-.075-.082-.116.053.114.083.16.082.116z" opacity=".15"/><path fill="#1B75BB" d="M101.348 196.608c0-.04-.036-.09-.095-.144.064.14.097.19.095.144z"/><path fill="#FFF" d="M159.2 50.985c-7.075-5.907-16.954-9.586-27.896-9.586-11.792 0-22.354 4.26-29.493 11-10.22-4.45-12.32 1.7-12.32 1.7-.59 1.21-.7 2.49-.53 3.77 22.31 9.86 52.68 12.71 70.25-6.9z"/><path fill="#1B75BB" d="M182.953 96.516V48.66l-23.62 2.433c-.044-.037-.09-.07-.134-.107-17.57 19.61-47.94 16.76-70.25 6.897.02.152.02.304.05.455l-31.46 3.24 21.72 72.54-11.14.305-.03.363-.2-.547-4.9 51.01s36.19 9.33 38.23 11.21c-.39-.85-1.96-5.05-4.21-11.22h81.21l4.7-53.98-14.62-8.13 14.62 8.12V99.73c1.03-1.285.15-2.96 0-3.217zm-48.008 8.076l6.977 3.877-6.977-3.88z"/><path fill="#0E4F82" d="M67.926 134.238s33.474 63.852 33.42 62.37S63.02 185.25 63.02 185.25l4.906-51.012zm113.634-2.963L57.8 61.425l43.793 116.264"/><path fill="#FFF" d="M128.646 105.048s28.35 57.316 38.346 1.513c0 0 6.795 2.23 5.48 4.57 0 0-12.595 57.53-46.714 1.38-.002 0-5.23-5.79 2.888-7.46z"/><path fill="#FFF" d="M166.992 100.944c-6.313-8.148-10.078-.54-10.078-.54.557 1.095 2.902.6 2.902.6 5.926-.925 5.246 4.044 5.246 4.044l3.69 4.723"/><path fill="#FFF" d="M166.543 109.772s-1.05-2.3-1.48-4.724c-.43-2.427 1.172.124 1.172.124l1.08-3.18.186-.956s-.49-9.945 4.05-14.772c0 0 6.21-.804 0 7.603 0 0-2.22 6.09-1.9 7.387 0 0 .79 2.032 2.64.876 0 0 3.52-5.145 10.65-5.65 0 0 2.92 4.774-5.18 4.774l-3.53 2.776s3.63 9.445-6.1 6.574"/><path fill="#FFF" d="M168.754 100.604s-.598.926-3.766-.37 3.766 7.41 3.766 7.41v-7.04zM112.06 96.48l17.858 5.65-2.02 2.918 7.285 13.577 3.602 7.195.523 8.727-45.625 2.328S90.63 107.25 90.47 106.75c-.16-.5 14.588-10.873 14.588-10.873l7 .602z"/><path fill="#D0D2D3" d="M136.125 123.91s-6.125-10.002-7.36-18.62l-7.025 3.947 2.053 13.844 5.715 2.87 6.617-2.04zm31.617-62.043s7.717-14.035-6.607-9.16c-14.328 4.875 6.607 9.16 6.607 9.16z"/><path fill="#919496" d="M165.04 57.996s6.866-6.93 1.93 2.346c-4.937 9.28-1.93-2.346-1.93-2.346zm-64.462-2.62l-4.02 8.792s-12.36-15.376 4.02-8.793z"/><path fill="#FFF" d="M92.74 68.708c2.612-15.426 18.877-27.31 38.565-27.31 21.51 0 38.94 14.18 38.94 31.67 0 17.49-17.433 31.667-38.94 31.667-.81 0-1.605-.025-2.404-.065-.86 3.76-1.58 9.59 1.03 13.118 0 0 17.87 13.357 8.75 26.046.01-.093 2.35-22.236-14.7-26.18l3.1-13.946s-6.44-1.514-13.96-4.837v17.48s17.99 21 7.8 35.22c-17.81-.54-53.65-10.07-28.16-82.85z"/><path fill="#D0D2D3" d="M113.1 116.34V98.87c7.524 3.324 13.964 4.838 13.964 4.838l-3.092 13.947c17.045 3.943 14.71 26.086 14.7 26.18-1.778 2.476-2.673 3.313-6.843 5.636 0 0-5.62 2.25-10.93 2.09 10.18-14.22-7.8-35.22-7.8-35.22z"/><ellipse fill="#D0D2D3" cx="137.154" cy="73.766" rx="33.094" ry="25.105"/><path fill="#D0D2D3" d="M104.234 53.574s.38 3.253-2.646 3.706c0 0-14.82-4.84-4.008 8.166 0 0 1.21 1.967-1.285 3.705 0 0-9.98-8.54-6.805-15.04 0 0 2.42-7.11 14.744-.53z"/><ellipse fill="#FFF" cx="154.055" cy="68.125" rx="12.938" ry="12.752"/><ellipse fill="#FFF" cx="123.973" cy="68.414" rx="15.967" ry="15.862"/><path fill="#6C6F71" d="M135.908 95.877s.846-2.56 3.477-2.34c0 0-.7-.77-3.477-1.954 0 0 2.455.233 4.133 1.574 0 0 6.18.563 4.4-4.52 0 0 3.46 6.063-4.76 5.364 0 .01-2.02.4-3.76 1.88z"/><path fill="#BE1E2D" d="M142.648 87.953s1.977 2.396-1.803 3.65c0 0-2.146.89-5.092-2.298 0 0 16.395-7.432 6.895-1.352z"/><path fill="#D0D2D3" d="M106.174 102.13l1.83 47.384-7.426-3.183-5.887-41.04 1.87-1.7 7.51 44.24"/><path fill="#6C6F71" d="M143.225 82.848l-.432 2.715s-8.475 6.198-10.463 1.29l.74-1.896-2.543 3.26 1.525-.944s-.232 6.02 10.83-.965c0 0 5.092-2.05.604 1.1 0 0 7.455-3.375.232-2.125L144 83.2l-.775-.352z"/><path fill="#1D8FCD" d="M147.162 81.533s-2.877-5.856-3.938-2.765c0 0-2.38-3.48-2.38 2.11 0 0 2.255 1.535 2.38 3.397 0 0 2.33-.936 3.938-2.742z"/><path fill="#FFF" d="M143.225 82.848s-.146-.79-1.262-1.578c0 0 .412-1.516 1.262 1.578z"/><path fill="#D0D2D3" d="M167.84 101.53l.914 2.777s5.594 2.63.975 6.686c0 0 5.21-3.745-.03-6.686l-1.86-2.777zm2.406 10.28s.293 2.5-3.79 10.646l3.79-10.647z"/><path fill="#002749" d="M68.144 134.422L63.02 185.25h120.425l-.492-53.975"/><circle fill="#0071BC" cx="121.072" cy="68.498" r="12.364"/><path fill="#0F4481" d="M121.96 71.61c2.297-2.653 2.008-6.66-.645-8.957-2.65-2.293-6.658-2.006-8.957.647-2.293 2.65-2.005 6.66.646 8.956 2.654 2.295 6.663 2.005 8.956-.646z"/><path fill="#FFF" d="M118.263 69.664c1.222-1.41 1.064-3.54-.344-4.76-1.41-1.218-3.54-1.067-4.76.343-1.22 1.41-1.07 3.542.34 4.762 1.41 1.21 3.53 1.06 4.76-.35z"/><circle fill="#FFF" cx="123.4" cy="66.582" r="1.644"/><circle fill="#0071BC" cx="152.229" cy="68.281" r="10.265"/><path fill="#0F4481" d="M152.967 70.867c1.904-2.204 1.666-5.53-.535-7.437-2.2-1.904-5.53-1.666-7.438.537-1.902 2.2-1.664 5.53.54 7.436 2.198 1.904 5.53 1.664 7.433-.536z"/><path fill="#FFF" d="M149.896 69.25c1.014-1.17.885-2.938-.285-3.95-1.16-1.012-2.93-.888-3.95.283-1.01 1.17-.88 2.94.29 3.954 1.17 1.01 2.94.88 3.95-.287z"/><circle fill="#FFF" cx="154.162" cy="66.691" r="1.364"/><path d="M83.95 165.286l.487 2.785c0 .37.144 1.27.43 2.7.288 1.43.432 2.37.432 2.81v.05c0 .67-.25 1.09-.76 1.28-.64 0-1.13-.1-1.48-.31-.36-.2-.53-.6-.53-1.19 0-1.28-.22-3.14-.67-5.59l-4.47-.66c-.28 1-.5 2.1-.64 3.3s-.29 2.06-.42 2.61c-.27 1.12-.76 1.68-1.48 1.68-.36 0-.68-.11-.99-.34-.3-.22-.46-.52-.46-.87l.11-.4c2.03-7.85 3.54-15.5 4.53-22.94.03-.2.07-.81.13-1.81.14-2.21.42-3.61.84-4.22h1.52c.41 0 .77.1 1.08.29.31.2.46.48.46.87 0 2.3.3 5.71.92 10.23.61 4.53.91 7.78.91 9.77zm-2.364.906c-.088-.44-.133-1.212-.133-2.31s-.063-2.46-.188-4.09-.306-3.52-.542-5.68c-.236-2.158-.398-3.725-.486-4.696-1.37 7.59-2.254 12.938-2.652 16.046.516.34 1.85.584 4 .73zm17.02-11.89l.043.773c0 13.395-1.95 20.092-5.84 20.092-1.51.014-2.62-.597-3.34-1.835-.75-1.267-1.21-2.527-1.37-3.78-.25-1.93-.4-4.144-.43-6.642-.04-2.497-.06-6.104-.06-10.82l-.2-6.475c.28-.634.6-.95.96-.95s.68.275.96.828c.28.553.42 1.14.42 1.757v12.312c0 1.076.1 2.675.32 4.797.21 2.12.32 3.72.32 4.79 0 2.21.96 3.31 2.87 3.31 2.15 0 3.22-8.11 3.22-24.34v-2.54l-.02-.76c0-.36.08-.62.24-.8.16-.18.44-.27.85-.27s.71.06.92.2c.19.11.33.29.42.53.12.36.18.85.2 1.46l-.31 4.55-.2 3.78zm10.61 5.016l-.045 4.907c0 3.993.29 7.14.87 9.438l-.51 1.215h-1.26l-.59-.663c.03-1.355.05-2.877.05-4.563 0-1.688-.13-5.294-.38-10.82-.26-5.525-.39-9.65-.39-12.377 0-1.43.5-2.145 1.5-2.145 1.58 0 2.91.413 3.98 1.238 1.08.825 1.62 2.004 1.62 3.536v3.183c0 .87-.16 1.662-.48 2.376-.33.715-.7 1.467-1.13 2.255-.43.788-.66 1.227-.71 1.315.16.736.45 2.18.86 4.332.89 4.7 1.87 8.082 2.94 10.146.31.59.47 1.05.47 1.39 0 .33-.09.61-.28.84-.18.23-.43.35-.74.35-.63 0-1.24-.72-1.82-2.17s-1.05-3.06-1.4-4.83c-1.07-5.4-1.73-8.38-1.96-8.93h-.55zm.176-13.328l-.154.642c0 1.237.03 3.024.088 5.36.06 2.335.088 4.033.088 5.094.707-.368 1.278-1.33 1.713-2.884.435-1.555.652-2.744.652-3.57 0-.825-.03-1.433-.07-1.823-.05-.4-.14-.83-.29-1.3-.3-.98-.98-1.48-2.04-1.53zm9.194 5.637l-.242-3.824c0-2.136.633-3.205 1.9-3.205.81 0 1.915.188 3.315.564 1.39.375 2.1.858 2.1 1.447 0 .61-.45 1.09-1.33 1.41-1.4-.47-2.54-.76-3.43-.86.04.65.06 1.29.06 1.94l-.2 6.5c0 .03.04.26.13.7l1.61-.07c1.46 0 2.18.41 2.18 1.24 0 .32-.13.61-.4.85s-.6.36-1.01.36-.85-.03-1.32-.09h-1.15c.09 1.15.13 2.29.13 3.42l-.2 8.2c0 1.69.03 2.54.09 2.54l3.33-.11c1.15 0 1.72.36 1.72 1.1 0 .45-.2.79-.6.99-.4.21-.85.31-1.35.31h-3.82c-.4 0-.76-.14-1.08-.41s-.5-.6-.51-.98v-1.19l-.29-7.65.31-13.22zm15.737 17.395c.663-3.33 1.478-8.142 2.442-14.434s1.536-9.946 1.713-10.963h1.017c.266 0 .505.096.72.287s.32.428.32.707c0 1.69-.362 3.82-1.084 6.39-.72 2.57-1.14 4.23-1.27 4.97-.12.74-.25 1.95-.38 3.61s-.29 3.3-.46 4.9c-.17 1.61-.41 3.24-.7 4.91s-.71 3.01-1.25 4.04-1.17 1.55-1.91 1.55l-.84-.69c0-3.67-.35-7.41-1.05-11.23-.7-3.82-1.38-7.02-2.05-9.62-.67-2.59-1.12-4.24-1.36-4.93-.53-1.64-.79-2.65-.79-3.05 0-.4.12-.7.35-.91.23-.21.48-.31.76-.31.84 0 1.65 1.44 2.41 4.33.77 2.9 1.34 5.62 1.73 8.14.39 2.53.67 4.46.86 5.8.19 1.34.38 2.68.55 4.03.17 1.35.28 2.16.32 2.42zm8.267-8.377l.045-1.724c0-.14-.022-.22-.066-.22v-.81c0-4.74.27-8.12.81-10.12.45-1.69.9-2.74 1.32-3.14s.85-.59 1.26-.59c3.5 0 5.92 1.77 7.25 5.31.76 2.04 1.15 4.54 1.15 7.52v.33l.08 5.13c0 8.68-2.01 13.02-6.04 13.02-1.67 0-2.94-.92-3.83-2.76-.84-1.77-1.36-3.51-1.55-5.22-.31-2.57-.47-4.81-.47-6.69zm2.675-6.19l-.22 4.18c0 4.375.353 8.19 1.06 11.448.752 1.9 1.466 3.02 2.144 3.36.54 0 1.03-.222 1.48-.664.44-.45.79-1.04 1.05-1.78s.47-1.53.65-2.36c.16-.81.28-1.68.37-2.61.14-1.61.22-2.98.22-4.11s-.1-2.88-.3-5.22c-.2-2.35-.3-4.09-.3-5.24v-.8c-.03-1.11-.39-2.09-1.09-2.95-.7-.87-1.58-1.3-2.66-1.3-1.03 0-1.72.58-2.06 1.74-.28.97-.42 2.17-.42 3.6l.04 2.67zm16.908 4.975l.22 9.614v1.35l-.02 1.26h.597l1.304-.045c1.238 0 1.857.37 1.857 1.12 0 .38-.15.71-.45.98-.3.27-.65.41-1.05.41h-1.99c-1.37 0-2.24-.03-2.63-.09-.23.03-.42.04-.55.04-1.07 0-1.61-.34-1.61-1.02 0-.28.09-.55.27-.8.18-.25.36-.39.53-.4h1.28l.09-.6-.31-9.62.25-10.08c0-1.73-.07-3.35-.22-4.86h-.86l-1.04.04c-.44 0-.78-.09-1.03-.26s-.37-.49-.37-.96c0-.7.75-1.04 2.23-1.04h5.4c1.23 0 1.84.31 1.84.95 0 .28-.13.53-.4.77s-.56.35-.9.35h-2.32c.12 1.24.18 2.64.18 4.2l-.24 8.64zm8.377-.112l-.044 4.907c0 3.993.287 7.14.862 9.438l-.51 1.215h-1.26l-.596-.663c.03-1.355.044-2.877.044-4.563 0-1.688-.13-5.294-.387-10.82-.26-5.525-.39-9.65-.39-12.377 0-1.43.5-2.145 1.5-2.145 1.57 0 2.9.413 3.98 1.238 1.07.825 1.61 2.004 1.61 3.536v3.183c0 .87-.16 1.662-.49 2.376-.33.715-.7 1.467-1.13 2.255-.43.788-.67 1.227-.71 1.315.16.736.45 2.18.86 4.332.88 4.7 1.86 8.082 2.94 10.146.31.59.46 1.05.46 1.39 0 .33-.09.61-.28.84s-.43.35-.74.35c-.64 0-1.24-.72-1.83-2.17-.58-1.45-1.05-3.06-1.41-4.83-1.08-5.4-1.74-8.38-1.97-8.93h-.55zm.177-13.328l-.154.642c0 1.237.03 3.024.088 5.36.06 2.335.09 4.033.09 5.094.71-.368 1.28-1.33 1.72-2.884s.65-2.744.65-3.57c0-.825-.02-1.433-.06-1.823-.04-.4-.14-.83-.29-1.3-.29-.98-.97-1.48-2.03-1.53z" fill="#BBC9DA"/></svg>