<svg xmlns="http://www.w3.org/2000/svg" width="250" height="250" viewBox="0 0 250 250"><path opacity=".15" d="M217.958 106.958L111.933 44.6l-5.61 21.765c-.804-.205-1.628-.31-2.47-.31-7.257 0-14.29 7.467-21.928 23.385-3.582-4.483-9.446-10.087-16.38-10.087-4.967 0-9.393 2.792-13.16 8.3-1.074 1.08-1.996 2.796-2.104 4.89h-.26c-5.47 0-9.82 1.526-12.58 4.414-2.44 2.555-3.59 6.002-3.4 10.25l.03.537.19.504c.32.893 8.02 21.56 31.75 28.737 1.89 3.176 5.15 7.17 9.73 11.92-3.38 5.904-5.16 12.523-5.16 19.313 0 22.125 18.75 40.127 41.8 40.127 20.13 0 37.02-13.488 40.94-32 1.02.46 1.58.88 1.71.98l1.15 1.184 1.82-.31c2.22-.38 3.41-1.55 4.01-2.48.98-1.48 1.03-3.22.75-4.36l-.28-1.14-.9-.75c-2.05-1.7-4.56-2.9-7.46-3.59-.15-2.46-.52-4.88-1.13-7.27 4.87-3.53 4.7-8.49 3.75-10.92l-.09-.22-.11-.22c-.85-1.53-2.15-2.76-3.86-3.64-1-.55-2.13-.97-3.37-1.26-.89-2.02-2.01-3.97-3.33-5.81l22.24 12.87 49.8-42.5z"/><path fill="#F47F38" d="M215.994 104.013L109.97 41.656l-5.61 21.764c-.805-.205-1.63-.31-2.47-.31-7.258 0-14.29 7.468-21.93 23.386-3.58-4.483-9.445-10.088-16.378-10.088-4.968 0-9.394 2.793-13.162 8.3-1.073 1.08-1.995 2.798-2.103 4.892h-.265c-5.468 0-9.82 1.525-12.585 4.414-2.445 2.554-3.59 6.002-3.406 10.25l.03.536.18.504c.32.894 8.02 21.56 31.75 28.738 1.89 3.176 5.15 7.17 9.73 11.92-3.38 5.904-5.16 12.523-5.16 19.31 0 22.128 18.75 40.13 41.8 40.13 20.13 0 37.02-13.488 40.94-32 1.02.46 1.58.88 1.71.98l1.16 1.184 1.82-.305c2.22-.37 3.4-1.55 4.01-2.47.98-1.48 1.03-3.22.75-4.35l-.28-1.13-.9-.74c-2.06-1.7-4.56-2.89-7.46-3.58-.14-2.45-.52-4.88-1.13-7.26 4.87-3.53 4.7-8.49 3.75-10.91l-.08-.22-.11-.21c-.85-1.53-2.15-2.76-3.86-3.64-.99-.55-2.12-.96-3.37-1.26-.89-2.02-2-3.96-3.32-5.81l22.23 12.88 49.81-42.5z"/><path fill="#FAAF40" d="M97.823 102.87l9.75 14.036-.487-16.578"/><path fill="#FFCC7A" d="M112.21 47.056L97.823 102.87l67.975 39.353 44.157-37.68"/><path d="M119.88 66.104c-1.368-.82-2.05-1.23-3.418-2.052-1.19 2.716-1.747 4.098-2.77 6.914.89.526 1.333.79 2.223 1.315-.606 1.61-.895 2.42-1.446 4.06l-2.19-1.28c-1.54 4.76-2.2 7.2-3.26 12.2l-2.23-1.27c1.88-9.41 4.86-18.6 8.92-27.31l6 3.64c-.77 1.51-1.13 2.27-1.84 3.81zm.313 19.02c-.31.92-.46 1.385-.75 2.315-.676 1.92-1.416 3.11-2.43 3.78-.52.34-1.102.32-1.78-.07-1.338-.77-1.694-2.54-1.67-4.1.016-.91.135-1.89.4-2.92 1.164-4.15 1.838-6.18 3.345-10.15.793-1.87 1.776-3.02 3.02-3.6.608-.29 1.293-.2 2.042.25 1.476.88 1.657 2.57 1.466 3.99-.114.84-.34 1.73-.7 2.66-.935 2.24-1.375 3.38-2.2 5.68-1.44-.84-2.162-1.27-3.603-2.11-.587 1.75-.863 2.63-1.385 4.41-.21.8-.255 1.46-.167 1.96.05.24.17.45.36.55.4.23.71-.14.96-.63.14-.26.27-.59.4-1 .27-.9.41-1.34.7-2.23l2.01 1.17zm-1.852-7.134l1.6.938c.42-1.11.63-1.66 1.07-2.755.3-.747.45-1.35.39-1.884-.03-.24-.17-.46-.37-.58-.42-.25-.79.11-1.12.57-.17.24-.33.55-.51.93-.43 1.1-.64 1.65-1.05 2.77zm9.78-11.474c-1.38.743-2.06 1.127-3.4 1.913l-1.79-1.08c1.08-.95 1.63-1.41 2.75-2.32.98.59 1.47.88 2.45 1.48zm-8.72 26.676c2.47-9.02 6.02-17.738 10.6-25.895l2.36 1.427c-5.52 9.528-7.74 14.736-10.87 25.662l-2.08-1.194zm14.83-23.338l2.36 1.425c-.78 1.28-1.16 1.93-1.9 3.25l-2.32-1.4c.73-1.33 1.11-1.99 1.88-3.29zm-11.1 25.478c2.4-8.077 3.96-11.972 7.7-19.302l2.29 1.366c-3.81 7.26-5.42 11.12-7.9 19.13-.83-.48-1.25-.717-2.08-1.194zm7.21-1.288c-.27.708-.56 1.574.01 1.9.48.277.75-.043 1.2-1.204.42-1.07.64-1.602 1.08-2.657l2.16 1.256c-.31.72-.47 1.09-.77 1.83-.87 2.12-1.61 3.37-2.37 3.96-.76.59-1.53.54-2.41.03-.74-.43-1.3-1.18-1.47-2.35-.17-1.18.03-2.84.84-5 1.28-3.4 1.99-5.06 3.53-8.31.98-2.08 2.01-3.26 2.96-3.77.96-.52 1.9-.4 2.71.09.98.58 1.54 1.3 1.6 2.38.06 1.07-.41 2.48-1.45 4.5-.29.57-.44.85-.72 1.43L135 86.82c.43-.89.65-1.34 1.096-2.22.56-1.1.62-1.54.105-1.85-.6-.36-1.03.424-1.37 1.095-1.97 3.96-2.87 5.996-4.46 10.17zm15.37-17.242l2.36 1.426c-.85 1.224-1.27 1.845-2.09 3.1-.92-.56-1.39-.838-2.32-1.396.8-1.267 1.21-1.894 2.05-3.13zm-12.44 24.343c2.81-7.743 4.58-11.47 8.71-18.46l2.29 1.367c-4.21 6.92-6.02 10.613-8.92 18.287l-2.08-1.2zm18.28-18.538c-1.15 1.624-1.71 2.45-2.79 4.124l1.57.94c-.73 1.12-1.09 1.69-1.79 2.83l-1.54-.91c-2.07 3.45-3.03 5.22-4.78 8.85-.27.57-.62 1.31-.81 1.97s-.25 1.26.08 1.46c.17.1.4.2.56.24.09.02.18.07.28.08-.61 1.34-.9 2.01-1.47 3.37-.11-.02-.24-.01-.36-.04-.23-.05-.52-.17-.84-.35-1.21-.69-1.38-2.06-1.13-3.54.26-1.47.93-3.05 1.43-4.13 1.75-3.78 2.72-5.62 4.81-9.21l-1.13-.67c.67-1.17 1.02-1.75 1.72-2.89l1.16.69c1.06-1.69 1.61-2.52 2.74-4.16l2.34 1.41zm.78 11.813c.18-.28.48-.723.59-1.063.12-.345.07-.682-.22-.854-.38-.226-.81.083-1.17.538-.18.23-.37.51-.55.79-.17.28-.34.57-.5.82l-2.23-1.31c.17-.29.26-.44.44-.73.76-1.26 1.81-2.19 2.89-2.69s2.19-.53 3.08 0c.75.45 1.15 1.25 1.21 2.22.06.97-.27 2.09-.99 3.2-2.71 4.12-3.95 6.26-6.17 10.66-.81 1.61-1.08 2.38-1.37 3.22l-2.04-1.17c-.02-.47.38-1.34.49-1.58l-.14-.08c-.24.24-.63.57-1.08.77-.45.21-.96.25-1.37.02-.27-.15-.61-.59-.66-1.44-.05-.83.13-2.17 1.03-4.08.97-2.04 2.11-3.26 3.15-3.93s2.05-.89 2.83-.98c.79-.09 1.38-.13 1.67-.42.46-.75.69-1.12 1.16-1.87zm-2.88 4.822c-1.44.053-2.74 1.382-3.59 3.1-.12.23-.29.645-.39 1.053-.11.443-.11.83.14.976.49.28 1.11.05 1.42-.58.92-1.84 1.41-2.75 2.42-4.54zm15.05-8.832c-1.26 1.528-1.87 2.305-3.06 3.886l1.57.934c-.81 1.057-1.21 1.592-1.99 2.672l-1.54-.913c-2.3 3.25-3.38 4.92-5.36 8.36-.31.54-.7 1.24-.93 1.86s-.32 1.2.02 1.4c.17.09.4.2.56.24.1.02.19.06.29.08-.69 1.26-1.03 1.9-1.68 3.19-.12-.03-.25-.02-.37-.05-.24-.06-.52-.18-.85-.37-1.21-.7-1.31-2.02-.98-3.42.34-1.41 1.1-2.92 1.67-3.94 1.98-3.59 3.07-5.33 5.39-8.71l-1.13-.68c.75-1.11 1.13-1.66 1.91-2.74l1.16.69c1.17-1.6 1.77-2.39 3.02-3.93.94.56 1.4.84 2.34 1.41zm4.13.246l2.36 1.425c-1 1.1-1.49 1.66-2.44 2.79l-2.32-1.39c.94-1.14 1.42-1.7 2.41-2.82zM153.5 112.73c3.637-7.07 5.815-10.45 10.727-16.77l2.29 1.367c-4.99 6.25-7.214 9.596-10.935 16.595l-2.08-1.192zm11.367.995c-1.11 1.565-2.136 2.51-3.384 2.996-.64.26-1.28.18-1.96-.21-1.34-.76-1.374-2.29-1.053-3.6.18-.76.5-1.59.99-2.44 2.06-3.41 3.18-5.06 5.57-8.28 1.22-1.51 2.47-2.41 3.94-2.79.725-.19 1.46-.05 2.21.4 1.472.88 1.37 2.34.9 3.52-.28.71-.69 1.44-1.256 2.19-2.55 3.2-3.75 4.84-5.97 8.24zm3.8-9.395c.49-.59.767-1.09.79-1.545.015-.2-.104-.4-.305-.52-.423-.252-.9.04-1.323.39-.23.192-.47.438-.69.77-2.43 3.185-3.57 4.824-5.68 8.203-.43.634-.62 1.18-.62 1.607.01.205.11.393.3.502.4.23.81-.06 1.18-.443.2-.21.41-.474.6-.822 2.13-3.355 3.29-4.98 5.74-8.142zm-2.825 15.468l-2.08-1.19c4.055-6.722 6.44-9.93 11.747-15.907l2.28 1.37c-.45.5-.68.75-1.12 1.25.07 0 .25-.05.53-.14.51-.15 1.22-.35 1.88-.38.32-.01.56.05.76.17.61.37.64 1.06.41 1.75-.24.72-.78 1.53-1.34 2.16-4.35 4.87-6.33 7.44-9.83 12.8l-2.09-1.19c3.31-5.23 5.19-7.75 9.3-12.53.5-.58.3-.82.04-.97-.24-.14-.54-.07-.84.04-.16.06-.32.14-.51.24-4.06 4.79-5.9 7.31-9.17 12.55zm17.095-6.856c.32-.348.744-.78.956-1.17.194-.36.264-.75-.095-.964-.29-.172-.72 0-1.1.25-.39.256-.85.696-1.17 1.046-.41.458-.64 1.077-.75 1.666-.103.58-.14 1.243-.16 1.845-.02.827-.06 1.822-.32 2.77-.273.982-.714 2.007-1.516 3.017-.78.983-1.76 1.94-2.76 2.502-1.048.583-2.13.818-3.12.254-1.256-.717-1.445-1.97-1.168-3.206s1.07-2.512 1.69-3.35l1.995 1.158c-.33.428-.76 1.05-.95 1.59-.21.572-.28 1.113.16 1.366.6.35 1.45-.557 2.15-1.464.72-.936.8-2.272.82-3.515.02-.934-.02-1.82.22-2.798.23-.98.65-1.98 1.61-3.07.77-.87 1.82-1.8 2.97-2.3 1.12-.49 2.38-.62 3.49.01 1.36.77 1.53 1.78 1.16 2.76-.37.98-1.27 2-2.05 2.82l-2.08-1.23zm12.14-6.264l2.726 1.655c-6.444 4.916-9.39 7.604-14.65 13.322l-1.35-.783c4.75-6.03 7.42-8.893 13.27-14.194zm-15.686 16.35l2.21 1.276c-1 1.23-1.49 1.852-2.44 3.108l-2.16-1.237c.93-1.272 1.42-1.9 2.4-3.146z"/><ellipse fill="#FAAF40" cx="110.376" cy="165.271" rx="38.276" ry="36.611"/><path fill="#FFF" d="M129.03 169.268s18.825-7.818 28.3 0c0 0 .516 2.11-1.928 2.52 0 0-7.223-6.806-24.993-1.08"/><path fill="#E6E7E8" d="M137.493 166.74l-1.425 2.473s-5.438 1.352-6.29 1.762c-.856.41-.747-4.506-.747-4.506l6.37-.68 2.1.94z"/><path fill="#FFF" d="M97.025 170.713s-6.51.12-8.178 2.81c0 0-1.297 1.833.902.978 0 0-1.51 2.3 1.2 1.41 0 0-1.04 2.23 1.5 1.04l6.69-4.61m16.62 8.04s4.83 7.76 3.37 11.7c0 0-.96.84-1.43-.99 0 0-1.41 3.46-2.46-.12 0 0-1.41 2.68-2.31-.73 0 0-.52-8.99-.62-10.77"/><path fill="#E6E7E8" d="M95.45 171.006s-1.935 2.496 1.32 2.943c3.26.44 1.475-3.37-1.32-2.95zm17.19 12.498s2.57 3.137 4.53-.338c-.002 0-2.993-2.69-4.53.338z"/><ellipse transform="rotate(-69.65 112.65 166.47)" fill="#FFF" cx="112.648" cy="166.472" rx="16.85" ry="18.302"/><path fill="#E6E7E8" d="M124.554 179.895s2.25-4.418 2.514-6.77l1.964 1.447s-.966 2.533-4.478 5.323z"/><path fill="#FFF" d="M97 157.293s-13.972-16.59-15.65-38.063l-15.69 9.747s-.325 6.652 30.134 32.553"/><path fill="#E6E7E8" d="M92.325 150.646s2.28 4.99 2.854 10.36c0 0 2.2-1.614 5.9-.567l-8.77-9.8z"/><path fill="#D0D1D2" d="M105.65 122.248s-6.32-8.666-7.255 3.417l2.107-.385 5.148-3.032z"/><path fill="#919396" d="M102.022 124.006s-2.406-5.538-2.77 1.007c-.362 6.546 2.77-1.007 2.77-1.007z"/><path fill="#FFF" d="M143.85 159.852c-6.156 11.314-22.595 14.268-36.722 6.586-14.127-7.68-20.59-23.082-14.435-34.4 6.153-11.32 22.595-14.27 36.722-6.588 14.125 7.68 20.588 23.08 14.435 34.402z"/><path fill="#D0D1D2" d="M100.623 156.207s-2.87 12.834 5.318 3.52l-5.31-3.52z"/><ellipse transform="rotate(-61.47 114.3 144.43)" fill="#D0D1D2" cx="114.299" cy="144.421" rx="18.585" ry="24.365"/><path fill="#D0D1D2" d="M142.275 142.67s6.938-.592 9.166 3.398c0 0 2.39 6.096-6.98 8.848l-2.36.83s-.68-1.453.54-3.145c0 0 11.36-4.1.13-6.82 0 0-1.52-.97-.48-3.1z"/><path fill="#BE202E" d="M102.022 153.332s-4.544 16.984 5.072 3.316c0 0-1.092-2.057-1.49-3.56 0 .004-2.852.635-3.582.244z"/><ellipse transform="rotate(-61.47 103.47 136.9)" fill="#FFF" cx="103.475" cy="136.894" rx="9.837" ry="9.982"/><ellipse transform="rotate(-61.47 123.77 148.18)" fill="#FFF" cx="123.769" cy="148.174" rx="12.241" ry="12.321"/><path fill="#919396" d="M143.592 145.16c0-.012.617 6.293-.182 7.81l1.382-.802c0-.002 9.722-4.898-1.2-7.008z"/><path fill="#D0D1D2" d="M142.037 142.54s6.94-.59 9.167 3.4c0 0 2.38 6.097-6.98 8.85l-2.364.83s-.68-1.454.54-3.146c0 0 11.353-4.11.122-6.828 0 0-1.524-.97-.485-3.105z"/><path fill="#6D6F71" d="M106.416 151.207l-1.393 2.227.366.156 1.34-2.246"/><path fill="#6D6F71" d="M100.624 149.154s-.292 5.188 4.652 3.875l.113.56s-6.34 1.17-5.17-4.61l.4.17z"/><path fill="#6D6F71" d="M105.604 153.092s2.108 7.07 7.064 3.314l.255.21s-4.372 4.6-7.9-3.183l.58-.34z"/><path fill="#6D6F71" d="M112.023 155.855s2.547-.102 1.015 1.742c0 0 2.228-2.087-1.015-1.742z"/><path fill="#D0D1D2" d="M104.517 162.752s-5.493 4.25-8.084 10.514c0 0 1.717 4.662 6.912 7.334 0 0 4.38 2.996 9.756 2.896 0 0 2.74-9.893 1.21-17.61 0 0-4.81-.366-9.79-3.134z"/><path fill="#FFF" d="M137.484 177.453s.334 1.262-.317 1.832c0 0-.447.365 0 .895 0 0 .604.53.405-.73 0 0 1.102-.244.775 1.1 0 0 .814.162.692-.652 0 0 .4.408.53-.324 0 0-.44-1.285-1.1-2.432-.66-1.15-1 .31-1 .31z"/><path fill="#E6E7E8" d="M90.068 174.313s.75-.69 2.257-.98c0 0-1.998.272-3.462 1.34 0-.003.954-.17 1.205-.36zm.77 1.6s2.156-1.237 2.34-1.48c0 0-1.382 1.16-1.993 1.364l-.347.117zm26.884 15.167s.123-2.002-.427-3.527c0 0 .84 1.705.582 4.02l-.155-.493zm-2.455-.123s.685-1.432-.15-3.69c0 0 .542 2.415-.086 4.06 0 0 .19-.233.24-.37z"/><path fill="#FFF" d="M124.554 174.426l2.514.053s7.006-.33 11.402 4.48c0 0 2.428-2.58-8.234-9.07m-19.19-94.68c-.12-.42-.25-.86-.398-1.3-4.1-7.93-13.844-17.46-30.058 19.67 0 0-14.75-25.72-27.48-6.57 0 0-2.922 2.33 0 6.56 0 0-18.16-3.85-17.532 10.52 0 0 9.023 25.05 38.53 28.42l4.672-6.87s11.637-32.05 31.466-42.77c.81-1.89 1.24-4.39.8-7.68z"/><path fill="#0B8ECC" d="M108.24 147.918s2.4-1.676 1.687 3.23l-3.767.78-1.12-3.23s3.516-2.97 3.2-.78z"/><path fill="#FFF" d="M109.432 150.83l-1.62.33s1.005-1.23 1.62-.33zm-3.564-.728l-.428-1.055s.726.033.428 1.055z"/><path fill="#E6E7E8" d="M63.69 116.742l3.172 2.743 5.346-2.966s-1.646-2.75-.355-8.54l-3.302-1.2-4.86 9.94z"/><path fill="#D0D1D2" d="M81.33 95.326s-1.3 15.842-12.987 13.342c0 0-3.165 20.358-16.07 11.488 0 0-8.975-5.76-8.975-9.248l9.392.56-7.722.897s18.327 20.518 21.895-5.57c0 0 .438-9.1-13.754-13.21 0 0 13.35.062 15.44 13.21 0 0 6.81 3.73 12.78-11.47z"/><path fill="#D0D1D2" d="M74.24 107.003s-5.37 5.59 0 14.17c0 0-5.346-4.896-2.387-13.184l2.387-.99zm-9.745 11.727l5.52 3.723-5.52-5.934m-11.805-5.06s-6.47-6.56-13.15-5.72c0 0 12.095 3.94 9.61 6.13l3.54-.41z"/><path fill="none" stroke="#BBBDBF" stroke-linecap="round" stroke-linejoin="round" stroke-miterlimit="10" d="M108.58 77.674c0-3.93-3.746-7.118-8.367-7.118-3.697 0-6.694 2.55-6.694 5.695 0 2.52 2.39 4.56 5.35 4.56 2.36 0 4.28-1.63 4.28-3.64 0-1.61-1.54-2.91-3.43-2.91-1.52 0-2.74 1.05-2.74 2.33 0 1.03.98 1.87 2.19 1.87.97 0 1.75-.66 1.75-1.49 0-.66-.63-1.19-1.41-1.19-.62 0-1.13.43-1.13.96 0 .43.4.77.9.77.39 0 .71-.27.71-.61"/><path fill="#E6E7E8" d="M86.865 81.228s-1.983 8.39 6.027 10.77c8.01 2.378-7.428-2.68-6.027-10.77z"/><circle fill="#0071BC" cx="104.431" cy="137.526" r="8.089"/><path fill="#0F4481" d="M103.196 140.684c-1.724-1.516-1.89-4.14-.376-5.86 1.515-1.722 4.14-1.892 5.863-.376 1.72 1.516 1.89 4.14.374 5.86-1.514 1.725-4.14 1.893-5.86.376z"/><path fill="#FFF" d="M105.42 139.094c-.916-.805-1.004-2.2-.2-3.113.805-.91 2.2-1 3.118-.2.914.81 1.002 2.21.196 3.12-.805.92-2.198 1-3.114.2z"/><circle fill="#FFF" cx="101.818" cy="137.552" r="1.075"/><circle fill="#0071BC" cx="125.643" cy="148.049" r="9.471"/><path fill="#0F4481" d="M122.22 150.455c-1.26-2.375-.355-5.318 2.017-6.576 2.373-1.26 5.318-.36 6.578 2.02 1.258 2.37.354 5.31-2.02 6.57-2.373 1.26-5.317.35-6.575-2.02z"/><path fill="#FFF" d="M125.314 149.635c-.667-1.264-.187-2.826 1.073-3.494s2.827-.19 3.497 1.07c.667 1.27.187 2.83-1.077 3.5-1.26.67-2.823.19-3.493-1.07z"/><circle fill="#FFF" cx="122.009" cy="146.452" r="1.259"/></svg>