<svg xmlns="http://www.w3.org/2000/svg" width="250" height="250" viewBox="0 0 250 250"><path opacity=".15" d="M237.983 174.766c-.63-1.23-1.877-2.092-3.335-2.174l-16.16-2.646c-.213-.035-.427-.053-.642-.053-.56-.36-1.216-.584-1.92-.625l-12.824-2.098c.004-.074.006-.15.006-.225v-8.277c6.217-12.234 9.367-25.41 9.367-39.18 0-47.852-38.93-86.782-86.782-86.782S38.91 71.636 38.91 119.488c0 14.872 3.84 29.428 11.008 42.27-1.34.506-2.342 1.71-2.547 3.193l-.42 3.08-2.88-3.43c-.78-.93-1.91-1.43-3.06-1.43-.65 0-1.31.16-1.92.49-1.67.92-2.46 2.89-1.89 4.71l8 25.42c.53 1.67 2.07 2.8 3.82 2.8l36.31-.14c.28.17.58.31.9.4l4.02 1.23c.42.15.87.22 1.31.22h.19l4.13-.18c1.29-.05 2.41-.72 3.1-1.7h.81v.76c0 1.76 1.15 3.32 2.83 3.83l4.02 1.23c.42.15.87.22 1.31.22h.19l4.12-.19c2.14-.09 3.82-1.85 3.82-3.99v-1.9l4.72-.02c-.03.4-.06.76-.09 1.07-.06.74-.11 1.32-.16 1.72l-.08.71c-.03.32-.04.64-.03.97.12 3.81 3.2 6.79 7.01 6.79h.22c1.87-.06 3.61-.84 4.89-2.2.28-.29.53-.6.74-.93.26.71.66 1.31 1.09 1.74.54.54 1.21.91 1.96 1.08l21.62 4.87c1.6 1.67 3.26 2.06 4.47 2.06.82 0 1.57-.17 2.24-.47.69.31 1.48.52 2.34.52.81 0 1.53-.17 2.18-.47.29.05.59.07.89.07 2.52 0 4.54-1.62 5.09-2.12.23-.2.43-.43.6-.67.31-.06.61-.15.9-.25.6.24 1.27.39 2.01.39.72 0 1.37-.14 1.95-.38.22.03.44.04.67.04 2.36 0 4.23-1.5 4.74-1.96.71-.64 1.17-1.5 1.3-2.45.27-1.99-.33-3.94-1.68-5.51-2.02-2.33-6.01-3.94-11.91-4.81l4.97-.02c.4.34.87.6 1.4.76l4.01 1.23c.42.14.87.22 1.31.22h.19l4.13-.18c1.44-.07 2.67-.89 3.32-2.07h.58v1.11c0 1.76 1.15 3.31 2.83 3.82l4.02 1.23c.42.14.87.22 1.31.22h.19l4.13-.19c2.14-.09 3.82-1.85 3.82-3.99v-1.89l8.13.16c.74 0 1.44-.2 2.05-.57l4.29-.02c1.88 0 3.5-1.32 3.9-3.16l2.25-10.49h3.92c2.2 0 3.99-1.78 4-3.98l.01-1.27.01-.11c.05-.76-.12-1.5-.45-2.14zm-103.6 24.52l-.052-1.606-.05-1.42 4.96-.02-.18.252c-1.72.62-3.48 1.477-4.67 2.793z"/><path fill="#B2D573" d="M234.483 170.766c-.63-1.23-1.877-2.092-3.335-2.174l-16.16-2.646c-.213-.035-.427-.053-.642-.053-.56-.36-1.216-.584-1.92-.625l-12.824-2.098c.004-.074.006-.15.006-.225v-8.277c6.217-12.234 9.367-25.41 9.367-39.18 0-47.852-38.93-86.782-86.782-86.782S35.41 67.636 35.41 115.488c0 14.872 3.84 29.428 11.01 42.27-1.34.506-2.343 1.71-2.55 3.193l-.427 3.08-2.878-3.43c-.782-.93-1.915-1.43-3.067-1.43-.654 0-1.314.16-1.92.49-1.673.92-2.466 2.89-1.893 4.71l8 25.42c.524 1.67 2.07 2.8 3.815 2.8l36.308-.14c.278.17.58.31.9.4l4.015 1.23c.42.15.864.22 1.313.22h.186l4.125-.18c1.288-.05 2.412-.72 3.1-1.7h.805v.76c0 1.76 1.15 3.32 2.833 3.83l4.015 1.23c.42.15.864.22 1.313.22h.186l4.12-.19c2.13-.09 3.82-1.85 3.82-3.99v-1.9l4.72-.02c-.03.4-.06.76-.09 1.07-.06.74-.12 1.32-.16 1.72l-.09.71c-.04.32-.05.64-.04.97.12 3.81 3.19 6.79 7 6.79h.22c1.87-.06 3.61-.84 4.89-2.2.27-.29.52-.6.74-.93.25.71.65 1.31 1.08 1.74.53.54 1.21.91 1.95 1.08l21.62 4.87c1.59 1.67 3.25 2.06 4.46 2.06.82 0 1.57-.17 2.24-.47.69.31 1.47.52 2.34.52.81 0 1.53-.17 2.17-.47.29.05.58.07.88.07 2.52 0 4.54-1.62 5.09-2.12.23-.2.43-.43.6-.67.31-.06.61-.15.9-.25.59.24 1.26.39 2 .39.72 0 1.37-.14 1.95-.38.22.03.44.04.67.04 2.36 0 4.23-1.5 4.74-1.96.71-.64 1.17-1.5 1.3-2.45.27-1.99-.33-3.94-1.68-5.51-2.02-2.33-6.01-3.94-11.91-4.81l4.97-.02c.4.34.87.6 1.39.76l4.02 1.23c.42.14.86.22 1.31.22h.19l4.12-.18c1.44-.07 2.67-.89 3.32-2.07h.58v1.11c0 1.76 1.15 3.31 2.83 3.82l4.01 1.23c.42.14.86.22 1.31.22h.18l4.12-.19c2.14-.09 3.82-1.85 3.82-3.99v-1.89l8.13.16c.74 0 1.44-.2 2.05-.57l4.3-.02c1.88 0 3.5-1.32 3.9-3.16l2.25-10.49h3.91c2.2 0 3.99-1.78 4-3.98v-1.27l.01-.11c.05-.76-.11-1.5-.45-2.14zm-103.6 24.52l-.052-1.606-.05-1.42 4.96-.02-.18.252c-1.72.62-3.48 1.477-4.67 2.793z"/><linearGradient id="a" gradientUnits="userSpaceOnUse" x1="122.193" y1="16.127" x2="122.193" y2="200.079"><stop offset="0" stop-color="#1B1440"/><stop offset=".819" stop-color="#ED1E79"/></linearGradient><path fill="url(#a)" d="M64.332 174.666h115.723c15.37-15.03 24.92-35.982 24.92-59.178 0-45.72-37.062-82.782-82.78-82.782-45.72 0-82.783 37.063-82.783 82.782 0 23.196 9.55 44.15 24.92 59.178z"/><circle fill="#E2E2E2" cx="123.797" cy="116.049" r="39.125"/><circle fill="#AAA" cx="131.095" cy="89.809" r="6.365"/><circle fill="#AAA" cx="132.13" cy="103.472" r="4.606"/><circle fill="#AAA" cx="141.911" cy="98.142" r="4.037"/><path fill="#6FB344" d="M46.833 185.166c19.94-23.867 34.775-59.08 75.058-59.08 47.14 0 70.26 45.8 92.61 62.414"/><path fill="#75451D" d="M85.792 144.79h4v23.376h-4z"/><path fill="#4F3014" d="M86.792 144.79h4v23.376h-4z"/><path fill="#75451D" d="M177.042 144.79h4v23.376h-4z"/><path fill="#4F3014" d="M178.042 144.79h4v23.376h-4z"/><path fill="#ED1F24" d="M65.897 140.285h129.71v9.668H65.897z"/><path fill="#4C8C22" d="M37.5 163.166l8.667 10.334 1.666-12 3 11.666 2.668-8.334 5.34 8 4.34-6.332 3.67 8.332 4.67-5 3.34 5.334 4-5 7.34 5.666 5-2.666 2 4 5.33-4.666 6 5.666 5-4.334 7.34 5.334 6-5.334 8.34 3.668 5.34-5.334-.33 10 3.33-11.334 3.67 10 2.72-11.568 6.62 6.568 4.74-5.207 1.6 11.207 5.99-8.275 2.19 5.074 4.16-4.79 4.34 5.34 3-9 7.67 10.34 6.34-8.33 2.33 10 6.33-9.33 5 4 3.66-2.33 4 7.34 3.67-8.66 1 9.67 5-7.33-2.67 12.42-175.34.67"/><path fill="#B20F1B" d="M95 145.584s-1.05 2.656-.302 4.37h8.565l.07-.038-5.104-9.63h-3.88c-.37 1.267-.35 2.997.65 5.298z"/><path fill="#75451D" d="M88.042 190.29l-4.166-1.27v-19.727h4.166"/><path fill="#4F3014" d="M92.167 190.104L88 190.29v-20.997h4.167"/><path fill="#75451D" d="M104.417 194.416l-4.166-1.27v-19.728h4.17"/><path fill="#4F3014" d="M108.542 194.23l-4.166.186v-20.998h4.166"/><path fill="#B20F1B" d="M170.167 142.5c-.66 2.148-.99 5.768 1.44 7.453h8.845c.744-.162 1.215-.287 1.215-.287l-4.112-9.38h-7.253c.107.638.115 1.402-.135 2.214z"/><path fill="#75451D" d="M181.875 190.29l-4.167-1.27v-19.727h4.167"/><path fill="#4F3014" d="M186 190.104l-4.167.187V169.3H186"/><path fill="#75451D" d="M198.25 194.416l-4.167-1.27v-19.728h4.167"/><path fill="#4F3014" d="M202.375 194.23l-4.167.186v-20.998h4.167"/><path fill="#ED1F24" d="M65.897 153.277h129.71v9.668H65.897z"/><path fill="#A8170C" d="M82.455 170.94l-16.542-2.577v-1.812l16.542 2.58"/><path fill="#93100C" d="M212.18 170.94l-129.728.01v-1.85l129.736.162"/><path fill="#ED1F24" d="M212.227 169.29H82.515l-16.618-2.72h129.71"/><path fill="#B20F1B" d="M101.667 153.334l-.312-.057H97.9c-.22 1.447-.61 5.006.85 5.14 1.833.167 4.833-.167 4.833-.167s-1.166 1.75.834 1.75 6.083-1.25 5.916-5c-.03-.664-.183-1.23-.408-1.723h-8.17l-.088.057zm24.28-3.38l1.17-9.67h-10.815l-.3.05s-1.798 4.24-2.872 9.62h12.817zm-.4 3.323h-12.95c-.393 3.246-.383 6.656.482 9.668h11.29l1.17-9.668z"/><path fill="#A8170C" d="M101.187 174.266l-16.54-2.578v-1.813l16.54 2.578"/><path fill="#93100C" d="M230.91 174.266l-129.727.007v-1.85l129.737.16"/><path fill="#ED1F24" d="M230.958 172.613H101.246l-16.616-2.72h129.71"/><path fill="#B20F1B" d="M112.542 169.854s10.438-2.813 14.375 2.938l4.375.125-6.5-7.375s-18.75-.375-16.375 2.875 4.125 1.437 4.125 1.437z"/><path fill="#B20F1B" d="M106.917 167.916s-3.5 3.5 0 4.875l1.875 1.63h9.75l-6.625-5.5-5-1z"/><path fill="#FFF" d="M157.016 195.346c.085-.094.16-.195.24-.293-2.425.475-4.872-.06-4.872-.06-3.803 1.415-2.743 2.3-2.743 2.3l19.65 4.426c2.13 3.18 3.72 0 3.72 0 2.66 3.18 3.37.17 3.37.17 1.06 2.12 3.44 0 3.44 0 .96-7.08-22.78-6.55-22.78-6.55z"/><path fill="#FFF" d="M146.547 165.908l.507.06c.31.046.764.116 1.342.204 1.143.19 2.75.547 4.653 1.16 1.89.625 4.09 1.578 6.2 3.238 1.04.84 2.03 1.895 2.8 3.162.78 1.26 1.26 2.742 1.48 4.21.1.548.2 1.386.23 2.052.04.693.03 1.39 0 2.076-.07 1.377-.31 2.717-.64 3.973-.66 2.52-1.64 4.707-2.57 6.457-.93 1.75-1.73 3.13-2.15 3.977-.22.424-.32.713-.34.83-.03.133 0 .107-.01.123l-5.81-1.857c0 .02.11-.31.31-.707.2-.418.51-.885.85-1.39.69-1.02 1.67-2.187 2.65-3.636.97-1.447 2.02-3.143 2.7-5.094.34-.975.6-2 .74-3.06.07-.53.12-1.067.13-1.61.02-.57.01-.973-.05-1.654-.1-.992-.37-1.934-.85-2.773-.47-.85-1.11-1.61-1.86-2.26-1.5-1.31-3.37-2.1-4.99-2.65-1.64-.55-3.09-.78-4.09-.94-.5-.07-.9-.1-1.16-.12l-.38-.02.26-3.77z"/><path fill="#D0D2D3" d="M169.772 121.592s4.664-8.48-3.992-5.535c-8.657 2.945 3.992 5.535 3.992 5.535z"/><path fill="#FFF" d="M124.453 125.725c1.578-9.32 11.406-16.5 23.303-16.5 12.997 0 23.53 8.567 23.53 19.135 0 10.568-10.534 19.137-23.53 19.137-.488 0-.97-.016-1.453-.04-.52 2.27-.956 5.794.617 7.927 0 0 10.794 8.07 5.288 15.738.007-.057 1.417-13.436-8.883-15.82l1.87-8.426s-3.894-.916-8.44-2.924v10.557s10.868 12.68 4.715 21.27c-10.762-.33-32.418-6.09-17.017-50.07z"/><path fill="#D0D2D3" d="M136.756 154.508V143.95c4.546 2.01 8.438 2.925 8.438 2.925l-1.87 8.426c10.3 2.39 8.89 15.77 8.884 15.82-1.074 1.5-1.615 2.01-4.135 3.41 0 0-3.396 1.36-6.604 1.26 6.15-8.59-4.72-21.28-4.72-21.28z"/><ellipse fill="#D0D2D3" cx="151.291" cy="128.781" rx="19.996" ry="15.17"/><ellipse fill="#FFF" cx="161.503" cy="125.373" rx="7.816" ry="7.705"/><ellipse fill="#FFF" cx="143.325" cy="125.548" rx="9.648" ry="9.585"/><path fill="#6C6F71" d="M150.537 142.143s.512-1.545 2.102-1.414c0 0-.43-.47-2.11-1.18 0 0 1.48.14 2.5.95 0 0 3.73.34 2.65-2.73 0 0 2.09 3.66-2.88 3.24 0 0-1.23.23-2.28 1.13z"/><path fill="#BE1E2D" d="M154.61 137.354s1.194 1.447-1.09 2.207c0 0-1.297.54-3.076-1.38 0 0 9.907-4.49 4.166-.82z"/><path fill="#6C6F71" d="M154.958 134.27l-.26 1.64s-5.12 3.747-6.322.782l.447-1.148-1.537 1.97.922-.57s-.14 3.638 6.544-.583c0 0 3.077-1.23.364.67 0 0 4.506-2.04.14-1.28l.172-1.26-.47-.21z"/><path fill="#1D8FCD" d="M157.338 133.475s-1.738-3.54-2.38-1.67c0 0-1.438-2.104-1.438 1.273 0 0 1.362.93 1.438 2.055 0 0 1.408-.567 2.38-1.658z"/><path fill="#FFF" d="M154.958 134.27s-.088-.477-.763-.953c0 0 .25-.917.763.953z"/><circle fill="#0071BC" cx="141.572" cy="125.599" r="7.471"/><path fill="#0F4481" d="M142.11 127.48c1.387-1.605 1.213-4.025-.39-5.413-1.603-1.385-4.024-1.212-5.413.392-1.385 1.6-1.21 4.02.39 5.41 1.604 1.38 4.027 1.21 5.412-.39z"/><path fill="#FFF" d="M139.875 126.303c.738-.852.644-2.14-.208-2.875-.85-.736-2.138-.646-2.875.207s-.643 2.14.208 2.877c.853.736 2.138.642 2.875-.21z"/><circle fill="#FFF" cx="142.979" cy="124.441" r=".993"/><circle fill="#0071BC" cx="160.399" cy="125.468" r="6.202"/><path fill="#0F4481" d="M160.846 127.03c1.15-1.333 1.006-3.342-.323-4.494-1.33-1.15-3.342-1.006-4.495.325-1.15 1.33-1.005 3.35.326 4.5 1.328 1.15 3.34 1.01 4.492-.32z"/><path fill="#FFF" d="M158.99 126.053c.612-.708.535-1.775-.173-2.387-.705-.61-1.774-.536-2.387.172-.61.708-.534 1.776.173 2.39.707.608 1.775.532 2.386-.175z"/><circle fill="#FFF" cx="161.567" cy="124.507" r=".825"/><path fill="#A8170C" d="M64.74 153.277H66v9.617h-1.26zm0-13.043H66v9.62h-1.26z"/><path fill="#919496" d="M126.854 123.73s-.375-4.5 3.25-6c0 0-4.938-1.814-5.75-.69s-1.25 4.002 2.5 6.69z"/><path fill="#D0D1D2" d="M108.458 149.238s2.498 2.432 3.85 2.432.81 4.186-2.702 2.498"/><path fill="#FFF" d="M98.913 144.893s-2.447 2.61.164 5.223c2.61 2.61 2.12 4.732 2.12 4.732s-1.142 2.938.98 2.938 3.918-1.14 3.265-4.732c0 0 2.448 2.773.815 4.732-1.63 1.957 4.243 3.264 4.733-2.285.49-5.54-5.386-11.26-7.997-11.26"/><path fill="#D0D2D3" d="M131.397 116.58s.23 1.967-1.6 2.24c0 0-8.954-2.924-2.42 4.935 0 0 .73 1.188-.777 2.238 0 0-6.03-5.16-4.11-9.09 0-.002 1.46-4.297 8.907-.322z"/><path fill="#FFF" d="M128.07 168.05l-.622-.104-1.818-.27c-1.573-.204-3.838-.468-6.527-.58-1.34-.046-2.793-.044-4.268.073-.734.06-1.48.15-2.182.3-.695.14-1.377.36-1.822.61-.22.12-.36.25-.41.32-.03.02-.04.07-.03.05l-.06.15c.01 0 .02-.02.02-.03l.01-.03c.01-.04 0-.17-.04-.28-.04-.12-.1-.18-.1-.18s.23.15.53.26c.61.23 1.46.42 2.32.59.91.16 1.82.33 2.73.49 1.88.38 3.87.74 5.92 1.85 1.01.55 2.09 1.41 2.78 2.67.17.31.32.63.43.96l.08.25.07.25.09.32c.12.42.23.84.32 1.35.39 1.95.58 3.61.73 5.28.14 1.64.26 3.18.35 4.6.17 2.84.25 5.2.31 6.86l.09 2.62c.05 1.66-1.25 3.05-2.92 3.1-1.66.05-3.05-1.26-3.1-2.92 0-.14 0-.28.02-.42l.01-.05.08-.64c.05-.43.11-1.05.17-1.85.14-1.6.29-3.89.36-6.63.04-1.37.06-2.85-.01-4.4-.04-1.53-.16-3.23-.37-4.71-.03-.35-.12-.79-.22-1.23l-.06-.33-.02-.08-.01-.04c.01.03-.02-.1.02.06v-.01l-.02-.07c-.02-.1-.06-.18-.1-.27-.17-.33-.53-.7-1.11-1.03-1.16-.68-2.88-1.1-4.63-1.45l-2.74-.54c-.95-.21-1.91-.4-3.02-.83-.54-.23-1.15-.5-1.82-1.11-.33-.31-.67-.74-.88-1.28-.22-.54-.27-1.13-.23-1.61.03-.26.07-.44.13-.69l.11-.35.06-.15c.18-.44.38-.79.63-1.11.5-.64 1.07-1.05 1.6-1.35 1.08-.61 2.07-.87 3.01-1.08.94-.2 1.83-.31 2.69-.38 1.71-.15 3.28-.14 4.73-.11 2.89.07 5.25.3 6.91.48l1.93.22.7.1c1.18.16 2.01 1.25 1.85 2.43-.16 1.18-1.25 2.01-2.43 1.85l-.06-.01-.05-.01zm14.23 29.02c.058-.064.106-.13.163-.195-2.133.232-2.88-.707-4.546-.96-5.833 1.835-4.242 3.43-4.242 3.43l22.975 5.177c2.482 3.727 4.342 0 4.342 0 3.1 3.727 3.936.207 3.936.207 1.238 2.48 4.018 0 4.018 0 1.116-8.28-26.646-7.66-26.646-7.66z"/><path fill="#D0D2D3" d="M160.997 203.69s-.783-3.825-6.084-1.757c0 .003 5.772-3.312 6.084 1.758zm3.76 0s-.283-3.382-2.313-2.274c0 0 1.522-.414 2.313 2.275z"/><path fill="#FFF" d="M133.547 165.908s.185.02.53.063c.33.05.803.12 1.4.22 1.196.2 2.875.58 4.864 1.24 1 .34 2.06.77 3.15 1.35 1.09.59 2.22 1.3 3.28 2.23 1.07.93 2.03 2.13 2.73 3.53.35.7.61 1.44.81 2.2.08.39.18.75.23 1.17.05.33.11.61.14 1.03.15 1.57.07 3-.16 4.45-.24 1.43-.63 2.78-1.1 4.03-.92 2.52-2.11 4.67-3.16 6.41-1.05 1.74-1.93 3.14-2.41 4-.24.43-.36.74-.38.84-.02.08-.01.07 0 .08h.01l-5.81-1.85.09-.22c.06-.15.16-.37.27-.57.24-.45.56-.92.94-1.44.76-1.04 1.83-2.25 2.95-3.74 1.12-1.49 2.35-3.23 3.28-5.23.46-.99.85-2.05 1.11-3.13.26-1.06.39-2.24.38-3.27.02-.22-.02-.59-.05-.9 0-.22-.08-.49-.11-.74-.11-.5-.25-.98-.46-1.44-.41-.91-1.01-1.74-1.75-2.44-1.48-1.43-3.41-2.3-5.1-2.89-1.7-.6-3.22-.85-4.27-1-.52-.08-.94-.11-1.21-.13-.26-.02-.4-.02-.4-.02l.26-3.77z"/><path fill="#D0D2D3" d="M176.31 139.47s-2.416 2.29-.363 5.79c2.053 3.502-1.086 3.742.483 4.707 1.57.967 3.138-.48 3.138-2.05 0 0-1.568 5.913-.483 6.517 1.087.604 3.14 1.328 4.347-4.707 0 0 .603 3.982-.846 4.707 0 0 3.138.604 3.5-3.258.36-3.863-2.414-12.674-6.396-12.795"/><path fill="#FFF" d="M126.103 138.21l-1.565-.448c-1.008-.275-2.458-.656-4.208-1.055-3.484-.785-8.237-1.71-12.82-1.752-1.123.027-2.26.055-3.27.252-1.004.176-1.963.443-2.558.846-.62.395-.882.783-1.038 1.252-.014.14-.036.27-.07.402-.043.123.01.314 0 .46-.025.298.06.655.133.993.036.328.175.676.29 1.004.114.326.196.635.356.934.295.594.487 1.115.76 1.54l.77 1.337.078.137c.64 1.102.26 2.506-.84 3.137-1.1.63-2.5.25-3.13-.85l-.02-.04-.87-1.59c-.29-.49-.56-1.19-.9-1.94-.18-.37-.31-.82-.46-1.29-.15-.47-.31-.94-.39-1.53-.1-.56-.21-1.14-.18-1.84.02-.35-.02-.66.06-1.04.07-.37.15-.74.24-1.12.46-1.55 1.68-2.96 3.04-3.71 1.36-.81 2.75-1.11 4.1-1.33 1.36-.22 2.67-.23 3.99-.23 5.19.17 10.06 1.26 13.68 2.15 1.81.45 3.3.88 4.35 1.19l1.65.51c.99.31 1.55 1.36 1.24 2.35-.3.98-1.33 1.53-2.31 1.25l-.06-.02z"/><path fill="#D0D1D2" d="M159.954 135.89l.242-.177.67-.465c.582-.387 1.416-.922 2.475-1.484 1.07-.56 2.34-1.172 3.82-1.643 1.48-.47 3.18-.83 5.02-.7.92.08 1.87.25 2.76.64.46.16.87.43 1.29.65.38.29.8.53 1.11.86.34.31.67.63.93.97l.41.5.34.51c.23.34.43.67.58 1 .15.33.34.65.45.96.51 1.23.78 2.27.94 2.99l.24 1.14c.27 1.24-.53 2.47-1.77 2.73-1.24.27-2.47-.53-2.73-1.77l-.03-.19-.01-.14-.11-.92c-.07-.58-.22-1.4-.5-2.31-.05-.24-.17-.44-.25-.67-.08-.24-.19-.46-.31-.68l-.18-.34-.21-.31c-.13-.22-.3-.4-.47-.59-.15-.21-.37-.33-.55-.52-.22-.13-.41-.31-.66-.41-.45-.26-1.01-.41-1.6-.52-1.18-.19-2.53-.06-3.79.23-1.26.28-2.44.72-3.43 1.14-.99.42-1.8.84-2.35 1.14l-.63.36-.21.13-.04.02c-.59.35-1.35.17-1.71-.42-.34-.55-.18-1.27.33-1.65z"/><path d="M80.44 77.2L68.048 64.605l-.176-.185c-1.072-1.13-1.58-2.014-1.525-2.653.028-.32.175-.606.442-.86 1.49-1.425 3.12-2.055 4.88-1.89s3.36 1.004 4.8 2.522c.91.95 1.6 2.18 2.07 3.68.47 1.5.6 2.84.38 4 2.1-.36 4.06-.14 5.87.67 1.81.8 3.41 1.93 4.79 3.39.73.77 1.29 1.74 1.67 2.91.38 1.17.61 2.19.69 3.03.07.85-.05 1.73-.36 2.65-.32.92-.85 1.74-1.6 2.45l-.13.11c-.99.94-1.73 1.14-2.23.62l-7.23-7.9zM69.456 61.77c-.298.283-.088.802.63 1.556s1.864 1.92 3.442 3.495c1.578 1.58 2.713 2.73 3.406 3.46.426-.64.464-1.53.112-2.68-.306-.96-.647-1.84-1.023-2.64s-.6-1.31-.676-1.51l-1.067-1.13c-.59-.61-1.39-1-2.41-1.15-1.02-.15-1.826.05-2.42.62zm20.4 16.853c-.167-1.366-.748-2.573-1.743-3.62-.996-1.045-1.958-1.883-2.89-2.513-.93-.628-1.693-1.046-2.29-1.25-.595-.206-1.168-.32-1.718-.345-.67-.026-1.147.027-1.43.16l-1.124 1.068c2.87 2.806 6.23 6.24 10.1 10.302.9-1.168 1.27-2.436 1.1-3.802zm-1.164-11.39l-.784-1.46c-.07-.122-.124-.174-.16-.152l-.39-.68c-2.26-3.96-3.64-6.9-4.14-8.83-.426-1.63-.555-2.71-.388-3.25.167-.53.423-.9.768-1.1 2.926-1.67 5.785-1.34 8.576.98 1.608 1.33 3.12 3.24 4.54 5.73l.157.28 2.52 4.24c4.14 7.25 4.52 11.82 1.17 13.74-1.39.8-2.89.64-4.5-.48-1.54-1.07-2.8-2.28-3.77-3.61-1.48-2-2.68-3.79-3.58-5.37zm-.716-6.438l1.805 3.592c2.09 3.652 4.2 6.67 6.34 9.05 1.54 1.228 2.67 1.822 3.39 1.782.46-.26.76-.68.92-1.26s.17-1.24.03-1.99-.33-1.5-.57-2.28c-.25-.76-.56-1.54-.93-2.36-.64-1.41-1.23-2.59-1.77-3.54s-1.45-2.35-2.73-4.21c-1.28-1.86-2.19-3.28-2.74-4.23l-.38-.67c-.55-.91-1.32-1.56-2.31-1.95-.98-.39-1.93-.33-2.83.18-.86.49-1.15 1.3-.88 2.43.23.94.69 2.01 1.37 3.2L88 60.77zm13.697-5.287l-1.564-7.965c-.3-1.312-.03-2.472.83-3.482l.06.27c.09-.09.19-.15.28-.17.66-.15 1.75.8 3.27 2.86s2.99 4.36 4.41 6.91 2.85 5.13 4.28 7.73c1.43 2.6 2.3 4.12 2.6 4.56-.79-6.05-2.15-13.28-4.08-21.7l-.32-1.12c-.19-.84.06-1.34.77-1.5.4-.09.73.01 1.01.29.27.29.46.65.56 1.09l.73 3.21c.73 3.34 1.6 7.81 2.61 13.43s1.36 8.84 1.07 9.66c-.72.41-1.23.65-1.53.72-.3.07-.55.02-.75-.14-.21-.16-.4-.44-.6-.83-.19-.39-.34-.65-.44-.77l-.02-.19c-.24-1.05-2.02-4.15-5.34-9.3-3.31-5.15-5.67-8.68-7.06-10.58l4.89 21.35c.04.05.12.13.23.25.25.26.4.52.46.78s-.01.56-.2.88c-.2.32-.47.52-.81.6-.93.22-1.59-.54-1.98-2.27l-3.42-14.51zm22.977 13.597c.103-.77.478-1.114 1.123-1.027.322.044.732.21 1.23.498s.937.458 1.323.51c.386.053.837-.137 1.352-.567s.948-1 1.3-1.69c.72-1.42 1.16-2.73 1.32-3.93.162-1.2.125-2.52-.11-3.95-.236-1.43-.575-2.79-1.015-4.08-.44-1.29-.89-2.58-1.344-3.87-1.08-3.08-1.45-5.8-1.11-8.17.29-2.25 1.23-3.92 2.83-5 .85-.57 1.78-.79 2.81-.65.52.07 1 .28 1.46.63.45.35.74.77.88 1.26l-.86.82c-.72-.1-1.26-.32-1.63-.65-.54-.01-1.04.18-1.49.57-.83.73-1.33 1.71-1.49 2.92-.17 1.22-.17 2.42-.02 3.61.15 1.19.4 2.28.74 3.25.34.98.7 2.03 1.09 3.17.4 1.14.77 2.23 1.1 3.28.77 2.42.98 4.95.63 7.58-.24 1.85-.95 3.57-2.13 5.15-.56.76-1.27 1.34-2.12 1.76-.86.42-1.77.57-2.74.44-1.04-.14-1.84-.41-2.39-.79-.56-.39-.81-.76-.76-1.11zm14.302-10.738l.63-1.532c.052-.132.057-.206.018-.22l.28-.735c1.627-4.26 3.028-7.193 4.206-8.806.99-1.364 1.746-2.152 2.267-2.362.52-.21.965-.245 1.335-.104 3.148 1.202 4.71 3.618 4.688 7.247-.01 2.088-.524 4.47-1.546 7.14l-.113.298-1.68 4.633c-2.977 7.79-6.27 10.996-9.88 9.616-1.495-.57-2.323-1.835-2.485-3.79-.147-1.876-.014-3.614.4-5.214.607-2.42 1.233-4.477 1.88-6.17zm4.523-4.638l-1.63 3.67c-1.5 3.93-2.493 7.47-2.975 10.64.022 1.96.28 3.21.772 3.75.488.18 1.008.16 1.557-.09.54-.25 1.06-.66 1.55-1.24.48-.58.95-1.21 1.39-1.89.42-.67.83-1.41 1.23-2.21.68-1.4 1.22-2.6 1.61-3.62.39-1.02.89-2.62 1.52-4.79s1.13-3.77 1.53-4.81l.27-.72c.35-1 .36-2.01.04-3.02-.33-1.01-.97-1.7-1.94-2.07-.93-.36-1.74-.07-2.45.86-.59.77-1.12 1.8-1.61 3.09l-.88 2.41zm14.183 12.39l-4.984 7.78-.725 1.07-.7.99.47.32 1.06.66c.98.66 1.28 1.29.87 1.89-.21.3-.5.48-.89.54-.39.05-.74-.03-1.06-.24l-1.59-1.07c-1.1-.74-1.78-1.23-2.05-1.49-.21-.1-.36-.19-.47-.26-.86-.58-1.11-1.14-.74-1.68.15-.23.36-.39.64-.49.27-.11.48-.12.63-.04l1.02.69.39-.43 4.91-7.83 5.6-7.9c.93-1.37 1.74-2.7 2.44-3.99l-.69-.47-.85-.53c-.36-.23-.59-.49-.69-.76-.11-.27-.04-.59.21-.96.37-.55 1.15-.43 2.33.37l4.29 2.9c.97.65 1.29 1.23.95 1.74-.15.22-.4.35-.73.4-.34.04-.65-.02-.92-.21l-1.85-1.25c-.57 1.05-1.27 2.19-2.11 3.44l-4.83 6.75zm7.372 5.83l-3.38 3.29c-2.725 2.7-4.677 5.02-5.856 6.97l-1.174.47-.853-.86.05-.86c.944-.9 1.993-1.92 3.145-3.06 1.15-1.15 3.524-3.67 7.122-7.59 3.596-3.92 6.324-6.79 8.186-8.64.975-.97 1.802-1.11 2.48-.43 1.065 1.07 1.68 2.26 1.846 3.55.164 1.29-.277 2.45-1.322 3.49l-2.172 2.15c-.594.59-1.244 1.01-1.95 1.27-.708.26-1.475.51-2.302.76s-1.285.38-1.376.41c-.394.61-1.185 1.78-2.373 3.52-2.61 3.78-4.25 6.73-4.93 8.86-.19.61-.4 1.03-.63 1.25-.22.23-.48.35-.76.38-.28.03-.52-.06-.73-.27-.42-.43-.34-1.34.26-2.72.6-1.38 1.38-2.79 2.35-4.22 2.97-4.39 4.55-6.85 4.77-7.38l-.37-.38zm9.216-8.9l-.543.32c-.844.83-2.044 2.06-3.598 3.68-1.555 1.62-2.693 2.79-3.418 3.5.73.23 1.772-.03 3.128-.78 1.354-.76 2.313-1.42 2.877-1.97s.963-.99 1.2-1.28c.236-.3.465-.65.688-1.07.465-.86.354-1.67-.334-2.42z" fill="#FFF"/></svg>