<svg xmlns="http://www.w3.org/2000/svg" width="250" height="250" viewBox="0 0 250 250"><g opacity=".15" fill="#050505"><path d="M52.58 96.678c-.55-.27-1.225-.423-1.837-.423-.523 0-1.035.09-1.61.286-.205.07-.402.16-.59.26-.22-.56-.473-1.18-.758-1.86-.872-2-1.48-3.33-1.862-4.07-.404-.78-1.05-1.4-1.817-1.77-.247-.19-.488-.35-.79-.5-.76-.37-1.583-.56-2.446-.56-.32 0-.645.03-1.066.1-2.058.39-3.476 1.35-4.208 2.84l-.073.16c-.187.24-.365.51-.516.82-1.026 2.09-.86 4.47.462 7.09-1.31.48-2.32 1.46-2.78 2.8-.29.83-.39 1.56-.37 2.19-1.21.47-2.16 1.44-2.59 2.69-.36 1.02-.61 2.94 1.2 5.07-1.4.75-2.15 2.02-2.38 3.18-.17.86-.16 1.59-.05 2.22-1.13.64-1.93 1.72-2.19 3.03-.21 1.08-.18 3.07 2.03 4.95-.32.21-.62.44-.87.73-.61.7-1.12 1.55-1.56 2.59-.44 1.04-.43 2.21.04 3.23.06.13.12.26.19.38l.02.17c-.11 3.32 2.35 5.72 3.94 6.98-.51.44-1.01.94-1.48 1.51-.11-.1-.22-.2-.33-.31-.43-.78-1.11-1.39-1.91-1.75-.2-.11-.52-.3-.98-.57-1.58-.93-2.68-1.31-3.8-1.31-.16 0-.39.01-.55.03-.64.08-1.25.31-1.77.67-1.4.72-2.93 2.19-3.7 5.16-.48 1.7-.63 3.36-.44 4.94 0 .03.04.32.05.39-.56.87-.98 1.93-.83 3.22.34 2.92 3.17 3.9 5.27 4.62 2.03.68 3.08.92 3.88.97l13.17 1.94c.19.03.39.04.58.04.12 0 .24-.01.37-.02.22-.01.69-.01 1.47-.02.42-.01.78-.02 1.09-.04.12.03.24.05.36.07.2.04.41.05.62.05.22 0 .45-.02.67-.06.27-.01.55-.05.82-.12.26-.07.52-.16.77-.28.12-.01.25-.03.38-.06 1.13-.22 2.07-.9 2.64-1.82.48-.66.77-1.47.77-2.35 0-1.29-.61-2.45-1.58-3.19.08-.63.07-1.32-.01-2.07.01-.25 0-.52-.03-.78-.04-.32-.11-.64-.21-.97 0-.19-.02-.38-.04-.56-.05-.4-.15-.77-.29-1.12-.1-.31-.22-.6-.35-.86-.06-.28-.14-.54-.25-.79-.17-.55-.44-1.02-.69-1.41l-.03-.04c-.18-.41-.45-.77-.75-1.09.6-.48.99-1.04 1.24-1.56.64-.9 1.26-1.98 1.33-3.29 0-.11.01-.44-.02-1l-.02-.33c.01-.41-.04-.81-.14-1.19v-.02c-.01-1.23-.55-2.2-1.59-3.78.94-.69 1.53-1.67 1.72-2.67l.12-.58c.24-1.24-.08-2.3-.78-3.39.59-.08 1.17-.3 1.67-.64l.27-.18c.88-.59 1.49-1.51 1.7-2.55.1-.51.11-1.04.04-1.6-.05-.69-.27-1.37-.66-1.96-.03-.04-.07-.07-.1-.11l.12-.36c.42-1.2.26-2.29-.28-3.47h.01c.6 0 1.19-.13 1.74-.4l.29-.14c.96-.46 1.69-1.28 2.04-2.29.17-.49.26-1.01.27-1.59.04-.61-.06-1.22-.29-1.8.47-.28.91-.62 1.27-1.04.41-.35.75-.77.99-1.25.51-.62.81-1.39.88-2.2.19-.75.17-1.54-.09-2.29-.21-.61-.71-2.05-2.28-2.82zm-17.982 51.98c.124-.384.33-.762.52-1.064.054-.088.106-.168.156-.24.082.088.163.17.243.25.137.27.294.53.46.808.028.05.055.094.08.134.043.117.092.232.145.344l.01.058c-.564-.103-1.102-.2-1.614-.29zm45.196-98.01c.76 0 1.5-.19 2.2-.558 1.177-.625 1.998-1.657 2.308-2.907.19-.77.27-1.97-.444-3.317-.85-1.602-2.437-2.56-4.247-2.56-.52 0-1.07.085-1.61.25-1.68.514-2.83 2.072-2.83 3.834 0 .896.05 1.777.53 2.688.85 1.61 2.39 2.57 4.1 2.57z"/><path d="M99.19 50.065l-.13-.34c-.578-1.513-1.976-2.473-3.494-2.566.024-2.37.044-3.43.058-3.87.12-2.96.42-5.67.894-8.05.242-1.22-.098-2.44-.853-3.35l-.276-.41c-1.33-1.85-3.03-2.13-3.92-2.13-.3 0-.6.03-.89.09-.74.15-1.43.5-1.97 1.02-1.67 1.58-2.39 4.31-2.74 10.42-.12 2.18-.17 5.04-.17 8.45-.02 1.73-.02 2.43-.02 2.77l-.81.73c-.15.13-.34.31-.55.53-.51-.45-1.13-.77-1.82-.92-.33-.07-.68-.1-1.06-.1s-.83.03-1.41.1c-.49.06-.97.2-1.4.44-1.62.86-2.09 2.3-2.22 3.56-.32-.06-.64-.1-.97-.1-.7 0-1.42.13-2.14.4-.53.19-.99.48-1.38.85-.19-.1-.37-.18-.53-.25-.7-.31-1.36-.45-2.04-.45-.88 0-1.72.25-2.42.74-2.02 1.38-2.31 3.66-2.11 5.73-.25-.51-.47-.99-.68-1.42l-1.47-3.93-.04-.16c-.07-.77-.36-1.5-.82-2.1-.02-.07-.05-.14-.07-.21.02-.78-.18-1.55-.6-2.22l-.05-.08c-.52-1.45-1.84-2.52-3.45-2.65l-.35-.03c-.11-.01-.22-.02-.32-.02-1.24 0-2.41.57-3.17 1.56-.81 1.05-1.08 2.38-.78 3.69l-.08.61c-.04.31-.04.63-.01.95l.15 1.31c.02.16.05.32.09.48.03.15.06.3.11.45l.37 1.22c-.12-.07-.24-.14-.37-.21-.09-.05-.19-.09-.28-.13-.71-.3-1.41-.45-2.1-.45-1.19 0-2.31.45-3.14 1.26-.61.59-2.21 2.15-1.85 4.47.03.24.09.48.18.71.84 2.41 1.51 4.13 2.04 5.28l3.53 6.94c.11.23.25.44.41.64.27.54.63 1.12 1.1 1.76.31.59.61 1.11.91 1.57.06.2.14.4.23.59.09.2.2.38.33.55.13.19.27.37.44.53l.13.13c.05.09.11.17.16.25l.03.07c.2.59.53 1.12.98 1.57.2.4.45.77.8 1.13.82.83 1.93 1.3 3.11 1.31h.05c1.7 0 3.22-1.08 3.78-2.69.36-1.05.42-2.2.18-3.42-.08-.44-.24-.85-.47-1.24-.04-.12-.1-.24-.16-.36.56.14 1.11.22 1.65.22 1.5 0 2.92-.58 4-1.63 1.27-1.24 1.39-2.72 1.18-3.96 1.06.57 2.07.71 2.74.71 1.09 0 2.18-.3 3.22-.9.13-.08.26-.16.38-.25l.11-.08c.7-.48 1.55-1.37 1.92-2.99.43.14.94.25 1.51.25.86 0 1.69-.26 2.4-.74.28-.19.53-.42.76-.66.37-.08.73-.2 1.07-.38l.38-.2c1.38-.73 2.21-2.21 2.12-3.78-.05-.71-.08-1.28-.12-1.73.11.22.23.43.37.62.33.66.82 1.19 1.41 1.57.25.19.53.36.83.5.52.23 1.08.35 1.64.35.48 0 .96-.09 1.42-.26l.44-.17c.99-.38 1.79-1.14 2.23-2.1.21-.48.33-.99.34-1.5.09-.6.04-1.21-.14-1.79.07-.39.09-.78.05-1.18l-.26-2.43c.02-.29.03-.59.03-.92 0-.08-.01-.16-.01-.24l-.05-.71c.35-.19.67-.42.95-.69.16-.11.3-.23.44-.36.31-.25.55-.52.91-.98 1.52-1.04 2.14-2.99 1.48-4.73z"/></g><circle opacity=".15" fill="#050505" cx="131.833" cy="139.749" r="82.917"/><path fill="#FFF" d="M125 221.967c-48.065 0-87.168-39.104-87.168-87.168 0-48.07 39.104-87.17 87.168-87.17 48.064 0 87.168 39.1 87.168 87.17 0 48.06-39.104 87.16-87.168 87.16z"/><linearGradient id="a" gradientUnits="userSpaceOnUse" x1="124.999" y1="78.627" x2="124.999" y2="270.061"><stop offset="0" stop-color="#1B1440"/><stop offset=".819" stop-color="#ED1E79"/></linearGradient><circle fill="url(#a)" cx="125" cy="134.799" r="83.168"/><path fill="#FFF" d="M116.684 205.94s-.505 9.288 16.496 11.622c8.195-.8 16.037-2.8 23.36-5.803 2.468-2.36 3.606-4.98 3.135-7.1-1.28-5.76-42.99 1.28-42.99 1.28z"/><path fill="#FFF" d="M120.688 217.855c1.428.074 2.865.11 4.312.11 5.3 0 10.474-.517 15.496-1.462l.05-5.127-21.208-.768 1.35 7.247z"/><path fill="#D0D1D2" d="M120.937 201.4s-.41 7.496 13.35 9.344c13.763 1.85 22.183-5.75 21.155-10.37-1.027-4.622-34.505 1.026-34.505 1.026z"/><path fill="#FFF" d="M153.02 181.244c-7.257-6.006-4.126-29.557-4.126-29.557l-24.245 1.908s8.41 15.557 1.24 31.232c-7.36 16.084-9.14 20.053 16.37 18.426 4.83-.705-3.51-1.06 1.02-2.56 15.65-7.916 15.54-14.638 9.72-19.45z"/><path fill="#D0D1D2" d="M145.172 157.04s-2.757 16.083 7.12 26.65c9.88 10.563-15.85 14.93-15.85 14.93l-6.948-12.407s5.57-18.604.746-27.563l14.932-1.61z"/><path fill="#1F4AB5" d="M126.31 162.9l10.565 4.024 2.808 40.615-24.807-.14"/><path fill="#1F4AB5" d="M150.26 161.512l-9.572 5.1-1.79 40.697 23.79.09M133.156 75.11s-40.464 46.254-18.968 94.365l-11.516 2.045s-37.49-37.873-23.16-71.652"/><path fill="#0F3C96" d="M78.554 108.888s-.192 33.78 25.334 54.506l5.374.193 2.88-.18-2.304-8.65s-23.223-49.9-31.284-45.87z"/><g fill="#6593EF"><path d="M116.46 172.322c-.137-.64-.63.217-.448-.586l-.117.184c.05-.383.084-.77.084-1.168 0-.06-.01-.115-.01-.172.07-.182.03-.465-.04-.723-.04-.428-.13-.842-.23-1.248l.12-.01c-.08-.05-.14-.15-.19-.25-.03-.09-.05-.19-.08-.28 0-.07.02-.13.06-.17.3-.05.27.48.36.69-.21-.93.36-1.18-.21-1.87l-.03.17c-.49-.35-.36-1.02-.6-1.43.12.08.24.03.26-.06-.83-.7-1.29-1.67-2.37-2.26l-.07-.51-.17.2c-.53-.27.12-.4-.22-.59.13.07.08.09.07.16-.45-.6-.47.01-.76-.24.02.32.59.43.24.66-.42-.56-1.4-.93-1.26-1.53-.67-.07-1.33-.36-2-.57-.69-.15-1.36-.34-1.92-.4-.15.12.09.08.03.17-.45-.33-1.43.39-1.46.07-.2.11-.24.36-.28.45-.3-.15-.63-.08-.98-.04l.27.02-.02.05-.38-.02V161c-.42.1-.9.19-1.33.37-.42.19-.85.34-1.3.39.52-.04.1.39.36.4-.65-.31-1.43.37-2.02.92.08.074.09.18.22.18 0 0-.5.134-.49.153l.13.04c-.42.69-1.53 1.01-1.59 1.655.22-.27.31-.205.48-.13-.31.493-.57.972-1.04 1.52.04-.02.09-.03.12-.01-.06.17-.25.32-.36.48l.23.11c-.22.29-.23.76-.55 1.11.18.2-.47.94-.39 1.464-.08.18.34-.37.27.14-.57.03-.08.67-.69.696-.02 0 .22.48.23.47l-.3.11c.6.37-.2.64.05 1.24.06-.04.07-.11.12-.082-.04.2-.03.66-.22.34-.03.34.24 1.43.38.88-.16.07-.15-.4-.14-.6.26-.03.3.45.61.49-.03.02-.05.09-.08.14l.17.02c-.08.64.23 1.17.12 1.69.08-.01.19.052.27.24l-.29.16.32.57.27-.495c.39.56.18 1.28.53 1.78.52-.24.55 1.07 1.3 1.05-.01.01-.23-.4-.22-.41.62.74.98.55 1.54 1.26-.7-.33-.62-.39-1.79-.82 1.02.55 1.29 1.61 2.44 1.81 0-.15-.19-.34.1-.34.04.35.85.45.58.68.34.05.5-.19.69-.16l.89.7-.02-.07c.98-.03 1.75.14 2.6.4.42.16.85.25 1.3.25.45.02.91-.01 1.36-.15l-.07-.16c0 .02.51.17.51.15-.39-.06.11-.25.09-.41l1.25.01c-.03-.15-.21-.45-.46-.31.36-.3.94-.08 1.29-.27l-.18-.08.4-.07-.1-.19c.61-.23 1.22-.76 1.57-.66l-.26-.24.7-.21-.45.06c.55-.52 1.6-1.08 1.67-1.26l-.14-.03c.03-.14.15-.15.27-.23l-.21-.05c.38-.42.54-.76.7-1.09.13-.36.25-.73.64-1.23.12-.32-.15.14-.25.1-.05-.24.28-.54.41-.6-.33-.03-.48.44-.52 0 .26-.17-.34.05-.07-.34 0 .01.42-.02.42-.02.02-.28-.27-.16-.11-.54.3-.4.24.72.53-.02.07-.41-.56-1.01-.28-1.66zm-18.927 3.192l-.106-.25c.103.105.275.132.106.25zm.842-1.192c-.047-.168-.1-.2.1-.258.056-.11-.088-.2-.032-.31.268.254-.047.348-.068.568zm17.123-6.45c.01-.02.038-.028.04-.052-.004.057 0 .115.004.172-.012-.04-.03-.078-.044-.12zm-.307-1.32c-.02.222.62.628.32.964.01-.004-.18-.453-.2-.443.04.184.08.36.09.525-.11-.297-.23-.588-.38-.87.03-.054.07-.12.18-.175zm-.75-1.28c0-.167-.18-.382-.02-.522.43.135.29.504.41.72l-.17-.044c.07.29.03.47-.02.61-.04-.064-.07-.128-.11-.19.01 0 .02-.01.03-.01-.21-.333-.52-.84-.43-1.226.35.076.19.69.34.663zm-.88-1.46l-.06.313-.24-.227.31-.087zm-.11.56c.07.12.13.237.19.356-.28-.313-.58-.615-.91-.885-.05-.164-.09-.338-.3-.39v.157c-.09-.068-.18-.14-.27-.203 0-.033-.02-.104-.08-.252.53.283.99.74 1.39 1.216zm-3.29-2.106l.13-.098.18.074-.3.024zm-1.23-.41c.07.062.14.132.2.198-.28-.068-.57-.123-.86-.164-.02-.023-.05-.045-.08-.07.22-.226.49-.154.74.037zm-2.15-.567c.35-.38 1.05.69.89-.24.15.12.6.4.42.54-.37-.07-1.09-.11-1.35.13.02-.06.01-.13-.03-.19.15.04.36-.02.46-.08-.05-.15-.28-.11-.37-.18zm-.97.52c.03.02.07.03.1.06-.17.02-.35.05-.52.08.09-.1.33-.13.42-.14zm-3.32-.06l.2.02c-.31.32-.18.1-.19-.02l-.23-.02c.18-.08.23-.05.24.02zm.04.35c-.19.13-.7.46-.64.4-.05-.19.46-.44.64-.41zm-.41 1.15l-.01.01c-.12-.01-.23-.04-.27-.15.27-.06.22.08.29.13zm-2.05 1.43c.32-.12.11-.24.18-.4l.14.27c-.4.22-.55.13-1.05.19.18-.46.62-.25.73-.08zm-.85-.26c-.03.28.28.56-.26.56l.26-.56zm-1.01 7.8l.06.36c-.08 0-.16.01-.3 0 .13-.12.2-.25.24-.37zm.29 4.25c-.02-.13-.04-.2-.1-.27-.08.12-.11.45-.24.31.06-.2-.11-.6.07-.71-.01.45.62.35.28.66zm.55-1.29c.08-.07.11-.15.11-.22.02.04.05.08.07.12-.03.04-.07.09-.17.1zm1.67 3.06l.06-.2.08.03-.18-.32c.52.08.45.66.59.89-.15-.15-.28-.87-.54-.41zm1.39-.05l.05.03-.01.04c-.02-.02-.02-.05-.04-.08zm1.52 2.19c.23.23.45-.11.57.33-.37.22-.46-.16-.57-.33zm.85.09c.46.02-.12-.4.19-.42l-.22-.04c.41-.13.19.33.46.34l-.18-.01c-.18.17.23.22.23.4-.22.03-.65-.28-.47-.27zm4.23-.74c.06-.05-.03-.15-.16-.2.14-.03.28-.05.42-.08.01.11-.14.12-.25.27zm4.82-1.23c.1-.31.16-.28.34-.35.02.1-.15.27-.34.34zm.43-.17c.19-.46.47-.06.68-.25-.11.42-.38.06-.67.24zm1.6-4.65c-.02.01-.04 0-.06 0 .03-.09.07-.17.09-.25.04.01.07.04.09.11l-.11.13zm.98-4.56c-.01.26-.21.23-.07.5l.07-.5z"/><path d="M116.146 169.398l-.03-.27-.122.27m-19.086 4.152l-.133-.017c.054.13.097.088.133.018zm.092-5.24c.02-.022.03-.036.047-.054-.03-.03-.077-.055-.147-.068l.1.12zm.07 7.262c.07-.11.11-.215.136-.313-.098.01-.17.13-.137.31zm.343-8.79c.05-.085.116-.15.175-.226-.075.034-.173.1-.175.227zm6.77-5.76l-.01.03.12-.026"/></g><path fill="#FFF" d="M131.25 168.506l-.422.674c-.27.436-.706 1.098-1.162 1.887-.95 1.568-2.293 3.975-3.847 6.877-1.57 2.908-3.35 6.363-5.46 10.06-1.05 1.847-2.19 3.755-3.5 5.665-1.31 1.9-2.73 3.84-4.6 5.65l-1.51 1.31c-.57.41-1.14.82-1.75 1.2-1.29.71-2.74 1.36-4.41 1.54-.41.04-.82.09-1.23.11l-1.24-.1c-.85-.04-1.58-.3-2.33-.53-1.46-.51-2.71-1.24-3.75-2.03-2.11-1.58-3.64-3.33-4.91-5-1.31-1.67-2.33-3.31-3.26-4.82-1.8-3.04-3.08-5.61-3.94-7.42l-1.34-2.85 7.6-3.25 1.14 2.71c.73 1.72 1.83 4.15 3.3 6.91.76 1.35 1.59 2.81 2.57 4.19.96 1.39 2.09 2.72 3.27 3.69 1.21 1 2.28 1.42 3.29 1.34 1.03-.03 2.46-.77 3.84-2.01 1.38-1.22 2.69-2.81 3.91-4.45 1.23-1.65 2.37-3.38 3.44-5.11 2.15-3.44 4.07-6.81 5.78-9.69 1.7-2.89 3.16-5.27 4.29-6.98.55-.86.98-1.46 1.28-1.89l.45-.66 4.44 2.93z"/><ellipse transform="rotate(90.1 133.6 124)" fill="#FFF" cx="133.589" cy="123.967" rx="37.279" ry="46.525"/><ellipse transform="rotate(84.7 133.8 124)" fill="#D0D1D2" cx="133.836" cy="123.996" rx="31.373" ry="41.126"/><ellipse transform="rotate(90.5 156.1 121.2)" fill="#FFF" cx="156.052" cy="121.152" rx="17.431" ry="17.684"/><ellipse transform="rotate(90 117.7 122.6)" fill="#FFF" cx="117.707" cy="121.588" rx="19.561" ry="19.691"/><path fill="#919396" d="M95.826 102.162c.01-.012-5.998 8.136-6.138 10.87l-1.245-2.23s-9.338-14.677 7.383-8.64z"/><path fill="#D0D1D2" d="M100.103 99.843s-9.04-6.49-15.365-2.837c0 0-8.255 6.424 2.348 17.858l2.56 3.074s2.123-1.44 1.837-4.755c0 0-12.226-14.933 5.414-9.474 0 0 2.885-.09 3.206-3.87z"/><path fill="#919396" d="M169.824 102.162c-.01-.012 5.998 8.136 6.14 10.87l1.243-2.23s9.338-14.677-7.383-8.64z"/><path fill="#D0D1D2" d="M165.55 99.843s9.038-6.49 15.364-2.837c0 0 8.255 6.424-2.35 17.858l-2.558 3.074s-2.124-1.44-1.84-4.755c0 0 12.228-14.933-5.412-9.474 0 0-2.885-.09-3.205-3.87z"/><path fill="#0071BC" d="M114.88 107.443c7.856-1.44 15.39 3.764 16.83 11.62 1.44 7.855-3.76 15.39-11.616 16.828-7.856 1.45-15.39-3.76-16.83-11.61-1.44-7.85 3.76-15.39 11.615-16.83z"/><path fill="#0F4481" d="M113.52 111.94c4.035-.738 7.906 1.934 8.645 5.97.74 4.034-1.932 7.905-5.967 8.64-4.036.743-7.907-1.93-8.645-5.963-.74-4.037 1.93-7.908 5.968-8.646z"/><circle fill="#FFF" cx="116.527" cy="118.94" r="3.948"/><circle fill="#FFF" cx="107.498" cy="119.556" r="1.922"/><circle fill="#0071BC" cx="153.564" cy="120.017" r="12.923"/><path fill="#0F4481" d="M150.02 111.327c3.607-.663 7.065 1.724 7.727 5.33.66 3.606-1.727 7.063-5.334 7.727-3.604.66-7.063-1.726-7.723-5.33-.662-3.61 1.724-7.066 5.33-7.727z"/><circle fill="#FFF" cx="152.705" cy="117.58" r="3.529"/><circle fill="#FFF" cx="144.636" cy="118.132" r="1.717"/><path fill="#D0D1D2" d="M138.69 132.11s-19.448-6.524-32.69 10.75l18.328 3.933 15.834-6.813-1.472-7.87z"/><path fill="#6D6F71" d="M130.813 139.105c.195-.053.373 1.37 1.663 2.943.596.807 1.694 1.492 2.9 1.55 1.202.067 2.553-.608 3.208-1.813l.26-.588.21-.936c.122-.56.245-1.13.367-1.68.8 4.1 1.45 4.03 2.32 4.28.2-.04.4-.03.6-.19.21-.11.42-.22.57-.4l.25-.24.18-.29c.14-.18.23-.38.3-.6.63-1.83.32-3.24.53-3.24.07-.01.2.31.3.91.1.6.17 1.5-.13 2.59-.31.97-1.05 2.14-2.57 2.36-.78.01-1.44-.45-1.89-.98-.12-.13-.23-.27-.32-.43l-.08-.13c-.01.03.03-.04-.03.07-.84 1.54-2.56 2.37-4.09 2.25-.77-.04-1.47-.32-2.05-.68-.59-.34-1.04-.82-1.39-1.31-1.29-1.88-1.16-3.41-1.07-3.39z"/><path fill="#0B8ECC" d="M139.602 133.25s-2.06-4.205-4.86 3.21l4.66 4.01 4.073-3.647c0-.003-2.614-6.884-3.873-3.573z"/><path fill="#FFF" d="M135.682 136.396l2.006 1.713s-.448-2.5-2.006-1.72zm5.542 1.74l1.42-1.14s-1.044-.516-1.42 1.14z"/><path fill="#D0D1D2" d="M95.188 129.553s15.322-10.205 43.056-11.835l-7.294-20.73-14.01 1.857-12.027 4.86-6.142 7.935-3.58 17.913z"/><path fill="#D0D1D2" d="M141.762 99.868l-3.71 18.233s18.232-1.4 36.21 6.08l-.32-5.69s-1.344-8.15-3.84-9.79c-2.495-1.63-19.447-12.67-28.34-8.83z"/><path fill="#6593EF" d="M140.482 76.326s4.86-1.792 6.142 5.117 10.236 2.815 14.33 11.26c0 0 .608 1.695-.83 2.08s-28.087-8.605-73.38 31.188c-.216.19 0 0 0 0s-5.886 1.79-4.607-6.91c1.28-8.7-6.717-7.99-2.624-12.85 3.93-4.66 34.545-26.09 58.06-29.53.984-.14 1.954-.26 2.91-.34z"/><path fill="#1F4AB5" d="M142.273 78.117s-2.56-8.19-11.516-6.91c-8.956 1.28-49.133 9.47-52.204 32.5 0 0 1.792 5.117 3.327 5.374 1.537.26 60.393-30.96 60.393-30.96z"/><path fill="#6D6F71" d="M132.602 139.24c0-.002-.25.01-.592.053-.174 0-.37.043-.574.078-.21.01-.403.1-.612.14-.16.13-.394.13-.53.26-.12.14-.336.18-.42.32-.2.25-.41.43-.41.43l-.035.03c-.06.05-.15.04-.2-.02-.03-.02-.04-.06-.04-.09 0 0 .01-.26.15-.68.05-.21.25-.4.44-.61.19-.2.47-.33.74-.46.27-.05.56-.14.82-.14.26 0 .5.02.7.06.4.08.64.21.64.21l.01.01c.11.07.16.22.09.33-.05.08-.12.12-.2.13zm7.314 7.242c-.002 0 .256-.086.6-.234.183-.055.375-.156.578-.258.217-.074.395-.23.6-.34.133-.176.374-.26.475-.44.08-.185.29-.302.33-.478.12-.326.27-.578.27-.578l.02-.037c.04-.064.12-.086.19-.047.03.02.05.055.06.09 0 0 .06.283.04.754 0 .236-.14.488-.27.76-.14.268-.38.48-.62.697-.27.15-.53.33-.8.41-.27.09-.52.15-.74.17-.44.06-.73 0-.73 0h-.02c-.13-.02-.22-.15-.19-.28.02-.09.08-.15.16-.18z"/><circle fill="#FFF" cx="84.951" cy="70.182" r="1.271"/><circle fill="#FFF" cx="160.698" cy="81.443" r="1.271"/><circle fill="#FFF" cx="62.021" cy="112.549" r="1.271"/><circle fill="#FFF" cx="62.021" cy="142.549" r="1.271"/><circle opacity=".3" fill="#FFF" cx="175.029" cy="86.562" r="1.588"/><circle opacity=".3" fill="#FFF" cx="129.99" cy="60.714" r="1.588"/><circle opacity=".3" fill="#FFF" cx="51.751" cy="131.215" r="1.589"/><circle opacity=".3" fill="#FFF" cx="79.084" cy="148.883" r="1.589"/><path fill="#FFF" d="M73.623 167.416c12.376 9.244 4.348-3.025 2.08-7.373-2.647-5.104 1.89-8.127 5.86-3.97 2.834 3.024 4.442 9.735 5.576 13.515 0 0 8.04-10.252 11.62-5.67 1.51 1.938 1.51 4.82-1.33 5.576-3.68 1.002-5.29 1.566-6.13 5.076 1.49 4.387-.28 6.33-2.85 7.848-2.16 1.273-4.74 2.672-7.66.877-.79-.53-1.29-1.303-1.68-2.11l-.02.03-.11-.297c-.38-.848-.91-2.414-.91-2.414-.96-2.248-2.02-3.342-5.41-3.904-2.84-.566-7.38-.38-8.7-3.78-1.89-5.484 5.86-6.23 9.64-3.404z"/><path fill="#D0D1D2" d="M87.14 169.588s-1.89 2.223-3.426 7.87c0 0 .92-4.796.542-4.94 0 .002.946-1.89 2.884-2.93"/><path fill="#1F4AB5" d="M132.294 168.463l-.353.623c-.21.396-.59 1.023-.96 1.734-.76 1.404-1.86 3.61-3.13 6.25-1.29 2.705-2.8 5.86-4.41 9.24-1.71 3.428-3.56 7.123-6.17 10.86-1.33 1.862-2.83 3.76-4.95 5.54-1.07.885-2.32 1.738-3.83 2.414-1.5.662-3.29 1.164-5.12 1.186-.46.012-.91.01-1.37-.002-.44-.035-.87-.11-1.31-.182-.43-.076-.86-.16-1.29-.252-.39-.117-.76-.252-1.14-.387-.76-.27-1.51-.566-2.1-.916-.6-.33-1.28-.68-1.79-1.05-1.02-.73-2.03-1.48-2.77-2.21l-1.16-1.09-.97-1.06c-.31-.34-.62-.69-.92-1.02-.26-.33-.52-.66-.77-.97-.49-.63-1-1.24-1.39-1.81-.77-1.13-1.51-2.13-2.01-2.95l-1.61-2.57 14.01-7.21 1 2.23c.31.72.74 1.48 1.21 2.43.23.48.51.89.78 1.38l.43.73.46.67c.16.23.32.47.48.71l.48.61c.33.47.64.73.95 1.08.61.56.88.73.89.85 0 .15.55.24 1.58-.38 1-.57 2.2-1.64 3.35-2.86 2.33-2.49 4.54-5.65 6.58-8.65l5.58-8.49c1.67-2.54 3.09-4.61 4.2-6.13.54-.77.95-1.26 1.23-1.65l.43-.57 5.95 3.93z"/><path fill="#0F3C96" d="M126.343 164.535l2.274 3.42 3 .25-2.125 3.75 9.425 11.885-2.073-18.354-10.535-2.586m24.16.368l-1.61 4.187-3.06.656 2.12 3.75-8.98 11.98 1.7-18.66 9.59-3.65"/><path fill="#E53017" d="M187.436 189.71c-3.606-6.903-14.584-24.114-29.936-13.327 0 0-19.833 2.303-30.453 14.842 0 0-5.117-.254-5.245 1.408-.085 1.11 7.81 14.584 16.495 24.264 19.47-3.13 36.67-13.02 49.14-27.186z"/><path fill="#AF1E0B" d="M157.31 176.408c-.9.12-5.003.725-10.17 2.4 4.484 4.367 14.497 14.88 20.863 27.19 2.75-1.667 5.384-3.5 7.915-5.462-4.998-7.946-12.69-19.304-18.61-24.128z"/><path fill="#1F4AB5" d="M182.82 193.963c-.303-.84-.61-1.697-.926-2.57-.57-1.748-1.435-3.496-2.226-5.27-.37-.896-.905-1.75-1.37-2.623-.5-.863-.92-1.754-1.492-2.588-1.104-1.68-2.197-3.348-3.502-4.87-.61-.778-1.236-1.536-1.947-2.23-.696-.698-1.33-1.417-2.053-2.056-.734-.623-1.46-1.236-2.166-1.836-.72-.586-1.52-1.076-2.248-1.586-.715-.52-1.503-.938-2.266-1.33-.77-.39-1.457-.813-2.243-1.072l-2.17-.807c-.73-.19-1.43-.342-2.08-.488-.33-.068-.64-.135-.95-.197-.36-.03-.7-.063-1.03-.09-.66-.05-1.27-.078-1.81-.096-.3-.02-.48.002-.64.025-.17.02-.33.03-.48.05l-.76.09c-.41.05-.21.87-.21.87l-.1 6.33s.22.01.64.02c.21 0 .47.01.77.02l.49.01c.19 0 .37.01.45.06.23.08.47.16.73.23l.41.09.55.23 1.21.48 1.31.75c.46.21.9.62 1.37.95.47.33.95.68 1.4 1.15.45.45.95.84 1.4 1.35l1.35 1.56c.45.53.84 1.17 1.27 1.75.44.58.82 1.23 1.19 1.89.8 1.27 1.43 2.7 2.08 4.11.34.69.55 1.46.84 2.18.26.74.57 1.43.75 2.19.4 1.5.87 2.92 1.1 4.41l.42 2.13c.14.69.18 1.41.27 2.08.16 1.35.35 2.61.36 3.83l.06 1.25c4.47-2.93 8.64-6.28 12.46-9.99-.05-.15-.09-.31-.14-.46z"/><path fill="#D0D1D2" d="M127.59 194.775c-2.558-2.56-6.044.096-6.044.096-9.596 5.64 7.805 14.78 7.805 16.96s4.1 2.82 4.1 2.82.74 1.1 1.85 2.67c3.54-.43 7.01-1.07 10.4-1.94-6.43-8.18-16.36-18.85-18.1-20.59z"/><path fill="#FFF" d="M62.052 102.868s-.164-1.877-.57-2.313c-.413-.435-2.29-.706-2.29-.706s1.905-.19 2.34-.61c.422-.41.666-2.27.666-2.27s.153 1.86.553 2.29c.42.44 2.31.72 2.31.72s-1.83.14-2.26.54c-.44.41-.74 2.33-.74 2.33zm2.208 35.054s-.256-2.947-.895-3.63c-.647-.685-3.592-1.11-3.592-1.11s2.99-.295 3.672-.955c.663-.645 1.046-3.553 1.046-3.553s.24 2.922.87 3.6c.65.695 3.62 1.14 3.62 1.14s-2.88.222-3.55.843c-.7.655-1.16 3.665-1.16 3.665zm87.974-64.68s-.258-2.946-.896-3.63c-.646-.683-3.592-1.11-3.592-1.11s2.988-.293 3.672-.953c.662-.65 1.045-3.56 1.045-3.56s.24 2.92.87 3.6c.647.69 3.62 1.14 3.62 1.14s-2.885.22-3.554.84c-.71.65-1.17 3.66-1.17 3.66z"/><path fill="#0F3C96" d="M124.587 170.615l.08-.316 1.268-5.23-.025.03c-.286.38-.69.88-1.233 1.65-1.113 1.52-2.53 3.59-4.206 6.13l-.03.06c1.04 3.55.32 12.6.32 12.6l3.84-14.94zm28.35 1.31s-3.187-.814-3.624-.064.313 6.44.313 6.44l5.063-.87-1.76-5.5z"/><circle fill="#FFF" cx="186.544" cy="153.607" r="1.271"/><circle opacity=".3" fill="#FFF" cx="179.379" cy="169.984" r="1.588"/><path opacity=".3" fill="#FFF" d="M199.904 138.508c0 .88-.71 1.59-1.588 1.59s-1.59-.71-1.59-1.59c0-.875.713-1.588 1.59-1.588s1.588.713 1.588 1.588z"/><path fill="#FFF" d="M178.344 151.492s-.164-1.877-.57-2.313c-.412-.44-2.288-.71-2.288-.71s1.903-.19 2.34-.61c.42-.41.665-2.26.665-2.26s.16 1.86.56 2.29c.42.44 2.31.72 2.31.72s-1.83.14-2.26.53c-.45.42-.74 2.33-.74 2.33z"/><g fill="#FFF"><path d="M53.58 93.928c-.55-.27-1.225-.423-1.837-.423-.523 0-1.035.09-1.61.286-.205.07-.402.16-.59.26-.22-.56-.473-1.18-.758-1.86-.872-2-1.48-3.33-1.862-4.07-.404-.78-1.05-1.4-1.817-1.77-.247-.19-.488-.35-.79-.5-.76-.37-1.583-.56-2.446-.56-.32 0-.645.03-1.066.1-2.058.39-3.476 1.35-4.208 2.84l-.073.16c-.187.24-.365.51-.516.82-1.026 2.09-.86 4.47.462 7.09-1.31.48-2.32 1.46-2.78 2.8-.29.83-.39 1.56-.37 2.19-1.21.47-2.16 1.44-2.59 2.69-.36 1.02-.61 2.94 1.2 5.07-1.4.75-2.15 2.02-2.38 3.18-.17.86-.16 1.59-.05 2.22-1.13.64-1.93 1.72-2.19 3.03-.21 1.08-.18 3.07 2.03 4.95-.32.21-.62.44-.87.73-.61.7-1.12 1.55-1.56 2.59-.44 1.04-.43 2.21.04 3.23.06.13.12.26.19.38l.02.17c-.11 3.32 2.35 5.72 3.94 6.98-.51.44-1.01.94-1.48 1.51-.11-.1-.22-.2-.33-.31-.43-.78-1.11-1.39-1.91-1.75-.2-.11-.52-.3-.98-.57-1.58-.93-2.68-1.31-3.8-1.31-.16 0-.39.01-.55.03-.64.08-1.25.31-1.77.67-1.4.72-2.93 2.19-3.7 5.16-.48 1.7-.63 3.36-.44 4.94 0 .03.04.32.05.39-.56.87-.98 1.93-.83 3.22.34 2.92 3.17 3.9 5.27 4.62 2.03.68 3.08.92 3.88.97L37.68 156c.19.03.39.04.58.04.124 0 .246-.01.37-.02.224-.01.69-.014 1.47-.02.42-.01.78-.026 1.09-.043.12.03.24.05.36.07.205.036.412.05.62.05.225 0 .45-.02.673-.06.27-.01.55-.05.82-.12.267-.07.524-.16.77-.28.125-.013.253-.033.38-.06 1.137-.22 2.07-.9 2.64-1.82.487-.66.77-1.473.774-2.35 0-1.29-.61-2.45-1.575-3.19.08-.63.07-1.32-.01-2.075.01-.257 0-.52-.03-.78-.04-.32-.11-.64-.21-.974 0-.193-.014-.38-.035-.56-.043-.396-.143-.77-.29-1.12-.09-.314-.213-.6-.35-.86-.056-.277-.14-.54-.25-.793-.17-.557-.434-1.02-.684-1.416l-.028-.04c-.18-.42-.45-.77-.75-1.1.6-.49.99-1.04 1.24-1.56.64-.9 1.262-1.99 1.33-3.29.004-.11.01-.44-.02-1l-.015-.33c.01-.41-.04-.81-.14-1.19v-.02c-.01-1.23-.545-2.2-1.593-3.78.94-.69 1.53-1.67 1.72-2.67l.12-.59c.24-1.25-.074-2.3-.774-3.4.59-.08 1.17-.3 1.673-.64l.27-.19c.88-.6 1.49-1.51 1.7-2.56.1-.51.11-1.04.04-1.61-.042-.69-.27-1.37-.66-1.95-.03-.04-.07-.08-.096-.12l.127-.36c.42-1.2.26-2.29-.28-3.47h.01c.6 0 1.194-.13 1.74-.4l.296-.14c.957-.46 1.69-1.29 2.04-2.29.17-.49.264-1.01.274-1.59.045-.61-.06-1.22-.29-1.8.473-.28.91-.62 1.274-1.04.42-.35.76-.77 1-1.25.51-.63.81-1.4.88-2.2.2-.75.17-1.55-.09-2.29-.21-.62-.7-2.06-2.27-2.82zm-17.982 51.98c.124-.384.33-.762.52-1.064.054-.088.106-.168.156-.24.082.088.163.17.243.25.137.27.294.53.46.808.028.05.055.094.08.134.043.117.092.232.145.344l.01.058c-.564-.103-1.102-.2-1.614-.29zm45.196-98.01c.76 0 1.5-.19 2.2-.558 1.177-.625 1.998-1.657 2.308-2.907.19-.77.27-1.97-.444-3.317-.85-1.602-2.437-2.56-4.247-2.56-.52 0-1.07.085-1.61.25-1.68.514-2.83 2.072-2.83 3.834 0 .896.05 1.777.53 2.688.85 1.61 2.39 2.57 4.1 2.57z"/><path d="M100.19 47.315l-.13-.34c-.578-1.513-1.976-2.473-3.494-2.566.024-2.37.044-3.43.058-3.87.12-2.96.42-5.67.894-8.05.242-1.22-.098-2.44-.853-3.35l-.276-.41c-1.33-1.85-3.03-2.13-3.92-2.13-.3 0-.6.03-.89.09-.74.15-1.43.5-1.97 1.02-1.67 1.58-2.39 4.31-2.74 10.42-.12 2.18-.17 5.04-.17 8.45-.02 1.73-.02 2.43-.02 2.77l-.81.73c-.15.13-.34.31-.55.53-.51-.45-1.13-.77-1.82-.92-.33-.07-.68-.1-1.06-.1s-.83.03-1.41.1c-.49.06-.97.2-1.4.44-1.62.86-2.09 2.3-2.22 3.56-.32-.06-.64-.1-.97-.1-.7 0-1.42.13-2.14.4-.53.19-.99.48-1.38.85-.19-.1-.37-.18-.53-.25-.7-.31-1.36-.45-2.04-.45-.88 0-1.72.25-2.42.74-2.02 1.38-2.31 3.66-2.11 5.73-.25-.51-.47-.99-.68-1.42l-1.45-3.92-.04-.16c-.07-.77-.36-1.5-.82-2.09-.02-.07-.05-.14-.07-.21.02-.78-.18-1.55-.6-2.22l-.04-.09c-.52-1.45-1.84-2.52-3.45-2.65l-.35-.03c-.11-.01-.22-.02-.32-.02-1.24 0-2.41.57-3.17 1.55-.81 1.05-1.08 2.38-.78 3.68l-.07.61c-.04.31-.04.63 0 .94.06.53.11.96.16 1.31.02.17.05.33.09.49.03.15.06.3.11.45.13.42.25.83.37 1.22-.12-.07-.25-.14-.38-.21-.1-.05-.19-.09-.29-.14-.71-.3-1.41-.45-2.1-.45-1.19 0-2.3.45-3.14 1.26-.6.59-2.21 2.15-1.85 4.47.04.24.1.48.18.71.84 2.4 1.51 4.13 2.04 5.27.02.05 3.52 6.95 3.52 6.95.12.23.25.44.41.64.27.54.64 1.12 1.1 1.76.31.59.61 1.11.91 1.57.06.2.14.4.23.59.09.2.21.38.33.56.13.19.28.37.44.54l.13.13c.05.08.11.17.17.25l.03.07c.2.58.53 1.12.98 1.57.2.4.45.78.79 1.14.82.83 1.92 1.3 3.11 1.32h.05c1.7 0 3.22-1.08 3.78-2.7.36-1.05.42-2.2.18-3.42-.09-.44-.25-.85-.47-1.24-.05-.12-.1-.24-.16-.36.55.14 1.11.22 1.65.22 1.5 0 2.92-.58 3.99-1.63 1.27-1.24 1.39-2.72 1.18-3.96 1.07.57 2.08.71 2.75.71 1.1 0 2.18-.3 3.23-.9.13-.08.26-.16.38-.25l.11-.08c.7-.48 1.55-1.37 1.91-2.99.43.14.94.25 1.51.25.86 0 1.69-.25 2.4-.74.28-.19.53-.42.75-.66.37-.08.73-.2 1.07-.38l.38-.2c1.38-.74 2.21-2.21 2.12-3.78-.05-.71-.08-1.28-.12-1.73.1.21.23.42.37.61.33.66.82 1.19 1.4 1.57.25.19.53.36.82.49.52.24 1.07.35 1.63.35.49 0 .97-.08 1.43-.26l.43-.16c.99-.38 1.79-1.14 2.22-2.11.21-.48.33-.98.35-1.5.09-.6.04-1.21-.14-1.79.07-.39.09-.78.05-1.18l-.26-2.42c.02-.29.03-.59.02-.91 0-.08 0-.17-.01-.25l-.05-.71c.36-.19.68-.42.96-.69.16-.11.3-.23.44-.36.31-.25.55-.52.91-.98 1.52-1.04 2.14-2.99 1.48-4.73z"/></g><linearGradient id="b" gradientUnits="userSpaceOnUse" x1="31.84" y1="102" x2="31.84" y2="159.009"><stop offset="0" stop-color="#1B1440"/><stop offset=".819" stop-color="#ED1E79"/></linearGradient><path fill="url(#b)" d="M22.58 138.025c.308-.037.912.215 1.816.752s1.378.803 1.42.797c-.062.03-.084.12-.067.275 1.17.99 1.78 1.6 1.81 1.84 0 .06-.02.13-.08.21.17.13.24.11.22-.06.5.69 1.36 1.69 2.57 2.99.4-1.33 1.12-2.66 2.16-3.98 1.27-1.61 2.58-2.49 3.91-2.65.5-.06 1.29.19 2.38.75 1.15.59 1.76 1.16 1.83 1.71.01.09.04.11.11.08.06-.03.1 0 .11.08.01.08-.01.12-.06.1-.07-.04-.12-.03-.13.02.07.06.21.13.42.21l-.04.53.18.15.11-.18c-.17-.12-.2-.29-.1-.52.04.1.13.29.3.54.16.26.25.43.26.52l.01.13c-.06.01-.09.06-.08.14.01.09.04.1.1.05.06-.05.09-.04.1.05s0 .12-.04.12c-.04-.01-.05.02-.04.08.01.09.09.26.25.5s.25.41.26.5c0 .02-.03.1-.1.24.02.02.06.03.13.03s.11.05.12.13c.01.08.01.21-.01.36s-.02.28-.01.36c.01.06.02.09.05.08.03-.02.04.01.05.09s.03.18.07.3c.04.13.07.23.08.32.01.09 0 .15-.03.19-.03.04-.04.09-.03.17.01.08-.02.1-.1.06-.07-.03-.1-.01-.09.08.01.06.05.09.14.08.06-.01.1.03.11.12.08.7.06 1.25-.08 1.64-.21.69-.34 1.19-.39 1.5.04-.01-.04-.09-.26-.24-.08.1-.11.21-.09.34.07.06.19.07.34.06-.22.02-.42.4-.6 1.13.66.14 1.54.28 2.64.42-.13.02-.19.1-.17.25-.3.06-.5.02-.58-.1-.13.01-.14.07-.02.16-.46.06-.73.16-.8.33-.22-.17-.38-.35-.49-.54-.04.09-.04.29 0 .6-.16-.02-.35-.08-.58-.16-.33.04-.87.06-1.62.09-1 0-1.57.01-1.72.03L24.95 150c-.45.007-1.45-.25-3.02-.78-1.68-.58-2.54-1.01-2.57-1.293-.023-.22.188-.6.63-1.14.14.05.417.12.82.205.08-.12.11-.19.11-.21-.004-.065-.1-.29-.274-.665-.18-.38-.28-.665-.3-.862-.01-.084 0-.18.02-.28s.03-.196.02-.284c-.01-.08-.04-.11-.11-.08s-.1 0-.11-.09c-.01-.09.03-.11.1-.06s.1.03.09-.06c-.01-.08-.04-.1-.1-.03s-.09.05-.1-.04c-.12-1.07-.01-2.21.34-3.43.39-1.55 1.06-2.48 2-2.79l.09-.11zm.065 1.686c-.175.03-.383.18-.626.48-.25.3-.36.53-.34.71l.13.29c.01.09 0 .13-.04.11-.04-.01-.05.02-.04.11.01.09-.02.37-.1.86s-.11.77-.1.86c.01.09 0 .17-.02.25s-.03.17-.02.26c.05.44.22 1 .53 1.7.54 1.22 1.02 1.98 1.44 2.26.42.29.99.51 1.72.67.59.11 1.19.22 1.8.32.48.12.75.21.83.27.06-.03.14-.05.22-.06.19-.02.5.02.91.13.52.12.84.18.95.19-.02-.13.04-.2.17-.22-.35-.67-.55-1.32-.63-1.95-.02-.15-.67-1.11-1.94-2.89.06-.05.12-.09.18-.12-.88-.67-1.69-1.54-2.43-2.61-.39-.29-.91-.62-1.55-1s-1.01-.56-1.1-.55zm13.147.5c-1.07.13-2.092.96-3.063 2.51-.98 1.55-1.38 3.03-1.21 4.45.03.26-.03.66-.18 1.18s-.25.81-.28.86c1.98.3 4.89.81 8.71 1.54l.29-.03c.35-.04.7-.26 1.05-.65.01-.31.1-.67.27-1.08.17-.4.26-.63.25-.67-.01-.06-.02-.09-.05-.08-.02.02-.04-.02-.05-.11-.01-.06.02-.1.09-.11l-.12-.12c.01-.02.04-.03.09-.02.04.01.06-.04.05-.15-.01-.06-.04-.1-.1-.12-.06-.01-.09-.07-.1-.15-.02-.15.06-.2.24-.16-.03.01-.05.02-.07.04l-.04.01-.02-.13c-.01-.06-.01-.27 0-.63.01-.35.01-.63-.01-.82-.1.1-.23.16-.38.18-.08-.28-.16-.73-.23-1.36-.01-.06-.05-.09-.11-.07-.07.02-.1-.02-.11-.1-.01-.09-.14-.33-.39-.75s-.38-.64-.38-.68c-.01-.11.01-.2.07-.27-.31-.18-.7-.54-1.17-1.07s-.81-.84-1.01-.92c-.2-.09-.42-.19-.65-.32-.53-.14-1.02-.18-1.48-.12zm-4.39 9.38l-.125.08.125.22.164-.02-.165-.28zm3.164.37l-.164.02.065.56.164-.02-.06-.55zm8.487 1.27l.02.17-.263.03-.02-.16.263-.03z"/><linearGradient id="c" gradientUnits="userSpaceOnUse" x1="36.635" y1="102" x2="36.635" y2="159.009"><stop offset="0" stop-color="#1B1440"/><stop offset=".819" stop-color="#ED1E79"/></linearGradient><path fill="url(#c)" d="M34.016 125.265c.154.008.404.065.75.17.045.002.298.004.76.005.31-.006.514.103.612.328.048-.063.073-.128.076-.193l.938.41c.088.004.155-.014.2-.057-.09.084-.054.22.113.402.07-.063.105-.127.11-.193.13.008.25.068.353.184-.132 0-.2.04-.204.13.483.03 1.01.3 1.578.81 1.033.94 1.623 1.46 1.77 1.58 0 .03-.035.07-.104.13-.07.07-.105.12-.107.16.09.07.21.04.37-.11.84 1.25 1.26 1.96 1.25 2.11 0 .07.01.21.03.43s.03.38.03.47.01.13.05.11c.04-.02.05.01.05.08 0 .08 0 .28.02.62s.02.53.02.6c-.01.26-.24.7-.69 1.32-.11-.01-.17.07-.18.22-.01.36-.39.62-1.13.8-.49.11-.99.22-1.5.33.02-.28.03-.42.06-.39-.21.26-.41.38-.61.37-.9-.04-2.29-.75-4.19-2.12-2.21-1.59-3.28-3.04-3.22-4.36.01-.07.07-.16.18-.29-.17-.12-.25-.31-.23-.57.02-.29.13-.48.34-.58s.42-.19.63-.27c0 .02.07.15.21.38s.2.39.2.5c-.02.4.35 1.01 1.09 1.84.42.42.83.85 1.24 1.29s1.2.98 2.37 1.64c1.18.65 2.07 1 2.68 1.03.2.01.47-.14.8-.44.33-.3.51-.55.52-.75.01-.09-.02-.27-.07-.55s-.07-.46-.07-.55c.02-.33-.14-.75-.47-1.25-.45-.73-.68-1.11-.7-1.13-.26-.03-.49-.22-.68-.56-.19-.34-.39-.51-.58-.52-.06-.09-.02-.2.11-.32-.15 0-.33-.05-.52-.12-.39-.46-.95-.81-1.67-1.04-.63-.21-1.01-.46-1.15-.75-.02 0-.05-.01-.1-.04-.02-.02-.03-.02-.03 0v.13c-.01.09-.47.13-1.4.13-.88 0-1.39-.03-1.55-.08-.11.1-.14.19-.08.26-.02 0-.13.02-.33.08s-.36.06-.49.01c-.05.04-.08.17-.09.39-.13.01-.36-.03-.69-.14.28-.64.58-1.16.9-1.54.28.02.45.09.51.23.28-.25.48-.34.61-.27.05-.04.07-.14.08-.29.13.01.36-.02.68-.07s.52-.07.61-.07zm-2.49.866l-.197-.01-.03.47.2.01.02-.46zm4.928-.08l-.136.07.12.27.13.01-.114-.33zm5.185 8.32l-.06.12.2.13.06-.11-.21-.13zm.4-3.91l-.17-.01-.03.57.16.01.02-.56zm-.08 3.47l-.02.36h-.1l.02-.36.09.01z"/><linearGradient id="d" gradientUnits="userSpaceOnUse" x1="38.462" y1="102" x2="38.462" y2="159.009"><stop offset="0" stop-color="#1B1440"/><stop offset=".819" stop-color="#ED1E79"/></linearGradient><path fill="url(#d)" d="M36.155 112.543c.324.063 1.15.37 2.476.922 1.25.512 1.93.813 2.05.904.08-.03.19-.04.34-.01.78.15 1.38.45 1.81.89.06-.06.09-.12.1-.19.35.2.8.42 1.35.66-.03.17-.07.31-.11.41-.04.1-.06.14-.05.12l.15.29c-.1.09-.16.17-.18.23-.08-.02-.29-.04-.62-.07-.33-.03-.55-.06-.66-.08-.9-.18-1.54-.44-1.9-.78-.05.05-.09.11-.1.18l-.51-.1c-.15-.03-.48-.17-.99-.43s-1.04-.46-1.59-.62c.02-.09.06-.16.14-.21l-.21-.28c.01.09-.01.25-.06.49-.12-.06-.33-.14-.63-.22-.29-.09-.5-.15-.63-.2l-.85-.1c.3.42.68 1.03 1.15 1.83 1.23 1.26 2.45 2.54 3.68 3.83 1.75 1.86 2.61 2.92 2.56 3.18l-.12.58c-.06.32-.52.4-1.38.23-.41-.08-.91-.27-1.5-.56-.77-.4-1.22-.62-1.34-.67-1.1-.44-1.87-.76-2.32-.96-.85-.44-1.6-.92-2.23-1.45-.26-.01-.77-.27-1.52-.77-.83-.57-1.2-1.06-1.12-1.47.04-.2.17-.32.39-.38l.69-.19 8.03 4.33c.01-.25-.19-.56-.59-.93-.31-.26-.6-.53-.88-.81l-4.7-5.05c-.12-.41-.33-.79-.61-1.16-.16-.19-.2-.55-.09-1.06.12-.61 1.01-.75 2.67-.42zm4.072 1.705c-.28.056-.484.07-.614.045-.018.088.104.158.362.208.014-.07.098-.15.252-.25zm.59 7.983l.02.41-.13-.02-.065-.35.174-.03zm4.838-6.31c-.004.02.002.1.02.23.02.13.018.25-.003.36l-.27.19c-.023 0-.046-.06-.07-.16-.024-.1-.09-.17-.198-.19-.173-.03-.4.05-.685.24l-.04.17-.03.16v-1.07c.08-.07.21-.09.38-.06-.12.25-.15.41-.1.49.2-.14.28-.29.25-.45l.72.14z"/><linearGradient id="e" gradientUnits="userSpaceOnUse" x1="41.788" y1="102" x2="41.788" y2="159.009"><stop offset="0" stop-color="#1B1440"/><stop offset=".819" stop-color="#ED1E79"/></linearGradient><path fill="url(#e)" d="M40.17 100.36c.31.107 1.084.528 2.32 1.26 1.16.684 1.79 1.08 1.894 1.184.077-.02.188-.004.333.046.748.26 1.303.64 1.666 1.138.063-.048.105-.103.127-.166.31.248.724.532 1.24.852-.057.167-.115.297-.17.394-.058.097-.083.135-.075.114l.1.314c-.12.075-.19.144-.21.206-.084-.03-.287-.082-.61-.16-.322-.076-.535-.133-.64-.17-.872-.302-1.462-.647-1.77-1.034-.063.048-.106.103-.127.165l-.5-.173c-.145-.05-.452-.24-.92-.565-.47-.326-.967-.604-1.493-.833.03-.083.085-.145.17-.186l-.174-.305c0 .1-.05.25-.13.48-.11-.07-.31-.18-.59-.3-.28-.12-.48-.22-.6-.28l-.83-.22c.24.46.53 1.12.88 1.98 1.04 1.43 2.07 2.87 3.1 4.32 1.48 2.09 2.17 3.26 2.09 3.51l-.19.56c-.1.31-.57.33-1.4.04-.39-.13-.86-.39-1.4-.76-.7-.5-1.12-.78-1.23-.85-1.02-.59-1.75-1.01-2.17-1.28-.78-.55-1.45-1.13-2-1.74-.26-.04-.73-.37-1.4-.98-.74-.67-1.04-1.21-.9-1.6.07-.19.22-.29.45-.32.23-.02.47-.05.71-.08l7.34 5.42c.04-.24-.11-.57-.46-1-.27-.3-.52-.61-.76-.93l-3.93-5.67c-.06-.42-.21-.83-.44-1.24-.13-.21-.12-.56.06-1.06.2-.58 1.11-.59 2.71-.03zm3.247 10.248l-.037.407-.125-.043-.017-.355.18-.01zm.542-7.987c-.29.02-.49.01-.62-.04-.03.09.08.17.33.26.02-.07.12-.14.28-.21zm5.13 2.42c-.01.02-.01.1-.01.23s-.02.25-.06.35l-.3.14c-.02 0-.04-.06-.05-.17s-.07-.18-.17-.21c-.17-.06-.4-.01-.71.14l-.05.16c-.02.07-.04.12-.06.16.02-.11.04-.28.08-.53l.08-.53c.09-.06.22-.06.38 0-.15.23-.21.39-.17.47.21-.11.32-.25.31-.41l.69.24z"/><linearGradient id="f" gradientUnits="userSpaceOnUse" x1="45.704" y1="102" x2="45.704" y2="159.009"><stop offset="0" stop-color="#1B1440"/><stop offset=".819" stop-color="#ED1E79"/></linearGradient><path fill="url(#f)" d="M42.55 89.432c.04.02.174.122.4.308.18.137.317.205.416.204.338.657.922 1.938 1.752 3.84 1.04 2.473 1.487 3.857 1.34 4.153-.038.08-.092.188-.16.326l-.145.296c.05.14.224.29.52.43 1.185.58 2.615.41 4.292-.5-.04-.07-.09-.12-.148-.15.068-.04.268-.3.6-.77.206-.07.34-.09.398-.07.06.03.144.2.254.53-.11.02-.2.1-.27.23-.14-.07-.23-.15-.25-.24-.13.06-.22.14-.27.23l.04.2c.19-.05.36-.07.5-.05-.06.12-.02.21.12.28-.13.11-.3.23-.51.37l.06.32c-.18.06-.31.18-.4.36-.18.35-1.05.72-2.61 1.11.01-.12.01-.27 0-.45l-.06-.03-.25.5c-1.61-.33-2.54-.55-2.8-.68-1.46-.72-2.92-2.08-4.36-4.09-1.58-2.22-2.06-3.95-1.45-5.2.05-.1.17-.24.38-.44.2-.19.32-.31.34-.35.04-.08.02-.11-.06-.1-.08.01-.11-.01-.08-.07.15-.32.61-.55 1.36-.69.37-.06.71-.02 1 .13zm-.52 1.288c-.06-.03-.154-.038-.282-.027-.098 0-.158-.028-.178-.087-.03.06-.095.144-.198.252-.103.11-.173.203-.212.282-.31.632.096 1.8 1.22 3.504 1.033 1.538 1.85 2.468 2.453 2.788-.36-1.11-.713-2.214-1.055-3.314-.712-2.042-1.295-3.175-1.75-3.398zm.227-1.212l-.237-.117-.13.27.236.12.13-.26zm2.757 4.04l-.148-.073-.116.237.148.073.116-.237z"/><linearGradient id="g" gradientUnits="userSpaceOnUse" x1="59.342" y1="102" x2="59.342" y2="159.009"><stop offset="0" stop-color="#1B1440"/><stop offset=".819" stop-color="#ED1E79"/></linearGradient><path fill="url(#g)" d="M58.818 52.724c-.146.51-.116.913.09 1.203.206.29.26.59.164.9.078-.014.14-.045.188-.09.045.14.082.288.11.444.046.08.162.19.347.31-.142.14-.213.26-.214.35.077.08.13.07.164-.02.107.14.183.35.226.61l1.626 4.36c1.04 2.24 2.61 5.47 4.71 9.7.32.4.67 1.07 1.06 2.04.38.96.5 1.51.36 1.65-.51.49-1.15.62-1.94.38-.65-.19-1.09-.45-1.3-.76-.08.08-.24.11-.47.09-2.66-1.46-4.67-2.89-6.04-4.3l-2.35-2.41c-.08-.08-.21-.26-.39-.56-.19-.29-.34-.51-.46-.63-.19-.19-.39-.3-.63-.35.16.61.68 1.76 1.57 3.45.8 1.52 1.22 2.53 1.24 3.03.06 0 .11-.03.16-.07l.25.26c.04.05.24.48.59 1.31.36.94.58 1.48.66 1.62.46.54.96 1.34 1.51 2.4.58 1.13.88 1.97.92 2.51-.11-.11-.2-.09-.26.07.1.11.27.14.49.08-.24.23-.38.42-.43.56.04-.01.17-.12.37-.32l.32.33c.1.52.09.96-.04 1.33-.13 0-.23-.04-.3-.12-.07-.06-.18-.34-.34-.82 0-.03.03-.09.1-.17.07-.08.11-.16.13-.24-.25.06-.39.07-.42.04v-.14c-.03 0-.14.06-.33.19.02-.11-.03-.25-.16-.44-.09-.12-.09-.23 0-.32-.02-.08-.05-.14-.09-.19l-.14.05c-.1-.06-.29-.38-.58-.96-.29-.18-.39-.22-.3-.12-.04-.05-.06-.12-.05-.22 0-.1-.01-.18-.04-.24-.38-.49-.81-1.19-1.28-2.12-.75-.99-1.14-1.7-1.16-2.14-.1 0-.16.01-.19.04l-3.47-6.81c-.47-1.01-1.1-2.66-1.9-4.92-.03-.19.2-.52.69-1 .17-.17.47-.17.89.01.31.16.55.32.72.5l5.08 5.92c.01.01.07.02.16.02l.46.47c.38.4 1.11.99 2.19 1.78 1.15.87 1.95 1.51 2.4 1.9.32.11.82.28 1.48.49-.38-1.26-1.13-3.01-2.27-5.25-1.3-2.49-2.29-4.75-3-6.8-.42-1.06-.95-2.64-1.58-4.73.14-.14.33-.28.56-.42.01-.04 0-.09-.05-.14-.13.06-.32.14-.59.25-.05-.33-.1-.74-.15-1.24.02-.14.04-.36.08-.65.03-.29.05-.5.05-.63.17.17.32.19.46.05.04-.04.09-.1.14-.18.02-.05.04-.07.07-.07zM55.128 64.3l-.11-.077-.032.216.092.09.05-.24zm3.28-12.42c-.002.186.074.358.227.515l-.33.323c-.108-.14-.185-.25-.23-.33-.106-.234-.112-.414-.017-.537l.35.03zm.142 1.704c-.062 0-.128-.028-.197-.084-.07-.055-.127-.075-.174-.06.03.03.05.117.06.256.09.002.19-.035.3-.112zm1.836 25.32l-.14-.05-.095.233.12.118.12-.302zm.31 1.356l-.116-.07-.167.3.115.118.168-.348z"/><linearGradient id="h" gradientUnits="userSpaceOnUse" x1="75.877" y1="102" x2="75.877" y2="159.009"><stop offset="0" stop-color="#1B1440"/><stop offset=".819" stop-color="#ED1E79"/></linearGradient><path fill="url(#h)" d="M77.582 58.235c-.013-.018.218.444.69 1.387.474.943.86 1.63 1.16 2.067.77 1.12 1.258 1.95 1.46 2.47.197.13.29.19.277.17l.74 1.09c-.02.01-.05.06-.1.14s-.11.15-.18.2c-.11.07-.35.02-.71-.16-.69-.07-1.52-.82-2.5-2.25-.53-.76-.94-1.5-1.23-2.2l-.23-.04c-.16.19-.17.39-.02.61-.09-.02-.17-.01-.22.03.01.28.08.37.21.25-.13.67-.22 1.24-.27 1.7-.11.85-.12 1.41-.01 1.68-.06.15-.15.78-.26 1.9-.08.05-.14.07-.18.06-.05-.01-.08-.01-.1.01l.21.31c-.1.09-.17.35-.22.76-.05.41-.16.68-.32.79-.07.05-.14.03-.2-.06l-.11.07c-.09.06-.06.1.09.13-1.2.69-2.23.42-3.08-.82-.19-.27-.3-.65-.34-1.13-.02-.07-.11-.15-.26-.26-.16-.11-.25-.19-.29-.25-.3-.44-.73-1.82-1.28-4.14-.65-2.66-.69-4.19-.1-4.58.11-.08.3-.05.59.07s.46.23.52.32c.17.25.17.7.01 1.35.28 1.11.46 1.86.53 2.24.15.8.2 1.41.13 1.83.09.02.16.01.22-.03.22.6.45 1.2.68 1.82.32.85.62 1.49.91 1.9.22.33.41.44.55.34.31-.21.55-1.5.72-3.85.14-1.7.21-3.06.19-4.1.09-.07.13-.37.13-.93-.01-.56.14-.94.45-1.15-.14-.04-.2-.13-.19-.27.83-.3 1.45-.16 1.86.44zm2.472 6.228l-.292.04.047.128.29-.04-.05-.12zm.87.162l-.145.02.04.293.14-.02-.04-.293zm.52.405l-.26-.143-.09.102.24.11.11-.08z"/><linearGradient id="i" gradientUnits="userSpaceOnUse" x1="82.204" y1="102" x2="82.204" y2="159.009"><stop offset="0" stop-color="#1B1440"/><stop offset=".819" stop-color="#ED1E79"/></linearGradient><path fill="url(#i)" d="M81.324 42.99c.196.37.128.64-.202.815-.37.196-.667.08-.894-.348-.04-.077-.063-.353-.063-.825.556-.17.942-.05 1.16.357zm1.385 10.654c.29 1.44.55 3.067.79 4.882.18 1.472.38 2.584.61 3.337-.18.093-.28.184-.31.273.09.175.18.14.28-.11.04.452.09 1.208.15 2.27l-.38.2c-.08-.056-.2-.117-.36-.183l-.62-1.167c.06-.208.06-.37 0-.487.19-.11.33-.15.42-.12l.04-.21c-.28-.01-.51.09-.71.29-.19-.68-.25-1.19-.19-1.55-.04-.08-.12-.09-.24-.03-.15-.84-.29-2.07-.41-3.67-.05-.1-.13-.24-.23-.44-.08-.23-.13-.82-.17-1.76s0-1.44.12-1.5c.61-.07 1-.09 1.16-.06zm1.15 9.436l-.08-.146-.5.262.07.146.49-.262zm-.01.34l-.36-.11-.04.133.34.08.05-.104zm.19-.064l-.04.43-.17-.026.03-.43.16.026z"/><linearGradient id="j" gradientUnits="userSpaceOnUse" x1="91.793" y1="102" x2="91.793" y2="159.009"><stop offset="0" stop-color="#1B1440"/><stop offset=".819" stop-color="#ED1E79"/></linearGradient><path fill="url(#j)" d="M93.594 31.714c-.516 2.598-.838 5.488-.967 8.67-.033 1.024-.066 3.838-.1 8.442-.058.093-.136.23-.232.407.07.185.192.41.363.674.118.002.27-.033.455-.103.267-.102.625-.292 1.072-.568.448-.276.682-.42.703-.427.33-.13.65-.18.965-.16l.114-.26c.093.06.21.06.355 0l.13.34c-.36.23-.592.42-.697.58-.284.36-.453.57-.506.61l-.23-.13c-.04.08-.04.19.01.31l-.46.17c-.09.03-.09.07-.03.11s.06.08 0 .1c-.09.03-.18.05-.28.05-.11 0-.2.02-.28.05-.15.06-.42.31-.83.76s-.66.75-.77.91c.12.33.11.72-.04 1.18l.11 1.58c0 .63-.06 1.09-.19 1.38.06.04.13.05.19.03.05.52.14 1.29.24 2.31-.03.05-.16.04-.41-.06-.02.01-.04.05-.04.12-.01.08-.04.12-.08.14-.19-.12-.31-.14-.38-.07.03.01.11.07.24.17.13.09.24.16.32.21-.1.04-.22.02-.37-.04.02-.01.11.2.28.64-.2-.02-.46.03-.79.16.19-.48.15-.83-.12-1.05-.3-.79-.47-1.73-.52-2.84-.07-1.55-.13-2.46-.16-2.73.02.04-.12.11-.41.22-.08.03-.12.02-.12-.03 0-.07-.02-.11-.05-.13-.03.18-.25.55-.65 1.12-.41.56-.67.87-.8.92l-.52.2c-.19.07-.39.06-.6-.04-.22-.1-.35-.23-.42-.39-.17-.45.31-1.22 1.46-2.29.63-.57 1.27-1.14 1.92-1.72.16-.27.21-.88.15-1.82-.01-.21-.01-1.15.01-2.83-.01-3.41.04-6.18.16-8.29.25-4.46.75-7.04 1.49-7.74.26-.06.52.09.77.44.28.41.43.63.46.64zM91.08 50.58l-.083-.215-.247.094.082.21.247-.1zm1.757 10.164c-.08.163-.093.313-.04.448l-.433.165c-.07-.185-.167-.254-.29-.207-.056-.144.044-.405.3-.786-.153.034-.376.096-.672.186.01-.216.15-.375.418-.478.082-.03.11-.006.082.075-.028.082 0 .106.082.075.164-.063.216-.083.154-.06.084.035.102.206.054.513.048.003.11.013.188.03.076.013.13.027.157.04z"/></svg>