<svg xmlns="http://www.w3.org/2000/svg" width="250" height="250" viewBox="0 0 250 250"><path d="M219.752 139.21c0-20.27-6.45-39.436-18.675-55.536V73.92h-8.534c-17.357-17.25-40.29-26.726-64.808-26.726-24.517 0-47.45 9.475-64.807 26.727h-5.924v6.47C43.266 96.9 35.72 117.72 35.72 139.21c0 13.136 2.71 25.802 8.058 37.685-3.553 10.695-4.978 20.51-4.02 27.797.24 1.825.594 3.658 1.08 5.605l.894 3.565h2.595v.074h29.708c15.71 11.316 34.245 17.29 53.7 17.29 19.458 0 37.992-5.974 53.702-17.29h31.29V193.56h-10.764c11.65-15.852 17.79-34.574 17.79-54.35z" opacity=".15"/><path fill="#FFD69F" d="M216.28 134.268c0-20.27-6.45-39.437-18.675-55.537v-9.75h-8.534c-17.35-17.25-40.29-26.72-64.8-26.72s-47.45 9.48-64.81 26.73h-5.92v6.47c-13.74 16.5-21.29 37.32-21.29 58.81 0 13.14 2.71 25.81 8.06 37.69-3.55 10.7-4.98 20.51-4.02 27.8.24 1.83.6 3.66 1.08 5.61l.9 3.57h2.59v.07h29.71c15.71 11.32 34.25 17.29 53.7 17.29s38-5.97 53.71-17.29h31.29v-20.38H198.5c11.65-15.85 17.79-34.57 17.79-54.35z"/><circle fill="#FAAF40" cx="124.264" cy="134.268" r="87.308"/><path fill="#3FBCFF" d="M72.002 87.958h105.52v107.195H72.002z"/><path fill="#2CACE5" d="M178.907 94.692L70.957 92.41V80.877h107.56"/><circle fill="#FFF692" cx="151.449" cy="160.219" r="15.334"/><path fill="#4CD812" d="M114.117 173.936s22.59-11.914 60.702-6.396c0 0 11.98 9.34 14.89 19.122 2.91 9.78-3.61 14.69-3.61 14.69l-58.28-2.962-13.72-24.454z"/><path fill="#4CE813" d="M60.414 178.136s39.706-43.03 124.108 25.155l-44.627-3.11-75.74 2.08-3.74-24.11z"/><path fill="#F2E3CB" d="M62.01 78.025V198.12l126.09-.002V78.025H62.01zM174.75 194.01H75.36v-49.122h99.39v49.122zm0-56.132H75.36v-48.21h99.39v48.21z"/><path fill="#D6C4AB" d="M63.43 79.167h125.405v6.393H63.43z"/><path fill="#D6C4AB" d="M65.83 83.733h5.48v111.19h-5.48zm114.098 0h5.48v111.19h-5.48z"/><path fill="#F2E3CB" d="M192.896 193.326V73.686H58.243V193.33h-12.68v10.957h158.983V193.33h-11.65zM66.466 81.68h118.208v111.647H66.464V81.68z"/><path d="M143.1 86.396s3.432-.638 4.414 1.52c.98 2.158-1.104 5.444-1.104 5.444l-3.2 1.104-.11-8.068z" opacity=".15"/><path fill="#FFF" d="M41.936 204.21H92.67c-1.192-4.77-3.96-9.24-8.306-11.99-2.5-10.302 1.766-16.04 1.766-17.806l-21.336-34.187c-13.342 10.3-26.045 42.132-23.838 58.907.234 1.787.576 3.466.98 5.077z"/><path fill="#D0D1D2" d="M90.35 204.21c-.46-1.995-1.255-3.857-2.455-5.37-1.766-2.06-3.237-2.796-5.543-4.07-2.215-1.225-1.373-13.88.687-17.118l-16.98-13.685c-3.08 4.81-13.51 25.01-9.82 40.244h34.11z"/><path fill="#FFF" d="M61.53 167.24l-.243.85-.172.844-.2 1.3c-.112.995-.245 2.217-.26 3.637-.034 1.42.002 3.03.188 4.75.166 1.73.475 3.58 1.01 5.46.53 1.87 1.242 3.78 2.286 5.53 1.04 1.74 2.38 3.31 4.01 4.52 1.63 1.2 3.52 2.1 5.6 2.54.5.15 1.06.17 1.58.27l.79.13c.27.02.54.02.82.04l1.63.07c.55-.03 1.1-.06 1.65-.1 2.19-.12 4.38-.55 6.49-1.07 1.05-.2 2.08-.59 3.08-.88.5-.16 1-.3 1.49-.46l1.44-.54c.95-.37 1.88-.67 2.76-1.06l2.54-1.12c.82-.35 1.59-.71 2.32-1.09l2.07-1.04c1.31-.62 2.41-1.27 3.34-1.77l2.88-1.6 3.36 6.04-3.09 1.58c-.99.5-2.17 1.13-3.58 1.75-.71.32-1.45.67-2.24 1.03-.78.37-1.62.73-2.52 1.07l-2.76 1.1c-.96.39-1.99.69-3.03 1.06l-1.59.54c-.54.17-1.11.31-1.67.46-1.14.28-2.26.66-3.48.87-2.39.51-4.92.91-7.56.98l-1.99.05-2.03-.15c-.34-.03-.68-.05-1.02-.09l-1.03-.19c-.68-.14-1.37-.21-2.04-.42-2.72-.68-5.34-2-7.54-3.75s-3.93-3.95-5.17-6.21c-1.26-2.27-2.03-4.61-2.58-6.82-.55-2.22-.83-4.34-.95-6.29-.14-1.95-.12-3.74-.03-5.32.07-1.58.26-2.96.43-4.1.11-.57.2-1.09.29-1.53l.31-1.23c.17-.55.27-.84.27-.84l4.06 1.25zm49.808-24.637s-.01.046-.036.136c-.01.05-.093.32-.048.24.013-.04.017.02.025-.09 0-.06-.04-.39-.3-.71-.28-.31-.52-.36-.48-.36.02-.01.24-.01.52-.06.56-.1 1.4-.36 2.29-.77 1.8-.81 3.91-2.13 5.96-3.81 2.05-1.68 4.07-3.7 5.81-5.93 1.75-2.22 3.22-4.62 4.3-6.97 1.09-2.35 1.8-4.65 2.21-6.65.42-2 .55-3.68.59-4.86.02-.59.03-1.06.02-1.37v-.49l8.13.09-.04.62c-.02.4-.06.99-.14 1.74-.16 1.49-.46 3.62-1.16 6.1-.68 2.47-1.75 5.26-3.27 8.04-1.5 2.78-3.44 5.52-5.66 7.98-2.21 2.47-4.69 4.66-7.21 6.46-2.52 1.8-5.08 3.21-7.54 4.13-1.24.45-2.44.79-3.73.92-.65.05-1.32.07-2.09-.08-.75-.15-1.71-.52-2.42-1.35-.72-.82-.92-1.77-.94-2.34-.04-.63.04-1.01.12-1.4.1-.44.12-.43.15-.56.03-.09.04-.14.04-.14l4.8 1.42z"/><path fill="#D0D1D2" d="M125.857 130.263c-.248.34-.49.68-.75 1.012-1.742 2.22-3.76 4.25-5.817 5.923-2.05 1.678-4.162 3-5.965 3.81-.892.402-1.727.67-2.294.764-.27.05-.49.053-.52.057-.04 0 .2.05.47.36.11.13.18.25.22.37l-4.66-1.38-.04.13c-.03.13-.05.11-.15.55-.08.39-.16.77-.12 1.4.02.57.22 1.52.94 2.34.72.82 1.68 1.19 2.42 1.34.78.15 1.44.13 2.09.07 1.29-.13 2.49-.47 3.73-.93 2.46-.92 5.02-2.33 7.54-4.13 2.05-1.46 4.06-3.19 5.93-5.11-1.6-1.93-2.5-4.3-2.99-6.61zm-14.603 12.716c-.03.05-.003-.05.02-.14l.005.05c-.01.1-.02.04-.03.08zm20.49-29.05s.1 5.15 7.357 4.85c0 0 1.18-3.31 1.11-5.4" opacity=".3"/><path fill="#FFF" d="M147.686 99.614c-12.845 9.596-4.513-3.138-2.158-7.652 2.747-5.297-1.962-8.436-6.082-4.12-2.942 3.138-4.61 10.104-5.788 14.027 0 0-8.353-10.65-12.065-5.89-1.57 2.01-1.57 5 1.374 5.79 3.814 1.04 5.482 1.62 6.36 5.26-1.553 4.55.292 6.57 2.96 8.14 2.235 1.32 4.92 2.77 7.944.91.83-.55 1.35-1.35 1.75-2.19l.02.03.12-.31c.4-.88.95-2.51.95-2.51.99-2.34 2.1-3.47 5.62-4.06 2.95-.59 7.66-.4 9.03-3.93 1.96-5.69-6.08-6.46-10-3.53z"/><path fill="#D0D1D2" d="M125 138.323s12.725-3.29 4.216 8.875l-1.696-2-2.52-6.875z"/><ellipse transform="rotate(92.3 94.9 152.4)" fill="#FFF" cx="94.921" cy="152.424" rx="28.581" ry="35.67"/><ellipse transform="rotate(92.3 99.3 152.2)" fill="#D0D1D2" cx="99.258" cy="152.235" rx="22.771" ry="29.851"/><ellipse transform="rotate(92.3 115.4 150.9)" fill="#FFF" cx="115.382" cy="150.859" rx="12.055" ry="12.231"/><ellipse transform="rotate(92.3 87 150)" fill="#FFF" cx="86.957" cy="150.002" rx="14.997" ry="15.097"/><path fill="#919396" d="M68.765 135.707c.007-.01-4.6 6.238-4.706 8.335l-.96-1.71s-7.16-11.253 5.66-6.625z"/><path fill="#D0D1D2" d="M72.043 133.93s-6.93-4.975-11.78-2.175c0 0-6.33 4.925 1.8 13.69l1.962 2.357s1.628-1.104 1.41-3.644c0 0-9.374-11.45 4.15-7.264 0 .002 2.212-.067 2.458-2.964z"/><circle fill="#0071BC" cx="84.632" cy="148.32" r="11.394"/><path fill="#0F4481" d="M81.748 140.563c3.195-.483 6.177 1.717 6.66 4.913.483 3.195-1.716 6.176-4.912 6.658-3.197.485-6.178-1.715-6.662-4.91-.48-3.196 1.718-6.178 4.914-6.66z"/><circle fill="#FFF" cx="83.943" cy="146.149" r="3.11"/><circle fill="#FFF" cx="76.818" cy="146.412" r="1.514"/><circle fill="#0071BC" cx="114.001" cy="150.41" r="9.367"/><circle fill="#0F4481" cx="112.349" cy="148.787" r="4.811"/><path fill="#FFF" d="M113.052 146.095c1.397-.212 2.7.75 2.912 2.146.21 1.4-.75 2.71-2.147 2.92-1.397.21-2.7-.75-2.91-2.14-.213-1.4.75-2.7 2.145-2.91z"/><circle fill="#FFF" cx="107.575" cy="148.84" r="1.244"/><path fill="#FCFCD4" d="M144.768 202.673v-30.54h-.005c.024-.112.054-.226.054-.343 0-2.764-6.94-5.003-15.5-5.003-8.56 0-15.597 2.24-15.597 5.003v31.538h.152c.548 2.603 7.243 4.66 15.445 4.66 8.203 0 14.897-2.058 15.446-4.66h.005v-.03c.02-.104.05-.207.05-.313s-.03-.207-.05-.312z"/><path fill="#D0D1D2" d="M128.213 186.038c1.03-2.67-.44-4.143-.44-4.143l-4.047.343c-2.17-8.02-7.688-9.075-7.688-9.075l-2.538 3.465v26.627c.42 1.995 4.606 3.664 10.157 4.338 8.384-6.215 6.01-20.193 6.01-20.193s-1.646-.863-1.454-1.362z"/><path fill="#FFF" d="M126.546 185.556c1.296-.812 2.04-2.005 1.128-3.833-1.766-3.826-7.167 2.348-11.858.504 0 0-1.03-.552-1.09-1.68-.03-.493.398-1.068.398-1.068 1.093-1.43 3.997-.57 4.016-3.06.024-3.51-3.307-3.68-5.297-2.65-4.543 2.34-6.704 8.35-7.61 12.75h-.017c-.004.03-.004.07-.006.11l-.02.08.015-.01c-.722 9.56 8.186 9.36 15.683 8.1 5.835-.99 11.633-8.64 4.658-9.27z"/><ellipse fill="#844C26" cx="129.329" cy="171.606" rx="12.36" ry="2.453"/><path fill="#D0D1D2" d="M121.836 181.918s1.52 1.472 1.57 4.12c.048 2.648 1.03 7.408-1.52 8.78-2.552 1.373-9.063.453-9.063.453s7.394-13.99 9.013-13.54"/><path fill="#FCFCD4" d="M121.836 199.38c0 1.682-1.36 3.042-3.042 3.042-1.678 0-3.04-1.36-3.04-3.04v-17.464c0-1.678 1.36-3.04 3.04-3.04s3.042 1.362 3.042 3.04v17.463z"/><path fill="#D0D1D2" d="M119.287 175.297s7.847 2.404 18.54.492c0 0-5.297 4.16-16.185 2.94m12.015-76.86s1.963 2.3 3.556 8.16c0 0-.956-4.98-.563-5.13 0 0-.982-1.96-2.993-3.04M96.6 172.67c.148 3.237 1.62 8.682 4.563 10.448 7.063 4.27 7.063-9.12 7.063-12.65"/><path fill="#6D6F71" d="M108.224 170.466c.096 0 .196.884.217 2.277-.03 1.72-.13 3.686-.52 5.797-.21 1.05-.48 2.148-.99 3.212-.25.53-.56 1.058-1.01 1.51-.43.45-1.02.817-1.67.937-1.37.23-2.57-.38-3.55-1.04-1-.71-1.68-1.69-2.21-2.64-1.04-1.94-1.56-3.9-1.85-5.62-.19-1.36-.1-2.24-.02-2.25.11-.01.2.85.5 2.16.32 1.67.87 3.57 1.89 5.41.52.9 1.17 1.8 2.06 2.42.89.6 2.01 1.12 3.08.92 1.05-.2 1.8-1.13 2.25-2.1.48-.98.75-2.05.97-3.06.41-2.05.54-4 .62-5.7.1-1.38.17-2.27.27-2.27z"/><path fill="#BE202E" d="M98.146 166.787s.957 14.788 4.782 15.01c3.826.22 3.605-15.23 3.605-15.23s-3.017-.073-3.237-1.177c0 0-1.84 3.09-5.327 1.625"/><path fill="#6D6F71" d="M107.98 161.17c.042-.03.246.147.524.534.273.386.645.98.842 1.84.125.608.083 1.38-.34 2.03-.438.636-1.16 1.036-1.883 1.25-.736.232-1.575.326-2.417.112-.214-.04-.42-.117-.62-.23-.21-.084-.397-.222-.567-.39-.09-.083-.19-.15-.25-.25l-.1-.152-.01-.012-.01-.012-.31.59-.44.502c-.66.62-1.57.837-2.35.77-.8-.05-1.52-.342-2.1-.737-.6-.377-1.07-.887-1.39-1.425-.46-.743-.46-1.495-.44-1.96.11-.47.2-.707.26-.693.05.016.07.278.06.706.07.423.14 1.046.59 1.646.3.44.71.87 1.25 1.18.52.33 1.15.56 1.8.59.65.03 1.32-.15 1.81-.61l.33-.39.24-.48c.16-.39.23-.82.35-1.23l.16-.63.08-.31.03-.14.01-.03.01.04.02.09.06.24c.12.51.24 1.02.43 1.5l.13.35.06.11c.04.07.12.11.17.17.11.11.24.22.4.28.14.08.3.15.47.18.66.17 1.38.11 2.02-.08.66-.18 1.22-.5 1.56-.95.32-.46.39-1.04.31-1.57-.26-1.52-.94-2.4-.8-2.47z"/><path fill="#0B8ECC" d="M103.455 159.465s-1.476-3.272-3.803 2.343l3.477 3.185 3.2-2.697s-1.84-5.338-2.88-2.83z"/><path fill="#FFF" d="M100.376 161.782l1.494 1.358s-.283-1.92-1.494-1.358zm4.204 1.468l1.114-.843s-.786-.418-1.114.842zm11.885-39.577s-.4-3.557-1.198-4.36c-.805-.807-4.394-1.23-4.394-1.23s3.62-.448 4.43-1.27c.784-.796 1.16-4.322 1.16-4.322s.38 3.53 1.165 4.33c.807.82 4.428 1.27 4.428 1.27s-3.494.36-4.288 1.13c-.83.81-1.303 4.47-1.303 4.47zm25.75 11.625s-.4-3.557-1.196-4.36c-.81-.81-4.4-1.23-4.4-1.23s3.62-.45 4.43-1.27c.78-.798 1.16-4.323 1.16-4.323s.38 3.525 1.16 4.323c.8.82 4.42 1.27 4.42 1.27s-3.5.353-4.29 1.126c-.84.81-1.31 4.464-1.31 4.464zm-7.228 20.32s-.228-2.063-.688-2.527c-.47-.46-2.55-.71-2.55-.71s2.1-.26 2.57-.74c.45-.46.68-2.51.68-2.51s.21 2.05.67 2.51c.47.48 2.57.73 2.57.73s-2.03.21-2.5.66c-.49.47-.77 2.59-.77 2.59z"/><path d="M189.695 83.15c-.828-1.587-2.094-4.965-3.428-12.057-.342-1.773-.62-3.196-.834-4.255.068-.125.14-.26.22-.405.59-1.088 1.124-2.157 1.59-3.18.655-1.445.987-3.038.987-4.732V54.4c0-3.24-1.266-5.922-3.658-7.76-2.104-1.612-4.658-2.43-7.594-2.43-1.11 0-2.227.296-3.188.913-.27-.27-.555-.515-.873-.712-.922-.59-2.047-.89-3.346-.89-2.1 0-3.36.9-4.05 1.65-.62.68-1.36 1.88-1.36 3.74 0 .04.03 1.04.03 1.04v3.24c0 8.36-.23 14.28-.54 18.48-.13-1.55-.19-2.78-.19-3.66V52.02c0-1.43-.33-2.804-.97-4.086-1.49-2.95-3.86-3.27-4.81-3.27-1 0-3.46.355-4.91 3.62-.06.137-.08.28-.13.423-2.55-3.166-6.17-4.87-10.56-4.87-1.08 0-2.72.323-4.35 1.846-.25.23-.48.5-.7.793-1.62-.817-3.74-1.01-5.29-1.148-2.85-.252-4.77-.374-5.88-.374-1.75 0-3.07.297-4.16.936-.19.113-.35.235-.51.356-.98-.92-2.27-1.43-3.71-1.43-3.22 0-5.46 2.363-5.46 5.747 0 .073 0 .145.01.22l.08 1.466c0 2.07-.01 4.09-.04 6.06-.79-2.34-1.65-4.56-2.55-6.64-1.4-3.22-3.07-6.23-5.78-6.98-.55-.27-1.15-.41-1.75-.41-.85 0-1.69.27-2.39.79-1.67 1.25-2.79 2.87-3.35 4.75-2.57-3.9-6.5-6.01-11.39-6.01-1.08 0-2.72.32-4.35 1.84-.59.55-1.09 1.25-1.55 2.2-.55-1.69-1.41-3.22-2.57-4.55-2.32-2.66-5.62-4.06-9.54-4.06-1.48 0-2.82.49-3.88 1.43-2.09 1.84-2.33 4.88-2.33 7.01v.41l.4 23.77-.29 14.45c0 .56.19 5.46 6.75 5.46h.23c2.04 0 3.96-.46 5.7-1.37 1.66-.87 3.03-1.99 4.09-3.31.47-.59.92-1.24 1.36-1.98.19.47.38.94.61 1.41 2.44 5.09 6.41 5.85 8.56 5.85 3.62 0 6.41-1.51 8.37-4.49 1.44 3.14 4.39 3.34 5.13 3.34 1.55 0 3.01-.62 4.11-1.75 1.38-1.41 1.67-2.89 1.67-3.88 0-.87-.2-1.73-.6-2.59v-6.4c1.89 5.5 2.24 7.24 2.31 7.68-.06.66.05 1.33.32 1.95.04.11.08.27.12.45.28 1.17.7 2.1 1.29 2.85.99 1.24 2.44 1.93 4.09 1.93.79 0 1.74-.18 3.1-.58v.01l-.06.97v.24c0 2.69 2.01 4.71 4.69 4.71 2.81 0 5.16-.58 7.04-1.74.79-.5 1.52-1.07 2.18-1.7.8-.77 1.45-1.67 1.93-2.67.34-.7.68-1.53 1.05-2.54.44-1.21.67-2.79.71-4.9.36 1.08.77 2.16 1.29 3.25 2.44 5.09 6.41 5.85 8.56 5.85 4.33 0 7.48-2.16 9.43-6.42.28.62.6 1.24.96 1.85 1.65 2.81 4.39 4.36 7.72 4.36h.07c4.19 0 6.88-2.68 8.61-6.81l-.03 1.49c-.02 1.02.35 2.01 1.03 2.77l.78.86c.76.84 1.84 1.32 2.98 1.32h1.63c1.18 0 2.28-.52 3.02-1.38 1.14 1.24 2.48 1.87 4.03 1.87 1.62 0 3.07-.69 4.07-1.93.81-1.01 1.25-2.25 1.25-3.6.01-1.11-.33-2.27-1.05-3.64zM87.813 57.89c0-.517.016-1 .048-1.45.01.027.01.054.01.082v.968c0 1.614.13 3.946.4 7.13.25 2.91.38 5.073.38 6.425 0 1.34-.09 3.012-.27 4.95-.04.41-.08.808-.13 1.192-.43-3.08-.65-6.53-.65-10.307l.28-5.31c.01-.093.01-.185.01-.278l-.06-3.4zm33.446 28.903c.45-1.958.86-5.474 1.21-12.618.37-7.698.58-13.957.62-18.634v-.39c.16.06.32.12.5.17l.58 26.66c0 2.55-.41 3.56-.56 3.85-.26.15-.9.47-2.25.94-.04.02-.08.03-.11.05zm23.81-28.903c0-.517.01-1 .05-1.45v1.05c0 1.618.13 3.95.4 7.13.25 2.91.37 5.073.37 6.425 0 1.34-.09 3.01-.27 4.95-.04.408-.09.807-.14 1.19-.43-3.08-.65-6.53-.66-10.305l.28-5.31c0-.093.01-.186 0-.278l-.06-3.4z" opacity=".15"/><path fill="#FFF" d="M188.03 81.15c-.83-1.587-2.096-4.965-3.43-12.057-.34-1.773-.62-3.196-.834-4.255l.22-.405c.59-1.088 1.125-2.157 1.59-3.18.655-1.445.987-3.038.987-4.732V52.4c0-3.24-1.265-5.922-3.658-7.76-2.103-1.612-4.657-2.43-7.593-2.43-1.112 0-2.228.296-3.188.913-.27-.27-.556-.515-.874-.712-.922-.59-2.047-.89-3.346-.89-2.108 0-3.37.9-4.052 1.65-.624.68-1.367 1.88-1.367 3.74 0 .04.03 1.04.03 1.04v3.24c0 8.36-.23 14.28-.547 18.48-.13-1.55-.195-2.78-.195-3.66V50.02c0-1.43-.328-2.804-.977-4.086-1.495-2.95-3.865-3.27-4.814-3.27-.995 0-3.465.355-4.906 3.62-.06.137-.088.28-.132.423-2.555-3.166-6.175-4.87-10.565-4.87-1.09 0-2.73.323-4.36 1.846-.25.23-.48.5-.7.793-1.63-.817-3.74-1.01-5.3-1.148-2.85-.252-4.77-.374-5.88-.374-1.75 0-3.08.297-4.16.936-.19.113-.35.235-.52.356-.99-.92-2.28-1.43-3.71-1.43-3.22 0-5.46 2.363-5.46 5.747v.22l.08 1.466c0 2.07-.02 4.09-.04 6.06-.8-2.34-1.65-4.56-2.55-6.64-1.4-3.22-3.08-6.23-5.79-6.98-.56-.27-1.16-.41-1.75-.41-.85 0-1.69.27-2.4.79-1.68 1.25-2.8 2.87-3.36 4.75-2.57-3.9-6.5-6.01-11.39-6.01-1.09 0-2.72.32-4.36 1.84-.59.55-1.1 1.25-1.55 2.2-.56-1.69-1.41-3.22-2.57-4.55-2.32-2.66-5.62-4.06-9.55-4.06-1.48 0-2.82.49-3.88 1.43-2.09 1.84-2.33 4.88-2.33 7.01v.41l.4 23.77-.28 14.44c0 .56.19 5.46 6.75 5.46h.23c2.04 0 3.95-.47 5.69-1.38 1.65-.87 3.03-1.98 4.09-3.31.46-.58.91-1.24 1.36-1.98.19.47.38.94.6 1.42 2.44 5.09 6.41 5.85 8.56 5.85 3.62 0 6.4-1.52 8.36-4.49 1.43 3.14 4.39 3.34 5.13 3.34 1.55 0 3.01-.62 4.11-1.75 1.37-1.41 1.66-2.89 1.66-3.88 0-.87-.2-1.73-.6-2.59v-6.4c1.88 5.5 2.24 7.24 2.3 7.68-.06.67.05 1.34.31 1.95.04.12.07.27.12.46.27 1.17.69 2.1 1.29 2.85.98 1.24 2.43 1.93 4.08 1.93.79 0 1.74-.18 3.1-.58v.01l-.06.97-.01.23c0 2.69 2.02 4.71 4.69 4.71 2.81 0 5.17-.58 7.04-1.74.8-.51 1.53-1.08 2.18-1.7.8-.77 1.45-1.67 1.93-2.67.34-.7.68-1.53 1.05-2.54.44-1.22.66-2.79.7-4.91.36 1.08.77 2.17 1.29 3.25 2.44 5.09 6.41 5.85 8.56 5.85 4.33 0 7.48-2.15 9.43-6.42.28.62.59 1.24.95 1.85 1.64 2.81 4.38 4.36 7.72 4.36h.07c4.18 0 6.88-2.68 8.6-6.81l-.03 1.49c-.03 1.02.34 2.01 1.02 2.76l.77.86c.76.84 1.84 1.32 2.97 1.32h1.64c1.18 0 2.28-.52 3.02-1.38 1.13 1.24 2.48 1.87 4.02 1.87 1.62 0 3.06-.69 4.07-1.93.81-1.01 1.24-2.25 1.24-3.6 0-1.11-.33-2.27-1.05-3.64zM86.704 73.996c-.04.408-.084.807-.134 1.19-.43-3.078-.648-6.53-.652-10.306l.28-5.31c.006-.093.007-.185.006-.278l-.057-3.4c0-.52.016-1.003.048-1.452l.004.082v.968c0 1.614.13 3.946.4 7.13.24 2.91.37 5.073.37 6.425 0 1.34-.09 3.012-.27 4.95zm35.245 9.82c-.26.143-.9.462-2.25.934-.04.014-.08.03-.11.043.45-1.958.86-5.474 1.21-12.618.37-7.698.58-13.957.62-18.634v-.39c.16.06.32.12.5.17l.58 26.66c0 2.55-.41 3.56-.56 3.85zm22.01-9.822c-.04.41-.09.808-.14 1.192-.43-3.08-.65-6.53-.66-10.306l.28-5.31c0-.093.01-.186 0-.278l-.06-3.4c0-.52.01-1.003.05-1.452v1.05c0 1.618.13 3.95.4 7.13.25 2.91.37 5.073.37 6.425 0 1.34-.09 3.01-.27 4.95z"/><path fill="#0071BC" d="M63.29 69.904l-.4-23.843v-.34c0-2.1.325-3.44.975-4.01.324-.28.735-.43 1.232-.43 2.79 0 4.967.9 6.534 2.7 1.57 1.8 2.35 4.11 2.35 6.94 0 1.78-.46 3.62-1.4 5.53-.93 1.91-2.05 3.34-3.35 4.27 2.39 1.61 4.1 3.65 5.12 6.12 1.02 2.48 1.54 5.07 1.54 7.78 0 1.44-.36 2.91-1.07 4.42-.71 1.51-1.43 2.72-2.15 3.61-.71.9-1.65 1.66-2.82 2.27-1.16.61-2.44.92-3.84.92h-.23c-1.83 0-2.75-.48-2.75-1.46l.29-14.44zM66.9 44.6c-.553 0-.83.702-.83 2.106s.038 3.61.115 6.62c.076 3.01.114 5.192.114 6.548 1.01-.23 1.88-1.07 2.6-2.522.59-1.223 1.08-2.402 1.46-3.54s.63-1.838.74-2.105v-2.092c0-1.146-.43-2.268-1.28-3.367-.85-1.1-1.83-1.648-2.94-1.648zm4.27 35.45c1.108-1.49 1.663-3.21 1.663-5.16s-.163-3.663-.487-5.143c-.325-1.48-.683-2.598-1.075-3.353-.39-.754-.84-1.4-1.36-1.935-.63-.65-1.14-1.05-1.54-1.18h-2.1c.19 5.4.29 11.89.29 19.46 1.97-.31 3.51-1.2 4.62-2.7zm7.567-12.667l.058-2.235c0-.19-.03-.287-.086-.287V63.8c0-6.15.35-10.526 1.06-13.125.59-2.197 1.16-3.554 1.72-4.07.55-.515 1.09-.773 1.63-.773 4.54 0 7.68 2.293 9.4 6.878.99 2.637 1.49 5.885 1.49 9.744v.43l.11 6.648c0 11.253-2.61 16.88-7.83 16.88-2.16 0-3.81-1.195-4.96-3.583-1.09-2.3-1.76-4.55-2.01-6.77-.4-3.35-.61-6.24-.61-8.69zm3.468-8.025l-.287 5.417c0 5.674.458 10.623 1.375 14.845.975 2.464 1.9 3.917 2.78 4.356.707 0 1.347-.287 1.92-.86s1.027-1.342 1.36-2.307c.335-.97.617-1.99.846-3.06.21-1.05.37-2.18.48-3.38.19-2.08.28-3.86.28-5.33s-.13-3.73-.39-6.77-.39-5.3-.39-6.79v-1.03c-.04-1.44-.51-2.71-1.41-3.83-.9-1.12-2.05-1.68-3.44-1.68-1.34 0-2.23.76-2.67 2.27-.36 1.26-.55 2.81-.55 4.67l.05 3.46zm15.56 2.207l.344-10.947c0-1.815.71-3.257 2.14-4.328v.373c.15-.095.29-.143.43-.143.91 0 2.06 1.58 3.44 4.743 1.37 3.162 2.61 6.634 3.72 10.417s2.21 7.6 3.31 11.45c1.1 3.85 1.78 6.108 2.05 6.776.78-8.196 1.17-18.12 1.17-29.775l-.09-1.57c0-1.16.48-1.75 1.46-1.75.55 0 .97.23 1.24.69.28.46.42 1 .42 1.61v4.45c-.04 4.61-.25 10.75-.62 18.44-.38 7.69-.88 12.04-1.51 13.03-1.07.33-1.81.49-2.22.49s-.73-.14-.95-.41c-.22-.27-.4-.7-.53-1.27-.14-.57-.25-.95-.35-1.14l.02-.26c0-1.45-1.4-6.06-4.21-13.84-2.81-7.77-4.85-13.12-6.11-16.05v29.54c.04.08.12.21.23.4.25.42.37.82.37 1.18s-.18.73-.53 1.09c-.36.37-.77.55-1.25.55-1.28 0-1.92-1.19-1.92-3.58l-.12-20.12zm31.352-11.92l.602 24.73v6.25c0 1.947-.16 3.356-.48 4.225s-.61 1.59-.89 2.164c-.28.573-.65 1.08-1.1 1.52-.46.438-.98.84-1.55 1.203-1.21.745-2.84 1.118-4.9 1.118-.46 0-.69-.24-.69-.716l.06-.98c0-.23.28-.44.83-.63 2.02-.71 3.3-1.34 3.81-1.89 1.12-1.23 1.69-3.45 1.69-6.68l-.66-29.98v-.26c-1.49 0-2.56-.13-3.2-.39-.64-.26-1.02-.46-1.13-.59-.12-.14-.17-.34-.17-.62 0-.28.22-.55.65-.8.44-.26 1.15-.39 2.13-.39s2.82.12 5.53.36c2.7.24 4.05.56 4.05.97 0 .41-.16.74-.48.99-.32.25-.69.37-1.13.37h-3zm6.878 17.738l.058-2.235c0-.19-.03-.287-.086-.287V63.8c0-6.15.353-10.526 1.06-13.125.592-2.197 1.165-3.554 1.72-4.07.554-.515 1.1-.773 1.634-.773 4.55 0 7.68 2.293 9.4 6.878 1 2.637 1.49 5.885 1.49 9.744v.43l.12 6.648c0 11.253-2.6 16.88-7.82 16.88-2.16 0-3.81-1.195-4.95-3.583-1.09-2.3-1.76-4.55-2-6.77-.4-3.35-.6-6.24-.6-8.69zm3.468-8.025l-.287 5.417c0 5.674.46 10.623 1.376 14.845.975 2.464 1.9 3.917 2.78 4.356.706 0 1.346-.287 1.92-.86s1.026-1.342 1.36-2.307c.334-.97.616-1.99.846-3.06.21-1.05.372-2.18.487-3.38.19-2.08.286-3.86.286-5.33s-.12-3.73-.38-6.77-.38-5.3-.38-6.79v-1.03c-.04-1.44-.5-2.71-1.4-3.83-.9-1.12-2.04-1.68-3.44-1.68-1.33 0-2.22.76-2.66 2.27-.36 1.26-.54 2.81-.54 4.67l.06 3.46zm29.774-.2l.058 1.003c0 17.37-2.52 26.05-7.565 26.05-1.95.02-3.392-.77-4.327-2.37-.975-1.64-1.567-3.27-1.777-4.9-.325-2.5-.51-5.37-.56-8.61s-.07-7.91-.07-14.02l-.258-8.39c.362-.82.778-1.23 1.246-1.23s.884.36 1.247 1.08c.37.72.55 1.48.55 2.28V66c0 1.394.14 3.466.42 6.218.28 2.75.42 4.824.42 6.22 0 2.865 1.24 4.297 3.73 4.297 2.79 0 4.19-10.517 4.19-31.55v-3.3l-.03-.976c0-.46.11-.81.32-1.04.21-.23.58-.34 1.11-.34s.92.08 1.19.26c.24.15.43.38.54.68.15.47.24 1.1.26 1.89l-.4 5.9-.26 4.9zm7.078 6.505l-.057 6.362c0 5.177.372 9.256 1.117 12.236l-.66 1.58h-1.633l-.773-.86c.03-1.75.05-3.73.05-5.91s-.17-6.86-.5-14.02-.5-12.51-.5-16.05c0-1.85.65-2.78 1.94-2.78 2.04 0 3.76.54 5.16 1.61 1.39 1.07 2.09 2.6 2.09 4.59v4.13c0 1.13-.21 2.16-.63 3.09-.42.93-.91 1.9-1.46 2.93-.56 1.02-.86 1.59-.92 1.71.21.96.58 2.83 1.12 5.62 1.14 6.1 2.41 10.48 3.81 13.16.4.77.6 1.37.6 1.8 0 .43-.12.79-.36 1.09s-.56.44-.96.44c-.82 0-1.61-.94-2.37-2.82s-1.36-3.97-1.82-6.26c-1.4-7.01-2.25-10.87-2.55-11.58h-.72zm.23-17.28l-.2.83c0 1.605.038 3.922.114 6.95.07 3.028.11 5.23.11 6.605.91-.477 1.65-1.724 2.22-3.74.56-2.015.84-3.558.84-4.628s-.03-1.858-.09-2.364c-.06-.506-.18-1.065-.37-1.677-.39-1.26-1.26-1.92-2.64-1.98z"/></svg>