<svg xmlns="http://www.w3.org/2000/svg" width="250" height="250" viewBox="0 0 250 250"><path d="M226.893 91.06c-2.878-8.184-8.93-12.877-16.602-12.877-2.4 0-4.96.47-7.6 1.397-6.9 2.426-12.29 9.978-15.66 16.023-5.18-3.604-11.65-5.434-19.32-5.434-5.83 0-11.28 1.07-15.23 2.13.02-.38.02-.75.03-1.12v-.03c8.99-2.61 25.26-8.62 31.13-19.19 1.35-2.43 2.37-4.89 3.03-7.3l.87-3.2-6.74-3.29 6.92-2.72-1.12-3.57c-1.83-5.79-6.18-10.73-12.58-14.29-4.54-2.52-9.08-3.8-13.49-3.8-3.47 0-7.76.81-11.99 3.7-6.58-10.99-15.06-13.36-21.09-13.36-4.67 0-9.47 1.37-14.27 4.09-14.09 7.97-17.85 21.76-9.8 35.99.48.85 1.04 1.66 1.64 2.46-.4.64-.78 1.31-1.14 2.01-2.49 4.93-3.17 9.89-1.95 14.34.95 3.48 3.58 8.39 10.73 12.01 1.03.52 2.16.95 3.37 1.28h-.07c-26.24 0-49 15.16-60 37.18-4.39-3.9-7.86-7.27-10.24-9.68.09-.38.14-.78.15-1.18.4-1 .67-2.07.77-3.2.29-3.1-.55-6.36-2.37-9.19-2.63-4.08-6.92-6.62-11.19-6.62-1.96 0-3.84.54-5.44 1.57-5.22 3.36-6.24 11.09-2.29 17.23 2.63 4.08 6.92 6.62 11.19 6.62.02 0 .04-.01.05-.01 3.64 13.68 7.77 25.86 12.38 36.5.13 4.06.62 8.03 1.44 11.88-3.56 5.15-5.67 10.84-2.22 15.23 2.01 2.55 5.38 3.69 9.47 3.74 5.6 9.84 13.6 18.14 23.23 24.07l2.83 1.66 8.96 4.12c1.08.39 2.16.76 3.26 1.1.18.05.36.1.54.16.82.25 1.64.48 2.47.7.3.07.59.14.89.22.73.18 1.46.35 2.19.5l1.04.21c.69.13 1.39.26 2.09.37l1.12.18c.7.1 1.39.18 2.09.26.38.04.75.09 1.13.12.74.07 1.49.13 2.23.17.34.02.67.05 1 .07 1.08.05 2.16.08 3.25.08 1.01 0 2.02-.03 3.03-.08.25-.01.5-.02.75-.04.93-.05 1.85-.12 2.78-.21.32-.03.63-.07.94-.11.65-.07 1.31-.15 1.96-.25l1.08-.15c.81-.13 1.61-.28 2.4-.43l1.28-.27c.57-.12 1.12-.25 1.68-.39.52-.13 1.04-.26 1.55-.4.65-.18 1.29-.36 1.92-.55l1.01-.32c.87-.27 1.73-.56 2.58-.87l.29-.11c.91-.34 1.81-.7 2.7-1.07l.22-.09c2.16-.92 4.27-1.94 6.32-3.08l2.87-1.59-.03-.11c9.36-5.82 17.17-13.87 22.71-23.41 1.17-.27 2.53-.87 3.9-2.06.57-.48 2.73-2.54 3.52-6.08 4.89-4.39 8.83-8.38 11.6-11.32.38-.02.76-.08 1.12-.19.34.03.68.07 1.03.07 4.27 0 8.56-2.54 11.19-6.63 3.96-6.15 2.93-13.87-2.29-17.23-1.59-1.03-3.47-1.57-5.44-1.57-.83 0-1.66.1-2.49.28-.09-.49-.24-.98-.5-1.44-.11-1.26-.5-2.79-1.58-4.05-1.1-1.29-2.68-2.02-4.45-2.05-1.32-1.61-3.27-2.79-5.76-2.79-.6 0-1.21.08-1.83.22-.41-.09-.85-.14-1.31-.14-.38 0-.77.04-1.15.1-.17-.5-.33-1.01-.51-1.5 3.3-.24 6.19-1.24 8.6-2.93 4.58 4.91 9.4 6.03 12.82 6.03 3.95 0 8.02-1.48 11.79-4.27 8.83-6.57 10.59-16.01 4.84-24.98 9.74-4.24 13.53-13.04 9.89-23.39zm-29.512 73.966c-.16.247-.33.442-.51.613-.3-.23-.62-.41-.97-.56.08-.25.19-.51.37-.78.52-.8 1.21-1.19 1.6-1.24.1.31.09 1.1-.47 1.96zM34.7 117.36c-.178-.172-.354-.366-.513-.613-.555-.862-.57-1.648-.474-1.963.385.05 1.078.44 1.594 1.24.176.273.283.53.364.776-.34.15-.67.334-.97.56zm103.008-22.562c-.44 1.73-.98 3.324-1.525 4.704-3.393-1.078-6.9-1.892-10.502-2.42 4.31-.323 8.61-1.303 12.03-2.284zm47.36 75.047c.09-.063.177-.137.267-.203l.02.08c-.095.04-.19.084-.286.123zm-25.235-57.032c-1.143-.993-2.313-1.957-3.52-2.873l.017-.012c.33-.227.66-.445.988-.657.2-.12.4-.26.598-.38.23-.14.46-.27.688-.41.176-.1.35-.21.524-.31l.697-.39c.167-.09.333-.18.498-.26l.703-.36c.156-.07.31-.14.466-.22.24-.11.48-.23.72-.33.105-.04.208-.08.313-.13.474-.2.946-.38 1.415-.55.163-.06.325-.12.487-.17.21-.07.42-.13.63-.19.13-.04.26-.08.392-.11-2.19 2.23-4.19 4.72-5.61 7.39z" opacity=".15"/><path fill="#FAAF40" d="M225.328 87.735c-2.878-8.185-8.93-12.878-16.602-12.878-2.408 0-4.968.47-7.605 1.397-6.89 2.426-12.29 9.978-15.66 16.023-5.18-3.604-11.65-5.434-19.32-5.434-5.83 0-11.28 1.075-15.23 2.132.03-.382.02-.743.03-1.12v-.024c8.99-2.6 25.26-8.61 31.14-19.18 1.35-2.43 2.37-4.88 3.03-7.29l.87-3.19-6.74-3.28 6.93-2.71-1.12-3.56c-1.83-5.79-6.18-10.73-12.58-14.28-4.54-2.52-9.08-3.8-13.49-3.8-3.46 0-7.76.82-11.98 3.7-6.59-10.99-15.07-13.36-21.1-13.36-4.67 0-9.47 1.38-14.27 4.09-14.09 7.97-17.85 21.76-9.8 35.99.48.85 1.04 1.67 1.64 2.46-.4.64-.78 1.31-1.14 2.01-2.49 4.93-3.17 9.89-1.95 14.35.95 3.49 3.59 8.4 10.73 12.02 1.03.52 2.16.95 3.37 1.28l-.07-.01c-26.24 0-49 15.16-60 37.18-4.4-3.89-7.87-7.27-10.24-9.68.09-.38.13-.77.14-1.17.4-1 .67-2.07.77-3.2.29-3.1-.55-6.36-2.37-9.18-2.63-4.08-6.92-6.62-11.19-6.62-1.96 0-3.84.55-5.44 1.58-5.22 3.36-6.24 11.09-2.29 17.23 2.63 4.09 6.92 6.63 11.19 6.63h.05c3.63 13.69 7.76 25.86 12.38 36.51.13 4.06.62 8.03 1.44 11.88-3.57 5.15-5.68 10.84-2.23 15.23 2.01 2.56 5.39 3.69 9.47 3.75 5.6 9.84 13.61 18.14 23.23 24.08l2.83 1.66 8.95 4.1c1.08.4 2.17.77 3.26 1.11.18.06.37.11.55.16.82.25 1.64.49 2.47.71.29.08.59.14.88.22.73.18 1.46.35 2.19.51l1.05.21c.7.14 1.4.26 2.1.37.37.06.74.12 1.12.18.69.1 1.39.18 2.09.26.38.04.75.09 1.13.12.74.07 1.49.12 2.23.17.34.02.67.05 1 .06 1.08.05 2.16.08 3.25.08 1.01 0 2.02-.03 3.03-.08l.75-.03c.93-.05 1.86-.12 2.78-.21.32-.03.63-.07.94-.1.65-.07 1.31-.15 1.96-.25.36-.05.73-.1 1.08-.15.8-.13 1.6-.27 2.4-.43.43-.09.86-.18 1.28-.27.56-.12 1.12-.25 1.68-.39l1.55-.39c.65-.17 1.29-.36 1.93-.55l1.01-.31c.87-.27 1.73-.56 2.58-.87.1-.04.19-.08.29-.11.91-.34 1.81-.7 2.7-1.07l.21-.09c2.16-.91 4.27-1.93 6.33-3.07l2.88-1.59-.03-.11c9.35-5.82 17.17-13.88 22.7-23.42 1.17-.28 2.52-.87 3.9-2.06.57-.48 2.73-2.54 3.52-6.08 4.89-4.38 8.83-8.37 11.6-11.32.38-.01.76-.08 1.12-.19.34.03.68.07 1.03.07 4.27 0 8.56-2.54 11.19-6.62 3.96-6.15 2.93-13.87-2.29-17.23-1.59-1.03-3.48-1.57-5.44-1.57-.83 0-1.66.1-2.49.29-.09-.49-.24-.98-.5-1.44-.11-1.26-.5-2.78-1.58-4.05-1.1-1.29-2.68-2.01-4.45-2.04-1.32-1.61-3.27-2.79-5.76-2.79-.59 0-1.21.08-1.82.22-.42-.08-.85-.13-1.31-.13-.38 0-.77.04-1.15.11-.17-.5-.33-1.01-.51-1.5 3.3-.24 6.19-1.24 8.6-2.93 4.57 4.91 9.4 6.03 12.82 6.03 3.95 0 8.02-1.48 11.78-4.28 8.83-6.56 10.6-16.01 4.85-24.98 9.74-4.23 13.53-13.03 9.89-23.39zm-41.562 78.58l.02.082c-.096.04-.19.083-.286.122l.266-.21zm-29.024-59.7l.018-.012c.33-.227.66-.445.988-.657.2-.13.4-.26.598-.384.23-.143.458-.277.687-.412.175-.104.35-.208.523-.308.232-.134.464-.262.696-.388.166-.09.332-.178.497-.265.23-.13.47-.25.7-.36.15-.08.31-.15.46-.22.24-.12.48-.23.72-.34.1-.05.21-.09.31-.13.47-.2.94-.39 1.41-.56l.48-.18c.21-.07.42-.14.62-.2l.39-.12c-2.19 2.22-4.19 4.71-5.61 7.38-1.15-1-2.32-1.96-3.53-2.88zM136.14 91.473c-.44 1.73-.98 3.324-1.526 4.704-3.393-1.078-6.9-1.892-10.502-2.42 4.31-.323 8.602-1.303 12.027-2.284zM32.143 111.46c.385.05 1.078.44 1.594 1.24.176.272.283.53.364.775-.34.15-.67.333-.97.56-.18-.172-.35-.366-.51-.613-.55-.862-.57-1.65-.47-1.963zm164.145 48.28c.095.313.08 1.1-.474 1.96-.16.248-.336.443-.515.614-.3-.226-.63-.41-.97-.56.08-.244.19-.5.36-.773.51-.8 1.21-1.19 1.59-1.24z"/><circle fill="#3FD8D8" cx="114.344" cy="160.093" r="63.055"/><path fill="#A67C52" d="M114.344 223.148c11.082 0 21.492-2.865 30.54-7.886-.366-1.145-.84-1.933-.84-1.933 38.944-17.78.84-66.57-2.13-80.98-2.97-14.41 3.252-23.12 3.252-23.12 34.475-32.14 49.88 10.88 49.88 10.88-.085-.94-.194-1.84-.314-2.72-1.97-6.75-4.758-13.15-8.264-19.07-14.145-14.38-40.274-3.64-40.274-3.64C151.25 65.52 130.18 63.7 130.18 63.7c20.977 14.327 5.297 39.85 5.297 39.85-20.516 30.682 10.475 60.692 5.21 83.375-2.663 11.463-17.538 4.518-20.825 11.13-2.19 4.405-12.916 13.534-21.35 18.777-2.03 1.262-2.96 1.916-5.084 2.25-.318.05-.652.1-.99.15 6.824 2.53 14.203 3.916 21.906 3.916z"/><path fill="#779232" d="M202.448 80.028c-10.005 3.518-17.122 21.772-17.122 21.772s16.977 9.782 26.98 6.265c10.005-3.52 11.97-11.262 9.248-19.003-2.722-7.742-9.103-12.55-19.106-9.034z"/><path fill="#9EB13F" d="M211.177 111.966c-6.325-8.514-25.868-9.9-25.868-9.9s-4.32 19.113 2.01 27.626c6.32 8.513 14.3 8.095 20.89 3.2 6.58-4.895 9.29-12.413 2.96-20.926z"/><path fill="#754C24" d="M141.256 142.884s-11.3-18.807.363-35.03c4.78-6.66 15.49-9.634 23.54-10.163-5.77 1.06-12.43 4.49-20 11.55 0 0-6.22 8.71-3.25 23.12 2.78 13.52 36.48 57.29 8.5 77.33 14.64-26.96-9.17-66.8-9.17-66.8zm4.16-66.567c1.578 4.416 2.168 10.36.778 18.38l-3.433 2.112c.01 0 3.28-9.23 2.66-20.5z"/><path fill="#55B53F" d="M189.48 121.03c2.02-10.413-10.135-25.78-10.135-25.78s-17.02 9.71-19.04 20.12 3.668 16.018 11.724 17.58c8.05 1.565 15.43-1.51 17.45-11.92z"/><path fill="#F15A22" d="M37.428 119.31s77 87.667 155.334 47.334c0 0-47 51-90.668 37.667-43.666-13.33-60.333-70.95-64.666-85z"/><path fill="#FFF" d="M97.39 168.543l2.26-1.188c.66-.394 1.447-.84 2.354-1.405.906-.59 1.933-1.244 3-2.04.545-.38 1.09-.805 1.648-1.253.567-.437 1.14-.9 1.708-1.407.58-.49 1.164-1.006 1.733-1.56.588-.537 1.162-1.11 1.73-1.708 1.156-1.174 2.246-2.473 3.31-3.81 1.015-1.37 2.022-2.776 2.834-4.254.815-1.47 1.525-2.976 1.976-4.44.44-1.45.62-2.87.465-3.882-.158-1.052-.522-1.43-1.065-1.786-.57-.347-1.495-.633-2.556-.65-1.02-.07-2.09.026-3.045.165-.946.102-1.826.355-2.52.474l-2.242.61-2.02-7.29 2.714-.61c.91-.12 1.95-.36 3.26-.45 1.29-.12 2.782-.2 4.534.01 1.7.16 3.818.64 5.877 2.11 1.024.72 1.938 1.77 2.6 2.96.303.59.54 1.22.746 1.85.13.61.3 1.26.34 1.86.2 2.46-.32 4.65-1.02 6.66-.73 2-1.71 3.81-2.78 5.54-1.07 1.73-2.3 3.29-3.54 4.79-1.28 1.46-2.58 2.85-3.93 4.1-.66.63-1.33 1.24-2.01 1.8-.66.58-1.33 1.12-1.99 1.63-.65.52-1.3 1-1.95 1.45-.63.46-1.25.89-1.87 1.28-1.21.81-2.37 1.47-3.39 2.07-1.04.58-1.99 1.06-2.75 1.46l-2.31 1.07-2.08-4.2z"/><path fill="#D0D1D2" d="M127.652 184.69s.788.1 2.168.272c.686.083 1.55.218 2.428.236l1.43.077.77.043c.267-.006.54-.012.818-.02.555-.01 1.133-.02 1.73-.033.6-.006 1.198-.116 1.82-.17.622-.062 1.26-.118 1.89-.273.633-.142 1.287-.23 1.93-.415.64-.19 1.29-.387 1.946-.584.64-.255 1.287-.512 1.94-.77 1.29-.585 2.58-1.22 3.85-1.987.64-.35 1.272-.755 1.9-1.168.627-.408 1.252-.797 1.87-1.243 1.237-.847 2.455-1.723 3.637-2.595l6.53-4.84c1.95-1.425 3.58-2.608 4.74-3.42l1.82-1.283 5.09 8.252s-.68.37-1.87 1.04c-1.2.65-2.9 1.62-4.93 2.8l-7.04 4.12c-1.31.76-2.68 1.54-4.12 2.31-.7.39-1.46.76-2.2 1.14-.74.38-1.5.75-2.29 1.08-1.54.71-3.18 1.32-4.8 1.84-.83.23-1.65.47-2.47.68l-2.47.46c-.81.13-1.62.17-2.4.25-.78.09-1.55.09-2.29.08-.74-.02-1.47.03-2.15-.04-.69-.06-1.35-.12-1.98-.17l-.93-.09-.89-.15-1.63-.27c-1.05-.15-1.84-.37-2.52-.52l-2.13-.51.75-4.19z"/><path fill="#FFF" d="M62.51 169.395s35.748 59.024 67.252 32.25c6.483-5.512 16.134-28.63-6.4-34.11-7.982-1.94-18.6 5.775-27.6-2.558"/><path fill="#D0D1D2" d="M88.028 176.535s23 28.833 41.833 13c3.78-3.17 6.5-15.333-6.33-18.667 0 0-6.5-1-11.83 2.834-5.33 3.833-13-1.333-13-4s-12.83 3.333-12.83 3.333l2.17 3.5z"/><path fill="#FFF" d="M118.317 194.158l2.29-.213c.73-.066 1.616-.147 2.598-.27.99-.12 2.105-.225 3.314-.412 1.21-.166 2.52-.358 3.87-.62 1.37-.22 2.77-.57 4.21-.9.71-.196 1.43-.396 2.16-.6.72-.204 1.43-.476 2.16-.71.73-.224 1.43-.54 2.14-.82l1.06-.432 1.04-.49c1.39-.62 2.73-1.4 4.04-2.14l1.91-1.19c.63-.39 1.23-.85 1.83-1.25 1.2-.8 2.32-1.73 3.39-2.53l2.97-2.44c.9-.79 1.73-1.52 2.46-2.17.73-.64 1.35-1.25 1.87-1.72l1.63-1.51 7.62 9.33-1.96 1.35c-.63.43-1.37.96-2.26 1.54l-2.99 1.94-3.65 2.2c-1.35.73-2.7 1.55-4.23 2.28-.76.37-1.5.77-2.29 1.12l-2.41 1.06c-1.66.65-3.34 1.31-5.09 1.81l-1.3.39-1.31.32c-.88.21-1.74.45-2.61.58-.87.15-1.73.34-2.58.45l-2.51.31c-1.64.13-3.23.28-4.72.31-1.49.07-2.89.07-4.18.06-1.28.01-2.46-.05-3.5-.07-1.05-.02-1.93-.07-2.66-.11l-2.3-.12-.09-4.25z"/><path fill="#D0D1D2" d="M101.678 127.238s7.886-7.903 6.917 4.67l-2.104-.73-4.81-3.94z"/><ellipse transform="rotate(61.7 85.8 150.6)" fill="#FFF" cx="85.768" cy="150.546" rx="24.28" ry="30.302"/><ellipse transform="rotate(61.7 88.9 148.5)" fill="#D0D1D2" cx="88.858" cy="148.535" rx="19.343" ry="25.358"/><ellipse transform="rotate(61.7 100 140.6)" fill="#FFF" cx="100.057" cy="140.562" rx="10.24" ry="10.391"/><ellipse transform="rotate(61.7 78.9 152.2)" fill="#FFF" cx="78.896" cy="152.215" rx="12.741" ry="12.825"/><path fill="#919396" d="M59.414 149.62c.002-.01-.668 6.548.158 8.128l-1.438-.84s-10.096-5.137 1.28-7.29z"/><path fill="#D0D1D2" d="M61.045 146.903s-7.22-.646-9.557 3.498c0 0-2.502 6.34 7.23 9.24l2.454.88s.714-1.51-.544-3.27c0 0-11.803-4.32-.102-7.1 0 0 1.59-1 .52-3.23z"/><circle fill="#0071BC" cx="76.469" cy="151.99" r="9.678"/><circle fill="#0F4481" cx="74.148" cy="151.417" r="4.971"/><circle fill="#FFF" cx="75.027" cy="150.7" r="2.642"/><circle fill="#FFF" cx="69.93" cy="153.97" r="1.286"/><circle fill="#0071BC" cx="98.854" cy="140.83" r="7.958"/><circle fill="#0F4481" cx="96.944" cy="140.358" r="4.087"/><circle fill="#FFF" cx="97.667" cy="139.768" r="2.173"/><circle fill="#FFF" cx="93.475" cy="142.458" r="1.057"/><path fill="#FFF200" d="M37.428 119.31s43.334 142 155.334 47.334c0 0-110.668 132.334-155.334-47.333z"/><path fill="#FFF" d="M83.408 183.767l-.572.367c-.38.24-.935.594-1.642 1.043-.783.45-1.756 1.07-2.833 1.628-1.07.6-2.32 1.217-3.69 1.87-1.38.635-2.89 1.286-4.53 1.9-1.65.596-3.4 1.203-5.29 1.676-1.89.49-3.88.91-6.04 1.11-2.16.19-4.46.27-7.14-.41-.64-.13-1.38-.44-2.08-.74-.34-.12-.74-.4-1.09-.61-.36-.25-.72-.43-1.07-.78-.35-.32-.69-.66-1.01-1.01-.3-.37-.57-.81-.83-1.24-.28-.43-.45-.87-.59-1.33-.14-.45-.31-.94-.37-1.37-.09-.83-.2-1.78-.09-2.47.04-.37.08-.74.13-1.11.05-.37.15-.65.23-.98.17-.63.34-1.28.58-1.79.23-.53.44-1.11.68-1.58.5-.95.99-1.9 1.53-2.69l.79-1.22.81-1.1c.53-.74 1.07-1.41 1.6-2.04.53-.63 1.03-1.26 1.54-1.81 1.01-1.12 1.94-2.14 2.79-2.98.84-.86 1.58-1.61 2.21-2.19l1.95-1.86 6.04 6.55-1.81 1.72c-.59.54-1.26 1.22-2.03 2-.79.77-1.61 1.67-2.51 2.66-.47.49-.88 1.02-1.34 1.56-.46.54-.91 1.1-1.33 1.68l-.66.89-.59.9c-.43.62-.72 1.22-1.06 1.83-.26.59-.55 1.21-.64 1.67-.03.12-.1.27-.1.35 0 .09-.01.17-.02.26-.07.22.03.2-.02.3-.01.03.03-.02.01-.02-.02 0-.04-.01-.03-.05 0-.03-.05-.05-.06-.06.02-.02.01-.03 0-.02-.05.01.05.02.07.04.05.02.02.07.13.09.18.05.29.15.58.2.99.27 2.53.32 4.06.18 1.54-.12 3.15-.45 4.69-.84 1.55-.37 3.04-.89 4.45-1.38 1.41-.52 2.72-1.07 3.92-1.61 1.19-.56 2.28-1.09 3.22-1.61.97-.49 1.69-.96 2.34-1.32.67-.4 1.24-.78 1.61-1.01l.57-.36 4.63 7.25z"/><path fill="#D0D1D2" d="M39.274 109.138c-2.765-4.295-7.736-6.02-11.103-3.854-3.36 2.168-3.85 7.407-1.09 11.702s7.74 6.02 11.11 3.854c3.37-2.167 3.86-7.407 1.09-11.702zm-2.875 8.928c-2.17 1.395-5.37.284-7.15-2.48-1.78-2.764-1.47-6.135.7-7.53 2.16-1.395 5.36-.283 7.14 2.48 1.78 2.764 1.46 6.136-.7 7.53z"/><path fill="#FFF200" d="M36.953 116.952s1.906-.39 2.156 2.89c0 0 .53.767.98.064.7-1.087-.97-4.22-2.74-3.906 0 0-.74.202-.41.952z"/><path fill="#F15A22" d="M36.277 117.65s1.906-.39 2.156 2.89c0 0 .53.767.984.064.7-1.087-.97-4.22-2.734-3.906 0 0-.74.202-.406.952z"/><path fill="#FFF200" d="M35.36 118.046s1.905-.39 2.155 2.89c0 0 .53.767.984.064.7-1.087-.97-4.22-2.74-3.906 0 0-.74.202-.41.952z"/><path fill="#F15A22" d="M34.516 118.655s1.906-.39 2.156 2.89c0 0 .53.767.984.064.7-1.09-.97-4.22-2.734-3.91 0 0-.738.2-.406.95z"/><path fill="#D0D1D2" d="M190.25 169.12c3.366 2.167 8.338.44 11.103-3.854s2.276-9.534-1.09-11.702c-3.367-2.167-8.34-.44-11.104 3.854s-2.28 9.535 1.09 11.702zm1.082-10.304c1.78-2.764 4.98-3.875 7.146-2.48 2.167 1.396 2.48 4.767.702 7.53-1.78 2.765-4.98 3.875-7.146 2.48s-2.48-4.766-.702-7.53z"/><path fill="#FFF200" d="M191.48 165.232s-1.906-.39-2.156 2.89c0 0-.53.767-.984.064-.7-1.087.97-4.22 2.734-3.906 0 0 .74.202.406.952z"/><path fill="#F15A22" d="M192.156 165.93s-1.906-.39-2.156 2.892c0 0-.53.766-.984.063-.7-1.087.97-4.22 2.734-3.906 0-.01.74.2.406.95z"/><path fill="#FFF200" d="M193.074 166.326s-1.906-.39-2.156 2.89c0 0-.53.767-.984.064-.7-1.087.97-4.22 2.734-3.906 0 0 .738.202.406.952z"/><path fill="#F15A22" d="M193.918 166.936s-1.906-.39-2.156 2.89c0 0-.53.767-.984.064-.7-1.087.97-4.22 2.734-3.906 0-.002.738.202.406.952z"/><path fill="#D0D1D2" d="M95.885 161.95c4.22 3.962 6.795 4.89 7.96 3.944 1.145-.932.683-3.424-2.23-8.246"/><path fill="#6D6F71" d="M95.885 161.95s.26.142.673.438c.42.29.983.723 1.65 1.263.677.53 1.487 1.11 2.415 1.61.467.24.962.47 1.477.59.508.12 1.052.14 1.436-.11.038-.02.115-.07.124-.08l.155-.15c.062-.1.12-.15.165-.27.107-.2.135-.46.154-.71.01-.51-.095-1.05-.244-1.55-.287-1.01-.72-1.91-1.09-2.68-.388-.76-.672-1.42-.885-1.88-.2-.46-.3-.74-.3-.74s.193.22.505.63c.296.42.72 1.01 1.123 1.78.396.78.85 1.7 1.173 2.76.165.53.296 1.11.294 1.72-.017.31-.046.64-.192.95-.05.15-.18.33-.284.46l-.152.15c-.093.09-.15.11-.227.17-.61.39-1.324.3-1.894.16-.58-.15-1.1-.4-1.59-.67-.96-.54-1.77-1.16-2.46-1.71-1.37-1.08-2.02-2.08-2.02-2.08z"/><path fill="#BE202E" d="M99.94 156.854c-1.075.232-2.36-.413-3.024-1.35.543 1.426.092 3.163-.973 4.35 2.943 2.765 5.322 4.23 6.135 3.568.8-.65-.105-3.203-2.138-6.568z"/><path fill="#6D6F71" d="M100.956 151.93c.038-.033.738.622 1.005 2.096.16 1.04-.34 2.35-1.56 2.978-.63.304-1.37.22-2-.017-.16-.056-.32-.118-.47-.214l-.22-.13c-.08-.048-.16-.093-.15-.096l-.1-.083v.017l.01.07c0 .03.01-.01.01.06v.19c-.01 1.76-1 3.32-2.31 4.11-.66.4-1.4.61-2.1.6-.7-.03-1.34-.13-1.9-.44-1.22-.76-1.69-1.51-1.65-1.56.08-.1.72.55 1.87 1.13.97.44 2.36.51 3.49-.23 1.13-.69 1.99-2.1 2-3.6l.01-.16c0-.04-.04-.22-.06-.32l-.16-.72c-.05-.23-.14-.51-.21-.76l-.11-.38-.06-.19c-.02-.05 0-.03.03 0l.06.08.76.89.7.7c.05.05.13.13.16.15l.1.06.19.11c.12.09.25.14.39.19.53.21 1.11.27 1.56.06.43-.2.83-.6 1.04-1.04.25-.43.29-.91.27-1.36-.12-1.3-.65-2.09-.52-2.14z"/><path fill="#0B8ECC" d="M95.05 152.01s-2.493-1.755-1.768 3.356l3.917.828 1.18-3.358c0-.002-3.65-3.11-3.33-.825z"/><path fill="#FFF" d="M93.8 155.035l1.68.35s-1.037-1.284-1.68-.35zm3.71-.743l.45-1.097s-.756.033-.45 1.097z"/><g fill="#D0D1D2"><path d="M185.83 145.863s-1.04-4.482-5.283-2.966c-4.242 1.515-13.86 9.387-10.307 34.368 0 0 1.64 4.213 5.392 2.28 0 0 2.085-.976 2.86-3.642s-.594-9.432.674-11.68c0 0 5.813-1.367 5.17-8.907 0 0 2.994 2.583 5.18-1.938 2.184-4.52.447-4.236.447-4.236s.85-5.386-4.134-3.28z"/><path d="M178.768 147.22c-.594 2.413-.116 6.52 3.413 5.722 2.58-.556 4.35-4.677 3.69-7.044"/><path d="M182.504 152.842c.014-.056-.085-.14.04-.168.778 1.68 1.634 3.335 3.948 2.103 1.986-1.058 3.342-4.386 3.45-5.55m-13.262 13.968c.182-.49.643-.676 1.022-1 1.383-1.028 2.556-2.405 2.535-4.255"/></g><path fill="#FFF" d="M175.996 143.975s-2.64-5.204-7.404-2.052c-4.766 3.15-14.223 15.763-2.273 45.452 0 0 3.29 4.69 7.33 1.173 0 0 2.27-1.832 2.42-5.352.14-3.52-3.6-11.437-2.72-14.59 0 0 6.74-3.445 3.66-12.535 0 0 4.47 2.28 5.79-3.95 1.32-6.23-.74-5.35-.74-5.35s-.59-6.89-6.09-2.78z"/><path fill="#6D6F71" d="M176.045 144.008c.06-.054.682.696.9 2.127.176 1.16.11 2.515-.265 3.918-.392 1.37-1.103 2.922-2.583 3.842-.743.423-1.548.73-2.407.685-.85-.026-1.632-.432-2.173-.967-1.094-1.092-1.52-2.44-1.775-3.574-.265-1.37-.11-2.26-.03-2.26.114 0 .137.86.5 2.14.277 1.07.742 2.33 1.708 3.25.48.45 1.104.76 1.794.78.685.04 1.42-.24 2.06-.61 1.262-.77 1.956-2.18 2.342-3.47.376-1.32.473-2.6.347-3.7-.092-1.36-.522-2.14-.418-2.19z"/><path fill="#6D6F71" d="M182.08 146.87c.09-.024.313.894.138 2.297-.085.754-.264 1.602-.548 2.5-.13.452-.354.896-.54 1.368l-.394.674c-.13.22-.267.45-.464.65l-.552.62c-.217.16-.404.35-.638.49-.434.3-.945.52-1.47.58-1.093.11-1.942-.53-2.463-1.06-.67-.68-1.03-1.28-1.21-1.58l.11.02c-.07-.07.01.16-.04.14-.02 0-.04-.02-.07-.04-.04 0-.14-.17.02-.27l.11.02c.27.22.72.76 1.39 1.34.53.48 1.25.94 2.06.82.4-.06.81-.23 1.19-.51.2-.12.37-.3.56-.45l.48-.55c.17-.17.3-.38.42-.59.12-.21.25-.42.37-.62.18-.44.4-.85.53-1.28.29-.85.5-1.66.62-2.38.28-1.34.24-2.21.34-2.23zm-9.31 13.673c.052-.03.49.84.313 2.294-.042.55-.24 1.235-.576 1.917-.355.682-.772 1.26-1.144 1.643-.425.54-.872.915-1.06 1.2-.2.293-.257.506-.32.497-.032.005-.07-.242.083-.628.17-.404.545-.797.91-1.357.3-.44.64-1.01.972-1.64.31-.63.535-1.23.656-1.72.274-1.31.034-2.19.165-2.21z"/><path fill="#D0D1D2" d="M143.747 188.41s16.28-4.04 21.614-2.458c0 0-2.36-9.76-3.23-11.51-.77-1.538-17.21 12.385-18.37 13.968z"/><path fill="#FFF" d="M161.86 173.036s5.827 12.71 3.73 12.655c-3.563-.09-14.87-.59-15.313-.78-1.656-.68.315-2.39 3.75-5.31 3.345-2.84 7.834-6.56 7.834-6.56z"/><path fill="#9EB13F" d="M169.26 54.478l11.932-4.68c-1.593-5.037-5.498-9.096-10.715-11.993-10.187-5.658-21.494-4.756-28.807 8.408S144 85.475 144 85.475s27.25-5.607 34.562-18.77c1.236-2.226 2.105-4.36 2.662-6.403l-11.963-5.824z"/><path fill="#55B53F" d="M112.848 88.194c9.903 5.014 28.854-2.826 28.854-2.826s-4.9-19.913-14.803-24.926c-9.91-5.014-17.18-.892-21.06 6.77-3.88 7.666-2.9 15.97 7 20.982z"/><path fill="#779232" d="M105.256 58.963c7.818 13.82 36.6 19.51 36.6 19.51s9.95-27.6 2.133-41.42c-7.82-13.82-19.75-14.68-30.45-8.628-10.7 6.05-16.11 16.72-8.29 30.538z"/><g opacity=".15"><path d="M70.36 86.88c-1.08 0-1.937.214-2.61.53-.854-1.15-2.183-1.835-3.635-1.835-1.328 0-3.108.524-4.488 2.852-.167-.186-.35-.358-.552-.512-.777-.592-1.708-1.08-2.843-1.488-.44-.158-.897-.236-1.355-.236-.636 0-1.27.16-1.846.46-.14.08-.28.16-.41.25-.12.02-.24.04-.35.07-2.68.04-4.75 1.66-6.14 3.2-.99-1.06-2.38-1.71-4.02-1.81 1.15-3.17 1.45-3.92 1.53-4.09l.04-.09c.95-2.21 1.5-3.49 1.65-3.83.27-.54.41-1.14.41-1.76 0-1.07-.39-1.92-.76-2.56-1.28-2.37-3.3-2.63-4.12-2.63-1.05 0-3.05.37-4.55 2.82l-.15.28c-.23.46-.47.91-.7 1.34-.08.16-.15.32-.21.48 0 0-3.73 9.91-3.74 9.96-1.23 3.66-2.17 7.19-2.82 10.5-.17.47-.27.97-.27 1.5 0 .41.05.79.15 1.14v.28c-.05 1.39.5 2.72 1.57 3.76.84.82 1.78 1.34 2.8 1.54.26.05.52.08.78.08.32 0 .64-.03.94-.11h.17c2.07 0 4.25-1.17 7.41-3.96.69 2.14 1.93 3.13 3 3.57.99.62 2.17 1.23 3.53 1.23.12 0 .47-.01 1.06-.07.18-.02.32-.03.41-.04.42-.01.82-.08 1.2-.2l.13-.02c1.38-.07 2.39-.77 4.42-2.25.21-.15.39-.32.56-.51.94 1.86 2.72 2.44 3.92 2.44h.66c1.47 0 2.54-.64 3.73-1.95.06.13.13.26.2.38.18.69.55 1.33 1.07 1.84l.26.25c.75.74 1.76 1.15 2.8 1.15.53 0 1.06-.08 1.61-.26 1.74-.44 3.02-2.01 3.02-3.88v-.98c0-.14 0-.28-.02-.42.05-.17.09-.29.12-.36.12-.32.19-.66.22-.99.26-.79.39-1.65.39-2.56v-.09c.11-.45.23-1.04.4-1.85.47-2.27.56-3.09.56-3.68 0-6.3-3.85-6.79-5.03-6.79zm124.425.065c2.64 0 4.628-2.016 4.628-4.688 0-2.438-1.695-4.396-4.218-4.872-.25-.047-.498-.07-.744-.07-1.45 0-2.81.795-3.52 2.11-.44.83-.84 1.662-.84 2.724 0 2.73 2.02 4.79 4.7 4.79z"/><path d="M213.2 83.19c.02-.05.036-.1.053-.15.197-.28.367-.568.52-.86.018 2.72 2.03 4.765 4.7 4.765 2.64 0 4.628-2.016 4.628-4.688 0-2.438-1.69-4.396-4.21-4.872-.25-.047-.5-.07-.74-.07-1.45 0-2.82.795-3.52 2.11-.09.182-.19.364-.28.548-.02-1.11-.45-2.02-.79-2.603-.9-1.6-2.39-2.52-4.09-2.52-.92 0-3.23.295-4.71 3.088-.19.374-.38.758-.57 1.153-.73 1.31-1.55 3.15-2.49 5.64l-.81 2.16c-1.85.07-4.38.83-6.63 3.84-.15-.18-.32-.35-.51-.51-.53-.43-1.15-.75-2.3-1.19-.45-.17-.93-.25-1.41-.25-1.88 0-3 1.14-3.73 2.26-.92-.82-2.13-1.31-3.51-1.31-.85 0-1.58.24-2.26.64-.48-.37-1.02-.65-1.62-.83-.06-.39-.16-.76-.31-1.12-.32-.95-1-1.75-1.91-2.23-.9-.47-1.8-.71-2.68-.71-1.64 0-2.84.81-3.78 1.98-.48-.36-1.05-.62-1.66-.72l-.09-.02c-.37-.16-.75-.29-1.15-.37-.18-.04-.37-.06-.56-.07-.08-.03-.16-.05-.24-.07l-.17-.04c-.44-.09-.94-.13-1.57-.13-.73 0-1.72.06-3.01.18-.32.03-.68.07-1.04.11-.61-.82-1.55-1.53-2.94-1.89-.1-.02-.21-.05-.31-.07l-.65-.11c-.47-.19-.99-.3-1.54-.3-.23 0-.46.01-.69.04-.18-.02-.37-.03-.56-.03-1.33 0-2.48.58-3.2 1-.23.14-.43.28-.64.42-.83-1.28-1.91-2.39-3.27-3.23-.06-.59-.26-1.18-.59-1.71l-3.25-5.18c-.73-1.16-2.01-1.87-3.38-1.87h-3.59c-1.57 0-2.99.92-3.64 2.34s-.4 3.1.62 4.29l1.81 2.08c-2.1 1.18-3.79 3-4.9 5.27-.39.09-.76.22-1.1.41-.8-.67-1.85-1.06-3.02-1.06-.87 0-1.64.23-2.33.6-.91-3.16-2.86-4.16-4.19-4.46-.71-.28-1.25-.46-1.97-.46-3.29 0-6.13 2.22-8.45 6.58l-.12.25-1.5 3.39c-.32-1.22-1.1-2.05-1.47-2.42-.38-.93-1.09-1.69-2-2.12-.28-.2-.63-.41-1.06-.57-.5-.23-1.06-.36-1.65-.36h-.74c-.78 0-1.55.23-2.21.67-3.42 2.27-6.02 5.08-7.71 8.36-.2.3-.41.6-.63.9-.05.07-.1.15-.15.22-.76 1.21-1.13 2.36-1.13 3.53 0 .94.27 1.86.82 2.76.09.14.18.28.27.4.14.23.29.45.47.65 1.08 1.22 2.5 1.89 3.99 1.89h.38c.25.05.49.07.73.07h.21c.07.01.14.01.2.01.54 0 1.07-.1 1.58-.32.13-.05.25-.11.36-.17.07.14.14.28.22.42.72 1.23 2.04 1.99 3.46 1.99.3 0 .61-.03.94-.1l-.27 1.25c-.05.25-.08.51-.08.76l-.05.21c-.06.29-.1.6-.1.91 0 .39.06.75.15 1.1.01.07.02.13.04.2 0 .08.01.17.01.27-.01.09-.01.19-.01.28v.4c0 2.21 1.79 4 4 4 1.78 0 2.79-1.09 3.34-1.67.28-.29.5-.63.68-.98.31-.48.51-1.03.58-1.58.15-.38.23-.78.26-1.2.05-.2.24-.92.97-2.75.7-1.73 1.17-3.09 1.44-4.19.61-.05 1.18-.22 1.7-.48.72-.16 1.38-.52 1.97-1.07.29-.14.58-.34.87-.57.34.78.92 1.45 1.69 1.88 1.06.6 1.95.95 2.8 1.11.24.05.48.07.72.07.93 0 1.84-.32 2.56-.92.53-.44.93-1 1.17-1.63.22-.24.44-.49.66-.74.4-.47.74-.9 1.02-1.3.48-.47.84-1.05 1.04-1.7.07-.09.18-.23.33-.4 1.9 4.46 6.13 7.21 11.7 7.21 2.3 0 4.15-.32 5.58-.72.35.47.81.87 1.35 1.15.84.43 1.57.8 2.61.8.16 0 .32-.01.48-.02.16.02.32.03.48.03.46 0 1.05-.08 1.67-.35 1.56-.15 3.95-1.07 5.48-4.88.69-1.72 1.03-3.22 1.03-4.56 0-.57-.06-1.29-.29-2.35l.1.02c.26.04.52.07.76.07.34 0 .74-.04 1.76-.2.83-.11 1.35-.17 1.55-.2l.27-.03c.2 0 .42-.02.66-.05h.16c.15 0 .29-.01.44-.03h.02c.29 0 .57-.03.85-.09l.31-.06c-.46 1.3-.56 1.91-.53 2.53-.08.3-.15.59-.21.89-.23 1.14-.34 1.96-.34 2.64 0 1.36.54 2.66 1.52 3.66 1.3 1.33 2.67 1.61 3.59 1.61 2.14 0 3.68-1.48 5.13-3.08l.63-.72c.3.15.56.26.78.35.46.18.93.27 1.41.27.14.32.32.61.53.88.37 1.23 1.31 2.23 2.56 2.65.42.14.85.21 1.27.21.27 0 .54-.04.8-.09.75.83 1.81 1.33 2.96 1.33h.48c1.56 0 2.98-.9 3.63-2.32.39-.84.69-1.5.9-1.97.25-.4.44-.85.54-1.34.03-.16.1-.44.23-.88.28.69.63 1.29 1.07 1.76.51.74 1.18 1.32 1.78 1.78 1.05.8 2.23 1.55 3.68 1.56.26.05.52.07.78.07.46 0 .85-.07 1.25-.19.14-.01.28-.02.42-.05.05 0 .09-.01.14-.01.18.02.36.04.56.04.76 0 1.5-.19 2.31-.6.71-.25 1.31-.7 1.77-1.27.14.57.39 1.11.75 1.56.73 1.16 2 1.87 3.39 1.87h.48c1.56 0 2.98-.9 3.63-2.32.39-.84.69-1.5.9-1.97.25-.4.44-.85.54-1.34.07-.35.29-1.19.97-2.93.75-1.97 1.37-3.79 1.86-5.4.47-1.55-.04-3.23-1.29-4.26-.53-.44-1.15-.76-2.3-1.19-.45-.17-.93-.26-1.41-.26-1.73 0-2.82.96-3.55 1.98.11-.36.21-.71.28-1.04 1.22-2.68 2.15-4.87 2.77-6.52zM43.717 94.502c0 1.11-1.238 2.79-3.714 5.036s-4.22 3.37-5.23 3.37c-.098 0-.116-.037-.054-.11.06-.07.04-.108-.06-.108s-.17.037-.21.11-.11.108-.21.108c-.03 0-.11-.073-.26-.218l-.33.326c-.25-.05-.51-.206-.78-.47-.27-.267-.4-.532-.37-.798v-.58c.34.29.54.435.59.435.07 0 .11-.06.11-.18 0 .193.12.29.37.29.1 0 .16-.037.18-.11.02-.072.07-.108.15-.108.1 0 .13.024.11.072-.05.05-.07.097-.04.145 2.29-1.52 3.9-2.693 4.84-3.514 1.58-1.377 2.61-2.766 3.1-4.167-.13-.12-.5-.18-1.11-.18l-2.73 1.74c-.08 0-.15-.03-.23-.11-.25.49-.92 1.43-2.03 2.83-.91 1.14-1.49 2.13-1.74 2.97-.32-.12-.67-.12-1.04 0-.47-.48-.71-.83-.71-1.05 0-.09.05-.15.15-.16.1-.01.16-.03.18-.05-.08-.04-.15-.07-.23-.07.61-3.28 1.54-6.76 2.77-10.43l3.7-9.82c.24-.46.49-.93.73-1.41.37-.6.75-.9 1.14-.9.22 0 .43.2.63.58.17.29.26.5.26.62 0-.02-.58 1.32-1.74 4.02-.23.49-1.07 2.78-2.55 6.89-.1.03-.24.1-.41.22-.03.73-.29 1.8-.78 3.23-.67 2.03-1.04 3.16-1.11 3.4-.03.03 0 .08.07.15.44-.32 1.06-.88 1.84-1.71.79-.82 1.44-1.39 1.96-1.7.79-.48 1.67-.72 2.66-.72 1.35 0 2.03.73 2.03 2.18zM33.26 98.777c-.075-.072-.21-.11-.407-.11 0 .025.02.092.055.2.037.11.056.176.056.2.196 0 .295-.096.295-.29zm1.107 3.297h-.406v-.18h.41v.18zm.555-.036c0-.073-.05-.18-.148-.326-.073.072-.172.12-.295.145l.44.18zm1.663-.073v-.18h-.518v.18h.518zm.554-.434v-.18h-.3v.18h.29zm.37-.39l-.12-.11-.26.26.11.15.26-.29zm.84-14.78v-.18h-.3v.18h.29zm18.96 7.46c0 .17-.05.45-.15.84 0 .05.01.33.04.84.02.34-.09.57-.34.69.07.05.15.07.22.07l-.41 1.05c0 .1.02.17.07.22-.1-.09-.25-.05-.44.15.07.07.14.11.22.11 0 .15-.06.28-.19.4 0-.14-.05-.21-.15-.21 0 .54-.27 1.13-.81 1.78-.99 1.19-1.54 1.86-1.66 2.03-.03 0-.08-.03-.15-.11-.08-.07-.14-.11-.19-.11-.08.1-.03.23.14.4-1.36.99-2.12 1.49-2.29 1.49-.08 0-.24.02-.48.06-.25.04-.42.06-.52.06-.1 0-.14.02-.11.06s-.01.05-.09.05-.32.02-.69.06c-.37.04-.59.05-.67.05-.3 0-.8-.23-1.52-.69 0-.12-.09-.18-.26-.18-.39 0-.71-.4-.96-1.19-.15-.53-.3-1.07-.44-1.63.32 0 .47.01.44.04-.3-.21-.45-.43-.45-.65 0-.99.71-2.56 2.14-4.71 1.66-2.51 3.22-3.77 4.7-3.77.07 0 .18.06.33.18.12-.19.33-.29.63-.29.31 0 .54.11.66.34.13.22.24.44.34.67-.03 0-.16.08-.41.24-.25.16-.43.24-.56.24-.44 0-1.1.44-1.99 1.3-.44.48-.9.96-1.37 1.43-.47.47-1.04 1.37-1.7 2.69-.67 1.32-1 2.32-1 3 0 .22.18.5.54.85s.64.53.86.53c.1 0 .3-.03.61-.1s.51-.11.61-.11c.37 0 .82-.19 1.37-.58.79-.53 1.19-.81 1.22-.83.02-.29.22-.54.59-.77.37-.23.55-.45.55-.67.1-.07.22-.04.37.11 0-.17.04-.36.11-.58.5-.46.85-1.09 1.07-1.88.2-.7.46-1.13.78-1.3 0-.02.01-.06.04-.11.02-.02.02-.03 0-.03h-.15c-.1 0-.18-.5-.23-1.52-.05-.96-.05-1.53 0-1.7-.13-.12-.22-.14-.3-.07 0-.02-.03-.14-.11-.36-.07-.21-.08-.4-.03-.54-.05-.05-.2-.07-.44-.07-.03-.15.01-.4.11-.76.74.26 1.33.57 1.77.9 0 .32-.08.51-.23.58.29.29.4.51.33.65.05.05.16.08.33.08 0 .15.04.4.11.75.08.35.11.57.11.67zm-9.76 8.86l-.13-.05-.13.23.13.06.13-.23zm.51.35h-.41v-.11h.41v.11zm3.88-.11v-.18h-.63v.18h.62zm4.26-11.78v-.21h-.52v.22h.51zm.37 5.4l-.08-.14-.29.15v.15l.37-.15zm14.82-2.86c0 .36-.16 1.32-.48 2.86-.3 1.45-.48 2.25-.56 2.39.05.07.07.19.07.36 0 .87-.19 1.58-.59 2.13.08.05.15.08.23.08-.15.41-.3.94-.45 1.59-.19 0-.35-.01-.48-.04s-.17-.03-.14-.03l-.3.22c-.13-.09-.22-.14-.3-.14 0-.1-.02-.33-.06-.69-.04-.36-.06-.6-.06-.72 0-1.01.15-1.75.44-2.21-.08-.05-.15-.07-.23-.07v-.58c0-.16.09-.55.26-1.16.17-.6.28-1.22.33-1.85.1 0 .19.04.26.11l.26-.29c-.1.03-.28.04-.55.04.04-.14.08-.38.11-.72.03-.34.06-.58.08-.72l-.08-.94c-.4.41-.99.95-1.77 1.63-1.13 1.59-2.27 3.18-3.43 4.76-1.67 2.29-2.65 3.43-2.95 3.43h-.66c-.37 0-.55-.48-.55-1.44 0-.46.1-1.03.29-1.73.27-.91.42-1.44.44-1.59.24-1.27.43-2.18.55-2.71.3-1.01.67-1.91 1.11-2.71-.05-.28.12-.89.52-1.8.44-1.01.9-1.52 1.37-1.52.22 0 .38.12.5.35.11.23.22.46.35.71l-3.03 9.57c.27-.04.56-.32.88-.83.22-.39.45-.76.7-1.12l4.54-6.12c.42-.21.8-.52 1.15-.9.17-.22.55-.33 1.14-.33.69 0 1.03.93 1.03 2.79zm-9.65 7.07l-.45.11v-.14l.37-.14.07.18zm7.98 3.88c-.03 0-.11.03-.24.07-.14.05-.27.07-.39.07l-.26-.25c0-.02.05-.06.16-.1.11-.05.17-.13.17-.25 0-.19-.14-.42-.41-.69h-.37c.12-.02.32-.05.59-.11l.59-.11c.1.08.15.21.15.4-.3-.07-.48-.07-.56 0 .2.19.39.25.56.18v.81zm.66-6.2c-.12-.29-.18-.5-.18-.65-.1 0-.15.15-.15.44.08 0 .19.08.33.22z"/><path d="M103.397 93.633c0 .918-.27 2.488-.813 4.71-.074.652-.185 1.715-.333 3.188 0-.02-.03-.09-.11-.21-.07.13-.18.46-.33.98.15-.19.27-.29.37-.29-.07.17-.26.4-.55.69.08.08.15.11.22.11-.05.03-.08.08-.11.17-.02.09-.06.14-.11.17.12.12.23.18.33.18-.05.15-.2.35-.44.62.1.22.13.37.08.47-.02 0-.09.01-.18.04-.1.03-.17.04-.22.04-.1-.17-.13-.47-.11-.9-.14-.14-.28-.22-.4-.22.03 0 .06-.02.11-.07s.14-.07.26-.07c.08 0 .09.04.04.11-.05.07-.02.11.08.11-.02 0 .1-.06.37-.18-.15-.19-.39-.31-.74-.36l.08-.72c-.29-.26-.44-.52-.44-.76 0-.07.06-.23.17-.47.11-.24.16-.44.16-.58.03 0-.09.11-.33.33 0-.21.08-.38.22-.5l-.07-2.54c-.62.53-1.43 1.49-2.44 2.87-.69.94-1.54 1.63-2.55 2.07.03-.07.03-.22 0-.43-.12.04-.26.19-.4.44-.17-.05-.54-.07-1.11-.07-.34 0-.68-.18-1-.54l.11-.08c-.14-.05-.29-.19-.44-.43-.15-.24-.22-.46-.22-.65 0-.38.17-.85.52-1.4.29-.41.58-.81.85-1.22 1.38-2.76 3.53-5.11 6.46-7.05h.74c0 .22.03.36.08.44.12 0 .19-.11.19-.33.02 0 .15.08.37.25.15.12.27.18.37.18v.62c-.37.17-.82.44-1.33.8-.4.29-.64.44-.74.44-.1 0-.14-.02-.11-.07.05-.07.05-.12 0-.15-1.83 2.27-3.13 3.96-3.92 5.07-.3.56-.75 1.35-1.37 2.39l.19.15c1.02-.51 2.05-1.45 3.07-2.83.77-1.08 1.56-2.17 2.36-3.26 0 .15.06.22.19.22.08-.08 0-.21-.22-.4.15-.17.44-.59.89-1.27.35-.58.56-.87.63-.87.08 0 .09.04.04.13-.05.08-.02.13.08.13.08 0 .15-.04.21-.13s.14-.13.24-.13c.13 0 .35.16.67.47.32.31.48.54.48.69zm-2.29 9.202l-.148-.435-.15.072.15.362h.14zm.295-.87l-.518-.253-.037.18.518.254.037-.18zm.332.472l-.036-.145-.37.11v.18l.406-.145zm18.292-11.667c0 .967-.357 2.308-1.07 4.022-.617 1.45-1.147 2.452-1.59 3.007-1.48 1.59-2.28 2.39-2.402 2.39-.1 0-.142-.02-.13-.06.013-.04-.018-.06-.092-.06-.1 0-.253.15-.462.45-.21.3-.363.45-.462.45-.074 0-.104-.02-.092-.06.012-.04-.03-.06-.13-.06-.123 0-.26.08-.406.25-.148.17-.357.25-.628.25 0-.15-.025-.25-.074-.33-.05 0-.074.11-.074.32H110.9c.22-.36.565-.54 1.033-.54.074-.2.234-.4.48-.62.024.02.024.08 0 .18 0 .09.05.14.148.14.1 0 .14-.02.11-.07-.02-.05.02-.07.12-.07.1 0 .17.06.21.16.04.11.06.17.06.2.05-.05.1-.1.15-.16.05-.06.1-.1.15-.13-.1-.12-.32-.18-.66-.18v-.39c.18-.17.29-.25.34-.25.17 0 .23-.05.19-.15.3-.46.58-.8.85-1.01 1.19-.99 2.18-2.4 3-4.24.72-1.67 1.07-3.14 1.07-4.42 0-.39-.08-.77-.26-1.16-.17-.39-.39-.58-.66-.58-.54.31-1.14.68-1.81 1.09-.27.87-.55 1.63-.85 2.28-.74 1.4-1.66 3.38-2.77 5.94-.52 1.5-.9 2.59-1.15 3.26-.47 1.25-.88 2.18-1.25 2.79-.07.87-.55 2.4-1.44 4.6-.83 2.07-1.25 3.41-1.25 4.02-.24 0-.49.12-.74.36 0-.03-.03-.09-.09-.2-.06-.11-.09-.19-.09-.24 0-.07.09-.1.26-.07v-.22c-.17-.15-.29-.22-.37-.22.17 0 .3-.04.37-.11.15-.1.14-.15-.04-.15-.12 0-.2.01-.22.03-.03.02-.05.03-.08.03l.15-.61c.08.07.15.11.22.11.05-.05.09-.1.11-.14l.08-.15c-.05-.05-.2-.07-.44-.07.25-1.16.49-2.32.74-3.48.32-1.38.78-2.51 1.37-3.41-.07-.08-.13-.11-.18-.11l2-6.49 2.74-6.16c1.58-2.97 3.21-4.46 4.91-4.46.05 0 .34.11.89.32.69 0 1.2.66 1.52 1.99.2.8.3 1.5.3 2.1zm-13.598 22.173c-.247 0-.37.084-.37.253-.172-.17-.258-.314-.258-.435l.258.22c.024-.05.024-.12 0-.21l-.073-.18c.098-.05.185-.09.26-.14l.183.51zm-.222.4c-.247.265-.383.397-.406.397v-.398h.406zm.185-1.668c.1.096.05.24-.14.435 0-.072-.05-.17-.15-.29l.3-.145zm2.41-7.03h-.18v-.397h.19v.398zm5.21-4.382c-.07 0-.13-.048-.18-.145-.05-.072-.05-.132 0-.18-.1.096-.14.253-.14.47.08 0 .19-.05.34-.145zm17.37-8.478c0 .072-.59.688-1.77 1.848-.49.53-1.29 1.413-2.4 2.645-1.18 1.232-1.77 2.078-1.77 2.536 0-.024-.03-.096-.11-.217-.07.387-.45.978-1.14 1.775-.47.53-.94 1.05-1.4 1.558.03.05.04.17.04.362-.39-.072-.91-.29-1.55-.652 0-.145.11-.338.34-.58-.05-.048-.22-.072-.52-.072 0-.048-.02-.175-.07-.38-.05-.205-.07-.356-.07-.453 0-1.11.59-2.935 1.78-5.47 1.26-2.682 2.3-4.022 3.14-4.022.44 0 .67.23.67.688 0 .2-.21.55-.63 1.06s-.65.86-.7 1.05c-.29 1.02-.66 2.01-1.11 2.97-.37.82-.75 1.65-1.14 2.47v.29c.19-.02.39-.17.59-.43.98-1.25 1.96-2.5 2.92-3.73 1.26-1.57 2.33-2.56 3.21-2.97.03 0 .07-.06.15-.2.08-.13.16-.19.26-.19s.14.02.11.05c-.02.04.02.06.11.06.13 0 .13-.06 0-.18.13 0 .26.06.41.18.17-.24.22-.42.15-.54h.45c0 .03.02.1.05.24.04.13.06.25.06.34zm-2.36 2.282v-.18h-.29v.18h.3zm2.18-2.355l-.11-.108-.33.253.11.145.34-.29zm4.4 2.538c.08 4.31 2.89 6.085 6.14 6.085 2.33 0 3.73-.398 4.95-.906l.56 2.28c-1.14.5-3.1 1.08-5.95 1.08-5.5 0-8.79-3.55-8.79-8.84s3.18-9.46 8.39-9.46c5.84 0 7.39 5.03 7.39 8.26 0 .65-.07 1.16-.11 1.48H135.6zm9.54-2.282c.04-2.03-.85-5.18-4.51-5.18-3.29 0-4.73 2.97-4.99 5.18h9.5zm-5.47-14.635l3.25 5.18h-2.33l-4.51-5.18h3.59zm17.96 11.697l-.37.363c-.2 0-.34.018-.44.055-.1.036-.18.054-.26.054-.1 0-.28-.018-.55-.054-.27-.037-.45-.055-.55-.055-.29 0-.66.145-1.09.435-.43.29-.64.53-.64.725 1.51 3.816 2.26 6.376 2.26 7.68 0 .822-.24 1.85-.74 3.08-.64 1.595-1.4 2.392-2.29 2.392-.07 0-.14-.018-.22-.054-.07-.03-.16-.05-.26-.05s-.21.08-.35.22c-.13.15-.24.22-.31.22-.1 0-.2-.03-.31-.11-.11-.07-.21-.11-.31-.11s-.15.04-.16.11c-.01.08-.07.11-.17.11-.05 0-.31-.12-.77-.36v-.4c.08 0 .23-.01.46-.05s.4-.05.5-.05c.1 0 .15-.03.15-.11l-.07-.18c.05-.02.1-.02.15 0 .05.03.03.06-.07.11.28.12.5.18.67.18v-.65c.1.08.2.11.32.11-.02-.14.2-.52.67-1.13.54-.7.86-1.16.96-1.38.41-.82.54-1.7.39-2.62.03-.05.04-.13.04-.25 0-.39-.4-1.62-1.18-3.71-.79-2.08-1.18-3.42-1.18-4 0-.38.32-.76.96-1.13.55-.31.95-.47 1.22-.47.1 0 .15.05.15.15 0 .1.04.15.11.15h.37c0-.09-.1-.14-.29-.14.35-.09.65-.14.93-.14 0 .22.03.35.08.4.03 0 .08-.03.17-.09.09-.06.14-.1.17-.13-.05 0-.1-.01-.15-.03l1.26.22c.57.15.85.4.85.76zm-4.88 2.03l-.26-.253-.11.11.26.252.11-.11zm2.66 8.804l-.07.18-.37-.144v-.145l.45.11zm0-2.68l-.26-.254-.11.072.26.29.11-.11zm12.34-6.16c-.05 0-.12-.048-.22-.145-.07.02-.17.1-.29.25-.12.14-.23.2-.33.18-.1-.03-.17-.06-.22-.11-.05-.05-.12-.07-.22-.07-.07-.03-.2.02-.39.12-.18.1-.31.16-.39.16-.1-.03-.16-.03-.18 0-.02.04-.09.06-.18.03-.1-.03-.13-.06-.11-.11.03-.07.03-.12 0-.15-.05.07-.13.17-.26.29-.02 0-.08-.09-.18-.26-.27.24-.54.34-.81.29-.07-.03-.12-.06-.13-.09-.01-.04-.06-.07-.13-.09-.05 0-.14.08-.26.25-.22.02-.79.09-1.7.21-.76.12-1.18.17-1.25.14l-.81-.15c-.12-.02-.26-.14-.41-.34-.14-.21-.21-.39-.18-.56.07-.32 1.1-.57 3.07-.76 1.8-.17 2.93-.21 3.4-.11.1.02.14.07.13.14-.01.07.03.12.13.14.07 0 .19-.02.35-.05s.29-.06.39-.06c.24.05.49.17.74.36.13-.03.32-.02.59.03l-.1.4zm16.34 5.253c0 .556-.07 1.552-.22 2.99-.15 1.436-.21 2.396-.18 2.88-.17.24-.43.59-.77 1.05 0-.193-.16-.543-.48-1.05.3 0 .52-.05.67-.146 0-.09-.07-.1-.22-.03 0-.14-.06-.27-.18-.4-.12.1-.28.2-.48.29-.07-.94-.11-2.71-.11-5.32-.12.08-.65.6-1.59 1.56-.81.85-1.34 1.27-1.59 1.27-.1 0-.12-.03-.07-.11.05-.07.04-.1-.03-.1-.15 0-.22.11-.22.33-.25-.09-.63-.27-1.15-.54-.24-.65-.5-1.66-.77-3.04-.29.27-.76.81-1.4 1.63-.52.7-.91 1.12-1.18 1.27.03.05.08.09.15.11.08.02.14.06.19.11l-1.7 1.96c-1.03 1.14-1.73 1.71-2.1 1.71-.22 0-.46-.13-.72-.39s-.39-.55-.39-.87c0-.38.09-.99.26-1.83.17-.83.34-1.31.52-1.43-.07-.05-.14-.07-.22-.07v-.37c-.02-.19.47-1.57 1.48-4.13 1.11-2.75 1.94-4.13 2.48-4.13.23 0 .5.09.82.26 0 .03.03.09.07.2.05.11.07.21.07.31 0 .32-.22.67-.66 1.05.07.05.13.08.18.08-.36.8-.85 1.96-1.44 3.48-.19-.12-.42-.13-.66-.03 0 .1.05.15.15.15.1 0 .15-.03.15-.11.1 0 .15.09.15.26 0-.07-.44 1.32-1.33 4.17l.08.8c.59-.62 1.25-1.49 1.99-2.61l1.67-2.35c.13-.02.41-.33.85-.91.45-.58.86-.87 1.26-.87.72 0 1.15.42 1.3 1.24.02.07.05.76.07 2.06.02.36.07.62.15.76-.05.05.01.07.19.07.13 0 .71-.61 1.76-1.85s1.72-1.85 2.02-1.85c.64 0 1.03.29 1.18.87.08.22.11.79.11 1.7zm-6.02 1.92v-.18h-.33v.18h.34zm13.16-4.89c-.46 1.546-1.06 3.26-1.77 5.145-.59 1.52-.97 2.706-1.15 3.55-.22 0-.37.037-.44.11 0 .216.11.23.33.035-.19.458-.54 1.22-1.03 2.283h-.48c-.05-.097-.13-.217-.26-.362v-1.45c.18-.168.26-.325.26-.47.25 0 .41.037.48.11l.15-.182c-.27-.145-.55-.168-.85-.072.17-.75.38-1.28.63-1.594 0-.096-.07-.145-.22-.145.3-.893.8-2.15 1.51-3.768v-.543c.05-.265.3-.863.76-1.793s.76-1.39.91-1.39c.64.24 1.04.42 1.19.54zm-3.8 9.745v-.18h-.62v.18h.63zm-.18.326l-.3-.29-.11.108.3.254.11-.072zm.22.037l-.26.4-.14-.11.26-.398.15.108zm7.98-21.16c0 .46-.21.69-.62.69-.47 0-.7-.267-.7-.798 0-.097.13-.375.37-.833.64.122.96.435.96.942zm14.94-2.21c0 .195-.33.7-1 1.52 0 .026.04.1.11.22-.61 1.643-1.56 3.865-2.84 6.666-.1.54-.27 1.15-.52 1.85-.42 1.07-.65 1.69-.7 1.89.02.63-.15 1.49-.52 2.57-.51 1.5-.8 2.37-.85 2.61-.17.75-.48 2.47-.93 5.15-.1.03-.25.09-.46.2-.21.11-.38.17-.5.17-.08 0-.2-.03-.37-.1-.17-.07-.31-.11-.41-.11s-.15.04-.16.11c-.01.07-.06.11-.16.11s-.15-.03-.15-.1-.01-.11-.04-.11c-.19.17-.22.26-.07.26-.14-.05-.32-.04-.51.04-.27.1-.43.14-.48.14-.1 0-.2-.05-.31-.16-.11-.11-.21-.16-.31-.16s-.12.05-.06.13c.07.09.05.13-.05.13-.22 0-.66-.25-1.31-.75s-1-.87-1.05-1.14c-.3-.12-.54-.57-.74-1.34-.2-.68-.29-1.24-.29-1.71 0-1.52.53-3.07 1.59-4.65 1.15-1.69 2.46-2.54 3.91-2.54.1 0 .45.09 1.07.27.62.18.97.27 1.07.27s.12.03.07.07c-.03.05-.03.1 0 .15.1-.26.79-2.1 2.07-5.51.88-2.34 1.65-4.07 2.29-5.18.2-.41.39-.81.59-1.2.32-.6.7-.91 1.15-.91.23 0 .43.16.61.49.19.33.28.57.28.71zm-13.89 18.48h-.18l-.11.723h.19l.11-.724zm.3 2.1v-.18h-.29v.18h.29zm.04-5.036l-.15-.04-.14.29.15.03.15-.29zm6.2-2.07c0-.2-.12-.41-.37-.65-.24-.24-.52-.36-.81-.36-1.38 0-2.49.96-3.32 2.89-.65 1.45-.97 2.76-.97 3.95 0 .09.09.29.26.59s.28.48.32.52c.04.05.34.27.91.68.49.36.83.54 1.03.54.15.09.22.2.22.32 0-.1.07-.15.22-.15.4 0 .61.01.63.03-.07.07-.11.15-.11.25.08-.05.17-.09.3-.11.1-.22.25-.73.44-1.52.15 0 .25.02.3.07-.1-.05-.22-.12-.37-.22v-.87c0-.27.15-.45.45-.54-.15-.2-.2-.43-.15-.69.05-.29.11-.57.19-.84-.07-.41.05-1.12.37-2.14s.48-1.62.48-1.81zm2.22-5.18l-.04-.15-.26.14v.14l.3-.15zm9.69 4.96c-.47 1.54-1.06 3.26-1.77 5.14-.59 1.52-.97 2.7-1.14 3.55-.22 0-.37.03-.44.11 0 .21.11.23.34.03-.19.46-.54 1.22-1.03 2.28h-.48c-.05-.1-.13-.22-.26-.37v-1.45c.18-.17.26-.33.26-.47.25 0 .41.03.48.11l.15-.18c-.27-.15-.55-.17-.85-.08.17-.75.38-1.28.63-1.6 0-.1-.07-.15-.22-.15.3-.9.8-2.15 1.52-3.77v-.55c.05-.27.31-.87.76-1.8s.76-1.39.91-1.39c.64.24 1.04.42 1.19.54zm-3.8 9.74v-.18h-.62v.18h.63zm-.18.32l-.29-.29-.11.11.3.25.11-.07zm.22.03l-.26.4-.14-.11.26-.4.15.1zm7.99-21.16c0 .46-.21.69-.62.69-.47 0-.7-.27-.7-.8 0-.1.12-.38.37-.84.64.12.96.43.96.94z"/></g><path fill="#FFF" d="M69.61 86.13c-1.08 0-1.937.214-2.61.53-.854-1.15-2.183-1.835-3.635-1.835-1.328 0-3.108.524-4.488 2.852-.167-.186-.35-.358-.552-.512-.777-.592-1.708-1.08-2.843-1.488-.44-.158-.897-.236-1.355-.236-.636 0-1.27.16-1.846.46-.14.08-.28.16-.41.25-.12.02-.24.04-.35.07-2.68.04-4.75 1.66-6.14 3.2-.99-1.06-2.38-1.71-4.02-1.81 1.15-3.17 1.45-3.92 1.53-4.09l.04-.09c.95-2.21 1.5-3.49 1.65-3.83.27-.54.41-1.14.41-1.76 0-1.07-.39-1.92-.76-2.56-1.28-2.37-3.3-2.63-4.12-2.63-1.05 0-3.05.37-4.55 2.82l-.15.28c-.23.46-.47.91-.7 1.34-.08.16-.15.32-.21.48 0 0-3.73 9.91-3.74 9.96-1.23 3.66-2.17 7.19-2.82 10.5-.17.47-.27.97-.27 1.5 0 .41.05.79.15 1.14v.28c-.05 1.39.5 2.72 1.57 3.76.84.82 1.78 1.34 2.8 1.54.26.05.52.08.78.08.32 0 .64-.03.94-.11h.17c2.07 0 4.25-1.17 7.41-3.96.69 2.14 1.93 3.13 3 3.57.99.62 2.17 1.23 3.53 1.23.12 0 .47-.01 1.06-.07.18-.02.32-.03.41-.04.42-.01.82-.08 1.2-.2l.13-.02c1.38-.07 2.39-.77 4.42-2.25.21-.15.39-.32.56-.51.94 1.86 2.72 2.44 3.92 2.44h.66c1.47 0 2.54-.64 3.73-1.95.06.13.13.26.2.38.18.69.55 1.33 1.07 1.84l.26.25c.75.74 1.76 1.15 2.8 1.15.53 0 1.06-.08 1.61-.26 1.74-.44 3.02-2.01 3.02-3.88v-.98c0-.14 0-.28-.02-.42.05-.17.09-.29.12-.36.12-.32.19-.66.22-.99.26-.79.39-1.65.39-2.56v-.09c.11-.45.23-1.04.4-1.85.47-2.27.56-3.09.56-3.68 0-6.3-3.85-6.79-5.03-6.79zm124.425.065c2.64 0 4.628-2.016 4.628-4.688 0-2.438-1.695-4.396-4.218-4.872-.25-.047-.498-.07-.744-.07-1.45 0-2.81.795-3.52 2.11-.44.83-.84 1.662-.84 2.724 0 2.73 2.02 4.79 4.7 4.79z"/><path fill="#FFF" d="M212.45 82.44c.02-.05.036-.1.053-.15.197-.28.367-.568.52-.86.018 2.72 2.03 4.765 4.7 4.765 2.64 0 4.628-2.016 4.628-4.688 0-2.438-1.69-4.396-4.21-4.872-.25-.047-.5-.07-.74-.07-1.45 0-2.82.795-3.52 2.11-.09.182-.19.364-.28.548-.02-1.11-.45-2.02-.79-2.603-.9-1.6-2.39-2.52-4.09-2.52-.92 0-3.23.295-4.71 3.088-.19.374-.38.758-.57 1.153-.73 1.31-1.55 3.15-2.49 5.64l-.81 2.16c-1.85.07-4.38.83-6.63 3.84-.15-.18-.32-.35-.51-.51-.53-.43-1.15-.75-2.3-1.19-.45-.17-.93-.25-1.41-.25-1.88 0-3 1.14-3.73 2.26-.92-.82-2.13-1.31-3.51-1.31-.85 0-1.58.24-2.26.64-.48-.37-1.02-.65-1.62-.83-.06-.39-.16-.76-.31-1.12-.32-.95-1-1.75-1.91-2.23-.9-.47-1.8-.71-2.68-.71-1.64 0-2.84.81-3.78 1.98-.48-.36-1.05-.62-1.66-.72l-.09-.02c-.37-.16-.75-.29-1.15-.37-.18-.04-.37-.06-.56-.07-.08-.03-.16-.05-.24-.07l-.17-.04c-.44-.09-.94-.13-1.57-.13-.73 0-1.72.06-3.01.18-.32.03-.68.07-1.04.11-.61-.82-1.55-1.53-2.94-1.89-.1-.02-.21-.05-.31-.07l-.65-.11c-.47-.19-.99-.3-1.54-.3-.23 0-.46.01-.69.04-.18-.02-.37-.03-.56-.03-1.33 0-2.48.58-3.2 1-.23.14-.43.28-.64.42-.83-1.28-1.91-2.39-3.27-3.23-.06-.59-.26-1.18-.59-1.71l-3.25-5.18c-.73-1.16-2.01-1.87-3.38-1.87h-3.58c-1.57 0-2.99.92-3.64 2.34s-.41 3.1.62 4.29l1.81 2.08c-2.1 1.18-3.79 3-4.9 5.27-.39.09-.76.22-1.1.41-.8-.67-1.85-1.06-3.02-1.06-.87 0-1.65.23-2.34.6-.91-3.16-2.86-4.16-4.19-4.46-.71-.28-1.25-.46-1.97-.46-3.29 0-6.13 2.22-8.45 6.58l-.12.25-1.5 3.39c-.32-1.22-1.1-2.05-1.47-2.42-.38-.93-1.1-1.69-2-2.12-.29-.2-.64-.41-1.07-.57-.5-.23-1.06-.36-1.65-.36h-.74c-.78 0-1.55.23-2.21.67-3.42 2.27-6.02 5.08-7.71 8.36-.2.3-.41.6-.63.9-.05.07-.1.15-.15.22-.76 1.21-1.13 2.36-1.13 3.53 0 .94.27 1.86.82 2.76.09.14.18.28.27.4.14.23.29.45.47.65 1.08 1.22 2.5 1.89 3.99 1.89h.38c.25.05.49.07.73.07h.21c.07.01.14.01.2.01.54 0 1.07-.1 1.58-.32.13-.05.25-.11.36-.17.07.14.14.28.22.42.72 1.23 2.04 1.99 3.46 1.99.3 0 .61-.03.94-.1l-.27 1.25c-.05.25-.08.51-.09.76 0 0-.03.14-.04.21-.06.29-.1.6-.1.91 0 .39.06.75.15 1.1.01.07.02.13.04.2 0 .08 0 .17.01.27-.01.09-.01.19-.01.28v.4c0 2.21 1.79 4 4 4 1.78 0 2.79-1.09 3.34-1.67.28-.29.5-.63.68-.98.31-.48.51-1.03.58-1.58.15-.38.23-.78.26-1.2.05-.2.24-.92.97-2.75.7-1.73 1.17-3.09 1.44-4.19.61-.05 1.18-.22 1.7-.48.72-.16 1.38-.52 1.97-1.07.29-.14.57-.34.87-.57.34.78.92 1.45 1.69 1.88 1.05.6 1.94.95 2.8 1.11.24.05.48.07.72.07.93 0 1.84-.32 2.56-.92.53-.44.93-1 1.17-1.63.22-.24.44-.49.66-.74.4-.47.74-.9 1.02-1.3.48-.47.84-1.05 1.04-1.7.07-.09.18-.23.33-.4 1.9 4.46 6.13 7.21 11.7 7.21 2.3 0 4.15-.32 5.58-.72.35.47.81.87 1.35 1.15.84.43 1.56.8 2.61.8.16 0 .32-.01.48-.02.16.02.32.03.48.03.46 0 1.04-.08 1.67-.35 1.56-.15 3.95-1.07 5.48-4.88.69-1.72 1.02-3.22 1.02-4.56 0-.57-.06-1.29-.29-2.35l.1.02c.26.04.52.07.77.07.34 0 .74-.04 1.76-.2.83-.11 1.35-.17 1.55-.2l.27-.03c.2 0 .42-.02.66-.05h.16c.14 0 .29-.01.44-.03h.02c.29 0 .57-.03.85-.09l.31-.06c-.46 1.3-.57 1.91-.53 2.53-.08.3-.15.59-.21.89-.24 1.14-.34 1.96-.34 2.64 0 1.36.54 2.66 1.52 3.66 1.29 1.33 2.66 1.61 3.58 1.61 2.14 0 3.68-1.48 5.13-3.08l.63-.72c.3.15.55.26.78.35.45.18.93.27 1.41.27.14.32.31.61.53.88.36 1.23 1.31 2.23 2.56 2.65.42.14.84.21 1.27.21.27 0 .54-.04.8-.09.75.83 1.81 1.33 2.96 1.33h.48c1.56 0 2.98-.9 3.63-2.32.39-.84.69-1.5.9-1.97.25-.4.44-.85.54-1.34.04-.16.11-.44.24-.88.28.69.63 1.29 1.07 1.76.51.74 1.18 1.32 1.79 1.78 1.05.8 2.23 1.55 3.68 1.56.26.05.52.07.79.07.46 0 .85-.07 1.25-.19.14-.01.28-.02.42-.05.05 0 .09-.01.14-.01.18.02.36.04.56.04.76 0 1.5-.19 2.31-.6.71-.25 1.32-.7 1.77-1.27.14.57.39 1.11.75 1.56.73 1.16 2 1.87 3.38 1.87h.48c1.56 0 2.98-.9 3.63-2.32.39-.84.69-1.5.9-1.97.25-.4.44-.85.54-1.34.07-.35.29-1.19.97-2.93.75-1.97 1.37-3.79 1.86-5.4.47-1.55-.04-3.23-1.29-4.26-.53-.44-1.15-.76-2.3-1.19-.45-.17-.93-.26-1.41-.26-1.73 0-2.82.96-3.55 1.98.11-.36.21-.71.28-1.04 1.22-2.68 2.15-4.87 2.77-6.52z"/><path fill="#0071BC" d="M42.967 93.752c0 1.11-1.238 2.79-3.714 5.036s-4.22 3.37-5.23 3.37c-.098 0-.116-.037-.054-.11.06-.07.04-.108-.06-.108s-.17.037-.21.11-.11.108-.21.108c-.03 0-.11-.073-.26-.218l-.33.326c-.25-.05-.51-.206-.78-.47-.27-.267-.4-.532-.37-.798v-.58c.34.29.54.435.59.435.07 0 .11-.06.11-.18 0 .193.12.29.37.29.1 0 .16-.037.18-.11.02-.072.07-.108.15-.108.1 0 .13.024.11.072-.05.05-.07.097-.04.145 2.29-1.52 3.9-2.693 4.84-3.514 1.58-1.377 2.61-2.766 3.1-4.167-.13-.12-.5-.18-1.11-.18l-2.74 1.74c-.08 0-.15-.03-.23-.11-.25.49-.93 1.43-2.03 2.83-.91 1.14-1.49 2.13-1.74 2.97-.32-.12-.67-.12-1.04 0-.47-.48-.7-.83-.7-1.05 0-.09.05-.15.15-.16.1-.01.16-.03.18-.05-.07-.04-.14-.07-.22-.07.62-3.28 1.54-6.76 2.77-10.43l3.7-9.82c.25-.46.49-.93.74-1.41.37-.6.75-.9 1.14-.9.22 0 .43.2.63.58.17.29.26.5.26.62 0-.02-.58 1.32-1.74 4.02-.22.49-1.07 2.78-2.55 6.89-.1.03-.24.1-.41.22-.03.73-.29 1.8-.78 3.23-.67 2.03-1.04 3.17-1.11 3.41-.03.03 0 .08.07.15.44-.31 1.06-.88 1.85-1.7s1.44-1.39 1.96-1.7c.79-.48 1.67-.72 2.66-.72 1.35 0 2.03.73 2.03 2.17zM32.51 98.027c-.075-.072-.21-.11-.407-.11 0 .025.02.092.055.2.037.11.056.176.056.2.196 0 .295-.096.295-.29zm1.107 3.297h-.406v-.18h.41v.18zm.555-.036c0-.073-.05-.18-.148-.326-.073.072-.172.12-.295.145l.44.18zm1.663-.073v-.18h-.518v.18h.518zm.554-.434v-.18h-.3v.18h.29zm.37-.39l-.12-.11-.26.26.11.15.26-.29zm.84-14.78v-.18h-.3v.18h.29zm18.96 7.46c0 .17-.05.45-.15.84 0 .05.01.33.04.84.02.34-.09.57-.34.69.07.05.15.07.22.07l-.41 1.05c0 .1.02.17.07.22-.1-.09-.25-.05-.44.15.07.07.14.11.22.11 0 .15-.06.28-.19.4 0-.14-.05-.21-.15-.21 0 .54-.27 1.13-.81 1.78-.99 1.19-1.54 1.86-1.66 2.03-.03 0-.08-.03-.15-.11-.08-.07-.14-.11-.19-.11-.08.1-.03.23.14.4-1.36.99-2.12 1.49-2.29 1.49-.08 0-.24.02-.48.06-.25.04-.42.06-.52.06-.1 0-.14.02-.11.06s-.01.05-.09.05-.32.02-.69.06c-.37.04-.59.05-.67.05-.3 0-.8-.23-1.52-.69 0-.12-.09-.18-.26-.18-.39 0-.71-.4-.96-1.19-.15-.53-.3-1.07-.44-1.63.32 0 .47.01.44.04-.3-.21-.45-.43-.45-.65 0-.99.71-2.56 2.14-4.71 1.65-2.51 3.21-3.76 4.69-3.76.07 0 .18.06.33.18.12-.19.33-.29.63-.29.31 0 .54.11.66.33.13.22.24.45.34.67-.03 0-.16.08-.41.24-.25.16-.43.24-.56.24-.44 0-1.11.44-1.99 1.3-.45.48-.9.96-1.37 1.43-.47.47-1.04 1.37-1.7 2.69-.67 1.33-1 2.32-1 3 0 .22.18.5.54.85s.64.53.86.53c.1 0 .3-.03.61-.1s.51-.11.61-.11c.37 0 .82-.19 1.37-.58.79-.53 1.19-.81 1.22-.83.02-.29.22-.54.59-.77.37-.23.55-.45.55-.67.1-.07.22-.03.37.11 0-.17.03-.36.11-.58.49-.46.85-1.09 1.07-1.88.19-.7.45-1.13.77-1.3 0-.02.01-.06.03-.11.03-.02.03-.03 0-.03h-.14c-.1 0-.17-.51-.22-1.52-.05-.97-.05-1.53 0-1.7-.13-.12-.22-.15-.3-.08 0-.02-.04-.14-.11-.36-.07-.21-.09-.4-.04-.54-.05-.05-.2-.07-.45-.07-.02-.15.01-.4.11-.76.74.26 1.33.57 1.77.9 0 .32-.08.51-.23.58.3.29.41.51.33.65.05.05.16.08.33.08 0 .15.04.39.11.74.08.35.12.57.12.67zm-9.76 8.86l-.13-.05-.13.23.13.06.13-.23zm.51.35h-.41v-.11h.41v.11zm3.88-.11v-.18h-.63v.18h.62zm4.25-11.77v-.21h-.52v.22h.51zm.37 5.4l-.08-.14-.29.15v.15l.37-.14zm14.82-2.86c0 .36-.16 1.32-.48 2.86-.3 1.45-.48 2.25-.56 2.4.05.07.07.19.07.36 0 .87-.2 1.58-.59 2.14.07.05.15.08.22.08-.15.41-.3.94-.45 1.59-.2 0-.36-.01-.48-.04s-.17-.03-.15-.03l-.3.22c-.13-.1-.22-.14-.3-.14 0-.1-.02-.32-.06-.69-.04-.36-.06-.6-.06-.72 0-1.01.15-1.75.45-2.21-.07-.05-.15-.07-.22-.07v-.58c0-.17.09-.55.26-1.16.17-.6.28-1.22.33-1.85.1 0 .19.04.26.11l.26-.29c-.1.03-.28.04-.56.04.04-.14.08-.38.11-.72.03-.34.05-.58.07-.73l-.08-.94c-.4.41-.99.95-1.77 1.63-1.13 1.59-2.27 3.18-3.43 4.77-1.67 2.29-2.65 3.43-2.95 3.43h-.66c-.37 0-.55-.48-.55-1.44 0-.46.1-1.04.29-1.73.27-.91.42-1.44.44-1.59.24-1.27.43-2.18.55-2.71.3-1.01.67-1.91 1.11-2.71-.05-.28.12-.89.52-1.8.44-1.01.9-1.52 1.36-1.52.22 0 .39.12.5.35.11.23.22.47.35.71l-3.01 9.55c.27-.04.56-.32.88-.83.22-.38.46-.76.7-1.12l4.56-6.13c.42-.21.8-.52 1.14-.9.18-.21.56-.32 1.15-.32.69 0 1.03.93 1.03 2.79zM61 99.99l-.443.11v-.148l.37-.146.073.183zm7.982 3.88c-.025 0-.105.022-.24.07-.136.045-.266.07-.39.07l-.258-.255c0-.02.056-.06.167-.1.11-.05.17-.132.17-.253 0-.2-.13-.43-.4-.69h-.37c.13-.02.32-.06.59-.11l.59-.11c.1.07.15.2.15.4-.29-.08-.48-.08-.55 0 .2.18.38.24.56.17v.81zm.665-6.2c-.12-.29-.182-.508-.182-.65-.1 0-.15.142-.15.432.08 0 .19.07.332.216zm33-4.78c0 .92-.27 2.49-.813 4.71-.074.65-.185 1.713-.333 3.19 0-.026-.03-.098-.11-.22-.07.13-.18.458-.33.98.15-.194.27-.29.37-.29-.07.17-.26.397-.55.687.08.074.15.11.22.11-.05.024-.08.078-.11.163-.02.084-.06.14-.11.163.12.12.23.18.33.18-.05.14-.2.35-.44.61.1.217.13.374.08.47-.02 0-.09.013-.18.037-.1.023-.17.035-.22.035-.1-.17-.13-.47-.11-.904-.14-.14-.28-.22-.4-.22.03 0 .06-.02.11-.07s.14-.07.26-.07c.08 0 .09.04.04.11-.05.07-.02.11.08.11-.02 0 .1-.06.37-.18-.15-.19-.39-.31-.74-.36l.08-.72c-.29-.26-.44-.52-.44-.76 0-.07.06-.23.17-.47.11-.24.16-.43.16-.58.03 0-.09.11-.33.33 0-.21.08-.38.22-.5l-.07-2.53c-.62.53-1.43 1.49-2.44 2.87-.69.94-1.54 1.63-2.55 2.06.03-.07.03-.22 0-.43-.12.04-.26.19-.4.44-.17-.05-.54-.07-1.11-.07-.34 0-.68-.18-1-.54l.11-.07c-.14-.05-.29-.19-.44-.43-.15-.24-.22-.46-.22-.65 0-.38.17-.85.52-1.4.29-.41.58-.82.85-1.22 1.38-2.76 3.53-5.11 6.46-7.05h.74c0 .22.03.36.08.43.12 0 .19-.11.19-.32.02 0 .15.09.37.25.15.12.27.18.37.18v.62c-.37.17-.82.44-1.33.8-.4.29-.64.43-.74.43-.1 0-.14-.02-.11-.07.05-.07.05-.12 0-.14-1.83 2.27-3.13 3.96-3.92 5.07-.3.56-.75 1.36-1.37 2.39l.19.15c1.02-.51 2.05-1.45 3.07-2.83.77-1.08 1.56-2.17 2.36-3.26 0 .15.06.22.19.22.08-.07 0-.21-.22-.4.15-.17.44-.59.89-1.27.35-.58.56-.87.63-.87.08 0 .09.04.04.13-.05.08-.02.13.08.13.08 0 .15-.04.21-.13s.14-.13.24-.13c.13 0 .35.16.67.47.32.32.48.55.48.69zm-2.29 9.2l-.148-.435-.15.08.15.36h.14zm.295-.87l-.518-.25-.037.18.518.25.037-.18zm.332.472l-.036-.146-.37.11v.18l.406-.145zm18.292-11.668c0 .97-.357 2.31-1.07 4.03-.617 1.45-1.147 2.45-1.59 3.007-1.48 1.59-2.28 2.39-2.402 2.39-.1 0-.142-.02-.13-.06.013-.04-.018-.06-.092-.06-.1 0-.253.15-.462.45-.21.3-.363.45-.462.45-.074 0-.104-.02-.092-.05.012-.03-.03-.05-.13-.05-.123 0-.26.09-.406.26-.148.17-.357.26-.628.26 0-.14-.025-.25-.074-.32-.05 0-.074.11-.074.32h-1.515c.22-.36.56-.54 1.03-.54.07-.19.23-.4.48-.61.02.02.02.09 0 .18 0 .1.05.15.15.15.1 0 .13-.02.11-.07-.03-.05.01-.07.11-.07s.16.06.2.17c.03.11.05.18.05.2.05-.05.1-.1.14-.16.05-.06.1-.1.14-.13-.1-.12-.32-.18-.67-.18v-.39c.17-.16.28-.25.33-.25.17 0 .23-.05.18-.14.29-.46.58-.8.85-1.02 1.18-.99 2.18-2.4 2.99-4.24.71-1.67 1.07-3.14 1.07-4.42 0-.39-.09-.77-.26-1.16-.17-.39-.4-.58-.67-.58-.55.31-1.15.68-1.82 1.09-.27.87-.56 1.63-.85 2.28-.74 1.4-1.67 3.38-2.77 5.94-.52 1.5-.9 2.59-1.15 3.26-.47 1.26-.89 2.19-1.26 2.79-.07.87-.55 2.41-1.44 4.6-.84 2.08-1.26 3.42-1.26 4.02-.25 0-.5.12-.74.36 0-.02-.03-.09-.1-.2-.06-.1-.09-.18-.09-.23 0-.07.08-.09.26-.07V111c-.18-.145-.3-.217-.37-.217.17 0 .29-.03.37-.11.14-.09.13-.14-.04-.14-.13 0-.2.01-.22.04-.03.028-.05.04-.08.04l.15-.62c.07.075.14.11.22.11.05-.05.08-.1.11-.144.02-.05.05-.1.07-.15-.05-.05-.2-.07-.45-.07.24-1.16.49-2.32.73-3.48.32-1.38.77-2.51 1.36-3.41-.08-.07-.14-.11-.19-.11l1.99-6.48 2.73-6.16c1.57-2.97 3.21-4.46 4.91-4.46.05 0 .34.11.89.32.69 0 1.19.67 1.51 1.99.2.79.3 1.49.3 2.1zm-13.598 22.18c-.247 0-.37.086-.37.255-.172-.17-.258-.32-.258-.44l.258.22c.024-.05.024-.12 0-.21l-.073-.18c.098-.05.185-.1.26-.15l.183.51zm-.222.4c-.247.267-.383.4-.406.4v-.398h.406zm.185-1.666c.1.095.05.24-.14.434 0-.07-.05-.17-.15-.29l.3-.144zm2.41-7.03h-.18v-.398h.19v.398zm5.21-4.383c-.07 0-.13-.05-.18-.145-.05-.072-.05-.132 0-.18-.1.096-.14.253-.14.47.08 0 .19-.05.34-.145zm17.37-8.48c0 .07-.59.688-1.77 1.848-.49.53-1.29 1.415-2.4 2.647-1.18 1.23-1.77 2.08-1.77 2.537 0-.027-.03-.1-.11-.22-.07.387-.45.98-1.14 1.775-.47.53-.94 1.05-1.4 1.557.03.05.04.17.04.36-.39-.07-.91-.29-1.55-.65 0-.15.11-.34.34-.58-.05-.05-.22-.07-.52-.07 0-.05-.02-.18-.07-.38-.05-.21-.07-.36-.07-.46 0-1.11.59-2.93 1.78-5.47 1.26-2.68 2.3-4.02 3.14-4.02.44 0 .67.23.67.69 0 .2-.21.55-.63 1.06s-.65.86-.7 1.05c-.29 1.02-.66 2.01-1.11 2.97-.37.82-.75 1.65-1.14 2.47v.29c.19-.03.39-.17.59-.44.98-1.26 1.96-2.5 2.92-3.73 1.26-1.57 2.33-2.56 3.21-2.97.03 0 .07-.07.15-.2.08-.13.16-.2.26-.2s.14.01.11.05c-.02.03.02.05.11.05.13 0 .13-.06 0-.18.13 0 .26.06.41.18.17-.24.22-.42.15-.54h.45c0 .02.02.1.05.23.04.13.06.24.06.34zm-2.36 2.28v-.18h-.29v.18h.3zm2.18-2.354l-.11-.11-.33.26.11.15.34-.29zm4.4 2.54c.08 4.31 2.89 6.09 6.14 6.09 2.33 0 3.73-.4 4.95-.91l.56 2.28c-1.14.5-3.1 1.08-5.95 1.08-5.5 0-8.79-3.55-8.79-8.84s3.18-9.45 8.39-9.45c5.84 0 7.39 5.04 7.39 8.26 0 .65-.07 1.16-.11 1.49h-12.57zm9.54-2.28c.04-2.03-.85-5.18-4.51-5.18-3.29 0-4.73 2.97-4.99 5.18h9.5zm-5.47-14.63l3.25 5.18h-2.33l-4.51-5.18h3.59zm17.96 11.7l-.37.37c-.2 0-.34.02-.44.06-.1.04-.18.06-.26.06-.1 0-.28-.02-.55-.05s-.45-.05-.55-.05c-.29 0-.66.15-1.09.44-.43.29-.64.53-.64.73 1.51 3.82 2.26 6.38 2.26 7.68 0 .82-.24 1.85-.74 3.08-.64 1.6-1.4 2.39-2.29 2.39-.07 0-.14-.02-.22-.05-.07-.03-.16-.05-.26-.05s-.21.08-.35.22c-.13.15-.24.22-.31.22-.1 0-.2-.03-.31-.11-.11-.07-.22-.11-.31-.11s-.15.04-.16.11c-.01.07-.07.11-.17.11-.05 0-.31-.12-.77-.36v-.4c.08 0 .23-.02.46-.05s.4-.06.5-.06c.1 0 .15-.03.15-.11l-.07-.18c.05-.02.1-.02.15 0 .05.03.03.06-.07.11.28.12.5.18.67.18v-.65c.1.08.2.11.32.11-.02-.14.2-.52.67-1.13.54-.7.86-1.16.96-1.38.41-.82.54-1.7.39-2.62.03-.05.04-.13.04-.25 0-.39-.39-1.63-1.18-3.72-.79-2.09-1.18-3.42-1.18-4 0-.38.32-.76.96-1.13.55-.31.95-.47 1.22-.47.1 0 .15.05.15.15 0 .1.04.15.11.15h.37c0-.09-.1-.14-.29-.14.35-.1.65-.15.93-.15 0 .22.03.35.08.4.03 0 .08-.03.17-.09.09-.06.15-.1.17-.13-.05 0-.1-.01-.14-.03l1.26.22c.57.14.85.39.85.76zM152 90.32l-.26-.253-.11.11.26.255.11-.11zm2.66 8.804l-.07.18-.37-.148v-.144l.448.11zm0-2.68l-.26-.258-.11.073.26.29.11-.11zM167 90.28c-.05 0-.12-.05-.22-.148-.07.02-.17.1-.294.25-.126.14-.237.2-.335.18-.1-.03-.17-.06-.22-.11-.05-.05-.12-.07-.22-.07-.07-.03-.2.02-.39.12-.18.105-.31.16-.39.16-.1-.025-.16-.025-.18 0-.02.047-.09.06-.18.035-.1-.025-.13-.06-.11-.11.03-.07.03-.12 0-.145-.05.075-.13.17-.26.29-.02 0-.08-.082-.18-.25-.27.24-.54.34-.81.29-.07-.026-.12-.056-.13-.09-.01-.04-.05-.068-.13-.09-.05 0-.13.082-.26.25-.22.024-.79.097-1.7.217-.76.12-1.18.17-1.25.14l-.81-.15c-.12-.02-.26-.14-.4-.34-.14-.21-.21-.39-.18-.56.07-.32 1.1-.57 3.07-.76 1.8-.17 2.93-.21 3.4-.11.1.02.14.07.13.14-.01.07.03.12.13.14.07 0 .19-.02.35-.06s.29-.06.39-.06c.25.05.49.17.74.36.13-.03.32-.01.59.03l-.1.4zm16.337 5.25c0 .56-.072 1.554-.22 2.99-.15 1.44-.21 2.4-.185 2.88-.17.24-.43.59-.77 1.05 0-.19-.16-.54-.48-1.05.296 0 .52-.05.665-.144 0-.09-.073-.1-.22-.03 0-.14-.063-.27-.186-.4-.12.1-.28.2-.48.29-.07-.94-.11-2.71-.11-5.32-.12.074-.65.594-1.59 1.56-.81.846-1.34 1.268-1.59 1.268-.1 0-.12-.036-.07-.11.05-.07.04-.107-.03-.107-.14 0-.22.106-.22.324-.25-.09-.63-.27-1.14-.54-.24-.65-.5-1.66-.77-3.04-.29.27-.76.81-1.4 1.63-.52.7-.91 1.12-1.18 1.27.03.05.08.09.15.11.08.03.14.06.19.11l-1.7 1.96c-1.03 1.14-1.73 1.71-2.1 1.71-.22 0-.46-.13-.72-.39s-.39-.55-.39-.87c0-.38.09-.99.26-1.83.17-.83.34-1.31.52-1.43-.07-.05-.14-.07-.22-.07v-.36c-.02-.19.47-1.57 1.48-4.13 1.11-2.75 1.94-4.13 2.48-4.13.23 0 .5.09.82.26 0 .03.03.09.08.2.05.11.07.21.07.31 0 .32-.22.67-.66 1.05.07.05.13.08.18.08-.36.8-.85 1.96-1.44 3.48-.19-.12-.42-.13-.66-.03 0 .1.05.15.14.15.1 0 .15-.03.15-.11.1 0 .15.09.15.26 0-.07-.44 1.32-1.33 4.17l.08.8c.59-.63 1.26-1.5 2-2.61 1.01-1.43 1.57-2.21 1.67-2.36.12-.02.41-.33.85-.91.44-.58.86-.87 1.26-.87.72 0 1.15.42 1.3 1.24.03.07.05.76.08 2.07.02.37.07.62.15.76-.05.05.01.08.19.08.13 0 .71-.61 1.76-1.85s1.72-1.85 2.02-1.85c.64 0 1.04.29 1.18.87.08.22.11.79.11 1.71zm-6.02 1.92v-.18h-.333v.18h.333zm13.155-4.89c-.466 1.55-1.06 3.26-1.77 5.147-.595 1.52-.977 2.705-1.15 3.55-.22 0-.37.036-.44.11 0 .215.11.23.33.034-.195.46-.54 1.22-1.032 2.29h-.48c-.05-.09-.135-.21-.26-.36v-1.45c.174-.17.26-.32.26-.47.246 0 .407.04.48.11l.148-.18c-.27-.14-.554-.16-.85-.07.173-.75.38-1.28.63-1.59 0-.09-.074-.14-.22-.14.294-.89.8-2.15 1.513-3.76v-.54c.05-.26.3-.86.76-1.79s.76-1.39.91-1.39c.64.24 1.04.42 1.19.54zm-3.804 9.747v-.18h-.627v.18h.63zm-.184.325l-.3-.29-.11.107.3.25.11-.07zm.22.036l-.26.4-.144-.11.26-.4.147.11zm7.98-21.16c0 .46-.21.69-.624.69-.47 0-.7-.268-.7-.8 0-.096.123-.374.37-.83.64.12.96.433.96.94zm14.935-2.21c0 .194-.34.7-1 1.52 0 .025.04.1.11.22-.62 1.642-1.56 3.864-2.85 6.665-.1.54-.28 1.15-.52 1.85-.42 1.07-.65 1.69-.7 1.89.02.63-.15 1.49-.52 2.57-.52 1.5-.8 2.37-.85 2.61-.18.75-.49 2.467-.94 5.147-.1.025-.25.09-.46.2-.21.11-.38.165-.5.165-.08 0-.2-.035-.37-.107-.18-.074-.31-.11-.41-.11s-.16.036-.17.11c-.02.07-.07.107-.17.107s-.15-.034-.15-.106-.02-.11-.04-.11c-.2.17-.22.25-.07.25-.15-.05-.32-.04-.52.03-.27.09-.43.14-.48.14-.1 0-.21-.06-.32-.16-.11-.11-.22-.17-.31-.17-.1 0-.12.04-.06.12.06.08.04.13-.06.13-.22 0-.66-.25-1.31-.75s-1-.88-1.05-1.14c-.3-.12-.55-.57-.74-1.35-.2-.68-.3-1.25-.3-1.71 0-1.53.53-3.08 1.59-4.65 1.15-1.7 2.46-2.54 3.91-2.54.1 0 .46.09 1.07.27.62.18.98.27 1.07.27s.12.02.08.07c-.03.05-.03.1 0 .14.1-.27.78-2.1 2.07-5.51.88-2.34 1.65-4.07 2.29-5.18.19-.41.39-.81.59-1.2.32-.6.7-.91 1.14-.91.23 0 .43.16.61.48.19.33.28.56.28.71zm-13.9 18.48h-.19l-.11.722h.18l.11-.723zm.29 2.1v-.18h-.3v.18h.29zm.03-5.037l-.15-.04-.15.29.15.03.15-.29zm6.21-2.07c0-.2-.13-.41-.37-.65-.25-.24-.52-.36-.82-.36-1.38 0-2.49.96-3.33 2.89-.65 1.45-.97 2.77-.97 3.95 0 .1.08.3.26.6.17.3.27.48.31.53.03.05.34.28.9.69.49.36.83.54 1.03.54.14.1.22.21.22.33 0-.09.07-.14.22-.14.4 0 .61.02.63.04-.07.07-.11.16-.11.25.08-.04.17-.08.3-.11.1-.21.24-.72.44-1.52.15 0 .24.03.29.08-.1-.05-.22-.12-.37-.22v-.87c0-.26.15-.45.44-.54-.15-.19-.2-.42-.15-.69.05-.29.11-.57.18-.83-.08-.41.05-1.12.37-2.14s.48-1.61.48-1.81zm2.21-5.18l-.04-.15-.26.14v.15l.29-.14zm9.68 4.96c-.47 1.55-1.06 3.26-1.78 5.15-.59 1.52-.98 2.71-1.15 3.55-.23 0-.37.04-.45.11 0 .22.11.23.34.04-.2.46-.55 1.22-1.04 2.28h-.48c-.05-.1-.13-.22-.26-.36v-1.45c.18-.17.26-.33.26-.47.25 0 .41.03.48.11l.15-.18c-.27-.15-.55-.17-.85-.08.17-.75.38-1.28.63-1.59 0-.1-.07-.15-.22-.15.29-.89.8-2.15 1.51-3.76v-.54c.05-.26.31-.86.76-1.79s.76-1.39.91-1.39c.64.24 1.04.42 1.18.54zm-3.81 9.75v-.18h-.63v.18h.63zm-.18.33l-.3-.29-.11.11.29.26.11-.07zm.22.04l-.26.4-.15-.11.26-.4.14.11zm7.98-21.16c0 .46-.21.69-.63.69-.47 0-.7-.27-.7-.8 0-.1.12-.37.37-.83.64.12.96.44.96.94z"/></svg>