<svg xmlns="http://www.w3.org/2000/svg" width="250" height="250" viewBox="0 0 250 250"><path opacity=".15" d="M219.42 113.213l-61.34-8.914-27.432-55.59-27.435 55.58-61.34 8.91 25.372 24.73c-.84.04-1.645.1-2.385.17-1.888.19-3.5.51-4.922.96-1.597.51-2.98 1.21-4.118 2.09-1.21.94-2.19 2.1-2.908 3.46-.663 1.24-1.128 2.68-1.382 4.27-.216 1.36-.326 2.9-.326 4.57 0 1.85.397 3.52 1.18 4.99.358.67.778 1.3 1.256 1.88h-2.436v7.31c0 .78.08 1.62.24 2.49.205 1.1.626 2.18 1.248 3.21.612 1.02 1.458 1.97 2.514 2.83 1.05.85 2.332 1.56 3.913 2.15 1.42.54 3.08.95 5.06 1.26 1.89.3 4.14.45 6.7.45 2.65 0 4.87-.19 6.78-.57 1.6-.32 2.98-.74 4.2-1.28l-.23 1.05h.69l-6.57 38.29 54.86-28.84 54.86 28.85-7.51-43.79c.12-.2.24-.4.35-.6.55-1.04.9-2.12 1.04-3.23.1-.8.15-1.56.15-2.27v-15.11h1.18v26.71h21.84v-26.71h7.41V138.6h-16.62l26.05-25.4z"/><path fill="#F47F38" d="M65.487 203.287l8.295 10.283 13.93-19.343-11.112-2.842m132.527-92.457l8.294 10.285-19.57 5.91-7.27-12.68m-159-3.515l8.3 10.285 9.35-1.36"/><path fill="#F47F38" d="M128.648 184.727l54.865 28.843-10.478-61.093 44.386-43.264-61.34-8.914-27.43-55.59-27.43 55.58-61.34 8.91 44.39 43.26-10.48 61.09"/><path fill="#FFD200" d="M120.354 174.444l54.865 28.843-10.48-61.092 44.38-43.267-61.34-8.914-27.43-55.584-27.43 55.584-61.34 8.914 44.38 43.267-10.48 61.092"/><path fill="#FAAF40" d="M120.354 160.182l40.787 21.443-7.78-45.418 33-32.164-45.6-6.628-20.39-41.32-20.39 41.32-45.6 6.628 33 32.164-7.79 45.418"/><path fill="#FFF" d="M123.58 116.94s-32.73 66.17-44.27 1.745c0 0-7.845 2.566-6.324 5.273 0 0 14.54 66.42 53.93 1.592 0 0 6.035-6.692-3.337-8.61z"/><path fill="#FFF" d="M79.31 112.2c7.288-9.405 11.635-.62 11.635-.62-.64 1.262-3.35.69-3.35.69-6.84-1.068-6.057 4.67-6.057 4.67l-4.264 5.45"/><path fill="#FFF" d="M79.828 122.393s1.213-2.652 1.71-5.452c.496-2.8-1.354.15-1.354.15l-1.247-3.67-.213-1.1s.57-11.48-4.668-17.05c0 0-7.162-.93 0 8.78 0 0 2.567 7.03 2.192 8.53 0 0-.91 2.35-3.047 1.01 0 0-4.06-5.94-12.29-6.52 0 0-3.37 5.51 5.99 5.51l4.08 3.21s-4.18 10.91 7.04 7.59"/><path fill="#FFF" d="M77.275 111.81s.69 1.067 4.348-.43c3.657-1.495-4.348 8.554-4.348 8.554v-8.125zm36.482 22.93s12.4-20.58 12.29-23.51l19.166-6.137 24.834 9.146-7.268 36.88-16.7 12.61-14.53 12.33-21.01-13.75 2.19-3.15-.87-18.96 1.88-5.49z"/><path fill="#D0D2D3" d="M114.946 138.717s7.07-11.55 8.496-21.498l8.11 4.55-2.368 15.98-6.6 3.31-7.638-2.36zm-36.503-71.63s-8.908-16.202 7.63-10.573c16.54 5.627-7.63 10.574-7.63 10.574z"/><path fill="#919496" d="M81.563 62.617s-7.927-8.002-2.227 2.71c5.7 10.713 2.227-2.71 2.227-2.71zm74.423-3.023l4.64 10.15s14.27-17.752-4.64-10.15z"/><path fill="#FFF" d="M165.03 74.985c-3.015-17.81-21.792-31.527-44.52-31.527-24.83 0-44.96 16.37-44.96 36.56s20.128 36.56 44.96 36.56c.932 0 1.855-.028 2.775-.075.995 4.34 1.827 11.07-1.18 15.146 0 0-20.624 15.42-10.1 30.06-.014-.11-2.708-25.67 16.97-30.22l-3.57-16.11s7.435-1.75 16.12-5.58v20.16s-20.762 24.24-9.003 40.66c20.56-.63 61.938-11.63 32.51-95.65z"/><path fill="#D0D2D3" d="M141.525 129.977V109.81c-8.686 3.833-16.12 5.58-16.12 5.58l3.57 16.105c-19.678 4.55-16.984 30.114-16.97 30.222 2.052 2.86 3.083 3.828 7.896 6.508 0 0 6.49 2.596 12.62 2.41-11.75-16.414 9.01-40.658 9.01-40.658z"/><ellipse fill="#D0D2D3" cx="113.757" cy="80.823" rx="38.206" ry="28.985"/><path fill="#D0D2D3" d="M151.763 57.514s-.437 3.754 3.058 4.276c0 0 17.11-5.587 4.63 9.43 0 0-1.39 2.27 1.49 4.276 0 0 11.52-9.865 7.86-17.373 0 0-2.79-8.203-17.02-.61z"/><ellipse fill="#FFF" cx="94.246" cy="74.313" rx="14.935" ry="14.721"/><circle fill="#0071BC" cx="95.41" cy="75.22" r="10.974"/><path fill="#0F4481" d="M94.62 77.984c-2.038-2.355-1.78-5.914.572-7.95s5.91-1.78 7.95.574c2.037 2.353 1.78 5.913-.574 7.948-2.35 2.038-5.91 1.78-7.948-.572z"/><path fill="#FFF" d="M97.903 76.256c-1.083-1.252-.946-3.143.304-4.225s3.142-.94 4.226.31c1.082 1.25.944 3.15-.307 4.23-1.25 1.08-3.14.95-4.223-.3z"/><circle fill="#FFF" cx="93.343" cy="73.519" r="1.458"/><ellipse fill="#FFF" cx="128.975" cy="74.645" rx="18.436" ry="18.313"/><circle fill="#0071BC" cx="131.543" cy="74.54" r="12.655"/><path fill="#0F4481" d="M130.633 77.727c-2.352-2.717-2.055-6.82.66-9.166 2.713-2.34 6.814-2.05 9.167.67 2.35 2.72 2.053 6.82-.662 9.17-2.712 2.35-6.816 2.05-9.165-.66z"/><path fill="#FFF" d="M134.418 75.734c-1.25-1.444-1.092-3.623.352-4.87 1.44-1.248 3.62-1.095 4.87.35 1.25 1.442 1.09 3.624-.353 4.872-1.442 1.248-3.62 1.088-4.87-.352z"/><circle fill="#FFF" cx="129.158" cy="72.58" r="1.682"/><path fill="#6C6F71" d="M112.738 107.742s-.977-2.955-4.014-2.703c0 0 .81-.89 4.014-2.26 0 0-2.835.27-4.772 1.81 0 0-4.843 3.71-2.792-2.16 0 0-4.395 7.12 3.215 3.13 0 0 2.34.45 4.34 2.16z"/><path fill="#BE1E2D" d="M107.413 97.203s-4.136 11.965 2.083 4.215c0 0 1.66-2.343 5.877-2.654 0 0-18.927-8.58-7.96-1.56z"/><path fill="#D0D2D3" d="M149.525 113.57l-2.115 54.705 8.576-3.675 6.793-47.38-2.16-1.97-8.66 51.073"/><path fill="#6C6F71" d="M106.75 91.31l.497 3.134s9.782 7.156 12.08 1.492l-.855-2.192 2.937 3.763-1.76-1.09s.26 6.948-12.51-1.115c0 0-5.88-2.367-.7 1.27 0 0-8.61-3.897-.27-2.454l-.33-2.404.9-.403z"/><path fill="#1D8FCD" d="M102.203 89.79s3.322-6.76 4.547-3.19c0 0 2.745-4.02 2.745 2.435 0 0-2.602 1.774-2.745 3.924 0-.01-2.692-1.08-4.547-3.17z"/><path fill="#FFF" d="M106.75 91.31s.17-.913 1.455-1.823c0 0-.476-1.748-1.454 1.824z"/><path fill="#ACAFB1" d="M80.093 79.016s12.525-5.514 27.635 2.273c0 0-.982 7.28-13.943 7.87 0 0-9.578.5-13.692-10.15zm31.78 2.466s10.835-7.38 34.207 0c0 0-3.89 13.542-17.262 12.048-.002 0-13.507-.288-16.944-12.048z"/><path fill="#D0D2D3" d="M78.33 112.88l-1.055 3.206s-6.458 3.036-1.124 7.717c0 0-6.02-4.323.04-7.717l2.15-3.207zm-2.778 11.864s-.336 2.887 4.375 12.293l-4.375-12.293z"/><path fill="#FFD200" d="M160.548 187.337v-12.583m15.674-39.477h-38.374v27.67h-1.463v-27.67h-21.847v9.88l-2.162-9.88H87.218l-2.035 9.3c-.01-.116-.017-.23-.03-.345-.12-1.054-.427-2.092-.913-3.088-.51-1.04-1.25-2.007-2.21-2.876-.95-.862-2.138-1.565-3.628-2.15-1.312-.516-2.845-.905-4.69-1.193-1.735-.27-3.833-.405-6.235-.405-2.23 0-4.232.09-5.95.268-1.888.194-3.5.51-4.922.967-1.597.51-2.98 1.214-4.118 2.097-1.21.94-2.19 2.106-2.908 3.46-.67 1.245-1.13 2.682-1.39 4.27-.22 1.36-.33 2.898-.33 4.572 0 1.85.39 3.528 1.18 4.99.36.67.78 1.3 1.25 1.886h-2.43v7.318c0 .782.08 1.618.24 2.49.2 1.102.62 2.185 1.24 3.213.61 1.02 1.46 1.97 2.51 2.83 1.05.86 2.33 1.57 3.91 2.16 1.42.54 3.08.95 5.07 1.27 1.88.3 4.14.45 6.7.45 2.64 0 4.86-.18 6.78-.57 1.6-.32 2.98-.74 4.2-1.27l-.23 1.05h65.5v-1.54c.43.22.88.43 1.38.62 1.4.55 3.05.97 5.05 1.28 1.91.3 4.13.45 6.78.45 2.63 0 4.83-.14 6.74-.44 1.99-.31 3.64-.73 5.04-1.28 1.57-.61 2.83-1.34 3.85-2.24 1.01-.89 1.8-1.88 2.35-2.92s.9-2.13 1.04-3.23c.1-.8.15-1.56.15-2.27v-15.11h1.17V176h21.85v-26.71h7.41V135.3h-30.4z"/><path fill="#F47F38" d="M65.716 149.293c0 .22.236.372.707.46s1.096.172 1.874.247 1.662.167 2.652.276 2 .287 3.03.532c1.03.246 2.04.588 3.03 1.024.99.438 1.87 1.018 2.65 1.74s1.4 1.62 1.87 2.684c.47 1.065.7 2.35.7 3.85 0 1.08-.04 2.142-.11 3.187-.07 1.044-.26 2.034-.56 2.97-.3.936-.76 1.8-1.37 2.59-.62.793-1.47 1.476-2.56 2.05-1.1.573-2.46 1.023-4.1 1.352-1.64.327-3.64.49-6 .49s-4.39-.132-6.09-.398c-1.69-.267-3.12-.617-4.28-1.055-1.16-.437-2.09-.942-2.8-1.516s-1.24-1.17-1.62-1.792c-.38-.62-.63-1.246-.74-1.874-.12-.628-.18-1.216-.18-1.762v-3.318H65.7v6.145h2.684v-6.554c0-.2-.235-.37-.707-.52-.47-.14-1.092-.29-1.87-.46l-2.66-.55c-.984-.19-1.99-.44-3.02-.75s-2.043-.68-3.033-1.12c-.99-.44-1.87-.99-2.65-1.65s-1.4-1.42-1.87-2.3c-.47-.88-.71-1.91-.71-3.1 0-1.47.097-2.79.28-3.94.185-1.15.505-2.16.963-3.02.456-.86 1.067-1.59 1.832-2.18.76-.59 1.72-1.07 2.87-1.44 1.15-.37 2.53-.63 4.12-.8 1.59-.16 3.44-.24 5.54-.24 2.21 0 4.08.12 5.62.36s2.82.56 3.84.96 1.83.87 2.41 1.39c.58.53 1.01 1.08 1.3 1.67.29.59.46 1.18.53 1.78.06.6.1 1.18.1 1.72v2.44H68.4v-4.83h-2.685v5.29zm32.178 15.525l-.963 7.128H83.29l7.147-32.67h18.72l7.148 32.67h-13.64l-.963-7.128h-3.808zm.614-4.71h2.58l-1.29-8.665-1.29 8.664zm20.03 11.838v-32.67h13.847v27.672h7.435v4.998h-21.282zm37.155-4.772h2.683v-27.896h13.846v25.07c0 .546-.04 1.134-.122 1.762-.082.628-.287 1.253-.615 1.874-.327.62-.815 1.22-1.464 1.792-.64.573-1.53 1.08-2.65 1.516-1.12.438-2.52.788-4.21 1.055-1.68.267-3.72.4-6.11.4-2.41 0-4.47-.134-6.16-.4s-3.1-.617-4.23-1.055c-1.12-.437-2.01-.942-2.65-1.516-.64-.573-1.12-1.17-1.44-1.792-.32-.62-.52-1.246-.59-1.874s-.11-1.216-.11-1.762v-25.07h13.84v27.896zm46.965-27.897v5.96h-7.414v26.71h-13.846v-26.71h-7.354v-5.96h28.614z"/></svg>