<svg xmlns="http://www.w3.org/2000/svg" width="250" height="250" viewBox="0 0 250 250"><path fill="#D9D9D9" d="M85.99 205.685h-.002.003m13.95-3.87v.002h.01M79.22 187.81c-3.5 13.304.13 17.875 6.774 17.875-6.644 0-10.275-4.573-6.774-17.875m4.55-.873c-.52 4.086-.89 13.36 6.576 13.36 1.77 0 3.98-.52 6.73-1.756l.384-.17-.383.18 2.95 3.24.055-.02c.47-.21.945-.43 1.422-.65 3.086 1.97 6.06 3.59 8.93 4.91-2.866-1.31-5.844-2.93-8.93-4.9l-4.045-2.73c-4.35-3.11-8.92-6.88-13.69-11.43m44.33-12.7l-3.52 3.4v.01c-6.89 6.58-12.25 11.04-16.96 14.47l-3.45 2.4 6.09 1.97c1.53.44 3.12.85 4.73 1.21 4.74-6.53 10.55-10.87 10.55-10.87l.2-.29-.02.01.02-.02c1.43-1.02 2.03-3.85 2.26-6.54.26-2.94.07-5.71.07-5.71m-51.53-9.59c-2.03 0-4.81.53-8.31 2.39l.02-.02c-.01.01-.01.02-.02.02l-.02.02c-.19.22-.37.43-.54.65l-.03.03c.02-.01 2.77-1.56 6.23-2.29 1.08-.23 2.23-.38 3.38-.38 1.1 0 2.21.14 3.27.48 0 0-.59-.38-1.72-.64-.6-.14-1.36-.24-2.27-.24m13.84-.08c-1.27 0-2.72.31-4.26 1.25-.14-.21-.19-.44-.19-.65 0 .22.05.44.19.65l-.38.24c-.83.52-1.49 1.13-2 1.67 0 0-2.15 2.19-.75 3.62-1.06-.76-3.47-2.27-5.93-2.4.31.44.41 1.06-.53 1.75 0 0-2.96 1.4-5.3 3.21-.03.31-.05.75.02 1.29-.11-.45-.14-.89-.03-1.27l.02-.09-.03.1c-.21.91-1.66 8.12 6.84 8.12.52 0 1.09-.02 1.69-.08 1.12.44 2.77 1.38 3.8 3.3 1.03-1.9 2.67-2.84 3.78-3.28.59.06 1.13.08 1.64.08 7.8 0 7.22-5.91 6.92-7.49.01-.45-.04-.79-.06-.94-2.27-1.66-4.9-2.91-4.9-2.91-.94-.69-.84-1.32-.52-1.76h-.01.02c.01 0 1-.17 2.31-.17.26 0 .52.01.8.02.19.01.39.03.59.05 2.19.23 4.6 1.09 5 3.73v.01c.15 1 .02 2.24-.52 3.8 0 0 .67-1.74.62-3.61v-.03c-.06-2.15-1.08-4.47-5.18-4.47-.47 0-.99.03-1.54.1l-.27.04c-.5.06-1.03.15-1.6.28-.49.1-1 .23-1.54.38h.01c-2.1.39-4.04 1.61-4.98 2.27-.01 0-1.22-.17-.81-1.88 0 0 .96-1.99 2.99-3.37 1.06-.73 2.43-1.28 4.1-1.28.71 0 1.49.1 2.31.34l.11.04c.15.05.31.1.46.15l.27.09c.13.05.26.11.4.16.09.04.19.08.28.12.18.08.36.16.55.25l.1.05s-1.85-1.43-4.54-1.43m-1.11-1.24c7.31 0 11.15 5.47 12.7 8.49-1.56-3.02-5.39-8.49-12.7-8.49m-10.79-1.16c.77 0 1.57.06 2.42.19-.85-.13-1.65-.19-2.42-.19m-5.9-72.1c-10.53 0-2.34 14.9-2.34 14.9.35-.75.72-1.49 1.12-2.23.71-1.32 1.5-2.62 2.36-3.87 1.77-2.59 3.85-5.03 6.18-7.29h-.01c-3.1-1.05-5.5-1.5-7.32-1.5m103.66-1.31c-2.46 0-5.59.64-9.56 2.36-1.11.49-2.29 1.06-3.54 1.72 0 0-.55 4.76 3.87 5.42 0 0 1.02-.33 2.45-.66.78-.17 1.69-.35 2.62-.47 1.85 2.45 3.43 5.04 4.7 7.76-.62 1.03-1.43 2.18-2.42 3.46-.46.6-.95 1.22-1.49 1.87 0 0-1.77 2.88 1.88 5.42 0 0 2.04-1.75 4.36-4.44 3.87-4.49 8.51-11.62 5.6-17.57 0 0-1.66-4.86-8.47-4.86m23.65-20.01c10.83 15.27 17.19 33.94 17.19 54.08 0 24.33-9.28 46.48-24.49 63.12.2-2.47.3-5.06.3-7.78 0 2.72-.1 5.31-.3 7.78l-.03.39c-14.76 16.13-35.1 27.06-57.95 29.75.31-2.02.8-4.03 1.39-5.99-1.81.32-3.69.5-5.66.53-.19.01-.37.01-.55.01-2.16 0-4.42-.19-6.77-.6-2.81-.48-5.74-1.28-8.82-2.44-.79 3.02-1.22 5.95-1.44 8.53-1.25-.14-2.48-.31-3.71-.49-.01-.1-.01-.2-.02-.3-.06-.58-.08-1.15-.08-1.73 0 .58.02 1.15.08 1.73-23.8-3.7-44.64-16.35-58.95-34.42 14.31 20.19 36.43 34.46 61.96 38.41.01.1.01.2.02.31 1.23.19 2.46.36 3.71.5 1.96.23 3.93.4 5.92.5 1.61.08 3.23.13 4.86.13 1.11 0 2.23-.03 3.33-.07 2.59-.09 5.16-.28 7.7-.58 22.86-2.69 43.02-13.68 57.77-29.81-.02.01.19-.2.2-.33 15.21-16.64 24.49-38.8 24.49-63.12 0-21.94-7.55-42.12-20.19-58.08"/><path fill="#EF6EA8" d="M80.165 56.762c-.31-.8-.794-1.088-1.458-.823-1.23.48-1.06 4.72-.824 4.83.365.16 2.704-2.92 2.282-4.01zm15.743-2.594c-.284.066-.317.557-.19 1.086.225.936 1.443 1.85 1.443 1.85.05-.035-.15-.95-.26-1.432-.13-.582-.43-1.633-.98-1.504zM77.375 72.67c.227.467.624.506.896.375.57-.27.65-1.258.43-1.465-.14-.127-.76-.045-1.04.088-.33.156-.51.533-.28 1.002zm32.518-24.662c-.298.03-.398.512-.342 1.054.11.956 1.25 2.04 1.25 2.04.05-.032-.05-.986-.1-1.478-.06-.595-.22-1.675-.8-1.616zm25.502 22.862c.822.12 2.367-3.653 2.367-3.653-.2-.21-3.705 1.01-3.824 1.938-.112.875.67 1.603 1.457 1.716zm-12.992-21.288c.672.004 1.135-.248 1.145-.846.01-.7-.56-1.02-1.263-1.025-.853 0-2.29.84-2.265 1.03.032.23 1.418.84 2.383.85zm37.523 9.978c.205-.562.52-1.61-.014-1.8-.275-.1-.57.293-.752.808-.322.906.21 2.34.21 2.34.064-.008.388-.885.556-1.348z"/><path fill="#EF6EA8" d="M110.428 206.002c-2.864-1.313-5.842-2.935-8.93-4.904-.476.225-.95.443-1.423.656l-.052.022c-13.98 6.286-26.458 7.177-20.754-14.19-.33-.16-.76-.413-1.4-.8-2.66-1.596-19.37-4.777-12.9-14.158l-.02-.026s.79-2.39 2.73-4.88l.02-.027c.17-.217.35-.434.53-.648l.02-.02v-.003c2.48-2.877 6.52-5.604 12.67-4.664 0 0 2.21 1.874-.25 3.103 1.35.605 2.39 1.502 3.1 2.27.5-.543 1.17-1.148 1.99-1.673.12-.082.25-.162.37-.238-.69-1.106.73-2.305.73-2.305 8.92-1.37 13.42 4.995 15.13 8.325 7.98 9.992-9.58 13.31-12.31 14.947-.93.55 5.31 4.4 14.47 7.71l3.44-2.4c4.72-3.43 10.07-7.9 16.96-14.47v-.01l3.51-3.4v-.01c-.19-2.4-.61-4.71-1.05-6.64-1.17.06-2.34.1-3.52.1-28.45 0-52.02-16.96-56.28-39.12-.45-2.02-.69-4.08-.69-6.19v-.49c0-.18-.01-.36-.01-.53 0-5.77 1.3-11.29 3.67-16.39s-11.29-20.53 9.67-13.4C90.34 81.46 106 75.03 123.52 75.03c17.25 0 32.7 6.24 43.14 16.09 14.956-6.5 18.023 2.5 18.023 2.5 2.91 5.953-1.724 13.076-5.6 17.572.345 1.247.63 2.51.845 3.79 10.765 30.734 14.043 53.75 12.645 70.972 15.21-16.644 24.49-38.797 24.49-63.12 0-51.69-41.9-93.59-93.59-93.59S29.9 71.15 29.9 122.84c0 46.777 34.32 85.54 79.154 92.48-.292-3.225.274-6.368 1.368-9.323"/><path fill="#EF6EA8" d="M177.105 78.765c-.662 1.096-3.01 1.714-3.986 1.12-.56-.342-.51-.91-.14-1.534.95-1.6 2.69-2.53 3.61-1.96.63.4.86 1.8.5 2.38zm8.602-13.03c.426-.123.748-.04.992.12.77.506.72 1.99.51 2.282-1.08 1.52-4.48 2.106-5.95 4.375-.38.59-.76 1.55-1.16 2.16-.51.786-1.89.73-2.84.14-.56-.348-.44-.97.09-1.835 1.43-2.352 5.19-6.344 8.34-7.243zM164.49 56.68c.7-1.762 2.82-2.38 4.674-1.575 2.035.882 1.508 3.407.877 4.774-1.34 2.9-4.09 5.53-5.63 8.99-.34.76-.42 1.71.52 2.14 1.82.83 4.51-2.04 6.34-4.67l.64-.99c.44-.86 2.09-4.33 2.38-4.89.77-1.53 2.68-1.7 3.69-1.16.47.25.08 1.16-.7 2.6-.78 1.44-4.76 6.61-6.41 9.74-.67 1.26-.98 2.15-.68 2.31.67.35 3.72-1.55 4.05-1.36.18.09.09.41-.21.92-1.12 1.96-4.42 3.48-6.23 2.54-1.17-.62.44-4.3.44-4.3-.02-.02-3.38 2.8-5.14 2-1.99-.91-2.73-2.8-1.47-5.88.53-1.27 4.52-6.5 5.4-8.55.43-1 .63-2.02.02-2.28-.74-.32-1.69.7-2.46.39-.19-.08-.25-.3-.05-.81zm-6.52-5.856c2.83.9 4.093 2.988 3.692 4.086-.08.22-.363.172-.707.05-.607-.218-1.69-1.11-3.906-1.812-3.13-.988-6.15 2.886-7.14 6.575-.89 3.312-.24 5.625 1.74 6.226 2.54.77 6.44-2.25 6.34-2.73-.11-.48-2.23-2.85-1.43-5.3.59-1.83 2.19-3.01 3.78-2.45 1.85.65 1.96 2.82 1.12 5.03-.15.39-.48 1.12-.48 1.12.04.06.95-.36 1.39-.19.15.06.19.3.1.51-.45 1.13-2.07 1.48-2.56 1.77-2.23 1.35-5.86 6.54-9.47 5.45-3.97-1.2-4.77-5.32-3.83-9.29 1.41-5.91 6.07-10.76 11.32-9.09z"/><path fill="#EF6EA8" d="M132.193 68.635c.2-1.86 3.238-3.02 6.266-3.938l.13-.03c.11-.665.35-1.57.35-1.57-.06-.05-1.73.637-2.68.502-1.76-.26-2.51-1.98-2.2-4.66.29-2.53 2.34-5.79 2.67-8.26.12-.9.01-1.76-.64-1.84-.78-.1-1.42 1.13-2.23 1.05-.21-.02-.31-.22-.26-.76.19-1.89 2.04-3.06 4-2.8 2.16.29 2.36 2.62 2.16 3.96-.45 2.87-2.32 5.77-2.81 9.19-.16 1.08.14 1.59.78 1.69.81.12 1.78-.57 2.25-1.47 1.29-2.48 2.71-6.88 3.41-8.75.52-1.41 1.26-2.91 2.03-2.75 1.3.26 1.89 1.01 1.47 2.89-.17.76-.84 1.77-1.4 2.83-1 1.93-3.46 9.65-3.46 9.65.1.1 2.59-.92 3.16-1.48.43-.43.79-.59.94-.56.19.04.17.44.03 1.02-.39 1.64-4 2.49-5.02 3.5-.96.95-2.88 7.22-6.08 6.76-1.7-.25-3.21-1.54-2.92-4.22zm-15.79-18.175c-.04-.83.504-2.02.462-2.386-.065-.557-1.307-2.096-1.346-2.85-.02-.336.19-.582.4-.594.55-.025 1.78 1.926 2.14 1.914.52-.015 2.46-1.416 4.37-1.406 1.78.01 3.54.77 3.45 3.265-.07 1.817-1.47 3.185-3.67 3.177-1.12-.004-2.79-1.224-2.79-1.224-.02.006-.02.286-.02.416.02 1.117.55 2.414.86 2.507.09.02.42-.09.67-.09.91-.01 1.76.18 1.75 1.14-.01 1.09-1.18 1.32-2 1.32-.32 0-.81-.22-.96-.2-.47.09-1.15 1.66-1.09 3.43.06 2.15 1.3 2.96 3.12 2.96 2.38 0 3.9-3.15 4.28-3.14.19.01.33.4.3 1-.13 2.8-2.72 5.1-5.68 5.13-2.82.03-4.98-1.36-5.21-5.14-.17-2.78 2.54-5.2 2.56-5.32.02-.23-1.57-2.09-1.66-3.94zm-14.26-3.53c2.15-.36 3.07 2.046 3.283 3.537.456 3.162-.394 6.863.193 10.61.13.82.56 1.667 1.57 1.522 2.77-.4 4.35-8.15 3.68-8.82-.44-.44-3.64-1.47-3.99-4.17-.25-1.91.71-3.67 2.43-3.85 1.99-.21 3.02 1.41 3.23 4.05.03.39.08 1.19.08 1.19.06.03.69-.71 1.17-.74.16-.01.3.18.32.42.08 1.14-1.14 2.15-1.38 2.57-1.33 2.37-.49 11.9-5.59 12.66-2.13.31-3.76-.88-4.37-4.15-.25-1.36.22-7.9-.15-10.11-.19-1.08-.56-2.04-1.22-1.93-.78.14-1.02 1.5-1.83 1.66-.21.04-.37-.12-.48-.65-.38-1.86 1.05-3.53 3.01-3.86zM90.53 49.395c2.857-.778 5.034.292 5.295 1.432.052.23-.208.34-.562.422-.624.14-2.006-.02-4.245.59-3.148.86-3.59 5.75-2.418 9.39 1.053 3.26 2.86 4.85 4.846 4.28 2.55-.74 4.178-5.38 3.826-5.72-.346-.34-3.397-1.19-4.056-3.68-.49-1.86.207-3.72 1.838-4.11 1.9-.46 3.16 1.31 3.654 3.62.086.41.214 1.2.214 1.2.066.02.595-.82 1.052-.91.16-.04.32.14.367.37.24 1.2-.91 2.36-1.16 2.87-1.13 2.34-1.33 8.66-4.95 9.71-3.97 1.15-6.91-1.87-8.27-5.72-2.03-5.73-.71-12.34 4.58-13.78zM73.362 61.717c.5-.236 1.905.033 2.003-.096.675-.9.096-7.13 2.44-8.06 1.688-.67 3.516-.56 4.447 2.01.658 1.81-3.18 6.03-3.783 7.39-.23.5 1.12 3.2 1.83 4.84.21.51.35 1.4.52 1.56.37.36 1.98.51 3.11.06 1.2-.48 1.14-4.17 1.67-4.36.18-.06.41.27.61.83.7 1.96.17 5.48-2.14 6.42-.98.4-3.02-.24-3.2-.13-.28.18-.82 2.27-1.94 2.81-1.37.66-2.54-.08-3.32-1.61-.81-1.6-.23-2.89 1.13-3.54.37-.17 1.03-.35 1.06-.41.21-.47-1.49-5.31-2.09-5.84-.36-.31-2.11-.56-2.35-1.08-.12-.26-.2-.68-.03-.76zM59.126 63.02c.346-.215 1 .207 1.365.806 1.3 2.13 4.21 11.1 7.41 16.11.31.482.04.84-.24 1.023-1.33.86-2.15.5-3.28-1.16-1.84-2.71-5.22-11.05-5.86-14.25-.18-.9-.22-2.02.63-2.55zM83.6 171.772c-.233-.13-.42-.272-.564-.426-1.062-.757-3.475-2.27-5.93-2.4.307.438.406 1.062-.527 1.748 0 0-2.97 1.402-5.3 3.213-.03.302-.05.748.02 1.284.47 1.91 2.4 4.16 2.41 4.17v.01c1.09.89 2.65 1.69 4.87 2.23 0 0 .49.09 1.2.37 1.12.45 2.76 1.39 3.8 3.3 1.03-1.9 2.66-2.84 3.78-3.28h-.11l.3-.06c.61-.23 1.03-.3 1.03-.3.54-.13 1.04-.28 1.5-.44h.01c.14-.05.28-.1.41-.15.26-.1.52-.21.78-.33l.06-.03c.23-.11.46-.22.67-.34l.08-.04c.47-.27.9-.56 1.22-.89 0 0 2.06-2.12 2.5-3.97.04-.26.06-.5.07-.72l-.02-.25-.01-.04-.05-.21.05.21.01.05.02.13c.01-.45-.04-.78-.06-.93-2.26-1.66-4.89-2.91-4.89-2.91-.94-.69-.84-1.31-.52-1.76h-.01l-1.3.12c-2.1.39-4.04 1.61-4.97 2.27l-.58.44zm42.146 14.738c-3.236 2.28-8.134 5.604-13.586 8.85l-.03.016c-.612.365-1.23.73-1.854 1.088 1.537.438 3.12.846 4.737 1.203 4.74-6.533 10.55-10.877 10.55-10.877.07-.097.136-.195.202-.293l-.018.012z"/><path fill="#919496" d="M71.37 102.754c.717-1.326 1.507-2.62 2.367-3.877-1.878-1.803-8.64-7.914-2.367 3.877zm100.714-5.612c1.848 2.442 3.426 5.036 4.697 7.754 4.65-7.64-.31-8.32-4.69-7.754z"/><path fill="#FFF" d="M179.953 114.99c-.215-1.277-.5-2.54-.844-3.783-2.32 2.688-4.36 4.437-4.36 4.437-3.65-2.543-1.89-5.42-1.89-5.42.54-.654 1.03-1.274 1.49-1.867.99-1.287 1.79-2.437 2.41-3.46-1.28-2.717-2.86-5.31-4.7-7.754-.94.12-1.84.297-2.62.477-1.44.325-2.45.657-2.45.657-4.43-.663-3.87-5.42-3.87-5.42 1.25-.666 2.43-1.233 3.54-1.72-10.44-9.852-25.9-16.088-43.14-16.088-17.52 0-33.18 6.42-43.63 16.54-2.33 2.26-4.41 4.69-6.18 7.29-.86 1.25-1.65 2.55-2.37 3.87-.4.73-.77 1.48-1.12 2.23-2.37 5.09-3.67 10.61-3.67 16.38v.53c.1-6.2 2.23-12.02 5.91-17.12l.28-.39c.63-.85 1.3-1.68 2.02-2.49 2.75-3.11 6.11-5.87 9.95-8.2 8.28-5.04 18.79-8.05 30.23-8.05 26.73 0 48.41 16.44 48.41 36.72 0 20.28-21.67 36.72-48.41 36.72-23.96 0-43.85-13.21-47.73-30.54 4.25 22.16 27.83 39.12 56.28 39.12 1.18 0 2.35-.04 3.52-.1.44 1.93.86 4.23 1.05 6.63h-.01s.18 2.77-.07 5.72c-.23 2.69-.83 5.52-2.27 6.54l-.02.02.01-.01-.2.29s-5.81 4.34-10.55 10.88c-1.62-.36-3.2-.77-4.74-1.21l-6.1-1.97c-9.16-3.3-15.4-7.15-14.48-7.71 2.73-1.64 20.29-4.96 12.31-14.95-1.71-3.33-6.21-9.69-15.14-8.33 0 0-1.42 1.19-.73 2.3 4.8-2.92 8.79.18 8.79.18l-.11-.05c-.19-.09-.37-.18-.54-.26-.1-.04-.19-.08-.29-.11-.13-.06-.27-.11-.4-.16l-.26-.1c-.15-.06-.31-.1-.46-.15l-.12-.03c-2.77-.77-4.89-.09-6.41.94-2.03 1.37-2.99 3.37-2.99 3.37-.42 1.71.8 1.88.8 1.88.94-.67 2.88-1.89 4.98-2.28h-.01c.54-.15 1.05-.27 1.54-.38.57-.13 1.1-.22 1.61-.28l.27-.04c5.4-.63 6.66 1.97 6.72 4.37v.03c.05 1.86-.62 3.6-.62 3.6.53-1.56.66-2.8.51-3.79v-.01c-.4-2.65-2.81-3.51-5-3.74-.2-.02-.4-.03-.59-.05-1.69-.09-3.11.15-3.12.15l-.01.01h.02c-.31.44-.42 1.06.52 1.76 0 0 2.63 1.24 4.89 2.9.02.15.07.49.06.94.32 1.68.96 8.29-8.56 7.42-1.12.44-2.75 1.38-3.78 3.28-1.03-1.91-2.68-2.85-3.8-3.29-10.36 1-8.75-7.07-8.53-8.04l.03-.09-.02.09c-.11.38-.08.81.03 1.27-.07-.54-.05-.98-.02-1.28 2.33-1.81 5.3-3.21 5.3-3.21.93-.69.83-1.32.52-1.75 2.46.13 4.87 1.64 5.93 2.4-1.39-1.43.75-3.62.75-3.62-.71-.77-1.75-1.66-3.1-2.27 2.46-1.23.24-3.1.24-3.1-6.14-.94-10.19 1.78-12.67 4.66 5.07-2.69 8.64-2.58 10.58-2.14 1.14.26 1.72.64 1.72.64-2.17-.69-4.53-.54-6.64-.1-3.46.73-6.21 2.28-6.23 2.29-1.94 2.49-2.73 4.88-2.73 4.88l.01.03c-6.47 9.38 10.24 12.56 12.9 14.16.64.38 1.07.64 1.4.8-5.71 21.36 6.77 20.47 20.75 14.18L97 198.46l.382-.17c-14.75 6.85-14.34-6.33-13.69-11.43 4.775 4.55 9.34 8.32 13.69 11.43l4.04 2.73c3.09 1.97 6.07 3.59 8.93 4.9-1.09 2.95-1.66 6.1-1.36 9.32.01.1.01.2.02.3 1.23.19 2.47.36 3.71.5.22-2.57.65-5.512 1.44-8.53 3.074 1.16 6.013 1.96 8.815 2.45 2.55.44 4.99.63 7.32.598 1.964-.03 3.85-.22 5.655-.53-.6 1.96-1.08 3.97-1.4 5.99 22.86-2.69 43.19-13.62 57.95-29.744.01-.13.01-.26.02-.39 1.4-17.227-1.88-40.24-12.645-70.976"/><path fill="#FFF" d="M74.523 168.533c.752.05 1.58.178 2.49.393l.092.02-.093-.02c-.368-.07-1.84-.317-3.52-.12-1.822.213-3.887.946-5.06 3-.292.518-.53 1.114-.692 1.812-.037.155-.065.322-.096.487-.14.803-.19 1.718-.122 2.77l-.63-.505s-.023-.402.022-1.02c.02-.273.055-.588.112-.932.334-2.033 1.444-5.02 5.03-5.744.72-.15 1.537-.2 2.467-.14zm56.25 30.83c-4.23.117-8.54-.314-12.714-1.076 3.21-5.326 8.27-9.86 16.2-11.69l-4.53-20.404s9.42-2.213 20.43-7.073v25.555s-4.54 5.3-8.78 12.986l.03-.01c.1-.02.46-.12 1.01-.31.22-.08.44-.15.66-.23.79-.29 1.81-.71 2.98-1.28.21-.12.41-.24.62-.37 15.85-9.89 14.89-42.56 14.76-23.66-.11 14.25-9.49 21.12-15.39 24.04-1.28.73-2.67 1.31-4.17 1.71-.17.04-.32.09-.49.13l-.04.01-.02.04c-1.37.43-2.78.77-4.21 1.03-2.1.37-4.24.58-6.4.64zm5.357 10.38s1.04-.003 2.772-.274c6.256-.99 21.53-5.49 29.215-26.04v-.01 2.2s-9.268 27.35-31.035 24.26c-.314-.05-.63-.1-.953-.16z"/><path fill="#D0D2D3" d="M141.395 197.657c4.24-7.687 8.775-12.987 8.775-12.987v-25.554c-11.006 4.86-20.428 7.074-20.428 7.074l4.523 20.405c-7.936 1.832-12.992 6.363-16.208 11.69 4.17.763 8.486 1.192 12.716 1.074 2.162-.07 4.305-.27 6.393-.65 1.43-.26 2.838-.6 4.207-1.03l.022-.04zm-5.377 12.446c-1.81.315-3.693.502-5.656.53-2.328.035-4.766-.153-7.314-.594-2.804-.49-5.74-1.29-8.816-2.45-.79 3.01-1.217 5.95-1.433 8.53 1.95.22 3.93.39 5.92.49 1.61.08 3.23.12 4.86.12 1.11 0 2.22-.03 3.33-.07 2.59-.09 5.16-.29 7.7-.59.31-2.02.8-4.03 1.39-5.99zm-68.754-81.525c3.876 17.336 23.765 30.538 47.722 30.538 26.735 0 48.407-16.442 48.407-36.725 0-20.28-21.672-36.72-48.407-36.72-11.44 0-21.95 3.01-30.235 8.05-3.83 2.34-7.19 5.1-9.95 8.2-.71.81-1.39 1.64-2.02 2.49l-.28.39c-3.67 5.1-5.8 10.92-5.91 17.12v.5c0 2.11.24 4.18.69 6.19"/><path fill="#D0D2D3" d="M114.108 146.428c7.024-8.113-3.2-5.375-3.2-5.375 13.55-3.96 3.2 5.375 3.2 5.375z"/><path fill="#D0D2D3" d="M97.673 142.897c7.623 5.678 16.436 0 16.436 0-1.09 1.534-2.55 2.48-4.19 3.003-.63.223-10.06 3.443-10.06 3.443 3.85.387 2.02 2.505 2.02 2.505.29-2.888-3.76-1.35-3.76-1.35-.27-1.585 2.83-3.055 6.26-4.185-7.22-.814-13.77-5.884-6.17-4.48 7.8 1.443 8.1-1.935 7.5-4.234-.95-.44-3.51-1.74-5.38-3.85 0 0 4.21-8.57 5.76-4.04 0 0 3.48-5.1 3.48 3.08 0 0-2.56 1.74-3.29 4.02 2.02 7.75-8.63 6.08-8.63 6.08z"/><path fill="#6C6F71" d="M105.726 137.6c.603 2.303.303 5.68-7.5 4.236-7.602-1.403-1.046 3.664 6.168 4.48-3.434 1.13-6.527 2.6-6.263 4.185 0 0 4.06-1.53 3.76 1.35 0 0 1.84-2.11-2.01-2.5 0 0 9.43-3.22 10.06-3.44 1.64-.52 3.1-1.47 4.18-3 0 0-8.81 5.68-16.43 0 0 0 10.65 1.67 8.63-6.08-.1.31-.17.63-.19.96 0 0-.14-.06-.38-.17z"/><path fill="#1D8FCD" d="M109.587 132.795c0-8.18-3.478-3.084-3.478-3.084-1.56-4.52-5.77 4.05-5.77 4.05 1.87 2.12 4.43 3.41 5.38 3.85.24.11.38.17.38.17.02-.32.09-.64.18-.95.73-2.27 3.29-4.02 3.29-4.02z"/><path fill="#1D8FCD" d="M106.15 135.528l-.04.15s.01-.055.04-.15c1.212-4.32 1.8-2.16 1.8-2.16-1.282.907-1.684 1.814-1.8 2.16z"/><path fill="#FFF" d="M106.15 135.528c-.03.095-.04.15-.04.15l.04-.15zm0 0c.115-.347.52-1.253 1.8-2.16 0 0-.588-2.16-1.8 2.16z"/><path fill="#6C6F71" d="M114.108 146.428s10.35-9.336-3.2-5.375c0 0 10.226-2.74 3.2 5.375z"/><path fill="#EF6EA8" d="M97.455 198.366c-4.35-3.106-8.912-6.88-13.69-11.43-.652 5.1-1.063 18.28 13.69 11.43z"/><path fill="#FFF" d="M125.746 186.51l-1.156-8.873c-6.89 6.576-12.244 11.043-16.96 14.467l4.53 3.256c5.452-3.245 10.35-6.57 13.586-8.85zm-37.143-4.922s-.418.074-1.03.3c.48-.11 1.47-.357 2.538-.736-.46.16-.96.307-1.5.436zm12.897 19.51l-1.425.656c.472-.213.947-.433 1.424-.657zm-5.636-25.718c.058-.247.08-.486.07-.72-.006.22-.028.463-.07.72zm-16.072 6.573c-.704-.28-1.2-.363-1.2-.363-2.225-.543-3.783-1.342-4.873-2.23.51.528 1.29.978 2.12 1.347 1.81.808 3.87 1.23 3.95 1.246zm3.996-14.223c.675-.687 1.34-1.234 1.994-1.673-.825.525-1.49 1.13-1.994 1.674zm-16.082-.034l.533-.65c-.19.218-.37.433-.54.65z"/><path fill="#D0D2D3" d="M100.075 201.754l1.424-.657-4.05-2.73-.39.172 2.95 3.23m12.13-6.42l-4.53-3.26-3.45 2.39 6.09 1.96c.62-.36 1.24-.73 1.85-1.09l.03-.02zm12.43-17.73l1.15 8.87v-.01l.02-.02c1.43-1.02 2.03-3.86 2.26-6.54.26-2.95.07-5.72.07-5.72l-3.52 3.4z"/><path fill="none" d="M141.395 197.657l.035-.01"/><path fill="#D0D2D3" d="M161.467 171.772c.13-18.892 1.09 13.776-14.764 23.666-.205.128-.41.25-.62.373 5.9-2.91 15.282-9.79 15.384-24.03zm-15.385 24.04c-1.162.573-2.186.994-2.98 1.287-.218.08-.44.15-.665.23-.545.18-.903.28-1.008.31.16-.04.32-.09.48-.13 1.49-.4 2.88-.98 4.16-1.71zm22.035-10.18v-2.202.004c-7.686 20.553-22.96 25.052-29.215 26.035-1.732.27-2.773.27-2.773.27l.95.15c21.77 3.09 31.03-24.26 31.03-24.26zm-77.654-16.697c.01 0 1.425-.242 3.115-.147.195.01.39.024.592.047 2.186.227 4.595 1.09 4.997 3.735l.002.007c.14.994.02 2.235-.52 3.793 0 0 .67-1.738.62-3.604v-.028c-.07-2.4-1.33-5-6.73-4.368l-.27.035c-.5.064-1.04.157-1.61.28-.49.105-1 .23-1.54.378l.01-.002 1.3-.12h.01zm-6.675-1.205s-2.144 2.186-.753 3.616c.145.15.33.295.563.426l.58-.438c-.006 0-1.222-.172-.806-1.886 0 0 .963-1.99 2.988-3.368 1.52-1.033 3.642-1.72 6.41-.943l.114.033c.153.047.31.098.467.15l.27.094c.13.05.27.104.4.158.1.038.19.076.29.12.18.078.36.162.54.253l.11.053s-3.99-3.1-8.79-.18c-.12.075-.25.155-.37.237-.65.44-1.31.988-1.99 1.676z"/><path fill="none" d="M94.015 165.574c-.134-.056-.266-.11-.397-.158m1.225.53c-.183-.09-.364-.174-.542-.253m-.94-.37c-.15-.056-.31-.106-.46-.153"/><path fill="#D0D2D3" d="M67.03 174.416c-.06.344-.092.657-.113.933-.046.61-.023 1.02-.023 1.02l.63.5c-.07-1.06-.017-1.97.124-2.77.03-.17.058-.34.095-.49.163-.7.4-1.3.693-1.81 1.172-2.06 3.236-2.79 5.058-3 1.682-.2 3.154.05 3.52.12-.907-.22-1.736-.34-2.488-.4-.93-.06-1.747-.01-2.465.14-3.58.72-4.69 3.71-5.03 5.74zm9.983-5.49l.093.02-.093-.02zm-8.773-1.88l-.534.648-.024.026h.003c.02-.012 2.775-1.56 6.234-2.293 2.1-.446 4.47-.596 6.64.096 0 0-.59-.377-1.72-.64-1.94-.445-5.51-.554-10.58 2.138l-.01.01-.02.03zm11.552 14.907c-.075-.018-2.134-.438-3.952-1.246-.828-.37-1.604-.816-2.12-1.346h-.008c-.006 0-1.94-2.25-2.41-4.16-.11-.45-.136-.89-.032-1.27l.02-.09-.023.1c-.227.97-1.838 9.04 8.53 8.04h-.005zm16.145-7.29c.01.23-.014.472-.07.72-.44 1.85-2.507 3.975-2.507 3.975-.32.33-.745.627-1.22.896l-.076.043c-.217.12-.442.23-.675.338l-.07.033c-.26.115-.53.228-.79.328-.14.05-.28.104-.42.153h-.01c-1.07.38-2.06.62-2.54.73l-.3.06.1.01c9.52.87 8.87-5.74 8.56-7.42l-.03-.13.02.25zm-.032-.293c-.03-.136-.05-.213-.05-.213l.05.212zm.01.044l-.01-.045.01.04z"/><path fill="#EF6EA8" d="M78.698 71.58c.225.207.138 1.196-.426 1.465-.272.13-.67.093-.896-.375-.227-.467-.047-.845.282-1 .276-.133.9-.217 1.04-.09zm.008-15.642c.664-.265 1.15.022 1.458.823.422 1.09-1.917 4.18-2.283 4.01-.23-.1-.4-4.34.83-4.83zm18.454 1.166s-1.218-.915-1.442-1.85c-.127-.53-.093-1.02.19-1.086.547-.13.852.922.984 1.504.112.48.317 1.395.27 1.432zm13.634-6s-1.14-1.086-1.244-2.04c-.057-.544.044-1.024.342-1.056.574-.06.743 1.02.8 1.617.05.49.154 1.444.102 1.478zm11.49-3.394c.705.003 1.27.324 1.264 1.025-.01.6-.473.85-1.145.847-.965-.006-2.352-.62-2.382-.846-.02-.195 1.42-1.03 2.27-1.025zm11.654 21.444c.12-.927 3.623-2.146 3.824-1.938 0 0-1.545 3.773-2.367 3.654-.788-.112-1.57-.84-1.457-1.716z"/><path fill="#FFF" d="M132.158 138.768c12.067 0 22-9.096 23.23-20.76.13-.367.126-2.625.13-2.49-.078-12.793-10.475-23.158-23.357-23.158-12.9 0-23.35 10.39-23.35 23.203 0 12.814 10.46 23.205 23.36 23.205m-43.41-5.308c9.31 0 16.97-7.018 17.92-16.015.1-.283.1-2.025.1-1.92-.06-9.87-8.08-17.863-18.02-17.863-9.95 0-18.01 8.014-18.01 17.897 0 9.88 8.07 17.9 18.02 17.9"/><path fill="#EF6EA8" d="M159.16 58.566c.182-.514.477-.907.752-.81.533.19.22 1.24.014 1.802-.168.464-.492 1.342-.555 1.347 0 0-.53-1.43-.21-2.34z"/><circle fill="#0071BC" cx="91.116" cy="115.564" r="14.23"/><path fill="#0F4481" d="M85.204 121.426c-3.38-3.908-2.954-9.81.95-13.188 3.902-3.376 9.804-2.955 13.187.953 3.38 3.91 2.96 9.81-.95 13.19-3.9 3.38-9.8 2.96-13.18-.95z"/><path fill="#FFF" d="M90.65 118.56c-1.798-2.077-1.57-5.21.504-7.007 2.072-1.793 5.212-1.573 7.01.503 1.794 2.075 1.566 5.215-.51 7.012-2.075 1.792-5.21 1.565-7.005-.51z"/><circle fill="#FFF" cx="83.086" cy="114.021" r="2.419"/><circle fill="#0071BC" cx="135.927" cy="115.564" r="17.873"/><path fill="#0F4481" d="M128.5 122.926c-4.245-4.907-3.71-12.318 1.193-16.562 4.9-4.24 12.314-3.71 16.563 1.196 4.242 4.9 3.708 12.318-1.196 16.56-4.9 4.243-12.316 3.71-16.56-1.194z"/><path fill="#FFF" d="M135.34 119.324c-2.255-2.607-1.97-6.544.635-8.8 2.604-2.253 6.547-1.976 8.805.63 2.254 2.608 1.967 6.55-.64 8.81-2.61 2.253-6.545 1.967-8.8-.64z"/><circle fill="#FFF" cx="125.841" cy="113.626" r="3.038"/><ellipse opacity=".3" fill="#E66" cx="82.566" cy="140.073" rx="5.802" ry="4.69"/><ellipse opacity=".3" fill="#E66" cx="135.101" cy="140.073" rx="5.802" ry="4.69"/><g fill="#FFF692"><path d="M89.826 75.95c-.55-.95-.928-2.025-1.137-3.222-.21-1.198-.24-2.43-.08-3.7.16-1.27.5-2.523 1.05-3.76.54-1.24 1.29-2.373 2.24-3.402-.88-.14-1.73-.327-2.56-.56s-1.6-.52-2.31-.855c-.71-.33-1.34-.72-1.89-1.16-.55-.43-.99-.93-1.31-1.5-.42-.72-.74-1.46-.96-2.21-.22-.75-.36-1.48-.4-2.2-.05-.72-.01-1.41.11-2.09.11-.67.3-1.29.55-1.86.25-.57.56-1.07.94-1.52.37-.44.8-.8 1.28-1.08.63-.36 1.34-.55 2.11-.56s1.6.21 2.46.65c.87.45 1.77 1.16 2.69 2.13s1.85 2.26 2.78 3.86c.27.48.71 1.39 1.3 2.72.58 1.33 1.15 2.61 1.7 3.83.58.02 1.17.03 1.75.04.59 0 1.18 0 1.78-.01.12.01.27.01.46 0s.36.01.54.02.34.04.49.08c.14.04.23.09.27.16.04.07.05.16.03.26-.02.11-.06.21-.1.32-.05.11-.1.21-.16.3l-.13.2c-.09.13-.22.26-.41.36-.4.22-.91.41-1.52.57-.62.16-1.28.27-1.99.32.44 1.48.76 2.88.95 4.21.19 1.33.28 2.57.26 3.73s-.13 2.21-.33 3.18c-.21.97-.48 1.83-.83 2.59-.35.76-.75 1.42-1.21 1.96-.46.55-.95.98-1.49 1.28-.55.32-1.13.51-1.74.56-.6.05-1.21-.05-1.82-.29-.61-.24-1.2-.64-1.79-1.18-.59-.54-1.13-1.25-1.64-2.13zm-3.686-20.4c.326.563.77 1.05 1.338 1.464.567.413 1.23.764 1.987 1.054.758.29 1.597.524 2.517.706.92.18 1.9.318 2.938.412l-1.526-3.24c-.532-1.128-1.15-2.3-1.853-3.518-.47-.83-.93-1.5-1.37-2.013-.43-.512-.85-.896-1.23-1.15-.38-.256-.74-.393-1.08-.41-.33-.02-.63.05-.9.204-.26.15-.48.36-.68.64-.19.28-.35.6-.48.97-.12.36-.21.76-.27 1.19-.05.42-.06.85-.04 1.28.03.43.1.85.21 1.26.11.41.26.79.46 1.13zm6.777 19.514c.415.717.868 1.18 1.36 1.39.49.208.964.18 1.42-.084.465-.268.873-.776 1.224-1.523.36-.748.58-1.72.68-2.916.1-1.19.04-2.6-.19-4.23-.22-1.62-.67-3.45-1.34-5.48l-.53-.01c-.63.56-1.18 1.2-1.63 1.92s-.81 1.49-1.1 2.29c-.28.8-.48 1.62-.6 2.46s-.17 1.64-.15 2.41c.02.77.1 1.49.25 2.14.15.66.36 1.22.62 1.67z"/><path d="M107.142 64.524c-.724.224-1.4.287-2.026.186-.626-.1-1.19-.32-1.694-.663-.502-.342-.938-.783-1.303-1.323-.37-.54-.66-1.14-.86-1.794-.14-.43-.21-.965-.23-1.61-.02-.643-.02-1.22.01-1.734s.11-1.02.24-1.518.32-.96.58-1.388c.25-.426.56-.8.94-1.124.37-.323.83-.566 1.36-.732.43-.134.86-.19 1.28-.166s.8.12 1.15.285c.35.167.66.404.93.712.26.31.46.684.6 1.125.14.47.15 1.047.01 1.73-.14.68-.35 1.295-.64 1.842-.29.548-.68 1.074-1.16 1.58-.48.506-1.03.955-1.65 1.346.18.168.35.304.5.405.15.102.3.172.44.212.14.04.28.055.41.045.14-.01.28-.037.43-.083.46-.145.92-.387 1.38-.73.46-.34.89-.724 1.29-1.148.4-.43.77-.87 1.11-1.33.33-.46.61-.88.82-1.26l1.97 1.06c-.46.94-.99 1.8-1.58 2.6-.26.34-.55.69-.86 1.04-.32.35-.65.68-1.02.99-.37.31-.76.59-1.18.84-.42.25-.87.44-1.33.59zm-3.27-5.062c.28-.087.563-.252.85-.495s.54-.518.756-.826.403-.69.56-1.14.2-.8.125-1.05c-.106-.34-.257-.6-.454-.78-.2-.18-.39-.24-.58-.18-.34.11-.61.26-.8.45s-.35.42-.45.66c-.1.25-.16.51-.18.78-.02.28-.04.62-.06 1.02s0 .73.06.97.11.45.16.62zm27.902.768c-.736.525-1.39.986-1.967 1.382-.576.396-1.09.73-1.543 1-.453.27-.858.48-1.217.627s-.687.23-.986.26c-.61.05-1.16-.08-1.66-.41-.5-.33-.94-.83-1.32-1.5-.38-.67-.69-1.5-.94-2.48s-.43-2.1-.55-3.34c-.04-.49-.07-1.01-.08-1.56-.01-.56 0-1.11.02-1.66-.25-.02-.44-.03-.57-.05l-.43-.06c-.15-.02-.35-.04-.58-.05s-.58-.03-1.02-.04c-.2-.01-.35-.05-.47-.12-.11-.07-.2-.15-.26-.25s-.09-.21-.11-.32c-.02-.11-.03-.21-.04-.29-.01-.13.06-.23.21-.31s.35-.15.6-.21.52-.1.81-.13c.3-.03.58-.06.86-.08.28-.02.52-.03.74-.05s.37-.03.45-.06c.11-1.11.29-2.19.53-3.24.24-1.05.53-1.99.88-2.83.34-.84.73-1.51 1.18-2.04.45-.53.94-.81 1.48-.86.35-.03.68.03.98.2.3.17.57.4.81.71.23.3.42.66.57 1.09.15.42.25.86.29 1.33.04.38.02.8-.06 1.24s-.19.89-.34 1.36c-.15.46-.34.94-.56 1.42-.22.48-.45.96-.7 1.44.07-.04.19-.05.36-.05.17 0 .37-.01.59-.02l.72-.05.75-.05.69-.04c.21-.01.39-.02.52-.02.16-.01.28.07.37.23.09.17.15.38.17.64.03.3-.03.56-.17.76-.14.21-.31.32-.51.34l-4.66.43c-.2.34-.41.68-.62 1.02-.21.33-.41.63-.59.9l.06 1.48c.01.21.02.43.04.65l.04.66c.01.22.03.43.04.63s.03.39.05.56c.04.43.12.8.23 1.09.11.29.25.52.42.7.17.17.37.29.61.36.23.06.48.08.76.06.17-.02.38-.08.62-.18.25-.11.52-.25.81-.42.29-.17.6-.37.92-.59.31-.23.63-.47.93-.73s.6-.54.88-.82c.27-.28.52-.56.74-.85l.29 3.1zm-5.308-15.002c-.01-.088-.023-.187-.045-.294-.02-.108-.06-.208-.1-.3-.05-.094-.12-.168-.21-.225s-.21-.08-.37-.07c-.21.02-.4.22-.59.61s-.34.88-.49 1.47c-.14.59-.27 1.24-.38 1.95-.11.7-.21 1.39-.29 2.05h.37c.12-.01.25-.01.38-.01.21-.43.42-.9.64-1.4s.41-.99.58-1.47c.17-.48.31-.93.41-1.34.1-.42.14-.75.12-1.01zm4.962 2.43c.004-.147.016-.336.033-.567s.04-.48.07-.76.06-.57.09-.89l.1-.92.25-2.27c.01-.24.08-.46.2-.64.13-.19.29-.34.49-.47.2-.13.42-.22.67-.29.25-.07.49-.1.74-.09.21 0 .42.04.61.09.2.06.37.14.52.25.15.11.27.25.36.43s.13.38.12.6c0 .1-.01.2-.03.3-.02.1-.05.21-.08.32l-.43 1.27s-.31.93-.47 1.39c-.16.46-.31.9-.47 1.31-.15.42-.28.77-.4 1.06-.15.39-.36.68-.61.86-.27.19-.53.28-.79.27-.26 0-.48-.11-.67-.31-.19-.2-.28-.51-.27-.9zM145.88 61.09c-.228.23-.524.494-.89.793-.365.298-.767.574-1.202.827-.437.253-.894.454-1.37.6-.477.147-.936.185-1.376.113-.532-.087-.95-.328-1.25-.723-.3-.396-.527-.936-.682-1.62-.23.19-.505.376-.825.56-.32.185-.663.343-1.03.474-.365.132-.74.228-1.122.287-.384.06-.757.06-1.12 0-.385-.06-.747-.2-1.086-.42-.34-.21-.625-.49-.857-.83-.232-.34-.397-.74-.497-1.19-.1-.45-.104-.94-.018-1.48.098-.6.283-1.2.556-1.8.28-.6.65-1.24 1.13-1.92.48-.67.96-1.25 1.46-1.72s1.02-.86 1.57-1.18c.55-.32 1.11-.55 1.69-.7.58-.14 1.14-.17 1.7-.08.19.03.33.09.42.18.1.09.17.19.22.3l.16.31s.12.18.21.24.19.1.28.13c.1.03.2.05.31.07.09.02.18.03.28.04.09.01.18.03.27.04.12.02.23.05.33.09.1.05.19.11.26.21.07.1.11.22.13.37.02.16.01.36-.03.61-.06.39-.17.8-.33 1.26-.15.46-.32.92-.51 1.39l-.63 1.62c-.23.61-.38 1.13-.45 1.56-.06.37-.07.66-.04.88.03.22.16.35.39.38.17.03.35.02.55-.04.19-.05.4-.13.61-.23.21-.1.42-.22.64-.36s.42-.29.62-.44c.46-.36.94-.78 1.43-1.26l.14 2.74zm-10.163-2.625c-.034.207-.053.41-.056.61 0 .198.02.38.07.544.05.16.13.3.23.41.11.11.25.18.44.22.3.05.59-.04.87-.26.29-.22.55-.5.78-.83.24-.34.44-.69.61-1.06.17-.37.3-.68.37-.94l1.54-3.77c-.33-.06-.66-.03-1 .08-.34.11-.67.28-.99.51s-.63.51-.92.83c-.29.32-.59.72-.9 1.21-.31.49-.54.92-.7 1.3-.15.38-.26.75-.32 1.1z"/><path d="M151.716 63.81c-.356.174-.787.343-1.29.51-.504.167-1.034.3-1.59.4-.557.102-1.11.158-1.66.17s-1.052-.047-1.504-.183c-.404-.122-.728-.28-.97-.476-.242-.19-.42-.42-.53-.67-.11-.25-.158-.54-.145-.85.014-.31.073-.64.178-.99.147-.49.373-1.04.68-1.66.63-1.28 1-2 1.114-2.15.2-.3.63-.97 1.3-2.01.57-.84.93-1.39 1.09-1.65.09-.18.25-.33.48-.43.2-.09.42-.15.64-.18.23-.03.46-.03.69-.01.23.02.43.06.61.11.32.1.52.22.6.38.08.15.08.33.02.54-.05.18-.17.41-.34.69-.18.29-.37.62-.6.99-.23.37-.53.84-.92 1.41s-.69 1.07-.9 1.49c-.21.42-.43.83-.67 1.24-.25.41-.42.79-.53 1.15-.11.35-.15.64-.13.87.01.23.14.38.38.45.28.09.62.08 1.02-.01s.81-.22 1.25-.39c.43-.17.86-.35 1.28-.55s.79-.36 1.11-.49l-.71 2.37zM150.174 50c.054-.182.154-.374.3-.58.147-.204.337-.38.572-.527.236-.147.52-.246.853-.296.33-.05.71-.01 1.15.12.27.083.52.19.74.327s.4.294.54.478.23.396.27.64.02.51-.07.8c-.08.268-.2.515-.36.74-.17.226-.37.41-.61.55-.25.14-.53.228-.85.264-.32.036-.68-.005-1.08-.124-.69-.206-1.14-.52-1.37-.944-.23-.425-.27-.907-.1-1.45z"/><path d="M154.702 65.723c.045-.096.116-.23.215-.4.1-.168.217-.36.354-.576.14-.215.29-.44.45-.678l.47-.71c.36-.55.76-1.14 1.2-1.77l-.16-.08c-.14.07-.32.19-.54.35-.21.17-.53.41-.94.75s-.93.76-1.57 1.29-1.45 1.17-2.42 1.92c-.28.22-.55.34-.79.35s-.48-.04-.72-.15c-.3-.15-.51-.32-.64-.53-.12-.21-.19-.45-.19-.71 0-.26.05-.53.15-.81.09-.29.21-.57.34-.85.15-.31.33-.66.57-1.05.24-.4.49-.81.77-1.24.27-.44.61-.92 1-1.45l1-1.38c.29-.4.57-.76.83-1.08.26-.32.48-.58.67-.78.19-.2.35-.36.48-.47.14-.11.26-.19.38-.23.13-.04.25-.04.38-.01s.29.08.47.17c.28.13.5.24.65.33.15.09.25.19.29.3.04.11.04.23-.01.37-.05.14-.13.33-.23.56-.06.13-.13.27-.22.43-.09.15-.18.32-.29.5-.1.18-.21.35-.33.53-.23.35-.35.52-.36.54-.35.45-.72.97-1.12 1.54l.06.19.57-.45c.35-.29.72-.57 1.1-.83.38-.27.78-.54 1.21-.82.43-.28.83-.53 1.19-.73.36-.21.7-.35 1.04-.44.34-.09.67-.05 1 .1.31.14.53.36.67.64.14.29.13.6-.03.93-.14.29-.28.56-.44.8-.2.31-.36.54-.49.69-.14.17-.31.38-.51.63-.16.22-.42.53-.77.92-.06.06-.13.16-.22.29-.03.04-.05.07-.05.09l.06.19c.03-.01.22-.16.59-.43s.75-.54 1.14-.8.82-.52 1.26-.81c.44-.28.85-.52 1.21-.72.35-.2.68-.35.99-.45.31-.1.62-.08.93.06.35.17.59.4.75.69.15.3.15.61-.01.94-.24.52-.49.99-.76 1.42-.27.44-.58.91-.95 1.42-.36.51-.68.98-.95 1.41-.26.43-.52.9-.76 1.41-.19.4-.29.75-.31 1.06-.02.3.05.48.2.55.15.07.33.12.53.13.2.01.42.01.64-.01s.46-.06.69-.12c.23-.06.46-.13.69-.2.52-.17 1.06-.39 1.61-.65l-1.05 2.7c-.44.09-.88.2-1.33.32-.44.11-.9.2-1.36.25-.45.04-.93.04-1.42-.02-.49-.07-1-.22-1.54-.48-.26-.13-.44-.32-.54-.57-.1-.25-.13-.56-.1-.91s.12-.74.27-1.18.33-.89.56-1.37c.22-.47.47-.95.75-1.46s.57-1.01.88-1.52l-.16-.08-4.91 4.61c-.34.21-.65.32-.93.31-.29-.01-.59-.08-.89-.23-.24-.11-.39-.26-.48-.45-.08-.19-.11-.4-.09-.63s.06-.48.15-.72.18-.48.28-.7z"/><path d="M165.496 74.506c-.622-.434-1.086-.93-1.392-1.485-.306-.55-.48-1.13-.518-1.74s.042-1.22.243-1.84.49-1.21.89-1.77c.25-.37.63-.76 1.12-1.17.49-.41.95-.76 1.38-1.05.42-.29.87-.53 1.35-.74.47-.2.96-.33 1.45-.39s.98-.04 1.47.06.96.31 1.41.63c.37.26.68.57.91.91.23.35.4.71.48 1.09.08.38.09.77.01 1.17-.08.4-.26.79-.52 1.17-.28.41-.74.77-1.36 1.08-.62.31-1.24.52-1.85.63-.61.11-1.26.13-1.95.06-.69-.06-1.38-.22-2.07-.47-.02.25-.03.46-.01.65.01.19.05.35.1.48.05.14.13.26.22.36.09.11.2.2.33.29.4.28.87.5 1.43.65.55.15 1.12.26 1.7.31.58.06 1.16.08 1.72.07.57-.02 1.07-.06 1.5-.12l.38 2.21c-1.02.22-2.03.33-3.03.36-.43.01-.88 0-1.35-.03-.47-.03-.94-.1-1.41-.19-.47-.1-.93-.24-1.39-.42s-.88-.41-1.28-.69zm1.984-5.69c.24.167.546.29.914.368s.74.106 1.115.088.79-.106 1.24-.262c.45-.156.76-.34.9-.547.2-.293.31-.572.34-.838.02-.266-.05-.455-.21-.567-.29-.2-.57-.32-.85-.357-.28-.03-.54-.02-.8.05s-.5.19-.73.34c-.23.16-.51.35-.84.59-.33.24-.57.45-.73.65-.16.19-.28.36-.38.5z"/></g></svg>