<svg xmlns="http://www.w3.org/2000/svg" width="250" height="250" viewBox="0 0 250 250"><path opacity=".15" d="M218.696 115.362c0-47.518-41.5-86.037-92.697-86.037s-92.7 38.52-92.7 86.037c0 31.63 18.4 59.26 45.79 74.21-5.2 3.386-8.19 7.35-8.19 11.59 0 12.433 25.7 22.513 57.41 22.513s57.41-10.08 57.41-22.512c0-4.818-3.87-9.277-10.44-12.938 26.07-15.226 43.4-42.16 43.4-72.863z"/><path fill="#C1B49A" d="M216.696 112.362c0-47.518-41.5-86.037-92.697-86.037s-92.7 38.52-92.7 86.037c0 31.63 18.4 59.26 45.79 74.21-5.2 3.386-8.19 7.35-8.19 11.59 0 12.433 25.7 22.513 57.41 22.513s57.41-10.08 57.41-22.512c0-4.818-3.87-9.277-10.44-12.938 26.07-15.226 43.4-42.16 43.4-72.863z"/><circle fill="#9A8479" cx="124.558" cy="120.889" r="68.348"/><path fill="#FFF" d="M172.552 191.868c-2.592-.783-5.604-.324-7.875 1.947.14.572.212 1.152.212 1.74 0 9.272-17.77 16.79-39.69 16.79-21.92 0-39.69-7.52-39.69-16.79s17.76-16.787 39.68-16.787c1.46 0 2.9.037 4.31.102v-3.744c-1-.026-2.01-.047-3.02-.047-25.86 0-46.82 9.16-46.82 20.47s20.96 20.48 46.82 20.48 46.82-9.17 46.82-20.48c0-1.26-.28-2.5-.77-3.69z"/><path fill="#D0D2D3" d="M115.028 180.325l-4.564 13.79 12.313-12.18 6.98-1.61 8.744 15.397-3.65-18.475"/><path fill="#FFF" d="M110.45 179.255s-3.856 12.05-4.926 17.672c0 0 2.41 4.686 7.497 0l5.36-9.237s-.4 4.552.67 3.48l5.49-11.915-5.75 1.07-6.92 12.45 4.39-11.917m22.45-1.603s3.85 12.05 4.93 17.672c0 0-2.41 4.686-7.49 0l-5.35-9.237s.41 4.552-.66 3.48l-5.49-11.915 5.76 1.07 6.93 12.45-4.38-11.917"/><path fill="#FFF" d="M140.085 134.49l-16.344 3.115-14.8-3.114s-18.86 48.2 15.58 51.06c34.44-2.86 15.58-51.05 15.58-51.05z"/><path fill="#D0D2D3" d="M73.37 94.388s-3.862 4.664-8.683 4.396c0 0-5.088 4.278 2.142 7.63 0 0 7.49 3.878 8.03 0l-1.49-12.026z"/><path fill="#919496" d="M73.37 103.612s-5.47 2.27-8.416-2.35c0 0 3.03 7.784 8.417 2.35z"/><path fill="#D0D2D3" d="M176.325 94.388s3.862 4.664 8.682 4.396c0 0 5.09 4.278-2.14 7.63 0 0-7.5 3.878-8.038 0l1.49-12.026z"/><path fill="#919496" d="M176.325 103.612s5.47 2.27 8.414-2.35c0 0-3.04 7.784-8.42 2.35z"/><ellipse fill="#FFF" cx="124.48" cy="100.927" rx="53.565" ry="40.117"/><ellipse fill="#D0D2D3" cx="124.479" cy="98.784" rx="47.672" ry="35.707"/><ellipse fill="#FFF" cx="101.211" cy="96.709" rx="22.511" ry="22.362"/><ellipse fill="#FFF" cx="147.895" cy="96.709" rx="22.51" ry="22.362"/><circle fill="#FFF" cx="141.304" cy="103.613" r="2.802"/><circle fill="#0071BC" cx="101.21" cy="96.709" r="19.954"/><path fill="#0F4481" d="M92.92 104.93c-4.74-5.48-4.142-13.755 1.33-18.492 5.475-4.733 13.75-4.144 18.492 1.336 4.737 5.472 4.14 13.752-1.335 18.49-5.47 4.735-13.75 4.137-18.486-1.334z"/><path fill="#FFF" d="M100.557 100.908c-2.52-2.913-2.202-7.308.708-9.823 2.906-2.517 7.308-2.207 9.828.703 2.517 2.912 2.196 7.313-.714 9.834-2.91 2.514-7.31 2.194-9.83-.714z"/><circle fill="#FFF" cx="89.953" cy="94.544" r="3.392"/><circle fill="#0071BC" cx="147.894" cy="96.709" r="19.954"/><path fill="#0F4481" d="M139.604 104.93c-4.74-5.48-4.143-13.755 1.33-18.492 5.475-4.733 13.75-4.144 18.49 1.336 4.738 5.472 4.14 13.752-1.334 18.49-5.468 4.735-13.75 4.137-18.486-1.334z"/><path fill="#FFF" d="M147.24 100.908c-2.52-2.913-2.202-7.308.707-9.823 2.906-2.517 7.31-2.207 9.828.703 2.52 2.912 2.196 7.313-.714 9.834-2.91 2.514-7.3 2.194-9.82-.714z"/><circle fill="#FFF" cx="136.634" cy="94.544" r="3.392"/><path fill="#B2E2F9" d="M100.212 117.173s1.517 1.52-.537 8.57c0 0-.425 1.605.457 2.14 0 0 3.66 3.482 5.796-.802 0 0 .362-.53 0-1.87 0 0-1.433-5.02-.452-8.85l-5.264.82z"/><path fill="#26A9E0" d="M103.11 129.622c-1.6 0-2.994-1.207-3.223-1.418-1.08-.7-.62-2.488-.6-2.563 1.904-6.54.654-8.16.64-8.18l-.56-.56 6.65-1.03-.15.59c-.943 3.68.433 8.59.448 8.64.4 1.48-.005 2.14-.054 2.21-.75 1.52-1.82 2.32-3.15 2.32zm-2.272-12.14c.37.964.706 3.28-.777 8.372-.08.332-.22 1.38.28 1.686l.07.055c.02.013 1.31 1.223 2.71 1.224 1 0 1.83-.65 2.46-1.92.02-.04.27-.49-.03-1.59-.05-.2-1.31-4.69-.58-8.47l-4.12.63z"/><path fill="#6C6F71" d="M123.396 116.358v3.15l2.224 1.25-1.408-4.4"/><path fill="#1D8FCD" d="M124.26 117.947l3.647-4.702s-1.826-3.422-3.694-.08c-1.867-3.342-3.694.08-3.694.08l3.64 4.702v.12l.04-.06.04.06v-.12z"/><path fill="#FFF" d="M123.396 116.358s-.033-2.4-1.238-1.368l1.238 1.368zm1.604 0s.033-2.4 1.237-1.368L125 116.358z"/><path fill="#ACAFB1" d="M91.66 117.497s9.232-11.992 31.118-13.834c0 0-1.665 8.996-13.275 14.377-.002 0-8.724 4.775-17.844-.543z"/><path fill="#B2E2F9" d="M100.81 119.605c-2.745-.022-3.643-.27-3.894-.37-.235-1.154-.238-2.354-.01-3.568l.08-.422-.427-.05c-.86-.105-1.68-.308-2.31-.575l-.25-.103-1.31 1.282c.01-.94.14-2.49.75-3.99.08-.23.18-.45.31-.67.41-.8.92-1.47 1.54-2.01h.01l.1-.1c.77-.73 1.66-1.36 2.64-1.89 1.95-1.04 3.95-1.64 5.49-1.64.32 0 .62.02.89.07l.05.01.12-.01c.29 0 1.72.04 3.34.86l-1.65.66.05.31c.32 1.98-1.3 5.18-4.48 6.88-.24.12-.51.25-.82.36l-.26.1v4.8z"/><path fill="#26A9E0" d="M103.55 105.93c.296 0 .57.024.818.07l.093.018.1-.004h.06c.23 0 1.14.028 2.3.446l-.45.183-.59.24.1.634c.3 1.86-1.34 4.898-4.27 6.46-.23.12-.48.233-.77.346l-.51.197v4.677c-1.91-.03-2.78-.18-3.14-.273-.18-1.03-.17-2.1.04-3.186l.16-.842-.85-.104c-.82-.1-1.6-.29-2.2-.543l-.49-.21-.38.37-.37.36c.08-.83.27-1.84.68-2.84.08-.2.17-.41.29-.63.37-.7.82-1.31 1.36-1.8h.02l.2-.19c.74-.7 1.6-1.32 2.56-1.82 1.89-1.01 3.83-1.59 5.3-1.59m0-.81c-1.67 0-3.76.66-5.67 1.68-1.05.56-1.96 1.23-2.73 1.94-.76.63-1.32 1.4-1.73 2.2-.12.23-.23.47-.32.71-1.01 2.49-.76 5.06-.76 5.06l1.77-1.74c.64.26 1.48.48 2.42.6-.2 1.08-.28 2.42.05 3.89 0 0 .34.52 4.64.52h.01v-4.94c.29-.11.58-.24.86-.39 3.34-1.78 5.03-5.16 4.69-7.3l2.17-.87-.24-.11c-1.9-1.13-3.65-1.2-4.07-1.2h-.1c-.3-.06-.62-.09-.97-.09z"/><path fill="#ACAFB1" d="M157.274 117.497s-9.234-11.992-31.12-13.834c0 0 1.665 8.996 13.278 14.377 0 0 8.722 4.775 17.842-.543z"/><ellipse transform="rotate(-121.1 98.7 110.6)" fill="#FFF" cx="98.729" cy="110.6" rx="1.844" ry="3.584"/><path fill="#D0D2D3" d="M115.028 140.42h18.904s6.78 23.316-.17 42.792c0 0-7.895 5.93-17.598.41.002 0-7.56-5.494-1.136-43.203z"/><ellipse transform="rotate(-173.7 102.1 125.2)" fill="#FFF" cx="102.133" cy="125.211" rx="1.326" ry="2.576"/><path fill="#B2E2F9" d="M155 114.518l-.247.103c-.987.42-2.29.66-3.575.66-1.503 0-2.906-.32-4.062-.94-3.18-1.69-4.8-4.89-4.48-6.88l.053-.32-1.65-.66c1.63-.81 3.05-.86 3.34-.86l.12.01.05-.01c.27-.05.57-.08.89-.08 1.54 0 3.54.6 5.48 1.64.98.53 1.87 1.16 2.64 1.89l.1.1h.02c.61.54 1.13 1.21 1.53 2 .13.24.23.46.31.67.61 1.51.74 3.06.76 3.99l-1.3-1.29z"/><path fill="#26A9E0" d="M145.454 105.93c1.478 0 3.407.58 5.3 1.587.948.508 1.81 1.122 2.555 1.822l.2.18h.01c.54.49.99 1.09 1.36 1.8.11.21.21.42.29.63.39.98.58 1.99.66 2.81l-.38-.37-.39-.38-.49.2c-.93.39-2.21.62-3.42.62-1.44 0-2.78-.31-3.87-.9-2.93-1.56-4.57-4.6-4.27-6.46l.1-.64-.6-.24-.46-.18c1.16-.42 2.08-.45 2.3-.45h.16l.09-.02c.24-.05.52-.07.81-.07m0-.81c-.34 0-.67.03-.97.08h-.1c-.43 0-2.18.07-4.08 1.2l-.24.1 2.17.87c-.34 2.14 1.35 5.51 4.69 7.29 1.34.72 2.85.99 4.25.99 1.46 0 2.8-.3 3.73-.69l1.77 1.74s.25-2.57-.76-5.07c-.09-.24-.2-.48-.33-.71-.41-.8-.98-1.57-1.74-2.2h-.01c-.76-.72-1.67-1.39-2.73-1.95-1.91-1.03-4-1.68-5.67-1.68z"/><ellipse transform="rotate(121.1 150.3 110.6)" fill="#FFF" cx="150.274" cy="110.604" rx="1.844" ry="3.585"/><path fill="#ACAFB1" d="M103.777 160.26v-.386l11.018-7.5 2.51-3.246s-3.627-1.07.177-6.693c0 0 1.995-2.477 3.438-3.38 0 0 3.26-4.404 6.76-.173 0 0 8.734 6.578 3.683 10.246l2.646 3.38 11.22 7.51s.04 5.09-.34 6.09c-.38.996-12.89-7.522-12.89-7.522s-8.28.23-8.38-3.174c0 0-.07 3.29-7 3.125l-12.53 7.484-.33-5.76zM78.7 96.71s10.634-19.57 27.23-21.87c0 0-10.937-2.882-19.485 5 0-.003-7.648 5.056-7.744 16.87zm91.654 0s-10.634-19.57-27.23-21.87c0 0 10.94-2.882 19.484 5 0-.003 7.647 5.056 7.746 16.87z"/><path fill="#6C6F71" d="M135.917 129.755s-20.95-23.605-22.458-2.985c-.01 0-9.82 7.175 22.45 2.985z"/><path fill="#BE1E2D" d="M114.092 127.774s.67-18.333 20.752 1.443c0 0-25.706 1.704-20.752-1.443z"/><path fill="#FFF" d="M141.443 138.915s60.593 61.63-9.358 19.32c0 0-7.594.02-8.1-2.824 0 0-1.208-2.26.523-5.56 0 0-.566 4.11-3.755 2.77 0 0-8.837-.8-1.44 1.08l.267-9.46s7.08-7.94.657 1.16c0 0 1.3 1.88-2.16 3.75 0 0-4.305-.53 0-6.96 0 0 10.168-13.12 12.058 5.89l3.496 4.56s52.48 36.69 7.23-6.42"/><path fill="#ACAFB1" d="M117.482 148.948l.626-.99s.397-6.832 3.026-8.754c2.63-1.925-.95 5.473-.95 5.473l-1.44 4.12-.666.33-.596-.18zm13.044-.388l.69.904s-3.903-.568-3.335-4.084c0 0-4.58-7.53-6.92 2.04l1.15-1.738s1.67-1.14 3.64-.066c0 0 3.85 1.808 2.28 7.16 0 0-3.11 1.274-3.88-.9l-.48 2.39-3.85-4.062 2.14-7.634 3.08-1.84 4.92 2.478 1.14 3.983-.17 1.14-.36.23z"/><path fill="#FFF" d="M107.417 138.964s-60.79 61.58 9.16 19.27c0 0 6.317.023 6.82-2.822 0 0 1.085-3.158-.62-6.283 0 0 1.943 4.82 5.13 3.48 0 0 1.65-8.57-5.748-6.7l-1.64 2.94s1.48-12.59 7.9-3.48c0 0-1.3 1.87 2.16 3.74 0 0 4.3-.54 0-6.96 0 0-10.17-13.13-12.06 5.89l-3.5 4.55s-55.33 39.23-10.08-3.89"/><ellipse fill="#B2E2F9" cx="99.574" cy="137.044" rx="3.25" ry="3.265"/><path fill="#26A9E0" d="M99.574 140.712c-2.014 0-3.652-1.646-3.652-3.668 0-2.02 1.64-3.666 3.652-3.666 2.013 0 3.652 1.646 3.652 3.666s-1.64 3.668-3.652 3.668zm0-6.53c-1.572 0-2.85 1.284-2.85 2.862s1.278 2.862 2.85 2.862c1.57 0 2.848-1.284 2.848-2.862s-1.277-2.862-2.848-2.862z"/><circle fill="#FFF" cx="99.509" cy="136.354" r="1.703"/><path fill="#EF4B4D" d="M131.452 129.16s-7.447-10.64-15.018-2.312c0 0-3.683 5.164 10.217 1.54 0 .002 3.5-.82 4.81.773z"/><path fill="#BE1E2D" d="M127.563 125.376s-5.453-1.593-9.327 1.992c0 0 2.464-4.215 9.327-1.992z"/><path fill="#969798" d="M136.405 127.368s3.92 4.682-2.21 3.7c0 0 7.427 2.14 2.21-3.7zm-25.222-.698s-1.578 4.296 2.275 4.78c0 .002-4.82.594-2.275-4.78z"/><path d="M99.234 48.028c.102.21.202.438.3.68.098.242.154.503.17.782.014.28-.035.575-.148.887-.113.312-.327.643-.642.994s-.75.72-1.31 1.11c-.558.39-1.277.8-2.158 1.22l-6.44 3.12L82.9 44.2l6.44-3.118c.88-.427 1.645-.74 2.295-.936s1.21-.312 1.68-.344c.468-.032.86.004 1.175.11s.576.248.785.43c.208.182.377.387.507.614.13.227.246.446.348.657l3.106 6.415zm-5.77 4.357l1.035-.502-4.34-8.947-1.04.5 4.33 8.95zm13.336-17.42l.575 2.04-3.07.864.937 3.32 2.86-.81.595 2.11-2.86.8 1.115 3.95 3.07-.87.582 2.06-8.79 2.48-3.804-13.49 8.79-2.48zm8.925 3.008c.01.093.117.148.322.165.205.017.475.023.81.02s.718-.002 1.146 0c.427.002.866.032 1.317.09s.897.16 1.34.302c.442.142.846.35 1.21.624.365.274.672.627.92 1.06.25.434.408.97.476 1.612.048.46.082.915.1 1.364.018.45-.017.88-.103 1.292-.086.413-.243.802-.47 1.167-.226.36-.56.69-1 .98-.44.29-1.002.55-1.687.76-.684.21-1.53.37-2.54.48-1.007.1-1.878.14-2.613.1-.734-.04-1.36-.13-1.874-.26-.52-.14-.94-.31-1.27-.52-.33-.22-.59-.45-.77-.7-.19-.25-.32-.51-.4-.77-.08-.27-.13-.51-.16-.75l-.15-1.42 5.91-.63.27 2.62 1.14-.12-.3-2.8c-.01-.09-.12-.15-.33-.19-.21-.04-.48-.08-.82-.12l-1.16-.12c-.43-.04-.87-.1-1.32-.19-.46-.08-.9-.2-1.35-.34-.44-.14-.85-.34-1.21-.58-.36-.25-.67-.54-.91-.9s-.39-.79-.44-1.29c-.07-.63-.09-1.2-.06-1.7s.12-.95.28-1.34c.15-.39.38-.72.68-1.01.3-.29.69-.54 1.16-.75.47-.21 1.05-.39 1.72-.53s1.45-.26 2.35-.36c.94-.1 1.75-.13 2.42-.1.66.03 1.22.11 1.68.24s.82.29 1.09.48c.27.2.48.42.63.65.15.24.25.48.3.74s.09.5.12.73l.11 1.04-5.5.58-.22-2.06-1.15.12.23 2.25zm15 9.857c-1.03-.1-1.902-.24-2.61-.424-.71-.183-1.297-.39-1.76-.625-.463-.23-.82-.48-1.07-.75-.25-.27-.43-.54-.543-.82-.112-.28-.17-.55-.177-.82-.006-.27.002-.52.024-.75l.72-7.49c.02-.23.06-.48.12-.74s.16-.52.33-.77.39-.48.69-.69c.29-.21.69-.39 1.19-.53.5-.13 1.11-.22 1.84-.26.73-.04 1.61-.01 2.64.09 1.02.1 1.89.24 2.6.42.71.18 1.3.39 1.76.62.46.23.82.48 1.07.75.25.27.43.54.55.82.11.28.17.55.18.82.01.27 0 .52-.02.75l-.73 7.49c-.02.24-.07.48-.13.75s-.18.52-.34.78c-.17.26-.4.49-.7.71s-.7.4-1.2.54-1.12.23-1.85.27c-.73.05-1.61.02-2.64-.08zm-.34-2.434l1.148.11.955-9.894-1.146-.11-.955 9.894zm7.93 3.072l3.635-13.54 5.738 1.54-3.08 11.47 3.083.826-.55 2.07-8.82-2.366zm23.193-6.702l-.837 1.946-2.93-1.26-1.36 3.172 2.73 1.174-.87 2.018-2.73-1.174-1.62 3.77 2.93 1.26-.84 1.97-8.39-3.608 5.54-12.877 8.39 3.61zm10.306 6.144l-1.11 1.804-2.717-1.675-1.813 2.94 2.53 1.56-1.154 1.87-2.53-1.56-2.153 3.49 2.716 1.67-1.126 1.82-7.772-4.8 7.358-11.94 7.77 4.79z" fill="#6D6E70"/></svg>