<svg xmlns="http://www.w3.org/2000/svg" width="250" height="250" viewBox="0 0 250 250"><path opacity=".15" fill="#020202" d="M220.72 124.356c0-23.303-8.552-44.61-22.687-60.953-1.303.264-2.354.488-2.742.602-8.82 2.55-16.81 5.742-23.95 9.18v-.002c7.14-3.44 15.13-6.63 23.96-9.182.39-.11 1.44-.33 2.75-.6-9.29-10.74-21-19.34-34.28-24.96v.01c-11.14-4.7-23.39-7.31-36.25-7.31-51.48 0-93.22 41.74-93.22 93.23 0 42.15 27.98 77.76 66.37 89.3l8.76 17.82.22-.08.46.92 1.28-.5 1.72 3.5 103.1-40.11-7.61-24.76c7.74-13.59 12.17-29.31 12.17-46.07zm-96.192 28.81l.067-.02v.003c-.025 0-.05.01-.068.02v-.01zm2.448 17.713c-.093-.37-.188-.74-.263-1.11-.074-.32-.133-.66-.202-.98.07.32.13.66.21.98.08.37.17.74.27 1.11zm-1.288-6.51c-.08-.5-.17-.98-.24-1.48-.085-.62-.152-1.24-.228-1.86.075.61.143 1.24.227 1.85.07.5.16.98.24 1.48zm33.402 1.9l-.28-.21.282.2c.027.02.052.03.078.05-.03-.02-.05-.03-.08-.05zm-4.172-3.62l-.467-.51.48.51c.19.22.38.43.58.63-.19-.2-.39-.41-.58-.63zm-8.203-49.14c.02.94-.08 1.89-.387 2.83l-.043.15-.057.13-.004.01v-.01l.004-.02.053-.14.05-.16c.31-.94.41-1.89.39-2.83.81-3.91 1.73-7.8 2.67-11.44l.01-.02c-.94 3.64-1.87 7.54-2.67 11.46zm-.493 3.14l-.058.21c-.094.32-.23.84-.37 1.46-.48 2.75-.884 5.47-1.16 8.06-.085 1.19-.165 2.4-.185 3.73-.02 1.64.01 3.37.13 5.15.09 1.36.25 2.75.44 4.14-.2-1.39-.36-2.78-.45-4.14-.13-1.78-.16-3.51-.14-5.16.02-1.33.1-2.54.19-3.73.27-2.6.67-5.32 1.15-8.07.14-.62.27-1.14.37-1.46l.06-.22zm8.827-33.92c-.6 1.79-3.17 9.65-5.66 19.29l-.01.02c2.48-9.65 5.06-17.53 5.66-19.32zm-77.38 23.76h-.01c-.03-.06-4.78-8.98-6.4-19.09 1.63 10.15 6.4 19.09 6.4 19.09zm47.84 27.42c-.05.05-30.63 32.75-50.17 11.76 19.56 21 50.17-11.77 50.17-11.77zm8.18 55.09l-1.71-3.57c-.5-1.15-1.08-2.53-1.74-4.1l-.29-.79.29.79c.66 1.56 1.23 2.95 1.74 4.1l1.71 3.56.64 1.32-.64-1.32zm37.64-115.82c-2.47 1.19-4.84 2.4-7.1 3.63l-6.29 3.69c-1.04.56-1.98 1.24-2.93 1.86-.05.03-.09.06-.14.09l.01.01-.01-.02c.05-.03.09-.07.14-.1.94-.63 1.88-1.3 2.92-1.87 2.02-1.18 4.12-2.42 6.29-3.69 2.26-1.23 4.63-2.45 7.1-3.64zM64.09 122.63c.44 1.525.946 2.51.946 2.51 2.726 9.624 6.282 16.216 10.306 20.537h-.002c-4.022-4.32-7.578-10.91-10.303-20.534 0 0-.508-.99-.946-2.51z"/><path opacity=".15" d="M121.092 97.623l-.04-.012c.013.01.025.01.04.02zm.924 19.28s-14.12-15.116-29.325-18.274c15.18 3.15 29.28 18.21 29.33 18.27zm-47.982 27.5c-3.833-.53-6.677-1.5-8.777-2.728 2.1 1.228 4.945 2.198 8.778 2.728zm81.03-94.353c-.254-.1-.504-.22-.76-.31.256.09.506.21.76.31zm-32.59 138.555c-30.93 7.34-45.475 2.958-51.572-5.386 6.1 8.34 20.642 12.72 51.57 5.38.624.52 1.265 1.05 1.915 1.58-.65-.53-1.29-1.06-1.914-1.58zm5.703 4.51c.387.28.768.563 1.167.842l.865.638-.87-.636c-.4-.28-.79-.57-1.17-.85zm6.745 4.905c.384.265.762.534 1.164.78.57.37 1.164.753 1.745 1.128l-1.74-1.125c-.4-.248-.78-.518-1.16-.783zm8.68 5.63l-1.812-1.168 1.81 1.166c.676.407 1.382.812 2.074 1.218-.692-.405-1.398-.81-2.072-1.216zm10.938-33.183c-1.047-.564-1.985-1.244-2.935-1.87-.045-.034-.09-.065-.14-.095l.164-.266c-.83-2.475-5.42-16.535-8.36-30.867.02-.94-.08-1.9-.39-2.84l-.05-.16-.06-.14-.07-.25c-.1-.33-.23-.85-.37-1.47-.48-2.76-.89-5.48-1.16-8.09-.09-1.19-.17-2.41-.19-3.74-.02-1.65.01-3.38.14-5.17.12-1.78.33-3.61.62-5.43.28-1.82.67-3.64 1.14-5.42.48-1.77 1-3.51 1.65-5.14.29-.83.65-1.61.99-2.38.33-.78.74-1.5 1.09-2.22.75-1.43 1.57-2.71 2.38-3.86.38-.59.83-1.1 1.24-1.61.4-.52.83-.98 1.23-1.41.76-.89 1.61-1.57 2.28-2.19.72-.6 1.37-1.06 1.9-1.44.55-.35 1-.6 1.3-.78l.46-.27c3.15-1.81 5.8-4.56 7.49-8.08 4.02-8.4 1.18-18.32-6.28-23.41-.78-.52-1.59-.99-2.45-1.41.86.42 1.68.89 2.45 1.41 7.46 5.09 10.31 15 6.28 23.41-1.7 3.53-4.34 6.27-7.5 8.08l-.45.26c-.3.18-.76.43-1.3.78-.52.38-1.18.84-1.9 1.43-.68.62-1.53 1.3-2.28 2.19-.4.43-.83.89-1.23 1.4-.41.5-.86 1.02-1.24 1.6-.82 1.15-1.63 2.44-2.38 3.86-.36.72-.77 1.44-1.1 2.22-.34.77-.7 1.55-.99 2.37-.65 1.63-1.17 3.36-1.65 5.13-.47 1.77-.86 3.6-1.15 5.42-.29 1.83-.51 3.65-.63 5.44-.12 1.78-.16 3.52-.14 5.17.02 1.33.1 2.55.19 3.74.28 2.6.68 5.33 1.16 8.09.14.62.28 1.14.37 1.46l.07.25.05.13.04.15c.31.94.4 1.9.39 2.84 2.94 14.33 7.53 28.39 8.35 30.86l-.17.26c.05.03.09.06.14.1.94.62 1.88 1.31 2.93 1.87l6.31 3.7c1.81.98 3.71 1.96 5.65 2.92-1.94-.96-3.84-1.94-5.658-2.92-2.178-1.28-4.28-2.52-6.31-3.7z"/><path fill="#2AACE3" d="M80.867 100.838h.002M46.06 129.81c0 .118.003.24.015.362-.012-.12-.016-.244-.014-.36z"/><path fill="#0291CA" d="M148.426 45.19l.014.002-.012-.003h-.002z"/><path fill="#2AACE3" d="M83.472 143.957h-.003m-34.7-29.253c-.01.12-.02.243-.02.36 0-.117 0-.24.01-.36z"/><path fill="#0291CA" d="M150.842 199.448l.01-.002h-.014l.004.002z"/><path fill="#F77" d="M134.547 50.254c-1.223.75-2.344 1.61-3.453 2.424-1.12.817-2.21 1.625-3.27 2.405-2.512 1.75-4.744 3.57-6.856 5.34-82.247-19.516-48.3 44.078-48.3 44.078-20.76 2.87-12.63 18.65-12.63 18.65 15.978 56.42 60.477 8.78 60.477 8.78-.03.27-.07.49-.1.75-.257 2.16-.447 4.41-.62 6.71-.072 1.15-.125 2.32-.19 3.5-.033 1.18-.076 2.37-.078 3.58 0 1.2-.02 2.4.036 3.61.007.23.01.45.016.67-.03.25-.06.43-.06.45.02-.01.04-.01.07-.02 0 .25.01.49.02.73.03.61.06 1.21.1 1.81.13 2.42.4 4.84.73 7.21.33 2.36.76 4.67 1.26 6.87.22 1.11.54 2.17.8 3.23.25 1.05.56 2.06.87 3.03.59 1.95 1.28 3.73 1.85 5.32.66 1.57 1.23 2.96 1.74 4.1 1.08 2.27 1.71 3.57 1.71 3.57l1.16 2.41c3.84 8.01 12.67 12 20.99 10.04 1.27-.3 2.52-.74 3.75-1.32.86-.41 1.67-.88 2.44-1.41 7.44-5.07 10.28-14.96 6.26-23.33-1.69-3.52-4.33-6.26-7.47-8.06l-.46-.26c-.3-.18-.76-.43-1.3-.78-.52-.38-1.18-.84-1.9-1.43-.67-.62-1.52-1.3-2.28-2.18-.41-.43-.83-.89-1.23-1.4-.41-.51-.86-1.02-1.24-1.61-.81-1.15-1.63-2.43-2.37-3.85-.36-.71-.77-1.43-1.09-2.21-.34-.77-.71-1.54-1-2.37-.65-1.62-1.17-3.35-1.65-5.12-.47-1.77-.86-3.58-1.14-5.4-.29-1.81-.5-3.64-.62-5.41-.13-1.78-.16-3.5-.14-5.15.02-1.32.1-2.54.18-3.72.27-2.6.68-5.32 1.16-8.07.14-.62.27-1.13.37-1.46l.06-.24.06-.13.04-.15c.31-.93.41-1.89.39-2.83 2.93-14.29 7.51-28.31 8.33-30.78l-.17-.26c.05-.03.09-.06.14-.09.94-.62 1.88-1.3 2.92-1.86l6.29-3.69c8.81-4.8 19.18-9.39 31.05-12.82.39-.11 1.44-.34 2.74-.6 14.13 16.34 22.69 37.65 22.69 60.95 0 51.49-41.74 93.23-93.23 93.23s-93.2-41.78-93.2-93.27S71 29.14 122.48 29.14c12.86 0 25.114 2.602 36.26 7.31-6.03 2.87-11.61 5.903-16.71 8.98-2.587 1.663-5.08 3.275-7.495 4.832z"/><path fill="#FFF" d="M193.033 61.4c-1.303.265-2.354.49-2.742.6-11.87 3.435-22.24 8.025-31.05 12.82-2.17 1.275-4.27 2.506-6.29 3.69-1.04.56-1.98 1.24-2.92 1.866-.04.03-.09.063-.14.093l.17.26c-.82 2.46-5.4 16.49-8.33 30.78.02.94-.08 1.89-.38 2.83l-.04.15-.05.13-.06.24c-.09.32-.23.84-.37 1.46-.48 2.75-.88 5.47-1.16 8.07-.08 1.18-.17 2.4-.19 3.72-.02 1.64.02 3.37.14 5.15.12 1.77.34 3.59.63 5.41.28 1.81.67 3.63 1.14 5.4.48 1.76 1 3.49 1.65 5.12.29.82.66 1.6.99 2.36.33.77.74 1.49 1.09 2.21.75 1.42 1.57 2.7 2.38 3.85.38.59.83 1.1 1.24 1.6.4.51.83.97 1.23 1.4.75.89 1.6 1.56 2.28 2.18.72.59 1.37 1.05 1.9 1.44.55.34 1 .59 1.3.77l.46.27c3.15 1.8 5.79 4.54 7.48 8.06 4.02 8.38 1.18 18.27-6.26 23.34-.77.52-1.59.99-2.45 1.41-1.23.58-2.48 1.02-3.75 1.32h-.01c-8.31 1.96-17.14-2.03-20.99-10.04l-1.16-2.4-1.71-3.57c-.5-1.14-1.08-2.53-1.74-4.1-.57-1.59-1.26-3.37-1.85-5.32-.31-.97-.62-1.98-.87-3.02-.25-1.06-.58-2.12-.8-3.23-.51-2.21-.93-4.52-1.27-6.88-.33-2.36-.6-4.78-.73-7.2-.04-.6-.06-1.2-.1-1.81-.01-.25-.02-.49-.02-.73l-.07.02c0-.02.02-.2.05-.44l-.01-.67c-.06-1.21-.03-2.41-.03-3.61 0-1.21.05-2.4.08-3.58.06-1.18.12-2.35.19-3.5.17-2.3.36-4.55.62-6.71.03-.26.07-.48.1-.75 0 0-44.5 47.64-60.48-8.78 0 0-8.13-15.78 12.64-18.65 0 0-33.95-63.59 48.3-44.08 2.11-1.77 4.35-3.59 6.86-5.34 1.06-.78 2.15-1.59 3.27-2.41 1.11-.82 2.23-1.68 3.46-2.43 2.41-1.56 4.91-3.17 7.49-4.83 5.1-3.08 10.69-6.12 16.72-8.98C172.1 42 183.81 50.6 193.1 61.34z"/><path fill="#E5E5E5" d="M121.802 122.83s-9.835-36.68 8.21-54.36l-15.266 10.05s.993 12.432-5.32 16.418c0 0 10.78 15.142 7.494 26.617l4.882 1.274z"/><path fill="#E5E5E5" d="M120.244 63.777l9.768 4.69-11.998 12.84-3.268-3.664-2.232-3.427s4.62-.266 7.73-10.44z"/><path fill="#CCC" d="M95.38 141.796h-8.607s46.38-11.478 23.43-43.512c0 0-13.417-3.732-31.56 4.064 0 0 10.877-8.368 30.782-7.41 0 0 9.64-12.91-3.448-23.19H78.645l3.348-1.914s49.488-10.28 31.08 25.58c0 0 20.32 35.144-16.497 44.47l-1.196 1.912z"/><path opacity=".15" d="M95.72 208.192l12.343 25.11 103.107-40.11-9.41-30.607"/><path opacity=".15" d="M92.054 204.36l12.342 25.11 103.107-40.11-9.41-30.608"/><path fill="#FFF" d="M92.72 205.192l12.343 25.11 103.107-40.11-9.41-30.607"/><path d="M99.748 207.908l6.157-2.995c.34-.162.655-.312.946-.447.29-.137.56-.26.8-.367l.68-.27c.2-.09.39-.16.55-.22s.32-.12.47-.16l.44-.12c.15-.04.3-.07.43-.09l.4-.05c.23-.02.45-.03.66-.03.21 0 .42.02.62.06.2.04.4.1.59.18.19.08.38.16.57.26.17.1.34.21.5.35.16.13.3.27.43.42.15.16.28.33.4.52s.23.4.34.62c.08.17.15.33.22.49.06.16.11.33.14.5.03.17.06.34.07.5.02.16.01.33-.01.5 0 .15-.03.31-.06.48-.03.16-.09.32-.16.48-.06.15-.13.31-.22.47-.09.16-.19.31-.3.47.24-.04.46-.06.68-.05.21.01.42.04.62.08.21.02.4.07.58.14.18.07.35.15.52.24.18.1.34.22.48.34.15.13.29.27.42.44.15.16.28.34.41.53.12.19.24.4.34.63.12.23.22.45.29.67s.14.44.19.66c.05.22.08.43.09.64.02.21.02.42.01.62-.02.21-.05.42-.1.62-.04.2-.1.4-.17.6-.08.19-.17.38-.27.56-.1.19-.22.37-.35.55-.09.12-.18.23-.28.35-.1.11-.21.22-.33.34-.11.1-.23.21-.36.31-.13.1-.27.2-.41.3-.14.11-.31.22-.5.33l-.65.39-.83.43c-.3.16-.62.32-.98.49l-6.67 3.22-7.28-15.06zm9.58 2.774c.17-.08.325-.16.463-.238s.26-.16.36-.25c.12-.077.22-.16.29-.243.07-.08.13-.17.18-.25.04-.06.07-.15.1-.25s.03-.2.03-.29l-.06-.3c-.02-.1-.07-.22-.13-.35-.06-.11-.12-.21-.19-.31s-.14-.18-.22-.25c-.08-.07-.16-.12-.25-.16s-.17-.06-.26-.07c-.1-.01-.22 0-.35.02s-.29.07-.47.12c-.17.07-.38.15-.61.25-.23.1-.47.2-.73.32l-1.35.67 1.27 2.61 1.98-.98zm2.944 5.425c.178-.102.344-.194.496-.276.152-.08.285-.17.4-.26.13-.1.236-.19.318-.28.083-.09.15-.18.2-.26.06-.1.1-.21.12-.31.02-.1.03-.2.025-.29-.01-.11-.02-.23-.05-.34-.02-.11-.07-.24-.14-.36-.06-.13-.13-.24-.2-.34-.07-.1-.14-.18-.22-.25-.09-.06-.18-.12-.27-.16s-.19-.06-.29-.07c-.11-.03-.23-.03-.36-.02-.12.02-.26.05-.42.09-.13.04-.29.09-.45.15-.17.07-.35.14-.55.24l-2.2 1.07 1.37 2.8 2.25-1.08zm6.95-5.954c-.13-.453-.21-.89-.236-1.314-.05-.44-.043-.86.017-1.28s.165-.82.317-1.21c.146-.41.338-.79.578-1.15.24-.36.516-.7.83-1.02.326-.33.693-.63 1.1-.9.407-.27.857-.53 1.352-.77.48-.24.955-.42 1.427-.57.472-.15.93-.25 1.378-.3.448-.06.885-.06 1.31-.02.424.04.844.12 1.26.24.4.13.784.3 1.15.52.364.21.7.46 1.01.74.313.3.605.64.876 1.02.28.38.52.8.74 1.25.23.46.41.92.54 1.37.13.45.21.89.24 1.31.05.43.04.86-.02 1.27-.06.41-.16.82-.31 1.23-.16.4-.36.78-.59 1.14s-.5.71-.81 1.03c-.33.31-.7.6-1.1.88-.4.28-.84.53-1.32.77-.49.24-.97.43-1.44.57-.46.14-.92.24-1.36.29-.45.05-.89.06-1.32.02-.43-.04-.85-.12-1.25-.25-.41-.13-.8-.3-1.17-.51-.36-.21-.7-.47-1.02-.77-.31-.3-.6-.64-.87-1.02s-.52-.81-.75-1.27c-.22-.45-.39-.91-.52-1.36zm5.377-.103c.12.213.25.402.38.57.11.173.23.318.36.438.13.117.25.22.37.31.12.07.25.125.39.166.13.042.27.06.42.054.14.014.29-.002.45-.045.16-.044.31-.104.47-.18.17-.08.31-.17.43-.268.12-.096.23-.203.31-.32.09-.104.16-.22.22-.347.05-.128.09-.272.11-.432.01-.14.01-.297-.01-.474-.02-.178-.06-.37-.12-.582-.05-.2-.11-.414-.2-.64-.09-.228-.2-.466-.33-.718s-.26-.484-.38-.696c-.12-.213-.25-.403-.38-.57-.11-.16-.23-.3-.36-.427-.13-.13-.26-.23-.39-.3-.12-.09-.25-.15-.39-.18s-.28-.05-.43-.04c-.14-.02-.28 0-.44.04-.15.04-.31.1-.48.18-.16.07-.3.16-.43.26s-.24.2-.34.3c-.07.11-.14.23-.2.36s-.1.27-.11.4c-.02.14-.01.3 0 .47.02.18.05.36.11.56.04.2.11.41.21.65l.31.73c.13.25.25.48.38.69zm8.9-5.332c-.13-.452-.21-.89-.24-1.314-.05-.434-.04-.857.02-1.273.06-.41.16-.81.31-1.21.14-.4.34-.79.58-1.14.24-.35.51-.69.83-1.01.32-.32.69-.62 1.1-.89.4-.27.85-.52 1.35-.76.48-.23.95-.42 1.42-.56.47-.14.93-.24 1.37-.3.44-.05.88-.06 1.31-.02.42.04.84.12 1.26.25.4.14.78.31 1.15.52.36.22.7.46 1.01.75.31.3.6.64.88 1.02.27.38.51.8.73 1.25.22.46.4.92.53 1.37.13.45.21.89.24 1.32.05.44.04.86-.02 1.28-.06.42-.16.83-.31 1.23-.17.4-.36.78-.59 1.14-.23.37-.5.71-.82 1.03-.34.31-.7.61-1.11.89-.4.28-.85.53-1.33.77-.5.24-.98.43-1.44.57-.47.14-.92.24-1.37.29-.45.05-.89.06-1.32.02-.43-.04-.85-.12-1.25-.25-.41-.13-.8-.3-1.17-.51s-.7-.47-1.02-.77c-.31-.3-.6-.64-.88-1.02-.27-.38-.52-.8-.74-1.27-.22-.45-.4-.9-.53-1.35zm5.38-.104c.12.213.25.403.38.57.11.174.23.32.36.438s.25.223.37.31c.12.07.25.126.39.167.13.04.27.05.42.05.14.01.29 0 .44-.05.16-.05.31-.11.47-.18.17-.08.31-.17.44-.27.12-.1.22-.21.31-.32.09-.11.16-.22.22-.35.05-.13.09-.28.11-.44.01-.14.01-.3-.01-.48s-.06-.37-.12-.58c-.05-.2-.11-.42-.2-.64-.09-.23-.19-.47-.32-.72s-.26-.48-.38-.7c-.12-.22-.25-.4-.38-.57-.11-.16-.23-.3-.36-.43-.14-.13-.26-.23-.39-.29-.12-.09-.25-.15-.38-.18-.14-.04-.28-.05-.43-.04-.14-.02-.29 0-.44.04-.15.04-.31.1-.48.18-.15.07-.3.16-.43.26s-.24.2-.33.3c-.08.11-.14.23-.2.36-.06.13-.1.26-.11.4-.02.14-.02.29 0 .47s.05.36.11.56c.04.2.11.42.2.65.09.23.2.47.31.73.13.25.25.48.38.69zm5.64-13.796l4.42-2.16 2.48 5.15c.05-.187.1-.362.17-.53s.14-.327.22-.474c.09-.152.18-.3.28-.446.09-.145.19-.28.3-.402.11-.128.24-.254.36-.378s.26-.24.41-.344c.14-.104.29-.204.45-.298.16-.092.32-.18.49-.26.18-.088.36-.167.52-.238.16-.07.34-.133.52-.185.16-.047.33-.08.5-.103.17-.02.33-.04.49-.05s.32-.015.47-.006.31.024.47.047c.15.05.3.09.45.13.15.05.3.11.46.18.12.06.24.12.37.2s.25.17.37.27c.12.09.23.19.34.31.11.12.22.24.31.37.11.12.23.28.35.46.12.18.24.39.38.62.12.22.25.47.4.74.14.27.3.57.45.89l2.79 5.76-4.42 2.16-2.79-5.75c-.1-.21-.2-.4-.29-.58-.1-.17-.2-.32-.3-.45-.1-.13-.2-.24-.29-.34-.1-.1-.2-.17-.3-.21-.09-.05-.18-.09-.29-.11-.11-.02-.22-.03-.33-.02-.12.01-.24.03-.37.06-.13.04-.27.09-.41.16-.14.07-.26.15-.37.24-.11.08-.2.17-.28.27-.08.1-.15.2-.2.31-.05.11-.09.23-.13.34-.02.13-.03.26-.03.4s.03.3.07.46c.02.16.07.32.13.49.06.17.14.35.24.55l2.78 5.74-4.43 2.14-7.28-15.06zm26.03-10.733l4.46-2.176 1.54 3.19-4.45 2.14-1.56-3.17zm2.09 4.318l4.46-2.176 5.38 11.117-4.47 2.175-5.39-11.12zm16.65 1.825c.05.072.11.137.18.192.05.048.11.087.18.118.07.032.14.05.21.06.08.02.16.026.25.02.09-.01.19-.026.29-.05l.34-.13.4-.155c.07-.04.13-.08.19-.11s.11-.058.16-.075c.04-.03.07-.06.12-.082.04-.024.08-.045.13-.06l1.54 3.198c-.12.078-.25.152-.38.22-.14.067-.25.138-.36.212-.13.064-.25.127-.37.19-.12.06-.24.12-.35.18-.11.06-.22.116-.33.173l-.3.16c-.12.04-.23.09-.32.14-.1.05-.2.1-.3.14-.35.18-.68.32-.99.43-.31.11-.61.19-.89.25-.27.07-.53.11-.76.11s-.45-.02-.65-.08c-.19-.05-.37-.13-.56-.24-.19-.12-.36-.26-.53-.43-.16-.17-.32-.38-.48-.61-.15-.23-.3-.5-.45-.8l-2.71-5.59-1.56.77-1.24-2.54 1.56-.78-1.66-3.43 4.4-2.13 1.66 3.43 2.07-1.02 1.25 2.56-2.08.99 2.15 4.45c.04.1.08.18.14.26zm1.52-8.944l-1.84-3.787 4.51-2.17 1.81 3.773 1.83 6.398-2.45 1.21-3.87-5.424zm3.48 7.102l4.43-2.137 2 4.15-4.42 2.16-2.02-4.18z" fill="#00ADEE"/><circle fill="#7C0" cx="-432.234" cy="170.678" r="97.487"/><path fill="#2AACE3" d="M-473.04 148.09h.002m-36.297 30.21c-.002.124.003.25.014.378-.02-.126-.02-.254-.02-.378z"/><path fill="#0291CA" d="M-402.592 90.062h.017l-.013-.003h-.004z"/><path fill="#FFF" d="M-361.336 233.788c-12.416-3.59-23.256-8.39-32.472-13.405-2.268-1.332-4.463-2.62-6.577-3.857-1.09-.586-2.07-1.297-3.058-1.95-.047-.033-.095-.066-.147-.1l.172-.273c-.86-2.58-5.647-17.244-8.714-32.188.017-.98-.085-1.978-.405-2.96l-.046-.16-.057-.138-.07-.255c-.096-.34-.238-.877-.385-1.524-.502-2.88-.924-5.722-1.21-8.438-.093-1.24-.177-2.512-.197-3.896-.02-1.724.017-3.526.146-5.392.125-1.856.348-3.763.65-5.664.294-1.897.7-3.797 1.193-5.646.502-1.847 1.04-3.653 1.72-5.354.303-.86.69-1.674 1.04-2.476.34-.813.77-1.564 1.138-2.313.786-1.49 1.636-2.82 2.483-4.03.398-.62.87-1.15 1.294-1.68.42-.54.864-1.02 1.286-1.47.79-.93 1.677-1.64 2.382-2.28.753-.62 1.435-1.11 1.98-1.51.57-.36 1.042-.63 1.356-.82l.477-.28c3.29-1.89 6.047-4.76 7.813-8.43 4.198-8.77 1.235-19.11-6.552-24.41-.805-.55-1.656-1.04-2.555-1.48-1.29-.61-2.6-1.07-3.93-1.39h-.01c-8.7-2.06-17.93 2.12-21.95 10.49l-1.21 2.51s-.66 1.36-1.79 3.73c-.53 1.19-1.13 2.65-1.82 4.28-.61 1.66-1.32 3.52-1.94 5.56-.33 1.01-.66 2.07-.92 3.16-.27 1.1-.61 2.22-.84 3.37-.53 2.31-.97 4.72-1.33 7.19-.34 2.47-.63 5-.77 7.53-.04.63-.07 1.26-.11 1.9l-.03.76-.07-.02c0 .02.02.21.05.47l-.02.7c-.06 1.26-.04 2.52-.04 3.77 0 1.26.05 2.5.08 3.74.07 1.23.12 2.45.2 3.66.18 2.4.38 4.76.64 7.01.03.27.07.5.1.77 0 0-46.53-49.83-63.24 9.18 0 0-8.5 16.5 13.21 19.5 0 0-35.5 66.5 50.5 46.09 2.21 1.85 4.54 3.75 7.17 5.58 1.11.81 2.25 1.66 3.42 2.51 1.16.85 2.33 1.75 3.61 2.53 2.52 1.63 5.13 3.31 7.83 5.05 8.72 5.26 18.79 10.42 30.06 14.85 11.71-8.05 21.77-18.36 29.59-30.31-3.08-.62-8.2-1.6-9.19-1.89z"/><path fill="#E5E5E5" d="M-432.955 170.182s-10.286 38.355 8.584 56.846l-15.97-10.512s1.04-13-5.57-17.166c0 0 11.27-15.834 7.83-27.834l5.1-1.334z"/><path fill="#E5E5E5" d="M-434.583 231.934l10.213-4.906-12.546-13.428-3.417 3.834-2.333 3.582s4.83.28 8.083 10.918z"/><path fill="#CCC" d="M-460.583 150.35h-9s48.5 12 24.5 45.5c0 0-14.03 3.9-33-4.25 0 0 11.373 8.75 32.187 7.75 0 0 10.083 13.5-3.603 24.25h-28.58l3.5 2s51.75 10.75 32.5-26.75c0 0 21.25-36.75-17.25-46.5l-1.25-2z"/><path fill="#2AACE3" d="M83.867 100.838h.002M49.06 129.81c0 .118.003.24.015.362-.012-.12-.016-.244-.014-.36z"/><path fill="#0291CA" d="M151.426 45.19l.014.002-.012-.003h-.002z"/><path fill="#2AACE3" d="M128.963-150.415h-.002m-36.28-30.59c-.01.128-.01.255-.01.38 0-.125 0-.253.02-.38z"/><path fill="#0291CA" d="M199.412-92.385l.012-.004-.016.01.004.01z"/><path fill="#F77" d="M182.373-248.4c-1.277.786-2.45 1.683-3.613 2.536-1.168.854-2.31 1.7-3.418 2.515-2.625 1.84-4.96 3.74-7.168 5.59-86.007-20.4-50.507 46.1-50.507 46.1-21.71 3-13.21 19.5-13.21 19.5 16.71 59 63.243 9.18 63.243 9.18-.033.28-.072.51-.104.78-.27 2.25-.47 4.61-.646 7.01-.076 1.21-.133 2.43-.2 3.66-.034 1.24-.08 2.48-.08 3.74 0 1.26-.022 2.51.036 3.78.008.24.01.47.018.7-.03.25-.055.44-.055.46.02-.01.04-.01.07-.02 0 .26.01.51.02.77.04.64.06 1.27.1 1.9.14 2.53.42 5.06.76 7.53.35 2.47.79 4.88 1.32 7.19.23 1.16.57 2.27.84 3.37.26 1.1.59 2.16.92 3.17.62 2.04 1.33 3.9 1.93 5.57.69 1.64 1.29 3.09 1.82 4.29 1.13 2.37 1.79 3.73 1.79 3.73l1.21 2.52c4.02 8.38 13.25 12.55 21.95 10.5 1.33-.31 2.64-.77 3.93-1.38.9-.43 1.75-.92 2.55-1.47 7.78-5.3 10.75-15.64 6.55-24.4-1.77-3.68-4.52-6.54-7.81-8.43l-.48-.27c-.31-.18-.79-.45-1.36-.81-.55-.4-1.23-.88-1.98-1.5-.71-.65-1.6-1.35-2.39-2.28-.42-.45-.87-.93-1.29-1.47-.43-.52-.9-1.06-1.3-1.67-.85-1.2-1.7-2.54-2.48-4.02-.37-.75-.8-1.5-1.14-2.31-.35-.8-.74-1.61-1.04-2.47-.68-1.7-1.22-3.51-1.72-5.35-.49-1.85-.9-3.75-1.19-5.64-.3-1.9-.53-3.8-.65-5.66-.13-1.86-.17-3.67-.15-5.39.02-1.39.1-2.66.19-3.9.29-2.71.71-5.56 1.21-8.44.15-.65.29-1.18.39-1.52l.07-.25.06-.14.04-.16c.32-.98.42-1.98.4-2.96 3.06-14.94 7.85-29.6 8.71-32.18l-.18-.27c.05-.03.1-.06.14-.1.99-.65 1.97-1.36 3.07-1.95 2.11-1.23 4.31-2.52 6.57-3.85 9.22-5.02 20.06-9.82 32.47-13.41.4-.12 1.5-.35 2.87-.63 14.78 17.09 23.72 39.37 23.72 63.74 0 53.84-43.65 97.49-97.49 97.49s-97.44-43.7-97.44-97.54 43.64-97.49 97.48-97.49c13.45 0 26.26 2.73 37.92 7.65-6.31 3-12.15 6.18-17.48 9.39-2.71 1.74-5.32 3.42-7.84 5.05z"/><path fill="#FFF" d="M243.53-236.744c-1.36.277-2.46.51-2.866.63-12.416 3.59-23.256 8.39-32.473 13.404-2.27 1.332-4.46 2.62-6.57 3.857-1.09.587-2.07 1.297-3.06 1.952l-.14.09.18.27c-.86 2.58-5.65 17.24-8.71 32.19.02.98-.08 1.97-.4 2.95l-.04.16-.06.14-.07.25c-.09.34-.24.87-.38 1.52-.5 2.88-.92 5.72-1.21 8.43-.09 1.24-.18 2.51-.2 3.89-.02 1.72.02 3.53.15 5.39.13 1.86.35 3.76.65 5.66.3 1.9.7 3.8 1.2 5.65.51 1.84 1.04 3.65 1.72 5.35.31.86.69 1.67 1.04 2.47.34.81.77 1.56 1.14 2.31.79 1.49 1.64 2.82 2.48 4.03.4.61.87 1.15 1.3 1.68.42.54.87 1.01 1.29 1.46.79.93 1.68 1.64 2.38 2.28.76.62 1.44 1.1 1.98 1.5.57.36 1.05.62 1.36.81l.48.27c3.29 1.89 6.05 4.75 7.81 8.43 4.2 8.76 1.23 19.1-6.55 24.41-.8.55-1.65 1.04-2.55 1.47-1.28.61-2.6 1.07-3.93 1.38h-.01c-8.69 2.05-17.93-2.12-21.95-10.5l-1.21-2.51-1.79-3.73c-.52-1.2-1.13-2.65-1.81-4.29-.6-1.67-1.32-3.52-1.94-5.56-.32-1.01-.65-2.07-.91-3.16-.27-1.1-.61-2.22-.84-3.37-.53-2.31-.97-4.73-1.32-7.19-.34-2.48-.62-5-.76-7.53-.04-.63-.07-1.26-.11-1.9-.01-.26-.02-.51-.02-.77-.03 0-.06.01-.07.02 0-.02.02-.21.05-.47-.01-.24-.01-.47-.02-.7-.06-1.27-.04-2.52-.04-3.78.01-1.27.05-2.51.09-3.74.07-1.23.13-2.46.2-3.66.18-2.4.38-4.76.65-7.01.03-.27.07-.51.11-.78 0 0-46.53 49.82-63.24-9.18 0 0-8.5-16.5 13.21-19.5 0 0-35.5-66.5 50.51-46.1 2.21-1.85 4.54-3.75 7.17-5.58 1.11-.82 2.25-1.66 3.42-2.52 1.17-.85 2.34-1.75 3.62-2.53 2.52-1.63 5.13-3.31 7.84-5.05 5.33-3.22 11.17-6.39 17.48-9.39 13.89 5.87 26.13 14.86 35.85 26.1z"/><path fill="#E5E5E5" d="M169.045-172.508s-10.285-38.355 8.584-56.844l-15.97 10.51s1.04 13-5.57 17.168c0 0 11.27 15.834 7.83 27.833l5.1 1.33z"/><path fill="#E5E5E5" d="M167.416-234.26l10.213 4.907-12.55 13.427-3.42-3.833-2.34-3.58s4.83-.28 8.08-10.91z"/><path fill="#CCC" d="M141.416-152.675h-9s48.5-12 24.5-45.5c0 0-14.03-3.902-33 4.25 0 0 11.373-8.75 32.188-7.75 0 0 10.082-13.5-3.604-24.25h-28.583l3.5-2s51.75-10.75 32.5 26.75c0 0 21.25 36.75-17.25 46.5l-1.25 2z"/><path opacity=".15" d="M30.183-103.167H16.467v1.184h-6.283v-2.037h-13.66v15.6c-1.447-5.678-5.385-9.085-10.768-9.085-.372 0-.756.017-1.14.05-2.603.228-4.852 1.256-6.722 3.066-1.4-1.06-3.245-1.89-5.62-1.89-.306 0-.62.02-.937.04-1.405.12-2.697.48-3.87 1.06l-8.535.75-.09-1.73-1.234.09c.08-.43.128-.87.128-1.33 0-4-3.257-7.25-7.26-7.25-4 .01-7.255 3.26-7.256 7.26 0 .81.14 1.59.384 2.31l-.13.01-1.986.14-.557.04c.08-.43.13-.87.13-1.33 0-4-3.25-7.26-7.26-7.26-1.2 0-2.34.3-3.34.83l-.3-3.43-15.61 1.37.08.94c-.59-.38-1.23-.7-1.91-.97-1.52-.58-3.23-.85-5.35-.85-1.45 0-2.99.13-4.57.26l-15.04 1.32 1.24 14.17c-.39-.67-.83-1.28-1.34-1.83-1.37-1.47-3.88-3.22-8.08-3.22-2.27 0-4.05.48-5.44 1.16v-9.38h-12.99v1.19h-10.11V-94h-2.17v.25c-1.74-.91-3.49-1.174-4.95-1.174-4.02 0-7.36 1.894-9.64 5.48-1.93 3.033-2.92 7.046-2.96 11.927h-1.83v-25.623h-14.19v42.35h23.33v-.3c1.52.8 3.22 1.22 5.08 1.22 3.38 0 6.19-1.093 8.36-3.26.23-.225.44-.47.65-.715.06.094.12.185.18.273 1.04 1.464 3.12 3.21 7.13 3.21.62 0 1.28-.02 1.98-.066.67-.045 1.39-.107 2.22-.19l3.35-.35v-15.07l-2.94.413v-1.815l1.05-.224c1.1-.23 2.11-.626 3.02-1.166.22.905.53 1.734.94 2.48h-1.95l.17 3.895c.17 3.87 1.21 6.92 3.09 9.067 1.41 1.604 4.03 3.52 8.53 3.52 3.78 0 6.76-1.16 8.87-3.456 1.23-1.34 2.09-3.01 2.58-4.986l.75 8.513 15.93-1.39c3.74-.32 7.27-.63 10.48-3.21.02-.01.03-.02.04-.032l.35 3.96 15.61-1.36-.11-1.31c2.04 1.5 4.44 2.41 7.18 2.69.3.07.61.11.91.11.32.01.64.01.95.01.67 0 1.33-.01 1.96-.05 2.32-.12 4.43-.59 6.28-1.39 1.83-.79 3.42-1.93 4.73-3.36l.51 5.84L-3.4-62.8v2.03h13.6v-.55c1.133.58 2.61.98 4.534.98.615 0 1.28-.02 1.98-.06.66-.04 1.39-.1 2.213-.19l1.63-.17h9.58v-17.08h-1.25l1.307-12.6v-12.66zm-140.375 23.783h.098l.02.223c-.04-.08-.076-.16-.118-.23z"/><path fill="#F1F1F2" d="M28.318-105.032H14.602v1.184H8.32v-2.037H-5.34v15.6c-1.448-5.677-5.386-9.084-10.768-9.084-.374 0-.757.02-1.14.05-2.605.23-4.854 1.26-6.724 3.07-1.4-1.06-3.245-1.89-5.62-1.89-.306 0-.62.02-.935.04-1.406.12-2.697.48-3.872 1.06l-8.53.75-.09-1.73-1.23.09c.08-.43.13-.87.13-1.33 0-4-3.25-7.25-7.25-7.25s-7.25 3.26-7.25 7.26c0 .81.14 1.58.39 2.31l-.13.01-1.98.14-.55.04c.08-.43.13-.87.13-1.33 0-4-3.26-7.25-7.26-7.25-1.21 0-2.34.3-3.35.83l-.3-3.43-15.61 1.37.08.93c-.59-.38-1.23-.71-1.91-.97-1.52-.58-3.23-.85-5.35-.85-1.45 0-2.99.13-4.57.27l-15.05 1.31 1.24 14.17c-.39-.67-.83-1.28-1.34-1.83-1.37-1.47-3.89-3.22-8.08-3.22-2.27 0-4.06.48-5.45 1.16v-9.4h-12.99v1.18h-10.11v7.96H-153v.25c-1.74-.91-3.49-1.17-4.944-1.17-4.025 0-7.36 1.9-9.64 5.48-1.93 3.04-2.926 7.05-2.97 11.93h-1.83V-105h-14.19v42.35h23.325v-.298c1.52.8 3.23 1.22 5.08 1.22 3.38 0 6.2-1.1 8.36-3.26.23-.23.44-.47.65-.72l.18.27c1.04 1.46 3.12 3.21 7.13 3.21.62 0 1.28-.03 1.98-.07.67-.04 1.39-.11 2.22-.19l3.35-.35v-15.08l-2.94.41v-1.82l1.05-.23c1.09-.24 2.1-.63 3.02-1.17.23.91.53 1.73.94 2.48h-1.95l.17 3.89c.17 3.87 1.21 6.92 3.09 9.06 1.41 1.61 4.03 3.52 8.53 3.52 3.78 0 6.76-1.16 8.87-3.456 1.23-1.34 2.09-3.01 2.57-4.99l.75 8.514 15.93-1.396c3.74-.33 7.27-.638 10.48-3.21.02-.01.03-.028.04-.04l.35 3.955 15.61-1.37-.11-1.32c2.03 1.5 4.44 2.41 7.18 2.69.3.06.6.1.91.11.32.01.63.01.95.01.66 0 1.33-.02 1.96-.05 2.32-.12 4.43-.59 6.27-1.4 1.83-.8 3.42-1.93 4.74-3.36l.51 5.83 40.09-3.51v2.03H8.32v-.56c1.132.58 2.607.98 4.532.98.616 0 1.28-.03 1.978-.07.665-.05 1.39-.11 2.218-.19l1.632-.17h9.58V-79.8h-1.25l1.31-12.61-.002-12.66zM-112.058-81.25h.098l.02.223c-.04-.074-.076-.15-.118-.223z"/><path d="M-182.87-66.41v-34.89h6.723v25.627h9.138v9.262h-15.86zm27.31-7.628h5.884c-.426 2.81-1.362 4.938-2.807 6.383-1.445 1.445-3.352 2.168-5.72 2.168-2.653 0-4.76-1.23-6.317-3.684s-2.338-5.76-2.338-9.92c0-4.33.796-7.74 2.388-10.25 1.592-2.5 3.757-3.76 6.495-3.76 2.748 0 4.9 1.36 6.46 4.08 1.557 2.72 2.337 6.5 2.337 11.33v.61l-11.526.02c.03 1.64.29 2.91.782 3.8.493.89 1.18 1.34 2.06 1.34.598 0 1.095-.19 1.493-.56.4-.37.67-.91.81-1.6zm-5.144-8.148h5.472c-.066-1.596-.332-2.792-.796-3.59-.464-.796-1.132-1.195-2.004-1.195-.805 0-1.443.42-1.912 1.26-.47.84-.722 2.01-.76 3.51zm19.692 6.23c0 .868.15 1.48.455 1.835.304.35.843.53 1.62.53.228 0 .4-.01.52-.02.118-.01.234-.02.348-.04v7.41c-.75.08-1.44.14-2.06.18-.62.04-1.2.06-1.74.06-1.95 0-3.31-.55-4.08-1.64-.77-1.09-1.16-3-1.16-5.73v-12.91h-2.17v-5.9h2.18v-7.96h6.11v7.96h2.89v5.9h-2.9v10.3zm9.53-25.344v8.976c0 2.543-.478 4.604-1.435 6.183-.957 1.57-2.32 2.55-4.093 2.93v-4.08c.862-.32 1.48-.84 1.854-1.57.374-.73.563-1.77.563-3.13h-2.416v-9.34h5.53zm1.16 26.787h5.97c0 1.09.167 1.904.503 2.44.34.537.85.806 1.52.806.65 0 1.14-.182 1.49-.545.35-.363.52-.892.52-1.587 0-1.15-.76-2-2.29-2.55-.13-.05-.23-.08-.31-.12-2.89-1.02-4.77-2.13-5.65-3.31s-1.32-2.92-1.32-5.21c0-2.76.65-4.87 1.94-6.31 1.3-1.44 3.18-2.17 5.67-2.17 2.3 0 4.09.68 5.35 2.04 1.27 1.36 2 3.38 2.19 6.07h-5.53c-.04-.77-.24-1.39-.6-1.84-.35-.45-.8-.68-1.34-.68s-.95.16-1.23.47c-.28.31-.42.75-.42 1.34 0 1.02.7 1.78 2.09 2.27l.84.29c2.81 1.08 4.63 2.22 5.47 3.43.85 1.21 1.27 2.98 1.27 5.32 0 2.96-.69 5.18-2.07 6.68s-3.42 2.25-6.12 2.25c-2.5 0-4.41-.75-5.72-2.25-1.31-1.49-2.03-3.75-2.17-6.77zM-1.61-94.788v-7.366h6.197v7.366H-1.61zm0 28.377v-25.75h6.197v25.74H-1.61zm15.33-9.55c0 .87.15 1.48.454 1.83.303.35.843.53 1.62.53.228 0 .4-.01.52-.01.117-.01.233-.02.348-.04v7.41c-.758.08-1.447.14-2.068.18-.62.04-1.2.06-1.74.06-1.952 0-3.314-.55-4.086-1.64-.772-1.09-1.16-3-1.16-5.73v-12.91H5.435v-5.9H7.61v-7.96h6.11v7.95h2.886v5.9H13.72v10.3zm6.033-2.92l-1.42-13.69v-8.74h6.253v8.74l-1.422 13.69h-3.41zM18.39-66.41v-9.618h6.14v9.617h-6.14z" fill="#7F8080"/><path fill="#00ADEE" d="M-110.077-102.53l10.404-.91c.307-.028.614-.054.92-.08 3.38-.296 6.07-.48 8.272.358 2.92 1.137 4.72 4.023 5.09 8.272.29 3.326-.6 5.933-2.69 7.714 3.08 1.176 4.67 3.82 5.05 8.226.38 4.4-.75 7.8-3.17 9.762-2.32 1.854-5.08 2.095-8.46 2.39l-12.21 1.068-3.23-36.804zm13.533 13.62c2.265-.2 3.277-1.01 3.062-3.467-.255-2.917-1.583-3.06-4.808-2.777l-2.457.214.555 6.348 3.648-.32zm1.644 13.47c2.61-.23 3.685-1.2 3.46-3.76-.224-2.56-1.524-3.27-4.134-3.042l-4.03.353.594 6.81 4.11-.36zm11.62-27.777l8.178-.714 3.22 36.8-8.176.71-3.22-36.81zm38.86 10.793l7.372-.645.35 4c1.52-3.38 3.617-5.06 6.497-5.31 2.68-.23 4.65 1.04 6.47 4.18 1.67-3.39 3.8-5.13 6.8-5.39 4.8-.42 7.87 2.82 8.39 8.76l1.62 18.53-7.99.7-1.27-14.54c-.29-3.32-1.2-4.79-3.15-4.62-2 .18-2.74 1.84-2.45 5.22l1.26 14.44-7.95.7-1.24-14.18c-.32-3.63-1.23-5.15-3.3-4.97-1.81.16-2.62 1.88-2.35 5.06l1.27 14.59-7.99.7-2.38-27.18z"/><g fill="#00ADEE"><circle cx="-68.064" cy="-98.11" r="3.526"/><circle cx="-51.387" cy="-99.278" r="3.526"/><path d="M-45.792-79.586l-.76-14.46-7.91.554.74 13.16v-.004c.026.512.04.99.04 1.44 0 .733-.037 1.38-.105 1.934-.11.873-.34 1.548-.653 2.04-.317.493-.726.845-1.28 1.1-.392.177-.88.312-1.457.395-.06-.008-.124-.014-.193-.014h-.13.003c-.28.02-.546.03-.795.03-.592 0-1.096-.07-1.515-.19-.586-.18-1.038-.47-1.422-.91-.38-.45-.7-1.08-.93-1.93-.23-.87-.41-1.99-.53-3.34l-1.09-13.08-7.91.55 1.26 14.37c.18 2.04.59 3.85 1.26 5.4.66 1.56 1.58 2.86 2.74 3.89 1.71 1.51 3.86 2.37 6.35 2.58.09.03.19.06.31.06.3 0 .59.01.88.01.6 0 1.19-.02 1.77-.05 1.86-.1 3.53-.46 4.98-1.09 1.46-.63 2.71-1.54 3.71-2.72.91-1.06 1.59-2.32 2.03-3.75.45-1.43.67-3.03.67-4.8 0-.4-.01-.8-.03-1.22z"/></g></svg>