<svg xmlns="http://www.w3.org/2000/svg" width="250" height="250" viewBox="0 0 250 250"><path opacity=".15" d="M173.13 74.248c0-24.068-26.786-43.58-59.83-43.58-33.04 0-59.828 19.512-59.828 43.58 0 6.1 1.724 11.906 4.83 17.177l19.01 37.536-2.417-21.3c1.723 1.06 3.53 2.04 5.41 2.94-.83 2.5-.74 6.13 2.776 10.83l-.04.27c-8.31 23.86-9.28 42.02-2.87 54 3.53 6.6 9.37 11.31 16.96 13.73 2.27 9.25-2.82 13.78-3.98 14.68-2.26.89-4.73 2.24-5.17 4.76-.24 1.43.28 2.88 1.37 3.79l.66.55 22.6 5.09c1.52 1.63 3.09 2.02 4.22 2.02.83 0 1.58-.19 2.25-.51.68.34 1.46.58 2.33.58.78 0 1.48-.18 2.1-.48.31.06.63.09.96.09 2.36 0 4.26-1.53 4.78-2l.98-.87.18-1.29c.27-2.04-.32-3.97-1.73-5.57-.59-.68-1.34-1.28-2.21-1.83l8.3 1.87c1.39 1.44 2.83 1.78 3.88 1.78.69 0 1.33-.15 1.91-.39.59.26 1.26.43 2 .43.7 0 1.32-.14 1.88-.39.24.04.49.06.74.06 2.2 0 3.95-1.41 4.43-1.84l.97-.87.18-1.29c.25-1.89-.3-3.68-1.6-5.17-3.28-3.76-11.67-5.01-19.37-5.31.59-3.98-.55-8.95-3.42-14.85.47-.82.86-1.67 1.14-2.54 3.31-.56 6.06-1.26 7.82-1.77-.05 1.58.09 3.03.56 4.49.75 2.33 2.8 3.83 5.23 3.83 2.49 0 4.67-1.64 5.3-3.99.18-.67.3-1.34.36-2.03.97.97 2.3 1.54 3.77 1.54 2.47 0 4.64-1.62 5.26-3.94.76-2.85.44-5.41.02-8.66-.02-.12-.03-.24-.05-.36.03-.04.89-2.4.59-3.55l-.01-.06c.11-1.53-1.26-4.84-1.27-4.86l-.03-1.52c.57-.55 1.37-1.41 1.94-2.84.25-.61.76-1.88.34-7.46-.4-5.46-2.33-8.3-2.33-8.3h-6.77c-1.07 0 1.44-5.04 2.36-9.89.27-1.3.41-2.61.41-3.9 0-.09 0-.17-.01-.27.01-.09.01-.19.01-.28 0-2.98-.55-5.89-1.63-8.7.95-2.21 2.02-5.8.54-8.57 14.15-7.97 23.27-20.46 23.27-34.5z"/><path fill="#F69C95" d="M155.283 145.662c-.408-5.464-2.336-8.3-2.336-8.3h-6.764c-1.078 0 1.438-5.04 2.352-9.894.275-1.298.416-2.61.416-3.902v-.268c.01-.094.01-.187.01-.282 0-2.975-.54-5.894-1.62-8.7.98-2.264 2.09-5.982.43-8.788-.63-1.07-2.19-2.867-5.56-2.867-.92 0-1.92.14-3.04.4-6.4-5.41-15.15-8.48-24.35-8.48-8.98 0-17.57 2.94-23.93 8.13-1.57-.5-3.04-.75-4.4-.75-4.67 0-7.05 2.88-7.8 4.76-1.15 2.49-1.52 6.43 2.43 11.71l-.05.27c-1.34 3.84-2.46 7.52-3.42 11.06-1.17-1.08-2.53-1.71-4.14-1.71-1.49 0-3.01.57-4.5 1.68l-.2.15-.16.18c-.45.49-10.95 12.15-6.53 41.9.11 1.05 1.17 9.78 7.02 15.26 3.12 2.92 6.98 4.4 11.49 4.4 4.33 0 9.26-1.41 14.73-4.22 1.7 8.6-3.05 12.86-4.18 13.73-2.26.89-4.73 2.24-5.16 4.76-.24 1.43.28 2.88 1.37 3.79l.66.55 22.6 5.09c1.52 1.64 3.09 2.02 4.22 2.02.83 0 1.58-.19 2.25-.51.68.34 1.47.57 2.33.57.79 0 1.49-.18 2.1-.49.31.06.64.08.97.08 2.36 0 4.26-1.53 4.78-2l.98-.87.18-1.29c.27-2.04-.32-3.97-1.72-5.57-.59-.68-1.34-1.28-2.21-1.83l8.31 1.87c1.38 1.44 2.82 1.77 3.88 1.77.7 0 1.34-.14 1.92-.39.59.27 1.26.44 2 .44.7 0 1.32-.15 1.88-.4.24.04.49.06.74.06 2.19 0 3.94-1.41 4.43-1.85l.97-.87.18-1.29c.25-1.89-.3-3.68-1.6-5.17-3.29-3.75-11.67-5.01-19.38-5.31.6-3.98-.55-8.95-3.42-14.86.47-.82.86-1.67 1.15-2.54 3.31-.56 6.06-1.26 7.82-1.77-.04 1.58.1 3.03.57 4.5.74 2.33 2.8 3.83 5.23 3.83 2.49 0 4.67-1.64 5.3-3.99.19-.67.3-1.34.37-2.03.97.96 2.3 1.53 3.77 1.53 2.48 0 4.64-1.62 5.27-3.94.77-2.85.44-5.41.02-8.65l-.04-.36c.03-.04.89-2.4.59-3.55l-.02-.06c.11-1.53-1.26-4.83-1.27-4.86-.01-.5-.03-1.01-.03-1.52.56-.55 1.36-1.41 1.94-2.83.24-.61.76-1.88.34-7.46z"/><path fill="#CA6070" d="M56.302 88.426l19.01 37.535-4.48-39.45"/><path fill="#FFF" d="M70.587 131.89c10.13-7.56 11.083 24.943 11.083 24.943-.026.04-.05.07-.075.108-4.297 6.33-6.845 1.56-7.422.24-.083-.19-.127-.31-.127-.31.706-10.88.475-16.08-.117-18.27-1.08-3.98-3.35 2.01-3.35 2.01-2.14 10.52-2.88 18.6-2.61 24.75 1.14 26.71 21.33 16.88 29.43 11.83 2.04-1.27 3.32-2.25 3.32-2.25s1.11-.67 2.81-1.65l1.77 4.5-.23.17c-18.64 13.95-28.72 12.35-34.14 7.27-5.41-5.07-6.18-13.6-6.18-13.6-4.31-28.84 5.82-39.71 5.82-39.71z"/><path fill="#D0D2D3" d="M79.094 138.76s-6.174 11.198-1.217 21.053 4.957-16.503 4.957-16.503l-3.74-4.55z"/><ellipse fill="#F69C95" cx="111.302" cy="71.248" rx="59.829" ry="43.579"/><path fill="#FFF" d="M114.933 144.98s.652 24.374 28.784 16.48c0 0 2.443-1.528 7.115-.737 0 0 .705 2.133-2.262 1.36 0 0-2.31.716 1.73.464 0 0 1.02.577.47 1.483 0 0-.478.92-2.753.15 0 0-1.148.68-4.096-.05 0 0-30.91 9.504-32.86-15.26 0 0-1.68-5.084 3.88-3.89z"/><path fill="#D0D2D3" d="M135.82 166.774s2.654-5.725 5.664-1.894"/><path fill="#BBBDBF" d="M142.06 168.533l-1.44-.828v1.933"/><path fill="#D0D2D3" d="M118.58 163s-4.814-7.866-5.785-14.644l-5.526 3.105 1.61 10.89 4.49 2.26 5.2-1.6zm24.865-48.79s6.066-11.038-5.2-7.203c-11.265 3.832 5.2 7.204 5.2 7.204z"/><path fill="#919496" d="M141.32 111.165s5.4-5.452 1.518 1.847c-3.883 7.296-1.518-1.847-1.518-1.847zm-50.695-2.06l-3.16 6.915s-9.72-12.092 3.16-6.916z"/><path fill="#FFF" d="M100.476 152.494s31.985 34.057 21.956 45.207c0 0 23.74-.53 22.785 6.55 0 0-2.375 2.13-3.436 0 0 0-.71 3.01-3.36-.17 0 0-1.59 3.19-3.71 0l-19.64-4.42s-1.06-.88 2.75-2.3c0 0 7.18-1.87-2.13-18.33-9.31-16.46-15.19-26.52-15.19-26.52z"/><path fill="#FFF" d="M84.463 119.59c2.054-12.13 14.845-21.476 30.33-21.476 16.91 0 30.624 11.15 30.624 24.904s-13.713 24.904-30.625 24.904c-.637 0-1.266-.02-1.892-.052-.68 2.955-1.243 7.54.805 10.317 0 0 14.047 10.503 6.88 20.48.008-.072 1.844-17.486-11.56-20.585l2.43-10.97s-5.062-1.19-10.978-3.804v13.738s14.14 16.515 6.134 27.696c-14-.424-42.19-7.92-22.14-65.153z"/><path fill="#D0D2D3" d="M100.476 157.048V143.31c5.916 2.613 10.98 3.804 10.98 3.804l-2.433 10.97c13.404 3.1 11.568 20.513 11.56 20.586-1.398 1.947-2.1 2.607-5.378 4.433 0 0-4.42 1.77-8.596 1.643 8-11.183-6.14-27.698-6.14-27.698z"/><ellipse fill="#D0D2D3" cx="119.39" cy="123.567" rx="26.026" ry="19.743"/><path fill="#D0D2D3" d="M93.502 107.688s.298 2.556-2.082 2.914c0 0-11.655-3.806-3.15 6.42 0 0 .952 1.547-1.01 2.916 0 0-7.852-6.72-5.353-11.834 0 0 1.902-5.59 11.595-.416z"/><ellipse fill="#FFF" cx="132.682" cy="119.132" rx="10.174" ry="10.026"/><ellipse fill="#FFF" cx="109.024" cy="119.357" rx="12.558" ry="12.475"/><path fill="#FFF" d="M99.198 175.055s10.745 16.56-.982 29.6c0 0 27.763-.62 26.645 7.658 0 0-2.77 2.484-4.01 0 0 0-.83 3.52-3.93-.208 0 0-1.86 3.727-4.34 0L89.6 206.93s-1.237-1.034 3.21-2.69c0 0 12.972-8.28 2.087-27.528-10.883-19.25 4.31-1.657 4.31-1.657z"/><path fill="#CCC" d="M138.336 203.722s-.676-2.736-5.59-1.967c0 0 4.865-1.552 5.59 1.967z"/><path fill="#D0D2D3" d="M141.697 203.722s.21-3.424-3.36-2.308c0 0 2.74-.538 3.36 2.308zm-24.784 7.554s-.782-3.828-6.084-1.758c0 0 5.77-3.313 6.08 1.758zm3.76 0s-.283-3.383-2.313-2.276c0 0 1.522-.415 2.313 2.276zm-13.72-43.646s-7.416-4.322-13.227-21.19l-5.496 1.917s-2.797 24.388 20.563 25.352l-1.84-6.08zm10.54-37.306s-5.453-3.703-3.687 2.273"/><path fill="#6C6F71" d="M123.438 129.99s.534.923-.93 1.977c0 0-5.422 2.146-6.446-1.27l-1.536.83h1.137s1.427 3.82 7.544.858c0 0 4.256 2.942 3.55-1.053 0 0-.02 2.943-3.098.77 0 0 1.13-2.45-.23-2.11z"/><path fill="#1D8FCD" d="M126.756 128.664s-2.262-4.605-3.097-2.173c0 0-1.88-2.73-1.88 1.66 0 0 1.77 1.21 1.87 2.68 0 0 1.83-.73 3.1-2.16z"/><path fill="#FFF" d="M124.163 130.71s-.114-.622-.99-1.243c0 0 .325-1.19.99 1.242z"/><path fill="#D0D2D3" d="M124.893 141.43c-1.122 2.264-.73 3.922-.73 3.922-9.552 6.313-9.637-3.923-9.637-3.923"/><path fill="#BE1E2D" d="M115.87 131.21s1.727 3.788 7.303.842c0 0 1.662 1.375 2.59 1.12 0 0-3.702 6.974-2.672 11.598 0 0-9.66 8.285-7.22-13.56z"/><path fill="#6C6F71" d="M114.625 142.54s.848 5.816 6.422 4.158l2.883-1.315s-.316-3.82 1.284-4.577c0 0-1.7 2.704-.942 4.767 0 0-4.88 3.473-8.266.693 0 0-1.28-2.16-1.38-3.725z"/><path fill="#EF4B4D" d="M115.49 138.45s2.25-.424 4.43 2.355c0 0-.06-.548-1.34-1.852 0 0 5.39.186 3.002 4.287 0 0-2.09 2.195-5.46-1.594l-.35-.053c0 .002-.272-2.34-.283-3.142z"/><linearGradient id="a" gradientUnits="userSpaceOnUse" x1="217.094" y1="-231.365" x2="222.522" y2="-254.382" gradientTransform="matrix(1 0 0 -1 -70.14 -82.33)"><stop offset="0" stop-color="#7B7C7C"/><stop offset=".613" stop-color="#909090"/><stop offset="1" stop-color="#7E7E7E"/></linearGradient><path fill="url(#a)" d="M147.693 155.328c0 11.046-2.133 14.21-.924 18.72.5 1.884 3.14 1.64 3.58 0 1.11-4.164-.89-7.995-.89-18.82 0-1.48 1.42-1.52 2.19-3.43.69-1.708-.29-10.9-.6-10.9-.36 0-.19 7.96-.86 7.96-.69 0-.34-7.854-.77-7.96s-.12 7.96-.92 7.96c-.81 0-.29-7.96-.72-7.96s-.31 7.96-.97 7.96c-.73 0-.34-7.96-.66-7.96-.55 0-1.2 8.645-.86 10.47.34 1.827 2.36 2.173 2.36 3.96z"/><linearGradient id="b" gradientUnits="userSpaceOnUse" x1="219.075" y1="-232.92" x2="219.73" y2="-234.824" gradientTransform="matrix(1 0 0 -1 -70.02 -81.58)"><stop offset="0" stop-color="#838383"/><stop offset="1" stop-color="#C9C9CA"/></linearGradient><path opacity=".3" fill="url(#b)" d="M151.256 151.707c-.148.532-.62.854-.938 1.264-.41.36-.822.8-1.402.77-.533.01-1.033-.23-1.537-.4-.52-.29-.89-.82-1.12-1.37.03-.41.43.38.74.23.34-.08.74.13 1.02-.17.21-.38.74.26.89-.29.24-.31.71-.21.96-.51.37-.33.66-.81 1.17-.95.24-.12.54-.74.5-.15.11.5-.15 1.13-.32 1.61z"/><linearGradient id="c" gradientUnits="userSpaceOnUse" x1="145.743" y1="-256.536" x2="148.812" y2="-261.91" gradientTransform="matrix(1 0 0 -1 4.67 -83.12)"><stop offset="0" stop-color="#858485"/><stop offset="1" stop-color="#343433"/></linearGradient><path opacity=".3" fill="url(#c)" d="M147.014 173.642c.217.978 1.133 1.664 2.078 1.22 1.05-.493 1.2-2.126 1.205-3.012.014-1.57-.15-2.73-.338-4.265-.06-.478-.16-1.366-.25-1.805-.01 1.238.19 2.438-.05 3.67-.34 1.156.04 3.27-1.07 4.046-.55.385-1.53-.376-1.59.146z"/><linearGradient id="d" gradientUnits="userSpaceOnUse" x1="206.404" y1="-227.413" x2="213.129" y2="-257.49" gradientTransform="matrix(1 0 0 -1 -70.14 -82.33)"><stop offset="0" stop-color="#7B7C7C"/><stop offset=".667" stop-color="#999"/><stop offset="1" stop-color="#7E7E7E"/></linearGradient><path fill="url(#d)" d="M138.184 158.196c0 11.533-2.27 16.223-.965 20.294.62 1.94 3.28 1.71 3.74 0 1.05-3.943-.92-8.993-.92-20.294 0-1.315 4.02-1.09 4.02-5.586 0-5.626-2.57-9.352-5.01-9.352-2.28 0-4.76 4.084-4.76 9.352 0 4.223 3.88 4.502 3.88 5.586z"/><radialGradient id="e" cx="-107.318" cy="48.548" r="4.505" gradientTransform="matrix(-.44 -1.88 -1.07 .25 145.37 -61.26)" gradientUnits="userSpaceOnUse"><stop offset="0" stop-color="#858485"/><stop offset="1" stop-color="#343433"/></radialGradient><path opacity=".3" fill="url(#e)" d="M139.195 143.54c-2.785 0-5.602 6.737-4.05 10.993 1.034 2.848 6.562 2.833 7.895.38 2.032-3.736-.907-11.374-3.845-11.374z"/><linearGradient id="f" gradientUnits="userSpaceOnUse" x1="207.537" y1="-234.028" x2="211.468" y2="-235.742" gradientTransform="matrix(1 0 0 -1 -70.14 -82.33)"><stop offset="0" stop-color="#5C5D5D"/><stop offset="1" stop-color="#737373"/></linearGradient><path opacity=".3" fill="url(#f)" d="M143.62 151.61c-.353.616-.868 1.12-1.353 1.63-.883.87-1.906 1.66-3.11 2.01-.827.19-1.685.112-2.503-.05-.514-.117-1.014-.312-1.463-.593-.26-.657-.41-1.355-.45-2.06.41-.173.67.782 1.08.813.75.127 1.49.393 2.19.693.5.162 1.18-.34 1.76-.7.66-.138 1.28-.453 1.82-.85.66-.558 1.22-1.218 1.77-1.877.11-.13.25-.293.23-.014.03.31.1.84.04.998z"/><linearGradient id="g" gradientUnits="userSpaceOnUse" x1="56.065" y1="-260.852" x2="59.268" y2="-266.462" gradientTransform="matrix(1 0 0 -1 83.67 -83.12)"><stop offset="0" stop-color="#858485"/><stop offset="1" stop-color="#343433"/></linearGradient><path opacity=".3" fill="url(#g)" d="M137.55 178.066c.226 1.02 1.18 1.74 2.17 1.273 1.095-.52 1.25-2.22 1.257-3.15.014-1.64-.158-2.85-.352-4.46-.063-.5-.162-1.43-.262-1.89-.002 1.29.2 2.54-.043 3.83-.355 1.2.04 3.41-1.11 4.22-.57.4-1.597-.4-1.66.15z"/><path fill="#FFF" d="M93.726 146.44s2.127 33.204 40.088 21.01c0 0 3.248-2.013 7.984-3.158 0 0 2.145 2.482-2.424 3.71 0 0-.137.855 2.686.53 0 0 .504.916-.01 2.27 0 0-.266.94-3.156.183 0 0-.84.748-4.666.1 0 0-41.68 14.527-45.587-19.142 0 0-2.55-6.852 5.09-5.503zm53.57 15.112s1.095 1.6 3.536-.19l-.316-.565-2.88-.57-.34 1.325z"/><path fill="#BEBABD" d="M146.268 162.06s1.35.668 2.303-1.326c0 0 .64 1.112 1.73 1.028 0 0 .19-6.27-4.88-.312"/><path fill="#FFF" d="M146.268 161.56s1.35.668 2.303-1.326c0 0 .64 1.112 1.73 1.028 0 0 .19-6.27-4.88-.312"/><path fill="#FFF" d="M146.87 160.8s-.007.026-.015.075c-.076.344-.41 1.744-1.018 2.112-.695.42-1.094-1.27-1.01-1.32.084-.048.963-1.146.963-1.146m4.58 2.08s-1.312-.78-2.597-.11c0 0-.402 1.75 2.598 1.01m-.75-3.26s1.22 0 1.27.75M94.87 58.57c-.195.194-.39.438-.632.63-1.358 1.552-2.812 3.055-4.558 4.268-1.988 1.455-4.364 2.327-6.885 2.327-2.326 0-4.702-.678-6.108-2.666-1.31-1.9-1.503-4.32-1.31-6.55.243-2.28.872-4.56 1.794-6.69.97-2.28 2.23-4.46 3.74-6.45 1.46-1.84 3.2-3.59 5.19-4.85.92-.58 1.89-1.07 2.96-1.36 1.12-.39 2.38-.58 3.54-.2 1.51.48 2.28 1.94 2.38 3.49.2 2.18-.73 4.6-2.23 6.2-.34.44-2.28 2.18-2.71 1.11-.24-.68.68-.83 1.07-1.07.44-.34.83-.68 1.17-1.11.73-.87 1.21-1.99 1.46-3.1.24-.97.34-2.09-.05-3.11-.92-2.33-3.78-1.51-5.53-.73-2.08.92-3.88 2.47-5.38 4.17-1.65 1.89-3 3.97-4.07 6.25-1.02 2.08-1.79 4.36-2.13 6.74-.24 1.94-.24 4.12.63 5.91.49.97 1.26 1.74 2.23 2.23 1.17.58 2.62.72 3.93.68 2.47-.15 4.75-1.26 6.64-2.82 1.5-1.21 2.81-2.67 4.07-4.12.49-.49 1.31.24.83.77z"/><path fill="#FFF" d="M111.655 58.33c-.05.242-.535.823-.73 1.065-.483.63-.872 1.02-1.552 1.794-1.162 1.35-2.715 3.15-4.266 3.73-1.453.53-2.326-.78-2.132-2.14.29-1.75 1.162-3.35 1.842-4.95.533-1.26 2.666-5.58-.34-5.04-.922.14-1.648.72-2.328 1.31-1.07.92-2.04 1.94-2.91 3-1.12 1.4-2.09 2.91-2.91 4.46-.49.92-.88 1.89-1.26 2.86-.2.53-.29 1.11-.88.87-.49-.2-.29-.83-.1-1.26.29-.83.63-1.65.97-2.48l2.32-5.92-2.48 2.81c-.54.63-1.36-.1-.83-.68.92-1.07 1.84-2.13 2.81-3.2.39-.49.82-.97 1.26-1.46.53-.63.82-1.36 1.16-2.14 1.01-2.47 2.08-4.94 3.2-7.37l1.69-3.39c.63-1.12 1.31-2.33 2.42-2.91 1.31-.73 2.71 0 2.81 1.5.1 1.41-.83 2.76-1.5 3.93-1.51 2.43-3.35 4.66-5.24 6.84l-2.48 2.81c-1.12 1.26-1.56 2.96-2.18 4.46 1.21-1.5 2.52-3.01 4.07-4.12 1.11-.82 2.76-1.55 4.07-.78 2.23 1.36.14 4.99-.58 6.74-.44.97-.88 1.89-1.21 2.86-.2.58-.54 1.36-.39 1.99.24.97 1.74-.25 2.08-.54 1.74-1.46 3.15-3.35 4.6-5.09.34-.39.92-.15.92.39zm-7.76-14.934c-1.065 2.132-1.986 4.363-2.956 6.544 2.18-2.473 4.36-4.945 6.1-7.806.53-.873 1.35-1.988 1.35-3.103 0-.53-.34-1.06-.92-.87-.68.2-1.22.87-1.6 1.46-.78 1.17-1.41 2.47-1.99 3.78z"/><path fill="#FFF" d="M125.455 59.2l-1.31 1.31c-.728.63-1.552 1.26-2.474 1.552-.53.145-1.11.242-1.69.145-.29-.048-.58-.096-.87-.193-.14-.048-.29-.098-.43-.194l-.43.437c-1.02 1.067-2.28 2.037-3.73 2.375-1.36.292-2.76-.145-3.44-1.406-.53-1.02-.53-2.28-.34-3.393.44-2.376 1.75-4.607 3.4-6.352.49-.48 1.02-.96 1.55-1.4.25-.14.59-.48.88-.48.34.05.53.29.53.59-.05.39-.39.53-.63.73-.29.2-.53.39-.77.63-.53.44-1.01.92-1.45 1.46-.77 1.02-1.45 2.09-1.89 3.3-.39.97-.68 1.99-.63 3.06.05 1.26.78 2.48 2.18 2.28 1.51-.19 2.86-1.31 3.83-2.37-1.69-1.55-1.4-4.41-.77-6.45.34-1.06.87-2.32 1.84-3 1.02-.73 2.33-.58 2.91.54.73 1.31.54 3.11.05 4.46-.48 1.51-1.36 2.96-2.33 4.17 1.02.39 2.04.15 2.96-.43.58-.38 1.17-.87 1.65-1.4l1.02-1.06c.2-.29.54-.53.88-.24.53.49-.15 1.07-.44 1.41zm-5.724-.726c.83-1.357 1.46-2.91 1.32-4.557-.05-.485-.14-1.163-.63-1.455-.43-.194-.97.146-1.26.436-.92.97-1.35 2.424-1.55 3.685-.19 1.26-.14 2.862.83 3.83.49-.63.92-1.26 1.31-1.94z"/><path fill="#FFF" d="M149.656 58.134c.05.438-.436.73-.678.97-.68.63-1.357 1.213-2.182 1.648-.68.437-1.553.728-2.377.534-.88-.195-1.51-.776-1.7-1.65-.78 1.262-1.65 2.425-2.72 3.443-.83.82-1.9 1.55-3.11 1.74-.58.1-1.21.1-1.75-.2-.54-.25-.88-.78-1.02-1.41-.29-1.46.24-3.01.73-4.37-1.21 1.65-2.52 3.25-4.12 4.56-.88.73-1.94 1.5-3.15 1.5-.98 0-1.7-.58-1.8-1.55-.15-.97.19-1.94.48-2.86.48-1.41 1.01-2.77 1.64-4.17l-1.11 1.35-.63.68c-.15.19-.29.38-.58.38-.24-.05-.44-.2-.49-.44-.05-.29.09-.49.24-.63l1.16-1.36c1.07-1.26 2.09-2.52 2.96-3.88.24-.34.48-.88.97-.73.34.15.44.48.29.82l-.87 2.04c-.78 1.84-1.6 3.63-2.33 5.52-.2.58-.39 1.16-.54 1.75-.1.43-.2.87-.15 1.31.05.38.19.63.53.63.34.04.68-.05 1.02-.15.73-.29 1.36-.82 1.99-1.36.77-.68 1.45-1.46 2.13-2.28 1.45-1.75 2.71-3.59 3.93-5.53.48-.73.97-1.5 1.4-2.28.09-.19.19-.39.34-.53.24-.15.58-.1.77.15.19.24.05.53-.1.82-.15.19-.3.44-.39.68-1.22 2.23-2.28 4.51-2.96 6.93-.25.82-.49 1.74-.34 2.61.04.34.19.72.58.82.48.14 1.11.05 1.55-.15 1.16-.44 2.13-1.36 2.9-2.33.92-1.11 1.74-2.42 2.47-3.73.19-.34.38-.68.53-1.02l.48-1.12 1.06-2.04c.15-.34.29-.73.48-1.07.05-.15.09-.3.24-.44.19-.2.58-.15.77.05.29.34 0 .78-.15 1.11-.2.39-.34.82-.58 1.21l-1.02 2.13c-.34.68-.64 1.41-.78 2.18-.1.44-.1.97.19 1.31.29.39.82.48 1.26.39.63-.1 1.16-.44 1.65-.83.68-.48 1.26-1.02 1.89-1.6.29-.29.87-.09.87.34zM100.17 68.396c-.486.34-1.165.533-1.747.727-1.31.34-2.666.437-4.024.387-.83 0-.63-.047-1.46-.144-.2 0-.44-.05-.68-.05-.15-.046-.2-.046-.29.05-.1.097-.2.29-.29.436-.63 1.115-1.12 2.424-1.65 3.636-.44 1.164-.92 2.278-1.41 3.442l-3.25 7.806-2.62 6.206-1.36 3.2c-.2.437-.78.485-.97.097-.15-.2-.1-.39 0-.63l.58-1.31 3.05-7.28 3.2-7.71 1.11-2.67 1.12-2.62c.39-.97.77-1.99 1.35-2.91L86 68.33c-1.357-.19-2.81-.34-4.217-.19-1.07.05-2.28.34-3.01 1.21-.53.63-.68 1.6-.097 2.28.193.24.436.434.73.58.29.1.63.145.73.484.05.29-.148.63-.486.68-.242.045-.63-.15-.874-.295-1.065-.49-1.695-1.6-1.55-2.81.096-.87.63-1.65 1.31-2.18 1.02-.83 2.375-1.02 3.684-1.07 3.297-.15 6.545.67 9.794 1.11 1.55.24 2.13.34 3.68.29 1.31-.1 2.67-.29 3.83-.97.58-.34 1.165.48.63.92zm-1.052 20.217l-.873.97c-.824.97-1.648 1.94-2.57 2.86-.678.68-1.405 1.357-2.23 1.842-.58.34-1.406.728-2.035.388-.484-.242-.68-.825-.728-1.31-.146-1.065.194-2.132.533-3.102.532-1.5 1.163-2.9 1.843-4.36l-2.182 2.57c-.1.15-.243.2-.34.24l-.63.73-3.25 3.83-.872 1.07c-.29.34-.873.25-.97-.24-.05-.24.048-.38.193-.58 1.697-1.94 3.345-3.92 4.995-5.86.097-.14.242-.24.388-.29l.387-.48 3.298-3.78 1.067-1.26c.146-.19.338-.34.58-.29.34.1.534.44.39.73-.05.19-.195.39-.292.58-1.115 2.04-2.133 4.12-3.006 6.31-.39.92-.727 1.84-.97 2.81-.098.39-.145.77-.098 1.16 0 .1 0 .58.194.58.244.05.582-.14.775-.24.438-.24.825-.53 1.165-.82.775-.68 1.455-1.4 2.134-2.13.63-.67 1.26-1.4 1.842-2.13.29-.34.824-1.21 1.357-.77.388.35.1.73-.095 1.02zm-.05-15.563c1.067.582.05 2.52-1.017 1.987-1.06-.582-.04-2.52 1.02-1.987z"/><path fill="#FFF" d="M127.582 88.71c-.582.727-1.162 1.455-1.795 2.18-1.016 1.164-2.132 2.377-3.49 3.152-.824.485-2.23.92-2.958.048-.78-.872-.29-2.28.05-3.2.48-1.503 1.21-2.91 1.79-4.315.24-.63.53-1.26.72-1.94.14-.435.29-.968.24-1.454-.1-1.01-1.46-.58-2.04-.33-1.07.49-1.94 1.26-2.77 2.04-.97.97-1.84 2.04-2.67 3.15-.44.54-.83 1.12-1.21 1.7l-.54.83c-.2.34-.29.68-.44 1.07-.25.68-.54 1.36-.83 1.99-.2.34-.39.78-.68 1.02-.24.19-.63.19-.83 0-.24-.24-.2-.58-.1-.87.14-.48.34-.92.58-1.35l.53-1.02c.19-.33.43-.67.58-1.06.24-.73.48-1.45.68-2.23.39-1.36.73-2.86.63-4.27-.05-.58-.24-1.35-.92-1.35-.29 0-.58.1-.82.2-.73.34-1.36.88-1.89 1.46-1.55 1.55-2.76 3.45-3.93 5.29l-1.6 2.77-.68 1.26c-.15.29-.29.78-.54 1.07-.24.25-.63.25-.87 0-.15-.24-.1-.48 0-.68l.63-1.31c.63-1.35 1.31-2.66 1.89-4.02.43-1.02.87-2.03 1.11-3.15.19-.68.53-1.84-.05-2.42-.24-.24-.54-.14-.78 0-.54.25-.97.63-1.41 1.02-.54.49-.97 1.02-1.46 1.55l-1.7 1.94-.63.73c-.15.19-.29.39-.58.39-.54-.05-.68-.63-.34-.97l.43-.49 1.65-1.94c.92-1.01 1.74-2.08 2.9-2.81.78-.58 1.79-1.02 2.62-.24 1.06.97.63 2.77.29 3.98.82-1.17 1.7-2.28 2.76-3.2.77-.68 1.7-1.41 2.76-1.51 1.16-.05 1.94.78 2.13 1.89.24 1.41-.05 2.86-.34 4.22 1.11-1.5 2.37-3 3.83-4.22.97-.82 2.08-1.6 3.39-1.74.58-.05 1.26 0 1.69.39.39.39.53.92.53 1.41 0 1.5-.72 2.96-1.26 4.27-.58 1.36-1.21 2.67-1.64 4.07-.15.44-.34.97-.24 1.46.05.44.44.44.82.39.92-.19 1.75-.96 2.43-1.6.92-.87 1.74-1.79 2.57-2.76l1.01-1.26c.24-.29.58-.77 1.02-.43.53.44-.05.97-.34 1.31zm12.273.048l-1.162 1.31c-.68.727-1.36 1.405-2.135 2.084-1.55 1.31-3.588 2.667-5.72 2.424-1.02-.146-1.892-.68-2.33-1.65-.48-1.114-.337-2.423-.095-3.586.58-2.424 1.94-4.8 3.78-6.497.776-.728 1.698-1.357 2.718-1.55 1.12-.195 2.43.096 2.82 1.26.49 1.745-1.16 3.248-2.42 4.12-1.11.68-2.28 1.164-3.49 1.552-.38.145-.77.242-1.16.34l-.58.145c-.09 0-.19.048-.29.048-.04 0-.04.194-.09.194-.24.775-.39 1.6-.39 2.424.05.534.15 1.164.54 1.6.34.29.78.485 1.21.485.93.1 1.85-.24 2.67-.63 1.12-.63 2.14-1.45 3.1-2.37.59-.53 1.12-1.16 1.65-1.74l.88-1.06c.2-.24.54-.29.78-.09.44.39 0 .88-.24 1.21zm-7.37-4.702c-.92 1.018-1.647 2.18-2.23 3.442 1.99-.485 4.22-1.26 5.626-2.763.39-.388.73-.873.83-1.407.1-.873-.73-1.066-1.45-.97-1.06.097-2.03.923-2.76 1.698zm8.865 9.164c0 .483-.39.87-.873.87-.533 0-.92-.387-.92-.87 0-.535.387-.922.92-.922.484 0 .873.388.873.92zm9.94-25.99c-.437-.192-.68.195-.825.534l-.436 1.02-1.6 3.684-4.08 9.502-1.31 3.104-.24.533c-.2.437.24.92.67.727.19-.048.29-.194.34-.34l2.76-6.35 3.93-9.26c.29-.63.58-1.262.82-1.892.19-.388.53-1.017-.05-1.26z"/><circle fill="#0071BC" cx="107.769" cy="119.694" r="9.704"/><path fill="#0F4481" d="M108.467 122.138c1.802-2.083 1.575-5.23-.506-7.03-2.08-1.8-5.22-1.575-7.03.508-1.8 2.08-1.57 5.228.51 7.03 2.08 1.8 5.23 1.572 7.03-.508z"/><path fill="#FFF" d="M105.565 120.61c.958-1.108.836-2.78-.27-3.736-1.105-.956-2.778-.838-3.737.268-.957 1.107-.834 2.78.272 3.738 1.107.956 2.777.834 3.735-.27z"/><circle fill="#FFF" cx="109.596" cy="118.19" r="1.29"/><circle fill="#0071BC" cx="131.287" cy="119.745" r="7.755"/><path fill="#0F4481" d="M131.846 121.698c1.44-1.665 1.26-4.18-.404-5.618s-4.177-1.26-5.62.406c-1.437 1.662-1.256 4.178.407 5.617 1.66 1.44 4.17 1.257 5.61-.405z"/><path fill="#FFF" d="M129.526 120.476c.765-.885.668-2.22-.215-2.985-.88-.76-2.22-.67-2.98.22-.76.89-.66 2.22.22 2.99.89.77 2.22.67 2.99-.21z"/><circle fill="#FFF" cx="132.748" cy="118.543" r="1.031"/></svg>