<svg xmlns="http://www.w3.org/2000/svg" width="250" height="250" viewBox="0 0 250 250"><path opacity=".15" d="M189.18 50.93c0-4.532-2.562-8.477-6.354-10.568-1.26-6.067-6.632-10.4-12.683-9.907L72.865 38.38c-4.5.364-8.202 3.302-9.914 7.33-.77 1.585-1.22 3.35-1.22 5.22v157.923c0 6.71 5.62 12.155 12.54 12.155h102.38c3.3 0 6.29-1.243 8.53-3.26l.23.02c-.02-.064-.03-.123-.04-.184 2.36-2.21 3.83-5.303 3.83-8.73V50.93z"/><path fill="#D0D2D3" d="M186.628 48.378c0-4.533-2.563-8.477-6.354-10.568-1.262-6.068-6.633-10.4-12.684-9.907l-97.278 7.923c-4.5.366-8.202 3.303-9.914 7.332-.778 1.583-1.228 3.348-1.228 5.22v157.92c0 6.715 5.614 12.156 12.537 12.156H174.09c3.296 0 6.285-1.242 8.524-3.258l.23.02c-.02-.065-.03-.124-.045-.184 2.35-2.21 3.82-5.303 3.82-8.733V48.37z"/><path fill="#74020D" d="M184.12 206.827c.563 6.9-2.09 5.268-1.276 8.388l-95.617-7.585c-6.578.534-14.027 10.885-14.59 3.98L59.417 49.29c-.562-6.9 4.316-12.93 10.895-13.464l97.278-7.923c6.577-.536 12.365 4.624 12.927 11.525l3.603 167.4z"/><path fill="#FFF" d="M176.807 34.392v15.62l-80.233-7.81-2.812-5.98s76.15-4.076 83.045-1.83z"/><path fill="#A6A8AB" d="M66.903 38.103s94.196-6.27 106.437-5.434l3.467 1.72s-85.25-.68-107.605 4.75l-2.3-1.05z"/><path fill="#B61318" d="M186.628 206.3c0 6.713-5.613 12.154-12.537 12.154H71.71c-6.923 0-12.537-5.44-12.537-12.155V48.37c0-6.713 5.615-12.157 12.538-12.157h102.38c6.93 0 12.54 5.443 12.54 12.157v157.92z"/><path d="M86.044 190.25c.622.238 1.377.194 2.25-.158.98-.396 1.615-.983 1.947-.868.14.048.18.15.09.303-.2.363-2.29 1.354-3.33 2.1-1.05.75-1.57 1.2-2.6 2.066-.43.367-.8.574-1.06.476-.17-.07-.17-.23-.02-.48.12-.19.49-.56.78-1.03 1.11-1.77.35-3.2-2.04-4.23-1.98-.86-5.82-.84-9.41 3.52-1.39 1.69-1.99 3.47-1.75 4.65.31 1.52 1.69 2.43 2.7 2.87 1.91.83 3.45.64 4.33.29.74-.3 1.42-1.01 1.78-1.57.61-.95.95-1.86-.29-2.37-.82-.34-1.54-.45-2.26-.77-.31-.14-.41-.31-.3-.47.11-.15.3-.26.78-.05.79.34 2.08.8 4 1.22 2.12.46 3.06.34 3.63.54.2.07.25.16.2.25-.13.23-.53.13-1.1.2-.57.06-1.02.36-1.53 1.21-.53.89-1.11 2.23-1.3 2.75-.13.36-.27.75-.37.92-.08.13-.2.2-.32.16-.36-.13-.67-.92-1.4-1.2-1.43-.55-3.46.73-7.7-1.18-4-1.81-5.3-5.51-2.48-8.66 2.64-2.95 5.99-3.74 8.58-3.73 1.98.01 3.54.48 4.48.88 2.05.88 2.59 1.84 3.78 2.29zm7.69 4.41c2.694.773 4.038 3.024 2.956 5.87-1.28 3.37-4.764 4.037-7.24 3.323-2.958-.853-4.778-3.395-3.243-6.178 1.544-2.8 4.498-3.887 7.528-3.016zm-4.27 3.014c-1.125 2.237-1.442 5.063.75 5.686 1.91.542 3.166-.89 3.77-2.34 1.486-3.58.995-5.576-.57-6.03-1.586-.46-3.04.875-3.95 2.684zm14.98-.52c2.742.49 4.406 2.585 3.792 5.52-.727 3.47-4.03 4.487-6.55 4.033-3.013-.542-5.166-2.874-4.1-5.79 1.07-2.937 3.77-4.317 6.857-3.764zm-3.694 3.43c-.75 2.334-.627 5.16 1.607 5.554 1.943.34 2.946-1.202 3.31-2.704.896-3.703.11-5.632-1.486-5.92-1.61-.292-2.82 1.183-3.43 3.07zm19.24-10.73c-.12 2.11-.36 5.03-.597 7.82-.335 3.93-.647 7.692-.718 8.844-.082 1.318.442 1.632 1.05 1.84.802.274 1.554.14 1.546.434 0 .21-.43.224-.83.214-.54-.013-1.53-.146-2.8-.205-1.24-.05-2.36.14-4.45-.03-2.91-.24-5.04-1.69-4.47-4.56.51-2.54 2.96-3.75 5.55-3.54 1.37.11 2.71.68 2.75.66.64-.37.57-8.61.58-8.85.02-.4.02-.81-.27-.83-.39-.02-1.04.35-1.43.32-.11-.01-.23-.04-.21-.2s.15-.23.4-.34c.33-.14.86-.18 2.08-.87 1.19-.66 1.59-1.22 1.76-1.22.1.01.1.22.08.55zm-3.013 12.09c-.112-.2-1.095-.444-1.907-.505-1.962-.15-3.227 1.02-3.542 2.99-.336 2.1.527 3.61 2.7 3.78.94.07 1.563-.19 1.916-.55.354-.36.472-.88.533-1.57.105-1.19.58-3.66.3-4.16zm21.827-7.54c.722 3.002-3.256 5.12-3.256 5.12.006.02 6.452.11 7.627 4.495 1.027 3.83-1.988 5.8-4.327 6.31-.848.18-1.59.29-2.227.36-1.04.11-1.85.12-2.69.19-3.3.27-5.23 2.19-6.02 2.22-.18 0-.29-.08-.29-.24-.02-.52 1.53-1.08 2.62-1.88.7-.51 1.11-1.13 1.18-2.32.05-.86-.05-2.14-.21-3.69-.08-.82-.18-2.01-.31-3.28-.27-2.63-.69-5.7-1.31-6.86-.55-1.04-1.4-1.39-2.35-1.52-.34-.05-.42-.13-.43-.26s.09-.17.25-.18c.46-.02 1.02.13 2.16.06 2.36-.14 3.3-1.14 5.33-1.37 1.6-.18 3.67.23 4.29 2.8zm-6.55 3.016c.163.84.323 2.43.52 2.566.22.155 1.573-.37 2.17-.713 1.027-.59 1.95-1.69 1.58-3.53-.526-2.627-2.007-3.24-3.513-3.093-.61.06-1.54.258-1.61.396-.21.398.58 2.96.86 4.374zm2.31 10.672c.364 1.3 1.17 2.24 2.847 2.054 2.32-.258 3.69-2.02 2.92-5.4-.74-3.278-3-4.77-5.51-4.508-.78.08-1.82.354-1.89.497-.4.87 1.39 6.45 1.65 7.357zm12.646-11.927c2.724-.62 5.502.567 6.74 3.374 1.463 3.32-.882 5.48-3.386 6.05-2.99.68-6.266-.55-7.094-3.52-.833-2.99.677-5.22 3.74-5.92zm-1.177 4.42c.75 2.333 2.565 4.767 4.78 4.254 1.93-.45 1.89-2.19 1.3-3.65-1.452-3.59-3.33-4.98-4.914-4.62-1.61.36-1.78 2.11-1.17 4zm11.787-7.415c2.662-.903 5.673-.02 7.365 2.635 2.003 3.143-.045 5.542-2.494 6.37-2.92.99-6.42.113-7.72-2.742-1.31-2.874-.14-5.25 2.86-6.264zm-.5 4.507c1.126 2.237 3.34 4.465 5.506 3.722 1.885-.65 1.574-2.38.75-3.76-2.032-3.41-4.152-4.59-5.702-4.07-1.57.53-1.463 2.28-.553 4.09zm12.79 6.25c-.32.125-.48.07-.562-.063-.094-.15.007-.282.277-.388.688-.268 1.076-.537 1.35-.768 1.156-.977.29-2.268-.404-3.28-1.42-2.082-3.92-5.565-5.09-7.206-1.46-2.06-3.81-5.448-4.66-6.414-.8-.916-1.51-.842-2.08-.615-.42.168-.86.456-1.25.604-.31.12-.49.09-.59-.08-.09-.15-.01-.276.12-.366 1.05-.76 1.7-1.29 2.11-2.07.46-.87.25-1.64.52-1.76.15-.06.34.12.45.28.27.39.91 1.38 1.34 1.98 1.33 1.86 8 10.37 8 10.37.19-.04.66-2.13.75-3.38.03-.36-.04-.63-.19-.83-.18-.23-.46-.34-.84-.33-.44.02-.65.02-1.08.03-.18-.01-.31-.05-.39-.16s-.1-.24.08-.32c.3-.14 1.06.08 2.54-.31.56-.14 1.63-.57 2.09-.81.28-.14.49-.17.62-.02.11.12.07.29-.29.48-.69.35-1.27.72-1.6 1.51-.2.5-.62 1.81-.48 2.18.23.57 5.06 4.15 7.59 2.87.77-.39.88-1.13.26-1.83-.53-.6-1.43-.93-2.18-1.06-.29-.05-.6-.04-.65-.11-.04-.05-.02-.09.05-.12.17-.09.67-.09 1.08-.05.87.08 1.97.43 2.83 1.39.61.69 1.39 2.32-.69 3.36-2.79 1.4-6-.12-8.75-2.41-.06.24-.08.36-.14.6 1.36 1.71 3.68 4.29 4.18 4.73.76.67 1.43 1 2.61.46.26-.12.56-.28.84-.41.41-.19.88-.35 1.09-.08.17.21.1.5-.77.9s-1.72.62-3.84 1.54c-1.63.7-3.34 1.69-4.15 2.01z" fill="#FFCC7A"/><path fill="#D0D2D3" d="M128.08 169.836s18.667 3.742 20.947 15.725c0 0 20.085-17.39 24.313-10.61 0 0-.53 3.53-2.96 2.45 0 0 1.53 3.11-3.027 2.25 0 0 .903 3.88-3.2 2.65l-17.17 8.72s-4.465 1.48-2.198-2.46c0 0 4.852-6.73-14.917-14.27l-1.788-4.44z"/><path fill="#929497" d="M167.03 179.4s-2.532-1.874-6.22 2.296c0 0 3.085-4.81 6.22-2.295zm2.9-2.398s-2.266-3.1-4.546.41c0 0 1.978-2.418 4.545-.41z"/><path fill="#FFF" d="M120.416 144.74s13.322 28.27 42.273 4.51c0 0 2.81-3.2-1.94-6.135 0 0 1.87-5.65 4.42 3.975 0 0 .97-2.174 4.71-4.81 0 0 3.39.363-2.16 5.53 0 0-1.23 1.645 3.38-.734 0 0 1.12.997-.91 2.584 0 0-1.91 1.94-5.9 2.62 0 0-31.39 27.083-46.44-.977 0 0-4.6-5.098 2.54-6.562z"/><path fill="#D0D2D3" d="M126.248 152.994s-5.956 5.726-5.73-8.04l-6.182 3.473 1.808 12.18 5.028 2.525 5.076-10.138zm28.566-46.25s6.79-12.35-5.814-8.06c-12.604 4.29 5.814 8.06 5.814 8.06z"/><path fill="#919496" d="M152.44 103.337s6.04-6.1 1.695 2.066c-4.343 8.166-1.696-2.066-1.696-2.066zm-56.725-2.304l-3.537 7.738s-10.876-13.53 3.537-7.73z"/><path fill="#FFF" d="M110.96 182.922l-.562-5.037c10.148-2.74 38.038-9.887.563 5.037zm-22.59-55.905c12.318-4.88 4.396 28.26 4.396 28.26l-.104.09c-2.125.297-5.36.29-7.574-1.79-.032-.217-.043-.35-.043-.35 3.687-10.81 4.876-16.138 4.876-18.513.41-4.532.04-10.125-7.25 4.667 0 0-5.06 10.84-6.08 20.77-6.14 27.34 16.97 22.91 26.54 20.01-4.54 4.08-16.91 12.87-28.96.9-4.09-6.6-2.53-15.45-2.53-15.45 3.53-30.36 16.75-38.58 16.75-38.58z"/><path fill="#CCC" d="M103.122 180.16c1.158-1.04 1.808-1.774 1.808-1.774l5.26-2.362.21 1.86c-1.988.54-3.3.908-3.3.908s-1.558.636-3.978 1.367zm0 0c2.42-.732 3.98-1.368 3.98-1.368s1.31-.37 3.297-.907l.56 5.037-.28.11c-22.67 9.02-32.44 4.643-36.53-1.977 12.05 11.97 24.42 3.18 28.96-.896zM82.67 139.38c7.284-14.79 7.655-9.198 7.25-4.666 0-4.318-3.932 1.12-3.932 1.12-5.033 10.057-7.993 18.026-9.406 24.316 1.023-9.93 6.088-20.77 6.088-20.77zm9.99 15.986c-6.076 5.226-7.35-.3-7.573-1.79 2.214 2.08 5.45 2.087 7.574 1.79z"/><path fill="#FFF" d="M88.818 112.764c2.3-13.572 16.61-24.03 33.937-24.03 18.924 0 34.265 12.477 34.265 27.867s-15.34 27.87-34.265 27.87c-.713 0-1.416-.02-2.117-.06-.757 3.31-1.392 8.44.9 11.55 0 0 15.72 11.76 7.7 22.92.01-.08 2.063-19.57-12.937-23.03l2.73-12.27s-5.66-1.33-12.28-4.25v15.37s15.83 18.48 6.87 30.99c-15.67-.47-47.2-8.86-24.78-72.9z"/><path fill="#D0D2D3" d="M106.736 154.68v-15.374c6.62 2.924 12.287 4.256 12.287 4.256l-2.722 12.274c15 3.465 12.95 22.952 12.94 23.034-1.56 2.18-2.35 2.917-6.02 4.962 0 0-4.94 1.976-9.62 1.835 8.96-12.51-6.86-30.987-6.86-30.987zm-7.956-37.466c0 12.2 13.037 22.092 29.12 22.092 16.084 0 29.12-9.892 29.12-22.092s-13.036-22.09-29.12-22.09c-16.083 0-29.12 9.89-29.12 22.09zm.154-17.766s.333 2.86-2.33 3.26c0 0-13.04-4.258-3.524 7.186 0 0 1.063 1.73-1.132 3.26 0 0-8.784-7.518-5.99-13.24 0 0 2.13-6.254 12.976-.466z"/><ellipse fill="#FFF" cx="142.772" cy="112.252" rx="11.383" ry="11.221"/><ellipse fill="#FFF" cx="116.302" cy="112.505" rx="14.051" ry="13.96"/><path fill="#1D8FCD" d="M136.707 124.05s-2.532-5.153-3.467-2.434c0 0-2.093-3.063-2.093 1.857 0 0 1.984 1.353 2.093 2.992 0 0 2.053-.826 3.467-2.416z"/><path fill="#FFF" d="M133.24 125.206s-.128-.694-1.107-1.39c0 0 .36-1.33 1.107 1.39z"/><path fill="#6C6F71" d="M128.68 137.73s.742-2.25 3.058-2.06c0 0-.617-.676-3.06-1.716 0 0 2.16.204 3.638 1.382 0 0 3.69 2.827 2.127-1.645 0 0 3.35 5.43-2.45 2.39 0 0-1.786.35-3.314 1.65z"/><path fill="#BE1E2D" d="M132.734 129.697s3.153 9.12-1.587 3.212c0 0-1.263-1.79-4.478-2.03 0 0 3.01.89 6.06-1.19z"/><path fill="#6C6F71" d="M132.995 125.552s.427 2.323-1.21 4.146c0 0-6.425 3.503-7.044-2.922l-1.71 1.436h1.27s1.6 6.612 8.44 1.486c0 0 4.76 5.09 3.97-1.822 0 0-.02 5.093-3.46 1.33 0 0 1.28-4.238-.24-3.654z"/><path fill="#D0D2D3" d="M127.224 161.62l1.482.666-.027-3.566-4.78-1.777"/><path fill="#FFF" d="M160.52 133.104s-2.206-.64-3.4 1.047c0 0-.11 2.69 3.885.6v-1.13l-.485-.51z"/><path fill="#6C6F71" d="M148.055 145.895l.157 2.473.36-.053-.376-3.057"/><path fill="#1D8FCD" d="M148.213 146.1l1.083-2.66s-.734-1.7-1.258.15c-.745-1.662-1.253.232-1.253.232l1.396 2.28.01.063.02-.034.02.03v-.06z"/><path fill="#FFF" d="M147.867 145.308s-.09-1.258-.467-.654l.467.654zm.545-.082s-.067-1.263.376-.782l-.376.782z"/><path fill="#6C6F71" d="M142.815 149.018s4.284-1.774 10.942-1.656c0 0 2.24 6.123-.5 4.176 0 0-6.27-.904-9.51 1.272 0 0-2.16 1.45-.932-3.792z"/><path fill="#6C6F71" d="M143.496 153.535s-2.11.812-1.638-2.63c0 0-.992 4.36 1.638 2.63zm9.81-1.485s2.156 2.188 1.59-2.39c0 0 1.027 5.21-1.59 2.39zm-11.026-2.783l.422-1.076.868-.41-.992.15m10.51-1.59l.78.11.274 1.03-.082-1.28"/><path fill="#BE1E2D" d="M142.966 149.164s4.84-1.35 10.69-1.62c0 0 1.942 5.662-.405 3.602 0 0-5.16-1.128-10.06 1.414 0 0-.66.155-.52-1.048l.31-2.348z"/><path fill="#F69C95" d="M142.966 149.164l.294.63 10.244-1.553.15-.69s-3.776-.39-10.688 1.62z"/><path fill="#FFF" d="M152.59 148.127s-.385-.74-.88.156c0 0-.56-.934-1.19.11 0 0-.474-.98-1.08.11 0 0-.63-.897-1.063.122-.554-.87-1.058.2-1.058.2-.74-.89-1.08.213-1.08.213-.75-.833-1.18.25-1.18.25-.6-.732-.89.112-.89.112-.87-.46-.92.392-.92.392l.03.527 5.14-.78 5.14-.78-.04-.53s-.16-.82-.95-.11z"/><path fill="#F69C95" d="M144.095 152.124l.288-.118c-.027-.035-.042-.064-.042-.064-.08.08-.17.138-.24.182zm-.675-.194c-.032-.098-.13.05-.13.05l-.202.585.765-.332c.02-.006.034-.014.052-.02-.298.08-.433-.146-.486-.282zm8.345-.953c.112.006.22.01.322.017-.066-.05-.143-.115-.22-.212 0 0-.036.088-.102.195zm2.293.623l-.442-1.097c-.086.216-.307.46-.862.163 0 0-.085.248-.256.358.39.038.637.09.688.146.414.456.872.43.872.43z"/><path fill="#FFF" d="M152.497 151.024c-.123-.014-.26-.023-.41-.03.17.115.308.096.41.03zm1.085-.604l.033.083c.05-.12.057-.228.057-.228l-.033-.528-5.15.776-5.14.78.03.528s.01.05.03.1c.9-.34 6.37-2.3 10.16-1.51zm-9.487 1.704c-.063.028-.128.057-.19.088.057-.018.12-.044.19-.088z"/><path fill="#FFF" d="M152.753 150.666c.556.296.776.053.862-.163l-.033-.082c-3.79-.79-9.26 1.17-10.163 1.51.05.14.18.37.48.29l.19-.09c.07-.04.15-.1.24-.18 0 0 .01.03.04.07 2.34-.91 5.55-1.09 7.38-1.03.06-.1.1-.19.1-.19.07.1.15.17.22.22l.41.03c.17-.11.25-.36.25-.36z"/><path fill="#F47F38" d="M151.9 132.856s.18-1.615 1.056-.162c.88 1.456-.766.53-.766.53l-.29-.368z"/><path fill="#A6A8AB" d="M147.28 135.61s-7.91-3.897-18.932-1.972l.62 9.798 18.63-2.82 19.985-3.026-.146-9.89c-11.05 1.417-20.156 7.91-20.156 7.91z"/><path fill="#BBBDBF" d="M127.437 134.884s9.558-1.49 19.845.727c0 0 15.905-6.65 19.816-6.73l-.568 9.3-29.43 11.71-8.194-7.46-.703-.66-.766-6.88z"/><path fill="#A6A8AB" d="M127.193 135.432s13.265-.473 20.07.757c0 0 16-6.56 19.802-6.8l-2.997 17.85-25.23 8.32-11.125-11.95-.52-8.2z"/><path fill="#929497" d="M147.4 136.68l-20.177-.8 3.537 19.314 19.248 10.225 17.148-8.57-.13-26.86c.002 0-17.6 4.75-19.626 6.68z"/><path fill="#808184" d="M145.377 138.613s1.76-3.558 4.13-.077-1.748 5.043-1.748 5.043l-2.39-4.97z"/><path fill="#96131F" d="M149.946 136.295l-.017-.255 19.27-6.626.01.252-5.31 6.307"/><path fill="#74020D" d="M149.93 136.04s-2.298 5.51-5.163.782l.016.256 2.242 5.8 2.644-3.6 1.37-1.785-1.12-1.453z"/><path fill="#96131F" d="M144.767 136.822l-18.097-.97.016.252 3.614 6.106 12.304-2.074 2.837-.514"/><path fill="#1B75BB" d="M149.946 136.295l19.27-6.63.68 36.88-18.33 8.405s-2.546-27.126-2.526-28.153c.016-1.024.906-10.502.906-10.502zm-5.164.783l-18.096-.974 2.77 35.922 17.71 2.694.523-24.392"/><path fill="#0E4F82" d="M144.042 158.72l-.12-1.945-13.423-1.608.12 1.927m.16 2.59l13.42 1.626-.13-1.946-13.42-1.61m.28 4.518l13.42 1.625-.13-1.946-13.43-1.6m.28 4.49l13.42 1.63-.12-1.94-13.42-1.61m.16 2.59l.12 1.93 13.42 1.63-.12-1.94"/><path fill="#96131F" d="M144.782 137.078l2.384 37.642c.396.457.766.785 1.112 1.02l-2.362-37.31c-.694-.562-1.134-1.352-1.134-1.352zm1.766 1.736l2.358 37.27c1.734.683 2.658-1.134 2.658-1.134l-1.618-38.655c-1.215 2.624-2.443 2.924-3.398 2.52z"/><path fill="#74020D" d="M145.916 138.43l2.362 37.31c.22.153.43.264.628.344l-2.358-37.27c-.228-.096-.438-.232-.632-.385z"/><path fill="#96131F" d="M151.262 140.957s1.613-.207 1.57-3.564l14.49-4.977s-.11 2.16.584 2.695l.647 27.25s-1.358.76-.87 3.25l-13.383 5.73s-.11-2.4-1.845-3.17l-1.196-27.2z"/><path fill="#CA6070" d="M165.06 141.833c1.634 3.674.693 9.07-2.106 12.052-2.797 2.983-6.394 2.43-8.03-1.243-1.635-3.673-.693-9.068 2.104-12.053 2.798-2.99 6.393-2.43 8.03 1.24z"/><path fill="#FCC47E" d="M151.9 132.856s.928-5.06 3.647 12.656l.394-2.065.92 1.868s-1.45-11.21-3.44-13.875l-1.39.574s-.27.708-.12.842z"/><path fill="#CA6070" d="M157.295 156.123s2.6 1.907 6.25-1.927c0 0 2.607 2.274 3.03 11.227l-10.758 4.432s-1.25-8.792 1.478-13.732z"/><path fill="#96131F" d="M156.3 147.27l.226-1.014.042.68 2.742.96-3.08-.202m8.043-2.334l-.438-.824.113.66-2.353 2.376 2.84-1.848m-7.887 4.686l-.55 1.23.456-.404s3.638 5.576 6.997-.087l.5.17-1.22-1.03.26.55s-1.72 1.35-6.38-.08l-.04-.36z"/><path fill="#CA6070" d="M157.994 151.34l.066 1.016.49-.84m3.475-.01l.486-.338-.18 1.123"/><path fill="#D0D2D3" d="M95.715 140.294s-6.256 19.24 14.007 18.426l2.938 4.957s-33.534 14.782-26.63-24.643m37.763 20.9s2.226.1 3.207.61c.977.51-1.058-2-1.058-2h-2.038l-.11 1.39z"/><path fill="#FFF" d="M95.715 140.294s-13.95 28.78 28.525 15.138c0 0 4.514-2.314.55-7.64 0 0-.608-.856-.144-1.472 0 0 4.688-3.97 3.3 7.81 0 0 2.027-1.98 7.325-3.264 0 0 3.6 1.89-4.8 5.184 0 0 .9 1.095 7.05.482 0 0 1.33 1.333-1.62 2.2 0 0-2.58 1.042-6.09 0 0 0-.35 2.742-5.09.765 0 0-43.52 22.2-38.67-20.463 0 0 1.14-.25 9.69 1.26zm74.405 4.04c-3.866 3.12-3.546.825-3.546.825.762-1.82 3.315-2.88 3.315-2.88m1.22 4.79s-2.65-.09-4.05 1.83c0 0 .17 2.62 3.3-.26"/><path fill="#BBBDBF" d="M169.53 145.96s1.09-1.726-.073-1.112l.072 1.11zm.064 4.207s1.154-1.466-.01-.854l.01.854z"/><path fill="#FFF" d="M112.436 174.05s21.596-4.624 30.547 12.84c0 0 10.433-29.268 18.643-24.798 0 0 1.487 3.896-1.605 4.203 0 0 3.35 2.275-1.78 4.03 0 0 3.16 3.426-1.73 4.537l-10.07 14.944s-4.64 8.375-6.03 2.578c0 0-3.24-14.59-27.94-13.17-1.89.11-.01-5.164-.01-5.164z"/><path fill="#D0D2D3" d="M157.37 169.988s-4.315-.71-4.268 5.656c0 0-1.158-7.355 4.267-5.656zm1.502-3.93s-3.65-1.055-3.302 1.508c0 0 .172-1.755 3.302-1.508z"/><path d="M76.562 48.235c.04.188.11.766.285 1.59.605 2.855 1.418 4.04 1.815 4.745.16.287.46.766.52 1.05.023.118-.012.207-.103.22-.33.043-1.24-.75-1.69-1.15-1.72-1.544-3.6-2.29-6.51-1.583-3.3.8-5.29 3.977-3.89 9.12 1.93 7.097 6.41 8.248 9.09 7.612 4.1-.98 4.74-4.67 4.62-6.93-.05-.95-.3-2.01-.04-2.06.21-.05.41.33.57 1.11.32 1.58.89 7.72-5.82 9.35-4.26 1.03-9.64-.26-11.52-6.74-2.25-7.74 2.78-11.11 6.6-12.05 1.91-.47 3.22-.4 4.15-.61.81-.18 1.32-.57 1.36-1.56.05-1.34-.34-2.54.16-2.65.23-.05.3.18.37.51zm8.668 5.807c.45 1.264.778 2.266 1.094 3.114 1.458 3.913 2.37 6.188 4.507 5.85 2.33-.366 2.21-3.99 1.9-6.14-.19-1.336-.39-2.75-1.89-2.522-.46.07-.92.265-1.36.334-.22.034-.4-.035-.43-.226-.04-.24.16-.338.41-.406.51-.138 1.55-.31 2.55-.897.83-.49 1.46-1.31 1.76-1.35.17-.02.23.26.35.73.32 1.29.88 4.39 1.6 7.01.39 1.4.91 1.6 1.56 1.52.68-.09 1.3-.33 1.58-.36.28-.04.37.08.39.22.02.14-.04.3-.31.4-.4.14-1.17.3-2.16.58-.8.22-1.38.5-1.71.54-.32.04-.5-.06-.66-.5-.31-.89-.96-3.06-.96-3.06-.03 0-.37 5.95-3.36 6.44-1.6.26-2.93-.48-3.83-1.99-1-1.67-1.56-4.03-1.95-5.08-.41-1.12-.87-1.34-1.37-1.24-.5.09-1.1.56-1.54.64-.14.03-.35-.01-.39-.24-.05-.29.23-.4.59-.59.45-.24 1.1-.65 1.75-1.27 1.08-1.04 1.27-2.1 1.56-2.15.1-.02.19.04.39.6zm15.227-3.82c.093.887.498 2.154.62 2.14.194-.02.25-4.704 3.613-4.987 2.094-.175 2.855 1.326 2.93 2.385.118 1.636-.797 2.546-1.797 2.627-.9.073-1.57-.302-1.644-1.12-.08-.865.38-1.274 1.03-1.517.67-.25.85-.574.82-.96-.04-.455-.43-.91-1.32-.835-2.76.233-3.08 4.35-2.81 6.99.24 2.424 1.24 6.11 1.45 6.716.22.68.6.89 1.18.84.25-.02.58-.07.72-.09.21-.02.31.05.32.22.01.12-.04.22-.14.26-.32.13-1.97.23-3.29.53-1.46.34-2.72 1-3.27 1.07-.28.04-.39-.1-.41-.24-.03-.24.18-.33.48-.47.24-.11.58-.21 1.05-.48.46-.27.59-.6.51-1.34-.11-.96-1.37-7.32-1.74-8.83-.23-.92-.63-.97-1.17-.9-.19.03-.29.04-.49.06-.17.02-.52.04-.55-.22-.02-.17.14-.26.33-.31.79-.19 1.39-.38 1.95-.9.36-.34.77-.92.98-1.49.08-.21.17-.31.29-.33.2-.02.24.17.26.32.02.19.03.55.07.92zm12.26-4.172c.312 3.916 1.15 12.048 1.372 14.01.2 1.818.76 1.94 2.17 2.28.25.063.3.16.31.28 0 .146-.09.268-.36.278-.28.01-1.77-.106-3.02-.044-1 .05-2.31.344-2.91.382-.21.013-.47-.02-.49-.307-.02-.22.12-.33.42-.35.39-.03.95-.11 1.27-.25.5-.22.54-.76.51-1.19-.06-1.13-1.09-8.01-1.4-9.95-.23-1.44-.51-3.14-.78-4.26-.13-.55-.35-.85-.83-.82-.76.04-2.07.96-2.6 1-.18.01-.36-.05-.38-.26-.01-.15.08-.28.22-.41.27-.24.89-.43 2.48-1.63 1.68-1.27 2.78-2.88 3.16-3.47.16-.25.23-.4.36-.4.13-.01.16.21.17.4.01.34.12 2.81.27 4.67zm8.428 2.34c0 .242-.055.853-.135 1.447-.385 2.862-.696 8.136-.68 9.27.013.965.278 1.227.51 1.393.237.17.853.323 1.245.374.325.042.538.046.54.215 0 .14-.163.24-.49.24-.91 0-1.803-.35-2.973-.33-1.098.02-1.7.21-2.33.23-.257.01-.517-.03-.523-.25-.01-.24.29-.3.52-.36.6-.14 1.2-.31 1.26-1.19.11-1.72.03-3.62-.01-5.07-.02-.87-.04-1.61-.08-2.1-.14-1.56-.65-1.62-1.81-1.71-.17-.02-.3-.09-.31-.26-.01-.15.12-.26.36-.28.43-.05 1.55-.13 2.79-.68 1.39-.61 1.73-1.23 1.96-1.24.1-.01.13.09.13.26zm-.302-2.722c.012 1.18-.858 1.577-1.555 1.59-.623.01-1.48-.33-1.506-1.414-.028-1.158.846-1.54 1.453-1.55.96-.02 1.597.482 1.608 1.374zm6.377 5.808c.153 1.19.228 1.788.378 2.977.273-1.54 1.626-4.83 4.56-4.713 2.416.097 3.396 2.047 3.25 4.647-.133 2.335-.887 4.78-.985 6.636-.03.554.037.96.21 1.29.35.663 1.29 1.018 1.26 1.498-.007.15-.085.26-.27.25-.527-.03-1.144-1.03-3.016-1.75-.71-.27-1.382-.42-2.313-.52-.25-.02-.393-.11-.386-.25.004-.14.1-.21.262-.2.21.01.636.03 1.028.02.604-.02 1.023-.28 1.244-1.18.177-.71.364-2.3.417-3.48.07-1.59.22-5.04-2.12-5.12-1.32-.04-2.25 1.38-2.62 3.23-.19.94-.26 2-.28 3.03-.04 1.71.16 3.26.54 3.85.27.42.64.61.86.7.28.12.41.16.41.28 0 .1-.15.19-.47.18-.63-.01-1.52-.3-2.39-.31-.84-.01-1.84.12-2.23.12-.28 0-.44-.09-.44-.29 0-.14.1-.25.35-.28.39-.04.63-.02 1.14-.08.48-.06.63-.35.64-.86.02-1.73-.56-5.09-1.32-8.57-.19-.89-.38-1.33-.85-1.33-.49 0-1.05.41-1.42.41-.15 0-.22-.05-.22-.19-.01-.19.19-.26.39-.34.44-.16.96-.4 1.57-.86 1.18-.89 1.87-2.2 2.07-2.2.25 0 .47 1.74.71 3.48zm23.945 1.49c-.16 1.266-.906 1.9-1.92 1.776-.845-.103-1.437-.704-1.333-1.614.06-.503.297-.864.34-1.247.06-.52-.286-.74-.704-.78-.54-.06-1.2.26-1.6.83-.176.25-.33.55-.352.76-.026.27.574.63 1.086 1.33.44.61.84 1.48.712 2.61-.42 3.72-3.165 4.28-5.51 4.07l-.444-.04c-1 .09-1.715.51-1.774 1.26-.114 1.44 2.834 1.64 4.66 2.22 2.028.64 3.845 1.79 3.528 4.38-.245 2.01-1.808 3.39-3.656 4.07-1.207.45-2.63.63-4.104.51-2.758-.23-4.885-1.68-4.718-4.47.206-3.42 4.843-4.9 4.843-4.9-.01-.03-2.2-.75-2.12-1.9.05-.77 1.97-1.47 1.97-1.47 0-.06-2.96-1.98-2.81-4.24.18-2.79 2.41-4.29 5.07-4.06.8.07 1.66.35 2.05.38.39.04.64-.01.89-.34.72-.94 1.69-1.94 3.51-1.72 1.62.19 2.52 1.38 2.36 2.65zm-9.702 19.47c2.588.24 3.927-1.536 4.15-3.55.22-1.966-.523-3.624-2.624-4.42-.7-.26-1.51-.564-1.87-.51-.85.13-2.74 1.883-2.9 4.07-.17 2.287.96 4.2 3.23 4.41zm-1.16-15.88c-.192 2.405.856 3.504 1.843 3.594.846.076 2.47-.465 2.807-3.8.226-2.207-.51-3.448-1.847-3.57-1.192-.11-2.566.82-2.804 3.777zm28.507-7.526c-.05.235-.283.36-.875.485-.646.138-1.545.373-2.335 1.013-1.004.81-1.853 2.91-2.328 5.446-.782 4.17-.816 8.44 2.09 9.04 2.465.51 4.213-2.227 4.768-4.697.222-.988.94-4.166.433-5.315-.338-.766-1.002-1.3-2.598-1.884-.655-.24-.987-.4-.92-.732.058-.283.372-.32.862-.22.93.192 2.142.745 3.68 1.09 1.39.31 2.913.298 3.79.51.56.136.682.265.64.43-.044.187-.298.173-.667.108-.767-.136-1.862-.368-2.51.298-.857.883-1.28 3.572-1.87 5.633-.523 1.83-2.247 6.885-6.58 6.008-2.792-.566-4.268-2.716-4.663-5.468-.237-1.655.05-4.144.392-6.37.3-1.964.31-3.197-.4-3.783-.4-.332-.8-.5-1.55-.618-.32-.05-.45-.194-.42-.407.02-.167.17-.27.45-.272 1.42-.008 2.92.137 4.73.046 3.28-.16 4.99-.76 5.58-.64.2.04.31.14.27.3zm8.233 9.97c-.186.726-.39 1.618-.39 1.618.02.01.692-.493 1.08-.666.657-.29 1.644-.542 2.642-.27 2.23.608 3.006 2.623 2.326 4.96-1.02 3.52-3.59 5.13-5.97 4.494-.84-.224-1.77-1.113-1.77-1.113-.16.04-.48 1.792-.81 3.078-.52 2.04-1.31 5.34-1.07 6.42.12.53.44.89.75 1.15.38.32.71.64.65.87-.04.17-.16.26-.39.19-.75-.2-2.79-1.37-3.96-1.66-.63-.15-1.01-.17-1.46-.27-.63-.15-.78-.28-.75-.4.06-.26.65.03 1.39-.27.81-.32 1.16-1.45 1.47-2.42.49-1.52 2.72-9.84 3.37-12.46.48-1.94.42-2.5-.18-2.65-.45-.11-1.19.16-1.47.09-.11-.02-.17-.11-.14-.23.02-.09.11-.19.52-.3.55-.14 1.53-.19 2.55-.75 1.35-.73 1.74-1.25 1.98-1.19.14.04.12.23.07.44-.06.24-.21.72-.37 1.35zm-1.536 5.434c-.412 1.612-.482 3.502 1.064 3.913 1.21.32 2.63-.563 3.54-3.838.56-2 .37-3.61-1.14-4.01-1.98-.53-3.06 2.39-3.45 3.93zM101.98 76.017c-.18.204-.205.492-.175.756.102.907 1.78 5.16 1.92 5.145.162-.017 1.03-4.167 1.463-5.617.057-.18.137-.31.228-.32.11-.01.197.11.302.28.722 1.18 2.405 4.28 2.565 4.26.16-.01.68-4.12.637-4.71-.018-.24-.1-.34-.3-.32-.165.02-.4.09-.638.11-.147.01-.208-.06-.216-.14-.007-.1.047-.16.114-.19.168-.08.734-.1 1.53-.32.83-.22 1.35-.52 1.646-.53.13-.01.207.05.212.15.006.1-.043.17-.133.21-.178.1-.47.19-.79.34-.485.22-.642.51-.768 1.15-.226 1.14-.977 7.14-1.557 7.19-.3.03-1.048-1.1-1.74-2.2-.416-.65-1.33-2.24-1.33-2.24-.018.01-.78 3.49-.897 4.01-.25 1.11-.627 2.6-.836 2.62-.47.06-3.04-6.34-3.484-7.2-.196-.38-.445-.47-.717-.44-.29.04-.547.19-.764.22-.108.02-.244-.03-.265-.19-.03-.22.13-.31.37-.41.37-.16 1.392-.55 2.11-1.02 1.134-.74 1.647-1.35 1.923-1.38.11-.01.17.04.184.16.024.21-.414.46-.595.66zm12.922-4.187c.01.202-.016.718-.06 1.222-.207 2.427-.293 6.866-.25 7.82.038.813.246 1.023.427 1.16.18.136.65.255.95.288.24.027.41.024.41.167 0 .122-.12.208-.36.217-.69.026-1.38-.25-2.26-.205-.83.04-1.28.21-1.76.24-.2.01-.39-.02-.4-.2-.01-.21.21-.26.39-.31.45-.13.89-.28.92-1.03.04-1.45-.08-3.05-.15-4.27-.04-.73-.07-1.35-.12-1.77-.15-1.31-.54-1.35-1.42-1.41-.13-.01-.23-.07-.24-.21-.01-.12.08-.21.26-.24.32-.05 1.16-.14 2.09-.63 1.03-.55 1.27-1.08 1.44-1.09.07 0 .09.08.1.22zm-.305-2.285c.044.994-.6 1.35-1.126 1.375-.46.023-1.12-.247-1.17-1.16-.05-.975.6-1.314 1.05-1.337.73-.035 1.22.37 1.25 1.122zm2.776 3.578c1.68-.475 2.117-1.578 2.653-3.456.232-.817.475-1.126.78-1.13.283-.004.38.238.384.603.007.71-.517 2.406-.505 3.3.003.204.062.404.304.4.29-.002.85-.128 1.29-.13.26-.002.39.077.39.26s-.15.265-.37.266c-.34.002-1.02.05-1.5.32-.33.188-.54.496-.66.782-.39.915-.91 3.41-.86 5.422.06 2.823.96 4.02 2.14 4.01.91-.01 1.26-.68 1.26-1.27-.01-.732-.82-.852-.83-1.683-.01-.53.31-.936.83-.938.45-.01.91.36.91 1.27 0 1.54-.79 3.24-2.8 3.27-1.14.01-2.1-.56-2.67-1.47-.52-.85-.79-2.01-.83-3.15-.08-2.66.71-5.06.69-5.73-.01-.25-.14-.26-.34-.26-.24 0-.88.09-1.38.11-.22.01-.34-.05-.34-.2-.01-.11.06-.21.23-.28.27-.12.77-.23 1.19-.35zm11.405-10.46c-.01.365-.243 1.174-.49 3.32-.53 4.574-.833 11.013-.833 11.013.01.003 1.382-2.593 2.874-2.54.88.033 2.07.53 2.38 2.3.14.85.13 1.655.09 2.61-.04.71-.12 1.6-.17 2.513-.06 1.17.35 1.27.94 1.35.22.03.51.05.49.33-.01.14-.12.27-.46.26-.46-.03-.98-.24-1.66-.27-.88-.04-2 .42-2.42.41-.18-.01-.19-.11-.19-.17 0-.1.06-.15.25-.22.22-.08.41-.16.55-.25.17-.12.36-.34.46-.94.1-.66.17-1.8.22-2.84.03-.87.04-1.69-.01-2.2-.11-1.12-.48-1.83-1.25-1.86-.74-.02-1.19.66-1.47 1.3-.48 1.12-.93 3.72-.97 5.57-.02.87.37 1.02.98 1.2.15.04.26.09.25.25 0 .14-.11.22-.31.21-.63-.02-1.81-.47-2.76-.48-.64-.01-1.13.09-1.48.09-.25 0-.37-.09-.37-.27 0-.17.1-.25.26-.25.1 0 .24.02.38.02.81 0 1.16-.38 1.39-1.82.3-1.84 1.15-12.17 1.18-14.29.02-1.57-.56-1.74-1.02-1.74-.45-.01-1.08.21-1.53.21-.19 0-.27-.08-.27-.24 0-.16.1-.25.31-.32.59-.21 1.4-.38 2.49-1.01 1.26-.73 1.52-1.56 1.89-1.55.17 0 .21.15.21.25zm11.917 12.813c.146-1.64 1.112-3.192 3.07-2.99 2.46.257 2.81 2.59 2.95 4.158.103 1.156.146 6.82.188 7.515.05.81.088 1.83.66 1.91.347.04.52-.34.58-.77.03-.24.053-.53.077-.71.027-.2.084-.36.225-.34.245.03.176.8.147 1-.063.46-.203 1.06-.48 1.57-.285.53-.834.85-1.454.77-1.05-.14-1.428-1.03-1.594-1.59-.216-.74-.282-2.45-.282-2.45-.032-.01-1.636 1.95-3.272 1.79-1.793-.18-2.437-1.49-2.306-3.03.14-1.64 1.325-3.43 4.188-3.13.666.07 1.388.34 1.4.34.092-.06.064-1.15.066-1.71.007-.95.03-2.19-.043-3.09-.085-1.02-.58-1.74-1.455-1.83-.947-.1-1.527.66-1.595 1.37-.108 1.15 1.58 1.13 1.43 2.59-.065.64-.562 1.02-1.125.96-.868-.09-1.51-.88-1.375-2.38zm2.625 4.258c-1.24-.132-2.246.572-2.392 2.11-.13 1.395.733 1.844 1.453 1.918 1.2.123 2.24-.78 2.39-.948l.04-1.22c0-.615.04-1.368 0-1.433-.04-.08-.85-.36-1.48-.42z" fill="#FFCC7A"/><circle fill="#0071BC" cx="113.946" cy="112.155" r="10.385"/><path fill="#0F4481" d="M114.694 114.77c1.93-2.23 1.685-5.597-.542-7.524-2.227-1.926-5.593-1.686-7.523.543-1.93 2.22-1.69 5.59.54 7.52 2.22 1.93 5.59 1.68 7.52-.54z"/><path fill="#FFF" d="M111.587 113.133c1.025-1.185.896-2.973-.288-3.997-1.19-1.023-2.98-.897-4 .287-1.03 1.185-.9 2.975.29 4 1.18 1.024 2.97.894 3.99-.29z"/><circle fill="#FFF" cx="115.902" cy="110.545" r="1.38"/><circle fill="#0071BC" cx="141.774" cy="112.8" r="8.74"/><path fill="#0F4481" d="M142.404 115c1.622-1.876 1.418-4.71-.457-6.33-1.874-1.622-4.707-1.42-6.33.456-1.622 1.874-1.42 4.71.457 6.33 1.872 1.623 4.707 1.418 6.33-.456z"/><path fill="#FFF" d="M139.79 113.624c.862-.997.753-2.502-.243-3.364-.995-.86-2.503-.755-3.366.24-.86.998-.75 2.505.25 3.368 1 .86 2.5.752 3.37-.244z"/><circle fill="#FFF" cx="143.42" cy="111.445" r="1.162"/></svg>