<svg xmlns="http://www.w3.org/2000/svg" width="250" height="250" viewBox="0 0 250 250"><path opacity=".15" d="M211.04 106.074c4.215-5.94 1.55-12.78 1.55-12.78-3.12.763-6.315 3.337-6.315 3.337-2.014-5.83-9.71-4.4-9.71-4.4 1.395-1.55.667-5.26.667-5.26-4.574-2.25-8.547-1.66-8.547-1.66-.977-6.58-4.913-9.45-7.306-10.61-3.11-4.91-6.72-9.46-10.78-13.58l1.35-3.76 2.75 2.38h.03c.12.11.23.23.37.32.48.32 1.11.48 1.89.48.44 0 .87-.06 1.29-.19.42-.13.83-.29 1.22-.49.39-.19.76-.4 1.1-.62.26-.16.49-.31.7-.45-.08.14-.15.28-.2.44-.11.33-.16.67-.16 1.01 0 .41.06.76.19 1.05.09.22.22.4.37.56l-.01.01.08.07.07.08c.03.03.07.05.11.07l2.39 1.96h.01c.11.18.23.35.39.48.23.19.49.32.81.42.32.09.66.14 1.05.14.48 0 .89-.06 1.22-.18.33-.12.61-.28.83-.47.22-.19.39-.4.51-.62.12-.23.21-.44.27-.64.06-.2.09-.38.1-.53.01-.15.02-.25.02-.28 0-.68-.2-1.21-.57-1.6l-.02-.01-.09-.1c-.04-.03-.09-.06-.13-.09l-2.77-2.42c-.46-.4-1.11-.6-1.98-.6-.5 0-.94.08-1.3.23s-.67.36-.9.62c-.03.04-.05.08-.08.11l.23-3.48-2.9-2.51c-.48.39-.96.74-1.45 1.04-.34.21-.72.41-1.11.58.05-.3.12-.66.22-1.1.11-.51.2-.93.25-1.25.05-.32.08-.56.08-.74 0-.23-.05-.43-.13-.62-.09-.18-.2-.34-.34-.46-.15-.13-.31-.22-.5-.29l-2.07-1.76c-.09-.18-.2-.34-.34-.46s-.31-.22-.49-.29c-.19-.07-.39-.1-.58-.1-.58 0-1.08.15-1.52.46-.44.31-.84.69-1.18 1.13v.01l-1.98-1.38c-.07-.1-.19-.16-.34-.19-.15-.02-.36-.04-.63-.04-.24 0-.44.02-.61.04-.16.03-.3.08-.41.16-.11.08-.21.19-.3.32-.08.14-.16.32-.25.55-.13.35-.27.79-.4 1.32-.14.53-.3 1.2-.49 2-.04.15-.07.3-.1.45-.21-.48-.5-.89-.87-1.22-.1-.09-.21-.16-.32-.24l.01-.02-2.26-1.88c-.11-.12-.2-.26-.33-.37-.22-.2-.47-.37-.74-.51l-.02-.02h-.01c-.18-.09-.35-.18-.54-.25-.5-.18-1.04-.28-1.63-.28-.72 0-1.37.13-1.96.38-.43.19-.82.44-1.19.72l-1.84-1.7c-.02-.03-.02-.07-.03-.09-.1-.22-.25-.33-.46-.35l-.38-.01c.2-.38.39-.76.55-1.13.25-.57.44-1.14.59-1.7.14-.56.22-1.09.22-1.59 0-.6-.07-1.19-.21-1.75-.15-.56-.35-1.05-.61-1.47-.26-.42-.58-.75-.95-1-.13-.09-.28-.15-.43-.21l-.01-.02-1.7-1.54-.02-.01c-.23-.29-.46-.54-.75-.74-.37-.25-.78-.37-1.23-.37-.7 0-1.37.31-2.01.93s-1.22 1.44-1.76 2.47c-.54 1.03-1.02 2.2-1.46 3.52-.09.26-.16.54-.24.8-3.54-1.35-7.18-2.47-10.93-3.32 0-.1.02-.21.02-.31 0-.4-.04-.79-.11-1.17-.08-.38-.2-.73-.38-1.03-.18-.3-.43-.55-.74-.73l-2.47-2.2c-.12-.12-.26-.23-.42-.32-.32-.19-.72-.28-1.2-.28-.67 0-1.32.19-1.96.57-.65.38-1.27.91-1.86 1.57-.56.63-1.09 1.37-1.6 2.2-2.41-.22-4.84-.33-7.3-.33-5.57 0-11.02.57-16.28 1.64-.02-.04-.04-.09-.07-.13-.26-.41-.58-.75-.95-1l-2.17-1.85c-.21-.26-.44-.5-.7-.68-.09-.06-.19-.09-.29-.14l-.07-.05.01.03c-.28-.12-.57-.21-.89-.21-.7 0-1.37.31-2.01.93-.63.62-1.22 1.45-1.76 2.47-.53 1.02-1.01 2.17-1.44 3.47-5.85 2.04-11.4 4.73-16.56 7.99.01-.13.02-.27.02-.4 0-.96-.1-1.9-.29-2.81-.19-.92-.5-1.78-.93-2.6-.43-.82-.99-1.57-1.68-2.27-.13-.12-.27-.24-.4-.36l-.04-.02c-.06-.06-.13-.12-.21-.18l-2.25-1.92-.02-.02c-.3-.29-.63-.57-.98-.83l-.04-.04c-.46-.33-.96-.64-1.51-.91-1.01-.5-2.17-.89-3.5-1.17-1.34-.28-2.86-.42-4.57-.42-.92 0-1.82.07-2.7.2-.88.14-1.71.35-2.49.64-.78.29-1.5.66-2.15 1.1-.65.44-1.22.98-1.69 1.61-.47.64-.84 1.36-1.11 2.17-.27.82-.4 1.74-.4 2.76 0 .93.18 1.45.53 1.56l2.74 2.41.03.03c.08.06.18.1.29.1.33 0 .75-.32 1.24-.97.26-.34.57-.77.91-1.27-.49 1.45-.88 3.12-1.14 5-.27 1.92-.45 3.79-.53 5.61-.09 1.81-.13 3.59-.13 5.32 0 .18 0 .33.01.45s.04.22.08.3c.04.08.1.15.18.21.04.02.09.04.13.06l2.78 2.45c.08.06.19.11.32.15.24.13.51.25.8.37-12 14.15-19.25 32.46-19.25 52.42 0 28.61 14.88 54.63 38.76 69.23-9 2.65-16.57 6.83-16.57 13.39 0 14.36 35.94 18.19 57.17 18.19 21.24 0 57.18-3.83 57.18-18.19 0-5.28-4.76-9.52-14.18-12.66 15.94-9.34 27.96-23.69 34.47-40.56 3.4-2.11 8.98-5.85 12.27-9.47 6.69 1.22 11.13-3.52 11.13-3.52 2.69-3.15 0-3.05 0-3.05 18.06-6.99 1.76-11.16 1.76-11.16 3.93.55 6.92-3.84 6.92-3.84 1.59-4.9-9.47-10.22-9.47-10.22zm-17.17-64.59c-.378-.67-.86-1.22-1.444-1.654l-2.327-1.98c.32.334.62.696.86 1.126.37.67.57 1.463.57 2.383 0 1.1-.13 2.05-.4 2.83-.27.78-.61 1.47-1.04 2.05-.43.58-.9 1.1-1.43 1.54-.53.44-1.05.88-1.58 1.3-.53.42-1.03.86-1.5 1.32-.47.46-.86.99-1.16 1.6-.16.5-.38.88-.67 1.14-.29.26-.61.39-.95.39-.37 0-.69-.08-.97-.24-.04-.03-.07-.06-.11-.09l2.68 2.24c.07.14.18.26.32.35.27.16.6.24.96.24.34 0 .66-.13.95-.39.29-.26.51-.64.67-1.15.3-.6.68-1.14 1.15-1.6.47-.46.96-.9 1.49-1.32.52-.42 1.05-.86 1.58-1.3.52-.45 1-.96 1.43-1.55.42-.59.77-1.27 1.03-2.06s.39-1.73.39-2.84c0-.92-.19-1.72-.57-2.39z"/><path fill="#F05A28" d="M179.697 40.516c.14.18.304.32.483.427l2.633 2.313c.09.083.188.155.29.212.194.108.392.162.59.162.238 0 .473-.052.696-.154.22-.102.42-.266.6-.492.04-.13.15-.304.31-.525.17-.23.36-.44.6-.64.23-.21.48-.38.73-.53.18-.11.34-.16.51-.19-.02.73-.17 1.39-.46 1.95-.31.58-.7 1.13-1.16 1.62-.46.5-.96.98-1.5 1.44-.54.46-1.04.97-1.5 1.53-.46.55-.85 1.18-1.16 1.89-.31.7-.47 1.53-.47 2.48 0 .3.11.53.3.69l2.69 2.24c.06.14.17.26.32.35.27.16.6.23.96.23.34 0 .66-.13.95-.39.29-.26.51-.64.66-1.15.3-.61.69-1.14 1.16-1.6.47-.46.97-.9 1.49-1.33.53-.42 1.05-.86 1.58-1.3.52-.45 1-.96 1.42-1.55.42-.59.77-1.27 1.03-2.06s.39-1.73.39-2.84c0-.92-.19-1.72-.57-2.39-.38-.67-.86-1.22-1.45-1.65l-2.33-1.98c-.19-.19-.36-.38-.57-.53-.06-.05-.12-.07-.19-.11l-.07-.06h-.03c-.51-.34-1.05-.61-1.65-.79-.71-.21-1.38-.31-2.02-.31-.53 0-1.05.06-1.59.18-.53.12-1.05.29-1.55.53-.5.23-.96.52-1.39.87-.43.35-.8.75-1.11 1.2-.16.24-.24.47-.24.69 0 .3.05.58.14.83.1.25.22.47.36.66zm29.323 63.536c4.214-5.94 1.55-12.78 1.55-12.78-3.122.763-6.316 3.337-6.316 3.337-2.014-5.84-9.71-4.41-9.71-4.41 1.395-1.55.667-5.27.667-5.27-4.57-2.25-8.54-1.67-8.54-1.67-.97-6.59-4.91-9.46-7.3-10.62-3.1-4.91-6.72-9.46-10.77-13.59l1.36-3.77 2.76 2.38h.03c.12.11.24.23.38.32.48.32 1.12.48 1.9.48.44 0 .87-.07 1.3-.2.43-.13.83-.29 1.22-.49s.76-.4 1.11-.62l.71-.46c-.07.14-.14.28-.19.44-.1.33-.16.66-.16 1.01 0 .41.07.76.19 1.05.1.22.23.4.38.56l-.01.01.08.07c.03.02.05.05.07.08.04.02.08.04.11.07l2.39 1.96h.01c.11.18.23.34.39.48.23.18.5.32.81.41.32.09.67.13 1.05.13.48 0 .89-.06 1.23-.19.34-.13.61-.28.83-.47.22-.19.39-.4.51-.63.12-.22.21-.43.27-.63.06-.2.09-.38.1-.53.01-.15.02-.25.02-.29 0-.68-.2-1.21-.57-1.6l-.01-.01c-.03-.03-.05-.07-.09-.1-.03-.03-.09-.06-.13-.09L183.88 56c-.45-.4-1.11-.6-1.977-.6-.5 0-.935.08-1.3.23s-.665.36-.896.62c-.03.03-.055.07-.08.11l.22-3.48-2.9-2.51c-.47.38-.95.73-1.444 1.03-.34.21-.72.402-1.11.58.05-.31.12-.66.22-1.1.11-.52.2-.93.25-1.25.05-.32.08-.57.08-.75 0-.23-.04-.433-.12-.62-.09-.18-.2-.334-.34-.46-.14-.125-.31-.22-.497-.29l-2.07-1.76c-.083-.18-.193-.33-.336-.46-.14-.12-.305-.22-.49-.29-.19-.07-.384-.1-.58-.1-.574 0-1.08.15-1.52.46-.44.31-.83.69-1.18 1.14l-1.97-1.373c-.075-.1-.19-.16-.34-.19-.15-.02-.36-.04-.636-.04-.24 0-.44.017-.6.04-.16.03-.3.08-.41.16-.11.08-.21.19-.29.32-.08.14-.165.32-.25.55-.136.347-.27.787-.406 1.32s-.3 1.2-.48 2c-.04.15-.068.3-.1.45-.21-.477-.5-.884-.87-1.22-.1-.09-.21-.16-.32-.236l.006-.02-2.26-1.88c-.11-.12-.207-.26-.33-.37-.22-.2-.47-.36-.74-.51l-.02-.02h-.02c-.17-.09-.346-.18-.53-.26-.5-.19-1.05-.28-1.63-.28-.72 0-1.37.12-1.96.38-.43.18-.82.43-1.19.71l-1.84-1.7c-.01-.03-.016-.06-.027-.09-.09-.22-.24-.33-.45-.35l-.38-.01c.2-.38.39-.76.55-1.13.25-.58.45-1.14.6-1.7.145-.56.22-1.09.22-1.59 0-.6-.07-1.18-.21-1.74-.145-.55-.345-1.04-.606-1.46-.26-.42-.58-.75-.95-1-.13-.1-.28-.15-.42-.21v-.02l-1.71-1.55h-.02c-.22-.29-.46-.55-.75-.74-.37-.25-.78-.38-1.23-.38-.7 0-1.37.31-2 .93s-1.22 1.44-1.76 2.47c-.53 1.03-1.02 2.2-1.45 3.52-.08.26-.15.54-.23.81-3.53-1.36-7.18-2.47-10.93-3.33.01-.1.02-.21.02-.31 0-.4-.04-.79-.11-1.17-.07-.38-.2-.73-.38-1.03-.18-.3-.43-.55-.74-.73l-2.48-2.19c-.12-.12-.26-.23-.42-.32-.31-.18-.71-.28-1.2-.28-.66 0-1.32.19-1.96.57-.64.39-1.26.91-1.85 1.58-.55.63-1.09 1.37-1.6 2.2-2.41-.21-4.84-.33-7.3-.33-5.57 0-11.01.57-16.27 1.64-.02-.04-.04-.09-.06-.13-.26-.42-.58-.75-.95-1l-2.23-1.8c-.21-.27-.44-.51-.71-.69-.09-.06-.19-.09-.29-.14l-.06-.05.01.02c-.28-.12-.57-.21-.89-.21-.7 0-1.37.31-2.01.93-.64.62-1.22 1.45-1.76 2.47-.53 1.02-1.01 2.17-1.44 3.47-5.86 2.05-11.41 4.74-16.57 7.99 0-.13.02-.27.02-.41 0-.96-.1-1.9-.29-2.81-.19-.92-.5-1.78-.94-2.6-.43-.82-.99-1.57-1.68-2.27-.12-.13-.26-.24-.39-.36l-.04-.02c-.06-.06-.13-.12-.21-.18l-2.25-1.91-.01-.02c-.29-.29-.62-.57-.98-.83l-.04-.04c-.46-.33-.96-.64-1.51-.91-1-.5-2.17-.89-3.5-1.17-1.33-.28-2.85-.42-4.56-.42-.92 0-1.81.07-2.69.21-.88.14-1.71.35-2.48.64-.78.29-1.5.66-2.15 1.1-.66.45-1.22.98-1.7 1.62s-.85 1.37-1.11 2.18c-.27.82-.4 1.74-.4 2.76 0 .93.18 1.45.53 1.56l2.74 2.41.04.03c.08.06.18.09.29.09.33 0 .75-.33 1.24-.97.26-.35.57-.78.9-1.28-.5 1.45-.88 3.12-1.14 5.01-.27 1.92-.45 3.79-.54 5.6-.09 1.81-.13 3.59-.13 5.32 0 .18.01.33.02.45s.03.22.08.3c.04.08.1.15.17.21.03.03.08.04.12.06l2.68 2.4c.08.06.19.11.32.16.24.13.51.25.8.37-12 14.15-19.25 32.45-19.25 52.42 0 28.61 14.88 54.63 38.76 69.23-9 2.65-16.56 6.83-16.56 13.39 0 14.36 35.94 18.19 57.18 18.19s57.18-3.83 57.18-18.19c0-5.28-4.76-9.52-14.18-12.66 15.94-9.35 27.97-23.69 34.48-40.57 3.4-2.11 8.98-5.84 12.27-9.47 6.7 1.21 11.13-3.53 11.13-3.53 2.69-3.14 0-3.05 0-3.05 18.06-6.98 1.77-11.16 1.77-11.16 3.93.55 6.92-3.84 6.92-3.84 1.59-4.9-9.47-10.22-9.47-10.22z"/><path fill="#FAAF40" d="M187.546 115.93c0-42.427-34.394-76.82-76.82-76.82s-76.82 34.394-76.82 76.82c0 31.895 19.435 59.247 47.11 70.86-14.96 2.446-24.92 6.8-24.92 11.76 0 7.648 23.656 13.85 52.836 13.85 29.182 0 52.835-6.2 52.835-13.85 0-4.68-8.855-8.814-22.406-11.318 28.25-11.356 48.19-38.998 48.19-71.302z"/><path fill="#F47F38" d="M187.546 115.93c0 42.427-34.394 76.82-76.82 76.82s-76.82-34.393-76.82-76.82c0-42.427 34.393-76.82 76.82-76.82 42.426 0 76.82 34.393 76.82 76.82z"/><path fill="#156400" d="M159.286 106.495l-.78-9.19 25.15-3.047 11.477 14.825 7.58 14.352-10.224 7.093-20.61-7.18"/><path fill="#040" d="M166.608 102.528l-7.322 22.085 9.976-22.168m10.513 2.5L166.52 129.79l1.332.738 15.674-26.28m6.006 11.932l-16.966 17.686 25.172-9.878-19.48 4.983 13.665-12.48"/><path fill="#156400" d="M159.495 104.347s-5.56-.41-5.054-6.31l1.27 1.36s-1.68-1.452-.25-7.853c0 0 7.09 1.24 6.87 5.126l1.44-1.216s1.81 8.893-4.26 8.893z"/><path fill="#15BA58" d="M160.212 104.052s-5.316-.505-5.307-4.76l1.053.464s-1.432-3.875-.253-7.833l2.36 4.747-2.528-1.293 2.653 1.853s.885 1.77 1.643 3.917l-3.58-1.18 3.96 1.896s1.025 1.934 0 2.19z"/><path fill="#040" d="M158.317 96.24l.89-2.59-.7 3.654m1.643 3.8l2.172-4.106-1.654 4.738"/><path fill="#156400" d="M163.34 97.946s-5.558-.41-5.053-6.312l1.264 1.362s-1.68-1.453-.25-7.854c0 0 7.09 1.24 6.87 5.126l1.44-1.217c0 .01 1.81 8.9-4.26 8.9z"/><path fill="#15BA58" d="M164.058 97.65s-5.316-.505-5.307-4.758l1.06.463s-1.43-3.875-.25-7.833l2.36 4.748-2.52-1.294 2.66 1.853s.89 1.76 1.65 3.91l-3.58-1.18 3.96 1.89s1.03 1.93 0 2.18z"/><path fill="#040" d="M162.163 89.838l.89-2.59-.7 3.654m1.64 3.8l2.175-4.105-1.654 4.737"/><path fill="#156400" d="M177.296 92.694s-8.192-.603-7.448-9.3l1.862 2.007s-2.482-2.14-.372-11.57c0 0 10.44 1.83 10.122 7.56l2.112-1.79s2.66 13.11-6.276 13.11z"/><path fill="#15BA58" d="M178.35 92.26s-7.832-.746-7.818-7.014l1.552.682s-2.11-5.71-.373-11.544l3.48 6.996-3.72-1.906 3.91 2.73s1.31 2.606 2.42 5.772l-5.27-1.738 5.84 2.793c0 .01 1.51 2.86 0 3.23z"/><path fill="#040" d="M175.557 80.747l1.315-3.817-1.035 5.384m2.42 5.6l3.203-6.05-2.44 6.98"/><path fill="#156400" d="M181.37 89.558s.848-5.046 6.197-4.08l-1.352 1.038s1.473-1.415 7.2.44c0 0-1.738 6.368-5.27 5.84l.987 1.413s-8.28.89-7.763-4.66z"/><path fill="#15BA58" d="M181.578 90.237s.916-4.815 4.8-4.443l-.51.923s3.662-.978 7.18.438l-4.54 1.75 1.397-2.2-1.92 2.268s-1.69.658-3.72 1.167l1.383-3.17-2.068 3.456c0-.002-1.855.77-2.002-.19z"/><path fill="#040" d="M188.88 89.172l2.29 1.036-3.278-.954m-3.616 1.176l3.568 2.338-4.19-1.916"/><path fill="#156400" d="M193.827 102.44s-.122-6.538 6.823-6.583l-1.453 1.622s1.514-2.13 9.145-1.15c0 0-.684 8.4-5.246 8.57l1.576 1.54s-10.19 3.06-10.845-4.02z"/><path fill="#15BA58" d="M194.248 103.243s.016-6.26 4.984-6.71l-.426 1.28s4.368-2.09 9.118-1.14l-5.29 3.266 1.24-3.09-1.88 3.29s-1.967 1.22-4.393 2.34l.99-4.31-1.78 4.83c.01 0-2.14 1.41-2.55.23z"/><path fill="#040" d="M203.167 100.188l3.12.76-4.342-.424m-4.262 2.328l5.03 2.094-5.71-1.42"/><path fill="#156400" d="M201.914 107.613s4.524-4.72 9.48.147l-2.175.124s2.57-.435 7.28 5.64c0 0-6.41 5.477-9.77 2.378l.02 2.205s-9.39-5.012-4.85-10.494z"/><path fill="#15BA58" d="M201.646 108.48s4.428-4.427 8.268-1.24l-1.206.607s4.57 1.6 7.27 5.623l-6.054-1.416 3.056-1.317-3.656 1.014s-2.26-.52-4.766-1.44l3.74-2.35-4.672 2.17s-2.516-.51-1.98-1.63z"/><path fill="#040" d="M210.122 112.604l1.676 2.742-2.78-3.365m-4.66-1.35l2.086 5.04-3.046-5.03"/><path fill="#156400" d="M193.725 123.74s4.525-4.72 9.48.146l-2.174.125s2.57-.43 7.29 5.64c0 0-6.41 5.48-9.76 2.38l.03 2.21s-9.38-5.01-4.85-10.49z"/><path fill="#15BA58" d="M193.456 124.607s4.43-4.428 8.268-1.24l-1.206.606s4.572 1.6 7.27 5.624l-6.053-1.416 3.056-1.31-3.65 1.02s-2.26-.52-4.76-1.44l3.74-2.35-4.67 2.17s-2.51-.51-1.98-1.63z"/><path fill="#040" d="M201.934 128.73l1.675 2.742-2.78-3.364m-4.66-1.356l2.08 5.032-3.05-5.035"/><path fill="#156400" d="M200.065 120.37s3.206-5.7 9.216-2.222l-2.07.662s2.38-1.063 8.47 3.646c0 0-4.84 6.902-8.86 4.736l.58 2.13s-10.34-2.514-7.32-8.953z"/><path fill="#15BA58" d="M200.022 121.276s3.185-5.392 7.695-3.262l-1.015.888s4.824.41 8.44 3.634l-6.216.138 2.632-2.04-3.29 1.895s-2.316.06-4.972-.21l3.034-3.22-3.986 3.26c.002 0-2.56.12-2.322-1.09z"/><path fill="#040" d="M209.26 123.157l2.305 2.237-3.53-2.565m-4.852-.16l3.275 4.35-4.205-4.12"/><path fill="#FAAF40" d="M161.77 198.55c0 7.648-23.655 13.85-52.836 13.85-29.18 0-52.836-6.2-52.836-13.85 0-7.648 23.656-13.852 52.836-13.852s52.836 6.203 52.836 13.85z"/><path fill="#FFF" d="M124.958 76.064c-4.792 0-9.13 1.9-12.274 4.974-3.145-3.074-7.482-4.974-12.274-4.974-9.6 0-17.38 7.623-17.38 17.028 0 9.405 7.78 17.028 17.38 17.028 4.792 0 9.13-1.9 12.274-4.974 3.143 3.074 7.48 4.974 12.274 4.974 9.6 0 17.38-7.623 17.38-17.028 0-9.405-7.78-17.028-17.38-17.028z"/><linearGradient id="a" gradientUnits="userSpaceOnUse" x1="718.271" y1="-679.487" x2="718.566" y2="-673.927" gradientTransform="matrix(1 0 0 -1 -543 -560)"><stop offset="0" stop-color="#FFF"/><stop offset="1" stop-color="#E82625"/></linearGradient><path fill="url(#a)" d="M178.496 113.576c.357.375.022 1.202-.398 1.498-1.516 1.05-4.947.34-5.523-.52-.68-1.02 1.89-.29 3.11-.38 1.914-.147 2.156-1.295 2.81-.598z"/><radialGradient id="b" cx="707.345" cy="-668.248" r=".971" gradientTransform="matrix(1 0 0 -1 -543 -560)" gradientUnits="userSpaceOnUse"><stop offset="0" stop-color="#DC2426"/><stop offset=".462" stop-color="#D62326"/><stop offset="1" stop-color="#C82127"/></radialGradient><path fill="url(#b)" d="M165.615 107.082c.14.416-.116.8-.67.99-.478.154-1.226.03-1.348-.356-.126-.405.255-.83.788-1.025.575-.21 1.093.04 1.23.4z"/><radialGradient id="c" cx="707.523" cy="-668.048" r="1.592" gradientTransform="matrix(1 0 0 -1 -543 -560)" gradientUnits="userSpaceOnUse"><stop offset="0" stop-color="#ED2F24"/><stop offset="1" stop-color="#C02026"/></radialGradient><path fill="url(#c)" d="M165.657 106.932c.132.387.02.71-.502.884-.442.146-1.262.068-1.376-.295-.12-.37.23-.77.73-.95.53-.2 1.02.03 1.14.37z"/><linearGradient id="d" gradientUnits="userSpaceOnUse" x1="708.244" y1="-666.505" x2="707.865" y2="-667.108" gradientTransform="matrix(1 0 0 -1 -543 -560)"><stop offset="0" stop-color="#FFF"/><stop offset="1" stop-color="#E52526"/></linearGradient><path fill="url(#d)" d="M165.155 106.66c-.2-.045-.487.022-.578.165-.09.14.118.19.317.24.2.047.407.092.496-.048.093-.143-.037-.312-.235-.357z"/><radialGradient id="e" cx="710.025" cy="-670.493" r=".833" gradientTransform="matrix(1 0 0 -1 -543 -560)" gradientUnits="userSpaceOnUse"><stop offset="0" stop-color="#C52026"/><stop offset=".383" stop-color="#BF2025"/><stop offset=".884" stop-color="#AF1F24"/><stop offset="1" stop-color="#AA1F23"/></radialGradient><path fill="url(#e)" d="M167.645 109.64c.12.355.01.657-.292.762-.255.085-.695-.087-.802-.416-.1-.35.08-.67.36-.783.31-.12.63.124.74.438z"/><radialGradient id="f" cx="709.942" cy="-670.334" r="1.369" gradientTransform="matrix(1 0 0 -1 -543 -560)" gradientUnits="userSpaceOnUse"><stop offset="0" stop-color="#ED2F24"/><stop offset="1" stop-color="#D22127"/></radialGradient><path fill="url(#f)" d="M167.654 109.523c.113.328.077.588-.205.683-.24.083-.72-.054-.82-.364-.1-.323.06-.62.33-.73.29-.112.58.12.68.41z"/><linearGradient id="g" gradientUnits="userSpaceOnUse" x1="710.382" y1="-669.121" x2="710.22" y2="-669.593" gradientTransform="matrix(1 0 0 -1 -543 -560)"><stop offset="0" stop-color="#FFF"/><stop offset="1" stop-color="#E82625"/></linearGradient><path fill="url(#g)" d="M167.34 109.26c-.117-.06-.277-.028-.317.082-.035.112.087.172.206.23.12.056.24.116.28.005.03-.11-.05-.264-.17-.318z"/><path fill="#FFCC7A" d="M140.225 148.57c.385-1.955-.51-28.744 19.062-44.92 0 0 23.693 5.875 35.847 28.05 0 0-22.594 28.92-48.84 21.317"/><path fill="none" d="M124.824 161.873c-.58-.428-1.287-.957-2.094-1.573-.52.48-.99.94-1.4 1.36 1.06.2 2.238.304 3.494.213zm-14.78 25.647s2.826-.742 3.185-5.072c-.02-.28-.28-4.317-1.46-8.154-.37-1.023-.81-2.125-1.34-3.305-.43-.8-.92-1.52-1.48-2.11h-.01c-.02.01-.23.15-.63.37-.44.25-.92.53-1.46.83 0 0-.4.16-1.08.38-3.07 1.26-8.1 2.6-13.85 1.3 0 0 2.59 9.47-.87 17.04 5.53-.4 11.43-.65 17.57-.74.39-.18.85-.38 1.4-.58zm26.946-30.13s-.027.25-.095.646l.115-.096c-.006-.18-.016-.356-.02-.55zm-7.203 1.394l.876.55-.22.35h.61c.668-.45 1.337-.973 2-1.6 0 0-.193.787-.95 1.694.605.017 1.495-.246 1.66-1.898 0 0 .654-4.234 3.62-3.015l-.575-2.49 2.456 2.26-.564-2.195-.572-.59c-4.108.846-7.727 2.67-10.667 4.67.91.547 1.85 1.088 2.83 1.615l-.49.65z"/><path fill="#670004" d="M131.055 159.684h.493s.24.085.56.095c.753-.91.946-1.7.946-1.7-.66.62-1.33 1.15-2 1.6zm-3.175 4.08l-.896-1.3-.48.636s-.634-.45-1.68-1.227c-1.256.09-2.436-.012-3.494-.213-1.43 1.463-2.206 2.48-2.206 2.48 3.747 1.087 7.073.515 9.624-.47l-.5-.492-.368.587zm10.646-11.994c-.132.027-.267.053-.398.078l.57.59-.172-.667z"/><path fill="#E6E6E6" d="M129.532 161.135l-1.285 2.044.5.49.46.45 2.066-1.62c-.53-.32-1.11-.77-1.74-1.37z"/><path fill="#FFCC7A" d="M140.952 157.984l1.092-2.58-1.37.338-.83.98c.348.362.72.783 1.108 1.262z"/><path fill="#FFCC7A" d="M139.263 154.636l-2.454-2.26.57 2.487c.65.272 1.42.813 2.32 1.72l.96-.84 1.42-.455.27-.652 1.05-.122-.86-2.424-2.18-.553-.23 3.1.09-3.13c-.58.065-1.15.158-1.72.267l.17.666.56 2.196zm-2.25 3.302l-.115.095c-.057.326-.144.755-.27 1.227l.445-.39c-.027-.288-.045-.6-.06-.932zm-1.815 9.81l-4.535 7.976 3.86-8.1c-.158-.035-.255-.063-.255-.063-1.453-2.5.55-3.26 1.792-3.5-.55-1.3.657-2.54 1.36-3.11-.09-.31-.17-.67-.233-1.09l-1.688 1.99c-.14.2-.29.38-.46.54l-9.54 11.25c-5.04-.76-2.14-2.85-2.14-2.85l8.96-7.79c-.33-.1-.69-.26-1.06-.49l-2.07 1.62-7.29 5.72s-.97 4.18 2.59 4.18l-2.59 1.14s3.36 4.93 9.82 4.58l5.06-11.96c-.52.09-1.12.04-1.61-.02z"/><path fill="#FAAF40" d="M144.01 156.168l-.59-1.654-1.048.122-.274.652-1.422.454 1.37-.338-1.092 2.58c.29.36.59.74.904 1.17l1.538-.894-.837-1.053.84.063.56.04c.02-.433.04-.818.04-1.142zm-12.27 23.567c.64-.035 1.315-.12 2.022-.272l3.11-11.705c-.022.006-.044.01-.066.013l-5.067 11.97zm5.333-20.865l-.446.39c-.227.845-.582 1.82-1.127 2.584l1.688-1.988c-.047-.298-.08-.632-.115-.985zm2.772-2.15l.83-.978-.968.84c.045.046.093.092.138.14zm-14.338 16.915l9.535-11.248c-.665.65-1.546.978-2.71.608l-8.966 7.79s-2.892 2.09 2.14 2.85z"/><path fill="#FFF" d="M62.956 153.32c-.972-.79-1.917-1.644-2.81-2.58-1.982-2.046-3.733-4.442-5.146-7.098-1.44-2.64-2.52-5.546-3.336-8.534-1.598-6.008-2.02-12.368-1.81-18.315.206-5.955 1.018-11.518 1.94-16.23.926-4.718 1.977-8.594 2.775-11.27.39-1.34.73-2.377.97-3.074l.35-1.04.04-.12.02-.07c.58-1.83-.42-3.79-2.25-4.37s-3.78.42-4.37 2.24l-.39 1.21c-.24.77-.58 1.89-.96 3.33-.78 2.86-1.78 6.96-2.63 11.96-.85 4.99-1.57 10.89-1.63 17.28-.07 6.37.54 13.28 2.5 19.97 1 3.33 2.31 6.61 4.04 9.62 1.71 3.02 3.82 5.77 6.19 8.1 2 1.98 4.18 3.65 6.39 5.02-.01-2.03.06-4.05.08-6.07z"/><path fill="#D0D2D3" d="M88.886 162.08l-.085-.012-1.14-.09c-.74-.062-1.84-.143-3.22-.33-.69-.075-1.45-.182-2.28-.33-.82-.13-1.71-.288-2.65-.5-1.88-.386-3.97-.97-6.17-1.752-3.4-1.2-7.06-3.06-10.37-5.747-.02 2.02-.09 4.04-.08 6.06.4.24.8.5 1.2.73 2.62 1.5 5.25 2.61 7.72 3.41 2.47.81 4.77 1.39 6.82 1.75 1.03.21 1.99.35 2.88.47.89.13 1.71.23 2.45.29 1.48.16 2.65.22 3.44.26l1.22.06c1.17.06 2.18-.81 2.28-1.98.1-1.19-.79-2.23-1.97-2.33zm51.768-77.683c-.002 0-.002.002-.002.002.26.48.506.96.736 1.46h.01s7.42-13.5-6.356-8.81h-.008c1.536 1.48 2.896 3.08 4.063 4.79 1.228-1.18 5.687-5.21 1.557 2.55z"/><path fill="#919496" d="M139.095 81.85c.566.826 1.088 1.678 1.558 2.55l.002-.003c4.13-7.763-.33-3.73-1.56-2.548z"/><path fill="#FFF" d="M139.845 156.72l-.138-.137c-.898-.908-1.668-1.45-2.323-1.72-2.966-1.22-3.62 3.015-3.62 3.015-.165 1.652-1.055 1.915-1.657 1.898-.317-.01-.56-.095-.56-.095h-1.104l-.91 1.46c.632.6 1.21 1.05 1.743 1.37.375.23.73.39 1.06.5 1.16.37 2.042.05 2.71-.61.167-.16.32-.34.46-.54.542-.76.9-1.74 1.124-2.58.127-.47.214-.9.27-1.22.066-.39.096-.64.096-.64.004.2.014.37.02.55.02.33.034.65.064.93.032.36.067.69.114.99.063.42.143.78.233 1.09-.7.58-1.913 1.82-1.364 3.12-1.24.24-3.245 1-1.79 3.5l.258.07c.17.04.41.09.68.13.49.07 1.09.11 1.61.02l.07-.01c.85-.16 1.46-.69.97-2.08.24.13.5.25.79.36 0 0 4.06-2.41 2.37-4.16.89-.77 1.56-1.73 1.56-1.73-.24-.35-.47-.68-.7-.99-.31-.43-.61-.81-.9-1.17-.39-.47-.76-.89-1.11-1.25zm-.748 4.173c-.357-.105-.762-.204-1.22-.29h1.386l-.166.29z"/><path fill="#FFF692" d="M129.787 158.784l-2.804 3.682.897 1.3.367-.587 1.285-2.05.91-1.45.22-.35"/><path fill="#919496" d="M71.366 85.795c.834-1.784 1.874-3.484 3.086-5.088-2.88-.374-6.125.08-3.086 5.088z"/><path fill="#FFF" d="M113.23 182.447c-.36 4.328-3.187 5.072-3.187 5.072-.546.2-1.004.39-1.4.58-2.957 1.38-1.958 2.23-1.958 2.23l24.024 5.41c2.59 3.89 4.54 0 4.54 0 3.24 3.89 4.11.21 4.11.21 1.3 2.59 4.2 0 4.2 0 .7-5.19-9.43-7.03-17.66-7.68-5.53-.44-10.2-.33-10.2-.33 1.36-1.52 2.08-3.37 2.3-5.48h-4.78v-.03zm26.03 12.866c-.757-3.48-4.11-2.823-4.11-2.823 4.364-1.366 4.11 2.823 4.11 2.823zm-4.127-.05c-.126-.4-1.23-3.228-6.818-2.354 0-.01 5.894-1.88 6.818 2.35zm-46.278-73.81v-.008c.142.063.28.12.42.18 2.29.932 5.448 2.096 8.258 3.105 2.878.924 4.75 1.365 4.75 1.365l-.064.292 1.83.634c.76.04 1.53.07 2.31.07 18.76 0 34.3-11.22 37.02-25.85-2.47 11.47-15.58 20.22-31.4 20.22-17.58 0-31.82-10.8-31.82-24.14s14.25-24.14 31.82-24.14c17.43 0 31.58 10.63 31.81 23.82 0-.11.01-.23.01-.34 0-3.79-.87-7.42-2.42-10.77-.23-.49-.48-.98-.74-1.46-.47-.88-.99-1.73-1.56-2.55-1.17-1.71-2.53-3.31-4.06-4.79-6.87-6.65-17.17-10.87-28.68-10.87-11.34 0-21.5 4.1-28.36 10.58.73.32 1.51.69 2.33 1.13 0 0 .36 3.12-2.55 3.56 0 0-1.6-.52-3.33-.74-1.21 1.61-2.25 3.31-3.09 5.09.59.99 1.42 2.14 2.56 3.51 0 0 1.16 1.89-1.24 3.56 0 0-1.34-1.15-2.87-2.91-.23.82-.42 1.64-.56 2.48-1.69 4.82-3.09 9.34-4.24 13.6l21.27 14.21c.41.28 1.33.7 2.55 1.21z"/><path fill="#D0D2D3" d="M102.282 126.095s-1.872-.44-4.75-1.365c1.82.653 3.49 1.24 4.684 1.657l.066-.292zm-13.427-4.65v.008l.42.172c-.14-.06-.278-.118-.42-.18z"/><ellipse fill="#FFF" cx="110.589" cy="97.164" rx="33.426" ry="25.665"/><path fill="#D0D2D3" d="M111.985 73.162c-17.574 0-31.822 10.808-31.822 24.14 0 13.334 14.248 24.144 31.822 24.144 15.814 0 28.928-8.752 31.398-20.22.274-1.277.425-2.585.425-3.92 0-.11-.01-.216-.015-.325-.227-13.18-14.377-23.81-31.808-23.81zm-27.43 23.22h.01c-.39-1.346-.61-2.758-.61-4.225 0-8.424 6.874-15.253 15.354-15.253s15.35 6.83 15.35 15.253c1.53 11.365-11.91 15.253-11.91 15.253-15.69 1.438-18.2-11.028-18.2-11.028zm41.607 13.664l-3.093-.315s1.89 8.08-6.46 2.26c0 0-12.11 6.48-8.38-2.13l-3.61.49v-.95l6.09-.36s-7.9 8.78 5.88 2.14c0 0 .98-2.57 1.18-3.96-.27-1.69-2.26-3.05-2.26-3.05 0-5.37 2.28-2.02 2.28-2.02 1.02-2.97 3.78 2.66 3.78 2.66-1.01 1.14-2.32 1.92-3.1 2.32-.14.91-.51 2.92-1.29 4.39 0 0 7.29 5.22 4.97-2.57h3.97v1.14zm13.23-12.743c-.036.072-.075.137-.11.207-.084.152-.165.3-.25.45-.078.13-.155.254-.236.38-.122.198-.25.395-.39.585-4.457 6.348-11.903 5.217-11.903 5.217-.612-.145-1.184-.31-1.73-.49-1.307-.374-2.524-.95-3.615-1.696-5.913-3.823-5.358-10.075-5.358-10.075 0-6.77 5.568-12.26 12.437-12.26 6.872 0 12.442 5.49 12.442 12.26 0 1.95-.48 3.79-1.3 5.42-.01 0 0 .01 0 .01zm-66.697-4.435c2.4-1.673 1.236-3.563 1.236-3.563-1.14-1.37-1.96-2.523-2.56-3.51-3.04-5.008.21-5.462 3.09-5.087 1.74.225 3.33.744 3.33.744 2.91-.436 2.55-3.563 2.55-3.563-.82-.44-1.59-.81-2.33-1.13-9.83-4.28-11.85 1.64-11.85 1.64-1.91 3.91 1.14 8.6 3.69 11.55 1.52 1.76 2.87 2.91 2.87 2.91z"/><path fill="#FFF" d="M124.77 103.65c-1.412-.467-2.61-1.045-3.615-1.695 1.09.747 2.308 1.322 3.616 1.695zm8.393-11.1c.008-.137.012-.274.012-.414 0 .14-.014.28-.022.418.004 0 .008 0 .01-.004z"/><linearGradient id="h" gradientUnits="userSpaceOnUse" x1="-546.59" y1="-643.548" x2="-546.59" y2="-654.622" gradientTransform="rotate(180 -206.7 -280)"><stop offset="0" stop-color="#FFF"/><stop offset=".14" stop-color="#FBFDFE"/><stop offset=".268" stop-color="#F0F6FA"/><stop offset=".391" stop-color="#DEECF3"/><stop offset=".51" stop-color="#C4DCEA"/><stop offset=".627" stop-color="#A2C9DE"/><stop offset=".743" stop-color="#79B1CF"/><stop offset=".858" stop-color="#4894BD"/><stop offset=".969" stop-color="#1174A9"/><stop offset="1" stop-color="#006AA3"/></linearGradient><path opacity=".4" fill="url(#h)" d="M133.163 92.55c.008-.137.012-.274.012-.414 0 .14-.014.28-.022.418.004 0 .008 0 .01-.004z"/><path fill="#FFF" d="M84.172 93.76c.003 0 .006.002.008.003-.006-.05-.017-.1-.022-.152.005.06.007.11.014.15z"/><linearGradient id="i" gradientUnits="userSpaceOnUse" x1="-497.594" y1="-642.064" x2="-497.594" y2="-655.398" gradientTransform="rotate(180 -206.7 -280)"><stop offset="0" stop-color="#FFF"/><stop offset=".14" stop-color="#FBFDFE"/><stop offset=".268" stop-color="#F0F6FA"/><stop offset=".391" stop-color="#DEECF3"/><stop offset=".51" stop-color="#C4DCEA"/><stop offset=".627" stop-color="#A2C9DE"/><stop offset=".743" stop-color="#79B1CF"/><stop offset=".858" stop-color="#4894BD"/><stop offset=".969" stop-color="#1174A9"/><stop offset="1" stop-color="#006AA3"/></linearGradient><path opacity=".4" fill="url(#i)" d="M84.172 93.76c.003 0 .006.002.008.003-.006-.05-.017-.1-.022-.152.005.06.007.11.014.15z"/><path fill="#1A1A1A" d="M105.074 133.023l-1.807 3.152 2.403 1.013-.47 1.187.408 1.03c7.78 4.145 9.996 14.654 9.996 14.654-.52-2.08-1.327-3.45-1.327-3.45-2.45-6.13-9.246-10.98-9.246-10.98l-.2-.32-2.54 6.41c.03.24-.09.23-.32 0l-13.94-5.32 3.8-5.7-12.53-6.2 3.55-7.08-19.94-8.29c-1.46 6.06-2 11.96-2.12 16.78-3.54 6.68-5.77 15.97 3.28 22.81 2.3 5.39 5.6 9.19 8.95 11.84.99.79 1.98 1.48 2.96 2.08.58.35 1.16.69 1.72.98 3.04 1.61 5.68 2.38 7.09 2.71.52.12.87.19 1.01.21l.07.01c.03.16.05.32.08.48 2 11.6-.65 17.88-.71 18.02l-.01.02c1.2 3.58 4.71 1.69 4.85 1.61l.02-.01c.39-.62.73-1.25 1.02-1.9 3.46-7.57.87-17.05.87-17.05 5.75 1.3 10.78-.04 13.85-1.3 1.14-.47 2-.92 2.54-1.22.4-.23.61-.37.63-.38l.01-.01c.56.59 1.05 1.3 1.48 2.1.54 1.01.98 2.15 1.34 3.3 1.18 3.83 1.44 7.87 1.46 8.15v.02h4.78c1.14-6.73-4.99-17.21-4.99-17.21 3.21-3.66 3.31-7.65 2.72-10.54 1.06.89 2.1 1.74 3.1 2.54 1.46-1.27 3.06-2.36 4.72-3.27-11.57-8.12-16.81-17.44-18.49-20.98zM81.944 163.1l-.95-.664 1.144-2.63-2.075-1.483-.114.572-.95-.36-.48 1.15c-10.44-1.897-14.34-6.812-14.34-6.812v-.002c3.21 2.39 7.8 4.47 14.2 6.03l1.06-3.64.17-.97.11.01.41-1.41s-28.6-3.69-9.1-25.84h.53c-17.75 24.29 9.39 25.17 9.39 25.17l-.3 1.43.29.01-.15.77 3.5.32 1.96-4.52h.86l-5.22 12.9zm23.03-11.826s-1.782-.813-.986-2.61c0 0 1.492.43.987 2.61zm1.268 3s1.39.745 1.326 2.934c0 0-1.704-.34-1.326-2.935zm20.26 8.826l.48-.634 2.805-3.682.497-.65c-.98-.528-1.917-1.07-2.825-1.616-1.87 1.264-3.46 2.59-4.74 3.778.8.616 1.51 1.147 2.09 1.577 1.04.776 1.68 1.227 1.68 1.227z"/><path fill="#FFF692" d="M96.702 128.836l.38-.424-.365-.223-1.073.83-5.7-2.86 6.798 11.06 1.573-5.36m1.755-.19l2.01 6.39c.32-2.61.81-5.36 1.222-7.47h-1.02l-.688-1.25-.39.14-1.133 2.18zm-.76-4.71l1.894 2 .13-.09-1.664-3.01-2.46 1.92.204.27"/><path fill="#6C6F71" d="M117.215 111.48c.785-1.474 1.156-3.484 1.292-4.392-.415.212-.688.323-.688.323l-.03-.21c-.2 1.4-1.18 3.97-1.18 3.97-13.79 6.64-5.89-2.13-5.89-2.13l-6.1.37v.95l3.6-.48c-3.74 8.61 8.37 2.13 8.37 2.13 8.36 5.82 6.46-2.25 6.46-2.25l3.09.32v-1.14h-3.98c2.32 7.78-4.97 2.57-4.97 2.57z"/><path fill="#1B75BB" d="M102.078 138.07l-2.007-6.386 1.14-2.183.39-.14-.26-.46-.13.09-1.89-2-1.89 1.1-.2-.27-.49.39.37.23-.38.43 1.61 3.04-1.57 5.36 5.22 8.5c.23.23.35.24.32 0-.76-1.03-.63-4.21-.2-7.66z"/><path fill="#1D8FCD" d="M118.507 107.087c.784-.402 2.09-1.18 3.1-2.315 0 0-2.768-5.63-3.788-2.657 0 0-2.29-3.35-2.29 2.027 0 0 1.99 1.365 2.25 3.057.01.07.02.14.02.21 0 0 .27-.11.69-.33zm-.72-1.16c-.08-.233-.346-.82-1.178-1.41 0 0 .38-1.407 1.17 1.41.02.067.03.11.03.11l-.03-.11z"/><path fill="#FFF692" d="M103.663 127.29c-.54-.19-1.813-.628-3.447-1.202l2.29 4.14h.868c.094-.474.182-.903.263-1.288l.026-1.65zm-4.427-1.55c-4.307-1.526-10.32-3.722-12.526-4.833l2.856 4.65 6.036 3.023 3.634-2.84z"/><path fill="#FAAF40" d="M97.533 124.73c-2.81-1.01-5.966-2.174-8.257-3.105l-.42-.173c-1.216-.503-2.14-.927-2.55-1.202l.404.657c2.207 1.11 8.22 3.307 12.526 4.834l-3.636 2.84-6.036-3.02.378.62 5.702 2.86 1.073-.83.493-.38 2.46-1.92 1.665 3.01.26.47.687 1.25h1.02l.073-.38h-.87l-2.288-4.14c1.633.58 2.906 1.02 3.447 1.2l-.026 1.65c.243-1.18.412-1.92.412-1.92l-1.833-.63c-1.195-.41-2.863-1-4.684-1.65z"/><path fill="#FFF" d="M117.788 105.927c.01.04.02.068.03.11.002 0-.006-.043-.03-.11zm-1.178-1.41c.83.59 1.1 1.177 1.178 1.41-.792-2.817-1.18-1.41-1.18-1.41zm-37.138 91.43c-5.438 2.025-3.926 3.29-3.926 3.29l28.092 6.327c3.038 4.555 5.31 0 5.31 0 3.792 4.555 4.81.253 4.81.253 1.515 3.038 4.913 0 4.913 0 1.37-10.123-32.58-9.363-32.58-9.363 1.68-1.863 2.96-3.782 3.95-5.72-.13.072-3.64 1.96-4.84-1.616l.01-.018c-.04.073-.07.146-.11.22-2.32 4.517-5.61 6.626-5.61 6.626zm34.08 8.603c-.967-3.29-2.826-2.783-2.826-2.783 2.48-1.353 2.827 2.783 2.827 2.783zm-4.597 0s-.957-4.68-7.44-2.147c0 0 7.06-4.05 7.44 2.147z"/><path fill="#CCC" d="M135.133 195.264c-.922-4.232-6.818-2.355-6.818-2.355 5.588-.88 6.692 1.95 6.818 2.35zm4.127.05s.256-4.19-4.11-2.824c-.002 0 3.353-.655 4.11 2.823zm-30.305 9.236c-.38-6.198-7.44-2.147-7.44-2.147 6.482-2.534 7.44 2.147 7.44 2.147zm4.598 0s-.347-4.136-2.827-2.783c0 0 1.86-.506 2.827 2.783z"/><path fill="#E6E6E6" d="M105.03 139.635s6.796 4.847 9.246 10.977c0 0 .81 1.368 1.327 3.45v-.004s-2.214-10.51-9.996-14.653l-.408-1.03-.38.947.2.313z"/><path fill="#4D4D4D" d="M79.286 128.52l12.528 6.2-3.796 5.696 13.945 5.315-5.22-8.49-6.8-11.06-.378-.61-2.855-4.65-.405-.65-21.27-14.21h-.005c-2.486 3.97-2.154 7.12-2.154 7.12h.003l19.94 8.29-3.54 7.08zm24.09 1.707l-.074.38c-.412 2.11-.902 4.863-1.224 7.467-.424 3.447-.552 6.627.204 7.66l2.543-6.41.374-.946.47-1.187-2.41-1.01 1.8-3.15 1.16-2.03-2.19-3.97s-.17.74-.42 1.92l-.27 1.29z"/><path fill="#670004" d="M144.983 158.898l-.973-2.73c-.008.324-.02.71-.048 1.144l-.56-.04.528.545c-.37 5.448-2.234 17.35-11.263 24.868l4.308-1.455v3.733s4.607-5.51 7.52-15.15c.047-4.796.935-9.003 1.478-11.13l-.99.215z"/><path fill="#E6E6E6" d="M79.465 155.248l-1.066 3.645c-6.41-1.562-11-3.645-14.21-6.025v.002s3.89 4.914 14.33 6.813l.48-1.153-.45-.17.91-3.11zm1.233-1.638l.296-1.424s-27.144-.88-9.396-25.166h-.537c-19.49 22.16 9.11 25.847 9.11 25.847l-.41 1.416.2-.688.75.014z"/><path fill="#670004" d="M154.644 167.37c.223 2.88-.628 3.796-.628 3.796-.34-2.657-1.953-3.795-1.953-3.795 2.106 5.29.776 9.45-.977 12.22.833 1.87 1.494 2.97 1.494 2.97 5.437-7.02 2.064-15.19 2.064-15.19z"/><path fill="#EC1C24" d="M148.583 181.228h1.032s-5.096-8.826-2.19-22.862l-.064.014c-.71 2.354-3.34 12.602 1.23 22.848z"/><path fill="#FFF" d="M80.842 154.386l-.78 3.934 2.076 1.483 2.21-5.094m-4.598-.43l-.11-.01-.175.97"/><path fill="#4D4D4D" d="M84.35 154.71l-2.212 5.093-1.144 2.633.95.664 5.22-12.908h-.855"/><path fill="#FFF692" d="M80.994 153.617l-.296-.008-.748-.02-.2.68-.285.96-.91 3.11.45.17.945.36.113-.58.78-3.94"/><path fill="#E6E6E6" d="M103.988 148.664c-.797 1.797.987 2.61.987 2.61.505-2.18-.987-2.61-.987-2.61z"/><path fill="#FAAF40" d="M135.198 167.748c-.27-.04-.506-.09-.672-.124l-3.863 8.1 4.535-7.976zm3.9-6.855l.165-.29h-1.386c.458.085.864.184 1.22.29z"/><path fill="#E6E6E6" d="M106.242 154.273c-.377 2.594 1.326 2.935 1.326 2.935.065-2.188-1.326-2.935-1.326-2.935z"/><path fill="#670004" d="M158.783 161.803s-7.125-6.555-12.49-8.78c-.336.12-.672.224-.987.3 1.115 1.86 2.274 3.433 3.425 4.76.89 1.018 1.76 1.896 2.6 2.646-.16-.17-.31-.32-.48-.49 0-.01 10.88 7.63 7.94 1.56z"/><path fill="#FAAF40" d="M140.382 151.537l.002-.046c-.043.01-.093.01-.138.02l-.097 3.13.23-3.1zm-1.66-2.284c.016-.004.032-.006.05-.008l.06-.4-.075-.04-.035.448z"/><path fill="#670004" d="M138.83 148.844l.577.322c.335-.038.588-.063.762-.077-13.52-13.21-8.57-4.25-8.57-4.25l4.6 2.54 2.55 1.41.07.03z"/><path fill="#EF4B4D" d="M131.74 137.617c3.723 1.57 8.085 7.705 10.34 11.193.02-.104.043-.205.063-.308-6.477-11.764-10.404-10.885-10.404-10.885z"/><path fill="#BE1E2D" d="M155.218 153.134c-.485-.213-.972-.412-1.455-.6-.48-.186-.957-.36-1.428-.52-1.365-.466-2.66-.823-3.782-1.092.044-.29.03-.604-.075-.953 0 0-.38-2.74-3.038-1.31 0 0-.063-3.6-2.88-2.36 0 0-.073.46-.19 1.1-.408-.84-.905-1.82-1.458-2.9l-.42-.8c-.23-.44-.473-.9-.72-1.36l-.455-.84c-.823-1.51-1.714-3.06-2.614-4.51-.53-.86-1.062-1.67-1.587-2.41-1.878-2.67-3.656-4.47-4.827-3.99 0 0-.4 5.76-2.05 8.29 0 0-3.67 2.66 3.37 5.95 0 0-4.96-8.97 8.56 4.24-.17.02-.43.04-.76.08l-.58-.32-.06.4-.05.01.03-.45-2.55-1.42.51 2.17c-3.35.58-8.45 1.83-13.15 4.43-1.66.91-3.26 1.99-4.72 3.26-.88.77-1.71 1.61-2.46 2.52l2.74 4.36s.77-1.02 2.2-2.48c.41-.42.88-.88 1.4-1.36 1.28-1.19 2.87-2.52 4.73-3.78 2.94-2 6.55-3.83 10.67-4.67.13-.03.26-.05.39-.08.56-.11 1.13-.2 1.72-.27.04-.01.09-.02.14-.02l-.01.04 2.17.55.86 2.42.59 1.65.97 2.73.99-.21c-.55 2.12-1.44 6.33-1.48 11.13-.05 4.45.64 9.41 3.02 13.69l5.06-.95s-.67-1.1-1.5-2.96c-1.95-4.36-4.83-12.9-2.45-21.5l.09-.02c-1.15-1.33-2.31-2.9-3.43-4.76.31-.08.65-.18.99-.31 5.36 2.23 12.48 8.78 12.48 8.78 2.93 6.07-7.94-1.57-7.94-1.57.16.17.32.33.48.49 9.85 9.99 10.57 1.33 10.57 1.33 2.51-.76 2.33-1.45 2.33-1.45-.36-.68-.79-1.3-1.26-1.89-2-2.5-4.87-4.31-7.75-5.59zm-23.61-20.122c-.163 4.46-2.685 6.74-2.685 6.74 2.657-3.132 2.087-7.434 2.087-7.434 3.7.442 7.654 9.34 7.654 9.34-4.93-9.07-7.057-8.646-7.057-8.646zm-12.34 27.88l-.378-.957c8.95-9.132 21.334-9.563 21.334-9.563-14.473 2.348-20.955 10.52-20.955 10.52zm12.47-23.275s3.928-.88 10.406 10.886c-.02.104-.043.205-.064.31-2.255-3.493-6.617-9.626-10.34-11.196zm10.4 13.03l-.017-.013.74-4.146h.74s-.43 3.517-1.46 4.16zm1.877 1.413c.568-.507.813-2.91.813-2.91.62 1.705-.813 2.91-.813 2.91zm3.41 6.303c-2.905 14.038 2.19 22.862 2.19 22.862h-1.032c-4.568-10.245-1.935-20.49-1.22-22.85l.063-.012zm-.882-7.053c-.21-.016-.416-.03-.632-.035 0 0 .23-.008.64.035 10.28.663 14.84 9.703 14.84 9.703-6.82-8.227-12.91-9.508-14.84-9.703z"/><path fill="#EC1C24" d="M146.543 151.31c1.923.195 8.023 1.477 14.84 9.703-.002 0-4.565-9.04-14.84-9.703zm-.633-.036c.217.006.424.02.633.035-.408-.05-.632-.04-.632-.04z"/><path fill="#FFF" d="M138.667 141.658s-3.952-8.897-7.654-9.34c0 0 .568 4.302-2.087 7.435 0 0 2.52-2.28 2.684-6.74-.003 0 2.125-.426 7.057 8.645zm3.453 8.977l.02.014c1.03-.65 1.46-4.16 1.46-4.16h-.74l-.74 4.14zm1.895 1.425s1.435-1.204.813-2.91c-.002-.002-.245 2.403-.813 2.91z"/><path fill="#EC1C24" d="M119.27 160.893s6.48-8.173 20.955-10.52c0 0-12.386.43-21.333 9.562l.377.958z"/><path fill="none" d="M124.824 161.873c-.58-.428-1.287-.957-2.094-1.573-.52.48-.99.94-1.4 1.36 1.06.2 2.238.304 3.494.213zm12.166-4.483s-.027.25-.095.646l.115-.096c-.006-.18-.016-.356-.02-.55zm-7.203 1.394l.876.55-.22.35h.61c.668-.45 1.337-.973 2-1.6 0 0-.193.787-.95 1.694.605.017 1.495-.246 1.66-1.898 0 0 .654-4.234 3.62-3.015l-.575-2.49 2.456 2.26-.564-2.195-.572-.59c-4.108.846-7.727 2.67-10.667 4.67.91.547 1.85 1.088 2.83 1.615l-.49.65z"/><path fill="#670004" d="M131.055 159.684h.493s.24.085.56.095c.753-.91.946-1.7.946-1.7-.66.62-1.33 1.15-2 1.6zm-3.175 4.08l-.896-1.3-.48.636s-.634-.45-1.68-1.227c-1.256.09-2.436-.012-3.494-.213-1.43 1.463-2.206 2.48-2.206 2.48 3.747 1.087 7.073.515 9.624-.47l-.5-.492-.368.587zm10.646-11.994c-.132.027-.267.053-.398.078l.57.59-.172-.667z"/><path fill="#E6E6E6" d="M129.532 161.135l-1.285 2.044.5.49.46.45 2.066-1.62c-.53-.32-1.11-.77-1.74-1.37z"/><path fill="#FFCC7A" d="M140.952 157.984l1.092-2.58-1.37.338-.83.98c.348.362.72.783 1.108 1.262z"/><path fill="#FFCC7A" d="M139.263 154.636l-2.454-2.26.57 2.487c.65.272 1.42.813 2.32 1.72l.96-.84 1.42-.455.27-.652 1.05-.122-.86-2.424-2.18-.553-.23 3.1.09-3.13c-.58.065-1.15.158-1.72.267l.17.666.56 2.196zm-2.25 3.302l-.115.095c-.057.326-.144.755-.27 1.227l.445-.39c-.027-.288-.045-.6-.06-.932zm-1.815 9.81l-4.535 7.976 3.86-8.1c-.158-.035-.255-.063-.255-.063-1.453-2.5.55-3.26 1.792-3.5-.55-1.3.657-2.54 1.36-3.11-.09-.31-.17-.67-.233-1.09l-1.688 1.99c-.14.2-.29.38-.46.54l-9.54 11.25c-5.04-.76-2.14-2.85-2.14-2.85l8.96-7.79c-.33-.1-.69-.26-1.06-.49l-2.07 1.62-7.29 5.72s-.97 4.18 2.59 4.18l-2.59 1.14s3.36 4.93 9.82 4.58l5.06-11.96c-.52.09-1.12.04-1.61-.02z"/><path fill="#FAAF40" d="M144.01 156.168l-.59-1.654-1.048.122-.274.652-1.422.454 1.37-.338-1.092 2.58c.29.36.59.74.904 1.17l1.538-.894-.837-1.053.84.063.56.04c.02-.433.04-.818.04-1.142zm-12.27 23.567c.64-.035 1.315-.12 2.022-.272l3.11-11.705c-.022.006-.044.01-.066.013l-5.067 11.97zm5.333-20.865l-.446.39c-.227.845-.582 1.82-1.127 2.584l1.688-1.988c-.047-.298-.08-.632-.115-.985zm2.772-2.15l.83-.978-.968.84c.045.046.093.092.138.14zm-14.338 16.915l9.535-11.248c-.665.65-1.546.978-2.71.608l-8.966 7.79s-2.892 2.09 2.14 2.85z"/><path fill="#D0D2D3" d="M140.654 84.397c-.002 0-.002.002-.002.002.26.48.506.96.736 1.46h.01s7.42-13.5-6.356-8.81h-.008c1.536 1.48 2.896 3.08 4.063 4.79 1.228-1.18 5.687-5.21 1.557 2.55z"/><path fill="#919496" d="M139.095 81.85c.566.826 1.088 1.678 1.558 2.55l.002-.003c4.13-7.763-.33-3.73-1.56-2.548z"/><path fill="#FFF" d="M139.845 156.72l-.138-.137c-.898-.908-1.668-1.45-2.323-1.72-2.966-1.22-3.62 3.015-3.62 3.015-.165 1.652-1.055 1.915-1.657 1.898-.317-.01-.56-.095-.56-.095h-1.104l-.91 1.46c.632.6 1.21 1.05 1.743 1.37.375.23.73.39 1.06.5 1.16.37 2.042.05 2.71-.61.167-.16.32-.34.46-.54.542-.76.9-1.74 1.124-2.58.127-.47.214-.9.27-1.22.066-.39.096-.64.096-.64.004.2.014.37.02.55.02.33.034.65.064.93.032.36.067.69.114.99.063.42.143.78.233 1.09-.7.58-1.913 1.82-1.364 3.12-1.24.24-3.245 1-1.79 3.5l.258.07c.17.04.41.09.68.13.49.07 1.09.11 1.61.02l.07-.01c.85-.16 1.46-.69.97-2.08.24.13.5.25.79.36 0 0 4.06-2.41 2.37-4.16.89-.77 1.56-1.73 1.56-1.73-.24-.35-.47-.68-.7-.99-.31-.43-.61-.81-.9-1.17-.39-.47-.76-.89-1.11-1.25zm-.748 4.173c-.357-.105-.762-.204-1.22-.29h1.386l-.166.29z"/><path fill="#FFF692" d="M129.787 158.784l-2.804 3.682.897 1.3.367-.587 1.285-2.05.91-1.45.22-.35"/><path fill="#919496" d="M71.366 85.795c.834-1.784 1.874-3.484 3.086-5.088-2.88-.374-6.125.08-3.086 5.088z"/><path fill="#D0D2D3" d="M102.282 126.095s-1.872-.44-4.75-1.365c1.82.653 3.49 1.24 4.684 1.657l.066-.292z"/><path fill="#BE1E2D" d="M110.726 113.865s8.67 4.708 7.063.46c0 0-.37-1.218.78-1.787l-1.96-1.074-5.89 2.4z"/><path fill="#D0D2D3" d="M88.855 121.445v.008l.42.172c-.14-.06-.278-.118-.42-.18zm-16.16-28.577c2.4-1.673 1.236-3.563 1.236-3.563-1.14-1.37-1.96-2.523-2.56-3.51-3.04-5.008.21-5.462 3.09-5.087 1.74.225 3.33.744 3.33.744 2.91-.436 2.55-3.563 2.55-3.563-.82-.44-1.59-.81-2.33-1.13-9.83-4.28-11.85 1.64-11.85 1.64-1.91 3.91 1.14 8.6 3.69 11.55 1.52 1.76 2.87 2.91 2.87 2.91z"/><path fill="#FFF" d="M124.77 103.65c-1.412-.467-2.61-1.045-3.615-1.695 1.09.747 2.308 1.322 3.616 1.695zm8.393-11.1c.008-.137.012-.274.012-.414 0 .14-.014.28-.022.418.004 0 .008 0 .01-.004z"/><linearGradient id="j" gradientUnits="userSpaceOnUse" x1="-546.59" y1="-643.548" x2="-546.59" y2="-654.622" gradientTransform="rotate(180 -206.7 -280)"><stop offset="0" stop-color="#FFF"/><stop offset=".14" stop-color="#FBFDFE"/><stop offset=".268" stop-color="#F0F6FA"/><stop offset=".391" stop-color="#DEECF3"/><stop offset=".51" stop-color="#C4DCEA"/><stop offset=".627" stop-color="#A2C9DE"/><stop offset=".743" stop-color="#79B1CF"/><stop offset=".858" stop-color="#4894BD"/><stop offset=".969" stop-color="#1174A9"/><stop offset="1" stop-color="#006AA3"/></linearGradient><path opacity=".4" fill="url(#j)" d="M133.163 92.55c.008-.137.012-.274.012-.414 0 .14-.014.28-.022.418.004 0 .008 0 .01-.004z"/><path fill="#FFF" d="M84.172 93.76c.003 0 .006.002.008.003-.006-.05-.017-.1-.022-.152.005.06.007.11.014.15z"/><linearGradient id="k" gradientUnits="userSpaceOnUse" x1="-497.594" y1="-642.064" x2="-497.594" y2="-655.398" gradientTransform="rotate(180 -206.7 -280)"><stop offset="0" stop-color="#FFF"/><stop offset=".14" stop-color="#FBFDFE"/><stop offset=".268" stop-color="#F0F6FA"/><stop offset=".391" stop-color="#DEECF3"/><stop offset=".51" stop-color="#C4DCEA"/><stop offset=".627" stop-color="#A2C9DE"/><stop offset=".743" stop-color="#79B1CF"/><stop offset=".858" stop-color="#4894BD"/><stop offset=".969" stop-color="#1174A9"/><stop offset="1" stop-color="#006AA3"/></linearGradient><path opacity=".4" fill="url(#k)" d="M84.172 93.76c.003 0 .006.002.008.003-.006-.05-.017-.1-.022-.152.005.06.007.11.014.15z"/><path fill="#1A1A1A" d="M126.502 163.1l.48-.634 2.805-3.682.497-.65c-.98-.528-1.917-1.07-2.825-1.616-1.87 1.264-3.46 2.59-4.74 3.778.8.616 1.51 1.147 2.09 1.577 1.04.776 1.68 1.227 1.68 1.227z"/><path fill="#FFF692" d="M96.702 128.836l.38-.424-.365-.223-1.073.83-5.7-2.86 6.798 11.06 1.573-5.36m1.755-.19l2.01 6.39c.32-2.61.81-5.36 1.222-7.47h-1.02l-.688-1.25-.39.14-1.133 2.18zm-.76-4.71l1.894 2 .13-.09-1.664-3.01-2.46 1.92.204.27"/><path fill="#6C6F71" d="M117.215 111.48c.785-1.474 1.156-3.484 1.292-4.392-.415.212-.688.323-.688.323l-.03-.21c-.2 1.4-1.18 3.97-1.18 3.97-13.79 6.64-5.89-2.13-5.89-2.13l-6.1.37v.95l3.6-.48c-3.74 8.61 8.37 2.13 8.37 2.13 8.36 5.82 6.46-2.25 6.46-2.25l3.09.32v-1.14h-3.98c2.32 7.78-4.97 2.57-4.97 2.57z"/><path fill="#1B75BB" d="M102.078 138.07l-2.007-6.386 1.14-2.183.39-.14-.26-.46-.13.09-1.89-2-1.89 1.1-.2-.27-.49.39.37.23-.38.43 1.61 3.04-1.57 5.36 5.22 8.5c.23.23.35.24.32 0-.76-1.03-.63-4.21-.2-7.66z"/><path fill="#1D8FCD" d="M118.507 107.087c.784-.402 2.09-1.18 3.1-2.315 0 0-2.768-5.63-3.788-2.657 0 0-2.29-3.35-2.29 2.027 0 0 1.99 1.365 2.25 3.057.01.07.02.14.02.21 0 0 .27-.11.69-.33zm-.72-1.16c-.08-.233-.346-.82-1.178-1.41 0 0 .38-1.407 1.17 1.41.02.067.03.11.03.11l-.03-.11z"/><path fill="#FFF692" d="M103.663 127.29c-.54-.19-1.813-.628-3.447-1.202l2.29 4.14h.868c.094-.474.182-.903.263-1.288l.026-1.65zm-4.427-1.55c-4.307-1.526-10.32-3.722-12.526-4.833l2.856 4.65 6.036 3.023 3.634-2.84z"/><path fill="#FAAF40" d="M97.533 124.73c-2.81-1.01-5.966-2.174-8.257-3.105l-.42-.173c-1.216-.503-2.14-.927-2.55-1.202l.404.657c2.207 1.11 8.22 3.307 12.526 4.834l-3.636 2.84-6.036-3.02.378.62 5.702 2.86 1.073-.83.493-.38 2.46-1.92 1.665 3.01.26.47.687 1.25h1.02l.073-.38h-.87l-2.288-4.14c1.633.58 2.906 1.02 3.447 1.2l-.026 1.65c.243-1.18.412-1.92.412-1.92l-1.833-.63c-1.195-.41-2.863-1-4.684-1.65z"/><path fill="#FFF" d="M117.788 105.927c.01.04.02.068.03.11.002 0-.006-.043-.03-.11zm-1.178-1.41c.83.59 1.1 1.177 1.178 1.41-.792-2.817-1.18-1.41-1.18-1.41z"/><path fill="#6C6F71" d="M115.35 118.01v.568s3.733-.316 4.937-3.29c0 .002-2.848 2.974-4.936 2.72z"/><path fill="#CCC" d="M135.133 195.264c-.922-4.232-6.818-2.355-6.818-2.355 5.588-.88 6.692 1.95 6.818 2.35zm4.127.05s.256-4.19-4.11-2.824c-.002 0 3.353-.655 4.11 2.823zm-30.305 9.236c-.38-6.198-7.44-2.147-7.44-2.147 6.482-2.534 7.44 2.147 7.44 2.147zm4.598 0s-.347-4.136-2.827-2.783c0 0 1.86-.506 2.827 2.783z"/><path fill="#E6E6E6" d="M105.03 139.635s6.796 4.847 9.246 10.977c0 0 .81 1.368 1.327 3.45v-.004s-2.214-10.51-9.996-14.653l-.408-1.03-.38.947.2.313z"/><path fill="#4D4D4D" d="M79.286 128.52l12.528 6.2-3.796 5.696 13.945 5.315-5.22-8.49-6.8-11.06-.378-.61-2.855-4.65-.405-.65-21.27-14.21h-.005c-2.486 3.97-2.154 7.12-2.154 7.12h.003l19.94 8.29-3.54 7.08zm24.09 1.707l-.074.38c-.412 2.11-.902 4.863-1.224 7.467-.424 3.447-.552 6.627.204 7.66l2.543-6.41.374-.946.47-1.187-2.41-1.01 1.8-3.15 1.16-2.03-2.19-3.97s-.17.74-.42 1.92l-.27 1.29z"/><path fill="#670004" d="M144.983 158.898l-.973-2.73c-.008.324-.02.71-.048 1.144l-.56-.04.528.545c-.37 5.448-2.234 17.35-11.263 24.868l4.308-1.455v3.733s4.607-5.51 7.52-15.15c.047-4.796.935-9.003 1.478-11.13l-.99.215z"/><path fill="#E6E6E6" d="M79.465 155.248l-1.066 3.645c-6.41-1.562-11-3.645-14.21-6.025v.002s3.89 4.914 14.33 6.813l.48-1.153-.45-.17.91-3.11zm1.233-1.638l.296-1.424s-27.144-.88-9.396-25.166h-.537c-19.49 22.16 9.11 25.847 9.11 25.847l-.41 1.416.2-.688.75.014z"/><path fill="#670004" d="M154.644 167.37c.223 2.88-.628 3.796-.628 3.796-.34-2.657-1.953-3.795-1.953-3.795 2.106 5.29.776 9.45-.977 12.22.833 1.87 1.494 2.97 1.494 2.97 5.437-7.02 2.064-15.19 2.064-15.19z"/><path fill="#EC1C24" d="M148.583 181.228h1.032s-5.096-8.826-2.19-22.862l-.064.014c-.71 2.354-3.34 12.602 1.23 22.848z"/><path fill="#FFF" d="M80.842 154.386l-.78 3.934 2.076 1.483 2.21-5.094m-4.598-.43l-.11-.01-.175.97"/><path fill="#FAAF40" d="M145.306 149.253l14.844-7.38 6.02-14.193 8.608-5.466 4.244-6.868s3.098 1.08 10.242 9.268l-5.737 5.915-11.64 3.04-8.832 10.93-11.44 4.75 25.258-7.38 6.783-7.64 6.98-7.21 2.582 4.44s-22.178 30.59-47.912 17.78z"/><path fill="#4D4D4D" d="M84.35 154.71l-2.212 5.093-1.144 2.633.95.664 5.22-12.908h-.855"/><path fill="#FFF692" d="M80.994 153.617l-.296-.008-.748-.02-.2.68-.285.96-.91 3.11.45.17.945.36.113-.58.78-3.94"/><path fill="#E6E6E6" d="M103.988 148.664c-.797 1.797.987 2.61.987 2.61.505-2.18-.987-2.61-.987-2.61z"/><path fill="#FAAF40" d="M135.198 167.748c-.27-.04-.506-.09-.672-.124l-3.863 8.1 4.535-7.976zm3.9-6.855l.165-.29h-1.386c.458.085.864.184 1.22.29z"/><path fill="#E6E6E6" d="M106.242 154.273c-.377 2.594 1.326 2.935 1.326 2.935.065-2.188-1.326-2.935-1.326-2.935z"/><path fill="#670004" d="M158.783 161.803s-7.125-6.555-12.49-8.78c-.336.12-.672.224-.987.3 1.115 1.86 2.274 3.433 3.425 4.76.89 1.018 1.76 1.896 2.6 2.646-.16-.17-.31-.32-.48-.49 0-.01 10.88 7.63 7.94 1.56z"/><path fill="#FAAF40" d="M140.382 151.537l.002-.046c-.043.01-.093.01-.138.02l-.097 3.13.23-3.1zm-1.66-2.284c.016-.004.032-.006.05-.008l.06-.4-.075-.04-.035.448z"/><path fill="#670004" d="M138.83 148.844l.577.322c.335-.038.588-.063.762-.077-13.52-13.21-8.57-4.25-8.57-4.25l4.6 2.54 2.55 1.41.07.03z"/><path fill="#EF4B4D" d="M131.74 137.617c3.723 1.57 8.085 7.705 10.34 11.193.02-.104.043-.205.063-.308-6.477-11.764-10.404-10.885-10.404-10.885z"/><path fill="#BE1E2D" d="M155.218 153.134c-.485-.213-.972-.412-1.455-.6-.48-.186-.957-.36-1.428-.52-1.365-.466-2.66-.823-3.782-1.092.044-.29.03-.604-.075-.953 0 0-.38-2.74-3.038-1.31 0 0-.063-3.6-2.88-2.36 0 0-.073.46-.19 1.1-.408-.84-.905-1.82-1.458-2.9l-.42-.8c-.23-.44-.473-.9-.72-1.36l-.455-.84c-.823-1.51-1.714-3.06-2.614-4.51-.53-.86-1.062-1.67-1.587-2.41-1.878-2.67-3.656-4.47-4.827-3.99 0 0-.4 5.76-2.05 8.29 0 0-3.67 2.66 3.37 5.95 0 0-4.96-8.97 8.56 4.24-.17.02-.43.04-.76.08l-.58-.32-.06.4-.05.01.03-.45-2.55-1.42.51 2.17c-3.35.58-8.45 1.83-13.15 4.43-1.66.91-3.26 1.99-4.72 3.26-.88.77-1.71 1.61-2.46 2.52l2.74 4.36s.77-1.02 2.2-2.48c.41-.42.88-.88 1.4-1.36 1.28-1.19 2.87-2.52 4.73-3.78 2.94-2 6.55-3.83 10.67-4.67.13-.03.26-.05.39-.08.56-.11 1.13-.2 1.72-.27.04-.01.09-.02.14-.02l-.01.04 2.17.55.86 2.42.59 1.65.97 2.73.99-.21c-.55 2.12-1.44 6.33-1.48 11.13-.05 4.45.64 9.41 3.02 13.69l5.06-.95s-.67-1.1-1.5-2.96c-1.95-4.36-4.83-12.9-2.45-21.5l.09-.02c-1.15-1.33-2.31-2.9-3.43-4.76.31-.08.65-.18.99-.31 5.36 2.23 12.48 8.78 12.48 8.78 2.93 6.07-7.94-1.57-7.94-1.57.16.17.32.33.48.49 9.85 9.99 10.57 1.33 10.57 1.33 2.51-.76 2.33-1.45 2.33-1.45-.36-.68-.79-1.3-1.26-1.89-2-2.5-4.87-4.31-7.75-5.59zm-23.61-20.122c-.163 4.46-2.685 6.74-2.685 6.74 2.657-3.132 2.087-7.434 2.087-7.434 3.7.442 7.654 9.34 7.654 9.34-4.93-9.07-7.057-8.646-7.057-8.646zm-12.34 27.88l-.378-.957c8.95-9.132 21.334-9.563 21.334-9.563-14.473 2.348-20.955 10.52-20.955 10.52zm12.47-23.275s3.928-.88 10.406 10.886c-.02.104-.043.205-.064.31-2.255-3.493-6.617-9.626-10.34-11.196zm10.4 13.03l-.017-.013.74-4.146h.74s-.43 3.517-1.46 4.16zm1.877 1.413c.568-.507.813-2.91.813-2.91.62 1.705-.813 2.91-.813 2.91zm3.41 6.303c-2.905 14.038 2.19 22.862 2.19 22.862h-1.032c-4.568-10.245-1.935-20.49-1.22-22.85l.063-.012zm-.882-7.053c-.21-.016-.416-.03-.632-.035 0 0 .23-.008.64.035 10.28.663 14.84 9.703 14.84 9.703-6.82-8.227-12.91-9.508-14.84-9.703z"/><path fill="#EC1C24" d="M146.543 151.31c1.923.195 8.023 1.477 14.84 9.703-.002 0-4.565-9.04-14.84-9.703zm-.633-.036c.217.006.424.02.633.035-.408-.05-.632-.04-.632-.04z"/><path fill="#FFF" d="M138.667 141.658s-3.952-8.897-7.654-9.34c0 0 .568 4.302-2.087 7.435 0 0 2.52-2.28 2.684-6.74-.003 0 2.125-.426 7.057 8.645zm3.453 8.977l.02.014c1.03-.65 1.46-4.16 1.46-4.16h-.74l-.74 4.14zm1.895 1.425s1.435-1.204.813-2.91c-.002-.002-.245 2.403-.813 2.91z"/><path fill="#EC1C24" d="M119.27 160.893s6.48-8.173 20.955-10.52c0 0-12.386.43-21.333 9.562l.377.958z"/><circle fill="#FFF" cx="125.512" cy="94.408" r=".996"/><path fill="#FAAF40" d="M140.907 144.505s.176-25.442 18.928-39.547l2.487.97s-15.78 3.757-21.415 38.577z"/><circle fill="#0071BC" cx="95.881" cy="92.609" r="10.841"/><path fill="#0F4481" d="M102.394 91.664c0 3.075-2.492 5.567-5.567 5.567s-5.566-2.49-5.566-5.56 2.5-5.56 5.57-5.56 5.57 2.49 5.57 5.57z"/><path fill="#FFF" d="M101.18 92.137c0 1.634-1.325 2.96-2.958 2.96-1.636 0-2.958-1.327-2.958-2.96 0-1.634 1.323-2.958 2.958-2.958 1.634 0 2.958 1.32 2.958 2.95z"/><circle fill="#FFF" cx="92.667" cy="88.029" r="1.44"/><path fill="#FFE8BA" d="M144.498 143.206s9.906-19.83 24.86-33.652l-7.036-3.627s-8.273 2.816-17.824 37.28z"/><path fill="none" d="M92.692 39.63c0-.114-.01-.242-.024-.382-.015-.14-.048-.272-.1-.397-.054-.12-.135-.22-.245-.31-.06-.04-.134-.07-.22-.09-.01.05-.014.09-.026.13-.108.42-.256.84-.42 1.27l.978.28c.032-.17.057-.34.057-.48zm-2.937 10.553c-.31.403-.596.766-.86 1.09-.04.648-.078 1.286-.108 1.914l-.032.84-.03.853c-.012.283-.02.555-.025.815-.005.262-.008.502-.008.722 0 .168.014.312.022.463.07-.018.136-.03.212-.056.33-.104.69-.248 1.083-.432.39-.182.8-.4 1.24-.65.43-.25.86-.525 1.28-.824.18-.125.34-.266.51-.396-.02-.23-.05-.45-.05-.685 0-.578.11-1.267.33-2.066.22-.8.44-1.5.68-2.12.08-.23.19-.46.3-.69h-3.63c-.31.42-.61.83-.92 1.23zm32.353 9.055c.104-.034.222-.092.33-.134-.05-.062-.1-.124-.146-.19-.295.15-.596.295-.905.443.006 0 .016.007.022.007.2 0 .43-.04.69-.126zm-64.018.074c-1.048.828-2.202 1.48-3.46 1.957-.07.02-.147.04-.217.07.522-.11 1.032-.26 1.526-.48.94-.42 1.81-.97 2.6-1.66.79-.7 1.51-1.5 2.14-2.42.25-.36.47-.75.69-1.15-.17.25-.32.52-.5.77-.81 1.11-1.75 2.08-2.79 2.91zm87.51-9.13c-.31.404-.596.767-.858 1.09-.042.65-.077 1.287-.108 1.915l-.032.84c-.012.286-.02.57-.03.853-.01.283-.02.555-.022.815-.004.262-.008.502-.008.722 0 .168.018.312.02.463.072-.018.137-.03.214-.056.33-.104.693-.248 1.082-.432.395-.182.81-.4 1.24-.65.438-.25.864-.525 1.288-.824.18-.125.342-.265.516-.396-.02-.228-.052-.452-.052-.685 0-.578.11-1.267.328-2.066.22-.8.446-1.5.68-2.12.092-.23.195-.46.304-.69h-3.637c-.307.42-.616.83-.925 1.23z"/><path fill="#F05A28" d="M60.712 35.778h-.004c.017.012.03.024.047.038l-.043-.038zm65.05-2.98c.076.384.11.775.11 1.173 0 .99-.115 2-.35 3.02-.234 1.03-.55 2.06-.946 3.1-.396 1.04-.856 2.08-1.377 3.12-.53 1.04-1.07 2.08-1.63 3.1-.57 1.03-1.14 2.04-1.71 3.03-.57 1-1.1 1.97-1.58 2.92-.06.11-.11.24-.17.41-.06.17-.12.35-.17.55-.05.2-.11.41-.16.63-.06.22-.1.44-.13.65v.22c0 .28.03.54.08.8.06.26.13.49.21.7.08.21.17.37.26.49s.18.19.27.19c.2 0 .43-.04.7-.12.26-.08.54-.2.83-.34.29-.14.59-.3.9-.49.17-.1.33-.2.49-.3.04-.64.12-1.29.3-1.95.22-.82.56-1.71 1.03-2.67.46-.96.95-1.79 1.49-2.49.3-.4.63-.77.97-1.11.29-.56.59-1.11.88-1.67.52-1.04.98-2.08 1.37-3.11.4-1.03.71-2.06.95-3.09.23-1.02.35-2.03.35-3.02 0-.39-.04-.79-.11-1.17-.07-.38-.2-.73-.38-1.03-.18-.3-.43-.55-.74-.73l-2.48-2.19c.12.12.23.26.32.41.18.31.3.65.38 1.03zm8.484 14.817c0 .5-.055 1.054-.157 1.664-.11.61-.23 1.23-.36 1.87-.14.64-.29 1.37-.46 2.18-.18.81-.27 1.5-.27 2.07 0 .48.04.85.13 1.12.08.27.27.4.57.4.22 0 .45-.06.69-.16.24-.11.48-.25.73-.43.24-.18.49-.38.73-.6.14-.13.27-.27.4-.41l.35-1.68c.13-.64.25-1.27.36-1.88s.15-1.17.15-1.67c0-.33-.03-.59-.09-.78-.07-.19-.15-.34-.25-.45l-2.9-2.51c.1.11.18.26.24.44.05.18.09.44.09.77zm13.688-12.38c.14.56.21 1.14.21 1.747 0 .5-.072 1.03-.22 1.587-.147.55-.344 1.12-.595 1.7-.26.58-.55 1.16-.89 1.75-.34.59-.7 1.18-1.08 1.76.09-.04.25-.04.47-.02.22.02.47.03.76.04.28.01.6.02.93.02l.97.03.87.03.29.01c.19-.38.38-.76.55-1.13.25-.58.44-1.15.59-1.7.14-.56.22-1.09.22-1.59 0-.61-.07-1.19-.21-1.75s-.35-1.05-.61-1.47c-.27-.42-.58-.76-.95-1.01-.14-.09-.29-.15-.43-.21l-.01-.02-1.7-1.55h-.03c.06.09.14.16.2.26.26.41.46.9.6 1.46zm9.773 10.285l-.016.002c.02.007.03.012.04.02l-.02-.022zm-7.367.554c-.212.245-.442.368-.695.368h-6.027c-.304.418-.61.83-.922 1.23-.31.403-.596.767-.858 1.09-.04.65-.077 1.287-.108 1.915l-.03.84c-.012.287-.02.572-.03.854-.01.29-.02.56-.024.82-.004.26-.008.5-.008.72 0 .57.05 1.04.158 1.43.104.39.256.71.456.95.197.25.44.42.732.54.288.11.61.17.97.17.167 0 .378-.04.61-.1-.01-.15-.022-.29-.022-.46 0-.22.004-.46.008-.72.006-.26.016-.53.023-.82l.03-.85.03-.84c.03-.62.067-1.26.11-1.91.262-.32.55-.69.857-1.09.31-.4.618-.81.922-1.23h3.637c.17-.37.35-.73.57-1.08.35-.56.77-1.06 1.24-1.49.13-.11.27-.2.4-.3l-1.84-1.69c.07.21.11.45.11.74 0 .39-.11.71-.31.96zm9.315 2.826c0 .634-.213 1.344-.638 2.13-.424.787-.918 1.462-1.484 2.024-.568.563-1.24 1.063-2.02 1.503-.78.44-1.627.783-2.54 1.028.157.275.313.505.463.69.152.184.31.328.467.43.155.102.32.173.495.214.172.04.357.06.56.06.625 0 1.288-.13 1.985-.37.694-.25 1.368-.55 2.03-.92.656-.37 1.28-.77 1.864-1.21.247-.19.472-.36.69-.54l.03-.28c.09-.68.193-1.38.315-2.08.1-.57.22-1.18.363-1.81-.21-.48-.495-.88-.864-1.22-.09-.09-.21-.16-.31-.24l.01-.02-2.26-1.88c.22.26.4.53.55.85.21.48.32 1.02.32 1.61zm12.23-1.728c-.05.318-.134.735-.25 1.247-.113.51-.197.93-.25 1.26-.053.33-.078.6-.078.82 0 .37.036.69.108.94.073.25.17.45.29.6.12.15.255.26.41.32.147.06.31.09.477.09.47 0 .958-.11 1.46-.32.092-.04.175-.08.266-.13.05-.31.122-.66.22-1.1.116-.52.2-.93.25-1.25.056-.32.08-.57.08-.75 0-.23-.043-.44-.125-.62-.083-.19-.196-.34-.338-.47-.14-.13-.306-.23-.494-.29l-2.07-1.76c.09.18.13.39.13.62 0 .18-.03.43-.08.74zm-5.975-.792c0 .387-.024.936-.075 1.645-.054.712-.067 1.333-.048 1.867h.172c.2-.418.47-.966.78-1.646.31-.677.64-1.24.98-1.69l-1.98-1.376c.07.1.12.243.13.43.01.19.02.446.02.77zm22.842-9.75h-.027l.103.063-.076-.063zm-9.234 23.167l.08.065c-.025-.024-.05-.053-.072-.08l-.008.015zm7.294-1.13l-.016-.01c-.027-.03-.056-.07-.09-.1-.04-.036-.088-.06-.13-.093l-2.77-2.418c.447.4.673.972.673 1.716 0 .04-.01.134-.02.287-.01.15-.05.33-.11.52-.06.2-.15.41-.27.63-.12.22-.29.43-.51.62-.22.19-.5.34-.83.47-.34.12-.74.18-1.23.18-.39 0-.74-.05-1.05-.14-.27-.08-.5-.2-.7-.35l2.39 1.96h.01c.1.18.23.35.39.48.22.18.49.32.81.41.31.09.66.13 1.05.13.48 0 .88-.06 1.22-.19.33-.13.61-.28.83-.48.22-.19.39-.4.51-.62.12-.22.2-.43.27-.63.05-.2.09-.38.1-.53s.01-.25.01-.29c0-.68-.2-1.21-.57-1.61v-.01zM66.916 50.97c.105-.22.22-.405.327-.61.203-1.247.312-2.423.312-3.52 0-.958-.097-1.895-.292-2.812-.193-.917-.506-1.784-.936-2.602-.43-.816-.99-1.573-1.683-2.266-.125-.125-.262-.243-.396-.363l-.03-.024c-.068-.06-.138-.122-.21-.18l-2.253-1.923c.686.688 1.242 1.437 1.668 2.248.43.818.743 1.685.936 2.6.19.918.29 1.855.29 2.814 0 1.32-.15 2.75-.44 4.292-.3 1.54-.72 2.945-1.28 4.213-.43.985-.97 1.907-1.55 2.798-.22.403-.45.792-.7 1.15-.64.92-1.35 1.728-2.15 2.42-.8.696-1.67 1.25-2.61 1.662-.5.216-1.01.373-1.53.475-1.2.424-2.48.645-3.86.645-.49 0-.98-.038-1.49-.112-.51-.075-1-.177-1.48-.305s-.93-.272-1.35-.433c-.43-.16-.8-.326-1.12-.497-.09-.026-.14-.06-.2-.092l2.77 2.45c.08.058.18.108.32.15.32.172.69.337 1.11.497.42.16.87.305 1.35.434.47.12.97.22 1.47.3.5.07 1 .11 1.49.11 1.46 0 2.81-.24 4.07-.72 1.26-.48 2.41-1.13 3.46-1.96 1.05-.83 1.98-1.8 2.79-2.91.69-.95 1.28-1.98 1.78-3.04.02-.73.11-1.47.32-2.23.22-.83.56-1.72 1.02-2.68z"/><path fill="#F05A28" d="M48.378 39.46c.207-.303.875-.454 2.003-.454.89 0 1.53.323 1.92.97-.48.648-.88 1.37-1.21 2.16-.32.794-.59 1.575-.81 2.343-.22.76-.4 1.6-.55 2.51-.28 1.75-.42 2.64-.41 2.66.03.02-.09 1.02-.36 3-.1.69-.18 1.29-.24 1.8s-.1.96-.12 1.34c-.02.38-.04.76-.04 1.12 0 .38.02.71.04.97.03.26.09.47.19.62.1.15.25.27.46.33.21.06.48.1.83.1 1.05 0 2.04-.21 2.98-.62.95-.41 1.82-.97 2.61-1.66.8-.69 1.51-1.5 2.15-2.42.64-.92 1.17-1.98 1.62-3.19.45-1.21.79-2.34 1.03-3.4s.36-2.08.36-3.07c0-1.21-.2-2.29-.59-3.25-.4-.96-.95-1.77-1.67-2.43-.72-.67-1.58-1.17-2.58-1.52-1-.35-2.11-.53-3.31-.53-.88 0-1.75.05-2.61.16-.86.1-1.66.27-2.4.49-.73.22-1.38.5-1.94.84-.56.34-.98.75-1.26 1.22-.76 1.19-1.39 2.1-1.88 2.75-.49.64-.9.97-1.24.97-.05 0-.11-.01-.16-.03l2.74 2.41.03.03c.09.06.18.09.29.09.34 0 .75-.33 1.24-.97.26-.35.57-.78.91-1.28l.03-.08c.51-1.46 1.18-2.82 2.02-4.06zm26.05 18.535c-.253.29-.564.585-.933.885-.37.3-.773.572-1.21.814-.437.244-.893.443-1.366.598-.48.156-.95.232-1.43.232-.5 0-.99-.102-1.47-.31-.09-.037-.16-.092-.25-.135v.01l1.78 1.61c.03.04.06.09.09.12.19.2.4.38.63.53l.01.01c.2.13.4.25.62.34.47.21.96.31 1.46.31.47 0 .95-.08 1.42-.23s.93-.36 1.37-.6c.43-.24.84-.52 1.21-.82.34-.28.63-.56.87-.83-.65-.02-1.2-.23-1.64-.65-.46-.44-.86-1.08-1.2-1.92zm47.932-22.49c0-.306-.005-.566-.02-.782s-.062-.325-.14-.325c-.29 0-.6.2-.93.595-.332.397-.664.936-.997 1.612-.33.678-.726 1.78-1.188 3.307l-.692 2.292s-.142.71-.422 2.127c-.27 1.42-.44 2.66-.5 3.74.47-.84.98-1.79 1.5-2.84.54-1.05 1.04-2.14 1.51-3.26.48-1.11.89-2.23 1.23-3.34.35-1.11.57-2.14.66-3.1zm7.914 22.49c-.255.29-.564.585-.932.885-.37.3-.773.572-1.212.814-.438.244-.895.443-1.366.598-.475.156-.948.232-1.423.232-.5 0-.99-.102-1.46-.31-.47-.205-.89-.5-1.26-.885-.06-.07-.11-.16-.17-.23-.11.04-.22.1-.33.13-.26.08-.49.12-.7.12 0 0-.01-.01-.02-.01-.05.02-.09.04-.14.07-.43.2-.87.38-1.32.54-.44.16-.87.28-1.29.38-.42.09-.81.14-1.18.14-.22 0-.44-.05-.65-.13l1.96 1.87.03.03c.02.02.04.03.05.04l.07.07.01-.01c.45.41.93.62 1.44.62.37 0 .76-.05 1.19-.14.42-.1.85-.22 1.29-.38.44-.16.88-.34 1.32-.55.36-.17.71-.34 1.05-.52.1.14.2.29.32.41.37.38.79.68 1.26.88.48.21.97.31 1.47.31.47 0 .95-.08 1.43-.23.47-.15.93-.35 1.37-.6.44-.24.84-.52 1.21-.82.34-.28.63-.56.88-.83-.65-.02-1.2-.23-1.64-.65-.46-.44-.86-1.08-1.2-1.92zm.244-10.03c-.43 0-.845.105-1.256.317-.404.212-.79.5-1.152.863-.36.362-.69.777-.995 1.244-.305.46-.602 1.04-.894 1.72-.29.68-.5 1.28-.62 1.8s-.18 1-.18 1.46c0 .27.02.53.06.78.04.25.1.48.2.68.1.2.22.36.38.48s.36.18.6.18c.39 0 .74-.17 1.06-.51s.59-.74.82-1.22c.23-.47.42-.96.56-1.47.15-.5.24-.93.28-1.26l1.17-5.1zm19.795 10.525c-.234-.295-.438-.614-.617-.955-.618.357-1.204.692-1.73.985-.783.438-1.48.804-2.096 1.098-.61.293-1.157.51-1.633.66-.476.145-.906.22-1.293.22-.79 0-1.486-.24-2.09-.722-.604-.48-1.108-1.173-1.51-2.078-.283-.635-.52-1.37-.702-2.19 0 0-.002.003-.006.004l.24 1.1c-.24.338-.562.735-.963 1.188-.402.455-.858.89-1.36 1.3-.5.414-1.038.763-1.612 1.048-.57.285-1.15.428-1.72.428.33.803.72 1.422 1.17 1.85.47.44 1.05.66 1.74.66.58 0 1.15-.14 1.73-.427.58-.29 1.12-.64 1.62-1.05.51-.41.96-.85 1.36-1.3.11-.12.19-.23.29-.34l2.24 1.92c.14.14.27.27.42.38l.14.09h.01c.57.41 1.22.62 1.94.62.39 0 .82-.07 1.3-.22.48-.15 1.02-.37 1.64-.66.61-.29 1.31-.66 2.1-1.1.5-.28 1.05-.6 1.63-.93-.12-.05-.24-.09-.35-.15-.73-.37-1.34-.86-1.83-1.47zm-5.623-18.432c.275-.594.5-1.15.677-1.666.177-.517.27-.94.27-1.27 0-.115-.012-.242-.023-.383-.016-.14-.05-.28-.103-.4-.05-.13-.13-.23-.24-.31-.11-.09-.26-.13-.46-.13-.27 0-.55.24-.82.71-.28.47-.54 1.08-.8 1.83-.26.74-.5 1.56-.73 2.45-.23.89-.43 1.76-.62 2.6.16.01.31.03.47.04s.32.02.49.04c.32-.53.65-1.1.99-1.71.34-.62.65-1.23.92-1.82zm-6.272 5.882c-.316-.047-.56-.09-.734-.13-.174-.042-.357-.082-.553-.124-.19-.042-.44-.084-.74-.13-.3-.047-.73-.106-1.3-.175-.25-.03-.44-.1-.58-.2l2.63 2.21c.07.12.15.22.28.31.07.05.15.09.23.12l.01.01c.11.04.22.07.35.08l.23.03c.05-.66.11-1.32.2-1.98zm17.8 4.876c.366-.5.554-.915.554-1.242 0-.46-.09-.84-.263-1.135-.18-.3-.39-.45-.64-.45-.45 0-.84.08-1.16.24-.32.16-.59.37-.8.63-.22.26-.4.55-.53.89-.13.33-.28.74-.46 1.23s-.27.89-.29 1.21c-.02.31-.03.58-.03.81.38 0 .79-.1 1.23-.29.44-.19.86-.43 1.24-.73.38-.29.76-.69 1.12-1.19zm23.557 2.104l-2.9-2.51-.238 3.67c-.27.177-.576.376-.924.595-.346.22-.713.426-1.105.62-.39.193-.8.354-1.222.485-.425.13-.855.196-1.293.196-.784 0-1.418-.16-1.9-.478-.478-.32-.86-.738-1.144-1.254-.29-.52-.5-1.098-.63-1.742-.14-.642-.25-1.293-.33-1.953h-.26l-2.81 7.82c-.15.4-.29.74-.42 1.01-.13.26-.27.48-.4.65-.14.17-.28.28-.44.35-.16.07-.33.1-.52.1-.43 0-.78-.1-1.04-.28-.26-.19-.46-.43-.61-.74-.14-.31-.24-.66-.28-1.05-.02-.15-.02-.3-.03-.45-.42.3-.87.59-1.35.88-.52.31-1.07.59-1.63.83s-1.16.43-1.78.58c-.61.14-1.23.22-1.86.22-.75 0-1.42-.11-2.03-.32.16.29.33.57.54.82.49.61 1.1 1.1 1.83 1.46.73.36 1.58.54 2.56.54.62 0 1.24-.08 1.86-.22.61-.15 1.2-.34 1.77-.58.57-.24 1.11-.52 1.63-.83.14-.09.27-.17.41-.26l1.47 1.25c.1.14.23.26.37.36.03.02.08.03.12.05l.05.04v-.02c.24.12.52.19.87.19.18 0 .36-.03.51-.1.15-.07.3-.19.43-.35.14-.17.27-.39.4-.65s.27-.61.42-1.01l2-5.57 2.76 2.37h.03c.12.11.23.23.37.32.48.32 1.12.48 1.9.48.44 0 .87-.06 1.29-.19.43-.13.83-.3 1.23-.49s.76-.4 1.11-.62l.7-.45c.06-.12.14-.23.23-.33l.22-3.48zm7.145-13.05c-.164-.305-.37-.557-.628-.753-.258-.196-.54-.338-.854-.428s-.628-.14-.94-.14c-.242 0-.493.07-.753.22-.263.15-.51.33-.738.53-.23.2-.43.41-.597.63-.166.22-.272.39-.313.52-.178.22-.377.39-.603.49-.23.1-.458.15-.696.15-.202 0-.397-.05-.59-.16-.01-.01-.015-.01-.024-.02l2.634 2.31c.09.08.188.15.294.21.193.1.387.16.586.16.24 0 .472-.05.695-.16.23-.1.428-.27.605-.49.044-.13.146-.3.314-.52.168-.22.367-.44.596-.64.23-.21.476-.38.738-.54.176-.1.344-.16.512-.19 0-.03.004-.07.004-.1 0-.44-.082-.82-.242-1.13zm6.434 1.098c-.377-.67-.858-1.22-1.442-1.654l-2.33-1.98c.326.332.626.696.87 1.125.376.66.57 1.46.57 2.38 0 1.11-.136 2.05-.397 2.84-.265.78-.608 1.47-1.035 2.05-.424.58-.902 1.1-1.425 1.54-.527.44-1.053.87-1.58 1.3-.526.42-1.024.86-1.494 1.32s-.85.99-1.15 1.6c-.16.5-.38.88-.67 1.14-.28.26-.6.39-.94.39-.36 0-.69-.08-.96-.24-.04-.03-.07-.06-.11-.09l2.69 2.24c.07.14.18.26.33.35.28.16.6.24.97.24.35 0 .66-.13.95-.39.29-.26.51-.65.67-1.15.3-.61.69-1.14 1.16-1.6.47-.46.97-.9 1.49-1.33.53-.42 1.06-.86 1.58-1.3.53-.45 1-.96 1.43-1.55.43-.59.77-1.27 1.03-2.06.27-.78.4-1.73.4-2.84 0-.92-.19-1.71-.57-2.38zM73.227 54.324c.142-.505.232-.927.274-1.264l1.17-5.097c-.43 0-.84.106-1.25.32-.41.21-.79.5-1.15.862-.36.362-.69.777-.99 1.244-.3.46-.6 1.04-.89 1.72-.29.68-.5 1.28-.62 1.8s-.18 1-.18 1.46c0 .27.02.53.06.78s.1.48.2.68c.1.2.22.36.38.48s.36.18.6.18c.39 0 .74-.17 1.06-.51.32-.34.59-.75.82-1.22.23-.47.42-.96.56-1.47zm5.173-6.71c0 .5-.053 1.055-.158 1.665-.105.61-.224 1.23-.36 1.87-.133.64-.288 1.37-.46 2.18-.173.81-.26 1.5-.26 2.07 0 .48.044.85.132 1.12.09.27.28.4.572.4.22 0 .45-.06.69-.16.24-.11.483-.25.73-.43.245-.18.49-.38.736-.6.144-.13.272-.27.406-.41.128-.61.25-1.18.356-1.68.134-.64.254-1.27.36-1.88s.156-1.16.156-1.66c0-.33-.028-.59-.085-.78-.058-.19-.14-.34-.244-.45-.1-.1-.22-.17-.36-.2l-2.54-2.31c.11.1.19.25.25.44s.09.45.09.77zm8.54-4.032c.314-.526.643-1.098.984-1.712.34-.613.648-1.22.92-1.812.275-.594.5-1.15.678-1.666s.268-.94.268-1.27c0-.115-.008-.242-.024-.383-.017-.14-.05-.28-.104-.4-.052-.13-.132-.23-.244-.31-.11-.09-.265-.13-.464-.13-.273 0-.548.24-.826.71-.278.47-.546 1.08-.803 1.83-.257.74-.5 1.56-.724 2.45-.22.89-.43 1.76-.62 2.6.16.01.32.03.47.04.16.01.32.02.49.04zm-4.366 2.358c-.316-.047-.56-.09-.735-.13-.18-.042-.36-.082-.56-.124s-.45-.084-.74-.13c-.3-.048-.74-.106-1.3-.175-.15-.02-.28-.05-.38-.1l2.41 2.08c.06.13.16.24.29.34.06.05.14.09.23.12.1.04.21.07.35.09l.22.03c.05-.66.11-1.32.2-1.97zm7.608-13.363l.006.024.057.03-.063-.05zm1.905 2.657c.14.56.212 1.14.212 1.748 0 .462-.07.95-.2 1.46.08.02.16.052.22.096.11.083.19.188.24.313.05.13.08.26.1.4.01.14.02.27.02.39 0 .14-.03.31-.06.48l-.98-.28c-.06.15-.11.3-.18.44-.25.58-.55 1.17-.89 1.76-.34.6-.7 1.18-1.08 1.77.09-.03.25-.04.47-.02.22.02.47.04.76.05l.93.03.97.03.88.03.29.02c.2-.38.38-.76.55-1.13.25-.57.45-1.14.59-1.7.14-.55.22-1.08.22-1.59 0-.6-.07-1.19-.21-1.74s-.35-1.05-.61-1.47c-.26-.41-.58-.75-.95-1l-2.19-1.83c.08.1.17.2.24.32.26.42.46.91.6 1.47zm14.397 18.02l2.022 2.055c-.92.98-1.897 1.84-2.933 2.6-.45.32-.934.64-1.452.95-.51.31-1.06.59-1.63.83-.57.24-1.16.43-1.77.58-.61.14-1.23.22-1.86.22-.97 0-1.83-.18-2.56-.54-.73-.36-1.34-.85-1.83-1.46-.23-.3-.44-.62-.62-.96-.62.35-1.2.69-1.72.98-.78.43-1.48.8-2.09 1.09-.61.29-1.15.51-1.63.66s-.91.22-1.29.22c-.79 0-1.48-.24-2.09-.72-.6-.48-1.11-1.18-1.51-2.08-.39-.89-.69-1.96-.9-3.21l-.02.02.46 2.1c-.24.34-.56.73-.96 1.19-.4.45-.85.88-1.36 1.3-.5.41-1.04.76-1.61 1.04-.57.28-1.15.43-1.72.43h-.01c.33.8.72 1.42 1.17 1.85.47.44 1.05.66 1.74.66.58 0 1.15-.14 1.73-.43.58-.29 1.12-.64 1.62-1.05.5-.41.96-.85 1.36-1.3.11-.13.2-.23.3-.35l2.32 2.03v-.01c.11.1.21.21.32.3.61.48 1.3.72 2.09.72.39 0 .82-.08 1.3-.22.48-.15 1.02-.37 1.64-.66.61-.3 1.31-.66 2.1-1.1l1.31-.74 1.75 1.42.23.18.11.09.02-.01c.24.17.48.35.76.48.73.36 1.59.54 2.56.54.63 0 1.25-.08 1.86-.22.61-.15 1.2-.34 1.77-.58.57-.24 1.11-.52 1.63-.83s1-.63 1.45-.96c1.04-.76 2.02-1.62 2.93-2.6l-2.02-2.06-2.9-2.52zm-4.044-7.352l-.02.002c.058.044.12.082.175.13l-.154-.132z"/><path fill="#F05A28" d="M103.81 48.9c0 .634-.213 1.344-.636 2.13-.424.787-.92 1.462-1.485 2.024-.57.563-1.24 1.063-2.03 1.503s-1.63.783-2.54 1.028c.16.275.31.505.46.69.15.184.3.328.46.43.15.102.32.173.49.214s.36.06.56.06c.62 0 1.29-.13 1.98-.37.69-.25 1.37-.55 2.03-.92.66-.37 1.28-.77 1.86-1.21.59-.44 1.08-.85 1.49-1.24l-.23-.08c.3-.65.46-1.24.46-1.77 0-.6-.11-1.14-.32-1.62-.21-.48-.5-.89-.88-1.23l-2.89-2.5c.36.34.65.74.86 1.22.21.48.31 1.02.31 1.61z"/><path fill="#F05A28" d="M100.372 50.816c.37-.5.552-.915.552-1.242 0-.46-.086-.84-.26-1.135-.172-.3-.385-.45-.637-.45-.452 0-.838.08-1.157.24-.32.16-.588.37-.803.63-.214.26-.39.55-.52.89-.13.33-.283.74-.456 1.23-.17.49-.27.89-.29 1.21-.02.31-.03.58-.03.81.38 0 .79-.1 1.24-.29.45-.19.86-.43 1.24-.73.39-.29.76-.69 1.13-1.19zm-5.564-5.696c0 .39-.105.708-.313.955-.21.245-.44.368-.69.368h-6.03c-.304.418-.61.83-.92 1.23-.313.402-.597.767-.86 1.09-.04.65-.078 1.286-.11 1.915l-.03.84-.03.854c-.01.282-.02.555-.024.815v.72c0 .566.05 1.042.16 1.428.11.388.26.704.46.95.2.245.45.422.74.533.29.11.61.165.97.165.17 0 .38-.04.62-.102-.01-.15-.02-.29-.02-.46 0-.22.01-.46.01-.72.01-.26.01-.53.03-.81l.03-.85.03-.84c.03-.62.07-1.26.11-1.91.26-.32.55-.68.86-1.09.31-.4.62-.81.92-1.23h3.63c.18-.37.36-.73.58-1.08.36-.56.77-1.05 1.24-1.48.19-.17.4-.32.61-.46l-2.23-1.85c.06.06.12.12.16.21.09.22.13.5.13.84zm-.388-1.124l-.012.007c.012.005.026.005.04.012l-.027-.02z"/><path fill="#FFCC7A" d="M46.238 61.134c.425.16.875.304 1.35.432.477.128.97.23 1.477.305.506.08 1.004.12 1.49.12 1.376 0 2.66-.22 3.858-.64.07-.02.146-.04.216-.07 1.26-.48 2.41-1.13 3.46-1.96 1.05-.83 1.98-1.79 2.79-2.91.18-.24.33-.51.5-.77.58-.89 1.12-1.81 1.55-2.79.55-1.27.98-2.67 1.27-4.21.29-1.54.44-2.97.44-4.29 0-.96-.1-1.89-.29-2.81-.2-.91-.51-1.78-.94-2.6-.43-.81-.99-1.56-1.67-2.25l-.02-.02c-.3-.29-.63-.57-.99-.83l-.05-.04c-.46-.33-.96-.64-1.51-.91-1-.5-2.17-.89-3.5-1.17-1.34-.28-2.86-.42-4.57-.42-.92 0-1.82.07-2.7.2-.88.14-1.71.35-2.49.64-.78.29-1.5.65-2.15 1.1-.65.45-1.22.99-1.7 1.62-.48.63-.85 1.36-1.11 2.17-.27.82-.4 1.74-.4 2.76 0 .93.17 1.45.52 1.56.05.02.1.03.16.03.34 0 .75-.32 1.24-.97.49-.64 1.12-1.56 1.88-2.75.28-.47.7-.88 1.26-1.22.56-.34 1.21-.62 1.94-.84.74-.22 1.54-.38 2.4-.49.86-.1 1.73-.16 2.61-.16 1.2 0 2.31.18 3.31.53 1 .35 1.86.86 2.58 1.52s1.27 1.47 1.67 2.43c.4.96.6 2.04.6 3.25 0 .98-.12 2.01-.36 3.07s-.58 2.19-1.03 3.4c-.44 1.21-.98 2.27-1.61 3.19s-1.35 1.73-2.14 2.42-1.67 1.25-2.61 1.66c-.94.41-1.94.62-2.99.62-.35 0-.62-.03-.82-.1-.21-.06-.36-.18-.46-.33-.1-.16-.17-.36-.19-.63-.03-.26-.04-.58-.04-.97 0-.37.01-.74.04-1.13.02-.38.06-.83.12-1.34.06-.51.14-1.11.24-1.8.27-1.98.39-2.99.36-3.01-.01-.02.12-.91.41-2.66.14-.9.33-1.74.55-2.51.22-.77.49-1.55.81-2.34.32-.79.73-1.51 1.21-2.16-.39-.65-1.03-.97-1.92-.97-1.13 0-1.8.15-2.01.45-.84 1.25-1.51 2.6-2.02 4.07-.01.02-.01.05-.02.08-.5 1.45-.88 3.12-1.14 5-.27 1.92-.45 3.78-.54 5.6-.08 1.82-.13 3.6-.13 5.33 0 .18.01.33.02.45s.04.21.08.29c.04.08.1.15.18.21.03.02.09.04.13.06.06.03.11.07.19.09.32.17.69.33 1.11.49zm32.855-.99c.575-.285 1.114-.635 1.615-1.047.503-.412.955-.846 1.358-1.3.402-.455.724-.852.964-1.19l-.458-2.1-.295-1.35c-.523.704-1.04 1.336-1.553 1.895-.092.1-.196.192-.292.29-.134.135-.262.273-.406.403-.246.223-.49.423-.737.6-.25.175-.49.317-.73.426-.24.11-.47.17-.69.17-.3 0-.49-.13-.58-.4-.09-.27-.13-.64-.13-1.12 0-.56.08-1.25.26-2.07.17-.81.32-1.54.46-2.18.13-.64.25-1.26.36-1.87.1-.61.15-1.16.15-1.66 0-.33-.03-.59-.09-.78-.06-.19-.14-.33-.25-.44-.1-.1-.23-.17-.36-.21-.14-.03-.29-.04-.45-.04-.12 0-.24 0-.36.01s-.24.01-.36.01c-.14 0-.28 0-.41-.02s-.26-.05-.39-.1-.24-.14-.32-.25l-.26-.35c-.09-.12-.2-.23-.34-.33-.14-.09-.33-.14-.57-.14-.73 0-1.44.16-2.14.47-.7.31-1.36.73-2 1.25-.63.52-1.21 1.13-1.74 1.83-.41.54-.79 1.18-1.16 1.88-.11.21-.22.39-.33.61-.46.96-.81 1.85-1.03 2.67-.2.77-.3 1.51-.32 2.23 0 .06-.02.12-.02.18 0 .7.11 1.32.33 1.88.22.56.51 1.03.88 1.41.29.32.64.56 1.01.75.08.05.16.1.24.14.47.21.96.31 1.46.31.48 0 .95-.08 1.43-.23.47-.15.93-.35 1.37-.59.44-.24.84-.52 1.21-.82.37-.3.68-.59.93-.88.33.84.73 1.48 1.2 1.92.44.41.99.63 1.64.65h.09c.58 0 1.15-.14 1.73-.43zm-7.24-3.135c-.313.33-.665.5-1.053.5-.24 0-.44-.06-.597-.19-.157-.13-.283-.29-.377-.49-.094-.2-.16-.43-.197-.68-.04-.25-.06-.52-.06-.79 0-.46.06-.95.18-1.46.12-.52.32-1.12.62-1.81.29-.69.59-1.26.89-1.73.3-.47.63-.89.99-1.25s.74-.65 1.15-.87c.4-.22.82-.32 1.25-.32l-1.17 5.1c-.05.34-.14.76-.28 1.26s-.33.99-.56 1.47c-.23.47-.51.88-.82 1.21zm11.64.68c.406.9.91 1.59 1.515 2.08.603.48 1.3.72 2.09.72.387 0 .82-.08 1.295-.22.477-.15 1.02-.37 1.632-.66.613-.29 1.31-.66 2.096-1.1.53-.29 1.11-.63 1.73-.99.18.34.39.66.62.95.49.61 1.1 1.09 1.83 1.46.73.36 1.59.54 2.57.54.63 0 1.25-.08 1.86-.22.61-.15 1.21-.34 1.78-.59.57-.24 1.12-.52 1.63-.83.52-.32 1-.63 1.45-.96 1.04-.76 2.02-1.62 2.94-2.6l-2.02-2.06c-.4.39-.9.8-1.49 1.24-.58.43-1.2.83-1.86 1.2-.66.37-1.33.67-2.03.92-.69.24-1.35.37-1.98.37-.2 0-.38-.02-.56-.06-.17-.04-.34-.12-.49-.22-.16-.1-.31-.25-.46-.43-.15-.19-.31-.42-.46-.69.91-.25 1.76-.59 2.54-1.03.78-.44 1.45-.94 2.02-1.51.57-.56 1.06-1.24 1.49-2.02.43-.79.64-1.5.64-2.14 0-.59-.1-1.13-.31-1.61-.21-.48-.49-.88-.86-1.22l-.01-.02c-.01-.01-.02-.01-.03-.02-.05-.05-.11-.08-.17-.13-.33-.26-.69-.48-1.11-.64-.5-.19-1.04-.28-1.63-.28-.72 0-1.37.13-1.96.38-.35.15-.67.34-.98.56-.21.14-.41.29-.61.46-.47.43-.88.92-1.24 1.48-.22.35-.4.71-.58 1.08-.1.23-.21.45-.3.69-.23.62-.46 1.33-.68 2.13-.21.8-.32 1.49-.32 2.06 0 .24.03.46.05.69-.17.13-.33.27-.51.39-.42.3-.85.58-1.28.83-.44.25-.85.47-1.24.65-.39.18-.75.33-1.08.43l-.21.06c-.23.06-.44.1-.61.1-.36 0-.68-.06-.97-.17-.29-.11-.53-.29-.73-.54-.2-.25-.35-.56-.46-.95-.1-.39-.15-.86-.15-1.43 0-.22 0-.46.01-.72 0-.26.01-.53.02-.81l.03-.85.03-.84c.03-.63.07-1.27.11-1.92.27-.33.55-.69.86-1.09.31-.41.62-.82.92-1.23h6.03c.25 0 .48-.13.69-.37.21-.25.32-.57.32-.96 0-.34-.05-.62-.14-.84-.04-.1-.1-.16-.15-.21-.02-.02-.05-.04-.07-.06-.02-.01-.03-.01-.04-.02-.07-.03-.12-.07-.2-.07l-.37-.02-.3-.01-.88-.03-.97-.03-.93-.02c-.29-.01-.54-.02-.76-.04-.22-.02-.38-.01-.47.02.37-.58.73-1.17 1.07-1.76.34-.6.63-1.18.88-1.76.06-.15.12-.3.17-.44.17-.43.31-.85.42-1.27l.03-.12c.12-.51.19-1 .19-1.46 0-.61-.07-1.19-.21-1.75-.14-.56-.34-1.05-.6-1.47-.07-.12-.16-.21-.24-.31-.21-.27-.44-.51-.71-.69-.09-.07-.19-.1-.28-.14l-.05-.03c-.28-.12-.57-.21-.89-.21-.7 0-1.37.31-2.01.93-.64.62-1.22 1.45-1.76 2.47-.54 1.03-1.02 2.2-1.46 3.52-.43 1.32-.79 2.68-1.07 4.09-.1.02-.29.03-.57.02l-.94-.03s-.72-.01-1.1-.01-.73.03-1.05.07c-.32.04-.58.11-.79.19-.2.08-.31.21-.31.37 0 .1.01.23.02.37.01.15.05.29.11.42s.17.25.3.35c.06.04.13.07.2.1.11.04.23.08.39.1.56.07 1 .13 1.3.17s.54.09.74.13c.19.04.38.08.55.12.17.04.42.08.74.13-.09.65-.15 1.31-.2 1.98l-.01.14c-.05.71-.08 1.38-.08 2 0 1.61.11 3.06.31 4.35 0 .03.01.05.01.08.2 1.25.5 2.33.89 3.21zM86.6 40.9c.227-.892.468-1.71.725-2.452.26-.745.527-1.353.804-1.83.27-.48.55-.718.82-.718.2 0 .35.042.46.125.11.084.19.187.24.312.05.124.08.257.1.396.01.142.02.27.02.384 0 .33-.09.757-.27 1.27-.18.52-.41 1.077-.68 1.67s-.58 1.2-.92 1.81c-.35.615-.67 1.187-.99 1.71l-.49-.04c-.16-.01-.32-.023-.48-.04.19-.837.39-1.704.62-2.596zm12.646 11.11c-.382.297-.795.54-1.242.73-.446.19-.858.283-1.236.283 0-.226.01-.496.032-.814.02-.32.117-.72.29-1.21.174-.49.326-.9.457-1.23.13-.34.306-.63.52-.89.215-.26.484-.48.803-.64.318-.17.704-.25 1.156-.25.252 0 .464.15.638.44.173.3.26.67.26 1.13 0 .32-.184.74-.552 1.24-.367.5-.742.89-1.126 1.19zm35.692 8.13c.574-.283 1.113-.633 1.615-1.045.5-.412.953-.846 1.36-1.3.4-.455.72-.852.96-1.19l-.238-1.098-.513-2.357c-.525.706-1.04 1.338-1.554 1.897-.09.1-.19.193-.29.29-.135.134-.265.272-.405.402-.247.22-.49.42-.736.6-.247.17-.487.31-.73.42-.24.11-.47.16-.69.16-.294 0-.485-.14-.57-.41-.093-.27-.136-.65-.136-1.13 0-.56.09-1.25.27-2.07.17-.82.32-1.55.46-2.19.14-.64.26-1.27.36-1.88.1-.61.16-1.17.16-1.67 0-.33-.03-.59-.08-.78-.06-.19-.14-.34-.24-.44-.1-.11-.22-.18-.36-.21-.14-.03-.28-.05-.44-.05h-.35c-.12 0-.23.01-.35.01-.13 0-.27-.01-.4-.03s-.26-.05-.38-.1c-.13-.06-.23-.14-.32-.26l-.26-.36c-.09-.13-.2-.23-.34-.33s-.33-.14-.57-.14c-.72 0-1.43.15-2.13.46-.69.31-1.36.72-1.99 1.24-.27.22-.52.47-.77.72-.34.34-.66.71-.97 1.11-.53.7-1.03 1.52-1.49 2.48-.46.95-.8 1.85-1.02 2.67-.17.66-.26 1.31-.3 1.95-.16.1-.32.2-.49.3-.31.18-.61.35-.9.49-.29.14-.57.25-.83.34-.27.08-.5.13-.7.13-.09 0-.18-.06-.27-.18-.09-.13-.18-.29-.27-.49-.08-.21-.15-.44-.21-.7-.06-.26-.09-.53-.09-.8v-.22c.03-.21.08-.43.13-.65.05-.22.11-.43.16-.63s.11-.38.17-.55c.06-.17.11-.31.17-.41.48-.95 1.01-1.92 1.58-2.91.57-.99 1.14-2 1.71-3.03.57-1.02 1.11-2.06 1.63-3.1.52-1.04.98-2.08 1.38-3.11.4-1.04.72-2.07.95-3.09.24-1.03.35-2.03.35-3.02 0-.4-.03-.79-.11-1.18-.07-.39-.2-.73-.38-1.03-.09-.15-.19-.29-.32-.41-.12-.12-.26-.23-.42-.32-.31-.18-.71-.28-1.2-.28-.66 0-1.32.19-1.96.57-.64.38-1.26.9-1.85 1.57s-1.16 1.45-1.69 2.34c-.54.9-1.04 1.86-1.49 2.9-.46 1.03-.92 2.4-1.37 4.11l-.68 2.56-.45 2.57c-.3 1.71-.45 3.08-.45 4.1 0 1.19.1 2.33.31 3.42s.48 2.04.84 2.86c.36.82.78 1.48 1.26 1.97.29.29.6.48.92.6.21.07.42.12.65.12.36 0 .76-.05 1.18-.14.42-.1.85-.22 1.29-.38.44-.16.88-.34 1.32-.55.05-.03.1-.05.15-.07.31-.15.61-.3.91-.45.05.07.1.13.15.19.06.07.11.16.18.23.37.38.79.68 1.26.88.48.21.97.31 1.47.31.48 0 .95-.08 1.42-.23.47-.15.93-.35 1.37-.6s.84-.51 1.21-.81c.37-.3.68-.59.93-.88.34.84.74 1.48 1.21 1.92.44.42.99.63 1.64.65.03 0 .06.01.09.01.56 0 1.14-.14 1.72-.42zM118.97 45.21c-.522 1.058-1.03 2.006-1.5 2.85.06-1.07.228-2.314.5-3.73.288-1.417.428-2.127.428-2.13l.692-2.29c.46-1.527.857-2.63 1.187-3.307.333-.677.665-1.215.998-1.612.33-.39.642-.59.93-.59.078 0 .125.11.14.33s.022.48.022.79c-.094.96-.315 2-.662 3.11-.344 1.12-.755 2.23-1.228 3.35-.47 1.12-.97 2.21-1.5 3.26zm9.55 10.58c-.23.475-.503.88-.82 1.217-.31.332-.66.5-1.05.5-.242 0-.44-.06-.6-.185s-.28-.286-.38-.485c-.09-.2-.16-.424-.192-.68-.04-.25-.053-.514-.053-.782 0-.458.06-.944.18-1.46.12-.52.327-1.12.62-1.805.293-.684.59-1.26.895-1.725.303-.467.633-.883.994-1.245.36-.363.746-.65 1.152-.863.41-.215.825-.32 1.254-.32l-1.17 5.096c-.043.338-.134.76-.274 1.265-.138.507-.33.995-.557 1.47zm28.05 4.48c.61-.142 1.2-.34 1.77-.58.568-.24 1.115-.52 1.63-.83.48-.285.925-.58 1.347-.88.012.15.01.31.026.45.05.394.14.745.28 1.05.147.31.346.556.607.74.26.183.606.274 1.034.274.19 0 .36-.033.52-.102.157-.067.303-.184.437-.352.14-.165.27-.382.4-.65.13-.27.27-.603.42-1.01l2.81-7.827h.25c.09.66.2 1.31.33 1.953.14.645.35 1.225.63 1.743.28.51.67.93 1.15 1.25.48.31 1.12.47 1.9.47.44 0 .87-.07 1.3-.2.43-.13.83-.3 1.22-.49.4-.19.77-.4 1.11-.62.35-.22.66-.42.93-.6l.24-3.67c-.47.38-.95.73-1.44 1.03-.34.21-.72.4-1.11.58-.09.04-.17.08-.26.12-.5.21-.99.31-1.45.31-.17 0-.33-.03-.48-.1-.15-.07-.29-.17-.4-.33-.12-.15-.21-.36-.29-.61-.07-.25-.1-.57-.1-.94 0-.22.03-.49.08-.82.06-.33.14-.75.26-1.26.11-.52.2-.93.25-1.25.05-.32.08-.57.08-.75 0-.23-.04-.44-.12-.62-.08-.18-.19-.34-.34-.46-.14-.13-.3-.23-.49-.3-.19-.07-.38-.11-.58-.11-.57 0-1.08.16-1.52.46-.44.31-.83.68-1.17 1.13v.01c-.34.45-.67 1.01-.99 1.69-.31.68-.57 1.23-.77 1.64h-.18c-.02-.53-.01-1.15.05-1.87.05-.71.07-1.26.07-1.64 0-.32-.01-.58-.02-.77-.01-.19-.06-.33-.13-.43-.07-.1-.19-.16-.34-.19-.15-.03-.36-.04-.63-.04-.24 0-.44.01-.6.04-.16.02-.29.08-.4.16-.11.07-.21.18-.29.32-.09.13-.17.32-.25.55-.14.34-.28.78-.41 1.31-.14.53-.3 1.2-.49 2-.03.15-.06.3-.1.45-.14.63-.27 1.24-.36 1.81-.12.7-.22 1.4-.31 2.08l-.03.28c-.22.17-.44.35-.69.54-.59.43-1.21.83-1.86 1.2-.66.36-1.33.67-2.03.92-.7.24-1.36.36-1.98.36-.2 0-.38-.02-.56-.06-.17-.04-.34-.11-.49-.22-.16-.1-.32-.24-.47-.43-.15-.18-.31-.41-.46-.69.91-.24 1.76-.59 2.54-1.03.78-.44 1.45-.94 2.02-1.5.56-.56 1.06-1.23 1.48-2.02.42-.78.64-1.49.64-2.13 0-.59-.11-1.13-.32-1.61-.14-.32-.33-.6-.54-.86-.1-.13-.2-.26-.33-.37-.22-.2-.47-.37-.74-.52-.02-.01-.03-.01-.04-.02-.17-.09-.35-.18-.54-.25-.5-.19-1.05-.28-1.63-.28-.72 0-1.37.12-1.96.38-.43.18-.82.43-1.19.71-.13.1-.27.19-.4.31-.47.43-.88.92-1.24 1.49-.22.35-.4.71-.58 1.08-.1.23-.21.46-.3.69-.23.62-.46 1.33-.68 2.13-.21.8-.32 1.49-.32 2.06 0 .23.03.46.05.69-.18.13-.34.27-.52.4-.43.29-.85.57-1.29.82-.43.25-.85.46-1.24.65-.39.18-.75.33-1.08.43-.08.02-.15.04-.22.05-.23.06-.44.1-.61.1-.35 0-.68-.05-.96-.16-.29-.11-.53-.29-.73-.54-.2-.25-.35-.56-.46-.95-.11-.39-.16-.86-.16-1.43 0-.22 0-.46.01-.72.01-.26.02-.53.02-.81.01-.29.02-.57.04-.86l.03-.84c.03-.63.07-1.27.11-1.91.26-.33.55-.69.86-1.09.31-.41.61-.82.92-1.23h6.03c.25 0 .48-.13.69-.37.21-.25.31-.57.31-.96 0-.29-.04-.53-.11-.74l-.03-.1c-.09-.22-.24-.34-.45-.35l-.38-.02c-.09-.01-.19-.01-.3-.02l-.88-.03-.97-.03-.93-.02c-.29-.01-.54-.02-.76-.04-.22-.02-.38-.01-.47.02.37-.58.73-1.17 1.07-1.76.34-.6.64-1.18.89-1.76.25-.58.45-1.15.59-1.71.14-.56.22-1.09.22-1.59 0-.61-.07-1.19-.21-1.75-.14-.56-.34-1.05-.6-1.47-.06-.1-.14-.18-.21-.27-.22-.29-.46-.55-.75-.74-.37-.25-.78-.37-1.23-.37-.7 0-1.37.31-2.01.93s-1.22 1.45-1.76 2.47c-.54 1.03-1.02 2.2-1.46 3.52-.43 1.32-.79 2.68-1.07 4.09-.1.02-.3.03-.58.02l-.95-.02c-.35-.01-.72-.01-1.1-.01s-.73.03-1.05.07c-.32.04-.58.11-.79.19-.2.09-.3.21-.3.38 0 .1 0 .23.01.37s.05.29.11.42.16.25.3.35c.14.1.33.17.59.2.57.07 1 .13 1.3.18.3.05.55.09.74.13.2.04.38.08.55.13.17.04.42.09.73.13-.08.65-.15 1.31-.2 1.98l-.01.13c-.05.71-.08 1.38-.08 2.01 0 1.61.11 3.06.31 4.35.06.38.14.74.21 1.09.19.82.42 1.56.7 2.19.41.91.91 1.6 1.51 2.08.61.48 1.31.72 2.09.72.39 0 .82-.07 1.3-.22s1.02-.36 1.64-.66c.61-.29 1.31-.66 2.1-1.1.53-.29 1.11-.63 1.73-.98.18.34.38.66.62.95.49.61 1.1 1.1 1.83 1.46l.36.15c.06.02.12.05.18.07.61.21 1.28.32 2.02.32.63-.01 1.25-.08 1.86-.22zm-1.473-8.26c-.384.297-.8.54-1.244.73-.44.19-.857.28-1.235.28 0-.223.013-.493.032-.81.02-.313.115-.72.29-1.21.174-.49.324-.9.454-1.23.132-.333.306-.63.52-.89.216-.26.484-.474.804-.637.318-.164.705-.246 1.157-.246.253 0 .466.15.638.445.175.298.266.676.266 1.137 0 .32-.19.74-.56 1.24-.37.5-.74.89-1.13 1.19zm-12.31-8.43c-.167-.016-.33-.03-.487-.04-.16-.01-.316-.02-.473-.04.19-.84.396-1.705.622-2.6.22-.89.46-1.71.72-2.45.25-.743.52-1.35.8-1.83.27-.48.55-.716.82-.716.2 0 .35.042.46.125.11.08.19.18.24.31.05.12.08.25.1.39s.02.27.02.38c0 .33-.09.75-.27 1.27-.18.51-.41 1.07-.68 1.66s-.58 1.2-.92 1.81c-.35.61-.67 1.18-.99 1.71zm39.532 9.46c.34 0 .66-.13.94-.39.29-.26.51-.643.67-1.145.3-.605.69-1.138 1.16-1.6.47-.46.97-.902 1.5-1.326.52-.42 1.05-.86 1.58-1.3.52-.45 1-.96 1.42-1.55.43-.59.77-1.27 1.03-2.06s.4-1.73.4-2.84c0-.92-.19-1.71-.57-2.38-.25-.43-.55-.8-.87-1.13-.19-.19-.37-.38-.58-.53-.06-.05-.13-.08-.19-.12-.03-.02-.07-.04-.1-.06-.51-.34-1.05-.61-1.65-.79-.71-.2-1.38-.31-2.02-.31-.53 0-1.05.06-1.59.18-.53.12-1.05.3-1.54.53-.5.23-.96.52-1.38.87-.43.35-.81.75-1.12 1.2-.16.24-.24.47-.24.69 0 .3.05.57.14.83.1.25.22.47.36.66.14.18.3.32.48.42.01 0 .01.01.02.02.19.11.39.16.59.16.24 0 .47-.05.69-.16.23-.1.43-.26.6-.49.04-.13.15-.3.31-.52.17-.22.36-.43.6-.64.23-.21.47-.38.73-.53.26-.15.51-.23.75-.23.31 0 .63.04.94.14.32.09.6.23.86.43.26.19.46.44.62.75.16.3.24.68.24 1.12 0 .03-.01.06-.01.1-.01.74-.16 1.39-.46 1.95-.31.59-.7 1.13-1.16 1.62-.46.5-.96.98-1.49 1.45-.54.46-1.04.97-1.5 1.53-.46.56-.85 1.19-1.16 1.89-.31.7-.46 1.53-.46 2.48 0 .31.1.53.31.69.03.03.06.06.1.09.27.16.6.24.96.24zm-.79 7.45c.48 0 .89-.062 1.22-.185.33-.125.61-.28.83-.473.22-.19.39-.4.51-.622.12-.224.21-.436.27-.636.06-.2.09-.377.1-.53.01-.15.02-.248.02-.286 0-.748-.23-1.32-.68-1.72-.45-.4-1.11-.6-1.98-.6-.51 0-.94.075-1.3.23-.37.15-.67.36-.9.614-.03.034-.06.076-.08.11-.09.107-.17.215-.24.334-.08.137-.15.28-.2.434-.11.33-.16.666-.16 1.01 0 .41.06.76.18 1.05.1.22.23.397.37.556l.07.083c.03.02.05.05.07.08.04.02.08.04.11.07.2.14.43.26.7.34.31.09.66.13 1.04.13z"/><ellipse fill="#D0D2D3" cx="52.672" cy="83.783" rx="3.451" ry="3.309" opacity=".5"/><circle fill="#0071BC" cx="125.783" cy="92.609" r="8.943"/><path fill="#0F4481" d="M120.41 91.83c0 2.538 2.055 4.592 4.59 4.592 2.538 0 4.594-2.056 4.594-4.59 0-2.538-2.056-4.594-4.593-4.594-2.53 0-4.59 2.055-4.59 4.593z"/><circle fill="#FFF" cx="125.783" cy="92.137" r="2.441"/><circle fill="#FFF" cx="120.926" cy="89.656" r="1.189"/><path fill="#00AEEF" d="M97.21 128.97l1.64 2.73-1.64 5.532 2.026 3.42.036-8.95-.957-3.544"/><path fill="#969798" d="M99.236 76.3c-7.003 0-12.93 4.597-14.932 10.938h29.864c-2.002-6.34-7.93-10.94-14.932-10.94zm28.75 1.852c-5.815 0-10.738 3.82-12.4 9.086h24.804c-1.664-5.266-6.585-9.086-12.404-9.086zM99.573 107.74c-7.162 0-13.22-4.597-15.27-10.938h30.54c-2.05 6.34-8.11 10.94-15.27 10.94zm28.655-3.493c-5.34 0-9.86-2.906-11.387-6.914h22.78c-1.52 4.007-6.05 6.914-11.39 6.914z"/><path fill="#BE1E2D" d="M162.488 86.47s12.338-3.712 21.038 6.22c0 0-4.485 15.424-16.385 12.353.01 0-9.8-5.23-4.65-18.573z"/><path fill="#E7778F" d="M163.055 87.606s10.362-3.764 19.024 4.76c0 0-10.6 8.373-19.03-4.76z"/><path fill="#BE1E2D" d="M173.477 95.787s11.146-1.076 2.503-5.53c0 0-5.158-2.646-11.255-1.978 0 0 .117 1.58 4.435 4.54l-2.487-3.33s15.412 2.3 2.613 5.51c-12.8 3.21 4.19.77 4.19.77z"/><path fill="#6E1E2D" d="M182.187 92.915s-1.424 3.385-10.138 2.753c0 0 2.39 1.147 3.28 3.72 0 0-2.35-.683-7.57.728l-.63 4.926s10.92 4.075 16.13-11.586l.25-.768-1.99-1.985s1.74 2.104.64 2.212z"/><path fill="#BE1E2D" d="M177.396 86.635s14.428-1.412 21.87 11.443c0 0-8.31 16.05-20.776 10.07 0 0-9.684-7.907-1.094-21.513z"/><path fill="#E7778F" d="M177.776 88.012s12.255-1.9 19.962 9.395c0 0-13.518 6.935-19.962-9.395z"/><path fill="#BE1E2D" d="M187.5 99.31s12.534 1.238 3.965-5.56c0 0-5.117-4.043-11.993-4.633 0 0-.215 1.77 3.905 5.98l-2.02-4.21s16.508 5.895 1.685 6.653c-14.827.76 4.457 1.77 4.457 1.77z"/><path fill="#6E1E2D" d="M197.738 98.036s-2.31 3.425-11.79.833c0 0 2.397 1.78 2.82 4.82 0 0-2.444-1.27-8.51-.85l-1.77 5.3s11.173 6.87 20.327-9.28l.45-.79-1.763-2.63c.002 0 1.466 2.7.236 2.58z"/><path fill="#BE1E2D" d="M193.216 102.445s12.24 2.09 15.487 14.392c0 0-10.49 11.386-19.44 3.63 0 0-6.218-8.718 3.953-18.022z"/><path fill="#E7778F" d="M193.218 103.67s10.556 1.195 14.373 12.268c0 0-12.73 2.68-14.37-12.27z"/><path fill="#BE1E2D" d="M198.702 115.198s10.077 3.853 4.532-3.698c0 0-3.316-4.496-8.864-6.535 0 0-.578 1.413 1.876 5.823l-.72-3.937s12.312 8.6-.11 5.88c-12.42-2.72 3.286 2.47 3.286 2.47z"/><path fill="#6E1E2D" d="M207.45 116.457s-2.68 2.31-9.93-1.972c0 0 1.578 2.018 1.24 4.62 0 0-1.733-1.596-6.838-2.617l-2.66 3.98s7.678 8.2 18.892-3.08l.55-.55-.866-2.568s.602 2.563-.39 2.187z"/><path fill="#BE1E2D" d="M200.202 111.942s8.594 3.41 9.062 12.873c0 0-9.397 6.675-14.722-.354 0 0-3.184-7.31 5.66-12.51z"/><path fill="#E7778F" d="M200.015 112.833s7.506 2.5 8.577 11.154c0 0-9.69-.012-8.577-11.154z"/><path fill="#BE1E2D" d="M202.23 122.078s6.746 4.36 3.872-1.995c0 0-1.722-3.786-5.448-6.127 0 0-.64.94.468 4.53l.085-2.978s7.64 8.163-.987 4.266c-8.63-3.9 2.01 2.304 2.01 2.304z"/><path fill="#6E1E2D" d="M208.408 124.344s-2.308 1.27-6.927-2.968c0 0 .84 1.714.2 3.556 0 0-1.01-1.43-4.58-2.96l-2.55 2.49s4.33 7.156 14.24.67l.49-.318-.23-2.003c0 .01.05 1.96-.62 1.54z"/></svg>