<svg xmlns="http://www.w3.org/2000/svg" width="250" height="250" viewBox="0 0 250 250"><path opacity=".15" d="M203.847 142.938c-.395-3.454-3.313-6.062-6.79-6.062-.258 0-.52.015-.78.045l-3.282.38-3.867.45c-1.01.15-2.06.33-3.17.53-.57.1-1.16.21-1.793.32l-2.756.49-.12.03c.15-1.75.23-3.52.23-5.31 0-12.35-3.73-23.82-10.11-33.37l22.34-25.32-6.19-41.64H46.17l10.555 52.21 23.625-1.83c.038.57.088 1.15.165 1.77-1.897 2.59-3.297 5.43-4.19 8.46-7.144 8.11-12.138 18.15-14.088 29.25L60.163 126c-.235 1.37-.02 3.37 1.23 4.97-.043.933-.068 1.87-.068 2.813 0 5.823.832 11.453 2.377 16.778-1.126-.37-2.25-.56-3.363-.56-2.47 0-4.03.94-4.46 1.23l-.21.16-1.91 1.51-1.34 1.98c-.61 2.09-2.34 13.49 22.28 35.75l-.62.13c-13.66 2.94-20.02 6.94-20.02 12.61s6.36 9.67 20.01 12.61c11.18 2.41 25.98 3.73 41.69 3.73s30.51-1.32 41.69-3.72c13.65-2.93 20.01-6.94 20.01-12.6 0-4.55-4.39-7.32-7.7-8.82.39-6.84-.22-13.74-1.13-19.67.12.01.25.01.37.01 1.11 0 1.98-.26 2.64-.62 1.57.82 3.44 1.46 5.66 1.77l3.44-1.23c1.17-1.28 2.23-3.67 1.37-6.18-.32-.93-.84-1.7-1.47-2.35.34-.23.67-.48.99-.75l1.39-2.96c0-.68-.11-3.05-1.81-4.76-.99-1-2.33-1.56-3.77-1.57 0-.09-.01-.19-.02-.28 0-.13-.01-.27-.02-.4.3-.78.59-1.57.86-2.37l1.68-.33 3.71-.73 2.53-.35c.62-.08 1.23-.17 1.81-.25.96-.14 1.87-.27 2.67-.36l6.83-.55c.09 0 .19-.01.28-.02 1.8-.21 3.41-1.11 4.54-2.53 1.14-1.43 1.65-3.21 1.45-5.03zM166.42 93.946c-5.694-6.428-12.745-11.626-20.705-15.147l25.943-2-5.238 17.14z"/><path fill="#006838" d="M200.847 139.938c-.395-3.454-3.313-6.062-6.79-6.062-.258 0-.52.015-.78.045l-3.282.38-3.867.45c-1.01.15-2.06.33-3.17.53-.57.1-1.16.21-1.793.32l-2.756.49-.12.03c.15-1.75.23-3.52.23-5.31 0-12.35-3.73-23.82-10.11-33.37l22.34-25.32-6.19-41.64H43.17l10.555 52.21 23.625-1.83c.038.57.088 1.15.165 1.77-1.897 2.59-3.297 5.43-4.19 8.46-7.144 8.11-12.138 18.15-14.088 29.25L57.163 123c-.235 1.37-.02 3.37 1.23 4.97-.043.933-.068 1.87-.068 2.813 0 5.823.832 11.453 2.377 16.778-1.126-.37-2.25-.56-3.363-.56-2.47 0-4.03.94-4.46 1.23l-.21.16-1.91 1.51-1.34 1.98c-.61 2.09-2.34 13.49 22.28 35.75l-.62.13c-13.66 2.94-20.02 6.94-20.02 12.61s6.36 9.67 20.01 12.61c11.18 2.41 25.98 3.73 41.69 3.73s30.51-1.32 41.69-3.72c13.65-2.93 20.01-6.94 20.01-12.6 0-4.55-4.39-7.32-7.7-8.82.39-6.84-.22-13.74-1.13-19.67.12.01.25.01.37.01 1.11 0 1.98-.26 2.64-.62 1.57.82 3.44 1.46 5.66 1.77l3.44-1.23c1.17-1.28 2.23-3.67 1.37-6.18-.32-.93-.84-1.7-1.47-2.35.34-.23.67-.48.99-.75l1.39-2.96c0-.68-.11-3.05-1.81-4.76-.99-1-2.33-1.56-3.77-1.57 0-.09-.01-.19-.02-.28 0-.13-.01-.27-.02-.4.3-.78.59-1.57.86-2.37l1.68-.33 3.71-.73 2.53-.35c.62-.08 1.23-.17 1.81-.25.96-.14 1.87-.27 2.67-.36l6.83-.55c.09 0 .19-.01.28-.02 1.8-.21 3.41-1.11 4.54-2.53 1.14-1.43 1.65-3.21 1.45-5.03zM163.42 90.946c-5.694-6.428-12.745-11.626-20.705-15.147l25.943-2-5.238 17.14z"/><path fill="#229045" d="M76.06 181.83l10.965 16.46 61.41-4.868 17.81-36.504-59.35-28.333"/><path fill="#229045" d="M200.847 139.938c-.395-3.454-3.313-6.062-6.79-6.062-.258 0-.52.015-.78.045l-3.282.38-3.867.45c-1.01.15-2.06.33-3.17.53-.57.1-1.16.21-1.793.32l-2.756.49-.21.04-3.9.91c-1.58.37-3.2.74-4.89 1.24l-.16-.19c-3.85-5.47-9.58-9.35-17.06-11.55l.07-.44-.17-.13.15.02c.82-5.94.84-12.53.07-21.17 5.55-5.69 3.9-11.83 2.08-14.45l-.34-.42c-1.41-1.53-3.25-2.58-5.48-3.12-1.25-.34-2.62-.51-4.09-.51h-.4c-5.62-7.46-14.31-13.16-24.19-15.8-4.08-1.09-8.24-1.64-12.36-1.64-6.37 0-12.46 1.32-17.78 3.83-1.02-.61-2.26-1.21-3.57-1.52-.76-.21-1.5-.31-2.21-.31-1.91 0-3.62.78-4.82 2.18-1.71 2.01-2.26 5.08-1.71 9.6-2.03 2.78-3.5 5.83-4.38 9.11-2.1 7.88-.62 16.2 4.17 23.68-1.86-.22-3.75-.54-4.28-.76.09.04.17.09.23.13l-4.78.46c-.53.5-1.66 1.69-2.35 3.26-2.25.06-4.52.61-6.74 1.63l-2.21 2.89c-.25 1.42-.02 3.51 1.35 5.14.63.75 1.69 1.62 3.33 2-.16.38-.3.76-.43 1.17l.42 3.25c.96 1.52 2.85 3.15 5.25 3.15 1.02 0 2.24-.27 3.41-1.22 1 1.04 2.24 1.72 3.66 2.03l.48.55c.88 1.04 3.64 4.1 6.47 5.26 3.75 2.19 7.79 3.3 12.03 3.3 1.88 0 3.77-.22 5.69-.66-.46 2.02-.63 4.28-.31 6.73v.02c.04.29.08.58.13.88.05.61.16 1.64.37 2.81l-.42.07c-9.33 1.66-16.35 5.06-20.93 10.14-3.15-6.73-6.23-11.07-8.48-13.69-.52-1-1.57-2.43-3.61-3.59-.61-.5-1.06-.8-1.29-.94-2.34-1.6-4.69-2.41-7-2.41-2.47 0-4.03.94-4.45 1.23l-.21.15-1.91 1.51-1.34 1.98c-.6 2.08-2.33 13.48 22.29 35.74l-.61.13c-13.64 2.91-20 6.92-20 12.58s6.36 9.67 20.01 12.6c11.18 2.4 25.98 3.72 41.69 3.72s30.51-1.32 41.69-3.72c13.66-2.93 20.02-6.94 20.02-12.6 0-4.56-4.39-7.32-7.69-8.83.39-6.84-.22-13.74-1.13-19.68.12.01.25.01.37.01 1.11 0 1.98-.26 2.64-.62 1.57.82 3.45 1.45 5.67 1.77l3.44-1.23c1.17-1.28 2.23-3.67 1.37-6.19-.31-.93-.83-1.7-1.46-2.35.34-.23.67-.48.99-.75l1.4-2.96c.01-.69-.11-3.05-1.81-4.76-.99-1-2.33-1.56-3.77-1.57 0-.1-.01-.19-.02-.29 0-.85-.15-1.69-.43-2.5.99-.22 1.99-.41 2.96-.6l3.71-.73 2.53-.36c.62-.08 1.23-.17 1.81-.25.96-.14 1.87-.27 2.68-.36l6.83-.55.29-.03c1.8-.21 3.41-1.11 4.54-2.53 1.14-1.43 1.65-3.21 1.44-5.03zm-113.924-6.52c-1.08-.813-2.42-2.092-3.13-3.39.398-1.608.826-3.95.732-6.3 4.146 3.633 9.106 6.53 14.588 8.507-2.726 1.208-5.634 2.098-8.287 2.098-1.526 0-2.806-.3-3.903-.914zm-2.67 46.417c.07-.154.15-.368.22-.63l1.264-1.212c2.86-2.406 7.573-5.447 14.48-7.193.213.61.426 1.027.52 1.197l1.22.014c.836.87 1.928 1.21 2.833 1.21l2.587-1.14h.177l.063-.1.074-.03c.3-.32.54-.68.7-1.08 1.99 1.11 4.81 2.15 8.34 2.15 1.84 0 3.71-.28 5.59-.85.62.59 1.16 1.12 1.17 1.13l2.14-.13c.34.14.69.27 1.05.41 3.86 1.43 7.71 2.15 11.43 2.15 3.06 0 6.03-.49 8.87-1.46-.54 5.06-.5 9.08-.24 12.11-9.9-1.5-21.72-2.32-33.91-2.32-11.19 0-21.92.68-31.21 1.93.5-.43.89-.89 1.18-1.31.99-1.44 1.27-3.05 1.28-4.37.1-.15.17-.29.22-.41zm57.53-17.794c.517-.27 1.088-.54 1.694-.82.307-.14.616-.29.88-.41.348-.16.7-.33 1.052-.49.57-.27 1.16-.55 1.75-.81l.35-.15-.09.2c-.19.14-.36.29-.52.45-.2.21-.42.47-.62.78-.68.44-1.09.69-1.21.75l-.02.19-.07-.14c-1.48.67-3.05 1.09-4.69 1.25.3-.16 1.47-.75 1.47-.75zm13.427-19.08c-.38.15-.76.3-1.14.44-.758.29-1.517.58-2.293.91l-4.85 2.09-1.456.68c.06-.11.16-.36.16-.36.28-.65.5-1.25.68-1.81.98-2.03 1.83-3.96 2.56-5.85 3.35.85 6.1 1.96 8.1 3.25-.19.08-1.31.51-1.74.67z"/><circle fill="#229045" cx="118.425" cy="130.785" r="60.099"/><circle fill="#006838" cx="117.361" cy="130.326" r="51.082"/><path fill="#006838" d="M190.757 72.095l-33.005 37.41L172.2 62.207"/><path fill="#229045" d="M43.172 30.45l10.556 52.21 137.03-10.565-6.185-41.645"/><ellipse fill="#929497" cx="112.797" cy="200.339" rx="57.801" ry="12.422"/><path fill="#E6E7E8" d="M74.59 125.504s-5.44-5.56-13.576-1.84c0 0-.855 4.973 7.226 1.573 0 0 2.18.21 4.203 2.043 0 0-5.605-.22-7.293 5.188 0 0 2.455 3.89 4.478-1.626 0 0 1.398-.75 2.39-1.075 0 0-.253 5.245 4.182 5.016 4.434-.23 0-7.104 0-7.104l-1.61-2.18z"/><path fill="#FFF" d="M118.467 164.637s17.422 14.21 33.634 2.54c0 0-4.13 31.356 5.39 31.11 0 0 3.16-2.837.5-4.548 0 0 4.09-.52.25-4.48 0 0 4.45-1.65.54-4.92l-3.02-26.65s-1.02-1.53-3.44 3.3c0 0-10.97 13.66-31.42-1.04-20.45-14.7-2.4 4.67-2.4 4.67z"/><path fill="#D0D1D2" d="M157.293 189.162s-4.24-1.357-1.243-7.104c0 0-4.46 6.128 1.243 7.104zm-.463 4.26s-3.8-.74-2.293-2.9c0 0-.66 1.67 2.292 2.9z"/><path fill="#D1D2D2" d="M125.148 120.207l3.093 23.86s-8.34 2.864-14.39 21.366c0 0-22.12-13.637.13-24.136l3.53-36.732 7.64 15.642z"/><path fill="#A6A8AB" d="M126.574 169.296l1.444.574s.92-2.315.01-3.27c0 0 1.478.736 3.824-.933l-1.5-.567-3.31.67-.97 2.283.502 1.243z"/><path fill="#D0D1D2" d="M89.263 77.2s-10.06-8.542-7.692 6.173l2.41-1.064 5.29-5.11z"/><path fill="#D0D1D2" d="M89.584 77.285s-10.06-8.542-7.692 6.174l2.408-1.07 5.284-5.11z"/><ellipse transform="rotate(14.98 111.26 101.79)" fill="#FFF" cx="111.509" cy="101.982" rx="35.816" ry="28.697"/><ellipse transform="rotate(14.98 106.54 101.44)" fill="#D0D1D2" cx="106.33" cy="101.31" rx="29.974" ry="22.864"/><path fill="#D0D1D2" d="M139.272 91.145s8.127-2.71 11.943 1.422c0 0 4.604 6.604-5.8 12.595l-2.583 1.674s-1.234-1.543-.265-3.914c0 0 12.394-8.19-1.822-8.2 0 0-2.1-.726-1.473-3.577z"/><path fill="#0B8ECC" d="M100.08 107.236s2.39-2.697 2.95 3.378l-4.28 2.02-2.273-3.542s3.35-4.57 3.604-1.856z"/><path fill="#FFF" d="M102.347 110.375l-1.84.86s.844-1.76 1.84-.86zm-4.472.155l-.817-1.138s.88-.168.817 1.138z"/><ellipse transform="rotate(14.98 91.39 95.55)" fill="#FFF" cx="91.207" cy="95.429" rx="12.28" ry="12.103"/><ellipse transform="rotate(14.98 118.46 102.88)" fill="#FFF" cx="118.722" cy="103.073" rx="15.158" ry="15.057"/><path fill="#919396" d="M141.564 93.743c-.005-.013 2.554 7.35 2.033 9.39l1.422-1.355s10.21-8.66-3.46-8.035z"/><path fill="#D0D1D2" d="M138.95 91.062s8.128-2.71 11.944 1.42c0 0 4.604 6.606-5.8 12.596l-2.585 1.676s-1.24-1.544-.27-3.916c0 0 12.39-8.19-1.82-8.2 0 0-2.1-.726-1.48-3.576z"/><circle fill="#FFF" cx="122.333" cy="107.295" r="1.499"/><path fill="#6D6F71" d="M98.85 111.698l-1.024 3.062.482.083.957-3.072"/><path fill="#6D6F71" d="M91.33 110.91s1.146 6.29 6.682 3.295l.296.637s-7.232 3.225-7.503-4.022l.526.09z"/><path fill="#BE202E" d="M108.19 116.287s-5.635 9.61-11.845 3.14c0 0 .354-2.697-2.166-4.073 0 0 2.16.194 3.64-.595 0 0 6.12 7.55 10 1.35"/><path fill="#6D6F71" d="M98.42 114.182s4.56 7.85 9.406 1.93l.363.175s-3.91 6.762-10.37-1.527l.59-.578z"/><path fill="#6D6F71" d="M106.894 115.64s3.017-.858 1.718 1.79c0 0 2.06-3.14-1.718-1.79zm-11.958 2.42s-1.996 1.423 4.092 4.344c0 0-7.65-1.857-4.092-4.345z"/><path fill="#FFF" d="M113.164 128.055S87.8 149.32 79.637 130.41c0 0 3.114-9.977-1.714-11.03 0 0-5.455-.494-6.758-1.32 0 0-5.453 5.165 3.26 4.797l.976.024s-2.42 1.24-.91 4.09c0 0-2.94 6.62 1.72 7.82 0 0 13.25 19.71 36.26.6l.71-7.32z"/><path fill="#FFF" d="M109.005 106.473l1.363 30.192s-11.383 7.194-6.76 22.514c3.48 11.52 20.872 15.68 32.36-3.61 12.502-20.99 15.34-30.19 11.338-60.6"/><path fill="#D0D1D2" d="M89.263 77.2s-10.06-8.542-7.692 6.173l2.41-1.064 5.29-5.11z"/><path fill="#919396" d="M141.564 93.743c-.005-.013 2.554 7.35 2.033 9.39l1.422-1.355s10.21-8.66-3.46-8.035z"/><path fill="#D0D1D2" d="M139.272 91.145s8.127-2.71 11.943 1.422c0 0 4.604 6.604-5.8 12.595l-2.583 1.674s-1.234-1.543-.265-3.914c0 0 12.394-8.19-1.822-8.2 0 0-2.1-.726-1.473-3.577z"/><ellipse transform="rotate(14.98 106.54 101.44)" fill="#D0D1D2" cx="106.33" cy="101.31" rx="29.974" ry="22.864"/><ellipse transform="rotate(14.98 91.39 95.55)" fill="#FFF" cx="91.207" cy="95.429" rx="12.28" ry="12.103"/><ellipse transform="rotate(14.98 118.46 102.88)" fill="#FFF" cx="118.722" cy="103.073" rx="15.158" ry="15.057"/><path fill="#6D6F71" d="M98.85 111.698l-1.024 3.062.482.083.957-3.072"/><path fill="#0B8ECC" d="M100.08 107.236s2.39-2.697 2.95 3.378l-4.28 2.02-2.273-3.542s3.35-4.57 3.604-1.856z"/><path fill="#FFF" d="M102.347 110.375l-1.84.86s.844-1.76 1.84-.86zm-4.472.155l-.817-1.138s.88-.168.817 1.138z"/><path fill="#6D6F71" d="M91.33 110.91s1.146 6.29 6.682 3.295l.296.637s-7.232 3.225-7.503-4.022l.526.09z"/><path fill="#BE202E" d="M108.19 116.287s-5.635 9.61-11.845 3.14c0 0 .354-2.697-2.166-4.073 0 0 2.16.194 3.64-.595 0 0 6.12 7.55 10 1.35"/><path fill="#6D6F71" d="M98.42 114.182s4.56 7.85 9.406 1.93l.363.175s-3.91 6.762-10.37-1.527l.59-.578z"/><path fill="#6D6F71" d="M106.894 115.64s3.017-.858 1.718 1.79c0 0 2.06-3.14-1.718-1.79zm-11.958 2.42s-1.996 1.423 4.092 4.344c0 0-7.65-1.857-4.092-4.345z"/><path fill="#006838" d="M155.742 157.69l2.437-1.54s8.04 25.275 3.4 44.573l-3.32-.62-2.46-22.366-.07-20.046z"/><path fill="#ED1F24" d="M146.618 165.104s1.916 1.59 1.22 4.563c0 0 1.145-.01 4.732-2.644l-2.678-3.984s-2.405 1.69-3.274 2.06z"/><path fill="#FFF" d="M117.34 160.522s-32.593-3.275-40.204 15.193c0 0-13.042-28.813-20.992-23.586 0 0-1.182 4.07 1.98 4.12 0 0-3.203 2.59 2.15 3.94 0 0-2.91 3.74 2.14 4.46l14.63 18.5s3.364.52 2.873-4.87c0 0 10.877-14.36 36.006-12.67 25.13 1.69 1.416-5.11 1.416-5.11z"/><path fill="#D0D1D2" d="M61.123 159.78s4.318-1.082 4.804 5.38c0 0 .556-7.56-4.804-5.38zm-1.853-3.86s3.614-1.38 3.477 1.252c0 0-.324-1.767-3.477-1.253z"/><path fill="#FFF" d="M123.18 164.44l.69-.508c.465-.34 1.14-.81 2-1.397.86-.587 1.915-1.28 3.136-2.062 1.227-.765 2.604-1.643 4.144-2.53 1.523-.923 3.215-1.846 5-2.83.887-.507 1.828-.963 2.777-1.46.956-.482 1.918-1.004 2.922-1.484 1-.48 2.02-.97 3.06-1.45.52-.25 1.04-.49 1.56-.74.53-.23 1.06-.46 1.6-.69 1.07-.47 2.15-.93 3.24-1.4 1.09-.46 2.21-.86 3.31-1.3 1.11-.42 2.21-.88 3.33-1.27l3.35-1.14c2.21-.8 4.44-1.4 6.59-2.02 2.13-.66 4.25-1.12 6.25-1.59 1-.23 1.97-.46 2.91-.68l2.76-.49c1.77-.31 3.39-.62 4.83-.83l3.76-.44 3.28-.37c1.61-.19 3.06.97 3.24 2.58.18 1.6-.98 3.06-2.58 3.24l-.09.01-.2.01-3.14.25-3.6.29c-1.39.15-2.94.4-4.64.63l-2.66.38-2.82.56c-1.94.38-3.99.75-6.07 1.32-2.09.53-4.27 1.03-6.43 1.73l-3.28.98c-1.1.34-2.18.74-3.27 1.12-1.09.38-2.19.74-3.26 1.15l-3.2 1.25-1.58.62-1.55.66-3.03 1.31c-1 .43-1.95.91-2.9 1.35-.94.45-1.88.86-2.76 1.33-1.77.9-3.45 1.74-4.97 2.59-1.53.81-2.9 1.62-4.12 2.33-1.21.72-2.26 1.36-3.11 1.9-.85.54-1.51.97-1.94 1.26l-.68.46-.03.02c-.76.52-1.8.32-2.32-.44-.5-.75-.32-1.76.4-2.29z"/><path fill="#74BF44" d="M158.852 200.255s6.858-5.306-1.885-43.337l-2.874 1.255 2.874 41.685 1.885.397z"/><path fill="#FFF100" d="M151.29 168.325s-3.33-6.707-.84-5.574c0 0 1.49-6.33 5.89-5.46 0 0 8.5 35.4 1.924 42.82 0 0-10.23.65-6.856-27.79 0 0 .042-3.52.336-4.18 0 0-.072.42-.455.2z"/><path fill="#A6A8AB" d="M159.27 145.585s1.042 2.885.233 4.88l10.202-3.012s1.436-3.106-1.457-4.792c0 0-6.88 2.14-8.98 2.93zm-59.956 15.74s1.25 2.966 4.232 2.6c0 0-1.215.273-1.502 2.463l2.844-.454.852-3.223-3.006-1.89-3.42.51z"/><path fill="#1B75BB" d="M102.546 154.082s.393 4.732 1.56 6.585c0 0-1.336.102-3.792-.98 0 0-.35 4.65 5.088 3.257 0 0-2.568 2.957-1.202 6.99 0 0 2.27-3.504 3.622-4.297 0 0 5.794 6.148 15.354 2.034 0 0 1.683 1.36 3.03 2.81 0 0 1.68-2.08.788-4.57 0 0 3.765.51 4.464-1.31 0 0-1.2.25-2.047.05 0 0 2.16-.43 3.99-2.58 0 0 1.15-.06 1.69.64 0 0 1.01-2.46.08-3.67 0 0 1.61-.55 1.35-3.73l-3.12 1.61-30.84-2.81z"/><path fill="#E6E7E8" d="M164.485 160.242s1.575 7.618 10.432 8.882c0 0 3.405-3.723-5.23-5.227 0 0-1.72-1.354-2.432-3.99 0 0 4.598 3.214 8.938-.426 0 0 .035-4.6-4.646-1.05 0 0-1.582-.12-2.59-.38 0 0 3.806-5.08-.05-7.28s-4.6 6.78-4.6 6.78l.178 2.71z"/><path fill="#FFF" d="M134.155 133.28s36.55.066 29.668 19.48c0 0-2.56 2.494-3.58 8.04 0 0 .093 5.384 4.05 6.865 0 0 6.396 1.802-.242-3.855l-.15-2.82s2.67.196 2.59-1.955c0 0 6.07-4.19 3.46-8.235 0 0-.42-20.76-30.29-22.407l-5.5 4.888z"/><path fill="#FFF100" d="M109.487 130.8l-1.613 7.973s-7.046 6.11-5.328 15.31c0 0 13.128 11.188 32.13 3.544 0 0 6.536-9.196 7.974-14.146 0 0-2.207-8.77 5.324-15.4l.46-2.67s-35.445 15.56-38.947 5.4z"/><path fill="#00A551" d="M109.487 130.8s1.778 9.022 38.948-5.395l-.186 1.073s-38.23 17.645-38.94 5.302l.17-.98zm38.488-2.72s-5.97 4.852-5.324 15.4l-.63 1.733s-2.19-10.09 6.11-18.006l-.15.872z"/><path fill="#FFE8BA" d="M100.825 159.9s.813 3.922 4.988 2.382c0 0 11.817 2.68 14.703-1.936l.944-.05s-2.33 5.55-15.5 2.73c0 0-1.43 3.102-1.153 6.014.048.5-.1.143-.1.143l-.54.943s-1.977-3.6 1.104-7.018c0 0-4.68 1.744-5.38-3.607l.94.4z"/><path fill="#00A551" d="M109.814 132.306l-1.94 6.466 1.613-7.973m-7.08 22.39s13.852 11.27 33.258 2.93l-1.362 1.98s-17.56 7.56-31.756-4.04l-.14-.89z"/><path fill="#00A551" d="M133.217 131.597l-3.707 11.466s-7.817 5.49-8.318 16.636l-.902-.16s.018-11.14 8.155-16.67l3.8-10.9.972-.39z"/><path fill="#FAAF40" d="M106.27 148.102l-.793 1.735 12.07 4.09 6.536-14.322-11.27 5.33"/><path fill="#D0D2D3" d="M110.288 137.232l13.795 2.373-1.728 3.005s-4.935 4.363-5.727 10.247c0 0-9.83-2.35-13.05-4.777 0 0 1.798-5.985 6.287-8.397l.423-2.45z"/><path fill="#A6A8AB" d="M109.865 139.683l11.28 2.72-11.794-2.42"/><path fill="#0E4F82" d="M123.176 167.67s5.562-2.162 11.5-10.044l1.474-2.152.455-.31s.404 3.195-1.32 3.8c0 0 1.04 1.822-.25 3.886 0 0-.37-.843-1.635-.794 0 0-.925 1.73-3.988 2.58 0 0 1.646.033 2.047-.05 0 0-.18 1.804-4.47 1.314 0 0 1.05 2.053-.79 4.573 0 0-2.55-2.493-3.03-2.802z"/><path fill="#006838" d="M55.098 151.452l-1.91 1.504s-3.032 10.376 22.548 33.002l1.31-2.224s-10.46-20.01-9.848-21.163c.61-1.15-12.1-11.11-12.1-11.11z"/><path fill="#74BF44" d="M76.707 184.31c-23.39-22.467-22.342-32.28-22.342-32.28l1.197-.806 9.048 9.023s10.18 12.116 10.668 14.554c.49 2.44 2.397 7.44 2.397 7.44l-.027.16-.94 1.92z"/><path fill="#ED1F24" d="M77.088 175.566s1.353-2.824 1.936-3.33c0 0 3.112-.732 4.1 2.852l-2.618 2.512-3.418-2.034z"/><path fill="#FFF100" d="M77.377 175.164s5.28 3.12 2.56 3.424c0 0 1.312 4.713-2.892 5.146 0 0-23.79-22.538-21.948-32.282 0 0 8.455-5.798 20.136 20.353 0 0 1.77 3.045 1.854 3.762 0 0-.15-.393.29-.403z"/><path fill="#FFD200" d="M76.06 173.627l-1.92 2.202-12.57-15.27s3.362-2.98.635-7.89c0 0 7.055 4.15 13.854 20.95z"/><path fill="#37B34A" d="M63.368 153.564s2.102.732-1.504 11.564l3.38 3.995 4.987-3.224-.95 8.1 2.29 2.7 3.37-5.48-.94-2.12-2.8 4.55.96-8.21-1.65-2.94-5.57 3.02s2.71-7.68 1-9.47c0 0-.37-1.42-2.54-2.52z"/><path fill="#FFD200" d="M151.724 168.51l2.8-.84 2.493 19.616s-4.434.725-4.743 6.335c0 0-3.76-7.27-.55-25.11z"/><path fill="#37B34A" d="M151.763 192.25s-1.388-1.742 7.438-8.983l-.72-5.183-5.94.07 5.13-6.347-.49-3.51-5.76 2.84-.33 2.287 4.8-2.355-5.18 6.42-.16 3.36 6.33.42s-6.39 5.05-5.89 7.47c0 0-.43 1.4.82 3.48z"/><path fill="#404041" d="M110.52 142.477l-.137.42-.156.41c-.045.103-.11.237-.2.404-.09.17-.142.27-.16.31l-.145.05c.048-.1.13-.27.244-.49.115-.22.2-.38.247-.5.043-.09.07-.19.09-.3.018-.1.03-.23.04-.38.142-.22.426-.35.85-.4.59-.06.908-.11.95-.13l.03.13-.916.11c-.234.03-.478.16-.736.4zm-.617 1.83l.667-.043.658-.323c-.463.08-.927.15-1.39.23l.065.15zm1.078 3.983c-.13-.056-.23-.104-.31-.147l-.51-.265-.23-.1c-.08-.013-.14-.02-.17-.03L111 144.9l.38-.88.107-.25c-.324.08-.562.133-.717.158-.254.04-.5.055-.74.043.065-.16.14-.32.223-.49l.244-.51c.075-.18.14-.36.2-.54.145-.09.336-.16.57-.21.062-.01.406-.06 1.032-.13.15.09.29.16.45.23.14.07.28.13.43.18l.44.17c-.06.13-.13.32-.22.58-.09.26-.17.46-.22.59l-1.14 2.64c-.1.21-.24.53-.45.95-.2.43-.35.74-.44.96l-.17-.06zm-1.27-.973c.04-.09.1-.194.18-.315.2-.298.31-.478.34-.535l.05-.108.22-.72c-.17.26-.28.42-.33.5-.12.2-.22.37-.29.52l-.49 1.15c.2.08.5.22.89.42.4.2.7.34.9.43l.2-.12-.43-.19c-.15-.07-.33-.14-.52-.22-.13-.06-.29-.13-.46-.21-.17-.09-.3-.16-.37-.24l.14-.4zm.47-1.374c.17-.216.36-.503.57-.86.21-.354.38-.68.51-.972l.03-.08c-.13.14-.25.27-.37.41s-.21.3-.3.48l-.43 1.04zm3.1-3.58c.08.034.17.064.28.087l.3.065c-.15-.092-.29-.175-.43-.244-.13-.07-.31-.15-.52-.24l-.17-.07-.49-.2.28.28.78.34zm.93.167l-1.22-.473-.11-.134 1.34.607zm-2.91 5.923c.15-.137.4-.574.76-1.312.36-.73.79-1.68 1.29-2.84.09-.19.17-.45.24-.75.08-.3.14-.6.21-.87-.11.26-.25.62-.43 1.09-.18.47-.29.77-.35.91-.1.24-.24.53-.4.87-.38.78-.62 1.27-.7 1.46l-.59 1.47zm2.66-5.426c-.04.106-.11.224-.18.35-.07.127-.15.25-.22.367l.41-1.1v.383z"/><path fill="#ED1F24" d="M164.44 150.54s2.442-2.958 5.41-.78c0 0-.66-5.77-3.675-9.3 0 0-2.253-1.472-3.536 1.727 0 0 2.13 2.67 1.8 8.353zM80.3 131.784s.3 3.72-2.715 4.705c0 0 3 3.56 5.233 4.3 0 0 2.71-1.11 2.28-3.88 0 0-3.205-2.12-4.797-5.14z"/><path fill="#FFF100" d="M66.238 51.548l-.333.033.233 1.43-.233 1.43-4.25.37 1.262 8.07-.233 1.43-.332.04.233 1.43-.233 1.43-4.682.4-.033-.07-.2-1.33-.463.04v-.06l-4.417-28.03.432-1.29.59-.03v-.2l.43-1.26 10.86-.97.66 4.32-.24 1.43-.33.03.23 1.4-.24 1.42-5.12.47.43 2.79 5.48-.46.69 4.35-.24 1.43zm-12.95-9.963c.132.863.304 1.96.514 3.287.21 1.33.465 2.968.764 4.916.298 1.948.658 4.23 1.08 6.84.42 2.613.895 5.646 1.426 9.1l.167-.7.13-.397v-.03l-.43-2.62-3.59-22.85-.3-1.92-.3.93.53 3.46zm.464-4.948c0 .023.005.045.017.068.01.02.01.044.01.065l.1.532c.04.243.09.53.13.863.17 1.283.45 3.1.83 5.445l1.24 8.003c.52 3.343 1.18 7.538 1.97 12.585l.3-1.095-3.92-24.972-.2-1.39-.17-1.06-.34.93v.04zm3.735 29.372c.01-.02.04-.02.084-.02h.22s.16-.01.25-.04c.31-.03.67-.05 1.06-.09.4-.04.78-.07 1.13-.12.4-.05.82-.08 1.26-.1l.2-1.26-3.85.33-.33.03-.06.26-.13.43-.13.56h.23c.05 0 .08-.01.09-.02zm.183.48c.022.11.034.21.034.31s.01.19.034.28l.266-.97-.4.03c.02.11.043.22.066.33zm.498-.37l-.332 1.26 4.316-.37.2-1.26-4.184.36zm3.985-3.19l-.464.03-3.19.3-.34 1.26c.62-.05 1.16-.09 1.62-.13.46-.05.85-.09 1.16-.14.37-.05.68-.07.93-.07.08 0 .17-.01.25-.02.07-.01.13-.02.18-.02h.2l.2-1.26-.57.03zm2.624-24.18l-.466.03-5.11.43.2 1.23 2.33-.18 1.6-.15c.49-.05.89-.08 1.2-.1.11 0 .2-.01.27-.02s.13-.02.2-.02h.13c.02 0 .04-.01.04-.04l.2-1.27-.56.06zm-5.147 3.12c.42-.05.885-.09 1.395-.13.51-.05.99-.09 1.444-.14.45-.05 1-.09 1.64-.13l.2-1.27-4.88.43.2 1.22zm0 .16l.2 1.23c.398-.03.88-.07 1.444-.12s1.107-.11 1.627-.15 1.16-.1 1.91-.17l.2-1.27-5.38.46zm6.442 9.36l.2-1.26-.565.03-.464.06-4.25.36.198 1.22c.73-.07 1.37-.12 1.9-.15.53-.04.98-.07 1.33-.12.4-.05.74-.08 1.03-.1.09-.02.17-.03.25-.03.08 0 .14-.01.18-.04h.2zm-4.85.59l.168 1.23c.375-.05.77-.08 1.18-.1.407-.03.8-.06 1.176-.1.42-.05.853-.08 1.295-.1l.2-1.27-4.01.33zm.2 1.39l.2 1.23c.332-.02.73-.05 1.195-.09.465-.03.918-.07 1.36-.11l1.53-.14.198-1.26-4.482.36zM86.76 59.6c0 .11-.006.228-.018.35-.012.12-.028.24-.05.35.044.773-.044 1.45-.266 2.024-.088.575-.227 1.133-.415 1.675-.18.54-.48 1.03-.87 1.48-1.06 1.19-2.47 1.88-4.21 2.06-.11 0-.23 0-.36.01-.13.01-.25.02-.36.02-1.44 0-2.78-.43-4.02-1.3-.44-.33-.84-.71-1.19-1.13-.35-.42-.63-.9-.83-1.43-.35-.42-.62-.9-.81-1.42-.18-.52-.33-1.09-.44-1.71l-3.56-22.31.43-1.27.63-.07-.03-.2.44-1.26 4.48-.4 3.49 21.98c.07.49.29.94.67 1.37.4.4.85.6 1.36.6l-3.35-21.45.44-1.26.6-.06-.03-.19.43-1.29 4.52-.36L87 56.95c.13.99.064 1.89-.2 2.69zm-12.92 3.36c.067.11.133.228.2.35.066.12.144.237.232.35.178.24.38.474.614.695s.47.42.714.6c1.35.973 2.89 1.382 4.616 1.226.155 0 .343-.02.565-.06 1.42-.22 2.6-.86 3.56-1.92.13-.15.25-.31.35-.46.1-.15.21-.31.32-.46-1.04.91-2.28 1.43-3.72 1.56l-.69.1c-1.77.16-3.33-.26-4.68-1.26-.57-.4-1.03-.84-1.36-1.33-.51-.66-.88-1.5-1.13-2.52-.02-.09-.04-.18-.05-.27-.01-.09-.02-.19-.05-.3L70.97 44.3l-.764-4.814-.03-.366-.3-1.76-.332.962 3.52 22.25c.135.907.4 1.703.8 2.39zm-3.288-26.03l.2 1.23 3.32 20.887c.31 1.924 1.162 3.385 2.557 4.382 1.3.95 2.84 1.36 4.61 1.23.62-.07 1.15-.18 1.59-.34.9-.34 1.69-.85 2.35-1.53.06-.07.12-.11.16-.13.02-.05.07-.11.16-.2.53-.69.86-1.45.99-2.29-.12.22-.23.42-.35.61-.13.18-.26.36-.42.54l-.04.03c-1.04 1.16-2.42 1.83-4.15 2-1.79.13-3.35-.29-4.68-1.26-1.4-1.04-2.26-2.51-2.59-4.42l-3.06-19.6-.2-1.2-.17-1.1-.34.96v.16zM85 65.36c.333-.376.592-.763.78-1.16.188-.4.327-.83.416-1.296-.222.42-.488.807-.797 1.163-.91 1.04-2.07 1.694-3.49 1.96-.27.086-.54.16-.82.213-.28.056-.56.095-.85.118-.14.02-.26.033-.38.033h-.35c-1.53 0-2.87-.43-4.02-1.3-.29-.2-.59-.45-.9-.76.44.74.99 1.35 1.66 1.83 1.3.96 2.85 1.37 4.65 1.24 1.7-.17 3.06-.85 4.08-2.02zm-6.642-23.11l.73 4.566c.267 1.67.52 3.298.764 4.88.244 1.583.465 3.034.664 4.35.2 1.318.354 2.297.465 2.94.05-.022.1-.034.17-.034s.12-.02.17-.067c.02 0 .04-.005.05-.017.01-.01.03-.016.05-.016v-.166L78.23 38.43l-.266-1.794-.332.897c.268 1.773.51 3.344.73 4.717zm.266-6.176c0 .02.005.045.016.066.01.022.017.055.017.1.022.243.088.642.2 1.195.176 1.084.41 2.568.697 4.45.244 1.616.57 3.75.98 6.408.41 2.656.935 5.956 1.577 9.895.27-.354.38-.696.34-1.03L79.33 37.4l-.17-1.227-.2-1.063-.33.896v.068zm28.358 27.46l-.332.034.232 1.395-.266 1.428-5.61.47-.566-1.36-.1.03-3.52-8.2.896 5.61-.232 1.43-.333.04.24 1.36-.23 1.46-4.38.37v-.06l-.2-1.33-.46.04v-.06l-4.39-27.83.44-1.26.6-.07-.03-.16.44-1.26 5.44-.46 3.49 7.93-.86-5.54.43-1.26.6-.07-.03-.17.43-1.26 4.19-.36 4.39 27.73-.23 1.43zm-18.53-21.75c.134.864.305 1.956.516 3.27.21 1.32.465 2.94.763 4.867.3 1.93.66 4.19 1.07 6.79.41 2.61.88 5.61 1.41 9.02l.17-.66.13-.4-2.02-12.85-1.96-12.45-.3-1.89-.33.9c.07.27.26 1.41.57 3.42zm.465-4.78c.022.11.056.28.1.513.043.232.088.526.132.88.17 1.284.45 3.09.83 5.413l1.24 7.936c.52 3.32 1.18 7.483 1.97 12.486l.3-1.062-3.89-24.806-.24-1.394-.17-.998-.3.897V37zm3.787 29.022c.065-.023.138-.034.215-.034.07 0 .16-.012.25-.033.28-.03.61-.05.97-.07.36-.02.7-.06 1.01-.1.37-.05.75-.08 1.13-.1l.23-1.26-3.55.33-.34.03-.07.26-.13.39-.14.59c.02 0 .04-.01.05-.02.01-.01.04-.01.08-.01h.26zm.1.497c.02.11.032.21.032.3s.01.177.034.265l.265-.93-.398.033.066.34zm.497-.398l-.33 1.26 3.99-.33.23-1.262-3.88.332zm3.66-3.12l-.46.032-2.85.266-.33 1.262 3.39-.3c.09-.02.17-.032.25-.032h.18c.05 0 .07-.006.09-.017.01-.01.03-.017.05-.017h.07l.24-1.27-.6.06zm4.45.664l.3-1.2-6.41-14.91.47 3.02 5.65 13.08zm-4.68-7.04l3.65 8.53.04-.14.27-1.07-4.42-10.36.4 2.69.07.33zm1-17.17l.3 1.97.33 2.24.47.99.27.63-1.06-6.77-.3-1.9-.3.86.3 1.96zm.7-3.42c0 .06.01.11.04.13.02.11.05.29.09.53l.12.86c.11.66.24 1.5.4 2.52l.5 3.27c.2 1.32.46 2.88.77 4.7l.7 1.66-1.93-12.19-.2-1.4-.16-1-.3.86v.03zm7.61 27.56l-5.18.46v.03l-.33 1.19v.03h.04c.05 0 .14-.01.27-.02.14-.01.31-.03.53-.05.38-.05.82-.09 1.31-.12.5-.03.98-.07 1.45-.12.56-.05 1.12-.1 1.7-.17l.23-1.26zm-4.98 2.92l.3-1.1-.73.06.43 1.03zm.47-1.1l-.33 1.26 5.28-.47.23-1.26-5.18.46zm5.11-2.03c.02 0 .04-.01.07-.02.02-.01.05-.02.07-.02h.04l.23-1.27-.59.07-.43.03-4.15.36-.33 1.26c.82-.07 1.52-.12 2.11-.17.59-.05 1.07-.09 1.45-.14.44-.05.82-.08 1.13-.1.09-.03.17-.04.25-.04h.18zm28.39.03l-.76.06.57 1.23.07.13-.2 1.46-5.01.46-.03-.07-.6-1.33H129l-.03-.04-4.35-9.76 1.13 7.24-.234 1.46h-.33l.23 1.43-.26 1.43-4.75.43v-.06l-.23-1.33-.466.03v-.1l-4.45-28.26.43-1.3.63-.07-.03-.17.43-1.3 7.3-.62c3.785-.33 6.11 2.29 6.974 7.87.31 1.79.408 3.11.297 3.95-.02.2-.05.38-.1.55l-.13.51c0 .15-.01.26-.03.33-.09.99-.44 1.85-1.06 2.55-.04.09-.06.16-.06.2l5.32 11.46.04.16-.2 1.42zm-19.06-22.08c.13.86.31 1.97.52 3.32.21 1.35.47 3 .78 4.96.31 1.96.67 4.26 1.08 6.91.41 2.64.89 5.7 1.44 9.18l.2-.7.1-.4-1.33-8.57-2.72-17.2-.3-1.96-.3.96.53 3.48zm.47-4.95c0 .02.01.04.02.05.01.01.02.03.02.05.02.11.05.28.08.51.03.23.08.52.15.88.2 1.3.49 3.13.86 5.48.32 2.01.73 4.71 1.25 8.08.52 3.38 1.19 7.62 2.01 12.73l.3-1.1-3.98-25.24-.2-1.43-.17-1.03-.33.96v.03zm3.89 29.59c.07 0 .13-.01.2-.02s.15-.02.27-.02c.31-.03.67-.06 1.08-.1.41-.05.79-.09 1.15-.12l1.3-.12.2-1.26-3.92.36h-.36l-.07.3-.1.39-.16.6h.17c.02 0 .05-.02.07-.04h.2zm.07.49c.02.11.04.22.05.32.01.1.03.19.05.28l.27-.96-.43.03.07.33zm.53-.37l-.33 1.26c1.11-.11 1.95-.19 2.52-.23.58-.05 1.01-.08 1.3-.1.31-.02.5-.04.57-.04l.23-1.26-4.28.36zm4.02-3.22l-.46.03-3.22.3-.33 1.26 1.66-.12c.46-.04.85-.07 1.16-.12.38-.05.69-.08.93-.1.11 0 .21-.01.29-.02.07-.01.14-.02.18-.02h.2l.2-1.26-.6.03zm1.36-17.84c.02.31.04.59.04.83.29-.6.32-1.67.1-3.22-.04-.22-.07-.41-.08-.57-.02-.16-.03-.29-.05-.4-.45-1.99-1.21-2.95-2.3-2.86l-2.02.17.2 1.23 1.5-.14c.58-.05 1.07.17 1.48.66.41.48.71 1.25.88 2.29l.14.96c.07.38.11.72.13 1.03zm-3.88-3.39l.23-.04c.27-.02.51.01.73.1.6.27 1.07.91 1.4 1.93l.07.26.06.26c.04.18.08.3.1.36l.17.99c.02.18.04.34.05.48.01.15.03.3.05.45h.27c.02-.04.03-.12.03-.23v-.4c0-.13-.01-.29-.03-.47 0-.18-.01-.37-.03-.57-.02-.19-.06-.4-.1-.63-.04-.24-.07-.43-.08-.58-.01-.14-.03-.27-.05-.38-.05-.18-.08-.34-.12-.48-.03-.14-.07-.28-.12-.41-.46-1.4-1.15-2.06-2.06-2l-.76.07.2 1.26zm.2 1.39l.69-.06c.44-.02.83.1 1.17.36-.4-1.04-.97-1.56-1.7-1.56l-.33.03.17 1.23zm2.49 3.45c-.02-.16-.04-.31-.05-.47-.01-.16-.04-.32-.08-.5l-.13-.97c-.04-.15-.08-.3-.11-.43s-.07-.27-.11-.4c-.33-.44-.75-.64-1.26-.6l-.7.07.56 3.45 1.9-.17zm.07 4.41l-1.3.13.2 1.23.79-.07.3-1.29zm-1.03 1.53h-.03v.1l.03-.1zm.4 2.55l4.48 10.03.03-.11.27-1.13-4.38-9.79-.63-1.46-.13.43.17.89.17 1.03.03.1zm5.51 8.5l.3-1.23L125.32 51l-.3 1.26 5.04 11.224zm-.9 1.69c.09 0 .36-.04.83-.1.33-.02.71-.05 1.15-.09.43-.04.85-.07 1.25-.12.47-.04.94-.09 1.43-.13l.2-1.27-4.55.4v.03l-.3 1.23v.03zm.53 1.19l.3-1.1-.76.06.46 1.03zm1.13-18.53c-.16.29-.32.54-.5.77-.04.04-.09.1-.15.16-.05.06-.1.12-.15.16-.11.09-.21.17-.28.25-.07.08-.17.16-.28.25l.14.27.07.16.1.23c.02 0 .03-.01.03-.03l.3-.4c.35-.51.6-1.12.73-1.83zm-.66 17.4l-.3 1.3c1.15-.11 2.04-.18 2.66-.22.62-.04 1.09-.08 1.4-.12.35-.03.55-.05.59-.07l.2-1.26-4.55.36zm4.88-3.25l-1.4.1h-.03l-3.12.3-.3 1.26c.66-.05 1.24-.09 1.73-.14.49-.05.9-.09 1.23-.13.4-.05.73-.07.99-.07.03 0 .04-.01.04-.02s.01-.02.03-.02c.09 0 .18-.01.27-.02.09-.01.16-.01.2-.01h.17l.2-1.27zm17.95-2.4c0 .11 0 .22-.02.35-.01.12-.02.24-.05.35.05.77-.04 1.45-.26 2.02-.08.58-.22 1.13-.41 1.68-.19.54-.48 1.03-.88 1.48-1.06 1.19-2.47 1.88-4.22 2.06-.11 0-.23 0-.37.01-.13.01-.25.02-.36.02-1.44 0-2.78-.43-4.02-1.3-.44-.33-.84-.71-1.19-1.13-.35-.42-.63-.9-.83-1.43-.35-.42-.63-.89-.81-1.41-.19-.52-.34-1.09-.45-1.71l-3.52-22.34.4-1.23.63-.07-.03-.2.43-1.26 4.48-.4 3.49 21.99c.07.48.29.94.67 1.36.4.4.86.6 1.36.6l-3.35-21.45.44-1.26.6-.07-.03-.2.43-1.3 4.52-.37 3.56 22.54c.13.99.06 1.89-.2 2.68zm-12.92 3.35c.07.11.14.23.2.35.07.12.15.24.23.35.18.24.39.47.62.69.23.22.47.42.72.6 1.35.97 2.89 1.38 4.62 1.23.16 0 .34-.02.56-.06 1.42-.22 2.6-.87 3.55-1.93.14-.15.25-.31.35-.46.1-.16.21-.31.32-.47-1.04.91-2.28 1.43-3.72 1.56l-.7.1c-1.77.15-3.33-.27-4.68-1.26-.57-.4-1.03-.85-1.36-1.33-.51-.67-.89-1.51-1.13-2.53-.02-.09-.03-.18-.05-.26-.01-.09-.03-.19-.05-.3l-2.36-14.94-.76-4.82-.03-.36-.3-1.76-.34.96 3.52 22.25c.13.91.4 1.7.8 2.39zM136.8 36.9l.198 1.23 3.32 20.89c.31 1.923 1.165 3.384 2.56 4.38 1.31.95 2.846 1.36 4.616 1.23.62-.067 1.15-.18 1.59-.33.9-.335 1.69-.84 2.35-1.53.06-.07.12-.11.16-.14.02-.043.08-.11.16-.197.54-.69.87-1.45 1-2.29-.11.22-.23.42-.35.61-.12.18-.26.36-.41.54l-.03.03c-1.04 1.16-2.43 1.83-4.15 2-1.79.13-3.36-.29-4.68-1.26-1.4-1.04-2.26-2.51-2.59-4.41l-3.06-19.6-.2-1.2-.17-1.1-.335.96v.17zm14.44 28.424c.33-.37.59-.76.78-1.16.19-.4.328-.83.417-1.29-.22.42-.485.81-.794 1.17-.91 1.04-2.07 1.7-3.49 1.96-.27.09-.54.16-.82.22-.277.05-.56.09-.847.113-.13.02-.26.03-.38.03h-.35c-1.52 0-2.86-.43-4.01-1.3-.28-.2-.58-.455-.89-.767.45.73 1 1.34 1.66 1.83 1.31.95 2.86 1.36 4.65 1.23 1.71-.18 3.07-.85 4.09-2.03zm-6.64-23.11l.73 4.57c.267 1.67.52 3.295.76 4.88.248 1.58.47 3.03.67 4.35.2 1.315.357 2.29.468 2.94.05-.025.1-.04.17-.04s.12-.02.17-.06c.02 0 .035-.01.05-.02.01-.01.025-.02.05-.02v-.167l-3.19-20.25-.27-1.793-.33.9c.265 1.775.51 3.346.73 4.72zm.267-6.17c0 .02.006.05.02.07.02.02.02.054.02.1.02.24.09.64.2 1.194.18 1.08.41 2.566.7 4.45.243 1.61.57 3.75.98 6.406.41 2.65.934 5.95 1.575 9.89.266-.35.376-.693.33-1.03l-3.12-19.754-.165-1.225-.2-1.064-.33.9v.07zm28.36 27.46l-.33.04.23 1.393-.263 1.43-5.62.466-.57-1.36-.1.03-3.52-8.206.89 5.61-.24 1.43-.33.03.234 1.36-.235 1.46-4.38.37v-.07l-.2-1.33-.465.03v-.066l-4.39-27.82.43-1.26.596-.06-.03-.16.43-1.26 5.443-.46 3.49 7.94-.87-5.55.43-1.26.6-.06-.03-.17.43-1.26 4.185-.36 4.39 27.73-.24 1.43zm-18.53-21.75c.13.87.3 1.96.51 3.27.21 1.32.46 2.94.76 4.87.3 1.93.65 4.19 1.06 6.79.41 2.605.88 5.61 1.41 9.02l.17-.665.136-.4-2.04-12.84-1.96-12.45-.3-1.89-.33.89c.064.26.25 1.4.562 3.42zm.463-4.78c.02.11.055.28.1.52.044.24.09.53.133.88.17 1.29.45 3.09.83 5.42l1.24 7.93c.52 3.32 1.18 7.48 1.98 12.48l.3-1.06-3.89-24.81-.23-1.4-.17-1-.29.9V37zm3.79 29.02c.06-.02.133-.03.21-.03.075 0 .16-.01.25-.03.284-.027.61-.05.976-.07.365-.02.7-.058 1.014-.1.375-.047.75-.08 1.126-.1l.24-1.26-3.55.33-.335.033-.06.26-.13.4-.13.6c.02 0 .04-.008.05-.02.01-.01.04-.016.09-.016h.27zm.1.5c.02.11.03.21.03.3s.01.18.03.27l.27-.93-.4.034.06.33zm.493-.39l-.34 1.26 3.98-.33.23-1.27-3.88.33zm3.65-3.12l-.47.03-2.86.26-.33 1.26 3.39-.3c.08-.02.17-.036.24-.036h.18c.04 0 .07-.005.08-.016.01-.01.02-.01.05-.01h.06l.23-1.26-.6.07zm4.45.66l.3-1.2-6.41-14.91.46 3.02 5.65 13.083zm-4.68-7.04l3.65 8.53.03-.137.27-1.067-4.42-10.36.4 2.69.07.33zm.99-17.17c.09.57.19 1.23.3 1.97l.33 2.24.46 1 .26.63-1.06-6.77-.3-1.9-.3.87c.11.73.21 1.39.3 1.96zm.7-3.42c0 .062.01.11.03.13.02.11.05.29.09.53l.11.86c.11.66.243 1.502.4 2.52.14.86.3 1.95.5 3.27s.45 2.88.77 4.7l.7 1.66-1.93-12.19-.2-1.39-.17-1-.3.866V36zm7.6 27.56l-5.18.46v.038l-.33 1.2v.04h.03c.04 0 .13 0 .26-.01s.31-.03.53-.05c.378-.04.815-.08 1.31-.11.5-.03.98-.07 1.448-.113.55-.05 1.12-.1 1.69-.17l.23-1.26zm-4.98 2.92l.3-1.098-.73.06.43 1.03zm.47-1.098l-.34 1.26 5.28-.47.23-1.26-5.18.47zm5.11-2.03c.02 0 .04 0 .07-.01.02-.01.04-.018.06-.018h.03l.23-1.264-.6.062-.432.03-4.15.366-.33 1.26c.82-.07 1.52-.12 2.11-.168.59-.05 1.07-.09 1.45-.137.45-.04.82-.08 1.13-.1.09-.02.17-.03.25-.03h.19zm10.82.83l-.33.04.23 1.425-.23 1.5-4.72.4-.203-1.43-.5.04-.8-5.11.53-1.33.53-.04v-.19l-.2.04-.036-.1-.263-1.33-.39.03v-.06l-4.15-20.39.47-1.33.6-.06-.03-.16.47-1.33 5.12-.43 2.46 20.42-.23 1.5h-.27l.17 1.46-.04.16 1.29-.1.8 4.95-.27 1.46zm-6.31-6.57l.14-.5.1-.365.1-.3-3.59-17.63-.07-.36-.36-1.79-.364 1 4.05 19.96zm-2.95-21.35l.26 1.426 3.75 18.4.3-1.165-3.48-17.3-.3-1.4-.234-1.13-.33 1.03.03.135zm3.02 25.37c.04.31.11.77.194 1.377.09.61.22 1.49.4 2.64l.2-.695.14-.4-.13-.764-.2-1.36-.07-.334-.296-1.86-.34.8c0 .07.04.27.1.6zm.393-3.755l.53-.03 2.42-.23.23-1.26-2.886.23-.3.04-.14.5-.1.4-.1.4h.16l.17-.04zm.23 1.13l.262-.99-.467.04.2.96zm.4 6.93c.02-.01.05-.02.094-.02h.21c.08 0 .16-.01.25-.03.31-.02.67-.05 1.07-.08s.773-.06 1.13-.1l1.26-.11.234-1.3-3.886.33-.33.04-.068.33-.14.4-.17.56h.264c.026.01.05 0 .07-.01zm-.2-6.62l.46-1.13 2.96-.26.03-.16-3.187.27-.37 1.29h.1zm.1.23c0 .05.01.08.03.1l.1.6c.042.27.09.56.133.87.02.27.06.56.13.87.04.26.09.58.15.94.05.37.11.76.18 1.18l.3-1.06-.3-1.99-.23-1.43-.03-.2-.04-.17-.06-.57-.27.6-.07.2-.03.04v.04zm3.184-4.71l-.54.07-2.155.16-.33 1.3 2.62-.2.53-.06h.13l.24-1.29-.5.03zm-2.92 11.62l.09.6.3-1-.43.07c0 .14.01.25.04.33zm.56-.4l-.37 1.3 4.315-.36.23-1.3-4.18.37zm4.12-1.99c.04 0 .07 0 .08-.02.01-.01.03-.02.05-.02h.06l.23-1.26-.6.04-.5.03-3.09.3-.363 1.3c.62-.05 1.155-.09 1.61-.13.45-.05.83-.09 1.146-.14.36-.04.657-.06.9-.06.11-.02.206-.03.28-.03h.186z"/><path fill="#FFF" d="M68.61 199.593l16.186 6.007 38.425-8.413-9.32-2.262m6.83-.95l7.99 2.234 17.9-4.18-2.72-.42"/><circle fill="#0071BC" cx="92.761" cy="95.492" r="9.872"/><path fill="#0F4481" d="M92.05 97.977c-1.833-2.12-1.602-5.32.514-7.15 2.118-1.833 5.318-1.603 7.152.516 1.83 2.116 1.6 5.32-.517 7.15-2.12 1.832-5.32 1.6-7.15-.516z"/><path fill="#FFF" d="M95.003 96.422c-.974-1.126-.85-2.826.274-3.8 1.124-.972 2.827-.852 3.802.273.97 1.125.84 2.828-.28 3.802-1.13.974-2.83.85-3.8-.275z"/><circle fill="#FFF" cx="90.902" cy="93.961" r="1.312"/><circle fill="#0071BC" cx="121.138" cy="103.204" r="11.99"/><path fill="#0F4481" d="M120.276 106.222c-2.227-2.574-1.946-6.46.625-8.686 2.58-2.225 6.46-1.946 8.69.627 2.23 2.57 1.95 6.46-.63 8.685-2.57 2.226-6.46 1.945-8.68-.626z"/><path fill="#FFF" d="M123.862 104.333c-1.183-1.368-1.034-3.432.333-4.614 1.364-1.19 3.434-1.04 4.618.33 1.182 1.36 1.03 3.43-.337 4.61-1.368 1.18-3.43 1.03-4.614-.34z"/><circle fill="#FFF" cx="118.881" cy="101.345" r="1.594"/></svg>