<svg xmlns="http://www.w3.org/2000/svg" width="250" height="250" viewBox="0 0 250 250"><path opacity=".15" d="M187.304 112.867c-.868-.958-1.996-1.51-3.188-1.808-1.62-.47-3.395-.43-4.838-.25-4.245-6.6-11.547-12.04-20.653-14.57-7.835-2.18-15.634-1.82-22.144.53-1.62-1.73-3.43-3.27-5.4-4.58h38.21l11.39 16.31V39c0-4.45-4.05-8.06-9.04-8.06H77.95c-4.993 0-9.04 3.61-9.04 8.06v45.14c0 4.45 4.05 8.06 9.04 8.06h13.84c-11.204 6.16-17.78 18.96-15.416 32.24l12.6 70.753c.195 1.097.448 2.172.753 3.218.28.97.606 1.91.973 2.82-.206.16-.37.32-.476.46-.62.89-.657 1.99-.357 3.18 8.074 11.71 22.042 19.03 37.385 18.03 22.433-1.46 34.424-18.2 33.703-40.05 5.335-.89 10.932-4.61 15.294-11.78 10.26-16.87 10.84-26.85 8.4-48.75 5.85-4.73 2.65-9.43 2.65-9.43z"/><path fill="#F69C95" d="M177.664 75.114v30.405L162.29 83.49"/><path fill="#FBC5A7" d="M177.664 81.15c0 4.45-4.05 8.06-9.044 8.06H74.946c-4.993 0-9.042-3.61-9.042-8.06V36.017c0-4.45 4.05-8.06 9.042-8.06h93.674c4.993 0 9.044 3.61 9.044 8.06V81.15z"/><path fill="#BE1E2D" d="M73.306 44.323c0 5.09 1.492 7.225 3.978 7.225 1.053 0 2.02-.176 2.808-.498v-3.305c-.79-.263-1.492-.644-1.843-1.082l.29-2.31h6.84l.29 2.31c-.29.35-.79.643-1.38.907v5.41c-1.9 1.405-4.01 1.873-7.29 1.873-5.47 0-8.11-2.78-8.11-10.267 0-7.196 3.45-10.384 8.8-10.384 2.69 0 4.77.585 6.52 1.843.09 1.23-.29 3.305-.79 4.33h-2.69c-.26-.5-.5-1.493-.59-2.43-.85-.29-1.64-.437-2.69-.437-2.4 0-4.18 1.462-4.18 6.815zM99.32 53.01s-1.432 1.843-5.293 1.843c-4.71 0-7.05-2.603-7.05-7.313 0-5.997 3.657-7.78 7.08-7.78 3.247 0 5.587 1.257 5.587 6.375 0 1.346-.644 2.106-2.077 2.106H91.22c.175 2.46 1.198 3.37 3.597 3.37 2.223 0 3.627-.93 3.627-.93l.877 2.34zm-8.072-7.196l4.622-.175c.322-1.82-.497-2.9-2.047-2.9-1.464 0-2.312.76-2.575 3.07zm9.184-5.147c.41-.468 1.258-.85 1.93-1.112.176-1.23.557-2.545 1.668-3.247h2.136v3.686h4.183v2.457h-4.19v7.4c0 1.15.23 1.79 1.28 1.79.61 0 1.61-.14 2.37-.44l.87 2.29c-1.55.79-3.02 1.14-4.92 1.14-2.9 0-3.72-1.55-3.72-3.95v-8.22h-1.32l-.33-1.78zm27.995 14.1h-4.505l-4.68-16.908c-.702-.27-1.316-.62-1.61-1l.293-2.43h6.757l.293 2.43c-.322.38-.907.73-1.58.96l2.077 8.63c.585 2.45.79 4.21.79 4.21h.41s.028-1.73.555-4.16l2.633-11.88h4.476l2.632 11.81c.556 2.46.702 4.24.702 4.24h.41s.06-1.79.7-4.18l2.313-8.57c-.73-.27-1.375-.65-1.697-1.08l.293-2.43h6.46l.29 2.43c-.38.46-1.14.87-1.96 1.14l-4.92 16.76h-4.59l-2.37-11.06c-.53-2.49-.68-4.48-.68-4.48h-.41s-.12 2.02-.65 4.44l-2.46 11.09zm29.237-1.757s-1.434 1.843-5.294 1.843c-4.71 0-7.05-2.603-7.05-7.313 0-5.997 3.656-7.78 7.078-7.78 3.247 0 5.588 1.257 5.588 6.375 0 1.346-.644 2.106-2.077 2.106h-6.35c.17 2.46 1.2 3.37 3.6 3.37 2.22 0 3.62-.93 3.62-.93l.88 2.34zm-8.073-7.196l4.63-.175c.32-1.82-.5-2.9-2.05-2.9-1.46 0-2.31.76-2.57 3.07zm9.69-11.964c1.52-.35 3.78-.438 5.41-.29v17.81c.68.264 1.29.614 1.61.995l-.3 2.255h-6.72l-.29-2.253c.3-.38.91-.73 1.61-.995V37.098c-.67-.234-1.23-.585-1.61-.995l.3-2.252zm8.32 0c1.52-.35 3.78-.438 5.41-.29v17.81c.68.264 1.29.614 1.61.995l-.29 2.252h-6.73l-.29-2.253c.3-.38.91-.73 1.61-.995V37.09c-.67-.234-1.23-.585-1.61-.995l.3-2.25z"/><path fill="#0E4F82" d="M90.843 65.402c-.43-.61-.682-2.223-.717-2.833-.682-.18-1.686-.33-2.582-.33-1.685 0-2.904.93-2.904 2.47 0 1.57.538 2.4 3.012 3.12l3.19.93c2.905.86 5.63 2.54 5.63 7.02 0 5.05-4.16 7.89-9.18 7.89-2.653 0-6.096-.68-8.21-2.12-.108-1.51.357-4.05.967-5.31h3.4c.32.64.61 1.86.68 2.97.93.39 2.11.54 2.97.54 2.04 0 3.76-1.01 3.76-3.05 0-1.12-.15-2.26-2.37-2.94l-3.69-1.07c-3.12-.9-5.63-2.91-5.63-7.17 0-4.41 3.55-7.17 8.46-7.17 2.4 0 5.2.61 7.56 1.72.11 1.5-.36 4.05-.96 5.31h-3.4zm15.997-.214c5.702 0 8.427 2.69 8.427 8.964 0 5.953-3.156 9.54-8.857 9.54-5.666 0-8.355-2.94-8.355-9.18 0-5.99 3.12-9.324 8.785-9.324zm-.18 14.845c2.26 0 3.443-1.542 3.443-5.594 0-4.09-1.327-5.6-3.514-5.6s-3.38 1.36-3.38 5.45c0 4.05 1.32 5.74 3.44 5.74zm18.97-14.845c5.7 0 8.425 2.69 8.425 8.964 0 5.953-3.155 9.54-8.856 9.54-5.67 0-8.36-2.94-8.36-9.18 0-5.99 3.12-9.324 8.78-9.324zm-.18 14.845c2.258 0 3.44-1.542 3.44-5.594 0-4.09-1.326-5.6-3.513-5.6-2.188 0-3.37 1.36-3.37 5.45 0 4.05 1.327 5.74 3.442 5.74zm10.135-14.56c1.864-.43 4.16-.537 6.167-.357v1.793c1.22-1.01 3.443-1.73 5.235-1.73 4.698 0 6.348 1.97 6.348 7.35v6.88c.824.32 1.577.75 1.972 1.22l-.358 2.76h-8.25l-.36-2.76c.36-.47 1.11-.9 1.97-1.22v-7.1c0-2.73-.94-3.27-2.69-3.27-1.4 0-2.55.54-3.41 1.14v9.22c.82.32 1.57.75 1.97 1.22l-.36 2.76h-8.25l-.36-2.76c.35-.47 1.11-.9 1.97-1.22v-9.97c-.83-.29-1.51-.72-1.97-1.22l.35-2.76zm24.553 12.982c1.757 0 2.868.68 2.868 2.653 0 2.008-1.11 2.653-2.868 2.653s-2.833-.64-2.833-2.65c0-1.97 1.076-2.65 2.833-2.65zm-1.614-2.295c-1.112-4.447-1.435-10.686-.896-17.5h5.092c.466 6.814.144 13.053-.97 17.5h-3.226z"/><path fill="#FFF" d="M105.266 82.174s3.305-.847 5.21 5.366c1.907 6.213 2.19-6.226 2.19-6.226s1.84-.11 3.413 5.614c1.57 5.723-6.22 6.448-6.22 6.448l-5.35-7.173.75-4.03zm41.227 39.754l.965 26.97s-10.383 6.375-6.23 20.048c4.155 13.67 21.6 16.233 32.022-.894 11.342-18.638 10.858-28.874 7.54-56.068"/><path fill="#D1D2D2" d="M160.792 134.328l2.562 21.333s-7.48 2.49-13.028 18.96c0 0-19.644-12.36.315-21.55l3.47-32.77 6.69 14.04z"/><path fill="#BE1E2D" d="M107.395 136.63l7.55-1.344c15.576-2.773 29.755 2.594 33.117 12.127l-6.778-38.06c-2.97-16.67-18.886-27.774-35.555-24.806l-7.55 1.345c-16.67 2.97-27.78 18.888-24.81 35.554l12.6 70.752c.19 1.097.44 2.172.75 3.218l-6.02-33.844c-1.93-10.806 10.02-21.972 26.69-24.94z"/><path fill="#0E4F82" d="M121.527 217.003l7.552-1.344c16.66-2.97 27.77-18.89 24.8-35.56l-5.82-32.69c-3.36-9.54-17.54-14.9-33.12-12.13l-7.55 1.34c-16.67 2.97-28.62 14.13-26.7 24.94l6.02 33.84c4.31 14.85 19.23 24.36 34.8 21.58z"/><ellipse fill="#FFF" cx="91.466" cy="105.519" rx="9.79" ry="9.373"/><path fill="#FFF" d="M155.19 168.053s-24.178-4.97-32.93 10.574c0 0-8.43-26.956-16.044-23.187 0 0-1.49 3.485 1.306 3.87 0 0-3.12 1.95 1.48 3.726 0 0-2.986 3.003 1.41 4.184l10.962 18s2.896 3.314 3.046-1.51c0 0 3.76-15.19 25.85-10.963 22.09 4.23 4.92-4.694 4.92-4.694z"/><path fill="#D0D1D2" d="M109.798 162.763s3.944-.49 3.674 5.29c0 0 1.315-6.64-3.674-5.29zm-1.223-3.625s3.353-.827 2.946 1.488c0 0-.09-1.6-2.94-1.488zm20.538-63.516s-8.912-7.71-6.923 5.45l2.16-.932 4.763-4.518z"/><path fill="#D0D1D2" d="M129.398 95.702s-8.91-7.712-6.92 5.45l2.158-.932 4.762-4.518z"/><ellipse transform="rotate(15.5 148.5 117.7)" fill="#FFF" cx="148.768" cy="117.939" rx="31.982" ry="25.627"/><ellipse transform="rotate(15.5 143.9 117.1)" fill="#D0D1D2" cx="144.148" cy="117.295" rx="26.766" ry="20.416"/><path fill="#D0D1D2" d="M173.65 108.497s7.278-2.35 10.653 1.37c0 0 4.054 5.936-5.286 11.198l-2.32 1.473s-1.09-1.39-.205-3.497c0 0 11.138-7.21-1.555-7.33 0 0-1.87-.66-1.287-3.2z"/><path fill="#0B8ECC" d="M138.518 122.535s2.16-2.39 2.607 3.042l-3.84 1.768-2-3.184s3.03-4.05 3.233-1.62z"/><path fill="#FFF" d="M140.516 125.356l-1.65.75c-.002 0 .768-1.562 1.65-.75zm-3.994.104l-.722-1.025s.788-.144.722 1.024z"/><ellipse transform="rotate(15.5 130.5 111.7)" fill="#FFF" cx="130.694" cy="111.917" rx="10.965" ry="10.808"/><ellipse transform="rotate(15.5 155 118.8)" fill="#FFF" cx="155.199" cy="118.974" rx="13.536" ry="13.446"/><path fill="#919396" d="M175.676 110.836c-.005-.012 2.217 6.583 1.735 8.403l1.29-1.2s9.2-7.65-3.01-7.21z"/><path fill="#D0D1D2" d="M173.363 108.42s7.28-2.352 10.653 1.368c0 0 4.056 5.937-5.285 11.198l-2.32 1.474s-1.09-1.39-.2-3.498c0 0 11.14-7.21-1.55-7.34 0 .002-1.87-.663-1.28-3.202z"/><path fill="#6D6F71" d="M137.38 126.51l-.938 2.722.43.08.88-2.736"/><path fill="#6D6F71" d="M130.674 125.742s.97 5.623 5.938 2.997l.26.57s-6.485 2.82-6.666-3.66l.468.08z"/><path fill="#BE202E" d="M145.683 130.685s-5.11 8.534-10.602 2.704c0 0 .34-2.41-1.9-3.66 0 0 1.94.19 3.27-.51 0 0 5.4 6.79 8.92 1.29"/><path fill="#6D6F71" d="M136.98 128.723s4.003 7.047 8.38 1.802l.323.16s-3.54 6.004-9.24-1.452l.536-.51z"/><path fill="#6D6F71" d="M144.532 130.095s2.7-.738 1.518 1.612c0 0 1.866-2.786-1.518-1.612zm-10.7 2.06s-1.794 1.255 3.618 3.914c0 0-6.816-1.73-3.617-3.92z"/><path fill="#E6E7E8" d="M163.227 154.61s6.29-.994 8.532-6.212l-8.72 3.104.18 3.107z"/><path fill="#FFF" d="M158.58 173.384c.13.926-5.485 1.688-5.424 2.636 1.32 20.296-8.594 38.01-29.197 39.353-14.67.954-25.54-6.09-32.42-17.818-1.61-.855-3.75.4-4.32 1.138-.62.886-.66 1.984-.36 3.172 8.07 11.71 22.04 19.028 37.38 18.03 23.06-1.503 35.09-19.157 33.61-41.912-.12-1.81 5.14-5.646 4.76-7.354-1.53.58-2.92 1.47-4.05 2.75zm13.65-24.456c-24.3 12.782-54.45 0-54.45 0l1.957-4.922c27.96 12.01 50.778.874 50.778.874"/><circle fill="#FFF" cx="117.827" cy="134.453" r="2.377"/><circle fill="#FFF" cx="111.713" cy="83.493" r="2.377"/><circle fill="#FFF" cx="105.266" cy="84.551" r="2.377"/><circle fill="#FFF" cx="108.196" cy="138.236" r="2.377"/><circle fill="#FFF" cx="108.575" cy="148.398" r="2.377"/><path fill="#FFF" d="M119.995 135.427h-4.336s2.3 3.652.42 5.572c0 0-4.78-2.08-6.29-4.52l-1.6 1.15-.56 2.97s6.36 1.46 7.11 3.46c0 0-.71 2.24-6.18 1.94l.24 1.43 1.45 2.6s4.02-3.46 7.5-1.13c0 0 3.31-2.55 3.31-2.91 0-.36-1.35-2.02-1.35-2.02s-1.61-5.01.25-8.58z"/><circle fill="#0071BC" cx="133.163" cy="112.192" r="7.653"/><path fill="#0F4481" d="M132.612 114.12c-1.42-1.644-1.24-4.125.4-5.545s4.12-1.243 5.543.4c1.42 1.64 1.24 4.124-.4 5.544-1.64 1.41-4.123 1.24-5.543-.4z"/><path fill="#FFF" d="M134.9 112.913c-.754-.874-.658-2.19.214-2.945.87-.754 2.19-.662 2.946.21.755.874.658 2.193-.214 2.95-.87.753-2.19.657-2.945-.215z"/><circle fill="#FFF" cx="131.722" cy="111.005" r="1.017"/><path fill="#0071BC" d="M157.493 109.066c5.474 0 9.91 4.436 9.91 9.907 0 5.472-4.437 9.907-9.91 9.907-5.47 0-9.906-4.435-9.906-9.907 0-5.47 4.436-9.907 9.906-9.907z"/><path fill="#0F4481" d="M156.78 121.468c-1.84-2.127-1.606-5.34.518-7.177 2.124-1.83 5.336-1.6 7.177.52 1.838 2.13 1.605 5.34-.52 7.18-2.12 1.84-5.336 1.61-7.175-.52z"/><path fill="#FFF" d="M159.744 119.908c-.978-1.13-.854-2.836.275-3.813 1.12-.977 2.83-.857 3.81.273.97 1.13.85 2.838-.28 3.816-1.13.977-2.84.852-3.81-.276z"/><circle fill="#FFF" cx="155.628" cy="117.438" r="1.317"/></svg>