<svg xmlns="http://www.w3.org/2000/svg" width="250" height="250" viewBox="0 0 250 250"><path opacity=".15" d="M216.11 137.436l-.466-1.422-1.268-.792c-1.948-1.215-4.673-1.78-8.572-1.78-.506 0-1.017.01-1.525.026.39-1.292.57-2.465.6-3.368.18-2.648-.82-4.335-1.7-5.286-.91-.987-2.59-2.164-5.41-2.164-1.21 0-2.16.217-2.43.284l-3.88.975.86 3.9c.62 2.81-3.62 6.8-6.24 8.68l-3.19.35c-1.69-8.22-5.13-15.8-9.91-22.34l8.94-22.49c17-11.18 26.45-24.4 23.79-36.2-4.75-21.08-46.31-29.66-92.82-19.18-12.31 2.78-23.73 6.62-33.78 11.15-.16-.59-.38-1.14-.69-1.65-.58-.97-1.35-1.75-2.31-2.34-.75-.45-1.58-.77-2.55-.95h-.01c-.72-.13-1.47-.16-2.22-.1-1.28.1-2.44.43-3.44 1.01-.19.1-.36.22-.53.33-.52-.82-1.14-1.56-1.85-2.17-1.1-.95-2.37-1.61-3.78-1.99-.25-.07-.51-.13-.77-.17-.98-.19-2.01-.24-3.05-.16-1.76.14-3.49.57-5.17 1.28-1.59.67-3.1 1.58-4.49 2.68-1.36 1.07-2.61 2.35-3.72 3.79-1.11 1.44-2.06 3.03-2.82 4.73-.75 1.71-1.32 3.55-1.66 5.47-.36 1.96-.46 4-.3 6.06.14 1.81.56 3.54 1.25 5.16.66 1.54 1.55 2.91 2.64 4.1-5.51 7-7.94 14.19-6.42 20.91 1.35 5.99 5.68 10.96 12.24 14.78-.16.17-.32.33-.45.49-3.73 4.27-6.07 8.66-6.95 13.05-1.23 6.11.39 11.47 4.56 15.11 1.88 1.64 4.05 2.7 6.46 3.16 2.03.38 4.23.31 6.54-.2 3.66-.81 7.06-2.51 10.39-5.18.14-.12.27-.24.41-.36-1.08 4.43-1.67 9.05-1.67 13.81 0 24.81 15.68 45.96 37.67 54.08-.17.75-.2 1.54-.09 2.33l.2 1.5 1.13 1.01c.5.45 2.32 1.92 4.64 1.92.2 0 .4-.01.59-.03.57.22 1.18.34 1.81.34.68 0 1.3-.13 1.85-.33.54.18 1.12.29 1.75.29 1.1 0 2.58-.33 4-1.71l4.44-1c-1.88.78-3.43 1.75-4.5 2.97-1.43 1.63-2.06 3.68-1.78 5.76l.2 1.51 1.13 1.01c.53.48 2.47 2.04 4.93 2.04.24 0 .48-.02.72-.05.6.26 1.28.41 2.03.41.78 0 1.48-.17 2.11-.43.61.24 1.28.38 2.01.38 1.17 0 2.76-.37 4.29-1.9l20.33-4.58.76-.64c1.23-1.03 1.83-2.67 1.55-4.29-.46-2.67-2.87-4.05-5.1-4.94-.66-.52-2.13-1.9-2.99-4.29 18.42-9.38 31.12-28.38 31.5-50.38l3.18-.39c1.19.52 2.5.79 3.88.79 1.36 0 2.62-.26 3.66-.57l2.38 1.83c1.41 1.48 3.5 3.28 6.12 3.28 3.04 0 5.44-2.49 5.73-5.91l.14-1.74c.16.01.31.01.47.01 3.25 0 4.94-1.65 5.66-2.64 1.97-2.73 1.03-6.06.82-6.7zm-47.922-28.68c-2.03-2.134-4.22-4.112-6.555-5.915 2.292-.98 4.515-2.01 6.67-3.07l-.115 8.99zm-26.82 95.444c-.085.005-.168.016-.252.02.078-.02.155-.044.233-.065l.01.045z"/><circle fill="#E797BD" cx="124.398" cy="146.42" r="57.631"/><path fill="#E797BD" d="M214.053 135.38l-.464-1.423-1.27-.792c-1.95-1.215-4.68-1.78-8.58-1.78-.51 0-1.02.01-1.53.026.4-1.29.57-2.46.6-3.36.18-2.65-.82-4.33-1.7-5.28-.91-.98-2.59-2.16-5.41-2.16-1.21 0-2.16.22-2.43.29l-3.88.98.86 3.9c.62 2.82-3.62 6.81-6.25 8.69l-16.66 1.86-.99-4.07-.11.06c-.92-3.28-1.92-6.61-2.88-9.7 4.33-5.8 2.54-11.42-.03-14.02l-.2-.2-.22-.17c-1.75-1.34-3.89-2.02-6.36-2.02-.81 0-1.65.07-2.51.22-5.92-5.44-14.11-8.96-22.86-9.76-1.29-.12-2.59-.18-3.88-.18-8.73 0-17.04 2.76-23.21 7.65-.93-.26-1.81-.39-2.64-.39-2.2 0-4.06.91-5.24 2.56-1.84 2.57-1.38 6.04-.58 8.86-.85 2.09-1.4 4.26-1.64 6.47l-2.68-.85c-.32-.1-1.49-.44-2.93-.44-2.55 0-4.13 1.07-5.01 1.96-.86.88-1.87 2.45-1.85 4.97-.03.84.06 1.92.34 3.13-1.09-.1-2.19-.16-3.25-.16-2.76 0-4.88.42-6.48 1.29l-1.31.72-.55 1.39c-.25.64-1.41 3.96.51 6.8.69 1.02 2.33 2.71 5.63 2.81l.03 1.56c.07 3.11 1.87 5.49 4.44 6.06-4.51 10.98-4.75 20.7-.69 28.89 5.54 11.19 17.48 16.37 25.09 18.62-.86 1.36-1.21 2.93-.99 4.52l.2 1.51 1.13 1.01c.5.45 2.32 1.92 4.65 1.92.2 0 .4-.01.59-.03.57.23 1.18.35 1.81.35.68 0 1.29-.13 1.85-.34.54.19 1.12.29 1.75.29 1.1 0 2.58-.33 4-1.7l4.44-1c-1.88.78-3.43 1.75-4.5 2.97-1.43 1.63-2.06 3.68-1.77 5.76l.2 1.51 1.13 1.01c.53.48 2.47 2.04 4.93 2.04.24 0 .48-.02.72-.05.6.26 1.28.41 2.03.41.78 0 1.48-.17 2.11-.43.61.24 1.28.38 2.01.38 1.17 0 2.76-.36 4.29-1.9l20.33-4.58.76-.64c1.23-1.03 1.82-2.67 1.54-4.28-.46-2.66-2.87-4.05-5.11-4.94-1.19-.94-4.94-4.58-3.22-11.98 3.35-3.06 5.42-6.11 6.56-8.13 1.87-1.35 3.67-2.92 5.35-4.66 6.91-7.17 9.31-15.82 7.79-28.03l-.05-.39 15.26-1.86c1.19.52 2.5.79 3.88.79 1.36 0 2.62-.26 3.66-.57l2.38 1.83c1.41 1.49 3.5 3.29 6.12 3.29 3.04 0 5.44-2.49 5.72-5.92l.15-1.73c.16.01.31.01.47.01 3.26 0 4.95-1.65 5.66-2.64 1.97-2.74 1.03-6.07.82-6.71zM92.337 150.1c-1.38-1.076-2.787-1.787-4.203-2.122l2.2-1.49c1.137.42 2.557.772 4.104.772 1.123 0 2.188-.184 3.183-.55l12.72 2.348c4.72 2.545 10.12 4.154 15.67 4.662.16.015.33.028.49.04l.04.184c-3.07 3.9-6.13 11.13-3 19.873-1.46 3.23-3.2 8.528-2.36 14.327h-.15c-4.03 0-6.9-.47-6.91-.47v.002c-11.46-2.25-18.81-6.612-21.85-12.966-4.25-8.884 1.14-19.337 1.19-19.43l1.63-3.05-2.72-2.13zm41.954 36.036c-.5.176-1.02.34-1.54.492-.04-.416-.06-.843-.05-1.28.52.29 1.06.553 1.61.788zm3.74 15.71l.89-.74c.13.35.26.695.4 1.038-1.36.077-2.73.187-4.08.333l2.8-.63zm-43.91-74.454c-.1-.386-.14-.757-.12-1.105.04.368.08.737.13 1.105z"/><ellipse transform="rotate(-12.7 119.4 72.7)" fill="#F2D063" cx="119.461" cy="72.764" rx="86.337" ry="39.115"/><path fill="#F2D063" d="M191.88 60.338c.7-.366 1.374-.78 1.997-1.225.542-.39 1.063-.792 1.57-1.22 1.108-.946 2.147-2.02 3.09-3.196l3.094-3.856-6.65-5.78c-.15-.98-.45-1.91-.9-2.75-.56-1.05-1.31-1.95-2.23-2.66-.87-.68-1.86-1.18-2.95-1.5-.27-.07-.54-.14-.81-.19-.8-.15-1.63-.19-2.47-.12l-.03.01-.07-.48-.38.55c-1.15.15-2.23.47-3.21.99-.48.26-.94.55-1.38.88-.06-.04-.11-.09-.17-.12-.74-.48-1.55-.8-2.42-.96-.61-.11-1.25-.15-1.89-.1-.94.08-1.84.34-2.65.78-.32-.11-.64-.2-.98-.26-.59-.11-1.2-.14-1.79-.09-.91.07-1.78.31-2.57.71-.25-.08-.51-.15-.78-.2-.28-.05-.59-.09-.92-.1-.41-.01-.87 0-1.42.04-.6.05-1.13.14-1.68.31-.78.24-1.49.63-2.09 1.13-.28-.09-.56-.18-.84-.25-.3-.08-.6-.15-.91-.21-1.07-.2-2.19-.26-3.33-.17-1.76.14-3.38.61-4.82 1.4-.15.09-.28.18-.43.27-.47-.31-1-.56-1.58-.74-.24-.07-.51-.14-.79-.2-.68-.12-1.41-.16-2.2-.09-.87.07-1.7.28-2.46.62-.6.28-1.17.63-1.73 1.08-.45.38-.87.81-1.19 1.22-.25.31-.47.63-.68.95-.54.81-.99 1.5-1.33 2.05l-1.42 2.25c-.14.22-.34.52-.58.87-.16.22-.3.41-.44.56l-.24.25-1.1-.96c-.15-.98-.45-1.9-.9-2.74-.56-1.06-1.32-1.96-2.23-2.67-.87-.68-1.87-1.19-2.97-1.5-.27-.07-.54-.14-.82-.19-.8-.15-1.63-.19-2.46-.12h-.01l-.07-.47-.36.52c-1.17.14-2.27.47-3.25.99-.49.25-.95.55-1.38.88-.06-.04-.11-.08-.17-.12-.74-.48-1.56-.81-2.43-.97-.62-.12-1.26-.15-1.89-.1-.95.07-1.85.34-2.65.78-.32-.11-.65-.2-.99-.26-.59-.11-1.19-.14-1.8-.09-.92.07-1.78.32-2.57.71-.26-.08-.52-.15-.78-.2-.29-.05-.59-.09-.94-.1-.41-.01-.86 0-1.42.04-.6.05-1.14.15-1.67.31-1.01.31-1.92.88-2.63 1.64-.55.6-.99 1.31-1.29 2.1-.15.41-.29.87-.41 1.41-.09.39-.18.88-.28 1.49-.14-.43-.31-.84-.52-1.23-.56-1.06-1.31-1.96-2.24-2.68-.87-.68-1.86-1.18-2.95-1.5-.27-.08-.54-.14-.82-.19-.8-.15-1.63-.2-2.46-.13-1.33.1-2.58.46-3.7 1.05-.25.13-.48.31-.72.46-.05-.03-.08-.07-.13-.1-.65-.37-1.37-.63-2.13-.77-.67-.12-1.38-.16-2.12-.1-.71.06-1.4.22-2.05.47-.41.17-.8.36-1.17.59-.11-.05-.22-.08-.34-.12-.13-.97-.43-1.86-.9-2.65-.57-.97-1.34-1.76-2.3-2.34-.75-.46-1.58-.77-2.54-.96-.72-.13-1.47-.17-2.22-.11-1.28.1-2.43.44-3.43 1.01-.18.11-.35.22-.53.34-.52-.82-1.13-1.55-1.84-2.17-1.1-.95-2.37-1.61-3.78-1.99-.25-.07-.51-.12-.77-.17-.98-.18-2-.24-3.04-.16-1.76.14-3.49.57-5.17 1.28-1.59.68-3.1 1.58-4.49 2.68-1.35 1.08-2.61 2.35-3.72 3.79-1.11 1.44-2.06 3.03-2.82 4.73-.76 1.71-1.32 3.55-1.67 5.47-.35 1.96-.45 4-.29 6.06.14 1.8.56 3.54 1.26 5.15.72 1.68 1.7 3.17 2.92 4.42 1.18 1.21 2.61 2.15 4.27 2.82-.12.67-.15 1.28-.11 1.86.08 1.03.41 2.01.94 2.87-.38.66-.73 1.35-1.05 2.05-3.67 7.92-1.59 13.6.79 16.96 1.29 1.83 2.97 3.5 4.98 4.98-2.15 1.81-3.76 3.22-4.73 4.33-3.72 4.27-6.06 8.66-6.95 13.05-1.23 6.11.39 11.48 4.56 15.11 1.88 1.65 4.06 2.71 6.46 3.16 2.04.39 4.24.32 6.55-.19 3.67-.81 7.07-2.5 10.4-5.17 4.68-3.75 7.91-8.39 9.86-14.19 1.51-4.47 1.75-8.61.8-12.38.8.74 1.69 1.37 2.67 1.87.88.45 1.8.76 2.72.93 2 .38 4.08.08 6-.85 2.37-1.14 4.26-3.05 5.66-5.69l.26.11c.56.23 1.14.4 1.73.51.75.14 1.52.17 2.31.13 1.29 2.54 3.68 4.25 6.85 4.84l.25.04c2.3.39 4.77.2 7.33-.56 5.04-1.5 9.07-4.38 12.01-8.55 1.6-2.29 2.84-4.91 3.69-7.82l.09.09c1.55 1.36 3.39 2.25 5.47 2.64 1.25.24 2.59.29 3.99.15 2.2-.21 4.31-1.17 6.29-2.85.13.08.27.16.4.24 1.05.6 2.22 1.02 3.49 1.26.86.16 1.77.24 2.7.23.45-.01.9-.05 1.33-.11.74.58 1.61.98 2.56 1.16.32.06.65.09.97.1 1.31.03 2.65-.29 3.98-.97.95.01 1.45.01 2.43.04h.13c2.13 0 4.14-1.02 5.47-2.76.49-.62.83-1.26 1.07-1.73 2.65-5.33 5.71-9.39 7.82-11.85.45-.53.86-.98 1.24-1.39.12.11.25.23.39.33 1.14.95 2.46 1.56 3.9 1.83.41.08.83.13 1.26.15 4.29.19 7.63-2.48 8.51-6.81.65-3.2-.4-6.28-2.88-8.43-.55-.48-1.15-.87-1.79-1.23.19-.05.38-.09.57-.15.79-.26 1.57-.58 2.32-.97zM78.36 72.376c-.305-.67-.665-1.29-1.067-1.87 1-.187 2.274-.678 3.515-1.896.26-.255.516-.534.765-.833.704.114 1.438.143 2.186.084.23-.01.46-.05.69-.08.54.35 1.11.66 1.73.91.57.23 1.17.41 1.78.52.53.1 1.08.15 1.64.16-1.65.77-3.29 1.85-4.31 3.49-.81-.38-1.58-.61-2.28-.74-1.52-.28-3.08-.18-4.66.28zm28.417-4.316c-.013-.028-.02-.058-.033-.085.046-.013.093-.022.14-.035l-.108.12z"/><g fill="#DB5F8F"><path d="M73.743 74.617c.987 2.27.732 4.8-.646 7.602-1.377 2.8-3.295 4.73-5.853 5.84-1.476.63-2.882.81-4.216.53-1.333-.28-2.343-.96-3.02-2.07-.77-1.26-1.018-2.62-.708-4.08.31-1.46 1.21-2.78 2.69-3.92.84-.65 1.718-1.01 2.618-1.09.9-.08 1.507.19 1.823.77.71 1.3.5 2.25-.61 2.87-.21.12-.51.13-.89.05s-.68-.06-.89.06c-1.28.72-1.53 1.77-.75 3.11.27.45.69.71 1.27.8.59.09 1.15-.02 1.69-.32 1.64-.92 2.79-2.19 3.48-3.83.69-1.64.65-3.27-.18-4.88-.47-.92-1.37-1.44-2.7-1.54-1.32-.1-2.6.19-3.8.85-3.19 1.76-5.39 4.21-6.52 7.22s-.89 5.66.6 7.96c.99 1.52 2.35 2.98 4.02 4.14.46.32 3.52 3.13 4.7 3.08 1.1-.05 2.92-3.05 2.36-4.01-.15-.25-.53-.45-1.14-.58-.61-.13-1.01-.34-1.18-.63-.56-.96-.13-1.87 1.33-2.71.81-.47 1.69-.45 2.6.05.77.41 1.36 1 1.77 1.74 1.15 2.07.55 4.34-1.65 6.89-.15.18-1.23 1.11-1.22 1.32.03.56 2.73 2.74 3.63 4.23 2.29 3.8 2.38 8.13.75 12.99-1.63 4.86-4.29 8.69-8.2 11.82-2.66 2.14-5.39 3.52-8.29 4.17-3.34.74-6.19.21-8.51-1.82-2.71-2.36-3.8-5.76-2.9-10.23.68-3.38 2.59-7.02 5.79-10.68 1.9-2.18 9.19-7.7 9.18-8.2 0-.37-3.21-2.21-4.78-3.3-1.81-1.26-3.27-2.68-4.31-4.16-2.27-3.2-2.49-7.16-.33-11.83 2.17-4.67 5.8-8.29 10.65-10.6 2.8-1.33 5.35-1.77 7.5-1.44 2.36.36 4.03 1.61 4.95 3.74zm-8.675 32.38c-.574-.86-1.49-2.067-1.697-2.068-2.58-.01-9.33 9.63-10.82 12.05-2.94 4.77-3.11 8.44-.92 10.85 1.2 1.31 2.77 1.87 4.68 1.76s3.61-.78 5.11-2.02c3.07-2.53 4.88-5.74 5.6-9.87.7-3.99.15-7.58-1.94-10.72zM102.11 70.22c.355 1.168-.356 4.968-1.622 11.383-1.264 6.417-1.396 10.268-.91 11.586.487 1.31 1.097 1.84 1.837 1.57.778-.28 1.392-1.12 1.866-2.51.48-1.4.87-2.14 1.15-2.23.69-.23 1.15.03 1.39.77.26.81-.07 2.04-.95 3.7-.98 1.85-2.09 2.99-3.4 3.43-1.34.45-2.51.48-3.54.07-1.02-.41-1.75-1.14-2.18-2.21-.66-1.65-.88-4.54-.43-8.65.58-5.28 1.02-8.57 1.05-9.67.01-.24-.12-.36-.32-.3-.16.04-.27.2-.3.4-1.22 9.59-2.25 16.48-3.62 20.51-.96 2.84-2.36 4.7-4.27 5.62-1.39.67-2.76.66-4.14-.04-1.26-.64-2.26-1.64-2.98-3.02-1.08-2.06-1.34-5.33-.49-9.83.85-4.5.99-7.69.13-9.53-.25-.54-.65-.68-1.21-.41-1.02.48-1.76 1.48-2.19 2.99-.43 1.51-.79 2.35-1.12 2.52-.66.33-1.18.14-1.55-.58-.48-.92-.35-2.25.44-3.96.89-1.94 2.26-3.34 4.05-4.16 3.31-1.53 5.85-.23 7.54 3.75.7 1.63.75 3.93.42 6.77-.09.79-.56 3.18-1.23 7.09-.43 2.49-.43 4.1-.07 4.83.52 1.06 1.19 1.39 2.01 1 1.46-.7 2.48-4.63 3.78-11.89 1.24-6.92 1.97-11.01 1.51-12.23-.1-.28-.62-.32-1.54-.1-.92.21-1.47.1-1.64-.34-.4-1.03.83-2.13 3.73-3.19 2.59-.94 4.5-1.76 5.73-2.53 1.23-.77 1.88-1.15 1.92-1.17.64-.2 1.04-.03 1.21.5z"/><path d="M132.206 63.557c.02.185-.25.372-.8.547-.82.26-1.95.99-1.95.99.036.17 2.274 1 2.378 1.81.09.696-.308 1.1-1.184 1.217-.323.05-.714-.06-1.168-.28-.592-.29-1.477-.63-1.64-.54-.237.13-.522 1.24-.698 1.9-.208.79-.412 3.14-.522 7.06-.118 4.21-.214 7.07-.378 8.57-.508 4.64-1.873 8.42-3.98 11.43-2.278 3.24-5.298 5.39-9.268 6.57-1.8.54-3.46.69-5.013.42-1.855-.31-3.064-1.17-3.582-2.64-.25-.73-.21-1.46.15-2.19s.95-1.24 1.76-1.5c.65-.22 1.29-.2 1.89.06.61.25 1.01.68 1.2 1.29.38 1.2-.84 2.83-.84 2.83.03.11 2.39.17 3.74-.23 4.48-1.33 7.16-6.62 8.93-16.21.94-5.11 1.48-7.67 2.72-12.77.28-1.07 1.91-4.69 1.88-4.72-.02-.03-.68-.01-.84.08-.42.23-1.15 2.1-1.93 4.7-1.26 4.99-1.82 7.49-2.79 12.49-.9 4.72-2.51 7.36-5.04 8.02-1.46.38-3.06.17-4.78-.63-1.99-.94-3.35-2.43-3.98-4.48-1.24-3.99-.71-8.31 2.01-12.83 3.03-5.05 7.85-8.32 13.99-9.42.52-.09 1.6-.08 2.19-.38 1.09-.56 2.64-2 4.17-2.21 2.15-.3 3.29.09 3.42 1.11zm-9.73 4.062c-.31-.39-8.113 4.09-9.523 8.65-1.137 3.67-1.01 7.75.183 12.19.278 1.04.78 1.46 1.504 1.27 1.45-.38 2.42-2.03 3.004-4.98 1.026-5.09 1.622-7.63 2.975-12.71.18-.72 1.85-4.43 1.85-4.43zm38.76-.7c.108 1.4-.638 2.29-2.265 2.65-2.58 4.77-3.79 7.19-6.02 12.05-.42.93-.63 1.74-.62 2.41.01.82.41 1.22 1.2 1.22.8 0 1.46-.59 2-1.77.54-1.18.95-1.77 1.21-1.76.78.01 1.15.58 1.12 1.69-.02.99-.6 1.99-1.67 3.01-1.07 1.02-2.27 1.53-3.63 1.54-1.4.01-2.61-.25-3.6-.82-1.13-.65-1.73-1.58-1.79-2.77-.02-.63.26-1.75.89-3.37 1.51-3.92 2.32-5.87 4.03-9.75.18-.45.06-.67-.35-.66-.32 0-.57.21-.74.62-1.66 3.86-2.44 5.81-3.89 9.71-.77 2.07-1.88 3.9-3.32 5.45-1.52 1.66-3.04 2.56-4.54 2.71-2.31.22-4.15-.3-5.56-1.54-1.25-1.1-2.07-2.65-2.35-4.66-.7-4.91.74-9.59 4.8-13.84 4.23-4.42 9.88-6.81 16.46-6.86 2.21-.02 4.21.44 5.96 1.34 1.75.9 2.64 2.04 2.74 3.33zm-4.137-1c.03-.15-2.17-1.15-4.11-1.14-5.35.02-9.62 2.36-12.47 6.75-2.44 3.76-3.3 7.91-2.84 12.38.05.48.27.94.68 1.38.4.44.79.65 1.16.61.79-.07 1.66-.63 2.66-1.68 1-1.04 1.74-2.17 2.23-3.39 1.88-4.84 2.91-7.25 5.12-12.03 2.46-.07 3.7-.07 6.17-.05-.32-.34-.48-.69-.48-1.06.01-.82 1.85-1.8 1.85-1.81zm31.5 4.15c-.39 1.88-1.48 2.78-3.25 2.7-.81-.04-1.52-.31-2.13-.81-.61-.5-.87-1.04-.77-1.63.12-.73 1.28-1.19 1.47-1.44.12-.16-.41-.86-1.21-1-1.9-.32-4.77 1.61-8.3 5.74-2.81 3.29-5.9 7.64-8.51 12.9-.16.31-.32.61-.51.85-.4.52-.89.78-1.43.78-1.04-.03-1.56-.03-2.61-.04-.83-.01-1.55.16-2.15.49-.61.33-1.16.49-1.65.48-.33-.01-.6-.17-.73-.46-.13-.28-.1-.61.08-.89 2.05-3.33 4.23-6.82 6.11-10.42 2.39-4.56 3.82-8.18 4.03-10.91.02-.3-.44-.55-1.38-.74-.94-.2-1.4-.53-1.37-1.01.06-1.11 1.66-1.59 4.79-1.32 2.78.24 4.64.28 5.58.04.93-.25 1.42-.36 1.47-.35.67.08.98.4.9.95-.05.37-2.05 2.97-5.59 7.88-4.03 5.59-6.46 9.78-7.64 12.38-.1.22-.05.37.1.4.19.03.36-.07.46-.25 4.8-8.69 9.31-14.22 12.32-16.76 2.43-2.06 5.06-2.86 7.69-2.47 1.1.17 2.11.6 2.95 1.33 1.1.95 1.5 2.15 1.22 3.52zM63.56 61.61c.082 1.07.11 2.186.072 3.347-.035 1.16-.147 2.3-.34 3.43-.19 1.12-.476 2.2-.857 3.22s-.875 1.93-1.484 2.73c-.6.792-1.34 1.45-2.19 1.952-.85.5-1.86.8-3 .89-.21.01-.46.02-.76.02s-.61-.04-.93-.1l-.98-.18c-.33-.07-.63-.16-.89-.3-.26-.14-.48-.31-.65-.5-.17-.2-.27-.43-.29-.7-.01-.14.01-.33.05-.56.04-.23.12-.46.23-.68.11-.23.25-.42.43-.59s.41-.27.68-.29c.31-.08.62-.08.94.01l1 .26 1.08.29c.37.1.74.13 1.11.1.41-.04.8-.28 1.16-.74.36-.46.7-1.05 1-1.76s.57-1.51.79-2.38c.23-.88.41-1.75.54-2.62-.41.4-.86.79-1.33 1.16-.47.37-1.01.7-1.63 1-.61.29-1.32.55-2.13.76-.8.21-1.74.36-2.81.44-1.25.09-2.49-.06-3.71-.48-1.22-.42-2.22-1.02-3-1.82-.77-.8-1.4-1.76-1.87-2.86-.47-1.1-.76-2.28-.85-3.53-.13-1.64-.05-3.22.23-4.75.28-1.53.71-2.96 1.31-4.3s1.32-2.56 2.19-3.68c.87-1.11 1.82-2.08 2.85-2.9 1.04-.82 2.14-1.48 3.3-1.98 1.17-.5 2.36-.79 3.56-.89.74-.06 1.44 0 2.1.17.65.17 1.23.48 1.74.91.5.43.92 1 1.24 1.7.32.7.52 1.55.6 2.55.03.38.01.77-.05 1.17-.06.39-.19.79-.37 1.19-.26.46-.52.79-.79.99-.26.2-.52.31-.77.33-.19.01-.38-.02-.55-.11-.17-.09-.33-.21-.46-.37s-.24-.33-.33-.54c-.08-.2-.14-.41-.15-.63-.02-.18 0-.35.04-.52l.13-.51c.04-.17.09-.35.13-.53.04-.19.05-.37.04-.57-.08-.92-.33-1.59-.78-2.02-.44-.43-.97-.62-1.58-.57-.75.05-1.53.27-2.33.65-.81.38-1.58.89-2.33 1.53-.75.65-1.45 1.42-2.11 2.33-.65.91-1.2 1.93-1.66 3.07-.46 1.14-.8 2.39-1.01 3.74-.22 1.35-.26 2.78-.15 4.31.08 1.01.27 1.88.56 2.61.3.73.77 1.32 1.42 1.77.65.46 1.3.78 1.95.98.65.2 1.37.26 2.15.2 1.47-.12 2.8-.43 4-.95 1.2-.52 2.31-1.2 3.34-2.04.05-.3.09-.59.12-.87s.04-.53.02-.76c-.02-.3-.08-.53-.17-.7-.09-.17-.2-.29-.33-.36s-.28-.11-.46-.12c-.17-.01-.35 0-.55.01-.35.03-.67.01-.94-.06-.27-.07-.51-.18-.7-.31-.2-.13-.35-.29-.46-.48-.11-.19-.17-.38-.19-.57-.01-.2.02-.39.09-.58.07-.19.2-.36.37-.51s.4-.29.67-.4c.28-.11.61-.18.99-.21.9-.07 1.64-.04 2.24.11.6.14 1.07.38 1.43.72.35.34.62.77.78 1.3.17.52.28 1.12.33 1.8zm10.95.86c-.31.334-.698.69-1.167 1.078-.468.39-.978.75-1.53 1.086-.55.336-1.118.625-1.7.866-.582.24-1.14.388-1.68.43-.48.038-.89 0-1.23-.107-.34-.11-.62-.275-.842-.5-.22-.225-.39-.507-.5-.85s-.19-.72-.22-1.133c-.04-.584-.03-1.27.04-2.058.15-1.63.25-2.55.31-2.75.1-.41.28-1.305.56-2.69.26-1.134.42-1.87.48-2.21.02-.24.14-.46.33-.66.18-.187.38-.34.61-.468.23-.126.48-.225.73-.297.26-.07.49-.118.7-.134.38-.03.65.02.8.154.15.13.23.32.25.56.02.21-.01.5-.08.88l-.22 1.3c-.08.486-.22 1.11-.4 1.88-.18.766-.29 1.415-.34 1.95-.04.535-.11 1.067-.2 1.6-.09.53-.12 1.007-.09 1.433.04.417.11.744.22.98.12.24.32.346.6.324.34-.026.7-.17 1.09-.434.39-.265.78-.578 1.17-.94.4-.36.77-.733 1.15-1.115.37-.38.7-.71.98-.982l.22 2.82zm-7.34-14.09c-.02-.213.01-.46.08-.74.07-.276.202-.543.392-.8.19-.252.452-.474.785-.665.33-.19.76-.306 1.28-.347.32-.02.63-.01.92.044.29.053.55.148.77.285.226.136.41.326.555.57.145.242.23.536.257.88.02.32 0 .63-.08.94-.08.31-.22.59-.43.84s-.47.463-.8.634c-.33.17-.73.28-1.2.31-.82.07-1.43-.08-1.85-.44-.42-.35-.66-.86-.71-1.5zm6.25 12.63c-.085-.69-.16-1.293-.228-1.806l-.185-1.39c-.05-.415-.1-.797-.13-1.15-.033-.35-.07-.71-.1-1.08-.09-1.232-.11-2.118-.06-2.658s.23-.845.544-.915l1.75-.4.13-.04.15-.01c.24-.02.43.06.57.24s.23.39.26.63l.46 9.23.1-.03 3.07-9.56c.02-.13.07-.26.15-.38.08-.12.2-.24.34-.34.14-.1.3-.18.48-.25s.37-.11.57-.13c.54-.04.98.04 1.32.23.34.2.53.46.55.81.02.26 0 .51-.05.75-.05.29-.12.55-.22.79-.2.49-.32.8-.37.94-.33 1.03-.53 1.63-.57 1.79l-.12.53c-.04.16-.06.34-.08.55-.02.2-.02.41 0 .62.01.22.06.44.13.65.07.21.18.39.33.56.15.16.36.29.6.37.25.08.56.11.94.08.28-.03.6-.12.95-.29.36-.18.69-.37 1-.58.36-.24.73-.51 1.11-.81l.25 3.26c-.58.44-1.19.8-1.82 1.08-.63.28-1.25.45-1.84.49-.5.04-.95 0-1.36-.12-.4-.12-.75-.3-1.05-.54s-.53-.51-.71-.82c-.18-.31-.28-.64-.32-.99-.22.58-.48 1.17-.78 1.78-.29.61-.61 1.17-.94 1.67-.33.5-.66.92-1 1.24-.33.33-.65.51-.94.53-.57.05-1.03-.06-1.37-.3-.33-.25-.6-.57-.78-.98-.19-.4-.32-.85-.4-1.33-.08-.49-.16-.96-.22-1.4l-.06-.44z"/><path d="M90.403 64.213c-.865.067-1.633-.034-2.307-.304-.674-.27-1.248-.66-1.722-1.17-.475-.51-.848-1.11-1.12-1.81-.27-.7-.437-1.44-.498-2.22-.04-.51.01-1.13.148-1.86.138-.73.29-1.37.454-1.94.164-.57.383-1.11.658-1.63.275-.53.606-.99.996-1.4.39-.42.836-.75 1.338-1.02s1.07-.42 1.707-.47c.52-.04 1.008 0 1.466.13.457.13.862.33 1.215.61.353.27.638.62.855 1.03.22.41.35.88.39 1.4.045.56-.094 1.21-.416 1.93-.32.72-.713 1.36-1.175 1.89-.462.53-1.023 1.02-1.684 1.47-.66.44-1.387.8-2.177 1.08.16.23.32.43.46.58.15.15.3.27.44.35.15.08.3.13.46.15.16.02.32.03.5.01.56-.04 1.13-.2 1.73-.46.6-.26 1.18-.58 1.74-.95s1.08-.77 1.57-1.2c.49-.43.9-.83 1.24-1.2l1.94 1.68c-.75.93-1.55 1.76-2.41 2.5-.37.32-.78.63-1.22.94-.43.31-.9.59-1.38.85s-1 .46-1.53.63c-.53.17-1.07.28-1.63.32zm-2.37-6.47c.335-.025.692-.137 1.075-.335.38-.198.73-.442 1.05-.73.32-.29.624-.668.914-1.138.292-.468.425-.848.403-1.138-.032-.407-.135-.736-.307-.986-.175-.25-.373-.368-.597-.35-.39.03-.73.13-1 .296-.27.167-.49.374-.66.62-.17.244-.3.52-.4.823-.09.303-.2.678-.32 1.125-.12.446-.18.81-.17 1.093.01.28.02.52.03.72zm21.332 2.457c-.01-.122-.013-.295-.012-.52 0-.224.008-.482.023-.773.015-.292.033-.6.054-.924l.064-.965c.044-.753.107-1.56.188-2.43l-.208.018c-.1.148-.21.368-.332.658-.122.29-.292.716-.508 1.277-.217.57-.494 1.29-.83 2.19-.336.9-.775 1.99-1.316 3.29-.156.39-.353.65-.587.8-.23.15-.5.24-.79.26-.38.03-.69-.02-.93-.16-.24-.14-.44-.33-.58-.59-.14-.25-.25-.55-.32-.88-.07-.33-.11-.68-.14-1.04-.02-.38-.04-.83-.03-1.36.01-.52.03-1.08.05-1.66.03-.58.09-1.25.18-2l.23-1.96c.07-.56.14-1.07.21-1.54.08-.46.15-.85.22-1.14.07-.3.14-.55.21-.73.07-.18.16-.33.25-.43.1-.11.22-.18.37-.23.15-.04.33-.08.56-.09.35-.03.63-.04.83-.03.2.01.35.05.46.13.1.08.17.21.2.37.04.17.06.4.08.68.02.16.02.34.03.55 0 .21 0 .43-.01.67 0 .24-.01.48-.03.72-.03.48-.04.72-.05.74-.08.65-.16 1.37-.23 2.16l.17.16c.02-.03.12-.28.31-.77.19-.48.4-.97.63-1.44.23-.47.48-.98.75-1.5s.52-.98.77-1.39c.24-.4.5-.74.78-1.02.28-.27.63-.43 1.05-.46.39-.03.73.06 1.03.27.3.21.46.52.5.94.03.36.03.71.01 1.04-.02.42-.05.74-.09.96-.05.25-.1.55-.15.91-.04.31-.12.77-.24 1.36-.02.09-.04.23-.05.41 0 .06-.01.1 0 .11l.16.16c.02-.03.13-.28.33-.76.21-.48.43-.96.68-1.44.25-.48.51-.98.79-1.51s.55-.99.79-1.4c.24-.39.48-.73.73-1.01s.57-.43.95-.46c.43-.03.81.05 1.13.26.32.21.49.52.53.94.05.64.07 1.26.05 1.84-.02.59-.07 1.23-.15 1.95-.08.71-.12 1.36-.14 1.94-.02.58-.01 1.19.04 1.84.04.5.14.91.29 1.22.15.31.32.45.51.44.2-.02.4-.08.6-.18.21-.1.42-.22.63-.37s.42-.32.62-.51.39-.39.57-.59c.42-.47.83-.99 1.24-1.56l.49 3.27c-.38.35-.76.71-1.14 1.07-.38.37-.78.71-1.21 1.02-.42.31-.9.57-1.42.79-.52.22-1.12.35-1.8.41-.33.03-.62-.06-.86-.25-.24-.2-.45-.48-.62-.85s-.3-.81-.4-1.32c-.1-.51-.17-1.07-.22-1.68-.05-.59-.07-1.21-.08-1.87-.01-.66 0-1.33.02-2.01l-.21.02-2.26 7.35c-.21.4-.46.68-.75.84-.28.15-.62.25-1.01.28-.3.02-.54-.04-.73-.18-.19-.15-.34-.34-.46-.58-.11-.24-.2-.5-.25-.8-.06-.29-.1-.57-.12-.85zm17.035 1.208c-.865.068-1.633-.034-2.307-.304-.673-.27-1.247-.658-1.72-1.167-.477-.508-.85-1.11-1.12-1.804-.272-.695-.44-1.433-.5-2.215-.04-.512.01-1.13.147-1.853.138-.723.29-1.368.454-1.932.165-.564.383-1.108.658-1.63.274-.523.607-.99.997-1.402.38-.41.83-.75 1.33-1.01.5-.26 1.07-.42 1.71-.47.52-.04 1 .01 1.46.14s.86.34 1.21.61c.35.28.64.62.85 1.03.22.41.35.88.39 1.41.04.56-.1 1.21-.42 1.93-.32.73-.72 1.36-1.18 1.9-.46.54-1.03 1.03-1.69 1.47-.66.45-1.39.81-2.18 1.09.16.24.31.43.46.58.14.15.29.27.44.35.14.08.29.13.45.16.15.03.32.03.5.02.55-.04 1.13-.2 1.73-.46.6-.26 1.18-.58 1.73-.95.56-.37 1.08-.77 1.57-1.19.49-.42.9-.82 1.23-1.19l1.93 1.68c-.75.93-1.55 1.77-2.42 2.51-.38.32-.78.63-1.22.95-.44.31-.9.59-1.39.85s-1 .47-1.53.64c-.53.17-1.07.28-1.63.32zm-2.37-6.47c.336-.026.694-.138 1.075-.336.383-.198.734-.44 1.053-.73.317-.29.62-.668.913-1.138.29-.47.43-.848.41-1.138-.03-.408-.13-.736-.31-.986s-.37-.368-.59-.35c-.4.03-.73.13-1.01.297-.27.167-.49.374-.66.62-.17.245-.3.52-.4.822-.09.3-.2.67-.32 1.12-.12.44-.17.81-.17 1.09.01.28.02.52.03.72zm14.944.217c.483-.49.876-.897 1.176-1.222.3-.325.598-.698.892-1.122.293-.42.523-.76.694-1.03.168-.26.372-.58.604-.95.23-.36.516-.81.846-1.34.33-.52.763-1.19 1.296-1.98.107-.18.23-.35.366-.52.135-.17.29-.33.458-.47.174-.14.363-.25.575-.35.22-.09.45-.15.72-.17.45-.03.8-.01 1.04.07.25.08.44.19.56.32.12.13.2.28.23.43.03.16.05.29.06.4.02.23-.05.48-.2.77-.15.29-.33.56-.52.83-.19.27-.38.52-.55.74-.17.23-.27.39-.29.5.02.29.06.55.13.79.06.24.14.47.23.69.09.23.18.46.27.72s.19.54.29.88c.1.33.14.8.14 1.39-.01.6.01 1.19.06 1.79.32-.25.66-.48 1.03-.69l1.16-.66c.4-.23.81-.48 1.24-.75.42-.27.84-.59 1.26-.96l.26 3.14c-.54.48-1.17.93-1.89 1.36-.72.44-1.49.83-2.3 1.18-.81.35-1.63.64-2.46.88-.83.23-1.63.38-2.39.44-.55.04-1.06.03-1.54-.03s-.91-.18-1.28-.36-.68-.43-.93-.75-.41-.72-.5-1.19c-.12.04-.25.07-.37.08-.12.02-.24.03-.36.04-.15.02-.28.02-.41.02-.13 0-.25-.02-.34-.08-.09-.05-.17-.14-.24-.27-.06-.13-.1-.32-.12-.58-.02-.22.02-.44.12-.64s.22-.38.35-.54c.14-.16.28-.3.42-.43.14-.13.24-.22.31-.3zm1.873 1.66c.11-.007.24.054.384.183.15.13.32.273.51.428s.4.293.65.416c.24.122.52.172.81.148.37-.028.66-.112.89-.253.23-.14.4-.315.53-.527.12-.212.2-.454.24-.725.04-.27.04-.55.02-.842-.02-.252-.05-.508-.11-.768-.05-.26-.07-.585-.06-.978.02-.392-.02-.69-.09-.896-.07-.2-.14-.38-.2-.52l-3.53 4.35z"/><path d="M159.445 48.06c.31.517.557 1.068.738 1.655.18.586.297 1.254.356 2.005.04.546.02 1.102-.06 1.667s-.21 1.116-.4 1.652c-.19.53-.43 1.04-.72 1.52s-.64.9-1.03 1.27c-.4.36-.84.66-1.32.89-.49.23-1.01.37-1.58.41-.82.06-1.53-.06-2.13-.38-.61-.31-1.12-.74-1.54-1.29-.41-.55-.74-1.18-.97-1.88-.23-.71-.37-1.44-.43-2.18-.1-1.22-.03-2.29.21-3.2.23-.91.61-1.71 1.13-2.41.51-.7 1.17-1.27 1.97-1.71.79-.44 1.7-.7 2.73-.78.88-.07 1.72 0 2.5.22.79.21 1.54.52 2.25.93.7.4 1.38.93 2.01 1.58.63.65 1.22 1.27 1.77 1.86l-.11 1.98c-.28-.32-.65-.65-1.11-1.01-.46-.36-.94-.75-1.45-1.19-.52-.44-1.02-.8-1.51-1.1-.49-.29-.91-.53-1.26-.73l-.1.16zm-3.663 8.376c.313-.024.606-.208.878-.55.27-.343.5-.766.684-1.27.185-.503.316-1.105.396-1.805.08-.7.1-1.31.06-1.85-.033-.42-.097-.82-.19-1.18-.094-.36-.216-.67-.365-.93-.15-.26-.334-.46-.55-.6-.22-.14-.47-.2-.757-.18-.377.03-.728.22-1.045.57s-.586.79-.805 1.32c-.22.53-.38 1.1-.48 1.72-.1.63-.12 1.32-.062 2.09.03.39.097.75.198 1.09.1.34.24.63.415.87.17.24.4.43.67.56.27.14.59.19.95.16z"/><path d="M169.307 55.528c-.01-.12-.017-.294-.013-.518 0-.225.01-.483.022-.774.017-.29.03-.6.055-.923.02-.324.05-.646.07-.966.05-.752.11-1.56.19-2.43l-.21.018c-.1.147-.21.367-.33.658-.12.29-.29.716-.51 1.277-.21.56-.49 1.288-.82 2.18-.33.894-.77 1.99-1.31 3.29-.15.38-.35.648-.59.797s-.5.235-.79.258c-.37.03-.69-.025-.93-.164-.24-.14-.44-.33-.58-.59-.14-.25-.25-.55-.31-.88-.07-.33-.12-.68-.15-1.04-.03-.38-.04-.83-.03-1.36 0-.52.02-1.08.05-1.66.03-.58.09-1.25.17-2 .09-.75.16-1.4.22-1.96.07-.56.14-1.07.21-1.54.08-.47.15-.85.22-1.15.07-.3.14-.55.21-.73.07-.18.16-.33.26-.43.1-.1.22-.18.37-.22.15-.04.34-.07.57-.09.35-.03.63-.04.83-.03.2.01.35.05.46.13.1.09.17.21.2.38s.06.39.08.68c.01.16.02.35.02.55s0 .43-.01.67c0 .23-.01.48-.03.72-.03.47-.04.72-.05.74-.08.65-.16 1.37-.24 2.17l.17.16c.02-.03.12-.28.32-.77.19-.48.4-.97.63-1.44.23-.48.47-.98.74-1.5s.52-.99.77-1.39c.24-.4.5-.74.78-1.02.28-.27.63-.43 1.05-.46.39-.03.73.06 1.03.27.3.21.46.52.49.94.03.37.03.71.01 1.04-.02.43-.05.75-.09.97-.05.25-.1.55-.15.92-.04.32-.12.77-.24 1.36-.02.1-.04.23-.05.41v.11l.16.16c.02-.03.13-.28.33-.76.21-.48.43-.96.68-1.44.25-.48.51-.99.79-1.52s.54-1 .79-1.4c.24-.39.48-.73.73-1.01.25-.27.57-.43.96-.46.44-.03.81.05 1.13.26.32.21.5.52.53.94.05.65.06 1.26.04 1.85-.02.59-.06 1.23-.14 1.94-.08.71-.13 1.36-.15 1.94-.02.58 0 1.2.05 1.84.04.5.14.91.29 1.22.16.31.33.45.51.44.2-.01.4-.07.6-.17.21-.1.42-.22.63-.37.21-.15.42-.32.62-.51s.39-.38.57-.59c.42-.46.83-.98 1.23-1.56l.49 3.27c-.38.35-.76.7-1.14 1.07-.37.37-.78.71-1.2 1.02-.42.31-.9.57-1.42.79-.52.22-1.12.35-1.8.41-.33.02-.62-.06-.86-.26-.24-.19-.45-.48-.62-.85-.17-.37-.3-.81-.4-1.32-.1-.51-.17-1.07-.22-1.68-.05-.59-.07-1.21-.08-1.87-.01-.66 0-1.33.02-2.01l-.21.02-2.26 7.35c-.21.4-.46.68-.74.84-.28.16-.62.25-1.01.28-.3.02-.53-.04-.72-.18-.19-.14-.34-.33-.46-.57-.12-.24-.2-.51-.26-.8-.06-.29-.09-.58-.11-.86zm17.033 1.21c-.864.066-1.633-.035-2.306-.305-.675-.27-1.245-.66-1.72-1.167-.476-.508-.85-1.11-1.12-1.805-.272-.69-.438-1.43-.5-2.21-.04-.51.008-1.13.147-1.85.14-.72.29-1.37.46-1.93.17-.56.39-1.1.66-1.63.28-.52.61-.99 1-1.4.39-.41.84-.75 1.34-1.01.51-.26 1.07-.42 1.71-.47.52-.04 1.01.01 1.47.14.46.14.86.34 1.22.61.36.28.64.62.86 1.03.22.41.35.88.39 1.41.05.57-.09 1.21-.42 1.94-.31.73-.71 1.36-1.17 1.89-.46.54-1.02 1.03-1.68 1.47-.66.45-1.39.81-2.18 1.09.16.24.31.43.46.58.15.16.3.27.44.35.15.08.3.13.45.16.16.03.33.03.5.02.56-.04 1.14-.2 1.73-.46.6-.26 1.18-.58 1.74-.95s1.08-.77 1.57-1.2c.49-.42.9-.82 1.24-1.19l1.94 1.68c-.74.93-1.55 1.77-2.41 2.5-.38.32-.78.64-1.22.95-.44.32-.9.6-1.39.85-.49.26-1 .47-1.53.64-.53.17-1.07.28-1.63.32zm-2.367-6.47c.334-.027.692-.14 1.072-.338.383-.198.733-.44 1.05-.73.32-.29.628-.668.916-1.138.29-.468.43-.848.41-1.138-.03-.407-.13-.736-.31-.987-.17-.25-.37-.367-.59-.35-.4.03-.73.13-1.01.297s-.49.374-.66.62c-.17.245-.3.52-.39.822-.09.303-.2.68-.32 1.125-.11.45-.17.82-.17 1.1.01.29.02.53.03.72z"/></g><path fill="#F2D063" d="M166.305 92.93l-.406 32.237 18.72-47.07"/><path fill="#FFF" d="M113.31 191.71c-39.82-7.814-23.505-38.368-23.505-38.368-2.17 1.13-4.13.27-4.13.27-11.435 31.795 22.083 41.104 22.364 41.18 1.91.506 3.1.703 3.1.703 15.86 2.397 26.26-1.16 32.85-5.66.19-1.722.36-3.4.73-4.966-11.65 10.26-31.42 6.84-31.42 6.84z"/><path fill="#E6E6E6" d="M85.674 153.61s1.96.862 4.13-.27c-3.135-2.448-5.01-1.107-5.01-1.107-12.522 30.255 13.904 40.09 23.244 42.56-.28-.078-33.798-9.387-22.364-41.182z"/><path fill="#E6E7E8" d="M124.092 192.174l4.764 3.485-.935-3.92s-3.64.41-3.82.42zm8.018-1.127l.312 3.887s-2.264-.927-2.496-3.434l2.183-.453zm18.858-15.207c-1.477 3.808-3.66 6.752-6.24 9.028-.362 1.565-.53 3.244-.73 4.965 7.614-5.202 10.147-11.663 10.147-11.663s4.963-23.318-3.177-2.33z"/><path fill="#FFF" d="M145.742 179.398s-9.695 14.938.887 26.7c0 0-25.05-.56-24.04 6.91 0 0 2.5 2.24 3.62 0 0 0 .75 3.174 3.55-.188 0 0 1.67 3.362 3.91 0l20.72-4.667s1.11-.934-2.9-2.428c0 0-11.7-7.47-1.88-24.832 9.82-17.366-3.89-1.495-3.89-1.495z"/><path fill="#FFF" d="M128.602 172.995s-8.448 13.018.772 23.27c0 0-21.824-.49-20.946 6.02 0 0 2.185 1.95 3.158 0 0 0 .656 2.764 3.094-.164 0 0 1.46 2.93 3.413 0l18.062-4.06s.97-.81-2.524-2.11c0 0-10.19-6.51-1.63-21.64 8.56-15.13-3.39-1.3-3.39-1.3zm2.175-29.01l-32.974-5.74s-9.59-6.923-7.68-13.59c0 0-4.52-1.438-4.437 2.61 0 0-.253 5.19 4.55 8.68 0 0-12.042-3.056-16.095-.858 0 0-2.04 5.165 4.74 3.724 0 0 7.68-.77 10.4-.03 2.72.74-5.99 3.26-8.66 5.87 0 0 .1 4.73 4.8.21l4.56-3.09s3.98 2.61 7.1.67l33.04 6.09"/><path fill="#FFF" d="M125.477 129.878l5.53 25.264s-8.696 7.79-2.436 19.97c6.26 12.178 20.21 10.19 30.66-.657 11.27-11.693 7.5-27.34-.28-52.41"/><path fill="#E6E7E8" d="M104.377 139.39l-3.407 3.757 11.763 2.168m40.037 1.51l13.13 2.96-.722-4.47-9.534-1.58"/><path fill="#D0D1D2" d="M105.7 109.174s-9.722-5.744-5.59 6.323l1.875-1.247 3.716-5.076z"/><path fill="#D1D2D2" d="M133.63 148.25v6.167s-15.672 20.34 7.484 24.68c0 0-5.803-11.88 5.487-22.14l-5.56-13.642-7.4 4.936z"/><path fill="#FFF" d="M151.09 142.258l34.417-3.842s10.34-6.543 8.794-13.55c0 0 4.76-1.197 4.42 2.98 0 0-.06 5.373-5.25 8.675 0 0 12.63-2.39 16.68.14 0 0 1.78 5.46-5.13 3.55 0 0-7.88-1.28-10.73-.69-2.85.59 5.98 3.75 8.57 6.61 0 0-.4 4.88-4.97-.08l-4.51-3.48s-4.27 2.44-7.37.24l-34.5 4.19"/><ellipse transform="rotate(5.1 128.3 125.3)" fill="#FFF" cx="128.617" cy="125.168" rx="30.648" ry="24.558"/><ellipse transform="rotate(5.1 124.2 124)" fill="#D0D1D2" cx="124.445" cy="123.944" rx="25.65" ry="21.33"/><path fill="#6D6F71" d="M119.462 131.417s.65 8.217-3.966 3.647c0 0-5.035-4.496-1.814 3.984 0 0-2.848 8.99 6.498 2.065 0 0 2.275-.954 2.16 2.62 0 0 3.233-7.71-6.843-1.735 0 0-3.838-1.77 3.966-3.983 0 0-5.907 1.51-5.213-1.68 0 0-.02-.793 1.247 0 0 0 5.018 3.968 4.684-4.92-.33-8.884-.71.002-.71.002z"/><ellipse transform="rotate(5.1 110.8 119.5)" fill="#FFF" cx="110.998" cy="119.421" rx="10.508" ry="10.358"/><circle fill="#0071BC" cx="112.733" cy="119.907" r="7.822"/><ellipse transform="rotate(5.1 135.1 122.1)" fill="#FFF" cx="135.311" cy="121.875" rx="12.971" ry="12.885"/><path fill="#919396" d="M152.77 113.86c-.004-.01 3.22 5.826 3.077 7.624l1.002-1.35s7.35-8.785-4.08-6.275z"/><path fill="#D0D1D2" d="M150.178 111.977s6.46-3.464 10.278-.534c0 0 4.84 4.902-3.064 11.463l-1.937 1.787s-1.265-1.123-.792-3.263c0 0 9.265-8.706-2.724-6.653 0 0-1.88-.306-1.77-2.8z"/><circle fill="#0071BC" cx="139.022" cy="120.603" r="8.244"/><path fill="#0F4481" d="M138.428 122.678c-1.53-1.77-1.337-4.442.43-5.972 1.768-1.53 4.44-1.338 5.973.432 1.53 1.767 1.34 4.442-.43 5.972-1.77 1.53-4.44 1.335-5.97-.432z"/><path fill="#FFF" d="M140.894 121.38c-.813-.94-.71-2.36.23-3.173.936-.813 2.358-.713 3.174.228.813.94.71 2.36-.23 3.174s-2.36.7-3.174-.23z"/><circle fill="#FFF" cx="137.469" cy="119.324" r="1.095"/><path fill="#0B8ECC" d="M120.194 128.09s1.624-2.62 2.98 2.423l-3.32 2.324-2.43-2.658s2.164-4.34 2.77-2.09z"/><path fill="#FFF" d="M122.562 130.41l-1.428.99s.456-1.605 1.428-.99zm-3.748.778l-.856-.84s.717-.27.856.84z"/><path fill="#6D6F71" d="M114.662 139.59l-.146-.77.327-.33c.004.003.39.07 1.005.07 1.583 0 4.595-.442 7-3.414l.46.32c-.09.15-2.255 3.712-8.34 4.348l-.306-.224zm7.118-5.072s4.208-2.49 1.844 2.504c0 0 3.147-5.73-1.844-2.504z"/><path fill="#E6E7E8" d="M163.612 138.21l-12.075 3.998 12.703-1.418m-74.002-4.845l2.532 1.535s-2.363 2.73.56 4.04c0 0-2.148-2.57.466-4.04l-3.558-1.535zm96.542 6.263s3.363.085 2.057-3.475l4.294-1.712-3.17 2.37s1.22 4.26-3.17 2.82zm-56.52 35.612s4.34 6.843 13.54 5.442l.656-1.54c0 .002-7.666.738-14.196-3.902z"/><path fill="#D1D2D2" d="M129.766 212.82s-.47-3.685 6.813-2.634c0 0-5.23-.892-6.82 2.634zm-3.55.19s-.49-3.76 4.34-3.01c0 0-3.85-.612-4.34 3.01zm-11.536-10.89s.262-2.787 4.604-1.735c0 0-4.306-1.78-4.604 1.735zm-3.094.163s-.985-2.8 3.355-2.35c0 0-4.54-1.142-3.35 2.35z"/><path fill="#0F4481" d="M112.17 120.595c-1.453-1.68-1.27-4.215.408-5.666 1.677-1.46 4.214-1.28 5.667.4 1.45 1.67 1.27 4.21-.41 5.66-1.676 1.45-4.213 1.27-5.665-.41z"/><path fill="#FFF" d="M114.51 119.363c-.772-.893-.675-2.24.217-3.01.89-.772 2.24-.677 3.013.215.77.893.672 2.24-.22 3.013-.893.78-2.24.68-3.01-.21z"/><circle fill="#FFF" cx="111.26" cy="117.413" r="1.04"/><path fill="#ACAFB1" d="M100.97 122.492s6.69-9.812 20.163-.07c0 0-1.914 8.16-10.32 7.7 0 0-8.06-.168-9.843-7.63z"/><path fill="#ACAFB1" d="M121.133 122.422s13.45-9.742 26.9 1.983c0 0-1.897 10.682-12.383 10.35 0 0-12.843.38-14.517-12.333z"/></svg>