<svg xmlns="http://www.w3.org/2000/svg" width="250" height="250" viewBox="0 0 250 250"><path opacity=".15" d="M236.983 173.766c-.63-1.23-1.877-2.092-3.335-2.174l-16.16-2.646c-.213-.035-.427-.053-.642-.053-.56-.36-1.216-.584-1.92-.625l-12.824-2.098c.004-.074.006-.15.006-.225v-8.277c6.217-12.234 9.367-25.41 9.367-39.18 0-47.852-38.93-86.782-86.782-86.782S37.91 70.636 37.91 118.488c0 14.872 3.84 29.428 11.008 42.27-1.34.506-2.342 1.71-2.547 3.193l-.42 3.08-2.88-3.43c-.78-.93-1.91-1.43-3.06-1.43-.65 0-1.31.16-1.92.49-1.67.92-2.46 2.89-1.89 4.71l8 25.42c.53 1.67 2.07 2.8 3.82 2.8l36.31-.14c.28.17.58.31.9.4l4.02 1.23c.42.15.87.22 1.31.22h.19l4.13-.18c1.29-.05 2.41-.72 3.1-1.7h.81v.76c0 1.76 1.15 3.32 2.83 3.83l4.02 1.23c.42.15.87.22 1.31.22h.19l4.12-.19c2.14-.09 3.82-1.85 3.82-3.99v-1.9l4.72-.02c-.03.4-.06.76-.09 1.07-.06.74-.11 1.32-.16 1.72l-.08.71c-.03.32-.04.64-.03.97.12 3.81 3.2 6.79 7.01 6.79h.22c1.87-.06 3.61-.84 4.89-2.2.28-.29.53-.6.74-.93.26.71.66 1.31 1.09 1.74.54.54 1.21.91 1.96 1.08l21.62 4.87c1.6 1.67 3.26 2.06 4.47 2.06.82 0 1.57-.17 2.24-.47.69.31 1.48.52 2.34.52.81 0 1.53-.17 2.18-.47.29.05.59.07.89.07 2.52 0 4.54-1.62 5.09-2.12.23-.2.43-.43.6-.67.31-.06.61-.15.9-.25.6.24 1.27.39 2.01.39.72 0 1.37-.14 1.95-.38.22.03.44.04.67.04 2.36 0 4.23-1.5 4.74-1.96.71-.64 1.17-1.5 1.3-2.45.27-1.99-.33-3.94-1.68-5.51-2.02-2.33-6.01-3.94-11.91-4.81l4.97-.02c.4.34.87.6 1.4.76l4.01 1.23c.42.14.87.22 1.31.22h.19l4.13-.18c1.44-.07 2.67-.89 3.32-2.07h.58v1.11c0 1.76 1.15 3.31 2.83 3.82l4.02 1.23c.42.14.87.22 1.31.22h.19l4.13-.19c2.14-.09 3.82-1.85 3.82-3.99v-1.89l8.13.16c.74 0 1.44-.2 2.05-.57l4.29-.02c1.88 0 3.5-1.32 3.9-3.16l2.25-10.49h3.92c2.2 0 3.99-1.78 4-3.98l.01-1.27.01-.11c.05-.76-.12-1.5-.45-2.14zm-103.6 24.52l-.052-1.606-.05-1.42 4.96-.02-.18.252c-1.72.62-3.48 1.477-4.67 2.793z"/><path fill="#B2D573" d="M234.483 170.766c-.63-1.23-1.877-2.092-3.335-2.174l-16.16-2.646c-.213-.035-.427-.053-.642-.053-.56-.36-1.216-.584-1.92-.625l-12.824-2.098c.004-.074.006-.15.006-.225v-8.277c6.217-12.234 9.367-25.41 9.367-39.18 0-47.852-38.93-86.782-86.782-86.782S35.41 67.636 35.41 115.488c0 14.872 3.84 29.428 11.01 42.27-1.34.506-2.343 1.71-2.55 3.193l-.427 3.08-2.878-3.43c-.782-.93-1.915-1.43-3.067-1.43-.654 0-1.314.16-1.92.49-1.673.92-2.466 2.89-1.893 4.71l8 25.42c.524 1.67 2.07 2.8 3.815 2.8l36.308-.14c.278.17.58.31.9.4l4.015 1.23c.42.15.864.22 1.313.22h.186l4.125-.18c1.288-.05 2.412-.72 3.1-1.7h.805v.76c0 1.76 1.15 3.32 2.833 3.83l4.015 1.23c.42.15.864.22 1.313.22h.186l4.12-.19c2.13-.09 3.82-1.85 3.82-3.99v-1.9l4.72-.02c-.03.4-.06.76-.09 1.07-.06.74-.12 1.32-.16 1.72l-.09.71c-.04.32-.05.64-.04.97.12 3.81 3.19 6.79 7 6.79h.22c1.87-.06 3.61-.84 4.89-2.2.27-.29.52-.6.74-.93.25.71.65 1.31 1.08 1.74.53.54 1.21.91 1.95 1.08l21.62 4.87c1.59 1.67 3.25 2.06 4.46 2.06.82 0 1.57-.17 2.24-.47.69.31 1.47.52 2.34.52.81 0 1.53-.17 2.17-.47.29.05.58.07.88.07 2.52 0 4.54-1.62 5.09-2.12.23-.2.43-.43.6-.67.31-.06.61-.15.9-.25.59.24 1.26.39 2 .39.72 0 1.37-.14 1.95-.38.22.03.44.04.67.04 2.36 0 4.23-1.5 4.74-1.96.71-.64 1.17-1.5 1.3-2.45.27-1.99-.33-3.94-1.68-5.51-2.02-2.33-6.01-3.94-11.91-4.81l4.97-.02c.4.34.87.6 1.39.76l4.02 1.23c.42.14.86.22 1.31.22h.19l4.12-.18c1.44-.07 2.67-.89 3.32-2.07h.58v1.11c0 1.76 1.15 3.31 2.83 3.82l4.01 1.23c.42.14.86.22 1.31.22h.18l4.12-.19c2.14-.09 3.82-1.85 3.82-3.99v-1.89l8.13.16c.74 0 1.44-.2 2.05-.57l4.3-.02c1.88 0 3.5-1.32 3.9-3.16l2.25-10.49h3.91c2.2 0 3.99-1.78 4-3.98v-1.27l.01-.11c.05-.76-.11-1.5-.45-2.14zm-103.6 24.52l-.052-1.606-.05-1.42 4.96-.02-.18.252c-1.72.62-3.48 1.477-4.67 2.793z"/><linearGradient id="a" gradientUnits="userSpaceOnUse" x1="122.193" y1="16.127" x2="122.193" y2="200.079"><stop offset="0" stop-color="#1B1440"/><stop offset=".819" stop-color="#ED1E79"/></linearGradient><path fill="url(#a)" d="M64.332 174.666h115.723c15.37-15.03 24.92-35.982 24.92-59.178 0-45.72-37.062-82.782-82.78-82.782-45.72 0-82.783 37.063-82.783 82.782 0 23.196 9.55 44.15 24.92 59.178z"/><circle fill="#E2E2E2" cx="123.797" cy="116.049" r="39.125"/><circle fill="#AAA" cx="131.095" cy="89.809" r="6.365"/><circle fill="#AAA" cx="132.13" cy="103.472" r="4.606"/><circle fill="#AAA" cx="141.911" cy="98.142" r="4.037"/><path fill="#6FB344" d="M46.833 185.166c19.94-23.867 34.775-59.08 75.058-59.08 47.14 0 70.26 45.8 92.61 62.414"/><path fill="#75451D" d="M85.792 144.79h4v23.376h-4z"/><path fill="#4F3014" d="M86.792 144.79h4v23.376h-4z"/><path fill="#75451D" d="M177.042 144.79h4v23.376h-4z"/><path fill="#4F3014" d="M178.042 144.79h4v23.376h-4z"/><path fill="#ED1F24" d="M65.897 140.285h129.71v9.668H65.897z"/><path fill="#4C8C22" d="M37.5 163.166l8.667 10.334 1.666-12 3 11.666 2.668-8.334 5.34 8 4.34-6.332 3.67 8.332 4.67-5 3.34 5.334 4-5 7.34 5.666 5-2.666 2 4 5.33-4.666 6 5.666 5-4.334 7.34 5.334 6-5.334 8.34 3.668 5.34-5.334-.33 10 3.33-11.334 3.67 10 2.72-11.568 6.62 6.568 4.74-5.207 1.6 11.207 5.99-8.275 2.19 5.074 4.16-4.79 4.34 5.34 3-9 7.67 10.34 6.34-8.33 2.33 10 6.33-9.33 5 4 3.66-2.33 4 7.34 3.67-8.66 1 9.67 5-7.33-2.67 12.42-175.34.67"/><path fill="#B20F1B" d="M95 145.584s-1.05 2.656-.302 4.37h8.565l.07-.038-5.104-9.63h-3.88c-.37 1.267-.35 2.997.65 5.298z"/><path fill="#75451D" d="M88.042 190.29l-4.166-1.27v-19.727h4.166"/><path fill="#4F3014" d="M92.167 190.104L88 190.29v-20.997h4.167"/><path fill="#75451D" d="M104.417 194.416l-4.166-1.27v-19.728h4.17"/><path fill="#4F3014" d="M108.542 194.23l-4.166.186v-20.998h4.166"/><path fill="#B20F1B" d="M170.167 142.5c-.66 2.148-.99 5.768 1.44 7.453h8.845c.744-.162 1.215-.287 1.215-.287l-4.112-9.38h-7.253c.107.638.115 1.402-.135 2.214z"/><path fill="#75451D" d="M181.875 190.29l-4.167-1.27v-19.727h4.167"/><path fill="#4F3014" d="M186 190.104l-4.167.187V169.3H186"/><path fill="#75451D" d="M198.25 194.416l-4.167-1.27v-19.728h4.167"/><path fill="#4F3014" d="M202.375 194.23l-4.167.186v-20.998h4.167"/><path fill="#ED1F24" d="M65.897 153.277h129.71v9.668H65.897z"/><path fill="#A8170C" d="M82.455 170.94l-16.542-2.577v-1.812l16.542 2.58"/><path fill="#93100C" d="M212.18 170.94l-129.728.01v-1.85l129.736.162"/><path fill="#ED1F24" d="M212.227 169.29H82.515l-16.618-2.72h129.71"/><path fill="#B20F1B" d="M101.667 153.334l-.312-.057H97.9c-.22 1.447-.61 5.006.85 5.14 1.833.167 4.833-.167 4.833-.167s-1.166 1.75.834 1.75 6.083-1.25 5.916-5c-.03-.664-.183-1.23-.408-1.723h-8.17l-.088.057zm24.28-3.38l1.17-9.67h-10.815l-.3.05s-1.798 4.24-2.872 9.62h12.817zm-.4 3.323h-12.95c-.393 3.246-.383 6.656.482 9.668h11.29l1.17-9.668z"/><path fill="#A8170C" d="M101.187 174.266l-16.54-2.578v-1.813l16.54 2.578"/><path fill="#93100C" d="M230.91 174.266l-129.727.007v-1.85l129.737.16"/><path fill="#ED1F24" d="M230.958 172.613H101.246l-16.616-2.72h129.71"/><path fill="#B20F1B" d="M112.542 169.854s10.438-2.813 14.375 2.938l4.375.125-6.5-7.375s-18.75-.375-16.375 2.875 4.125 1.437 4.125 1.437z"/><path fill="#B20F1B" d="M106.917 167.916s-3.5 3.5 0 4.875l1.875 1.63h9.75l-6.625-5.5-5-1z"/><path fill="#FFF" d="M157.016 195.346c.085-.094.16-.195.24-.293-2.425.475-4.872-.06-4.872-.06-3.803 1.415-2.743 2.3-2.743 2.3l19.65 4.426c2.13 3.18 3.72 0 3.72 0 2.66 3.18 3.37.17 3.37.17 1.06 2.12 3.44 0 3.44 0 .96-7.08-22.78-6.55-22.78-6.55z"/><path fill="#FFF" d="M146.547 165.908l.507.06c.31.046.764.116 1.342.204 1.143.19 2.75.547 4.653 1.16 1.89.625 4.09 1.578 6.2 3.238 1.04.84 2.03 1.895 2.8 3.162.78 1.26 1.26 2.742 1.48 4.21.1.548.2 1.386.23 2.052.04.693.03 1.39 0 2.076-.07 1.377-.31 2.717-.64 3.973-.66 2.52-1.64 4.707-2.57 6.457-.93 1.75-1.73 3.13-2.15 3.977-.22.424-.32.713-.34.83-.03.133 0 .107-.01.123l-5.81-1.857c0 .02.11-.31.31-.707.2-.418.51-.885.85-1.39.69-1.02 1.67-2.187 2.65-3.636.97-1.447 2.02-3.143 2.7-5.094.34-.975.6-2 .74-3.06.07-.53.12-1.067.13-1.61.02-.57.01-.973-.05-1.654-.1-.992-.37-1.934-.85-2.773-.47-.85-1.11-1.61-1.86-2.26-1.5-1.31-3.37-2.1-4.99-2.65-1.64-.55-3.09-.78-4.09-.94-.5-.07-.9-.1-1.16-.12l-.38-.02.26-3.77z"/><path fill="#D0D2D3" d="M169.772 121.592s4.664-8.48-3.992-5.535c-8.657 2.945 3.992 5.535 3.992 5.535z"/><path fill="#FFF" d="M124.453 125.725c1.578-9.32 11.406-16.5 23.303-16.5 12.997 0 23.53 8.567 23.53 19.135 0 10.568-10.534 19.137-23.53 19.137-.488 0-.97-.016-1.453-.04-.52 2.27-.956 5.794.617 7.927 0 0 10.794 8.07 5.288 15.738.007-.057 1.417-13.436-8.883-15.82l1.87-8.426s-3.894-.916-8.44-2.924v10.557s10.868 12.68 4.715 21.27c-10.762-.33-32.418-6.09-17.017-50.07z"/><path fill="#D0D2D3" d="M136.756 154.508V143.95c4.546 2.01 8.438 2.925 8.438 2.925l-1.87 8.426c10.3 2.39 8.89 15.77 8.884 15.82-1.074 1.5-1.615 2.01-4.135 3.41 0 0-3.396 1.36-6.604 1.26 6.15-8.59-4.72-21.28-4.72-21.28z"/><ellipse fill="#D0D2D3" cx="151.291" cy="128.781" rx="19.996" ry="15.17"/><ellipse fill="#FFF" cx="161.503" cy="125.373" rx="7.816" ry="7.705"/><ellipse fill="#FFF" cx="143.325" cy="125.548" rx="9.648" ry="9.585"/><path fill="#6C6F71" d="M150.537 142.143s.512-1.545 2.102-1.414c0 0-.43-.47-2.11-1.18 0 0 1.48.14 2.5.95 0 0 3.73.34 2.65-2.73 0 0 2.09 3.66-2.88 3.24 0 0-1.23.23-2.28 1.13z"/><path fill="#BE1E2D" d="M154.61 137.354s1.194 1.447-1.09 2.207c0 0-1.297.54-3.076-1.38 0 0 9.907-4.49 4.166-.82z"/><path fill="#6C6F71" d="M154.958 134.27l-.26 1.64s-5.12 3.747-6.322.782l.447-1.148-1.537 1.97.922-.57s-.14 3.638 6.544-.583c0 0 3.077-1.23.364.67 0 0 4.506-2.04.14-1.28l.172-1.26-.47-.21z"/><path fill="#1D8FCD" d="M157.338 133.475s-1.738-3.54-2.38-1.67c0 0-1.438-2.104-1.438 1.273 0 0 1.362.93 1.438 2.055 0 0 1.408-.567 2.38-1.658z"/><path fill="#FFF" d="M154.958 134.27s-.088-.477-.763-.953c0 0 .25-.917.763.953z"/><circle fill="#0071BC" cx="141.572" cy="125.599" r="7.471"/><path fill="#0F4481" d="M142.11 127.48c1.387-1.605 1.213-4.025-.39-5.413-1.603-1.385-4.024-1.212-5.413.392-1.385 1.6-1.21 4.02.39 5.41 1.604 1.38 4.027 1.21 5.412-.39z"/><path fill="#FFF" d="M139.875 126.303c.738-.852.644-2.14-.208-2.875-.85-.736-2.138-.646-2.875.207s-.643 2.14.208 2.877c.853.736 2.138.642 2.875-.21z"/><circle fill="#FFF" cx="142.979" cy="124.441" r=".993"/><circle fill="#0071BC" cx="160.399" cy="125.468" r="6.202"/><path fill="#0F4481" d="M160.846 127.03c1.15-1.333 1.006-3.342-.323-4.494-1.33-1.15-3.342-1.006-4.495.325-1.15 1.33-1.005 3.35.326 4.5 1.328 1.15 3.34 1.01 4.492-.32z"/><path fill="#FFF" d="M158.99 126.053c.612-.708.535-1.775-.173-2.387-.705-.61-1.774-.536-2.387.172-.61.708-.534 1.776.173 2.39.707.608 1.775.532 2.386-.175z"/><circle fill="#FFF" cx="161.567" cy="124.507" r=".825"/><path fill="#A8170C" d="M64.74 153.277H66v9.617h-1.26zm0-13.043H66v9.62h-1.26z"/><path fill="#919496" d="M126.854 123.73s-.375-4.5 3.25-6c0 0-4.938-1.814-5.75-.69s-1.25 4.002 2.5 6.69z"/><path fill="#D0D1D2" d="M108.458 149.238s2.498 2.432 3.85 2.432.81 4.186-2.702 2.498"/><path fill="#FFF" d="M98.913 144.893s-2.447 2.61.164 5.223c2.61 2.61 2.12 4.732 2.12 4.732s-1.142 2.938.98 2.938 3.918-1.14 3.265-4.732c0 0 2.448 2.773.815 4.732-1.63 1.957 4.243 3.264 4.733-2.285.49-5.54-5.386-11.26-7.997-11.26"/><path fill="#D0D2D3" d="M131.397 116.58s.23 1.967-1.6 2.24c0 0-8.954-2.924-2.42 4.935 0 0 .73 1.188-.777 2.238 0 0-6.03-5.16-4.11-9.09 0-.002 1.46-4.297 8.907-.322z"/><path fill="#FFF" d="M128.07 168.05l-.622-.104-1.818-.27c-1.573-.204-3.838-.468-6.527-.58-1.34-.046-2.793-.044-4.268.073-.734.06-1.48.15-2.182.3-.695.14-1.377.36-1.822.61-.22.12-.36.25-.41.32-.03.02-.04.07-.03.05l-.06.15c.01 0 .02-.02.02-.03l.01-.03c.01-.04 0-.17-.04-.28-.04-.12-.1-.18-.1-.18s.23.15.53.26c.61.23 1.46.42 2.32.59.91.16 1.82.33 2.73.49 1.88.38 3.87.74 5.92 1.85 1.01.55 2.09 1.41 2.78 2.67.17.31.32.63.43.96l.08.25.07.25.09.32c.12.42.23.84.32 1.35.39 1.95.58 3.61.73 5.28.14 1.64.26 3.18.35 4.6.17 2.84.25 5.2.31 6.86l.09 2.62c.05 1.66-1.25 3.05-2.92 3.1-1.66.05-3.05-1.26-3.1-2.92 0-.14 0-.28.02-.42l.01-.05.08-.64c.05-.43.11-1.05.17-1.85.14-1.6.29-3.89.36-6.63.04-1.37.06-2.85-.01-4.4-.04-1.53-.16-3.23-.37-4.71-.03-.35-.12-.79-.22-1.23l-.06-.33-.02-.08-.01-.04c.01.03-.02-.1.02.06v-.01l-.02-.07c-.02-.1-.06-.18-.1-.27-.17-.33-.53-.7-1.11-1.03-1.16-.68-2.88-1.1-4.63-1.45l-2.74-.54c-.95-.21-1.91-.4-3.02-.83-.54-.23-1.15-.5-1.82-1.11-.33-.31-.67-.74-.88-1.28-.22-.54-.27-1.13-.23-1.61.03-.26.07-.44.13-.69l.11-.35.06-.15c.18-.44.38-.79.63-1.11.5-.64 1.07-1.05 1.6-1.35 1.08-.61 2.07-.87 3.01-1.08.94-.2 1.83-.31 2.69-.38 1.71-.15 3.28-.14 4.73-.11 2.89.07 5.25.3 6.91.48l1.93.22.7.1c1.18.16 2.01 1.25 1.85 2.43-.16 1.18-1.25 2.01-2.43 1.85l-.06-.01-.05-.01zm14.23 29.02c.058-.064.106-.13.163-.195-2.133.232-2.88-.707-4.546-.96-5.833 1.835-4.242 3.43-4.242 3.43l22.975 5.177c2.482 3.727 4.342 0 4.342 0 3.1 3.727 3.936.207 3.936.207 1.238 2.48 4.018 0 4.018 0 1.116-8.28-26.646-7.66-26.646-7.66z"/><path fill="#D0D2D3" d="M160.997 203.69s-.783-3.825-6.084-1.757c0 .003 5.772-3.312 6.084 1.758zm3.76 0s-.283-3.382-2.313-2.274c0 0 1.522-.414 2.313 2.275z"/><path fill="#FFF" d="M133.547 165.908s.185.02.53.063c.33.05.803.12 1.4.22 1.196.2 2.875.58 4.864 1.24 1 .34 2.06.77 3.15 1.35 1.09.59 2.22 1.3 3.28 2.23 1.07.93 2.03 2.13 2.73 3.53.35.7.61 1.44.81 2.2.08.39.18.75.23 1.17.05.33.11.61.14 1.03.15 1.57.07 3-.16 4.45-.24 1.43-.63 2.78-1.1 4.03-.92 2.52-2.11 4.67-3.16 6.41-1.05 1.74-1.93 3.14-2.41 4-.24.43-.36.74-.38.84-.02.08-.01.07 0 .08h.01l-5.81-1.85.09-.22c.06-.15.16-.37.27-.57.24-.45.56-.92.94-1.44.76-1.04 1.83-2.25 2.95-3.74 1.12-1.49 2.35-3.23 3.28-5.23.46-.99.85-2.05 1.11-3.13.26-1.06.39-2.24.38-3.27.02-.22-.02-.59-.05-.9 0-.22-.08-.49-.11-.74-.11-.5-.25-.98-.46-1.44-.41-.91-1.01-1.74-1.75-2.44-1.48-1.43-3.41-2.3-5.1-2.89-1.7-.6-3.22-.85-4.27-1-.52-.08-.94-.11-1.21-.13-.26-.02-.4-.02-.4-.02l.26-3.77z"/><path fill="#D0D2D3" d="M176.31 139.47s-2.416 2.29-.363 5.79c2.053 3.502-1.086 3.742.483 4.707 1.57.967 3.138-.48 3.138-2.05 0 0-1.568 5.913-.483 6.517 1.087.604 3.14 1.328 4.347-4.707 0 0 .603 3.982-.846 4.707 0 0 3.138.604 3.5-3.258.36-3.863-2.414-12.674-6.396-12.795"/><path fill="#FFF" d="M126.103 138.21l-1.565-.448c-1.008-.275-2.458-.656-4.208-1.055-3.484-.785-8.237-1.71-12.82-1.752-1.123.027-2.26.055-3.27.252-1.004.176-1.963.443-2.558.846-.62.395-.882.783-1.038 1.252-.014.14-.036.27-.07.402-.043.123.01.314 0 .46-.025.298.06.655.133.993.036.328.175.676.29 1.004.114.326.196.635.356.934.295.594.487 1.115.76 1.54l.77 1.337.078.137c.64 1.102.26 2.506-.84 3.137-1.1.63-2.5.25-3.13-.85l-.02-.04-.87-1.59c-.29-.49-.56-1.19-.9-1.94-.18-.37-.31-.82-.46-1.29-.15-.47-.31-.94-.39-1.53-.1-.56-.21-1.14-.18-1.84.02-.35-.02-.66.06-1.04.07-.37.15-.74.24-1.12.46-1.55 1.68-2.96 3.04-3.71 1.36-.81 2.75-1.11 4.1-1.33 1.36-.22 2.67-.23 3.99-.23 5.19.17 10.06 1.26 13.68 2.15 1.81.45 3.3.88 4.35 1.19l1.65.51c.99.31 1.55 1.36 1.24 2.35-.3.98-1.33 1.53-2.31 1.25l-.06-.02z"/><path fill="#D0D1D2" d="M159.954 135.89l.242-.177.67-.465c.582-.387 1.416-.922 2.475-1.484 1.07-.56 2.34-1.172 3.82-1.643 1.48-.47 3.18-.83 5.02-.7.92.08 1.87.25 2.76.64.46.16.87.43 1.29.65.38.29.8.53 1.11.86.34.31.67.63.93.97l.41.5.34.51c.23.34.43.67.58 1 .15.33.34.65.45.96.51 1.23.78 2.27.94 2.99l.24 1.14c.27 1.24-.53 2.47-1.77 2.73-1.24.27-2.47-.53-2.73-1.77l-.03-.19-.01-.14-.11-.92c-.07-.58-.22-1.4-.5-2.31-.05-.24-.17-.44-.25-.67-.08-.24-.19-.46-.31-.68l-.18-.34-.21-.31c-.13-.22-.3-.4-.47-.59-.15-.21-.37-.33-.55-.52-.22-.13-.41-.31-.66-.41-.45-.26-1.01-.41-1.6-.52-1.18-.19-2.53-.06-3.79.23-1.26.28-2.44.72-3.43 1.14-.99.42-1.8.84-2.35 1.14l-.63.36-.21.13-.04.02c-.59.35-1.35.17-1.71-.42-.34-.55-.18-1.27.33-1.65z"/><path d="M74.82 93.146l-.437 1.51c-.34.845-.86 1.126-1.562.844-.6-.242-.67-1.198-.21-2.865.09-.328.21-.68.36-1.055.15-.374.48-.616.97-.728.5-.11 1.07-.035 1.71.226.65.26 1.75.56 3.31.9 1.57.34 2.6.612 3.11.816.91.364 1.24.852.99 1.462-.24.61-.67.913-1.27.91l-.03-.016c.01.17.04.497.09.983.11.914.02 1.74-.28 2.477-.21.532-.54 1.02-.97 1.464-.9.955-2.01 1.52-3.31 1.697-1.38.21-2.63.2-3.74-.01-1.11-.2-1.97-.39-2.59-.56-.63-.16-1.35-.37-2.14-.63-1-.33-2.19-.77-3.57-1.33l-2.75-1.08c-2.39-.96-4.07-1.73-5.05-2.3-.97-.57-1.76-1.07-2.36-1.51-.6-.43-1.11-.85-1.54-1.28-.42-.42-.81-.89-1.17-1.4-.37-.51-.63-1.03-.77-1.57-.35-1.16-.29-2.31.18-3.44s1.05-1.56 1.75-1.27c.27.11.44.29.52.55.08.26.07.52-.04.79l-.61 1c-.36.94-.09 1.89.81 2.87 1 1.06 2.01 1.89 3.05 2.49s1.88 1.07 2.53 1.42c.63.37 1.36.73 2.19 1.1 1.16.52 2.32 1.01 3.5 1.47l2.29.95c2.37.95 4.1 1.53 5.19 1.72 1.09.19 1.98.3 2.66.3.7.03 1.3-.04 1.81-.2 1.2-.71 2-1.43 2.41-2.16.44-1.1.29-2.22-.46-3.36-2.21-.85-3.7-1.22-4.48-1.11zm-1.79-7.49l-1.202-.938c-.104-.077-.17-.1-.192-.068l-.582-.43c-3.373-2.49-5.628-4.455-6.767-5.895-.965-1.214-1.477-2.077-1.535-2.59s.02-.916.237-1.21c1.84-2.492 4.36-3.282 7.57-2.37 1.85.524 3.83 1.566 5.94 3.13l.23.173 3.69 2.63c6.17 4.555 8.2 8.262 6.09 11.12-.88 1.185-2.2 1.607-3.97 1.27-1.7-.33-3.21-.877-4.52-1.64-2-1.13-3.67-2.192-5.01-3.183zm-2.996-5.15l2.854 2.35c3.11 2.297 6.01 4.05 8.696 5.255 1.746.47 2.917.55 3.514.24.286-.38.388-.85.306-1.4-.082-.54-.32-1.1-.714-1.68-.394-.57-.837-1.14-1.33-1.7-.492-.54-1.044-1.08-1.658-1.63-1.064-.94-2-1.72-2.807-2.31S76.8 78.19 75.03 77.1c-1.77-1.09-3.063-1.935-3.88-2.538l-.566-.417c-.8-.56-1.69-.82-2.666-.78-.977.04-1.747.443-2.312 1.208-.54.734-.487 1.526.163 2.378.54.71 1.32 1.44 2.34 2.19l1.92 1.37zm11.612-5.866l-.947-1.193c-.09-.1-.14-.137-.17-.112l-.47-.554c-2.69-3.21-4.42-5.65-5.19-7.32-.65-1.4-.95-2.36-.88-2.88.06-.51.23-.88.51-1.12 2.37-1.98 5.01-2.16 7.92-.51 1.67.95 3.35 2.43 5.04 4.45l.19.23 2.96 3.43c4.92 5.89 6.01 9.97 3.28 12.25-1.13.95-2.52 1.04-4.16.3-1.57-.72-2.91-1.61-4.01-2.66-1.67-1.57-3.04-3-4.11-4.28zm-1.694-5.71l2.218 2.957c2.48 2.967 4.883 5.354 7.208 7.16 1.586.863 2.706 1.218 3.357 1.064.37-.3.58-.73.628-1.28.05-.55-.05-1.15-.296-1.8s-.544-1.3-.892-1.96c-.35-.64-.757-1.3-1.223-1.98-.81-1.17-1.537-2.14-2.18-2.91s-1.696-1.89-3.16-3.36c-1.46-1.48-2.52-2.6-3.17-3.38l-.45-.54c-.647-.73-1.45-1.19-2.407-1.38-.958-.19-1.802.02-2.53.63-.7.59-.835 1.37-.405 2.35.36.82.947 1.71 1.757 2.68l1.545 1.79zm16.284 3.352L90.693 60.97c-.386-.77-1.043-1.906-1.974-3.413-.94-1.507-1.51-2.476-1.72-2.906-.22-.43-.25-.83-.11-1.2.15-.37.37-.63.67-.78 2.45-1.23 5.17-.79 8.15 1.31 1.71 1.2 3.02 2.71 3.94 4.54l.83 1.84.99 1.98c1.2 2.4 1.89 4.06 2.08 4.97.19.92.3 1.7.33 2.35s-.01 1.27-.12 1.85c-.28 1.34-.85 2.58-1.71 3.74l-2.58 1.29c-.61.3-1.69-1.1-3.26-4.22zm3.504.755l.43.855c2.07-1.04 2.265-3.76.582-8.158-.392-1.013-.812-1.968-1.262-2.863-3.608-7.19-6.88-10.25-9.812-9.19.298 1.03.86 2.37 1.687 4.02.826 1.65 2.208 4.18 4.146 7.59 1.94 3.41 3.35 6 4.23 7.76zm13.663-17.067l-.987.143c-.384.07-.635.216-.754.437l2.23 12.14c1.332-.323 2.054-.496 2.17-.518 1.498-.275 2.31-.066 2.437.625l.02.134c-.12.4-.37.73-.77 1s-.77.45-1.1.54-.76.18-1.28.28l-1.23.23c-.98.18-1.61.1-1.91-.24-.14-.16-.23-.39-.29-.68l-4.2-22.86c-.09-.45-.3-1.1-.64-1.95s-.56-1.5-.64-1.97l-.03-.13c.3-.8.54-1.32.72-1.56l2.85-.88c.4-.07.82-.03 1.27.14.45.17.7.44.77.82.14.78-.38 1.28-1.57 1.5l-1.14.17c-.19.04-.33.07-.42.1l1.5 6.44c.1.53.2 1.3.32 2.32.12 1.02.22 1.76.31 2.22.13-.05.32-.13.55-.24.51-.24.92-.38 1.22-.44.3-.06.59 0 .87.18.27.18.44.42.5.73.05.31.01.6-.14.88-.14.28-.37.44-.68.5zm11.177 9.068c.656-2.928 1.475-7.16 2.458-12.7s1.563-8.754 1.74-9.648l.9.02c.233.006.442.096.627.27s.274.384.27.632c-.036 1.497-.4 3.373-1.09 5.63s-1.1 3.712-1.227 4.367c-.126.65-.265 1.71-.417 3.18-.15 1.47-.32 2.91-.51 4.32-.19 1.41-.43 2.85-.72 4.32s-.69 2.64-1.18 3.55c-.49.9-1.07 1.34-1.72 1.32l-.73-.63c.08-3.24-.15-6.56-.69-9.94-.54-3.39-1.07-6.23-1.61-8.54-.54-2.31-.9-3.77-1.1-4.39-.43-1.46-.64-2.36-.64-2.71s.12-.62.32-.8.44-.27.68-.26c.74.02 1.42 1.31 2.04 3.87.62 2.58 1.07 4.99 1.36 7.23.29 2.24.5 3.95.64 5.14.14 1.19.28 2.38.4 3.57s.2 1.91.23 2.14zm11.03-14.282l.558-3.34c.428-1.838 1.188-2.63 2.278-2.377.697.16 1.61.54 2.74 1.15 1.13.6 1.635 1.15 1.517 1.66-.124.53-.6.85-1.426.95-1.11-.69-2.035-1.16-2.775-1.43-.092.56-.202 1.13-.332 1.69l-1.475 5.55c-.006.02-.016.23-.027.63l1.4.26c1.256.29 1.8.79 1.637 1.5-.066.28-.236.49-.514.65s-.59.19-.93.11-.72-.2-1.11-.34l-.99-.23c-.15 1-.34 1.99-.57 2.97l-1.81 7.02c-.34 1.46-.48 2.19-.43 2.2l2.89.57c.99.23 1.41.66 1.27 1.29-.09.39-.33.64-.71.73-.38.1-.79.09-1.22-.01l-3.29-.77c-.34-.08-.63-.27-.85-.57-.22-.3-.3-.62-.24-.95l.24-1.03 1.29-6.64 2.92-11.32zm9.453 6.448l3.56-6.56c.557-1.106 1.435-1.766 2.635-1.98l-.114.23c.123-.013.225.002.306.043.56.28.772 1.595.642 3.94-.13 2.347-.437 4.84-.92 7.483s-.98 5.305-1.49 7.985-.785 4.265-.826 4.754c2.986-4.76 6.263-10.68 9.83-17.78l.43-.99c.357-.71.832-.92 1.426-.62.338.17.52.43.55.8.026.36-.052.73-.24 1.1l-1.358 2.7c-1.434 2.79-3.44 6.47-6.02 11.04s-4.216 7.06-4.904 7.47c-.75-.13-1.25-.26-1.5-.39-.252-.13-.4-.31-.45-.54-.05-.24-.026-.55.067-.94.095-.39.142-.66.142-.8l.09-.15c.44-.89 1-4.13 1.67-9.72.67-5.59 1.06-9.48 1.19-11.64l-9.05 17.99c0 .06 0 .16.01.31.02.33-.02.61-.14.83-.11.22-.33.39-.66.5-.33.11-.64.1-.93-.05-.78-.39-.81-1.31-.07-2.77l6.08-12.28zm17.373 14.126l-5.385 6.577-.77.903-.74.833.4.343.9.72c.83.713 1.03 1.32.6 1.825-.22.26-.51.39-.87.4-.36.01-.67-.1-.94-.33l-1.33-1.14c-.91-.79-1.49-1.31-1.71-1.57-.17-.11-.3-.21-.39-.29-.72-.61-.88-1.15-.49-1.61.16-.19.37-.31.64-.38.27-.06.46-.05.59.04l.86.74.4-.35 5.33-6.62 5.97-6.62c1-1.15 1.88-2.28 2.65-3.39l-.58-.49-.72-.57c-.29-.25-.48-.51-.55-.77-.07-.25.03-.54.3-.86.4-.46 1.1-.27 2.1.59l3.62 3.1c.82.71 1.05 1.27.68 1.7-.16.19-.4.29-.71.29-.31.01-.58-.09-.81-.28l-1.55-1.33c-.63.9-1.4 1.87-2.3 2.92l-5.13 5.66zm7.597 2.966l6.213-4.137c1.008-.72 2.092-.9 3.252-.52l-.206.14c.113.04.196.1.25.18.362.51-.064 1.77-1.274 3.78s-2.648 4.07-4.31 6.18-3.345 4.23-5.048 6.36-2.688 3.4-2.953 3.81c4.86-2.81 10.525-6.51 16.995-11.12l.84-.67c.647-.46 1.164-.42 1.55.12.22.31.256.63.11.96-.145.33-.388.62-.727.86L182.26 82c-2.58 1.8-6.07 4.114-10.49 6.95-4.42 2.83-7.03 4.27-7.83 4.31-.61-.47-.99-.816-1.15-1.04-.17-.23-.21-.46-.15-.69s.23-.5.5-.8c.26-.3.43-.517.5-.645l.15-.088c.8-.578 2.81-3.18 6.02-7.81 3.2-4.64 5.37-7.88 6.49-9.738l-16.4 11.68c-.03.05-.07.14-.14.28-.14.3-.307.53-.51.67-.2.14-.47.19-.81.14s-.607-.21-.796-.48c-.507-.71-.097-1.54 1.23-2.48l11.126-8zm5.703 27.624l-3.916 1.636c-1.235.45-2.344.365-3.324-.254-.98-.62-1.682-1.505-2.1-2.654-.634-1.737-.445-3.233.566-4.49.713-.896 1.45-1.566 2.21-2.01.76-.442 1.35-.775 1.767-.997s.99-.48 1.73-.77c1.02-.43 1.85-.76 2.48-.99l1.61-.58c3.53-1.29 5.81-2 6.82-2.13s1.97-.21 2.87-.23 1.65.08 2.23.31c1.42.55 2.35 1.44 2.8 2.68.45 1.24.35 1.97-.28 2.2-.29.11-.58.08-.86-.1-.28-.17-.48-.41-.59-.72l-.2-.82c-.32-.87-1.41-1.21-3.29-1.02-2.68.26-5.75 1.02-9.21 2.28-2.36.86-3.96 1.53-4.79 2.01-.83.48-1.52.92-2.05 1.32-.55.4-.97.78-1.24 1.16-.66.89-.83 1.79-.5 2.7.44 1.22 2.65 1.09 6.64-.36l1.73-.63c.03-.22-.03-.53-.18-.93l-.29-.73c-.32-.87-.19-1.4.39-1.61.35-.13.67-.1.94.09.27.18.47.45.6.81l-.02.01.19.52c.82 2.25.84 3.52.07 3.8l-2.88.59z" fill="#FFF"/></svg>