<svg xmlns="http://www.w3.org/2000/svg" width="250" height="250" viewBox="0 0 250 250"><path opacity=".15" d="M225.893 90.06c-2.878-8.184-8.93-12.877-16.602-12.877-2.4 0-4.96.47-7.6 1.397-6.9 2.426-12.29 9.978-15.66 16.023-5.18-3.604-11.65-5.434-19.32-5.434-5.83 0-11.28 1.07-15.23 2.13.02-.38.02-.75.03-1.12v-.03c8.99-2.61 25.26-8.62 31.13-19.19 1.35-2.43 2.37-4.89 3.03-7.3l.87-3.2-6.74-3.29 6.92-2.72-1.12-3.57c-1.83-5.79-6.18-10.73-12.58-14.29-4.54-2.52-9.08-3.8-13.49-3.8-3.47 0-7.76.81-11.99 3.7-6.58-10.99-15.06-13.36-21.09-13.36-4.67 0-9.47 1.37-14.27 4.09-14.09 7.97-17.85 21.76-9.8 35.99.48.85 1.04 1.66 1.64 2.46-.4.64-.78 1.31-1.14 2.01-2.49 4.93-3.17 9.89-1.95 14.34.95 3.48 3.58 8.39 10.73 12.01 1.03.52 2.16.95 3.37 1.28h-.07c-26.24 0-49 15.16-60 37.18-4.39-3.9-7.86-7.27-10.24-9.68.09-.38.14-.78.15-1.18.4-1 .67-2.07.77-3.2.29-3.1-.55-6.36-2.37-9.19-2.63-4.08-6.92-6.62-11.19-6.62-1.96 0-3.84.54-5.44 1.57-5.22 3.36-6.24 11.09-2.29 17.23 2.63 4.08 6.92 6.62 11.19 6.62.02 0 .04-.01.05-.01 3.64 13.68 7.77 25.86 12.38 36.5.13 4.06.62 8.03 1.44 11.88-3.56 5.15-5.67 10.84-2.22 15.23 2.01 2.55 5.38 3.69 9.47 3.74 5.6 9.84 13.6 18.14 23.23 24.07l2.83 1.66 8.96 4.12c1.08.39 2.16.76 3.26 1.1.18.05.36.1.54.16.82.25 1.64.48 2.47.7.3.07.59.14.89.22.73.18 1.46.35 2.19.5l1.04.21c.69.13 1.39.26 2.09.37l1.12.18c.7.1 1.39.18 2.09.26.38.04.75.09 1.13.12.74.07 1.49.13 2.23.17.34.02.67.05 1 .07 1.08.05 2.16.08 3.25.08 1.01 0 2.02-.03 3.03-.08.25-.01.5-.02.75-.04.93-.05 1.85-.12 2.78-.21.32-.03.63-.07.94-.11.65-.07 1.31-.15 1.96-.25l1.08-.15c.81-.13 1.61-.28 2.4-.43l1.28-.27c.57-.12 1.12-.25 1.68-.39.52-.13 1.04-.26 1.55-.4.65-.18 1.29-.36 1.92-.55l1.01-.32c.87-.27 1.73-.56 2.58-.87l.29-.11c.91-.34 1.81-.7 2.7-1.07l.22-.09c2.16-.92 4.27-1.94 6.32-3.08l2.87-1.59-.03-.11c9.36-5.82 17.17-13.87 22.71-23.41 1.17-.27 2.53-.87 3.9-2.06.57-.48 2.73-2.54 3.52-6.08 4.89-4.39 8.83-8.38 11.6-11.32.38-.02.76-.08 1.12-.19.34.03.68.07 1.03.07 4.27 0 8.56-2.54 11.19-6.63 3.96-6.15 2.93-13.87-2.29-17.23-1.59-1.03-3.47-1.57-5.44-1.57-.83 0-1.66.1-2.49.28-.09-.49-.24-.98-.5-1.44-.11-1.26-.5-2.79-1.58-4.05-1.1-1.29-2.68-2.02-4.45-2.05-1.32-1.61-3.27-2.79-5.76-2.79-.6 0-1.21.08-1.83.22-.41-.09-.85-.14-1.31-.14-.38 0-.77.04-1.15.1-.17-.5-.33-1.01-.51-1.5 3.3-.24 6.19-1.24 8.6-2.93 4.58 4.91 9.4 6.03 12.82 6.03 3.95 0 8.02-1.48 11.79-4.27 8.83-6.57 10.59-16.01 4.84-24.98 9.74-4.24 13.53-13.04 9.89-23.39zm-29.512 73.966c-.16.247-.33.442-.51.613-.3-.23-.62-.41-.97-.56.08-.25.19-.51.37-.78.52-.8 1.21-1.19 1.6-1.24.1.31.09 1.1-.47 1.96zM33.7 116.36c-.178-.172-.354-.366-.513-.613-.555-.862-.57-1.648-.474-1.963.385.05 1.078.44 1.594 1.24.176.273.283.53.364.776-.34.15-.67.334-.97.56zm103.008-22.562c-.44 1.73-.98 3.324-1.525 4.704-3.393-1.078-6.9-1.892-10.502-2.42 4.31-.323 8.61-1.303 12.03-2.284zm47.36 75.047c.09-.063.177-.137.267-.203l.02.08c-.095.04-.19.084-.286.123zm-25.235-57.032c-1.143-.993-2.313-1.957-3.52-2.873l.017-.012c.33-.227.66-.445.988-.657.2-.12.4-.26.598-.38.23-.14.46-.27.688-.41.176-.1.35-.21.524-.31l.697-.39c.167-.09.333-.18.498-.26l.703-.36c.156-.07.31-.14.466-.22.24-.11.48-.23.72-.33.105-.04.208-.08.313-.13.474-.2.946-.38 1.415-.55.163-.06.325-.12.487-.17.21-.07.42-.13.63-.19.13-.04.26-.08.392-.11-2.19 2.23-4.19 4.72-5.61 7.39z"/><path fill="#FAAF40" d="M225.328 87.735c-2.878-8.185-8.93-12.878-16.602-12.878-2.408 0-4.968.47-7.605 1.397-6.89 2.426-12.29 9.978-15.66 16.023-5.18-3.604-11.65-5.434-19.32-5.434-5.83 0-11.28 1.075-15.23 2.132.03-.382.02-.743.03-1.12v-.024c8.99-2.6 25.26-8.61 31.14-19.18 1.35-2.43 2.37-4.88 3.03-7.29l.87-3.19-6.74-3.28 6.93-2.71-1.12-3.56c-1.83-5.79-6.18-10.73-12.58-14.28-4.54-2.52-9.08-3.8-13.49-3.8-3.46 0-7.76.82-11.98 3.7-6.59-10.99-15.07-13.36-21.1-13.36-4.67 0-9.47 1.38-14.27 4.09-14.09 7.97-17.85 21.76-9.8 35.99.48.85 1.04 1.67 1.64 2.46-.4.64-.78 1.31-1.14 2.01-2.49 4.93-3.17 9.89-1.95 14.35.95 3.49 3.59 8.4 10.73 12.02 1.03.52 2.16.95 3.37 1.28l-.07-.01c-26.24 0-49 15.16-60 37.18-4.4-3.89-7.87-7.27-10.24-9.68.09-.38.13-.77.14-1.17.4-1 .67-2.07.77-3.2.29-3.1-.55-6.36-2.37-9.18-2.63-4.08-6.92-6.62-11.19-6.62-1.96 0-3.84.55-5.44 1.58-5.22 3.36-6.24 11.09-2.29 17.23 2.63 4.09 6.92 6.63 11.19 6.63h.05c3.63 13.69 7.76 25.86 12.38 36.51.13 4.06.62 8.03 1.44 11.88-3.57 5.15-5.68 10.84-2.23 15.23 2.01 2.56 5.39 3.69 9.47 3.75 5.6 9.84 13.61 18.14 23.23 24.08l2.83 1.66 8.95 4.1c1.08.4 2.17.77 3.26 1.11.18.06.37.11.55.16.82.25 1.64.49 2.47.71.29.08.59.14.88.22.73.18 1.46.35 2.19.51l1.05.21c.7.14 1.4.26 2.1.37.37.06.74.12 1.12.18.69.1 1.39.18 2.09.26.38.04.75.09 1.13.12.74.07 1.49.12 2.23.17.34.02.67.05 1 .06 1.08.05 2.16.08 3.25.08 1.01 0 2.02-.03 3.03-.08l.75-.03c.93-.05 1.86-.12 2.78-.21.32-.03.63-.07.94-.1.65-.07 1.31-.15 1.96-.25.36-.05.73-.1 1.08-.15.8-.13 1.6-.27 2.4-.43.43-.09.86-.18 1.28-.27.56-.12 1.12-.25 1.68-.39l1.55-.39c.65-.17 1.29-.36 1.93-.55l1.01-.31c.87-.27 1.73-.56 2.58-.87.1-.04.19-.08.29-.11.91-.34 1.81-.7 2.7-1.07l.21-.09c2.16-.91 4.27-1.93 6.33-3.07l2.88-1.59-.03-.11c9.35-5.82 17.17-13.88 22.7-23.42 1.17-.28 2.52-.87 3.9-2.06.57-.48 2.73-2.54 3.52-6.08 4.89-4.38 8.83-8.37 11.6-11.32.38-.01.76-.08 1.12-.19.34.03.68.07 1.03.07 4.27 0 8.56-2.54 11.19-6.62 3.96-6.15 2.93-13.87-2.29-17.23-1.59-1.03-3.48-1.57-5.44-1.57-.83 0-1.66.1-2.49.29-.09-.49-.24-.98-.5-1.44-.11-1.26-.5-2.78-1.58-4.05-1.1-1.29-2.68-2.01-4.45-2.04-1.32-1.61-3.27-2.79-5.76-2.79-.59 0-1.21.08-1.82.22-.42-.08-.85-.13-1.31-.13-.38 0-.77.04-1.15.11-.17-.5-.33-1.01-.51-1.5 3.3-.24 6.19-1.24 8.6-2.93 4.57 4.91 9.4 6.03 12.82 6.03 3.95 0 8.02-1.48 11.78-4.28 8.83-6.56 10.6-16.01 4.85-24.98 9.74-4.23 13.53-13.03 9.89-23.39zm-41.562 78.58l.02.082c-.096.04-.19.083-.286.122l.266-.21zm-29.024-59.7l.018-.012c.33-.227.66-.445.988-.657.2-.13.4-.26.598-.384.23-.143.458-.277.687-.412.175-.104.35-.208.523-.308.232-.134.464-.262.696-.388.166-.09.332-.178.497-.265.23-.13.47-.25.7-.36.15-.08.31-.15.46-.22.24-.12.48-.23.72-.34.1-.05.21-.09.31-.13.47-.2.94-.39 1.41-.56l.48-.18c.21-.07.42-.14.62-.2l.39-.12c-2.19 2.22-4.19 4.71-5.61 7.38-1.15-1-2.32-1.96-3.53-2.88zM136.14 91.473c-.44 1.73-.98 3.324-1.526 4.704-3.393-1.078-6.9-1.892-10.502-2.42 4.31-.323 8.602-1.303 12.027-2.284zM32.143 111.46c.385.05 1.078.44 1.594 1.24.176.272.283.53.364.775-.34.15-.67.333-.97.56-.18-.172-.35-.366-.51-.613-.55-.862-.57-1.65-.47-1.963zm164.145 48.28c.095.313.08 1.1-.474 1.96-.16.248-.336.443-.515.614-.3-.226-.63-.41-.97-.56.08-.244.19-.5.36-.773.51-.8 1.21-1.19 1.59-1.24z"/><circle fill="#3FD8D8" cx="114.344" cy="160.093" r="63.055"/><path fill="#A67C52" d="M114.344 223.148c11.082 0 21.492-2.865 30.54-7.886-.366-1.145-.84-1.933-.84-1.933 38.944-17.78.84-66.57-2.13-80.98-2.97-14.41 3.252-23.12 3.252-23.12 34.475-32.14 49.88 10.88 49.88 10.88-.085-.94-.194-1.84-.314-2.72-1.97-6.75-4.758-13.15-8.264-19.07-14.145-14.38-40.274-3.64-40.274-3.64C151.25 65.52 130.18 63.7 130.18 63.7c20.977 14.327 5.297 39.85 5.297 39.85-20.516 30.682 10.475 60.692 5.21 83.375-2.663 11.463-17.538 4.518-20.825 11.13-2.19 4.405-12.916 13.534-21.35 18.777-2.03 1.262-2.96 1.916-5.084 2.25-.318.05-.652.1-.99.15 6.824 2.53 14.203 3.916 21.906 3.916z"/><path fill="#779232" d="M202.448 80.028c-10.005 3.518-17.122 21.772-17.122 21.772s16.977 9.782 26.98 6.265c10.005-3.52 11.97-11.262 9.248-19.003-2.722-7.742-9.103-12.55-19.106-9.034z"/><path fill="#9EB13F" d="M211.177 111.966c-6.325-8.514-25.868-9.9-25.868-9.9s-4.32 19.113 2.01 27.626c6.32 8.513 14.3 8.095 20.89 3.2 6.58-4.895 9.29-12.413 2.96-20.926z"/><path fill="#754C24" d="M141.256 142.884s-11.3-18.807.363-35.03c4.78-6.66 15.49-9.634 23.54-10.163-5.77 1.06-12.43 4.49-20 11.55 0 0-6.22 8.71-3.25 23.12 2.78 13.52 36.48 57.29 8.5 77.33 14.64-26.96-9.17-66.8-9.17-66.8zm4.16-66.567c1.578 4.416 2.168 10.36.778 18.38l-3.433 2.112c.01 0 3.28-9.23 2.66-20.5z"/><path fill="#55B53F" d="M189.48 121.03c2.02-10.413-10.135-25.78-10.135-25.78s-17.02 9.71-19.04 20.12 3.668 16.018 11.724 17.58c8.05 1.565 15.43-1.51 17.45-11.92z"/><path fill="#F15A22" d="M37.428 119.31s77 87.667 155.334 47.334c0 0-47 51-90.668 37.667-43.666-13.33-60.333-70.95-64.666-85z"/><path fill="#FFF" d="M97.39 168.543l2.26-1.188c.66-.394 1.447-.84 2.354-1.405.906-.59 1.933-1.244 3-2.04.545-.38 1.09-.805 1.648-1.253.567-.437 1.14-.9 1.708-1.407.58-.49 1.164-1.006 1.733-1.56.588-.537 1.162-1.11 1.73-1.708 1.156-1.174 2.246-2.473 3.31-3.81 1.015-1.37 2.022-2.776 2.834-4.254.815-1.47 1.525-2.976 1.976-4.44.44-1.45.62-2.87.465-3.882-.158-1.052-.522-1.43-1.065-1.786-.57-.347-1.495-.633-2.556-.65-1.02-.07-2.09.026-3.045.165-.946.102-1.826.355-2.52.474l-2.242.61-2.02-7.29 2.714-.61c.91-.12 1.95-.36 3.26-.45 1.29-.12 2.782-.2 4.534.01 1.7.16 3.818.64 5.877 2.11 1.024.72 1.938 1.77 2.6 2.96.303.59.54 1.22.746 1.85.13.61.3 1.26.34 1.86.2 2.46-.32 4.65-1.02 6.66-.73 2-1.71 3.81-2.78 5.54-1.07 1.73-2.3 3.29-3.54 4.79-1.28 1.46-2.58 2.85-3.93 4.1-.66.63-1.33 1.24-2.01 1.8-.66.58-1.33 1.12-1.99 1.63-.65.52-1.3 1-1.95 1.45-.63.46-1.25.89-1.87 1.28-1.21.81-2.37 1.47-3.39 2.07-1.04.58-1.99 1.06-2.75 1.46l-2.31 1.07-2.08-4.2z"/><path fill="#D0D1D2" d="M127.652 184.69s.788.1 2.168.272c.686.083 1.55.218 2.428.236l1.43.077.77.043c.267-.006.54-.012.818-.02.555-.01 1.133-.02 1.73-.033.6-.006 1.198-.116 1.82-.17.622-.062 1.26-.118 1.89-.273.633-.142 1.287-.23 1.93-.415.64-.19 1.29-.387 1.946-.584.64-.255 1.287-.512 1.94-.77 1.29-.585 2.58-1.22 3.85-1.987.64-.35 1.272-.755 1.9-1.168.627-.408 1.252-.797 1.87-1.243 1.237-.847 2.455-1.723 3.637-2.595l6.53-4.84c1.95-1.425 3.58-2.608 4.74-3.42l1.82-1.283 5.09 8.252s-.68.37-1.87 1.04c-1.2.65-2.9 1.62-4.93 2.8l-7.04 4.12c-1.31.76-2.68 1.54-4.12 2.31-.7.39-1.46.76-2.2 1.14-.74.38-1.5.75-2.29 1.08-1.54.71-3.18 1.32-4.8 1.84-.83.23-1.65.47-2.47.68l-2.47.46c-.81.13-1.62.17-2.4.25-.78.09-1.55.09-2.29.08-.74-.02-1.47.03-2.15-.04-.69-.06-1.35-.12-1.98-.17l-.93-.09-.89-.15-1.63-.27c-1.05-.15-1.84-.37-2.52-.52l-2.13-.51.75-4.19z"/><path fill="#FFF" d="M62.51 169.395s35.748 59.024 67.252 32.25c6.483-5.512 16.134-28.63-6.4-34.11-7.982-1.94-18.6 5.775-27.6-2.558"/><path fill="#D0D1D2" d="M88.028 176.535s23 28.833 41.833 13c3.78-3.17 6.5-15.333-6.33-18.667 0 0-6.5-1-11.83 2.834-5.33 3.833-13-1.333-13-4s-12.83 3.333-12.83 3.333l2.17 3.5z"/><path fill="#FFF" d="M118.317 194.158l2.29-.213c.73-.066 1.616-.147 2.598-.27.99-.12 2.105-.225 3.314-.412 1.21-.166 2.52-.358 3.87-.62 1.37-.22 2.77-.57 4.21-.9.71-.196 1.43-.396 2.16-.6.72-.204 1.43-.476 2.16-.71.73-.224 1.43-.54 2.14-.82l1.06-.432 1.04-.49c1.39-.62 2.73-1.4 4.04-2.14l1.91-1.19c.63-.39 1.23-.85 1.83-1.25 1.2-.8 2.32-1.73 3.39-2.53l2.97-2.44c.9-.79 1.73-1.52 2.46-2.17.73-.64 1.35-1.25 1.87-1.72l1.63-1.51 7.62 9.33-1.96 1.35c-.63.43-1.37.96-2.26 1.54l-2.99 1.94-3.65 2.2c-1.35.73-2.7 1.55-4.23 2.28-.76.37-1.5.77-2.29 1.12l-2.41 1.06c-1.66.65-3.34 1.31-5.09 1.81l-1.3.39-1.31.32c-.88.21-1.74.45-2.61.58-.87.15-1.73.34-2.58.45l-2.51.31c-1.64.13-3.23.28-4.72.31-1.49.07-2.89.07-4.18.06-1.28.01-2.46-.05-3.5-.07-1.05-.02-1.93-.07-2.66-.11l-2.3-.12-.09-4.25z"/><path fill="#D0D1D2" d="M101.678 127.238s7.886-7.903 6.917 4.67l-2.104-.73-4.81-3.94z"/><ellipse transform="rotate(61.7 85.8 150.6)" fill="#FFF" cx="85.768" cy="150.546" rx="24.28" ry="30.302"/><ellipse transform="rotate(61.7 88.9 148.5)" fill="#D0D1D2" cx="88.858" cy="148.535" rx="19.343" ry="25.358"/><ellipse transform="rotate(61.7 100 140.6)" fill="#FFF" cx="100.057" cy="140.562" rx="10.24" ry="10.391"/><ellipse transform="rotate(61.7 78.9 152.2)" fill="#FFF" cx="78.896" cy="152.215" rx="12.741" ry="12.825"/><path fill="#919396" d="M59.414 149.62c.002-.01-.668 6.548.158 8.128l-1.438-.84s-10.096-5.137 1.28-7.29z"/><path fill="#D0D1D2" d="M61.045 146.903s-7.22-.646-9.557 3.498c0 0-2.502 6.34 7.23 9.24l2.454.88s.714-1.51-.544-3.27c0 0-11.803-4.32-.102-7.1 0 0 1.59-1 .52-3.23z"/><circle fill="#0071BC" cx="76.469" cy="151.99" r="9.678"/><circle fill="#0F4481" cx="74.148" cy="151.417" r="4.971"/><circle fill="#FFF" cx="75.027" cy="150.7" r="2.642"/><circle fill="#FFF" cx="69.93" cy="153.97" r="1.286"/><circle fill="#0071BC" cx="98.854" cy="140.83" r="7.958"/><circle fill="#0F4481" cx="96.944" cy="140.358" r="4.087"/><circle fill="#FFF" cx="97.667" cy="139.768" r="2.173"/><circle fill="#FFF" cx="93.475" cy="142.458" r="1.057"/><path fill="#FFF200" d="M37.428 119.31s43.334 142 155.334 47.334c0 0-110.668 132.334-155.334-47.333z"/><path fill="#FFF" d="M83.408 183.767l-.572.367c-.38.24-.935.594-1.642 1.043-.783.45-1.756 1.07-2.833 1.628-1.07.6-2.32 1.217-3.69 1.87-1.38.635-2.89 1.286-4.53 1.9-1.65.596-3.4 1.203-5.29 1.676-1.89.49-3.88.91-6.04 1.11-2.16.19-4.46.27-7.14-.41-.64-.13-1.38-.44-2.08-.74-.34-.12-.74-.4-1.09-.61-.36-.25-.72-.43-1.07-.78-.35-.32-.69-.66-1.01-1.01-.3-.37-.57-.81-.83-1.24-.28-.43-.45-.87-.59-1.33-.14-.45-.31-.94-.37-1.37-.09-.83-.2-1.78-.09-2.47.04-.37.08-.74.13-1.11.05-.37.15-.65.23-.98.17-.63.34-1.28.58-1.79.23-.53.44-1.11.68-1.58.5-.95.99-1.9 1.53-2.69l.79-1.22.81-1.1c.53-.74 1.07-1.41 1.6-2.04.53-.63 1.03-1.26 1.54-1.81 1.01-1.12 1.94-2.14 2.79-2.98.84-.86 1.58-1.61 2.21-2.19l1.95-1.86 6.04 6.55-1.81 1.72c-.59.54-1.26 1.22-2.03 2-.79.77-1.61 1.67-2.51 2.66-.47.49-.88 1.02-1.34 1.56-.46.54-.91 1.1-1.33 1.68l-.66.89-.59.9c-.43.62-.72 1.22-1.06 1.83-.26.59-.55 1.21-.64 1.67-.03.12-.1.27-.1.35 0 .09-.01.17-.02.26-.07.22.03.2-.02.3-.01.03.03-.02.01-.02-.02 0-.04-.01-.03-.05 0-.03-.05-.05-.06-.06.02-.02.01-.03 0-.02-.05.01.05.02.07.04.05.02.02.07.13.09.18.05.29.15.58.2.99.27 2.53.32 4.06.18 1.54-.12 3.15-.45 4.69-.84 1.55-.37 3.04-.89 4.45-1.38 1.41-.52 2.72-1.07 3.92-1.61 1.19-.56 2.28-1.09 3.22-1.61.97-.49 1.69-.96 2.34-1.32.67-.4 1.24-.78 1.61-1.01l.57-.36 4.63 7.25z"/><path fill="#D0D1D2" d="M39.274 109.138c-2.765-4.295-7.736-6.02-11.103-3.854-3.36 2.168-3.85 7.407-1.09 11.702s7.74 6.02 11.11 3.854c3.37-2.167 3.86-7.407 1.09-11.702zm-2.875 8.928c-2.17 1.395-5.37.284-7.15-2.48-1.78-2.764-1.47-6.135.7-7.53 2.16-1.395 5.36-.283 7.14 2.48 1.78 2.764 1.46 6.136-.7 7.53z"/><path fill="#FFF200" d="M36.953 116.952s1.906-.39 2.156 2.89c0 0 .53.767.98.064.7-1.087-.97-4.22-2.74-3.906 0 0-.74.202-.41.952z"/><path fill="#F15A22" d="M36.277 117.65s1.906-.39 2.156 2.89c0 0 .53.767.984.064.7-1.087-.97-4.22-2.734-3.906 0 0-.74.202-.406.952z"/><path fill="#FFF200" d="M35.36 118.046s1.905-.39 2.155 2.89c0 0 .53.767.984.064.7-1.087-.97-4.22-2.74-3.906 0 0-.74.202-.41.952z"/><path fill="#F15A22" d="M34.516 118.655s1.906-.39 2.156 2.89c0 0 .53.767.984.064.7-1.09-.97-4.22-2.734-3.91 0 0-.738.2-.406.95z"/><path fill="#D0D1D2" d="M190.25 169.12c3.366 2.167 8.338.44 11.103-3.854s2.276-9.534-1.09-11.702c-3.367-2.167-8.34-.44-11.104 3.854s-2.28 9.535 1.09 11.702zm1.082-10.304c1.78-2.764 4.98-3.875 7.146-2.48 2.167 1.396 2.48 4.767.702 7.53-1.78 2.765-4.98 3.875-7.146 2.48s-2.48-4.766-.702-7.53z"/><path fill="#FFF200" d="M191.48 165.232s-1.906-.39-2.156 2.89c0 0-.53.767-.984.064-.7-1.087.97-4.22 2.734-3.906 0 0 .74.202.406.952z"/><path fill="#F15A22" d="M192.156 165.93s-1.906-.39-2.156 2.892c0 0-.53.766-.984.063-.7-1.087.97-4.22 2.734-3.906 0-.01.74.2.406.95z"/><path fill="#FFF200" d="M193.074 166.326s-1.906-.39-2.156 2.89c0 0-.53.767-.984.064-.7-1.087.97-4.22 2.734-3.906 0 0 .738.202.406.952z"/><path fill="#F15A22" d="M193.918 166.936s-1.906-.39-2.156 2.89c0 0-.53.767-.984.064-.7-1.087.97-4.22 2.734-3.906 0-.002.738.202.406.952z"/><path fill="#D0D1D2" d="M95.885 161.95c4.22 3.962 6.795 4.89 7.96 3.944 1.145-.932.683-3.424-2.23-8.246"/><path fill="#6D6F71" d="M95.885 161.95s.26.142.673.438c.42.29.983.723 1.65 1.263.677.53 1.487 1.11 2.415 1.61.467.24.962.47 1.477.59.508.12 1.052.14 1.436-.11.038-.02.115-.07.124-.08l.155-.15c.062-.1.12-.15.165-.27.107-.2.135-.46.154-.71.01-.51-.095-1.05-.244-1.55-.287-1.01-.72-1.91-1.09-2.68-.388-.76-.672-1.42-.885-1.88-.2-.46-.3-.74-.3-.74s.193.22.505.63c.296.42.72 1.01 1.123 1.78.396.78.85 1.7 1.173 2.76.165.53.296 1.11.294 1.72-.017.31-.046.64-.192.95-.05.15-.18.33-.284.46l-.152.15c-.093.09-.15.11-.227.17-.61.39-1.324.3-1.894.16-.58-.15-1.1-.4-1.59-.67-.96-.54-1.77-1.16-2.46-1.71-1.37-1.08-2.02-2.08-2.02-2.08z"/><path fill="#BE202E" d="M99.94 156.854c-1.075.232-2.36-.413-3.024-1.35.543 1.426.092 3.163-.973 4.35 2.943 2.765 5.322 4.23 6.135 3.568.8-.65-.105-3.203-2.138-6.568z"/><path fill="#6D6F71" d="M100.956 151.93c.038-.033.738.622 1.005 2.096.16 1.04-.34 2.35-1.56 2.978-.63.304-1.37.22-2-.017-.16-.056-.32-.118-.47-.214l-.22-.13c-.08-.048-.16-.093-.15-.096l-.1-.083v.017l.01.07c0 .03.01-.01.01.06v.19c-.01 1.76-1 3.32-2.31 4.11-.66.4-1.4.61-2.1.6-.7-.03-1.34-.13-1.9-.44-1.22-.76-1.69-1.51-1.65-1.56.08-.1.72.55 1.87 1.13.97.44 2.36.51 3.49-.23 1.13-.69 1.99-2.1 2-3.6l.01-.16c0-.04-.04-.22-.06-.32l-.16-.72c-.05-.23-.14-.51-.21-.76l-.11-.38-.06-.19c-.02-.05 0-.03.03 0l.06.08.76.89.7.7c.05.05.13.13.16.15l.1.06.19.11c.12.09.25.14.39.19.53.21 1.11.27 1.56.06.43-.2.83-.6 1.04-1.04.25-.43.29-.91.27-1.36-.12-1.3-.65-2.09-.52-2.14z"/><path fill="#0B8ECC" d="M95.05 152.01s-2.493-1.755-1.768 3.356l3.917.828 1.18-3.358c0-.002-3.65-3.11-3.33-.825z"/><path fill="#FFF" d="M93.8 155.035l1.68.35s-1.037-1.284-1.68-.35zm3.71-.743l.45-1.097s-.756.033-.45 1.097z"/><g fill="#D0D1D2"><path d="M185.83 145.863s-1.04-4.482-5.283-2.966c-4.242 1.515-13.86 9.387-10.307 34.368 0 0 1.64 4.213 5.392 2.28 0 0 2.085-.976 2.86-3.642s-.594-9.432.674-11.68c0 0 5.813-1.367 5.17-8.907 0 0 2.994 2.583 5.18-1.938 2.184-4.52.447-4.236.447-4.236s.85-5.386-4.134-3.28z"/><path d="M178.768 147.22c-.594 2.413-.116 6.52 3.413 5.722 2.58-.556 4.35-4.677 3.69-7.044"/><path d="M182.504 152.842c.014-.056-.085-.14.04-.168.778 1.68 1.634 3.335 3.948 2.103 1.986-1.058 3.342-4.386 3.45-5.55m-13.262 13.968c.182-.49.643-.676 1.022-1 1.383-1.028 2.556-2.405 2.535-4.255"/></g><path fill="#FFF" d="M175.996 143.975s-2.64-5.204-7.404-2.052c-4.766 3.15-14.223 15.763-2.273 45.452 0 0 3.29 4.69 7.33 1.173 0 0 2.27-1.832 2.42-5.352.14-3.52-3.6-11.437-2.72-14.59 0 0 6.74-3.445 3.66-12.535 0 0 4.47 2.28 5.79-3.95 1.32-6.23-.74-5.35-.74-5.35s-.59-6.89-6.09-2.78z"/><path fill="#6D6F71" d="M176.045 144.008c.06-.054.682.696.9 2.127.176 1.16.11 2.515-.265 3.918-.392 1.37-1.103 2.922-2.583 3.842-.743.423-1.548.73-2.407.685-.85-.026-1.632-.432-2.173-.967-1.094-1.092-1.52-2.44-1.775-3.574-.265-1.37-.11-2.26-.03-2.26.114 0 .137.86.5 2.14.277 1.07.742 2.33 1.708 3.25.48.45 1.104.76 1.794.78.685.04 1.42-.24 2.06-.61 1.262-.77 1.956-2.18 2.342-3.47.376-1.32.473-2.6.347-3.7-.092-1.36-.522-2.14-.418-2.19z"/><path fill="#6D6F71" d="M182.08 146.87c.09-.024.313.894.138 2.297-.085.754-.264 1.602-.548 2.5-.13.452-.354.896-.54 1.368l-.394.674c-.13.22-.267.45-.464.65l-.552.62c-.217.16-.404.35-.638.49-.434.3-.945.52-1.47.58-1.093.11-1.942-.53-2.463-1.06-.67-.68-1.03-1.28-1.21-1.58l.11.02c-.07-.07.01.16-.04.14-.02 0-.04-.02-.07-.04-.04 0-.14-.17.02-.27l.11.02c.27.22.72.76 1.39 1.34.53.48 1.25.94 2.06.82.4-.06.81-.23 1.19-.51.2-.12.37-.3.56-.45l.48-.55c.17-.17.3-.38.42-.59.12-.21.25-.42.37-.62.18-.44.4-.85.53-1.28.29-.85.5-1.66.62-2.38.28-1.34.24-2.21.34-2.23zm-9.31 13.673c.052-.03.49.84.313 2.294-.042.55-.24 1.235-.576 1.917-.355.682-.772 1.26-1.144 1.643-.425.54-.872.915-1.06 1.2-.2.293-.257.506-.32.497-.032.005-.07-.242.083-.628.17-.404.545-.797.91-1.357.3-.44.64-1.01.972-1.64.31-.63.535-1.23.656-1.72.274-1.31.034-2.19.165-2.21z"/><path fill="#D0D1D2" d="M143.747 188.41s16.28-4.04 21.614-2.458c0 0-2.36-9.76-3.23-11.51-.77-1.538-17.21 12.385-18.37 13.968z"/><path fill="#FFF" d="M161.86 173.036s5.827 12.71 3.73 12.655c-3.563-.09-14.87-.59-15.313-.78-1.656-.68.315-2.39 3.75-5.31 3.345-2.84 7.834-6.56 7.834-6.56z"/><path fill="#9EB13F" d="M169.26 54.478l11.932-4.68c-1.593-5.037-5.498-9.096-10.715-11.993-10.187-5.658-21.494-4.756-28.807 8.408S144 85.475 144 85.475s27.25-5.607 34.562-18.77c1.236-2.226 2.105-4.36 2.662-6.403l-11.963-5.824z"/><path fill="#55B53F" d="M112.848 88.194c9.903 5.014 28.854-2.826 28.854-2.826s-4.9-19.913-14.803-24.926c-9.91-5.014-17.18-.892-21.06 6.77-3.88 7.666-2.9 15.97 7 20.982z"/><path fill="#779232" d="M105.256 58.963c7.818 13.82 36.6 19.51 36.6 19.51s9.95-27.6 2.133-41.42c-7.82-13.82-19.75-14.68-30.45-8.628-10.7 6.05-16.11 16.72-8.29 30.538z"/><path d="M88.868 82.6c-.922 0-3.22.297-4.67 3.092-.185.366-.367.742-.55 1.128-.703 1.27-1.482 3.07-2.384 5.497l-.746 2.022c-1.162.06-2.578.41-4.008 1.43-.13-.14-.263-.27-.414-.39-.76-.59-1.665-1.08-2.77-1.48-.447-.17-.914-.25-1.38-.25-.633 0-1.266.15-1.84.45-.144.07-.28.15-.413.24-.087.01-.173.03-.258.04-2.132.03-3.856 1.08-5.154 2.29-.26-.5-.62-.96-1.07-1.31-.76-.59-1.66-1.08-2.77-1.48-.44-.17-.91-.25-1.38-.25-.63 0-1.26.15-1.84.45-.14.07-.28.15-.41.24-.08.01-.17.03-.26.04-1.99.03-3.62.95-4.88 2.05v-.03c-.06-.21-.13-.4-.2-.59.73-.66 1.38-1.48 1.96-2.45 1.08-1.8 1.63-3.66 1.63-5.52 0-.58-.1-1.03-.49-2.5-.13-.51-.37-.98-.68-1.39-.68-1-1.57-1.83-2.65-2.47-1.21-.72-2.34-1.07-3.43-1.07-2.13 0-3.84 1.37-5.21 2.68-3.31 3.12-6.11 7.65-8.54 13.85-.09.24-.17.5-.21.76-.03.14-.16.59-.56 1.83-.54 1.63-.8 2.99-.8 4.16 0 .36.04.62.18 1.47l.07.43c0 .69.17 1.34.49 1.92.05.17.1.34.17.51.11.33.27.66.47.95.32.48.72.9 1.46 1.5.5 1 1.39 1.72 2.41 2.03.11.05.21.09.31.13.39.21.81.37 1.27.44.66.12 1.17.19 1.56.24.41.51.95.92 1.58 1.18.5.2 1.02.3 1.53.3 1.04 0 2.07-.4 2.83-1.17.42-.41.78-.89 1.08-1.43.58.72 1.23 1.16 1.84 1.42.97.62 2.13 1.22 3.47 1.22.12 0 .46-.01 1.04-.07.17-.02.29-.03.37-.03.41-.02.81-.09 1.19-.21l.09-.01c1.38-.08 2.42-.8 4.34-2.23.13-.1.25-.22.36-.34.62.88 1.36 1.38 2.04 1.67.97.62 2.13 1.21 3.48 1.21.12 0 .46-.02 1.04-.08.16-.02.29-.03.37-.04.41-.02.81-.09 1.19-.21l.09-.02c1.38-.08 2.42-.81 4.33-2.24.23-.16.43-.35.61-.55.1-.09.19-.2.27-.31.4.45.85.83 1.26 1.15 1.03.8 2.18 1.55 3.63 1.57.25.05.51.07.78.07.46 0 .85-.07 1.24-.19.13-.01.26-.03.38-.05l.1-.02c.17.02.35.03.53.03.76 0 1.51-.19 2.31-.61 1.33-.5 2.32-1.67 2.55-3.1.52-3.15.75-4.33.85-4.77.04-.11.17-.58.71-2.16.39-1.17.61-2.16.68-3.06.1-.27.46-1.2.48-1.25.23-.68.41-1.29.54-1.87 1.19-2.66 2.05-4.74 2.65-6.36l.05-.14c.62-.9 1.05-1.82 1.05-2.94 0-1.12-.44-2.04-.77-2.63-.89-1.61-2.38-2.53-4.07-2.53zm127.802 18.448c0-6.236-3.818-6.72-4.99-6.72-.986 0-1.784.184-2.426.46-.85-1.087-2.135-1.73-3.543-1.73-1.17 0-2.69.415-3.97 2.125-.7-.5-1.51-.924-2.49-1.28-.44-.165-.91-.246-1.37-.246-.63 0-1.27.152-1.84.452-.14.07-.27.15-.4.24-.08.01-.17.03-.25.04-2.13.03-3.86 1.08-5.15 2.29-.26-.5-.62-.96-1.08-1.32-.76-.59-1.66-1.07-2.77-1.48-.44-.17-.91-.25-1.37-.25-.63 0-1.27.15-1.85.45-.14.07-.28.15-.41.24-.08.01-.17.03-.25.05-2.04.03-3.7 1-4.98 2.14-1.22-1.99-3.17-2.22-3.95-2.22-.98 0-1.78.18-2.42.46-.85-1.09-2.13-1.74-3.54-1.74-1.04 0-2.37.33-3.55 1.61-.09-.01-.17-.03-.26-.03h-.42c-.66 0-1.29.16-1.85.45-.78-.63-1.79-.99-2.91-.99-.67 0-1.28.14-1.85.37-1.22-1.49-2.64-2.25-4.22-2.25h-.2c-.31-.07-.64-.11-1-.11-2.56 0-4.83 1.43-6.76 4.23.69-1.73 1.03-2.58 1.19-2.96 1.26-2.93 2.6-5.54 3.99-7.75.66-1.06.77-2.32.39-3.44-.03-.1-.11-.48-.13-.53-.52-1.98-1.95-3.35-3.8-3.66-.22-.04-.44-.06-.67-.06-.53 0-1.05.11-1.55.31-1.09.46-2.15 1.3-3.45 3.29-.3-.77-.76-1.47-1.25-2.12-.44-.6-1.04-1.06-1.73-1.33-.94-.38-1.87-.57-2.75-.57-3.78 0-5.83 3.74-6.5 4.96-.88 1.59-1.71 3.57-2.55 6.06l-.04.12c-.3.98-.59 1.94-.89 2.89l-.72 1.99c.23-2.38.43-4.16.6-5.29.03-.19.05-.39.05-.59 0-2.35-1.06-4.27-2.92-5.25-.69-.37-1.49-.59-3.36-.91-.23-.04-.46-.06-.68-.06-1.38 0-2.68.71-3.41 1.92l-4.48 7.38c-.03.04-.06.09-.08.14l-4.56 8.23c-.03.05-.05.1-.08.16-.2.28-.39.6-.56.94-.16.31-.28.55-.36.7-.2.29-.36.6-.47.93-.11.2-.2.41-.28.63-.07.12-.12.23-.16.31-.12.23-.3.6-.43 1.07-.32.63-.58 1.17-.78 1.64-.07.17-.13.35-.18.52-.16.58-.21 1.23-.2 2.31l-.01.18c-.14.41-.21.85-.21 1.29 0 1.7 1.02 2.72 1.46 3.15.76.75 1.78 1.17 2.83 1.17.22 0 .45-.02.67-.06.65-.11 1.25-.38 1.76-.77.24-.15.5-.34.76-.6.41-.41.71-.89.91-1.4.08-.12.15-.24.22-.37.35-.16 1.77-.83 2.05-.96-.01.16-.01.32-.01.49 0 .18.01.35.03.53-.02.19-.03.35-.03.46 0 .25.03.51.08.76-.05.48-.02.94.07 1.39.05 2.16 1.83 3.9 4 3.9 1.68 0 2.67-.99 3.1-1.41.19-.19.36-.4.5-.62.47-.37.84-.83 1.1-1.35 0-.01 0-.01.01-.01.03.12.05.25.1.37.01.11.03.22.05.32l.04.2c-.02.99.34 1.97 1 2.72.76.86 1.85 1.35 3 1.35h.39c.87 0 1.71-.29 2.4-.81l.12-.09c1.2-.72 1.9-1.99 1.94-3.31.06-.18.09-.35.12-.53.07.12.14.24.22.35.7 1.17 1.97 1.94 3.43 1.94h.5c1.66 0 3.09-1.01 3.69-2.46.31-.55.49-1.17.51-1.81.23-.35.4-.73.5-1.13l.68-2.55c.13-.28.26-.58.38-.9.03-.08.06-.15.08-.23l.28-.91c.25-.02.5-.06.75-.13.06.62.25 1.53.78 3.55.12.45.32.87.57 1.24.12.2.26.4.41.59 1.15 1.37 2.5 2.81 4.25 3.26.51.23 1.06.35 1.61.35.3.07.61.1.92.1.51 0 1.02-.1 1.5-.29.76-.16 1.47-.53 2.03-1.09.23-.23.6-.61.93-1.13.27.09.54.16.81.21.24.04.49.07.74.07.93 0 1.83-.32 2.56-.92.53-.45.94-1.02 1.18-1.66l.27-.3c.66 2.83 2.91 3.66 4.33 3.66h.63c1.4 0 2.42-.57 3.52-1.73.02.04.04.08.07.12.18.68.54 1.31 1.04 1.82l.25.25c.75.75 1.77 1.17 2.83 1.17.52 0 1.05-.09 1.61-.27.93-.25 1.72-.82 2.26-1.59.84.47 1.8.86 2.88.86.12 0 .46-.01 1.04-.07.16-.02.29-.03.37-.04.43-.01.83-.08 1.22-.21h.06c1.38-.08 2.42-.8 4.34-2.24.13-.1.24-.22.36-.34.62.88 1.36 1.39 2.04 1.68.97.62 2.13 1.22 3.47 1.22.11 0 .46-.02 1.04-.07.17-.02.29-.03.37-.04.43-.01.84-.08 1.22-.21l.06-.01c1.3-.07 2.31-.73 4.04-2.02.98 1.28 2.43 1.7 3.45 1.7h.63c1.4 0 2.42-.57 3.52-1.74l.06.12c.17.68.53 1.31 1.04 1.82l.24.25c.75.75 1.77 1.17 2.83 1.17.52 0 1.05-.09 1.61-.27 1.72-.45 2.99-2.01 2.99-3.87v-.96c0-.14-.01-.27-.02-.41.05-.17.09-.28.11-.35.11-.31.18-.64.21-.97.25-.77.37-1.61.37-2.51v-.08c.1-.43.22-1.01.38-1.8.46-2.23.54-3.01.54-3.59zm-82.856-5.692c.187-.552.373-1.103.562-1.655.15.03.303.03.454.04-.225.58-.454 1.18-.688 1.79-.11-.05-.214-.12-.328-.17z" opacity=".15"/><path d="M87.868 80.6c-.922 0-3.22.297-4.67 3.092-.185.366-.367.742-.55 1.128-.703 1.27-1.482 3.07-2.384 5.497l-.746 2.022c-1.162.06-2.578.41-4.008 1.43-.13-.14-.263-.27-.414-.39-.76-.59-1.665-1.08-2.77-1.48-.447-.17-.914-.25-1.38-.25-.633 0-1.266.15-1.84.45-.144.07-.28.15-.413.24-.087.01-.173.03-.258.04-2.132.03-3.856 1.08-5.154 2.29-.26-.5-.62-.96-1.07-1.31-.76-.59-1.66-1.08-2.77-1.48-.44-.17-.91-.25-1.38-.25-.63 0-1.26.15-1.84.45-.14.07-.28.15-.41.24-.08.01-.17.03-.26.04-1.99.03-3.62.95-4.88 2.05v-.03c-.06-.21-.13-.4-.2-.59.73-.66 1.38-1.48 1.96-2.45 1.08-1.8 1.63-3.66 1.63-5.52 0-.58-.1-1.03-.49-2.5-.13-.51-.37-.98-.68-1.39-.68-1-1.57-1.83-2.65-2.47-1.21-.72-2.34-1.07-3.43-1.07-2.13 0-3.84 1.37-5.21 2.68-3.31 3.12-6.11 7.65-8.54 13.85-.09.24-.17.5-.21.76-.03.14-.16.59-.56 1.83-.54 1.63-.8 2.99-.8 4.16 0 .36.04.62.18 1.47l.07.43c0 .69.17 1.34.49 1.92.05.17.1.34.17.51.11.33.27.66.47.95.32.48.72.9 1.46 1.5.5 1 1.39 1.72 2.41 2.03.11.05.21.09.31.13.39.21.81.37 1.27.44.66.12 1.17.19 1.56.24.41.51.95.92 1.58 1.18.5.2 1.02.3 1.53.3 1.04 0 2.07-.4 2.83-1.17.42-.41.78-.89 1.08-1.43.58.72 1.23 1.16 1.84 1.42.97.62 2.13 1.22 3.47 1.22.12 0 .46-.01 1.04-.07.17-.02.29-.03.37-.03.41-.02.81-.09 1.19-.21l.09-.01c1.38-.08 2.42-.8 4.34-2.23.13-.1.25-.22.36-.34.62.88 1.36 1.38 2.04 1.67.97.62 2.13 1.21 3.48 1.21.12 0 .46-.02 1.04-.08.16-.02.29-.03.37-.04.41-.02.81-.09 1.19-.21l.09-.02c1.38-.08 2.42-.81 4.33-2.24.23-.16.43-.35.61-.55.1-.09.19-.2.27-.31.4.45.85.83 1.26 1.15 1.03.8 2.18 1.55 3.63 1.57.25.05.51.07.78.07.46 0 .85-.07 1.24-.19.13-.01.26-.03.38-.05l.1-.02c.17.02.35.03.53.03.76 0 1.51-.19 2.31-.61 1.33-.5 2.32-1.67 2.55-3.1.52-3.15.75-4.33.85-4.77.04-.11.17-.58.71-2.16.39-1.17.61-2.16.68-3.06.1-.27.46-1.2.48-1.25.23-.68.41-1.29.54-1.87 1.19-2.66 2.05-4.74 2.65-6.36l.05-.14c.62-.9 1.05-1.82 1.05-2.94 0-1.12-.44-2.04-.77-2.63-.89-1.61-2.38-2.53-4.07-2.53zM215.67 99.048c0-6.236-3.818-6.72-4.99-6.72-.986 0-1.784.184-2.426.46-.85-1.087-2.135-1.73-3.543-1.73-1.17 0-2.69.415-3.97 2.125-.7-.5-1.51-.924-2.49-1.28-.44-.165-.91-.246-1.37-.246-.63 0-1.27.152-1.84.452-.14.07-.27.15-.4.24-.08.01-.17.03-.25.04-2.13.03-3.86 1.08-5.15 2.29-.26-.5-.62-.96-1.08-1.32-.76-.59-1.66-1.07-2.77-1.48-.44-.17-.91-.25-1.37-.25-.63 0-1.27.15-1.85.45-.14.07-.28.15-.41.24-.08.01-.17.03-.25.05-2.04.03-3.7 1-4.98 2.14-1.22-1.99-3.17-2.22-3.95-2.22-.98 0-1.78.18-2.42.46-.85-1.09-2.13-1.74-3.54-1.74-1.04 0-2.37.33-3.55 1.61-.09-.01-.17-.03-.26-.03h-.42c-.66 0-1.29.16-1.85.45-.78-.63-1.79-.99-2.91-.99-.67 0-1.28.14-1.85.37-1.22-1.49-2.64-2.25-4.22-2.25h-.2c-.31-.07-.64-.11-1-.11-2.56 0-4.83 1.43-6.76 4.23.69-1.73 1.03-2.58 1.19-2.96 1.26-2.93 2.6-5.54 3.99-7.75.66-1.06.77-2.32.39-3.44-.03-.1-.11-.48-.13-.53-.52-1.98-1.95-3.35-3.8-3.66-.22-.04-.44-.06-.67-.06-.53 0-1.05.11-1.55.31-1.09.46-2.15 1.3-3.45 3.29-.3-.77-.76-1.47-1.25-2.12-.44-.6-1.04-1.06-1.73-1.33-.94-.38-1.87-.57-2.75-.57-3.78 0-5.83 3.74-6.5 4.96-.88 1.59-1.71 3.57-2.55 6.06l-.04.12c-.3.98-.59 1.94-.89 2.89l-.72 1.99c.23-2.38.43-4.16.6-5.29.03-.19.04-.39.04-.59 0-2.35-1.06-4.27-2.92-5.25-.69-.37-1.49-.59-3.36-.91-.23-.04-.46-.06-.68-.06-1.38 0-2.69.71-3.42 1.92l-4.49 7.38-.08.14-4.56 8.23c-.03.05-.06.1-.08.16-.2.28-.39.6-.56.94-.16.31-.28.55-.36.7-.2.29-.36.6-.47.93-.1.2-.19.41-.27.63-.06.12-.12.23-.15.31-.11.23-.29.6-.43 1.07-.32.63-.57 1.17-.78 1.64-.07.17-.13.35-.18.52-.15.58-.21 1.23-.2 2.31v.18c-.14.41-.21.85-.21 1.29 0 1.7 1.02 2.72 1.46 3.15.76.75 1.78 1.17 2.83 1.17.23 0 .45-.02.67-.06.65-.11 1.25-.38 1.76-.77.24-.15.5-.34.76-.6.41-.41.71-.89.91-1.4.08-.12.15-.24.22-.37.35-.16 1.77-.83 2.06-.96-.01.16-.01.32-.01.49 0 .18.01.35.03.53-.03.19-.03.35-.03.46 0 .25.02.51.07.76-.05.48-.02.94.07 1.39.05 2.16 1.83 3.9 4 3.9 1.68 0 2.67-.99 3.1-1.41.19-.19.36-.4.5-.62.47-.37.84-.83 1.1-1.35 0-.01.01-.01.01-.01.04.12.06.25.11.37.01.11.03.22.05.32l.03.2c-.02.99.34 1.97 1 2.72.76.86 1.85 1.35 3 1.35h.39c.87 0 1.71-.29 2.41-.81l.11-.09c1.2-.72 1.9-1.99 1.94-3.31.05-.18.08-.35.11-.53.07.12.14.24.22.35.7 1.17 1.98 1.94 3.43 1.94h.5c1.67 0 3.09-1.01 3.7-2.46.31-.55.49-1.17.52-1.81.23-.35.4-.73.5-1.13l.68-2.55c.14-.28.26-.58.38-.9.03-.08.06-.15.08-.23l.28-.91c.26-.02.51-.06.75-.13.06.62.24 1.53.78 3.55.12.45.31.87.57 1.24.12.2.26.4.41.59 1.15 1.37 2.5 2.81 4.25 3.26.51.23 1.06.35 1.61.35.3.07.61.1.92.1.51 0 1.02-.1 1.5-.29.76-.16 1.47-.53 2.03-1.09.22-.23.6-.61.92-1.13.27.09.54.16.81.21.24.04.49.07.74.07.92 0 1.83-.32 2.55-.92.54-.45.94-1.02 1.18-1.66l.27-.3c.66 2.83 2.91 3.66 4.33 3.66h.63c1.4 0 2.42-.57 3.52-1.73.02.04.04.08.07.12.18.68.54 1.31 1.04 1.82l.25.25c.75.75 1.77 1.17 2.83 1.17.52 0 1.05-.09 1.61-.27.94-.25 1.73-.82 2.27-1.59.84.47 1.79.86 2.88.86.11 0 .46-.01 1.04-.07.16-.02.28-.03.37-.04.42-.01.83-.08 1.22-.21h.06c1.38-.08 2.41-.8 4.33-2.24.13-.1.24-.22.36-.34.62.88 1.36 1.39 2.04 1.68.97.62 2.13 1.22 3.48 1.22.12 0 .46-.02 1.04-.07.16-.02.28-.03.37-.04.42-.01.83-.08 1.22-.21l.06-.01c1.3-.07 2.31-.73 4.04-2.02.98 1.28 2.43 1.7 3.45 1.7h.63c1.4 0 2.42-.57 3.52-1.74l.06.12c.18.68.53 1.31 1.04 1.82l.24.25c.75.75 1.77 1.17 2.83 1.17.53 0 1.05-.09 1.61-.27 1.72-.45 2.99-2.01 2.99-3.87v-.96c0-.14 0-.27-.02-.41.05-.17.09-.28.11-.35.11-.31.18-.64.21-.97.25-.77.37-1.61.37-2.51v-.08c.1-.43.22-1.01.38-1.8.45-2.23.54-3.01.54-3.59zM133.376 91.7c.15.023.303.03.454.035-.225.577-.454 1.175-.688 1.79-.108-.057-.214-.12-.327-.17l.56-1.654z" fill="#FFF"/><path fill="#0071BC" d="M50.038 85.872c0 1.13-.354 2.285-1.06 3.462-.754 1.27-1.625 2.06-2.614 2.367h-.353c0-.07-.04-.17-.12-.3-.08-.12-.12-.24-.12-.33 0-.07.1-.22.28-.46.12-.16.23-.31.32-.46.29-.37.66-.94 1.13-1.69.47-.87.71-1.82.71-2.86 0-.87-.18-1.3-.56-1.3-.47 0-.77.01-.92.04.07.07.22.11.43.11-1.1.57-2.61 2.15-4.52 4.74-.09 0-.16-.02-.19-.05-.03-.03-.06-.05-.08-.05-.23.76-.7 1.82-1.41 3.18-.77 1.53-1.23 2.45-1.36 2.74-.13.3-.56 1.04-1.29 2.25-.16 1.11-.5 2.61-1.02 4.52.1.05.18.33.25.85.1.7.18 1.22.27 1.53s.43.69 1.03 1.11c.6.43 1.09.64 1.47.64.57 0 1.18-.24 1.84-.74.57-.42.9-.76.99-1.02.14-.78.31-1.94.5-3.5.05 0 .14-.03.28-.1-.07-.05-.14-.07-.21-.07.31-1.18.6-2.34.88-3.5.52-1.91.86-2.86 1.03-2.86.54 0 .96.51 1.27 1.52 0 .1-.28 1.15-.85 3.15 0 .07.13.37.39.88.26.52.34.9.25 1.13-.1.1-.11.4-.04.9s-.06.85-.39 1.01c0 .1.07.14.21.14-.14.36-.46.79-.95 1.31.14.14.21.27.21.39h-.35c-.26.57-.55 1.03-.88 1.38-.14.17-.2.49-.18.96-.09 0-.16-.04-.21-.11-.12.15-.19.35-.21.62-.02.27-.11.46-.25.55-.26-.16-.44-.21-.56-.14.07.09.21.22.43.39-.14.28-.31.52-.5.71 0-.07.01-.18.04-.33.02-.15.04-.26.04-.33 0-.9-.21-1.35-.63-1.35-.26 0-.54.05-.85.14.19.1.36.13.53.11-.47.26-.79.39-.95.39-.33 0-1.05-.1-2.16-.29.33.02.59-.01.78-.11-.14-.09-.58-.14-1.31-.14-.04 0-.11-.07-.19-.21-.08-.14-.17-.21-.27-.21-.07 0-.1.07-.1.22-.21-.49-.51-.88-.88-1.17-.45-.35-.72-.6-.82-.74 0-.14-.03-.23-.11-.28-.02-.02.03-.06.14-.11-.18-.16-.28-.29-.28-.38 0-.08.03-.16.07-.25-.14-.14-.23-.19-.28-.14 0-.24-.04-.6-.12-1.1s-.12-.77-.12-.81c0-.73.2-1.7.6-2.9.45-1.39.69-2.19.71-2.4 2.19-5.58 4.71-9.72 7.56-12.4 1.11-1.06 1.93-1.59 2.47-1.59.36 0 .82.17 1.4.51.58.34 1.04.77 1.4 1.29-.12-.12-.25-.1-.39.07.02.05.18.07.49.07.24.89.36 1.39.36 1.48zM38.876 95.87l-.283-.143-.07.142.282.14.07-.14zm1.236-2.19v-.18h-.282v.177h.282zm.424 13.492v-.177l-.6-.106v.17l.6.1zm.848-.353c-.235.11-.436.15-.6.1 0 .04.13.19.388.42 0-.07.036-.16.106-.27.07-.11.106-.2.106-.27zm5.263-11.04l-.07-.16-.248.12v.2l.31-.16zm13.74 3.41c0 .16-.047.43-.14.81 0 .04.01.32.034.81.03.33-.08.55-.31.67.07.05.14.07.21.07l-.39 1.02c0 .09.03.16.07.21-.09-.1-.23-.05-.42.14.07.07.14.1.21.1 0 .14-.06.27-.17.39 0-.14-.04-.21-.14-.21 0 .51-.26 1.09-.78 1.73-.94 1.15-1.47 1.81-1.59 1.98-.02 0-.07-.04-.14-.11s-.13-.11-.17-.11c-.07.09-.02.22.14.39-1.29.96-2.02 1.44-2.19 1.44-.07 0-.22.02-.46.05-.23.03-.4.05-.49.05-.09 0-.13.02-.1.05s0 .05-.09.05-.3.02-.65.05c-.35.03-.56.05-.63.05-.28 0-.77-.23-1.45-.67 0-.12-.08-.18-.25-.18-.37 0-.68-.39-.91-1.16-.14-.52-.28-1.05-.42-1.59.31 0 .45.01.43.03-.29-.21-.43-.43-.43-.64 0-.97.68-2.5 2.05-4.59 1.58-2.45 3.08-3.67 4.49-3.67.07 0 .18.06.32.17.12-.19.32-.28.6-.28.31 0 .52.11.64.32.12.22.22.44.32.65-.03 0-.16.08-.39.24-.24.16-.41.24-.53.24-.43 0-1.06.42-1.91 1.27-.42.47-.86.93-1.31 1.39-.44.46-.98 1.33-1.62 2.62-.63 1.29-.95 2.27-.95 2.92 0 .21.17.49.51.83.34.34.62.51.83.51.1 0 .29-.03.58-.1s.49-.11.58-.11c.36 0 .79-.19 1.31-.57.76-.52 1.14-.79 1.17-.81.03-.28.21-.54.57-.76.36-.22.53-.44.53-.65.1-.07.21-.04.36.1 0-.17.03-.35.11-.57.47-.45.82-1.06 1.03-1.84.19-.68.43-1.1.74-1.27 0-.02.01-.06.03-.1.02-.03.02-.04 0-.04h-.14c-.09 0-.16-.5-.21-1.48-.05-.94-.05-1.5 0-1.66-.12-.12-.21-.15-.28-.07 0-.03-.03-.15-.1-.36s-.08-.39-.04-.53c-.05-.05-.19-.07-.42-.07-.03-.15.01-.39.1-.75.71.26 1.27.55 1.7.88 0 .31-.07.5-.21.57.28.28.39.49.31.63.05.05.16.07.32.07 0 .14.04.38.11.72.07.34.11.56.11.65zm-9.325 8.64l-.124-.06-.124.22.124.05.124-.23zm.494.33h-.39v-.11h.39v.1zm3.71-.11v-.18h-.602v.17h.6zm4.06-11.48v-.21h-.494v.21h.495zm.354 5.26l-.078-.14-.275.14v.14l.353-.15zm13.6-2.65c0 .16-.048.43-.142.81 0 .05.012.32.035.81.023.33-.083.55-.318.67.07.05.14.07.212.07l-.39 1.02c0 .09.024.16.072.21-.1-.09-.24-.05-.43.14.07.07.14.11.21.11 0 .14-.06.27-.18.39 0-.14-.05-.21-.14-.21 0 .51-.26 1.09-.78 1.73-.94 1.15-1.47 1.81-1.59 1.98-.02 0-.07-.04-.14-.11s-.13-.11-.18-.11c-.07.09-.03.22.14.39-1.3.96-2.03 1.44-2.19 1.44-.07 0-.23.02-.46.05-.24.04-.4.05-.5.05-.1 0-.13.02-.11.05.02.04-.01.05-.09.05s-.3.01-.65.05c-.36.03-.57.05-.64.05-.29 0-.77-.22-1.45-.67 0-.12-.08-.18-.25-.18-.38 0-.69-.39-.92-1.16-.15-.52-.29-1.05-.43-1.59.3 0 .45.01.42.03-.28-.21-.43-.42-.43-.63 0-.97.69-2.5 2.05-4.59 1.58-2.45 3.07-3.67 4.49-3.67.07 0 .17.06.32.18.11-.19.31-.29.6-.29.3 0 .51.11.63.32.12.21.22.43.32.65-.03 0-.16.08-.39.23-.24.16-.41.24-.53.24-.43 0-1.06.42-1.91 1.26-.42.47-.86.94-1.31 1.39-.45.46-.99 1.34-1.63 2.63-.64 1.3-.96 2.27-.96 2.93 0 .21.17.49.51.83.34.34.62.51.83.51.1 0 .29-.04.58-.11s.49-.11.58-.11c.35 0 .79-.19 1.3-.57.75-.51 1.14-.79 1.17-.81.02-.28.21-.53.57-.76.35-.22.53-.44.53-.65.09-.07.21-.03.35.11 0-.17.04-.36.11-.57.47-.45.81-1.06 1.02-1.84.19-.68.43-1.11.74-1.27 0-.02.01-.06.03-.11.02-.03.02-.04 0-.04h-.14c-.1 0-.17-.5-.21-1.49-.05-.94-.05-1.5 0-1.66-.12-.12-.22-.15-.29-.07 0-.03-.03-.15-.11-.36s-.08-.39-.03-.53c-.05-.05-.19-.07-.43-.07-.03-.14.01-.39.1-.74.71.26 1.27.55 1.69.88 0 .31-.07.5-.21.57.28.28.38.49.31.63.05.05.15.07.32.07 0 .14.04.38.11.72.07.34.11.56.11.65zm-9.326 8.64l-.124-.06-.124.22.124.05.124-.23zm.495.33h-.39v-.11h.39v.1zm3.7-.11v-.18h-.6v.17h.6zm4.06-11.48v-.21h-.5v.21h.49zm.35 5.26l-.08-.14-.28.14v.14l.35-.15zM88.7 85.75c0 .19-.32.685-.96 1.485 0 .02.037.092.108.21-.59 1.602-1.497 3.77-2.72 6.5-.095.52-.26 1.12-.495 1.8-.4 1.04-.626 1.65-.67 1.84.02.61-.14 1.446-.497 2.506-.497 1.46-.768 2.31-.816 2.55-.168.73-.466 2.41-.896 5.02-.096.03-.243.09-.443.2-.2.11-.36.16-.47.16-.07 0-.19-.03-.35-.1-.16-.07-.29-.1-.38-.1-.09 0-.14.04-.15.11-.01.07-.06.11-.15.11s-.14-.03-.14-.1-.01-.1-.04-.1c-.19.16-.21.25-.07.25-.14-.05-.31-.03-.49.04-.26.1-.41.14-.46.14-.09 0-.19-.05-.3-.16s-.2-.16-.3-.16-.11.04-.05.13.04.12-.05.12c-.21 0-.63-.24-1.25-.73-.62-.48-.96-.86-1-1.12-.28-.11-.51-.55-.7-1.31-.18-.66-.28-1.21-.28-1.66 0-1.49.51-3 1.52-4.53 1.11-1.65 2.36-2.48 3.75-2.48.09 0 .43.09 1.02.27.59.18.93.27 1.02.27.09 0 .12.03.07.07-.02.05-.02.1 0 .14l1.99-5.35c.85-2.28 1.58-3.97 2.19-5.05.19-.4.38-.79.57-1.16.31-.59.67-.88 1.1-.88.21 0 .4.16.58.48s.26.54.26.68zm-13.28 18.02h-.18l-.105.71h.18l.104-.707zm.28 2.05v-.175h-.28v.176h.28zm.036-4.91l-.143-.034-.14.282.14.034.142-.28zm5.933-2.012c0-.188-.12-.4-.36-.636s-.5-.35-.78-.35c-1.32 0-2.38.94-3.18 2.822-.61 1.413-.92 2.697-.92 3.85 0 .094.08.29.24.583.16.295.26.466.3.513.03.045.32.27.86.67.47.352.8.53.99.53.14.093.21.2.21.32 0-.097.07-.144.21-.144.37 0 .57.01.6.034-.07.072-.11.154-.11.25.07-.048.16-.084.28-.107.09-.21.23-.707.42-1.484.14 0 .23.02.28.07-.1-.05-.21-.12-.36-.21v-.85c0-.26.14-.44.42-.53-.14-.19-.19-.41-.14-.67.04-.29.1-.56.17-.82-.07-.4.05-1.09.35-2.08s.46-1.58.46-1.77zm2.12-5.05l-.04-.14-.25.14v.14l.28-.14zm35.88-8.16c-.24 1.577-.52 4.226-.85 7.946 0 .568-.08 1.34-.23 2.317-.16.98-.23 1.68-.23 2.11 0 .37.04.72.14 1.02-.28.21-.43.46-.43.74s.08.62.24.99c.07 0 .16.01.28.04h.42c-.83.66-1.31 1.59-1.45 2.79.02.07-.1.18-.36.32.05.05.11.09.2.13s.12.12.12.27c0 .38-.12.76-.35 1.13-.12 0-.13.12-.03.36.09-.07.17-.1.24-.1l-.48 1.75c-.16.55-.21 1.11-.16 1.68-.05.02-.13-.03-.25-.14-.05-.03-.1 0-.18.07.12.35.18.68.18.99 0-.08-.07-.18-.21-.32.02-.03.03.19.03.63-.1-.07-.17-.1-.21-.1-.12.28-.43.71-.92 1.27 0 .02.09-.06.28-.25-.31-.14-.42-.4-.35-.77.11-.49.09-.84-.07-1.02 0-.09.14-.2.42-.32-.29-.16-.43-.39-.43-.67 0-.8.14-1.33.42-1.59l-.21-.18c0-.31.02-.56.07-.76.04-.2.07-.29.07-.27.26.03.46 0 .6-.07-.43-.12-.64-.33-.64-.63 0-.09.07-.37.21-.83.14-.46.21-.73.21-.83 0-.47-.08-.75-.25-.84-.12.03-.34.1-.67.23s-.53.2-.6.2c-.1 0-.14-.02-.13-.05.01-.03-.02-.05-.09-.05-.09 0-.63.18-1.61.53-.98.35-1.52.53-1.61.53-.07 0-.1-.02-.09-.05.01-.03-.03-.05-.12-.05-.57.29-1.29.63-2.17 1.05-.89.41-1.61.75-2.18 1.01-.1 0-.13-.02-.11-.07.02-.07.02-.12 0-.14-.09.21-.26.37-.5.46.12.12.17.23.17.32 0-.11-.06-.17-.18-.17-.14.45-.22.74-.22.88-.1 0-.18-.03-.25-.1-.29.38-.35.68-.18.92-.03.03-.09.06-.18.11-.1.05-.16.09-.18.14-.19-.19-.29-.29-.29-.32.17-.16.25-.33.25-.49-.04-1.22-.03-1.96.04-2.22.21-.49.52-1.13.92-1.91-.02-.09.05-.31.21-.65.17-.34.31-.53.42-.58.09-.07.06-.11-.11-.11.07-.26.23-.45.49-.57-.07-.07-.14-.1-.21-.1.09-.11.3-.5.63-1.16.23-.47.48-.76.74-.88-.07-.05-.13-.07-.18-.07l4.55-8.23 4.49-7.38c1.22.21 1.94.38 2.15.5.54.29.81.86.81 1.73zm-14.73 21.3c-.05-.237-.14-.355-.28-.355.14-.12.23-.178.28-.178v.53zm.28-1.556l-.14-.07-.14.282.14.07.14-.282zm.28.424h-.39v-.177h.39v.17zm2.15-4.416v-.28h-.18v.28h.17zm9.64-14.06v-.6c-.19.26-1.77 2.804-4.73 7.63-.05-.046-.17-.07-.36-.07.04.094.07.19.07.283 0 .33-.22.813-.64 1.448-.64.99-.96 1.5-.96 1.52 0 .19-.11.45-.32.78-.28.43-.45.68-.5.78-.31.61-.86 1.5-1.66 2.65-.12.33-.31.73-.57 1.2.14.1.26.14.35.14.09 0 .78-.21 2.05-.63 1.27-.42 1.95-.63 2.05-.63.09 0 .16.05.21.16.04.11.08.16.1.16 0-.21.02-.35.07-.42h.39l.25.21c.11-.28.27-.42.45-.42.1 0 .16.02.2.05s.1.05.19.05c.07 0 .24-.05.51-.16.27-.1.45-.15.54-.15.14 0 .28.07.42.21.35-.4.6-1.09.74-2.08.21-1.51.33-2.33.35-2.47.47-6.73.72-9.94.74-9.61zm-5.87 7.21v-.213l-.81-.106v.21l.81.11zm5.51 11.09h-.21v-.283h.21v.283zm1.66-11.338l-.07-.177-.25.14v.14l.32-.107zm17.2-13.036c0 .356-.1 1.227-.32 2.616-.22 1.48-.38 2.318-.5 2.507-.26.23-.61.67-1.06 1.3.16-1.25.47-3.11.92-5.58-.28-.29-.39-.52-.32-.71-.02 0-.04-.02-.05-.05-.02-.04-.07-.05-.16-.05-.24 0-.61.39-1.13 1.17-1.11 1.65-2.07 3.56-2.9 5.76-.64 1.83-1.26 3.67-1.87 5.51-.19.7-.53 1.69-1.03 2.96v.39c.12.12.19.18.21.18.09 0 .5-.09 1.22-.27.71-.18 1.12-.27 1.22-.27.07 0 .25.04.54.12.29.08.5.12.62.12-.17.33-.29.49-.36.49-.1 0-.13-.02-.11-.06.02-.04-.01-.05-.11-.05s-.29.12-.57.35c-.35.28-.59.45-.7.49h-.64c-.07.21-.37.39-.89.53s-.85.33-.99.56c-.05.05-.17.39-.36 1.02-.14.5-.31.74-.49.74.02.02.13.04.31.04v.46c0-.07-.09.18-.26.77-.1.66-.35 1.49-.74 2.5.05.05.12.07.21.07v1.45c-.05.09-.1.43-.14 1.02-.05.58-.17.95-.36 1.09 0 .02.04.05.14.07.09.02.14.08.14.18 0 .33-.14.64-.43.95 0 .16.11.25.32.25v.7c-.19.33-.22.68-.11 1.06-.14 0-.27.06-.39.18.12.14.18.26.18.35-.14.02-.13.2.03.53-.12.07-.27.17-.46.32h-.39c.02-.19-.01-.53-.11-1.03.16.14.3.15.42.04-.28-.42-.51-.77-.67-1.06.23-.21.35-.35.35-.42 0-.12-.08-.22-.23-.32-.15-.1-.23-.17-.23-.21 0-.1.12-.24.35-.43-.07-.05-.14-.07-.21-.07.05-.12.04-.33-.03-.62-.07-.3-.11-.46-.11-.48 0-.1.02-.13.07-.11.05.02.07.02.07 0 0-.61.01-1.21.04-1.8.02-.83.15-1.37.39-1.63-.15-.22-.22-.46-.22-.75 0-.1.06-.39.18-.88.09-.26.17-.52.24-.78-.07-.07-.14-.11-.21-.11.28-.71.42-1.32.42-1.84v-.6c-.07-.02-.17-.08-.28-.18-1.32.71-2.1 1.06-2.33 1.06-.1 0-.18.04-.25.12s-.16.13-.25.13h-.78c-.21 0-.38-.1-.49-.31-.19-.26-.33-.42-.43-.5.33-.5 1.05-.94 2.16-1.34.91-.28 1.84-.58 2.79-.88.26-.07.43-.27.53-.6.07-.26.13-.53.17-.81.16-.5.52-1.46 1.06-2.9l.21-.18c-.07-.04-.14-.07-.21-.07l.99-2.72.92-3c.75-2.23 1.5-4.04 2.26-5.4 1.06-1.93 2.06-2.9 3-2.9.38 0 .8.1 1.27.28.54.73.81 1.22.81 1.48zm-10.77 25.08v-.174h-.28v.175h.28zm20.24-24.87c-1.51 2.4-2.93 5.17-4.27 8.3-.43 1.015-1.53 3.816-3.32 8.41-.1.07-.23.176-.39.32 0 .21.03.48.1.81.12.048.28.07.49.07.31 0 .74-.052 1.29-.16.55-.104.84-.157.87-.157.37 0 .71.07 1.02.21l.21-.22c.07.09.18.14.35.14v.38c-.45.09-.76.2-.92.31-.43.26-.67.4-.74.42l-.18-.21c-.07.07-.11.18-.11.32h-.53c-.1 0-.12.03-.07.1.04.07.03.11-.04.11-.09 0-.19-.02-.3-.05-.11-.04-.21-.05-.3-.05-.17 0-.54.15-1.11.44s-.95.5-1.11.62c0 .38-.17.76-.5 1.16l-.49 1.62c-.24.64-.47 1.07-.71 1.31.05.07.11.1.18.1-.15.54-.36 1.34-.64 2.4-.05.04-.18-.03-.39-.21-.03 0-.06.03-.09.1s-.08.1-.13.1c-.14-.19-.26-.26-.36-.21.02.02.08.11.18.26.09.14.18.26.25.34-.12 0-.24-.06-.36-.18.02 0 .03.24.03.74-.19-.1-.47-.14-.85-.14.37-.4.47-.77.28-1.1 0-.9.19-1.91.56-3.04.51-1.58.81-2.51.88-2.79 0 .05-.17.07-.5.07-.1 0-.13-.02-.11-.07.02-.07.02-.12 0-.14-.1.17-.46.46-1.08.87-.62.41-1.01.61-1.15.61h-.6c-.22 0-.41-.09-.59-.27s-.27-.36-.27-.55c0-.52.77-1.1 2.33-1.73.85-.33 1.71-.66 2.58-.99.25-.21.54-.8.84-1.77.07-.22.44-1.16 1.1-2.83 1.3-3.42 2.4-6.16 3.32-8.23 1.96-4.36 3.44-6.75 4.45-7.17.29.04.48.29.6.74.12.52.19.79.22.81zm-11.83 28.745c-.15.14-.22.28-.22.44h-.49c0-.21-.07-.31-.21-.31 0-.16.2-.39.6-.67-.17-.02-.41-.05-.74-.07.09-.21.29-.32.6-.32.09 0 .11.04.05.11s-.04.11.05.11h.17c.07.07.02.25-.14.53.04.02.1.06.17.1.07.04.11.08.14.1zm2.12-10.83v-.24h-.29v.25h.28zm17.55-3.18c0 .05-.03.23-.11.53-.05.24-.05.4 0 .5-.47.64-1.43 1.81-2.86 3.5-1.89 2.17-3.01 3.25-3.36 3.25h-.75c-.12.12-.18.35-.18.71 0 1.41.84 2.71 2.51 3.89.05-.07.07-.14.07-.21.07.05.41.12 1.02.21.16.17.24.29.24.36s-.13.24-.39.5c-.07-.09-.19-.14-.35-.14 0-.16.03-.28.1-.35-.12-.09-.24-.14-.35-.14l-.18.14c.14.16.23.32.28.46-.15 0-.22.08-.22.25-.17-.07-.37-.18-.6-.32l-.28.22c-.14-.14-.32-.21-.53-.21-.42 0-1.19-.66-2.29-1.98.11-.05.26-.12.42-.21v-.07h-.6c-.45-1.7-.67-2.7-.67-3 0-1.74.62-3.78 1.87-6.11 1.39-2.57 2.82-3.85 4.31-3.85.11 0 .31.05.6.16.28.11.44.16.49.16.09 0 .12-.03.07-.1-.05-.07-.04-.1.04-.1.37 0 .81.33 1.3.99.24.33.36.67.36 1.03zm-1.48.11c0-.07-.04-.16-.11-.28-.05-.09-.05-.16 0-.21-.07 0-.18-.02-.34-.07-.16-.05-.28-.07-.37-.07-.76 0-1.69.94-2.79 2.83-.99 1.72-1.5 2.95-1.52 3.68.89-.87 1.79-1.73 2.68-2.58 1.63-1.64 2.44-2.74 2.44-3.28zm-1.31 4.21v-.18h-.28v.18h.28zm2.58-4.55v-.28h-.32v.29h.32zm9.92 1.2c0 .07-.57.68-1.7 1.81-.48.52-1.24 1.38-2.3 2.58-1.13 1.2-1.7 2.03-1.7 2.47 0-.02-.04-.09-.11-.21-.07.38-.44.96-1.09 1.73-.45.52-.9 1.03-1.34 1.52.02.05.03.17.03.36-.38-.07-.87-.28-1.48-.63 0-.14.1-.33.32-.56-.05-.05-.22-.07-.5-.07 0-.05-.03-.17-.07-.37-.05-.2-.07-.35-.07-.44 0-1.08.56-2.86 1.69-5.33 1.2-2.61 2.2-3.92 3-3.92.42 0 .63.23.63.67 0 .19-.2.53-.6 1.03-.4.5-.63.84-.67 1.03-.29.99-.64 1.95-1.06 2.89-.36.8-.72 1.6-1.1 2.4v.28c.19-.02.38-.16.56-.42.94-1.22 1.87-2.43 2.79-3.63 1.2-1.53 2.23-2.49 3.08-2.89.02 0 .07-.06.14-.19s.16-.19.25-.19.13.02.11.05c-.03.03.01.05.1.05.12 0 .12-.06 0-.18.12 0 .24.06.39.18.16-.24.21-.42.14-.53h.42c0 .02.01.1.05.23s.05.24.05.33zm-2.26 2.23v-.18h-.29v.18h.28zm2.08-2.3l-.11-.1-.32.25.1.15.32-.29zm10.84 1.91c0 .35-.16 1.29-.46 2.79-.28 1.41-.46 2.19-.53 2.33.05.07.07.19.07.36 0 .85-.19 1.54-.57 2.09.07.05.14.07.21.07-.14.41-.28.92-.42 1.56-.19 0-.34-.01-.46-.03-.12-.02-.17-.03-.14-.03l-.28.22c-.12-.09-.21-.14-.28-.14 0-.09-.01-.32-.05-.67-.04-.35-.05-.59-.05-.7 0-.99.14-1.71.42-2.15-.07-.05-.14-.07-.21-.07v-.57c0-.17.08-.55.25-1.13.16-.59.27-1.19.32-1.8.09 0 .18.03.25.1l.25-.28c-.1.02-.27.03-.53.03.04-.14.07-.38.1-.71.03-.33.05-.57.07-.71l-.07-.92c-.38.4-.94.93-1.69 1.59-1.08 1.55-2.17 3.1-3.27 4.65-1.6 2.23-2.54 3.35-2.82 3.35h-.6c-.36 0-.53-.47-.53-1.4 0-.44.09-1.01.28-1.69.26-.89.4-1.41.42-1.55.23-1.24.41-2.12.53-2.64.28-.99.63-1.87 1.06-2.64-.05-.28.11-.87.49-1.76.42-.98.86-1.48 1.3-1.48.21 0 .37.12.47.34.1.23.22.46.33.69l-2.9 9.33c.26-.04.54-.31.85-.81.21-.37.43-.74.67-1.09l4.34-5.97c.4-.21.76-.51 1.09-.88.16-.22.53-.32 1.09-.32.65 0 .98.9.98 2.72zm-9.22 6.89l-.42.11v-.14l.35-.14.07.18zm7.63 3.79c-.02 0-.1.02-.23.07s-.26.07-.37.07l-.25-.25c0-.02.05-.06.16-.11.1-.04.16-.13.16-.24 0-.19-.13-.41-.39-.67h-.35l.57-.11c.26-.05.45-.08.56-.1.09.07.14.2.14.39-.28-.07-.46-.07-.53 0 .19.18.36.24.53.17v.79zm.63-6.04c-.12-.28-.17-.49-.17-.64-.1 0-.15.14-.15.43.08 0 .18.07.32.21zm13.74-4.48c0 .17-.05.44-.14.82 0 .05.01.32.03.81.02.33-.09.55-.32.67.07.05.14.07.21.07l-.39 1.03c0 .1.02.17.07.22-.1-.09-.24-.05-.43.14.07.07.14.11.21.11 0 .14-.06.27-.18.39 0-.14-.05-.21-.15-.21 0 .52-.26 1.1-.78 1.73-.94 1.16-1.47 1.82-1.59 1.98-.02 0-.07-.04-.14-.11s-.13-.11-.18-.11c-.07.1-.03.23.14.39-1.3.97-2.03 1.45-2.19 1.45-.07 0-.23.02-.46.06-.24.03-.4.05-.5.05-.09 0-.13.02-.1.05.02.04-.01.06-.09.06s-.3.02-.65.06c-.36.04-.57.05-.64.05-.28 0-.77-.23-1.45-.67 0-.12-.08-.18-.25-.18-.38 0-.68-.39-.92-1.17-.14-.51-.28-1.04-.42-1.59.31 0 .45.02.43.04-.29-.21-.43-.42-.43-.63 0-.96.68-2.49 2.05-4.59 1.58-2.45 3.07-3.67 4.48-3.67.07 0 .18.06.32.18.11-.19.31-.29.6-.29.3 0 .52.11.63.33s.22.44.31.65c-.03 0-.16.08-.39.24s-.41.23-.53.23c-.43 0-1.06.42-1.91 1.27-.43.47-.86.93-1.31 1.39s-.99 1.33-1.63 2.62c-.63 1.3-.95 2.27-.95 2.93 0 .21.17.49.51.83.34.34.62.51.83.51.09 0 .29-.03.58-.11.3-.07.49-.1.59-.1.35 0 .79-.19 1.3-.56.75-.52 1.14-.79 1.16-.81.02-.28.21-.53.56-.76.35-.22.53-.44.53-.65.09-.07.21-.03.35.11 0-.16.04-.35.11-.56.47-.45.82-1.06 1.03-1.84.19-.68.43-1.1.74-1.27 0-.02.01-.06.04-.1.02-.03.02-.04 0-.04h-.14c-.1 0-.17-.5-.22-1.49-.05-.94-.05-1.49 0-1.66-.12-.11-.21-.14-.28-.07 0-.02-.04-.14-.11-.35s-.09-.39-.04-.53c-.04-.04-.18-.07-.42-.07-.02-.14.02-.39.11-.74.71.26 1.27.55 1.7.88 0 .31-.07.5-.21.57.28.28.39.49.32.64.05.04.16.07.32.07 0 .14.04.38.11.72s.11.56.11.65zm-9.32 8.64l-.12-.05-.13.23.12.05.12-.23zm.5.33h-.39v-.1h.39v.11zm3.71-.1v-.18h-.61v.18h.6zm4.06-11.48v-.21h-.5v.21h.49zm.35 5.26l-.08-.14-.27.14v.14l.35-.14zm13.6-2.65c0 .17-.05.44-.14.82 0 .05.01.32.03.82.02.33-.08.55-.32.67.07.05.14.07.21.07l-.39 1.03c0 .1.02.17.07.22-.1-.09-.24-.05-.43.14.07.07.14.11.21.11 0 .14-.06.27-.18.39 0-.15-.05-.22-.14-.22 0 .52-.26 1.1-.78 1.73-.94 1.16-1.48 1.82-1.59 1.98-.03 0-.07-.03-.14-.1s-.13-.11-.18-.11c-.07.09-.02.22.14.39-1.29.96-2.02 1.44-2.19 1.44-.07 0-.22.02-.46.06-.23.03-.4.05-.49.05-.1 0-.13.02-.11.05.02.03-.01.05-.09.05s-.3.02-.65.05c-.35.04-.57.06-.64.06-.28 0-.76-.23-1.44-.67 0-.12-.09-.18-.25-.18-.38 0-.69-.39-.92-1.17-.14-.51-.28-1.04-.42-1.59.3 0 .44.02.42.04-.28-.21-.43-.42-.43-.63 0-.96.68-2.49 2.05-4.59 1.57-2.45 3.07-3.67 4.48-3.67.07 0 .18.06.32.18.12-.19.32-.28.6-.28.31 0 .52.11.64.33s.22.44.32.65c-.03 0-.16.08-.39.24s-.41.24-.53.24c-.43 0-1.06.43-1.91 1.27-.42.47-.86.93-1.31 1.39s-.99 1.33-1.63 2.62-.95 2.27-.95 2.92c0 .21.17.49.52.83.34.34.62.51.83.51.09 0 .29-.03.58-.1.3-.07.49-.1.58-.1.35 0 .78-.19 1.3-.56.76-.52 1.15-.79 1.17-.81.02-.28.21-.53.57-.76.35-.22.53-.44.53-.65.09-.07.21-.03.35.11 0-.16.03-.35.1-.56.47-.45.81-1.06 1.02-1.84.18-.68.43-1.1.74-1.27 0-.02.01-.06.03-.1.02-.03.02-.04 0-.04h-.15c-.1 0-.17-.5-.21-1.49-.05-.94-.05-1.49 0-1.66-.12-.12-.21-.14-.28-.07 0-.02-.04-.14-.11-.35s-.08-.39-.03-.53c-.05-.05-.19-.07-.42-.07-.02-.14.01-.39.11-.74.71.25 1.27.55 1.69.88 0 .3-.07.49-.22.56.28.29.39.5.32.64.04.05.15.07.32.07 0 .15.03.39.1.73s.11.56.11.65zm-9.33 8.64l-.12-.05-.13.23.12.05.12-.22zm.5.33h-.39v-.1h.39v.11zm3.71-.1v-.18h-.6v.17h.6zm4.06-11.48v-.21h-.5v.21h.49zm.35 5.26l-.08-.14-.28.14v.14l.35-.14zm13.18-2.79c0 .35-.16 1.28-.46 2.79-.29 1.41-.46 2.19-.53 2.33.04.07.07.19.07.36 0 .85-.19 1.55-.57 2.09.07.05.14.07.21.07-.14.41-.29.92-.43 1.56-.19 0-.34-.01-.46-.03s-.17-.03-.14-.03l-.29.22c-.11-.09-.21-.14-.28-.14 0-.09-.02-.32-.05-.67-.03-.35-.05-.59-.05-.71 0-.99.14-1.71.42-2.16-.07-.04-.14-.07-.21-.07v-.56c0-.16.08-.54.25-1.13.16-.59.27-1.19.32-1.8.09 0 .17.04.24.11l.25-.28c-.1.03-.27.04-.53.04.04-.14.07-.37.1-.7.03-.33.05-.56.07-.7l-.07-.91c-.37.4-.94.93-1.69 1.58-1.08 1.55-2.17 3.1-3.27 4.65-1.59 2.23-2.53 3.34-2.81 3.34h-.63c-.35 0-.53-.47-.53-1.4 0-.44.09-1.01.28-1.69.26-.89.4-1.41.43-1.55.23-1.24.41-2.12.53-2.64.28-.98.63-1.86 1.06-2.64-.05-.28.11-.87.49-1.76.42-.99.86-1.48 1.31-1.48.21 0 .37.11.47.34.1.22.22.45.33.69l-2.9 9.32c.26-.05.54-.32.85-.81.21-.37.43-.74.67-1.09l4.34-5.97c.4-.21.76-.5 1.09-.88.16-.21.53-.32 1.09-.32.66 0 .99.91.99 2.72zm-9.22 6.89l-.43.11v-.14l.35-.14.07.18zm7.63 3.78c-.03 0-.1.02-.23.07s-.26.07-.37.07l-.25-.25c0-.02.05-.06.16-.1.1-.05.16-.13.16-.25 0-.19-.13-.41-.39-.67h-.36l.56-.11c.26-.05.45-.09.57-.11.09.07.14.2.14.39-.29-.07-.46-.07-.53 0 .18.18.36.24.53.17v.79zm.63-6.05c-.12-.28-.17-.49-.17-.63-.1 0-.14.14-.14.42.08 0 .18.07.32.21z"/></svg>