<svg xmlns="http://www.w3.org/2000/svg" width="250" height="250" viewBox="0 0 250 250"><path opacity=".15" d="M217.752 137.21c0-20.27-6.45-39.436-18.675-55.536V71.92h-8.534c-17.357-17.25-40.29-26.726-64.808-26.726-24.517 0-47.45 9.475-64.807 26.727h-5.924v6.47C41.266 94.9 33.72 115.72 33.72 137.21c0 13.136 2.71 25.802 8.058 37.685-3.553 10.695-4.978 20.51-4.02 27.797.24 1.825.594 3.658 1.08 5.605l.894 3.565h2.595v.074h29.708c15.71 11.316 34.245 17.29 53.7 17.29 19.458 0 37.992-5.974 53.702-17.29h31.29V191.56h-10.764c11.65-15.852 17.79-34.574 17.79-54.35z"/><path fill="#FFD69F" d="M216.28 134.268c0-20.27-6.45-39.437-18.675-55.537v-9.75h-8.534c-17.35-17.25-40.29-26.72-64.8-26.72s-47.45 9.48-64.81 26.73h-5.92v6.47c-13.74 16.5-21.29 37.32-21.29 58.81 0 13.14 2.71 25.81 8.06 37.69-3.55 10.7-4.98 20.51-4.02 27.8.24 1.83.6 3.66 1.08 5.61l.9 3.57h2.59v.07h29.71c15.71 11.32 34.25 17.29 53.7 17.29s38-5.97 53.71-17.29h31.29v-20.38H198.5c11.65-15.85 17.79-34.57 17.79-54.35z"/><circle fill="#FAAF40" cx="124.264" cy="134.268" r="87.308"/><path fill="#3FBCFF" d="M72.002 87.958h105.52v107.195H72.002z"/><path fill="#2CACE5" d="M178.907 94.692L70.957 92.41V80.877h107.56"/><circle fill="#FFF692" cx="151.449" cy="160.219" r="15.334"/><path fill="#4CD812" d="M114.117 173.936s22.59-11.914 60.702-6.396c0 0 11.98 9.34 14.89 19.122 2.91 9.78-3.61 14.69-3.61 14.69l-58.28-2.962-13.72-24.454z"/><path fill="#4CE813" d="M60.414 178.136s39.706-43.03 124.108 25.155l-44.627-3.11-75.74 2.08-3.74-24.11z"/><path fill="#F2E3CB" d="M62.01 78.025V198.12l126.09-.002V78.025H62.01zM174.75 194.01H75.36v-49.122h99.39v49.122zm0-56.132H75.36v-48.21h99.39v48.21z"/><path fill="#D6C4AB" d="M63.43 79.167h125.405v6.393H63.43z"/><path fill="#D6C4AB" d="M65.83 83.733h5.48v111.19h-5.48zm114.098 0h5.48v111.19h-5.48z"/><path fill="#F2E3CB" d="M192.896 193.326V73.686H58.243V193.33h-12.68v10.957h158.983V193.33h-11.65zM66.466 81.68h118.208v111.647H66.464V81.68z"/><path opacity=".15" d="M143.1 86.396s3.432-.638 4.414 1.52c.98 2.158-1.104 5.444-1.104 5.444l-3.2 1.104-.11-8.068z"/><path fill="#FFF" d="M41.936 204.21H92.67c-1.192-4.77-3.96-9.24-8.306-11.99-2.5-10.302 1.766-16.04 1.766-17.806l-21.336-34.187c-13.342 10.3-26.045 42.132-23.838 58.907.234 1.787.576 3.466.98 5.077z"/><path fill="#D0D1D2" d="M90.35 204.21c-.46-1.995-1.255-3.857-2.455-5.37-1.766-2.06-3.237-2.796-5.543-4.07-2.215-1.225-1.373-13.88.687-17.118l-16.98-13.685c-3.08 4.81-13.51 25.01-9.82 40.244h34.11z"/><path fill="#FFF" d="M61.53 167.24l-.243.85-.172.844-.2 1.3c-.112.995-.245 2.217-.26 3.637-.034 1.42.002 3.03.188 4.75.166 1.73.475 3.58 1.01 5.46.53 1.87 1.242 3.78 2.286 5.53 1.04 1.74 2.38 3.31 4.01 4.52 1.63 1.2 3.52 2.1 5.6 2.54.5.15 1.06.17 1.58.27l.79.13c.27.02.54.02.82.04l1.63.07c.55-.03 1.1-.06 1.65-.1 2.19-.12 4.38-.55 6.49-1.07 1.05-.2 2.08-.59 3.08-.88.5-.16 1-.3 1.49-.46l1.44-.54c.95-.37 1.88-.67 2.76-1.06l2.54-1.12c.82-.35 1.59-.71 2.32-1.09l2.07-1.04c1.31-.62 2.41-1.27 3.34-1.77l2.88-1.6 3.36 6.04-3.09 1.58c-.99.5-2.17 1.13-3.58 1.75-.71.32-1.45.67-2.24 1.03-.78.37-1.62.73-2.52 1.07l-2.76 1.1c-.96.39-1.99.69-3.03 1.06l-1.59.54c-.54.17-1.11.31-1.67.46-1.14.28-2.26.66-3.48.87-2.39.51-4.92.91-7.56.98l-1.99.05-2.03-.15c-.34-.03-.68-.05-1.02-.09l-1.03-.19c-.68-.14-1.37-.21-2.04-.42-2.72-.68-5.34-2-7.54-3.75s-3.93-3.95-5.17-6.21c-1.26-2.27-2.03-4.61-2.58-6.82-.55-2.22-.83-4.34-.95-6.29-.14-1.95-.12-3.74-.03-5.32.07-1.58.26-2.96.43-4.1.11-.57.2-1.09.29-1.53l.31-1.23c.17-.55.27-.84.27-.84l4.06 1.25zm49.808-24.637s-.01.046-.036.136c-.01.05-.093.32-.048.24.013-.04.017.02.025-.09 0-.06-.04-.39-.3-.71-.28-.31-.52-.36-.48-.36.02-.01.24-.01.52-.06.56-.1 1.4-.36 2.29-.77 1.8-.81 3.91-2.13 5.96-3.81 2.05-1.68 4.07-3.7 5.81-5.93 1.75-2.22 3.22-4.62 4.3-6.97 1.09-2.35 1.8-4.65 2.21-6.65.42-2 .55-3.68.59-4.86.02-.59.03-1.06.02-1.37v-.49l8.13.09-.04.62c-.02.4-.06.99-.14 1.74-.16 1.49-.46 3.62-1.16 6.1-.68 2.47-1.75 5.26-3.27 8.04-1.5 2.78-3.44 5.52-5.66 7.98-2.21 2.47-4.69 4.66-7.21 6.46-2.52 1.8-5.08 3.21-7.54 4.13-1.24.45-2.44.79-3.73.92-.65.05-1.32.07-2.09-.08-.75-.15-1.71-.52-2.42-1.35-.72-.82-.92-1.77-.94-2.34-.04-.63.04-1.01.12-1.4.1-.44.12-.43.15-.56.03-.09.04-.14.04-.14l4.8 1.42z"/><path opacity=".3" fill="#D0D1D2" d="M125.857 130.263c-.248.34-.49.68-.75 1.012-1.742 2.22-3.76 4.25-5.817 5.923-2.05 1.678-4.162 3-5.965 3.81-.892.402-1.727.67-2.294.764-.27.05-.49.053-.52.057-.04 0 .2.05.47.36.11.13.18.25.22.37l-4.66-1.38-.04.13c-.03.13-.05.11-.15.55-.08.39-.16.77-.12 1.4.02.57.22 1.52.94 2.34.72.82 1.68 1.19 2.42 1.34.78.15 1.44.13 2.09.07 1.29-.13 2.49-.47 3.73-.93 2.46-.92 5.02-2.33 7.54-4.13 2.05-1.46 4.06-3.19 5.93-5.11-1.6-1.93-2.5-4.3-2.99-6.61zm-14.603 12.716c-.03.05-.003-.05.02-.14l.005.05c-.01.1-.02.04-.03.08zm20.49-29.05s.1 5.15 7.357 4.85c0 0 1.18-3.31 1.11-5.4"/><path fill="#FFF" d="M147.686 99.614c-12.845 9.596-4.513-3.138-2.158-7.652 2.747-5.297-1.962-8.436-6.082-4.12-2.942 3.138-4.61 10.104-5.788 14.027 0 0-8.353-10.65-12.065-5.89-1.57 2.01-1.57 5 1.374 5.79 3.814 1.04 5.482 1.62 6.36 5.26-1.553 4.55.292 6.57 2.96 8.14 2.235 1.32 4.92 2.77 7.944.91.83-.55 1.35-1.35 1.75-2.19l.02.03.12-.31c.4-.88.95-2.51.95-2.51.99-2.34 2.1-3.47 5.62-4.06 2.95-.59 7.66-.4 9.03-3.93 1.96-5.69-6.08-6.46-10-3.53z"/><path fill="#D0D1D2" d="M125 138.323s12.725-3.29 4.216 8.875l-1.696-2-2.52-6.875z"/><ellipse transform="rotate(92.26 94.92 152.43)" fill="#FFF" cx="94.921" cy="152.424" rx="28.581" ry="35.67"/><ellipse transform="rotate(92.26 99.26 152.23)" fill="#D0D1D2" cx="99.258" cy="152.235" rx="22.771" ry="29.851"/><ellipse transform="rotate(92.26 115.38 150.86)" fill="#FFF" cx="115.382" cy="150.859" rx="12.055" ry="12.231"/><ellipse transform="rotate(92.26 86.96 150)" fill="#FFF" cx="86.957" cy="150.002" rx="14.997" ry="15.097"/><path fill="#919396" d="M68.765 135.707c.007-.01-4.6 6.238-4.706 8.335l-.96-1.71s-7.16-11.253 5.66-6.625z"/><path fill="#D0D1D2" d="M72.043 133.93s-6.93-4.975-11.78-2.175c0 0-6.33 4.925 1.8 13.69l1.962 2.357s1.628-1.104 1.41-3.644c0 0-9.374-11.45 4.15-7.264 0 .002 2.212-.067 2.458-2.964z"/><circle fill="#0071BC" cx="84.632" cy="148.32" r="11.394"/><path fill="#0F4481" d="M81.748 140.563c3.195-.483 6.177 1.717 6.66 4.913.483 3.195-1.716 6.176-4.912 6.658-3.197.485-6.178-1.715-6.662-4.91-.48-3.196 1.718-6.178 4.914-6.66z"/><circle fill="#FFF" cx="83.943" cy="146.149" r="3.11"/><circle fill="#FFF" cx="76.818" cy="146.412" r="1.514"/><circle fill="#0071BC" cx="114.001" cy="150.41" r="9.367"/><circle fill="#0F4481" cx="112.349" cy="148.787" r="4.811"/><path fill="#FFF" d="M113.052 146.095c1.397-.212 2.7.75 2.912 2.146.21 1.4-.75 2.71-2.147 2.92-1.397.21-2.7-.75-2.91-2.14-.213-1.4.75-2.7 2.145-2.91z"/><circle fill="#FFF" cx="107.575" cy="148.84" r="1.244"/><path fill="#FCFCD4" d="M144.768 202.673v-30.54h-.005c.024-.112.054-.226.054-.343 0-2.764-6.94-5.003-15.5-5.003-8.56 0-15.597 2.24-15.597 5.003v31.538h.152c.548 2.603 7.243 4.66 15.445 4.66 8.203 0 14.897-2.058 15.446-4.66h.005v-.03c.02-.104.05-.207.05-.313s-.03-.207-.05-.312z"/><path fill="#D0D1D2" d="M128.213 186.038c1.03-2.67-.44-4.143-.44-4.143l-4.047.343c-2.17-8.02-7.688-9.075-7.688-9.075l-2.538 3.465v26.627c.42 1.995 4.606 3.664 10.157 4.338 8.384-6.215 6.01-20.193 6.01-20.193s-1.646-.863-1.454-1.362z"/><path fill="#FFF" d="M126.546 185.556c1.296-.812 2.04-2.005 1.128-3.833-1.766-3.826-7.167 2.348-11.858.504 0 0-1.03-.552-1.09-1.68-.03-.493.398-1.068.398-1.068 1.093-1.43 3.997-.57 4.016-3.06.024-3.51-3.307-3.68-5.297-2.65-4.543 2.34-6.704 8.35-7.61 12.75h-.017c-.004.03-.004.07-.006.11l-.02.08.015-.01c-.722 9.56 8.186 9.36 15.683 8.1 5.835-.99 11.633-8.64 4.658-9.27z"/><ellipse fill="#844C26" cx="129.329" cy="171.606" rx="12.36" ry="2.453"/><path fill="#D0D1D2" d="M121.836 181.918s1.52 1.472 1.57 4.12c.048 2.648 1.03 7.408-1.52 8.78-2.552 1.373-9.063.453-9.063.453s7.394-13.99 9.013-13.54"/><path fill="#FCFCD4" d="M121.836 199.38c0 1.682-1.36 3.042-3.042 3.042-1.678 0-3.04-1.36-3.04-3.04v-17.464c0-1.678 1.36-3.04 3.04-3.04s3.042 1.362 3.042 3.04v17.463z"/><path fill="#D0D1D2" d="M119.287 175.297s7.847 2.404 18.54.492c0 0-5.297 4.16-16.185 2.94m12.015-76.86s1.963 2.3 3.556 8.16c0 0-.956-4.98-.563-5.13 0 0-.982-1.96-2.993-3.04M96.6 172.67c.148 3.237 1.62 8.682 4.563 10.448 7.063 4.27 7.063-9.12 7.063-12.652"/><path fill="#6D6F71" d="M108.224 170.466c.096 0 .196.884.217 2.277-.03 1.72-.13 3.686-.52 5.797-.21 1.05-.48 2.148-.99 3.212-.25.53-.56 1.058-1.01 1.51-.43.45-1.02.817-1.67.937-1.37.23-2.57-.38-3.55-1.04-1-.71-1.68-1.69-2.21-2.64-1.04-1.94-1.56-3.9-1.85-5.62-.19-1.36-.1-2.24-.02-2.25.11-.01.2.85.5 2.16.32 1.67.87 3.57 1.89 5.41.52.9 1.17 1.8 2.06 2.42.89.6 2.01 1.12 3.08.92 1.05-.2 1.8-1.13 2.25-2.1.48-.98.75-2.05.97-3.06.41-2.05.54-4 .62-5.7.1-1.38.17-2.27.27-2.27z"/><path fill="#BE202E" d="M98.146 166.787s.957 14.788 4.782 15.01c3.826.22 3.605-15.23 3.605-15.23s-3.017-.073-3.237-1.177c0 0-1.84 3.09-5.327 1.625"/><path fill="#6D6F71" d="M107.98 161.17c.042-.03.246.147.524.534.273.386.645.98.842 1.84.125.608.083 1.38-.34 2.03-.438.636-1.16 1.036-1.883 1.25-.736.232-1.575.326-2.417.112-.214-.04-.42-.117-.62-.23-.21-.084-.397-.222-.567-.39-.09-.083-.19-.15-.25-.25l-.1-.152-.01-.012-.01-.012-.31.59-.44.502c-.66.62-1.57.837-2.35.77-.8-.05-1.52-.342-2.1-.737-.6-.377-1.07-.887-1.39-1.425-.46-.743-.46-1.495-.44-1.96.11-.47.2-.707.26-.693.05.016.07.278.06.706.07.423.14 1.046.59 1.646.3.44.71.87 1.25 1.18.52.33 1.15.56 1.8.59.65.03 1.32-.15 1.81-.61l.33-.39.24-.48c.16-.39.23-.82.35-1.23l.16-.63.08-.31.03-.14.01-.03.01.04.02.09.06.24c.12.51.24 1.02.43 1.5l.13.35.06.11c.04.07.12.11.17.17.11.11.24.22.4.28.14.08.3.15.47.18.66.17 1.38.11 2.02-.08.66-.18 1.22-.5 1.56-.95.32-.46.39-1.04.31-1.57-.26-1.52-.94-2.4-.8-2.47z"/><path fill="#0B8ECC" d="M103.455 159.465s-1.476-3.272-3.803 2.343l3.477 3.185 3.2-2.697s-1.84-5.338-2.88-2.83z"/><path fill="#FFF" d="M100.376 161.782l1.494 1.358s-.283-1.92-1.494-1.358zm4.204 1.468l1.114-.843s-.786-.418-1.114.842zm11.885-39.577s-.4-3.557-1.198-4.36c-.805-.807-4.394-1.23-4.394-1.23s3.62-.448 4.43-1.27c.784-.796 1.16-4.322 1.16-4.322s.38 3.53 1.165 4.33c.807.82 4.428 1.27 4.428 1.27s-3.494.36-4.288 1.13c-.83.81-1.303 4.47-1.303 4.47zm25.75 11.625s-.4-3.557-1.196-4.36c-.81-.81-4.4-1.23-4.4-1.23s3.62-.45 4.43-1.27c.78-.798 1.16-4.323 1.16-4.323s.38 3.525 1.16 4.323c.8.82 4.42 1.27 4.42 1.27s-3.5.353-4.29 1.126c-.84.81-1.31 4.464-1.31 4.464zm-7.228 20.32s-.228-2.063-.688-2.527c-.47-.46-2.55-.71-2.55-.71s2.1-.26 2.57-.74c.45-.46.68-2.51.68-2.51s.21 2.05.67 2.51c.47.48 2.57.73 2.57.73s-2.03.21-2.5.66c-.49.47-.77 2.59-.77 2.59z"/><path d="M82.06 55.68c-1.41 0-2.742.522-3.85 1.51-.503.448-.908.98-1.216 1.566-2.23-2.4-5.246-3.684-8.845-3.684-1.03 0-2.58.3-4.11 1.726-.76.702-1.35 1.665-1.89 3.09-2.29-3.132-5.66-4.816-9.79-4.816-1.03 0-2.58.3-4.11 1.726-1.1 1.02-1.85 2.563-2.59 5.32-.7 2.565-1.04 6.54-1.04 12.15v.897c0 .236.02.468.06.693l-.02.903c-.39-.09-.79-.14-1.2-.14-.65 0-1.27.04-1.84.1-1.71.2-3 .6-3.96 1.11l.02-3.43c-.02-1.49 0-3 .07-4.54.02-.97.09-1.83.2-2.56l.02-.15c.09-.87.24-2.01.44-3.42.14-1.02.49-2.14 1.02-3.31l.17.03c.22.04.44.06.67.06 1.27 0 2.46-.42 3.44-1.21 1.18-.96 1.86-2.4 1.86-3.95 0-2.68-1.94-5.4-6.32-5.42-2.42 0-4.61.76-6.44 2.22-.92.71-1.73 1.6-2.38 2.63-.55.84-1.02 1.72-1.4 2.62-.37.88-.7 1.88-.97 2.97-.25 1.02-.48 2.26-.71 3.78-.25 1.6-.36 4.05-.36 7.51l.02 3.63c0 1.92.04 3.59.12 4.98.07 1.13.17 2.16.29 3 .11.91.31 2.07.61 3.54.36 1.8 1.09 3.66 2.17 5.51 1.27 2.23 3.12 3.84 5.45 4.75 1.19.49 2.42.73 3.65.73 1.19 0 2.37-.22 3.53-.67.67.25 1.4.38 2.18.38 1.62 0 3.31-.75 4.32-2.36 1.99 1.93 4.26 2.29 5.68 2.29 2.83 0 5.99-1.09 8.11-5.04 2.22 4.37 5.74 5.04 7.66 5.04 2.37 0 4.96-.76 6.99-3.32.75 1.58 2.01 2.69 4.17 2.69h3.59c.62 0 1.24-.14 1.8-.43 2.11-1.06 3.9-2.5 5.33-4.31.65-.84 1.22-1.8 1.67-2.84.4-.93.77-2.02 1.13-3.34.27-1.02.58-2.81.58-7.7V75.5s.1-2.525.1-2.58c0-3.193-.78-6.26-2.31-9.105-3.58-6.693-8.41-8.1-11.84-8.1zm135.673 23.218c0-2.064-1.1-5.527-8.46-5.527h-.237c-.145-.01-.292-.02-.44-.02-.29 0-.574.02-.854.06.164-2.6.505-4.91 1.02-6.89.025-.1.05-.19.075-.27 1.176-.06 2.285-.47 3.227-1.2 1.293-1 2.034-2.5 2.034-4.12 0-.54-.18-5.26-6.447-5.26-1.81 0-4.41.56-6.78 2.95-.03-.06-.06-.13-.1-.19-.96-1.59-2.6-2.51-4.48-2.51-3.03 0-5.23 2.31-5.23 5.48 0 .08 0 .15.01.22l.07 1.23v1.7c-.32-.83-.66-1.65-1-2.44-.85-1.96-2.35-5.39-5.24-6.22-.54-.25-1.12-.38-1.7-.38-.84 0-1.69.27-2.39.8-.17.13-.32.27-.48.41-.91-.63-2.18-1.05-3.91-1.05h-5.92c-1.72 0-2.97.36-3.9.87-.72-.37-1.54-.58-2.42-.58-3.03 0-5.23 2.3-5.23 5.48 0 .07.01.15.01.22l.07 1.22v1.7c-.32-.84-.66-1.65-1-2.44-.85-1.96-2.35-5.39-5.24-6.23-.54-.25-1.12-.38-1.7-.38-.85 0-1.69.27-2.39.8-.94.71-1.68 1.56-2.25 2.51-.41-.47-.84-.87-1.26-1.19-1.89-1.45-4.17-2.18-6.79-2.18-2.08 0-4.17 1.08-5.12 3.42-2.23-2.43-5.26-3.73-8.89-3.73-.89 0-2.16.22-3.48 1.2V55.3c0-1.284-.46-2.494-1.35-3.5-.99-1.133-2.38-1.76-3.91-1.76-1.24 0-2.45.42-3.49 1.21-1.15.88-1.91 2.156-2.13 3.59-.03.2-.05.403-.05.606v.17c-.08 1.335-.22 2.76-.42 4.27-1.3-4.944-2.89-8.795-6.51-9.034-.09-.004-.17-.01-.26-.01-.68 0-1.36.18-1.96.515l-1.38.772c-1.23.69-2.01 1.98-2.04 3.4-.05 2.16-.07 4.35-.07 6.55l.17 19.14s-.24 8.05-.24 8.09c0 1.63.3 2.98.93 4.14 1.01 1.85 2.92 2.91 5.25 2.91 1.11 0 2.16-.46 2.92-1.26 1.07-1.14 1.69-2.52 1.81-4.09.41.08.79.11 1.14.11.5 0 .99-.07 1.45-.19l.01.91c0 4.09 2.7 5.96 5.21 5.96 1.2 0 2.94-.44 4.45-2.53.17-.23.3-.48.44-.73 2.11 2.44 4.68 2.87 6.23 2.87 2.37 0 4.95-.76 6.98-3.3.15.27.32.53.52.76l.66.72c.76.84 1.84 1.32 2.98 1.32h1.38c.95 0 1.85-.33 2.55-.91.98.88 2.12 1.33 3.42 1.33 1.24 0 2.41-.45 3.32-1.25.89.32 1.64.35 1.84.35 1.48 0 2.87-.59 3.92-1.67 1.31-1.34 1.58-2.76 1.58-3.71 0-.78-.16-1.55-.5-2.32V87.3c.5 1.634.65 2.37.71 2.674-.04.62.07 1.237.31 1.808l.08.314c.25 1.08.64 1.95 1.21 2.662.94 1.185 2.37 1.865 3.93 1.865.78 0 1.69-.175 3.04-.584.87-.27 1.62-.83 2.14-1.58.94.94 2.37 1.58 4.31 1.58.19 0 .38-.01.6-.03.53.04 1.37.07 2.89.07h2.18c.95 0 1.84-.25 2.65-.67 1.35.95 2.81 1.01 3.1 1.01 1.47 0 2.87-.59 3.92-1.67 1.3-1.35 1.58-2.76 1.58-3.71 0-.78-.17-1.56-.51-2.33V87.3c.5 1.634.66 2.37.71 2.674-.04.62.06 1.237.3 1.808l.08.314c.24 1.08.64 1.95 1.21 2.662.94 1.186 2.37 1.866 3.93 1.866.78 0 1.69-.175 3.04-.584.92-.278 1.7-.875 2.22-1.684.2-.324.4-.69.58-1.23 1.79 2.412 4.55 3.74 7.89 3.74 2.42 0 4.59-.725 6.44-2.155 1.49-1.15 3.26-3.28 3.26-6.93v-.18l-.23-4.87.48-3.23c.02-.19.04-.39.04-.58z" opacity=".15"/><path d="M80.893 54.512c-1.41 0-2.742.523-3.85 1.51-.503.45-.908.98-1.216 1.567-2.23-2.4-5.246-3.69-8.845-3.69-1.027 0-2.573.3-4.106 1.72-.755.7-1.345 1.66-1.883 3.09-2.285-3.13-5.655-4.82-9.79-4.82-1.026 0-2.572.3-4.105 1.72-1.095 1.02-1.846 2.56-2.59 5.32-.698 2.56-1.037 6.54-1.037 12.15v.9c0 .23.03.47.06.69l-.02.9c-.39-.09-.79-.15-1.2-.15-.65 0-1.27.04-1.83.1-1.71.2-2.99.6-3.95 1.11l.03-3.43c-.01-1.49.01-3 .07-4.55.03-.97.1-1.84.21-2.57l.02-.15c.09-.87.24-2.01.45-3.43.15-1.02.5-2.15 1.02-3.32l.17.03c.22.04.45.06.67.06 1.28 0 2.47-.42 3.45-1.21 1.19-.97 1.87-2.41 1.87-3.96 0-2.68-1.93-5.4-6.31-5.42-2.42 0-4.61.76-6.44 2.21-.92.7-1.73 1.6-2.38 2.62-.54.83-1.01 1.71-1.39 2.62-.37.87-.69 1.87-.96 2.96-.25 1.02-.48 2.25-.71 3.77-.24 1.6-.36 4.05-.36 7.51l.02 3.63c0 1.92.05 3.59.13 4.97.07 1.13.17 2.16.29 3 .11.9.31 2.06.61 3.54.36 1.8 1.1 3.66 2.17 5.5 1.27 2.23 3.12 3.84 5.46 4.76 1.19.49 2.42.74 3.65.74 1.19 0 2.38-.23 3.53-.67.67.25 1.4.38 2.18.38 1.62 0 3.31-.76 4.32-2.36 1.99 1.92 4.26 2.29 5.68 2.29 2.84 0 5.99-1.09 8.12-5.04 2.23 4.36 5.74 5.04 7.67 5.04 2.37 0 4.97-.77 7-3.33.75 1.58 2.02 2.69 4.18 2.69h3.59c.63 0 1.25-.15 1.81-.43 2.11-1.07 3.89-2.51 5.33-4.32.65-.84 1.21-1.8 1.67-2.85.4-.93.77-2.03 1.13-3.35.27-1.02.58-2.81.58-7.7V74.2s.1-2.526.1-2.58c0-3.2-.78-6.265-2.31-9.11-3.58-6.693-8.42-8.1-11.84-8.1zM216.566 77.73c0-2.063-1.1-5.526-8.46-5.526h-.237c-.15-.016-.3-.024-.44-.024-.29 0-.58.02-.86.057.16-2.604.5-4.91 1.02-6.89.02-.1.05-.19.07-.274 1.17-.063 2.28-.476 3.22-1.206 1.29-1 2.03-2.503 2.03-4.12 0-.538-.18-5.26-6.45-5.26-1.82 0-4.41.554-6.79 2.952-.04-.07-.06-.14-.1-.2-.97-1.6-2.6-2.51-4.48-2.51-3.03 0-5.24 2.3-5.24 5.48 0 .07 0 .14.01.21l.06 1.22c0 .57 0 1.13-.01 1.69-.33-.84-.67-1.65-1.01-2.44-.85-1.96-2.35-5.4-5.24-6.23-.55-.26-1.13-.38-1.71-.38-.85 0-1.69.27-2.4.79-.17.12-.32.26-.48.4-.91-.63-2.18-1.06-3.91-1.06h-5.91c-1.73 0-2.98.35-3.9.87-.73-.38-1.55-.58-2.42-.58-3.03 0-5.23 2.3-5.23 5.48v.21l.06 1.22c0 .57 0 1.13-.01 1.69-.32-.84-.66-1.65-1-2.44-.85-1.96-2.35-5.4-5.24-6.23-.54-.26-1.12-.38-1.7-.38-.85 0-1.69.27-2.39.79-.94.7-1.69 1.55-2.25 2.5-.42-.48-.85-.88-1.26-1.19-1.89-1.45-4.18-2.19-6.8-2.19-2.08 0-4.17 1.08-5.12 3.41-2.24-2.43-5.27-3.73-8.89-3.73-.89 0-2.17.23-3.49 1.21v-1.01c0-1.28-.46-2.49-1.35-3.5-1-1.13-2.39-1.76-3.91-1.76-1.25 0-2.45.42-3.49 1.21-1.16.88-1.92 2.16-2.14 3.59-.03.2-.05.41-.05.61v.16c-.09 1.33-.23 2.76-.42 4.27-1.3-4.94-2.89-8.8-6.52-9.03-.09-.01-.18-.01-.27-.01-.69 0-1.36.17-1.96.51l-1.38.77c-1.24.69-2.01 1.98-2.05 3.39-.05 2.16-.08 4.35-.08 6.55l.2 19.18-.2 8.11c0 1.63.3 2.99.93 4.14 1.01 1.85 2.92 2.91 5.25 2.91 1.1 0 2.16-.46 2.91-1.27 1.06-1.13 1.68-2.51 1.81-4.08.4.08.79.11 1.14.11.5 0 .98-.06 1.44-.18l.01.91c0 4.1 2.7 5.97 5.21 5.97 1.19 0 2.94-.43 4.45-2.53.16-.23.3-.48.44-.73 2.1 2.44 4.68 2.88 6.23 2.88 2.36 0 4.94-.76 6.97-3.29.15.27.31.53.52.76l.65.73c.76.84 1.84 1.32 2.98 1.32h1.38c.95 0 1.85-.33 2.55-.91.98.88 2.12 1.33 3.41 1.33 1.24 0 2.41-.45 3.32-1.25.88.32 1.63.35 1.83.35 1.48 0 2.87-.59 3.92-1.67 1.3-1.34 1.58-2.76 1.58-3.71 0-.78-.17-1.56-.51-2.32v-1.43c.5 1.64.66 2.37.71 2.68-.04.62.06 1.24.31 1.81l.08.32c.25 1.08.64 1.95 1.21 2.66.94 1.19 2.37 1.87 3.93 1.87.78 0 1.69-.17 3.04-.58.87-.27 1.62-.83 2.13-1.58.94.94 2.37 1.58 4.31 1.58.19 0 .38-.01.6-.02.53.05 1.37.08 2.89.08h2.18c.95 0 1.83-.24 2.64-.67 1.36.95 2.81 1.01 3.1 1.01 1.48 0 2.87-.59 3.92-1.67 1.3-1.34 1.58-2.76 1.58-3.71 0-.78-.17-1.56-.51-2.32v-1.42c.5 1.64.65 2.37.7 2.68-.04.62.06 1.24.31 1.81l.08.32c.25 1.08.64 1.95 1.21 2.66.94 1.18 2.37 1.86 3.93 1.86.78 0 1.69-.17 3.04-.58.91-.28 1.7-.88 2.21-1.69.2-.32.4-.69.58-1.23 1.79 2.41 4.55 3.74 7.89 3.74 2.42 0 4.58-.73 6.43-2.16 1.48-1.15 3.26-3.29 3.26-6.93 0-.06 0-.12-.01-.18l-.22-4.88.48-3.23c.02-.2.04-.39.04-.59z" fill="#FFF"/><path fill="#0071BC" d="M44.127 82.3c0-.864-.178-1.555-.533-2.072-.355-.517-.784-.776-1.285-.776-.51 0-.97.024-1.39.073-2.14.243-3.2.768-3.2 1.576 0 .94.56 1.41 1.7 1.41l1.94-.19c.48.84.75 2.73.8 5.67-.97 1.39-2.19 2.09-3.66 2.09-1.04-.13-2.24-.72-3.61-1.77-.42-.51-.78-1.18-1.07-1.98-.31-.79-.6-1.85-.89-3.2-.29-1.34-.43-3.59-.43-6.76l.02-3.08c-.02-1.56.01-3.13.07-4.7.03-1.13.11-2.14.24-3.03.09-.9.25-2.09.46-3.56.21-1.47.69-3.02 1.45-4.65.71-1.48 1.69-2.24 2.93-2.25l1.43.25c.36 0 .66-.1.92-.31s.39-.49.39-.85c0-.93-.76-1.4-2.28-1.41-1.52 0-2.87.46-4.05 1.4-.55.42-1.04.96-1.46 1.63-.42.65-.78 1.32-1.07 2-.29.69-.55 1.48-.77 2.37s-.43 2.03-.64 3.42c-.21 1.39-.32 3.68-.32 6.88l.02 3.66c0 1.84.04 3.41.12 4.72.06 1.04.15 1.96.26 2.76.1.79.28 1.88.56 3.25.27 1.38.85 2.81 1.72 4.32.81 1.42 1.97 2.43 3.49 3.03.71.29 1.42.44 2.13.44.99 0 1.98-.27 2.98-.82.54-.29.9-.47 1.09-.55v.05c.28.69.82 1.04 1.64 1.04s1.23-.61 1.23-1.82c0-.68-.17-2-.5-3.95-.33-1.96-.5-3.37-.5-4.23zm16.287-10.337c0-3.263-.42-6.01-1.26-8.24-1.454-3.877-4.104-5.816-7.95-5.816-.452 0-.912.218-1.38.654s-.954 1.59-1.455 3.45c-.6 2.2-.9 5.9-.9 11.1V74c.05 0 .07.08.07.24l-.05 1.89c0 2.07.17 4.518.51 7.345.21 1.875.77 3.78 1.69 5.72.97 2.02 2.36 3.03 4.19 3.03 4.41 0 6.61-4.76 6.61-14.276l-.1-5.63v-.37zm-2.812 10.082c-.097 1.018-.234 1.972-.412 2.86-.194.905-.432 1.766-.715 2.58-.283.817-.667 1.467-1.15 1.952-.486.485-1.027.727-1.625.727-.743-.372-1.527-1.6-2.35-3.684-.776-3.57-1.164-7.756-1.164-12.554l.242-4.58-.048-2.934c0-1.567.153-2.884.46-3.95.372-1.277 1.123-1.916 2.254-1.916 1.18 0 2.15.473 2.908 1.418s1.155 2.023 1.188 3.235v.87c0 1.26.11 3.17.327 5.74.218 2.57.328 4.47.328 5.72s-.08 2.75-.243 4.51zM76.19 71.963c0-3.263-.42-6.01-1.26-8.24-1.453-3.877-4.103-5.816-7.948-5.816-.453 0-.913.218-1.382.654s-.953 1.59-1.454 3.45c-.598 2.2-.896 5.9-.896 11.1V74c.048 0 .073.08.073.24l-.05 1.89c0 2.07.17 4.518.51 7.345.21 1.875.775 3.78 1.696 5.72.97 2.02 2.36 3.03 4.19 3.03 4.41 0 6.61-4.76 6.61-14.276l-.1-5.63v-.37zm-2.81 10.082c-.098 1.018-.235 1.972-.413 2.86-.194.905-.432 1.766-.715 2.58-.283.817-.667 1.467-1.15 1.952-.486.485-1.027.727-1.625.727-.743-.372-1.527-1.6-2.35-3.684-.776-3.57-1.164-7.756-1.164-12.554l.242-4.58-.048-2.934c0-1.567.153-2.884.46-3.95.372-1.277 1.123-1.916 2.254-1.916 1.18 0 2.15.473 2.91 1.418s1.16 2.023 1.19 3.235v.87c0 1.26.11 3.17.33 5.74.22 2.57.33 4.47.33 5.72s-.08 2.75-.24 4.51zm7.513-23.533c-.42 0-.816.166-1.188.497-.372.33-.558.79-.558 1.39s.097 1.99.29 4.18c.195 2.19.292 3.82.292 4.88l-.15 15.64c0 4.33.42 6.49 1.26 6.49h3.58c1.6-.81 2.92-1.88 3.97-3.2.45-.58.84-1.25 1.17-1.99s.63-1.68.93-2.79c.3-1.12.45-3.34.45-6.67V74.2l.09-2.494c0-2.538-.62-4.945-1.84-7.223-2.13-3.99-4.9-5.98-8.31-5.98zm7.343 21.837c-.582 5.81-2.31 8.72-5.187 8.72v-1.19c0-2.44-.13-6.09-.38-10.96-.25-4.87-.38-8.44-.38-10.73 0-2.29.12-4.09.36-5.4 3.84.45 5.77 5.67 5.77 15.65 0 1.24-.07 2.53-.2 3.88zM115.67 54.1c0-.306-.117-.593-.35-.86-.235-.266-.54-.4-.91-.4-.372 0-.727.13-1.066.39-.34.258-.542.597-.606 1.017v.29c-.21 3.46-.768 7.41-1.672 11.852-.307 1.51-.768 3.65-1.38 6.39-.615 2.74-1.035 4.65-1.26 5.72-.066-.29-.413-2.13-1.043-5.52-.63-3.39-1.454-7.2-2.472-11.45-1.26-5.2-2.38-7.84-3.36-7.9l-1.38.77c-.05 2.13-.07 4.27-.07 6.42l.17 19.22-.24 8.04c0 .94.15 1.68.45 2.23.3.55.88.82 1.73.82.5-.54.75-1.16.75-1.87l-.41-20.41c0-1.34.03-3.34.1-5.99.21.96.69 2.82 1.43 5.57 1.49 5.49 2.23 9.76 2.23 12.82 0 3.08.59 4.63 1.77 4.63.71 0 1.22-.39 1.53-1.17.15-.39.26-.74.33-1.06.07-.32.14-.72.21-1.2.07-.48.12-.79.15-.92v-.32c.23-1.7.74-4.14 1.53-7.34.79-3.19 1.3-5.43 1.53-6.7v2.52l.2 20.89c0 1.31.41 1.96 1.21 1.96.39 0 .79-.29 1.21-.87.42-.59.63-1.27.63-2.06 0-3.96-.15-9.89-.44-17.79-.3-7.9-.45-13.83-.45-17.79zm16.7 17.863c0-3.263-.42-6.01-1.26-8.24-1.455-3.877-4.105-5.816-7.95-5.816-.452 0-.913.218-1.382.654s-.953 1.59-1.454 3.45c-.598 2.2-.896 5.9-.896 11.1V74c.048 0 .073.08.073.24l-.04 1.89c0 2.07.17 4.518.51 7.345.21 1.875.78 3.78 1.7 5.72.97 2.02 2.37 3.03 4.2 3.03 4.41 0 6.62-4.76 6.62-14.276l-.1-5.63v-.37zm-2.81 10.082c-.098 1.018-.235 1.972-.413 2.86-.194.905-.433 1.766-.715 2.58-.283.817-.667 1.467-1.15 1.952s-1.027.727-1.625.727c-.743-.372-1.526-1.6-2.35-3.684-.776-3.57-1.165-7.756-1.165-12.554l.243-4.58-.05-2.934c0-1.567.154-2.884.462-3.95.37-1.277 1.123-1.916 2.254-1.916 1.18 0 2.15.473 2.91 1.418.76.945 1.16 2.023 1.19 3.235v.87c0 1.26.11 3.17.33 5.74.22 2.57.33 4.47.33 5.72s-.08 2.75-.24 4.51zm12.14-3.83c-.452-2.36-.768-3.94-.945-4.75.05-.096.307-.577.776-1.44.47-.865.88-1.69 1.24-2.473s.54-1.652.54-2.605v-3.49c0-1.68-.59-2.973-1.77-3.877-1.18-.905-2.63-1.357-4.36-1.357-1.1 0-1.64.784-1.64 2.35 0 2.99.14 7.514.43 13.573.28 6.06.43 10.014.43 11.864s-.01 3.518-.05 5.004l.66.727h1.38l.56-1.33c-.63-2.52-.94-5.97-.94-10.35l.05-5.38h.61c.26.6.98 3.87 2.16 9.8.39 1.94.9 3.71 1.54 5.3.64 1.59 1.31 2.39 2 2.39.34 0 .61-.12.82-.37.2-.25.3-.55.3-.92 0-.36-.17-.87-.51-1.51-1.18-2.26-2.25-5.97-3.22-11.12zm-3.466-5.986c0-1.17-.032-3.03-.097-5.59-.064-2.56-.097-4.52-.097-5.88l.17-.71c1.163.05 1.906.6 2.23 1.67.16.51.266.99.313 1.41.05.43.073 1.09.073 2s-.24 2.21-.715 3.91c-.47 1.7-1.1 2.76-1.87 3.16zm24.746-13.5c-.824 0-1.236.49-1.236 1.47l.072 1.33c0 9.85-.33 18.25-.993 25.18-.227-.57-.805-2.48-1.733-5.74-.93-3.26-1.862-6.48-2.8-9.68-.937-3.2-1.986-6.14-3.15-8.81-1.163-2.68-2.132-4.01-2.908-4.01-.112 0-.234.04-.363.12v-.32c-1.22.9-1.82 2.12-1.82 3.66l-.29 9.25.09 17.01c0 2.02.54 3.03 1.62 3.03.4 0 .75-.16 1.05-.46.3-.31.45-.62.45-.92s-.11-.64-.32-1c-.1-.16-.16-.28-.2-.34V63.55c1.06 2.47 2.79 6.996 5.16 13.57s3.57 10.48 3.57 11.707l-.03.22c.08.16.17.484.29.968.11.485.26.845.45 1.08s.45.35.8.35.97-.137 1.87-.41c.53-.84.96-4.513 1.27-11.016.31-6.51.49-11.71.52-15.6v-3.75c0-.52-.12-.97-.35-1.36s-.59-.58-1.06-.58zm12.505 29.42l-1.43.05h-.654l.03-1.38v-1.48l-.24-10.54.27-9.48c0-1.71-.06-3.25-.19-4.61h2.55c.37 0 .71-.13 1-.39.29-.26.44-.54.44-.85 0-.7-.67-1.04-2.01-1.04h-5.91c-1.63 0-2.45.38-2.45 1.14 0 .51.14.86.42 1.05.28.18.66.28 1.14.28l1.14-.05h.95c.16 1.66.24 3.44.24 5.33l-.27 11.05.34 10.54-.09.65h-1.4c-.19.01-.39.16-.58.43-.19.27-.29.56-.29.87 0 .74.59 1.11 1.77 1.11.15 0 .35-.02.61-.05.42.06 1.38.1 2.89.1h2.18c.44 0 .82-.15 1.15-.45s.5-.66.5-1.08c0-.83-.68-1.24-2.03-1.24zm19.63-29.42c-.822 0-1.234.49-1.234 1.47l.08 1.33c0 9.85-.33 18.25-.99 25.18-.22-.57-.8-2.48-1.73-5.74-.93-3.26-1.86-6.48-2.8-9.68-.93-3.2-1.98-6.14-3.15-8.81-1.16-2.68-2.13-4.01-2.9-4.01-.11 0-.23.04-.36.12v-.32c-1.21.9-1.81 2.12-1.81 3.66l-.29 9.25.1 17.01c0 2.02.54 3.03 1.63 3.03.4 0 .76-.16 1.06-.46.3-.31.45-.62.45-.92s-.1-.64-.31-1c-.1-.16-.16-.28-.19-.34V63.55c1.07 2.47 2.79 6.996 5.16 13.57s3.57 10.48 3.57 11.708l-.03.22c.08.16.18.484.29.97.11.483.26.843.45 1.08s.45.35.8.35.97-.14 1.88-.41c.53-.84.96-4.515 1.27-11.018.32-6.503.49-11.702.52-15.596v-3.76c0-.52-.11-.97-.35-1.36s-.59-.58-1.06-.58zm17.45 19c0-1.02-1.485-1.53-4.46-1.53h-.677v-.03c-.47 0-.87.12-1.2.36-.33.24-.497.59-.497 1.06 0 .76.58 1.13 1.73 1.13l.97-.03c.53 0 .92.06 1.16.19v2.27c0 5.27-.8 7.9-2.4 7.9-1.19 0-2.17-.57-2.93-1.72-.32-.49-.6-1.13-.82-1.94-.24-.79-.46-1.77-.66-2.94s-.3-3.32-.3-6.44c0-4.57.42-8.47 1.26-11.71.59-2.26 1.45-3.4 2.6-3.4l1.04.12c.41 0 .77-.13 1.09-.38s.49-.57.49-.96c0-.84-.81-1.26-2.44-1.26s-3.07.71-4.31 2.13c-.51.58-.95 1.4-1.31 2.47s-.67 2.22-.94 3.45c-.28 1.23-.41 4.19-.41 8.85v2.14c0 .84.03 1.95.09 3.32.03.99.09 1.77.17 2.35s.22 1.41.41 2.48c.2 1.07.67 2.21 1.41 3.43 1.04 1.71 2.7 2.57 4.99 2.57 1.52 0 2.85-.44 3.99-1.33 1.14-.88 1.71-2.13 1.71-3.77l-.24-5.25.53-3.61z"/></svg>