<svg xmlns="http://www.w3.org/2000/svg" width="250" height="250" viewBox="0 0 250 250"><g opacity=".15"><linearGradient id="a" gradientUnits="userSpaceOnUse" x1="113.856" y1="535.051" x2="113.856" y2="781.143"><stop offset="0" stop-color="#1B1440"/><stop offset=".819" stop-color="#ED1E79"/></linearGradient><path fill="url(#a)" d="M125.5 49.88c-9.635 0-18.908 1.574-27.58 4.474 1.26-1.11 1.716-2.906 1.07-4.496l-.138-.336c-.61-1.5-2.028-2.432-3.55-2.492-.026-2.37-.028-3.424-.023-3.865.05-2.962.29-5.677.72-8.07.21-1.222-.16-2.435-.93-3.324-.06-.07-.26-.36-.29-.4-1.34-1.77-3-2.04-3.87-2.04-.33 0-.67.04-.99.11-.74.17-1.41.54-1.95 1.07-1.64 1.63-2.29 4.36-2.51 10.49-.07 2.19-.07 5.06.02 8.46.01 1.73.03 2.44.04 2.78l-.79.75-.03.03c-.71-.33-1.42-.49-2.12-.49-.49 0-.96.08-1.41.23-.36-1.86-.67-3.44-.94-4.76-.01-.34-.02-.74-.05-1.23l-.01-.11c-.11-1.21-.27-2.14-.77-2.99l-.22-.37c-.54-.92-1.42-1.59-2.45-1.86-.07-.02-.14-.03-.22-.05-.43-.15-.88-.23-1.35-.23-.83 0-1.63.25-2.29.72l-.1.06c-.62.36-1.13.88-1.49 1.5-.73 1.29-.93 2.92-.65 5.53.15 1.26.32 2.51.49 3.75.04.32.12.62.23.9.05.46.14.97.26 1.55 0 .02.12.52.27 1.1h-.18c-.39 0-.8.04-1.56.17-.99.17-1.77.3-2.61.93-2.34 1.77-3.49 4.61-3.42 8.47v.09c-.3-.07-.61-.11-.92-.11-.08 0-.16 0-.24.01-.77.04-1.48.28-2.39.65-.45.19-.87.45-1.22.79-1.98 1.86-1.21 4.3-.79 5.61.1.32.19.59.27.84-1.01-1.52-1.86-2.82-2.53-3.86l-1.96-3.72-.06-.16c-.17-.75-.55-1.43-1.08-1.96l-.1-.2c-.08-.77-.39-1.51-.88-2.12l-.05-.07c-.67-1.3-2.02-2.17-3.55-2.17-.07 0-.14 0-.22.01l-.35.02c-1.36.07-2.58.83-3.26 2-.66 1.15-.75 2.49-.28 3.74l.01.62c0 .32.04.63.12.94.13.52.24.94.33 1.28.04.16.09.31.15.47.05.15.1.3.17.44.18.41.36.8.53 1.16-.13-.05-.27-.1-.4-.15-.1-.03-.2-.07-.3-.09-.52-.14-1.01-.21-1.5-.21-1.43 0-2.73.62-3.59 1.7-.52.67-1.9 2.43-1.24 4.68.07.24.16.47.27.69 1.15 2.28 2.04 3.9 2.72 4.96l4.41 6.42c.14.21.31.41.49.59.34.51.78 1.04 1.33 1.61.39.55.75 1.02 1.11 1.44.09.19.19.38.31.56.12.18.25.35.39.5.11.13.25.25.38.36-2.38 4.05-4.44 8.31-6.14 12.74-.04-.02-.08-.04-.11-.06-.1-.07-.48-.32-1.72-1.22-.94-.67-1.77-1.15-2.56-1.47l-.96-.75c-.54-.4-1.04-.73-1.52-1.01-2.04-1.79-3.66-3.14-4.93-4.12l-.09-.06c-.65-.82-1.38-1.48-2.44-1.81-.43-.13-.89-.2-1.36-.2-.4 0-.84.05-1.33.15-1.75.37-3.09 1.53-3.59 3.12-.27.87-.67 3.12 1.53 5.29.27.27.56.53.85.8.95.99 2.35 2.19 4.27 3.67l1.46 1.12c-.3 1.33-.3 3.08.67 5.07-.52.19-1 .47-1.41.85-.67.64-1.27 1.42-1.82 2.41-.55.99-.65 2.15-.29 3.22.04.13.09.26.15.39 0 .06.01.12.01.18-.35 2.58.93 4.77 2.2 6.27-.92.18-1.76.67-2.35 1.41-.58.72-1.06 1.58-1.47 2.64-.41 1.05-.35 2.22.15 3.22.06.13.13.25.21.37l.03.18c.01 2.68 1.67 4.7 3.16 6.01-.08.01-.17.01-.25.02-.38.06-.75.17-1.09.33-.13.06-.25.12-.37.18-.69-.56-1.51-1.03-2.44-1.42-1.41-.61-2.83-.91-4.2-.91-.42 0-.84.03-1.24.08-.57.08-.98.23-2.33.79-.42.17-.79.42-1.12.71-.05.04-.1.08-.15.13-.87.79-1.55 1.75-2.02 2.88-.53 1.26-.71 2.39-.57 3.45.29 2.07 1.81 3.53 3.24 4.66 3.35 2.7 7.93 4.72 14.01 6.19.25.06.51.1.77.11.12.01.56.07 1.75.28 1.07.2 1.99.3 2.82.3.43 0 .84-.03 1.2-.08.37-.05.65-.13 1.39-.37l.36-.11c.13-.02.27-.05.4-.08 9.61 37.68 43.84 65.62 84.47 65.62 48.06 0 87.17-39.1 87.17-87.17 0-48.06-39.11-87.17-87.17-87.17z"/><linearGradient id="b" gradientUnits="userSpaceOnUse" x1="58.612" y1="79.697" x2="58.612" y2="91.435"><stop offset="0" stop-color="#1B1440"/><stop offset=".819" stop-color="#ED1E79"/></linearGradient><path fill="url(#b)" d="M55.264 63.322c.94 1 2.165 1.55 3.448 1.55 1.16 0 2.282-.456 3.162-1.283.97-.92 1.487-2.13 1.454-3.42-.02-.8-.264-1.98-1.308-3.08-.922-.98-2.157-1.52-3.475-1.52-.966 0-1.905.28-2.792.84-1.488.94-2.184 2.75-1.713 4.45.24.86.513 1.69 1.224 2.45z"/></g><path fill="#FFF" d="M125 221.967c-48.065 0-87.168-39.104-87.168-87.168 0-48.07 39.104-87.17 87.168-87.17 48.064 0 87.168 39.1 87.168 87.17 0 48.06-39.104 87.16-87.168 87.16z"/><linearGradient id="c" gradientUnits="userSpaceOnUse" x1="124.999" y1="78.627" x2="124.999" y2="270.061"><stop offset="0" stop-color="#1B1440"/><stop offset=".819" stop-color="#ED1E79"/></linearGradient><circle fill="url(#c)" cx="125" cy="134.799" r="83.168"/><path fill="#FFF" d="M116.684 205.94s-.505 9.288 16.496 11.622c8.195-.8 16.037-2.8 23.36-5.803 2.468-2.36 3.606-4.98 3.135-7.1-1.28-5.76-42.99 1.28-42.99 1.28z"/><path fill="#FFF" d="M120.688 217.855c1.428.074 2.865.11 4.312.11 5.3 0 10.474-.517 15.496-1.462l.05-5.127-21.208-.768 1.35 7.247z"/><path fill="#D0D1D2" d="M120.937 201.4s-.41 7.496 13.35 9.344c13.763 1.85 22.183-5.75 21.155-10.37-1.027-4.622-34.505 1.026-34.505 1.026z"/><path fill="#FFF" d="M153.02 181.244c-7.257-6.006-4.126-29.557-4.126-29.557l-24.245 1.908s8.41 15.557 1.24 31.232c-7.36 16.084-9.14 20.053 16.37 18.426 4.83-.705-3.51-1.06 1.02-2.56 15.65-7.916 15.54-14.638 9.72-19.45z"/><path fill="#D0D1D2" d="M145.172 157.04s-2.757 16.083 7.12 26.65c9.88 10.563-15.85 14.93-15.85 14.93l-6.948-12.407s5.57-18.604.746-27.563l14.932-1.61z"/><path fill="#1F4AB5" d="M126.31 162.9l10.565 4.024 2.808 40.615-24.807-.14"/><path fill="#1F4AB5" d="M150.26 161.512l-9.572 5.1-1.79 40.697 23.79.09M133.156 75.11s-40.464 46.254-18.968 94.365l-11.516 2.045s-37.49-37.873-23.16-71.652"/><path fill="#0F3C96" d="M78.554 108.888s-.192 33.78 25.334 54.506l5.374.193 2.88-.18-2.304-8.65s-23.223-49.9-31.284-45.87z"/><g fill="#6593EF"><path d="M116.46 172.322c-.137-.64-.63.217-.448-.586l-.117.184c.05-.383.084-.77.084-1.168 0-.06-.01-.115-.01-.172.07-.182.03-.465-.04-.723-.04-.428-.13-.842-.23-1.248l.12-.01c-.08-.05-.14-.15-.19-.25-.03-.09-.05-.19-.08-.28 0-.07.02-.13.06-.17.3-.05.27.48.36.69-.21-.93.36-1.18-.21-1.87l-.03.17c-.49-.35-.36-1.02-.6-1.43.12.08.24.03.26-.06-.83-.7-1.29-1.67-2.37-2.26l-.07-.51-.17.2c-.53-.27.12-.4-.22-.59.13.07.08.09.07.16-.45-.6-.47.01-.76-.24.02.32.59.43.24.66-.42-.56-1.4-.93-1.26-1.53-.67-.07-1.33-.36-2-.57-.69-.15-1.36-.34-1.92-.4-.15.12.09.08.03.17-.45-.33-1.43.39-1.46.07-.2.11-.24.36-.28.45-.3-.15-.63-.08-.98-.04l.27.02-.02.05-.38-.02V161c-.42.1-.9.19-1.33.37-.42.19-.85.34-1.3.39.52-.04.1.39.36.4-.65-.31-1.43.37-2.02.92.08.074.09.18.22.18 0 0-.5.134-.49.153l.13.04c-.42.69-1.53 1.01-1.59 1.655.22-.27.31-.205.48-.13-.31.493-.57.972-1.04 1.52.04-.02.09-.03.12-.01-.06.17-.25.32-.36.48l.23.11c-.22.29-.23.76-.55 1.11.18.2-.47.94-.39 1.464-.08.18.34-.37.27.14-.57.03-.08.67-.69.696-.02 0 .22.48.23.47l-.3.11c.6.37-.2.64.05 1.24.06-.04.07-.11.12-.082-.04.2-.03.66-.22.34-.03.34.24 1.43.38.88-.16.07-.15-.4-.14-.6.26-.03.3.45.61.49-.03.02-.05.09-.08.14l.17.02c-.08.64.23 1.17.12 1.69.08-.01.19.052.27.24l-.29.16.32.57.27-.495c.39.56.18 1.28.53 1.78.52-.24.55 1.07 1.3 1.05-.01.01-.23-.4-.22-.41.62.74.98.55 1.54 1.26-.7-.33-.62-.39-1.79-.82 1.02.55 1.29 1.61 2.44 1.81 0-.15-.19-.34.1-.34.04.35.85.45.58.68.34.05.5-.19.69-.16l.89.7-.02-.07c.98-.03 1.75.14 2.6.4.42.16.85.25 1.3.25.45.02.91-.01 1.36-.15l-.07-.16c0 .02.51.17.51.15-.39-.06.11-.25.09-.41l1.25.01c-.03-.15-.21-.45-.46-.31.36-.3.94-.08 1.29-.27l-.18-.08.4-.07-.1-.19c.61-.23 1.22-.76 1.57-.66l-.26-.24.7-.21-.45.06c.55-.52 1.6-1.08 1.67-1.26l-.14-.03c.03-.14.15-.15.27-.23l-.21-.05c.38-.42.54-.76.7-1.09.13-.36.25-.73.64-1.23.12-.32-.15.14-.25.1-.05-.24.28-.54.41-.6-.33-.03-.48.44-.52 0 .26-.17-.34.05-.07-.34 0 .01.42-.02.42-.02.02-.28-.27-.16-.11-.54.3-.4.24.72.53-.02.07-.41-.56-1.01-.28-1.66zm-18.927 3.192l-.106-.25c.103.105.275.132.106.25zm.842-1.192c-.047-.168-.1-.2.1-.258.056-.11-.088-.2-.032-.31.268.254-.047.348-.068.568zm17.123-6.45c.01-.02.038-.028.04-.052-.004.057 0 .115.004.172-.012-.04-.03-.078-.044-.12zm-.307-1.32c-.02.222.62.628.32.964.01-.004-.18-.453-.2-.443.04.184.08.36.09.525-.11-.297-.23-.588-.38-.87.03-.054.07-.12.18-.175zm-.75-1.28c0-.167-.18-.382-.02-.522.43.135.29.504.41.72l-.17-.044c.07.29.03.47-.02.61-.04-.064-.07-.128-.11-.19.01 0 .02-.01.03-.01-.21-.333-.52-.84-.43-1.226.35.076.19.69.34.663zm-.88-1.46l-.06.313-.24-.227.31-.087zm-.11.56c.07.12.13.237.19.356-.28-.313-.58-.615-.91-.885-.05-.164-.09-.338-.3-.39v.157c-.09-.068-.18-.14-.27-.203 0-.033-.02-.104-.08-.252.53.283.99.74 1.39 1.216zm-3.29-2.106l.13-.098.18.074-.3.024zm-1.23-.41c.07.062.14.132.2.198-.28-.068-.57-.123-.86-.164-.02-.023-.05-.045-.08-.07.22-.226.49-.154.74.037zm-2.15-.567c.35-.38 1.05.69.89-.24.15.12.6.4.42.54-.37-.07-1.09-.11-1.35.13.02-.06.01-.13-.03-.19.15.04.36-.02.46-.08-.05-.15-.28-.11-.37-.18zm-.97.52c.03.02.07.03.1.06-.17.02-.35.05-.52.08.09-.1.33-.13.42-.14zm-3.32-.06l.2.02c-.31.32-.18.1-.19-.02l-.23-.02c.18-.08.23-.05.24.02zm.04.35c-.19.13-.7.46-.64.4-.05-.19.46-.44.64-.41zm-.41 1.15l-.01.01c-.12-.01-.23-.04-.27-.15.27-.06.22.08.29.13zm-2.05 1.43c.32-.12.11-.24.18-.4l.14.27c-.4.22-.55.13-1.05.19.18-.46.62-.25.73-.08zm-.85-.26c-.03.28.28.56-.26.56l.26-.56zm-1.01 7.8l.06.36c-.08 0-.16.01-.3 0 .13-.12.2-.25.24-.37zm.29 4.25c-.02-.13-.04-.2-.1-.27-.08.12-.11.45-.24.31.06-.2-.11-.6.07-.71-.01.45.62.35.28.66zm.55-1.29c.08-.07.11-.15.11-.22.02.04.05.08.07.12-.03.04-.07.09-.17.1zm1.67 3.06l.06-.2.08.03-.18-.32c.52.08.45.66.59.89-.15-.15-.28-.87-.54-.41zm1.39-.05l.05.03-.01.04c-.02-.02-.02-.05-.04-.08zm1.52 2.19c.23.23.45-.11.57.33-.37.22-.46-.16-.57-.33zm.85.09c.46.02-.12-.4.19-.42l-.22-.04c.41-.13.19.33.46.34l-.18-.01c-.18.17.23.22.23.4-.22.03-.65-.28-.47-.27zm4.23-.74c.06-.05-.03-.15-.16-.2.14-.03.28-.05.42-.08.01.11-.14.12-.25.27zm4.82-1.23c.1-.31.16-.28.34-.35.02.1-.15.27-.34.34zm.43-.17c.19-.46.47-.06.68-.25-.11.42-.38.06-.67.24zm1.6-4.65c-.02.01-.04 0-.06 0 .03-.09.07-.17.09-.25.04.01.07.04.09.11l-.11.13zm.98-4.56c-.01.26-.21.23-.07.5l.07-.5z"/><path d="M116.146 169.398l-.03-.27-.122.27m-19.086 4.152l-.133-.017c.054.13.097.088.133.018zm.092-5.24c.02-.022.03-.036.047-.054-.03-.03-.077-.055-.147-.068l.1.12zm.07 7.262c.07-.11.11-.215.136-.313-.098.01-.17.13-.137.31zm.343-8.79c.05-.085.116-.15.175-.226-.075.034-.173.1-.175.227zm6.77-5.76l-.01.03.12-.026"/></g><path fill="#FFF" d="M131.25 168.506l-.422.674c-.27.436-.706 1.098-1.162 1.887-.95 1.568-2.293 3.975-3.847 6.877-1.57 2.908-3.35 6.363-5.46 10.06-1.05 1.847-2.19 3.755-3.5 5.665-1.31 1.9-2.73 3.84-4.6 5.65l-1.51 1.31c-.57.41-1.14.82-1.75 1.2-1.29.71-2.74 1.36-4.41 1.54-.41.04-.82.09-1.23.11l-1.24-.1c-.85-.04-1.58-.3-2.33-.53-1.46-.51-2.71-1.24-3.75-2.03-2.11-1.58-3.64-3.33-4.91-5-1.31-1.67-2.33-3.31-3.26-4.82-1.8-3.04-3.08-5.61-3.94-7.42l-1.34-2.85 7.6-3.25 1.14 2.71c.73 1.72 1.83 4.15 3.3 6.91.76 1.35 1.59 2.81 2.57 4.19.96 1.39 2.09 2.72 3.27 3.69 1.21 1 2.28 1.42 3.29 1.34 1.03-.03 2.46-.77 3.84-2.01 1.38-1.22 2.69-2.81 3.91-4.45 1.23-1.65 2.37-3.38 3.44-5.11 2.15-3.44 4.07-6.81 5.78-9.69 1.7-2.89 3.16-5.27 4.29-6.98.55-.86.98-1.46 1.28-1.89l.45-.66 4.44 2.93z"/><ellipse transform="rotate(90.1 133.6 124)" fill="#FFF" cx="133.589" cy="123.967" rx="37.279" ry="46.525"/><ellipse transform="rotate(84.7 133.8 124)" fill="#D0D1D2" cx="133.836" cy="123.996" rx="31.373" ry="41.126"/><ellipse transform="rotate(90.5 156.1 121.2)" fill="#FFF" cx="156.052" cy="121.152" rx="17.431" ry="17.684"/><ellipse transform="rotate(90.5 117.7 121.6)" fill="#FFF" cx="117.707" cy="121.588" rx="19.561" ry="19.691"/><path fill="#919396" d="M95.826 102.162c.01-.012-5.998 8.136-6.138 10.87l-1.245-2.23s-9.338-14.677 7.383-8.64z"/><path fill="#D0D1D2" d="M100.103 99.843s-9.04-6.49-15.365-2.837c0 0-8.255 6.424 2.348 17.858l2.56 3.074s2.123-1.44 1.837-4.755c0 0-12.226-14.933 5.414-9.474 0 0 2.885-.09 3.206-3.87z"/><path fill="#919396" d="M169.824 102.162c-.01-.012 5.998 8.136 6.14 10.87l1.243-2.23s9.338-14.677-7.383-8.64z"/><path fill="#D0D1D2" d="M165.55 99.843s9.038-6.49 15.364-2.837c0 0 8.255 6.424-2.35 17.858l-2.558 3.074s-2.124-1.44-1.84-4.755c0 0 12.228-14.933-5.412-9.474 0 0-2.885-.09-3.205-3.87z"/><path fill="#0071BC" d="M114.88 107.443c7.856-1.44 15.39 3.764 16.83 11.62 1.44 7.855-3.76 15.39-11.616 16.828-7.856 1.45-15.39-3.76-16.83-11.61-1.44-7.85 3.76-15.39 11.615-16.83z"/><path fill="#0F4481" d="M113.52 111.94c4.035-.738 7.906 1.934 8.645 5.97.74 4.034-1.932 7.905-5.967 8.64-4.036.743-7.907-1.93-8.645-5.963-.74-4.037 1.93-7.908 5.968-8.646z"/><circle fill="#FFF" cx="116.527" cy="118.94" r="3.948"/><circle fill="#FFF" cx="107.498" cy="119.556" r="1.922"/><circle fill="#0071BC" cx="153.564" cy="120.017" r="12.923"/><path fill="#0F4481" d="M150.02 111.327c3.607-.663 7.065 1.724 7.727 5.33.66 3.606-1.727 7.063-5.334 7.727-3.604.66-7.063-1.726-7.723-5.33-.662-3.61 1.724-7.066 5.33-7.727z"/><circle fill="#FFF" cx="152.705" cy="117.58" r="3.529"/><circle fill="#FFF" cx="144.636" cy="118.132" r="1.717"/><path fill="#D0D1D2" d="M138.69 132.11s-19.448-6.524-32.69 10.75l18.328 3.933 15.834-6.813-1.472-7.87z"/><path fill="#6D6F71" d="M130.813 139.105c.195-.053.373 1.37 1.663 2.943.596.807 1.694 1.492 2.9 1.55 1.202.067 2.553-.608 3.208-1.813l.26-.588.21-.936c.122-.56.245-1.13.367-1.68.8 4.1 1.45 4.03 2.32 4.28.2-.04.4-.03.6-.19.21-.11.42-.22.57-.4l.25-.24.18-.29c.14-.18.23-.38.3-.6.63-1.83.32-3.24.53-3.24.07-.01.2.31.3.91.1.6.17 1.5-.13 2.59-.31.97-1.05 2.14-2.57 2.36-.78.01-1.44-.45-1.89-.98-.12-.13-.23-.27-.32-.43l-.08-.13c-.01.03.03-.04-.03.07-.84 1.54-2.56 2.37-4.09 2.25-.77-.04-1.47-.32-2.05-.68-.59-.34-1.04-.82-1.39-1.31-1.29-1.88-1.16-3.41-1.07-3.39z"/><path fill="#0B8ECC" d="M139.602 133.25s-2.06-4.205-4.86 3.21l4.66 4.01 4.073-3.647c0-.003-2.614-6.884-3.873-3.573z"/><path fill="#FFF" d="M135.682 136.396l2.006 1.713s-.448-2.5-2.006-1.72zm5.542 1.74l1.42-1.14s-1.044-.516-1.42 1.14z"/><path fill="#D0D1D2" d="M95.188 129.553s15.322-10.205 43.056-11.835l-7.294-20.73-14.01 1.857-12.027 4.86-6.142 7.935-3.58 17.913z"/><path fill="#D0D1D2" d="M141.762 99.868l-3.71 18.233s18.232-1.4 36.21 6.08l-.32-5.69s-1.344-8.15-3.84-9.79c-2.495-1.63-19.447-12.67-28.34-8.83z"/><path fill="#6593EF" d="M140.482 76.326s4.86-1.792 6.142 5.117 10.236 2.815 14.33 11.26c0 0 .608 1.695-.83 2.08s-28.087-8.605-73.38 31.188c-.216.19 0 0 0 0s-5.886 1.79-4.607-6.91c1.28-8.7-6.717-7.99-2.624-12.85 3.93-4.66 34.545-26.09 58.06-29.53.984-.14 1.954-.26 2.91-.34z"/><path fill="#1F4AB5" d="M142.273 78.117s-2.56-8.19-11.516-6.91c-8.956 1.28-49.133 9.47-52.204 32.5 0 0 1.792 5.117 3.327 5.374 1.537.26 60.393-30.96 60.393-30.96z"/><path fill="#6D6F71" d="M132.602 139.24c0-.002-.25.01-.592.053-.174 0-.37.043-.574.078-.21.01-.403.1-.612.14-.16.13-.394.13-.53.26-.12.14-.336.18-.42.32-.2.25-.41.43-.41.43l-.035.03c-.06.05-.15.04-.2-.02-.03-.02-.04-.06-.04-.09 0 0 .01-.26.15-.68.05-.21.25-.4.44-.61.19-.2.47-.33.74-.46.27-.05.56-.14.82-.14.26 0 .5.02.7.06.4.08.64.21.64.21l.01.01c.11.07.16.22.09.33-.05.08-.12.12-.2.13zm7.314 7.242c-.002 0 .256-.086.6-.234.183-.055.375-.156.578-.258.217-.074.395-.23.6-.34.133-.176.374-.26.475-.44.08-.185.29-.302.33-.478.12-.326.27-.578.27-.578l.02-.037c.04-.064.12-.086.19-.047.03.02.05.055.06.09 0 0 .06.283.04.754 0 .236-.14.488-.27.76-.14.268-.38.48-.62.697-.27.15-.53.33-.8.41-.27.09-.52.15-.74.17-.44.06-.73 0-.73 0h-.02c-.13-.02-.22-.15-.19-.28.02-.09.08-.15.16-.18z"/><circle fill="#FFF" cx="84.951" cy="70.182" r="1.271"/><circle fill="#FFF" cx="160.698" cy="81.443" r="1.271"/><circle fill="#FFF" cx="62.021" cy="112.549" r="1.271"/><circle fill="#FFF" cx="62.021" cy="142.549" r="1.271"/><circle opacity=".3" fill="#FFF" cx="175.029" cy="86.562" r="1.588"/><circle opacity=".3" fill="#FFF" cx="129.99" cy="60.714" r="1.588"/><circle opacity=".3" fill="#FFF" cx="51.751" cy="131.215" r="1.589"/><circle opacity=".3" fill="#FFF" cx="79.084" cy="148.883" r="1.589"/><path fill="#FFF" d="M73.623 167.416c12.376 9.244 4.348-3.025 2.08-7.373-2.647-5.104 1.89-8.127 5.86-3.97 2.834 3.024 4.442 9.735 5.576 13.515 0 0 8.04-10.252 11.62-5.67 1.51 1.938 1.51 4.82-1.33 5.576-3.68 1.002-5.29 1.566-6.13 5.076 1.49 4.387-.28 6.33-2.85 7.848-2.16 1.273-4.74 2.672-7.66.877-.79-.53-1.29-1.303-1.68-2.11l-.02.03-.11-.297c-.38-.848-.91-2.414-.91-2.414-.96-2.248-2.02-3.342-5.41-3.904-2.84-.566-7.38-.38-8.7-3.78-1.89-5.484 5.86-6.23 9.64-3.404z"/><path fill="#D0D1D2" d="M87.14 169.588s-1.89 2.223-3.426 7.87c0 0 .92-4.796.542-4.94 0 .002.946-1.89 2.884-2.93"/><path fill="#1F4AB5" d="M132.294 168.463l-.353.623c-.21.396-.59 1.023-.96 1.734-.76 1.404-1.86 3.61-3.13 6.25-1.29 2.705-2.8 5.86-4.41 9.24-1.71 3.428-3.56 7.123-6.17 10.86-1.33 1.862-2.83 3.76-4.95 5.54-1.07.885-2.32 1.738-3.83 2.414-1.5.662-3.29 1.164-5.12 1.186-.46.012-.91.01-1.37-.002-.44-.035-.87-.11-1.31-.182-.43-.076-.86-.16-1.29-.252-.39-.117-.76-.252-1.14-.387-.76-.27-1.51-.566-2.1-.916-.6-.33-1.28-.68-1.79-1.05-1.02-.73-2.03-1.48-2.77-2.21l-1.16-1.09-.97-1.06c-.31-.34-.62-.69-.92-1.02-.26-.33-.52-.66-.77-.97-.49-.63-1-1.24-1.39-1.81-.77-1.13-1.51-2.13-2.01-2.95l-1.61-2.57 14.01-7.21 1 2.23c.31.72.74 1.48 1.21 2.43.23.48.51.89.78 1.38l.43.73.46.67c.16.23.32.47.48.71l.48.61c.33.47.64.73.95 1.08.61.56.88.73.89.85 0 .15.55.24 1.58-.38 1-.57 2.2-1.64 3.35-2.86 2.33-2.49 4.54-5.65 6.58-8.65l5.58-8.49c1.67-2.54 3.09-4.61 4.2-6.13.54-.77.95-1.26 1.23-1.65l.43-.57 5.95 3.93z"/><path fill="#0F3C96" d="M126.343 164.535l2.274 3.42 3 .25-2.125 3.75 9.425 11.885-2.073-18.354-10.535-2.586m24.16.368l-1.61 4.187-3.06.656 2.12 3.75-8.98 11.98 1.7-18.66 9.59-3.65"/><path fill="#E53017" d="M187.436 189.71c-3.606-6.903-14.584-24.114-29.936-13.327 0 0-19.833 2.303-30.453 14.842 0 0-5.117-.254-5.245 1.408-.085 1.11 7.81 14.584 16.495 24.264 19.47-3.13 36.67-13.02 49.14-27.186z"/><path fill="#AF1E0B" d="M157.31 176.408c-.9.12-5.003.725-10.17 2.4 4.484 4.367 14.497 14.88 20.863 27.19 2.75-1.667 5.384-3.5 7.915-5.462-4.998-7.946-12.69-19.304-18.61-24.128z"/><path fill="#1F4AB5" d="M182.82 193.963c-.303-.84-.61-1.697-.926-2.57-.57-1.748-1.435-3.496-2.226-5.27-.37-.896-.905-1.75-1.37-2.623-.5-.863-.92-1.754-1.492-2.588-1.104-1.68-2.197-3.348-3.502-4.87-.61-.778-1.236-1.536-1.947-2.23-.696-.698-1.33-1.417-2.053-2.056-.734-.623-1.46-1.236-2.166-1.836-.72-.586-1.52-1.076-2.248-1.586-.715-.52-1.503-.938-2.266-1.33-.77-.39-1.457-.813-2.243-1.072l-2.17-.807c-.73-.19-1.43-.342-2.08-.488-.33-.068-.64-.135-.95-.197-.36-.03-.7-.063-1.03-.09-.66-.05-1.27-.078-1.81-.096-.3-.02-.48.002-.64.025-.17.02-.33.03-.48.05l-.76.09c-.41.05-.21.87-.21.87l-.1 6.33s.22.01.64.02c.21 0 .47.01.77.02l.49.01c.19 0 .37.01.45.06.23.08.47.16.73.23l.41.09.55.23 1.21.48 1.31.75c.46.21.9.62 1.37.95.47.33.95.68 1.4 1.15.45.45.95.84 1.4 1.35l1.35 1.56c.45.53.84 1.17 1.27 1.75.44.58.82 1.23 1.19 1.89.8 1.27 1.43 2.7 2.08 4.11.34.69.55 1.46.84 2.18.26.74.57 1.43.75 2.19.4 1.5.87 2.92 1.1 4.41l.42 2.13c.14.69.18 1.41.27 2.08.16 1.35.35 2.61.36 3.83l.06 1.25c4.47-2.93 8.64-6.28 12.46-9.99-.05-.15-.09-.31-.14-.46z"/><path fill="#D0D1D2" d="M127.59 194.775c-2.558-2.56-6.044.096-6.044.096-9.596 5.64 7.805 14.78 7.805 16.96s4.1 2.82 4.1 2.82.74 1.1 1.85 2.67c3.54-.43 7.01-1.07 10.4-1.94-6.43-8.18-16.36-18.85-18.1-20.59z"/><path fill="#FFF" d="M62.052 102.868s-.164-1.877-.57-2.313c-.413-.435-2.29-.706-2.29-.706s1.905-.19 2.34-.61c.422-.41.666-2.27.666-2.27s.153 1.86.553 2.29c.42.44 2.31.72 2.31.72s-1.83.14-2.26.54c-.44.41-.74 2.33-.74 2.33zm2.208 35.054s-.256-2.947-.895-3.63c-.647-.685-3.592-1.11-3.592-1.11s2.99-.295 3.672-.955c.663-.645 1.046-3.553 1.046-3.553s.24 2.922.87 3.6c.65.695 3.62 1.14 3.62 1.14s-2.88.222-3.55.843c-.7.655-1.16 3.665-1.16 3.665zm87.974-64.68s-.258-2.946-.896-3.63c-.646-.683-3.592-1.11-3.592-1.11s2.988-.293 3.672-.953c.662-.65 1.045-3.56 1.045-3.56s.24 2.92.87 3.6c.647.69 3.62 1.14 3.62 1.14s-2.885.22-3.554.84c-.71.65-1.17 3.66-1.17 3.66z"/><path fill="#0F3C96" d="M124.587 170.615l.08-.316 1.268-5.23-.025.03c-.286.38-.69.88-1.233 1.65-1.113 1.52-2.53 3.59-4.206 6.13l-.03.06c1.04 3.55.32 12.6.32 12.6l3.84-14.94zm28.35 1.31s-3.187-.814-3.624-.064.313 6.44.313 6.44l5.063-.87-1.76-5.5z"/><circle fill="#FFF" cx="186.544" cy="153.607" r="1.271"/><circle opacity=".3" fill="#FFF" cx="179.379" cy="169.984" r="1.588"/><path opacity=".3" fill="#FFF" d="M199.904 138.508c0 .88-.71 1.59-1.588 1.59s-1.59-.71-1.59-1.59c0-.875.713-1.588 1.59-1.588s1.588.713 1.588 1.588z"/><path fill="#FFF" d="M178.344 151.492s-.164-1.877-.57-2.313c-.412-.44-2.288-.71-2.288-.71s1.903-.19 2.34-.61c.42-.41.665-2.26.665-2.26s.16 1.86.56 2.29c.42.44 2.31.72 2.31.72s-1.83.14-2.26.53c-.45.42-.74 2.33-.74 2.33z"/><linearGradient id="d" gradientUnits="userSpaceOnUse" x1="31.004" y1="110.834" x2="31.004" y2="149.643"><stop offset="0" stop-color="#1B1440"/><stop offset=".819" stop-color="#ED1E79"/></linearGradient><path fill="url(#d)" d="M21.312 141.448c1.046-.145 2.16.036 3.34.54 1.272.535 2.113 1.24 2.522 2.117l.045.327c-.07.01-.16.06-.27.152-.11.094-.21.146-.3.157-.07.01-.22-.05-.46-.2-.17-.09-.33-.16-.47-.23-.39-.21-.96-.49-1.72-.83-.87-.32-1.78-.42-2.74-.29-.81.11-1.19.34-1.14.69.06.44.11.72.15.85.05-.07.07-.21.04-.4.66.96 2.31 2.15 4.95 3.58.01.09 0 .15-.03.19-.03.04-.04.07-.04.09.72.13 1.76.43 3.12.91 1.51.53 2.41.83 2.7.91.29.08 1.03.39 2.24.91 1.04.01 2.48.14 4.31.37.03-.09.28-.2.75-.34.64-.17 1.1-.32 1.39-.44s.58-.48.9-1.09c.31-.61.45-1.09.4-1.44-.07-.52-.38-1.06-.92-1.6-.47-.47-.82-.73-1.08-.78-.74-.03-1.84-.03-3.3-.01-.01-.04-.05-.12-.14-.25-.04.07-.05.14-.04.2-1.13-.13-2.25-.26-3.35-.37-1.83-.23-2.76-.43-2.78-.58-.07-.5.35-.95 1.24-1.37.08-.01 1.09.12 3.02.39.06-.01.32-.16.77-.47.44-.3.78-.43 1.01-.37.1.08.38.05.83-.08.46-.13.79-.05.98.23.09-.01.12-.08.1-.21.34.09.79.33 1.33.72.11-.15.22-.23.33-.24l.05.33c.56.17 1.02.39 1.39.65.17.11.47.12.91.04.01.09-.02.16-.08.21.14.09.34.13.6.12.25-.01.43.04.53.16-.12.26-.14.44-.06.54.08-.07.18-.22.31-.44.28.1.52.22.72.37-.07.01-.17.01-.32.01s-.25 0-.32.01c-.83.12-1.21.37-1.16.76.03.24.11.5.24.77.06-.19.07-.35.03-.5.3.41.46.68.48.84.04.3.05.98.02 2.03-.02-.31-.09-.54-.2-.71-.07.14-.06.55.04 1.23.01.05-.05.11-.17.21-.12.1-.18.19-.16.27.01.06.08.09.21.07-.43.26-.75.58-.96.97-.27.46-.46.74-.58.85-.13.02-.22.06-.25.13-.02.03-.06-.01-.12-.11-.13.2-.24.3-.33.31-.07.01-.15 0-.24-.03-.11.15-.14.25-.09.28-.22.03-.55.12-1 .26-.45.14-.7.22-.74.22-.68.09-1.6.03-2.76-.19-1.35-.24-2.12-.36-2.32-.35-5.45-1.32-9.59-3.12-12.44-5.42-1.12-.89-1.72-1.58-1.79-2.08-.05-.33.05-.78.3-1.36.24-.58.58-1.07 1.01-1.46-.09.12-.05.24.12.35.04-.03.04-.19 0-.47.79-.33 1.24-.51 1.32-.52zm8.488 8.193l-.164.03.036.26.164-.02-.036-.26zm1.114-6.31l-.138.09.142.22.184-.02-.188-.27zm1.07 7.18l-.095.28.14.05.09-.28-.14-.04zm9.816-3.71c.14.21.197.39.174.55.044 0 .158-.14.343-.41-.065.01-.15-.01-.258-.06-.11-.05-.2-.07-.26-.06zm.434.74l-.163.03-.02.57.17-.02.02-.57z"/><linearGradient id="e" gradientUnits="userSpaceOnUse" x1="36.688" y1="110.834" x2="36.688" y2="149.643"><stop offset="0" stop-color="#1B1440"/><stop offset=".819" stop-color="#ED1E79"/></linearGradient><path fill="url(#e)" d="M33.897 128.75c.154.002.407.05.757.144.044 0 .297-.006.76-.02.31-.018.516.084.622.306.045-.065.068-.13.07-.197l.95.38c.088 0 .154-.02.2-.064-.09.08-.048.21.124.39.067-.07.1-.13.102-.2.132 0 .252.06.36.17-.132 0-.2.04-.2.13.484 0 1.02.26 1.605.75 1.064.9 1.672 1.4 1.824 1.51 0 .02-.03.06-.1.13s-.1.12-.1.16c.09.07.21.02.37-.13.88 1.22 1.32 1.91 1.32 2.06 0 .06.01.21.04.43s.05.37.05.46.02.12.05.1c.04-.02.05 0 .05.08 0 .07.01.28.04.61.03.33.04.52.04.59 0 .26-.22.71-.65 1.34-.11 0-.16.07-.17.23 0 .35-.37.63-1.1.84-.48.12-.98.25-1.49.37.01-.28.02-.42.04-.39-.2.26-.4.39-.6.38-.9-.02-2.32-.68-4.26-1.99-2.26-1.51-3.38-2.93-3.36-4.25 0-.07.06-.17.17-.3-.17-.11-.26-.3-.25-.56.01-.29.11-.48.32-.59.21-.11.41-.2.61-.29 0 .02.07.14.22.37.15.22.22.39.21.5 0 .39.38.99 1.16 1.8.43.4.86.81 1.28 1.24s1.23.94 2.43 1.55c1.2.62 2.1.93 2.72.94.2 0 .46-.15.78-.47.33-.31.49-.57.49-.77 0-.09-.03-.27-.09-.55s-.09-.46-.09-.54c.01-.33-.16-.74-.51-1.23-.47-.71-.72-1.08-.74-1.1-.26-.03-.5-.21-.7-.54-.2-.33-.4-.5-.6-.51-.06-.09-.03-.2.11-.33-.15 0-.33-.04-.53-.11-.41-.45-.97-.78-1.7-.99-.63-.19-1.02-.43-1.17-.71-.02 0-.05-.01-.1-.04-.02-.02-.03-.02-.03 0v.13c0 .09-.46.14-1.39.17-.88.03-1.39.02-1.55-.03-.11.11-.13.2-.07.26-.02 0-.13.03-.33.09s-.36.07-.49.03c-.04.04-.07.17-.07.39-.13.02-.36-.02-.69-.11.25-.66.54-1.18.85-1.57.29 0 .46.07.53.21.27-.26.47-.35.6-.28.04-.05.07-.14.07-.3.13 0 .36-.03.68-.09.32-.07.53-.1.61-.09zm-2.458.95l-.2-.004-.01.462.2.003.01-.46zm4.92-.25l-.14.07.13.26h.13l-.13-.33zm5.46 8.14l-.06.115.21.12.05-.115-.21-.12zm.27-3.922l-.17-.003-.01.56.16.004.01-.57zm.04 3.466l-.01.363-.1-.002v-.363l.1.002z"/><linearGradient id="f" gradientUnits="userSpaceOnUse" x1="37.798" y1="110.834" x2="37.798" y2="149.643"><stop offset="0" stop-color="#1B1440"/><stop offset=".819" stop-color="#ED1E79"/></linearGradient><path fill="url(#f)" d="M35.673 115.628c.152.024.396.106.73.247.043.007.295.035.755.084.308.02.5.15.574.39.054-.06.086-.12.096-.19l.89.5c.087.01.156 0 .206-.04-.1.07-.077.21.07.41.075-.06.118-.12.128-.18.13.02.24.09.333.22-.13-.03-.202.01-.216.1.47.07.97.39 1.48.96.93 1.03 1.46 1.62 1.6 1.75-.01.02-.05.06-.12.11s-.12.1-.13.14c.07.08.2.05.38-.08.7 1.33 1.04 2.08 1.02 2.23-.01.06-.02.21-.02.43s-.01.38-.02.46c-.02.08-.01.12.03.1.03-.02.04.01.03.09-.02.07-.03.28-.05.61-.02.33-.04.53-.05.59-.04.26-.32.67-.83 1.24-.11-.02-.18.05-.2.2-.06.35-.46.57-1.21.68-.5.06-1.01.11-1.53.16.04-.28.07-.41.09-.39-.24.23-.45.33-.65.3-.89-.14-2.21-.99-3.95-2.55-2.04-1.81-2.95-3.37-2.75-4.67.01-.07.08-.16.21-.27-.16-.14-.22-.34-.18-.6.04-.28.17-.46.39-.54.22-.08.43-.14.65-.2 0 .02.05.15.16.39s.15.42.14.52c-.06.39.24 1.04.89 1.94.37.46.73.93 1.09 1.4.36.48 1.09 1.1 2.19 1.88 1.1.77 1.96 1.2 2.56 1.3.2.03.48-.09.84-.36s.56-.5.59-.69c.01-.09.01-.27-.02-.56-.02-.28-.03-.47-.01-.55.05-.33-.06-.76-.34-1.29-.37-.77-.57-1.16-.58-1.19-.26-.06-.47-.27-.62-.63-.16-.36-.33-.55-.53-.58-.06-.1-.01-.2.15-.31-.16-.02-.33-.08-.51-.18-.35-.5-.86-.9-1.55-1.21-.6-.27-.96-.56-1.07-.87-.02 0-.05-.02-.09-.05-.02-.02-.03-.03-.04 0l-.02.13c-.02.08-.48.08-1.4-.02-.88-.09-1.39-.17-1.53-.24-.13.09-.16.17-.11.25-.02 0-.14.01-.34.05-.21.03-.37.02-.5-.05-.05.04-.09.16-.12.38-.14 0-.36-.07-.67-.2.34-.62.69-1.1 1.06-1.44.28.04.44.13.49.27.3-.22.51-.29.63-.2.05-.04.08-.13.11-.28.13.02.36.02.68 0 .33-.02.53-.02.62-.01zm-2.565.603l-.196-.03-.07.46.195.03.07-.45zm4.91.43l-.143.06.09.28.132.02-.08-.34zm4.293 8.82l-.07.11.2.15.07-.1-.19-.14zm.38-.41l-.05.36-.1-.01.06-.35.1.02zm.44-3.44l-.16-.02-.08.56.17.03.09-.55z"/><linearGradient id="g" gradientUnits="userSpaceOnUse" x1="36.315" y1="110.834" x2="36.315" y2="149.643"><stop offset="0" stop-color="#1B1440"/><stop offset=".819" stop-color="#ED1E79"/></linearGradient><path fill="url(#g)" d="M28.12 96.872c.168.052.522.473 1.06 1.262.02.006.094-.005.218-.036 1.266.97 2.947 2.378 5.045 4.228.436.228.926.542 1.47.94.813.645 1.298 1.014 1.453 1.108.553.15 1.253.527 2.1 1.136 1.167.846 1.848 1.323 2.045 1.43.61.352 2.02 1.08 4.23 2.188 0 .09.01.24.05.447.04.208.05.364.01.47-.02.062-.08.158-.19.285-.11.127-.17.232-.2.316-.02.084-.01.142.05.17.06.03.08.088.05.17-.02.085-.07.118-.13.098-.06-.02-.1-.018-.1.002.1.213.16.257.2.13-.08.114-.11.265-.1.452.01.257.01.406 0 .448-.02.084-.1.158-.22.224-.12.065-.2.14-.22.223-.02.083.01.11.1.082s.12-.002.1.082c-.06.19-.39.494-.99.916-.6.422-1.03.618-1.27.587-.18.22-.64.308-1.36.266-.64-.015-1.16-.085-1.56-.21-1.32-.412-2.53-1.283-3.62-2.612-1.17-1.445-1.56-2.788-1.18-4.028.03-.083.2-.364.52-.84s.5-.756.52-.84c.03-.084.06-.1.09-.043.04.034.08.047.13.04-.2-.157-1.62-1.24-4.24-3.254-1.8-1.39-3.1-2.51-3.9-3.36-.31-.28-.6-.56-.88-.83-.44-.44-.6-.85-.49-1.22.06-.19.26-.32.59-.39.33-.07.56-.09.68-.05zm5.857 6.622l-.136-.007.06.26.13.04-.05-.293zm3.92 3.29c-.17-.05-.39-.005-.666.14-.27.145-.45.343-.53.596-.36 1.177.19 2.383 1.64 3.62 1.09.937 2.16 1.566 3.18 1.885.09.026.28.007.59-.06.31-.064.49-.106.54-.125.06-.018.34-.213.84-.586.45-.322.7-.567.75-.736.13-.1.24-.133.34-.1-.08-.027-.1-.104-.06-.23.11-.336.17-.51.2-.526.04.083.11.137.19.163-.02-.076-.03-.17-.01-.28-.16-.144-.56-.407-1.2-.79.04-.127.09-.204.14-.233-.06.07-.16.156-.28.256l-.75-.235c-.23-.072-.35-.247-.36-.525-.2.074-.42.054-.63-.06-.24-.12-.46-.248-.67-.383-.37-.048-.96-.345-1.76-.893-.8-.545-1.28-.845-1.45-.897zm.15 5.853l-.07.116.213.205.07-.116-.212-.205zm2.466 1.077l-.05.158.602.29.05-.157-.602-.29zm1.905.315l-.157-.05-.07.25.16.05.08-.26z"/><linearGradient id="h" gradientUnits="userSpaceOnUse" x1="51.248" y1="110.834" x2="51.248" y2="149.643"><stop offset="0" stop-color="#1B1440"/><stop offset=".819" stop-color="#ED1E79"/></linearGradient><path fill="url(#h)" d="M48.69 61.903c-.077.527.006.92.25 1.18.242.262.336.553.28.872.076-.024.133-.063.174-.115.063.133.12.276.168.426.056.072.184.16.384.26-.122.155-.178.28-.167.372.08.068.14.054.15-.042.12.126.22.318.3.574l2.18 4.108c1.33 2.08 3.31 5.078 5.94 8.992.37.347.81.972 1.32 1.874.51.903.7 1.432.58 1.587-.44.56-1.06.77-1.88.63-.67-.1-1.14-.3-1.39-.58-.07.09-.22.14-.45.15-2.83-1.1-5.02-2.26-6.56-3.46l-2.65-2.08c-.09-.06-.24-.23-.46-.51-.22-.27-.4-.46-.54-.57-.21-.16-.43-.25-.67-.27.24.58.91 1.65 2 3.21 1 1.4 1.54 2.35 1.64 2.84.06 0 .11-.03.15-.08l.29.23c.05.04.3.45.76 1.23.48.89.77 1.39.86 1.52.53.47 1.13 1.2 1.81 2.18.72 1.05 1.14 1.83 1.25 2.37-.12-.09-.21-.06-.25.1.12.1.28.1.49.01-.21.26-.32.47-.35.61.04-.02.15-.14.33-.37l.36.29c.17.5.21.94.13 1.33-.13.02-.23-.01-.32-.08-.07-.05-.22-.31-.44-.77-.01-.03.02-.09.08-.18s.09-.18.1-.26c-.24.09-.38.13-.41.1l-.02-.14c-.03 0-.13.08-.3.22 0-.11-.07-.25-.22-.42-.11-.11-.12-.22-.04-.32-.02-.07-.06-.13-.12-.17l-.14.06c-.1-.05-.33-.34-.69-.88-.32-.13-.42-.16-.32-.08-.05-.04-.08-.11-.08-.21s-.03-.18-.07-.24c-.45-.43-.96-1.07-1.55-1.93-.88-.88-1.35-1.53-1.44-1.96-.09.01-.15.04-.18.07l-4.33-6.3c-.6-.95-1.45-2.49-2.53-4.63-.06-.18.13-.54.55-1.08.15-.19.44-.22.88-.11.33.12.59.25.78.4l5.82 5.2c.01.02.07.02.16 0l.52.41c.43.34 1.24.83 2.41 1.48 1.26.71 2.14 1.23 2.63 1.56.33.07.85.17 1.54.29-.54-1.2-1.52-2.84-2.94-4.91-1.61-2.3-2.9-4.41-3.87-6.35-.56-1-1.29-2.49-2.19-4.48.12-.15.29-.31.51-.48.01-.05-.01-.09-.07-.13-.12.08-.3.19-.55.33-.08-.32-.19-.72-.31-1.21 0-.14 0-.36-.01-.66-.01-.3-.02-.51-.03-.63.19.15.35.14.47-.01.04-.05.08-.12.12-.2.01-.05.03-.07.06-.08zm-2.132 11.96l-.12-.06-.002.217.104.082.018-.238zm1.616-12.744c.022.18.12.34.293.48l-.286.36c-.12-.13-.21-.23-.27-.3-.13-.22-.16-.4-.08-.53l.35-.02zm.366 1.67c-.062.01-.13-.01-.207-.06-.076-.05-.136-.06-.18-.04.034.03.067.11.1.24.092-.01.188-.06.287-.15zm5.152 24.85l-.145-.03-.064.24.13.1.08-.32zm.486 1.3l-.125-.06-.126.32.13.1.12-.37z"/><linearGradient id="i" gradientUnits="userSpaceOnUse" x1="62.236" y1="110.834" x2="62.236" y2="149.643"><stop offset="0" stop-color="#1B1440"/><stop offset=".819" stop-color="#ED1E79"/></linearGradient><path fill="url(#i)" d="M58.608 57.586c.287.304.294.585.022.84-.305.288-.623.255-.955-.098-.06-.064-.154-.323-.28-.78.493-.31.897-.298 1.213.038zm4.164 9.906c.662 1.312 1.348 2.81 2.06 4.497.567 1.37 1.058 2.39 1.474 3.05-.144.13-.218.25-.22.34.135.14.215.08.238-.18.158.42.41 1.14.753 2.14l-.313.29c-.093-.04-.224-.06-.394-.09l-.905-.96c.006-.22-.036-.38-.126-.47.16-.15.28-.23.38-.23l-.02-.21c-.27.07-.47.23-.6.47-.36-.6-.55-1.08-.59-1.44-.06-.07-.14-.05-.24.04-.37-.78-.82-1.92-1.37-3.43l-.34-.36c-.14-.21-.35-.76-.63-1.66-.29-.9-.38-1.39-.28-1.48.56-.23.93-.36 1.11-.37zm3.613 8.792l-.113-.12-.408.385.113.12.408-.39zm.084.33l-.38-.012-.01.14.35-.013.02-.12zm.16-.113l.08.43-.17.02-.08-.42.16-.02z"/><linearGradient id="j" gradientUnits="userSpaceOnUse" x1="72.474" y1="110.834" x2="72.474" y2="149.643"><stop offset="0" stop-color="#1B1440"/><stop offset=".819" stop-color="#ED1E79"/></linearGradient><path fill="url(#j)" d="M74.104 60.152c.385.51.924 1.77 1.62 3.782.64 1.832.984 2.964 1.035 3.395.14.88.28 2.03.41 3.45.02.53.02 1.33.02 2.38l.05.66c.02.31 0 .49-.05.53-.13.09-.1.16.06.2-.07.05-.15.07-.25.06-.07.16-.09.26-.07.29.03 0 .07 0 .12-.01-.03.07-.05.47-.05 1.19-.03.62-.09.97-.2 1.05-.07.05-.14.06-.19.02-.01.06.07.11.23.15-.08.08-.19.29-.35.61-.16.32-.26.5-.31.54-.06.04-.13.14-.23.3-.1.16-.19.26-.26.32-.05.04-.12.04-.19-.01s-.15-.04-.22.02-.09.11-.06.19c.03.07.01.13-.04.17-.09.07-.17.06-.23-.01-.07-.08-.11-.11-.13-.09-.09.06-.07.18.05.33-.21.02-.54-.03-.99-.16-.55-.17-.87-.36-.98-.58l.29-.22c.04.05.23.11.59.18l.21-.16c0-.06.04-.07.12-.01.07.05.15.09.24.1.02-.19.05-.29.06-.3.63-.48.94-1.8.92-3.97l.28.04c-.06-.45-.15-1.06-.25-1.81.1-.02.15-.11.16-.29.04-.34.09-.59.15-.74-.09-.02-.17 0-.22.04.04-.42-.01-1.08-.16-1.96-.1-.65-.05-1.09.16-1.33.05-.15.01-.18-.11-.09l-.16.12-.06.04-.18-.23c-.05-.07-.09-.32-.12-.76-.06-.52-.11-.86-.15-1.02-.26-.97-.57-1.95-.94-2.94l-.27-.25c-.1.85-.2 1.72-.31 2.6-.23 1.69-.49 2.65-.77 2.86-.56.42-1.21.54-1.95.36-.67-.16-1.2-.49-1.58-1-.76-1-1.16-2.61-1.22-4.84-.05-2.51.56-4.23 1.83-5.19.03-.03.32-.09.86-.18s.85-.13.94-.12c.08.32.08.51.01.57s-.15.09-.23.11c-.08.02-.16.06-.23.11-.17.13-.38.47-.61 1-.35.78-.56 1.64-.65 2.55-.04.78-.11 1.56-.19 2.33.02.02.15.52.4 1.52.2.73.38 1.21.54 1.42.32.42.67.48 1.06.19.07-.06.13-.16.16-.31.04-.16.09-.25.14-.29.07-.06.11-.07.12-.03.01.03.04.03.09-.01.01-.02.06-.38.13-1.09.07-.83.13-1.37.19-1.64l.22-.99c.01-.06 0-.69-.02-1.89-.01-.9.04-1.4.17-1.49.58-.44 1.07-.4 1.46.13zm1.26 18.575l-.284-.157-.065.132.245.104.104-.08zm.842-2.498l-.27.08.027.14.29-.06-.047-.17z"/><linearGradient id="k" gradientUnits="userSpaceOnUse" x1="80.088" y1="110.834" x2="80.088" y2="149.643"><stop offset="0" stop-color="#1B1440"/><stop offset=".819" stop-color="#ED1E79"/></linearGradient><path fill="url(#k)" d="M84.753 57.077l.05.086c.014.068.096.21.248.43.08.283.19.682.31 1.193.11.092.17.133.19.122-.05.21-.06.406-.02.585.04.18.07.344.08.49-.18-.047-.29.004-.33.154l.22.253.05-.254c.12-.066.25-.078.4-.04.05.078 0 .154-.13.23-.09.056-.14.06-.14.01 0-.08-.01-.123-.04-.13.02.086.01.236-.05.445.05.05.14.08.26.09.12.01.22.03.29.07.06-.03-.01.05-.2.24-.1.09-.24.1-.4.04-.01.03 0 .08.01.14.01.06.01.11 0 .14.1 0 .28-.02.54-.07-.01.06-.12.16-.33.28-.01.07.07.12.26.18l-.43.25c-.07-.11-.13-.35-.19-.72-.06-.01-.11-.04-.15-.09-.04-.04-.08-.06-.13-.06-.02.09-.01.18.03.25-.09-.15-.25-.43-.48-.83-.25-.38-.43-.68-.56-.89.19-.11.3-.19.31-.25-.06-.01-.18.03-.37.14-.01-.02.01-.12.06-.3-.08 0-.14.01-.2.04.03-.34.04-.54.01-.57-.05-.1-.16-.1-.31-.01-.01-.37-.04-.6-.1-.7-.01-.02-.07-.02-.19 0 .11.15-.13-.29-.71-1.3l-.43-.28c-.28.39-.45 1.08-.51 2.08-.1 1.54-.19 2.47-.25 2.81-.15.62-.31 1.51-.47 2.68-.25.1-.56.36-.91.8l-.45-.12c-.12-.03-.32-.18-.59-.46-.27-.27-.42-.44-.46-.49-.15-.27-.17-.55-.04-.85-.27-.07-.46-.2-.57-.39-.04-.07-.13-.38-.26-.91-.17-.61-.29-1.01-.35-1.2-.19-.81-.53-1.93-1.03-3.37.2.04.32 0 .35-.12-.07-.03-.13-.03-.19 0-.36-.58-.55-1.24-.57-1.99-.24-.93-.46-1.85-.69-2.77-.22-1.04-.3-1.77-.24-2.18-.09-.02-.17-.02-.22.02-.18-1.23-.34-2.45-.49-3.69-.16-1.56-.11-2.58.17-3.07l.4-.23c-.02-.03-.01.02.02.18.02.07.07.08.15.03.09-.05.17-.07.24-.06.07.01.11.01.13 0l.22.37c.1.17.18.62.24 1.35.04.64.05 1.1.04 1.39.57 2.7 1.32 6.69 2.27 11.99.23.35.49 1.04.78 2.05.3 1.01.57 1.69.81 2.03.19-.33.37-1.34.55-3.02.17-1.59.28-2.4.32-2.43.08-.04.13-.05.16-.03.03.02.05.03.07.02.02-.06 0-.09-.06-.11-.07-.03-.12-.04-.16-.01.02-.19.13-.55.35-1.1.22-.55.36-.84.44-.89.08-.04.12-.03.12.05.01.07.04.09.09.06s.06-.11-.01-.22l.27.07c.04-.12.1-.21.2-.26.13-.07.34-.05.62.08.28.14.49.3.63.5.18.28.5.72.95 1.32.39.54.6.84.63.9zm-7.734.2l-.19.07.14.45.14-.084-.1-.437zm8.15 3.028l-.45-.313-.08.123.41.256.11-.06zm-.08-.794l-.17-.28c-.04.07-.09.17-.15.28.15-.08.25-.08.31.01zm.14-.99l-.09-.14-.23.13.08.15.23-.13zm.15 2.05c-.09.21-.09.37-.02.51-.05-.08-.14-.08-.27 0 .09-.27.19-.44.28-.49z"/><linearGradient id="l" gradientUnits="userSpaceOnUse" x1="90.193" y1="110.834" x2="90.193" y2="149.643"><stop offset="0" stop-color="#1B1440"/><stop offset=".819" stop-color="#ED1E79"/></linearGradient><path fill="url(#l)" d="M91.56 32.15c-.46 2.61-.72 5.506-.78 8.69-.01 1.024.017 3.84.083 8.443-.057.094-.132.232-.225.412.074.183.2.405.377.666.118 0 .27-.03.453-.11.265-.1.618-.3 1.06-.59.44-.28.673-.43.693-.44.33-.13.65-.19.97-.17l.11-.26c.1.06.21.06.36 0l.14.34c-.35.24-.58.44-.68.6-.27.38-.44.59-.49.63l-.22-.12c-.04.09-.03.19.02.31l-.46.19c-.08.04-.09.08-.02.12.06.05.07.08.01.11-.08.03-.17.05-.28.06s-.2.03-.28.06c-.14.06-.41.32-.81.77-.39.46-.64.77-.74.93.14.33.13.72-.01 1.18l.15 1.59c.02.63-.03 1.09-.15 1.38.06.04.13.06.19.03l.29 2.3c-.02.06-.16.04-.41-.04-.02.01-.03.05-.04.12s-.03.12-.07.14c-.19-.11-.31-.13-.38-.06.03.02.11.07.24.17s.25.17.33.21c-.1.04-.22.03-.37-.03.02-.01.12.2.3.63-.19-.01-.45.04-.78.18.19-.48.14-.83-.14-1.05-.31-.77-.51-1.71-.58-2.82-.1-1.55-.18-2.46-.22-2.73.02.04-.11.12-.4.24-.08.03-.12.03-.12-.02 0-.07-.02-.11-.05-.12-.02.17-.23.55-.62 1.12-.39.58-.65.89-.77.94l-.52.21c-.18.08-.38.07-.6-.02-.21-.09-.35-.21-.42-.38-.18-.45.29-1.22 1.41-2.32.62-.58 1.25-1.17 1.89-1.76.15-.27.19-.88.11-1.82-.01-.21-.03-1.15-.04-2.83-.09-3.41-.09-6.17-.03-8.29.16-4.46.61-7.05 1.33-7.77.26-.06.52.08.78.43.29.41.45.62.48.63zm-2.11 18.917l-.086-.214-.245.1.08.214.24-.1zm1.977 10.123c-.076.165-.086.314-.03.45l-.43.173c-.074-.183-.172-.25-.294-.2-.058-.144.037-.407.284-.793-.15.038-.374.104-.667.2.006-.216.143-.378.408-.486.08-.033.11-.008.083.073-.02.082.01.106.09.073l.16-.063c.09.033.11.203.07.51.05.004.11.012.19.026.08.014.13.026.16.037z"/><g fill="#FFF"><path d="M47.527 105.55c-2.66-1.33-3.646-1.86-4.005-2.068l-.004-.002c-.098-.063-.48-.32-1.72-1.22-.936-.67-1.768-1.15-2.56-1.468-.207-.16-.92-.722-.96-.75-.538-.396-1.04-.728-1.518-1.005-2.037-1.788-3.652-3.136-4.93-4.115-.03-.02-.057-.042-.085-.063-.652-.83-1.384-1.48-2.44-1.81-.43-.14-.888-.2-1.362-.2-.407 0-.84.05-1.332.15-1.75.37-3.09 1.53-3.58 3.12-.27.86-.66 3.11 1.53 5.29.28.26.56.53.86.8.95.99 2.35 2.19 4.27 3.67l1.46 1.12c-.3 1.32-.3 3.07.67 5.07-.52.18-1 .46-1.41.85-.67.63-1.26 1.42-1.81 2.41-.54.98-.65 2.15-.29 3.21.05.13.1.26.16.39v.17c-.34 2.58.94 4.76 2.21 6.27-.92.18-1.76.66-2.35 1.4-.58.72-1.06 1.58-1.46 2.64-.4 1.05-.35 2.22.16 3.22.06.12.13.24.21.36l.03.17c.01 2.68 1.67 4.7 3.17 6.01-.08.01-.17 0-.25.02-.38.05-.75.16-1.09.32-.13.06-.25.12-.37.18-.7-.56-1.51-1.04-2.45-1.43-1.41-.61-2.83-.91-4.2-.91-.42 0-.84.02-1.24.08-.57.08-.98.23-2.33.79-.41.17-.79.42-1.11.71l-.14.12c-.87.78-1.55 1.75-2.02 2.87-.53 1.26-.72 2.39-.57 3.44.29 2.06 1.81 3.52 3.24 4.65 3.34 2.69 7.93 4.72 14.01 6.19.25.06.51.09.76.11.13.01.56.07 1.76.28 1.07.2 1.99.29 2.82.29.43 0 .84-.03 1.2-.08.38-.05.65-.13 1.4-.36l.36-.11c.67-.1 1.28-.35 1.8-.73.16-.07.3-.14.45-.23.31-.16.6-.35.86-.58.47-.41.84-.91 1.23-1.56.88-.63 1.45-1.58 1.62-2.6.03-.11.06-.22.08-.32.16-.4.24-.84.26-1.29.02-.57.02-1.02.02-1.38.41-.46.71-1.02.88-1.64.41-1.57-.16-3.23-1.46-4.21-.34-.26-.72-.47-1.12-.66.39-.41.66-.85.84-1.26.61-.92 1.19-2.03 1.22-3.34 0-.11-.01-.44-.05-.98l-.03-.35c-.01-.41-.07-.8-.18-1.18V134c-.05-1.36-.73-2.37-2.07-4.22-.03-.05-.08-.09-.12-.14.62-.42 1.06-.92 1.36-1.4.73-.83 1.46-1.85 1.66-3.13.02-.11.06-.44.09-1l.02-.34c.05-.4.05-.79-.01-1.17v-.04c.13-1.35-.41-2.44-1.47-4.46-.13-.25-.29-.48-.46-.69-.01-.02-.03-.03-.04-.04.33-.19.63-.38.9-.57 1.03-.72 2.04-1.57 2.49-2.91.12-.22.21-.46.29-.7.14-.44.19-.83.19-1.22l.06-.35.01-.07c.06-.15.12-.3.17-.46.23-.72.26-1.47.11-2.35-.08-1.41-.91-2.69-2.2-3.34zm7.237-44.478c.94 1 2.165 1.55 3.448 1.55 1.16 0 2.282-.456 3.162-1.283.97-.92 1.487-2.13 1.454-3.42-.02-.8-.264-1.98-1.308-3.08-.922-.98-2.157-1.52-3.475-1.52-.966 0-1.905.28-2.792.84-1.488.94-2.184 2.75-1.713 4.45.24.86.513 1.69 1.224 2.45z"/><path d="M98.49 47.608l-.138-.336c-.61-1.5-2.028-2.432-3.55-2.492-.026-2.37-.028-3.424-.023-3.865.05-2.962.29-5.677.72-8.07.21-1.222-.16-2.435-.93-3.324-.06-.07-.26-.36-.29-.4-1.34-1.77-3-2.04-3.87-2.04-.33 0-.67.04-.99.11-.74.17-1.41.54-1.95 1.07-1.64 1.63-2.29 4.36-2.51 10.49-.07 2.19-.07 5.06.01 8.46.02 1.73.03 2.44.04 2.78l-.79.75-.03.03c-.71-.32-1.42-.49-2.12-.49-.49 0-.96.08-1.41.23-.36-1.86-.67-3.44-.94-4.76-.01-.34-.02-.74-.05-1.22 0-.04-.01-.08-.01-.11-.11-1.21-.27-2.13-.77-2.99l-.22-.37c-.54-.92-1.42-1.59-2.45-1.86-.07-.02-.15-.03-.22-.05-.43-.15-.89-.23-1.36-.23-.83 0-1.63.25-2.29.72l-.1.06c-.62.36-1.14.88-1.49 1.5-.73 1.3-.93 2.93-.66 5.53.15 1.25.32 2.5.49 3.74.05.31.13.61.24.9.06.46.15.97.27 1.54 0 .02.13.52.27 1.11h-.17c-.39 0-.79.05-1.56.17-.99.17-1.77.3-2.61.93-2.34 1.77-3.49 4.61-3.42 8.47v.09c-.3-.07-.61-.12-.92-.12-.08 0-.16.01-.24.01-.77.05-1.48.28-2.39.65-.45.19-.87.45-1.23.79-1.99 1.86-1.21 4.29-.79 5.6.09.32.19.59.27.84-1.01-1.52-1.85-2.82-2.53-3.86l-1.97-3.71-.07-.16c-.17-.75-.55-1.43-1.09-1.96-.03-.06-.07-.13-.1-.19-.08-.77-.39-1.51-.89-2.12l-.06-.08c-.67-1.3-2.03-2.17-3.56-2.17-.07 0-.14 0-.21.01l-.35.02c-1.36.07-2.58.83-3.26 2-.66 1.15-.75 2.49-.28 3.74l.01.62c0 .31.04.63.12.94.13.51.24.94.33 1.28.04.15.09.31.15.46.05.14.1.29.17.43.18.41.36.8.53 1.16-.13-.05-.27-.1-.4-.15-.1-.03-.2-.07-.3-.09-.52-.14-1.01-.21-1.5-.21-1.43 0-2.73.62-3.59 1.7-.52.67-1.9 2.43-1.24 4.68.07.24.16.47.27.69 1.15 2.27 2.04 3.89 2.72 4.96l4.41 6.42c.15.21.31.4.49.58.34.51.78 1.03 1.33 1.6.39.55.75 1.03 1.11 1.44.09.2.19.38.31.56.12.18.25.35.39.5.15.17.32.33.5.47.06.04.11.08.17.12.06.08.13.16.19.23l.04.07c.27.56.68 1.05 1.18 1.43.25.37.54.71.93 1.02.78.61 1.72.94 2.72.94.16 0 .39-.01.55-.03 1.71-.21 3.09-1.48 3.43-3.17.22-1.09.13-2.23-.27-3.41-.15-.42-.36-.82-.63-1.17-.06-.11-.13-.22-.21-.33.29.04.58.06.86.06 1.83 0 3.44-.78 4.56-2.2.93-1.19 1.01-2.45.78-3.54.47.3.99.52 1.55.61.33.09.67.13 1.01.13.93 0 1.84-.34 2.58-.96.02.03.02.06.04.09.62 1.22 1.75 2.1 3.36 2.6l.12.04c.76.21 1.39.31 1.97.31.11 0 .31-.01.43-.02.82-.07 1.59-.4 2.2-.91.06-.04.11-.08.16-.12.1-.06.18-.14.27-.21.09-.05.17-.11.25-.17.42-.31.78-.7 1.12-1.2.4-.46.65-.95.88-1.42l.04-.08c.37-.55.6-1.17.67-1.82.13-.59.15-1.13.17-1.51V76c.2-.55.27-1.14.22-1.73.01-.2 0-.42-.01-.64l-.04-.52c0-1.05-.01-1.84-.03-2.39 0-.08-.01-.15-.02-.23-.07-.662-.13-1.262-.19-1.82.77-.2 1.49-.63 2.03-1.27.59-.38 1.07-.9 1.4-1.51.36.11.74.16 1.12.16.68 0 1.37-.17 2-.54l.43-.25c.16-.09.28-.2.42-.31.07.05.13.1.21.14.69.51 1.53.8 2.4.8.5 0 1.01-.09 1.5-.29l.43-.174c.98-.4 1.77-1.17 2.18-2.15.2-.48.31-.99.31-1.5.07-.6.01-1.21-.18-1.784.06-.39.07-.787.02-1.18-.13-1.024-.31-2.39-.31-2.42.01-.29.02-.59.01-.91 0-.08-.01-.16-.02-.24l-.07-.716c.36-.194.67-.435.95-.71.15-.11.28-.23.41-.36.32-.273.56-.554.9-1.01 1.5-1.07 2.08-3.034 1.38-4.753zM71.393 74.63c0 .22 0 .413-.007.584-.193.1-.38.22-.56.355l-.106.08c-.2-.59-.37-1.07-.5-1.44-.075-.35-.21-.69-.38-1.02.43.08.863.14 1.288.14.108 0 .216-.01.324-.01 0 .01.034.25.048.35-.07.3-.108.62-.106.94z"/></g><linearGradient id="m" gradientUnits="userSpaceOnUse" x1="31.004" y1="110.834" x2="31.004" y2="149.643"><stop offset="0" stop-color="#1B1440"/><stop offset=".819" stop-color="#ED1E79"/></linearGradient><path fill="url(#m)" d="M21.312 141.448c1.046-.145 2.16.036 3.34.54 1.272.535 2.113 1.24 2.522 2.117l.045.327c-.07.01-.16.06-.27.152-.11.094-.21.146-.3.157-.07.01-.22-.05-.46-.2-.17-.09-.33-.16-.47-.23-.39-.21-.96-.49-1.72-.83-.87-.32-1.78-.42-2.74-.29-.81.11-1.19.34-1.14.69.06.44.11.72.15.85.05-.07.07-.21.04-.4.66.96 2.31 2.15 4.95 3.58.01.09 0 .15-.03.19-.03.04-.04.07-.04.09.72.13 1.76.43 3.12.91 1.51.53 2.41.83 2.7.91.29.08 1.03.39 2.24.91 1.04.01 2.48.14 4.31.37.03-.09.28-.2.75-.34.64-.17 1.1-.32 1.39-.44s.58-.48.9-1.09c.31-.61.45-1.09.4-1.44-.07-.52-.38-1.06-.92-1.6-.47-.47-.82-.73-1.08-.78-.74-.03-1.84-.03-3.3-.01-.01-.04-.05-.12-.14-.25-.04.07-.05.14-.04.2-1.13-.13-2.25-.26-3.35-.37-1.83-.23-2.76-.43-2.78-.58-.07-.5.35-.95 1.24-1.37.08-.01 1.09.12 3.02.39.06-.01.32-.16.77-.47.44-.3.78-.43 1.01-.37.1.08.38.05.83-.08.46-.13.79-.05.98.23.09-.01.12-.08.1-.21.34.09.79.33 1.33.72.11-.15.22-.23.33-.24l.05.33c.56.17 1.02.39 1.39.65.17.11.47.12.91.04.01.09-.02.16-.08.21.14.09.34.13.6.12.25-.01.43.04.53.16-.12.26-.14.44-.06.54.08-.07.18-.22.31-.44.28.1.52.22.72.37-.07.01-.17.01-.32.01s-.25 0-.32.01c-.83.12-1.21.37-1.16.76.03.24.11.5.24.77.06-.19.07-.35.03-.5.3.41.46.68.48.84.04.3.05.98.02 2.03-.02-.31-.09-.54-.2-.71-.07.14-.06.55.04 1.23.01.05-.05.11-.17.21-.12.1-.18.19-.16.27.01.06.08.09.21.07-.43.26-.75.58-.96.97-.27.46-.46.74-.58.85-.13.02-.22.06-.25.13-.02.03-.06-.01-.12-.11-.13.2-.24.3-.33.31-.07.01-.15 0-.24-.03-.11.15-.14.25-.09.28-.22.03-.55.12-1 .26-.45.14-.7.22-.74.22-.68.09-1.6.03-2.76-.19-1.35-.24-2.12-.36-2.32-.35-5.45-1.32-9.59-3.12-12.44-5.42-1.12-.89-1.72-1.58-1.79-2.08-.05-.33.05-.78.3-1.36.24-.58.58-1.07 1.01-1.46-.09.12-.05.24.12.35.04-.03.04-.19 0-.47.79-.33 1.24-.51 1.32-.52zm8.488 8.193l-.164.03.036.26.164-.02-.036-.26zm1.114-6.31l-.138.09.142.22.184-.02-.188-.27zm1.07 7.18l-.095.28.14.05.09-.28-.14-.04zm9.816-3.71c.14.21.197.39.174.55.044 0 .158-.14.343-.41-.065.01-.15-.01-.258-.06-.11-.05-.2-.07-.26-.06zm.434.74l-.163.03-.02.57.17-.02.02-.57z"/><linearGradient id="n" gradientUnits="userSpaceOnUse" x1="36.688" y1="110.834" x2="36.688" y2="149.643"><stop offset="0" stop-color="#1B1440"/><stop offset=".819" stop-color="#ED1E79"/></linearGradient><path fill="url(#n)" d="M33.897 128.75c.154.002.407.05.757.144.044 0 .297-.006.76-.02.31-.018.516.084.622.306.045-.065.068-.13.07-.197l.95.38c.088 0 .154-.02.2-.064-.09.08-.048.21.124.39.067-.07.1-.13.102-.2.132 0 .252.06.36.17-.132 0-.2.04-.2.13.484 0 1.02.26 1.605.75 1.064.9 1.672 1.4 1.824 1.51 0 .02-.03.06-.1.13s-.1.12-.1.16c.09.07.21.02.37-.13.88 1.22 1.32 1.91 1.32 2.06 0 .06.01.21.04.43s.05.37.05.46.02.12.05.1c.04-.02.05 0 .05.08 0 .07.01.28.04.61.03.33.04.52.04.59 0 .26-.22.71-.65 1.34-.11 0-.16.07-.17.23 0 .35-.37.63-1.1.84-.48.12-.98.25-1.49.37.01-.28.02-.42.04-.39-.2.26-.4.39-.6.38-.9-.02-2.32-.68-4.26-1.99-2.26-1.51-3.38-2.93-3.36-4.25 0-.07.06-.17.17-.3-.17-.11-.26-.3-.25-.56.01-.29.11-.48.32-.59.21-.11.41-.2.61-.29 0 .02.07.14.22.37.15.22.22.39.21.5 0 .39.38.99 1.16 1.8.43.4.86.81 1.28 1.24s1.23.94 2.43 1.55c1.2.62 2.1.93 2.72.94.2 0 .46-.15.78-.47.33-.31.49-.57.49-.77 0-.09-.03-.27-.09-.55s-.09-.46-.09-.54c.01-.33-.16-.74-.51-1.23-.47-.71-.72-1.08-.74-1.1-.26-.03-.5-.21-.7-.54-.2-.33-.4-.5-.6-.51-.06-.09-.03-.2.11-.33-.15 0-.33-.04-.53-.11-.41-.45-.97-.78-1.7-.99-.63-.19-1.02-.43-1.17-.71-.02 0-.05-.01-.1-.04-.02-.02-.03-.02-.03 0v.13c0 .09-.46.14-1.39.17-.88.03-1.39.02-1.55-.03-.11.11-.13.2-.07.26-.02 0-.13.03-.33.09s-.36.07-.49.03c-.04.04-.07.17-.07.39-.13.02-.36-.02-.69-.11.25-.66.54-1.18.85-1.57.29 0 .46.07.53.21.27-.26.47-.35.6-.28.04-.05.07-.14.07-.3.13 0 .36-.03.68-.09.32-.07.53-.1.61-.09zm-2.458.95l-.2-.004-.01.462.2.003.01-.46zm4.92-.25l-.14.07.13.26h.13l-.13-.33zm5.46 8.14l-.06.115.21.12.05-.115-.21-.12zm.27-3.922l-.17-.003-.01.56.16.004.01-.57zm.04 3.466l-.01.363-.1-.002v-.363l.1.002z"/><linearGradient id="o" gradientUnits="userSpaceOnUse" x1="37.798" y1="110.834" x2="37.798" y2="149.643"><stop offset="0" stop-color="#1B1440"/><stop offset=".819" stop-color="#ED1E79"/></linearGradient><path fill="url(#o)" d="M35.673 115.628c.152.024.396.106.73.247.043.007.295.035.755.084.308.02.5.15.574.39.054-.06.086-.12.096-.19l.89.5c.087.01.156 0 .206-.04-.1.07-.077.21.07.41.075-.06.118-.12.128-.18.13.02.24.09.333.22-.13-.03-.202.01-.216.1.47.07.97.39 1.48.96.93 1.03 1.46 1.62 1.6 1.75-.01.02-.05.06-.12.11s-.12.1-.13.14c.07.08.2.05.38-.08.7 1.33 1.04 2.08 1.02 2.23-.01.06-.02.21-.02.43s-.01.38-.02.46c-.02.08-.01.12.03.1.03-.02.04.01.03.09-.02.07-.03.28-.05.61-.02.33-.04.53-.05.59-.04.26-.32.67-.83 1.24-.11-.02-.18.05-.2.2-.06.35-.46.57-1.21.68-.5.06-1.01.11-1.53.16.04-.28.07-.41.09-.39-.24.23-.45.33-.65.3-.89-.14-2.21-.99-3.95-2.55-2.04-1.81-2.95-3.37-2.75-4.67.01-.07.08-.16.21-.27-.16-.14-.22-.34-.18-.6.04-.28.17-.46.39-.54.22-.08.43-.14.65-.2 0 .02.05.15.16.39s.15.42.14.52c-.06.39.24 1.04.89 1.94.37.46.73.93 1.09 1.4.36.48 1.09 1.1 2.19 1.88 1.1.77 1.96 1.2 2.56 1.3.2.03.48-.09.84-.36s.56-.5.59-.69c.01-.09.01-.27-.02-.56-.02-.28-.03-.47-.01-.55.05-.33-.06-.76-.34-1.29-.37-.77-.57-1.16-.58-1.19-.26-.06-.47-.27-.62-.63-.16-.36-.33-.55-.53-.58-.06-.1-.01-.2.15-.31-.16-.02-.33-.08-.51-.18-.35-.5-.86-.9-1.55-1.21-.6-.27-.96-.56-1.07-.87-.02 0-.05-.02-.09-.05-.02-.02-.03-.03-.04 0l-.02.13c-.02.08-.48.08-1.4-.02-.88-.09-1.39-.17-1.53-.24-.13.09-.16.17-.11.25-.02 0-.14.01-.34.05-.21.03-.37.02-.5-.05-.05.04-.09.16-.12.38-.14 0-.36-.07-.67-.2.34-.62.69-1.1 1.06-1.44.28.04.44.13.49.27.3-.22.51-.29.63-.2.05-.04.08-.13.11-.28.13.02.36.02.68 0 .33-.02.53-.02.62-.01zm-2.565.603l-.196-.03-.07.46.195.03.07-.45zm4.91.43l-.143.06.09.28.132.02-.08-.34zm4.293 8.82l-.07.11.2.15.07-.1-.19-.14zm.38-.41l-.05.36-.1-.01.06-.35.1.02zm.44-3.44l-.16-.02-.08.56.17.03.09-.55z"/><linearGradient id="p" gradientUnits="userSpaceOnUse" x1="36.315" y1="110.834" x2="36.315" y2="149.643"><stop offset="0" stop-color="#1B1440"/><stop offset=".819" stop-color="#ED1E79"/></linearGradient><path fill="url(#p)" d="M28.12 96.872c.168.052.522.473 1.06 1.262.02.006.094-.005.218-.036 1.266.97 2.947 2.378 5.045 4.228.436.228.926.542 1.47.94.813.645 1.298 1.014 1.453 1.108.553.15 1.253.527 2.1 1.136 1.167.846 1.848 1.323 2.045 1.43.61.352 2.02 1.08 4.23 2.188 0 .09.01.24.05.447.04.208.05.364.01.47-.02.062-.08.158-.19.285-.11.127-.17.232-.2.316-.02.084-.01.142.05.17.06.03.08.088.05.17-.02.085-.07.118-.13.098-.06-.02-.1-.018-.1.002.1.213.16.257.2.13-.08.114-.11.265-.1.452.01.257.01.406 0 .448-.02.084-.1.158-.22.224-.12.065-.2.14-.22.223-.02.083.01.11.1.082s.12-.002.1.082c-.06.19-.39.494-.99.916-.6.422-1.03.618-1.27.587-.18.22-.64.308-1.36.266-.64-.015-1.16-.085-1.56-.21-1.32-.412-2.53-1.283-3.62-2.612-1.17-1.445-1.56-2.788-1.18-4.028.03-.083.2-.364.52-.84s.5-.756.52-.84c.03-.084.06-.1.09-.043.04.034.08.047.13.04-.2-.157-1.62-1.24-4.24-3.254-1.8-1.39-3.1-2.51-3.9-3.36-.31-.28-.6-.56-.88-.83-.44-.44-.6-.85-.49-1.22.06-.19.26-.32.59-.39.33-.07.56-.09.68-.05zm5.857 6.622l-.136-.007.06.26.13.04-.05-.293zm3.92 3.29c-.17-.05-.39-.005-.666.14-.27.145-.45.343-.53.596-.36 1.177.19 2.383 1.64 3.62 1.09.937 2.16 1.566 3.18 1.885.09.026.28.007.59-.06.31-.064.49-.106.54-.125.06-.018.34-.213.84-.586.45-.322.7-.567.75-.736.13-.1.24-.133.34-.1-.08-.027-.1-.104-.06-.23.11-.336.17-.51.2-.526.04.083.11.137.19.163-.02-.076-.03-.17-.01-.28-.16-.144-.56-.407-1.2-.79.04-.127.09-.204.14-.233-.06.07-.16.156-.28.256l-.75-.235c-.23-.072-.35-.247-.36-.525-.2.074-.42.054-.63-.06-.24-.12-.46-.248-.67-.383-.37-.048-.96-.345-1.76-.893-.8-.545-1.28-.845-1.45-.897zm.15 5.853l-.07.116.213.205.07-.116-.212-.205zm2.466 1.077l-.05.158.602.29.05-.157-.602-.29zm1.905.315l-.157-.05-.07.25.16.05.08-.26z"/><linearGradient id="q" gradientUnits="userSpaceOnUse" x1="51.248" y1="110.834" x2="51.248" y2="149.643"><stop offset="0" stop-color="#1B1440"/><stop offset=".819" stop-color="#ED1E79"/></linearGradient><path fill="url(#q)" d="M48.69 61.903c-.077.527.006.92.25 1.18.242.262.336.553.28.872.076-.024.133-.063.174-.115.063.133.12.276.168.426.056.072.184.16.384.26-.122.155-.178.28-.167.372.08.068.14.054.15-.042.12.126.22.318.3.574l2.18 4.108c1.33 2.08 3.31 5.078 5.94 8.992.37.347.81.972 1.32 1.874.51.903.7 1.432.58 1.587-.44.56-1.06.77-1.88.63-.67-.1-1.14-.3-1.39-.58-.07.09-.22.14-.45.15-2.83-1.1-5.02-2.26-6.56-3.46l-2.65-2.08c-.09-.06-.24-.23-.46-.51-.22-.27-.4-.46-.54-.57-.21-.16-.43-.25-.67-.27.24.58.91 1.65 2 3.21 1 1.4 1.54 2.35 1.64 2.84.06 0 .11-.03.15-.08l.29.23c.05.04.3.45.76 1.23.48.89.77 1.39.86 1.52.53.47 1.13 1.2 1.81 2.18.72 1.05 1.14 1.83 1.25 2.37-.12-.09-.21-.06-.25.1.12.1.28.1.49.01-.21.26-.32.47-.35.61.04-.02.15-.14.33-.37l.36.29c.17.5.21.94.13 1.33-.13.02-.23-.01-.32-.08-.07-.05-.22-.31-.44-.77-.01-.03.02-.09.08-.18s.09-.18.1-.26c-.24.09-.38.13-.41.1l-.02-.14c-.03 0-.13.08-.3.22 0-.11-.07-.25-.22-.42-.11-.11-.12-.22-.04-.32-.02-.07-.06-.13-.12-.17l-.14.06c-.1-.05-.33-.34-.69-.88-.32-.13-.42-.16-.32-.08-.05-.04-.08-.11-.08-.21s-.03-.18-.07-.24c-.45-.43-.96-1.07-1.55-1.93-.88-.88-1.35-1.53-1.44-1.96-.09.01-.15.04-.18.07l-4.33-6.3c-.6-.95-1.45-2.49-2.53-4.63-.06-.18.13-.54.55-1.08.15-.19.44-.22.88-.11.33.12.59.25.78.4l5.82 5.2c.01.02.07.02.16 0l.52.41c.43.34 1.24.83 2.41 1.48 1.26.71 2.14 1.23 2.63 1.56.33.07.85.17 1.54.29-.54-1.2-1.52-2.84-2.94-4.91-1.61-2.3-2.9-4.41-3.87-6.35-.56-1-1.29-2.49-2.19-4.48.12-.15.29-.31.51-.48.01-.05-.01-.09-.07-.13-.12.08-.3.19-.55.33-.08-.32-.19-.72-.31-1.21 0-.14 0-.36-.01-.66-.01-.3-.02-.51-.03-.63.19.15.35.14.47-.01.04-.05.08-.12.12-.2.01-.05.03-.07.06-.08zm-2.132 11.96l-.12-.06-.002.217.104.082.018-.238zm1.616-12.744c.022.18.12.34.293.48l-.286.36c-.12-.13-.21-.23-.27-.3-.13-.22-.16-.4-.08-.53l.35-.02zm.366 1.67c-.062.01-.13-.01-.207-.06-.076-.05-.136-.06-.18-.04.034.03.067.11.1.24.092-.01.188-.06.287-.15zm5.152 24.85l-.145-.03-.064.24.13.1.08-.32zm.486 1.3l-.125-.06-.126.32.13.1.12-.37z"/><linearGradient id="r" gradientUnits="userSpaceOnUse" x1="62.236" y1="110.834" x2="62.236" y2="149.643"><stop offset="0" stop-color="#1B1440"/><stop offset=".819" stop-color="#ED1E79"/></linearGradient><path fill="url(#r)" d="M58.608 57.586c.287.304.294.585.022.84-.305.288-.623.255-.955-.098-.06-.064-.154-.323-.28-.78.493-.31.897-.298 1.213.038zm4.164 9.906c.662 1.312 1.348 2.81 2.06 4.497.567 1.37 1.058 2.39 1.474 3.05-.144.13-.218.25-.22.34.135.14.215.08.238-.18.158.42.41 1.14.753 2.14l-.313.29c-.093-.04-.224-.06-.394-.09l-.905-.96c.006-.22-.036-.38-.126-.47.16-.15.28-.23.38-.23l-.02-.21c-.27.07-.47.23-.6.47-.36-.6-.55-1.08-.59-1.44-.06-.07-.14-.05-.24.04-.37-.78-.82-1.92-1.37-3.43l-.34-.36c-.14-.21-.35-.76-.63-1.66-.29-.9-.38-1.39-.28-1.48.56-.23.93-.36 1.11-.37zm3.613 8.792l-.113-.12-.408.385.113.12.408-.39zm.084.33l-.38-.012-.01.14.35-.013.02-.12zm.16-.113l.08.43-.17.02-.08-.42.16-.02z"/><linearGradient id="s" gradientUnits="userSpaceOnUse" x1="72.474" y1="110.834" x2="72.474" y2="149.643"><stop offset="0" stop-color="#1B1440"/><stop offset=".819" stop-color="#ED1E79"/></linearGradient><path fill="url(#s)" d="M74.104 60.152c.385.51.924 1.77 1.62 3.782.64 1.832.984 2.964 1.035 3.395.14.88.28 2.03.41 3.45.02.53.02 1.33.02 2.38l.05.66c.02.31 0 .49-.05.53-.13.09-.1.16.06.2-.07.05-.15.07-.25.06-.07.16-.09.26-.07.29.03 0 .07 0 .12-.01-.03.07-.05.47-.05 1.19-.03.62-.09.97-.2 1.05-.07.05-.14.06-.19.02-.01.06.07.11.23.15-.08.08-.19.29-.35.61-.16.32-.26.5-.31.54-.06.04-.13.14-.23.3-.1.16-.19.26-.26.32-.05.04-.12.04-.19-.01s-.15-.04-.22.02-.09.11-.06.19c.03.07.01.13-.04.17-.09.07-.17.06-.23-.01-.07-.08-.11-.11-.13-.09-.09.06-.07.18.05.33-.21.02-.54-.03-.99-.16-.55-.17-.87-.36-.98-.58l.29-.22c.04.05.23.11.59.18l.21-.16c0-.06.04-.07.12-.01.07.05.15.09.24.1.02-.19.05-.29.06-.3.63-.48.94-1.8.92-3.97l.28.04c-.06-.45-.15-1.06-.25-1.81.1-.02.15-.11.16-.29.04-.34.09-.59.15-.74-.09-.02-.17 0-.22.04.04-.42-.01-1.08-.16-1.96-.1-.65-.05-1.09.16-1.33.05-.15.01-.18-.11-.09l-.16.12-.06.04-.18-.23c-.05-.07-.09-.32-.12-.76-.06-.52-.11-.86-.15-1.02-.26-.97-.57-1.95-.94-2.94l-.27-.25c-.1.85-.2 1.72-.31 2.6-.23 1.69-.49 2.65-.77 2.86-.56.42-1.21.54-1.95.36-.67-.16-1.2-.49-1.58-1-.76-1-1.16-2.61-1.22-4.84-.05-2.51.56-4.23 1.83-5.19.03-.03.32-.09.86-.18s.85-.13.94-.12c.08.32.08.51.01.57s-.15.09-.23.11c-.08.02-.16.06-.23.11-.17.13-.38.47-.61 1-.35.78-.56 1.64-.65 2.55-.04.78-.11 1.56-.19 2.33.02.02.15.52.4 1.52.2.73.38 1.21.54 1.42.32.42.67.48 1.06.19.07-.06.13-.16.16-.31.04-.16.09-.25.14-.29.07-.06.11-.07.12-.03.01.03.04.03.09-.01.01-.02.06-.38.13-1.09.07-.83.13-1.37.19-1.64l.22-.99c.01-.06 0-.69-.02-1.89-.01-.9.04-1.4.17-1.49.58-.44 1.07-.4 1.46.13zm1.26 18.575l-.284-.157-.065.132.245.104.104-.08zm.842-2.498l-.27.08.027.14.29-.06-.047-.17z"/><linearGradient id="t" gradientUnits="userSpaceOnUse" x1="80.088" y1="110.834" x2="80.088" y2="149.643"><stop offset="0" stop-color="#1B1440"/><stop offset=".819" stop-color="#ED1E79"/></linearGradient><path fill="url(#t)" d="M84.753 57.077l.05.086c.014.068.096.21.248.43.08.283.19.682.31 1.193.11.092.17.133.19.122-.05.21-.06.406-.02.585.04.18.07.344.08.49-.18-.047-.29.004-.33.154l.22.253.05-.254c.12-.066.25-.078.4-.04.05.078 0 .154-.13.23-.09.056-.14.06-.14.01 0-.08-.01-.123-.04-.13.02.086.01.236-.05.445.05.05.14.08.26.09.12.01.22.03.29.07.06-.03-.01.05-.2.24-.1.09-.24.1-.4.04-.01.03 0 .08.01.14.01.06.01.11 0 .14.1 0 .28-.02.54-.07-.01.06-.12.16-.33.28-.01.07.07.12.26.18l-.43.25c-.07-.11-.13-.35-.19-.72-.06-.01-.11-.04-.15-.09-.04-.04-.08-.06-.13-.06-.02.09-.01.18.03.25-.09-.15-.25-.43-.48-.83-.25-.38-.43-.68-.56-.89.19-.11.3-.19.31-.25-.06-.01-.18.03-.37.14-.01-.02.01-.12.06-.3-.08 0-.14.01-.2.04.03-.34.04-.54.01-.57-.05-.1-.16-.1-.31-.01-.01-.37-.04-.6-.1-.7-.01-.02-.07-.02-.19 0 .11.15-.13-.29-.71-1.3l-.43-.28c-.28.39-.45 1.08-.51 2.08-.1 1.54-.19 2.47-.25 2.81-.15.62-.31 1.51-.47 2.68-.25.1-.56.36-.91.8l-.45-.12c-.12-.03-.32-.18-.59-.46-.27-.27-.42-.44-.46-.49-.15-.27-.17-.55-.04-.85-.27-.07-.46-.2-.57-.39-.04-.07-.13-.38-.26-.91-.17-.61-.29-1.01-.35-1.2-.19-.81-.53-1.93-1.03-3.37.2.04.32 0 .35-.12-.07-.03-.13-.03-.19 0-.36-.58-.55-1.24-.57-1.99-.24-.93-.46-1.85-.69-2.77-.22-1.04-.3-1.77-.24-2.18-.09-.02-.17-.02-.22.02-.18-1.23-.34-2.45-.49-3.69-.16-1.56-.11-2.58.17-3.07l.4-.23c-.02-.03-.01.02.02.18.02.07.07.08.15.03.09-.05.17-.07.24-.06.07.01.11.01.13 0l.22.37c.1.17.18.62.24 1.35.04.64.05 1.1.04 1.39.57 2.7 1.32 6.69 2.27 11.99.23.35.49 1.04.78 2.05.3 1.01.57 1.69.81 2.03.19-.33.37-1.34.55-3.02.17-1.59.28-2.4.32-2.43.08-.04.13-.05.16-.03.03.02.05.03.07.02.02-.06 0-.09-.06-.11-.07-.03-.12-.04-.16-.01.02-.19.13-.55.35-1.1.22-.55.36-.84.44-.89.08-.04.12-.03.12.05.01.07.04.09.09.06s.06-.11-.01-.22l.27.07c.04-.12.1-.21.2-.26.13-.07.34-.05.62.08.28.14.49.3.63.5.18.28.5.72.95 1.32.39.54.6.84.63.9zm-7.734.2l-.19.07.14.45.14-.084-.1-.437zm8.15 3.028l-.45-.313-.08.123.41.256.11-.06zm-.08-.794l-.17-.28c-.04.07-.09.17-.15.28.15-.08.25-.08.31.01zm.14-.99l-.09-.14-.23.13.08.15.23-.13zm.15 2.05c-.09.21-.09.37-.02.51-.05-.08-.14-.08-.27 0 .09-.27.19-.44.28-.49z"/><linearGradient id="u" gradientUnits="userSpaceOnUse" x1="90.193" y1="110.834" x2="90.193" y2="149.643"><stop offset="0" stop-color="#1B1440"/><stop offset=".819" stop-color="#ED1E79"/></linearGradient><path fill="url(#u)" d="M91.56 32.15c-.46 2.61-.72 5.506-.78 8.69-.01 1.024.017 3.84.083 8.443-.057.094-.132.232-.225.412.074.183.2.405.377.666.118 0 .27-.03.453-.11.265-.1.618-.3 1.06-.59.44-.28.673-.43.693-.44.33-.13.65-.19.97-.17l.11-.26c.1.06.21.06.36 0l.14.34c-.35.24-.58.44-.68.6-.27.38-.44.59-.49.63l-.22-.12c-.04.09-.03.19.02.31l-.46.19c-.08.04-.09.08-.02.12.06.05.07.08.01.11-.08.03-.17.05-.28.06s-.2.03-.28.06c-.14.06-.41.32-.81.77-.39.46-.64.77-.74.93.14.33.13.72-.01 1.18l.15 1.59c.02.63-.03 1.09-.15 1.38.06.04.13.06.19.03l.29 2.3c-.02.06-.16.04-.41-.04-.02.01-.03.05-.04.12s-.03.12-.07.14c-.19-.11-.31-.13-.38-.06.03.02.11.07.24.17s.25.17.33.21c-.1.04-.22.03-.37-.03.02-.01.12.2.3.63-.19-.01-.45.04-.78.18.19-.48.14-.83-.14-1.05-.31-.77-.51-1.71-.58-2.82-.1-1.55-.18-2.46-.22-2.73.02.04-.11.12-.4.24-.08.03-.12.03-.12-.02 0-.07-.02-.11-.05-.12-.02.17-.23.55-.62 1.12-.39.58-.65.89-.77.94l-.52.21c-.18.08-.38.07-.6-.02-.21-.09-.35-.21-.42-.38-.18-.45.29-1.22 1.41-2.32.62-.58 1.25-1.17 1.89-1.76.15-.27.19-.88.11-1.82-.01-.21-.03-1.15-.04-2.83-.09-3.41-.09-6.17-.03-8.29.16-4.46.61-7.05 1.33-7.77.26-.06.52.08.78.43.29.41.45.62.48.63zm-2.11 18.917l-.086-.214-.245.1.08.214.24-.1zm1.977 10.123c-.076.165-.086.314-.03.45l-.43.173c-.074-.183-.172-.25-.294-.2-.058-.144.037-.407.284-.793-.15.038-.374.104-.667.2.006-.216.143-.378.408-.486.08-.033.11-.008.083.073-.02.082.01.106.09.073l.16-.063c.09.033.11.203.07.51.05.004.11.012.19.026.08.014.13.026.16.037z"/></svg>