<svg xmlns="http://www.w3.org/2000/svg" width="250" height="250" viewBox="0 0 250 250"><path opacity=".15" d="M217.5 104.316L111.473 41.96l-5.61 21.762c-.804-.205-1.628-.308-2.47-.308-7.257 0-14.29 7.466-21.928 23.384-3.582-4.483-9.446-10.087-16.38-10.087-4.967 0-9.393 2.8-13.16 8.31-1.074 1.08-1.996 2.8-2.104 4.89h-.26c-5.47 0-9.82 1.53-12.58 4.42-2.44 2.56-3.59 6-3.4 10.25l.03.54.18.51c.33.9 8.02 21.56 31.75 28.74 1.89 3.18 5.15 7.17 9.73 11.92-3.38 5.91-5.16 12.53-5.16 19.32 0 22.13 18.75 40.13 41.8 40.13 20.13 0 37.02-13.48 40.94-32 1.02.46 1.58.88 1.71.98l1.15 1.19 1.82-.31c2.22-.37 3.41-1.55 4.01-2.47.98-1.48 1.03-3.22.75-4.35l-.27-1.13-.9-.74c-2.06-1.7-4.56-2.9-7.47-3.59-.14-2.45-.52-4.88-1.13-7.26 4.87-3.53 4.7-8.49 3.75-10.91l-.09-.22-.11-.21c-.85-1.53-2.15-2.76-3.86-3.64-.99-.55-2.12-.97-3.37-1.25-.89-2.02-2-3.97-3.32-5.81l22.24 12.87 49.81-42.5z"/><path fill="#F47F38" d="M215.535 101.37L109.51 39.015l-5.61 21.763c-.804-.205-1.628-.308-2.47-.308-7.257 0-14.29 7.465-21.928 23.383-3.582-4.483-9.446-10.087-16.38-10.087-4.967 0-9.393 2.792-13.16 8.3-1.074 1.08-1.996 2.797-2.104 4.89h-.265c-5.468 0-9.82 1.527-12.585 4.415-2.445 2.56-3.59 6.01-3.406 10.25l.023.54.182.51c.322.9 8.02 21.56 31.75 28.74 1.89 3.18 5.15 7.17 9.726 11.92-3.384 5.91-5.16 12.53-5.16 19.32 0 22.13 18.75 40.13 41.795 40.13 20.124 0 37.015-13.48 40.938-32 1.02.46 1.575.88 1.705.98l1.16 1.19 1.82-.3c2.22-.37 3.41-1.55 4.01-2.47.98-1.48 1.03-3.22.75-4.35l-.27-1.13-.9-.74c-2.05-1.7-4.56-2.9-7.46-3.58-.14-2.45-.52-4.88-1.13-7.26 4.87-3.53 4.7-8.49 3.76-10.91l-.09-.22-.11-.21c-.85-1.53-2.15-2.76-3.86-3.64-.99-.54-2.12-.96-3.37-1.25-.89-2.02-2-3.97-3.32-5.82l22.24 12.87 49.81-42.5z"/><ellipse fill="#FAAF40" cx="109.917" cy="162.629" rx="38.276" ry="36.611"/><path fill="#FAAF40" d="M97.364 100.228l9.75 14.035-.487-16.577"/><path fill="#FFCC7A" d="M111.75 44.414l-14.386 55.814 67.975 39.353 44.15-37.68"/><path fill="#231F20" d="M130.968 75.574c-.206-.096-.4-.136-.584-.12-.183.02-.306.115-.37.29-.854 2.398-1.283 3.587-2.14 5.96-.69-.115-1.434-.293-2.228-.533-.69-.2-1.484-.49-2.38-.85-.896-.36-1.85-.83-2.867-1.41-1.53-.87-2.87-1.91-4.05-3.12-1.19-1.21-2.17-2.53-2.95-3.96-.78-1.42-1.33-2.91-1.66-4.47-.32-1.55-.35-3.1-.06-4.62.29-1.54.86-2.77 1.71-3.66.85-.9 1.93-1.47 3.22-1.72 1.29-.25 2.77-.18 4.43.21 1.65.4 3.41 1.1 5.24 2.1 1.16.65 2.21 1.29 3.13 1.93.93.65 1.72 1.24 2.38 1.77.77.62 1.44 1.21 2.03 1.78-.68 1.88-1.02 2.82-1.69 4.69-1.06-.59-1.58-.89-2.64-1.49l.3-3.33c.01-.11-.03-.26-.11-.45-.09-.18-.2-.34-.33-.47-.49-.46-.96-.86-1.4-1.19-.44-.33-.76-.55-.95-.66-1.01-.56-1.95-.96-2.82-1.2-.87-.24-1.66-.36-2.37-.34-.71.02-1.35.16-1.91.41-.56.26-1.05.6-1.47 1.03s-.76.94-1.04 1.52c-.28.58-.49 1.2-.65 1.87-.29 1.21-.37 2.4-.25 3.57.11 1.17.41 2.29.88 3.34.47 1.06 1.13 2.03 1.97 2.93.84.9 1.86 1.7 3.07 2.4.14.09.31.19.51.32s.49.29.87.48c.68-2.11 1.01-3.17 1.68-5.29.06-.18.03-.37-.08-.56-.11-.2-.27-.35-.47-.46l-2.13-1.36c.16-.57.24-.85.41-1.42 3.95 2.24 5.93 3.37 9.87 5.62-.21.55-.32.82-.53 1.37l-1.69-.81zm13.847 6.18c-.033-.124-.078-.277-.132-.457-.054-.18-.136-.373-.246-.577-.114-.203-.268-.41-.467-.62-.198-.21-.46-.406-.78-.59-.31-.18-.61-.32-.9-.422-.29-.103-.543-.175-.75-.22-.25-.058-.485-.1-.695-.114-1.317 2.906-1.972 4.35-3.277 7.217-.07.15-.066.32.004.52s.2.35.4.46c.772.48 1.16.73 1.928 1.21l-.573 1.18c-3.467-2-5.204-3-8.68-5.01.195-.49.292-.74.483-1.23l1.38.7c.198.1.385.12.562.08.176-.04.296-.13.358-.29 1.445-3.5 2.167-5.27 3.63-8.83-.966-.55-1.45-.83-2.417-1.38l.425-1.09c2.284.64 3.436.96 5.76 1.62.706.41 1.06.61 1.765 1.01-.503 1.11-.753 1.66-1.25 2.76.294-.08.688-.18 1.184-.29.496-.11 1.02-.19 1.57-.24.55-.05 1.102-.06 1.644-.01.55.05 1.02.18 1.4.4.2.12.4.25.59.39.2.15.38.3.55.46.17.15.32.3.45.45.13.14.23.27.3.39l-1.99 3.84-2.21-1.27zM158.7 99.038c-.71-.046-1.464-.166-2.248-.347-.68-.15-1.458-.39-2.327-.7-.87-.31-1.784-.74-2.748-1.3-1.287-.75-2.313-1.55-3.092-2.43-.777-.87-1.336-1.77-1.685-2.7-.346-.93-.487-1.87-.412-2.8.073-.93.336-1.84.802-2.71.5-.94 1.16-1.7 1.978-2.28.82-.57 1.756-.94 2.81-1.1 1.05-.15 2.19-.1 3.422.18 1.23.28 2.496.8 3.774 1.55 1.31.77 2.324 1.57 3.027 2.41.71.84 1.16 1.67 1.38 2.5.22.83.22 1.64.02 2.42s-.54 1.51-1.01 2.18c-.16.22-.23.33-.39.55-4.18-2.45-6.27-3.67-10.46-6.1-.38.67-.63 1.33-.72 1.99s-.04 1.28.15 1.89.52 1.18.99 1.73c.47.54 1.08 1.03 1.83 1.47.78.45 1.54.8 2.28 1.04.73.25 1.4.43 2 .54.69.13 1.35.21 1.99.24-.52.74-.78 1.11-1.3 1.84zm-.066-9.14c.25-.38.436-.76.558-1.15.122-.388.152-.772.09-1.147-.06-.37-.22-.73-.47-1.08-.253-.34-.623-.66-1.11-.94-.614-.36-1.19-.56-1.728-.6-.536-.04-1.03.03-1.47.21-.445.18-.836.44-1.177.77-.342.34-.623.7-.846 1.08 2.33 1.35 3.49 2.03 5.82 3.39l.34-.52zm10.56 16.783l.524-1.3c-.745-.05-1.49-.15-2.226-.29-.644-.12-1.335-.3-2.066-.52-.734-.22-1.432-.53-2.1-.92-.55-.32-1.01-.69-1.383-1.1s-.646-.85-.818-1.31c-.172-.46-.23-.93-.172-1.42.056-.48.247-.95.577-1.4.25-.34.52-.63.808-.88.288-.24.637-.42 1.05-.53.415-.11.924-.15 1.525-.12.604.03 1.348.15 2.235.36.886.22 1.94.53 3.165.94 1.225.42 2.67.95 4.34 1.61.09-.11.134-.16.227-.26.092-.1.19-.19.265-.27l.273-.29c.188-.18.347-.43.477-.71.132-.28.174-.59.123-.92s-.226-.69-.52-1.06c-.3-.37-.775-.76-1.434-1.14-.227-.13-.43-.25-.614-.35-.185-.09-.344-.17-.473-.23-.15-.06-.286-.12-.405-.17l-1.704 2.11c-1.338-.79-2.006-1.18-3.35-1.97-.285-.14-.515-.3-.687-.48-.14-.15-.25-.33-.32-.53s-.01-.42.16-.66c.32-.42.82-.68 1.5-.76.69-.08 1.48-.02 2.37.16.89.19 1.83.48 2.81.89.99.4 1.92.87 2.81 1.39.96.57 1.79 1.14 2.51 1.7.71.56 1.24 1.15 1.57 1.75.33.6.44 1.22.31 1.87-.13.65-.55 1.35-1.26 2.11-2.01 2.15-3.02 3.23-5.01 5.37-.12.13-.16.27-.11.44.04.17.15.31.33.44l1.29.85-.92.97c-2.25-1.32-3.38-1.98-5.63-3.3zm4.41-5.75c-1.15-.46-2.12-.82-2.91-1.06-.795-.24-1.46-.38-2.01-.42-.55-.03-1 .03-1.354.19-.353.16-.656.41-.92.74-.183.23-.3.48-.353.74-.05.26-.04.52.04.79.078.27.218.52.418.76.202.25.462.46.78.65.33.19.685.36 1.06.51.378.15.727.27 1.044.37.37.12.75.22 1.12.3l3.08-3.54zm12.416 14.94c-.62-.16-1.254-.35-1.89-.56-.547-.18-1.153-.4-1.803-.68-.65-.27-1.282-.59-1.904-.95-.67-.39-1.185-.77-1.553-1.15-.367-.37-.593-.74-.675-1.12-.08-.37-.032-.76.147-1.14.182-.38.483-.79.914-1.21 2.54-2.53 3.826-3.8 6.39-6.35l-2.168-1.3c.32-.33.482-.5.803-.83 1.4.24 2.1.36 3.5.61 1.6-.43 2.4-.64 4.02-1.05.94.58 1.41.87 2.36 1.44-1.09 1.02-1.63 1.52-2.72 2.54l4.61 2.8c-.56.49-.84.73-1.41 1.22-1.82-1.1-2.73-1.66-4.55-2.76-2.31 2.15-3.47 3.21-5.77 5.35-.67.63-.93 1.2-.78 1.71.16.51.64 1 1.46 1.49.24.14.49.28.75.41.26.13.49.24.7.33l.71.31-1.09.94zm-57.088-25.49c-.187-.08-.358-.11-.52-.08-.163.03-.28.13-.346.3-1.44 3.65-2.157 5.46-3.612 9.08-.403 1-.89 1.84-1.45 2.52-.565.68-1.206 1.17-1.922 1.48-.716.31-1.503.41-2.364.31-.862-.1-1.8-.45-2.826-1.05-.34-.19-.684-.42-1.023-.68-.35-.26-.67-.52-.97-.79-.31-.26-.59-.52-.85-.77s-.48-.47-.65-.67c.61-1.96.9-2.95 1.49-4.93l2.05 1.19c-.22 1.58-.33 2.36-.57 3.92 0 .1.01.21.04.31.03.09.07.19.14.28.07.09.17.18.31.26.47.28.91.43 1.34.45.42.03.83-.09 1.23-.35s.78-.7 1.16-1.3c.37-.6.74-1.4 1.1-2.39 1.32-3.65 1.97-5.48 3.27-9.17.06-.17.04-.35-.05-.53-.1-.18-.23-.32-.38-.43l-1.75-1.17c.18-.54.27-.82.44-1.36 3.62 2.09 5.43 3.14 9.05 5.23l-.55 1.31-1.82-.9zm11.882 18.82c-.53.89-1.17 1.61-1.91 2.16-.745.56-1.56.94-2.445 1.13-.89.2-1.82.21-2.81.03s-1.99-.56-3.03-1.16c-.95-.56-1.75-1.2-2.4-1.95-.65-.75-1.14-1.57-1.46-2.45-.33-.88-.48-1.82-.45-2.8.02-.98.25-1.98.68-2.99.45-1.04 1.02-1.87 1.72-2.48.7-.61 1.5-1 2.4-1.18s1.86-.15 2.9.08c1.04.24 2.11.67 3.2 1.3 1.16.68 2.11 1.43 2.84 2.26.72.82 1.23 1.69 1.52 2.59.28.9.36 1.81.23 2.74-.14.93-.48 1.84-1.02 2.74zm-3.95-2.32c.184-.33.362-.7.53-1.1.17-.39.313-.79.426-1.2.114-.41.185-.82.207-1.23.022-.41-.015-.8-.11-1.18-.1-.38-.27-.73-.508-1.06-.24-.33-.57-.62-1-.86-.62-.36-1.22-.5-1.76-.43-.55.08-1.05.3-1.5.65-.45.36-.86.8-1.21 1.33s-.67 1.06-.92 1.6c-.18.36-.34.74-.49 1.14s-.28.83-.38 1.25-.16.83-.19 1.24c-.03.41 0 .8.09 1.18.09.38.24.72.45 1.04.21.31.52.59.91.82.58.33 1.12.45 1.65.37.52-.09 1.01-.3 1.47-.64.46-.35.89-.78 1.28-1.3.38-.52.73-1.05 1.02-1.59zm19.46 10.29c-.674.83-1.475 1.51-2.39 2.04-.92.53-1.908.88-2.96 1.05-1.054.18-2.15.15-3.297-.06-1.148-.21-2.304-.66-3.48-1.34l-4.595-2.67c3.164-5.06 6.34-10.11 9.523-15.16l-2.03-1.17c.238-.39.354-.58.592-.98 2.08.56 3.13.85 5.253 1.44.606.36.91.54 1.52.89-1.8 2.64-2.693 3.95-4.475 6.57.52.03 1.063.09 1.6.2.466.09.986.23 1.55.4.563.17 1.11.41 1.643.72.75.44 1.378.97 1.88 1.58.496.61.828 1.28.99 1.99.16.71.138 1.45-.067 2.22-.2.77-.62 1.54-1.25 2.32zm-4.37-1.59c.45-.59.77-1.18.957-1.75.19-.57.25-1.11.16-1.64-.08-.52-.3-1.02-.68-1.48-.36-.47-.88-.89-1.52-1.26-.17-.1-.34-.2-.52-.28l-.49-.22-.53-.21c-2.2 3.25-3.3 4.87-5.48 8.11.15.09.25.16.31.2.06.04.13.09.21.14.7.41 1.38.7 2.04.88.66.18 1.3.22 1.92.11.63-.1 1.24-.37 1.85-.78.61-.41 1.2-1.01 1.79-1.8zm8.136 5.87l-1.426-.82c2.33-3.71 3.487-5.57 5.767-9.33.26-.29.55-.52.86-.66.32-.14.64-.22.98-.23.34-.01.68.03 1.03.13s.7.25 1.03.45c.33.19.61.4.84.64.23.23.4.48.48.74.09.26.1.53.02.82-.07.28-.25.57-.53.87-3.7 2.93-5.5 4.41-9.03 7.42zm-1.215 3.69c-.214.24-.472.44-.77.58-.302.15-.61.25-.933.29-.318.05-.638.05-.956 0-.32-.05-.612-.15-.88-.31-.205-.12-.397-.28-.58-.48-.18-.2-.313-.43-.4-.69-.087-.26-.105-.53-.056-.83.05-.3.203-.61.465-.92.233-.27.5-.48.803-.62.305-.14.616-.22.936-.24s.634.01.945.08c.31.07.59.18.83.32.23.14.44.31.63.53.18.22.31.46.38.72.07.26.07.53.01.8-.06.28-.21.55-.44.81z"/><path fill="#FFF" d="M128.572 166.626s18.824-7.82 28.3 0c0 0 .515 2.11-1.928 2.52 0 0-7.223-6.805-24.994-1.082"/><path fill="#E6E7E8" d="M137.034 164.097l-1.425 2.473s-5.44 1.353-6.3 1.763c-.86.41-.75-4.507-.75-4.507l6.36-.675 2.09.95z"/><path fill="#FFF" d="M96.566 168.07s-6.51.122-8.178 2.81c0 0-1.297 1.834.902.978 0 0-1.51 2.29 1.208 1.404 0 0-1.038 2.23 1.502 1.04 0 0 5.594-3.85 6.695-4.612m16.617 8.043s4.833 7.76 3.377 11.695c0 0-.96.835-1.43-.992 0 0-1.41 3.457-2.46-.12 0 0-1.41 2.68-2.31-.73 0 0-.52-8.992-.62-10.768"/><path fill="#E6E7E8" d="M94.992 168.363s-1.936 2.496 1.32 2.944c3.258.448 1.474-3.36-1.32-2.944zm17.19 12.5s2.57 3.135 4.528-.34c0 0-2.992-2.69-4.528.34z"/><ellipse transform="rotate(20.4 112.1 163.7)" fill="#FFF" cx="112.183" cy="163.825" rx="18.301" ry="16.849"/><path fill="#E6E7E8" d="M124.095 177.253s2.25-4.42 2.515-6.77l1.963 1.446s-.966 2.53-4.478 5.32z"/><path fill="#FFF" d="M96.54 154.65s-13.97-16.59-15.65-38.062l-15.688 9.747s-.326 6.652 30.133 32.552"/><path fill="#E6E7E8" d="M91.866 148.004s2.28 4.99 2.854 10.36c0 0 2.204-1.613 5.91-.566l-8.764-9.794z"/><path fill="#D0D1D2" d="M105.19 119.606s-6.32-8.666-7.254 3.415l2.107-.38 5.148-3.03z"/><path fill="#919396" d="M101.563 121.364s-2.406-5.538-2.77 1.007c-.362 6.55 2.77-1 2.77-1z"/><path fill="#FFF" d="M143.39 157.21c-6.155 11.313-22.594 14.266-36.72 6.585-14.128-7.68-20.59-23.082-14.436-34.4 6.153-11.32 22.595-14.27 36.722-6.59 14.125 7.68 20.588 23.083 14.434 34.404z"/><path fill="#D0D1D2" d="M100.164 153.564s-2.87 12.835 5.318 3.522l-5.318-3.522z"/><ellipse transform="rotate(28.6 113.8 141.7)" fill="#D0D1D2" cx="113.847" cy="141.782" rx="24.365" ry="18.585"/><path fill="#D0D1D2" d="M141.816 140.027s6.938-.592 9.167 3.4c0 0 2.38 6.095-6.983 8.846l-2.36.83s-.682-1.452.536-3.143c0 0 11.356-4.11.124-6.826 0 0-1.523-.972-.484-3.107z"/><path fill="#BE202E" d="M101.563 150.69s-4.544 16.985 5.072 3.316c0 0-1.092-2.057-1.49-3.558 0 0-2.852.633-3.582.24z"/><ellipse transform="rotate(28.6 103 134.1)" fill="#FFF" cx="103.017" cy="134.255" rx="9.982" ry="9.837"/><ellipse transform="rotate(28.6 123.3 145.4)" fill="#FFF" cx="123.304" cy="145.537" rx="12.321" ry="12.241"/><path fill="#919396" d="M143.133 142.517c0-.01.617 6.293-.182 7.81l1.39-.802s9.72-4.897-1.2-7.008z"/><path fill="#D0D1D2" d="M141.578 139.9s6.94-.593 9.167 3.397c0 0 2.38 6.097-6.98 8.85l-2.364.83s-.68-1.454.54-3.145c0 0 11.36-4.11.13-6.827 0 0-1.52-.97-.48-3.106z"/><path fill="#6D6F71" d="M105.957 148.565l-1.393 2.227.366.156 1.342-2.246m-6.107-2.19s-.292 5.188 4.652 3.875l.113.562s-6.33 1.17-5.163-4.61l.398.17z"/><path fill="#6D6F71" d="M105.145 150.45s2.108 7.07 7.064 3.314l.25.208s-4.37 4.6-7.9-3.18l.58-.343z"/><path fill="#6D6F71" d="M111.564 153.214s2.547-.103 1.015 1.742c0 0 2.22-2.09-1.02-1.742z"/><path fill="#D0D1D2" d="M104.058 160.11s-5.493 4.25-8.084 10.514c0 0 1.717 4.662 6.912 7.334 0 0 4.38 2.995 9.756 2.896 0 0 2.734-9.892 1.205-17.61 0 0-4.814-.367-9.79-3.134z"/><path fill="#FFF" d="M137.025 174.81s.335 1.262-.317 1.832c0 0-.447.366 0 .896 0 0 .604.53.405-.732 0 0 1.102-.244.775 1.1 0 0 .815.163.693-.652 0 0 .41.408.53-.324 0 0-.43-1.285-1.09-2.43-.66-1.15-.99.31-.99.31z"/><path fill="#E6E7E8" d="M89.61 171.67s.75-.692 2.256-.98c0 0-1.998.273-3.462 1.34 0-.002.954-.17 1.205-.36zm.77 1.6s2.155-1.236 2.338-1.48c0 0-1.38 1.16-1.992 1.365l-.347.116zm26.883 15.167s.123-2.002-.427-3.527c0 0 .84 1.706.582 4.02l-.155-.493zm-2.455-.122s.685-1.432-.15-3.69c0 0 .542 2.415-.086 4.06 0 0 .182-.233.236-.37z"/><path fill="#FFF" d="M124.095 171.783l2.515.054s7.005-.325 11.4 4.48c0 0 2.43-2.58-8.232-9.07M110.586 72.57c-.12-.42-.25-.853-.397-1.302-4.1-7.924-13.85-17.46-30.06 19.672 0 0-14.75-25.72-27.48-6.567 0 0-2.92 2.33 0 6.567 0 0-18.16-3.847-17.53 10.526 0 0 9.02 25.047 38.52 28.424l4.67-6.87s11.64-32.05 31.47-42.77c.81-1.885 1.24-4.387.8-7.68z"/><path fill="#0B8ECC" d="M107.78 145.275s2.402-1.676 1.688 3.23l-3.767.78-1.12-3.23s3.52-2.97 3.2-.78z"/><path fill="#FFF" d="M108.973 148.188l-1.62.33s1.005-1.23 1.62-.33zm-3.563-.728l-.43-1.056s.727.033.43 1.055z"/><path fill="#E6E7E8" d="M63.23 114.1l3.173 2.743 5.346-2.966s-1.65-2.745-.36-8.53l-3.3-1.195-4.86 9.948z"/><path fill="#D0D1D2" d="M80.872 92.684s-1.3 15.84-12.988 13.342c0 0-3.165 20.358-16.07 11.488 0 0-8.975-5.76-8.975-9.248l9.39.56-7.72.897s18.32 20.517 21.89-5.57c0 0 .44-9.1-13.76-13.21 0 0 13.35.062 15.44 13.21 0 0 6.81 3.73 12.78-11.47z"/><path fill="#D0D1D2" d="M73.782 104.36s-5.372 5.59 0 14.17c0 0-5.347-4.894-2.388-13.183l2.388-.986zm-9.746 11.727l5.52 3.723-5.52-5.933m-11.806-5.052s-6.47-6.55-13.148-5.716c0 0 12.094 3.93 9.61 6.12l3.538-.41z"/><path fill="none" stroke="#BBBDBF" stroke-linecap="round" stroke-linejoin="round" stroke-miterlimit="10" d="M108.12 75.032c0-3.93-3.745-7.118-8.366-7.118-3.697 0-6.694 2.55-6.694 5.695 0 2.51 2.397 4.55 5.355 4.55 2.367 0 4.285-1.63 4.285-3.65 0-1.61-1.535-2.92-3.428-2.92-1.514 0-2.742 1.04-2.742 2.33 0 1.03.982 1.86 2.193 1.86.97 0 1.754-.67 1.754-1.49 0-.66-.628-1.2-1.403-1.2-.62 0-1.124.42-1.124.95 0 .42.402.76.9.76.396 0 .718-.28.718-.62"/><path fill="#E6E7E8" d="M86.406 78.586s-1.983 8.39 6.027 10.77c8.01 2.38-7.428-2.68-6.027-10.77z"/><circle fill="#0071BC" cx="103.972" cy="134.884" r="8.088"/><path fill="#0F4481" d="M102.737 138.042c-1.724-1.517-1.89-4.14-.376-5.86 1.52-1.723 4.14-1.893 5.87-.377 1.72 1.516 1.89 4.14.38 5.862-1.51 1.724-4.14 1.89-5.86.375z"/><path fill="#FFF" d="M104.96 136.452c-.915-.806-1.003-2.2-.198-3.114.804-.914 2.2-1.007 3.117-.202.91.808 1 2.203.19 3.118s-2.2 1.003-3.12.198z"/><circle fill="#FFF" cx="101.359" cy="134.91" r="1.075"/><circle fill="#0071BC" cx="125.183" cy="145.407" r="9.471"/><path fill="#0F4481" d="M121.76 147.812c-1.26-2.375-.354-5.317 2.018-6.576 2.373-1.257 5.318-.356 6.578 2.02 1.257 2.372.354 5.317-2.02 6.575-2.373 1.26-5.317.36-6.575-2.01z"/><path fill="#FFF" d="M124.855 146.992c-.667-1.263-.187-2.825 1.073-3.494 1.26-.667 2.827-.19 3.497 1.07.667 1.264.186 2.83-1.077 3.498-1.26.668-2.823.186-3.493-1.074z"/><circle fill="#FFF" cx="121.55" cy="143.81" r="1.259"/></svg>