<svg xmlns="http://www.w3.org/2000/svg" width="250" height="250" viewBox="0 0 250 250"><path fill-opacity=".15" d="M184.43 137.485c8.862-10.933 0-26.222 0-26.222-17.903-4.86-27.765-34.46-27.765-34.46-6.47 19.894 8.06 30.702 8.06 30.702l-11.22-7.737c-12.42-13.902-.573-35.896-.573-35.896-12.568 12.77-14.003 25.188-14.125 29.08-.074-27.465-19.685-40.02-19.685-40.02-3.233-1.493-4.974-8.704-4.974-8.704-1.492 4.725 1.99 9.947 1.99 9.947 6.713 11.438 3.104 25.612 3.104 25.612-2.116-16.91-25.817-27.353-25.817-27.353-12.518-5.968 9.036-28.845-2.495-17.904-11.53 10.942-4.184 20.39-4.184 20.39 32.527 34.317 10.326 47.248 10.326 47.248-2.404-11.438-17.218-16.66-17.218-16.66-4.454-4.477-2.422-13.43-2.422-13.43-8.368 10.445 0 18.154 0 18.154 11.774 12.93-1.625 25.612-1.625 25.612-18.45-1.987-9.345 16.67-9.345 16.67-8.42 30.194 8.953 45.608 14.665 49.73.96.75 2.124 2.04 3.12 3.298-.41.678-1.063.9-1.063.9-3.567 3.63-3.77 8.6-2.633 13.388-.18 1.828-.13 3.854.33 6.098-1.07-2.866-3.32-6.81-7.86-8.604 0 0 6.27 7.15 2.74 16.506 0 0-1.68 4.382 1.09 7.366h97.55c2.77-2.984 1.09-7.366 1.09-7.366-3.52-9.355 2.74-16.506 2.74-16.506-4.54 1.794-6.79 5.738-7.86 8.604 2.05-10.06-5.29-20.33-5.97-20.845 29.41-12.604 20.06-47.598 20.06-47.598z"/><linearGradient id="a" gradientUnits="userSpaceOnUse" x1="61.215" y1="123.418" x2="185.385" y2="123.418"><stop offset="0" stop-color="#ED2C24"/><stop offset="1" stop-color="#FAA819"/></linearGradient><path fill="url(#a)" d="M181.447 134.502c8.86-10.934 0-26.222 0-26.222-17.905-4.86-27.767-34.46-27.767-34.46-6.47 19.893 8.06 30.702 8.06 30.702l-11.22-7.737c-12.418-13.902-.572-35.896-.572-35.896-12.57 12.76-14.004 25.18-14.126 29.08-.074-27.47-19.685-40.03-19.685-40.03-3.232-1.49-4.973-8.71-4.973-8.71-1.492 4.72 1.99 9.94 1.99 9.94 6.713 11.44 3.104 25.61 3.104 25.61-2.116-16.9-25.818-27.34-25.818-27.34-12.518-5.97 9.036-28.85-2.494-17.91-11.53 10.94-4.184 20.39-4.184 20.39 32.528 34.32 10.326 47.25 10.326 47.25C91.684 87.74 76.87 82.52 76.87 82.52c-4.454-4.476-2.422-13.43-2.422-13.43-8.368 10.446 0 18.154 0 18.154 11.774 12.93-1.625 25.613-1.625 25.613-18.45-1.98-9.345 16.676-9.345 16.676-8.42 30.194 8.953 45.608 14.665 49.73.96.75 2.124 2.04 3.12 3.298-.41.68-1.063.9-1.063.9-3.567 3.64-3.77 8.6-2.633 13.39-.186 1.83-.13 3.86.325 6.1-1.076-2.86-3.324-6.81-7.867-8.6 0 0 6.265 7.15 2.737 16.51 0 0-1.68 4.38 1.087 7.37h97.55c2.77-2.98 1.08-7.36 1.08-7.36-3.53-9.35 2.73-16.5 2.73-16.5-4.55 1.8-6.79 5.74-7.87 8.61 2.05-10.06-3.69-15.98-5.38-17.48.7-1.37 1.87-2.81 3.7-4.23 0 0-6.77-.27-8.98 4.8-.59-.56-1.24-1.09-1.92-1.6 7.85-3.19 12.53-6.25 12.53-6.25 21.13-14.81 14.13-43.67 14.13-43.67zm-19.585 51.2c2.965 5.426 3.13 9.108 2.328 11.54-.215-.727-.522-1.472-.963-2.24 0 0-3.79-4.228-1.365-9.3z"/><path fill="#FF8500" d="M75.84 118.96s16.69-20.025 1.513-32.458c0 0 11.718 1.822 16.735 21.778 0 0 24.292-25.26 5.018-41.174 0 0 19.195 4.163 15.558 35.56 0 0 12.415-33.82 3.71-46.5 0 0 10.942 6.713 17.16 49.732 0 0 3.504-18.4 4.984-24.618 0 0-4.307 12.93 29.048 31.083 0 0-11.293-11.058-13.59-24.8 0 0 12.285 23.582 18.598 25.298l-98.734 6.1z"/><path fill="#D0D1D2" d="M75.352 117.108s-19.514-8.36-8.896 13.14l3.197-2.778 5.7-10.362z"/><linearGradient id="b" gradientUnits="userSpaceOnUse" x1="121.088" y1="189.165" x2="121.088" y2="96.785"><stop offset=".64" stop-color="#FFF"/><stop offset="1" stop-color="#EEAE1E"/></linearGradient><path fill="url(#b)" d="M178.67 140.802c.963 25.48-24.036 47.11-55.84 48.312-31.803 1.2-58.363-18.482-59.325-43.962-.962-25.484 24.038-47.112 55.84-48.315 31.8-1.202 58.36 18.482 59.325 43.965z"/><path fill="#919396" d="M163.39 116.06c-.016-.02 7.41 10.084 7.578 13.472l1.543-2.762s11.6-18.153-9.12-10.71z"/><path fill="#D0D1D2" d="M158.634 113.15s11.21-8.02 19.037-3.477c0 0 10.21 7.97-2.94 22.113l-3.18 3.8s-2.62-1.787-2.26-5.892c0 0 15.18-18.47-6.68-11.746 0 0-3.57-.117-3.96-4.797zm3.926 34.386c.994 21.34-19.814 39.25-46.486 40.007-26.67.754-49.1-15.935-50.098-37.275-.998-21.34 19.813-39.25 46.482-40.005 26.67-.754 49.1 15.932 50.1 37.273z"/><path fill="#6C6F71" d="M105.94 164.46v7.353l.91-.268v-8.038"/><ellipse transform="translate(-5.4 3.4)" fill="#FFF" cx="86.769" cy="143.555" rx="19.758" ry="19.474"/><path fill="#FFF" d="M157.063 141.34c.506 13.37-9.995 24.62-23.452 25.13-13.46.51-24.78-9.92-25.28-23.29s10-24.62 23.46-25.127c13.46-.51 24.78 9.917 25.29 23.286z"/><g fill="#F00"><circle cx="123.295" cy="153.173" r="7.203"/><circle cx="93.236" cy="152.112" r="6.374"/></g><g fill="#A30000"><circle cx="122.73" cy="152.372" r="5.556"/><circle cx="93.625" cy="152.786" r="4.017"/></g><path fill="#0B8ECC" d="M106.01 156.473s2.396-5.28 6.14 3.795l-5.624 5.136-5.176-4.367s2.983-8.617 4.66-4.564z"/><path fill="#FFF" d="M110.982 160.224l-2.422 2.193s.464-3.104 2.422-2.193zm-6.802 2.36l-1.796-1.362s1.272-.678 1.797 1.362z"/><path fill="#D0D1D2" d="M71.667 131.018s8.215 20.35 29.683 25.66c0 0 15.515-16.326-3.763-30.198 0 0-15.922-8.258-25.92 4.538z"/><path fill="#D0D1D2" d="M112.88 157.34s21.813-4.866 42.073-24.995c0 0-5.072-19.28-29.912-14.31 0 0-31.39 12.214-12.16 39.304z"/><path fill="#D0D1D2" d="M67.012 152.452s12.65-7.685 24.72 11.62c12.068 19.3 19.454 1.895 28.228 2.652 8.774.755 38.77-24.347 37.122-4.876-1.646 19.468-18.86 15.408-18.86 15.408l-43.662.353-27.548-25.16z"/><path fill="#FFF" d="M120.01 188.975c-5.202 0-10.492-.577-15.724-1.71-.282-.05-25.997-4.597-36.9-27.98.158-.964 1.243-6.333 5.99-6.333 4.346 0 10.396 4.302 17.983 12.783.28.286 6.68 6.486 18.98 6.486 9.29 0 19.37-3.55 29.95-10.56.09-.07 5.88-4.64 10.35-4.64 1.54 0 2.71.54 3.56 1.64 2.39 3.1 2.12 10.35-.78 21.56-1.53.98-14.28 8.78-33.43 8.78z"/><path fill="#6C6F71" d="M73.378 153.45c2.885 0 8.282 2.19 17.61 12.618l.02.02.02.022c.273.27 6.81 6.608 19.313 6.608 9.4 0 19.57-3.58 30.23-10.652l.04-.022.04-.03c.06-.043 5.71-4.51 10.01-4.51 1.39 0 2.43.473 3.18 1.443 1.57 2.03 2.69 7.313-.82 20.937-2.07 1.3-14.54 8.592-32.99 8.592-5.16 0-10.42-.572-15.61-1.7l-.02-.005h-.02c-.25-.04-25.6-4.51-36.44-27.55.22-1.17 1.36-5.77 5.47-5.77m0-.99c-5.61 0-6.5 6.91-6.5 6.91 11.1 24.03 37.3 28.39 37.3 28.39 5.65 1.23 10.95 1.72 15.83 1.72 20.74 0 33.86-8.96 33.86-8.96 5.02-19.21 1.52-24-3.22-24-4.7 0-10.63 4.73-10.63 4.73-12.1 8.02-22.03 10.49-29.67 10.49-12.23 0-18.61-6.32-18.61-6.32-8.9-9.95-14.65-12.95-18.35-12.95z"/><path fill="#F69C95" d="M69.323 155.62s3.61-2.376 7.034 5.368c0 0 3.637-8.406 6.163 1.596 0 0 3.574-4.9 5.427 3.45l2.494-.63s-10.15-11.17-15.08-11.66c0 0-3.58-1.866-6.03 1.875zm52.972 15.343l1.204 1.62s8.41-6.047 9.19-.776c0 0 6.81-13.332 7.45-.69 0 0 9.25-20.367 9.63-.973 0 0 3.25-10.243 5.17-8.377 0 0-.21-6.147-6.71-3.954 0 0-6.2 2.727-9.53 5.216-3.32 2.49-12.68 6.55-16.42 7.93z"/><path d="M76.826 168.088v-5.06s1.157 5.445 6.422 8.784v-5.326s.792 5.197 4.7 8.667v-4.122s.45 3.48 3.783 5.54c0 0 1.78-3.72 1.92-4.88 0 0 3.41 6.3 4.47 7.58l2.09-5.55s1.28 3.62 3.98 6.58l.52-5.78 1.83 5.78s4.14-.64 5.07-5.14l1.33 6.68s6.49-4.77 7.04-8.11v7.09s1.93-2.65 2.94-4.71c.36-.73.61-1.39.61-1.83l1.02 7.58s5.46-1.74 8.18-9.25v7.84s4.94-2.5 7.2-7.83v5.78s5.91-1.44 9.51-7.4l-2.44 6.12s5.97-3.69 8-8.99c0 0 .81-1.44 0 1.98 0 0-5.81 7.27-9.02 8.43l1.16-3.72s-5.65 4.98-7.83 5.06l.43-5.7s-2.74 4.79-7.28 7.02l-.13-6.47s-1.97 5.35-7.83 7.84l-1.2-5.99-3.55 5.31-.25-5.78s-3.89 4.54-6.76 6.47l-1.06-6.04s-.93 3.04-5.07 4.41l-1.52-4.24-.51 4.93s-3.64-2.52-4.37-6.76l-2.01 5.87-4.46-8.09-1.91 4.54s-2.74-1.97-3.43-4.03l-.36 2.82s-3.5-2.81-4.1-6.12l-.08 2.95s-5.48-4.28-6.21-6.72l-.34 4.02-8.65-12.97s3.77 6.63 8.26 11zm-4.34-5.06l-1.825 1.19.85 1.185 1.32-1.925m77.7 11.52l2.89 3.174-.28 1.652-.86.53-2.3-4.796m-73.56-6.735l.7 2.56.27-2.987m5.9 3.417l.52 3.852-.26-3.852m3.85 3.184l-.59 2.612.59 1.39.59-3.34m3.21 1.01l.57 3.68.33-4.01m5.53 3.39l.53 2.78v-3.26h-.78m6.47 1.09l.9 3.96v-4.02m14.95.6l-.6 4.19.92 1.46v-5.74m4.47 1.71l.08 3.16.53-4.07m7.36-.82l-.42 3.51 1.03.77-.3-4.67m6.6-1.16l-.66 4.19 1.65-4.45m6.34-1.33l-2.06 4.62h1.46l1.4-4.62" fill="#BBBDBF"/><path fill="#F69C95" d="M105.468 187.01s5.78-.3 6.98-1.926c0 0 1.112 2.656 2.996 3.17 0 0 3.293-.174 4.516-1.71 0 0 2.428 3.08 4.78-.346 0 0 2.267 3.168 7.232-.515 0 0 4.713 2.355 6.767-2.934 0 0 1.96 3.79 5.81-.45h1.46s4.81-1.19 5.66-3.15l.57 1.2s-19.25 12.18-46.78 6.65zm-6.508-1.668l-.85-2.14s-6.37.055-6.3-2.313c0 0-4.538.17-4.452-1.89 0 0-3.392-.27-3.596-3.34 0 0-3.81-.17-6.68-4.28l-1.242-.42s8.265 9.84 23.12 14.38z"/><path fill="#404041" d="M150.52 174.997s4.358-4.608 4.433-4.932-.83 6.192-1.542 8.106l-2.89-3.17zm-79.86-10.78l1.828-1.188-3.924-5.94s-.728 1.62-.664 2.07c0 0 2.118 4.15 2.76 5.05z"/><path fill="#A6A8AB" d="M90.764 162.584s.876 2.26 4.302 3.902c0 0-2.292-1.785-3.458-4.053l-.844.15zm-22.29-11.64s-1.624 1.65-1.602 3.595c0 0 .85-2.55 1.925-2.87l-.322-.74z"/><path fill="#BBBDBF" d="M103.58 150.14s2.116 6.32 8.96-.174l1.167 1.742s-6.925 5.836-11.755.255l1.627-1.822z"/><path fill="#A6A8AB" d="M98.11 167.96s13.203 5.848 27.342-2.557l-1.3-.44s-8.436 7.107-26.04 2.996zm55.57-13.368s5.962 1.746 3.466 9.685c0 0 3.968-8.822-2.98-10.533l-.485.848z"/><path fill="none" d="M102.85 133.066c.625 1.087 1.124 2.178 1.512 3.262l5.94-.173c.336-1.16.756-2.252 1.236-3.284l-8.688.2z"/><path fill="#BBBDBF" d="M104.362 145.833c.165.458.31.915.437 1.367h5.11c.11-.524.24-1.04.39-1.54l-5.94.173zm0 2.054s3.46 3.95 6.33.836l.502 1.876s-6.7 3.66-6.832-2.72z"/><path fill="#E6E6E6" d="M103.89 142.96c.537.146 1.09.274 1.662.39.004-1.8-.21-3.706-.753-5.653h-1.99c.55 1.71.95 3.49 1.07 5.263zm-7.25-16.915s.618.795 1.49 2.133l.977.058c-.743-.743-1.56-1.473-2.466-2.19zm3.948 26.407l1.796 3.016s2.526-4.225 3.067-10.018c-.4-.154-.92-.367-1.54-.637-.13 2.774-1.07 5.435-3.32 7.64zm.352-19.342c.503 1.028.99 2.13 1.42 3.276l2-.06c-.387-1.083-.885-2.174-1.51-3.26l-1.91.044zm-1.36-4.388l-1.087.02c.53.84 1.13 1.84 1.73 2.966l1.73-.07c-.675-.984-1.462-1.956-2.372-2.916zm15.438-.154l-.922.013c-.604.82-1.176 1.69-1.7 2.62l.968-.03c.466-.85 1.014-1.72 1.654-2.59zm-2.87 26.752l4.11-2.042s-3.2-3.434-4.58-8.667c-.905.35-1.642.62-2.173.81.302 3.02 1.127 6.31 2.643 9.9zm-.953-17.624h-1.284c-.34 1.588-.53 3.288-.53 5.1.62-.226 1.23-.45 1.82-.675-.17-1.39-.2-2.87 0-4.42zm.345-4.826c-.48 1.033-.9 2.126-1.238 3.285l1.172-.035c.237-1.065.586-2.158 1.066-3.272l-1 .023zm14.473-13.91s-6.837 2.898-11.747 9.395l.968-.075c2.322-3.076 5.78-6.225 10.78-9.32z"/><path fill="#E6E7E8" d="M103.91 144.813c.613.27 1.137.482 1.542.637.064-.68.1-1.384.1-2.102-.57-.114-1.124-.243-1.66-.39.042.623.05 1.242.02 1.855zm5.464-2.017c0 .85.04 1.725.13 2.625.532-.19 1.27-.46 2.173-.81-.21-.79-.376-1.62-.484-2.49-.594.23-1.203.45-1.82.68zm-7.014-6.41c.16.43.31.868.455 1.31h1.984c-.13-.453-.28-.91-.44-1.367l-2.01.05zm9.114-.266l-1.172.035c-.146.5-.275 1.015-.39 1.54h1.283c.067-.517.16-1.043.28-1.575z"/><path fill="#BBBDBF" d="M111.54 132.87c.267-.574.553-1.13.855-1.67l-10.444.436c.33.476.63.955.9 1.43l8.69-.195z"/><path fill="#E6E7E8" d="M102.85 133.066c-.276-.476-.574-.955-.9-1.43l-1.728.07c.24.45.48.918.717 1.403l1.91-.05zm9.69-.218c.24-.558.515-1.118.824-1.686l-.968.04c-.302.537-.588 1.094-.856 1.67l1-.024z"/><path fill="#BBBDBF" d="M99.58 128.722l5.89-.102-6.363-.385c.162.162.32.326.474.487z"/><path fill="#E6E7E8" d="M99.106 128.235l-.977-.058.36.563 1.09-.02c-.16-.16-.31-.323-.48-.485z"/><path fill="#999" d="M140.517 128.247l-.002.004h.004"/><path fill="#BBBDBF" d="M110.982 128.62l3.113-.04c.057-.076.113-.148.17-.226l-3.283.266z"/><path fill="#E6E7E8" d="M115.234 128.28l-.968.074c-.057.077-.114.15-.17.227l.922-.01c.07-.09.143-.19.216-.29z"/><g fill="#231F20"><path d="M88.693 205.023l.014-.035-.022-.02c.003.022.004.035.008.055zm15.487-3.69c-.06 0-.09.025-.083.086.005.06.11.18.313.36h.062c.103 0 .152-.04.144-.12-.022-.22-.167-.33-.435-.34zm-1.446-1.71c-.023-.212-.17-.322-.44-.325-.084 0-.125.02-.12.058.01.078.117.204.324.383h.06c.126 0 .184-.04.176-.12zm-16.247-3.563c-.277 0-.58.16-.606.31 0 .035.07.078.18.078l.07-.007c.02.01.02.01.04.01l.26-.02c.12-.13.18-.2.29-.34 0-.02-.04-.02-.1-.02-.02 0-.05.01-.08.01-.01 0-.01-.01-.03-.01zm22.523 1.78c-.048-.036-.07-.05-.118-.084.01.035.018.05.03.085 0 .01 0 .01.002.01h.086zm1.004.512c-.04.004-.074.048-.06.087.014.03.093.06.158.08.02-.03.043-.05.043-.07 0-.06-.09-.12-.14-.11zm3.27 4.93c-.017.008-.01.12.05.138l.016-.113c-.015 0-.06-.024-.066-.024zm-3.898 1.826c-.026-.01-.088-.05-.136-.078l.013.187.123-.11zm-.922-6.862l.143-.148c-.114-.03-.19-.043-.205-.043l.062.19zm1.42 4.307l.09.024c-.02-.045-.204-.07-.204-.07s.082.015.113.046zm3.043-6.61c.064 0 .12 0 .174-.003-.05-.03-.11-.056-.17-.077v.08zm-.627.65c-.015.052.098.237.23.408.11.03.163.04.273.07.053 0 .08-.02.092-.05l.22.05c.077 0 .112-.03.108-.09-.006-.08-.073-.17-.202-.27-.12-.09-.24-.14-.35-.13-.03 0-.06.02-.06.02 0 .01.02.05.03.07-.09-.05-.18-.09-.26-.09-.03.01-.06.02-.06.03zm-1.28.017c-.013 0-.028-.016-.04-.02.01.017.018.03.017.02h.022zm2.422 1.647l.062-.063-.024-.024c-.027.03-.04.06-.038.087zm-3.432 4.39c.01.03.012.057.016.066.027.076.122.158.168.202.036-.07.055-.11.086-.178.035.07.115.145.16.186l.096-.198c-.03 0-.32-.143-.323-.142 0 0 .028.04.04.07.007.025.01.045.012.058-.066-.02-.29-.13-.292-.13 0 0 .028.04.037.07zm14.657 2.918c-.025-.01-.085-.052-.132-.08 0 .062.002.12.004.2.05-.046.07-.07.12-.12zm2.058-9.133c.01 0 .014-.003.02-.003-.013 0-.028-.02-.043-.03.015.03.023.03.023.02zm1.295-.022c-.02.06.085.255.206.436l.268.067c.06 0 .09-.027.1-.066.097.022.155.038.257.06.08 0 .12-.03.12-.092 0-.092-.06-.188-.18-.288-.12-.097-.23-.146-.34-.143-.03 0-.06.013-.06.023 0 .018.02.067.04.108-.11-.084-.21-.13-.31-.128-.03.002-.06.014-.06.024zm1.04 1.775l.067-.07-.023-.022c-.03.03-.043.06-.043.092zm-.372-2.472l.173-.002c-.05-.03-.11-.06-.17-.08v.09zm-5.516 6.672c.01-.066-.022-.18-.06-.31-.04.07-.083.142-.14.235l.2.075zm2.468-4.083c-.038.004-.077.05-.064.094.012.037.09.07.15.09.022-.023.048-.05.05-.067 0-.07-.085-.13-.137-.12zm-1.536-.105l.15-.16c-.11-.034-.183-.046-.198-.046.02.09.028.13.048.21zm1.303 4.71c.007.032.01.062.012.072.02.08.11.17.15.21l.1-.22c-.03 0-.31-.15-.31-.15s.02.04.03.07zm3.283.783l.018-.12c-.015-.002-.06-.028-.063-.026-.02.007-.014.13.044.147zm-4.018-5.933c-.045-.035-.067-.056-.112-.09.01.035.013.055.023.09 0 .004 0 .006.002.01.007-.003.015-.01.02-.01h.067z"/><path d="M125.283 202.812l.09.024c-.016-.048-.2-.075-.2-.075s.08.02.11.06zm19.137-7.398c.063 0 .117-.002.17-.003-.052-.03-.105-.06-.164-.08l-.006.09zm-1.98.756c-.013 0-.028-.016-.04-.02.01.03.018.038.02.023l.02-.002zm-4.428-4.748c-.004.012-.01.038-.027.068 0 .028-.004.042-.005.07.093.005.14.01.23.017l.01-.287c-.007-.002-.014-.013-.02-.013-.077.003-.17.065-.188.145zm5.77 4.7c-.03 0-.06.01-.064.023-.022.06.067.264.18.453l.264.07c.073 0 .113-.033.116-.098l-.003-.012c.007.012.01.022.018.034.11.027.164.042.27.07.078 0 .117-.035.12-.1.005-.098-.052-.198-.168-.3-.116-.103-.23-.153-.336-.15-.03 0-.07.013-.07.025-.01.03 0 .096.04.177-.02-.015-.02-.03-.04-.045-.12-.1-.23-.15-.33-.15zm-2.99 6.848c.007.032.006.058.01.07.02.083.105.178.146.227l.116-.227c-.03 0-.302-.153-.304-.15 0 0 .026.044.033.08zm-.12-.105c.035.01.053.016.088.024-.013-.05-.196-.08-.196-.08s.08.01.108.05zm-2.098-.417c.014-.07-.013-.188-.044-.325l-.15.25c.077.03.115.046.194.075zm-.05-.988l-.07.223s.003.102.062.37l.015.07.22-.346c-.13-.114-.21-.314-.22-.316zm6.136-3.463c.03-.028.044-.046.072-.074-.01-.01-.014-.016-.022-.027-.03.035-.048.068-.05.1zm-4.992-.172c.017.085.024.13.04.216l.16-.17h-.002c-.108-.03-.182-.04-.198-.04zm.274 7.93c-.024-.01-.083-.05-.127-.08l-.004.207.14-.128zm1.292-7.615c-.038.006-.08.055-.067.102.008.038.085.07.146.092.023-.025.05-.054.052-.072.005-.066-.077-.13-.13-.12zm-.934-.564c-.045-.037-.067-.06-.11-.096.008.038.01.06.018.096 0 .003 0 .005.002.008.007 0 .015-.008.02-.008h.07zm3.748 6.162l.024-.127c-.015 0-.058-.02-.064-.02-.018.01-.018.14.04.16zm25.178 6.114c-.557.03-.836.048-1.392.078-.01 0-.02 0-.03.002l-.202.5c-.132-.002-.253-.072-.36-.22-.112-.162-.254-.233-.428-.224-.01 0-.02.004-.03.004-.007 0-.013-.004-.02-.004-.207.01-.495.074-.857.193-.37.13-.614.2-.776.23.02-.13.02-.2.03-.34l-.06.01h-.09l-.03.01h-.05c-.35.02-.54.12-.56.31 0 .09.01.2.04.36.03.15.04.26.04.33-.03.41-.12.94-.26 1.59-.21 1-.35 1.58-.34 1.61.1.15.86.35 1.07.4.28.08.7.05 1.11.01h.06c.13-.01.27-.03.42-.05h.02c.54-.07 1.23-.21 2.09-.41.05-.33.07-.49.11-.82-.03-.27-.05-.46-.06-.46-.01-.01-.12.03-.2.04-.07.01-.14.01-.2.02h-.01c-.07.01-.12 0-.14-.01.02-.13.02-.19.04-.32-.13-.08-.2-.14-.19-.21 0-.04.02-.07.06-.09.03-.02.05-.05.05-.06.01-.1-.16-.13-.5-.11h-.03l-.41.05c-.17.03-.3.05-.4.06h-.08c.05.12.06.18.11.3l-.01.02c.02 0 .05.02.09.02.02.01.05 0 .07 0h.05c.07 0 .18-.02.31-.06.13-.03.21-.04.27-.05.05 0 .12.01.23.03-.02.13-.02.19-.04.32.11-.01.19.01.19.03.01.02-.15.06-.45.09-.31.02-.54 0-.69-.05-.12-.31-.19-.47-.32-.78-.1-.08-.22-.11-.33-.1-.01 0-.02.01-.02.01h-.04c-.06 0-.16.03-.29.09-.12.05-.2.07-.27.08-.15 0-.28-.07-.38-.22-.16-.24-.29-.41-.28-.41 0 0 .32-.29.52-.35.05.04.15.21.23.43.06.16.21.24.46.23l.05-.01h.01c.13-.01.24-.03.31-.05l.04-.02.81.22c.39.1.66.15.8.14h.09l.16-.01c.11-.01.2-.02.26-.02.16-.01.25.03.27.12.02.09.17.19.19.17.02-.01.03-.11.05-.24.02-.19.05-.46.08-.72.06-.43.09-.74.1-.96v.04l.01-.1c.01-.07.03-.18.04-.31.01-.13.01-.24.01-.31zm-1.237 1.215l.2-.48c.11.028.29.064.54.112-.02.13-.02.19-.04.32-.06 0-.15.01-.24.01-.11-.01-.19-.02-.23-.02-.06 0-.09.01-.13.02-.04 0-.08.01-.11.01zm-79.81-19.285c-.06 0-.1.01-.14.016-.02 0-.03-.012-.04-.012-.2.006-.31.035-.34.086l.78.27c-.02-.04-.05-.056-.07-.09l.24.085c-.12-.242-.27-.36-.45-.355zm3.38 16.088c.19-.075.28-.17.26-.285-.01-.076-.09-.12-.24-.136-.02-.01-.03.01-.05.01-.04-.02-.08-.03-.13-.04-.08-.01-.11.04-.1.16l.07.26c.06-.03.1-.06.14-.09l.03.11zm13.3-6.074l.06.002c.1.003.15-.037.14-.118-.02-.22-.17-.334-.44-.338-.07 0-.1.026-.09.087 0 .05.11.18.32.36zm-.34-2.82l-.01-.043c-.17 0-.25 0-.41-.002-.33.25-.49.37-.81.61l.08.8c.46.11.69.17 1.14.28.02 0 .04-.03.05-.09l.42.1c.1 0 .11-.57 0-1.69h-.42l-.06.04zm-13.97 7.454c-.03-.016-.07-.028-.12-.032-.08-.008-.12.055-.09.188.02.09.04.134.06.226.05-.033.08-.065.12-.098l.03.112c.17-.095.24-.19.23-.285-.01-.07-.08-.11-.2-.12-.02 0-.03.02-.04.02zM103 200.6c.044 0 .113-.03.124-.06.027-.07-.15-.345-.413-.622-.06-.012-.1-.02-.16-.03-.04-.002-.06.037-.05.115.01.117.11.395.28.533.06.046.17.062.23.064z"/><path d="M105.196 203.26c.016-.03.096-.15.048-.334-.048-.183.108-.283.114-.3.002-.002-.113-.218-.124-.34-.014-.16.07-.27.07-.27s-.24.015-.502.046c.014-.03.03-.058.03-.058s-.378.02-.703.073c-.12.02-.24.026-.35.032-.02-.09-.05-.28-.08-.64-.02-.2.06-.47.2-.54.05-.03-.16-.04-.68-.04-.16-.01-.39-.01-.73-.02-.15-.01-.25 0-.31.02l-.13.8-.07-.61c-.15-.01-.23-.05-.24-.13l-.03-.27-.32-.03c.35-.07.89-.11.93-.16l-.01-.03c.01.01.01.02.02.03.05.04.16.06.22.06.04 0 .11-.03.12-.06.02-.07-.15-.35-.41-.63l-.14-.03c-.01-.01-.01-.02-.02-.03-.06-.17-.77-.33-.77-.33s.58-.1.61-.2c.03-.1-.44-.55-.93-.61-.19-.02-.42-.03-.69-.02-.96-.04-2.65.2-4.48.2-.63-.02-.96-.08-.98-.2l.03-.03-.26.07c-.02-.02-.05-.03-.05-.05l.02-.03c-.3.09-.5.14-.51.16 0 0 .04.02.12.02h-.14l-.26-.01c.12.13.48.2 1.07.2l.05.39c-.61-.03-1.89.1-1.9.11 0 0 .29.06.41.06h.44l.27.36c.15.04.23.08.23.12l-.32.03c-.01-.02-.06-.04-.14-.07-.15-.05-.64-.13-.77-.1-.15-.02-.27-.02-.29 0-.05.06.35 2.6.64 2.87.15.14.65.2 1.25.23.8.05 1.89.02 2.59.03.19.01.33.03.38.07.43.42.16 3.15-.14 3.89-.44 1.1-1.48 1.58-3.13 1.42-.17-.02-.47-.04-.77-.07-.33-.04-.63-.1-.71-.2-.02-.03-.02-.18-.06-.18-.04-.01-.1.02-.17.06-.01-.04-.02-.08-.04-.08-.08-.01-.26.09-.55.31l.06.38c.18-.09.53.36.48.45-.05.09-.9.19-1.17.23l.1.61c.01-.01.03-.02.05-.02.08.01.45.39.43.49-.02.07-.59.34-.82.42-.13-.1-.37-.37-.44-.42-.09-.07-.15-.35-.18-.5l-.07-.54c-.03-.28-.26-.47-.67-.58-.1-.03-.16-.07-.17-.11-.01-.07.52-.06.75-.22.13-.1.19-.49.16-.68-.03-.21-.18-.43-.44-.63-.2-.15-.62-.36-.66-.48-.04-.13.16-.53.15-.59l-.05-.17c-.04.02-.08.03-.13.05l-.02-.06c-.6.23-1.2.42-1.44.44-.06-.06-.02-.47.09-.55.26.02.39.03.65.06l-.06-.36c-.12-.02.26 0 1.11.06l.24.05-.01-.02.16.03c-.29-.96-.9-4.24-.9-4.24s-.05-.47-.26-2.07c-.13-.98-.28-1.76-.42-1.87-.17-.12-.52-.18-.55-.32l.03-.03h.45c-.05-.27-.2-.72-.42-1.35-.2-.55-.32-1-.36-1.31-.03-.16-.03-.23-.05-.39l.42-.19c-.11-.43-.16-.64-.27-1.06l-.09-.55c-.45-.12-.87-.29-1.25-.48.01.02.01.04.02.06-.05-.02-.11-.03-.16-.06.03.15.05.22.08.36l-.26.01-.3.01c-.04-.44-.13-.72-.2-.82-.04-.05-.71-.47-.8-.55.4.04 1.66.15 1.95.29l.31.32.13.02c.02 0 .04-.02.06-.02l.11.02c.09 0 .19-.04.29-.12.08-.06.16-.07.24-.09.03-.01.05-.03.08-.03l.11.03c-.21-.12-.42-.35-.62-.71-.45-.09-.68-.14-1.14-.22 0-.05.12-.08.33-.09.05 0 .09.01.1.04.02.09.04.13.07.13.03 0 .09-.02.13-.03.01.02.02.03.03.03.11-.01.25-.04.44-.11s.31-.11.38-.11l-.09-.33c.38.05.63.19.74.45.12.3.24.86.33.92.03.02.13.02.25 0 .24.04 1.08-.19 1.57-.27.87-.15 1.3-.35 1.25-.54-.02-.12-.12-.28-.16-.34v-.01c.03.03.1.1.14.1.11-.01.29-.37.22-.52-.04-.08-.12-.17-.22-.25.4.04 1 .01 1.25.02l-.14.36c-.04 0-.08 0-.13-.01l.11.01h-.01l-.4-.01c.48.07.92.13 1.32.17l-.11.31c-.64-.07-.91-.11-.75-.12h-.17c0 .02 0 .03-.01.04-.15-.02-.19-.04-.11-.04h-.16l-.07.57c1.14.3 2.82.85 2.85 1.01 0 .02-.11.66-.11.66s.1 1.11.46 1.37c.5.36 2.23.39 3.96.28 2.09-.07 4.34-.33 4.61-.66 0 0-.19-.65-.6-1.86-.25-.74-.84-1.24-1.22-1.56-.11-.09-.28-.42-.52-.81-.23-.4-.46-.72-.66-.84-.36-.21-.84-.27-1.01-.34-.35-.15-.67-.6-.81-.71-.79-.6-2.74-.9-4.76-1.12-1.68-.18-3.34-.22-4.94-.13-.03 0-.07.01-.1.01h-.15c-.94.05-2 .2-3.15.43-1.63.33-2.37.7-2.24 1.1.04.1.54.08.79.22.36.21.69 1.24.85 1.39.17.16.61.23.79.31-.06.15-.08.22-.14.37l-.26.01-.48.02c-.15-.41-.41-.79-.75-1.16-.35-.36-.7-.72-1.07-1.06-.15.01-.26.01-.39.02-.06 0-.12.01-.2.01-.19.23-.29.34-.49.56h-.11c-.53.02-.8.14-.79.36 0 .38-.03.62-.11.72l-.7.03c-.1.05-.24.34-.44.85s-.28.82-.25.94c.05.16.05.32 0 .45l-.44.01h-.02c.01.1-.01.32-.04.63-.03.23-.01.45.05.65.04.15.14.41.31.77.16.37.25.65.28.85-.11.05-.19.08-.27.12-.04.02-.08.04-.13.06.05.22.13.55.22 1.01.03.2.07.36.1.52.04.21.08.38.11.52.07.33.16.6.25.84.18.47.39.77.63.87.04.02.07.05.08.1.01.08-.07.17-.27.25.14.03.22.05.36.08-.2.04-.5.06-.52.09-.02.03.24.71.4 1.28.16.58.26 1.2.36 1.29.01.01.03.02.05.02.1.01.31-.02.46-.08.19-.07.34-.1.44-.09.07 0 .14.01.19.01.06.01.1.01.1.02.04.05.14.31.48.38l.11.54c-.24.04-.49.05-.76.04-.63-.04-.88.25-.75.86.06.28.23.7.47 1.24.27.58.42 1.01.48 1.27h.01l.34.03.07.01.62 1.38c.23.55.49 1.01.76 1.37.38.27.57.41.96.68.14.3.22.45.36.76.06.01.1.02.15.02l.24.04c.34.37.6.66.78.87l.3.05.29.05.53.63.33.11c.02.01.04 0 .06.01l.04.01c.16.03.38.02.65-.02.25-.04.44-.04.58-.02.08.02.15.04.15.04s-.41.06-.62.06c.03.16.04.24.08.4.43.11 1.21.38 2.31.83.98.39 1.75.65 2.31.75l.2.03h.01l.06.01.21.04v-.01l.23.04c.02-.14.04-.2.06-.2.13.02.19.03.33.06-.36-1.06-.61-1.84-.76-2.37.14-.15.21-.23.36-.37-.04-.03-.09-.06-.1-.08-.02-.04.08-.07.27-.07l.29.62c.09-.01.17 0 .25.02l.01.01.06.01c.14.03.25.09.28.16.04.07-.19.12-.4.16.01-.01.03-.02.03-.03-.01-.06-.14-.11-.38-.14v.02c-.06-.03-.14-.05-.25-.06l.06.43c.1-.01.19.06.28.2.09.14.15.23.2.25l.16-.07c.03.05.07.09.09.11.51-.2.81-.32 1.26-.5l.12.91c-.22-.08-.47-.19-.77-.32l.01.08-.28-.12.15 1.06c.19.2.28.3.47.51l.16-.07.11.11c.38-.17.63-.28.75-.32l-.06-.42H98c.07.03.16.07.27.14.18.11.34.17.46.19.02 0 .06-.02.09-.02.08.03.15.05.21.06.3.04 2.11-1.26 2.06-1.49 0-.01-.13-.08-.16-.12l.63-.16c.2.65.32 1.03.53 1.73l.38.05.04.01.04.11c.04.42.03.57.03.56 0 0 .17.01.39.02v.04s.47.03.867.01c.26-.01.47-.01.65 0 .36.1 1.03.38 1.1.33v-.05c.22.07.41.13.45.1.06-.04-.08-2.48-.19-3.89-.22-2.67-1.49-7-.98-7.95zm-.587 1.234c-.01-.094-.02-.19-.02-.276l.3.29-.29-.014zm-10.06-4.084c.05.02.08.05.09.085.02.15.05.232.09.252-.06 0-.1-.002-.15-.004-.02-.13-.03-.207-.05-.33zm1.93-.01l-.43-.35c.88.094 1.82.184 1.82.19 0 0-.78.144-1.21.176-.06-.006-.11-.012-.19-.018zm7.62 4.79c.01.1-.02.166-.06.22-.05-.104-.1-.194-.17-.324-.69-.24-1.2-.403-1.54-.5l.03-.2.4-.09-.05.12s.8-.175 1.32-.284l.38.36-.86-.04c.31.074.48.32.52.74zm0-1.666c-.18-.04-.36-.08-.59-.135l-.02-.19.04-.01c.3.05.48.16.56.32zm-1.39.47l-.1-.006c-.09-.003-.14.01-.18.03l.02-.136c.08.036.15.067.24.11zm-3.24 1.016c.04.02.08.035.08.042 0 .004-.02.015-.04.02l-.04-.064zm-.3-1.526c-.01-.062.02-.12.08-.18.02.05.06.117.06.136-.01.01-.07.03-.14.045zm1.18 1.397v.03h-.06l-.02-.18c.03.03.06.07.07.16zm.31.05l-.01-.09c.02.04.04.08.07.1h-.06zm1.07 4.47c0 .01.01.03.02.04h-.02l-.01-.03zm-.05 1.71c.01.03.03.06.06.08h-.05l-.01-.07zm-.44-8.15c.01.01-.07.09-.22.13-.15.05-.23.08-.22.1 0 .03.06.07.19.13l.03.04h-.03l-.25-.04-.01.18c.02.2.06.3.12.3.02 0 .07-.01.14-.05l.05.42c-.06 0-.15.01-.27.02l-.14.02-.31-.03c-.27-.03-.61-.05-.62-.06 0 0 .39-.37.37-.51-.03-.23-.19-.36-.48-.37-.02 0-.05.04-.05.08-.06-.03-.13-.05-.21-.06.08-.05.17-.1.3-.16.29-.12.55-.18.76-.18.11.01.29 0 .48 0 .16.01.28.04.33.09zm-1.07-2.66c.02.05-.07.11-.24.16-.02-.11-.02-.2-.04-.3.13.04.24.09.27.16zm0 .82c0 .01-.01.02-.01.03-.05-.01-.1-.03-.16-.06l-.16-.25c.19.09.3.18.31.29zm-1.22-1.86c.01.02-.05.07-.15.12l.08-.18c.03.02.06.04.07.07zm-.2 12.68c.03.07-.07.13-.25.15-.02-.13-.03-.23-.05-.36.14.06.25.13.29.21zm.46-6.46l.42-.15-.14-.22c.07 0 .11 0 .19.01-.01-.05-.01-.08-.01-.11.12.04.2.08.2.09 0 0-.04.03-.06.03l.14.01c0 .14-.01.34-.01.61l.36.02h.04l.06.64c-.19-.01-.57.02-1.12.08l-.1-1zm.53 2.29c.01.11-.02.17-.07.21-.02-.22-.04-.37-.06-.55.05.1.1.2.12.34zm-.23 4.27c.09.04.17.09.19.15.04.1-.08.24-.3.34l.1-.49zm3.11-1.57c.1.06.2.14.24.24.05.13-.1.26-.38.3l.13-.54zm-5.24.27l-.08-.01-.05-.36c.02.02.05.03.05.06.02.18.05.29.1.32h-.03zm-.42-1.02c.02.02.06.04.06.07.02.16.05.26.09.29-.05 0-.08-.01-.12-.01l-.04-.34zm-3.67.91c0-.01 0-.02-.01-.03l.1.07c.13-.14.2-.21.33-.36.3.35.45.53.74.89.02.03.06.05.07.07.07.13-.11.29-.43.28-.55-.67-.82-.97-.81-.91zm-2.8.96c-.06-.3-.08-.45-.14-.74.29.11.47.29.52.56.03.18-.08.24-.28.23l-.1-.03zm1.59-.14l-.21-.03.09-.51.5.22c-.13.02-.19.07-.18.15.01.05.19.21.23.25-.13-.03-.3-.06-.44-.07zm-.27-.61h-.01zm-8.18-20.63c.01 0 .02-.01.04-.02.02.01.04.02.05.02.07 0 .27-.18.44-.32-.08.18-.04.57.02.8l-.61-.13c-.22-.26-.47-.55-.62-.71.23.15.61.39.66.38zm3.52 4.77c.03.14.07.23.15.26H87l-.07-.35c.135.01.23.04.24.09zm1.14 13.23c.03.15.07.24.1.28-.21-.08-.59-.23-.6-.31-.01-.07.11-.08.36-.06.08.02.13.05.14.1zM81.89 198c.22 0 .366 0 .59.01-.06 0-.082.03-.07.095.03.15.176.343.43.58-.346-.072-.54-.11-.902-.186l-.11-.5h.06zm2.08.31c.028.134.075.21.14.23h-.02l-.37-.01-.07-.327c.19.01.3.044.314.105zm1.716 4.144c.09.01.17.02.25.04l.06.3-.64-.33c.14 0 .22 0 .34-.01zm-.13-1.22l.08-.72c-.18-.1-.3-.18-.39-.24.54.32.87.52 1.46.88.02.09-.29.12-.91.1l-.24-.01zm-.39 2.63h.09l.08.01c.09.01.14.04.15.09.02.14.09.25.1.28-.18-.06-.63-.22-.64-.31-.01-.03.06-.05.2-.05zm3.53 1.33c-.03.01-.05.01-.07 0h-.03c-.03-.03-.2-.13-.51-.28-.23-.1-.36-.32-.42-.64-.02-.09-.01-.21.02-.38.04-.16.04-.29 0-.38l.51.03c.24.478.4.977.49 1.48l-.01.02c.07.07.12.116.12.13.003.02-.03.03-.08.05h-.03zm-.99-7.66l.12-.02c-.01.05-.03.09-.05.11-.04-.03-.08-.07-.07-.08zm1.15 5.17c.02.04-.04.25-.1.29-.01.01-.04 0-.06.01-.178-.03-.39-.12-.43-.18-.05-.07.1-.19.38-.19.1.02.19.04.21.08zm-1.56-6.58c-.1.1-.15.49-.12.52.03.04.24.11.26.21l.03.16c.18.08.262.11.442.19-.02.1-.04.17-.057.24-.08-.02-.19-.05-.33-.06-.2-.02-.33-.02-.43-.02-.11-.005-.21-.005-.25.005-.15.01-.22.01-.37.02-.05.21-.07.31-.12.52-.26.06-.47.09-.61.1-.32-.01-.5-.07-.52-.19-.02-.07.02-.1.11-.1l-.03-.18c.05 0 .1.01.14 0 .25 0 .49-.14.48-.16 0 0-.21-.04-.43-.11s-.38-.1-.49-.1h-.02s-.04-.01-.05-.01c-.23 0-.44.14-.62.44s-.4.44-.65.44h-.01c.04-.36-.12-.54-.47-.54h-.32c-.15.25-.41.37-.77.36-.09-.01-.14-.02-.24-.03-.21-.2-.32-.3-.54-.5.83.05 1.52.01 2.05-.14l.12-.02c.06 0 .12.01.19.01h.05c.05 0 .09.01.13.01.45.02.96.02.97-.01 0 0-.39-.47-.39-.49l.02-.02c.07.01.18.04.38.09.25.07.45.11.6.11l.06-.01h.03c.17 0 .34-.03.35-.05.02-.1-.33-.63-.38-.85-.06-.28.58-.44.72-.47.37.03 1.94.18 1.96.24 0 0-.71.29-.79.37zm-1.1-3.35l-.19-.01-.3-.34c.32.04.6.13.67.25.02.04-.054.09-.184.1zm-2.93-1.25c.032.13.09.2.113.23-.2-.04-.65-.15-.67-.22-.02-.06.11-.1.38-.11.1 0 .16.03.17.1zm2.5 3.9c0 .01-.02.01-.03.02-.024 0-.053-.01-.09-.01h-.16l-.446-.31c.47.12.75.268.73.317zm-1.57 4.72h-.03c-.21-.01-.49.02-.823.1-.395.09-.66.16-.79.17-.06-.27-.087-.41-.144-.68.35-.04.6-.14.74-.26.1-.08.24-.27.39-.57.68.02 1.04.02 1.69.04.05.136.1.266.16.39.05.12.22.18.49.19h.09c.08.007.21-.01.37-.013h.14l.14.01s-.52.06-.93.15c-.41.08-.73.13-.96.14l.14.7c-.07.03-.13.03-.18.04-.25-.02-.41-.14-.46-.39h-.03l-.02.01zm1.79 3.43c.086.01.14.03.148.06l.03.17-.18-.23zm.59-1.38c.154.05.45.14.62.19.36.12.56.19.574.27 0 .02-.11.06-.12.1-.027.048-.05.166-.16.19l-.06-.02.02.025h-.02c-.05-.02-.07-.02-.117-.04.08.1.11.11.11.11s-.29.32-.44.39c-.1-.17-.402-1.09-.42-1.21zm1.45 7.46c-.053-.17.02-.47.175-.81l.08-.02c.1.03.16.08.18.17.03.15.01.33-.04.528-.04.187-.13.26-.25.26-.06-.022-.12-.06-.13-.11zm.12-13.87c-.01-.02-.01-.04-.02-.07.07.01.116.03.117.04l-.095.038zm-.43-6.72c.03.05-.053.11-.195.13l-.09-.01-.31-.323c.3.04.55.11.61.21zm3.21-.79l-.02.01-.21-.212c.13.05.21.12.23.2zm-.78-1.03l.1.37-.47.02c-.22-.22-.49-.38-.82-.488-.03-.05-.04-.08-.07-.13-.06-.22-.105-.374-.13-.474.507.25.84.417 1.4.7zm1.39 1.77c-.05-.02-.17-.01-.3.01-.08-.014-.223.006-.36.03 0-.085.31-.41.56-.543.09.11.196.4.28.61-.09-.06-.16-.1-.17-.1zm4.25 2.59c.01-.418.02-.725.03-.925l1.003-.03c.03.15.04.22.07.37l-.28.01-.03.01-.35.01.1.54-.55.02zm-1.42-4.646c.44.09.79.21.8.2 0 0-.193.04-.545.16l-.25-.357zm.3.986c.04.047-.08.125-.3.175-.026-.11-.04-.19-.07-.3.18.02.33.06.374.12zm.34 1.09c.02.066-.07.1-.24.113-.47.01-.73-.02-.74-.1-.02-.09.15-.14.51-.155l-.26-.254c.48.228.73.36.74.4zm-1.26.43l-.04.11c-.06-.044-.103-.08-.14-.113.07 0 .135 0 .185.01zm.05-.08c-.01-.05.05-.08.15-.1.186.023.323.08.36.16.023.05-.01.186-.05.28-.206-.11-.45-.304-.455-.34zm1.67 2.234c0-.04 0-.07.003-.11.09.04.18.07.26.11h-.26zm.38 20.38v.02h-.035l.03-.02zm-3.95-3.215c-.005-.04-.08-.07-.223-.08.05-.23.08-.337.13-.56-.27-.11-.4-.16-.68-.27-.02.01-.02.02-.04.03-.04-.02-.07-.03-.12-.05-.09.048-.134.09-.13.127.01.04.075.12.2.24l.23.22s-.367-.04-.405.07c-.055.16-.13.27-.13.27s.47.115 1.06.315l-.008-.04.18.06-.056-.34z"/><path d="M102.722 199.303c-.085 0-.125.02-.12.058.006.08.116.21.326.39h.064c.127 0 .186-.03.178-.11-.022-.21-.172-.32-.448-.32zm6.52-1.463c-.05-.035-.07-.052-.12-.086.013.035.02.05.03.086 0 .002 0 .004.002.007.006 0 .014-.007.02-.007h.07zm1.023.512c-.04.005-.077.048-.062.087.014.03.094.06.16.08.022-.03.048-.05.048-.07 0-.06-.09-.11-.14-.11zm1.365 5.008c-.027-.01-.04-.016-.068-.025h-.022v.02c.037.002.055.004.09.004zm-.334-6.754c-.014 0-.032-.017-.047-.02.01.025.02.033.02.02h.02zm-1.173 5.954l.09.024c-.017-.044-.205-.07-.205-.07s.083.015.115.046zm3.117-6.7c-.02-.352-.017-.807.013-1.387.032-.617.036-1.064.015-1.345-.017-.21-.104-.966-.298-1.106-.16-.117-1.37-.085-2.644-.19-1.115-.095-2.01-.122-2.666-.102-.03 0-.05.003-.08.004-.044 0-.097 0-.14.002-.49.016-.784.07-.88.17l-.018.044c-.018.01-.025.01-.042.018-.064.11-.186.19-.364.236l.01.075c.015 0 .032.01.05.02-.022.01-.03.04-.04.06-.004-.03-.008-.06-.01-.09-.01 0-.02-.02-.026-.02-.076 0-.158.06-.168.12 0 .01-.005.03-.017.06l.006.06.24.01v-.02l.19.01v-.05c.11.15.23.39.38.73h-.43c.51 1.55.83 2.77.99 3.59l.19.02.13-.01h.08c.14-.01.2-.02.34-.03 0-.05.05-.08.13-.09.06.01.11.01.17.02.06.01.16.05.3.1l.04.38.05.02h.11l.11-.01h.13c.1 0 .29-.01.52-.05.06-.01.17-.02.32-.02l-.08-.15c-.07.01-.15.02-.23.02l-.01-.03c-.07.01-.15.02-.23.02-.09-.01-.17-.02-.19-.04-.03-.05.81-.48.82-.54 0 0-.32-.31-.34-.46-.01-.13.09-.19.25-.22.23.04.47.19.72.44l.15.15c.1.13.18.19.25.21v-.01c-.14-.26-.22-.41-.22-.45l.1.08.15.15c.1.13.17.19.24.22-.14-.25-.21-.4-.22-.44 0 0 .01 0 .01-.01h.26c.13.01.5-.01 1.13-.09l-.46-.03-.05.02h-.07l.01-.02-.12-.01.14-.06-.03.06.12.01c.29-.1.51-.18.63-.21.12.01.23.04.33.07v-.07c.12.01.22.04.32.07zm-1.613-1.174c-.006-.094.063-.155.2-.188.223.016.407.117.446.26.018.066-.028.238-.08.33-.248-.11-.56-.333-.566-.402zm-.385 1.26c-.014.01-.01.02-.02.027l-.068-.007c.023-.006.036-.02.066-.02h.022l.002-.002c.107-.065.25-.118.407-.168l-.08.2-.32-.03zm-2.522 6.738c.015.058.02.09.032.144.062-.017.078-.078-.03-.144zm11.948-11.487c-.008-.01-.014-.024-.022-.032-.086-.08-1.39.248-2.65.684l.025.4c-.04.02-.1.02-.15.03l-.11-.01c-.09-.03-.18-.02-.25.01v.02l-.15-.02c-.09-.03-.17-.02-.25 0l-.18.39c-.16.09-.29.15-.37.18-.6.19-.94.29-.96.3-.32.18-.68.66-1.05 1.28-.13.21-.39.7-.75 1.47h-.33c-.05-.03-.11-.06-.18-.08v.08h-.14c.14.07.26.16.38.27.28.3.44.65.46 1.06.03.4-.12.71-.43.92.03.01.04.02.07.04.13.07.19.15.2.24.01.14-.06.24-.2.28l-.06.02c-.1.03-.15.09-.14.2 0 .04.1.15.29.33l.13.13c.05.06.09.1.1.12l.06.08s.05.06.06.06c.16.04.37.05.62.04 1.38.1 4.59-.95 4.62-1.06l-.47-.43c-.2-.18-.39-.27-.56-.27-.06 0-.16.02-.27.03-.04-.01-.09-.04-.14-.04-.05 0-.15.02-.24.03-.08-.01-.14-.03-.16-.05-.12-.16.12-.6.5-.7.34.07.65.29.93.65.3.38.62.58.94.58.06 0 .18-.01.32-.02.05 0 .09.02.14.02.09 0 .29-.02.59-.05.26-.03.57 0 .59-.02.29-.28.27-6.81-.24-7.29-.03-.03-.21-.01-.47.04zm-4.824 7.256c-.015-.256-.02-.384-.035-.637.16.034.25.217.25.217s-.01.02-.02.108v.07c0 .02.14.1.43.25-.2.01-.38.01-.64.01zm.49-2.334c.035-.01.103-.02.186-.02.086.01.16.01.2.01.03 0 .088-.01.154-.02.047.04.076.25.08.32l.003.04.16.08.224.39c.02.1-.02.16-.08.21-.21-.1-.47-.31-.77-.65-.05-.06-.47-.32-.68-.45.22.03.44.05.53.05zm2.33-2.91c0 .05-.016.08-.04.11-.03-.01-.055-.02-.092-.03l-.294-.48c.266.11.417.24.425.39zm-10.726 8.92c.008-.06-.03-.17-.072-.29l-.134.22c-.01-.06-.03-.14-.062-.23l-.13.22.203.07c.002-.02-.007-.05-.01-.07.082.02.122.03.205.06zm-.094-.36l.022.06.184-.3c-.145-.11-.238-.29-.25-.29l-.05.19c-.085-.09-.14-.19-.147-.19l-.05.19s.014.09.094.33c.008.02.014.04.02.06l.127-.21c.016.04.025.08.05.15z"/><path d="M114.198 211.125c.173.013.33-.174.39-.5.073-.4.133-.843.086-.938-.042-.087-.232-.27-.243-.48 0-.036.02-.105.02-.198 0-.09 0-.22-.01-.22-.03-.03-.17-.02-.31.02v-.04c-.05-.05-.44.04-.53.11-.07-.12-.12-.24-.13-.34 0-.09.07-.25.14-.29.02-.01.11 0 .18-.02.01 0 .02 0 .03-.01.13.02.28.06.3.04.01 0 .01-.02.02-.02.13.02.28.06.3.04.18-.14.35-3.45 0-3.95-.21-.3-3.19-.63-3.23-.75 0 0 .35-.34.36-.38 0 .04.01.06.01.11l-.01-.21c.12-.01.24-.05.38-.11l-.24-.66.22-.06c.08.01.17.03.31.04.06 0 .12 0 .17-.01.04.01.08.01.12.02.08 0 .16-.01.23-.02.1.11.26.43.31.51.12.17.23.31.35.4 0 .02.01.02.01.04h.24c-.01.02 0 .1.06.12 0-.05.01-.07.02-.12l-.02-.01h.02v.01c.24 0 .65 0 .69-.06.09-.12-.08-1.02-.13-1.51-.06-.61-.24-1.1-.46-1.42-.1-.15-.25-.29-.46-.4-.21-.11-.42-.21-.6-.3-.5-.25-.78-.59-.82-.97h-.43l-.06-.28c-.02-.25.19-.74.14-.85-.01-.04-.24-.1-.4-.13l.01.08c-.08-.03-.19-.06-.28-.08.04.49.06.74.09 1.22-.21-.03-.42-.07-.58-.12h-.01l-.01.02c-.01.01-.03.01-.05.02-.06-.02-.13-.03-.18-.05 0 .01-.01.02-.01.02-.08.07-.31.11-.65.13l-.29-.82c-.06 0-.12.04-.19.11l-.04-.12c-.06.01-.12.05-.2.13l-.08.09h-.03l.01.02-.02.02.03.01.05.14.09-.09c.17.07.27.13.27.16s-.08.07-.24.12c-.07.02-.12.04-.17.05-.22-.07-.83-.27-1.01-.22-.11-.02-.2-.02-.24.01-.09.07-.09 1.01-.08 1.11.01.18.08.42.21.71.17.37.27.65.3.67.04.05.28.11.44.23.15.12.3.2.37.19.01-.01.04-.03.05-.05.07.03.13.05.16.04.03-.01.05-.03.08-.05l.14-.15c.12-.12.23-.18.35-.21.15.03.27.11.32.25.07.19.11.33.12.43.01 0 .02.01.02.01.03 0 .07-.01.12-.02.05-.02.08-.02.09-.03.01.01.01.03.01.04h.02c.03 0 .07 0 .13-.02.05-.01.09-.02.1-.02h.02c.04.01.07.01.11.03.1.25.16.38.26.63.26 0 .56.11.61.23.03.09-.23.41-.68.77-.38.31-.65.48-.82.51l-.05-.01c-.02-.26-.02-.4-.04-.66h-.23c-.31-.01-.5-.01-.75-.02l-.01-.07v-.01c-.01 0-.01.01-.02.01-.05 0-.11-.02-.17-.03.03-.03.04-.07-.05-.13l.03.12c-.2-.04-.4-.1-.56-.11v.03c-.07-.02-.15-.04-.2-.04l.05.66c.18.11.32.19.41.25.78.51 1.25.8 1.37.83l-.01-.11c.11.06.2.1.24.12l-.03-.43h.09c.1.01.18.03.22.03.05 0 .1 0 .15-.01.04 0 .07.01.1.01.08 0 .17-.01.26-.01.06.05.1.44.11.65.01.28.02.42.02.7l.26.01.38.01c0 .48.14.78.4.9.48.21.82.4.92.56.16.24.24.49.28.63.07.25.34.67.32.71-.01.02-.57.09-.82.08l-.13-.01c.07.14.11.21.17.35.05.1.12.23.22.4.09.15.15.27.18.36H113c-.04-.01-.07-.02-.12-.02-.1-.01-.17 0-.24.01.08.01.18.01.28.02h.17c.18.06.275.19.285.38.01.13-.07.38-.142.52-.23-.2-.55-.57-.556-.69 0-.13.08-.2.25-.23l-.28-.02h-.02c-.186-.39-.28-.59-.466-.97l-.15-.03h-.21l-.06-.02h-.22c-.19-.29-.31-.67-.37-1.13-.05-.47-.12-.82-.21-1.01-.07-.14-.23-.28-.4-.43-.28-.24-.44-.42-.47-.43-.1-.05-.26-.06-.45-.06-.27-.03-.66 0-1.01-.01-.01-.09-.02-.13-.03-.22.01 0 .06-.01.13-.02v-.05c.04-.08.15-.11.29-.13.08.02.16.04.25.09l.1.06c0-.03-.01-.06-.01-.09.04.02.08.01.13.04s.07.04.11.06l-.03-.39c-.44-.16-.91-.43-.96-.42 0 .01-.03.02-.05.05-.07-.03-.13-.05-.15-.05-.02.01-.3.27-.36.35-.16.21-.1 1.34-.02 2.51.05.73.17 1.83.34 3.33.18 1.51.29 2.67.35 3.44l.19.02c.34.04.58.06.84.09.09.01.18.02.29.03.33.03.65.06.98.1 1.81.18 3.57.34 3.83.11.03-.02.11-.27.24-.36.02-.02.06-.05.1-.11.03-.06.05-.11.05-.14-.01-.21-1.16-2.4-1.08-2.5 0 0 .14.04.2.04zm-2.812-8.766c.07-.03.144-.05.207-.06.004 0 .014.01.016.02.01.04-.05.13-.15.25l-.08-.22zm.037-1.14c-.24-.33-.385-.53-.594-.81.15.08.27.15.32.18.03.01.1.06.16.11.11.08.35.19.34.2 0 0-.13.08-.13.11s.21.16.59.38l-.72-.19zm-.726-1.48c.163.03.25.1.26.22.002.04-.003.08-.015.11l.003.04c.154.09.3.18.44.26-.153 0-.273-.01-.39-.01-.093-.05-.177-.09-.295-.13l.097.13h-.06.003-.076.073c-.023-.01-.05-.02-.075-.04l-.045-.61c.028 0 .06 0 .08.01zm.412-1.35c-.01-.11.02-.26.06-.4l.05.68c-.02 0-.03-.01-.05-.01l-.07-.28zm-2.08-.23c.15.06.24.11.24.14 0 .02-.07.05-.17.09l-.08-.24zm4.43 10.06c.06-.01.11-.02.14-.02 0 0 .01.02 0 .02-.01.01-.17.03-.36.05.01-.02.02-.04.03-.05.02-.01.1-.01.17-.02zm-3.86-3.11c-.03-.01-.09-.05-.14-.08l.01.18.12-.11zm15.32.45c-.03-.01-.09-.05-.14-.08v.2l.13-.12zm-.77-2.61l.02.15c.06-.02.08-.09-.03-.16zm2.9-6.54c-.02 0-.03-.02-.05-.02.01.02.02.03.02.02h.02zm-3.66 5.96c.01-.07-.03-.18-.06-.31l-.15.23c.08.03.12.04.2.07zm5.81-6.69c-.06-.03-.12-.06-.18-.08l-.01.08c.06 0 .12-.01.17-.01zm.08 16.24c.17 0 .33-.2.41-.55.08-.43.17-.91.12-1.01-.04-.09-.22-.28-.23-.51 0-.04.01-.12.02-.21 0-.1.01-.23-.01-.24-.03-.02-.2.01-.35.05 0-.02-.01-.05-.01-.06-.05-.04-.38.05-.51.12-.07-.12-.1-.23-.1-.34 0-.08.07-.27.15-.31.02-.01.1 0 .17-.02.12.03.25.05.27.03 0 0 .01-.02.02-.03.14.03.31.07.34.04.21-.16.5-3.7.16-4.23-.19-.28-3.15-.62-3.2-.75 0 0 .35-.36.37-.41 0-.03 0-.05-.01-.09.11-.01.24-.05.37-.12l-.21-.69.19-.06c.07.01.16.03.28.04.06.01.13 0 .19-.01.04.01.08.02.14.02.06.01.12 0 .18-.01.09.13.23.45.28.53.11.18.21.33.33.43v.05h.29c-.01.03-.01.12.04.13.01-.05.01-.07.02-.12-.01 0-.02-.01-.03-.01h.03v.02c.24 0 .64 0 .69-.07.1-.13-.03-1.08-.06-1.6-.04-.64-.19-1.16-.39-1.51-.09-.15-.24-.29-.44-.41-.21-.12-.41-.22-.58-.32-.48-.26-.74-.62-.76-1.03h-.43l-.05-.3c0-.27.23-.79.19-.91-.01-.04-.24-.11-.39-.14v.1c-.08-.03-.21-.07-.31-.09l.02 1.3c-.2-.03-.38-.07-.53-.12-.01.01-.01.02-.02.02-.02.01-.05.02-.07.03l-.21-.06h-.01l-.01.02c-.08.07-.29.12-.61.14l-.24-.89c-.06.01-.13.05-.21.13-.01.01-.01.02-.02.03l-.04-.16c-.05.01-.12.05-.2.13l-.13.14.08.03c.01.04.02.08.03.13l.09-.09c.15.06.23.12.23.15s-.08.07-.24.13l-.15.05c-.25-.09-.86-.3-1.01-.22-.11-.02-.21-.02-.25 0-.11.07-.15 1.08-.14 1.19 0 .2.06.46.17.76.15.4.23.69.26.72.04.04.27.12.42.25.15.13.29.22.36.2.02-.01.05-.04.07-.06v-.01c.07.05.14.08.18.07.02-.01.05-.03.08-.06l.14-.15c.12-.12.23-.19.34-.22.13.04.23.11.28.26.06.2.09.35.09.46h.02c.03 0 .07 0 .12-.02.05-.01.08-.02.1-.02h.03v.05h.02c.03 0 .07-.01.13-.03l.09-.02c.03.01.06 0 .1.02l.23.67c.26 0 .56.12.6.24.03.09-.25.44-.71.83-.37.32-.64.5-.82.55l-.03-.01-.01-.69-.98-.02c0-.03 0-.04-.01-.07 0 0 0-.01-.01-.01s-.01.01-.02.01c-.06 0-.14-.02-.21-.04.02-.03.02-.07-.05-.13l.02.13c-.18-.04-.36-.1-.51-.11v.05c-.09-.02-.17-.05-.24-.06.01.28.01.42.02.71l.4.27c.75.54 1.21.83 1.32.87v-.15c.13.08.23.14.27.15l-.01-.46h.06c.1.01.18.02.22.03.05 0 .1-.01.16-.01.05.01.1.01.12.01.07 0 .15 0 .22-.01.06.07.07.48.08.7l-.01.75.53.01h.1c-.02.52.1.85.36.97.47.21.8.41.9.58.15.25.22.52.25.67.06.27.31.71.29.75-.01.03-.57.11-.82.11h-.13c.06.14.1.22.16.37.04.1.11.24.2.42.08.17.14.3.17.39-.04-.01-.08-.02-.13-.02-.09 0-.16 0-.23.01-.17-.41-.26-.61-.43-1.02l-.16-.03h-.24l-.07-.02-.18.01c-.17-.32-.28-.72-.32-1.22-.03-.51-.08-.89-.17-1.09-.06-.14-.22-.3-.38-.46-.26-.25-.42-.45-.45-.46-.1-.05-.28-.05-.49-.05-.26-.02-.63.01-.96.01l-.03-.24c.02 0 .06-.01.14-.02v-.05c.05-.09.16-.13.31-.15.07.02.13.04.2.09l.1.06v-.14c.06.02.11.04.17.08.05.03.07.03.1.06V205c-.44-.17-.89-.45-.94-.43-.01 0-.04.02-.08.06-.08-.04-.15-.07-.17-.07-.03.01-.31.29-.38.38-.19.248-.16 1.458-.13 2.73.02.79.09 1.98.2 3.618.11 1.64.17 2.91.19 3.747l1.32.08c.51.03 1.04.067 1.54.09 1.61.09 3.07.14 3.32-.09.04-.03.11-.29.25-.403.03-.02.06-.06.1-.12.04-.06.06-.11.05-.15 0-.22-1.09-2.5-.98-2.62 0 0 .14.03.2.03zm-2.41-9.07l-.08-.27c.08-.04.18-.06.24-.08 0 .01.02.02.02.03.02.05-.05.17-.18.32zm.06-1.49l-.53-.82c.11.07.2.13.25.16.03.02.09.07.15.11.1.08.33.19.33.21 0 0-.13.08-.13.11 0 .04.18.17.53.38l-.62-.17zm-.69-1.58c.16.03.24.11.24.23 0 .04-.01.08-.02.11v.04c.15.09.29.19.42.28h-.34c-.09-.05-.18-.1-.29-.14.03.05.06.09.09.14h-.14.02l-.03-.02-.01-.67h.03zm.48-1.45c-.01-.15.07-.38.12-.58l.01.87h-.01c-.03 0-.06-.01-.09-.01l-.05-.29zm-2.06-.26c.18.07.28.13.28.17 0 .03-.08.06-.21.11l-.08-.29zm3.94 10.75c.07-.02.12-.03.15-.03h.03v.02c-.01.02-.2.06-.41.08.01-.02.02-.05.04-.06.02 0 .1 0 .17-.02zm-.63 1.28h-.01.12c.18.05.27.19.27.4 0 .13-.08.37-.15.53-.22-.21-.5-.57-.51-.69 0-.14.09-.22.26-.26l-.27-.01.28.01z"/><path d="M125.705 202.983c.024.08.113.168.16.218l.106-.21c-.03 0-.31-.15-.31-.14 0 0 .03.04.04.07.01.04.01.06.02.08zm1.327.665l-.066-.025h-.023v.024h.09zm-.092-.145c.002.048.002.073.002.12v-.12zm-1.486-.737s.082.017.11.046c.04.012.056.017.092.026-.015-.048-.202-.072-.202-.072zm-2.12-.756l.02.066c.06-.1.12-.195.197-.325-.13-.11-.22-.3-.23-.3l-.06.21.01.05c-.1-.11-.17-.25-.18-.26l-.06.22s.01.1.08.36c.01.03.01.05.02.07l.17-.28c.01.06.03.12.05.22zm13.406-11.346c-.01-.013-.018-.036-.028-.047-.07-.072-1.403.262-2.687.728l-.01.433c-.042.022-.092.022-.137.035l-.08-.008c-.09-.027-.178-.023-.257.01l-.01.024c0-.01-.01 0-.01-.01-.07-.01-.1-.01-.18-.02-.09-.03-.17-.03-.25.01-.08.16-.13.25-.21.41-.17.09-.3.16-.39.19-.61.2-.95.3-.97.32-.34.2-.72.7-1.13 1.36-.14.23-.44.75-.85 1.57h-.29l-.36.01c.13.07.25.16.36.29.26.31.4.69.4 1.13 0 .43-.16.76-.48.98.02.01.04.02.06.04.12.07.18.16.18.25 0 .15-.07.26-.22.31l-.06.02c-.1.03-.15.1-.15.21 0 .05.09.16.27.35.03.03.07.08.13.14.05.06.09.11.1.13l.06.08c.02.03.05.07.06.07.15.04.36.05.61.04 1.31.12 4.69-1.04 4.73-1.17 0 0-.3-.31-.45-.45-.19-.19-.37-.28-.54-.28-.07 0-.18.03-.31.04-.05-.02-.1-.04-.15-.04-.05 0-.12.01-.21.03-.07-.02-.13-.03-.14-.05-.11-.17.14-.63.52-.74.32.08.61.31.86.68.28.4.57.6.9.6.06 0 .19-.01.35-.03.05.01.1.02.15.02.09-.01.29-.02.59-.06.26-.04.57-.01.59-.03.35-.33.7-7.24.22-7.72-.02-.03-.22 0-.51.06zm-2.244 2.218l-.243-.48c.216.112.337.24.333.385 0 .047-.02.078-.042.107l-.048-.012zm-1.994 2.996c.025 0 .064-.006.113-.012.04.053.058.26.057.334v.05c.06.03.11.06.155.09.078.166.12.248.198.417.008.097-.017.167-.065.214-.208-.1-.443-.32-.713-.66-.043-.06-.438-.32-.637-.46.192.03.383.05.46.05.038 0 .115-.01.207-.02.098.01.18.02.225.02zm-1.01 1.84c.124.058.19.206.19.206s-.01.02-.023.116v.073c0 .015.14.097.42.253l-.59.006v-.654zm-4.552 5.784l2.112-7.882c.003-.375.036-.863.106-1.48.075-.658.113-1.135.11-1.434 0-.226-.03-1.034-.21-1.178-.138-.11-1.355-.09-2.613-.205-1.1-.103-1.987-.133-2.64-.11-.024 0-.04.003-.063.004-.065 0-.14 0-.2.002-.488.01-.785.07-.888.18l-.02.04-.045.02c-.08.12-.2.2-.39.25v.08c.02 0 .05.01.08.04-.02.02-.05.04-.05.07-.01.01-.01.04-.03.06l-.01-.18-.02-.02c-.08 0-.17.06-.18.13 0 .01-.01.04-.02.07v.06l.23.01v-.02l.21.01c.08.17.18.41.28.73l-.2.01c-.07.01-.14.01-.24.01.39 1.67.63 2.96.73 3.85.07.01.11.01.18.02l.16-.01.08.01c.13-.01.2-.02.34-.03 0-.05.04-.07.11-.09.05 0 .09.01.15.02s.16.05.29.11c0 .16 0 .25.01.41.01.01.02.01.04.02h.11c.04 0 .09 0 .15-.01h.12c.1-.01.3-.01.52-.06.06-.01.16-.03.32-.03l-.07-.16-.28.03-.01-.03c-.06.01-.12.02-.19.03-.1-.01-.18-.02-.19-.05-.03-.05.84-.5.85-.58 0 0-.3-.33-.31-.5 0-.13.09-.19.24-.22.22.05.44.2.66.46l.13.16c.09.13.16.2.23.22-.12-.27-.19-.43-.19-.47 0-.02.01-.02.01-.03.04.04.09.07.13.12l.14.15c.09.14.17.2.23.23-.13-.27-.19-.43-.19-.48.06 0 .15 0 .27-.01.12.01.49-.01 1.13-.1l-.47-.03c-.02.01-.04.02-.07.02-.02 0-.04-.01-.06-.01l.02-.03-.16-.02.2-.08-.04.09.11.01c.28-.11.5-.19.63-.23.1.01.2.03.29.07v-.09c.12.01.24.04.36.08zm-1.527-1.253c0-.1.07-.16.195-.2.207.02.37.13.396.27.014.06-.033.22-.085.32-.23-.12-.51-.33-.51-.4zm-2.915 2.5h-.002l.002-.01zm2.447-1.15c-.02.01-.017.02-.028.03l-.08-.01c.028-.01.048-.03.086-.03h.02c.002 0 0-.01.003-.01.1-.06.225-.12.363-.17l-.09.19-.28-.03zm.003-5.85l-.116-.09.025.09h.002s.01-.01.02-.01h.06zm.986.54c-.038 0-.078.05-.065.09.01.03.09.07.15.09.02-.03.05-.06.05-.07 0-.07-.09-.13-.14-.12zm16.85-2.14h.02c-.012 0-.03-.02-.044-.03.016.03.024.04.025.02zm-1.656 6.88c.02.08.11.17.152.22l.118-.23c-.03 0-.308-.16-.313-.15 0 0 .028.04.036.07.01.03.01.06.01.07zm-2.272-.59c.014-.08-.014-.19-.043-.33l-.157.25.2.07zm2.034.36s.08.02.108.05l.088.02c-.012-.05-.197-.08-.197-.08zm-2.08-1.36l-.072.22s0 .1.06.37c.007.02.01.04.017.07.064-.11.13-.21.215-.35-.135-.12-.215-.32-.22-.32z"/><path d="M144.004 209.065c.02-.01.09-.012.158-.023.116.022.232.043.26.023.008-.007.017-.026.025-.042.145.024.343.07.377.044.244-.183.643-3.803.308-4.337-.175-.28-3.13-.604-3.176-.732 0 0 .374-.38.39-.43 0 .05 0 .075-.002.126l.007-.23c.12-.017.25-.06.39-.127l-.18-.73c.06-.023.13-.04.18-.057.07.012.15.024.26.032.07.005.15-.006.22-.02.05.006.11.013.17.018.05.003.1 0 .15-.007.09.14.22.46.26.543.1.184.2.336.31.44v.054c.1 0 .22-.004.33-.01-.01.028-.01.12.05.136l.03-.127s-.02-.01-.03-.02h.03v.01c.24 0 .64-.02.7-.08.12-.15.02-1.13.01-1.67-.01-.67-.14-1.21-.33-1.57-.08-.16-.22-.31-.42-.43-.2-.12-.39-.23-.56-.33-.46-.27-.7-.65-.7-1.07h-.43c-.01-.13-.02-.19-.03-.32.01-.28.28-.82.24-.95-.01-.04-.23-.11-.38-.14v.13c-.04-.04-.22-.1-.35-.13l-.04 1.36c-.17-.04-.34-.08-.47-.12l-.02.02c-.02.02-.05.03-.09.05l-.23-.07c-.01 0-.01.01-.02.02-.08.07-.27.12-.57.14l-.19-.93c-.05.01-.12.05-.21.14l-.06.07-.04-.21c-.06.01-.12.05-.2.14l-.14.14.13.05.02.12.07-.08c.12.06.19.12.19.15s-.09.08-.25.14c-.05.02-.09.03-.13.04-.26-.09-.85-.3-.98-.21 0 0 0 .01-.01.01-.12-.03-.23-.03-.28-.01-.13.08-.2 1.14-.2 1.26 0 .21.04.48.14.8.13.42.2.73.23.76.04.04.27.12.41.25.14.14.28.23.35.21.03 0 .06-.04.08-.06l.02-.02c.09.06.16.1.2.09.02-.01.06-.04.08-.06.02-.03.07-.08.15-.16.12-.12.22-.19.33-.23.12.04.21.12.25.26.06.21.08.37.08.48h.02c.03 0 .07-.01.12-.03.05-.02.08-.02.1-.02.02-.01.06-.01.08-.01 0 .02.01.04.01.06h.03c.02 0 .07-.01.12-.03.03-.01.05-.01.07-.01.02.01.05 0 .07.02l.2.7c.26 0 .55.12.59.24.03.1-.27.46-.75.88-.38.33-.65.52-.83.58h-.01l.02-.73h-.98v-.09c-.01 0-.01.02-.02.02-.07 0-.15-.02-.24-.04.02-.03.02-.08-.06-.13l.02.13c-.16-.04-.33-.08-.46-.09v.06c-.1-.03-.2-.06-.28-.07 0 .3 0 .45-.01.75.18.12.31.21.39.28.74.55 1.18.85 1.3.89v-.18c.15.1.26.16.31.18l.01-.48h.01c.1.01.18.02.22.02.05 0 .12-.01.18-.01s.12.01.15.01c.06 0 .12-.01.18-.01.05.06.05.49.05.72-.02.31-.02.46-.04.77h.63c-.04.54.07.87.33.99.47.21.79.41.88.57.14.26.2.53.22.68.05.28.29.71.27.77-.01.04-.58.13-.82.13h-.13l.15.37c.04.11.1.25.19.43.08.17.13.3.16.39h.01-.01c-.05-.01-.09-.02-.15-.02-.07 0-.13 0-.18.01l-.39-1.03-.15-.02-.26.01-.09-.02h-.13c-.16-.31-.26-.73-.28-1.24-.02-.52-.05-.9-.13-1.11-.06-.15-.21-.31-.37-.47-.26-.25-.41-.46-.43-.47-.1-.05-.31-.05-.53-.04-.25-.02-.6.01-.93.02l-.02-.25c.01 0 .06 0 .13-.02v-.05c.05-.09.16-.13.29-.16.06.02.12.05.18.09.05.04.06.04.1.06v-.15c.07.02.14.05.2.1.05.03.07.04.1.06l.01-.43c-.43-.17-.88-.45-.93-.44-.01 0-.05.03-.09.08-.1-.05-.18-.09-.19-.09-.03.01-.32.3-.39.4-.21.27-.21 1.52-.23 2.85 0 .83.02 2.06.08 3.76.06 1.7.08 3.01.08 3.88h.27c.54.01.81.01 1.35.02 2.06.03 4.28.09 4.62-.23.05-.04.13-.3.28-.42.03-.02.06-.06.1-.13.03-.07.05-.12.05-.16.01-.23-1.03-2.51-.91-2.64 0 0 .14.03.2.03.18 0 .34-.2.43-.57.1-.44.2-.93.15-1.03-.03-.08-.21-.28-.2-.51 0-.03.01-.11.02-.21.01-.1.02-.23 0-.24-.03-.03-.23.02-.39.08 0-.04 0-.08-.01-.08-.03-.03-.32.04-.48.11-.05-.12-.08-.23-.08-.33s.08-.29.16-.33zm-1.733-6.13c-.02-.1-.04-.196-.08-.326.11-.05.22-.08.29-.09.01.01.03.02.03.04.02.05-.07.19-.23.37zm.16-1.596c-.19-.34-.31-.54-.46-.81l.17.11c.03.02.1.07.15.12.1.08.33.2.33.22 0 0-.13.09-.13.12 0 .04.17.16.5.37-.16-.05-.32-.09-.54-.15zm-.42-1.41c0 .05-.01.09-.02.12v.05c.15.09.28.19.41.29h-.29c-.09-.05-.17-.1-.28-.15.03.05.06.1.09.14h-.13c.01-.28.01-.44.02-.71.15.03.23.11.23.24zm.32-1.76c.01-.2.15-.54.21-.76-.01.36-.02.63-.04 1.07-.05 0-.09-.02-.14-.02l-.03-.3zm-2.04-.28c.21.07.33.15.33.2 0 .03-.08.07-.25.13l-.07-.34zm3.52 11.13c.08-.02.12-.03.15-.03.02 0 .05 0 .08.01 0 0 .01.01.01.02-.01.02-.23.06-.47.09.02-.03.04-.07.06-.08.03-.01.1-.01.18-.03zm-.63 1.34h.1c.17.05.26.19.25.4 0 .12-.07.35-.15.51-.21-.21-.46-.54-.45-.65.01-.14.1-.23.27-.27h-.3.31zm-1.58-12.24c-.04 0-.08.05-.07.1.01.03.09.07.15.09.03-.03.06-.06.06-.07.01-.07-.07-.13-.13-.12zm-.95-.57l-.11-.1c.01.04.02.06.02.1l.01.01c.01 0 .02-.01.02-.01h.07zm4.22-2.26c.02-.4.08-.91.19-1.56.12-.7.19-1.2.21-1.52.02-.24.04-1.1-.13-1.25-.12-.11-1.34-.1-2.58-.22-1.08-.11-1.97-.15-2.62-.12-.05 0-.09 0-.14.01h-.16c-.49.01-.78.08-.89.19-.01.02-.02.03-.03.05-.02.01-.02.02-.04.03-.08.12-.21.21-.4.26v.08c.03.01.07.03.1.08-.01.02-.03.03-.03.04 0 .01-.01.04-.03.07v.07l.17.01c.08.18.15.44.24.79h-.15l-.28.01c.27 1.76.43 3.13.48 4.07l.18.02c.08-.01.14-.01.2-.02l.1.01c.14-.01.21-.02.34-.03 0-.05.04-.08.09-.1.05 0 .08 0 .13.02.06.01.15.05.28.11l-.01.43c.02.01.03.01.05.02.04 0 .06 0 .11-.01.04 0 .11 0 .19-.01 0 0 .01 0 .01.01h.12c.11 0 .3-.01.52-.06.06-.01.17-.03.32-.03-.02-.07-.04-.1-.06-.17-.1.02-.22.03-.32.03l-.01-.03c-.05.01-.11.02-.17.02-.08 0-.15-.02-.16-.04-.03-.05.87-.52.89-.61 0-.01-.28-.34-.28-.52.01-.13.1-.19.24-.23.21.06.41.22.61.48l.13.16c.08.14.15.21.22.23-.11-.29-.17-.46-.16-.5 0-.04.01-.05.02-.08.05.05.1.1.15.17l.13.16c.08.14.15.21.22.23-.11-.28-.16-.45-.16-.5v-.01c.06 0 .13-.01.23-.01.09.02.47 0 1.16-.11l-.45-.03-.07.03-.06-.01.02-.03-.18-.02.24-.09-.05.11.11.01c.29-.11.5-.19.63-.23.09.02.18.04.26.07l.01-.1c.15.01.29.04.41.09zm-1.45-1.31c.01-.1.08-.16.2-.2.19.03.33.14.35.28.01.06-.04.21-.09.31-.21-.13-.45-.33-.45-.4zm-3.05 2.58v.07c-.02-.01-.04-.01-.04-.02s.02-.03.05-.05zm2.5-1.17c-.02.01-.02.02-.03.04-.02 0-.06-.01-.08-.01.03-.02.06-.04.1-.04h.03c.09-.06.2-.1.32-.15-.02.05-.05.11-.08.18-.07-.01-.14-.02-.23-.03z"/><path d="M140.25 205.757c-.024-.01-.084-.05-.13-.08 0 .065-.002.125-.004.21.057-.053.083-.08.135-.13zm4.752-10.355c-.054-.032-.107-.063-.166-.085-.002.025-.007.063-.008.088.065 0 .12-.002.174-.003z"/><path d="M150.5 198.415c0-.004-.29-.318-.43-.463-.19-.193-.363-.29-.528-.288-.077.002-.203.036-.343.05-.06-.02-.11-.045-.16-.044-.05 0-.12.014-.19.028-.07-.014-.12-.03-.13-.048-.11-.166.14-.627.5-.772.32.084.6.316.84.703.26.43.55.64.87.63.06 0 .2-.01.38-.03.05.01.11.03.16.03.09 0 .29-.02.59-.06.26-.03.56-.01.59-.03.42-.36 1.09-7.58.64-8.06-.02-.02-.23.01-.55.08-.02-.01-.02-.04-.04-.06-.06-.06-1.42.27-2.73.76-.02.18-.02.28-.04.46-.04.02-.09.02-.13.04h-.05c-.09-.02-.18-.02-.26.01-.01.01-.01.02-.02.03h-.06l-.18-.02c-.09-.03-.17-.02-.25.01l-.24.44c-.17.1-.31.17-.4.2-.62.22-.97.33-.99.34-.36.22-.77.75-1.22 1.44-.16.24-.48.79-.94 1.65h-.06l-.19.01-.41.01c.12.08.24.17.34.31.24.33.36.73.33 1.18-.02.45-.2.79-.54 1.03.02.01.04.02.06.04.11.08.17.17.17.27-.01.17-.09.27-.24.33-.03.01-.04.01-.07.02-.1.04-.16.11-.16.23 0 .05.08.17.25.36.03.03.07.08.12.15.05.06.08.11.09.14l.05.09c.02.03.04.07.05.07.15.05.37.05.63.03 1.27.13 4.76-1.08 4.8-1.22zm-2.232-2.833c.016 0 .044-.004.07-.007.034.058.043.27.04.346l-.004.05c.057.03.11.07.15.1l.177.44c.01.09-.02.16-.06.2-.19-.11-.41-.33-.64-.67-.04-.06-.41-.33-.6-.47.17.02.33.04.4.04.05 0 .14-.02.25-.03.11.01.19.02.24.02zm-1.137 2.605l.04-.663c.1.07.14.196.14.196s-.01.022-.03.12v.073c0 .017.14.106.41.267l-.54.007zm3.35-5.842c0 .045-.02.07-.04.1l-.01-.002-.2-.472c.18.12.27.24.26.38zm-8.04 11.375l-.06-.025h-.02v.024h.09zm-2.85-.676l.02.16c.07-.017.09-.088-.01-.16zm12.92 7.47l-.6.01c-.04.136-.08.236-.11.34-.02-.025-.04-.04-.06-.07-.12-.175-.27-.26-.45-.257-.07.002-.17.02-.27.036-.03-.01-.07-.03-.11-.028-.2.004-.48.062-.83.174-.18.06-.34.1-.47.14l.01-.3h-.15c-.07 0-.13.01-.19.01v-.02h-.15c-.35 0-.52.1-.53.3-.01.09.01.21.05.37.03.16.05.27.05.35-.02.43-.08 1-.18 1.69-.16 1.05-.27 1.68-.25 1.71.11.18.86.42 1.07.49.27.09.69.09 1.09.07.05 0 .1-.01.15-.01h.23c.59-.02 1.44-.15 2.56-.37.03-.36.04-.54.06-.9-.05-.31-.09-.51-.1-.51-.01-.01-.12.02-.2.03-.08.01-.16 0-.22 0 0-.01 0-.03-.01-.03 0-.01-.04 0-.09.01-.01 0-.04 0-.05-.01.01-.14.02-.21.02-.35-.14-.08-.21-.16-.2-.23.01-.04.02-.07.05-.1.03-.03.05-.05.05-.07 0-.05-.03-.08-.1-.11h.09l.1-.01c.15 0 .24.04.26.14.03.1.19.21.21.19.01-.01.02-.14.03-.33.1.02.18.05.19.13.03.1.19.21.21.19.03-.02.04-.58.07-1.03.03-.46.05-.8.05-1.03v.05l.01-.11c.01-.08.02-.2.02-.34s-.01-.26 0-.33c-.49.01-.78.01-1.22.03zm.27 1.193c-.09.002-.15.014-.2.028-.01 0-.02-.003-.03-.004.06-.15.1-.26.14-.39l.18.05c0 .13 0 .21-.01.33h-.06zm-1.47 1.98l-.14-.33c.05-.006.1-.014.16-.026v.01c.02 0 .05.02.09.03.02.01.05 0 .07 0 .08 0 .18-.01.31-.05h.04c.03.01.05.01.09.02-.01.15-.01.22-.02.36.1 0 .19.02.2.05.01.02-.07.04-.21.05-.24 0-.43-.02-.56-.08zm.99.068l.01-.097c.11-.003.19.02.2.048.01.014-.07.034-.19.05zm.02-.29c-.11-.07-.16-.136-.18-.197.05.005.1.012.2.038l-.01.16zm-.41-.542c-.06-.004-.12-.006-.2-.004-.08 0-.22.01-.4.03-.11.01-.21.02-.29.03l-.06-.16c-.11-.09-.23-.13-.35-.13-.03 0-.1.03-.17.05-.06-.03-.13-.05-.2-.05-.05 0-.15.03-.27.09-.04.02-.06.02-.1.03-.09-.04-.18-.11-.25-.22-.18-.27-.31-.46-.3-.46 0 0 .15-.13.3-.24.05.09.11.21.17.36.06.18.21.27.46.26.11 0 .2-.02.27-.03.04 0 .07.02.11.02.05 0 .08-.01.12-.01l.71.23c.23.07.4.12.53.15h-.03zm-2.97-.756l.05-.04c0 .035 0 .063-.01.098-.02-.034-.03-.057-.03-.058zm4.35-.444c.01-.138.01-.248.01-.353.01 0 .01 0 .01.002 0 .14-.01.21-.02.35zm7.99-1.483c-.21.01-.39.016-.55.022l-.16.006c-.2.008-.4.016-.67.025-.06.19-.11.3-.17.475-.08-.037-.16-.097-.23-.198-.12-.17-.27-.255-.44-.245-.03 0-.08.013-.12.017-.02 0-.03-.013-.05-.012-.2.007-.48.07-.83.188-.32.105-.54.166-.7.203.01-.12.01-.2.02-.34l-.06.01h-.13l-.09.01c-.35.02-.53.11-.54.31 0 .09.01.21.04.37.04.16.05.27.05.35-.02.43-.1.98-.22 1.66-.18 1.03-.3 1.64-.29 1.67.11.17.84.39 1.06.46.27.09.69.07 1.09.05.04 0 .08-.01.12-.01h.04c.58-.03 1.44-.17 2.56-.42.04-.34.05-.52.08-.86-.05-.29-.08-.48-.09-.48-.01-.01-.12.02-.2.04l-.01-.02c-.01-.01-.11.03-.19.04h-.02c-.07.01-.12 0-.15-.01.01-.14.02-.2.03-.34-.14-.08-.2-.15-.2-.22.01-.03.02-.06.06-.09.03-.03.05-.05.05-.07 0-.05-.03-.08-.1-.1h.39c.16-.01.24.03.27.13.02.1.18.2.2.18.01-.01.02-.08.03-.17.04.09.17.18.19.16.03-.02.05-.56.1-1 .04-.44.06-.77.07-.99v-.06c.01-.07.02-.19.03-.32 0-.14-.01-.25 0-.32l-.22.01zm-.76 1.198c-.04.002-.06.01-.1.016-.04-.005-.07-.008-.1-.007-.01 0-.02.005-.03.006l.17-.426.38.087-.03.338c-.01 0-.03 0-.04.002-.1-.005-.19-.018-.23-.016zm-1.52 1.954l-.14-.336c.02 0 .05.017.08.02.03.004.05 0 .07 0 .02-.002.06-.012.08-.015.01.01.02.01.03.01.03.01.05 0 .07 0 .07 0 .18-.02.31-.05l.16-.03c.05.01.09.01.18.03-.01.14-.01.21-.03.34.11 0 .19.02.19.05.01.02-.12.05-.35.07-.27.01-.49-.01-.63-.06zm.81-.775c-.03 0-.07.006-.1.01-.02 0-.05-.002-.08 0-.08.004-.22.02-.4.045-.18.025-.32.04-.42.045h-.05l.1.314v.03l-.21-.48c-.11-.08-.22-.12-.34-.11-.02 0-.05.01-.08.02-.02 0-.04-.01-.07-.01-.06 0-.15.03-.27.09-.09.05-.16.06-.22.07-.13-.02-.25-.08-.35-.23-.17-.25-.3-.43-.3-.44 0 0 .28-.24.48-.32.05.07.14.23.21.43.06.17.22.26.46.25.05 0 .07-.01.12-.01.02 0 .02.01.04.01.13 0 .22-.02.3-.03l.74.23c.21.07.37.11.51.14h-.04z"/></g></svg>