<svg xmlns="http://www.w3.org/2000/svg" width="250" height="250" viewBox="0 0 250 250"><path opacity=".15" d="M194 157.145l-3.375.113.07 3.376.124 6.105c-1.48-1.72-3.44-3.05-5.85-3.95-2.43-.91-5.37-1.35-9-1.35-.88 0-1.72.02-2.52.08l-1.14-6.63 44.39-43.27-8.3-10.29-38.46-5.59c-1.48-5.7-3.34-11.8-5.64-18.36-.17-1.01-.4-2.01-.67-2.99 3.06-3.55 6.72-9.18 4.42-13.88 0 0-2.42-7.1-14.23-1.97-7.35-6.93-17.83-11.6-29.66-12.53l-4.54-9.2-4.56 9.23c-11.91 1.01-22.42 5.79-29.72 12.85h-.01c-16.53-5.61-7.62 10.6-7.62 10.6h.01c-1.87 4.02-2.91 8.37-2.91 12.93 0 .14.01.28.01.42 0 .13-.02.26-.02.39 0 1.6.18 3.17.51 4.71.42 2.29 1.12 4.5 2.04 6.63l-46.53 6.76 8.29 10.28 35.8 34.88-1.84 10.75-7.39.04H64.4v-.14l-3.46.03-20.116.2-3.47.03.09 3.47.36 13.8.09 3.23 3.24.09.44.01.51 7.31h-2.65l.07 3.48.11 5.23.07 3.4 3.41-.05 17.6-.26 1.34-.02-.01.26 3.53-.04.65-.01-1.43 8.33 8.3 10.28 34.73-18.26c1.58-.26 3.09-.57 4.48-.91 1.43-.34 2.86-.74 4.27-1.18l.02 1.58h30.55l35.69 18.77-3.08-17.95c1.013-.14 2.014-.34 2.99-.6 2.262-.61 4.31-1.59 6.092-2.93.75-.56 1.43-1.21 2.06-1.9l.04 1.63.073 3.4 3.4-.06 12.01-.2 3.63-.06-.28-3.62-.52-6.62-.24-3.13h-.17l.04-.4 2.46-23.09.41-3.91-3.94.13-13.8.46zm-16.275 28.472c-.043.13-.077.19-.09.21l-.01.002-.612-3.58c.354.06.568.15.68.21.063.17.2.64.2 1.62 0 .87-.106 1.33-.168 1.52z"/><path fill="#FFD200" d="M191 154.145l-3.375.113.07 3.376.124 6.105c-1.48-1.72-3.44-3.05-5.85-3.95-2.43-.91-5.37-1.35-9-1.35-.88 0-1.72.02-2.52.08l-1.14-6.63 44.39-43.27-8.3-10.29-38.46-5.59c-1.48-5.7-3.34-11.8-5.64-18.36-.17-1.01-.4-2.01-.67-2.99 3.06-3.55 6.72-9.18 4.42-13.88 0 0-2.42-7.1-14.23-1.97-7.35-6.93-17.83-11.6-29.66-12.53l-4.54-9.2-4.56 9.23c-11.91 1.01-22.42 5.79-29.72 12.85h-.01c-16.53-5.61-7.62 10.6-7.62 10.6h.01c-1.87 4.02-2.91 8.37-2.91 12.93 0 .14.01.28.01.42 0 .13-.02.26-.02.39 0 1.6.18 3.17.51 4.71.42 2.29 1.12 4.5 2.04 6.63l-46.5 6.77 8.29 10.28 35.77 34.86-1.85 10.76-7.39.04-1.29.01v-.14l-3.46.04-20.12.21-3.47.04.09 3.48.36 13.81.09 3.24 3.24.09.44.02.51 7.31h-2.65l.07 3.49.11 5.23.07 3.41 3.41-.05 17.6-.26 1.34-.02-.01.26 3.53-.04.66-.01-1.43 8.33 8.3 10.27 34.72-18.26c1.58-.26 3.09-.57 4.48-.91 1.43-.34 2.85-.74 4.26-1.18l.01 1.58h30.55L179.79 213l-3.077-17.946c1.014-.144 2.015-.34 2.99-.6 2.263-.607 4.312-1.594 6.093-2.93.75-.566 1.43-1.216 2.06-1.91l.04 1.633.074 3.403 3.4-.06 12.01-.204 3.634-.062-.28-3.623-.52-6.61-.24-3.13h-.17l.046-.4 2.468-23.09.416-3.91-3.93.13-13.8.47zm-16.275 28.472c-.043.13-.077.19-.09.21l-.01.002-.612-3.58c.354.06.568.15.68.21.063.17.2.64.2 1.62 0 .87-.106 1.33-.168 1.52z"/><path fill="#F47F38" d="M61.774 202.715l8.295 10.283L84 193.655l-11.113-2.842m132.527-92.458l8.294 10.285-19.578 5.91-7.27-12.678M27.866 98.355l8.295 10.285 9.35-1.36"/><path fill="#F47F38" d="M124.935 184.154l54.865 28.844-10.478-61.093 44.386-43.265-61.34-8.914-27.433-55.584L97.5 99.726l-61.34 8.914 44.388 43.265-10.48 61.093"/><path fill="#FFD200" d="M116.64 173.872l54.866 28.843-10.48-61.092 44.388-43.268-61.342-8.913-27.43-55.584-27.435 55.584-61.34 8.913 44.387 43.268-10.48 61.092"/><path fill="#FAAF40" d="M116.64 159.61l40.788 21.443-7.79-45.418 32.998-32.165-45.602-6.627L116.64 55.52 96.246 96.844l-45.6 6.627 32.998 32.17-7.79 45.42"/><path fill="#FFF" d="M119.866 116.368s-32.728 66.17-44.27 1.745c0 0-7.844 2.566-6.323 5.274 0 0 14.54 66.42 53.93 1.59 0 .002 6.035-6.69-3.337-8.61zm-44.268-4.738c7.287-9.408 11.634-.622 11.634-.622-.64 1.262-3.35.69-3.35.69-6.84-1.068-6.057 4.67-6.057 4.67l-4.264 5.45"/><path fill="#FFF" d="M76.115 121.82s1.213-2.652 1.71-5.452c.496-2.8-1.354.142-1.354.142l-1.24-3.67-.21-1.105s.57-11.48-4.66-17.054c0 0-7.16-.92 0 8.78 0 0 2.57 7.03 2.19 8.53 0 0-.91 2.35-3.04 1.01 0 0-4.06-5.94-12.29-6.52 0 0-3.36 5.51 5.99 5.51l4.08 3.21s-4.18 10.91 7.04 7.59"/><path fill="#FFF" d="M73.562 111.237s.69 1.068 4.348-.428c3.657-1.5-4.348 8.55-4.348 8.55v-8.13zm36.482 22.93s12.402-20.58 12.29-23.51l19.166-6.136 24.834 9.15-7.267 36.89-16.7 12.62-14.527 12.33-21.012-13.74 2.197-3.14-.864-18.95 1.89-5.49z"/><path fill="#D0D2D3" d="M111.233 138.144s7.07-11.548 8.496-21.498l8.11 4.558-2.37 15.98-6.6 3.312-7.64-2.352zM74.73 66.514s-8.908-16.202 7.63-10.573c16.54 5.63-7.63 10.58-7.63 10.58z"/><path fill="#919496" d="M77.85 62.045s-7.927-8.002-2.227 2.71c5.7 10.713 2.227-2.71 2.227-2.71zm74.423-3.025l4.64 10.153s14.27-17.753-4.64-10.152z"/><path fill="#FFF" d="M161.32 74.413c-3.017-17.81-21.795-31.527-44.524-31.527-24.83 0-44.958 16.37-44.958 36.56s20.127 36.56 44.958 36.56c.933 0 1.856-.03 2.776-.076.995 4.34 1.827 11.07-1.18 15.145 0 0-20.624 15.42-10.1 30.07-.014-.107-2.708-25.673 16.97-30.222l-3.57-16.104s7.435-1.75 16.12-5.59v20.17s-20.762 24.24-9.003 40.66c20.56-.63 61.93-11.63 32.51-95.65z"/><path fill="#D0D2D3" d="M137.813 129.404v-20.168c-8.686 3.834-16.12 5.583-16.12 5.583l3.57 16.1c-19.678 4.55-16.984 30.11-16.97 30.22 2.052 2.86 3.083 3.83 7.896 6.51 0 0 6.48 2.59 12.62 2.41-11.76-16.42 9-40.66 9-40.66z"/><ellipse fill="#D0D2D3" cx="110.044" cy="80.251" rx="38.206" ry="28.985"/><path fill="#D0D2D3" d="M148.05 56.94s-.437 3.755 3.057 4.278c0 0 17.108-5.587 4.625 9.428 0 0-1.396 2.27 1.484 4.278 0 0 11.523-9.865 7.856-17.373 0 .01-2.793-8.2-17.022-.61z"/><ellipse fill="#FFF" cx="90.533" cy="73.741" rx="14.935" ry="14.721"/><circle fill="#0071BC" cx="91.697" cy="74.648" r="10.974"/><path fill="#0F4481" d="M90.907 77.412c-2.038-2.356-1.78-5.914.572-7.95 2.35-2.036 5.91-1.78 7.95.574 2.03 2.353 1.78 5.913-.58 7.95-2.35 2.036-5.91 1.778-7.95-.574z"/><path fill="#FFF" d="M94.19 75.683c-1.083-1.252-.946-3.142.304-4.224 1.25-1.09 3.142-.95 4.226.3 1.082 1.25.944 3.14-.307 4.22-1.25 1.08-3.14.94-4.223-.31z"/><circle fill="#FFF" cx="89.63" cy="72.947" r="1.458"/><ellipse fill="#FFF" cx="125.262" cy="74.073" rx="18.435" ry="18.313"/><circle fill="#0071BC" cx="127.83" cy="73.968" r="12.655"/><path fill="#0F4481" d="M126.92 77.155c-2.35-2.717-2.055-6.82.66-9.167 2.713-2.348 6.815-2.054 9.167.662 2.348 2.713 2.053 6.818-.662 9.166-2.712 2.35-6.816 2.05-9.165-.66z"/><path fill="#FFF" d="M130.705 75.162c-1.25-1.444-1.092-3.623.35-4.87 1.44-1.248 3.623-1.095 4.873.348 1.248 1.444 1.09 3.625-.354 4.874-1.442 1.248-3.62 1.088-4.87-.352z"/><circle fill="#FFF" cx="125.446" cy="72.007" r="1.682"/><path fill="#6C6F71" d="M109.025 107.17s-.977-2.955-4.014-2.703c0 0 .81-.887 4.02-2.255 0 0-2.83.27-4.77 1.817 0 0-4.84 3.71-2.79-2.16 0 0-4.39 7.12 3.22 3.13 0 0 2.34.45 4.35 2.16z"/><path fill="#BE1E2D" d="M103.7 96.63s-4.136 11.965 2.083 4.216c0 0 1.66-2.343 5.877-2.654 0 0-18.927-8.58-7.96-1.56z"/><path fill="#D0D2D3" d="M145.812 112.998l-2.115 54.705 8.576-3.676 6.794-47.38-2.155-1.97-8.662 51.074"/><path fill="#6C6F71" d="M103.038 90.738l.496 3.133s9.782 7.16 12.08 1.5l-.855-2.19 2.93 3.77-1.76-1.09s.26 6.95-12.51-1.11c0 0-5.88-2.36-.7 1.28 0 0-8.61-3.89-.27-2.45l-.33-2.4.9-.4z"/><path fill="#1D8FCD" d="M98.49 89.22s3.322-6.762 4.547-3.193c0 0 2.745-4.02 2.745 2.435 0 0-2.602 1.774-2.745 3.924 0 0-2.692-1.08-4.547-3.167z"/><path fill="#FFF" d="M103.038 90.738s.168-.914 1.454-1.824c0 0-.476-1.747-1.454 1.824z"/><path fill="#ACAFB1" d="M76.38 78.443s12.525-5.514 27.635 2.274c0 0-.982 7.28-13.943 7.872 0 0-9.578.49-13.692-10.15zm31.78 2.467s10.835-7.38 34.207 0c0 0-3.888 13.542-17.262 12.048 0 0-13.507-.288-16.944-12.048z"/><path fill="#D0D2D3" d="M74.618 112.306l-1.056 3.207s-6.458 3.037-1.124 7.717c0 0-6.02-4.323.035-7.717l2.145-3.207zm-2.778 11.866s-.337 2.886 4.374 12.293l-4.375-12.293z"/><path fill="#F47F38" d="M38.19 184.074h2.734l-.742-10.684-3.608-.105-.446-17.158 23.58-.24v17.047l-4.32.104-.124 1.777 9.503-.11-.03-1.477-3.558.104-.2-17.316 23.15-.12-.64 17.335-3.24-.1-.47 11.2h3.42l-.27 8.13-22.19.24.17-8.42 3.89-.1-.02-1.23-9.12.08v1.31l3.51.21.18 7.92-21.03.31"/><path fill="#FFD200" d="M82.368 157.614l-.513 13.854-3.232-.103-.616 14.675h3.437l-.153 4.72-18.78.206.11-5.028 3.95-.103-.05-4.618-12.52.103v4.618l3.54.205.1 4.618-17.6.26-.1-5.23h2.83l-.97-14.06-3.54-.1-.36-13.8 20.11-.21v13.65l-4.21.11-.36 5.19 13.09-.15-.1-4.93-3.54.1-.15-13.85 19.66-.1m-20.95-3.45l-3.46.04-20.11.21-3.47.04.09 3.48.36 13.8.09 3.24 3.24.09.44.02.51 7.31h-2.65l.07 3.49.11 5.23.07 3.4 3.4-.05 17.6-.25 1.34-.02v.26l3.53-.04 18.78-.2 3.28-.03.11-3.27.15-4.72.12-3.53H81.6l.32-7.72 3.25.1.127-3.4.514-13.85.14-3.56-3.56.02-19.66.11h-1.28v-.14z"/><path fill="#F47F38" d="M99.55 193.498c-.972 0-2.06-.054-3.236-.16-1.22-.112-2.472-.336-3.72-.667-1.288-.34-2.545-.83-3.736-1.48-1.258-.68-2.387-1.59-3.358-2.72-.97-1.12-1.757-2.51-2.338-4.12-.58-1.6-.872-3.51-.872-5.68 0-6.26 1.52-10.93 4.512-13.89 2.987-2.94 7.258-4.44 12.695-4.44 2.646 0 5.224.36 7.662 1.07 2.57.75 4.75 2.05 6.47 3.85 1.75 1.83 2.91 4.27 3.45 7.24.52 2.9.18 6.48-1.02 10.65l-.02.05-1.31 7.31-.98.32c-1.61.53-3.27.99-4.92 1.38-1.39.35-2.93.66-4.56.92-1.68.28-3.28.41-4.76.41zm-1.44-9.09c.427.183 1.233.385 2.72.385 1.456 0 2.937-.107 4.402-.317.204-.028.407-.06.607-.09l-7.73.02zm1.695-8.097c-1.838 0-2.524.3-2.734.42-.13.09-.25.17-.35.24l5.93-.2-.12-.07c-.21-.11-.89-.38-2.72-.38z"/><path fill="#FFD200" d="M99.497 162.026c2.497 0 4.892.334 7.184 1 2.3.67 4.2 1.798 5.73 3.388 1.52 1.59 2.52 3.712 3 6.363.48 2.65.16 5.944-.97 9.878l-19.85.05c.11.72.4 1.353.87 1.9.41.478 1.03.913 1.85 1.308.82.393 2 .59 3.54.59s3.09-.11 4.65-.333c1.56-.223 2.99-.47 4.29-.744 1.51-.343 2.96-.72 4.37-1.13l-.87 4.874c-1.57.515-3.16.96-4.77 1.335-1.37.342-2.85.643-4.44.897-1.59.257-3.08.386-4.49.386-.92 0-1.95-.052-3.08-.153-1.12-.104-2.27-.31-3.43-.617-1.16-.308-2.28-.752-3.36-1.333-1.08-.582-2.03-1.36-2.87-2.335s-1.51-2.173-2.03-3.592c-.51-1.42-.77-3.12-.77-5.105 0-5.815 1.34-10.04 4.01-12.674 2.67-2.64 6.5-3.96 11.49-3.96m-5.03 16.73l10.31-.36c.21-.69.19-1.32-.05-1.9-.2-.48-.66-.91-1.38-1.31-.72-.4-1.9-.59-3.54-.59-1.68 0-2.88.22-3.62.66-.73.44-1.24.92-1.51 1.43-.31.61-.37 1.3-.2 2.05m5.03-20.15c-5.91 0-10.58 1.66-13.9 4.94-3.33 3.28-5.02 8.37-5.02 15.1 0 2.37.33 4.48.97 6.27.65 1.8 1.55 3.37 2.65 4.65 1.11 1.28 2.4 2.33 3.84 3.11 1.31.7 2.7 1.25 4.11 1.63 1.34.35 2.69.59 4.01.71 1.23.11 2.37.17 3.39.17 1.58 0 3.27-.14 5.04-.43 1.66-.27 3.24-.59 4.7-.95 1.69-.4 3.38-.87 5.03-1.41l1.95-.64.36-2.02.87-4.88.24-1.34c1.28-4.47 1.62-8.2 1.04-11.4-.6-3.31-1.91-6.04-3.89-8.12-1.94-2.02-4.37-3.47-7.24-4.31-2.59-.76-5.33-1.14-8.14-1.14z"/><path fill="#F47F38" d="M115.255 192.523l-.09-8.057 4.644.052.04-14.84-3.88.304-.19-17.72h17.77l-.26 32.252 4.21-.055-.99 8.06"/><path fill="#FFD200" d="M131.827 153.972l-.257 32.274 4.002-.052-.564 4.618h-18.06l-.052-4.618 4.618.052.052-18.42-3.9.307-.154-14.16h14.315m3.448-3.423h-21.22l.037 3.46.153 14.16.04 3.66 3.65-.286.2-.017-.03 11.26-1.17-.012-3.497-.04.04 3.497.05 4.62.037 3.38h24.473l.367-3.004.564-4.618.47-3.886-3.92.05-.51.007.23-28.78.02-3.45z"/><path fill="#F47F38" d="M135.9 192.523l-.087-8.057 4.64.052.043-14.84-3.875.304-.19-17.72h17.77l-.25 32.252 4.22-.055-.98 8.06"/><path fill="#FFD200" d="M152.475 153.972l-.258 32.274 4.002-.052-.57 4.618h-18.06l-.05-4.618 4.61.052.05-18.42-3.9.307-.16-14.16h14.31m3.44-3.423h-21.2l.03 3.46.15 14.16.04 3.66 3.65-.286.2-.017-.03 11.26-1.16-.012-3.49-.04.04 3.497.05 4.62.04 3.38h24.47l.37-3.004.56-4.618.48-3.886-3.92.05-.51.007.23-28.78.02-3.45z"/><path fill="#F47F38" d="M173.08 193.6c-2.112 0-4.2-.248-6.206-.74-2.087-.513-3.97-1.363-5.593-2.53-1.67-1.197-3.02-2.794-4.01-4.743-.99-1.944-1.49-4.346-1.49-7.138 0-2.75.25-5.24.74-7.41.52-2.31 1.47-4.3 2.82-5.93 1.37-1.65 3.22-2.91 5.5-3.75 2.19-.8 4.93-1.21 8.16-1.21 3.37 0 6.2.41 8.4 1.23 2.32.86 4.15 2.15 5.47 3.83 1.29 1.63 2.19 3.63 2.67 5.94.45 2.15.68 4.6.68 7.27 0 2.68-.49 5.02-1.46 6.95-.97 1.92-2.29 3.52-3.94 4.75-1.6 1.2-3.46 2.09-5.51 2.64-1.98.53-4.07.8-6.19.8zm-.358-16.162c-.715 0-1.305.07-1.756.208-.303.094-.52.23-.68.42-.192.227-.338.573-.433 1.03-.13.618-.193 1.41-.193 2.354 0 1.09.142 1.67.26 1.965.145.355.32.613.545.787.23.18.523.295.9.354.578.09 1.223.134 1.92.134.644 0 1.212-.06 1.688-.18.334-.085.61-.23.844-.446.226-.21.405-.52.536-.92.167-.518.25-1.21.25-2.054 0-1.47-.274-2.53-.758-2.91-.617-.485-1.7-.742-3.123-.742z"/><path fill="#FFD200" d="M172.977 161.873c3.182 0 5.78.378 7.8 1.13 2.02.753 3.592 1.847 4.72 3.283 1.13 1.437 1.907 3.182 2.336 5.234.43 2.052.643 4.36.643 6.928 0 2.428-.43 4.49-1.284 6.182-.854 1.693-2 3.08-3.438 4.156-1.437 1.078-3.08 1.864-4.926 2.36-1.848.495-3.764.744-5.746.744-1.984 0-3.92-.23-5.8-.692-1.88-.463-3.548-1.214-5-2.258-1.456-1.043-2.62-2.42-3.49-4.13-.872-1.71-1.31-3.832-1.31-6.362 0-2.635.23-4.98.694-7.03.46-2.053 1.283-3.79 2.462-5.21 1.182-1.417 2.77-2.495 4.77-3.23 2-.737 4.524-1.105 7.57-1.105m.307 24.527c.785 0 1.487-.077 2.104-.23.61-.156 1.14-.44 1.58-.853.44-.41.78-.962 1-1.648.22-.69.33-1.55.33-2.58 0-2.1-.47-3.52-1.41-4.26-.94-.74-2.34-1.11-4.18-1.11-.89 0-1.65.09-2.26.28s-1.11.5-1.49.95c-.38.44-.65 1.04-.8 1.78s-.23 1.64-.23 2.7c0 1.1.12 1.96.38 2.6.25.63.61 1.13 1.07 1.49.46.36 1.02.59 1.69.69.66.1 1.39.15 2.18.15m-.31-27.95c-3.48 0-6.34.43-8.75 1.31-2.57.94-4.66 2.37-6.22 4.25-1.53 1.83-2.59 4.06-3.17 6.64-.52 2.29-.78 4.91-.78 7.78 0 3.07.57 5.73 1.68 7.92 1.11 2.19 2.64 4 4.54 5.36 1.8 1.29 3.88 2.23 6.18 2.8 2.14.52 4.36.79 6.61.79 2.27 0 4.5-.29 6.63-.86 2.26-.61 4.31-1.6 6.09-2.93 1.85-1.39 3.35-3.19 4.44-5.35 1.09-2.17 1.65-4.77 1.65-7.73 0-2.79-.24-5.36-.72-7.63-.54-2.57-1.54-4.81-2.99-6.65-1.52-1.93-3.61-3.4-6.22-4.38-2.43-.91-5.38-1.35-9-1.35zm-1.4 20.8c.21-.05.57-.11 1.14-.11 1.2 0 1.76.21 1.97.32.06.17.2.64.2 1.62 0 .87-.11 1.33-.17 1.53-.04.13-.08.19-.09.21-.01 0-.03.01-.08.02-.34.08-.77.13-1.27.13-.61 0-1.17-.04-1.66-.12l-.09-.02c-.01-.02-.02-.05-.03-.07 0-.01-.14-.36-.14-1.33 0-1.03.08-1.66.15-2.01.02-.08.03-.14.05-.19z"/><path fill="#F47F38" d="M189.415 182.52l14.983.132.775 9.995-15.525.265-.233-10.39zm.486-.62l-.53-25.99 17.46-.584L204 181.9h-14.1z"/><path fill="#FFD200" d="M204.918 157.102l-2.465 23.09h-10.876l-.463-22.627 13.804-.463m-13.75 27.143l11.645.103.514 6.62-12.007.203-.153-6.92m17.57-30.69l-3.935.13-13.802.46-3.376.12.07 3.38.46 22.63.013.54h-.5l.077 3.53.156 6.92.075 3.41 3.4-.06 12.01-.2 3.633-.06-.28-3.62-.516-6.62-.242-3.13h-.17l.045-.4 2.462-23.09.42-3.91z"/></svg>