<svg xmlns="http://www.w3.org/2000/svg" width="250" height="250" viewBox="0 0 250 250"><path fill="#D9D9D9" d="M183.745 188.746c-.27-.193-.56-.37-.86-.538.293.16.574.334.84.522l.02.016c.052.037.103.074.152.112l-.152-.112m-1.09-.652c-.272-.142-.553-.274-.846-.396.29.12.57.254.84.396m-1.23-.544c-.28-.107-.57-.205-.87-.296.29.09.58.188.86.296m-1.19-.396c-.4-.11-.81-.21-1.22-.298.41.088.82.187 1.22.298m-1.59-.368c-.32-.062-.65-.117-.98-.168.33.05.65.107.97.168m-1.42-.233c-.36-.047-.72-.09-1.09-.126.36.036.73.08 1.08.126m-1.37-.157c-.46-.043-.92-.077-1.38-.104.46.027.92.062 1.38.104m-1.79-.125c-.36-.01-.72-.03-1.08-.04.35.01.71.03 1.07.05m-1.48-.06c-1.62-.04-3.23-.04-4.74-.04 1.51 0 3.12 0 4.74.04m-5.01-.04h-.85l.01-.05-.01.06c.28 0 .56.01.84.01m-.77-.45l.02-.14-.02.15m.01-.66v-.02.02M136.2 34.75c-.248 0-.5.02-.75.05-1.014.15-1.98.61-2.91 1.37-.55.44-1.09.97-1.62 1.59-.91-1.077-2.225-1.7-3.675-1.7-.24 0-.49.02-.74.053-1.01.15-1.98.61-2.91 1.37-1.29 1.03-2.494 2.51-3.67 4.52-.86 1.46-1.66 3.12-2.39 4.92-.32-.05-.646-.08-.98-.08-.364 0-.74.03-1.115.08-1.366.2-2.717.73-4.137 1.62-.326.205-.646.43-.96.67.13-.29.26-.57.365-.82l.19-.375c.376-.74.63-1.5.767-2.28.14-.807.134-1.675-.01-2.66-.49-3.308-2.897-4.145-3.62-4.32-.36-.09-.73-.135-1.098-.135-.724 0-2.458.2-3.82 1.94-.52-.736-1.22-1.406-2.187-1.86-.95-.45-2.048-.68-3.27-.68-.55 0-1.145.05-1.77.14-1.918.28-3.99.855-6.15 1.7-2.045.8-4.016 1.724-5.86 2.75-1.837 1.02-3.42 2.02-4.73 2.98-1.662 1.22-2.63 2.123-3.235 3.04-.62.933-1.036 2.083-1.28 3.52-.216 1.28-.245 2.42-.09 3.48.216 1.46.78 2.65 1.67 3.54.968.97 2.27 1.51 3.67 1.523l-.09.288c-.325 1.107-.414 2.19-.262 3.22.05.316.12.62.22.91-1.95.516-3.77 1.18-5.43 2-3.05 1.5-5.13 3.134-6.36 4.99-.82 1.22-1.4 2.735-1.71 4.504-.29 1.63-.32 3.26-.088 4.83.167 1.14.69 2.23 1.504 3.144.42.48.86.873 1.33 1.18-.86.21-1.71.557-2.53 1.03l-.09.05-.08.05c-1.37.877-2.41 2.207-3.09 3.955-.64 1.643-.84 2.9-.67 4.08.05.37.21 1.05.59 1.8-4.92 9.53-7.72 20.34-7.72 31.81 0 24.33 12.53 45.72 31.48 58.11-16.32 7.73-26.1 15.87-24.5 21.72.15.58.42 1.12.78 1.62h-.02c.09.13.2.26.31.39l.04.05.01.01c.16.18.33.35.52.52.08.08.17.156.26.23.11.09.22.18.34.27.11.085.22.167.34.247.09.06.18.12.28.18 2.24 1.43 5.64 2.43 9.97 3-.48 1.06-.88 2.123-1.15 3.18h98.67c-3.16-.14-6.31-.42-9.4-.93-2.81-.466-5.61-1.17-7.95-2.485-1.04-.58-1.91-1.33-2.59-2.16-1.01-1.23-1.3-2.8-1.07-4.23.1-.6.37-1.24.75-1.77 1.53-2.12 4.66-3.06 7.56-3.62 1.13-.22 2.28-.37 3.44-.46.74-.06 1.47-.08 2.21-.08 3.37 0 6.67.53 9.98 1.1 2.82.48 5.66.97 8.55 1.11 1.65.17 3.77.62 5.78.62 1.63 0 3.17-.3 4.32-1.27 4.34-3.7-3.1-6.83-8.92-8.6 1.34-1.38 1.54-3.27-.63-5.6-.28-.31-.59-.58-.93-.83 9.3-5.45 14.88-10.81 15.11-15.16l.01-.02v-.14c0-.16 0-.32-.01-.47-.02-.25-.05-.49-.1-.73l-.05-.2-.05-.18-.03-.09-.02-.07-.09-.22c-.64-1.57-2.12-2.86-4.34-3.86l-.18-.08-.07-.03-.26-.11-.13-.05-.14-.06-.23-.1-.11-.04-.22-.08-.06-.02-.3-.11-.04-.01c-.23-.08-.45-.15-.68-.22l-.02-.01c-1.02-.31-2.14-.58-3.36-.81-1.51-.28-3.17-.5-4.95-.66 6.71-10.68 10.61-23.31 10.61-36.86 0-9.52-1.92-18.58-5.39-26.84 1.96-.74 3.24-1.92 3.8-3.53.34-.96.35-1.9.16-2.74.61.27 1.19.41 1.7.47.22.02.44.04.65.04 3.03 0 5.21-2.63 5.79-4.71 0 0 .98-2.76-3.6-6.27 1.82-4.63-.76-5.68-.76-5.68-2.6-1.18-5.14-1.65-7.18-1.65-1.44 0-2.64.23-3.43.62-2.41 1.18-3.81 3.19-4.59 4.75-.07.01-.12.01-.17.01-.09 0-.17 0-.28-.02-1.36-.14-2.67-.2-3.94-.2l-.2-.22c.27 0 .53-.02.79-.06 1.52-.22 3.56-1.19 4.68-4.51.56-1.67.73-3.15.52-4.55-.03-.21-.07-.43-.12-.63l.09-.15c.46-.79 1.05-1.99.92-3.45.12-.28.26-.58.41-.9.53-1.16 1.06-2.28 1.57-3.36.51-1.09 1.29-2.73 2.34-4.92 1.04-2.18 1.79-3.76 2.26-4.72l1.31-2.71-2.09-2.17c-.88-.92-1.93-1.6-3.1-2.02-.88-.31-1.75-.47-2.58-.47-.32 0-.64.02-.95.07-.61.09-1.21.27-1.84.56l-1.42.64-.68 1.4c-.54 1.09-1.45 3.26-2.81 6.64l-1.68 4.21c-.39.95-.73 1.83-1.05 2.64-.84-1.27-1.87-1.86-2.64-2.13l-.11-.04c-.49-.16-1.01-.24-1.55-.24-.31 0-.64.03-.99.08-.33.05-.79.13-1.61.35-.74-.49-1.62-.77-2.57-.77-.24 0-.48.02-.73.05-.77.11-1.49.39-2.17.82-.32.2-.63.44-.94.71-.51-.17-1.04-.28-1.6-.32.25-.41.5-.85.75-1.33 1.06-2.06 1.44-3.76 1.21-5.36-.39-2.63-2.43-4.46-4.97-4.46-.26 0-.52.02-.77.06-.96.15-1.86.55-2.71 1.24.11-1.03.11-1.94-.01-2.76-.21-1.4-.67-2.51-1.41-3.38-.49-1.52-1.66-2.72-3.25-3.3-.7-.25-1.46-.37-2.26-.37-.41 0-.85.03-1.29.1-.85.12-1.69.39-2.52.77.2-1.41.22-2.7.04-3.9-.17-1.14-.41-1.96-.81-2.68-.87-1.56-2.46-2.5-4.24-2.5"/><path fill="#B9B9B9" d="M166.858 185.57l-.02.147.02-.147m-.09.54l-.017.053c.28.004.57.004.86.004-.28 0-.56-.002-.84-.004l.01-.054m.08-1.08l.01.02v-.03m16.9 3.71l.15.11-.15-.12m-.86-.54c.3.16.59.34.86.54l-.02-.02c-.27-.19-.55-.36-.84-.53m-15.02-2.04c1.51 0 3.12-.01 4.74.04-1.62-.05-3.23-.04-4.74-.04m5.15.05c.36.01.72.03 1.08.05-.36-.02-.71-.03-1.07-.04m1.48.06c.47.03.93.06 1.38.1-.45-.04-.91-.08-1.38-.1m1.66.13c.37.04.73.08 1.09.13-.36-.05-.72-.09-1.09-.13m1.54.19c.33.05.65.11.98.17-.32-.06-.64-.12-.97-.17m1.34.24c.41.09.82.19 1.22.3-.4-.11-.81-.21-1.22-.3m1.54.4c.3.09.59.19.87.29-.28-.11-.57-.2-.86-.29m1.25.44c.3.12.58.25.85.39-.27-.14-.55-.28-.85-.4"/><path fill="#FFF" d="M146.18 110.367l-12.17 22.488s10.498 13.486-.522 21.557c-10.923 7.998-27.717 1.897-29.354-17.026-1.782-20.594 2.856-28.207 17.12-49.893"/><path fill="#FAAF40" d="M195.384 82.027c1.82-4.625-.758-5.678-.758-5.678-4.453-2.01-8.7-1.96-10.614-1.03-2.41 1.18-3.812 3.19-4.584 4.75-.166.02-.264.01-.444-.01-1.362-.14-2.67-.2-3.936-.2l-.197-.23c.27 0 .54-.02.79-.06 1.53-.23 3.57-1.19 4.68-4.51.56-1.67.73-3.16.52-4.55-.03-.22-.07-.43-.12-.64l.1-.16c.47-.79 1.06-1.99.92-3.45l.41-.9c.54-1.16 1.06-2.28 1.57-3.36l2.34-4.92c1.04-2.18 1.8-3.76 2.27-4.72l1.32-2.71-2.08-2.17c-.88-.92-1.93-1.6-3.1-2.02-.87-.31-1.74-.47-2.58-.47-.31 0-.63.02-.94.07-.6.09-1.21.27-1.83.55l-1.42.64-.68 1.4c-.53 1.09-1.45 3.26-2.81 6.64-.66 1.66-1.22 3.07-1.68 4.21-.38.95-.73 1.83-1.05 2.64-.84-1.26-1.87-1.86-2.64-2.13l-.11-.04c-.48-.16-1-.24-1.55-.24-.31 0-.63.02-.98.07-.33.05-.78.14-1.61.35-.74-.49-1.62-.77-2.58-.77-.24 0-.48.02-.72.05-.76.11-1.49.39-2.16.82-.32.2-.63.44-.94.71-.51-.17-1.04-.28-1.6-.32.26-.41.51-.85.75-1.33 1.06-2.06 1.45-3.76 1.21-5.37-.39-2.63-2.43-4.46-4.96-4.46-.25 0-.51.02-.77.06-.96.14-1.86.55-2.71 1.23.11-1.03.11-1.94-.02-2.77-.21-1.41-.67-2.52-1.41-3.38-.48-1.53-1.65-2.73-3.25-3.31-.69-.25-1.45-.38-2.26-.38-.41 0-.84.03-1.29.1-.84.12-1.68.38-2.51.77.21-1.4.23-2.7.05-3.9-.17-1.13-.41-1.95-.81-2.67-.87-1.56-2.46-2.5-4.24-2.5-.24 0-.5.02-.75.06-1.01.15-1.98.61-2.91 1.37-.55.44-1.09.97-1.62 1.59-.91-1.07-2.22-1.7-3.67-1.7-.24 0-.5.02-.74.05-1.01.15-1.98.61-2.91 1.37-1.29 1.03-2.49 2.51-3.67 4.52-.86 1.46-1.66 3.12-2.39 4.92-.32-.05-.64-.08-.98-.08-.36 0-.73.03-1.11.08-1.36.2-2.71.73-4.13 1.62-.32.2-.64.43-.96.67.14-.29.26-.57.37-.82l.19-.38c.38-.74.64-1.5.77-2.28.14-.81.14-1.68-.01-2.66-.49-3.31-2.89-4.15-3.62-4.32-.36-.09-.73-.14-1.1-.14-.72 0-2.46.2-3.82 1.94-.52-.73-1.22-1.4-2.18-1.86-.95-.45-2.04-.67-3.27-.67-.55 0-1.14.04-1.77.14-1.91.28-3.99.85-6.15 1.7-2.04.79-4.01 1.72-5.85 2.75-1.83 1.02-3.42 2.02-4.72 2.97-1.66 1.22-2.63 2.12-3.24 3.04-.62.94-1.04 2.09-1.28 3.52-.22 1.28-.24 2.42-.09 3.48.22 1.46.78 2.65 1.67 3.54.97.97 2.27 1.51 3.67 1.52l-.09.28c-.32 1.1-.41 2.19-.26 3.22.05.31.12.62.22.91-1.95.51-3.77 1.18-5.43 1.99-3.05 1.51-5.13 3.14-6.36 4.99-.83 1.22-1.4 2.74-1.72 4.51-.29 1.63-.32 3.26-.08 4.83.16 1.14.69 2.23 1.5 3.14.42.48.86.87 1.33 1.18-.86.21-1.71.56-2.53 1.03l-.08.05-.08.05c-1.37.87-2.41 2.2-3.09 3.95-.63 1.64-.84 2.9-.67 4.07.06.37.21 1.05.6 1.8-4.92 9.53-7.72 20.34-7.72 31.81 0 24.33 12.53 45.72 31.48 58.1-16.31 7.73-26.1 15.87-24.5 21.72.16.57.42 1.11.78 1.62h-.01c.1.13.2.26.31.38l.05.05.01.01c.16.17.34.35.52.52l.27.22c.11.09.22.18.34.27.11.08.22.16.34.24.09.06.19.12.28.18 2.24 1.43 5.64 2.43 9.98 3-.48 1.06-.88 2.13-1.14 3.18H171c-3.16-.14-6.31-.41-9.4-.92-2.81-.47-5.603-1.17-7.95-2.49-1.03-.58-1.91-1.33-2.59-2.16-1.003-1.23-1.3-2.8-1.06-4.23.09-.61.37-1.24.75-1.77 1.525-2.12 4.66-3.06 7.56-3.61 1.13-.22 2.28-.37 3.44-.46 4.14-.31 8.16.33 12.18 1.01 2.82.48 5.66.97 8.55 1.12 2.98.32 7.54 1.53 10.1-.65 4.34-3.7-3.1-6.83-8.92-8.6 1.34-1.38 1.54-3.27-.63-5.6-.28-.31-.59-.58-.92-.83 9.3-5.45 14.88-10.81 15.11-15.16l.01-.02v-.15c0-.16.004-.31-.006-.47-.02-.25-.045-.49-.1-.73l-.05-.2-.05-.17-.03-.09-.02-.07-.086-.22c-.64-1.57-2.123-2.86-4.34-3.86l-.174-.08-.07-.03-.26-.11-.13-.05-.14-.06-.237-.09-.106-.04-.22-.08-.06-.02-.31-.11-.04-.01c-.22-.08-.44-.15-.68-.22l-.01-.01c-1.02-.31-2.15-.58-3.36-.81-1.5-.28-3.16-.5-4.95-.66 6.72-10.68 10.61-23.31 10.61-36.86 0-9.52-1.92-18.59-5.39-26.85 1.96-.74 3.24-1.92 3.8-3.53.34-.96.35-1.9.17-2.74.61.27 1.19.41 1.7.48 3.37.41 5.82-2.45 6.43-4.67 0 0 .98-2.76-3.6-6.27zm-30.48 100.788l.02-.146-.02.14zm.763.45c-.285 0-.573 0-.85-.003l.016-.055-.01.055c.277.002.56.003.844.003zm-.755-1.112l-.003-.022v.03zm16.04 3.154c.292.16.572.334.838.522l.174.12c-.315-.24-.656-.45-1.013-.65zm-15.015-2.04c1.51.003 3.12-.003 4.74.043-1.622-.046-3.232-.04-4.74-.043zm5.14.055c.36.013.717.028 1.074.047-.35-.02-.71-.04-1.07-.05zm1.478.07c.465.026.926.06 1.382.103-.457-.043-.917-.077-1.382-.104zm1.66.132c.366.037.73.08 1.086.127-.35-.04-.72-.08-1.08-.12zm1.536.193c.33.05.66.106.98.168-.32-.062-.64-.117-.97-.168zm1.34.238c.42.087.83.187 1.22.298-.39-.11-.8-.21-1.22-.298zm1.54.398c.3.09.59.188.87.295-.28-.107-.57-.205-.86-.295zm1.25.444c.3.12.58.253.85.395-.27-.142-.55-.274-.84-.395z"/><path fill="#FAAF40" d="M195.384 82.027c1.82-4.625-.758-5.678-.758-5.678-4.453-2.01-8.7-1.96-10.614-1.03-2.41 1.18-3.812 3.19-4.584 4.75-.166.02-.264.01-.444-.01-18.03-1.87-27.452 9.24-29.91 15.37l3.24 1.31.066.11c-.327.43-.653.87-.972 1.33l5.73 3.97c6.83-9.87 16.435-10.48 19.2-10.43.528.3 1.054.54 1.544.72 2.134 6.48 5.77 6.87 6.912 6.83l.658-.09c2.786-.67 4.548-2.01 5.236-3.98.338-.97.344-1.91.163-2.75.61.27 1.19.41 1.7.47 3.37.41 5.82-2.45 6.44-4.67 0 0 .99-2.76-3.59-6.27z"/><ellipse fill="#FFCC7A" cx="145.09" cy="61.701" rx="7.205" ry="6.575"/><path fill="#FAAF40" d="M187.548 47.523c-.883-.92-1.927-1.6-3.104-2.02-.877-.312-1.745-.47-2.58-.47-.316 0-.635.023-.944.07-.608.09-1.21.27-1.838.555l-1.422.64-.682 1.4c-.534 1.09-1.452 3.26-2.81 6.644-.662 1.665-1.223 3.07-1.682 4.21-.383.95-.73 1.83-1.05 2.64-.84-1.263-1.87-1.856-2.64-2.13l-.11-.04c-.485-.157-1.008-.237-1.55-.237-.312 0-.636.025-.984.077-.333.05-.787.136-1.608.348-.738-.49-1.624-.77-2.577-.77-.24 0-.483.017-.726.053-.76.113-1.49.39-2.16.826-.32.19-.63.44-.94.7-.51-.18-1.04-.28-1.6-.32.26-.41.51-.85.75-1.33 1.06-2.06 1.44-3.77 1.21-5.37-.38-2.63-2.43-4.46-4.96-4.46-.25 0-.51.02-.77.06-.96.14-1.86.55-2.7 1.23.11-1.03.11-1.95-.02-2.77-.2-1.41-.66-2.52-1.4-3.38-.48-1.52-1.65-2.73-3.25-3.3-.69-.25-1.45-.38-2.26-.38-.41 0-.84.03-1.29.09-.84.12-1.68.39-2.51.77.2-1.41.22-2.7.04-3.9-.17-1.14-.42-1.96-.81-2.68-.87-1.56-2.46-2.5-4.24-2.5-.24 0-.49.02-.74.06-1.02.15-1.98.61-2.91 1.37-.55.44-1.1.97-1.62 1.59-.91-1.07-2.23-1.7-3.68-1.7-.25 0-.5.02-.75.05-1.01.15-1.97.61-2.91 1.37-1.29 1.03-2.49 2.5-3.67 4.51-.86 1.46-1.66 3.12-2.39 4.92-.32-.05-.64-.08-.98-.08-.36 0-.73.03-1.11.08-1.36.2-2.71.73-4.13 1.62-.32.2-.64.42-.96.66.13-.29.26-.57.37-.82l.19-.37c.37-.74.63-1.51.77-2.29.14-.81.14-1.68-.01-2.66-.49-3.31-2.89-4.15-3.62-4.32-.36-.09-.73-.14-1.1-.14-.72 0-2.46.2-3.82 1.94-.52-.74-1.22-1.41-2.18-1.86-.95-.45-2.05-.68-3.27-.68-.55 0-1.14.04-1.77.14-1.92.28-3.99.85-6.15 1.7-2.04.79-4.01 1.72-5.86 2.75-1.83 1.02-3.42 2.02-4.72 2.97-1.66 1.22-2.63 2.13-3.23 3.04-.62.93-1.04 2.08-1.28 3.52-.22 1.28-.24 2.42-.09 3.48.22 1.46.78 2.65 1.67 3.54.97.96 2.27 1.51 3.67 1.52l-.09.28c-.32 1.1-.41 2.18-.26 3.21.05.31.12.62.22.91-1.95.51-3.77 1.18-5.43 2-3.05 1.5-5.13 3.13-6.36 4.99-.83 1.22-1.4 2.73-1.72 4.5-.29 1.63-.32 3.26-.09 4.83.17 1.14.69 2.23 1.51 3.15.43.48.87.87 1.33 1.18-.85.21-1.7.55-2.52 1.03l-.08.05-.08.05c-1.37.88-2.41 2.21-3.09 3.95-.64 1.65-.85 2.9-.67 4.08.15 1.04 1.03 4.49 5.92 5.25.79.13 1.65.19 2.57.19 1.25 0 2.66-.12 4.2-.34 1.37-.2 2.81-.51 4.28-.91 1.48-.4 2.86-.86 4.11-1.37 1.32-.54 2.41-1.07 3.32-1.62l.08-.05c1.2-.77 2.25-1.69 3.12-2.75.08-.1.15-.2.23-.3l.06.04c1.12.82 2.41 1.26 3.73 1.26.3 0 .59-.02.88-.06.91-.14 1.7-.48 2.38-.93.94.53 1.97.76 2.9.76.32 0 .65-.02.97-.07 1.27-.19 2.46-.74 3.55-1.65.31-.25.62-.55.95-.87.99.59 1.95.76 2.71.76.25 0 .5-.02.75-.06.98-.15 1.87-.57 2.62-1.23.8.45 1.69.66 2.53.66.27 0 .54-.02.81-.06 1.16-.17 2.23-.68 3.19-1.52.95.67 2.05 1.02 3.21 1.02.28 0 .56-.02.84-.06 1.2-.18 2.38-.72 3.6-1.67.4-.31.82-.67 1.24-1.08 1.02.63 2 .81 2.78.81.25 0 .5-.02.75-.05.97-.15 1.87-.57 2.62-1.23.8.45 1.68.66 2.53.66.27 0 .54-.02.81-.06 1.16-.17 2.23-.68 3.19-1.52.95.67 2.05 1.02 3.22 1.02.27 0 .56-.02.84-.06 1.2-.18 2.38-.72 3.6-1.67.37-.29.76-.63 1.16-1.01 1.31.98 2.85 1.51 4.51 1.51.4 0 .81-.03 1.21-.09 2.23-.33 4.26-1.39 6.04-3.15.52-.52 1.04-1.09 1.55-1.71.14.18.29.35.45.51 1.17 1.2 2.69 1.86 4.29 1.86.29 0 .58-.02.87-.06 1.29-.19 2.53-.8 3.7-1.81.43-.38.86-.8 1.29-1.27.2.18.41.35.64.51 1.06.72 2.25 1.1 3.43 1.1.27 0 .55-.02.82-.06 1.52-.23 3.56-1.19 4.68-4.51.55-1.67.73-3.16.52-4.55-.03-.22-.08-.43-.13-.64l.1-.16c.47-.79 1.06-1.99.92-3.45l.41-.9c.54-1.16 1.06-2.28 1.57-3.36l2.34-4.92c1.04-2.19 1.8-3.76 2.27-4.72l1.31-2.71-2.09-2.17zm-50.022 15.852c-.276 0-.557.02-.836.06-1.454.216-2.82.94-4.168 2.215-.665-.25-1.378-.377-2.117-.377-.322 0-.65.024-.98.073-1.01.148-2.398.615-3.68 1.886-1.008-.85-2.056-1.127-2.91-1.17 1.145-.37 2.237-1.044 3.313-2.05 1.057.695 2.253 1.07 3.523 1.07.33 0 .65-.024.98-.07 1.8-.266 3.45-1.202 5.07-2.92 1.19.696 2.46 1.048 3.78 1.048.36 0 .73-.027 1.09-.08 2.16-.317 2.31.725 4.09-1.62-2.66 1.664.35 1.082.91-.68-.01.254 1.46 2.886 1.34.942-.08-1.355.83.517 1.9 1.188-.45.4-.89.84-1.31 1.31-1.16-1.057-2.4-1.324-3.34-1.324-.27 0-.53.023-.8.068-1.13.19-1.98.764-2.67 1.416-.93-.647-2-.985-3.15-.985zm-28.692 5.074c-.322 0-.652.02-.983.07-.54.08-1.19.25-1.87.59-.93-1.15-2.32-1.82-3.84-1.82-.26 0-.53.02-.8.06-.25.03-.53.1-.83.19l.14-.14c1.74-1.78 1.77-3.61 1.64-4.53-.06-.42-.17-.78-.31-1.11l.33-.01c.49 1.61 1.27 2.96 2.35 4.02 1.47 1.44 3.31 2.21 5.34 2.21.4 0 .81-.03 1.21-.09.44-.07.88-.17 1.3-.29-.51.32-1.02.72-1.52 1.2-.66-.25-1.38-.38-2.11-.38zM86.45 76.54c-.17-.105-.346-.208-.526-.31.23-.194.51-.41.835-.643.11-.085.24-.173.38-.26-.22.358-.42.7-.6 1.025l-.1.187zm6.177-7.04c.162.094.325.183.492.256-.21.04-.41.088-.6.14.04-.13.07-.262.1-.395zm4.33.323c.224-.08.45-.175.683-.284-.086.1-.185.22-.316.39-.116-.04-.243-.08-.367-.11zm18.997-3.273c-.276 0-.557.02-.836.06-.15.023-.298.054-.446.087.763-.432 1.49-.966 2.185-1.604 1.136.846 2.454 1.303 3.862 1.303l.1-.004c-.68.274-1.24.687-1.72 1.14-.93-.646-2.01-.984-3.15-.984z"/><circle fill="#FAAF40" cx="122.891" cy="125.608" r="69.388"/><path fill="#00A3DF" d="M124.018 191.3c30.044 0 54.934-22.06 59.36-50.863-6.482-.3-9.96-9.2-9.96-9.2-12.35 18.888-20.584 0-20.584 0-12.35 20.944-23.053 1.01-23.053 1.01-12.76 17.835-25.11 0-25.11 0-10.7 14.542-23.05-1.01-23.05-1.01-7.58 6.563-13.42 6.763-17.43 5.227 2.65 30.723 28.43 54.835 59.84 54.835z"/><circle fill="#FFD200" cx="92.347" cy="119.395" r="7.651"/><path fill="#1B75BB" d="M123.992 184.528c26.747 0 48.908-14.507 52.85-33.45-5.77-.197-8.868-6.05-8.868-6.05-10.995 12.42-18.326 0-18.326 0-10.994 13.774-20.525.664-20.525.664-11.36 11.73-22.357 0-22.357 0-9.528 9.563-20.524-.664-20.524-.664-6.75 4.315-11.95 4.446-15.518 3.438 2.356 20.205 25.303 36.062 53.268 36.062z"/><path fill="#FFF692" d="M83.278 50.003l-3.787 2.762c-.58.412-.99.634-1.2.665-.39.06-.7-.023-.92-.244-.22-.22-.37-.592-.44-1.114-.09-.598-.06-1.308.08-2.127.14-.82.35-1.44.63-1.857.29-.432 1.02-1.076 2.19-1.93 1.17-.856 2.6-1.75 4.28-2.69 1.68-.936 3.46-1.77 5.33-2.5s3.61-1.213 5.21-1.45c1.12-.165 1.97-.108 2.56.17.59.277.99 1.18 1.22 2.707.13.827-.02 1.79-.44 2.883-.41 1.096-.95 2.178-1.6 3.25s-1.88 2.982-3.67 5.73c1.12-.35 1.94-.586 2.47-.716.53-.13 1.51-.385 2.95-.766 1.34-2.693 2.42-4.845 3.25-6.456.83-1.61 1.54-2.95 2.12-4.018.58-1.068.93-1.682 1.05-1.843.21-.33.41-.48.59-.43.18.04.31.29.38.75.08.52.08.95.02 1.3-.06.34-.18.7-.36 1.05-.18.36-.27.55-.28.58-.25.59-.62 1.38-1.11 2.36-.49.97-.98 1.94-1.45 2.89-.47.95-1 2.08-1.59 3.37 1.44-.16 2.87-.18 4.3-.07l-2.75 5.16c-.96.01-2.22.13-3.79.36-.27.82-.47 1.46-.62 1.92-.14.46-.26.9-.35 1.31-.09.41-.11.78-.06 1.11.03.2.13.46.3.78.17.32.26.5.27.55.04.25-.11.55-.44.89-.33.34-.74.66-1.21.95-.47.29-.84.45-1.12.49-.47.07-.75-.25-.86-.96-.21-1.48.24-3.64 1.37-6.5-1.98.46-4.25 1.1-6.79 1.92-.61 1.1-1.15 2.14-1.63 3.12s-.87 1.8-1.17 2.47c-.3.66-.52 1.11-.68 1.34-.16.23-.34.36-.56.39-.37.06-.71-.06-1.01-.34-.13-.11-.22-.23-.27-.35-.05-.12-.09-.26-.11-.41-.02-.15-.04-.29-.06-.4-.02-.16.03-.39.15-.71.12-.32.43-.96.93-1.92s.85-1.69 1.08-2.18c-.32.09-.75.17-1.27.25-.66.1-1.22.06-1.66-.13-.45-.18-.7-.45-.75-.81-.06-.41-.02-.86.13-1.36s.37-.93.67-1.29c.3-.36.62-.57.96-.62.23-.03.51 0 .85.09l4.74-1.95c2.31-3.39 4.01-6.04 5.11-7.97 1.1-1.93 1.61-3.15 1.53-3.64-.04-.28-.15-.5-.33-.67-.18-.16-.41-.28-.7-.34-.28-.06-.61-.07-.96-.02-.42.06-1.07.27-1.94.64-.88.36-1.91.86-3.11 1.49-1.19.63-2.67 1.48-4.44 2.55-1.32.78-1.96 1.24-1.94 1.4.03.18.14.28.34.3.2.02.45.02.75 0s.46 0 .47.07c.01.05-.05.13-.19.24-.13.11-.31.25-.55.41zm25.93 7.865l.07.477c.11.75.382 1.31.813 1.675.44.366.95.504 1.55.416.63-.092 1.25-.333 1.88-.724.63-.39 1.23-.877 1.83-1.458.59-.582 1.31-1.35 2.14-2.305l.17 1.16c-1.18 1.94-2.33 3.47-3.46 4.57s-2.33 1.75-3.63 1.95c-1.13.16-2.09-.14-2.88-.93-.79-.78-1.3-1.94-1.52-3.46-.19-1.34-.06-2.6.4-3.78.47-1.18 1.31-2.48 2.55-3.9.85-.97 1.72-1.74 2.61-2.3.9-.56 1.72-.9 2.47-1.01.6-.08 1.09-.02 1.48.2.39.23.63.61.71 1.16.12.8-.06 1.64-.54 2.52-.48.88-1.28 1.81-2.39 2.77s-2.51 1.94-4.2 2.93zm.008-1.27c1.08-.613 1.98-1.31 2.696-2.093.717-.78 1.225-1.503 1.524-2.165.3-.662.428-1.133.387-1.413-.042-.292-.198-.42-.465-.38-.23.033-.58.235-1.053.604-.472.37-.938.83-1.396 1.38-.46.55-.86 1.17-1.18 1.87-.33.7-.5 1.43-.52 2.2z"/><path fill="#FFF692" d="M126.562 54.395l.208 1.413c-2.14 3.917-4.043 6-5.71 6.244-.903.133-1.686-.256-2.346-1.166-.66-.91-1.11-2.168-1.347-3.77-.19-1.3-.113-2.887.235-4.765s.897-3.81 1.65-5.8c.755-1.99 1.582-3.75 2.482-5.28.898-1.53 1.778-2.64 2.64-3.32.348-.28.628-.44.847-.47.27-.04.47.05.59.28.12.23.23.62.31 1.2.26 1.77-.14 4.05-1.19 6.84-1.06 2.79-2.67 5.72-4.85 8.78-.03.68-.02 1.2.04 1.56.12.81.39 1.45.82 1.91.43.46.95.64 1.58.55.32-.04.65-.22.98-.52.33-.3.68-.67 1.03-1.1.36-.42 1.04-1.27 2.07-2.54zM120.35 51.8c.564-.747 1.095-1.58 1.59-2.498.496-.917.947-1.888 1.357-2.91.408-1.022.712-1.932.914-2.73.21-.795.28-1.385.22-1.766-.04-.293-.16-.424-.37-.395-.07.02-.21.11-.41.28-.68.75-1.37 2.13-2.06 4.12-.69 2-1.1 3.97-1.23 5.91z"/><path fill="#FFF692" d="M135.517 53.077l.207 1.412c-2.14 3.91-4.045 5.99-5.71 6.24-.904.13-1.688-.26-2.348-1.17-.66-.91-1.11-2.17-1.346-3.77-.19-1.3-.113-2.89.234-4.77.348-1.88.897-3.81 1.652-5.8.754-1.99 1.58-3.75 2.48-5.28.897-1.53 1.78-2.64 2.64-3.33.348-.29.63-.45.846-.48.268-.04.463.05.588.27.124.22.227.62.312 1.19.26 1.77-.14 4.04-1.196 6.83-1.062 2.79-2.677 5.71-4.85 8.78-.03.68-.02 1.2.03 1.55.122.81.395 1.45.82 1.9.424.46.947.64 1.572.55.317-.05.644-.23.975-.53.334-.3.677-.67 1.03-1.1s1.04-1.27 2.064-2.54zm-6.214-2.596c.565-.74 1.096-1.57 1.59-2.49s.95-1.89 1.357-2.91.714-1.93.914-2.73c.202-.79.274-1.38.218-1.77-.042-.29-.166-.42-.368-.39-.078.01-.214.11-.41.28-.682.75-1.37 2.13-2.064 4.12-.696 2-1.11 3.97-1.237 5.91z"/><path fill="#FFF692" d="M147.645 51.465l.188 1.28c-.726.886-1.327 1.495-1.798 1.824-.474.33-1.188.53-2.15.62-1.366 2.2-2.68 3.4-3.94 3.58-.713.1-1.396-.04-2.052-.42-.653-.39-1.217-.96-1.687-1.72s-.78-1.65-.926-2.66c-.12-.82.016-1.76.41-2.83.395-1.07.96-2.1 1.69-3.09.732-.99 1.55-1.82 2.453-2.49.902-.67 1.773-1.07 2.612-1.2.6-.09 1.084-.07 1.453.07.373.13.582.36.63.69.037.25-.065.57-.31.94.5.03.854.15 1.068.36.21.21.364.62.456 1.25.09.61.062 1.4-.088 2.37-.15.97-.414 1.9-.79 2.79l.396.29.285-.04c.216-.03.422-.11.615-.25.195-.14.365-.28.514-.43.15-.15.473-.47.97-.97zm-4.672-4.44c-.963.79-1.78 1.5-2.457 2.126-.676.63-1.235 1.25-1.678 1.85-.443.61-.717 1.19-.815 1.75-.108 1.47-.152 2.27-.138 2.38.124.84.77 1.18 1.944 1 .54-.08 1.39-.68 2.53-1.82-.31-.56-.5-1.12-.58-1.67-.12-.8-.08-1.64.13-2.52.21-.88.55-1.91 1.05-3.09zm8.803 10.503c-.43-.093-.713-.168-.844-.227-.134-.05-.217-.2-.253-.45-.06-.34.08-.82.4-1.45.31-.62.69-1.19 1.14-1.69.44-.5.83-.77 1.14-.82.47-.07.75.18.83.76.09.65-.17 1.57-.78 2.76-.61 1.19-1.2 2.04-1.77 2.53-.38.35-.58.41-.61.21-.02-.09.01-.18.07-.27.05-.09.16-.27.31-.55s.26-.53.34-.78zM83.828 83.256c-.405-.538-.96-.997-1.666-1.374-.707-.376-1.478-.65-2.315-.82s-1.7-.26-2.585-.27c-2.626-.004-5.15-.485-7.565-1.442-.206-.073-.44-.26-.705-.56-.266-.3-.42-.6-.466-.906-.165-1.12-.143-2.27.067-3.453.21-1.18.56-2.13 1.052-2.85.786-1.19 2.346-2.36 4.68-3.52 2.333-1.15 5.033-1.95 8.1-2.4 1.834-.27 3.27-.34 4.31-.2 1.042.14 1.605.49 1.692 1.08.14.96.118 1.72-.066 2.28-.18.56-.41.95-.68 1.16-.27.22-.76.53-1.47.93-.76.4-1.41.8-1.96 1.19-.54.4-1.01.76-1.38 1.11-.38.34-.62.52-.72.54-.12.02-.19-.02-.21-.12-.03-.21.15-.57.54-1.08.39-.51.89-.97 1.5-1.4.65-.47.96-.76.95-.86-.02-.17-.42-.19-1.2-.08-2.35.35-4.5.88-6.43 1.59-1.94.72-3.43 1.5-4.48 2.36-1.05.86-1.53 1.64-1.42 2.35.07.45.35.73.85.84.51.12 1.61.27 3.3.46 1.69.2 3.22.48 4.59.85 1.96.52 3.45 1.14 4.47 1.86s1.6 1.61 1.76 2.67c.11.73.04 1.48-.2 2.27-.24.79-.66 1.53-1.24 2.24-.58.71-1.29 1.33-2.11 1.85-.7.43-1.6.87-2.7 1.32s-2.3.85-3.6 1.2-2.56.62-3.77.8c-2.23.33-4.05.38-5.46.16-1.42-.22-2.19-.75-2.31-1.61-.05-.38.09-1.01.43-1.88.34-.87.8-1.5 1.39-1.87.51-.29 1.02-.5 1.53-.6.5-.1.77-.08.79.07l-.04.13-.12.11-.14.1c-.24.14-.43.25-.58.33-.15.08-.27.16-.36.23-.08.07-.12.16-.1.26.04.27 1.37.21 4.01-.18 2.29-.33 4.15-.69 5.59-1.07 1.44-.38 2.69-.87 3.75-1.47s1.98-1.35 2.79-2.25zm14.224-3.928c-1.486 2.715-2.633 4.66-3.442 5.832-.81 1.172-1.52 1.804-2.13 1.894-.484.07-.96-.063-1.425-.405-.467-.34-.86-.84-1.184-1.49-.32-.65-.54-1.36-.65-2.14-.07-.51-.09-.98-.06-1.4.04-.42.15-.9.35-1.43.2-.53.47-1.11.83-1.75.36-.64.8-1.37 1.33-2.19.32-.5.58-.93.8-1.27.22-.35.44-.59.68-.74.23-.15.63-.26 1.19-.34.41-.06.81-.07 1.19-.01.39.05.59.13.61.25.03.23-.09.67-.38 1.32-.29.65-.78 1.47-1.49 2.45-.71.98-1.54 1.96-2.52 2.95-.13.78-.16 1.37-.11 1.77.09.54.34.79.76.73.16-.03.39-.19.71-.51.32-.31.85-.91 1.58-1.78.74-.87 1.4-1.64 1.99-2.31.44-.51.92-1.24 1.44-2.19.53-.96.97-1.68 1.31-2.18.8-1.13 1.35-1.87 1.65-2.22.29-.35.6-.55.92-.59.31-.05.53.02.67.19.14.18.25.56.33 1.14.04.27.05.49.02.66-.03.17-.1.4-.22.68-.12.29-.37.81-.75 1.58-.38.78-.83 1.69-1.35 2.74-.28.57-.51 1.17-.69 1.81-.18.65-.24 1.12-.2 1.43.1.66.41.95.93.87.43-.07.91-.32 1.43-.76.52-.44 1.3-1.21 2.35-2.32l.19 1.28c-1.28 1.59-2.24 2.75-2.86 3.48-.62.73-1.17 1.29-1.64 1.69-.47.4-.94.63-1.42.7-1.06.16-1.69-.4-1.88-1.67-.07-.48-.01-1.16.19-2.03.2-.87.54-2.13 1.03-3.79z"/><path fill="#FFF692" d="M113.405 81.065c1.527-1.812 2.837-3.386 3.928-4.724 1.09-1.33 1.945-2.39 2.567-3.15s1.172-1.42 1.654-1.96c.48-.54.795-.82.946-.84.292-.05.618.21.975.79.358.58.565 1.05.62 1.42.034.24-.286.87-.96 1.89-.678 1.02-1.177 1.82-1.5 2.42s-.438 1.19-.353 1.77c.05.34.206.6.466.78.26.18.547.24.868.2.368-.05.783-.31 1.242-.76.458-.46 1.17-1.26 2.133-2.4l.2 1.36c-.95 1.21-1.82 2.26-2.62 3.15-.79.89-1.49 1.57-2.1 2.05-.61.48-1.14.75-1.58.81-.39.06-.74-.04-1.06-.3-.31-.26-.5-.61-.56-1.06-.06-.43-.05-.88.04-1.35.09-.47.25-1.03.48-1.69.23-.66.54-1.45.94-2.39l1.08-2.57c-1.14 1.25-2.14 2.44-3 3.56-.86 1.13-1.56 2.11-2.08 2.93-.53.83-.95 1.48-1.25 1.95-.59.9-1.2 1.39-1.81 1.48-.66.1-1.06-.33-1.2-1.27-.05-.38.09-1.1.44-2.16s.88-2.42 1.57-4.08c.06-.11.08-.28.05-.49-.03-.25-.18-.36-.44-.32-.28.04-.64.36-1.09.97-.45.61-1.31 1.86-2.57 3.76-.35.53-.73 1.22-1.15 2.05-.41.84-.72 1.4-.91 1.69-.19.29-.41.45-.63.48-.46.07-.95-.27-1.46-1.03-.52-.75-.85-1.67-1.01-2.75-.12-.79-.09-1.49.09-2.1.17-.61.47-1.38.9-2.32.67-1.36 1.23-2.34 1.7-2.95.46-.61.99-.95 1.59-1.04.37-.05.69-.03.96.08.28.11.43.29.47.54.04.27-.13.74-.5 1.42-.37.68-.87 1.4-1.49 2.15-.32.43-.62.94-.88 1.53-.26.59-.38 1.01-.34 1.25.05.34.21.5.48.46.22-.03.7-.56 1.45-1.58s1.57-2.13 2.46-3.33c.9-1.21 1.74-2.22 2.54-3.05.8-.82 1.51-1.28 2.13-1.38.38-.06.72.04 1.01.29.29.25.47.58.53 1.01.05.28-.07.82-.35 1.6-.27.79-.69 1.77-1.27 2.96-.57 1.19-1.33 2.63-2.26 4.32z"/><path fill="#FFF692" d="M134.976 77.888c1.53-1.812 2.838-3.385 3.93-4.723 1.088-1.337 1.945-2.39 2.567-3.158s1.17-1.42 1.652-1.96c.48-.538.796-.818.947-.84.29-.057.616.204.974.783.36.578.565 1.05.62 1.42.034.24-.284.87-.962 1.887-.676 1.016-1.175 1.82-1.496 2.415-.324.594-.44 1.184-.354 1.768.05.344.206.604.467.78.26.176.55.24.87.193.37-.054.79-.31 1.24-.768.46-.458 1.17-1.258 2.14-2.4l.2 1.354c-.95 1.2-1.82 2.25-2.62 3.14-.79.89-1.49 1.57-2.1 2.04-.61.47-1.14.74-1.59.81-.39.06-.75-.05-1.06-.31-.31-.26-.5-.61-.56-1.06-.06-.43-.05-.88.04-1.35.09-.47.25-1.03.47-1.69.23-.66.54-1.46.94-2.39l1.08-2.57c-1.14 1.25-2.14 2.43-3 3.56-.86 1.13-1.56 2.1-2.08 2.93-.53.82-.94 1.47-1.25 1.95-.6.89-1.2 1.38-1.81 1.47-.66.09-1.06-.33-1.2-1.27-.05-.39.09-1.11.44-2.17s.88-2.42 1.57-4.09c.06-.11.08-.28.05-.5-.04-.26-.18-.36-.44-.33-.28.04-.64.37-1.09.97-.45.61-1.31 1.86-2.57 3.77-.35.53-.73 1.21-1.15 2.05-.42.83-.72 1.39-.91 1.68-.19.29-.4.45-.63.49-.46.07-.94-.28-1.46-1.03-.51-.75-.85-1.67-1.01-2.76-.11-.79-.08-1.49.09-2.1.18-.61.48-1.39.9-2.32.67-1.36 1.24-2.35 1.7-2.95.46-.61.99-.96 1.59-1.05.37-.05.69-.02.97.09s.43.29.47.54c.04.26-.13.74-.5 1.42-.37.68-.87 1.39-1.48 2.15-.33.42-.63.93-.89 1.52s-.38 1.01-.34 1.25c.05.34.21.49.48.45.22-.03.7-.56 1.45-1.58s1.57-2.13 2.46-3.33c.9-1.21 1.74-2.22 2.54-3.05.79-.83 1.5-1.29 2.12-1.38.39-.06.72.04 1.01.29.29.25.47.58.53 1 .04.28-.08.81-.35 1.6-.27.79-.7 1.77-1.27 2.96-.57 1.18-1.33 2.62-2.26 4.32z"/><path fill="#FFF692" d="M150.595 73.617l.072.478c.108.75.38 1.31.812 1.675.43.365.94.504 1.54.416.62-.092 1.24-.333 1.87-.725.62-.39 1.23-.87 1.82-1.45.59-.58 1.3-1.35 2.14-2.3l.17 1.17c-1.19 1.94-2.34 3.47-3.46 4.58-1.12 1.11-2.34 1.76-3.63 1.95-1.14.17-2.1-.14-2.89-.92s-1.3-1.93-1.53-3.46c-.2-1.33-.07-2.59.4-3.77.46-1.18 1.31-2.48 2.54-3.89.84-.97 1.71-1.73 2.6-2.29.89-.56 1.72-.89 2.47-1 .6-.09 1.09-.02 1.48.2.39.22.62.61.7 1.16.12.8-.07 1.65-.55 2.53-.48.88-1.28 1.81-2.39 2.77s-2.51 1.94-4.2 2.93zm.01-1.268c1.08-.62 1.977-1.32 2.694-2.1.71-.78 1.22-1.51 1.52-2.17.3-.67.43-1.14.39-1.42-.05-.3-.2-.42-.47-.38-.23.03-.58.23-1.06.6s-.94.83-1.4 1.37c-.46.55-.85 1.17-1.18 1.87-.33.7-.5 1.43-.52 2.2zm8.278.84l-.184-1.24c.56-.92.98-1.69 1.25-2.31-.43-.08-.75-.21-.97-.39-.22-.18-.35-.47-.41-.88-.07-.46.03-1.07.31-1.82.27-.76.65-1.48 1.12-2.18.47-.7.92-1.17 1.35-1.41.16-.12.33-.19.49-.21.25-.04.4.06.44.3.03.22-.1.69-.4 1.4 2.56-.79 4.18-1.24 4.87-1.34.26-.04.45-.04.56-.01.23.08.45.32.65.72.2.4.33.81.39 1.23.04.27-.03.57-.22.92-.19.35-.53.86-1.02 1.54-.57.82-1.02 1.7-1.35 2.62-.33.92-.47 1.6-.4 2.03.09.6.5.84 1.24.73.77-.12 2.01-1.11 3.7-2.97l.18 1.28c-.9 1.27-1.64 2.27-2.23 3-.6.74-1.16 1.34-1.69 1.8-.53.46-1.03.73-1.48.8-.54.08-1.02-.1-1.45-.54-.43-.44-.71-1.13-.85-2.05-.08-.55-.03-1.2.14-1.94.18-.74.47-1.56.89-2.46.42-.9.91-1.81 1.46-2.72-.35.12-.74.26-1.17.41l-1.37.46c-.49.16-.86.29-1.12.38-.56 1.69-1.49 3.29-2.8 4.8zm16.127 2.11c-.38.05-.78-.06-1.2-.34-.42-.28-.673-.73-.763-1.34-.118-.8-.045-1.74.22-2.8.27-1.07.622-1.64 1.068-1.7.278-.04.578.01.894.17.31.15.6.39.85.72.25.32.41.7.48 1.13.1.7-.01 1.55-.35 2.55-.34 1-.74 1.53-1.21 1.6zm5.85-25.71c.256-.12.483-.19.69-.22.418-.07.9 0 1.44.19.543.19 1.02.5 1.437.94-.47.96-1.23 2.54-2.277 4.74-1.048 2.19-1.83 3.83-2.345 4.93-.516 1.09-1.045 2.22-1.588 3.39-.542 1.17-.947 2.08-1.22 2.71.25.01.394.14.428.38.023.15-.088.44-.333.85-.244.41-.488.64-.73.67-.278.04-.673-.16-1.18-.61-.508-.45-.79-.85-.843-1.22-.03-.18.02-.5.15-.96.13-.46.38-1.17.75-2.11.37-.95.78-1.99 1.24-3.14l1.69-4.23c1.3-3.25 2.19-5.36 2.67-6.34z"/><path fill-rule="evenodd" clip-rule="evenodd" fill="#EF4B4D" d="M110.37 166.284s6.845 5.17 13.997 0l-2.006-4.45-5.71.67-3.29 2.007-2.98 1.78z"/><path fill="#FFF" d="M152.306 96.742s6.136-15.29 26.32-13.205c1.132.117 1.52-.035 3.36-.44 0 0 1.92-7.94 10.18-4.216 0 0 1.738 4.16-5.336 2.07 0 0-1.726-.74-1.565 4.18 0 0 5.278-5.63 10.808 2.95 0 0-3.373 3.92-5.898-1.11 0 0-2.203.44-5.49 1.51 0 0-2.553 4.24 2.407 3.99 0 0 1.84 2.35-2.445 3.37 0 0-2.47.11-3.946-6.21 0 0-1.82-.2-3.24-1.28 0 0-13.94-1.47-23.18 11.87"/><path fill="#E6E7E8" d="M169.076 83.905l-.628 5.612-2.866.997-5.74-2.687s3.96-3.024 9.234-3.922z"/><path fill="#FFF" d="M137.73 142.05s15.867 10.49 10.525 26.524c0 0 24.285-11.236 26.485-3.492 0 0-1.5 3.264-3.55 1.547 0 0 .618 3.43-3.555 1.33 0 0-.208 4-3.836 1.67l-22.29 4.27s-1.49-.44 1.8-3.61c0 0 8.27-12.31-8.76-25.12-17.03-12.82 3.17-3.13 3.17-3.13z"/><path fill="#D0D1D2" d="M167.322 167.227s-2.165-3.08-6.05.788c0 0 3.824-5.15 6.05-.788zm3.324-1.447s-1.555-2.88-2.92-1.12c0 0 1.184-.953 2.92 1.12z"/><path fill="#FFF" d="M77.012 142.462l.314-.86c.212-.573.498-1.346.898-2.372.396-1.017.886-2.244 1.49-3.62.604-1.37 1.316-2.9 2.188-4.438.435-.765.915-1.53 1.433-2.222.26-.34.53-.67.797-.935.263-.267.53-.483.72-.592.2-.11.263-.114.223-.11-.038-.013.007-.022.203.103.398.274 1.006 1.05 1.5 1.935 1.026 1.81 1.884 4.07 2.693 6.37.81 2.32 1.57 4.74 2.35 7.18.78 2.44 1.58 4.9 2.49 7.32.93 2.43 1.92 4.82 3.42 7.11.39.57.81 1.14 1.32 1.68s1.09 1.08 1.83 1.52c.73.44 1.63.78 2.58.86.95.08 1.86-.11 2.61-.4 1.51-.61 2.5-1.5 3.36-2.34.84-.86 1.52-1.72 2.12-2.56 1.21-1.68 2.1-3.27 2.87-4.68.77-1.42 1.37-2.66 1.86-3.69s.86-1.84 1.1-2.4l.38-.85c.46-1.04-.01-2.26-1.05-2.72-1.03-.45-2.24 0-2.71 1.02l-.01.03-.38.82c-.24.54-.61 1.32-1.09 2.29-.48.98-1.07 2.16-1.81 3.48-.73 1.3-1.59 2.76-2.64 4.18-.53.7-1.1 1.4-1.71 2.01-.61.6-1.3 1.11-1.84 1.3-.56.18-.77.16-1.29-.14-.51-.31-1.14-1.02-1.68-1.87-1.11-1.73-2.02-3.94-2.84-6.22-.82-2.29-1.56-4.7-2.3-7.13-.74-2.43-1.47-4.89-2.27-7.33-.82-2.44-1.66-4.85-2.95-7.23-.33-.59-.7-1.19-1.14-1.79-.45-.59-.98-1.2-1.71-1.75-.39-.27-.8-.54-1.3-.74-.5-.2-1.06-.34-1.64-.36-1.17-.08-2.2.31-2.95.72-.77.43-1.33.92-1.83 1.39-.5.48-.9.96-1.27 1.44-.74.95-1.32 1.87-1.85 2.76-1.04 1.78-1.83 3.42-2.5 4.88-.67 1.47-1.2 2.75-1.63 3.81-.43 1.05-.76 1.92-.97 2.46l-.33.86c-.53 1.39.16 2.94 1.55 3.47 1.38.53 2.94-.16 3.47-1.54l.01-.04z"/><path fill="#FFF" d="M146.18 110.367l-12.17 22.488s10.498 13.486-.522 21.557c-10.923 7.998-27.717 1.897-29.354-17.026-1.782-20.594 2.856-28.207 17.12-49.893"/><path fill="#D0D1D2" d="M122.615 115.008l11.844 9.37-3.74 7.662s5.48 7.822 5.53 12.97l-16.29 3.096-1.07-17.558 3.71-15.54zm49.39-19.655s10.81-2.796 3.58 7.537l-1.44-1.698-2.14-5.84z"/><path fill="#D0D1D2" d="M171.73 95.3s10.807-2.795 3.58 7.54l-1.442-1.7-2.14-5.84zm-42.952-7.765s-5.188-5.06-9.618-3.32c0 0-5.94 3.333-.226 11.73l1.35 2.227s1.508-.72 1.645-2.882c0 0-6.42-10.807 4.4-5.574 0 0 1.86.222 2.44-2.18z"/><path fill="#0B8ECC" d="M152.69 114.238s-.824-2.936-3.49 1.485l2.515 3.116 3.038-1.86s-.866-4.72-2.062-2.75z"/><path fill="#FFF" d="M149.81 115.793l1.085 1.332s.005-1.65-1.085-1.332zm3.346 1.767l1.043-.566s-.61-.452-1.05.565z"/><path fill="#919396" d="M126.077 88.668c.007-.007-4.654 4.655-5.01 6.403l-.584-1.55s-4.586-10.36 5.594-4.84z"/><path fill="#D0D1D2" d="M129.056 87.59s-5.19-5.06-9.62-3.32c0 0-5.94 3.332-.224 11.728l1.35 2.228s1.507-.72 1.645-2.883c0 0-6.42-10.807 4.408-5.574 0 0 1.867.22 2.44-2.18z"/><path fill="#FFF" d="M119.265 150.714s5.534 18.198-8.805 27.144c0 0 25.87 6.832 22.628 14.2 0 0-3.235 1.56-3.72-1.072 0 0-1.712 3.036-3.588-1.242 0 0-2.716 2.955-4.023-1.158l-19.892-10.92s-.87-1.29 3.69-1.636c0 0 14.22-4.204 9.276-24.932-4.94-20.728 4.44-.384 4.44-.384z"/><path fill="#D0D1D2" d="M126.004 188.98s.298-3.756-5.163-3.254c0 0 6.23-1.526 5.17 3.253zm3.482 1.002s.64-3.21-1.533-2.725c0 0 1.518.022 1.533 2.725z"/><path fill="#6D6F71" d="M151.985 118.09l-.348 2.708-.4-.114.407-2.693m6.356 2.28s-3.19 4.37-6.3.05l-.462.38s4.317 5.13 7.197-.29l-.434-.12z"/><path fill="#BE202E" d="M143.18 118.14s.748 9.397 7.863 6.76c0 0 .726-2.185 3.15-2.303 0 0-1.725-.654-2.557-1.798 0 0-7.445 3.49-8.114-2.66"/><path fill="#6D6F71" d="M151.395 120.14s-6.363 4.296-7.872-2h-.342s.48 6.587 8.46 2.66l-.24-.66z"/><path fill="#6D6F71" d="M144.406 118.126s-1.983-1.767-1.97.728c.002 0-.41-3.15 1.97-.728zm8.216 6.25s.992 1.82-4.72 1.8c0 0 6.512 1.406 4.72-1.8zm-.637-6.286l-.348 2.708-.4-.114.407-2.693"/><path fill="#0B8ECC" d="M152.69 114.238s-.824-2.936-3.49 1.485l2.515 3.116 3.038-1.86s-.866-4.72-2.062-2.75z"/><path fill="#FFF" d="M149.81 115.793l1.085 1.332s.005-1.65-1.085-1.332zm3.346 1.767l1.043-.566s-.61-.452-1.05.565z"/><path fill="#6D6F71" d="M158 120.262s-3.19 4.366-6.3.045l-.462.376s4.317 5.123 7.197-.296l-.434-.125z"/><path fill="#BE202E" d="M143.18 118.14s.748 9.397 7.863 6.76c0 0 .726-2.185 3.15-2.303 0 0-1.725-.654-2.557-1.798 0 0-7.445 3.49-8.114-2.66"/><path fill="#6D6F71" d="M151.395 120.14s-6.363 4.296-7.872-2h-.342s.48 6.587 8.46 2.66l-.24-.66z"/><path fill="#6D6F71" d="M144.406 118.126s-1.983-1.767-1.97.728c.002 0-.41-3.15 1.97-.728zm8.216 6.25s.992 1.82-4.72 1.8c0 0 6.512 1.406 4.72-1.8z"/><path fill="#E6E7E8" d="M104.333 121.753l9.992-6-1.44-15.175-4.574 8.424c.01 0-3.44 6.767-3.97 12.75z"/><path fill="#FFF" d="M115.115 116.846c-11.01-15.897-27.627-14.143-27.627-14.143-1.69 1.288-3.87 1.533-3.87 1.533-1.76 7.527-4.703 7.4-4.703 7.4-5.103-1.218-2.913-4.012-2.913-4.012 5.912.294 2.87-4.757 2.87-4.757-3.92-1.27-6.545-1.792-6.545-1.792-3.01 5.987-7.03 1.32-7.03 1.32 6.587-10.22 12.88-3.507 12.88-3.507.19-5.866-1.866-4.98-1.866-4.98-8.43 2.494-6.36-2.46-6.36-2.46 9.85-4.44 12.14 5.025 12.14 5.025 2.19.482 2.66.664 4.01.524 24.06-2.486 31.37 15.738 31.37 15.738"/><path fill-rule="evenodd" clip-rule="evenodd" fill="#FFF" d="M114.384 212.12l-19.526-6.982-.212-.15c-.21-.21-.284-.554-.358-.81-.333-1.2-.452-2.432-.376-3.663.165-2.822 1.246-5.644 2.853-8.18.45-.705.96-1.397 1.515-2.072 1.593-1.907 3.558-3.633 5.81-5.09 2.596-1.695 5.464-3.12 8.496-4.292.84-.33 1.696-.63 2.55-.91 2.93-.97 6.007-1.75 9.1-2.34 4.5-.87 12.247-1.62 14.74 2.39.48.78.584 1.74.54 2.6 4.998-1.14 9.62-2.41 14.98-2.41 4.625-.13 12.385 1 6.275 4.99 5.93.86 15.74 0 20.54 2.97 3.7 2.42-.73 4.7-4.25 4.7 2.77.71 13.5 2.84 14.24 5.69.56 2.55-6.65 1.16-8.87 1.02-3.4-.06-9.84-2.61-9.68-2.67.18-.06-11.27-.1-11.3-.34-.1-.49-4.28.75-5.46.98-.37.08-1.29 1.02-1.68 1.11l-4.41.69c-4.83-2.98-5.19-4.65-10.57-4.24-4.29-.54-8.78 0-13.03 1.65-4.68 1.83-15.76 15.57-15.49 16.22"/><path fill="#1D76BB" d="M125.39 194.84c5.9-1.98 11.98-2.64 18.162-1.59 3.634.6 6.338 5.75 10.223 3.227 5.076-3.302 13.42-2.056 19.156-1.68 4.06.285 8.24 2.596 12.52 2.986 1.19.105 6.67 1.74.59-.314-1.21-.46-2.46-.85-3.7-1.18-1.99-.53-3.99-1.01-6.01-1.49-2.02-.5-1.6-3.78.37-4.02 6.95-.83-6.26-2.92-7.7-2.99-2.8-.12-5.6-.24-8.4-.56-1.75-.2-2.58-2.51-1.15-3.67-.79-1.14-1.89-1.58-3.27-1.31-2.5-.08-4.98.09-7.44.5-2.96.55-5.88 1.21-8.83 1.89-1.14.27-2.19-.63-2.41-1.7-1.84-8.8-22.48-1.06-26.22.72-3.49 1.66-7.22 3.45-9.89 6.33-1.86 1.99-8.36 11.28-5.28 13.4.6.42.96 1.17.89 1.9-.61 5.45-5.33 9.97-5 6.97.21-1.88.44-3.77.65-5.66.27-2.39-.34-.77.86.06-5.19-3.57.68-15.01 3.48-18.03 7.16-7.69 40.88-24.41 44.65-6.43-.81-.58-1.62-1.13-2.42-1.7 6.15-1.43 17.6-5.1 23.7-1.13 3.56 2.31 2.03 5.09-.72 7.34-.39-1.23-.78-2.45-1.15-3.68 5.81.66 17.45-1.11 21.92 3.7 4.31 4.64-.73 7.53-5.48 8.1l.36-4.03c1.86.45 21.06 4.67 14.67 10.12-2.59 2.2-7.25.93-10.22.63-2.58-.26-5.1-.86-7.55-1.73-.34-.14-3.62-.98-2.36-.96-3.68-.08-7.43.1-11.1-.33-3.23-.38-6.95 2.28-10.25 2.67-1.98.24-2.61-.38-4.39-1.64-3.16-2.25-6.26-2.79-10.07-2.7-12.71.33-22.98 1.86-11.12-2.1z"/><path fill="#92BDDE" d="M156.91 182.2c-.247 0-.5.025-.764.076-.392-.012-.78-.018-1.173-.018-2.108 0-4.196.17-6.27.514-2.96.556-5.888 1.216-8.83 1.892-.136.032-.277.048-.41.048-.974 0-1.808-.81-2.006-1.744-.04-.186-.085-.36-.14-.53l-39.7 12.852c-1.09 1.86-2.03 3.858-2.297 5.457l64.074-17.14.025-.025c-.65-.922-1.49-1.383-2.51-1.383"/><path fill="#1D76BB" d="M61.618 207.498l.007.01-.007-.01m-.35-.44l-.005.003c.096.13.2.26.31.39-.11-.12-.21-.25-.305-.38m36.35-11.77l-5.27 1.7c-.56 1.63-.935 3.29-.97 4.81l3.94-1.05c.27-1.6 1.21-3.59 2.298-5.45m57.815-17.65c-1.36 0-2.78.12-4.2.3l-13.91 4.51c.06.17.1.35.14.53.2.94 1.03 1.75 2.01 1.75.14 0 .28-.01.41-.04 2.94-.68 5.87-1.34 8.83-1.89 2.08-.34 4.16-.52 6.27-.52.39 0 .78.01 1.18.02.27-.05.52-.07.77-.07 1.03 0 1.87.46 2.52 1.38l-.02.03 5.52-1.48c-.12-.93-.74-1.85-2.05-2.7-2.02-1.31-4.62-1.79-7.43-1.79"/><path fill-rule="evenodd" clip-rule="evenodd" fill="#B9E5FA" d="M93.917 200.518c.166-2.828 1.234-5.644 2.85-8.18.454-.714.956-1.404 1.512-2.072 1.59-1.907 3.56-3.63 5.81-5.093 2.59-1.69 5.45-3.12 8.48-4.296.84-.324 1.69-.63 2.56-.92 2.92-.968 6-1.74 9.09-2.335 4.51-.874 12.25-1.623 14.74 2.383.48.783.59 1.746.54 2.604 4.99-1.14 9.61-2.42 14.98-2.42 4.62-.15 12.39.99 6.28 4.97 5.92.85 15.72 0 20.52 2.98 3.7 2.41-.74 4.69-4.26 4.69 2.77.71 13.5 2.84 14.24 5.68.55 2.56-6.1 2.27-8.32 2.13-3.42-.07-6.77-.66-10.1-1.23-4.23-.73-8.46-1.4-12.82-1.07-1.22.09-2.42.25-3.61.47-3.05.58-6.35 1.57-7.95 3.81-.4.55-.69 1.22-.8 1.85-.25 1.5.06 3.15 1.12 4.45.71.87 1.64 1.66 2.72 2.27 2.47 1.38 3.52 3.28 6.47 3.77 4.11.68-63.16-9.85-63.16-9.85l-.21-.15c-.22-.22-.29-.57-.36-.82-.34-1.19-.45-2.43-.38-3.66z"/><path fill="#0E4F82" d="M108.292 208.426l16.403 6.708h46.172c-3.16-.138-6.31-.413-9.398-.925-2.82-.47-5.61-1.18-7.95-2.49-1.04-.58-1.92-1.33-2.59-2.16-1.01-1.23-1.3-2.8-1.07-4.23.1-.6.37-1.24.75-1.77 1.52-2.13 4.66-3.07 7.56-3.62 1.13-.22 2.27-.37 3.43-.46 4.14-.31 8.15.33 12.17 1.01 3.15.54 6.34 1.11 9.59 1.17 2.1.13 8.44.4 7.91-2.03-.71-2.7-10.9-4.72-13.54-5.4 3.34 0 7.55-2.16 4.04-4.46-4.57-2.84-13.88-2.03-19.51-2.84 5.8-3.78-1.59-4.86-5.98-4.73-5.09 0-9.49 1.21-14.23 2.3.04-.82-.06-1.73-.52-2.48-2.36-3.81-9.72-3.1-14.01-2.27-1.53.3-3.06.64-4.56 1.03-16.81 10.93-17.93 21.64-14.71 27.6z"/><path fill="#E6E7E8" d="M108.004 153.524l3.923 1.926 1.548-2.47-3.216-2.953"/><path fill-rule="evenodd" clip-rule="evenodd" fill="#B9E5FA" d="M140.33 202.07c-1.01 4.845 2.762 7.922 9.606 11.634 0 0-6.554-4.236-5.358-10.612.54-2.857 3.718-5.846 11.626-6.327 0 0-14.195-2.773-15.874 5.306z"/><path fill-rule="evenodd" clip-rule="evenodd" fill="#B9E5FA" d="M130.03 199.433c-1.166 5.945 3.202 9.718 11.138 14.27 0 0-7.6-5.194-6.21-13.017.62-3.508 4.31-7.174 13.472-7.76 0 0-16.45-3.402-18.4 6.507z"/><path fill-rule="evenodd" clip-rule="evenodd" fill="#B9E5FA" d="M118.36 196.564c-1.373 7.14 3.756 11.668 13.073 17.14 0 0-8.92-6.24-7.287-15.634.73-4.217 5.06-8.618 15.812-9.323 0 0-19.31-4.085-21.597 7.817z"/><path fill-rule="evenodd" clip-rule="evenodd" fill="#F47F38" d="M110.37 166.284s7.102-4.555 13.997 0c0 0 .05-4.324-2.008-8.103 0 0 12.89 3.55 15.95-8.95 0 0 3.8 3.71 1.72 7.41 0 0 8.27 2.57 9.16-3.6 0 0-3.12-8.13-10.43-11.63l-.52-1.64-.76-.32s-.89 6.66-32.18 4.16l-.83.59 1.23.72s.41 3.91 3.7 6.49c0 0 2.11 2.93 4.63 4.06 0 0-.46 8.7-3.71 10.83z"/><path fill-rule="evenodd" clip-rule="evenodd" fill="#90278E" d="M106.383 145.01s6.02.616 13.584 0v.616s-4.546.898-13.584 0v-.617z"/><path fill-rule="evenodd" clip-rule="evenodd" fill="#652D90" d="M120.84 145.01v.508s5.682.108 9.003-1.203c0 0-4.038 1.312-3.717 3.086 0 0 2.255 4.17 4.57-2.39 0 0 1.62 5.02-.464 8.57h.772s2.898-3.39.29-9.26h-.832s-2.486 6.64-3.404 2.4c0 0 3.794-3.46 5.335-3.2 0 0-7.823 1.89-11.552 1.5z"/><path fill-rule="evenodd" clip-rule="evenodd" fill="#652D90" d="M131.88 144.39s3.087 3.067 2.52 7.565l.567-.206s2.162-3.09-2.573-7.21c0 0 6.103 4.52 1.276-.83h-1s4.2-1.08 5.178-2.32v-.92s-2.933 2.61-6.637 2.99l2.16.77s3.92 3-1.49.12z"/><path fill-rule="evenodd" clip-rule="evenodd" fill="#D0E296" d="M108.312 148.173l4.862-.463-2.43 2.777m.658 3.09l2.39-2.703-.618 4.093s-.92-.156-1.772-1.39zm4.834-4.477l-1.01 3.82 3.48-1.91m-3.48 4.93l3.48-1.567-3.48 3.91m-1.806 1.867l3.546-.53-4.08 2.55m6.54-3.887l-2.46 3.103 3.875-1.55m.65-6.916l-2.58 3.302 4.58-1.652m-6.51-7.3h3.88v3.217m2.95 7.18l1.19-3.91.63 4.254s-.44.38-1.81-.34zm-1.06-6.657l3.41-1.91.5 1.91m10.37-7.52l-.74 1.52 3.7.508m.86-2.952l.95 3.656 1.4-1.828s-1.16-1.116-2.34-1.828zm0 5.144l3.59 1.17-2.42 1.607m4.44-2.382l-.5 3.85 1.77-1.9m-5.08 1.9l.8.65 1.2.97-2.28 2.357m-21.14 8.848l.78-2.945.4 3.373m25.33-12.346l-2.48 2.105 2.7-1.052m-9.59-4.687l.77-1.957v2.87"/><path fill="#0E4F82" d="M101.398 204.906c-.543-10.752 10.27-18.726 18.202-23.1-.226.073-.46.14-.685.215-.82.28-1.63.56-2.43.87-2.887 1.12-5.6 2.48-8.07 4.09-2.133 1.39-4.013 3.03-5.525 4.84-.528.64-1.005 1.29-1.44 1.97-1.53 2.41-2.547 5.09-2.707 7.78-.017.29-.022.58-.018.87.815.98 1.75 1.8 2.673 2.49zm-2.295.128c.068.24.134.578.34.78l.198.134-1.03 9.186h7.06c-1.18-1.418-2.21-3.032-3.07-4.862-.72-1.856-1.1-3.646-1.18-5.365-.92-.687-1.86-1.516-2.67-2.487.02.882.13 1.758.38 2.614zm11.267 6.11c1.732 1.616 3.99 2.926 6.62 3.99h7.706l-16.403-6.708c.575 1.067 1.29 1.98 2.078 2.717z"/><path fill="#B9E5FA" d="M127.712 177.986s-3.586 1.324-8.112 3.82c1.114-.355 2.244-.686 3.393-.983 1.455-.945 3.023-1.892 4.72-2.837z"/><path fill="#B9E5FA" d="M101.398 204.906c2.362 1.758 4.65 2.6 4.65 2.6l2.244.92c-3.22-5.96-2.108-16.678 14.7-27.603-1.148.298-2.278.628-3.392.983-7.93 4.375-18.745 12.348-18.202 23.1z"/><path fill="#B9E5FA" d="M110.37 211.143c-.787-.736-1.5-1.65-2.078-2.717l-2.245-.92s-2.287-.842-4.65-2.6c.088 1.72.462 3.51 1.19 5.365.86 1.83 1.892 3.45 3.07 4.87h11.332c-2.64-1.06-4.89-2.37-6.62-3.99z"/><path fill="#0E4F82" d="M97.455 202.946l2.47-1.145 1.474 1.57s-.73 4.78 3.17 10.34l-6.81-.2-1.96-7.05 1.64-3.5zm23.743 10.758l-11.712-3.507s-1.47-2.14-1.785-3.05c-.31-.908 7.31.808 7.31.808l6.69 3.188-.49 2.56z"/><path fill-rule="evenodd" clip-rule="evenodd" fill="#EF4B4D" d="M110.37 166.284s6.845 5.17 13.997 0l-2.006-4.45-5.71.67-3.29 2.007-2.98 1.78z"/><path fill="#FFF" d="M152.306 96.742s6.136-15.29 26.32-13.205c1.132.117 1.52-.035 3.36-.44 0 0 1.92-7.94 10.18-4.216 0 0 1.738 4.16-5.336 2.07 0 0-1.726-.74-1.565 4.18 0 0 5.278-5.63 10.808 2.95 0 0-3.373 3.92-5.898-1.11 0 0-2.203.44-5.49 1.51 0 0-2.553 4.24 2.407 3.99 0 0 1.84 2.35-2.445 3.37 0 0-2.47.11-3.946-6.21 0 0-1.82-.2-3.24-1.28 0 0-13.94-1.47-23.18 11.87"/><path fill="#E6E7E8" d="M169.076 83.905l-.628 5.612-2.866.997-5.74-2.687s3.96-3.024 9.234-3.922z"/><path fill="#FFF" d="M137.73 142.05s15.867 10.49 10.525 26.524c0 0 24.285-11.236 26.485-3.492 0 0-1.5 3.264-3.55 1.547 0 0 .618 3.43-3.555 1.33 0 0-.208 4-3.836 1.67l-22.29 4.27s-1.49-.44 1.8-3.61c0 0 8.27-12.31-8.76-25.12-17.03-12.82 3.17-3.13 3.17-3.13z"/><path fill="#D0D1D2" d="M167.322 167.227s-2.165-3.08-6.05.788c0 0 3.824-5.15 6.05-.788zm3.324-1.447s-1.555-2.88-2.92-1.12c0 0 1.184-.953 2.92 1.12z"/><path fill="#FFF" d="M77.012 142.462l.314-.86c.212-.573.498-1.346.898-2.372.396-1.017.886-2.244 1.49-3.62.604-1.37 1.316-2.9 2.188-4.438.435-.765.915-1.53 1.433-2.222.26-.34.53-.67.797-.935.263-.267.53-.483.72-.592.2-.11.263-.114.223-.11-.038-.013.007-.022.203.103.398.274 1.006 1.05 1.5 1.935 1.026 1.81 1.884 4.07 2.693 6.37.81 2.32 1.57 4.74 2.35 7.18.78 2.44 1.58 4.9 2.49 7.32.93 2.43 1.92 4.82 3.42 7.11.39.57.81 1.14 1.32 1.68s1.09 1.08 1.83 1.52c.73.44 1.63.78 2.58.86.95.08 1.86-.11 2.61-.4 1.51-.61 2.5-1.5 3.36-2.34.84-.86 1.52-1.72 2.12-2.56 1.21-1.68 2.1-3.27 2.87-4.68.77-1.42 1.37-2.66 1.86-3.69s.86-1.84 1.1-2.4l.38-.85c.46-1.04-.01-2.26-1.05-2.72-1.03-.45-2.24 0-2.71 1.02l-.01.03-.38.82c-.24.54-.61 1.32-1.09 2.29-.48.98-1.07 2.16-1.81 3.48-.73 1.3-1.59 2.76-2.64 4.18-.53.7-1.1 1.4-1.71 2.01-.61.6-1.3 1.11-1.84 1.3-.56.18-.77.16-1.29-.14-.51-.31-1.14-1.02-1.68-1.87-1.11-1.73-2.02-3.94-2.84-6.22-.82-2.29-1.56-4.7-2.3-7.13-.74-2.43-1.47-4.89-2.27-7.33-.82-2.44-1.66-4.85-2.95-7.23-.33-.59-.7-1.19-1.14-1.79-.45-.59-.98-1.2-1.71-1.75-.39-.27-.8-.54-1.3-.74-.5-.2-1.06-.34-1.64-.36-1.17-.08-2.2.31-2.95.72-.77.43-1.33.92-1.83 1.39-.5.48-.9.96-1.27 1.44-.74.95-1.32 1.87-1.85 2.76-1.04 1.78-1.83 3.42-2.5 4.88-.67 1.47-1.2 2.75-1.63 3.81-.43 1.05-.76 1.92-.97 2.46l-.33.86c-.53 1.39.16 2.94 1.55 3.47 1.38.53 2.94-.16 3.47-1.54l.01-.04z"/><path fill="#D0D1D2" d="M122.615 115.008l11.844 9.37-3.74 7.662s5.48 7.822 5.53 12.97l-16.29 3.096-1.07-17.558 3.71-15.54zm49.39-19.655s10.81-2.796 3.58 7.537l-1.44-1.698-2.14-5.84z"/><path fill="#D0D1D2" d="M171.73 95.3s10.807-2.795 3.58 7.54l-1.442-1.7-2.14-5.84zm-42.952-7.765s-5.188-5.06-9.618-3.32c0 0-5.94 3.333-.226 11.73l1.35 2.227s1.508-.72 1.645-2.882c0 0-6.42-10.807 4.4-5.574 0 0 1.86.222 2.44-2.18z"/><path fill="#0B8ECC" d="M152.69 114.238s-.824-2.936-3.49 1.485l2.515 3.116 3.038-1.86s-.866-4.72-2.062-2.75z"/><path fill="#FFF" d="M149.81 115.793l1.085 1.332s.005-1.65-1.085-1.332zm3.346 1.767l1.043-.566s-.61-.452-1.05.565z"/><path fill="#919396" d="M126.077 88.668c.007-.007-4.654 4.655-5.01 6.403l-.584-1.55s-4.586-10.36 5.594-4.84z"/><path fill="#D0D1D2" d="M129.056 87.59s-5.19-5.06-9.62-3.32c0 0-5.94 3.332-.224 11.728l1.35 2.228s1.507-.72 1.645-2.883c0 0-6.42-10.807 4.408-5.574 0 0 1.867.22 2.44-2.18z"/><path fill="#FFF" d="M119.265 150.714s5.534 18.198-8.805 27.144c0 0 25.87 6.832 22.628 14.2 0 0-3.235 1.56-3.72-1.072 0 0-1.712 3.036-3.588-1.242 0 0-2.716 2.955-4.023-1.158l-19.892-10.92s-.87-1.29 3.69-1.636c0 0 14.22-4.204 9.276-24.932-4.94-20.728 4.44-.384 4.44-.384z"/><path fill="#D0D1D2" d="M126.004 188.98s.298-3.756-5.163-3.254c0 0 6.23-1.526 5.17 3.253zm3.482 1.002s.64-3.21-1.533-2.725c0 0 1.518.022 1.533 2.725z"/><path fill="#6D6F71" d="M151.985 118.09l-.348 2.708-.4-.114.407-2.693m6.356 2.28s-3.19 4.37-6.3.05l-.462.38s4.317 5.13 7.197-.29l-.434-.12z"/><path fill="#BE202E" d="M143.18 118.14s.748 9.397 7.863 6.76c0 0 .726-2.185 3.15-2.303 0 0-1.725-.654-2.557-1.798 0 0-7.445 3.49-8.114-2.66"/><path fill="#6D6F71" d="M151.395 120.14s-6.363 4.296-7.872-2h-.342s.48 6.587 8.46 2.66l-.24-.66z"/><path fill="#6D6F71" d="M144.406 118.126s-1.983-1.767-1.97.728c.002 0-.41-3.15 1.97-.728zm8.216 6.25s.992 1.82-4.72 1.8c0 0 6.512 1.406 4.72-1.8zm-.637-6.286l-.348 2.708-.4-.114.407-2.693"/><path fill="#0B8ECC" d="M152.69 114.238s-.824-2.936-3.49 1.485l2.515 3.116 3.038-1.86s-.866-4.72-2.062-2.75z"/><path fill="#FFF" d="M149.81 115.793l1.085 1.332s.005-1.65-1.085-1.332zm3.346 1.767l1.043-.566s-.61-.452-1.05.565z"/><path fill="#6D6F71" d="M158 120.262s-3.19 4.366-6.3.045l-.462.376s4.317 5.123 7.197-.296l-.434-.125z"/><path fill="#BE202E" d="M143.18 118.14s.748 9.397 7.863 6.76c0 0 .726-2.185 3.15-2.303 0 0-1.725-.654-2.557-1.798 0 0-7.445 3.49-8.114-2.66"/><path fill="#6D6F71" d="M151.395 120.14s-6.363 4.296-7.872-2h-.342s.48 6.587 8.46 2.66l-.24-.66z"/><path fill="#6D6F71" d="M144.406 118.126s-1.983-1.767-1.97.728c.002 0-.41-3.15 1.97-.728zm8.216 6.25s.992 1.82-4.72 1.8c0 0 6.512 1.406 4.72-1.8z"/><path fill="#E6E7E8" d="M104.333 121.753l9.992-6-1.44-15.175-4.574 8.424c.01 0-3.44 6.767-3.97 12.75z"/><path fill="#FFF" d="M115.115 116.846c-11.01-15.897-27.627-14.143-27.627-14.143-1.69 1.288-3.87 1.533-3.87 1.533-1.76 7.527-4.703 7.4-4.703 7.4-5.103-1.218-2.913-4.012-2.913-4.012 5.912.294 2.87-4.757 2.87-4.757-3.92-1.27-6.545-1.792-6.545-1.792-3.01 5.987-7.03 1.32-7.03 1.32 6.587-10.22 12.88-3.507 12.88-3.507.19-5.866-1.866-4.98-1.866-4.98-8.43 2.494-6.36-2.46-6.36-2.46 9.85-4.44 12.14 5.025 12.14 5.025 2.19.482 2.66.664 4.01.524 24.06-2.486 31.37 15.738 31.37 15.738"/><path fill-rule="evenodd" clip-rule="evenodd" fill="#FFF" d="M114.384 212.12l-19.526-6.982-.212-.15c-.21-.21-.284-.554-.358-.81-.333-1.2-.452-2.432-.376-3.663.165-2.822 1.246-5.644 2.853-8.18.45-.705.96-1.397 1.515-2.072 1.593-1.907 3.558-3.633 5.81-5.09 2.596-1.695 5.464-3.12 8.496-4.292.84-.33 1.696-.63 2.55-.91 2.93-.97 6.007-1.75 9.1-2.34 4.5-.87 12.247-1.62 14.74 2.39.48.78.584 1.74.54 2.6 4.998-1.14 9.62-2.41 14.98-2.41 4.625-.13 12.385 1 6.275 4.99 5.93.86 15.74 0 20.54 2.97 3.7 2.42-.73 4.7-4.25 4.7 2.77.71 13.5 2.84 14.24 5.69.56 2.55-6.65 1.16-8.87 1.02-3.4-.06-9.84-2.61-9.68-2.67.18-.06-11.27-.1-11.3-.34-.1-.49-4.28.75-5.46.98-.37.08-1.29 1.02-1.68 1.11l-4.41.69c-4.83-2.98-5.19-4.65-10.57-4.24-4.29-.54-8.78 0-13.03 1.65-4.68 1.83-15.76 15.57-15.49 16.22"/><path fill="#1D76BB" d="M125.39 194.84c5.9-1.98 11.98-2.64 18.162-1.59 3.634.6 6.338 5.75 10.223 3.227 5.076-3.302 13.42-2.056 19.156-1.68 4.06.285 8.24 2.596 12.52 2.986 1.19.105 6.67 1.74.59-.314-1.21-.46-2.46-.85-3.7-1.18-1.99-.53-3.99-1.01-6.01-1.49-2.02-.5-1.6-3.78.37-4.02 6.95-.83-6.26-2.92-7.7-2.99-2.8-.12-5.6-.24-8.4-.56-1.75-.2-2.58-2.51-1.15-3.67-.79-1.14-1.89-1.58-3.27-1.31-2.5-.08-4.98.09-7.44.5-2.96.55-5.88 1.21-8.83 1.89-1.14.27-2.19-.63-2.41-1.7-1.84-8.8-22.48-1.06-26.22.72-3.49 1.66-7.22 3.45-9.89 6.33-1.86 1.99-8.36 11.28-5.28 13.4.6.42.96 1.17.89 1.9-.61 5.45-5.33 9.97-5 6.97.21-1.88.44-3.77.65-5.66.27-2.39-.34-.77.86.06-5.19-3.57.68-15.01 3.48-18.03 7.16-7.69 40.88-24.41 44.65-6.43-.81-.58-1.62-1.13-2.42-1.7 6.15-1.43 17.6-5.1 23.7-1.13 3.56 2.31 2.03 5.09-.72 7.34-.39-1.23-.78-2.45-1.15-3.68 5.81.66 17.45-1.11 21.92 3.7 4.31 4.64-.73 7.53-5.48 8.1l.36-4.03c1.86.45 21.06 4.67 14.67 10.12-2.59 2.2-7.25.93-10.22.63-2.58-.26-5.1-.86-7.55-1.73-.34-.14-3.62-.98-2.36-.96-3.68-.08-7.43.1-11.1-.33-3.23-.38-6.95 2.28-10.25 2.67-1.98.24-2.61-.38-4.39-1.64-3.16-2.25-6.26-2.79-10.07-2.7-12.71.33-22.98 1.86-11.12-2.1z"/><path fill="#92BDDE" d="M156.91 182.2c-.247 0-.5.025-.764.076-.392-.012-.78-.018-1.173-.018-2.108 0-4.196.17-6.27.514-2.96.556-5.888 1.216-8.83 1.892-.136.032-.277.048-.41.048-.974 0-1.808-.81-2.006-1.744-.04-.186-.085-.36-.14-.53l-39.7 12.852c-1.09 1.86-2.03 3.858-2.297 5.457l64.074-17.14.025-.025c-.65-.922-1.49-1.383-2.51-1.383"/><path fill="#1D76BB" d="M61.618 207.498l.007.01-.007-.01m-.35-.44l-.005.003c.096.13.2.26.31.39-.11-.12-.21-.25-.305-.38m36.35-11.77l-5.27 1.7c-.56 1.63-.935 3.29-.97 4.81l3.94-1.05c.27-1.6 1.21-3.59 2.298-5.45m57.815-17.65c-1.36 0-2.78.12-4.2.3l-13.91 4.51c.06.17.1.35.14.53.2.94 1.03 1.75 2.01 1.75.14 0 .28-.01.41-.04 2.94-.68 5.87-1.34 8.83-1.89 2.08-.34 4.16-.52 6.27-.52.39 0 .78.01 1.18.02.27-.05.52-.07.77-.07 1.03 0 1.87.46 2.52 1.38l-.02.03 5.52-1.48c-.12-.93-.74-1.85-2.05-2.7-2.02-1.31-4.62-1.79-7.43-1.79"/><path fill-rule="evenodd" clip-rule="evenodd" fill="#B9E5FA" d="M93.917 200.518c.166-2.828 1.234-5.644 2.85-8.18.454-.714.956-1.404 1.512-2.072 1.59-1.907 3.56-3.63 5.81-5.093 2.59-1.69 5.45-3.12 8.48-4.296.84-.324 1.69-.63 2.56-.92 2.92-.968 6-1.74 9.09-2.335 4.51-.874 12.25-1.623 14.74 2.383.48.783.59 1.746.54 2.604 4.99-1.14 9.61-2.42 14.98-2.42 4.62-.15 12.39.99 6.28 4.97 5.92.85 15.72 0 20.52 2.98 3.7 2.41-.74 4.69-4.26 4.69 2.77.71 13.5 2.84 14.24 5.68.55 2.56-6.1 2.27-8.32 2.13-3.42-.07-6.77-.66-10.1-1.23-4.23-.73-8.46-1.4-12.82-1.07-1.22.09-2.42.25-3.61.47-3.05.58-6.35 1.57-7.95 3.81-.4.55-.69 1.22-.8 1.85-.25 1.5.06 3.15 1.12 4.45.71.87 1.64 1.66 2.72 2.27 2.47 1.38 3.52 3.28 6.47 3.77 4.11.68-63.16-9.85-63.16-9.85l-.21-.15c-.22-.22-.29-.57-.36-.82-.34-1.19-.45-2.43-.38-3.66z"/><path fill="#0E4F82" d="M108.292 208.426l16.403 6.708h46.172c-3.16-.138-6.31-.413-9.398-.925-2.82-.47-5.61-1.18-7.95-2.49-1.04-.58-1.92-1.33-2.59-2.16-1.01-1.23-1.3-2.8-1.07-4.23.1-.6.37-1.24.75-1.77 1.52-2.13 4.66-3.07 7.56-3.62 1.13-.22 2.27-.37 3.43-.46 4.14-.31 8.15.33 12.17 1.01 3.15.54 6.34 1.11 9.59 1.17 2.1.13 8.44.4 7.91-2.03-.71-2.7-10.9-4.72-13.54-5.4 3.34 0 7.55-2.16 4.04-4.46-4.57-2.84-13.88-2.03-19.51-2.84 5.8-3.78-1.59-4.86-5.98-4.73-5.09 0-9.49 1.21-14.23 2.3.04-.82-.06-1.73-.52-2.48-2.36-3.81-9.72-3.1-14.01-2.27-1.53.3-3.06.64-4.56 1.03-16.81 10.93-17.93 21.64-14.71 27.6z"/><path fill="#E6E7E8" d="M108.004 153.524l3.923 1.926 1.548-2.47-3.216-2.953"/><path fill-rule="evenodd" clip-rule="evenodd" fill="#B9E5FA" d="M140.33 202.07c-1.01 4.845 2.762 7.922 9.606 11.634 0 0-6.554-4.236-5.358-10.612.54-2.857 3.718-5.846 11.626-6.327 0 0-14.195-2.773-15.874 5.306z"/><path fill-rule="evenodd" clip-rule="evenodd" fill="#B9E5FA" d="M130.03 199.433c-1.166 5.945 3.202 9.718 11.138 14.27 0 0-7.6-5.194-6.21-13.017.62-3.508 4.31-7.174 13.472-7.76 0 0-16.45-3.402-18.4 6.507z"/><path fill-rule="evenodd" clip-rule="evenodd" fill="#B9E5FA" d="M118.36 196.564c-1.373 7.14 3.756 11.668 13.073 17.14 0 0-8.92-6.24-7.287-15.634.73-4.217 5.06-8.618 15.812-9.323 0 0-19.31-4.085-21.597 7.817z"/><path fill-rule="evenodd" clip-rule="evenodd" fill="#F47F38" d="M110.37 166.284s7.102-4.555 13.997 0c0 0 .05-4.324-2.008-8.103 0 0 12.89 3.55 15.95-8.95 0 0 3.8 3.71 1.72 7.41 0 0 8.27 2.57 9.16-3.6 0 0-3.12-8.13-10.43-11.63l-.52-1.64-.76-.32s-.89 6.66-32.18 4.16l-.83.59 1.23.72s.41 3.91 3.7 6.49c0 0 2.11 2.93 4.63 4.06 0 0-.46 8.7-3.71 10.83z"/><path fill-rule="evenodd" clip-rule="evenodd" fill="#90278E" d="M106.383 145.01s6.02.616 13.584 0v.616s-4.546.898-13.584 0v-.617z"/><path fill-rule="evenodd" clip-rule="evenodd" fill="#652D90" d="M120.84 145.01v.508s5.682.108 9.003-1.203c0 0-4.038 1.312-3.717 3.086 0 0 2.255 4.17 4.57-2.39 0 0 1.62 5.02-.464 8.57h.772s2.898-3.39.29-9.26h-.832s-2.486 6.64-3.404 2.4c0 0 3.794-3.46 5.335-3.2 0 0-7.823 1.89-11.552 1.5z"/><path fill-rule="evenodd" clip-rule="evenodd" fill="#652D90" d="M131.88 144.39s3.087 3.067 2.52 7.565l.567-.206s2.162-3.09-2.573-7.21c0 0 6.103 4.52 1.276-.83h-1s4.2-1.08 5.178-2.32v-.92s-2.933 2.61-6.637 2.99l2.16.77s3.92 3-1.49.12z"/><path fill-rule="evenodd" clip-rule="evenodd" fill="#D0E296" d="M108.312 148.173l4.862-.463-2.43 2.777m.658 3.09l2.39-2.703-.618 4.093s-.92-.156-1.772-1.39zm4.834-4.477l-1.01 3.82 3.48-1.91m-3.48 4.93l3.48-1.567-3.48 3.91m-1.806 1.867l3.546-.53-4.08 2.55m6.54-3.887l-2.46 3.103 3.875-1.55m.65-6.916l-2.58 3.302 4.58-1.652m-6.51-7.3h3.88v3.217m2.95 7.18l1.19-3.91.63 4.254s-.44.38-1.81-.34zm-1.06-6.657l3.41-1.91.5 1.91m10.37-7.52l-.74 1.52 3.7.508m.86-2.952l.95 3.656 1.4-1.828s-1.16-1.116-2.34-1.828zm0 5.144l3.59 1.17-2.42 1.607m4.44-2.382l-.5 3.85 1.77-1.9m-5.08 1.9l.8.65 1.2.97-2.28 2.357m-21.14 8.848l.78-2.945.4 3.373m25.33-12.346l-2.48 2.105 2.7-1.052m-9.59-4.687l.77-1.957v2.87"/><path fill="#0E4F82" d="M101.398 204.906c-.543-10.752 10.27-18.726 18.202-23.1-.226.073-.46.14-.685.215-.82.28-1.63.56-2.43.87-2.887 1.12-5.6 2.48-8.07 4.09-2.133 1.39-4.013 3.03-5.525 4.84-.528.64-1.005 1.29-1.44 1.97-1.53 2.41-2.547 5.09-2.707 7.78-.017.29-.022.58-.018.87.815.98 1.75 1.8 2.673 2.49zm-2.295.128c.068.24.134.578.34.78l.198.134-1.03 9.186h7.06c-1.18-1.418-2.21-3.032-3.07-4.862-.72-1.856-1.1-3.646-1.18-5.365-.92-.687-1.86-1.516-2.67-2.487.02.882.13 1.758.38 2.614zm11.267 6.11c1.732 1.616 3.99 2.926 6.62 3.99h7.706l-16.403-6.708c.575 1.067 1.29 1.98 2.078 2.717z"/><path fill="#B9E5FA" d="M127.712 177.986s-3.586 1.324-8.112 3.82c1.114-.355 2.244-.686 3.393-.983 1.455-.945 3.023-1.892 4.72-2.837z"/><path fill="#B9E5FA" d="M101.398 204.906c2.362 1.758 4.65 2.6 4.65 2.6l2.244.92c-3.22-5.96-2.108-16.678 14.7-27.603-1.148.298-2.278.628-3.392.983-7.93 4.375-18.745 12.348-18.202 23.1z"/><path fill="#B9E5FA" d="M110.37 211.143c-.787-.736-1.5-1.65-2.078-2.717l-2.245-.92s-2.287-.842-4.65-2.6c.088 1.72.462 3.51 1.19 5.365.86 1.83 1.892 3.45 3.07 4.87h11.332c-2.64-1.06-4.89-2.37-6.62-3.99z"/><path fill="#0E4F82" d="M97.455 202.946l2.47-1.145 1.474 1.57s-.73 4.78 3.17 10.34l-6.81-.2-1.96-7.05 1.64-3.5zm23.743 10.758l-11.712-3.507s-1.47-2.14-1.785-3.05c-.31-.908 7.31.808 7.31.808l6.69 3.188-.49 2.56z"/><path fill-rule="evenodd" clip-rule="evenodd" fill="#EF4B4D" d="M110.37 166.284s6.845 5.17 13.997 0l-2.006-4.45-5.71.67-3.29 2.007-2.98 1.78z"/><path fill="#FFF" d="M152.306 96.742s6.136-15.29 26.32-13.205c1.132.117 1.52-.035 3.36-.44 0 0 1.92-7.94 10.18-4.216 0 0 1.738 4.16-5.336 2.07 0 0-1.726-.74-1.565 4.18 0 0 5.278-5.63 10.808 2.95 0 0-3.373 3.92-5.898-1.11 0 0-2.203.44-5.49 1.51 0 0-2.553 4.24 2.407 3.99 0 0 1.84 2.35-2.445 3.37 0 0-2.47.11-3.946-6.21 0 0-1.82-.2-3.24-1.28 0 0-13.94-1.47-23.18 11.87"/><path fill="#E6E7E8" d="M169.076 83.905l-.628 5.612-2.866.997-5.74-2.687s3.96-3.024 9.234-3.922z"/><path fill="#FFF" d="M148.796 166.635c3.516-14.934-11.065-24.586-11.065-24.586s-20.19-9.7-3.17 3.12c11.97 9.01 11.44 17.76 10.07 22.17 1.42.06 2.77-.27 4.18-.71z"/><path fill="#D0D1D2" d="M167.322 167.227s-2.165-3.08-6.05.788c0 0 3.824-5.15 6.05-.788zm3.324-1.447s-1.555-2.88-2.92-1.12c0 0 1.184-.953 2.92 1.12z"/><path fill="#FFF" d="M77.012 142.462l.314-.86c.212-.573.498-1.346.898-2.372.396-1.017.886-2.244 1.49-3.62.604-1.37 1.316-2.9 2.188-4.438.435-.765.915-1.53 1.433-2.222.26-.34.53-.67.797-.935.263-.267.53-.483.72-.592.2-.11.263-.114.223-.11-.038-.013.007-.022.203.103.398.274 1.006 1.05 1.5 1.935 1.026 1.81 1.884 4.07 2.693 6.37.81 2.32 1.57 4.74 2.35 7.18.78 2.44 1.58 4.9 2.49 7.32.93 2.43 1.92 4.82 3.42 7.11.39.57.81 1.14 1.32 1.68s1.09 1.08 1.83 1.52c.73.44 1.63.78 2.58.86.95.08 1.86-.11 2.61-.4 1.51-.61 2.5-1.5 3.36-2.34.84-.86 1.52-1.72 2.12-2.56 1.21-1.68 2.1-3.27 2.87-4.68.77-1.42 1.37-2.66 1.86-3.69s.86-1.84 1.1-2.4l.38-.85c.46-1.04-.01-2.26-1.05-2.72-1.03-.45-2.24 0-2.71 1.02l-.01.03-.38.82c-.24.54-.61 1.32-1.09 2.29-.48.98-1.07 2.16-1.81 3.48-.73 1.3-1.59 2.76-2.64 4.18-.53.7-1.1 1.4-1.71 2.01-.61.6-1.3 1.11-1.84 1.3-.56.18-.77.16-1.29-.14-.51-.31-1.14-1.02-1.68-1.87-1.11-1.73-2.02-3.94-2.84-6.22-.82-2.29-1.56-4.7-2.3-7.13-.74-2.43-1.47-4.89-2.27-7.33-.82-2.44-1.66-4.85-2.95-7.23-.33-.59-.7-1.19-1.14-1.79-.45-.59-.98-1.2-1.71-1.75-.39-.27-.8-.54-1.3-.74-.5-.2-1.06-.34-1.64-.36-1.17-.08-2.2.31-2.95.72-.77.43-1.33.92-1.83 1.39-.5.48-.9.96-1.27 1.44-.74.95-1.32 1.87-1.85 2.76-1.04 1.78-1.83 3.42-2.5 4.88-.67 1.47-1.2 2.75-1.63 3.81-.43 1.05-.76 1.92-.97 2.46l-.33.86c-.53 1.39.16 2.94 1.55 3.47 1.38.53 2.94-.16 3.47-1.54l.01-.04z"/><path fill="#D0D1D2" d="M122.615 115.008l11.844 9.37-3.74 7.662s5.48 7.822 5.53 12.97l-16.29 3.096-1.07-17.558 3.71-15.54zm49.39-19.655s10.81-2.796 3.58 7.537l-1.44-1.698-2.14-5.84z"/><path fill="#D0D1D2" d="M171.73 95.3s10.807-2.795 3.58 7.54l-1.442-1.7-2.14-5.84zm-42.952-7.765s-5.188-5.06-9.618-3.32c0 0-5.94 3.333-.226 11.73l1.35 2.227s1.508-.72 1.645-2.882c0 0-6.42-10.807 4.4-5.574 0 0 1.86.222 2.44-2.18z"/><path fill="#0B8ECC" d="M152.69 114.238s-.824-2.936-3.49 1.485l2.515 3.116 3.038-1.86s-.866-4.72-2.062-2.75z"/><path fill="#FFF" d="M149.81 115.793l1.085 1.332s.005-1.65-1.085-1.332zm3.346 1.767l1.043-.566s-.61-.452-1.05.565z"/><ellipse transform="rotate(-169.1 145.9 106)" fill="#FFF" cx="145.928" cy="106.024" rx="30.302" ry="24.28"/><ellipse transform="rotate(-169.1 150.1 107.5)" fill="#D0D1D2" cx="150.119" cy="107.421" rx="25.359" ry="19.344"/><ellipse transform="rotate(-169.1 163.8 108.5)" fill="#FFF" cx="163.802" cy="108.518" rx="10.39" ry="10.24"/><ellipse transform="rotate(-169.1 140 104.2)" fill="#FFF" cx="140.033" cy="104.195" rx="12.825" ry="12.74"/><path fill="#919396" d="M126.077 88.668c.007-.007-4.654 4.655-5.01 6.403l-.584-1.55s-4.586-10.36 5.594-4.84z"/><path fill="#D0D1D2" d="M129.056 87.59s-5.19-5.06-9.62-3.32c0 0-5.94 3.332-.224 11.728l1.35 2.228s1.507-.72 1.645-2.883c0 0-6.42-10.807 4.408-5.574 0 0 1.867.22 2.44-2.18z"/><path fill="#FFF" d="M119.265 150.714s-9.375-20.344-4.433.384c4.944 20.728-9.275 24.932-9.275 24.932-4.56.347-3.69 1.635-3.69 1.635l1.343.738c4-.418 7.546-2.198 11.185-3.7 9.272-9.476 4.87-23.99 4.87-23.99z"/><path fill="#D0D1D2" d="M126.004 188.98s.298-3.756-5.163-3.254c0 0 6.23-1.526 5.17 3.253zm3.482 1.002s.64-3.21-1.533-2.725c0 0 1.518.022 1.533 2.725z"/><path fill="#6D6F71" d="M151.985 118.09l-.348 2.708-.4-.114.407-2.693m6.356 2.28s-3.19 4.37-6.3.05l-.462.38s4.317 5.13 7.197-.29l-.434-.12z"/><path fill="#BE202E" d="M143.18 118.14s.748 9.397 7.863 6.76c0 0 .726-2.185 3.15-2.303 0 0-1.725-.654-2.557-1.798 0 0-7.445 3.49-8.114-2.66"/><path fill="#6D6F71" d="M151.395 120.14s-6.363 4.296-7.872-2h-.342s.48 6.587 8.46 2.66l-.24-.66z"/><path fill="#6D6F71" d="M144.406 118.126s-1.983-1.767-1.97.728c.002 0-.41-3.15 1.97-.728zm8.216 6.25s.992 1.82-4.72 1.8c0 0 6.512 1.406 4.72-1.8zm-.637-6.286l-.348 2.708-.4-.114.407-2.693"/><path fill="#0B8ECC" d="M152.69 114.238s-.824-2.936-3.49 1.485l2.515 3.116 3.038-1.86s-.866-4.72-2.062-2.75z"/><path fill="#FFF" d="M149.81 115.793l1.085 1.332s.005-1.65-1.085-1.332zm3.346 1.767l1.043-.566s-.61-.452-1.05.565z"/><path fill="#6D6F71" d="M158 120.262s-3.19 4.366-6.3.045l-.462.376s4.317 5.123 7.197-.296l-.434-.125z"/><path fill="#BE202E" d="M143.18 118.14s.748 9.397 7.863 6.76c0 0 .726-2.185 3.15-2.303 0 0-1.725-.654-2.557-1.798 0 0-7.445 3.49-8.114-2.66"/><path fill="#7C0" d="M92.347 183.952S39.802 206.172 80.5 210.02l93.99-23.772s37.177-18.547 2.352-22.16c0 .002-20.65-1.744-84.495 19.864z"/><path fill="#358158" d="M66.27 205.98s-18.44-15.2 108.77-37.966c0 0 34.308-2.208 2.76 16.514S76.536 215.96 66.27 205.98z"/><path fill="#15BA58" d="M65.3 204.622l120.55-36.04s10.743 1.387 1.723 9.05l-119.377 29.65-2.897-2.66z"/><path fill="#6D6F71" d="M151.395 120.14s-6.363 4.296-7.872-2h-.342s.48 6.587 8.46 2.66l-.24-.66z"/><path fill="#6D6F71" d="M144.406 118.126s-1.983-1.767-1.97.728c.002 0-.41-3.15 1.97-.728zm8.216 6.25s.992 1.82-4.72 1.8c0 0 6.512 1.406 4.72-1.8z"/><path fill="#E6E7E8" d="M104.333 121.753l9.992-6-1.44-15.175-4.574 8.424c.01 0-3.44 6.767-3.97 12.75z"/><path fill="#FFF" d="M115.115 116.846c-11.01-15.897-27.627-14.143-27.627-14.143-1.69 1.288-3.87 1.533-3.87 1.533-1.76 7.527-4.703 7.4-4.703 7.4-5.103-1.218-2.913-4.012-2.913-4.012 5.912.294 2.87-4.757 2.87-4.757-3.92-1.27-6.545-1.792-6.545-1.792-3.01 5.987-7.03 1.32-7.03 1.32 6.587-10.22 12.88-3.507 12.88-3.507.19-5.866-1.866-4.98-1.866-4.98-8.43 2.494-6.36-2.46-6.36-2.46 9.85-4.44 12.14 5.025 12.14 5.025 2.19.482 2.66.664 4.01.524 24.06-2.486 31.37 15.738 31.37 15.738"/><path fill-rule="evenodd" clip-rule="evenodd" fill="#FFF" d="M114.384 212.12l-19.526-6.982-.212-.15c-.21-.21-.284-.554-.358-.81-.333-1.2-.452-2.432-.376-3.663.165-2.822 1.246-5.644 2.853-8.18.45-.705.96-1.397 1.515-2.072 1.593-1.907 3.558-3.633 5.81-5.09 2.596-1.695 5.464-3.12 8.496-4.292.84-.33 1.696-.63 2.55-.91 2.93-.97 6.007-1.75 9.1-2.34 4.5-.87 12.247-1.62 14.74 2.39.48.78.584 1.74.54 2.6 4.998-1.14 9.62-2.41 14.98-2.41 4.625-.13 12.385 1 6.275 4.99 5.93.86 15.74 0 20.54 2.97 3.7 2.42-.73 4.7-4.25 4.7 2.77.71 13.5 2.84 14.24 5.69.56 2.55-6.65 1.16-8.87 1.02-3.4-.06-9.84-2.61-9.68-2.67.18-.06-11.27-.1-11.3-.34-.1-.49-4.28.75-5.46.98-.37.08-1.29 1.02-1.68 1.11l-4.41.69c-4.83-2.98-5.19-4.65-10.57-4.24-4.29-.54-8.78 0-13.03 1.65-4.68 1.83-15.76 15.57-15.49 16.22"/><path fill="#1D76BB" d="M125.39 194.84c5.9-1.98 11.98-2.64 18.162-1.59 3.634.6 6.338 5.75 10.223 3.227 5.076-3.302 13.42-2.056 19.156-1.68 4.06.285 8.24 2.596 12.52 2.986 1.19.105 6.67 1.74.59-.314-1.21-.46-2.46-.85-3.7-1.18-1.99-.53-3.99-1.01-6.01-1.49-2.02-.5-1.6-3.78.37-4.02 6.95-.83-6.26-2.92-7.7-2.99-2.8-.12-5.6-.24-8.4-.56-1.75-.2-2.58-2.51-1.15-3.67-.79-1.14-1.89-1.58-3.27-1.31-2.5-.08-4.98.09-7.44.5-2.96.55-5.88 1.21-8.83 1.89-1.14.27-2.19-.63-2.41-1.7-1.84-8.8-22.48-1.06-26.22.72-3.49 1.66-7.22 3.45-9.89 6.33-1.86 1.99-8.36 11.28-5.28 13.4.6.42.96 1.17.89 1.9-.61 5.45-5.33 9.97-5 6.97.21-1.88.44-3.77.65-5.66.27-2.39-.34-.77.86.06-5.19-3.57.68-15.01 3.48-18.03 7.16-7.69 40.88-24.41 44.65-6.43-.81-.58-1.62-1.13-2.42-1.7 6.15-1.43 17.6-5.1 23.7-1.13 3.56 2.31 2.03 5.09-.72 7.34-.39-1.23-.78-2.45-1.15-3.68 5.81.66 17.45-1.11 21.92 3.7 4.31 4.64-.73 7.53-5.48 8.1l.36-4.03c1.86.45 21.06 4.67 14.67 10.12-2.59 2.2-7.25.93-10.22.63-2.58-.26-5.1-.86-7.55-1.73-.34-.14-3.62-.98-2.36-.96-3.68-.08-7.43.1-11.1-.33-3.23-.38-6.95 2.28-10.25 2.67-1.98.24-2.61-.38-4.39-1.64-3.16-2.25-6.26-2.79-10.07-2.7-12.71.33-22.98 1.86-11.12-2.1z"/><path fill="#92BDDE" d="M156.91 182.2c-.247 0-.5.025-.764.076-.392-.012-.78-.018-1.173-.018-2.108 0-4.196.17-6.27.514-2.96.556-5.888 1.216-8.83 1.892-.136.032-.277.048-.41.048-.974 0-1.808-.81-2.006-1.744-.04-.186-.085-.36-.14-.53l-39.7 12.852c-1.09 1.86-2.03 3.858-2.297 5.457l64.074-17.14.025-.025c-.65-.922-1.49-1.383-2.51-1.383"/><path fill="#1D76BB" d="M61.618 207.498l.007.01-.007-.01m-.35-.44l-.005.003c.096.13.2.26.31.39-.11-.12-.21-.25-.305-.38m36.35-11.77l-5.27 1.7c-.56 1.63-.935 3.29-.97 4.81l3.94-1.05c.27-1.6 1.21-3.59 2.298-5.45m57.815-17.65c-1.36 0-2.78.12-4.2.3l-13.91 4.51c.06.17.1.35.14.53.2.94 1.03 1.75 2.01 1.75.14 0 .28-.01.41-.04 2.94-.68 5.87-1.34 8.83-1.89 2.08-.34 4.16-.52 6.27-.52.39 0 .78.01 1.18.02.27-.05.52-.07.77-.07 1.03 0 1.87.46 2.52 1.38l-.02.03 5.52-1.48c-.12-.93-.74-1.85-2.05-2.7-2.02-1.31-4.62-1.79-7.43-1.79"/><path fill-rule="evenodd" clip-rule="evenodd" fill="#B9E5FA" d="M93.917 200.518c.166-2.828 1.234-5.644 2.85-8.18.454-.714.956-1.404 1.512-2.072 1.59-1.907 3.56-3.63 5.81-5.093 2.59-1.69 5.45-3.12 8.48-4.296.84-.324 1.69-.63 2.56-.92 2.92-.968 6-1.74 9.09-2.335 4.51-.874 12.25-1.623 14.74 2.383.48.783.59 1.746.54 2.604 4.99-1.14 9.61-2.42 14.98-2.42 4.62-.15 12.39.99 6.28 4.97 5.92.85 15.72 0 20.52 2.98 3.7 2.41-.74 4.69-4.26 4.69 2.77.71 13.5 2.84 14.24 5.68.55 2.56-6.1 2.27-8.32 2.13-3.42-.07-6.77-.66-10.1-1.23-4.23-.73-8.46-1.4-12.82-1.07-1.22.09-2.42.25-3.61.47-3.05.58-6.35 1.57-7.95 3.81-.4.55-.69 1.22-.8 1.85-.25 1.5.06 3.15 1.12 4.45.71.87 1.64 1.66 2.72 2.27 2.47 1.38 3.52 3.28 6.47 3.77 4.11.68-63.16-9.85-63.16-9.85l-.21-.15c-.22-.22-.29-.57-.36-.82-.34-1.19-.45-2.43-.38-3.66z"/><path fill="#0E4F82" d="M108.292 208.426l16.403 6.708h46.172c-3.16-.138-6.31-.413-9.398-.925-2.82-.47-5.61-1.18-7.95-2.49-1.04-.58-1.92-1.33-2.59-2.16-1.01-1.23-1.3-2.8-1.07-4.23.1-.6.37-1.24.75-1.77 1.52-2.13 4.66-3.07 7.56-3.62 1.13-.22 2.27-.37 3.43-.46 4.14-.31 8.15.33 12.17 1.01 3.15.54 6.34 1.11 9.59 1.17 2.1.13 8.44.4 7.91-2.03-.71-2.7-10.9-4.72-13.54-5.4 3.34 0 7.55-2.16 4.04-4.46-4.57-2.84-13.88-2.03-19.51-2.84 5.8-3.78-1.59-4.86-5.98-4.73-5.09 0-9.49 1.21-14.23 2.3.04-.82-.06-1.73-.52-2.48-2.36-3.81-9.72-3.1-14.01-2.27-1.53.3-3.06.64-4.56 1.03-16.81 10.93-17.93 21.64-14.71 27.6z"/><path fill="#E6E7E8" d="M108.004 153.524l3.923 1.926 1.548-2.47-3.216-2.953"/><path fill-rule="evenodd" clip-rule="evenodd" fill="#B9E5FA" d="M140.33 202.07c-1.01 4.845 2.762 7.922 9.606 11.634 0 0-6.554-4.236-5.358-10.612.54-2.857 3.718-5.846 11.626-6.327 0 0-14.195-2.773-15.874 5.306z"/><path fill-rule="evenodd" clip-rule="evenodd" fill="#B9E5FA" d="M130.03 199.433c-1.166 5.945 3.202 9.718 11.138 14.27 0 0-7.6-5.194-6.21-13.017.62-3.508 4.31-7.174 13.472-7.76 0 0-16.45-3.402-18.4 6.507z"/><path fill-rule="evenodd" clip-rule="evenodd" fill="#B9E5FA" d="M118.36 196.564c-1.373 7.14 3.756 11.668 13.073 17.14 0 0-8.92-6.24-7.287-15.634.73-4.217 5.06-8.618 15.812-9.323 0 0-19.31-4.085-21.597 7.817z"/><path fill-rule="evenodd" clip-rule="evenodd" fill="#F47F38" d="M110.37 166.284s7.102-4.555 13.997 0c0 0 .05-4.324-2.008-8.103 0 0 12.89 3.55 15.95-8.95 0 0 3.8 3.71 1.72 7.41 0 0 8.27 2.57 9.16-3.6 0 0-3.12-8.13-10.43-11.63l-.52-1.64-.76-.32s-.89 6.66-32.18 4.16l-.83.59 1.23.72s.41 3.91 3.7 6.49c0 0 2.11 2.93 4.63 4.06 0 0-.46 8.7-3.71 10.83z"/><path fill-rule="evenodd" clip-rule="evenodd" fill="#90278E" d="M106.383 145.01s6.02.616 13.584 0v.616s-4.546.898-13.584 0v-.617z"/><path fill-rule="evenodd" clip-rule="evenodd" fill="#652D90" d="M120.84 145.01v.508s5.682.108 9.003-1.203c0 0-4.038 1.312-3.717 3.086 0 0 2.255 4.17 4.57-2.39 0 0 1.62 5.02-.464 8.57h.772s2.898-3.39.29-9.26h-.832s-2.486 6.64-3.404 2.4c0 0 3.794-3.46 5.335-3.2 0 0-7.823 1.89-11.552 1.5z"/><path fill-rule="evenodd" clip-rule="evenodd" fill="#652D90" d="M131.88 144.39s3.087 3.067 2.52 7.565l.567-.206s2.162-3.09-2.573-7.21c0 0 6.103 4.52 1.276-.83h-1s4.2-1.08 5.178-2.32v-.92s-2.933 2.61-6.637 2.99l2.16.77s3.92 3-1.49.12z"/><path fill-rule="evenodd" clip-rule="evenodd" fill="#D0E296" d="M108.312 148.173l4.862-.463-2.43 2.777m.658 3.09l2.39-2.703-.618 4.093s-.92-.156-1.772-1.39zm4.834-4.477l-1.01 3.82 3.48-1.91m-3.48 4.93l3.48-1.567-3.48 3.91m-1.806 1.867l3.546-.53-4.08 2.55m6.54-3.887l-2.46 3.103 3.875-1.55m.65-6.916l-2.58 3.302 4.58-1.652m-6.51-7.3h3.88v3.217m2.95 7.18l1.19-3.91.63 4.254s-.44.38-1.81-.34zm-1.06-6.657l3.41-1.91.5 1.91m10.37-7.52l-.74 1.52 3.7.508m.86-2.952l.95 3.656 1.4-1.828s-1.16-1.116-2.34-1.828zm0 5.144l3.59 1.17-2.42 1.607m4.44-2.382l-.5 3.85 1.77-1.9m-5.08 1.9l.8.65 1.2.97-2.28 2.357m-21.14 8.848l.78-2.945.4 3.373m25.33-12.346l-2.48 2.105 2.7-1.052m-9.59-4.687l.77-1.957v2.87"/><path fill="#0E4F82" d="M101.398 204.906c-.543-10.752 10.27-18.726 18.202-23.1-.226.073-.46.14-.685.215-.82.28-1.63.56-2.43.87-2.887 1.12-5.6 2.48-8.07 4.09-2.133 1.39-4.013 3.03-5.525 4.84-.528.64-1.005 1.29-1.44 1.97-1.53 2.41-2.547 5.09-2.707 7.78-.017.29-.022.58-.018.87.815.98 1.75 1.8 2.673 2.49zm-2.295.128c.068.24.134.578.34.78l.198.134-1.03 9.186h7.06c-1.18-1.418-2.21-3.032-3.07-4.862-.72-1.856-1.1-3.646-1.18-5.365-.92-.687-1.86-1.516-2.67-2.487.02.882.13 1.758.38 2.614zm11.267 6.11c1.732 1.616 3.99 2.926 6.62 3.99h7.706l-16.403-6.708c.575 1.067 1.29 1.98 2.078 2.717z"/><path fill="#B9E5FA" d="M127.712 177.986s-3.586 1.324-8.112 3.82c1.114-.355 2.244-.686 3.393-.983 1.455-.945 3.023-1.892 4.72-2.837z"/><path fill="#B9E5FA" d="M101.398 204.906c2.362 1.758 4.65 2.6 4.65 2.6l2.244.92c-3.22-5.96-2.108-16.678 14.7-27.603-1.148.298-2.278.628-3.392.983-7.93 4.375-18.745 12.348-18.202 23.1z"/><path fill="#B9E5FA" d="M110.37 211.143c-.787-.736-1.5-1.65-2.078-2.717l-2.245-.92s-2.287-.842-4.65-2.6c.088 1.72.462 3.51 1.19 5.365.86 1.83 1.892 3.45 3.07 4.87h11.332c-2.64-1.06-4.89-2.37-6.62-3.99z"/><path fill="#0E4F82" d="M97.455 202.946l2.47-1.145 1.474 1.57s-.73 4.78 3.17 10.34l-6.81-.2-1.96-7.05 1.64-3.5zm23.743 10.758l-11.712-3.507s-1.47-2.14-1.785-3.05c-.31-.908 7.31.808 7.31.808l6.69 3.188-.49 2.56z"/><circle fill="#0071BC" cx="138.295" cy="102.488" r="9.678"/><circle fill="#0F4481" cx="136.857" cy="100.578" r="4.971"/><circle fill="#FFF" cx="137.992" cy="100.577" r="2.642"/><circle fill="#FFF" cx="131.974" cy="99.894" r="1.286"/><circle fill="#0071BC" cx="162.699" cy="107.97" r="7.958"/><circle fill="#0F4481" cx="161.518" cy="106.399" r="4.087"/><circle fill="#FFF" cx="162.45" cy="106.398" r="2.173"/><circle fill="#FFF" cx="157.501" cy="105.836" r="1.057"/><path fill="#0E4F82" d="M99.103 205.034c-.245-.856-.363-1.732-.376-2.615-3.18-3.8-4.514-9.8 3.9-18.25 0 0-26.69 16.15-30.426 30.96h26.41l1.04-9.19-.2-.14c-.2-.21-.27-.54-.34-.78z"/><path fill="#15BA58" d="M65.443 204.58s.203 1.663 2.753 2.703l.262-2.282-3.015-.42z"/></svg>