<svg xmlns="http://www.w3.org/2000/svg" width="250" height="250" viewBox="0 0 250 250"><circle fill="#0071BC" cx="76.514" cy="286.744" r="27.086"/><path fill="#0F4481" d="M65.26 297.902c-6.435-7.438-5.622-18.67 1.808-25.1 7.43-6.428 18.663-5.626 25.1 1.812 6.43 7.428 5.62 18.668-1.812 25.097-7.425 6.44-18.666 5.62-25.095-1.8z"/><path fill="#FFF" d="M75.625 292.443c-3.42-3.952-2.987-9.918.96-13.334 3.946-3.42 9.922-3 13.343.95 3.416 3.95 2.98 9.92-.97 13.34-3.95 3.41-9.916 2.98-13.333-.97z"/><circle fill="#FFF" cx="61.23" cy="283.807" r="4.604"/><path fill="#D9D9D9" d="M87.106 204.036h-.003.003m13.944-3.868h-.003.003M80.328 186.16c-3.5 13.305.13 17.876 6.774 17.876-6.644 0-10.275-4.572-6.774-17.875m4.552-.87c-.523 4.09-.89 13.36 6.575 13.36 1.77 0 3.98-.52 6.733-1.75l.382-.17-.382.18 2.95 3.24.053-.02c.48-.21.95-.43 1.43-.66 3.09 1.97 6.07 3.59 8.93 4.91-2.86-1.31-5.84-2.93-8.93-4.9l-4.04-2.73c-4.35-3.11-8.91-6.88-13.69-11.43m44.34-12.71l-3.51 3.4c-6.89 6.58-12.24 11.04-16.96 14.47l-3.44 2.4 6.09 1.97c1.54.44 3.13.85 4.74 1.2 4.74-6.53 10.55-10.88 10.55-10.88.07-.09.14-.19.2-.29l-.01.01.02-.01c1.44-1.02 2.04-3.85 2.27-6.54.26-2.95.07-5.72.07-5.72M77.7 163c-2.025 0-4.81.525-8.31 2.383l.02-.02c-.007.01-.013.018-.02.02l-.002.005-.02.02c-.184.217-.363.433-.53.65l-.025.025c.02-.013 2.773-1.56 6.23-2.294 1.08-.23 2.225-.38 3.378-.38 1.1 0 2.21.13 3.27.47 0 0-.58-.38-1.72-.64-.6-.14-1.36-.24-2.27-.24m13.84-.08c-1.26 0-2.72.32-4.25 1.25-.13-.21-.18-.44-.18-.65 0 .21.06.43.19.65-.12.07-.25.15-.37.23-.82.52-1.49 1.13-1.99 1.67 0 0-2.14 2.19-.75 3.62-1.06-.76-3.47-2.27-5.93-2.4.31.44.41 1.06-.52 1.75 0 0-2.96 1.4-5.3 3.21-.03.3-.04.74.02 1.28-.11-.46-.13-.9-.03-1.28l.02-.09-.02.09c-.21.9-1.65 8.12 6.84 8.12.53 0 1.09-.03 1.69-.09 1.12.44 2.77 1.38 3.81 3.29 1.03-1.9 2.67-2.85 3.78-3.29.58.05 1.13.08 1.64.08 7.8 0 7.21-5.92 6.92-7.5.01-.46-.03-.79-.06-.94-2.26-1.66-4.89-2.91-4.89-2.91-.94-.69-.83-1.32-.52-1.76h-.01.01c.01 0 1-.17 2.32-.17.25 0 .52 0 .8.02.2.01.39.02.6.05 2.18.22 4.59 1.09 4.99 3.73v.01c.15.99.02 2.23-.51 3.79 0 0 .67-1.73.62-3.6v-.03c-.06-2.15-1.08-4.46-5.18-4.46-.47 0-.99.03-1.54.1l-.27.03c-.5.06-1.03.16-1.6.28-.49.1-.99.23-1.54.38h.02c-2.1.39-4.04 1.61-4.97 2.27-.01 0-1.22-.17-.81-1.89 0 0 .97-1.99 2.99-3.37 1.07-.72 2.43-1.27 4.1-1.27.72 0 1.49.1 2.32.33l.11.03c.15.05.31.1.47.15l.26.09c.13.05.26.1.4.16.1.03.19.07.29.11.18.08.36.16.55.26l.11.05s-1.85-1.43-4.53-1.43m-1.11-1.24c7.31 0 11.14 5.47 12.7 8.49-1.56-3.02-5.39-8.49-12.7-8.49m-10.8-1.14c.76 0 1.57.06 2.41.19-.84-.13-1.65-.19-2.41-.19m-5.94-72.08c-10.54 0-2.35 14.9-2.35 14.9.35-.75.73-1.49 1.12-2.23.72-1.32 1.51-2.62 2.37-3.87 1.78-2.59 3.85-5.03 6.18-7.29h-.01c-3.1-1.05-5.49-1.5-7.32-1.5m103.66-1.31c-2.46 0-5.59.63-9.56 2.36-1.11.49-2.29 1.05-3.54 1.72 0 0-.56 4.76 3.87 5.42 0 0 1.02-.33 2.45-.66.78-.18 1.69-.36 2.62-.48 1.85 2.44 3.43 5.03 4.7 7.75-.62 1.02-1.42 2.17-2.41 3.46-.46.59-.95 1.21-1.49 1.86 0 0-1.77 2.88 1.89 5.42 0 0 2.04-1.75 4.36-4.44 3.87-4.5 8.51-11.62 5.6-17.57 0 0-1.66-4.86-8.46-4.86m23.62-20c10.83 15.27 17.2 33.93 17.2 54.08 0 24.32-9.28 46.48-24.49 63.12.2-2.47.31-5.06.31-7.78 0 2.72-.11 5.31-.31 7.78-.01.13-.01.26-.02.39-14.75 16.13-35.09 27.06-57.95 29.74.32-2.02.8-4.03 1.4-5.99-1.81.31-3.69.5-5.65.53H131c-2.16 0-4.42-.19-6.77-.6-2.805-.48-5.74-1.28-8.82-2.44-.79 3.02-1.22 5.95-1.43 8.53-1.25-.15-2.48-.31-3.71-.5l-.026-.3c-.053-.58-.08-1.16-.08-1.73 0 .57.027 1.15.08 1.73-23.8-3.69-44.64-16.35-58.954-34.41 14.32 20.19 36.43 34.45 61.96 38.4.01.1.01.2.02.3 1.224.19 2.46.35 3.704.5 1.96.22 3.94.39 5.93.5 1.61.08 3.23.12 4.864.12 1.114 0 2.224-.03 3.33-.07 2.6-.09 5.165-.29 7.7-.59 22.86-2.69 43.2-13.62 57.96-29.74.01-.13.01-.26.02-.39 15.21-16.64 24.49-38.8 24.49-63.12 0-21.94-7.56-42.12-20.2-58.08"/><path fill="#EF6EA8" d="M81.28 55.113c-.31-.8-.794-1.087-1.458-.823-1.23.49-1.06 4.726-.824 4.833.365.167 2.704-2.92 2.282-4.01zm15.743-2.593c-.284.066-.317.556-.19 1.086.224.935 1.443 1.85 1.443 1.85.048-.036-.157-.95-.268-1.432-.133-.583-.438-1.633-.985-1.504zM78.49 71.02c.227.468.624.507.896.376.563-.27.65-1.258.426-1.465-.14-.12-.763-.04-1.04.09-.33.16-.51.54-.282 1zm32.518-24.66c-.298.03-.4.51-.342 1.053.103.956 1.244 2.04 1.244 2.04.052-.032-.053-.986-.102-1.478-.058-.594-.226-1.674-.8-1.615zm25.502 22.863c.822.12 2.367-3.655 2.367-3.655-.2-.208-3.705 1.01-3.824 1.938-.112.876.67 1.603 1.457 1.717zm-12.992-21.29c.672.004 1.135-.25 1.145-.845.01-.7-.56-1.022-1.263-1.025-.852-.003-2.29.83-2.264 1.026.03.22 1.417.84 2.382.84zm37.522 9.977c.206-.56.52-1.61-.013-1.8-.275-.098-.57.295-.752.81-.322.905.21 2.338.21 2.338.064-.006.388-.883.556-1.347z"/><path fill="#EF6EA8" d="M111.543 204.354c-2.865-1.313-5.842-2.935-8.93-4.905-.476.22-.95.44-1.423.65l-.052.02c-13.978 6.28-26.458 7.17-20.753-14.19-.33-.16-.753-.42-1.4-.8-2.656-1.6-19.364-4.78-12.9-14.16l-.018-.03s.797-2.39 2.732-4.88h-.01l.02-.03c.16-.22.34-.44.53-.65l.02-.03c2.48-2.88 6.53-5.61 12.67-4.67 0 0 2.21 1.87-.25 3.1 1.35.6 2.39 1.5 3.09 2.27.5-.55 1.17-1.15 1.99-1.68l.37-.24c-.69-1.11.73-2.31.73-2.31 8.92-1.37 13.42 4.99 15.13 8.32 7.98 9.99-9.58 13.31-12.31 14.94-.93.55 5.31 4.41 14.47 7.71l3.44-2.4c4.71-3.43 10.07-7.9 16.96-14.47v-.01l3.51-3.41v-.01c-.19-2.4-.61-4.7-1.05-6.63-1.16.05-2.33.09-3.51.09-28.45 0-52.02-16.96-56.28-39.12-.45-2.02-.69-4.08-.69-6.19 0-.16 0-.33.01-.49-.01-.18-.01-.35-.01-.53 0-5.77 1.3-11.29 3.67-16.38S60.04 82.78 81 89.91h.008c10.45-10.11 26.116-16.54 43.63-16.54 17.25 0 32.704 6.234 43.14 16.084 14.96-6.504 18.026 2.497 18.026 2.497 2.907 5.96-1.726 13.08-5.6 17.58.343 1.25.63 2.51.843 3.79 10.764 30.74 14.042 53.75 12.645 70.97 15.21-16.64 24.49-38.8 24.49-63.12 0-51.69-41.903-93.59-93.59-93.59s-93.59 41.9-93.59 93.59c0 46.78 34.32 85.54 79.154 92.48-.296-3.22.27-6.37 1.364-9.32m66.7-127.21c-.66 1.1-3.01 1.72-3.984 1.12-.56-.34-.504-.91-.13-1.53.954-1.6 2.694-2.54 3.612-1.96.634.39.856 1.79.503 2.38zm8.603-13.03c.426-.12.748-.04.992.12.77.51.72 1.99.514 2.29-1.08 1.52-4.48 2.11-5.95 4.37-.38.59-.76 1.55-1.15 2.16-.51.79-1.88.73-2.83.14-.56-.34-.44-.97.09-1.83 1.43-2.35 5.19-6.34 8.34-7.24zm-21.217-9.05c.7-1.76 2.82-2.38 4.674-1.57 2.03.89 1.5 3.41.87 4.78-1.34 2.91-4.09 5.54-5.637 9-.34.76-.426 1.71.516 2.15 1.81.84 4.51-2.04 6.34-4.66.25-.4.38-.59.63-.99.43-.86 2.09-4.33 2.37-4.88.77-1.53 2.68-1.69 3.69-1.16.47.25.08 1.17-.7 2.61-.78 1.44-4.76 6.62-6.42 9.74-.67 1.26-.99 2.15-.68 2.31.66.36 3.71-1.54 4.04-1.35.17.1.08.41-.22.93-1.13 1.96-4.43 3.48-6.23 2.54-1.18-.61.44-4.29.44-4.29-.03-.02-3.39 2.8-5.15 2-2-.91-2.74-2.8-1.47-5.87.52-1.28 4.51-6.5 5.39-8.56.43-1 .63-2.02.01-2.28-.74-.31-1.69.7-2.47.39-.2-.08-.25-.29-.05-.8zm-6.52-5.85c2.83.9 4.093 2.99 3.692 4.09-.08.22-.364.18-.708.05-.607-.21-1.69-1.11-3.906-1.81-3.12-.99-6.14 2.89-7.13 6.58-.89 3.31-.237 5.62 1.743 6.22 2.54.77 6.442-2.24 6.337-2.72-.104-.47-2.227-2.85-1.426-5.29.59-1.83 2.19-3.01 3.78-2.44 1.85.66 1.96 2.83 1.12 5.04-.15.39-.48 1.13-.48 1.13.045.05.95-.36 1.39-.19.153.06.19.3.106.52-.45 1.14-2.068 1.48-2.55 1.77-2.224 1.35-5.855 6.54-9.47 5.45-3.97-1.19-4.77-5.31-3.828-9.28 1.407-5.91 6.075-10.76 11.317-9.09z"/><path fill="#EF6EA8" d="M133.31 66.986c.2-1.86 3.237-3.02 6.264-3.937l.137-.03c.11-.67.36-1.58.36-1.58-.06-.05-1.73.63-2.67.5-1.75-.25-2.51-1.98-2.19-4.66.3-2.53 2.35-5.79 2.67-8.26.12-.9.02-1.76-.64-1.84-.78-.1-1.41 1.13-2.23 1.05-.21-.02-.31-.22-.26-.76.2-1.89 2.04-3.06 4.01-2.8 2.16.29 2.37 2.62 2.16 3.96-.45 2.87-2.31 5.77-2.8 9.19-.16 1.08.14 1.59.78 1.69.81.12 1.79-.57 2.26-1.48 1.29-2.48 2.71-6.87 3.41-8.75.53-1.41 1.27-2.91 2.03-2.75 1.3.26 1.89 1.01 1.48 2.89-.17.76-.84 1.77-1.39 2.83-1 1.94-3.46 9.65-3.46 9.65.1.1 2.59-.92 3.17-1.48.44-.43.8-.59.95-.55.19.04.17.44.03 1.02-.39 1.64-4 2.49-5.02 3.5-.96.95-2.88 7.22-6.08 6.76-1.7-.25-3.21-1.54-2.92-4.22zm-15.792-18.173c-.04-.83.504-2.02.462-2.387-.065-.557-1.306-2.096-1.345-2.85-.018-.336.19-.582.407-.593.548-.026 1.78 1.925 2.144 1.914.522-.015 2.46-1.417 4.376-1.407 1.787.01 3.545.772 3.458 3.265-.063 1.817-1.47 3.185-3.672 3.177-1.112-.004-2.788-1.224-2.788-1.224-.015.006-.015.286-.014.416.024 1.117.557 2.414.866 2.507.094.03.425-.08.668-.08.913 0 1.766.19 1.758 1.15-.01 1.09-1.184 1.32-1.998 1.33-.317.01-.804-.22-.956-.19-.47.09-1.144 1.67-1.09 3.43.063 2.16 1.305 2.97 3.12 2.97 2.38 0 3.9-3.15 4.287-3.14.2.01.33.41.31 1-.12 2.81-2.71 5.1-5.68 5.13-2.81.03-4.98-1.35-5.21-5.14-.17-2.77 2.55-5.19 2.56-5.32.02-.23-1.57-2.09-1.66-3.93zm-14.26-3.533c2.15-.36 3.07 2.047 3.283 3.54.46 3.16-.39 6.862.2 10.61.13.82.57 1.666 1.58 1.52 2.78-.397 4.36-8.144 3.68-8.816-.44-.44-3.63-1.466-3.99-4.17-.24-1.907.72-3.663 2.43-3.843 2-.21 3.02 1.42 3.24 4.06.03.39.08 1.2.08 1.2.07.04.7-.7 1.18-.74.17-.01.31.19.32.42.08 1.14-1.14 2.16-1.37 2.58-1.33 2.37-.49 11.91-5.59 12.67-2.12.32-3.75-.87-4.36-4.14-.25-1.35.23-7.9-.15-10.1-.18-1.07-.56-2.04-1.21-1.92-.77.14-1.02 1.51-1.82 1.66-.21.04-.37-.11-.47-.64-.37-1.86 1.06-3.52 3.02-3.85zm-11.613 2.466c2.858-.778 5.034.292 5.295 1.432.052.228-.208.34-.56.422-.625.146-2.007-.016-4.246.597-3.15.862-3.59 5.757-2.418 9.392 1.052 3.26 2.86 4.85 4.845 4.28 2.55-.74 4.18-5.38 3.83-5.72-.34-.35-3.39-1.19-4.05-3.68-.49-1.86.21-3.72 1.84-4.1 1.9-.46 3.16 1.31 3.66 3.62.09.4.22 1.2.22 1.2.07.02.6-.82 1.05-.91.16-.04.32.14.37.37.24 1.19-.92 2.36-1.16 2.86-1.13 2.34-1.33 8.66-4.95 9.7-3.97 1.15-6.91-1.87-8.27-5.72-2.03-5.73-.71-12.34 4.58-13.78zM74.477 60.068c.5-.236 1.906.034 2.003-.096.675-.906.096-7.13 2.44-8.063 1.69-.68 3.516-.56 4.448 2 .658 1.8-3.18 6.02-3.783 7.39-.22.5 1.128 3.19 1.835 4.84.216.5.35 1.39.522 1.55.377.35 1.984.51 3.112.06 1.2-.48 1.143-4.18 1.676-4.37.184-.07.41.26.613.82.707 1.95.174 5.47-2.137 6.42-.976.4-3.016-.25-3.2-.13-.273.17-.81 2.27-1.93 2.81-1.373.65-2.54-.08-3.316-1.61-.812-1.6-.23-2.89 1.13-3.54.372-.18 1.035-.36 1.06-.41.214-.48-1.488-5.31-2.09-5.85-.354-.32-2.106-.57-2.352-1.08-.123-.26-.204-.68-.03-.77zM60.24 61.37c.347-.214 1 .208 1.366.807 1.3 2.13 4.202 11.098 7.405 16.11.31.482.04.84-.24 1.024-1.33.87-2.16.5-3.28-1.15-1.84-2.7-5.22-11.04-5.87-14.24-.18-.9-.22-2.02.63-2.54zm24.474 108.754c-.233-.13-.418-.272-.563-.426-1.06-.757-3.47-2.27-5.93-2.4.31.438.41 1.062-.52 1.748 0 0-2.96 1.402-5.3 3.213-.03.3-.04.74.02 1.28.47 1.9 2.41 4.15 2.41 4.16h.01c1.09.88 2.65 1.68 4.88 2.23 0 0 .5.08 1.2.36 1.12.44 2.77 1.38 3.81 3.29 1.03-1.9 2.67-2.85 3.79-3.29l-.1-.01s.11-.02.3-.07c.61-.23 1.03-.3 1.03-.3.54-.13 1.04-.28 1.51-.44l.01-.01c.14-.05.28-.11.42-.16.27-.1.53-.21.79-.33l.07-.03c.23-.11.46-.22.67-.34l.08-.04c.48-.27.9-.57 1.22-.9 0 0 2.07-2.13 2.51-3.98.04-.26.06-.51.07-.72l-.02-.25-.01-.05-.05-.22.05.21.01.05.03.13c.01-.46-.04-.79-.06-.94-2.27-1.66-4.9-2.91-4.9-2.91-.94-.69-.83-1.32-.52-1.76h-.02l-1.29.12c-2.1.39-4.04 1.61-4.97 2.27l-.58.43zm42.146 14.736c-3.235 2.28-8.133 5.605-13.585 8.85l-.03.017c-.612.365-1.23.728-1.854 1.088 1.54.438 3.13.845 4.74 1.203 4.74-6.533 10.55-10.877 10.55-10.877.07-.09.14-.19.21-.29l-.01.01z"/><path fill="#919496" d="M72.485 101.105c.717-1.325 1.507-2.62 2.367-3.877-1.878-1.802-8.64-7.914-2.367 3.877zM173.2 95.493c1.847 2.443 3.425 5.037 4.696 7.754 4.65-7.64-.31-8.32-4.697-7.754z"/><path fill="#FFF" d="M181.068 113.343c-.215-1.278-.5-2.54-.844-3.785-2.313 2.688-4.354 4.437-4.354 4.437-3.652-2.543-1.884-5.42-1.884-5.42.546-.654 1.037-1.274 1.496-1.867.99-1.287 1.79-2.437 2.412-3.46-1.27-2.717-2.85-5.31-4.696-7.754-.935.12-1.84.297-2.62.476-1.436.326-2.452.658-2.452.658-4.426-.663-3.87-5.42-3.87-5.42 1.25-.666 2.43-1.233 3.542-1.72-10.44-9.85-25.894-16.088-43.14-16.088-17.516 0-33.18 6.43-43.628 16.542-2.33 2.258-4.404 4.696-6.178 7.288-.86 1.258-1.65 2.552-2.367 3.877-.397.735-.772 1.48-1.122 2.232-2.37 5.09-3.67 10.61-3.67 16.38 0 .18.005.35.007.53.107-6.2 2.236-12.02 5.91-17.12l.284-.39c.63-.85 1.304-1.68 2.02-2.49 2.753-3.11 6.114-5.87 9.952-8.2 8.284-5.03 18.794-8.04 30.234-8.04 26.736 0 48.408 16.44 48.408 36.72 0 20.28-21.672 36.72-48.408 36.72-23.957 0-43.844-13.21-47.72-30.54 4.256 22.16 27.83 39.11 56.277 39.11 1.18 0 2.352-.04 3.516-.1.44 1.93.86 4.23 1.05 6.63h-.005s.188 2.77-.07 5.72c-.228 2.68-.827 5.52-2.264 6.54l-.02.01.017-.01c-.06.09-.13.19-.2.29 0 0-5.81 4.34-10.55 10.88-1.61-.36-3.2-.77-4.73-1.21l-6.09-1.97c-9.16-3.3-15.4-7.15-14.47-7.71 2.73-1.64 20.29-4.96 12.31-14.95-1.71-3.33-6.21-9.7-15.13-8.33 0 0-1.41 1.2-.73 2.31 4.8-2.92 8.8.18 8.8.18l-.1-.05c-.18-.09-.36-.18-.54-.26l-.28-.12c-.13-.06-.26-.11-.39-.16l-.27-.1c-.15-.06-.31-.11-.46-.15l-.11-.03c-2.77-.78-4.89-.09-6.41.94-2.02 1.38-2.99 3.37-2.99 3.37-.41 1.71.8 1.88.81 1.89.94-.67 2.88-1.89 4.98-2.28h-.02c.54-.15 1.05-.27 1.54-.38.57-.12 1.11-.22 1.61-.28l.26-.04c5.4-.63 6.66 1.97 6.73 4.37v.02c.05 1.86-.62 3.6-.62 3.6.54-1.56.67-2.8.52-3.79v-.01c-.4-2.65-2.81-3.51-4.99-3.74-.2-.02-.4-.04-.59-.05-1.69-.09-3.1.15-3.11.15h-.01.01c-.31.44-.42 1.06.52 1.76 0 0 2.63 1.24 4.89 2.9.03.15.08.48.07.94.32 1.68.96 8.28-8.56 7.42-1.12.44-2.75 1.38-3.78 3.28-1.04-1.91-2.68-2.85-3.8-3.3-10.37 1-8.76-7.08-8.53-8.04l.02-.1-.02.09c-.1.38-.07.81.04 1.27-.07-.54-.05-.98-.02-1.29 2.33-1.81 5.3-3.21 5.3-3.21.93-.69.83-1.31.52-1.75 2.46.13 4.87 1.65 5.93 2.4-1.39-1.43.75-3.61.75-3.61-.71-.77-1.75-1.67-3.1-2.27 2.46-1.23.24-3.1.24-3.1-6.14-.94-10.18 1.79-12.67 4.66 5.08-2.69 8.64-2.59 10.58-2.14 1.14.26 1.72.64 1.72.64-2.16-.69-4.53-.54-6.64-.1-3.46.73-6.21 2.28-6.23 2.29-1.93 2.49-2.73 4.88-2.73 4.88l.02.03c-6.46 9.38 10.25 12.56 12.9 14.15.65.39 1.08.64 1.4.8-5.7 21.37 6.78 20.48 20.76 14.19l-2.95-3.23.38-.17c-14.75 6.85-14.34-6.33-13.69-11.43 4.78 4.55 9.34 8.32 13.69 11.43l4.05 2.73c3.09 1.97 6.06 3.59 8.93 4.9-1.1 2.96-1.66 6.1-1.36 9.32.01.11.01.2.03.31 1.23.19 2.46.35 3.71.5.22-2.57.64-5.51 1.43-8.53 3.08 1.16 6.02 1.96 8.82 2.45 2.55.44 4.99.63 7.32.59 1.97-.03 3.85-.22 5.66-.53-.59 1.96-1.08 3.97-1.39 5.99 22.86-2.69 43.2-13.62 57.96-29.74l.03-.39c1.4-17.23-1.88-40.24-12.65-70.97"/><path fill="#FFF" d="M75.638 166.885c.752.05 1.58.178 2.49.393l.092.02-.092-.02c-.368-.07-1.84-.318-3.52-.12-1.822.212-3.887.946-5.058 3-.293.517-.53 1.114-.694 1.81-.037.156-.065.323-.095.488-.14.803-.19 1.718-.12 2.77l-.63-.505s-.02-.4.03-1.02c.02-.27.06-.58.12-.93.34-2.03 1.45-5.02 5.03-5.74.72-.15 1.54-.2 2.47-.14zm56.252 30.83c-4.23.117-8.543-.314-12.715-1.076 3.216-5.33 8.275-9.86 16.208-11.69l-4.525-20.41s9.422-2.22 20.43-7.08v25.55s-4.536 5.3-8.775 12.98l.034-.01c.104-.03.463-.13 1.01-.31.222-.08.445-.15.665-.24.793-.3 1.815-.72 2.98-1.29.21-.13.415-.25.62-.38 15.854-9.89 14.893-42.56 14.764-23.67-.102 14.24-9.484 21.12-15.385 24.04-1.28.73-2.66 1.31-4.16 1.7-.16.04-.32.09-.49.13l-.03.01-.02.04c-1.37.43-2.78.77-4.21 1.02-2.09.37-4.23.58-6.39.64zm5.354 10.38s1.04-.003 2.773-.274c6.256-.98 21.53-5.48 29.215-26.03v2.2s-9.267 27.36-31.035 24.27c-.314-.04-.63-.09-.953-.15z"/><path fill="#D0D2D3" d="M142.51 196.01c4.24-7.688 8.775-12.988 8.775-12.988v-25.554c-11.006 4.86-20.428 7.074-20.428 7.074l4.524 20.405c-7.93 1.832-12.99 6.363-16.2 11.69 4.17.763 8.49 1.193 12.72 1.075 2.17-.06 4.31-.266 6.4-.642 1.43-.26 2.84-.597 4.21-1.024l.03-.037zm-5.377 12.444c-1.81.315-3.693.502-5.656.53-2.328.035-4.766-.153-7.315-.594-2.804-.488-5.74-1.285-8.817-2.445-.79 3.015-1.216 5.953-1.432 8.53 1.96.225 3.936.395 5.928.497 1.61.082 3.24.125 4.87.125 1.12 0 2.23-.03 3.34-.065 2.6-.093 5.16-.287 7.7-.587.32-2.02.8-4.028 1.4-5.99zM68.38 126.93c3.875 17.336 23.763 30.538 47.72 30.538 26.736 0 48.408-16.442 48.408-36.725S142.836 84.02 116.1 84.02c-11.44 0-21.95 3.01-30.235 8.043-3.837 2.332-7.2 5.098-9.95 8.2-.718.808-1.39 1.638-2.022 2.487l-.284.386c-3.68 5.093-5.81 10.92-5.91 17.114-.01.165-.01.327-.01.492 0 2.11.24 4.175.68 6.188m46.84 17.85c7.02-8.114-3.2-5.376-3.2-5.376 13.55-3.96 3.2 5.375 3.2 5.375zm-16.44-3.53c7.62 5.677 16.43 0 16.43 0-1.09 1.533-2.55 2.478-4.18 3.002-.63.223-10.06 3.443-10.06 3.443 3.85.387 2.02 2.505 2.02 2.505.29-2.888-3.76-1.35-3.76-1.35-.27-1.585 2.82-3.054 6.26-4.184-7.22-.815-13.77-5.884-6.17-4.48 7.8 1.444 8.1-1.934 7.5-4.234-.95-.438-3.5-1.733-5.38-3.85 0 0 4.21-8.564 5.76-4.04 0 0 3.48-5.094 3.48 3.084 0 0-2.56 1.742-3.29 4.02 2.02 7.754-8.63 6.083-8.63 6.083z"/><path fill="#6C6F71" d="M106.84 135.952c.603 2.302.303 5.68-7.498 4.235-7.603-1.403-1.047 3.664 6.167 4.48-3.44 1.13-6.53 2.598-6.27 4.184 0 0 4.05-1.53 3.76 1.35 0 0 1.84-2.11-2.02-2.5 0 0 9.42-3.22 10.05-3.44 1.63-.52 3.09-1.47 4.18-3 0 0-8.81 5.68-16.44 0 0 0 10.64 1.67 8.62-6.08-.1.31-.17.63-.19.96 0 0-.14-.06-.38-.17z"/><path fill="#1D8FCD" d="M110.702 131.146c0-8.178-3.478-3.084-3.478-3.084-1.553-4.524-5.762 4.04-5.762 4.04 1.877 2.115 4.43 3.41 5.38 3.85.24.108.382.167.382.167.02-.33.09-.65.19-.96.734-2.28 3.288-4.02 3.288-4.02z"/><path fill="#1D8FCD" d="M107.266 133.88l-.042.15s.01-.055.042-.15c1.21-4.32 1.8-2.16 1.8-2.16-1.283.907-1.685 1.813-1.8 2.16z"/><path fill="#FFF" d="M107.266 133.88c-.03.095-.042.15-.042.15l.042-.15zm0 0c.115-.347.518-1.253 1.8-2.16 0 0-.59-2.16-1.8 2.16z"/><path fill="#6C6F71" d="M115.223 144.78s10.35-9.337-3.2-5.376c0 0 10.226-2.738 3.2 5.375z"/><path fill="#EF6EA8" d="M98.57 196.718c-4.35-3.106-8.912-6.88-13.69-11.43-.652 5.1-1.063 18.28 13.69 11.43z"/><path fill="#FFF" d="M126.86 184.86l-1.155-8.87c-6.89 6.574-12.244 11.04-16.96 14.465l4.53 3.256c5.452-3.24 10.35-6.56 13.586-8.85zm-37.142-4.92s-.418.073-1.03.298c.478-.11 1.47-.356 2.537-.735-.466.16-.965.308-1.507.436zm12.896 19.508l-1.424.657c.472-.212.947-.432 1.424-.657zm-5.634-25.716c.057-.248.08-.487.07-.72-.007.218-.03.463-.07.72zm-16.073 6.573c-.704-.28-1.2-.363-1.2-.363-2.225-.543-3.783-1.342-4.873-2.23.516.528 1.293.978 2.12 1.347 1.818.8 3.878 1.22 3.953 1.24zm3.996-14.222c.675-.688 1.34-1.235 1.994-1.674-.825.52-1.49 1.13-1.994 1.67zm-16.083-.035l.534-.65c-.185.217-.364.433-.533.65z"/><path fill="#D0D2D3" d="M101.19 200.105l1.424-.657-4.044-2.73-.383.173 2.952 3.24m12.13-6.42l-4.53-3.25-3.45 2.4 6.09 1.97c.62-.36 1.24-.72 1.85-1.09l.03-.01zm12.43-17.72l1.15 8.87.02-.01c1.44-1.02 2.03-3.85 2.26-6.54.25-2.95.06-5.72.06-5.72l-3.51 3.41z"/><path fill="none" d="M142.51 196.01l.035-.01"/><path fill="#D0D2D3" d="M162.582 170.124c.13-18.892 1.09 13.776-14.764 23.666-.205.128-.41.25-.62.373 5.9-2.92 15.282-9.794 15.384-24.04zm-15.385 24.04c-1.162.572-2.186.993-2.98 1.286-.218.084-.44.157-.665.235-.545.186-.903.285-1.008.313.166-.04.324-.086.488-.13 1.497-.397 2.884-.975 4.165-1.705zm22.035-10.18v-2.205c-7.685 20.55-22.96 25.05-29.215 26.03-1.732.27-2.773.27-2.773.27l.953.15c21.77 3.09 31.035-24.26 31.035-24.26zm-77.654-16.698c.01 0 1.425-.242 3.115-.147.195.01.39.02.592.04 2.185.22 4.595 1.09 4.997 3.73h.002c.15.99.02 2.23-.516 3.79 0 0 .67-1.74.624-3.6v-.03c-.068-2.4-1.326-5-6.727-4.37l-.267.03c-.5.06-1.035.15-1.608.28-.486.1-.995.23-1.536.38h.014l1.297-.13.013-.01zm-6.675-1.203s-2.143 2.185-.753 3.615c.145.15.33.295.563.426l.58-.438c-.006 0-1.222-.172-.806-1.886 0 0 .963-1.99 2.988-3.368 1.52-1.033 3.642-1.72 6.41-.943l.115.03c.153.04.31.1.467.15l.265.09c.132.05.264.1.398.16.096.03.19.07.285.12.178.08.36.16.542.25l.106.05s-3.997-3.1-8.793-.18c-.125.07-.25.15-.374.23-.652.44-1.318.99-1.993 1.67z"/><path fill="none" d="M95.13 163.926c-.134-.056-.266-.11-.398-.158m1.226.532c-.183-.092-.364-.176-.542-.255m-.948-.37c-.157-.056-.313-.106-.467-.153"/><path fill="#D0D2D3" d="M68.144 172.768c-.057.344-.09.657-.112.932-.046.62-.023 1.02-.023 1.02l.63.505c-.07-1.053-.02-1.968.12-2.77.03-.166.06-.333.09-.488.16-.695.4-1.294.69-1.81 1.17-2.054 3.23-2.79 5.05-3 1.68-.2 3.15.05 3.52.12-.91-.217-1.74-.342-2.49-.394-.93-.06-1.75-.008-2.47.14-3.59.727-4.7 3.71-5.03 5.745zm9.984-5.49l.092.02-.092-.02zm-8.774-1.88l-.533.648-.02.027h.01c.02-.012 2.78-1.56 6.24-2.293 2.11-.447 4.48-.596 6.64.095 0 0-.58-.377-1.72-.64-1.94-.445-5.5-.553-10.58 2.138v.002l-.02.023zm11.553 14.907c-.075-.018-2.134-.438-3.952-1.246-.828-.37-1.605-.82-2.12-1.35l-.008-.01c-.006-.01-1.94-2.26-2.41-4.17-.11-.46-.136-.9-.032-1.28l.02-.09-.024.09c-.22.96-1.83 9.03 8.53 8.03zm16.145-7.29c.01.23-.014.472-.072.72-.438 1.85-2.506 3.974-2.506 3.974-.32.32-.745.62-1.22.89l-.076.04c-.216.12-.442.23-.674.34l-.065.03c-.26.11-.53.22-.79.32-.14.05-.27.1-.42.15h-.01c-1.07.38-2.06.62-2.54.73l-.3.06.11.01c9.52.87 8.87-5.74 8.56-7.42l-.03-.13.02.25zm-.032-.295c-.03-.134-.05-.21-.05-.21l.05.21zm.01.046l-.01-.045.01.05z"/><path fill="#FFF692" d="M68.765 79.312c.285-.186.554-.542.246-1.023-3.2-5.02-6.1-13.99-7.4-16.12-.36-.6-1.02-1.02-1.36-.81-.84.52-.8 1.64-.62 2.54.65 3.19 4.03 11.53 5.87 14.24 1.13 1.65 1.95 2.02 3.29 1.15zM76.86 61.91c.603.537 2.305 5.368 2.09 5.846-.025.054-.69.233-1.06.41-1.36.65-1.94 1.94-1.13 3.54.776 1.53 1.943 2.267 3.315 1.608 1.12-.538 1.658-2.636 1.932-2.81.183-.116 2.224.53 3.2.13 2.31-.947 2.843-4.463 2.136-6.417-.203-.562-.43-.896-.613-.83-.533.195-.477 3.89-1.676 4.368-1.128.45-2.735.296-3.112-.058-.172-.162-.306-1.056-.522-1.557-.708-1.647-2.057-4.342-1.835-4.84.604-1.362 4.44-5.58 3.783-7.388-.932-2.563-2.76-2.675-4.447-2.004-2.34.932-1.76 7.157-2.44 8.063-.09.13-1.5-.14-2 .1-.17.08-.09.5.03.76.25.52 2 .77 2.35 1.09z"/><path fill="#EF6EA8" d="M79.813 69.932c.225.207.138 1.196-.426 1.465-.272.13-.67.092-.896-.375-.22-.468-.04-.845.29-1 .28-.134.9-.217 1.04-.09zm.007-15.642c.665-.264 1.15.023 1.46.823.42 1.09-1.918 4.177-2.284 4.01-.234-.107-.404-4.344.825-4.833z"/><path fill="#FFF692" d="M95.34 67.243c3.624-1.047 3.825-7.366 4.954-9.708.245-.505 1.4-1.67 1.163-2.867-.045-.23-.208-.41-.367-.377-.457.1-.986.94-1.052.91 0 0-.128-.79-.214-1.2-.493-2.31-1.755-4.07-3.654-3.62-1.63.39-2.33 2.25-1.838 4.1.658 2.49 3.71 3.34 4.055 3.68.352.35-1.275 4.99-3.826 5.72-1.98.57-3.79-1.01-4.84-4.28-1.17-3.63-.73-8.53 2.42-9.39 2.24-.61 3.62-.45 4.25-.6.36-.08.61-.19.56-.42-.26-1.14-2.43-2.21-5.29-1.43-5.29 1.44-6.61 8.06-4.58 13.78 1.37 3.85 4.3 6.87 8.28 5.72z"/><path fill="#EF6EA8" d="M98.276 55.455s-1.22-.915-1.443-1.85c-.127-.53-.093-1.02.19-1.086.547-.13.852.92.985 1.5.11.48.316 1.39.268 1.43z"/><path fill="#FFF692" d="M100.717 49.782c.807-.16 1.05-1.524 1.825-1.662.652-.116 1.03.85 1.215 1.925.376 2.202-.1 8.75.15 10.104.606 3.27 2.236 4.45 4.363 4.14 5.1-.76 4.264-10.3 5.592-12.67.237-.43 1.455-1.44 1.377-2.58-.02-.24-.16-.44-.33-.42-.48.03-1.12.77-1.18.74 0 0-.05-.81-.08-1.2-.22-2.64-1.25-4.27-3.24-4.06-1.72.18-2.68 1.93-2.43 3.84.35 2.7 3.55 3.73 3.99 4.17.67.67-.91 8.42-3.69 8.82-1.01.14-1.45-.7-1.58-1.52-.59-3.75.26-7.45-.2-10.61-.22-1.49-1.13-3.9-3.28-3.54-1.96.33-3.39 1.99-3.02 3.85.1.53.27.68.47.64z"/><path fill="#EF6EA8" d="M111.91 49.454s-1.142-1.085-1.245-2.04c-.057-.543.044-1.024.342-1.054.574-.06.743 1.02.8 1.616.05.49.154 1.445.102 1.478z"/><path fill="#FFF692" d="M121.826 63.213c2.962-.033 5.555-2.326 5.678-5.13.025-.596-.11-.992-.305-1-.39-.014-1.91 3.136-4.29 3.137-1.82 0-3.06-.812-3.12-2.966-.06-1.766.62-3.34 1.09-3.43.15-.03.64.196.95.193.81-.008 1.99-.235 2-1.326.01-.96-.85-1.15-1.76-1.14-.25 0-.58.12-.67.09-.31-.09-.85-1.39-.87-2.5 0-.13 0-.41.01-.41 0 0 1.67 1.22 2.79 1.23 2.2.01 3.61-1.36 3.67-3.17.09-2.49-1.67-3.25-3.46-3.26-1.92-.01-3.85 1.4-4.38 1.41-.36.01-1.6-1.94-2.14-1.91-.22.01-.43.26-.41.59.04.75 1.28 2.29 1.34 2.85.04.37-.51 1.56-.47 2.39.08 1.84 1.67 3.71 1.65 3.94-.02.13-2.73 2.55-2.56 5.32.23 3.79 2.39 5.17 5.21 5.14z"/><path fill="#EF6EA8" d="M123.4 46.062c.704.003 1.272.324 1.263 1.025-.01.598-.473.85-1.145.846-.965-.005-2.35-.618-2.382-.845-.027-.195 1.412-1.03 2.264-1.026z"/><path fill="#FFF692" d="M136.238 71.205c3.2.465 5.12-5.81 6.08-6.76 1.016-1.01 4.623-1.86 5.018-3.503.14-.58.154-.98-.033-1.023-.152-.04-.512.12-.945.55-.57.56-3.063 1.58-3.164 1.47 0 0 2.46-7.72 3.46-9.66.555-1.07 1.227-2.07 1.397-2.84.42-1.88-.17-2.63-1.47-2.89-.77-.16-1.5 1.34-2.03 2.75-.7 1.87-2.12 6.27-3.41 8.75-.47.9-1.44 1.6-2.25 1.47-.64-.1-.93-.61-.78-1.69.49-3.42 2.36-6.32 2.81-9.19.21-1.34 0-3.68-2.16-3.97-1.96-.26-3.81.91-4 2.8-.05.54.05.73.26.76.82.08 1.45-1.15 2.23-1.05.66.08.76.93.64 1.83-.32 2.47-2.38 5.73-2.67 8.25-.31 2.68.44 4.41 2.2 4.66.94.13 2.62-.55 2.68-.51 0 0-.24.91-.36 1.57l-.13.03c-3.02.91-6.06 2.07-6.26 3.93-.29 2.68 1.22 3.97 2.93 4.22z"/><path fill="#EF6EA8" d="M135.053 67.506c.12-.927 3.623-2.146 3.824-1.938 0 0-1.545 3.774-2.367 3.655-.787-.114-1.57-.84-1.457-1.717z"/><path fill="#FFF692" d="M151.598 67.553c3.615 1.09 7.246-4.104 9.47-5.45.48-.292 2.1-.633 2.55-1.768.087-.217.048-.456-.103-.516-.44-.18-1.347.24-1.392.18 0 0 .328-.74.476-1.13.84-2.21.73-4.38-1.13-5.04-1.6-.57-3.19.61-3.79 2.44-.8 2.44 1.32 4.82 1.42 5.29.1.48-3.8 3.49-6.34 2.72-1.98-.6-2.63-2.92-1.75-6.23.99-3.69 4.01-7.56 7.13-6.58 2.22.7 3.3 1.59 3.9 1.81.34.12.63.17.71-.05.4-1.1-.86-3.19-3.7-4.09-5.24-1.67-9.91 3.18-11.31 9.09-.95 3.97-.15 8.09 3.82 9.28z"/><path fill="#FFF" d="M133.273 137.12c12.068 0 22-9.097 23.23-20.76.13-.368.126-2.626.13-2.492-.08-12.792-10.475-23.157-23.358-23.157-12.9 0-23.358 10.39-23.358 23.21-.002 12.82 10.456 23.21 23.356 23.21m-43.403-5.31c9.31 0 16.97-7.01 17.918-16.01.1-.28.098-2.02.1-1.92-.06-9.87-8.078-17.86-18.016-17.86-9.95 0-18.018 8.02-18.018 17.9 0 9.89 8.066 17.9 18.017 17.9"/><path fill="#EF6EA8" d="M160.275 56.918c.182-.514.477-.907.752-.808.533.19.22 1.24.014 1.8-.16.464-.49 1.342-.55 1.347 0 0-.53-1.432-.21-2.34z"/><path fill="#FFF692" d="M165.654 55.834c.775.31 1.725-.704 2.465-.392.61.26.41 1.278-.02 2.28-.88 2.052-4.87 7.28-5.39 8.553-1.27 3.074-.53 4.966 1.47 5.875 1.75.8 5.12-2.017 5.14-2 0 0-1.62 3.682-.44 4.294 1.8.94 5.1-.578 6.23-2.538.3-.518.38-.828.21-.927-.33-.19-3.38 1.71-4.05 1.35-.31-.17.01-1.06.68-2.32 1.65-3.13 5.63-8.3 6.41-9.74.78-1.44 1.17-2.35.7-2.61-1.01-.54-2.92-.38-3.69 1.15-.28.55-1.94 4.02-2.38 4.88-.26.39-.39.59-.64.99-1.83 2.62-4.53 5.5-6.34 4.66-.94-.44-.86-1.39-.52-2.15 1.54-3.47 4.29-6.1 5.63-9 .63-1.37 1.16-3.89-.88-4.77-1.86-.81-3.98-.19-4.68 1.57-.2.51-.15.72.05.8zm12.736 17.33c.95.59 2.325.647 2.835-.14.396-.61.775-1.57 1.156-2.16 1.47-2.267 4.88-2.852 5.95-4.374.21-.292.26-1.776-.51-2.283-.24-.16-.56-.24-.99-.12-3.15.897-6.91 4.89-8.34 7.243-.52.865-.65 1.488-.09 1.835zm-.673 1.57c-.918-.57-2.658.36-3.613 1.968-.373.625-.428 1.193.13 1.534.98.594 3.325-.024 3.987-1.12.36-.588.14-1.984-.5-2.38z"/><circle fill="#0071BC" cx="92.231" cy="113.916" r="14.23"/><path fill="#0F4481" d="M86.32 119.777c-3.382-3.908-2.955-9.808.948-13.187 3.904-3.376 9.805-2.955 13.188.953 3.377 3.902 2.952 9.808-.953 13.185-3.9 3.378-9.807 2.953-13.184-.95z"/><path fill="#FFF" d="M91.764 116.91c-1.796-2.076-1.57-5.21.505-7.005 2.07-1.794 5.21-1.574 7.01.502 1.79 2.076 1.56 5.215-.51 7.012-2.08 1.79-5.21 1.56-7.01-.51z"/><circle fill="#FFF" cx="84.201" cy="112.373" r="2.419"/><circle fill="#0071BC" cx="137.042" cy="113.916" r="17.873"/><path fill="#0F4481" d="M129.616 121.278c-4.246-4.908-3.71-12.32 1.192-16.562 4.902-4.24 12.315-3.71 16.563 1.196 4.25 4.9 3.71 12.318-1.19 16.56-4.9 4.243-12.31 3.71-16.56-1.194z"/><path fill="#FFF" d="M136.454 117.676c-2.254-2.608-1.97-6.544.636-8.8 2.603-2.253 6.546-1.976 8.804.63 2.254 2.608 1.967 6.55-.64 8.808-2.607 2.254-6.544 1.968-8.8-.638z"/><circle fill="#FFF" cx="126.956" cy="111.978" r="3.038"/><ellipse opacity=".3" fill="#E66" cx="83.681" cy="138.425" rx="5.802" ry="4.69"/><ellipse opacity=".3" fill="#E66" cx="136.216" cy="138.425" rx="5.802" ry="4.69"/></svg>