<svg xmlns="http://www.w3.org/2000/svg" width="250" height="250" viewBox="0 0 250 250"><path opacity=".15" d="M218.676 115.13c0-47.517-41.5-86.036-92.697-86.036s-92.7 38.52-92.7 86.037c0 31.64 18.4 59.26 45.79 74.21-5.2 3.39-8.19 7.35-8.19 11.59 0 12.44 25.7 22.52 57.41 22.52s57.41-10.08 57.41-22.51c0-4.81-3.87-9.27-10.44-12.93 26.07-15.22 43.4-42.16 43.4-72.86z"/><path fill="#C1B49A" d="M216.676 112.13c0-47.517-41.5-86.036-92.697-86.036s-92.7 38.52-92.7 86.037c0 31.64 18.4 59.26 45.79 74.21-5.2 3.39-8.19 7.35-8.19 11.59 0 12.44 25.7 22.52 57.41 22.52s57.41-10.08 57.41-22.51c0-4.81-3.87-9.27-10.44-12.93 26.07-15.22 43.4-42.16 43.4-72.86z"/><circle fill="#9A8479" cx="125.389" cy="120.692" r="68.348"/><path fill="#FFF" d="M172.53 191.636c-2.59-.782-5.602-.323-7.874 1.948.14.572.212 1.153.212 1.74 0 9.272-17.768 16.79-39.685 16.79s-39.683-7.52-39.683-16.79 17.766-16.788 39.683-16.788c1.46 0 2.898.037 4.316.102v-3.745c-1-.027-2.01-.047-3.02-.047-25.86 0-46.82 9.168-46.82 20.478s20.96 20.478 46.82 20.478c25.85 0 46.82-9.168 46.82-20.478 0-1.262-.28-2.493-.77-3.69z"/><path fill="#D0D2D3" d="M115.008 180.094l-4.564 13.79 12.313-12.182 6.98-1.608 8.744 15.396-3.65-18.474"/><path fill="#FFF" d="M110.428 179.023s-3.855 12.05-4.925 17.673c0 0 2.41 4.685 7.497 0l5.357-9.238s-.402 4.552.67 3.48l5.487-11.915-5.756 1.07-6.926 12.45 4.383-11.916m22.447-1.604s3.854 12.05 4.927 17.673c0 0-2.42 4.685-7.5 0l-5.36-9.238s.4 4.552-.67 3.48l-5.49-11.915 5.76 1.07 6.92 12.45-4.39-11.916m7.19-46.367l-16.35 3.114-14.81-3.114s-18.86 48.197 15.57 51.056c34.43-2.86 15.58-51.056 15.58-51.056z"/><path fill="#D0D2D3" d="M73.35 94.156s-3.863 4.665-8.684 4.397c0 0-5.088 4.278 2.142 7.63 0 0 7.5 3.878 8.032 0l-1.49-12.027z"/><path fill="#919496" d="M73.35 103.38s-5.47 2.27-8.417-2.35c0 .002 3.03 7.784 8.417 2.35z"/><path fill="#D0D2D3" d="M176.304 94.156s3.863 4.665 8.682 4.397c0 0 5.09 4.278-2.14 7.63 0 0-7.5 3.878-8.037 0l1.49-12.027z"/><path fill="#919496" d="M176.304 103.38s5.47 2.27 8.415-2.35c0 .002-3.04 7.784-8.42 2.35z"/><ellipse fill="#FFF" cx="124.46" cy="100.695" rx="53.565" ry="40.117"/><ellipse fill="#D0D2D3" cx="124.459" cy="98.553" rx="47.672" ry="35.707"/><ellipse fill="#FFF" cx="101.191" cy="96.478" rx="22.511" ry="22.362"/><ellipse fill="#FFF" cx="147.874" cy="96.478" rx="22.51" ry="22.362"/><circle fill="#FFF" cx="141.283" cy="103.381" r="2.802"/><circle fill="#0071BC" cx="101.19" cy="96.477" r="19.954"/><path fill="#0F4481" d="M92.9 104.698c-4.74-5.48-4.142-13.755 1.33-18.492 5.475-4.734 13.75-4.143 18.492 1.336 4.737 5.472 4.14 13.752-1.335 18.49-5.47 4.736-13.75 4.138-18.486-1.334z"/><path fill="#FFF" d="M100.536 100.677c-2.52-2.913-2.202-7.308.708-9.823 2.906-2.517 7.308-2.208 9.828.703 2.517 2.912 2.196 7.312-.714 9.833-2.91 2.514-7.304 2.195-9.822-.713z"/><circle fill="#FFF" cx="89.932" cy="94.313" r="3.392"/><circle fill="#0071BC" cx="147.873" cy="96.477" r="19.954"/><path fill="#0F4481" d="M139.584 104.698c-4.74-5.48-4.143-13.755 1.33-18.492 5.474-4.734 13.75-4.143 18.49 1.336 4.74 5.472 4.14 13.752-1.334 18.49-5.47 4.736-13.75 4.138-18.486-1.334z"/><path fill="#FFF" d="M147.22 100.677c-2.52-2.913-2.202-7.308.707-9.823 2.906-2.517 7.31-2.208 9.828.703 2.518 2.912 2.196 7.312-.714 9.833-2.91 2.514-7.3 2.195-9.82-.713z"/><circle fill="#FFF" cx="136.614" cy="94.313" r="3.392"/><path fill="#B2E2F9" d="M100.192 116.94s1.517 1.52-.537 8.572c0 0-.425 1.605.457 2.14 0 0 3.66 3.482 5.796-.802 0 0 .362-.536 0-1.875 0 0-1.433-5.02-.452-8.848l-5.264.814z"/><path fill="#26A9E0" d="M103.09 129.39c-1.6 0-2.994-1.206-3.223-1.417-1.08-.7-.62-2.488-.6-2.564 1.904-6.54.654-8.17.64-8.19l-.56-.56 6.65-1.03-.15.59c-.943 3.67.433 8.59.448 8.64.4 1.48-.005 2.14-.054 2.21-.75 1.52-1.82 2.31-3.15 2.31zm-2.272-12.138c.37.963.706 3.28-.777 8.37-.08.333-.22 1.38.28 1.687l.07.05c.02.01 1.31 1.22 2.71 1.22 1 0 1.83-.65 2.46-1.92.02-.04.27-.49-.03-1.59-.05-.2-1.31-4.69-.58-8.47l-4.12.63z"/><path fill="#6C6F71" d="M123.376 116.127v3.15l2.223 1.25-1.41-4.4"/><path fill="#1D8FCD" d="M124.24 117.716l3.647-4.702s-1.826-3.422-3.694-.08c-1.867-3.342-3.694.08-3.694.08l3.64 4.702v.12l.04-.06.04.06v-.12z"/><path fill="#FFF" d="M123.376 116.127s-.033-2.4-1.238-1.368l1.238 1.36zm1.604 0s.032-2.4 1.236-1.368l-1.237 1.36z"/><path fill="#ACAFB1" d="M91.638 117.265s9.233-11.992 31.12-13.833c0 0-1.666 8.996-13.276 14.377 0 0-8.723 4.77-17.844-.55z"/><path fill="#B2E2F9" d="M100.79 119.374c-2.746-.023-3.644-.27-3.895-.37-.235-1.154-.238-2.353-.01-3.57l.08-.42-.427-.05c-.853-.104-1.673-.308-2.31-.575l-.246-.11-1.305 1.28c.014-.94.147-2.49.754-3.98.09-.23.19-.45.31-.67.41-.8.93-1.47 1.55-2.01h.01l.11-.1c.77-.73 1.66-1.36 2.64-1.89 1.95-1.04 3.95-1.64 5.49-1.64.32 0 .62.02.9.08l.05.01.13-.01c.3 0 1.72.04 3.35.86l-1.65.66.05.31c.32 1.98-1.3 5.18-4.48 6.87-.24.13-.51.25-.81.37l-.26.1v4.8z"/><path fill="#26A9E0" d="M103.53 105.7c.296 0 .57.022.818.07l.093.016.1-.004h.06c.23 0 1.14.028 2.3.446l-.45.183-.59.24.1.64c.3 1.86-1.34 4.9-4.27 6.46-.23.12-.48.24-.77.35l-.51.2v4.68c-1.91-.03-2.78-.18-3.14-.27-.18-1.03-.17-2.09.04-3.18l.16-.84-.85-.1c-.82-.1-1.6-.29-2.2-.54l-.49-.2-.38.38-.37.37c.08-.83.27-1.84.68-2.83.08-.19.17-.4.29-.62.37-.7.82-1.3 1.36-1.79h.02l.2-.19c.74-.7 1.6-1.31 2.56-1.82 1.89-1.01 3.83-1.58 5.3-1.58m0-.8c-1.67 0-3.76.66-5.67 1.68-1.05.56-1.96 1.23-2.73 1.95-.76.64-1.32 1.4-1.73 2.2-.12.24-.23.48-.32.71-1.01 2.5-.76 5.07-.76 5.07l1.77-1.74c.64.27 1.48.49 2.42.61-.2 1.08-.28 2.42.05 3.89 0 0 .34.52 4.64.52h.01v-4.93c.29-.11.58-.24.86-.39 3.34-1.78 5.03-5.16 4.69-7.29l2.17-.87-.24-.1c-1.9-1.13-3.65-1.21-4.07-1.21h-.1c-.3-.05-.62-.08-.97-.08z"/><path fill="#ACAFB1" d="M157.254 117.265s-9.234-11.992-31.12-13.833c0 0 1.665 8.996 13.278 14.377 0 0 8.722 4.77 17.842-.55z"/><ellipse transform="rotate(-31.1 98.6 110.3)" fill="#FFF" cx="98.705" cy="110.366" rx="3.584" ry="1.844"/><path fill="#D0D2D3" d="M115.008 140.188h18.904s6.78 23.317-.17 42.792c0 0-7.894 5.93-17.598.41 0 0-7.562-5.494-1.136-43.202z"/><ellipse transform="rotate(-83.7 102.2 125)" fill="#FFF" cx="102.108" cy="124.978" rx="2.576" ry="1.326"/><path fill="#B2E2F9" d="M154.98 114.286l-.248.103c-.987.41-2.29.65-3.575.65-1.502 0-2.906-.33-4.062-.94-3.18-1.7-4.8-4.89-4.478-6.88l.052-.32-1.65-.67c1.63-.82 3.05-.86 3.34-.86h.12l.05-.01c.27-.05.57-.08.89-.08 1.54 0 3.54.59 5.48 1.63.98.52 1.87 1.15 2.64 1.88l.1.09h.02c.61.53 1.13 1.21 1.54 1.99.12.23.22.45.3.67.61 1.5.74 3.05.76 3.99l-1.31-1.28z"/><path fill="#26A9E0" d="M145.433 105.7c1.478 0 3.408.578 5.3 1.585.95.508 1.81 1.122 2.555 1.823l.206.19h.016c.538.488.992 1.092 1.36 1.806.114.21.208.417.29.632.397.984.584 1.99.665 2.817l-.373-.367-.38-.375-.493.21c-.93.39-2.21.62-3.43.62-1.44 0-2.78-.31-3.87-.89-2.93-1.56-4.57-4.6-4.28-6.46l.1-.63-.6-.24-.46-.18c1.15-.42 2.07-.44 2.3-.44h.05l.09.01.09-.01c.24-.04.52-.07.82-.07m0-.8c-.34 0-.67.03-.97.09h-.1c-.42 0-2.17.07-4.08 1.2l-.24.1 2.17.88c-.34 2.14 1.35 5.52 4.69 7.3 1.35.72 2.85.99 4.25.99 1.46 0 2.81-.3 3.73-.68l1.77 1.74s.25-2.57-.76-5.06c-.09-.23-.19-.47-.32-.71-.41-.8-.97-1.56-1.73-2.2h-.01c-.76-.72-1.68-1.39-2.73-1.94-1.92-1.02-4.01-1.68-5.68-1.68z"/><ellipse transform="rotate(-148.9 150.3 110.3)" fill="#FFF" cx="150.258" cy="110.366" rx="3.585" ry="1.844"/><path fill="#ACAFB1" d="M103.757 160.03v-.388l11.018-7.5 2.51-3.246s-3.627-1.07.177-6.693c0 0 1.995-2.476 3.438-3.38 0 0 3.26-4.404 6.76-.172 0 0 8.735 6.58 3.683 10.25l2.646 3.38 11.22 7.51s.04 5.09-.34 6.09-12.89-7.52-12.89-7.52-8.28.23-8.38-3.17c0 0-.07 3.29-7 3.13l-12.53 7.49-.33-5.76zM78.68 96.478s10.633-19.57 27.23-21.868c0 0-10.938-2.883-19.486 4.997 0 0-7.647 5.057-7.744 16.87zm91.654 0s-10.634-19.57-27.23-21.868c0 0 10.94-2.883 19.485 4.997 0 0 7.64 5.057 7.74 16.87z"/><path fill="#6C6F71" d="M135.896 129.523s-20.95-23.605-22.458-2.985c0 0-9.81 7.176 22.458 2.985z"/><path fill="#BE1E2D" d="M114.072 127.543s.67-18.333 20.752 1.443c0 0-25.707 1.703-20.752-1.443z"/><path fill="#FFF" d="M141.423 138.683s60.592 61.63-9.36 19.32c0 0-7.593.023-8.097-2.823 0 0-1.21-2.265.522-5.567 0 0-.566 4.104-3.755 2.766 0 0-8.837-.81-1.44 1.07l.267-9.46s7.08-7.95.657 1.16c0 0 1.3 1.87-2.16 3.74 0 0-4.305-.54 0-6.96 0 0 10.168-13.13 12.058 5.89l3.496 4.55s52.48 36.68 7.23-6.43"/><path fill="#ACAFB1" d="M117.462 148.717l.626-.99s.397-6.833 3.026-8.755c2.63-1.924-.95 5.474-.95 5.474l-1.44 4.118-.666.333-.596-.18zm13.044-.39l.69.906s-3.903-.57-3.335-4.085c0 0-4.58-7.53-6.92 2.042l1.15-1.74s1.67-1.14 3.64-.066c0 0 3.85 1.807 2.28 7.16 0 0-3.11 1.274-3.88-.902l-.48 2.392-3.85-4.064 2.14-7.633 3.08-1.84 4.92 2.477 1.14 3.984-.17 1.138-.36.232z"/><path fill="#FFF" d="M107.396 138.732s-60.79 61.58 9.16 19.27c0 0 6.317.024 6.82-2.822 0 0 1.085-3.16-.62-6.283 0 0 1.943 4.82 5.13 3.48 0 0 1.65-8.567-5.748-6.692l-1.64 2.945s1.48-12.586 7.904-3.48c0 0-1.3 1.873 2.16 3.747 0 0 4.305-.534 0-6.96 0 0-10.17-13.124-12.058 5.89l-3.497 4.552s-55.325 39.23-10.076-3.89"/><ellipse fill="#B2E2F9" cx="99.553" cy="136.813" rx="3.25" ry="3.265"/><path fill="#26A9E0" d="M99.553 140.48c-2.014 0-3.652-1.646-3.652-3.667s1.64-3.667 3.66-3.667 3.65 1.646 3.65 3.667-1.64 3.667-3.65 3.667zm0-6.53c-1.572 0-2.85 1.284-2.85 2.863 0 1.578 1.278 2.862 2.85 2.862 1.57 0 2.848-1.284 2.848-2.862 0-1.58-1.27-2.863-2.84-2.863z"/><circle fill="#FFF" cx="99.489" cy="136.123" r="1.703"/><path fill="#6D6E70" d="M48.6 74.396c1.085.665 1.63.997 2.715 1.66-.503.84-.75 1.268-1.235 2.13l9.08 5.2c.427-.755.643-1.13 1.085-1.868l2.736 1.673c-2.26 3.79-3.29 5.81-5.07 10.12l-2.96-1.22c.36-.85.54-1.27.91-2.11l-9.54-4.29c-.42.95-.63 1.43-1.03 2.4l-2.94-1.21c2.2-5.3 3.47-7.79 6.26-12.46zm6.305 2.08c-.39-3.43-1.258-5.73-4.477-7.48 2.06-2.186 3.122-3.214 5.292-5.15 2.5 1.866 3.182 5.616 2.838 9.944-1.472 1.013-2.204 1.548-3.653 2.687zm24.135-27.43c.343 1.07.803 2.674.905 3.27.853 3.93 1.354 5.868 2.508 9.67-2.07 1.48-3.08 2.276-5.03 3.963-3.565-2.02-5.41-2.96-9.204-4.66-.42-.18-1.7-.85-2.62-1.65l-.11.1 6.62 6.84c.53-.52.8-.78 1.34-1.28l2.11 2.29c-2.47 2.29-3.65 3.52-5.87 6.16l-2.37-2.03c.46-.55.69-.82 1.17-1.35l-7.92-7.13c-.53.59-.79.9-1.31 1.51l-2.36-2.02c3.83-4.54 5.91-6.61 10.31-10.32 3.5 1.78 5.2 2.74 8.49 4.77-1.18-3.66-1.7-5.53-2.61-9.31 4.67-3.3 7.13-4.74 12.2-7.19l1.38 2.79c-.71.34-1.06.52-1.76.87l4.91 9.42c.61-.32.92-.47 1.54-.77l1.38 2.82c-3.42 1.65-5.08 2.59-8.28 4.72l-1.74-2.61c.59-.39.89-.58 1.49-.96l-4.32-6.81-.77-1.21-.12.07zm20.047-2.34c2.276-.774 3.428-1.115 5.752-1.71.51 1.96 3.18 1.686 4.45 1.453 1.05-.2 2.72-1.27 2.4-1.67-1.68-2.13-11.77.85-14.16-3.92-1.39-2.77 3.25-6.47 6.77-7.28 3.01-.69 6.23-.55 7.91 1.03.02-.82.03-1.23.07-2.06 2.49-.35 3.74-.48 6.25-.65.17 2.41.26 3.62.43 6.03-2.46.16-3.69.29-6.14.64-.26-1.77-2.43-2.49-4.86-2.02-1.01.19-2.39 1.36-2.1 1.74 1.83 2.34 12.9.36 14.08 5.63.69 3.09-3.98 5.4-7.45 5.99-2.95.49-5.21-.11-6.61-.87l.15 1.88c-2.02.52-3.02.82-4.99 1.49l-2-5.75zm21.968-6.576c-.23-6.517 7.146-8.96 12.465-8.482 5.71.513 12.536 4.07 10.854 10.874-1.38 5.576-7.36 7.302-12.354 6.804-5.065-.505-10.758-3.33-10.965-9.196zm15.185.857c.41-2.888-.427-5.382-3.112-5.647-2.125-.21-3.73 1.83-3.89 4.816-.172 3.152 1.18 5.213 3.158 5.404 1.947.188 3.424-1.614 3.844-4.573zm22.938-2.627c7.92 3.215 8.162 6.336 6.823 8.744-.91 1.648-6.03.854-6.03.854 0 .01 3.11 3.467 2.27 4.992-.5.91-.62 1.527-.12 1.803.42.23.78.104 1.02-.316l.4-.69c.75.425 1.12.644 1.87 1.093l-.69 1.133c-1.04 1.71-2.89 2.688-5.83 1.144-3.48-1.822-4.57-4.008-3.45-6.6.87-2.018.77-2.695-1.96-3.72-.54 1.396-.8 2.094-1.34 3.49.71.27 1.06.407 1.77.695-.49 1.178-.73 1.767-1.22 2.944-3.58-1.45-5.42-2.054-9.14-3.016l.82-3.078c.67.174 1.01.265 1.68.454l2.93-10.1c-.76-.216-1.14-.32-1.91-.52l.81-3.053c4.62 1.193 6.89 1.942 11.33 3.746zm-4.76 5.912c.57.214.853.325 1.42.55 1.824.724 3.277.645 3.806-.52.587-1.298-.184-2.453-2.098-3.22-.66-.263-.99-.392-1.654-.642l-1.475 3.832zm28.202 8.232c6.727 5.688 6.05 8.865 4.037 10.747-1.375 1.29-6.11-1.21-6.11-1.21-.01.01 1.99 4.41.727 5.61-.755.72-1.057 1.28-.654 1.71.332.37.722.37 1.08.04l.59-.53c.602.68.9 1.02 1.488 1.71l-1.01.87c-1.52 1.31-3.604 1.6-6.01-.9-2.836-2.95-3.256-5.4-1.4-7.54 1.442-1.66 1.543-2.35-.795-4.22-.934 1.17-1.4 1.76-2.336 2.93.61.49.912.74 1.514 1.25l-2.05 2.45c-3.04-2.57-4.64-3.73-7.96-5.81.69-1.08 1.03-1.62 1.71-2.69.6.38.9.57 1.5.96 2.34-3.51 3.5-5.26 5.84-8.77-.67-.44-1.01-.66-1.69-1.09l1.69-2.68c4.11 2.58 6.1 4.02 9.87 7.21zm-6.37 4.154c.49.39.732.59 1.216.99 1.556 1.293 2.987 1.698 3.845.747.96-1.06.55-2.432-1.08-3.792-.56-.47-.84-.703-1.41-1.158-1.02 1.284-1.54 1.928-2.56 3.213zM195.18 79.2c.49-.118 1.78.096 2.494.18 1.264.26 1.898.407 3.17.727-.414-.783-.626-1.17-1.056-1.936l2.678-1.53c2.18 3.88 3.177 5.92 4.957 10.22l-2.85 1.18c-.344-.83-.522-1.24-.884-2.06-4.1-1.52-6.15-2.11-10.18-2.96l-2.45 1.36c.37.69.56 1.04.92 1.75l-2.78 1.45c-1.99-3.87-3.09-5.69-5.5-9.08l2.54-1.84c.45.63.66.95 1.1 1.6l2.35-1.61c1.04-4.04 1.44-6.13 2-10.41-.47-.57-.71-.86-1.19-1.43.94-.8 1.41-1.21 2.35-2.01 3.46 4.1 5.06 6.32 7.97 11.1l-2.62 1.63c-.43-.7-.64-1.05-1.08-1.73-.37 1.33-.56 1.99-.97 3.28-.27.44-.79 1.69-1.07 2.03l.07.14z"/><circle fill="#0071BC" cx="76.514" cy="286.744" r="27.086"/><path fill="#0F4481" d="M65.26 297.903c-6.435-7.44-5.622-18.67 1.808-25.1 7.43-6.428 18.663-5.626 25.1 1.812 6.43 7.428 5.62 18.668-1.812 25.097-7.425 6.43-18.666 5.62-25.095-1.81z"/><path fill="#FFF" d="M75.625 292.444c-3.42-3.953-2.987-9.92.96-13.334 3.946-3.416 9.922-2.996 13.343.954 3.416 3.952 2.98 9.926-.97 13.347-3.95 3.42-9.916 2.99-13.333-.96z"/><circle fill="#FFF" cx="61.23" cy="283.807" r="4.604"/><path fill="#EF4B4D" d="M131.432 128.93s-7.447-10.64-15.018-2.313c0 0-3.683 5.164 10.217 1.54 0 0 3.5-.82 4.81.773z"/><path fill="#BE1E2D" d="M127.543 125.145s-5.453-1.593-9.327 1.992c0 0 2.463-4.215 9.327-1.992z"/><path fill="#969798" d="M136.385 127.137s3.92 4.682-2.21 3.7c0 0 7.427 2.14 2.21-3.7zm-25.223-.697s-1.578 4.294 2.275 4.78c0 0-4.82.593-2.275-4.78z"/></svg>