<svg xmlns="http://www.w3.org/2000/svg" width="250" height="250" viewBox="0 0 250 250"><path opacity=".15" d="M479.963-70.515c-51.63 0-93.486 41.855-93.486 93.487 0 51.633 41.856 93.487 93.486 93.487 12.896 0 25.186-2.62 36.36-7.34 13.317-5.63 25.06-14.25 34.38-25.03 14.173-16.39 22.747-37.76 22.747-61.13 0-51.63-41.85-93.49-93.48-93.49z"/><circle fill="#7C0" cx="-432.234" cy="170.678" r="97.487"/><path fill="#2AACE3" d="M-473.04 148.09h.002m-36.297 30.21c-.002.124.003.25.014.378-.02-.126-.02-.254-.02-.378z"/><path fill="#0291CA" d="M-402.592 90.062h.017l-.013-.003h-.004z"/><path fill="#FFF" d="M-361.336 233.788c-12.416-3.59-23.256-8.39-32.472-13.405-2.268-1.332-4.463-2.62-6.577-3.857-1.09-.586-2.07-1.297-3.058-1.95-.047-.034-.095-.067-.147-.1l.172-.274c-.86-2.58-5.647-17.244-8.714-32.188.017-.98-.085-1.978-.405-2.96l-.046-.16-.057-.138-.07-.255c-.096-.34-.238-.87-.385-1.52-.502-2.88-.924-5.72-1.21-8.44-.093-1.24-.177-2.51-.197-3.89-.02-1.72.017-3.52.146-5.39.125-1.85.348-3.76.65-5.66.294-1.89.7-3.79 1.193-5.64.502-1.84 1.04-3.65 1.72-5.35.303-.86.69-1.67 1.04-2.47.34-.81.77-1.56 1.138-2.31.786-1.48 1.636-2.82 2.483-4.02.398-.61.87-1.15 1.294-1.68.42-.54.864-1.01 1.286-1.47.79-.92 1.677-1.63 2.382-2.28.753-.62 1.435-1.1 1.98-1.5.57-.36 1.042-.62 1.356-.81l.477-.27c3.29-1.88 6.047-4.75 7.813-8.43 4.198-8.76 1.235-19.1-6.552-24.4-.805-.55-1.656-1.04-2.555-1.47-1.29-.61-2.6-1.07-3.93-1.38h-.01c-8.7-2.05-17.93 2.12-21.95 10.49l-1.21 2.52s-.66 1.36-1.79 3.73c-.53 1.2-1.13 2.65-1.82 4.29-.61 1.67-1.32 3.53-1.94 5.57-.33 1.02-.66 2.07-.92 3.17-.27 1.1-.61 2.22-.84 3.37-.53 2.31-.97 4.73-1.33 7.19-.34 2.48-.63 5-.77 7.53-.04.63-.07 1.27-.11 1.9l-.03.77c-.03 0-.06-.01-.07-.02 0 .02.02.21.05.47l-.02.7c-.06 1.27-.04 2.52-.04 3.78 0 1.27.05 2.51.08 3.74.07 1.23.12 2.46.2 3.66.18 2.41.38 4.76.64 7.01.03.27.07.5.1.78 0 0-46.53-49.82-63.24 9.18 0 0-8.5 16.5 13.21 19.5 0 0-35.5 66.5 50.5 46.09 2.21 1.85 4.54 3.75 7.17 5.59 1.11.81 2.25 1.66 3.42 2.51 1.16.85 2.33 1.75 3.61 2.53 2.52 1.63 5.13 3.31 7.83 5.05 8.72 5.26 18.79 10.42 30.06 14.85 11.71-8.04 21.77-18.35 29.59-30.3-3.08-.62-8.2-1.6-9.19-1.89z"/><path fill="#E5E5E5" d="M-432.955 170.182s-10.286 38.355 8.584 56.846l-15.97-10.512s1.04-13-5.57-17.166c0 0 11.27-15.834 7.83-27.834l5.1-1.334z"/><path fill="#E5E5E5" d="M-434.583 231.934l10.213-4.906-12.546-13.428-3.417 3.834-2.333 3.582s4.83.28 8.083 10.918z"/><path fill="#CCC" d="M-460.583 150.35h-9s48.5 12 24.5 45.5c0 0-14.03 3.9-33-4.25 0 0 11.373 8.75 32.187 7.75 0 0 10.083 13.5-3.603 24.25h-28.58l3.5 2s51.75 10.75 32.5-26.75c0 0 21.25-36.75-17.25-46.5l-1.25-2z"/><path fill="#2AACE3" d="M436.832-3.69h.002m-34.81 28.974c0 .117.003.238.015.36-.02-.12-.02-.243-.02-.36z"/><path fill="#0291CA" d="M504.39-59.336h.015l-.012-.002-.002.002z"/><path fill="#7C0" d="M488.053 90.275c-1.225-.753-2.35-1.612-3.465-2.43-1.12-.82-2.214-1.63-3.277-2.414-2.51-1.75-4.75-3.57-6.87-5.35-82.48 19.57-48.43-44.2-48.43-44.2-20.82-2.88-12.67-18.7-12.67-18.7 16.03-56.58 60.65-8.8 60.65-8.8-.03-.26-.07-.49-.1-.75-.26-2.16-.45-4.41-.62-6.72-.07-1.15-.12-2.33-.19-3.51-.03-1.18-.07-2.37-.08-3.58 0-1.2-.02-2.4.04-3.62.01-.22.01-.44.02-.67-.02-.24-.05-.42-.05-.44.02.01.05.02.07.02.01-.24.01-.48.02-.73.04-.61.07-1.21.1-1.82.14-2.42.41-4.85.73-7.22.34-2.36.77-4.68 1.27-6.89.22-1.1.55-2.18.81-3.23.25-1.05.57-2.06.88-3.03.6-1.95 1.28-3.74 1.86-5.33.66-1.57 1.24-2.96 1.74-4.11l1.72-3.57 1.16-2.41c3.86-8.03 12.71-12.03 21.05-10.06h.01c1.27.31 2.53.74 3.77 1.33.86.42 1.68.89 2.45 1.41 7.47 5.09 10.31 15.01 6.28 23.41-1.69 3.53-4.34 6.27-7.49 8.08l-.46.27c-.3.18-.75.44-1.3.78-.52.39-1.17.85-1.89 1.44-.67.62-1.53 1.3-2.28 2.19-.4.44-.83.89-1.23 1.41-.41.51-.86 1.02-1.24 1.61-.81 1.16-1.62 2.44-2.38 3.86-.35.72-.76 1.44-1.09 2.22-.33.77-.7 1.55-.99 2.38-.65 1.63-1.17 3.37-1.65 5.14-.47 1.77-.86 3.59-1.15 5.41-.29 1.83-.5 3.65-.62 5.43-.12 1.79-.16 3.52-.14 5.17.02 1.33.1 2.55.19 3.74.28 2.6.68 5.33 1.16 8.09.14.62.28 1.14.37 1.46l.07.25.06.13.05.15c.31.94.41 1.9.39 2.84 2.94 14.33 7.53 28.4 8.36 30.87l-.16.27c.06.03.1.07.15.1.94.63 1.88 1.31 2.93 1.87 2.03 1.19 4.13 2.43 6.31 3.7 8.84 4.81 19.23 9.42 31.14 12.86.39.11 1.44.34 2.75.6 14.15-16.41 22.73-37.77 22.73-61.14 0-51.63-41.85-93.49-93.49-93.49-51.63 0-93.48 41.86-93.48 93.49 0 51.63 41.86 93.49 93.49 93.49 12.9 0 25.19-2.61 36.36-7.33-6.04-2.87-11.64-5.92-16.76-9-2.59-1.67-5.09-3.28-7.51-4.85z"/><path fill="#FFF" d="M546.702 79.097c-1.308-.267-2.36-.49-2.75-.604-11.906-3.44-22.302-8.045-31.14-12.854-2.176-1.28-4.28-2.52-6.308-3.7-1.047-.57-1.985-1.25-2.935-1.87-.05-.04-.09-.07-.15-.1l.16-.27c-.83-2.48-5.42-16.54-8.36-30.87.02-.94-.08-1.9-.39-2.84l-.05-.16-.05-.14-.07-.25c-.1-.32-.23-.84-.37-1.46-.48-2.76-.89-5.49-1.16-8.09-.09-1.19-.17-2.41-.19-3.74-.02-1.65.01-3.38.14-5.17.12-1.79.33-3.61.62-5.44.28-1.82.67-3.64 1.14-5.42.48-1.77 1-3.51 1.65-5.14.29-.83.66-1.6.99-2.37.32-.78.73-1.5 1.09-2.22.75-1.42 1.56-2.7 2.38-3.86.38-.59.83-1.1 1.24-1.61.4-.52.83-.97 1.23-1.41.76-.89 1.61-1.57 2.28-2.19.72-.59 1.37-1.05 1.89-1.44.55-.34 1-.6 1.3-.78l.45-.26c3.16-1.81 5.8-4.55 7.49-8.08 4.02-8.4 1.18-18.32-6.29-23.4-.77-.53-1.59-1-2.45-1.41-1.23-.59-2.49-1.03-3.77-1.33h-.01c-8.34-1.97-17.19 2.03-21.05 10.06l-1.16 2.41-1.72 3.58c-.51 1.15-1.09 2.54-1.75 4.11-.58 1.6-1.26 3.38-1.86 5.33-.32.97-.63 1.98-.88 3.03-.26 1.05-.59 2.12-.81 3.23-.51 2.21-.94 4.53-1.27 6.89-.33 2.37-.6 4.8-.73 7.22-.04.6-.07 1.21-.1 1.82-.01.24-.02.48-.02.73-.03-.01-.06-.01-.07-.02 0 .02.02.2.05.44-.01.22-.01.44-.02.67-.06 1.21-.04 2.41-.04 3.62s.04 2.4.08 3.58c.06 1.18.12 2.35.19 3.51.17 2.3.36 4.56.62 6.72.03.26.07.48.1.75 0 0-44.62-47.78-60.65 8.8 0 0-8.15 15.82 12.67 18.7 0 0-34.04 63.77 48.43 44.2 2.12 1.77 4.35 3.6 6.87 5.35 1.06.78 2.16 1.59 3.28 2.41 1.11.82 2.24 1.68 3.46 2.43 2.42 1.56 4.92 3.18 7.51 4.85 5.12 3.08 10.72 6.13 16.76 9 13.32-5.63 25.06-14.25 34.38-25.03z"/><path fill="#E5E5E5" d="M475.27 17.497s-9.862 36.78 8.233 54.512l-15.31-10.08s.997-12.47-5.333-16.47c0 0 10.812-15.19 7.515-26.69l4.896-1.28zm-1.56 59.217l9.794-4.705-12.03-12.88-3.276 3.67-2.238 3.43c-.002 0 4.632.26 7.75 10.47z"/><path fill="#CCC" d="M448.777-1.523h-8.63s46.51 11.508 23.495 43.633c0 0-13.455 3.742-31.646-4.074 0 0 10.906 8.39 30.865 7.432 0 0 9.67 12.945-3.45 23.255H432l3.356 1.918s49.626 10.31 31.167-25.65c0 0 20.377-35.24-16.54-44.59l-1.2-1.92z"/><path fill="#2AACE3" d="M128.963-150.415h-.002m-36.28-30.59c-.01.128-.01.255-.01.38 0-.125 0-.253.02-.38z"/><path fill="#0291CA" d="M199.412-92.385l.012-.004-.016.01.004.01z"/><path fill="#F77" d="M182.373-248.4c-1.277.786-2.45 1.683-3.613 2.536-1.168.854-2.31 1.7-3.418 2.515-2.625 1.84-4.96 3.74-7.168 5.59-86.007-20.4-50.507 46.1-50.507 46.1-21.71 3-13.21 19.5-13.21 19.5 16.71 59 63.243 9.18 63.243 9.18-.033.28-.072.51-.104.78-.27 2.25-.47 4.61-.647 7.01-.08 1.21-.14 2.43-.2 3.66-.04 1.24-.08 2.48-.09 3.74 0 1.26-.02 2.51.03 3.78.01.24.01.47.01.7-.03.25-.06.44-.06.46.02-.01.04-.01.07-.02 0 .26.01.51.02.77.04.64.06 1.27.1 1.9.14 2.53.42 5.06.76 7.53.35 2.47.79 4.88 1.32 7.19.23 1.16.57 2.27.84 3.37.26 1.1.59 2.15.92 3.17.62 2.04 1.33 3.9 1.93 5.56.69 1.64 1.29 3.09 1.82 4.29l1.79 3.73 1.21 2.52c4.02 8.38 13.25 12.55 21.95 10.5h.01c1.33-.31 2.64-.77 3.93-1.38.9-.43 1.75-.92 2.55-1.47 7.79-5.3 10.75-15.64 6.55-24.4-1.77-3.68-4.52-6.54-7.82-8.43l-.48-.27c-.32-.19-.79-.45-1.36-.81-.55-.4-1.23-.88-1.98-1.5-.7-.64-1.59-1.35-2.38-2.28-.43-.45-.87-.93-1.29-1.47-.43-.52-.9-1.06-1.3-1.67-.85-1.2-1.7-2.54-2.48-4.02-.37-.75-.8-1.5-1.14-2.31-.36-.8-.74-1.61-1.04-2.47-.68-1.7-1.22-3.51-1.72-5.35-.49-1.85-.9-3.75-1.19-5.64-.3-1.9-.53-3.81-.65-5.67-.13-1.86-.17-3.67-.15-5.39.02-1.39.11-2.66.2-3.9.28-2.71.71-5.56 1.21-8.44.14-.64.29-1.18.39-1.52l.06-.25.06-.13.05-.16c.32-.99.42-1.98.4-2.96 3.06-14.95 7.85-29.61 8.71-32.19l-.17-.28.15-.09c.98-.66 1.96-1.37 3.06-1.95 2.11-1.24 4.3-2.52 6.57-3.86 9.22-5.02 20.06-9.81 32.47-13.4.41-.12 1.51-.35 2.87-.63 14.78 17.09 23.72 39.37 23.72 63.74 0 53.84-43.64 97.49-97.48 97.49s-97.48-43.65-97.48-97.49 43.64-97.49 97.48-97.49c13.45 0 26.26 2.73 37.92 7.65-6.3 3-12.14 6.18-17.48 9.39-2.71 1.74-5.32 3.43-7.84 5.05z"/><path fill="#FFF" d="M243.53-236.744c-1.36.277-2.46.51-2.866.63-12.416 3.59-23.256 8.39-32.473 13.404-2.26 1.332-4.46 2.62-6.57 3.857-1.09.587-2.07 1.297-3.06 1.952l-.14.09.18.27c-.86 2.58-5.65 17.24-8.71 32.19.02.98-.08 1.97-.4 2.95l-.04.16-.06.14-.07.25c-.09.34-.24.87-.38 1.52-.5 2.88-.92 5.72-1.21 8.43-.09 1.24-.18 2.51-.2 3.89-.02 1.72.02 3.53.15 5.39.13 1.86.35 3.76.65 5.66.3 1.9.7 3.8 1.2 5.65.51 1.84 1.04 3.65 1.72 5.35.31.86.69 1.67 1.04 2.47.34.81.77 1.56 1.14 2.31.79 1.49 1.64 2.82 2.48 4.03.4.61.87 1.15 1.3 1.68.42.54.87 1.01 1.29 1.46.79.93 1.68 1.64 2.38 2.28.76.62 1.44 1.1 1.98 1.5.57.36 1.05.62 1.36.81l.48.27c3.29 1.89 6.05 4.75 7.81 8.43 4.2 8.76 1.23 19.1-6.55 24.41-.8.55-1.65 1.04-2.55 1.47-1.28.61-2.6 1.07-3.93 1.38h-.01c-8.69 2.05-17.93-2.12-21.95-10.5l-1.21-2.51-1.79-3.73c-.52-1.2-1.12-2.65-1.81-4.29-.6-1.67-1.32-3.52-1.94-5.56-.32-1.01-.65-2.07-.91-3.16-.27-1.1-.61-2.22-.84-3.37-.53-2.31-.97-4.73-1.32-7.19-.34-2.48-.62-5-.76-7.53-.04-.63-.07-1.26-.11-1.9-.01-.26-.02-.51-.02-.77-.03 0-.06.01-.07.02 0-.02.02-.21.05-.47-.01-.24-.01-.47-.02-.7-.06-1.27-.04-2.52-.04-3.78.01-1.27.05-2.51.09-3.74.07-1.23.13-2.46.2-3.66.18-2.4.38-4.76.65-7.01.03-.27.07-.51.11-.78 0 0-46.53 49.82-63.24-9.18 0 0-8.5-16.5 13.21-19.5 0 0-35.5-66.5 50.51-46.1 2.21-1.85 4.54-3.75 7.17-5.58 1.11-.82 2.25-1.66 3.42-2.52 1.16-.85 2.34-1.75 3.61-2.53 2.52-1.63 5.13-3.31 7.84-5.05 5.33-3.22 11.17-6.39 17.47-9.39 13.89 5.87 26.13 14.86 35.85 26.1z"/><path fill="#E5E5E5" d="M169.045-172.508s-10.285-38.355 8.584-56.844l-15.97 10.51s1.04 13-5.57 17.168c0 0 11.27 15.834 7.83 27.833l5.1 1.33z"/><path fill="#E5E5E5" d="M167.416-234.26l10.213 4.907-12.55 13.427-3.42-3.833-2.34-3.58s4.83-.28 8.08-10.91z"/><path fill="#CCC" d="M141.416-152.675h-9s48.5-12 24.5-45.5c0 0-14.03-3.902-33 4.25 0 0 11.373-8.75 32.188-7.75 0 0 10.082-13.5-3.604-24.25h-28.583l3.5-2s51.75-10.75 32.5 26.75c0 0 21.25 36.75-17.25 46.5l-1.25 2z"/><path opacity=".15" d="M235.305 99.42H221.59v1.183h-6.284v-2.037h-13.66v15.6c-1.447-5.678-5.385-9.085-10.768-9.085-.372 0-.756.02-1.14.05-2.603.23-4.852 1.26-6.722 3.07-1.4-1.06-3.245-1.89-5.62-1.89-.306 0-.62.02-.937.04-1.41.12-2.7.48-3.87 1.06l-8.54.75-.09-1.73-1.24.09c.08-.43.12-.87.12-1.33 0-4-3.26-7.25-7.26-7.25s-7.26 3.26-7.26 7.26c0 .81.14 1.58.38 2.31l-.13.01-1.99.14-.56.04c.08-.43.12-.87.12-1.33 0-4-3.26-7.25-7.26-7.25-1.21 0-2.35.3-3.35.83l-.3-3.43-15.61 1.37.08.93c-.6-.38-1.23-.71-1.91-.97-1.53-.58-3.23-.85-5.36-.85-1.45 0-2.99.13-4.57.27l-15.04 1.31 1.24 14.17c-.39-.67-.84-1.29-1.35-1.84-1.37-1.47-3.88-3.22-8.08-3.22-2.27 0-4.05.48-5.44 1.16v-9.38H66.25v1.19H56.13v7.96h-2.174v.25c-1.74-.91-3.49-1.17-4.946-1.17-4.027 0-7.36 1.89-9.644 5.48-1.928 3.03-2.924 7.04-2.966 11.92h-1.83V99.41H20.387v42.354H43.71v-.298c1.52.803 3.222 1.222 5.074 1.222 3.382 0 6.194-1.098 8.36-3.26.227-.23.442-.47.652-.72.06.093.12.184.18.272 1.038 1.46 3.117 3.206 7.132 3.206.616 0 1.28-.02 1.977-.066.665-.04 1.39-.103 2.217-.19l3.346-.347v-15.07l-2.942.415v-1.815l1.05-.222c1.095-.23 2.105-.63 3.022-1.17.225.91.533 1.74.938 2.48h-1.95l.17 3.9c.17 3.87 1.21 6.92 3.087 9.07 1.407 1.61 4.028 3.53 8.53 3.53 3.773 0 6.756-1.16 8.864-3.45 1.23-1.34 2.09-3.01 2.577-4.98l.745 8.52 15.92-1.39c3.73-.33 7.26-.63 10.48-3.21l.04-.04.34 3.96 15.61-1.36-.12-1.31c2.03 1.5 4.44 2.41 7.17 2.69.3.07.6.11.91.11.32.01.64.01.95.01.67 0 1.33-.02 1.96-.05 2.31-.12 4.42-.59 6.27-1.39 1.83-.79 3.42-1.92 4.73-3.36l.51 5.84 40.09-3.5v2.03h13.66v-.55c1.13.58 2.61.98 4.53.98.61 0 1.28-.02 1.97-.06.67-.04 1.39-.1 2.22-.19l1.63-.17h9.58v-17.1h-1.25l1.31-12.6v-12.7zM94.93 123.2h.098l.02.223c-.04-.073-.076-.152-.118-.223z"/><path fill="#F1F1F2" d="M233.44 97.554h-13.717v1.184h-6.283V96.7h-13.66v15.6c-1.447-5.676-5.385-9.083-10.767-9.083-.374 0-.757.017-1.14.05-2.605.228-4.854 1.256-6.724 3.066-1.41-1.067-3.25-1.894-5.62-1.894-.31 0-.63.01-.94.04-1.41.12-2.7.47-3.87 1.06l-8.54.74-.09-1.74-1.24.08c.08-.43.13-.88.13-1.33 0-4-3.26-7.26-7.26-7.26s-7.26 3.25-7.26 7.25c0 .81.14 1.58.38 2.31l-.14.01-1.99.14-.56.04c.08-.44.13-.88.13-1.33-.01-4-3.26-7.26-7.26-7.26-1.21 0-2.35.3-3.35.82l-.3-3.43-15.61 1.36.08.93c-.6-.38-1.23-.71-1.91-.97-1.53-.59-3.23-.86-5.36-.86-1.45 0-2.99.12-4.57.26l-15 1.35 1.24 14.17c-.39-.67-.84-1.29-1.35-1.83-1.37-1.47-3.89-3.22-8.08-3.22-2.27 0-4.06.48-5.45 1.16v-9.38H64.38v1.18H54.267v7.96h-2.174v.25c-1.74-.9-3.49-1.17-4.946-1.17-4.027 0-7.36 1.9-9.644 5.48-1.928 3.04-2.924 7.05-2.966 11.93h-1.83V97.55H18.52v42.353h23.324v-.298c1.52.802 3.222 1.22 5.074 1.22 3.382 0 6.194-1.097 8.36-3.26.227-.23.442-.47.652-.718.06.09.12.183.18.27 1.038 1.464 3.117 3.21 7.132 3.21.616 0 1.28-.023 1.977-.068.66-.05 1.39-.11 2.21-.19l3.34-.35v-15.07l-2.94.41v-1.82l1.05-.22c1.09-.24 2.1-.63 3.02-1.17.22.9.53 1.73.94 2.48H70.9l.17 3.89c.17 3.87 1.21 6.92 3.088 9.06 1.407 1.6 4.028 3.52 8.53 3.52 3.773 0 6.756-1.17 8.864-3.46 1.23-1.34 2.09-3.01 2.577-4.99l.74 8.52 15.93-1.4c3.73-.33 7.26-.64 10.48-3.21l.04-.04.34 3.95 15.61-1.37-.11-1.31c2.03 1.5 4.44 2.41 7.17 2.69.3.07.6.11.91.11.32.01.63.01.95.01.66 0 1.32-.01 1.96-.05 2.31-.12 4.42-.59 6.27-1.39 1.83-.79 3.42-1.93 4.73-3.36l.51 5.84 40.09-3.51v2.02h13.66v-.56c1.13.58 2.6.98 4.53.98.61 0 1.28-.02 1.98-.06.66-.05 1.39-.11 2.21-.19l1.63-.17h9.58V122.8h-1.25l1.31-12.61V97.55zM93.063 121.336h.098l.02.223c-.04-.08-.07-.16-.11-.23z"/><path d="M22.253 136.175v-34.89h6.722v25.628h9.138v9.262h-15.86zm27.31-7.627h5.883c-.426 2.81-1.362 4.938-2.807 6.383-1.45 1.45-3.36 2.17-5.72 2.17-2.66 0-4.76-1.23-6.32-3.68-1.56-2.45-2.34-5.76-2.34-9.91 0-4.32.79-7.74 2.39-10.24 1.59-2.5 3.75-3.75 6.49-3.75 2.75 0 4.9 1.36 6.46 4.09 1.55 2.73 2.33 6.51 2.33 11.34v.62l-11.53.03c.03 1.65.29 2.91.78 3.8.49.9 1.18 1.34 2.06 1.34.59 0 1.09-.18 1.49-.55.39-.37.66-.9.81-1.6zm-5.146-8.148h5.472c-.07-1.596-.34-2.792-.8-3.59-.47-.796-1.13-1.195-2.01-1.195-.81 0-1.45.423-1.92 1.268s-.72 2.016-.76 3.517zm19.693 6.23c0 .868.15 1.48.454 1.835.304.355.843.533 1.62.533.228 0 .4-.004.52-.013.118-.007.234-.02.348-.034v7.42c-.758.08-1.448.14-2.068.18-.62.04-1.2.06-1.74.06-1.953 0-3.315-.54-4.087-1.63-.772-1.09-1.158-3-1.158-5.73v-12.91h-2.18v-5.9H58v-7.96h6.11v7.96h2.885v5.9H64.11v10.3zm9.53-25.345v8.977c0 2.543-.48 4.604-1.436 6.183s-2.32 2.56-4.093 2.937v-4.073c.87-.32 1.48-.84 1.86-1.57.38-.73.56-1.77.56-3.13h-2.42v-9.34h5.53zm1.16 26.788h5.968c0 1.09.168 1.904.504 2.44.336.537.84.806 1.514.806.644 0 1.14-.19 1.485-.55.35-.37.52-.89.52-1.59 0-1.16-.76-2.01-2.28-2.56l-.31-.12c-2.89-1.03-4.77-2.13-5.65-3.32-.88-1.19-1.32-2.92-1.32-5.21 0-2.77.65-4.87 1.94-6.32 1.3-1.45 3.19-2.17 5.67-2.17 2.3 0 4.09.68 5.35 2.03 1.27 1.35 2 3.38 2.19 6.06h-5.53c-.04-.78-.25-1.39-.6-1.85-.36-.46-.8-.69-1.34-.69s-.95.15-1.23.46c-.28.31-.42.75-.42 1.34 0 1.02.7 1.78 2.09 2.27l.84.28c2.81 1.07 4.63 2.21 5.48 3.42.84 1.2 1.27 2.98 1.27 5.31 0 2.95-.69 5.18-2.07 6.68s-3.42 2.25-6.12 2.25c-2.5 0-4.41-.75-5.72-2.25-1.31-1.5-2.03-3.76-2.17-6.77zm128.713-20.275v-7.366h6.196v7.366h-6.2zm0 28.377v-25.747h6.196v25.747h-6.2zm15.327-9.545c0 .868.152 1.48.456 1.835.303.355.843.533 1.62.533.228 0 .4-.004.52-.013.117-.007.233-.02.348-.034v7.42c-.758.08-1.447.14-2.068.18s-1.2.06-1.74.06c-1.952 0-3.314-.54-4.086-1.63-.772-1.09-1.16-3-1.16-5.73v-12.91h-2.173v-5.9h2.174v-7.96h6.12v7.96h2.89v5.9h-2.88v10.3zm6.035-2.914l-1.42-13.69v-8.74h6.253v8.74l-1.422 13.69h-3.41zm-1.363 12.46v-9.618h6.14v9.617h-6.14z" fill="#7F8080"/><path fill="#00ADEE" d="M95.045 100.055l10.404-.91.92-.08c3.37-.295 6.07-.48 8.27.36 2.92 1.136 4.72 4.022 5.09 8.27.29 3.327-.6 5.934-2.69 7.715 3.08 1.175 4.67 3.82 5.05 8.225.38 4.4-.75 7.8-3.17 9.767-2.31 1.854-5.08 2.095-8.46 2.39l-12.2 1.068-3.23-36.805zm13.533 13.62c2.265-.198 3.277-1.01 3.062-3.466-.255-2.92-1.583-3.06-4.808-2.78l-2.457.21.555 6.35 3.648-.32zm1.643 13.473c2.62-.23 3.69-1.2 3.47-3.76-.22-2.56-1.52-3.27-4.13-3.042l-4.03.353.6 6.8 4.11-.36zm11.63-27.778l8.18-.715 3.22 36.804-8.17.71-3.22-36.81zm38.86 10.792l7.38-.645.35 3.993c1.52-3.384 3.62-5.063 6.5-5.314 2.69-.235 4.66 1.037 6.48 4.18 1.68-3.397 3.81-5.13 6.8-5.392 4.8-.42 7.87 2.82 8.39 8.756l1.62 18.53-7.98.7-1.27-14.54c-.29-3.326-1.19-4.795-3.15-4.623-2 .174-2.74 1.84-2.45 5.217l1.27 14.436-7.94.694-1.24-14.18c-.32-3.634-1.22-5.153-3.3-4.972-1.8.157-2.62 1.88-2.34 5.053l1.28 14.59-7.98.697-2.38-27.18z"/><g fill="#00ADEE"><circle cx="137.058" cy="104.476" r="3.526"/><circle cx="153.734" cy="103.308" r="3.526"/><path d="M159.33 123l-.76-14.46-7.91.554.74 13.16v-.004c.026.512.04.99.04 1.44 0 .733-.037 1.38-.105 1.934-.11.873-.34 1.548-.653 2.04-.317.493-.726.845-1.28 1.1-.392.177-.88.31-1.457.394-.06-.008-.124-.014-.193-.014-.04 0-.083.002-.13.007h.003c-.28.03-.546.04-.795.04-.592 0-1.096-.07-1.515-.19-.586-.17-1.038-.46-1.422-.91-.38-.44-.7-1.08-.93-1.93-.235-.87-.418-1.98-.535-3.33v.01l-1.095-13.08-7.91.56 1.258 14.37c.18 2.05.6 3.85 1.26 5.41s1.58 2.87 2.74 3.89c1.71 1.52 3.86 2.37 6.35 2.58.09.04.2.06.31.06h.01c.3.01.59.01.88.01.6 0 1.19-.01 1.77-.04 1.86-.09 3.53-.45 4.98-1.09 1.46-.63 2.71-1.54 3.71-2.72.91-1.06 1.59-2.31 2.04-3.74.45-1.43.67-3.03.67-4.8 0-.4-.01-.8-.03-1.22z"/></g></svg>