<svg xmlns="http://www.w3.org/2000/svg" width="250" height="250" viewBox="0 0 250 250"><path opacity=".15" fill="#231F20" d="M196.56 34.57H59.37v41.968h25.214L59.752 90.874v77.77L85.93 183.76l9.533 5.503H59.37V224h137.19v-34.74h-37.813l7.813-4.51 27.895-16.105v-77.77l-24.833-14.337h26.937"/><path fill="#FFF" d="M192.49 30.5H55.3v41.97h25.215L55.683 86.804v77.77L81.86 179.69l9.535 5.504H55.3v34.74h137.19v-34.74h-37.813l7.813-4.51 27.896-16.106v-77.77L165.554 72.47h26.936"/><path fill="#BE1E2D" d="M121.932 159.834c18.855 0 34.854 8.73 40.56 20.848l27.895-16.105v-77.77L123.035 47.92 55.683 86.805v77.77L81.86 179.69c6.093-11.598 21.733-19.854 40.072-19.854z"/><path fill="#D0D2D3" d="M162.49 180.682c-5.705-12.117-21.703-20.848-40.56-20.848-18.338 0-33.978 8.256-40.07 19.854l41.175 23.77 39.455-22.776z"/><path fill="#FFF" d="M105.192 164.95l10.944 15.148 15.264-13.1"/><ellipse fill="#BBBDBF" cx="121.178" cy="158.646" rx="20.635" ry="11.517"/><path fill="#ACAFB1" d="M131.735 166.504c.667.628-15.6 13.594-15.6 13.594l11.428 1.045-2.173-5.77 18.852-2.083-7.52-8.828-4.987 2.042zm-26.992-3.768l-6.3 8.074 8.704.777-3.978 4.377 14.84 4.134"/><path fill="#D0D1D2" d="M82.78 92.75s-18.028-10.652-10.367 11.724l3.48-2.313 6.888-9.41z"/><ellipse transform="matrix(.996 .091 -.091 .996 11.777 -10.785)" fill="#FFF" cx="124.238" cy="123.845" rx="56.835" ry="45.539"/><path fill="#919396" d="M169.026 102.875c-.01-.018 5.97 10.806 5.704 14.14l1.86-2.505s13.644-16.288-7.564-11.635z"/><path fill="#D0D1D2" d="M164.742 99.43s11.98-6.423 19.063-.99c0 0 8.974 9.09-5.685 21.257l-3.59 3.313s-2.344-2.082-1.468-6.05c0 0 17.18-16.143-5.054-12.334 0 0-3.48-.57-3.266-5.197zm-1.2 31.488c-1.727 21-24.352 35.882-50.534 33.24C86.824 161.515 67 142.35 68.728 121.35c1.727-21 24.353-35.882 50.534-33.24 26.182 2.642 46.01 21.807 44.28 42.808z"/><path fill="#6C6F71" d="M105.736 144.184l-.544 1.994v1.33l1.527-.363-.27-3.305"/><path fill="#FFF" d="M87.037 140.777c-.68 0-1.37-.03-2.05-.093-5.845-.534-11.136-3.28-14.9-7.735-3.772-4.47-5.56-10.11-5.03-15.9 1.027-11.24 10.413-19.71 21.833-19.71.678 0 1.368.03 2.048.09 12.077 1.1 21.02 11.7 19.928 23.62-1.025 11.24-10.41 19.71-21.83 19.71z"/><path fill="#404041" d="M86.888 99.85c.603 0 1.21.027 1.82.082 10.717.98 18.624 10.335 17.66 20.898-.91 9.96-9.382 17.438-19.33 17.438-.604 0-1.21-.027-1.822-.083-10.72-.98-18.625-10.337-17.66-20.9.91-9.957 9.382-17.435 19.332-17.436m0-5.02c-6.07 0-11.896 2.22-16.405 6.26-4.557 4.08-7.373 9.67-7.925 15.73-.59 6.45 1.403 12.75 5.613 17.74 4.2 4.96 10.09 8.02 16.59 8.61.76.07 1.52.1 2.28.1 6.07 0 11.9-2.23 16.41-6.27 4.56-4.09 7.37-9.67 7.93-15.74 1.22-13.31-8.74-25.13-22.2-26.36-.75-.07-1.52-.11-2.28-.11z"/><path fill="#FFF" d="M135.87 150.017c-.815 0-1.643-.037-2.46-.11-7.062-.646-13.454-3.985-17.997-9.404-4.547-5.424-6.696-12.28-6.055-19.307 1.25-13.677 12.596-23.99 26.395-23.99.815 0 1.645.038 2.46.113 7.063.64 13.454 3.98 17.996 9.4 4.54 5.42 6.69 12.28 6.05 19.3-1.25 13.67-12.6 23.99-26.4 23.99z"/><path fill="#404041" d="M135.753 99.715c.74 0 1.482.033 2.232.102 13.23 1.207 22.98 12.84 21.78 25.982-1.135 12.39-11.61 21.7-23.896 21.7-.74 0-1.49-.04-2.23-.11-13.24-1.21-22.99-12.84-21.79-25.99 1.13-12.4 11.61-21.71 23.89-21.71m0-5.02v5.02-5.02c-7.22 0-14.14 2.66-19.5 7.5-5.4 4.87-8.74 11.54-9.4 18.77-.71 7.69 1.65 15.21 6.63 21.14 4.97 5.93 11.96 9.59 19.69 10.29.89.08 1.79.12 2.69.12 7.21 0 14.13-2.66 19.49-7.5 5.4-4.88 8.74-11.54 9.4-18.77.7-7.7-1.65-15.21-6.63-21.15-4.98-5.93-11.97-9.59-19.7-10.29-.89-.08-1.8-.13-2.69-.13z"/><path fill="#0B8ECC" d="M106.524 136.39s3.013-4.86 5.525 4.49l-6.16 4.312-4.51-4.93s4.01-8.048 5.13-3.87z"/><path fill="#FFF" d="M110.915 140.69l-2.648 1.838s.846-2.978 2.648-1.84zm-6.953 1.447l-1.585-1.56s1.33-.5 1.585 1.56z"/><path fill="#BE1E2D" d="M104.517 158.678c-6.35 0-6.665-9.84-6.676-10.26v-.22l2.25-.88 11.32 2.588 3.65 2.822-.27.25c-4.07 3.782-7.53 5.7-10.26 5.7z"/><path fill="#6C6F71" d="M100.108 147.647l11.155 2.55 3.31 2.553c-4.448 4.127-7.69 5.614-10.057 5.614-6.115 0-6.362-9.954-6.362-9.954l1.954-.763m-.05-.654l-.18.068-1.952.77-.41.16.01.44c.012.43.338 10.57 6.99 10.57 2.823 0 6.348-1.94 10.483-5.78l.54-.5-.59-.45-3.31-2.55-.11-.08-.14-.03-11.16-2.55-.19-.04z"/><path fill="#404041" d="M157.06 104.736l11.966-13.81 5.942 5.412-5.758 1.355-7.04 13.483m-80.798-13.83l2.834-7.13H82.78l-8.73 9.5"/><path fill="#F69C95" d="M98.822 147.696s9.982 6.823 14.094 2.92c0 0-1.87-1.502-2.316-2.548 0 0-2.3-2.795-5.073-1.33 0 0-2.458-1.965-6.144.77l-.56.188z"/><path fill="#6C6F71" d="M95.07 145.19s1.254 4.55 5.228 2.317c0 0 3.765-3.396 4.916.583 0 0 3.528-3.868 6.836 2.88 0 0 5.744 5.186 7.174-1.817 0 0-2.09 5.217-6.69 1.14 0 0-2.51-6.17-7.007-3.555 0 0-.732-2.928-6.692.313 0 0-1.57.99-3.765-1.86z"/><path fill="#6C6F71" d="M95.07 145.19s5.02-.022 5.386-3.054c0 0 .504 3.68-4.794 3.748l-.592-.693z"/><path fill="#FFF" d="M102.732 152.437s.898 2.28 2.46.382c0 0 .872 2.15 3.074.5 0 0 1.246 1.14 1.836.62l1.655-3.43c-.183-.26-.457-.6-.843-.98-.81-.81-2.12.55-2.12.55-1.412-4.4-3.92-1.08-3.92-1.08-.787-3.67-2.142 0-2.142 0 .135-3.44-2.817-.62-2.817-.62v3.89c.062.15.127.28.193.41.488.5 1.437 1.07 2.624-.26zm9.318-1.467s-.09-.172-.292-.45l.14.726.152-.275z"/><path fill="#E6E7E8" d="M102.732 152.818c1.312 2.265 2.46.323 2.46.323.478 2.2 3.074.4 3.074.4.414.87 2.02.63 2.02.63l1.61-2.91-.138-.72-1.655 3.43c-.59.52-1.836-.62-1.836-.62-2.202 1.65-3.074-.51-3.074-.51-1.562 1.9-2.46-.38-2.46-.38-1.187 1.33-2.137.76-2.625.26 1.082 2.01 2.624.13 2.624.13z"/><path fill="#D0D2D3" d="M102.377 149.352l.355 3.085v-3.085m2.01 0l.45 3.466v-3.466m3.47 1.098l-.783 2.368.38.507"/><path fill="#A6A8AB" d="M97.77 154.686s3.61 11.293 15.146 2.196c0 0-12.552 11.397-15.146-2.196z"/><path fill="#404041" d="M120.295 76.048s-.376-.065-1.07-.14c-3.96-.428-18.287-1.174-32.264 8.1l8.11-1.604-8.11 5.403 9.69-2.033-8.19 5.153s18.02-9.89 26.13-3.913c0 0 15.44-6.098 30.06 4.546l-4.97-7.094 11.25 5.75-5.58-6.208 7.5 1.358s-6.05-10.886-32.53-9.318z"/><path fill="#808184" d="M121.422 76.597s-4.393 1.255-6.823 9.647c0 0 1.72-5.805 6.82-9.647z"/><path fill="#808184" d="M98.442 84.832s7.226-4.063 17.065-1.208l.63-1.017S105.12 80.82 98.44 84.832zm.392-3.842s9.11-4.737 19.772-1.742l.33-.99s-9.93-2.953-20.102 2.73zm17.302 1.617s10.932-4.74 22.853 1.017c0 0-10.84-6.49-22.32-1.74l-.54.723zm3.754-4.71s12.748-2.948 24.353 4.66c0 0-10.66-6.896-25.014-3.997l.66-.663z"/><path fill="#404041" d="M116.693 179.73l-17.87-5.92 1.092 10.428 16.22-3.095 17.474 4.393v-9.572"/><path fill="#ACAFB1" d="M116.136 181.646l-1.563 15.184 4.364 2.51-.928-18.197"/><ellipse fill="#404041" cx="116.403" cy="180.76" rx="3.487" ry="3.059"/><path fill="#231F20" d="M55.3 30.5h137.19v41.97H55.3z"/><path fill="#FFF" d="M78.208 69.404l-6.806-14.67v14.72H59V34.167h12.402l6.806 11.242v-11.3h12.35V69.4H78.21zm15.124.05v-35.29h22.284v9.63h-9.68v3.177h9.68v7.06h-9.68v4.69h10.234v10.74H93.332zm56.26-.88c-.337.05-.656.107-.958.174l-1.01.1c-.335.035-.67.052-1.006.052-2.958 0-5.647-.69-8.068-2.066-2.42-1.378-4.384-3.192-5.897-5.445-.034 0-.083-.02-.15-.05-.034 0-.068-.01-.1-.03-.035-.02-.07-.03-.102-.03v7.66h-13.46V33.66h14.32c4.54 0 8.42 1.343 11.65 4.026s4.84 5.97 4.84 9.86c0 1.812-.38 3.522-1.16 5.132s-1.85 3.034-3.22 4.275c.37.335.79.62 1.26.856.47.23.98.35 1.51.35.51 0 .98-.09 1.42-.25.44-.17.83-.42 1.16-.76v11.29c-.33.03-.67.07-1.01.12zm-13.914-24.4c-.74-.79-1.664-1.186-2.773-1.186h-.604v8.42h.61c1.11 0 2.04-.413 2.78-1.237.74-.82 1.11-1.83 1.11-3.04 0-1.17-.37-2.16-1.11-2.95zm48.37 20.062c-3.277 3.445-7.234 5.168-11.87 5.168l-18.252.05V34.166h18.25c4.638 0 8.595 1.723 11.872 5.167 3.277 3.446 4.915 7.587 4.915 12.427 0 4.874-1.638 9.033-4.915 12.476zM172.1 47.55c-1.126-1.192-2.48-1.806-4.057-1.84v12.2c1.577-.1 2.93-.74 4.057-1.917 1.126-1.175 1.69-2.587 1.69-4.235 0-1.612-.564-3.014-1.69-4.208z"/><path fill="#231F20" d="M55.3 185.192h137.19v34.74H55.3z"/><path fill="#FFF" d="M78.79 215.02l-1.012-4.23h-6.7l-1.047 4.268H60.6l6.026-18.826h-2.92v-7.373h17.03l8.458 26.16H78.79zm-4.342-17.89l-2.02 8.344h4.08l-2.06-8.345zm17.03 17.927v-26.2h9.656v17.516h7.56v8.647l-17.216.037zm18.938 0v-26.2h16.542v7.148h-7.186v2.36h7.186v5.238h-7.186v3.48h7.598v7.973h-16.954zm41.77-.657c-.25.038-.487.08-.71.132l-.75.074c-.25.024-.5.037-.75.037-2.193 0-4.19-.51-5.987-1.534-1.8-1.03-3.26-2.37-4.38-4.05-.03 0-.07-.02-.12-.04-.03 0-.05-.01-.08-.02-.03-.02-.05-.02-.08-.02v5.69h-9.99v-26.2h10.62c3.37 0 6.25.99 8.65 2.99 2.39 1.99 3.59 4.43 3.59 7.32 0 1.34-.29 2.61-.86 3.81-.58 1.19-1.37 2.25-2.4 3.17.27.25.58.46.93.63.35.17.72.26 1.12.26.37 0 .72-.07 1.05-.19.32-.12.61-.31.86-.56v8.38c-.25.02-.5.06-.75.09zm-10.33-18.115c-.55-.586-1.238-.88-2.06-.88h-.45v6.252h.45c.82 0 1.51-.306 2.06-.917.547-.612.82-1.367.82-2.264 0-.873-.273-1.603-.822-2.19zm28.406-.093v18.488h-9.282v-18.488h-5.837v-7.71h20.81v7.71h-5.69zm16.658-6.02l-1.575 18.888h-6.287l-1.57-18.888h9.43zm-.564 22.585c0 .787-.412 1.465-1.235 2.034-.82.58-1.79.86-2.91.86-1.15 0-2.13-.28-2.94-.85s-1.22-1.24-1.22-2.03.41-1.46 1.22-2.03c.81-.57 1.79-.85 2.94-.85 1.13 0 2.1.29 2.92.86.82.57 1.24 1.25 1.24 2.04z"/><circle fill="#0071BC" cx="87.106" cy="119.458" r="16.624"/><path fill="#0F4481" d="M85.91 123.644c-3.09-3.57-2.7-8.958.866-12.043 3.564-3.08 8.955-2.69 12.042.87 3.085 3.57 2.696 8.96-.87 12.05-3.562 3.09-8.954 2.7-12.04-.87z"/><path fill="#FFF" d="M90.88 121.025c-1.64-1.897-1.432-4.76.462-6.398 1.893-1.638 4.76-1.437 6.4.46 1.64 1.895 1.43 4.76-.464 6.402-1.895 1.63-4.757 1.43-6.397-.47z"/><circle fill="#FFF" cx="83.975" cy="116.881" r="2.209"/><circle fill="#0071BC" cx="136.163" cy="123.88" r="21.045"/><path fill="#0F4481" d="M134.647 129.178c-3.91-4.518-3.415-11.34 1.097-15.246 4.513-3.903 11.337-3.416 15.247 1.1 3.91 4.513 3.42 11.34-1.1 15.245-4.51 3.907-11.33 3.41-15.24-1.1z"/><path fill="#FFF" d="M140.942 125.862c-2.077-2.4-1.815-6.024.583-8.1 2.396-2.073 6.026-1.82 8.104.582 2.07 2.4 1.81 6.028-.59 8.105-2.4 2.07-6.03 1.81-8.1-.59z"/><circle fill="#FFF" cx="132.199" cy="120.616" r="2.797"/></svg>