<svg xmlns="http://www.w3.org/2000/svg" width="250" height="250" viewBox="0 0 250 250"><path fill="#1B75BB" d="M101.04 214.71c-.002-.04-.037-.09-.096-.144.064.14.097.19.095.144z"/><path opacity=".15" d="M206.75 145.19c.008-.16.014-.32.014-.483 0-5.502-1.063-10.9-3.16-16.076 1.724-3.72 4.026-10.41 1.21-15.18-.905-1.53-3.085-4.03-7.73-4.32 2.013-5.3 3.03-10.81 3.03-16.47 0-31.8-33.025-57.67-73.62-57.67-40.592 0-73.617 25.88-73.617 57.68 0 7.62 1.907 15.12 5.568 22.08-6.88 2.05-11.912 8.44-11.912 15.97 0 8.87 6.964 16.14 15.71 16.64-.523 1.26-.814 2.64-.814 4.08 0 5.88 4.78 10.67 10.66 10.67 1.99 0 3.84-.55 5.44-1.5-5.17 20.55-6.54 38.43-4.19 54.2l.57 3.85 3.88.09c5.61.12 11.37.22 17.5.3v.01l4.56.05 2.3.02c2.51.03 5.03.05 7.54.07l2.1.02 4.64.02c2.71.01 5.42.03 8.13.03h4.05l-.01.01h6.2c2.59 0 5.19-.01 7.78-.01l6.09-.01h7.8s-3.99-7.95-4.05-8.01c-2.75-4.98-4.23-11.54-4.98-16.01 11.98-.28 23.37-3.39 33.16-9.06.19.02.39.03.59.03.71 0 1.39-.13 2.02-.39 1.4-.45 2.93-1.56 3.66-3.8 10.22-7.74 16.98-18.12 19.1-29.43.48-2.26.73-4.56.73-6.81 0-.16-.01-.32-.02-.48v-.05z"/><path fill="#00ADEE" d="M203.694 141.114c.007-.16.013-.32.013-.483 0-5.5-1.063-10.89-3.16-16.07 1.724-3.72 4.026-10.41 1.21-15.18-.905-1.53-3.086-4.04-7.73-4.32 2.013-5.3 3.03-10.81 3.03-16.47 0-31.8-33.025-57.67-73.62-57.67-40.593 0-73.617 25.88-73.617 57.68 0 7.62 1.9 15.12 5.56 22.08-6.88 2.05-11.91 8.44-11.91 15.98 0 8.87 6.96 16.14 15.71 16.63-.53 1.26-.82 2.64-.82 4.08 0 5.88 4.78 10.67 10.66 10.67 1.984 0 3.84-.56 5.44-1.51-5.17 20.56-6.54 38.43-4.187 54.2l.575 3.85 3.887.09c5.61.12 11.372.22 17.5.3v.01l4.56.05 2.303.02c2.52.03 5.037.05 7.54.07l2.1.02 4.645.02c2.71.02 5.42.03 8.133.03h4.05l-.003.01h6.207c2.59 0 5.187 0 7.78-.01l6.095-.01h7.8s-3.99-7.95-4.05-8.01c-2.75-4.98-4.228-11.54-4.975-16.01 11.982-.28 23.372-3.39 33.163-9.06.197.02.395.03.59.03.71 0 1.39-.13 2.02-.39 1.405-.45 2.935-1.56 3.663-3.8 10.22-7.73 16.98-18.12 19.1-29.43.482-2.26.73-4.56.73-6.81 0-.16-.008-.32-.015-.48v-.04z"/><ellipse fill="#B2E2F9" cx="123.438" cy="88.578" rx="69.006" ry="53.063"/><path fill="#D0D2D3" d="M131.788 210.548c4.754 0 9.51-.01 14.264-.025-5.713-9.29-6.878-24.093-6.878-24.093l-7.386 24.118zm63.675-86.148s11.185-20.34-9.578-13.277c-20.76 7.066 9.578 13.277 9.578 13.277z"/><path fill="#919496" d="M191.547 118.788s9.953-10.045 2.798 3.4c-7.155 13.45-2.798-3.4-2.798-3.4zm-93.423-3.798L92.3 127.735s-17.914-22.285 5.824-12.745z"/><path fill="#FFF" d="M140.654 205.44c-3.775-5.112-2.73-13.564-1.48-19.01 1.153.055 2.312.092 3.483.092 31.17 0 56.438-20.544 56.438-45.892 0-25.346-25.268-45.892-56.438-45.892-28.53 0-50.358 17.02-56.837 40.216-11.83 33.777-13.588 57.498-10.965 75.057 15.54.34 31.108.49 46.692.53-2.904-4.43-5.27-7.19-5.27-7.19v-25.32c10.904 4.82 20.235 7.01 20.235 7.01l-4.48 20.22c4.426 1.02 7.946 2.9 10.75 5.28 1.17 0 2.337 0 3.504-.01-3.086-3.17-5.632-5.08-5.632-5.08z"/><path fill="#FFF" d="M114.667 174.454l23 9.046-2.167 18.667 9.35 8.314h-33.017"/><path fill="#D0D2D3" d="M136.512 185.033s-9.33-2.19-20.236-7.008v25.32s2.367 2.767 5.27 7.195c7.077.016 14.155.01 21.235-.012-2.8-2.38-6.32-4.256-10.75-5.277l4.49-20.21z"/><ellipse fill="#D0D2D3" cx="151.135" cy="141.641" rx="47.96" ry="36.385"/><path fill="#D0D2D3" d="M103.426 112.38s.548 4.71-3.836 5.37c0 0-21.48-7.014-5.807 11.834 0 0 1.75 2.85-1.865 5.37 0 0-14.465-12.38-9.863-21.807 0 0 3.507-10.3 21.37-.767z"/><ellipse fill="#FFF" cx="175.627" cy="133.47" rx="18.749" ry="18.48"/><circle fill="#FFF" cx="171.513" cy="137.28" r="1.501"/><ellipse fill="#FFF" cx="132.031" cy="133.887" rx="23.142" ry="22.988"/><circle fill="#FFF" cx="126.506" cy="139.372" r="2.287"/><circle fill="#0071BC" cx="128.712" cy="130.677" r="17.88"/><path fill="#0F4481" d="M130 135.178c3.32-3.838 2.9-9.636-.934-12.953-3.834-3.316-9.63-2.902-12.954.936-3.317 3.84-2.9 9.64.937 12.96 3.83 3.32 9.63 2.9 12.95-.93z"/><path fill="#FFF" d="M124.65 132.362c1.766-2.04 1.542-5.12-.496-6.883-2.036-1.77-5.12-1.55-6.885.49-1.77 2.04-1.54 5.12.5 6.89 2.03 1.76 5.11 1.53 6.88-.5z"/><circle fill="#FFF" cx="132.079" cy="127.904" r="2.376"/><circle fill="#0071BC" cx="173.941" cy="132.88" r="14.75"/><path fill="#0F4481" d="M175.003 136.594c2.74-3.166 2.394-7.948-.77-10.687-3.163-2.735-7.945-2.393-10.687.773-2.736 3.162-2.392 7.947.773 10.685 3.16 2.74 7.94 2.393 10.68-.77z"/><path fill="#FFF" d="M170.59 134.27c1.457-1.683 1.272-4.22-.408-5.676-1.68-1.454-4.224-1.275-5.68.406-1.455 1.682-1.27 4.226.412 5.683 1.683 1.454 4.222 1.268 5.677-.412z"/><circle fill="#FFF" cx="176.72" cy="130.593" r="1.959"/><path fill="#ACAFB1" d="M192.444 141.64s-18.69-7.783-35.565-8.17c0 0-1.29 14.385 16.13 18.48 0 0 13.05 1.99 19.43-10.31zm1.926-7.784s-19.08-3.502-26.082-17.35c0 0 9.27-4.804 18.722 2.28 0 .002 7.387 4.348 7.36 15.07zm-54.315-21.538s-10.42 11.13-29.282 12.523c0 0 7.973-19.81 29.282-12.52z"/><path fill="#D0D2D3" d="M126.506 169.206s-6.748 22.932 12.134 5.354c18.88-17.576 22.32-7.85 27.467-6.897 5.146.955 16.383 20.79 12.577.955-3.807-19.837-30.572-9.633-52.178.588z"/><path fill="#6C6F71" d="M128.793 176.817s30.686-35.475 49.828-3.435c0 0 .46 1.59-1.07 1.177 0 0-4.33-12.43-17.61-13.2 0 0-9.66-4.07-29.77 16.65 0 0-2.1 1.48-1.36-1.21z"/><path fill="#6C6F71" d="M159.93 154.807l-1.825 5.188 1.826.03 1.35-6.63"/><path fill="#1D8FCD" d="M165.638 152.898s-4.17-8.488-5.707-4.004c0 0-3.44-5.05-3.44 3.056 0 0 3.27 2.225 3.45 4.925 0 0 3.38-1.356 5.71-3.977z"/><path fill="#FFF" d="M159.93 154.807s-.21-1.148-1.824-2.29c0 0 .596-2.194 1.825 2.29z"/><path fill="#ACAFB1" d="M126.506 167.713s-3.387 13.23.773 13.337c0 0 3.11 1.83 12.43-7.47 0 0-18.57 17.16-13.21-5.867zm15.962 3.477s14.218-15.065 27.63-2.764c0 0-10.737-9.634-27.63 2.764zm29.046.544s5.654 6.784 7.107 5.602c0 0 2.39.34.07-8.72 0 0 4.28 15.498-7.17 3.118zm-38.937-4.02s11.032-9.007 24.544-9.727c0 0-14.68-1.434-24.54 9.726zm31.533-9.787s7.953 1.06 12.96 9.786c0 0-7.184-7.838-12.96-9.786z"/><path fill="#D0D2D3" d="M102.7 179.94l-4.287 4.33s-1.1 11.84-1.542 26.103c1.82.02 3.63.035 5.45.05l.39-19.584v-10.9zm2.657 2.902L102.7 204.45l.87 5.986c1.74.014 3.48.034 5.222.045l-.377-28.68-3.058 1.05z"/><path fill="#FFF" d="M100.503 183.7c-1.975 3.067-2.436 14.163-2.254 26.686 2.81.03 5.63.06 8.45.08-.01-16.332 1.31-26.767 1.31-26.767.32-3.1-2.37-8.01-7.52 0z"/><path fill="#ACAFB1" d="M155.173 133.887s-17.496-2.558-45.376 6.367c0 0 3.773 18.786 27.425 16.62 0 0 20.263-5.858 17.95-22.987z"/><path d="M80.373 72.51c.57-2.12 1.412-4.094 2.526-5.928s2.46-3.436 4.05-4.808c1.59-1.37 3.38-2.45 5.37-3.24 1.99-.787 4.13-1.18 6.41-1.18 2.28 0 4.21.393 5.78 1.18 1.57.79 2.79 1.87 3.64 3.24.85 1.372 1.35 2.974 1.5 4.808.15 1.833-.06 3.81-.63 5.928-.57 2.118-1.42 4.094-2.55 5.928s-2.49 3.437-4.08 4.808c-1.59 1.372-3.38 2.452-5.38 3.24-2 .786-4.14 1.18-6.42 1.18s-4.21-.394-5.79-1.18-2.79-1.868-3.63-3.24c-.84-1.37-1.34-2.974-1.49-4.808-.15-1.834.06-3.81.63-5.928zm7.578 0c-.3 1.086-.47 2.193-.53 3.32-.05 1.127.07 2.153.35 3.076.29.923.78 1.684 1.49 2.28.71.6 1.67.897 2.9.897s2.35-.298 3.36-.896c1.02-.597 1.92-1.358 2.71-2.28.79-.924 1.46-1.95 2-3.077.55-1.127.97-2.234 1.27-3.32.27-1.086.44-2.193.49-3.32.05-1.127-.06-2.152-.35-3.076-.28-.923-.78-1.684-1.48-2.282-.7-.597-1.67-.896-2.89-.896-1.22 0-2.34.3-3.36.896-1.02.598-1.91 1.36-2.69 2.282-.77.924-1.44 1.95-1.99 3.076s-.97 2.234-1.24 3.32zm28.26-14.544h6.93l-1.06 4.094c-.32 1.263-.65 2.505-.97 3.728.87-.136 1.77-.25 2.71-.346.94-.095 1.88-.143 2.83-.143 1.44 0 2.62.12 3.53.38.91.26 1.63.61 2.16 1.06.53.44.9.95 1.1 1.5.21.55.31 1.14.31 1.75 0 .61-.06 1.21-.18 1.81-.12.6-.25 1.15-.38 1.67l-3.63 13.57h-6.92l3.06-11.37.55-2.14c.18-.69.25-1.31.21-1.86-.04-.54-.26-.99-.65-1.33-.4-.34-1.07-.51-2.02-.51-.52 0-1.01.05-1.49.14-.48.09-.9.21-1.28.34-.46.13-.88.3-1.26.48l-4.32 16.22h-6.93l7.74-29.09zm19.29 29.09c-.24 0-.43-.09-.57-.266-.13-.177-.16-.4-.08-.672l1.51-5.705c.09-.27.24-.495.45-.672.22-.17.45-.26.7-.26h5.79c.25 0 .44.09.57.27.14.18.17.4.09.68l-1.51 5.71c-.08.27-.23.5-.44.68s-.45.27-.69.27h-5.79zm11.53 0c-.24 0-.43-.09-.57-.266-.13-.177-.16-.4-.08-.672l1.51-5.705c.08-.27.23-.495.45-.672.22-.17.45-.26.69-.26h5.79c.25 0 .44.09.57.27.14.18.17.4.08.68l-1.5 5.71c-.08.27-.23.5-.45.68-.22.18-.45.27-.69.27h-5.78zm11.53 0c-.24 0-.43-.09-.57-.266s-.16-.4-.08-.672l1.51-5.705c.09-.27.23-.495.45-.672.22-.17.45-.26.69-.26h5.79c.25 0 .44.09.57.27.14.18.17.4.08.68l-1.5 5.71c-.08.27-.23.5-.44.68-.22.18-.45.27-.69.27h-5.79z" fill="#00ADEE"/><circle fill="#B2E2F9" cx="60.14" cy="126.626" r="12.05"/><circle fill="#B2E2F9" cx="69.038" cy="147.342" r="6.052"/></svg>