<svg xmlns="http://www.w3.org/2000/svg" width="250" height="250" viewBox="0 0 250 250"><path opacity=".15" d="M200.91 167.388c-.01-.028-.02-.063-.037-.106-.225-.638-.516-1.25-.866-1.825-.74-1.25-1.667-2.233-2.75-2.92l-.256-.164-2.02-.938c-.61-1.187-1.58-2.676-3.1-4.127 3.7-9.18 5.73-19.207 5.73-29.712 0-7.52-1.04-14.796-2.99-21.693.92-.578 1.74-1.314 2.45-2.207 1.67-2.102 1.94-4.14 1.87-5.48-.02-.415-.08-.822-.17-1.214l.06-.013-1.46-29.06-3.87-.43c-2.15-.24-4.43-.5-6.76-.77l-5.35-.63.06 1.17c-1.62-.95-3.38-1.57-5.18-1.82l-.04-.01c-2.44-.32-4.91-.65-7.34-.99v-.02l-2.95-.42C152.6 53.95 136 47.98 118.01 47.98c-7.37 0-14.504 1-21.277 2.87-1.126-.91-2.466-1.66-4.08-2.07-.71-.18-1.42-.27-2.13-.27-4.092 0-6.563 2.83-7.95 5.004-1.35-3.197-3.62-7.956-8.68-9.396-.74-.21-1.49-.318-2.233-.318-4.78 0-7.32 4.004-8.54 6.404-1.31-3.35-3.5-7.84-8.24-9.38l-.1-.03-.1-.03c-2.85-.79-5.67-1.58-8.39-2.36l-5.83-1.67-.02 72.87c-1.33 5.77-2.037 11.79-2.037 17.97 0 7.92 1.16 15.58 3.312 22.8-1.1.014-2.17.31-3.1.865-3.117 1.85-3.587 5.71-3.655 6.84l-.066 1.07.368.85c-.8 2.32-1.54 5.89.36 8.82.5.77 1.1 1.37 1.75 1.83 1.382 3.97 3.643 7.22 5.12 9.07.15 1.86.98 3.46 1.912 4.53 1.32 1.7 3.262 2.68 5.55 2.82 5.28 4.9 13.98 6.54 14.96 6.71l1.17.2 5.35-1.87c13.09 9.46 29.18 15.04 46.572 15.04 19.094 0 36.615-6.72 50.33-17.93l.54-.18c1.766 1.15 4.43 2.28 8.115 2.28.33 0 .67-.01 1.01-.03l.41-.02.4-.1c4.94-1.17 9.19-4.54 11.63-9.07l3.07-.38 2.92-.5c.89-.48 1.82-1.3 2.67-2.66.09-.15.19-.31.28-.46.13-.22.61-1.06 1.08-2.27.45-1.04 1.82-4.76.48-8.51z"/><path fill="#B688BD" d="M198.91 164.388c-.01-.028-.02-.063-.037-.106-.225-.638-.516-1.25-.866-1.825-.74-1.25-1.667-2.233-2.75-2.92l-.256-.164-2.02-.938c-.61-1.187-1.58-2.676-3.1-4.127 3.7-9.18 5.73-19.207 5.73-29.71 0-7.52-1.04-14.798-2.99-21.694.92-.578 1.74-1.314 2.45-2.207 1.67-2.102 1.94-4.14 1.87-5.48-.02-.415-.08-.822-.17-1.214l.06-.013-1.46-29.057-3.87-.426c-2.15-.237-4.43-.496-6.76-.77l-5.35-.63.06 1.17c-1.62-.944-3.38-1.567-5.18-1.818l-.04-.01c-2.44-.32-4.91-.65-7.34-.99v-.02l-2.95-.42C150.59 50.95 134 44.98 116 44.98c-7.37 0-14.505 1-21.278 2.872-1.126-.913-2.466-1.66-4.078-2.07-.71-.18-1.427-.272-2.133-.272-4.1 0-6.57 2.83-7.95 5.01-1.35-3.197-3.62-7.956-8.68-9.396-.74-.21-1.49-.317-2.24-.317-4.78 0-7.32 4.006-8.54 6.406-1.31-3.354-3.5-7.84-8.24-9.38l-.1-.03-.1-.03c-2.85-.787-5.67-1.58-8.39-2.36l-5.83-1.67-.02 72.87c-1.33 5.773-2.03 11.79-2.03 17.973 0 7.923 1.16 15.58 3.32 22.8-1.1.015-2.17.313-3.1.866-3.11 1.856-3.58 5.71-3.65 6.846l-.06 1.07.36.857c-.8 2.33-1.53 5.9.36 8.82.5.77 1.11 1.37 1.76 1.83 1.39 3.98 3.65 7.227 5.12 9.073.16 1.86.98 3.463 1.92 4.536 1.32 1.7 3.26 2.683 5.55 2.82 5.28 4.9 13.98 6.54 14.96 6.71l1.17.206 5.35-1.865C82.51 198.62 98.6 204.2 115.99 204.2c19.093 0 36.614-6.72 50.33-17.925l.538-.18c1.767 1.15 4.43 2.285 8.116 2.285.334 0 .674-.01 1.013-.025l.403-.023.395-.095c4.94-1.175 9.19-4.543 11.622-9.075l3.07-.378 2.923-.5c.892-.476 1.823-1.3 2.67-2.663.096-.15.19-.3.28-.46.132-.22.613-1.06 1.077-2.27.45-1.04 1.82-4.76.472-8.51z"/><path d="M61.345 132.077c-2.285.407-4.57.806-6.858 1.195-.413-7.222-.822-14.446-1.23-21.667l-.024-.822c-.084-1.264-.316-2.33-.7-3.203-.384-.874-.805-1.306-1.267-1.29l-1.43.05c.016 9.236.028 18.47.043 27.707-2.3.378-4.6.748-6.89 1.107l.02-95.335c2.81.8 5.62 1.59 8.43 2.37 3.37 1.09 4.85 5.21 5.93 8.12 1.85 5 2.49 10.59 2.51 16.01l.07 17.71c.03 4.83-1.98 10.96-2 14.3-.02 2.82 1.78 7.84 2.09 11.87l.02.49 1.26 21.36zm-9.852-44.074c.474-.02.886-.448 1.208-1.272.34-.86.5-1.93.49-3.2-.01-6.06-.03-12.12-.04-18.19 0-1.22-.17-2.31-.5-3.26-.33-.95-.73-1.47-1.2-1.55-.67-.12-1-.18-1.67-.31l.04 27.71 1.69.09zm28.14 22.497c.04 4.883-.554 9.958-2.4 14.378-1.138 2.727-2.708 6.353-5.983 7.054-3.172.68-4.982-2.744-6.072-5.035-2.113-4.436-2.485-9.718-2.612-14.73-.076-15.797-.157-31.595-.232-47.394.075-4.948.347-10.21 2.415-14.6 1.03-2.198 2.8-5.515 5.87-4.64 3.25.923 4.8 4.573 5.96 7.362 1.87 4.466 2.57 9.554 2.62 14.483.13 14.374.28 28.75.41 43.122zm-7.158-43.983c-.025-1.15-.193-2.16-.516-3.008-.33-.86-.75-1.34-1.22-1.42-.47-.08-.87.25-1.19 1.01-.33.76-.49 1.73-.48 2.89l.3 45.34c.01 1.17.18 2.14.52 2.93.34.78.75 1.14 1.22 1.08.47-.06.88-.51 1.2-1.35.33-.84.49-1.83.48-2.98-.12-14.84-.23-29.69-.35-44.53zm17.04-16.293c3.132.8 4.78 4.036 6.022 6.673 1.886 4.015 2.48 8.532 2.66 13.036.272 18.192.55 36.385.816 54.577-2.282.51-4.566 1.01-6.85 1.502-.064-4.926-.13-9.854-.193-14.78-1.362.174-2.043.26-3.405.428.06 5.026.122 10.053.18 15.08-2.284.482-4.57.955-6.858 1.42-.202-20.128-.406-40.257-.61-60.385.052-4.547.29-9.448 2.328-13.347 1.13-2.167 2.872-4.98 5.91-4.204zm2.263 46.23c-.12-9.114-.238-18.23-.356-27.345-.014-1.03-.19-1.93-.53-2.7-.338-.77-.735-1.19-1.193-1.26-.48-.07-.87.23-1.19.92-.32.68-.48 1.55-.47 2.6l.33 27.9c1.36-.05 2.03-.08 3.39-.13zm26.338 7.994c-.06 3.988-.524 7.956-2.27 11.47-1.253 2.52-2.9 5.28-5.912 6.08-2.857.675-5.72 1.337-8.584 1.985-.364-23.265-.728-46.53-1.09-69.794 2.822.61 5.647 1.21 8.476 1.8 2.994.71 4.706 3.4 6.028 5.85 1.86 3.44 2.477 7.38 2.703 11.35l.65 31.25zm-7.428-31.82c-.016-.88-.195-1.655-.538-2.33-.342-.677-.742-1.044-1.198-1.098-.68-.08-1.02-.12-1.7-.202.238 13.348.473 26.697.708 40.044l1.71-.25c.46-.068.852-.45 1.17-1.138.322-.686.475-1.48.458-2.392-.204-10.877-.405-21.756-.61-32.635zm25.402-.625c-1.708-.145-3.417-.297-5.126-.454l1.126 44.91c-2.264.59-4.53 1.18-6.8 1.76-.357-15.77-.722-31.55-1.082-47.32-2.012-.2-3.017-.31-5.028-.52-.087-4.1-.176-8.2-.262-12.3 5.618 1.09 11.248 2.13 16.885 3.12.094 3.6.19 7.19.288 10.79zm20.126 37.757c-2.257.66-4.515 1.31-6.776 1.955-.514-3.82-1.02-7.64-1.524-11.462l-.035-.44c-.1-.67-.34-1.214-.74-1.637-.39-.422-.81-.604-1.27-.536l-1.42.208.45 15.148c-2.27.632-4.53 1.257-6.81 1.872-.48-17.837-.97-35.674-1.45-53.51 2.83.493 5.66.97 8.5 1.436 2.73.507 4.54 2.366 6.06 4.405 1.74 2.31 2.64 5.38 2.73 8.38.1 3.09.21 6.18.31 9.27-.07 2.76-1.81 6.32-1.81 7.72 0 1.18 1.76 3.72 2.24 5.98l.04.25c.51 3.65 1.02 7.3 1.54 10.95zm-10.392-22.086c.472-.05.877-.32 1.185-.794.32-.49.46-1.087.44-1.77l-.3-9.81c-.02-.66-.2-1.24-.55-1.742-.35-.502-.76-.775-1.23-.81-.67-.05-1.01-.077-1.68-.128l.44 15.15 1.68-.096zm18.156 19.806c-2.263.684-4.526 1.36-6.794 2.026-.51-15.027-1.02-30.055-1.528-45.082 2.26.344 4.52.678 6.783 1.004.52 14.018 1.03 28.036 1.54 42.052zm18.775-24.448c.095 2.293-.787 4.486-2.215 6.238-1.475 1.81-3.516 3.17-5.843 3.597-.688.124-1.034.187-1.725.31.155 3.78.31 7.558.46 11.337-2.25.705-4.502 1.402-6.758 2.09-.514-13.588-1.027-27.176-1.538-40.765 2.828.39 5.658.78 8.49 1.14 2.347.32 4.463 1.58 6.07 3.27 1.563 1.64 2.637 3.76 2.752 6.06.1 2.23.202 4.47.307 6.7zm-7.068-6.768c-.02-.506-.205-.94-.55-1.308-.348-.368-.757-.564-1.23-.583l-1.7-.073.46 11.337 1.702-.156c.47-.04.86-.26 1.18-.64.31-.38.46-.82.44-1.33-.1-2.41-.2-4.82-.31-7.23zm16.38 14.07c-2.256.485-4.514.96-6.77 1.426-.368-7.828-.73-15.655-1.097-23.483 2.262.267 4.525.526 6.79.775.36 7.094.72 14.188 1.077 21.283zm-.79 3.31c-.688-.406-1.505-.51-2.448-.277-.93.226-1.71.73-2.34 1.51-.64.794-.95 1.648-.91 2.534.04.91.42 1.57 1.12 1.98.69.41 1.5.45 2.42.14.94-.31 1.73-.88 2.36-1.67.63-.79.92-1.58.88-2.4-.04-.8-.41-1.39-1.1-1.8z" fill="#B2E2F9"/><path fill="#58595B" d="M132.4 128.788l20.372 1.154 7.71 3.324-.043 6.665s14.19 10.25 20.06 5.65l.8 4.65-66.57 8.04 17.67-29.48z"/><path fill="#EAB7B4" d="M129.94 137.015s7.192 1.976 8.702 7.217c-.144-.436 3.626-7.642 6.782-6.918 0 0 1.324-.184 3.882 1.583 0 0 17.647 8.85 24.813 11.572l-14.11.65-30.99-1.56s-6.99-1.5-6.55-1.56 7.46-11 7.46-11z"/><path fill="#E99F8B" d="M129.854 151.726s3.07-16.93 28.965-.66c25.89 16.266-28.97.66-28.97.66z"/><path fill="#58595B" d="M117.34 119.168l17.486 8.73 29.215-.11s-13.21-6.997-28.64-8.897c0 0-14.59-.83-18.05.28zM97.122 131.7s15.345 2.187 25.167 2.147c0 0 2.01.498 3.28-7.427l4.95.79-.95 4.758-10.24 14.247-22.09-13.013-.14-1.503z"/><path fill="#6D6E70" d="M102.05 134.476s16.146.94 18.587 1.885c0 0-2.713 8.89-5.102 7.61-2.39-1.27-13.486-9.49-13.486-9.49z"/><path fill="#808184" d="M115.86 142.79s1.313-8.782 6.77-.634l.89-.644s-5.518-8.42-8.293.62c0 .002.092.57.634.657z"/><path fill="#58595B" d="M100.293 130.678s5.526-8.81 15.424-9.33c0 0-3.992-2.194-7.75-.687-3.76 1.51-12.38 11.96-12.38 11.96l8.853 1.97s-5.056-2.65-4.147-3.9z"/><path fill="none" d="M160.866 134.75c-.928 4.09-1.117 14.144-1.117 14.144 7.16 2.688 20.26 1.194 20.26 1.194 1.74-15.438-19.15-15.337-19.15-15.337zm-26.096-2.246c-5.82 2.035-11.543 15.874-11.543 15.874l30.433 1.925c3.84 1.078 3.444-16.953 3.444-16.953-1.98-2.662-22.333-.846-22.333-.846zm-7.304-2.43c-1.146-3.492-13.156-7.912-13.156-7.912-3.74-1.777-6.41-.877-6.41-.877-3.12 1.016-10.24 9.906-10.24 9.906-.492.61.767.63.767.63 8.882.64 19.33 11.07 19.33 11.07.656 1.14 1.454.84 1.454.84 10.73-11.71 8.26-13.65 8.26-13.65zm41.776-.067s.272.064.684.138l-.052-.037-.632-.1z"/><path fill="#7EB7E3" d="M192.808 163.395l-3.363-1.555s-.897-3.662-5.32-6.126c0 0 .16-15.493-14.198-25.57-.41-.072-.684-.137-.684-.137l.632.1.052.038c1.355.245 4.232.607 3.957-.786 0 0-2.457-5.49-24.6-9.48 0 0-8.93-2.07-11.293-.6 0 0-13.81-2.76-31.01 1.16 0 0-1.59.67-12.41 12.83 0 0-15.65 0-28.24 5.22 0 0-1.7-.37-3.68.43 0 0-2.02-.69-3.05-.02 0 0-1.23.17-1.26 2.11 0 0-3.11.34-4.77 1.46l-2.85.47s-4.54 3.53-4.6 10.28l.34 1.35-1.62.29s0-4.63-2.14-3.4c0 0-.49.2-1.36.98 0 0-2.97-2.24-3.79 2.91l.67 1.58s-2.96 6.94.95 7.38c0 0 2.2 6.55 6.05 10.87 0 0-.71 5.07 4.62 4.16 0 0 2.64 4.4 13.9 6.94l1.28-.45-.2-1.05 1.26-.36-.01-1.11 6.62-2s9.15-20.71 29.67-14.35c0 0 6.46 2.83 5.26 14.83l.42 3.77.97.34-.2 1.26s3.07-.07 5.27-1.11l-.13.81 1.38-.52.7.39 47.96-5.87.99.38c-3.58-2.93-5.55-7.76-4.75-12.81 1.19-7.43 7.91-12.53 15.02-11.4 3.86.61 7.03 2.93 8.94 6.11v-.01s7.01-1.56 5.31 11.14l.92.61.69-4.34.42 1.46.76-.16-.37 2.35s.47.53 1.61-1.41c-.01-.01 3.65-6.09-.63-9.46zm-73.325-18.638s-.84.33-1.525-.892c0 0-10.954-11.145-20.292-11.802 0 0-1.324-.02-.805-.666 0 0 7.52-9.555 10.81-10.655 0 0 2.81-.973 6.74.92 0 0 12.62 4.696 13.81 8.436 0 0 2.59 2.065-8.72 14.66zm34.177 5.546l-30.433-1.925s5.724-13.84 11.544-15.874c0 0 20.36-1.816 22.34.846 0 0 .4 18.03-3.44 16.953zm-18.636-23.654s-4.378-3.11-16-7.69c0 0 8.794-.54 19.415.6 0 0 10.3 1.02 20.97 7.18 0 0-15.72-2.51-24.39-.1zm24.725 22.24s.18-10.06 1.11-14.15c0 0 20.89-.1 19.14 15.33 0 0-13.1 1.49-20.27-1.2z"/><path fill="#013C69" d="M184.09 163.192v.006c1.615 2.687 2.33 5.984 1.788 9.385-.116.732-.29 1.44-.507 2.12l1.21-.08.51-3.16 1.76 1.205.57 1.664c1.7-12.692-5.3-11.14-5.3-11.14z"/><path fill="#D6EFFB" d="M128.21 130.1c-1.194-3.74-13.81-8.437-13.81-8.437-3.926-1.893-6.735-.92-6.735-.92-3.286 1.1-10.804 10.655-10.804 10.655-.51.645.81.666.81.666 9.34.657 20.29 11.802 20.29 11.802.69 1.22 1.53.892 1.53.892 11.32-12.595 8.73-14.66 8.73-14.66zm-9 13.624s-.797.305-1.453-.837c0 0-10.45-10.43-19.33-11.068 0 0-1.26-.03-.77-.63 0 0 7.123-8.89 10.243-9.91 0 0 2.67-.9 6.41.87 0 0 12.01 4.42 13.155 7.91 0 0 2.468 1.93-8.255 13.65zm41.282 4.286s-.03-8.8 1.526-11.608c0 0 11.37-.455 16.958 8.63 0 0 .68 2.7-.678 4.245 0 0-15.992-.47-18.573-1.39l.57 1.063 4.108.655 15.324.87.116-7.11-8.438-6.9-9.907-2.322-.68 1.836-1.07 12.91.744-.89zm-35.168-.66s3.266-8.61 8.02-12.48c0 0 4.74-3.01 22.988-.16 0 0 1.43 3.62-1.222 14.927l.778-.926s-14.456.48-28.515-.78l-.722 1.42 25.61.67 1.94.31 1.6-1.01s2.29-14.32 1.37-16.32c0 0-19.79-3.22-25.34.59l-5.88 8.69-3 5.26 2.4-.18z"/><path fill="none" d="M169.242 130.007s.272.064.684.138l-.052-.037-.632-.1z"/><path fill="#013C69" d="M185.282 174.968l.09-.264h-.017l-.073.264z"/><path fill="#7EB7E3" d="M170.113 166.35c2.857-2.88 5.736-5.524 8.602-8.134-1.1-.54-2.29-.93-3.56-1.133-7.104-1.133-13.826 3.97-15.013 11.396-.805 5.05 1.166 9.88 4.748 12.81l.67.25 1.4-.34c-.07-5.28-1.05-10.79 3.153-14.86z"/><path fill="#404041" d="M178.715 158.216c-2.865 2.61-5.744 5.253-8.602 8.134-4.202 4.07-3.223 9.582-3.153 14.862l.91-.22s2.332 3.108 7.868 2.8c4.346-1.03 8.005-4.336 9.544-8.824.024-.087.05-.174.073-.263h.016c.22-.683.4-1.39.51-2.122.98-6.102-2.09-11.872-7.16-14.367z"/><path fill="#013C69" d="M99.328 180.8l8.225 1.035c1.204-12-5.252-14.824-5.252-14.824-.33-.1-.66-.19-.98-.28.66 2.38.83 4.95.41 7.56-.38 2.39-1.21 4.59-2.39 6.52z"/><path fill="#404041" d="M72.63 181.358s5.124 8.5 14.51 7.128c0 0 6.385-.556 12.152-7.69l.036.004c1.18-1.93 2.01-4.13 2.392-6.515.417-2.614.248-5.182-.407-7.562-19.827-5.41-28.684 14.635-28.684 14.635z"/><path fill="#7EB7E3" d="M169.242 130.007s.272.064.684.138l-.052-.037-.632-.1z"/><ellipse transform="rotate(13.1 178.2 171.8)" fill="#58595B" cx="178.662" cy="172.139" rx="5.521" ry="8.08"/><path fill="#58595B" d="M75.954 175.996c.926 5.184 4.435 9.286 9.172 10.042 6.282 1 12.342-4.257 13.536-11.745.475-2.972.107-5.848-.896-8.3-12.415-1.125-18.38 5.705-21.812 10.003z"/><path fill="#D6EFFB" d="M59.583 138.908s1.162.555 1.12 2.262c0 0 .795-1.495 3.35-1.55l.276-.28s-2.54-1.237-4.75-.432z"/><path fill="#00A3DF" d="M53.356 144.573s4.133-2.11 7.015-2.763c0 0-6.44 4.112-10.92 12.748 0 0-.46-2.018-1.22.407 0 0-.63-.408-1.39 1.198l.25-3s4.36-2.1 6.28-8.59zm1.192 22.235s7.948-8.423 20.46-10.625l-.47.62s-4.843-.604-15.542 11.518c0 0-.702 1.31-.94 1.64 0 0-1.81 2.06-.367 3.46 0 0 1.61.76 2.19-2.55l.69-.01.92-.1 1.12 1.48s7.53-2.75 6.65-10.36c0 0 12.29-9.36 28.46-3.36 0 0-4.1-3.89-16.43-3.26l-1.66-.45s23.74-3.39 30.78 15.26c.04.11.08.23.12.34 0 0 .48 1.63.06 4.25 0 0-3.89-14.51-25.9-7.74 0 0-5.51 2-12.85 13.79L66 182.65l-10.2-5.14.56-3.52-3.77-3.103c0-.004.28-1.53 1.917-4.05z"/><path fill="#D6EFFB" d="M50.24 144.27s1.76-.204 1.607 2.313c0 0-.53 2.55-3.41 4.932 0 0-2.004 1.347-.904-2.46l-.306-.79s-1.385 4.812-.21 5.183c0 0 1.163.648 3.173-1.5 0 0 2.343-2.897 3.232-4.793 0 0 1.012-2.863.128-4.67l-2.853.47s-1.968 1.842-3.235 4.297l.405.87c0-.003.983-2.87 2.374-3.852zm14.685 16.878s3.06-.408 1.974 4.852c0 0-.9 3.068-3.21 4.457 0 0-3.41 1.772-.98-5.28l-.54-.732s-1.35 3.026-1.47 6.278c0 0 .02.62 1.67 2.272 0 0 3.71.687 6.36-5.435 0 0 2.89-6.144-.13-7.92l-1.56-.096s-2.02.08-4.53 3.97l.45.688c-.01 0 .34-1.59 1.93-3.054z"/><path fill="#00A3DF" d="M158.096 152.118c1.578-8.915 1.302-15.532 1.302-15.532l.823-.518-.97 13.085c.58 2.777 23.86 3.107 23.86 3.107-2.08-11.308-8.69-16.336-8.69-16.336-7.22-8.725-39.08-5.77-39.08-5.77-5.84.64-14.13 18.938-14.13 18.938l5.42.864c5.04 1.672 27.69.99 27.69.99 3.69.682 2.98-14.887 2.98-14.887l-.64.26c.54 2.39-1.45 12.91-1.45 12.91-19.3.31-29.42-.99-29.42-.99-2.81-3.51 7.35-14.01 7.35-14.01 5.48-3.16 21.03-.63 21.03-.63 4.83.4 4.47 2.65 4.47 2.65 1.01 10.43-1.72 16.11-1.72 16.11 5.62-.86 24.53 2.34 24.53 2.34-4.55-2.23-23.31-2.61-23.31-2.61zm3.837-16.333s13.254.216 17.375 9.206c0 0 .778 5.27-1.478 4.63 0 0-14.895.5-17.9-1.28 0 0 .08-12.39 2.003-12.55z"/><path fill="#7EB7E3" d="M167.22 179.468l1.815.29s5.84-18.883 16.12-16.38c0 0 4.287.99 4.24 10.954l.88-5.508s-.092-8.713-9.226-9.123c-9.14-.4-10.61 10.78-13.83 19.77z"/><path fill="#D6EFFB" d="M89.523 154.376s2.095-1.813 14.58-1.71l15.307-.19-.145.903s-21.27-.15-29.742.99zm32.01-1.56l-.28.694 36.463.584s.336-.363-.2-.773l-35.984-.5zm36.362.566s.338.378.13.81c0 0 16.38-.46 21.804.884 0 0 .38-.077-.23-.638 0 0-9.44-2.154-21.71-1.056zm-6.43 2.183l.525.085s2.38-1.766 3.02.034l-.213.26s-3.62.055-4.206-.13l-.04.27s3.03.977 7 .438l.11-.663-.49-.02.06-.46-1.73-.17s-1.25-1.99-4.02.34zm-.022 1l.557.09s1.608.94 2.535.17l.783.02s-1.72 1.593-3.875-.28z"/><path fill="#D6EFFB" d="M120.944 150.267l.382.06s-.163 1.76 1.183 1.302c0 0 .71-.28 1.53-2.35l-.14-.58-.06-1.08s-.08-2.7 2.03-2.34c0 0 1.26-.08 1.94 1.47 0 0 .95 1.98-.6 3.74 0 0-1.82.73-2.77-.7 0 0-1.68 3.3-3.24 2.61l.14.37-.33.68h-1l.9-3.22z"/><path fill="#00A3DF" d="M53.255 155.075s17.26-22.017 48.302-15.77c0 0 12.697 5.147 6.702 6.75 0 0 .93-7.57-20.6-7.3 0 0-19.48.783-34.41 16.32z"/><path fill="#D6EFFB" d="M177.765 165.446l1.167.186-.205 4.775s.692.297.893.79l2.127-.862s1.096 3.878-4.002 7.973c0 0-1.586.95-3.318.188l-.914-1.872s2.534 2.454 5.154-.762c0 0 1.99-2.9 2.136-4.544l.055-.338-1.135.583s.402 1.684-1.396 2.37l-.576 2.593-.25.168.62-2.844s-.79-.08-.97-.594l-3.6 2.128-.15-.342 3.65-1.965s-.23-.43.09-1.282l-2.56-2.074.03-.34 2.71 2.17s.19-.62 1.07-1.03l.23-4.61-1.26-.34.44-.11z"/><path fill="#00A3DF" d="M53.79 163.632s15.096-16.278 55.643-16.04c0 0 9.614.682 4.497-3.625 0 0 7.078 4.726 2.082 7.08 0 0-44.522.87-62.223 12.585zm-1.757-12.41s-2.154 1.51-4.197 8.898c0 0 2.538-7.003 4.197-8.897zm110.973 26.308s5.85-21.294 18.262-21.904c0 0 6.38.632 8.118 10.64 0 0-2.79-7.474-11.058-4.394 0 0-8.06 5.242-9.897 17.356 0 0 3.39-11.842 11.23-15.245 0 0-7.26 4.304-10.9 16.687l-3.22 1.06-1.99-.914 1.16-.146.2-1.264-2.71.122-10.64 1 5.68-22.91.39.063-5.51 22.37 10.72-1.06.19-1.45z"/><path fill="#D6EFFB" d="M189.444 161.84s1.534 4.976 1.6 8.886l.38 1.337.766-.155-.374 2.348s.766.825 2.39-3.078c0 0 1.295-2.814.393-5.272 0 0-.56-1.727-1.79-2.51l-3.37-1.556zm-72.04-43.083s10.936 3.554 17.67 8.363c0 0 5.022-2.656 25.194.716l1.043.228s-1.57-1.518-2.75-1.52c0 0-12.88-2.442-23.55-.154 0 0-5.54-3.93-16.81-7.707M76.77 154.52s1.424.643.9 2.78l4.708-1.377s.418-.582-.36-.938c0 0-4.734-1.08-5.248-.466z"/><path fill="#00A3DF" d="M119.51 153.88l1.687-.023-.543 2.15-.68.25s-1.72 17.5-4.402 25.222l35.774.27-37.474 5.16.197-1.24s-2.38-9.89-2.91-10.46l.54-3.38s2.45 5.33 2.9 10.71l4.9-28.68z"/><path fill="#D6EFFB" d="M83.224 171.042l.627-.64 3.77 3.655s.41-.398 1.7-.594l1.82-6.346s2.72-.028 3.88 3.396c0 0-1.09-2.27-3.26-2.773l-1.4 6.104s.66.877.8 1.607l3.73-.73s.38-.8.51-1.83c0 0 .39 3.77-2.35 6.08l-.26-.29s1.65-.85 2.12-3.61l-3.83.97s-.2.68-.36.9l.99 1.36-.19.22-.9-1.34s-1.12.63-1.52.65l-.76 3.83s1.02.16 3.72-2.03l.25.35s-7.18 6.73-12.63-.93l.08-.48s3.47 4.97 8.01 3.19l.94-3.98s-.44.48-2.02-.88l-5.64 1.69-.24-.28 5.63-1.69s-.57-.28.31-1.93l-3.46-3.6zm32.41 14.396l.58-.34 33.902-4.16 14.827-1.834-.25 1.566-48.75 6.115-.693-.39"/><path fill="#D6EFFB" d="M79.56 179.5s4.886 7.692 12.933.58c0 0 2.454-1.46 3.08-5.372l2.95.47S96.035 186.51 85 185.648c0 0-3.806-.515-5.526-2.89l.087-3.256zm96.122-11.94s-.713.754-1.372 2.085c-.97 1.962-1.82 5.175-.085 9.058 0 0 2.08 3.79 6.2.402 0 0 4.32-3.478 4.543-8.936 0 0 .716-5.66-4.282-6.06l-1.265.38s6.8.15 3.72 9.23c0 0-2.71 7.71-7.75 5.61 0 0-3.52-2.41-.93-9.44l1.23-2.35zM50.75 158.01s.972.292 2.29-1.582l.215-1.353s11.9-17.5 40.525-17.844l-.51-.54s-25.002-.56-40.736 18.27l-.586-.09-.72 1.41-.477 1.74z"/><path fill="#D0D2D3" d="M62.298 170.468s-1.822-.584-.058-5.257c0 0 1.324-3.07 2.685-4.06 0 0 3.438-.65 1.867 5.17 0 0-1.876 5.54-4.494 4.16zm-14.853-18.832s-1.064-.62.28-4.27c0 0 1.297-2.527 2.516-3.096 0 0 1.8-.25 1.61 2.313 0 0 0 .66-.75 1.803 0 0-2.56 4.29-3.65 3.25zm12.138-12.728s-1.225.42-1.192 2.154c0 0 .98.772 2.15.403l.17-.296s.29-1.59-1.12-2.27zM76.77 154.52s-1.48 1.152-2.057 2.31c0 0 1.1 1.217 2.957.472 0 0 .756-1.847-.9-2.783z"/><path fill="#404041" d="M137.99 119.283l-.45.194s9.18 1.177 23.77 8.586l9.324 2.59s3.934 1.278 1.667-.13c0 0 8.06.052-7.4-6.95 0 0-22.49-7.012-26.91-4.29z"/><path fill="#231F20" d="M138.252 119.59s3.035-1.233 10.726.857c0 0 32.788 9.35 9.34 6.143 0 0-7.622-4.14-20.066-7zm34.05 10.933s-7.58-1.63-10.91-2.96l4.288 1.565 6.622 1.395z"/><path fill="#6D6E70" d="M149.597 120.052s30.515 7.608 16.702 8.293c0 0 12.68 2.89 2.9-2.352 0 0-3.14-2.016-19.61-5.94z"/><path fill="#BBBDBF" d="M60.734 139.092s.546.423.575 1.41c0 0 1.13-.894 2.74-.88 0 0-1.59-.748-3.32-.53zM77.84 156.24l4.644-.584-.106.267-4.71 1.378s.147-.3.17-1.06zm-31.28-3.712s2.24 1.77 5.496-4.544c0 0 1.862-4.518-1.357-5.03l2.85-.472s2.27 3.56-2.79 8.97c0 0-1.17 1.824-3.07 2.074 0 0-1.19.315-1.14-.998zm20.504 7.017s2.24 1.037.75 5.737c0 0-2.906 9.536-7.23 5.574l1.803 2.14s5.165 1.197 7.466-8.932c0 0 1.136-2.858-1.23-4.425l-1.56-.1z"/><path fill="#D6EFFB" d="M44.314 156.266c.068.466-.004.81-.067 1 .615-1.515.566-2.38.566-2.38-.045-6.49-3.505-2.41-3.505-2.41 2.25 1.477 2.895 2.838 3.006 3.79zm7.166 21.844c1.112-7.17-5.813-4.386-5.813-4.386-4.253-3.517-6.02-9.85-6.02-9.85 2.868-9.48.153-7.937.153-7.937 1.49-2.45-.814-3.718-.86-3.743-1.28.76-1.428 3.193-1.428 3.193l.672 1.588c-3.176 7.333.953 7.374.953 7.374 1.434 6.03 6.045 10.87 6.045 10.87-.594 1.78.743 3.16.743 3.16 1.27 1.79 3.87 1 3.87 1 3.896 5.19 13.896 6.94 13.896 6.94l1.28-.45-.16-.83c-8.5-2.72-13.32-6.94-13.32-6.94z"/><path fill="#B3B3B3" d="M44.314 156.266c.054.472-.02.843-.098 1.073l.03-.08c.065-.2.136-.54.068-1z"/><path fill="#B3B3B3" d="M39.8 155.938s2.714-1.542-.154 7.938c0 0 1.768 6.332 6.02 9.85 0 0 6.926-2.785 5.814 4.384 0 0 4.822 4.224 13.323 6.94l-.042-.224 1.26-.354.02-1.85-10.2-5.146.56-3.52-3.76-3.102c-2.28-1.875-3.19.078-3.19.078l-3.63 1.89c-4.64-4.138-5.5-8.84-5.5-8.84 2.94-9.53 1-11.508 1-11.508-1.05-.63-1.81-.61-2.37-.28.05.026 2.35 1.292.86 3.744z"/><path fill="#4D4D4D" d="M44.216 157.34c-.037.09-.074.177-.115.27.01 0 .06-.096.12-.27zm.098-1.074c-.112-.95-.756-2.313-3.006-3.79 2.223 1.563 2.874 2.898 3.006 3.79z"/><path fill="#D6EFFB" d="M40.308 163.982s.854 4.702 5.502 8.84l3.635-1.89c-11.994-8.395-5.344-13.32-5.344-13.32.05-.096.08-.184.12-.273.08-.23.15-.61.1-1.08-.13-.89-.78-2.23-3-3.79 0 0 1.94 1.97-1 11.5z"/><path fill="#D0D2D3" d="M140.83 109.804c1.103-.02 2.224.074 3.344.28-2.23-7.45-5.806-.035-5.806-.035.29-.06.578-.1.87-.14 2.096-4.2 1.725-1.02 1.59-.11z"/><path fill="#919496" d="M139.237 109.916c.525-.065 1.058-.103 1.592-.112.13-.906.5-4.086-1.6.112zm22.13 27.688c-.323 1.026-.745 2.01-1.26 2.926 3.133-.226 2.317-1.787 1.26-2.926z"/><path fill="#FFF" d="M138.93 110.55c-.34-.295-.55-.492-.562-.5-1.94.358-3.785 1.112-5.438 2.287-.065.047-.13.096-.195.145 1.806-1.255 3.924-1.844 6.15-1.83.016-.033.03-.067.046-.103zm17.686 31.59c-.016-1.563 1.168-1.644 1.168-1.644.3.02.576.038.84.048l2.073-3.593c-.386-.34-.688-.56-.688-.56-.72-1.4.76-2.21.76-2.21.44.23.85.45 1.21.67.69-4.99-.67-10.69-4.19-15.63-3.57-5.01-8.61-8.18-13.63-9.12.22.76.34 1.36.38 1.82 3.13 1.35 6.13 3.74 8.46 7.02 5.44 7.66 5.15 17.21-.65 21.35-5.81 4.13-14.93 1.28-20.38-6.37-4.91-6.89-5.16-15.31-.93-19.94-5.54 5.72-5.61 15.97.21 24.14.24.34.49.67.74.99-1.03 1.16-2.61 2.65-4.32 3.24l-.89 1.77c.42.26.83.57 1.24.93l4.92-5.45s2.55 2.25 6.19 4.4l-6.23 4.44c7.23.4 17.8.37 20.98.35 1.29-1.6 2.6-3.35 3.94-5.25.32-.32.63-.66.91-1.01-1.24-.11-2.16-.34-2.16-.34zm-17.38-32.222c-.29.035-.58.08-.868.132.012.008.223.206.563.5.09-.19.19-.4.31-.632zm1.594-.114c-.02.135-.035.22-.035.22s-.266.317-.617.702c1.448.155 2.925.557 4.376 1.18-.035-.47-.153-1.067-.38-1.82-1.12-.208-2.24-.303-3.345-.282z"/><path fill="#FFF" d="M138.93 110.55c-.015.035-.028.07-.045.103.058 0 .114.003.172.005l-.126-.11z"/><path fill="#FFF" d="M140.178 110.726c.352-.385.617-.702.617-.702s.015-.085.034-.22c-.54.01-1.07.047-1.6.112v.002c-.12.233-.22.442-.31.63l.12.11c.37.007.74.028 1.12.068zm21.188 26.878c-.225-.242-.458-.465-.67-.652l-2.073 3.593c.57.022 1.063.017 1.482-.015.517-.918.94-1.9 1.26-2.926z"/><path fill="#D0D2D3" d="M128.19 148c1.237.164 2.88.295 4.738.395l6.232-4.436c-3.637-2.16-6.188-4.41-6.188-4.41l-4.92 5.45c-.407-.36-.82-.67-1.24-.94l-.623 1.24c1.79.43 2 2.68 2 2.68zm4.45-35.454c-.58.414-1.104.882-1.572 1.395.51-.52 1.066-1.01 1.668-1.45-.033.02-.065.04-.097.07zm-.65 21.34c5.448 7.656 14.57 10.51 20.38 6.377 5.804-4.134 6.095-13.69.647-21.342-2.33-3.27-5.336-5.66-8.464-7.01.033.48-.018.82-.138 1.06.27.27.523.56.75.88 2.13 3 1.465 7.12-1.483 9.22-2.948 2.1-7.064 1.38-9.195-1.61-2.13-2.99-1.467-7.12 1.483-9.22.836-.59 1.765-.96 2.716-1.12.056-.13.12-.28.198-.45-2.226-.01-4.344.58-6.15 1.83-.6.45-1.157.93-1.667 1.46-4.232 4.63-3.98 13.06.923 19.95zm11.924-10.244c3.667-2.61 8.774-1.736 11.402 1.958 2.63 3.693 1.787 8.804-1.883 11.414-3.67 2.61-8.772 1.734-11.402-1.957-2.62-3.693-1.78-8.804 1.89-11.415zm-9.467 2.18s-2.418 1.737.54 2.103c0 0 .708-.908 1.247-1.24-.072-.446-.16-1.312.033-2.157 0 0 3.31-.54 2.33.827 0 0 2.168-.043-.173 1.624 0 0-.855-.32-1.615-.18 0 0-1.25.58-1.57 1.98 0 0 .51 4.24 3.78 2.36l-.11 1.3-.43-.61s-2.36.94-3.24-1.23c-.74-.44-1.32-.44-1.32-.44-4.42-.26.99-1.85.99-1.85s-4.04-.54-.48-2.51zm-2.003 3.05c-2.657.772-.06 1.57-.06 1.57 1.06.304 1.89 1.262 1.89 1.262-1.323-.81-1.853-.872-1.853-.872.88 1.035.06 2.153.06 2.153.1-1.17-.34-2.137-.34-2.137-3.41-1.73.31-1.975.31-1.975zm7.734-18.146c-.09.1-.187.2-.285.303 1.656.04 3.287.7 4.523 1.93.12-.24.17-.58.138-1.06-1.45-.63-2.928-1.03-4.376-1.18zm-1.12-.068c-.06-.002-.115-.005-.173-.005-.078.17-.143.322-.198.458.272-.04.545-.06.818-.07-.163-.13-.315-.26-.448-.37z"/><path fill="#D0D2D3" d="M139.505 111.033c.13-.004.26-.005.388-.003.1-.102.194-.205.285-.303-.377-.04-.75-.062-1.12-.068l.447.37zm22.48 23.8c-.083.6-.198 1.188-.34 1.763 4.905 3.354.85 3.903-1.56 3.966-.385.676-.824 1.318-1.314 1.92 2.08.192 5.07.068 6.18-1.978 0 0 1.95-2.714-2.96-5.67z"/><path fill="#D0D2D3" d="M160.105 140.53c-.008.01-.014.02-.02.03 2.407-.062 6.465-.61 1.56-3.965-.083.34-.176.677-.28 1.008 1.06 1.14 1.875 2.7-1.26 2.926zm-1.482.014c-.263-.01-.54-.026-.84-.048 0 0-1.183.08-1.167 1.644 0 0 .915.228 2.155.343.49-.603.93-1.245 1.32-1.92-.83.02-1.46-.02-1.46-.02z"/><path fill="#D0D2D3" d="M160.01 136.384s.302.225.687.567l.41-.71c.193.13.37.24.538.36.142-.57.257-1.16.34-1.76-.365-.22-.768-.44-1.215-.66 0 0-1.473.82-.76 2.22zm-1.387 4.16s.633.038 1.464.018c.005-.01.01-.02.02-.032-.42.03-.913.036-1.484.014z"/><path fill="#D0D2D3" d="M160.697 136.95c.21.19.444.41.67.653.103-.33.195-.668.278-1.008-.168-.114-.345-.233-.537-.355l-.41.71z"/><path fill="#FFF" d="M139.72 111.21c-.812.827-1.686 1.523-1.033-.1-.95.154-1.88.523-2.716 1.118-2.95 2.1-3.61 6.226-1.48 9.218s6.25 3.715 9.2 1.616c2.95-2.1 3.62-6.226 1.49-9.218-.22-.32-.48-.613-.75-.88-.63 1.23-3.11-.48-4.69-1.755zm.172-.18l-.17.18c1.582 1.273 4.066 2.983 4.695 1.753-1.236-1.225-2.867-1.892-4.523-1.934z"/><path fill="#FFF" d="M139.72 111.21l-.215-.178c-.273.01-.546.035-.818.078-.653 1.623.22.928 1.034.1z"/><path fill="#FFF" d="M139.72 111.21c.06-.06.117-.12.173-.18-.128-.003-.258-.002-.388.002.07.06.14.117.216.177zm13.714 25.805c3.67-2.61 4.512-7.72 1.883-11.414-2.628-3.69-7.735-4.57-11.402-1.95-3.668 2.61-4.512 7.72-1.883 11.42 2.63 3.69 7.733 4.57 11.402 1.96z"/><path fill="#FFF" d="M151.49 135.765c.005 0 .008-.003.01-.005-.002.002-.005.004-.01.005z"/><linearGradient id="a" gradientUnits="userSpaceOnUse" x1="-2111.335" y1="2133.626" x2="-2111.335" y2="2141.492" gradientTransform="rotate(54.5 962.9 3331.7)"><stop offset="0" stop-color="#FFF"/><stop offset=".14" stop-color="#FBFDFE"/><stop offset=".268" stop-color="#F0F6FA"/><stop offset=".391" stop-color="#DEECF3"/><stop offset=".51" stop-color="#C4DCEA"/><stop offset=".627" stop-color="#A2C9DE"/><stop offset=".743" stop-color="#79B1CF"/><stop offset=".858" stop-color="#4894BD"/><stop offset=".969" stop-color="#1174A9"/><stop offset="1" stop-color="#006AA3"/></linearGradient><path opacity=".4" fill="url(#a)" d="M151.49 135.765c.005 0 .008-.003.01-.005-.002.002-.005.004-.01.005z"/><path fill="#1D8FCD" d="M136.81 126.804c.76-.14 1.615.175 1.615.175 2.34-1.67.174-1.63.174-1.63.97-1.37-2.34-.83-2.34-.83-.2.84-.11 1.71-.04 2.15.27-.17.49-.19.57.12zm1.116-.177c-.54-.19-.884-.107-.993-.072l-.04.015.04-.015c1.495-.54.993.072.993.072z"/><path fill="#FFF" d="M136.933 126.555l-.04.015c.012-.006.026-.01.04-.015zm.993.072s.502-.61-.993-.072c.11-.035.454-.117.993.072z"/><path fill="#6C6F71" d="M132.138 130.85s.44.966.338 2.136c0 0 .82-1.118-.055-2.153 0 0 .53.063 1.86.872 0 0-.83-.958-1.89-1.26 0 0-2.59-.8.06-1.57 0-.002-3.71.242-.3 1.974z"/><path fill="#BE1E2D" d="M133.933 130.176s.577 0 1.32.438c-.222-.545-.353-1.282-.328-2.282 0 0-5.41 1.59-.992 1.844z"/><path fill="#6C6F71" d="M135.92 131.11c.162.145.328.314.49.512 0 0-.22-.175-.49-.513-.23-.21-.456-.37-.667-.5.883 2.17 3.237 1.23 3.237 1.23l.43.6.105-1.31c-3.27 1.88-3.778-2.36-3.778-2.36.313-1.4 1.563-1.98 1.563-1.98-.182.03-.358.09-.517.19 0 0-.03-.12-.06-.31-.538.33-1.246 1.24-1.246 1.24-2.958-.37-.54-2.11-.54-2.11-3.56 1.97.478 2.51.478 2.51.025 1.31.57 2.25.994 2.78z"/><path fill="#6C6F71" d="M136.81 126.804c-.077-.305-.307-.283-.575-.12.03.195.06.313.06.313.156-.1.333-.16.515-.193zm-.89 4.306c-.424-.53-.97-1.464-.995-2.778-.024 1 .106 1.737.328 2.282.21.125.436.286.666.495zm0 0c.27.337.49.512.49.512-.162-.197-.328-.367-.49-.513z"/><path fill="#EE3638" d="M125.894 164.762c.05-.127.1-.245.146-.357-.056-.012-.113-.026-.168-.04.005.127.014.26.022.397z"/><path fill="#FFF" d="M127.702 131.105s-14.25-9.597-10.377 6.578c0 0-1.167-.158-.162 1.778 0 0 .77.79.895-.58 0 0 .514 1.78.997-.12 0 0-.203-.78.894-.55 0 0 .77-1.23-1.88-.83 0 0-1.79-12.45 9.08-4.36 0 0 .64-1.07.54-1.89zM153.59 144.5s27.487 30.004 23.705-5.874c0 0 4.548.153 4.158 1.82 0 0 2.503 37.395-28.307 9.124 0 0-4.222-2.616.445-5.07z"/><path fill="#FFF" d="M176.3 135.19c-5.303-3.86-6.254 1.46-6.254 1.46.532.57 1.88-.148 1.88-.148 3.456-1.616 3.922 1.542 3.922 1.542l3.096 2.23"/><path fill="#FFF" d="M177.59 140.67s-1.048-1.222-1.742-2.626c-.693-1.407.74-.133.74-.133l.096-2.13-.058-.62s-2.064-5.99-.147-9.74c0 0 3.65-1.59 1.35 4.65 0 0-.29 4.12.14 4.85 0 0 .84 1.11 1.77.07 0 0 1.23-3.77 5.5-5.34 0 0 2.62 2.4-2.32 3.84l-1.67 2.33s3.89 5.13-2.57 5.1"/><path fill="#FFF" d="M177.318 134.673s-.202.672-2.367.44c-2.16-.23 3.62 3.86 3.62 3.86l-1.24-4.3z"/><path fill="#D0D2D3" d="M176.923 135.4l1.052 1.535s3.884.616 1.778 3.913c0 0 2.523-3.212-1.202-4.08l-1.62-1.37zm3.293 5.855s.62 1.477-.43 7.18l.43-7.18z"/><circle fill="#0071BC" cx="139.829" cy="119.225" r="4.621"/><path fill="#0F4481" d="M138.496 121.39c-.858-.994-.75-2.49.24-3.35.99-.857 2.49-.75 3.35.242.856.99.748 2.49-.243 3.348-.99.858-2.49.75-3.347-.24z"/><path fill="#FFF" d="M139.878 120.66c-.456-.526-.398-1.322.128-1.778.526-.456 1.323-.4 1.78.128.456.526.397 1.324-.13 1.78-.526.455-1.322.397-1.778-.13z"/><circle fill="#FFF" cx="137.958" cy="119.509" r=".614"/><circle fill="#0071BC" cx="149.007" cy="131.665" r="6.032"/><path fill="#0F4481" d="M147.572 134.183c-1.12-1.295-.98-3.25.315-4.37 1.292-1.118 3.25-.978 4.37.317 1.118 1.292.977 3.25-.317 4.37-1.292 1.118-3.25.977-4.368-.317z"/><path fill="#FFF" d="M149.376 133.233c-.595-.688-.52-1.728.167-2.32.688-.596 1.728-.523 2.323.165s.52 1.73-.168 2.323c-.688.6-1.726.52-2.322-.16z"/><circle fill="#FFF" cx="146.87" cy="131.729" r=".802"/></svg>