<svg xmlns="http://www.w3.org/2000/svg" width="250" height="250" viewBox="0 0 250 250"><path d="M212.598 185.063c-.002 0-.002-.002-.003-.002-1.49-3.25-12.768-10.33-22.376-15.92l-.02-.01c-.52-.3-1.03-.59-1.53-.88l-.09-.05c-.48-.28-.96-.55-1.42-.81l-.16-.09-1.33-.75-.19-.1c-.42-.23-.83-.46-1.22-.68l-.24-.13-.11-.06c.47-.78.92-1.56 1.36-2.36 1.26.71 2.7 1.13 4.24 1.13 4.78 0 8.66-3.88 8.66-8.66l-.01-.09c5.26-.65 9.34-5.13 9.34-10.57 0-4.09-2.31-7.64-5.7-9.43.01-.18.03-.37.03-.56 0-3.69-2.99-6.67-6.67-6.67-.31 0-.61.03-.9.07 0-.16.01-.32.01-.49 0-23.43-10.98-44.28-28.06-57.73 12.28 1.25 25.09.19 34.44-6.52l-11.5-12.5 4-14.5c-9.7.25-18.12 13.03-27.08 13.8-10.94.94-35.44-7.39-38.35-8.4l-.11-.6-.03.56-.04-.01v-.79c-17.43-16.16-44.33 4.1-48.15 7.13-.2-.97-1.06-1.7-2.09-1.7-1.18 0-2.13.96-2.13 2.14v21.55C62.79 80.21 53.62 93.97 49.6 109.8c-3.6 1.76-6.084 5.45-6.084 9.725 0 .304.02.6.046.897-2.65 1.94-4.38 5.07-4.38 8.606 0 5.35 3.94 9.76 9.074 10.53 1.04 6.55 2.958 12.8 5.608 18.65.294 12.84 8.395 26.59 28.16 32.124.273.17.54.35.817.51-1.24 1.74-1.98 3.86-1.98 6.17 0 5.89 4.78 10.664 10.67 10.664.12 0 .24-.02.36-.02 1.26 4.99 5.76 8.69 11.14 8.69 2.53 0 4.87-.83 6.77-2.22 1.29.765 2.79 1.21 4.4 1.21 4.79 0 8.67-3.88 8.67-8.664v-.09c3.65-.458 6.72-2.74 8.27-5.917 13.62-1.91 26.04-7.54 36.19-15.85 6.67 1.477 14 2.81 21.62 3.69 0 0 23.52 2.11 23.82-2.712.02-.21-.06-.45-.18-.71zM79.505 49.37c1.438 1.987 5.396 8.195 4.403 15.024-1.5.874-2.973 1.79-4.403 2.764v-17.79z" opacity=".15"/><path d="M94.93 55.74c-.9-2.575-2.086-6.31-2.666-7.97-.18-.52-.318-.843-.346-.857-.42-.203-1.57-1.362-1.68-1.674-.014-.05 0-.07 0-.07.115-.21 2.044-1.02 3.706-1.6 2.575-.9 6.206-1.45 7.017.88.69 1.97-1.03 3.83-1.38 4.16 0 0-.02.05-.02.07.45.03 3.65-.3 4.53 2.22 1.35 3.86-2.61 6.87-6.55 8.25-.58.2-1.08.31-1.08.31-.12-.08-1.14-2.68-1.51-3.74zm.03-10.122c-.228.08-.387.16-.4.187-.014.028 1.064 3.45 1.085 3.512.028.013.05.006.132-.023.603-.21 2.88-1.563 2.313-3.184-.405-1.164-2.298-.782-3.13-.492zm6.31 6.533c-.593-1.7-2.96-1.41-4.395-.91-.228.08-.49.2-.504.23-.02.01.06.24.19.59.41 1.16 1.38 3.67 1.68 4.19 0 0 .05.01.11-.01 1.77-.61 3.47-2.56 2.94-4.07zm4.365-1.2c-.452-2.64 1.046-5.76 4.646-6.37 0 0 1.05-.13 1.21-.02.03.02.07.15.1.3.05.28.07.66.07.79.22-.01 2.61.34 3.13 3.4.44 2.58-.76 5.35-3.77 5.87-2.91.5-4.9-1.24-5.36-3.95zm4.678-3.05l-.173.03c-.03-.04-.07-.14-.092-.27-.04-.24-.05-.55-.042-.64-1.04.18-2.265 1.37-1.91 3.45.038.22.446 2.6 2.527 2.25 1.02-.17 2.017-1.12 1.687-3.05-.32-1.86-1.542-1.83-1.997-1.76zm6.68-2.1c.04-.83.09-1.38.18-1.46.323-.29 1.24-.55 2.03-.52.197.01.46.07.456.14-.04.18-.11.72-.13 1.14-.02.35 0 .44.04.44.02 0 .07-.04.07-.04s1.12-1.33 2.77-1.25c2.74.14 2.63 3.74 2.45 7.5-.07 1.45-.19 2.57-.19 2.57-.01.11-.97.4-1.91.35-.42-.02-.72-.14-.72-.14.16-.98.33-2.29.4-3.74.1-2.13.1-3.8-1.11-3.86-1.43-.07-1.9 1.47-1.9 1.47 0-.02-.05 1.41-.12 2.8-.06 1.2-.14 2.37-.21 2.43-.46.42-1.7.51-2.29.49-.18-.01-.33-.01-.33-.08.14-.7.25-1.9.31-3.24.08-1.73.11-3.65.17-4.94zm19.642 3.25c.078-.12.748.06 1.123.24.893.43.912.64.912.64-.31.65-6.023 6.8-6.336 6.91s-1.684-.48-1.684-.48c-.502-.24-.7-.45-.7-.45.374-.78.806-6.97 1.372-8.16.022-.05.762-.21 1.945.35 0 0-.937 4.5-.968 5.86 0 0-.03.09.06.03.76-.53 3.78-4.1 4.27-4.92zm6.08 10.44c-.145.86-.02 1.24.146 1.54-.06.21-1.4.59-2.2.33-.07-.02-.32-.54-.12-1.49 0 0 .01-.03 0-.04-.02-.01-.06.02-.06.02s-1.14.43-2.4.02c-1.54-.49-2.23-1.6-1.76-3.06.97-2.99 5.06-2.11 5.4-2 .02.01.04 0 .04 0 .16-.5-.36-1.04-1.85-1.52-.46-.15-1.05-.3-1.27-.33h-.02c.16-.49.85-1.22 1.11-1.36.02-.01.42 0 1.24.27 2.6.84 3.49 2.2 2.82 4.28l-.28.87c-.27.86-.69 2.14-.75 2.52zm-1.29-2.68c.065-.2.122-.37.104-.38-.62-.2-2.62-.5-3.02.73-.14.43.02.94.79 1.18.44.15 1.54.26 1.91-.87l.21-.65zm3.452 1.45c.717-2.99 3.455-4.15 6.098-3.51.316.08.402.1.47.13.06.07.032.33-.037.62-.113.48-.345 1.05-.486 1.11l-.123-.03c-.67-.16-3.09-.64-3.73 2.03-.24 1 .06 1.98 1.55 2.34.93.22 1.57.01 1.62.02.08.13.03.47-.06.84-.11.48-.31.98-.46 1.06 0 0-.66.19-1.8-.08-2.84-.68-3.51-2.65-3.07-4.51zm13.576 4.47c-.008.88.174 1.23.387 1.5-.033.22-1.29.8-2.127.67-.07-.01-.398-.48-.357-1.45 0 0 .006-.03-.012-.04-.018 0-.06.03-.06.03s-1.058.61-2.374.4c-1.602-.25-2.45-1.23-2.215-2.75.48-3.11 4.656-2.88 5.012-2.83.018.01.04-.01.04-.01.08-.51-.524-.97-2.073-1.21-.48-.07-1.09-.13-1.31-.13h-.017c.08-.51.645-1.34.872-1.52.02-.01.41-.06 1.26.07 2.7.42 3.79 1.63 3.45 3.78l-.14.91c-.14.89-.35 2.22-.35 2.61zm-1.697-2.45c.033-.21.06-.39.043-.39-.65-.1-2.67-.09-2.87 1.19-.07.45.16.92.96 1.05.46.08 1.56.01 1.75-1.16l.1-.67zm4.64-2.17c.02-.68.055-1.13.13-1.2.26-.24 1.007-.47 1.652-.45.162.01.377.05.375.11-.02.14-.074.59-.086.93-.01.29.006.36.043.36.018 0 .055-.03.055-.03s.902-1.1 2.252-1.06c2.248.08 2.2 3.03 2.1 6.11-.042 1.19-.126 2.1-.126 2.1 0 .09-.78.34-1.56.31-.34-.01-.59-.11-.59-.11.12-.8.25-1.88.29-3.07.06-1.74.04-3.11-.95-3.15-1.17-.04-1.53 1.23-1.53 1.23 0-.01-.02 1.16-.06 2.29-.03.99-.08 1.94-.14 2-.37.35-1.38.44-1.87.42-.14 0-.27-.01-.27-.06.11-.57.18-1.56.22-2.65.05-1.42.05-2.99.09-4.05zm8.884 3.06c-.333-2.32.79-4.64 3.677-5.05.838-.12 2.297.04 2.523 1.62.217 1.52-.89 3.33-3.058 4.44.017.11.443.43 1.37.3.766-.11 1.564-.37 2.068-.78 0 0 .017-.02.033-.02.035 0 .086.23.103.33.062.43.062 1.19-.217 1.67 0 0-.55.5-2.28.75-2.5.36-3.93-1.15-4.23-3.23zm3.515-3.39c-.963.14-1.674 1.4-1.473 2.81.03.2.037.25.106.24.746-.12 2.162-1.42 1.99-2.61-.05-.37-.355-.47-.623-.44zm7.985 5.57c-.165.07-.944-.41-1.28-1.19l-.05-.11c1.897-.83 2.274-1.99 2.046-2.52-.416-.96-3.28-.32-3.898-1.74-.594-1.37.896-3.59 2.762-4.4.183-.08.986.37 1.313 1.08-.248.1-2.146 1.34-1.766 2.22.358.83 3.143.19 3.938 1.88.84 1.93-1.777 4.23-3.064 4.79z" opacity=".15"/><circle fill="#3FD8D8" cx="118.848" cy="126.57" r="73.478"/><path fill="#FFF" d="M88.55 126.653c0-4.095-2.31-7.646-5.694-9.435.016-.188.028-.375.028-.565 0-3.684-2.985-6.667-6.667-6.667-.495 0-.976.058-1.44.16-1.72-3.45-5.275-5.827-9.394-5.827-3.38 0-6.378 1.6-8.3 4.08-1.422-.69-3.013-1.09-4.7-1.09-5.983 0-10.833 4.85-10.833 10.83 0 .3.02.6.045.89-2.65 1.94-4.378 5.06-4.378 8.6 0 5.89 4.775 10.66 10.667 10.66.122 0 .24-.02.36-.02 1.258 4.98 5.762 8.68 11.14 8.68 2.53 0 4.863-.83 6.763-2.21 1.292.76 2.794 1.21 4.404 1.21 4.79 0 8.67-3.88 8.67-8.67v-.1c5.26-.66 9.34-5.13 9.34-10.57zm117.002 17c0-4.095-2.31-7.646-5.694-9.435.016-.188.028-.375.028-.565 0-3.684-2.985-6.667-6.667-6.667-.5 0-.98.058-1.44.16-1.72-3.45-5.28-5.827-9.4-5.827-3.38 0-6.38 1.6-8.3 4.08-1.43-.69-3.02-1.09-4.7-1.09-5.99 0-10.84 4.85-10.84 10.83 0 .3.02.6.04.89-2.65 1.94-4.38 5.06-4.38 8.6 0 5.89 4.77 10.66 10.67 10.66.12 0 .24-.02.36-.02 1.26 4.98 5.76 8.68 11.14 8.68 2.53 0 4.86-.83 6.76-2.21 1.29.76 2.79 1.21 4.4 1.21 4.78 0 8.66-3.88 8.66-8.67l-.01-.1c5.26-.66 9.34-5.13 9.34-10.57z"/><path fill="#DDD9DA" d="M180.934 164.844s-37.086 28.945-85.33 26.533c-51.234-2.563-51.134-47.303-31.66-58.795 18.394-10.854 34.675-7.538 34.675-7.538s7.23-10.947 15.07-11.156c22.61-.603 40.02 18.77 61.43 32.036"/><path fill="#00AEFF" d="M150.025 136.5c11.31-4.672-30.452-22.46-40.552-21.255 0 0-.288.03-.753.108-5.673 3.02-10.1 9.69-10.1 9.69s40.1 16.132 51.405 11.458z"/><path fill="#DDD9DA" d="M133.595 174.19s24.726 9.647 53.367 12.965c0 0 23.52 2.11 23.82-2.714.3-4.82-36.483-24.42-36.483-24.42m-9.05-19.29s9.95-10.95 17.79-7.33l-2.52 29.9"/><circle fill="#0F4481" cx="68.618" cy="152.934" r="14.322"/><path fill="#FFF" d="M116.536 118.49l.076.124c.026.048.19.29.12.223-.024-.035-.01.023-.05-.075-.02-.06-.083-.395.08-.783.174-.39.4-.51.355-.5-.025 0-.242.06-.528.1-.59.08-1.49.07-2.48-.06-2.01-.25-4.48-.91-6.99-1.94-2.52-1.02-5.11-2.4-7.48-4.06-2.38-1.65-4.55-3.55-6.31-5.53-1.78-1.98-3.17-4.02-4.17-5.84-1.02-1.83-1.65-3.44-2.05-4.58-.2-.57-.35-1.03-.43-1.34l-.15-.48-7.93 2.55.22.59c.14.38.35.95.66 1.66.6 1.41 1.54 3.41 2.96 5.62 1.4 2.21 3.29 4.63 5.61 6.89 2.31 2.27 5.03 4.37 7.94 6.11 2.9 1.75 5.99 3.15 9 4.15 3.01 1.01 5.94 1.62 8.62 1.78 1.35.07 2.63.05 3.93-.22.65-.13 1.3-.31 2.02-.7.68-.36 1.51-1.02 1.96-2.04.45-1.01.36-2.01.21-2.57-.16-.62-.35-.97-.55-1.33-.23-.4-.25-.38-.32-.49l-.08-.12-4.28 2.83z"/><path fill="#D0D1D2" d="M97.66 118.14c2.41 1.315 4.904 2.407 7.35 3.222 3.012 1.005 5.94 1.617 8.624 1.776 1.35.072 2.63.048 3.932-.217.65-.13 1.307-.31 2.02-.69.685-.36 1.514-1.02 1.966-2.04.458-1.01.362-2 .21-2.57-.154-.62-.344-.97-.544-1.33-.23-.4-.247-.38-.32-.49l-.082-.11-4.152 2.75c.008-.12.032-.27.1-.43.173-.38.398-.5.354-.49-.025.01-.242.07-.528.1-.585.08-1.482.07-2.477-.05-2.01-.25-4.476-.91-6.988-1.94-2.52-1.02-5.104-2.4-7.477-4.05-.356-.24-.695-.51-1.042-.76.218 2.41.043 5-.945 7.37zm19.022.622l-.01-.05c.05.08.105.17.06.125-.024-.035-.01.023-.05-.075zM87.93 96.552s1.452 5.075-5.745 6.968c0 0-2.15-2.887-2.7-4.954" opacity=".3"/><path fill="#6D6F71" d="M118.156 125.102l-.542-.208-.753 6.482.25.228c6.41 2.022 13.52 3.984 19.72 5.01.44-3.21.7-7.35.7-7.35l-19.36-4.162z"/><path fill="#D0D1D2" d="M110.53 71.49s-9.914-9.11-8.09 5.987l2.497-.99 5.592-4.997z"/><ellipse transform="rotate(25.8 130.9 98.8)" fill="#FFF" cx="130.915" cy="98.749" rx="36.547" ry="29.282"/><ellipse transform="rotate(25.8 127.1 96.5)" fill="#D0D1D2" cx="127.085" cy="96.485" rx="30.583" ry="23.33"/><ellipse transform="rotate(25.8 113.2 87.5)" fill="#FFF" cx="113.181" cy="87.458" rx="12.531" ry="12.351"/><ellipse transform="rotate(25.8 139.3 100.4)" fill="#FFF" cx="139.28" cy="100.398" rx="15.468" ry="15.365"/><path fill="#919396" d="M162.62 96.257c-.002-.013 1.147 7.854.23 9.803l1.69-1.086s11.9-6.718-1.92-8.717z"/><path fill="#D0D1D2" d="M160.516 93.067s8.664-1.153 11.696 3.718c0 0 3.345 7.504-8.233 11.507l-2.91 1.182s-.94-1.782.48-3.973c0 0 13.99-5.82-.25-8.56 0 0-1.97-1.13-.79-3.86z"/><circle fill="#0071BC" cx="137.88" cy="99.976" r="10.821"/><path fill="#0F4481" d="M143.766 94.766c-2.463-1.833-5.945-1.324-7.777 1.138-1.84 2.463-1.33 5.943 1.13 7.775 2.46 1.83 5.94 1.32 7.78-1.14 1.83-2.46 1.32-5.95-1.14-7.78z"/><circle fill="#FFF" cx="139.428" cy="98.464" r="2.954"/><circle fill="#FFF" cx="145.28" cy="101.872" r="1.439"/><circle fill="#0071BC" cx="113.824" cy="87.969" r="8.739"/><circle fill="#0F4481" cx="115.896" cy="87.36" r="4.489"/><circle fill="#FFF" cx="115.075" cy="86.748" r="2.386"/><circle fill="#FFF" cx="119.802" cy="89.5" r="1.161"/><path fill="#6D6F71" d="M114.89 100.352c-.022-.048-.292.016-.73.23-.433.215-1.056.574-1.65 1.255-.405.492-.738 1.207-.67 2 .09.784.55 1.495 1.1 2.037.552.564 1.266 1.056 2.128 1.27.212.067.437.096.672.09.23.024.465-.01.7-.08.116-.034.242-.044.347-.104l.16-.09.01-.01c.01-.01.01-.008.01-.008s.002 0 0 0l-.01.677.156.66c.295.88 1.01 1.51 1.752 1.83.747.34 1.536.42 2.255.34.725-.05 1.39-.29 1.943-.62.775-.45 1.137-1.13 1.337-1.56.124-.48.158-.74.102-.76-.058-.01-.2.21-.395.61-.27.34-.635.87-1.333 1.2-.487.26-1.07.44-1.704.47-.626.05-1.308-.05-1.914-.34-.606-.28-1.127-.77-1.342-1.43l-.115-.51.01-.55c.04-.43.18-.85.27-1.28l.15-.65.07-.32.03-.14v-.04l-.03.04-.07.07-.17.19c-.36.4-.7.81-1.11 1.15l-.28.26-.11.07c-.07.05-.16.04-.24.07-.16.05-.33.08-.5.06-.17.01-.34-.01-.51-.07-.69-.16-1.31-.56-1.8-1.04-.51-.48-.86-1.04-.95-1.61-.07-.57.14-1.13.48-1.57.96-1.24 2.01-1.71 1.91-1.85z"/><path fill="#0B8ECC" d="M119.805 100.992s2.913-2.245 2.307 3.95l-4.678 1.204-1.6-3.987s4.237-3.94 3.97-1.17z"/><path fill="#FFF" d="M121.47 104.57l-2.007.51s1.182-1.6 2.006-.51zm-4.51-.7l-.6-1.297s.913 0 .6 1.296z"/><path fill="#A0A2A3" d="M152.195 180.818c.563-.24.94-.39.94-.39L136.608 176s-2.363 6.487-11.42 13.126c10.085-2 19.197-5.044 27.005-8.308z"/><path fill="#FFF" d="M118.066 122.33s-1.508 6.935 3.316 10.402c4.825 3.468 16.132-3.47 16.132-3.47l-1.207-2.26-18.24-4.672z"/><path fill="#D0D1D2" d="M130.316 132.63l-3.657-5.626-6.49-1.81s-.39 3.006-.33 6.08c.42.526.93 1.02 1.54 1.458 2.19 1.58 5.73.997 8.93-.1z"/><path fill="#A0A2A3" d="M135.604 166.45s42.213 23.722 74.978 17.29l.017-.01c-2.64-5.772-36.3-23.71-36.3-23.71s-.24-1.562-13.27 1.958c-6.23 1.684-25.43 4.473-25.43 4.473zm30.532-26.63c.505.498 1.188 1.22 1.43 1.707.388.772 6.94-9.84 15.47-8.04l.01-.103c-6.446-2.972-14.312 3.896-16.91 6.436z"/><path fill="#F2D86B" d="M77.506 101.665c0 1.178-.955 2.133-2.133 2.133s-2.133-.955-2.133-2.133V47.427c0-1.18.956-2.133 2.133-2.133 1.178 0 2.133.954 2.133 2.133v54.238z"/><path fill="#FFF" d="M76.135 78.538s-6.704-3.2-11.122.686c-2.87 2.523-3.123 7.084-.99 8.912 0 0-5.104 2.362-4.037 8.304 1.066 5.94 5.133 12.84 16.606 7.923 10.13-4.343 12.493-9.903 12.493-9.903s5.104-21.482-5.256-21.482-7.39 3.884-7.7 5.56z"/><path fill="#D0D1D2" d="M76.288 79.225s-.99 12.036 9.293 12.95c0 0-14.06 2.285-9.29-12.95z"/><path fill="#D0D1D2" d="M64.023 88.136s8.81-3.122 11.96.84c0 0-2.794-1.78-11.96-.84zM63.39 99.64s14.828 4.978 15.437-6.297c0 0 2.336 10.768-10.056 9.243 0 0-5.48.202-5.38-2.946z"/><path fill="#F2D86B" d="M73.24 102.544v4.866c0 1.18.956 2.133 2.133 2.133s2.133-.954 2.133-2.133v-7.22c-.864 1.094-2.208 1.984-4.266 2.354z"/><ellipse fill="#D6B303" cx="75.323" cy="108.097" rx="2.083" ry="1.549"/><path fill="#0099B2" d="M77.506 71.702s32.942-24.55 48.162-13.218l-.053-15.797V30C104.833 18.667 77 47.368 77 47.368s11.07 13.364.506 24.334z"/><path fill="#0099B2" d="M125.46 58.526s48.59 21.46 73.258 3.792l-11.5-12.5 4-14.5c-9.704.25-18.593 6.246-27.552 7.015C152.03 43.333 125.5 31.5 125.5 31.5s-.954 23.596.063 26.93"/><path fill="#048B99" d="M125.688 40.118s-.9 15.447.115 18.782c0 0 9.22 3.172 9.197 3.155-6.75-5.312-9.312-21.937-9.312-21.937z"/><path fill="#FFF" d="M130.22 194.652c0-4.096-2.31-7.646-5.696-9.435.016-.188.028-.375.028-.565 0-3.684-2.985-6.668-6.667-6.668-.495 0-.976.06-1.44.16-1.72-3.45-5.275-5.826-9.394-5.826-3.38 0-6.37 1.604-8.29 4.084-1.42-.688-3.01-1.084-4.7-1.084-5.98 0-10.83 4.85-10.83 10.834 0 .303.02.6.05.896-2.65 1.94-4.38 5.065-4.38 8.604 0 5.89 4.78 10.666 10.67 10.666.13 0 .24-.015.36-.02 1.26 4.988 5.77 8.687 11.14 8.687 2.53 0 4.87-.827 6.77-2.214 1.29.77 2.8 1.22 4.41 1.22 4.79 0 8.67-3.88 8.67-8.66 0-.03-.01-.06-.01-.09 5.26-.65 9.34-5.13 9.34-10.57zM90.823 59.084c-1.545.853-2.104.97-2.104.97-.2-.06-.82-1.086-1.38-2.098-.5-.9-.95-1.804-1.01-2.008-.05-.214.62-1.182 1.43-1.628 0 0 1.19 2.17 1.91 2.375.25.074.67-.13.8-.202 1.56-.862 2.36-2.625 1.69-3.838-1.24-2.243-6.59 1.142-8.4-2.13-.84-1.527-.15-4.572 4.3-7.028.2-.112.8-.37.86-.354 0 0 .04.045.08.1.19.35.66 1.552.53 2.056-.02.01-.24.08-.54.24-1.21.67-3.35 2.23-2.64 3.52.98 1.76 6.18-1.64 8.25 2.12 1.33 2.43-.14 5.88-3.8 7.9zm13.292-8.804c.513.88.908 1.128 1.283 1.27.094.235-.814 1.575-1.73 1.944-.077.03-.686-.244-1.228-1.248 0 0-.016-.04-.035-.03-.02.007-.042.062-.042.062s-.702 1.234-2.143 1.815c-1.752.708-3.192.225-3.86-1.43-1.375-3.408 2.94-5.67 3.33-5.828.02-.008.032-.035.032-.035-.228-.565-1.105-.664-2.8.02-.524.212-1.17.52-1.39.652l-.02.008c-.227-.565-.153-1.727-.033-2.047.01-.027.37-.31 1.3-.687 2.96-1.194 4.77-.635 5.72 1.72l.4.994c.39.975.98 2.435 1.2 2.82zm-3.163-1.44c-.095-.234-.173-.428-.192-.42-.7.283-2.72 1.505-2.155 2.907.197.487.716.82 1.592.467.506-.204 1.572-.93 1.054-2.214l-.29-.74zm5.558 4.325c-.248-1.87-1.115-5.29-1.96-8.39-.21-.77-.415-1.52-.628-2.225-.52.164-.88.284-.88.284-.078-.044-.195-.317-.284-.64-.133-.487-.217-1.117-.144-1.246 0 0 .36-.12.78-.256-.42-1.454-.71-2.44-.71-2.44-.15-.396 2.137-2.543 3.515-2.918.16-.044.71.632.85 1.14.02.08.04.14.03.207-.06.02-1.75 1.33-1.66 1.89.04.39.13.9.27 1.48l.08-.02c.89-.24 1.64-.42 1.66-.38.26.95.07 1.94-.13 2-.33.07-.72.16-1.13.27l.27 1.02c.81 2.96 1.85 6.4 2.31 8.08.14.53.22.9.23 1.01 0 0-.62.78-1.89 1.13-.26.07-.6.05-.6.05zm4.108-7.128c-.286-2.715 1.124-5.377 4.508-5.733.982-.104 2.676.14 2.872 2 .187 1.775-1.18 3.84-3.757 5.042.02.125.5.518 1.59.404.9-.095 1.84-.363 2.45-.828 0 0 .02-.023.04-.025.04-.004.09.265.11.39.06.5.02 1.392-.32 1.935 0 0-.66.555-2.68.768-2.92.307-4.53-1.51-4.79-3.953zm4.247-3.805c-1.128.12-2.01 1.563-1.837 3.213.024.23.03.292.114.284.875-.12 2.582-1.56 2.435-2.96-.047-.44-.4-.57-.712-.54zm9.878 9.116c-.05-.156.273-1.046.78-2.27 1.003-2.425 2.712-6.173 3.474-8.017.258-.62.398-1.01.375-1.07-.012-.02-.1-.08-.256-.15-.736-.3-2.81-.84-2.81-.84-.022-.05.15-.53.15-.53.425-1.02 1.198-1.68 1.198-1.68s1.52.61 3.172 1.18c.754.27 3.135 1.16 3.893 1.48.56.24 1.44.62 1.42.68-.27.64-1 2.02-1.27 2.14-.25-.17-1.21-.61-1.96-.92-.49-.2-.88-.34-.94-.32-.08.04-.96 1.93-1.89 4.18-1.14 2.74-2.36 6.03-2.24 7.08l-.01.02c-.04.1-.94.18-2.38-.41-.53-.21-.72-.5-.72-.5zm14.382-.268c-.045-.05-.215-.172-.215-.172-1.854-1.073-3.28.26-3.344.37l-.926 1.6c-.6 1.035-1.262 2.18-1.348 2.203-.678.17-1.81-.39-2.283-.66-.08-.04-.15-.08-.12-.14.45-.53 1.1-1.61 1.79-2.79.84-1.45 1.74-3.09 2.35-4.14.38-.65.64-1.08.73-1.1.4-.1 1.29.07 1.95.45.16.1.36.26.33.32-.11.15-.55.82-.82 1.3-.02.04-.24.42-.21.44.02.01.03.02.09 0 0 0 1.86-.86 3.55.12 0 0 .01.32-.26.78-.7 1.22-1.28 1.47-1.28 1.47zm7.422 7.543c-.102 1.014.072 1.446.29 1.782-.06.244-1.583.795-2.54.556-.082-.02-.412-.6-.26-1.73 0 0 .01-.04-.012-.04-.02 0-.07.03-.07.03s-1.293.59-2.8.21c-1.835-.46-2.716-1.69-2.284-3.42.89-3.56 5.72-2.86 6.12-2.76.02.01.05-.01.05-.01.15-.59-.5-1.18-2.27-1.63-.55-.13-1.25-.27-1.5-.29h-.02c.15-.59.89-1.48 1.18-1.67.03-.01.49-.03 1.47.22 3.1.77 4.23 2.29 3.62 4.75l-.26 1.04c-.25 1.02-.63 2.55-.68 2.99zm-1.713-3.023c.06-.245.11-.448.092-.454-.734-.183-3.086-.38-3.453 1.086-.127.51.098 1.085 1.016 1.313.52.132 1.81.172 2.15-1.172l.19-.773zm10.726-4.31c.044-.165.854-.2 1.333-.13 1.145.16 1.24.386 1.24.386-.117.832-4.313 9.68-4.62 9.912-.31.232-2.044.05-2.044.05-.65-.09-.94-.26-.94-.26.14-.997-1.56-8.045-1.35-9.563.01-.063.77-.506 2.29-.292 0 0 .54 5.336.98 6.862 0 0 0 .107.08.012.65-.864 2.76-5.89 3.02-6.978zm3.07 6.68c.097-2.728 1.864-5.165 5.263-5.043.986.035 2.63.514 2.563 2.38-.064 1.784-1.705 3.637-4.424 4.465-.004.126.42.582 1.512.62.902.033 1.873-.1 2.537-.476 0 0 .03-.02.05-.02.04.002.06.276.05.402-.02.503-.17 1.38-.59 1.87 0 0-.73.457-2.76.384-2.94-.105-4.27-2.127-4.18-4.582zm4.733-3.17c-1.133-.042-2.21 1.265-2.268 2.922-.008.23-.01.294.074.297.88.01 2.77-1.19 2.82-2.59.01-.44-.32-.62-.63-.63zm7.412 3.595c.045.796.082 1.446.143 1.78.154.874.43 1.28.703 1.642.02.25-1.38 1.214-2.26 1.264-.08.01-.55-.51-.75-1.8-.04-.33-.09-1.17-.14-2.2-.12-2.14-.15-4.26-.34-7.59-.12-2.12-.23-2.63-.24-2.87-.01-.29 1.18-.82 1.93-.86.19-.01.53.01.53.06-.02.32.12 3.89.21 5.46s.14 3.15.25 5.14zm3.528 4.53c-.207.03-.94-.75-1.084-1.727l-.03-.146c2.39-.354 3.16-1.552 3.06-2.217-.18-1.205-3.6-1.355-3.86-3.14-.26-1.725 2.09-3.772 4.44-4.12.23-.034 1 .722 1.15 1.612-.31.046-2.82.865-2.66 1.965.15 1.04 3.48 1.16 3.86 3.31.36 2.43-3.28 4.223-4.9 4.464zm6.984-6.943c-1.162-4.34-3.123-8.9-3.123-8.9.164-.283 1.47-.676 1.47-.676 1.015-.27 1.673-.166 1.68-.06.013.128.106 2.102.308 2.853.195.73 1.152 5.51 1.318 6.29 0 0-.367.25-.793.36-.55.14-.86.12-.86.12zm2.008 4.005c-.75.2-1.52-.245-1.723-.995-.2-.75.244-1.522.994-1.723.75-.21 1.52.24 1.723.99.2.75-.25 1.52-1 1.72z"/></svg>