<svg xmlns="http://www.w3.org/2000/svg" width="250" height="250" viewBox="0 0 250 250"><path d="M212.597 185.063s0-.002-.002-.002c-1.49-3.25-12.768-10.33-22.376-15.92l-.02-.01c-.52-.3-1.03-.59-1.53-.88l-.09-.05c-.48-.28-.96-.55-1.42-.81l-.16-.09-1.33-.75-.19-.1c-.42-.23-.83-.46-1.22-.68l-.24-.13-.1-.06c.47-.78.92-1.57 1.36-2.36 1.26.71 2.7 1.13 4.24 1.13 4.78 0 8.66-3.88 8.66-8.66l-.01-.09c5.26-.65 9.34-5.13 9.34-10.57 0-4.09-2.31-7.64-5.7-9.43.01-.19.03-.37.03-.56 0-3.68-2.99-6.66-6.67-6.66-.31 0-.61.03-.91.07 0-.16.01-.32.01-.48 0-23.43-10.97-44.28-28.05-57.73 12.28 1.26 25.09.19 34.44-6.52l-11.5-12.5 4-14.5c-9.7.25-18.12 13.03-27.08 13.8-10.94.94-35.44-7.39-38.35-8.39-.07-.38-.1-.6-.1-.6s-.02.21-.03.56l-.05-.02v-.79c-17.43-16.16-44.33 4.1-48.15 7.13-.2-.97-1.06-1.7-2.09-1.7-1.17 0-2.13.96-2.13 2.14V70.4C62.79 80.237 53.62 94 49.6 109.83c-3.6 1.764-6.08 5.45-6.08 9.73 0 .3.02.6.05.894-2.65 1.94-4.377 5.065-4.377 8.603 0 5.35 3.94 9.763 9.073 10.532 1.04 6.55 2.96 12.8 5.61 18.65.29 12.84 8.39 26.59 28.16 32.13.27.17.54.35.814.51-1.24 1.74-1.98 3.87-1.98 6.17 0 5.89 4.78 10.67 10.67 10.67.12 0 .24-.02.36-.02 1.26 4.98 5.76 8.68 11.14 8.68 2.53 0 4.86-.83 6.76-2.22 1.295.77 2.8 1.21 4.41 1.21 4.79 0 8.67-3.88 8.67-8.66 0-.03-.01-.06-.01-.09 3.645-.46 6.717-2.74 8.26-5.91 13.62-1.91 26.04-7.54 36.197-15.85 6.67 1.48 14 2.81 21.62 3.69 0 0 23.52 2.11 23.82-2.71.02-.21-.06-.45-.18-.71zM79.505 49.37c1.438 1.987 5.396 8.195 4.403 15.024-1.5.874-2.973 1.79-4.403 2.764v-17.79z" opacity=".15"/><path d="M94.93 55.74c-.9-2.575-2.086-6.308-2.666-7.97-.18-.52-.318-.843-.346-.857-.42-.203-1.57-1.362-1.68-1.674-.014-.05 0-.07 0-.07.115-.21 2.044-1.02 3.706-1.6 2.575-.9 6.206-1.45 7.017.88.69 1.97-1.03 3.83-1.38 4.16 0 0-.02.05-.02.07.46.03 3.65-.3 4.53 2.22 1.35 3.86-2.61 6.87-6.55 8.25-.58.2-1.08.31-1.08.31-.12-.08-1.14-2.68-1.51-3.74zm.03-10.122c-.228.08-.387.16-.4.187-.014.028 1.064 3.45 1.085 3.512.028.013.05.006.132-.023.603-.21 2.88-1.563 2.313-3.184-.405-1.164-2.298-.782-3.13-.492zm6.31 6.533c-.593-1.7-2.96-1.41-4.395-.91-.228.08-.49.2-.504.23-.02.01.06.24.19.59.41 1.16 1.38 3.67 1.68 4.19 0 0 .05.01.11-.01 1.77-.61 3.47-2.56 2.94-4.07zm4.365-1.2c-.452-2.64 1.046-5.76 4.646-6.37 0 0 1.05-.13 1.21-.02.03.02.07.15.1.3.05.28.07.66.07.79.22-.01 2.61.34 3.13 3.4.44 2.58-.76 5.35-3.77 5.87-2.91.5-4.9-1.23-5.36-3.94zm4.678-3.05l-.173.03c-.03-.04-.07-.14-.092-.27-.04-.24-.05-.55-.042-.64-1.04.18-2.265 1.37-1.91 3.45.038.22.446 2.6 2.527 2.25 1.02-.17 2.017-1.12 1.687-3.05-.32-1.86-1.542-1.83-1.997-1.76zm6.68-2.1c.04-.83.09-1.38.18-1.46.323-.29 1.24-.55 2.03-.52.197.01.46.07.456.13-.04.18-.11.72-.13 1.14-.02.35 0 .44.04.44.02 0 .07-.04.07-.04s1.12-1.33 2.77-1.25c2.74.13 2.63 3.74 2.45 7.5-.07 1.45-.19 2.57-.19 2.57-.01.11-.97.4-1.91.35-.42-.02-.72-.14-.72-.14.16-.98.33-2.29.4-3.74.1-2.13.1-3.8-1.11-3.86-1.43-.07-1.9 1.47-1.9 1.47 0-.02-.05 1.41-.12 2.8-.06 1.21-.14 2.37-.21 2.44-.46.42-1.7.51-2.29.48-.18 0-.33-.01-.33-.08.14-.7.25-1.9.31-3.24.08-1.73.11-3.65.17-4.94zm19.642 3.25c.078-.12.748.06 1.123.24.893.43.912.64.912.64-.31.65-6.023 6.8-6.336 6.91-.313.11-1.684-.48-1.684-.48-.502-.24-.7-.45-.7-.45.374-.78.806-6.97 1.372-8.16.023-.05.762-.21 1.945.35 0 0-.936 4.5-.967 5.86 0 0-.023.09.064.03.757-.53 3.777-4.1 4.27-4.92zm6.08 10.44c-.145.86-.02 1.24.146 1.54-.06.21-1.4.59-2.2.33-.07-.02-.32-.54-.12-1.49 0 0 .01-.03 0-.04-.02-.01-.06.02-.06.02s-1.14.43-2.41.02c-1.54-.49-2.22-1.6-1.75-3.06.97-2.99 5.05-2.11 5.4-2 .02.01.04 0 .04 0 .16-.5-.36-1.04-1.85-1.52-.46-.15-1.05-.3-1.27-.33h-.01c.16-.49.85-1.22 1.11-1.36.02-.01.41 0 1.24.27 2.61.84 3.49 2.2 2.82 4.28l-.28.87c-.28.86-.69 2.14-.75 2.52zm-1.29-2.68c.065-.2.122-.37.104-.38-.62-.2-2.62-.5-3.02.73-.14.43.02.94.79 1.19.44.15 1.54.25 1.91-.88l.21-.65zm3.452 1.45c.717-2.99 3.455-4.15 6.098-3.51.316.08.402.1.47.13.058.07.032.33-.038.62-.113.48-.344 1.05-.486 1.11l-.12-.03c-.66-.16-3.08-.64-3.72 2.03-.23 1 .07 1.98 1.55 2.34.93.22 1.57.01 1.63.02.08.13.04.47-.05.84-.11.48-.31.98-.45 1.06 0 0-.66.2-1.79-.08-2.83-.68-3.51-2.65-3.06-4.51zm13.576 4.47c-.008.88.174 1.23.387 1.5-.033.22-1.29.8-2.127.67-.07-.01-.398-.48-.357-1.45 0 0 .006-.03-.012-.04-.018 0-.06.03-.06.03s-1.058.61-2.374.4c-1.602-.25-2.45-1.23-2.215-2.75.482-3.11 4.656-2.88 5.012-2.83.018.01.04-.01.04-.01.08-.51-.524-.97-2.073-1.21-.48-.07-1.09-.13-1.31-.13h-.017c.08-.51.645-1.34.873-1.52.02-.01.41-.06 1.266.07 2.703.42 3.79 1.63 3.457 3.78l-.14.91c-.14.89-.346 2.22-.35 2.61zm-1.697-2.45c.033-.21.06-.39.043-.39-.65-.1-2.67-.09-2.87 1.19-.07.45.16.92.96 1.05.46.08 1.56.01 1.75-1.16l.1-.67zm4.64-2.17c.02-.68.054-1.13.13-1.2.26-.24 1.006-.47 1.652-.45.162.01.377.05.375.1-.02.15-.074.59-.086.94-.01.29.006.36.043.36.018 0 .055-.03.055-.03s.902-1.1 2.252-1.06c2.248.08 2.2 3.03 2.098 6.11-.04 1.19-.125 2.11-.125 2.11-.004.09-.785.33-1.56.31-.343-.01-.59-.11-.59-.11.116-.8.243-1.88.284-3.07.06-1.74.033-3.11-.957-3.15-1.17-.04-1.535 1.23-1.535 1.23 0-.02-.02 1.15-.06 2.29-.034.99-.085 1.94-.14 2-.373.35-1.385.44-1.87.43-.144-.01-.27-.01-.27-.06.11-.57.18-1.56.218-2.66.05-1.42.047-2.99.085-4.05zm8.884 3.06c-.333-2.32.79-4.64 3.677-5.05.838-.12 2.297.04 2.523 1.62.217 1.52-.89 3.33-3.057 4.44.016.11.443.43 1.37.3.765-.11 1.565-.37 2.07-.78 0 0 .015-.02.032-.02.035 0 .086.23.102.33.06.43.06 1.19-.217 1.67 0 0-.547.5-2.275.75-2.495.36-3.93-1.15-4.226-3.23zm3.515-3.39c-.963.14-1.674 1.4-1.473 2.81.03.2.037.25.107.24.74-.12 2.16-1.42 1.99-2.61-.06-.37-.36-.47-.63-.44zm7.985 5.57c-.165.07-.944-.41-1.28-1.19l-.05-.11c1.897-.83 2.274-1.99 2.046-2.52-.416-.96-3.28-.32-3.898-1.74-.594-1.37.896-3.59 2.762-4.4.182-.08.986.37 1.313 1.08-.248.1-2.145 1.34-1.766 2.22.36.83 3.143.19 3.938 1.88.84 1.93-1.777 4.23-3.064 4.79z" opacity=".15"/><circle fill="#3FD8D8" cx="118.848" cy="126.57" r="73.478"/><path fill="#FFF" d="M88.55 126.653c0-4.095-2.31-7.646-5.694-9.434.016-.19.028-.38.028-.57 0-3.69-2.985-6.67-6.667-6.67-.495 0-.976.06-1.44.16-1.72-3.45-5.275-5.83-9.394-5.83-3.38 0-6.378 1.6-8.3 4.08-1.422-.69-3.013-1.09-4.7-1.09-5.983 0-10.833 4.85-10.833 10.83 0 .3.02.6.045.89-2.65 1.94-4.378 5.06-4.378 8.6 0 5.89 4.775 10.66 10.667 10.66.122 0 .24-.02.36-.02 1.258 4.99 5.762 8.68 11.14 8.68 2.53 0 4.863-.83 6.763-2.22 1.292.76 2.794 1.21 4.404 1.21 4.79 0 8.67-3.88 8.67-8.67v-.1c5.26-.66 9.34-5.14 9.34-10.58zm117.002 17c0-4.095-2.31-7.646-5.695-9.434.016-.19.03-.38.03-.57 0-3.69-2.986-6.67-6.668-6.67-.5 0-.98.06-1.44.16-1.73-3.45-5.28-5.83-9.4-5.83-3.38 0-6.38 1.6-8.3 4.08-1.43-.69-3.02-1.09-4.7-1.09-5.99 0-10.84 4.85-10.84 10.83 0 .3.02.6.04.89-2.65 1.94-4.38 5.06-4.38 8.6 0 5.89 4.77 10.66 10.66 10.66.12 0 .24-.02.36-.02 1.26 4.99 5.76 8.68 11.14 8.68 2.53 0 4.86-.83 6.76-2.22 1.29.76 2.79 1.21 4.4 1.21 4.78 0 8.66-3.88 8.66-8.67 0-.04-.01-.07-.01-.1 5.27-.66 9.34-5.14 9.34-10.58z"/><path fill="#DDD9DA" d="M180.933 164.844s-37.086 28.945-85.33 26.533c-51.233-2.562-51.133-47.303-31.658-58.795 18.393-10.854 34.674-7.538 34.674-7.538s7.23-10.947 15.07-11.156c22.61-.603 40.02 18.77 61.43 32.036"/><path fill="#00AEFF" d="M150.026 136.5c11.308-4.672-30.453-22.46-40.553-21.255 0 0-.288.03-.753.108-5.673 3.02-10.1 9.69-10.1 9.69s40.1 16.132 51.406 11.458z"/><path fill="#DDD9DA" d="M133.595 174.19s24.725 9.648 53.367 12.965c0 0 23.52 2.11 23.82-2.713.3-4.824-36.483-24.423-36.483-24.423m-9.05-19.3s9.95-10.96 17.79-7.34l-2.52 29.9"/><circle fill="#0F4481" cx="68.618" cy="152.934" r="14.322"/><path fill="#FFF" d="M116.536 118.49l.076.124c.026.048.19.29.12.223-.024-.035-.01.023-.05-.075-.02-.06-.083-.395.08-.783.174-.39.4-.51.355-.5-.025 0-.242.06-.528.1-.59.08-1.49.07-2.48-.06-2.01-.25-4.48-.91-6.99-1.94-2.52-1.02-5.11-2.4-7.48-4.06-2.38-1.65-4.55-3.55-6.31-5.53-1.78-1.98-3.17-4.02-4.17-5.84-1.02-1.83-1.65-3.44-2.05-4.58-.2-.57-.35-1.03-.43-1.34l-.15-.48-7.93 2.55s.08.2.22.59.35.95.66 1.66c.6 1.41 1.54 3.41 2.96 5.62 1.4 2.21 3.29 4.63 5.61 6.89 2.31 2.27 5.03 4.37 7.94 6.11 2.9 1.75 5.99 3.15 9 4.16 3.01 1 5.94 1.61 8.62 1.77 1.35.07 2.63.04 3.93-.22.65-.14 1.3-.32 2.02-.7.68-.37 1.51-1.03 1.96-2.05.45-1.02.36-2.01.21-2.58-.16-.62-.35-.98-.55-1.33-.23-.41-.25-.38-.32-.5l-.08-.12-4.28 2.83z"/><path fill="#D0D1D2" d="M97.66 118.14c2.41 1.315 4.904 2.407 7.35 3.22 3.012 1.006 5.94 1.618 8.624 1.778 1.35.072 2.63.048 3.932-.217.65-.13 1.307-.31 2.02-.69.685-.36 1.514-1.02 1.966-2.04.458-1.01.362-2 .21-2.57-.154-.62-.344-.97-.544-1.33-.23-.4-.247-.38-.32-.49l-.082-.11-4.152 2.75c.008-.12.032-.27.1-.43.173-.38.398-.5.354-.49-.025.01-.242.07-.528.1-.585.08-1.482.07-2.477-.05-2.01-.25-4.476-.91-6.988-1.93-2.52-1.02-5.104-2.4-7.477-4.05-.356-.24-.695-.51-1.042-.76.218 2.41.043 5-.945 7.37zm19.022.622l-.01-.05c.05.08.105.17.06.125-.024-.035-.01.023-.05-.075zM87.93 96.552s1.452 5.075-5.745 6.968c0 0-2.15-2.887-2.7-4.954" opacity=".3"/><path fill="#6D6F71" d="M118.156 125.102l-.542-.208-.753 6.482.25.227c6.41 2.023 13.52 3.985 19.72 5.01.44-3.21.7-7.348.7-7.348l-19.36-4.163z"/><path fill="#D0D1D2" d="M110.53 71.49s-9.914-9.11-8.09 5.987l2.497-.99 5.592-4.997z"/><ellipse transform="rotate(115.83 130.91 98.75)" fill="#FFF" cx="130.914" cy="98.746" rx="29.282" ry="36.547"/><ellipse transform="rotate(115.83 127.08 96.48)" fill="#D0D1D2" cx="127.085" cy="96.482" rx="23.33" ry="30.583"/><ellipse transform="rotate(115.82 113.18 87.46)" fill="#FFF" cx="113.176" cy="87.461" rx="12.351" ry="12.531"/><ellipse transform="rotate(115.83 139.28 100.4)" fill="#FFF" cx="139.281" cy="100.399" rx="15.365" ry="15.468"/><path fill="#919396" d="M162.62 96.257c-.002-.013 1.147 7.854.232 9.803l1.688-1.086s11.9-6.718-1.92-8.717z"/><path fill="#D0D1D2" d="M160.515 93.067s8.664-1.153 11.697 3.718c0 0 3.344 7.504-8.233 11.507l-2.91 1.182s-.94-1.782.48-3.973c0 0 13.99-5.82-.25-8.56 0 0-1.97-1.13-.79-3.86z"/><circle fill="#0071BC" cx="137.88" cy="99.976" r="10.821"/><path fill="#0F4481" d="M143.765 94.766c-2.462-1.833-5.944-1.324-7.777 1.138-1.835 2.463-1.325 5.944 1.136 7.776 2.463 1.837 5.946 1.326 7.78-1.135 1.832-2.462 1.324-5.944-1.14-7.78z"/><circle fill="#FFF" cx="139.428" cy="98.464" r="2.954"/><circle fill="#FFF" cx="145.28" cy="101.872" r="1.439"/><circle fill="#0071BC" cx="113.824" cy="87.969" r="8.739"/><circle fill="#0F4481" cx="115.896" cy="87.36" r="4.489"/><circle fill="#FFF" cx="115.075" cy="86.748" r="2.386"/><circle fill="#FFF" cx="119.802" cy="89.5" r="1.161"/><path fill="#6D6F71" d="M114.89 100.352c-.022-.048-.292.016-.73.23-.433.215-1.056.574-1.65 1.255-.405.492-.738 1.207-.67 2 .09.784.55 1.495 1.1 2.037.552.564 1.266 1.056 2.128 1.27.212.067.437.096.672.09.23.024.465-.01.7-.08.116-.034.242-.044.347-.104l.16-.09.01-.01c.01-.01.01-.008.01-.008s.002 0 0 0l-.01.677.156.66c.295.88 1.01 1.51 1.752 1.83.747.34 1.536.42 2.255.34.725-.05 1.39-.29 1.943-.62.775-.45 1.137-1.13 1.337-1.56.124-.48.158-.74.102-.76-.058-.01-.2.21-.395.61-.27.34-.635.87-1.333 1.2-.487.26-1.07.44-1.704.47-.626.05-1.308-.05-1.914-.34-.606-.28-1.127-.77-1.342-1.43l-.115-.51.01-.55c.04-.43.18-.85.27-1.28l.15-.65.07-.32.03-.14v-.04l-.03.04-.07.07-.17.19c-.36.4-.7.81-1.11 1.15l-.28.26-.11.07c-.07.05-.16.04-.24.07-.16.05-.33.08-.5.06-.17.01-.34-.01-.51-.07-.69-.17-1.31-.56-1.8-1.05-.51-.48-.86-1.04-.95-1.61-.07-.57.14-1.12.48-1.57.96-1.24 2.01-1.71 1.91-1.85z"/><path fill="#0B8ECC" d="M119.805 100.992s2.913-2.245 2.307 3.95l-4.678 1.204-1.6-3.987s4.237-3.94 3.97-1.17z"/><path fill="#FFF" d="M121.47 104.57l-2.007.51s1.182-1.6 2.006-.51zm-4.51-.7l-.6-1.297s.913 0 .6 1.296z"/><path fill="#A0A2A3" d="M152.196 180.818c.563-.24.94-.39.94-.39L136.61 176s-2.363 6.487-11.42 13.126c10.085-2 19.197-5.044 27.006-8.308z"/><path fill="#FFF" d="M118.066 122.33s-1.508 6.935 3.316 10.402c4.825 3.468 16.132-3.468 16.132-3.468l-1.207-2.26-18.24-4.674z"/><path fill="#D0D1D2" d="M130.317 132.63l-3.658-5.626-6.49-1.81s-.39 3.006-.33 6.08c.42.527.93 1.02 1.54 1.458 2.19 1.58 5.73.997 8.93-.1z"/><path fill="#A0A2A3" d="M135.604 166.45s42.213 23.722 74.977 17.29l.02-.01c-2.63-5.772-36.3-23.71-36.3-23.71s-.23-1.56-13.26 1.96c-6.23 1.682-25.43 4.47-25.43 4.47zm30.532-26.63c.504.498 1.187 1.22 1.43 1.707.387.773 6.94-9.84 15.47-8.04l.008-.102c-6.445-2.973-14.31 3.895-16.908 6.435z"/><path fill="#F2D86B" d="M77.506 101.665c0 1.178-.955 2.133-2.133 2.133s-2.133-.955-2.133-2.133V47.427c0-1.18.956-2.133 2.133-2.133 1.178 0 2.133.954 2.133 2.133v54.238z"/><path fill="#FFF" d="M76.135 78.538s-6.704-3.2-11.122.686c-2.87 2.523-3.123 7.084-.99 8.912 0 0-5.104 2.362-4.037 8.304 1.066 5.94 5.133 12.84 16.606 7.923 10.13-4.343 12.493-9.903 12.493-9.903s5.104-21.482-5.256-21.482-7.39 3.884-7.7 5.56z"/><path fill="#D0D1D2" d="M76.288 79.225s-.99 12.036 9.293 12.95c0 0-14.06 2.285-9.29-12.95z"/><path fill="#D0D1D2" d="M64.023 88.136s8.81-3.122 11.96.84c0 0-2.794-1.78-11.96-.84zM63.39 99.64s14.828 4.977 15.437-6.297c0 0 2.336 10.767-10.056 9.243 0 0-5.48.202-5.38-2.946z"/><path fill="#F2D86B" d="M73.24 102.544v4.866c0 1.18.956 2.133 2.133 2.133s2.133-.954 2.133-2.133v-7.22c-.864 1.094-2.208 1.984-4.266 2.354z"/><ellipse fill="#D6B303" cx="75.323" cy="108.097" rx="2.083" ry="1.549"/><path fill="#0099B2" d="M77.506 71.702s32.942-24.55 48.162-13.218l-.053-15.797V30C104.833 18.667 77 47.368 77 47.368s11.07 13.364.506 24.334z"/><path fill="#0099B2" d="M125.46 58.526s48.59 21.46 73.258 3.792l-11.5-12.5 4-14.5c-9.704.25-18.593 6.246-27.552 7.015C152.03 43.333 125.5 31.5 125.5 31.5s-.954 23.596.063 26.93"/><path fill="#048B99" d="M125.688 40.118s-.9 15.447.115 18.782c0 0 9.22 3.172 9.197 3.155-6.75-5.312-9.312-21.937-9.312-21.937z"/><path fill="#FFF" d="M130.22 194.652c0-4.095-2.31-7.646-5.696-9.434.016-.188.028-.375.028-.566 0-3.683-2.985-6.667-6.667-6.667-.495 0-.976.058-1.44.16-1.72-3.45-5.275-5.827-9.394-5.827-3.38 0-6.37 1.604-8.29 4.084-1.42-.688-3.01-1.084-4.7-1.084-5.98 0-10.83 4.85-10.83 10.834 0 .303.02.6.05.897-2.65 1.94-4.38 5.06-4.38 8.6 0 5.89 4.78 10.66 10.67 10.66.13 0 .24-.02.36-.02 1.26 4.99 5.77 8.68 11.14 8.68 2.53 0 4.87-.83 6.77-2.22 1.29.76 2.8 1.21 4.41 1.21 4.79 0 8.67-3.88 8.67-8.67 0-.03-.01-.06-.01-.1 5.26-.66 9.34-5.14 9.34-10.58z"/><g fill="#FFF"><path d="M87.5 56.328c-1.418-2.33-3.358-5.734-4.273-7.238-.286-.47-.487-.76-.518-.767-.46-.11-1.82-1.004-2-1.287-.02-.038-.02-.068-.02-.068.07-.223 1.79-1.42 3.29-2.335 2.33-1.417 5.77-2.71 7.04-.604 1.09 1.78-.21 3.96-.49 4.36 0 0-.02.06-.01.08.45-.07 3.51-1.05 4.89 1.22 2.13 3.49-1.12 7.27-4.69 9.44-.53.32-1 .52-1 .52-.13-.05-1.68-2.38-2.26-3.34zm-2.085-9.908c-.207.125-.346.236-.353.266s1.762 3.15 1.796 3.208c.03.007.05-.004.124-.05.545-.332 2.49-2.13 1.598-3.598-.64-1.052-2.413-.283-3.165.174zm7.538 5.073c-.937-1.542-3.193-.762-4.49.026-.207.12-.44.29-.447.32-.02.01.107.22.3.54.64 1.05 2.11 3.3 2.513 3.75 0 0 .04-.01.1-.04 1.6-.97 2.85-3.23 2.02-4.6zm10.324-1.41c-.017-.04-.037-.03-.037-.03-.25 1.262-1.07 2.35-2.03 2.736-1.837.73-3.038-.89-3.788-2.35-.127-.26-.353-.76-.59-1.35-.633-1.57-1.43-3.79-1.418-4.06 0 0 .358-.65 1.542-1.12 0 0 .47-.19.613-.13.05.14.59 1.82 1.19 3.31.18.45.37.87.54 1.23 0 0 .64 1.66 1.81 1.19 1.06-.43 1.12-2.04 1.03-2.22l-.28-.7c-.59-1.45-1.5-3.91-1.5-4.07.04-.26.66-.96 1.58-1.33.12-.05.45-.16.54-.13.06.14 1.22 3.51 2.12 5.76.32.79.61 1.46.8 1.76.46.81.81 1.14 1.2 1.41.1.24-.97 1.67-1.83 2.01-.08.03-.73-.33-1.34-1.55l-.2-.42zm3.01-4.16c-.512-2.816.752-5.708 4.26-6.345 1.017-.185 2.806-.063 3.156 1.864.335 1.84-.93 4.106-3.53 5.563.025.13.562.502 1.688.297.94-.17 1.9-.523 2.5-1.057 0 0 .02-.026.04-.03.04-.008.12.27.14.4.1.52.13 1.452-.19 2.046 0 0-.64.64-2.74 1.02-3.03.55-4.85-1.22-5.31-3.75zm4.137-4.31c-1.17.212-1.978 1.792-1.667 3.502.043.238.055.303.142.287.9-.187 2.57-1.833 2.31-3.283-.09-.46-.46-.57-.79-.51zm5.976-.68c.056-.833.114-1.38.208-1.463.328-.287 1.25-.535 2.04-.483.197.013.457.074.453.14-.03.174-.11.72-.14 1.138-.02.35 0 .44.04.443.02 0 .07-.04.07-.04s1.15-1.313 2.79-1.205c2.75.18 2.58 3.787 2.33 7.542-.09 1.45-.23 2.564-.23 2.564 0 .11-.97.37-1.91.31-.41-.03-.71-.16-.71-.16.18-.98.37-2.29.47-3.74.14-2.13.17-3.81-1.04-3.89-1.43-.1-1.92 1.44-1.92 1.44 0-.03-.07 1.4-.16 2.79-.08 1.2-.18 2.37-.25 2.43-.47.41-1.71.48-2.3.44-.18-.01-.33-.02-.32-.09.16-.7.28-1.9.37-3.24.12-1.73.18-3.65.26-4.95zm15.487 12.504c-.5-1.073.24-12.544 1.48-15.46.024-.06 1.204-.133 2.337.35 0 0 .426.18.4.24-.324.986-1.77 9.455-1.596 12.47 0 0 .02.295.11.36.08.033.255-.037.32-.13.618-.5 5.23-5.114 6.59-8.313.14-.324-.464-1.154-.913-1.393-.002-.04.016-.09.04-.15.147-.34.622-.95.757-.99 0 0 2.078.29 3.94 1.08 0 0 .288.17.27.21-1.626 3.83-9.556 12.36-10.306 12.67-1 .1-2.475-.47-3.203-.78-.123-.05-.215-.11-.226-.14zm14.865-5.122c-.03.105-.838 2.527-1.428 4.463-.295.968-.53 1.816-.598 2.187-.164.916-.08 1.4.057 1.856-.078.26-1.8.7-2.682.43-.08-.02-.34-.7-.06-2.04.07-.28.26-.98.52-1.84.66-2.16 1.7-5.34 1.84-5.49 0 0 .6-.23 1.82.14 0 0 .49.15.56.31zm-.9-1.723c-.78-.237-1.13-.896-.848-1.822.22-.716 1.166-1.186 1.924-.955.758.23 1.145.923.875 1.807-.23.758-1.194 1.2-1.95.97zm9.054 11.07c-.09 1.064.098 1.515.332 1.864-.06.257-1.646.857-2.654.62-.086-.02-.44-.623-.3-1.81 0 0 .01-.043-.01-.048s-.075.028-.075.028-1.35.634-2.94.262c-1.93-.452-2.87-1.735-2.45-3.556.88-3.75 5.94-3.083 6.37-2.982.02.005.05-.01.05-.01.14-.623-.55-1.236-2.41-1.673-.58-.136-1.32-.263-1.59-.28l-.02-.006c.14-.62.91-1.57 1.2-1.77.02-.01.51-.04 1.53.2 3.25.77 4.47 2.34 3.86 4.93l-.26 1.09c-.25 1.07-.63 2.68-.67 3.15zm-1.84-3.142c.06-.257.11-.47.09-.477-.77-.18-3.24-.352-3.602 1.19-.125.536.12 1.135 1.082 1.36.557.13 1.908.154 2.24-1.26l.19-.813z"/><path d="M157.594 52.973c-.016-.047-.023-.137-.008-.246.06-.392.254-1.074.506-1.258 1.17-.38 3.057-.2 3.71-.1.194.03.392.06.427.11 0 0-.52 2.92-.93 5.62-.18 1.15-.34 2.48-.43 3.07-.92 5.98-5.22 6.25-6.89 6-.13-.02-.62-1.32-.46-2.39l.21.03c.59.09 1.34-.02 1.92-.18 1.15-.38 2.29-1.45 2.75-4.45 0 0 .26-1.43.47-2.82.18-1.22.34-2.4.21-2.57-.28-.38-1.52-.84-1.52-.84zm3.127-2.97c-.78-.12-1.24-.725-1.1-1.682.12-.73.99-1.34 1.77-1.21.79.12 1.27.75 1.13 1.67-.12.79-1.01 1.36-1.79 1.24zm3.02 6.563c.15-2.856 2.05-5.38 5.6-5.194 1.04.054 2.75.584 2.65 2.54-.1 1.868-1.85 3.78-4.71 4.602 0 .132.43.617 1.58.677.94.05 1.97-.07 2.67-.45 0 0 .02-.02.04-.02.05 0 .05.29.05.42-.03.53-.21 1.45-.65 1.95 0 0-.77.47-2.9.36-3.08-.16-4.44-2.3-4.31-4.87zm5.02-3.24c-1.18-.063-2.33 1.288-2.42 3.023-.01.24-.02.3.07.31.93.02 2.93-1.19 3.01-2.67.03-.46-.31-.66-.64-.67zm5.63 3.094c-.33-4.695-1.43-9.777-1.43-9.777.23-.258 1.65-.402 1.65-.402 1.1-.07 1.76.17 1.74.28-.01.14-.31 2.19-.25 3 .06.79.09 5.91.1 6.74 0 0-.43.19-.89.22-.59.04-.91-.04-.91-.04zm1.27 4.52c-.81.057-1.51-.555-1.57-1.367-.05-.812.56-1.517 1.37-1.574.81-.06 1.52.55 1.58 1.36.06.81-.55 1.51-1.36 1.57z"/></g></svg>