<svg xmlns="http://www.w3.org/2000/svg" width="250" height="250" viewBox="0 0 250 250"><path opacity=".15" d="M212.98 142.394s-1.467-1.9-4.36-3.98l-.063-3.754c.108-.06 6.854-3.664 3.452-10.08 0 0-1.24-1.605-3.69-3.476l-.6-35.163-8.94-.11 3.59-37.78-147.85-2.56v9.41h-9.56l9.56 19.49 7.59 1.05 7.08 27.93-.12.01-10.56 18.42-.42-.03c-1.61-.17-3.24 0-4.74.8 0 0-5.29 3.82-1.73 11.25l-19.2 33.48L52 175.22l8.2 3.426-.014.33L75.65 185.1l23.15 9.16 3.11 1.23 39.394 15.603 17.797-6.716 18.49 3.47 5.07-12.353-31.92-.835 2.2-3.84.01.28 53.94-2.02 2.51-5.57-.55-32.5c.08.35.13.73.13 1.13 0 0 7.47-5.82 4.03-9.75z"/><path fill="#FFF" d="M209.215 137.374s-1.467-1.902-4.36-3.98l-.064-3.754c.11-.06 6.86-3.665 3.46-10.08 0 0-1.24-1.605-3.68-3.477l-.59-35.162-8.93-.12 3.6-37.78-147.86-2.55v9.41h-9.56l9.56 19.49 7.59 1.04 7.09 27.93-.11.01-10.56 18.42-.42-.03c-1.6-.17-3.24 0-4.73.8 0 0-5.29 3.82-1.73 11.25l-19.24 33.5 19.58 7.92 8.2 3.43-.01.33 15.47 6.13 23.15 9.17 3.11 1.23 39.39 15.6 17.8-6.72 18.48 3.47 5.07-12.35-31.92-.84 2.2-3.84.01.28 53.94-2.02 2.51-5.56-.55-32.5c.08.36.13.73.13 1.14 0 0 7.47-5.82 4.02-9.75z"/><path fill="#40BFF2" d="M178.89 190.467l-5.067 12.353-53.53-10.04M50.773 69.354l-9.56-19.488H60.07"/><path fill="#1B75BB" d="M137.543 206.068l41.348-15.6-46.85-1.232"/><path fill="#17BFF2" d="M110.005 195.162l-81.34-32.892L65.34 98.334"/><path fill="#1B75BB" d="M50.773 40.462v28.892l12.892 1.773"/><path fill="#35CCEF" d="M193.52 96.656l-127.188 5.136-15.56-61.33 147.855 2.557"/><path fill="#FFF" d="M105.97 177.857c2.89-13-6.215-26.083-20.336-29.22-11.898-2.646-23.533 2.63-28.638 12.128l-.565 13.178 15.47 6.127c1.87-3.45 4.2-7.036 6.96-9.886 0 0 6.07 3.3 14.2 3.838 0 0 2.49 7.09 1.99 15.212l3.11 1.23c3.86-3.19 6.69-7.505 7.82-12.61z"/><path fill="#17BFF2" d="M204.118 89.915L65.34 98.335l-8.344 62.43c5.105-9.497 16.74-14.773 28.638-12.13 14.12 3.14 23.225 16.223 20.335 29.222-1.14 5.104-3.97 9.42-7.82 12.61l39.39 15.6 66.57-116.152z"/><path fill="#FFF" d="M106.328 173.304s29.683-9.083 48.386-33.586l11.28 23.905s-4.778 8.25-61.507 15.708"/><path fill="#E6E7E8" d="M117.112 168.947s-6.62 4.227-11.48 10.233c0 0-1.396-3.654-6.663-5.27l18.14-4.963z"/><path fill="#D0D1D2" d="M123.16 124.463s14.332-5.502 6.068 9.742l-2.234-2.098-3.833-7.644z"/><path fill="#919396" d="M126.156 129.396s7.194-4.785 2.545 3.36c-4.64 8.15-2.54-3.36-2.54-3.36z"/><path fill="#FFF" d="M48.037 139.978c-1.396 18.38 16.07 34.7 39.014 36.445 22.95 1.747 42.69-11.745 44.08-30.127 1.4-18.385-16.06-34.705-39.01-36.453-22.95-1.743-42.68 11.747-44.08 30.135z"/><path fill="#D0D1D2" d="M60.762 141.743c-1.115 14.652 13.547 27.708 32.75 29.17 19.202 1.46 35.67-9.23 36.786-23.88 1.113-14.646-13.55-27.704-32.753-29.163-19.2-1.462-35.67 9.23-36.783 23.873zm2.518-21.193s-7.88-6.103-13.66-3.038c0 0-7.598 5.477 1.518 16.058l2.19 2.832s1.945-1.218 1.798-4.194c0 0-10.453-13.764 5.157-8.3 0 0 2.583.013 2.996-3.36z"/><path fill="#FFF" d="M100.147 142.675c-.587 7.756 5.312 14.523 13.178 15.123 7.865.6 14.723-5.204 15.312-12.957.59-7.75-5.31-14.52-13.18-15.12-7.863-.6-14.718 5.2-15.31 12.96z"/><ellipse transform="rotate(-175.56 81.27 141.56)" fill="#FFF" cx="81.246" cy="141.555" rx="17.633" ry="17.518"/><path fill="#919396" d="M59.76 122.518c.01-.01-5.63 7.085-5.847 9.527l-1.04-2.035s-7.878-13.44 6.886-7.492z"/><path fill="#D0D1D2" d="M63.665 120.58s-7.882-6.103-13.66-3.037c0 0-7.595 5.477 1.52 16.058l2.193 2.84s1.945-1.22 1.796-4.19c0 0-10.452-13.76 5.157-8.3 0 0 2.58.01 3-3.36z"/><path fill="#6D6F71" d="M99.57 158.92s1.39 3.668 7.444-1.34l-.142.704-.35.547s-6.224 3.87-7.538-.19"/><path fill="#D0D1D2" d="M78.854 170.187c-2.76 2.85-5.093 6.434-6.958 9.883l23.148 9.167c.5-8.122-1.99-15.212-1.99-15.212-8.13-.54-14.2-3.838-14.2-3.838z"/><path fill="#0B8ECC" d="M100.107 153.3s-1.585-3.88-4.54 2.578l3.92 3.86 3.857-3.01c.002 0-1.916-6.307-3.237-3.427z"/><path fill="#FFF" d="M96.41 155.877l1.69 1.65s-.252-2.256-1.69-1.65z"/><circle fill="#FFF" cx="152.281" cy="133.134" r="7.452"/><path fill="#FFF" d="M101.258 157.768l1.335-.933s-.898-.525-1.335.933z"/><path fill="#6D6F71" d="M95.297 161.043s9.228 1.33 11.717-3.462c0 0 4.385 2.86-.912 4.52 0 0 3.484 1.53 2.242 4.03 0 0-3.103.84-4.782-.96 0 0-3.416-2.89-9.83-4.03l2.452-1.03-.887.96z"/><path fill="#BE202E" d="M96.314 161.354s6.586 1.147 11.073-2.58c0 0 3.09 1.602-2.943 3.476 0 0 3.394.693 3.472 2.884 0 0-.63 1.53-3.272-.177 0 0-3.132-2.34-8.33-3.603z"/><path fill="#BBBDBF" d="M100.723 165.236s8.73 5.468 9.16.834c0 0 1.88 6.577-9.16-.834zM93.845 159l-2.186 1.707 1.91 1.213-2.95-1.26m13.73-3.39s1.69.72 2.84-.597c0 0 1.85 1.01 1.93 2.454 0 0 .36-3.082-3.09-2.687 0 0 1.13.95-1.69.83z"/><path fill="#C9C9C9" d="M151.53 80.222l52.436.7 1.65 97.57-7.133 2.035-47.528 2.352-.668-96.51"/><path fill="#A0A0A0" d="M147.406 83.247l1.762 102.824 53.938-2.01 2.51-5.56-52.25 1.97-1.836-100.24"/><path fill="#FF0" d="M143.754 100.243l-23.766-6.933s26.162 9.55 1.98 16.38c0 0 25.465-8.278 17.258 19.68l6.005-13.914-.36-20.738-1.11 5.525z"/><path fill="#999" d="M187.247 99.005c.103-1.652-.305-3.344-1.27-4.816.5-.52.744-1.04.73-1.54-.02-.59-.4-.93-.418-.95l-.01-.01-.01-.01c-.21-.14-.46-.21-.74-.21-.37-.01-.73.1-1 .22-1.17-1.13-2.86-1.78-4.65-1.8-1.83-.02-3.55.62-4.75 1.76-.18-.07-.43-.15-.68-.15-.34-.01-.5.14-.58.26-.19.28-.14.75.14 1.43-.25.55-.38 1.13-.39 1.73-.03 2.81 2.73 5.13 6.14 5.16.37 0 .74-.02 1.1-.07l.11.2c-.79.45-1.27 1.27-1.28 2.19-.02 1.32.98 2.42 2.27 2.56-.52.2-1.07.35-1.64.43-.35.05-.7.07-1.05.07-.35 0-.7-.04-1.05-.09h.02l-.01-.01-.02-.01-.04-.01-.08-.02-.15-.03c-.05-.01-.11-.02-.15-.03l-.11-.03-.24-.06-.25-.07c-.32-.1-.64-.22-.95-.37-.6-.29-1.15-.66-1.62-1.08-.23-.21-.45-.43-.64-.67-.2-.23-.37-.47-.52-.71-.31-.48-.54-.96-.69-1.43-.16-.46-.26-.89-.31-1.28-.06-.38-.06-.72-.06-1v-.19l.01-.17c.01-.11.02-.2.03-.27l.03-.23c0-.02.01-.04.01-.07.03-.55-.38-1.03-.94-1.06-.56-.04-1.03.38-1.07.93v.02l-.02.3c-.01.1-.01.22-.02.36v.23l.01.25c.02.36.06.8.16 1.29s.26 1.04.5 1.61c.24.57.57 1.15.99 1.72.21.28.44.57.7.83.25.27.54.52.84.76.61.48 1.3.89 2.05 1.19.37.15.77.27 1.17.37.4.1.81.16 1.22.2.41.03.82.04 1.23.02.41-.02.81-.07 1.21-.15.79-.17 1.55-.44 2.23-.81.34-.18.66-.38.96-.6.3-.21.58-.45.84-.69.52-.48.95-1 1.28-1.52.34-.51.59-1.03.78-1.49.19-.47.31-.89.39-1.24l.06-.25c.01-.08.02-.15.04-.22.02-.14.04-.26.05-.35l.03-.29c.01-.05 0-.09-.01-.13"/><circle fill="#0071BC" cx="84.264" cy="138.741" r="12.516"/><path fill="#0F4481" d="M87.355 141.58c-3.54-.302-6.16-3.415-5.86-6.95.304-3.536 3.414-6.16 6.953-5.856 3.537.3 6.16 3.415 5.857 6.952-.3 3.536-3.414 6.158-6.95 5.854z"/><path fill="#FFF" d="M88.662 137.557c-1.882-.16-3.273-1.813-3.112-3.692.16-1.878 1.812-3.276 3.693-3.115 1.88.16 3.273 1.817 3.112 3.698-.16 1.876-1.814 3.27-3.693 3.11z"/><circle fill="#FFF" cx="82.759" cy="138.951" r="1.663"/><path fill="#ACAFB1" d="M65.34 149.096s23.223-5.8 33.276-4.137c0 0-.638 12.03-15.706 14.8 0 0-13.745.84-17.57-10.67z"/><circle fill="#0071BC" cx="116.94" cy="140.388" r="9.304"/><path fill="#0F4481" d="M119.465 142.754c-2.64-.055-4.733-2.237-4.678-4.876.056-2.637 2.237-4.732 4.876-4.677 2.64.06 4.732 2.24 4.678 4.88s-2.23 4.74-4.87 4.68z"/><path fill="#FFF" d="M120.24 139.706c-1.402-.03-2.513-1.188-2.483-2.59.03-1.4 1.188-2.518 2.59-2.487 1.403.02 2.514 1.19 2.486 2.59-.03 1.4-1.19 2.51-2.592 2.48z"/><circle fill="#FFF" cx="115.93" cy="141.022" r="1.236"/><path fill="#ACAFB1" d="M99.588 145.154s17.668-2.06 28.69 1.92c0 0-2.557 12.9-14.953 10.724 0 0-11.41-.25-13.737-12.644z"/><path fill="#EF4B4D" d="M99.87 162.182s2.452-1.74 5.076.635c0 0-.755-1.115-1.935-1.278 0 0 3.26-.07 3.18 2.31 0 0-1.08 1.15-4.42-1.69 0 0-.77-.66-1.89.01z"/><ellipse transform="rotate(-168.52 200.21 181.61)" fill="#455156" cx="200.163" cy="181.616" rx="1.548" ry="1.171"/><path fill="#E6F6FF" d="M154.848 82.812l31.325.25-27.386 2.452-4.008 35.26"/><path fill="#FFF" d="M208.242 119.56s-13.932-18.18-41.22-3.527c0 0-2.78 5.015-.24 7.67.007-.005 43.483-10.3 37.998 5.942 0 0 6.892-3.618 3.462-10.085z"/><path fill="#E5E5E5" d="M166.78 123.702c1.496 1.56 4.833 2.305 11.674.723 0 0 26.347-5.096 26.326 5.22 5.486-16.243-37.99-5.948-38-5.943z"/><path fill="#FFF" d="M209.215 137.374s-13.932-18.18-41.22-3.528c0 0-.37.674-.72 1.65-.39 7.428 4.608 5.6 4.608 5.6 43.785-6.698 33.31 6.03 33.31 6.03s7.467-5.822 4.022-9.752z"/><path fill="#E5E5E5" d="M171.884 141.097s-4.997 1.827-4.608-5.6c-1.167 3.28-2.07 10.03 12.15 6.74 0 0 25.786-5.428 25.768 4.89 0 0 10.475-12.73-33.31-6.03z"/><path fill="#FFFEEB" d="M67.838 86.333c-.1-1.155-.314-2.338-.642-3.552-.33-1.21-.772-2.46-1.33-3.74l.58-.01c2.375-.06 4.263-.54 5.668-1.44 1.403-.9 2.087-2.05 2.05-3.46-.02-.76-.274-1.53-.762-2.32-.49-.79-1.52-1.94-3.09-3.47-2.015-1.96-3.382-3.58-4.1-4.86-.72-1.28-1.097-2.62-1.133-4.01-.08-2.81 1.15-5.07 3.69-6.78 2.53-1.71 5.97-2.63 10.31-2.74l1.2-.03c.57.95 1.1 1.97 1.58 3.05.48 1.09.95 2.25 1.39 3.49-.46-.08-.9-.14-1.33-.18-.43-.03-.83-.05-1.22-.04-1.83.05-3.33.41-4.5 1.08-1.17.68-1.75 1.5-1.72 2.49.01.57.25 1.19.73 1.87.47.68 1.48 1.77 3.03 3.27 2.41 2.29 3.98 4.11 4.71 5.46.73 1.35 1.11 2.8 1.16 4.36.09 3.45-1.29 6.22-4.14 8.3-2.85 2.08-6.75 3.19-11.7 3.32l-.48.01zm20.152-1.05c.445-2.2.77-4.695.97-7.482.202-2.79.293-5.87.273-9.25l-2.813-.14c.638-.89 1.174-1.78 1.61-2.67.432-.89.786-1.79 1.06-2.7-.05-1.87-.193-3.83-.43-5.88-.235-2.04-.566-4.21-.99-6.5 1.73-.23 3.403-.42 5.02-.57 1.618-.14 3.158-.24 4.618-.27 1.006-.02 2.066-.04 3.186-.03 1.12.01 2.284.03 3.498.08.172.5.306 1 .398 1.5.094.5.146.98.158 1.44.012.48-.037.98-.15 1.51s-.285 1.09-.52 1.68c-1.233-.01-2.395-.02-3.478-.01-1.084.01-2.13.03-3.133.07.143 1.08.24 1.98.294 2.71.06.73.09 1.43.11 2.09l.03 1.12 8.08-.35c.25.82.43 1.48.53 1.99.11.51.17.97.18 1.4.01.45 0 .89-.03 1.34-.03.45-.09.9-.17 1.36-1.64.19-3.13.34-4.49.44-1.35.11-2.59.18-3.71.23-.03 1.5-.07 3.06-.13 4.71s-.13 3.36-.22 5.14c.37.01.77.01 1.2 0 .43 0 1.08-.01 1.95-.04 1.19-.03 2.32-.07 3.39-.13 1.07-.06 2.12-.13 3.15-.22.03 1.11-.09 2.21-.36 3.3-.26 1.09-.68 2.22-1.24 3.38-2.16.31-4.25.55-6.27.73-2.02.18-3.8.29-5.35.33-.57.02-.96.02-1.18.02-.21 0-.38-.01-.49-.02L88 85.31zm22.838-.55c.215-2.29.35-4.71.41-7.266.06-2.554.026-6.21-.097-10.966-.09-3.78-.25-7.04-.46-9.77-.2-2.73-.48-5.11-.83-7.15l9.41-.58c.02.42.02 1.06.02 1.93 0 .87.01 1.53.02 1.98.04 1.71.15 4.35.31 7.9.16 3.56.27 6.28.32 8.17.05 1.89.07 3.61.07 5.15 0 1.55-.03 3-.09 4.35.71.02 1.44.02 2.19.02.76 0 1.8-.02 3.12-.05.64-.02 1.69-.07 3.15-.15l.41-.04c.09.52.14.94.17 1.27.03.32.05.61.06.87.02.65 0 1.32-.05 2.02-.05.69-.13 1.4-.25 2.14-.18 0-.48.02-.89.05-.41.03-.73.04-.96.05-1 .03-3.14.03-6.4.02-3.27-.01-6.04.02-8.32.07l-1.27.04zm20.188-1.07c.394-4.15.665-8.057.81-11.717.144-3.66.174-7.082.09-10.27-.058-2.266-.184-4.407-.372-6.426-.19-2.017-.446-3.893-.765-5.63 3.4-.12 6.31-.28 8.74-.478 2.43-.198 4.33-.442 5.72-.732.3 1.024.52 1.847.66 2.47.14.623.21 1.124.22 1.505.01.27-.02.59-.06.964-.05.37-.12.83-.22 1.37-.87.23-1.75.42-2.66.58-.91.16-1.83.28-2.74.37.01.33.03.92.08 1.77.05.84.07 1.52.09 2 .04 1.5.06 2.93.08 4.28.01 1.35.01 2.74 0 4.19l8.41-.6.01.42c.02.74-.03 1.59-.16 2.55-.13.95-.33 2.08-.62 3.37-1.21.03-2.44.08-3.68.17-1.25.08-2.52.18-3.82.31-.1 1.28-.17 2.62-.2 4s-.03 2.79.01 4.23l.04 1.71c-1.88-.13-3.63-.23-5.25-.31-1.63-.08-3.11-.12-4.46-.14zm20.81-7.683c.095-1.764.16-3.545.197-5.345.04-1.8.048-3.617.033-5.453-.034-3.353-.156-6.367-.364-9.04-.213-2.67-.52-5.052-.93-7.142l7.744-.57c.323 2.997.576 6.097.756 9.302.18 3.205.283 6.52.316 9.947.015 1.5-.027 3.9-.123 7.19-.02.29-.023.51-.02.66-1.446.13-2.792.24-4.042.31-1.248.07-2.44.11-3.566.12zm11.414-.33c.39-1.694.686-3.615.887-5.766.203-2.15.32-4.53.35-7.136l-2.28-.143c.53-.678.98-1.36 1.342-2.042.36-.683.66-1.375.89-2.074-.02-1.45-.11-2.96-.27-4.55-.17-1.59-.4-3.26-.72-5.04 1.4-.16 2.76-.29 4.08-.38 1.31-.09 2.56-.15 3.75-.16.81-.01 1.67-.01 2.58.01.9.01 1.85.05 2.83.1.13.39.23.78.3 1.16.07.38.1.75.11 1.11 0 .36-.05.75-.14 1.15-.1.4-.25.83-.45 1.29-1-.03-1.94-.05-2.82-.06-.88-.01-1.73-.01-2.54.01.1.83.17 1.53.2 2.09.03.56.05 1.1.06 1.62l.01.86 6.55-.17c.19.63.32 1.15.4 1.54.08.39.12.75.12 1.08 0 .34-.02.68-.05 1.03-.04.34-.09.69-.16 1.04-1.34.12-2.55.21-3.65.28-1.1.06-2.11.11-3.01.13-.05 1.15-.1 2.36-.18 3.62-.08 1.27-.16 2.59-.26 3.96.29.01.62.01.97.02.35 0 .88 0 1.58-.01.96-.01 1.88-.03 2.74-.07.87-.04 1.72-.08 2.55-.14.01.86-.11 1.71-.34 2.55-.23.84-.59 1.7-1.06 2.59-1.76.21-3.46.37-5.09.49-1.64.11-3.09.17-4.35.19h-.96c-.18-.01-.31-.02-.41-.03l-3.64-.22zm26.572-27.17c-.325.773-.568 2.905-.73 6.395-.16 3.49-.215 8.002-.16 13.533-.816-.03-1.646-.048-2.487-.06-.844-.01-1.72-.01-2.625 0l-1.25.01c-.105-3.07-.19-6.005-.25-8.8-.067-2.797-.11-5.4-.132-7.812l-.03-3.433 7.664.166zm-7.06 22.777l1.61-.015c.798-.007 1.607-.005 2.433.006.823.01 1.64.03 2.46.057.057.404.103.852.137 1.34.03.49.052 1.035.058 1.634l.012 1.3-6.666.1v-.11c-.086-1.13-.13-1.94-.134-2.44-.006-.26 0-.53.02-.82.012-.29.037-.64.07-1.06z"/><path fill="#FFF" d="M56.788 162.813s-3.24.154-8.544 7.374l23.653 9.883-15.11-17.257z"/></svg>