<svg xmlns="http://www.w3.org/2000/svg" width="250" height="250" viewBox="0 0 250 250"><path opacity=".15" d="M197.926 193.27l-.988-1.465-1.683-.538c-.753-.24-1.41-.537-2.017-.86 14.886-14.957 24.09-35.573 24.09-58.34 0-26.01-12.017-49.203-30.788-64.364-7.323-16.778-13.874-19.417-13.874-19.417l-.087.292h-.01l2.27-7.54C162.26 29.74 150.22 35.1 150.22 35.1l-2.122 7.72c-3.767-1.672-10.853-2.45-21.738 5.414l-.078.053.018-.01c-.763.553-1.544 1.15-2.346 1.79-33.74 4.346-61.124 29.003-69.44 61.333-.486-.04-.975-.073-1.472-.073-9.466 0-17.14 7.674-17.14 17.14 0 9.464 7.668 17.135 17.13 17.14 2.63 15.958 9.813 30.378 20.19 41.868l-.513.587c-1.3 1.485-1.92 2.18-3.19 3.543l-.91.977-.32 1.294c-.25 1.032-1.02 4.278-1.02 4.278l.72 1.582c.68 1.507 1.64 2.89 2.85 4.103l.16.16.17.14c2.24 1.88 3.43 2.85 5.78 4.71l.26.21.29.17c.97.57 1.63.96 2.39 1.4l.96 2.13 2.76.4c.87.13 1.35.19 2.14.29 1.83.43 3.01.7 4.67 1.03l.85.69 1.5.16c1.11.12 1.66.18 2.77.27l.83.07.81-.2c1.37-.33 2.06-.51 3.41-.89l.74-.21.65-.42c1.46-.94 2.79-1.94 3.95-2.98l.46.84 2.06.57c1.48.41 2.37.64 3.63.96l1.44 1.06 1.43.12c1.25.1 1.88.15 3.13.23l1.39.09 1.24-.64c.37-.19.67-.34.95-.49 3.78.59 7.65.91 11.58.97 1.34.51 2.45.92 4.05 1.5 1.03.58 1.67.94 2.83 1.58l1.74.96 1.92-.47c.7-.17 1.36-.42 1.98-.73.78.06 1.5.11 2.53.18l.39.02.38-.04c3.62-.32 6.24-.85 8.22-1.67.03-.01 1.61-.69 3.31-1.91 1.22.93 2.68 1.56 4.38 1.79l2.52 1.11 2.02-.85c1.74-.73 3.29-1.28 4.73-1.69l2.15-.61 1.01-1.99c.43-.85.64-1.27 1.05-2.12l1.15-2.38-.95-1.73c1.41 1.08 2.13 1.63 3.6 2.72l.43.32.48.22c1.81.83 3.61 1.38 5.36 1.64l4.03 1.27 2.19-2.34c.83-.89 1.25-1.35 2.04-2.24 1.49-1.59 2.49-3.41 2.97-5.42.14-.35.27-.64.45-1.07l1.05-2.55-1.56-2.28c-.76-1.1-1.13-1.64-1.87-2.74z"/><path fill="#D8DB42" d="M131.426 207.08c-43.124 0-78.208-35.085-78.208-78.21s35.084-78.207 78.208-78.207c43.123 0 78.207 35.084 78.207 78.208s-35.084 78.21-78.207 78.21z"/><path fill="#74BF44" d="M131.426 55.163c40.643 0 73.707 33.065 73.707 73.708s-33.064 73.71-73.707 73.71-73.708-33.06-73.708-73.71 33.065-73.7 73.708-73.7m0-9c-45.678 0-82.708 37.03-82.708 82.71s37.03 82.71 82.708 82.71c45.677 0 82.707-37.03 82.707-82.71s-37.03-82.7-82.707-82.7z"/><path fill="#74BF44" d="M196.592 192.81c-.75-1.095-1.122-1.64-1.86-2.733l-.988-1.466-1.683-.53c-.99-.32-1.87-.71-2.6-1.17l-.13-.08-.13-.07c-1.31-.72-2.05-1.13-3.19-1.78-1.03-.96-1.66-1.55-2.79-2.63l-.3-.28-.34-.23c-1.3-.88-1.94-1.33-3.2-2.22l-.65-.46-.76-.24c-.26-.08-.58-.17-.93-.26l-.71-.58c.21-.36.4-.74.57-1.14.41-.96.76-1.9 1.1-2.81.34-.91.66-1.78.96-2.41l.18-.38.12-.4c.5-1.78.81-2.92 1.16-4.42l5.92-2.89-1.62-3.97c-.04-.92-.08-1.61-.15-2.74l-.33-5.42-5.03.64c-1.43-1.38-3.06-2.36-4.28-2.82l-.42-.16s-1.56-.29-2.3-.44l-2.77-.54-1.93 2.05c-.4.42-.7.75-1 1.06l-4.82.18-6.34.2.16 2.67c-1.02.29-1.91.53-3.24.87l-1.92.49-1.08 1.65c-.45.69-.7 1.06-1.13 1.69-.29-.07-.59-.14-.87-.2l.12-.87-1.37.29.15-1.85-4.34 1.91-4 .1-.24 1.59-.85.17-.1.4c-2.41 1.03-4.09 1.64-7.03 2.61l-1.76.58-.68 1.09-.02-1.15-2.14-1.49-3.53-2.48-2.29 1.37c-.03-.02-2.29-1.07-2.29-1.07l-2.17 1.05c-1 .48-1.5.71-2.52 1.16l-1.68.73-.82 1.64c-.78 1.55-1.24 3.08-1.36 4.56-.05.64-.06 1.3-.03 1.98l-.11.38-.01.05c-.62-.51-1.04-.86-1.74-1.45l-.4-.34-.46-.25c-.86-.46-1.29-.7-2.14-1.17l-.49-.27-.54-.16c-2.99-.88-4.44-1.35-7.4-2.37l-1.76-.61-.86.34-2.86-1.19-1.79.59c-1.96.64-2.87.9-4.84 1.39l-.78.2-.68.42c-.59.37-1.13.66-1.62.86l-1.09.45-.78.88c-1.3 1.46-1.93 2.15-3.21 3.5l-1.28 1.34-.11 1.85c-.08 1.33-.12 1.99-.18 3.34l-.02.33.03.33c.1 1.16.35 2.24.76 3.24l-1.73-.89-2.62 3.01c-1.3 1.49-1.92 2.18-3.19 3.55l-.9.98-.31 1.3c-.25 1.03-1.01 4.28-1.01 4.28l.72 1.58c.69 1.51 1.65 2.89 2.86 4.1l.16.16.18.15c2.25 1.89 3.44 2.86 5.79 4.71l.26.21.29.18c.97.57 1.63.96 2.38 1.4l.97 2.13 2.76.41c.87.13 1.35.19 2.14.29 1.83.44 3.01.7 4.67 1.03l.85.7 1.5.16c1.11.12 1.67.18 2.77.27l.83.08.81-.19c1.38-.33 2.06-.5 3.42-.88l.75-.21.65-.42c1.47-.95 2.79-1.95 3.96-2.98l.46.83 2.06.57c1.48.41 2.37.65 3.63.97l1.45 1.06 1.43.12c1.25.11 1.88.16 3.13.24l1.4.09 1.24-.63c1.17-.6 1.75-.9 2.89-1.53l2.8-1.56-.2-3.53c.82 1.31 1.7 2.67 2.87 4.45l.89 1.36 1.51.6c2.31.9 3.58 1.38 5.83 2.19 1.03.59 1.67.94 2.83 1.58l1.74.96 1.93-.47c.7-.17 1.37-.42 1.99-.73.78.06 1.51.11 2.54.18l.39.03.38-.04c3.63-.31 6.24-.84 8.22-1.66.03-.01 1.61-.69 3.31-1.91 1.22.93 2.69 1.56 4.38 1.79l2.53 1.11 2.02-.84c1.73-.73 3.28-1.28 4.73-1.69l2.14-.61 1.01-1.99c.43-.85.64-1.27 1.05-2.12l1.15-2.38-.96-1.73c1.41 1.08 2.13 1.63 3.6 2.72l.43.32.48.22c1.81.83 3.61 1.38 5.37 1.64l4.03 1.26 2.19-2.34c.83-.89 1.25-1.35 2.04-2.24 1.5-1.59 2.5-3.41 2.97-5.42.15-.35.27-.63.45-1.07l1.06-2.55-1.56-2.28z"/><circle fill="#74BF44" cx="49.849" cy="125.271" r="17.14"/><path fill="#006838" d="M84.07 170.93c-.848.527-1.64.94-2.376 1.242-1.314 1.49-1.98 2.218-3.332 3.64-.08 1.303-.115 1.956-.18 3.277.068.82.27 1.57.62 2.21.476.87 1.13 1.66 1.682 2.32 1.217 1.45 2.44 3.01 3.703 4.17 2.26 1.57 3.41 2.35 5.755 3.89.958 1.35 2.023 2.47 3.18 3.34l.715-1.61c.307-.16.458-.24.763-.41.783.33 1.18.49 1.967.81-.8.64-1.987 1.08-2.44 1.48-.933.82-2.086 2.55-3.517 2.87-1.212.09-1.818.14-3.038.2-1.364-.58-2.04-.88-3.39-1.49-2.186-1.33-3.897-2.79-5.145-4.31-1.073-.89-1.604-1.33-2.654-2.23-1.004-.91-2.01-1.62-3.03-2.15-1.303 1.49-1.96 2.22-3.292 3.66-.24 1.02-.36 1.53-.61 2.56.43.94 1.04 1.82 1.83 2.61 2.22 1.86 3.36 2.78 5.67 4.61 1.49.88 2.24 1.31 3.75 2.17l.49 1.1c.93.13 1.4.19 2.32.31 2.4.57 3.6.83 6.01 1.29l.67.55c1.07.12 1.6.17 2.67.26 1.31-.31 1.96-.48 3.25-.84 1.76-1.13 3.19-2.29 4.31-3.43.6-.96.9-1.45 1.49-2.43.07-1.48.1-2.21.18-3.68-.83-2.16-1.65-4.16-2.58-5.5-.56-.8-1.35-1.48-2.06-1.98-.78-.91-1.16-1.37-1.92-2.27-1.84-1.41-3.59-2.56-5.3-3.46-.88-.82-1.31-1.23-2.17-2.05-.25-.99-.96-2.16-.96-2.6.01-1.11 2.57-2.45 4.81-1.92l.48.68c.88.09 1.32.13 2.2.21.84.53 1.55 1.33 2.15 1.94 1.28 1.31 3.31 3.52 4.12 3.81.46.16 2.03-.38 2.4-.79.49-.54.99-1.78 1.66-2.5.56-1.27.84-1.91 1.39-3.2-.4-.66-.6-.99-.99-1.64-.87-.71-1.3-1.07-2.14-1.79-.88-.47-1.31-.71-2.18-1.19-3.08-.91-4.61-1.4-7.63-2.45-.4.16-.6.23-1 .38-1.22-.48-1.83-.73-3.03-1.23-2.04.66-3.08.96-5.18 1.49zm-9.426 24.47c-.374.646-.562.97-.938 1.613-.467-.32-.755-.65-.868-.984.393-.64.587-.95.977-1.59.33.38.495.57.83.95zm6.22-13.937c-.05.018-.374-.98-.37-.98.054-.015.37.98.37.98zm4.306-6.005c-.082.042-1.872-2.238-1.872-2.238.056-.06 1.872 2.238 1.872 2.238zm-.04 3.404c.558-.52.833-.782 1.384-1.313-.28.61-.74 1.05-1.384 1.31zm1.39 4.44c-.554.33-1.073.552-1.552.668-.325-.33-.49-.493-.813-.823.636-.26.954-.396 1.583-.67.312.33.468.496.782.825zm1.98-8.07c-.477-.297-.8-.667-.966-1.107.384.442.577.664.967 1.106zm.302 1.22c-.03.017-.45-.698-.45-.698.03-.016.45.697.45.697zm.394 7.88c-.88.266-1.323.392-2.21.633.66-.42 1.396-.634 2.21-.634zm1.618-9.39c-.036.022-.665-1.02-.665-1.02.03-.023.66 1.02.66 1.02zm-.124 28.194c-.12.453-.443.758-.967.904.39-.36.582-.54.967-.904zm-.705 1.543c.042.01-.38.64-.408.62-.036-.03.394-.63.408-.63zm4.31-.88c-.467.37-1.155.59-1.605.42-.847-.32-1.71-1.26-2.246-1.93.892.04 1.336.06 2.225.09.64.56.97.84 1.62 1.41zm2.99-6.14c-.573-.03-.863-.05-1.437-.09-.254-.19-.38-.29-.635-.47l.583-1.05c.67.52 1.17 1.05 1.488 1.6zm16.888-30.84c-.434.86-.757 1.79-.83 2.68-.073.88-.01 1.72.08 2.42-.154.35-.232.53-.39.88-.366 1.32-.55 1.97-.93 3.28.162 1.03.495 1.96 1.012 2.78-.584.81-.878 1.2-1.478 1.99-.388 1.3-.585 1.95-.984 3.24.01 1.36.11 2.58.312 3.65.224.51.336.77.565 1.28-.83.02-1.247.02-2.078.03l-.375.25c.136.02.204.03.34.04-.126 1.18-.187 1.78-.315 2.96-.444 2.83-.67 4.25-1.128 7.07-.555.99-.833 1.48-1.4 2.45-.338.29-.506.43-.846.72.374.68.56 1.03.943 1.72 1.79.49 2.69.73 4.49 1.18.44.32.65.48 1.09.8 1.21.1 1.82.15 3.03.22 1.11-.56 1.66-.85 2.74-1.45l-.2-3.79c.17-.35.25-.53.41-.89l-.25-2.54c.48-1.07.72-1.61 1.19-2.7.19-1.12.28-1.68.46-2.79-.23-1.14-.35-1.71-.58-2.85.55-.09.83-.13 1.38-.23.03-1.01.05-1.51.08-2.52-.39-1.11-.73-2.38-.56-3.16.18-.82.75-1.98.75-2.81 0-.91-.6-1.64-1.53-1.94.68-.85 1.01-1.28 1.67-2.16.55-1.25.81-1.88 1.33-3.15-.05-2.9-.08-4.36-.12-7.25l-.85-.6c-.7.42-1.06.63-1.77 1.03-1.02-.46-1.53-.69-2.54-1.16-1.06.52-1.59.76-2.68 1.24zm-2.337 33.68c.354.68.552 1.33.588 1.93-1.445-.74-2.16-1.11-3.577-1.86-.048-.98-.07-1.48-.115-2.45 1.225.95 1.846 1.43 3.104 2.37zm.917-8.86c.334.66.52 1.3.55 1.9-1.364-.67-2.04-1.01-3.382-1.7l-.1-2.44c1.16.89 1.75 1.34 2.94 2.23zm-.537 5.74c-.014.02-1.71-1.18-1.71-1.18.016-.03 1.71 1.18 1.71 1.18zm1.933-3.29c.32.18.52 2.15.5 3.16l-1.04-.77c-.09-.75-.14-1.13-.22-1.87.26-.3.69-.56.75-.53zm2.5-25.15c.07.1.11.16.18.27-.1.1-.24.16-.44.17.07.24.11.37.18.62-.23.44-.54.83-.93 1.14-.15-.36-.22-.54-.36-.9.03-.5.28-.94.72-1.33h.64zm.31 14.79c-.67.2-1.01.31-1.69.5.15-.63.79-1.48 1.08-1.47.19 0 .55.55.6.96zm-.18 7.57c-.03.04-1-.71-1-.71.03-.04 1 .7 1 .7zm1.29-4.62c-.15.37-.23.55-.39.92-.27-.02-.41-.03-.68-.06l.39-.92.67.05zm23.58-20.42c-.6-.16-.9-.24-1.49-.4.05-.58.07-.88.12-1.46-3.59 1.57-5.43 2.27-9.19 3.51-1.08 1.73-1.64 2.59-2.79 4.26-.65 1.61-.97 3.5-1.44 4.66-.62 1.55-1.84 3.35-2.19 4.91-.25 1.93-.39 2.89-.66 4.81.25.9.37 1.36.63 2.27-.4 1.28-.61 1.92-1.03 3.19.38 2.08.58 3.12.99 5.22 2.11 3.5 3.21 5.27 5.55 8.84 2.41.94 3.63 1.4 6.11 2.29 1.25.71 1.88 1.06 3.15 1.77.74-.18 1.35-.52 1.82-1.01 1.69.15 2.54.22 4.23.33 2.61-.23 5.02-.6 6.7-1.3 1.83-.77 4.12-2.56 4.33-3.57.32-1.54-1.28-4.76-2.3-6.7l-.55-1.02c-3.1 1.23-4.68 1.79-7.88 2.81-1.31-.07-1.96-.11-3.27-.2-1.14.18-1.72.27-2.86.43-.92-.69-1.68-1.41-2.29-2.01-1.43-1.4-2.56-2.86-3.11-4.38-.94-2.13-1.4-3.2-2.29-5.31.67-1.95.9-4.2 1.37-5.41.56-1.45 1.61-4.04 2.21-4.9.65-.94 2.5-2.28 3.08-3.8l.11-1.75c.54.84 1.06 2.56 1.2 2.63.26.12 2.18-.92 3.22-1.2l1.65.81c1.87.28 4.4 1.73 4.94 1.64.71-.11 2.03-3.09 2.23-4.96-.27-2.05-.41-3.07-.68-5.11-1.43-1.2-2.86-1.93-4.22-2.26-1.8-.44-3.48-.7-4.99-.66-.17 1.19-.27 1.78-.47 2.96zm-15.29 25.56c0 .39 0 .59.01.98l-.35-1 .34.01zm2.34-2.24c-.77-.47-1.34-1.02-1.7-1.65.67.65 1.01.99 1.7 1.65zm2.6 6.97l-.28 2.31-.69.31c-.58-.29-.87-.44-1.44-.73.12-.78.19-1.17.31-1.95.83.03 1.25.04 2.08.06zm-.54 4.28l.7.02c-.13.39-.2.59-.34.98-.44-.15-.65-.23-1.09-.38l.72-.63zm-.13-29.86l.6-.06c-.1.41-.15.62-.26 1.04-.25-.12-.37-.17-.62-.29.11-.28.16-.42.27-.7zm1.78 12.25c-.67-.38-1-.57-1.65-.95.64.17 1.19.48 1.65.94zm.51-8.45c-.02.03-.96-.57-.96-.57.02-.02.96.57.96.57zm5.37 30.63l-1.87-.72c.25-.54.38-.81.62-1.36.74.59 1.16 1.28 1.24 2.06zm-.53-30.8c-.02.02-2.25-1.79-2.25-1.79.01-.03 2.25 1.79 2.25 1.79zm2.76 26.67c-.04.03-.8-.66-.8-.66.03-.04.8.65.8.65zm-3.2-31.47l.3-.05c.02.28.04.42.06.7l-.36-.65zm9.07 34.76c-.03.82-1.58 2.49-1.58 2.49-.1-.05.07-1.75.45-2.45-.25-.97-.38-1.45-.63-2.42.94.62 1.78 1.64 1.76 2.38zm-5.65-40.16l.54-.11c-.07.44-.1.67-.16 1.11-.24-.1-.36-.14-.59-.24.08-.3.12-.46.2-.76zm3.19 3.87c-.56.26-.84.39-1.4.64l.4-1.5c.43.16.76.44.99.86zm8.18-6.34c.4 1.4.61 2.09 1.02 3.49.07 1.48.1 2.22.16 3.7.5 1.22.75 1.83 1.26 3.06.15 2.52.22 3.78.34 6.28l.57 1.35c.52 2.56.79 3.85 1.31 6.41l-.09 1.12c.43.33.75.77.94 1.32-.11 1.5-.16 2.24-.29 3.72l.5 2.5.9.97c-.2 1.06-.3 1.59-.52 2.64.32 2.29.48 3.43.78 5.71.45 2.25 1.8 3.44 4.09 3.52.51.23.77.34 1.28.57 1.85-.77 3.61-1.41 5.31-1.89.41-.81.62-1.21 1.01-2.03-.85-1.53-1.27-2.29-2.1-3.82l-.37.07c-.11-.43-.16-.65-.28-1.09-.05-1.96-.08-2.94-.15-4.91-.59-1.69-1.22-3.22-1.89-4.59-.13-1.03-.2-1.55-.33-2.59-1.45.6-3.22 2.62-3.5 2.64-.22.02-1.09-1.11-1.41-1.59.81-1.21 1.21-1.83 1.99-3.07 1.61-.07 2.42-.11 4.05-.2.19-.83.29-1.24.47-2.07l1.04.12.73.18c.85-.39 1.27-.58 2.12-.98.76-.22 1.13-.33 1.89-.56-1.07-.86-2.16-1.47-3.28-1.84-.45.78-.68 1.16-1.14 1.93-.38-.37-.56-.56-.94-.93.29-.88.43-1.32.71-2.2 1.7-1.07 3.13-2.48 3.79-4.02.8-1.87 1.41-3.87 2.12-5.39.64-2.29.94-3.44 1.47-5.77.64-1.84 1.57-4.25 1.36-5.51-.29-1.72-2.52-3.64-4.08-4.22-.77-.15-1.15-.22-1.92-.37-.93.99-1.41 1.48-2.38 2.45-.1 2.31-.45 4.29-1.04 5.94-.35 2.32-.56 3.47-.99 5.75-.92 1.86-1.65 3.68-2.28 5.17-.31.7-1.3 1.67-1.5 1.62-.3-.07-1.28-1.39-1.74-1.84-.59-.59-1.01-1.71-1.3-2.73.79.23 1.19.35 1.99.57-.04-2.33-.71-4.8-.79-6.45-.02-.39.17-.78.33-.94-1.1-1.85-1.64-2.77-2.7-4.61-2.12.64-3.18.93-5.31 1.48-.5.77-.76 1.16-1.28 1.91zm4.82 14.19c-.39-.05-.58-.07-.96-.13l.05-1.14c.45.33.75.76.9 1.27zm3.02 7.62c-.62-.25-1.04-.67-1.28-1.24.51.5.77.75 1.29 1.24zm-1.27-12.26c-.13.5-.19.75-.32 1.24-.26-.08-.4-.12-.66-.21l.05-1.16c.37.05.56.08.94.13zm2.94 4.22c-.31 1.32-.47 1.98-.81 3.28-.68-.13-1.03-.2-1.7-.33.38-1.16.56-1.75.92-2.92.63-.01.95-.02 1.59-.03zm4.65 24.52c-.03.03-1.39-1.27-1.39-1.27.03-.04 1.39 1.27 1.39 1.27zm-3.13-21.08c.2.27.29.4.49.67-.06.79-.09 1.18-.16 1.96-.74-.27-1.11-.41-1.84-.7.11-.64.16-.96.26-1.6.5-.13.75-.19 1.25-.33zm9.26 5.36c-.99-.05-1.49-.07-2.47-.13-1.06 1.09-1.6 1.63-2.7 2.68 2.17 2.41 3.29 3.62 5.6 6.04 1.3.94 1.95 1.41 3.28 2.34.96 1.19 1.45 1.78 2.43 2.98 1.41 1.08 2.13 1.62 3.58 2.7 1.52.69 2.98 1.12 4.37 1.28.55.18.82.26 1.37.43.82-.87 1.22-1.31 2.01-2.2 1-1.05 1.61-2.23 1.84-3.52.25-.59.38-.89.63-1.48-.76-1.11-1.13-1.66-1.88-2.76-1.42-.46-2.67-1.03-3.76-1.72-1.53-.84-2.29-1.27-3.78-2.11-1.33-1.23-1.98-1.85-3.27-3.08-1.32-.91-1.98-1.36-3.27-2.28-1.43-.45-3.99-.89-4.09-.77-.08.1.18 1.17.13 1.58zm-10.65-28.05c-.07 1.34-.11 2-.2 3.33l.1.37-.8.3c-.08-1.59-.13-2.38-.23-3.97.44-.02.67-.02 1.12-.04zm5.58 16.74c-.5.08-.96-.04-1.38-.35.55.14.82.21 1.38.35zm-3.07-13.76l-.2 1.31-.64-.17-.08-1.2.91.05zm5.43 12.97c-.1 1.34-.15 2.01-.27 3.35l.1.35-.92.29c-.06-1.58-.1-2.37-.19-3.96.5-.01.76-.02 1.27-.04zm6.99 20.12l.35-.1.24.73-.58-.64zm-3.31-27.37c-.01.02-1.2-.78-1.2-.78.02-.03 1.2.78 1.2.78zm12.33 28.44l.33-.1.27.73c-.24-.26-.36-.38-.59-.64zm-6.33-36.47c.09 1.42.13 2.12.19 3.53.07.15.1.23.16.38l-.81.39c-.28-1.67-.42-2.5-.72-4.17l1.19-.15z"/><path fill="#D6EFFB" d="M147.03 31.904s12.04-5.358 24.622 5.94l-12.312 8.27-12.31-14.21z"/><path fill="#D0D1D2" d="M87.967 83.698s-20.08-11.863-11.548 13.06l3.87-2.575 7.67-10.485z"/><path fill="#FFF" d="M197.18 124.09c-2.547 27.894-32.835 47.93-67.65 44.75-34.815-3.178-60.974-28.37-58.427-56.264 2.548-27.898 32.836-47.934 67.652-44.755 34.812 3.18 60.97 28.38 58.425 56.27z"/><path fill="#919396" d="M184.023 94.976c-.01-.02 6.65 12.036 6.355 15.75l2.07-2.79c.002 0 15.198-18.142-8.425-12.96z"/><path fill="#D0D1D2" d="M179.255 91.138s13.344-7.153 21.228-1.102c0 0 10 10.125-6.327 23.675l-4 3.7s-2.61-2.32-1.636-6.73c0 0 19.136-17.98-5.628-13.74 0 0-3.873-.63-3.637-5.78z"/><path fill="#D0D2D3" d="M177.92 126.21c-1.926 23.39-27.124 39.965-56.285 37.02-29.163-2.94-51.243-24.285-49.318-47.675C74.24 92.165 99.44 75.59 128.6 78.532c29.162 2.942 51.244 24.287 49.32 47.677z"/><ellipse transform="matrix(.996 .091 -.091 .996 10.678 -8.337)" fill="#FFF" cx="96.817" cy="113.002" rx="21.704" ry="21.392"/><path fill="#6D6F71" d="M115.058 139.71s-.623 4.35-.973 4.977l.7.628.623-5.955-.35.35z"/><path fill="#FFF" d="M173.71 120.508c-1.337 14.637-13.49 25.472-28.223 24.124-14.736-1.342-26.47-14.36-25.134-28.997 1.335-14.637 14.365-25.41 29.1-24.064 14.733 1.35 25.593 14.3 24.258 28.94z"/><path fill="#0B8ECC" d="M115.79 130.838s3.356-5.416 6.153 5.002l-6.85 4.8-5.023-5.49s4.47-8.964 5.72-4.312z"/><path fill="#006838" d="M120.7 135.696l-2.95 2.048s.945-3.318 2.95-2.048z"/><path fill="#FFF" d="M112.955 137.308l-1.764-1.737s1.49-.55 1.77 1.74z"/><circle fill="#0071BC" cx="143" cy="116.662" r="20.087"/><path fill="#0F4481" d="M144.445 121.72c3.73-4.313 3.26-10.825-1.047-14.552-4.31-3.727-10.82-3.26-14.552 1.05-3.727 4.307-3.257 10.823 1.05 14.55 4.306 3.73 10.822 3.257 14.55-1.048z"/><path fill="#FFF" d="M138.438 118.556c1.982-2.292 1.732-5.75-.557-7.73-2.28-1.98-5.75-1.738-7.73.554-1.98 2.29-1.73 5.754.57 7.736 2.29 1.98 5.75 1.727 7.73-.56zm8.346-7.678c-1.476 0-2.67 1.196-2.67 2.67s1.194 2.67 2.67 2.67c1.472 0 2.67-1.196 2.67-2.67s-1.198-2.67-2.67-2.67z"/><path fill="#ACAFB1" d="M130.274 97.295s12.186 17.943 43.437 23.212c0 0 4.32-14.174-13-26.463 0 0-16.37-7.992-30.43 3.25z"/><circle fill="#0071BC" cx="99.435" cy="114.619" r="16.98"/><path fill="#0F4481" d="M98.212 118.895c-3.154-3.646-2.756-9.15.885-12.3 3.64-3.15 9.147-2.757 12.302.887 3.15 3.64 2.75 9.15-.89 12.3-3.64 3.152-9.15 2.753-12.3-.887z"/><path fill="#FFF" d="M103.29 116.22c-1.674-1.938-1.462-4.86.472-6.536 1.934-1.673 4.863-1.468 6.54.47 1.674 1.936 1.46 4.863-.476 6.54-1.936 1.674-4.86 1.46-6.535-.474z"/><circle fill="#FFF" cx="96.237" cy="111.987" r="2.256"/><path fill="#ACAFB1" d="M75.203 111.028s18.89 2.62 37.752-12.28c0 0-8.51-12.015-24.988-5.305 0 0-12.544 5.165-12.764 17.585z"/><path fill="#BE1E2D" d="M100.354 145.084s-7.55-13.418 16.617 1.107c0 0-11.97-4.16-16.61-1.1z"/><path fill="#919396" d="M96.59 142.59s-.205-9.538 14.6-1.877c0 0-16.752-10.663-14.6 1.876z"/><path fill="#6D6F71" d="M121.963 150.002s-13.087-12.694-23.696-5.314l5.834 5.314-2.39-4.688s8.77-3 20.26 4.688z"/><path fill="#075" d="M99.376 74.78s9.616 25.374 68.78 10.466c0 0 9.492 1.276 15.867 4.692l1.05-1.122s4.78-1.374 7.31-1.206c2.528.167 11.13-9.418-6.172-15.875 0 0-12.02-33.21-24.57-27.02l-13.42-2.795S136.7 27.83 110.1 57.06c0 0-24.548 3.37-18.296 22.18 0 0 1.468-1.37 7.58-4.467z"/><path fill="#006838" d="M91.794 79.247s-1.088-3.144 7.443-7.337c0 0-1.25-1.853 2.33-4.42 0 0 8.647 29.403 66.648 15.253 0 0 11.364-5.4 26.21 3.85 0 0-.46.52-1.862 1.013 0 0-5.716-.078-8.54 2.333 0 0-7.92-3.94-15.866-4.7 0 0-18.982 5.13-31.736 4.69 0 0-13.26.64-23.46-3.74 0 0-9.8-3.72-13.58-11.42l-7.58 4.47z"/><path fill="#7EB7E3" d="M143.768 43.783l3.264-11.878s7.382 7.22 24.62 5.94l-3.96 13.16s-14.774 2.33-23.924-7.222z"/><path fill="#29B473" d="M103.187 64.232s1.787-9.792 25.197-9.27c0 0 8.766-8.442 16-8.85 0 0-8.662 2.387-15.126 10.424 0 0-19.175-1.614-26.07 7.696zm40.87-21.51s-8.55-4.65-20.963 2.37l2.324-1.593c0-.01 10.867-7.19 18.64-.78zm-10.48 15.038s12.92.232 36.68 12.578c0 0-23.58-10.04-36.68-12.578z"/><path fill="#29B473" d="M157.71 65.334s2.193-7.53 1.894-14.308h1.1v14.712"/><path fill="#006838" d="M186.21 71.736S170.953 47.96 168.623 47.91l.85-2.82s8.352 3.35 16.74 26.646z"/><path fill="#ACAFB1" d="M121.34 125.577s20.59-11.947 46.002 11.705c0 0-12.403 13.61-33.2 4.112 0 0-10.3-6.36-12.802-15.817zm-42.303-.355s20.75-9.56 36.97-2.173c0 0-4.508 13.2-21.135 11.25 0 0-10.503-.57-15.835-9.09z"/><path fill="#919396" d="M122.662 146.19s5.184 12.298-4.213 3.812c0 0 11.76 11.597 4.21-3.81z"/><path fill="#74BF44" d="M118.032 137.01s.803-2.12 2.303-1.5c0 0-.916 2.585.66 4.798 0 0 1.885 2.28 0 3.2 0 0-3.028.538-1.23-2.934-.002 0 .414-2.78-1.733-3.563z"/><ellipse fill="#D0E296" cx="120.25" cy="141.773" rx=".79" ry=".815"/><ellipse fill="#FFF" cx="120.249" cy="141.773" rx=".495" ry=".51"/><path fill="#FFF" d="M148.055 34l-2.026 9.434 3.31-6.64s4.71 2.725 12.93 1.923c0 0-9.58-1.048-14.22-4.717z"/><circle fill="#FFF" cx="49.849" cy="125.271" r="11.587"/><path fill="#FFF" d="M59.398 125.27l44.397 17.068-2.72.865-47.533-11.82"/><circle fill="#F00" cx="49.849" cy="125.271" r="7.429"/><path fill="#F00" d="M56.045 125.27l42.222 15.993-49.55-12.392"/></svg>