<svg xmlns="http://www.w3.org/2000/svg" width="250" height="250" viewBox="0 0 250 250"><path opacity=".15" d="M193.933 171.343h-3.072l1.08-10.928.99-.017L219.18 149l-4.135-64.8-18.986-4.817c.85-5.95-.09-10.73-2.84-14.238-3.44-4.39-8.64-5.508-12.14-5.718-3.19-3.124-7.42-4.96-11.89-5.143l-2.17-1.98 5.65-4.433-4.22-2.6c-.07-.04-1.3-.79-3.5-1.88l-.12-.74-1.34-.83c-11.93-7.44-34.05-8.17-34.98-8.2h-.15c-26.33.34-36.81 9.12-37.24 9.5l-.86.74-.1.43c-1.13.59-1.75.97-1.78.99l-4.27 2.6 5.68 4.46-2.17 1.98c-4.48.18-8.68 2-11.86 5.1h-.17c-3.36 0-9.58.75-13.51 5.76-3.07 3.92-3.89 9.42-2.46 16.37L44.19 84.2l-7.367 65.557 26.87 12.71h.007l-1.107 11.087-15.906.04-3.597 36.47 21.06.034v-.025l11.19.028 1.362-13.29H84.7l-1.345 13.33 11.247-.05-.88 8.85 16.583.05.88-8.85h7.92l-.878 8.82 16.584.05.88-8.85h7.93v.02l4.28-.02h1.05l8.64-.04 10.56.03v.03l16.59-.04 1.78-17.76 5.37-.01-.34 3.41h-.01l-1.43 14.4h16.59l1.2-12.09 5.38-28.87h-19.1l-.22 2.2z"/><path fill="#FFF" d="M190.933 168.343h-3.072l1.08-10.928.99-.017L216.18 146l-4.135-64.8-18.986-4.817c.85-5.95-.09-10.73-2.84-14.238-3.44-4.39-8.64-5.508-12.14-5.718-3.19-3.124-7.42-4.96-11.89-5.143l-2.17-1.98 5.65-4.433-4.22-2.6c-.07-.04-1.3-.79-3.5-1.88l-.12-.74-1.34-.83c-11.93-7.44-34.05-8.17-34.98-8.2h-.15c-26.33.34-36.81 9.12-37.24 9.5l-.86.74-.1.43c-1.13.59-1.75.97-1.78.99l-4.27 2.6 5.68 4.46-2.17 1.98c-4.48.18-8.68 2-11.86 5.1h-.17c-3.36 0-9.58.75-13.51 5.76-3.07 3.92-3.89 9.42-2.46 16.37L41.19 81.2l-7.367 65.557 26.87 12.71h.007l-1.107 11.087-15.906.04-3.597 36.47 21.06.034v-.025l11.19.028 1.362-13.29H81.7l-1.345 13.33 11.247-.05-.88 8.85 16.583.05.88-8.85h7.92l-.878 8.82 16.584.05.88-8.85h7.93v.02l4.28-.02h1.05l8.64-.04 10.56.03v.03l16.59-.04 1.78-17.76 5.37-.01-.34 3.41h-.01l-1.43 14.4h16.59l1.2-12.09 5.38-28.87h-19.1l-.22 2.2z"/><path fill="#404041" d="M62.576 77.485L41.19 81.2l-7.365 65.556 26.87 12.71 129.234-2.068L216.17 146l-4.135-64.8-23.804-6.04"/><path fill="#404041" d="M192.47 79.496c1.715-7.415.957-13.25-2.254-17.35-3.438-4.392-8.64-5.51-12.133-5.72-3.19-3.123-7.416-4.958-11.887-5.142l-2.17-1.98 5.656-4.433-4.223-2.6c-.07-.04-1.3-.79-3.5-1.88l-.12-.74-1.34-.83c-11.93-7.44-34.05-8.17-34.98-8.2h-.15c-26.33.34-36.81 9.12-37.24 9.5l-.86.74-.1.43c-1.13.59-1.75.97-1.78.99l-4.27 2.6 5.68 4.46-2.17 1.98c-4.47.18-8.67 2-11.86 5.1h-.17c-3.36 0-9.58.75-13.51 5.76-3.21 4.1-3.97 9.94-2.25 17.35-.65 5.42-4.25 40.81 9.01 55.93 4.1 4.68 9.36 7.05 15.63 7.05 6.39 0 13.62-2.42 21.95-7.38-1.8 14.95 2.46 25.32 12.33 29.58 2.86 1.6 5.87 2.4 8.95 2.4 5.03 0 8.64-2.16 9.71-2.89 9.13-4.54 13.02-14.75 11.27-29.17 8.39 5.02 15.67 7.47 22.1 7.47 6.27 0 11.54-2.37 15.64-7.05 13.25-15.11 9.64-50.5 9-55.92zm-46.28 42.073c17.78-6.16 29.297-19.61 29.297-35 0-.29-.004-.58-.014-.88 1.055-.48 2.035-1.21 2.895-2.16-.184.55-.273 1.07-.307 1.53-.17 2.34.96 4.26 2.04 5.53 1.24 16.28-.74 27.73-5.74 33.16-2.41 2.62-5.54 3.89-9.57 3.89-6.49 0-13.66-3.29-18.59-6.09zM69.2 90.94c1.166-1.26 2.526-3.302 2.347-5.85-.044-.63-.193-1.384-.556-2.18.32.04.7.114 1.16.243.89 1.077 1.9 1.9 3 2.443-.01.325-.01.65-.01.97 0 15.02 11.22 28.4 28.51 34.7-4.9 2.837-12.37 6.385-19.09 6.385-4.03 0-7.16-1.27-9.57-3.89-4.96-5.39-6.95-16.72-5.77-32.81z"/><linearGradient id="a" gradientUnits="userSpaceOnUse" x1="-70.348" y1="170.044" x2="-70.348" y2="78.646" gradientTransform="matrix(-1 0 0 1 -11.4 0)"><stop offset="0" stop-color="#F3F3F3"/><stop offset="1" stop-color="#5C5C5C"/></linearGradient><path fill="url(#a)" d="M37.08 144.17l36.636 7.834 6.995-72.456-37.44 4.215"/><path fill="#58595B" d="M37.804 144.036l35.912 7.968 6.995-72.456-36.87 4.466"/><path fill="#D0D2D3" d="M73.716 152.004l14.704-3.52 5.827-65.337-13.536-3.6"/><radialGradient id="b" cx="-387.92" cy="470.075" r="7.34" gradientTransform="matrix(-.6 -.1 -.1 .6 -97.6 -233.1)" gradientUnits="userSpaceOnUse"><stop offset="0" stop-color="#FFF"/><stop offset="1"/></radialGradient><path opacity=".67" fill="url(#b)" d="M74.33 84.182c.587.794 1.816.934 2.747.305.93-.632 1.208-1.802.616-2.603-.587-.795-1.817-.913-2.748-.272-.93.636-1.204 1.784-.616 2.57z"/><radialGradient id="c" cx="-393.379" cy="463.391" r="7.352" gradientTransform="matrix(-.6 -.1 -.1 .6 -97.6 -233.1)" gradientUnits="userSpaceOnUse"><stop offset="0" stop-color="#FFF"/><stop offset=".115" stop-color="#F0EFEF"/><stop offset=".956"/></radialGradient><path opacity=".67" fill="url(#c)" d="M74.61 82.896c-.172.723.314 1.374 1.085 1.458.773.087 1.54-.434 1.712-1.165.174-.74-.31-1.39-1.085-1.47-.768-.08-1.536.45-1.712 1.17z"/><radialGradient id="d" cx="-343.849" cy="485.604" r="7.152" gradientTransform="matrix(-.6 -.1 -.1 .6 -97.6 -233.1)" gradientUnits="userSpaceOnUse"><stop offset="0" stop-color="#FFF"/><stop offset="1"/></radialGradient><path opacity=".67" fill="url(#d)" d="M45.426 87.483c.588.677 1.817.783 2.748.227.93-.56 1.207-1.575.617-2.26-.58-.68-1.81-.763-2.74-.194-.93.562-1.2 1.557-.61 2.227z"/><radialGradient id="e" cx="-349.277" cy="479.728" r="6.789" gradientTransform="matrix(-.6 -.1 -.1 .6 -97.6 -233.1)" gradientUnits="userSpaceOnUse"><stop offset="0" stop-color="#FFF"/><stop offset=".115" stop-color="#F0EFEF"/><stop offset=".956"/></radialGradient><path opacity=".67" fill="url(#e)" d="M45.71 86.37c-.173.625.313 1.18 1.083 1.244.773.065 1.54-.395 1.714-1.03.174-.635-.313-1.197-1.085-1.253-.77-.05-1.538.42-1.712 1.04z"/><radialGradient id="f" cx="-358.013" cy="578.325" r="7.529" gradientTransform="matrix(-.6 -.1 -.1 .6 -97.6 -233.1)" gradientUnits="userSpaceOnUse"><stop offset="0" stop-color="#FFF"/><stop offset="1"/></radialGradient><path opacity=".67" fill="url(#f)" d="M41.5 141.787c.59.855 1.818 1.327 2.75 1.048.93-.28 1.206-1.215.615-2.075-.588-.854-1.817-1.306-2.748-1.015-.93.284-1.205 1.197-.616 2.042z"/><radialGradient id="g" cx="-363.824" cy="572.852" r="6.747" gradientTransform="matrix(-.6 -.1 -.1 .6 -97.6 -233.1)" gradientUnits="userSpaceOnUse"><stop offset="0" stop-color="#FFF"/><stop offset=".115" stop-color="#F0EFEF"/><stop offset=".956"/></radialGradient><path opacity=".67" fill="url(#g)" d="M41.784 140.76c-.174.572.313 1.274 1.083 1.568.774.296 1.54.064 1.713-.52.175-.584-.312-1.29-1.083-1.577-.772-.28-1.54-.04-1.713.53z"/><radialGradient id="h" cx="-403.66" cy="578.078" r="7.683" gradientTransform="matrix(-.6 -.1 -.1 .6 -97.6 -233.1)" gradientUnits="userSpaceOnUse"><stop offset="0" stop-color="#FFF"/><stop offset="1"/></radialGradient><path opacity=".67" fill="url(#h)" d="M69.275 147.387c.592.97 1.82 1.474 2.75 1.122.93-.36 1.206-1.44.617-2.41-.59-.97-1.82-1.46-2.748-1.09-.93.35-1.206 1.42-.62 2.37z"/><radialGradient id="i" cx="-409.5" cy="571.769" r="7.293" gradientTransform="matrix(-.6 -.1 -.1 .6 -97.6 -233.1)" gradientUnits="userSpaceOnUse"><stop offset="0" stop-color="#FFF"/><stop offset=".115" stop-color="#F0EFEF"/><stop offset=".956"/></radialGradient><path opacity=".67" fill="url(#i)" d="M69.56 146.19c-.17.67.314 1.463 1.086 1.776.773.317 1.538.026 1.712-.65.173-.677-.313-1.477-1.086-1.784-.77-.304-1.538-.01-1.71.66z"/><linearGradient id="j" gradientUnits="userSpaceOnUse" x1="17.802" y1="95.38" x2="35.812" y2="70.101" gradientTransform="rotate(11.5 -11.6 260.1)"><stop offset="0" stop-color="#FFF"/><stop offset="1"/></linearGradient><path fill="url(#j)" d="M72.634 96.66c-2.558 4.624-9.342 7.17-15.123 5.603-5.76-1.62-8.17-7.21-5.42-12.4 2.74-5.14 9.45-7.465 15.01-5.28 5.59 2.135 8.08 7.5 5.54 12.076z"/><path fill="#4D4D4D" d="M53.287 90.282c-2.404 4.52-.257 9.44 4.81 10.893 5.084 1.415 11.07-.812 13.323-4.896 2.24-4.05.03-8.79-4.898-10.65-4.918-1.89-10.843.16-13.235 4.64z"/><linearGradient id="k" gradientUnits="userSpaceOnUse" x1="34.403" y1="74.056" x2="17.03" y2="93.568" gradientTransform="rotate(11.5 -11.6 260.1)"><stop offset="0" stop-color="#FFF"/><stop offset="1"/></linearGradient><path fill="url(#k)" d="M53.727 90.434c-2.27 4.268-.217 8.922 4.6 10.316 4.83 1.358 10.512-.74 12.648-4.612 2.12-3.84.015-8.338-4.68-10.09-4.68-1.788-10.307.152-12.568 4.386z"/><radialGradient id="l" cx="310.296" cy="535.308" r="37.871" gradientTransform="matrix(.6 .2 -.3 .6 26.1 -248.7)" gradientUnits="userSpaceOnUse"><stop offset="0" stop-color="#FFF"/><stop offset=".087" stop-color="#FAFAFA"/><stop offset=".185" stop-color="#EDEDED"/><stop offset=".288" stop-color="#D6D6D6"/><stop offset=".395" stop-color="#B7B7B7"/><stop offset=".505" stop-color="#8F8F8F"/><stop offset=".615" stop-color="#5E5E5E"/><stop offset=".703" stop-color="#313131"/><stop offset=".94"/></radialGradient><path fill="url(#l)" d="M55.002 90.875c-1.91 3.58-.146 7.513 3.948 8.724 4.1 1.18 8.925-.58 10.737-3.87 1.805-3.28 0-7.1-4-8.56-3.996-1.5-8.782.14-10.685 3.7z"/><path opacity=".75" fill="#424242" d="M58.835 92.178c-.85 1.578.035 3.368 1.97 3.978 1.942.604 4.2-.145 5.026-1.664.83-1.512-.06-3.277-1.98-3.943-1.91-.68-4.16.05-5.01 1.62z"/><linearGradient id="m" gradientUnits="userSpaceOnUse" x1="28.453" y1="76.88" x2="25.966" y2="89.694" gradientTransform="rotate(11.5 -11.6 260.1)"><stop offset="0" stop-color="#FFF"/><stop offset="1"/></linearGradient><path fill="url(#m)" d="M59.11 92.27c-.78 1.453.032 3.1 1.818 3.665 1.787.56 3.865-.13 4.628-1.53.762-1.4-.06-3.025-1.827-3.636-1.77-.62-3.84.05-4.62 1.5z"/><linearGradient id="n" gradientUnits="userSpaceOnUse" x1="-95.031" y1="147.162" x2="-77.995" y2="123.25" gradientTransform="rotate(-11.8 -6.1 -573)"><stop offset="0" stop-color="#FFF"/><stop offset="1"/></linearGradient><path fill="url(#n)" d="M69.91 134.13c.85 5.17-3.36 10.43-9.44 11.655-6.097 1.176-11.932-2.622-12.995-8.387-1.047-5.716 3.247-10.74 9.56-11.316 6.29-.63 12.036 2.93 12.874 8.047z"/><path fill="#4D4D4D" d="M48.802 137.225c.92 5.025 6.072 8.354 11.456 7.35 5.366-1.048 9.097-5.67 8.338-10.232-.744-4.524-5.83-7.67-11.36-7.087-5.548.543-9.343 4.98-8.434 9.97z"/><linearGradient id="o" gradientUnits="userSpaceOnUse" x1="-79.307" y1="127.017" x2="-95.706" y2="145.435" gradientTransform="rotate(-11.8 -6.1 -573)"><stop offset="0" stop-color="#FFF"/><stop offset="1"/></linearGradient><path fill="url(#o)" d="M49.287 137.16c.868 4.744 5.76 7.887 10.886 6.943 5.11-.984 8.664-5.357 7.942-9.686-.71-4.29-5.543-7.27-10.802-6.7-5.272.528-8.88 4.735-8.026 9.443z"/><radialGradient id="p" cx="-197.545" cy="696.613" r="37.641" gradientTransform="matrix(.6 0 .1 .6 99.1 -255.3)" gradientUnits="userSpaceOnUse"><stop offset="0" stop-color="#FFF"/><stop offset=".087" stop-color="#FAFAFA"/><stop offset=".185" stop-color="#EDEDED"/><stop offset=".288" stop-color="#D6D6D6"/><stop offset=".395" stop-color="#B7B7B7"/><stop offset=".505" stop-color="#8F8F8F"/><stop offset=".615" stop-color="#5E5E5E"/><stop offset=".703" stop-color="#313131"/><stop offset=".94"/></radialGradient><path fill="url(#p)" d="M50.69 136.976c.726 3.98 4.884 6.624 9.255 5.843 4.362-.81 7.395-4.5 6.777-8.18-.61-3.66-4.727-6.18-9.194-5.68-4.478.48-7.55 4.05-6.837 8.01z"/><path opacity=".75" fill="#424242" d="M54.9 136.397c.313 1.757 2.276 2.923 4.37 2.587 2.095-.342 3.56-2.007 3.27-3.7-.29-1.687-2.244-2.827-4.358-2.55-2.12.272-3.593 1.91-3.282 3.663z"/><linearGradient id="q" gradientUnits="userSpaceOnUse" x1="-84.852" y1="129.46" x2="-87.332" y2="142.233" gradientTransform="rotate(-11.8 -6.1 -573)"><stop offset="0" stop-color="#FFF"/><stop offset="1"/></linearGradient><path fill="url(#q)" d="M55.2 136.355c.288 1.616 2.096 2.69 4.028 2.382 1.93-.313 3.28-1.845 3.01-3.406-.268-1.55-2.067-2.61-4.014-2.35-1.952.26-3.308 1.77-3.023 3.38z"/><linearGradient id="r" gradientUnits="userSpaceOnUse" x1="-45.307" y1="126.781" x2="-28.165" y2="102.721" gradientTransform="translate(96.9)"><stop offset="0" stop-color="#FFF"/><stop offset="1"/></linearGradient><path fill="url(#r)" d="M71.978 114.95c-.925 4.917-6.69 8.795-12.886 8.574-6.19-.276-10.463-5.023-9.538-10.516.922-5.443 6.69-9.095 12.886-8.246 6.19.8 10.463 5.32 9.538 10.187z"/><path fill="#4D4D4D" d="M50.872 113.142c-.81 4.788 2.97 8.957 8.424 9.226 5.456.23 10.554-3.173 11.366-7.513.81-4.306-2.97-8.3-8.427-8.974-5.455-.71-10.552 2.52-11.363 7.27z"/><linearGradient id="s" gradientUnits="userSpaceOnUse" x1="-29.456" y1="106.451" x2="-46.075" y2="125.116" gradientTransform="translate(96.9)"><stop offset="0" stop-color="#FFF"/><stop offset="1"/></linearGradient><path fill="url(#s)" d="M51.354 113.19c-.768 4.517 2.832 8.462 8.02 8.73 5.188.23 10.036-2.985 10.803-7.103.766-4.083-2.832-7.868-8.02-8.5-5.19-.666-10.035 2.388-10.803 6.872z"/><radialGradient id="t" cx="52.563" cy="633.074" r="37.195" gradientTransform="matrix(.6 0 0 .6 76.1 -250.3)" gradientUnits="userSpaceOnUse"><stop offset="0" stop-color="#FFF"/><stop offset=".087" stop-color="#FAFAFA"/><stop offset=".185" stop-color="#EDEDED"/><stop offset=".288" stop-color="#D6D6D6"/><stop offset=".395" stop-color="#B7B7B7"/><stop offset=".505" stop-color="#8F8F8F"/><stop offset=".615" stop-color="#5E5E5E"/><stop offset=".703" stop-color="#313131"/><stop offset=".94"/></radialGradient><path fill="url(#t)" d="M52.754 113.328c-.65 3.792 2.418 7.118 6.835 7.37 4.41.225 8.54-2.48 9.19-5.983.64-3.48-2.43-6.69-6.84-7.206-4.42-.54-8.54 2.04-9.19 5.81z"/><path opacity=".75" fill="#424242" d="M56.947 113.723c-.292 1.674 1.185 3.168 3.29 3.322 2.104.15 4.054-1.05 4.346-2.66.293-1.61-1.182-3.078-3.285-3.29-2.106-.215-4.057.958-4.35 2.628z"/><linearGradient id="u" gradientUnits="userSpaceOnUse" x1="-35.146" y1="109.171" x2="-37.527" y2="121.439" gradientTransform="translate(96.9)"><stop offset="0" stop-color="#FFF"/><stop offset="1"/></linearGradient><path fill="url(#u)" d="M57.248 113.75c-.27 1.54 1.09 2.915 3.03 3.06 1.938.14 3.735-.964 4.005-2.452.268-1.482-1.09-2.838-3.028-3.03-1.94-.196-3.736.89-4.007 2.422z"/><linearGradient id="v" gradientUnits="userSpaceOnUse" x1="-449.158" y1="170.043" x2="-449.158" y2="78.647" gradientTransform="translate(640.1)"><stop offset="0" stop-color="#F3F3F3"/><stop offset="1" stop-color="#5C5C5C"/></linearGradient><path fill="url(#v)" d="M212.763 144.17l-36.637 7.834-6.994-72.456 37.443 4.215"/><path fill="#58595B" d="M212.04 144.036l-35.914 7.968-6.994-72.456 36.873 4.466"/><path fill="#D0D2D3" d="M176.126 152.004l-14.703-3.52-5.824-65.337 13.53-3.6"/><radialGradient id="w" cx="-982.687" cy="336.409" r="7.313" gradientTransform="matrix(.6 0 0 .6 726.3 -233.1)" gradientUnits="userSpaceOnUse"><stop offset="0" stop-color="#FFF"/><stop offset="1"/></radialGradient><path opacity=".67" fill="url(#w)" d="M175.515 84.182c-.59.794-1.818.934-2.748.305-.932-.632-1.207-1.802-.617-2.603.588-.795 1.816-.913 2.748-.272.927.636 1.203 1.784.617 2.57z"/><radialGradient id="x" cx="-988.146" cy="329.725" r="7.353" gradientTransform="matrix(.6 0 0 .6 726.3 -233.1)" gradientUnits="userSpaceOnUse"><stop offset="0" stop-color="#FFF"/><stop offset=".115" stop-color="#F0EFEF"/><stop offset=".956"/></radialGradient><path opacity=".67" fill="url(#x)" d="M175.23 82.896c.173.723-.313 1.374-1.085 1.458-.773.087-1.54-.434-1.713-1.165-.176-.74.31-1.39 1.086-1.47.772-.08 1.538.45 1.713 1.17z"/><radialGradient id="y" cx="-938.616" cy="351.938" r="7.138" gradientTransform="matrix(.6 0 0 .6 726.3 -233.1)" gradientUnits="userSpaceOnUse"><stop offset="0" stop-color="#FFF"/><stop offset="1"/></radialGradient><path opacity=".67" fill="url(#y)" d="M204.415 87.483c-.588.677-1.816.783-2.746.227-.94-.56-1.21-1.575-.62-2.26.59-.68 1.81-.763 2.75-.194.92.562 1.2 1.557.61 2.227z"/><radialGradient id="z" cx="-944.043" cy="346.062" r="6.792" gradientTransform="matrix(.6 0 0 .6 726.3 -233.1)" gradientUnits="userSpaceOnUse"><stop offset="0" stop-color="#FFF"/><stop offset=".115" stop-color="#F0EFEF"/><stop offset=".956"/></radialGradient><path opacity=".67" fill="url(#z)" d="M204.134 86.37c.172.625-.314 1.18-1.086 1.244-.773.065-1.54-.395-1.713-1.03-.176-.635.31-1.197 1.086-1.253.78-.05 1.54.42 1.72 1.04z"/><radialGradient id="A" cx="-952.78" cy="444.662" r="7.524" gradientTransform="matrix(.6 0 0 .6 726.3 -233.1)" gradientUnits="userSpaceOnUse"><stop offset="0" stop-color="#FFF"/><stop offset="1"/></radialGradient><path opacity=".67" fill="url(#A)" d="M208.343 141.787c-.59.855-1.818 1.327-2.748 1.048-.932-.28-1.21-1.215-.617-2.075.588-.854 1.814-1.306 2.746-1.015.93.284 1.205 1.197.62 2.042z"/><radialGradient id="B" cx="-958.589" cy="439.188" r="6.747" gradientTransform="matrix(.6 0 0 .6 726.3 -233.1)" gradientUnits="userSpaceOnUse"><stop offset="0" stop-color="#FFF"/><stop offset=".115" stop-color="#F0EFEF"/><stop offset=".956"/></radialGradient><path opacity=".67" fill="url(#B)" d="M208.06 140.76c.172.572-.314 1.274-1.086 1.568-.775.296-1.54.064-1.713-.52-.17-.584.32-1.29 1.09-1.577.77-.28 1.54-.04 1.72.53z"/><radialGradient id="C" cx="-998.423" cy="444.412" r="7.697" gradientTransform="matrix(.6 0 0 .6 726.3 -233.1)" gradientUnits="userSpaceOnUse"><stop offset="0" stop-color="#FFF"/><stop offset="1"/></radialGradient><path opacity=".67" fill="url(#C)" d="M180.567 147.387c-.594.97-1.818 1.474-2.748 1.122-.94-.36-1.21-1.44-.62-2.41.58-.97 1.81-1.46 2.74-1.09.93.35 1.2 1.42.62 2.37z"/><radialGradient id="D" cx="-1004.263" cy="438.103" r="7.29" gradientTransform="matrix(.6 0 0 .6 726.3 -233.1)" gradientUnits="userSpaceOnUse"><stop offset="0" stop-color="#FFF"/><stop offset=".115" stop-color="#F0EFEF"/><stop offset=".956"/></radialGradient><path opacity=".67" fill="url(#D)" d="M180.28 146.19c.176.67-.31 1.463-1.086 1.776-.77.317-1.535.026-1.71-.65-.173-.677.314-1.477 1.085-1.784.77-.304 1.53-.01 1.71.66z"/><linearGradient id="E" gradientUnits="userSpaceOnUse" x1="388.981" y1="19.773" x2="406.992" y2="-5.507" gradientTransform="matrix(-1 .2 .2 1 576.9 7.5)"><stop offset="0" stop-color="#FFF"/><stop offset="1"/></linearGradient><path fill="url(#E)" d="M177.208 96.66c2.56 4.624 9.342 7.17 15.123 5.603 5.77-1.62 8.19-7.21 5.43-12.4-2.73-5.14-9.44-7.465-15.01-5.28-5.58 2.135-8.08 7.5-5.54 12.076z"/><path fill="#4D4D4D" d="M196.554 90.282c2.406 4.52.262 9.44-4.81 10.893-5.08 1.415-11.07-.812-13.32-4.896-2.24-4.05-.032-8.79 4.9-10.65 4.915-1.89 10.837.16 13.23 4.64z"/><linearGradient id="F" gradientUnits="userSpaceOnUse" x1="405.586" y1="-1.55" x2="388.212" y2="17.963" gradientTransform="matrix(-1 .2 .2 1 576.9 7.5)"><stop offset="0" stop-color="#FFF"/><stop offset="1"/></linearGradient><path fill="url(#F)" d="M196.114 90.434c2.273 4.268.22 8.922-4.596 10.316-4.834 1.358-10.516-.74-12.65-4.612-2.123-3.84-.016-8.338 4.678-10.09 4.682-1.788 10.307.152 12.568 4.386z"/><radialGradient id="G" cx="889.211" cy="369.813" r="37.873" gradientTransform="matrix(-.6 .2 .3 .6 602.6 -248.7)" gradientUnits="userSpaceOnUse"><stop offset="0" stop-color="#FFF"/><stop offset=".087" stop-color="#FAFAFA"/><stop offset=".185" stop-color="#EDEDED"/><stop offset=".288" stop-color="#D6D6D6"/><stop offset=".395" stop-color="#B7B7B7"/><stop offset=".505" stop-color="#8F8F8F"/><stop offset=".615" stop-color="#5E5E5E"/><stop offset=".703" stop-color="#313131"/><stop offset=".94"/></radialGradient><path fill="url(#G)" d="M194.84 90.875c1.91 3.58.146 7.513-3.948 8.724-4.1 1.18-8.926-.58-10.736-3.87-1.805-3.28 0-7.1 4.002-8.56 3.995-1.5 8.78.14 10.683 3.7z"/><path opacity=".75" fill="#424242" d="M191.005 92.178c.852 1.578-.033 3.368-1.97 3.978-1.94.604-4.196-.145-5.022-1.664-.828-1.512.064-3.277 1.982-3.943 1.918-.68 4.166.05 5.01 1.62z"/><linearGradient id="H" gradientUnits="userSpaceOnUse" x1="399.631" y1="1.274" x2="397.144" y2="14.086" gradientTransform="matrix(-1 .2 .2 1 576.9 7.5)"><stop offset="0" stop-color="#FFF"/><stop offset="1"/></linearGradient><path fill="url(#H)" d="M190.73 92.27c.784 1.453-.03 3.1-1.815 3.665-1.787.56-3.867-.13-4.627-1.53-.766-1.4.06-3.025 1.826-3.636 1.766-.62 3.838.05 4.617 1.5z"/><linearGradient id="I" gradientUnits="userSpaceOnUse" x1="275.965" y1="223.68" x2="293.001" y2="199.768" gradientTransform="matrix(-1 -.2 -.2 1 513 -13.3)"><stop offset="0" stop-color="#FFF"/><stop offset="1"/></linearGradient><path fill="url(#I)" d="M179.935 134.13c-.854 5.17 3.357 10.43 9.438 11.655 6.098 1.176 11.932-2.622 12.996-8.387 1.04-5.716-3.25-10.74-9.56-11.316-6.3-.63-12.04 2.93-12.88 8.047z"/><path fill="#4D4D4D" d="M201.042 137.225c-.922 5.025-6.074 8.354-11.455 7.35-5.37-1.048-9.098-5.67-8.34-10.232.744-4.524 5.828-7.67 11.363-7.087 5.543.543 9.34 4.98 8.432 9.97z"/><linearGradient id="J" gradientUnits="userSpaceOnUse" x1="291.688" y1="203.534" x2="275.288" y2="221.952" gradientTransform="matrix(-1 -.2 -.2 1 513 -13.3)"><stop offset="0" stop-color="#FFF"/><stop offset="1"/></linearGradient><path fill="url(#J)" d="M200.554 137.16c-.867 4.744-5.762 7.887-10.885 6.943-5.11-.984-8.67-5.357-7.95-9.686.71-4.29 5.54-7.27 10.8-6.7 5.27.528 8.88 4.735 8.02 9.443z"/><radialGradient id="K" cx="404.208" cy="681.482" r="37.644" gradientTransform="matrix(-.6 0 -.1 .6 529.6 -255.3)" gradientUnits="userSpaceOnUse"><stop offset="0" stop-color="#FFF"/><stop offset=".087" stop-color="#FAFAFA"/><stop offset=".185" stop-color="#EDEDED"/><stop offset=".288" stop-color="#D6D6D6"/><stop offset=".395" stop-color="#B7B7B7"/><stop offset=".505" stop-color="#8F8F8F"/><stop offset=".615" stop-color="#5E5E5E"/><stop offset=".703" stop-color="#313131"/><stop offset=".94"/></radialGradient><path fill="url(#K)" d="M199.153 136.976c-.73 3.98-4.885 6.624-9.256 5.843-4.363-.81-7.395-4.5-6.777-8.18.61-3.66 4.73-6.18 9.195-5.68 4.477.48 7.553 4.05 6.838 8.01z"/><path opacity=".75" fill="#424242" d="M194.942 136.397c-.314 1.757-2.275 2.923-4.37 2.587-2.095-.342-3.558-2.007-3.27-3.7.292-1.687 2.243-2.827 4.356-2.55 2.124.272 3.595 1.91 3.284 3.663z"/><linearGradient id="L" gradientUnits="userSpaceOnUse" x1="286.144" y1="205.977" x2="283.665" y2="218.75" gradientTransform="matrix(-1 -.2 -.2 1 513 -13.3)"><stop offset="0" stop-color="#FFF"/><stop offset="1"/></linearGradient><path fill="url(#L)" d="M194.642 136.355c-.29 1.616-2.096 2.69-4.027 2.382-1.93-.313-3.28-1.845-3.01-3.406.268-1.55 2.066-2.61 4.016-2.35 1.95.26 3.31 1.77 3.03 3.38z"/><linearGradient id="M" gradientUnits="userSpaceOnUse" x1="333.504" y1="126.78" x2="350.646" y2="102.719" gradientTransform="matrix(-1 0 0 1 531.8 0)"><stop offset="0" stop-color="#FFF"/><stop offset="1"/></linearGradient><path fill="url(#M)" d="M177.862 114.95c.926 4.917 6.695 8.795 12.887 8.574 6.19-.276 10.46-5.023 9.53-10.516-.92-5.443-6.69-9.095-12.89-8.246-6.19.8-10.47 5.32-9.54 10.187z"/><path fill="#4D4D4D" d="M198.97 113.142c.81 4.788-2.967 8.957-8.424 9.226-5.455.23-10.555-3.173-11.363-7.513-.81-4.306 2.97-8.3 8.426-8.974 5.45-.71 10.55 2.52 11.36 7.27z"/><linearGradient id="N" gradientUnits="userSpaceOnUse" x1="349.353" y1="106.452" x2="332.734" y2="125.117" gradientTransform="matrix(-1 0 0 1 531.8 0)"><stop offset="0" stop-color="#FFF"/><stop offset="1"/></linearGradient><path fill="url(#N)" d="M198.49 113.19c.765 4.517-2.835 8.462-8.02 8.73-5.192.23-10.04-2.985-10.806-7.103-.766-4.083 2.83-7.868 8.02-8.5 5.194-.666 10.036 2.388 10.805 6.872z"/><radialGradient id="O" cx="655.073" cy="540.412" r="37.192" gradientTransform="matrix(-.6 .1 .1 .6 552.6 -250.3)" gradientUnits="userSpaceOnUse"><stop offset="0" stop-color="#FFF"/><stop offset=".087" stop-color="#FAFAFA"/><stop offset=".185" stop-color="#EDEDED"/><stop offset=".288" stop-color="#D6D6D6"/><stop offset=".395" stop-color="#B7B7B7"/><stop offset=".505" stop-color="#8F8F8F"/><stop offset=".615" stop-color="#5E5E5E"/><stop offset=".703" stop-color="#313131"/><stop offset=".94"/></radialGradient><path fill="url(#O)" d="M197.09 113.328c.645 3.792-2.42 7.118-6.84 7.37-4.415.225-8.538-2.48-9.185-5.983-.648-3.48 2.418-6.69 6.836-7.206 4.42-.54 8.54 2.04 9.19 5.81z"/><path opacity=".75" fill="#424242" d="M192.894 113.723c.295 1.674-1.184 3.168-3.285 3.322-2.11.15-4.06-1.05-4.35-2.66-.3-1.61 1.18-3.078 3.28-3.29 2.1-.215 4.05.958 4.35 2.628z"/><linearGradient id="P" gradientUnits="userSpaceOnUse" x1="343.663" y1="109.17" x2="341.281" y2="121.44" gradientTransform="matrix(-1 0 0 1 531.8 0)"><stop offset="0" stop-color="#FFF"/><stop offset="1"/></linearGradient><path fill="url(#P)" d="M192.595 113.75c.268 1.54-1.092 2.915-3.03 3.06-1.94.14-3.737-.964-4.005-2.452-.268-1.482 1.092-2.838 3.027-3.03 1.94-.196 3.736.89 4.008 2.422z"/><path fill="#58595B" d="M165.052 157.398h-83.22l6.075-85.522h71.072"/><radialGradient id="Q" cx="-152.864" cy="511.753" r="8.597" gradientTransform="matrix(1 -.1 .2 .6 138.1 -233.1)" gradientUnits="userSpaceOnUse"><stop offset="0" stop-color="#FFF"/><stop offset="1"/></radialGradient><path opacity=".67" fill="url(#Q)" d="M99.528 77.642c-1.092 1.008-3.368 1.307-5.09.67-1.727-.636-2.238-1.97-1.145-2.976 1.09-1.006 3.367-1.305 5.092-.668 1.723.637 2.236 1.97 1.143 2.974z"/><radialGradient id="R" cx="-159.308" cy="504.109" r="8.506" gradientTransform="matrix(1 -.1 .2 .6 138.1 -233.1)" gradientUnits="userSpaceOnUse"><stop offset="0" stop-color="#FFF"/><stop offset=".115" stop-color="#F0EFEF"/><stop offset=".956"/></radialGradient><path opacity=".67" fill="url(#R)" d="M99.004 76.15c.32.835-.58 1.665-2.013 1.853-1.43.188-2.84-.336-3.17-1.173-.32-.836.58-1.666 2.01-1.854 1.43-.187 2.86.337 3.18 1.173z"/><radialGradient id="S" cx="-100.71" cy="523.475" r="8.611" gradientTransform="matrix(1 -.1 .2 .6 138.1 -233.1)" gradientUnits="userSpaceOnUse"><stop offset="0" stop-color="#FFF"/><stop offset="1"/></radialGradient><path opacity=".67" fill="url(#S)" d="M152.985 77.642c-1.094 1.008-3.37 1.307-5.092.67-1.727-.636-2.238-1.97-1.145-2.976 1.09-1.006 3.367-1.305 5.092-.668 1.723.637 2.235 1.97 1.145 2.974z"/><radialGradient id="T" cx="-107.155" cy="515.83" r="8.505" gradientTransform="matrix(1 -.1 .2 .6 138.1 -233.1)" gradientUnits="userSpaceOnUse"><stop offset="0" stop-color="#FFF"/><stop offset=".115" stop-color="#F0EFEF"/><stop offset=".956"/></radialGradient><path opacity=".67" fill="url(#T)" d="M152.458 76.15c.322.835-.58 1.665-2.01 1.853-1.434.188-2.852-.336-3.174-1.173-.32-.836.578-1.666 2.012-1.854 1.43-.187 2.852.337 3.172 1.173z"/><linearGradient id="U" gradientUnits="userSpaceOnUse" x1="110.933" y1="110.31" x2="134.672" y2="76.989"><stop offset="0" stop-color="#FFF"/><stop offset="1"/></linearGradient><path fill="url(#U)" d="M142.583 94.526c-1.582 5.996-11.447 10.083-22.04 9.133-10.59-.96-17.898-6.59-16.32-12.58 1.58-6 11.45-10.09 22.042-9.14 10.593.95 17.898 6.58 16.318 12.58z"/><path fill="#4D4D4D" d="M106.48 91.285c-1.385 5.26 5.08 10.22 14.41 11.06 9.33.838 18.054-2.76 19.44-8.02 1.384-5.26-5.08-10.222-14.413-11.06-9.33-.84-18.05 2.76-19.436 8.02z"/><linearGradient id="V" gradientUnits="userSpaceOnUse" x1="133.221" y1="81.779" x2="109.199" y2="108.757"><stop offset="0" stop-color="#FFF"/><stop offset="1"/></linearGradient><path fill="url(#V)" d="M107.307 91.358c-1.31 4.978 4.842 9.676 13.72 10.474 8.874.796 17.164-2.605 18.474-7.582 1.32-4.978-4.84-9.675-13.71-10.472-8.87-.798-17.16 2.603-18.47 7.58z"/><radialGradient id="W" cx="226.57" cy="571.144" r="39.908" gradientTransform="matrix(1 .1 -.1 .6 -34.9 -250.3)" gradientUnits="userSpaceOnUse"><stop offset="0" stop-color="#FFF"/><stop offset=".087" stop-color="#FAFAFA"/><stop offset=".185" stop-color="#EDEDED"/><stop offset=".288" stop-color="#D6D6D6"/><stop offset=".395" stop-color="#B7B7B7"/><stop offset=".505" stop-color="#8F8F8F"/><stop offset=".615" stop-color="#5E5E5E"/><stop offset=".703" stop-color="#313131"/><stop offset=".94"/></radialGradient><path fill="url(#W)" d="M109.7 91.574c-1.11 4.207 4.138 8.182 11.694 8.862 7.555.677 14.61-2.193 15.717-6.4s-4.13-8.185-11.69-8.864c-7.56-.678-14.61 2.194-15.71 6.402z"/><path opacity=".75" fill="#424242" d="M116.873 92.218c-.5 1.898 2.025 3.705 5.625 4.028 3.602.324 6.938-.957 7.44-2.855.497-1.89-2.028-3.7-5.624-4.03-3.603-.32-6.938.96-7.44 2.86z"/><linearGradient id="X" gradientUnits="userSpaceOnUse" x1="124.531" y1="86.988" x2="121.706" y2="101.54"><stop offset="0" stop-color="#FFF"/><stop offset="1"/></linearGradient><path fill="url(#X)" d="M117.388 92.264c-.46 1.75 1.864 3.414 5.18 3.712 3.317.297 6.394-.882 6.85-2.63.464-1.75-1.86-3.416-5.177-3.714-3.31-.298-6.39.884-6.85 2.632z"/><path opacity=".8" d="M150.933 85.894c0 1.225-1.7 2.218-3.8 2.218-2.097 0-3.796-.993-3.796-2.218s1.7-2.218 3.795-2.218c2.1 0 3.8.993 3.8 2.218z"/><ellipse opacity=".8" cx="150.778" cy="93.168" rx="5.012" ry="2.927"/><ellipse opacity=".8" cx="98.233" cy="85.894" rx="3.796" ry="2.218"/><path opacity=".8" d="M150.933 100.324c0 1.226-1.7 2.22-3.8 2.22-2.097 0-3.796-.994-3.796-2.22 0-1.224 1.7-2.217 3.795-2.217 2.1 0 3.8.993 3.8 2.217z"/><ellipse opacity=".8" cx="153.714" cy="143.914" rx="3.797" ry="2.22"/><ellipse opacity=".8" cx="92.968" cy="143.914" rx="3.797" ry="2.22"/><ellipse opacity=".8" cx="98.233" cy="100.324" rx="3.796" ry="2.219"/><ellipse opacity=".8" cx="95.803" cy="93.168" rx="5.012" ry="2.927"/><linearGradient id="Y" gradientUnits="userSpaceOnUse" x1="123.544" y1="494.482" x2="123.544" y2="492.375" gradientTransform="translate(0 -417)"><stop offset="0" stop-color="#FFF"/><stop offset="1" stop-color="#818181"/></linearGradient><path fill="url(#Y)" d="M136.17 76.43c0 .583-.808 1.055-1.804 1.055h-21.643c-.997 0-1.804-.472-1.804-1.054 0-.58.8-1.05 1.8-1.05h21.64c.99 0 1.8.47 1.8 1.06z"/><radialGradient id="Z" cx="-122.815" cy="652.359" r="8.597" gradientTransform="matrix(1 -.1 .2 .6 138.1 -233.1)" gradientUnits="userSpaceOnUse"><stop offset="0" stop-color="#FFF"/><stop offset="1"/></radialGradient><path opacity=".67" fill="url(#Z)" d="M159.67 153.938c-1.097 1.01-3.372 1.307-5.095.67-1.727-.635-2.238-1.97-1.145-2.976 1.088-1.005 3.365-1.304 5.094-.668 1.723.638 2.235 1.97 1.145 2.974z"/><radialGradient id="aa" cx="-129.262" cy="644.712" r="8.509" gradientTransform="matrix(1 -.1 .2 .6 138.1 -233.1)" gradientUnits="userSpaceOnUse"><stop offset="0" stop-color="#FFF"/><stop offset=".115" stop-color="#F0EFEF"/><stop offset=".956"/></radialGradient><path opacity=".67" fill="url(#aa)" d="M159.14 152.444c.324.837-.578 1.666-2.01 1.855-1.43.18-2.852-.34-3.174-1.18-.32-.84.582-1.67 2.012-1.86 1.43-.19 2.85.34 3.172 1.17z"/><radialGradient id="ab" cx="-186.823" cy="637.975" r="8.611" gradientTransform="matrix(1 -.1 .2 .6 138.1 -233.1)" gradientUnits="userSpaceOnUse"><stop offset="0" stop-color="#FFF"/><stop offset="1"/></radialGradient><path opacity=".67" fill="url(#ab)" d="M94.062 153.938c-1.09 1.01-3.37 1.307-5.093.67-1.73-.635-2.24-1.97-1.15-2.976 1.09-1.005 3.36-1.304 5.09-.668 1.72.638 2.23 1.97 1.14 2.974z"/><radialGradient id="ac" cx="-193.269" cy="630.328" r="8.509" gradientTransform="matrix(1 -.1 .2 .6 138.1 -233.1)" gradientUnits="userSpaceOnUse"><stop offset="0" stop-color="#FFF"/><stop offset=".115" stop-color="#F0EFEF"/><stop offset=".956"/></radialGradient><path opacity=".67" fill="url(#ac)" d="M93.536 152.444c.322.837-.58 1.666-2.01 1.855-1.433.18-2.853-.34-3.174-1.18-.322-.84.578-1.67 2.012-1.86 1.428-.19 2.85.34 3.172 1.17z"/><linearGradient id="ad" gradientUnits="userSpaceOnUse" x1="318.789" y1="-228.976" x2="318.789" y2="-232.525" gradientTransform="rotate(180 221.2 -40.2)"><stop offset="0" stop-color="#8B8B8B"/><stop offset="1" stop-color="#292929"/></linearGradient><path fill="url(#ad)" d="M102.282 150.42c0-.98 1.362-1.774 3.038-1.774h36.445c1.68 0 3.043.795 3.043 1.773 0 .98-1.363 1.77-3.043 1.77H105.32c-1.676 0-3.038-.8-3.038-1.78z"/><path fill="#BBBDBF" d="M63.886 70.474S59.36 69.57 61.09 79.3l3.14-6.716-.344-2.11z"/><path fill="#A6A8AB" d="M64.842 81.348c2.38 4.436 1.01 8.006 1.01 8.006.12-.097.226-.192.334-.287 1.014-.93 3.764-3.953-.032-6.557 0 0 .65-4.932 7.97-2.353 0 0 5.33-8.36-10.053-1.415.1 2.078.78 2.606.78 2.606zm119.923 0c-2.38 4.436-1.01 8.006-1.01 8.006-.12-.097-.227-.192-.334-.287-1.01-.93-3.76-3.953.04-6.557 0 0-.65-4.932-7.97-2.353 0 0-5.33-8.36 10.05-1.415-.09 2.078-.77 2.606-.77 2.606z"/><path fill="#96131F" d="M89.87 45.002l.53-2.28s9.655-8.332 35.02-8.657c0 0 21.985.65 33.25 7.682l.448 2.813s-19.26-5.185-36.354-5.027L92.792 46.29l-2.92-1.288z"/><path fill="#404041" d="M93.415 50.187s12.155-9.197 31.897-8.872c0 0 16.314-.117 33.36 9.52l-.745-1.73 3.572-3.034s-31.49-20.87-72.28-.75l4.19 4.87z"/><path fill="#BE1E2D" d="M158.67 49.105l4.97-3.895s-15.61-9.666-38.105-9.927c-22.493.262-38.332 9.927-38.332 9.927l4.968 3.895-8.43 7.695 1.46 2.37 11.45-10.35-1.09-1.3-2.13.865L90.4 46.1c18.927-8.405 35.422-8.387 35.422-8.387s15.695-.018 34.62 8.388l-3.015 2.29-2.137-.86-1.092 1.3 11.447 10.35 1.463-2.36-8.435-7.69z"/><circle fill="#BE1E2D" cx="165.455" cy="69.338" r="14.606"/><circle fill="#BE1E2D" cx="85.386" cy="69.338" r="14.607"/><circle fill="#96131F" cx="85.79" cy="65.707" r="9.454"/><path fill="#F69C95" d="M73.642 76.417l1.803-3.652s-5.05-12.338 5.77-16.845c0 0-13.632 5.205-7.573 20.497z"/><circle fill="#96131F" cx="165.052" cy="65.707" r="9.453"/><ellipse fill="#FFF" cx="125.312" cy="86.576" rx="46.715" ry="34.986"/><ellipse fill="#D0D2D3" cx="125.312" cy="86.575" rx="41.576" ry="31.14"/><ellipse fill="#ACAFB1" cx="105.019" cy="82.897" rx="19.633" ry="19.503"/><ellipse fill="#ACAFB1" cx="145.731" cy="82.897" rx="19.633" ry="19.503"/><path fill="#BE1E2D" d="M119.026 103.51s-.435 1.646 6.053-.454c0 0 4.95 1.964 6.26 1.067 0 0-4.43 16.182-12.32-.614z"/><path fill="#6C6F71" d="M119.02 105.92s7.514 13.875 12.83 0c0 0-.325 6.27-5.315 7.67 0 0-5.743.096-7.516-7.67zm6.06-4.947h.454v1.83h-.455z"/><path fill="#1D8FCD" d="M125.347 101.42l3.184-4.1s-1.59-2.986-3.22-.07c-1.62-2.916-3.22.07-3.22.07l3.19 4.1v.103l.04-.05.04.05v-.104z"/><path fill="#FFF" d="M124.595 100.034s-.027-2.096-1.08-1.193l1.08 1.2zm1.398 0s.03-2.096 1.08-1.193l-1.08 1.2z"/><path fill="#6C6F71" d="M117.245 100.034l1.59 1.49s-2.37 5.504 6.7 1.532v-.79s-8.27 4.536-6.02-1.48l-2.27-.752z"/><path fill="#6C6F71" d="M133.37 100.034l-1.59 1.49s2.37 5.504-6.7 1.532v-.79s8.27 4.536 6.02-1.48l2.27-.752z"/><path fill="#FFF" d="M138.18 118.7l-14.253 2.716-12.916-2.717s-16.44 42.03 13.59 44.52c30.04-2.5 13.59-44.53 13.59-44.53z"/><path fill="#D0D2D3" d="M116.272 120.366h16.446s6.012 23.842-.05 40.826c0 0-6.884 5.172-15.35.358 0 0-6.65-8.3-1.046-41.184z"/><path fill="#808184" d="M85.79 86.85s17.433-13 38.86-4.885l-.056.595s-17.305-7.668-38.646 4.984l-.158-.693zm79.37 0s-17.433-13-38.86-4.885l.057.595s17.305-7.668 38.646 4.984l.158-.693z"/><path fill="#58595B" d="M171.99 82.897s-8.01-17.883-17.792-23.944c0 0 1.795-4.323 5.04-3.515 0 0 12.335 9.77 17.855 23.86 0 0-1.778 3.936-5.104 3.6z"/><path fill="#A6A8AB" d="M176.173 78.914s-.822 2.272-3.928 3.138l-.455-.65s2.71-2.487 2.867-4.76c0 0-1.623 2.218-3.084 2.705l-.324-.487s2.38-1.028 3.46-3.083l.54 1.136s-1.08 3.19-2.6 4.436c0 0 1.84.1 3.52-3.25v.81zm-1.84-3.894s-.02.046-.063.13c-.29.582-1.588 2.925-3.67 3.114l-.434-.433s2.705-.32 3.842-3.24l-.65-1.24.975 1.68z"/><path fill="#A6A8AB" d="M172.927 73.828s-.975 1.93-2.76 2.398l-.18-.424s1.912.027 2.668-2.46l.272.486zM158.915 55.92s-2.002-.16-3.625 2.868l.434.38s1.352-3.355 3.84-2.706l-.432-.542h-.217z"/><path fill="#A6A8AB" d="M159.563 56.84s-1.785-.594-3.19 2.814l.485.38s1.244-1.787 4.11-2.11l-.323-.38s-2.434.216-3.625 1.623c0 0 .217-1.486 3.03-2.366l-.487.04zm2.22 1.577s-1.68.1-3.11 2.968l.46.433s.214-2.38 3.083-3.03l-.434-.37z"/><path fill="#FFF" d="M177.2 76.417l-1.803-3.652s5.05-12.338-5.77-16.845c0 0 13.632 5.205 7.573 20.497z"/><path fill="#58595B" d="M78.853 82.897s8.01-17.883 17.79-23.944c0 0-1.795-4.323-5.04-3.515 0 0-12.335 9.77-17.853 23.86 0 0 1.777 3.936 5.103 3.6z"/><path fill="#BBBDBF" d="M74.67 78.914s.82 2.272 3.926 3.138l.455-.65s-2.71-2.487-2.86-4.76c0 0 1.63 2.218 3.09 2.705l.33-.487s-2.38-1.028-3.46-3.083l-.54 1.136s1.08 3.19 2.6 4.436c0 0-1.84.1-3.52-3.25v.81zm1.84-3.894s.02.046.062.13c.292.582 1.587 2.925 3.67 3.114l.433-.433s-2.705-.32-3.84-3.24l.648-1.24-.974 1.68z"/><path fill="#BBBDBF" d="M77.916 73.828s.974 1.93 2.76 2.398l.178-.424s-1.91.027-2.667-2.46l-.27.486zm14.01-17.908s2.003-.16 3.625 2.868l-.43.38s-1.35-3.355-3.84-2.706l.43-.542h.22z"/><path fill="#BBBDBF" d="M91.278 56.84s1.785-.594 3.192 2.814l-.487.38s-1.244-1.787-4.112-2.11l.33-.38s2.44.216 3.63 1.623c0 0-.21-1.486-3.03-2.366l.49.04zm-2.218 1.577s1.677.1 3.11 2.968l-.46.433s-.216-2.38-3.083-3.03l.433-.37z"/><path fill="#FFF" d="M64.23 80.158s-2.38-8.968 11.36-11.03c0 0 .326-.907-.107-2.062 0 0-12.046-5.7-14.39 12.233l3.136.85zm1.622 9.196s1.37-3.57-1.01-8.006c0 0-.676-.528-.77-2.605-.13.06-.25.11-.384.17 0 0-2.62-15.33 7.993-14.637 0 0 4.35-.073 2.37-4.365 0 0-19.01-2.2-13.67 19.39 0 0-12.16 92.45 49.63 47.28l1.41-6.21c.01 0-51.31 38.82-45.54-31.01zM185.1 80.158s2.38-8.968-11.362-11.03c0 0-.326-.907.107-2.062 0 0 12.047-5.7 14.393 12.233l-3.14.85zm-1.626 9.196s-1.37-3.57 1.012-8.006c0 0 .674-.528.77-2.605.13.06.25.11.382.17 0 0 2.62-15.33-7.992-14.637 0 0-4.35-.073-2.365-4.365 0 0 19.02-2.2 13.68 19.39 0 0 12.17 92.45-49.62 47.28l-1.4-6.21s51.32 38.82 45.55-31.01z"/><path fill="#FFF" d="M66.186 89.067c-.108.095-.215.19-.334.287 0 0 .134-.103.334-.287zm124.964 77.08l-.217 2.196h-3.073l3.02-30.542h-18.72l-1.145 11.03h-11.16v.03H135.33l-.006.04-11.213-.06v.04l-7.91.02.01-.03H91.69l.007-.07H61.77l-2.176 21.78-15.906.04-3.595 36.47 21.06.04v-.02l11.188.03 1.37-13.29h7.99l-1.34 13.33 11.25-.05-.88 8.85 16.59.04.88-8.85h7.92l-.87 8.82 16.59.04.88-8.85h7.93v.02l4.28-.02h1.05l8.64-.04 10.56.03v.04l16.59-.04 1.78-17.76 5.36-.01-.33 3.41-1.43 14.39h16.59l1.2-12.1 5.38-28.87"/><path fill="#96131F" d="M87.43 152.627l-.688 6.72-13.307-.02-.266 2.24h13.32l-1.56 15.5-22.11-.02.64-6.588H76.7l.22-2.24-13.24-.05 1.554-15.55h22.18zm24.506.068l-2.462 24.37-22.067-.02 2.417-24.35h22.112zm-9.514 6.63H98.01l-1.11 11.067 4.436.02 1.086-11.087zm9.47 17.765l2.44-24.35 8.803-.023-1.795 17.74h4.48l1.77-17.762 8.853.044-2.44 24.35h-22.11zm49.035-24.395l-2.44 24.37-8.85.024 1.774-17.77h-4.47l-1.75 17.74-8.78-.02 2.42-24.35h22.11zm0 24.395l2.418-24.42H174.5l-.688 6.7h-2.285l-1.107 11.088h4.525l2.193-22.177-2.193-.02.686-6.61h11l-3.5 35.44h-22.2zM44.34 203.22l2.837-28.787 8.872-.022-.43 4.4 4.52.02-.67 6.66-4.55.02-1.11 11.09h4.43l-.62 6.66-13.31-.02zm40.34-24.42l-1.13 11.157h-8.895l.444-4.458h-4.42l-1.82 17.74-8.81-.02 2.44-24.42h22.18zm-.066 24.464l2.462-24.395h8.85l-2.463 24.35-8.85.04zm35.773-24.394l-2.44 24.394H106.88l.687-6.676h2.196l1.11-11.09h-4.414l-2.64 26.614-8.85-.02 3.3-33.223h22.11zm24.507 0l-2.44 24.394H131.39l.687-6.676h2.195l1.107-11.09h-4.42l-2.64 26.614-8.85-.02 3.3-33.223h22.11zm-.024 24.394l2.463-24.395h8.848l-2.45 24.35-8.85.04zm35.797-24.394l-2.44 24.372-8.85.02 1.774-17.764h-4.48l-1.75 17.743-8.78-.02 2.42-24.35h22.11zm1.55 6.608l1.33-13.285h8.85l-1.353 13.263-8.826.022zM192 196.565h8.847l-.664 6.698h-8.85l.666-6.698zm.22-2.17h8.85l4.547-24.398h-10.98l-2.417 24.397z"/></svg>