<svg xmlns="http://www.w3.org/2000/svg" width="250" height="250" viewBox="0 0 250 250"><path opacity=".15" d="M205.63 158.7c-.55-1.438-2.494-4.777-8.608-4.777-1.306 0-2.732.153-4.214.448l1.2-17.35v-6.22l-4.628.57.264-3.51-5.24-.08c-.795-.01-1.583-.02-2.37-.02-.348 0-.7 0-1.054.01 2.38-3.57 3.392-6.99 3.016-10.2-.13-1.1-.406-2.06-.76-2.89l4.842-.58-3.112-79.96-17.052 2.93.302 4.56c-11.642 1.76-24.728 2.66-39.06 2.66-20.692 0-39.386-1.88-49.96-3.2l.223-3.34-17.06-2.93-3.12 79.97 9.04 1.08c-.82 2.8-.73 6.83 2.7 11.96l-4.75.07v1.99l-3.22.01.04.59-.46-.03v.52l-1.58-.21v6.12l.36 17.09c-.25-.01-.5-.02-.75-.02-6.11 0-8.05 3.34-8.6 4.78-.79 2.06-.65 4.55.38 6.82.33.74.75 1.43 1.25 2.09l-.12.96c-.49 3.8.87 11.39 8.5 17.34l.47 22.38 52.91 10.48c.91.74 1.85 1.38 2.8 1.91.82.47 1.66.86 2.49 1.16 1.52.55 3.07.83 4.6.83 3.23 0 5.62-1.21 7.05-2.21l56.6-10.92 1.41-20.37c15.18-7.58 13.78-20.04 13.71-20.6l-.13-.94c.5-.65.92-1.35 1.26-2.09 1.04-2.27 1.18-4.75.38-6.81z"/><path fill="#006838" d="M202.63 155.7c-.55-1.438-2.494-4.777-8.608-4.777-1.306 0-2.732.153-4.214.448l1.2-17.35v-6.22l-4.628.57.264-3.51-5.24-.08c-.795-.01-1.583-.02-2.37-.02-.348 0-.7 0-1.054.01 2.38-3.57 3.392-6.99 3.016-10.2-.13-1.1-.406-2.06-.76-2.89l4.842-.58-3.112-79.96-17.052 2.93.302 4.56c-11.642 1.76-24.728 2.66-39.06 2.66-20.692 0-39.386-1.88-49.96-3.2l.223-3.34-17.06-2.93-3.12 79.97 9.04 1.08c-.82 2.8-.73 6.83 2.7 11.96l-4.75.07v1.99l-3.22.01.04.59-.46-.03v.52l-1.58-.21v6.12l.36 17.09c-.25-.01-.5-.02-.75-.02-6.11 0-8.05 3.34-8.6 4.78-.79 2.06-.65 4.55.38 6.82.33.74.75 1.43 1.25 2.09l-.12.96c-.49 3.8.87 11.39 8.5 17.34l.47 22.38 52.91 10.48c.91.74 1.85 1.38 2.8 1.91.82.47 1.66.86 2.49 1.16 1.52.55 3.07.83 4.6.83 3.23 0 5.62-1.21 7.05-2.21l56.6-10.92 1.41-20.37c15.18-7.58 13.78-20.04 13.71-20.6l-.13-.94c.5-.65.92-1.35 1.26-2.09 1.04-2.27 1.18-4.75.38-6.81z"/><path fill="#FFE8BA" d="M66.335 41.66s61.397 10.2 109.797 0l-1.71 61.39s-71.69 15.193-108.087-1.32V41.66z"/><path fill="#D0D2D3" d="M196.22 166.18s1.342 10.54-13.266 16.578c-14.608 6.034-2.47-10.562-2.47-10.562l15.735-6.016zm-140.75 0s-1.344 10.54 13.265 16.578c14.608 6.034 2.47-10.562 2.47-10.562L55.47 166.18z"/><path d="M77.332 124.193s-9.66-19.038 7.408-7.753l-7.408 7.753zm91.338 0s9.66-19.038-7.41-7.753l7.41 7.753z" fill="#919496"/><ellipse fill="#FFF" cx="122.837" cy="141.676" rx="52.676" ry="39.451"/><ellipse fill="#D0D2D3" cx="122.838" cy="141.676" rx="46.882" ry="35.111"/><path fill="#D0D2D3" d="M74.95 125.603s3.148-.455 2.825-3.412c0 0-8.246-12.72 6.675-5.8 0 0 2.15.65 3.162-2.13 0 0-10.52-7.25-15.842-2.64 0 0-6.078 4.05 3.18 14z"/><path fill="#6C6F71" d="M122.46 157.993v4.625h1.042l-.523-5.766"/><path fill="#D0D2D3" d="M170.995 125.603s-3.15-.455-2.823-3.412c0 0 8.243-12.72-6.677-5.8 0 0-2.15.65-3.16-2.13 0 0 10.52-7.25 15.84-2.64 0 0 6.077 4.05-3.18 14z"/><path fill="#1D8FCD" d="M122.878 158.414l3.588-4.625s-1.796-3.37-3.632-.08c-1.838-3.29-3.634.07-3.634.07l3.586 4.62v.11l.047-.06.044.06v-.12z"/><path fill="#FFF" d="M122.03 156.852s-.032-2.362-1.218-1.346l1.217 1.346zm1.576 0s.034-2.362 1.218-1.346l-1.218 1.346z"/><ellipse fill="#FFF" cx="101.599" cy="136.72" rx="19.997" ry="21.812"/><ellipse fill="#FFF" cx="143.499" cy="136.72" rx="19.996" ry="21.812"/><path fill="#6C6F71" d="M106.878 162.307s12.604-2.084 31.667 0c0 0 5.312 11.98-2.19 7.604 0 0-17.812-3.43-27.498-.31 0 0-6.46 2.09-1.98-7.29z"/><path fill="#6C6F71" d="M108.008 170.872s-6.198.914-4.218-5.336c0 0-3.635 7.806 4.218 5.336zm28.392 0s5.782 4.662 4.992-3.982c0 0 1.998 9.944-4.99 3.982zm-31.104-8.254l1.41-1.874 2.558-.52h-2.87m30.416 0l2.22.416.596 1.978v-2.395"/><path fill="#BE1E2D" d="M107.28 162.618s14.118-1.145 30.938 0c0 0 4.546 11.043-1.817 6.563 0 0-14.58-3.54-29.12-.2 0 0-1.93.11-1.3-2.08l1.31-4.27z"/><path fill="#F69C95" d="M107.28 162.618l.728 1.25h29.65l.56-1.25s-10.76-1.78-30.94 0z"/><path fill="#FFF" d="M135.062 163.4s-.972-1.482-2.56.04c0 0-1.43-1.886-3.425-.13 0 0-1.176-1.945-3.12-.095 0 0-1.636-1.842-3.068-.073-1.43-1.77-3.07.073-3.07.073-1.95-1.85-3.12.096-3.12.096-2-1.75-3.43.13-3.43.13-1.59-1.52-2.56-.04-2.56-.04-2.41-1.09-2.71.47-2.71.47v.99h29.76v-.99s-.31-1.56-2.71-.47z"/><path fill="#F69C95" d="M109.98 168.428c.276-.05.56-.095.845-.138-.07-.078-.107-.135-.107-.135-.274.125-.516.21-.738.273zm-1.904-.552c-.068-.19-.38.056-.38.056l-.68 1.027 2.248-.4.15-.03c-.866.07-1.212-.39-1.338-.66zm24.09.574c.327.04.64.08.934.12-.188-.106-.386-.254-.597-.454 0 0-.12.155-.336.334zm6.466 1.8l-1.064-2.154c-.29.37-.965.762-2.506.06 0 0-.286.43-.797.588 1.11.18 1.81.347 1.945.465 1.11.96 2.422 1.04 2.422 1.04z"/><path fill="#FFF" d="M134.265 168.743c-.35-.056-.738-.114-1.165-.174.464.26.855.27 1.165.17zm3.22-.81l.08.163c.16-.208.205-.41.205-.41v-.988h-29.762v.988s.017.082.067.19c2.656-.378 18.687-2.484 29.41.056zm-27.505.495c-.19.034-.38.068-.566.104.17-.014.356-.047.566-.104z"/><path fill="#FFF" d="M135.062 168.155c1.54.702 2.217.312 2.506-.06l-.08-.164c-10.726-2.54-26.756-.43-29.412-.05.126.27.473.73 1.34.66.186-.03.374-.07.565-.1.23-.06.47-.14.74-.27 0 0 .04.06.11.14 6.89-1.04 16.12-.48 21.34.16.22-.18.34-.33.34-.33.21.2.41.35.6.46.43.06.82.12 1.17.18.51-.15.8-.58.8-.58z"/><path fill="#F47F38" d="M135.856 134.9s.802-2.94 3.056 0c2.253 2.942-2.292.767-2.292.767l-.764-.766z"/><path fill="#D0D2D3" d="M122.112 138.712s-21.978-9.448-53.917-8.974v18.342h111.762l1.372-18.374c-31.94-.475-59.22 9.006-59.22 9.006z"/><path fill="#BBBDBF" d="M65.35 131.794s27.67-.08 56.762 6.918c0 0 46.803-7.867 58.03-6.918l-3.32 17.076-86.49 13.44-22.137-16.13-1.896-1.422-.95-12.964z"/><path fill="#A6A8AB" d="M64.558 132.742s38.106 2.846 57.396 7.037c0 0 47.066-7.67 58.002-7.04l-11.834 32.25-73.84 8.34-29.724-25.26v-15.34z"/><path fill="#929497" d="M122.258 140.73l-57.7-7.145 6.64 36.79 53.326 24.35 50.716-11.068 4.5-49.807s-51.328 3.864-57.482 6.88z"/><path fill="#808184" d="M116.104 143.74s5.694-6.096 11.86 1.02c6.166 7.115-5.93 8.854-5.93 8.854l-5.93-9.873z"/><path fill="#96131F" d="M129.622 140.73v-.477l56.45-6.878v.475l-16.367 10.198"/><path fill="#74020D" d="M129.622 140.253s-7.588 9.566-14.94 0v.476l5.375 11.38 8.232-5.93 4.26-2.93-2.93-3.01z"/><path fill="#96131F" d="M114.68 140.253l-51.703-6.878v.475l9.25 12.332 35.655-.394 8.222-.16"/><path fill="#BE1E2D" d="M129.622 140.73l56.45-6.88-4.745 68.544-54.075 10.435s-2.373-51-2.134-52.89c.237-1.9 4.504-19.21 4.504-19.21zm-14.942 0l-51.703-6.88 1.423 67.357 50.28 9.962 5.93-45.07"/><path fill="#96131F" d="M114.68 140.73v70.44c1.056.954 2.058 1.67 3.005 2.205V143.55c-1.888-1.23-3.004-2.82-3.004-2.82zm4.744 3.712v69.74c4.853 1.755 7.828-1.354 7.828-1.354l2.37-72.1c-3.956 4.52-7.534 4.732-10.198 3.714z"/><path fill="#74020D" d="M117.685 143.55v69.825c.604.34 1.184.607 1.74.808v-69.74c-.633-.244-1.217-.554-1.74-.894z"/><path fill="#96131F" d="M132.55 149.74s4.662.067 5.147-6.167l42.444-5.163s-.7 3.978 1.19 5.163l-3.08 50.677s-4.03 1.027-3.08 5.77l-39.41 6.878s.13-4.49-4.7-6.403l1.51-50.754zm-21.102-.795s-4.406-.055-4.69-6.298l-40.006-5.66s.643 3.38-1.18 4.515l1.504 50.738s3.777 1.132 2.75 5.85l37.012 7.908s.006-4.49 4.616-6.277l-.006-50.77z"/><path fill="#FCC47E" d="M135.856 134.9s3.57-9.114 8.155 24.485l1.51-3.717 2.29 3.717s-2.13-21.184-7.35-26.68l-4.11.67s-.89 1.234-.48 1.526z"/><path fill="#FFF" d="M75.45 173.602c-.817 2.13-5.288-.263-11.416.04-5.872.29-9.27-5.544-8.454-7.673.818-2.14 5.93-2.15 11.416-.04 5.487 2.1 9.272 5.54 8.454 7.67z"/><path fill="#BBBDBF" d="M57.936 163.646s2.996 4.04 8.217 2.338c5.222-1.703-6.247-4.078-6.247-4.078l-1.97 1.74z"/><path fill="#FFF" d="M73.536 165.104c-.82 2.13-5.57.65-11.417.038-7.49-.783-9.28-5.543-8.46-7.673.82-2.13 5.93-2.15 11.41-.04 5.48 2.1 9.27 5.54 8.45 7.67zm102.704 8.498c.816 2.13 5.286-.263 11.413.04 5.872.29 9.272-5.544 8.454-7.673-.818-2.14-5.93-2.15-11.416-.04-5.48 2.1-9.27 5.54-8.45 7.67z"/><path fill="#BBBDBF" d="M193.753 163.646s-2.997 4.04-8.218 2.338c-5.222-1.703 6.247-4.078 6.247-4.078l1.97 1.74z"/><path fill="#FFF" d="M178.153 165.104c.817 2.13 5.57.65 11.416.038 7.48-.783 9.27-5.543 8.45-7.673-.82-2.13-5.93-2.15-11.42-.04-5.49 2.1-9.27 5.54-8.45 7.67z"/><path d="M89.075 58.756c4.183 2.29 5.68 4.245 5.317 7.082-.475 3.71-4.29 5.595-9.2 4.766-2.65-.447-5.12-1.69-6.545-2.908.433-1.708.648-2.563 1.078-4.27.834.167 1.252.25 2.088.408 0 1.485.003 2.228.013 3.714 1.01.765 2.014 1.233 3.522 1.49 3.297.557 5.68-.547 6.025-2.974.275-1.93-.917-2.94-3.66-4.44-.497-.27-.743-.41-1.238-.686-3.257-1.862-5.212-4.13-4.59-7.243.717-3.575 4.198-5.196 8.293-4.535 2.158.35 3.777 1.244 5.025 2.425-.295 1.623-.44 2.433-.74 4.055-.812-.11-1.22-.165-2.032-.283-.06-1.458-.1-2.188-.16-3.646-.77-.52-1.54-.83-2.5-.99-2.46-.4-4.57.45-5.01 2.83-.37 1.98.78 3.26 3.07 4.53.51.28.76.41 1.26.69zm17.02 12.5c-.955.973-2.502 1.49-4.316 1.328-2.49-.223-3.93-1.526-3.67-3.963.08-.78.19-1.43.32-2.65l.78-7.22c-1.11-.12-1.66-.18-2.76-.32l.17-1.37c1.19.01 1.79.01 2.98 0 .51-1.66.76-2.5 1.26-4.16l1.97.2c-.23 1.72-.34 2.58-.57 4.31 1.77.17 2.65.24 4.43.37l-.12 1.67c-1.82-.13-2.73-.2-4.54-.37l-.9 9.52c-.16 1.63.52 2.39 1.72 2.49.74.07 1.5-.16 2.43-.69l.78.91zm20.268.664c.012.45.02.678.03 1.13-1.978.177-2.97.255-4.952.386-.16-1.12-.23-1.68-.39-2.8-1.9 2.077-4.14 2.932-6.31 2.87-2.89-.084-4.6-1.692-4.35-5.834l.5-7.904c-.94-.236-1.4-.356-2.34-.603l.07-1.1c1.96-.055 2.94-.093 4.89-.197l.32.325c-.13 1.757-.19 2.635-.32 4.392l-.18 4.868c-.1 2.795.78 3.81 2.69 3.853 1.63.037 3.34-.636 4.95-1.988l.1-9.302c-.95-.188-1.42-.284-2.37-.483l.01-1.1c1.93-.155 2.89-.244 4.81-.445l.34.308-.03 4.4.13 8.802c.98.174 1.47.257 2.46.42zm19.957-1.457c.054.45.08.675.135 1.124-2.197.39-3.3.572-5.508.906-.18-.83-.265-1.244-.44-2.073-1.064 1.55-2.536 2.502-4.78 2.658-4.35.302-7.39-2.824-7.55-7.41-.17-4.805 2.686-8.188 6.745-8.476 1.584-.112 3.004.305 4.51 1.68-.25-2.666-.37-4-.62-6.666-1.104-.023-1.66-.04-2.764-.078-.034-.44-.048-.658-.082-1.097 1.964-.72 2.936-1.09 4.866-1.86l.47.21c.14 1.78.208 2.67.346 4.45l1.77 16.57c1.157.04 1.74.06 2.902.08zm-6.863-10.204c-1.62-1.09-2.81-1.4-3.91-1.32-2.463.18-4.497 2.26-4.283 6.5.21 4.14 2.395 5.99 5.187 5.78 1.52-.12 2.65-.75 3.83-2.12l-.82-8.86zm22.05-4.88c-.704.3-1.06.45-1.767.74-.965 5.52-1.513 8.28-2.743 13.8-1.314 5.87-3.123 8.54-6.13 8.95-1.834.25-3.654-.58-3.63-1.66.017-.79 1.145-1.47 2.228-1.61.94-.13 1.697.09 2.917.83l.125.07c1.398-1.35 2.11-3.15 2.67-5.31-3.454-5.17-5.102-7.79-8.228-13.09-.79-.01-1.18-.02-1.96-.04-.07-.52-.1-.77-.16-1.28 3.18-.39 4.76-.61 7.93-1.13.08.52.12.78.21 1.3-1.13.31-1.7.46-2.83.75 2.25 3.9 3.42 5.83 5.84 9.67.88-4.38 1.28-6.58 2-10.96-1.17.06-1.75.09-2.91.14l-.22-1.27c2.55-.44 3.83-.69 6.38-1.21l.26 1.26zM89.523 75.86c-.496 2.873-.925 5.824-1.354 8.775-.1.665-.15 1-.24 1.663-.43 2.92-.85 5.838-1.19 8.77 1.73.403 2.59.594 4.33.965l-.18 1.392c-5.26-.66-7.88-1.066-13.1-2.018l.25-1.385c1.77.17 2.66.25 4.43.384.55-2.83 1.02-5.773 1.5-8.717.11-.67.16-1 .27-1.66.47-2.91.95-5.86 1.35-8.78-2.41-.4-3.62-.61-6.02-1.07-.68 1.66-1.02 2.48-1.71 4.14-.93-.19-1.39-.28-2.32-.47.62-2.38.94-3.57 1.55-5.95 8.55 1.76 12.86 2.42 21.5 3.31l-.35 6.13-2.3-.25c-.18-1.79-.26-2.68-.42-4.47-2.42-.29-3.63-.45-6.05-.8zm19.247 21.91l-.062 1.232c-4.043-.205-6.063-.348-10.1-.724l.115-1.23c1.315-.07 1.972-.11 3.284-.198.18-1.706.4-3.957.52-5.46l.134-1.71c.15-1.88.19-2.943.22-4.316-1.29-.227-1.93-.343-3.22-.588l.11-1.195c2.6-.59 3.88-.91 6.43-1.58.24.16.35.23.59.38l-.41 4.65-.29 4.62c-.09 1.51-.2 3.77-.26 5.48 1.19.27 1.78.4 2.96.65zm-6.044-21.947c.11-1.298 1.313-2.09 2.796-1.984 1.483.1 2.563 1.06 2.485 2.36s-1.287 2.15-2.8 2.05c-1.514-.11-2.59-1.13-2.48-2.43zm45.254 20.71l.14 1.227c-4.028.46-6.044.646-10.084.936-.035-.493-.055-.74-.09-1.23 1.27-.284 1.9-.43 3.164-.73-.1-1.678-.247-3.9-.382-5.472l-.263-3.075c-.27-3.15-1.413-4-3.746-3.84-1.77.12-4.94 1.32-5.43 2.54-.1.25.13 1.06.16 1.67l.15 3.28c.07 1.57.21 3.76.34 5.47 1.22.13 1.83.2 3.05.32l.07 1.23c-4.05.24-6.07.31-10.12.38l-.02-1.23c1.28-.22 1.92-.33 3.19-.56-.01-1.68-.04-3.91-.09-5.49l-.1-3.02c-.1-3.12-1.11-4.14-3.49-4.11-1.89.03-3.43.72-5.52 2.18l-.05 5.03c-.01 1.51.01 3.77.04 5.49 1.21.2 1.82.3 3.03.48v1.23c-4.05.02-6.07-.02-10.11-.17.02-.49.02-.74.04-1.23 1.29-.15 1.93-.22 3.22-.38.08-1.72.18-3.94.21-5.48l.04-1.75c.04-1.89.02-2.92-.02-4.29-1.3-.16-1.95-.24-3.24-.42.02-.48.02-.72.04-1.2 2.3-.75 3.45-1.14 5.71-1.95l.6.35.3 2.78c1.99-1.83 4.61-3.11 7.17-3.17s4.91 3.05 4.92 3.06c.41.08 4.6-3.47 7.23-3.67 3.28-.25 5.35 1.28 5.78 5.51l.37 3.61c.16 1.57.42 3.75.64 5.45 1.23.07 1.84.1 3.07.15zm5.07-7.763c.67 4.166 3.76 6.175 7.874 5.474 2.743-.467 4.232-1.768 5.47-3.513.456.18.686.27 1.144.44-.996 2.72-3.562 4.8-7.5 5.45-5.843.97-10.07-1.84-10.714-7.04-.64-5.17 3.11-9.27 8.17-10.12 4.218-.7 7.98 1.04 8.8 5.11.154.77.16 1.44.09 1.94-5.313 1.06-7.982 1.52-13.333 2.27zm7.427-2.66c1.986-.346 2.34-1.22 2.157-2.2-.357-1.92-2.573-3.282-5.04-2.874-2.306.38-4.763 2.26-4.666 6.263 3.024-.43 4.536-.67 7.55-1.19z" fill="#8A5D3B"/><path fill="#EAB46C" d="M62.725 36l9.525 1.5-4.735 69.065H61m107.72-69.67l4.566 70.348 9.603-1.13-3.48-71.613"/></svg>