<svg xmlns="http://www.w3.org/2000/svg" width="250" height="250" viewBox="0 0 250 250"><path opacity=".15" d="M200.62 137.006c.752-3.302 1.134-6.643 1.134-9.964 0-7.36-1.78-14.507-5.296-21.283 4.564-5.53 6.6-10.68 6.053-15.34-.51-4.42-3.19-6.83-4.13-7.55-2.35-1.99-5.3-3-8.77-3-3.52 0-7.14 1.08-10.2 2.37l3.79-2.9c.16.07.31.14.48.21 1.11-1.94 1.67-2.91 2.79-4.84-.31-.09-.62-.17-.93-.26-.3-.09-.59-.19-.86-.29-1.83-.68-3.22-1.4-4.16-2.21l10.26-11.23-.27.04c.16-.22.29-.45.38-.69 1.43-3.86-.74-8.11-6.95-12.22-3.77-2.5-8.51-4.66-14.06-6.31-.39-.19-.79-.38-1.21-.57l-11.59 14.58c.1-1.21.19-2.23.31-3.78-.03 0-.07-.01-.1-.01l6.48-5.76-.07-.37h.04c.29-2.59.43-3.89.71-6.48-9.73-1.04-14.59-1.26-24.23-1.13.03 2.36.02 4.72.03 7.09-.34-3.01-3.13-5.44-8.54-7.01-3.74-1.09-8.41-1.65-13.89-1.5-.88.02-1.74.06-2.57.11-.77.05-1.53.13-2.29.22l-.12-.32V37l-.07.007c.03.2.05.405.07.608v4.955l-2.43-7.104-.11.27-.09-.416c-2.99.656-4.48 1.01-7.44 1.774.73 2.145 1.32 4.274 1.76 6.382.45 2.104.77 4.222.96 6.345.38 4.09.08 7.12-.87 9.17L89.2 39.8c-.087.095-.163.195-.244.29-3.156.765-4.806 1.2-7.99 2.11.664 2.5 1.446 4.875 2.326 7.143l-7.757-8.33-.245.21-.02-.11c-5.914 1.785-10.73 4.038-14.42 6.46-6.04 3.968-8.262 7.857-6.976 11.26.21.56.48 1.088.8 1.58l-.02.01.1.1c.304.447.648.867 1.043 1.25.35.34.74.628 1.154.88l9.02 8.755c-1.06.43-1.83.74-2.29.9-.49.172-1.12.37-1.89.6 1.08 2.175 1.62 3.264 2.68 5.445l.22-.09 3.43 2.38c-1.82-.47-3.69-.768-5.54-.768-3.46 0-6.41 1.007-8.77 2.997-.94.72-3.6 3.122-4.13 7.513-.55 4.585 1.41 9.65 5.82 15.086-3.61 6.86-5.44 14.1-5.44 21.56 0 3.33.38 6.68 1.14 9.99-7.43 5.66-10.65 10.78-9.84 15.61.7 4.17 4.23 7.18 10.55 8.97.17.05 4.13 1.08 8.57 1.08 1.86 0 3.56-.18 5.1-.53.87.87 1.77 1.71 2.69 2.53l-11.28 9.92c-.07-.02-.14-.03-.22-.05-2.97 9.86-5.77 19.77-8.39 29.73 2.54.75 3.82 1.1 6.37 1.76l.08-.37 6.73-5.59c1.67 2.72 3.34 5.22 5.79 8.74 2.87-.77 4.4-1.22 6.99-2.04l.17.04c-.75 1.51-1.49 3.03-2.25 4.53 3.21.93 4.81 1.36 8.05 2.16.07-.2.14-.39.21-.57l4.22-4.41c2.14.05 3.83.05 6.47.01.58 2.58.88 3.87 1.52 6.44 3.3.14 4.95.18 8.24.19-.1-.27-.19-.54-.28-.81l.8.81 2.09-4.34c.08 2.02.15 4.04.24 6.06 3.9.4 5.85.55 9.76.77.6-2.52 1.09-4.6 1.53-6.55l2.69-8.11c.4 5.48.7 9.15 1.27 15.47 4.31.17 6.46.2 10.77.14 1.04-5.06 1.99-10.14 2.85-15.24l3.73 13.66c-.02.13-.03.27-.05.4h.16l.03.11.06-.12c3.14-.11 4.81-.2 8.02-.44.08-2.15.11-3.22.17-5.37 2.29-.67 3.82-1.14 5.56-1.72l5.72 4.26-1.74-3.77c.83 1.38 1.48 2.44 2.53 4.12 3.19-.9 4.77-1.37 7.9-2.4-.26-.33-.51-.66-.77-1l1.52.85.15.92c2.98-.36 4.46-.57 7.44-1.05-.45-2.42-.93-4.82-1.39-7.24l5.95 4.9.19-1.64c.15.63.3 1.27.44 1.9 2.96-.55 4.44-.87 7.38-1.54-.78-3.05-1.58-6.1-2.37-9.14l8.42 5.74.47-.59c.09.31.19.62.29.97 2.72-.7 4.08-1.08 6.8-1.89-.76-2.25-1.17-3.45-1.89-5.58l.25-.31-3.07-2.91.13-.06c-2.02-8.19-3.1-12.33-5.33-20.33l.38-.22-7.92-7.68c1.55-1.28 3.05-2.61 4.46-4.01 1.55.36 3.26.54 5.13.54 4.44 0 8.4-1.03 8.63-1.1 6.25-1.77 9.78-4.78 10.48-8.95.81-4.83-2.42-9.96-9.86-15.62zm-77.373 74.184l.664-1.48c-.17.78-.35 1.58-.53 2.427-.04-.324-.08-.633-.13-.947z"/><path fill="#F6921E" d="M52.136 57.06l72.287 70.193 63.804-69.864-31.5 5.09-72.58-8.29-10.18-6.24m124.128 85.67c.75-3.31 1.133-6.65 1.133-9.97 0-7.36-1.778-14.51-5.295-21.28 4.564-5.53 6.6-10.68 6.053-15.33-.518-4.42-3.194-6.83-4.138-7.55-2.356-1.99-5.307-3-8.77-3-4.834 0-9.865 2.04-13.37 3.85-13.883-9.39-31.637-14.54-50.325-14.54-18.604 0-36.302 5.11-50.165 14.43-3.743-1.92-8.523-3.74-13.165-3.74-3.465 0-6.416 1.01-8.772 3-.93.72-3.6 3.12-4.12 7.51-.55 4.58 1.41 9.65 5.82 15.08-3.61 6.85-5.44 14.09-5.44 21.56 0 3.33.38 6.67 1.14 9.98-7.43 5.65-10.65 10.77-9.84 15.61.7 4.17 4.23 7.18 10.55 8.97.17.04 4.13 1.07 8.57 1.07 1.86 0 3.56-.18 5.1-.54 14.3 14.28 36.62 22.74 60.34 22.74 23.72 0 46.04-8.46 60.34-22.75 1.55.36 3.26.54 5.13.54h.01c4.44 0 8.4-1.03 8.64-1.1 6.25-1.77 9.78-4.78 10.48-8.95.81-4.84-2.42-9.97-9.86-15.63z"/><path fill="#FFF" d="M193.354 135.334c1.11-3.756 1.715-7.654 1.715-11.66 0-7.796-2.24-15.2-6.24-21.888l.08.015c12.6-13.53 4.32-19.04 4.32-19.04-5.7-4.93-15.77.12-19.81 2.5-12.92-9.44-30.58-15.27-50.06-15.27-19.4 0-36.99 5.78-49.9 15.16-4.17-2.42-14-7.24-19.61-2.38 0 0-8.18 5.46 4.15 18.85-4.06 6.74-6.34 14.2-6.34 22.07 0 4.01.6 7.92 1.72 11.68-7.16 4.99-18.03 14.61-2.97 18.87 0 0 8.46 2.24 13.8-.19 12.92 14.1 34.58 23.34 59.14 23.34 24.55 0 46.22-9.25 59.14-23.35 5.34 2.45 13.82.21 13.82.21 15.08-4.27 4.16-13.9-2.99-18.88z"/><path fill="#FFF" d="M193.354 135.334c1.11-3.756 1.715-7.654 1.715-11.66 0-7.796-2.24-15.2-6.24-21.888l.08.015c12.6-13.53 4.32-19.04 4.32-19.04-5.7-4.93-15.77.12-19.81 2.5-12.92-9.44-30.58-15.27-50.06-15.27-19.4 0-36.99 5.78-49.9 15.16-4.17-2.42-14-7.24-19.61-2.38 0 0-8.18 5.46 4.15 18.85-4.06 6.74-6.34 14.2-6.34 22.07 0 4.01.6 7.92 1.72 11.68-7.16 4.99-18.03 14.61-2.97 18.87 0 0 8.46 2.24 13.8-.19 12.92 14.1 34.58 23.34 59.14 23.34 24.55 0 46.22-9.25 59.14-23.35 5.34 2.45 13.82.21 13.82.21 15.08-4.27 4.16-13.9-2.99-18.88z"/><path fill="#F6921E" d="M124.997 168.39L154.8 204l8.632 4.808V196.46l11.674 9.618 1.528-13.213 12.522 8.535 5.913-7.408-9.2-8.707-5.09-16.894-36.34-15.33m-25.69 5.23L134 214.14l4.16-8.06 6.295-2.08 9.067 6.76-22.81-49.382"/><path fill="#F6921E" d="M104.572 178.554l2.404 30.254 3.477 5.328 5.88-17.79 2.6 15.45 14.035-31.19-25.73-14.035"/><path fill="#F6921E" d="M77.604 209.977L83.33 204h7.865l7.753 7.797 26.05-54.064-40.852 3.623-10.18 27.827"/><path fill="#F6921E" d="M52.136 202.438l8.774-7.276 7.337 7.276 5.72 1.56 12.714-30.41-17.27-7.017-13.4 5.86"/><path fill="#F6921E" d="M54.212 171.46l70.21-61.81 62.76 60.82s-64.61 38.633-132.97.99zM166.107 37.65l-41.11 51.726 42.847-11.35 9.05-6.195-3.12-12.47s23.003-7.54-7.667-21.7zM66.43 71.44l14.13-12.892 16.366 1.81L112 53.248l20.968 3.64-14.555 15.94-47.478 5.2"/><path fill="#F6921E" d="M161.213 42.677l-7.8 6.93 1.042 4.16-6.534 16.98-17.2-5.89 5.43-20.1 7.4-7.106 16.81.7"/><path fill="#F6921E" d="M114.08 36.438s18.54-4.332 24.087 6.41c5.543 10.745 3.216 5.374 3.216 5.374L139.9 60.36l-23.567-3.474-2.252-20.448zm-6.237-4.332l2.427 7.105v-5.89l4.503 12.13 1.56 42.63-11.76-27.71 1.536-23.92"/><path fill="#F6921E" d="M86.68 36.438l38.317 47.84-36.91-28.733s-7.84-12.176-1.406-19.107zM73.014 37.65l51.983 55.82-51.983-37.925s-30.635 4.98-9.685-9.576l9.68-8.32z"/><path fill="#F6921E" d="M61.924 74.733l63.073 43.84 55.797-42.68s-34.702-38.242-118.87-1.16z"/><path d="M72.024 86.875S48.25 74.82 61.05 102.662l10.974-15.787zm103.082 0s23.774-12.055 10.974 15.787l-10.974-15.787z" fill="#919496"/><path fill="#FFF" d="M195.07 123.675c0 29.65-32.1 53.69-71.688 53.69-39.593 0-71.69-24.04-71.69-53.69s32.097-53.69 71.69-53.69c39.59 0 71.687 24.04 71.687 53.69z"/><path fill="#D0D2D3" d="M187.183 123.675c0 26.39-28.564 47.786-63.8 47.786-35.24 0-63.803-21.39-63.803-47.78S88.143 75.9 123.383 75.9c35.235 0 63.8 21.392 63.8 47.782zM58.21 101.8s4.286-.618 3.842-4.642c0 0-11.22-17.316 9.087-7.897 0 0 2.92.88 4.3-2.9 0 0-14.32-9.87-21.56-3.6 0 0-8.27 5.51 4.33 19.04z"/><path fill="#D0D2D3" d="M188.92 101.8s-4.288-.618-3.842-4.642c0 0 11.22-17.316-9.087-7.897 0 0-2.92.88-4.3-2.9 0 0 14.32-9.87 21.56-3.6 0 0 8.27 5.51-4.32 19.04z"/><circle fill="#231F20" cx="152.407" cy="116.229" r="11.024"/><path fill="#FFF" d="M144.46 113.167c0 3.386 2.747 6.134 6.138 6.134 3.388 0 6.13-2.74 6.13-6.13 0-3.38-2.742-6.13-6.13-6.13-3.39 0-6.137 2.75-6.137 6.13z"/><circle fill="#231F20" cx="94.355" cy="116.229" r="11.025"/><path fill="#FFF" d="M86.68 113.167c0 3.386 2.75 6.134 6.138 6.134 3.387 0 6.13-2.74 6.13-6.13 0-3.38-2.744-6.13-6.13-6.13-3.39 0-6.137 2.75-6.137 6.13z"/><path d="M101.83 136.682c0 3.8-4.76 6.882-10.635 6.882-5.874 0-10.634-3.08-10.634-6.882 0-3.804 4.76-6.883 10.64-6.883s10.64 3.07 10.64 6.88zm65.534 0c0 3.8-4.764 6.882-10.637 6.882s-10.636-3.08-10.636-6.882c0-3.804 4.77-6.883 10.64-6.883s10.64 3.07 10.64 6.88z" fill="#EF6EA8"/><path fill="#231F20" d="M112.706 138.55c.035-1.242.38-2.354 1.035-3.337.76-1.104 1.8-1.847 3.12-2.224.18-.06.36-.08.53-.08.4 0 .73.13.98.38s.38.54.37.87c0 .32-.2.61-.57.84l-1.04.56c-.49.29-.87.69-1.13 1.19-.26.49-.39 1.1-.41 1.79-.02.89.29 1.68.95 2.36.7.72 1.56 1.08 2.59 1.09 1.5.01 2.71-.44 3.63-1.35.8-.8 1.3-1.87 1.51-3.2.14-.91.6-1.37 1.38-1.36.59 0 1.03.36 1.31 1.08l.8 2.95c.23.57.56 1 .97 1.29.42.29.93.44 1.53.45.88.02 1.59-.25 2.14-.83.57-.6.88-1.44.91-2.52.02-.56-.13-1.11-.44-1.63l-1.02-1.4c-.2-.28-.3-.5-.29-.66.01-.33.17-.61.48-.84.31-.24.66-.35 1.05-.35.79 0 1.52.63 2.21 1.9.62 1.09.91 2 .9 2.7-.05 1.77-.56 3.16-1.53 4.2-1.05 1.1-2.5 1.65-4.38 1.63-2.33-.02-3.85-.81-4.55-2.37-.06-.15-.13-.31-.19-.49-.52 1.09-1.27 1.9-2.25 2.44s-2.2.8-3.65.79c-1.96-.01-3.6-.59-4.93-1.74-1.33-1.15-1.98-2.55-1.93-4.19z"/><path fill="#FFF" stroke="#D0D2D3" stroke-miterlimit="10" d="M49.346 141.402c9.326-4.664 11.83 7.99 11.83 7.99-.302-15.464 6.41-7.69 6.41-7.69 5.713 18.577-17.143 12.516-17.143 12.516-20.806-5.89 7.89-22.002 7.89-22.002 26.74-16.916 3.945 5.665 3.945 5.665 33.483.92 6.165 7.91 6.165 7.91m128.997-4.38c-9.323-4.66-11.826 7.99-11.826 7.99.302-15.46-6.41-7.69-6.41-7.69-5.716 18.58 17.143 12.52 17.143 12.52 20.805-5.89-7.89-22-7.89-22-26.74-16.91-3.945 5.67-3.945 5.67-33.482.92-6.164 7.91-6.164 7.91"/><path d="M72.45 203.22c-3 .952-4.525 1.4-7.616 2.232-4.165-5.974-6.073-9.02-9.538-15.17-1.263 4.943-1.878 7.42-3.076 12.383-2.553-.66-3.83-1.01-6.374-1.757 2.624-9.955 5.42-19.864 8.395-29.72 2.27.54 3.4.79 5.66 1.25-1.34 5.007-1.99 7.516-3.27 12.545 5.34-3.99 7.89-6.08 12.76-10.412 2.44 1.05 3.67 1.54 6.15 2.49-5.3 5.03-8.11 7.46-14.03 12.07 4.04 5.76 6.23 8.59 10.96 14.1zm25.98 8.576c-3.285-.005-4.932-.04-8.233-.18-.64-2.572-.943-3.862-1.52-6.438-3.61.055-5.423.04-9.066-.076-.72 2.022-1.09 3.033-1.83 5.052-3.23-.798-4.84-1.233-8.04-2.164 4.76-9.375 9.2-18.908 13.33-28.576 2.51.465 3.76.675 6.28 1.046 2.61 10.67 5.59 20.926 9.09 31.336zm-10.525-11.753c-1.038-4.808-1.5-7.212-2.316-12.022-1.62 4.77-2.45 7.15-4.16 11.89 2.59.1 3.89.13 6.47.14zm44.533-15.225c-1.366 10.188-3.086 20.33-5.146 30.4-4.31.058-6.464.033-10.767-.136-.68-7.525-.983-11.29-1.51-18.822-1.47 7.224-2.265 10.83-3.978 18.02-3.91-.212-5.865-.364-9.763-.765-.463-10.45-.705-20.908-.723-31.367 2.77.352 4.15.5 6.93.74.2 9.667.37 14.502.83 24.172 1.91-9.054 2.79-13.592 4.39-22.686 2.12.088 3.18.116 5.31.14.98 9.713 1.56 14.563 2.86 24.256 2.19-9.75 3.14-14.643 4.79-24.445 2.72.25 4.08.35 6.81.493zm29.774 23.882c-3.136 1.024-4.718 1.503-7.9 2.4-1.41-2.247-2.1-3.375-3.45-5.644-3.41 1.177-5.135 1.728-8.618 2.752-.058 2.148-.09 3.222-.164 5.37-3.307.248-4.962.34-8.27.453 1.576-10.39 2.805-20.83 3.71-31.3 2.515-.34 3.765-.53 6.265-.96 5.8 9.34 11.83 18.15 18.427 26.94zm-13.685-7.88c-2.483-4.243-3.674-6.385-5.943-10.7-.048 5.03-.093 7.548-.23 12.584 2.487-.714 3.722-1.09 6.173-1.883zm16.033-22.756c2.085 10.1 4.084 20.215 5.98 30.35-2.974.48-4.457.69-7.43 1.055-1.607-10.16-3.294-20.3-5.063-30.42 2.604-.35 3.91-.54 6.513-.99zm10.638-3.162c2.73 9.944 5.37 19.914 7.91 29.908-2.95.672-4.428.978-7.383 1.535-2.25-10.028-4.573-20.04-6.99-30.03 2.586-.512 3.882-.795 6.463-1.413zm19.485 19.004c.814 2.392 1.22 3.59 2.025 5.983-2.714.8-4.073 1.18-6.796 1.88-.71-2.35-1.064-3.52-1.78-5.87 2.627-.76 3.936-1.16 6.55-2.01zm-7.976-23.54c2.287 8.218 3.37 12.352 5.42 20.652-1.617.78-2.428 1.16-4.062 1.9-2.9-8.047-4.356-12.07-7.27-20.11 2.378-.93 3.562-1.42 5.912-2.443z" fill="#F9EC31"/><path fill="#F6921E" d="M52.136 57.06l72.287 70.193 63.804-69.864-31.5 5.09-72.58-8.29-10.18-6.24m124.128 85.67c.75-3.31 1.133-6.65 1.133-9.97 0-7.36-1.778-14.51-5.295-21.28 4.564-5.53 6.6-10.68 6.053-15.33-.518-4.42-3.194-6.83-4.138-7.55-2.356-1.99-5.307-3-8.77-3-4.834 0-9.865 2.04-13.37 3.85-13.883-9.39-31.637-14.54-50.325-14.54-18.604 0-36.302 5.11-50.165 14.43-3.743-1.92-8.523-3.74-13.165-3.74-3.465 0-6.416 1.01-8.772 3-.93.72-3.6 3.12-4.12 7.51-.55 4.58 1.41 9.65 5.82 15.08-3.61 6.85-5.44 14.09-5.44 21.56 0 3.33.38 6.67 1.14 9.98-7.43 5.65-10.65 10.77-9.84 15.61.7 4.17 4.23 7.18 10.55 8.97.17.04 4.13 1.07 8.57 1.07 1.86 0 3.56-.18 5.1-.54 14.3 14.28 36.62 22.74 60.34 22.74 23.72 0 46.04-8.46 60.34-22.75 1.55.36 3.26.54 5.13.54h.01c4.44 0 8.4-1.03 8.64-1.1 6.25-1.77 9.78-4.78 10.48-8.95.81-4.84-2.42-9.97-9.86-15.63z"/><path fill="#FFF" d="M193.354 135.334c1.11-3.756 1.715-7.654 1.715-11.66 0-7.796-2.24-15.2-6.24-21.888l.08.015c12.6-13.53 4.32-19.04 4.32-19.04-5.7-4.93-15.77.12-19.81 2.5-12.92-9.44-30.58-15.27-50.06-15.27-19.4 0-36.99 5.78-49.9 15.16-4.17-2.42-14-7.24-19.61-2.38 0 0-8.18 5.46 4.15 18.85-4.06 6.74-6.34 14.2-6.34 22.07 0 4.01.6 7.92 1.72 11.68-7.16 4.99-18.03 14.61-2.97 18.87 0 0 8.46 2.24 13.8-.19 12.92 14.1 34.58 23.34 59.14 23.34 24.55 0 46.22-9.25 59.14-23.35 5.34 2.45 13.82.21 13.82.21 15.08-4.27 4.16-13.9-2.99-18.88z"/><path fill="#FFF" d="M193.354 135.334c1.11-3.756 1.715-7.654 1.715-11.66 0-7.796-2.24-15.2-6.24-21.888l.08.015c12.6-13.53 4.32-19.04 4.32-19.04-5.7-4.93-15.77.12-19.81 2.5-12.92-9.44-30.58-15.27-50.06-15.27-19.4 0-36.99 5.78-49.9 15.16-4.17-2.42-14-7.24-19.61-2.38 0 0-8.18 5.46 4.15 18.85-4.06 6.74-6.34 14.2-6.34 22.07 0 4.01.6 7.92 1.72 11.68-7.16 4.99-18.03 14.61-2.97 18.87 0 0 8.46 2.24 13.8-.19 12.92 14.1 34.58 23.34 59.14 23.34 24.55 0 46.22-9.25 59.14-23.35 5.34 2.45 13.82.21 13.82.21 15.08-4.27 4.16-13.9-2.99-18.88z"/><path fill="#F6921E" d="M124.997 168.39L154.8 204l8.632 4.808V196.46l11.674 9.618 1.528-13.213 12.522 8.535 5.913-7.408-9.2-8.707-5.09-16.894-36.34-15.33m-25.69 5.23L134 214.14l4.16-8.06 6.295-2.08 9.067 6.76-22.81-49.382"/><path fill="#F6921E" d="M104.572 178.554l2.404 30.254 3.477 5.328 5.88-17.79 2.6 15.45 14.035-31.19-25.73-14.035"/><path fill="#F6921E" d="M77.604 209.977L83.33 204h7.865l7.753 7.797 26.05-54.064-40.852 3.623-10.18 27.827"/><path fill="#F6921E" d="M52.136 202.438l8.774-7.276 7.337 7.276 5.72 1.56 12.714-30.41-17.27-7.017-13.4 5.86"/><path fill="#F6921E" d="M54.212 171.46l70.21-61.81 62.76 60.82s-64.61 38.633-132.97.99zM166.107 37.65l-41.11 51.726 42.847-11.35 9.05-6.195-3.12-12.47s23.003-7.54-7.667-21.7zM66.43 71.44l14.13-12.892 16.366 1.81L112 53.248l20.968 3.64-14.555 15.94-47.478 5.2"/><path fill="#F6921E" d="M161.213 42.677l-7.8 6.93 1.042 4.16-6.534 16.98-17.2-5.89 5.43-20.1 7.4-7.106 16.81.7"/><path fill="#F6921E" d="M114.08 36.438s18.54-4.332 24.087 6.41c5.543 10.745 3.216 5.374 3.216 5.374L139.9 60.36l-23.567-3.474-2.252-20.448zm-6.237-4.332l2.427 7.105v-5.89l4.503 12.13 1.56 42.63-11.76-27.71 1.536-23.92"/><path fill="#F6921E" d="M86.68 36.438l38.317 47.84-36.91-28.733s-7.84-12.176-1.406-19.107zM73.014 37.65l51.983 55.82-51.983-37.925s-30.635 4.98-9.685-9.576l9.68-8.32z"/><path fill="#F6921E" d="M61.924 74.733l63.073 43.84 55.797-42.68s-34.702-38.242-118.87-1.16z"/><path d="M72.024 86.875S48.25 74.82 61.05 102.662l10.974-15.787zm103.082 0s23.774-12.055 10.974 15.787l-10.974-15.787z" fill="#919496"/><path fill="#FFF" d="M195.07 123.675c0 29.65-32.1 53.69-71.688 53.69-39.593 0-71.69-24.04-71.69-53.69s32.097-53.69 71.69-53.69c39.59 0 71.687 24.04 71.687 53.69z"/><path fill="#D0D2D3" d="M187.183 123.675c0 26.39-28.564 47.786-63.8 47.786-35.24 0-63.803-21.39-63.803-47.78S88.143 75.9 123.383 75.9c35.235 0 63.8 21.392 63.8 47.782zM58.21 101.8s4.286-.618 3.842-4.642c0 0-11.22-17.316 9.087-7.897 0 0 2.92.88 4.3-2.9 0 0-14.32-9.87-21.56-3.6 0 0-8.27 5.51 4.33 19.04z"/><path fill="#D0D2D3" d="M188.92 101.8s-4.288-.618-3.842-4.642c0 0 11.22-17.316-9.087-7.897 0 0-2.92.88-4.3-2.9 0 0 14.32-9.87 21.56-3.6 0 0 8.27 5.51-4.32 19.04z"/><circle fill="#231F20" cx="152.407" cy="116.229" r="11.024"/><path fill="#FFF" d="M144.46 113.167c0 3.386 2.747 6.134 6.138 6.134 3.388 0 6.13-2.74 6.13-6.13 0-3.38-2.742-6.13-6.13-6.13-3.39 0-6.137 2.75-6.137 6.13z"/><circle fill="#231F20" cx="94.355" cy="116.229" r="11.025"/><path fill="#FFF" d="M86.68 113.167c0 3.386 2.75 6.134 6.138 6.134 3.387 0 6.13-2.74 6.13-6.13 0-3.38-2.744-6.13-6.13-6.13-3.39 0-6.137 2.75-6.137 6.13z"/><path d="M101.83 136.682c0 3.8-4.76 6.882-10.635 6.882-5.874 0-10.634-3.08-10.634-6.882 0-3.804 4.76-6.883 10.64-6.883s10.64 3.07 10.64 6.88zm65.534 0c0 3.8-4.764 6.882-10.637 6.882s-10.636-3.08-10.636-6.882c0-3.804 4.77-6.883 10.64-6.883s10.64 3.07 10.64 6.88z" fill="#EF6EA8"/><path fill="#231F20" d="M112.706 138.55c.035-1.242.38-2.354 1.035-3.337.76-1.104 1.8-1.847 3.12-2.224.18-.06.36-.08.53-.08.4 0 .73.13.98.38s.38.54.37.87c0 .32-.2.61-.57.84l-1.04.56c-.49.29-.87.69-1.13 1.19-.26.49-.39 1.1-.41 1.79-.02.89.29 1.68.95 2.36.7.72 1.56 1.08 2.59 1.09 1.5.01 2.71-.44 3.63-1.35.8-.8 1.3-1.87 1.51-3.2.14-.91.6-1.37 1.38-1.36.59 0 1.03.36 1.31 1.08l.8 2.95c.23.57.56 1 .97 1.29.42.29.93.44 1.53.45.88.02 1.59-.25 2.14-.83.57-.6.88-1.44.91-2.52.02-.56-.13-1.11-.44-1.63l-1.02-1.4c-.2-.28-.3-.5-.29-.66.01-.33.17-.61.48-.84.31-.24.66-.35 1.05-.35.79 0 1.52.63 2.21 1.9.62 1.09.91 2 .9 2.7-.05 1.77-.56 3.16-1.53 4.2-1.05 1.1-2.5 1.65-4.38 1.63-2.33-.02-3.85-.81-4.55-2.37-.06-.15-.13-.31-.19-.49-.52 1.09-1.27 1.9-2.25 2.44s-2.2.8-3.65.79c-1.96-.01-3.6-.59-4.93-1.74-1.33-1.15-1.98-2.55-1.93-4.19z"/><path fill="#FFF" stroke="#D0D2D3" stroke-miterlimit="10" d="M49.346 141.402c9.326-4.664 11.83 7.99 11.83 7.99-.302-15.464 6.41-7.69 6.41-7.69 5.713 18.577-17.143 12.516-17.143 12.516-20.806-5.89 7.89-22.002 7.89-22.002 26.74-16.916 3.945 5.665 3.945 5.665 33.483.92 6.165 7.91 6.165 7.91m128.997-4.38c-9.323-4.66-11.826 7.99-11.826 7.99.302-15.46-6.41-7.69-6.41-7.69-5.716 18.58 17.143 12.52 17.143 12.52 20.805-5.89-7.89-22-7.89-22-26.74-16.91-3.945 5.67-3.945 5.67-33.482.92-6.164 7.91-6.164 7.91"/><path d="M81.36 57.882c.77 3.573-1.84 6.92-7.422 10.39-3.64 2.264-7.768 4.238-12.406 6.06-1.062-2.182-1.597-3.274-2.676-5.45.767-.228 1.396-.424 1.89-.597.83-.29 2.612-1.038 5.385-2.15 2.38-.954 4.15-1.78 5.27-2.47 2.24-1.375 3.24-2.818 2.83-4.425-.14-.545-.48-1.023-1.02-1.435-.82-.638-2.67-.67-5.49.025-4.09 1.005-6.69 1.678-7.79 1.804-3 .344-5.38-.27-7.04-1.886-.86-.836-1.5-1.827-1.92-2.938-1.28-3.405.94-7.295 6.98-11.263 3.69-2.424 8.51-4.675 14.43-6.46.52 2.752.78 4.126 1.31 6.876-3.46.863-6.63 1.914-9.41 3.142-4.72 2.09-6.79 4.084-6.29 5.57.19.564.62 1.055 1.25 1.486 1.03.71 3.04.69 6-.02 4.81-1.15 7.52-1.62 8.07-1.65 3.09-.18 5.36.61 6.69 2.34.7.92 1.17 1.95 1.41 3.06zm27.545-15.49c.618 10.69-1.485 17.516-5.94 20.605-1.42.986-2.98 1.575-4.67 1.788-4.667.59-8.845-2.57-13.074-9.554-3-4.95-5.46-10.61-7.18-17.05 3.26-.93 4.9-1.36 8.19-2.15.12 1.05.28 2.14.47 3.28.76 4.52 1.86 8.39 3.22 11.6 2.21 5.18 4.67 7.57 7.56 7.2 4.07-.51 5.76-4.54 5.05-12.29-.19-2.12-.51-4.24-.96-6.34-.45-2.1-1.03-4.23-1.76-6.38 2.96-.76 4.44-1.12 7.44-1.77.47 1.78.83 3.58 1.1 5.42.27 1.84.46 3.73.57 5.68zm28.39-.09c-.256 2.946-2.945 5.3-7.793 7.37-3.064 1.307-6.76 2.434-11.075 3.48.35 4.1.513 6.15.827 10.25-2.48-.03-3.72-.025-6.2.03-.99-10.157-2.08-20.307-3.26-30.445.82-.103 1.645-.183 2.478-.238.835-.06 1.69-.1 2.572-.12 5.484-.15 10.14.41 13.89 1.5 6.09 1.76 8.87 4.62 8.562 8.17zm-7.806-.43c.13-2.905-3.06-4.593-9.58-4.58-.7 0-1.39.023-2.07.07-.68.045-1.36.117-2.04.207.35 3.75.52 5.62.84 9.37 8.38-.71 12.7-2.12 12.84-5.07zm27.93 23.848c-8.15-.84-12.22-1.015-20.27-.9.17-10.26.2-20.518.08-30.776 8.09-.102 16.18.28 24.22 1.132-.28 2.592-.42 3.89-.71 6.48-6.45-.677-9.67-.88-16.07-1.03 0 2.635 0 3.95-.01 6.585 3.88.13 5.83.25 9.74.58-.19 2.25-.28 3.37-.47 5.61-4.48-.42-6.72-.56-11.19-.7-.08 2.46-.12 3.69-.21 6.15 6.26.09 9.41.27 15.72.91-.34 2.4-.51 3.59-.86 5.98zm26.09 4.99c-1.13 1.93-1.69 2.896-2.79 4.834-5.96-2.588-9.66-4.892-10.97-7.384-.7-1.318-.68-5.706-1.24-6.26-.22-.216-1.95-.116-3.02-.233-.87 2.85-1.31 4.277-2.17 7.13-2.37-.65-3.57-.956-5.96-1.522 2.69-10.045 5.47-20.07 8.32-30.07 6.08 1.688 11.22 3.978 15.27 6.66 6.2 4.106 8.38 8.367 6.94 12.222-1.38 3.712-11.02 4.422-12.36 5.762-.56.56.34 4.25 1.37 5.48.89 1.06 2.49 1.99 4.79 2.83.27.1.56.19.87.28.3.09.61.18.92.26zm-4.15-17.84c.64-2.016-.28-3.998-2.85-5.794-1.74-1.22-4.01-2.27-6.73-3.105-1.41 4.65-2.11 6.98-3.49 11.63 2.74.49 5.14.67 7.24.51 3.23-.24 5.2-1.27 5.83-3.23zM72.45 203.22c-3 .95-4.523 1.4-7.616 2.23-4.166-5.972-6.074-9.017-9.538-15.168-1.263 4.944-1.876 7.422-3.075 12.384-2.55-.66-3.83-1.013-6.37-1.76 2.63-9.953 5.43-19.862 8.4-29.72 2.26.544 3.4.794 5.66 1.254-1.34 5.006-2 7.513-3.27 12.543 5.34-3.992 7.89-6.08 12.76-10.41 2.44 1.04 3.67 1.537 6.15 2.485-5.31 5.03-8.11 7.455-14.03 12.07 4.04 5.758 6.23 8.585 10.96 14.092zm25.983 8.578c-3.284-.005-4.934-.04-8.234-.18-.64-2.573-.95-3.862-1.52-6.44-3.61.057-5.43.042-9.07-.073-.73 2.022-1.1 3.03-1.84 5.05-3.24-.8-4.85-1.23-8.05-2.162 4.75-9.378 9.2-18.91 13.33-28.58 2.5.465 3.76.676 6.27 1.048 2.33 10.64 5.38 21.11 9.09 31.34zm-10.525-11.753c-1.037-4.807-1.5-7.213-2.316-12.022-1.616 4.767-2.448 7.144-4.153 11.885 2.59.1 3.89.127 6.46.137zm44.532-15.225c-1.37 10.188-3.08 20.328-5.146 30.398-4.31.06-6.463.03-10.767-.14-.68-7.524-.982-11.29-1.51-18.82-1.47 7.225-2.264 10.827-3.977 18.02-3.91-.212-5.863-.365-9.762-.766-.466-10.447-.702-20.903-.725-31.36 2.765.352 4.15.495 6.925.735.17 8.06.442 16.12.83 24.174 1.907-9.05 2.78-13.59 4.38-22.68 2.122.09 3.184.12 5.307.14.815 8.1 1.77 16.19 2.853 24.26 1.815-8.1 3.41-16.25 4.78-24.44 2.716.25 4.078.35 6.812.5zm29.773 23.882c-3.134 1.023-4.717 1.503-7.9 2.4-1.41-2.246-2.1-3.375-3.45-5.644-3.41 1.177-5.135 1.727-8.617 2.75-.06 2.15-.09 3.223-.163 5.372-3.307.248-4.964.34-8.27.453 1.573-10.392 2.808-20.836 3.71-31.308 2.513-.338 3.768-.53 6.267-.96 5.525 9.38 11.696 18.38 18.423 26.937zm-13.684-7.885c-2.49-4.243-3.67-6.385-5.94-10.7-.05 5.032-.1 7.552-.24 12.59 2.48-.715 3.72-1.096 6.17-1.89zm16.03-22.754c2.08 10.1 4.08 20.217 5.98 30.354-2.98.478-4.46.688-7.44 1.052-1.61-10.16-3.3-20.29-5.06-30.42 2.6-.35 3.91-.55 6.51-.99zm10.64-3.163c2.72 9.945 5.36 19.915 7.9 29.91-2.95.67-4.43.978-7.38 1.536-2.25-10.03-4.58-20.04-6.99-30.03 2.59-.514 3.88-.798 6.46-1.416zm19.48 19.008c.81 2.392 1.22 3.587 2.02 5.98-2.72.808-4.08 1.186-6.8 1.892-.71-2.35-1.07-3.524-1.79-5.87 2.62-.755 3.94-1.15 6.55-2.002zm-7.98-23.542c2.28 8.22 3.37 12.354 5.41 20.654-1.62.78-2.43 1.156-4.07 1.897-2.9-8.046-4.36-12.067-7.27-20.107 2.38-.932 3.56-1.42 5.91-2.444z" fill="#F9EC31"/></svg>