<svg xmlns="http://www.w3.org/2000/svg" width="250" height="250" viewBox="0 0 250 250"><path opacity=".15" d="M218.033 167.012l11.964-21.572h-27.594c4.767-10.252 7.445-21.672 7.445-33.723 0-44.238-35.862-80.1-80.1-80.1-44.24 0-80.1 35.86-80.1 80.1 0 12.05 2.677 23.47 7.444 33.723H27.705l11.965 21.572-11.965 20.88h21.943v28.992h160.2v-28.992h20.148l-11.963-20.88zm-155.88-12.344l-.46.324.054-.958c.133.213.272.422.406.634z"/><path fill="#F4D382" d="M59.22 141.44H24.705l11.965 21.57-11.965 20.88h32.177m135.6-42.45h34.515l-11.964 21.572 11.964 20.88H194.82"/><path fill="#C59938" d="M46.648 159.5l20.395-14.404 8.33 36.034m131.47-21.63l-20.394-14.404-8.33 36.034"/><circle fill="#DBB48A" cx="126.749" cy="107.717" r="80.1"/><circle fill="#FFF" cx="126.709" cy="169.159" r="34.118"/><path fill="#FFF" d="M170.836 59.052c-.87-2.03-2.188-3.878-2.188-3.878 2.175-19.36-9.837-15.39-9.837-15.39-3.97.69-1.14 3.96-1.14 3.96 11.36 1.985 6.32 10.622 6.32 10.622-9.49-18.983-20.24-.345-20.24-.345 2.54 6.73 6.98 1.04 6.98 1.04 6.06-12.42 13.1 6.73 13.1 6.73-5.35 6.73-4.66-2.41-4.66-2.41-5.64-2.16-3.92 4.15-3.92 4.15 1.25 7.37 12.27.75 12.42.66 18.71 17.95 25.82 41.66 15.74 58.69-8.06 13.61-25.17 19.63-44.34 17.52 1.07-.57 2.14-1.16 3.2-1.79 11.94-7.07 21.2-16.6 27.18-26.99-5.66 6.53-12.76 12.51-21.08 17.44-6.92 4.1-14.08 7.1-21.16 9.06-7.08-1.95-14.24-4.95-21.16-9.05-8.31-4.93-15.41-10.91-21.08-17.43 5.98 10.39 15.25 19.92 27.18 26.99 1.06.63 2.13 1.22 3.2 1.79-19.17 2.11-36.27-3.9-44.34-17.52-10.11-17.04-3-40.76 15.7-58.7.16.09 11.18 6.71 12.43-.65 0 0 1.72-6.3-3.92-4.14 0 0 .69 9.15-4.66 2.42 0 0 7.05-19.16 13.1-6.73 0 0 4.44 5.69 6.98-1.04 0 0-8.89-15.94-19.02-1.89 0 0-.48-9.45 11.49-9.22 0 0 1.96-2.78-2.01-3.47 0 0-17.54-3.63-15.37 15.72 0 0-1.32 1.85-2.19 3.87C59.39 77.7 49.9 107.1 62.48 128.33c11.66 19.68 38.59 26.09 64.73 17.19 26.14 8.9 53.07 2.49 64.73-17.19C204.5 107.1 195 77.7 170.85 59.042z"/><path fill="#D0D2D3" d="M88.935 84.546s-7.09 2.993-12.366-.135c0 0-8.25 1.84-2.06 9.86 0 0 6.17 8.77 9.05 4.71l5.37-14.43z"/><path fill="#919496" d="M83.526 94.946s-7.497-.65-8.11-7.583c0 0-1.146 10.55 8.11 7.583z"/><path fill="#D0D2D3" d="M164.56 84.546s7.088 2.993 12.364-.135c0 0 8.246 1.84 2.06 9.86 0 0-6.18 8.77-9.056 4.71l-5.37-14.43z"/><path fill="#919496" d="M169.967 94.946s7.498-.65 8.11-7.583c0 0 1.147 10.55-8.11 7.583z"/><path fill="#FFF" d="M176.477 108.843c0-20.586-22.28-37.274-49.766-37.274-27.48 0-49.76 16.68-49.76 37.27 0 17.9 16.86 32.85 39.34 36.44 3.38-2.1 7.16-3.28 11.16-3.28 3.87 0 7.53 1.11 10.82 3.08 21.92-3.9 38.22-18.65 38.22-36.26z"/><ellipse fill="#D0D2D3" cx="126.711" cy="108.842" rx="44.291" ry="33.174"/><path fill="#D0D2D3" d="M116.283 145.29c-8.617 5.36-14.562 16.734-14.562 29.9 0 18.322 11.52 33.175 25.72 33.175s25.72-14.853 25.72-33.175c0-13.333-6.1-24.823-14.89-30.095-3.7.66-7.57 1.02-11.54 1.02-3.57 0-7.06-.287-10.42-.825z"/><path fill="#BE1E2D" d="M115.026 113.007s11.43 58.984 23.41.258l-.158-.258-1.783 1.53-1.61.95h-.46l-1.208.173-2.128-.173-2.88-1.985-1.3-1.87-1.01 1.123-.69.747-.78.633-.84.518-.78.49-.81.344-.87.23-1.07-.057-1.15-.374-1.27-.547-1.67-1.18-.84-1.07-.16.51z"/><path fill="#6C6F71" d="M141.198 112.64s-3.293 1.38-3.995-2.418c0 0-.186 1.812.665 2.68-1.363 1.426-6.183 5.578-10.53-1.53l-.493-9.056-.49 1.79v7.267c-5.13 8.38-10.912 1.106-10.912 1.106h-.003c.496-.93.36-2.26.36-2.26-.703 3.79-3.995 2.41-3.995 2.41 1.668.93 2.648.84 3.22.36v.01c5.795 7 10.364 1.42 11.82-.82 1.438 2.2 5.907 7.65 11.59 1.07.597.21 1.476.1 2.763-.63z"/><path fill="#1D8FCD" d="M126.748 106.76l3.39-4.37s-1.696-3.18-3.433-.074c-1.735-3.105-3.432.073-3.432.073l3.39 4.37v.11l.042-.06.043.05v-.11z"/><path fill="#FFF" d="M125.945 105.283s-.027-2.233-1.148-1.27l1.148 1.27zm1.492 0s.03-2.233 1.15-1.27l-1.15 1.27z"/><path fill="#D0D2D3" d="M85.02 98.913s.91-39.77 35.897-19.923C155.855 98.806 85.02 98.913 85.02 98.913z"/><ellipse fill="#FFF" cx="106.643" cy="92.385" rx="18.892" ry="16.972"/><path fill="#D0D2D3" d="M130.658 78.99s30.793-21.427 36.745 17.438l-36.745-17.44z"/><ellipse fill="#FFF" cx="146.231" cy="92.385" rx="18.893" ry="16.972"/><circle fill="#0071BC" cx="110.604" cy="92.385" r="11.491"/><path fill="#0F4481" d="M105.525 96.88c-2.808-3.244-2.453-8.144.79-10.95 3.24-2.803 8.14-2.452 10.95.792 2.804 3.24 2.45 8.144-.792 10.95-3.24 2.805-8.142 2.45-10.948-.79z"/><path fill="#FFF" d="M108.667 94.5c-1.492-1.725-1.304-4.327.42-5.817 1.72-1.49 4.327-1.306 5.82.417 1.49 1.724 1.298 4.33-.424 5.822-1.723 1.49-4.325 1.3-5.816-.422z"/><circle fill="#FFF" cx="103.076" cy="90.732" r="2.009"/><circle fill="#0071BC" cx="142.092" cy="92.385" r="11.491"/><path fill="#0F4481" d="M137.013 96.88c-2.808-3.244-2.454-8.144.788-10.95 3.24-2.803 8.15-2.452 10.95.792 2.81 3.24 2.46 8.144-.79 10.95-3.24 2.805-8.14 2.45-10.94-.79z"/><path fill="#FFF" d="M140.153 94.5c-1.492-1.725-1.304-4.327.42-5.817 1.72-1.49 4.327-1.306 5.82.417 1.49 1.724 1.3 4.33-.424 5.822-1.73 1.49-4.33 1.3-5.82-.422z"/><circle fill="#FFF" cx="134.564" cy="90.732" r="2.009"/><path fill="#A6A8AB" d="M115.91 125.466s11.44 34.803 21.678-.747c0 0-3.2 16.41-10.25 16.68 0 0-5.608 1.6-11.427-15.94z"/><path fill="#EF4B4D" d="M121.71 125.466s5.9-6.268 5.48 5.927c0 0 .1-10.585 6.054-6.674 0 0-5.78 24.27-11.533.74z"/><path fill="#A6A8AB" d="M89.842 61.01s-1.553-1.984-3.625 0c0 0 1.813-3.02 3.625 0zm74.718.518s3.793-3.186 4.667.95c0 0 .242-5.178-4.668-.95z"/><path fill="#FFF800" d="M127.34 32.923l2.914 8.963h9.424l-7.624 5.54 2.91 8.963-7.624-5.54-7.625 5.54 2.913-8.97-7.625-5.54h9.425m-8.518 12.7l1.726 5.31h5.585l-4.51 3.28 1.73 5.31-4.52-3.28-4.51 3.28 1.73-5.31-4.52-3.29h5.59m24.96-5.31l1.73 5.31h5.59l-4.52 3.28 1.73 5.31-4.52-3.28-4.52 3.28 1.73-5.31-4.52-3.29h5.58"/><path fill="#E2BC44" d="M46.648 159.5h160.2v53.384h-160.2z"/><path d="M54.077 175.582c0-1.544-.005-2.688-.016-3.43-.01-.743-.02-1.405-.04-1.986 1.99.13 3.92.224 5.82.287 1.89.063 3.75.096 5.57.096 1.7 0 3.26-.03 4.7-.08 1.44-.05 2.79-.13 4.05-.23-.08.64-.14 1.29-.18 1.96-.04.67-.06 1.38-.06 2.11 0 .52.01.91.02 1.15.01.25.03.48.05.71-.91-.08-1.86-.16-2.85-.22-.99-.07-2.03-.12-3.1-.16-.25 2.76-.44 5.71-.57 8.86-.13 3.15-.2 6.48-.2 10.01 0 .83.03 1.77.08 2.8.05 1.03.13 2.21.24 3.52-1.26.05-2.89.14-4.88.24l-3.8.2c.02-4 .11-8.15.28-12.46.17-4.31.39-8.75.68-13.33-1.07-.04-1.9-.07-2.49-.09-.59-.02-1.14-.02-1.66-.02h-1.6zM76.46 201.51c.146-3.03.254-6.374.326-10.034.073-3.66.11-8.23.11-13.707 0-1.73-.037-3.17-.11-4.32-.072-1.16-.18-2.21-.325-3.16 1.1-.1 2.23-.17 3.4-.22 1.17-.04 2.36-.07 3.58-.07l1.46.02c.02.89.04 1.87.05 2.95.01 1.07.02 2.66.02 4.77 0 2.53-.01 4.42-.03 5.66-.02 1.24-.05 2.38-.09 3.43h3.88v-.39c.08-2.35.13-4.05.13-5.1 0-2.15-.05-4.16-.15-6.04-.11-1.88-.26-3.57-.47-5.09l8.75-.32c-.17 4.44-.29 8.25-.37 11.41-.08 3.16-.12 5.9-.12 8.21 0 2.04.02 4.07.06 6.11.04 2.04.11 4.08.19 6.13-.87-.09-1.94-.17-3.23-.24-1.28-.07-3.03-.15-5.27-.24.07-1.06.13-2.24.19-3.54s.15-3.16.25-5.59l-3.81.12c-.1 1.53-.18 2.92-.23 4.16-.05 1.24-.08 2.41-.08 3.48l-.03 1.44c-.35-.02-.74-.03-1.18-.03-.43-.01-1.07-.01-1.92-.01-.93 0-1.8.01-2.62.03-.82.02-1.59.05-2.31.09zm21.765-.212c2.004-6.2 3.61-11.886 4.82-17.052 1.21-5.168 2.062-9.938 2.558-14.313l8.9.084c.598 5.238 1.394 10.437 2.385 15.597.992 5.16 2.182 10.282 3.566 15.364l-7.286.7-.527-2.38-5.7.045-.56 2.78-8.15-.825zm9.487-6.223h4.123c-.434-1.91-.837-4.014-1.21-6.308-.37-2.293-.712-4.756-1.02-7.39-.29 2.52-.595 4.925-.916 7.21-.33 2.287-.65 4.45-.98 6.488zm13.3 6.01c.745-3.214 1.3-6.594 1.674-10.14.372-3.547.558-7.244.558-11.096 0-1.57-.067-3.08-.2-4.52-.136-1.44-.347-2.83-.637-4.17 1.323-.16 2.616-.36 3.876-.62 1.26-.26 2.49-.56 3.69-.91.847 2.7 1.74 5.39 2.68 8.06.942 2.66 1.96 5.4 3.055 8.2 0-2.86-.042-5.59-.124-8.19-.083-2.6-.197-5.07-.342-7.42.6.04 1.17.07 1.706.09.538.02 1.075.03 1.612.03.868 0 1.752-.04 2.65-.11.9-.07 1.772-.16 2.62-.28-.496 2.38-.863 4.92-1.1 7.63-.24 2.71-.357 5.62-.357 8.73 0 2.42.057 4.82.17 7.2.114 2.37.283 4.73.512 7.07-1.198.02-2.383.14-3.55.35s-2.31.51-3.426.92c-.19-1.26-.82-3.36-1.88-6.28s-2.5-6.47-4.3-10.65c-.09 1.05-.15 2.02-.19 2.94-.04.91-.06 1.7-.06 2.37 0 2.98.02 5.44.08 7.37.05 1.92.12 3.19.23 3.8-1.41-.07-3.11-.15-5.12-.25-2.01-.09-3.29-.15-3.84-.18zm25.762.382c.31-3.766.553-7.243.73-10.437.174-3.192.262-6.034.262-8.526 0-2.392-.076-4.544-.23-6.455s-.4-3.66-.73-5.25c1.364-.2 2.708-.36 4.03-.49 1.323-.13 2.605-.21 3.845-.24.25 1.64.44 3.47.58 5.48.14 2.01.2 4.17.2 6.47v1.46c1.22-2.28 2.2-4.55 2.95-6.82.75-2.27 1.26-4.53 1.55-6.8h.84c1 0 2.05.06 3.18.19 1.13.12 2.33.31 3.61.55-.47 2.73-1.23 5.32-2.27 7.77-1.04 2.45-2.36 4.74-3.95 6.88 2.01 2.62 3.69 5.23 5.04 7.83 1.36 2.6 2.38 5.22 3.09 7.85-1.34.34-2.6.59-3.76.76-1.16.17-2.27.26-3.33.26-.37 0-.64-.01-.82-.01-.18-.01-.34-.02-.48-.04-.49-2.04-1.2-4.16-2.1-6.37-.91-2.21-2.07-4.6-3.5-7.16 0 2.39-.06 4.68-.2 6.87-.13 2.19-.34 4.3-.63 6.34-.95-.07-1.86-.13-2.74-.16-.87-.04-1.74-.06-2.58-.06-.68 0-1.2 0-1.55.01l-.96.03zm26.074.425c-.062-1.033-.227-2.096-.496-3.187-.268-1.09-.64-2.215-1.116-3.375h.527c2.15 0 3.87-.386 5.162-1.157 1.292-.77 1.938-1.787 1.938-3.047 0-.68-.212-1.377-.635-2.093-.425-.714-1.328-1.772-2.713-3.173-1.777-1.8-2.977-3.278-3.597-4.44-.62-1.16-.93-2.363-.93-3.608 0-2.506 1.167-4.495 3.503-5.967 2.34-1.473 5.47-2.208 9.4-2.208h1.09c.5.862.95 1.783 1.37 2.76.41.978.81 2.025 1.18 3.143-.41-.085-.81-.148-1.19-.19-.38-.043-.75-.064-1.1-.064-1.65 0-3.02.287-4.09.86-1.07.573-1.61 1.3-1.61 2.176 0 .51.21 1.073.62 1.688.42.616 1.31 1.61 2.67 2.983 2.13 2.095 3.51 3.756 4.14 4.98.63 1.224.95 2.53.95 3.918 0 3.09-1.31 5.53-3.93 7.32-2.63 1.79-6.18 2.69-10.66 2.69h-.43zm27.778-31.597c-.37.89-.666 3.354-.884 7.39-.217 4.033-.324 9.25-.324 15.65-.91-.044-1.835-.076-2.774-.096-.942-.03-1.917-.04-2.93-.04h-1.396c-.084-3.55-.146-6.95-.187-10.18-.04-3.24-.06-6.25-.06-9.04v-3.97l8.56.27zm-8.122 26.267h1.798c.888 0 1.793.01 2.714.032.918.02 1.833.054 2.743.095.06.46.1.98.13 1.55s.05 1.19.05 1.89v1.5l-7.44.04v-.13c-.09-1.31-.13-2.25-.13-2.83 0-.3.01-.62.03-.95.02-.34.05-.74.09-1.23z" fill="#FFF"/></svg>