<svg xmlns="http://www.w3.org/2000/svg" width="250" height="250" viewBox="0 0 250 250"><path opacity=".15" d="M187.03 39.178l-12.003.224-.005.49-.798-.057-.16-2.092-10.1 1.38-95.263-6.61.82 6.618-8.78-.08 3.96 34.08 9.04.08 2.46 19.95c-.3.25-.52.45-.57.49-.93.86-3.19 3.15-4.02 5.77-1.02 3.25.4 7.69 4.06 8.88.6.2 1.23.29 1.87.29.2 0 .38-.03.57-.05l3.38 27.31c-1.32 1.73-2.61 3.72-3.75 6.01-4.36 8.75-5.08 18.67-2.14 29.51-1.28 1.83-3.05 5.08-2.63 8.74.23 2.05 1.26 5 4.86 7.44l.83.56h1c.82 0 1.86-.25 2.74-.88.14.1.28.21.42.31l1.49 1.08 1.69-.71c.62-.26 1.25-.66 1.81-1.18l3.7 29.95 36.11 1.36c1.49 1.52 2.98 1.9 4.07 1.9.95 0 1.81-.27 2.56-.69.88.51 1.76.76 2.66.76.86 0 1.62-.22 2.27-.59.39.1.8.14 1.22.14 1.24 0 2.36-.42 3.23-.9l24.46.93.67-10.75c.19-.1.38-.21.56-.35l1.09-.8.18-.14c.72-.54 1.8-1.37 3.11-2.57.61-.56 1.42-1.33 2.29-2.34l.04-.04c.88-1.05 1.87-2.34 2.6-4.3l.03-.08c.52-1.51.65-3.01.41-4.44-.14-.88-.45-1.76-.92-2.62l-.06-.11c-.44-.74-.97-1.4-1.54-1.94-1.15-1.1-2.34-1.71-3.15-2.09-.85-.38-1.75-.7-2.78-.98-.14-.04-.29-.06-.43-.1l4.95-80.32c.45-.01.9-.06 1.34-.18 3.41-.9 4.94-4.87 4.17-7.88-.6-2.35-2.46-4.45-3.23-5.24-.08-.09-.67-.68-1.39-1.23l1.13-18.28 7.93.92.56-11.9-1.14-.1 2.62-22.49z"/><path fill="#16679B" d="M179.435 59.37l4.522-24.288-12.002.224-.004.49-.79-.057-.16-2.1-10.1 1.38-95.26-6.61.82 6.62-8.78-.09 3.96 34.08 9.04.07 2.46 19.95c-.3.25-.52.44-.57.49-.93.86-3.19 3.14-4.02 5.76-1.02 3.25.4 7.69 4.06 8.87.6.19 1.23.29 1.87.29.19 0 .38-.04.57-.05l3.37 27.31c-1.32 1.73-2.61 3.72-3.75 6-4.36 8.74-5.08 18.66-2.14 29.5-1.29 1.82-3.05 5.07-2.64 8.73.23 2.05 1.26 5 4.86 7.44l.83.56h1c.82 0 1.86-.25 2.75-.89.14.1.27.2.41.3l1.49 1.07 1.69-.72c.62-.26 1.25-.66 1.81-1.18l3.7 29.95 36.11 1.36c1.49 1.52 2.99 1.9 4.08 1.9.95 0 1.8-.27 2.55-.7.88.51 1.76.76 2.66.76.86 0 1.62-.22 2.27-.6.39.09.8.14 1.22.14 1.24 0 2.36-.43 3.23-.9l24.46.92.66-10.75c.19-.11.39-.22.57-.35l1.1-.8.18-.14c.72-.55 1.8-1.38 3.11-2.57.61-.57 1.42-1.34 2.29-2.34l.04-.04c.88-1.06 1.87-2.34 2.6-4.31l.03-.08c.52-1.51.65-3.01.41-4.44-.14-.88-.45-1.76-.92-2.63l-.06-.11c-.44-.75-.96-1.41-1.53-1.95-1.15-1.1-2.33-1.71-3.14-2.08-.84-.39-1.75-.71-2.78-.98-.14-.04-.29-.07-.43-.11l4.95-80.32c.45 0 .9-.06 1.34-.17 3.41-.9 4.94-4.88 4.17-7.88-.6-2.35-2.47-4.45-3.24-5.25-.08-.09-.66-.68-1.38-1.22l1.1-18.25 7.93.92.56-11.91-1.14-.1L184.04 35z"/><path fill="#FFF" d="M105.964 182.682c-3.038-1.004-5.846-2.41-7.625-4.423-.89-1-1.51-2.13-1.81-3.32-.33-1.19-.32-2.44-.17-3.64.34-2.42 1.33-4.61 2.35-6.45 1.03-1.85 2.13-3.36 3.08-4.58.94-1.22 1.75-2.13 2.31-2.74.56-.61.86-.9.86-.9.38-.37.41-.98.05-1.38-.37-.42-1-.46-1.42-.09h-.01s-.37.32-.98.92c-.62.61-1.51 1.52-2.57 2.75-1.05 1.23-2.28 2.79-3.49 4.74-1.19 1.95-2.42 4.32-2.98 7.27-.25 1.47-.33 3.1.06 4.76.17.83.48 1.64.86 2.43.2.39.4.78.66 1.14.23.38.51.72.78 1.06 1.12 1.38 2.54 2.47 4.05 3.39 1.51.91 3.13 1.64 4.81 2.26 1.02.36 2.05.68 3.11.97.35-1.17.34-2.33.62-3.49-.89-.23-1.76-.47-2.61-.74z"/><path fill="#D0D2D3" d="M115.84 184.688c-.43-.054-.86-.106-1.29-.158l-1.275-.194c-.854-.115-1.682-.287-2.517-.43-.738-.152-1.47-.318-2.19-.496-.28 1.163-.26 2.328-.618 3.49.677.19 1.36.367 2.048.532 1.757.392 3.54.745 5.344.99.808.116 1.617.22 2.43.315-.104-1.335-.342-2.572-.62-3.913-.435-.044-.876-.084-1.312-.136zm16.854.655c-2.09.044-4.188.06-6.284.022-.734-.013-1.468-.033-2.2-.06.426 1.32-.28 2.643-.49 3.965.855.054 1.71.102 2.564.14 2.142.093 4.276.133 6.403.144.04-1.486.216-2.802.007-4.21z"/><path fill="#FFF" d="M172.693 190.144c-.09-.553-.3-1.1-.568-1.6-.283-.477-.622-.908-.984-1.25-.72-.693-1.49-1.134-2.25-1.482-.75-.344-1.5-.594-2.25-.793-2.99-.78-6.05-.96-9.27-1-3.21-.03-6.55.16-10 .49l-1.31.14-.09.01h-.02l.05-.01c.11-.01-.1.01-.07 0h.02-.11l-.31.02-.64.04-2.57.18c-1.72.09-3.47.21-5.23.27-1.45.06-2.91.1-4.38.13.21 1.41.03 2.72-.01 4.21 1.51 0 3.02 0 4.52-.02 1.8-.02 3.58-.09 5.34-.15l2.62-.12.65-.03.33-.02.17-.01.26-.03 1.23-.11c3.31-.26 6.53-.37 9.53-.32 1.51.03 2.96.11 4.32.24 1.37.14 2.66.34 3.79.63.56.15 1.07.33 1.5.52.43.19.76.41.93.57.09.08.12.14.15.18.01.04.02.04.02.07.01.05.01.22-.08.48-.2.55-.65 1.27-1.16 1.89-.52.63-1.08 1.19-1.6 1.7-1.05 1-2 1.74-2.62 2.26l-.62.48c1.87-.14 3.59 1.16 3.55 3.04.7-.53 1.69-1.29 2.88-2.37.63-.58 1.31-1.25 2.03-2.08.7-.84 1.48-1.82 2.05-3.35.26-.77.47-1.76.28-2.87zm-48.483-4.84c-2.375-.083-4.733-.237-7.056-.48.276 1.343.515 2.58.618 3.915 1.972.23 3.96.4 5.95.53.21-1.33.915-2.65.487-3.97zm2.52-49.106s20.713 4.1 21.756 29.427c0 0 7.705 4.066 3.143 10.206 0 0-2.6.94-1.11-4.33l-1.17-.97s1.13 2.64-1.71 6.73c0 0-3.35-.22-.47-3.52l.18-2.74s-2.13.34-2.82 2.89c0 0-1.37.82-1.59-.44 0 0-.22-2.28 1.8-3.53 0 0-1.25-2.49.81-4.09 0 0 1.7-17.42-26.51-28.27l1.76-2.98 5.9 1.63z"/><radialGradient id="a" cx="891.726" cy="5185.818" r="23.728" gradientTransform="matrix(.5 -.9 -.9 -.5 4178.4 3421.5)" gradientUnits="userSpaceOnUse"><stop offset="0" stop-color="#FFF"/><stop offset=".26" stop-color="#DCF1FC"/><stop offset=".5" stop-color="#81D1F4"/><stop offset="1" stop-color="#00ADEE"/></radialGradient><path fill-rule="evenodd" clip-rule="evenodd" fill="url(#a)" d="M116.33 86.19c-.077-.126.618-2.426-.334-6.1-.317-1.217-1.21-3.054-1.817-4.087-1.77-3.01-4.42-6.268-6.97-7.724-3.14-1.79-8.18-1.34-9.95 1.72-1.77 3.05-.26 7.32 2.85 8.75 2.55 1.16 5.07 1.18 8.46 1.54 5.6 1.01 6.99 4.69 7.74 5.89z"/><radialGradient id="b" cx="900.081" cy="5193.19" r="12.052" gradientTransform="matrix(.5 -.9 -.9 -.5 4178.4 3421.5)" gradientUnits="userSpaceOnUse"><stop offset="0" stop-color="#FFF"/><stop offset=".21" stop-color="#DCF1FC"/><stop offset=".44" stop-color="#81D1F4"/><stop offset=".78" stop-color="#0094D9"/><stop offset="1" stop-color="#00ADEE"/></radialGradient><path fill-rule="evenodd" clip-rule="evenodd" fill="url(#b)" d="M116.084 85.24c.322-2.975-.246-6.425-3.746-11.746-1.412-2.145-4.913-4.792-6.162-5.5-2.708-1.537-6.046.372-7.595 3.104-1.54 2.73-.57 6.226 2.14 7.748 2.39 1.342 4.77.625 7.81.518 2.05-.074 7.02 3.7 7.56 5.875z"/><linearGradient id="c" gradientUnits="userSpaceOnUse" x1="901.352" y1="5183.639" x2="896.45" y2="5200.733" gradientTransform="matrix(.5 -.9 -.9 -.5 4178.4 3421.5)"><stop offset="0" stop-color="#00ADEE"/><stop offset=".31" stop-color="#81D1F4"/><stop offset=".57" stop-color="#DCF1FC"/><stop offset="1" stop-color="#FFF"/></linearGradient><path fill-rule="evenodd" clip-rule="evenodd" fill="url(#c)" d="M115.817 82.915c-.537-.62-4.863-6.754-6.056-7.56-2.94-2-2.74.687-.96 1.51 1.3.602 1.32.635 2.33 1.054 1.06.43 4.34 4.72 4.7 4.99z"/><radialGradient id="d" cx="899.14" cy="5197.749" r="7.509" gradientTransform="matrix(.5 -.9 -.9 -.5 4178.4 3421.5)" gradientUnits="userSpaceOnUse"><stop offset="0" stop-color="#8DD7F7"/><stop offset=".138" stop-color="#82D2F5"/><stop offset=".383" stop-color="#63C3EE"/><stop offset=".705" stop-color="#33ACE4"/><stop offset="1" stop-color="#0094D9"/></radialGradient><path fill-rule="evenodd" clip-rule="evenodd" fill="url(#d)" d="M98.15 74.472c-.005-.7.223-2.967 2.02-4.618 1.798-1.65 3.625-1.577 5.228-1.016 1.603.563 2.243 1.68 2.243 1.68s-5.25-1.38-6.64 3.012c-1.39 4.392-2.83 3.085-2.84.942z"/><linearGradient id="e" gradientUnits="userSpaceOnUse" x1="903.753" y1="5199.992" x2="900.759" y2="5196.782" gradientTransform="matrix(.5 -.9 -.9 -.5 4178.4 3421.5)"><stop offset="0" stop-color="#0082C7"/><stop offset="1" stop-color="#00ADEE"/></linearGradient><path fill-rule="evenodd" clip-rule="evenodd" fill="url(#e)" d="M98.494 75.134c-.144-.8-.035-3.343 1.652-5 1.687-1.66 3.647-1.585 5.25-1.024 1.602.563 2.245 1.408 2.245 1.408s-3.35-1.475-5.76-.417c-2.41 1.06-3.38 5.04-3.38 5.04z"/><linearGradient id="f" gradientUnits="userSpaceOnUse" x1="897.99" y1="5195.381" x2="897.856" y2="5197.947" gradientTransform="matrix(.5 -.9 -.9 -.5 4178.4 3421.5)"><stop offset="0" stop-color="#FFF"/><stop offset="1" stop-color="#8DD7F7"/></linearGradient><path fill-rule="evenodd" clip-rule="evenodd" fill="url(#f)" d="M105.26 77.023c-.052.116-.14.246-.222.35-.147.188-.686.214-1.27.11-.585-.106-1.317-.418-1.426-.53-.075-.072.074-.32.21-.588.09-.175.176-.382.31-.477.074-.05.474.31.882.508.396.193.988.41 1.497.535.05.02.05.03.02.1z"/><linearGradient id="g" gradientUnits="userSpaceOnUse" x1="902.602" y1="5199.641" x2="904.262" y2="5198.901" gradientTransform="matrix(.5 -.9 -.9 -.5 4178.4 3421.5)"><stop offset="0" stop-color="#8DD7F7"/><stop offset="1" stop-color="#00ADEE"/></linearGradient><path fill-rule="evenodd" clip-rule="evenodd" fill="url(#g)" d="M103.97 69.714c-.006-.064-.627-.125-1.257-.075-.76.05-1.527.32-1.917.67-.045.04.07.09-.023.2-.03.03-.295.17.095.37.035.02.29-.37 1.032-.78.78-.44 2.077-.34 2.07-.4z"/><linearGradient id="h" gradientUnits="userSpaceOnUse" x1="901.395" y1="5201.052" x2="903.134" y2="5199.879" gradientTransform="matrix(.5 -.9 -.9 -.5 4178.4 3421.5)"><stop offset="0" stop-color="#FFF"/><stop offset="1" stop-color="#8DD7F7"/></linearGradient><path fill-rule="evenodd" clip-rule="evenodd" fill="url(#h)" d="M100.15 70.633c.25-.814 2.12-.958 1.507-.746-.632.22-.67 1.097-.975.867-.303-.23-.58.032-.533-.12z"/><linearGradient id="i" gradientUnits="userSpaceOnUse" x1="896.404" y1="5194.994" x2="895.943" y2="5197.908" gradientTransform="matrix(.5 -.9 -.9 -.5 4178.4 3421.5)"><stop offset="0" stop-color="#FFF"/><stop offset="1" stop-color="#8DD7F7"/></linearGradient><path fill-rule="evenodd" clip-rule="evenodd" fill="url(#i)" d="M102.117 77.335c.104-.013.625.314 1.316.46.572.12 1.206.062 1.244.167.05.135-.175.514-.317.705-.243.323-2.306.483-2.708.083-.152-.152.25-1.344.465-1.415z"/><linearGradient id="j" gradientUnits="userSpaceOnUse" x1="899.172" y1="5192.086" x2="900.804" y2="5190.209" gradientTransform="matrix(.5 -.9 -.9 -.5 4178.4 3421.5)"><stop offset="0" stop-color="#FFF"/><stop offset="1" stop-color="#8DD7F7"/></linearGradient><path fill-rule="evenodd" clip-rule="evenodd" fill="url(#j)" d="M105.563 77.645c-.05.12.87-.052 1.08-.14.11-.045.22-.216.257-.36.004-.01 0-.03-.017-.03-.357.018-.69-.018-1.04-.068-.042-.004-.077.12-.13.244-.067.17-.148.35-.15.36z"/><circle fill-rule="evenodd" clip-rule="evenodd" fill="#00ADEE" cx="100.355" cy="71.387" r=".662"/><linearGradient id="k" gradientUnits="userSpaceOnUse" x1="896.268" y1="5194.547" x2="895.174" y2="5194.662" gradientTransform="matrix(.5 -.9 -.9 -.5 4178.4 3421.5)"><stop offset="0" stop-color="#FFF"/><stop offset="1" stop-color="#8DD7F7"/></linearGradient><path fill-rule="evenodd" clip-rule="evenodd" fill="url(#k)" d="M103.205 78.863c.093-.137.023-.313-.155-.393-.18-.08-.398-.034-.49.104-.093.136-.024.31.153.392.18.08.4.034.492-.103z"/><circle fill-rule="evenodd" clip-rule="evenodd" fill="#8DD7F7" cx="102.527" cy="78.69" r=".082"/><circle fill-rule="evenodd" clip-rule="evenodd" fill="#8DD7F7" cx="101.03" cy="71.251" r=".22"/><circle fill-rule="evenodd" clip-rule="evenodd" fill="#8DD7F7" cx="99.74" cy="72.142" r=".22"/><circle fill-rule="evenodd" clip-rule="evenodd" fill="#00ADEE" cx="99.231" cy="73.088" r=".131"/><circle fill-rule="evenodd" clip-rule="evenodd" fill="#FFF" cx="100.741" cy="71.256" r=".087"/><linearGradient id="l" gradientUnits="userSpaceOnUse" x1="902.179" y1="5200.744" x2="905.284" y2="5197.172" gradientTransform="matrix(.5 -.9 -.9 -.5 4178.4 3421.5)"><stop offset="0" stop-color="#00ADEE"/><stop offset="1" stop-color="#0094D9"/></linearGradient><path fill-rule="evenodd" clip-rule="evenodd" fill="url(#l)" d="M100.31 70.213c.84-.604 1.033-.542 1.352-.542.28.01.64-.04 1.01-.22 1.48-.71 2.966-.04 4.365.56 0 0-2.055-1.17-3.646-1.17-1.59.01-2.75 1.03-3.08 1.38z"/><linearGradient id="m" gradientUnits="userSpaceOnUse" x1="896.803" y1="5189.801" x2="899.758" y2="5183.163" gradientTransform="matrix(.5 -.9 -.9 -.5 4178.4 3421.5)"><stop offset="0" stop-color="#EBF7FD"/><stop offset="1" stop-color="#00ADEE"/></linearGradient><path fill-rule="evenodd" clip-rule="evenodd" fill="url(#m)" d="M105.035 79.058s.322-.72 1.157-.98c1.57-.485 7.58.682 9.505 5.566-4.19-6-10.872-4.27-10.662-4.586z"/><linearGradient id="n" gradientUnits="userSpaceOnUse" x1="896.714" y1="5194.078" x2="895.394" y2="5199.794" gradientTransform="matrix(.5 -.9 -.9 -.5 4178.4 3421.5)"><stop offset="0" stop-color="#EBF7FD"/><stop offset="1" stop-color="#00ADEE"/></linearGradient><path fill-rule="evenodd" clip-rule="evenodd" fill="url(#n)" d="M102.853 79.213s-.407-.676-1.268-.83c-1.616-.293-2.507-1.525-3.284-2.833 0 0 .14.538.57 1.242.39.65 1.05 1.32 1.71 1.715 1.36.82 2.3.712 2.29.706z"/><linearGradient id="o" gradientUnits="userSpaceOnUse" x1="898.568" y1="5191.818" x2="901.7" y2="5189.372" gradientTransform="matrix(.5 -.9 -.9 -.5 4178.4 3421.5)"><stop offset="0" stop-color="#FFF"/><stop offset="1" stop-color="#8DD7F7"/></linearGradient><path fill-rule="evenodd" clip-rule="evenodd" fill="url(#o)" d="M105.182 78.576c-.06.153.548-.012.945-.276.396-.26.54-.595.295-.535-.248.06-.904.183-.976.26-.07.08-.26.546-.264.55z"/><linearGradient id="p" gradientUnits="userSpaceOnUse" x1="905.166" y1="5198.346" x2="904.055" y2="5198.384" gradientTransform="matrix(.5 -.9 -.9 -.5 4178.4 3421.5)"><stop offset="0" stop-color="#0094D9"/><stop offset="1" stop-color="#8DD7F7"/></linearGradient><path fill-rule="evenodd" clip-rule="evenodd" fill="url(#p)" d="M104.31 69.237c.08-.144 0-.314-.185-.378-.184-.07-.4-.01-.48.14-.083.14 0 .31.185.37.184.06.398 0 .48-.14z"/><linearGradient id="q" gradientUnits="userSpaceOnUse" x1="901.538" y1="5201.678" x2="901.622" y2="5202.873" gradientTransform="matrix(.5 -.9 -.9 -.5 4178.4 3421.5)"><stop offset="0" stop-color="#0082C7"/><stop offset="1" stop-color="#00ADEE"/></linearGradient><path fill-rule="evenodd" clip-rule="evenodd" fill="url(#q)" d="M97.45 74.634s-1-2.147 1.015-4.782c2.016-2.637 5.604-1.84 5.604-1.84s-4.14-.148-5.65 2.514c-1.51 2.663-.98 4.108-.98 4.108z"/><radialGradient id="r" cx="2765.679" cy="4488.278" r="14.998" gradientTransform="matrix(-.3 -.9 -.9 .3 5217.9 1318.7)" gradientUnits="userSpaceOnUse"><stop offset="0" stop-color="#FFF"/><stop offset=".26" stop-color="#DCF1FC"/><stop offset=".5" stop-color="#81D1F4"/><stop offset="1" stop-color="#00ADEE"/></radialGradient><path fill-rule="evenodd" clip-rule="evenodd" fill="url(#r)" d="M95.065 81.323c-.09-.018-.87-1.322-2.994-2.44-.7-.37-1.94-.734-2.68-.89-2.16-.458-4.81-.603-6.57-.03-2.17.706-4.1 3.255-3.42 5.382.68 2.127 3.32 3.238 5.31 2.39 1.63-.695 2.71-1.866 4.33-3.3 2.86-2.187 5.17-1.27 6.05-1.112z"/><radialGradient id="s" cx="2770.959" cy="4492.936" r="7.62" gradientTransform="matrix(-.3 -.9 -.9 .3 5217.9 1318.7)" gradientUnits="userSpaceOnUse"><stop offset="0" stop-color="#FFF"/><stop offset=".21" stop-color="#DCF1FC"/><stop offset=".44" stop-color="#81D1F4"/><stop offset=".78" stop-color="#0094D9"/><stop offset="1" stop-color="#00ADEE"/></radialGradient><path fill-rule="evenodd" clip-rule="evenodd" fill="url(#s)" d="M94.516 81.033c-1.253-1.416-3.11-2.62-7.084-3.247-1.605-.253-4.33.257-5.194.54-1.873.612-2.398 2.983-1.782 4.87.616 1.886 2.666 2.92 4.532 2.3 1.645-.548 2.32-1.962 3.566-3.433.837-.987 4.716-1.705 5.962-1.03z"/><linearGradient id="t" gradientUnits="userSpaceOnUse" x1="2771.765" y1="4486.898" x2="2768.666" y2="4497.704" gradientTransform="matrix(-.3 -.9 -.9 .3 5217.9 1318.7)"><stop offset="0" stop-color="#00ADEE"/><stop offset=".31" stop-color="#81D1F4"/><stop offset=".57" stop-color="#DCF1FC"/><stop offset="1" stop-color="#FFF"/></linearGradient><path fill-rule="evenodd" clip-rule="evenodd" fill="url(#t)" d="M93.315 80.17c-.518-.014-5.226-.602-6.112-.388-2.19.526-.844 1.573.296 1.095.83-.352.85-.346 1.48-.64.65-.306 4.05-.018 4.33-.068z"/><radialGradient id="u" cx="2770.364" cy="4495.818" r="4.748" gradientTransform="matrix(-.3 -.9 -.9 .3 5217.9 1318.7)" gradientUnits="userSpaceOnUse"><stop offset="0" stop-color="#8DD7F7"/><stop offset=".138" stop-color="#82D2F5"/><stop offset=".383" stop-color="#63C3EE"/><stop offset=".705" stop-color="#33ACE4"/><stop offset="1" stop-color="#0094D9"/></radialGradient><path fill-rule="evenodd" clip-rule="evenodd" fill="url(#u)" d="M81.85 84.834c-.33-.295-1.293-1.366-1.3-2.91-.005-1.542.806-2.366 1.75-2.875.946-.51 1.74-.34 1.74-.34s-2.88 1.87-1.42 4.38c1.46 2.52.238 2.63-.77 1.73z"/><linearGradient id="v" gradientUnits="userSpaceOnUse" x1="2773.281" y1="4497.236" x2="2771.389" y2="4495.208" gradientTransform="matrix(-.3 -.9 -.9 .3 5217.9 1318.7)"><stop offset="0" stop-color="#0082C7"/><stop offset="1" stop-color="#00ADEE"/></linearGradient><path fill-rule="evenodd" clip-rule="evenodd" fill="url(#v)" d="M82.305 84.954c-.436-.273-1.578-1.405-1.634-2.9-.05-1.494.82-2.38 1.76-2.89.95-.508 1.62-.45 1.62-.45s-2.11.94-2.65 2.52c-.53 1.58.92 3.72.92 3.72z"/><linearGradient id="w" gradientUnits="userSpaceOnUse" x1="2769.638" y1="4494.322" x2="2769.553" y2="4495.945" gradientTransform="matrix(-.3 -.9 -.9 .3 5217.9 1318.7)"><stop offset="0" stop-color="#FFF"/><stop offset="1" stop-color="#8DD7F7"/></linearGradient><path fill-rule="evenodd" clip-rule="evenodd" fill="url(#w)" d="M86.068 82.596c.033.074.055.17.07.252.024.15-.194.413-.49.642-.3.228-.757.438-.855.442-.066.003-.12-.172-.186-.35-.043-.116-.104-.245-.09-.347.007-.057.347-.09.612-.196.26-.11.61-.29.88-.48.02-.02.03-.01.05.03z"/><linearGradient id="x" gradientUnits="userSpaceOnUse" x1="2772.555" y1="4497.016" x2="2773.604" y2="4496.548" gradientTransform="matrix(-.3 -.9 -.9 .3 5217.9 1318.7)"><stop offset="0" stop-color="#8DD7F7"/><stop offset="1" stop-color="#00ADEE"/></linearGradient><path fill-rule="evenodd" clip-rule="evenodd" fill="url(#x)" d="M82.104 80.09c-.033-.024-.327.24-.57.553-.297.383-.5.852-.5 1.185-.002.04.072.006.085.098 0 .027-.05.212.21.114.02-.01-.05-.294.07-.815.13-.55.73-1.113.7-1.136z"/><linearGradient id="y" gradientUnits="userSpaceOnUse" x1="2771.792" y1="4497.906" x2="2772.89" y2="4497.166" gradientTransform="matrix(-.3 -.9 -.9 .3 5217.9 1318.7)"><stop offset="0" stop-color="#FFF"/><stop offset="1" stop-color="#8DD7F7"/></linearGradient><path fill-rule="evenodd" clip-rule="evenodd" fill="url(#y)" d="M80.906 82.266c-.274-.463.455-1.398.292-1.022-.165.39.228.78-.007.825-.23.04-.23.28-.28.19z"/><linearGradient id="z" gradientUnits="userSpaceOnUse" x1="2768.637" y1="4494.078" x2="2768.345" y2="4495.92" gradientTransform="matrix(-.3 -.9 -.9 .3 5217.9 1318.7)"><stop offset="0" stop-color="#FFF"/><stop offset="1" stop-color="#8DD7F7"/></linearGradient><path fill-rule="evenodd" clip-rule="evenodd" fill="url(#z)" d="M84.876 84.2c.04-.056.413-.16.775-.42.31-.216.55-.538.61-.512.09.035.17.3.2.45.05.25-.75 1.283-1.11 1.3-.13.007-.52-.69-.46-.82z"/><linearGradient id="A" gradientUnits="userSpaceOnUse" x1="2770.387" y1="4492.239" x2="2771.419" y2="4491.052" gradientTransform="matrix(-.3 -.9 -.9 .3 5217.9 1318.7)"><stop offset="0" stop-color="#FFF"/><stop offset="1" stop-color="#8DD7F7"/></linearGradient><path fill-rule="evenodd" clip-rule="evenodd" fill="url(#A)" d="M86.487 82.72c.035.073.346-.43.395-.564.026-.072-.007-.197-.058-.275-.005 0-.015-.01-.02 0-.146.18-.305.32-.477.46-.02.02.022.09.06.17.05.1.1.22.1.22z"/><circle fill-rule="evenodd" clip-rule="evenodd" fill="#00ADEE" cx="81.345" cy="82.49" r=".418"/><linearGradient id="B" gradientUnits="userSpaceOnUse" x1="2768.552" y1="4493.796" x2="2767.862" y2="4493.868" gradientTransform="matrix(-.3 -.9 -.9 .3 5217.9 1318.7)"><stop offset="0" stop-color="#FFF"/><stop offset="1" stop-color="#8DD7F7"/></linearGradient><path fill-rule="evenodd" clip-rule="evenodd" fill="url(#B)" d="M86.053 84.34c-.025-.102-.136-.144-.25-.094-.112.048-.185.17-.16.27.024.103.135.146.248.097.12-.05.19-.17.17-.273z"/><circle fill-rule="evenodd" clip-rule="evenodd" fill="#8DD7F7" cx="85.684" cy="84.583" r=".052"/><circle fill-rule="evenodd" clip-rule="evenodd" fill="#8DD7F7" cx="81.57" cy="82.117" r=".139"/><circle fill-rule="evenodd" clip-rule="evenodd" fill="#8DD7F7" cx="81.436" cy="83.099" r=".139"/><circle fill-rule="evenodd" clip-rule="evenodd" fill="#00ADEE" cx="81.663" cy="83.739" r=".083"/><circle fill-rule="evenodd" clip-rule="evenodd" fill="#FFF" cx="81.449" cy="82.255" r=".055"/><linearGradient id="C" gradientUnits="userSpaceOnUse" x1="2772.286" y1="4497.711" x2="2774.249" y2="4495.453" gradientTransform="matrix(-.3 -.9 -.9 .3 5217.9 1318.7)"><stop offset="0" stop-color="#00ADEE"/><stop offset="1" stop-color="#0094D9"/></linearGradient><path fill-rule="evenodd" clip-rule="evenodd" fill="url(#C)" d="M80.778 82.012c.075-.65.186-.715.32-.864.12-.13.253-.317.328-.566.296-.995 1.244-1.405 2.12-1.8 0 0-1.425.458-2.1 1.204-.674.747-.69 1.725-.668 2.026z"/><linearGradient id="D" gradientUnits="userSpaceOnUse" x1="2768.886" y1="4490.795" x2="2770.754" y2="4486.599" gradientTransform="matrix(-.3 -.9 -.9 .3 5217.9 1318.7)"><stop offset="0" stop-color="#EBF7FD"/><stop offset="1" stop-color="#00ADEE"/></linearGradient><path fill-rule="evenodd" clip-rule="evenodd" fill="url(#D)" d="M86.924 83.567s-.2-.457.033-.958c.44-.95 3.546-3.26 6.65-2.08-4.59-.6-6.626 3.26-6.683 3.03z"/><linearGradient id="E" gradientUnits="userSpaceOnUse" x1="2768.83" y1="4493.497" x2="2767.995" y2="4497.112" gradientTransform="matrix(-.3 -.9 -.9 .3 5217.9 1318.7)"><stop offset="0" stop-color="#EBF7FD"/><stop offset="1" stop-color="#00ADEE"/></linearGradient><path fill-rule="evenodd" clip-rule="evenodd" fill="url(#E)" d="M86.068 84.654s-.49-.098-.93.238c-.823.632-1.78.524-2.72.33 0 0 .312.163.82.264.472.094 1.067.072 1.53-.067.96-.29 1.31-.78 1.3-.77z"/><linearGradient id="F" gradientUnits="userSpaceOnUse" x1="2770.003" y1="4492.07" x2="2771.981" y2="4490.525" gradientTransform="matrix(-.3 -.9 -.9 .3 5217.9 1318.7)"><stop offset="0" stop-color="#FFF"/><stop offset="1" stop-color="#8DD7F7"/></linearGradient><path fill-rule="evenodd" clip-rule="evenodd" fill="url(#F)" d="M86.76 83.292c.046.096.23-.26.274-.557.046-.297-.048-.507-.125-.366-.08.14-.3.5-.3.56 0 .07.14.35.14.35z"/><linearGradient id="G" gradientUnits="userSpaceOnUse" x1="2774.175" y1="4496.2" x2="2773.473" y2="4496.225" gradientTransform="matrix(-.3 -.9 -.9 .3 5217.9 1318.7)"><stop offset="0" stop-color="#0094D9"/><stop offset="1" stop-color="#8DD7F7"/></linearGradient><path fill-rule="evenodd" clip-rule="evenodd" fill="url(#G)" d="M82.023 79.727c-.03-.1-.146-.133-.254-.075-.11.06-.18.186-.14.286s.14.133.25.073c.11-.05.17-.18.14-.28z"/><linearGradient id="H" gradientUnits="userSpaceOnUse" x1="2771.881" y1="4498.305" x2="2771.934" y2="4499.06" gradientTransform="matrix(-.3 -.9 -.9 .3 5217.9 1318.7)"><stop offset="0" stop-color="#0082C7"/><stop offset="1" stop-color="#00ADEE"/></linearGradient><path fill-rule="evenodd" clip-rule="evenodd" fill="url(#H)" d="M81.627 85.23s-1.43-.446-1.805-2.51c-.374-2.064 1.525-3.402 1.525-3.402s-1.83 1.87-1.228 3.71c.6 1.84 1.5 2.203 1.5 2.203z"/><radialGradient id="I" cx="3452.424" cy="2328.199" r="12.2" gradientTransform="matrix(-.9 -.3 -.3 .9 4069.5 -1102)" gradientUnits="userSpaceOnUse"><stop offset="0" stop-color="#FFF"/><stop offset=".26" stop-color="#DCF1FC"/><stop offset=".5" stop-color="#81D1F4"/><stop offset="1" stop-color="#00ADEE"/></radialGradient><path fill-rule="evenodd" clip-rule="evenodd" fill="url(#I)" d="M79.63 89.74c-.054.052-1.285-.046-3.027.834-.578.29-1.402.94-1.856 1.358-1.32 1.216-2.668 2.906-3.12 4.347-.555 1.77.225 4.25 1.95 4.8 1.728.55 3.71-.68 4.086-2.39.308-1.41.04-2.68-.146-4.43-.102-2.93 1.593-4.03 2.112-4.54z"/><radialGradient id="J" cx="3456.718" cy="2331.987" r="6.199" gradientTransform="matrix(-.9 -.3 -.3 .9 4069.5 -1102)" gradientUnits="userSpaceOnUse"><stop offset="0" stop-color="#FFF"/><stop offset=".21" stop-color="#DCF1FC"/><stop offset=".44" stop-color="#81D1F4"/><stop offset=".78" stop-color="#0094D9"/><stop offset="1" stop-color="#00ADEE"/></radialGradient><path fill-rule="evenodd" clip-rule="evenodd" fill="url(#J)" d="M79.18 89.966c-1.53.164-3.2.827-5.49 3.166-.925.944-1.872 2.992-2.092 3.696-.478 1.528.846 2.997 2.387 3.477 1.542.48 3.193-.39 3.662-1.92.412-1.35-.206-2.463-.594-3.982-.262-1.02 1.093-3.928 2.127-4.437z"/><linearGradient id="K" gradientUnits="userSpaceOnUse" x1="3457.374" y1="2327.077" x2="3454.853" y2="2335.868" gradientTransform="matrix(-.9 -.3 -.3 .9 4069.5 -1102)"><stop offset="0" stop-color="#00ADEE"/><stop offset=".31" stop-color="#81D1F4"/><stop offset=".57" stop-color="#DCF1FC"/><stop offset="1" stop-color="#FFF"/></linearGradient><path fill-rule="evenodd" clip-rule="evenodd" fill="url(#K)" d="M78.04 90.355c-.25.337-2.86 3.18-3.137 3.868-.68 1.7.645 1.302.865.32.16-.717.175-.73.275-1.283.106-.58 1.9-2.697 1.998-2.905z"/><radialGradient id="L" cx="3456.235" cy="2334.332" r="3.862" gradientTransform="matrix(-.9 -.3 -.3 .9 4069.5 -1102)" gradientUnits="userSpaceOnUse"><stop offset="0" stop-color="#8DD7F7"/><stop offset=".138" stop-color="#82D2F5"/><stop offset=".383" stop-color="#63C3EE"/><stop offset=".705" stop-color="#33ACE4"/><stop offset="1" stop-color="#0094D9"/></radialGradient><path fill-rule="evenodd" clip-rule="evenodd" fill="url(#L)" d="M75.728 100.153c-.352.08-1.514.212-2.54-.51-1.027-.723-1.19-1.65-1.082-2.517.107-.866.6-1.31.6-1.31s-.122 2.79 2.237 3.01c2.36.22 1.86 1.084.785 1.327z"/><linearGradient id="M" gradientUnits="userSpaceOnUse" x1="3458.606" y1="2335.485" x2="3457.067" y2="2333.835" gradientTransform="matrix(-.9 -.3 -.3 .9 4069.5 -1102)"><stop offset="0" stop-color="#0082C7"/><stop offset="1" stop-color="#00ADEE"/></linearGradient><path fill-rule="evenodd" clip-rule="evenodd" fill="url(#M)" d="M76.023 99.91c-.386.16-1.674.382-2.692-.285-1.01-.666-1.19-1.66-1.08-2.526.11-.87.46-1.29.46-1.29s-.37 1.84.42 2.94c.8 1.09 2.9 1.14 2.9 1.14z"/><linearGradient id="N" gradientUnits="userSpaceOnUse" x1="3455.642" y1="2333.115" x2="3455.573" y2="2334.434" gradientTransform="matrix(-.9 -.3 -.3 .9 4069.5 -1102)"><stop offset="0" stop-color="#FFF"/><stop offset="1" stop-color="#8DD7F7"/></linearGradient><path fill-rule="evenodd" clip-rule="evenodd" fill="url(#N)" d="M76.234 96.303c.064.013.14.044.2.073.11.053.183.322.192.625.012.31-.065.71-.108.78-.03.05-.17 0-.318-.04-.098-.02-.212-.04-.273-.1-.035-.03.104-.27.158-.49.054-.22.1-.54.105-.81 0-.02.01-.02.044-.02z"/><linearGradient id="O" gradientUnits="userSpaceOnUse" x1="3458.015" y1="2335.306" x2="3458.869" y2="2334.925" gradientTransform="matrix(-.9 -.3 -.3 .9 4069.5 -1102)"><stop offset="0" stop-color="#8DD7F7"/><stop offset="1" stop-color="#00ADEE"/></linearGradient><path fill-rule="evenodd" clip-rule="evenodd" fill="url(#O)" d="M72.703 97.75c-.03.01.006.328.1.64.113.377.326.732.55.89.024.018.038-.046.103-.01.02.01.12.128.177-.09.005-.02-.22-.105-.506-.433-.305-.346-.393-1.007-.424-.997z"/><linearGradient id="P" gradientUnits="userSpaceOnUse" x1="3457.396" y1="2336.029" x2="3458.288" y2="2335.427" gradientTransform="matrix(-.9 -.3 -.3 .9 4069.5 -1102)"><stop offset="0" stop-color="#FFF"/><stop offset="1" stop-color="#8DD7F7"/></linearGradient><path fill-rule="evenodd" clip-rule="evenodd" fill="url(#P)" d="M73.58 99.568c-.435-.036-.712-.96-.538-.674.18.292.625.216.542.394s.08.287-.003.28z"/><linearGradient id="Q" gradientUnits="userSpaceOnUse" x1="3454.831" y1="2332.915" x2="3454.593" y2="2334.415" gradientTransform="matrix(-.9 -.3 -.3 .9 4069.5 -1102)"><stop offset="0" stop-color="#FFF"/><stop offset="1" stop-color="#8DD7F7"/></linearGradient><path fill-rule="evenodd" clip-rule="evenodd" fill="url(#Q)" d="M76.734 97.85c-.017-.052.09-.35.087-.71 0-.304-.1-.614-.05-.647.07-.04.28.033.39.082.19.088.5 1.107.34 1.354-.06.09-.7.02-.76-.08z"/><linearGradient id="R" gradientUnits="userSpaceOnUse" x1="3456.25" y1="2331.42" x2="3457.089" y2="2330.454" gradientTransform="matrix(-.9 -.3 -.3 .9 4069.5 -1102)"><stop offset="0" stop-color="#FFF"/><stop offset="1" stop-color="#8DD7F7"/></linearGradient><path fill-rule="evenodd" clip-rule="evenodd" fill="url(#R)" d="M76.513 96.083c.067.012-.12-.433-.187-.527-.035-.05-.133-.087-.21-.09-.006 0-.014.003-.012.012.046.178.065.35.08.53 0 .02.066.026.135.038.09.016.19.036.19.037z"/><circle fill-rule="evenodd" clip-rule="evenodd" fill="#00ADEE" cx="73.938" cy="99.383" r=".34"/><linearGradient id="S" gradientUnits="userSpaceOnUse" x1="3454.76" y1="2332.686" x2="3454.201" y2="2332.744" gradientTransform="matrix(-.9 -.3 -.3 .9 4069.5 -1102)"><stop offset="0" stop-color="#FFF"/><stop offset="1" stop-color="#8DD7F7"/></linearGradient><path fill-rule="evenodd" clip-rule="evenodd" fill="url(#S)" d="M77.383 97.135c-.08-.03-.16.023-.18.12-.02.098.025.203.105.234.078.03.16-.03.178-.12.022-.1-.026-.21-.103-.24z"/><circle fill-rule="evenodd" clip-rule="evenodd" fill="#8DD7F7" cx="77.37" cy="97.493" r=".042"/><circle fill-rule="evenodd" clip-rule="evenodd" fill="#8DD7F7" cx="73.796" cy="99.059" r=".113"/><circle fill-rule="evenodd" clip-rule="evenodd" fill="#8DD7F7" cx="74.384" cy="99.61" r=".113"/><circle fill-rule="evenodd" clip-rule="evenodd" fill="#00ADEE" cx="74.915" cy="99.761" r=".066"/><circle fill-rule="evenodd" clip-rule="evenodd" fill="#FFF" cx="73.831" cy="99.203" r=".044"/><linearGradient id="T" gradientUnits="userSpaceOnUse" x1="3457.796" y1="2335.871" x2="3459.392" y2="2334.035" gradientTransform="matrix(-.9 -.3 -.3 .9 4069.5 -1102)"><stop offset="0" stop-color="#00ADEE"/><stop offset="1" stop-color="#0094D9"/></linearGradient><path fill-rule="evenodd" clip-rule="evenodd" fill="url(#T)" d="M73.353 99.534c-.395-.356-.386-.46-.42-.62-.03-.14-.092-.318-.223-.483-.52-.66-.343-1.48-.194-2.25 0 0-.366 1.16-.19 1.96s.818 1.27 1.027 1.4z"/><linearGradient id="U" gradientUnits="userSpaceOnUse" x1="3455.034" y1="2330.245" x2="3456.554" y2="2326.831" gradientTransform="matrix(-.9 -.3 -.3 .9 4069.5 -1102)"><stop offset="0" stop-color="#EBF7FD"/><stop offset="1" stop-color="#00ADEE"/></linearGradient><path fill-rule="evenodd" clip-rule="evenodd" fill="url(#U)" d="M77.28 96.194s-.396-.083-.617-.475c-.417-.74-.487-3.89 1.758-5.39-2.55 2.76-.95 5.93-1.14 5.86z"/><linearGradient id="V" gradientUnits="userSpaceOnUse" x1="3454.986" y1="2332.443" x2="3454.308" y2="2335.383" gradientTransform="matrix(-.9 -.3 -.3 .9 4069.5 -1102)"><stop offset="0" stop-color="#EBF7FD"/><stop offset="1" stop-color="#00ADEE"/></linearGradient><path fill-rule="evenodd" clip-rule="evenodd" fill="url(#V)" d="M77.597 97.272s-.295.278-.28.728c.03.844-.492 1.427-1.064 1.96 0 0 .254-.13.563-.42.284-.27.55-.672.675-1.043.27-.774.11-1.23.11-1.225z"/><linearGradient id="W" gradientUnits="userSpaceOnUse" x1="3455.941" y1="2331.281" x2="3457.549" y2="2330.025" gradientTransform="matrix(-.9 -.3 -.3 .9 4069.5 -1102)"><stop offset="0" stop-color="#FFF"/><stop offset="1" stop-color="#8DD7F7"/></linearGradient><path fill-rule="evenodd" clip-rule="evenodd" fill="url(#W)" d="M77.022 96.17c.084.016-.065-.27-.24-.444-.176-.168-.36-.205-.302-.09.057.12.19.436.237.464.048.028.304.07.305.07z"/><linearGradient id="X" gradientUnits="userSpaceOnUse" x1="3459.334" y1="2334.64" x2="3458.764" y2="2334.66" gradientTransform="matrix(-.9 -.3 -.3 .9 4069.5 -1102)"><stop offset="0" stop-color="#0094D9"/><stop offset="1" stop-color="#8DD7F7"/></linearGradient><path fill-rule="evenodd" clip-rule="evenodd" fill="url(#X)" d="M72.425 97.63c-.082-.026-.157.036-.17.135-.012.1.042.2.125.226.08.03.155-.03.168-.13.013-.1-.04-.2-.123-.22z"/><linearGradient id="Y" gradientUnits="userSpaceOnUse" x1="3457.466" y1="2336.352" x2="3457.509" y2="2336.967" gradientTransform="matrix(-.9 -.3 -.3 .9 4069.5 -1102)"><stop offset="0" stop-color="#0082C7"/><stop offset="1" stop-color="#00ADEE"/></linearGradient><path fill-rule="evenodd" clip-rule="evenodd" fill="url(#Y)" d="M75.887 100.488s-.97.737-2.515.013c-1.544-.72-1.536-2.61-1.536-2.61s.377 2.1 1.88 2.57c1.502.47 2.17.04 2.17.04z"/><radialGradient id="Z" cx="3232.433" cy="965.604" r="19.892" gradientTransform="rotate(-116.4 1415.8 1482.3)" gradientUnits="userSpaceOnUse"><stop offset="0" stop-color="#FFF"/><stop offset=".26" stop-color="#DCF1FC"/><stop offset=".5" stop-color="#81D1F4"/><stop offset="1" stop-color="#00ADEE"/></radialGradient><path fill-rule="evenodd" clip-rule="evenodd" fill="url(#Z)" d="M137.366 83.706c.073-.102-.404-2.06.56-5.09.32-1.004 1.154-2.5 1.708-3.34 1.615-2.438 3.987-5.045 6.188-6.147 2.707-1.36 6.904-.75 8.25 1.89 1.34 2.63-.124 6.14-2.79 7.19-2.19.86-4.3.76-7.16.91-4.74.59-6.07 3.61-6.756 4.57z"/><radialGradient id="aa" cx="3239.436" cy="971.783" r="10.106" gradientTransform="rotate(-116.4 1415.8 1482.3)" gradientUnits="userSpaceOnUse"><stop offset="0" stop-color="#FFF"/><stop offset=".21" stop-color="#DCF1FC"/><stop offset=".44" stop-color="#81D1F4"/><stop offset=".78" stop-color="#0094D9"/><stop offset="1" stop-color="#00ADEE"/></radialGradient><path fill-rule="evenodd" clip-rule="evenodd" fill="url(#aa)" d="M137.616 82.922c-.133-2.505.503-5.368 3.674-9.662 1.28-1.73 4.33-3.788 5.408-4.324 2.34-1.163 5.046.588 6.22 2.945 1.17 2.36.195 5.24-2.147 6.39-2.06 1.02-4.01.31-6.56.08-1.71-.15-6.04 2.78-6.59 4.58z"/><linearGradient id="ab" gradientUnits="userSpaceOnUse" x1="3240.502" y1="963.774" x2="3236.392" y2="978.106" gradientTransform="rotate(-116.4 1415.8 1482.3)"><stop offset="0" stop-color="#00ADEE"/><stop offset=".31" stop-color="#81D1F4"/><stop offset=".57" stop-color="#DCF1FC"/><stop offset="1" stop-color="#FFF"/></linearGradient><path fill-rule="evenodd" clip-rule="evenodd" fill="url(#ab)" d="M137.946 80.99c.48-.496 4.38-5.434 5.415-6.055 2.56-1.538 2.27.7.74 1.308-1.11.444-1.13.47-1.99.776-.91.32-3.85 3.75-4.16 3.97z"/><radialGradient id="ac" cx="3238.646" cy="975.606" r="6.296" gradientTransform="rotate(-116.4 1415.8 1482.3)" gradientUnits="userSpaceOnUse"><stop offset="0" stop-color="#8DD7F7"/><stop offset=".138" stop-color="#82D2F5"/><stop offset=".383" stop-color="#63C3EE"/><stop offset=".705" stop-color="#33ACE4"/><stop offset="1" stop-color="#0094D9"/></radialGradient><path fill-rule="evenodd" clip-rule="evenodd" fill="url(#ac)" d="M153.123 74.727c.038-.585-.05-2.494-1.48-3.958-1.43-1.47-2.962-1.49-4.33-1.09-1.366.39-1.953 1.3-1.953 1.3s4.46-.92 5.424 2.82c.966 3.74 2.228 2.71 2.34.92z"/><linearGradient id="ad" gradientUnits="userSpaceOnUse" x1="3242.514" y1="977.485" x2="3240.005" y2="974.796" gradientTransform="rotate(-116.4 1415.8 1482.3)"><stop offset="0" stop-color="#0082C7"/><stop offset="1" stop-color="#00ADEE"/></linearGradient><path fill-rule="evenodd" clip-rule="evenodd" fill="url(#ad)" d="M152.805 75.264c.16-.664.185-2.795-1.152-4.26-1.337-1.465-2.983-1.493-4.35-1.096-1.366.397-1.942 1.075-1.942 1.075s2.88-1.082 4.85-.085c1.98.995 2.6 4.366 2.6 4.366z"/><linearGradient id="ae" gradientUnits="userSpaceOnUse" x1="3237.684" y1="973.621" x2="3237.571" y2="975.773" gradientTransform="rotate(-116.4 1415.8 1482.3)"><stop offset="0" stop-color="#FFF"/><stop offset="1" stop-color="#8DD7F7"/></linearGradient><path fill-rule="evenodd" clip-rule="evenodd" fill="url(#ae)" d="M147.056 76.538c.036.1.105.213.17.303.113.17.563.21 1.058.15.493-.06 1.12-.29 1.218-.37.065-.06-.048-.27-.148-.5-.067-.15-.13-.33-.24-.41-.057-.04-.41.24-.76.39-.34.15-.847.3-1.28.38-.04.01-.04.02-.018.08z"/><linearGradient id="af" gradientUnits="userSpaceOnUse" x1="3241.548" y1="977.193" x2="3242.94" y2="976.573" gradientTransform="rotate(-116.4 1415.8 1482.3)"><stop offset="0" stop-color="#8DD7F7"/><stop offset="1" stop-color="#00ADEE"/></linearGradient><path fill-rule="evenodd" clip-rule="evenodd" fill="url(#af)" d="M148.47 70.48c.01-.054.53-.078 1.056-.007.634.084 1.262.337 1.574.653.037.036-.064.073.01.173.02.02.237.15-.098.3-.03.01-.228-.33-.828-.71-.634-.4-1.724-.38-1.715-.43z"/><linearGradient id="ag" gradientUnits="userSpaceOnUse" x1="3240.539" y1="978.373" x2="3241.995" y2="977.391" gradientTransform="rotate(-116.4 1415.8 1482.3)"><stop offset="0" stop-color="#FFF"/><stop offset="1" stop-color="#8DD7F7"/></linearGradient><path fill-rule="evenodd" clip-rule="evenodd" fill="url(#ag)" d="M151.626 71.422c-.173-.693-1.732-.898-1.23-.692.52.212.512.95.777.77.265-.18.484.052.453-.078z"/><linearGradient id="ah" gradientUnits="userSpaceOnUse" x1="3236.356" y1="973.294" x2="3235.968" y2="975.737" gradientTransform="rotate(-116.4 1415.8 1482.3)"><stop offset="0" stop-color="#FFF"/><stop offset="1" stop-color="#8DD7F7"/></linearGradient><path fill-rule="evenodd" clip-rule="evenodd" fill="url(#ah)" d="M149.674 76.943c-.09-.016-.54.235-1.125.325-.49.075-1.02-.004-1.05.083-.05.11.12.44.23.61.19.28 1.91.51 2.26.19.13-.12-.15-1.13-.32-1.2z"/><linearGradient id="ai" gradientUnits="userSpaceOnUse" x1="3238.677" y1="970.861" x2="3240.047" y2="969.286" gradientTransform="rotate(-116.4 1415.8 1482.3)"><stop offset="0" stop-color="#FFF"/><stop offset="1" stop-color="#8DD7F7"/></linearGradient><path fill-rule="evenodd" clip-rule="evenodd" fill="url(#ai)" d="M146.773 77.044c.035.104-.728-.082-.898-.164-.09-.044-.175-.192-.2-.313-.002-.01.002-.024.017-.023.3.03.58.014.872-.01.037-.004.06.103.097.208l.12.302z"/><circle fill-rule="evenodd" clip-rule="evenodd" fill="#00ADEE" cx="151.42" cy="72.044" r=".555"/><linearGradient id="aj" gradientUnits="userSpaceOnUse" x1="3236.242" y1="972.92" x2="3235.325" y2="973.016" gradientTransform="rotate(-116.4 1415.8 1482.3)"><stop offset="0" stop-color="#FFF"/><stop offset="1" stop-color="#8DD7F7"/></linearGradient><path fill-rule="evenodd" clip-rule="evenodd" fill="url(#aj)" d="M148.692 78.172c-.07-.12-.006-.262.146-.32.152-.06.335-.01.405.108.073.118.006.26-.146.322-.152.058-.334.01-.405-.11z"/><circle fill-rule="evenodd" clip-rule="evenodd" fill="#8DD7F7" cx="149.266" cy="78.058" r=".069"/><circle fill-rule="evenodd" clip-rule="evenodd" fill="#8DD7F7" cx="150.861" cy="71.899" r=".185"/><circle fill-rule="evenodd" clip-rule="evenodd" fill="#8DD7F7" cx="151.9" cy="72.705" r=".185"/><circle fill-rule="evenodd" clip-rule="evenodd" fill="#00ADEE" cx="152.281" cy="73.519" r=".11"/><path fill-rule="evenodd" clip-rule="evenodd" fill="#FFF" d="M151.035 71.95c-.017-.037-.003-.08.033-.098.037-.017.08-.003.1.033.017.036.002.08-.035.098-.033.018-.08 0-.098-.033z"/><linearGradient id="ak" gradientUnits="userSpaceOnUse" x1="3241.196" y1="978.119" x2="3243.8" y2="975.124" gradientTransform="rotate(-116.4 1415.8 1482.3)"><stop offset="0" stop-color="#00ADEE"/><stop offset="1" stop-color="#0094D9"/></linearGradient><path fill-rule="evenodd" clip-rule="evenodd" fill="url(#ak)" d="M151.51 71.063c-.674-.543-.84-.5-1.107-.516-.233-.01-.534-.067-.836-.233-1.205-.665-2.48-.167-3.68.272 0 0 1.775-.892 3.105-.814 1.334.078 2.258.988 2.52 1.29z"/><linearGradient id="al" gradientUnits="userSpaceOnUse" x1="3236.69" y1="968.941" x2="3239.168" y2="963.376" gradientTransform="rotate(-116.4 1415.8 1482.3)"><stop offset="0" stop-color="#EBF7FD"/><stop offset="1" stop-color="#00ADEE"/></linearGradient><path fill-rule="evenodd" clip-rule="evenodd" fill="url(#al)" d="M147.15 78.25s-.237-.617-.924-.872c-1.292-.48-6.378.225-8.213 4.225 3.783-4.83 9.3-3.076 9.137-3.352z"/><linearGradient id="am" gradientUnits="userSpaceOnUse" x1="3236.613" y1="972.526" x2="3235.507" y2="977.319" gradientTransform="rotate(-116.4 1415.8 1482.3)"><stop offset="0" stop-color="#EBF7FD"/><stop offset="1" stop-color="#00ADEE"/></linearGradient><path fill-rule="evenodd" clip-rule="evenodd" fill="url(#am)" d="M148.97 78.482s.372-.546 1.1-.638c1.365-.17 2.167-1.16 2.878-2.22 0 0-.143.443-.53 1.013-.357.528-.94 1.06-1.506 1.358-1.176.624-1.958.49-1.943.487z"/><linearGradient id="an" gradientUnits="userSpaceOnUse" x1="3238.17" y1="970.635" x2="3240.794" y2="968.585" gradientTransform="rotate(-116.4 1415.8 1482.3)"><stop offset="0" stop-color="#FFF"/><stop offset="1" stop-color="#8DD7F7"/></linearGradient><path fill-rule="evenodd" clip-rule="evenodd" fill="url(#an)" d="M147.048 77.84c.044.132-.458-.034-.777-.27s-.42-.526-.22-.462c.21.06.75.194.81.26.06.07.19.468.2.473z"/><linearGradient id="ao" gradientUnits="userSpaceOnUse" x1="3243.698" y1="976.107" x2="3242.769" y2="976.14" gradientTransform="rotate(-116.4 1415.8 1482.3)"><stop offset="0" stop-color="#0094D9"/><stop offset="1" stop-color="#8DD7F7"/></linearGradient><path fill-rule="evenodd" clip-rule="evenodd" fill="url(#ao)" d="M148.206 70.064c-.062-.125.016-.264.173-.31s.33.018.39.14c.06.126-.02.262-.18.31-.16.046-.33-.017-.4-.14z"/><linearGradient id="ap" gradientUnits="userSpaceOnUse" x1="3240.658" y1="978.899" x2="3240.728" y2="979.901" gradientTransform="rotate(-116.4 1415.8 1482.3)"><stop offset="0" stop-color="#0082C7"/><stop offset="1" stop-color="#00ADEE"/></linearGradient><path fill-rule="evenodd" clip-rule="evenodd" fill="url(#ap)" d="M153.704 74.895s.934-1.752-.634-4.05c-1.565-2.298-4.605-1.797-4.605-1.797s3.47.066 4.61 2.364c1.145 2.298.63 3.483.63 3.483z"/><radialGradient id="aq" cx="1221.589" cy="-85.118" r="12.577" gradientTransform="rotate(-68.8 813.2 776.9)" gradientUnits="userSpaceOnUse"><stop offset="0" stop-color="#FFF"/><stop offset=".26" stop-color="#DCF1FC"/><stop offset=".5" stop-color="#81D1F4"/><stop offset="1" stop-color="#00ADEE"/></radialGradient><path fill-rule="evenodd" clip-rule="evenodd" fill="url(#aq)" d="M155.395 80.604c.076-.01.788-1.067 2.616-1.907.61-.278 1.66-.525 2.29-.623 1.83-.283 4.06-.284 5.51.276 1.79.69 3.29 2.913 2.63 4.662-.66 1.75-2.92 2.56-4.55 1.76-1.33-.658-2.18-1.688-3.47-2.96-2.29-1.962-4.27-1.3-5.01-1.208z"/><radialGradient id="ar" cx="1226.018" cy="-81.211" r="6.389" gradientTransform="rotate(-68.8 813.2 776.9)" gradientUnits="userSpaceOnUse"><stop offset="0" stop-color="#FFF"/><stop offset=".21" stop-color="#DCF1FC"/><stop offset=".44" stop-color="#81D1F4"/><stop offset=".78" stop-color="#0094D9"/><stop offset="1" stop-color="#00ADEE"/></radialGradient><path fill-rule="evenodd" clip-rule="evenodd" fill="url(#ar)" d="M155.867 80.386c1.113-1.128 2.72-2.05 6.08-2.395 1.353-.13 3.614.42 4.322.69 1.53.6 1.87 2.61 1.27 4.16-.61 1.55-2.37 2.32-3.9 1.72-1.36-.53-1.86-1.75-2.83-3.03-.66-.86-3.87-1.64-4.95-1.13z"/><linearGradient id="as" gradientUnits="userSpaceOnUse" x1="1226.692" y1="-86.275" x2="1224.093" y2="-77.211" gradientTransform="rotate(-68.8 813.2 776.9)"><stop offset="0" stop-color="#00ADEE"/><stop offset=".31" stop-color="#81D1F4"/><stop offset=".57" stop-color="#DCF1FC"/><stop offset="1" stop-color="#FFF"/></linearGradient><path fill-rule="evenodd" clip-rule="evenodd" fill="url(#as)" d="M156.91 79.718c.435.013 4.403-.264 5.136-.044 1.808.542.636 1.355-.297.903-.69-.333-.71-.33-1.22-.604-.54-.287-3.4-.2-3.63-.255z"/><radialGradient id="at" cx="1225.52" cy="-78.795" r="3.98" gradientTransform="rotate(-68.8 813.2 776.9)" gradientUnits="userSpaceOnUse"><stop offset="0" stop-color="#8DD7F7"/><stop offset=".138" stop-color="#82D2F5"/><stop offset=".383" stop-color="#63C3EE"/><stop offset=".705" stop-color="#33ACE4"/><stop offset="1" stop-color="#0094D9"/></radialGradient><path fill-rule="evenodd" clip-rule="evenodd" fill="url(#at)" d="M166.296 84.147c.292-.232 1.146-1.085 1.222-2.375.077-1.292-.566-2.02-1.334-2.49-.768-.468-1.44-.358-1.44-.358s2.324 1.697.988 3.738c-1.337 2.044-.32 2.197.564 1.485z"/><linearGradient id="au" gradientUnits="userSpaceOnUse" x1="1227.966" y1="-77.605" x2="1226.379" y2="-79.307" gradientTransform="rotate(-68.8 813.2 776.9)"><stop offset="0" stop-color="#0082C7"/><stop offset="1" stop-color="#00ADEE"/></linearGradient><path fill-rule="evenodd" clip-rule="evenodd" fill="url(#au)" d="M165.91 84.228c.377-.208 1.386-1.105 1.5-2.353.116-1.25-.57-2.03-1.338-2.5-.768-.47-1.33-.452-1.33-.452s1.73.884 2.105 2.23c.374 1.347-.937 3.075-.937 3.075z"/><linearGradient id="av" gradientUnits="userSpaceOnUse" x1="1224.909" y1="-80.049" x2="1224.838" y2="-78.689" gradientTransform="rotate(-68.8 813.2 776.9)"><stop offset="0" stop-color="#FFF"/><stop offset="1" stop-color="#8DD7F7"/></linearGradient><path fill-rule="evenodd" clip-rule="evenodd" fill="url(#av)" d="M162.867 82.082c-.03.06-.054.14-.07.208-.026.124.144.354.38.56.24.204.614.4.697.41.054.004.106-.14.17-.286.043-.096.1-.2.095-.286-.01-.048-.29-.09-.51-.192-.21-.098-.5-.27-.72-.436-.02-.017-.03-.012-.05.022z"/><linearGradient id="aw" gradientUnits="userSpaceOnUse" x1="1227.355" y1="-77.79" x2="1228.236" y2="-78.182" gradientTransform="rotate(-68.8 813.2 776.9)"><stop offset="0" stop-color="#8DD7F7"/><stop offset="1" stop-color="#00ADEE"/></linearGradient><path fill-rule="evenodd" clip-rule="evenodd" fill="url(#aw)" d="M166.304 80.163c.026-.018.26.214.448.49.232.335.383.736.367 1.015 0 .033-.07 0-.08.078-.01.022.02.18-.19.085-.02 0 .05-.24-.03-.68-.08-.46-.56-.96-.53-.98z"/><linearGradient id="ax" gradientUnits="userSpaceOnUse" x1="1226.717" y1="-77.044" x2="1227.637" y2="-77.665" gradientTransform="rotate(-68.8 813.2 776.9)"><stop offset="0" stop-color="#FFF"/><stop offset="1" stop-color="#8DD7F7"/></linearGradient><path fill-rule="evenodd" clip-rule="evenodd" fill="url(#ax)" d="M167.204 82.04c.25-.374-.316-1.19-.198-.868.12.333-.227.642-.03.69.198.047.18.248.228.18z"/><linearGradient id="ay" gradientUnits="userSpaceOnUse" x1="1224.07" y1="-80.254" x2="1223.826" y2="-78.709" gradientTransform="rotate(-68.8 813.2 776.9)"><stop offset="0" stop-color="#FFF"/><stop offset="1" stop-color="#8DD7F7"/></linearGradient><path fill-rule="evenodd" clip-rule="evenodd" fill="url(#ay)" d="M163.793 83.478c-.032-.048-.34-.15-.63-.386-.243-.195-.43-.475-.486-.457-.07.025-.15.245-.183.367-.05.208.574 1.108.873 1.14.113.012.47-.553.426-.664z"/><linearGradient id="az" gradientUnits="userSpaceOnUse" x1="1225.538" y1="-81.795" x2="1226.404" y2="-82.792" gradientTransform="rotate(-68.8 813.2 776.9)"><stop offset="0" stop-color="#FFF"/><stop offset="1" stop-color="#8DD7F7"/></linearGradient><path fill-rule="evenodd" clip-rule="evenodd" fill="url(#az)" d="M162.512 82.166c-.033.06-.27-.375-.306-.49-.017-.06.014-.164.062-.228.005-.005.013-.01.017 0 .115.15.24.276.377.403.016.02-.022.08-.057.14-.045.08-.093.18-.093.18z"/><circle fill-rule="evenodd" clip-rule="evenodd" fill="#00ADEE" cx="166.826" cy="82.209" r=".351"/><linearGradient id="aA" gradientUnits="userSpaceOnUse" x1="1223.999" y1="-80.493" x2="1223.421" y2="-80.432" gradientTransform="rotate(-68.8 813.2 776.9)"><stop offset="0" stop-color="#FFF"/><stop offset="1" stop-color="#8DD7F7"/></linearGradient><path fill-rule="evenodd" clip-rule="evenodd" fill="url(#aA)" d="M162.8 83.542c.026-.083.12-.114.212-.067.095.045.148.15.123.234-.024.08-.12.11-.214.06-.09-.05-.14-.16-.12-.24z"/><circle fill-rule="evenodd" clip-rule="evenodd" fill="#8DD7F7" cx="163.099" cy="83.763" r=".044"/><circle fill-rule="evenodd" clip-rule="evenodd" fill="#8DD7F7" cx="166.655" cy="81.886" r=".118"/><circle fill-rule="evenodd" clip-rule="evenodd" fill="#8DD7F7" cx="166.722" cy="82.715" r=".117"/><circle fill-rule="evenodd" clip-rule="evenodd" fill="#00ADEE" cx="166.503" cy="83.24" r=".07"/><circle fill-rule="evenodd" clip-rule="evenodd" fill="#FFF" cx="166.75" cy="82.007" r=".047"/><linearGradient id="aB" gradientUnits="userSpaceOnUse" x1="1227.132" y1="-77.207" x2="1228.777" y2="-79.099" gradientTransform="rotate(-68.8 813.2 776.9)"><stop offset="0" stop-color="#00ADEE"/><stop offset="1" stop-color="#0094D9"/></linearGradient><path fill-rule="evenodd" clip-rule="evenodd" fill="url(#aB)" d="M167.323 81.834c-.033-.547-.123-.606-.23-.737-.094-.115-.197-.278-.245-.49-.204-.847-.98-1.232-1.693-1.604 0 0 1.17.45 1.702 1.104.53.657.497 1.476.466 1.727z"/><linearGradient id="aC" gradientUnits="userSpaceOnUse" x1="1224.281" y1="-83.008" x2="1225.848" y2="-86.527" gradientTransform="rotate(-68.8 813.2 776.9)"><stop offset="0" stop-color="#EBF7FD"/><stop offset="1" stop-color="#00ADEE"/></linearGradient><path fill-rule="evenodd" clip-rule="evenodd" fill="url(#aC)" d="M162.106 82.854s.188-.373.016-.802c-.326-.808-2.82-2.886-5.47-2.04 3.868-.29 5.397 3.037 5.454 2.842z"/><linearGradient id="aD" gradientUnits="userSpaceOnUse" x1="1224.235" y1="-80.74" x2="1223.536" y2="-77.71" gradientTransform="rotate(-68.8 813.2 776.9)"><stop offset="0" stop-color="#EBF7FD"/><stop offset="1" stop-color="#00ADEE"/></linearGradient><path fill-rule="evenodd" clip-rule="evenodd" fill="url(#aD)" d="M162.774 83.804s.413-.06.766.243c.66.565 1.465.52 2.265.4 0 0-.27.123-.7.184-.4.06-.896.02-1.276-.12-.8-.28-1.06-.7-1.06-.7z"/><linearGradient id="aE" gradientUnits="userSpaceOnUse" x1="1225.217" y1="-81.937" x2="1226.876" y2="-83.233" gradientTransform="rotate(-68.8 813.2 776.9)"><stop offset="0" stop-color="#FFF"/><stop offset="1" stop-color="#8DD7F7"/></linearGradient><path fill-rule="evenodd" clip-rule="evenodd" fill="url(#aE)" d="M162.255 82.634c-.043.077-.178-.23-.203-.48-.022-.25.064-.422.12-.3.06.12.23.432.22.487-.006.06-.137.29-.137.3z"/><linearGradient id="aF" gradientUnits="userSpaceOnUse" x1="1228.714" y1="-78.477" x2="1228.125" y2="-78.457" gradientTransform="rotate(-68.8 813.2 776.9)"><stop offset="0" stop-color="#0094D9"/><stop offset="1" stop-color="#8DD7F7"/></linearGradient><path fill-rule="evenodd" clip-rule="evenodd" fill="url(#aF)" d="M166.386 79.864c.03-.082.128-.104.217-.05.087.054.135.163.103.245-.03.08-.13.1-.218.05-.09-.06-.135-.17-.102-.25z"/><linearGradient id="aG" gradientUnits="userSpaceOnUse" x1="1226.792" y1="-76.712" x2="1226.836" y2="-76.078" gradientTransform="rotate(-68.8 813.2 776.9)"><stop offset="0" stop-color="#0082C7"/><stop offset="1" stop-color="#00ADEE"/></linearGradient><path fill-rule="evenodd" clip-rule="evenodd" fill="url(#aG)" d="M166.466 84.49s1.218-.31 1.625-2.02c.41-1.71-1.12-2.92-1.12-2.92s1.45 1.65.86 3.164c-.58 1.512-1.36 1.776-1.36 1.776z"/><radialGradient id="aH" cx="-1171.735" cy="933.635" r="10.23" gradientTransform="rotate(-14.1 -3897.2 -4861)" gradientUnits="userSpaceOnUse"><stop offset="0" stop-color="#FFF"/><stop offset=".26" stop-color="#DCF1FC"/><stop offset=".5" stop-color="#81D1F4"/><stop offset="1" stop-color="#00ADEE"/></radialGradient><path fill-rule="evenodd" clip-rule="evenodd" fill="url(#aH)" d="M167.93 88.356c.045.046 1.08.02 2.497.837.47.27 1.132.85 1.49 1.222 1.052 1.078 2.103 2.554 2.416 3.78.383 1.51-.384 3.55-1.854 3.94-1.48.386-3.08-.734-3.32-2.19-.2-1.192.09-2.242.32-3.696.22-2.45-1.15-3.45-1.56-3.9z"/><radialGradient id="aI" cx="-1168.133" cy="936.811" r="5.197" gradientTransform="rotate(-14.1 -3897.2 -4861)" gradientUnits="userSpaceOnUse"><stop offset="0" stop-color="#FFF"/><stop offset=".21" stop-color="#DCF1FC"/><stop offset=".44" stop-color="#81D1F4"/><stop offset=".78" stop-color="#0094D9"/><stop offset="1" stop-color="#00ADEE"/></radialGradient><path fill-rule="evenodd" clip-rule="evenodd" fill="url(#aI)" d="M168.297 88.566c1.274.207 2.644.837 4.454 2.9.73.834 1.43 2.59 1.59 3.19.33 1.303-.84 2.472-2.16 2.803-1.31.33-2.65-.48-2.97-1.78-.28-1.15.29-2.05.68-3.31.27-.84-.73-3.34-1.58-3.81z"/><linearGradient id="aJ" gradientUnits="userSpaceOnUse" x1="-1167.585" y1="932.692" x2="-1169.699" y2="940.063" gradientTransform="rotate(-14.1 -3897.2 -4861)"><stop offset="0" stop-color="#00ADEE"/><stop offset=".31" stop-color="#81D1F4"/><stop offset=".57" stop-color="#DCF1FC"/><stop offset="1" stop-color="#FFF"/></linearGradient><path fill-rule="evenodd" clip-rule="evenodd" fill="url(#aJ)" d="M169.232 88.944c.196.293 2.25 2.794 2.45 3.382.494 1.454-.6 1.06-.738.23-.102-.61-.113-.62-.173-1.087-.05-.5-1.46-2.35-1.53-2.53z"/><radialGradient id="aK" cx="-1168.539" cy="938.775" r="3.239" gradientTransform="rotate(-14.1 -3897.2 -4861)" gradientUnits="userSpaceOnUse"><stop offset="0" stop-color="#8DD7F7"/><stop offset=".138" stop-color="#82D2F5"/><stop offset=".383" stop-color="#63C3EE"/><stop offset=".705" stop-color="#33ACE4"/><stop offset="1" stop-color="#0094D9"/></radialGradient><path fill-rule="evenodd" clip-rule="evenodd" fill="url(#aK)" d="M170.723 97.253c.29.083 1.257.247 2.15-.31.89-.56 1.068-1.328 1.02-2.058-.05-.73-.44-1.125-.44-1.125s-.028 2.34-2.013 2.417c-1.987.078-1.608.824-.717 1.076z"/><linearGradient id="aL" gradientUnits="userSpaceOnUse" x1="-1166.549" y1="939.743" x2="-1167.84" y2="938.359" gradientTransform="rotate(-14.1 -3897.2 -4861)"><stop offset="0" stop-color="#0082C7"/><stop offset="1" stop-color="#00ADEE"/></linearGradient><path fill-rule="evenodd" clip-rule="evenodd" fill="url(#aL)" d="M170.485 97.035c.317.152 1.385.397 2.267-.115.884-.51 1.077-1.334 1.025-2.065-.05-.73-.324-1.094-.324-1.094s.228 1.57-.487 2.45c-.717.89-2.48.83-2.48.83z"/><linearGradient id="aM" gradientUnits="userSpaceOnUse" x1="-1169.035" y1="937.756" x2="-1169.093" y2="938.862" gradientTransform="rotate(-14.1 -3897.2 -4861)"><stop offset="0" stop-color="#FFF"/><stop offset="1" stop-color="#8DD7F7"/></linearGradient><path fill-rule="evenodd" clip-rule="evenodd" fill="url(#aM)" d="M170.475 94.006c-.054.01-.118.03-.17.052-.095.04-.168.262-.19.515-.024.256.022.598.056.656.03.03.15 0 .27-.03.09-.02.18-.03.24-.08.03-.03-.07-.23-.11-.43-.03-.19-.05-.46-.05-.69 0-.02-.01-.02-.04-.02z"/><linearGradient id="aN" gradientUnits="userSpaceOnUse" x1="-1167.046" y1="939.593" x2="-1166.331" y2="939.274" gradientTransform="rotate(-14.1 -3897.2 -4861)"><stop offset="0" stop-color="#8DD7F7"/><stop offset="1" stop-color="#00ADEE"/></linearGradient><path fill-rule="evenodd" clip-rule="evenodd" fill="url(#aN)" d="M173.363 95.38c.027.008-.018.273-.11.53-.113.31-.31.6-.5.72-.022.014-.03-.04-.088-.016-.018.008-.106.104-.145-.08-.004-.018.19-.08.445-.34.27-.275.374-.825.398-.815z"/><linearGradient id="aO" gradientUnits="userSpaceOnUse" x1="-1167.564" y1="940.199" x2="-1166.817" y2="939.695" gradientTransform="rotate(-14.1 -3897.2 -4861)"><stop offset="0" stop-color="#FFF"/><stop offset="1" stop-color="#8DD7F7"/></linearGradient><path fill-rule="evenodd" clip-rule="evenodd" fill="url(#aO)" d="M172.548 96.86c.365-.008.64-.77.48-.54-.162.237-.53.153-.472.305.06.154-.078.238-.008.236z"/><linearGradient id="aP" gradientUnits="userSpaceOnUse" x1="-1169.716" y1="937.588" x2="-1169.915" y2="938.844" gradientTransform="rotate(-14.1 -3897.2 -4861)"><stop offset="0" stop-color="#FFF"/><stop offset="1" stop-color="#8DD7F7"/></linearGradient><path fill-rule="evenodd" clip-rule="evenodd" fill="url(#aP)" d="M169.984 95.277c.02-.042-.06-.295-.04-.6.016-.253.112-.508.074-.537-.052-.036-.236.015-.33.05-.162.066-.465.904-.344 1.118.047.08.587.05.64-.03z"/><linearGradient id="aQ" gradientUnits="userSpaceOnUse" x1="-1168.524" y1="936.337" x2="-1167.821" y2="935.528" gradientTransform="rotate(-14.1 -3897.2 -4861)"><stop offset="0" stop-color="#FFF"/><stop offset="1" stop-color="#8DD7F7"/></linearGradient><path fill-rule="evenodd" clip-rule="evenodd" fill="url(#aQ)" d="M170.25 93.81c-.056.006.123-.358.182-.434.03-.042.114-.067.18-.066 0 0 .012.003.01.01-.05.148-.07.29-.09.44-.003.02-.057.02-.116.026l-.165.023z"/><circle fill-rule="evenodd" clip-rule="evenodd" fill="#00ADEE" cx="172.257" cy="96.69" r=".285"/><linearGradient id="aR" gradientUnits="userSpaceOnUse" x1="-1169.777" y1="937.394" x2="-1170.246" y2="937.444" gradientTransform="rotate(-14.1 -3897.2 -4861)"><stop offset="0" stop-color="#FFF"/><stop offset="1" stop-color="#8DD7F7"/></linearGradient><path fill-rule="evenodd" clip-rule="evenodd" fill="url(#aR)" d="M169.475 94.65c.07-.02.132.025.145.11.014.082-.03.168-.1.19-.066.023-.13-.025-.144-.108-.013-.083.03-.168.1-.192z"/><circle fill-rule="evenodd" clip-rule="evenodd" fill="#8DD7F7" cx="169.469" cy="94.952" r=".036"/><path fill-rule="evenodd" clip-rule="evenodd" fill="#8DD7F7" d="M172.365 96.333c.054-.013.103.02.115.068.015.06-.018.11-.067.12-.052.02-.103-.02-.116-.07-.012-.05.018-.1.068-.11z"/><circle fill-rule="evenodd" clip-rule="evenodd" fill="#8DD7F7" cx="171.872" cy="96.86" r=".095"/><circle fill-rule="evenodd" clip-rule="evenodd" fill="#00ADEE" cx="171.421" cy="96.962" r=".056"/><circle fill-rule="evenodd" clip-rule="evenodd" fill="#FFF" cx="172.354" cy="96.545" r=".037"/><linearGradient id="aS" gradientUnits="userSpaceOnUse" x1="-1167.228" y1="940.068" x2="-1165.889" y2="938.528" gradientTransform="rotate(-14.1 -3897.2 -4861)"><stop offset="0" stop-color="#00ADEE"/><stop offset="1" stop-color="#0094D9"/></linearGradient><path fill-rule="evenodd" clip-rule="evenodd" fill="url(#aS)" d="M172.738 96.843c.348-.28.346-.368.38-.5.03-.115.093-.26.21-.394.466-.54.354-1.23.266-1.88 0 0 .253.99.07 1.65-.185.66-.744 1.02-.926 1.12z"/><linearGradient id="aT" gradientUnits="userSpaceOnUse" x1="-1169.545" y1="935.35" x2="-1168.271" y2="932.488" gradientTransform="rotate(-14.1 -3897.2 -4861)"><stop offset="0" stop-color="#EBF7FD"/><stop offset="1" stop-color="#00ADEE"/></linearGradient><path fill-rule="evenodd" clip-rule="evenodd" fill="url(#aT)" d="M169.604 93.866s.337-.05.54-.368c.38-.598.584-3.23-1.227-4.59 2.014 2.43.53 5.01.687 4.958z"/><linearGradient id="aU" gradientUnits="userSpaceOnUse" x1="-1169.584" y1="937.193" x2="-1170.153" y2="939.659" gradientTransform="rotate(-14.1 -3897.2 -4861)"><stop offset="0" stop-color="#EBF7FD"/><stop offset="1" stop-color="#00ADEE"/></linearGradient><path fill-rule="evenodd" clip-rule="evenodd" fill="url(#aU)" d="M169.288 94.756s.234.246.2.623c-.062.7.348 1.21.804 1.68 0 0-.208-.12-.453-.38-.23-.24-.44-.59-.52-.91-.19-.66-.04-1.04-.04-1.03z"/><linearGradient id="aV" gradientUnits="userSpaceOnUse" x1="-1168.784" y1="936.221" x2="-1167.434" y2="935.167" gradientTransform="rotate(-14.1 -3897.2 -4861)"><stop offset="0" stop-color="#FFF"/><stop offset="1" stop-color="#8DD7F7"/></linearGradient><path fill-rule="evenodd" clip-rule="evenodd" fill="url(#aV)" d="M169.82 93.86c-.07.01.067-.226.224-.36.152-.135.31-.157.255-.062-.06.095-.18.355-.23.377-.04.02-.26.045-.26.045z"/><linearGradient id="aW" gradientUnits="userSpaceOnUse" x1="-1165.941" y1="939.033" x2="-1166.419" y2="939.05" gradientTransform="rotate(-14.1 -3897.2 -4861)"><stop offset="0" stop-color="#0094D9"/><stop offset="1" stop-color="#8DD7F7"/></linearGradient><path fill-rule="evenodd" clip-rule="evenodd" fill="url(#aW)" d="M173.602 95.293c.07-.02.13.036.137.12 0 .082-.05.166-.12.183-.07.018-.13-.037-.14-.12-.01-.084.04-.166.11-.183z"/><linearGradient id="aX" gradientUnits="userSpaceOnUse" x1="-1167.505" y1="940.47" x2="-1167.469" y2="940.985" gradientTransform="rotate(-14.1 -3897.2 -4861)"><stop offset="0" stop-color="#0082C7"/><stop offset="1" stop-color="#00ADEE"/></linearGradient><path fill-rule="evenodd" clip-rule="evenodd" fill="url(#aX)" d="M170.572 97.526s.78.662 2.105.125c1.325-.53 1.406-2.11 1.406-2.11s-.413 1.74-1.69 2.06c-1.28.33-1.82-.06-1.82-.06z"/><path fill="#D0D2D3" d="M96.633 100.958s-19.4 12.644-1.806 9.038"/><path fill="#FFF" d="M103.327 142.77s36.425 38.784 25.003 51.483c0 0 27.038-.604 25.948 7.458 0 0-2.706 2.42-3.912 0 0 0-.813 3.43-3.83-.2 0 0-1.813 3.63-4.23 0l-22.374-5.04s-1.205-1 3.125-2.62c0 0 8.173-2.13-2.426-20.87-10.6-18.74-17.3-30.2-17.3-30.2z"/><path fill="#FFF" d="M94.008 105.3c6.028-14.47 16.907-24.454 34.538-24.454 19.26 0 31.826 11.875 31.826 27.538 0 15.664-12.565 29.182-31.826 29.182-.724 0-1.44-.025-2.153-.058-.77 3.363-1.417 8.587.916 11.746 0 0 15.99 11.963 7.83 23.325.01-.09 2.1-19.92-13.17-23.45l2.77-12.49s-5.77-1.36-12.51-4.34v15.64s16.1 18.8 6.98 31.54c-15.95-.49-48.05-9.02-25.22-74.2z"/><path fill="#FFF" d="M128.546 137.565c19.26 0 31.826-13.518 31.826-29.182 0-15.662-12.565-27.538-31.826-27.538-17.63 0-28.51 9.985-34.538 24.455-22.826 65.175 9.27 73.71 25.22 74.196 4.756.143 9.79-1.87 9.79-1.87 3.732-2.078 4.533-2.83 6.125-5.048 8.164-11.362-7.834-23.325-7.834-23.325-2.34-3.16-1.69-8.383-.92-11.746.71.033 1.43.058 2.15.058z"/><path fill="#D0D2D3" d="M112.244 147.958v-15.645c6.738 2.976 12.505 4.332 12.505 4.332l-2.78 12.49c15.26 3.53 13.17 23.36 13.16 23.443-1.59 2.22-2.4 2.97-6.13 5.05 0 0-5.04 2.01-9.79 1.868 9.12-12.73-6.99-31.538-6.99-31.538z"/><ellipse fill="#D0D2D3" cx="128.819" cy="107.235" rx="29.637" ry="26.675"/><path fill="#A6A8AB" d="M105.76 105.236s8.78-29.724 38.212-20.017c0 0-28.117-13.18-38.212 20.01z"/><path fill="#6C6F71" d="M128.82 82.394s.997.078 2.08 7.193c1.082 7.116-.852 0-.852 0s-.18-5.21-1.6-6.83l.372-.363z"/><path fill="#FFF" d="M110.788 168.465s12.237 18.856-1.12 33.706c0 0 31.618-.7 30.344 8.73 0 0-3.163 2.83-4.575 0 0 0-.95 4.01-4.48-.23 0 0-2.116 4.25-4.944 0l-26.163-5.9s-1.41-1.18 3.655-3.06c0 0 14.77-9.43 2.376-31.35s4.91-1.88 4.91-1.88z"/><path fill="#CCC" d="M146.44 201.11s-.768-3.116-6.364-2.24c0 0 5.54-1.766 6.365 2.24z"/><path fill="#D0D2D3" d="M150.27 201.11s.235-3.9-3.83-2.628c0 0 3.123-.612 3.83 2.628zm-19.31 8.604s-.89-4.36-6.926-2.003c0 0 6.574-3.77 6.927 2.01zm4.284 0s-.32-3.854-2.633-2.595c0 0 1.74-.47 2.64 2.59z"/><path fill="#FFF" d="M145.994 184.668l-.047.004-.02.002.067-.006z"/><path fill="#D0D2D3" d="M161.912 197.774l-.36.28-.044.035c-.958.75-1.155 2.13-.43 3.12.74 1.01 2.16 1.23 3.173.49l1.09-.8.13-.1c.04-1.88-1.68-3.18-3.55-3.04zm-17.94-74.074s4.487 13.057 10.338-2.855"/><path fill="#6C6F71" d="M108.082 113.488s-4.176-22.742 22.82-28.698c0 0 19.204-2.397 24.337 15.704 0 0 3.5 20.342-7.56 24.907 0 0-17.02-10.75-32.18 1.32 0 0-6.27-3.17-7.43-13.23z"/><linearGradient id="aY" gradientUnits="userSpaceOnUse" x1="108.524" y1="105.237" x2="155.238" y2="105.237"><stop offset="0" stop-color="#92211E"/><stop offset="1" stop-color="#ED2724"/></linearGradient><path fill="url(#aY)" d="M147.553 124.035c4.31-.977 7.686-9.45 7.686-16.497 0-13.24-7.41-22.42-21.4-22.42s-25.32 10.732-25.32 23.972c0 6.28 2.55 11.99 6.72 16.268 4.49-3.853 8.95-5.776 15.49-5.776 7.35 0 8.85-.424 16.81 4.457z"/><path fill="#1D8FCD" d="M124.75 80.77s2.05-2.585 5.3-.21c0 0 .015 1.448-1.23 2.607 0 0-1.636-2.086-4.07-2.396z"/><path fill="#FFF" d="M128.196 82.028s-.335-.64-1.496-1.017c0 .01-.05-1.4 1.496 1.02z"/><path fill="#919496" d="M145.872 127.208s2.658 3.957 5.542-.49c0 0 2.575-4.45 3.426-7.583 0 0-4.292 10.018-6.535 9.012 0 0-.378.095-2.433-.94zm-35.934-3.226s4.303 8.767 10.042 1.226c0 0-5.402 9.732-10.042-1.226z"/><path fill="#74020D" d="M131.467 99.085c-.617 1.45.23 3.252.76 4.16.396.48.635 1.082.635 1.735 0 1.58-1.38 2.863-3.08 2.863s-3.08-1.282-3.08-2.863c0-.583.188-1.126.512-1.58 1.62-2.375 1.258-3.61.35-4.25-4.85.926-8.498 4.933-8.498 9.736 0 5.49 4.765 9.94 10.642 9.94 5.878 0 10.64-4.452 10.64-9.94 0-4.928-3.84-9.017-8.88-9.8z"/><path fill="#EF4B4D" d="M123.744 111.324s8.807-7.735 11.5 4.64c0 0 1.66-5.327-2.383-7.028 0 0 11.72-2.408 3.84 11.283 0 0-5.13-.51-8.5.03 0 0-5.65-1.35-4.45-8.93z"/><path fill="#FFF" d="M89.085 126.09s-21.816 12.793-13.02 41.858c0 0-7.117 7.636.465 12.78 0 0 3.307.04-.463-5.335l.933-1.565s-.246 3.433 4.592 6.94c0 0 3.698-1.565-.86-4.163l-1.29-3.034s.818-.93 1.836-.59c.795.27.542 1.13 1.327 2.28 0 0 .762.82 1.38-.92 0 0 1.308-2.79-1.47-3.41 0 0-.125-2.89-3.085-3.89 0 0-8.782-19.04 18.858-42.42l-3.17-2.67-6.033 4.17z"/><path fill="#D0D2D3" d="M91.652 130.823l-5.575 12.948.347-6.76s3.386-4.31 5.228-6.18z"/><path d="M88.96 39.756l-5.31 27.02-7.953-.184L74.16 49.74l-2.542 16.298-7.257-.062-3.23-27.922 6.09.062 2.05 21.587 2.56-20.543 4.62-.02 2.46 21.757 4.18-21.875 5.88.74zm20.995 24.95l-6.09.8-1.885-5.495-6.786 1.44-.554 4.78-6.13-.23 5.002-27.74 5.535-.2 10.908 26.65zm-9.226-9.123l-3.61-10.23-1.38 11.193 4.98-.963zm29.52 9.123l-6.09.8-1.89-5.495-6.79 1.44-.56 4.78-6.13-.22 5-27.74 5.53-.2 10.9 26.65zm-9.23-9.123l-3.61-10.23-1.38 11.193 4.98-.963zm29.52 9.123l-6.09.8-1.89-5.495-6.79 1.44-.56 4.78-6.12-.23 5-27.74 5.53-.2 10.9 26.65zm-9.23-9.123l-3.61-10.23-1.38 11.193 4.98-.963zm28.99 9.227l-6.11.82L163 53.554l-6.23.554.797 11.89-4.896.698-2.13-27.84 5.95-.288.84 10.538 6.13-.492-.98-10.702 5.7-.78 2.13 27.677zm8.96-4.327L179 66.14l-5.123-.59.246-5.495 5.146.43zm1.23-22.264l-2.22 19-3.43.28.14-19.19 5.49-.1z" fill="#A3E1EF"/></svg>