<svg xmlns="http://www.w3.org/2000/svg" width="250" height="250" viewBox="0 0 250 250"><path opacity=".15" d="M212.904 98.267c2.138-1.12 5.718-2.995 5.718-8.514 0-4.382-2.563-7.25-7.62-8.52-1.053-.266-2.07-.4-3.025-.4-4.066 0-6.635 2.41-7.51 5.192-.853-.577-1.798-.98-2.78-1.122l.012-.057-3.88-.418c-1.83-.2-2.8-.284-4.47-.412.04-.285.07-.573.07-.868 0-3.23-2.62-5.958-5.84-6.08-.08-.004-.15-.005-.23-.005-3.22 0-5.85 2.646-5.85 5.896 0 .24.02.48.05.72l-.2.95c-.96-.79-2.24-1.34-3.94-1.34h-.17c-1.62.03-3.23.42-4.73 1.18l1.61-7.73-5.13 1c-1.88.36-2.81.55-4.69.95l-2.21.47-1.15 5.44c-1.36.16-2.63.54-3.78 1.13l.17-.84-4.79.57c-1.82.22-2.72.33-4.54.57l-2.41.31-.01.03c-3.32.47-5.77 2.09-7.51 4.31-1.18-1.43-2.9-2.38-4.79-2.47l1.51-7.31-12.15 3.47-1.23 5.94c-.52-.12-1.09-.18-1.72-.18-.51 0-1.04.04-1.61.12-1.2.17-2.29.5-3.28.95l.07-.39-1.77.23 1.24-5.8-5.46 1.43c-1.84.48-2.75.72-4.59 1.18l-2.1.53-.87 4.08-1.2.12c-1.78.18-2.67.27-4.45.42l-2.52.22v.02c-2.96.29-5.44 1.58-7.29 3.69-1.19-1.7-3.07-2.9-5.12-3.08l1.5-6.86-4.89.66c-.36.05-.68.09-.98.13l.58-1.46-4.83-.18c-.85-.03-1.28-.05-2.14-.09l-2.56-.13-.99 2.7V85.9l-3.13-.308c-1.59-.157-2.35-.243-3.86-.438l-2.76-.358s-1.01 2.81-1.04 2.9v-.32l-.06-2.633-2.54-.674c-.42-.12-.91-.25-1.44-.35-1.05-.21-2.12-.31-3.2-.31-6.78 0-11.9 3.92-11.9 9.12 0 3.98 4.19 7.47 6.73 7.47.46 0 .91-.09 1.32-.25v12.96l2.71.6c1.82.4 2.77.6 4.63.94l2.72.49.74-1.73v1.85l3.02.39c1.81.24 2.76.34 4.62.52l1.46.14-.01.04 3.66.21c-5.09 4.35-9 9.7-11.28 15.5-4.4.5-7.61 1.97-9.55 4.37-1.99 2.46-1.93 4.99-1.82 5.91.2 2.91 1.89 6.82 8.44 9.77.6 1.66 1.69 4.4 3.28 7.18-3.18 6.78-7.38 17.44-4.93 22.17.8 1.54 2.17 2.54 3.87 2.81l.73.12L95.3 172.9c1.78.16 3.51.3 5.27.42 5.79.39 12.13.58 18.82.58 2.44 0 4.97-.03 7.52-.08.85.01 1.68.02 2.49.02 10.22 0 17.83-1.25 23.2-3.83 4.32 1.24 8.28 1.87 11.79 1.87 4.82 0 8.45-1.18 11.17-2.82-.8 1.73-1.21 3.63-.31 5.32.67 1.26 1.97 2.08 3.36 2.13l.84.03 21.89-10.31c.44.07.87.11 1.28.11 1.71 0 3.2-.68 4.2-1.9.29-.35.52-.72.69-1.1 1.92-.35 2.92-1.46 3.37-2.17.12-.18.22-.37.31-.56 1.91-.96 3.09-3.06 3.47-5.16l.23-1.26-.644-1.11c-1.33-2.29-3.68-3.55-6.62-3.55-4.29 0-9.97 2.79-14.92 5.86l3.28-15.16c1.73-1.62 2.04-3.3 1.96-4.51-.05-.72-.25-1.36-.525-1.92.56-1.11.7-2.24.42-3.38-.09-.36-.22-.7-.38-1.01.5-2.75-1.35-5.04-1.94-5.68l-.86-.95-1.27-.16c-.29-.04-.59-.06-.88-.06-5.45 0-7.94 5.87-9.13 11.64-3.03-16.48-9.39-24.69-12.59-27.92 1.93-.36 3.43-1.68 4.65-3.34 1.2 1.91 3.41 3.08 6.26 3.16h.16c.14 0 .29-.01.44-.02l3.1.16c1.79.09 2.65.15 4.39.3l3.05.26.3-1.41c1.04 1.06 2.48 1.76 4.23 2.01.19.03.4.04.6.04 1.1 0 2.25-.48 3.27-1.15.95 1.22 2.3 2.14 3.86 2.47.42.09.84.13 1.25.13 1.48 0 2.85-.56 3.86-1.58 1-1.02 1.55-2.4 1.55-3.89 0-1.22-.38-2.39-1.01-3.4l.12-.34c.18-.5.61-.78 1.98-1.5z"/><path fill="#652D90" d="M210.86 95.202c2.14-1.12 5.72-2.995 5.72-8.514 0-4.382-2.564-7.25-7.62-8.52-1.055-.266-2.07-.4-3.026-.4-4.066 0-6.635 2.41-7.51 5.193-.853-.57-1.798-.97-2.78-1.12l.012-.05-3.873-.41c-1.833-.2-2.798-.28-4.47-.41.043-.28.07-.57.07-.86 0-3.23-2.618-5.96-5.837-6.08h-.224c-3.222 0-5.843 2.65-5.843 5.9 0 .25.01.49.04.73l-.2.96c-.96-.79-2.24-1.34-3.94-1.34h-.16c-1.62.04-3.23.43-4.73 1.19l1.61-7.73-5.13 1c-1.88.36-2.81.56-4.69.96l-2.21.47-1.15 5.44c-1.36.16-2.63.55-3.78 1.14l.17-.84-4.79.57c-1.81.22-2.72.33-4.53.56l-2.41.32-.01.04c-3.32.48-5.77 2.09-7.51 4.32-1.18-1.42-2.9-2.37-4.79-2.46l1.51-7.31-12.15 3.46-1.23 5.95c-.52-.11-1.09-.18-1.71-.18-.5 0-1.04.04-1.61.12-1.2.18-2.29.5-3.29.96l.07-.38-1.77.23 1.24-5.79-5.46 1.44c-1.84.48-2.75.72-4.59 1.19l-2.1.53-.87 4.08-1.2.12c-1.78.19-2.67.27-4.44.43l-2.53.22-.01.02c-2.96.3-5.44 1.59-7.3 3.69-1.2-1.7-3.07-2.9-5.13-3.08l1.5-6.9-4.89.66c-.36.05-.68.09-.98.13l.57-1.49-4.83-.17c-.85-.03-1.28-.05-2.13-.09l-2.56-.13-.99 2.7V82.9l-3.13-.31c-1.59-.16-2.35-.244-3.86-.44l-2.76-.36s-1.01 2.81-1.04 2.9l-.01-.32-.07-2.63-2.52-.69c-.42-.115-.9-.24-1.44-.35-1.04-.206-2.12-.31-3.2-.31-6.78 0-11.9 3.92-11.9 9.12 0 3.977 4.19 7.467 6.73 7.467.46 0 .91-.082 1.32-.25v12.97l2.72.6c1.82.4 2.77.6 4.63.94l2.73.5.74-1.73v1.84l3.02.39c1.81.23 2.76.34 4.62.52l1.46.14-.01.05 3.66.21c-5.09 4.34-9.01 9.69-11.28 15.5-4.41.51-7.62 1.97-9.56 4.37-1.99 2.46-1.93 4.99-1.82 5.91.2 2.91 1.89 6.82 8.44 9.77.6 1.663 1.69 4.4 3.28 7.183-3.18 6.773-7.38 17.44-4.93 22.164.79 1.54 2.17 2.54 3.87 2.818l.73.12 42.46-11.09c1.77.168 3.5.3 5.27.42 5.79.39 12.12.59 18.81.59 2.44 0 4.97-.024 7.52-.075.85.02 1.68.02 2.49.02 10.22 0 17.84-1.25 23.2-3.83 4.32 1.24 8.29 1.87 11.8 1.87 4.82 0 8.45-1.18 11.17-2.81-.79 1.74-1.21 3.63-.3 5.32.67 1.268 1.97 2.08 3.36 2.13l.84.03 21.89-10.31c.44.08.86.117 1.28.117 1.71 0 3.2-.675 4.2-1.9.29-.35.51-.72.69-1.1 1.92-.35 2.91-1.46 3.37-2.163.12-.18.22-.37.31-.56 1.9-.95 3.09-3.06 3.47-5.15l.23-1.26-.65-1.1c-1.33-2.28-3.69-3.54-6.62-3.54-4.3 0-9.98 2.8-14.93 5.87l3.29-15.17c1.73-1.62 2.04-3.3 1.95-4.51-.05-.72-.25-1.36-.53-1.92.56-1.11.7-2.24.43-3.38-.09-.36-.22-.7-.38-1.01.5-2.74-1.36-5.04-1.94-5.68l-.86-.94-1.27-.16c-.3-.04-.6-.05-.89-.05-5.45 0-7.94 5.87-9.13 11.64-3.03-16.47-9.38-24.69-12.59-27.92 1.94-.36 3.43-1.68 4.65-3.34 1.21 1.92 3.41 3.08 6.26 3.16h.16c.15 0 .29 0 .44-.01l3.1.16c1.79.09 2.65.15 4.39.3l3.05.25.3-1.41c1.04 1.06 2.47 1.76 4.23 2.01.19.03.39.05.6.05 1.1 0 2.25-.49 3.27-1.15.94 1.22 2.29 2.14 3.86 2.47.41.08.83.13 1.24.13 1.48 0 2.85-.57 3.86-1.59 1-1.02 1.55-2.4 1.55-3.89 0-1.22-.38-2.39-1.01-3.4l.12-.34c.18-.5.6-.78 1.97-1.5z"/><path fill="#FAAF40" d="M46.46 103.617c2.623-7.163 3.934-10.783 6.556-18.087 1.587.206 2.38.294 3.966.45v19.11c2.3-6.193 4.578-12.395 6.84-18.603.874.044 1.31.063 2.185.093-2.866 7.577-5.756 15.143-8.68 22.695-1.8-.172-2.7-.272-4.498-.508V92.874c-2.53 6.028-3.79 9.01-6.31 14.907-1.8-.33-2.7-.51-4.5-.91V85.54c-3.41.31-5.15 2.23-5.15 5.66 0 1.6.45 2.23.43 2.248-.3.254-3.34-1.728-3.34-3.976 0-4.154 5.74-6.433 10.96-5.407.43.086.84.195 1.25.3.11 7.706.16 11.557.28 19.258zm30.006 1.273c-.092.377-.155.718-.155 1 0 .688.35 1.15 1.57 1.11 1.25-.04 2.88-1.857 4.12-2.923.43-.022.64-.035 1.06-.06-1.43 1.52-4.96 5.835-7.4 5.888-2.43.05-3.87-1.024-3.87-3.367 0-.5.07-.996.19-1.588.48-2.248.72-3.375 1.19-5.628.06-.28.09-.56.09-.81 0-1.124-.59-1.838-1.43-1.838-.75 0-1.31.216-1.93.647-1.07 5.04-1.61 7.55-2.68 12.56-1.79-.05-2.69-.08-4.49-.19 1.52-7.01 3.03-14.02 4.53-21.04 1.85-.2 2.78-.31 4.62-.56l-1.68 7.9c1.28-.89 2.72-1.64 4.06-1.66 1.69-.02 3.59 1.73 3.59 3.82 0 .25 0 .5-.06.75l-1.28 6z"/><path fill="#FAAF40" d="M94.546 93.052l-2.248 10.84c-.063.35-.126.697-.126.98 0 .687.314 1.157 1.562 1.033 1.25-.126 2.874-2.048 4.123-3.187.425-.05.636-.072 1.06-.122-1.436 1.604-4.963 6.14-7.4 6.365-2.028.19-3.808-2.04-3.808-2.04-.15-.02-2.35 2.74-4.25 2.86-3 .18-3.87-1.92-3.87-3.77 0-5.37 1.93-11.81 8.18-12.3.75-.06 1.53.19 2.09.61.07-.33.11-.49.19-.82 1.79-.15 2.69-.24 4.49-.43zm-10.74 11.887c0 1.87 1.03 2.15 1.812 2.09.716-.05 1.72-.92 1.997-1.71.08-.23.093-.67.188-1.05l1.75-8.42c-.5-.4-1.094-.47-1.53-.44-2.343.18-4.217 5.26-4.218 9.51z"/><path fill="#FAAF40" d="M103.82 87.038s-.467 2.184-1.06 5.07c.75-.096 1.124-.144 1.872-.242l-.25 1.285c-.75.1-1.123.15-1.872.24-2.155 10.14-2.126 10.44-2.126 10.6 0 .72.314 1.15 1.563.99 1.25-.15 2.873-2.11 4.122-3.27.42-.05.63-.08 1.06-.14-1.44 1.64-4.97 6.25-7.4 6.53-2.41.29-3.88-.62-3.88-2.97 0-1.65 1.62-8.44 2.15-11.19l-1.03.12.25-1.27 1.03-.12.93-4.42c1.85-.46 2.77-.7 4.62-1.19z"/><path fill="#FAAF40" d="M114.28 92.746c0-.75-.467-.99-1.155-.893-2.622.378-4.308 5.698-4.308 9.07 0 1.844.375 3.292 2.28 3.022 2.216-.313 3.995-1.886 5.433-3.72l1.06-.157c-1.498 1.908-3.184 6.08-8.71 6.842-2.592.36-4.278-.863-4.277-4.548 0-4.558 1.967-10.816 8.023-11.686 1.687-.243 3.437-.063 3.437 1.656 0 .34-.088 1.02-.158 1.053-.038.017-.406-.13-.78-.074-.28.05-1 .34-1 .34-.028-.02.156-.65.156-.9z"/><path fill="#FAAF40" d="M128.893 98.97c-.094.386-.154.74-.154 1.02 0 .687.34 1.104 1.56.922 1.25-.184 2.87-2.166 4.12-3.345.42-.062.63-.094 1.06-.153-1.44 1.64-4.97 6.31-7.4 6.672-2.44.363-3.88-.484-3.88-2.828 0-.5.06-1.006.18-1.616l1.18-5.8c.06-.292.09-.576.09-.827 0-1.123-.59-1.753-1.43-1.625-.75.112-1.31.417-1.94.947l-2.69 13.016c-1.8.27-2.7.4-4.5.666l4.53-21.91 4.62-1.32c-.68 3.26-1.01 4.89-1.69 8.15 1.28-1.1 2.71-2.06 4.06-2.27 1.68-.25 3.59 1.27 3.59 3.37 0 .25 0 .5-.06.75l-1.28 6.15z"/><path fill="#FAAF40" d="M146.976 85.875l-2.25 10.893c-.062.35-.127.7-.127.98 0 .69.31 1.147 1.56.993 1.25-.15 2.87-2.08 4.12-3.22.42-.04.63-.07 1.06-.11-1.44 1.59-4.96 6.15-7.4 6.46-2.03.26-3.81-1.87-3.81-1.87-.15-.02-2.35 2.88-4.25 3.15-3 .43-3.87-1.56-3.87-3.41 0-5.37 1.93-12.11 8.18-12.95.74-.1 1.53.11 2.09.51l.18-.83c1.79-.23 2.69-.35 4.49-.56zm-10.744 12.4c0 1.875 1.03 2.072 1.812 1.963.718-.1 1.718-1.012 2-1.833.076-.233.092-.668.186-1.055.7-3.404 1.047-5.107 1.745-8.508-.498-.37-1.09-.417-1.528-.36-2.34.316-4.215 5.548-4.215 9.794z"/><path fill="#FAAF40" d="M163.648 78.093c-1.425 6.83-2.135 10.25-3.56 17.102-.062.35-.158.698-.158 1.01 0 .688.344 1.125 1.563 1.04 1.248-.085 2.874-1.93 4.123-2.992.426-.02.636-.032 1.062-.05-1.437 1.5-4.965 5.857-7.4 6.05-2.028.16-3.78-2.05-3.78-2.05-.145-.024-2.34 2.782-4.246 2.987-2.998.32-3.87-1.69-3.87-3.53 0-5.372 1.936-12.093 8.182-12.67.748-.068 1.528.175 2.092.594.548-2.62.823-3.927 1.373-6.544 1.84-.397 2.77-.587 4.61-.947zm-12.052 18.25c0 1.874 1.03 2.106 1.81 2.03.72-.074 1.723-.955 2-1.754.08-.23.093-.67.188-1.05.698-3.38 1.05-5.06 1.75-8.43-.5-.4-1.094-.47-1.53-.43-2.345.21-4.218 5.38-4.218 9.63z"/><path fill="#FAAF40" d="M175.077 88.253c.065.154.47.28.907.282 1.468.006 2.12-1.042 3.276-1.484.05.27.077.4.128.66-.97 1.2-3.915 2.11-4.405 2.7-1.753 2.09-3.995 9.4-7.118 9.52-3.342.14-4.778-1.16-4.778-4.87 0-7.68 3.904-11.24 8.214-11.34 2.97-.06 3.22 3.25 3.78 4.55zm-2.404 2.485c-.148-.166-1.313-.63-1.313-1.38 0-.904 1.2-1.932 1.375-2.21.214-.35-.437-1.62-1.312-1.6-2.934.062-4.184 6.503-4.184 9 0 1.875.87 2.334 2.09 2.294 1.9-.06 3.69-5.715 3.34-6.104z"/><path fill="#FAAF40" d="M182.852 84.15c-.9 4.204-1.347 6.31-2.246 10.526-.063.34-.127.684-.127.966 0 .687.31 1.19 1.56 1.242 1.25.052 2.87-1.604 4.12-2.516.42.03.64.045 1.06.078-1.44 1.326-4.97 5.27-7.4 5.203-2.41-.07-3.9-1.13-3.9-3.47 0-.47.06-1 .18-1.59L178.35 84c1.797.03 2.697.06 4.494.143zm-1.437-6.678c1.373.05 2.5 1.238 2.5 2.612 0 1.375-1.127 2.403-2.5 2.352-1.374-.053-2.466-1.168-2.466-2.54 0-1.377 1.09-2.477 2.46-2.424z"/><path fill="#FAAF40" d="M195.875 100.986c-2.03-.29-3.186-1.48-3.186-3.822 0-.5.06-.988.18-1.566.47-2.19.71-3.29 1.19-5.475.06-.273.09-.55.09-.8 0-1.124-.6-1.92-1.44-2.02-.75-.088-1.31.068-1.97.438l-2.66 12.37c-1.8-.15-2.7-.21-4.5-.3 1.32-6.17 1.98-9.25 3.31-15.4 1.8.14 2.69.22 4.49.41l-.38 1.65c1.28-.8 2.72-1.37 4.09-1.18 1.72.24 3.59 2.36 3.59 4.48 0 .25-.03.47-.06.71-.14.99-1.5 6.29-1.5 6.98 0 .54.25 1.01 1.16 1.16.22.04.81.04.81.04.23.27-2.19 2.52-3.25 2.36zm7.96 1.41c-1.374-.29-2.496-1.627-2.496-3 0-1.374 1.12-2.255 2.49-1.963 1.37.29 2.47 1.643 2.47 3.018 0 1.38-1.1 2.24-2.47 1.95zm1.782-6.85c-.824-.188-1.237-.278-2.063-.45 0-4.404 5.684-4.69 5.684-9.435 0-1.53-.813-2.36-1.718-2.59-1.188-.29-2.498.45-2.498 2.01 0 .72 1.147 2.17 1.188 2.33.054.22-1.408.99-2.283.8-1.217-.26-2.37-1.35-2.37-3.1 0-2.12 1.843-4.76 6.557-3.57 4.276 1.08 4.996 3.07 4.996 5.16 0 6.03-5.963 4.56-7.493 8.86zm-159.157 8.07c2.625-7.16 3.937-10.78 6.56-18.085 1.587.21 2.38.3 3.968.46v19.11c2.737-7.37 4.104-11.09 6.84-18.6.875.04 1.31.06 2.186.09-2.875 7.58-5.77 15.14-8.683 22.7-1.79-.17-2.69-.27-4.49-.51v-15.9c-2.52 6.03-3.78 9.02-6.31 14.91-1.8-.33-2.7-.51-4.5-.91V85.55c-3.4.302-5.15 2.224-5.15 5.66 0 1.59.46 2.226.44 2.24-.29.254-3.34-1.73-3.34-3.98 0-4.15 5.75-6.43 10.97-5.403.44.088.85.196 1.25.3l.28 19.258zm30.013 1.272c-.094.377-.156.723-.156 1.004 0 .687.343 1.15 1.56 1.11 1.25-.042 2.875-1.862 4.124-2.928.43-.023.64-.033 1.07-.057-1.43 1.52-4.96 5.835-7.4 5.887-2.43.052-3.87-1.02-3.87-3.362 0-.5.07-1 .19-1.593l1.19-5.63c.06-.29.09-.57.09-.82 0-1.13-.59-1.84-1.43-1.84-.75 0-1.31.21-1.93.64-1.07 5.03-1.61 7.54-2.68 12.56-1.79-.05-2.7-.09-4.49-.2l4.53-21.04c1.85-.2 2.77-.31 4.62-.56-.67 3.16-1.01 4.73-1.69 7.89 1.28-.9 2.72-1.65 4.07-1.67 1.69-.02 3.59 1.73 3.59 3.82 0 .25 0 .5-.06.75-.51 2.4-.76 3.6-1.28 6z"/><path fill="#FAAF40" d="M94.555 93.052l-2.25 10.84c-.062.348-.124.698-.124.98 0 .686.32 1.158 1.57 1.033s2.87-2.047 4.12-3.188l1.07-.122c-1.43 1.604-4.96 6.14-7.4 6.367-2.03.188-3.81-2.048-3.81-2.048-.14-.026-2.34 2.74-4.25 2.854-3 .18-3.87-1.926-3.87-3.768 0-5.37 1.94-11.81 8.18-12.3.75-.058 1.53.187 2.09.607.08-.33.12-.495.19-.827 1.8-.156 2.7-.244 4.5-.428zM83.81 104.94c0 1.872 1.03 2.15 1.813 2.096.718-.05 1.724-.917 2-1.707.08-.23.093-.67.186-1.05l1.75-8.42c-.5-.4-1.1-.47-1.54-.44-2.35.18-4.22 5.26-4.22 9.51z"/><path fill="#FAAF40" d="M103.825 87.04s-.468 2.18-1.062 5.066c.75-.094 1.125-.142 1.874-.238l-.25 1.28-1.874.24c-2.154 10.137-2.123 10.44-2.123 10.597 0 .718.312 1.15 1.56.995 1.25-.155 2.874-2.113 4.123-3.28.425-.055.636-.084 1.062-.142-1.437 1.63-4.964 6.244-7.4 6.532-2.404.285-3.872-.624-3.872-2.966 0-1.655 1.624-8.452 2.154-11.2-.412.048-.618.07-1.03.115.1-.52.148-.77.25-1.28.412-.05.62-.07 1.032-.12l.93-4.42c1.85-.47 2.77-.7 4.62-1.19z"/><path fill="#FAAF40" d="M114.283 92.746c0-.75-.468-.992-1.154-.894-2.63.378-4.31 5.698-4.31 9.07 0 1.842.37 3.292 2.28 3.022 2.21-.314 3.99-1.886 5.43-3.722l1.06-.157c-1.5 1.908-3.19 6.08-8.71 6.844-2.59.35-4.28-.87-4.28-4.55 0-4.56 1.96-10.82 8.02-11.69 1.68-.24 3.43-.07 3.43 1.65 0 .34-.09 1.02-.16 1.05-.04.02-.41-.13-.79-.07-.28.04-1 .33-1 .33-.03-.03.15-.65.15-.9z"/><path fill="#FAAF40" d="M128.895 98.97c-.095.388-.156.74-.156 1.022 0 .687.34 1.103 1.56.922 1.25-.184 2.87-2.17 4.12-3.35l1.06-.15c-1.44 1.642-4.97 6.31-7.4 6.672s-3.87-.482-3.87-2.825c0-.5.06-1 .19-1.62l1.18-5.79c.06-.29.09-.57.09-.82 0-1.12-.6-1.75-1.44-1.62-.75.12-1.32.42-1.94.95l-2.69 13.02c-1.8.27-2.7.41-4.5.67l4.53-21.9c1.84-.52 2.77-.79 4.62-1.32-.68 3.26-1.01 4.9-1.69 8.16 1.28-1.1 2.71-2.06 4.06-2.26 1.68-.25 3.59 1.28 3.59 3.37 0 .25 0 .5-.07.76-.51 2.46-.77 3.69-1.28 6.15z"/><path fill="#FAAF40" d="M146.97 85.875c-.9 4.354-1.35 6.53-2.248 10.89-.062.353-.125.704-.125.985 0 .687.313 1.146 1.563.994 1.248-.15 2.87-2.09 4.12-3.226l1.06-.113c-1.436 1.59-4.962 6.147-7.397 6.457-2.03.258-3.812-1.876-3.812-1.876-.14-.025-2.34 2.88-4.24 3.15-2.99.423-3.87-1.567-3.87-3.41 0-5.37 1.94-12.114 8.18-12.955.75-.1 1.53.11 2.09.5l.19-.83c1.8-.23 2.7-.35 4.5-.56zm-10.74 12.402c0 1.874 1.03 2.07 1.81 1.963.72-.1 1.72-1.014 1.998-1.834.08-.233.095-.668.19-1.056l1.747-8.508c-.5-.37-1.093-.417-1.53-.358-2.34.315-4.216 5.546-4.216 9.793z"/><path fill="#FAAF40" d="M163.644 78.092c-1.424 6.83-2.135 10.25-3.56 17.102-.063.35-.156.698-.156 1.01 0 .688.345 1.127 1.563 1.043 1.25-.086 2.88-1.933 4.13-2.996l1.07-.05c-1.43 1.5-4.96 5.87-7.4 6.06-2.03.16-3.78-2.05-3.78-2.05-.14-.02-2.34 2.79-4.24 2.99-2.99.32-3.87-1.68-3.87-3.53 0-5.37 1.94-12.09 8.18-12.67.75-.07 1.53.18 2.1.6l1.38-6.54c1.85-.39 2.77-.58 4.62-.94zM151.59 96.346c0 1.874 1.03 2.11 1.812 2.03.717-.072 1.72-.957 1.998-1.756.08-.23.094-.664.188-1.048l1.75-8.43c-.502-.395-1.095-.467-1.532-.428-2.344.216-4.216 5.385-4.216 9.632z"/><path fill="#FAAF40" d="M175.075 88.253c.065.154.468.28.905.282 1.468.006 2.123-1.042 3.28-1.483l.123.66c-.967 1.193-3.912 2.11-4.403 2.694-1.754 2.093-3.997 9.396-7.12 9.52-3.343.134-4.778-1.16-4.778-4.876 0-7.68 3.903-11.248 8.213-11.344 2.968-.067 3.217 3.24 3.78 4.547zm-2.406 2.486c-.15-.17-1.32-.64-1.32-1.39 0-.91 1.2-1.93 1.37-2.21.21-.35-.44-1.62-1.32-1.6-2.94.06-4.19 6.5-4.19 9 0 1.87.87 2.33 2.09 2.29 1.9-.06 3.69-5.72 3.34-6.11z"/><path fill="#FAAF40" d="M182.85 84.15c-.9 4.204-1.352 6.31-2.25 10.527-.063.342-.123.683-.123.964 0 .69.312 1.2 1.56 1.25s2.875-1.61 4.124-2.52c.43.03.64.05 1.07.08-1.43 1.33-4.96 5.27-7.4 5.21-2.4-.06-3.9-1.12-3.9-3.46 0-.47.07-1 .19-1.59l2.25-10.59c1.8.04 2.7.06 4.5.15zm-1.437-6.682c1.373.052 2.498 1.242 2.498 2.616s-1.12 2.403-2.49 2.35c-1.37-.05-2.47-1.166-2.47-2.54 0-1.375 1.1-2.478 2.47-2.426z"/><path fill="#FAAF40" d="M195.873 100.987c-2.03-.292-3.187-1.478-3.187-3.82 0-.5.062-.992.188-1.57l1.184-5.474c.063-.273.096-.55.096-.8 0-1.123-.593-1.92-1.437-2.02-.75-.088-1.313.07-1.968.44-1.07 4.935-1.6 7.407-2.66 12.364-1.8-.15-2.7-.21-4.5-.305 1.32-6.175 1.99-9.257 3.31-15.402 1.79.136 2.69.22 4.49.414-.15.658-.23.987-.38 1.646 1.28-.802 2.72-1.377 4.09-1.188 1.72.236 3.59 2.357 3.59 4.48 0 .25-.03.47-.06.71-.14.99-1.5 6.282-1.5 6.968 0 .53.25 1.004 1.15 1.153.22.036.81.044.81.044.23.264-2.19 2.512-3.25 2.36zm7.96 1.41c-1.374-.292-2.5-1.625-2.5-3s1.126-2.257 2.5-1.965c1.375.29 2.47 1.645 2.47 3.02 0 1.374-1.095 2.237-2.47 1.945zm1.78-6.85c-.825-.19-1.235-.28-2.06-.453 0-4.402 5.684-4.688 5.684-9.434 0-1.53-.812-2.368-1.717-2.59-1.19-.293-2.5.443-2.5 2.004 0 .718 1.147 2.17 1.188 2.333.053.22-1.406.988-2.28.802-1.218-.26-2.373-1.36-2.373-3.11 0-2.13 1.842-4.76 6.56-3.58 4.278 1.07 4.995 3.06 4.995 5.15 0 6.02-5.965 4.55-7.496 8.86zm-159.153 8.07c2.625-7.162 3.937-10.78 6.56-18.086 1.587.21 2.38.3 3.968.46v19.11c2.737-7.37 4.104-11.09 6.84-18.6.875.04 1.31.06 2.186.09-2.875 7.58-5.77 15.14-8.683 22.7-1.79-.17-2.69-.27-4.49-.51v-15.9c-2.52 6.03-3.78 9.02-6.31 14.91-1.8-.33-2.7-.51-4.5-.91V85.55c-3.4.302-5.15 2.224-5.15 5.66 0 1.59.46 2.226.44 2.24-.29.254-3.34-1.73-3.34-3.98 0-4.15 5.75-6.43 10.97-5.403.44.088.85.196 1.25.3l.28 19.258zm30.013 1.27c-.094.378-.156.724-.156 1.005 0 .687.343 1.15 1.56 1.11 1.25-.042 2.875-1.862 4.124-2.928.43-.023.64-.033 1.07-.057-1.43 1.52-4.96 5.835-7.4 5.887-2.43.052-3.87-1.02-3.87-3.362 0-.5.07-1 .19-1.593l1.19-5.63c.06-.29.09-.57.09-.82 0-1.13-.59-1.84-1.43-1.84-.75 0-1.31.21-1.93.64-1.07 5.03-1.61 7.54-2.68 12.56-1.79-.05-2.7-.09-4.49-.2l4.53-21.04c1.85-.2 2.77-.31 4.62-.56-.67 3.16-1.01 4.73-1.69 7.89 1.28-.9 2.72-1.65 4.07-1.67 1.69-.02 3.59 1.73 3.59 3.82 0 .25 0 .5-.06.75-.51 2.4-.76 3.6-1.28 6z"/><path fill="#FAAF40" d="M94.555 93.052l-2.25 10.84c-.062.348-.124.698-.124.98 0 .686.32 1.158 1.57 1.033s2.87-2.047 4.12-3.188l1.07-.122c-1.43 1.604-4.96 6.14-7.4 6.367-2.03.188-3.81-2.048-3.81-2.048-.14-.026-2.34 2.74-4.25 2.854-3 .18-3.87-1.926-3.87-3.768 0-5.37 1.94-11.81 8.18-12.3.75-.058 1.53.187 2.09.607.08-.33.12-.495.19-.827 1.8-.156 2.7-.244 4.5-.428zM83.81 104.94c0 1.872 1.03 2.15 1.813 2.096.718-.05 1.724-.917 2-1.707.08-.23.093-.67.186-1.05l1.75-8.42c-.5-.4-1.1-.47-1.54-.44-2.35.18-4.22 5.26-4.22 9.51z"/><path fill="#FAAF40" d="M103.825 87.04s-.468 2.18-1.062 5.066c.75-.094 1.125-.142 1.874-.238l-.25 1.28-1.874.24c-2.154 10.137-2.123 10.44-2.123 10.597 0 .718.312 1.15 1.56.995 1.25-.155 2.874-2.113 4.123-3.28.425-.055.636-.084 1.062-.142-1.437 1.63-4.964 6.244-7.4 6.532-2.404.285-3.872-.624-3.872-2.966 0-1.655 1.624-8.452 2.154-11.2-.412.048-.618.07-1.03.115.1-.52.148-.77.25-1.28.412-.05.62-.07 1.032-.12l.93-4.42c1.85-.47 2.77-.7 4.62-1.19z"/><path fill="#FAAF40" d="M114.283 92.746c0-.75-.468-.992-1.154-.894-2.63.378-4.31 5.698-4.31 9.07 0 1.842.37 3.292 2.28 3.022 2.21-.314 3.99-1.886 5.43-3.722l1.06-.157c-1.5 1.908-3.19 6.08-8.71 6.844-2.59.35-4.28-.87-4.28-4.55 0-4.56 1.96-10.82 8.02-11.69 1.68-.24 3.43-.07 3.43 1.65 0 .34-.09 1.02-.16 1.05-.04.02-.41-.13-.79-.07-.28.04-1 .33-1 .33-.03-.03.15-.65.15-.9z"/><path fill="#FAAF40" d="M128.895 98.97c-.095.388-.156.74-.156 1.022 0 .687.34 1.103 1.56.922 1.25-.184 2.87-2.17 4.12-3.35l1.06-.15c-1.44 1.642-4.97 6.31-7.4 6.672s-3.87-.482-3.87-2.825c0-.5.06-1 .19-1.62l1.18-5.79c.06-.29.09-.57.09-.82 0-1.12-.6-1.75-1.44-1.62-.75.12-1.32.42-1.94.95l-2.69 13.02c-1.8.27-2.7.41-4.5.67l4.53-21.9c1.84-.52 2.77-.79 4.62-1.32-.68 3.26-1.01 4.9-1.69 8.16 1.28-1.1 2.71-2.06 4.06-2.26 1.68-.25 3.59 1.28 3.59 3.37 0 .25 0 .5-.07.76-.51 2.46-.77 3.69-1.28 6.15z"/><path fill="#FAAF40" d="M146.97 85.875c-.9 4.354-1.35 6.53-2.248 10.89-.062.353-.125.704-.125.985 0 .687.313 1.146 1.563.994 1.248-.15 2.87-2.09 4.12-3.226l1.06-.113c-1.436 1.59-4.962 6.147-7.397 6.457-2.03.258-3.812-1.876-3.812-1.876-.14-.025-2.34 2.88-4.24 3.15-2.99.423-3.87-1.567-3.87-3.41 0-5.37 1.94-12.114 8.18-12.955.75-.1 1.53.11 2.09.5l.19-.83c1.8-.23 2.7-.35 4.5-.56zm-10.74 12.402c0 1.874 1.03 2.07 1.81 1.963.72-.1 1.72-1.014 1.998-1.834.08-.233.095-.668.19-1.056l1.747-8.508c-.5-.37-1.093-.417-1.53-.358-2.34.315-4.216 5.546-4.216 9.793z"/><path fill="#FFF" d="M120.427 139.52s26.434-8.407 8.94-18.57c0 0-6.002-2.742-7.024 2.104 0 0-1.916 1.268-2.426-1.157 0 0-.018-6.64 7.717-4.468 0 0 1.732-11.86 5.947-16.21 0 0 3.2-.66 2.43 2.6l-4.35 11.82s6.25-3.45 4.47 4.08c0 0 11.25 16.19-14.29 22.84"/><path fill="#FAAF40" d="M163.644 78.092c-1.424 6.83-2.135 10.25-3.56 17.102-.063.35-.156.698-.156 1.01 0 .688.345 1.127 1.563 1.043 1.25-.086 2.88-1.933 4.13-2.996l1.07-.05c-1.43 1.5-4.96 5.87-7.4 6.06-2.03.16-3.78-2.05-3.78-2.05-.14-.02-2.34 2.79-4.24 2.99-2.99.32-3.87-1.68-3.87-3.53 0-5.37 1.94-12.09 8.18-12.67.75-.07 1.53.18 2.1.6l1.38-6.54c1.85-.39 2.77-.58 4.62-.94zM151.59 96.346c0 1.874 1.03 2.11 1.812 2.03.717-.072 1.72-.957 1.998-1.756.08-.23.094-.664.188-1.048l1.75-8.43c-.502-.395-1.095-.467-1.532-.428-2.344.216-4.216 5.385-4.216 9.632z"/><path fill="#FAAF40" d="M175.075 88.253c.065.154.468.28.905.282 1.468.006 2.123-1.042 3.28-1.483l.123.66c-.967 1.193-3.912 2.11-4.403 2.694-1.754 2.093-3.997 9.396-7.12 9.52-3.343.134-4.778-1.16-4.778-4.876 0-7.68 3.903-11.248 8.213-11.344 2.968-.067 3.217 3.24 3.78 4.547zm-2.406 2.486c-.15-.17-1.32-.64-1.32-1.39 0-.91 1.2-1.93 1.37-2.21.21-.35-.44-1.62-1.32-1.6-2.94.06-4.19 6.5-4.19 9 0 1.87.87 2.33 2.09 2.29 1.9-.06 3.69-5.72 3.34-6.11z"/><path fill="#FAAF40" d="M182.85 84.15c-.9 4.204-1.352 6.31-2.25 10.527-.063.342-.123.683-.123.964 0 .69.312 1.2 1.56 1.25s2.875-1.61 4.124-2.52c.43.03.64.05 1.07.08-1.43 1.33-4.96 5.27-7.4 5.21-2.4-.06-3.9-1.12-3.9-3.46 0-.47.07-1 .19-1.59l2.25-10.59c1.8.04 2.7.06 4.5.15zm-1.437-6.682c1.373.052 2.498 1.242 2.498 2.616s-1.12 2.403-2.49 2.35c-1.37-.05-2.47-1.166-2.47-2.54 0-1.375 1.1-2.478 2.47-2.426z"/><path fill="#FAAF40" d="M195.873 100.987c-2.03-.292-3.187-1.478-3.187-3.82 0-.5.062-.992.188-1.57l1.184-5.474c.063-.273.096-.55.096-.8 0-1.123-.593-1.92-1.437-2.02-.75-.088-1.313.07-1.968.44-1.07 4.935-1.6 7.407-2.66 12.364-1.8-.15-2.7-.21-4.5-.305 1.32-6.175 1.99-9.257 3.31-15.402 1.79.136 2.69.22 4.49.414-.15.658-.23.987-.38 1.646 1.28-.802 2.72-1.377 4.09-1.188 1.72.236 3.59 2.357 3.59 4.48 0 .25-.03.47-.06.71-.14.99-1.5 6.282-1.5 6.968 0 .53.25 1.004 1.15 1.153.22.036.81.044.81.044.23.264-2.19 2.512-3.25 2.36zm7.96 1.41c-1.374-.292-2.5-1.625-2.5-3s1.126-2.257 2.5-1.965c1.375.29 2.47 1.645 2.47 3.02 0 1.374-1.095 2.237-2.47 1.945zm1.78-6.85c-.825-.19-1.235-.28-2.06-.453 0-4.402 5.684-4.688 5.684-9.434 0-1.53-.812-2.368-1.717-2.59-1.19-.293-2.5.443-2.5 2.004 0 .718 1.147 2.17 1.188 2.333.053.22-1.406.988-2.28.802-1.218-.26-2.373-1.36-2.373-3.11 0-2.13 1.842-4.76 6.56-3.58 4.278 1.07 4.995 3.06 4.995 5.15 0 6.02-5.965 4.55-7.496 8.86z"/><path fill="#D0D2D3" d="M106.39 111.263s-.035-14.076-8.978-4.233c-8.943 9.842 8.98 4.233 8.98 4.233z"/><path fill="#919496" d="M102.666 109.432s2.332-8.25 2.483.985c.15 9.236-2.49-.985-2.49-.985z"/><ellipse transform="rotate(151 84.2 134.4)" fill="#FFF" cx="84.208" cy="134.426" rx="33.562" ry="26.772"/><path fill="#FFF" d="M151.893 159.384l-4.692 1.895c-5.36-9.03-19.73-33.94 4.7-1.9z"/><path fill="#FFF" d="M164.907 104.45c-12.004-5.57-5.993 27.93-5.993 27.93.034.036.067.063.1.094 2.103.413 5.328.59 7.654-1.354.045-.215.064-.346.064-.346-3.064-10.992-3.944-16.37-3.81-18.738-.145-4.543.545-10.1 6.966 5.067 0 0 4.432 11.095 4.886 21.056 4.567 27.6-18.22 21.87-27.602 18.44 4.29 4.32 16.13 13.78 28.83 2.54 4.453-6.36 3.404-15.27 3.404-15.27-1.785-30.48-14.5-39.43-14.5-39.43z"/><path fill="#CCC" d="M147.173 156.6c-2.373-.867-3.89-1.59-3.89-1.59s-1.285-.443-3.237-1.09l-.848 4.988c.092.042.177.08.268.124 22.095 10.283 32.077 6.48 36.537.11-12.7 11.247-24.54 1.78-28.83-2.54zm22.717-39.496c-6.422-15.166-7.11-9.61-6.967-5.067.247-4.305 3.857 1.34 3.857 1.34 4.446 10.315 6.944 18.43 7.994 24.783-.454-9.962-4.885-21.056-4.885-21.056zm-10.876 15.37c5.763 5.556 7.348.12 7.654-1.354-2.326 1.944-5.552 1.767-7.654 1.354z"/><path fill="#FFF" d="M132.25 138.716s11.475-.348 23.29 2.816c13.516 3.62 27.562 11.35 26.87 21.1 0 0 22.478-18.323 26.87-10.785 0 0-.694 3.83-3.312 2.577 0 0 1.57 3.435-3.374 2.354 0 0 .86 4.265-3.577 2.786l-22.252 10.48s-1.685-.06.92-4.28c0 0 5.51-7.187-15.812-16.063-21.32-8.87-29.623-10.98-29.623-10.98z"/><path fill="#D0D2D3" d="M201.868 155.96s-3.732-2.977-7.08 3.115c0 0 2.816-7.626 7.08-3.116zm3.522-2.946s-2.914-2.95-3.947-.32c0 0 1.1-1.582 3.948.32z"/><path fill="#FFF" d="M84.367 162.973c-13.575-2.18-22.753-9.057-22.9-26.357-.163-18.9 45.337-32.148 54.07-12.83 1.882 4.166 1.576 13.767 1.547 14.468 3.31.73 8.44 1.318 11.52-.997 0 0 15.155-11.034 26.372-3.12-.082-.008-12.837-2.187-26.44 8.352l-12.284-2.62s-1.28 5.67-4.146 12.3l15.353-.13s18.2-15.33 30.77-6.49c-.35 15.65-3.13 29.03-73.87 17.4z"/><path fill="#D0D2D3" d="M127.458 152.05l-22.084 1.87c10.163-7.205 10.877-14.045 10.877-14.045l11.58 1.44c10.67-12.403 27.07-7.187 27.15-7.18 3.38 3.086 3.33 9.534 3.23 14.2-12.57-8.84-30.74 3.716-30.74 3.716z"/><path fill="#FFF" d="M153.545 151.16s16.957-13.05 30.04-1.482c0 0-.855-27.636 7.398-26.594 0 0 2.496 2.745.035 4 0 0 3.51.802-.174 3.918 0 0 3.726 1.82.038 4.325l-4.96 22.92s-1.02 1.24-2.705-3.175c0 0-8.354-12.844-27.427-1.842-19.07 11-2.245-2.07-2.245-2.07z"/><path fill="#CCC" d="M190.332 130.786s-2.72.695-1.91 5.58c0 0-1.587-4.83 1.91-5.58z"/><path fill="#D0D2D3" d="M190.303 127.438s-3.412-.178-2.27 3.368c0 0-.556-2.726 2.27-3.368z"/><path fill="#919496" d="M51.98 134.843l.65 8.47s-16.046-6.565-.65-8.47z"/><ellipse transform="rotate(151 87.9 133.4)" fill="#D0D2D3" cx="87.931" cy="133.423" rx="29.083" ry="22.064"/><path fill="#D0D2D3" d="M54.027 131.9s1.674 2.34-.46 3.976c0 0-13.456 2.585.393 7.984 0 0 1.767.998.588 3.396 0 0-11.31-2.325-11.635-8.677 0 0-1.163-6.5 11.114-6.68zm35.03 33.1l.295.983c2.864.337 6.01.63 9.464.86l-3.73-2.226-6.03.384z"/><ellipse transform="rotate(151 98.5 121.9)" fill="#FFF" cx="98.529" cy="121.897" rx="11.369" ry="11.205"/><ellipse transform="rotate(151 75.5 134.9)" fill="#FFF" cx="75.518" cy="134.916" rx="14.033" ry="13.939"/><path fill="#D0D2D3" d="M58.32 152.4s-4.298-1.782-6.22-5.847c-.062-.13 1.105.365 1.105.365s2.802 4.138 5.115 5.48z"/><path fill="#FFF" d="M131.655 167.15l-67.09-9.833-2.287 1.25s5.64 4.91 27.074 7.416l-.296-.982 6.03-.38 3.73 2.23c8.816.59 19.625.79 32.84.31z"/><path fill="#D0D2D3" d="M78.67 164.17l9.698-3.363s4.17-1.61 6.434.94c2.26 2.555-9.708 3.885-10.17 3.885-.463 0-5.96-1.46-5.96-1.46zm-23.26-15.09c.658.955 1.6 2.05 2.91 3.32-.79-.812-1.428-1.545-1.945-2.22l-.964-1.1z"/><path fill="#FFF" d="M89.863 161.025l-34.91 9.81 5.985-13.198s1.636-4.534 0-5.237c0 0-3.08-3.363-3.543-6.775 0 0 1.677-1.962-.75-2.31 0 0-4.668 1.126-.27 6.865l1.945 2.22s-4.794-3.143-5.115-5.48l-2.518-.833s1.442 4.876 4.265 9.325v.603s-9.932 20.49-4.265 21.414l46.278-12.09s-.194-5.34-7.102-4.32z"/><path fill="#D0D2D3" d="M56.644 143.313c2.428.35.75 2.31.75 2.31.463 3.413 3.544 6.776 3.544 6.776 1.636.7 0 5.23 0 5.23l.794-1.75s1.344-2.39-.267-4.29c-.996-1.18-2.652-3.31-3.308-5.91.587-.23.996-.74.996-1.33 0-.76-.67-1.37-1.525-1.45l-.002-.02-.075.01c-.03 0-.06-.01-.1-.01-.35 0-.68.09-.95.25-1.54.5-3.83 1.94-1.08 5.93l.97 1.1c-4.39-5.74.27-6.87.27-6.87zm116.554 5.722l-5.167-3.932-1.7.29m6.06 9.85l3.27 4.21.64-.725m-1.5-8.606l3.82 3.33.12-.438-3.93-3.112m.23-.422l3.89 2.76.19-.968s-3.45-1.64-4.08-1.792zm.39-4.1s2.47.472 3.92 1.323l.21.18-.11-3.005-4.03.646.02.857zm8.2 4.298l1.66 1.925-1.49-10.76s-.27 7.05-.17 8.835zm-20.86.382l-4.51-1.723-.6 3.903"/><path fill="#CCC" d="M131.655 115.64s-6.503 6.897 2.69 1.5c0 0-2.01 2.747 0 3.162l.416 1.054-.51-.798s-2.04-.19-.6-2.713c0 0-3.92 2.618-4.63 1.34 0 0 .03-1.564 2.64-3.544z"/><circle fill="#0071BC" cx="72.977" cy="135.934" r="10.532"/><path fill="#0F4481" d="M73.735 138.587c1.956-2.262 1.71-5.676-.55-7.63-2.257-1.955-5.672-1.71-7.63.55-1.953 2.26-1.706 5.675.552 7.63 2.257 1.955 5.673 1.708 7.628-.55z"/><path fill="#FFF" d="M70.584 136.927c1.04-1.202.91-3.015-.292-4.053-1.2-1.04-3.016-.91-4.056.29s-.906 3.018.295 4.057 3.02.91 4.06-.29z"/><circle fill="#FFF" cx="74.96" cy="134.302" r="1.399"/><circle fill="#0071BC" cx="96.967" cy="123.379" r="8.701"/><path fill="#0F4481" d="M97.594 125.57c1.616-1.868 1.41-4.688-.454-6.304-1.866-1.614-4.686-1.413-6.303.456-1.614 1.865-1.41 4.687.456 6.302 1.864 1.617 4.686 1.41 6.3-.454z"/><path fill="#FFF" d="M94.992 124.2c.858-.994.75-2.49-.242-3.35-.99-.857-2.49-.75-3.35.24-.858.992-.748 2.492.244 3.352.99.858 2.49.748 3.348-.243z"/><circle fill="#FFF" cx="98.606" cy="122.031" r="1.156"/><path fill="#BE1E2D" d="M96.688 140.566s7.313 4.304.77 3.055c0 0-1.864-.47-4.15 1.21 0 0 2.526-1.12 3.38-4.26z"/><path fill="#6C6F71" d="M94.496 137.643s1.61 1.31 1.554 3.467c0 0-2.3 6.01-6.382 2.06l-.33 1.944.854-.727s4.838 3.513 6.496-3.82c0 0 6.092.69 1.618-3.487 0 0 2.893 3.42-1.56 2.87 0-.002-1.567-3.564-2.25-2.307z"/><path fill="#1D8FCD" d="M96.122 134.52s-4.633-2.006-3.707.35c0 0-3.148-.856-.342 2.435 0 0 2.1-.227 3.107.81 0-.003.904-1.724.942-3.596z"/><path fill="#FFF" d="M94.463 137.27s-.483-.393-1.536-.297c0 0-.515-1.097 1.536.298z"/><path fill="#6C6F71" d="M98.555 148.258s-.787-1.932.872-3.125c0 0-.8-.1-3.027.596 0 0 1.563-1.1 3.224-1.15 0 0 4.085-.22.486-2.32 0 0 5.338 1.72-.278 3 0 0-.997 1.25-1.277 2.99z"/></svg>