<svg xmlns="http://www.w3.org/2000/svg" width="250" height="250" viewBox="0 0 250 250"><path d="M220.88 196.24l-39.072-67.688c-.5-3.858-1.676-7.613-3.525-11.217 3.295-4.038 4.757-7.812 4.356-11.24-.39-3.297-2.39-5.118-3.12-5.68-1.77-1.49-3.98-2.246-6.57-2.246-1 0-2.05.11-3.15.34l-5.75-27.22-3.62 12.96c-.54 1.93-1.04 3.48-1.48 4.73l-3.5-6.05c-.17-1.14-.3-2.11-.37-2.73l-2.22-20.23-2.9 13.46-9.02-15.62-.52-.9-5.16-8.93c-2.1-3.67-6.27-5.61-10.43-4.96-3.05.47-5.74 2.28-7.28 4.95l-13.3 23.13-1.05-5.26-2.02 10.57-4.4 7.62c-.08-.75-.12-1.22-.12-1.24l-1.25-15.03-5.15 14.18c-.04.11-3.6 9.93-6.16 16.72-1.36-.34-2.65-.51-3.86-.51-2.59 0-4.8.75-6.57 2.25-.73.56-2.71 2.37-3.11 5.65-.41 3.38 1 7.09 4.19 11.06-1.89 3.62-3.1 7.4-3.62 11.28L32 196.22c-1.79 3.113-1.816 6.997 0 10.13 1.817 3.14 5.2 5.11 8.857 5.106H212c3.657.004 7.04-1.966 8.857-5.107 1.816-3.14 1.79-7.01 0-10.13z" opacity=".15"/><path fill="#F4C72A" d="M38.884 207.974c-3.47 0-6.69-1.86-8.425-4.856-1.72-2.956-1.72-6.646 0-9.63l39.2-67.91.01-.097c.51-3.82 1.71-7.56 3.56-11.12l.15-.29-.21-.25c-3.1-3.86-4.47-7.45-4.08-10.68.37-3.13 2.32-4.86 2.91-5.31 1.69-1.42 3.79-2.14 6.26-2.14 1.16 0 2.42.17 3.73.49l.43.11.16-.41c2.55-6.77 6.14-16.67 6.16-16.73l4.36-12.03 1.06 12.76c0 .01.04.48.12 1.25l.16 1.54 5.21-9.04 1.55-8.13.8 4.05 14-24.25c1.45-2.54 3.98-4.26 6.92-4.71.5-.08 1.01-.12 1.52-.12 3.47 0 6.68 1.85 8.39 4.83l15.34 26.56 2.52-11.71 1.88 17.16c.07.63.19 1.6.37 2.75l.01.09 4.08 7.07.36-1.02c.48-1.37.98-2.97 1.48-4.76l3.07-11 5.43 25.71.48-.1c1.07-.23 2.09-.34 3.05-.34 2.47 0 4.57.72 6.24 2.13.77.6 2.57 2.29 2.94 5.36.38 3.29-1.05 6.94-4.25 10.87l-.21.26.15.29c1.81 3.53 2.98 7.25 3.47 11.05l.01.1 39.12 67.77c1.71 2.98 1.71 6.67 0 9.63-1.74 2.99-4.96 4.86-8.41 4.86H38.88z"/><path fill="#F2C652" d="M124.48 40.915c3.29 0 6.34 1.754 7.96 4.58l5.153 8.926.515.9 9.017 15.62 1.298 2.25.546-2.53 1.59-7.42 1.54 14.1c.08.75.21 1.75.37 2.78l.02.19.09.17 3.49 6.05 1.08 1.88.72-2.05c.49-1.38.99-2.99 1.49-4.79l2.52-9.03 4.91 23.23.2.97.98-.2c1.03-.21 2.02-.32 2.94-.32 2.34 0 4.34.68 5.95 2.04.55.43 2.38 2.05 2.73 5.01.37 3.14-1.03 6.67-4.14 10.49l-.41.51.3.58c1.78 3.48 2.94 7.14 3.42 10.89l.03.2.1.18 39.1 67.66c1.62 2.83 1.62 6.33 0 9.13-1.65 2.84-4.7 4.61-7.99 4.61H38.87c-3.276 0-6.333-1.76-7.978-4.61-1.625-2.8-1.624-6.3 0-9.12l39.15-67.82.1-.17.026-.2c.503-3.76 1.684-7.45 3.508-10.95l.302-.58-.41-.51c-3.007-3.75-4.344-7.22-3.974-10.31.354-2.95 2.174-4.56 2.757-5.01 1.59-1.34 3.58-2.01 5.93-2.01 1.13 0 2.34.16 3.62.47l.86.21.32-.83c2.56-6.77 6.15-16.68 6.17-16.73l3.59-9.88.87 10.44c0 .02.04.5.12 1.28l.32 3.08 1.55-2.68 4.4-7.63.09-.15.03-.17 1.06-5.54.05.23.52 2.61 1.33-2.3 13.34-23.11c1.38-2.4 3.78-4.03 6.57-4.47.48-.08.97-.11 1.45-.11m0-1c-.53 0-1.06.04-1.6.12-3.05.48-5.74 2.28-7.28 4.96l-13.34 23.1-1.04-5.26-2.02 10.57-4.4 7.63c-.08-.75-.12-1.21-.12-1.23L93.46 64.8l-5.14 14.18c-.04.116-3.59 9.93-6.16 16.72-1.35-.333-2.64-.5-3.85-.5-2.59 0-4.8.754-6.56 2.246-.72.56-2.71 2.37-3.1 5.65-.4 3.376 1.01 7.09 4.19 11.06-1.88 3.62-3.09 7.4-3.61 11.28l-39.16 67.83c-1.79 3.11-1.814 7 0 10.13 1.817 3.14 5.194 5.11 8.846 5.11h171.17c3.657 0 7.03-1.97 8.85-5.107 1.816-3.14 1.79-7.01 0-10.13l-39.07-67.69c-.5-3.85-1.677-7.61-3.526-11.21 3.29-4.04 4.76-7.81 4.36-11.24-.39-3.3-2.39-5.12-3.11-5.68-1.77-1.49-3.98-2.24-6.57-2.24-1 0-2.05.12-3.15.35l-5.77-27.23-3.62 12.97c-.54 1.93-1.03 3.48-1.47 4.73l-3.5-6.05c-.17-1.14-.3-2.1-.37-2.73L150.91 57l-2.9 13.46L139 54.82l-.516-.898-5.15-8.925c-1.83-3.19-5.23-5.08-8.83-5.08z"/><path fill="#020202" d="M38.314 202.842c-1.4 0-2.72-.782-3.45-2.04-.695-1.2-.695-2.758.002-3.973l86.16-149.26c.598-1.04 1.664-1.77 2.856-1.95.21-.04.42-.05.63-.05 1.418 0 2.695.74 3.414 2l86.164 149.26c.696 1.2.696 2.76 0 3.97-.727 1.25-2.05 2.04-3.45 2.04H38.316zm10.476-11.194h151.27L124.48 58.536 48.79 191.648z"/><path fill="#F4C72A" d="M124.51 46.984c.907 0 1.726.482 2.193 1.295l86.16 149.25c.442.77.444 1.8.004 2.55-.476.82-1.33 1.33-2.227 1.33H38.314c-.896 0-1.75-.52-2.228-1.34-.44-.76-.437-1.79.002-2.56l86.165-149.26c.384-.67 1.074-1.14 1.85-1.26.135-.02.272-.03.408-.03m-78.15 146.1h156.13l-2.39-4.22L126.94 60l-2.46-4.325L122.02 60 48.763 188.84l-2.402 4.22m78.15-148.9c-.27 0-.56.02-.84.065-1.65.258-3.06 1.254-3.86 2.642L33.64 196.125c-.942 1.645-.945 3.752 0 5.385.964 1.66 2.74 2.745 4.674 2.745H210.64c1.933 0 3.71-1.086 4.674-2.745.945-1.634.942-3.744 0-5.385L129.15 46.865c-.965-1.68-2.718-2.707-4.64-2.707zM51.22 190.235l73.258-128.84 73.16 128.84H51.218z"/><path fill="#020202" stroke="#020202" stroke-width="2" stroke-linecap="round" d="M126.184 82.308c0 .954-.773 1.726-1.727 1.726-.954 0-1.728-.772-1.728-1.726s.77-1.726 1.72-1.726 1.72.772 1.72 1.726zm-2.388-16.913h1.362c.69 0 1.248.842 1.248 1.888l-.582 8.654c0 1.045-.557 1.888-1.248 1.888h-.196c-.693 0-1.25-.842-1.25-1.888l-.582-8.654c0-1.046.557-1.888 1.248-1.888z"/><path fill="#919496" d="M79.298 112.48s-9.594-18.903 7.355-7.698l-7.355 7.7zm90.695 0s9.594-18.903-7.355-7.698l7.355 7.7z"/><path fill="#FFF" d="M166.83 106.857h.01l-5.225-24.718c-8.117 29.07-11.786-4.59-11.786-4.59-6.09 28.26-10.88-1.89-10.88-1.89-4.09 31.4-9.97 0-9.97 0-4 33.28-12.02 0-12.02 0 4.39 30.77-7.54 2.82-7.54 2.82-.48 8.39-1.23 12.65-2.1 14.33-.58.15-1.16.31-1.73.47-2.18-2.27-4.35-13.23-4.35-13.23-6.91 36.12-9.89 0-9.89 0s-7.91 21.82-8.74 23.17l3.25.13c-8.53 6.97-13.73 16.25-13.73 26.45 0 21.63 23.42 39.17 52.31 39.17 28.88 0 52.3-17.54 52.3-39.18 0-8.59-3.7-16.53-9.96-22.98z"/><ellipse fill="#D0D2D3" cx="124.484" cy="129.842" rx="46.553" ry="34.866"/><path fill="#D0D2D3" d="M76.933 113.88s3.126-.45 2.803-3.388c0 0-8.187-12.634 6.63-5.76 0 0 2.134.64 3.14-2.12 0 0-10.447-7.2-15.73-2.626-.002 0-6.037 4.02 3.157 13.895zm95.372 0s-3.13-.45-2.805-3.388c0 0 8.187-12.634-6.63-5.76 0 0-2.134.64-3.14-2.12 0 0 10.447-7.2 15.73-2.626 0 0 6.036 4.02-3.155 13.895zm-91.638 5.525s7.214-50.115 37.728-20.94c30.512 29.176-37.728 20.94-37.728 20.94z"/><ellipse fill="#FFF" cx="103.393" cy="119.405" rx="19.857" ry="27.174"/><path fill="#D0D2D3" d="M128.635 98.466s28.692-28.925 38.62 18.33l-38.62-18.33z"/><ellipse fill="#FFF" cx="145" cy="119.405" rx="19.857" ry="27.174"/><path fill="#D0D2D3" d="M104.93 159.908s17.146 15.344 40.07 0"/><path fill="#6C6F71" d="M124.11 139.574v3.188h1.034l-.517-3.974"/><path fill="#1D8FCD" d="M124.522 140.34l3.564-4.592s-1.784-3.34-3.608-.077c-1.823-3.26-3.607.08-3.607.08l3.57 4.59v.12l.05-.05.05.06v-.11z"/><path fill="#FFF" d="M123.682 138.788s-.032-2.346-1.21-1.337l1.21 1.34zm1.565 0s.032-2.346 1.208-1.337l-1.208 1.34z"/><ellipse fill="#BE1E2D" cx="124.484" cy="154.435" rx="7.713" ry="11.048"/><path fill="#6C6F71" d="M124.484 142.762c-4.258 0-7.712 5.087-7.712 11.36 0 6.274 3.455 11.36 7.712 11.36 4.26 0 7.713-5.086 7.713-11.36 0-6.273-3.454-11.36-7.713-11.36zm.02 21.903c-3.94 0-7.13-4.77-7.13-10.66 0-5.888 3.192-10.66 7.13-10.66 3.936 0 7.126 4.772 7.126 10.66 0 5.89-3.19 10.66-7.127 10.66z"/><path d="M97.61 167.53l-7.737 26.242h-8.03l-3.36-11.195-3.33 11.195h-7.64l-7.898-26.242h12.012l2.97 10.053 3.068-10.053h7.344l2.67 8.878 2.9-8.878h7.02zm27.61 26.242h-11.196v-10.444h-4.047v10.444H98.78v-26.21h11.197v10.772h4.047v-10.77h11.195v26.208zm29.903-12.827c0 3.678-1.322 6.827-3.966 9.45s-5.826 3.933-9.547 3.933-6.903-1.312-9.547-3.934c-2.645-2.622-3.966-5.77-3.966-9.45 0-3.676 1.32-6.826 3.966-9.448 2.644-2.622 5.826-3.933 9.547-3.933s6.903 1.31 9.547 3.933 3.966 5.773 3.966 9.45zm-11.49 7.9V172.49h-4.046v16.355h4.047zm37.954 4.895h-11.75c-.044-.13-.522-1.49-1.437-4.08h-6.005l-1.437 4.08h-6.006l9.335-26.21h8.03l9.27 26.21zm-14.884-8.943l-1.305-3.623-1.273 3.623h2.578zm23.684-17.234l-1.37 19.845h-5.484l-1.37-19.845h8.224zm-.49 23.73c0 .826-.36 1.54-1.077 2.137-.718.6-1.566.898-2.546.898-1 0-1.855-.3-2.563-.898-.7-.598-1.06-1.31-1.06-2.138 0-.826.36-1.54 1.06-2.138s1.57-.897 2.57-.897c.98 0 1.83.3 2.55.897s1.08 1.312 1.08 2.138z"/><path fill="#A6A8AB" d="M116.254 145.306s-4.977 9.23.518 17.497c0 0-7.68-6.63-.518-17.497zm16.45 0s4.976 9.23-.518 17.497c0 0 7.68-6.63.517-17.497zm-51.664-28.02s-1.23 7.14 1.99 14.654c0 0-3.86-5.265-2.977-12.535l.988-2.118zM167 115.5s1.23 7.138-1.99 14.652c0 0 3.86-5.265 2.977-12.535L167 115.5zm-51.755-19.835s5.324 4.162 7.228 11.193c0 0-1.957-8.263-6.11-11.35l-1.118.157zm17.003-.207s-5.323 4.162-7.228 11.193c0 0 1.958-8.26 6.11-11.35l1.118.16z"/><circle fill="#0071BC" cx="103.457" cy="120.478" r="18.323"/><path fill="#0F4481" d="M97.137 126.092c-3.403-3.934-2.973-9.874.956-13.274 3.93-3.4 9.87-2.975 13.274.958 3.4 3.928 2.97 9.873-.958 13.272-3.93 3.4-9.88 2.972-13.28-.956z"/><path fill="#FFF" d="M100.618 123.205c-1.81-2.09-1.58-5.245.508-7.052 2.086-1.806 5.247-1.583 7.056.506 1.807 2.09 1.576 5.24-.513 7.05-2.09 1.8-5.25 1.57-7.06-.51z"/><circle fill="#FFF" cx="95.005" cy="118.638" r="2.435"/><circle fill="#0071BC" cx="144.999" cy="120.478" r="18.323"/><path fill="#0F4481" d="M138.68 126.092c-3.402-3.934-2.973-9.874.955-13.274 3.93-3.4 9.87-2.975 13.274.958 3.39 3.928 2.97 9.873-.96 13.272-3.93 3.4-9.87 2.972-13.27-.956z"/><path fill="#FFF" d="M142.16 123.205c-1.81-2.09-1.58-5.245.51-7.052 2.085-1.806 5.246-1.583 7.055.506 1.807 2.09 1.576 5.24-.514 7.05-2.08 1.8-5.24 1.57-7.05-.51z"/><circle fill="#FFF" cx="136.548" cy="118.638" r="2.435"/></svg>