<svg xmlns="http://www.w3.org/2000/svg" width="250" height="250" viewBox="0 0 250 250"><path opacity=".15" d="M205.49 72.018l.627-.24.224-.138.86-.843.26-.408.22-.22c.59-.61 1.06-1.09 1.24-1.88l.18-.73c.08-.35.14-.79.21-1.49.03-.2.05-.38.06-.47-.01.06-.02.11-.03.14v-1.23l-.1-.41-1.92-1.91c.61.14.96.47 1 .51l-.05-.06c-.26-.28-.76-.8-1.6-1-.92-.22-1.38-.32-2.29-.53-.24-.06-.5-.09-.81-.09-.35 0-.79.04-.79.04l-.26.03c-.02 0-.76.19-1.58.62l-1.38-1.31c.62.13.97.46 1.01.49l-.05-.05c-.28-.27-.79-.78-1.63-.96-.92-.2-1.38-.29-2.31-.48-.21-.05-.43-.07-.69-.07-.19 0-.39.01-.56.03-1.95-2.04-3.99-3.98-6.12-5.84.01-.01.01-.03.02-.04.22-.56.35-.88.42-1.12.08-.19.24-.5.38-.79.42-.85.56-1.14.64-1.51.13-.48.91-3 1.19-3.69l.15-.53.07-.36-.49-2.02-.16-.22c-.16-.21-.59-.77-1.98-1.36l-.48-.14v-.01c-.08-.02-.25-.06-.47-.12-.9-.23-1.77-.45-2.36-.55l-.79-.13-1.54.22-.68.33-.64.18-.68.31c-.1.06-.28.15-.46.25-.43.22-.7.37-.93.52l-.61.58c-.16.21-.29.41-.4.62l-.09-.42-.06-.5c-.01-.3-.06-.62-.16-.95-.13-.74-.51-1.29-.71-1.53l-1.65-.92c-1.44-.2-2.16-.29-3.59-.47l-1.11.1c-.31.1-.89.31-1.38.66-.11.08-.45.3-.72.47-13.13-6.63-27.93-10.4-43.61-10.4-12.81 0-25.02 2.52-36.19 7.09 0-.13.01-.24.01-.33l.11-.46-.41-2.11-.34-.48-1.32-.97-.59-.19-1.1-.11-.97.11c-.23-.01-.63-.04-1.03-.07-.74-.06-1.21-.09-1.53-.09-.19 0-.33.01-.42.02l-.84.11c-.6.07-1.1.33-1.67.64-.15.07-.3.16-.41.2 0 0 .19-.08.47-.12l-1.29.56c-.08.06-.2.15-.3.22-.39.13-.92.41-1.51 1.02-.55.39-.99.98-1.26 1.71l-.16.73-.07.97c-.12.39-.18.76-.2 1.1-.04.15-.09.33-.15.51-.04.12-.07.24-.1.35l-.01-.02c-.13-.3-.37-.83-.44-1.05-.07-.34-.2-.67-.38-1.14-.05-.14-.11-.27-.15-.37-.06-.28-.21-.77-.71-1.65l-.21-.33-1.08-1.38-1.89-.99s-.71-.04-1.21-.04c-.33 0-.57.02-.79.05-1.01.17-1.5.25-2.51.43l-.73.25c-1.21.62-1.61.96-1.79 1.12-.07.05-.17.11-.26.17-.52.34-1.24.8-1.8 1.54l-.45.6-.49 1.14c-.16.99-.14 1.5-.1 1.78 0 .11 0 .26-.01.4-.01.34-.01.61 0 .86-.03.18-.08.43-.13.68-.1.49-.17.86-.21 1.19l-.15-.24-.24-.39c-.24-.66-.7-1.12-1.15-1.56-.06-.07-.13-.13-.19-.19l-.33-.54c-.26-.52-.66-.91-1.05-1.29l-.28-.28c.03.03.31.36.43.93l-1.23-1.7-.33-.19-.75-.3-.6-.13h-1.1c-1.87.4-2.81.61-4.68 1.04l-.61.4c-.85.24-1.37.81-1.8 1.28l-.17.19-.1.04-.97.76-.55.59-.21.31-.38 2.07.29 1.24c.16.66.52 1.15.99 1.78l.15.21c.23.47.74 1.47 1.74 3.42.71 1.4 1.7 3.31 1.84 3.63.04.09.14.33.62 1.19l.96.97.09.05.09.14.23.31.24.28.24.37c.22.41.59.88 1.23 1.7.27.34.67.85.77 1.01-.02-.03-.19-.3-.28-.71l.42.93c.2.29.44.65.55.83.12.32.32.66.63 1.18-14.52 16.77-23.31 38.65-23.31 62.58 0 52.83 42.83 95.65 95.65 95.65 52.83 0 95.66-42.82 95.66-95.65 0-19.88-6.07-38.35-16.46-53.65zM66.54 44.376c.015.108.014.175.014.178 0-.057.014-.185.03-.313l.077-.23.07.12.02.11c.03.15.06.3.1.44l-.09.02-.18.11-.03-.4.01-.02z"/><path fill="#1B75BB" d="M203.49 69.018l.627-.24.224-.138.86-.843.26-.408.22-.22c.59-.61 1.06-1.09 1.24-1.88l.18-.73c.08-.35.14-.79.21-1.49.03-.2.05-.38.06-.47-.01.06-.02.11-.03.14v-1.23l-.1-.41-1.92-1.91c.61.14.96.47 1 .51l-.05-.06c-.26-.28-.76-.8-1.6-1-.92-.22-1.38-.32-2.29-.53-.24-.06-.5-.09-.81-.09-.35 0-.79.04-.79.04l-.26.03c-.02 0-.76.19-1.58.62l-1.38-1.31c.62.13.97.46 1.01.49l-.05-.05c-.28-.27-.79-.78-1.63-.96-.92-.2-1.38-.29-2.31-.48-.21-.05-.43-.07-.69-.07-.19 0-.39.01-.56.03-1.95-2.04-3.99-3.98-6.12-5.84.01-.01.01-.03.02-.04.22-.56.35-.88.42-1.12.08-.19.24-.5.38-.79.42-.85.56-1.14.64-1.51.13-.48.91-3 1.19-3.69l.15-.53.07-.36-.49-2.02-.16-.22c-.16-.21-.59-.77-1.98-1.36l-.48-.14v-.01c-.08-.02-.25-.06-.47-.12-.9-.23-1.77-.45-2.36-.55l-.79-.13-1.54.22-.68.33-.64.18-.68.31c-.1.06-.28.15-.46.25-.43.22-.7.37-.93.52l-.61.58c-.16.21-.29.41-.4.62l-.09-.42-.06-.5c-.01-.3-.06-.62-.16-.95-.13-.74-.51-1.29-.71-1.53l-1.65-.92c-1.44-.2-2.16-.29-3.59-.47l-1.11.1c-.31.1-.89.31-1.38.66-.11.08-.45.3-.72.47-13.13-6.63-27.93-10.4-43.61-10.4-12.81 0-25.02 2.52-36.19 7.09 0-.13.01-.24.01-.33l.11-.46-.41-2.11-.34-.48-1.32-.97-.59-.19-1.1-.11-.97.11c-.23-.01-.63-.04-1.03-.07-.74-.06-1.21-.09-1.53-.09-.19 0-.33.01-.42.02l-.84.11c-.6.07-1.1.33-1.67.64-.15.07-.3.16-.41.2 0 0 .19-.08.47-.12l-1.29.56c-.08.06-.2.15-.3.22-.39.13-.92.41-1.51 1.02-.55.39-.99.98-1.26 1.71l-.16.73-.07.97c-.12.39-.18.76-.2 1.1-.04.15-.09.33-.15.51-.04.12-.07.24-.1.35l-.01-.02c-.13-.3-.37-.83-.44-1.05-.07-.34-.2-.67-.38-1.14-.05-.14-.11-.27-.15-.37-.06-.28-.21-.77-.71-1.65l-.21-.33-1.08-1.38-1.89-.99s-.71-.04-1.21-.04c-.33 0-.57.02-.79.05-1.01.17-1.5.25-2.51.43l-.73.25c-1.21.62-1.61.96-1.79 1.12-.07.05-.17.11-.26.17-.52.34-1.24.8-1.8 1.54l-.45.6-.49 1.14c-.16.99-.14 1.5-.1 1.78 0 .11 0 .26-.01.4-.01.34-.01.61 0 .86-.03.18-.08.43-.13.68-.1.49-.17.86-.21 1.19l-.15-.24-.24-.39c-.24-.66-.7-1.12-1.15-1.56-.06-.07-.13-.13-.19-.19l-.33-.54c-.26-.52-.66-.91-1.05-1.29l-.28-.28c.03.03.31.36.43.93l-1.23-1.7-.33-.19-.75-.3-.6-.13h-1.1c-1.87.4-2.81.61-4.68 1.04l-.61.4c-.85.24-1.37.81-1.8 1.28l-.17.19-.1.04-.97.76-.55.59-.21.31-.38 2.07.29 1.24c.16.66.52 1.15.99 1.78l.15.21c.23.47.74 1.47 1.74 3.42.71 1.4 1.7 3.31 1.84 3.63.04.09.14.33.62 1.19l.96.97.09.05.09.14.23.31.24.28.24.37c.22.41.59.88 1.23 1.7.27.34.67.85.77 1.01-.02-.03-.19-.3-.28-.71l.42.93c.2.29.44.65.55.83.12.32.32.66.63 1.18-14.54 16.79-23.33 38.67-23.33 62.6 0 52.83 42.83 95.65 95.65 95.65 52.83 0 95.66-42.82 95.66-95.65 0-19.88-6.07-38.35-16.46-53.65zM64.54 41.376c.015.108.014.175.014.178 0-.057.014-.185.03-.313l.077-.23.07.12.02.11c.03.15.06.3.1.44l-.09.02-.18.11-.03-.4.01-.02z"/><ellipse fill="#96D9F7" cx="123.014" cy="206.403" rx="29.518" ry="6.075"/><ellipse fill="#FFF" cx="110.011" cy="206.513" rx="9.29" ry="2.766"/><ellipse fill="#FFF" cx="125.506" cy="206.214" rx="4.189" ry="1.542"/><path fill="#919496" d="M61.86 96.726S48.605 70.608 72.022 86.09L61.86 96.725zm125.305 0s13.256-26.118-10.162-10.637l10.162 10.63z"/><ellipse fill="#FFF" cx="124.29" cy="120.711" rx="72.268" ry="54.125"/><path fill="#D0D2D3" d="M188.607 120.71c0 26.602-28.795 48.173-64.318 48.173-35.53 0-64.32-21.57-64.32-48.172 0-26.6 28.79-48.16 64.32-48.16 35.52 0 64.31 21.57 64.31 48.17z"/><path fill="#7C7E80" d="M123.632 134.927h1.208v9.22h-1.208z"/><path fill="#D0D2D3" d="M58.59 98.66s4.32-.623 3.874-4.68c0 0-11.31-17.456 9.16-7.962 0 0 2.95.887 4.337-2.925 0 0-14.43-9.95-21.73-3.63 0 0-8.34 5.555 4.36 19.196zm131.77 0s-4.325-.623-3.875-4.68c0 0 11.31-17.456-9.16-7.962 0 0-2.947.887-4.338-2.925 0 0 14.432-9.95 21.733-3.63 0 0 8.34 5.555-4.36 19.196z"/><path fill="#1D8FCD" d="M124.344 136.518l4.924-6.347s-2.465-4.61-4.985-.1c-2.52-4.51-4.983.11-4.983.11l4.923 6.35v.16l.06-.08.063.08v-.16z"/><path fill="#FFF" d="M123.18 134.372s-.04-3.24-1.67-1.845l1.67 1.845zm2.164 0s.046-3.24 1.67-1.845l-1.67 1.845z"/><path fill="#D0D2D3" d="M63.75 104.405s9.97-54.625 52.127-26.208c42.157 28.42-52.127 26.208-52.127 26.208z"/><ellipse fill="#FFF" cx="95.151" cy="103.852" rx="27.435" ry="29.408"/><path fill="#D0D2D3" d="M130.024 78.198c.887-.504 38.758-25.527 53.357 23.47l-53.35-23.47z"/><ellipse fill="#FFF" cx="152.635" cy="103.852" rx="27.434" ry="29.408"/><path fill="#7C7E80" d="M98.063 140.568s15.283 17.245 13.33 22.776c0 0 11.848 19.698 39.6-21.77 0 0-11.232 9.622-26.703 3.44 0 0-15.183 4.88-26.227-4.446z"/><path fill="#BE1E2D" d="M99.42 141.576s12.71 8.21 24.87 3.438c0 0 11.976 6.155 25.732-3.32 0 0-23.12 35.643-37.653 21.543 0 0 1.65-7.743-12.95-21.66z"/><path fill="#7C7E80" d="M95.24 138.18s16.88 12.583 28.392 5.967h1.208s13.883 7.375 30.154-5.967c0 0-15.368 15.944-30.706 6.834 0 0-12.895 7.972-29.05-6.834z"/><path fill="#96D9F7" d="M107.915 153.52c-.81-1.418-1.88-2.89-1.837-2.763-1.74-2.688-2.788-4.142-4.38-5.834 0 0-.89 36.87 3.61 9.225 0 0 1.315 1.38 2.098 1.97.016-.054-3.244 14.71-3.244 14.71-3.216 10.848 0 13.232 0 13.232 5.277 2.93 3.74-13.448 3.74-13.448-1.21-10.848 2.628-12.295 2.628-12.295-.922-2.373-2.614-4.796-2.615-4.798zm40.45-8.128s-.478 39.196-4.977 11.553c0 0-7.66.01-.53 20.98.438 1.29.056 2.637-1.245 3.126 0 0-8.988 3.36-3.824-12.56.26-.82.65-2.15 0-3.25 0 0-4.09-5.4-8.18 4.27 0 0-2.01 4.48.69 25.3 0 0 .69 7.87-4.6 7.81 0 0-3.34.57-.87-9.43 0 0 2.63-12.42 2.33-23.1 0 0-7.89-1.54-4.59 10.74 0 0 3.24 6.84-1.39 7.77 0 0-7.24.77-1.9-7.98 0 0 4.22-6.61-.55-11.09l3.39-1.53s12.67-3.55 26.22-22.57z"/><path fill="#EF4B4D" d="M93.89 166.536s-13.77 19.693 14.792 7.546c0 0 16.702-7.546 22.32-11.698 0 0-24.998-11.733-37.113 4.152z"/><path fill="#96D9F7" d="M99.866 184.253c-.94-2.845-1.208-4.945-1.082-6.514 3.84-.76.635-1.28.635-1.28-11-1.3-.65-14.54-.65-14.54-8.2 3.78-7.78 10.34-7.78 10.34-2.83 7.73 5.98 5.77 5.98 5.77.51-.07.95-.15 1.34-.22.07 3.31-1.75 6.39-1.75 6.39-4.84 9.04 2.34 7.86 2.34 7.86 4.56-1.19.94-7.84.94-7.84zm47.3 5.49c-1.104-2.785-1.49-4.866-1.452-6.44 0 0-.255-.6-.464.115.357 2.806-1.375 6.484-1.375 6.484-4.312 9.31 2.793 7.72 2.793 7.72 4.494-1.45.498-7.878.498-7.878z"/><ellipse fill="#FFF" cx="97.15" cy="188.82" rx="1.62" ry="1.829"/><ellipse fill="#FFF" cx="104.72" cy="181.291" rx="1.299" ry="1.468"/><ellipse fill="#FFF" cx="138.941" cy="178.176" rx="1.165" ry="2.065"/><ellipse fill="#FFF" cx="145.626" cy="163.393" rx=".633" ry="1.122"/><ellipse fill="#FFF" cx="119.587" cy="185.555" rx="1.587" ry="1.793"/><ellipse fill="#FFF" cx="144.342" cy="194.486" rx="1.588" ry="1.793"/><ellipse fill="#FFF" cx="125.77" cy="199.534" rx="1.241" ry="2.212"/><path fill="#FFF" d="M93.713 176.11s-2.71-3.112.76-8.97c0 0-6.414 7.464-.76 8.97zm8.46-29.035s1.52.866 1.844 2.06c0 0-1.464 11.715-1.626 8.68l-.21-10.74z"/><path fill="#BE1E2D" d="M98.77 169.906s5.627-11.226 29.055-10.575c0 0-21.668-2.93-29.055 10.58z"/><path fill="#BBBDBF" d="M153.26 136.677s6.616-2.55 2.93 4.9c-.002 0 5.964-9.008-2.93-4.9z"/><circle fill="#0071BC" cx="95.851" cy="105.706" r="21.768"/><path fill="#0F4481" d="M88.284 112.188c-4.043-4.673-3.533-11.73 1.135-15.77 4.66-4.038 11.72-3.534 15.77 1.14 4.04 4.666 3.53 11.728-1.14 15.767-4.67 4.04-11.73 3.53-15.77-1.137z"/><path fill="#FFF" d="M94.794 108.758c-2.148-2.484-1.877-6.23.604-8.378 2.48-2.146 6.233-1.882 8.383.6 2.15 2.483 1.88 6.237-.61 8.385-2.48 2.148-6.22 1.873-8.37-.607z"/><circle fill="#FFF" cx="85.75" cy="103.332" r="2.893"/><circle fill="#0071BC" cx="152.53" cy="105.706" r="21.768"/><path fill="#0F4481" d="M144.963 112.188c-4.043-4.673-3.533-11.73 1.135-15.77 4.668-4.038 11.727-3.534 15.77 1.14 4.04 4.666 3.53 11.728-1.14 15.767-4.664 4.04-11.726 3.53-15.765-1.137z"/><path fill="#FFF" d="M151.475 108.758c-2.148-2.484-1.877-6.23.604-8.378 2.47-2.146 6.23-1.882 8.38.6 2.14 2.483 1.87 6.237-.61 8.385-2.48 2.148-6.23 1.873-8.38-.607z"/><circle fill="#FFF" cx="142.43" cy="103.332" r="2.893"/><path fill="#BBBDBF" d="M98.063 137.205s-6.194-3.144-3.59 3.363c0 0-4.968-7.92 3.59-3.363z"/><path fill="#ACAFB1" d="M67.78 105.777s12.9-25.947 44.85-24.592c0 0-10.79-16.006-31.616-3.823 0 0-15.284 8.864-13.233 28.415zm112.236-.07S166.828 80.28 134.63 81.632c0 0 10.87-16.006 31.86-3.824 0 0 15.592 8.345 13.526 27.895z"/><path fill="#D6EFFB" d="M43.898 40.623c.387-.3.58-.452.968-.75.27-.065.914-.998 1.187-1.06.272-.064.487-.375.487-.375 1.857-.427 2.786-.635 4.646-1.037.24.06.36.08.6.13.13.08.2.12.33.19.052.25 1.082 1.07 1.133 1.32.17.28.25.41.43.69.05.25 1.07 1.07 1.12 1.32.05.25.84 1.38.9 1.63.06.3.8 1.18.85 1.43.05.25.52 1.19.57 1.44.05.25.88 1.64.99 2.13.1.5.46.95.83 1.39.08-.12.12-.18.21-.3 0 0 .38-1.71.4-2.15.01-.19.12-.8.12-.8.02-.42.04-.63.07-1.05-.05-.25.42-2.14.37-2.39l.06-1.1c-.05-.24.43-2.15.38-2.4-.05-.25.03-1.29-.01-1.54s.08-1.05.08-1.05l.45-.6c.45-.6 1.36-.99 1.74-1.35.23-.22 1.23-.74 1.23-.74.99-.17 1.49-.26 2.48-.43.27-.05 1.42.02 1.42.02l1.08 1.36s.4.71.44.96c.04.25.47 1.21.51 1.46.08.5.91 2.17.95 2.42.04.25.83 1.72.87 1.97.04.25.51 1.46.55 1.71l.39.71c.04.25 1.04 3.18 1.08 3.43l.38.71.19-.54c-.04-.25.34-1.33.3-1.58.03-.52.04-.77.08-1.29l.15-.79c.19-.54.39-2.88.35-3.13-.04-.25.07-1.35.04-1.6-.04-.25.56-1.88.52-2.13-.04-.25.16-.79.16-.79l.09-1.29s.2-.54.48-.58c0 0 .48-.58.75-.62.28-.04 1.03-.65 1.03-.65.28-.03 1.32-.69 1.59-.72l.84-.11c.27-.03 2.55.19 2.83.16.44-.05.66-.08 1.11-.13l.58.19.33.47-.19.79c.03.25-.04 2.05-.01 2.3 0 0-.15 1.04-.12 1.3l-.15 1.09c.03.25-.06 1.8-.03 2.05 0 0-.29 1.36-.35 1.58-.04.14-.41 1.07-.38 1.32l-.11 1.29c-.21.54-.36 3.63-.56 4.17-.09.11-.14.17-.23.29.03.25-.1 1.3-.07 1.55 0 0-.19.53-.16.79l-.2.53c-.09.12-.14.17-.23.29.07.51.1.76.17 1.26l-.19.59-.36 1.33c.03.25-.19.54-.19.54-.63.8-.94 1.21-1.56 2.01l.14 1.01c-.62.8-.93 1.21-1.54 2.01l-.47.32c-.82.12-1.22.18-2.03.31-.26.04-.98.41-1.23.45-.26.04-2.25.61-3.01.74l-.25.04-.55-.17c-.29-.2-.55-.48-.63-.66-.17-.4-1.11-1.87-1.11-1.87-.04-.25-.9-2.16-.95-2.41l-.39-.7c-.03-.2-.86-1.85-.86-1.85s-.08.73-.04.98c.05.25-.29 1.34-.24 1.59.05.25-.07 1.05-.03 1.3l.09.5s-.42.59-.37.84l-.42.6c-.21.29-1.3 1.53-1.5 1.83 0 0-.53.55-.67.64-.19.12-.92.69-.92.69-1.62.32-2.43.48-4.04.82l-.45.35c-.31.06-.46.09-.76.16-.23-.06-.34-.09-.56-.14l-.61-.39c-.04-.2-.07-.3-.11-.5-.05-.25-.46-.94-.52-1.19s-1.62-2.5-1.67-2.75c-.06-.25-1.28-2.11-1.33-2.36-.05-.25-.85-1.37-.85-1.37-.06-.25-1.91-2.43-1.97-2.68l-.43-.68-.38-.43c-.17-.28-.25-.41-.43-.68l-.63-.37s-.42-.73-.5-.93c-.26-.62-3.41-6.66-3.68-7.27-.09-.19-.84-1.11-.9-1.35-.11-.49-.18-.74-.29-1.23.08-.13.12-.19.21-.31zm24.61 10.26c.043.25.48 1.207.522 1.457l.39.705c.043.25.475 1.207.517 1.457l.484 1.256c.05.25.47 1.208.52 1.458.04.25.73 1.166.81 1.666.04.25.72 1.166.76 1.416.05.25.34.46.34.46l.26-.043c1.02-.167 2.08-.738 2.98-.992.22-.06 1.24-.445 1.5-.483l.22-.29.15-.792c-.04-.25.52-1.87.48-2.123-.03-.25.29-1.385.3-1.583.04-.48.95-4.545 1.15-5.084l.16-.79.39-1.08.13-1.042.2-.54c-.03-.25.4-1.077.37-1.33.4-1.895.6-2.845 1.02-4.74l-.03-.253c-.03-.25.1-1.344.07-1.596l-.26-2.014-.31-.216c-1.42.183-2.13.28-3.55.476l-.24.29s-.82 3.1-.81 4.012c0 .22-.09 1.295-.05 1.546.04.26-.32 1.59-.28 1.84.04.25-.35 3.13-.31 3.39.04.25-.11 1.05-.11 1.05.04.25-.37 1.09-.34 1.34.04.25 0 1.8.04 2.05l-.1 1.05.19 1.26c-.07.24-.11.36-.17.6.04.3.07.46.11.76l-.22.29c.04.25-.06 1.3-.02 1.55l-.17.54c-.09.12-.13.18-.22.29l-.51.08-.59-.42-.34-.46c-.18-.48-.27-.72-.46-1.21l-.38-.71c-.09-.55-.89-2.22-.93-2.47-.04-.25-.55-1.71-.59-1.96 0 0-.9-2.16-1.33-3.12-.18-.38-.26-.57-.43-.95-.05-.25-.53-1.45-.57-1.7-.04-.25-.44-.95-.48-1.2l-.4-.71c-.4-.7-.84-1.65-.97-2.41l-.1-.55-.4-.7c-.04-.25-.49-1.2-.53-1.45-.04-.25-.45-.95-.45-.95l-.32-.2-1.31.24c-.27.05-1.56.49-1.59.55-.04.06-.44 2.15-.4 2.4l-.17.55s-.13.8-.07 1.1L62 43.14c.05.25-.428 2.15-.38 2.4-.01.52-.02.78-.03 1.3.05.25-.288 1.35-.24 1.6l-.17.55c.05.25-.448 1.9-.4 2.15.05.25-.6 2.45-.55 2.7 0 0-.11.8-.065 1.05.05.25-.01 1.3.04 1.55l-.16.55-.21.3-.66.71-.31-.19c-.32-.24-.68-.686-.68-.686l-.16-.75c-.06-.25-1.2-1.822-1.25-2.07-.05-.25-.42-.69-.47-.94-.05-.25-.58-1.437-.63-1.68-.06-.25-.95-1.88-1.01-2.127-.05-.25-1.06-2.37-1.112-2.62-.05-.25-.85-1.374-.91-1.62-.05-.25-.92-1.67-.977-1.92 0 0-.99-1.17-1.19-1.555-.09-.17-.38-.43-.38-.43l-.27.06c-.27.06-1.51.86-1.78.92l-1.35.31.11.5c.06.242 1.01 1.9 1.39 2.33l.38.43s.435.68.49.93l.54 1.17s.81 1.12 1.185 1.55l.37.44.43.687c.06.25.75.88.8 1.12l.37.44c.06.25.91 1.62.96 1.86.15.17.22.26.37.44.06.25.84 1.37.9 1.62.06.25.79 1.13.79 1.13.16.27.25.41.42.69l.37.49c.05.25 1.35 2.57 1.4 2.82.06.25.77 1.13.83 1.38l.31.19c1.32-.28 1.98-.41 3.3-.67l.2-.3c.06-.22.1-.33.16-.55l.11-.8.16-.55c-.05-.25.27-1.34.27-1.34-.05-.25.28-2.69.4-3.49l.07-1.05c-.05-.25.29-1.35.24-1.59.03-.42.04-.63.08-1.05-.04-.25.3-1.35.25-1.6 0 0 .08-1.05.03-1.3l-.04-.25c-.04-.25.7-2.19.65-2.44l.05-1.3.22-.3.54-.1.26.21s.36.45.41.7l.04.25.67.65c.04.25.53 1.45.57 1.7l.31.2c.21 1.21.31 1.81.52 3.01zm21.982 6.743c-.02-.185-.435-.51-.455-.695-.16-.05-.24-.08-.398-.14-.02-.18-.482-.88-.503-1.06l-.46-.69s-.232-.56-.274-.71c-.136-.47-.574-1.61-.574-1.61l-.492-4.23s.064-1.13.02-1.49c-.02-.18.088-.94.066-1.12 0 0 .153-.39.133-.57.06-.16.09-.23.152-.39-.01-.07-.013-.11-.02-.18l.15-.39c.045-.3.066-.45.11-.76 0 0 .37-.79.487-.98.18-.3.82-1.58.82-1.58.177-.21.67-1.19.852-1.4 0 0 .654-1 .834-1.2l.18-.21c.198-.02 1.155-.49 1.354-.51.198-.02.958-.46 1.158-.48 1.035-.1 1.553-.14 2.59-.23l.415.15c.2-.01.844.49 1.042.47.2-.01 1 .48 1.197.46.2-.01.854.68 1.066.85.09.14.136.21.226.36l.438.53c.212.17.647.7.662.88l.223.36c.01.19.46.9.47 1.08.01.19.47 1.08.5 1.45.01.19.25.73.26.92.01.19.27 1.1.28 1.28l.04.56c.01.19-.11 1.31-.09 1.5l-.13.94.02.37c.01.18-.13.94-.12 1.12 0 0-.17.38-.15.57l-.17.39s-.17.38-.15.57c.01.18-.44 1.89-.42 2.08l-.17.38-.15.57c.02.19-.49.97-.67 1.17l-.18.2-.16.39c-.35.4-.64.98-.98 1.39l-.53.42c-.28.25-.42.37-.7.62-.17.2-.89.64-.89.64s-.55.24-.73.25c-.19.02-.91.27-.91.27l-1.3.13c-.16-.06-.24-.09-.4-.14-.39-.11-.58-.17-.97-.27-.19.02-.39-.15-.39-.15l-.23-.35-.56-.32s-.57-.4-.62-.49c-.08-.14-.64-.67-.64-.67l-.02-.18c-.08.01-.12.02-.19.02zm-1.29-4.708c.02.185.497 1.3.546 1.432.11.3.71 1.228.73 1.412.167.13.25.197.417.328l.663.86c.02.186.435.515.435.515.07.067.11.1.17.168.21.165 1 .457 1.21.623l.39.146c.19-.02.58.13.58.13.53-.053.79-.078 1.31-.127.19-.02 1.13-.777 1.43-.88.14-.045.7-.62.7-.62l.16-.386.17-.21s.32-.77.49-.98l.16-.39c.07-.08.1-.12.17-.2-.01-.19.47-1.01.48-1.16.04-.49.12-.94.23-1.51.05-.3.08-.45.13-.76-.01-.18.12-.94.11-1.12.05-.31.08-.46.13-.76-.01-.15-.02-.23-.03-.37-.07-.93-.47-3.5-.49-3.69-.03-.37-.54-1.82-.57-2.19-.02-.19-.46-1.27-.69-1.62l-.21-.17-.22-.36c-.21-.17-.67-.88-.67-.88l-.42-.34-.63-.32-.21-.17c-.41-.15-1.25-.63-1.25-.63l-1.58.15c-.2.02-.78.26-.78.26-.35.41-.54.61-.89 1.02-.07.15-.1.23-.16.39-.13.23-.2.35-.34.59.02.18-.67.81-.65 1l-.15.39c.02.18-.46.88-.49.98-.05.15-.59 1.45-.62 1.56-.05.16-.44 1.35-.42 1.54l.04.37c.04.37.14 2.97.18 3.34l.11.92c.04.37.36 1.45.38 1.64zm8.598-2.346c.016.185-.27 1.326-.238 1.695.016.185-.406 1.9-.563 2.286-.062.155-.096.23-.157.386-.208.24-.31.36-.515.6-.172.2-.686.81-.873.82 0 0-.53.42-.718.44-.074.01-.11.01-.187.02-.188.02-.808-.48-.997-.46l-.623-.5s-.563-.54-.64-.68c-.055-.1-.436-.52-.436-.52l-.21-.54c-.03-.3-.04-.45-.07-.74-.08-.07-.12-.1-.21-.17-.21-.17-.46-.7-.46-.7l-.55-5.17s.08-1.13.23-1.52c.06-.16.1-.23.16-.39l.08-.75c-.04-.37.28-1.15.28-1.15s.47-.65.51-.8c.04-.11.91-.84.89-1.02l.32-.78c-.01-.18.36-.4.36-.4.79-.08 1.19-.12 1.98-.19l.22.16c.22.16 1.08 1.02 1.08 1.02l.23.35c.02.18.25.53.25.53.02.18.29 1.09.31 1.27 0 0 .26.72.27.9.12 1.33.17 2 .29 3.33.03.37 0 2.23.03 2.6zm-6.385 3.223c-.19.02-.23-.348-.04-.368.19-.02.23.348.04.368zm2.492-1.56s.26.72.28.905c.017.185.262.72.262.72l.64.685.018.184.19-.02c.207-.25.308-.37.516-.61 0 0 .26-1.33.42-1.72.16-.39.27-1.33.27-1.33-.01-.19-.06-2.79-.12-3.53l-.2-2.22c-.01-.19-.32-1.46-.36-1.83 0 0-.24-.54-.26-.73-.01-.19-.25-.54-.25-.54l-.21-.17-.57.24s-.13.28-.16.38c-.05.15-.3.96-.3.96-.12.75-.65 3.41-.63 3.6 0 0 .01 2.05.1 2.97l.04.37c.04.36.34 1.45.36 1.64zm13.138 3.983c-.012-.185-.408-.532-.42-.717l-.39-.16c-.014-.18-.437-.9-.448-1.08l-.425-.71s-.204-.57-.24-.73c-.11-.48-.49-1.64-.49-1.64l-.283-4.25s.123-1.12.098-1.49c-.012-.18.134-.93.122-1.12 0 0 .17-.38.158-.56l.172-.38-.01-.18.17-.38.15-.75s.407-.77.533-.96c.195-.29.898-1.54.898-1.54.188-.19.728-1.15.916-1.35 0 0 .704-.96.894-1.16.075-.08.116-.12.19-.19.2-.01 1.178-.43 1.378-.44.2-.01.98-.41 1.18-.42 1.038-.04 1.56-.07 2.597-.1l.407.17c.2-.01.817.53 1.016.52.2-.01.973.52 1.17.52.2-.01.82.72 1.024.9l.207.37c.165.22.25.33.412.55.2.18.61.73.61.91l.2.37c0 .19.41.92.42 1.11 0 .19.41 1.11.42 1.48 0 .19.21.74.21.93s.21 1.11.22 1.29c0 .22 0 .34.01.56 0 .19-.17 1.31-.17 1.49-.07.37-.11.56-.18.93 0 .15 0 .23.01.37 0 .19-.18.94-.17 1.12 0 0-.19.38-.18.56l-.19.38s-.18.38-.18.56c0 .19-.53 1.87-.53 2.06l-.19.38-.18.56c.01.19-.54.94-.72 1.13l-.19.19-.18.38c-.37.39-.69.95-1.05 1.34l-.55.39-.73.58c-.18.19-.92.59-.92.59s-.56.21-.75.22c-.19 0-.93.22-.93.22l-1.31.06-.39-.16-.95-.33c-.18.01-.38-.16-.38-.16l-.21-.36c-.22-.14-.33-.21-.55-.34 0 0-.55-.42-.6-.52-.07-.14-.6-.71-.6-.71l-.01-.18c-.08 0-.11 0-.19.01zm-1.052-4.766c.02.185.44 1.323.48 1.458.1.305.65 1.262.66 1.447l.4.348c.25.357.37.535.62.893.01.185.41.535.41.535l.17.177c.2.175.97.505 1.17.68l.39.167c.19-.01.57.157.57.157.53-.025.79-.038 1.32-.06.19-.01 1.16-.72 1.47-.806.14-.038.73-.586.73-.586l.18-.377.18-.192s.35-.756.54-.948c.07-.15.11-.227.18-.377l.18-.192c0-.185.52-.977.54-1.13.06-.488.16-.934.3-1.495l.17-.74c0-.18.17-.93.16-1.12.07-.3.1-.45.17-.74 0-.15 0-.22-.01-.37-.03-.92-.3-3.52-.3-3.7-.01-.37-.45-1.84-.46-2.21 0-.18-.39-1.28-.6-1.65l-.2-.18-.21-.36c-.2-.18-.62-.9-.62-.9l-.41-.35c-.24-.14-.36-.2-.61-.34l-.2-.18c-.41-.17-1.22-.69-1.22-.69l-1.59.07c-.2.01-.78.23-.78.23-.38.39-.57.59-.95.98-.07.15-.1.23-.18.38l-.37.58c.01.19-.71.78-.7.97l-.17.38c.01.19-.5.86-.53.96-.06.16-.66 1.43-.7 1.53-.05.16-.5 1.34-.49 1.52.01.15.02.22.02.37.03.37-.01 2.98.02 3.35.02.37.04.56.06.93.02.37.28 1.47.3 1.66zm8.7-1.912c.01.185-.33 1.31-.32 1.68.01.187-.5 1.876-.68 2.255-.07.15-.1.228-.17.378-.22.23-.32.348-.54.58-.18.193-.72.773-.91.78 0 0-.55.397-.74.406h-.18c-.18.01-.78-.52-.97-.51-.24-.21-.35-.32-.59-.53 0 0-.53-.57-.6-.71-.05-.11-.41-.54-.41-.54-.07-.22-.11-.33-.18-.55l-.04-.74-.2-.18c-.2-.18-.42-.72-.42-.72-.12-2.08-.17-3.11-.29-5.19 0 0 .13-1.13.31-1.51.07-.16.1-.23.17-.38l.12-.75c-.02-.37.33-1.14.33-1.14s.49-.62.55-.77c.04-.11.94-.79.94-.98l.36-.76c-.01-.19.38-.39.38-.39.79-.04 1.19-.06 1.98-.09.09.07.13.1.21.17.21.18 1.03 1.07 1.03 1.07l.21.36c.01.19.22.55.22.55.01.18.24 1.1.25 1.29 0 0 .22.73.23.92l.12 3.33c.02.37-.11 2.23-.1 2.61zm-6.53 2.9c-.19.01-.21-.36-.02-.37.19-.012.22.358.02.37zm2.57-1.435s.23.733.24.917c.01.185.23.732.23.732.24.286.36.43.61.715l.01.18.19-.01.55-.58s.33-1.32.5-1.69c.18-.38.33-1.31.33-1.31-.01-.19.08-2.79.05-3.53l-.09-2.23c-.01-.19-.25-1.48-.27-1.85 0 0-.22-.55-.23-.74 0-.19-.21-.55-.21-.55l-.2-.18-.58.21s-.14.27-.18.38c-.06.15-.35.94-.35.94-.16.75-.82 3.38-.81 3.56 0 0-.09 2.05-.05 2.98l.02.37c.02.37.26 1.47.27 1.66zm12.91 4.637c0-.187-.38-.553-.38-.74l-.38-.18c0-.185-.39-.922-.39-1.107l-.39-.736s-.17-.59-.2-.74c-.08-.49-.4-1.67-.4-1.67l-.07-4.27s.17-1.12.17-1.49c0-.19.18-.93.18-1.12 0 0 .19-.38.19-.56l.19-.38v-.19c.08-.15.12-.22.19-.37.08-.3.12-.45.19-.75 0 0 .45-.75.58-.94.21-.28.98-1.5.98-1.5.2-.19.79-1.12.99-1.31 0 0 .75-.93.95-1.12l.2-.19c.2 0 1.2-.37 1.4-.37.2 0 1-.37 1.2-.37 1.04 0 1.56.01 2.6.02.16.08.24.11.4.19.2 0 .79.57.99.57.2 0 .95.57 1.15.58.2 0 .78.75.97.94.08.15.12.22.19.37l.39.57c.19.19.57.75.57.94l.19.37c0 .18.37.94.36 1.12-.01.19.36 1.13.35 1.5-.01.18.17.74.17.93-.01.18.16 1.11.16 1.3l-.01.56c-.01.19-.23 1.29-.24 1.48l-.22.92-.02.37c0 .19-.22.92-.22 1.11 0 0-.2.36-.2.55l-.21.37s-.2.36-.2.55-.62 1.84-.62 2.02l-.2.37-.2.55c0 .19-.59.91-.78 1.1-.08.07-.11.1-.19.18l-.2.36c-.39.36-.73.91-1.12 1.28l-.56.36-.76.55c-.19.18-.94.54-.94.54s-.56.18-.75.18c-.19 0-.94.18-.94.18l-1.31-.01-.37-.19c-.37-.15-.56-.23-.93-.37-.18 0-.37-.19-.37-.19l-.19-.37-.52-.37s-.52-.45-.57-.56c-.06-.15-.57-.73-.57-.73v-.18h-.19zm-.81-4.814c.01.186.37 1.342.4 1.48.08.31.59 1.29.59 1.477.16.147.23.22.38.368.24.37.35.554.58.923 0 .186.38.554.38.554l.15.185c.19.185.95.554 1.14.74l.38.184c.19 0 .56.18.56.18h1.32c.19 0 1.2-.66 1.51-.73.14-.03.76-.55.76-.55l.2-.37.19-.19s.39-.74.58-.92l.2-.37.19-.19c0-.19.56-.95.59-1.11.09-.49.21-.93.37-1.48l.21-.74c.01-.19.21-.93.21-1.11.09-.3.13-.45.21-.74l.01-.37c.02-.93-.12-3.53-.11-3.72.01-.37-.35-1.86-.35-2.23.01-.19-.33-1.31-.52-1.68l-.19-.19c-.08-.15-.11-.23-.19-.38-.19-.19-.58-.94-.58-.94l-.39-.38-.59-.38-.2-.19c-.39-.19-1.18-.76-1.18-.76l-1.59-.01c-.2 0-.79.18-.79.18-.4.37-.6.55-.99.92l-.2.37c-.15.22-.23.33-.39.55 0 .18-.75.74-.75.93-.08.15-.12.22-.19.37 0 .19-.54.83-.58.93-.06.15-.72 1.39-.77 1.49-.06.15-.57 1.31-.57 1.49 0 .15 0 .22.01.37.01.37-.16 2.97-.15 3.34l.02.92c0 .37.2 1.48.21 1.66zm8.78-1.475c0 .186-.4 1.292-.4 1.662 0 .186-.59 1.85-.79 2.218l-.19.37c-.23.22-.35.33-.57.55-.18.185-.76.737-.95.736 0 0-.56.36-.75.36h-.19c-.19 0-.75-.56-.94-.56l-.57-.56s-.51-.6-.57-.74c-.04-.11-.38-.56-.38-.56-.06-.22-.09-.34-.15-.56v-.74l-.19-.19c-.19-.19-.39-.74-.39-.74l-.03-5.2s.18-1.11.38-1.49l.2-.38.15-.74c0-.37.39-1.11.39-1.11s.52-.6.59-.75c.04-.11.98-.74.98-.93l.4-.74c0-.19.4-.37.4-.37.79 0 1.19 0 1.98.01l.2.18c.2.19.98 1.12.98 1.12l.19.37c0 .18.19.56.19.56 0 .18.18 1.11.18 1.3 0 0 .19.74.18.93l-.05 3.34c0 .37-.22 2.22-.23 2.59zm-6.67 2.568c-.19.01-.19-.36 0-.37.19 0 .19.37 0 .37zm2.63-1.3s.19.75.19.93c0 .19.19.74.19.74.23.3.34.45.57.75v.19h.19l.58-.55s.39-1.29.59-1.66c.2-.37.4-1.29.4-1.29 0-.18.22-2.78.23-3.52.01-.89.01-1.33.02-2.22.01-.18-.18-1.48-.17-1.85 0 0-.19-.56-.19-.74 0-.18-.19-.56-.19-.56-.08-.07-.11-.11-.19-.18l-.59.18s-.15.27-.2.37l-.39.93c-.2.74-.99 3.34-.99 3.52 0 0-.19 2.04-.19 2.97V49c0 .37.19 1.485.19 1.67zm12.67 5.28c.01-.18-.35-.57-.35-.75l-.37-.2c.01-.18-.34-.94-.33-1.12l-.35-.75s-.14-.59-.16-.75c-.06-.49-.32-1.68-.32-1.68l.15-4.26s.24-1.1.25-1.47c.01-.18.23-.92.23-1.1 0 0 .21-.36.22-.55l.21-.36c0-.07.01-.11.01-.18l.21-.36.23-.73s.48-.73.63-.9c.22-.27 1.05-1.44 1.05-1.44.21-.17.85-1.08 1.05-1.25 0 0 .8-.89 1.01-1.07l.21-.18c.2.01 1.22-.31 1.42-.3.2.01 1.02-.31 1.22-.3l2.6.15.39.21c.2.01.76.61.95.62.2.01.92.62 1.12.64.2.02.74.8.93 1l.17.39.36.59c.18.2.54.79.52.97l.17.39c-.01.19.33.96.31 1.14-.01.19.31 1.14.28 1.51-.01.19.13.76.12.94-.01.19.11 1.13.09 1.31-.02.22-.02.34-.04.56-.02.19-.3 1.28-.31 1.46l-.27.91-.03.37c-.02.19-.27.91-.28 1.1 0 0-.22.36-.23.54l-.22.36s-.22.36-.23.54c-.01.19-.71 1.81-.72 2l-.21.35c-.09.21-.14.32-.23.54-.01.18-.63.88-.84 1.05-.08.07-.11.1-.2.17-.08.14-.13.21-.21.35-.4.34-.78.87-1.18 1.22l-.59.33-.79.51c-.19.18-.97.5-.97.5s-.57.15-.75.14c-.19-.01-.94.13-.94.13-.52-.03-.78-.04-1.3-.07l-.36-.2-.92-.41c-.19-.01-.36-.2-.36-.2-.07-.15-.1-.23-.17-.38l-.51-.4s-.5-.47-.53-.58c-.06-.15-.54-.76-.54-.76l.01-.19h-.19zm-.57-4.85c-.01.19.3 1.36.33 1.5.06.31.52 1.32.51 1.51l.36.39.53.95c-.01.19.36.58.36.58l.14.2c.18.2.92.6 1.1.8l.37.2c.19.01.56.22.56.22.53.03.79.04 1.32.07.19.01 1.23-.6 1.55-.65.15-.02.79-.51.79-.51.09-.14.13-.21.21-.36l.2-.17s.43-.71.63-.89l.22-.36c.09-.06.12-.1.2-.17.02-.18.61-.92.65-1.07.12-.48.26-.91.45-1.46l.24-.72c.02-.18.26-.91.27-1.09l.24-.73c.01-.15.02-.22.03-.37.07-.92.06-3.53.07-3.71.03-.37-.26-1.87-.24-2.24.01-.18-.26-1.32-.44-1.7l-.18-.19-.17-.38c-.18-.19-.53-.96-.53-.96l-.37-.39c-.23-.16-.34-.24-.57-.41l-.19-.19c-.38-.21-1.14-.81-1.14-.81-.64-.04-.96-.06-1.59-.09-.2-.01-.81.14-.81.14-.42.35-.62.53-1.04.88l-.21.36-.42.53c-.01.19-.78.71-.79.89l-.21.37c-.01.19-.58.8-.63.9-.07.15-.8 1.35-.84 1.45-.07.15-.64 1.28-.64 1.46l-.01.37c-.01.37-.3 2.96-.32 3.33s-.02.56-.03.93c-.01.37.15 1.49.14 1.68zm8.85-1.03c-.01.19-.46 1.28-.49 1.65-.01.19-.69 1.82-.9 2.18l-.21.36-.6.52c-.2.18-.8.7-.99.69 0 0-.58.34-.77.33l-.19-.01c-.19-.01-.73-.59-.91-.6-.21-.23-.32-.35-.54-.58 0 0-.47-.61-.53-.76-.04-.1-.35-.57-.35-.57-.05-.22-.08-.34-.13-.56l.04-.74-.18-.19c-.18-.19-.35-.76-.35-.76l.23-5.18s.25-1.1.46-1.46c.08-.14.13-.22.21-.36.08-.29.11-.44.19-.73.02-.37.44-1.09.44-1.09s.56-.57.63-.71c.05-.1 1.02-.69 1.03-.88l.44-.72c.01-.19.41-.35.41-.35.79.04 1.19.06 1.98.11.08.08.11.12.19.2.19.2.92 1.17.92 1.17l.17.38c-.01.19.16.57.16.57-.01.19.13 1.12.12 1.31 0 0 .15.75.13.94-.08 1.33-.12 2-.21 3.33-.02.37-.33 2.21-.35 2.58zm-6.79 2.24c-.19-.01-.17-.38.02-.37s.18.38-.02.37zm2.7-1.17s.15.75.15.94c-.01.19.15.75.15.75.22.31.32.47.53.77 0 .08 0 .11-.01.19l.19.01c.24-.21.36-.31.61-.52 0 0 .46-1.27.67-1.63.21-.36.46-1.27.46-1.27.01-.18.36-2.76.41-3.5.06-.89.08-1.33.14-2.22.01-.18-.11-1.49-.08-1.86 0 0-.16-.57-.15-.75.01-.18-.16-.56-.16-.56-.07-.08-.11-.12-.19-.2l-.6.15s-.17.26-.22.36l-.44.9c-.23.73-1.15 3.28-1.16 3.47 0 0-.3 2.03-.34 2.96l-.02.38c-.02.37.12 1.49.11 1.68zm11.53-11.01c.26-.12.38-.19.63-.32l.21-.16c.22-.16 1.04-.47 1.25-.63l.42-.15c.2.02 1.01-.09 1.21-.07l.4.04c.4.04 1.37.32 1.57.34.2.02.58.25.77.27.2.02.38.23.38.23-.03.3-.04.44-.08.74-.02.18.38 1.41.42 1.72.02.14.33.97.33.97l.14.54.16.39c.05.23.08.34.13.57l.1.95c-.02.18.31.78.29.96l.11.76c-.02.19.4 1.69.4 1.69s.25-.49.27-.68c.02-.18.79-1.78.81-1.96.34-.93.51-1.4.86-2.33.02-.15.26-.49.26-.49l.24-.34c.02-.18.3-.9.32-1.08.03-.18.29-.71.31-.89.02-.18.28-.71.28-.71s.33-.29.44-.32c.17-.04 1.3-.78 1.52-.94.23-.16.65-.29.65-.29 1.43.18 2.14.28 3.57.47 0 0 .17.21.15.4 0 0 .15.4.12.58l.1.76.12.58.1.76c-.02.19.27.98.24 1.16 0 0 .09.76.07.95-.05.37.19 2.8.14 3.17-.05.37.15 1.71.12 1.89-.05.37.2 1.34.17 1.52l.14.39c.1-.13.15-.2.25-.34.06-.36.85-1.75.9-2.11.03-.19.33-.89.36-1.08.03-.18.58-1.23.61-1.41l.33-.89.27-.48c.14-.35.2-.53.33-.88l.32-.52c.03-.18.37-1.07.39-1.25.03-.19.28-.52.28-.52.23-.16 1.1-.58 1.33-.74l.84-.24.88-.42c.32.05.48.08.79.13.79.13 2.54.61 2.73.65 0 0 .76.32.92.54l.17.22c-.03.15-.04.22-.07.37-.35.88-1.28 3.92-1.31 4.1-.03.15-.93 1.87-.96 2.06-.03.18-.7 1.76-.73 1.94-.03.18-.76 1.44-.88 1.73-.06.13-.54.85-.57 1.04l-.25.34c-.09.06-.13.09-.22.15-.03.19-.81 1.37-.84 1.55l-.25.33c-.03.18-1.06 1.91-1.11 2.04-.12.3-1.07 1.53-1.23 1.68-.25.25-1.75 1.42-2.15 1.55-1.69-.03-2.53-.04-4.21-.05 0 0-.77.08-.95.05l-.56-.07c-.13-.1-.2-.14-.34-.24-.09-.76-.99-4.88-.99-5.52 0-.16-.24-1.15-.22-1.33l-.17-.21c-.31.9-.8 1.77-1.29 2.61 0 0-.47.69-.49.87l-.3.89c-.02.19-.28.72-.28.72l-.23.35c-.02.19-.63.49-.63.49-.2.16-1.02.63-1.2.6 0 0-.76.1-1.14.06-.18-.02-1.69 0-1.88-.02-.18-.02-.98.08-.98.08-.15-.01-.22-.02-.37-.03l-.34-.41c-.31-.59-.64-1.18-.75-1.94-.05-.3-.07-.46-.11-.76.03-.18-.28-.96-.26-1.14.02-.19-.31-.78-.29-.96.02-.19-.1-.91-.08-1.09.02-.19-.31-.78-.29-.96.02-.19-.29-.96-.27-1.15.02-.18-.31-.77-.3-.96-.05-.3-.08-.45-.13-.75-.1-.94-.79-4.17-.95-4.55-.16-.39-.53-2.13-.58-2.29-.03-.11-.47-1.5-.65-1.7l-.35-.58.04-.37c.26-.2.38-.3.64-.5zm1.26 1.6s.11.62.13.76c.05.32.44 1.68.43 1.86l.17.39c-.02.19.31.96.29 1.15-.02.18.27 1.33.25 1.51l.16.39c.05.31.08.46.13.76l.14.57s.32.78.3.96c0 .08-.01.11-.02.19l.16.39c-.01.19.26 1.33.24 1.52-.02.19.58 1.92.56 2.11-.02.19.29.93.27 1.11-.01.19.29.96.29.96.05.23.08.34.13.57-.02.19.47.98.45 1.17.05.23.08.35.13.57l.39.23c.6.06.9.1 1.5.16.19.02.74-.07.77-.1.04-.03.48-.88.5-1.06l.27-.71c.1-.14.14-.21.23-.35.11-.28.17-.43.27-.71.03-.18.49-.87.51-1.02.12-.36.17-.54.29-.9 0 0 .47-.69.49-.88l.23-.34c.1-.21.15-.32.26-.53 0 0 .47-.69.49-.87.02-.18.56-1.42.61-1.79.05-.37.4-1.63.44-2l.44-.32.78.1c.19.03.53.45.51.63-.02.19.22 1.34.19 1.53-.02.18.46.99.44 1.18-.02.18.26.97.24 1.15-.03.18.13 1.89.27 2.28l.07.95.1.72c-.03.19.15 1.71.12 1.89-.05.37.2 1.34.17 1.52-.02.19.14.4.14.4.23-.05.35-.07.59-.11 0 0 .96-.05 1.33 0 .19.03 1.33.01 1.52.03l.22-.15s1.79-2.5 2.09-3.4c.05-.14.55-1.04.58-1.22l.25-.34.3-.7c.03-.18.81-1.37.83-1.56l.34-.88.25-.34c.03-.19.57-1.04.62-1.41l.34-.88.25-.34c.26-.34 1.64-3.15 1.76-3.44.06-.13.83-1.36.86-1.55l-1.57-.25c-.59-.1-1.79-.1-1.79-.1l-.22.15-.93 2.11-.33.85c-.03.18-.89 1.93-.92 2.11-.02.19-.67 1.59-.7 1.77-.03.19-.55 1.05-.57 1.23-.13.36-.2.53-.32.89-.03.18-.3.7-.3.7-.24.34-1.06 1.91-1.08 2.09-.02.19-.46.5-.48.68l-.22.16-.38-.05c-.19-.02-.73-.29-.73-.29l-.16-.21-.14-.39c-.11-.58-.32-3.23-.44-3.81-.04-.23-.07-.34-.11-.57.05-.37-.33-1.92-.28-2.28-.02-.37-.04-.56-.07-.94-.05-.23-.07-.34-.11-.57.02-.18-.25-2.61-.23-2.8l-.1-.76c.02-.18-.08-.94-.05-1.13-.07-.08-.11-.12-.17-.21l-1.19-.15c-.2-.02-1.56-.04-1.6-.01-.12.1-.47 1.33-.61 1.79-.04.15-.5.84-.52 1.02-.05.37-1.15 3.04-1.19 3.41-.02.19-.5.88-.52 1.06 0 0-.27.72-.3.9-.02.19-.32 1.09-.34 1.27-.02.19-.73 1.41-.76 1.6-.02.18-.32 1.08-.34 1.27-.02.18-.23.35-.23.35l-.57-.07-.17-.21c.02-.18-.47-.98-.45-1.17-.05-.23-.08-.34-.13-.57-.15-.39-.63-1.75-.61-1.93l-.3-.78c-.12-.39-.18-.58-.29-.96.02-.19-.48-.98-.46-1.17l-.14-.57-.31-.77c.02-.19-.32-.78-.3-.96-.34-1.36-.51-2.04-.86-3.4-.07-.08-.1-.12-.18-.21-.7-.07-1.06-.1-1.77-.16l-.41.15-.01.18zm26.69 16.9c.03-.14 1.12-.89 1.57-1 0 0 .6-.08.79-.05.92.17 1.38.25 2.3.42.19.04.5.47.69.51.05.16.07.24.12.4-.03.19-.08 1.46-.15 1.82-.06.3-.08.44-.14.73-.03.18-.98 1.14-1.01 1.28l-.29.51-.22.15c-.17.04-.27.06-.44.11-.18-.04-.59.08-.77.04-.37-.07-2.32-.04-2.69-.1-.14-.1-.2-.15-.34-.25 0 0-.12-.39-.09-.57.04-.18-.03-.91 0-1.09.09-.51.14-.77.23-1.28.06-.36.47-1.61.47-1.61zm1.72 1.43c-.18-.03-.81.05-.81.05s-.31.7-.35.88c-.09.5-.13.75-.22 1.24.92.09 1.38.13 2.3.23 0 0 .25-.29.28-.47l.3-1.64c-.59-.11-.89-.16-1.49-.27zm6.03.01c.03-.14 1.15-.87 1.6-.97 0 0 .6-.06.79-.02.92.19 1.38.29 2.29.48.19.04.49.48.67.52.05.16.07.24.11.4-.03.18-.12 1.46-.19 1.82l-.15.72c-.04.18-1.01 1.11-1.04 1.26l-.3.51c-.09.06-.13.09-.22.15l-.45.1c-.19-.04-.59.07-.78.03-.37-.08-2.32-.09-2.68-.17-.13-.1-.2-.15-.33-.25 0 0-.11-.4-.08-.58.04-.18-.01-.91.03-1.09l.25-1.27c.07-.36.51-1.6.51-1.6zm1.68 1.48c-.18-.04-.82.03-.82.03s-.33.69-.36.88l-.25 1.24c.92.11 1.38.17 2.29.28 0 0 .26-.28.29-.47l.35-1.63-1.49-.3zm6.03.15c.03-.14 1.17-.84 1.62-.93 0 0 .6-.05.79-.01.91.21 1.37.32 2.28.53.19.05.48.5.66.54l.1.41c-.04.18-.15 1.45-.23 1.81l-.18.72c-.04.18-1.03 1.09-1.07 1.23-.12.2-.19.3-.31.5l-.22.14-.45.08c-.18-.04-.59.05-.77.01-.37-.09-2.32-.15-2.69-.23-.13-.11-.2-.16-.33-.27 0 0-.1-.4-.06-.58.04-.18.01-.91.05-1.09l.28-1.27c.08-.36.55-1.58.55-1.58zm1.64 1.5c-.18-.04-.82.01-.82.01s-.34.68-.38.86c-.11.5-.17.74-.28 1.23.92.13 1.37.2 2.29.34 0 0 .26-.28.3-.46.15-.65.23-.97.39-1.62-.59-.14-.89-.2-1.48-.34z"/><circle fill="#96D9F7" cx="110.011" cy="198.725" r="3.609"/><ellipse fill="#FFF" cx="110.786" cy="198.726" rx="1.62" ry="1.829"/></svg>