<svg xmlns="http://www.w3.org/2000/svg" width="250" height="250" viewBox="0 0 250 250"><path opacity=".15" d="M212.735 133.313c-3.328.978-6.454 1.78-9.297 2.39-1.157.25-2.278.467-3.33.65-.4.07-.795.134-1.185.194.138-.52.215-1.037.233-1.54.005-.125.005-.25.002-.386-.02-.75-.186-1.48-.487-2.14-.6-1.33-1.69-2.36-3.26-3.06-.91-.41-1.97-.7-3.23-.89-.61-.09-1.28-.15-1.97-.19l-.51-.02-.45.15c-.21-.04-.45-.07-.7-.07-.95 0-1.81.41-2.44 1.11l-23.85 7.84c.27-3.38.08-8.98-3.23-13.1-2.56-3.19-6.38-4.86-11.36-4.97-1.03-.48-2.23-.72-3.57-.72-.34 0-.69.02-1.05.05 3.63-2.29 6.83-4.94 9.59-7.94 2.1 1.82 4.26 2.28 5.89 2.28 7.75 0 14.8-10.18 15.58-11.34l2.19-3.27-3.82-.92c-4.31-1.04-7.96-2.76-10.58-4.27.19-4.3-.23-8.28-1.26-11.89 3.06-.67 5.62-2.21 7.41-4.51.38-.48.71-.99 1.01-1.52l18.23-12.52-16.97-4.06 2.12-16.27L155 45.63l-.684-15.364-17.488 19.005c-.647.54-1.23 1.14-1.734 1.79l-.09.12-11.254 2.32c-2.447.51-4.77 1.17-6.917 1.91l11.6-12.14-17.543 10.57c-13.32 8.03-19.8 20.98-22.49 28.03-.665 1.54-1.013 2.56-1.027 2.6l-.024.07-.01.03c-1.87 1.28-4.45 2.65-7.2 2.89l-6.83.6 5.36 4.27c.44.35 3.93 3.06 7.6 3.77.34 3.65 1.3 7.32 2.89 10.95-.61 1.19-1.03 2.5-1.27 3.94l-.17 1.02.54.88c.3.49 1.91 2.73 6.19 3.26l.41.56c-.95.45-2 .96-3.1 1.53-1.07-.19-2.86-.42-4.97-.42-9.72 0-16.09 4.88-17.77 13.49-2.76.42-7.27 1.7-10.48 5.56-3.03 3.65-4.09 8.63-3.16 14.8l-2.7 3.81 2.31 3.03c-.74 2.39-1.53 7.01.99 11.97.15.53.36 1.06.64 1.58l-9.3 3.06-.51.64c-.11.14-.7.9-1.19 1.99-.94 2.09-.93 4.17-.01 5.85l-10.74 3.35 12.78 21.98 15.6-5.53 1.23-.06.39 5.96-1.06 8.06 5.26 2.6 11.91.15-.39-3.89.78.59c.32.24.87.75 1.67 1.77l1.6 2.07 2.59-.34c2.69-.35 5.12-1.12 7.22-2.28l1.5-.82c.22.17.44.32.66.48l.13.09.15.08c1.94 1.14 3.97 2 6.02 2.55l.38.1 3.94.36.42-.37c.17.01.38.02.62.04l1.36.12 6.28-3.38.44-.42c.75-.72 1.46-1.45 2.12-2.19 1.09 1.13 2.27 2.14 3.54 3.01l.13.09.14.08c1.95 1.14 3.98 2 6.02 2.55l.38.1 3.94.35.42-.36c.17.01.38.03.62.05l1.36.12 5.11-2.75.07 2.81 5.07-.57 1.18.31h.61c2.55-.02 4.98-.37 7.23-1.03l2.78.1.65-.17c1.64-.43 3.12-1.06 4.42-1.88 1.73 1.51 3.72 2.48 5.94 2.91l2.37.46 6.53-6.53-2.23-5.49-.55-.6c-1.92-2.12-4.11-3.37-6.52-3.74l-.75-.12v-.02l-.94-1.11c-.27-.32-.58-.66-.91-1.02.62-1.19 1.01-2.46 1.18-3.78l16.02-.77-40.29-20.74c10.35-.93 19.93-2.76 28.61-5.48 10.6-3.31 19.91-7.95 27.67-13.78 13.39-10.06 17.53-20.17 17.7-20.6l2.08-5.22-5.39 1.58z"/><path fill="#5F9C9B" d="M211.153 130.94c-3.328.977-6.455 1.78-9.297 2.39-1.158.248-2.28.467-3.33.648-.4.07-.796.135-1.186.195.14-.52.216-1.037.234-1.54.005-.125.005-.25 0-.386-.02-.758-.184-1.48-.485-2.15-.61-1.33-1.7-2.363-3.26-3.064-.92-.412-1.98-.7-3.24-.887-.62-.09-1.28-.154-1.98-.19l-.51-.027-.46.14c-.22-.05-.45-.07-.7-.07-.96 0-1.82.4-2.44 1.1l-23.85 7.84c.26-3.39.07-8.99-3.23-13.11-2.56-3.2-6.38-4.87-11.36-4.97-1.04-.49-2.24-.73-3.58-.73-.35 0-.7.01-1.05.04 3.62-2.29 6.83-4.94 9.58-7.94 2.09 1.82 4.25 2.27 5.88 2.27 7.75 0 14.8-10.18 15.57-11.34l2.19-3.27-3.82-.92c-4.31-1.04-7.96-2.76-10.59-4.27.19-4.3-.24-8.29-1.26-11.9 3.06-.67 5.62-2.22 7.41-4.51.37-.48.71-.99 1.01-1.53l18.24-12.53-16.98-4.06 2.12-16.27-17.4 3.3-.68-15.37-17.49 19.01c-.65.54-1.23 1.14-1.74 1.79l-.09.12-11.26 2.33c-2.45.5-4.77 1.16-6.92 1.9l11.6-12.14-17.52 10.6c-13.31 8.04-19.8 20.99-22.48 28.04-.67 1.54-1.02 2.55-1.03 2.6l-.03.07v.02c-1.87 1.28-4.45 2.64-7.2 2.88l-6.83.6 5.36 4.27c.44.35 3.93 3.06 7.6 3.77.34 3.65 1.3 7.32 2.89 10.95-.61 1.19-1.04 2.5-1.28 3.94l-.17 1.02.55.87c.3.48 1.92 2.73 6.2 3.26.14.18.28.37.42.55-.94.44-1.99.96-3.1 1.53-1.07-.19-2.85-.43-4.96-.43-9.72 0-16.08 4.88-17.77 13.49-2.76.42-7.27 1.69-10.48 5.56-3.03 3.64-4.09 8.62-3.16 14.79l-2.7 3.8 2.32 3.03c-.74 2.38-1.54 7 .99 11.97.15.53.36 1.06.64 1.58l-9.29 3.05-.51.63c-.11.14-.7.9-1.19 1.99-.94 2.09-.93 4.16 0 5.84l-10.74 3.35 12.77 21.98 15.6-5.54 1.23-.06.39 5.96-1.07 8.06 5.26 2.6 11.91.15-.39-3.9.78.59c.32.24.87.75 1.66 1.77l1.61 2.07 2.6-.34c2.69-.35 5.12-1.12 7.22-2.28l1.5-.83c.22.16.44.32.66.47l.13.09.15.08c1.94 1.14 3.97 1.99 6.02 2.55l.38.1 3.94.36.42-.37c.17.01.38.02.62.04l1.35.11 6.28-3.38.44-.42c.76-.72 1.47-1.45 2.12-2.19 1.09 1.14 2.27 2.15 3.54 3.01l.13.09.14.08c1.95 1.13 3.97 1.99 6.02 2.54l.38.11 3.94.36.42-.37c.17.01.38.02.62.04l1.36.12 5.11-2.75.08 2.82 5.07-.58 1.17.3h.6c2.55-.03 4.98-.38 7.23-1.03l2.78.1.65-.18c1.65-.44 3.13-1.07 4.42-1.89 1.73 1.5 3.72 2.48 5.94 2.9l2.38.46 6.54-6.54-2.23-5.49-.54-.6c-1.92-2.11-4.11-3.37-6.52-3.74l-.75-.11v-.02l-.94-1.1c-.27-.32-.57-.67-.91-1.03.62-1.19 1.01-2.46 1.18-3.78l16.01-.78-40.29-20.73c10.35-.93 19.92-2.76 28.61-5.48 10.6-3.31 19.91-7.95 27.67-13.78 13.39-10.06 17.52-20.17 17.69-20.6l2.08-5.22-5.39 1.58z"/><path fill="#754C28" d="M146.81 42.13l-1.827 12.707 14.962-4.557-3.475 14.842 12.967.487-10.34 5.71-17.392-11.56-3.87-8.28 4.53-7.32"/><path fill="#F6921E" d="M137.143 48.875l13.148-14.29.54 11.947 16.79-3.187-1.94 14.964 13.38 3.19-17.36 11.92s7-10.51-5.22-18.84c0 0-5.63-7.61-19.32-5.72z"/><path fill="#FFF" d="M149.487 36.292l-11.652 12.903s.038-.893 3.87-.62l7.782-12.283z"/><path fill="#FAAF40" d="M157.766 51.498c-7.898-6.152-17.79-6.658-22.097-1.13-4.31 5.527-1.4 14.996 6.5 21.146 7.89 6.153 17.79 6.657 22.09 1.13s1.39-14.995-6.51-21.146zm4.287 20.79c-3.58 4.6-12.29 3.808-19.448-1.767-7.158-5.57-10.058-13.82-6.476-18.42 1.3-1.67 3.27-2.62 5.6-2.9 4.09-.49 9.28 1.12 13.84 4.67 4.81 3.75 7.69 8.7 7.98 12.94.14 2.07-.33 3.98-1.51 5.49z"/><path fill="#754C28" d="M149.716 62.136c-4.81-3.746-7.692-8.698-7.98-12.94-2.33.28-4.307 1.234-5.606 2.904-3.582 4.6-.683 12.848 6.476 18.422 7.16 5.574 15.867 6.366 19.448 1.767 1.176-1.51 1.648-3.42 1.507-5.49-4.09.49-9.28-1.12-13.84-4.67z"/><path fill="#FFF" d="M90.62 118.702s-19.103-4.612-20.753 12.724c0 0-16.615-.08-13.148 18.482l-2.19 3.084 2 2.635s-5.16 10.28 7 18.133l12.66-4.953s5.84-7.968-3.63-15.375l6.95-3.523L90.6 118.7z"/><path fill="#231F20" d="M57.015 167.078s6.758-14.407 20.842-5.686c0 0 .695 1.572-.732 5.686L60.54 171.48s-2.956-1.78-3.525-4.402z"/><path fill="#D0D2D3" d="M73.86 135.624s-.047 6.045-10.024 15.097c0 0 12.315 3.74 13.562 8.9 0 0 .266-3.4-4.823-6.55l2.333-3.15s3.26-13.73-1.047-14.28z"/><path fill="#919496" d="M90.62 118.702s-13.888 4.513-14.964 13.622l-5.79-.898s9.943 6.987 3.03 21.844l6.634-3.36 11.09-31.21z"/><path fill="#FFF" d="M98.896 114.82s-25.39 10.136-21.01 18.207l.914 2.09s-7.482 2.697 2.92 39.194l41.01 2.14s7.166-33.56 13.736-35c0 0-2.414 4.52 8.395 11.12 10.81 6.61 17.99-2.66 17.99-2.66s4.74-5.8-5.25-12.59c0 0 5.52-24.79-22.94-15.7l-7.24-10.48-28.5 3.7z"/><path fill="#919496" d="M136.467 141.443s13.2-1.642 18.918.923c0 0 3.528-26.15-20.014-20.645 0 0 24.07-10.62 20.8 22.81l-19.69-3.08z"/><path fill="#D0D2D3" d="M100.142 116.58s-9.73 3.423-14.44 17.986c0 0-6.964 6.675-.514 18.5 0 0-4.422-.154-.477 14.013l25.4-9.46.01-4.56s4.04-3.74 3.61-9.31c0 0 .35-12.4 2.79-14.56l-8.64.33 16.92-4.13-14.06 1.58 7.1-2.68 7.82-6.85s-19.84-4.59-25.48-.89z"/><path fill="#919496" d="M77.398 131.44s6.146 5.34 20.503 2.784c0 0 13.39 14.6 30.3 2.433 0 0 1.77-1.178 1.68-3.63 0 0-1.19 3.958 6.6 8.416 0 0-5.45 2.95-9.54 18.743 0 0-.53-12.336-4.19-13.675 0 0 2.91-3.29 2.06-4.87 0 0-13.07 9.28-27.61-4.33 0 0-12.04 2.23-18.37-2.19 0 0-1.43-2.66-1.4-3.67zm54.082-5.854s6.386-.668 10.036.548c0 0-9.588.062-10.422.852-.832.79.385-1.4.385-1.4zm-2.07 3.81v.45L120.476 131m8.934-3.04l-8.03-1.947 8.487.972m.576-1.582l-4.07-2.188 4.72 1.875m-7.8 20.724l-6.9 3.68 8.55-3.68"/><path fill="#D0D2D3" d="M90.48 81.88s-5.293 5.355-11.68 5.92c0 0 13.322 10.598 11.68-5.917z"/><path fill="#919496" d="M83.91 88.91l6.71-2.397v2.397s-3.608 2.74-6.71 0zm13.99 45.315s-.5-5.208 3.643-9.54l.86-.08s-3.07 1.83-4.345 9.784c-.063.39-.123.8-.176 1.23l.02-1.4z"/><path fill="#FFF" d="M87.875 85.064s4.883-20.43 22.844-31.256l-7.79 8.15s8.59-5.84 19.79-8.15l-8.76 5.96s4.01-2.554 16.18-4.378l-7.55 3.163s36.86-.68 34.91 32.69c0 0-4.99 26.996-45.32 31.672"/><path fill="#D0D2D3" d="M108.232 68.487s3.78-3.98 20.753-4.736c0 0-9.438 1.2-10.376 2.42 0 0 7.45-1.76 19.13 0l-4.2.82s8.94 3.62 13.32 2.19c0 0 2 5.18-1.65 7.71 0 0 .18 1.35 3.46.58 0 0-.73 1.66-3.29 1.68 0 0 .82 1.82 2.55 1.33 0 0-.55.88-2.47.88 0 0 2.73 8.4-1.28 15.42 0 0-.91 1.55 2.65-.64 0 0-.82 1.28-4.47 2.56l3.74.61-3.92 1.11 1.37 2.03-1.88-1.6s-8.43 14.6-29.51 22.11c0 0-16.67 5.78-10.52-3.53 0 0-19.04-15.97-13.29-36.4 0 0 4.74-13.96 13.68-17.79l-2.22 2.65s4.78-3.37 8.79-3.46c0 0-3.65 1.28-5.02 3.2 0 0 3.56-2.41 9.67-3.8l-5.06 4.73z"/><path fill="#6C6F71" d="M98.896 87.52s5.94 23.418 2.776 35.395c0 0 14.902 5.043 20.56-14.39 0 0 3.203-10.436 2.6-16.332 0 0 .23 5.93-10.81-.367 0 0-5.066-7.06-15.126-4.305z"/><path fill="#BE1E2D" d="M99.265 87.478s5.936 17.426 3.138 34.946c0 0 19.073 6.628 22.068-28.743 0 0-2.01 1.71-4.19.89 0 0-6.66-2.14-9.58-5.52 0 0-4.74-3.72-11.42-1.56z"/><path fill="#F69C95" d="M99.847 87.325s-.152.517 1.125 2.1c0 0 22.03 10.7 23.53 4.178 0 0-.84.687-3.244 1.083 0 0-5.413-1.095-7.693-3.77 0-.002-7.087-5.933-13.718-3.59z"/><path fill="#6C6F71" d="M98.708 90.548s3.135 18.94 2.813 24.272l-2.81-24.272z"/><path fill="#1B75BB" d="M107.864 74.637s1.463 7.366 10.966 2.59c0 0 15.443-8.547 22.875-5.068 0 0-9.943 20.19-28.135 7.52 0 0-4.007.28-5.706-5.05z"/><path fill="#6C6F71" d="M102.48 81.287s-1.187 1.46-1.37 5.248c0 0-11.655 2.903-4.107-3.422l-1.962-.32.96.457s-7.11 6.075 5.11 3.95c0 0 5.57-.71 9.95 2.62 0 0 17.52 13.914 13.1-2.966l1.33.73-2.28-1.962s2.74 9.08-1.73 8.668c0 0-3.42.045-7.89-3.923 0 0-5.61-5.2-11.58-3.787 0 0-.23-3.148 1.51-6.433l-1 1.14z"/><path fill="#1D8FCD" d="M100.06 77.5s4.015-2.463 2.83 0c0 0 6.66-3.558 5.108 2.008 0 0-4.38-.365-5.292 2.373 0 0-2.463-2-2.646-4.38z"/><path fill="#FFF" d="M104.146 79.69s3.76-3.857 2.21-.56c0 0-1.473-.51-2.21.56z"/><path fill="#6C6F71" d="M101.672 119.382s-6.266 8.528 10.523 3.533c0 0-18.065 6.748-10.523-3.533z"/><path fill="#74020D" d="M104.3 117.055s12-3.36 4.52-12.454c0 0 7.918-2.75 13.13 3.01 0 0-2.737 9.23-6.885 11.78l-11.448.32.682-2.64z"/><path fill="#F69C95" d="M102.402 122.424s9.17 3.01 15.408-5.843l-14.42 4.27s-.136-.64.685-1.46c.82-.82-.726-.24-1.33.53l-.343 2.51z"/><path fill="#FFF" d="M100.973 89.423s.32-3.025 1.14-.243c0 0 1.597-3.604 2.464.82 0 0 2.463-4.358 3.285 1.243 0 0 1.87-4.618 3.057 1.404 0 0 .72-1.45 1.54-1.782 0 0 1.45 1.005 2.09 1.4 0 0 .03.547 0 1.477 0 0 .56-.834 1.02-.858l1.88 1.012.21.454.26-.228s2.13.82 2.53.904c0 0 .11 2.852-1.65 4.25 0 0-.27-2.494-1-3.344 0 0-.98 1.458-1.95 2.34 0 0-.98-2.66-1.19-3.064 0 0-.41.48-2.79 1.27 0 0-1.09-1.834-.98-2.942 0 0-.7.874-1.06 1.94 0 0-2.15-1.25-2.06-3.195 0 0-1.67 1.16-2.1 2.19 0 0-1.57-1.64-1.25-3.22 0 0-.67.43-.88 1.5 0 0-1.53-1.39-1.43-2.61 0 0-.4.92.03 3.74 0 0-1.36-1.55-1.22-4.44zm15.53 27.667s-.612 2.27-2.186.97c0 0-.566 4.06-2.416.706 0 0-.55 5.27-2.42.752 0 0-1.09 4.813-2.35.64 0 0-1.25 4.265-2.23.592 0 0-1.39 3.42-1.73.182 0 0-.38 1.323-.16-.843 0 0 .03-2.56 1.3-4.2l-.01 3.22s.03-.86.76-1.71l.15 1.98s1.04-.7 1.07-1.95c0 0 .96.62.92 1.67 0 0 .55-1.34.88-2.07 0 0 .86.63 1.39 2.07 0 0 .99-1.2.93-2.29 0 0 1.45.67 1.53 1.58 0 0 .57-1.22.45-2.19 0 0 1.69.39 1.8 1.3 0 0 .27-2.56-.3-4.93 0 0 2.17 1.83 2.67 4.49z"/><path fill="#74020D" d="M97.11 102.046s8.03-3.408 18.19 1.095l-21.11 3.11 2.92-4.2z"/><path fill="#EF4B4D" d="M121.38 107.095s-10.218-10.857-25.304-1.9c0 0 4.764-4.67 10.655-4.304 0 0-15.76-3.52-17.71 8.16 0 0 4.14 6.66 23.18-3.84 0 0 4.39-2.45 9.19 1.9z"/><path fill="#1B75BB" d="M100.243 78.596s-.372-1.004 2.87-2.22c0 0 .527.12 1.216-.67 0 0-4.18 2.19-6.92-.364 0 0-2.32-2.555-4.32-1.765 0 0-.55 11.194 7.15 5.02z"/><path fill="#6C6F71" d="M109.717 74.612s-.26 1.34 19.45-3.893c0 0-17.12 6.08-19.45 3.89zm-6.1-.608s-4.38 1.337-6.082-2.678c0 0 2.678 2.92 6.083 2.678z"/><path fill="#919496" d="M152.396 92.212s.402 2.405-2.105 6.393c0 0 2.97 13.097 15.38 1.518 0 0-10.66-8.073-13.27-7.91z"/><path fill="#D0D2D3" d="M150.7 88.91h6.206l-3.104.726s6.57 5.658 16.424 8.03c0 0-15.716 23.443-22.264-1.004l.913-1.896s4.197 16.487 13.87 6.59c0 0-8.947-4.4-12.045-12.446z"/><path fill="#919496" d="M84.612 136.007s-6.323 6.124 0 17.06c0 0-3.35.44-.702 13.67l.702-.363s-2.984-9.733.575-13.308c0 0 4.928 1.263 7.664.898 0 0-2.28 3.376-1.09 11.86l1.1-.638s-2.28-3.65.46-11.313c0 0 10.86 2.944 14.42 2.156 3.56-.79 6.02-5.15 6.39-11.5 0 0-2.59 9.49-7.18 10.05 0 0-8.33 1.49-13.07-3.22 0 0 1.42-13.56 5.04-13.83l-1.01-1.92-2.48.38s-2.83 9.2-2.28 15.17c0 0-.18 2.69-7.85.5 0 0-5.16-4.71-.67-15.68z"/><path fill="#A87C4F" d="M194.652 133.626c.104-.35.173-.717.187-1.087l-72.69 23.98 72.49-22.9zM49.334 176.6l143.375-47.067c-.65-.29-1.48-.524-2.52-.678l-143.61 47.59c-.49 1.09-.83 2.62.21 3.877l.79-.252 1.75-1.828 145.5-45.917c-.01-.37-.08-.742-.24-1.1L49.33 176.6z"/><path fill="#3B2314" d="M46.793 180.32c.082.1.175.196.275.29l.518-.54-.793.25zm.89.773c.288.187.62.36 1.007.518l144.714-45.6s.857-1.06 1.25-2.38l-72.497 22.9-74.473 24.57z"/><path fill="#754C28" d="M194.597 131.226c-.293-.645-.872-1.238-1.888-1.693L49.33 176.6l145.263-45.374zM47.587 180.07l74.57-23.55 72.68-23.98c.003-.072.005-.145 0-.216L49.335 178.24l-1.748 1.83z"/><path fill="#754C28" d="M47.586 180.07l-.518.54c.175.168.38.33.615.482l74.473-24.572-74.57 23.55z"/><path fill="#E3BD71" d="M188.476 128.69L47.413 175.04s-.458.574-.83 1.404l143.61-47.59c-.516-.076-1.088-.132-1.717-.165z"/><path fill="#FFF" d="M115.3 79.69s17.333-5.927 24.178-5.472c0 0-9.105 11.22-24.18 5.473zm-16.035-1.893s-3.128-2.758-5.683-3.58c0 0 2.788 6.158 5.683 3.58z"/><path fill="#6C6F71" d="M121.38 86.884s1.218-5.856 5.142 0c0 0-2.89-4.213-5.14 0z"/><path fill="#919496" d="M127.4 148.758l58.92-19.36s4.912.608 3.99 7.584l-60.443 19.048-2.467-7.272z"/><path fill="#FFF" d="M129.045 149.064s1.094 1.435 1.338 3.76l55.938-21.398s1.8.73 0-.973l-55.22 17.52 46.66-13.875-46.65 16.308s-.89-1.865-2.05-1.342z"/><path fill="#6C6F71" d="M136.377 148.933s-1.176 5.94-4.904 10.157c-3.727 4.215 21.235-5.078 21.235-5.078l-11.003-4.947-5.328-.132z"/><path fill="#D0D2D3" d="M198.995 136.675c-14.843 2.573-16.634-1.557-16.634-1.557-26.82 4.504-45.98 13.814-45.98 13.814 6.11.976-4.43 10.165-9.69 13.99 11.58.513 46.2-.378 72.31-26.247z"/><path fill="#D0D2D3" d="M202.43 136.007c-9.7 9.6-36.87 31.913-76.056 27.142-7.564 5.42-16.657 8.79-16.657 8.79 84.745 5.47 102.207-38.38 102.207-38.38-3.578 1.05-6.723 1.84-9.494 2.44z"/><path fill="#6C6F71" d="M202.43 136.007c-1.217.26-2.36.482-3.435.668-26.11 25.87-60.732 26.76-72.306 26.248l-.32.226c39.18 4.77 66.35-17.55 76.05-27.15z"/><path fill="#FFF692" d="M186.32 129.397s4.06 1.58 3.99 7.584c0 0 .213.92.983-.31 0 0 .647-5.01-3.73-7.68 0 0-.905-.77-1.243.41z"/><path fill="#FFF" d="M141.705 149.064s8.295-5.058 22.697-7.512c0 0-19.54 10.45-8.044 15.358 0 0 1.65 2.59 19.435-5.288 0 0-14.658 10.188-45.926 10.188 0 0 15.435-8.612 11.838-12.746z"/><path fill="#FFF" d="M127.4 164.64s6.633 1.217 16.975 0c0 0-9.37 1.217-10.463 6.204 0 0 43.31-1.847 63.14-20.936 0 0-23.845 25.925-83.335 20.936 0 0 7.902-2.555 13.683-6.204z"/><path fill="#919496" d="M130.443 129.845l7.97 3.163-7.97-2.555"/><path fill="#FAAF40" d="M94.952 137.618l3.005.407 1.874 4.107-.56 3.682-2.33 2.924-5.47-1.084-.83-3.125 1.69-4.96 1.64-1.89-.36-1.04-2 1.52-1.97 6.58.33 3.51 7.95 1.63 2.57-3.34 1.09-5.58-1.85-3.91-5.5-1.08"/><path fill="#231F20" d="M144.983 119.382s-25.825 9.61-45.152 22.75l-1.87-4.106 34.91-18.994 1.57 2.267c0-.01 6.82-3.75 10.56-1.92zm-50.03 18.236l-2.648 1.96s-4.707-7.078-1.685-20.876l3.57-1.792s-1.822 10.84.762 20.708zm4.312 8.196l12.636 8.038-5.4 1.775-9.56-6.89m-6.31-4.207l.84 3.124s-7.84 2.033-12.8 14.68l-1.25-4.716s4.24-11.42 13.23-13.09z"/><path fill="#FFF" d="M91.453 118.267s-2.483 8.256.826 19.56c0 0-2.44-14.914.32-20.12l-1.16.56z"/><path fill="#FFF" d="M93.217 137.084s-1.418-10.096-.938-13.58l.93 13.58zm-3.61 8.73s-5.33.234-12.038 12.45l.23.874s5-10.526 11.8-13.324zm9.658-7.27l35.163-17.246-.814-1.18m-34.35 27.536l7.668 5.778-8.224-5.125"/><path fill="#F05A28" d="M91.894 138.84l-1.784 5.797.51-.108 1.685-4.96m8.643 1.8l-1.117 4.79.56.35 1.32-5.65m-6.89-3.8l4.02.46-.87.47-3-.41m-4.39 10.37l7.33 1.44.24.17-.24.31-7.77-1.6"/><path fill="#FFF" d="M69.867 174.937s-.07 1.458 1.147 1.663l6.384-1.663.46-2.517-7.99 2.517z"/><path fill="#FFF" d="M73.69 165.247s2.19 5.11 1.948 9.003c0 0-2.095 1.375-4.137 1.096l-3.28-8.608s1.22-3.448 5.48-1.49zm-6.508 2.223s2.19 5.11 1.947 9.003c0 0-2.1 1.375-4.14 1.096l-3.29-8.61s1.21-3.45 5.47-1.49z"/><path fill="#919496" d="M82.63 123.003l-4.012-.585 3.367 1.27-1.724 1.18-4.42.718h3.4M72.9 153.27s-3.585-2.354-9.06-2.55c0 0 6.903-1.888 10.025.46l-.964 2.09zm-16.36 2.357s1.216-3.57 2.676-3.91l-4.684 1.275 2.008 2.635z"/><path fill="#D0D2D3" d="M71.186 174.52l.315.826 4.14-1.096.2-1.194.36 1.453-5.58 1.93-.75-1.51"/><path fill="#FFF" d="M57.764 168.807s4.203-9.28 12.854-8.62c0 0-9.173.547-11.877 9.828l-.97-1.208zm65.554-10.714s-2.298-2.945-1.16-7.61l3.006-.99s-6-3.952-9.257 1.69c0 0-2.03 4.728 1.904 8.97 0 0-4.68-5.03-4.63-6.72l1.85-.607s-5.16-2.896-6.3 2.07c0 0-.76 2.336 1.39 7.44 0 0 4.56 3.846 12.05 3.562 0 0 8.62-5.75 8.97-6.28l-.03-3.974-7.77 2.45z"/><path fill="#FFF692" d="M126.52 148.933s2.476 4.603 2.135 7.48c0 0 .208 1.348 1.212-.383 0 0-.46-4.174-2.467-7.27 0-.002-.373-.108-.88.173z"/><path fill="#6C6F71" d="M115.023 152.824s-1.87-.43-2.325.24h-2.592l2.458.568s.225 4.026 3.83 6.308c0 0-.43 2.552-6.288 2.394 0 0 3.763 3.59 12.05 3.563l8.97-6.28-.032-3.974-7.776 2.45s-2.06-1.97-1.16-7.61l3.006-.99s-2.733-.492-3.995.416l-2.79-.24 2.78 1.04-2.78 1.42 2.82-.78s-1.04 2.51 1.2 7.07c0 0-.22 1.79-4.61 1.71 0 0-3.75-4.06-4.64-6.72l1.84-.61z"/><path fill="#FFF" d="M134.915 52.47s4.55-6.72 12.214-4.33l.62-.81s-8.46-2.28-12.84 5.14z"/><path fill="none" d="M107.89 199.15l-.802-2.434-1.314-.47-.103-.052c-.25-.13-.49-.194-.7-.194-.17 0-.34.038-.52.117l-.05.022-1.79.63c-.85.59-1.51 1.23-1.96 1.92-.2.38-.38.8-.52 1.26l.39.06-.6.75c-.03.14-.05.29-.08.44l-.19 1.19c.17.36.24.72.27 1.05l2.23 2.61.02.02c.26.32.42.45.5.49h.12l1.38.11.33-.17 2.09-.77c.66-.44 1.19-.96 1.62-1.6l.31-2.99c-.01-.6-.19-1.25-.52-1.92l-.05-.12zm43.083-1.615l1.79-.993-1.328-1.792-.116-.015c-.54.342-1.1.612-1.69.81.02.716.07 1.246.13 1.64l1.21.35zM133.3 199.15l-.804-2.434-1.313-.47-.103-.052c-.26-.13-.49-.194-.71-.194-.17 0-.343.038-.526.117l-.052.022-1.79.63c-.855.59-1.514 1.23-1.963 1.92-.21.38-.39.8-.53 1.26l.39.06-.6.75c-.03.14-.06.29-.08.44l-.2 1.19c.16.36.24.72.26 1.05l2.22 2.61.02.02c.25.32.42.45.49.49h.11l1.37.11.33-.17 2.08-.77c.66-.44 1.19-.96 1.62-1.6l.31-2.99c-.01-.6-.19-1.25-.52-1.92l-.05-.12zm18.168 5.812l-1.174-.507.218 2.094 1.57.17 1.603-1.21.114-.88-1.01-.14"/><path fill="#754C28" d="M96.266 203.72l1.388 1.058c-.303-.523-.767-.877-1.388-1.06zm14.724-8.422l.693-1.04-2.448-.348c.414.51.998.975 1.754 1.388zM97.654 210.04l-.693-1.06c.1.462.33.816.7 1.06zm-9.042-9.335l.713.347.347-.695-.713-.712m16.76-9.243h-.35l.35.695m7.36 6.667c-.41-.597-.99-1.065-1.76-1.406.34.632.92 1.102 1.75 1.406zm-8.77 13.68l1.06.35.69-1.755h-1.04m6.65-5.98c-.08-.23-.31-.46-.7-.7.07.3.3.53.69.69zm.71-1.39c-.18-.57-.54-1.04-1.06-1.41.11.58.46 1.05 1.06 1.4zm-7.36-11.93c-.06-.32-.3-.56-.72-.72.09.24.32.48.71.71zm-.72 2.1c-.22-.76-.69-1.34-1.41-1.76.29.65.76 1.24 1.41 1.75zm-10.18 9.11l.36-.35-1.06-.35c.07.3.31.54.7.69zm2.12-4.92l.34 1.4.69-1.04c-.08-.71-.42-1.29-1.04-1.76l-1.41 2.79c.48-.31.95-.78 1.41-1.41zm0 11.58c.43-.39.67-.86.69-1.41l-.69 1.4zm-1.41-1.41c.79-.53 1.26-1.23 1.4-2.1l-1.41 2.1zm3.85-13.32l-.68-1.05c.09.46.33.81.69 1.06zm3.5-.72h-.35l.34.71m-1.4-2.47v.71l.71-.37m-12.92 2.94c-.55.53-.9 1.23-1.04 2.12.66-.54 1.01-1.24 1.04-2.12zm-19.26 6.35c.4-.03.64-.26.71-.7l-.71.69zm1.41 1.75l-.69-.35-.37 1.04h.71m-1.06-5.26l-.69-1.04c.09.45.32.79.69 1.04zm-.69.36l.34 1.04.34-.69m2.1 2.8c.4-.58.17-1.17-.69-1.75l.69 1.76zm13.68-7.01v-.69h-.35M70.01 208.4l-.72 1.06c.43-.28.67-.63.72-1.06zm11.21-7.36l-.35 1.06h.69v-1.03l-.02-.02h-.33zm-10.52-8.42l-1.41 1.76c.67.46 1.49.82 2.46 1.06-.05-.97-.41-1.91-1.06-2.81zm1.06 12.63c.06.31.29.55.69.72-.05-.31-.28-.55-.7-.71zm13.66-7.7c.4-.4.64-.87.71-1.41l-.72 1.41zm3.16 3.86l-.35-.694-.35 1.04M70.35 210.9h.69v-1.06h-.35M86.86 207c-.45-.426-.67-.37-.664.163 0 .54.58.95 1.72 1.245-.085-.6-.44-1.07-1.06-1.41zm0-4.55l-1.04-1.06c.17.5.52.855 1.04 1.06zm-14.374 4.915l-1.41-1.06c.256.56.724.913 1.406 1.06zm16.473 3.507l-1.39-1.06c.28.61.75.964 1.39 1.06zm-10.87-8.42l.72 1.04c-.1-.462-.34-.81-.72-1.04zm-3.16-7.73l1.06-.343-1.4-.35m9.48 15.43c-.03-.51-.27-.98-.72-1.41.1.53.34 1 .71 1.4zm63.27-10.34v-.7H147m.347-1.41H147l.348 1.06m-.71 6.66h-.695l.346 1.04m-1.41 4.22h.71l-.35-1.06m-9.19-1.73c.59-.06 1.18-.29 1.75-.69l-2.1-1.06.35 1.76zm22.5-1.07c-.17-.49-.52-.83-1.04-1.04.19.46.54.8 1.04 1.05zm-13.32 0l-.37 2.12H147c-.4-.77-.985-1.48-1.75-2.11zm-7.44-3.12l.35.7 1.4-.7-1.06-.71c-.09.26-.32.5-.7.71zm9.53-11.6h-.71l.36 1.06m10.87 6.3c-.17-.49-.52-.84-1.06-1.04.18.49.53.84 1.06 1.04zm-9.48-5.6l-1.04-.69c.26.37.6.6 1.04.69zm7.02 16.13l.71-.34-.71-.35m1.05-2.1l-.35 1.04 1.04.34.37-1.04m1.38 3.5l-1.39-.71c.33.44.79.68 1.38.71zm-11.9-7.73l.69-.34-.35-.35"/><path fill="#754C28" d="M170.9 207.81l-.218-.24c-1.487-1.64-3.14-2.606-4.91-2.877l-.81-.125-.63.522c-.46.382-.876.78-1.246 1.196l-.3-3.325-.373-.44c-.6-.7-1.37-1.52-2.302-2.44 1.31-1.64 1.98-3.47 2.03-5.45l.01-.45-.2-.4c-.86-1.73-1.89-3.28-3.06-4.61l-.18-.2-2.63-1.62-4.94.38c-2.33-.38-4.46-.61-6.31-.7l-.4-.01-3.22 1.31-.18 5.33-.76-1.31-.28-.22c-1.52-1.17-3.01-2.16-4.42-2.94l-.15-.08-.17-.05c-2-.64-3.97-1.13-5.85-1.46l-.39-.07-5.98 1.6-.27.2c-1.6 1.17-2.89 2.46-3.85 3.83-.81.86-1.46 1.77-1.96 2.72l-2.06-3.51-.28-.22c-1.52-1.17-3.01-2.16-4.42-2.94l-.15-.09-.17-.05c-2-.64-3.97-1.13-5.85-1.46l-.4-.07-5.98 1.6-.27.2c-1.6 1.17-2.89 2.46-3.85 3.83-.57.61-1.06 1.24-1.48 1.9l.29-2.35-.27-.55 1.63-5.75-3.44 1.72-.59-.39-.5-.03c-.84-.05-1.62-.07-2.32-.07-1.04 0-1.94.05-2.69.16l-1.67.24.54 8.49-.25 2.77h-.14l-2.73-3.96-2.64-4.19-1.09-.33c-.02-.23-.03-.56-.02-1.02l.06-1.83-9.17-.29-1.63 2.48.74 5.59-.33 1.37.33 3.64-.33.68.37 5.57-.84 6.38 2.95 1.45 8.23.1-.72-7.27.01-3.3.79 1.3 1.64 1.91.03.03c1.04 1.12 1.99 2.47 2.81 4.02l.19.36.32.24c.66.5 1.39 1.26 2.18 2.27l.64.83 1.04-.14c2.35-.31 4.46-.97 6.26-1.96l1.54-.84-.98-1.96-.24-2.36.72 1.32.13.14c1.15 1.35 2.45 2.51 3.85 3.48l.06.04.06.03c1.74 1.02 3.54 1.78 5.36 2.27l.15.04 2.54.23.32-.28c.09-.01.23-.01.42-.01.38 0 .87.03 1.45.08l.55.05 5.24-2.82.17-.17c1.29-1.22 2.42-2.48 3.36-3.73l.18-.25.1-.29c.1-.32.2-.64.29-.97l1.18 2.16.13.15c1.16 1.34 2.46 2.51 3.86 3.47l.05.04.06.04c1.74 1.02 3.54 1.78 5.36 2.27l.15.04 2.54.23.32-.27c.1-.01.23-.02.42-.02.38 0 .87.02 1.45.07l.54.04 5.24-2.82.18-.17c1.06-1 2.01-2.03 2.85-3.07l.16 5.87 2.61-.29 1.31.34h.24c2.46-.03 4.79-.38 6.9-1.05l2.84.11.26-.06c2.18-.58 3.98-1.55 5.36-2.9l.57.62c1.58 1.75 3.48 2.84 5.65 3.26l.95.18 4.23-4.22-1.36-3.36zm-80.534-14.83l-.348 2.812.348.694-.348 8.073.348 1.4-.348 1.4.348 3.5.347.69c-1.607.89-3.477 1.47-5.607 1.75-.89-1.15-1.73-2.02-2.52-2.62-.903-1.69-1.932-3.16-3.088-4.4l-1.515-1.77-1.7-2.8c-.33-2.57-1.2-3.95-2.612-4.15l.22 4.51-.01 5.59.53 5.33-5.77-.07-1.4-.69.7-5.26-.34-5.27.35-.7-.35-3.86.35-1.4-.7-5.26.7-1.06 6.32.2c-.05 1.52.13 2.39.53 2.6l1.23.37 4.2 6.66c.5.54.96 1.13 1.39 1.75h.02v.02c.66.95 1.24 1.99 1.75 3.13l2.12 2.12c-.17-1.11-.2-1.85-.09-2.23-.06-.53-.27-1.31-.62-2.36l-.35-1.39.35-3.87-.44-6.94c.67-.1 1.48-.15 2.43-.15.67 0 1.41.02 2.21.07l1.06.71.7-.35-.69 2.44.35.69zm25.537 9.333c-.122 1.704-.476 3.458-1.06 5.26-.89 1.182-1.942 2.35-3.16 3.507l-4.55 2.448c-1.69-.146-2.678-.1-2.958.146l-1.606-.146c-1.67-.45-3.31-1.146-4.92-2.083-1.28-.877-2.45-1.93-3.51-3.16l-2.1-3.853-.35-1.407.34-3.507.34-1.06c.39-1.485 1.21-2.886 2.46-4.2.85-1.255 2.02-2.425 3.5-3.51l5.26-1.405c1.8.317 3.67.786 5.61 1.406 1.34.74 2.74 1.67 4.2 2.79l2.46 4.22.69 3.51-.7 1.04zm25.408 0c-.12 1.704-.47 3.458-1.05 5.26-.89 1.182-1.94 2.35-3.16 3.507l-4.55 2.448c-1.69-.146-2.68-.1-2.96.146l-1.6-.146c-1.67-.45-3.3-1.146-4.91-2.083-1.28-.877-2.45-1.93-3.51-3.16l-2.1-3.853-.35-1.407.35-3.507.35-1.06c.39-1.485 1.21-2.886 2.47-4.2.85-1.255 2.02-2.425 3.51-3.51l5.26-1.405c1.81.317 3.68.786 5.61 1.406 1.34.74 2.74 1.67 4.2 2.79l2.47 4.22.7 3.51-.7 1.04zm18.66 7.343c-1.19 1.327-2.83 2.265-4.91 2.813l-2.88-.11c-2.03.68-4.25 1.03-6.67 1.06l-1.4-.37-.97.11-.33-12.42.35-5.26-.34-.72.19-5.23 1.76-.72c1.85.08 3.96.32 6.32.71l4.56-.35 1.9 1.17c1.07 1.22 2 2.62 2.8 4.22-.04 1.8-.74 3.44-2.11 4.91-.72-.15-1.42-.5-2.1-1.06l.77 2.44.86.29-.5-1.32c1.64 1.52 2.9 2.8 3.78 3.83l.35 3.85-1.41 2.1zm7.47 3.762c-1.78-.34-3.32-1.235-4.64-2.685.32-1.595 1.22-3.008 2.71-4.238 1.35.207 2.63.975 3.84 2.302l.79 1.937-2.68 2.684z"/><path fill="#754C28" d="M155.76 203.7l-.364-.694-2.794-.364-1.06.364-2.157-.932c-.804.16-1.138.7-1.005 1.626l.367 3.508-.66.33.293 1.77.44-1.096.62.055 3.16.348 2.795-2.1.366-2.815zm-2.075 1.817l-1.603 1.206-1.57-.174-.218-2.1 1.174.5 1.322-.46 1.01.13-.115.87zm-44.103-7.06l-1.04-3.16-2.048-.73c-.938-.474-1.862-.517-2.776-.127l-1.954.694c-1.182.778-2.083 1.656-2.703 2.63-.5.9-.84 1.954-1.04 3.16l-1.4-.365-1.06.36c-.3.05.22.18 1.57.4l-.51.64c1.17.59 1.64 1.29 1.41 2.1l2.69 3.16c.65.81 1.28 1.21 1.9 1.19l1.88.14.7-.35 2.17-.8c1.09-.67 1.94-1.55 2.58-2.64l.37-3.51c0-.92-.23-1.85-.71-2.82zm-1.424 5.714c-.427.64-.96 1.17-1.62 1.6l-2.085.77-.33.17-1.377-.11-.09-.01h-.027c-.08-.04-.24-.17-.5-.49l-.02-.02-2.23-2.61c-.03-.32-.1-.68-.27-1.05l.19-1.19c.02-.15.05-.29.08-.44l.6-.75-.4-.06c.14-.46.31-.88.52-1.26.44-.68 1.1-1.33 1.96-1.92l1.79-.63.05-.02c.18-.08.35-.11.52-.11.22 0 .45.07.71.2l.1.06 1.31.47.8 2.43.06.12c.33.67.51 1.32.52 1.92l-.31 2.99zm44.444 6.2l.345-1.06h-.693m-1.06-9.81l3.16-1.75 1.04.7.713-1.06-.712-.35-1.04-1.4 1.405.37c-.342-1.53-1.053-2.46-2.138-2.79l-2.776-.36c-.755.6-1.582.99-2.484 1.17l-.566.59c-.012 1.86.135 3.21.44 4.06l2.957.86zm.124-4.76l.116.02 1.328 1.8-1.79 1-1.212-.35c-.06-.39-.11-.92-.13-1.63.592-.2 1.153-.47 1.688-.81zm-1.878 14.58c.183.56.535 1.03 1.06 1.41-.22-.56-.573-1.03-1.06-1.4zm5.956-8.42h-.348l.348.72m-29.173-10.15v.71l.713-.36m3.506-1.04c-.06-.31-.298-.55-.713-.71.08.25.32.49.71.72zm-.712 2.1c-.22-.75-.69-1.34-1.407-1.75.292.66.763 1.25 1.406 1.76zm6.667 2.45l.694-1.04-2.44-.34c.42.51 1 .98 1.76 1.39zm-8.767-2.1h-.347l.346.72m3.5-3.51h-.35l.34.7m5.95 12.97c-.07-.23-.31-.46-.7-.69.07.31.3.54.69.7zm1.4-6.3c-.4-.6-.99-1.06-1.76-1.4.34.63.92 1.1 1.75 1.41zm-27.86 9.46c.6-.06 1.18-.29 1.75-.69l-2.1-1.06.34 1.76zm27.16-4.54c-.18-.57-.54-1.04-1.06-1.4.11.59.46 1.05 1.06 1.41zm-25.41.35l.35.69 1.4-.69-1.06-.71c-.09.27-.32.51-.7.71zm22.59-4.57l-1.04-3.16-2.05-.73c-.94-.47-1.86-.51-2.78-.12l-1.96.69c-1.18.78-2.08 1.66-2.71 2.63-.5.9-.85 1.96-1.04 3.16l-1.41-.36-1.06.36c-.31.05.22.19 1.57.41l-.51.64c1.17.6 1.64 1.3 1.41 2.1l2.68 3.16c.64.82 1.28 1.22 1.9 1.19l1.88.15.69-.35 2.17-.8c1.08-.67 1.94-1.55 2.57-2.63l.36-3.5c0-.92-.23-1.85-.71-2.82zm-1.43 5.72c-.43.64-.96 1.17-1.62 1.6l-2.08.77-.33.17-1.38-.11-.09-.01H128c-.078-.04-.24-.17-.5-.49l-.02-.02-2.223-2.61c-.02-.32-.1-.68-.266-1.05l.19-1.18c.02-.15.05-.3.08-.44l.6-.75-.39-.07c.14-.46.32-.88.52-1.26.45-.69 1.11-1.33 1.96-1.92l1.79-.64.06-.02c.18-.08.36-.11.53-.11.22 0 .45.07.71.2l.11.06 1.31.47.81 2.43.05.12c.33.67.51 1.32.52 1.92l-.31 2.98zm-3.83 7.28l1.06.35.69-1.75h-1.04m-8.77-6.32l1.39 1.06c-.3-.52-.77-.88-1.39-1.06zm1.39 6.32l-.69-1.06c.09.46.33.82.69 1.06zm1.06-16.13l-.69-1.06c.09.47.32.82.69 1.06zm-3.85 13.32c.79-.52 1.26-1.22 1.41-2.1l-1.41 2.1zm-.71-5.26l.36-.35-1.06-.34c.07.31.3.54.69.7zm2.12-4.91l.34 1.41.69-1.04c-.07-.7-.42-1.29-1.04-1.75l-1.4 2.8c.49-.31.96-.77 1.41-1.41zm0 11.58c.44-.39.67-.85.69-1.4l-.7 1.41z"/><path fill="#F6921E" d="M81.598 201.052h-.016c.005.01.01.017.016.024v-.024zm8.422-10.87l-1.06-.71c-.805-.05-1.54-.074-2.212-.074-.95 0-1.758.05-2.43.146l.44 6.94-.348 3.873.347 1.39c.353 1.046.56 1.832.62 2.355-.11.378-.08 1.12.092 2.23l-2.12-2.12c-.51-1.14-1.1-2.184-1.76-3.136v1.036h-.69l.35-1.06h.33c-.44-.626-.9-1.21-1.39-1.755l-4.21-6.667-1.23-.365c-.4-.207-.58-1.07-.53-2.594l-6.32-.2-.7 1.06.69 5.26-.35 1.41.34 3.86-.35.7.35 5.26-.7 5.26 1.4.7 5.77.08-.53-5.33.02-5.59-.22-4.51c1.41.19 2.28 1.58 2.61 4.15l1.7 2.8 1.51 1.77c1.16 1.24 2.19 2.71 3.09 4.4.79.6 1.63 1.47 2.52 2.62 2.13-.28 4-.86 5.6-1.75l-.35-.69-.35-3.5.35-1.4-.35-1.41.35-8.07-.35-.69.35-2.81-.35-.69.69-2.45-.69.35zm-4.915 4.55l-.348-.693h.348v.69zm-14.376-2.1c.65.902 1.01 1.84 1.06 2.814-.98-.243-1.8-.596-2.47-1.06l1.4-1.753zm.69 9.116l-.7-1.753c.86.584 1.09 1.168.69 1.753zm-1.39.712l.69.347-.35.694h-.72l.36-1.04zm-.72-1.407l.71-.694c-.08.43-.31.67-.72.69zm0-2.814c-.37-.25-.6-.59-.7-1.04l.69 1.04zm-.7.36l.69.35-.35.69-.35-1.04zm.69 10.87l.71-1.06c-.05.42-.29.78-.71 1.06zm1.75 1.4h-.69l.35-1.06h.34v1.06zm0-4.57l1.41 1.06c-.68-.15-1.15-.5-1.41-1.06zm.71-1.06c.41.16.64.39.69.71-.4-.17-.64-.41-.7-.72zm3.14-10.53l-.35-.69 1.41.35-1.06.34zm3.16 7.73c.38.23.62.57.71 1.04l-.71-1.04zm5.26 5.6c.45.43.68.89.71 1.4-.38-.4-.62-.87-.71-1.41zm5.26-13.34c-.04.88-.39 1.58-1.05 2.12.15-.89.49-1.6 1.04-2.12zm0 6.67l-.7.34.35-1.04.34.69zm-3.16-3.86l.71-1.41c-.07.53-.31 1-.71 1.4zm1.4 4.91c-.53-.21-.87-.56-1.04-1.06l1.04 1.06zm-.67 4.71c-.01-.54.21-.59.66-.17.62.34.97.81 1.06 1.4-1.15-.29-1.72-.71-1.73-1.24zm1.38 2.65l1.38 1.06c-.65-.1-1.11-.45-1.39-1.06zm1.75-8.77l-.71-.35.34-1.06.71.71-.35.69zm24.11-7.51c-1.46-1.12-2.86-2.05-4.2-2.8-1.94-.62-3.81-1.09-5.61-1.41l-5.26 1.4c-1.49 1.08-2.66 2.25-3.51 3.51-1.26 1.31-2.08 2.71-2.47 4.2l-.35 1.06-.35 3.51.34 1.4 2.1 3.85c1.06 1.23 2.23 2.28 3.51 3.16 1.6.93 3.24 1.63 4.91 2.08l1.6.14c.28-.24 1.26-.29 2.96-.14l4.54-2.45c1.22-1.16 2.27-2.33 3.16-3.51.58-1.8.94-3.56 1.06-5.26l.69-1.04-.7-3.51-2.46-4.22zm-.35 4.22c-.83-.3-1.42-.77-1.76-1.41.76.34 1.35.81 1.75 1.4zm-1.76 3.51c.52.37.88.84 1.06 1.41-.6-.36-.95-.82-1.06-1.41zm.35 2.8c-.39-.16-.62-.39-.7-.69.39.23.62.46.69.69zm0-9.81l-.7 1.04c-.76-.41-1.34-.88-1.76-1.39l2.45.35zm-5.96-3.86v.69l-.35-.7h.34zm-.7.34c-.39-.23-.63-.47-.71-.72.41.16.65.4.71.71zm-.71 2.1c-.65-.51-1.12-1.1-1.41-1.76.72.41 1.19 1 1.4 1.75zm-2.1.34v.71l-.35-.72h.35zm-1.41-1.76l.71.35-.71.37v-.72zm-2.1 2.47c-.37-.25-.6-.6-.7-1.06l.69 1.06zm-2.45 1.75c.62.46.97 1.04 1.04 1.75l-.7 1.04-.35-1.41c-.45.64-.92 1.1-1.41 1.41l1.41-2.8zm-2.12 6.3c-.39-.16-.62-.39-.7-.69l1.06.35-.37.34zm.71 5.26l1.4-2.1c-.15.88-.61 1.58-1.41 2.1zm1.4 1.41l.7-1.41c-.03.55-.26 1.01-.7 1.4zm.7.34l.69 1.06c-.37-.25-.6-.6-.7-1.06zm-.7-5.26c.62.18 1.08.53 1.39 1.06l-1.39-1.06zm9.12 8.07l-1.06-.35.72-1.41h1.04l-.7 1.76zm1.98-4.38l-2.18.8-.7.34-1.88-.15c-.62.03-1.26-.37-1.9-1.19L98 204.03c.23-.8-.237-1.5-1.405-2.1l.51-.64c-1.35-.22-1.875-.35-1.57-.4l1.06-.363 1.405.36c.197-1.21.544-2.26 1.044-3.16.62-.978 1.52-1.85 2.703-2.63l1.956-.698c.912-.39 1.84-.35 2.774.13l2.047.73 1.04 3.16c.478.96.716 1.9.716 2.81l-.366 3.51c-.634 1.08-1.49 1.96-2.576 2.63zm3.29-.19l-.35-1.75 2.1 1.06c-.57.4-1.16.63-1.75.69zm2.1-3.51l-.35-.7c.37-.21.61-.45.69-.71l1.06.71-1.41.69zm26.11-10.17c-1.46-1.12-2.86-2.05-4.2-2.8-1.94-.62-3.81-1.09-5.61-1.41l-5.26 1.41c-1.49 1.08-2.66 2.25-3.51 3.51-1.26 1.31-2.08 2.71-2.47 4.2l-.34 1.06-.34 3.5.34 1.4 2.1 3.85c1.06 1.23 2.23 2.28 3.51 3.16 1.61.94 3.25 1.63 4.92 2.08l1.61.14c.28-.24 1.26-.29 2.96-.14l4.55-2.45c1.21-1.16 2.27-2.33 3.16-3.51.58-1.8.93-3.56 1.06-5.26l.69-1.04-.7-3.51-2.47-4.22zm-.35 4.22c-.83-.3-1.42-.77-1.76-1.41.77.34 1.35.81 1.75 1.41zm-1.76 3.51c.52.36.87.83 1.06 1.41-.6-.36-.95-.82-1.06-1.41zm.35 2.79c-.39-.16-.62-.39-.7-.69.39.23.62.46.69.69zm0-9.81l-.7 1.04c-.76-.41-1.34-.88-1.75-1.39l2.45.35zm-5.96-3.86v.7l-.35-.7h.35zm-.69.35c-.39-.23-.63-.47-.71-.71.41.16.65.39.71.71zm-.71 2.1c-.65-.51-1.12-1.1-1.41-1.75.72.41 1.19 1 1.41 1.75zm-2.1.35v.71l-.35-.71h.35zm-1.41-1.75l.71.35-.72.37v-.72zm-2.1 2.47c-.37-.25-.6-.6-.69-1.06l.69 1.06zm-2.45 1.75c.62.46.97 1.05 1.04 1.75l-.7 1.04-.35-1.4c-.45.63-.92 1.1-1.41 1.41l1.4-2.8zm-2.12 6.3c-.39-.16-.62-.39-.69-.7l1.06.34-.37.35zm.72 5.26l1.4-2.1c-.15.87-.62 1.57-1.41 2.1zm1.4 1.4l.69-1.41c-.03.55-.26 1.01-.7 1.4zm.69.35l.69 1.06c-.36-.25-.59-.6-.69-1.06zm-.7-5.26c.62.18 1.08.53 1.39 1.05l-1.39-1.06zm9.11 8.07l-1.06-.35.71-1.41h1.04l-.7 1.75zm1.97-4.39l-2.18.8-.7.35-1.88-.14c-.62.02-1.26-.37-1.9-1.19l-2.67-3.14c.23-.81-.24-1.51-1.41-2.1l.51-.64c-1.35-.22-1.88-.36-1.57-.4l1.06-.36 1.41.36c.19-1.2.54-2.26 1.04-3.16.62-.97 1.52-1.85 2.7-2.63l1.95-.69c.91-.39 1.84-.35 2.77.13l2.04.73 1.04 3.16c.48.96.72 1.9.72 2.82l-.37 3.5c-.63 1.08-1.49 1.96-2.57 2.63zm3.28-.18l-.35-1.76 2.1 1.06c-.58.4-1.16.63-1.75.69zm2.1-3.51l-.35-.7c.37-.21.6-.45.69-.71l1.06.71-1.41.69zm19.09-3.85l.49 1.31-.86-.3-.77-2.45c.68.56 1.38.91 2.1 1.06 1.36-1.48 2.06-3.11 2.1-4.92-.79-1.6-1.73-3-2.8-4.22l-1.9-1.17-4.57.35c-2.37-.39-4.47-.63-6.32-.72l-1.76.71-.18 5.23.35.71-.35 5.26.33 12.42.97-.11 1.4.36c2.41-.02 4.63-.38 6.67-1.06l2.89.11c2.08-.55 3.72-1.49 4.91-2.81l1.4-2.1-.35-3.85c-.87-1.04-2.13-2.32-3.78-3.84zm1.32 6.28c-.5-.24-.84-.59-1.04-1.04.53.21.87.55 1.04 1.04zm-.69-7.36c-.52-.21-.87-.56-1.06-1.04.54.19.89.54 1.06 1.04zm-10.52-7.36l-.35 1.06-.36-1.06h.71zm1.04 1.75c-.44-.1-.78-.33-1.04-.7l1.04.7zm-1.39 3.85h.35V198l-.35-1.06zm.35 1.4v.69l-.35-.69h.35zm-.71 6.32l-.35 1.04-.35-1.04h.69zm-1.76 5.26l.36-1.06.34 1.06h-.71zm0-1.75l.36-2.12c.76.63 1.35 1.34 1.75 2.11h-2.12zm2.12-5.62l.34-.7.35.34-.7.34zm.8-8.06l.56-.59c.9-.18 1.73-.57 2.48-1.17l2.77.37c1.09.33 1.8 1.27 2.14 2.8l-1.41-.36 1.04 1.41.71.35-.71 1.06-1.04-.7-3.16 1.76-2.96-.86c-.3-.84-.45-2.19-.44-4.05zm7.6 6.3v.71l-.35-.72h.35zm-5.96 8.42c.48.38.84.85 1.06 1.41-.53-.38-.88-.85-1.06-1.41zm3.16 1.06l-.35-1.06h.69l-.35 1.06zm0-1.75l-3.16-.35-.62-.06-.44 1.09-.29-1.77.65-.33-.37-3.51c-.13-.92.2-1.46 1.01-1.62l2.15.93 1.06-.36 2.79.36.36.69-.37 2.81-2.79 2.1zm2.79.69v-.69l.71.35-.71.34zm.71-1.75l.35-1.04 1.06.35-.36 1.04-1.04-.35zm1.41 2.1l1.39.71c-.6-.04-1.06-.28-1.39-.72zm7.98-3.16c-1.49 1.23-2.39 2.64-2.71 4.24 1.32 1.45 2.86 2.34 4.64 2.68l2.69-2.69-.79-1.94c-1.21-1.33-2.48-2.1-3.83-2.3z"/><g fill="#231F20"><path d="M39.814 186.125l.08-.023.045.157-.11.2-.11-.06-.03-.08.11-.21zm2.388-.02l1.966-.578.282.087.037.416.023.08c.157-.047.25-.018.282.087l.14.473-.057.102.102.056.023.078.014.34 2.203 3.71.315-.094c-.14-.473-.35-.896-.63-1.268l-.135-4.234c.21-.062.3-.144.27-.25 1.078-.202 1.634-.252 1.664-.147l-.04 4.797-.05.103.17.29c.03 1.645-.01 2.48-.11 2.513-.16.016-.3-.17-.42-.56l-.15.046.42 1.416c.17.52.3.768.39.74l.04.417c.2.687.46 1.153.76 1.4l.39 1.598.36.92-.19.227c-2.01.513-3.03.728-3.06.644l-.43-1.754-.32-1.1-.01-.34-.58-.512c.27-.25.35-.56.24-.926l-.04-.156-2.12-3.734c-.41-.97-1.46-2.2-3.14-3.69l-.04-.158.11-.203c.85-.2 1.29-.28 1.31-.21l.22-.14-.14-.47zm-.082 5.237c.435-.07.667-.054.7.052-.368.107-.505.32-.413.634l.153.81c.304 1.032.706 1.626 1.208 1.78.58.23.91.475.985.736l-.08.022c.205.442.402.726.594.852l-.056.102-.23.07c-.08.013-.44-.31-1.05-.972l-1.24-.745-.17-.29.02-1.116-.1-.056-.02-.07.01-.26-.31-.76c-.07-.24-.06-.5.03-.77zm2.766-.473l.046.15.08-.03.37-.2-.024-.08-.203-.11-.157.04-.112.2zm1.745 2.73l.11.05.08-.03c.36-.11.58-.32.67-.63l-.26-.01c-.44.23-.64.43-.59.6zm1.46 3.5l.05.16.21.11.24-.07-.11-.4-.2-.11-.16.3zm1.55 3.22l.42-.04.05.15-.23.07-.2-.11-.02-.08zm1.26-.37l.07.23-.15.04-.2-.11.06-.11.24-.07zm.67-4.99l.12.39-.15.04-.07-.24.11-.21z"/><path d="M48.06 184.433l1.123-.245.047.157-.92.357-.158.046-.204-.11.11-.205zm.152.81l.156-.046.116.393-.055.102.25.27-.06.1-.16.047-.26-.87zm.948 3.224l.08-.023.304.167-.01.26-.234.07-.25-.27.11-.2zm3.16-4.946l.28.09.057-.1.707-.21c1.442-.42 2.68.3 3.71 2.16l.264.61.144 1.07c.436-.07.668-.05.7.05l.02.08c.032.11-.094.26-.378.46l-.01.26.385 1.6.25.27c.95 3.26.54 5.54-1.23 6.86l-.69.29c-1.52.45-3.03-.42-4.53-2.6-.58-.79-1.05-1.82-1.42-3.08-.58-1.96-.79-3.63-.63-5.02.3-1.05 1.03-1.95 2.19-2.7l.15-.04zm-.567 13.76l.08-.02.203.11c.03.11-.033.18-.19.23.317.13.518.33.602.59l-.065.37.172.29-.056.1.36.07.84-.33.33-.01.05-.1 1.36-.31 2.12-.62.04.16-.24.07-4.65 1.62-.64-.15-.16-.81-.3-1.02.11-.2zm1.903-11.24c.037.13-.227.49-.79 1.09-.167.6-.216 1.01-.15 1.24l.242.53.283 1.54.15.22.01.6c.63 2.15 1.42 3.09 2.37 2.81.53-.15.76-.82.7-2l-.24-.53-.23-.78-.61-2.38c-.59.12-.9.13-.93.02-.03-.1.21-.26.72-.46l-.18-.63c-.38-.96-.82-1.38-1.3-1.24zm2.153 1.51l.04.16.23-.07-.1-.31-.08.03-.11.21zm.12-.72l.09.32.15-.04.24-.33.7.05.07-.02-.1-.05-.03-.07-.02-.34-.36-.06-.16.05c-.41.12-.61.3-.62.53zm.83-4.43c.26-.06.41-.05.44.04v.6l.1.06.08-.02c-.09.3-.1.56-.03.78l-.16.05-.23-.78c-.07-.21-.29-.37-.66-.49l.05-.1.39-.11zm-.27-2.06l.65-.1.46 1.57-.11.21c-.33.1-.63-.13-.89-.68l-.08.02c-.13-.64-.15-.98-.04-1.01zm.48 1.06l.02.08.1.06.02.08-.06.1.08-.02.05-.1-.07-.23-.16.05zm3.7 13.44l.2.11.21-.14.02.08c.32 1.1.3 1.71-.07 1.81l-.11.21-.42.04-.06.1.1.06.07.24-.76.31-.32.1c-.11.03-.19-.06-.25-.27l-.24.07-.91.1-.4.12-.02-.08c-.05-.14 1.01-.62 3.16-1.44l-.17-.29-.04-.41-.22-.45.19-.23zm-.44-.89l.15-.04.07.24-.16.05-.07-.23z"/><path d="M55.818 181.064l.156-.046.046.157-.742.38.326.238.056-.103.157-.047.043.15.012.33.168.283-.078.022-.204-.11.08-.023c-.486-.353-.868-.488-1.146-.406l.023.07-.056.1.09.04.04.15-.16.04c-.04-.13-.17-.18-.38-.14l-.11-.06-.05-.15c-.05-.15.52-.46 1.7-.92zm-.44 1.703l.293.41-.11.194-.21-.43c-.1.03-.13.13-.09.28l-.05.11-.08.02-.48-.19-.02-.07.4-.11.37-.19zm1.09 3.405l.156-.046-.058.093.102.05.067.23-.157.04-.11-.38zm.075.55l.08-.023c.12-.04.258.14.416.54l-.16.04.04.15c.15-.05.27.05.34.31l-.4.11-.34-1.14zm2.896-5.81l.2.104.05.48 1.59 4.82.28 2.404.1.047.11.386-.06.102.1.048.06.228c.51 1.73 1.15 2.48 1.95 2.24l.08-.02c.94-.28 1.02-1.76.23-4.45l-.7-1.78.05-.1.01-.25.07-.02-2.1-4.51.06-.09 1.02-.3c1.15-.34 1.77-.38 1.84-.13.83 2.25 1.45 3.66 1.85 4.25.05.15-.04.26-.25.32l.64 1.88.13.46.4 1.95c.13.27.36.47.69.63l-.34 1.18.22.19-.03.5.08-.02.19-.22.22.18.02.07-.18.55-.16.05c-.16-.33-.29-.48-.4-.45l-.16.05.1.05.02.08-.06.11.02.07.47.45.07.23-.11.19c-.13.04-.26-.12-.4-.46l.06-.09-.52-.02c-.09.03-.1.28-.03.76l-.08.02-.2-.1c-.74.99-1.4 1.57-1.97 1.74-1.93.56-3.6-.54-5-3.32l-.17-.29-.44-1.77-.38-1.29-.23-.18-.43-2.03-1.3-3.83.19-.23 1.65-.49.77-.3zm-2.15 6.912l.1.057.02.08-.06.1.1.06.18.61-.15.38.23-.07.37-.19.07.23c-.38.16-.62.31-.72.46l-.08.03-.16-.53-.22-.43c-.08-.26.01-.52.29-.75zm1.5-8.22l.08-.02.63.395.02.07-.08.02c-.31-.19-.69-.22-1.14-.09l-.53.24-.05-.15 1.05-.48zm2.42 16.08c.71-.085 1.08-.086 1.11-.002l-.88.507-.02-.08-.06.09-.08.02-.21-.11c-.01-.27.04-.42.12-.45zm1.91-1.638l.08-.023c.35-.162.52-.294.49-.393l-.03-.08-.17.05-.38.446zm1.37-.9l.32.23.08-.023-.24-.505-.08.023c-.11.04-.14.13-.09.28zm1.36-4.947l.04.14c.35-.22.6-.54.74-.96l-.11-.06-.69.87zm1.83-1.04l.02.08-.12.19-.2-.11.05-.1.24-.07zm1.39 6.2l.16-.05.19.35-.23.4-.24.07-.1-.06-.06.1-.08.02-.76.05-.47.14-.05-.15 1.55-.54.07-.35zm-.52-4.13l-.56-1.69-.41-.82.19-.23-.74-1.92-.06-.5-.49-1.65c-.03-.1-.29-.11-.78-.03l-.02-.08c-.04-.13.14-.29.53-.5l-.1-.32c-.14-.45-.19-1.29-.15-2.52l2.17-.47.45-.22c1.01-.13 1.8-.3 2.37-.51l.08-.02c.96-.24 1.83.24 2.6 1.43l.66 1.68c.47 1.6.31 2.99-.48 4.16l.04.15c.81.87 1.74 2.5 2.81 4.9.09.31.41.62.95.91l-.05.11-.08.02c-2.03.65-3.07.87-3.14.66-.33-.34-.55-.7-.66-1.09l.08-.03-1.3-2.95-.04-.42-.33-.25c-.94.31-1.38.55-1.32.73l.16.55.21.45-.01.26.11.05.08.57.14.47.21.45.01.33.15.21.04.41.33.84-.19.23-1.97.58-.19.23-.47-.71-.13-.73-.11-.06-.02-.08-.51-2.33c-.03-.13-.07-.24-.11-.34zm.39-7.44l-.44-.04-.21.14.04.15.17.29-.01.26.23-.07c.1-.03.13-.21.09-.54l.15-.05.41.81.17.89c.33.19.65.23.98.14l.39-.12c.68-.2.89-.94.63-2.24l-.09-.32c-.25-.56-.47-.81-.65-.75-1.34.48-1.98.83-1.91 1.07l.01.34zm-.13 1.58l.08.57.11.39.2.11.01-.26-.34-.84-.08.02zM70 194.04l.315-.09 1.01-.04.056-.1.16-.044.03.08 1.55-.544.08-.02c1.37-.403 2.07-.524 2.12-.367l-.35.27-.57.083-.47.137-2.61.684-1.07.4-.44-.04-.05-.16.27-.25zm2.093-10.604l.023.08c.494.48.92.67 1.275.56l.3-.17c-.11-.367-.51-.59-1.22-.666l-.2-.11-.16.305zm.415-2.94l-.055.1.023.08.1.054.08-.023.054-.1-.023-.08-.1-.05-.08.025zm.49 6.603l.025.08.416-.04.08-.02-.03-.08-.21-.11-.29.17zm1.06-10.05l.47-.14.104.05.055-.1.08-.03.2.11.14.47-.056.1.11.05.42 1.41.17.29.08.84-.15.04c-.08-.3-.38-.81-.88-1.54l.15-.39.16-.04-.32-1.1-.65.1-.04-.16zm1.63 3.79l.235-.07.204.11.484 1.65c.11.36.11.56.01.59l.41.82.06.49.05.15.17.3c.06.21-.09.36-.46.47.01.22-.06.36-.22.4-.58-.07-.89-.15-.92-.24.16-.05.21-.18.15-.39l.08-.02c.26.09.6.08 1.02-.04l.05-.11-.02-.08-.1-.06-.05.1-.24.07-.2-.11c-.06-.23-.01-.53.16-.9l.21.11-.17-.89-.07.02-.05.1-.07.02-.1-.05-.02-.08-.01-.34-.15-.21.11-.21-.41-.82-.19-.62.12-.2zm.93 5.19l.157-.05.14.47-.158.04-.14-.47zm.95 1.77l.202.11.14.47-.112.2c-.23-.02-.36-.06-.382-.14l-.07-.24.222-.41zm.753 2.85l.21.11-.05.1-.15.05-.2-.11.06-.11.16-.05zM77.84 180l.2.11-.05.1-.08.025-.2-.11.06-.103.08-.02zm.55-5.375l.4-.116.05.16-.39.12-.042-.16zm.71.647l2.36-.696c.24-.07.95 1.37 2.13 4.33l.1.05c.15.353.28.515.4.48l.06-.1.08-.026c.25.84.51 1.33.78 1.48l.05.157-.09.287.024.08.103.053.023.08.422-.3c.14.09.303.353.49.794l.156-.05.19-.22.076-.02.3 1.88.17.29.2.97 1.16 2.48-.01.26-.155.05-.31-.17-.53.24-.08.03h-.86l-.51-.27-3.12-5.66-.08.03-.11.2 1.08 3.1-.01.26c.41.83.72 1.6.93 2.29l-.06.1-.08.03-1.19.01-.06.11.02.08c.09.08.76.14 2.01.18l.04.15-.97.2-.17.3.2.11-.27.25-1.76.69-.1-.31.05-.1-.02-.08.57-.08.55-.16c-.03-.1-.31-.08-.83.08l-.02-.07-.06.1-.08.02-.1-.05-.08.03c-.27-1.3-.83-3.42-1.69-6.34l-.17-.55-.01-.6c-.16-.41-.27-.6-.34-.58.1-.24-.02-.95-.37-2.11l-.98-3.04.21-.15-.02-.08-.16.04-.05-.15c.25-.07.42-.18.51-.32zm-.23 5.88l.89-.178.05.156-.233.07c-.38.114-.57.255-.56.424l.867 2.65.594 2.302-.16.05-.947-3.226-.24-.523.08-.023-.14-.214.01-.26-.21-.446-.14-.474.17-.303zm2.2 7.47l.11.055.323 1.103.194.37-.052.1.42-.036.057-.1.81-.15 1.414-.42c.685-.2 1.048-.224 1.09-.066-.123.21-.545.42-1.263.63l-.16.046-.1-.058-.054.1-2.33.52-.11-.053-.02-.078.06-.104-.02-.07-.11-.06-.08-.57-.28-.94.11-.2zm.91-7.36l.15.21.16-.046c.106-.03.135-.13.09-.29l-.15-.21-.166.302-.08.02zm1.4-8.616c.39.17.807.22 1.24.14.048.155.2.195.46.12l.048.156-.525.24-.934.02-.17 1.16-.16.05-.05-.157c-.14-1.1-.11-1.68.09-1.738zm3.546 1l.55-.164c.173.01.3.144.375.406l.53 1.81c.74.386 1.13.642 1.17.77l.41 1.673.1.06.03.08-.05.11 1.28 3.47 1.27 4.33c.04.11-.12.27-.46.48l-1.85.37-.63.19-.2-.11-.51-1.73-.13-.73-.31-.77-.56-1.88.06-.1-.1-.06-.54-2.14-.07-.23-.43-1.15-.37.2.17.3-.14 1.84-.08.02c-.63-.64-1.13-.92-1.52-.83l-.27-.35.06-.1.24-.07.38.14.08-.02-.03-.41c-.03-.09-.34-.17-.93-.24l-.11.21-.02-.08c.02-1.63.45-2.89 1.28-3.8.3-.08.45-.44.45-1.07l.92-.36zm-1.55 14.47c2.06-.15 3.115-.148 3.16.01l-.055.102-.08.02c-1.96.12-2.96.1-3.01-.058l-.02-.08zM87.028 172l.204.11.09.315-.11.202-.102-.057-.023-.08c-.14.043-.31.235-.51.58l-.598.004-.22.15-.37-.403.08-.02.42-.03 1.14-.76zm.053 16.733c.65-.12 1-.11 1.04.04l.03.08-1.07.14-.02-.08.06-.1-.02-.077zm.52-17.41l.1.054.03.08-.05.1-.08.025-.1-.057-.02-.08.06-.1.08-.026zm1.04.036l.07.23-.39.12-.04-.16.37-.2zm.14 1.07l1.13-.25.05.16-.92.35-.15.05-.2-.11.11-.21zm.15.81l.16-.05.12.39-.05.1.25.27-.05.1-.16.04-.25-.87zm.95 3.22l.08-.03.31.17-.01.26-.23.07-.25-.27.11-.21zm3.16-4.95l.28.09.06-.1.71-.21c1.44-.43 2.68.29 3.71 2.15l.27.6.15 1.07c.44-.08.67-.06.7.05l.02.07c.03.1-.09.25-.38.45l-.01.26.39 1.59.25.26c.96 3.26.55 5.54-1.23 6.86l-.68.28c-1.52.44-3.02-.42-4.53-2.6-.57-.79-1.05-1.82-1.42-3.09-.58-1.96-.78-3.64-.62-5.03.31-1.06 1.04-1.96 2.2-2.7l.15-.05zm-.56 13.75l.08-.03.2.11c.03.1-.03.18-.19.23.32.13.52.32.61.59l-.06.36.17.29-.05.1.36.06.85-.33.34-.02.06-.1 1.36-.32 2.12-.62.05.15-.24.07-4.65 1.62-.64-.16-.15-.81-.3-1.02.11-.21zm1.91-11.24c.04.12-.22.48-.79 1.08-.16.59-.21 1.01-.14 1.24l.24.52.28 1.54.15.21v.6c.63 2.15 1.42 3.08 2.37 2.81.53-.16.76-.82.7-2l-.24-.53-.23-.79-.61-2.38c-.59.12-.9.12-.94.02-.03-.1.21-.26.72-.47l-.18-.63c-.38-.97-.82-1.39-1.3-1.24zm2.16 1.5l.05.15.23-.07-.09-.32-.08.02-.11.2zm.13-.73l.09.31.16-.05.25-.33.7.05.08-.02-.1-.06-.02-.08-.01-.34-.36-.07-.15.04c-.4.12-.61.29-.61.52zm.83-4.43c.27-.07.41-.05.44.04v.6l.1.06.08-.03c-.08.3-.09.56-.03.78l-.15.05-.23-.79c-.06-.22-.28-.38-.65-.49l.06-.1.4-.12zm-.26-2.06l.66-.11.46 1.57-.11.2c-.33.1-.63-.13-.88-.68l-.08.02c-.13-.65-.14-.99-.04-1.02zm.48 1.05l.03.07.1.06.02.08-.05.1.08-.03.06-.1-.07-.24-.15.04zm3.7 13.44l.21.11.21-.15.03.08c.32 1.1.3 1.7-.07 1.81l-.11.2-.42.03-.05.1.1.06.07.24-.76.31-.31.09c-.1.03-.19-.06-.25-.27l-.23.07-.91.09-.4.11-.02-.08c-.04-.14 1.01-.62 3.16-1.44l-.17-.29-.03-.42-.21-.45.19-.23zm-.43-.9l.16-.05.07.23-.16.04-.07-.24zm-4.09-12.27l.03.08c.03.1-.03.18-.19.22l-.01.26-.1-.06-.08.02-.66.37-.1-.06-.02-.08c.15-.21.53-.47 1.14-.76zm1.05-.22c.15.24.26.35.35.32l.47-.14.77-.31c.64.67 1.14 1.32 1.52 1.95l.18.89c.14.47.42.84.84 1.12l1.31 2.69-.42.3-.1-.06-.21.14c.12.31.25.44.37.4l.48-.4.39.14.16-.05c.06-2.53-.22-4.81-.82-6.85l-.23-.79c-.04-.13.04-.24.25-.33l1.04-.23 1.61-.65.1.06.04.16c.68 2.3.79 6.06.33 11.27.09 1.31.08 2.54-.03 3.68-.43.09-.66.1-.68.03l-.05.1-.24.07-.34.01-.29.17c-.31.1-.65-.38-1.01-1.41-1.61-2.95-2.85-5.01-3.7-6.17-.36.11-1.1-.85-2.21-2.85l.24-.33-.62-.07-.05-.16.15-.04-.02-.08-.66-1.94.24-.07.85-.59zm2.06 3.49l.07.23.24.52c.11-.03.14-.12.09-.28l-.24-.53-.16.05zm.55.69l.16.55.08-.03.11-.21-.2-.11-.03-.42-.11.2zm1.36 9.25l.11.05.02.08-.05.1-.08.02-.1-.06-.02-.08.06-.1.08-.02zm2.12-4.72l.07.24.2.11.06-.1.01-.26.08-.03-.14-.22-.16.04-.11.2zm2.6-11.19l.1.05.02.08-.11.2-.23.07-.42.04-.04-.16.69-.29zm2.59 9.66l.08-.03.3.16.07.24-.11.2-.79.23-.16.31-.83.07-.02-.08c-.03-.09.26-.29.85-.59.22-.29.42-.47.62-.52zm-3.93-10.08l.24-.07.05.15c-.21.06-.3.14-.27.25l.02.07.2.37-.23.07-.04-.16c-.12-.39-.1-.62.05-.7zm1.14-.51l.34-.01.05.15-.6.27-.1-.06-.05-.16.37-.2zm.27 1.2l1.65-.49.68-.03 1.62-.57.08-.02.29-.17.1.05.53-.24.79-.23.21.11.07.23.99 2.78-.27.25-.57.08-.39.12-.45.21-.1-.06-.76.31-.63.18c-.09.02-.1.37-.04 1.03l-.24.33.14.47.2.11 2.71-.97.1.05.03.08 1.01 2.86c-.18.22-.57.42-1.19.6l-1.52.36c-.19.11-.25.3-.18.56l.2.37.18.89.23.79.2.11 3.46-1.02.2.11.71 2.43-.17.31-.95.28-5.06 1.66-.1-.06-1.97-7.28c.06-.16-.03-.76-.27-1.8l-.21-.45.08-.02-.1-.05-.2-.97-.02-.08-1.16-3.08.11-.2zm2.19-1.84l.24-.07.02.08-.11.2-.1-.06-.05-.16zm1.08 17.88l.21.11-.06.1-.08.02-.2-.11.06-.1.08-.02zm2.27-19.3l.31.17.14.47-.72-.13-.05-.16c.13-.04.24-.16.33-.35zm.11 18.94l.23-.07-.11.21-.1-.05-.02-.08zm4.16-7.02l1.4-2.01c.04-.06.09-.11.15-.16s.12-.08.19-.1c.35-.1.72-.02 1.12.26.39.27.66.66.8 1.15.2.67.07 1.34-.38 1.99-.45.65-1.05 1.09-1.81 1.31-.01 0-.02 0-.03-.01-.01-.01-.01-.02-.02-.03s.01-.06.03-.14c.14-.52.16-.95.06-1.3-.06-.22-.16-.38-.28-.49-.12-.11-.31-.2-.57-.25-.14-.03-.29-.05-.45-.04-.16 0-.25-.03-.27-.08v-.07c.01-.02.03-.05.05-.07z"/></g></svg>