<svg xmlns="http://www.w3.org/2000/svg" width="250" height="250" viewBox="0 0 250 250"><path opacity=".15" fill="#231F20" d="M218.965 54.925l-1.763 2.787c-4.667 7.376-15.635 17.65-23.542 24.59l1.144-4.35c.16-.196.32-.408.473-.63l.4-.365.137-.123.32-.29-.013-.43v-.21c.11-.213.22-.43.32-.65l.17.074.61.266.44-.5.19-.215c13.18-14.94 17.85-31.94 17.9-32.11l.6-2.24 1.4-5.22-3.04 4.45-1.3 1.91c-1.45 2.13-2.86 4.14-4.22 6.03-.37-.36-.8-.69-1.28-.96-.53-.35-1.51-.85-2.83-.96l-.05-.01c-.19-.02-.39-.03-.59-.03-.53 0-1.04.06-1.53.18 1.62-4.92 2.01-7.92 2.02-7.99l.31-2.49.7-5.81-2.45 5.3-1.05 2.27c-3.77 8.17-7.8 14.83-11.42 20.04l-.71.74c-.79-1.53-2-2.67-3.56-3.32-.97-.47-2.02-.71-3.13-.71h-.35c-1.66-2.89-3.68-4.07-5.24-4.54-.69-.25-1.4-.38-2.1-.38-.51 0-1.01.07-1.51.2l.07-1.75 1.56-6.66c.15-.58.37-1.45.55-2.34 1.81-6.55-.84-9.13-2.64-10.09-.78-.45-1.66-.69-2.58-.73h-.13c-.3-.04-.59-.05-.87-.05-2.46 0-4.15 1.36-4.88 2.86-3.8 4.59-6.32 18.04-6.85 21.06l-4.2 16.78c-1.23.84-2.09 1.74-2.63 2.41l-.02.03c-.12-1.82-.48-3.74-1.21-5.69-2.68-7.17-9.4-12.61-20-16.18l-.25-.08-.5-.07h-.2c-1.26 0-2.37.7-2.91 1.83-.18.38-.3.77-.33 1.21-4.9-1.9-11.62-3.37-20.71-3.37-2.53 0-15.04.95-17.77 1.18l9.62 2.68c-4.7.3-9.61 1.14-14.66 2.52l-.08.02-.08.03c-2.07.7-5.92 2.01-5.41 5.08.18 1.09.78 1.77 1.54 2.18-2.07 1.97-4.22 4.65-6.17 8.28-1.26-1.39-2.37-2.74-3.15-3.91l-2.24-3.36 1.56 3.74s.03.07.08.18c-4.09-4.41-12.77-14.87-20.36-31.31l-1.05-2.28.3 2.49c.02.15 2.04 15.61 16.23 34.24.04.48.18 1.01.42 1.56l.17.37c.09.25.18.5.28.76-3.56-2.97-13.25-12.05-27.27-32.56l-1.3-1.91.6 2.23c.05.17 4.65 16.95 17.7 31.74l.19.21.26-.11c.04-.02.81-.37 1.32-1.34l.26.64-.07 2.29v.18l.14.12 1.8 1.65c.13.68.83 3.68 3.44 7.92l-.3.76c-8.23-7-22.29-19.59-27.85-28.37L32 53.55l1.054 3.123c.07.2 7.07 20.43 24.94 33.742.076.26.28.87.68 1.74l-.13.33c-.36.91-.67 2.08-.82 3.37-6.67-3.16-16.03-8.02-20.604-12.38L35.75 82.2l.71 1.723c.06.15 1.555 3.73 5.224 8.03 1.83 2.15 4.43 4.7 7.87 7.04l1.46 7.304c.03.167.07.34.12.52-2.32-1.124-4.37-2.313-5.86-3.524L42.8 101.3l1.9 2.543c.064.086 4.143 5.44 10.743 10.21.737.655 1.577 1.24 2.52 1.71.855.54 1.746 1.055 2.665 1.55l-1.115.04 2.247 1.873-5.812.39 1.34 1.07c-.18.03-.36.063-.55.102-1.02.22-1.86.536-2.57.85l-.26-.055-1.37-.286.79.74h-.004c-.99.504-1.8 1.044-2.413 1.47-1.04.73-2.04 1.54-3.16 2.54-2.87 2.365-6.45 5.523-7.25 7.16l-.25.52-.01.265c-.5.6-.96 1.16-1.37 1.664-.72.877-1.43 1.77-2.13 2.67l-.72.91c-1.02 1.31-1.47 2.94-1.27 4.59.2 1.65 1.04 3.125 2.34 4.15 1.09.853 2.46 1.32 3.84 1.32 1.93 0 3.72-.87 4.93-2.416l.74-.97c.46-.606 1.08-1.42 1.93-2.495l.92-1.14.72-.206 5.67-6.85c.65-.61 1.24-1.11 1.79-1.54.5 2.37.67 5.25.78 8.01.09 2.53.12 5.09.15 7.81l.02 1.68c.04 3.5.09 6.67.29 9.94.23 3.29.54 6.81 1.61 10.5.33 1.08.7 2.04 1.13 2.94.61 1.26 1.27 2.26 2.08 3.16.76.84 2.04 2.01 3.87 2.73 1.16.46 2.45.7 3.75.7.27 0 .54-.01.83-.03.65-.05 1.26-.15 1.83-.28-.22 1.13.03 2.48.49 4.06.25.87.49 1.57.5 1.58.95 2.7 2.92 4.36 5.46 4.64-.41.41-.77.81-1.09 1.19-2.06 2.42-2.9 4.43-2.94 4.51l-.4.97.76-.72c2.45-2.34 7.36-4.94 11.06-6.72.93-.11 1.7-.53 2.32-1.08.29-.13.56-.26.81-.37-1.77 2.2-2.35 3.88-2.46 4.25-10.04 7.48-13.98 18.85-14.02 18.97l-.59 1.76.99-1.57c3.37-5.33 12.3-13.14 16.68-16.81-1.72 2.41-2.4 4.3-2.66 5.22-1.98.89-3.7 2.1-4.06 4.01-.05.26-.06.5-.06.75-5.95 7.69-8.11 15.56-8.14 15.64l-.33 1.25.74-1.08c3.91-5.72 7.22-9.86 9.81-12.78l1.94.48c-5.19 8.35-6.02 14.68-6.03 14.76l-.17 1.4.59-1.28c2.9-6.28 6.08-11.01 8.55-14.17l22.3 5.44c1.28 1.59 2.76 2.39 4.4 2.39 1 0 1.9-.32 2.67-.81.96.66 1.92.98 2.91.98.87 0 1.62-.25 2.26-.65.47.15.98.23 1.5.23 2.37 0 4.41-1.65 4.79-1.99l.79-.68.16-1.03c.31-2.08-.27-4.05-1.7-5.71-4.69-5.46-18.75-6.95-27.61-7.34 1.02-1.12 2.19-2.27 3.47-3.43.13-.12.26-.24.38-.36l23.38 4.2c1.21 1.29 2.54 1.94 3.98 1.94 1 0 1.89-.33 2.63-.84.81.45 1.61.68 2.42.68.89 0 1.66-.27 2.3-.7.33.07.68.11 1.03.11 2.37 0 4.31-1.78 4.68-2.14l.24-.24c1.81 1.97 3.16 3.81 3.84 5.28l.63 1.37 1.48 3.19-.5-3.49-.22-1.5c0-.03-.3-2.04-1.55-4.78 2.06 1.92 4.42 4.27 5.56 5.98l1.26 1.89 2.95 4.41-1.73-4.16c2.57 3.15 6.08 8.15 9.27 15.07l.59 1.27 1.38 2.98-.39-3.26-.17-1.4c-.01-.09-1.09-8.37-8.5-18.52 2.71 2.62 7.28 7.64 13.28 16.42l.73 1.07 1.72 2.5-.79-2.93-.34-1.26c-.03-.1-2.65-9.66-10.06-18.05l-.11-.12-.25-.28-.35.15-.14.06c-.01 0-.06.02-.14.07l.02-.48v-.11l.01-.24-.18-.16-.07-.07-.89-.8c-.1-.46-.4-1.52-1.13-2.98 4.47 3.88 11.32 10.17 14.13 14.6l.99 1.57 2.32 3.66-1.39-4.1-.6-1.76c-.03-.1-2.86-8.24-9.76-15.32l.81-.79c.18-.13.57-.32 1.02-.49l-.03.44 3.04.18c.68.49 1.29.98 1.79 1.46l.75.72 1.76 1.68-.93-2.26-.4-.97c-.01-.02-.08-.19-.22-.47l2.27.14-.58 1.31 4.49 2 1.36-1.21c.7-.62 2.59-1.71 4.18-2.28l.21-.07c.02.02.03.03.05.04.45.38 1.48 1.27 1.75 1.6l2.57 3.63 2.19-3.89c.42-.75.96-1.23 2.39-2.12l3.57-2.23-2.94-2.12 1.6.1-1.15-3.87c-.21-.7-.28-1.62-.22-2.67l.7-11.72c.06-1.05.25-1.96.53-2.62l1.61-3.71-11.23-.67.17-2.74 2.29-2.46-3.65 1.5c0-.5.03-1.18.08-2.13l.72-12.13-1.32.55-3.97-.38-1.84-.17c-.19-.02-.43-.06-.73-.13l.07-.39-.65.23c-1.21-.37-3.15-1.16-6.2-2.84 7.77-.97 13.75-5.74 13.81-5.79l1.06-.85 2.47-1.99-3.14.35-1.34.15c-1.25.14-2.47.21-3.63.21-1.56 0-2.9-.13-4.03-.32 9.92-3.02 18.03-10.54 18.12-10.62l1.03-.97 2.4-2.25-3.21.66-1.38.29-18.96 3.95c1.4-1.23 2.45-2.34 2.94-2.86 15.19-2.97 26.04-17.22 26.15-17.37l1.9-2.54 4.45-5.93-5.75 4.65-2.47 1.99c-4.11 3.32-12.68 6.53-19.06 8.62 2.53-2.38 4.7-5.25 5.5-6.35 9.06-2.95 15.01-8.3 18.41-12.29 3.76-4.41 5.32-8.12 5.38-8.28l.71-1.72 1.66-4.02-3.14 3-1.34 1.28c-4.84 4.62-15.32 9.88-21.84 12.91 1.44-2.23 2.11-3.92 2.38-4.73 17.89-13.45 24.96-33.8 25.03-34l1.06-3.13 2.47-7.3-4.11 6.49zM63.372 86.227c.008.01.016.02.022.032l-.02-.02-.002-.02zm121.636 62.548l1.994-.68-1.104.46c-.47.198-1.058.364-1.697.495l.81-.275z"/><path fill="#231F20" d="M216.965 51.925l-1.763 2.787c-4.667 7.376-15.635 17.65-23.542 24.59l1.144-4.35c.16-.196.32-.408.473-.63l.4-.365.137-.123.32-.29-.013-.43v-.21c.11-.213.22-.43.32-.65l.17.074.61.266.44-.5.19-.215c13.18-14.94 17.85-31.94 17.9-32.11l.6-2.24 1.4-5.22-3.04 4.45-1.3 1.91c-1.45 2.13-2.86 4.14-4.22 6.03-.37-.36-.8-.69-1.28-.96-.53-.35-1.51-.85-2.83-.96l-.05-.01c-.19-.02-.39-.03-.59-.03-.53 0-1.04.06-1.53.18 1.62-4.92 2.01-7.92 2.02-7.99l.31-2.49.7-5.81-2.45 5.3-1.05 2.27c-3.77 8.17-7.8 14.83-11.42 20.04l-.71.74c-.79-1.53-2-2.67-3.56-3.32-.97-.47-2.02-.71-3.13-.71h-.35c-1.66-2.89-3.68-4.07-5.24-4.54-.69-.25-1.4-.38-2.1-.38-.51 0-1.01.07-1.51.2l.07-1.75 1.56-6.66c.15-.58.37-1.45.55-2.34 1.81-6.55-.84-9.13-2.64-10.09-.78-.45-1.66-.69-2.58-.73h-.13c-.3-.04-.59-.05-.87-.05-2.46 0-4.15 1.36-4.88 2.86-3.8 4.59-6.32 18.04-6.85 21.06l-4.2 16.78c-1.23.84-2.09 1.74-2.63 2.41l-.02.03c-.12-1.82-.48-3.74-1.21-5.69-2.68-7.17-9.4-12.61-20-16.18l-.25-.08-.5-.07h-.2c-1.26 0-2.37.7-2.91 1.83-.18.38-.3.77-.33 1.21-4.89-1.9-11.62-3.37-20.71-3.37-2.53 0-15.04.95-17.77 1.18l9.62 2.68c-4.7.3-9.61 1.14-14.66 2.52l-.09.02-.08.03c-2.07.7-5.91 2.01-5.4 5.08.18 1.09.78 1.77 1.54 2.18-2.07 1.97-4.22 4.65-6.18 8.28-1.26-1.4-2.36-2.74-3.14-3.91l-2.25-3.36 1.56 3.74c0 .01.03.07.08.19-4.1-4.4-12.78-14.86-20.37-31.3l-1.05-2.28.3 2.48c.02.15 2.04 15.61 16.23 34.24.04.48.18 1 .42 1.55l.17.37c.09.25.18.5.28.76-3.55-2.98-13.25-12.05-27.26-32.57l-1.3-1.91.6 2.24c.05.17 4.66 16.95 17.7 31.74l.19.22.26-.11c.04-.02.82-.36 1.32-1.33l.26.64-.07 2.28v.18l.14.12L56.52 73c.13.68.83 3.68 3.44 7.915l-.3.76c-8.23-7-22.29-19.59-27.85-28.376l-1.77-2.79 1.06 3.12c.07.21 7.07 20.43 24.94 33.75.08.26.28.87.68 1.74l-.13.33c-.36.91-.67 2.08-.82 3.38-6.67-3.16-16.03-8.02-20.6-12.38L33.8 79.2l.71 1.727c.06.15 1.56 3.73 5.23 8.03 1.83 2.15 4.43 4.704 7.864 7.04l1.46 7.3c.035.17.076.34.12.52-2.313-1.124-4.36-2.31-5.86-3.524l-2.5-1.99 1.906 2.54c.064.09 4.14 5.44 10.74 10.21.74.66 1.58 1.24 2.525 1.71.85.54 1.742 1.06 2.66 1.55l-1.113.04 2.246 1.876-5.815.38 1.34 1.07c-.185.03-.367.06-.55.1-1.02.22-1.87.53-2.57.85l-.263-.06-1.374-.29.79.74h-.01c-.99.5-1.8 1.04-2.42 1.47-1.04.73-2.05 1.53-3.17 2.54-2.87 2.37-6.45 5.52-7.25 7.16l-.26.52-.02.27c-.51.6-.97 1.15-1.38 1.66-.72.87-1.44 1.77-2.13 2.66l-.72.91c-1.03 1.31-1.48 2.94-1.28 4.59.2 1.65 1.03 3.13 2.34 4.15 1.09.85 2.452 1.32 3.835 1.32 1.93 0 3.72-.87 4.93-2.42l.74-.97c.46-.6 1.08-1.42 1.93-2.49l.91-1.14.72-.21 5.66-6.85c.64-.6 1.24-1.11 1.79-1.53.5 2.37.67 5.26.78 8.02.09 2.53.12 5.1.15 7.81l.02 1.68c.04 3.51.09 6.67.29 9.94.23 3.29.53 6.81 1.6 10.5.33 1.08.7 2.04 1.13 2.94.61 1.26 1.28 2.27 2.08 3.16.76.85 2.04 2.01 3.87 2.73 1.16.46 2.45.7 3.75.7.27 0 .54-.01.83-.03.65-.05 1.26-.15 1.83-.28-.22 1.13.03 2.48.49 4.07.25.87.5 1.57.51 1.59.95 2.71 2.92 4.36 5.47 4.64-.41.41-.77.81-1.1 1.19-2.06 2.42-2.9 4.43-2.94 4.51l-.4.97.76-.72c2.46-2.35 7.37-4.94 11.07-6.72.93-.11 1.69-.53 2.32-1.08.29-.13.57-.26.82-.36-1.77 2.2-2.35 3.88-2.46 4.26-10.04 7.48-13.98 18.85-14.02 18.97l-.59 1.76 1-1.57c3.37-5.33 12.3-13.14 16.68-16.82-1.71 2.41-2.4 4.3-2.66 5.22-1.98.89-3.7 2.1-4.06 4-.05.26-.06.51-.05.75-5.95 7.69-8.12 15.56-8.14 15.65l-.34 1.25.73-1.08c3.91-5.72 7.22-9.86 9.81-12.78l1.94.47c-5.19 8.36-6.02 14.69-6.03 14.76l-.17 1.4.59-1.28c2.9-6.28 6.08-11 8.54-14.17l22.3 5.44c1.28 1.59 2.76 2.39 4.4 2.39 1 0 1.89-.32 2.67-.81.96.66 1.92.98 2.91.98.87 0 1.62-.25 2.26-.65.47.15.98.23 1.5.23 2.38 0 4.41-1.65 4.79-1.98l.8-.68.16-1.04c.32-2.07-.27-4.05-1.7-5.71-4.68-5.46-18.75-6.95-27.6-7.34 1.02-1.12 2.19-2.27 3.47-3.43l.39-.36 23.38 4.2c1.21 1.29 2.54 1.94 3.98 1.94 1.01 0 1.89-.33 2.64-.84.81.45 1.61.67 2.42.67.89 0 1.66-.27 2.29-.7.33.07.67.11 1.03.11 2.38 0 4.32-1.78 4.69-2.14l.24-.23c1.82 1.97 3.16 3.8 3.84 5.28l.63 1.37 1.48 3.19-.5-3.49-.21-1.5c0-.03-.3-2.04-1.55-4.78 2.06 1.92 4.42 4.27 5.56 5.98l1.26 1.89 2.94 4.41-1.72-4.16c2.57 3.15 6.08 8.15 9.27 15.07l.59 1.27 1.38 2.98-.39-3.27-.17-1.4c-.01-.08-1.09-8.36-8.5-18.52 2.7 2.62 7.28 7.65 13.28 16.43l.73 1.07 1.71 2.51-.79-2.94-.34-1.25c-.03-.1-2.65-9.66-10.06-18.05l-.11-.12-.25-.28-.34.14-.15.07c-.02.01-.07.03-.14.07l.02-.47v-.31l-.18-.16-.08-.07-.89-.8c-.1-.46-.4-1.53-1.13-2.98 4.47 3.88 11.32 10.17 14.13 14.6l.99 1.57 2.32 3.65-1.39-4.1-.59-1.76c-.03-.1-2.86-8.24-9.77-15.32l.81-.79c.18-.13.57-.32 1.02-.5l-.02.44 3.04.18c.68.49 1.29.98 1.79 1.46l.76.72 1.76 1.68-.93-2.26-.4-.97c-.01-.02-.08-.19-.22-.47l2.27.14-.58 1.32 4.5 2 1.37-1.21c.71-.62 2.6-1.71 4.19-2.28l.21-.07.05.04c.44.38 1.48 1.27 1.75 1.6l2.56 3.63 2.2-3.89c.43-.75.96-1.23 2.39-2.12l3.58-2.23-2.94-2.12 1.6.1-1.15-3.87c-.2-.69-.28-1.61-.22-2.66l.7-11.72c.07-1.05.25-1.95.54-2.62l1.61-3.71-11.23-.67.16-2.74 2.29-2.45-3.65 1.5c0-.49.02-1.18.08-2.13l.73-12.13-1.31.55-3.97-.38-1.83-.17c-.19-.01-.43-.06-.73-.13l.07-.39-.65.24c-1.21-.37-3.15-1.16-6.2-2.84 7.77-.97 13.75-5.74 13.82-5.79l1.05-.85 2.47-1.99-3.14.35-1.34.15c-1.25.14-2.47.21-3.63.21-1.56 0-2.9-.13-4.03-.32 9.92-3.02 18.03-10.54 18.12-10.62l1.02-.97 2.4-2.25-3.21.66-1.37.29-18.96 3.94c1.4-1.23 2.46-2.33 2.94-2.86 15.19-2.97 26.04-17.22 26.15-17.37l1.91-2.54 4.44-5.93-5.75 4.65-2.46 1.99c-4.1 3.32-12.67 6.53-19.06 8.62 2.54-2.38 4.7-5.25 5.5-6.35 9.06-2.95 15.01-8.29 18.41-12.29 3.76-4.41 5.32-8.12 5.38-8.28l.71-1.72 1.66-4.02-3.14 2.99-1.36 1.27c-4.84 4.62-15.31 9.88-21.83 12.91 1.44-2.23 2.11-3.92 2.38-4.73C210.53 76.35 217.6 56 217.67 55.8l1.05-3.13 2.47-7.297-4.1 6.5zM61.372 83.227c.008.01.016.02.022.032l-.02-.02-.002-.02zm121.636 62.548l1.994-.68-1.104.46c-.47.198-1.058.364-1.697.495l.81-.275z"/><linearGradient id="a" gradientUnits="userSpaceOnUse" x1="132.802" y1="150.759" x2="158.577" y2="150.759"><stop offset="0" stop-color="#F48023"/><stop offset="1" stop-color="#FFEB00"/></linearGradient><path fill="url(#a)" d="M142.434 153.64c-1.116-1.327-2.19-2.814-3.404-3.598.238-3.994-2.757-10.64-6.228-13.142 4.087.276 4.665.894 5.448 1.847.644-1.03 2.252-1.45 3.933-1.414-.558.678-1.032 1.586-1.087 2.488-.013.2.008.39.03.59l2.936 8.19 1.15 1.33 1.264-1.15 3.766-7.82c.043-.19.055-.38.065-.57.056-.93-.565-1.87-1.07-2.62 1.375.8 3.173 1 4.203 1.06 1.805.11 2.69-.64 5.138-.5-3.64 1.92-8.203 9.6-8.393 12.24-1.338.73-2.235 2.23-3.238 3.33-.088 2.55.465 5.75 1.366 6.87-1.944 1.15-3.164 2.11-3.95 3.87-.314-1.76-2.13-3.26-4.04-4.35 1.266-1.67 1.918-4.47 2.11-6.63z"/><linearGradient id="b" gradientUnits="userSpaceOnUse" x1="154.043" y1="155.022" x2="169.034" y2="155.022"><stop offset="0" stop-color="#F48023"/><stop offset="1" stop-color="#FFEB00"/></linearGradient><path fill="url(#b)" d="M167.225 148.367c.934.056 1.355.05 1.81.012-.34 1.37-.57 3.03-.682 4.9-.14 2.35-.08 4.58.175 6.8-2.14.13-5.102 1.5-6.98 3.23-.924-.8-4.954-2.04-6.79-2.15-.258-.02-.518 0-.714.02.61-.48.996-2.04 1.14-4.46.15-2.52-.04-6.34-.338-6.78 1.693-.19 3.998-1.44 6.014-3.23 2.902 1.14 4.69 1.54 6.365 1.64zm-2.748 2.68c-1.92-.276-4.053-.856-4.99-1.43.087 1.815.092 3.336-.002 4.913-.075 1.258-.236 2.896-.424 4.403 1.44.25 3.32.685 4.81 1.226l.61-9.12z"/><linearGradient id="c" gradientUnits="userSpaceOnUse" x1="170.586" y1="156.09" x2="185.672" y2="156.09"><stop offset="0" stop-color="#F48023"/><stop offset="1" stop-color="#FFEB00"/></linearGradient><path fill="url(#c)" d="M170.64 148.636c1.782-.086 4.786-.586 5.942-1.002-.28 1.44-.362 2.274-.496 4.528l-.39 6.508 1.29 1.11 3.174-1.167.3-5.024c.18-3 .02-3.56-1.216-3.99l.025-.42c2.03-.01 4.22-.4 5.71-1.02l-.46 7.6c-.24 3.99-.04 4.98 1.14 5.27l-.02.35c-1.13.42-3.04 2.08-3.59 3.14-1.35-1.28-1.84-2.18-1.95-3.71-2.63 1.16-3.87 1.93-5.34 3.27-1.65-1.62-2.39-2.22-3.92-3.15.35-.47.88-3.96 1.05-6.69.19-3.16-.13-4.41-1.33-5.29l.05-.35z"/><linearGradient id="d" gradientUnits="userSpaceOnUse" x1="120.241" y1="176.216" x2="143.082" y2="176.216"><stop offset="0" stop-color="#F48023"/><stop offset="1" stop-color="#FFEB00"/></linearGradient><path fill="url(#d)" d="M136.483 190.813c-.314-1.765-1.397-4.19-3.272-5.27.79-.73.82-2.216 1.33-7.52-.15-.106-1.26-1.013-2.3-1.98-1.56.813-3.1 1.595-4.34 2.263-.02 3.166.12 6.148.53 8.534-1.06-.613-1.91-.86-2.72-.908-1.48-.088-2.77.45-4.74.33-.22-.012-.48-.028-.7-.073 1.9-.99 3.39-3.65 3.53-6.07.13-2.16-.25-4.44-1.26-5.9 1.33-2.15 1.8-4.1 1.92-6.06.04-.58.04-1.23.02-1.91-1.76-.37-2.72-1.49-2.59-3.75 1.75.49 2.77.68 3.96.75 1.39.08 3.23.06 5.76-1.66.89.86 6 2.97 9.77 3.2.58.03 1.13.03 1.75-.03-.51.97-2.13 2.04-3.84 2.58-.08.28-.13.6-.15.96-.08 1.38.1 3.27.43 4.26-.42.1-1.59.61-3.08 1.36.95.96 2.07 2.1 3.22 2.91-.22.47-.42 1.72-.51 3.2-.13 2.19.04 4.81.97 5.87-1.91 1.14-2.86 3.09-3.62 4.86zm-1.832-23.935c-2.26-.46-4.25-.804-6.09-1.367-.17 1.74-.31 4.19-.43 6.15l-.15 2.55c2.87-1.47 6.4-3.23 6.6-3.35l.08-3.97z"/><linearGradient id="e" gradientUnits="userSpaceOnUse" x1="142.134" y1="180.393" x2="157.125" y2="180.393"><stop offset="0" stop-color="#F48023"/><stop offset="1" stop-color="#FFEB00"/></linearGradient><path fill="url(#e)" d="M155.315 173.74c.934.055 1.354.048 1.81.01-.342 1.37-.57 3.038-.684 4.905-.14 2.353-.08 4.587.18 6.8-2.14.13-5.1 1.504-6.98 3.234-.92-.8-4.95-2.05-6.79-2.16-.25-.02-.51 0-.71.02.61-.48 1-2.04 1.14-4.46.15-2.52-.04-6.34-.34-6.78 1.7-.19 4-1.44 6.01-3.23 2.91 1.14 4.69 1.54 6.37 1.64zm-2.748 2.68c-1.92-.277-4.053-.857-4.99-1.43.087 1.815.092 3.335-.002 4.912-.075 1.257-.238 2.896-.424 4.403 1.44.248 3.32.685 4.81 1.226l.61-9.11z"/><linearGradient id="f" gradientUnits="userSpaceOnUse" x1="158.201" y1="181.463" x2="171.55" y2="181.463"><stop offset="0" stop-color="#F48023"/><stop offset="1" stop-color="#FFEB00"/></linearGradient><path fill="url(#f)" d="M158.2 187.23c.635-.867 1.18-3.485 1.35-6.32.138-2.287.04-4.426-.353-5.97 2.34-.246 4.97-.93 7.122-1.802 1.36.984 3.31 1.813 5.23 2.283-.91 1.57-2.55 2.6-4.07 2.51-.97-.05-2.44-.89-3.69-2.19.09 1.63.13 3.24.03 4.89-.09 1.42-.33 3.28-.6 4.59.91.45 2.59.93 3.78 1.1.35-1.62 1.59-2.84 3.39-3.25-.06.36-.09.93-.14 1.8-.1 1.65.04 2.56.19 3.28-1.37.18-3.42.99-4.11 1.66-1.46-1.05-5.61-2.37-8.16-2.55z"/><linearGradient id="g" gradientUnits="userSpaceOnUse" x1="172.287" y1="178.197" x2="186.25" y2="178.197"><stop offset="0" stop-color="#F48023"/><stop offset="1" stop-color="#FFEB00"/></linearGradient><path fill="url(#g)" d="M180.513 192.153c.485-1.103.974-3.336 1.074-4.978l.158-2.674c-1.234-.97-2.48-1.73-3.958-2.43l-.273 4.54c-.08 1.36.164 2.15.73 2.41l-.028.49-5.93-.35.03-.48c.56-.16.925-.88.994-2.01l1.012-16.94c.143-2.35-.02-3.42-.68-4.82.442.19.953.28 1.5.32 1.32.08 2.858-.25 4.85-1.07-.83.89-1.278 2.45-1.43 4.96l-.4 6.7c.937-.53 1.853-1.25 3.014-2.28 1.238.92 2.847 1.6 5.074 2.18-.23.6-.376 1.4-.425 2.24-.03.48-.05 1.36.027 1.72l-4.876 1.52-.008.13c2.23.59 3.858 1.43 5.258 2.35-.215.89-.33 1.73-.4 2.92-.072 1.2-.062 2.1.053 2.88-1.79.64-4.06 1.89-5.12 2.83l-.25-.11zm-2.645-11.44l5.047-1.702v-1.06l-4.807-1.26-.24 4.03z"/><linearGradient id="h" gradientUnits="userSpaceOnUse" x1="188.315" y1="178.364" x2="195.493" y2="178.364"><stop offset="0" stop-color="#F48023"/><stop offset="1" stop-color="#FFEB00"/></linearGradient><path fill="url(#h)" d="M191.603 186.288c.51.677 2.295 2.174 2.884 2.598-1.51.943-2.56 1.72-3.354 3.128-.477-.676-2.205-2.072-2.817-2.625.815-1.22 1.957-2.51 3.287-3.11zm-1.598-6.238l.697-11.66c.07-1.192.118-2.516-.36-3.675l5.15.31c-.448 1.04-.683 2.286-.76 3.574l-.702 11.72c-.078 1.29.007 2.55.33 3.64l-5.153-.31c.616-1.1.727-2.42.798-3.61z"/><path fill="#231F20" d="M120.45 143.714l-.603-3.004 4.034.636-.4-5.063s5.37-.57 4.8-.922c-.57-.35-3.05-1.34-3.05-1.34l3.6-2.41-9.64 1.42-4.83 2.83 6.1 7.86z"/><path fill="#404041" d="M82.578 71.824s-10.418 5.97-15.513 27.23c0 0-6.98 2.855-7.924-8.508 0 0-3.16 8.018 3.99 11.347 0 0-3.79 8.227-11.34.872 0 0 2.64 13.23 16.7 6.43 0 0 1.42 7.535-3.49 7.725 0 0 7.93 6.632 12.68-5.328l7.49-8.827 5.6-27.167-8.17-3.774z"/><path fill="#FFF" d="M112.91 129.56s45.945 21.834 45.728-27.667l10.16 2.708s-7.59 53.71-60.474 31.27"/><path fill="#BBBDBF" d="M164.242 119.092s-.213 1.18-2.332 4.44c0 0-2.79 2.206-6.75-2.04l1.347-4.375 7.735 1.975z"/><path fill="#231F20" d="M178.256 105.29s-12.47-7.634-29.787-7.788l-.29 6.66 27.75 8.27 2.31-7.14z"/><path fill="#F9EC31" d="M174.902 111.777l-.642 8.367s-15.177 4.462-28.176-6.748l3.18-9.61 25.638 7.99z"/><path fill="#F16552" d="M156.73 114.145l-.39 5.168s-4.434-.53-10.256-5.917l1.256-3.678 9.39 4.427z"/><path fill="#F9EC31" d="M150.417 99.85l1.732-8.17s-2.36-2.63-1.55-13.637c0 0 .46-6.546.97-7.96 0 0 .99-1.668 3.28-2.92l4.51-17.993s2.85-16.467 6.51-20.128c0 0 .48-1.876 3.11-1.5 0 0 4.91-.215 2.81 7.308l-2.19 9.29-.14 3.105.21 4.826s1.09-2.09 2.85-2.87c0 0 4.33-1.81 7.06 4.97 0 0 4.98-1.54 6.5 2.99l.91 2.92.77-.47 7.48-7.82s3.38-6.55 7.46-6.18c0 0 6.8.86.98 8.38L193.1 67.81s-1.52 4.73-2.864 5.71l-3.5 13.34s-.08 2.52-3.785 7.7l-3.58 4.98-1.32 2.78-1.24 3.57-10.8 3.35-15.6-9.36z"/><path fill="#EF4B4D" d="M189.43 69.8c.21.24.357.468.413.668l-.412-.67zm-9.565-3.313c.07.023-.053.396-.245.87.076-.49.164-.897.245-.87zm5.005-2.613c.107-.11.217-.187.315-.214 0 0-.123.065-.314.214z"/><path fill="#EF4B4D" d="M152.15 91.68l-1.84 8.675 10.565 3.998-2.99-2.755s1.173-2.38.326-2.804c0 0 7.16 1.352 8.48 2.374 0 0 2.09.23-10.45-4.358 0 0-1.11-.737-1.2-1.474 0 0 2.58 2.29 9.8 3.175l-2.12-.68s5.62-.75 5.52-2.28c0 0-2.39.94-3.07.73 0 0 1.93-2.73 1.75-4.13 0 0-3.55 3.7-5.23 3.83 0 0 2.56-2.07-.27-2.47 0 0 4.47-2.21 3.94-3.57 0 0-4.46 1.39-6.73-2.93l-1.03.49-.83-.12s4.42-3.34 5.14-4.68c0 0-3.85 2.41-7.57 3.52l.81-2.5-1.98-.56s8.49-2.7 8.97-4.18l-.47-.15-.5.43s.23-1.64-5.19.78c0 0 4.81-2.17 7.2-4.23l.31-.72s-5.8 3.42-10.13 4.11c0 0 5.87-2.58 7.42-4.09 0 0-3.62 2.04-6.59 1.52 0 0 2.45-2.49 4.38-2.46 0 0-2.56-1.28-5.61.05 0 0 .44-4.34.62-3.98.19.36 7.37-5.46 7.37-5.46s.21 1.42 1.74 1.99c0 0-.84-1.54-1.09-2.59.08-.49 1.29-1.44 1.29-1.44l.63 2.88 2.46 2.3-.7-1.73-.68-1.11.06-1.77-.71-1.95 1.66 2.93.01.9 1.23 1.51.05-1.54.5-.13s1.71.93 2.42 1.75c0 0 .14-1.59-.86-3.34 0 0 1.73 2.73 4.44 2.41 0 0 3.53-1.47 5.34-4.17 0 0 .03-2.52-.87-3.19l.57-.49s2.29 3.2-.83 7.19c0 0-3.13 3.32-6.02 3.95 0 0-5.82.2-6.41 1.35l3.24-.29s-3.98 4.68-4.07 4.28l-.66 1.8.5.53-1.61 1.72 2.24-1.14s3.67 1.57 4.02 5.56l.64-3.82s1.81 3.29-.85 10.69c0 0 1.05-.48 3.02-4.69l.35 1.68.61-1.89 2.4-2.35s.46 2.98-.11 4.96c0 0 1.02-3.62.82-6.23l1.69-1.54s2.94 2.22 3.42 3.05c0 0-1.37-2.9-2.88-3.77l1.57-1.88 1.44-.95s4.16.98 6.91 2.39c0 0-.64-1.92-6.25-3.96 0 0 4.51-.77 5.1-2.37l-4.75 1.3-1.73-.41 2.85-1.18s-.51-3.74 2.6-5.04c0 0 2.76 1.68 3.86 2.95l-2.65-4.28-.06-.15 1.85-3.15.82-.71.11-.34s2.48.87 4.15 2.38c0 0-1.14-2.49-3.18-3.1l.31-.96 4.25-5.04s2.45.5 4.04 2.73c0 0-1.5-2.95-2.78-3.36l.84-1.22 1.83-1.5.85-.55s1.71-5.49 4.46-3.63c0 0 3.01 2.02-2.28 8.22l-9.51 12.29-.91 1.42-.14 1.37-1.07 1.44-.33-.11-4.35 17.55-7.17 9.92-2.49 7.92.66-.6s1.56-5.54 3.52-8.03c0 0 5.96-6.76 7.3-14.35l2.87-10.84 1.25-1.88 1.34-3.21 10.17-13.42s5.41-5.19 1.44-8.34c0 0-3.83-3.56-9.27 5.5l-7.85 8.2-.41.09s-1.14-7.98-7.41-5.91c0 0-4.86-10.28-9.92-2.09l-.25-2.92.1-4.67 1.45-6.32s1.77-6.15 1.06-7.42c0 0-.22-4.62-5.07-2.76 0 0-3.89 1.53-7.61 21.19L155 67.24c-1.58 1.09-3.124 2.33-3.4 3.18-.01 0-2.64 15.49.69 21.34zm20.483-16.12c-.27 3.717-3.99 1.84-3.99 1.84.168-1.438 3.463-6.71 3.463-6.71 2.493 1.49.527 4.87.527 4.87zm6.464-17.755s1.505-2.57 3.3-2.81c0 0 5.242 1.555 3.834 9.196l-.3-.73-.54 2.14-2.08 1.12s.86-2.12 1.57-2.83c-.49.37-1.46 1.28-2.19 3.08l-3.26 2.08s.09-.93.21-1.67c-.35.88-.94 2.1-.94 2.1l-1.76 4.06-2.04 3.07s-1.07.55-1.17.29c-.1-.25 1.89-3.82 1.62-6.71 0 0 7.15-6.86 3.78-12.35zm-4.342-1.334c3.104 1.01 3.385 4.98 3.385 4.98-5.454 5.55-7.544 1.29-7.544 1.29-2.805-3.44 4.16-6.26 4.16-6.26zm-7.273 2.9c.276-1.21 1.152-3.88 3.945-8.75 0 0 4.435-4.01 7.576 4.02l-1.522 1.67c-1.51-.74-4.23-.87-8.7 2.49l-1.29.58zm-5.574-2.55l-2.924-.65s4.878-.16 7.718-2.47c0 0-4.347 1.13-6.688.37l.774-.54s-.167-3.78.292-6.42c0 0 1.262-1.13 5.48.29 0 0-4.057-1.76-4.928-1.99 0 0 .376-4.6 2.1-7.62 0 0 2.605.03 4.74.57 0 0-2.525-1.41-4.123-2.01l.31-.49s1.64-1.63 1.78-1.81c.13-.18 1.45-5.87 3.29-6.02 0 0 4.22.33.32 11.45l-1.09-.58.95 1.21s-1.53 5.18-1.2 7.37l-.86-.35.59 1.16-.01 5.1-2.89 5.46-1.14-2.23-.47 3.93-1 .4-1.05-4.07zm-4.004 4.37l1.307.43-.44-3.08 1.7 3.81s.41-2.93.11-4.02v-.84l.48.15 1.25 3.53-.11.05-2.34 2.15-1.29 1.5c-.35-.36-.82-1.29-.63-3.66z"/><path fill="#603813" d="M175.468 100.432s-2.898 1.225-6.98-.918c0 0 3.92 1.27 6.98.918z"/><path fill="#404041" d="M178.256 105.29s-14.925 3.222-29.787-7.788l-3.07 12.44s16.07 10.73 30.75 7.354l2.1-12.005z"/><path fill="#FDF7C2" d="M177.93 107.17l.94 1.752-1.648 2.293m-.327 1.47l.806 1.456-1.41 2.38m-28.32-17.46l-1.8 2.1.95 1.88m-.46 1.87l-.98 1.25.09 2.41m29.46 2.28l-2.92-.59.59-2.92 2.93.6z"/><path fill="#FAC927" d="M175.21 110.833l-1.03-1.714-1.893 1.12"/><path fill="#FDE79A" d="M172.88 107.32l1.3 1.8-1.893 1.12"/><path fill="#FDF7C2" d="M173.53 116l-2.924-.59.59-2.924 2.923.59z"/><path fill="#FAC927" d="M173.536 115.998l-1.03-1.713-1.893 1.122"/><path fill="#FDE79A" d="M171.204 112.484l1.302 1.8-1.893 1.123"/><path fill="#FDF7C2" d="M169.25 110.627l-2.922-.592.593-2.923 2.93.592z"/><path fill="#FAC927" d="M169.252 110.636l-1.03-1.714-1.892 1.12"/><path fill="#FDE79A" d="M166.923 107.12l1.3 1.802-1.893 1.12"/><path fill="#FDF7C2" d="M167.59 115.8l-2.92-.59.59-2.924 2.92.59z"/><path fill="#FAC927" d="M167.577 115.8l-1.03-1.713-1.89 1.123"/><path fill="#FDE79A" d="M165.247 112.287l1.3 1.8-1.89 1.123"/><path fill="#FDF7C2" d="M163.055 109.32l-2.92-.59.59-2.923 2.922.59z"/><path fill="#FAC927" d="M163.054 109.315l-1.032-1.712-1.89 1.12"/><path fill="#FDE79A" d="M160.724 105.802l1.298 1.8-1.89 1.122"/><path fill="#FDF7C2" d="M161.29 114.743l-2.922-.592.592-2.92 2.922.59z"/><path fill="#FAC927" d="M161.292 114.752l-1.03-1.713-1.892 1.12"/><path fill="#FDE79A" d="M158.963 111.237l1.3 1.802-1.893 1.12"/><path fill="#FDF7C2" d="M154.97 103.736l2.854.863-.862 2.85-2.854-.86z"/><path fill="#FAC927" d="M154.12 106.59l1.717-1.022 1.136 1.884"/><path fill="#FDE79A" d="M157.836 104.6l-2 .968 1.137 1.884"/><path fill="#FDF7C2" d="M154.01 109.068l2.854.86-.86 2.856-2.855-.86z"/><path fill="#FAC927" d="M153.148 111.933l1.72-1.022 1.136 1.89"/><path fill="#FDE79A" d="M156.865 109.94l-1.997.97 1.136 1.884"/><path fill="#FDF7C2" d="M150.12 100.937l2.852.86-.86 2.855-2.853-.86z"/><path fill="#FAC927" d="M149.264 103.787l1.718-1.022 1.134 1.882"/><path fill="#FDE79A" d="M152.98 101.793l-1.998.972 1.134 1.882"/><path fill="#FDF7C2" d="M149.15 106.28l2.853.86-.862 2.856-2.85-.86z"/><path fill="#FAC927" d="M148.293 109.13l1.72-1.022 1.133 1.882"/><path fill="#FDE79A" d="M152.01 107.137l-1.998.97 1.134 1.883"/><path fill="#FFF" d="M114.364 155.305s12.62 17.7.344 32.61c0 0 30.516-2.02 29.684 7.144 0 0-2.937 2.86-4.422.19 0 0-.746 3.91-4.336-.04 0 0-1.866 4.19-4.777.21l-25.526-4.59s-1.41-1.08 3.41-3.12c0 0 13.87-9.73.97-30.39s4.66-2.03 4.66-2.03z"/><path fill="#D0D1D2" d="M135.6 194.303s-1.044-4.176-6.777-1.643c0 0 6.19-3.922 6.778 1.643zm4.136-.183s-.474-3.708-2.653-2.39c0 0 1.652-.53 2.653 2.39z"/><path fill="#FFF" d="M41.602 142.146s.245-.32.702-.925c.468-.61 1.102-1.44 1.966-2.53.858-1.08 1.908-2.38 3.15-3.82 1.24-1.43 2.673-3.02 4.3-4.56.81-.76 1.674-1.51 2.56-2.15.44-.31.89-.61 1.31-.83.42-.22.825-.39 1.095-.45.28-.06.36-.04.31-.05-.04-.03.02-.02.207.2.38.48.828 1.65 1.097 2.9.56 2.57.76 5.62.88 8.71.11 3.11.13 6.32.16 9.56.04 3.24.08 6.52.29 9.79.22 3.28.52 6.54 1.48 9.87.25.84.55 1.68.96 2.52.41.84.91 1.7 1.64 2.51.72.81 1.68 1.55 2.8 1.99 1.11.44 2.28.56 3.3.48 2.05-.17 3.58-.88 4.93-1.58 1.33-.72 2.47-1.52 3.51-2.31 2.08-1.58 3.75-3.17 5.21-4.59 1.45-1.43 2.65-2.71 3.62-3.78.97-1.06 1.72-1.91 2.22-2.49l.77-.89c.94-1.09.82-2.74-.27-3.68-1.08-.93-2.71-.83-3.66.23l-.02.02-.77.85c-.5.56-1.23 1.36-2.18 2.37-.95 1-2.11 2.21-3.49 3.53-1.37 1.31-2.95 2.75-4.75 4.08-.9.66-1.85 1.29-2.82 1.8-.96.5-1.98.86-2.71.89-.75.01-.99-.1-1.51-.65-.5-.56-1-1.66-1.34-2.89-.7-2.5-.98-5.52-1.13-8.58-.14-3.08-.14-6.27-.13-9.48.01-3.22.05-6.46-.02-9.71-.09-3.26-.21-6.49-.89-9.86-.18-.84-.4-1.7-.72-2.59-.33-.89-.74-1.81-1.42-2.76-.37-.47-.76-.94-1.3-1.38-.53-.43-1.16-.81-1.84-1.05-1.39-.52-2.78-.45-3.85-.22-1.09.24-1.96.62-2.73 1.01-.78.39-1.45.82-2.07 1.26-1.25.87-2.3 1.77-3.27 2.65-1.92 1.76-3.49 3.46-4.85 4.98-1.35 1.52-2.47 2.87-3.39 3.99-.91 1.11-1.64 2.04-2.09 2.62l-.72.91c-1.16 1.48-.9 3.61.58 4.77 1.48 1.16 3.61.9 4.77-.58.01 0 .02-.03.03-.03z"/><path fill="#FFF" d="M117.734 106.044l-7.48 31.5s14.582 10.253 6.477 25.357c-8.1 15.11-31.68 12.27-39.9-10.32-8.95-24.59-7.39-35.09 2.91-66.29"/><path fill="#D0D1D2" d="M144.37 79.19s12.295-6.975 6.857 8.036l-2.32-1.602-4.538-6.435z"/><ellipse transform="rotate(175.6 116 100.8)" fill="#FFF" cx="115.998" cy="100.817" rx="38.367" ry="30.742"/><ellipse transform="rotate(175.6 121.6 101.1)" fill="#D0D1D2" cx="121.582" cy="101.146" rx="32.108" ry="24.493"/><path fill="#D0D1D2" d="M88.95 83.855s-8.01-4.48-12.855-.896c0 0-6.166 6.03 3.582 14.41l2.385 2.28s1.607-1.38 1.064-4.07c0 0-11.405-11.1 3.557-8.27 0 0 2.355-.34 2.266-3.47z"/><path fill="#919396" d="M86.018 86.13c.007-.014-4.158 7.22-4.02 9.476l-1.225-1.713s-9.016-11.157 5.245-7.764z"/><path fill="#D0D1D2" d="M89.305 83.832s-8.01-4.48-12.854-.896c0 0-6.16 6.03 3.59 14.417l2.39 2.28s1.61-1.377 1.07-4.067c0 0-11.4-11.1 3.56-8.266 0 0 2.36-.344 2.27-3.468z"/><path fill="#FFF" d="M98.105 164.23s12.753 20.43-1.835 36.083c0 0 33.88-.16 32.34 9.915 0 0-3.442 2.97-4.9-.086 0 0-1.095 4.274-4.796-.338 0 0-2.348 4.505-5.297-.093l-27.917-6.8s-1.486-1.29 3.975-3.21c0 0 16-9.82 3.138-33.53s5.292-1.93 5.292-1.93z"/><path fill="#D0D1D2" d="M118.935 208.794s-.87-4.688-7.382-2.277c0 0 7.114-3.915 7.382 2.277zm4.588.08s-.273-4.133-2.772-2.825c0 0 1.87-.48 2.78 2.82zM88.95 83.854s-8.01-4.48-12.855-.894c0 0-6.166 6.03 3.582 14.413l2.385 2.28s1.607-1.377 1.064-4.066c0 0-11.405-11.1 3.557-8.266 0 0 2.355-.34 2.266-3.46z"/><ellipse transform="rotate(175.6 138.7 97.3)" fill="#231F20" cx="138.673" cy="97.304" rx="13.155" ry="12.965"/><ellipse transform="rotate(175.6 138.7 95.6)" fill="#FFF" cx="138.673" cy="95.605" rx="13.155" ry="12.965"/><ellipse transform="rotate(175.6 108.2 99.4)" fill="#231F20" cx="108.189" cy="99.389" rx="16.237" ry="16.13"/><ellipse transform="rotate(175.6 108.2 97.7)" fill="#FFF" cx="108.189" cy="97.69" rx="16.237" ry="16.131"/><path fill="#D0D2D3" d="M85.515 161.544s11.673 7.17 26.14 2.028l.41-6.085 1.978 3.97 3.805-.95 1.336-3.658-10.232-4.65-26.96 1.69 3.523 7.64z"/><path fill="#CCC" d="M77.06 128.215l2.332-2.88.06.576c-.37.45-.757 1.04-1.16 1.83-2.636 5.17 4.286 42.81 4.286 42.81l-.022.05c-.402-.73-.777-1.59-1.124-2.57-.404-1.14-.772-2.44-1.106-3.85-3.102-13.11-3.266-35.96-3.266-35.96zm8.97 24.925l.723 6.367.884 7.795c-5.26-22.16-4.795-40.018-4.795-40.018.002-.335-.06-.698-.172-1.04l.294-.137 3.066 27.034z"/><path fill="#FFF" d="M75.113 178.05s2.622-2.28 3.356.11c.22.743.27 1.93 0 3.78 0 0 1.47 3.173 3.01-.13 0 0-1.08-1.436-1.51-3.334-.38-1.664-.25-3.683 1.56-5.416l1-2.462.02-.05s-6.92-37.646-4.29-42.808c.4-.797.79-1.382 1.16-1.83 1.59-1.95 2.79-.966 3.22.332.11.343.17.706.17 1.04 0 0-.47 17.858 4.79 40.02v.015c.38 1.593.78 3.205 1.22 4.838 0 0 1.11 6.085-.13 8.754-.28.59-.67 1.02-1.22 1.17 0 0-1.61 4.36-3.64 1.59 0 0-.77.54-1.86 1.01-.51.22-1.09.42-1.69.55-.23.05-.46.08-.7.11-1.61.16-3.25-.39-4.09-2.77 0 0-.23-.64-.45-1.43-.4-1.39-.8-3.27 0-3.11z"/><path fill="#6C6F71" d="M133.076 126.327s4.02 5.003 8.24 4.72c0 0 5.957 1.368 4.096-11.273l-.547-4.155-11.79 10.24v.46z"/><path fill="#1D8FCD" d="M129.832 111.215s-2.258-4.595-3.092-2.168c0 0-1.866-2.73-1.866 1.655 0 0 1.77 1.206 1.866 2.667 0-.01 1.83-.74 3.092-2.16z"/><path fill="#FFF" d="M126.74 112.248s-.114-.62-.988-1.24c0 0 .325-1.187.988 1.24z"/><path fill="#D0D2D3" d="M124.553 116.078c12.423 15.86 15.573 14.387 15.573 14.387 6.81 1.146 4.915-9.325 4.915-9.325-.13-1.554 0-9.368 0-9.368-7.16-12.558-10 1.19-10 1.19"/><path fill="#6C6F71" d="M135.884 110.22s-2.16 1.747-7.61 2.433l-.65.31c-.002 0 6.673.047 8.26-2.742z"/><path fill="#6C6F71" d="M135.288 111.967s2.273-9.878 7.825-3.1c0 .002-5.24-4.6-7.825 3.1zm-2.212 14.36s-6.896-7.296-11.13-8.296l1.21-1 9.92 8.84v.46z"/><path fill="#919496" d="M123.157 111.967s1.577 11.662-8.997 5c0 0 11.352 8.976 8.997-5zm11.763 1.973s.172 3.642.368 5.687c0 0-1.794 6.015.38 7.526 0 0-3.195-.98-.75-7.526 0 0-.368-3.712 0-5.686zm7.638-5.48s3.527 1.077 2.445 5.7c0 0-.274-3.473-2.445-5.7z"/><path fill="#BE1E2D" d="M144.306 115.618s.458-4.358-1.532-5.98c-1.992-1.622-3.575-.628-3.575-.628l-3.15 2.957s-.85 5.996-.17 7.84c0 0-2.16 9.102 4.83 9.617 0 0 4.61-1.028 3.59-8.015v-5.8z"/><path fill="#919496" d="M134.755 116.32s-2.873 2.694-7.656-.293c0 0 2.95 2.773 7.73 1.407l-.08-1.115zm.165 3.143l-6.647-1.27 6.56 1.924.24-.31m-.776 3.825s-2.522-3.836-7.725-4.657c0 0 5.026 1.387 7.725 5.643v-.986z"/><path fill="#F69C95" d="M142.5 127.734s-.552-2.596-6.722-2.57c0 0 1.92 6.843 6.723 2.57z"/><path fill="#FFF" d="M137.436 124.69l.28-.646 2.054.645v-.65l2.057.24s.392.9-.17 2.87c0 0-1.952 3.12-2.483-.43 0 0-1.72 3.38-1.737-.31 0 0-.192.84-.532 1.13-.614-.93-1.036-2.13-1.178-3.46l1.71.57zm4.764-14.155s-1.953-3.13-2.483.425c0 0-1.722-3.38-1.74.3 0 0-.3-1.32-.817-1.225l-1.11 1.932v1.687l1.93-.645.278.64 2.056-.65v.64l2.058-.25c-.002 0 .39-.91-.173-2.88z"/><path fill="#404041" d="M144.37 79.19s12.255-20.81-16.748-30.574c0 0-2.968-.425 6.375 10.472 0 0-7.214-13.024-38.064-10.474 0 0 21.71 4.53 28.756 11.606 0 0-13.49-13.727-43.13-5.66 0 0-10.82 3.68 5.45 1.98 0 0-13.16 1.614-18.54 25.005 0 0 2.7-1.624 11.34-10.822 0 0-2.39 1.016 0 10.822 0 0 5.09.228 6.23.853 1.13.625 2.9 1.457 2.9 1.457l-.8 9.31 4.39-9.29s19.96-17.853 34.03-4.268c0 0-.52-12.73 17.79-.418z"/><path fill="#F6921E" d="M79.247 93.608l-2.56 7.053 1.565.98L80.386 94"/><path fill="#FFF" d="M143.113 73.712s3.856-12.37-6.03-16.416l1.327 6.577s-2.95-6.432-12.658-7.71c0 0 3.882 5.934 3.07 7.496 0 0-2.922-3.91-6.3-6.37l.956 6.36s-2.395-4.29-7.894-6.55l1.48 5.28s-4.995-5.1-14.29-3.96l9.786 8.05s-6.25-4.29-16.628-1.55L108.188 70l-12.256-.227 1.887 2.97-5.1.942h6.18l-.15-1.89h12.89l-10.86-6.22s8.97-.658 14.79 4.2l-7.72-9.86s7.66-.77 12.58 10.084l-2.17-9.71s5.11 1.12 7.23 9.71l-2.05-10.84s4.89 3.67 6.96 9.17l-2.17-9.93s8.49-.43 11.74 12.29l-.59-10.41s3.84 3.77 3.69 13.4z"/><path fill="#323031" d="M73.636 106.483l34.074 26.475 10.543-1.482 10.57.13-10.004 3.05 3.12 2.788-6.36-1.655 4.86 7.92-9.37-6.74v1.21s13.52 6.47 7.2 21.09l-4.13 1.22-2.51-5.42-.58 7.49s-14.13 3.32-24.92-2.11l-1.93-8.27-4.71-.56-.99.56.58 5.48s-17.2-19.37-5.47-51.2z"/><path fill="#808184" d="M84.233 152.204s-1.25-24.302 0-30.408l-.555-.776s-1.896 7.788.555 31.184zm-5.697 0s-3.075-25.86-1.848-33.687l-1.04 1.288s-.64 10.323 2.888 32.4zm32.934-19.774l6.783-.954-7.464 6.475"/><path fill="#FFF" d="M74.172 108.108l11.845 9.01-10.935-5.66s-5.942 10.462-1.886 32.82c0 0-6.068-17.15.976-36.17z"/><path fill="#404041" d="M80.572 165.168l6.195-1.73 1.686 7.16s-.11 1.64-6.618 1.77l-1.263-7.2z"/><circle fill="#F1F1F2" cx="85.516" cy="165.429" r=".783"/><circle fill="#F1F1F2" cx="85.516" cy="167.477" r=".783"/><circle fill="#F1F1F2" cx="82.979" cy="166.213" r=".783"/><circle fill="#F1F1F2" cx="82.979" cy="168.259" r=".783"/><circle fill="#F1F1F2" cx="82.979" cy="170.528" r=".783"/><circle fill="#F1F1F2" cx="85.516" cy="169.529" r=".783"/><path fill="#EC1C24" d="M100.236 127.15l-9.484-.823 7.303 5.28-6.104.784s16.24 5.75 19.71 22.7c0 0 6.07-8.4-1.14-15.05l.57-7.55-2.75.39-8.09-5.72z"/><path fill="#6D6E70" d="M99.004 126.193l-9.68-.506 6.797 5.402-5.75.92s18.87 7.83 20.19 23.58l-.38 6.04s-13.73 3.66-24.31-2.46l.31 1.29s8.56 5.22 24.92 2.11v-.38l.58-7.11s-2.32-16.76-19.7-22.7l6.11-.79-7.3-5.28 9.49.82-1.23-.96zm11.126 6.434l.236 7.642s6.067 6.1 1.29 14.82l2.504 5.41 4.128-1.23.276-.67-4.216 1.09-2.236-4.61s5.378-10.01-1.557-15.25l.913-7.42-1.337.19z"/><path fill="#808184" d="M118.82 146.468l-2.76 8.624 3.78-5.17m-32.203-9.984l6.408 10.84 1.026-7.064 12.02 13.584-10.96-8.68-1.89 8.68-6.59-11.7"/><path fill="#74020D" d="M109.476 132.71l-1.15 1.002-.767-.535-8.8-6.155 1.47.13 7.47 5.285"/><path fill="#BE1E2D" d="M109.476 139.938c-.04-.017-10.293-5.85-10.293-5.85s4.237 1.54 7.076 2.684c1.42.576 2.5 1.05 2.5 1.18 0 .382-9.58-5.94-9.58-5.94l7.9 3.964 1.86 1.684.52 2.278z"/><path fill="#EC1C24" d="M74.527 119.313s4.846-7.046 11.334 1.837l-2.03 12.562s-3.47-1.87-7.6.303c0 0-2.53-8.25-1.69-14.702z"/><path fill="#670004" d="M79.597 119.984c.05 0 .118.016.154.035.09.04.27.04.37 0 .04-.02.1-.04.14-.05.05-.01.03-.02-.08-.05-.11-.04-.18-.04-.37-.03-.13 0-.25.02-.27.03-.06.02-.02.06.08.06zm.34 2.873c-.047.02-.047.058.003.158.022.045.043.083.046.083 0 0 .02-.032.042-.072.065-.123.016-.21-.092-.17zm-1.547 6.692c.017.02.033.03.04.02.016-.02-.018-.06-.046-.06-.014 0-.012.01.006.03zm.533.14c.013.02.036.05.053.05.016 0 .055.01.087.01h.06l-.066-.06c-.08-.07-.17-.08-.134-.02zm-.465-.39c0 .04.022.1.05.14.05.06.135.08.14.03.01-.13-.016-.18-.126-.22-.062-.03-.064-.03-.064.05zm-.25-.4c-.005 0-.003.02.004.03.025.04.037.03.02-.01-.005-.02-.017-.03-.024-.03zm4.017-7.17c-.035 0-.045.03-.022.06.015.01.036.02.045.02.023-.02.003-.08-.023-.08zM78.9 127.5c-.042.02-.074.105-.052.126.007.01.038.014.068.014.042 0 .054-.012.054-.065 0-.085-.017-.105-.07-.076zm4.324-2.77c.063-.887-.058-2.28-.245-2.816-.15-.417-.56-.953-.95-1.24-.31-.23-.99-.564-1.15-.564-.04 0-.04 0 0 .03.02.02.1.05.18.08.15.053.44.2.53.26.03.023.06.064.06.09 0 .03.01.043.05.043s.05.01.04.034c-.01.02 0 .034.03.034.02 0 .07.02.1.05l.05.04-.05.03c-.07.05-.07.06.03.15.06.06.08.09.09.18.01.1.01.11.11.11.09 0 .09 0 .11-.1.01-.05.03-.1.05-.1.03 0 .19.21.19.25 0 .02-.02.03-.09.01-.12-.02-.14-.01-.14.08 0 .05-.01.07-.04.07-.06 0-.06.05 0 .12.09.09.15.25.11.3-.03.04-.02.05.05.09.04.02.06.05.06.13 0 .06.02.11.03.13.01.02 0 .11-.02.2-.04.18-.04.18.02.36.09.25.17.44.27.59.09.13.1.18.06.3-.04.11-.11.1-.24-.06-.22-.24-.3-.31-.47-.4-.17-.08-.39-.14-.52-.15-.04 0-.08-.01-.1-.03-.04-.03-.01-.09.04-.09.06 0 .03-.04-.08-.09-.08-.04-.12-.04-.26-.03-.13.01-.17.01-.21-.02-.1-.08-.26.01-.23.13.02.09-.09.23-.21.27-.06.02-.12.06-.14.08-.03.02-.09.03-.23.03-.18 0-.2 0-.22-.05-.02-.03-.05-.04-.12-.03-.15.03-.32.06-.4.08-.11.04-.33.01-.37-.05-.12-.14-.15-.16-.22-.16-.06 0-.07-.01-.08-.05-.01-.04-.03-.05-.09-.06-.07-.01-.08-.02-.09-.08 0-.07-.06-.13-.11-.13-.02 0-.07.03-.11.06-.04.04-.12.08-.17.1-.08.04-.1.05-.1.12l-.01.08-.18.03c-.1.02-.22.05-.27.06-.16.06-.4.21-.56.36-.18.17-.23.19-.28.12-.03-.03-.04-.07-.04-.09s.05-.13.11-.25c.16-.29.22-.5.22-.7 0-.14-.01-.19-.08-.34-.05-.09-.11-.24-.14-.32-.06-.16-.12-.22-.16-.16-.02.03-.03.03-.07.01-.03-.02-.06-.02-.07-.01-.04.03-.11.38-.14.6-.01.11-.02.35-.01.53.01.23 0 .33-.01.36-.02.02-.04.09-.05.15-.03.22-.04.98-.02 1.22.01.14.04.39.05.56.01.18.05.38.07.46.02.07.04.17.04.21 0 .08.04.18.12.28.03.05.04.07.02.12-.02.04-.02.08-.01.1.01.02.03.15.05.27.04.33.08.42.33.68l.11.12.02.36.05.58c.02.21.02.23-.03.32-.03.06-.05.12-.04.16.02.07.11.21.19.3.03.04.06.1.06.14 0 .09.15.4.23.49.2.2.41.35.66.47.36.18.61.22 1.3.24.38.01.59.02.61.04.03.03.15.02.14-.01-.01-.01-.04-.02-.06-.02s-.11-.03-.18-.06c-.16-.06-.23-.07-.37-.03-.08.03-.15.03-.33 0-.26-.03-.32-.06-.44-.18-.08-.09-.15-.1-.17-.04-.01.03-.04.04-.12.03-.18-.02-.4-.13-.64-.31-.59-.44-.63-.52-.47-1.15.04-.18.06-.3.06-.48v-.23l.07.1c.04.06.09.13.1.17.02.04.06.08.12.1.09.04.16.12.16.18 0 .02.02.09.05.15.04.1.06.12.1.12.08 0 .23.11.3.22.11.16.17.1.11-.11-.03-.11-.03-.12 0-.16.04-.05.12-.04.16.03.03.06.05.06.09-.01.03-.05.03-.06 0-.11-.04-.06-.06-.29-.02-.34.02-.04.12-.03.14.01.03.08.01.32-.03.36-.04.04-.04.05.02.07.08.04.06.07-.04.11-.08.03-.1.03-.18-.01-.05-.03-.1-.04-.1-.03-.02.02 0 .18.04.31.02.08.05.12.1.15.13.07.21.02.19-.11-.02-.1.04-.14.19-.11.01 0 .03.04.05.09.05.13.16.25.21.25.04 0 .05-.01.05-.09 0-.07.01-.09.04-.08.03 0 .04-.02.05-.05 0-.04.01-.05.04-.03.02.02.05.01.11-.06.11-.1.14-.1.21-.01.05.07.06.07.08.03.05-.05.15-.03.18.05.03.07.06.07.13.02.06-.05.07-.04.12.07.02.06.06.12.08.13.04.04.22.04.29.01.04-.02.05-.02.07.03.01.04.02.1.02.14 0 .13-.14.31-.14.18 0-.06-.06-.06-.14 0-.03.02-.09.05-.12.06-.12.04-.15.09-.06.12.03.01.08.03.11.06.08.05.18.03.31-.07.08-.06.18-.09.18-.05 0 .04.18.12.22.11.03-.01.06.01.1.04.05.05.07.05.08.02.01-.02.01-.04.01-.06-.01-.01.01-.07.04-.11.03-.05.06-.13.06-.18.02-.09.08-.14.08-.06 0 .07.04.06.13-.01.06-.05.07-.06.06-.2-.01-.37-.01-.35-.06-.34-.06.01-.06.03-.07-.48-.01-.25 0-.28.03-.27.04.01.23-.25.26-.37.01-.04.01.05.01.21-.01.18 0 .39.02.57.02.16.02.3.02.32-.01.02-.01.05.01.06.03.02.04.07.03.22 0 .23-.07.46-.18.57-.07.07-.08.07-.18.06-.14-.02-.18.01-.23.13-.04.09-.15.2-.22.2-.01 0-.05.03-.08.07-.07.09-.11.09-.2.02-.09-.06-.24-.05-.34.03l-.12.09c-.06.04-.05.04.18.05.13.01.29.01.37.01.25 0 .65-.2.88-.44.11-.11.3-.44.3-.52 0-.02.02-.05.04-.07.05-.04.1-.15.15-.3.03-.12.04-.17.02-.36-.05-.45-.02-1.17.05-1.25.01-.01.03-.06.05-.12.01-.05.06-.14.09-.21.06-.11.07-.16.13-.58.01-.09.04-.16.12-.26.06-.08.11-.2.13-.28.02-.07.05-.16.06-.2.03-.06.03-.13-.01-.35-.02-.14-.02-.3.02-.85zm-.616.304c.028-.084.046-.228.056-.43.013-.32.033-.38.123-.38.042 0 .045.01.034.11l-.03.48c-.01.205-.03.39-.03.402-.01.04-.06.034-.12-.016l-.05-.043.04-.123zm-2.38-.92c.013.02.02.064.016.092-.006.047-.008.047-.024.01-.01-.023-.018-.066-.017-.094 0-.045.003-.047.024-.01zm-.722-.246c.023-.01.054-.05.068-.106.026-.08.024-.1-.032-.17-.057-.07-.058-.08-.02-.09.022-.01.082-.04.134-.07.103-.064.195-.077.24-.034.016.02.028.1.028.197 0 .14.01.19.07.305.072.145.092.288.037.288-.01 0-.09-.013-.16-.03-.13-.025-.14-.023-.17.02-.02.03-.04.05-.05.05-.05-.01-.22-.083-.23-.1-.02-.03.06-.24.1-.25zm-.316 1.045c.027.034.035.034.072.005.036-.03.038-.03.023.026-.01.04-.027.09-.04.11-.02.06-.12.08-.148.03-.018-.03.005-.14.04-.18.02-.02.03-.02.053.02zm-2.64-1.404c-.07-.04-.094-.13-.034-.13.047 0 .174.13.174.19 0 .05-.008.05-.047 0-.015-.02-.058-.05-.094-.07zm.415 2.37c-.07.05-.13.05-.22-.01-.083-.05-.11-.11-.11-.29-.003-.14.048-.16.13-.06l.153.16c.11.1.124.16.047.21zm.17.4c-.055.07-.118.04-.118-.05 0-.07.044-.09.1-.03.04.04.043.05.018.08zm.383-.45c-.033 0-.058-.01-.058-.02s.02-.03.044-.03c.025 0 .05.01.06.02.008.01-.01.02-.046.02zm.55 2.39c-.02 0-.03-.01-.023-.03.003-.03.02-.05.038-.06.02-.01.028 0 .024.03-.005.02-.023.05-.04.05zm.135.13c-.014 0-.023 0-.023-.01s.01-.03.023-.04c.012-.01.022-.01.022.01s-.01.03-.022.03zm.104-2.95c.036-.02.09.04.067.06-.01 0-.035.01-.06.01-.05 0-.056-.06-.007-.08zm.035 2.52c.024.04.046.09.046.1 0 .03-.058.06-.08.04-.005-.01-.012-.07-.012-.12v-.11l.046.08zm-.04.63c-.032-.09-.012-.19.046-.22.044-.02.045-.02.03.11-.02.16-.045.2-.077.1zm.04.22c-.023-.03-.018-.04.034-.05.06-.02.13.02.13.06 0 .03-.132.02-.163-.02zm.057-.98c-.03-.06-.05-.11-.07-.11s-.02-.01 0-.03c.03-.05.07-.27.08-.49.01-.15.02-.22.05-.25.02-.03.05-.04.06-.03.03.02 0 .24-.05.42-.04.11-.04.15-.01.2.02.03.04.11.05.17.01.05.03.13.03.16 0 .04 0 .07-.02.09-.05.03-.1-.01-.15-.15zm.35.77c-.02.14-.06.19-.12.13-.1-.11-.12-.3-.04-.37.09-.09.17.03.15.23zm.52.03c-.03-.06-.03-.21 0-.21s.07.08.07.17c0 .09-.03.11-.07.04zm.52.22c-.05.01-.15.02-.23.03l-.14.01.04-.06c.04-.07.06-.08.1-.03.04.05.13.04.17-.02.02-.04.04-.05.07-.03.07.05.06.08-.03.09zm-.23-.24c-.02-.1.01-.14.09-.13.05.01.05.02.05.14 0 .1-.01.12-.05.12-.06 0-.09-.04-.11-.14zm.25-1.05c-.01-.01 0-.02.02-.02s.03.01.03.02-.01.02-.02.02c-.02 0-.03-.01-.04-.03zm.23 1.28c.01 0 .04-.03.05-.06.02-.06.06-.06.06.01 0 .02.02.05.04.08.02.02.03.04.02.04-.05-.01-.21-.07-.18-.07zm.48.13c-.12-.02-.16-.03-.15-.04 0-.01.02-.05.04-.09.03-.08.06-.1.07-.05l.03.1c.02.06.02.07 0 .07zm.2-.1c-.05.07-.09.07-.15-.01-.04-.05-.05-.12-.06-.31-.02-.27-.02-.28.12-.28.06 0 .16.07.16.11-.01.15-.06.44-.08.48zm.27-.24c-.07-.09-.09-.21-.04-.27.08-.1.13-.05.12.15 0 .16-.03.2-.09.12zm.09-.51c-.03.06-.03.06-.05.02-.01-.02-.03-.07-.04-.11s-.04-.08-.06-.11c-.05-.06-.05-.06-.08-.01-.02.02-.04.06-.04.09 0 .13-.23.19-.33.09-.04-.05-.05-.08-.05-.27 0-.21-.01-.23-.08-.34-.06-.09-.1-.12-.14-.12-.09 0-.09.04 0 .11.08.07.08.07.08.23-.01.1 0 .17.02.19.01.01.02.07.02.13s.02.12.04.14c.02.02.03.07.03.11 0 .09-.05.38-.08.44s-.09.06-.15.01c-.04-.03-.06-.09-.07-.19-.02-.08-.03-.16-.04-.18-.03-.05-.08.05-.08.18 0 .15-.02.19-.08.19-.08 0-.11-.12-.1-.33v-.15l.09.01c.05.01.1.02.12.04.02.02.03.02.04 0 .02-.05.01-.06-.09-.09l-.1-.02-.02-.17c-.03-.21 0-.38.09-.5.03-.05.06-.09.06-.1 0 0-.06 0-.14.01-.1.01-.15 0-.21-.02-.04-.02-.1-.04-.12-.04-.03 0-.03.01.01.03.03.01.08.08.11.14.04.09.06.16.07.37 0 .14.01.26 0 .27-.01.02-.3.02-.38 0-.04-.01-.07-.04-.08-.09l-.03-.08-.04.08c-.04.07-.06.08-.14.08-.07 0-.11-.02-.14-.05-.05-.06-.11-.06-.15-.01-.02.02-.06.03-.09.03-.05-.01-.06-.02-.07-.12-.01-.06-.03-.13-.06-.16-.04-.04-.05-.09-.05-.22 0-.22.02-.27.1-.29.1-.02.12-.03.11-.05-.01-.01-.05-.02-.09-.02-.04 0-.07-.01-.08-.02 0-.01 0-.08.02-.15.04-.13.13-.66.14-.82.02-.13-.03-.58-.06-.63-.01-.03-.05-.08-.09-.12-.05-.06-.05-.07-.02-.09.03-.02.04-.04.02-.07-.01-.03-.02-.07-.02-.1 0-.09-.02-.09-.13-.02-.11.07-.31.11-.34.07-.01-.02-.04-.02-.09.01-.03.02-.09.03-.12.03s-.16.04-.3.08c-.23.08-.43.13-.56.13-.07 0-.3-.14-.35-.23-.04-.06-.04-.07 0-.19.02-.07.04-.19.05-.26.04-.44.06-.52.11-.53.02 0 .05-.04.07-.07l.02-.06.04.05c.03.04.04.06.02.14-.03.11-.01.56.03.66.04.1.2.23.33.27.09.02.14.02.45-.05.38-.09.43-.11.92-.43.15-.1.29-.19.31-.2.04-.02.04.03-.03.24-.05.13-.06.2-.05.29 0 .06 0 .17-.01.24-.02.1-.02.12.02.15s.04.05.03.19c-.02.11-.03.16-.05.16-.04-.01-.04.19 0 .22.01.01.02-.02.02-.06V126l.03.09c.04.12.16.24.26.26.04.01.11.05.18.13.2.213.26.22.4.03.05-.07.11-.11.16-.12.04-.02.12-.05.16-.09.04-.04.1-.06.14-.06.04 0 .07-.03.11-.09l.05-.09v.07c.01.05 0 .08-.05.118-.07.055-.13.15-.09.15.06 0 .16-.07.16-.117 0-.06.07-.21.11-.21.02 0 .03.02.03.03 0 .02.02.06.05.08.04.05.04.07.02.09-.05.06-.02.19.13.59.07.19.12.36.11.38-.01.02-.09.04-.19.07-.1.02-.18.04-.18.05 0 .03.19.31.21.31.01 0 .02-.04.02-.09 0-.13.02-.16.09-.16.08 0 .11.05.14.32.03.2.03.25 0 .3zm-.13-2.28c-.08.05-.08.07-.05.08.03.02.03.03.01.05-.01.02-.04.03-.05.03-.03 0-.13-.11-.13-.14 0-.03.13-.11.21-.13.11-.02.11.01 0 .09zm.09 1.04c.02-.02.04-.04.05-.03 0 0 0 .07-.01.16-.02.15-.05.15-.07 0-.02-.08-.01-.11.02-.14zm.19 1.97c-.08-.04-.08-.05-.03-.11.03-.05.03-.05.11.03.04.04.07.08.07.1-.02.02-.09.02-.16-.02zm.22-.32c-.07-.05-.1-.12-.1-.23 0-.07.08-.06.11.02.01.03.05.08.07.1.02.02.04.05.04.07 0 .06-.06.08-.14.02zm-.11-.95c.01-.04.02-.02.06.1.04.13.04.14.01.18-.04.03-.04.03-.05-.01-.03-.11-.04-.23-.03-.27zm.3.57c-.02-.03 0-.07.02-.05.01.01.01.03.01.04-.01.02-.02.02-.03 0zm.33-2.32c-.01.04-.04.08-.06.1-.02.02-.06.03-.09.03-.04 0-.04-.01-.03-.15.01-.15.04-.2.08-.18.01 0 .02.04.02.08 0 .06 0 .07.04.06.04-.01.04-.01.02.06zm.42.08c-.11.04-.11.04-.22-.07-.12-.11-.14-.14-.04-.12.08.02.32.13.32.15 0 .01-.03.02-.07.04zm-.08-.21c-.03-.02-.09-.07-.14-.09-.06-.03-.12-.07-.14-.09-.02-.02-.07-.05-.1-.05-.08 0-.23.08-.28.15-.05.06-.05.06-.19.02-.08-.02-.17-.04-.21-.04-.05-.01-.15-.04-.23-.09-.09-.05-.17-.08-.18-.08-.02 0-.03.04-.02.13 0 .07 0 .13-.01.14-.02.01-.06 0-.11-.01-.11-.04-.16-.14-.15-.29 0-.04.01-.04.09-.03.08.01.09.01.09-.03 0-.07-.06-.11-.12-.1-.08.01-.12-.02-.09-.07.01-.02.01-.1.01-.17-.01-.12 0-.14.03-.14.02 0 .18.07.35.15.22.1.42.18.69.26.35.09.41.11.67.11.25 0 .28.01.28.04 0 .02-.03.07-.05.1-.03.03-.07.08-.09.13-.06.09-.09.09-.15.02zm.68.09c-.03.13-.04.16-.08.16-.03 0-.06.01-.08.02-.02.01-.09.03-.17.05l-.14.03c-.06 0-.06-.18-.01-.19.02-.01.07-.01.11 0 .07.01.08 0 .08-.03s.02-.09.03-.14c.01-.05.03-.14.03-.19 0-.06.02-.16.04-.22l.03-.12v.08c0 .04.01.09.03.1.01 0 .03.05.05.11.01.05.04.11.06.14.03.03.03.05 0 .19zm-3.77 1.59c-.03 0-.03.07.01.13.02.03.03.06.01.07-.01.01-.04-.02-.05-.05-.02-.04-.04-.06-.05-.06-.03 0-.03.01 0 .07.02.03.03.1.04.15 0 .06.02.14.03.18.06.18.14-.02.11-.27-.02-.14-.07-.24-.12-.24zm-.28-1.06c-.01.01-.02.04-.02.06s.01.04.02.03c.01-.01.02-.03.02-.06s-.01-.04-.02-.03zm1.35 1.9c0-.02 0-.03-.01-.03 0 0-.02.01-.02.02s-.01.02.01.02.02-.01.02-.03zm-.14-1.58c-.03 0-.05.06-.04.1.01.02.02.03.04.02.03-.02.03-.13 0-.13z"/><path fill="#EC1C24" d="M75.604 122.61s-4.01-4.317-14.2-3.636c0 0 6.978 5.585 14.2 5.132 0 0-5-1.283-8.963 6.26 0 0 6.89-2.1 8.97-5.202"/><path fill="#670004" d="M74.172 122.61s-3.347-1.343-7.675-2.206c0 0 9.146 4.23 7.675 2.206zm0 2.202s-2.446 1.21-4.63 3.264c0 0 5.836-3.08 4.63-3.264z"/><path fill="#670004" d="M75.095 119.894s-2.406 4.36.283 7.58c0 0-2.123-2.672-.283-7.58zm-.61-.21c.02-.177 1.616-1.727 3.907-2.115 0 0-3.375 1.26-3.948 2.51l.04-.4zm.33 7.936l3.357 4.17-3.287-3.715m10.975-6.58l-2.74-2.37 2.63 2.71m-.06.38l-1.644-1.195 1.592 1.503m-1.694 10.464s-1.122-.81-3.836-.63c0 0 2.07-.526 3.89.302l-.054.32zm-8.01 0l1.76-.796-1.863.4"/><path fill="#323031" d="M41.027 131.476s-.378 6.81 5.47 5.137l5.22-6.313s-2.257.05-4.163-5.062c0 0-5.825 4.805-6.527 6.238z"/><circle fill="#F1F1F2" cx="43.423" cy="131.79" r=".783"/><circle fill="#F1F1F2" cx="46.37" cy="128.478" r=".783"/><circle fill="#F1F1F2" cx="45.177" cy="134.547" r=".782"/><circle fill="#F1F1F2" cx="48.309" cy="131.15" r=".782"/><circle fill="#F1F1F2" cx="45.828" cy="131.528" r=".783"/><circle fill="#0071BC" cx="109.062" cy="94.89" r="10.731"/><path fill="#0F4481" d="M112.638 99.015c-2.548 1.67-5.963.958-7.63-1.586-1.668-2.55-.96-5.97 1.587-7.64 2.544-1.67 5.962-.96 7.63 1.59 1.67 2.54.957 5.96-1.587 7.63z"/><path fill="#FFF" d="M111.388 95.61c-1.354.886-3.167.508-4.054-.845-.886-1.35-.51-3.168.842-4.056 1.354-.89 3.17-.51 4.057.84.886 1.35.507 3.16-.845 4.05z"/><circle fill="#FFF" cx="108.145" cy="99.673" r="1.426"/><circle fill="#0071BC" cx="138.528" cy="94.736" r="9.704"/><path fill="#0F4481" d="M141.857 98.753c-2.305 1.51-5.393.867-6.9-1.435-1.508-2.302-.868-5.39 1.437-6.9 2.3-1.51 5.39-.866 6.9 1.436 1.51 2.3.863 5.39-1.437 6.9z"/><path fill="#FFF" d="M140.728 95.673c-1.224.802-2.864.46-3.666-.763-.803-1.222-.463-2.865.76-3.667 1.225-.802 2.867-.458 3.67.765.8 1.222.458 2.863-.764 3.665z"/><circle fill="#FFF" cx="137.794" cy="99.348" r="1.289"/></svg>