<?xml version="1.0" encoding="utf-8"?>
<!-- Generator: Adobe Illustrator 16.0.0, SVG Export Plug-In . SVG Version: 6.00 Build 0)  -->
<!DOCTYPE svg PUBLIC "-//W3C//DTD SVG 1.1//EN" "http://www.w3.org/Graphics/SVG/1.1/DTD/svg11.dtd">
<svg version="1.1" id="Layer_1" xmlns="http://www.w3.org/2000/svg" xmlns:xlink="http://www.w3.org/1999/xlink" x="0px" y="0px"
	 width="250px" height="250px" viewBox="0 0 250 250" enable-background="new 0 0 250 250" xml:space="preserve">
<path opacity="0.15" d="M230.255,73.343l-34.588-2.738c-3.434-3.565-7.154-6.852-11.128-9.819L197.038,39.5l-59.932,0.573
	l-65.76,0.005l5.575,20.015c-3.955,2.874-7.67,6.057-11.107,9.518l-31.735,2.011l6.397,48.18h0c-0.686,4.5-1.042,9.109-1.042,13.802
	c0,18.931,5.794,36.507,15.703,51.057c5.94,8.723,13.36,16.354,21.898,22.539c14.956,10.834,33.34,17.226,53.22,17.226
	c19.81,0,38.135-6.347,53.062-17.111c7.146-5.152,13.511-11.318,18.886-18.287c11.831-15.336,18.873-34.556,18.873-55.423
	c0-6.415-0.669-12.673-1.935-18.713L230.255,73.343z"/>
<g id="Layer_3" display="none">
	
		<image display="inline" overflow="visible" enable-background="new    " width="1024" height="768" xlink:href="../06_June_2015/60432D60.jpg"  transform="matrix(-0.2474 0 0 0.2474 -189.3325 62)">
	</image>
</g>
<g id="Layer_2" display="none">
	<g display="inline">
		<g>
			<path fill="#FFFFFF" d="M128.377,150.443c0,0,0.3,0.324,0.859,0.934c0.578,0.611,1.449,1.508,2.604,2.596
				c1.155,1.088,2.588,2.375,4.305,3.729c1.715,1.346,3.722,2.771,5.985,3.991c1.138,0.584,2.333,1.16,3.569,1.546
				c1.234,0.434,2.502,0.653,3.705,0.672c1.219,0.045,2.324-0.226,3.328-0.765c0.525-0.205,0.972-0.646,1.461-0.989
				c0.431-0.482,0.92-0.869,1.303-1.479c1.66-2.215,2.818-5.354,3.582-8.682c0.227-0.816,0.371-1.684,0.521-2.547l0.229-1.297
				l0.061-0.324l0.049-0.307l0.088-0.662c0.211-1.709,0.379-3.604,0.55-5.461c0.671-7.5,1.428-15.148,2.936-22.363
				c0.763-3.611,1.702-7.125,3.05-10.482c0.674-1.678,1.461-3.319,2.446-4.896c0.987-1.571,2.152-3.098,3.694-4.412
				c1.511-1.315,3.425-2.384,5.439-2.863c2.008-0.503,3.978-0.45,5.606-0.147c3.285,0.644,5.479,1.923,7.157,2.95
				c1.682,1.052,2.816,1.977,3.6,2.604c0.76,0.638,1.162,0.979,1.162,0.979c2.111,1.78,2.383,4.937,0.604,7.05
				c-1.781,2.113-4.938,2.383-7.053,0.603c-0.048-0.041-0.096-0.083-0.143-0.125l-0.135-0.122c0,0-0.303-0.278-0.873-0.801
				c-0.57-0.502-1.42-1.245-2.504-1.984c-1.065-0.75-2.42-1.499-3.646-1.789c-0.608-0.146-1.136-0.166-1.635-0.077
				c-0.501,0.08-1.04,0.307-1.688,0.807c-1.303,0.978-2.759,3.098-3.91,5.688c-1.177,2.599-2.151,5.654-2.979,8.911
				c-1.658,6.542-2.711,13.86-3.688,21.308c-0.254,1.883-0.49,3.727-0.82,5.727l-0.129,0.729l-0.074,0.383l-0.08,0.363l-0.319,1.447
				c-0.212,0.967-0.416,1.926-0.72,2.885c-1.075,3.812-2.532,7.654-5.241,11.01c-0.618,0.854-1.485,1.595-2.282,2.332
				c-0.914,0.65-1.801,1.343-2.856,1.769c-2.03,0.97-4.304,1.338-6.308,1.187c-2.021-0.115-3.865-0.572-5.479-1.207
				c-1.646-0.599-3.076-1.363-4.414-2.129c-2.64-1.568-4.793-3.256-6.619-4.813c-1.819-1.563-3.306-3.014-4.496-4.23
				c-1.188-1.225-2.082-2.223-2.687-2.916c-0.604-0.715-0.927-1.096-0.927-1.096c-0.89-1.051-0.759-2.625,0.292-3.514
				c1.022-0.865,2.542-0.768,3.44,0.209L128.377,150.443z"/>
			<path fill="#D0D2D3" d="M149.189,170.059c0.574,0.043,1.172,0.031,1.776-0.012c-6.188-0.775-9.319-4.885-10.856-9.541
				c-1.45-0.912-2.781-1.875-3.965-2.805c-1.72-1.354-3.151-2.641-4.308-3.729c-1.151-1.091-2.022-1.984-2.604-2.599
				c-0.562-0.606-0.858-0.937-0.858-0.937l-0.075-0.082c-0.748-0.811-1.919-1.006-2.881-0.557c-0.469,0.76-0.949,1.539-1.429,2.318
				c0.014,0.547,0.197,1.092,0.578,1.543c0,0,0.322,0.381,0.927,1.094c0.604,0.695,1.496,1.693,2.688,2.916
				c1.189,1.221,2.676,2.67,4.495,4.232c1.826,1.559,3.981,3.244,6.619,4.813c1.338,0.766,2.771,1.531,4.414,2.131
				C145.324,169.484,147.17,169.941,149.189,170.059z"/>
			<path fill="#ED1F24" d="M93.474,127.055c0,0-29.75,2.25-22,26.5l14.75-0.25L93.474,127.055z"/>
			<path fill="#D3202E" d="M75.141,137.221c0,0,6.083-5.541,13.833-6.916l-3.156,15.836l-4.01,0.58L75.141,137.221z"/>
			<path fill="#D1A109" d="M131.161,178.18c0,0-0.642-0.731-1.563-0.641c-0.921,0.092-0.125,1.781-0.125,1.781L131.161,178.18z"/>
			<path fill="#D1A109" d="M77.349,176.305c0,0,2.063-1.5,3.563-0.25l0.188,2.5C81.099,178.555,77.411,177.305,77.349,176.305z"/>
			<path fill="#FFFFFF" d="M95.265,188.813l-0.167,3.656c0,0,10.25,3.877,32.166,0.074l0.055-3
				C127.318,189.543,98.848,190.9,95.265,188.813z"/>
			<polygon fill="#FFFFFF" points="90.661,177.566 92.286,185.68 102.349,186.631 103.599,177.008 			"/>
			<path fill="#FFFFFF" d="M72.265,186.91l-0.167,3.656c0,0,10.25,3.877,32.167,0.074l0.054-3
				C104.319,187.641,75.848,188.998,72.265,186.91z"/>
			<polyline fill="#7F7C7D" points="94.192,183.553 96.036,183.75 97.432,186.127 99.307,182.1 96.307,179.414 93.349,183.414 			
				"/>
			<path fill="#111010" d="M82.659,183.641c0,0-6.144,0.498-9.998,2.66c-3.854,2.164,21.784,3.396,31.658,1.34
				C104.319,187.641,100.966,182.748,82.659,183.641z"/>
			<polygon fill="#FFFFFF" points="113.661,179.469 115.286,187.582 125.349,188.533 126.6,178.91 			"/>
			<path fill="#231F20" d="M105.659,185.543c0,0-6.144,0.498-9.998,2.66c-3.854,2.164,21.784,3.395,31.657,1.34
				C127.318,189.543,123.966,184.65,105.659,185.543z"/>
			<circle fill="#F1C119" cx="112.807" cy="63.721" r="5.667"/>
			<path fill="#7C0505" d="M78.057,60.138c0,0,14.377-10.271,33.75,0.75c4.833,2.75,11.167,8.417,12.5,17.083L78.057,60.138z"/>
			<path fill="#FFFFFF" d="M63.601,70.289c7.074-5.907,16.953-9.586,27.895-9.586c11.792,0,22.354,4.268,29.493,11
				c10.222-4.445,12.324,1.705,12.324,1.705c0.592,1.211,0.705,2.494,0.53,3.778C111.533,87.047,81.169,89.9,63.601,70.289z"/>
			<path fill="#D0D2D3" d="M55.058,81.17c0,0-7.717-14.035,6.607-9.16C75.993,76.885,55.058,81.17,55.058,81.17z"/>
			<path fill="#919496" d="M57.761,77.299c0,0-6.867-6.931-1.93,2.346C60.767,88.926,57.761,77.299,57.761,77.299z"/>
			<path fill="#FFFFFF" d="M130.061,88.011c-2.61-15.426-18.875-27.309-38.563-27.309c-21.51,0-38.941,14.179-38.941,31.668
				c0,17.49,17.434,31.668,38.941,31.668c0.809,0,1.605-0.025,2.404-0.065c0.861,3.759,1.582,9.589-1.021,13.119
				c0,0-17.863,13.357-8.75,26.047c-0.012-0.094-2.346-22.236,14.699-26.18l-2.979-13.572c0,0,6.327-1.89,13.85-5.213v17.471
				c0,0-17.983,21-7.801,35.221C119.708,170.322,155.549,160.787,130.061,88.011z"/>
			<path fill="#D0D2D3" d="M109.699,135.645v-17.47c-7.523,3.323-13.809,5.213-13.809,5.213l2.937,13.572
				c-17.045,3.942-14.711,26.086-14.699,26.181c1.777,2.479,2.672,3.313,6.842,5.637c0,0,5.619,2.248,10.929,2.09
				C91.716,156.645,109.699,135.645,109.699,135.645z"/>
			<ellipse fill="#D0D2D3" cx="85.646" cy="93.069" rx="33.094" ry="25.105"/>
			<ellipse fill="#FFFFFF" cx="68.745" cy="87.429" rx="12.938" ry="12.752"/>
			<ellipse fill="#FFFFFF" cx="98.827" cy="87.718" rx="15.967" ry="15.862"/>
			<g>
				<circle fill="#0071BC" cx="101.728" cy="87.801" r="12.364"/>
				<path fill="#0F4481" d="M100.839,90.914c-2.297-2.653-2.008-6.661,0.645-8.957c2.65-2.293,6.658-2.006,8.957,0.647
					c2.293,2.651,2.005,6.661-0.646,8.956C107.142,93.855,103.132,93.565,100.839,90.914z"/>
				<path fill="#FFFFFF" d="M104.537,88.967c-1.222-1.411-1.064-3.54,0.344-4.759c1.407-1.219,3.539-1.068,4.76,0.342
					c1.219,1.41,1.063,3.542-0.346,4.762C107.884,90.531,105.757,90.375,104.537,88.967z"/>
				<circle fill="#FFFFFF" cx="99.399" cy="85.885" r="1.644"/>
			</g>
			<g>
				<circle fill="#0071BC" cx="70.571" cy="87.585" r="10.265"/>
				<path fill="#0F4481" d="M69.833,90.17c-1.904-2.204-1.666-5.531,0.535-7.437c2.199-1.904,5.529-1.666,7.438,0.537
					c1.902,2.201,1.664,5.53-0.539,7.436C75.067,92.611,71.737,92.371,69.833,90.17z"/>
				<path fill="#FFFFFF" d="M72.903,88.553c-1.014-1.171-0.885-2.938,0.285-3.951c1.168-1.011,2.938-0.887,3.951,0.284
					c1.012,1.171,0.883,2.939-0.287,3.954C75.683,89.851,73.915,89.722,72.903,88.553z"/>
				<circle fill="#FFFFFF" cx="68.638" cy="85.995" r="1.364"/>
			</g>
			<path fill="#BE1E2D" d="M77.911,104.96c0,0,1.594,5.406-0.25,5.688c0,0,7.25,4.438,8.438-5.031c0,0-5.563,0.688-6.938-1
				L77.911,104.96z"/>
			<path fill="#6C6F71" d="M78.73,104.997c0,0-0.014-0.027-0.038-0.073c-0.027-0.069-0.065-0.191-0.099-0.332
				c-0.045-0.163-0.029-0.254-0.038-0.39c-0.003-0.129-0.006-0.267-0.009-0.404c0.063-0.508,0.125-1.016,0.125-1.016l0.979,0.2
				c0,0-0.074,0.44-0.148,0.881c-0.001,0.102-0.003,0.204-0.004,0.299c-0.001,0.088-0.01,0.209,0.001,0.22
				c0.006,0.035-0.006,0.061-0.004,0.092c0.022,0.048,0.035,0.075,0.035,0.075L78.73,104.997z"/>
			<path fill="#6C6F71" d="M73.432,100.314c0.461,0.751,0.553,1.434,0.782,2.101c0.239,0.65,0.592,1.235,1.074,1.593
				c0.479,0.36,1.083,0.505,1.746,0.473c0.328-0.012,0.67-0.063,1.012-0.131c0.342-0.082,0.683-0.185,1.03-0.29l0.219-0.066
				l0.209,0.089c0.403,0.173,0.861,0.342,1.302,0.482c0.446,0.143,0.903,0.246,1.356,0.342c0.91,0.18,1.832,0.248,2.726,0.145
				c0.896-0.093,1.751-0.39,2.512-0.865c0.382-0.238,0.722-0.536,1.07-0.839c0.365-0.291,0.721-0.604,1.211-0.877
				c-0.043,0.55-0.244,1.052-0.553,1.478c-0.3,0.435-0.714,0.778-1.136,1.101c-0.856,0.641-1.895,1.047-2.949,1.191
				c-1.056,0.146-2.122,0.075-3.13-0.157c-0.507-0.109-0.998-0.271-1.479-0.454c-0.484-0.187-0.939-0.386-1.408-0.667l0.428,0.023
				c-0.359,0.174-0.734,0.321-1.125,0.441c-0.396,0.107-0.8,0.214-1.231,0.231c-0.844,0.077-1.818-0.146-2.533-0.742
				c-0.717-0.593-1.107-1.416-1.309-2.207C73.051,101.921,72.949,101.08,73.432,100.314z"/>
			<g>
				<path fill="#1D8FCD" d="M75.638,100.836c0,0,2.877-5.856,3.938-2.765c0,0,2.379-3.481,2.379,2.109c0,0-2.254,1.536-2.379,3.398
					C79.575,103.58,77.245,102.643,75.638,100.836z"/>
				<path fill="#FFFFFF" d="M79.575,102.152c0,0,0.146-0.791,1.262-1.578C80.837,100.574,80.425,99.058,79.575,102.152z"/>
			</g>
			<path fill="#231F20" d="M119.224,186.184c0,0,6.188,1.174,7.25-0.783c0,0,1.615,2.396,0.844,4.125
				c-0.063,0.144,0.002,0.021,0.002,0.021l-6.096-0.955L119.224,186.184z"/>
			<polyline fill="#7F7C7D" points="119.849,184.168 121.349,183.945 122.849,186.574 124.724,182.547 121.724,179.861 
				119.599,184.168 			"/>
			<path fill="#6C6F71" d="M75.974,110.616c0,0,0.044,0.146,0.123,0.403c0.061,0.227,0.147,0.551,0.251,0.939
				c0.055,0.182,0.104,0.385,0.21,0.573c0.085,0.198,0.22,0.38,0.358,0.566c0.163,0.166,0.313,0.355,0.523,0.49
				c0.196,0.149,0.407,0.285,0.647,0.385c0.453,0.23,0.958,0.397,1.45,0.489c0.48,0.13,0.968,0.132,1.367,0.205
				c0.408,0.038,0.755,0.032,0.995,0.051c0.241,0.016,0.379,0.024,0.379,0.024l0.042,0.003c0.275,0.018,0.483,0.255,0.466,0.53
				c-0.017,0.262-0.234,0.463-0.491,0.467c0,0-0.147,0.002-0.405,0.005c-0.259-0.002-0.626,0.006-1.071-0.02
				c-0.446-0.054-0.966-0.073-1.519-0.235c-0.277-0.067-0.563-0.126-0.846-0.25c-0.284-0.109-0.578-0.205-0.845-0.384
				c-0.278-0.146-0.533-0.339-0.769-0.551c-0.246-0.193-0.436-0.456-0.621-0.688c-0.164-0.257-0.313-0.507-0.403-0.77
				c-0.111-0.252-0.157-0.511-0.204-0.741c-0.03-0.235-0.034-0.451-0.002-0.641c0.024-0.189,0.079-0.349,0.13-0.476
				C75.857,110.735,75.974,110.616,75.974,110.616z"/>
			<path fill="#7C0505" d="M82.974,148.344c0,0-6.167,18.949-1.667,34.314c0,0,1.333,3.281,17.167,0.299l0.5-21.186
				C98.974,161.771,94.974,144.465,82.974,148.344z"/>
			<polygon fill="#D1A109" points="94.286,176.93 96.245,176.283 95.891,177.971 			"/>
			<path fill="#F1C119" d="M95.724,177.18c0,0-14.375,3.125-18.375-0.875c0,0,0.5,5.875,1.875,7s14,2.375,18.25,0
				S95.724,177.18,95.724,177.18z"/>
			<path fill="#930805" d="M91.307,159.385l-7-11.338l10.667-2.836l14.833-1.789l14.333-8.951l8.833,11.637
				c-4.166,12.232-2.834,39.982-2.834,39.982c-3.166,1.939-6.833,1.492-6.833,1.492l-1.667-5.818l-2.333,5.07
				c-14.667,0.896-22.333-2.236-22.333-2.236c-4.167-12.383-2.667-22.975-2.667-22.975L91.307,159.385z"/>
			<path fill="#7C0505" d="M90.724,160.221c0,0,14.667,8.75,31.167,4.584l6.916,3.75l1.834-11.834l-4.916-6.25
				C125.725,150.471,90.724,159.221,90.724,160.221z"/>
			<path fill="#820906" d="M81.182,59.471c33.125-2.5,43.479,17.25,43.479,17.25c-24.25-17.375-51.854-12.333-51.854-12.333
				S76.317,59.838,81.182,59.471z"/>
			<path fill="#A8170C" d="M101.599,126.68c0,0-2.125-5,2.5-6.5s26.75-10.25,30.625-16.125c0,0,0.332-0.583,0-1.458
				c0,0,0.457-0.083,0.625,0.25c0.166,0.333,1.791,7.125,1.791,7.125s9.084,28.959,3.334,48.459c0,0-3,3.625-14-2v-4.375l-3.5,7.375
				c0,0-10.375,7-30.375,0.5c0,0-10.125,1-12.375-1.5c0,0-2.125-9.25,11.625-23.25c0,0,3.5-4.125,1-11l3.875-1
				c0,0,1.625,0,1.875,1.375c0.25,1.375,0.75,3,0.75,3s0.167,0.346,0.531,0.481C100.488,128.27,101.63,128.242,101.599,126.68z"/>
			<path fill="#A8170C" d="M80.891,59.179c-3.757,0.284-5.832,2.332-7.365,4.262c4.44-0.636,28.729-3.223,50.529,12.03
				C121.587,70.828,109.258,57.038,80.891,59.179z"/>
			<path fill="#919496" d="M122.222,74.679l4.02,8.793C126.242,83.472,138.602,68.096,122.222,74.679z"/>
			<path fill="#D0D2D3" d="M118.566,72.877c0,0-0.379,3.253,2.646,3.706c0,0,14.82-4.84,4.008,8.166c0,0-1.209,1.967,1.285,3.705
				c0,0,9.981-8.543,6.806-15.047C133.311,73.408,130.891,66.299,118.566,72.877z"/>
			<path fill="#BF4340" d="M101.599,126.68c0.031,1.563-1.11,1.59-1.719,1.359c-0.364-0.139-0.531-0.484-0.531-0.484
				s-0.5-1.625-0.75-3c-0.042-0.232-0.133-0.414-0.239-0.574l-4.011,1.449l-0.945,0.673c0.167,0.746,0.268,1.451,0.31,2.113
				c0,0,0.865,0.439,2.094,0.918c0.859,0.338,2.417,0.084,2.417,0.084c-7.25,14-8.375,25.729-8.375,25.729l4.375,0.604
				c0.313-9.313,9.333-27.168,9.333-27.168c23.461-3.749,33.213-17.041,33.723-17.952c-0.088-0.293-0.141-0.465-0.141-0.465
				l-35.875,12.959C100.781,124.75,101.599,126.68,101.599,126.68z"/>
			<path fill="#7C0505" d="M111.474,138.055c0,0,11.667-5.584,13-15.417c0,0-3.5,0.333-5.083,4.167
				C118.735,128.391,116.473,134.137,111.474,138.055z"/>
			<path fill="#FEE86E" d="M140.252,154.592c-0.611,0.244-1.389,0.369-2.309,0.369c-2.133,0-4.438-0.66-5.746-1.105
				c-1.281-11.129-1.988-11.479-2.954-11.965l-0.515-0.229h-0.476c-1.135,0-2.313,0.416-4.226,5.426l-4.818,8.697
				c-1.979,1.219-5.197,1.856-9.353,1.856c-0.001,0,0,0-0.002,0c-8.681,0-18.623-2.733-18.722-2.764l-0.655-0.182l-0.63,0.254
				c-0.773,0.313-1.677,0.473-2.688,0.473c-1.783,0-3.944-0.5-6.249-1.447l-0.46-0.188c-0.606,2.977-0.229,4.643-0.229,4.643
				c2.25,2.5,12.375,1.5,12.375,1.5c20,6.5,30.375-0.5,30.375-0.5l3.5-7.375v4.375c11,5.625,14,2,14,2
				c0.411-1.396,0.739-2.852,1.01-4.332L140.252,154.592z"/>
			<path fill="#ED1F24" d="M110.974,138.221c0,0,7.75-1.332,11.167-12c0,0,3.333-5.583,6.083-2.333
				c2.75,3.25,5.25,27.833-15.5,33.583L110.974,138.221z"/>
			<path fill="#F1C119" d="M104.557,120.72c0,0-3.333,0.667-3.083,3.417l1.25,3.5c0,0,28.75-6.25,34.583-17.25l-1.957-7.542
				C135.35,102.845,134.391,110.638,104.557,120.72z"/>
			<path fill="#F1C119" d="M140.475,158.43c0.19-0.647,0.363-1.313,0.522-1.979c-4.062,1.631-10.647-1.146-10.647-1.146
				s-1.25-11.25-2-11.625s-2.5,4.25-2.5,4.25l-5.125,9.25c-8.125,5.75-30.125-0.375-30.125-0.375
				c-3.341,1.353-7.487,0.234-10.445-0.979c-0.139,1.688,0.07,2.604,0.07,2.604c2.25,2.5,12.375,1.5,12.375,1.5
				c20,6.5,30.375-0.5,30.375-0.5l3.5-7.375v4.375C137.475,162.055,140.475,158.43,140.475,158.43z"/>
			<path fill="#F1C119" d="M103.571,138.863c0,0,0.393-0.523,1.701-0.523c1.309,0,4.187,0.131,4.776-0.262
				c0,0,0.785-0.523,1.374,0.066c0.589,0.588,4.318,9.42,2.225,20.086c0,0-6.739,2.024-10.403,1.375"/>
			<path fill="#D1A311" d="M102.497,139.678c0.464-0.762,2.447-2.344,3.977,0.586c1.53,2.928,3.212,18.351-2.448,19.455
				c-5.66,1.105-3.961-11.961-3.824-12.428C100.381,146.68,101.433,141.422,102.497,139.678z"/>
			<path fill="#BF4340" d="M135.35,102.845c-0.168-0.333-0.625-0.25-0.625-0.25c0.332,0.875,0,1.458,0,1.458
				c-3.875,5.875-26,14.625-30.625,16.125s-2.5,6.5-2.5,6.5c0.031,1.563-1.11,1.59-1.719,1.359
				c-0.364-0.139-0.531-0.484-0.531-0.484s-2.313,2.375,0.375,2.625s4.006-1.998,3.563-2.875c-2.229-4.417,0-5.625,0-5.625
				c19.438-5.688,29.688-13.688,31.438-15.375c0.568-0.55,0.916-1.29,0.983-2.163C135.527,103.437,135.391,102.93,135.35,102.845z"
				/>
			<path fill="#9E7902" d="M102.811,140.357c0.367-0.707,1.933-2.174,3.141,0.545c1.208,2.717,2.537,17.033-1.933,18.061
				c-4.47,1.028-3.045-11.102-3.02-11.537C101.036,146.773,101.971,141.977,102.811,140.357z"/>
			<path fill="#F1C119" d="M96.724,123.429c-0.168,0-0.708,0.043-1.372,0.104l-2.503,0.646c0.546,1.5,0.794,2.862,0.867,4.086
				c1.113,0.047,4.123,0.094,5.633-0.711l-1.25-2.75C98.099,124.804,97.224,123.429,96.724,123.429z"/>
			<path fill="#FFFFFF" d="M107.021,146.133c-0.161-1.311-0.36-2.48-0.575-3.418c-1.145,0.018-2.097-0.098-2.097-0.098l0.438,3.625
				C105.571,146.428,106.335,146.342,107.021,146.133z"/>
			<path fill="#BF4340" d="M97.286,124.304c0.152,0.607,1.499,4.282,1.969,5.032c0.304,0.484,0.531-0.656,0.094-1.781
				c0,0-0.5-1.625-0.75-3c-0.25-1.375-1.875-1.375-1.875-1.375l-1.614,0.416C95.63,123.546,97.081,123.484,97.286,124.304z"/>
			<path fill="#FEE86E" d="M122.141,126.221c0,0,0.058-0.096,0.163-0.254c0.611-0.911,2.427-3.24,4.67-2.33
				c2.875,1.167,3.666,10.333,2.582,14.833c0,0,4.539-11.604-1.166-16.167C125.057,119.637,122.391,125.805,122.141,126.221z"/>
			<path fill="none" stroke="#540404" stroke-linecap="round" stroke-miterlimit="10" d="M96.411,130.367
				c0,0,2.063,2.563,7.625-0.438"/>
			<path fill="none" stroke="#540404" stroke-linecap="round" stroke-miterlimit="10" d="M94.849,134.367
				c0,0,2.063,2.563,7.625-0.438"/>
			<path fill="none" stroke="#540404" stroke-linecap="round" stroke-miterlimit="10" d="M93.286,138.43
				c0,0,1.813,3.188,7.375,0.188"/>
			<path fill="none" stroke="#540404" stroke-linecap="round" stroke-miterlimit="10" d="M91.661,142.742
				c0,0,1.813,3.188,7.375,0.188"/>
			<path fill="none" stroke="#540404" stroke-linecap="round" stroke-miterlimit="10" d="M89.974,147.264
				c0,0,1.75,3.666,7.313,0.666"/>
			<path fill="none" stroke="#540404" stroke-linecap="round" stroke-miterlimit="10" d="M89.224,151.514
				c0,0,1.813,3.541,7.375,0.541"/>
			<path fill="#F1C119" d="M90.479,154.695c0,0-0.797-0.644-0.881-0.353c-0.083,0.293-1.417,4.666-0.125,5.709
				c0,0,3.75,0.25,5,0.584c0,0-0.5-4.709-0.25-5.084S91.194,154.961,90.479,154.695z"/>
			<path fill="#D1A109" d="M94.495,177.408c0,0-1.458,1.709-2.375,7.168c0,0,3.375-0.166,4.417-0.979L94.495,177.408z"/>
			<path fill="#D0D2D3" d="M98.724,133.887c0,0,1.5-1.998,2.25-0.666c0.75,1.334-0.25,3.334,1.167,4.416
				c1.417,1.084-3.083-1.166-3.083-1.166L98.724,133.887z"/>
			<path fill="#D0D2D3" d="M87.583,133.887c0,0-1.5-1.998-2.25-0.666c-0.75,1.334,0.25,3.334-1.167,4.416
				c-1.417,1.084,3.083-1.166,3.083-1.166L87.583,133.887z"/>
			<path fill="#F1C119" d="M94.286,176.93c0,0,0.563,6.625,2.25,7.563c0,0,19.938,6.625,33.875,1.813c0,0,0.813-2.313,0.75-8.125
				C131.161,178.18,114.786,183.492,94.286,176.93z"/>
			<path fill="#111010" d="M99.757,146.141c0,0.857-0.505,1.558-1.129,1.558H86.946c-0.624,0-1.129-0.697-1.129-1.558v-23.02
				c0-0.859,0.505-1.555,1.129-1.555h11.682c0.624,0,1.129,0.695,1.129,1.555V146.141z"/>
			<path fill="#FFFFFF" d="M104.807,142.887c0,0-1-6.5-5.5-7c0,0-3.667-0.332-4.333,0.918c0,0-0.833,1.582,0.917,1.832
				s3.417,0.334,3.917,0.75c0,0-5.5-0.332-7,1.418c0,0-0.917,2.082,1.25,2.332s6.75-1.082,6.75,0.25
				c0,1.334,1.833,5.334,4.833,2.668C108.64,143.387,104.807,142.887,104.807,142.887z"/>
			<path fill="#F1C119" d="M82.071,138.113c0,0-0.394-0.523-1.701-0.523c-1.309,0-4.187,0.131-4.776-0.262
				c0,0-0.785-0.523-1.374,0.066c-0.589,0.588-4.318,9.42-2.225,20.086c0,0,6.739,2.024,10.403,1.375"/>
			<path fill="#D1A311" d="M83.146,138.928c-0.464-0.762-2.447-2.344-3.977,0.586c-1.53,2.928-3.212,18.351,2.448,19.455
				c5.66,1.105,3.961-11.961,3.824-12.428C85.261,145.93,84.209,140.672,83.146,138.928z"/>
			<path fill="#9E7902" d="M82.832,139.607c-0.367-0.707-1.933-2.174-3.141,0.545c-1.208,2.717-2.537,17.033,1.933,18.061
				c4.47,1.028,3.045-11.102,3.02-11.537C84.606,146.023,83.671,141.227,82.832,139.607z"/>
			<path fill="#FFFFFF" d="M78.621,145.383c0.161-1.311,0.36-2.48,0.575-3.418c1.144,0.018,2.097-0.098,2.097-0.098l-0.438,3.625
				C80.071,145.678,79.307,145.592,78.621,145.383z"/>
			<path fill="#FFFFFF" d="M80.835,142.137c0,0,1-6.5,5.5-7c0,0,3.667-0.332,4.333,0.918c0,0,0.833,1.582-0.917,1.832
				s-3.417,0.334-3.917,0.75c0,0,5.5-0.332,7,1.418c0,0,0.917,2.082-1.25,2.332s-6.75-1.082-6.75,0.25
				c0,1.334-1.833,5.334-4.833,2.668C77.002,142.637,80.835,142.137,80.835,142.137z"/>
			<circle fill="#443E3E" cx="92.578" cy="123.408" r="0.938"/>
			<path fill="#D0D2D3" d="M192.307,109.97c-7.166-0.167-13.562-17.848-21.332,0.167c-7.334,17,0.795,49.355-18.326,59.671
				c0.97-0.199,1.936-0.498,2.852-0.938c1.061-0.426,1.941-1.115,2.855-1.77c0.797-0.736,1.664-1.478,2.283-2.332
				c2.709-3.354,4.166-7.197,5.241-11.011c0.304-0.959,0.509-1.918,0.72-2.883l0.319-1.448l0.08-0.363l0.075-0.383l0.129-0.728
				c0.33-2,0.566-3.845,0.82-5.726c0.977-7.446,2.026-14.768,3.688-21.309c0.828-3.257,1.807-6.313,2.98-8.911
				c1.15-2.589,2.606-4.709,3.91-5.688c0.646-0.5,1.187-0.727,1.688-0.807c0.499-0.089,1.023-0.069,1.635,0.077
				c1.225,0.29,2.577,1.039,3.645,1.789c1.084,0.739,1.935,1.482,2.506,1.984c0.568,0.521,0.874,0.801,0.874,0.801l0.133,0.122
				c0.047,0.042,0.095,0.084,0.146,0.125c2.11,1.78,5.27,1.511,7.051-0.603c1.584-1.881,1.535-4.582,0.019-6.41
				C196.831,106.341,196.672,110.072,192.307,109.97z"/>
		</g>
		<g>
			<g>
				<path fill="#D0D2D3" d="M93.725,55.796c4.448,0,9.651,0.935,15.348,3.67c0.998-0.876,2.302-1.412,3.734-1.412
					c3.129,0,5.667,2.537,5.667,5.667c0,0.729-0.142,1.42-0.392,2.061c1.498,1.558,2.883,3.384,3.989,5.48
					c1.747-0.67,3.234-1.014,4.498-1.127c0.013-0.001,0.021-0.002,0.033-0.003c0.199-0.018,0.396-0.028,0.584-0.035
					c0.021-0.001,0.041-0.002,0.062-0.002c0.092-0.002,0.185-0.004,0.271-0.004c0.088,0,0.176,0.001,0.262,0.004
					c0.021,0,0.046,0.001,0.066,0.001c0.172,0.006,0.336,0.017,0.496,0.031c0.021,0.001,0.041,0.003,0.063,0.005
					c0.162,0.016,0.316,0.036,0.47,0.06c0.019,0.002,0.033,0.005,0.05,0.008c0.153,0.025,0.303,0.054,0.445,0.087
					c0.011,0.002,0.021,0.004,0.029,0.007c0.146,0.035,0.293,0.073,0.432,0.115c0.001,0,0.001,0,0.002,0
					c1.29,0.393,2.139,1.078,2.671,1.697c0.005,0.005,0.011,0.011,0.017,0.016c0.053,0.061,0.103,0.121,0.146,0.181
					c0.008,0.01,0.019,0.021,0.022,0.03c0.043,0.056,0.084,0.11,0.121,0.164c0.01,0.013,0.02,0.025,0.024,0.038
					c0.035,0.05,0.067,0.099,0.101,0.146c0.01,0.015,0.02,0.029,0.026,0.044c0.026,0.044,0.056,0.086,0.077,0.127
					c0.01,0.016,0.02,0.03,0.025,0.045c0.021,0.039,0.043,0.076,0.063,0.112c0.007,0.014,0.016,0.026,0.021,0.039
					c0.019,0.034,0.033,0.066,0.049,0.096c0.007,0.013,0.012,0.024,0.018,0.036c0.014,0.026,0.023,0.052,0.034,0.074
					c0.007,0.014,0.011,0.024,0.017,0.036c0.008,0.017,0.016,0.034,0.021,0.047c0.005,0.014,0.009,0.022,0.013,0.032
					c0.003,0.008,0.007,0.017,0.011,0.022c0.004,0.011,0.006,0.018,0.006,0.018c0.138,0.28,0.238,0.564,0.33,0.851
					c0.016,0.046,0.026,0.092,0.041,0.138c1.105,3.85-1.766,8.201-4.201,11.029c0.231,0.85,0.433,1.711,0.58,2.585
					c1.942,5.554,3.526,10.735,4.795,15.577c0.031-0.251,0.021-0.589-0.131-0.993c0,0,0.051-0.009,0.125-0.009
					c0.146,0,0.389,0.037,0.5,0.259c0.01,0.021,0.023,0.068,0.047,0.138c0.013,0.039,0.027,0.099,0.045,0.151
					c0.012,0.04,0.021,0.07,0.033,0.118c0.019,0.064,0.039,0.145,0.061,0.221c0.016,0.057,0.027,0.105,0.045,0.168
					c0.021,0.08,0.046,0.174,0.068,0.263c0.019,0.071,0.035,0.136,0.056,0.212c0.002,0.009,0.004,0.016,0.006,0.024l0,0
					c0.177,0.688,0.396,1.566,0.606,2.433l0.99,3.813c-0.01,0.015-0.021,0.03-0.026,0.045c0.001,0.001,0.001,0.001,0.001,0.002
					c1.066,3.578,7.924,27.821,3.773,45.748c-0.013,0.049-0.021,0.096-0.031,0.146c-0.166,0.711-0.348,1.414-0.549,2.104
					c0,0-0.553,0.647-2.016,0.971c0.528,0.367,1.063,0.733,1.628,1.092c0.657,0.414,1.331,0.818,2.041,1.201
					c1.14,0.585,2.333,1.16,3.569,1.547c1.232,0.434,2.502,0.652,3.706,0.672c0.088,0.003,0.174,0.005,0.261,0.005
					c1.115,0,2.135-0.271,3.064-0.771c0.527-0.205,0.974-0.646,1.463-0.988c0.431-0.482,0.921-0.869,1.303-1.479
					c1.66-2.216,2.816-5.354,3.582-8.683c0.229-0.815,0.371-1.685,0.521-2.547l0.229-1.297l0.06-0.324l0.049-0.308l0.09-0.662
					c0.209-1.709,0.377-3.604,0.549-5.461c0.671-7.5,1.428-15.147,2.938-22.362c0.762-3.611,1.7-7.125,3.049-10.482
					c0.674-1.678,1.461-3.319,2.445-4.896c0.987-1.571,2.152-3.098,3.694-4.412c1.511-1.315,3.425-2.384,5.438-2.863
					c1.063-0.266,2.114-0.376,3.111-0.376c0.887,0,1.729,0.087,2.496,0.229c3.285,0.644,5.479,1.923,7.158,2.95
					c1.681,1.052,2.816,1.977,3.599,2.604c0.759,0.638,1.162,0.979,1.162,0.979c0.231,0.196,0.435,0.414,0.621,0.64l0,0
					c0.147,0.179,0.271,0.371,0.392,0.563c0.043,0.068,0.092,0.133,0.129,0.202c0.101,0.178,0.178,0.362,0.252,0.548
					c0.041,0.098,0.082,0.194,0.114,0.294c0.06,0.174,0.104,0.349,0.142,0.528c0.024,0.123,0.051,0.245,0.065,0.369
					c0.021,0.165,0.037,0.329,0.046,0.496c0.006,0.145,0.002,0.289-0.007,0.434c-0.007,0.151-0.016,0.3-0.036,0.45
					c-0.021,0.166-0.062,0.328-0.102,0.491c-0.032,0.131-0.061,0.261-0.104,0.39c-0.063,0.188-0.146,0.371-0.231,0.553
					c-0.048,0.099-0.083,0.201-0.138,0.297c-0.152,0.276-0.332,0.542-0.543,0.793c-0.988,1.175-2.403,1.78-3.828,1.78
					c-1.139,0-2.282-0.387-3.224-1.177c-0.048-0.041-0.096-0.083-0.143-0.125l-0.134-0.122c0,0-0.305-0.278-0.873-0.801
					c-0.571-0.502-1.422-1.245-2.504-1.984c-1.066-0.75-2.42-1.499-3.646-1.789c-0.368-0.088-0.706-0.13-1.023-0.13
					c-0.211,0-0.412,0.018-0.608,0.053c-0.501,0.08-1.04,0.307-1.688,0.807c-1.302,0.978-2.758,3.098-3.91,5.688
					c-1.176,2.599-2.15,5.654-2.979,8.911c-1.658,6.542-2.711,13.86-3.688,21.308c-0.254,1.882-0.49,3.726-0.819,5.726l-0.13,0.728
					l-0.074,0.385l-0.08,0.361l-0.318,1.448c-0.211,0.966-0.416,1.925-0.721,2.884c-1.074,3.813-2.531,7.655-5.24,11.01
					c-0.619,0.854-1.486,1.596-2.283,2.332c-0.914,0.651-1.799,1.344-2.856,1.77c-0.463,0.223-0.938,0.406-1.421,0.563
					c-1.027,0.34-2.08,0.539-3.107,0.611c0,0,0,0-0.002,0c-0.188,0.016-0.369,0.02-0.558,0.023c-0.185,0.007-0.366,0.011-0.55,0.011
					c-0.228,0-0.449-0.006-0.67-0.021c-2.021-0.117-3.865-0.574-5.479-1.207c-1.646-0.6-3.076-1.364-4.414-2.129
					c-2.638-1.569-4.793-3.256-6.619-4.813c-0.775-0.668-1.479-1.31-2.14-1.925c-0.521,6.142-0.628,12.599-0.601,17.558
					c0.733,0.084,1.222,0.64,1.222,0.64c0.063,5.813-0.75,8.125-0.75,8.125c-0.611,0.211-1.236,0.395-1.868,0.563
					c-0.413,0.155-0.818,0.283-1.221,0.385c0.219,0.729,0.314,1.557-0.008,2.275c-0.002,0.006-0.002,0.004-0.004,0.01
					c0.002,0.002,0.006,0.008,0.006,0.008l-0.055,3c-7.213,1.252-13.16,1.672-17.896,1.672c-9.655,0-14.271-1.744-14.271-1.744
					l0.027-0.594c-3.278,0.313-6.193,0.436-8.754,0.436c-9.655,0-14.272-1.743-14.272-1.743l0.167-3.656
					c0.043,0.024,0.106,0.048,0.156,0.069c-0.234-0.213-0.187-0.438,0.24-0.68c2.526-1.416,6.025-2.115,8.144-2.434
					c-0.785-0.18-1.348-0.373-1.582-0.563c-1.375-1.125-1.875-7-1.875-7s1.026-0.744,2.158-0.744c0.147,0,0.297,0.014,0.446,0.041
					c-0.624-5.896-0.136-11.813,0.619-16.623c-3.711-0.039-8.575-1.498-8.575-1.498c-0.266-1.354-0.437-2.682-0.533-3.965
					c-5.088-15.989,6.139-22.397,14.354-24.908V123.7C68.932,121.693,55.564,110.88,53,97.175c-0.29-1.336-0.448-2.707-0.448-4.105
					c0-0.124,0.01-0.245,0.012-0.368c-0.001-0.111-0.01-0.22-0.01-0.332c0-3.945,0.895-7.719,2.515-11.203
					c-0.001,0-0.011,0.002-0.011,0.002s-5.603-10.189,1.6-10.189c1.25,0,2.888,0.308,5.007,1.029
					c0.003,0.001,0.005,0.002,0.008,0.003c3.277-3.172,7.306-5.81,11.863-7.74c-0.475,0.068-0.729,0.114-0.729,0.114
					s0.312-0.399,0.865-0.966c-0.046,0.006-0.104,0.014-0.147,0.02c1.268-1.596,2.922-3.256,5.575-3.95
					C81.223,58.281,86.47,55.795,93.725,55.796 M99.524,122.183c0.833-0.291,1.782-0.631,2.826-1.021
					c0.003-0.004,0.006-0.006,0.009-0.008c-1.048,0.391-2.001,0.731-2.839,1.022C99.521,122.179,99.523,122.181,99.524,122.183
					 M93.725,54.796c-7.453,0-12.902,2.58-15.007,3.763c-2.936,0.808-4.734,2.697-5.976,4.261l-0.871,1.097
					c-3.952,1.823-7.461,4.159-10.454,6.959c-1.861-0.593-3.462-0.895-4.76-0.895c-2.417,0-3.545,1.05-4.066,1.931
					c-1.673,2.828,0.559,7.729,1.358,9.301c-1.59,3.579-2.396,7.33-2.396,11.158c0,0.075,0.003,0.15,0.006,0.225l0.004,0.12
					l-0.005,0.099c-0.004,0.085-0.007,0.17-0.007,0.256c0,1.426,0.158,2.879,0.471,4.317c2.579,13.781,16.002,24.875,32.795,27.192
					v3.295c-4.779,1.563-10.79,4.577-13.768,10.254c-2.271,4.329-2.464,9.569-0.575,15.578c0.105,1.343,0.287,2.677,0.54,3.966
					l0.116,0.593l0.578,0.174c0.184,0.057,4.14,1.23,7.708,1.49c-0.751,5.25-0.94,10.183-0.563,14.688
					c-1.116,0.188-1.982,0.798-2.093,0.878l-0.458,0.332l0.048,0.563c0.109,1.274,0.521,5.123,1.651,6.979
					c-1.959,0.435-4.096,1.087-5.831,2.062c-0.077,0.043-0.15,0.088-0.217,0.137l-0.613-0.361l-0.076,1.661l-0.167,3.655
					l-0.033,0.727l0.679,0.256c0.196,0.074,4.9,1.809,14.626,1.809c2.455,0,5.042-0.11,7.704-0.334l-0.008,0.173l0.678,0.258
					c0.195,0.073,4.898,1.81,14.624,1.81c5.541,0,11.62-0.566,18.066-1.686l0.813-0.143l0.016-0.826l0.053-2.852
					c0.19-0.542,0.248-1.129,0.174-1.765c0.119-0.041,0.238-0.083,0.357-0.13c0.729-0.191,1.327-0.375,1.889-0.566l0.457-0.158
					l0.16-0.455c0.037-0.102,0.871-2.547,0.81-8.468l-0.004-0.368l-0.243-0.277c-0.055-0.063-0.402-0.444-0.977-0.717
					c-0.014-3.944,0.063-9.345,0.438-14.703c0.218,0.189,0.433,0.379,0.649,0.563c1.48,1.267,3.795,3.149,6.759,4.915
					c1.368,0.781,2.858,1.582,4.584,2.209c1.838,0.725,3.784,1.15,5.762,1.268c0.228,0.019,0.478,0.022,0.729,0.022
					c0.19,0,0.39-0.004,0.586-0.012l0.08-0.003c0.17-0.006,0.339-0.012,0.512-0.022c1.146-0.082,2.273-0.305,3.352-0.661
					c0.521-0.166,1.03-0.365,1.51-0.594c1.021-0.416,1.865-1.025,2.687-1.617l0.354-0.252l0.051-0.037l0.048-0.044l0.376-0.345
					c0.709-0.646,1.441-1.318,2.021-2.112c3.012-3.735,4.474-8.024,5.408-11.347c0.295-0.932,0.504-1.887,0.704-2.813l0.028-0.129
					l0.318-1.447l0.08-0.363l0.08-0.405l0.131-0.743c0.293-1.77,0.518-3.432,0.729-5.037l0.099-0.729
					c0.926-7.061,1.971-14.509,3.666-21.194c0.879-3.459,1.862-6.402,2.922-8.745c1.071-2.407,2.451-4.436,3.603-5.3
					c0.614-0.475,1.004-0.58,1.244-0.619c0.157-0.028,0.302-0.041,0.448-0.041c0.244,0,0.506,0.034,0.793,0.104
					c0.938,0.222,2.143,0.817,3.305,1.634c1.057,0.721,1.876,1.441,2.418,1.917l0.855,0.787l0.133,0.121
					c0.061,0.053,0.113,0.101,0.171,0.148c1.087,0.917,2.459,1.418,3.87,1.418c1.774,0,3.449-0.778,4.596-2.135
					c0.243-0.29,0.456-0.601,0.648-0.952c0.051-0.089,0.095-0.182,0.133-0.276l0.033-0.078c0.088-0.188,0.196-0.417,0.279-0.667
					c0.041-0.125,0.072-0.25,0.104-0.377l0.021-0.088c0.051-0.198,0.096-0.395,0.121-0.596c0.023-0.175,0.037-0.354,0.045-0.539
					c0.01-0.173,0.014-0.346,0.006-0.52c-0.009-0.198-0.025-0.394-0.053-0.59c-0.021-0.153-0.05-0.298-0.081-0.444
					c-0.051-0.238-0.104-0.44-0.168-0.632c-0.034-0.102-0.073-0.201-0.114-0.301l-0.022-0.057c-0.082-0.205-0.179-0.429-0.304-0.656
					c-0.035-0.063-0.076-0.128-0.119-0.192l-0.03-0.048c-0.138-0.221-0.285-0.452-0.476-0.68c-0.256-0.31-0.494-0.554-0.746-0.766
					l-1.162-0.979l-0.103-0.082c-0.771-0.62-1.938-1.558-3.61-2.604c-1.883-1.152-4.159-2.43-7.496-3.083
					c-0.893-0.165-1.793-0.248-2.688-0.248c-1.148,0-2.277,0.137-3.355,0.406c-2.049,0.487-4.133,1.581-5.854,3.079
					c-1.425,1.213-2.662,2.688-3.885,4.634c-0.938,1.501-1.766,3.155-2.527,5.056c-1.227,3.055-2.211,6.438-3.101,10.648
					c-1.521,7.271-2.292,15.094-2.953,22.479l-0.05,0.539c-0.151,1.651-0.309,3.36-0.495,4.891l-0.089,0.648l-0.045,0.285
					l-0.055,0.301l-0.23,1.299l-0.031,0.181c-0.141,0.804-0.271,1.563-0.47,2.274c-0.824,3.591-2.003,6.461-3.419,8.353
					l-0.024,0.033l-0.022,0.032c-0.196,0.319-0.445,0.569-0.733,0.859c-0.131,0.133-0.262,0.264-0.39,0.4
					c-0.131,0.095-0.258,0.193-0.385,0.294c-0.274,0.219-0.539,0.425-0.77,0.514l-0.059,0.022l-0.056,0.029
					c-0.813,0.437-1.661,0.646-2.594,0.646c-0.074,0-0.146-0.001-0.226-0.004c-1.141-0.02-2.313-0.229-3.412-0.616
					c-1.215-0.379-2.368-0.938-3.441-1.489c-0.584-0.313-1.214-0.688-1.965-1.158c-0.014-0.012-0.023-0.02-0.039-0.024
					c0.391-0.25,0.591-0.472,0.652-0.544l0.138-0.161l0.062-0.203c0.188-0.646,0.375-1.351,0.563-2.157l0.023-0.113
					c4.062-17.54-2.09-40.503-3.67-45.899l0.021-0.033l-0.093-0.348v-0.137l-0.049-0.048l-0.945-3.65
					c-0.209-0.857-0.432-1.738-0.605-2.43l-0.043-0.163l-0.021-0.078l-0.07-0.271l-0.021-0.078l-0.021-0.082l-0.025-0.104
					l-0.037-0.132l-0.037-0.133l-0.047-0.161c-0.049-0.156-0.092-0.256-0.114-0.302c-0.177-0.35-0.481-0.603-0.861-0.724
					c-1.211-4.447-2.67-9.115-4.346-13.906c-0.117-0.678-0.267-1.365-0.45-2.086c2.582-3.099,5.229-7.491,4.063-11.554
					c-0.014-0.047-0.029-0.107-0.049-0.166c-0.113-0.359-0.229-0.661-0.363-0.941l-0.006-0.015l-0.008-0.018l-0.021-0.049
					l-0.011-0.021l-0.047-0.104l-0.026-0.059l-0.074-0.151l-0.001-0.002l-0.023-0.046c-0.021-0.045-0.051-0.092-0.078-0.141
					l-0.049-0.085c-0.011-0.017-0.043-0.07-0.076-0.125l-0.877,0.484l0.846-0.535c-0.033-0.053-0.069-0.107-0.107-0.162
					l-0.012-0.018l-0.033-0.045c-0.039-0.056-0.08-0.113-0.125-0.171l-0.008-0.011l-0.049-0.06c-0.047-0.06-0.105-0.135-0.172-0.21
					c-0.797-0.923-1.854-1.605-3.072-1.992l-0.141-0.068h-0.088c-0.111-0.031-0.229-0.061-0.349-0.088l-0.022-0.006l-0.055-0.011
					c-0.117-0.028-0.287-0.061-0.463-0.09l-0.066-0.011c-0.158-0.025-0.332-0.047-0.515-0.065l-0.089-0.008
					c-0.158-0.015-0.345-0.026-0.535-0.033l-0.076-0.001c-0.092-0.003-0.188-0.004-0.285-0.004c-0.1,0-0.197,0.001-0.299,0.004
					l-0.084,0.003c-0.188,0.006-0.402,0.018-0.621,0.037c-1.241,0.111-2.567,0.411-3.979,0.895
					c-0.914-1.588-2.024-3.096-3.313-4.498c0.168-0.592,0.253-1.198,0.253-1.811c0-3.676-2.991-6.667-6.667-6.667
					c-1.391,0-2.741,0.438-3.868,1.243C103.913,55.974,98.798,54.796,93.725,54.796L93.725,54.796z"/>
			</g>
		</g>
	</g>
</g>
<g>
	<polygon fill="#CCEEFF" points="36.477,115.803 30.079,67.623 75.334,64.754 67.346,36.079 133.106,36.073 193.038,35.5 
		175.524,65.328 226.255,69.343 213.061,118.673 	"/>
	<g>
		<path fill="#F7F7F7" d="M156.101,184.02c-0.102-0.908-0.83-1.612-1.715-1.612c-0.886,0-1.613,0.704-1.714,1.612h-0.025v6.446
			h3.454v-6.022c0.009-0.067,0.013-0.139,0.013-0.21s-0.004-0.143-0.013-0.212V184.02z"/>
		<path fill="#F7F7F7" d="M149.01,184.02c-0.101-0.908-0.83-1.612-1.715-1.612c-0.886,0-1.613,0.704-1.715,1.612h-0.025v6.446h3.455
			v-6.022c0.009-0.067,0.013-0.139,0.013-0.21s-0.004-0.143-0.013-0.212V184.02z"/>
		<path fill="#F7F7F7" d="M170.282,184.02c-0.101-0.908-0.829-1.612-1.715-1.612s-1.612,0.704-1.715,1.612h-0.024v6.446h3.454
			v-6.022c0.008-0.067,0.013-0.139,0.013-0.21s-0.005-0.143-0.013-0.212V184.02z"/>
		<path fill="#F7F7F7" d="M163.191,184.02c-0.101-0.908-0.83-1.612-1.715-1.612c-0.886,0-1.613,0.704-1.714,1.612h-0.025v6.446
			h3.454v-6.022c0.009-0.067,0.013-0.139,0.013-0.21s-0.004-0.143-0.013-0.212V184.02z"/>
		<path fill="#F7F7F7" d="M120.646,184.02c-0.101-0.908-0.831-1.612-1.716-1.612c-0.885,0-1.613,0.704-1.713,1.612h-0.026v6.446
			h3.455v-6.022c0.009-0.067,0.012-0.139,0.012-0.21s-0.003-0.143-0.012-0.212V184.02z"/>
		<path fill="#F7F7F7" d="M141.919,184.02c-0.102-0.908-0.831-1.612-1.716-1.612s-1.613,0.704-1.714,1.612h-0.025v6.446h3.455
			v-6.022c0.009-0.067,0.012-0.139,0.012-0.21s-0.003-0.143-0.012-0.212V184.02z"/>
		<path fill="#CCEEFF" d="M51.161,169.746c-0.058-15.69,16.947-24.389,16.947-24.389c7.173-3.053,9.604-6.912,10.362-8.605v-2.879
			h-0.604c-0.525,0-0.968-0.338-1.135-0.807h-0.175c-0.667,0-1.208-0.541-1.208-1.208v-0.403c0-0.667,0.541-1.208,1.208-1.208h0.101
			c0-0.668,0.542-1.21,1.209-1.21h0.604v-7.071c-0.516-0.095-0.907-0.545-0.907-1.087c0-0.543,0.391-0.994,0.907-1.088v-2.693
			c-1.034-0.122-1.967-0.797-2.364-1.836c-0.569-1.491,0.177-3.16,1.667-3.73c0.48-0.184,0.979-0.229,1.453-0.158
			c-0.23,0.017-0.461,0.066-0.687,0.153c-1.26,0.481-1.891,1.892-1.409,3.152c0.481,1.259,1.893,1.889,3.151,1.407
			c0.624-0.238,1.093-0.705,1.349-1.268c-0.194,0.93-0.841,1.745-1.794,2.11c-0.25,0.096-0.506,0.151-0.761,0.175v2.688
			c0.515,0.095,0.906,0.545,0.906,1.088c0,0.542-0.391,0.992-0.906,1.087v7.071h0.604c0.668,0,1.209,0.542,1.209,1.21h0.101
			c0.668,0,1.209,0.541,1.209,1.208v0.403c0,0.667-0.541,1.208-1.209,1.208h-0.175c-0.166,0.469-0.609,0.807-1.135,0.807h-0.604
			v2.879c0.758,1.693,3.189,5.553,10.362,8.605c0,0,17.006,8.698,16.948,24.389c0.015,0.1,0.024,0.2,0.024,0.304v7.423h2.363v1.307
			h1.978v-1.307h2.363v1.307h1.977v-1.307h2.363v1.307h1.978v-1.307h2.364v1.307h1.976v-1.307h2.364v1.307h1.976v-1.307h2.365v1.307
			h1.976v-1.307h2.364v1.307h1.977v-1.307h2.363v1.307h1.978v-1.307h2.363v1.307h1.977v-1.307h2.364v1.307h1.977v-1.307h2.363v1.307
			h1.977v-1.307h2.364v1.307h1.978v-1.307h2.362v1.307h1.977v-1.307h2.364v1.307h1.978v-1.307h2.363v1.307h1.977v-1.307h2.364
			V148.69h-5.005v-1.809h2.851v-0.973h2.154v-13.76h-2.295v-1.668h-2.71v-2.225h2.88c0.124-7.983,8.769-12.405,8.769-12.405
			c3.646-1.551,4.924-3.505,5.34-4.404h-1.88v-0.73h0.387c-0.063-0.098-0.102-0.213-0.102-0.339v-0.208
			c0-0.345,0.28-0.625,0.626-0.625h0.053c0-0.344,0.28-0.625,0.626-0.625h0.312v-7.818c0-0.086,0.07-0.156,0.156-0.156
			c0.087,0,0.156,0.07,0.156,0.156v7.818h0.313c0.345,0,0.626,0.281,0.626,0.625h0.051c0.346,0,0.626,0.281,0.626,0.625v0.208
			c0,0.125-0.037,0.241-0.102,0.339h0.389v0.73h-1.88c0.415,0.899,1.694,2.854,5.339,4.404c0,0,8.646,4.422,8.769,12.405h2.879
			v2.225h-2.71v1.668h-2.294v13.76h2.155v0.973h2.849v1.809h-5.004v36.337c11.831-15.336,18.873-34.556,18.873-55.423
			c0-50.159-40.662-90.82-90.82-90.82c-50.159,0-90.821,40.662-90.821,90.82c0,18.931,5.794,36.507,15.703,51.057V170.05
			C51.137,169.946,51.146,169.846,51.161,169.746z"/>
		<path fill="#F7F7F7" d="M113.555,184.02c-0.1-0.908-0.831-1.612-1.714-1.612c-0.886,0-1.614,0.704-1.714,1.612h-0.026v6.446h3.454
			v-6.022c0.009-0.067,0.012-0.139,0.012-0.21s-0.003-0.143-0.012-0.212V184.02z"/>
		<path fill="#F7F7F7" d="M134.828,184.02c-0.101-0.908-0.83-1.612-1.715-1.612c-0.886,0-1.613,0.704-1.714,1.612h-0.027v6.446
			h3.456v-6.022c0.008-0.067,0.012-0.139,0.012-0.21s-0.004-0.143-0.012-0.212V184.02z"/>
		<path fill="#F7F7F7" d="M127.736,184.02c-0.1-0.908-0.829-1.612-1.715-1.612c-0.885,0-1.612,0.704-1.713,1.612h-0.025v6.446h3.453
			v-6.022c0.009-0.067,0.014-0.139,0.014-0.21s-0.005-0.143-0.014-0.212V184.02z"/>
		<path fill="#FFCC77" d="M106.455,203.314h-0.046H84.543v-11.772h-0.061c0.167-3.385-3.511-5.266-3.511-5.266
			c-1.847-0.786-2.175-1.819-2.208-1.941l-0.001-0.024c0,0-0.003,0.009-0.003,0.01c0-0.001-0.003-0.01-0.003-0.01l-0.001,0.024
			c-0.033,0.12-0.36,1.154-2.209,1.941c0,0-3.677,1.881-3.51,5.266V203.2c14.956,10.834,33.34,17.226,53.22,17.226
			c19.81,0,38.135-6.347,53.062-17.111h-5.438H106.455z"/>
		<path fill="#F7F7F7" d="M196.39,135.354c0.008-0.102,0.012-0.206,0.012-0.313c0-0.106-0.004-0.212-0.012-0.314v-0.005
			c-0.098-1.349-0.805-2.396-1.665-2.396c-0.858,0-1.565,1.048-1.662,2.396h-0.024v9.587h3.352V135.354z"/>
		<path fill="#F7F7F7" d="M190.551,135.354c0.009-0.102,0.014-0.206,0.014-0.313c0-0.106-0.005-0.212-0.014-0.314v-0.005
			c-0.096-1.349-0.806-2.396-1.663-2.396c-0.858,0-1.565,1.048-1.663,2.396h-0.025v9.587h3.352V135.354z"/>
		<path fill="#F7F7F7" d="M178.875,134.721c-0.098-1.349-0.805-2.396-1.662-2.396c-0.861,0-1.566,1.048-1.663,2.396h-0.025v9.587
			h3.351v-8.954c0.01-0.102,0.013-0.206,0.013-0.313c0-0.106-0.003-0.212-0.013-0.314V134.721z"/>
		<path fill="#F7F7F7" d="M184.713,134.721c-0.097-1.349-0.806-2.396-1.663-2.396c-0.859,0-1.564,1.048-1.663,2.396h-0.024v9.587
			h3.351v-8.954c0.009-0.102,0.012-0.206,0.012-0.313c0-0.106-0.003-0.212-0.012-0.314V134.721z"/>
		<path fill="#0F75BC" d="M198.203,185.027V148.69h5.004v-1.809h-2.849v-0.973h-2.155v-13.76h2.294v-1.668h2.71v-2.225h-2.879
			c-0.123-7.983-8.769-12.405-8.769-12.405c-3.645-1.551-4.924-3.505-5.339-4.404h1.88v-0.73h-0.389
			c0.064-0.098,0.102-0.213,0.102-0.339v-0.208c0-0.345-0.28-0.625-0.626-0.625h-0.051c0-0.344-0.281-0.625-0.626-0.625h-0.313
			v-7.818c0-0.086-0.069-0.156-0.156-0.156c-0.086,0-0.156,0.07-0.156,0.156v7.818h-0.312c-0.346,0-0.626,0.281-0.626,0.625h-0.053
			c-0.346,0-0.626,0.281-0.626,0.625v0.208c0,0.125,0.039,0.241,0.102,0.339h-0.387v0.73h1.88c-0.416,0.899-1.694,2.854-5.34,4.404
			c0,0-8.645,4.422-8.769,12.405h-2.88v2.225h2.71v1.668h2.295v13.76h-2.154v0.973h-2.851v1.809h5.005v28.782v1.307v1.193v23.342
			h5.438C186.463,198.162,192.828,191.996,198.203,185.027z"/>
		<path fill="#77D4FF" d="M171.516,178.779h-1.977v-1.307h-2.363v1.307h-1.978v-1.307h-2.364v1.307h-1.977v-1.307h-2.362v1.307
			h-1.978v-1.307h-2.364v1.307h-1.977v-1.307h-2.363v1.307h-1.977v-1.307h-2.364v1.307h-1.977v-1.307h-2.363v1.307h-1.978v-1.307
			h-2.363v1.307h-1.977v-1.307h-2.364v1.307h-1.976v-1.307h-2.365v1.307h-1.976v-1.307h-2.364v1.307h-1.976v-1.307h-2.364v1.307
			h-1.978v-1.307h-2.363v1.307h-1.977v-1.307h-2.363v1.307h-1.978v-1.307h-2.363v1.307v1.193v17.418h0.046v5.924h67.425v-23.342
			v-1.193v-1.307h-2.364V178.779z"/>
		<polygon fill="#00AEEF" points="98.241,115.803 100.773,114.471 103.306,115.803 102.822,112.982 104.872,110.985 102.04,110.574 
			100.773,108.008 99.507,110.574 96.675,110.985 98.724,112.982 		"/>
		<polygon fill="#00AEEF" points="117.191,160.287 115.925,162.854 113.093,163.266 115.143,165.264 114.659,168.083 
			117.191,166.751 119.724,168.083 119.241,165.264 121.29,163.266 118.458,162.854 		"/>
		<polygon fill="#00AEEF" points="54.435,126.683 53.168,129.248 50.336,129.66 52.386,131.658 51.902,134.479 54.435,133.146 
			56.967,134.479 56.483,131.658 58.534,129.66 55.7,129.248 		"/>
		<path fill="#00AEEF" d="M147.965,158.578c8.518-3.257,14.295-10.542,16.033-18.854c-2.289,5.035-6.48,9.205-12.053,11.336
			c-11.252,4.304-23.856-1.33-28.161-12.579c-4.298-11.253,1.332-23.86,12.584-28.161c2.021-0.773,4.093-1.212,6.146-1.367
			c-4.24-0.632-8.695-0.229-12.984,1.413c-13.313,5.087-19.981,20.006-14.891,33.325
			C119.73,157.002,134.648,163.669,147.965,158.578z"/>
		<path fill="#00AEEF" d="M76.545,186.276c1.849-0.787,2.176-1.821,2.209-1.941l0.001-0.024c0,0,0.003,0.009,0.003,0.01
			c0-0.001,0.003-0.01,0.003-0.01l0.001,0.024c0.033,0.122,0.361,1.155,2.208,1.941c0,0,3.679,1.881,3.511,5.266h0.061v11.772
			h21.866v-5.924v-17.418v-1.193v-1.307v-7.423c0-0.104-0.009-0.204-0.024-0.304c0.058-15.69-16.948-24.389-16.948-24.389
			c-7.173-3.053-9.604-6.912-10.362-8.605v-2.879h0.604c0.525,0,0.969-0.338,1.135-0.807h0.175c0.668,0,1.209-0.541,1.209-1.208
			v-0.403c0-0.667-0.541-1.208-1.209-1.208h-0.101c0-0.668-0.541-1.21-1.209-1.21h-0.604v-7.071
			c0.515-0.095,0.906-0.545,0.906-1.087c0-0.543-0.391-0.994-0.906-1.088v-2.688c0.255-0.024,0.511-0.08,0.761-0.175
			c0.954-0.365,1.6-1.18,1.794-2.11c-0.256,0.563-0.725,1.03-1.349,1.268c-1.259,0.481-2.67-0.148-3.151-1.407
			c-0.481-1.26,0.149-2.671,1.409-3.152c0.226-0.086,0.457-0.136,0.687-0.153c-0.474-0.071-0.973-0.026-1.453,0.158
			c-1.489,0.57-2.236,2.239-1.667,3.73c0.397,1.04,1.331,1.715,2.364,1.836v2.693c-0.516,0.095-0.907,0.545-0.907,1.088
			c0,0.542,0.391,0.992,0.907,1.087v7.071h-0.604c-0.667,0-1.209,0.542-1.209,1.21h-0.101c-0.667,0-1.208,0.541-1.208,1.208v0.403
			c0,0.667,0.541,1.208,1.208,1.208h0.175c0.167,0.469,0.609,0.807,1.135,0.807h0.604v2.879c-0.758,1.693-3.189,5.553-10.362,8.605
			c0,0-17.005,8.698-16.947,24.389c-0.015,0.1-0.024,0.2-0.024,0.304v10.611c5.94,8.723,13.36,16.354,21.898,22.539v-11.658
			C72.868,188.157,76.545,186.276,76.545,186.276z M100.773,172.781h0.018c0.069-0.585,0.565-1.04,1.169-1.04
			s1.101,0.455,1.169,1.04v0.002c0.006,0.045,0.008,0.09,0.008,0.138c0,0.045-0.002,0.091-0.008,0.135v3.885h-2.356V172.781z
			 M96.14,172.715h0.017c0.07-0.585,0.565-1.04,1.169-1.04c0.603,0,1.101,0.455,1.169,1.04v0.002
			c0.006,0.044,0.009,0.09,0.009,0.136s-0.003,0.093-0.009,0.136v3.885H96.14V172.715z M91.506,172.646h0.018
			c0.069-0.585,0.565-1.04,1.168-1.04s1.101,0.455,1.169,1.04v0.002c0.006,0.045,0.009,0.091,0.009,0.137s-0.003,0.092-0.009,0.137
			v3.883h-2.355V172.646z M86.872,172.579h0.018c0.068-0.584,0.564-1.039,1.168-1.039c0.604,0,1.101,0.455,1.169,1.039v0.003
			c0.006,0.044,0.008,0.09,0.008,0.136c0,0.047-0.002,0.093-0.008,0.137v3.884h-2.355V172.579z M82.238,172.512h0.018
			c0.069-0.584,0.565-1.039,1.168-1.039c0.604,0,1.102,0.455,1.17,1.039v0.002c0.006,0.046,0.008,0.09,0.008,0.137
			c0,0.046-0.002,0.092-0.008,0.136v3.885h-2.356V172.512z M77.604,172.445h0.018c0.068-0.584,0.565-1.04,1.168-1.04
			s1.101,0.456,1.169,1.04v0.001c0.006,0.046,0.009,0.091,0.009,0.138c0,0.046-0.003,0.092-0.009,0.136v3.884h-2.355V172.445z
			 M56.79,172.383v3.885h-2.354v-4.159h0.017c0.069-0.584,0.565-1.039,1.169-1.039c0.603,0,1.101,0.455,1.169,1.039v0.002
			c0.006,0.046,0.009,0.09,0.009,0.137C56.798,172.293,56.796,172.339,56.79,172.383z M61.424,172.451v3.883h-2.355v-4.158h0.018
			c0.069-0.585,0.564-1.039,1.168-1.039s1.101,0.454,1.169,1.039v0.002c0.006,0.045,0.009,0.091,0.009,0.136
			C61.433,172.361,61.43,172.406,61.424,172.451z M66.058,172.518v3.884h-2.356v-4.158h0.018c0.069-0.585,0.565-1.039,1.168-1.039
			s1.101,0.454,1.17,1.039v0.002c0.005,0.045,0.008,0.091,0.008,0.137S66.063,172.474,66.058,172.518z M70.692,172.585v3.884h-2.356
			v-4.158h0.018c0.069-0.585,0.565-1.039,1.168-1.039c0.604,0,1.101,0.454,1.17,1.039v0.002c0.006,0.045,0.009,0.091,0.009,0.137
			S70.698,172.541,70.692,172.585z M72.97,172.378h0.017c0.069-0.585,0.565-1.04,1.169-1.04c0.604,0,1.101,0.455,1.169,1.04v0.001
			c0.006,0.046,0.008,0.091,0.008,0.138c0,0.045-0.002,0.092-0.008,0.135v3.885H72.97V172.378z"/>
		<rect x="106.409" y="197.391" fill="#00AEEF" width="0.046" height="5.924"/>
		<path fill="#0F75BC" d="M70.692,172.311c-0.069-0.585-0.566-1.039-1.17-1.039c-0.603,0-1.1,0.454-1.168,1.039h-0.018v4.158h2.356
			v-3.884c0.006-0.044,0.009-0.09,0.009-0.136s-0.003-0.092-0.009-0.137V172.311z"/>
		<path fill="#0F75BC" d="M66.058,172.243c-0.069-0.585-0.566-1.039-1.17-1.039s-1.1,0.454-1.168,1.039h-0.018v4.158h2.356v-3.884
			c0.005-0.044,0.008-0.09,0.008-0.136s-0.003-0.092-0.008-0.137V172.243z"/>
		<path fill="#0F75BC" d="M75.326,172.651c0.006-0.043,0.008-0.09,0.008-0.135c0-0.047-0.002-0.092-0.008-0.138v-0.001
			c-0.068-0.585-0.566-1.04-1.169-1.04c-0.604,0-1.1,0.455-1.169,1.04H72.97v4.158h2.355V172.651z"/>
		<path fill="#0F75BC" d="M79.959,172.72c0.006-0.044,0.009-0.09,0.009-0.136c0-0.047-0.003-0.092-0.009-0.138v-0.001
			c-0.068-0.584-0.565-1.04-1.169-1.04s-1.1,0.456-1.168,1.04h-0.018v4.158h2.355V172.72z"/>
		<path fill="#0F75BC" d="M61.424,172.176c-0.068-0.585-0.565-1.039-1.169-1.039s-1.1,0.454-1.168,1.039h-0.018v4.158h2.355v-3.883
			c0.006-0.045,0.009-0.09,0.009-0.138c0-0.045-0.003-0.091-0.009-0.136V172.176z"/>
		<path fill="#0F75BC" d="M56.79,172.108c-0.068-0.584-0.566-1.039-1.169-1.039c-0.604,0-1.1,0.455-1.169,1.039h-0.017v4.159h2.354
			v-3.885c0.006-0.044,0.009-0.09,0.009-0.136c0-0.047-0.002-0.091-0.009-0.137V172.108z"/>
		<path fill="#0F75BC" d="M98.495,172.988c0.006-0.043,0.009-0.09,0.009-0.136s-0.003-0.092-0.009-0.136v-0.002
			c-0.068-0.585-0.566-1.04-1.169-1.04c-0.604,0-1.1,0.455-1.169,1.04H96.14v4.158h2.355V172.988z"/>
		<path fill="#0F75BC" d="M84.594,172.786c0.006-0.044,0.008-0.09,0.008-0.136c0-0.047-0.002-0.091-0.008-0.137v-0.002
			c-0.068-0.584-0.566-1.039-1.17-1.039c-0.603,0-1.1,0.455-1.168,1.039h-0.018v4.159h2.356V172.786z"/>
		<path fill="#0F75BC" d="M103.129,173.056c0.006-0.044,0.008-0.09,0.008-0.135c0-0.048-0.002-0.093-0.008-0.138v-0.002
			c-0.069-0.585-0.566-1.04-1.169-1.04s-1.1,0.455-1.169,1.04h-0.018v4.159h2.356V173.056z"/>
		<path fill="#0F75BC" d="M93.861,172.922c0.006-0.045,0.009-0.091,0.009-0.137s-0.003-0.092-0.009-0.137v-0.002
			c-0.068-0.585-0.566-1.04-1.169-1.04s-1.1,0.455-1.168,1.04h-0.018v4.158h2.355V172.922z"/>
		<path fill="#0F75BC" d="M89.228,172.854c0.006-0.044,0.008-0.09,0.008-0.137c0-0.046-0.002-0.092-0.008-0.136v-0.003
			c-0.069-0.584-0.566-1.039-1.169-1.039c-0.604,0-1.1,0.455-1.168,1.039h-0.018v4.159h2.355V172.854z"/>
	</g>
	<path fill="#CCEEFF" d="M113.555,184.443v6.022h-3.454v-6.446h0.026c0.1-0.908,0.828-1.612,1.714-1.612
		c0.884,0,1.615,0.704,1.714,1.612v0.002c0.009,0.069,0.012,0.141,0.012,0.212S113.564,184.376,113.555,184.443z"/>
	<path fill="#CCEEFF" d="M120.646,184.443v6.022h-3.455v-6.446h0.026c0.101-0.908,0.829-1.612,1.713-1.612
		c0.885,0,1.615,0.704,1.716,1.612v0.002c0.009,0.069,0.012,0.141,0.012,0.212S120.655,184.376,120.646,184.443z"/>
	<path fill="#CCEEFF" d="M127.736,184.443v6.022h-3.453v-6.446h0.025c0.101-0.908,0.828-1.612,1.713-1.612
		c0.886,0,1.615,0.704,1.715,1.612v0.002c0.009,0.069,0.014,0.141,0.014,0.212S127.745,184.376,127.736,184.443z"/>
	<path fill="#CCEEFF" d="M134.828,184.443v6.022h-3.456v-6.446h0.027c0.101-0.908,0.828-1.612,1.714-1.612
		c0.885,0,1.614,0.704,1.715,1.612v0.002c0.008,0.069,0.012,0.141,0.012,0.212S134.836,184.376,134.828,184.443z"/>
	<path fill="#CCEEFF" d="M141.919,184.443v6.022h-3.455v-6.446h0.025c0.101-0.908,0.829-1.612,1.714-1.612s1.614,0.704,1.716,1.612
		v0.002c0.009,0.069,0.012,0.141,0.012,0.212S141.928,184.376,141.919,184.443z"/>
	<path fill="#CCEEFF" d="M149.01,184.443v6.022h-3.455v-6.446h0.025c0.102-0.908,0.829-1.612,1.715-1.612
		c0.885,0,1.614,0.704,1.715,1.612v0.002c0.009,0.069,0.013,0.141,0.013,0.212S149.019,184.376,149.01,184.443z"/>
	<path fill="#CCEEFF" d="M156.101,184.443v6.022h-3.454v-6.446h0.025c0.101-0.908,0.828-1.612,1.714-1.612
		c0.885,0,1.613,0.704,1.715,1.612v0.002c0.009,0.069,0.013,0.141,0.013,0.212S156.109,184.376,156.101,184.443z"/>
	<path fill="#CCEEFF" d="M163.191,184.443v6.022h-3.454v-6.446h0.025c0.101-0.908,0.828-1.612,1.714-1.612
		c0.885,0,1.614,0.704,1.715,1.612v0.002c0.009,0.069,0.013,0.141,0.013,0.212S163.2,184.376,163.191,184.443z"/>
	<path fill="#CCEEFF" d="M170.282,184.443v6.022h-3.454v-6.446h0.024c0.103-0.908,0.829-1.612,1.715-1.612s1.614,0.704,1.715,1.612
		v0.002c0.008,0.069,0.013,0.141,0.013,0.212S170.29,184.376,170.282,184.443z"/>
	<path fill="#CCEEFF" d="M193.038,134.721h0.024c0.097-1.349,0.804-2.396,1.662-2.396c0.86,0,1.567,1.048,1.665,2.396v0.005
		c0.008,0.103,0.012,0.208,0.012,0.314c0,0.107-0.004,0.212-0.012,0.313v8.954h-3.352V134.721z"/>
	<path fill="#CCEEFF" d="M178.875,135.354v8.954h-3.351v-9.587h0.025c0.097-1.349,0.802-2.396,1.663-2.396
		c0.857,0,1.564,1.048,1.662,2.396v0.005c0.01,0.103,0.013,0.208,0.013,0.314C178.888,135.147,178.885,135.252,178.875,135.354z"/>
	<path fill="#CCEEFF" d="M184.713,135.354v8.954h-3.351v-9.587h0.024c0.099-1.349,0.804-2.396,1.663-2.396
		c0.857,0,1.566,1.048,1.663,2.396v0.005c0.009,0.103,0.012,0.208,0.012,0.314C184.725,135.147,184.722,135.252,184.713,135.354z"/>
	<path fill="#CCEEFF" d="M187.199,134.721h0.025c0.098-1.349,0.805-2.396,1.663-2.396c0.857,0,1.567,1.048,1.663,2.396v0.005
		c0.009,0.103,0.014,0.208,0.014,0.314c0,0.107-0.005,0.212-0.014,0.313v8.954h-3.352V134.721z"/>
	<g>
		<path fill="#00AEEF" d="M98.404,43.174v22.495h-4.329v-9.682h-7.664v9.682h-4.329V43.174h4.329v8.98h7.664v-8.98H98.404z"/>
		<path fill="#00AEEF" d="M112.973,43.174l6.289,22.495h-4.534l-1.609-5.938h-6.026l-1.55,5.938h-4.388l6.377-22.495H112.973z
			 M107.708,56.455h4.797l-1.346-5.119c-0.351-1.404-0.731-3.218-1.023-4.593h-0.088c-0.292,1.404-0.673,3.247-0.995,4.563
			L107.708,56.455z"/>
		<path fill="#00AEEF" d="M122.189,65.669V43.467c1.404-0.263,3.334-0.468,5.821-0.468c2.838,0,4.973,0.556,6.406,1.785
			c1.345,1.141,2.164,2.954,2.164,5.031c0,6.172-5.147,7.547-8.512,7.547c-0.614,0-1.141-0.029-1.58-0.117v8.424H122.189z
			 M126.488,53.852c0.41,0.087,0.878,0.117,1.521,0.117c2.691,0,4.271-1.521,4.271-3.949c0-2.399-1.522-3.656-3.92-3.656
			c-0.878,0-1.492,0.087-1.873,0.175V53.852z"/>
		<path fill="#00AEEF" d="M139.741,65.669V43.467c1.404-0.263,3.335-0.468,5.821-0.468c2.837,0,4.973,0.556,6.406,1.785
			c1.346,1.141,2.164,2.954,2.164,5.031c0,6.172-5.147,7.547-8.512,7.547c-0.614,0-1.141-0.029-1.58-0.117v8.424H139.741z
			 M144.041,53.852c0.41,0.087,0.878,0.117,1.521,0.117c2.69,0,4.271-1.521,4.271-3.949c0-2.399-1.521-3.656-3.92-3.656
			c-0.877,0-1.491,0.087-1.872,0.175V53.852z"/>
		<path fill="#00AEEF" d="M167.853,43.174h4.769l-6.67,13.192v9.302h-4.329v-9.156l-6.376-13.339h4.826l2.224,5.529
			c0.644,1.609,1.169,3.013,1.696,4.563h0.059c0.438-1.492,0.994-2.954,1.638-4.592L167.853,43.174z"/>
		<path fill="#0F75BC" d="M54.414,96.785v4.161h-14.43V75.14h13.893v4.161h-8.926v6.242h8.423v4.061h-8.423v7.182H54.414z"/>
		<path fill="#0F75BC" d="M58.239,100.946V75.14h4.966v25.806H58.239z"/>
		<path fill="#0F75BC" d="M68.238,75.476c1.812-0.335,4.161-0.537,6.678-0.537c4.295,0,7.215,0.906,9.362,2.685
			c2.45,2.013,3.893,5.202,3.893,9.866c0,5.537-1.912,8.759-3.893,10.537c-2.349,2.114-5.939,3.154-10.436,3.154
			c-2.383,0-4.295-0.167-5.604-0.335V75.476z M73.171,97.12c0.503,0.101,1.242,0.101,1.913,0.101
			c4.732,0.034,7.886-2.886,7.886-9.665c0-5.839-2.853-8.725-7.45-8.725c-1.041,0-1.812,0.101-2.349,0.202V97.12z"/>
		<path fill="#0F75BC" d="M110.854,75.14l7.215,25.806h-5.201l-1.846-6.812h-6.913l-1.778,6.812h-5.034l7.315-25.806H110.854z
			 M104.814,90.375h5.503l-1.543-5.873c-0.403-1.611-0.839-3.691-1.175-5.268h-0.1c-0.336,1.611-0.772,3.725-1.141,5.234
			L104.814,90.375z"/>
		<path fill="#0F75BC" d="M135.618,96.751v4.194h-14.194V75.14h4.967v21.611H135.618z"/>
		<path fill="#0F75BC" d="M137.564,92.422v-3.423h9.194v3.423H137.564z"/>
		<path fill="#0F75BC" d="M155.383,100.946h-4.967V75.14h13.826v4.161h-8.859v6.812h8.255v4.061h-8.255V100.946z"/>
		<path fill="#0F75BC" d="M168.436,100.946V75.14h4.967v25.806H168.436z"/>
		<path fill="#0F75BC" d="M194.038,75.14v4.295h-6.376v21.51h-4.966v-21.51h-6.343V75.14H194.038z"/>
		<path fill="#0F75BC" d="M196.957,75.476c1.711-0.302,4.128-0.537,6.645-0.537c3.255,0,9.832,0.402,9.832,7.315
			c0,3.154-2.014,5.47-4.43,6.41v0.1c1.813,0.705,2.819,2.45,3.423,5.067c0.738,3.054,1.409,6.141,1.913,7.114h-5.102
			c-0.368-0.738-1.006-2.987-1.61-6.107c-0.671-3.322-1.711-4.362-4.061-4.362h-1.678v10.47h-4.933V75.476z M201.89,86.785h2.047
			c2.819,0,4.53-1.645,4.53-4.094c0-3.322-2.483-3.959-4.295-3.959c-1.107,0-1.88,0.067-2.282,0.201V86.785z"/>
	</g>
</g>
</svg>
