<svg xmlns="http://www.w3.org/2000/svg" width="250" height="250" viewBox="0 0 250 250"><path opacity=".15" d="M212.287 133.52v-32.827H178.79c-2.265-2.324-4.558-4.438-6.79-6.345v-23.64h-36.62c-2.986-2.592-5.12-5.064-6.636-7.196 1.684-.232 3.368-.632 5.02-1.26 7.645-2.898 12.826-9.377 14.394-16.774-2.062 4.482-5.817 8.19-10.824 10.082-10.1 3.83-21.415-1.18-25.276-11.187-3.862-10.02 1.198-21.24 11.302-25.063 1.81-.687 3.666-1.08 5.514-1.215-3.81-.566-7.8-.206-11.653 1.254-11.95 4.53-17.93 17.8-13.37 29.65 3.06 7.91 10.06 13.16 17.93 14.44-1.52 2.14-3.66 4.64-6.68 7.26H79.53v22.75c-2.56 2.13-5.222 4.54-7.846 7.23H39.007v32.82h13.596c-.843 3.56-1.367 7.3-1.49 11.21-.39 3.1-.613 6.24-.613 9.44 0 15.58 4.77 30.05 12.925 42.03 4.89 7.18 10.998 13.46 18.026 18.55 12.32 8.91 27.45 14.18 43.81 14.18 16.31 0 31.39-5.23 43.68-14.09 5.88-4.24 11.12-9.32 15.55-15.06 9.74-12.62 15.54-28.44 15.54-45.62 0-3.38-.24-6.71-.68-9.97-.15-3.71-.66-7.27-1.46-10.68h14.41z"/><path fill="#CEF" d="M76.688 67.868h92.473v28.407H76.69zm-40.52 29.985h173.28v32.825H36.168zm88.65-37.046c2.043-.19 4.098-.633 6.104-1.394 7.645-2.9 12.826-9.38 14.394-16.775-2.062 4.482-5.817 8.19-10.824 10.083-10.1 3.83-21.415-1.18-25.276-11.18-3.86-10.02 1.198-21.24 11.303-25.06 1.8-.68 3.66-1.08 5.51-1.21-3.81-.56-7.8-.2-11.66 1.26-11.96 4.53-17.94 17.8-13.37 29.65 3.18 8.27 10.67 13.64 18.96 14.6v2.05h4.84v-2.01z"/><path fill="#CEF" d="M196.547 143.886c.156-41.768-45.513-64.922-45.513-64.922-19.262-8.126-25.792-18.4-27.827-22.908v-.603h-1.624v.603c-2.034 4.507-8.565 14.78-27.827 22.908 0 0-45.667 23.155-45.512 64.922-.04.266-.065.532-.065.808v10.563c2.95.006 5.9.016 8.85.03v-5.114h.04c.18-1.553 1.52-2.765 3.14-2.765s2.95 1.212 3.14 2.765v.008c.02.13.02.24.02.37 0 .12-.01.25-.03.36v4.42l6.12.04v-5.01h.04c.18-1.56 1.51-2.76 3.13-2.76 1.62 0 2.96 1.21 3.14 2.77v.01c.01.12.02.24.02.36 0 .13-.01.25-.03.37v4.33c2.04.01 4.08.03 6.12.04v-4.92h.04c.19-1.56 1.52-2.76 3.14-2.76s2.95 1.21 3.14 2.77v.01c.01.12.02.24.02.37s-.01.25-.02.36v4.23l6.11.03v-4.81h.05c.18-1.56 1.52-2.76 3.13-2.76 1.62 0 2.96 1.21 3.14 2.77v.01c.02.12.03.24.03.36s-.01.25-.03.36v4.11l6.12.01v-4.66h.04c.19-1.55 1.52-2.77 3.14-2.77s2.96 1.22 3.14 2.77v.01c.02.13.02.25.02.37s0 .25-.02.36v3.92c2.04-.01 4.08-.02 6.11-.04v-4.43h.05c.18-1.56 1.52-2.77 3.14-2.77s2.95 1.21 3.14 2.77c.02.12.03.24.03.37s-.01.25-.03.36v3.64c2.04-.02 4.08-.05 6.12-.09v-4.1h.05c.18-1.55 1.51-2.77 3.14-2.77 1.62 0 2.96 1.22 3.14 2.77v.01c.02.12.02.24.02.36s0 .25-.02.36v3.24c2.04-.05 4.08-.1 6.12-.16v-3.63h.05c.18-1.55 1.51-2.77 3.14-2.77 1.62 0 2.95 1.22 3.14 2.77v.01c.02.12.03.24.03.36 0 .13-.01.25-.03.37v2.68c2.04-.07 4.08-.16 6.12-.25v-2.98h.04c.18-1.55 1.51-2.77 3.13-2.77s2.96 1.22 3.14 2.77v.01c.01.12.02.24.02.36s-.01.24-.02.36v1.93c2.04-.11 4.08-.22 6.12-.35v-2.13h.04c.19-1.56 1.52-2.77 3.14-2.77s2.96 1.21 3.14 2.77c.01.12.02.24.02.36 0 .13-.01.25-.02.37v.98c2.04-.14 4.08-.3 6.11-.47V152h.05c.19-1.557 1.52-2.77 3.14-2.77s2.96 1.213 3.14 2.77c.02.12.02.24.02.37v.126c2.94-.274 5.87-.567 8.8-.89v-6.88c-.01-.27-.03-.54-.07-.8z"/><path fill="#F7F7F7" d="M146.983 196.114c-.084-.748-.683-1.328-1.41-1.328-.73 0-1.33.58-1.41 1.328h-.022v5.306h2.85v-4.957c.01-.055.01-.114.01-.174 0-.06 0-.12-.01-.18zm-5.836 0c-.083-.748-.684-1.328-1.412-1.328s-1.328.58-1.41 1.328h-.022v5.306h2.845v-4.957c.007-.055.01-.114.01-.174 0-.06-.004-.12-.01-.18zm17.51 0c-.083-.748-.683-1.328-1.412-1.328-.73 0-1.327.58-1.41 1.328h-.022v5.306h2.844v-4.957c.007-.055.01-.114.01-.174 0-.06-.003-.12-.01-.18zm-5.837 0c-.083-.748-.684-1.328-1.412-1.328s-1.327.58-1.41 1.328h-.02v5.306h2.842v-4.957c.008-.055.01-.114.01-.174 0-.06-.002-.12-.01-.18zm-35.02 0c-.083-.748-.684-1.328-1.412-1.328s-1.328.58-1.41 1.328h-.022v5.306h2.844v-4.957c.007-.055.01-.114.01-.174 0-.06-.002-.12-.01-.18zm17.51 0c-.083-.748-.684-1.328-1.412-1.328-.728 0-1.328.58-1.41 1.328h-.02v5.306h2.844v-4.957c.008-.055.01-.114.01-.174-.003-.06-.004-.12-.01-.18z"/><path fill="#CEF" d="M60.604 184.364c-.048-12.916 13.95-20.074 13.95-20.074 5.904-2.514 7.905-5.69 8.53-7.084v-2.37h-.5c-.43 0-.796-.277-.933-.664h-.14c-.55 0-.99-.444-.99-.993v-.34c0-.55.45-1 1-1h.09c0-.55.45-1 1-1h.5v-5.82c-.42-.08-.74-.45-.74-.9s.33-.82.75-.9V141c-.85-.103-1.62-.66-1.95-1.515-.47-1.23.15-2.6 1.37-3.07.4-.15.81-.19 1.2-.13-.19.014-.38.054-.56.124-1.03.39-1.55 1.56-1.16 2.59.4 1.04 1.56 1.56 2.6 1.16.52-.2.9-.58 1.11-1.05-.16.76-.69 1.43-1.47 1.73-.2.08-.42.12-.62.14v2.21c.43.07.75.45.75.89s-.32.81-.74.89v5.82h.5c.55 0 1 .44 1 1h.08c.55 0 .99.44.99.99v.33c0 .54-.44.99-.99.99h-.14c-.14.39-.5.66-.93.66h-.5v2.37c.63 1.39 2.63 4.57 8.53 7.08 0 0 14 7.15 13.95 20.07.01.08.02.16.02.25v6.11h1.95v1.07h1.62v-1.08h1.95v1.07h1.63v-1.08h1.95v1.08h1.63v-1.06h1.95v1.07h1.63v-1.08h1.94v1.07h1.6v-1.07h1.94v1.07h1.62v-1.07h1.95v1.07h1.63v-1.08h1.95v1.08h1.63v-1.08h1.94v1.08h1.63v-1.08h1.95v1.08h1.63v-1.08h1.95v1.07h1.63v-1.07h1.94v1.08h1.6v-1.07h1.95v1.08h1.63v-1.07h1.95v1.08h1.63v-1.07h1.95v1.07h1.63v-1.07h1.94V167h-4.12v-1.48h2.35v-.8h1.77V153.4h-1.89v-1.37h-2.23v-1.83h2.37c.1-6.575 7.22-10.215 7.22-10.215 3-1.27 4.05-2.88 4.4-3.62H170v-.6h.32c-.05-.08-.09-.17-.09-.27v-.17c0-.28.23-.51.51-.51h.04c0-.28.23-.51.51-.51h.25v-6.43c0-.07.06-.13.13-.13s.13.06.13.13v6.44h.26c.28 0 .52.23.52.52h.04c.28 0 .51.23.51.51v.18c0 .11-.03.2-.09.28h.32v.6h-1.55c.34.74 1.39 2.35 4.39 3.62 0 0 7.11 3.64 7.213 10.21h2.37v1.83h-2.23v1.373h-1.89v11.33h1.78v.8h2.346v1.49h-4.12v29.91c9.74-12.62 15.532-28.44 15.532-45.62 0-41.28-33.47-74.75-74.76-74.75S47.7 110.08 47.7 151.37c0 15.58 4.77 30.05 12.927 42.024v-8.73c0-.087.01-.17.02-.25z"/><path fill="#F7F7F7" d="M111.963 196.114c-.082-.748-.683-1.328-1.41-1.328-.73 0-1.33.58-1.412 1.328h-.02v5.306h2.85v-4.957c.01-.055.01-.114.01-.174 0-.06 0-.12-.01-.18zm17.51 0c-.082-.748-.682-1.328-1.41-1.328-.73 0-1.328.58-1.41 1.328h-.023v5.306h2.845v-4.957c.007-.055.01-.114.01-.174-.002-.06-.005-.12-.01-.18zm-5.837 0c-.082-.748-.682-1.328-1.412-1.328-.728 0-1.327.58-1.41 1.328h-.02v5.306h2.842v-4.957c.007-.055.01-.114.01-.174 0-.06-.002-.12-.01-.18z"/><path fill="#FC7" d="M106.12 211.996H88.082v-9.69h-.05c.138-2.785-2.89-4.335-2.89-4.335-1.522-.64-1.79-1.49-1.818-1.59v-.02l-.003.01v-.01.02c-.03.1-.3.95-1.82 1.6 0 0-3.02 1.55-2.89 4.34v9.6c12.31 8.92 27.45 14.18 43.81 14.18 16.31 0 31.39-5.22 43.68-14.08h-59.98z"/><path fill="#F7F7F7" d="M180.147 156.055c.006-.084.01-.17.01-.258s-.004-.174-.01-.26v-.002c-.08-1.112-.662-1.974-1.37-1.974-.707 0-1.29.87-1.37 1.98h-.02v7.89h2.76v-7.37zm-4.807 0c.008-.084.012-.17.012-.258s-.004-.174-.01-.26v-.002c-.08-1.112-.664-1.974-1.37-1.974s-1.29.87-1.37 1.98h-.02v7.89h2.76v-7.37zm-9.61-.52c-.08-1.112-.662-1.974-1.37-1.974-.707 0-1.288.87-1.367 1.98h-.02v7.89h2.758v-7.37c.01-.08.01-.17.01-.26s0-.17-.01-.26zm4.806 0c-.08-1.112-.664-1.974-1.37-1.974-.707 0-1.287.87-1.368 1.98h-.02v7.89h2.758v-7.37c.006-.08.01-.17.01-.26s-.004-.17-.01-.26z"/><path fill="#0F75BC" d="M181.64 196.942v-29.91h4.118v-1.488h-2.344v-.8h-1.774v-11.327h1.888v-1.372h2.23v-1.83h-2.37c-.1-6.573-7.217-10.213-7.217-10.213-3-1.276-4.05-2.886-4.39-3.625h1.55v-.602h-.32c.06-.08.09-.175.09-.277v-.173c0-.283-.23-.514-.51-.514h-.04c0-.28-.23-.51-.51-.51h-.26v-6.43c0-.07-.05-.13-.12-.13s-.13.06-.13.13v6.44h-.25c-.28 0-.51.23-.51.52h-.04c-.28 0-.51.23-.51.52v.18c0 .11.03.2.08.28h-.31v.61h1.55c-.34.74-1.39 2.35-4.39 3.62 0 0-7.11 3.64-7.22 10.21h-2.37v1.83h2.23v1.38h1.89v11.33h-1.78v.8h-2.35v1.49h4.12V212h4.48c5.89-4.24 11.13-9.316 15.55-15.053z"/><path fill="#77D4FF" d="M159.673 191.8h-1.628v-1.075H156.1v1.076h-1.628v-1.07h-1.945v1.08H150.9v-1.07h-1.945v1.08h-1.627v-1.07h-1.946v1.08h-1.627v-1.07h-1.945v1.08h-1.627v-1.07h-1.946v1.08h-1.627v-1.07h-1.945v1.08h-1.627v-1.07h-1.946v1.08h-1.627v-1.07h-1.945v1.08h-1.627v-1.08h-1.946v1.07h-1.626v-1.07h-1.94v1.08h-1.62v-1.08h-1.95v1.08h-1.62v-1.08h-1.94v1.08h-1.63v-1.08h-1.94v1.08h-1.63v-1.08h-1.95v16.4h.04v4.88h55.5V190.8h-1.94v1.08z"/><path fill="#00AEEF" d="M99.357 139.963l2.085-1.097 2.084 1.097-.398-2.323 1.688-1.644-2.33-.337-1.044-2.12-1.042 2.11-2.332.33 1.687 1.64m15.2 38.94l-1.04 2.11-2.33.34 1.685 1.64-.398 2.32 2.084-1.1 2.085 1.09-.39-2.32 1.69-1.64-2.33-.34m-52.7-29.77L62.27 151l-2.33.34 1.69 1.65-.4 2.32 2.09-1.095 2.09 1.096L65 153l1.69-1.644-2.333-.34m75.948 24.142c7.01-2.68 11.77-8.68 13.2-15.52-1.883 4.145-5.33 7.58-9.92 9.33-9.26 3.543-19.636-1.095-23.18-10.35-3.54-9.266 1.097-19.64 10.36-23.18 1.66-.64 3.37-1 5.06-1.13-3.49-.52-7.16-.186-10.69 1.165-10.96 4.19-16.45 16.47-12.258 27.43 4.19 10.96 16.47 16.446 27.43 12.256zm-58.79 22.8c1.52-.647 1.79-1.498 1.82-1.598v-.02l.003.01.004-.006v.02c.03.1.3.95 1.82 1.6 0 0 3.03 1.55 2.89 4.332h.05V212h18v-27.383c0-.085-.004-.168-.02-.25.05-12.916-13.95-20.074-13.95-20.074-5.9-2.51-7.903-5.686-8.53-7.08v-2.37h.5c.434 0 .798-.278.935-.665h.143c.55 0 .995-.444.995-.993v-.332c0-.55-.443-.992-.993-.992H85.1c0-.55-.445-.99-.995-.99h-.5v-5.82c.427-.07.75-.45.75-.89s-.32-.82-.745-.89v-2.21c.21-.02.42-.06.63-.14.786-.3 1.32-.97 1.48-1.73-.21.47-.6.85-1.11 1.05-1.04.4-2.2-.12-2.596-1.16-.395-1.03.124-2.19 1.16-2.59.19-.07.38-.11.566-.12-.39-.06-.8-.02-1.193.13-1.225.47-1.84 1.85-1.37 3.07.33.86 1.096 1.41 1.946 1.52v2.22c-.425.08-.75.45-.75.9s.326.82.75.9v5.82h-.5c-.55 0-.996.45-.996 1h-.08c-.55 0-.992.45-.992.99v.34c0 .55.446 1 .996 1h.15c.14.39.51.67.94.67h.5v2.37c-.62 1.4-2.62 4.57-8.53 7.09 0 0-13.99 7.16-13.95 20.08-.01.08-.02.17-.02.25v8.74c4.89 7.18 11 13.46 18.03 18.56v-9.6c-.13-2.78 2.89-4.33 2.89-4.33zm19.944-11.108h.01c.06-.48.47-.854.96-.854s.9.377.96.857v.113c0 .038 0 .075-.01.11v3.2h-1.94v-3.423zm-3.82-.053h.01c.05-.48.46-.86.96-.86.49 0 .9.376.96.856 0 .04.01.073.01.112 0 .038-.01.077-.01.11v3.2h-1.94v-3.42zm-3.82-.06h.01c.06-.48.47-.856.96-.856.5 0 .91.38.97.86v.13c0 .04 0 .08-.01.11v3.2h-1.94v-3.42zm-3.83-.05H90c.056-.48.464-.855.96-.855.5 0 .907.38.964.86v.12s0 .077-.007.11v3.198H90v-3.42zm-3.82-.054h.01c.05-.48.46-.857.96-.857.49 0 .9.37.96.85v.113c0 .03 0 .07-.01.11v3.19h-1.94v-3.42zm-3.82-.057h.02c.06-.48.47-.86.96-.86.5 0 .91.373.96.854.01.038.01.075.01.113 0 .04 0 .076-.01.113v3.2h-1.94v-3.42zm-17.13-.05v3.19H63.3v-3.42h.013c.057-.48.465-.853.962-.853.497 0 .907.374.962.855v.002c.006.038.007.073.007.112s0 .076-.007.113zm3.82.05v3.194H67.1v-3.424h.018c.06-.48.467-.852.96-.852.5 0 .91.373.966.854.004.04.007.078.007.115v.113zm3.81.053v3.19h-1.94v-3.42h.01c.05-.48.46-.86.96-.86.5 0 .9.37.96.85v.11c0 .04 0 .07-.01.11zm3.81.05v3.19h-1.94v-3.43h.01c.05-.48.46-.85.96-.85.5 0 .91.37.96.85 0 .03.01.07.01.11 0 .03 0 .07-.01.11zm1.87-.18h.01c.05-.48.46-.86.96-.86.49 0 .9.38.96.86v.11c0 .04 0 .07-.01.11v3.2h-1.94v-3.42z"/><path fill="#00AEEF" d="M106.08 207.12h.04v4.876h-.04z"/><path fill="#0F75BC" d="M76.68 186.475c-.056-.48-.465-.854-.962-.854-.496 0-.905.38-.96.86h-.016v3.43h1.94v-3.19c.004-.03.006-.07.006-.11 0-.03-.002-.07-.007-.11zm-3.813-.055c-.057-.48-.467-.855-.963-.855-.497 0-.905.374-.962.854h-.014v3.42h1.94v-3.2c.003-.04.005-.08.005-.11 0-.04-.002-.08-.006-.12v-.01zm7.628.336c.005-.035.007-.074.007-.11 0-.04-.002-.076-.007-.113v-.002c-.056-.48-.466-.85-.962-.85-.497 0-.906.38-.962.86h-.01v3.43h1.94v-3.2zm3.815.057c.004-.037.006-.074.006-.113 0-.038-.002-.075-.007-.112v-.002c-.06-.48-.47-.856-.97-.856s-.91.375-.96.856h-.02v3.423h1.94v-3.2zm-15.258-.45c-.057-.48-.466-.853-.962-.853-.497 0-.905.373-.962.854h-.015v3.423h1.94v-3.195c.003-.037.006-.074.006-.113 0-.04-.01-.08-.01-.12zm-3.815-.053c-.055-.482-.465-.855-.962-.855-.497 0-.905.373-.962.854H63.3v3.42h1.938v-3.2c.006-.04.007-.08.007-.12s0-.08-.007-.11v-.01zm34.33.723c.004-.035.007-.074.007-.11 0-.04-.002-.076-.008-.113v-.002c-.055-.48-.465-.856-.962-.856-.497 0-.905.376-.963.856h-.01v3.423h1.94v-3.19zm-11.443-.166c.005-.035.007-.074.007-.11v-.115c-.05-.48-.46-.856-.96-.856-.49 0-.9.375-.96.856h-.01v3.423h1.94v-3.198zm15.256.223c.006-.038.008-.075.008-.112 0-.038-.002-.075-.007-.112v-.002c-.05-.48-.46-.856-.96-.856-.49 0-.9.376-.96.856h-.01v3.423h1.94v-3.198zm-7.627-.112c.004-.037.007-.073.007-.11 0-.04-.002-.076-.007-.113v-.002c-.057-.48-.466-.856-.963-.856-.497 0-.905.376-.962.856h-.015v3.424h1.94v-3.2zm-3.815-.055c.004-.035.007-.072.007-.11s-.002-.077-.007-.114v-.01c-.057-.48-.466-.86-.963-.86-.497 0-.906.37-.96.85H90v3.42h1.937v-3.2z"/><path fill="#CEF" d="M111.963 196.463v4.957h-2.843v-5.306h.02c.083-.748.683-1.328 1.412-1.328.728 0 1.33.58 1.41 1.328.008.06.01.116.01.175 0 .06-.002.11-.01.17zm5.837 0v4.957h-2.844v-5.306h.02c.084-.748.683-1.328 1.412-1.328s1.33.58 1.412 1.328c.007.06.01.116.01.175 0 .06-.002.11-.01.17zm5.836 0v4.957h-2.842v-5.306h.02c.083-.748.682-1.328 1.41-1.328.73 0 1.33.58 1.412 1.328.007.06.01.116.01.175 0 .06-.002.11-.01.17zm5.838 0v4.957h-2.845v-5.306h.02c.08-.748.68-1.328 1.41-1.328.73 0 1.33.58 1.41 1.328 0 .06.01.116.01.175 0 .06-.01.11-.01.17zm5.836 0v4.957h-2.844v-5.306h.02c.083-.748.684-1.328 1.41-1.328.73 0 1.33.58 1.414 1.328.008.06.01.116.01.175 0 .06-.002.11-.01.17zm5.837 0v4.957h-2.845v-5.306h.02c.084-.748.684-1.328 1.412-1.328s1.33.58 1.412 1.328c.007.06.01.116.01.175 0 .06-.002.11-.01.17zm5.836 0v4.957h-2.843v-5.306h.02c.083-.748.682-1.328 1.41-1.328.73 0 1.328.58 1.412 1.328.008.06.01.116.01.175.002.06 0 .11-.01.17zm5.837 0v4.957h-2.843v-5.306h.02c.084-.748.683-1.328 1.41-1.328s1.33.58 1.413 1.328c.008.06.01.116.01.175 0 .06-.002.11-.01.17zm5.837 0v4.957h-2.844v-5.306h.02c.085-.748.684-1.328 1.412-1.328.73 0 1.33.58 1.412 1.328.007.06.01.116.01.175 0 .06-.003.11-.01.17zm18.73-40.928h.02c.08-1.112.664-1.974 1.37-1.974.71 0 1.29.87 1.37 1.98v.01c.007.09.01.17.01.26s-.003.18-.01.26v7.37h-2.76v-7.89zm-11.657.52v7.37h-2.76v-7.89h.022c.08-1.112.66-1.974 1.368-1.974.707 0 1.288.87 1.37 1.98v.01c.007.09.01.17.01.26s-.002.18-.01.26zm4.806 0v7.37h-2.76v-7.89h.022c.08-1.112.66-1.974 1.368-1.974.706 0 1.29.87 1.37 1.98v.01c.006.09.01.17.01.26s-.004.18-.01.26zm2.046-.52h.02c.08-1.112.664-1.974 1.37-1.974s1.29.87 1.37 1.98v.01c.006.09.01.17.01.26s-.004.18-.01.26v7.37h-2.76v-7.89z"/><path fill="#00AEEF" d="M96.417 71.377v21.3h-4.1V83.51H85.06v9.167h-4.098v-21.3h4.098v8.503h7.257v-8.503h4.1zm13.793 0l5.956 21.3h-4.292l-1.523-5.623h-5.7l-1.47 5.623h-4.15l6.04-21.3h5.15zm-4.984 12.575h4.543l-1.28-4.847c-.33-1.33-.7-3.046-.97-4.35h-.08c-.28 1.33-.64 3.076-.94 4.322l-1.28 4.875zm13.714 8.725V71.654c1.33-.25 3.156-.443 5.51-.443 2.687 0 4.708.53 6.065 1.69 1.273 1.08 2.05 2.8 2.05 4.77 0 5.85-4.874 7.15-8.06 7.15-.582 0-1.08-.02-1.497-.11v7.98h-4.07zm4.07-11.19c.388.083.83.11 1.44.11 2.548 0 4.045-1.44 4.045-3.74 0-2.27-1.442-3.46-3.712-3.46-.832 0-1.413.082-1.774.165v6.925zm12.55 11.19V71.654c1.328-.25 3.156-.443 5.51-.443 2.688 0 4.71.53 6.067 1.69 1.273 1.08 2.05 2.8 2.05 4.77 0 5.85-4.875 7.15-8.06 7.15-.583 0-1.08-.02-1.497-.11v7.98h-4.07zm4.07-11.19c.39.083.83.11 1.44.11 2.548 0 4.044-1.44 4.044-3.74 0-2.27-1.44-3.46-3.712-3.46-.83 0-1.412.082-1.772.165v6.925zm22.547-10.11h4.515l-6.315 12.492v8.8h-4.1V84l-6.037-12.63h4.57l2.105 5.237c.61 1.523 1.106 2.853 1.606 4.32h.06c.42-1.41.94-2.797 1.55-4.348l2.05-5.21z"/><path fill="#0F75BC" d="M54.764 122.14v3.94H41.1v-24.435h13.155v3.94h-8.452v5.91h7.975v3.845h-7.975v6.8h8.96zm3.62 3.94v-24.435h4.704v24.435h-4.703zm9.47-24.117c1.716-.318 3.94-.508 6.323-.508 4.067 0 6.832.858 8.865 2.542 2.32 1.906 3.686 4.925 3.686 9.342 0 5.24-1.81 8.29-3.686 9.97-2.224 2-5.624 2.98-9.882 2.98-2.256 0-4.067-.16-5.306-.32v-24.02zm4.67 20.495c.476.095 1.175.095 1.812.095 4.48.032 7.467-2.732 7.467-9.15 0-5.53-2.7-8.263-7.054-8.263-.99 0-1.72.095-2.23.19v17.128zm35.68-20.813l6.833 24.435h-4.925l-1.748-6.45h-6.545l-1.69 6.45h-4.77l6.92-24.435h5.91zm-5.717 14.426h5.21l-1.462-5.56c-.38-1.52-.794-3.49-1.112-4.98h-.095c-.318 1.53-.73 3.53-1.08 4.96l-1.46 5.6zm29.167 6.04v3.97h-13.44v-24.43h4.703v20.47h8.737zm1.843-4.1v-3.24h8.706v3.24h-8.706zm16.873 8.07h-4.704v-24.43h13.092v3.94h-8.39v6.45h7.817v3.85h-7.816v10.2zm12.36 0v-24.43h4.702v24.44h-4.703zm24.242-24.43v4.07h-6.038v20.37h-4.702v-20.37h-6.006v-4.06h16.746zm2.763.32c1.62-.28 3.908-.51 6.29-.51 3.083 0 9.312.38 9.312 6.93 0 2.99-1.907 5.18-4.194 6.07v.1c1.716.67 2.67 2.32 3.24 4.8.7 2.89 1.335 5.82 1.812 6.74h-4.83c-.35-.7-.952-2.82-1.525-5.78-.635-3.14-1.62-4.13-3.845-4.13h-1.59v9.92h-4.67v-24.12zm4.67 10.71h1.938c2.67 0 4.29-1.55 4.29-3.87 0-3.14-2.352-3.75-4.067-3.75-1.048 0-1.78.07-2.16.19v7.44z"/></svg>