<?xml version="1.0" encoding="utf-8"?>
<!-- Generator: Adobe Illustrator 16.0.0, SVG Export Plug-In . SVG Version: 6.00 Build 0)  -->
<!DOCTYPE svg PUBLIC "-//W3C//DTD SVG 1.1//EN" "http://www.w3.org/Graphics/SVG/1.1/DTD/svg11.dtd">
<svg version="1.1" id="Layer_1" xmlns="http://www.w3.org/2000/svg" xmlns:xlink="http://www.w3.org/1999/xlink" x="0px" y="0px"
	 width="250px" height="250px" viewBox="0 0 250 250" enable-background="new 0 0 250 250" xml:space="preserve">
<path opacity="0.15" d="M212.287,133.519v-32.826h-33.498c-2.264-2.324-4.557-4.438-6.788-6.345V70.708H135.38
	c-2.986-2.592-5.12-5.064-6.636-7.196c1.684-0.232,3.368-0.632,5.02-1.259c7.645-2.899,12.826-9.378,14.394-16.775
	c-2.062,4.482-5.817,8.189-10.824,10.082c-10.099,3.829-21.415-1.179-25.276-11.187c-3.862-10.02,1.198-21.24,11.302-25.063
	c1.809-0.687,3.666-1.08,5.514-1.215c-3.809-0.566-7.8-0.206-11.653,1.254c-11.953,4.531-17.938,17.804-13.371,29.655
	c3.055,7.917,10.057,13.167,17.924,14.445c-1.518,2.146-3.665,4.642-6.68,7.259H79.529v22.747c-2.56,2.132-5.221,4.544-7.845,7.237
	H39.007v32.826h13.596c-0.843,3.565-1.367,7.303-1.489,11.208c-0.39,3.094-0.614,6.238-0.614,9.438
	c0,15.581,4.77,30.049,12.925,42.025c4.89,7.18,10.998,13.462,18.026,18.553c12.311,8.918,27.443,14.18,43.807,14.18
	c16.307,0,31.39-5.225,43.678-14.085c5.881-4.24,11.12-9.317,15.545-15.054c9.738-12.622,15.534-28.443,15.534-45.619
	c0-3.383-0.246-6.707-0.682-9.97c-0.151-3.713-0.659-7.273-1.464-10.676H212.287z"/>
<g id="Layer_3" display="none">
	
		<image display="inline" overflow="visible" enable-background="new    " width="1024" height="768" xlink:href="../06_June_2015/60432D60.jpg"  transform="matrix(-0.2474 0 0 0.2474 -189.3325 62)">
	</image>
</g>
<g id="Layer_2" display="none">
	<g display="inline">
		<g>
			<path fill="#FFFFFF" d="M128.377,150.443c0,0,0.3,0.324,0.859,0.934c0.578,0.611,1.449,1.508,2.604,2.596
				c1.155,1.088,2.588,2.375,4.305,3.729c1.715,1.346,3.722,2.771,5.985,3.991c1.138,0.584,2.333,1.16,3.569,1.546
				c1.234,0.434,2.502,0.653,3.705,0.672c1.219,0.045,2.324-0.226,3.328-0.765c0.525-0.205,0.972-0.646,1.461-0.989
				c0.431-0.482,0.92-0.869,1.303-1.479c1.66-2.215,2.818-5.354,3.582-8.682c0.227-0.816,0.371-1.684,0.521-2.547l0.229-1.297
				l0.061-0.324l0.049-0.307l0.088-0.662c0.211-1.709,0.379-3.604,0.55-5.461c0.671-7.5,1.428-15.148,2.936-22.363
				c0.763-3.611,1.702-7.125,3.05-10.482c0.674-1.678,1.461-3.319,2.446-4.896c0.987-1.571,2.152-3.098,3.694-4.412
				c1.511-1.315,3.425-2.384,5.439-2.863c2.008-0.503,3.978-0.45,5.606-0.147c3.285,0.644,5.479,1.923,7.157,2.95
				c1.682,1.052,2.816,1.977,3.6,2.604c0.76,0.638,1.162,0.979,1.162,0.979c2.111,1.78,2.383,4.937,0.604,7.05
				c-1.781,2.113-4.938,2.383-7.053,0.603c-0.048-0.041-0.096-0.083-0.143-0.125l-0.135-0.122c0,0-0.303-0.278-0.873-0.801
				c-0.57-0.502-1.42-1.245-2.504-1.984c-1.065-0.75-2.42-1.499-3.646-1.789c-0.608-0.146-1.136-0.166-1.635-0.077
				c-0.501,0.08-1.04,0.307-1.688,0.807c-1.303,0.978-2.759,3.098-3.91,5.688c-1.177,2.599-2.151,5.654-2.979,8.911
				c-1.658,6.542-2.711,13.86-3.688,21.308c-0.254,1.883-0.49,3.727-0.82,5.727l-0.129,0.729l-0.074,0.383l-0.08,0.363l-0.319,1.447
				c-0.212,0.967-0.416,1.926-0.72,2.885c-1.075,3.812-2.532,7.654-5.241,11.01c-0.618,0.854-1.485,1.595-2.282,2.332
				c-0.914,0.65-1.801,1.343-2.856,1.769c-2.03,0.97-4.304,1.338-6.308,1.187c-2.021-0.115-3.865-0.572-5.479-1.207
				c-1.646-0.599-3.076-1.363-4.414-2.129c-2.64-1.568-4.793-3.256-6.619-4.813c-1.819-1.563-3.306-3.014-4.496-4.23
				c-1.188-1.225-2.082-2.223-2.687-2.916c-0.604-0.715-0.927-1.096-0.927-1.096c-0.89-1.051-0.759-2.625,0.292-3.514
				c1.022-0.865,2.542-0.768,3.44,0.209L128.377,150.443z"/>
			<path fill="#D0D2D3" d="M149.189,170.059c0.574,0.043,1.172,0.031,1.776-0.012c-6.188-0.775-9.319-4.885-10.856-9.541
				c-1.45-0.912-2.781-1.875-3.965-2.805c-1.72-1.354-3.151-2.641-4.308-3.729c-1.151-1.091-2.022-1.984-2.604-2.599
				c-0.562-0.606-0.858-0.937-0.858-0.937l-0.075-0.082c-0.748-0.811-1.919-1.006-2.881-0.557c-0.469,0.76-0.949,1.539-1.429,2.318
				c0.014,0.547,0.197,1.092,0.578,1.543c0,0,0.322,0.381,0.927,1.094c0.604,0.695,1.496,1.693,2.688,2.916
				c1.189,1.221,2.676,2.67,4.495,4.232c1.826,1.559,3.981,3.244,6.619,4.813c1.338,0.766,2.771,1.531,4.414,2.131
				C145.324,169.484,147.17,169.941,149.189,170.059z"/>
			<path fill="#ED1F24" d="M93.474,127.055c0,0-29.75,2.25-22,26.5l14.75-0.25L93.474,127.055z"/>
			<path fill="#D3202E" d="M75.141,137.221c0,0,6.083-5.541,13.833-6.916l-3.156,15.836l-4.01,0.58L75.141,137.221z"/>
			<path fill="#D1A109" d="M131.161,178.18c0,0-0.642-0.731-1.563-0.641c-0.921,0.092-0.125,1.781-0.125,1.781L131.161,178.18z"/>
			<path fill="#D1A109" d="M77.349,176.305c0,0,2.063-1.5,3.563-0.25l0.188,2.5C81.099,178.555,77.411,177.305,77.349,176.305z"/>
			<path fill="#FFFFFF" d="M95.265,188.813l-0.167,3.656c0,0,10.25,3.877,32.166,0.074l0.055-3
				C127.318,189.543,98.848,190.9,95.265,188.813z"/>
			<polygon fill="#FFFFFF" points="90.661,177.566 92.286,185.68 102.349,186.631 103.599,177.008 			"/>
			<path fill="#FFFFFF" d="M72.265,186.91l-0.167,3.656c0,0,10.25,3.877,32.167,0.074l0.054-3
				C104.319,187.641,75.848,188.998,72.265,186.91z"/>
			<polyline fill="#7F7C7D" points="94.192,183.553 96.036,183.75 97.432,186.127 99.307,182.1 96.307,179.414 93.349,183.414 			
				"/>
			<path fill="#111010" d="M82.659,183.641c0,0-6.144,0.498-9.998,2.66c-3.854,2.164,21.784,3.396,31.658,1.34
				C104.319,187.641,100.966,182.748,82.659,183.641z"/>
			<polygon fill="#FFFFFF" points="113.661,179.469 115.286,187.582 125.349,188.533 126.6,178.91 			"/>
			<path fill="#231F20" d="M105.659,185.543c0,0-6.144,0.498-9.998,2.66c-3.854,2.164,21.784,3.395,31.657,1.34
				C127.318,189.543,123.966,184.65,105.659,185.543z"/>
			<circle fill="#F1C119" cx="112.807" cy="63.721" r="5.667"/>
			<path fill="#7C0505" d="M78.057,60.138c0,0,14.377-10.271,33.75,0.75c4.833,2.75,11.167,8.417,12.5,17.083L78.057,60.138z"/>
			<path fill="#FFFFFF" d="M63.601,70.289c7.074-5.907,16.953-9.586,27.895-9.586c11.792,0,22.354,4.268,29.493,11
				c10.222-4.445,12.324,1.705,12.324,1.705c0.592,1.211,0.705,2.494,0.53,3.778C111.533,87.047,81.169,89.9,63.601,70.289z"/>
			<path fill="#D0D2D3" d="M55.058,81.17c0,0-7.717-14.035,6.607-9.16C75.993,76.885,55.058,81.17,55.058,81.17z"/>
			<path fill="#919496" d="M57.761,77.299c0,0-6.867-6.931-1.93,2.346C60.767,88.926,57.761,77.299,57.761,77.299z"/>
			<path fill="#FFFFFF" d="M130.061,88.011c-2.61-15.426-18.875-27.309-38.563-27.309c-21.51,0-38.941,14.179-38.941,31.668
				c0,17.49,17.434,31.668,38.941,31.668c0.809,0,1.605-0.025,2.404-0.065c0.861,3.759,1.582,9.589-1.021,13.119
				c0,0-17.863,13.357-8.75,26.047c-0.012-0.094-2.346-22.236,14.699-26.18l-2.979-13.572c0,0,6.327-1.89,13.85-5.213v17.471
				c0,0-17.983,21-7.801,35.221C119.708,170.322,155.549,160.787,130.061,88.011z"/>
			<path fill="#D0D2D3" d="M109.699,135.645v-17.47c-7.523,3.323-13.809,5.213-13.809,5.213l2.937,13.572
				c-17.045,3.942-14.711,26.086-14.699,26.181c1.777,2.479,2.672,3.313,6.842,5.637c0,0,5.619,2.248,10.929,2.09
				C91.716,156.645,109.699,135.645,109.699,135.645z"/>
			<ellipse fill="#D0D2D3" cx="85.646" cy="93.069" rx="33.094" ry="25.105"/>
			<ellipse fill="#FFFFFF" cx="68.745" cy="87.429" rx="12.938" ry="12.752"/>
			<ellipse fill="#FFFFFF" cx="98.827" cy="87.718" rx="15.967" ry="15.862"/>
			<g>
				<circle fill="#0071BC" cx="101.728" cy="87.801" r="12.364"/>
				<path fill="#0F4481" d="M100.839,90.914c-2.297-2.653-2.008-6.661,0.645-8.957c2.65-2.293,6.658-2.006,8.957,0.647
					c2.293,2.651,2.005,6.661-0.646,8.956C107.142,93.855,103.132,93.565,100.839,90.914z"/>
				<path fill="#FFFFFF" d="M104.537,88.967c-1.222-1.411-1.064-3.54,0.344-4.759c1.407-1.219,3.539-1.068,4.76,0.342
					c1.219,1.41,1.063,3.542-0.346,4.762C107.884,90.531,105.757,90.375,104.537,88.967z"/>
				<circle fill="#FFFFFF" cx="99.399" cy="85.885" r="1.644"/>
			</g>
			<g>
				<circle fill="#0071BC" cx="70.571" cy="87.585" r="10.265"/>
				<path fill="#0F4481" d="M69.833,90.17c-1.904-2.204-1.666-5.531,0.535-7.437c2.199-1.904,5.529-1.666,7.438,0.537
					c1.902,2.201,1.664,5.53-0.539,7.436C75.067,92.611,71.737,92.371,69.833,90.17z"/>
				<path fill="#FFFFFF" d="M72.903,88.553c-1.014-1.171-0.885-2.938,0.285-3.951c1.168-1.011,2.938-0.887,3.951,0.284
					c1.012,1.171,0.883,2.939-0.287,3.954C75.683,89.851,73.915,89.722,72.903,88.553z"/>
				<circle fill="#FFFFFF" cx="68.638" cy="85.995" r="1.364"/>
			</g>
			<path fill="#BE1E2D" d="M77.911,104.96c0,0,1.594,5.406-0.25,5.688c0,0,7.25,4.438,8.438-5.031c0,0-5.563,0.688-6.938-1
				L77.911,104.96z"/>
			<path fill="#6C6F71" d="M78.73,104.997c0,0-0.014-0.027-0.038-0.073c-0.027-0.069-0.065-0.191-0.099-0.332
				c-0.045-0.163-0.029-0.254-0.038-0.39c-0.003-0.129-0.006-0.267-0.009-0.404c0.063-0.508,0.125-1.016,0.125-1.016l0.979,0.2
				c0,0-0.074,0.44-0.148,0.881c-0.001,0.102-0.003,0.204-0.004,0.299c-0.001,0.088-0.01,0.209,0.001,0.22
				c0.006,0.035-0.006,0.061-0.004,0.092c0.022,0.048,0.035,0.075,0.035,0.075L78.73,104.997z"/>
			<path fill="#6C6F71" d="M73.432,100.314c0.461,0.751,0.553,1.434,0.782,2.101c0.239,0.65,0.592,1.235,1.074,1.593
				c0.479,0.36,1.083,0.505,1.746,0.473c0.328-0.012,0.67-0.063,1.012-0.131c0.342-0.082,0.683-0.185,1.03-0.29l0.219-0.066
				l0.209,0.089c0.403,0.173,0.861,0.342,1.302,0.482c0.446,0.143,0.903,0.246,1.356,0.342c0.91,0.18,1.832,0.248,2.726,0.145
				c0.896-0.093,1.751-0.39,2.512-0.865c0.382-0.238,0.722-0.536,1.07-0.839c0.365-0.291,0.721-0.604,1.211-0.877
				c-0.043,0.55-0.244,1.052-0.553,1.478c-0.3,0.435-0.714,0.778-1.136,1.101c-0.856,0.641-1.895,1.047-2.949,1.191
				c-1.056,0.146-2.122,0.075-3.13-0.157c-0.507-0.109-0.998-0.271-1.479-0.454c-0.484-0.187-0.939-0.386-1.408-0.667l0.428,0.023
				c-0.359,0.174-0.734,0.321-1.125,0.441c-0.396,0.107-0.8,0.214-1.231,0.231c-0.844,0.077-1.818-0.146-2.533-0.742
				c-0.717-0.593-1.107-1.416-1.309-2.207C73.051,101.921,72.949,101.08,73.432,100.314z"/>
			<g>
				<path fill="#1D8FCD" d="M75.638,100.836c0,0,2.877-5.856,3.938-2.765c0,0,2.379-3.481,2.379,2.109c0,0-2.254,1.536-2.379,3.398
					C79.575,103.58,77.245,102.643,75.638,100.836z"/>
				<path fill="#FFFFFF" d="M79.575,102.152c0,0,0.146-0.791,1.262-1.578C80.837,100.574,80.425,99.058,79.575,102.152z"/>
			</g>
			<path fill="#231F20" d="M119.224,186.184c0,0,6.188,1.174,7.25-0.783c0,0,1.615,2.396,0.844,4.125
				c-0.063,0.144,0.002,0.021,0.002,0.021l-6.096-0.955L119.224,186.184z"/>
			<polyline fill="#7F7C7D" points="119.849,184.168 121.349,183.945 122.849,186.574 124.724,182.547 121.724,179.861 
				119.599,184.168 			"/>
			<path fill="#6C6F71" d="M75.974,110.616c0,0,0.044,0.146,0.123,0.403c0.061,0.227,0.147,0.551,0.251,0.939
				c0.055,0.182,0.104,0.385,0.21,0.573c0.085,0.198,0.22,0.38,0.358,0.566c0.163,0.166,0.313,0.355,0.523,0.49
				c0.196,0.149,0.407,0.285,0.647,0.385c0.453,0.23,0.958,0.397,1.45,0.489c0.48,0.13,0.968,0.132,1.367,0.205
				c0.408,0.038,0.755,0.032,0.995,0.051c0.241,0.016,0.379,0.024,0.379,0.024l0.042,0.003c0.275,0.018,0.483,0.255,0.466,0.53
				c-0.017,0.262-0.234,0.463-0.491,0.467c0,0-0.147,0.002-0.405,0.005c-0.259-0.002-0.626,0.006-1.071-0.02
				c-0.446-0.054-0.966-0.073-1.519-0.235c-0.277-0.067-0.563-0.126-0.846-0.25c-0.284-0.109-0.578-0.205-0.845-0.384
				c-0.278-0.146-0.533-0.339-0.769-0.551c-0.246-0.193-0.436-0.456-0.621-0.688c-0.164-0.257-0.313-0.507-0.403-0.77
				c-0.111-0.252-0.157-0.511-0.204-0.741c-0.03-0.235-0.034-0.451-0.002-0.641c0.024-0.189,0.079-0.349,0.13-0.476
				C75.857,110.735,75.974,110.616,75.974,110.616z"/>
			<path fill="#7C0505" d="M82.974,148.344c0,0-6.167,18.949-1.667,34.314c0,0,1.333,3.281,17.167,0.299l0.5-21.186
				C98.974,161.771,94.974,144.465,82.974,148.344z"/>
			<polygon fill="#D1A109" points="94.286,176.93 96.245,176.283 95.891,177.971 			"/>
			<path fill="#F1C119" d="M95.724,177.18c0,0-14.375,3.125-18.375-0.875c0,0,0.5,5.875,1.875,7s14,2.375,18.25,0
				S95.724,177.18,95.724,177.18z"/>
			<path fill="#930805" d="M91.307,159.385l-7-11.338l10.667-2.836l14.833-1.789l14.333-8.951l8.833,11.637
				c-4.166,12.232-2.834,39.982-2.834,39.982c-3.166,1.939-6.833,1.492-6.833,1.492l-1.667-5.818l-2.333,5.07
				c-14.667,0.896-22.333-2.236-22.333-2.236c-4.167-12.383-2.667-22.975-2.667-22.975L91.307,159.385z"/>
			<path fill="#7C0505" d="M90.724,160.221c0,0,14.667,8.75,31.167,4.584l6.916,3.75l1.834-11.834l-4.916-6.25
				C125.725,150.471,90.724,159.221,90.724,160.221z"/>
			<path fill="#820906" d="M81.182,59.471c33.125-2.5,43.479,17.25,43.479,17.25c-24.25-17.375-51.854-12.333-51.854-12.333
				S76.317,59.838,81.182,59.471z"/>
			<path fill="#A8170C" d="M101.599,126.68c0,0-2.125-5,2.5-6.5s26.75-10.25,30.625-16.125c0,0,0.332-0.583,0-1.458
				c0,0,0.457-0.083,0.625,0.25c0.166,0.333,1.791,7.125,1.791,7.125s9.084,28.959,3.334,48.459c0,0-3,3.625-14-2v-4.375l-3.5,7.375
				c0,0-10.375,7-30.375,0.5c0,0-10.125,1-12.375-1.5c0,0-2.125-9.25,11.625-23.25c0,0,3.5-4.125,1-11l3.875-1
				c0,0,1.625,0,1.875,1.375c0.25,1.375,0.75,3,0.75,3s0.167,0.346,0.531,0.481C100.488,128.27,101.63,128.242,101.599,126.68z"/>
			<path fill="#A8170C" d="M80.891,59.179c-3.757,0.284-5.832,2.332-7.365,4.262c4.44-0.636,28.729-3.223,50.529,12.03
				C121.587,70.828,109.258,57.038,80.891,59.179z"/>
			<path fill="#919496" d="M122.222,74.679l4.02,8.793C126.242,83.472,138.602,68.096,122.222,74.679z"/>
			<path fill="#D0D2D3" d="M118.566,72.877c0,0-0.379,3.253,2.646,3.706c0,0,14.82-4.84,4.008,8.166c0,0-1.209,1.967,1.285,3.705
				c0,0,9.981-8.543,6.806-15.047C133.311,73.408,130.891,66.299,118.566,72.877z"/>
			<path fill="#BF4340" d="M101.599,126.68c0.031,1.563-1.11,1.59-1.719,1.359c-0.364-0.139-0.531-0.484-0.531-0.484
				s-0.5-1.625-0.75-3c-0.042-0.232-0.133-0.414-0.239-0.574l-4.011,1.449l-0.945,0.673c0.167,0.746,0.268,1.451,0.31,2.113
				c0,0,0.865,0.439,2.094,0.918c0.859,0.338,2.417,0.084,2.417,0.084c-7.25,14-8.375,25.729-8.375,25.729l4.375,0.604
				c0.313-9.313,9.333-27.168,9.333-27.168c23.461-3.749,33.213-17.041,33.723-17.952c-0.088-0.293-0.141-0.465-0.141-0.465
				l-35.875,12.959C100.781,124.75,101.599,126.68,101.599,126.68z"/>
			<path fill="#7C0505" d="M111.474,138.055c0,0,11.667-5.584,13-15.417c0,0-3.5,0.333-5.083,4.167
				C118.735,128.391,116.473,134.137,111.474,138.055z"/>
			<path fill="#FEE86E" d="M140.252,154.592c-0.611,0.244-1.389,0.369-2.309,0.369c-2.133,0-4.438-0.66-5.746-1.105
				c-1.281-11.129-1.988-11.479-2.954-11.965l-0.515-0.229h-0.476c-1.135,0-2.313,0.416-4.226,5.426l-4.818,8.697
				c-1.979,1.219-5.197,1.856-9.353,1.856c-0.001,0,0,0-0.002,0c-8.681,0-18.623-2.733-18.722-2.764l-0.655-0.182l-0.63,0.254
				c-0.773,0.313-1.677,0.473-2.688,0.473c-1.783,0-3.944-0.5-6.249-1.447l-0.46-0.188c-0.606,2.977-0.229,4.643-0.229,4.643
				c2.25,2.5,12.375,1.5,12.375,1.5c20,6.5,30.375-0.5,30.375-0.5l3.5-7.375v4.375c11,5.625,14,2,14,2
				c0.411-1.396,0.739-2.852,1.01-4.332L140.252,154.592z"/>
			<path fill="#ED1F24" d="M110.974,138.221c0,0,7.75-1.332,11.167-12c0,0,3.333-5.583,6.083-2.333
				c2.75,3.25,5.25,27.833-15.5,33.583L110.974,138.221z"/>
			<path fill="#F1C119" d="M104.557,120.72c0,0-3.333,0.667-3.083,3.417l1.25,3.5c0,0,28.75-6.25,34.583-17.25l-1.957-7.542
				C135.35,102.845,134.391,110.638,104.557,120.72z"/>
			<path fill="#F1C119" d="M140.475,158.43c0.19-0.647,0.363-1.313,0.522-1.979c-4.062,1.631-10.647-1.146-10.647-1.146
				s-1.25-11.25-2-11.625s-2.5,4.25-2.5,4.25l-5.125,9.25c-8.125,5.75-30.125-0.375-30.125-0.375
				c-3.341,1.353-7.487,0.234-10.445-0.979c-0.139,1.688,0.07,2.604,0.07,2.604c2.25,2.5,12.375,1.5,12.375,1.5
				c20,6.5,30.375-0.5,30.375-0.5l3.5-7.375v4.375C137.475,162.055,140.475,158.43,140.475,158.43z"/>
			<path fill="#F1C119" d="M103.571,138.863c0,0,0.393-0.523,1.701-0.523c1.309,0,4.187,0.131,4.776-0.262
				c0,0,0.785-0.523,1.374,0.066c0.589,0.588,4.318,9.42,2.225,20.086c0,0-6.739,2.024-10.403,1.375"/>
			<path fill="#D1A311" d="M102.497,139.678c0.464-0.762,2.447-2.344,3.977,0.586c1.53,2.928,3.212,18.351-2.448,19.455
				c-5.66,1.105-3.961-11.961-3.824-12.428C100.381,146.68,101.433,141.422,102.497,139.678z"/>
			<path fill="#BF4340" d="M135.35,102.845c-0.168-0.333-0.625-0.25-0.625-0.25c0.332,0.875,0,1.458,0,1.458
				c-3.875,5.875-26,14.625-30.625,16.125s-2.5,6.5-2.5,6.5c0.031,1.563-1.11,1.59-1.719,1.359
				c-0.364-0.139-0.531-0.484-0.531-0.484s-2.313,2.375,0.375,2.625s4.006-1.998,3.563-2.875c-2.229-4.417,0-5.625,0-5.625
				c19.438-5.688,29.688-13.688,31.438-15.375c0.568-0.55,0.916-1.29,0.983-2.163C135.527,103.437,135.391,102.93,135.35,102.845z"
				/>
			<path fill="#9E7902" d="M102.811,140.357c0.367-0.707,1.933-2.174,3.141,0.545c1.208,2.717,2.537,17.033-1.933,18.061
				c-4.47,1.028-3.045-11.102-3.02-11.537C101.036,146.773,101.971,141.977,102.811,140.357z"/>
			<path fill="#F1C119" d="M96.724,123.429c-0.168,0-0.708,0.043-1.372,0.104l-2.503,0.646c0.546,1.5,0.794,2.862,0.867,4.086
				c1.113,0.047,4.123,0.094,5.633-0.711l-1.25-2.75C98.099,124.804,97.224,123.429,96.724,123.429z"/>
			<path fill="#FFFFFF" d="M107.021,146.133c-0.161-1.311-0.36-2.48-0.575-3.418c-1.145,0.018-2.097-0.098-2.097-0.098l0.438,3.625
				C105.571,146.428,106.335,146.342,107.021,146.133z"/>
			<path fill="#BF4340" d="M97.286,124.304c0.152,0.607,1.499,4.282,1.969,5.032c0.304,0.484,0.531-0.656,0.094-1.781
				c0,0-0.5-1.625-0.75-3c-0.25-1.375-1.875-1.375-1.875-1.375l-1.614,0.416C95.63,123.546,97.081,123.484,97.286,124.304z"/>
			<path fill="#FEE86E" d="M122.141,126.221c0,0,0.058-0.096,0.163-0.254c0.611-0.911,2.427-3.24,4.67-2.33
				c2.875,1.167,3.666,10.333,2.582,14.833c0,0,4.539-11.604-1.166-16.167C125.057,119.637,122.391,125.805,122.141,126.221z"/>
			<path fill="none" stroke="#540404" stroke-linecap="round" stroke-miterlimit="10" d="M96.411,130.367
				c0,0,2.063,2.563,7.625-0.438"/>
			<path fill="none" stroke="#540404" stroke-linecap="round" stroke-miterlimit="10" d="M94.849,134.367
				c0,0,2.063,2.563,7.625-0.438"/>
			<path fill="none" stroke="#540404" stroke-linecap="round" stroke-miterlimit="10" d="M93.286,138.43
				c0,0,1.813,3.188,7.375,0.188"/>
			<path fill="none" stroke="#540404" stroke-linecap="round" stroke-miterlimit="10" d="M91.661,142.742
				c0,0,1.813,3.188,7.375,0.188"/>
			<path fill="none" stroke="#540404" stroke-linecap="round" stroke-miterlimit="10" d="M89.974,147.264
				c0,0,1.75,3.666,7.313,0.666"/>
			<path fill="none" stroke="#540404" stroke-linecap="round" stroke-miterlimit="10" d="M89.224,151.514
				c0,0,1.813,3.541,7.375,0.541"/>
			<path fill="#F1C119" d="M90.479,154.695c0,0-0.797-0.644-0.881-0.353c-0.083,0.293-1.417,4.666-0.125,5.709
				c0,0,3.75,0.25,5,0.584c0,0-0.5-4.709-0.25-5.084S91.194,154.961,90.479,154.695z"/>
			<path fill="#D1A109" d="M94.495,177.408c0,0-1.458,1.709-2.375,7.168c0,0,3.375-0.166,4.417-0.979L94.495,177.408z"/>
			<path fill="#D0D2D3" d="M98.724,133.887c0,0,1.5-1.998,2.25-0.666c0.75,1.334-0.25,3.334,1.167,4.416
				c1.417,1.084-3.083-1.166-3.083-1.166L98.724,133.887z"/>
			<path fill="#D0D2D3" d="M87.583,133.887c0,0-1.5-1.998-2.25-0.666c-0.75,1.334,0.25,3.334-1.167,4.416
				c-1.417,1.084,3.083-1.166,3.083-1.166L87.583,133.887z"/>
			<path fill="#F1C119" d="M94.286,176.93c0,0,0.563,6.625,2.25,7.563c0,0,19.938,6.625,33.875,1.813c0,0,0.813-2.313,0.75-8.125
				C131.161,178.18,114.786,183.492,94.286,176.93z"/>
			<path fill="#111010" d="M99.757,146.141c0,0.857-0.505,1.558-1.129,1.558H86.946c-0.624,0-1.129-0.697-1.129-1.558v-23.02
				c0-0.859,0.505-1.555,1.129-1.555h11.682c0.624,0,1.129,0.695,1.129,1.555V146.141z"/>
			<path fill="#FFFFFF" d="M104.807,142.887c0,0-1-6.5-5.5-7c0,0-3.667-0.332-4.333,0.918c0,0-0.833,1.582,0.917,1.832
				s3.417,0.334,3.917,0.75c0,0-5.5-0.332-7,1.418c0,0-0.917,2.082,1.25,2.332s6.75-1.082,6.75,0.25
				c0,1.334,1.833,5.334,4.833,2.668C108.64,143.387,104.807,142.887,104.807,142.887z"/>
			<path fill="#F1C119" d="M82.071,138.113c0,0-0.394-0.523-1.701-0.523c-1.309,0-4.187,0.131-4.776-0.262
				c0,0-0.785-0.523-1.374,0.066c-0.589,0.588-4.318,9.42-2.225,20.086c0,0,6.739,2.024,10.403,1.375"/>
			<path fill="#D1A311" d="M83.146,138.928c-0.464-0.762-2.447-2.344-3.977,0.586c-1.53,2.928-3.212,18.351,2.448,19.455
				c5.66,1.105,3.961-11.961,3.824-12.428C85.261,145.93,84.209,140.672,83.146,138.928z"/>
			<path fill="#9E7902" d="M82.832,139.607c-0.367-0.707-1.933-2.174-3.141,0.545c-1.208,2.717-2.537,17.033,1.933,18.061
				c4.47,1.028,3.045-11.102,3.02-11.537C84.606,146.023,83.671,141.227,82.832,139.607z"/>
			<path fill="#FFFFFF" d="M78.621,145.383c0.161-1.311,0.36-2.48,0.575-3.418c1.144,0.018,2.097-0.098,2.097-0.098l-0.438,3.625
				C80.071,145.678,79.307,145.592,78.621,145.383z"/>
			<path fill="#FFFFFF" d="M80.835,142.137c0,0,1-6.5,5.5-7c0,0,3.667-0.332,4.333,0.918c0,0,0.833,1.582-0.917,1.832
				s-3.417,0.334-3.917,0.75c0,0,5.5-0.332,7,1.418c0,0,0.917,2.082-1.25,2.332s-6.75-1.082-6.75,0.25
				c0,1.334-1.833,5.334-4.833,2.668C77.002,142.637,80.835,142.137,80.835,142.137z"/>
			<circle fill="#443E3E" cx="92.578" cy="123.408" r="0.938"/>
			<path fill="#D0D2D3" d="M192.307,109.97c-7.166-0.167-13.562-17.848-21.332,0.167c-7.334,17,0.795,49.355-18.326,59.671
				c0.97-0.199,1.936-0.498,2.852-0.938c1.061-0.426,1.941-1.115,2.855-1.77c0.797-0.736,1.664-1.478,2.283-2.332
				c2.709-3.354,4.166-7.197,5.241-11.011c0.304-0.959,0.509-1.918,0.72-2.883l0.319-1.448l0.08-0.363l0.075-0.383l0.129-0.728
				c0.33-2,0.566-3.845,0.82-5.726c0.977-7.446,2.026-14.768,3.688-21.309c0.828-3.257,1.807-6.313,2.98-8.911
				c1.15-2.589,2.606-4.709,3.91-5.688c0.646-0.5,1.187-0.727,1.688-0.807c0.499-0.089,1.023-0.069,1.635,0.077
				c1.225,0.29,2.577,1.039,3.645,1.789c1.084,0.739,1.935,1.482,2.506,1.984c0.568,0.521,0.874,0.801,0.874,0.801l0.133,0.122
				c0.047,0.042,0.095,0.084,0.146,0.125c2.11,1.78,5.27,1.511,7.051-0.603c1.584-1.881,1.535-4.582,0.019-6.41
				C196.831,106.341,196.672,110.072,192.307,109.97z"/>
		</g>
		<g>
			<g>
				<path fill="#D0D2D3" d="M93.725,55.796c4.448,0,9.651,0.935,15.348,3.67c0.998-0.876,2.302-1.412,3.734-1.412
					c3.129,0,5.667,2.537,5.667,5.667c0,0.729-0.142,1.42-0.392,2.061c1.498,1.558,2.883,3.384,3.989,5.48
					c1.747-0.67,3.234-1.014,4.498-1.127c0.013-0.001,0.021-0.002,0.033-0.003c0.199-0.018,0.396-0.028,0.584-0.035
					c0.021-0.001,0.041-0.002,0.062-0.002c0.092-0.002,0.185-0.004,0.271-0.004c0.088,0,0.176,0.001,0.262,0.004
					c0.021,0,0.046,0.001,0.066,0.001c0.172,0.006,0.336,0.017,0.496,0.031c0.021,0.001,0.041,0.003,0.063,0.005
					c0.162,0.016,0.316,0.036,0.47,0.06c0.019,0.002,0.033,0.005,0.05,0.008c0.153,0.025,0.303,0.054,0.445,0.087
					c0.011,0.002,0.021,0.004,0.029,0.007c0.146,0.035,0.293,0.073,0.432,0.115c0.001,0,0.001,0,0.002,0
					c1.29,0.393,2.139,1.078,2.671,1.697c0.005,0.005,0.011,0.011,0.017,0.016c0.053,0.061,0.103,0.121,0.146,0.181
					c0.008,0.01,0.019,0.021,0.022,0.03c0.043,0.056,0.084,0.11,0.121,0.164c0.01,0.013,0.02,0.025,0.024,0.038
					c0.035,0.05,0.067,0.099,0.101,0.146c0.01,0.015,0.02,0.029,0.026,0.044c0.026,0.044,0.056,0.086,0.077,0.127
					c0.01,0.016,0.02,0.03,0.025,0.045c0.021,0.039,0.043,0.076,0.063,0.112c0.007,0.014,0.016,0.026,0.021,0.039
					c0.019,0.034,0.033,0.066,0.049,0.096c0.007,0.013,0.012,0.024,0.018,0.036c0.014,0.026,0.023,0.052,0.034,0.074
					c0.007,0.014,0.011,0.024,0.017,0.036c0.008,0.017,0.016,0.034,0.021,0.047c0.005,0.014,0.009,0.022,0.013,0.032
					c0.003,0.008,0.007,0.017,0.011,0.022c0.004,0.011,0.006,0.018,0.006,0.018c0.138,0.28,0.238,0.564,0.33,0.851
					c0.016,0.046,0.026,0.092,0.041,0.138c1.105,3.85-1.766,8.201-4.201,11.029c0.231,0.85,0.433,1.711,0.58,2.585
					c1.942,5.554,3.526,10.735,4.795,15.577c0.031-0.251,0.021-0.589-0.131-0.993c0,0,0.051-0.009,0.125-0.009
					c0.146,0,0.389,0.037,0.5,0.259c0.01,0.021,0.023,0.068,0.047,0.138c0.013,0.039,0.027,0.099,0.045,0.151
					c0.012,0.04,0.021,0.07,0.033,0.118c0.019,0.064,0.039,0.145,0.061,0.221c0.016,0.057,0.027,0.105,0.045,0.168
					c0.021,0.08,0.046,0.174,0.068,0.263c0.019,0.071,0.035,0.136,0.056,0.212c0.002,0.009,0.004,0.016,0.006,0.024l0,0
					c0.177,0.688,0.396,1.566,0.606,2.433l0.99,3.813c-0.01,0.015-0.021,0.03-0.026,0.045c0.001,0.001,0.001,0.001,0.001,0.002
					c1.066,3.578,7.924,27.821,3.773,45.748c-0.013,0.049-0.021,0.096-0.031,0.146c-0.166,0.711-0.348,1.414-0.549,2.104
					c0,0-0.553,0.647-2.016,0.971c0.528,0.367,1.063,0.733,1.628,1.092c0.657,0.414,1.331,0.818,2.041,1.201
					c1.14,0.585,2.333,1.16,3.569,1.547c1.232,0.434,2.502,0.652,3.706,0.672c0.088,0.003,0.174,0.005,0.261,0.005
					c1.115,0,2.135-0.271,3.064-0.771c0.527-0.205,0.974-0.646,1.463-0.988c0.431-0.482,0.921-0.869,1.303-1.479
					c1.66-2.216,2.816-5.354,3.582-8.683c0.229-0.815,0.371-1.685,0.521-2.547l0.229-1.297l0.06-0.324l0.049-0.308l0.09-0.662
					c0.209-1.709,0.377-3.604,0.549-5.461c0.671-7.5,1.428-15.147,2.938-22.362c0.762-3.611,1.7-7.125,3.049-10.482
					c0.674-1.678,1.461-3.319,2.445-4.896c0.987-1.571,2.152-3.098,3.694-4.412c1.511-1.315,3.425-2.384,5.438-2.863
					c1.063-0.266,2.114-0.376,3.111-0.376c0.887,0,1.729,0.087,2.496,0.229c3.285,0.644,5.479,1.923,7.158,2.95
					c1.681,1.052,2.816,1.977,3.599,2.604c0.759,0.638,1.162,0.979,1.162,0.979c0.231,0.196,0.435,0.414,0.621,0.64l0,0
					c0.147,0.179,0.271,0.371,0.392,0.563c0.043,0.068,0.092,0.133,0.129,0.202c0.101,0.178,0.178,0.362,0.252,0.548
					c0.041,0.098,0.082,0.194,0.114,0.294c0.06,0.174,0.104,0.349,0.142,0.528c0.024,0.123,0.051,0.245,0.065,0.369
					c0.021,0.165,0.037,0.329,0.046,0.496c0.006,0.145,0.002,0.289-0.007,0.434c-0.007,0.151-0.016,0.3-0.036,0.45
					c-0.021,0.166-0.062,0.328-0.102,0.491c-0.032,0.131-0.061,0.261-0.104,0.39c-0.063,0.188-0.146,0.371-0.231,0.553
					c-0.048,0.099-0.083,0.201-0.138,0.297c-0.152,0.276-0.332,0.542-0.543,0.793c-0.988,1.175-2.403,1.78-3.828,1.78
					c-1.139,0-2.282-0.387-3.224-1.177c-0.048-0.041-0.096-0.083-0.143-0.125l-0.134-0.122c0,0-0.305-0.278-0.873-0.801
					c-0.571-0.502-1.422-1.245-2.504-1.984c-1.066-0.75-2.42-1.499-3.646-1.789c-0.368-0.088-0.706-0.13-1.023-0.13
					c-0.211,0-0.412,0.018-0.608,0.053c-0.501,0.08-1.04,0.307-1.688,0.807c-1.302,0.978-2.758,3.098-3.91,5.688
					c-1.176,2.599-2.15,5.654-2.979,8.911c-1.658,6.542-2.711,13.86-3.688,21.308c-0.254,1.882-0.49,3.726-0.819,5.726l-0.13,0.728
					l-0.074,0.385l-0.08,0.361l-0.318,1.448c-0.211,0.966-0.416,1.925-0.721,2.884c-1.074,3.813-2.531,7.655-5.24,11.01
					c-0.619,0.854-1.486,1.596-2.283,2.332c-0.914,0.651-1.799,1.344-2.856,1.77c-0.463,0.223-0.938,0.406-1.421,0.563
					c-1.027,0.34-2.08,0.539-3.107,0.611c0,0,0,0-0.002,0c-0.188,0.016-0.369,0.02-0.558,0.023c-0.185,0.007-0.366,0.011-0.55,0.011
					c-0.228,0-0.449-0.006-0.67-0.021c-2.021-0.117-3.865-0.574-5.479-1.207c-1.646-0.6-3.076-1.364-4.414-2.129
					c-2.638-1.569-4.793-3.256-6.619-4.813c-0.775-0.668-1.479-1.31-2.14-1.925c-0.521,6.142-0.628,12.599-0.601,17.558
					c0.733,0.084,1.222,0.64,1.222,0.64c0.063,5.813-0.75,8.125-0.75,8.125c-0.611,0.211-1.236,0.395-1.868,0.563
					c-0.413,0.155-0.818,0.283-1.221,0.385c0.219,0.729,0.314,1.557-0.008,2.275c-0.002,0.006-0.002,0.004-0.004,0.01
					c0.002,0.002,0.006,0.008,0.006,0.008l-0.055,3c-7.213,1.252-13.16,1.672-17.896,1.672c-9.655,0-14.271-1.744-14.271-1.744
					l0.027-0.594c-3.278,0.313-6.193,0.436-8.754,0.436c-9.655,0-14.272-1.743-14.272-1.743l0.167-3.656
					c0.043,0.024,0.106,0.048,0.156,0.069c-0.234-0.213-0.187-0.438,0.24-0.68c2.526-1.416,6.025-2.115,8.144-2.434
					c-0.785-0.18-1.348-0.373-1.582-0.563c-1.375-1.125-1.875-7-1.875-7s1.026-0.744,2.158-0.744c0.147,0,0.297,0.014,0.446,0.041
					c-0.624-5.896-0.136-11.813,0.619-16.623c-3.711-0.039-8.575-1.498-8.575-1.498c-0.266-1.354-0.437-2.682-0.533-3.965
					c-5.088-15.989,6.139-22.397,14.354-24.908V123.7C68.932,121.693,55.564,110.88,53,97.175c-0.29-1.336-0.448-2.707-0.448-4.105
					c0-0.124,0.01-0.245,0.012-0.368c-0.001-0.111-0.01-0.22-0.01-0.332c0-3.945,0.895-7.719,2.515-11.203
					c-0.001,0-0.011,0.002-0.011,0.002s-5.603-10.189,1.6-10.189c1.25,0,2.888,0.308,5.007,1.029
					c0.003,0.001,0.005,0.002,0.008,0.003c3.277-3.172,7.306-5.81,11.863-7.74c-0.475,0.068-0.729,0.114-0.729,0.114
					s0.312-0.399,0.865-0.966c-0.046,0.006-0.104,0.014-0.147,0.02c1.268-1.596,2.922-3.256,5.575-3.95
					C81.223,58.281,86.47,55.795,93.725,55.796 M99.524,122.183c0.833-0.291,1.782-0.631,2.826-1.021
					c0.003-0.004,0.006-0.006,0.009-0.008c-1.048,0.391-2.001,0.731-2.839,1.022C99.521,122.179,99.523,122.181,99.524,122.183
					 M93.725,54.796c-7.453,0-12.902,2.58-15.007,3.763c-2.936,0.808-4.734,2.697-5.976,4.261l-0.871,1.097
					c-3.952,1.823-7.461,4.159-10.454,6.959c-1.861-0.593-3.462-0.895-4.76-0.895c-2.417,0-3.545,1.05-4.066,1.931
					c-1.673,2.828,0.559,7.729,1.358,9.301c-1.59,3.579-2.396,7.33-2.396,11.158c0,0.075,0.003,0.15,0.006,0.225l0.004,0.12
					l-0.005,0.099c-0.004,0.085-0.007,0.17-0.007,0.256c0,1.426,0.158,2.879,0.471,4.317c2.579,13.781,16.002,24.875,32.795,27.192
					v3.295c-4.779,1.563-10.79,4.577-13.768,10.254c-2.271,4.329-2.464,9.569-0.575,15.578c0.105,1.343,0.287,2.677,0.54,3.966
					l0.116,0.593l0.578,0.174c0.184,0.057,4.14,1.23,7.708,1.49c-0.751,5.25-0.94,10.183-0.563,14.688
					c-1.116,0.188-1.982,0.798-2.093,0.878l-0.458,0.332l0.048,0.563c0.109,1.274,0.521,5.123,1.651,6.979
					c-1.959,0.435-4.096,1.087-5.831,2.062c-0.077,0.043-0.15,0.088-0.217,0.137l-0.613-0.361l-0.076,1.661l-0.167,3.655
					l-0.033,0.727l0.679,0.256c0.196,0.074,4.9,1.809,14.626,1.809c2.455,0,5.042-0.11,7.704-0.334l-0.008,0.173l0.678,0.258
					c0.195,0.073,4.898,1.81,14.624,1.81c5.541,0,11.62-0.566,18.066-1.686l0.813-0.143l0.016-0.826l0.053-2.852
					c0.19-0.542,0.248-1.129,0.174-1.765c0.119-0.041,0.238-0.083,0.357-0.13c0.729-0.191,1.327-0.375,1.889-0.566l0.457-0.158
					l0.16-0.455c0.037-0.102,0.871-2.547,0.81-8.468l-0.004-0.368l-0.243-0.277c-0.055-0.063-0.402-0.444-0.977-0.717
					c-0.014-3.944,0.063-9.345,0.438-14.703c0.218,0.189,0.433,0.379,0.649,0.563c1.48,1.267,3.795,3.149,6.759,4.915
					c1.368,0.781,2.858,1.582,4.584,2.209c1.838,0.725,3.784,1.15,5.762,1.268c0.228,0.019,0.478,0.022,0.729,0.022
					c0.19,0,0.39-0.004,0.586-0.012l0.08-0.003c0.17-0.006,0.339-0.012,0.512-0.022c1.146-0.082,2.273-0.305,3.352-0.661
					c0.521-0.166,1.03-0.365,1.51-0.594c1.021-0.416,1.865-1.025,2.687-1.617l0.354-0.252l0.051-0.037l0.048-0.044l0.376-0.345
					c0.709-0.646,1.441-1.318,2.021-2.112c3.012-3.735,4.474-8.024,5.408-11.347c0.295-0.932,0.504-1.887,0.704-2.813l0.028-0.129
					l0.318-1.447l0.08-0.363l0.08-0.405l0.131-0.743c0.293-1.77,0.518-3.432,0.729-5.037l0.099-0.729
					c0.926-7.061,1.971-14.509,3.666-21.194c0.879-3.459,1.862-6.402,2.922-8.745c1.071-2.407,2.451-4.436,3.603-5.3
					c0.614-0.475,1.004-0.58,1.244-0.619c0.157-0.028,0.302-0.041,0.448-0.041c0.244,0,0.506,0.034,0.793,0.104
					c0.938,0.222,2.143,0.817,3.305,1.634c1.057,0.721,1.876,1.441,2.418,1.917l0.855,0.787l0.133,0.121
					c0.061,0.053,0.113,0.101,0.171,0.148c1.087,0.917,2.459,1.418,3.87,1.418c1.774,0,3.449-0.778,4.596-2.135
					c0.243-0.29,0.456-0.601,0.648-0.952c0.051-0.089,0.095-0.182,0.133-0.276l0.033-0.078c0.088-0.188,0.196-0.417,0.279-0.667
					c0.041-0.125,0.072-0.25,0.104-0.377l0.021-0.088c0.051-0.198,0.096-0.395,0.121-0.596c0.023-0.175,0.037-0.354,0.045-0.539
					c0.01-0.173,0.014-0.346,0.006-0.52c-0.009-0.198-0.025-0.394-0.053-0.59c-0.021-0.153-0.05-0.298-0.081-0.444
					c-0.051-0.238-0.104-0.44-0.168-0.632c-0.034-0.102-0.073-0.201-0.114-0.301l-0.022-0.057c-0.082-0.205-0.179-0.429-0.304-0.656
					c-0.035-0.063-0.076-0.128-0.119-0.192l-0.03-0.048c-0.138-0.221-0.285-0.452-0.476-0.68c-0.256-0.31-0.494-0.554-0.746-0.766
					l-1.162-0.979l-0.103-0.082c-0.771-0.62-1.938-1.558-3.61-2.604c-1.883-1.152-4.159-2.43-7.496-3.083
					c-0.893-0.165-1.793-0.248-2.688-0.248c-1.148,0-2.277,0.137-3.355,0.406c-2.049,0.487-4.133,1.581-5.854,3.079
					c-1.425,1.213-2.662,2.688-3.885,4.634c-0.938,1.501-1.766,3.155-2.527,5.056c-1.227,3.055-2.211,6.438-3.101,10.648
					c-1.521,7.271-2.292,15.094-2.953,22.479l-0.05,0.539c-0.151,1.651-0.309,3.36-0.495,4.891l-0.089,0.648l-0.045,0.285
					l-0.055,0.301l-0.23,1.299l-0.031,0.181c-0.141,0.804-0.271,1.563-0.47,2.274c-0.824,3.591-2.003,6.461-3.419,8.353
					l-0.024,0.033l-0.022,0.032c-0.196,0.319-0.445,0.569-0.733,0.859c-0.131,0.133-0.262,0.264-0.39,0.4
					c-0.131,0.095-0.258,0.193-0.385,0.294c-0.274,0.219-0.539,0.425-0.77,0.514l-0.059,0.022l-0.056,0.029
					c-0.813,0.437-1.661,0.646-2.594,0.646c-0.074,0-0.146-0.001-0.226-0.004c-1.141-0.02-2.313-0.229-3.412-0.616
					c-1.215-0.379-2.368-0.938-3.441-1.489c-0.584-0.313-1.214-0.688-1.965-1.158c-0.014-0.012-0.023-0.02-0.039-0.024
					c0.391-0.25,0.591-0.472,0.652-0.544l0.138-0.161l0.062-0.203c0.188-0.646,0.375-1.351,0.563-2.157l0.023-0.113
					c4.062-17.54-2.09-40.503-3.67-45.899l0.021-0.033l-0.093-0.348v-0.137l-0.049-0.048l-0.945-3.65
					c-0.209-0.857-0.432-1.738-0.605-2.43l-0.043-0.163l-0.021-0.078l-0.07-0.271l-0.021-0.078l-0.021-0.082l-0.025-0.104
					l-0.037-0.132l-0.037-0.133l-0.047-0.161c-0.049-0.156-0.092-0.256-0.114-0.302c-0.177-0.35-0.481-0.603-0.861-0.724
					c-1.211-4.447-2.67-9.115-4.346-13.906c-0.117-0.678-0.267-1.365-0.45-2.086c2.582-3.099,5.229-7.491,4.063-11.554
					c-0.014-0.047-0.029-0.107-0.049-0.166c-0.113-0.359-0.229-0.661-0.363-0.941l-0.006-0.015l-0.008-0.018l-0.021-0.049
					l-0.011-0.021l-0.047-0.104l-0.026-0.059l-0.074-0.151l-0.001-0.002l-0.023-0.046c-0.021-0.045-0.051-0.092-0.078-0.141
					l-0.049-0.085c-0.011-0.017-0.043-0.07-0.076-0.125l-0.877,0.484l0.846-0.535c-0.033-0.053-0.069-0.107-0.107-0.162
					l-0.012-0.018l-0.033-0.045c-0.039-0.056-0.08-0.113-0.125-0.171l-0.008-0.011l-0.049-0.06c-0.047-0.06-0.105-0.135-0.172-0.21
					c-0.797-0.923-1.854-1.605-3.072-1.992l-0.141-0.068h-0.088c-0.111-0.031-0.229-0.061-0.349-0.088l-0.022-0.006l-0.055-0.011
					c-0.117-0.028-0.287-0.061-0.463-0.09l-0.066-0.011c-0.158-0.025-0.332-0.047-0.515-0.065l-0.089-0.008
					c-0.158-0.015-0.345-0.026-0.535-0.033l-0.076-0.001c-0.092-0.003-0.188-0.004-0.285-0.004c-0.1,0-0.197,0.001-0.299,0.004
					l-0.084,0.003c-0.188,0.006-0.402,0.018-0.621,0.037c-1.241,0.111-2.567,0.411-3.979,0.895
					c-0.914-1.588-2.024-3.096-3.313-4.498c0.168-0.592,0.253-1.198,0.253-1.811c0-3.676-2.991-6.667-6.667-6.667
					c-1.391,0-2.741,0.438-3.868,1.243C103.913,55.974,98.798,54.796,93.725,54.796L93.725,54.796z"/>
			</g>
		</g>
	</g>
</g>
<g>
	<rect x="76.688" y="67.868" fill="#CCEEFF" width="92.473" height="28.407"/>
	<rect x="36.167" y="97.853" fill="#CCEEFF" width="173.281" height="32.825"/>
	<g>
		<path fill="#CCEEFF" d="M124.818,60.807c2.043-0.19,4.098-0.633,6.104-1.394c7.645-2.899,12.826-9.379,14.394-16.775
			c-2.062,4.482-5.817,8.189-10.824,10.083c-10.099,3.829-21.415-1.18-25.276-11.187c-3.861-10.02,1.198-21.24,11.303-25.063
			c1.809-0.687,3.665-1.08,5.514-1.215c-3.808-0.566-7.8-0.207-11.653,1.254c-11.954,4.53-17.938,17.804-13.371,29.655
			c3.188,8.265,10.675,13.634,18.96,14.601v2.044c1.617,0,3.234,0,4.849,0V60.807z"/>
		<path fill="#CCEEFF" d="M196.547,143.886c0.156-41.768-45.513-64.922-45.513-64.922c-19.262-8.126-25.792-18.4-27.827-22.908
			v-0.603c-0.554,0-1.096,0-1.624,0v0.603c-2.034,4.507-8.565,14.781-27.827,22.908c0,0-45.667,23.155-45.512,64.922
			c-0.039,0.266-0.065,0.532-0.065,0.808v10.563c2.951,0.006,5.904,0.016,8.859,0.03v-5.114h0.042
			c0.187-1.553,1.519-2.765,3.142-2.765c1.618,0,2.956,1.212,3.137,2.765v0.008c0.019,0.122,0.026,0.238,0.026,0.362
			c0,0.122-0.008,0.246-0.026,0.362v4.417c2.04,0.013,4.08,0.025,6.121,0.04v-5.008h0.047c0.184-1.559,1.516-2.767,3.137-2.767
			c1.624,0,2.958,1.208,3.142,2.767v0.004c0.015,0.12,0.023,0.242,0.023,0.362c0,0.128-0.008,0.246-0.023,0.366v4.322
			c2.039,0.015,4.078,0.029,6.118,0.042v-4.919h0.047c0.187-1.558,1.518-2.765,3.139-2.765c1.621,0,2.956,1.207,3.142,2.765v0.006
			c0.014,0.12,0.021,0.242,0.021,0.364s-0.008,0.244-0.021,0.36v4.231c2.039,0.013,4.077,0.022,6.116,0.031v-4.813h0.048
			c0.183-1.559,1.519-2.767,3.136-2.767c1.623,0,2.958,1.208,3.142,2.767v0.004c0.016,0.12,0.027,0.242,0.027,0.364
			s-0.011,0.244-0.027,0.361v4.105c2.041,0.004,4.081,0.005,6.121,0.005v-4.66h0.044c0.187-1.557,1.519-2.771,3.139-2.771
			c1.621,0,2.958,1.214,3.142,2.771v0.002c0.016,0.122,0.021,0.242,0.021,0.366c0,0.12-0.005,0.244-0.021,0.358v3.919
			c2.039-0.007,4.077-0.019,6.115-0.035v-4.431h0.048c0.183-1.556,1.519-2.769,3.139-2.769c1.621,0,2.955,1.213,3.141,2.769v0.002
			c0.015,0.122,0.025,0.242,0.025,0.366c0,0.122-0.011,0.244-0.025,0.36v3.638c2.04-0.024,4.08-0.056,6.119-0.091v-4.1h0.049
			c0.183-1.554,1.515-2.767,3.136-2.767c1.62,0,2.958,1.213,3.142,2.767v0.005c0.016,0.122,0.021,0.239,0.021,0.364
			c0,0.122-0.006,0.244-0.021,0.361v3.238c2.04-0.048,4.08-0.104,6.118-0.165v-3.625h0.048c0.184-1.555,1.515-2.767,3.139-2.767
			c1.621,0,2.952,1.212,3.139,2.767v0.008c0.015,0.116,0.025,0.24,0.025,0.362c0,0.124-0.011,0.246-0.025,0.362v2.679
			c2.04-0.076,4.08-0.161,6.119-0.252v-2.979h0.047c0.183-1.557,1.516-2.769,3.136-2.769c1.622,0,2.959,1.212,3.143,2.769v0.006
			c0.016,0.118,0.024,0.24,0.024,0.364c0,0.122-0.009,0.244-0.024,0.362v1.935c2.041-0.109,4.079-0.228,6.118-0.355v-2.13h0.044
			c0.19-1.556,1.521-2.769,3.144-2.769c1.62,0,2.958,1.213,3.139,2.769v0.005c0.016,0.117,0.022,0.239,0.022,0.361
			c0,0.124-0.007,0.247-0.022,0.362v0.977c2.04-0.146,4.079-0.306,6.118-0.474v-1.055h0.047c0.184-1.557,1.519-2.768,3.139-2.768
			c1.622,0,2.956,1.211,3.141,2.768v0.004c0.016,0.122,0.021,0.24,0.021,0.368c0,0.043-0.006,0.083-0.007,0.126
			c2.934-0.273,5.865-0.566,8.794-0.888v-6.882C196.612,144.418,196.589,144.151,196.547,143.886z"/>
		<path fill="#F7F7F7" d="M146.983,196.114c-0.084-0.748-0.683-1.328-1.411-1.328c-0.729,0-1.328,0.58-1.41,1.328h-0.021v5.306
			h2.843v-4.957c0.008-0.055,0.011-0.114,0.011-0.174C146.994,196.23,146.991,196.173,146.983,196.114L146.983,196.114z"/>
		<path fill="#F7F7F7" d="M141.147,196.114c-0.083-0.748-0.684-1.328-1.412-1.328s-1.328,0.58-1.411,1.328h-0.021v5.306h2.845
			v-4.957c0.007-0.055,0.01-0.114,0.01-0.174C141.157,196.23,141.154,196.173,141.147,196.114L141.147,196.114z"/>
		<path fill="#F7F7F7" d="M158.657,196.114c-0.083-0.748-0.683-1.328-1.412-1.328c-0.729,0-1.327,0.58-1.411,1.328h-0.021v5.306
			h2.844v-4.957c0.007-0.055,0.01-0.114,0.01-0.174C158.667,196.23,158.664,196.173,158.657,196.114L158.657,196.114z"/>
		<path fill="#F7F7F7" d="M152.82,196.114c-0.083-0.748-0.684-1.328-1.412-1.328s-1.327,0.58-1.41,1.328h-0.021v5.306h2.843v-4.957
			c0.008-0.055,0.011-0.114,0.011-0.174C152.831,196.23,152.828,196.173,152.82,196.114L152.82,196.114z"/>
		<path fill="#F7F7F7" d="M117.8,196.114c-0.083-0.748-0.684-1.328-1.412-1.328s-1.328,0.58-1.411,1.328h-0.021v5.306h2.844v-4.957
			c0.007-0.055,0.01-0.114,0.01-0.174C117.811,196.23,117.808,196.173,117.8,196.114L117.8,196.114z"/>
		<path fill="#F7F7F7" d="M135.311,196.114c-0.084-0.748-0.685-1.328-1.413-1.328c-0.728,0-1.328,0.58-1.41,1.328h-0.021v5.306
			h2.845v-4.957c0.008-0.055,0.009-0.114,0.009-0.174C135.319,196.23,135.318,196.173,135.311,196.114L135.311,196.114z"/>
		<path fill="#CCEEFF" d="M60.604,184.364c-0.048-12.916,13.95-20.074,13.95-20.074c5.904-2.514,7.905-5.689,8.529-7.084v-2.37
			h-0.498c-0.432,0-0.797-0.277-0.934-0.664h-0.144c-0.549,0-0.995-0.444-0.995-0.993v-0.333c0-0.549,0.445-0.993,0.995-0.993h0.083
			c0-0.551,0.446-0.997,0.995-0.997h0.498v-5.819c-0.424-0.078-0.746-0.45-0.746-0.896c0-0.447,0.322-0.819,0.746-0.896v-2.216
			c-0.851-0.101-1.619-0.657-1.946-1.513c-0.469-1.227,0.146-2.601,1.372-3.07c0.396-0.149,0.806-0.188,1.196-0.13
			c-0.189,0.016-0.38,0.056-0.565,0.126c-1.037,0.396-1.557,1.558-1.16,2.595c0.396,1.038,1.558,1.556,2.594,1.16
			c0.513-0.196,0.899-0.581,1.11-1.045c-0.16,0.766-0.692,1.437-1.477,1.736c-0.206,0.079-0.417,0.124-0.626,0.145v2.212
			c0.424,0.077,0.746,0.449,0.746,0.896c0,0.445-0.322,0.817-0.746,0.896v5.819h0.498c0.55,0,0.995,0.446,0.995,0.997h0.083
			c0.55,0,0.995,0.444,0.995,0.993v0.333c0,0.549-0.445,0.993-0.995,0.993h-0.144c-0.137,0.387-0.501,0.664-0.934,0.664h-0.498v2.37
			c0.624,1.395,2.625,4.57,8.53,7.084c0,0,13.998,7.158,13.95,20.074c0.012,0.082,0.02,0.165,0.02,0.25v6.11h1.945v1.076h1.628
			v-1.076h1.945v1.076h1.627v-1.076h1.945v1.076h1.628v-1.076h1.945v1.076h1.626v-1.076h1.946v1.076h1.626v-1.076h1.946v1.076h1.627
			v-1.076h1.945v1.076h1.627v-1.076h1.946v1.076h1.627v-1.076h1.945v1.076h1.627v-1.076h1.946v1.076h1.627v-1.076h1.945v1.076h1.627
			v-1.076h1.946v1.076h1.627v-1.076h1.945v1.076h1.627v-1.076h1.945v1.076h1.629v-1.076h1.944v1.076h1.628v-1.076h1.945v-23.692
			h-4.12v-1.488h2.348v-0.8h1.772v-11.327h-1.89v-1.372h-2.23v-1.831h2.371c0.102-6.572,7.218-10.212,7.218-10.212
			c3-1.276,4.053-2.886,4.396-3.625h-1.548v-0.602h0.318c-0.051-0.079-0.083-0.175-0.083-0.277v-0.173
			c0-0.283,0.229-0.514,0.515-0.514h0.044c0-0.284,0.23-0.516,0.515-0.516h0.257v-6.436c0-0.071,0.058-0.128,0.129-0.128
			s0.128,0.057,0.128,0.128v6.436h0.259c0.283,0,0.515,0.231,0.515,0.516h0.042c0.284,0,0.516,0.23,0.516,0.514v0.173
			c0,0.103-0.03,0.198-0.084,0.277h0.319v0.602h-1.547c0.342,0.739,1.395,2.349,4.395,3.625c0,0,7.116,3.64,7.218,10.212h2.369
			v1.831h-2.23v1.372h-1.888v11.327h1.774v0.8h2.344v1.488h-4.118v29.91c9.738-12.622,15.534-28.443,15.534-45.619
			c0-41.288-33.47-74.757-74.756-74.757c-41.288,0-74.758,33.47-74.758,74.757c0,15.581,4.77,30.049,12.925,42.025v-8.734
			C60.585,184.529,60.592,184.446,60.604,184.364z"/>
		<path fill="#F7F7F7" d="M111.963,196.114c-0.082-0.748-0.683-1.328-1.411-1.328c-0.729,0-1.329,0.58-1.411,1.328h-0.021v5.306
			h2.843v-4.957c0.007-0.055,0.01-0.114,0.01-0.174C111.973,196.23,111.97,196.173,111.963,196.114L111.963,196.114z"/>
		<path fill="#F7F7F7" d="M129.474,196.114c-0.083-0.748-0.683-1.328-1.412-1.328c-0.729,0-1.327,0.58-1.41,1.328h-0.022v5.306
			h2.845v-4.957c0.007-0.055,0.01-0.114,0.01-0.174C129.483,196.23,129.48,196.173,129.474,196.114L129.474,196.114z"/>
		<path fill="#F7F7F7" d="M123.636,196.114c-0.082-0.748-0.682-1.328-1.412-1.328c-0.728,0-1.327,0.58-1.41,1.328h-0.02v5.306h2.842
			v-4.957c0.007-0.055,0.011-0.114,0.011-0.174C123.647,196.23,123.644,196.173,123.636,196.114L123.636,196.114z"/>
		<path fill="#FFCC77" d="M106.119,211.996h-0.038H88.083v-9.69h-0.05c0.138-2.785-2.891-4.335-2.891-4.335
			c-1.521-0.647-1.79-1.496-1.817-1.598l-0.001-0.021c0,0-0.002,0.007-0.002,0.009c0-0.002-0.002-0.009-0.002-0.009l-0.001,0.021
			c-0.027,0.1-0.297,0.95-1.819,1.598c0,0-3.026,1.55-2.889,4.335v9.597c12.311,8.917,27.443,14.179,43.807,14.179
			c16.306,0,31.39-5.225,43.677-14.085h-4.477H106.119z"/>
		<path fill="#F7F7F7" d="M180.147,156.055c0.006-0.084,0.009-0.169,0.009-0.258c0-0.088-0.003-0.174-0.009-0.259v-0.003
			c-0.081-1.112-0.662-1.974-1.371-1.974c-0.706,0-1.289,0.861-1.368,1.974h-0.021v7.891h2.76V156.055z"/>
		<path fill="#F7F7F7" d="M175.341,156.055c0.007-0.084,0.011-0.169,0.011-0.258c0-0.088-0.004-0.174-0.011-0.259v-0.003
			c-0.079-1.112-0.663-1.974-1.369-1.974s-1.289,0.861-1.369,1.974h-0.021v7.891h2.759V156.055z"/>
		<path fill="#F7F7F7" d="M165.73,155.535c-0.081-1.112-0.662-1.974-1.369-1.974c-0.708,0-1.289,0.861-1.368,1.974h-0.021v7.891
			h2.759v-7.371c0.008-0.084,0.01-0.169,0.01-0.258c0-0.088-0.002-0.174-0.01-0.259V155.535z"/>
		<path fill="#F7F7F7" d="M170.536,155.535c-0.081-1.112-0.664-1.974-1.37-1.974c-0.707,0-1.287,0.861-1.368,1.974h-0.021v7.891
			h2.759v-7.371c0.006-0.084,0.009-0.169,0.009-0.258c0-0.088-0.003-0.174-0.009-0.259V155.535z"/>
		<path fill="#0F75BC" d="M181.64,196.942v-29.91h4.118v-1.488h-2.344v-0.8h-1.774v-11.327h1.888v-1.372h2.23v-1.831h-2.369
			c-0.102-6.572-7.218-10.212-7.218-10.212c-3-1.276-4.053-2.886-4.395-3.625h1.547v-0.602h-0.319
			c0.054-0.079,0.084-0.175,0.084-0.277v-0.173c0-0.283-0.231-0.514-0.516-0.514h-0.042c0-0.284-0.231-0.516-0.515-0.516h-0.259
			v-6.436c0-0.071-0.057-0.128-0.128-0.128s-0.129,0.057-0.129,0.128v6.436h-0.257c-0.284,0-0.515,0.231-0.515,0.516h-0.044
			c-0.285,0-0.515,0.23-0.515,0.514v0.173c0,0.103,0.032,0.198,0.083,0.277h-0.318v0.602h1.548
			c-0.343,0.739-1.396,2.349-4.396,3.625c0,0-7.116,3.64-7.218,10.212h-2.371v1.831h2.23v1.372h1.89v11.327h-1.772v0.8h-2.348v1.488
			h4.12v23.692v1.076v0.982v19.213h4.477C171.976,207.756,177.215,202.679,181.64,196.942z"/>
		<path fill="#77D4FF" d="M159.673,191.801h-1.628v-1.076h-1.944v1.076h-1.629v-1.076h-1.945v1.076h-1.627v-1.076h-1.945v1.076
			h-1.627v-1.076h-1.946v1.076h-1.627v-1.076h-1.945v1.076h-1.627v-1.076h-1.946v1.076h-1.627v-1.076h-1.945v1.076h-1.627v-1.076
			h-1.946v1.076h-1.627v-1.076h-1.945v1.076h-1.627v-1.076h-1.946v1.076h-1.626v-1.076h-1.946v1.076h-1.626v-1.076H116.8v1.076
			h-1.628v-1.076h-1.945v1.076H111.6v-1.076h-1.945v1.076h-1.628v-1.076h-1.945v1.076v0.982v14.336h0.038v4.877h55.499v-19.213
			v-0.982v-1.076h-1.945V191.801z"/>
		<polygon fill="#00AEEF" points="99.357,139.963 101.442,138.866 103.526,139.963 103.128,137.64 104.816,135.996 102.485,135.659 
			101.442,133.546 100.4,135.659 98.068,135.996 99.755,137.64 		"/>
		<polygon fill="#00AEEF" points="114.956,176.579 113.914,178.69 111.583,179.031 113.27,180.675 112.872,182.996 114.956,181.899 
			117.041,182.996 116.644,180.675 118.33,179.031 115.999,178.69 		"/>
		<polygon fill="#00AEEF" points="63.3,148.918 62.257,151.029 59.926,151.368 61.613,153.014 61.214,155.335 63.3,154.238 
			65.384,155.335 64.985,153.014 66.673,151.368 64.341,151.029 		"/>
		<path fill="#00AEEF" d="M140.287,175.172c7.011-2.681,11.767-8.678,13.197-15.519c-1.885,4.145-5.334,7.577-9.921,9.33
			c-9.262,3.543-19.637-1.095-23.181-10.353c-3.538-9.264,1.097-19.641,10.358-23.181c1.663-0.638,3.369-0.998,5.06-1.126
			c-3.491-0.52-7.157-0.188-10.688,1.163c-10.959,4.188-16.448,16.469-12.257,27.43
			C117.046,173.875,129.326,179.362,140.287,175.172z"/>
		<path fill="#00AEEF" d="M81.499,197.971c1.522-0.647,1.792-1.498,1.819-1.598l0.001-0.021c0,0,0.002,0.007,0.002,0.009
			c0-0.002,0.002-0.009,0.002-0.009l0.001,0.021c0.027,0.102,0.297,0.95,1.817,1.598c0,0,3.028,1.55,2.891,4.335h0.05v9.69h17.999
			v-4.877v-14.336v-0.982v-1.076v-6.11c0-0.085-0.007-0.168-0.02-0.25c0.048-12.916-13.95-20.074-13.95-20.074
			c-5.904-2.514-7.906-5.689-8.53-7.084v-2.37h0.498c0.433,0,0.797-0.277,0.934-0.664h0.144c0.55,0,0.995-0.444,0.995-0.993v-0.333
			c0-0.549-0.445-0.993-0.995-0.993h-0.083c0-0.551-0.445-0.997-0.995-0.997h-0.498v-5.819c0.424-0.078,0.746-0.45,0.746-0.896
			c0-0.447-0.322-0.819-0.746-0.896v-2.212c0.21-0.021,0.42-0.065,0.626-0.145c0.785-0.3,1.317-0.971,1.477-1.736
			c-0.211,0.464-0.597,0.849-1.11,1.045c-1.037,0.396-2.198-0.122-2.594-1.16c-0.396-1.037,0.123-2.198,1.16-2.595
			c0.186-0.07,0.376-0.11,0.565-0.126c-0.39-0.059-0.801-0.02-1.196,0.13c-1.226,0.47-1.841,1.844-1.372,3.07
			c0.328,0.855,1.096,1.412,1.946,1.513v2.216c-0.424,0.077-0.746,0.449-0.746,0.896c0,0.445,0.322,0.817,0.746,0.896v5.819h-0.498
			c-0.549,0-0.995,0.446-0.995,0.997h-0.083c-0.549,0-0.995,0.444-0.995,0.993v0.333c0,0.549,0.445,0.993,0.995,0.993h0.144
			c0.137,0.387,0.502,0.664,0.934,0.664h0.498v2.37c-0.624,1.395-2.625,4.57-8.529,7.084c0,0-13.998,7.158-13.95,20.074
			c-0.012,0.082-0.02,0.165-0.02,0.25v8.734c4.89,7.18,10.997,13.462,18.025,18.554v-9.597
			C78.473,199.521,81.499,197.971,81.499,197.971z M101.442,186.863h0.015c0.057-0.48,0.465-0.856,0.962-0.856
			c0.497,0,0.906,0.376,0.962,0.856v0.002c0.005,0.037,0.007,0.074,0.007,0.112c0,0.037-0.002,0.074-0.007,0.111v3.197h-1.939
			V186.863z M97.628,186.808h0.014c0.058-0.48,0.466-0.856,0.963-0.856c0.497,0,0.907,0.376,0.962,0.856v0.002
			c0.005,0.037,0.008,0.074,0.008,0.113c0,0.036-0.002,0.075-0.008,0.11v3.197h-1.938V186.808z M93.813,186.752h0.015
			c0.057-0.48,0.465-0.856,0.962-0.856c0.497,0,0.906,0.376,0.963,0.856v0.002c0.004,0.037,0.007,0.074,0.007,0.113
			c0,0.037-0.002,0.073-0.007,0.11v3.198h-1.939V186.752z M89.999,186.697h0.015c0.056-0.481,0.464-0.856,0.961-0.856
			c0.497,0,0.906,0.375,0.963,0.856v0.001c0.004,0.037,0.007,0.074,0.007,0.113s-0.002,0.076-0.007,0.111v3.197h-1.939V186.697z
			 M86.185,186.642h0.014c0.057-0.481,0.466-0.856,0.962-0.856c0.497,0,0.907,0.375,0.963,0.856v0.002
			c0.005,0.036,0.007,0.073,0.007,0.112c0,0.037-0.002,0.076-0.007,0.111v3.197h-1.939V186.642z M82.371,186.586h0.014
			c0.057-0.481,0.465-0.856,0.962-0.856c0.497,0,0.906,0.375,0.962,0.856v0.002c0.005,0.037,0.007,0.074,0.007,0.112
			c0,0.039-0.002,0.076-0.007,0.113v3.195h-1.938V186.586z M65.237,186.536v3.197H63.3v-3.425h0.013
			c0.057-0.481,0.465-0.854,0.962-0.854c0.497,0,0.907,0.373,0.962,0.854v0.002c0.006,0.038,0.007,0.073,0.007,0.112
			S65.243,186.499,65.237,186.536z M69.052,186.592v3.195h-1.939v-3.423h0.015c0.057-0.481,0.465-0.854,0.962-0.854
			c0.497,0,0.906,0.373,0.962,0.854v0.001c0.004,0.037,0.007,0.076,0.007,0.113C69.06,186.518,69.057,186.555,69.052,186.592z
			 M72.867,186.646v3.196h-1.939v-3.424h0.014c0.057-0.48,0.465-0.854,0.962-0.854c0.497,0,0.906,0.374,0.963,0.854v0.002
			c0.004,0.037,0.006,0.076,0.006,0.113C72.874,186.573,72.871,186.609,72.867,186.646z M76.681,186.702v3.196h-1.939v-3.424h0.015
			c0.057-0.48,0.465-0.854,0.961-0.854c0.498,0,0.907,0.374,0.963,0.854v0.002c0.005,0.037,0.007,0.076,0.007,0.113
			C76.688,186.628,76.686,186.665,76.681,186.702z M78.556,186.53h0.014c0.057-0.48,0.465-0.856,0.962-0.856
			c0.497,0,0.906,0.376,0.962,0.856v0.002c0.005,0.037,0.007,0.074,0.007,0.112c0,0.037-0.002,0.076-0.007,0.111v3.197h-1.939
			V186.53z"/>
		<rect x="106.081" y="207.119" fill="#00AEEF" width="0.038" height="4.877"/>
		<path fill="#0F75BC" d="M76.681,186.475c-0.057-0.48-0.466-0.854-0.963-0.854c-0.496,0-0.905,0.374-0.961,0.854h-0.015v3.424
			h1.939v-3.196c0.005-0.037,0.007-0.074,0.007-0.112c0-0.037-0.002-0.076-0.007-0.113V186.475z"/>
		<path fill="#0F75BC" d="M72.867,186.419c-0.057-0.48-0.467-0.854-0.963-0.854c-0.497,0-0.905,0.374-0.962,0.854h-0.014v3.424
			h1.939v-3.196c0.004-0.037,0.006-0.073,0.006-0.112c0-0.037-0.002-0.076-0.006-0.113V186.419z"/>
		<path fill="#0F75BC" d="M80.495,186.756c0.005-0.035,0.007-0.074,0.007-0.111c0-0.038-0.002-0.075-0.007-0.112v-0.002
			c-0.056-0.48-0.466-0.856-0.962-0.856c-0.497,0-0.906,0.376-0.962,0.856h-0.014v3.423h1.939V186.756z"/>
		<path fill="#0F75BC" d="M84.309,186.813c0.005-0.037,0.007-0.074,0.007-0.113c0-0.038-0.002-0.075-0.007-0.112v-0.002
			c-0.056-0.481-0.465-0.856-0.962-0.856c-0.497,0-0.906,0.375-0.962,0.856h-0.014v3.423h1.938V186.813z"/>
		<path fill="#0F75BC" d="M69.052,186.364c-0.057-0.481-0.466-0.854-0.962-0.854c-0.497,0-0.905,0.373-0.962,0.854h-0.015v3.423
			h1.939v-3.195c0.004-0.037,0.007-0.074,0.007-0.113C69.06,186.441,69.057,186.402,69.052,186.364L69.052,186.364z"/>
		<path fill="#0F75BC" d="M65.237,186.309c-0.055-0.481-0.465-0.854-0.962-0.854c-0.497,0-0.905,0.373-0.962,0.854H63.3v3.425h1.938
			v-3.197c0.006-0.037,0.007-0.074,0.007-0.113s-0.001-0.074-0.007-0.112V186.309z"/>
		<path fill="#0F75BC" d="M99.566,187.033c0.005-0.035,0.008-0.074,0.008-0.11c0-0.039-0.002-0.076-0.008-0.113v-0.002
			c-0.055-0.48-0.465-0.856-0.962-0.856c-0.497,0-0.905,0.376-0.963,0.856h-0.014v3.423h1.938V187.033z"/>
		<path fill="#0F75BC" d="M88.124,186.867c0.005-0.035,0.007-0.074,0.007-0.111c0-0.039-0.002-0.076-0.007-0.112v-0.002
			c-0.056-0.481-0.466-0.856-0.963-0.856c-0.496,0-0.905,0.375-0.962,0.856h-0.014v3.423h1.939V186.867z"/>
		<path fill="#0F75BC" d="M103.381,187.089c0.005-0.037,0.007-0.074,0.007-0.111c0-0.038-0.002-0.075-0.007-0.112v-0.002
			c-0.057-0.48-0.466-0.856-0.962-0.856c-0.497,0-0.906,0.376-0.962,0.856h-0.015v3.423h1.939V187.089z"/>
		<path fill="#0F75BC" d="M95.753,186.978c0.004-0.037,0.007-0.073,0.007-0.11c0-0.039-0.002-0.076-0.007-0.113v-0.002
			c-0.057-0.48-0.466-0.856-0.963-0.856c-0.497,0-0.905,0.376-0.962,0.856h-0.015v3.424h1.939V186.978z"/>
		<path fill="#0F75BC" d="M91.938,186.923c0.004-0.035,0.007-0.072,0.007-0.111s-0.002-0.076-0.007-0.113v-0.001
			c-0.057-0.481-0.466-0.856-0.963-0.856c-0.497,0-0.906,0.375-0.961,0.856h-0.015v3.423h1.939V186.923z"/>
		<path fill="#CCEEFF" d="M111.963,196.463v4.957h-2.843v-5.306h0.021c0.082-0.748,0.682-1.328,1.411-1.328
			c0.728,0,1.33,0.58,1.411,1.328v0.001c0.007,0.058,0.01,0.115,0.01,0.174C111.973,196.349,111.97,196.408,111.963,196.463z"/>
		<path fill="#CCEEFF" d="M117.8,196.463v4.957h-2.844v-5.306h0.021c0.083-0.748,0.682-1.328,1.411-1.328s1.329,0.58,1.412,1.328
			v0.001c0.007,0.058,0.01,0.115,0.01,0.174C117.811,196.349,117.808,196.408,117.8,196.463z"/>
		<path fill="#CCEEFF" d="M123.636,196.463v4.957h-2.842v-5.306h0.02c0.083-0.748,0.682-1.328,1.41-1.328
			c0.73,0,1.33,0.58,1.412,1.328v0.001c0.007,0.058,0.011,0.115,0.011,0.174C123.647,196.349,123.644,196.408,123.636,196.463z"/>
		<path fill="#CCEEFF" d="M129.474,196.463v4.957h-2.845v-5.306h0.022c0.083-0.748,0.682-1.328,1.41-1.328
			c0.729,0,1.329,0.58,1.412,1.328v0.001c0.007,0.058,0.01,0.115,0.01,0.174C129.483,196.349,129.48,196.408,129.474,196.463z"/>
		<path fill="#CCEEFF" d="M135.311,196.463v4.957h-2.845v-5.306h0.021c0.082-0.748,0.683-1.328,1.41-1.328
			c0.729,0,1.329,0.58,1.413,1.328v0.001c0.008,0.058,0.009,0.115,0.009,0.174C135.319,196.349,135.318,196.408,135.311,196.463z"/>
		<path fill="#CCEEFF" d="M141.147,196.463v4.957h-2.845v-5.306h0.021c0.083-0.748,0.683-1.328,1.411-1.328s1.329,0.58,1.412,1.328
			v0.001c0.007,0.058,0.01,0.115,0.01,0.174C141.157,196.349,141.154,196.408,141.147,196.463z"/>
		<path fill="#CCEEFF" d="M146.983,196.463v4.957h-2.843v-5.306h0.021c0.082-0.748,0.681-1.328,1.41-1.328
			c0.729,0,1.327,0.58,1.411,1.328v0.001c0.008,0.058,0.011,0.115,0.011,0.174C146.994,196.349,146.991,196.408,146.983,196.463z"/>
		<path fill="#CCEEFF" d="M152.82,196.463v4.957h-2.843v-5.306h0.021c0.083-0.748,0.682-1.328,1.41-1.328s1.329,0.58,1.412,1.328
			v0.001c0.008,0.058,0.011,0.115,0.011,0.174C152.831,196.349,152.828,196.408,152.82,196.463z"/>
		<path fill="#CCEEFF" d="M158.657,196.463v4.957h-2.844v-5.306h0.021c0.084-0.748,0.683-1.328,1.411-1.328
			c0.729,0,1.329,0.58,1.412,1.328v0.001c0.007,0.058,0.01,0.115,0.01,0.174C158.667,196.349,158.664,196.408,158.657,196.463z"/>
		<path fill="#CCEEFF" d="M177.388,155.535h0.021c0.079-1.112,0.662-1.974,1.368-1.974c0.709,0,1.29,0.861,1.371,1.974v0.003
			c0.006,0.085,0.009,0.171,0.009,0.259c0,0.089-0.003,0.174-0.009,0.258v7.371h-2.76V155.535z"/>
		<path fill="#CCEEFF" d="M165.73,156.055v7.371h-2.759v-7.891h0.021c0.079-1.112,0.66-1.974,1.368-1.974
			c0.707,0,1.288,0.861,1.369,1.974v0.003c0.008,0.085,0.01,0.171,0.01,0.259C165.74,155.886,165.738,155.971,165.73,156.055z"/>
		<path fill="#CCEEFF" d="M170.536,156.055v7.371h-2.759v-7.891h0.021c0.081-1.112,0.661-1.974,1.368-1.974
			c0.706,0,1.289,0.861,1.37,1.974v0.003c0.006,0.085,0.009,0.171,0.009,0.259C170.545,155.886,170.542,155.971,170.536,156.055z"/>
		<path fill="#CCEEFF" d="M172.582,155.535h0.021c0.08-1.112,0.663-1.974,1.369-1.974s1.29,0.861,1.369,1.974v0.003
			c0.007,0.085,0.011,0.171,0.011,0.259c0,0.089-0.004,0.174-0.011,0.258v7.371h-2.759V155.535z"/>
	</g>
	<g>
		<path fill="#00AEEF" d="M96.417,71.377v21.3h-4.1v-9.168H85.06v9.168h-4.098v-21.3h4.098v8.503h7.257v-8.503H96.417z"/>
		<path fill="#00AEEF" d="M110.211,71.377l5.955,21.3h-4.292l-1.523-5.623h-5.706l-1.468,5.623h-4.155l6.038-21.3H110.211z
			 M105.226,83.952h4.543l-1.274-4.847c-0.332-1.33-0.693-3.046-0.969-4.349h-0.083c-0.277,1.33-0.637,3.075-0.942,4.321
			L105.226,83.952z"/>
		<path fill="#00AEEF" d="M118.939,92.677V71.654c1.33-0.249,3.157-0.443,5.511-0.443c2.687,0,4.708,0.527,6.065,1.69
			c1.273,1.08,2.05,2.797,2.05,4.764c0,5.844-4.874,7.146-8.06,7.146c-0.582,0-1.081-0.028-1.497-0.11v7.977H118.939z
			 M123.009,81.487c0.389,0.083,0.832,0.11,1.441,0.11c2.548,0,4.045-1.44,4.045-3.739c0-2.271-1.442-3.462-3.712-3.462
			c-0.832,0-1.413,0.083-1.774,0.166V81.487z"/>
		<path fill="#00AEEF" d="M135.559,92.677V71.654c1.329-0.249,3.157-0.443,5.512-0.443c2.687,0,4.709,0.527,6.066,1.69
			c1.273,1.08,2.049,2.797,2.049,4.764c0,5.844-4.874,7.146-8.06,7.146c-0.582,0-1.08-0.028-1.496-0.11v7.977H135.559z
			 M139.63,81.487c0.389,0.083,0.831,0.11,1.44,0.11c2.548,0,4.044-1.44,4.044-3.739c0-2.271-1.44-3.462-3.712-3.462
			c-0.83,0-1.412,0.083-1.772,0.166V81.487z"/>
		<path fill="#00AEEF" d="M162.177,71.377h4.515l-6.315,12.492v8.808h-4.099v-8.669l-6.038-12.63h4.57l2.105,5.235
			c0.609,1.523,1.106,2.853,1.606,4.32h0.056c0.415-1.412,0.94-2.797,1.55-4.348L162.177,71.377z"/>
		<path fill="#0F75BC" d="M54.764,122.14v3.94H41.1v-24.435h13.155v3.94h-8.452v5.91h7.975v3.845h-7.975v6.8H54.764z"/>
		<path fill="#0F75BC" d="M58.385,126.08v-24.435h4.703v24.435H58.385z"/>
		<path fill="#0F75BC" d="M67.854,101.963c1.716-0.318,3.939-0.508,6.323-0.508c4.067,0,6.832,0.858,8.865,2.542
			c2.32,1.906,3.686,4.925,3.686,9.342c0,5.243-1.811,8.293-3.686,9.977c-2.224,2.002-5.624,2.987-9.882,2.987
			c-2.256,0-4.067-0.158-5.306-0.317V101.963z M72.524,122.458c0.476,0.095,1.175,0.095,1.812,0.095
			c4.48,0.032,7.467-2.732,7.467-9.151c0-5.529-2.701-8.262-7.054-8.262c-0.985,0-1.715,0.095-2.224,0.191V122.458z"/>
		<path fill="#0F75BC" d="M108.205,101.645l6.832,24.435h-4.925l-1.748-6.45h-6.545l-1.685,6.45h-4.766l6.927-24.435H108.205z
			 M102.487,116.071h5.209l-1.461-5.561c-0.381-1.525-0.794-3.495-1.112-4.988h-0.095c-0.318,1.525-0.73,3.526-1.08,4.956
			L102.487,116.071z"/>
		<path fill="#0F75BC" d="M131.654,122.109v3.971h-13.44v-24.435h4.703v20.464H131.654z"/>
		<path fill="#0F75BC" d="M133.497,118.009v-3.242h8.706v3.242H133.497z"/>
		<path fill="#0F75BC" d="M150.369,126.08h-4.703v-24.435h13.092v3.94h-8.389v6.45h7.816v3.845h-7.816V126.08z"/>
		<path fill="#0F75BC" d="M162.729,126.08v-24.435h4.703v24.435H162.729z"/>
		<path fill="#0F75BC" d="M186.972,101.645v4.067h-6.038v20.368h-4.702v-20.368h-6.006v-4.067H186.972z"/>
		<path fill="#0F75BC" d="M189.735,101.963c1.62-0.286,3.908-0.508,6.291-0.508c3.082,0,9.311,0.381,9.311,6.927
			c0,2.987-1.907,5.179-4.194,6.069v0.095c1.716,0.667,2.669,2.32,3.24,4.798c0.699,2.891,1.335,5.815,1.812,6.736h-4.83
			c-0.349-0.7-0.952-2.828-1.525-5.783c-0.635-3.146-1.62-4.13-3.845-4.13h-1.589v9.914h-4.67V101.963z M194.405,112.671h1.938
			c2.67,0,4.29-1.557,4.29-3.876c0-3.146-2.352-3.75-4.067-3.75c-1.048,0-1.779,0.063-2.161,0.19V112.671z"/>
	</g>
</g>
</svg>
