<svg xmlns="http://www.w3.org/2000/svg" width="250" height="250" viewBox="0 0 250 250"><g opacity=".15"><path d="M33.3 87.473c3.978 1.458 8.293-3.198 10.395-2.34 0 0-1.043-2.375-1.776-3.467-1.86-2.765-6.01-4.49-6.01-4.49-.94-.446-1.98-.65-3.12-.474-1.22.19-2.05.77-2.71 1.747.04-.15.07-.22.07-.22-.15.22-.28.45-.39.69l-.03.03-.01.03c-1.38 3.02.15 7.22 3.55 8.47zm19.793-3.067s.66-1.138.845-1.776c.18-.638.247-1.06.247-1.06.076-1.466.29-3-.794-4.035-.52-.505-1.11-.695-1.67-.664 0 0-.21.05-.56.27.34-.22.55-.27.55-.27-1.85.11-3.33 2.19-2.74 4.1.64 2.04 3.83 2.35 4.13 3.45zm-.755-1.244c.552.182.796-.036.95-.146-.155.11-.395.334-.95.146z"/><path d="M200.41 172.31c1.807-2.79 3.445-5.698 4.884-8.725.745 1.008 1.933 1.67 3.282 1.67 2.232 0 4.042-1.793 4.084-4.017l.007-.004-.002-.047c0-.01.003-.02.003-.026 0-.02-.006-.03-.006-.06-.006-3.87-3.275-6.81-3.594-7.09 1.117-3.5 1.98-7.12 2.586-10.83 1.007.4 2.102.63 3.252.63 4.854 0 8.79-3.93 8.79-8.79 0-.73-.1-1.44-.27-2.12h.005l-.03-.12c-.06-.23-.13-.47-.21-.69-2.5-8.02-11.2-12.15-11.3-12.2-.13-.92-.29-1.84-.45-2.75 3.03-2.7 4.94-6.62 4.94-10.99 0-1.66-.28-3.25-.79-4.74l.01-.01c-4.74-13.91-20.69-19.97-21.15-20.15l-.38-.43.67-.6 1.42-1.2c1.87 1.4 4.23 2.25 6.59 2.25.77 0 1.53-.09 2.26-.28 2.29-.58 4.35-1.8 5.97-3.51.22-.03.44-.07.67-.11 4.01-.72 6.41-3.19 7.56-4.38l.27-.27c1.73-1.68 2.47-3.91 2-5.98-.4-1.76-1.64-3.15-3.27-3.69-.41-.15-1.05-.34-1.89-.34-1.42 0-2.74.54-3.9 1.59-.73-.85-1.69-1.61-2.8-2.05-1.34-1.4-3.13-2.16-5.15-2.16-1.14 0-2.33.24-3.63.74-1.29.5-2.39 1.23-3.31 2.01-.9-.62-1.98-1.13-3.09-1.34-.44-.08-1.03-.18-1.68-.18-.46 0-.91.05-1.34.15-1.01-.53-2.16-.94-3.35-1.17-.46-.08-.92-.13-1.37-.13-2.99 0-5.09 1.86-6.47 3.09-.19.17-.38.35-.57.53-.37-.35-.79-.69-1.28-1.03-1-.68-2.37-1.46-4.15-1.46-.51 0-1.02.06-1.54.19-.79.2-1.44.55-2.1 1.01-.44-.22-.87-.45-1.31-.66.97-.97 2-2 2.97-2.98l1.81-1.82c2.25-2.25 4.03-4.5 4.86-6.18.79-1.58 1.66-4.71-1.41-7.96-1.4-1.48-3.94-3.11-6.87-3.25l-.18-.01c-.27-.01-.53-.03-.79-.03-3.05 0-5.29 1.59-8.36 4.5-2.69 2.57-6.47 8.05-8.99 11.93-5.2-1.11-10.59-1.71-16.12-1.71-1.84 0-3.66.09-5.48.22l5.02-19.34-5.77-.36c-1.22-.08-2.25-.11-3.24-.11-22.94 0-41.6 15.19-41.6 33.85 0 .27.02.54.03.8l.01.04c-.02.57-.01 1.12 0 1.68-2.05.58-4.2.85-6.22.94-.89.04-1.78.06-2.65.06-4.38 0-8.38-.4-10.97-.74l-4.24-.56-4.37 17.76-.38-.09-1.01.07c-2.8.2-10.53.75-12.31.88h-.05l-.29.02-.04.01c-.04.06-13.68 59.79-13.68 59.79l9.97 8.49 21.71 4.85 5.33-1.28c3.12 7.18 7.3 13.78 12.36 19.62l-20.17 9.31 2.39 23.55c74.26-12.18 162.96 9.08 162.96 9.08l1.56-47.04c-8.21-1.56-16.44-2.67-24.59-3.4zm8.372-17.45c.077-.233.16-.464.235-.698-.027.218-.11.452-.235.697zm3.187-34.293c-.02-.124-.03-.25-.05-.373.02.122.04.24.05.373z"/></g><circle fill="#FFDD50" cx="133.139" cy="127.787" r="76.53"/><path fill="#D19134" d="M55.085 187.132l105-27.616-5.882-.09 11.404-.912-57.56 4.166"/><circle fill="#FFB624" cx="131.041" cy="132.426" r="54.158"/><path fill="#FFDD50" d="M218.443 63.675c-.403-1.763-1.644-3.148-3.272-3.69-.41-.147-1.05-.34-1.89-.34-1.42 0-2.74.54-3.9 1.588-.72-.85-1.69-1.61-2.8-2.05-1.33-1.4-3.12-2.157-5.14-2.157-1.14 0-2.33.24-3.63.742-1.29.496-2.39 1.223-3.31 2.005-.9-.617-1.98-1.128-3.09-1.343-.44-.085-1.03-.182-1.68-.182-.46 0-.91.05-1.33.148-1-.534-2.16-.94-3.35-1.167-.45-.09-.92-.13-1.37-.13-3 0-5.09 1.85-6.47 3.08-.19.17-.38.35-.56.53-.36-.35-.79-.7-1.28-1.04-.99-.68-2.36-1.46-4.15-1.46-.51 0-1.01.06-1.54.19-.87.21-1.57.61-2.31 1.15-.32-.25-.7-.51-1.12-.78.99-.98 2.03-2.03 3.01-3.02l1.8-1.82c2.26-2.25 4.03-4.51 4.86-6.18.79-1.58 1.66-4.72-1.41-7.96-1.4-1.48-3.94-3.11-6.87-3.25l-.18-.01c-.27-.02-.53-.03-.79-.03-3.05 0-5.29 1.58-8.36 4.5-4.39 4.18-11.65 16.12-11.72 16.24l-.24.44c-.14-.01-.29-.01-.44-.01-2.78 0-4.66 1.28-5.85 2.08-.41.28-.91.66-1.45 1.12-.11-.13-.24-.26-.37-.38-.84-.77-2.37-1.77-4.14-2.25-.6-.17-1.22-.25-1.83-.25-2.22 0-3.91 1.05-5.18 2.07-.43-.41-.88-.74-1.34-1.01l7-26.99-5.77-.37c-1.23-.08-2.26-.12-3.24-.12-22.95 0-41.61 15.18-41.61 33.84 0 .27.01.54.03.8v.04c-.02.56-.01 1.12 0 1.67-2.05.57-4.2.85-6.22.93-.89.03-1.78.05-2.65.05-4.38 0-8.39-.41-10.97-.75l-4.24-.56-6.63 26.92 6.21.01c.57 0 1.18-.01 1.74-.02.41 0 .78-.01 1.06-.01 16.74 0 31.19-8.08 37.79-19.7 1.74 1.54 4.17 2.69 5.7 2.99.68.13 1.32.19 1.94.19 1.32 0 2.57-.29 3.83-.87l.38-.17c.45.18.96.34 1.53.47.74.17 1.47.25 2.2.25 1.55 0 3.02-.38 4.33-1.11.87.46 1.93.82 3.1.82.49 0 .97-.06 1.44-.19.68-.18 1.38-.51 2.04-.88.66.49 1.77-1.23 2.77-.82 1.14.47 3.1.69 4.96.69 1.96 0 3.12 1.93 5.02.73.2-.13.4-.26.61-.41.89.52 1.91.96 2.93 1.17.57.11 1.15.17 1.72.17 1.99 0 3.55-.69 4.65-1.41.98.58 2 .87 3.05.87.99 0 2.27-.13 3.85-.98 1.38.8 3.12 1.42 4.99 1.42.88 0 1.74-.14 2.54-.42 1.11-.39 2.11-.99 3.01-1.63.59.41 1.19.75 1.74 1.05 1.41.75 2.83 1.12 4.24 1.12.74 0 1.44-.1 2.08-.27-.06.1-1.54 2.35-1.54 2.35-1.23 1.86-4.05 5.97-5.2 7.59-.17.24-.33.45-.46.63-.73.99.87-1.29 1.33 1.03.2 1.03 2.11 4.35 3.9 5.45.69.42 3.37 0 5.86 0l2 .44c3.54-.1-1.52.97-.41-.92.42-.72.83-1.47 1.29-2.32l.51-.94c2.71-4.5 4.97-7.55 7.1-9.61 1.27-1.22 2.87-2.71 4.52-4.2.17-.15.72-.62 1.42-1.21 1.87 1.39 4.23 2.24 6.58 2.24.78 0 1.54-.1 2.26-.28 2.29-.59 4.35-1.81 5.97-3.51.22-.04.45-.07.68-.12 4.01-.72 6.41-3.19 7.56-4.38.1-.1.18-.19.27-.27 1.72-1.68 2.46-3.92 1.98-5.99z"/><path fill="#FFF" d="M175.932 133.585s14.48 11.22 16.782 42.244l-16.016 3.08-32.9 2.13s8.11-8.48-2.928-18.8m-37.037-29.26s-18.457 45.31 17.143 23.09l6.77 6.13s-55.666 29.1-31.53-24.85l7.617-4.38z"/><path fill="#0D72B5" d="M126.607 36.53c-.97-.062-1.947-.105-2.938-.105-20.35 0-36.84 13.014-36.84 29.067 0 1.436.14 2.845.39 4.223-1.43-12.166 7.5-17.98 17.56-22.843 6.93-3.35 15.34-3.34 19.91-3.005l1.9-7.338z"/><path fill="#E9242A" d="M109.425 46.625c-5.777 1.045-10.36 3.19-13.712 5.267-5.797 4.113-9.7 9.47-8.717 17.824 0 0 .024-8.168 7.237-12.9 6.926-4.547 17.72-4.847 27.907-3.066l2.01-7.75c-3.47-.142-9.923-.243-14.725.625z"/><path fill="#E9242A" d="M96.835 56.52c1.43 12.168-7.226 18.467-16.018 21.713-6.1 2.253-15.756 2.488-21.043 2.278l-2.295 9.33c1.01 0 2.23-.02 2.91-.02 20.34 0 36.83-13.01 36.83-29.06 0-1.43-.14-2.84-.4-4.22z"/><path fill="#F7AD3F" d="M76.072 73.72c-5.814.242-11.402-.33-14.446-.73l-1.85 7.522c5.286.21 14.94-.025 21.042-2.278 8.79-3.246 17.447-9.545 16.018-21.712-.923 13.232-12.108 16.837-20.764 17.198z"/><path fill="#E9242A" d="M213.618 64.5c-.27-.09-.63-.315-1.53.79-.904 1.104-2.3 1.734-4.33 1.983-.656.08-1.082.008-1.36-.125.036-.852-.068-1.813-.33-2.333-.36-.72-1.17-1.285-1.576-1.262-.404.022-.404.248-1.104-.744-.7-1-1.826-1.38-3.88-.59-1.598.61-3.083 2.12-4.004 3.63-1.677 1.26-5.772 4.64-7.23 5.97-1.05.96-3.11 2.85-4.438 4.07 2.837-4.09 7.948-8.95 8.632-9.8.728-.92.558-1.15.237-1.58-.322-.43-1.336-1.24-2.215-1.41-.88-.17-1.235-.14-1.454.25-.22.39-.546.74-.816 1.03-.27.29-.563-.54-1.104-1.11-.54-.56-1.735-1.15-2.976-1.39-1.24-.24-2.187.42-3.787 1.84-.688.61-1.295 1.34-1.804 2.05-1.95 1.5-6.29 4.15-6.98 4.54-.75.42-1.24.64-1.29-.04-.05-.68 1.94-2.4 2.43-2.94.49-.55 1.13-1.22 1.25-1.81.11-.59-.38-1.29-1.34-1.95-.97-.66-1.37-.69-1.85-.58-.48.12-1.56 1.13-3.07 2.33-1.51 1.2-3.61 2.98-5.35 4.15-1.74 1.17-1.74.54-1.26-.05.47-.59 1.89-2.12 3.2-3.57 1.3-1.44 1.03-1.69.51-2.21s-2.37-1.69-3.21-1.78c-.85-.09-1.32.47-1.75 1.04-.28.37-1.6 1.94-2.74 3.48-1.72.92-4.51 2.24-5.47 2.62-1.31.52-1.96.38-2.09-.14-.13-.52.66-1.42 2.24-2.93 1.57-1.51 6.53-6.31 8.45-8.11 1.91-1.81 5.23-5.19 7.34-7.31 2.12-2.12 3.47-3.94 3.97-4.93s.18-1.71-.61-2.55-2.21-1.69-3.63-1.76c-1.42-.07-2.16-.31-5.81 3.16-3.65 3.47-10.42 14.36-10.87 15.14-.26.46-1.09 2.04-1.9 3.68-.33-.19-.78-.39-1.41-.58-2.25-.69-3.5.2-4.7 1.01-.84.56-2.07 1.62-3.05 2.82-.49.38-1.03.8-1.55 1.21-1.76 1.4-4.22 3.12-5.42 3.58s-.8-.64.13-2.13c.93-1.49 1.47-2.33 2.06-3.22s.47-1.59.08-1.95c-.4-.36-1.29-.92-2.19-1.17-.91-.25-1.74.07-3.02 1.17s-4.33 3.85-5.3 4.73c-.97.88-.79-.14-.45-.69.33-.55.76-1.02.94-2.04.18-1.01-.36-1.62-1.08-2.37-.72-.74-1.08-.7-1.72-.45-.49.19-1.67 1.59-2.47 3.42-.26.09-.58.24-.89.48-.75.56-2.64 1.96-3.74 2.68-1.11.73-1.6.86-1.6.36s.67-1.67 1.37-2.59c.7-.92 1.42-1.74 1.42-2.37 0-.63-1.98-1.6-2.55-1.72-.56-.11-1.08-.38-1.4-.05-.31.33-.45.58-.74.49-.29-.09-1.06-1.4-2.57-1.87-1.51-.47-3 .07-4.37 1.29s-2.32 2.16-3.45 3.83c-1.13 1.67-.95 2.55-.43 3.43.52.88 2.84 2.3 4.03 2.53 1.19.23 2.01.09 2.89-.32.88-.4 1.38-.63 1.97-1.16.6-.54.9.67 2.99 1.14 1.42.32 2.77.07 3.86-.88.66-.58 1.69-1.63 2.39-2.37-.26 1.59.06 1.78.52 2.19 0 0 1.25 1.08 2.01.87.76-.2 2.11-1.17 2.85-1.77.74-.61 2.67-2.51 3.52-3.27.85-.76.68-.15.27.52-.4.67-.93 1.35-1.28 2.53-.36 1.19.53 1.98 2.22 2.68 1.87.78 3.54 1.08 5.89-.4 1.05-.66 2.29-1.84 3.38-3 .18.79.74 1.35 1.03 1.65.47.49 1.68 1.28 2.62 1.47 1.99.4 3.24-.85 3.96-1.48.45-.39 1.22-1.08 1.74-1.55.27.48.56.87.76 1.1.56.68 1.42 1.47 2 1.47s1.15-.07 2.12-.75c.57-.39 1.76-1.31 2.65-2.01-.23.89.08 1.32.51 1.72.97.9 2.98 1.87 4.53 1.33 1.56-.54 3.29-2.26 4.42-3.05s1.17-1.18 1.44-1.02c.27.15-.02.69.05 1.33.07.63.79 1.44 2.66 2.43 1.87.99 3.11.56 4.66-.39 1.04-.63 2.64-1.98 3.59-2.81.05.66.33 1.26.68 1.67 0 0 1.05 1.2 1.86 1.42.81.21 1.59.27 2.06.23.47-.036.42.166.05.62-.37.456-1.19 1.505-2.09 2.81-.9 1.31-3.02 4.55-4.3 6.49-1.29 1.94-4.13 6.09-5.27 7.71-1.15 1.62-1.55 1.85-.74 2.345.42.25 1.45.73 2.67.69 1.21-.04 1.56-.38 2.26-1.57.56-.97 1.1-1.98 1.78-3.23 3.2-5.31 5.69-8.51 7.94-10.67 1.34-1.297 3.02-2.86 4.68-4.35.19-.16 4.4-3.74 5.79-4.83-.07.42-.13 1.14.17 1.71.99 1.92 3.96 3.43 6.28 2.84 2.37-.607 3.84-2.13 4.65-3.43.63-.03 1.4-.1 2.31-.27 2.86-.52 4.48-2.55 5.34-3.38.84-.84.75-1.65.48-1.74zm-58.337-4.846c1.52-1.96 7.05-9.034 8.23-10.363 1.18-1.33 4.74-5.14 5.37-4.87.63.27-.02 1.24-1.06 2.59-1.03 1.36-3.22 3.9-4.73 5.5-1.51 1.6-8.34 8.7-8.68 9-.34.29-.63.12.88-1.85zm-44.9 6.627c-.76 1.42-2.66 3.86-4.3 4.85-.78.47-2.39.52-1.58-.88.81-1.39 2.32-3.42 4.04-4.73 1.72-1.3 2.62-.65 1.85.77zm36.88.23c-.28.64-.33 1.27-.25 1.85-.63.64-1.37 1.37-2.14 2.12-1.06 1.03-2.46 1.37-2.33.41.14-.96 1.19-2.43 3.33-4.68.95-.99 1.67-1.31 2.19-1.35-.3.62-.57 1.2-.78 1.67zm35.93 3.99c-1.33.86-1.55.93-2.09.65-.54-.27.37-1.64 1.02-2.63.66-.99 1.69-2 2.64-2.82.95-.81 1.36-.88 1.83-.56.48.32.3.84-.13 1.4-.42.56-1.33 1.87-1.33 1.87-.52.68-.58 1.24-1.91 2.1zm17.52.45c-1.08.65-1.58.7-2.12.2-.54-.49-.17-1.54.22-2.36.39-.83.93-1.86 1.2-1.99.27-.13.32 0 .32 0s-.03 1.02.38 1.57.77.93 1.36 1.31c0 0-.42.73-1.36 1.29z"/><path opacity=".15" d="M115.84 134.38l.002.002"/><path fill="#FFF" d="M107.312 121.135c0 .006.003.01.005.018 0-.007-.002-.014-.003-.017h-.002z"/><path opacity=".15" d="M107.312 121.135c0 .006.003.01.005.018 0-.007-.002-.014-.003-.017h-.002z"/><path fill="#FFF" d="M115.84 134.38l.003-.007c-.1-.064-.197-.14-.296-.204.037.02.074.06.11.08.062.04.12.08.183.12z"/><path opacity=".15" d="M115.84 134.38l.003-.007c-.1-.064-.197-.14-.296-.204.037.02.074.06.11.08.062.04.12.08.183.12z"/><path fill="#FFF" d="M107.313 121.135h.004l-.004-.014v.02z"/><path opacity=".15" d="M107.313 121.135h.004l-.004-.014v.02z"/><path fill="#FFF" d="M106.988 130.64c-.256 2.716 4.01 7.714 5.582 8.753.01.008.02.015.03.02-1.55-.998-5.87-6.04-5.612-8.772z"/><path opacity=".15" d="M106.988 130.64c-.256 2.716 4.01 7.714 5.582 8.753.01.008.02.015.03.02-1.55-.998-5.87-6.04-5.612-8.772z"/><path fill="#FFF" d="M115.658 134.253c.06.045.12.087.182.126-.062-.04-.12-.09-.182-.13z"/><path opacity=".15" d="M115.658 134.253c.06.045.12.087.182.126-.062-.04-.12-.09-.182-.13z"/><path fill="#515148" d="M94.315 110.002l-12.62-2.838 2.44-10.926-10.838-6.02c-.004-.003-20.038-4.85-20.038-4.85l-13.69.975c-.04.064-13.68 59.794-13.68 59.794l9.97 8.487 21.71 4.856 13.14-3.166 1.7-7.646 12.54 2.822c.57.132 1.17.192 1.76.18 3.7-.08 6.91-2.872 7.79-6.79l5.59-24.798c1.03-4.602-1.57-9.12-5.8-10.08zm.12 8.804L88.85 143.6c-.37 1.65-1.664 2.442-2.605 2.222l-12.55-2.824 6.732-30.16 12.61 2.84c1.086.244 1.728 1.675 1.4 3.128z"/><path fill="#818279" d="M84.97 151.49l-13.224-2.977c-4.23-.955-6.827-5.475-5.793-10.072l5.588-24.79c.89-3.92 4.09-6.72 7.79-6.8.59-.01 1.19.05 1.77.18l13.22 2.98c4.23.96 6.83 5.48 5.8 10.08l-5.59 24.8c-.88 3.92-4.08 6.72-7.79 6.8-.59.01-1.18-.05-1.76-.18zm-7.757-36.566l-5.59 24.797c-.323 1.45.317 2.89 1.402 3.13l13.22 2.98c.942.22 2.236-.57 2.605-2.22l5.587-24.79c.328-1.45-.314-2.88-1.4-3.13l-13.22-2.98c-.122-.03-.242-.04-.364-.03-.844.02-1.917.82-2.24 2.26z"/><path fill="none" d="M45.785 117.233l.16-.73c-1.182.37-2.238.556-2.926.623.63.01 1.6.04 2.76.107z"/><path opacity=".15" d="M79.452 112.663c.122-.003.243.01.363.038l13.3 2.6c1.086.25 1.952 1.69 1.623 3.15l-1.105 3.94 5.61 1.55.554-2.45c-.637-2.04-1.078-4.22-2.24-5.51-2.065-2.29-3.47-3.1-4.528-3.56-1.06-.46-2.26-1.19-2.69-2.16-.37-.82-1.25-1.41-1.25-1.41l-8.01-1.8c-.34-.07-.68-.12-1.03-.15l-.81 5.82c.06-.01.12-.02.18-.02z"/><path fill="#DBBB37" d="M43.02 117.126c-.525-.008-.838-.01-.838-.01-.012.047.316.057.837.01z"/><path fill="#818279" d="M78.358 150.005l6.614 1.492c.578.13 1.168.19 1.76.174 3.703-.07 6.908-2.87 7.79-6.79l.355-1.58c-1.46.77-3.45 1.1-6.147.61-.46 1.43-1.608 2.12-2.484 1.92l-7.178-1.61-.71 5.8z"/><path d="M84.25 98.938l.08.043-.074-.01c-.002 0-.006-.01-.006-.02z"/><path opacity=".15" d="M88.727 143.91c-.233.72-.645 1.247-1.106 1.57l.03.014s.39 1.468 1.58 2.004c1.19.532.16 1.2-.51 1.36-1.12.27-4.91-.684-8.42-1.572-5.1-1.294-7.95-1.894-7.95-1.894l-.62 3.114c.02 0 .03.005.05.01l6.61 1.487v.002l6.61 1.492c.58.13 1.17.19 1.76.174 3.71-.07 6.91-2.87 7.79-6.79l.36-1.58c-.36.2-.75.37-1.19.5-1.3.4-2.93.5-4.96.12z"/><path fill="#818279" d="M49.818 92.124l-10.25-5.782 13.69-.976s20.035 4.848 20.038 4.85l10.84 6.02c0 .007-12.605.738-12.605.738l-21.71-4.85z"/><path fill="#66665D" d="M50.496 91.52l-8.685-4.666 11.4-.797 19.55 4.73 9.72 5.08-10.97.494"/><path fill="#515148" d="M51.012 91.208l-7.29-3.93 9.617-.673 18.95 4.514 8.53 4.44-9.44.29"/><path fill="#66665D" d="M50.49 92.274l-14.626 62.348 21.713 4.858 13.796-62.536"/><path fill="#818279" d="M49.818 92.124l-10.25-5.782c-.033.064-13.674 59.794-13.674 59.794l9.97 8.487L50.49 92.275l-.672-.15z"/><path fill="#CCC" d="M124.45 163.8l-3.673 1.584-7.785-5.012 5.73-2.927"/><path fill="#515148" d="M84.136 96.237l-12.605.743-.15-.036-13.8 62.536 13.15-3.166"/><path fill="#D0D1D2" d="M149.775 166.666s2.992 4.52 0 13.997l26.923-1.745s-3.007-17.416-16.7-22.915l-10.223 10.663z"/><path fill="#FFF" d="M101.915 121.14c6.985 1.41.62 15.2.62 15.2s-2.35 3.43-9.774 4.98c-8.4 1.752-10.2-3.453-10.12-7.604.1-4.15 3.86-5.05 3.86-5.05-1.19-1.523-.4-4.563 1.88-5.874 3.51-2.02 7.6 1.052 7.6 1.052.44-1.09-1.04-4.115 5.95-2.705z"/><path fill="#D0D1D2" d="M100.482 134.324c-6.81-2.016-4.503-10-4.503-10-5.3 9.627 4.5 10 4.5 10z"/><path fill="#D0D1D2" d="M94.445 130.86c-1.584-3.102-7.95-2.195-7.95-2.195 6.31.615 7.95 2.196 7.95 2.196zm-6.717 8.197c8.148 2.715 8.04-4.863 8.04-4.863-1.947 7.52-11.27 2.145-11.27 2.145-.496 2.1 3.23 2.71 3.23 2.71z"/><path fill="#D0D1D2" d="M100.482 134.324c-6.81-2.016-4.503-10-4.503-10-5.3 9.627 4.5 10 4.5 10z"/><path fill="#D0D1D2" d="M86.495 128.665c6.31.616 7.95 2.196 7.95 2.196-1.584-3.1-7.95-2.19-7.95-2.19zm9.275 5.528c-1.948 7.518-11.27 2.144-11.27 2.144-.498 2.108 3.228 2.72 3.228 2.72 2.08.693 3.622.715 4.765.362.923-.29 1.586-.81 2.062-1.43 1.244-1.61 1.214-3.81 1.214-3.81z"/><path fill="#CE002C" d="M38.918 78.666c-1.854-2.765-6.01-4.49-6.01-4.49s4.968 5.38 4.95 5.984c-.02.602 1.038 1.875-3.055 2.758-4.093.885-7.184-1.375-7.683-3.976-.495-2.595.043-3.7.044-3.71-2.06 3.032-.564 7.88 3.136 9.24 3.977 1.46 8.292-3.197 10.394-2.34.002 0-1.043-2.375-1.776-3.466z"/><path fill="#F50029" d="M27.11 78.95c.498 2.603 3.574 4.872 7.666 3.985 4.093-.884 3.5-1.872 3.518-2.476.02-.61-1.64-2.84-1.64-2.84-1.622-2.31-3.922-4.39-6.855-3.93-1.44.22-2.34.94-3.05 2.26 0 .01-.14.39.35 2.99z"/><path fill="#FF1044" d="M28.023 78.76c-.836-1.42-.22-3.015.34-3.5.555-.487 1.782-.976 2.968-.973 1.19.002 3.63 1.08 4.73 2.085 1.21 1.106 2.19 3.85 2.19 3.85s-.39-.718-1.62-.248c-1.23.473-2.47 1.79-4.85 1.194-2.37-.602-3.22-1.5-3.75-2.41z"/><path fill="#FFF" d="M36.56 77.104s-3.173-2.72-4.963-3.01c-1.793-.29-2.862.5-3.155.925-.292.42.872.64 1.908.47 1.032-.18 2.382-.2 3.562.37 1.18.57 2.647 1.24 2.647 1.24zm-7.988 4.366s1.177.694 1.977 1.034c.65.28.83.208.72.42-.15.272-.32.464-.52.368-1.05-.5-2.18-1.823-2.18-1.823zm2.808 1.9c.092-.23.107-.506.378-.513.273-.004.37.097.924.01.618-.096 1.063-.276 1.2.31.06.25.082.45-.443.52-.95.127-2.27.196-2.06-.327z"/><path fill="#F50029" d="M47.197 74.983c-.888 1-.856 2.93.755 4.298 1.61 1.37 2.09.92 2.335.74.25-.18.897-1.44.897-1.44.076-1.46.29-3-.794-4.03-.526-.5-1.117-.69-1.67-.66-.007 0-.636.12-1.523 1.12z"/><path fill="#FF1044" d="M47.556 75.292c.313-.77 1.14-1.013 1.507-.94.364.078.938.417 1.298.894.37.478.64 1.783.62 2.533s-.5 1.83-.5 1.83-.2-.15-.77-.5c-.56-.35-1.47-.44-1.96-1.58-.49-1.14-.39-1.75-.19-2.24z"/><path fill="#FFF" d="M50.836 78.205s.12-2.104-.315-2.913c-.43-.804-1.07-.993-1.33-.978-.26.015.01.546.4.91.39.36.82.892.95 1.54s.31 1.44.31 1.44z"/><path fill="#CE002C" d="M50.938 79.63c.18-.638.247-1.06.247-1.06s-.648 1.267-.897 1.446c-.247.176-.708.64-2.32-.73-1.61-1.368-1.65-3.3-.76-4.3.886-.994 1.495-1.118 1.5-1.118-1.85.104-3.335 2.19-2.743 4.093.636 2.04 3.828 2.35 4.128 3.45 0 0 .66-1.14.845-1.77z"/><path fill="#FFF" d="M46.64 76.345s.08.683.188 1.108c.09.35.177.4.053.42-.15.022-.28.016-.3-.097-.12-.573.07-1.43.07-1.43zm.098 1.705c.12-.032.237-.11.32-.002.086.11.077.177.28.373.228.22.437.34.243.58-.08.1-.15.17-.34-.02-.34-.34-.77-.84-.5-.92z"/><path opacity=".15" d="M53.34 86.605l13.108 8.125-15.436-3.522-7.29-3.93m38.036 9.102l-11.17 50.027s-1.052 6.79-3.82 7.92c-2.768 1.133-8.443 1.76-8.443 1.76l13.05-59.142 10.383-.566z"/><path fill="none" d="M79.265 112.688c-.81.12-1.75.895-2.052 2.235l-5.59 24.797c-.323 1.448.317 2.882 1.402 3.125l13.22 2.976c.942.23 2.236-.57 2.605-2.21l4.783-21.23-15.135-4.16.767-5.52z"/><path fill="none" d="M89.692 139.253l.14-.017 4.605-20.43c.328-1.454-.314-2.885-1.4-3.13l-13.22-2.976c-.122-.03-.242-.04-.364-.038-.843.018-1.916.816-2.24 2.26l-5.588 24.797c-.325 1.44.316 2.88 1.4 3.12l6.044 1.36 7.17 1.61c.05.01.11.02.17.02.39.03.81-.1 1.2-.37l-1.65-.8 3.71-5.43z"/><path opacity=".3" fill="#FFF" d="M54.566 93.187l-4.47-1.3-9.302-5.275 12.41-.99 3.084.477-3.03-.74-13.69.97 10.25 5.78"/><path fill="none" d="M109.86 138.747l-2.797-2.45 2.797 2.45z"/><path fill="#D0D1D2" d="M116.79 121.897l-1.902 1.827c-7.26-13.038 5.125-8.442 5.125-8.442l-3.224 6.615z"/><ellipse transform="rotate(93.6 140.9 138.6)" fill="#FFF" cx="140.866" cy="138.614" rx="28.726" ry="35.852"/><ellipse transform="rotate(93.6 137 135.5)" fill="#D0D1D2" cx="136.961" cy="135.486" rx="22.887" ry="30.002"/><ellipse transform="rotate(93.6 121 132.5)" fill="#FFF" cx="120.976" cy="132.461" rx="12.116" ry="12.294"/><ellipse transform="rotate(93.6 149.5 134.5)" fill="#FFF" cx="149.495" cy="134.527" rx="15.072" ry="15.173"/><path fill="#919396" d="M173.727 131.78l-1.13 1.614c.105-2.108-3.855-8.826-3.85-8.815 13.293-3.32 4.98 7.2 4.98 7.2z"/><path fill="#CCC" d="M182.123 176.205s-.348-14.04-5.425-18.09c0 0 3.354-.328 7.815 17.986l-2.39.11z"/><path fill="#D0D1D2" d="M184.232 155.085s6.37 13.362 6.01 20.828h.636s-.198-9.722-6.646-20.828zm-16.427-29.405c13.952-2.8 3.404 7.69 3.404 7.69-.48 2.52 1.03 3.79 1.03 3.79l2.2-2.155c9.03-7.933 3.2-13.505 3.2-13.505-4.57-3.3-12 .964-12 .964-.05 2.923 2.15 3.22 2.15 3.216z"/><circle fill="#0071BC" cx="151.988" cy="133.075" r="11.451"/><circle fill="#0F4481" cx="154.203" cy="131.312" r="5.882"/><circle fill="#FFF" cx="152.902" cy="130.976" r="3.126"/><circle fill="#FFF" cx="159.999" cy="131.969" r="1.523"/><circle fill="#0071BC" cx="122.408" cy="132.15" r="9.416"/><circle fill="#0F4481" cx="124.227" cy="130.701" r="4.836"/><circle fill="#FFF" cx="123.159" cy="130.423" r="2.571"/><circle fill="#FFF" cx="128.996" cy="131.239" r="1.251"/><path fill="#D0D1D2" d="M164.385 140.986l-5.17 8.393-12.652 3.01-11.883-8.81-1.164-7.48c19.286-6.13 30.9 4.58 30.9 4.58m-34.496 2.19l-8.51 3.96-5.207-1.43-7.788-8.16c9.028-7.55 24.722-1.11 24.722-1.11l-3.218 6.73z"/><path fill="#BE202E" d="M136.902 143.67c-3.846 1.187-4.892-2.23-4.892-2.23-1.532 1.99-4.135.862-4.135.862s-1.905 12.94 2.17 13.104c4.076.164 6.69-11.995 6.69-11.995"/><path fill="#6D6F71" d="M126.012 139.354c-.11.563-.06 1.178.26 1.683.336.495.918.856 1.615 1.08.678.23 1.438.325 2.154.17.19-.022.36-.085.51-.17.18-.06.32-.16.44-.282.07-.057.15-.098.19-.17l.07-.11.15-.37c.22-.504.37-1.043.52-1.574l.08-.25.03-.1.02-.05.01.03.03.15.08.33.15.68c.11.44.17.9.32 1.32l.24.52.34.42c.5.52 1.21.74 1.9.73.7 0 1.38-.22 1.94-.55.59-.3 1.05-.74 1.39-1.2.51-.61.61-1.28.71-1.73 0-.45.04-.73.1-.74.06-.01.14.25.25.75.01.5-.02 1.3-.54 2.07-.37.56-.88 1.08-1.53 1.45-.64.4-1.41.68-2.26.7-.84.04-1.8-.23-2.47-.92l-.45-.55-.3-.64c.01 0 0 .01 0 .01v.03l-.11.15c-.07.11-.19.18-.28.26-.19.17-.39.31-.62.39-.21.11-.44.19-.67.22-.9.19-1.79.06-2.56-.23-.76-.26-1.51-.71-1.95-1.41-.42-.71-.43-1.53-.27-2.17.25-.9.67-1.52.98-1.92.32-.39.54-.58.58-.54.16.09-.61 1-.96 2.59z"/><path fill="#0B8ECC" d="M129.36 138.406l2.935 3.027 3.8-2.828c-1.747-5.855-3.562-2.733-3.562-2.733-.785-2.615-3.172 2.533-3.172 2.534z"/><path fill="#FFF" d="M133.74 139.712l1.637-1.207c-1.154-.687-1.637 1.207-1.637 1.207zm-3.75-1.127l1.03.955c-.197-1.294-1.03-.955-1.03-.955z"/><path fill="#818279" d="M89.132 142.352l.63-2.795s4.987 1.295 5.978-4.817l.03-2.2 1.33.906-1.774 7.873-6.194 1.03z"/><path fill="#969798" d="M125.73 150.742s1.77 14.158 11.172.93c0 0-8.707 18.055-11.172-.93z"/><path fill="#FF8500" d="M119.39 113.85l1.123.647s17.586-4.124 46.434 4.987c0 0 16.556-1.395 5.63-13.035 0 0-10.81 10.2-14.75.83 0 0 28.103 1.19-.76-18.42 0 0 5.237 9.78-3.52 13.06 0 0-12.255.57-6.843-3.73 0 0 9.396-4.6 2.788-14.9 0 0-18.095 2.23-12.59 13.65 0 0-4.94 4.61-7.66 1.23 0 0-2.964-6.11 2.393-9.34 0 0-21.523 1.54-8.082 14.12 0 0-4.83 5.21-7.245-6.61 0 0-8.792 12.89 3.08 17.47"/><path fill="#FFF492" d="M120.976 114.254s-11.82-4.265-4.666-16.044c0 0 .69 12.576 9.017 4.458 0 0-13.448-9.43 4.92-13.39 0 0-10.12 10.207 1.577 11.162 0 0 7.98-.91 5.143-5.708 0 0-2.313-8.62 11.355-9.972 0 0 4.593 9.867-2.57 12.217 0 0-7.822 8.398 9.3 5.375 0 0 10.1-3.94 2.946-11.68 0 0 23.124 13.673-.93 16.18 0 0 1.58 11.102 15.508 1.073 0 0 9.277 8.645-6.064 11.19-.002-.005-24.894-8.973-45.536-4.86z"/><path fill="#FF8500" d="M117.175 113.492s25.55-7.597 53.248 5.32l-2.085 1.96s-24.837-9.78-50.298-4.83l-.865-2.45z"/><path fill="#5B0" d="M118.37 108.836s-3.217-.205-2.527-4.537 1.57 5.37 2.526 4.53zm6.956-8.716s-4.295-3.272-1.1-6.933c3.197-3.662-.182 2.755 1.1 6.934zm15.544-3.145s-1.76-5.205 3.87-8.674c5.63-3.46-2.74 5.77-3.87 8.68z"/><path fill="#D19134" d="M99.797 177.805l46.744-2.707v5.565l-45.2.388"/><path fill="#5B0" d="M156.03 103.702s9.36-2.345 6.792-7.465c-2.567-5.12 9.853 9.972-6.793 7.465z"/><path fill="#A08CA5" d="M125.095 106.527s-5.532 2.33 1.074 2.36c0 0 2.62 4.588 2.54 0 0 0 7-3.16-.44-3.237-.01 0-2.55-4.853-3.19.877zm24.337.055s-5.972-.607-.188 2.585c0 0 .104 5.286 2.235 1.222 0 0 7.66.58 1.16-3.06 0 0 .09-5.48-3.22-.76zm-13.856-2.244s-7.368 1.552.76 3.162c0 0 2.14 6.277 3.137.607 0 0 9.38-2.22.234-4.09 0 0-1.98-6.585-4.13.32z"/><path fill="#D19134" d="M86.845 177.332s18.633-7.782 59.696-8.258l-.88 7.48-51.46 5.766-7.34-4.988z"/><path fill="#5B0" d="M166.945 114.496s4.79-1.383 4.91-3.224c.122-1.84 5.468 3.86-4.91 3.224z"/><circle fill="#5BD8C3" cx="127.075" cy="107.461" r="1.427"/><circle fill="#5BD8C3" cx="137.848" cy="105.651" r="2.469"/><circle fill="#5BD8C3" cx="150.996" cy="108.349" r="1.502"/><circle fill="#D30909" cx="198.613" cy="103.13" r="14.752"/><path fill="#D30909" d="M185.27 96.833c-.01.02 8.116-13.423 6.138-18.614 0 0 16.363 6.04 21.17 20.15l-13.965 15.72-13.343-17.26z"/><circle fill="#F00" cx="197.178" cy="100.177" r="9.607"/><circle fill="#FFF" cx="201.025" cy="107.447" r="5.045"/><circle fill="#D30909" cx="211.906" cy="132.021" r="8.79"/><path fill="#D30909" d="M204.3 127.616c-.008.01 5.488-7.564 4.57-10.746 0 0 9.414 4.403 11.564 13.022l-9.074 8.637-7.06-10.92z"/><circle fill="#F00" cx="211.201" cy="130.195" r="5.724"/><circle fill="#FFF" cx="213.123" cy="134.705" r="3.005"/><circle fill="#D30909" cx="205.576" cy="158.161" r="4.093"/><path fill="#D30909" d="M202.688 155.264c-.006.004 3.38-2.74 3.352-4.28 0 0 3.703 3.116 3.63 7.25l-5.123 2.79-1.86-5.76z"/><circle fill="#F00" cx="205.479" cy="157.256" r="2.664"/><circle fill="#FFF" cx="205.798" cy="159.515" r="1.4"/><path fill="#FFB624" d="M55.085 187.132S139.143 156.95 222 172.71l-1.566 47.04s-88.692-21.252-162.954-9.073l-2.395-23.545z"/><path d="M69.015 196.55c-.006-.706-.427-1.123-1.3-1.26-.835-.13-1.81-.257-2.833-.364-2.774-.292-4.192-1.285-4.173-3.068.03-2.844 1.85-4.695 5.36-5.467 3.35-.73 5.09.43 5.26 3.49-.66.12-.98.17-1.64.29-.61.11-1.02-.14-1.3-.62-.44-.73-1.36-.98-2.58-.73-1.5.32-2.3 1.08-2.33 2.12-.03.86.91 1.34 2.77 1.45 1.06.07 2.2.21 3.4.45 1.58.32 2.36 1.47 2.26 3.36-.15 2.94-2.06 4.56-5.67 4.9-3.78.36-5.68-.92-5.77-3.87l2.83-.4c.1 1.46 1.07 2.08 2.94 1.86 1.86-.21 2.76-.92 2.75-2.11zm7.22-5.47c-1.117.166-1.674.25-2.79.42.335-2.236 1.783-3.58 4.343-4.018 3.064-.524 4.62.377 4.683 2.716v4.308c0 3.494-1.86 5.16-4.85 5.623-2.65.41-4.54-.78-4.51-3.35.03-2.81 2.04-3.83 4.81-4.54 1.19-.3 1.84-.83 1.81-1.48-.03-.67-.65-.96-1.8-.79-.98.15-1.53.51-1.68 1.1zm3.527 3.572v-1.148c-.65.38-1.412.732-2.226 1.004-1.1.37-1.708 1.026-1.68 1.883.03.92.526 1.36 1.407 1.28 1.553-.14 2.5-1.26 2.5-3.01zm5.986 7.004c1.533-.063 2.08-.986 1.64-2.698-1.514-5.044-2.27-7.493-3.782-12.245 1.268-.2 1.902-.3 3.17-.492.882 3.5 1.323 5.28 2.206 8.89.773-3.27 1.16-4.94 1.934-8.3.167-.81.61-1.28 1.323-1.38.78-.11 1.17-.16 1.95-.27-1.76 6.69-2.64 9.94-4.39 16.25-.67 2.22-1.35 2.97-3.66 3.02-.72.02-1.09 0-1.18-.07v-2.66l.77-.04zm12.02-13.302c-1.12.117-1.68.18-2.796.304.335-2.604 1.785-4.07 4.35-4.4 3.068-.393 4.624.76 4.687 3.48v5.003c0 4.07-1.87 5.9-4.86 6.28-2.66.34-4.55-1.15-4.52-4.17.03-3.29 2.05-4.36 4.81-5 1.18-.27 1.83-.85 1.8-1.61-.03-.78-.65-1.15-1.81-1.03-.99.11-1.54.49-1.68 1.17zm3.53 4.39v-1.34c-.65.404-1.414.77-2.23 1.035-1.1.36-1.71 1.09-1.68 2.09.03 1.08.525 1.62 1.408 1.57 1.556-.08 2.5-1.32 2.5-3.37zm18.84-10.494c-1.237 6.602-1.854 9.844-3.09 16.218-1.16-.003-1.743-.005-2.904 0-.672-4.487-1.01-6.71-1.683-11.103-.7 4.496-1.06 6.723-1.76 11.127-1.17.012-1.75.02-2.92.04-1.22-6.01-1.83-8.954-3.05-14.722 1.14-.132 1.7-.195 2.84-.32.71 4.095 1.06 6.168 1.77 10.36.64-4.25.96-6.393 1.6-10.724 1.19-.123 1.78-.184 2.97-.3.61 4.28.91 6.44 1.52 10.804.61-3.814.91-5.738 1.52-9.62.21-1.01.68-1.536 1.37-1.598.74-.064 1.11-.1 1.85-.163zm13.822 2.143l-.296.016v9.7c0 .73.275 1.13.82 1.14.346 0 .52.01.863.01v3.37c-.904.1-1.895.06-2.945-.14-1.053-.2-1.56-1.22-1.536-3.15V176.5l1.452-.13c.736-.064 1.346.943 1.346 2.104v2.78c.672-.038 1.01-.06 1.684-.1v.97c.002 1.267-.61 2.226-1.387 2.26zm5.448 1.267c-1.12.025-1.678.04-2.797.074.34-3.31 1.79-5.012 4.36-5.133 3.07-.14 4.63 1.5 4.69 4.95v6.35c0 5.15-1.87 7.32-4.86 7.52-2.65.19-4.55-1.88-4.52-5.78.03-4.23 2.07-5.39 4.82-5.91 1.18-.22 1.84-.88 1.81-1.86-.03-1.01-.65-1.55-1.81-1.52-.98.03-1.53.46-1.68 1.32zm3.533 5.98v-1.704c-.65.45-1.41.834-2.22 1.092-1.09.346-1.71 1.214-1.68 2.515.03 1.4.53 2.128 1.41 2.155 1.56.045 2.51-1.45 2.51-4.057zm6.44 4.155v3.63c0 2.875-.94 4.126-2.42 4.43v-.745c0-.354.22-.766.62-1.092.48-.396.76-1.05.76-1.87 0-.43-.14-.654-.42-.67l-.9-.06v-2.34c0-.926.3-1.373.91-1.346.59.024.89.036 1.47.063zm17.82 5.26c-2.6-.264-3.89-.386-6.49-.615V177.4c0-1.478.65-2.792 1.47-2.817 2.11-.064 3.16-.09 5.26-.135 2.69-.057 4.48 1.967 4.48 6.803 0 2.88-1.73 5.35-1.72 5.57.02.41 2.23 2.9 2.23 6.5 0 5.65-2.12 8.05-5.21 7.74zm-.37-21.99c-1.29 0-1.94.003-3.23.014v5.61c1.31.02 1.97.04 3.28.07 1.16.03 2.1-.62 2.1-2.86 0-2.25-.82-2.85-2.14-2.85zm.13 10.203c-1.34-.062-2.01-.092-3.36-.146v6.848c1.36.1 2.05.148 3.41.257 1.45.112 2.33-.604 2.33-3.29 0-2.766-.86-3.6-2.37-3.67zm16.84 2.696c0 7.662-1.7 11.297-5.06 10.875-3.36-.43-5.04-4.32-5.04-11.65 0-7.41 1.69-11.06 5.05-10.97 3.36.09 5.06 3.99 5.06 11.73zm-7.27-.573c.02 4.2.76 6.4 2.19 6.55 1.43.15 2.16-2.02 2.17-6.38.01-4.27-.71-6.44-2.14-6.5-1.47-.07-2.22 2.07-2.21 6.35zm13.79-5.56c-1.65-.12-2.37 2.66-2.37 6.14v11.61c-1.11-.16-1.68-.23-2.79-.38v-28.8c.57.01.85.02 1.41.02.93.02 1.39 1.02 1.39 2.9v6.77c1.43-3.25 3.2-4.16 5.25-2.5 1.55 1.26 2.29 4.48 2.21 9.55v13.57c-1.1-.17-1.66-.26-2.77-.43v-11.84c0-3.88-.71-6.47-2.31-6.58zm16.53 8.66c0 8.42-1.7 12.36-5.06 11.78-3.36-.57-5.04-4.92-5.04-13 0-8.17 1.68-12.12 5.04-11.87 3.36.25 5.06 4.6 5.06 13.11zm-7.26-.9c.01 4.62.76 7.08 2.19 7.29 1.43.22 2.15-2.15 2.16-6.93.01-4.69-.71-7.11-2.14-7.24-1.47-.13-2.21 2.19-2.2 6.9zm11.39-15.11v28.9c-1.11-.21-1.67-.31-2.79-.51v-31.61c.58.04.87.05 1.45.09.74.04 1.35 1.49 1.35 3.14zm1.58.31c-.08-2.22.42-3.28 1.45-3.16l1.39.1-.5 23.62-1.86-.3c-.18-8.11-.27-12.16-.46-20.25zm2.79 23.16v6.26c-1.11-.22-1.67-.32-2.78-.53v-3.88c0-1.56.35-2.26 1.07-2.14l1.72.3z" fill="#D30909"/></svg>