<?xml version="1.0" encoding="utf-8"?>
<!-- Generator: Adobe Illustrator 16.0.0, SVG Export Plug-In . SVG Version: 6.00 Build 0)  -->
<!DOCTYPE svg PUBLIC "-//W3C//DTD SVG 1.1//EN" "http://www.w3.org/Graphics/SVG/1.1/DTD/svg11.dtd">
<svg version="1.1" id="Layer_1" xmlns="http://www.w3.org/2000/svg" xmlns:xlink="http://www.w3.org/1999/xlink" x="0px" y="0px"
	 width="250px" height="250px" viewBox="0 0 250 250" enable-background="new 0 0 250 250" xml:space="preserve">
<g opacity="0.15">
	<path d="M33.301,87.473c3.977,1.458,8.292-3.198,10.394-2.34c0.001,0-1.043-2.375-1.776-3.467c-1.854-2.765-6.009-4.49-6.009-4.49
		l0.001,0.001c-0.942-0.447-1.979-0.652-3.113-0.475c-1.221,0.191-2.049,0.771-2.709,1.747c0.042-0.144,0.076-0.214,0.076-0.216
		c-0.151,0.222-0.276,0.455-0.39,0.694c-0.007,0.013-0.016,0.021-0.023,0.035c0,0.001-0.003,0.013-0.006,0.034
		C28.366,82.02,29.897,86.22,33.301,87.473z"/>
	<path d="M53.093,84.406c0.001-0.001,0.661-1.138,0.845-1.776c0.18-0.638,0.247-1.06,0.247-1.06c0.076-1.466,0.29-3-0.794-4.035
		c-0.526-0.505-1.117-0.695-1.671-0.664c-0.003,0-0.216,0.045-0.559,0.265c0.338-0.223,0.544-0.27,0.547-0.27
		c-1.849,0.104-3.335,2.191-2.743,4.093C49.601,83,52.792,83.302,53.093,84.406z M52.338,83.162c0.552,0.182,0.796-0.036,0.95-0.146
		C53.133,83.127,52.893,83.35,52.338,83.162z"/>
	<path d="M200.409,172.311c1.808-2.791,3.446-5.699,4.885-8.726c0.745,1.008,1.933,1.669,3.282,1.669
		c2.232,0,4.042-1.792,4.084-4.016l0.007-0.004c0-0.017-0.002-0.03-0.002-0.047c0-0.01,0.003-0.019,0.003-0.026
		c0-0.021-0.006-0.038-0.006-0.06c-0.006-3.873-3.275-6.816-3.594-7.092c1.117-3.507,1.981-7.123,2.586-10.828
		c1.007,0.4,2.102,0.629,3.252,0.629c4.854,0,8.789-3.937,8.789-8.791c0-0.732-0.1-1.44-0.269-2.121l0.005-0.006
		c-0.011-0.041-0.027-0.08-0.037-0.121c-0.063-0.235-0.133-0.467-0.215-0.694c-2.505-8.027-11.199-12.155-11.3-12.202
		c-0.133-0.924-0.289-1.839-0.454-2.752c3.024-2.702,4.938-6.619,4.938-10.993c0-1.663-0.288-3.256-0.796-4.748l0.008-0.008
		c-4.735-13.91-20.686-19.973-21.146-20.146c-0.125-0.146-0.253-0.291-0.379-0.437c0.223-0.202,0.443-0.404,0.668-0.607
		c0.172-0.145,0.721-0.612,1.422-1.204c1.868,1.398,4.229,2.245,6.588,2.245c0.772,0,1.531-0.094,2.258-0.279
		c2.289-0.585,4.344-1.805,5.963-3.512c0.224-0.034,0.449-0.072,0.676-0.113c4.012-0.726,6.404-3.197,7.557-4.386
		c0.1-0.1,0.186-0.192,0.27-0.273c1.726-1.68,2.468-3.917,1.994-5.987c-0.404-1.763-1.645-3.148-3.273-3.691
		c-0.412-0.146-1.054-0.34-1.896-0.34c-1.426,0-2.743,0.542-3.904,1.589c-0.729-0.85-1.691-1.609-2.801-2.05
		c-1.338-1.399-3.127-2.157-5.143-2.157c-1.146,0-2.335,0.241-3.637,0.742c-1.29,0.496-2.395,1.223-3.313,2.005
		c-0.905-0.617-1.979-1.128-3.09-1.343c-0.443-0.085-1.033-0.182-1.679-0.182c-0.463,0-0.912,0.05-1.338,0.148
		c-1.007-0.534-2.158-0.941-3.351-1.167c-0.457-0.086-0.918-0.13-1.371-0.13c-2.996,0-5.088,1.858-6.473,3.085
		c-0.189,0.17-0.381,0.348-0.568,0.534c-0.366-0.351-0.789-0.696-1.283-1.034c-0.995-0.68-2.366-1.461-4.152-1.461
		c-0.511,0-1.016,0.064-1.539,0.195c-0.785,0.195-1.438,0.545-2.101,1.008c-0.437-0.219-0.862-0.451-1.304-0.662
		c0.976-0.97,2.004-2.007,2.971-2.98l1.806-1.815c2.255-2.251,4.027-4.504,4.864-6.178c0.791-1.582,1.659-4.719-1.409-7.964
		c-1.397-1.478-3.937-3.108-6.873-3.248l-0.183-0.01c-0.271-0.015-0.529-0.027-0.787-0.027c-3.049,0-5.292,1.583-8.36,4.501
		c-2.696,2.563-6.468,8.043-8.997,11.929c-5.199-1.115-10.591-1.716-16.123-1.716c-1.845,0-3.666,0.088-5.478,0.217l5.021-19.342
		l-5.772-0.366c-1.226-0.078-2.257-0.115-3.24-0.115c-22.943,0-41.608,15.182-41.608,33.843c0,0.27,0.015,0.537,0.031,0.803
		l0.002,0.041c-0.021,0.563-0.014,1.12,0.001,1.677c-2.05,0.577-4.198,0.851-6.223,0.936c-0.893,0.037-1.78,0.053-2.652,0.053
		c-4.379,0-8.384-0.407-10.971-0.748l-4.24-0.559l-4.371,17.761c-0.237-0.057-0.378-0.091-0.378-0.091l0,0l0,0l-1.014,0.072
		c-2.793,0.199-10.527,0.75-12.305,0.877l-0.044,0.003c-0.138,0.01-0.237,0.017-0.287,0.021c-0.026,0.002-0.039,0.003-0.039,0.003
		c-0.033,0.064-13.674,59.794-13.674,59.794l9.97,8.487l21.713,4.855l5.326-1.281c3.114,7.181,7.301,13.783,12.352,19.621
		l-20.169,9.313l2.395,23.545c74.261-12.179,162.954,9.073,162.954,9.073L225,175.71
		C216.787,174.146,208.563,173.043,200.409,172.311z M208.782,154.859c0.077-0.232,0.161-0.463,0.235-0.697
		C208.99,154.38,208.908,154.614,208.782,154.859z M211.969,120.567c-0.017-0.124-0.029-0.249-0.048-0.373
		C211.939,120.316,211.965,120.435,211.969,120.567z"/>
</g>
<g id="Layer_3" display="none">
	
		<image display="inline" overflow="visible" enable-background="new    " width="1024" height="768" xlink:href="../06_June_2015/60432D60.jpg"  transform="matrix(-0.2474 0 0 0.2474 -189.3325 62)">
	</image>
</g>
<g id="Layer_2" display="none">
	<g display="inline">
		<g>
			<path fill="#FFFFFF" d="M128.377,150.443c0,0,0.3,0.324,0.859,0.934c0.578,0.611,1.449,1.508,2.604,2.596
				c1.155,1.088,2.588,2.375,4.305,3.729c1.715,1.346,3.723,2.771,5.985,3.991c1.138,0.584,2.333,1.16,3.569,1.546
				c1.234,0.434,2.502,0.653,3.705,0.672c1.219,0.045,2.324-0.226,3.328-0.765c0.524-0.205,0.972-0.646,1.461-0.989
				c0.431-0.482,0.92-0.869,1.303-1.479c1.66-2.215,2.818-5.354,3.582-8.682c0.227-0.816,0.371-1.684,0.521-2.547l0.229-1.297
				l0.061-0.324l0.049-0.307l0.088-0.662c0.211-1.709,0.379-3.604,0.551-5.461c0.671-7.5,1.428-15.148,2.936-22.363
				c0.764-3.611,1.702-7.125,3.051-10.482c0.674-1.678,1.461-3.319,2.445-4.896c0.987-1.571,2.152-3.098,3.694-4.412
				c1.511-1.315,3.425-2.384,5.438-2.863c2.008-0.503,3.979-0.45,5.606-0.147c3.285,0.644,5.479,1.923,7.157,2.95
				c1.682,1.052,2.816,1.977,3.6,2.604c0.76,0.638,1.162,0.979,1.162,0.979c2.111,1.78,2.383,4.937,0.604,7.05
				c-1.781,2.113-4.938,2.383-7.053,0.603c-0.048-0.041-0.096-0.083-0.143-0.125l-0.135-0.122c0,0-0.303-0.278-0.873-0.801
				c-0.57-0.502-1.42-1.245-2.504-1.984c-1.065-0.75-2.42-1.499-3.646-1.789c-0.607-0.146-1.137-0.166-1.635-0.077
				c-0.502,0.08-1.04,0.307-1.688,0.807c-1.303,0.978-2.759,3.098-3.909,5.688c-1.178,2.599-2.151,5.654-2.979,8.911
				c-1.658,6.542-2.711,13.86-3.688,21.308c-0.254,1.884-0.49,3.728-0.82,5.728l-0.129,0.729l-0.073,0.383l-0.08,0.363l-0.319,1.446
				c-0.212,0.968-0.416,1.927-0.72,2.886c-1.075,3.812-2.532,7.653-5.241,11.01c-0.617,0.854-1.484,1.595-2.281,2.332
				c-0.914,0.649-1.802,1.343-2.856,1.769c-2.03,0.97-4.304,1.338-6.308,1.187c-2.021-0.114-3.865-0.571-5.479-1.207
				c-1.646-0.599-3.076-1.362-4.414-2.129c-2.64-1.567-4.793-3.256-6.619-4.813c-1.819-1.563-3.306-3.014-4.495-4.23
				c-1.188-1.225-2.082-2.223-2.688-2.916c-0.604-0.715-0.927-1.096-0.927-1.096c-0.89-1.051-0.759-2.625,0.292-3.514
				c1.022-0.865,2.542-0.768,3.44,0.209L128.377,150.443z"/>
			<path fill="#D0D2D3" d="M149.189,170.059c0.574,0.043,1.172,0.031,1.775-0.012c-6.188-0.775-9.318-4.885-10.855-9.541
				c-1.45-0.912-2.781-1.875-3.965-2.805c-1.721-1.354-3.151-2.641-4.309-3.729c-1.15-1.092-2.021-1.984-2.604-2.6
				c-0.563-0.605-0.858-0.938-0.858-0.938l-0.075-0.082c-0.748-0.811-1.919-1.006-2.881-0.557c-0.469,0.76-0.949,1.539-1.429,2.318
				c0.014,0.547,0.197,1.092,0.578,1.543c0,0,0.322,0.381,0.927,1.094c0.604,0.695,1.496,1.693,2.688,2.916
				c1.189,1.221,2.676,2.67,4.495,4.232c1.826,1.559,3.981,3.244,6.619,4.813c1.338,0.766,2.771,1.531,4.414,2.131
				C145.324,169.484,147.17,169.941,149.189,170.059z"/>
			<path fill="#ED1F24" d="M93.474,127.055c0,0-29.75,2.25-22,26.5l14.75-0.25L93.474,127.055z"/>
			<path fill="#D3202E" d="M75.141,137.221c0,0,6.083-5.541,13.833-6.916l-3.156,15.836l-4.01,0.58L75.141,137.221z"/>
			<path fill="#D1A109" d="M131.161,178.18c0,0-0.642-0.73-1.563-0.641c-0.921,0.092-0.125,1.781-0.125,1.781L131.161,178.18z"/>
			<path fill="#D1A109" d="M77.349,176.305c0,0,2.063-1.5,3.563-0.25l0.188,2.5C81.099,178.555,77.411,177.305,77.349,176.305z"/>
			<path fill="#FFFFFF" d="M95.265,188.813l-0.167,3.656c0,0,10.25,3.877,32.166,0.074l0.055-3
				C127.318,189.543,98.848,190.9,95.265,188.813z"/>
			<polygon fill="#FFFFFF" points="90.661,177.566 92.286,185.68 102.349,186.631 103.599,177.008 			"/>
			<path fill="#FFFFFF" d="M72.265,186.91l-0.167,3.656c0,0,10.25,3.877,32.167,0.074l0.054-3
				C104.319,187.641,75.848,188.998,72.265,186.91z"/>
			<polyline fill="#7F7C7D" points="94.192,183.553 96.036,183.75 97.432,186.127 99.307,182.1 96.307,179.414 93.349,183.414 			
				"/>
			<path fill="#111010" d="M82.659,183.641c0,0-6.144,0.498-9.998,2.66c-3.854,2.164,21.784,3.396,31.658,1.34
				C104.319,187.641,100.966,182.748,82.659,183.641z"/>
			<polygon fill="#FFFFFF" points="113.661,179.469 115.286,187.582 125.349,188.533 126.6,178.91 			"/>
			<path fill="#231F20" d="M105.659,185.543c0,0-6.144,0.498-9.998,2.66c-3.854,2.164,21.784,3.395,31.657,1.34
				C127.318,189.543,123.966,184.65,105.659,185.543z"/>
			<circle fill="#F1C119" cx="112.807" cy="63.721" r="5.667"/>
			<path fill="#7C0505" d="M78.057,60.138c0,0,14.377-10.271,33.75,0.75c4.833,2.75,11.167,8.417,12.5,17.083L78.057,60.138z"/>
			<path fill="#FFFFFF" d="M63.601,70.289c7.074-5.907,16.953-9.586,27.895-9.586c11.792,0,22.354,4.268,29.493,11
				c10.222-4.445,12.324,1.705,12.324,1.705c0.592,1.211,0.705,2.494,0.53,3.778C111.533,87.047,81.169,89.9,63.601,70.289z"/>
			<path fill="#D0D2D3" d="M55.058,81.17c0,0-7.717-14.035,6.607-9.16C75.993,76.885,55.058,81.17,55.058,81.17z"/>
			<path fill="#919496" d="M57.761,77.299c0,0-6.867-6.931-1.93,2.346C60.767,88.926,57.761,77.299,57.761,77.299z"/>
			<path fill="#FFFFFF" d="M130.061,88.011c-2.609-15.426-18.875-27.309-38.563-27.309c-21.51,0-38.941,14.179-38.941,31.668
				c0,17.49,17.434,31.668,38.941,31.668c0.809,0,1.605-0.025,2.404-0.065c0.861,3.759,1.582,9.589-1.021,13.119
				c0,0-17.863,13.357-8.75,26.047c-0.012-0.094-2.346-22.236,14.699-26.18l-2.979-13.572c0,0,6.327-1.89,13.85-5.213v17.471
				c0,0-17.983,21-7.801,35.222C119.708,170.322,155.549,160.787,130.061,88.011z"/>
			<path fill="#D0D2D3" d="M109.699,135.645v-17.47c-7.523,3.323-13.809,5.213-13.809,5.213l2.937,13.572
				c-17.045,3.942-14.711,26.086-14.699,26.181c1.777,2.479,2.672,3.313,6.842,5.637c0,0,5.619,2.248,10.929,2.091
				C91.716,156.645,109.699,135.645,109.699,135.645z"/>
			<ellipse fill="#D0D2D3" cx="85.646" cy="93.069" rx="33.094" ry="25.105"/>
			<ellipse fill="#FFFFFF" cx="68.745" cy="87.429" rx="12.938" ry="12.752"/>
			<ellipse fill="#FFFFFF" cx="98.827" cy="87.718" rx="15.967" ry="15.862"/>
			<g>
				<circle fill="#0071BC" cx="101.728" cy="87.801" r="12.364"/>
				<path fill="#0F4481" d="M100.839,90.914c-2.297-2.653-2.008-6.661,0.645-8.957c2.65-2.293,6.658-2.006,8.957,0.647
					c2.293,2.651,2.005,6.661-0.646,8.956C107.142,93.855,103.132,93.565,100.839,90.914z"/>
				<path fill="#FFFFFF" d="M104.537,88.967c-1.222-1.411-1.064-3.54,0.344-4.759c1.407-1.219,3.539-1.068,4.76,0.342
					c1.219,1.41,1.063,3.542-0.346,4.762C107.884,90.531,105.757,90.375,104.537,88.967z"/>
				<circle fill="#FFFFFF" cx="99.399" cy="85.885" r="1.644"/>
			</g>
			<g>
				<circle fill="#0071BC" cx="70.571" cy="87.585" r="10.265"/>
				<path fill="#0F4481" d="M69.833,90.17c-1.904-2.204-1.666-5.531,0.535-7.437c2.199-1.904,5.529-1.666,7.438,0.537
					c1.902,2.201,1.664,5.53-0.539,7.436C75.067,92.611,71.737,92.371,69.833,90.17z"/>
				<path fill="#FFFFFF" d="M72.903,88.553c-1.014-1.171-0.885-2.938,0.285-3.951c1.168-1.011,2.938-0.887,3.951,0.284
					c1.012,1.171,0.883,2.939-0.287,3.954C75.683,89.851,73.915,89.722,72.903,88.553z"/>
				<circle fill="#FFFFFF" cx="68.638" cy="85.995" r="1.364"/>
			</g>
			<path fill="#BE1E2D" d="M77.911,104.96c0,0,1.594,5.406-0.25,5.688c0,0,7.25,4.438,8.438-5.031c0,0-5.563,0.688-6.938-1
				L77.911,104.96z"/>
			<path fill="#6C6F71" d="M78.73,104.997c0,0-0.014-0.027-0.038-0.073c-0.027-0.069-0.065-0.191-0.099-0.332
				c-0.045-0.163-0.029-0.254-0.038-0.39c-0.003-0.129-0.006-0.267-0.009-0.404c0.063-0.508,0.125-1.016,0.125-1.016l0.979,0.2
				c0,0-0.074,0.44-0.148,0.881c-0.001,0.102-0.003,0.204-0.004,0.299c-0.001,0.088-0.01,0.209,0.001,0.22
				c0.006,0.035-0.006,0.061-0.004,0.092c0.022,0.048,0.035,0.075,0.035,0.075L78.73,104.997z"/>
			<path fill="#6C6F71" d="M73.432,100.314c0.461,0.751,0.553,1.434,0.782,2.101c0.239,0.65,0.592,1.235,1.074,1.593
				c0.479,0.36,1.083,0.505,1.746,0.473c0.328-0.012,0.67-0.063,1.012-0.131c0.342-0.082,0.683-0.185,1.03-0.29l0.219-0.066
				l0.209,0.089c0.403,0.173,0.861,0.342,1.302,0.482c0.446,0.143,0.903,0.246,1.356,0.342c0.91,0.18,1.832,0.248,2.726,0.145
				c0.896-0.093,1.751-0.39,2.512-0.865c0.382-0.238,0.722-0.536,1.07-0.839c0.365-0.291,0.721-0.604,1.211-0.877
				c-0.043,0.55-0.244,1.052-0.553,1.478c-0.3,0.435-0.714,0.778-1.136,1.101c-0.856,0.641-1.895,1.047-2.949,1.191
				c-1.056,0.146-2.122,0.075-3.13-0.157c-0.507-0.109-0.998-0.271-1.479-0.454c-0.484-0.187-0.939-0.386-1.408-0.667l0.428,0.023
				c-0.359,0.174-0.734,0.321-1.125,0.441c-0.396,0.107-0.8,0.214-1.231,0.231c-0.844,0.077-1.818-0.146-2.533-0.742
				c-0.717-0.593-1.107-1.416-1.309-2.207C73.051,101.921,72.949,101.08,73.432,100.314z"/>
			<g>
				<path fill="#1D8FCD" d="M75.638,100.836c0,0,2.877-5.856,3.938-2.765c0,0,2.379-3.481,2.379,2.109c0,0-2.254,1.536-2.379,3.398
					C79.575,103.58,77.245,102.643,75.638,100.836z"/>
				<path fill="#FFFFFF" d="M79.575,102.152c0,0,0.146-0.791,1.262-1.578C80.837,100.574,80.425,99.058,79.575,102.152z"/>
			</g>
			<path fill="#231F20" d="M119.224,186.184c0,0,6.188,1.174,7.25-0.783c0,0,1.614,2.396,0.844,4.125
				c-0.063,0.145,0.002,0.021,0.002,0.021l-6.096-0.955L119.224,186.184z"/>
			<polyline fill="#7F7C7D" points="119.849,184.168 121.349,183.945 122.849,186.574 124.724,182.547 121.724,179.861 
				119.599,184.168 			"/>
			<path fill="#6C6F71" d="M75.974,110.616c0,0,0.044,0.146,0.123,0.403c0.061,0.227,0.147,0.551,0.251,0.939
				c0.055,0.182,0.104,0.385,0.21,0.573c0.085,0.198,0.22,0.38,0.358,0.566c0.163,0.166,0.313,0.355,0.523,0.49
				c0.196,0.149,0.407,0.285,0.647,0.385c0.453,0.23,0.958,0.397,1.45,0.489c0.48,0.13,0.968,0.132,1.367,0.205
				c0.408,0.038,0.755,0.032,0.995,0.051c0.241,0.016,0.379,0.024,0.379,0.024l0.042,0.003c0.275,0.018,0.483,0.255,0.466,0.53
				c-0.017,0.262-0.234,0.463-0.491,0.467c0,0-0.147,0.002-0.405,0.005c-0.259-0.002-0.626,0.006-1.071-0.02
				c-0.446-0.054-0.966-0.073-1.519-0.235c-0.277-0.067-0.563-0.126-0.846-0.25c-0.284-0.109-0.578-0.205-0.845-0.384
				c-0.278-0.146-0.533-0.339-0.769-0.551c-0.246-0.193-0.436-0.456-0.621-0.688c-0.164-0.257-0.313-0.507-0.403-0.77
				c-0.111-0.252-0.157-0.511-0.204-0.741c-0.03-0.235-0.034-0.451-0.002-0.641c0.024-0.189,0.079-0.349,0.13-0.476
				C75.857,110.735,75.974,110.616,75.974,110.616z"/>
			<path fill="#7C0505" d="M82.974,148.344c0,0-6.167,18.949-1.667,34.314c0,0,1.333,3.281,17.167,0.299l0.5-21.186
				C98.974,161.771,94.974,144.465,82.974,148.344z"/>
			<polygon fill="#D1A109" points="94.286,176.93 96.245,176.283 95.891,177.971 			"/>
			<path fill="#F1C119" d="M95.724,177.18c0,0-14.375,3.125-18.375-0.875c0,0,0.5,5.875,1.875,7s14,2.375,18.25,0
				S95.724,177.18,95.724,177.18z"/>
			<path fill="#930805" d="M91.307,159.385l-7-11.338l10.667-2.836l14.833-1.789l14.333-8.951l8.833,11.637
				c-4.166,12.232-2.834,39.982-2.834,39.982c-3.166,1.939-6.833,1.492-6.833,1.492l-1.667-5.818l-2.333,5.07
				c-14.667,0.896-22.333-2.236-22.333-2.236c-4.167-12.383-2.667-22.975-2.667-22.975L91.307,159.385z"/>
			<path fill="#7C0505" d="M90.724,160.221c0,0,14.667,8.75,31.167,4.584l6.916,3.75l1.834-11.834l-4.916-6.25
				C125.725,150.471,90.724,159.221,90.724,160.221z"/>
			<path fill="#820906" d="M81.182,59.471c33.125-2.5,43.479,17.25,43.479,17.25c-24.25-17.375-51.854-12.333-51.854-12.333
				S76.317,59.838,81.182,59.471z"/>
			<path fill="#A8170C" d="M101.599,126.68c0,0-2.125-5,2.5-6.5s26.75-10.25,30.625-16.125c0,0,0.332-0.583,0-1.458
				c0,0,0.457-0.083,0.625,0.25c0.166,0.333,1.791,7.125,1.791,7.125s9.084,28.959,3.334,48.459c0,0-3,3.625-14-2v-4.375l-3.5,7.375
				c0,0-10.375,7-30.375,0.5c0,0-10.125,1-12.375-1.5c0,0-2.125-9.25,11.625-23.25c0,0,3.5-4.125,1-11l3.875-1
				c0,0,1.625,0,1.875,1.375c0.25,1.375,0.75,3,0.75,3s0.167,0.346,0.531,0.48C100.488,128.27,101.63,128.242,101.599,126.68z"/>
			<path fill="#A8170C" d="M80.891,59.179c-3.757,0.284-5.832,2.332-7.365,4.262c4.44-0.636,28.729-3.223,50.529,12.03
				C121.587,70.828,109.258,57.038,80.891,59.179z"/>
			<path fill="#919496" d="M122.222,74.679l4.02,8.793C126.242,83.472,138.602,68.096,122.222,74.679z"/>
			<path fill="#D0D2D3" d="M118.566,72.877c0,0-0.379,3.253,2.646,3.706c0,0,14.82-4.84,4.008,8.166c0,0-1.209,1.967,1.285,3.705
				c0,0,9.981-8.543,6.806-15.047C133.311,73.408,130.891,66.299,118.566,72.877z"/>
			<path fill="#BF4340" d="M101.599,126.68c0.031,1.563-1.11,1.59-1.719,1.359c-0.364-0.139-0.531-0.484-0.531-0.484
				s-0.5-1.625-0.75-3c-0.042-0.232-0.133-0.414-0.239-0.574l-4.011,1.449l-0.945,0.673c0.167,0.746,0.268,1.451,0.31,2.112
				c0,0,0.865,0.439,2.094,0.918c0.859,0.339,2.417,0.084,2.417,0.084c-7.25,14-8.375,25.729-8.375,25.729l4.375,0.604
				c0.313-9.313,9.333-27.168,9.333-27.168c23.461-3.749,33.213-17.041,33.723-17.952c-0.088-0.293-0.141-0.465-0.141-0.465
				l-35.875,12.959C100.781,124.75,101.599,126.68,101.599,126.68z"/>
			<path fill="#7C0505" d="M111.474,138.055c0,0,11.667-5.584,13-15.417c0,0-3.5,0.333-5.083,4.167
				C118.735,128.391,116.473,134.137,111.474,138.055z"/>
			<path fill="#FEE86E" d="M140.252,154.592c-0.611,0.244-1.389,0.369-2.309,0.369c-2.133,0-4.438-0.66-5.746-1.105
				c-1.281-11.129-1.988-11.479-2.954-11.965l-0.515-0.229h-0.477c-1.135,0-2.313,0.416-4.226,5.426l-4.818,8.697
				c-1.979,1.219-5.197,1.855-9.353,1.855c-0.001,0,0,0-0.002,0c-8.681,0-18.623-2.732-18.722-2.764l-0.655-0.182l-0.63,0.254
				c-0.773,0.313-1.677,0.473-2.688,0.473c-1.783,0-3.944-0.5-6.249-1.447l-0.46-0.188c-0.606,2.977-0.229,4.643-0.229,4.643
				c2.25,2.5,12.375,1.5,12.375,1.5c20,6.5,30.375-0.5,30.375-0.5l3.5-7.375v4.375c11,5.625,14,2,14,2
				c0.41-1.396,0.738-2.852,1.01-4.332L140.252,154.592z"/>
			<path fill="#ED1F24" d="M110.974,138.221c0,0,7.75-1.332,11.167-12c0,0,3.333-5.583,6.083-2.333
				c2.75,3.25,5.25,27.833-15.5,33.583L110.974,138.221z"/>
			<path fill="#F1C119" d="M104.557,120.72c0,0-3.333,0.667-3.083,3.417l1.25,3.5c0,0,28.75-6.25,34.583-17.25l-1.957-7.542
				C135.35,102.845,134.391,110.638,104.557,120.72z"/>
			<path fill="#F1C119" d="M140.475,158.43c0.19-0.646,0.363-1.313,0.522-1.979c-4.062,1.631-10.647-1.146-10.647-1.146
				s-1.25-11.25-2-11.625s-2.5,4.25-2.5,4.25l-5.125,9.25c-8.125,5.75-30.125-0.375-30.125-0.375
				c-3.341,1.354-7.487,0.234-10.445-0.979c-0.139,1.688,0.07,2.604,0.07,2.604c2.25,2.5,12.375,1.5,12.375,1.5
				c20,6.5,30.375-0.5,30.375-0.5l3.5-7.375v4.375C137.475,162.055,140.475,158.43,140.475,158.43z"/>
			<path fill="#F1C119" d="M103.571,138.863c0,0,0.393-0.523,1.701-0.523c1.309,0,4.187,0.131,4.776-0.262
				c0,0,0.785-0.523,1.374,0.066c0.589,0.588,4.318,9.42,2.225,20.086c0,0-6.739,2.023-10.403,1.375"/>
			<path fill="#D1A311" d="M102.497,139.678c0.464-0.762,2.447-2.344,3.977,0.586c1.53,2.928,3.212,18.352-2.448,19.455
				c-5.66,1.105-3.961-11.961-3.824-12.428C100.381,146.68,101.433,141.422,102.497,139.678z"/>
			<path fill="#BF4340" d="M135.35,102.845c-0.168-0.333-0.625-0.25-0.625-0.25c0.332,0.875,0,1.458,0,1.458
				c-3.875,5.875-26,14.625-30.625,16.125s-2.5,6.5-2.5,6.5c0.031,1.563-1.11,1.59-1.719,1.359
				c-0.364-0.139-0.531-0.484-0.531-0.484s-2.313,2.375,0.375,2.625s4.006-1.998,3.563-2.875c-2.229-4.417,0-5.625,0-5.625
				c19.438-5.688,29.688-13.688,31.438-15.375c0.567-0.55,0.916-1.29,0.982-2.163C135.527,103.437,135.391,102.93,135.35,102.845z"
				/>
			<path fill="#9E7902" d="M102.811,140.357c0.367-0.707,1.933-2.174,3.141,0.545c1.208,2.717,2.537,17.033-1.933,18.061
				c-4.47,1.028-3.045-11.102-3.02-11.537C101.036,146.773,101.971,141.977,102.811,140.357z"/>
			<path fill="#F1C119" d="M96.724,123.429c-0.168,0-0.708,0.043-1.372,0.104l-2.503,0.646c0.546,1.5,0.794,2.862,0.867,4.086
				c1.113,0.047,4.123,0.094,5.633-0.711l-1.25-2.75C98.099,124.804,97.224,123.429,96.724,123.429z"/>
			<path fill="#FFFFFF" d="M107.021,146.133c-0.161-1.311-0.36-2.48-0.575-3.418c-1.145,0.018-2.097-0.098-2.097-0.098l0.438,3.625
				C105.571,146.428,106.335,146.342,107.021,146.133z"/>
			<path fill="#BF4340" d="M97.286,124.304c0.152,0.607,1.499,4.282,1.969,5.032c0.304,0.484,0.531-0.656,0.094-1.781
				c0,0-0.5-1.625-0.75-3c-0.25-1.375-1.875-1.375-1.875-1.375l-1.614,0.416C95.63,123.546,97.081,123.484,97.286,124.304z"/>
			<path fill="#FEE86E" d="M122.141,126.221c0,0,0.058-0.096,0.163-0.254c0.611-0.911,2.427-3.24,4.67-2.33
				c2.875,1.167,3.666,10.333,2.582,14.833c0,0,4.539-11.604-1.166-16.167C125.057,119.637,122.391,125.805,122.141,126.221z"/>
			<path fill="none" stroke="#540404" stroke-linecap="round" stroke-miterlimit="10" d="M96.411,130.367
				c0,0,2.063,2.563,7.625-0.438"/>
			<path fill="none" stroke="#540404" stroke-linecap="round" stroke-miterlimit="10" d="M94.849,134.367
				c0,0,2.063,2.563,7.625-0.438"/>
			<path fill="none" stroke="#540404" stroke-linecap="round" stroke-miterlimit="10" d="M93.286,138.43
				c0,0,1.813,3.188,7.375,0.188"/>
			<path fill="none" stroke="#540404" stroke-linecap="round" stroke-miterlimit="10" d="M91.661,142.742
				c0,0,1.813,3.188,7.375,0.188"/>
			<path fill="none" stroke="#540404" stroke-linecap="round" stroke-miterlimit="10" d="M89.974,147.264
				c0,0,1.75,3.666,7.313,0.666"/>
			<path fill="none" stroke="#540404" stroke-linecap="round" stroke-miterlimit="10" d="M89.224,151.514
				c0,0,1.813,3.541,7.375,0.541"/>
			<path fill="#F1C119" d="M90.479,154.695c0,0-0.797-0.645-0.881-0.354c-0.083,0.293-1.417,4.666-0.125,5.709
				c0,0,3.75,0.25,5,0.584c0,0-0.5-4.709-0.25-5.084S91.194,154.961,90.479,154.695z"/>
			<path fill="#D1A109" d="M94.495,177.408c0,0-1.458,1.709-2.375,7.168c0,0,3.375-0.166,4.417-0.979L94.495,177.408z"/>
			<path fill="#D0D2D3" d="M98.724,133.887c0,0,1.5-1.998,2.25-0.666c0.75,1.334-0.25,3.334,1.167,4.416
				c1.417,1.084-3.083-1.166-3.083-1.166L98.724,133.887z"/>
			<path fill="#D0D2D3" d="M87.583,133.887c0,0-1.5-1.998-2.25-0.666c-0.75,1.334,0.25,3.334-1.167,4.416
				c-1.417,1.084,3.083-1.166,3.083-1.166L87.583,133.887z"/>
			<path fill="#F1C119" d="M94.286,176.93c0,0,0.563,6.625,2.25,7.563c0,0,19.938,6.625,33.875,1.813c0,0,0.813-2.313,0.75-8.125
				C131.161,178.18,114.786,183.492,94.286,176.93z"/>
			<path fill="#111010" d="M99.757,146.141c0,0.857-0.505,1.559-1.129,1.559H86.946c-0.624,0-1.129-0.697-1.129-1.559v-23.02
				c0-0.859,0.505-1.555,1.129-1.555h11.682c0.624,0,1.129,0.695,1.129,1.555V146.141z"/>
			<path fill="#FFFFFF" d="M104.807,142.887c0,0-1-6.5-5.5-7c0,0-3.667-0.332-4.333,0.918c0,0-0.833,1.582,0.917,1.832
				s3.417,0.334,3.917,0.75c0,0-5.5-0.332-7,1.418c0,0-0.917,2.082,1.25,2.332s6.75-1.082,6.75,0.25
				c0,1.334,1.833,5.334,4.833,2.668C108.64,143.387,104.807,142.887,104.807,142.887z"/>
			<path fill="#F1C119" d="M82.071,138.113c0,0-0.394-0.523-1.701-0.523c-1.309,0-4.187,0.131-4.776-0.262
				c0,0-0.785-0.523-1.374,0.066c-0.589,0.588-4.318,9.42-2.225,20.086c0,0,6.739,2.023,10.403,1.375"/>
			<path fill="#D1A311" d="M83.146,138.928c-0.464-0.762-2.447-2.344-3.977,0.586c-1.53,2.928-3.212,18.352,2.448,19.455
				c5.66,1.105,3.961-11.961,3.824-12.428C85.261,145.93,84.209,140.672,83.146,138.928z"/>
			<path fill="#9E7902" d="M82.832,139.607c-0.367-0.707-1.933-2.174-3.141,0.545c-1.208,2.717-2.537,17.033,1.933,18.061
				c4.47,1.028,3.045-11.102,3.02-11.537C84.606,146.023,83.671,141.227,82.832,139.607z"/>
			<path fill="#FFFFFF" d="M78.621,145.383c0.161-1.311,0.36-2.48,0.575-3.418c1.144,0.018,2.097-0.098,2.097-0.098l-0.438,3.625
				C80.071,145.678,79.307,145.592,78.621,145.383z"/>
			<path fill="#FFFFFF" d="M80.835,142.137c0,0,1-6.5,5.5-7c0,0,3.667-0.332,4.333,0.918c0,0,0.833,1.582-0.917,1.832
				s-3.417,0.334-3.917,0.75c0,0,5.5-0.332,7,1.418c0,0,0.917,2.082-1.25,2.332s-6.75-1.082-6.75,0.25
				c0,1.334-1.833,5.334-4.833,2.668C77.002,142.637,80.835,142.137,80.835,142.137z"/>
			<circle fill="#443E3E" cx="92.578" cy="123.408" r="0.938"/>
			<path fill="#D0D2D3" d="M192.307,109.97c-7.166-0.167-13.562-17.848-21.332,0.167c-7.334,17,0.795,49.355-18.326,59.671
				c0.971-0.199,1.937-0.498,2.853-0.938c1.062-0.427,1.94-1.115,2.854-1.771c0.797-0.735,1.664-1.478,2.283-2.332
				c2.709-3.354,4.166-7.197,5.241-11.011c0.304-0.959,0.509-1.918,0.72-2.883l0.319-1.448l0.08-0.363l0.075-0.383l0.129-0.728
				c0.33-2,0.566-3.845,0.82-5.726c0.977-7.446,2.025-14.769,3.688-21.31c0.828-3.257,1.807-6.313,2.98-8.911
				c1.149-2.589,2.605-4.709,3.91-5.688c0.646-0.5,1.187-0.727,1.688-0.807c0.499-0.089,1.023-0.069,1.635,0.077
				c1.225,0.29,2.577,1.039,3.645,1.789c1.084,0.739,1.936,1.482,2.507,1.984c0.567,0.521,0.874,0.801,0.874,0.801l0.133,0.122
				c0.047,0.042,0.095,0.084,0.146,0.125c2.109,1.78,5.27,1.511,7.051-0.603c1.584-1.881,1.535-4.582,0.019-6.41
				C196.831,106.341,196.672,110.072,192.307,109.97z"/>
		</g>
		<g>
			<g>
				<path fill="#D0D2D3" d="M93.725,55.796c4.448,0,9.651,0.935,15.348,3.67c0.998-0.876,2.302-1.412,3.734-1.412
					c3.129,0,5.667,2.537,5.667,5.667c0,0.729-0.142,1.42-0.392,2.061c1.498,1.558,2.883,3.384,3.989,5.48
					c1.747-0.67,3.234-1.014,4.498-1.127c0.014-0.001,0.021-0.002,0.033-0.003c0.199-0.018,0.396-0.028,0.584-0.035
					c0.021-0.001,0.041-0.002,0.063-0.002c0.092-0.002,0.186-0.004,0.271-0.004c0.088,0,0.176,0.001,0.262,0.004
					c0.021,0,0.046,0.001,0.066,0.001c0.172,0.006,0.336,0.017,0.495,0.031c0.021,0.001,0.041,0.003,0.063,0.005
					c0.162,0.016,0.316,0.036,0.47,0.06c0.019,0.002,0.033,0.005,0.05,0.008c0.153,0.025,0.303,0.054,0.445,0.087
					c0.011,0.002,0.021,0.004,0.029,0.007c0.146,0.035,0.293,0.073,0.432,0.115c0.001,0,0.001,0,0.002,0
					c1.29,0.393,2.139,1.078,2.671,1.697c0.005,0.005,0.011,0.011,0.017,0.016c0.054,0.061,0.104,0.121,0.146,0.181
					c0.008,0.01,0.02,0.021,0.021,0.03c0.043,0.056,0.084,0.11,0.121,0.164c0.01,0.013,0.021,0.025,0.024,0.038
					c0.035,0.05,0.067,0.099,0.101,0.146c0.01,0.015,0.021,0.029,0.026,0.044c0.026,0.044,0.056,0.086,0.077,0.127
					c0.01,0.016,0.02,0.03,0.025,0.045c0.021,0.039,0.043,0.076,0.063,0.112c0.007,0.014,0.016,0.026,0.021,0.039
					c0.019,0.034,0.033,0.066,0.049,0.096c0.007,0.013,0.012,0.024,0.018,0.036c0.014,0.026,0.023,0.052,0.034,0.074
					c0.007,0.014,0.011,0.024,0.017,0.036c0.008,0.017,0.017,0.034,0.021,0.047c0.005,0.014,0.009,0.022,0.013,0.032
					c0.003,0.008,0.007,0.017,0.011,0.022c0.004,0.011,0.006,0.018,0.006,0.018c0.139,0.28,0.238,0.564,0.33,0.851
					c0.017,0.046,0.026,0.092,0.041,0.138c1.105,3.85-1.766,8.201-4.201,11.029c0.231,0.85,0.434,1.711,0.58,2.585
					c1.942,5.554,3.526,10.735,4.795,15.577c0.031-0.251,0.021-0.589-0.131-0.993c0,0,0.052-0.009,0.125-0.009
					c0.146,0,0.39,0.037,0.5,0.259c0.011,0.021,0.023,0.068,0.047,0.138c0.014,0.039,0.027,0.099,0.046,0.151
					c0.012,0.04,0.021,0.07,0.032,0.118c0.02,0.064,0.039,0.145,0.062,0.221c0.017,0.057,0.026,0.105,0.045,0.168
					c0.021,0.08,0.046,0.174,0.067,0.263c0.02,0.071,0.035,0.136,0.057,0.212c0.002,0.009,0.004,0.016,0.006,0.024l0,0
					c0.178,0.688,0.396,1.566,0.606,2.433l0.989,3.813c-0.01,0.015-0.021,0.03-0.025,0.045c0.001,0.001,0.001,0.001,0.001,0.002
					c1.065,3.578,7.924,27.821,3.772,45.748c-0.013,0.049-0.021,0.096-0.031,0.146c-0.165,0.711-0.348,1.414-0.549,2.104
					c0,0-0.553,0.647-2.016,0.971c0.528,0.367,1.063,0.733,1.628,1.093c0.657,0.414,1.331,0.817,2.041,1.2
					c1.14,0.586,2.333,1.16,3.569,1.548c1.232,0.434,2.502,0.651,3.706,0.672c0.088,0.003,0.174,0.005,0.261,0.005
					c1.115,0,2.135-0.271,3.064-0.771c0.527-0.205,0.974-0.646,1.463-0.987c0.431-0.481,0.921-0.869,1.303-1.479
					c1.66-2.216,2.816-5.354,3.582-8.683c0.229-0.815,0.371-1.685,0.521-2.547l0.229-1.297l0.061-0.324l0.049-0.308l0.09-0.662
					c0.209-1.709,0.377-3.604,0.549-5.461c0.671-7.5,1.428-15.147,2.938-22.362c0.762-3.611,1.7-7.125,3.049-10.482
					c0.675-1.678,1.461-3.319,2.445-4.896c0.987-1.571,2.152-3.098,3.694-4.412c1.511-1.315,3.425-2.384,5.438-2.863
					c1.063-0.266,2.113-0.376,3.11-0.376c0.888,0,1.729,0.087,2.496,0.229c3.285,0.644,5.479,1.923,7.158,2.95
					c1.681,1.052,2.815,1.977,3.599,2.604c0.76,0.638,1.162,0.979,1.162,0.979c0.23,0.196,0.436,0.414,0.621,0.64l0,0
					c0.146,0.179,0.271,0.371,0.393,0.563c0.043,0.068,0.092,0.133,0.129,0.202c0.101,0.178,0.178,0.362,0.252,0.548
					c0.041,0.098,0.082,0.194,0.113,0.294c0.061,0.174,0.104,0.349,0.143,0.528c0.023,0.123,0.051,0.245,0.064,0.369
					c0.021,0.165,0.037,0.329,0.047,0.496c0.006,0.145,0.002,0.289-0.008,0.434c-0.007,0.151-0.016,0.3-0.035,0.45
					c-0.021,0.166-0.063,0.328-0.103,0.491c-0.032,0.131-0.062,0.261-0.104,0.39c-0.063,0.188-0.146,0.371-0.23,0.553
					c-0.049,0.099-0.083,0.201-0.139,0.297c-0.151,0.276-0.332,0.542-0.543,0.793c-0.987,1.175-2.402,1.78-3.828,1.78
					c-1.139,0-2.281-0.387-3.224-1.177c-0.048-0.041-0.096-0.083-0.143-0.125l-0.134-0.122c0,0-0.305-0.278-0.873-0.801
					c-0.571-0.502-1.422-1.245-2.504-1.984c-1.066-0.75-2.42-1.499-3.646-1.789c-0.368-0.088-0.706-0.13-1.023-0.13
					c-0.211,0-0.412,0.018-0.607,0.053c-0.501,0.08-1.04,0.307-1.688,0.807c-1.303,0.978-2.759,3.098-3.91,5.688
					c-1.176,2.599-2.15,5.654-2.979,8.911c-1.658,6.542-2.711,13.86-3.688,21.308c-0.254,1.882-0.489,3.726-0.818,5.726
					l-0.131,0.728l-0.073,0.386l-0.08,0.36l-0.317,1.448c-0.211,0.966-0.416,1.925-0.722,2.884c-1.073,3.813-2.53,7.655-5.239,11.01
					c-0.619,0.854-1.486,1.597-2.283,2.332c-0.914,0.651-1.799,1.345-2.856,1.771c-0.463,0.224-0.938,0.406-1.421,0.563
					c-1.027,0.34-2.08,0.539-3.107,0.611c0,0,0,0-0.002,0c-0.188,0.016-0.369,0.02-0.558,0.022c-0.185,0.007-0.366,0.011-0.55,0.011
					c-0.229,0-0.449-0.006-0.67-0.021c-2.021-0.116-3.865-0.573-5.479-1.207c-1.646-0.6-3.075-1.363-4.414-2.129
					c-2.638-1.568-4.793-3.256-6.618-4.813c-0.775-0.668-1.479-1.311-2.141-1.925c-0.521,6.142-0.628,12.599-0.602,17.558
					c0.733,0.084,1.223,0.641,1.223,0.641c0.063,5.813-0.75,8.125-0.75,8.125c-0.611,0.211-1.236,0.395-1.868,0.563
					c-0.413,0.155-0.817,0.283-1.222,0.385c0.22,0.729,0.314,1.557-0.008,2.275c-0.002,0.006-0.002,0.004-0.004,0.01
					c0.002,0.002,0.006,0.008,0.006,0.008l-0.055,3c-7.213,1.252-13.16,1.672-17.896,1.672c-9.655,0-14.271-1.744-14.271-1.744
					l0.027-0.594c-3.278,0.313-6.193,0.437-8.754,0.437c-9.655,0-14.272-1.743-14.272-1.743l0.167-3.656
					c0.043,0.024,0.106,0.049,0.156,0.069c-0.234-0.213-0.187-0.438,0.24-0.681c2.526-1.416,6.025-2.114,8.144-2.434
					c-0.785-0.18-1.348-0.373-1.582-0.563c-1.375-1.125-1.875-7-1.875-7s1.026-0.744,2.158-0.744c0.147,0,0.297,0.014,0.446,0.041
					c-0.624-5.896-0.136-11.813,0.619-16.623c-3.711-0.039-8.575-1.498-8.575-1.498c-0.266-1.354-0.437-2.682-0.533-3.965
					c-5.088-15.989,6.139-22.397,14.354-24.908V123.7C68.932,121.693,55.564,110.88,53,97.175c-0.29-1.336-0.448-2.707-0.448-4.105
					c0-0.124,0.01-0.245,0.012-0.368c-0.001-0.111-0.01-0.22-0.01-0.332c0-3.945,0.895-7.719,2.515-11.203
					c-0.001,0-0.011,0.002-0.011,0.002s-5.603-10.189,1.6-10.189c1.25,0,2.888,0.308,5.007,1.029
					c0.003,0.001,0.005,0.002,0.008,0.003c3.277-3.172,7.306-5.81,11.863-7.74c-0.475,0.068-0.729,0.114-0.729,0.114
					s0.312-0.399,0.865-0.966c-0.046,0.006-0.104,0.014-0.147,0.02c1.268-1.596,2.922-3.256,5.575-3.95
					C81.223,58.281,86.47,55.795,93.725,55.796 M99.524,122.183c0.833-0.291,1.782-0.631,2.826-1.021
					c0.003-0.004,0.006-0.006,0.009-0.008c-1.048,0.391-2.001,0.731-2.839,1.022C99.521,122.179,99.523,122.181,99.524,122.183
					 M93.725,54.796c-7.453,0-12.902,2.58-15.007,3.763c-2.936,0.808-4.734,2.697-5.976,4.261l-0.871,1.097
					c-3.952,1.823-7.461,4.159-10.454,6.959c-1.861-0.593-3.462-0.895-4.76-0.895c-2.417,0-3.545,1.05-4.066,1.931
					c-1.673,2.828,0.559,7.729,1.358,9.301c-1.59,3.579-2.396,7.33-2.396,11.158c0,0.075,0.003,0.15,0.006,0.225l0.004,0.12
					l-0.005,0.099c-0.004,0.085-0.007,0.17-0.007,0.256c0,1.426,0.158,2.879,0.471,4.317c2.579,13.781,16.002,24.875,32.795,27.192
					v3.295c-4.779,1.563-10.79,4.577-13.768,10.254c-2.271,4.329-2.464,9.569-0.575,15.578c0.105,1.343,0.287,2.677,0.54,3.966
					l0.116,0.593l0.578,0.174c0.184,0.058,4.14,1.23,7.708,1.49c-0.751,5.25-0.94,10.184-0.563,14.688
					c-1.116,0.188-1.982,0.798-2.093,0.878l-0.458,0.332l0.048,0.563c0.109,1.274,0.521,5.123,1.651,6.979
					c-1.959,0.435-4.096,1.087-5.831,2.062c-0.077,0.043-0.15,0.088-0.217,0.137l-0.613-0.36l-0.076,1.661l-0.167,3.654
					l-0.033,0.728l0.679,0.256c0.196,0.074,4.9,1.81,14.626,1.81c2.455,0,5.042-0.11,7.704-0.334l-0.008,0.173l0.678,0.258
					c0.195,0.073,4.898,1.81,14.624,1.81c5.541,0,11.62-0.565,18.066-1.686l0.813-0.143l0.016-0.826l0.053-2.853
					c0.19-0.542,0.248-1.129,0.174-1.765c0.119-0.041,0.238-0.083,0.357-0.13c0.729-0.191,1.327-0.375,1.889-0.566l0.457-0.157
					l0.16-0.455c0.037-0.103,0.871-2.547,0.811-8.469l-0.004-0.367l-0.243-0.277c-0.056-0.063-0.401-0.444-0.978-0.717
					c-0.014-3.944,0.063-9.346,0.438-14.703c0.218,0.188,0.433,0.379,0.649,0.563c1.479,1.268,3.795,3.149,6.759,4.915
					c1.368,0.781,2.858,1.582,4.584,2.209c1.838,0.726,3.784,1.15,5.762,1.269c0.228,0.019,0.478,0.021,0.729,0.021
					c0.189,0,0.39-0.004,0.586-0.012l0.08-0.003c0.17-0.007,0.339-0.013,0.512-0.022c1.146-0.082,2.273-0.305,3.352-0.66
					c0.521-0.166,1.03-0.365,1.51-0.595c1.021-0.416,1.865-1.024,2.688-1.617l0.354-0.252l0.052-0.036l0.048-0.045l0.376-0.345
					c0.709-0.646,1.44-1.317,2.021-2.112c3.013-3.734,4.475-8.023,5.408-11.347c0.295-0.933,0.504-1.888,0.704-2.813l0.028-0.129
					l0.318-1.447l0.08-0.362l0.08-0.405l0.131-0.742c0.293-1.771,0.518-3.433,0.729-5.037l0.1-0.729
					c0.926-7.062,1.971-14.509,3.666-21.194c0.879-3.459,1.861-6.402,2.922-8.745c1.07-2.407,2.45-4.436,3.603-5.3
					c0.614-0.475,1.004-0.58,1.244-0.619c0.157-0.028,0.302-0.041,0.448-0.041c0.244,0,0.506,0.034,0.793,0.104
					c0.938,0.222,2.143,0.817,3.305,1.634c1.057,0.721,1.876,1.441,2.418,1.917l0.855,0.787l0.133,0.121
					c0.061,0.053,0.113,0.101,0.17,0.148c1.088,0.917,2.459,1.418,3.871,1.418c1.773,0,3.449-0.778,4.596-2.135
					c0.242-0.29,0.456-0.601,0.648-0.952c0.051-0.089,0.094-0.182,0.133-0.276l0.033-0.078c0.088-0.188,0.195-0.417,0.278-0.667
					c0.041-0.125,0.072-0.25,0.104-0.377l0.021-0.088c0.052-0.198,0.097-0.396,0.121-0.596c0.022-0.175,0.037-0.354,0.045-0.539
					c0.011-0.173,0.015-0.346,0.006-0.52c-0.009-0.198-0.024-0.394-0.053-0.59c-0.021-0.153-0.05-0.298-0.081-0.444
					c-0.051-0.238-0.104-0.44-0.168-0.632c-0.034-0.102-0.073-0.201-0.114-0.301l-0.022-0.057c-0.081-0.205-0.178-0.429-0.303-0.656
					c-0.035-0.063-0.076-0.128-0.119-0.192l-0.03-0.048c-0.138-0.221-0.285-0.452-0.476-0.68c-0.256-0.31-0.494-0.554-0.746-0.766
					l-1.162-0.979l-0.104-0.082c-0.771-0.62-1.938-1.558-3.609-2.604c-1.883-1.152-4.16-2.43-7.496-3.083
					c-0.894-0.165-1.793-0.248-2.688-0.248c-1.147,0-2.276,0.137-3.354,0.406c-2.049,0.487-4.133,1.581-5.854,3.079
					c-1.425,1.213-2.662,2.688-3.885,4.634c-0.938,1.501-1.767,3.155-2.527,5.056c-1.227,3.055-2.211,6.438-3.101,10.648
					c-1.521,7.271-2.292,15.095-2.953,22.479l-0.051,0.539c-0.15,1.65-0.309,3.359-0.494,4.891l-0.09,0.648l-0.045,0.285
					l-0.055,0.301l-0.229,1.299l-0.031,0.181c-0.142,0.804-0.271,1.563-0.47,2.274c-0.824,3.591-2.004,6.461-3.42,8.353
					l-0.023,0.033l-0.021,0.032c-0.196,0.318-0.445,0.568-0.733,0.858c-0.131,0.134-0.263,0.265-0.39,0.4
					c-0.131,0.095-0.258,0.192-0.385,0.294c-0.274,0.219-0.539,0.425-0.771,0.514l-0.06,0.022l-0.056,0.028
					c-0.813,0.438-1.661,0.646-2.594,0.646c-0.074,0-0.146-0.001-0.226-0.004c-1.142-0.02-2.313-0.229-3.412-0.616
					c-1.215-0.379-2.368-0.938-3.441-1.489c-0.584-0.313-1.214-0.688-1.965-1.158c-0.014-0.012-0.023-0.02-0.039-0.023
					c0.391-0.25,0.591-0.473,0.652-0.544l0.138-0.161l0.062-0.203c0.188-0.646,0.375-1.351,0.563-2.156l0.022-0.113
					c4.063-17.54-2.09-40.503-3.67-45.899l0.021-0.033l-0.094-0.348v-0.137l-0.049-0.048l-0.945-3.65
					c-0.209-0.857-0.432-1.738-0.604-2.43l-0.043-0.163l-0.021-0.078l-0.07-0.271l-0.021-0.078l-0.021-0.082l-0.024-0.104
					l-0.037-0.132l-0.037-0.133l-0.047-0.161c-0.049-0.156-0.092-0.256-0.114-0.302c-0.177-0.35-0.481-0.603-0.861-0.724
					c-1.211-4.447-2.67-9.115-4.346-13.906c-0.117-0.678-0.267-1.365-0.45-2.086c2.582-3.099,5.229-7.491,4.063-11.554
					c-0.014-0.047-0.028-0.107-0.049-0.166c-0.113-0.359-0.229-0.661-0.363-0.941l-0.006-0.015l-0.008-0.018l-0.021-0.049
					l-0.011-0.021l-0.047-0.104l-0.026-0.059l-0.074-0.151l-0.001-0.002l-0.023-0.046c-0.021-0.045-0.051-0.092-0.078-0.141
					l-0.049-0.085c-0.011-0.017-0.043-0.07-0.076-0.125l-0.877,0.484l0.847-0.535c-0.033-0.053-0.069-0.107-0.107-0.162
					l-0.012-0.018l-0.033-0.045c-0.039-0.056-0.08-0.113-0.125-0.171l-0.008-0.011l-0.049-0.06c-0.048-0.06-0.104-0.135-0.173-0.21
					c-0.797-0.923-1.854-1.605-3.071-1.992l-0.142-0.068h-0.088c-0.11-0.031-0.229-0.061-0.349-0.088l-0.022-0.006l-0.055-0.011
					c-0.117-0.028-0.287-0.061-0.463-0.09l-0.066-0.011c-0.157-0.025-0.332-0.047-0.515-0.065l-0.089-0.008
					c-0.158-0.015-0.345-0.026-0.535-0.033l-0.076-0.001c-0.092-0.003-0.188-0.004-0.285-0.004c-0.1,0-0.196,0.001-0.299,0.004
					l-0.084,0.003c-0.188,0.006-0.402,0.018-0.621,0.037c-1.241,0.111-2.566,0.411-3.979,0.895
					c-0.914-1.588-2.024-3.096-3.313-4.498c0.168-0.592,0.253-1.198,0.253-1.811c0-3.676-2.991-6.667-6.667-6.667
					c-1.391,0-2.741,0.438-3.868,1.243C103.913,55.974,98.798,54.796,93.725,54.796L93.725,54.796z"/>
			</g>
		</g>
	</g>
</g>
<g>
	<circle fill="#FFDD50" cx="133.139" cy="127.787" r="76.53"/>
	<polygon fill="#D19134" points="55.085,187.132 160.084,159.516 154.203,159.427 165.607,158.514 108.046,162.68 	"/>
	<circle fill="#FFB624" cx="131.041" cy="132.426" r="54.158"/>
	<path fill="#FFDD50" d="M218.443,63.675c-0.403-1.763-1.644-3.148-3.272-3.691c-0.412-0.146-1.054-0.34-1.897-0.34
		c-1.426,0-2.742,0.542-3.903,1.589c-0.728-0.85-1.69-1.609-2.802-2.05c-1.336-1.399-3.125-2.157-5.142-2.157
		c-1.147,0-2.335,0.241-3.637,0.742c-1.29,0.496-2.394,1.223-3.312,2.005c-0.906-0.617-1.979-1.128-3.092-1.343
		c-0.441-0.085-1.033-0.182-1.678-0.182c-0.463,0-0.912,0.05-1.338,0.148c-1.007-0.534-2.158-0.941-3.35-1.167
		c-0.457-0.086-0.918-0.13-1.371-0.13c-2.998,0-5.09,1.858-6.475,3.085c-0.189,0.17-0.38,0.348-0.568,0.534
		c-0.365-0.351-0.789-0.696-1.282-1.034c-0.995-0.68-2.366-1.461-4.152-1.461c-0.511,0-1.016,0.064-1.539,0.195
		c-0.87,0.217-1.577,0.615-2.317,1.157c-0.321-0.243-0.7-0.511-1.121-0.775c0.984-0.979,2.027-2.031,3.006-3.016l1.806-1.815
		c2.255-2.251,4.027-4.504,4.864-6.178c0.791-1.582,1.658-4.719-1.409-7.964c-1.397-1.478-3.937-3.108-6.873-3.248l-0.183-0.01
		c-0.271-0.015-0.529-0.027-0.787-0.027c-3.049,0-5.292,1.583-8.36,4.501c-4.397,4.178-11.653,16.122-11.724,16.243
		c-0.064,0.112-0.146,0.264-0.247,0.447c-0.146-0.007-0.294-0.012-0.438-0.012c-2.785,0-4.664,1.277-5.854,2.085
		c-0.415,0.282-0.914,0.66-1.45,1.114c-0.116-0.128-0.241-0.255-0.374-0.375c-0.843-0.769-2.373-1.766-4.142-2.25
		c-0.604-0.166-1.222-0.251-1.835-0.251c-2.217,0-3.908,1.049-5.176,2.078c-0.429-0.407-0.877-0.739-1.342-1.009l7.004-26.984
		l-5.772-0.366c-1.226-0.078-2.256-0.115-3.24-0.115c-22.943,0-41.608,15.182-41.608,33.843c0,0.27,0.015,0.537,0.031,0.803
		l0.002,0.041c-0.021,0.563-0.014,1.12,0.001,1.677c-2.05,0.577-4.198,0.851-6.223,0.936c-0.893,0.037-1.78,0.053-2.652,0.053
		c-4.379,0-8.384-0.407-10.971-0.748l-4.24-0.559l-6.621,26.905l6.208,0.014c0.565,0,1.183-0.008,1.736-0.017
		c0.41-0.005,0.781-0.01,1.059-0.01c16.738,0,31.189-8.084,37.788-19.699c1.743,1.533,4.167,2.692,5.696,2.984
		c0.682,0.13,1.318,0.193,1.946,0.193c1.314,0,2.567-0.284,3.83-0.867c0,0,0.28-0.129,0.375-0.172
		c0.447,0.177,0.956,0.341,1.528,0.471c0.734,0.167,1.472,0.251,2.194,0.251c1.552,0,3.022-0.379,4.329-1.111
		c0.875,0.456,1.938,0.817,3.107,0.817c0.488,0,0.971-0.062,1.437-0.186c0.678-0.18,1.381-0.504,2.043-0.879
		c0.664,0.494,1.771-1.233,2.766-0.821c1.135,0.472,3.098,0.69,4.959,0.69c1.954,0,3.115,1.932,5.016,0.735
		c0.199-0.125,0.404-0.262,0.611-0.41c0.893,0.525,1.909,0.966,2.928,1.173c0.57,0.117,1.149,0.176,1.721,0.176
		c1.994,0,3.546-0.691,4.654-1.41c0.983,0.577,2.004,0.869,3.048,0.869c0.987,0,2.274-0.125,3.846-0.978
		c1.38,0.806,3.121,1.426,4.985,1.426c0.885,0,1.74-0.141,2.544-0.421c1.114-0.388,2.116-0.991,3.012-1.631
		c0.595,0.411,1.196,0.755,1.746,1.047c1.405,0.745,2.832,1.123,4.24,1.123c0.743,0,1.438-0.104,2.077-0.272
		c-0.063,0.1-1.543,2.346-1.543,2.346c-1.229,1.852-4.043,5.966-5.192,7.587c-0.175,0.244-0.33,0.454-0.462,0.635
		c-0.727,0.985,0.873-1.292,1.326,1.025c0.201,1.034,2.103,4.356,3.897,5.454c0.687,0.419,3.367,0,5.853,0l2.004,0.438
		c3.546-0.097-1.512,0.975-0.408-0.915c0.424-0.723,0.832-1.474,1.292-2.319l0.513-0.94c2.713-4.497,4.973-7.553,7.104-9.61
		c1.269-1.224,2.873-2.715,4.522-4.205c0.172-0.145,0.719-0.612,1.42-1.204c1.869,1.398,4.23,2.245,6.588,2.245
		c0.773,0,1.533-0.094,2.26-0.279c2.289-0.585,4.343-1.805,5.962-3.512c0.224-0.034,0.448-0.072,0.676-0.113
		c4.011-0.726,6.405-3.197,7.558-4.386c0.099-0.1,0.185-0.192,0.269-0.273C218.176,67.981,218.918,65.745,218.443,63.675z"/>
	<path fill="#FFFFFF" d="M175.932,133.585c0,0,14.479,11.22,16.782,42.244l-16.016,3.089l-32.899,2.133
		c0,0,8.109-8.479-2.929-18.798"/>
	<path fill="#FFFFFF" d="M103.833,132.994c0,0-18.457,45.311,17.143,23.093l6.771,6.132c0,0-55.667,29.109-31.531-24.85
		L103.833,132.994z"/>
	<g>
		<g>
			<path fill="#0D72B5" d="M126.607,36.529c-0.971-0.061-1.947-0.104-2.938-0.104c-20.342,0-36.833,13.014-36.833,29.067
				c0,1.436,0.138,2.845,0.393,4.223c-1.43-12.166,7.499-17.981,17.56-22.843c6.937-3.351,15.347-3.339,19.915-3.005L126.607,36.529
				z"/>
			<path fill="#E9242A" d="M109.425,46.625c-5.777,1.045-10.361,3.191-13.712,5.267c-5.797,4.113-9.699,9.471-8.717,17.824
				c0,0,0.024-8.168,7.237-12.901c6.926-4.546,17.719-4.846,27.907-3.065l2.01-7.75C120.681,45.858,114.227,45.757,109.425,46.625z"
				/>
			<path fill="#E9242A" d="M96.835,56.521c1.43,12.167-7.226,18.466-16.018,21.712c-6.101,2.253-15.756,2.488-21.043,2.278
				l-2.295,9.328c1.013,0.002,2.231-0.026,2.916-0.026c20.342,0,36.833-13.014,36.833-29.066
				C97.228,59.311,97.09,57.901,96.835,56.521z"/>
			<path fill="#F7AD3F" d="M76.072,73.72c-5.814,0.242-11.402-0.329-14.446-0.729l-1.851,7.521
				c5.287,0.21,14.942-0.025,21.043-2.278c8.791-3.246,17.447-9.545,16.018-21.712C95.913,69.754,84.728,73.359,76.072,73.72z"/>
		</g>
		<path fill="#E9242A" d="M213.618,64.5c-0.269-0.09-0.63-0.315-1.531,0.789c-0.903,1.105-2.299,1.735-4.328,1.984
			c-0.657,0.08-1.083,0.008-1.36-0.125c0.035-0.852-0.069-1.813-0.33-2.333c-0.36-0.721-1.172-1.285-1.577-1.262
			c-0.404,0.022-0.404,0.248-1.104-0.744c-0.699-0.992-1.826-1.375-3.879-0.586c-1.599,0.616-3.084,2.12-4.005,3.628
			c-1.677,1.263-5.772,4.638-7.229,5.974c-1.051,0.962-3.11,2.85-4.439,4.07c2.837-4.087,7.948-8.944,8.632-9.801
			c0.728-0.913,0.558-1.15,0.237-1.572c-0.322-0.423-1.336-1.234-2.215-1.403c-0.881-0.169-1.235-0.135-1.454,0.254
			c-0.22,0.389-0.546,0.743-0.816,1.037c-0.271,0.293-0.563-0.541-1.104-1.105c-0.54-0.563-1.735-1.15-2.976-1.385
			c-1.24-0.235-2.187,0.416-3.787,1.836c-0.688,0.611-1.295,1.338-1.804,2.057c-1.95,1.5-6.29,4.151-6.979,4.542
			c-0.742,0.422-1.232,0.642-1.283-0.035c-0.051-0.677,1.943-2.4,2.436-2.941c0.489-0.542,1.133-1.217,1.252-1.809
			c0.116-0.592-0.373-1.286-1.336-1.945c-0.966-0.659-1.371-0.692-1.844-0.575c-0.475,0.118-1.557,1.133-3.064,2.328
			c-1.512,1.194-3.607,2.976-5.344,4.147c-1.734,1.172-1.734,0.542-1.261-0.045c0.472-0.586,1.894-2.119,3.2-3.562
			c1.307-1.442,1.037-1.692,0.519-2.209c-0.519-0.519-2.366-1.69-3.214-1.78c-0.846-0.09-1.314,0.473-1.745,1.036
			c-0.278,0.369-1.594,1.945-2.739,3.483c-1.723,0.92-4.508,2.245-5.467,2.625c-1.308,0.519-1.961,0.383-2.084-0.135
			c-0.125-0.519,0.664-1.42,2.243-2.93c1.579-1.51,6.536-6.312,8.453-8.115c1.916-1.804,5.229-5.185,7.347-7.304
			c2.12-2.119,3.473-3.944,3.969-4.936c0.496-0.993,0.18-1.713-0.608-2.547c-0.789-0.834-2.209-1.691-3.63-1.759
			c-1.42-0.067-2.164-0.315-5.815,3.157c-3.651,3.471-10.413,14.36-10.864,15.147c-0.265,0.462-1.088,2.041-1.902,3.677
			c-0.328-0.186-0.779-0.39-1.405-0.583c-2.249-0.693-3.499,0.198-4.694,1.009c-0.832,0.565-2.063,1.626-3.05,2.819
			c-0.491,0.382-1.024,0.799-1.549,1.216c-1.757,1.397-4.214,3.122-5.415,3.578s-0.795-0.642,0.137-2.13
			c0.93-1.488,1.469-2.328,2.066-3.218s0.475-1.589,0.081-1.95c-0.396-0.36-1.286-0.924-2.187-1.172
			c-0.903-0.248-1.736,0.068-3.021,1.172c-1.285,1.105-4.328,3.855-5.297,4.733c-0.969,0.879-0.789-0.136-0.451-0.688
			c0.338-0.555,0.766-1.024,0.947-2.038c0.18-1.016-0.361-1.624-1.082-2.368c-0.721-0.744-1.082-0.699-1.713-0.45
			c-0.483,0.189-1.665,1.583-2.466,3.419c-0.26,0.093-0.574,0.239-0.893,0.48c-0.743,0.563-2.637,1.961-3.741,2.682
			c-1.105,0.722-1.6,0.857-1.6,0.361c0-0.496,0.676-1.669,1.375-2.588c0.698-0.92,1.42-1.739,1.42-2.37
			c0-0.631-1.983-1.601-2.547-1.713c-0.563-0.113-1.082-0.383-1.397-0.045c-0.315,0.338-0.451,0.585-0.743,0.497
			c-0.293-0.091-1.061-1.398-2.57-1.871c-1.51-0.474-2.998,0.068-4.374,1.286c-1.375,1.216-2.321,2.163-3.449,3.832
			c-1.127,1.668-0.946,2.547-0.428,3.426c0.519,0.879,2.84,2.299,4.035,2.527c1.194,0.227,2.005,0.088,2.885-0.318
			c0.88-0.406,1.385-0.63,1.973-1.161c0.597-0.541,0.901,0.665,2.986,1.139c1.418,0.322,2.772,0.066,3.855-0.879
			c0.66-0.578,1.688-1.633,2.391-2.369c-0.258,1.591,0.066,1.774,0.518,2.188c0,0,1.256,1.076,2.017,0.874
			c0.76-0.203,2.112-1.167,2.856-1.776c0.744-0.608,2.673-2.502,3.519-3.264c0.845-0.762,0.676-0.15,0.27,0.525
			c-0.404,0.676-0.93,1.354-1.284,2.537c-0.354,1.184,0.536,1.975,2.22,2.673c1.871,0.776,3.547,1.08,5.892-0.396
			c1.054-0.665,2.295-1.846,3.388-3.004c0.178,0.794,0.738,1.348,1.03,1.651c0.472,0.496,1.679,1.284,2.619,1.476
			c1.993,0.406,3.241-0.846,3.96-1.476c0.451-0.395,1.224-1.084,1.744-1.55c0.271,0.483,0.566,0.866,0.76,1.098
			c0.563,0.676,1.419,1.466,2.006,1.466s1.15-0.068,2.118-0.744c0.565-0.394,1.752-1.312,2.647-2.011
			c-0.236,0.887,0.08,1.319,0.508,1.718c0.972,0.902,2.977,1.871,4.531,1.329c1.557-0.541,3.291-2.253,4.418-3.042
			c1.129-0.789,1.172-1.173,1.441-1.015c0.271,0.158-0.021,0.698,0.047,1.33c0.068,0.632,0.789,1.442,2.659,2.435
			c1.87,0.992,3.11,0.563,4.666-0.384c1.038-0.632,2.633-1.981,3.583-2.813c0.045,0.661,0.326,1.254,0.679,1.665
			c0,0,1.052,1.206,1.863,1.419c0.812,0.215,1.59,0.271,2.063,0.237c0.472-0.034,0.422,0.168,0.049,0.625
			c-0.371,0.457-1.183,1.506-2.084,2.813c-0.901,1.307-3.021,4.553-4.305,6.492c-1.285,1.939-4.125,6.086-5.273,7.708
			c-1.15,1.623-1.557,1.849-0.746,2.344c0.42,0.257,1.453,0.728,2.672,0.692c1.218-0.034,1.566-0.377,2.266-1.572
			c0.564-0.964,1.1-1.982,1.782-3.225c3.195-5.308,5.69-8.509,7.935-10.671c1.346-1.296,3.027-2.858,4.685-4.354
			c0.188-0.161,4.401-3.743,5.785-4.829c-0.063,0.419-0.125,1.143,0.171,1.711c0.988,1.916,3.959,3.432,6.283,2.84
			c2.369-0.606,3.839-2.134,4.656-3.429c0.629-0.026,1.399-0.102,2.313-0.267c2.862-0.519,4.483-2.547,5.343-3.381
			C213.98,65.402,213.891,64.591,213.618,64.5z M155.281,59.654c1.511-1.961,7.05-9.034,8.222-10.363
			c1.173-1.331,4.738-5.146,5.371-4.875c0.631,0.271-0.021,1.24-1.06,2.592c-1.037,1.353-3.224,3.9-4.733,5.5
			c-1.513,1.6-8.339,8.7-8.679,8.995C154.064,61.795,153.771,61.616,155.281,59.654z M110.38,66.281
			c-0.767,1.419-2.659,3.854-4.305,4.846c-0.779,0.47-2.389,0.519-1.578-0.879c0.812-1.397,2.321-3.426,4.035-4.734
			C110.246,64.207,111.147,64.861,110.38,66.281z M147.258,66.507c-0.281,0.637-0.334,1.265-0.256,1.848
			c-0.629,0.635-1.374,1.372-2.146,2.119c-1.063,1.032-2.467,1.37-2.332,0.405c0.136-0.963,1.185-2.434,3.33-4.683
			c0.946-0.991,1.67-1.309,2.182-1.354C147.738,65.461,147.467,66.039,147.258,66.507z M183.188,70.496
			c-1.33,0.856-1.556,0.925-2.097,0.653c-0.539-0.271,0.362-1.645,1.015-2.637c0.656-0.992,1.691-2.007,2.64-2.818
			c0.946-0.812,1.353-0.879,1.825-0.563c0.475,0.315,0.293,0.833-0.137,1.397c-0.427,0.563-1.33,1.87-1.33,1.87
			C184.586,69.076,184.52,69.64,183.188,70.496z M200.704,70.947c-1.082,0.646-1.579,0.693-2.121,0.202
			c-0.54-0.489-0.168-1.538,0.222-2.366c0.387-0.829,0.93-1.86,1.199-1.995c0.27-0.136,0.321,0,0.321,0s-0.037,1.014,0.378,1.572
			c0.417,0.558,0.771,0.93,1.361,1.302C202.064,69.663,201.641,70.39,200.704,70.947z"/>
	</g>
	<polygon opacity="0.15" enable-background="new    " points="115.84,134.379 115.84,134.379 115.842,134.382 	"/>
	<path fill="#FFFFFF" d="M107.312,121.135c0.001,0.006,0.003,0.011,0.005,0.018c-0.001-0.007-0.002-0.014-0.003-0.017
		C107.313,121.135,107.312,121.135,107.312,121.135z"/>
	<path opacity="0.15" enable-background="new    " d="M107.312,121.135c0.001,0.006,0.003,0.011,0.005,0.018
		c-0.001-0.007-0.002-0.014-0.003-0.017C107.313,121.135,107.312,121.135,107.312,121.135z"/>
	<path fill="#FFFFFF" d="M115.84,134.379l0.003-0.006c-0.101-0.064-0.197-0.139-0.296-0.204c0.037,0.028,0.074,0.06,0.111,0.084
		C115.719,134.294,115.778,134.34,115.84,134.379z"/>
	<path opacity="0.15" enable-background="new    " d="M115.84,134.379l0.003-0.006c-0.101-0.064-0.197-0.139-0.296-0.204
		c0.037,0.028,0.074,0.06,0.111,0.084C115.719,134.294,115.778,134.34,115.84,134.379z"/>
	<path fill="#FFFFFF" d="M107.313,121.135c0.001,0,0.003,0,0.004,0c-0.001-0.003-0.003-0.008-0.004-0.014c-0.001,0-0.001,0-0.001,0
		S107.312,121.128,107.313,121.135z"/>
	<path opacity="0.15" enable-background="new    " d="M107.313,121.135c0.001,0,0.003,0,0.004,0
		c-0.001-0.003-0.003-0.008-0.004-0.014c-0.001,0-0.001,0-0.001,0S107.312,121.128,107.313,121.135z"/>
	<path fill="#FFFFFF" d="M106.988,130.641c-0.256,2.715,4.01,7.713,5.582,8.752c0.009,0.008,0.02,0.015,0.029,0.021
		C111.049,138.415,106.73,133.373,106.988,130.641z"/>
	<path opacity="0.15" enable-background="new    " d="M106.988,130.641c-0.256,2.715,4.01,7.713,5.582,8.752
		c0.009,0.008,0.02,0.015,0.029,0.021C111.049,138.415,106.73,133.373,106.988,130.641z"/>
	<path fill="#FFFFFF" d="M115.658,134.253c0.06,0.045,0.12,0.087,0.182,0.126l0,0C115.778,134.34,115.719,134.294,115.658,134.253z"
		/>
	<path opacity="0.15" enable-background="new    " d="M115.658,134.253c0.06,0.045,0.12,0.087,0.182,0.126l0,0
		C115.778,134.34,115.719,134.294,115.658,134.253z"/>
	<path fill="#515148" d="M94.315,110.002l-12.62-2.838l2.441-10.926l-10.839-6.021c-0.004-0.002-20.038-4.85-20.038-4.85
		c-0.002,0-13.69,0.976-13.69,0.976c-0.033,0.064-13.674,59.794-13.674,59.794l9.97,8.487l21.713,4.856l13.146-3.166l1.706-7.646
		l12.542,2.822c0.576,0.132,1.169,0.192,1.761,0.179c3.703-0.078,6.907-2.871,7.79-6.79l5.588-24.797
		C101.145,115.48,98.546,110.962,94.315,110.002z M94.436,118.806l-5.587,24.795c-0.369,1.649-1.663,2.441-2.604,2.221
		l-12.549-2.824l6.731-30.159l12.609,2.839C94.123,115.922,94.765,117.353,94.436,118.806z"/>
	<g>
		<path fill="#818279" d="M84.971,151.491l-13.225-2.978c-4.23-0.955-6.827-5.475-5.793-10.072l5.588-24.794
			c0.881-3.925,4.085-6.719,7.788-6.798c0.59-0.012,1.184,0.051,1.764,0.179l13.222,2.975c4.23,0.96,6.83,5.478,5.794,10.082
			l-5.588,24.795c-0.883,3.92-4.087,6.712-7.79,6.792C86.141,151.684,85.546,151.623,84.971,151.491z M77.213,114.924l-5.589,24.797
			c-0.324,1.448,0.316,2.881,1.401,3.125l13.221,2.977c0.941,0.221,2.235-0.571,2.604-2.221l5.587-24.795
			c0.328-1.453-0.314-2.884-1.399-3.128L79.816,112.7c-0.121-0.029-0.241-0.041-0.363-0.038
			C78.609,112.681,77.536,113.479,77.213,114.924z"/>
	</g>
	<path fill="none" d="M45.785,117.233l0.161-0.731c-1.183,0.37-2.239,0.557-2.927,0.624
		C43.657,117.137,44.628,117.165,45.785,117.233z"/>
	<path opacity="0.15" enable-background="new    " d="M79.452,112.663c0.122-0.003,0.243,0.009,0.363,0.038l13.3,2.596
		c1.086,0.245,1.952,1.688,1.623,3.144l-1.105,3.937l5.611,1.542l0.553-2.45c-0.637-2.041-1.078-4.22-2.241-5.51
		c-2.064-2.291-3.468-3.098-4.527-3.559c-1.057-0.463-2.251-1.19-2.681-2.162c-0.363-0.82-1.251-1.408-1.251-1.408l0,0l-8.003-1.802
		c-0.338-0.076-0.679-0.124-1.023-0.151l-0.806,5.812C79.328,112.679,79.391,112.665,79.452,112.663z"/>
	<path fill="#DBBB37" d="M43.019,117.126c-0.524-0.008-0.837-0.01-0.837-0.01C42.17,117.163,42.498,117.173,43.019,117.126z"/>
	<g>
		<path fill="#818279" d="M78.358,150.005l6.614,1.492c0.578,0.129,1.168,0.19,1.76,0.174c3.703-0.078,6.908-2.87,7.79-6.79
			l0.355-1.582c-1.459,0.772-3.451,1.102-6.147,0.606c-0.46,1.423-1.608,2.122-2.484,1.92l-7.178-1.617L78.358,150.005z"/>
	</g>
	<path d="M84.25,98.938l0.081,0.043l-0.075-0.017C84.254,98.957,84.25,98.947,84.25,98.938z"/>
	<path opacity="0.15" enable-background="new    " d="M88.727,143.909c-0.233,0.72-0.645,1.248-1.106,1.571l0.027,0.014
		c0,0,0.391,1.468,1.574,2.004c1.184,0.532,0.157,1.201-0.516,1.359c-1.126,0.27-4.916-0.683-8.423-1.571
		c-5.107-1.294-7.956-1.894-7.956-1.894l-0.623,3.114c0.015,0.001,0.028,0.005,0.042,0.009l6.612,1.488v0.002l6.614,1.492
		c0.578,0.129,1.168,0.189,1.76,0.174c3.703-0.078,6.908-2.87,7.79-6.79l0.358-1.588c-0.365,0.194-0.757,0.364-1.19,0.494
		C92.387,144.188,90.758,144.285,88.727,143.909z"/>
	<path fill="#818279" d="M49.818,92.124l-10.25-5.782c0,0,13.687-0.976,13.69-0.976c0,0,20.035,4.848,20.038,4.85l10.84,6.021
		c0,0.006-12.605,0.737-12.605,0.737L49.818,92.124z"/>
	<polygon fill="#66665D" points="50.496,91.519 41.811,86.854 53.209,86.057 72.755,90.786 82.476,95.868 71.502,96.361 	"/>
	<polygon fill="#515148" points="51.012,91.208 43.721,87.277 53.339,86.605 72.291,91.119 80.824,95.559 71.388,95.857 	"/>
	<polygon fill="#66665D" points="50.489,92.274 35.864,154.622 57.577,159.48 71.373,96.944 	"/>
	<path fill="#818279" d="M49.818,92.124l-10.25-5.782c-0.033,0.064-13.674,59.794-13.674,59.794l9.97,8.487L50.49,92.275
		L49.818,92.124z"/>
	<polygon fill="#CCCCCC" points="124.45,163.801 120.777,165.384 112.992,160.372 118.721,157.445 	"/>
	<polygon fill="#515148" points="84.136,96.237 71.531,96.98 71.373,96.944 57.577,159.48 70.723,156.314 	"/>
	<path fill="#D0D1D2" d="M149.775,166.666c0,0,2.992,4.52,0,13.997l26.923-1.745c0,0-3.007-17.416-16.699-22.915L149.775,166.666z"
		/>
	<g>
		<g>
			<path fill="#FFFFFF" d="M101.915,121.139c6.985,1.41,0.62,15.202,0.62,15.202s-2.351,3.429-9.774,4.979
				c-8.406,1.752-10.209-3.453-10.12-7.604c0.092-4.151,3.855-5.051,3.855-5.051c-1.191-1.522-0.398-4.562,1.881-5.873
				c3.507-2.019,7.592,1.052,7.592,1.052C96.404,122.755,94.928,119.729,101.915,121.139z"/>
			<path fill="#D0D1D2" d="M100.482,134.324c-6.811-2.016-4.503-9.999-4.503-9.999C90.685,133.951,100.482,134.324,100.482,134.324z
				"/>
			<path fill="#D0D1D2" d="M94.445,130.861c-1.584-3.103-7.95-2.196-7.95-2.196C92.804,129.28,94.446,130.861,94.445,130.861z"/>
			<path fill="#D0D1D2" d="M87.728,139.057c8.148,2.715,8.04-4.863,8.04-4.863c-1.947,7.519-11.269,2.145-11.269,2.145
				C84.002,138.445,87.728,139.057,87.728,139.057z"/>
		</g>
		<path fill="#D0D1D2" d="M100.482,134.324c-6.811-2.016-4.503-9.999-4.503-9.999C90.685,133.951,100.482,134.324,100.482,134.324z"
			/>
		<path fill="#D0D1D2" d="M86.495,128.665c6.309,0.616,7.951,2.196,7.95,2.196C92.861,127.76,86.495,128.665,86.495,128.665z"/>
		<path fill="#D0D1D2" d="M95.769,134.193c-1.947,7.518-11.27,2.144-11.27,2.144c-0.497,2.108,3.229,2.72,3.229,2.72
			c2.081,0.693,3.622,0.715,4.765,0.362c0.923-0.284,1.586-0.81,2.062-1.423C95.799,136.391,95.769,134.193,95.769,134.193z"/>
	</g>
	<g>
		<g>
			<path fill="#CE002C" d="M38.918,78.666c-1.854-2.765-6.009-4.49-6.009-4.49s4.967,5.379,4.948,5.984
				c-0.018,0.602,1.039,1.875-3.054,2.758c-4.093,0.885-7.184-1.375-7.683-3.976c-0.495-2.595,0.043-3.701,0.044-3.709
				c-2.061,3.031-0.564,7.878,3.136,9.24c3.977,1.458,8.292-3.198,10.394-2.34C40.696,82.133,39.651,79.757,38.918,78.666z"/>
			<path fill="#F50029" d="M27.109,78.951c0.499,2.602,3.575,4.871,7.667,3.984c4.093-0.884,3.5-1.872,3.518-2.476
				c0.02-0.602-1.64-2.832-1.64-2.832l0,0c-1.622-2.305-3.922-4.383-6.855-3.926c-1.431,0.224-2.336,0.946-3.046,2.26
				C26.752,75.97,26.612,76.357,27.109,78.951z"/>
			<path fill="#FF1044" d="M28.023,78.759c-0.836-1.419-0.219-3.014,0.339-3.5c0.556-0.486,1.783-0.975,2.969-0.972
				c1.188,0.002,3.628,1.079,4.725,2.085c1.206,1.106,2.19,3.851,2.19,3.851s-0.393-0.719-1.62-0.249
				c-1.229,0.473-2.472,1.79-4.848,1.194C29.402,80.566,28.555,79.667,28.023,78.759z"/>
			<path fill="#FFFFFF" d="M36.559,77.104c0,0-3.172-2.721-4.962-3.009c-1.793-0.292-2.862,0.499-3.155,0.924
				c-0.292,0.427,0.872,0.644,1.908,0.471c1.032-0.174,2.382-0.201,3.562,0.373C35.091,76.436,36.559,77.104,36.559,77.104z"/>
			<path fill="#FFFFFF" d="M28.572,81.469c0,0,1.177,0.695,1.977,1.035c0.657,0.279,0.837,0.208,0.722,0.421
				c-0.149,0.271-0.313,0.463-0.518,0.367C29.705,82.793,28.572,81.469,28.572,81.469z"/>
			<path fill="#FFFFFF" d="M31.38,83.37c0.092-0.229,0.107-0.506,0.378-0.513c0.273-0.004,0.37,0.097,0.924,0.009
				c0.618-0.095,1.063-0.275,1.201,0.312c0.058,0.25,0.081,0.449-0.444,0.52C32.493,83.824,31.174,83.893,31.38,83.37z"/>
		</g>
		<g>
			<path fill="#F50029" d="M47.197,74.983c-0.888,1-0.856,2.93,0.755,4.298c1.61,1.369,2.089,0.912,2.335,0.735
				c0.25-0.179,0.897-1.446,0.897-1.446l0,0c0.076-1.466,0.29-3-0.794-4.035c-0.526-0.505-1.117-0.695-1.671-0.664
				C48.713,73.871,48.084,73.991,47.197,74.983z"/>
			<path fill="#FF1044" d="M47.556,75.292c0.313-0.769,1.14-1.013,1.507-0.941c0.364,0.079,0.938,0.418,1.298,0.895
				c0.363,0.478,0.635,1.783,0.614,2.533s-0.498,1.832-0.498,1.832s-0.204-0.151-0.77-0.5c-0.567-0.348-1.477-0.44-1.963-1.577
				C47.253,76.401,47.354,75.784,47.556,75.292z"/>
			<path fill="#FFFFFF" d="M50.836,78.205c0,0,0.119-2.104-0.315-2.913c-0.435-0.804-1.077-0.993-1.339-0.978
				c-0.259,0.015,0.009,0.546,0.398,0.909c0.388,0.362,0.812,0.893,0.944,1.541C50.653,77.412,50.836,78.205,50.836,78.205z"/>
			<path fill="#CE002C" d="M50.938,79.63c0.18-0.638,0.247-1.06,0.247-1.06s-0.648,1.267-0.897,1.446
				c-0.247,0.176-0.708,0.64-2.319-0.73c-1.611-1.368-1.652-3.301-0.761-4.299c0.886-0.995,1.495-1.119,1.5-1.119
				c-1.849,0.104-3.335,2.191-2.743,4.093c0.636,2.04,3.828,2.341,4.128,3.446C50.094,81.405,50.754,80.268,50.938,79.63z"/>
			<path fill="#FFFFFF" d="M46.639,76.345c0,0,0.081,0.683,0.189,1.108c0.09,0.35,0.177,0.399,0.053,0.42
				c-0.154,0.022-0.281,0.016-0.306-0.097C46.456,77.203,46.639,76.345,46.639,76.345z"/>
			<path fill="#FFFFFF" d="M46.738,78.051c0.119-0.033,0.237-0.112,0.321-0.003c0.085,0.109,0.076,0.177,0.279,0.373
				c0.228,0.216,0.437,0.339,0.243,0.576c-0.082,0.102-0.152,0.171-0.344-0.02C46.898,78.638,46.464,78.131,46.738,78.051z"/>
		</g>
	</g>
	<polygon opacity="0.15" enable-background="new    " points="53.339,86.605 66.448,94.73 51.012,91.208 43.721,87.277 	"/>
	<path opacity="0.15" enable-background="new    " d="M81.758,96.379l-11.171,50.028c0,0-1.051,6.79-3.819,7.921
		c-2.768,1.132-8.443,1.759-8.443,1.759l13.049-59.142L81.758,96.379z"/>
	<path fill="none" d="M79.265,112.688c-0.81,0.12-1.751,0.895-2.052,2.235l-5.589,24.797c-0.324,1.448,0.316,2.882,1.401,3.125
		l13.221,2.976c0.941,0.222,2.235-0.57,2.604-2.219l4.783-21.228l-15.135-4.159L79.265,112.688z"/>
	<path fill="none" d="M89.692,139.253l0.141-0.017l4.604-20.431c0.328-1.453-0.314-2.884-1.399-3.128L79.816,112.7
		c-0.121-0.029-0.241-0.041-0.363-0.038c-0.843,0.018-1.916,0.816-2.239,2.261l-5.589,24.796c-0.325,1.449,0.316,2.881,1.401,3.124
		l6.043,1.361v-0.001l7.178,1.617c0.056,0.013,0.112,0.021,0.17,0.027c0.389,0.037,0.814-0.096,1.206-0.371l-1.648-0.795
		L89.692,139.253z"/>
	<polygon opacity="0.3" fill="#FFFFFF" enable-background="new    " points="54.566,93.187 50.097,91.888 40.794,86.612 
		53.205,85.621 56.288,86.099 53.257,85.367 39.568,86.342 49.818,92.124 	"/>
	<path fill="none" d="M109.86,138.747L109.86,138.747c-1.234-1.08-2.18-1.91-2.797-2.449
		C107.681,136.839,108.628,137.669,109.86,138.747z"/>
	<path fill="#D0D1D2" d="M116.789,121.897l-1.901,1.827c-7.261-13.038,5.125-8.442,5.125-8.442L116.789,121.897z"/>
	
		<ellipse transform="matrix(-0.0628 0.998 -0.998 -0.0628 288.0515 6.729)" fill="#FFFFFF" cx="140.866" cy="138.614" rx="28.726" ry="35.852"/>
	
		<ellipse transform="matrix(-0.0627 0.998 -0.998 -0.0627 280.7705 7.2926)" fill="#D0D1D2" cx="136.961" cy="135.486" rx="22.887" ry="30.002"/>
	
		<ellipse transform="matrix(-0.0627 0.998 -0.998 -0.0627 260.7617 20.0296)" fill="#FFFFFF" cx="120.976" cy="132.461" rx="12.116" ry="12.294"/>
	
		<ellipse transform="matrix(-0.0627 0.998 -0.998 -0.0627 293.1279 -6.2411)" fill="#FFFFFF" cx="149.495" cy="134.527" rx="15.072" ry="15.173"/>
	<path fill="#919396" d="M173.727,131.781l-1.131,1.613c0.106-2.108-3.854-8.826-3.85-8.815
		C182.04,121.266,173.727,131.781,173.727,131.781z"/>
	<path fill="#CCCCCC" d="M182.123,176.205c0,0-0.348-14.039-5.425-18.09c0,0,3.354-0.328,7.815,17.986L182.123,176.205z"/>
	<path fill="#D0D1D2" d="M184.232,155.085c0,0,6.369,13.362,6.011,20.828h0.635C190.878,175.913,190.68,166.191,184.232,155.085z"/>
	<path fill="#D0D1D2" d="M167.805,125.68c13.952-2.799,3.404,7.689,3.404,7.689c-0.48,2.52,1.037,3.79,1.037,3.79l2.201-2.154
		c9.029-7.933,3.205-13.505,3.205-13.505c-4.563-3.301-12.002,0.964-12.002,0.964C165.6,125.387,167.805,125.684,167.805,125.68z"/>
	<g>
		<circle fill="#0071BC" cx="151.988" cy="133.075" r="11.451"/>
		<circle fill="#0F4481" cx="154.203" cy="131.312" r="5.882"/>
		<circle fill="#FFFFFF" cx="152.902" cy="130.976" r="3.126"/>
		<circle fill="#FFFFFF" cx="159.999" cy="131.969" r="1.523"/>
	</g>
	<g>
		<circle fill="#0071BC" cx="122.408" cy="132.15" r="9.416"/>
		<circle fill="#0F4481" cx="124.227" cy="130.701" r="4.836"/>
		<circle fill="#FFFFFF" cx="123.159" cy="130.423" r="2.571"/>
		<circle fill="#FFFFFF" cx="128.996" cy="131.239" r="1.251"/>
	</g>
	<path fill="#D0D1D2" d="M164.385,140.986l-5.171,8.393l-12.651,3.014l-11.883-8.804l-1.164-7.478
		c19.286-6.127,30.899,4.582,30.899,4.582"/>
	<path fill="#D0D1D2" d="M129.919,142.879l-8.509,3.96l-5.207-1.427l-7.788-8.158c9.028-7.549,24.722-1.105,24.722-1.105
		L129.919,142.879z"/>
	<path fill="#BE202E" d="M136.902,143.669c-3.846,1.188-4.892-2.229-4.892-2.229c-1.532,1.99-4.135,0.862-4.135,0.862
		s-1.905,12.94,2.17,13.104c4.076,0.164,6.69-11.995,6.69-11.995"/>
	<path fill="#6D6F71" d="M126.012,139.354c-0.111,0.563-0.059,1.178,0.26,1.683c0.336,0.495,0.918,0.856,1.615,1.079
		c0.678,0.232,1.438,0.326,2.154,0.172c0.186-0.023,0.352-0.086,0.508-0.172c0.176-0.059,0.313-0.16,0.441-0.281
		c0.063-0.057,0.146-0.098,0.189-0.17l0.069-0.109l0.151-0.371c0.221-0.504,0.365-1.043,0.519-1.574l0.074-0.252l0.026-0.104
		l0.019-0.048l0.008,0.03l0.031,0.146l0.073,0.331l0.145,0.673c0.112,0.442,0.168,0.899,0.322,1.323l0.234,0.519l0.336,0.42
		c0.496,0.514,1.207,0.736,1.896,0.727c0.699,0,1.381-0.217,1.941-0.549c0.584-0.305,1.049-0.746,1.384-1.206
		c0.508-0.618,0.61-1.28,0.706-1.729c0.001-0.455,0.033-0.73,0.095-0.746c0.06-0.014,0.144,0.246,0.245,0.75
		c0.007,0.494-0.021,1.295-0.547,2.065c-0.369,0.558-0.883,1.08-1.538,1.453c-0.642,0.396-1.417,0.674-2.267,0.694
		c-0.842,0.037-1.797-0.232-2.469-0.92l-0.445-0.557l-0.299-0.64c0.002,0,0,0.004,0,0.004s0-0.006-0.008,0.008l-0.001,0.017
		l-0.11,0.153c-0.071,0.108-0.187,0.175-0.28,0.259c-0.187,0.172-0.39,0.31-0.616,0.391c-0.216,0.111-0.441,0.186-0.672,0.219
		c-0.901,0.188-1.79,0.055-2.563-0.227c-0.759-0.258-1.513-0.717-1.949-1.412c-0.421-0.709-0.434-1.528-0.274-2.172
		c0.246-0.904,0.668-1.521,0.978-1.92c0.313-0.397,0.533-0.58,0.58-0.545C127.126,136.848,126.357,137.762,126.012,139.354z"/>
	<g>
		<path fill="#0B8ECC" d="M129.361,138.406l2.934,3.027l3.801-2.828c-1.748-5.855-3.563-2.733-3.563-2.733
			C131.748,133.257,129.361,138.405,129.361,138.406z"/>
		<path fill="#FFFFFF" d="M133.74,139.712l1.637-1.207C134.223,137.818,133.74,139.712,133.74,139.712z"/>
		<path fill="#FFFFFF" d="M129.991,138.585l1.028,0.955C130.823,138.246,129.991,138.585,129.991,138.585z"/>
	</g>
	<path fill="#818279" d="M89.132,142.352l0.63-2.795c0,0,4.987,1.295,5.978-4.817l0.029-2.199l1.331,0.905l-1.774,7.873
		L89.132,142.352z"/>
	<path fill="#969798" d="M125.73,150.742c0,0,1.77,14.158,11.172,0.931C136.902,151.673,128.195,169.727,125.73,150.742z"/>
	<path fill="#FF8500" d="M119.389,113.851l1.124,0.646c0,0,17.586-4.124,46.434,4.987c0,0,16.556-1.395,5.629-13.035
		c0,0-10.809,10.208-14.748,0.836c0,0,28.102,1.191-0.76-18.418c0,0,5.236,9.786-3.52,13.067c0,0-12.256,0.575-6.844-3.723
		c0,0,9.396-4.595,2.788-14.893c0,0-18.095,2.234-12.591,13.657c0,0-4.939,4.608-7.658,1.236c0,0-2.965-6.112,2.392-9.344
		c0,0-21.523,1.543-8.082,14.12c0,0-4.831,5.208-7.245-6.606C116.309,96.379,107.516,109.273,119.389,113.851"/>
	<path fill="#FFF492" d="M120.976,114.254c0,0-11.82-4.265-4.666-16.044c0,0,0.691,12.576,9.017,4.458c0,0-13.448-9.431,4.92-13.391
		c0,0-10.12,10.208,1.577,11.163c0,0,7.98-0.909,5.143-5.708c0,0-2.313-8.621,11.355-9.972c0,0,4.593,9.867-2.571,12.217
		c0,0-7.821,8.398,9.302,5.375c0,0,10.098-3.94,2.945-11.68c0,0,23.124,13.673-0.93,16.179c0,0,1.58,11.103,15.508,1.074
		c0,0,9.277,8.645-6.064,11.189C166.51,119.11,141.618,110.142,120.976,114.254z"/>
	<path fill="#FF8500" d="M117.175,113.492c0,0,25.55-7.597,53.248,5.321l-2.085,1.958c0,0-24.837-9.778-50.298-4.828
		L117.175,113.492z"/>
	<path fill="#55BB00" d="M118.369,108.836c0,0-3.216-0.205-2.526-4.537C116.532,99.968,117.414,109.672,118.369,108.836z"/>
	<path fill="#55BB00" d="M125.326,100.121c0,0-4.295-3.273-1.1-6.934C127.423,89.525,124.044,95.942,125.326,100.121z"/>
	<path fill="#55BB00" d="M140.87,96.975c0,0-1.759-5.205,3.871-8.674C150.37,84.832,141.999,94.067,140.87,96.975z"/>
	<polygon fill="#D19134" points="99.797,177.805 146.541,175.098 146.541,180.663 101.336,181.051 	"/>
	<path fill="#55BB00" d="M156.029,103.702c0,0,9.361-2.345,6.793-7.465C160.255,91.117,172.675,106.209,156.029,103.702z"/>
	<path fill="#A08CA5" d="M125.095,106.527c0,0-5.532,2.331,1.074,2.359c0,0,2.627,4.589,2.548,0c0,0,7.004-3.159-0.438-3.236
		C128.277,105.651,125.73,100.797,125.095,106.527z"/>
	<path fill="#A08CA5" d="M149.432,106.582c0,0-5.972-0.607-0.188,2.585c0,0,0.104,5.286,2.235,1.222c0,0,7.66,0.585,1.168-3.051
		C152.646,107.338,152.738,101.858,149.432,106.582z"/>
	<path fill="#A08CA5" d="M135.576,104.338c0,0-7.368,1.552,0.761,3.162c0,0,2.14,6.277,3.136,0.607c0,0,9.381-2.22,0.234-4.09
		C139.707,104.017,137.727,97.432,135.576,104.338z"/>
	<path fill="#D19134" d="M86.845,177.332c0,0,18.633-7.782,59.696-8.258l-0.883,7.48l-51.465,5.766L86.845,177.332z"/>
	<path fill="#55BB00" d="M166.945,114.496c0,0,4.791-1.383,4.91-3.224C171.977,109.432,177.323,115.132,166.945,114.496z"/>
	<circle fill="#5BD8C3" cx="127.075" cy="107.461" r="1.427"/>
	<circle fill="#5BD8C3" cx="137.848" cy="105.651" r="2.469"/>
	<circle fill="#5BD8C3" cx="150.996" cy="108.349" r="1.502"/>
	<g>
		<circle fill="#D30909" cx="198.613" cy="103.13" r="14.752"/>
		<path fill="#D30909" d="M185.271,96.833c-0.01,0.02,8.115-13.423,6.137-18.614c0,0,16.363,6.04,21.169,20.154l-13.964,15.718
			L185.271,96.833z"/>
		<circle fill="#FF0000" cx="197.178" cy="100.177" r="9.607"/>
		<circle fill="#FFFFFF" cx="201.025" cy="107.447" r="5.045"/>
	</g>
	<g>
		<circle fill="#D30909" cx="211.906" cy="132.021" r="8.79"/>
		<path fill="#D30909" d="M204.3,127.616c-0.008,0.011,5.488-7.564,4.571-10.746c0,0,9.413,4.403,11.563,13.022l-9.074,8.637
			L204.3,127.616z"/>
		<circle fill="#FF0000" cx="211.201" cy="130.195" r="5.724"/>
		<circle fill="#FFFFFF" cx="213.123" cy="134.705" r="3.005"/>
	</g>
	<g>
		<circle fill="#D30909" cx="205.576" cy="158.161" r="4.093"/>
		<path fill="#D30909" d="M202.688,155.264c-0.006,0.004,3.381-2.74,3.352-4.279c0,0,3.703,3.115,3.629,7.25l-5.122,2.789
			L202.688,155.264z"/>
		<circle fill="#FF0000" cx="205.479" cy="157.256" r="2.664"/>
		<circle fill="#FFFFFF" cx="205.798" cy="159.515" r="1.4"/>
	</g>
	<path fill="#FFB624" d="M55.085,187.132c0,0,84.058-30.182,166.915-14.422l-1.566,47.04c0,0-88.692-21.252-162.954-9.073
		L55.085,187.132z"/>
	<g>
		<g>
			<path fill="#D30909" d="M69.015,196.549c-0.006-0.705-0.427-1.122-1.301-1.258c-0.834-0.131-1.809-0.258-2.832-0.365
				c-2.774-0.292-4.192-1.285-4.173-3.068c0.032-2.844,1.858-4.695,5.369-5.467c3.348-0.733,5.097,0.422,5.265,3.484
				c-0.654,0.114-0.982,0.171-1.637,0.287c-0.609,0.107-1.02-0.146-1.301-0.623c-0.434-0.73-1.352-0.984-2.579-0.729
				c-1.502,0.314-2.299,1.072-2.329,2.121c-0.025,0.856,0.913,1.338,2.77,1.45c1.064,0.063,2.206,0.209,3.398,0.449
				c1.586,0.321,2.362,1.467,2.266,3.356c-0.147,2.936-2.057,4.554-5.664,4.897c-3.775,0.36-5.683-0.926-5.767-3.873
				c1.131-0.166,1.697-0.247,2.83-0.408c0.105,1.462,1.07,2.08,2.937,1.862C68.133,198.451,69.025,197.741,69.015,196.549z"/>
			<path fill="#D30909" d="M76.235,191.081c-1.117,0.165-1.674,0.248-2.791,0.419c0.336-2.236,1.784-3.579,4.344-4.018
				c3.064-0.524,4.62,0.377,4.683,2.716c0,1.722,0,2.585,0,4.308c0,3.494-1.865,5.16-4.851,5.623
				c-2.655,0.411-4.542-0.771-4.512-3.346c0.031-2.803,2.041-3.832,4.808-4.538c1.185-0.302,1.833-0.832,1.804-1.479
				c-0.031-0.666-0.649-0.959-1.804-0.785C76.929,190.13,76.382,190.489,76.235,191.081z M79.762,194.652c0-0.459,0-0.689,0-1.148
				c-0.65,0.38-1.412,0.732-2.226,1.004c-1.101,0.369-1.708,1.026-1.679,1.883c0.03,0.92,0.525,1.36,1.406,1.279
				C78.816,197.523,79.762,196.41,79.762,194.652z"/>
			<path fill="#D30909" d="M85.748,201.656c1.533-0.063,2.079-0.986,1.639-2.698c-1.513-5.044-2.269-7.493-3.781-12.245
				c1.268-0.199,1.902-0.299,3.17-0.492c0.882,3.493,1.323,5.271,2.206,8.885c0.773-3.276,1.16-4.938,1.934-8.299
				c0.167-0.813,0.609-1.283,1.323-1.385c0.782-0.109,1.172-0.165,1.955-0.271c-1.756,6.688-2.636,9.938-4.392,16.252
				c-0.671,2.221-1.343,2.97-3.654,3.02c-0.713,0.016-1.091,0-1.176-0.07c0-1.063,0-1.595,0-2.658
				C85.282,201.678,85.438,201.67,85.748,201.656z"/>
			<path fill="#D30909" d="M97.767,188.354c-1.118,0.117-1.678,0.179-2.795,0.304c0.335-2.604,1.785-4.07,4.349-4.399
				c3.069-0.394,4.625,0.76,4.688,3.479c0,2.002,0,3.003,0,5.003c0,4.061-1.866,5.894-4.854,6.271
				c-2.657,0.335-4.547-1.148-4.519-4.177c0.031-3.29,2.049-4.364,4.812-5.007c1.184-0.274,1.836-0.848,1.807-1.61
				c-0.03-0.78-0.651-1.157-1.808-1.032C98.46,187.288,97.915,187.668,97.767,188.354z M101.298,192.744c0-0.535,0-0.807,0-1.34
				c-0.651,0.404-1.414,0.771-2.229,1.035c-1.1,0.36-1.708,1.09-1.68,2.098c0.03,1.085,0.525,1.622,1.408,1.577
				C100.353,196.036,101.298,194.794,101.298,192.744z"/>
			<path fill="#D30909" d="M120.137,182.249c-1.236,6.603-1.853,9.845-3.09,16.219c-1.161-0.003-1.742-0.005-2.903,0
				c-0.672-4.487-1.011-6.709-1.683-11.103c-0.706,4.496-1.06,6.723-1.766,11.127c-1.169,0.012-1.753,0.02-2.921,0.039
				c-1.22-6.008-1.829-8.953-3.049-14.721c1.135-0.132,1.702-0.195,2.839-0.321c0.706,4.096,1.059,6.169,1.766,10.36
				c0.639-4.248,0.959-6.392,1.598-10.723c1.185-0.123,1.779-0.184,2.965-0.301c0.606,4.281,0.909,6.441,1.515,10.805
				c0.605-3.814,0.908-5.738,1.514-9.62c0.21-1.011,0.673-1.536,1.367-1.598C119.028,182.348,119.397,182.313,120.137,182.249z"/>
			<path fill="#D30909" d="M133.961,184.393c-0.119,0.006-0.178,0.01-0.297,0.016c0,3.881,0,5.82,0,9.703
				c0,0.728,0.275,1.129,0.82,1.139c0.346,0.006,0.52,0.009,0.863,0.018c0,1.35,0,2.022,0,3.373
				c-0.904,0.102-1.895,0.064-2.945-0.133c-1.053-0.195-1.559-1.219-1.536-3.145c0-7.54,0-11.313,0-18.853
				c0.579-0.053,0.872-0.079,1.452-0.131c0.736-0.065,1.346,0.942,1.346,2.103c0,1.113,0,1.668,0,2.781
				c0.672-0.039,1.011-0.061,1.684-0.1c0,0.389,0,0.581,0,0.969C135.35,183.4,134.738,184.359,133.961,184.393z"/>
			<path fill="#D30909" d="M139.408,185.66c-1.119,0.025-1.678,0.041-2.797,0.074c0.338-3.31,1.787-5.012,4.354-5.133
				c3.071-0.146,4.628,1.494,4.692,4.947c0,2.539,0,3.809,0,6.348c0,5.148-1.875,7.313-4.861,7.522
				c-2.654,0.188-4.55-1.884-4.521-5.784c0.031-4.229,2.064-5.391,4.816-5.91c1.18-0.224,1.838-0.881,1.809-1.858
				c-0.03-1.011-0.65-1.55-1.809-1.519C140.104,184.375,139.555,184.803,139.408,185.66z M142.941,191.641c0-0.684,0-1.022,0-1.705
				c-0.651,0.449-1.416,0.834-2.229,1.092c-1.097,0.346-1.713,1.214-1.684,2.515c0.029,1.401,0.525,2.128,1.41,2.155
				C141.996,195.743,142.941,194.249,142.941,191.641z"/>
			<path fill="#D30909" d="M149.381,195.795c0,1.452,0,2.178,0,3.63c0,2.875-0.947,4.126-2.42,4.431c0-0.299,0-0.448,0-0.746
				c0-0.354,0.216-0.766,0.611-1.092c0.482-0.396,0.756-1.049,0.756-1.871c0-0.43-0.146-0.653-0.419-0.67
				c-0.361-0.022-0.543-0.035-0.904-0.058c0-0.938,0-1.405,0-2.342c0-0.925,0.294-1.372,0.904-1.345
				C148.498,195.756,148.794,195.768,149.381,195.795z"/>
			<path fill="#D30909" d="M167.193,201.055c-2.598-0.264-3.897-0.386-6.495-0.615c0-9.217,0-13.822,0-23.039
				c0-1.479,0.651-2.793,1.472-2.818c2.104-0.064,3.153-0.091,5.256-0.135c2.689-0.057,4.477,1.967,4.477,6.803
				c0,2.877-1.729,5.342-1.723,5.563c0.014,0.408,2.229,2.896,2.229,6.502C172.408,198.96,170.284,201.365,167.193,201.055z
				 M166.816,179.066c-1.295,0-1.941,0.002-3.237,0.013c0,2.248,0,3.371,0,5.618c1.313,0.023,1.968,0.041,3.278,0.072
				c1.156,0.03,2.104-0.612,2.104-2.859C168.961,179.661,168.141,179.064,166.816,179.066z M166.941,189.268
				c-1.346-0.062-2.018-0.092-3.362-0.146c0,2.737,0,4.108,0,6.848c1.362,0.099,2.044,0.148,3.405,0.257
				c1.451,0.112,2.334-0.604,2.334-3.291C169.316,190.171,168.455,189.337,166.941,189.268z"/>
			<path fill="#D30909" d="M183.779,191.964c0,7.662-1.7,11.297-5.063,10.875c-3.36-0.422-5.043-4.313-5.043-11.646
				c-0.001-7.411,1.683-11.055,5.043-10.965C182.079,180.32,183.779,184.218,183.779,191.964z M176.508,191.391
				c0.012,4.193,0.758,6.398,2.186,6.547c1.432,0.148,2.156-2.027,2.166-6.383c0.012-4.271-0.713-6.438-2.144-6.507
				C177.244,184.977,176.496,187.118,176.508,191.391z"/>
			<path fill="#D30909" d="M190.292,185.822c-1.658-0.118-2.373,2.662-2.373,6.133c0,4.646,0,6.964,0,11.607
				c-1.116-0.158-1.677-0.233-2.792-0.386c0-9.599,0-19.196,0-28.793c0.563,0.009,0.844,0.015,1.405,0.021
				c0.926,0.016,1.387,1.013,1.387,2.896c0,2.708,0,4.063,0,6.769c1.431-3.256,3.2-4.161,5.251-2.506
				c1.553,1.254,2.289,4.475,2.205,9.547c0,5.426,0,8.138,0,13.563c-1.107-0.173-1.664-0.26-2.771-0.428c0-4.732,0-7.104,0-11.839
				C192.602,188.521,191.891,185.938,190.292,185.822z"/>
			<path fill="#D30909" d="M206.814,194.479c0,8.416-1.701,12.354-5.058,11.777c-3.358-0.574-5.039-4.922-5.039-13.007
				c0-8.174,1.681-12.117,5.039-11.875C205.113,181.619,206.814,185.973,206.814,194.479z M199.555,193.573
				c0.01,4.62,0.756,7.075,2.184,7.288c1.429,0.214,2.152-2.152,2.162-6.939c0.011-4.697-0.715-7.111-2.143-7.245
				C200.289,186.54,199.541,188.868,199.555,193.573z"/>
			<path fill="#D30909" d="M210.948,178.458c0,9.631,0,19.262,0,28.894c-1.116-0.209-1.677-0.312-2.79-0.516
				c0-10.535,0-21.068,0-31.604c0.578,0.033,0.869,0.052,1.447,0.09C210.341,175.364,210.948,176.813,210.948,178.458z"/>
			<path fill="#D30909" d="M212.521,178.771c-0.084-2.229,0.418-3.283,1.444-3.162c0.554,0.039,0.832,0.061,1.386,0.101
				c-0.201,9.463-0.304,14.188-0.504,23.615c-0.746-0.122-1.117-0.185-1.865-0.302C212.799,190.91,212.707,186.857,212.521,178.771z
				 M215.311,201.93c0,2.502,0,3.754,0,6.256c-1.117-0.219-1.674-0.324-2.787-0.537c0-1.549,0-2.323,0-3.875
				c0-1.559,0.354-2.258,1.067-2.138C214.277,201.753,214.62,201.811,215.311,201.93z"/>
		</g>
	</g>
</g>
</svg>
