<svg xmlns="http://www.w3.org/2000/svg" width="250" height="250" viewBox="0 0 250 250"><path opacity=".15" fill-rule="evenodd" clip-rule="evenodd" d="M219.484 156.656c-1.38-1.66-3.625-3.124-6.647-5.01-.622-.388-1.47-.917-2.032-1.296.02-1.462-.08-3.333-.528-5.16 1.878-1.14 3.648-2.753 5.23-4.792 3.412-4.405 6.02-11.74 4.157-18.2-.48-1.67-1.238-3.174-2.236-4.48.52-.74.948-1.53 1.282-2.365 1.118-2.796 1.093-5.783-.073-8.905 2.03-5.357 1.924-10.1-.327-14.122-1.445-2.583-3.55-4.403-5.707-5.68l1.005-2.962-4.07-7.735-2.484-.93.428-2.37-.495-.66c.122-4.54-2.61-8.3-3.62-9.69-1.122-1.54-4.08-5.61-9.366-5.71-.11-.28-.24-.55-.38-.81-1.91-3.68-5.42-6.26-9.95-7.36l-4.12-3.41-3.48-.08c-.83-2.82-2.42-5.02-3.17-6.04-1.14-1.58-4.17-5.74-9.57-5.81-.13-.31-.27-.6-.42-.9-2.44-4.69-7.43-7.62-13.7-8.03-.55-.04-1.12-.06-1.71-.06-6.27 0-11.23 2.17-13.98 6.13-.38.55-.71 1.12-.99 1.72-.36-.14-.73-.26-1.11-.38-2.91-2.44-6.85-3.93-11.26-4.22-.61-.04-1.24-.07-1.88-.07-6.26 0-11.31 1.96-14.4 5.57-1.9.54-3.41 1.43-4.58 2.44-2.47-2.78-6.21-4.48-10.64-4.77-.49-.04-1-.05-1.52-.05-5.65 0-10.13 1.98-12.63 5.58-.62.9-1.1 1.87-1.43 2.89-4.26.55-8.12 3.17-10.44 7.13-2.04 3.49-2.75 7.64-2.03 11.32-3.79 1.1-5.81 3.37-6.09 3.7l-.22.28c-3.44 4.71-3.63 10.4-2.93 14.96-.35.59-.65 1.21-.89 1.85l-7.73 2.01-1.11 2.75c-1.4 1.2-2.61 2.65-3.55 4.26-2.38 4.07-3.14 8.96-2.12 13.19l-2.48 8.1 2.37 4.24c.01 3.1.76 6.18 2.13 8.58 1.52 2.66 3.67 4.77 6.23 6.15-.02 1.25.12 2.7.45 4.37.11.56.26 1.09.43 1.59-1.22 1.01-2.06 2.45-2.36 4.14-.36 2.1.14 4.48 1.11 6.76-.59.36-1.13.82-1.59 1.37-1.64 1.96-2.22 4.88-1.62 8.21.26 1.42.59 2.83.9 4.03-.07.03-.13.05-.19.06-1.87.33-4.99.88-6.44 3.81-.61 1.24-1.07 3.26.26 5.81 1.18 2.27 5.52 8.22 10.67 11.06 1.46.8 2.75 1.49 3.81 2.04.13 3.67 2.01 7.77 7.33 10.16 1.75.78 3.84 1.38 6.08 1.76.08.81.34 1.73.88 2.71 1.17 2.13 5.4 7.66 10.34 10.24 1.31.68 2.46 1.27 3.44 1.74.26 3.48 2.18 7.29 7.26 9.42 2.81 1.18 6.59 1.86 10.37 1.86 1.54 0 3-.11 4.35-.33.38.03.75.05 1.12.05.16.3.25.5.31.74l8.68-.26c1.88 1.04 3.83 1.56 5.82 1.56 2.01 0 3.72-.54 5.09-1.24 1.08.74 2.41 1.65 3.98 2.68 5.12 3.35 12.77 4.48 15.47 4.48h.07c2.92-.02 4.51-1.38 5.33-2.51 1.94-2.69.94-5.81.33-7.67-.04-.13-.06-.33-.07-.56 1.34-.31 2.91-.72 4.47-1.22 3.39-1.08 5.78-3.03 6.76-5.5.38-.28.74-.59 1.08-.92.56.34 1.15.65 1.77.94 3.16 1.41 7.41 2.22 11.67 2.22 3.87 0 9.06-.68 11.81-3.94 1.15-1.35 1.74-2.99 1.74-4.7 1.22-.07 2.41-.28 3.53-.61 3.93-1.18 8.97-3.4 10.64-7.3.82-1.91.77-3.97-.16-5.81-.63-1.24-1.62-2.49-2.93-3.89 4.41-.79 9.38-2.56 11.68-6 1.17-1.75 1.55-3.79 1.1-5.75 1.09-.31 2.21-.76 3.31-1.39 3.56-2.02 7.97-5.32 8.73-9.5.37-2.04-.15-4.04-1.47-5.62z"/><path fill-rule="evenodd" clip-rule="evenodd" fill="#F4F4F4" d="M215.484 153.656c-1.38-1.66-3.625-3.124-6.647-5.01-.622-.388-1.47-.917-2.032-1.296.02-1.462-.08-3.333-.528-5.16 1.878-1.14 3.648-2.753 5.23-4.792 3.412-4.405 6.02-11.74 4.157-18.2-.48-1.67-1.238-3.174-2.236-4.48.52-.74.948-1.53 1.282-2.365 1.118-2.796 1.093-5.783-.073-8.905 2.03-5.357 1.924-10.1-.327-14.122-1.445-2.583-3.55-4.403-5.707-5.68l1.005-2.962-4.07-7.735-2.484-.93.428-2.37-.495-.66c.122-4.54-2.61-8.3-3.62-9.69-1.122-1.54-4.08-5.61-9.366-5.71-.11-.28-.24-.55-.38-.81-1.91-3.68-5.42-6.26-9.95-7.36l-4.12-3.41-3.48-.08c-.83-2.82-2.42-5.02-3.17-6.04-1.14-1.58-4.17-5.74-9.57-5.81-.13-.31-.27-.6-.42-.9-2.44-4.69-7.43-7.62-13.7-8.03-.55-.04-1.12-.06-1.71-.06-6.27 0-11.23 2.17-13.98 6.13-.38.55-.71 1.12-.99 1.72-.36-.14-.73-.26-1.11-.38-2.91-2.44-6.85-3.93-11.26-4.22-.61-.04-1.24-.07-1.88-.07-6.26 0-11.31 1.96-14.4 5.57-1.9.54-3.41 1.43-4.58 2.44-2.47-2.78-6.21-4.48-10.64-4.77-.49-.04-1-.05-1.52-.05-5.65 0-10.13 1.98-12.63 5.58-.62.9-1.1 1.87-1.43 2.89-4.26.55-8.12 3.17-10.44 7.13-2.04 3.49-2.75 7.64-2.03 11.32-3.79 1.1-5.81 3.37-6.09 3.7l-.22.28c-3.44 4.71-3.63 10.4-2.93 14.96-.35.59-.65 1.21-.89 1.85l-7.73 2.01-1.11 2.75c-1.4 1.2-2.61 2.65-3.55 4.26-2.38 4.07-3.14 8.96-2.12 13.19l-2.48 8.1 2.37 4.24c.01 3.1.76 6.18 2.13 8.58 1.52 2.66 3.67 4.77 6.23 6.15-.02 1.25.12 2.7.45 4.37.11.56.26 1.09.43 1.59-1.22 1.01-2.06 2.45-2.36 4.14-.36 2.1.14 4.48 1.11 6.76-.59.36-1.13.82-1.59 1.37-1.64 1.96-2.22 4.88-1.62 8.21.26 1.42.59 2.83.9 4.03-.07.03-.13.05-.19.06-1.87.33-4.99.88-6.44 3.81-.61 1.24-1.07 3.26.26 5.81 1.18 2.27 5.52 8.22 10.67 11.06 1.46.8 2.75 1.49 3.81 2.04.13 3.67 2.01 7.77 7.33 10.16 1.75.78 3.84 1.38 6.08 1.76.08.81.34 1.73.88 2.71 1.17 2.13 5.4 7.66 10.34 10.24 1.31.68 2.46 1.27 3.44 1.74.26 3.48 2.18 7.29 7.26 9.42 2.81 1.18 6.59 1.86 10.37 1.86 1.54 0 3-.11 4.35-.33.38.03.75.05 1.12.05.16.3.25.5.31.74l8.68-.26c1.88 1.04 3.83 1.56 5.82 1.56 2.01 0 3.72-.54 5.09-1.24 1.08.74 2.41 1.65 3.98 2.68 5.12 3.35 12.77 4.48 15.47 4.48h.07c2.92-.02 4.51-1.38 5.33-2.51 1.94-2.69.94-5.81.33-7.67-.04-.13-.06-.33-.07-.56 1.34-.31 2.91-.72 4.47-1.22 3.39-1.08 5.78-3.03 6.76-5.5.38-.28.74-.59 1.08-.92.56.34 1.15.65 1.77.94 3.16 1.41 7.41 2.22 11.67 2.22 3.87 0 9.06-.68 11.81-3.94 1.15-1.35 1.74-2.99 1.74-4.7 1.22-.07 2.41-.28 3.53-.61 3.93-1.18 8.97-3.4 10.64-7.3.82-1.91.77-3.97-.16-5.81-.63-1.24-1.62-2.49-2.93-3.89 4.41-.79 9.38-2.56 11.68-6 1.17-1.75 1.55-3.79 1.1-5.75 1.09-.31 2.21-.76 3.31-1.39 3.56-2.02 7.97-5.32 8.73-9.5.37-2.04-.15-4.04-1.47-5.62z"/><path fill="#F6325A" d="M38.05 107.998l-3.84-1.004 3.84-12.543 2.616-8.75 2.664-6.6 4.615 3.71 8.04.9-2.32-5.69s-4.145-10.13.62-16.67c0 0 3.566-4.25 11.192-1.74s17.427-17.86 17.427-17.86l7.848-3.27h6.1s1.417-5.01 9.043-4.03c7.626.98 8.95-1.41 8.95-1.41s10.44-2.5 16.652 3.6c6.21 6.1 16.668 14.49 16.668 14.49l14.926 1.75 9.27-6.97 6.97 5.78 11.77 9.81 8.39 11.21-6.42 4.13 1.08 1.23 6.98-2.73 4.07 7.74-5.81 2.69s19.5 2.14 8.17 20.86C196.21 125.29 38.05 108 38.05 108z"/><path fill="#F6325A" d="M81.237 97.184c1.82-.903 3.477-2.18 4.24-4.092 1.255-3.138-.506-6.314-2.322-8.812-1.565-2.152-3.332-3.983-6.21-3.727-1.22.108-2.287.56-3.242 1.205.153-1.64-.197-3.356-.96-4.82-1.85-3.558-5.79-5.11-9.61-5.362-3.872-.257-8.883.502-11.27 3.938-1.365 1.966-1.513 4.255-.812 6.33-1.43-.488-2.98-.677-4.25-.593-3.59.24-6.66 2.46-8.45 5.52-1.81 3.1-2.53 7.34-1.19 10.73.75 1.9 2.2 3.27 3.92 3.92-4.89 1.83-5.23 10.2-2.8 14.48 3.25 5.71 10.41 7.12 15.33 3.52.89 4.54 5.01 7.92 9.95 7.41 4.77-.48 7.83-3.98 8.66-8.16.81.52 1.75.86 2.78.97 3.36.37 6.23-1.95 8.17-4.45 4.18-5.39 5.68-15.21-1.91-17.98zm18.66-42.58c1.57-.78 3-1.88 3.657-3.53 1.083-2.707-.438-5.446-2.003-7.6-1.35-1.857-2.87-3.437-5.35-3.215-1.05.09-1.97.48-2.79 1.04.13-1.42-.17-2.9-.82-4.16-1.59-3.07-4.99-4.41-8.29-4.63-3.34-.22-7.66.43-9.72 3.39-1.17 1.69-1.3 3.67-.7 5.46-1.23-.42-2.57-.59-3.67-.51-3.09.2-5.75 2.11-7.29 4.75-1.56 2.67-2.18 6.32-1.02 9.25.65 1.63 1.9 2.81 3.38 3.38-4.21 1.58-4.51 8.79-2.41 12.48 2.8 4.92 8.98 6.13 13.22 3.03.77 3.91 4.32 6.82 8.58 6.39 4.11-.42 6.75-3.44 7.47-7.04.7.44 1.51.73 2.4.83 2.9.31 5.38-1.69 7.05-3.85 3.6-4.65 4.89-13.12-1.65-15.51z"/><path fill="#F6325A" d="M136.154 58.134c2.047-1.016 3.908-2.45 4.768-4.6 1.41-3.527-.57-7.097-2.61-9.907-1.76-2.42-3.746-4.478-6.98-4.19-1.372.123-2.573.63-3.647 1.356.173-1.84-.222-3.773-1.078-5.418-2.08-4-6.51-5.743-10.805-6.03-4.35-.287-9.985.565-12.668 4.43-1.535 2.21-1.7 4.782-.912 7.114-1.608-.55-3.35-.76-4.786-.67-4.034.26-7.49 2.76-9.5 6.19C85.9 49.9 85.09 54.66 86.6 58.48c.842 2.13 2.468 3.67 4.408 4.406-5.496 2.06-5.888 11.46-3.148 16.272 3.653 6.413 11.703 7.997 17.224 3.952.996 5.104 5.63 8.896 11.186 8.333 5.355-.542 8.797-4.476 9.732-9.177.91.57 1.97.96 3.122 1.08 3.78.413 7.005-2.2 9.18-5.01 4.694-6.056 6.38-17.1-2.15-20.21zm-43.378-9.73c-.24-.085-.478-.18-.72-.264.077-.085.145-.174.23-.257.222-.216.46-.42.71-.617-.264.305-.374.706-.22 1.14z"/><path fill="#F6325A" d="M162.93 51.714c1.818-.9 3.473-2.177 4.236-4.085 1.252-3.14-.508-6.31-2.32-8.8-1.563-2.15-3.326-3.98-6.2-3.72-1.216.11-2.282.56-3.235 1.2.16-1.64-.19-3.35-.95-4.81-1.85-3.56-5.78-5.1-9.6-5.36-3.86-.26-8.86.5-11.25 3.93-1.36 1.96-1.51 4.25-.81 6.32-1.43-.49-2.97-.68-4.25-.6-3.58.23-6.65 2.45-8.43 5.5-1.8 3.09-2.52 7.32-1.18 10.71.75 1.89 2.19 3.26 3.92 3.91-4.88 1.83-5.23 10.17-2.79 14.45 3.24 5.69 10.39 7.1 15.3 3.51.89 4.53 5 7.9 9.94 7.4 4.76-.48 7.82-3.98 8.65-8.15.81.51 1.75.85 2.78.96 3.36.36 6.22-1.95 8.15-4.45 4.17-5.38 5.67-15.19-1.91-17.95zm-38.522-8.64c-.214-.078-.424-.16-.64-.235.07-.08.128-.16.204-.23.197-.2.408-.38.63-.55-.233.27-.33.62-.194 1.01z"/><path fill="#F6325A" d="M193.45 74.816c1.776-.88 3.39-2.124 4.132-3.987 1.223-3.06-.492-6.15-2.262-8.59-1.525-2.1-3.246-3.88-6.05-3.63-1.187.1-2.228.54-3.157 1.17.148-1.6-.193-3.27-.934-4.7-1.81-3.47-5.65-4.98-9.37-5.23-3.77-.25-8.66.49-10.98 3.83-1.33 1.91-1.47 4.14-.79 6.16-1.4-.48-2.9-.66-4.15-.58-3.5.23-6.49 2.39-8.23 5.37-1.77 3.01-2.47 7.14-1.16 10.45.73 1.84 2.14 3.18 3.82 3.82-4.76 1.78-5.1 9.92-2.73 14.1 3.16 5.55 10.14 6.93 14.92 3.42.86 4.42 4.88 7.71 9.69 7.22 4.64-.47 7.62-3.88 8.44-7.95.78.5 1.7.83 2.7.94 3.27.35 6.07-1.91 7.95-4.35 4.07-5.25 5.53-14.82-1.87-17.52zm-37.59-8.43c-.208-.075-.413-.157-.624-.23.068-.073.125-.15.2-.223.192-.187.4-.365.614-.534-.226.26-.323.61-.19.98z"/><path fill="#F6325A" d="M205.484 114.916c1.967-.976 3.756-2.354 4.582-4.42 1.355-3.388-.55-6.82-2.51-9.517-1.69-2.33-3.6-4.31-6.707-4.03-1.32.12-2.48.6-3.51 1.3.16-1.77-.22-3.63-1.04-5.21-2-3.85-6.26-5.52-10.39-5.79-4.18-.28-9.6.54-12.18 4.25-1.48 2.12-1.64 4.59-.88 6.83-1.55-.53-3.22-.73-4.6-.64-3.88.25-7.2 2.65-9.13 5.95-1.96 3.34-2.74 7.92-1.29 11.59.81 2.04 2.37 3.52 4.23 4.23-5.28 1.98-5.66 11.01-3.03 15.63 3.51 6.16 11.24 7.68 16.55 3.8.96 4.9 5.41 8.54 10.75 8 5.14-.52 8.45-4.3 9.35-8.82.87.55 1.89.92 3 1.04 3.63.39 6.73-2.12 8.82-4.82 4.51-5.82 6.13-16.44-2.07-19.42zm-41.677-9.347c-.23-.09-.46-.18-.69-.26.073-.08.138-.17.218-.25.215-.21.443-.41.684-.59-.26.29-.37.67-.22 1.09z"/><path d="M45.826 91.168c.12.036.14.15.065.34-.28.712-.77 1.775-1.44 3.236-.67 1.46-1.1 2.6-1.34 3.372-.3.975-.42 1.563-.39 1.74.08.413.57.706 1.46.868 1.07.196 1.76.066 2.03-.376.12-.182.23-.48.35-.878.2-.673.47-1.683.83-3.01s.68-2.297.92-2.936c.12-.306 1.13-.175 3.05.392 1.67.492 2.62.833 2.85 1 .17.117.17.43.17.43s-.1.143-.41.775c-.44.89-1 2.29-1.59 4.24-.19.63-.29 1-.3 1.08-.05.47.14.76.53.83 1.6.3 3.46.57 5.57.86l2.55.35.3.85s-.08.22-.3 1.08c-.39 1.51-.68 2.51-.92 2.95-.13.24-.33.34-.61.31-1.27-.13-3.18-.35-5.72-.69-2.54-.33-4.45-.57-5.72-.71-1.51-.16-3.43-.3-5.75-.41-3.58-.16-5.52-.24-5.78-.26H36c-.29-.01-.4-.2-.326-.56.18-.85.48-2.14.936-3.81.455-1.67.82-2.9 1.06-3.72.255-.87.58-2.19 1.02-3.92.44-1.73.84-3 1.16-3.82.193-.52.57-.76 1-.66.44.1 1.19.36 2.12.58.24.06.734.13 1.46.23.63.09 1.11.18 1.44.28zm23.152-5.062c-.34.538-.806 1.238-1.358 2.115-.72 1.15-1.138 1.9-1.304 2.19-.66 1.2-.98 1.82-1.587 3.07-.14.32-.35.84-.68 1.36-.12.19-.36.24-.64.15-1.17-.39-2.92-.99-5.23-1.81s-4.06-1.42-5.23-1.81c-1.24-.42-3.12-1.02-5.63-1.79s-4.39-1.36-5.64-1.78c-.24-.08-.29-.26-.16-.56.13-.3.34-.73.63-1.3.29-.57.51-.99.64-1.27.15-.32.35-.8.62-1.43.27-.63.48-1.1.64-1.41.07-.14.2-.16.4-.07l.19.1c2.84 1.41 5.72 2.74 8.6 4.06 1.64.7 2.46 1.04 4.1 1.73 1.33.56 2.31.98 2.92 1.21.12.05.25.09.38.13.12.05.25.02.31-.07l.14-.28c.34-.66.82-1.67 1.46-2.98s1.19-2.26 1.58-2.88c.12-.18.29-.21.51-.08 1.67.93 3.05 1.81 4.16 2.63.23.17.34.33.33.45-.01.04-.08.18-.22.4zm2.615-21.23c2.042 1.974 3.988 4.624 4.533 7.477.42 2.203.553 4.347-1.16 6.29-1.62 1.842-4.16 2.44-6.51 2.416-3.212-.04-6.298-.95-8.887-2.44-2.57-1.48-4.92-3.61-5.91-6.76-.87-2.79-.15-5.79 1.77-7.97 1.98-2.24 4.93-3.37 7.91-3.09 3.32.3 6.06 1.96 8.24 4.06zm-3.497 3.272c-1.256-1.07-2.6-1.702-4.056-1.847-1.523-.15-2.77.3-3.673 1.33-.86.98-1.063 2.22-.586 3.63.47 1.37 1.38 2.48 2.7 3.36 1.42.94 2.83 1.43 4.21 1.5 1.45.08 2.55-.31 3.33-1.21.73-.83.88-1.9.46-3.26-.39-1.29-1.17-2.47-2.37-3.49zm23.09-3.438c.04.064.008.143-.094.236-.195.18-.754.523-1.664 1.063-.778.46-1.32.76-1.63.88-.148.05-.24.08-.27.07-.05-.01-.166-.07-.316-.19-.34-.27-.848-.71-1.526-1.25-.883-.71-2.24-1.77-4.08-3.03-.37-.26-1.238.01-1.238.01s-.122.11-.967.73c-.09.07.04.31.4.74.48.56 1.24 1.37 2.26 2.44 1.03 1.06 1.77 1.88 2.25 2.44.12.14.17.26.14.3-.04.06-.14.13-.21.2-.3.27-.8.67-1.49 1.21-.78.62-1.27.98-1.47 1.06-.2.08-.4.03-.59-.17-.84-.86-2.08-2.18-3.71-3.97s-2.86-3.12-3.7-3.99c-2.51-2.58-5.05-5.17-7.74-7.58l-.17-.16c-.14-.13-.11-.31.09-.56.2-.25 1.27-1.26 3.33-2.89 1.4-1.1 2.55-1.92 3.43-2.51 1.82-1.23 3.68-1.71 5.46-1.47 2.1.28 3.83 1.67 4.92 3.41.82 1.31 1.37 2.46 1.58 3.42.21.95.17 2.04-.11 3.21-.05.23.04.54.04.54s1.21.83 3.51 2.64 3.46 2.88 3.61 3.12zm-12.46-9.44c-.787-1.06-1.633-1.608-2.54-1.614-.7-.006-1.552.33-2.527 1.02-.71.497-.97.896-.81 1.162.19.313.86 1.14 2.01 2.48.16.19.4.468.73.835s.56.64.72.823c.03.042.18.004.43-.112.47-.222.94-.497 1.4-.814 1.5-1.04 1.71-2.272.58-3.78zm21.498.29c.166.426.408 1.23.74 2.405.362 1.278.556 2.055.556 2.32 0 .21-.072.344-.208.39-.058.02-.162.04-.31.057-.51.065-1.918.486-4.15 1.44-.485.208-1.21.517-2.162.954-.952.438-1.654.79-2.12 1.03-.202.104-.384.024-.547-.24-.628-1.028-1.535-2.59-2.706-4.695-1.17-2.1-2.06-3.67-2.686-4.7-1.18-1.95-2.44-3.87-3.69-5.78-.47-.72-1.18-1.79-2.14-3.22l-.13-.18c-.14-.2-.1-.36.13-.48.63-.32 1.58-.79 2.87-1.35s2.27-.97 2.91-1.24c.64-.27 1.59-.7 2.87-1.24s2.25-.92 2.91-1.14c.47-.16.81-.06 1.04.3.14.21.48.88 1.03 2s.87 1.81.97 2.05c.08.21.04.34-.13.4-.05.02-.14.05-.27.08-2.04.51-4.11 1.13-6.07 1.97-.43.19-.64.43-.61.7.02.13.19.51.51 1.13.34.65.64 1.04.9 1.18.23.12.53.1.9-.06.08-.03.23-.1.45-.21s.41-.19.56-.25c.99-.4 2.02-.82 2.99-1.27.08-.04.3-.14.63-.31.25-.13.46-.23.62-.29.19-.06.43.24.43.24s.14.58.7 2.34c.25.81.55 1.61.87 2.4.08.2.01.33-.2.41l-1.06.22c-.45.09-1.43.42-2.91 1.03-.46.19-.69.29-1.16.49-.29.13-.43.31-.37.51.01.05.17.35.45.89.37.72.65 1.17.82 1.35.31.31 1.66.08 1.66.08s.49-.21 1.52-.61c.37-.14.9-.4 1.6-.76s1.23-.59 1.6-.72c.16-.05.31.1.45.46zm8.246-4.61c.487 2.09.262 4.003-.52 5.75-.69 1.536-1.665 2.73-2.926 3.41-.047.025-.09.042-.123.052-.14.043-.71-.57-1.74-1.816-1.03-1.245-1.63-2.008-1.75-2.317-.04-.11-.01-.2.08-.26.9-.62 1.5-1.13 1.76-1.45.58-.73.72-1.62.4-2.65-.2-.66-.69-1.33-1.47-1.99-1.34-1.12-2.14-1.72-2.27-1.85-.91-.88-1.62-1.94-2.07-3.2-.66-1.83-.49-3.58.61-5.22.91-1.35 2.3-2.51 4.05-3.15.1-.04.18-.06.24-.07.14-.03.29.06.43.29.44.69 1.35 1.92 2.65 3.72.04.05.07.1.08.14.04.17-.01.28-.17.31-.07.01-.19.02-.36.02s-.3.01-.39.03c-.63.13-1.13.43-1.51.87-.44.51-.58 1.12-.38 1.81.18.62.71 1.31 1.54 2.09 1.49 1.38 2.22 2.15 2.28 2.23.85.95 1.38 2.08 1.64 3.21zm23.274-4.966c-.334 2.81-1.416 5.54-3 7.828-1.164 1.678-2.992 2.916-5.088 3.013-.396.018-1.488.02-3.27.097-.336.015-.84.024-1.515.037-.67.01-1.18.04-1.51.06-.2.02-.31-.1-.33-.34-.12-1.15-.28-2.89-.47-5.21-.18-2.32-.33-4.05-.46-5.21-.12-1.21-.35-3.01-.68-5.41-.33-2.4-.57-4.2-.7-5.39-.02-.22.1-.37.37-.43.65-.15 1.75-.28 3.28-.36 2.91-.16 4.8-.09 5.66.01 2.23.26 3.95.98 5.11 2.06 1.09 1.02 1.86 2.42 2.31 4.17.43 1.65.53 3.34.32 5.03zm-4.677-.34c.094-1.777-.26-3.252-1.085-4.402-.846-1.18-2.043-1.802-3.534-1.785-1.368.015-2.042.262-2.025.693.025.62.054 1.555.087 2.802.033 1.248.063 2.18.088 2.803.024.61.07 1.527.137 2.752.063 1.225.107 2.15.133 2.77.018.452.62.65 1.807.64 1.283-.013 2.3-.598 3.092-1.785.752-1.122 1.202-2.616 1.3-4.488zm16.81 9.07c-.145.43-.48 1.21-.98 2.332-.545 1.22-.896 1.948-1.07 2.16-.14.168-.28.234-.42.197-.06-.017-.152-.06-.28-.126-.448-.23-1.845-.676-4.216-1.15-.51-.104-1.28-.258-2.31-.437-1.02-.18-1.8-.29-2.31-.357-.22-.03-.31-.193-.27-.497.17-1.168.47-2.92.92-5.25.45-2.33.77-4.08.94-5.245.33-2.21.59-4.44.85-6.66.1-.83.24-2.09.41-3.76l.02-.22c.02-.24.15-.35.41-.31.7.09 1.74.25 3.11.52 1.38.27 2.41.49 3.09.62.68.14 1.7.32 3.07.6 1.37.27 2.38.52 3.04.69.48.13.69.41.63.82-.03.24-.19.97-.48 2.17s-.48 1.93-.57 2.18c-.07.21-.19.3-.36.25-.05-.01-.14-.04-.26-.09-1.96-.73-4.01-1.38-6.08-1.79-.46-.09-.78-.01-.93.23-.07.11-.18.51-.33 1.18-.15.7-.17 1.18-.06 1.44.1.22.35.37.75.45.08.02.25.04.49.07.25.04.45.07.61.11 1.04.23 2.12.46 3.19.64.09.01.33.05.7.1.29.04.52.07.69.12.19.06.18.43.18.43s-.26.54-.97 2.26c-.32.79-.61 1.59-.87 2.4-.06.2-.21.27-.42.21-.39-.17-.59-.25-.98-.42-.41-.17-1.39-.45-2.96-.78l-1.23-.25c-.31-.06-.54.01-.62.2-.02.05-.09.37-.22.96-.17.79-.25 1.3-.22 1.54.04.42 1.25.98 1.25.98s.52.1 1.6.35c.39.09.98.18 1.76.27.79.1 1.37.21 1.74.32.16.04.18.25.06.61zm18.54 13.852c-.218.258-.407.33-.57.21-1.206-.856-1.82-1.267-3.067-2.048-.17-.106-.145-.312.076-.62.64-.884 1.62-2.198 2.947-3.937 1.326-1.73 2.316-3.04 2.957-3.93.184-.25.238-.44.2-.46-.06-.02-1.585 1.05-4.24 3.27-1.562 1.31-3.08 2.66-4.556 3.99-.193.18-.357.26-.465.24-.04 0-.16-.07-.37-.18-.32-.17-.45-.36-.4-.58.29-1.17.76-2.88 1.31-5.11.58-2.37.89-4.15 1.08-5.21.01-.05-.01-.2-.02-.2-.02-.01-.2.19-.31.37-.51.92-1.25 2.31-2.23 4.16-.99 1.86-1.73 3.24-2.24 4.16-.18.33-.36.45-.54.37-1.25-.58-1.88-.86-3.16-1.38-.13-.05-.19-.11-.19-.18s.04-.19.11-.34c.49-1.05 1.27-2.62 2.34-4.7 1.06-2.08 1.85-3.64 2.35-4.69.98-2.09 1.91-4.24 2.85-6.34.36-.8.89-2.01 1.57-3.62l.1-.25c.08-.19.31-.22.69-.06.48.2 1.21.48 2.19.87.97.39 1.69.7 2.16.92.09.05.12.31.07.78-.43 3.57-1.03 7.12-1.8 10.64-.15.72-.15 1.11 0 1.19.08.05.46-.2 1.16-.73 2.99-2.27 6.11-4.37 9.23-6.42.38-.25.66-.33.82-.23.23.15.58.39 1.02.72.45.33.79.58 1.03.74.2.14.52.32.96.56.44.24.76.43.95.57.23.17.27.35.1.55-.83.99-2.09 2.43-3.78 4.34-1.7 1.92-2.95 3.37-3.76 4.35-.76.91-1.86 2.3-3.32 4.16-1.46 1.86-2.58 3.24-3.33 4.14zm11.636 11.064c-.137.117-.336.124-.514.03-.21-.115-.67-.61-1.42-1.45-.68-.77-1.1-1.273-1.23-1.54-.11-.224-.02-.494.25-.808 1.05-1.185 1.57-1.883 1.55-2.046-.02-.13-.69-.897-2.07-2.182-.93-.867-1.48-1.273-1.61-1.253-.22.04-.75.36-1.56.96-.75.55-1.23.8-1.42.73-.24-.08-.88-.58-1.95-1.42-.84-.66-1.17-1.13-.96-1.33 2.39-2.3 5.96-4.28 9.03-6.17 3.58-2.2 7.4-4.22 11.09-6.21.38-.2.64-.26.75-.16.19.18.48.47.85.88.36.41.64.72.84.9.19.19.49.44.88.78.4.34.69.6.87.78.13.14.12.39-.05.72-1.8 3.59-4.23 7.07-6.58 10.34-2.09 2.9-4.33 6.35-6.8 8.48zm5.898-15.683c-.02-.028-1.49.688-2.98 1.49-1.58.856-2.47 1.4-2.69 1.605-.14.135-.02.374.3.72.17.178.47.475.88.875.39.372.67.525.84.448.06-.023.12-.07.19-.135.28-.238.9-1.025 1.84-2.384.91-1.313 1.64-2.62 1.64-2.62zm17.57 20.956c-.44.184-.87.276-1.27.272-3.53-.04-7.14-.292-10.67-.472-.55-.028-1 .054-1.34.223-.53.265-1.31.683-2.35 1.25-1.04.57-1.82.98-2.34 1.24-.18.09-.31.118-.38.086-.01-.008-.09-.085-.23-.224-.19-.2-.57-.767-1.15-1.665-.58-.906-.94-1.483-1.05-1.758-.07-.192 0-.36.24-.502.51-.302 1.3-.735 2.38-1.293s1.88-.99 2.4-1.295c.31-.182.6-.46.83-.83 1.65-2.646 3.2-5.54 4.67-8.296.22-.41.45-.7.68-.85.55-.38 1.35-.97 2.41-1.77s1.86-1.39 2.41-1.77c.3-.21.52-.24.64-.08.38.47.93 1.22 1.64 2.25.7 1.03 1.22 1.81 1.58 2.33.14.19.13.33-.01.41-.49.29-1.24.7-2.25 1.24s-1.75.96-2.24 1.25c-.29.17-.77.94-1.47 2.28-.55 1.05-1.28 2.45-1.26 2.49.06.1 1.65.09 2.93.14 1.61.06 2.56.07 2.81-.06.5-.25 1.24-.66 2.22-1.23.98-.58 1.72-.99 2.22-1.24.21-.11.36-.13.44-.06l.2.33c.32.53.81 1.33 1.47 2.41.66 1.08 1.13 1.92 1.42 2.49.1.18-.08.37-.52.56-.56.22-1.38.57-2.48 1.04-1.1.47-1.93.82-2.5 1.05zm1.75 22.814c-3.27.31-6.63-.288-9.59-1.708-2.37-1.15-4.52-3.01-5.4-5.56-.81-2.37-.14-4.89 1.28-6.87 1.86-2.58 4.39-4.21 7.19-5.43 2.92-1.27 6.43-1.51 9.54-.4 3.11 1.11 5.49 3.61 6.54 6.73 1.02 3.02.68 6.4-1.27 8.99-1.97 2.62-5.09 3.92-8.27 4.22zm-1.29-5.563c1.7-.296 3.02-.992 3.93-2.127.96-1.188 1.2-2.56.71-4.026-.47-1.39-1.52-2.39-3.11-2.95-1.53-.54-3.08-.53-4.62-.05-1.65.52-2.88 1.33-3.7 2.4-.86 1.12-1.08 2.28-.65 3.55.4 1.19 1.34 2.07 2.86 2.7 1.45.6 2.99.8 4.61.52z" fill="#FFB8C6"/><path fill-rule="evenodd" clip-rule="evenodd" fill="#FFB8C6" d="M190.658 137.63c-.506-1.346-3.338-3.784-5.875-3.917-2.535-.132-6.73-.464-10.127 3.16-3.398 3.62-3.89 4.968-3.89 4.968s-5.847 1.47-7.468 1.06-2.496 1.66-1.135 4.84 3.178 6.23 3.178 6.23-1.75 3.13-4.22 4.18c-2.48 1.05-3.1 1.64-2.02 2.91s5.86 5.52 10.45 6.83c4.59 1.31 7.48 1.94 7.48 1.94s-1.08 6.02 5.72 7.36c6.8 1.35 19.01-1.84 17.17-6.28-1.84-4.43-2.27-5.2-2.27-5.2s4.36.88 8.11-1.25c3.75-2.13 7.62-5.5 5.9-7.57-1.72-2.07-7.95-5.18-8.92-6.39-.96-1.21-1.01-1.39-1.01-1.39s.58-5.36-1.14-7.74-4.13-1.45-4.13-1.45-.36-1.19-1.14-1.45c-.77-.26-.96-.2-.96-.2s.47-1.44-1.18-.94c-1.64.5-1.3.3-2.49.35z"/><circle fill="#FFB8C6" cx="123.361" cy="126.035" r="69.696"/><circle fill="#FF738F" cx="123.359" cy="126.035" r="56.803"/><path fill="#FC9" d="M134.658 85.623s6.918-.055 5.283 18.03c0 0-2.42 1.743-.92 6.1 0 0 .74 2.588 1.96 3.786 0 0 1.34 2.66-2.23 3.29 0 0-2.61.84-1.47 2.29l.49.46s-.43 2.48-2.01 1.66l.11.52s1.07.87.33 1.96l-1.82.71s-.46 2.1 0 3.33c0 0-1.21 4.06-7.23 2.18l-6.53-2.83s-3.92 1.52-2.25 5.59c0 0 4.87 4.43 12.78 6.46 0 0-12.13 11.11-17.06 25.27l-39.3 2.26 2.33-29.71 3.92 3.48s19.69-9.49 18.09-27.8c0 0-2.54-17.96-2.69-18.47-.14-.51 18.59-8.59 18.59-8.59l7.56-4.34 12.11 4.34z"/><path opacity=".5" fill="#C96" d="M81.818 162.556s1.1-13.31 3.273-18.046c0 0 17.73-12.776 14.76-34.233l-.97 8.23s-.84 9.612-11.89 18.126c0 0-6.76 5.1-9.08 4.81l-4.43 12.492 8.35 8.62z"/><path opacity=".3" fill="#C96" d="M123.028 128.17l1.932-12.454s-13.148-17.346 9.25-16.24c0 0 4.46-5.055 3.995-10.342 0 0 2.363 1.162 1.822 13.48-.54 12.318-12.018 23.482-12.018 23.482l-4.99 2.075z"/><path fill="#333" d="M121.003 139.693l-2.605-1.708-.283-1.104 1.834-.56h2.39"/><path fill="#FF6" d="M64.443 179.478l83.395 1.712c2.832-18.847 4.195-48.448 4.195-48.448-6.318-11.983-19.826 6.102-19.826 6.102-8.172-1.854-17.758 17.866-17.758 17.866-24.95 13.944-38.61-3.914-38.61-3.914s1.11-9.958 5.16-12.32c0 0-11.77-33.337-16.56 39.002z"/><path fill="#FFF" d="M188.45 101.15c-6.608-5.516-15.833-8.95-26.052-8.95-11.012 0-20.875 3.984-27.54 10.272-9.548-4.152-11.51 1.59-11.51 1.59-.552 1.132-.657 2.33-.495 3.53 20.835 9.21 49.188 11.874 65.596-6.44z"/><path fill="#D0D2D3" d="M196.426 111.313s7.207-13.107-6.172-8.554c-13.377 4.55 6.172 8.55 6.172 8.55z"/><path fill="#919496" d="M193.902 107.698s6.412-6.472 1.8 2.19c-4.608 8.668-1.8-2.19-1.8-2.19zm-60.198-2.448l-3.755 8.212s-11.55-14.358 3.75-8.21z"/><path fill="#FFF" d="M198.764 121.77c0-16.33-16.277-29.57-36.365-29.57-18.39 0-33.58 11.095-36.02 25.5-1.97 5.625-3.55 10.843-4.77 15.688 4.07-.482 8.19-.508 11.68.987 4.57 1.743 8.71 5.447 13.51 7.41 4.79 1.74 8.5 5.446 13.29 8.06.55.393.98.926 1.4 1.488.3.006.6.013.9.013 20.08 0 36.36-13.24 36.36-29.575z"/><ellipse fill="#D0D2D3" cx="167.861" cy="122.425" rx="30.904" ry="23.444"/><path fill="#D0D2D3" d="M137.12 103.568s.35 3.038-2.474 3.46c0 0-13.838-4.52-3.74 7.628 0 0 1.128 1.836-1.2 3.46 0 0-9.323-7.98-6.356-14.053 0 0 2.26-6.637 13.77-.495z"/><ellipse fill="#FFF" cx="183.645" cy="117.157" rx="12.08" ry="11.908"/><ellipse fill="#FFF" cx="155.551" cy="117.428" rx="14.912" ry="14.813"/><path fill="#6C6F71" d="M166.7 143.074s.788-2.39 3.245-2.186c0 0-.656-.72-3.246-1.825 0 0 2.29.22 3.85 1.47 0 0 5.76.528 4.1-4.22 0 0 3.23 5.66-4.45 5.01 0 0-1.9.368-3.52 1.75z"/><path fill="#BE1E2D" d="M172.992 135.673s1.846 2.238-1.684 3.41c0 0-2.004.83-4.754-2.147 0 0 15.31-6.94 6.438-1.263z"/><path fill="#6C6F71" d="M173.53 130.907l-.403 2.534s-7.914 5.79-9.77 1.21l.69-1.77-2.374 3.05 1.424-.88s-.22 5.62 10.113-.9c0 0 4.756-1.91.563 1.03 0 0 6.963-3.15.22-1.98l.263-1.95-.727-.32z"/><path fill="#1D8FCD" d="M177.207 129.68s-2.686-5.47-3.678-2.584c0 0-2.23-3.25-2.23 1.97 0 0 2.1 1.436 2.22 3.174 0 0 2.17-.875 3.68-2.56z"/><path fill="#FFF" d="M173.53 130.907s-.138-.74-1.18-1.476c.002.01.388-1.41 1.18 1.48z"/><circle fill="#0071BC" cx="152.844" cy="117.505" r="11.546"/><path fill="#0F4481" d="M153.674 120.413c2.143-2.48 1.873-6.222-.604-8.365-2.475-2.142-6.22-1.874-8.365.604-2.14 2.476-1.87 6.22.605 8.364 2.477 2.142 6.22 1.872 8.364-.603z"/><path fill="#FFF" d="M150.22 118.594c1.142-1.317.995-3.306-.32-4.444-1.315-1.137-3.306-.997-4.446.32-1.137 1.317-.992 3.308.324 4.448 1.314 1.136 3.302.99 4.443-.324z"/><circle fill="#FFF" cx="155.018" cy="115.716" r="1.535"/><circle fill="#0071BC" cx="181.938" cy="117.303" r="9.586"/><path fill="#0F4481" d="M182.627 119.718c1.78-2.058 1.557-5.165-.498-6.944-2.06-1.78-5.17-1.557-6.95.5-1.78 2.056-1.56 5.166.5 6.944 2.05 1.78 5.16 1.553 6.94-.5z"/><path fill="#FFF" d="M179.762 118.207c.945-1.093.824-2.744-.268-3.69-1.09-.942-2.742-.827-3.69.267-.946 1.093-.823 2.745.27 3.692 1.092.943 2.742.823 3.688-.27z"/><circle fill="#FFF" cx="183.744" cy="115.818" r="1.274"/><path fill="#FFF" d="M199.566 155.007c-5.543-1.322-9.45 1.75-9.45 1.75-1.69.437-1.802-1.298-1.802-1.298.063-1.07 3.213-5.17 3.213-5.17 6.73-4.91 1.818-5.79 1.818-5.79-4.607 2.58-6.61 10.27-6.61 10.27l-.372.68-.104.14.1-1.02c-2.86-7.71-7.54-2.82-7.54-2.82.16.96 2.06 1.15 2.06 1.15 3.36.5 3.47 2.47 3.25 3.57-.09.06-.17.28-.23.75-.18 1.32-.12 2.66-.06 3.39-3.17 3.67-10.25 10.01-17.31 3.81 0 0-5.95-4.44-10.38-11.04 0 0-7.63-1.46-4.87 7.69 0 0 20.97 20.73 35.73 2.23 4.46 1.56 4.08-4.66 4.08-4.66l3.35-1.27c6.16 1.93 5.09-2.4 5.09-2.4z"/><path fill="#CCC" d="M156.9 166.696s2.107-6.102 5.23-6.828c0 0-3.385-2.833-5.578-6.9 0 0-.316-1.078 2.787-1.885 0 0-23.36-16.926-38.4-14.457l.05 3.067s-7.9 33.466 8.73 45.015c0 0 22.25 14.335 41.82-5.854 0 0-.8-4.61-3.7-8.348 0 0-6.97-2.14-9.87-4.175l-1.09.37z"/><path fill="#999" d="M157.844 166.696l-1.016.23-7.262-9.454 6.987 10.168 2.004-.713"/><path opacity=".75" fill="#75C043" d="M188.45 166.696c2.204-9.298-6.513-7.264-6.513-7.264-8.148 11.023-19.234-.52-23.947-6.174.09-1.75 1.844-.578 2.164-1.975.445.022.893.038 1.34.05-.414-.564-.85-1.097-1.398-1.49-4.793-2.612-8.498-6.317-13.29-8.06-4.794-1.962-8.935-5.666-13.51-7.41-3.486-1.494-7.606-1.47-11.683-.986-13.604 53.688 15.814 61.22 31.068 61.686 4.97.148 10.21-1.95 10.21-1.95 3.9-2.17 4.73-2.952 6.39-5.265 3.83-5.336 2.56-10.796 0-15.19 10.8.36 19.18-5.972 19.18-5.972z"/><path opacity=".5" fill="#C96" d="M109.038 107.284s2.905-2.512-.29-4.67c0 0-3.668-1.502-3.378 3 0 0-1.443-4.487 3.05-3.885l1.017.43s-.145-2.51-3.123-2.69c0 0-4.322.72-2.18 6.93 0 0 1.526 4.14 4.54 3.85 0 0 1.308-.58-.47-1.53 0 0-1.49-.58-1.49-1.71 0 0 1.235-2.22 2.324.25z"/><path opacity=".5" fill="#C96" d="M103.04 104.73s-.006.05-.008.146c-.016.842.232 5.108 6.624 7.782 0 0 .472 9.043 10.93 14.454 0 0-18.047-8.68-21.497-13.292l.79-7.227 3.15-1.864z"/><path fill="#333" d="M111.507 100.603s-.436.11-.98 2.18c0 0 4.25-.328 4.793-2.18 0 0-3.377 4.357-2.396 9.478 0 0 .436-6.75 6.21-9.47 0 0 3.704-1.52 2.614-4.57 0 0 2.21 2.8-3.377 7.03 0 0 5.67-2.67 4.69-7.02 0 0 3.27.87 3.82-4.14 0 0 2.51-5.56 6.98-4.9 0 0 1.53.98 2.18-.54 0 0 2.51.98 2.51 4.91 0 0 3.27-4.03-2.61-6.21 0 0-3.12-9.04-10.93-6.86 0 0-5.08-2.31-8.13-.34 0 0-11.11-4.56-17.43 4.48 0 0-3.38-.76-6.79 4.18 0 0-1.3 1.09-1.67 2.18 0 0-4.39-1.34-5.37 4.07 0 0-2.9 3.38-.54 9.01 0 0 .29 4.83 5.45 3.48 0 0-.69 3.12 4.4 6.1 0 0 1.85 1.35 1.05 3.71 0 0 1.38-2 .22-3.63 0 0 3.96 3.38 2.51 7.01 0 0 3.13-6.25 2.18-9.01 0 0 1.71 3.52 4.29 4.07 0 0-2.9-2.87-2.65-5.74 0 0-.03-1.23.66-2.72 0 0-1.81-7.12 4.29-6.39 0 0 1.67.22 2.4 2.36 0 0 .08-1.01-.36-2.47 0 0 .95.96 1.06 2.44l1.02-.43z"/><path fill="#75C043" d="M121.385 129.997s23.822-.594 42.416 21.865l1.75 5.61s-19.17-17.562-46.77-20.184l1.5 1.9-2.95-1.9 2.04-2.333v-4.96h2.04z"/><path opacity=".5" fill="#363" d="M119.86 134.884s17.024-1.453 36.692 12.564c0 0-17.663-14.888-36.693-12.564zm49.415 37.786s-14.957.127-21.438-11.494c0 0 3.6 11.874 21.438 11.493zm-21.437-11.494s-.67-13.11 10.152-7.917c0 0-9.01-4.73-10.152 7.91zm39.792 6.084s-1.015-8.224-6.54-6.772l-.31.346s4.915-1.87 6.47 6.672l.38-.246zm-38.064-13.226s-21.648-10.404-30.563-7.678l-.15 1.092s3.852-4.407 30.338 7.166l.38-.58z"/><path opacity=".25" fill="#363" d="M134.82 150.257s-7.6 12.553 10.525 40.552c0 0-15.723-24.42-10.525-40.56z"/><path fill="#666" d="M90.75 104.877s6.92-7.538 1.145-15.49c0 0 6.59 6.796-1.144 15.49z"/><path fill="#666" d="M86.03 92.926s.727-4.97 5.302-3.792c0 0-4.72-.42-4.575 4.374 0 0 1.307-3.85 5.01-3.342 0 0-3.85.073-4.647 3.85 0 0 1.308 1.66.87 3.626 0 0 4.142-.14 5.884-1.665 0 0-1.234 2.034-6.028 2.18 0 0-1.308 2.83-2.397 3.413 0 0 2.91-3.206 1.59-6.31l-1.09-1.316.07-1.018z"/><path fill="#666" d="M86.21 93.18s-2.977 1.49-.98 7.954c0 0-1.56-6.537 1.236-7.48l-.255-.473z"/><path fill="#666" d="M86.466 94.052s-2.287 1.38-.962 7.082c0 0-.954-4.64.962-7.082z"/><path fill="#666" d="M86.975 94.45s-1.925 1.665-.51 5.663c0 0-.98-3.918.51-5.662z"/><path fill="#666" d="M87.337 94.85s-1.252 1.177-.427 4.348c0 0-.48-3.984.427-4.347zm-1.194 6.11s.845 2.978 6.104 1.81l-.252.416s-5.01 1.128-5.852-2.225z"/><path fill="#666" d="M85.946 101.175s-.077 3.28 5.505 2.872l-.2.245s-5.51.302-5.3-3.117z"/><path fill="#666" d="M85.45 101.57s-.11 3.78 5.3 3.307l-.29.288s-4.797.69-5.23-3.595h.22zm1.704-2.093s1.69 2.504 6.24.9v.536s-3.974 1.19-6.41-1.148l.17-.288zm.366-4.217s1.58-2.842 5.873-2.733c0 0-4.094-.072-5.874 3.45v-.716zm4.375-5.874s0-2.016 1.498-2.125c0 0 2.043-3.7 6.292-3.7 0 0 5.525-8.5 17.634-4.46 0 0 3.82-1.96 7.2-.11 0 0 8.5-1.89 10.67 6.65 0 0-3.05-8.6-10.79-5.77 0 0-2.87-2.72-7.1.11 0 0-10.56-4.78-16.98 4.47 0 0-4.11-.54-6.47 3.6 0 0-1.17-.98-1.98 1.36z"/><path opacity=".5" fill="#666" d="M92.428 90.177s.593-1.77 1.446-.79c0 0 3.087-5.503 6.682-4.414 0 0 6.48-8.062 16.887-4.25 0 0 4.248-2.396 6.97-.27 0 0 6.43-3.323 11.168 5.773 0 0-3.86-7.9-11.33-5.447 0 0-2.61-2.1-7.02.5 0 0-8.88-4.05-16.56 4.34 0 0-3.34-2.83-6.79 5.28 0 0-.04-2.34-1.44-.74zm3.39 20.67s-3.125-4.156-3.824-7.66l-.29.535s1.607 4.783 4.113 7.126zm4.738-2.195s-2.56-4.75-1.198-9.175l-5.013-1.386 4.523 1.65s-1.2 4.22 1.688 8.92zm-1.253 6.608s.055-4.03-3.16-7.19c0 0-3.22-2.445-3.19-6.234l.555-1.1s.457 4.467 3.507 7.262c0 0 2.45 2.25 2.288 7.262z"/><path opacity=".5" fill="#666" d="M134.82 85.79s-5.994-8.77-15.2 1.526c0 0 8.118-9.097 15.2-1.525zm-19.5 14.813s2.994-4.34 3.047-8.08c0 0-6.595 4.09-10.378 2.328 0 0-5.42-1.97-8.15 3.85 0 0 2.77-5.18 8.14-3.44 0 0 5.48 1.94 9.83-2.08 0 0 .98 1.59-2.51 7.43z"/><path opacity=".5" fill="#666" d="M111.77 99.844s2.59-4.14 6.147-5.393c0 0-4.248 2.35-6.147 5.4zm-2.662-1.754s-5.61-4.128-9.26.61c0 0 2.887-4.16 9.26-.61zm8.442-15.023s-10.185-3.323-16.503 3.27c0 0-2.9-.044-7.25 6.187l.512 1.727s2.81-5.84 7.12-7.37c0 0 8.76-2.56 14.32 5.32l3.43-4.34s-9.52-5.19-17.16-1.63c0 0 5.77-4.84 18.87-.24 0 0-12.45-5.04-18.44-.52 0 0 5.28-4.63 15.08-2.4z"/><path opacity=".5" fill="#666" d="M99.31 98.7s3.752-8.97 16.443-6.5c0 0-10.932-4.285-16.442 6.5z"/><path opacity=".5" fill="#666" d="M94.412 94.85l10.358-2.042-1.23.772m-9.027 2.07h6.802l-.267.327m-6.54.586l5.61.72-.27.442m21.765-2.075s-3.503-5.407 1.746-11.31c0 0-4.23 4.882-1.75 11.31zm1.17-.62s2.72-11.745 12.037-8.585c0 0-8.657-4.51-12.037 8.585z"/><path opacity=".5" fill="#666" d="M126.756 91.36s-1.088-11.29 8.064-5.57c0 0-8.445-5.475-8.064 5.57z"/><g clip-rule="evenodd"><path fill="none" stroke="#9EAD90" stroke-width="2.4" stroke-linecap="round" stroke-linejoin="round" stroke-miterlimit="22.926" d="M62.262 124.304c-13.184.275-10.784-14.66-20.418-14.482m11.23 18.423c-.617-11.31 5.033-11.784-.073-22.813"/><g fill-rule="evenodd"><path fill="#F6325A" d="M38.253 110.825c.23.467.577.724.752 1.038.175.313.402.813.65.893.25.082.505-.08.66-.333.13-.21.25-.073.453-.075.284-.003.83-.358 1.232-.9.397-.537.9-1.172.446-2.065-.453-.893-1.49-1.17-2.217-.938-.43.137-.77-.096-1.05-.134-.24-.03-.36.16-.27.38.08.23-.35.01-.68.41-.33.41-.17 1.36.01 1.73z"/><path fill="#FF738F" d="M42.368 109.37c-.572-1.048-1 .144-1.154.798s-.087.995-.09 1.304c0 .31-.25.49-.395.632-.18.172.04.26.4.028.38-.238.59-.468.91-.886.43-.558.68-1.2.31-1.876z"/><path fill="#FF738F" d="M39.763 112.68c.372.044.66-.61.936-.84.27-.23.32-.38.27-.647-.05-.266-.22.128-.42.396-.2.26-.64.62-1.01.35-.38-.28-.7-.35-.48-.09.22.26.33.78.69.82zm1.793-3.99c-.026-.045-.068-.08-.11-.11-.06-.044-.16-.07-.29-.095-.563-.108-1.042.118-1.35.057-.306-.062-.777-.267-.8-.013-.02.25.53.51.742.9.21.38 1.17 1.2 1.217.9.064-.42.298-1.05.467-1.27.096-.13.186-.27.124-.38zm-1.37 3.06c.233-.247.745-.837.49-1.192s-.857-.72-1.115-1.015-.5-.46-.06.344c.44.805.52 1.257.53 1.493.01.237.02.526.16.37zm-.706-1.54c-.257-.353-.336-1.328-.82-1.25-.484.075-.512.53-.487.86.025.33.078.066.2-.102.2-.276.603.01.72.242.117.233.544.462.388.25zm.338 1.392c-.186.138-.844-.066-1.206-.418-.362-.35-.38-.802-.377-.944.002-.145.146-.142.187.138.042.28.694.827.95.957.258.127.54.196.446.267z"/><path fill="#FF738F" d="M39.78 111.262c.02-.268-.182-.735-.5-.866-.317-.132-.875-.05-.585.145.292.2 1.06 1.03 1.084.73z"/></g><g fill-rule="evenodd"><path fill="#9EAD90" d="M42.61 108.278c.456.08.715-.044 1.99-.085 1.274-.042 1.634 1.362 1.03 2.157-.117.93-.78 1.37-1.468.713-.688-.655-.865-2.234-1.552-2.785z"/><path fill="#7B9167" d="M44.467 111.08c.283-.047.753-.578.913-.91-.097-.1-.2-.203-.31-.31.044.284-.45.892-.9.934.344-.152.853-.745.89-.943-.12-.11-.247-.23-.376-.34-.01.24-.538.64-.912.58.31-.05.842-.43.906-.58l-.386-.33c-.04.19-.416.48-.693.44.22-.04.6-.32.68-.45-.13-.1-.26-.2-.38-.29-.04.1-.21.23-.34.22.1-.02.27-.15.32-.23-.21-.15-.41-.28-.57-.35.18.03.39.12.61.25.02-.1.02-.28-.02-.37.08.1.08.29.03.38.12.08.25.16.38.26.04-.18.05-.56-.03-.74.16.19.15.59.05.77.12.1.25.2.37.31.06-.24.06-.72-.04-.95.21.25.2.77.07 1 .12.11.23.22.34.33.1-.27.16-.89.06-1.2.24.33.16.99-.03 1.23.09.1.18.19.25.28v-.01.01l.02.03c.12-.11.27-.78.2-1.1.2.34.03 1.01-.2 1.1.07.09.14.17.2.25l-.03.04-.02.08c-.07-.07-.13-.15-.21-.22-.11.47-.6 1.05-.95.88z"/></g><g fill-rule="evenodd"><path fill="#FF738F" d="M50.068 103.665c.377-.358.794-.48 1.067-.71.273-.233.66-.62.92-.61.265.01.446.252.503.544.048.24.21.15.398.22.265.1.65.62.84 1.27.184.64.432 1.41-.304 2.09-.736.68-1.805.57-2.405.1-.354-.28-.753-.18-1.024-.24-.237-.05-.28-.27-.122-.45.16-.19-.32-.13-.48-.62-.16-.5.32-1.33.62-1.61z"/><path fill="#FFADBD" d="M53.416 106.466c-.9.78-.887-.485-.802-1.152.084-.666.266-.962.373-1.253.106-.29-.063-.54-.15-.73-.107-.22.127-.23.393.12.273.36.392.65.548 1.15.208.68.222 1.36-.362 1.87z"/><path fill="#FFADBD" d="M52.13 102.453c.365.09.407.802.584 1.116.178.31.17.47.03.7-.14.23-.16-.2-.253-.52-.09-.32-.37-.81-.82-.68-.45.13-.77.08-.47-.09.3-.18.59-.63.94-.54zm.287 4.367c-.04.032-.09.05-.14.063-.074.02-.175.01-.306-.013-.56-.097-.93-.476-1.24-.523-.31-.05-.82-.023-.75-.268.07-.25.68-.31 1.01-.59.34-.29 1.52-.72 1.46-.42-.08.4-.08 1.08 0 1.35.05.15.08.31-.01.39z"/><path fill="#FFADBD" d="M52.202 103.474c.133.313.407 1.045.044 1.29-.364.243-1.055.374-1.4.56-.344.188-.637.254.057-.345.694-.6.926-1 1.02-1.22.09-.22.194-.49.28-.29z"/><path fill="#FFADBD" d="M51.004 104.67c-.365.24-.78 1.126-1.207.885-.427-.24-.294-.675-.156-.976.14-.3.1-.04.16.16.09.33.57.2.76.02.19-.18.68-.25.45-.1zm.802-1.186c-.126-.196-.813-.233-1.275-.03-.46.203-.63.618-.68.753-.04.135.09.183.23-.065.14-.247.94-.532 1.23-.563.29-.03.58 0 .51-.1z"/><path fill="#FFADBD" d="M51.65 103.79c-.07.258-.425.624-.77.636-.343.014-.837-.26-.497-.34.342-.08 1.35-.586 1.268-.297z"/></g><path fill="none" stroke="#9EAD90" stroke-width="2.4" stroke-linecap="round" stroke-linejoin="round" stroke-miterlimit="22.926" d="M47.897 112.635c-.85-1.098-1.774-3.776-1.27-5.965"/><g fill-rule="evenodd"><path fill="#FF738F" d="M46.354 104.687c.36.03.616.193.864.228s.63.057.744.197c.117.145.075.35-.05.515-.104.14.016.182.065.313.07.185-.024.628-.276 1.027-.24.394-.53.878-1.22.81-.69-.07-1.13-.674-1.17-1.206-.02-.31-.25-.47-.35-.64-.08-.14.01-.27.18-.27.17 0-.08-.22.1-.54.18-.32.84-.45 1.13-.43z"/><path fill="#FFADBD" d="M46.443 107.73c-.825-.11-.158-.688.228-.953.39-.265.63-.307.83-.386.2-.08.26-.28.31-.41.07-.16.18-.04.13.26-.06.31-.15.51-.34.82-.25.42-.6.75-1.14.68z"/><path fill="#FFADBD" d="M47.94 105.202c.12.23-.23.583-.312.82-.08.237-.166.308-.352.34-.186.035.028-.173.15-.37.126-.197.25-.57-.024-.744-.275-.173-.402-.364-.175-.29.23.075.594.017.713.244zm-2.144 2.17c-.036-.006-.068-.023-.098-.044-.044-.03-.086-.086-.135-.165-.212-.34-.186-.707-.303-.892-.118-.18-.37-.43-.21-.51.16-.08.47.21.774.26.304.04 1.075.46.895.57-.26.15-.61.46-.71.63-.07.1-.13.19-.22.18z"/><path fill="#FFADBD" d="M47.44 105.71c-.1.214-.356.696-.65.62-.296-.076-.684-.376-.94-.47-.258-.092-.43-.214.205-.13.634.084.948.02 1.105-.03s.345-.126.28.01zm-1.178-.07c-.293-.08-.948.116-1.02-.22-.072-.332.216-.464.437-.53s.06.032-.02.153c-.13.2.16.39.34.408.18.02.43.24.26.19zm.988-.13c.044-.156-.254-.533-.574-.68-.32-.145-.616-.045-.71-.006-.09.037-.054.13.14.086.19-.043.71.243.86.378.148.134.263.3.285.22zm-.23.06c-.167.08-.522.066-.687-.107-.166-.173-.253-.557-.054-.417.2.14.93.433.74.523z"/></g><path fill="none" stroke="#9EAD90" stroke-width="2.4" stroke-linecap="round" stroke-linejoin="round" stroke-miterlimit="22.926" d="M55.023 115.13c.118-1.384-.562-4.136-2.173-5.7"/><g fill-rule="evenodd"><path fill="#F6325A" d="M50.527 108.545c-.146.324-.13.622-.218.85-.09.23-.26.568-.19.734.06.16.26.23.46.2.17-.03.15.1.23.2.12.15.55.28 1.01.25.45-.03 1.01-.04 1.28-.67s-.04-1.3-.48-1.58c-.26-.17-.29-.45-.39-.61-.09-.15-.24-.12-.32.02-.08.14-.15-.18-.51-.18s-.79.5-.91.76z"/><path fill="#FF738F" d="M53.096 110.077c.302-.76-.515-.465-.926-.26-.413.206-.563.39-.727.524-.164.14-.367.09-.506.07-.17-.02-.12.14.164.23.3.1.51.11.87.1.49-.01.93-.16 1.13-.65z"/><path fill="#FF738F" d="M50.21 110.154c.14.215.61.08.853.125.243.04.343 0 .46-.14.12-.15-.162-.06-.39-.05-.228.01-.61-.06-.626-.38-.018-.32-.12-.52-.165-.29-.045.23-.27.52-.133.73zm2.89-.802c.01-.034.01-.07.01-.105-.005-.052-.034-.115-.08-.195-.19-.345-.518-.498-.62-.687-.102-.19-.2-.526-.343-.427-.143.1-.042.505-.152.786s-.12 1.142.057 1.037c.245-.14.68-.3.875-.31.11 0 .223-.02.252-.09z"/><path fill="#FF738F" d="M50.886 109.97c.232.014.768.025.843-.265.07-.29 0-.767.04-1.03.04-.267.02-.47-.21.114-.23.58-.44.82-.56.93-.12.1-.28.23-.13.24z"/><path fill="#FF738F" d="M51.39 108.923c.07-.29.55-.76.3-.98-.253-.222-.505-.037-.668.12-.163.158 0 .07.14.062.234-.016.26.32.19.485-.073.163-.006.49.037.313zm-.587.787c-.155-.037-.334-.474-.307-.818.026-.345.256-.552.332-.612.077-.062.14.015.01.16-.13.143-.133.727-.088.92.044.19.13.37.053.35z"/><path fill="#FF738F" d="M50.965 109.54c.15-.105.308-.416.238-.642-.07-.225-.357-.483-.332-.244.03.24-.07 1.005.1.886z"/></g><g fill-rule="evenodd"><path fill="#9EAD90" d="M56.473 106.994c-.364.287-.65.3-1.792.866-1.14.567-.79 1.975.12 2.388.54.765 1.34.84 1.63-.065s-.29-2.378.05-3.19z"/><path fill="#7B9167" d="M56.164 110.34c-.27.093-.937-.152-1.235-.37.03-.132.08-.272.12-.418.09.27.82.572 1.23.396-.38.028-1.11-.253-1.23-.41.05-.16.1-.32.16-.483.12.202.77.305 1.08.077-.3.1-.95.018-1.08-.085.06-.16.12-.32.18-.474.12.144.59.22.81.06-.22.066-.68 0-.81-.075.06-.153.12-.3.19-.436.08.066.29.102.4.03-.1.028-.31-.006-.4-.044.11-.234.22-.437.33-.58-.15.116-.29.295-.43.51-.07-.076-.15-.234-.16-.333-.03.12.06.29.15.354-.08.12-.15.26-.22.4-.13-.15-.31-.47-.33-.67-.06.24.14.59.31.7-.07.14-.13.29-.19.44-.17-.19-.4-.61-.43-.86-.07.31.18.76.4.91-.06.15-.11.3-.15.45-.21-.19-.56-.71-.62-1.03-.06.4.32.95.6 1.07-.04.12-.07.25-.09.37-.01 0-.01-.01-.01-.01v.01l-.01.03c-.16-.05-.61-.56-.7-.88-.02.39.46.9.7.88-.03.11-.04.21-.06.31.02.01.03.01.05.02l.04.06c.02-.09.05-.19.08-.3.32.36 1.02.63 1.25.32z"/></g><g fill-rule="evenodd"><path fill="#F6325A" d="M55.123 113.8c-.408.01-.706.177-.987.2s-.712.026-.85.176c-.14.155-.106.39.024.583.11.16-.03.2-.093.34-.09.2-.012.71.247 1.17.255.46.548 1.02 1.334.99.786-.04 1.32-.69 1.39-1.29.04-.36.316-.52.434-.71.102-.16.006-.31-.185-.32-.19-.02.11-.25-.075-.62-.184-.37-.913-.56-1.24-.55z"/><path fill="#FF738F" d="M54.834 117.218c.935-.07.22-.763-.2-1.085-.418-.322-.683-.384-.904-.486-.222-.103-.27-.338-.324-.488-.066-.19-.2-.06-.153.28.047.35.143.57.338.94.26.49.64.88 1.25.83zm-1.53-2.938c-.15.252.224.67.3.943.077.272.168.356.376.406.208.04-.02-.2-.148-.43-.127-.23-.246-.66.075-.84.32-.18.476-.39.215-.32-.26.07-.67-.02-.817.23zm2.28 2.577c.04-.004.078-.023.114-.043.05-.03.1-.092.162-.177.26-.37.253-.785.396-.986.144-.2.442-.47.268-.56-.174-.1-.542.21-.887.24-.344.03-1.238.46-1.042.58.275.18.652.56.76.75.062.11.133.22.23.21z"/><path fill="#FF738F" d="M53.835 114.884c.1.248.358.806.695.738.337-.068.792-.382 1.088-.47.295-.09.495-.216-.225-.16-.72.054-1.068-.036-1.24-.105-.174-.068-.382-.16-.318-.003zm1.332-.007c.336-.07 1.06.19 1.163-.183.1-.37-.215-.538-.46-.627-.244-.09-.073.034.008.175.133.234-.202.43-.406.438-.206.008-.508.24-.305.197zm-1.107-.207c-.038-.18.32-.584.69-.73.37-.146.698-.013.8.035.102.048.053.15-.16.09-.215-.062-.818.228-.994.372-.175.143-.315.322-.335.232z"/><path fill="#FF738F" d="M54.316 114.75c.185.104.585.11.782-.075.197-.186.32-.61.086-.467-.234.146-1.074.43-.868.543z"/></g><g fill-rule="evenodd"><path fill="#60754D" d="M49.32 109.18c-.373.283-.66.29-1.82.838s-.838 1.97.067 2.404c.53.778 1.326.87 1.64-.034.317-.904-.25-2.4.112-3.207z"/><path fill="#394A2B" d="M48.942 112.54c-.274.09-.938-.17-1.234-.393.04-.133.085-.273.136-.42.088.275.812.592 1.233.424-.378.03-1.105-.27-1.23-.43.056-.16.115-.32.177-.48.116.21.772.32 1.082.1-.302.1-.953 0-1.08-.1.063-.16.127-.32.194-.47.12.15.59.24.822.08-.223.07-.684-.01-.816-.09.066-.15.134-.3.2-.43.08.07.29.11.404.04-.106.03-.31-.01-.396-.05.117-.23.233-.43.34-.57-.148.12-.296.29-.435.51-.07-.08-.15-.24-.16-.34-.03.12.06.29.14.36-.08.13-.16.26-.23.41-.13-.14-.3-.48-.32-.68-.06.25.13.6.3.72-.07.14-.14.29-.2.45-.16-.19-.39-.61-.41-.87-.08.32.17.78.39.92-.06.15-.11.31-.16.46-.21-.19-.55-.72-.61-1.04-.07.41.3.97.59 1.09-.04.13-.08.26-.1.38h-.01v.01l-.01.04c-.16-.04-.61-.57-.69-.89-.03.4.44.92.68.9-.03.11-.05.22-.06.32l.04.02.04.06c.02-.09.05-.19.08-.29.31.37 1.01.66 1.25.35z"/></g><g fill-rule="evenodd"><path fill="#9EAD90" d="M80.186 150.905c.11.45.33.636.884 1.785.554 1.147-.584 2.046-1.555 1.815-.897.27-1.568-.156-1.248-1.052.322-.895 1.693-1.696 1.92-2.548z"/><path fill="#7B9167" d="M78.377 153.737c.157.24.832.455 1.2.468.053-.128.105-.266.158-.41-.24.156-.997-.05-1.218-.443.28.253 1.027.478 1.223.43.057-.155.113-.318.166-.483-.22.08-.8-.24-.898-.6.175.26.737.59.9.59.053-.17.103-.33.148-.49-.186.04-.602-.19-.683-.46.133.18.536.42.687.44.044-.16.083-.32.116-.47-.104 0-.292-.1-.335-.23.07.08.25.18.34.2.06-.26.09-.48.1-.66.05.18.05.41.02.66.1-.02.27-.1.34-.17-.05.11-.22.19-.33.19-.01.14-.04.3-.08.45.19-.04.53-.18.67-.33-.1.23-.47.38-.68.36-.03.15-.07.31-.12.46.25-.05.69-.23.86-.42-.13.29-.61.49-.87.47-.05.15-.1.3-.16.45.28-.02.88-.22 1.12-.43-.2.35-.84.55-1.14.47-.05.12-.1.24-.15.35h.01-.01l-.02.03c.15.06.83-.07 1.09-.27-.22.32-.91.44-1.09.27-.05.1-.1.2-.15.28l-.05-.01-.07.02c.04-.08.08-.18.12-.28-.47.09-1.19-.13-1.18-.52z"/></g><g fill-rule="evenodd"><path fill="#60754D" d="M82.852 207.645c2.864-.02 4.308 1.003 12.03 2.57 7.723 1.568 11.362-6.616 8.5-12.078.25-5.784-3.328-9.152-8.202-5.862-4.873 3.287-7.577 12.72-12.328 15.37z"/><path fill="#394A2B" d="M97.052 192.497c1.676.577 3.99 4.29 4.625 6.478-.688.506-1.432 1.032-2.21 1.563.566-1.67-1.822-5.893-4.518-6.613 1.94 1.282 4.42 5.42 4.44 6.664-.85.57-1.74 1.16-2.64 1.72.18-1.44-2.62-4.43-4.96-4.47 1.83.64 4.68 3.5 4.91 4.49-.9.56-1.8 1.11-2.7 1.62-.04-1.17-2.04-3.32-3.77-3.39 1.33.5 3.32 2.56 3.68 3.44-.89.5-1.76.98-2.59 1.4-.14-.63-1.03-1.6-1.84-1.67.61.26 1.48 1.2 1.75 1.71-1.44.72-2.75 1.28-3.8 1.58 1.15-.01 2.52-.33 4-.88.02.62-.16 1.72-.48 2.24.58-.49.78-1.66.61-2.29.85-.32 1.73-.72 2.62-1.17.08 1.18-.28 3.46-.93 4.51 1.19-.99 1.56-3.43 1.14-4.62.87-.45 1.74-.94 2.6-1.47.09 1.52-.36 4.45-1.2 5.8 1.54-1.28 2-4.44 1.46-5.97.84-.53 1.67-1.09 2.45-1.65.32 1.71.06 5.57-.88 7.35 1.81-1.75 2.04-5.87 1.11-7.53.65-.48 1.28-.97 1.86-1.46v.06l.01-.07.18-.15c.61.81.85 5.04.07 6.92 1.6-1.85 1.22-6.15-.05-6.94.53-.45 1.02-.9 1.46-1.34l-.15-.29c.01-.16.01-.32.01-.48-.45.36-.95.74-1.48 1.14-.17-2.97-2.57-6.97-4.86-6.3z"/></g><g fill-rule="evenodd"><path fill="#9EAD90" d="M101.866 214.765c-.613-2.126-1.688-2.973-4.547-8.352-2.86-5.38 2.4-9.875 7.08-8.953 4.23-1.455 7.51.457 6.15 4.792s-7.77 8.41-8.69 12.513z"/><path fill="#7B9167" d="M109.976 200.914c-.796-1.116-4.057-2.017-5.818-2.006-.224.62-.45 1.288-.673 1.98 1.114-.786 4.767.058 5.895 1.897-1.377-1.157-4.99-2.09-5.916-1.83-.242.758-.48 1.546-.702 2.34 1.03-.455 3.854.97 4.398 2.694-.882-1.22-3.627-2.71-4.41-2.66-.22.78-.426 1.57-.61 2.35.875-.23 2.905.78 3.34 2.05-.67-.88-2.633-1.9-3.36-1.97-.18.76-.34 1.51-.47 2.22.494-.04 1.41.41 1.64 1-.33-.4-1.215-.83-1.654-.93-.22 1.22-.348 2.31-.34 3.16-.25-.86-.31-1.95-.226-3.16-.47.12-1.243.49-1.556.84.23-.54 1.054-.95 1.563-.96.053-.7.152-1.44.29-2.2-.894.2-2.508.96-3.14 1.67.467-1.1 2.2-1.91 3.17-1.86.14-.74.315-1.5.516-2.25-1.15.26-3.222 1.24-4.035 2.15.605-1.43 2.847-2.47 4.1-2.39.205-.75.435-1.48.683-2.19-1.34.13-4.14 1.18-5.26 2.26.9-1.73 3.9-2.81 5.34-2.48.22-.59.44-1.17.67-1.7l-.04.01.05-.02.08-.17c-.73-.28-3.92.48-5.14 1.46 1.02-1.6 4.29-2.26 5.16-1.49.22-.5.44-.96.67-1.38.08.01.17.02.25.04.12-.04.24-.08.35-.11-.17.41-.34.86-.52 1.34 2.24-.53 5.73.37 5.74 2.22z"/></g><g fill-rule="evenodd"><path fill="#60754D" d="M81.907 144.574c-1.795 1.46-3.223 1.544-8.885 4.458s-3.822 9.914.743 11.913c2.766 3.773 6.724 4.09 8.135-.448 1.412-4.536-1.65-11.85.007-15.923z"/><path fill="#394A2B" d="M80.608 161.302c-1.35.483-4.685-.688-6.19-1.747.177-.667.38-1.374.603-2.104.49 1.35 4.13 2.8 6.2 1.89-1.87.18-5.53-1.18-6.17-1.95.25-.79.51-1.61.8-2.42.62 1.01 3.89 1.47 5.39.31-1.48.52-4.72.16-5.37-.34.28-.8.58-1.61.88-2.38.62.72 2.97 1.06 4.09.24-1.09.35-3.39.06-4.06-.31.3-.77.61-1.5.92-2.19.41.33 1.46.49 2.01.12-.52.14-1.54-.01-1.97-.19.54-1.18 1.08-2.19 1.6-2.91-.72.59-1.42 1.49-2.08 2.58-.33-.39-.77-1.17-.83-1.66-.12.6.35 1.44.78 1.75-.37.64-.73 1.33-1.06 2.06-.64-.7-1.57-2.32-1.69-3.31-.25 1.22.76 2.95 1.62 3.49-.32.72-.62 1.47-.9 2.24-.83-.91-2.02-2.99-2.17-4.26-.32 1.58.98 3.81 2.1 4.5-.26.76-.5 1.52-.71 2.28-1.07-.91-2.86-3.48-3.17-5.08-.26 2.02 1.68 4.73 3.11 5.31-.17.63-.32 1.26-.44 1.86l-.03-.04.03.05-.03.19c-.79-.21-3.08-2.76-3.54-4.33-.07 1.98 2.34 4.5 3.54 4.35-.11.56-.19 1.09-.25 1.58.08.04.16.08.23.11l.24.31c.1-.45.22-.94.36-1.46 1.61 1.79 5.14 3.1 6.25 1.52z"/></g><g fill-rule="evenodd"><path fill="#9EAD90" d="M91.7 153.703c-2.13.595-3.416.125-9.495.52-6.08.397-7.135 7.24-3.893 10.734.987 4.366 4.338 6.153 7.308 2.712 2.97-3.45 3.074-11.03 6.08-13.97z"/><path fill="#7B9167" d="M84.178 167.882c-1.368-.09-3.847-2.393-4.764-3.896.41-.517.86-1.06 1.333-1.615-.085 1.37 2.553 4.03 4.71 4.02-1.708-.56-4.402-3.14-4.665-4.07.516-.6 1.062-1.22 1.62-1.82.155 1.12 2.85 2.77 4.604 2.33-1.496-.11-4.204-1.66-4.58-2.35.554-.6 1.12-1.19 1.68-1.76.27.87 2.196 2.06 3.5 1.77-1.096-.11-3.004-1.24-3.444-1.82.557-.56 1.11-1.08 1.644-1.57.23.44 1.092.98 1.712.87-.51-.07-1.346-.59-1.654-.92.924-.83 1.788-1.51 2.51-1.95-.857.24-1.818.76-2.807 1.47-.143-.46-.23-1.32-.096-1.77-.33.48-.24 1.4.01 1.84-.57.41-1.14.89-1.71 1.4-.3-.86-.5-2.64-.22-3.55-.69.98-.46 2.88.09 3.68-.55.51-1.11 1.06-1.64 1.62-.38-1.12-.64-3.39-.28-4.57-.89 1.26-.6 3.72.12 4.75-.52.57-1.03 1.15-1.5 1.73-.59-1.21-1.17-4.14-.84-5.66-1 1.67-.33 4.79.7 5.84-.39.49-.76.98-1.09 1.46 0-.01-.01-.03-.01-.04l.01.06-.1.15c-.62-.48-1.65-3.59-1.46-5.15-.82 1.71.34 4.84 1.45 5.17-.3.45-.58.88-.82 1.3.06.07.11.13.17.19l.09.36c.26-.36.55-.74.87-1.15.73 2.18 3.33 4.68 4.91 3.72z"/></g><g fill-rule="evenodd"><path fill="#9EAD90" d="M155.688 168.776c-1.148 3.215-.566 5.244-1.842 14.556-1.275 9.31-11.922 10.187-16.944 4.815-6.61-1.997-8.993-7.352-3.372-11.544s17.304-3.523 22.158-7.827z"/><path fill="#7B9167" d="M133.044 178.798c-.01 2.114 3.26 6.183 5.473 7.758.84-.575 1.726-1.205 2.63-1.873-2.105-.02-5.916-4.37-5.668-7.688.68 2.69 4.35 7.118 5.75 7.625.98-.73 1.99-1.5 2.99-2.294-1.7-.36-3.95-4.69-3.08-7.34 0 2.315 2.1 6.652 3.12 7.305.98-.78 1.96-1.59 2.89-2.39-1.3-.5-2.93-3.6-2.34-5.57.05 1.7 1.58 4.76 2.43 5.5.92-.79 1.79-1.59 2.59-2.36-.65-.4-1.4-1.79-1.16-2.73.06.79.77 2.14 1.24 2.65 1.38-1.33 2.52-2.58 3.27-3.65-.46 1.3-1.37 2.72-2.57 4.16.69.27 2 .5 2.71.34-.78.47-2.17.24-2.82-.21-.7.83-1.49 1.67-2.34 2.49 1.3.56 4 1.06 5.44.74-1.58.96-4.48.4-5.65-.54-.85.81-1.75 1.6-2.67 2.35 1.68.71 5.15 1.36 7 .94-2.04 1.23-5.79.52-7.29-.7-.93.75-1.88 1.46-2.83 2.12 1.8 1.05 6.25 2.27 8.63 1.92-2.68 1.36-7.41-.01-8.92-1.71-.8.55-1.6 1.06-2.37 1.52.02.01.04.02.07.03l-.09-.01-.24.15c.67 1.01 5.35 2.94 7.76 2.81-2.72 1.08-7.41-1.05-7.8-2.79-.72.42-1.41.8-2.08 1.12-.09-.09-.18-.18-.26-.27-.19-.05-.37-.11-.54-.17.58-.36 1.2-.77 1.86-1.21-3.28-1.36-6.84-5.63-5.18-7.96z"/></g><g fill-rule="evenodd"><path fill="#60754D" d="M156.393 188.075c-1.44 2.195-1.373 3.818-4.01 10.55-2.637 6.73-10.756 5.462-13.54.537-4.58-2.688-5.394-7.122-.433-9.24 4.96-2.12 13.574.495 17.983-1.847z"/><path fill="#394A2B" d="M137.65 191.475c-.39 1.58 1.318 5.212 2.687 6.79.732-.28 1.51-.59 2.307-.925-1.57-.395-3.635-4.338-2.848-6.774.02 2.135 1.973 6.11 2.924 6.742.867-.367 1.76-.763 2.648-1.175-1.205-.577-2.104-4.222-.973-6.044-.412 1.73.37 5.35 1.012 6.02.88-.41 1.752-.84 2.594-1.27-.88-.62-1.54-3.23-.74-4.59-.27 1.27.33 3.84.82 4.55.84-.43 1.63-.87 2.37-1.3-.41-.42-.72-1.59-.37-2.25-.1.6.19 1.73.45 2.2 1.27-.75 2.36-1.48 3.11-2.14-.57.88-1.51 1.78-2.67 2.64.47.33 1.41.73 1.97.74-.66.21-1.66-.22-2.07-.67-.67.49-1.41.98-2.2 1.44.87.65 2.81 1.51 3.94 1.53-1.35.42-3.42-.51-4.12-1.43-.77.45-1.59.87-2.42 1.27 1.13.83 3.61 1.94 5.07 1.96-1.75.55-4.42-.66-5.32-1.85-.82.39-1.66.75-2.49 1.07 1.16 1.11 4.27 2.82 6.11 2.99-2.25.53-5.54-1.35-6.35-2.89-.7.26-1.38.5-2.05.71.02.01.03.02.05.03l-.06-.03-.2.06c.33.87 3.47 3.16 5.3 3.5-2.22.31-5.34-2.12-5.32-3.5-.61.19-1.2.34-1.76.47-.05-.08-.1-.17-.15-.25-.13-.07-.25-.15-.37-.23.5-.17 1.04-.36 1.61-.57-2.2-1.61-4.09-5.45-2.44-6.89z"/></g><g fill-rule="evenodd"><path fill="#60754D" d="M118.844 160.068c-2.04 1.657-3.66 1.754-10.087 5.063-6.43 3.31-4.34 11.26.843 13.53 3.14 4.29 7.633 4.65 9.237-.51s-1.874-13.45.007-18.08z"/><path fill="#394A2B" d="M117.37 179.062c-1.534.55-5.32-.783-7.03-1.985.203-.757.434-1.56.687-2.388.552 1.52 4.684 3.17 7.028 2.14-2.127.19-6.28-1.34-7.004-2.23.28-.9.58-1.83.9-2.76.7 1.14 4.42 1.66 6.11.35-1.68.58-5.36.17-6.09-.4.32-.92.66-1.83 1-2.71.7.81 3.37 1.2 4.65.27-1.24.4-3.85.07-4.61-.35.35-.87.7-1.71 1.05-2.49.46.37 1.66.55 2.28.14-.59.16-1.75-.02-2.23-.23.61-1.34 1.23-2.5 1.81-3.31-.82.66-1.62 1.68-2.36 2.92-.37-.44-.87-1.33-.94-1.88-.14.68.39 1.63.88 1.99-.42.72-.83 1.5-1.21 2.33-.73-.8-1.79-2.64-1.92-3.76-.29 1.39.86 3.35 1.84 3.96-.37.82-.71 1.67-1.02 2.54-.94-1.04-2.3-3.39-2.47-4.84-.37 1.8 1.11 4.33 2.38 5.11-.3.86-.57 1.74-.81 2.59-1.22-1.04-3.24-3.96-3.59-5.77-.3 2.29 1.91 5.37 3.53 6.02-.19.72-.36 1.43-.5 2.11l-.03-.05.03.06-.04.21c-.9-.23-3.5-3.12-4.02-4.91-.08 2.25 2.66 5.1 4.02 4.94-.12.63-.21 1.23-.28 1.8.09.04.17.08.26.12.09.12.18.23.27.34.12-.52.25-1.08.41-1.67 1.83 2.03 5.84 3.52 7.1 1.73z"/></g><g fill-rule="evenodd"><path fill="#FFB8C6" d="M174.45 164.623c-.192-1.424-2.407-4.435-4.85-5.132-2.44-.69-6.454-1.96-10.577.81s-4.902 3.97-4.902 3.97-6.02.12-7.51-.64-2.8 1.05-2.19 4.46c.62 3.41 1.71 6.78 1.71 6.78s-2.41 2.66-5.06 3.12c-2.65.47-3.38.9-2.61 2.38s4.48 6.69 8.65 9c4.18 2.31 6.85 3.56 6.85 3.56s-2.39 5.63 3.93 8.46 18.94 2.46 18.14-2.27c-.79-4.73-1.04-5.58-1.04-5.58s4.06 1.84 8.19.6c4.13-1.24 8.66-3.65 7.45-6.06-1.21-2.41-6.59-6.83-7.26-8.22-.67-1.39-.68-1.58-.68-1.58s1.77-5.1.62-7.8c-1.14-2.7-3.7-2.34-3.7-2.34s-.08-1.24-.78-1.67c-.7-.43-.89-.42-.89-.42s.78-1.29-.94-1.18c-1.71.12-1.34 0-2.5-.21z"/><path fill="#FFE5EA" d="M148.145 165.244c-2.01-1.003-3.877.127-3.043 3.553.834 3.427 2.29 8.15 3.982 10.38 1.69 2.23 5.06 3.543 3.512.433-1.55-3.11-5.572-10.14-4.045-11.312 1.53-1.176.41-2.908-.4-3.054zm24.565-3.13c-1.083-1.386-5.323-3.458-8.718-3.162s-5.412 2.173-7.266 3.504c-1.85 1.33-3.97 4.688-3.908 6.56.057 1.87 1.572 4.446 2.133 4.81.56.364 1.84 1.35 1-.067-.83-1.42-3.39-4.6-1.19-7.82 2.2-3.23 6.15-6.18 9.42-6.4 3.27-.22 9.05 3.21 8.55 2.57z"/><path fill="#FFE5EA" d="M152.807 172.83c-.662-.08-1.426.7-1.354 1.767s1.07-.005 1.928.808c.86.813 3.61 2.77 8.56 3.642s7.42.772 10.06.26c2.65-.514 2.11-1.333.21-.95-2.51.503-8.5-.72-12.43-1.642-5.1-1.196-6.18-3.79-6.96-3.884zm5.043-9.617c-.586.188-2.83 3.646-2.424 6.174.406 2.528 1.258 6.02 3.234 6.55 1.975.53 3.834 1.444 3.03.03-.806-1.41-3.68-4.01-4.017-6.92s1.472-6.252.177-5.834zm4.03 2.237c-.354 1.064-1.034 3.618.716 3.596 1.748-.024 3.305-.13 2.127-1.422-1.174-1.293-2.854-3.025-2.842-2.175z"/><path fill="#FFE5EA" d="M161.592 162.582c-.47.03-.414.17.654 1.28 1.068 1.112 3.152 3.952 4.496 4.903.736.522 1.14.725 1.438.81-2.94.024-7.473-.023-7.95.197-.1.62 1.07.4 2.294.318 1.227-.082 6.63.073 8.283.01 1.652-.064 3.97-.078 4.434-.205.47-.125-.47-.063-1.1-.256-.63-.2 1.29-.61 2.1-1.19.82-.58 1.43-1.99 1.53-2.57.11-.58-.37-.69-.98-.6-.61.09.59.34.39.87s-.42 1.4-1.24 1.88c-.82.48-3.69 1.38-5.91 1.49-.31.01-.73.02-1.2.03-.39-.23-1.68-.8-2.14-1.37-.62-.76-4.14-5.21-5.07-5.62z"/><path fill="#FFE5EA" d="M162.574 176.43c1.01-1.157 6.81-4.293 8.293-4.724 1.484-.432 3.584-.195 4.646-1.26 1.064-1.065 2.23-2.754 2.922-2.99.695-.235-.486 1.88-1.693 2.954-1.205 1.075-4.424 1.765-5.455 1.882-1.035.117-7.21 3.28-7.922 3.942-.713.663-1.322.75-.79.195zm2.053-12.35c.984-.485 5.09-1.417 7.057-.616 1.898.77 3.496 3.41 3.668 3.87.174.46.088.608-.426-.02-.518-.628-2.36-2.728-3.44-3.27-1.077-.543-5.36-.207-6.325.237-.73.34-.88-.02-.53-.2zm1.978 1.288c1.178-.08 3.684.556 4.377 1.74.695 1.184-.225 2.285-.322.825-.098-1.46-2.828-1.938-3.7-2.212-.868-.27-.835-.46-.355-.35zm1.13 1.296c.9.034 1.985.67 2.05 1.612.063.942-.45 1.024-1.51.055-1.06-.96-1.504-1.93-.54-1.66zm10.843 2.698c-.193.85 1.814 3.386-.03 4.514-1.845 1.126-2.954 3.29-2.642 5.44.313 2.15-2.855 4.704-.912 3.82 1.945-.883 5.875-3.32 6.932-4.978 1.06-1.658 1.2-5.76.916-7.496s-4.248-2.303-4.264-1.3z"/><path fill="#FFE5EA" d="M177.95 182.826c-1.685.772-2.962 2.235-7.267 2.347-4.303.11-9.787-1.316-9.02.31s4.5 3.707 10.014 2.856c5.512-.86 6.436-2.23 8.088-3.48 1.653-1.25.03-3.12-1.814-2.04zm-30.268-3.11c-.998-1.016-7.027-1.2-5.97.284s6.677 7.514 10.4 9.48c3.726 1.963 5.017.68 6.067-.59 1.05-1.27.73-1.547-.92-2.035-1.65-.486-5.88-2.837-7.18-4.365-1.3-1.53-1.84-2.193-2.4-2.773zm30.373 12.624c2.61.542 4.94.446 6.854-1.36 1.91-1.806-.33-2.193-2.4-1.694-2.07.497-6.12 2.508-4.47 3.054zm-15.457-.096c-1.545 1.063-5.742 3.62-4.256 5.257 1.488 1.64 8.934 3.71 12.557 2.39 3.62-1.32.99-5.63-.11-6.88-1.11-1.24-6.19-2.03-8.2-.76z"/><path fill="#FF738F" d="M159.342 182.84c-1.172-1.024-2.47-3.118-2.87-3.98-.4-.863-1.608-1.534-2.27-2.242-.666-.71-1.395-.385-2.186-.947-.79-.56-1.068-.61-.848-2.4.223-1.79.877-1.22 1.426-1.19s-.133-1.97-.324-2.78-1.793-2.2-2.316-.87c-.527 1.34-.152 3.85.512 5.58s1.797 3.3 2.643 4.68c.84 1.38 2.32 3 3.43 3.26 1.11.27 2.11.89 2.13 1.23.02.34-1.79-.08-3.39-.45s-3.79-.29-5.41-2.03c-1.62-1.74-3.83-4.94-2.89-3.23.94 1.72 2.52 4.01 6.32 5.53s4.34 1.42 4.38 2.03-.13 1.11.42.11c.54-.99.66-1.27 2.65-1.27 1.98.01 8.36 1.22 10.92.57s2.49-1.6 2.7-2.57c.21-.97 1.35-2.46 1.05-3.81-.3-1.35.59-3.98 1.38-5.57.79-1.59 1.95-3.45 1.59-3.3-.36.15-.69.41-1.18 1.27-.49.86-1.74 1.63-1.87 2.73-.13 1.11-.99 3.63-.69 4.98.29 1.35-.55 3.11-.82 4.09-.28.98-3.79 1.69-7.3 1.38-3.52-.31-6.35.03-7.24-.75z"/><path fill="#FF738F" d="M161.02 164.112c.048.682.208 3.065-.015 3.834-.22.768-.816 1.08-.994 1.504-.17.423.06.75.65 1.394.59.646 1.98 1.92 3.32 1.42s2.75 1.184 3.99.278c1.24-.904 2.35-1.8 3.85-1.9 1.5-.103 2.12-.008 2.79-.258s1.06-.38 1.13-.667-1.16-.077-.49-.403c.67-.327 1.83-1.093 2.28-1.903.45-.81 1.23-.7.74-.23-.5.47-1.63 1.77-1.92 2.07-.29.3-.79 1.31-1.61 1.55-.83.25-4.35.3-6.14 1.6-1.78 1.31-4.9 2.8-5.52 3.28s-3.63-2.81-3.96-4.91c-.33-2.1-.2-4.42.41-5.99.61-1.57 1.46-1.59 1.54-.64zm2.806-.277c-.367-.32-1.68-1.262-.338-1.29 1.342-.027 6.08-.128 7.002.09s.014.218-1.016.226-4.133.31-4.736.64c-.6.32-.445.81-.912.34zm16.807 17.37c1.025.33 2.762 2.286 2.996 3.81.23 1.52.93 3.01-.07 2.942-1.01-.065-1.5-3.374-2.83-2.28-1.33 1.09-4.6 5.187-9.31 4.703-4.71-.485-8.84-2.212-9.56-3.032-.73-.82-2.58-2.5-3.08-1.997-.5.5-.64 1.45 0 1.07.64-.37 1.59-.17 2.12.73s.46 3.91-1.31 5.37c-1.78 1.46-3.91 1.47-4.55.98-.64-.49-.88.8-.83 1.6.06.8.27 1.99.8.89.52-1.1 3.41-1.9 4.93-3.14 1.52-1.24 4.33-3.1 8.33-2.23s8.09.06 10.62-2.11 3.97.47 5.2-.08 1.22-2.62-.18-4.66c-1.41-2.04-3.91-3.41-3.31-2.52z"/><path fill="#FF738F" d="M167.63 164.723c1.177-.08 3.575.4 4.27 1.583.696 1.183-.333 2.92-.433 1.46-.1-1.46-2.613-2.417-3.484-2.69-.87-.272-.835-.464-.354-.353z"/></g><g fill-rule="evenodd"><path fill="#9EAD90" d="M105.187 153.545c.613 2.127 1.688 2.974 4.546 8.353 2.858 5.38-2.408 9.875-7.086 8.954-4.232 1.455-7.514-.458-6.147-4.792 1.367-4.335 7.764-8.41 8.687-12.515z"/><path fill="#7B9167" d="M97.076 167.397c.796 1.115 4.057 2.016 5.817 2.006.224-.62.45-1.29.674-1.983-1.114.788-4.768-.055-5.895-1.895 1.377 1.157 4.99 2.093 5.916 1.83.242-.758.48-1.545.702-2.34-1.03.455-3.854-.97-4.398-2.693.882 1.215 3.627 2.7 4.41 2.658.22-.786.426-1.58.61-2.354-.875.226-2.906-.784-3.34-2.046.668.873 2.633 1.9 3.358 1.972.182-.768.342-1.517.47-2.224-.494.034-1.41-.412-1.64-1 .33.397 1.215.833 1.654.923.22-1.22.35-2.31.34-3.16.25.86.31 1.95.226 3.16.468-.12 1.243-.49 1.556-.84-.23.54-1.054.95-1.564.96-.053.7-.15 1.44-.288 2.2.892-.2 2.506-.96 3.14-1.67-.47 1.1-2.2 1.91-3.173 1.86-.14.74-.31 1.5-.51 2.25 1.15-.26 3.22-1.24 4.04-2.16-.6 1.43-2.84 2.47-4.1 2.4-.2.75-.43 1.48-.68 2.19 1.35-.13 4.15-1.17 5.27-2.26-.89 1.73-3.9 2.8-5.33 2.48-.21.6-.43 1.17-.67 1.7l.05-.01-.05.03-.07.17c.74.27 3.93-.48 5.15-1.46-1.02 1.6-4.29 2.26-5.15 1.49-.22.5-.44.96-.67 1.38-.08-.01-.16-.02-.24-.04-.11.04-.23.08-.35.11.17-.41.35-.86.52-1.34-2.23.53-5.73-.37-5.74-2.22z"/></g><g fill-rule="evenodd"><path fill="#F6325A" d="M133.033 176.704c1.434-.526 5.365.058 7.234 2.007 1.87 1.95 5.05 5.1 4.498 10.35s-1.295 6.59-1.295 6.59 2.883 5.73 4.338 6.75c1.455 1.02.404 3.16-3.104 4.28s-7.22 1.77-7.22 1.77-1.3 3.58-.42 6.31c.88 2.72.84 3.63-.936 3.64-1.776.02-8.514-.88-12.76-3.66-4.24-2.78-6.75-4.67-6.75-4.67s-4.093 5.05-9.896.52c-5.802-4.53-11.725-16.58-6.876-18.18 4.85-1.6 5.767-1.79 5.767-1.79s-3.738-2.89-4.628-7.39c-.89-4.49-.874-9.95 1.995-10.01 2.868-.05 9.702 2.8 11.343 2.74 1.64-.06 1.826-.15 1.826-.15s3.91-4.19 7.02-4.46c3.1-.27 4.03 2.32 4.03 2.32s1.2-.54 1.96-.09c.75.44.83.63.83.63s.83-1.37 1.58.3c.75 1.67.67 1.26 1.45 2.25z"/><path fill="#FF738F" d="M145.523 201.745c1.94 1.39 1.807 3.707-1.828 4.626-3.635.92-8.8 1.9-11.736 1.42-2.94-.48-5.85-2.99-2.16-3.08 3.69-.09 12.3.2 12.64-1.82.34-2.02 2.53-1.82 3.07-1.13zm-9.267-24.65c1.842.327 5.898 3.285 7.307 6.624 1.41 3.33.646 6.16.316 8.57s-2.44 6.06-4.23 6.93c-1.79.87-4.96.73-5.59.38-.62-.35-2.18-1.05-.43-.98s6 .9 7.94-2.76c1.94-3.67 2.75-8.85 1.33-12.03-1.42-3.18-7.52-6.91-6.67-6.76zm-.183 24.038c.404.583.052 1.687-.987 2.15-1.038.462-.527-1.01-1.718-1.413s-4.395-2.01-7.673-6.228c-3.278-4.22-4.414-6.59-5.246-9.332-.83-2.74.2-2.64.79-.664.77 2.61 4.9 7.637 7.72 10.874 3.66 4.204 6.63 3.928 7.11 4.613z"/><path fill="#FF738F" d="M142.61 191.61c.112.644-2.02 4.474-4.6 5.348-2.58.873-6.286 1.81-7.766.215-1.48-1.596-3.265-2.89-1.536-2.833 1.73.054 5.6 1.463 8.504.334 2.906-1.128 5.147-4.487 5.397-3.063zm-4.106-2.677c-.826.862-2.89 2.77-3.736 1.114-.848-1.656-1.52-3.17.277-2.707 1.802.462 4.264 1.18 3.46 1.593zm2.838-1.155c.205.46.047.475-1.53.02s-5.28-1-6.842-1.788c-.858-.434-1.247-.71-1.478-.95 1.44 2.775 3.738 7.014 3.766 7.57-.533.403-.906-.805-1.438-1.997-.533-1.193-3.365-6.197-4.125-7.782-.762-1.58-1.9-3.77-2.012-4.27-.113-.5.295.42.79.92.494.5-.067-1.51.07-2.56s1.16-2.33 1.65-2.71c.488-.38.83.02 1.05.63.22.62-.612-.38-1.016.07-.402.46-1.105 1.1-1.15 2.11s.533 4.16 1.54 6.3c.144.31.34.7.57 1.15.405.26 1.583 1.19 2.353 1.34 1.025.21 6.956 1.3 7.802 1.97z"/><path fill="#FF738F" d="M127.836 193.74c.586-1.527.65-8.537.32-10.147-.334-1.61-1.6-3.466-1.126-4.996.473-1.53 1.48-3.463 1.357-4.232s-1.522 1.393-1.935 3.06.54 5.037.943 6.067c.402 1.03.5 8.406.23 9.406-.268.998-.047 1.616.21.84zm10.588-8.07c-.03-1.167-1.195-5.49-2.926-6.942-1.668-1.4-4.94-1.592-5.46-1.524-.522.066-.618.22.228.392.847.173 3.738.864 4.785 1.607 1.05.744 2.86 4.94 2.92 6.065.05.856.47.815.46.402zm-2.192-1.222c-.512-1.147-2.354-3.185-3.812-3.25-1.46-.065-2.038 1.348-.616.715 1.422-.634 3.23 1.694 3.918 2.377.688.683.852.556.51.158z"/><path fill="#FF738F" d="M134.452 184.03c-.48-.83-1.618-1.532-2.536-1.123-.917.408-.736.933.7 1.446 1.44.515 2.566.453 1.836-.322zm-7.927-8.85c-.7.603-4.084-.024-4.227 2.27-.144 2.296-1.626 4.412-3.805 5.188-2.177.775-3.002 5.024-3.138 2.757-.136-2.27.202-7.173 1.234-8.992 1.03-1.818 4.82-3.99 6.59-4.586s4.27 2.848 3.34 3.363z"/><path fill="#FF738F" d="M114.18 182.46c.11 1.967-.63 3.896 1.405 7.998 2.034 4.1 6.102 8.55 4.192 8.635-1.91.084-5.723-2.39-7.663-7.994-1.94-5.61-1.102-7.16-.75-9.34.355-2.18 2.917-1.58 2.815.69zm17.966 26.913c1.452.433 4.623 6.01 2.7 5.752-1.92-.256-10.382-2.54-14.08-5.066-3.698-2.53-3.132-4.38-2.463-6 .67-1.62 1.09-1.46 2.368-.15 1.28 1.31 5.6 4.11 7.68 4.58 2.09.46 2.97.63 3.8.88zm-26.963-22.283c-1.808-2.185-2.874-4.422-2.128-7.118.747-2.698 2.226-.783 2.782 1.403s.683 7-.654 5.716zm7.772 14.484c-.23 1.98-.55 7.2-2.827 6.614-2.278-.585-7.927-6.555-8.485-10.617-.558-4.06 4.803-3.73 6.52-3.32 1.716.42 4.99 4.81 4.792 7.33z"/><path fill="#BA1C3B" d="M123.415 199.962c1.546.593 4.157.77 5.17.72 1.01-.054 2.24.75 3.237 1.022.994.27 1.054 1.12 1.976 1.583.923.464 1.106.7 2.685-.4 1.576-1.1.713-1.432.41-1.932-.302-.5 1.924-.857 2.78-1.08s2.962.59 1.97 1.747c-.995 1.158-3.538 2.052-5.5 2.29-1.96.237-3.996-.05-5.713-.157-1.718-.11-3.968-.698-4.77-1.61-.806-.915-1.883-1.55-2.214-1.4-.332.147.967 1.636 2.11 2.954 1.144 1.31 2.155 3.41 4.597 4.07 2.44.66 6.55 1.14 4.47 1.11-2.08-.03-5.022-.39-8.34-3.2-3.322-2.82-3.49-3.38-4.09-3.11-.597.26-.972.67-.31-.34.664-1.01.87-1.26-.12-3.13s-5.298-7.26-5.958-9.99c-.657-2.73.27-3.14 1.082-3.82.81-.68 1.645-2.49 3.06-2.89 1.415-.39 3.444-2.54 4.548-4.07 1.105-1.54 2.275-3.55 2.31-3.14.034.4-.044.85-.604 1.73-.56.88-.66 2.44-1.63 3.11-.97.67-2.92 2.73-4.33 3.12-1.41.39-2.66 2.06-3.44 2.8-.78.74.29 4.4 2.33 7.55 2.04 3.14 3.12 5.98 4.3 6.43z"/><path fill="#BA1C3B" d="M140.187 189.075c-.663.295-2.985 1.33-3.596 1.92-.61.59-.61 1.305-.92 1.682-.31.377-.73.324-1.63.09-.89-.235-2.78-.905-2.98-2.41-.19-1.503-2.47-1.995-2.24-3.61.24-1.614.53-3.098-.12-4.556-.65-1.45-1.05-1.99-1.14-2.75-.09-.75-.16-1.18.07-1.39.23-.21.65 1.06.63.27s.12-2.26.66-3.08c.54-.82.05-1.51-.14-.81-.19.71-.85 2.41-.98 2.84-.14.43-.83 1.39-.65 2.29.18.9 1.89 4.24 1.54 6.57-.34 2.33-.19 6-.33 6.83-.14.82 4.45 2.01 6.59 1.27 2.14-.73 4.26-2 5.43-3.36 1.17-1.35.78-2.16-.16-1.76zm-1.132-2.773c.482.185 2.02.95 1.38-.324-.64-1.274-2.9-5.782-3.564-6.538s-.21.095.3 1.066c.51.972 1.77 4.04 1.76 4.767 0 .726-.54.82.13 1.03zm-24.685-7.17c-.82-.8-3.52-1.46-5.068-.925-1.547.533-3.297.614-2.735 1.528s3.917-.27 3.55 1.523c-.365 1.794-2.593 6.898.203 11.088 2.797 4.188 6.47 7.21 7.602 7.48 1.13.273 3.63 1.18 3.406 1.898-.223.722-1.042 1.32-1.008.527.035-.79-.627-1.58-1.735-1.63-1.11-.05-3.91 1.51-4.396 3.9-.49 2.39.56 4.41 1.34 4.76.77.35-.31 1.23-1.09 1.57-.78.35-2 .74-1.23-.31s.09-4.15.5-6.2.76-5.61-2.05-8.95c-2.81-3.33-4.08-7.58-3.29-11.03.79-3.45-2.42-3.5-2.51-4.94-.1-1.43 1.85-2.45 4.47-2.15 2.62.31 5.14 1.98 4.01 1.87z"/><path fill="#BA1C3B" d="M136.33 183.168c-.51-1.147-2.152-3.165-3.61-3.23-1.458-.064-2.58 1.767-1.157 1.133 1.422-.63 3.57 1.26 4.26 1.94.687.69.85.56.507.16z"/></g><g fill-rule="evenodd"><path fill="#F6325A" d="M66.908 123.586c.958-.352 3.583.04 4.83 1.34 1.25 1.302 3.373 3.4 3.003 6.907-.37 3.508-.86 4.396-.86 4.396s1.93 3.82 2.9 4.5c.97.68.27 2.1-2.07 2.85s-4.82 1.18-4.82 1.18-.86 2.39-.28 4.21c.59 1.81.56 2.42-.62 2.43-1.18.01-5.68-.59-8.51-2.45-2.83-1.86-4.51-3.12-4.51-3.12s-2.73 3.37-6.6.34-7.82-11.07-4.59-12.15c3.24-1.07 3.85-1.19 3.85-1.19s-2.49-1.94-3.09-4.94c-.59-3.01-.58-6.65 1.34-6.69 1.92-.04 6.48 1.87 7.57 1.82 1.1-.04 1.22-.1 1.22-.1s2.62-2.8 4.69-2.98c2.08-.18 2.7 1.55 2.7 1.55s.81-.36 1.31-.07c.5.3.56.42.56.42s.56-.92 1.06.2c.5 1.11.45.84.96 1.5z"/><path fill="#FF738F" d="M75.247 140.304c1.296.93 1.206 2.475-1.22 3.09-2.428.61-5.876 1.266-7.837.943-1.96-.32-3.902-2-1.437-2.06s8.212.134 8.442-1.215c.23-1.348 1.69-1.22 2.052-.758zm-6.187-16.457c1.23.22 3.937 2.193 4.877 4.422.94 2.22.432 4.11.21 5.72-.22 1.6-1.624 4.04-2.818 4.63-1.2.58-3.32.49-3.73.26-.42-.23-1.46-.71-.29-.65 1.16.05 4 .6 5.3-1.85 1.3-2.45 1.83-5.91.89-8.03-.95-2.13-5.02-4.61-4.45-4.51z"/><path fill="#FF738F" d="M68.937 139.896c.27.39.035 1.126-.66 1.435-.692.31-.35-.67-1.146-.94-.79-.27-2.93-1.34-5.12-4.15-2.19-2.81-2.94-4.4-3.5-6.23-.55-1.83.14-1.76.53-.44.52 1.75 3.27 5.1 5.16 7.26 2.45 2.8 4.43 2.62 4.75 3.08z"/><path fill="#FF738F" d="M73.3 133.538c.077.43-1.348 2.987-3.07 3.57-1.722.583-4.196 1.207-5.184.143-.987-1.06-2.18-1.92-1.026-1.89 1.154.04 3.738.98 5.678.23s3.436-2.99 3.603-2.04zm-2.74-1.788c-.55.575-1.928 1.85-2.495.744-.566-1.106-1.016-2.116.186-1.808 1.21.31 2.85.79 2.31 1.064zm1.895-.77c.136.306.03.316-1.02.014s-3.527-.668-4.57-1.195c-.573-.29-.833-.48-.985-.64.96 1.85 2.495 4.68 2.514 5.05-.357.27-.606-.54-.96-1.34-.355-.8-2.247-4.14-2.754-5.2-.508-1.06-1.268-2.52-1.343-2.85-.075-.34.197.28.528.61s-.045-1.01.046-1.71c.1-.7.78-1.56 1.11-1.81s.56.01.7.42c.15.41-.4-.26-.67.04s-.74.73-.77 1.4c-.03.67.36 2.78 1.03 4.2.1.2.23.46.39.76.27.17 1.06.79 1.57.9.68.13 4.64.86 5.21 1.31z"/><path fill="#FF738F" d="M63.438 134.96c.39-1.02.435-5.7.213-6.775-.22-1.076-1.06-2.313-.75-3.334.32-1.02.99-2.31.91-2.82-.08-.51-1.01.93-1.29 2.05s.36 3.37.63 4.05c.27.69.34 5.61.16 6.28-.18.67-.03 1.08.14.56zm7.07-5.388c-.02-.78-.8-3.665-1.955-4.635-1.114-.935-3.3-1.063-3.646-1.02s-.412.147.153.263 2.496.577 3.193 1.074c.698.496 1.91 3.297 1.95 4.05.033.57.312.545.304.268zm-1.465-.815c-.34-.766-1.57-2.127-2.544-2.17-.98-.044-1.36.898-.42.477.95-.423 2.15 1.132 2.61 1.588.46.454.57.37.34.105z"/><path fill="#FF738F" d="M67.855 128.48c-.32-.557-1.08-1.025-1.692-.753-.612.273-.493.624.467.967.96.342 1.712.3 1.225-.215zm-5.292-5.912c-.468.402-2.728-.016-2.823 1.516-.095 1.532-1.084 2.945-2.54 3.464-1.452.517-2.004 3.354-2.095 1.84-.09-1.515.135-4.79.825-6.003.69-1.215 3.22-2.665 4.402-3.063 1.184-.397 2.856 1.904 2.23 2.246z"/><path fill="#FF738F" d="M54.32 127.43c.074 1.312-.42 2.6.94 5.34 1.357 2.737 4.073 5.707 2.798 5.764-1.275.056-3.822-1.595-5.117-5.337-1.29-3.74-.73-4.78-.5-6.23.24-1.454 1.95-1.054 1.88.462zm11.996 17.966c.97.29 3.086 4.013 1.803 3.842-1.29-.172-6.94-1.697-9.4-3.383-2.47-1.688-2.1-2.923-1.65-4.004.44-1.08.73-.97 1.58-.1.85.88 3.73 2.75 5.12 3.06 1.39.31 1.98.42 2.53.59zM48.314 130.52c-1.207-1.458-1.918-2.952-1.42-4.752.498-1.8 1.485-.522 1.857.937.38 1.46.46 4.672-.43 3.816zm5.188 9.67c-.154 1.322-.366 4.807-1.887 4.416-1.52-.392-5.292-4.377-5.665-7.09-.372-2.713 3.207-2.496 4.353-2.217 1.146.28 3.332 3.2 3.2 4.89z"/><path fill="#BA1C3B" d="M60.487 139.113c1.032.396 2.776.516 3.45.48.674-.034 1.497.5 2.162.683s.7.747 1.32 1.057c.61.31.73.468 1.79-.267s.47-.956.27-1.29 1.28-.57 1.85-.72 1.98.393 1.31 1.165c-.67.78-2.36 1.37-3.67 1.53-1.31.16-2.67-.03-3.82-.1s-2.65-.46-3.19-1.07c-.54-.61-1.26-1.03-1.48-.93-.22.1.64 1.09 1.41 1.98.76.88 1.44 2.28 3.07 2.72s4.37.76 2.98.74c-1.39-.02-3.36-.26-5.57-2.13s-2.33-2.25-2.73-2.07c-.4.18-.65.45-.21-.22.44-.67.58-.84-.08-2.08-.66-1.24-3.54-4.84-3.98-6.67-.44-1.82.18-2.09.72-2.55.54-.45 1.09-1.66 2.04-1.92.94-.26 2.3-1.69 3.04-2.71.74-1.02 1.52-2.37 1.54-2.1.02.27-.03.57-.4 1.16-.38.59-.45 1.63-1.09 2.08-.65.45-1.95 1.83-2.9 2.09s-1.78 1.37-2.3 1.87c-.52.5.2 2.94 1.56 5.04s2.08 4 2.87 4.3z"/><path fill="#BA1C3B" d="M71.684 131.846c-.443.196-1.993.888-2.4 1.28-.41.396-.41.873-.615 1.124-.21.25-.49.216-1.09.06-.6-.157-1.86-.604-1.99-1.608-.13-1.004-1.66-1.333-1.5-2.41.15-1.08.35-2.068-.08-3.042-.44-.975-.7-1.334-.77-1.836-.07-.502-.11-.79.04-.93.15-.142.43.7.41.176-.02-.525.08-1.512.44-2.06s.03-1.01-.1-.54-.57 1.61-.66 1.893-.56.926-.44 1.525c.12.6 1.26 2.83 1.03 4.384-.23 1.556-.13 4.007-.23 4.557-.1.55 2.97 1.34 4.4.85 1.42-.49 2.84-1.34 3.62-2.25.78-.91.52-1.45-.11-1.18zm-.756-1.852c.322.123 1.35.635.92-.217-.427-.85-1.936-3.86-2.38-4.365-.442-.505-.14.063.197.712.337.648 1.177 2.696 1.175 3.183-.002.485-.36.547.088.687zm-16.48-4.787c-.548-.534-2.35-.974-3.384-.618-1.033.35-2.2.41-1.826 1.02.375.61 2.615-.18 2.37 1.01-.243 1.19-1.73 4.6.136 7.4 1.867 2.79 4.32 4.81 5.075 4.99.75.18 2.42.78 2.27 1.27-.15.48-.7.88-.68.35.02-.53-.42-1.06-1.16-1.09-.74-.04-2.61 1-2.94 2.6s.37 2.94.89 3.17c.52.23-.21.81-.73 1.05-.52.23-1.34.49-.82-.21.52-.7.06-2.77.33-4.14.27-1.37.5-3.75-1.37-5.98-1.87-2.22-2.72-5.06-2.19-7.37.52-2.31-1.62-2.34-1.68-3.3s1.24-1.64 2.99-1.44c1.75.2 3.43 1.32 2.67 1.24z"/><path fill="#BA1C3B" d="M69.11 127.9c-.342-.765-1.44-2.112-2.412-2.155-.974-.043-1.722 1.18-.772.756.95-.42 2.384.84 2.843 1.3.46.46.56.37.34.11z"/></g><g fill-rule="evenodd"><path fill="#FFB8C6" d="M71.536 146.63c-.192-1.423-2.407-4.435-4.848-5.132s-6.454-1.96-10.578.81c-4.124 2.768-4.904 3.97-4.904 3.97s-6.027.12-7.515-.643-2.8 1.052-2.18 4.458c.62 3.407 1.7 6.78 1.7 6.78s-2.41 2.655-5.06 3.12c-2.65.466-3.38.898-2.61 2.38.77 1.48 4.48 6.69 8.65 8.994 4.18 2.305 6.85 3.562 6.85 3.562s-2.39 5.62 3.93 8.45c6.32 2.83 18.94 2.46 18.14-2.28-.79-4.74-1.04-5.58-1.04-5.58s4.05 1.83 8.19.59c4.13-1.24 8.66-3.65 7.45-6.06-1.21-2.41-6.59-6.84-7.26-8.23-.66-1.4-.68-1.59-.68-1.59s1.77-5.1.63-7.8-3.7-2.34-3.7-2.34-.08-1.24-.78-1.67c-.7-.44-.89-.42-.89-.42s.78-1.3-.94-1.18c-1.71.11-1.34-.01-2.5-.22z"/><path fill="#FFE5EA" d="M45.23 147.252c-2.01-1.003-3.875.127-3.042 3.553s2.29 8.15 3.98 10.38c1.69 2.228 5.06 3.542 3.512.433-1.55-3.11-5.57-10.138-4.043-11.313 1.527-1.175.406-2.907-.407-3.053zm24.565-3.13c-1.082-1.386-5.322-3.457-8.718-3.162-3.395.296-5.41 2.174-7.264 3.504-1.852 1.33-3.97 4.688-3.91 6.558.06 1.87 1.572 4.447 2.132 4.812.56.363 1.832 1.35 1-.067s-3.39-4.593-1.197-7.82c2.193-3.23 6.147-6.174 9.413-6.394 3.27-.222 9.05 3.213 8.55 2.57z"/><path fill="#FFE5EA" d="M49.893 154.84c-.664-.08-1.426.698-1.354 1.765.07 1.066 1.07-.005 1.92.807.86.814 3.6 2.77 8.55 3.643 4.94.872 7.41.773 10.06.26 2.64-.514 2.1-1.333.2-.95-2.51.503-8.51-.72-12.44-1.64-5.1-1.2-6.18-3.79-6.96-3.886zm5.042-9.62c-.584.19-2.83 3.647-2.423 6.175.407 2.528 1.257 6.02 3.233 6.55 1.976.528 3.836 1.444 3.03.03-.804-1.41-3.677-4.01-4.015-6.92-.338-2.912 1.47-6.25.175-5.834zm4.03 2.237c-.354 1.064-1.033 3.62.716 3.596 1.75-.023 3.31-.128 2.13-1.42-1.17-1.294-2.85-3.027-2.84-2.176z"/><path fill="#FFE5EA" d="M58.678 144.59c-.47.032-.415.17.654 1.28s3.153 3.953 4.496 4.903c.737.522 1.14.725 1.438.81-2.938.023-7.472-.023-7.948.197-.1.622 1.068.4 2.293.318 1.23-.082 6.63.074 8.29.01s3.97-.078 4.44-.205c.47-.125-.48-.063-1.1-.256-.63-.194 1.29-.606 2.1-1.183.82-.575 1.43-1.99 1.53-2.563.11-.57-.37-.68-.98-.59s.59.34.39.88c-.2.54-.42 1.4-1.24 1.89-.82.48-3.69 1.39-5.91 1.49-.31.02-.73.02-1.2.03-.39-.22-1.68-.79-2.15-1.37-.62-.76-4.14-5.21-5.06-5.62z"/><path fill="#FFE5EA" d="M59.66 158.437c1.01-1.156 6.81-4.292 8.294-4.723 1.485-.432 3.583-.195 4.647-1.26 1.07-1.066 2.23-2.754 2.93-2.99.7-.235-.49 1.88-1.69 2.954-1.2 1.075-4.42 1.765-5.45 1.883-1.03.12-7.21 3.28-7.92 3.94-.71.67-1.32.76-.79.2zm2.053-12.347c.984-.487 5.088-1.418 7.057-.618 1.897.77 3.495 3.408 3.668 3.87.173.46.088.607-.427-.02s-2.36-2.728-3.43-3.27c-1.08-.543-5.36-.206-6.32.237-.73.33-.88-.03-.53-.2zm1.98 1.285c1.178-.08 3.682.557 4.376 1.74s-.23 2.286-.33.826-2.83-1.93-3.7-2.21c-.87-.27-.84-.46-.36-.35zm1.127 1.297c.903.034 1.987.67 2.05 1.612.063.942-.45 1.024-1.51.055-1.06-.97-1.503-1.94-.54-1.67zm10.843 2.698c-.193.85 1.815 3.387-.03 4.513-1.845 1.128-2.953 3.29-2.64 5.44s-2.857 4.705-.913 3.82c1.945-.883 5.874-3.318 6.932-4.977 1.058-1.66 1.2-5.762.915-7.497-.283-1.74-4.248-2.31-4.264-1.3z"/><path fill="#FFE5EA" d="M75.038 164.834c-1.684.77-2.963 2.235-7.267 2.347-4.3.11-9.79-1.31-9.02.31.77 1.63 4.51 3.71 10.02 2.86s6.44-2.23 8.09-3.48c1.65-1.25.03-3.11-1.81-2.03zm-30.27-3.108c-1-1.018-7.027-1.203-5.97.282 1.06 1.485 6.676 7.514 10.4 9.478 3.725 1.965 5.016.68 6.068-.588 1.053-1.27.734-1.547-.916-2.033-1.65-.488-5.88-2.838-7.18-4.367-1.3-1.53-1.833-2.193-2.402-2.772zM75.14 174.35c2.61.54 4.94.444 6.854-1.362 1.915-1.806-.327-2.193-2.39-1.695-2.062.497-6.118 2.508-4.464 3.056zm-15.455-.098c-1.545 1.063-5.744 3.62-4.256 5.257 1.48 1.63 8.93 3.71 12.55 2.38 3.62-1.32 1-5.64-.11-6.88-1.11-1.25-6.19-2.04-8.2-.77z"/><path fill="#FF738F" d="M56.428 164.848c-1.172-1.024-2.468-3.118-2.87-3.98-.4-.863-1.608-1.534-2.27-2.242s-1.396-.385-2.187-.947c-.79-.57-1.06-.62-.84-2.41s.88-1.23 1.43-1.19c.55.03-.13-1.98-.32-2.79s-1.79-2.21-2.31-.87c-.52 1.33-.15 3.84.52 5.57.67 1.73 1.8 3.3 2.65 4.68s2.33 2.99 3.44 3.26 2.12.88 2.14 1.22c.03.34-1.78-.09-3.38-.46-1.6-.37-3.78-.3-5.4-2.03-1.62-1.74-3.82-4.95-2.89-3.23.94 1.71 2.53 4 6.33 5.53 3.8 1.52 4.34 1.41 4.38 2.03.04.61-.13 1.1.42.11s.67-1.28 2.65-1.28c1.99 0 8.37 1.21 10.92.56 2.56-.65 2.49-1.61 2.7-2.58.21-.98 1.35-2.47 1.06-3.82-.29-1.35.6-3.98 1.39-5.57.79-1.59 1.96-3.45 1.6-3.3-.35.15-.68.41-1.17 1.27s-1.73 1.62-1.87 2.72-.98 3.63-.69 4.97c.3 1.35-.54 3.12-.82 4.09-.27.98-3.78 1.69-7.29 1.38-3.51-.32-6.34.03-7.24-.75z"/><path fill="#FF738F" d="M58.108 146.12c.046.682.207 3.065-.015 3.834-.222.768-.817 1.08-.994 1.503-.18.424.05.75.64 1.396.59.644 1.97 1.92 3.31 1.418 1.33-.5 2.75 1.19 3.99.28 1.24-.9 2.34-1.8 3.84-1.9 1.5-.1 2.12 0 2.79-.25s1.05-.38 1.13-.66-1.16-.07-.5-.4c.66-.32 1.83-1.09 2.27-1.9.44-.81 1.23-.71.73-.23-.5.47-1.63 1.77-1.92 2.07s-.79 1.31-1.62 1.55-4.36.3-6.14 1.6c-1.79 1.31-4.91 2.8-5.53 3.28-.63.48-3.63-2.81-3.96-4.92s-.21-4.42.4-5.99 1.45-1.6 1.54-.64zm2.802-.277c-.364-.32-1.676-1.262-.335-1.29 1.34-.026 6.08-.128 7 .09.922.22.016.218-1.015.226-1.03 0-4.132.31-4.735.63-.603.32-.446.81-.914.34zm16.81 17.37c1.024.33 2.76 2.286 2.996 3.808.236 1.53.938 3.01-.07 2.95-1.005-.06-1.496-3.37-2.826-2.28-1.33 1.1-4.596 5.19-9.306 4.71-4.71-.48-8.837-2.21-9.56-3.03-.725-.82-2.575-2.5-3.076-2-.5.51-.638 1.45.005 1.07s1.592-.17 2.12.73c.53.9.465 3.91-1.308 5.37s-3.91 1.47-4.546.98c-.64-.49-.89.8-.83 1.59.05.8.26 1.99.79.89.52-1.1 3.41-1.9 4.93-3.14 1.52-1.24 4.33-3.1 8.33-2.23 4 .87 8.09.06 10.61-2.12 2.52-2.17 3.97.47 5.2-.08 1.23-.55 1.22-2.62-.18-4.66-1.41-2.04-3.91-3.41-3.31-2.51zM64.713 146.73c1.178-.08 3.578.4 4.272 1.583s-.335 2.92-.433 1.46c-.1-1.462-2.614-2.416-3.484-2.69-.87-.27-.835-.463-.355-.354z"/></g><g fill-rule="evenodd"><path fill="#FF738F" d="M97.558 174.542c-.21-1.327-2.342-4.092-4.638-4.692-2.295-.6-6.07-1.692-9.863.98-3.792 2.675-4.496 3.815-4.496 3.815s-5.62.24-7.03-.44c-1.4-.68-2.59 1.042-1.95 4.21.65 3.17 1.74 6.3 1.74 6.3s-2.19 2.528-4.66 3.02c-2.46.49-3.14.912-2.39 2.278s4.33 6.153 8.28 8.217c3.95 2.063 6.48 3.18 6.48 3.18s-2.12 5.303 3.85 7.812c5.97 2.51 17.75 1.893 16.9-2.514-.84-4.406-1.09-5.19-1.09-5.19s3.83 1.627 7.66.384c3.83-1.243 8.01-3.593 6.83-5.816-1.18-2.225-6.3-6.244-6.95-7.53-.65-1.285-.67-1.464-.67-1.464s1.54-4.8.42-7.3c-1.12-2.497-3.51-2.103-3.51-2.103s-.1-1.16-.77-1.55c-.66-.39-.84-.37-.84-.37s.7-1.23-.9-1.09c-1.6.14-1.25.02-2.34-.15z"/><path fill="#FFADBD" d="M73 175.683c-1.9-.895-3.617.2-2.766 3.384s2.313 7.563 3.94 9.61c1.626 2.046 4.8 3.2 3.288.328-1.513-2.87-5.42-9.35-4.02-10.48 1.404-1.13.32-2.723-.443-2.842zm22.878-3.448c-1.04-1.27-5.046-3.116-8.21-2.768-3.166.35-5.01 2.145-6.71 3.427-1.7 1.282-3.607 4.463-3.512 6.21.095 1.746 1.563 4.12 2.094 4.448s1.74 1.222.933-.084-3.264-4.218-1.285-7.28c1.98-3.062 5.61-5.896 8.656-6.173 3.045-.275 8.516 2.81 8.034 2.22z"/><path fill="#FFADBD" d="M77.517 182.67c-.622-.06-1.317.683-1.227 1.678s1-.027 1.82.714c.818.74 3.423 2.51 8.062 3.22 4.64.708 6.946.563 9.404.026 2.458-.535 1.937-1.29.17-.893-2.334.525-7.957-.49-11.647-1.267-4.8-1.006-5.86-3.407-6.59-3.478zm4.503-9.092c-.54.188-2.565 3.466-2.13 5.82.434 2.352 1.303 5.595 3.16 6.047s3.614 1.268 2.832-.034-3.52-3.66-3.898-6.38 1.237-5.87.037-5.45zm3.814 2.002c-.308 1.003-.89 3.403.745 3.345 1.63-.06 3.08-.19 1.95-1.373-1.13-1.183-2.73-2.765-2.71-1.97z"/><path fill="#FFADBD" d="M85.504 172.91c-.44.04-.384.167.638 1.182s3.03 3.624 4.303 4.483c.7.473 1.08.652 1.36.727-2.744.084-6.98.137-7.42.353-.08.583 1.007.353 2.15.25s6.194-.074 7.735-.17c1.542-.095 3.707-.156 4.138-.284.43-.12-.448-.04-1.04-.21s1.188-.59 1.935-1.15c.747-.55 1.292-1.89 1.375-2.43s-.367-.63-.934-.53c-.567.1.56.31.383.81s-.368 1.32-1.123 1.79c-.756.47-3.42 1.37-5.49 1.52-.294.02-.68.04-1.125.06-.38-.2-1.59-.7-2.04-1.23-.6-.7-3.98-4.78-4.85-5.14z"/><path fill="#FFADBD" d="M86.715 185.823c.92-1.104 6.27-4.155 7.647-4.59 1.378-.436 3.343-.26 4.314-1.275.972-1.02 2.022-2.62 2.666-2.855.643-.235-.417 1.766-1.52 2.796-1.103 1.02-4.095 1.74-5.057 1.87-.963.13-6.664 3.21-7.315 3.85s-1.218.73-.735.2zm1.655-11.578c.91-.477 4.723-1.433 6.58-.73 1.79.68 3.337 3.11 3.51 3.538.17.428.094.566-.4-.01-.495-.574-2.264-2.496-3.282-2.98s-5.013-.077-5.903.357c-.678.33-.826-.007-.504-.175zm1.878 1.16c1.098-.1 3.45.44 4.125 1.53.674 1.09-.16 2.14-.284.778-.13-1.36-2.69-1.75-3.51-1.986-.82-.236-.79-.415-.34-.323zm1.082 1.185c.842.013 1.868.585 1.947 1.464.08.88-.4.966-1.41.083-1.01-.884-1.444-1.775-.538-1.546zm10.184 2.29c-.163.797 1.767 3.124.068 4.217-1.7 1.092-2.688 3.136-2.35 5.14.337 2-2.57 4.453-.77 3.587 1.798-.867 5.415-3.227 6.37-4.8.952-1.57.995-5.406.693-7.02-.302-1.615-4.018-2.062-4.01-1.124z"/><path fill="#FFADBD" d="M101.217 191.47c-1.558.757-2.72 2.15-6.738 2.347-4.02.194-9.18-1.02-8.42.48s4.28 3.368 9.41 2.456 5.96-2.22 7.48-3.423c1.52-1.202-.04-2.91-1.74-1.86zm-28.34-2.26c-.955-.928-6.59-.972-5.57.393 1.02 1.365 6.395 6.876 9.917 8.632 3.52 1.755 4.7.528 5.655-.68.95-1.208.65-1.46-.9-1.88-1.55-.42-5.56-2.525-6.8-3.926-1.25-1.4-1.76-2.01-2.31-2.54zm28.64 11.144c2.45.45 4.623.31 6.372-1.418 1.75-1.727-.36-2.042-2.27-1.532-1.92.51-5.66 2.474-4.11 2.95zm-14.44.24c-1.42 1.026-5.288 3.506-3.864 5 1.424 1.5 8.423 3.276 11.78 1.963 3.355-1.312.81-5.285-.245-6.423-1.056-1.137-5.82-1.772-7.67-.54z"/><path fill="#F6325A" d="M83.834 191.88c-1.117-.933-2.372-2.86-2.765-3.658-.4-.797-1.54-1.398-2.18-2.046-.64-.646-1.31-.33-2.06-.838s-1.01-.55-.84-2.23c.17-1.68.79-1.16 1.3-1.142.51.018-.17-1.843-.37-2.594s-1.72-2.022-2.19-.764c-.46 1.26-.06 3.592.6 5.198.65 1.605 1.75 3.045 2.56 4.315.82 1.28 2.23 2.75 3.28 2.98 1.04.23 1.99.78 2.02 1.1.03.32-1.67-.04-3.17-.35s-3.54-.19-5.09-1.78c-1.56-1.59-3.68-4.53-2.77-2.95.92 1.58 2.45 3.69 6.03 5.03s4.08 1.24 4.14 1.81c.05.57-.1 1.04.39.1.49-.94.59-1.2 2.45-1.24 1.85-.04 7.83.96 10.21.29 2.37-.66 2.29-1.55 2.46-2.46.17-.91 1.2-2.32.9-3.58-.31-1.25.47-3.73 1.17-5.23.7-1.5 1.75-3.26 1.42-3.11-.33.15-.63.4-1.07 1.21-.44.81-1.59 1.55-1.69 2.59-.1 1.03-.85 3.41-.54 4.66.3 1.25-.44 2.92-.68 3.84s-3.5 1.66-6.79 1.45-5.93.17-6.78-.54z"/><path fill="#F6325A" d="M85.004 174.352c.058.635.258 2.858.067 3.58-.19.722-.74 1.027-.89 1.426-.15.4.07.7.63 1.29s1.89 1.75 3.13 1.254 2.6 1.047 3.73.176c1.14-.873 2.15-1.732 3.55-1.86 1.4-.124 1.98-.05 2.6-.298.62-.248.98-.378 1.04-.646.07-.27-1.08-.048-.47-.367.62-.318 1.69-1.06 2.09-1.825.4-.768 1.14-.688.68-.237-.45.45-1.48 1.685-1.75 1.972-.26.286-.71 1.232-1.47 1.478-.76.244-4.06.367-5.7 1.626-1.64 1.26-4.52 2.72-5.09 3.18-.57.46-3.44-2.55-3.8-4.51-.35-1.95-.28-4.12.26-5.6.54-1.48 1.33-1.52 1.43-.63zm2.612-.32c-.348-.29-1.594-1.143-.342-1.197 1.252-.055 5.678-.25 6.542-.065.865.186.02.202-.944.23-.96.03-3.854.38-4.41.692s-.398.766-.846.34zm16.072 15.865c.964.288 2.627 2.078 2.88 3.493.253 1.416.94 2.792-.002 2.752-.942-.04-1.47-3.12-2.69-2.07-1.217 1.048-4.18 4.943-8.59 4.592-4.412-.353-8.302-1.877-8.996-2.628-.693-.75-2.458-2.28-2.915-1.8-.457.478-.564 1.364.028.998.592-.367 1.483-.197 1.996.632.51.83.51 3.645-1.11 5.042-1.63 1.398-3.62 1.454-4.23 1.008s-.81.76-.74 1.505c.06.75.29 1.86.76.81s3.15-1.85 4.54-3.04c1.39-1.18 3.98-2.98 7.74-2.26 3.75.73 7.55-.12 9.87-2.2 2.31-2.08 3.72.35 4.86-.19 1.14-.54 1.09-2.47-.27-4.35-1.36-1.88-3.72-3.1-3.15-2.28z"/><path fill="#F6325A" d="M91.188 174.78c1.098-.1 3.35.296 4.024 1.387.674 1.09-.25 2.734-.373 1.373-.13-1.362-2.5-2.2-3.32-2.438-.82-.235-.79-.414-.34-.323z"/></g></g></svg>