<svg xmlns="http://www.w3.org/2000/svg" width="250" height="250" viewBox="0 0 250 250"><path opacity=".15" d="M215.92 134.745c7.242-3.32 7.328-8.04.227-11.386 6.617-4.23 5.93-8.9-1.674-11.27 6.32-5.2 4.965-9.9-3.325-11.18 5.813-6.05 4.044-10.61-4.133-10.91 4.61-6.5 2.325-10.63-5.498-9.98 3.618-6.97.688-10.67-7.082-8.92 2.876-7.66-.647-11.05-8.47-8.02 2.012-8.15-1.8-11.21-9.03-7.38.747-7.93-3.298-10.37-9.747-5.89-.35-7.85-4.738-9.59-10.593-4.19-1.34-8.07-6.084-9.25-11.34-2.71-2.33-8.06-7.163-8.8-11.51-1.87-3.32-7.24-8.04-7.33-11.386-.22-4.23-6.62-8.9-5.93-11.27 1.67-5.2-6.32-9.9-4.97-11.18 3.32-6.05-5.8-10.61-4.03-10.91 4.14-6.5-4.61-10.63-2.32-9.98 5.5-6.97-3.62-10.67-.69-8.92 7.08-7.66-2.88-11.05.64-8.02 8.46-8.15-2.01-11.21 1.8-7.38 9.03-7.93-.75-10.37 3.3-5.89 9.75-7.84.35-9.58 4.74-4.18 10.59-8.07 1.34-9.25 6.08-2.71 11.34-8.06 2.33-8.81 7.16-1.87 11.51-7.24 3.32-7.33 8.04-.23 11.38-6.61 4.23-5.93 8.9 1.68 11.27-6.32 5.19-4.96 9.89 3.33 11.17-5.82 6.04-4.05 10.6 4.13 10.9-4.62 6.49-2.33 10.63 5.5 9.97-3.62 6.97-.69 10.67 7.08 8.92-2.88 7.66.64 11.05 8.46 8.02-2.01 8.15 1.8 11.21 9.03 7.38-.75 7.93 3.3 10.37 9.75 5.89.35 7.84 4.74 9.58 10.59 4.18 1.33 8.07 6.08 9.25 11.34 2.71 2.33 8.06 7.16 8.81 11.51 1.87 3.31 7.24 8.03 7.32 11.38.22 4.23 6.62 8.9 5.93 11.27-1.68 5.19 6.32 9.89 4.97 11.17-3.32 6.05 5.81 10.61 4.04 10.9-4.13 6.49 4.61 10.62 2.32 9.97-5.5 6.96 3.62 10.67.69 8.91-7.08 7.66 2.87 11.05-.65 8.01-8.47 8.15 2.01 11.21-1.8 7.38-9.03 7.93.75 10.36-3.3 5.89-9.75 7.84-.35 9.58-4.74 4.18-10.59 8.07-1.34 9.24-6.09 2.71-11.34 8.05-2.33 8.8-7.17 1.87-11.51z"/><path fill="#FF5AAD" d="M197.34 125.094c28.742-6.21 26.565-20.104-3.57-18.425 26.974-13.55 21.943-26.68-6.075-17.76 21.788-19.75 12.956-30.7-12.303-14.18 16.585-25.22 5.663-34.08-14.142-12.34 8.995-28-4.127-33.06-17.74-6.12 1.757-30.13-12.132-32.35-18.415-3.62-6.208-28.75-20.104-26.57-18.426 3.57-13.55-26.97-26.68-21.94-17.76 6.08-19.75-21.79-30.69-12.95-14.17 12.31-25.22-16.59-34.08-5.67-12.34 14.13-28-9-33.06 4.12-6.12 17.74-30.14-1.76-32.35 12.13-3.62 18.41-28.74 6.21-26.57 20.1 3.57 18.42-26.98 13.54-21.95 26.68 6.07 17.75-21.79 19.75-12.96 30.69 12.3 14.17-16.59 25.21-5.67 34.07 14.14 12.34-9 27.99 4.12 33.06 17.74 6.12-1.76 30.13 12.13 32.34 18.41 3.62 6.21 28.74 20.1 26.56 18.42-3.57 13.54 26.97 26.68 21.94 17.76-6.08 19.74 21.79 30.69 12.95 14.17-12.31 25.21 16.58 34.08 5.66 12.34-14.14 27.99 8.99 33.06-4.13 6.12-17.74 30.13 1.76 32.34-12.13 3.62-18.42z"/><path fill="#FF8ABA" d="M196.737 115.686c27.69-9.895 23.726-23.39-5.935-17.805 24.98-16.93 18.287-29.3-8.334-16.81 19.035-22.41 8.854-32.12-14.042-12.45 13.167-27.16 1.184-34.52-15.626-10.4 5.28-28.93-8.39-32.24-18.382-3.76-2.177-30.1-16.235-30.49-18.73-1.19-9.894-27.69-23.388-23.73-17.805 5.93-16.935-24.98-29.305-18.29-16.815 8.34-22.415-19.04-32.118-8.86-12.45 14.04-27.164-13.17-34.528-1.19-10.4 15.62-28.93-5.27-32.24 8.4-3.764 18.39-30.104 2.18-30.49 16.24-1.19 18.73-27.692 9.9-23.727 23.39 5.935 17.81-24.99 16.93-18.29 29.3 8.33 16.81-19.04 22.41-8.86 32.12 14.04 12.45-13.16 27.16-1.18 34.53 15.63 10.4-5.28 28.93 8.39 32.24 18.38 3.76 2.17 30.1 16.23 30.49 18.73 1.19 9.89 27.69 23.38 23.73 17.8-5.93 16.93 24.98 29.3 18.29 16.81-8.34 22.41 19.04 32.11 8.86 12.45-14.04 27.16 13.17 34.52 1.19 10.4-15.62 28.92 5.28 32.24-8.39 3.76-18.38 30.1-2.17 30.49-16.23 1.19-18.73z"/><circle fill="#FF5AAD" cx="124.287" cy="124.684" r="73.491"/><path opacity=".5" d="M98.25 171.63l-11.64-9.88c1.787-2.72 2.838-5.93 2.838-9.38 0-9.753-8.257-17.656-18.442-17.656s-18.44 7.903-18.44 17.655c0 9.75 8.255 17.65 18.44 17.65 4.546 0 8.7-1.59 11.917-4.2l15.328 5.8z"/><g fill="#FFF"><path d="M93.253 74.626c1.17-.207 2.34-.448 3.442-.448.24 0 .517 0 .757.034l2.134-10.05h4.957L99.07 89.908h-4.956l2.72-12.77c-.757-.274-1.48-.343-2.203-.343-.65 0-1.3.07-1.85.137l-2.76 12.976h-4.95l4.99-23.404c-3.02 1.273-4.81 3.89-4.81 7.538 0 1.756.45 2.032.48 2.34-2.37 0-3.68-.86-3.68-3.338 0-4.578 6.34-8.948 12.08-8.948.49 0 .93.035 1.38.07l-2.23 10.462zm26.215-1.928L116.99 84.4c-.068.378-.138.757-.138 1.067 0 .757.344 1.308 1.722 1.308 1.376 0 3.166-1.928 4.542-3.03h1.17c-1.582 1.584-5.472 6.162-8.157 6.162-2.24 0-3.76-.826-4.2-2.616-1.04 1.42-2.59 2.83-4.68 2.83-3.31 0-4.27-2.34-4.27-4.37 0-5.92 2.13-13.01 9.01-13.01.82 0 1.68.35 2.3.86l.2-.89h4.95zm-11.84 12.115c0 2.065 1.136 2.444 1.997 2.444.79 0 1.548-.758 2.203-1.72.034-.345.103-.724.207-1.137l1.927-9.12c-.55-.482-1.204-.62-1.686-.62-2.583 0-4.647 5.472-4.647 10.153z"/><path d="M128.91 72.698l-.138.654c.724-.378 1.548-.62 2.408-.62 3.58 0 5.267 1.273 5.267 4.82 0 .722-.068 1.514-.207 2.41-1.066 7.398-4.026 9.91-7.537 9.91-1.137 0-2.202-.377-3.235-1.032l-1.79 8.433-5.197 1.24 5.48-25.813h4.96zm2.926 7.676c.31-1.514.447-2.65.447-3.477 0-2.065-.827-2.478-1.928-2.478-.654 0-1.307.27-1.962.72l-2.478 11.56c.825.62 1.687.62 2.236.62 1.73 0 2.55-1.48 3.69-6.96zm12.354-7.676l-.138.654c.723-.378 1.55-.62 2.41-.62 3.58 0 5.267 1.273 5.267 4.82 0 .722-.07 1.514-.21 2.41-1.07 7.398-4.03 9.91-7.54 9.91-1.14 0-2.2-.377-3.24-1.032l-1.79 8.433-5.2 1.24 5.48-25.813h4.95zm2.927 7.676c.31-1.514.447-2.65.447-3.477 0-2.065-.826-2.478-1.928-2.478-.654 0-1.308.27-1.962.72l-2.478 11.56c.824.62 1.686.62 2.236.62 1.722 0 2.55-1.48 3.685-6.96zm13.457-7.676L158.06 84.4c-.103.378-.17.757-.17 1.102 0 .757.378 1.273 1.72 1.273.79 0 1.72-.62 2.615-1.376l2.686-12.7h4.99l-4.19 19.96c-1.03 4.92-3.99 5.85-6.26 5.85-2.1 0-4.06-1.48-4.06-3.72 0-3.2 2.69-4.2 5.95-5.17l.52-2.38c-1.54 1.41-3.3 2.65-4.68 2.65-2.68 0-4.26-1.17-4.26-3.75 0-.55.07-1.11.21-1.76l2.41-11.71h5.06zm-1.928 22.75c.688 0 1.62-.653 2.03-2.684l.413-2.03c-2.17.722-3.82 1.72-3.82 3.58 0 .48.62 1.135 1.37 1.135zm-73.104 24.755l3.442-16.28-6.54 16.28h-4.716v-14.697l-4.542 14.697h-2.754l7.71-23.646c-3.442 1.102-5.542 3.82-5.542 7.78 0 1.754.448 2.03.482 2.34-2.375 0-3.683-.86-3.683-3.34 0-4.198 5.81-8.81 11.18-8.81.79 0 1.62.103 2.37.344v19.83l7.53-19.82h5.41l-5.41 25.34h-4.95zm22.338-12.495c.207.207.517.31 1 .31 1.617 0 2.34-1.17 3.613-1.687l.138.73c-1.06 1.35-2.85 2.48-4.85 3.03-.65 6.92-4.4 10.33-7.85 10.33-3.68 0-5.26-1.55-5.26-5.64 0-8.46 4.31-12.11 9.05-12.11 3.27 0 4.1 2.55 4.17 5.06zm-2.65 2.72c-.998 0-1.446-.723-1.446-1.55 0-.997.586-2.063 1.516-2.408-.104-1.136-.482-1.79-1.446-1.79-3.235 0-4.612 7.02-4.612 9.775 0 2.065.963 2.615 2.306 2.615 2.1 0 3.27-3.304 3.682-6.642z"/><path d="M118.07 97.556s-.517 2.34-1.17 5.438h2.064l-.275 1.377h-2.07c-2.38 10.88-2.34 11.22-2.34 11.4 0 .79.34 1.31 1.72 1.31 1.37 0 3.16-1.93 4.54-3.03h1.17c-1.59 1.59-5.48 6.17-8.16 6.17-2.65 0-4.27-1.17-4.27-3.75 0-1.82 1.79-9.12 2.37-12.08h-1.14l.27-1.38h1.13l1.03-4.75 5.09-.69z"/><path d="M133.436 114.695c-.104.413-.174.792-.174 1.102 0 .756.38 1.273 1.723 1.273 1.376 0 3.165-1.928 4.543-3.03h1.17c-1.583 1.585-5.473 6.163-8.156 6.163-2.686 0-4.27-1.17-4.27-3.75 0-.552.07-1.102.207-1.757l1.31-6.195c.06-.3.1-.61.1-.89 0-1.24-.65-2.03-1.59-2.03-.83 0-1.45.24-2.14.73l-2.96 13.91h-4.96l4.99-23.4 5.09-.69-1.86 8.71c1.41-1 2.99-1.82 4.47-1.82 1.86 0 3.96 2 3.96 4.31 0 .28 0 .55-.07.83l-1.41 6.57z"/><path d="M144.888 117.724c1.685 0 4.577-1.996 5.782-4.542h1.55c-1.964 3.545-5.268 7.02-9.708 7.02-3.305 0-5.094-2.512-5.094-5.472 0-4.372 1.86-12.046 8.123-12.046 2.83 0 4.41 1.17 4.41 3.58 0 4.198-4.51 6.607-7.78 7.02-.06.55-.1 1.066-.1 1.48 0 2.272 1.48 2.96 2.83 2.96zm1.788-13.217c-1.926 0-3.51 3.89-4.232 7.125 3.167-.035 5.402-2.754 5.44-5.197 0-.723-.174-1.928-1.208-1.928zm11.448-1.514l-.378 1.722c1.238-.964 2.616-1.722 4.062-1.722 1.547 0 2.478.895 2.478 2.203 0 1.205-.895 2.685-2.582 2.685-1.926 0-.964-2.27-1.996-2.27s-1.583.38-2.374 1.1l-2.856 13.5h-4.957l3.65-17.21h4.96zm10.794-8.535c1.412 0 2.205.964 2.205 2.27 0 1.79-1.55 4.096-4.165 5.784-.24-.138-.31-.31-.31-.482l1.687-2.41c0-.205-.137-.412-.413-.584-.86-.516-1.515-1.205-1.515-2.168 0-1.308 1.102-2.41 2.51-2.41zm11.692 7.916v.482c0 5.68 2.513 7.33 2.513 11.357 0 3.202-2.03 5.99-6.678 5.99-3.957 0-5.885-1.137-5.885-4.51 0-2.718 1.238-4.302 2.616-4.405 1.17-2.237 1.858-5.266 2.443-7.882l4.99-1.032zm-7.055 13.182c-.414 0-.825-.104-1.238-.31 0 2.03 1.1 2.926 2.925 2.926 1.17 0 2.856-1.446 2.856-4.096 0-2.134-1.55-3.958-1.617-8.26-.55 1.687-1.03 3.89-1.79 5.61.83.275 1.14.895 1.14 1.928-.03 1.307-1.06 2.202-2.27 2.202zm-68.058 12.362l-4.13 19.31c.653.48 1.308.688 1.96.688 4.098 0 6.61-8.295 6.61-14.902 0-4.303-.792-6.746-4.75-6.746-5.576 0-9.293 3.13-9.293 8.363 0 1.76.447 2.04.482 2.34-2.375 0-3.683-.85-3.683-3.33 0-4.58 6.333-8.95 12.08-8.95 7.95 0 9.913 4.44 9.913 9.3 0 8.88-4.44 16.97-9.534 16.97-1.308 0-2.72-.55-4.2-1.82l-.273 1.38h-4.96l4.68-21.89 5.09-.69zm25.836 5.372l-2.478 11.7c-.07.38-.14.758-.14 1.067 0 .757.345 1.308 1.723 1.308 1.376 0 3.166-1.927 4.542-3.03h1.17c-1.583 1.585-5.473 6.163-8.156 6.163-2.237 0-3.75-.826-4.2-2.615-1.032 1.41-2.58 2.82-4.68 2.82-3.304 0-4.268-2.34-4.268-4.37 0-5.92 2.134-13.01 9.018-13.01.826 0 1.687.344 2.306.86l.205-.895h4.958zm-11.84 12.114c0 2.064 1.135 2.443 1.996 2.443.79 0 1.54-.758 2.2-1.72.03-.347.1-.724.2-1.137l1.93-9.122c-.55-.48-1.21-.62-1.69-.62-2.58.002-4.65 5.475-4.65 10.156z"/><path d="M141.94 133.29l-2.51 11.7c-.105.38-.174.758-.174 1.102 0 .758.378 1.273 1.72 1.273.793 0 1.723-.62 2.616-1.377l2.685-12.7h4.992l-4.2 19.963c-1.04 4.93-4 5.86-6.27 5.86-2.1 0-4.06-1.48-4.06-3.71 0-3.2 2.68-4.2 5.95-5.16l.51-2.37c-1.55 1.41-3.31 2.65-4.68 2.65-2.69 0-4.27-1.17-4.27-3.75 0-.55.07-1.1.2-1.75l2.41-11.7h5.06zm-1.925 22.748c.688 0 1.617-.653 2.03-2.683l.414-2.032c-2.17.724-3.83 1.722-3.83 3.58 0 .482.62 1.135 1.38 1.135zm14.652-5.54c-1.516 0-2.753-1.24-2.753-2.754 0-1.516 1.237-2.72 2.753-2.72 1.513 0 2.72 1.204 2.72 2.72 0 1.514-1.207 2.754-2.72 2.754zm-.55-7.95l2.442-16.143h4.95l-4.48 16.142h-2.93z"/></g><path fill="#D0D1D2" d="M107.73 163.948s-8.935-5.277-5.138 5.81l1.723-1.146 3.414-4.664z"/><ellipse transform="rotate(-84.78 128.81 178.62)" fill="#FFF" cx="128.796" cy="178.642" rx="22.566" ry="28.16"/><ellipse transform="rotate(-84.78 124.98 177.5)" fill="#D0D1D2" cx="124.96" cy="177.521" rx="19.599" ry="23.567"/><path fill="#6D6F71" d="M120.373 184.385s.596 7.55-3.644 3.352c0 0-4.63-4.13-1.67 3.66 0 0-2.62 8.26 5.97 1.896 0 0 2.09-.875 1.98 2.408 0 0 2.97-7.08-6.29-1.59 0 0-3.53-1.62 3.64-3.66 0 0-5.43 1.39-4.79-1.54 0 0-.02-.73 1.14 0 0 0 4.61 3.65 4.3-4.52-.31-8.16-.66 0-.66 0z"/><ellipse transform="rotate(-84.78 112.6 173.35)" fill="#FFF" cx="112.596" cy="173.371" rx="9.518" ry="9.656"/><circle fill="#0071BC" cx="114.19" cy="172.89" r="7.187"/><ellipse transform="rotate(-84.78 134.93 175.6)" fill="#FFF" cx="134.939" cy="175.625" rx="11.839" ry="11.919"/><path fill="#919396" d="M150.98 168.252c-.007-.01 2.957 5.354 2.825 7.006l.92-1.242s6.76-8.07-3.746-5.764z"/><path fill="#D0D1D2" d="M148.595 166.523s5.936-3.182 9.444-.492c0 0 4.44 4.51-2.82 10.54l-1.78 1.65s-1.17-1.03-.73-3c0 0 8.51-8-2.51-6.11 0 0-1.73-.28-1.62-2.57z"/><circle fill="#0071BC" cx="137.151" cy="175.643" r="8.768"/><path fill="#0F4481" d="M135.697 175.456c-1.626-1.883-1.422-4.726.458-6.35 1.88-1.63 4.722-1.425 6.353.458 1.626 1.88 1.422 4.725-.46 6.35-1.88 1.628-4.723 1.422-6.35-.458z"/><path fill="#FFF" d="M138.32 174.074c-.863-1-.755-2.508.244-3.373.996-.86 2.51-.75 3.377.25.87 1 .76 2.51-.24 3.38-1 .87-2.51.76-3.37-.24z"/><circle fill="#FFF" cx="134.678" cy="171.889" r="1.165"/><path fill="#0B8ECC" d="M121.046 181.328s1.492-2.408 2.737 2.227l-3.05 2.135-2.233-2.44c0-.002 1.99-3.99 2.546-1.922z"/><path fill="#FFF" d="M123.222 183.46l-1.312.91s.418-1.475 1.312-.91zm-3.444.714l-.787-.772s.66-.248.79.772z"/><path fill="#6D6F71" d="M115.963 191.895l-.134-.71.3-.3c0 .002.35.064.92.064 1.45 0 4.22-.41 6.43-3.14l.42.29c-.09.14-2.07 3.41-7.67 3.99l-.28-.21zm6.54-4.662s3.866-2.287 1.694 2.3c0 0 2.893-5.262-1.694-2.3z"/><path fill="#0F4481" d="M113.484 173.4c-1.335-1.544-1.166-3.875.375-5.207 1.54-1.334 3.87-1.168 5.2.375 1.33 1.54 1.16 3.87-.38 5.204-1.54 1.335-3.88 1.166-5.21-.373z"/><path fill="#FFF" d="M115.635 172.266c-.71-.818-.62-2.057.2-2.766.817-.71 2.056-.62 2.768.2.708.82.617 2.057-.203 2.767-.82.71-2.057.617-2.765-.2z"/><circle fill="#FFF" cx="112.648" cy="170.474" r=".956"/><path fill="#919496" d="M103.08 174.902s11.16-2.96 18.81 1.06c0 0-1.064 8.684-11.63 6.93 0 0-7.01-2.058-7.18-7.99zm19.94 1.733s10.876-4.045 23.79.074c0 0 .863 10.05-11.87 11.22 0 0-11.408-.18-11.92-11.3z"/><linearGradient id="a" gradientUnits="userSpaceOnUse" x1="88.137" y1="185.69" x2="109.75" y2="185.69"><stop offset="0" stop-color="#B81319"/><stop offset="1" stop-color="#EC1C24"/></linearGradient><path fill="url(#a)" d="M100.783 177.898c-3.03 1.617-1.563 1.608-4.59-.093-1.303-.732-2.488-1.082-3.532-1.13-6.36-.467-4.15 7.858-4.14 7.752 1.03 3.28 3.89 7 9.18 9.904.02.01.04.03.06.04.21.12.42.23.64.35.08.01.17.01.25.02 16.43-8.4 11.18-21.64 2.15-16.82z"/><path opacity=".2" fill="#FFF" d="M93.818 189.818s-11.154-15.256 2.76-9.658c0 0 .73 2.193-2.76.656 0 0-6.116-3.212 0 9.002z"/><circle opacity=".2" fill="#FFF" cx="104.986" cy="180.975" r="3.163"/><path opacity=".5" fill="#9E1818" d="M98.927 192.44s2.717-8.575 5.846-5.06c0 .002.078 3.24-5.846 5.06z"/><path fill="#FFF5A9" d="M96.643 169.758L85 159.878c1.79-2.718 2.84-5.93 2.84-9.38 0-9.752-8.257-17.656-18.442-17.656s-18.44 7.904-18.44 17.656c0 9.75 8.256 17.655 18.44 17.655 4.547 0 8.7-1.583 11.917-4.194l15.328 5.79z"/><path d="M59.312 151.157l-1.634-9.977 1.927-.315 1.463 8.938 3.604-.59.073 1.057-5.433.887zm7.663-8.097l.73 4.47c.066.395.178.678.336.85.16.17.4.23.7.18.11-.018.23-.053.35-.107.13-.054.26-.12.39-.195.13-.078.25-.16.37-.25s.22-.183.32-.28l-.82-5.053 1.9-.31 1.09 6.666-1.7.28-.3-.75-.02.01c-.11.11-.26.23-.42.37-.16.14-.35.27-.54.4-.2.13-.41.25-.63.36s-.45.18-.67.21c-.25.04-.49.04-.73-.01-.23-.04-.44-.14-.64-.27-.19-.13-.36-.32-.49-.55-.13-.23-.23-.51-.28-.84l-.79-4.85 1.9-.31zm5.345-.79l.278-.094c.116-.036.24-.076.376-.116.133-.04.266-.08.398-.11.132-.033.248-.058.35-.073.23-.04.43-.048.6-.027.17.02.325.094.465.22s.31.347.51.667c.2.318.416.69.648 1.115.233.426.468.873.704 1.346s.45.926.66 1.358h.01c.17-.505.31-.945.4-1.328.09-.38.14-.735.17-1.06.02-.328.02-.64-.01-.934-.03-.297-.07-.613-.13-.954-.03-.144-.06-.306-.11-.48-.05-.18-.09-.306-.13-.382l1.39-.44c.05.082.09.19.14.33.04.136.08.273.1.41.09.534.1 1.077.04 1.634-.06.553-.17 1.104-.32 1.65s-.33 1.086-.54 1.615c-.21.53-.41 1.04-.61 1.523l-1.56.255c-.29-.59-.59-1.177-.9-1.76-.31-.583-.61-1.118-.89-1.604-.29-.48-.54-.9-.78-1.25-.23-.35-.42-.59-.56-.71-.18-.15-.37-.2-.57-.17l-.09.02-.11-.63zm-5.306 12.76l.73 4.468c.066.398.178.68.337.852.16.17.4.23.7.18.11-.02.23-.055.35-.107.13-.055.26-.12.39-.196.13-.077.25-.16.37-.25s.23-.182.32-.278l-.82-5.06 1.9-.31 1.09 6.67-1.7.27-.3-.75h-.02c-.11.1-.26.23-.42.36-.16.13-.35.26-.54.4-.2.13-.41.25-.63.35-.22.1-.45.17-.67.21-.25.04-.5.04-.73-.01-.23-.05-.45-.14-.64-.27s-.36-.32-.5-.55c-.13-.24-.23-.52-.28-.84l-.79-4.85 1.9-.31zm8 3.044l1.48 1.158-1.03 1.57-1.48-1.16 1.03-1.568zm-.755-.54l-1.53-6.84 2.08-.343.73 6.97-1.29.22z" fill="#CC2766"/></svg>