<svg xmlns="http://www.w3.org/2000/svg" width="250" height="250" viewBox="0 0 250 250"><path fill="none" stroke="#004393" stroke-width="3" stroke-miterlimit="10" d="M-356.362-99.42c.234 5.026 2.164 10.87-1.163 15.335-1.406 1.887-3.742 3.176-5.644 4.506-2.84 1.99-5.14 4.09-7.06 7.03-2.01 3.08-4.94 7.34-3.59 11.18 1.66 4.72 4.92 6.66 9.77 7.29 4.54.6 12.79.47 14.89-4.74.93-2.3.52-6.23-.11-8.54-1.09-3.96-3.35-6.94-6.68-9.32-4.42-3.14-9.36-5.47-13.79-8.62-3.58-2.55-7.67-5.05-10.29-8.68-1.43-1.98-2.71-3.95-3.43-6.28-.34-1.13-.56-2.24-1.13-3.27"/><path fill="#D3D3D3" d="M-372.435-119.736h2.736l-5.56-29.51c-.3-1.59-.01-3.103.77-4.046.53-.63 1.23-.963 2.05-.963h5.39v-2.688h-5.38c-1.62 0-3.08.687-4.12 1.935-1.3 1.576-1.79 3.857-1.34 6.26l5.47 29.012z"/><linearGradient id="a" gradientUnits="userSpaceOnUse" x1="-2229.554" y1="4327.023" x2="-2221.057" y2="4327.023" gradientTransform="matrix(1 0 0 -1 1854 4175)"><stop offset="0" stop-color="#575757"/><stop offset=".4" stop-color="#555"/><stop offset=".579" stop-color="#4D4D4D"/><stop offset=".714" stop-color="#414141"/><stop offset=".827" stop-color="#2F2F2F"/><stop offset=".925" stop-color="#171717"/><stop offset="1"/></linearGradient><path fill="url(#a)" d="M-375.262-149.246c-.3-1.59-.012-3.104.77-4.047.523-.63 1.232-.963 2.05-.963h5.385v-.546h-5.098c-1.62 0-2.328.593-2.707 1.07-1.272 1.604-.4 4.486-.4 4.486z"/><linearGradient id="b" gradientUnits="userSpaceOnUse" x1="-2228.81" y1="4294.735" x2="-2228.81" y2="4331.67" gradientTransform="matrix(1 0 0 -1 1854 4175)"><stop offset="0" stop-color="#FFF"/><stop offset=".495" stop-color="#FFF"/><stop offset=".881" stop-color="#F4F4F4"/><stop offset="1" stop-color="#F0F0F0"/></linearGradient><path fill="url(#b)" d="M-371.99-119.736l-4.844-29.323c-.36-1.91-.076-3.89.815-5.15.72-1.01 2.21-2.45 3.99-2.45-2.28 0-3.53 1.13-4.38 2.14-.97 1.16-1.48 3.5-1.08 5.61l5.51 29.2z"/><path fill="#004393" d="M-366.688-157.31h3.27c.463-.616 1.222-.684 2.08-.684 1.407 0 2.56.53 2.56 1.865v1.04c0 1.34-1.152 1.83-2.56 1.83-.858 0-1.617-.01-2.08-.63h-3.27c-.37 0-.37-.03-.37-.36v-2.69c0-.36 0-.36.37-.36z"/><path fill="#D3D3D3" d="M-340.184-119.736h-2.735l5.57-29.51c.3-1.59.02-3.103-.77-4.046-.52-.63-1.23-.963-2.04-.963h-5.38v-2.688h5.39c1.62 0 3.08.687 4.12 1.935 1.31 1.576 1.8 3.857 1.34 6.26l-5.47 29.012z"/><linearGradient id="c" gradientUnits="userSpaceOnUse" x1="-1628.938" y1="4327.023" x2="-1620.442" y2="4327.023" gradientTransform="rotate(180 -983 2087.5)"><stop offset="0" stop-color="#575757"/><stop offset=".4" stop-color="#555"/><stop offset=".579" stop-color="#4D4D4D"/><stop offset=".714" stop-color="#414141"/><stop offset=".827" stop-color="#2F2F2F"/><stop offset=".925" stop-color="#171717"/><stop offset="1"/></linearGradient><path fill="url(#c)" d="M-337.355-149.246c.3-1.59.013-3.104-.77-4.047-.522-.63-1.23-.963-2.047-.963h-5.385v-.546h5.1c1.618 0 2.326.593 2.705 1.07 1.27 1.604.397 4.486.397 4.486z"/><linearGradient id="d" gradientUnits="userSpaceOnUse" x1="-1628.194" y1="4294.736" x2="-1628.194" y2="4331.672" gradientTransform="rotate(180 -983 2087.5)"><stop offset="0" stop-color="#FFF"/><stop offset=".495" stop-color="#FFF"/><stop offset=".881" stop-color="#F4F4F4"/><stop offset="1" stop-color="#F0F0F0"/></linearGradient><path fill="url(#d)" d="M-340.626-119.736l4.844-29.323c.36-1.91.078-3.89-.816-5.15-.712-1.01-2.205-2.45-3.988-2.45 2.288 0 3.536 1.13 4.38 2.14.972 1.16 1.48 3.5 1.084 5.61l-5.504 29.2z"/><path fill="#004393" d="M-345.928-157.31h-3.284c-.466-.616-1.223-.684-2.08-.684-1.41 0-2.563.53-2.563 1.865v1.04c0 1.34 1.152 1.83 2.563 1.83.856 0 1.614-.01 2.08-.63h3.284c.37 0 .37-.03.37-.36v-2.69c0-.36 0-.36-.37-.36z"/><path fill="#3F72BC" d="M-339.665-119.494c-.127-.153-.316-.243-.518-.243h-2.734c-.323 0-.602.23-.66.547l-1.638 8.686c-.507 2.69-3.247 4.96-5.983 4.96h-10.22c-2.735 0-5.478-2.27-5.983-4.96l-1.64-8.687c-.06-.32-.34-.55-.66-.55h-2.74c-.2 0-.39.09-.52.24s-.18.35-.15.55l1.73 9.18c.85 4.54 5.31 8.24 9.94 8.24h10.22c4.62 0 9.09-3.7 9.94-8.25l1.73-9.19c.04-.2-.01-.4-.14-.56z"/><path fill="#004393" d="M-342.506-119.17h-.336c-.19 0-.345.206-.398.488l-1.648 8.8c-.452 2.396-3.218 4.866-5.884 4.866h-8.545c2.805.353 6.256.65 8.545.65 2.013 0 6.076-1.3 6.838-5.348l1.7-8.947c.035-.18.02-.51-.272-.51zm-27.437 9.15l-1.48-8.515c-.055-.298-.15-.532-.452-.532 0 0-.253-.028-.374.116-.12.14-.16.33-.13.52l1.63 8.62c.81 4.27 5 7.74 9.34 7.74 0 0-6.84-.54-8.52-7.96z"/><path fill="#71BFEA" d="M-352.79-97.644c-.072 1.107-1.035 2.013-2.145 2.013h-2.685c-1.11 0-2.07-.91-2.137-2.02l-.493-3.87h7.854l-.395 3.86z"/><linearGradient id="e" gradientUnits="userSpaceOnUse" x1="-2243.974" y1="4283.959" x2="-2229.999" y2="4269.984" gradientTransform="matrix(1 0 0 -1 1854 4175)"><stop offset="0" stop-color="#575757"/><stop offset=".1" stop-color="#626262"/><stop offset=".274" stop-color="#7F7F7F"/><stop offset=".5" stop-color="#ADADAD"/><stop offset=".534" stop-color="#B5B5B5"/><stop offset=".587" stop-color="#AAA"/><stop offset=".678" stop-color="#8D8D8D"/><stop offset=".798" stop-color="#5E5E5E"/><stop offset=".941" stop-color="#1D1D1D"/><stop offset="1"/></linearGradient><path fill="url(#e)" d="M-373.105-101.972c0-5.458-4.424-9.882-9.88-9.882-5.46 0-9.883 4.424-9.883 9.882 0 1.434.305 2.796.854 4.026.372.833.855 1.604 1.432 2.296 1.813 2.176 4.542 3.56 7.597 3.56 5.456 0 9.88-4.424 9.88-9.882z"/><linearGradient id="f" gradientUnits="userSpaceOnUse" x1="-2243.558" y1="4283.542" x2="-2230.416" y2="4270.4" gradientTransform="matrix(1 0 0 -1 1854 4175)"><stop offset="0" stop-color="#B2B2B2"/><stop offset=".117" stop-color="#BDBDBD"/><stop offset=".322" stop-color="#DADADA"/><stop offset=".534" stop-color="#FFF"/><stop offset=".592" stop-color="#F4F4F4"/><stop offset=".692" stop-color="#D7D7D7"/><stop offset=".824" stop-color="#A8A8A8"/><stop offset=".98" stop-color="#676767"/><stop offset="1" stop-color="#5E5E5E"/></linearGradient><circle fill="url(#f)" cx="-382.987" cy="-101.972" r="9.293"/><circle fill="#1D2C51" cx="-382.986" cy="-101.972" r="7.026"/><path fill="#4689BB" d="M-366.57-156.67h3.208s.625-1.46 3.333-.668c0 0-3.15-.024-3.27 1.71h-3.27v-.335l2.96-.375-2.96-.042v-.29zm13.625-.274s1.667-1.06 3.708.273h3v.58h-3.125s-.417-1.63-3.583-.86z"/><path opacity=".15" d="M195.334 119.98c0-24.387-12.296-45.897-31.022-58.686l13.886-7.225c.04-.01.083-.01.116-.02.31-.05.477-.08.5-.1.1-.05.15-.19.15-.41 0-.65-.038-1.62-.112-2.94-.074-1.31-.11-2.29-.11-2.95 0-.42.197-.89.593-1.41 2.796-3.54 5.003-6.91 6.624-10.11.19-.4.29-.86.29-1.39 0-.67-.02-1.66-.04-2.98-.03-1.32-.04-2.31-.04-2.96 0-.53-.13-.8-.37-.8-.76 0-1.88.03-3.37.1-1.49.07-2.61.1-3.35.1h-.47c-.11.03-.15.17-.16.39l-.07-.08-6.93 6.05c-.08-.18-.12-.32-.12-.41 0-.63.03-1.58.08-2.85s.08-2.22.08-2.85c0-.19-.15-.28-.43-.28-.77 0-1.92-.03-3.45-.1-1.54-.06-2.68-.09-3.44-.09-.25 0-.37.2-.37.61v.08l-3.97 2.22-.07-.08c-1.8-1.76-4.16-2.68-7.09-2.77-1.78-.05-3.64-.08-5.58-.08-3.29 0-5.42.06-6.39.18-.25.03-.41.11-.49.21l-.19-.04-1.02 6-3.5-3.5-.06.15c-.05-.05-.1-.1-.15-.16-1.8-1.75-4.16-2.67-7.09-2.76-1.78-.05-3.65-.08-5.59-.08-3.29 0-5.42.06-6.38.19-.1.01-.18.03-.25.05l-.32-.05-3.25 13-7.87-13.95-.5.42c-.07-.04-.13-.06-.2-.06-.32 0-.81.02-1.46.07-.65.04-1.14.06-1.48.06-.35 0-.87-.03-1.57-.09-.7-.06-1.22-.09-1.55-.09-.2 0-.37.23-.52.7-.25.78-1.77 4.96-4.56 12.51L86.61 28.2l-.116.32v-.06c0-.298-.18-.446-.538-.446-.37 0-.925.02-1.66.056-.737.03-1.285.05-1.643.05-.37 0-.924-.02-1.66-.06-.736-.037-1.284-.056-1.642-.056-.31 0-.46.192-.46.575 0 .9.05 2.25.13 4.05.09 1.8.13 3.14.13 4.03 0 .43-.15.68-.44.76-.42.1-1.95.15-4.6.15-.52 0-.98-.01-1.41-.01l-3.29-8.91.01-.33c0-.22-.1-.34-.31-.34-.39 0-.99.02-1.79.05s-1.39.06-1.79.06c-.38 0-.96-.02-1.74-.06-.77-.04-1.35-.06-1.73-.06-.26 0-.39.14-.39.41 0 1.43.07 3.59.19 6.46.13 2.88.19 5.03.19 6.47 0 1.35-.06 3.37-.19 6.06s-.19 4.71-.19 6.05c0 .22.09.37.26.47l-.17.26 18.73 9.92c-16.57 13.05-27.2 33.23-27.2 55.9 0 9.92 2.04 19.37 5.72 27.95l-.26.28v76.83h131V148.2l-.16-.17c3.71-8.606 5.77-18.09 5.77-28.055z"/><circle fill="#06C" cx="121.309" cy="116.981" r="71.025"/><circle fill="#71B5FF" cx="121.339" cy="114.34" r="61.31"/><path fill="#FF7300" d="M186.733 145.21l-12.8-13.358v30.738m-118.2-17.38l12.8-13.358v30.738"/><path fill="#06C" d="M66.233 25.21l4.682 12.667 8.985-2.334 3.72-10.333 7.946 16.167 4.492-12.334 5.57-4.78 7.866 13.947 3.245-13 14.66 2.333 3.79 3.834 1.37-3.5 3.5 3.5 1.01-6 5.82 1.166 9.49 2.167 1.01 1.167 8.04-4.5 2.6 3.666 3.01 3.778 8.33-7.27 4.16 4.84-6.17 10.17-1.17 5.5 3.33 4.84-59.25 30.83-57.57-30.5 5.67-8.83-2-11.83"/><path fill="#FF8939" d="M164.455 92.78s-16.1 10.082-82.8 4.797l4.775-8.166 31.68-10.86 31.344 3 13.162 8.64 1.84 2.61z"/><path fill="#FFF" d="M130.04 177.3c-8.96-12.51 6.863-30.987 6.863-30.987V130.94c-6.62 2.924-12.287 4.256-12.287 4.256l2.723 12.273c-15 3.46-12.95 22.95-12.94 23.03-8.02-11.17 7.7-22.92 7.7-22.92 2.29-3.11 1.65-8.23.9-11.55-.7.03-1.41.06-2.12.06-18.93 0-34.27-12.48-34.27-27.87s15.34-27.87 34.26-27.87c17.32 0 31.63 10.45 33.94 24.03 22.42 64.04-9.11 72.42-24.78 72.9z"/><path fill="#D0D2D3" d="M130.04 177.3c-4.672.142-9.617-1.835-9.617-1.835-3.67-2.045-4.455-2.783-6.02-4.963-.01-.082-2.064-19.568 12.936-23.033l-2.73-12.28s5.67-1.33 12.28-4.26v15.37s-15.82 18.48-6.86 30.99z"/><path fill="#D0D2D3" d="M113.772 165.914c-19.77 7.547-14.917 14.277-14.917 14.277 2.268 3.94-2.197 2.46-2.197 2.46l-17.17-8.72c-4.104 1.23-3.2-2.65-3.2-2.65-4.557.86-3.026-2.25-3.026-2.25-2.43 1.08-2.96-2.44-2.96-2.44 4.227-6.78 24.312 10.61 24.312 10.61 2.28-11.98 20.947-15.72 20.947-15.72l-1.78 4.45z"/><path fill="#929497" d="M82.83 173.328c-3.69-4.17-6.22-2.295-6.22-2.295 3.135-2.513 6.22 2.295 6.22 2.295zm-4.574-4.283c-2.28-3.51-4.545-.41-4.545-.41 2.57-2.008 4.55.41 4.55.41z"/><path fill="#FFF" d="M125.77 142.936c-15.043 28.06-46.435.977-46.435.977-3.995-.68-5.9-2.62-5.9-2.62-2.035-1.585-.912-2.583-.912-2.583 4.614 2.38 3.383.732 3.383.732-5.548-5.166-2.156-5.527-2.156-5.527 3.74 2.635 4.71 4.81 4.71 4.81 2.554-9.624 4.423-3.976 4.423-3.976-4.742 2.93-1.932 6.13-1.932 6.13 28.96 23.76 42.28-4.51 42.28-4.51 7.15 1.46 2.55 6.56 2.55 6.56z"/><path fill="#D0D2D3" d="M122.468 154.766l5.027-2.525 1.81-12.18-6.183-3.47c.227 13.77-5.73 8.04-5.73 8.04l5.076 10.14zM94.64 90.316c-12.604-4.29-5.814 8.06-5.814 8.06s18.417-3.77 5.814-8.06z"/><path fill="#919496" d="M89.505 97.036C85.16 88.87 91.2 94.97 91.2 94.97s2.648 10.232-1.695 2.066zm61.957 3.367l-3.537-7.738c14.413-5.792 3.537 7.738 3.537 7.738z"/><path fill="#FFF" d="M133.24 169.518l-.562 5.037c-37.474-14.924-9.584-7.776.563-5.037zm38.775-12.284s1.557 8.848-2.533 15.455c-12.053 11.96-24.426 3.18-28.965-.9 9.577 2.9 32.682 7.32 26.54-20.01-1.022-9.93-6.088-20.77-6.088-20.77-7.29-14.8-7.66-9.2-7.25-4.67 0 2.37 1.18 7.7 4.87 18.51 0 0-.01.13-.05.35-2.22 2.08-5.45 2.08-7.58 1.79l-.11-.09s-7.93-33.15 4.39-28.26c0 0 13.22 8.22 16.74 38.58z"/><path fill="#CCC" d="M136.54 170.424s-1.313-.367-3.3-.906l.208-1.86 5.262 2.362s.65.732 1.81 1.77c-2.42-.73-3.98-1.366-3.98-1.366zm32.943 2.264c-4.096 6.62-13.858 10.996-36.53 1.98-.095-.04-.18-.07-.274-.11l.56-5.037c1.98.54 3.3.91 3.3.91s1.55.64 3.98 1.37c4.53 4.08 16.91 12.86 28.96.9zm-2.425-20.905c-1.412-6.29-4.373-14.26-9.406-24.318 0 0-3.93-5.437-3.932-1.118-.404-4.532-.033-10.125 7.25 4.667 0 0 5.064 10.838 6.088 20.77zm-8.505-6.573c-.224 1.49-1.497 7.015-7.573 1.788 2.123.297 5.36.29 7.573-1.79z"/><path fill="#D0D2D3" d="M115.74 86.755c-16.085 0-29.12 9.89-29.12 22.09s13.035 22.094 29.12 22.094c16.084 0 29.12-9.9 29.12-22.1-.002-12.2-13.037-22.09-29.12-22.09zm41.94 4.79c2.796 5.723-5.987 13.24-5.987 13.24-2.195-1.53-1.133-3.26-1.133-3.26 9.516-11.443-3.525-7.184-3.525-7.184-2.66-.4-2.328-3.26-2.328-3.26 10.845-5.78 12.976.47 12.974.47z"/><ellipse fill="#FFF" cx="100.868" cy="103.885" rx="11.383" ry="11.221"/><ellipse fill="#FFF" cx="127.337" cy="104.138" rx="14.051" ry="13.96"/><path fill="#1D8FCD" d="M110.4 118.098c.11-1.64 2.094-2.992 2.094-2.992 0-4.92-2.094-1.857-2.094-1.857-.935-2.72-3.467 2.43-3.467 2.43 1.414 1.59 3.467 2.41 3.467 2.41z"/><path fill="#FFF" d="M111.507 115.45c-.98.694-1.107 1.388-1.107 1.388.746-2.72 1.107-1.39 1.107-1.39z"/><path fill="#6C6F71" d="M111.647 127.71c-5.8 3.042-2.45-2.387-2.45-2.387-1.563 4.472 2.127 1.646 2.127 1.646 1.48-1.18 3.638-1.39 3.638-1.39-2.442 1.04-3.06 1.71-3.06 1.71 2.316-.19 3.06 2.06 3.06 2.06-1.53-1.31-3.314-1.65-3.315-1.66z"/><path fill="#BE1E2D" d="M116.97 122.52c-3.214.238-4.478 2.022-4.478 2.022-4.74 5.91-1.588-3.212-1.588-3.212 3.052 2.085 6.066 1.19 6.067 1.19z"/><path fill="#6C6F71" d="M110.4 120.838c-3.445 3.763-3.467-1.33-3.467-1.33-.79 6.914 3.973 1.822 3.973 1.822 6.844 5.126 8.44-1.486 8.44-1.486h1.27l-1.718-1.437c-.62 6.426-7.043 2.923-7.043 2.923-1.638-1.823-1.21-4.146-1.21-4.146-1.518-.583-.245 3.653-.245 3.654z"/><path fill="#D0D2D3" d="M119.734 148.576l-4.773 1.778-.02 3.564 1.48-.666m41.2-22.586c6.91 39.426-26.63 24.645-26.63 24.645l2.94-4.95c20.27.82 14.01-18.43 14.01-18.43"/><path fill="#D0D2D3" d="M119.735 150.178h-2.037s-2.035 2.51-1.06 1.998c.98-.508 3.208-.61 3.208-.61l-.11-1.388z"/><path fill="#FFF" d="M157.61 130.666c4.854 42.664-38.673 20.463-38.673 20.463-4.748 1.97-5.096-.77-5.096-.77-3.51 1.04-6.09 0-6.09 0-2.94-.87-1.62-2.2-1.62-2.2 6.16.61 7.05-.48 7.05-.48-8.4-3.3-4.81-5.19-4.81-5.19 5.3 1.28 7.33 3.26 7.33 3.26-1.38-11.78 3.3-7.81 3.3-7.81.47.61-.14 1.47-.14 1.47-3.96 5.32.55 7.64.55 7.64 42.47 13.64 28.52-15.14 28.52-15.14 8.56-1.51 9.69-1.26 9.69-1.26z"/><path fill="#BBBDBF" d="M74.183 136.48c-1.163-.613-.072 1.11-.072 1.11l.08-1.11zm-.126 4.465c-1.165-.61-.01.854-.01.854l.01-.86z"/><path fill="#FFF" d="M131.19 170.848c-24.7-1.42-27.94 13.17-27.94 13.17-1.39 5.797-6.035-2.578-6.035-2.578L87.14 166.494c-4.886-1.11-1.733-4.537-1.733-4.537-5.133-1.754-1.787-4.03-1.787-4.03-3.092-.306-1.604-4.2-1.604-4.2 8.21-4.47 18.644 24.8 18.644 24.8 8.95-17.466 30.546-12.843 30.546-12.843s1.88 5.27-.016 5.164z"/><path fill="#D0D2D3" d="M90.538 167.277c.047-6.365-4.268-5.656-4.268-5.656 5.426-1.69 4.266 5.66 4.268 5.66zM88.07 159.2c.35-2.565-3.303-1.51-3.303-1.51 3.13-.247 3.302 1.507 3.302 1.51z"/><path fill="#FFA300" d="M55.733 145.21h131v76.833h-131z"/><circle fill="#0071BC" cx="129.694" cy="103.787" r="10.385"/><path fill="#0F4481" d="M136.467 106.943c2.228-1.926 2.472-5.295.544-7.522-1.93-2.22-5.29-2.46-7.52-.54-2.22 1.93-2.47 5.3-.54 7.53 1.93 2.23 5.3 2.48 7.52.55z"/><path fill="#FFF" d="M136.05 105.056c1.184-1.025 1.312-2.815.29-4-1.024-1.184-2.817-1.31-4-.287-1.183 1.02-1.312 2.81-.286 3.99 1.023 1.18 2.81 1.31 3.995.29z"/><circle fill="#FFF" cx="127.737" cy="102.178" r="1.38"/><circle fill="#0071BC" cx="101.866" cy="104.433" r="8.74"/><path fill="#0F4481" d="M107.566 107.09c1.876-1.623 2.08-4.458.458-6.332-1.624-1.875-4.457-2.078-6.33-.457-1.876 1.63-2.08 4.46-.458 6.34s4.457 2.08 6.33.46z"/><path fill="#FFF" d="M107.214 105.5c.996-.863 1.105-2.37.244-3.367-.862-.996-2.37-1.102-3.365-.24-.996.86-1.105 2.366-.242 3.363.87.996 2.37 1.105 3.37.244z"/><circle fill="#FFF" cx="100.22" cy="103.077" r="1.162"/><path fill="#FFBD39" d="M161.455 92.78s-48.348-4.918-79.8 4.797l-.95-4.915s4.456.38 7.23-18.37c0 0-.106-1.25 2.707-4.25 0 0 29.624-18 62.97 0 0 0 1.505.75 2.8 3.5 0 0 3.793 16.237 8.043 15.87v3.367h-3z"/><path fill="#FFE576" d="M103.268 56.293s1.018 23.206-2.4 30.462c0 0-7.35.365-12.935 2.657 0 0 3.354-25.285 6.354-32.62l8.98-.5z"/><path fill="#FFA944" d="M103.268 56.293s23.82-1.412 39.502 9.044c0 0-18.82-4.206-36.943 0v21.418s30.074-4.274 52.725.757c0 0-33.392-3.48-70.62 1.9 0 0 7.975-3.33 12.935-2.994 0 0 2.543-12.958 2.4-30.125z"/><path fill="#FF8500" d="M77.41 127.89c1.603-.02 2.272 1.81 2.614 3.09.997 3.71.92 7.8.85 11.608-.038 2.184.38 10.41-3.686 9.86-1.278-.173-1.838-1.452-2.156-2.558-.968-3.35-.887-7.084-.89-10.53 0-2.233-.778-11.444 3.267-11.47"/><path fill="#FF8500" d="M77.41 127.89c-4.38.028-3.29 10.866-3.252 13.17.033 2.114-.597 12.22 3.855 11.374-1.206-.348-1.664-1.78-1.938-2.86-.822-3.27-.782-6.804-.787-10.147-.002-2.256-.755-10.725 2.776-11.432-.218-.038-.435-.073-.655-.106"/><path fill="#FFB666" d="M78.217 129.87c2.394-.02 1.755 11.612 1.742 12.675-.01.533.16 8.475-1.65 7.865-.41-.135-.12-1.725-.11-1.988.15-3.03.17-6.063.13-9.096-.01-.555-.67-9.45-.13-9.457"/><path fill="#EF4900" d="M81.086 140.15c-.02-2.36.572-12.5-3.68-12.463-3.183.03-3.223 5.217-3.35 7.352-.22 3.63-.188 7.33.137 10.95.17 1.87.308 5.44 2.257 6.43 5.173 2.64 4.652-10.36 4.636-12.28m-3.466 12.13c-3.563.03-3.156-7.56-3.224-9.61-.126-3.77-.272-7.76.53-11.47.23-1.06.605-2.59 1.76-3 3.075-1.1 3.545 4.47 3.724 6.19.42 4.02.46 8.2.062 12.22-.168 1.66-.427 5.65-2.85 5.66"/><path fill="#C6C6C6" d="M77.15 101.904c2.784.002 1.815 3.083 1.832 5.06.006.69-.63 1.26-.862 1.873-.24.633-.092 1.47-.084 2.133.008 1.077.02 2.154.027 3.23l.117 13.215c.006.688-.09 1.902-1.173 1.424-.282-.13-.467-.34-.47-.65l-.017-2.04c-.027-3.16-.056-6.32-.082-9.47l-.05-5.84c-.014-1.73-.884-3-.897-4.67-.01-1.77-.84-4.26 1.66-4.28"/><path fill="#FFF" d="M77.42 110.104c.41.016.267 18.12.157 18.122-.24.003-.388-18.122-.156-18.122"/><path fill="#9A9A9A" d="M76.423 109.124c.41-.004-.476 17.832.37 19.52-.337.002.742-17.683-.37-19.52"/><path fill="#E5E5E5" d="M76.285 102.824c.167-.17.668 2.094.71 2.282.12.52 1.212 1.982 1.077 2.122-1.676 1.706-2.753-3.42-1.787-4.404"/><path fill="#9A9A9A" d="M78.576 102.35c.25.242-.304 4.558.162 4.555.052-.004.195-4.207-.162-4.555"/><path fill="#DDD" d="M78.51 102.667c-.524-.513-1.652-.417-2.104.1.158.155 2.105-.245 2.105-.1"/><path fill="#FFF" d="M73.75 133.914s2.554 1.06 3.315 2.877c0 0 .32 2.3-3.546-.82m-.25 4.32c3.13 2.88 3.3.26 3.3.26-1.4-1.92-4.05-1.83-4.05-1.83"/><path fill="#71B5FF" d="M83.54 50.48c0 .26-.055.42-.166.48-.05.038-.223.07-.52.094-.755.074-1.818.11-3.19.11-1.943 0-3.084-.036-3.424-.11-.34-.074-.51-.24-.51-.5 0-.978.046-2.447.14-4.408.092-1.96.138-3.43.138-4.407 0-.49-.136-.77-.408-.84-.42-.1-1.917-.15-4.49-.15-2.585 0-4.095.05-4.527.15-.272.06-.408.34-.408.83 0 .96.03 2.41.093 4.33.062 1.92.093 3.36.093 4.33 0 .37-.16.58-.5.65-.39.07-1.56.11-3.48.11-1.67 0-2.73-.04-3.19-.11-.36-.07-.54-.26-.54-.58 0-1.34.07-3.36.2-6.05.13-2.7.2-4.72.2-6.07 0-1.44-.06-3.59-.18-6.47s-.18-5.03-.18-6.47c0-.27.13-.41.39-.41.39 0 .97.02 1.74.05.77.03 1.35.05 1.74.05.4 0 1-.02 1.8-.06s1.36-.03 1.76-.03c.21 0 .32.11.32.33 0 .93-.06 2.31-.2 4.16s-.2 3.24-.2 4.16c0 .43.12.68.36.76.32.1 1.91.14 4.75.14 2.65 0 4.18-.05 4.6-.15.3-.08.45-.33.45-.76 0-.9-.04-2.24-.13-4.04-.08-1.8-.13-3.15-.13-4.06 0-.39.16-.58.47-.58.36 0 .91.02 1.64.05.74.03 1.29.05 1.66.05.36 0 .91-.02 1.64-.06.74-.04 1.29-.06 1.66-.06.36 0 .54.15.54.44 0 1.42-.06 3.57-.17 6.44-.12 2.87-.18 5.02-.18 6.46 0 1.35.07 3.37.2 6.06.13 2.69.19 4.71.19 6.05zm27.763.11c0 .223-.155.377-.464.464-.38.1-1.53.148-3.46.148-1.77 0-2.91-.05-3.42-.148-.42-.086-.69-.365-.8-.835-.42-1.79-.75-2.74-.99-2.86-.2-.09-1.86-.13-4.98-.13-2.11 0-3.23.05-3.36.16-.21.19-.45.86-.71 1.98-.24 1.02-.52 1.58-.86 1.67-.42.1-1.83.15-4.23.15-1.9 0-2.84-.18-2.84-.54 0-.32 1.39-4.28 4.19-11.86 3.03-8.2 4.67-12.71 4.93-13.53.14-.47.32-.71.52-.71.33 0 .85.03 1.55.09.69.06 1.22.09 1.56.09.33 0 .82-.02 1.47-.07s1.13-.07 1.46-.07c.23 0 .45.2.65.61.6 1.3 2.37 5.75 5.3 13.36 2.94 7.65 4.42 11.65 4.42 11.98zM98.147 33.687c-.26.544-.7 1.726-1.317 3.544-.668 1.93-1.002 3.07-1.002 3.4 0 .23.37.35 1.113.37.39.03 1.02.04 1.9.04.82 0 1.27-.1 1.36-.29.03-.06.04-.15.04-.26 0-.41-.28-1.53-.85-3.37-.55-1.78-.96-2.92-1.22-3.41zm36.96 1.26c0 2.995-.784 5.42-2.355 7.274-1.683 1.97-4.002 2.95-6.958 2.95-.495 0-1.24-.02-2.236-.08s-1.74-.08-2.235-.08c-.532 0-.798.23-.798.69 0 .57.056 1.42.167 2.54.11 1.13.167 1.97.167 2.53 0 .29-.13.43-.39.43-.76 0-1.89-.02-3.4-.06-1.51-.04-2.64-.06-3.4-.06-.36 0-.54-.18-.54-.54 0-1.37.02-3.43.06-6.19.04-2.75.06-4.81.06-6.19 0-3.88-.17-7.96-.5-12.24l-.02-.26c-.03-.23.16-.38.56-.43.96-.12 3.09-.18 6.38-.18 1.94 0 3.8.03 5.58.08 2.93.08 5.29 1.01 7.08 2.76 1.83 1.81 2.74 4.17 2.74 7.09zm-7.402.298c0-2.882-1.404-4.323-4.212-4.323-1.98 0-3.02.11-3.117.334-.087.16-.13 1.59-.13 4.286 0 .384.015.95.046 1.698.03.75.046 1.314.046 1.698 0 .248 1.113.37 3.34.37 2.684 0 4.027-1.354 4.027-4.063zm31.847-.297c0 2.994-.785 5.418-2.355 7.273-1.684 1.97-4.002 2.95-6.96 2.95-.493 0-1.24-.02-2.234-.08-.996-.05-1.74-.08-2.235-.08-.533 0-.8.23-.8.69 0 .57.058 1.42.17 2.54.11 1.13.165 1.97.165 2.53 0 .29-.13.43-.39.43-.755 0-1.886-.02-3.395-.06-1.51-.04-2.64-.06-3.395-.06-.36 0-.54-.18-.54-.54 0-1.37.022-3.43.066-6.19.04-2.75.06-4.81.06-6.19 0-3.88-.17-7.96-.5-12.24l-.02-.26c-.03-.23.16-.38.55-.43.96-.12 3.09-.18 6.38-.18 1.94 0 3.8.03 5.58.08 2.93.08 5.29 1.01 7.09 2.76 1.83 1.81 2.74 4.17 2.74 7.09zm-7.403.297c0-2.882-1.41-4.323-4.22-4.323-1.98 0-3.02.11-3.12.334-.09.16-.13 1.59-.13 4.286 0 .384.01.95.04 1.698.03.75.04 1.314.04 1.698 0 .248 1.11.37 3.34.37 2.68 0 4.02-1.354 4.02-4.063zm31.1-3.488c0 .532-.1.996-.3 1.392-1.62 3.2-3.83 6.57-6.63 10.11-.4.52-.6.99-.6 1.41 0 .65.03 1.64.11 2.95.07 1.31.11 2.29.11 2.93 0 .22-.05.36-.15.41-.03.01-.19.04-.5.09-.45.07-1.56.11-3.34.11-1.8 0-2.94-.04-3.44-.11-.35-.05-.52-.23-.52-.54 0-.66.05-1.66.16-3 .11-1.35.16-2.35.16-3.02 0-.4-.15-.82-.45-1.28-1.5-2.12-3.64-5.36-6.42-9.73-.29-.48-.43-.88-.43-1.19 0-.74-.04-1.86-.11-3.34s-.11-2.6-.11-3.34c0-.41.12-.61.37-.61.75 0 1.9.03 3.43.09 1.53.06 2.68.09 3.45.09.28 0 .43.09.43.27 0 .63-.03 1.58-.09 2.85s-.09 2.22-.09 2.85c0 .37.55 1.3 1.63 2.78.86 1.16 1.57 2.06 2.13 2.69.5-.6 1.18-1.49 2.02-2.67 1.06-1.49 1.6-2.38 1.6-2.69 0-.62-.05-1.56-.14-2.81-.1-1.26-.14-2.19-.14-2.81 0-.26.05-.41.16-.45h.47c.74 0 1.86-.04 3.35-.11s2.61-.1 3.36-.1c.24 0 .37.27.37.8 0 .66.01 1.64.03 2.96.03 1.32.04 2.31.04 2.98z"/><path fill="#FFF" d="M77.027 175.754c-1.064 0-2.45-.025-4.156-.074l-4.15-.092-5.55-.074c-.55.012-1.35-.014-2.39-.074-.36-.063-.54-.254-.54-.576 0-1.348.02-3.367.07-6.057.05-2.69.07-4.71.07-6.06 0-1.435-.04-3.583-.13-6.446-.08-2.86-.13-5.01-.13-6.44 0-.27.19-.41.56-.41s.93.02 1.66.06c.74.04 1.29.06 1.65.06.41 0 1.01-.02 1.82-.06.81-.04 1.41-.06 1.82-.06.19 0 .27.12.26.36l-.02.24c-.14 2.33-.31 5.82-.5 10.48l-.02 4.9c0 1.59.01 2.74.02 3.47.01.15.03.3.04.45.02.15.11.24.28.28h.49c1.11 0 2.78-.06 5-.17 2.22-.12 3.89-.18 5-.18.34 0 .5.15.5.43 0 2.12-.15 3.94-.46 5.48-.07.32-.2.52-.39.58-.06.03-.32.04-.76.04zm28.58-.78c0 .224-.156.38-.465.466-.37.098-1.52.148-3.45.148-1.77 0-2.908-.05-3.415-.148-.42-.086-.687-.365-.798-.836-.43-1.78-.75-2.732-.99-2.857-.2-.086-1.86-.13-4.98-.13-2.11 0-3.23.056-3.36.167-.21.2-.45.86-.71 1.986-.24 1.027-.52 1.584-.86 1.67-.42.098-1.83.148-4.23.148-1.9 0-2.84-.18-2.84-.54 0-.32 1.39-4.272 4.19-11.854 3.03-8.2 4.67-12.71 4.93-13.527.15-.47.32-.705.52-.705.33 0 .85.03 1.55.094.7.063 1.22.092 1.56.092.33 0 .82-.02 1.47-.064s1.13-.064 1.46-.064c.23 0 .45.203.65.61.6 1.3 2.37 5.753 5.3 13.36 2.94 7.656 4.41 11.65 4.41 11.985zm-13.157-16.9c-.26.544-.698 1.724-1.316 3.542-.668 1.93-1.002 3.063-1.002 3.396 0 .225.37.348 1.113.373.383.025 1.014.037 1.893.037.816 0 1.268-.1 1.354-.298.024-.063.037-.148.037-.26 0-.408-.29-1.533-.86-3.377-.56-1.78-.97-2.92-1.23-3.413zm36.84 9.35c0 2.276-.71 4.163-2.133 5.66-1.62 1.72-4.467 2.58-8.536 2.58-.31 0-.75-.01-1.33-.02h-1.31c-4.56 0-7.28-.093-8.14-.278-.36-.074-.54-.266-.54-.576 0-1.324.08-3.328.23-6.014.16-2.684.24-4.693.24-6.03 0-1.435-.07-4.13-.22-8.09-.04-1.013-.1-2.534-.2-4.563l-.01-.26c-.01-.234.18-.377.59-.428.41-.05 1.84-.074 4.3-.074 3.95 0 6.26.02 6.92.04 3.05.11 5.29.61 6.74 1.49 1.92 1.18 2.88 3.17 2.88 5.96 0 .73-.22 1.51-.67 2.32-.32.58-.74 1.17-1.26 1.75-.46.51-.69.74-.69.71 0 .09.16.23.48.41.87.5 1.55 1.28 2.04 2.36.45.97.68 2 .68 3.08zm-7.978-10.446c0-1.063-.532-1.768-1.595-2.115-.594-.186-1.57-.277-2.932-.277-1.336 0-2.004.1-2.004.297 0 .234-.02.59-.06 1.066-.04.47-.06.83-.06 1.06 0 1.24.11 1.93.32 2.08.14.11.92.17 2.36.17 2.66 0 3.99-.76 3.99-2.29zm.556 10.373c0-1.11-.463-1.86-1.39-2.26-.595-.25-1.56-.37-2.896-.37-1.596 0-2.462.06-2.598.18-.136.12-.204.88-.204 2.28 0 1.46.08 2.27.24 2.42.162.16 1.052.23 2.673.23 1.336 0 2.276-.1 2.82-.31.904-.36 1.355-1.07 1.355-2.15zm60.274 7.91c0 .09-.124.15-.37.19-.472.08-1.652.11-3.545.11-1.62 0-2.722-.03-3.303-.11-.272-.03-.427-.06-.464-.09-.074-.03-.16-.16-.26-.37-.186-.48-.458-1.2-.816-2.15-.482-1.23-1.237-3.06-2.264-5.47-.223-.48-.736-.74-1.54-.8.37.03-.267.04-1.91.04-.187 0-.28.32-.28.95 0 .84.078 2.1.232 3.77s.232 2.93.232 3.77c0 .21-.056.33-.167.37-.173.01-.347.02-.52.04-.73.05-1.868.07-3.414.07-1.77 0-2.833-.03-3.19-.11s-.54-.26-.54-.57c0-1.36.065-3.41.196-6.16.12-2.74.19-4.8.19-6.17 0-5.23-.12-9.32-.36-12.25l-.02-.26c-.02-.21.18-.35.58-.43.4-.07 2.29-.15 5.67-.22 2.29-.05 4.11-.08 5.47-.08 2.82 0 5.12.64 6.9 1.91 2.01 1.44 3.02 3.51 3.02 6.22 0 1.81-.26 3.25-.78 4.33s-1.48 2.12-2.88 3.14c-.29.2-.43.38-.43.56 0-.01.75 1.54 2.26 4.66 1.51 3.12 2.27 4.84 2.27 5.16zm-7.793-16.64c0-1.51-.5-2.55-1.49-3.13-.77-.44-1.97-.67-3.6-.67-1.18 0-1.8.18-1.88.54-.08.43-.11 1.64-.11 3.64 0 .29 0 .71.02 1.26.01.56.01.98.01 1.25 0 .07.2.13.59.19.75.11 1.54.17 2.37.17 2.7 0 4.06-1.07 4.06-3.23z"/><path fill="#06C" d="M97.52 197.053c0 5.36-1.723 10.008-5.168 13.945-3.044 3.518-7.32 5.37-12.824 5.55-1.058.036-3.965.056-8.723.056-.894 0-2.238-.027-4.033-.082-1.796-.055-3.14-.082-4.033-.082-.53 0-.8-.21-.8-.63 0-2.005.07-5.017.23-9.036.15-4.02.23-7.03.23-9.037 0-2.096-.08-5.236-.24-9.42-.16-4.184-.23-7.314-.23-9.393 0-.383.26-.61.79-.684 1.29-.146 3.41-.22 6.37-.22 5.61 0 9.25.083 10.91.247 4.32.438 7.7 1.53 10.14 3.28 2.29 1.642 4.11 3.94 5.44 6.892 1.27 2.79 1.91 5.66 1.91 8.61zm-10.473 0c0-3.08-.92-5.596-2.762-7.547-1.86-2.023-4.32-3.035-7.383-3.035-2.808 0-4.21.38-4.21 1.13 0 1.08-.02 2.7-.056 4.86-.037 2.16-.055 3.78-.055 4.86 0 1.06.02 2.65.06 4.77.04 2.13.06 3.73.06 4.8 0 .79 1.46 1.18 4.38 1.18 3.16 0 5.64-1.05 7.44-3.14 1.7-1.98 2.55-4.6 2.55-7.84zm48.32 18.703c0 .328-.23.557-.685.684-.547.145-2.242.22-5.086.22-2.607 0-4.285-.075-5.03-.22-.622-.127-1.013-.537-1.177-1.23-.63-2.625-1.11-4.03-1.45-4.21-.3-.128-2.74-.192-7.33-.192-3.1 0-4.75.082-4.95.246-.31.29-.66 1.268-1.04 2.926-.35 1.514-.77 2.334-1.26 2.46-.62.146-2.7.22-6.24.22-2.79 0-4.19-.264-4.19-.793 0-.475 2.06-6.3 6.18-17.473 4.46-12.086 6.89-18.73 7.27-19.934.22-.693.47-1.04.76-1.04.49 0 1.25.046 2.28.138 1.03.092 1.8.137 2.31.137.49 0 1.21-.03 2.17-.096s1.67-.1 2.15-.1c.34 0 .66.3.95.9.89 1.91 3.5 8.47 7.82 19.69 4.34 11.28 6.51 17.17 6.51 17.66zm-19.388-24.91c-.39.803-1.03 2.543-1.95 5.223-.99 2.84-1.48 4.51-1.48 5 0 .33.54.51 1.64.54.56.03 1.49.05 2.79.05 1.2 0 1.87-.15 1.99-.44.03-.1.05-.22.05-.39 0-.6-.42-2.26-1.26-4.98-.82-2.63-1.43-4.31-1.81-5.03zm49.88-2.844c0 .783-.15 1.467-.44 2.05-2.39 4.722-5.65 9.69-9.77 14.903-.59.766-.88 1.46-.88 2.078 0 .967.05 2.416.16 4.348s.16 3.38.16 4.32c0 .33-.08.53-.22.61-.04.02-.28.07-.74.14-.66.11-2.3.17-4.92.17-2.64 0-4.33-.05-5.06-.16-.51-.07-.77-.33-.77-.79 0-.96.08-2.43.25-4.41s.24-3.46.24-4.44c0-.58-.22-1.21-.66-1.88-2.21-3.11-5.36-7.89-9.46-14.33-.42-.71-.63-1.29-.63-1.75 0-1.09-.06-2.73-.17-4.92s-.16-3.82-.16-4.92c0-.6.18-.9.54-.9 1.11 0 2.8.05 5.06.14s3.95.14 5.08.14c.42 0 .63.14.63.41 0 .93-.04 2.33-.12 4.2s-.13 3.27-.13 4.2c0 .55.8 1.92 2.4 4.1 1.27 1.71 2.32 3.04 3.14 3.97.74-.87 1.74-2.18 2.98-3.93 1.56-2.19 2.35-3.51 2.35-3.96 0-.91-.07-2.29-.21-4.14s-.21-3.23-.21-4.14c0-.38.08-.6.24-.65h.68c1.09 0 2.74-.05 4.93-.15s3.85-.15 4.97-.15c.37 0 .55.39.55 1.18 0 .97.02 2.42.05 4.36s.05 3.41.05 4.39zm13.2-3.31c0 3.32-.3 6.437-.9 9.353-.73 2.99-1.45 5.97-2.16 8.94-.17.675-.9 1.013-2.19 1.013-1.48 0-2.3-.29-2.46-.875-1.72-5.852-2.57-9.178-2.57-9.98 0-.748.03-1.86.1-3.336.07-1.477.11-2.588.11-3.336 0-.82-.03-2.05-.08-3.69s-.08-2.87-.08-3.69c0-.67.16-1.01.49-1.01.51 0 1.27.04 2.29.11s1.78.11 2.29.11 1.27-.03 2.3-.11c1.02-.07 1.78-.11 2.3-.11.36 0 .54 2.21.54 6.62zm0 27.1c0 1.53-.48 2.803-1.42 3.814-.95 1.012-2.19 1.518-3.72 1.518-1.55 0-2.8-.502-3.73-1.504-.94-1.003-1.41-2.28-1.41-3.83 0-1.53.47-2.788 1.42-3.772s2.18-1.477 3.72-1.477c1.51 0 2.74.5 3.7 1.48s1.43 2.24 1.43 3.78z"/><path fill="#FFF" d="M158.374 162.45c0 3.86-1.23 7.095-3.693 9.704-2.51 2.648-5.68 3.97-9.53 3.97-3.82 0-6.99-1.335-9.52-4.007-2.47-2.61-3.71-5.832-3.71-9.666 0-3.84 1.24-7.08 3.71-9.7 2.53-2.68 5.7-4.02 9.52-4.02 3.8 0 6.97 1.35 9.5 4.03 2.49 2.65 3.73 5.89 3.73 9.71zm-7.033-.036c0-1.855-.56-3.434-1.68-4.732-1.17-1.36-2.68-2.04-4.51-2.04-1.74 0-3.22.704-4.43 2.114-1.17 1.36-1.76 2.926-1.76 4.695 0 1.9.55 3.47 1.65 4.73 1.17 1.33 2.68 1.99 4.55 1.99 1.75 0 3.23-.7 4.46-2.1 1.17-1.33 1.75-2.88 1.75-4.65z"/></svg>