<svg xmlns="http://www.w3.org/2000/svg" width="250" height="250" viewBox="0 0 250 250"><path fill="#D0D2D3" d="M-242.336-37.022s-9.823-7.465 34.93-23.407h-7.152s-24.217 7.07-27.778 11.71l-2.6 7.21 2.6 4.5zm38.496-24.562l-5.473 16.535 14.763-14.6 8.368-1.93 10.485 18.46-4.385-22.15"/><path fill="#FFF" d="M-209.333-62.867s-4.622 14.448-5.905 21.19c0 0 2.89 5.616 8.988 0l6.422-11.077s-.482 5.458.803 4.174l6.58-14.287-6.9 1.283-8.306 14.93 5.25-14.288m26.91-1.925s4.62 14.448 5.9 21.19c0 0-2.89 5.616-8.99 0L-185-52.754s.48 5.458-.803 4.174l-6.58-14.287 6.9 1.283 8.307 14.93-5.258-14.288m8.62-55.598l-19.6 3.735-17.755-3.734s-22.61 57.79 18.68 61.22c41.29-3.42 18.68-61.21 18.68-61.21z"/><path fill="#D0D2D3" d="M-253.79-164.622s-4.63 5.592-10.41 5.272c0 0-6.1 5.13 2.568 9.147 0 0 8.99 4.65 9.63 0l-1.787-14.42z"/><path fill="#919496" d="M-253.79-153.56s-6.558 2.72-10.09-2.818c0 0 3.634 9.332 10.09 2.817z"/><path fill="#D0D2D3" d="M-130.35-164.622s4.633 5.592 10.41 5.272c0 0 6.103 5.13-2.567 9.147 0 0-8.99 4.65-9.633 0l1.79-14.42z"/><path fill="#919496" d="M-130.35-153.56s6.56 2.72 10.09-2.818c0 0-3.634 9.332-10.09 2.817z"/><ellipse fill="#FFF" cx="-192.509" cy="-156.781" rx="64.223" ry="48.1"/><ellipse fill="#D0D2D3" cx="-192.509" cy="-162.35" rx="57.158" ry="42.811"/><ellipse transform="rotate(69.33 -217.87 -178.32)" fill="#FFF" cx="-217.95" cy="-178.296" rx="19.398" ry="24.395"/><ellipse transform="rotate(-69.33 -167.63 -178.25)" fill="#FFF" cx="-167.617" cy="-178.32" rx="19.398" ry="24.395"/><path fill="#6C6F71" d="M-191.886-152.375c-.72-1.787-.623-5.886-.623-5.886h-.74c.66 3.79-.55 6.07-.55 6.07"/><path fill="#1D8FCD" d="M-192.774-156.867l4.375-4.126s-2.19-3.002-4.43-.07c-2.23-2.933-4.43.07-4.43.07l4.38 4.126v.104l.06-.052.06.052v-.104z"/><path fill="#FFF" d="M-193.808-158.26s-.04-2.11-1.484-1.202l1.484 1.2zm1.922 0s.04-2.11 1.484-1.202l-1.484 1.2z"/><path fill="#ACAFB1" d="M-314.86-216.58s11.07-14.38 37.31-16.587c0 0-1.997 10.786-15.918 17.238 0 0-10.457 5.73-21.393-.65z"/><path fill="#D0D2D3" d="M-203.84-109.43h22.665s8.13 27.958-.205 51.308c0 0-9.463 7.11-21.1.49 0 0-9.066-6.587-1.36-51.797z"/><path fill="#ACAFB1" d="M-217.33-85.64v-.465l13.21-8.99 3.007-3.894s-4.348-1.28.213-8.02c0 0 2.393-2.97 4.123-4.05 0 0 3.908-5.28 8.105-.2 0 0 10.473 7.89 4.414 12.29l3.172 4.06 13.46 9.01s.054 6.11-.4 7.3c-.458 1.2-15.453-9.02-15.453-9.02s-9.92.28-10.04-3.8c0 0-.08 3.95-8.39 3.75l-15.02 8.98-.39-6.9z"/><path fill="#6C6F71" d="M-218.654-209.656s-25.118-28.302-26.926-3.58c0 0-11.763 8.604 26.926 3.58z"/><path fill="#EF4B4D" d="M-162.963-219.87s.802-21.98 24.88 1.73c0 0-30.82 2.042-24.88-1.73z"/><path fill="#FFF" d="M-172.17-111.235s72.647 73.894-11.222 23.165c0 0-9.105.03-9.71-3.385 0 0-1.45-2.716.626-6.676 0 0-.68 4.92-4.502 3.31 0 0-10.595-.96-1.727 1.28l.32-11.35s8.488-9.53.788 1.39c0 0 1.56 2.25-2.588 4.49 0 0-5.164-.64 0-8.35 0 0 12.19-15.73 14.456 7.06l4.2 5.46s62.92 43.98 8.67-7.71"/><path fill="#ACAFB1" d="M-200.9-99.204l.75-1.188s.48-8.19 3.63-10.496c3.155-2.307-1.14 6.563-1.14 6.563l-1.726 4.937-.798.4-.715-.216zm15.64-.466l.83 1.086s-4.683-.684-4-4.898c0 0-5.5-9.027-8.312 2.448l1.375-2.086s1.998-1.366 4.364-.08c0 0 4.616 2.166 2.73 8.586 0 0-3.733 1.526-4.655-1.083l-.583 2.867-4.63-4.873 2.55-9.152 3.69-2.205 5.9 2.97 1.36 4.777-.2 1.363-.44.28z"/><path fill="#FFF" d="M-212.968-111.175s-72.885 73.833 10.983 23.104c0 0 7.574.02 8.177-3.39 0 0 1.3-3.79-.742-7.54 0 0 2.328 5.78 6.15 4.17 0 0 1.977-10.27-6.893-8.03l-1.967 3.53s1.777-15.09 9.477-4.18c0 0-1.56 2.24 2.59 4.49 0 0 5.162-.64 0-8.35 0 0-12.19-15.74-14.457 7.06l-4.19 5.45s-66.335 47.04-12.082-4.66m8.516 39.04s-76.302 21.16-7.152 26.3c0 0 80.866 4.67 72.28-5.05 0 0 .613-9.54 10.14 0 0 0 9.206 9.22-19.048 11.15 0 0-103.532 6.1-98.48-15.1 0 0 6.665-12 43.873-22.15l-1.613 4.84z"/><path fill="#6C6F71" d="M-206.083-153.814s3.73 30.147 12.53 31.23c0 0 9.554.373 13.887-31.23l-1.167.73-2.167 1.334s-4.688 2.628-10.552-1.06c0 0-6.448 4.932-12.53-1.004z"/><path fill="#BE1E2D" d="M-205.14-152.462s10.14 65.357 25.015-.965c0 0-5.443 5.303-12.722 1.24 0 0-7.934 4.207-12.293-1.24"/><path fill="#6C6F71" d="M-179.825-156.78l.167 1.114s-4.842 8.872-13.17 1.853c-8.33 7.02-13.172-1.853-13.172-1.853l.167-1.114-3.333 2.966 2.222-.853c4.556 7.5 14.115 3.555 14.115 3.555s9.56 3.945 14.12-3.555l2.22.853-3.33-2.966z"/><path fill="#EF4B4D" d="M-198.642-136.95s5.9-6.268 5.48 5.927c0 0 .1-10.584 6.053-6.673.01 0-5.78 24.272-11.53.746z"/><path fill="#BE1E2D" d="M-214.183-255.438s11.43 58.984 23.41.258l-.158-.258-1.79 1.53-1.61.95h-.46l-1.21.173-2.13-.173-2.88-1.985-1.3-1.87-1.01 1.123-.69.747-.78.633-.84.518-.78.49-.81.344-.87.23-1.06-.057-1.15-.374-1.27-.54-1.67-1.18-.84-1.06-.16.51z"/><path fill="#ACAFB1" d="M-201.75-128s7.125 16.375 18.125 0c0 0-9.75 21.625-18.125 0z"/><path opacity=".5" d="M165.105 92.188h14.172v-46.49h-48.142l2.942-2.867-6.736-.97-3.01-6.1-3.01 6.11-6.73.98 2.95 2.87h-44.9v44.25l9.29 9.51c-14.5 12.67-22.76 30.59-22.76 49.53 0 36.88 31.11 66.89 69.34 66.89 38.23 0 69.34-30 69.34-66.88 0-23.29-12.58-44.71-32.73-56.81z"/><path fill="#F4F4F4" d="M162.113 89.943h14.17V43.455h-48.14l2.94-2.87-6.735-.978-3.013-6.104-3.013 6.104-6.736.98 2.942 2.868h-44.9v44.25l9.29 9.508c-14.494 12.684-22.758 30.604-22.758 49.542 0 36.882 31.105 66.888 69.34 66.888 38.23 0 69.34-30.006 69.34-66.888 0-23.29-12.582-44.717-32.727-56.812z"/><ellipse fill="#105EB2" cx="125.501" cy="146.755" rx="67.095" ry="64.642"/><ellipse fill="#F66" cx="120.684" cy="144.816" rx="57.841" ry="55.728"/><path opacity=".2" fill="#FFF7BB" d="M144.364 147.717c0 .63-.08 1.266-.233 1.893l17.73 3.188-4.25 3.192-14.06-3.663c-.71 2.366-1.61 4.528-2.72 6.5l13.6 7.448V171l-15.01-10.163c-.23.476-.59.983-1.06 1.535l16.08 12.41v7.446h-7.68l-12.29-15.953c-.47.396-1.02.828-1.65 1.3l10.28 14.653h-4.73l-7.8-13.235c-2.05 1.18-4.22 2.05-6.5 2.6l4.02 14.773-3.55 3.666-2.84-17.85c-.63.16-1.3.275-2.01.355l2.25 20.33-5.32 5.203-5.44-5.203 2.13-20.33c-.63-.078-1.22-.19-1.77-.354l-2.84 17.85-3.19-2.956 4.02-15.246c-2.2-.63-4.33-1.49-6.38-2.6l-8.27 13.36h-4.5l10.29-14.89c-.47-.31-.91-.66-1.3-1.06L86.7 182.59h-7.8v-7.44l15.95-12.766c-.314-.39-.59-.783-.83-1.18L78.89 171.36v-4.73l13.59-7.8c-1.263-2.126-2.17-4.33-2.72-6.616l-14.773 4.255-3.547-3.67 17.612-3.31c-.08-.55-.16-1.15-.24-1.77l-20.09 2.48-5.79-5.21 5.44-5.44 20.445 2.13c.08-.63.16-1.23.24-1.78l-18.32-2.96 3.663-3.43 15.365 3.9c.55-2.21 1.38-4.33 2.48-6.39l-13.354-7.8v-4.49l14.77 10.17c.31-.48.63-.95.94-1.42l-15.72-12.53v-7.8h7.69L99.09 123c.396-.39.87-.746 1.422-1.062L89.99 107.17h4.727l7.92 13.354c2.048-1.102 4.215-2.006 6.5-2.717l-4.254-14.893 3.78-3.19 3.075 17.493c.55 0 1.102-.04 1.655-.118l-2.247-20.45 5.436-4.97 5.32 5.32-2.364 20.09c.63 0 1.223.04 1.773.11l3.08-17.5 3.55 3.07-4.02 15c2.21.63 4.34 1.54 6.39 2.72l7.81-13.35h4.73l-10.17 14.77c.47.31.94.67 1.42 1.06l12.53-15.84h7.45v7.8l-15.72 12.41c.47.39.83.87 1.07 1.42l14.65-10.05v4.37l-13.24 7.8c1.18 2.13 2.09 4.34 2.72 6.62l14.66-4.02 3.67 3.43-17.72 3.08c.15.63.24 1.18.24 1.65l20.22-2.13 5.32 5.2-5.08 5.32-20.44-2.35z"/><path fill="#3D7A48" d="M161.417 158.15l-1.62-1.136-.445 3.425 1.615-.96"/><path fill="#FFF" d="M102.242 150.523s19.434.646 23.53-13.115c0 0 4.788 3.033.67 8.846 0 0-10.685 11.623-33.092 7.883"/><path fill="#D0D2D3" d="M123.772 148.49l.77-8.667 2.173 5.52-1.47 3.208"/><path fill="#EF4B4D" d="M105.722 140.86c.156-3.587-.772-5.234-3.884-5.372-.64-.027-1.294-.023-1.93.03-1.608-2.595-4.123-4.5-7.228-5.343-2.83-.77-5.38-.378-7.554.92-1.355.807-2.555 1.98-3.587 3.443-1.25 1.766-2.25 3.945-2.94 6.488-.33 1.22-.55 2.363-.66 3.445-.16 1.49-.12 2.85.11 4.08.72 3.79 3.29 6.34 7.6 7.51 2.12.58 4.24.66 6.21.26l6.19.26c8.48-2.12 6.77-8.56 6.77-8.56-1.96.91-2.21 0-2.21 0 .42-.63.64-1.51.73-2.41 1.4-.83 2.25-2.44 2.35-4.72z"/><path fill="#820010" d="M97.44 150.906s1.888.527 2.62 2.605c0 0 3.827-.5 3.97-.74 1.442-2.35.81-4.76.81-4.76-1.955.92-2.205 0-2.205 0 1.33-1.95.612-6.31.612-6.31l-17.582 14.37 4.316.18c.2-.74.71-2.53 1.1-2.97.5-.55 6.36-2.35 6.36-2.35z"/><path fill="#4C000D" d="M104.03 152.766c-.145.243-3.97.748-3.97.748-.732-2.078-2.62-2.604-2.62-2.604s-5.86 1.796-6.36 2.354c-.393.44-.9 2.227-1.098 2.97l8.082.335c3.297-.83 5.05-2.31 5.967-3.81z"/><path fill="#BE1E2D" d="M105.722 140.86c-.157 3.59-2.153 5.522-5.265 5.388-3.113-.137-5.51-3.154-5.352-6.742.156-3.586 3.62-4.152 6.732-4.018 3.113.138 4.04 1.785 3.885 5.373z"/><path fill="#6D6E70" d="M98.688 90.923s1.014-.33 3.084-.112c2.07.22-.902 1-.902 1l-2.182-.88z"/><path fill="#D0D2D3" d="M91.48 102.136s-6.506-11.83 5.57-7.722c12.077 4.11-5.57 7.722-5.57 7.722z"/><path fill="#919496" d="M93.756 98.87s-5.788-5.842-1.627 1.98c4.16 7.824 1.62-1.98 1.62-1.98zm54.344-2.206l3.392 7.414c-.004 0 10.414-12.965-3.392-7.414z"/><path fill="#FFF" d="M137.54 143.176s-34.288 36.508-23.534 48.463c0 0-25.45-.57-24.427 7.02 0 0 2.54 2.27 3.68 0 0 0 .76 3.22 3.6-.19 0 0 1.7 3.41 3.98 0l21.06-4.75s1.13-.95-2.94-2.47c0 0-7.7-2.01 2.28-19.65 9.97-17.65 16.28-28.44 16.28-28.44z"/><path fill="#FFF" d="M144.775 171.436l1.775-4.518c-8.695-5.072-32.702-18.65-1.775 4.518zm34.868-46.06c-10.173-7.595-11.13 25.04-11.13 25.04.024.04.05.07.075.107 1.893.803 4.887 1.604 7.453.234.09-.19.13-.313.13-.313-.71-10.924-.47-16.146.12-18.344.76-4.293 2.5-9.374 5.54 6.127 0 0 1.98 11.29.44 20.73-1.15 26.814-21.41 16.95-29.55 11.875 3.18 4.902 12.43 16.125 26.57 8.068 5.44-5.09 6.21-13.66 6.21-13.66 4.34-28.953-5.83-39.865-5.83-39.865z"/><path fill="#CCC" d="M152.717 170.84c-.813-1.252-1.23-2.093-1.23-2.093l-4.274-3.5-.66 1.67c1.707.994 2.826 1.663 2.826 1.663s1.28.98 3.33 2.26zm0 0c-2.057-1.28-3.338-2.26-3.338-2.26s-1.12-.67-2.83-1.662l-1.78 4.518.23.17c18.71 14.006 28.83 12.4 34.27 7.306-14.14 8.053-23.39-3.17-26.57-8.072zm29.107-32.606c-3.04-15.5-4.78-10.422-5.54-6.127 1.08-3.994 3.356 2.018 3.356 2.018 2.142 10.56 2.89 18.67 2.623 24.84 1.538-9.442-.44-20.73-.44-20.73zm-13.236 12.29c4.314 6.35 6.872 1.56 7.453.233-2.56 1.372-5.56.57-7.45-.234z"/><path fill="#FFF" d="M154.706 107.902c-2.202-13.003-15.914-23.02-32.51-23.02-18.13 0-32.83 11.95-32.83 26.695 0 14.743 14.7 26.696 32.83 26.696.68 0 1.354-.022 2.022-.058.73 3.17 1.334 8.083-.86 11.06 0 0-15.06 11.263-7.377 21.957 0-.076-1.97-18.744 12.4-22.066l-2.6-11.758s5.43-1.277 11.77-4.078v14.73s-15.16 17.7-6.57 29.687c15.02-.458 45.23-8.493 23.74-69.845z"/><path fill="#D0D2D3" d="M137.54 148.06v-14.73c-6.342 2.8-11.77 4.078-11.77 4.078l2.606 11.758c-14.367 3.322-12.4 21.99-12.393 22.066 1.5 2.088 2.252 2.797 5.767 4.754 0 0 4.738 1.895 9.214 1.76-8.583-11.986 6.577-29.687 6.577-29.687z"/><ellipse fill="#D0D2D3" cx="117.265" cy="112.165" rx="27.897" ry="21.165"/><path fill="#6C6F71" d="M111.238 124.438s.46-3.097.127-5.438h1.04v6.203l-1.167-.765z"/><path fill="#D0D2D3" d="M145.018 95.145s-.317 2.74 2.23 3.124c0 0 12.492-4.08 3.377 6.88 0 0-1.02 1.66 1.084 3.12 0 0 8.41-7.21 5.73-12.69 0 0-2.04-6-12.43-.45z"/><ellipse fill="#FFF" cx="103.017" cy="107.413" rx="10.906" ry="10.749"/><ellipse fill="#FFF" cx="128.377" cy="107.654" rx="13.461" ry="13.373"/><path fill="#1D8FCD" d="M108.828 118.714s2.426-4.937 3.32-2.33c0 0 2.006-2.936 2.006 1.778 0 0-1.9 1.296-2.005 2.865-.01 0-1.97-.79-3.33-2.313z"/><path fill="#FFF" d="M112.148 119.822s.123-.667 1.06-1.332c0 0-.345-1.274-1.06 1.332zm26.762 47.538s-11.52 17.75 1.056 31.728c0 0-29.763-.665-28.564 8.21 0 0 2.98 2.663 4.307 0 0 0 .89 3.77 4.21-.222 0 0 1.99 3.992 4.65 0l24.63-5.55s1.32-1.107-3.44-2.884c0 0-13.91-8.875-2.24-29.51 11.66-20.63-4.63-1.773-4.63-1.773z"/><circle fill="#0071BC" cx="104.839" cy="107.654" r="8.599"/><path fill="#0F4481" d="M101.04 111.018c-2.102-2.427-1.837-6.094.59-8.193 2.423-2.1 6.092-1.836 8.192.592 2.1 2.425 1.834 6.094-.592 8.193-2.423 2.098-6.093 1.834-8.19-.592z"/><path fill="#FFF" d="M103.388 109.236c-1.116-1.29-.975-3.237.314-4.352 1.288-1.115 3.24-.978 4.355.31 1.114 1.292.972 3.243-.317 4.358-1.288 1.115-3.235.973-4.352-.316z"/><circle fill="#FFF" cx="100.192" cy="109.779" r="1.503"/><circle fill="#0071BC" cx="131.291" cy="107.953" r="9.645"/><path fill="#0F4481" d="M127.027 111.727c-2.356-2.724-2.062-6.836.662-9.19 2.72-2.355 6.83-2.06 9.18.664 2.35 2.72 2.06 6.84-.67 9.19-2.72 2.36-6.83 2.06-9.19-.66z"/><path fill="#FFF" d="M129.336 107.55c-1.252-1.448-1.094-3.633.354-4.883 1.443-1.25 3.636-1.097 4.888.35 1.25 1.447 1.09 3.636-.354 4.887-1.447 1.25-3.635 1.09-4.888-.355z"/><circle fill="#FFF" cx="126.02" cy="110.304" r="1.687"/><path fill="#CCC" d="M96.956 198.09s.724-2.933 5.99-2.107c0 0-5.214-1.663-5.99 2.107z"/><path fill="#D0D2D3" d="M93.353 198.09s-.224-3.67 3.604-2.474c0 0-2.94-.576-3.604 2.474z"/><path fill="#FFA71A" d="M87.638 102.92V86.793H71.875"/><path opacity=".5" d="M71.875 86.792l.885.906h101.28V83.05l-98.144-4.21"/><path fill="#FFE05F" d="M71.875 45.7H174.04v41.09H71.874z"/><path fill="#D0D2D3" d="M119.922 206.188s.837-4.104 6.52-1.886c0 0-6.187-3.55-6.52 1.886z"/><path fill="#FFE89F" d="M112.332 177.747l-1.22 3.987.254.368.934-2.177-.578 2.41.61.25.773-1.933-.356 2.338.79.468.65-2.376-.24 2.376h.75V181.4l.42 2.058.75.188.32-2.152.06 2.7.86-.22.29-2.24v1.677l.55.05.39-2.37.27 2.66.65-.32-.24-2.33.56 2.33.44-.09-.23-2.52-1.05-1.33-4.36-2.17m18.14 4.91l-1.22 3.99.25.37.93-2.18-.58 2.41.61.25.77-1.93-.36 2.34.8.47.65-2.37-.23 2.37h.75v-2.05l.42 2.06.75.19.32-2.15.06 2.71.85-.22.3-2.23v1.68l.55.05.39-2.37.27 2.66.65-.33-.24-2.32.56 2.33.44-.09-.23-2.53-1.06-1.33-4.36-2.17"/><path fill="#FFE89F" d="M134.557 181.318l-1.22 3.99.253.368.933-2.18-.578 2.413.612.24.773-1.93-.355 2.33.795.46.653-2.38-.234 2.38h.74v-2.06l.42 2.05.75.19.32-2.15.06 2.7.86-.23.29-2.24v1.67l.55.04.39-2.38.27 2.66.65-.33-.24-2.33.56 2.33.44-.09-.23-2.53-1.05-1.34-4.36-2.17"/><path fill="#D0D2D3" d="M115.888 206.188s.305-3.625 2.48-2.438c0 0-1.63-.445-2.48 2.438z"/><path fill="none" d="M119.833 151.014c.342-.32.55-.488.55-.488.917-.478 1.604-1.188 2.117-2.032-1.28.277-2.32 1.244-2.667 2.52z"/><path fill="#ACAFB1" d="M92.573 104.315l21.35 2.675s0-10.06-10.905-10.327c0 0-7.515-.627-10.445 7.652zm22.343 2.675s16.69-1.076 25.578-5.163c0 0-3.866-9.854-14.725-7.294 0 0-11 2.258-10.86 12.457z"/><path fill="#FFF" d="M155.818 127.743s-12.24 14.79.953 15.61l.96 2.897c0 .004-17.61-2.934-1.91-18.507zm1.356 22.007s.828 11.374-6.697 19.165l3.04-.485s6.374-6.98 5.544-17.52l-1.88-1.16z"/><path fill="#6C6F71" d="M105.722 124.89s7.62-1.123 15.445 0c0 0-13.983.624-15.737 1.124l.292-1.124z"/><path fill="#ACAFB1" d="M110.036 127.135l7.23-1.12-7.23 2.493"/><path fill="#B3E0FF" d="M142.087 176.936s11.894-5.184 16.25-12.54l-44.79-.73s-1.046 4.214 1.37 7.77c0 0-2.16 5.04-2.584 6.313 0 0-.942 4.44 7.5 3.04l.23-5.05s6.53 3.46 13.64 2.8l-1.686 5.23s7.698 3.93 10.068 1.12l.002-7.98z"/><path fill="#EF4B4D" d="M101.244 146.813c2.177-8.026-1.838-14.813-8.563-16.636-2.83-.768-5.38-.377-7.55.92.67 5.847 2.09 10.585 2.09 10.585 0 .002 0 .004-.01.004 5.19 1.666 10.92 4.756 13.66 6.315.14-.38.27-.77.38-1.18z"/><path fill="#386EF4" d="M85.666 156.057c6.38 1.73 12.708-.922 15.2-8.055-2.74-1.56-8.47-4.648-13.66-6.314-3.225 1.81-6.566 4.54-9.144 6.863.726 3.79 3.294 6.34 7.604 7.51z"/><path fill="#FFF" d="M85.126 131.096c-1.355.807-2.555 1.984-3.587 3.446l.37 1.26-1.81 1.935v1.158l2.42-1.158.69.498-.7.66-2.37.463-.38.813 1.68 1.88v.83l-1.13-.2-.88-2.21-.56.84v2.37l-.98.82c-.16 1.48-.12 2.85.11 4.07 2.58-2.33 5.92-5.06 9.15-6.86 0 0-1.42-4.74-2.09-10.58z"/><path fill="#FFE000" d="M84.552 140.215l.726-.88v1.097l.825.716h-.74l-.3 1.243-.646-.99-.905.32.426-.85-.426-.88m-4.592 1.31l.563-.84.873 2.22 1.123.21v-.82l-1.69-1.87.37-.81 2.36-.46.69-.65-.7-.5-2.43 1.16v-1.16l1.81-1.93-.38-1.26c-1.25 1.77-2.25 3.95-2.94 6.49-.33 1.22-.54 2.36-.66 3.44l.97-.81v-2.37z"/><path fill="#4C000D" d="M99.436 154.322l2.806-5.77-2.806 6.706m1.684-1.12s3.17-3.284 1.897-5.01c0 0 .512 2.753-1.898 5.01z"/><path opacity=".3" fill="#FFF" d="M83.224 134.244s9.462-8.705 16.968 5.268c0 0-8.813-6.7-15.385-3.615 0 0-2.866 1.094-1.583-1.653z"/><path fill="#D0D2D3" d="M142.087 147.23s21.077 10.92 6.013-10.64v-3.97s17.2 28.27-5.95 15.36l-.063-.75z"/><path fill="#D0D2D3" d="M141.332 155.668s24.434 12.902 16.396-20.13l-2.475-1.294s13.704 32.854-20.095 18.738"/><path fill="#FFF" d="M139.977 139.605c-.104-.297-.203-.604-.313-.892-.263-.657-.54-1.292-.84-1.897-.35-.705-.722-1.38-1.115-2.012-.2-.316-.41-.625-.61-.925-.67-.92-1.32-1.68-1.94-2.33-.69-.73-1.36-1.31-1.98-1.77-2.79-2.05-4.87-1.74-5.77-1.74v.01c-1.28-.06-2.62.08-4.02.46-4.04 1.09-7.28 3.64-9.23 7.11-2.84.54-3.71 2.57-3.54 6.46.09 2.16.73 3.82 1.81 4.95.11.63.25 1.27.42 1.91.13.5.29.98.46 1.46 3.06 8.77 10.83 12.02 18.67 9.89 1.01-.27 1.94-.61 2.79-1 5.33.63 7.97-4.29 7.97-4.29 4.37-7.12.73-12.38-2.81-15.42z"/><path fill="#E0E0E0" d="M130.373 128.59s6.934.03 10.602 13.094c0 0-10.47-7.002-10.602-7.892s0-5.2 0-5.2z"/><path fill="#3DC979" d="M138.002 165.547s7.395 2.28 21.39-1.424l2.025-5.973c-5.114 3.576-23.33 2.797-23.33 2.797-12.602-8.717-23.437-3.227-23.437-3.227l-1.306.43c-1.308 2.98-1.055 5.813-.837 7.078 1.807 1.63 10.512 8.264 25.495.32z"/><path fill="#3D7A48" d="M138.088 166.918c8.1.996 21.047-2.033 21.047-2.033l.258-.762c-13.996 3.703-21.39 1.424-21.39 1.424-14.984 7.945-23.69 1.313-25.495-.318.076.43.147.69.147.69 10.352 9.6 25.433.99 25.433.99z"/><ellipse transform="rotate(91.89 124.55 163.2)" fill="#EA8947" cx="124.489" cy="163.152" rx="5.382" ry="10.907"/><ellipse transform="rotate(91.89 124.05 162.47)" fill="#F2BF64" cx="123.995" cy="162.418" rx="5.382" ry="10.908"/><path opacity=".5" fill="#FFF" d="M115.142 163.863s-4.123-4.553 7.358-6.143c11.48-1.592-12.154 1.596-4.64 7.16 0 .005-1.168.602-2.718-1.017z"/><path fill="#EA8947" d="M126.81 162.803c.04-.78-.16-1.574-.62-2.265.233-.25.348-.492.336-.728-.01-.277-.19-.437-.2-.443l-.003-.004-.006-.002c-.1-.06-.215-.09-.35-.09-.172 0-.342.06-.47.11-.555-.52-1.354-.82-2.202-.82-.863 0-1.673.31-2.23.85-.084-.03-.205-.06-.32-.06-.157 0-.234.07-.272.13-.086.14-.063.36.074.68-.114.27-.173.54-.173.82 0 1.33 1.312 2.41 2.922 2.41.175 0 .35-.01.52-.04l.054.1c-.368.22-.594.61-.594 1.04 0 .63.476 1.14 1.083 1.2-.25.1-.51.17-.78.22-.16.02-.33.04-.5.04-.17 0-.33-.01-.5-.03h.01-.02l-.02-.01h-.04l-.07-.01-.07-.01-.06-.01-.11-.02-.12-.03c-.16-.05-.31-.1-.45-.17-.29-.13-.55-.3-.77-.5-.11-.1-.22-.2-.31-.31-.1-.11-.18-.22-.25-.33-.15-.23-.26-.45-.34-.67-.08-.22-.12-.42-.15-.6s-.03-.34-.03-.47v-.09c0-.03 0-.06.01-.09l.01-.12.01-.1v-.03c.02-.26-.18-.48-.44-.49-.26-.01-.49.19-.5.45v.01s0 .05-.01.14c-.01.04-.01.1-.01.16v.22c.01.17.03.38.08.61.05.23.12.49.24.76s.27.54.47.81c.1.13.21.27.33.39.13.13.26.24.41.36.29.23.61.41.97.56.18.07.36.12.55.17.18.05.38.07.57.09.19.01.39.02.58 0 .19-.01.39-.03.57-.08.38-.08.73-.21 1.05-.39.16-.08.31-.18.45-.28.14-.1.27-.21.39-.33.24-.23.44-.47.6-.72.16-.24.27-.48.36-.71.09-.22.14-.42.18-.59.01-.04.02-.08.02-.11 0-.04.01-.07.02-.1.01-.07.02-.12.02-.17l.01-.14c0-.02 0-.04-.01-.06m-4.8-2.65c-.4 0-.73.33-.73.73 0 .41.33.73.73.73.25 0 .47-.12.6-.31-.17.36-.54.6-.96.6-.59 0-1.06-.47-1.06-1.05 0-.58.47-1.04 1.06-1.04.47 0 .87.31 1.01.73-.13-.23-.37-.39-.65-.39m.52.55c0 .13-.1.24-.24.24s-.24-.11-.24-.24.11-.24.24-.24.23.11.23.24m2.05-.67c-.48 0-.88.4-.88.88s.39.88.88.88c.32 0 .6-.17.75-.42-.19.48-.67.83-1.22.83-.72 0-1.31-.58-1.31-1.3s.59-1.3 1.31-1.3c.6 0 1.1.39 1.26.94-.14-.29-.44-.5-.78-.5m.64.66c0 .16-.12.29-.28.29s-.28-.13-.28-.28.13-.28.28-.28.28.13.28.28"/><path fill="#4C000D" d="M135.43 136.596s14.56 6.69 7.354 18.438c0 0-3.34 6.227-10.1 3.773"/><path fill="#BE1E2D" d="M110.645 142.1c.193 4.407 2.646 6.785 6.47 6.617 3.824-.167 6.77-3.876 6.576-8.283-.19-4.406-4.44-5.104-8.27-4.936-3.82.166-4.96 2.193-4.77 6.602z"/><path fill="#EF4B4D" d="M112.88 148.962c-2.675-9.868 2.258-18.204 10.522-20.442 3.478-.94 6.612-.463 9.284 1.13-.818 7.187-2.564 13.01-2.564 13.01l.01.006c-6.376 2.047-13.417 5.84-16.784 7.76-.17-.478-.33-.958-.468-1.464z"/><path fill="#386EF4" d="M132.02 160.318c-7.84 2.125-15.615-1.133-18.68-9.896 3.37-1.92 10.41-5.713 16.785-7.76 3.963 2.218 8.067 5.576 11.236 8.436-.88 4.654-4.04 7.786-9.34 9.22z"/><path opacity=".3" fill="#FFF" d="M123.7 133.27s-.304-10.453-9.527 6.718c0 0 .896-9.75 8.972-5.957l.555-.76z"/><path fill="#FFF" d="M137.554 145.716l1.536 2.316-.263 1.666-1.073-.657-1.13-3.02c-.256.05-.52.08-.79.08-.332 0-.652-.04-.963-.12l-.76 2.1-1.73 1.27v-1.92l1.23-1.98c-.5-.33-.93-.77-1.25-1.28l-2.26 1.17-1.87-.7.38-.37 1.22-1.4 1.99-.19c-.03-.21-.05-.43-.05-.64 0-.52.11-1.02.28-1.48l-2.43-1.09-.44-1.73h2.02l1.5 1.71c.39-.47.89-.86 1.45-1.12l-1.07-2.18.33-1.21.89.65.57 2.49c.33-.08.67-.13 1.02-.13.43 0 .83.07 1.22.19l-.09-2.57.74-.7c-.2-.31-.4-.62-.61-.92-.67-.91-1.31-1.68-1.93-2.33h-.9l-.48 1.99-1.03-1.59-1.45.51.69-1.36-.68-1.42 1.67.38.22-.27c-2.78-2.04-4.87-1.73-5.76-1.73-.82 7.19-9.56 19.92-9.56 19.92 4.12.01 16.4 6.89 19.57 9.75.82-.63 1.47-1.33 2-2.06l-.44-.67-1.45.5.69-1.36-.68-1.41 1.67.38 1.17-1.41v1.76l.23.2c1.35-3.11 1.03-6.31.9-7.55-.04-.43-.1-.86-.17-1.3l-1.85-.93c-.41.8-1.09 1.45-1.92 1.84z"/><path fill="#FFE000" d="M123.174 144.588l1.164-1.412v1.758l1.323 1.152h-1.18l-.48 1.994-1.03-1.59-1.45.5.68-1.37-.68-1.415"/><path fill="#FFF" d="M139.938 141.995c0 .226-.02.446-.06.66l1.097.296c-.082-.35-.174-.72-.27-1.09-.125-.45-.26-.89-.397-1.33l-.56.23c.122.39.19.81.19 1.24zm-1.063-2.75l.785-.53c-.26-.656-.54-1.29-.84-1.896l-.732 1.75c.29.19.555.41.787.67z"/><path fill="#FFE000" d="M131.292 129.68l.683 1.416-.683 1.366 1.45-.504 1.035 1.59.48-1.995h.9c-.69-.728-1.353-1.308-1.978-1.767l-.23.27-1.67-.376zm9.08 22.006l-1.163 1.412-1.67-.38.68 1.42-.69 1.364 1.45-.503.44.66c.48-.66.87-1.34 1.17-2.03l-.23-.2v-1.76zm-.492-9.03c.034-.215.058-.436.058-.66 0-.432-.064-.85-.188-1.238l.562-.23c-.2-.623-.414-1.227-.646-1.81l-.785.528c-.23-.257-.49-.486-.78-.678l.73-1.752c-.35-.705-.72-1.38-1.11-2.012l-.74.698.09 2.57c-.38-.12-.79-.187-1.21-.187-.35 0-.69.05-1.02.133l-.57-2.48-.89-.652-.32 1.215 1.07 2.18c-.56.27-1.06.65-1.44 1.13l-1.49-1.71h-2.01l.44 1.73 2.44 1.09c-.18.46-.28.96-.28 1.48 0 .22.02.44.06.65l-1.98.19-1.22 1.41-.37.38 1.87.7 2.27-1.17c.32.52.74.96 1.25 1.29l-1.22 1.98v1.93l1.73-1.26.77-2.09c.31.08.63.12.97.12.27 0 .53-.02.79-.08l1.13 3.03 1.07.66.27-1.66-1.53-2.31c.83-.38 1.51-1.03 1.93-1.85l1.85.93c-.09-.6-.21-1.21-.35-1.84l-1.11-.28z"/><path fill="#58ACDB" d="M115.89 181.02s2.14.236 3.943-.228l.23-5.05-1.702-.953-1.96-1.77 1.46 2.01-1.97 5.98zm21.65 4.71l1.772-8.44-4.397.84s12.75-4.038 14.464-5.217c0 0-5.83 3.73-7.3 4.146-1.47.41 0-.13 0-.13v7.97c0-.01-1.35 1.75-4.55.81z"/><path fill="#007AFF" d="M118.967 191.258s-2.775-.73-2.826-5.14c-1.5.155-2.98.27-4.21-.462.02 2.336-.1 4.104 1.34 5.705 0 0-24.71-.29-23.68 7.3 0 0 2.27 3.98 10.92 1.15l21.42-6.07s1.14-.95-2.94-2.46zm26.8 7.388s-3.926-2.508-5.853-7.955c-1.61.66-3.18.94-4.646.47.904 2.69 1.398 4.94 3.707 7.51 0 0-28.77-.23-27.57 8.64 0 0 4.187 5.2 13.602.84l24.207-6.6c-.005 0 1.32-1.11-3.446-2.89z"/><path fill="#B3E0FF" d="M89.982 199.148s-.85-6.512 24.076-7.318c0 0-1.395-1.72-1.586-5.91l1.586.305s-1.684.28.842 6.313c0 0-21.352.837-23.677 7.5l-1.24-.89zm22.526 9.12s-2.15-7.012 27.152-9.524c0 0-3.12-4.03-3.71-7.433h1.795s-.438 2.77 3.23 7.73c0 0-26.038 2.87-26.806 10.14"/><path fill="#EF4B4D" d="M82.093 62.986H76.93c-.262 0-.464-.05-.608-.148-.142-.1-.213-.24-.213-.422 0-.3.14-.497.43-.592.24-.08.38-.13.42-.147.04-.02.08-.06.12-.126.08-.11.13-.3.13-.56V50.02c0-.256-.05-.442-.13-.56-.05-.065-.09-.107-.13-.125-.04-.018-.18-.068-.43-.148-.29-.095-.44-.292-.44-.592 0-.183.07-.323.21-.422.14-.1.34-.148.61-.148h5.55c.32 0 .55.044.69.132.19.117.28.27.28.46 0 .322-.18.522-.53.604-.29.07-.46.11-.51.14-.05.02-.1.07-.16.13-.11.13-.17.34-.17.62v12.88zm.888 0v-1.228c.36-.066.65-.14.85-.22.21-.08.41-.196.6-.35.31-.24.59-.573.85-.997.26-.42.47-.89.63-1.41.12-.4.23-.66.33-.79s.25-.19.44-.19c.21 0 .36.09.45.25.05.08.07.24.07.49V63H83zm9.09-12.176l.56 2.268-1.94 7.08c-.06.206-.08.396-.08.57 0 .46.22.79.65.987l.39.175c.24.11.36.292.36.548 0 .365-.26.548-.8.548h-2.79c-.27 0-.48-.057-.64-.17-.15-.113-.23-.27-.23-.466 0-.212.17-.387.49-.526.3-.13.52-.25.67-.356.15-.106.28-.25.41-.433.21-.3.38-.698.51-1.194l2.48-9.03zm.76-2.786h4.42l3.05 12.88c.06.226.13.426.2.602.07.14.21.252.44.34.19.08.32.16.4.24.07.08.11.19.11.33 0 .38-.28.57-.85.57h-5.47c-.22 0-.39-.054-.52-.16-.13-.105-.19-.246-.19-.422 0-.146.03-.256.09-.33.06-.072.19-.164.4-.273.15-.07.25-.15.31-.24.06-.08.09-.19.09-.33 0-.12-.01-.23-.03-.32l-.35-1.59h-3.06l.3-1.3h2.45l-2.02-8.91.28-1.07zm15.4 14.962h-5.16c-.26 0-.46-.05-.61-.148-.14-.1-.21-.24-.21-.422 0-.3.15-.497.44-.592.25-.08.39-.13.43-.147.04-.02.09-.06.13-.126.09-.11.13-.3.13-.56V50.02c0-.256-.04-.442-.13-.56-.04-.065-.08-.107-.12-.125-.04-.018-.18-.068-.42-.148-.29-.095-.43-.292-.43-.592 0-.183.07-.323.22-.422.15-.1.35-.148.61-.148h5.55c.32 0 .55.044.69.132.19.117.29.27.29.46 0 .322-.17.522-.52.604-.28.07-.45.11-.5.14-.05.02-.1.07-.16.13-.11.13-.17.34-.17.62L108.25 63zm.89 0v-1.228c.36-.066.64-.14.85-.22.21-.08.41-.196.6-.35.31-.24.59-.573.85-.997.26-.42.47-.89.63-1.41.12-.4.23-.66.33-.79s.24-.19.43-.19c.21 0 .36.09.45.25.05.08.07.24.07.49V63h-4.19zm9.08-12.176l.56 2.268-1.94 7.08c-.06.206-.09.396-.09.57 0 .46.22.79.65.987l.39.175c.24.11.36.292.36.548 0 .365-.26.548-.8.548h-2.78c-.27 0-.48-.057-.64-.17-.16-.113-.23-.27-.23-.466 0-.212.16-.387.49-.526.3-.13.52-.25.67-.356.14-.106.28-.25.41-.433.21-.3.38-.698.51-1.194l2.48-9.03zm.76-2.786h4.42l3.05 12.88c.06.226.13.426.2.602.06.14.21.252.44.34.19.08.32.16.4.24.08.08.11.19.11.33 0 .38-.28.57-.85.57h-5.47c-.22 0-.39-.054-.52-.16-.13-.105-.19-.246-.19-.422 0-.146.03-.256.09-.33.06-.072.19-.164.4-.273.15-.07.25-.15.31-.24s.09-.19.09-.33c0-.12-.01-.23-.03-.32l-.35-1.59H118l.3-1.3h2.455l-2.02-8.91.28-1.07zm15.4 0v14.962h-5.16c-.27 0-.47-.05-.61-.148-.14-.1-.22-.24-.22-.422 0-.3.15-.497.44-.592.24-.08.38-.13.43-.147.04-.02.08-.06.13-.126.09-.11.13-.3.13-.56V50.02c0-.256-.04-.442-.13-.56-.04-.065-.09-.107-.13-.125-.04-.018-.18-.068-.42-.148-.29-.095-.43-.292-.43-.592 0-.183.07-.323.22-.422.15-.1.35-.148.61-.148h5.16zm3.41 7.213c.66.13 1.17.26 1.52.383.36.125.68.28.96.47.49.315.87.73 1.13 1.245.26.515.39 1.09.39 1.727 0 1.25-.46 2.225-1.38 2.927-.47.36-1 .62-1.57.77-.57.15-1.32.22-2.25.22h-1.31v-1.15c.29-.03.52-.07.69-.13s.32-.17.45-.32c.24-.27.36-.69.36-1.26v-2.48c0-.37-.03-.65-.09-.86-.06-.21-.17-.39-.34-.56-.13-.13-.26-.23-.41-.29-.14-.06-.35-.1-.62-.14v-1.14c.27-.02.48-.06.63-.11.15-.05.28-.14.41-.25.11-.11.22-.25.3-.43.07-.17.12-.33.13-.48v-2.5c0-.2-.03-.4-.1-.62-.06-.21-.15-.38-.24-.51-.14-.17-.3-.29-.47-.37-.17-.08-.4-.13-.69-.16v-1.2h1.27c1.67 0 2.94.34 3.81 1.03.41.31.71.69.93 1.14.21.44.32.93.32 1.44 0 .51-.1.99-.32 1.44-.21.45-.51.83-.9 1.13-.28.23-.61.42-.98.57s-.9.29-1.58.45zm8.7-4.427l.56 2.268-1.93 7.08c-.06.206-.09.396-.09.57 0 .46.22.79.65.987l.39.175c.24.11.36.292.36.548 0 .365-.26.548-.8.548h-2.79c-.27 0-.48-.057-.64-.17-.15-.113-.23-.27-.23-.466 0-.212.16-.387.48-.526.3-.13.52-.25.67-.356.15-.106.28-.25.41-.433.21-.3.37-.698.51-1.194l2.48-9.03zm.76-2.786h4.42l3.05 12.88c.06.226.13.426.2.602.06.14.21.252.43.34.19.08.32.16.4.24.07.08.11.19.11.33 0 .38-.28.57-.85.57h-5.47c-.22 0-.39-.054-.52-.16-.13-.105-.2-.246-.2-.422 0-.146.03-.256.09-.33.06-.072.19-.164.4-.273.15-.07.25-.15.31-.24.07-.08.09-.19.09-.33 0-.12-.01-.23-.03-.32l-.35-1.59h-3.06l.29-1.3h2.45l-2.02-8.91.28-1.07zm11.03 3.848l1.16 1.93v5.874c0 .512.08.932.26 1.26.17.33.44.6.81.813l.33.18c.19.11.28.27.28.49 0 .17-.07.3-.21.41-.12.09-.36.14-.73.14h-2.53c-.66 0-1-.19-1-.57 0-.13.04-.24.11-.31.07-.08.22-.18.46-.32.7-.39 1.05-1.09 1.05-2.12v-7.8zm4.59-3.848l5.83 10.128v4.834h-2.99l-7.45-12.824c-.16-.278-.29-.472-.39-.58-.1-.11-.23-.19-.39-.242l-.41-.153c-.11-.037-.19-.103-.26-.197-.06-.095-.1-.2-.1-.318 0-.125.03-.24.1-.345.07-.106.15-.18.27-.225.12-.05.46-.077 1.01-.077h4.8zm5.83 8.374l-1.16-1.962V51.4c0-.613-.1-1.083-.28-1.408-.18-.325-.49-.604-.94-.84-.15-.072-.26-.15-.31-.234-.06-.084-.08-.192-.08-.323 0-.197.07-.342.19-.433.13-.09.34-.137.62-.137h2.74c.38 0 .62.06.73.176.13.12.19.26.19.42 0 .16-.03.27-.1.35-.07.08-.23.18-.5.32-.39.2-.68.5-.88.91-.14.3-.21.71-.21 1.22v4.99h.01z"/><path fill="#105EB2" d="M101.398 68.513l.708 2.874-2.458 8.97c-.074.26-.11.5-.11.722 0 .58.27.99.818 1.24l.486.22c.305.14.458.37.458.69 0 .46-.338.69-1.014.69H96.76c-.343 0-.613-.08-.813-.22-.2-.15-.298-.34-.298-.59 0-.27.2-.49.61-.67.38-.17.66-.32.84-.45.18-.14.35-.32.52-.55.26-.38.47-.88.64-1.51l3.13-11.44zm.958-3.527h5.595l3.86 16.313c.08.28.16.54.25.76.09.17.27.32.56.43.24.1.41.2.5.3.09.1.14.24.14.41 0 .48-.36.72-1.08.72h-6.93c-.27 0-.5-.07-.66-.2-.16-.14-.25-.32-.25-.54 0-.19.04-.33.11-.42.08-.09.24-.21.5-.35.19-.1.32-.2.39-.31.08-.11.11-.25.11-.42 0-.16-.01-.3-.04-.42l-.44-2.02h-3.87l.38-1.65h3.11l-2.55-11.29.35-1.36zm19.602 18.952h-6.552c-.334 0-.592-.062-.772-.187-.18-.12-.27-.3-.27-.53 0-.38.184-.63.554-.75.306-.1.484-.16.534-.18.05-.02.104-.07.16-.16.11-.15.167-.38.167-.71v-13.9c0-.32-.06-.56-.17-.7-.06-.08-.11-.13-.16-.16-.05-.02-.23-.08-.54-.19-.37-.12-.56-.37-.56-.75 0-.23.09-.41.27-.53.18-.12.44-.19.77-.19h6.91c.33 0 .59.07.77.19.18.13.27.3.27.54 0 .38-.19.63-.56.75-.31.1-.49.17-.54.19-.05.03-.11.08-.16.16-.11.15-.17.39-.17.71v13.89c0 .52.13.83.4.92l.43.14c.35.11.53.36.53.75 0 .48-.33.72-.99.72h-.37zm5.498-13.454l4.192 10.968c.108.296.228.52.348.673.12.153.277.27.473.354.19.09.31.16.37.2.13.13.19.3.19.51 0 .49-.35.73-1.04.73H125c-.333 0-.59-.07-.77-.21-.18-.14-.27-.34-.27-.6 0-.3.17-.53.513-.7.212-.1.355-.19.43-.26.074-.07.116-.17.125-.29 0-.07-.037-.21-.11-.44l-1.78-5.31c-.165-.49-.25-.91-.25-1.25 0-.33.136-.68.405-1.06l3.317-4.68c.313-.44.474-.89.474-1.36 0-.26-.07-.5-.21-.72-.14-.23-.322-.38-.554-.48l-.5-.21c-.313-.13-.47-.34-.47-.65 0-.25.1-.45.292-.61.13-.1.343-.15.64-.15h4.94c.324 0 .576.07.76.21.18.14.27.34.27.6 0 .39-.213.66-.64.83l-.733.29c-.31.11-.69.36-1.17.75-.35.29-.78.79-1.31 1.48l-.97 1.32zm13.297-4.374c-.472.168-.806.395-1 .68-.194.288-.292.71-.292 1.265v12.412c0 .815.12 1.39.34 1.722.18.27.5.47.96.59v1.52c-2.05-.17-3.77-.94-5.16-2.32-1.8-1.8-2.7-4.3-2.7-7.51 0-1.62.24-3.07.72-4.37.48-1.3 1.18-2.41 2.12-3.31.72-.7 1.48-1.22 2.31-1.59.83-.36 1.74-.56 2.74-.61v1.5zm1.138 0v-1.5c1 .048 1.92.25 2.75.612.83.36 1.6.888 2.32 1.583 1.89 1.842 2.83 4.4 2.83 7.678 0 3.212-.9 5.716-2.7 7.51-1.39 1.39-3.11 2.162-5.18 2.32v-1.528c.24-.055.43-.127.57-.215.14-.088.26-.215.37-.382.25-.38.38-.953.38-1.722v-12.41c0-.49-.08-.88-.25-1.167-.11-.2-.24-.35-.39-.46-.15-.11-.37-.22-.66-.32z"/><path fill="#FFA71A" d="M81.268 67.693l1.522 3.085 3.403.494-2.462 2.4.59 3.39-3.04-1.6-3.04 1.6.58-3.39-2.46-2.4 3.41-.494m85.11-3.085l1.52 3.085 3.41.494-2.46 2.4.58 3.39-3.04-1.6-3.04 1.6.59-3.39-2.46-2.4 3.41-.494"/><path fill="#FFE05F" d="M121.34 38.575l1.52 3.084 3.406.49-2.464 2.4.58 3.39-3.043-1.6-3.05 1.6.58-3.39-2.46-2.4 3.4-.5"/><path fill="#00AEEF" d="M135.373 171.857c.23-.313.275-.7.13-1.152-.183-.574-.522-.916-.962-.982-.33-.05-.69.063-1.15.21l-.12.036-1.41.44 1.59 4.99 1.66-.53c.46-.15.84-.27 1.1-.6.27-.35.33-.86.14-1.45-.19-.6-.49-.91-.95-.98m-1.99-.68l.33-.11c.44-.14.63-.16.75.23.11.33 0 .48-.31.57l-.49.16-.28-.86zm1.42 2.51l-.55.18-.29-.93.55-.18c.36-.11.56-.06.67.29.12.35 0 .52-.36.63m1.87-4.56l1.6 4.99-1.11.35-1.59-4.99zm9.36-.31c-.28-.36-.67-.48-1.12-.34-.4.13-.65.44-.77.95-.35-.38-.66-.49-1.02-.38-.39.12-.63.42-.73.94l-.17-.54-1 .32 1.17 3.68 1.08-.35-.63-1.98c-.14-.44-.08-.7.17-.77.28-.09.45.09.61.58l.61 1.92 1.08-.34-.62-1.96c-.14-.46-.09-.71.18-.79.27-.09.44.09.58.54l.63 1.97.47-.15-.56-3.31.06-.01z"/><path fill="#1C75BC" d="M148.26 168.38c-.025.003-.057.003-.09.01-.03 0-.064.003-.1.007-.033.006-.063.01-.092.017-.13.02-.246.06-.345.104-.098.05-.18.107-.25.182-.067.068-.132.15-.184.244-.06.095-.1.19-.14.306l-.06.008-.26-.562-.74.127-.07.013.56 3.313.1.6 1.06-.19-.34-2c-.03-.19-.03-.35-.01-.48.02-.14.07-.25.14-.34.07-.09.16-.17.27-.23.1-.06.23-.09.37-.12l.09-.02c.03-.01.06-.01.1-.01.04-.01.07-.01.1-.01h.08l-.17-1h-.05"/><path fill="#00AEEF" d="M137.9 170.184c.27-.06.438-.328.377-.598-.063-.266-.327-.436-.596-.373-.27.06-.43.326-.37.594.06.265.33.433.6.377m2.33-.696c.27-.063.44-.326.38-.594-.06-.27-.33-.438-.59-.375-.27.06-.43.32-.37.59.06.26.33.43.6.37m1.28 2.24l-.59-2.13-1.11.31.56 1.96c.05.18.08.33.1.47.01.11 0 .22-.03.29-.02.07-.07.13-.14.18-.05.03-.11.07-.18.1l-.04.01c-.12.03-.23.05-.31.05-.08-.01-.15-.03-.22-.08-.06-.05-.13-.13-.19-.23-.06-.12-.12-.27-.18-.44l-.61-1.95-1.1.35.67 2.1c.18.56.47.96.85 1.17.28.15.61.21.96.16.02 0 .04-.01.05-.01.04 0 .08-.01.12-.02l.25-.06c.52-.15.89-.42 1.1-.81.2-.41.22-.89.06-1.46"/></svg>